<svg width="20736" height="3048" viewBox="0 0 20736 3048" xmlns="http://www.w3.org/2000/svg">
    <defs/>
    <path fill="#000000" stroke="none" transform="matrix(1 0 0 -1 0 2164)" d="M 320 256 L 484 91 C 512.66666666667 108.33333333333 535.33333333333 132 552 162 C 568 191.33333333333 576 222.66666666667 576 256 L 640 256 C 640 220.66666666667 633.33333333333 187.66666666667 620 157 C 606.66666666667 125.66666666667 588.33333333333 98.33333333333 565 75 C 541.66666666667 51.66666666667 514.66666666667 33.33333333333 484 20 C 452.66666666667 6.66666666667 419.33333333333 0 384 0 C 348.66666666667 0 315.33333333333 6.66666666667 284 20 C 252.66666666667 33.33333333333 225.66666666667 51.66666666667 203 75 C 179.66666666667 97.66666666667 161.33333333333 124.66666666667 148 156 C 134.66666666667 187.33333333333 128 220.66666666667 128 256 L 128 1280 C 128 1315.33333333333 134.66666666667 1348.66666666667 148 1380 C 161.33333333333 1410.66666666667 179.66666666667 1437.66666666667 203 1461 C 226.33333333333 1484.33333333333 253.66666666667 1502.66666666667 285 1516 C 315.66666666667 1529.33333333333 348.66666666667 1536 384 1536 C 419.33333333333 1536 452.66666666667 1529.33333333333 484 1516 C 514.66666666667 1502 541.66666666667 1483.66666666667 565 1461 C 587.66666666667 1437.66666666667 606 1410.66666666667 620 1380 C 633.33333333333 1348.66666666667 640 1315.33333333333 640 1280 L 640 384 L 448 384 L 448 1280 L 283 1444 C 272.33333333333 1437.33333333333 260.66666666667 1427.66666666667 248 1415 C 235.33333333333 1402.33333333333 225.66666666667 1390.66666666667 219 1380 L 320 1280 L 320 256 Z"/>
    <path fill="#000000" stroke="none" transform="matrix(1 0 0 -1 640 2164)" d="M 320 0 L 128 0 L 128 1536 L 448 1536 L 523 1460 C 573 1510.66666666667 633.33333333333 1536 704 1536 L 960 1536 L 960 0 L 768 0 L 768 1472 L 704 1472 C 670.66666666667 1472 639.33333333333 1464 610 1448 C 580 1431.33333333333 556.33333333333 1408.66666666667 539 1380 L 640 1280 L 640 0 L 448 0 L 448 1280 L 283 1444 C 272.33333333333 1437.33333333333 260.66666666667 1427.66666666667 248 1415 C 235.33333333333 1402.33333333333 225.66666666667 1390.66666666667 219 1380 L 320 1280 L 320 0 Z"/>
    <path fill="#000000" stroke="none" transform="matrix(1 0 0 -1 1600 2164)" d="M 320 0 L 128 0 L 128 1536 L 320 1536 L 320 960 L 484 795 C 494.66666666667 801.66666666667 506.33333333333 811.33333333333 519 824 C 531.66666666667 836.66666666667 541.33333333333 848.33333333333 548 859 L 448 960 L 448 1536 L 640 1536 L 640 960 C 640 916 630.33333333333 876.33333333333 611 841 C 591.66666666667 805.66666666667 564.66666666667 775 530 749 L 640 640 L 640 0 L 448 0 L 448 576 L 283 740 C 272.33333333333 733.33333333333 260.66666666667 723.66666666667 248 711 C 235.33333333333 698.33333333333 225.66666666667 686.66666666667 219 676 L 320 576 L 320 0 Z"/>
    <path fill="#000000" stroke="none" transform="matrix(1 0 0 -1 2240 2164)" d="M 320 256 L 484 91 C 494.66666666667 97.66666666667 506.33333333333 107.33333333333 519 120 C 531.66666666667 132.66666666667 541.33333333333 144.33333333333 548 155 L 448 256 L 448 576 L 128 896 L 128 1280 C 128 1315.33333333333 134.66666666667 1348.66666666667 148 1380 C 161.33333333333 1410.66666666667 179.66666666667 1437.66666666667 203 1461 C 226.33333333333 1484.33333333333 253.66666666667 1502.66666666667 285 1516 C 315.66666666667 1529.33333333333 348.66666666667 1536 384 1536 C 419.33333333333 1536 452.66666666667 1529.33333333333 484 1516 C 514.66666666667 1502 541.66666666667 1483.66666666667 565 1461 C 587.66666666667 1437.66666666667 606 1410.66666666667 620 1380 C 633.33333333333 1348.66666666667 640 1315.33333333333 640 1280 L 640 768 L 448 960 L 448 1280 L 283 1444 C 272.33333333333 1437.33333333333 260.66666666667 1427.66666666667 248 1415 C 235.33333333333 1402.33333333333 225.66666666667 1390.66666666667 219 1380 L 320 1280 L 320 960 L 640 640 L 640 256 C 640 220.66666666667 633.33333333333 187.66666666667 620 157 C 606.66666666667 125.66666666667 588.33333333333 98.33333333333 565 75 C 541.66666666667 51.66666666667 514.66666666667 33.33333333333 484 20 C 452.66666666667 6.66666666667 419.33333333333 0 384 0 C 348.66666666667 0 315.33333333333 6.66666666667 284 20 C 252.66666666667 33.33333333333 225.66666666667 51.66666666667 203 75 C 179.66666666667 97.66666666667 161.33333333333 124.66666666667 148 156 C 134.66666666667 187.33333333333 128 220.66666666667 128 256 L 128 768 L 320 576 L 320 256 Z"/>
    <path fill="#000000" stroke="none" transform="matrix(1 0 0 -1 2880 2164)" d="M 320 0 L 128 0 L 128 1536 L 384 1536 C 419.33333333333 1536 452.66666666667 1529.33333333333 484 1516 C 514.66666666667 1502 541.66666666667 1483.66666666667 565 1461 C 587.66666666667 1437.66666666667 606 1410.66666666667 620 1380 C 633.33333333333 1348.66666666667 640 1315.33333333333 640 1280 L 640 960 C 640 916 630.33333333333 876.33333333333 611 841 C 591.66666666667 805.66666666667 564.66666666667 775 530 749 L 640 640 L 640 0 L 448 0 L 448 576 L 283 740 C 272.33333333333 733.33333333333 260.66666666667 723.66666666667 248 711 C 235.33333333333 698.33333333333 225.66666666667 686.66666666667 219 676 L 320 576 L 320 0 Z M 320 960 L 484 795 C 494.66666666667 801.66666666667 506.33333333333 811.33333333333 519 824 C 531.66666666667 836.66666666667 541.33333333333 848.33333333333 548 859 L 448 960 L 448 1280 L 283 1444 C 272.33333333333 1437.33333333333 260.66666666667 1427.66666666667 248 1415 C 235.33333333333 1402.33333333333 225.66666666667 1390.66666666667 219 1380 L 320 1280 L 320 960 Z"/>
    <path fill="#000000" stroke="none" transform="matrix(1 0 0 -1 3520 2164)" d="M 64 -320 C 97.33333333333 -320 128.66666666667 -311.66666666667 158 -295 C 187.33333333333 -278.33333333333 210.66666666667 -256 228 -228 L 128 -128 L 128 1536 L 320 1536 L 320 -128 C 320 -163.33333333333 313.33333333333 -196.33333333333 300 -227 C 286 -258.33333333333 267.66666666667 -285.33333333333 245 -308 C 221.66666666667 -331.33333333333 194.66666666667 -349.66666666667 164 -363 C 132.66666666667 -377 99.33333333333 -384 64 -384 L 64 -320 Z"/>
    <path fill="#000000" stroke="none" transform="matrix(1 0 0 -1 4224 2164)" d="M 80 64 L 128 64 L 128 1472 L 80 1472 L 80 1536 L 368 1536 L 368 1472 L 320 1472 L 320 64 L 368 64 L 368 0 L 80 0 L 80 64 Z"/>
    <path fill="#000000" stroke="none" transform="matrix(1 0 0 -1 4544 2164)" d="M 640 0 L 448 0 L 448 1472 L 384 1472 C 350.66666666667 1472 319.33333333333 1464 290 1448 C 260 1431.33333333333 236.33333333333 1408.66666666667 219 1380 L 320 1280 L 320 896 L 128 896 L 128 1536 L 960 1536 L 960 896 L 768 896 L 768 1472 L 704 1472 C 670.66666666667 1472 639.33333333333 1464 610 1448 C 580 1431.33333333333 556.33333333333 1408.66666666667 539 1380 L 640 1280 L 640 0 Z"/>
    <path fill="#000000" stroke="none" transform="matrix(1 0 0 -1 5504 2164)" d="M 320 256 L 484 91 C 494.66666666667 97.66666666667 506.33333333333 107.33333333333 519 120 C 531.66666666667 132.66666666667 541.33333333333 144.33333333333 548 155 L 448 256 L 448 576 L 128 896 L 128 1280 C 128 1315.33333333333 134.66666666667 1348.66666666667 148 1380 C 161.33333333333 1410.66666666667 179.66666666667 1437.66666666667 203 1461 C 226.33333333333 1484.33333333333 253.66666666667 1502.66666666667 285 1516 C 315.66666666667 1529.33333333333 348.66666666667 1536 384 1536 C 419.33333333333 1536 452.66666666667 1529.33333333333 484 1516 C 514.66666666667 1502 541.66666666667 1483.66666666667 565 1461 C 587.66666666667 1437.66666666667 606 1410.66666666667 620 1380 C 633.33333333333 1348.66666666667 640 1315.33333333333 640 1280 L 640 768 L 448 960 L 448 1280 L 283 1444 C 272.33333333333 1437.33333333333 260.66666666667 1427.66666666667 248 1415 C 235.33333333333 1402.33333333333 225.66666666667 1390.66666666667 219 1380 L 320 1280 L 320 960 L 640 640 L 640 256 C 640 220.66666666667 633.33333333333 187.66666666667 620 157 C 606.66666666667 125.66666666667 588.33333333333 98.33333333333 565 75 C 541.66666666667 51.66666666667 514.66666666667 33.33333333333 484 20 C 452.66666666667 6.66666666667 419.33333333333 0 384 0 C 348.66666666667 0 315.33333333333 6.66666666667 284 20 C 252.66666666667 33.33333333333 225.66666666667 51.66666666667 203 75 C 179.66666666667 97.66666666667 161.33333333333 124.66666666667 148 156 C 134.66666666667 187.33333333333 128 220.66666666667 128 256 L 128 768 L 320 576 L 320 256 Z"/>
    <path fill="#000000" stroke="none" transform="matrix(1 0 0 -1 6144 2164)" d="M 320 64 L 384 64 C 417.33333333333 64 448.66666666667 72.33333333333 478 89 C 507.33333333333 105 530.66666666667 127 548 155 L 448 256 L 448 640 L 640 640 L 640 0 L 128 0 L 128 1536 L 320 1536 L 320 64 Z"/>
    <path fill="#000000" stroke="none" transform="matrix(1 0 0 -1 6784 2164)" d="M 640 256 C 640 220.66666666667 633.33333333333 187.66666666667 620 157 C 606.66666666667 125.66666666667 588.33333333333 98.33333333333 565 75 C 541.66666666667 51.66666666667 514.66666666667 33.33333333333 484 20 C 452.66666666667 6.66666666667 419.33333333333 0 384 0 L 128 0 L 128 1536 L 384 1536 C 419.33333333333 1536 452.66666666667 1529.33333333333 484 1516 C 514.66666666667 1502 541.66666666667 1483.66666666667 565 1461 C 587.66666666667 1437.66666666667 606 1410.66666666667 620 1380 C 633.33333333333 1348.66666666667 640 1315.33333333333 640 1280 L 640 960 C 640 916 630.33333333333 876.33333333333 611 841 C 591.66666666667 805.66666666667 564.66666666667 775 530 749 L 640 640 L 640 256 Z M 320 64 L 384 64 C 417.33333333333 64 448.66666666667 72.33333333333 478 89 C 507.33333333333 105 530.66666666667 127 548 155 L 448 256 L 448 576 L 283 740 C 272.33333333333 733.33333333333 260.66666666667 723.66666666667 248 711 C 235.33333333333 698.33333333333 225.66666666667 686.66666666667 219 676 L 320 576 L 320 64 Z M 320 960 L 484 795 C 494.66666666667 801.66666666667 506.33333333333 811.33333333333 519 824 C 531.66666666667 836.66666666667 541.33333333333 848.33333333333 548 859 L 448 960 L 448 1280 L 283 1444 C 272.33333333333 1437.33333333333 260.66666666667 1427.66666666667 248 1415 C 235.33333333333 1402.33333333333 225.66666666667 1390.66666666667 219 1380 L 320 1280 L 320 960 Z"/>
    <path fill="#000000" stroke="none" transform="matrix(1 0 0 -1 7424 2164)" d="M 320 64 L 384 64 C 417.33333333333 64 448.66666666667 72.33333333333 478 89 C 507.33333333333 105 530.66666666667 127 548 155 L 448 256 L 448 640 L 640 832 L 640 0 L 128 0 L 128 576 L 448 896 L 448 1472 L 384 1472 C 350.66666666667 1472 319.33333333333 1464 290 1448 C 260 1431.33333333333 236.33333333333 1408.66666666667 219 1380 L 320 1280 L 320 896 L 128 704 L 128 1536 L 640 1536 L 640 960 L 320 640 L 320 64 Z"/>
    <path fill="#000000" stroke="none" transform="matrix(1 0 0 -1 8448 2164)" d="M 320 0 L 128 0 L 128 448 C 128 492 137.66666666667 531.66666666667 157 567 C 176.33333333333 602.33333333333 203 632.66666666667 237 658 L 128 768 L 128 1280 L 320 1280 L 320 832 L 484 667 C 494.66666666667 673.66666666667 506.33333333333 683.33333333333 519 696 C 531.66666666667 708.66666666667 541.33333333333 720.33333333333 548 731 L 448 832 L 448 1280 L 640 1280 L 640 832 C 640 788 630.33333333333 748.33333333333 611 713 C 591.66666666667 677.66666666667 564.66666666667 647 530 621 L 640 512 L 640 0 L 448 0 L 448 448 L 283 612 C 272.33333333333 605.33333333333 260.66666666667 595.66666666667 248 583 C 235.33333333333 570.33333333333 225.66666666667 558.66666666667 219 548 L 320 448 L 320 0 Z"/>
    <path fill="#000000" stroke="none" transform="matrix(1 0 0 -1 9088 2164)" d="M 320 0 L 128 0 L 128 1664 L 320 1664 L 320 1280 L 384 1280 C 419.33333333333 1280 452.66666666667 1273.33333333333 484 1260 C 514.66666666667 1246 541.66666666667 1227.66666666667 565 1205 C 587.66666666667 1181.66666666667 606 1154.66666666667 620 1124 C 633.33333333333 1092.66666666667 640 1059.33333333333 640 1024 L 640 0 L 448 0 L 448 1024 L 283 1188 C 272.33333333333 1181.33333333333 260.66666666667 1171.66666666667 248 1159 C 235.33333333333 1146.33333333333 225.66666666667 1134.66666666667 219 1124 L 320 1024 L 320 0 Z"/>
    <path fill="#000000" stroke="none" transform="matrix(1 0 0 -1 9728 2164)" d="M 320 256 L 484 91 C 512.66666666667 108.33333333333 535.33333333333 132 552 162 C 568 191.33333333333 576 222.66666666667 576 256 L 640 256 C 640 220.66666666667 633.33333333333 187.66666666667 620 157 C 606.66666666667 125.66666666667 588.33333333333 98.33333333333 565 75 C 541.66666666667 51.66666666667 514.66666666667 33.33333333333 484 20 C 452.66666666667 6.66666666667 419.33333333333 0 384 0 C 348.66666666667 0 315.33333333333 6.66666666667 284 20 C 252.66666666667 33.33333333333 225.66666666667 51.66666666667 203 75 C 179.66666666667 97.66666666667 161.33333333333 124.66666666667 148 156 C 134.66666666667 187.33333333333 128 220.66666666667 128 256 L 128 1024 C 128 1059.33333333333 134.66666666667 1092.66666666667 148 1124 C 161.33333333333 1154.66666666667 179.66666666667 1181.66666666667 203 1205 C 226.33333333333 1228.33333333333 253.66666666667 1246.66666666667 285 1260 C 315.66666666667 1273.33333333333 348.66666666667 1280 384 1280 C 419.33333333333 1280 452.66666666667 1273.33333333333 484 1260 C 514.66666666667 1246 541.66666666667 1227.66666666667 565 1205 C 587.66666666667 1181.66666666667 606 1154.66666666667 620 1124 C 633.33333333333 1092.66666666667 640 1059.33333333333 640 1024 L 640 384 L 320 384 L 320 256 Z M 320 448 L 448 448 L 448 1024 L 283 1188 C 272.33333333333 1181.33333333333 260.66666666667 1171.66666666667 248 1159 C 235.33333333333 1146.33333333333 225.66666666667 1134.66666666667 219 1124 L 320 1024 L 320 448 Z"/>
    <path fill="#000000" stroke="none" transform="matrix(1 0 0 -1 10368 2164)" d="M 576 0 L 576 86 C 574 84 572 82 570 80 C 568 78 566 76.33333333333 564 75 C 514 25 454 0 384 0 C 348.66666666667 0 315.33333333333 6.66666666667 284 20 C 252.66666666667 33.33333333333 225.66666666667 51.66666666667 203 75 C 179.66666666667 97.66666666667 161.33333333333 124.66666666667 148 156 C 134.66666666667 187.33333333333 128 220.66666666667 128 256 L 128 1024 C 128 1059.33333333333 134.66666666667 1092.66666666667 148 1124 C 161.33333333333 1154.66666666667 179.66666666667 1181.66666666667 203 1205 C 226.33333333333 1228.33333333333 253.66666666667 1246.66666666667 285 1260 C 315.66666666667 1273.33333333333 348.66666666667 1280 384 1280 L 448 1280 L 448 1664 L 640 1664 L 640 0 L 576 0 Z M 320 256 L 484 91 C 494.66666666667 97.66666666667 506.33333333333 107.33333333333 519 120 C 531.66666666667 132.66666666667 541.33333333333 144.33333333333 548 155 L 448 256 L 448 1024 L 283 1188 C 272.33333333333 1181.33333333333 260.66666666667 1171.66666666667 248 1159 C 235.33333333333 1146.33333333333 225.66666666667 1134.66666666667 219 1124 L 320 1024 L 320 256 Z"/>
    <path fill="#000000" stroke="none" transform="matrix(1 0 0 -1 11008 2164)" d="M 320 0 L 128 0 L 128 1664 L 320 1664 L 320 1280 L 384 1280 C 419.33333333333 1280 452.66666666667 1273.33333333333 484 1260 C 514.66666666667 1246 541.66666666667 1227.66666666667 565 1205 C 587.66666666667 1181.66666666667 606 1154.66666666667 620 1124 C 633.33333333333 1092.66666666667 640 1059.33333333333 640 1024 L 640 0 L 448 0 L 448 1024 L 283 1188 C 272.33333333333 1181.33333333333 260.66666666667 1171.66666666667 248 1159 C 235.33333333333 1146.33333333333 225.66666666667 1134.66666666667 219 1124 L 320 1024 L 320 0 Z"/>
    <path fill="#000000" stroke="none" transform="matrix(1 0 0 -1 11648 2164)" d="M 576 0 L 576 86 C 574 84 572 82 570 80 C 568 78 566 76.33333333333 564 75 C 514 25 454 0 384 0 C 348.66666666667 0 315.33333333333 6.66666666667 284 20 C 252.66666666667 33.33333333333 225.66666666667 51.66666666667 203 75 C 179.66666666667 97.66666666667 161.33333333333 124.66666666667 148 156 C 134.66666666667 187.33333333333 128 220.66666666667 128 256 L 128 640 C 128 675.33333333333 134.66666666667 708.66666666667 148 740 C 161.33333333333 770.66666666667 179.66666666667 797.66666666667 203 821 C 226.33333333333 844.33333333333 253.66666666667 862.66666666667 285 876 C 315.66666666667 889.33333333333 348.66666666667 896 384 896 L 448 896 L 448 1024 L 283 1188 C 255 1170.66666666667 233 1147.33333333333 217 1118 C 200.33333333333 1088.66666666667 192 1057.33333333333 192 1024 L 128 1024 C 128 1059.33333333333 134.66666666667 1092.66666666667 148 1124 C 161.33333333333 1154.66666666667 179.66666666667 1181.66666666667 203 1205 C 226.33333333333 1228.33333333333 253.66666666667 1246.66666666667 285 1260 C 315.66666666667 1273.33333333333 348.66666666667 1280 384 1280 C 419.33333333333 1280 452.66666666667 1273.33333333333 484 1260 C 514.66666666667 1246 541.66666666667 1227.66666666667 565 1205 C 587.66666666667 1181.66666666667 606 1154.66666666667 620 1124 C 633.33333333333 1092.66666666667 640 1059.33333333333 640 1024 L 640 0 L 576 0 Z M 320 256 L 484 91 C 494.66666666667 97.66666666667 506.33333333333 107.33333333333 519 120 C 531.66666666667 132.66666666667 541.33333333333 144.33333333333 548 155 L 448 256 L 448 832 L 384 832 C 350.66666666667 832 319.33333333333 824 290 808 C 260 791.33333333333 236.33333333333 768.66666666667 219 740 L 320 640 L 320 256 Z"/>
    <path fill="#000000" stroke="none" transform="matrix(1 0 0 -1 12672 2164)" d="M 320 -384 L 128 -384 L 128 1280 L 192 1280 L 192 1193 C 195.33333333333 1197 199 1200.66666666667 203 1204 C 253 1254.66666666667 313.33333333333 1280 384 1280 C 419.33333333333 1280 452.66666666667 1273.33333333333 484 1260 C 514.66666666667 1246 541.66666666667 1227.66666666667 565 1205 C 587.66666666667 1181.66666666667 606 1154.66666666667 620 1124 C 633.33333333333 1092.66666666667 640 1059.33333333333 640 1024 L 640 256 C 640 220.66666666667 633.33333333333 187.66666666667 620 157 C 606.66666666667 125.66666666667 588.33333333333 98.33333333333 565 75 C 541.66666666667 51.66666666667 514.66666666667 33.33333333333 484 20 C 452.66666666667 6.66666666667 419.33333333333 0 384 0 L 320 0 L 320 -384 Z M 320 256 L 484 91 C 494.66666666667 97.66666666667 506.33333333333 107.33333333333 519 120 C 531.66666666667 132.66666666667 541.33333333333 144.33333333333 548 155 L 448 256 L 448 1024 L 283 1188 C 272.33333333333 1181.33333333333 260.66666666667 1171.66666666667 248 1159 C 235.33333333333 1146.33333333333 225.66666666667 1134.66666666667 219 1124 L 320 1024 L 320 256 Z"/>
    <path fill="#000000" stroke="none" transform="matrix(1 0 0 -1 13312 2164)" d="M 384 0 C 348.66666666667 0 315.33333333333 6.66666666667 284 20 C 252.66666666667 33.33333333333 225.66666666667 51.66666666667 203 75 C 179.66666666667 97.66666666667 161.33333333333 124.66666666667 148 156 C 134.66666666667 187.33333333333 128 220.66666666667 128 256 L 128 1024 C 128 1059.33333333333 134.66666666667 1092.66666666667 148 1124 C 161.33333333333 1154.66666666667 179.66666666667 1181.66666666667 203 1205 C 226.33333333333 1228.33333333333 253.66666666667 1246.66666666667 285 1260 C 315.66666666667 1273.33333333333 348.66666666667 1280 384 1280 L 640 1280 L 640 -384 L 448 -384 L 448 0 L 384 0 Z M 320 256 L 484 91 C 494.66666666667 97.66666666667 506.33333333333 107.33333333333 519 120 C 531.66666666667 132.66666666667 541.33333333333 144.33333333333 548 155 L 448 256 L 448 1024 L 283 1188 C 272.33333333333 1181.33333333333 260.66666666667 1171.66666666667 248 1159 C 235.33333333333 1146.33333333333 225.66666666667 1134.66666666667 219 1124 L 320 1024 L 320 256 Z"/>
    <path fill="#000000" stroke="none" transform="matrix(1 0 0 -1 13952 2164)" d="M 320 0 L 128 0 L 128 1280 L 192 1280 L 192 1193 C 195.33333333333 1197 199 1200.66666666667 203 1204 C 253 1254.66666666667 313.33333333333 1280 384 1280 C 419.33333333333 1280 452.66666666667 1273.33333333333 484 1260 C 514.66666666667 1246 541.66666666667 1227.66666666667 565 1205 C 587.66666666667 1181.66666666667 606 1154.66666666667 620 1124 C 633.33333333333 1092.66666666667 640 1059.33333333333 640 1024 L 640 0 L 448 0 L 448 1024 L 283 1188 C 272.33333333333 1181.33333333333 260.66666666667 1171.66666666667 248 1159 C 235.33333333333 1146.33333333333 225.66666666667 1134.66666666667 219 1124 L 320 1024 L 320 0 Z"/>
    <path fill="#000000" stroke="none" transform="matrix(1 0 0 -1 14592 2164)" d="M 320 0 L 128 0 L 128 1280 L 192 1280 L 192 1193 C 195.33333333333 1197 199 1200.66666666667 203 1204 C 253 1254.66666666667 313.33333333333 1280 384 1280 C 419.33333333333 1280 452.66666666667 1273.33333333333 484 1260 C 514.66666666667 1246 541.66666666667 1227.66666666667 565 1205 C 587.66666666667 1181.66666666667 606 1154.66666666667 620 1124 C 633.33333333333 1092.66666666667 640 1059.33333333333 640 1024 L 640 0 L 448 0 L 448 1024 L 283 1188 C 272.33333333333 1181.33333333333 260.66666666667 1171.66666666667 248 1159 C 235.33333333333 1146.33333333333 225.66666666667 1134.66666666667 219 1124 L 320 1024 L 320 0 Z"/>
    <path fill="#000000" stroke="none" transform="matrix(1 0 0 -1 15232 2164)" d="M 320 0 L 128 0 L 128 1408 C 128 1443.33333333333 134.66666666667 1476.66666666667 148 1508 C 161.33333333333 1538.66666666667 179.66666666667 1565.66666666667 203 1589 C 226.33333333333 1612.33333333333 253.66666666667 1630.66666666667 285 1644 C 315.66666666667 1657.33333333333 348.66666666667 1664 384 1664 C 419.33333333333 1664 452.66666666667 1657.33333333333 484 1644 C 514.66666666667 1630 541.66666666667 1611.66666666667 565 1589 C 587.66666666667 1565.66666666667 606 1538.66666666667 620 1508 C 633.33333333333 1476.66666666667 640 1443.33333333333 640 1408 L 448 1408 L 283 1572 C 255 1554.66666666667 233 1531.33333333333 217 1502 C 200.33333333333 1472.66666666667 192 1441.33333333333 192 1408 L 192 1280 L 640 1280 L 640 1216 L 192 1216 L 192 1152 L 320 1024 L 320 0 Z"/>
    <path fill="#000000" stroke="none" transform="matrix(1 0 0 -1 15744 2164)" d="M 128 192 L 128 1280 L 320 1280 L 320 256 L 484 91 C 494.66666666667 97.66666666667 506.33333333333 107.33333333333 519 120 C 531.66666666667 132.66666666667 541.33333333333 144.33333333333 548 155 L 448 256 L 448 1280 L 640 1280 L 640 256 C 640 220.66666666667 633.33333333333 187.66666666667 620 157 C 606.66666666667 125.66666666667 588.33333333333 98.33333333333 565 75 C 541.66666666667 51.66666666667 514.66666666667 33.33333333333 484 20 C 452.66666666667 6.66666666667 419.33333333333 0 384 0 L 320 0 L 128 192 Z"/>
    <path fill="#000000" stroke="none" transform="matrix(1 0 0 -1 16768 2164)" d="M 128 128 C 128 172 137.66666666667 211.66666666667 157 247 C 176.33333333333 282.33333333333 203 312.66666666667 237 338 L 128 448 C 128 509.33333333333 146.33333333333 562.66666666667 183 608 C 146.33333333333 652.66666666667 128 706 128 768 L 128 1024 C 128 1059.33333333333 134.66666666667 1092.66666666667 148 1124 C 161.33333333333 1154.66666666667 179.66666666667 1181.66666666667 203 1205 C 226.33333333333 1228.33333333333 253.66666666667 1246.66666666667 285 1260 C 315.66666666667 1273.33333333333 348.66666666667 1280 384 1280 L 640 1280 L 640 1216 L 553 1216 C 555 1214 557 1212 559 1210 C 561 1208 562.66666666667 1206 564 1204 C 614.66666666667 1154 640 1094 640 1024 L 640 768 C 640 732.66666666667 633.33333333333 699.66666666667 620 669 C 606.66666666667 637.66666666667 588.33333333333 610.33333333333 565 587 C 541.66666666667 563.66666666667 514.66666666667 545.33333333333 484 532 C 452.66666666667 518.66666666667 419.33333333333 512 384 512 C 356 512 331 515.33333333333 309 522 L 640 192 L 640 -128 C 640 -163.33333333333 633.33333333333 -196.33333333333 620 -227 C 606 -258.33333333333 587.66666666667 -285.33333333333 565 -308 C 541.66666666667 -331.33333333333 514.66666666667 -349.66666666667 484 -363 C 452.66666666667 -377 419.33333333333 -384 384 -384 C 348.66666666667 -384 315.66666666667 -377.33333333333 285 -364 C 253.66666666667 -350.66666666667 226.33333333333 -332.33333333333 203 -309 C 179.66666666667 -285.66666666667 161.33333333333 -258.33333333333 148 -227 C 134.66666666667 -196.33333333333 128 -163.33333333333 128 -128 L 128 128 Z M 320 768 L 484 603 C 494.66666666667 609.66666666667 506.33333333333 619.33333333333 519 632 C 531.66666666667 644.66666666667 541.33333333333 656.33333333333 548 667 L 448 768 L 448 1024 L 283 1188 C 272.33333333333 1181.33333333333 260.66666666667 1171.66666666667 248 1159 C 235.33333333333 1146.33333333333 225.66666666667 1134.66666666667 219 1124 L 320 1024 L 320 768 Z M 320 -128 L 484 -292 C 494.66666666667 -285.33333333333 506.33333333333 -275.66666666667 519 -263 C 531.66666666667 -250.33333333333 541.33333333333 -238.66666666667 548 -228 L 448 -128 L 448 128 L 283 292 C 272.33333333333 285.33333333333 260.66666666667 275.66666666667 248 263 C 235.33333333333 250.33333333333 225.66666666667 238.66666666667 219 228 L 320 128 L 320 -128 Z"/>
    <path fill="#000000" stroke="none" transform="matrix(1 0 0 -1 17408 2164)" d="M 320 -384 L 128 -384 L 128 1280 L 192 1280 L 192 1193 C 195.33333333333 1197 199 1200.66666666667 203 1204 C 253 1254.66666666667 313.33333333333 1280 384 1280 C 419.33333333333 1280 452.66666666667 1273.33333333333 484 1260 C 514.66666666667 1246 541.66666666667 1227.66666666667 565 1205 C 587.66666666667 1181.66666666667 606 1154.66666666667 620 1124 C 633.33333333333 1092.66666666667 640 1059.33333333333 640 1024 L 640 256 C 640 220.66666666667 633.33333333333 187.66666666667 620 157 C 606.66666666667 125.66666666667 588.33333333333 98.33333333333 565 75 C 541.66666666667 51.66666666667 514.66666666667 33.33333333333 484 20 C 452.66666666667 6.66666666667 419.33333333333 0 384 0 L 320 0 L 320 -384 Z M 320 256 L 484 91 C 494.66666666667 97.66666666667 506.33333333333 107.33333333333 519 120 C 531.66666666667 132.66666666667 541.33333333333 144.33333333333 548 155 L 448 256 L 448 1024 L 283 1188 C 272.33333333333 1181.33333333333 260.66666666667 1171.66666666667 248 1159 C 235.33333333333 1146.33333333333 225.66666666667 1134.66666666667 219 1124 L 320 1024 L 320 256 Z"/>
    <path fill="#000000" stroke="none" transform="matrix(1 0 0 -1 18048 2164)" d="M 320 0 L 128 0 L 128 1280 L 192 1280 L 192 1193 C 195.33333333333 1197 199 1200.66666666667 203 1204 C 253 1254.66666666667 313.33333333333 1280 384 1280 C 419.33333333333 1280 452.66666666667 1273.33333333333 484 1260 C 514.66666666667 1246 541.66666666667 1227.66666666667 565 1205 C 587.66666666667 1181.66666666667 606 1154.66666666667 620 1124 C 633.33333333333 1092.66666666667 640 1059.33333333333 640 1024 L 640 384 L 448 384 L 448 1024 L 283 1188 C 272.33333333333 1181.33333333333 260.66666666667 1171.66666666667 248 1159 C 235.33333333333 1146.33333333333 225.66666666667 1134.66666666667 219 1124 L 320 1024 L 320 0 Z"/>
    <path fill="#000000" stroke="none" transform="matrix(1 0 0 -1 18688 2164)" d="M 320 0 L 128 0 L 128 1664 L 320 1664 L 320 832 L 484 667 C 494.66666666667 673.66666666667 506.33333333333 683.33333333333 519 696 C 531.66666666667 708.66666666667 541.33333333333 720.33333333333 548 731 L 448 832 L 448 1280 L 640 1280 L 640 832 C 640 788 630.33333333333 748.33333333333 611 713 C 591.66666666667 677.66666666667 564.66666666667 647 530 621 L 640 512 L 640 0 L 448 0 L 448 448 L 283 612 C 272.33333333333 605.33333333333 260.66666666667 595.66666666667 248 583 C 235.33333333333 570.33333333333 225.66666666667 558.66666666667 219 548 L 320 448 L 320 0 Z"/>
    <path fill="#000000" stroke="none" transform="matrix(1 0 0 -1 19328 2164)" d="M 320 256 L 448 128 L 448 0 L 384 0 C 348.66666666667 0 315.33333333333 6.66666666667 284 20 C 252.66666666667 33.33333333333 225.66666666667 51.66666666667 203 75 C 179.66666666667 97.66666666667 161.33333333333 124.66666666667 148 156 C 134.66666666667 187.33333333333 128 220.66666666667 128 256 L 128 1344 L 256 1472 L 320 1472 L 320 1280 L 480 1280 L 480 1216 L 320 1216 L 320 256 Z"/>
    <path fill="#000000" stroke="none" transform="matrix(1 0 0 -1 19776 2164)" d="M 128 192 L 128 1280 L 320 1280 L 320 256 L 484 91 C 494.66666666667 97.66666666667 506.33333333333 107.33333333333 519 120 C 531.66666666667 132.66666666667 541.33333333333 144.33333333333 548 155 L 448 256 L 448 1280 L 640 1280 L 640 256 L 804 91 C 814.66666666667 97.66666666667 826.33333333333 107.33333333333 839 120 C 851.66666666667 132.66666666667 861.33333333333 144.33333333333 868 155 L 768 256 L 768 1280 L 960 1280 L 960 256 C 960 220.66666666667 953.33333333333 187.66666666667 940 157 C 926.66666666667 125.66666666667 908.33333333333 98.33333333333 885 75 C 861.66666666667 51.66666666667 834.66666666667 33.33333333333 804 20 C 772.66666666667 6.66666666667 739.33333333333 0 704 0 L 640 0 L 564 75 C 514 25 454 0 384 0 L 320 0 L 128 192 Z"/>
</svg>
