<svg xmlns="http://www.w3.org/2000/svg" viewBox="0 0 14680 1885" transform="translate(0, 1885) scale(1, -1)">
<path d="M350,728L139,728L139,738L574,738L574,728L360,728L270,-1L260,1L350,728Z"  transform="translate(0, 685)"/>
<path d="M149,735L72,5L353,5L353,-5L66,-5L61,1L139,737L149,735Z"  transform="translate(495, 685)"/>
<path d="M669,731Q579,545 487,363Q395,181 298,-2L289,-1Q238,181 199,364Q159,546 128,732L138,734Q169,551 207,372Q245,192 295,13Q390,193 481,373Q571,552 659,735L669,731Z"  transform="translate(923, 685)"/>
<path d="M150,732L86,221Q79,167 91,126Q103,85 130,57Q157,29 198,15Q239,0 291,0Q391,0 456,55Q521,109 535,209L607,734L617,732L545,207Q538,156 517,116Q496,75 463,47Q430,19 387,5Q343,-10 291,-10Q237,-10 194,6Q151,21 123,51Q94,80 82,124Q69,167 76,223L140,734L150,732Z"  transform="translate(1489, 685)"/>
<path d="M59,5L107,5Q158,5 214,14Q270,22 318,45Q365,68 396,109Q426,149 426,213Q426,252 418,278Q409,304 392,323Q374,341 349,354Q323,367 290,379L104,379L59,5ZM106,389L290,389Q322,400 346,421Q369,441 385,468Q401,495 409,526Q416,557 416,589Q416,636 402,664Q388,692 364,707Q339,721 305,726Q271,730 231,730L147,730L106,389ZM53,0L48,1L138,736L143,740L231,740Q273,740 309,735Q344,730 371,714Q397,698 412,668Q426,638 426,589Q426,558 419,527Q411,495 396,468Q381,440 359,418Q336,396 305,384Q338,371 363,357Q388,343 404,324Q420,304 428,278Q436,251 436,213Q436,147 405,105Q373,62 325,38Q276,13 218,4Q160,-5 107,-5L53,-5L53,0Z"  transform="translate(2087, 685)"/>
<path d="M567,258L538,35L536,32Q514,19 485,11Q455,3 424,-1Q393,-6 362,-7Q331,-9 306,-9Q239,-9 192,16Q145,40 116,82Q87,123 74,177Q60,231 60,291Q60,384 84,466Q107,548 155,609Q203,670 277,706Q350,741 451,741Q496,741 539,727Q582,712 619,686L613,678Q578,702 537,717Q495,731 451,731Q352,731 280,697Q208,662 162,602Q115,542 93,462Q70,382 70,291Q70,234 83,182Q95,129 123,89Q151,49 196,25Q241,1 306,1Q330,1 360,3Q389,4 420,9Q451,13 479,20Q507,27 528,39L557,260L567,258Z"  transform="translate(2588, 685)"/>
<path d=""  transform="translate(3197, 685)"/>
<path d="M296,301Q249,407 209,514Q169,621 134,731L144,735Q178,626 217,521Q256,415 302,312Q381,413 450,520Q519,627 588,736L596,730Q527,620 457,512Q387,403 306,300L270,-1L260,1L296,301Z"  transform="translate(3382, 685)"/>
<path d="M455,-7Q416,34 377,83Q338,132 301,185Q264,237 231,290Q197,343 168,392L168,398Q206,442 251,490Q296,537 345,583Q393,629 443,671Q493,713 542,744L548,736Q500,705 450,664Q400,623 352,577Q304,531 260,484Q215,437 178,394Q207,346 240,294Q273,241 310,189Q347,137 386,89Q424,40 463,-1L455,-7ZM151,735L58,-1L48,1L141,737L151,735Z"  transform="translate(3897, 685)"/>
<path d="M685,1L700,711Q621,555 536,403Q451,251 360,101L351,102Q300,248 257,403Q214,558 184,709L20,0L10,2L179,734L189,734Q219,581 263,422Q306,263 357,116Q448,265 536,422Q623,578 701,735L710,733L695,1L685,1Z"  transform="translate(4360, 685)"/>
<path d="M685,1L700,711Q621,555 536,403Q451,251 360,101L351,102Q300,248 257,403Q214,558 184,709L20,0L10,2L179,734L189,734Q219,581 263,422Q306,263 357,116Q448,265 536,422Q623,578 701,735L710,733L695,1L685,1Z"  transform="translate(5187, 685)"/>
<path d="M148,732L58,-1L48,1L138,734L148,732Z"  transform="translate(6014, 685)"/>
<path d="M95,303L215,303Q276,303 321,322Q366,340 396,375Q426,409 441,457Q455,505 455,563Q455,628 434,662Q413,695 378,710Q343,724 298,726Q252,727 202,727L147,727L95,303ZM94,293L57,-11L47,-9L138,733L143,737L202,737Q254,737 302,735Q349,733 386,717Q422,701 444,666Q465,630 465,563Q465,503 450,453Q434,403 403,368Q372,332 325,313Q278,293 215,293L94,293Z"  transform="translate(6169, 685)"/>
<path d=""  transform="translate(6625, 685)"/>
<path d="M90,501L90,511L174,511L200,662L210,660L184,511L352,511L352,501L183,501L116,112Q113,96 112,76Q110,56 114,39Q118,21 129,10Q140,-2 164,-2Q183,-2 202,11Q221,24 238,43Q255,61 269,82Q282,102 290,117L298,113Q289,96 275,75Q261,53 244,34Q226,14 206,1Q185,-12 164,-12Q137,-12 124,1Q110,13 105,32Q100,51 102,73Q103,95 106,114L172,501L90,501Z"  transform="translate(6810, 685)"/>
<path d="M433,522L441,516L244,273L380,2L372,-2L235,269L229,269L25,-3L17,3L220,275L99,517L107,521L229,279L236,279L433,522Z"  transform="translate(7164, 685)"/>
<path d="M111,184L85,-1L75,1L147,520L157,518L115,216Q126,240 144,271Q162,301 185,335Q208,368 234,401Q260,433 287,460Q313,487 339,506Q365,524 387,529L388,529Q408,529 420,515Q431,500 436,480Q441,460 441,439Q441,417 439,403L379,-1L369,1L429,405Q431,416 431,435Q431,454 427,473Q423,492 415,506Q406,519 389,519Q366,514 340,494Q313,474 286,445Q258,416 231,381Q204,346 181,311Q158,275 140,242Q122,209 112,184L111,184Z"  transform="translate(7639, 685)"/>
<path d="M341,112Q329,93 312,72Q294,50 273,32Q252,13 229,1Q205,-12 181,-12Q151,-12 132,4Q112,20 100,44Q88,67 83,95Q78,123 78,147Q78,183 83,225Q87,266 98,308Q108,350 126,389Q143,427 169,457Q194,487 229,505Q264,523 309,523Q329,523 348,517Q367,511 386,504L382,494Q365,501 347,507Q329,513 309,513Q265,513 232,496Q198,478 174,449Q149,419 133,381Q116,343 106,303Q96,262 92,222Q88,181 88,147Q88,125 93,99Q97,73 108,51Q118,28 136,13Q154,-2 181,-2Q204,-2 227,10Q249,22 269,40Q289,58 306,79Q322,100 333,118L341,112Z"  transform="translate(8154, 685)"/>
<path d="M183,803L82,-1L72,1L173,805L183,803ZM112,203Q130,245 158,295Q186,345 222,392Q257,438 299,475Q340,511 386,525L387,525Q404,525 416,517Q428,508 435,495Q442,481 445,465Q448,449 448,435Q448,392 429,360Q409,328 380,303Q351,277 318,256Q284,234 255,211Q282,151 322,99Q362,47 404,-4L396,-10Q354,42 313,95Q272,148 244,210L246,216Q273,238 307,260Q340,281 370,307Q399,332 419,363Q438,394 438,435Q438,446 436,460Q433,474 427,486Q421,498 412,507Q402,515 388,515Q344,502 304,466Q263,430 229,384Q194,338 167,289Q139,240 122,199L112,203Z"  transform="translate(8585, 685)"/>
<path d="M50,515L50,525L147,525L152,519L102,70Q97,25 89,-16Q81,-58 65,-95Q49,-133 24,-166Q-1,-199 -40,-227L-46,-219Q-8,-192 17,-160Q41,-128 56,-91Q71,-54 79,-13Q87,28 92,72L141,515L50,515ZM181,700Q181,672 153,672Q125,672 125,700Q125,728 153,728Q181,728 181,700Z"  transform="translate(9095, 685)"/>
<path d=""  transform="translate(9318, 685)"/>
<path d="M392,508Q217,511 136,423Q54,335 54,164Q54,144 56,122Q57,100 62,78Q66,56 75,36Q83,16 97,1Q141,33 182,80Q222,126 258,180Q294,233 324,288Q354,342 378,390L392,508ZM374,361Q369,350 363,339Q357,327 351,316L351,307L346,307Q322,263 295,218Q267,173 236,131Q205,89 171,53Q136,17 99,-10L92,-9Q76,7 67,28Q57,49 52,72Q47,95 46,119Q44,142 44,164Q44,343 131,432Q217,521 398,518L403,512L388,389L388,387L387,387L313,-220L303,-218L374,361Z"  transform="translate(9503, 685)"/>
<path d="M178,718L175,718L175,710L178,710L178,718ZM145,520L155,518L94,-1L84,1L145,520ZM203,700Q203,672 175,672Q147,672 147,700Q147,728 175,728Q203,728 203,700Z"  transform="translate(9974, 685)"/>
<path d="M433,522L441,516L244,273L380,2L372,-2L235,269L229,269L25,-3L17,3L220,275L99,517L107,521L229,279L236,279L433,522Z"  transform="translate(10210, 685)"/>
<path d="M401,346Q406,388 410,431Q414,473 418,515L383,515Q311,515 256,485Q201,455 164,406Q126,356 107,294Q88,232 88,167Q88,151 90,126Q92,101 98,76Q103,50 113,29Q122,8 138,0Q156,14 179,40Q202,65 227,96Q251,127 277,162Q302,197 325,231Q348,264 368,295Q388,325 401,346ZM361,1Q371,82 381,162Q390,242 399,323Q376,287 343,239Q310,191 275,143Q240,95 205,54Q170,12 142,-10L137,-11Q118,-3 107,19Q95,41 89,68Q82,95 80,122Q78,149 78,167Q78,234 98,298Q118,362 157,413Q195,463 252,494Q309,525 383,525L423,525L428,520Q417,389 402,260Q387,130 371,-1L361,1Z"  transform="translate(10685, 685)"/>
<path d="M5,-1L-5,1L63,522L73,520L29,182Q41,215 58,255Q75,294 96,334Q116,373 141,409Q165,445 194,472Q222,499 253,514Q284,528 318,524L316,514Q280,518 247,500Q214,481 185,448Q155,415 130,373Q104,330 84,287Q63,243 48,203Q32,162 23,134L5,-1Z"  transform="translate(11165, 685)"/>
<path d="M71,-1L61,1L161,805L171,803L93,179Q120,232 150,287Q180,341 218,390Q255,438 302,476Q349,514 409,532L413,531Q427,519 432,498Q437,477 437,454Q437,431 434,409Q430,386 427,369L361,-1L351,1L417,371Q420,385 423,407Q426,428 427,450Q428,471 424,491Q420,510 409,521Q349,503 301,463Q253,422 215,370Q177,317 147,260Q116,202 90,149L71,-1Z"  transform="translate(11459, 685)"/>
<path d=""  transform="translate(11970, 685)"/>
<path d="M95,525Q123,525 168,523Q212,521 258,521Q301,521 339,524Q377,527 398,536L404,528L20,13Q37,23 53,27Q69,30 85,30Q107,30 128,25Q149,19 170,13Q190,7 211,2Q232,-4 253,-4Q294,-4 318,12Q341,27 355,52Q368,76 374,108Q380,139 386,170L396,168Q390,135 383,102Q375,69 361,44Q346,18 321,2Q296,-14 253,-14Q231,-14 210,-8Q189,-3 168,3Q147,9 127,15Q107,20 86,20Q66,20 46,13Q25,6 2,-11L-5,-4L387,521Q364,515 334,513Q303,511 269,511Q222,511 176,513Q129,515 95,515L95,525Z"  transform="translate(12155, 685)"/>
<path d="M83,17Q102,11 125,7Q147,2 166,2Q211,2 247,20Q282,37 309,66Q336,94 356,132Q375,170 388,211Q400,252 406,294Q412,335 412,371Q412,389 411,410Q409,430 404,450Q399,470 390,488Q381,506 366,518Q318,481 278,435Q237,388 203,336Q169,284 143,228Q116,172 95,116L83,17ZM54,-214L44,-212L85,118L86,118L136,521L146,519L101,157Q143,263 208,361Q273,459 363,528L369,528Q386,516 397,497Q407,478 413,457Q418,435 420,413Q422,391 422,371Q422,314 408,248Q394,182 364,125Q333,68 284,30Q235,-8 166,-8Q146,-8 124,-3Q101,1 82,7L54,-214Z"  transform="translate(12616, 685)"/>
<path d="M219,43Q252,94 280,149Q308,203 328,255Q347,307 358,355Q369,402 369,440Q369,461 363,481Q357,500 343,517L351,523Q366,506 373,485Q379,463 379,440Q379,386 359,315Q338,244 302,169Q265,94 216,22Q167,-50 111,-107Q55,-164 -6,-199Q-68,-234 -128,-234Q-165,-234 -201,-220L-197,-210Q-163,-224 -128,-224Q-83,-224 -38,-203Q7,-183 51,-148Q95,-113 136,-66Q176,-20 212,33L35,518L45,522L219,43Z"  transform="translate(13128, 685)"/>
<path d="M95,221Q129,232 166,248Q203,264 238,285Q273,305 304,330Q334,355 355,384Q366,398 374,416Q381,433 381,451Q381,482 360,498Q338,514 309,514Q263,514 227,486Q190,458 164,415Q137,372 120,320Q103,268 95,221ZM353,120Q341,96 325,73Q309,50 289,32Q269,13 245,2Q221,-10 192,-10Q159,-10 137,5Q115,19 102,42Q89,65 84,94Q78,122 78,149Q78,180 85,220Q91,260 104,302Q116,343 135,383Q154,423 180,455Q205,486 238,505Q270,524 309,524Q342,524 367,505Q391,486 391,451Q391,431 383,414Q375,396 364,381Q343,350 311,324Q279,298 243,276Q206,254 168,238Q129,221 93,210Q91,193 90,178Q88,163 88,149Q88,124 93,98Q97,71 109,50Q121,28 141,14Q161,0 192,0Q219,0 242,11Q265,22 284,40Q303,58 318,80Q333,102 345,124L353,120Z"  transform="translate(13542, 685)"/>
<path d="M-44,-133Q-26,-181 13,-205Q51,-229 101,-229Q145,-229 180,-211Q214,-193 240,-163Q266,-134 285,-95Q304,-57 317,-16Q330,25 338,66Q346,107 351,141L383,365Q358,328 328,282Q298,235 265,190Q232,144 197,105Q162,66 126,43L-44,-133ZM404,516L346,516Q280,516 231,487Q182,458 149,411Q116,364 100,306Q84,248 84,189Q84,168 87,151Q89,133 94,118Q99,102 107,87Q114,72 125,54L127,56Q163,81 199,122Q234,163 267,210Q300,256 330,304Q360,351 386,388L404,516ZM117,48Q106,66 98,82Q90,98 85,115Q79,131 77,149Q74,167 74,189Q74,250 91,310Q108,370 142,418Q176,466 227,496Q278,526 346,526L410,526L415,520L361,139Q356,103 348,61Q339,19 326,-23Q312,-65 293,-104Q273,-143 246,-173Q218,-203 183,-221Q147,-239 101,-239Q47,-239 6,-212Q-36,-185 -55,-134L-52,-127L117,48Z"  transform="translate(13974, 685)"/>
<path d="M50,515L50,525L147,525L152,519L102,70Q97,25 89,-16Q81,-58 65,-95Q49,-133 24,-166Q-1,-199 -40,-227L-46,-219Q-8,-192 17,-160Q41,-128 56,-91Q71,-54 79,-13Q87,28 92,72L141,515L50,515ZM181,700Q181,672 153,672Q125,672 125,700Q125,728 153,728Q181,728 181,700Z"  transform="translate(14457, 685)"/>
</svg>
