<svg xmlns="http://www.w3.org/2000/svg" viewBox="0 0 18504 2000" transform="translate(0, 2000) scale(1, -1)">
<path d="M526,690L526,263Q526,246 526,231Q526,216 524,202Q521,169 509,142Q497,115 476,96Q454,76 424,65Q393,54 353,54Q313,54 283,65Q252,76 231,96Q209,115 197,142Q185,169 182,202Q180,216 180,231Q180,246 180,263L180,690L94,690L94,255Q94,238 94,223Q94,208 96,193Q100,150 117,112Q133,74 165,46Q196,18 243,2Q290,-14 353,-14Q416,-14 463,2Q510,18 542,46Q573,74 590,112Q606,150 610,193Q612,208 612,223Q612,238 612,255L612,690L526,690ZM221,816L221,764L461,764L461,816L221,816Z"  transform="translate(0, 730)"/>
<path d="M496,690L310,355L118,690L19,690L276,250L336,250L593,690L496,690ZM263,300L263,0L349,0L349,300L263,300ZM202,850L287,740L343,740L282,850L202,850Z"  transform="translate(682, 730)"/>
<path d="M363,690L-35,0L58,0L448,690L363,690ZM213,314L168,244L449,244L449,314L213,314ZM506,70L506,0L880,0L880,70L506,70ZM405,690L445,0L531,0L491,690L405,690ZM496,380L496,310L840,310L840,380L496,380ZM466,690L466,620L870,620L870,690L466,690Z"  transform="translate(1263, 730)"/>
<path d="M554,690L554,345Q554,284 555,215Q555,145 557,84L232,690L100,690L100,0L186,0L186,345Q186,406 186,476Q185,545 183,606L508,0L640,0L638,690L554,690ZM305,831Q281,831 267,817Q253,802 253,760L291,760Q291,771 295,776Q299,780 307,780Q314,780 324,778Q333,775 351,769Q371,762 385,759Q399,756 413,756Q437,756 451,771Q465,785 465,827L427,827Q427,816 423,812Q419,807 411,807Q404,807 395,810Q385,812 367,818Q347,825 333,828Q319,831 305,831Z"  transform="translate(2171, 730)"/>
<path d="M526,690L526,263Q526,246 526,231Q526,216 524,202Q521,169 509,142Q497,115 476,96Q454,76 424,65Q393,54 353,54Q313,54 283,65Q252,76 231,96Q209,115 197,142Q185,169 182,202Q180,216 180,231Q180,246 180,263L180,690L94,690L94,255Q94,238 94,223Q94,208 96,193Q100,150 117,112Q133,74 165,46Q196,18 243,2Q290,-14 353,-14Q416,-14 463,2Q510,18 542,46Q573,74 590,112Q606,150 610,193Q612,208 612,223Q612,238 612,255L612,690L526,690ZM221,816L221,764L461,764L461,816L221,816Z"  transform="translate(2889, 730)"/>
<path d="M180,690L180,620L326,620Q349,620 365,619Q381,618 395,616Q443,609 470,581Q496,552 496,494Q496,465 488,443Q479,420 465,405Q450,389 430,380Q409,371 385,369Q371,367 356,367Q341,367 318,367L180,367L180,297L316,297Q328,297 341,297Q353,297 365,296Q391,294 409,285Q427,275 439,259Q451,243 458,222Q465,200 468,173Q471,141 475,116Q478,91 483,71Q487,51 493,34Q498,17 505,0L600,0Q590,14 583,32Q575,49 570,71Q564,93 561,120Q557,147 554,181Q551,215 541,246Q531,277 513,301Q494,324 467,338Q440,352 403,352L403,330Q434,330 467,340Q500,350 527,371Q554,392 571,425Q588,457 588,502Q588,546 575,578Q562,610 540,633Q517,655 486,668Q454,681 416,686Q393,689 373,690Q352,690 326,690L180,690ZM100,690L100,0L186,0L186,690L100,690ZM317,850L256,740L312,740L397,850L317,850Z"  transform="translate(3571, 730)"/>
<path d=""  transform="translate(4190, 730)"/>
<path d="M100,690L100,0L186,0L186,690L100,690ZM161,70L161,0L559,0L559,70L161,70ZM161,380L161,310L519,310L519,380L161,380ZM161,690L161,620L549,620L549,690L161,690ZM294,864Q271,864 255,848Q239,832 239,809Q239,786 255,770Q271,754 294,754Q317,754 333,770Q349,786 349,809Q349,832 333,848Q317,864 294,864Z"  transform="translate(4406, 730)"/>
<path d="M100,690L100,0L186,0L186,690L100,690ZM161,70L161,0L559,0L559,70L161,70ZM161,380L161,310L519,310L519,380L161,380ZM161,690L161,620L549,620L549,690L161,690ZM205,850L290,740L346,740L285,850L205,850Z"  transform="translate(4993, 730)"/>
<path d="M43,52L84,11L711,638L670,679L43,52ZM377,636Q431,636 474,616Q517,596 547,558Q576,520 592,467Q607,413 607,345Q607,278 592,224Q576,170 547,133Q517,95 474,75Q431,54 377,54L377,-14Q456,-14 517,13Q577,39 619,87Q660,134 682,200Q703,266 703,345Q703,424 682,490Q660,556 619,604Q577,651 517,678Q456,704 377,704L377,636ZM377,704Q298,704 238,678Q177,651 136,604Q94,556 73,490Q51,424 51,345Q51,266 73,200Q94,134 136,87Q177,39 238,13Q298,-14 377,-14L377,54Q323,54 280,75Q237,95 208,133Q178,170 163,224Q147,278 147,345Q147,413 163,467Q178,520 208,558Q237,596 280,616Q323,636 377,636L377,704Z"  transform="translate(5580, 730)"/>
<path d="M373,636Q427,636 470,616Q513,596 543,558Q572,520 588,467Q603,413 603,345Q603,278 588,224Q572,170 543,133Q513,95 470,75Q427,54 373,54L373,-14Q452,-14 513,13Q573,39 615,87Q656,134 678,200Q699,266 699,345Q699,424 678,490Q656,556 615,604Q573,651 513,678Q452,704 373,704L373,636ZM373,704Q294,704 234,678Q173,651 132,604Q90,556 69,490Q47,424 47,345Q47,266 69,200Q90,134 132,87Q173,39 234,13Q294,-14 373,-14L373,54Q319,54 276,75Q233,95 204,133Q174,170 159,224Q143,278 143,345Q143,413 159,467Q174,520 204,558Q233,596 276,616Q319,636 373,636L373,704ZM418,850Q417,811 404,796Q391,781 369,781Q347,781 334,796Q321,811 320,850L267,850Q267,819 273,796Q279,772 291,757Q303,741 323,734Q342,726 369,726Q396,726 415,734Q434,741 447,757Q459,772 465,796Q471,819 471,850L418,850Z"  transform="translate(6325, 730)"/>
<path d="M514,690L298,369L350,368L141,690L43,690L271,348L25,0L124,0L346,330L295,329L522,0L623,0L373,351L613,690L514,690Z"  transform="translate(7062, 730)"/>
<path d="M402,690L402,267Q402,240 402,221Q402,201 401,186Q396,125 366,90Q335,54 275,54Q244,54 221,63Q197,71 181,89Q164,106 155,132Q145,158 143,194L141,235L55,235L56,194Q57,146 72,108Q86,69 113,42Q139,15 177,1Q215,-14 263,-14Q318,-14 359,0Q399,14 427,40Q454,66 469,102Q483,138 486,181Q488,207 488,226Q488,244 488,264L488,690L402,690ZM243,850L176,740L239,740L289,835L255,835L305,740L369,740L302,850L243,850Z"  transform="translate(7687, 730)"/>
<path d=""  transform="translate(8231, 730)"/>
<path d="M331,544Q290,544 259,535Q227,526 193,500L156,432L160,233Q160,301 172,348Q184,394 205,423Q226,451 254,464Q282,476 313,476Q375,476 403,446Q430,415 434,368Q436,348 436,330Q436,312 436,292L436,0L522,0L522,298Q522,330 522,350Q522,369 520,389Q514,459 467,502Q419,544 331,544ZM74,530L74,0L160,0L160,530L74,530Z"  transform="translate(8447, 730)"/>
<path d="M282,544Q228,544 182,525Q135,505 102,468Q68,431 49,380Q30,328 30,263L122,270Q122,321 134,360Q145,399 166,425Q187,451 216,465Q245,478 280,478Q316,478 343,464Q370,450 388,423Q405,396 414,357Q423,318 423,268L458,305L85,305L85,239L507,239Q509,253 509,264Q509,274 509,280Q509,338 494,387Q479,435 450,470Q421,505 379,525Q337,544 282,544ZM30,263Q30,193 49,141Q67,89 99,55Q131,20 175,3Q219,-14 271,-14Q312,-14 350,-3Q388,8 420,31Q451,53 473,88Q494,123 502,171L412,171Q408,143 396,121Q383,98 365,83Q347,68 324,60Q301,52 275,52Q244,52 216,63Q188,74 167,100Q146,125 134,167Q122,209 122,270L30,263ZM307,11Q285,3 265,-11Q244,-25 229,-43Q213,-62 204,-86Q194,-110 194,-138Q194,-186 220,-204Q245,-223 287,-223Q312,-223 335,-217Q357,-211 376,-198L376,-149Q362,-160 349,-164Q335,-169 320,-169Q298,-169 287,-158Q276,-147 276,-119Q276,-95 284,-75Q291,-55 304,-39Q317,-24 334,-13Q351,-3 370,0L307,11Z"  transform="translate(9040, 730)"/>
<path d="M407,530L160,263L160,169L225,241L185,253L403,0L520,0L233,321L231,240L517,530L407,530ZM74,735L74,0L160,0L160,735L74,735Z"  transform="translate(9589, 730)"/>
<path d="M279,544Q229,544 184,526Q139,507 105,471Q70,435 50,383Q30,331 30,264Q30,191 48,139Q66,86 98,52Q129,18 173,2Q216,-14 266,-14Q310,-14 349,-2Q387,9 417,32Q447,54 468,89Q488,123 498,169L408,169Q401,140 389,118Q376,96 359,82Q342,67 320,60Q297,52 271,52Q241,52 215,65Q188,77 168,104Q148,130 136,171Q124,212 124,270Q124,324 136,363Q148,402 169,428Q190,453 218,466Q246,478 277,478Q331,478 365,447Q399,416 413,352L503,352Q497,396 479,431Q461,466 433,492Q404,517 366,531Q327,544 279,544ZM272,690L211,580L267,580L352,690L272,690Z"  transform="translate(10102, 730)"/>
<path d="M42,526L42,458L349,458L349,485L20,66L20,0L433,0L433,68L101,68L101,41L428,457L428,526L42,526Z"  transform="translate(10631, 730)"/>
<path d="M282,544Q228,544 182,525Q135,505 102,468Q68,431 49,380Q30,328 30,263L122,270Q122,321 134,360Q145,399 166,425Q187,451 216,465Q245,478 280,478Q316,478 343,464Q370,450 388,423Q405,396 414,357Q423,318 423,268L458,305L85,305L85,239L507,239Q509,253 509,264Q509,274 509,280Q509,338 494,387Q479,435 450,470Q421,505 379,525Q337,544 282,544ZM30,263Q30,193 49,141Q67,89 99,55Q131,20 175,3Q219,-14 271,-14Q312,-14 350,-3Q388,8 420,31Q451,53 473,88Q494,123 502,171L412,171Q408,143 396,121Q383,98 365,83Q347,68 324,60Q301,52 275,52Q244,52 216,63Q188,74 167,100Q146,125 134,167Q122,209 122,270L30,263ZM307,11Q285,3 265,-11Q244,-25 229,-43Q213,-62 204,-86Q194,-110 194,-138Q194,-186 220,-204Q245,-223 287,-223Q312,-223 335,-217Q357,-211 376,-198L376,-149Q362,-160 349,-164Q335,-169 320,-169Q298,-169 287,-158Q276,-147 276,-119Q276,-95 284,-75Q291,-55 304,-39Q317,-24 334,-13Q351,-3 370,0L307,11Z"  transform="translate(11083, 730)"/>
<path d=""  transform="translate(11632, 730)"/>
<path d="M331,544Q290,544 259,535Q227,526 193,500L156,432L160,233Q160,301 172,347Q184,393 205,422Q226,450 254,463Q282,475 313,476Q375,478 403,447Q430,415 434,368Q436,348 436,330Q436,312 436,292L436,0L522,0L522,298Q522,330 522,350Q522,369 520,389Q514,459 467,502Q419,544 331,544ZM74,740L74,0L160,0L160,740L74,740Z"  transform="translate(11848, 730)"/>
<path d="M413,530L242,21L271,21L98,530L1,530L235,-86L228,14L205,-46Q195,-72 183,-90Q171,-108 157,-119Q143,-130 127,-134Q110,-139 90,-139Q83,-139 76,-139Q69,-139 59,-138L59,-208Q69,-210 79,-210Q89,-210 103,-210Q135,-210 162,-200Q189,-190 212,-169Q235,-149 254,-118Q273,-87 289,-45L507,530L413,530ZM228,690L161,580L224,580L274,675L240,675L290,580L354,580L287,690L228,690Z"  transform="translate(12441, 730)"/>
<path d="M282,544Q228,544 182,525Q135,505 102,468Q68,431 49,380Q30,328 30,263L122,270Q122,321 134,360Q145,399 166,425Q187,451 216,465Q245,478 280,478Q316,478 343,464Q370,450 388,423Q405,396 414,357Q423,318 423,268L458,305L85,305L85,239L507,239Q509,253 509,264Q509,274 509,280Q509,338 494,387Q479,435 450,470Q421,505 379,525Q337,544 282,544ZM30,263Q30,193 49,141Q67,89 99,55Q131,20 175,3Q219,-14 271,-14Q312,-14 350,-3Q388,8 420,31Q451,53 473,88Q494,123 502,171L412,171Q408,143 396,121Q383,98 365,83Q347,68 324,60Q301,52 275,52Q244,52 216,63Q188,74 167,100Q146,125 134,167Q122,209 122,270L30,263ZM309,690L259,595L293,595L243,690L179,690L246,580L305,580L372,690L309,690Z"  transform="translate(12946, 730)"/>
<path d="M74,530L74,0L160,0L160,530L74,530ZM8,690L93,580L149,580L88,690L8,690Z"  transform="translate(13495, 730)"/>
<path d="M263,544Q219,544 183,532Q147,520 121,498Q94,475 78,442Q62,408 59,366L149,366Q151,393 159,414Q167,435 181,450Q195,464 216,471Q236,478 263,478Q317,478 340,456Q363,434 366,397Q368,382 368,366Q368,350 368,333L368,85L378,0L464,0Q461,22 459,41Q457,59 456,75Q455,91 455,106Q454,120 454,135L454,334Q454,351 454,370Q453,388 451,404Q448,437 436,463Q423,489 401,507Q378,525 344,535Q310,544 263,544ZM334,319Q256,319 200,308Q143,296 107,273Q71,250 54,216Q36,182 36,137Q36,100 49,72Q62,44 86,25Q109,6 140,-4Q171,-14 207,-14Q245,-14 279,-7Q313,0 340,19L375,87L368,201Q368,165 359,137Q349,109 332,91Q315,72 291,62Q266,52 236,52Q187,52 159,74Q130,96 130,144Q130,179 147,202Q164,225 196,239Q227,252 272,256Q317,260 373,255L373,319L334,319ZM315,690Q314,651 301,636Q288,621 266,621Q244,621 231,636Q218,651 217,690L164,690Q164,659 170,636Q176,612 188,597Q200,581 220,574Q239,566 266,566Q293,566 312,574Q331,581 344,597Q356,612 362,636Q368,659 368,690L315,690Z"  transform="translate(13733, 730)"/>
<path d="M331,544Q290,544 259,535Q227,526 193,500L156,432L160,233Q160,301 172,347Q184,393 205,422Q226,450 254,463Q282,475 313,476Q375,478 403,447Q430,415 434,368Q436,348 436,330Q436,312 436,292L436,0L522,0L522,298Q522,330 522,350Q522,369 520,389Q514,459 467,502Q419,544 331,544ZM74,740L74,0L160,0L160,740L74,740ZM268,690L201,580L264,580L314,675L280,675L330,580L394,580L327,690L268,690Z"  transform="translate(14264, 730)"/>
<path d=""  transform="translate(14857, 730)"/>
<path d="M293,478Q333,478 365,463Q396,447 418,419Q439,390 451,351Q462,312 462,265Q462,219 451,180Q439,140 418,112Q396,84 365,68Q333,52 293,52L293,-14Q361,-14 411,9Q460,31 492,70Q524,108 540,159Q556,209 556,265Q556,321 540,372Q524,423 492,461Q460,499 411,522Q361,544 293,544L293,478ZM293,544Q226,544 176,522Q126,499 94,461Q62,423 46,372Q30,321 30,265Q30,209 46,159Q62,108 94,70Q126,31 176,9Q226,-14 293,-14L293,52Q253,52 222,68Q190,84 169,112Q147,140 136,180Q124,219 124,265Q124,312 136,351Q147,390 169,419Q190,447 222,463Q253,478 293,478L293,544Z"  transform="translate(15073, 730)"/>
<path d="M228,544Q187,544 154,534Q120,523 96,503Q72,483 59,454Q45,425 45,389Q45,354 59,329Q72,303 95,285Q118,266 149,254Q180,241 216,231Q249,222 273,212Q297,202 312,190Q327,178 334,163Q341,148 341,129Q341,110 333,96Q325,81 311,72Q297,62 278,57Q259,52 238,52Q215,52 195,58Q175,63 159,75Q142,87 131,107Q119,127 114,156L24,156Q30,111 48,79Q66,47 93,26Q120,5 156,-4Q191,-14 232,-14Q274,-14 310,-4Q346,5 373,24Q399,42 414,71Q429,99 429,136Q429,170 418,196Q407,222 385,243Q362,263 329,279Q295,294 249,306Q222,313 201,321Q179,329 164,340Q149,350 141,365Q133,379 133,399Q133,416 139,431Q144,445 155,456Q165,466 182,472Q199,478 221,478Q268,478 296,452Q324,426 333,379L423,379Q419,415 405,446Q390,476 366,498Q342,520 308,532Q273,544 228,544ZM241,-51L189,-195L250,-195L310,-63L310,-51L241,-51Z"  transform="translate(15659, 730)"/>
<path d="M293,478Q333,478 365,463Q396,447 418,419Q439,390 451,351Q462,312 462,265Q462,219 451,180Q439,140 418,112Q396,84 365,68Q333,52 293,52L293,-14Q361,-14 411,9Q460,31 492,70Q524,108 540,159Q556,209 556,265Q556,321 540,372Q524,423 492,461Q460,499 411,522Q361,544 293,544L293,478ZM293,544Q226,544 176,522Q126,499 94,461Q62,423 46,372Q30,321 30,265Q30,209 46,159Q62,108 94,70Q126,31 176,9Q226,-14 293,-14L293,52Q253,52 222,68Q190,84 169,112Q147,140 136,180Q124,219 124,265Q124,312 136,351Q147,390 169,419Q190,447 222,463Q253,478 293,478L293,544ZM386,690L325,580L381,580L466,690L386,690ZM264,690L203,580L259,580L344,690L264,690Z"  transform="translate(16118, 730)"/>
<path d="M66,530L66,212Q66,180 67,161Q68,141 71,121Q76,94 90,70Q104,45 128,27Q151,8 184,-3Q216,-14 257,-14Q298,-14 330,-5Q361,3 395,28L432,98L428,297Q428,229 417,183Q405,136 385,108Q364,79 337,67Q310,54 279,54Q225,54 194,82Q162,110 156,155Q154,175 153,195Q152,215 152,228L152,530L66,530ZM428,530L428,0L514,0L514,530L428,530ZM389,690L328,580L384,580L469,690L389,690ZM267,690L206,580L262,580L347,690L267,690Z"  transform="translate(16704, 730)"/>
<path d="M331,544Q290,544 259,535Q227,526 193,500L156,432L160,233Q160,301 172,348Q184,394 205,423Q226,451 254,464Q282,476 313,476Q375,476 403,446Q430,415 434,368Q436,348 436,330Q436,312 436,292L436,0L522,0L522,298Q522,330 522,350Q522,369 520,389Q514,459 467,502Q419,544 331,544ZM74,530L74,0L160,0L160,530L74,530Z"  transform="translate(17296, 730)"/>
<path d="M451,530L451,76Q451,64 451,51Q451,37 450,18Q449,-20 438,-50Q426,-80 405,-101Q384,-122 354,-133Q323,-144 284,-144Q250,-144 223,-136Q196,-128 178,-113Q159,-99 148,-78Q137,-58 134,-34L133,-25L46,-25L47,-35Q51,-77 68,-109Q84,-142 113,-164Q142,-187 185,-198Q227,-210 284,-210Q341,-210 387,-195Q433,-180 466,-150Q498,-120 516,-75Q534,-31 536,27Q537,49 537,77Q537,105 537,130L537,530L451,530ZM289,544Q238,544 191,527Q144,509 108,474Q72,439 51,385Q30,331 30,257Q30,199 46,150Q62,100 93,64Q123,27 168,7Q213,-14 271,-14Q312,-14 350,-2Q388,9 411,28L465,105L451,260Q451,203 438,164Q424,124 401,99Q377,74 347,63Q317,52 284,52Q244,52 214,69Q184,85 164,115Q144,144 134,183Q124,222 124,267Q124,319 137,359Q149,398 172,425Q194,451 224,465Q254,478 289,478Q318,478 347,468Q375,457 399,435Q422,412 437,376Q451,340 451,289L469,431L416,509Q396,526 359,535Q322,544 289,544Z"  transform="translate(17889, 730)"/>
</svg>
