<svg xmlns="http://www.w3.org/2000/svg" viewBox="0 0 17472 2000" transform="translate(0, 2000) scale(1, -1)">
<path d="M174,690L52,0L138,0L260,690L174,690ZM126,70L113,0L511,0L524,70L126,70ZM398,690L338,546L386,546L467,683L467,690L398,690Z"  transform="translate(0, 730)"/>
<path d="M429,636Q476,636 514,620Q551,603 577,573Q603,542 617,500Q631,457 631,405Q631,346 615,284Q598,222 564,171Q530,120 478,87Q426,54 355,54L337,-14Q438,-14 512,23Q585,59 633,119Q680,178 703,253Q725,328 725,405Q725,466 708,521Q690,575 655,616Q620,656 568,680Q516,704 447,704L429,636ZM447,704Q346,704 273,668Q199,631 152,572Q104,513 82,438Q59,362 59,285Q59,224 77,170Q94,115 129,75Q164,34 216,10Q268,-14 337,-14L355,54Q307,54 270,71Q232,87 206,118Q180,148 167,191Q153,233 153,285Q153,344 170,406Q186,468 220,519Q254,570 306,603Q358,636 429,636L447,704ZM390,831Q366,831 350,817Q333,802 325,760L363,760Q365,771 370,776Q375,780 383,780Q390,780 399,778Q408,775 425,769Q444,762 457,759Q470,756 484,756Q508,756 525,771Q541,785 549,827L511,827Q509,816 504,812Q499,807 491,807Q484,807 475,810Q466,812 449,818Q430,825 417,828Q404,831 390,831Z"  transform="translate(539, 730)"/>
<path d="M174,690L52,0L138,0L260,690L174,690ZM180,380L168,310L516,310L528,380L180,380ZM235,690L222,620L610,620L623,690L235,690Z"  transform="translate(1286, 730)"/>
<path d="M174,690L52,0L138,0L260,690L174,690Z"  transform="translate(1862, 730)"/>
<path d="M597,690L183,336L168,239L245,307L220,317L461,0L566,0L266,385L250,304L702,690L597,690ZM174,690L52,0L138,0L260,690L174,690ZM244,-51L184,-195L232,-195L313,-58L313,-51L244,-51Z"  transform="translate(2125, 730)"/>
<path d="M567,690L319,350L185,690L94,690L273,250L336,250L668,690L567,690ZM269,300L216,0L302,0L355,300L269,300ZM445,835Q435,835 425,831Q415,826 408,819Q400,812 395,803Q390,793 390,782Q390,765 401,754Q412,743 429,743Q439,743 449,748Q459,752 467,759Q474,766 479,776Q484,786 484,796Q484,813 473,824Q462,835 445,835ZM299,835Q289,835 279,831Q269,826 262,819Q254,812 249,803Q244,793 244,782Q244,765 255,754Q266,743 283,743Q293,743 303,748Q313,752 321,759Q328,766 333,776Q338,786 338,796Q338,813 327,824Q316,835 299,835Z"  transform="translate(2754, 730)"/>
<path d="M174,690L52,0L138,0L260,690L174,690ZM126,70L113,0L511,0L524,70L126,70ZM180,380L168,310L526,310L538,380L180,380ZM235,690L222,620L610,620L623,690L235,690ZM401,850L314,740L377,740L444,835L410,835L443,740L507,740L460,850L401,850Z"  transform="translate(3335, 730)"/>
<path d=""  transform="translate(3928, 730)"/>
<path d="M628,690L530,124L306,690L174,690L53,0L139,0L243,598L500,-31L491,-83Q485,-117 467,-135Q449,-153 408,-153L396,-223Q444,-223 476,-217Q507,-211 528,-194Q548,-177 560,-146Q572,-116 581,-67L714,690L628,690Z"  transform="translate(4124, 730)"/>
<path d="M602,690L527,263Q524,246 521,231Q518,216 514,202Q503,163 486,135Q469,107 445,89Q420,71 389,63Q357,54 317,54Q280,54 253,63Q225,72 207,89Q189,105 181,129Q172,153 172,182Q172,202 174,219Q176,235 182,270L256,690L170,690L94,262Q92,252 91,242Q89,232 88,222Q87,211 87,201Q86,190 86,179Q86,133 100,97Q113,61 141,36Q168,11 209,-1Q250,-14 305,-14Q368,-14 418,0Q467,14 503,40Q539,66 563,105Q586,144 598,193Q602,208 605,224Q608,239 611,255L688,690L602,690ZM346,11Q276,-13 240,-57Q204,-102 204,-150Q204,-190 228,-206Q252,-223 284,-223Q312,-223 336,-215Q359,-208 377,-195L386,-149Q371,-160 357,-164Q342,-169 327,-169Q309,-169 300,-159Q290,-150 290,-127Q290,-110 299,-89Q307,-69 323,-50Q339,-32 361,-18Q382,-4 407,0L346,11Z"  transform="translate(4841, 730)"/>
<path d="M111,558L101,502L733,502L743,558L111,558ZM640,690L518,0L604,0L726,690L640,690ZM174,690L52,0L138,0L260,690L174,690ZM179,374L166,302L604,302L617,374L179,374Z"  transform="translate(5524, 730)"/>
<path d="M628,690L530,124L306,690L174,690L53,0L139,0L243,598L500,-31L491,-83Q485,-117 467,-135Q449,-153 408,-153L396,-223Q444,-223 476,-217Q507,-211 528,-194Q548,-177 560,-146Q572,-116 581,-67L714,690L628,690Z"  transform="translate(6253, 730)"/>
<path d="M356,690L234,0L320,0L442,690L356,690ZM110,690L97,620L675,620L688,690L110,690ZM424,850L357,755L391,755L358,850L294,850L341,740L400,740L487,850L424,850Z"  transform="translate(6970, 730)"/>
<path d="M174,690L52,0L138,0L260,690L174,690ZM66,11Q-4,-13 -40,-57Q-76,-102 -76,-150Q-76,-190 -52,-206Q-28,-223 4,-223Q32,-223 56,-215Q79,-208 97,-195L106,-149Q91,-160 77,-164Q62,-169 47,-169Q29,-169 20,-159Q10,-150 10,-127Q10,-110 19,-89Q27,-69 43,-50Q59,-32 81,-18Q102,-4 127,0L66,11Z"  transform="translate(7583, 730)"/>
<path d=""  transform="translate(7846, 730)"/>
<path d="M448,530L209,63L133,530L35,530L152,-48L164,0L139,-46Q125,-73 111,-90Q97,-108 82,-119Q67,-130 50,-134Q33,-139 13,-139Q5,-139 -2,-138Q-10,-138 -18,-136L-30,-207Q-20,-209 -9,-209Q1,-210 12,-210Q50,-210 79,-200Q108,-190 135,-166Q162,-142 190,-101Q218,-61 252,0L547,530L448,530ZM354,690L273,580L329,580L434,690L354,690Z"  transform="translate(8042, 730)"/>
<path d="M304,544Q258,544 219,532Q179,520 149,498Q118,475 98,442Q78,408 69,366L159,366Q165,393 176,414Q186,435 203,450Q220,464 245,471Q269,478 303,478Q350,478 369,457Q388,435 388,404Q388,393 386,378Q384,362 379,333L356,201L335,85L330,0L416,0Q417,22 419,41Q420,59 422,75Q423,91 425,106Q427,120 430,135L465,334Q469,356 472,376Q474,396 474,413Q474,442 464,467Q454,491 434,508Q413,525 381,535Q349,544 304,544ZM382,319Q304,325 237,317Q169,309 119,285Q69,261 41,221Q12,181 12,123Q12,88 25,62Q37,36 57,19Q77,2 103,-6Q129,-14 157,-14Q202,-14 237,-4Q272,5 296,28L343,87L356,201Q350,169 334,142Q318,114 296,94Q274,74 248,63Q222,52 197,52Q156,52 131,73Q106,93 106,132Q106,171 128,198Q149,224 186,239Q222,254 270,258Q318,262 370,256L382,319ZM394,675Q384,675 374,671Q364,666 357,659Q349,652 344,643Q339,633 339,622Q339,605 350,594Q361,583 378,583Q388,583 398,588Q408,592 416,599Q423,606 428,616Q433,626 433,636Q433,653 422,664Q411,675 394,675ZM248,675Q238,675 228,671Q218,666 211,659Q203,652 198,643Q193,633 193,622Q193,605 204,594Q215,583 232,583Q242,583 252,588Q262,592 270,599Q277,606 282,616Q287,626 287,636Q287,653 276,664Q265,675 248,675Z"  transform="translate(8536, 730)"/>
<path d="M502,530L422,76Q420,64 417,51Q414,37 410,18Q393,-59 344,-101Q295,-144 216,-144Q182,-144 157,-136Q131,-128 115,-113Q98,-99 91,-78Q84,-58 85,-34L86,-25L-1,-25L-2,-35Q-5,-77 8,-109Q21,-142 49,-164Q76,-187 116,-198Q155,-210 204,-210Q265,-210 314,-195Q363,-180 400,-150Q437,-120 462,-75Q486,-31 498,27Q503,49 508,77Q512,105 517,130L588,530L502,530ZM342,544Q262,544 203,514Q144,483 105,435Q66,386 47,325Q28,264 28,202Q28,157 41,118Q53,78 78,49Q102,19 140,3Q177,-14 226,-14Q246,-14 267,-11Q288,-8 307,-2Q326,3 343,11Q360,19 373,28L441,105L454,260Q444,203 423,164Q402,124 375,99Q347,74 315,63Q283,52 250,52Q217,52 193,64Q169,75 154,96Q138,116 130,144Q122,172 122,206Q122,257 136,306Q149,354 176,393Q202,431 241,455Q280,478 330,478Q371,478 399,463Q426,447 442,421Q457,394 461,360Q465,326 459,289L495,431L463,500Q446,520 411,532Q375,544 342,544ZM380,704Q367,704 355,699Q343,694 334,686Q325,677 320,666Q315,654 315,640Q315,620 328,607Q341,594 362,594Q376,594 388,599Q399,604 408,613Q417,621 422,633Q427,645 427,658Q427,678 414,691Q401,704 380,704Z"  transform="translate(9042, 730)"/>
<path d="M151,649L63,151Q57,119 55,100Q52,80 52,69Q52,28 78,10Q103,-8 151,-8Q168,-8 185,-6Q201,-4 215,0L227,63Q183,55 163,63Q142,71 142,100Q142,107 143,118Q144,129 149,155L237,649L151,649ZM60,526L48,460L294,460L306,526L60,526ZM95,-51L35,-195L83,-195L164,-58L164,-51L95,-51Z"  transform="translate(9654, 730)"/>
<path d="M151,649L63,151Q57,119 55,100Q52,80 52,69Q52,28 78,10Q103,-8 151,-8Q168,-8 185,-6Q201,-4 215,0L227,63Q183,55 163,63Q142,71 142,100Q142,107 143,118Q144,129 149,155L237,649L151,649ZM60,526L48,460L294,460L306,526L60,526ZM327,709L267,565L315,565L396,702L396,709L327,709Z"  transform="translate(9957, 730)"/>
<path d="M151,649L63,151Q57,119 55,100Q52,80 52,69Q52,28 78,10Q103,-8 151,-8Q168,-8 185,-6Q201,-4 215,0L227,63Q183,55 163,63Q142,71 142,100Q142,107 143,118Q144,129 149,155L237,649L151,649ZM60,526L48,460L294,460L306,526L60,526ZM95,-51L35,-195L83,-195L164,-58L164,-51L95,-51Z"  transform="translate(10260, 730)"/>
<path d=""  transform="translate(10563, 730)"/>
<path d="M448,530L209,63L133,530L35,530L152,-48L164,0L139,-46Q125,-73 111,-90Q97,-108 82,-119Q67,-130 50,-134Q33,-139 13,-139Q5,-139 -2,-138Q-10,-138 -18,-136L-30,-207Q-20,-209 -9,-209Q1,-210 12,-210Q50,-210 79,-200Q108,-190 135,-166Q162,-142 190,-101Q218,-61 252,0L547,530L448,530Z"  transform="translate(10759, 730)"/>
<path d="M253,544Q203,544 166,531Q128,518 103,497Q77,475 65,446Q52,417 52,384Q52,350 64,326Q75,301 95,284Q115,266 142,254Q168,242 199,233Q227,224 247,215Q267,205 280,194Q293,182 299,168Q305,154 305,136Q305,94 275,70Q244,46 199,46Q151,46 118,69Q85,92 80,150L-10,150Q-9,120 2,90Q13,59 37,35Q60,10 98,-5Q136,-20 192,-20Q242,-20 281,-7Q319,5 345,27Q371,49 385,79Q399,109 399,143Q399,209 359,245Q319,280 242,303Q221,309 203,317Q185,325 173,336Q160,347 153,361Q146,375 146,393Q146,410 152,425Q157,440 170,452Q182,464 202,471Q221,478 249,478Q294,478 316,452Q338,426 340,379L430,379Q429,415 419,446Q408,476 387,498Q365,520 332,532Q299,544 253,544ZM169,-51L109,-195L157,-195L238,-58L238,-51L169,-51Z"  transform="translate(11253, 730)"/>
<path d="M763,544Q727,544 693,535Q659,526 628,507Q597,487 569,457Q541,427 518,385L544,388Q536,427 519,457Q502,486 477,506Q452,525 418,535Q384,544 342,544Q254,544 194,509Q133,473 96,421Q58,369 41,309Q24,249 24,201Q24,156 37,117Q49,78 76,49Q103,19 145,3Q186,-14 244,-14Q286,-14 323,-4Q359,5 391,24Q422,43 448,72Q474,101 496,140L471,143Q479,101 496,71Q512,41 536,22Q560,3 590,-5Q620,-14 654,-14Q695,-14 735,-3Q775,8 810,31Q845,53 873,88Q901,123 917,171L827,171Q818,143 802,121Q785,98 765,83Q744,68 720,60Q695,52 669,52Q643,52 621,61Q599,69 584,87Q568,105 559,133Q550,160 550,199Q550,208 550,218Q550,228 552,239L934,239Q942,263 946,292Q950,321 950,347Q950,392 938,428Q926,464 903,490Q880,516 845,530Q810,544 763,544ZM331,478Q365,478 391,467Q416,456 433,436Q450,415 459,387Q467,358 467,323Q467,284 456,237Q444,189 419,148Q393,107 353,80Q312,52 255,52Q221,52 196,63Q170,74 153,95Q136,115 128,144Q119,172 119,207Q119,246 131,294Q143,341 169,382Q194,423 234,451Q274,478 331,478ZM750,478Q779,478 800,470Q821,461 836,444Q850,427 857,402Q864,377 864,344Q864,336 864,326Q863,316 861,305L565,305Q576,347 595,380Q613,412 637,434Q661,456 690,467Q718,478 750,478Z"  transform="translate(11704, 730)"/>
<path d="M253,544Q203,544 166,531Q128,518 103,497Q77,475 65,446Q52,417 52,384Q52,350 64,326Q75,301 95,284Q115,266 142,254Q168,242 199,233Q227,224 247,215Q267,205 280,194Q293,182 299,168Q305,154 305,136Q305,94 275,70Q244,46 199,46Q151,46 118,69Q85,92 80,150L-10,150Q-9,120 2,90Q13,59 37,35Q60,10 98,-5Q136,-20 192,-20Q242,-20 281,-7Q319,5 345,27Q371,49 385,79Q399,109 399,143Q399,209 359,245Q319,280 242,303Q221,309 203,317Q185,325 173,336Q160,347 153,361Q146,375 146,393Q146,410 152,425Q157,440 170,452Q182,464 202,471Q221,478 249,478Q294,478 316,452Q338,426 340,379L430,379Q429,415 419,446Q408,476 387,498Q365,520 332,532Q299,544 253,544ZM332,690L251,580L307,580L412,690L332,690Z"  transform="translate(12673, 730)"/>
<path d="M322,478Q360,478 387,465Q414,451 432,428Q449,405 458,374Q466,343 466,308Q466,263 454,217Q441,171 416,135Q390,98 353,75Q316,52 266,52L255,-14Q336,-14 394,17Q452,47 489,95Q525,142 543,199Q560,256 560,310Q560,355 548,398Q535,440 508,473Q481,505 438,525Q395,544 333,544L322,478ZM333,544Q252,544 194,514Q136,483 100,436Q63,388 46,331Q28,274 28,220Q28,175 41,133Q53,90 80,58Q107,25 151,6Q194,-14 255,-14L266,52Q229,52 202,66Q174,79 157,102Q139,125 131,156Q122,187 122,222Q122,267 135,313Q147,359 173,396Q198,432 236,455Q273,478 322,478L333,544ZM335,690L248,580L311,580L378,675L344,675L377,580L441,580L394,690L335,690Z"  transform="translate(13124, 730)"/>
<path d="M304,544Q258,544 219,532Q179,520 149,498Q118,475 98,442Q78,408 69,366L159,366Q165,393 176,414Q186,435 203,450Q220,464 245,471Q269,478 303,478Q350,478 369,457Q388,435 388,404Q388,393 386,378Q384,362 379,333L356,201L335,85L330,0L416,0Q417,22 419,41Q420,59 422,75Q423,91 425,106Q427,120 430,135L465,334Q469,356 472,376Q474,396 474,413Q474,442 464,467Q454,491 434,508Q413,525 381,535Q349,544 304,544ZM382,319Q304,325 237,317Q169,309 119,285Q69,261 41,221Q12,181 12,123Q12,88 25,62Q37,36 57,19Q77,2 103,-6Q129,-14 157,-14Q202,-14 237,-4Q272,5 296,28L343,87L356,201Q350,169 334,142Q318,114 296,94Q274,74 248,63Q222,52 197,52Q156,52 131,73Q106,93 106,132Q106,171 128,198Q149,224 186,239Q222,254 270,258Q318,262 370,256L382,319ZM360,690L279,580L335,580L440,690L360,690Z"  transform="translate(13712, 730)"/>
<path d=""  transform="translate(14218, 730)"/>
<path d="M448,530L196,44L213,45L133,530L35,530L142,0L252,0L547,530L448,530Z"  transform="translate(14414, 730)"/>
<path d="M115,530L61,232Q57,208 54,192Q51,176 50,164Q49,152 49,143Q48,133 48,122Q48,59 89,23Q129,-14 210,-14Q251,-14 285,-5Q318,4 356,30L405,98L436,297Q424,229 404,183Q383,137 358,109Q332,80 302,68Q272,55 240,54Q183,52 160,79Q137,105 137,146Q137,162 140,183Q142,204 148,238L201,530L115,530ZM477,530L436,297L384,0L470,0L563,530L477,530ZM336,690L249,580L312,580L379,675L345,675L378,580L442,580L395,690L336,690Z"  transform="translate(14908, 730)"/>
<path d="M115,530L61,232Q57,208 54,192Q51,176 50,164Q49,152 49,143Q48,133 48,122Q48,59 89,23Q129,-14 210,-14Q251,-14 285,-5Q318,4 356,30L405,98L436,297Q424,229 404,183Q383,137 358,109Q332,80 302,68Q272,55 240,54Q183,52 160,79Q137,105 137,146Q137,162 140,183Q142,204 148,238L201,530L115,530ZM477,530L436,297L384,0L470,0L563,530L477,530ZM250,656L240,604L480,604L490,656L250,656Z"  transform="translate(15498, 730)"/>
<path d="M304,544Q258,544 219,532Q179,520 149,498Q118,475 98,442Q78,408 69,366L159,366Q165,393 176,414Q186,435 203,450Q220,464 245,471Q269,478 303,478Q350,478 369,457Q388,435 388,404Q388,393 386,378Q384,362 379,333L356,201L335,85L330,0L416,0Q417,22 419,41Q420,59 422,75Q423,91 425,106Q427,120 430,135L465,334Q469,356 472,376Q474,396 474,413Q474,442 464,467Q454,491 434,508Q413,525 381,535Q349,544 304,544ZM382,319Q304,325 237,317Q169,309 119,285Q69,261 41,221Q12,181 12,123Q12,88 25,62Q37,36 57,19Q77,2 103,-6Q129,-14 157,-14Q202,-14 237,-4Q272,5 296,28L343,87L356,201Q350,169 334,142Q318,114 296,94Q274,74 248,63Q222,52 197,52Q156,52 131,73Q106,93 106,132Q106,171 128,198Q149,224 186,239Q222,254 270,258Q318,262 370,256L382,319ZM294,690L207,580L270,580L337,675L303,675L336,580L400,580L353,690L294,690Z"  transform="translate(16088, 730)"/>
<path d="M151,649L63,151Q57,119 55,100Q52,80 52,69Q52,28 78,10Q103,-8 151,-8Q168,-8 185,-6Q201,-4 215,0L227,63Q183,55 163,63Q142,71 142,100Q142,107 143,118Q144,129 149,155L237,649L151,649ZM60,526L48,460L294,460L306,526L60,526ZM27,348L17,296L257,296L267,348L27,348Z"  transform="translate(16594, 730)"/>
<path d="M322,478Q360,478 387,465Q414,451 432,428Q449,405 458,374Q466,343 466,308Q466,263 454,217Q441,171 416,135Q390,98 353,75Q316,52 266,52L255,-14Q336,-14 394,17Q452,47 489,95Q525,142 543,199Q560,256 560,310Q560,355 548,398Q535,440 508,473Q481,505 438,525Q395,544 333,544L322,478ZM333,544Q252,544 194,514Q136,483 100,436Q63,388 46,331Q28,274 28,220Q28,175 41,133Q53,90 80,58Q107,25 151,6Q194,-14 255,-14L266,52Q229,52 202,66Q174,79 157,102Q139,125 131,156Q122,187 122,222Q122,267 135,313Q147,359 173,396Q198,432 236,455Q273,478 322,478L333,544ZM335,690L248,580L311,580L378,675L344,675L377,580L441,580L394,690L335,690Z"  transform="translate(16884, 730)"/>
</svg>
