<svg id="Layer_1" data-name="Layer 1" xmlns="http://www.w3.org/2000/svg" viewBox="0 0 1920 880"><defs><style>.cls-2{fill:#0060e3}.cls-3{fill:#fe1393}</style></defs><path style="fill:#defe00" d="M0 0h1920v880H0z"/><path class="cls-2" d="m582.7 229.1-21.4 1.3-1.3-28.8-45 1 .5 58.1h37.9V279l-37.7 2.3.5 51.4 18.1 1v22.7l-55.2 1.2-.8-24.9h15l-.2-130.1-15.8.6 1.3-24.7 102.8-1.3zM699.6 224l-18.8 1.3-2.6-26.2-46.3 1-.5 56.8h38.7v18.3l-39 2.3-.5 56.7 47.6-1.8v-28h18.9l1.2 50.7-103.6 2.5-.7-23.4h15l-.3-134.1-15.7.5 1.2-24.7 104.1-1.2zM817.4 307.8a70.9 70.9 0 0 1-2.5 19.3 47.6 47.6 0 0 1-8 15.9 38.4 38.4 0 0 1-13.5 10.7 45.2 45.2 0 0 1-19.5 3.9 55.4 55.4 0 0 1-12-1.2 29.9 29.9 0 0 1-9.7-3.9 31.8 31.8 0 0 1-8.2-6.6 57.2 57.2 0 0 1-7.2-9.6l-.3 19.6-22.4-3.1 4.1-58.3 18.8.8a103.2 103.2 0 0 0 3.6 14 52.7 52.7 0 0 0 6.5 13.5 33.7 33.7 0 0 0 9.9 10 24.6 24.6 0 0 0 14.1 4 26.6 26.6 0 0 0 11.2-2.2 18.6 18.6 0 0 0 7.3-6 24.7 24.7 0 0 0 4-9 50.9 50.9 0 0 0 1.2-11.3 32.6 32.6 0 0 0-2.2-12.4 33.1 33.1 0 0 0-6.2-9.5 41 41 0 0 0-9.2-7.1 55.8 55.8 0 0 0-11.4-5.1 210.2 210.2 0 0 1-19.6-8.1 63.1 63.1 0 0 1-16.2-10.3 42.8 42.8 0 0 1-10.8-14.7c-2.7-5.8-4.1-12.9-4.1-21.4a58.6 58.6 0 0 1 3.2-19.5 45.1 45.1 0 0 1 9.2-15.4 42.5 42.5 0 0 1 14.5-9.9 49 49 0 0 1 19.2-3.6 49.7 49.7 0 0 1 11.7 1.3 27.2 27.2 0 0 1 8.6 4 29 29 0 0 1 7 6.6 86.8 86.8 0 0 1 6.5 9.5l.3-20.8 22.1.5-2.8 64.9-19.8-.8c-.9-4.8-2-9.6-3.3-14.6a66.2 66.2 0 0 0-5.6-13.9 33.2 33.2 0 0 0-9.4-10.3 25.9 25.9 0 0 0-14.6-4 22 22 0 0 0-10 2.2 19.8 19.8 0 0 0-7.1 6 23.6 23.6 0 0 0-4.1 8.6 38.6 38.6 0 0 0-1.4 10.2 30.1 30.1 0 0 0 2.4 12.6 25.6 25.6 0 0 0 6.6 8.9 36.8 36.8 0 0 0 9.6 6.5 89.2 89.2 0 0 0 11.7 4.8 141.8 141.8 0 0 1 18.2 8.1 68.5 68.5 0 0 1 15.3 11.2 49.5 49.5 0 0 1 10.5 15c2.6 5.7 3.8 12.4 3.8 20zM939.8 228.6l-19.6 2.6-1.2-34.4-21.1.8-1.3 133.8 17.8-.5-1.3 22.9-52.4 1.3-.8-23.7h15l-.2-132.6-22.9 1.6 1.3 32h-21.2l1.3-55.2 104.1-3.8zM1007.9 330.9l-1.2 22.9-52.5 1.3-.7-23.7h15l-.3-130-15.8.5 1.3-24.7h50.4l2 22.9-14.7 1.3-1.3 130zM1138.2 196.3l-15.8 1.3-32.8 160.8-28.7-1.5-31.6-156.8-15.8.5 1.3-24.7h51.7l2 22.9-14.8 1.3 21.7 130.1 23.9-132.6-15.8.5 1.3-24.7 51.6-1.3zM1251.4 224l-18.9 1.3-2.5-26.2-46.3 1-.6 56.8h38.7v18.3l-38.9 2.3-.5 56.7 47.6-1.8v-28h18.8l1.3 50.7-103.6 2.5-.8-23.4h15l-.2-134.1-15.8.5 1.3-24.7 104.1-1.2zM1550 694.2l.3.8a41.1 41.1 0 0 1-8.3 5.1 25.7 25.7 0 0 1-11 2.2 30 30 0 0 1-10.7-1.8 23 23 0 0 1-8.1-5.2 22.6 22.6 0 0 1-5.2-8.1 26.1 26.1 0 0 1-1.9-10.2 29 29 0 0 1 2.1-11.4 23.7 23.7 0 0 1 5.5-8.2 25.4 25.4 0 0 1 8-5.3 24.9 24.9 0 0 1 9.4-1.7 24 24 0 0 1 9.7 1.7 18 18 0 0 1 10.4 11.5 25.5 25.5 0 0 1 1.3 7.8v1.7a15.7 15.7 0 0 1-.3 1.6l-.2.3h-27.9l-8.1.2a24.3 24.3 0 0 0 2 9.2 17.6 17.6 0 0 0 4.5 7 18.5 18.5 0 0 0 6.6 4.7 21.3 21.3 0 0 0 8.4 1.6 28.2 28.2 0 0 0 6.8-.8 23.4 23.4 0 0 0 6.3-2.6zm-35.2-20.8h12.7l7.5-.2h6.5c.5 0 .8-.4.8-1.2 0-6-1.1-10.9-3.2-14.5a10.7 10.7 0 0 0-9.5-5.4c-4.9 0-8.6 1.8-10.9 5.5s-3.7 8.9-3.9 15.8zM1568.1 654.5a1.3 1.3 0 0 0-1.3-1.5l-4-.4h-4.5l-.2-.2v-1h9.7l5.1-.2h4.4l.3.3c-.1 1.1-.2 2.5-.2 4s-.1 2.9-.1 4.1v23.6q0 6.8 3 10.2c1.9 2.5 4.8 3.7 8.6 3.7a14.5 14.5 0 0 0 8.5-2.9 13.9 13.9 0 0 0 3.5-3.1 7.6 7.6 0 0 0 1.2-4.7v-31.9a1.3 1.3 0 0 0-1.3-1.5l-4-.4h-4.5l-.2-.2v-1h9.7l5.1-.2h4.4l.3.3c-.1 1.1-.2 2.5-.2 4s-.1 2.9-.1 4.1v38.7c0 1 .4 1.5 1.3 1.5l5.3.3h4.4l.3.2v1h-14.9l-5.6.3-.3-.3c.1-1.1.2-2.5.3-4.1v-4.5c-2 1.8-3.9 3.2-5.5 4.4s-3.4 2.3-4.9 3.1a16.8 16.8 0 0 1-8 2.1c-5.5 0-9.5-1.5-11.9-4.7s-3.7-7.3-3.7-12.8zM1627.2 700.3l.2-.2h4.5a31.5 31.5 0 0 0 4.4-.3 1.4 1.4 0 0 0 1.3-1.5v-43.8a1.4 1.4 0 0 0-1.3-1.5l-4-.4h-4.5l-.2-.2v-1h9.7l5.1-.2h4.4l.3.3v2.1a19.5 19.5 0 0 0-.2 2.5c0 .8-.1 1.6-.1 2.4v2.1a40.6 40.6 0 0 1 4.4-4.6l3.7-3.3a18.1 18.1 0 0 1 2.9-1.7 6.7 6.7 0 0 1 3-.5 8.3 8.3 0 0 1 4.3 1 8.1 8.1 0 0 1 2.6 2.6v.5c-.2 2.4-.3 5.1-.5 8.2s-.2 5.7-.2 7.8h-.9l-.3-.3c0-1.5 0-2.8-.1-3.8a31.9 31.9 0 0 0-.5-3.7 7.4 7.4 0 0 0-2.7-4.7 9 9 0 0 0-5.5-1.6 10.8 10.8 0 0 0-3.8.6 9.2 9.2 0 0 0-3.1 2 12.7 12.7 0 0 0-2.8 3.4 11.9 11.9 0 0 0-.6 4.3v31.5a1.3 1.3 0 0 0 1.3 1.5 30 30 0 0 0 4.3.3h4.5l.3.2v1.2l-3.3-.2h-23.3l-3.4.2zM1674.9 700.3l.3-.2h4.5a32.5 32.5 0 0 0 4.4-.3 1.3 1.3 0 0 0 1.2-1.5v-43.8a1.3 1.3 0 0 0-1.2-1.5l-4-.4h-4.5l-.3-.2v-1h9.8l5.1-.2h4.4l.2.3c-.1 1.1-.1 2.5-.1 4.2s-.1 3.2-.1 4.4a42.5 42.5 0 0 1 5.6-4.5 36.6 36.6 0 0 1 4.7-3 16.8 16.8 0 0 1 8-2.1c5.5 0 9.5 1.5 12 4.6s3.6 7.4 3.6 12.9v30.3c0 1 .5 1.5 1.3 1.5a48.9 48.9 0 0 0 5.4.3h4.3l.3.2v1h-14.9l-5.6.3-.3-.3c.1-1.1.2-2.4.3-3.8v-27.9c0-4.5-1-8-2.9-10.4s-4.9-3.5-8.7-3.5a14.8 14.8 0 0 0-8.5 2.9 13.9 13.9 0 0 0-3.5 3.1c-.8 1-1.1 2.6-1.1 4.7v31.8a1.3 1.3 0 0 0 1.2 1.5 31.5 31.5 0 0 0 4.4.3h4.5l.2.2v1.2l-3.2-.2h-23.4l-3.4.2zM1790.8 694.2l.4.8a39.2 39.2 0 0 1-8.4 5.1 25.4 25.4 0 0 1-11 2.2 29.5 29.5 0 0 1-10.6-1.8 22.4 22.4 0 0 1-13.4-13.3 26.1 26.1 0 0 1-1.9-10.2 25.5 25.5 0 0 1 8-19.3 29.7 29.7 0 0 1 8.9-5.5 31.2 31.2 0 0 1 10.7-1.8 55.3 55.3 0 0 1 9.2.7 25.4 25.4 0 0 1 7 2.1l.2.5a28.1 28.1 0 0 0-.1 3c-.1 1.3-.1 2.5-.1 3.8s-.2 2.6-.2 3.9-.1 2.3-.1 3.3h-.9l-.2-.2c0-1.4-.1-2.6-.1-3.4s-.3-1.6-.4-2.6a10.3 10.3 0 0 0-4.9-7.1 19.4 19.4 0 0 0-10.1-2.4 15 15 0 0 0-12 5.6c-3.2 3.8-4.8 9.2-4.8 16.3a27.8 27.8 0 0 0 1.7 9.9 18.8 18.8 0 0 0 4.5 7.5 16 16 0 0 0 6.7 4.7 21.3 21.3 0 0 0 8.4 1.6 28.4 28.4 0 0 0 6.9-.8 22.9 22.9 0 0 0 6.2-2.6zM1800.5 677a27.3 27.3 0 0 1 2.2-11.4 24.1 24.1 0 0 1 5.7-8.2 26.5 26.5 0 0 1 8.5-5.3 29.9 29.9 0 0 1 10.4-1.7 30.4 30.4 0 0 1 10.7 1.8 29.7 29.7 0 0 1 8.3 5.4 24 24 0 0 1 5.2 8 25.9 25.9 0 0 1 1.9 10.1 27.5 27.5 0 0 1-2.1 11.1 23.3 23.3 0 0 1-5.8 8.4 23.1 23.1 0 0 1-8.6 5.3 31.1 31.1 0 0 1-10.6 1.8 26.7 26.7 0 0 1-10.8-2 24.5 24.5 0 0 1-8.1-5.2 22.8 22.8 0 0 1-5.1-8.1 27.3 27.3 0 0 1-1.8-10zm27 23.5a15.1 15.1 0 0 0 6.5-1.3 12.1 12.1 0 0 0 5-4.1 18.9 18.9 0 0 0 3.1-7.3 42.4 42.4 0 0 0 1.2-10.8 33.2 33.2 0 0 0-1.3-9.6 26 26 0 0 0-3.5-7.9 17.4 17.4 0 0 0-5.4-5.4 14.2 14.2 0 0 0-7.1-1.9 13.3 13.3 0 0 0-11.2 5.4c-2.8 3.6-4.1 9.6-4.1 18.1a36.4 36.4 0 0 0 1.2 9.5 27 27 0 0 0 3.4 7.9 17.9 17.9 0 0 0 5.2 5.4 13 13 0 0 0 7 2z" transform="translate(-.4 -.4)"/><path class="cls-3" d="M486 679.4c-1.3 2.1-2.9 4.4-4.6 6.9a44.6 44.6 0 0 1-5.9 7 34.6 34.6 0 0 1-7 5.4 15.6 15.6 0 0 1-7.8 2.3 10.9 10.9 0 0 1-7-2.2 16.6 16.6 0 0 1-4.4-5.1 19.2 19.2 0 0 1-2.4-6.4 36.8 36.8 0 0 1-.7-6.1q0-3.2.3-7.8a62.2 62.2 0 0 1 1.2-8.8 4 4 0 0 1 1.3-2.5 4.8 4.8 0 0 1 2.4-.6 4.7 4.7 0 0 1 3.1 1.2 3.3 3.3 0 0 1 .8 3.5c-.4 2.6-.7 5.2-.9 7.9s-.3 5.2-.3 7.1q0 5.5 2.1 8.7c1.4 2.1 2.9 3.2 4.5 3.2a8.8 8.8 0 0 0 5-1.8 26.4 26.4 0 0 0 5.2-4.6c1.6-1.8 3.2-3.9 4.8-6.1s3.1-4.6 4.5-6.9 2.5-4.3 3.5-6.3a42.4 42.4 0 0 0 2.4-4.9c.9-2 2.2-3 3.8-3a3.7 3.7 0 0 1 2.7 1.2 4.9 4.9 0 0 1 1 3.4v10.5a29.7 29.7 0 0 0 .5 5.8 12.3 12.3 0 0 0 1.4 3.6 5.8 5.8 0 0 0 1.7 2 4.1 4.1 0 0 0 1.7.5 14.2 14.2 0 0 0 7-2.4 46 46 0 0 0 7.7-6 48.2 48.2 0 0 0 6.6-8.3 28.1 28.1 0 0 0 3.8-9.1 5.3 5.3 0 0 1 1.5-2.9 3.5 3.5 0 0 1 2.3-.9 4 4 0 0 1 2.5.9 4.7 4.7 0 0 1 1.4 2.9 23.2 23.2 0 0 0 1.3 4.7 5.7 5.7 0 0 0 1.4 2.7 3 3 0 0 0 2.1 1 13.9 13.9 0 0 0 3.2.3 3.8 3.8 0 0 1 3 1.2 4.6 4.6 0 0 1 .9 2.7 3.9 3.9 0 0 1-.9 2.6 3.6 3.6 0 0 1-3 1.4 19.1 19.1 0 0 1-7.4-1.2 11 11 0 0 1-4.6-3.7 46 46 0 0 1-5.8 8.3 67.6 67.6 0 0 1-7.2 7 45.1 45.1 0 0 1-7.9 4.8 18.3 18.3 0 0 1-7.9 1.9 11.2 11.2 0 0 1-5.3-1.3 11.9 11.9 0 0 1-3.8-3.3 16.2 16.2 0 0 1-2.5-4.9 25.9 25.9 0 0 1-1.3-5.5z" transform="translate(-.4 -.4)"/><path class="cls-3" d="m539.7 669.4 1.8-.2 2.5-.2a8.4 8.4 0 0 0 2.4-.6 1.6 1.6 0 0 0 1.2-1c.6-3.2 2.5-5.6 5.8-7.4s7.9-2.5 13.9-2.5 9.3 1.6 12 4.6a23.4 23.4 0 0 1 5.1 12c1 6.8 2.6 11.6 4.8 14.5s5.4 4.5 9.7 4.5a4.1 4.1 0 0 1 3 1.1 5 5 0 0 1 1 2.8 4.2 4.2 0 0 1-1 2.6 3.6 3.6 0 0 1-3 1.4 18.9 18.9 0 0 1-9.6-2.2 17.3 17.3 0 0 1-6.5-5.5 25.6 25.6 0 0 1-4-8.3 67.1 67.1 0 0 1-2.3-9.8c-.4-3.6-1.4-6.1-2.9-7.5a8.5 8.5 0 0 0-6.3-2.3h-2.5l-3.9.4a18.9 18.9 0 0 0-3.6 1.1q-1.6.6-1.8 1.8a9.9 9.9 0 0 1-2.1 4.5 11.2 11.2 0 0 1-4 2.5 18 18 0 0 1-4.7 1.2 45.7 45.7 0 0 1-5 .4 3.3 3.3 0 0 1-2.9-1.4 3.6 3.6 0 0 1-1.1-2.6 4.3 4.3 0 0 1 1.1-2.7 3.4 3.4 0 0 1 2.9-1.2z" transform="translate(-.4 -.4)"/><path class="cls-3" d="M646.2 637a12.1 12.1 0 0 1 1.1 3 16.9 16.9 0 0 1 .3 3 7.5 7.5 0 0 1-7.9 7.9 5.6 5.6 0 0 1-3.3-1 10.3 10.3 0 0 1-2.5-2.6 12.9 12.9 0 0 1-2.1-6.9 7.7 7.7 0 0 1 7.9-7.9 5.7 5.7 0 0 1 4.2 1.5 10 10 0 0 1 2.3 3zm6.7 64a18.7 18.7 0 0 1-8.7-1.8 17.2 17.2 0 0 1-6.2-4.3 19.1 19.1 0 0 1-4.1-6.3 46.9 46.9 0 0 1-2.4-7.5 80.6 80.6 0 0 1-6.9 7.5 59 59 0 0 1-8.1 6.3 40.7 40.7 0 0 1-8.6 4.3 24.9 24.9 0 0 1-9 1.8 3.3 3.3 0 0 1-2.9-1.4 3.7 3.7 0 0 1-1-2.6 4.4 4.4 0 0 1 1-2.8 3.7 3.7 0 0 1 2.9-1.1 20.2 20.2 0 0 0 8.7-2.3 39.7 39.7 0 0 0 9.1-5.8 56.4 56.4 0 0 0 8.1-8.1 50.5 50.5 0 0 0 6.1-9.2c1-2 2.4-2.9 3.9-2.9a3.4 3.4 0 0 1 2.5 1.1 5.2 5.2 0 0 1 1.1 3.5c0 7.3 1.1 13.1 3.3 17.3s5.9 6.4 11.2 6.4a4.1 4.1 0 0 1 3 1.1 4.9 4.9 0 0 1 .9 2.8 4.1 4.1 0 0 1-.9 2.6 3.6 3.6 0 0 1-3 1.4z" transform="translate(-.4 -.4)"/><path class="cls-3" d="M723.1 673.3a46.3 46.3 0 0 0-10.4 2.6 22.3 22.3 0 0 0-6.9 4.8 24.5 24.5 0 0 0-4.8 7.2 92.2 92.2 0 0 0-3.5 10.2 5.1 5.1 0 0 1-1.6 2.6 3.3 3.3 0 0 1-2.2.9 3.5 3.5 0 0 1-2.3-.9 5.2 5.2 0 0 1-1.6-2.5 58.4 58.4 0 0 1-1.4-6.2c-.5-2.3-1-4.7-1.3-7.2a51.6 51.6 0 0 1-.9-7.9 67.5 67.5 0 0 1-.4-7.5v-4c0-1.3 0-2.6.1-3.9-1.2 3.1-2.9 6.9-5 11.4a91.6 91.6 0 0 1-7.4 12.9 51.5 51.5 0 0 1-9.3 10.7 17.1 17.1 0 0 1-11.3 4.5 3.2 3.2 0 0 1-2.9-1.4 3.8 3.8 0 0 1-1.1-2.6 4.5 4.5 0 0 1 1.1-2.8 3.5 3.5 0 0 1 2.9-1.1c2.7 0 5.4-1.4 8.1-4.1a52.2 52.2 0 0 0 7.9-10.6 112 112 0 0 0 7.3-14.3c2.2-5.3 4.3-10.4 6.1-15.5s3.5-9.7 4.8-14 2.1-7.4 2.7-9.7a3.8 3.8 0 0 1 1.6-2.5 4 4 0 0 1 2.3-.8 4.1 4.1 0 0 1 3 1.3 3.9 3.9 0 0 1 .9 3.7q-.3 1.4-.9 5.4c-.4 2.7-.9 6-1.3 9.9s-.9 8.3-1.2 13-.5 9.6-.5 14.5c0 2.1.1 4.3.2 6.5s.5 4.6.8 6.9c2.9-5.6 6.6-9.7 11.2-12.2a50.6 50.6 0 0 1 16.2-5.2 3.5 3.5 0 0 1 3.1.8 5.1 5.1 0 0 1 1.4 2.6 4.7 4.7 0 0 1-.7 2.8 3.3 3.3 0 0 1-2.8 1.7zM775.7 696.6a37 37 0 0 1-9.3 3.4 35.4 35.4 0 0 1-8.2 1 19.9 19.9 0 0 1-8.7-1.9 18 18 0 0 1-6.7-4.7 20.5 20.5 0 0 1-4.3-7.1 27.8 27.8 0 0 1-1.4-8.7 23.5 23.5 0 0 1 1.4-7.9 21.5 21.5 0 0 1 4.1-6.7 21 21 0 0 1 6.2-4.8 19.1 19.1 0 0 1 8-1.7 13.3 13.3 0 0 1 9.5 3.7 13 13 0 0 1 3.7 9.5 16 16 0 0 1-1.5 6.8 23.5 23.5 0 0 1-3.8 6.2 23.9 23.9 0 0 1-5.5 5 29.1 29.1 0 0 1-6.6 3.3 14.3 14.3 0 0 0 5.6 1.1 33 33 0 0 0 6.4-.7 32.5 32.5 0 0 0 7.6-2.9 4.5 4.5 0 0 1 1.9-.5 3.3 3.3 0 0 1 2.3.9 4.9 4.9 0 0 1 1.4 2.1 5.2 5.2 0 0 1-.2 2.5 3.3 3.3 0 0 1-1.9 2.1zm-29.5-11.4a13.2 13.2 0 0 0 5.6-1.4 16.7 16.7 0 0 0 5.2-3.4 20.7 20.7 0 0 0 3.7-4.7 10.5 10.5 0 0 0 1.4-5 5 5 0 0 0-5.3-5.3 10.9 10.9 0 0 0-8.4 3.7 13.5 13.5 0 0 0-3.4 9.5 18 18 0 0 0 1.2 6.6zM99.6 358.3a22.2 22.2 0 0 1-22.4-22.4V201.4a21.9 21.9 0 0 1 6.5-15.8 21.7 21.7 0 0 1 15.9-6.6H122a22.4 22.4 0 0 1 22.4 22.4v134.5a22.4 22.4 0 0 1-22.4 22.4v22.3H99.6zm0-33.6a11.2 11.2 0 0 0 3.2 8 11.6 11.6 0 0 0 8 3.2 11.1 11.1 0 0 0 11.2-11.2V235a11.1 11.1 0 0 0-3.3-8 10.5 10.5 0 0 0-6.8-3.1h-2.2a11.4 11.4 0 0 0-6.9 3.1 11 11 0 0 0-3.2 8zM178 324.7a10.9 10.9 0 0 0 11.2 11.2 11.1 11.1 0 0 0 11.2-11.2V179h22.4v156.9a22.4 22.4 0 0 1-22.4 22.4H178a22.2 22.2 0 0 1-22.4-22.4V179H178zM256.4 324.7a11.1 11.1 0 0 0 11.2 11.2h33.6v22.4h-44.8a22.2 22.2 0 0 1-22.4-22.4V201.4a22.4 22.4 0 0 1 22.4-22.4h44.8v44.8h-33.6a11.4 11.4 0 0 0-7.9 3.2 11.1 11.1 0 0 0-3.3 8v33.6h44.8v22.5h-44.8zM312.5 335.9h33.6a11.3 11.3 0 0 0 11.2-11.2v-22.4a11.3 11.3 0 0 0-11.2-11.2h-11.3a22.4 22.4 0 0 1-22.3-22.5v-67.2a22.4 22.4 0 0 1 22.3-22.4h44.9v44.8H345a11 11 0 0 0-6.9 3.1 11.1 11.1 0 0 0-3.3 8v22.4a10.9 10.9 0 0 0 3.3 8 11.4 11.4 0 0 0 8 3.2h11.2a22.5 22.5 0 0 1 22.4 22.5v44.8a22.4 22.4 0 0 1-22.4 22.4h-44.8zM435.7 358.3h-22.5V223.8h-22.3V179h67.2v44.8h-22.4zM113.1 607.7c1.4-1.1 2.9-2.4 4.6-4a33.4 33.4 0 0 0 3.8-4.1 49.9 49.9 0 0 1-19.8-3.8 45.8 45.8 0 0 1-16.3-10.5 46.4 46.4 0 0 1-11-16.5 54.8 54.8 0 0 1-4.2-21.9 58.4 58.4 0 0 1 4.2-22.4 51.7 51.7 0 0 1 28.9-29.1 58.4 58.4 0 0 1 22.4-4.2 63.6 63.6 0 0 1 22.9 4 52.7 52.7 0 0 1 17.3 11.2 49.7 49.7 0 0 1 10.9 16.8 56.4 56.4 0 0 1 3.8 20.7c0 9.1-1.4 16.9-4.3 23.6a49.5 49.5 0 0 1-11.5 17 50.2 50.2 0 0 1-16.7 10.5 67 67 0 0 1-19.9 4.5l-1 1.3c0 .8 1.1 1.8 3.2 2.8 3.8 1.8 7.9 3.6 12.1 5.4s8.5 3.4 12.7 4.8l12 4.1 10.4 3.3 5.5 1.3a33.5 33.5 0 0 0 3.7.7h2.8l2.5-.3 1.7 1.7a93.2 93.2 0 0 0-6 7.5c-1.5 2.3-3.2 5-4.9 7.9l-1.3.4q-8.7-4.7-18-9.3l-18.1-8.5-17.3-7.8-15.1-6.1zm13.5-15.3a40.5 40.5 0 0 0 14.8-2.7 29 29 0 0 0 12-7.9 37.4 37.4 0 0 0 8.1-13.5c2-5.4 2.9-11.8 2.9-19.2a72.8 72.8 0 0 0-2.9-21.8 48.8 48.8 0 0 0-8.6-15.8 36.3 36.3 0 0 0-13.3-9.7 45.1 45.1 0 0 0-17.5-3.3 38.4 38.4 0 0 0-14.1 2.6 31.2 31.2 0 0 0-11.4 7.9 38.3 38.3 0 0 0-7.4 13.5 59.5 59.5 0 0 0-2.8 19.3c0 16.3 3.4 28.7 10.4 37.4s16.7 13.2 29.8 13.2zM202.7 546.6v-24.2c-.2-7.6-.3-13.9-.5-18.8-.2-1-.4-2-.7-3a10.5 10.5 0 0 0-1.3-2.6l.6-2.6h15.7l.6 1a20 20 0 0 0-.8 4.9c-.1 2.1-.1 4.3-.1 6.6s-.2 5.3-.2 8.5-.2 7.5-.2 12.2v30.5c0 5.7.7 10.5 2.2 14.3a22.5 22.5 0 0 0 6.2 9.6 23.7 23.7 0 0 0 9.7 5.4 45.4 45.4 0 0 0 12.7 1.7c9 0 15.9-2.5 20.8-7.4s7.2-11.9 7.2-21.1v-45.2c-.1-3.2-.1-6.1-.1-8.5s-.3-4.5-.4-6.6a20 20 0 0 0-.8-4.9l.7-1h11.2l.6 2.6a11 11 0 0 0-1.5 2.6 10.5 10.5 0 0 0-.5 3c-.2 4.9-.3 11.2-.3 18.8s-.1 15.6-.1 24.2v15.5a39 39 0 0 1-3.3 16.6 33.6 33.6 0 0 1-8.9 11.9 43.1 43.1 0 0 1-13.5 6.9 60.4 60.4 0 0 1-16.8 2.3 48.1 48.1 0 0 1-15-2.2 32.7 32.7 0 0 1-12.2-6.2 27.7 27.7 0 0 1-8.1-10.4 34 34 0 0 1-2.9-14.8zM307.1 596.8a20 20 0 0 0 .8-4.9l.3-6.3c0-2.1.1-4.8.2-8.1v-58.4c-.1-7.5-.3-13.4-.5-17.8a20 20 0 0 0-.8-4.9l.6-1h43.2c4.6 0 8.9-.1 13-.3l.6.3-.6 10.7-5 .9-.9-.7a4.9 4.9 0 0 0-2.2-2.1 11.1 11.1 0 0 0-4.1-1c-4.3-.4-9.4-.5-15.5-.5h-14.3c-.1 2.7-.2 5.5-.2 8.2s-.1 5.7-.1 8.7V541a77.7 77.7 0 0 0 8 .4h8.6l8.2-.2c3 0 6.5-.2 10.6-.5l.6.3-1.1 8.3c-2.3-.2-5.2-.4-8.8-.5l-10-.2h-8.4l-7.7.5v9.7c0 3 0 5.7.1 8.3s.1 5 .2 7.4 0 4.9.2 7.6a8.6 8.6 0 0 0 2.3 5.7c1.4 1.7 4.1 2.5 8 2.5 5.6 0 9.9-.1 12.7-.3l7.3-.5a14 14 0 0 0 4.6-1.2 9.5 9.5 0 0 0 3.3-2.9l1.1-.5 5 .8-1.2 11.8-1.8.4c-3.5-.2-7.5-.4-11.9-.4H311l-3.3.2zM379.5 593.5l1.7-11.3 5.1-.5 1 .6c1.3 4 3.4 6.6 6.2 7.9s6.8 2.2 11.7 2.2a36.4 36.4 0 0 0 10.7-1.5 25.7 25.7 0 0 0 8.6-4.3 20.5 20.5 0 0 0 5.4-6.7 18.8 18.8 0 0 0 2-8.6 19.2 19.2 0 0 0-1.3-7.6 17.5 17.5 0 0 0-4.3-5.6 37.6 37.6 0 0 0-6.9-4.6l-9.9-4.3c-3.5-1.5-6.7-3.1-9.5-4.6a27.2 27.2 0 0 1-7.3-5.4 20.3 20.3 0 0 1-4.8-7.1 24.3 24.3 0 0 1-1.6-9.4 28.1 28.1 0 0 1 9.9-22.1 34.7 34.7 0 0 1 10.8-6.2 37.4 37.4 0 0 1 13-2.2 38.7 38.7 0 0 1 5.6.5c2.1.4 4.2.7 6.1 1.2a39.4 39.4 0 0 1 5.5 1.8 18.4 18.4 0 0 1 3.8 2.1l.5 1.2-1.7 10.7-5.1.5-1-.7c-1.6-6.7-7-10-16-10-5.3 0-9.7 1.5-13.1 4.4a15.3 15.3 0 0 0-5.3 12.2 17.7 17.7 0 0 0 1.3 7.3 17.1 17.1 0 0 0 3.8 5.4 25.4 25.4 0 0 0 6.3 4.1c2.4 1.2 5.1 2.4 8.2 3.6 4.7 1.8 8.8 3.6 12.2 5.3a38 38 0 0 1 8.4 6.1 21.3 21.3 0 0 1 4.6 7.4 28.6 28.6 0 0 1 1.5 9.7 30.6 30.6 0 0 1-3.2 13.9 31.7 31.7 0 0 1-8.7 11A41.4 41.4 0 0 1 420 597a55.8 55.8 0 0 1-17.4 2.6 64.3 64.3 0 0 1-12.2-1.1 36.2 36.2 0 0 1-10.4-3.8zM491.9 596.8a20 20 0 0 0 .8-4.9q.2-3.3.3-6.9c0-2.3.1-5.3.2-8.8v-58.9c-.1-7.5-.3-12.3-.5-14.5h-7.6c-6 0-11.2.1-15.5.5a35.8 35.8 0 0 0-4.6.8 8.4 8.4 0 0 0-3.3 2.1l-1 .7-4.9-.8 1-10.4.6-.3c4.1.2 8.4.3 13 .3h58.7c4.6 0 8.9-.1 13-.3l.6.3-.6 10.7-5 .8-.9-.6c-1.9-1.9-4.7-3-8.3-3.3l-6.2-.5h-14.9c-.2 4-.3 9.4-.3 16.1s-.2 15.3-.2 25.4v18.9c0 5.2.1 9.5.2 13s.1 6.5.2 8.8 0 4.7.1 6.9a19.5 19.5 0 0 0 .9 4.9l-.7 1-3.3-.2h-7.9l-3.3.2z" transform="translate(-.4 -.4)"/><path class="cls-2" d="M1334.6 113.1a5.5 5.5 0 0 0 4.9-2.8c1.1-1.9 1.7-4.7 1.7-8.4V71h2.1a13.7 13.7 0 0 1 7.7 2 10.7 10.7 0 0 1 4.1 5.9c.8 2.8 1.3 7.1 1.3 13.2v28.7h-3.7V92.5c0-9.2-2.2-13.8-6.7-13.8h-1.2v21.1c0 6.1-.4 10.5-1.2 13.1a10.1 10.1 0 0 1-4 5.9 13.7 13.7 0 0 1-7.7 2h-2.1V93.1c0-5.4-1.4-9.3-4.3-11.7s-7.3-3.5-13.4-3.5-10.7 1.2-13.4 3.7-4.2 6.2-4.2 11.3v27.9h-2.1a13.4 13.4 0 0 1-7.6-1.9 10.2 10.2 0 0 1-4.1-6c-.8-2.7-1.2-7-1.2-13.1v-8.9c0-4.9-.4-8.4-1.2-10.2a4.2 4.2 0 0 0-4.2-2.8 5.8 5.8 0 0 0-3.5 1 6.4 6.4 0 0 0-1.8 3 49.3 49.3 0 0 0-.6 7.8l-1.9.3-1.7-.2c0-7.1.8-12.1 2.4-15.1s3.9-4.5 6.9-4.5a7.3 7.3 0 0 1 6.9 4.3c1.5 2.8 2.3 8.4 2.3 16.8v10.6q0 5.5 1.8 8.4a5.2 5.2 0 0 0 4.8 2.8h1.2V92.9c0-7.3 1.8-13 5.4-16.8s8.8-5.9 15.8-5.9 12.1 1.9 15.8 5.6 5.5 9.5 5.5 17.2v20.1zm-17.7 10-1.9-12.3c-.8-5-1.6-8.4-2.6-10.3s-2.3-2.8-4-2.8a3.6 3.6 0 0 0-2.5 1.1 6.4 6.4 0 0 0-1.5 3.1l-2.9-.9a18.1 18.1 0 0 1 2.9-7.8c1.6-2.1 3.2-3.2 5.1-3.2s3.8 1.3 5.1 3.9 2.5 7.1 3.5 13.5l2.4 14.8zM1427.5 120.8V92.5c0-9.2-2.2-13.8-6.7-13.8h-1.2V99c0 7.4-1.6 13-4.8 16.9s-8.1 5.8-14.6 5.8-11.4-1.9-14.6-5.6-4.9-9.1-4.9-16.3v-8.9c0-4.9-.4-8.4-1.2-10.2a4.2 4.2 0 0 0-4.2-2.8 5.8 5.8 0 0 0-3.5 1 5.5 5.5 0 0 0-1.7 3 32.7 32.7 0 0 0-.6 7.8l-2 .3-1.6-.2c0-7.1.8-12.1 2.4-15.1s3.8-4.5 6.9-4.5a7.5 7.5 0 0 1 6.9 4.3c1.5 2.8 2.2 8.4 2.2 16.8v7.5c0 5.4 1.3 9.3 3.7 11.7s6.6 3.5 12.2 3.5 9.7-1.2 12.1-3.6 3.7-6.3 3.7-11.4V71h2.1a13.7 13.7 0 0 1 7.7 2 10.7 10.7 0 0 1 4.1 5.9c.9 2.8 1.3 7.1 1.3 13.2v28.7zm-20.5 9.8a13.1 13.1 0 0 0-7.1-1.6 10.1 10.1 0 0 0-4.5.8c-1.3.6-1.9 1.4-1.9 2.3s2.1 2.6 6.3 3.5a29.2 29.2 0 0 1 9.6 3.6 6.9 6.9 0 0 1 3.5 6.2 9.3 9.3 0 0 1-3.3 7.3 12.7 12.7 0 0 1-8.6 3 18.4 18.4 0 0 1-9.9-3.2 13.8 13.8 0 0 1-6.3-7.2l1.7-1.2c.8 1.3 2.7 2.4 5.5 3.4a27.1 27.1 0 0 0 8.1 1.4 18.1 18.1 0 0 0 6.3-1.1q2.7-1.2 2.7-3a3.5 3.5 0 0 0-2-3c-1.3-.9-3.9-1.7-7.7-2.5s-6.4-1.8-7.7-2.8a4.6 4.6 0 0 1-2-3.8 6.3 6.3 0 0 1 3-5.3 12.8 12.8 0 0 1 7.5-2.1 17.5 17.5 0 0 1 5 .6 19.4 19.4 0 0 1 3.6 1.5zM1494.5 101.8c-.1 6.9-1 11.9-2.9 15.1a8.8 8.8 0 0 1-8.1 4.8q-6.1 0-12-8.4c-4-5.5-7.3-8.8-10.2-10v.7c0 6.1-.8 10.6-2.5 13.5a8.2 8.2 0 0 1-7.5 4.2 6.8 6.8 0 0 1-5.7-2.7 10.5 10.5 0 0 1-2.3-6.7 18.2 18.2 0 0 1 4.1-12.2 13.8 13.8 0 0 1 10.3-5v-4.2c0-4.3-.5-7.6-1.6-9.8a5.3 5.3 0 0 0-5.1-3.2 5.6 5.6 0 0 0-4.9 2.2q-1.6 2.3-1.8 9.6l-2 .3-1.6-.2q0-10.5 2.7-15a8.7 8.7 0 0 1 8.1-4.6 8 8 0 0 1 7.3 4.4c1.7 2.9 2.5 8.5 2.5 16.7v4a17.4 17.4 0 0 1 7.2 3.8 63.2 63.2 0 0 1 7.9 8.9q4.5 6 6.9 6a6.1 6.1 0 0 0 5.6-3c1.2-2 1.9-5.5 2-10.6v-3.8c0-5-1.2-9.3-3.7-12.7a11.7 11.7 0 0 0-10.2-5.2c2.6-5.7 6.8-8.5 12.5-8.5s8.9 1.9 11.4 5.5 3.9 9.2 3.9 16.4v28.7h-3.6V92.5c0-4.6-.9-8.2-2.6-10.7a8.2 8.2 0 0 0-7.4-3.9 9.7 9.7 0 0 0-3.6.6 17.3 17.3 0 0 1 5.2 6.9c1.2 2.6 1.7 6 1.7 10.1zm-36.8 2.5v-1.5c-6.9.1-10.3 3.1-10.3 9 0 3.6 1.4 5.4 4 5.4q6.3 0 6.3-12.9zM1605.3 140.4a20.4 20.4 0 0 1-6 2.5 27.1 27.1 0 0 1-6.8.9h-2.3a198.1 198.1 0 0 1-8 27.7l-3.6-.9.4-1.5c-.1-2-1.6-3.7-4.6-5.3s-8.2-3.1-15.8-4.8a136.3 136.3 0 0 1-17.6-5 26.8 26.8 0 0 1-9.8-5.9 10.9 10.9 0 0 1-3.3-7.9 11.7 11.7 0 0 1 4.6-9.3 18.2 18.2 0 0 1 11.8-3.8c6.3 0 13.7 1.8 22.3 5.3s15.3 5.7 20 6.4a168.6 168.6 0 0 0 2.8-29.7c0-20.8-4.1-31.2-12.2-31.2a9.5 9.5 0 0 0-6.6 2.6 10.8 10.8 0 0 0-3.1 7.1h-3.1a9.9 9.9 0 0 0-9.8-9.7c-3.8 0-6.5 1.2-8 3.6s-2.4 6.2-2.4 11.4v27.9h-2.2a13 13 0 0 1-7.5-1.9 9.8 9.8 0 0 1-4.1-6c-.9-2.7-1.3-7-1.3-13.1v-8.9c0-4.9-.4-8.4-1.1-10.2a4.3 4.3 0 0 0-4.2-2.8 5.6 5.6 0 0 0-3.5 1 5.1 5.1 0 0 0-1.8 3 49.3 49.3 0 0 0-.6 7.8l-2 .3-1.6-.2c0-7.1.8-12.1 2.4-15.1s3.9-4.5 6.9-4.5a7.3 7.3 0 0 1 6.9 4.3c1.5 2.8 2.3 8.4 2.3 16.8v10.6c0 3.7.6 6.5 1.7 8.4a5.5 5.5 0 0 0 4.9 2.8h1.1V92.9c0-8.2 1.1-14.1 3.3-17.5s5.8-5.2 10.8-5.2 9.3 3.1 11.3 9.3c2-6.2 5.8-9.3 11.3-9.3s9.6 3.3 12.4 9.8 4.3 16.2 4.3 28.7a166.4 166.4 0 0 1-2.8 30.5h.9c5.3 0 9.2-.7 11.8-2.2zm-24.4 22.7c2.1-7.2 3.7-13.7 4.9-19.7a130.5 130.5 0 0 1-22.7-5.3q-13.9-4.2-21.6-4.2c-6.1 0-9.1 2.2-9.1 6.5s2 5.6 6.1 7.8 11.5 4.7 22.5 7.1 17.6 5.1 19.9 7.8zM1598.5 82.3a22.3 22.3 0 0 1 7.4-8.9 18 18 0 0 1 10.1-3.2c5.9 0 10.6 2 14.2 5.9s5.2 8.9 5.2 14.9-1.6 11.9-4.7 15.8a14.9 14.9 0 0 1-12.5 6 8.7 8.7 0 0 1-5.2-1.7 4.9 4.9 0 0 1-2.4-4.2c0-3.8 1.6-7 4.9-9.8l3.1 2.3a6.2 6.2 0 0 0-2 4.3 3.4 3.4 0 0 0 1.2 2.9 4.4 4.4 0 0 0 3 1c2.8 0 5.2-1.5 7.1-4.7a21.1 21.1 0 0 0 3-11.6 13 13 0 0 0-4-10c-2.6-2.6-6.2-3.8-10.7-3.8a20 20 0 0 0-8.8 1.8 12.1 12.1 0 0 0-5.6 5.1zM1733.4 120.8V92.5c0-9.2-2.3-13.8-6.8-13.8h-1.1v32.1a14.3 14.3 0 0 1-2 8 6.5 6.5 0 0 1-5.5 2.9 6.7 6.7 0 0 1-6.3-3.7c-1.4-2.5-2.1-7.2-2.1-14V93.1c0-5.4-1.4-9.2-4.4-11.6s-7.5-3.6-13.6-3.6-10.9 1.3-14 3.9-4.7 6.4-4.7 11.3v.2q13 .6 20.4 5.4a14.6 14.6 0 0 1 7.3 12.9 9.1 9.1 0 0 1-3.3 7.4q-3.3 2.7-9 2.7c-4.6 0-8.9-1.8-12.9-5.5a17.8 17.8 0 0 1-6.1-14.1v-1.2l-5.1.2v2.9c0 6.1-.8 10.6-2.5 13.5a8.3 8.3 0 0 1-7.6 4.2 7.1 7.1 0 0 1-5.7-2.7 11 11 0 0 1-2.2-6.7 17.2 17.2 0 0 1 3.9-11.3 19.8 19.8 0 0 1 10.5-6.7v-3.4c0-4.3-.5-7.6-1.6-9.8a5.5 5.5 0 0 0-5.1-3.2 5.6 5.6 0 0 0-4.9 2.2q-1.6 2.3-1.8 9.6l-2 .3-1.7-.2c0-7 1-12 2.8-15a8.6 8.6 0 0 1 8.1-4.6 8 8 0 0 1 7.3 4.4c1.7 2.9 2.5 8.5 2.5 16.7v2.2l5.1-.3v-2c0-6.6 2-11.8 5.9-15.5s9.3-5.5 16.2-5.5 12.6 2 16.3 5.9 5.5 9.5 5.5 16.9v11.3c0 4 .4 6.8 1.1 8.3s1.9 2.3 3.9 2.3a3 3 0 0 0 2.7-2 11.6 11.6 0 0 0 .9-4.9V71h2.2a13.4 13.4 0 0 1 7.6 2 11.4 11.4 0 0 1 4.2 5.9c.8 2.8 1.2 7.1 1.2 13.2v28.7zm-60.5-18.4a13.1 13.1 0 0 0 5 10.9 17.6 17.6 0 0 0 10.9 3.9 11.4 11.4 0 0 0 5.2-1.1 3.5 3.5 0 0 0 2.1-3.2c0-3.2-2.1-5.8-6.4-8s-9.9-3.4-16.8-3.9zm-12.3-.6a15.5 15.5 0 0 0-7.7 3.8 8.5 8.5 0 0 0-2.6 6.2c0 3.6 1.3 5.4 4 5.4q6.3 0 6.3-12.9zM1846.7 120.8V92.5c0-9.2-2.2-13.8-6.7-13.8h-1.2V99c0 7.4-1.6 13-4.8 16.9s-8.1 5.8-14.6 5.8-11.3-1.9-14.6-5.6-4.9-9.1-4.9-16.3v-6.7c0-5.8-.9-9.8-2.6-11.9s-4.8-3.3-9.2-3.3-5.8.4-7.3 1.3a7.4 7.4 0 0 0-3.4 4.4c-.7 2-1 5.1-1 9.3v12.6c0 5.9-.6 10.1-1.7 12.5a5.5 5.5 0 0 1-5.4 3.7 6.6 6.6 0 0 1-6-3.2c-1.3-2.1-2-6.2-2-12.3V90.9c0-4.9-.3-8.4-1.1-10.2a4.2 4.2 0 0 0-4.2-2.8 5.8 5.8 0 0 0-3.5 1 5.1 5.1 0 0 0-1.8 3 49.3 49.3 0 0 0-.6 7.8l-2 .3-1.6-.2c0-7.1.8-12.1 2.4-15.1s3.9-4.5 6.9-4.5a7.3 7.3 0 0 1 6.9 4.3c1.5 2.8 2.3 8.4 2.3 16.8v13c0 4.4.3 7.2.9 8.6a3.5 3.5 0 0 0 3.5 2c2.3 0 3.4-3.2 3.4-9.5V92.9c0-8.3 1.1-14.1 3.5-17.6s6.3-5.1 11.8-5.1 9.5 1.7 11.9 5.2 3.5 9.3 3.5 17.6v5.8c0 5.4 1.3 9.3 3.7 11.7s6.6 3.5 12.2 3.5 9.7-1.2 12.1-3.6 3.7-6.3 3.7-11.4V71h2.1a13.7 13.7 0 0 1 7.7 2 10.7 10.7 0 0 1 4.1 5.9c.9 2.8 1.3 7.1 1.3 13.2v28.7zM479.8 123.5c3.9 0 6.9-1.3 8.9-3.8s3.1-6 3.1-10.6-1.5-8.4-4.5-8.4a3.5 3.5 0 0 0-3.1 1.6 8.4 8.4 0 0 0-1.1 4.6v5.2h-5.4c-.1-1.4-.2-3.2-.2-5.3 0-3.8.9-6.8 2.7-8.9a9 9 0 0 1 7.3-3.1c3.6 0 6.4 1.2 8.3 3.8s2.8 6.2 2.8 10.8c0 6.2-1.7 11.1-5 14.7s-7.9 5.4-13.8 5.4-10.8-1.8-13.8-5.5-4.5-9.4-4.5-17.3V75.3l-6.8-.7V70h20.9v4.6l-6.7.7v32.1q0 8.1 2.7 12c1.7 2.7 4.5 4.1 8.2 4.1zM554 123.4c3.4 0 6-.9 7.8-2.8s2.8-4.9 3.1-9.2l-7.3-.6v-4.7h19.9v4.7l-6.1.6c-.5 5.7-2.2 10.2-5.2 13.4s-7 4.7-12.1 4.7-10.5-2.2-15.2-6.7a25.1 25.1 0 0 1-7 5 18.2 18.2 0 0 1-7.5 1.7c-5.3 0-9.4-1.5-12.2-4.6s-4.3-7.4-4.3-12.9a28.6 28.6 0 0 1 .3-4.6h6.2v1.7c0 4.7.9 8.2 2.6 10.6a8.5 8.5 0 0 0 7.5 3.7c3.5 0 6.8-1.7 10-5.1a50.4 50.4 0 0 1-8.6-14.2 40.8 40.8 0 0 1-3.2-15.3q0-9 4.5-14.4c3-3.5 7-5.3 12.2-5.3s8.7 1.6 11.5 4.9 4.2 7.8 4.2 13.4a44.3 44.3 0 0 1-3.3 15.8 52.1 52.1 0 0 1-8.5 14.8q5 5.4 10.7 5.4zm-24-35.6a43.5 43.5 0 0 0 2.3 13.5 44.8 44.8 0 0 0 6.7 12.6 54 54 0 0 0 6.3-13 42.3 42.3 0 0 0 2.5-13.1c0-4.1-.8-7.3-2.2-9.5a7.4 7.4 0 0 0-6.4-3.2 7.8 7.8 0 0 0-6.7 3.5 15.4 15.4 0 0 0-2.5 9.2zM597.6 123.3l6.8.7v4.6h-20.9V124l6.7-.7V88.8l-6.7-.6v-4.7h20.3v4.7l-6.2.6v8.7h4.2c5.8 0 10-1.2 12.7-3.5s4.2-5.9 4.2-10.7a11.3 11.3 0 0 0-4.3-9.4c-2.9-2.2-6.9-3.3-12.2-3.3a41.1 41.1 0 0 0-7.7.8 30.2 30.2 0 0 0-6.8 2.2l-2.3-5a23.9 23.9 0 0 1 7.5-3.1 43.7 43.7 0 0 1 9.7-1.1c6.9 0 12.5 1.7 16.7 5a16.8 16.8 0 0 1 6.4 13.6q0 9.8-6 15c-4 3.5-9.9 5.3-17.6 5.3h-4.5zM693.8 70v4.6l-6.6.7v48l6.6.7v4.6H673V124l6.6-.7v-22.1h-29.7v22.1l6.7.7v4.6h-20.9V124l6.7-.7v-48l-6.7-.7V70h20.9v4.6l-6.7.7v20.1h29.7V75.3l-6.6-.7V70zM764 88.8a5.9 5.9 0 0 0 4.7 2.1 5.6 5.6 0 0 0 4.5-2 8.1 8.1 0 0 0 1.7-5.2 8.3 8.3 0 0 0-2.5-6.3c-1.6-1.5-3.9-2.2-6.8-2.2a11 11 0 0 0-6.4 2 13.4 13.4 0 0 0-4.5 5.8 28.8 28.8 0 0 0-1.8 9.6h-6.3v-3.2a23.6 23.6 0 0 0-1.4-7.1 10.6 10.6 0 0 0-4.2-5.1 14.2 14.2 0 0 0-7.2-2v32.2c0 7.2-1.3 12.7-3.9 16.4a12.9 12.9 0 0 1-11.3 5.7c-10.7 0-16.1-8.7-16.1-26a42.5 42.5 0 0 1 3.6-18 26.7 26.7 0 0 1 10.2-12.2 28.4 28.4 0 0 1 15.6-4.2c10.1 0 16.2 3.8 18.5 11.5h.2a17.1 17.1 0 0 1 5.8-8.5 15.1 15.1 0 0 1 9.4-3 18.4 18.4 0 0 1 8.3 1.8 13.7 13.7 0 0 1 5.4 5 14.1 14.1 0 0 1 1.9 7.4 13.3 13.3 0 0 1-3.5 9.4 11.7 11.7 0 0 1-9 3.8c-3.9 0-6.7-1.2-8.7-3.8zm-45.4 34.5a6.2 6.2 0 0 0 5.9-3.7c1.2-2.4 1.9-6.3 1.9-11.7V75.6c-5.1 1-9.1 4.1-12 9.1s-4.3 11.2-4.3 18.7.6 12.5 1.9 15.5a6.8 6.8 0 0 0 6.6 4.4zM783.5 117.4a9.4 9.4 0 0 0 6.6-2.5 8.5 8.5 0 0 0 2.3-6.2 8.8 8.8 0 0 0-1.9-6c-1.3-1.6-3.2-2.4-5.8-2.7v-5.4c4.7.2 8.4 1.8 11.1 5a72 72 0 0 0 11.4-9.7c2.9-3.2 4.4-6.1 4.5-8.5v-6.1l-6.9-.7V70h20.9v4.6l-6.9.7v8q13.4 2.1 19.8 8.1c4.2 4.1 6.4 9.7 6.4 16.8a22.6 22.6 0 0 1-2.6 10.7 19.1 19.1 0 0 1-7.3 7.6 19.8 19.8 0 0 1-10.6 2.8c-4.8 0-8.6-1.2-11.3-3.6a11.6 11.6 0 0 1-4.2-9.4 12 12 0 0 1 3.7-9.1c2.4-2.3 5.6-3.4 9.6-3.5v5.4a6.5 6.5 0 0 0-4.7 1.9 7.7 7.7 0 0 0 .7 10.4 8.9 8.9 0 0 0 6.1 2.1 12.2 12.2 0 0 0 6.8-1.9 13.1 13.1 0 0 0 4.6-5.5 18.8 18.8 0 0 0 1.6-7.6 23.9 23.9 0 0 0-1.3-8.2 14.2 14.2 0 0 0-3.9-5.4 20.7 20.7 0 0 0-6.6-3.7 43.9 43.9 0 0 0-9.3-2.2 48.6 48.6 0 0 1-7.9 8.9 73 73 0 0 1-9.8 7.5 18.4 18.4 0 0 1 .3 3.3 12.8 12.8 0 0 1-4.2 10c-2.8 2.6-6.6 3.9-11.2 4.1zM1506.5 430.8a20.9 20.9 0 0 1 2.9 1.9 3.7 3.7 0 0 1 1 2.7c0 2.8-3 6.6-8.8 11.3a92.7 92.7 0 0 1-17.7 11.6c-5.9 3.1-10 4.6-12.4 4.6a6.6 6.6 0 0 1-4.9-1.7 6 6 0 0 1-1.6-4.4c0-3.2 2.7-5.4 8-6.5a71.3 71.3 0 0 0 16.7-5.9c5.7-2.8 8.5-5.3 8.5-7.5 0-.4-.6-.9-1.7-1.4a8.5 8.5 0 0 1-2.7-1.9 4 4 0 0 1-.9-2.7 3.9 3.9 0 0 1 1.6-2.8 24.2 24.2 0 0 1 4.4-2.7l2.9-1.4 2.2-1.2c.6-.3.8-.7.8-.9a1.1 1.1 0 0 0-.3-.8l-1.3-.4-2-.5a14.9 14.9 0 0 1-4.8-1.7 3.3 3.3 0 0 1-1.4-2.9 4.3 4.3 0 0 1 2.6-3.9l5.2-2.9a33.6 33.6 0 0 0 4.9-3.5 6.9 6.9 0 0 1 4.1-1.8 4.1 4.1 0 0 1 4.1 4.1c0 1-.7 2.1-1.9 3.3a26.4 26.4 0 0 1-5.8 3.8c3.8 1 6.1 1.9 7 2.7a3.8 3.8 0 0 1 1.4 2.9 7.9 7.9 0 0 1-2.5 5.4 25 25 0 0 1-7.6 5.1zm-12.2 38.3a4.8 4.8 0 0 1-1.4-3.5 5.7 5.7 0 0 1 1.7-4.1 5.8 5.8 0 0 1 4-1.7 4.8 4.8 0 0 1 3.6 1.5 5 5 0 0 1 1.5 3.7 5.4 5.4 0 0 1-1.7 3.9 5.8 5.8 0 0 1-4.1 1.7 4.6 4.6 0 0 1-3.6-1.5zM1556.3 421.9a15.9 15.9 0 0 0-4-.4 31.1 31.1 0 0 0-9.9 1.6 31.1 31.1 0 0 1-7.6 1.6 4.3 4.3 0 0 1-3.4-1.4 4.4 4.4 0 0 1-1.3-3.3c0-2.1 1.8-3.9 5.3-5.2s8.9-1.9 16.1-1.9 11.2.7 14.3 2.1 4.4 3.7 4.4 6.6-1.3 5.9-4.1 9.4-7.7 7.7-14.6 12.4a79.7 79.7 0 0 1-18.6 10.2c-5.5 2-9.3 3-11.3 3-4.4 0-6.6-1.7-6.6-5.2s2-5.3 5.9-6.1a107.8 107.8 0 0 0 13.9-4 54.9 54.9 0 0 0 15.6-8.6c5.1-3.9 7.6-7.1 7.6-9.6 0-.6-.5-1-1.7-1.2zM1591.1 432.5a15.2 15.2 0 0 1-5.1-4 7.5 7.5 0 0 1-1.3-4.3 8.6 8.6 0 0 1 2.5-5.7 7.9 7.9 0 0 1 5.9-2.7 8.7 8.7 0 0 1 6.6 2.7 10.8 10.8 0 0 1 3 7.2c4 .5 8.3 1 13 1.3s9.8.4 15.6.4c19.3 0 30.7-1.3 34.1-4s5.7-5.4 6.8-8.1 2.8-4 5.1-4a3.8 3.8 0 0 1 3 1.1 6.1 6.1 0 0 1 .8 3.2c0 3.9-2 7.8-5.8 11.6a30.8 30.8 0 0 1-15.4 7.7c-6.3 1.3-16.3 1.9-30 1.9-6 0-11.3-.2-16.1-.6s-9.1-.8-12.8-1.4c-1.5 3.5-4.4 6.8-8.5 10s-7.4 4.8-10.1 4.8a6.1 6.1 0 0 1-3.9-1.2 4.1 4.1 0 0 1-1.5-3.3c0-2 1.3-3.5 4-4.4a23.3 23.3 0 0 0 6.8-3.7c1.8-1.5 3-3 3.3-4.5zm29.7-15.9a4.8 4.8 0 0 1-1.4-3.5 5.6 5.6 0 0 1 1.8-4.2 5.3 5.3 0 0 1 3.9-1.6 5 5 0 0 1 3.7 1.5 5.2 5.2 0 0 1 1.4 3.6 5.1 5.1 0 0 1-1.7 4 5.7 5.7 0 0 1-4.1 1.7 4.9 4.9 0 0 1-3.6-1.5zm20.4 0a4.5 4.5 0 0 1-1.4-3.5 5.5 5.5 0 0 1 1.7-4.2 5.4 5.4 0 0 1 3.9-1.6 5 5 0 0 1 3.7 1.5 4.9 4.9 0 0 1 1.5 3.6 5.2 5.2 0 0 1-1.8 4 5.6 5.6 0 0 1-4 1.7 4.6 4.6 0 0 1-3.6-1.5zm-9-13.4a4.8 4.8 0 0 1-1.4-3.6 5.3 5.3 0 0 1 1.7-4.1 5.4 5.4 0 0 1 3.9-1.7 5 5 0 0 1 3.7 1.5 5 5 0 0 1 1.4 3.7 5.4 5.4 0 0 1-1.7 4 5.5 5.5 0 0 1-4 1.6 4.9 4.9 0 0 1-3.6-1.4zM1735.7 417a3.5 3.5 0 0 1 .8 2.6 8.1 8.1 0 0 1-.3 1.9c-.2.8-1.3 2.6-3.4 5.4s-5.6 6.3-10.8 10.8a126.5 126.5 0 0 1-15.2 11.3c-4.9 3-8.6 4.9-11.1 5.5l-4.5 1.1a7.4 7.4 0 0 1-4.8-1.4 5.1 5.1 0 0 1-1.7-3.9c0-3.4 1.8-5.6 5.5-6.5a51.7 51.7 0 0 0 13.1-5.8 152.6 152.6 0 0 0 13.5-8.5 50 50 0 0 0 9.8-8.8c2.6-3.2 4.8-4.7 6.7-4.7a2.8 2.8 0 0 1 2.4 1zm-12.3-8.8a5.2 5.2 0 0 1-1.4-3.6 5.7 5.7 0 0 1 1.7-4.1 5.8 5.8 0 0 1 4-1.7 4.8 4.8 0 0 1 3.6 1.5 5.3 5.3 0 0 1 1.5 3.7 5.6 5.6 0 0 1-5.8 5.6 5.1 5.1 0 0 1-3.6-1.4zM1782 427.1a105.7 105.7 0 0 1-22.2 19.7c-8.7 5.9-14.8 8.8-18.5 8.8a7 7 0 0 1-4.9-1.5 5 5 0 0 1-1.7-4c0-3.1 1.7-5 4.9-6a68.6 68.6 0 0 0 10.7-4 65.3 65.3 0 0 0 11.2-6.3 78.3 78.3 0 0 0 11.9-10.8c4.3-4.7 8-7 11.2-7a6.3 6.3 0 0 1 5.3 2.4c1.1 1.7 1.7 4.2 1.7 7.8a32.9 32.9 0 0 1-2.1 11.5 52.7 52.7 0 0 1-5.8 11.3c-2.6 3.8-5.2 5.6-7.6 5.6a4.8 4.8 0 0 1-3.5-1.1 3.6 3.6 0 0 1-1.4-3 6.1 6.1 0 0 1 1.1-3.5c.8-1 2.2-3.1 4.3-6.2a42.3 42.3 0 0 0 4.1-7.5 25.3 25.3 0 0 0 1.3-6.2zm-24.3 36.8a4.8 4.8 0 0 1-1.4-3.5 5.5 5.5 0 0 1 1.7-4.1 5.8 5.8 0 0 1 4-1.7 4.8 4.8 0 0 1 3.6 1.5 5 5 0 0 1 1.5 3.7 5.4 5.4 0 0 1-1.7 3.9 5.8 5.8 0 0 1-4.1 1.7 4.6 4.6 0 0 1-3.6-1.5zM1824.7 432.3l-2.9 2.2a2.4 2.4 0 0 0-1.2 1.8c0 .4 1 1.6 3 3.5a8.5 8.5 0 0 1 3 6.1c0 3.6-2.4 6.7-7.1 9.4a30.3 30.3 0 0 1-14.8 3.9 22.3 22.3 0 0 1-9.1-1.5c-2.1-1-3.2-2.4-3.2-4.2a6 6 0 0 1 1.1-3.7 3.9 3.9 0 0 1 3.3-1.4 12.9 12.9 0 0 1 3.9.8 13.5 13.5 0 0 0 4.3.8 21.5 21.5 0 0 0 7.9-1.2q3-1.1 3-3.3c0-1-1-2.3-3-3.6s-2.9-2.5-2.9-3.5c0-2.9 2.1-6.3 6.2-10.3a66 66 0 0 1 15.8-10.6c6.4-3.1 11.8-4.6 16.3-4.6s5.6.8 7.1 2.5a10.3 10.3 0 0 1 2.3 7.1 14.1 14.1 0 0 1-5.6 11.3 20.5 20.5 0 0 1-12.8 4.4 19.5 19.5 0 0 1-7.5-1.6 22.1 22.1 0 0 1-7.1-4.3zm22.6-10.6a2.5 2.5 0 0 0-1.3-.2 15.9 15.9 0 0 0-5.2 1.7 76.9 76.9 0 0 0-7.6 3.8 10.8 10.8 0 0 0 3 1.6 8.6 8.6 0 0 0 3.6.7 9.4 9.4 0 0 0 5.9-1.6 5.7 5.7 0 0 0 2.1-4.8 1.4 1.4 0 0 0-.5-1.2zm-15.1-12.9a5.1 5.1 0 0 1-1.4-3.6 5.6 5.6 0 0 1 5.7-5.7 5 5 0 0 1 3.7 1.5 5.2 5.2 0 0 1 1.4 3.6 5.6 5.6 0 0 1-1.7 4 5.7 5.7 0 0 1-4.1 1.6 4.8 4.8 0 0 1-3.6-1.4zm20.4 0a4.8 4.8 0 0 1-1.5-3.6 5.4 5.4 0 0 1 1.8-4.1 5.3 5.3 0 0 1 3.9-1.6 5 5 0 0 1 3.7 1.5 5.4 5.4 0 0 1-.3 7.6 5.5 5.5 0 0 1-4 1.6 4.5 4.5 0 0 1-3.6-1.4zm-9.1-13.5a4.8 4.8 0 0 1-1.4-3.5 6 6 0 0 1 5.7-5.8 5 5 0 0 1 3.7 1.5 5.3 5.3 0 0 1 1.4 3.7 5.4 5.4 0 0 1-1.7 3.9 5.7 5.7 0 0 1-4.1 1.7 4.9 4.9 0 0 1-3.6-1.5z" transform="translate(-.4 -.4)"/><path class="cls-3" d="M1193.8 657.1a7.3 7.3 0 0 1-.8 3.6 9.7 9.7 0 0 1-2.2 3 10.7 10.7 0 0 1-3.2 2 8 8 0 0 1-3.7.8 1.9 1.9 0 0 1-1.7-.6 5 5 0 0 1-.3-1.9 1.9 1.9 0 0 1 .1-.8 1.7 1.7 0 0 1 .1-.7l-2.4 1-2.2 1.2-2.3 1.4-3.2 2.3a24.9 24.9 0 0 0-2.9 2.5 3.4 3.4 0 0 0-1.2 2c0 .3.1.4.5.4h.6a8.3 8.3 0 0 0 2.2-.3l2.1-.7 2.1-.6a7.6 7.6 0 0 1 2.1-.3h1.1l.8.6.8 1.1.6 1.2a1.5 1.5 0 0 1 .2.9 2.2 2.2 0 0 1-.6 1.4l-1.3 1.1-1.3.8-1.3.6-1.4.4-1.4.6a9.1 9.1 0 0 1-1.6 1l-2.4 1.4-2.7 1.7-2.6 1.9-1.9 1.7a3.3 3.3 0 0 0-.7 1.5 3.2 3.2 0 0 0 .8 2.3 4.5 4.5 0 0 0 1.9 1.4 8.4 8.4 0 0 0 2.4.6h2.4a14.6 14.6 0 0 0 6.1-1.3 29.6 29.6 0 0 0 5.8-3.1c1.8-1.2 3.5-2.5 5.1-3.8s3.1-2.5 4.4-3.5l.6-.4.7-.2a.9.9 0 0 1 .8.6 5 5 0 0 1 .5 1.3c0 .5.1 1 .1 1.5v2.9a4.7 4.7 0 0 1-.4 1.4 3.6 3.6 0 0 1-.8 1.2 9.2 9.2 0 0 1-1.4 1.3c-1.4 1.1-2.9 2.3-4.6 3.4a36.5 36.5 0 0 1-5.4 3.2 36.1 36.1 0 0 1-6.2 2.4 25.2 25.2 0 0 1-6.7.9 32.7 32.7 0 0 1-5.3-.5 16.3 16.3 0 0 1-5-1.6 10.8 10.8 0 0 1-3.8-3.2 8.5 8.5 0 0 1-1.5-5.1 8.8 8.8 0 0 1 1-4.3 12.7 12.7 0 0 1 2.4-3.3 14.8 14.8 0 0 1 3.5-2.5 33.9 33.9 0 0 1 3.9-1.8 5.2 5.2 0 0 1-1.9-1.2 4 4 0 0 1-1-1.5 9.5 9.5 0 0 1-.4-1.8c0-.6-.1-1.3-.1-2.1a10.4 10.4 0 0 1 1.5-5.3 16.4 16.4 0 0 1 3.8-4.6 24.7 24.7 0 0 1 5.4-3.8 37.7 37.7 0 0 1 6.1-2.9 54.5 54.5 0 0 1 6.2-1.9 27.8 27.8 0 0 1 5.4-.6 6.2 6.2 0 0 1 1.8.2l1.8.6a4.2 4.2 0 0 1 1.5 1.1 2 2 0 0 1 .6 1.8z" transform="translate(-.4 -.4)"/><path class="cls-3" d="M1237 656.4a12.6 12.6 0 0 1-.4 2.7 6.8 6.8 0 0 1-1 2.1 7.8 7.8 0 0 1-1.6 1.5 16.4 16.4 0 0 1-2.2 1.4 13.9 13.9 0 0 1-2.6 1 8.7 8.7 0 0 1-2.6.4c-.5 0-.9 0-1.1-.2a.6.6 0 0 1-.6-.3c-.2-.1-.3-.3-.4-.4l-.5-.4a.8.8 0 0 1-.4-.4 1.4 1.4 0 0 1-.2-.7 1.4 1.4 0 0 1 .2-.6l.3-.5.5-.7a1.9 1.9 0 0 0 .4-.9 24.5 24.5 0 0 0-5.3.9l-5 1.9a47.6 47.6 0 0 0-4.5 2.4l-3.5 2.5a13.5 13.5 0 0 0-2.4 2.2 3.1 3.1 0 0 0-.9 1.5c0 .5.6.9 1.7 1.2l4.3.9 6.2 1.3a43.8 43.8 0 0 1 7.1 2.6 11.4 11.4 0 0 1 2.3 1.5 9.5 9.5 0 0 1 1.6 1.9 6.2 6.2 0 0 1 1 2 6.2 6.2 0 0 1 .3 1.8 8.5 8.5 0 0 1-1.3 4.7 15.4 15.4 0 0 1-3.6 4.1 25.5 25.5 0 0 1-5 3.3 60.7 60.7 0 0 1-5.9 2.4 47.3 47.3 0 0 1-5.9 1.6 37.4 37.4 0 0 1-5.3.5 17.9 17.9 0 0 1-5.1-.7 8.5 8.5 0 0 1-3.3-1.7 4.4 4.4 0 0 1-1.8-2.1 5.3 5.3 0 0 1-.6-2.3 13.5 13.5 0 0 1 .4-2.9 15.6 15.6 0 0 1 1.1-2.6 5 5 0 0 1 1.5-1.7 2.7 2.7 0 0 1 1.7-.6h1.9a1 1 0 0 1 .8 1.1v.9a3.2 3.2 0 0 0 .3 1.4 4.3 4.3 0 0 0 .9 1 2.8 2.8 0 0 0 .9.7l.9.3a36.6 36.6 0 0 0 6.8-.6 33.3 33.3 0 0 0 5.5-1.5 14.3 14.3 0 0 0 3.7-2 2.8 2.8 0 0 0 1.3-2c0-.5-.4-1-1.3-1.4l-3.5-1.2-4.9-1.1-5.5-1.5-2.8-1a7.7 7.7 0 0 1-2.5-1.4 6.2 6.2 0 0 1-1.9-2.3 5.9 5.9 0 0 1-.7-3.1 11.4 11.4 0 0 1 1.9-6.4 21.6 21.6 0 0 1 5.1-5.4 34.2 34.2 0 0 1 6.9-4.5 73.5 73.5 0 0 1 7.7-3.2 57.2 57.2 0 0 1 7.2-2.1 32.9 32.9 0 0 1 5.5-.7 12.8 12.8 0 0 1 4.8.7 5.4 5.4 0 0 1 2.4 1.4 3.3 3.3 0 0 1 .9 1.6c0 .5.1.9.1 1.2zM1280.3 661.7a16.5 16.5 0 0 1-.8 4.4 30.5 30.5 0 0 1-2.4 5.9 61.1 61.1 0 0 1-3.6 6.5 73.7 73.7 0 0 1-4.7 6.7 66.6 66.6 0 0 1-5.6 6.2 48.8 48.8 0 0 1-6.2 5.2 28.1 28.1 0 0 1-6.6 3.5 17.9 17.9 0 0 1-6.8 1.3 6.7 6.7 0 0 1-4.4-1.5 6.4 6.4 0 0 1-1.8-5c-1.8 2.9-3.7 5.8-5.6 8.7l-5.4 8.5c-1.8 2.8-3.4 5.5-4.9 7.9l-4.1 6.6-2.9 4.6c-.8 1.2-1.2 1.9-1.4 2.1s-1 1.1-1.4 1.1a1.8 1.8 0 0 1-.8-.4 3.1 3.1 0 0 1-1.3-.9 4.4 4.4 0 0 1-1.3-1.4 4.8 4.8 0 0 1-.7-2.1 12.3 12.3 0 0 1 .3-2.9 11.2 11.2 0 0 1 1.1-2.6l1.9-3 4.1-6.7c1.7-2.8 3.6-6 5.8-9.5l6.9-11.3 7.5-12.1q3.8-6.2 7.5-12l7-11.2 5.9-9.3 4.3-6.4a19 19 0 0 1 2.2-2.7l1.1-.6h3a1.1 1.1 0 0 1 .8.3 4.8 4.8 0 0 1 .6 1.4l.4.8a2 2 0 0 1 .1.7 2.9 2.9 0 0 1-.2.9 7.7 7.7 0 0 1-.9 1.3l-16.2 24.6a101.9 101.9 0 0 1 8.2-7l3.7-2.5a25.6 25.6 0 0 1 3.9-2.2 21.4 21.4 0 0 1 3.9-1.6 11.2 11.2 0 0 1 3.5-.6 6.1 6.1 0 0 1 4.7 1.8 6.5 6.5 0 0 1 1.6 4.5zm-10.1 3.6a1.4 1.4 0 0 0-.3-.9 1.1 1.1 0 0 0-.8-.3 6.4 6.4 0 0 0-3.2 1.3 47.2 47.2 0 0 0-4.5 3.5 58.9 58.9 0 0 0-5.5 4.9c-2 1.8-3.9 3.7-5.8 5.7s-3.7 3.9-5.3 5.8l-4.4 5.3a5 5 0 0 0 4 1.9 11.2 11.2 0 0 0 5.1-1.5 31.4 31.4 0 0 0 5.7-3.8 45.3 45.3 0 0 0 5.5-5.3 51.7 51.7 0 0 0 4.8-5.9 36.2 36.2 0 0 0 3.4-5.8 11.9 11.9 0 0 0 1.3-4.9zM1325.6 658.6a4.5 4.5 0 0 1-.5 2 14.5 14.5 0 0 1-1.3 2.9 24.8 24.8 0 0 1-1.8 3.1c-.7 1.1-1.3 2.2-2 3.2l-1.8 2.8-1.5 2a8.6 8.6 0 0 1-1.4 1.3 3.2 3.2 0 0 1-1.8.5 3.2 3.2 0 0 1-2.8-1.4 5.4 5.4 0 0 1-1-3 10 10 0 0 1 .4-2.4 16 16 0 0 1 1-2.3 10.2 10.2 0 0 1 1.4-2.2 13.3 13.3 0 0 1 1.4-1.9h-.1a5.7 5.7 0 0 0-2.4 1.3 40.5 40.5 0 0 0-3.7 3.1l-4.5 4.2c-1.6 1.5-3 3-4.4 4.5l-3.7 3.8-2.4 2.5-6.2 7.2-5.7 7.4a6.1 6.1 0 0 1-1.6 1.6 2.6 2.6 0 0 1-1.9.9l-1.1-.2-1.6-.6-1.5-.6-1-.6c-.2-.1-.3-.2-.3-.4a.7.7 0 0 1-.1-.5 3.4 3.4 0 0 1 .4-1.6 10.7 10.7 0 0 1 .9-1.9 17.4 17.4 0 0 1 1.1-1.8l1-1.7 7.4-12.6c2.5-4.1 4.9-8.3 7.4-12.5a43.6 43.6 0 0 0 2.4-4.1 26.5 26.5 0 0 1 2.6-3.9 8.2 8.2 0 0 1 3.9-2.6 19.8 19.8 0 0 1 4.7-.7 1 1 0 0 1 1.1.8 4 4 0 0 1 .3 1.5 6.4 6.4 0 0 1-.9 2.7c-.6 1.2-1.3 2.5-2.1 3.8l-2.5 3.7-1.8 2.8c1.3-1.5 2.8-3.1 4.6-4.9a53.1 53.1 0 0 1 5.6-4.9 32.6 32.6 0 0 1 6.1-3.8 15 15 0 0 1 6.4-1.5 5.5 5.5 0 0 1 3.8 1.3 4.9 4.9 0 0 1 1.5 3.7zM1358.5 657.1a7.4 7.4 0 0 1-.9 3.6 8.4 8.4 0 0 1-2.2 3 9.6 9.6 0 0 1-3.2 2 7.8 7.8 0 0 1-3.6.8c-.9 0-1.5-.2-1.7-.6a3.6 3.6 0 0 1-.4-1.9 1.9 1.9 0 0 1 .1-.8 1.9 1.9 0 0 1 .2-.7l-2.4 1-2.3 1.2-2.3 1.4-3.2 2.3a37.4 37.4 0 0 0-2.9 2.5 3.4 3.4 0 0 0-1.2 2c0 .3.2.4.5.4h.6a7.8 7.8 0 0 0 2.2-.3l2.1-.7 2.1-.6 2.1-.3h1.1a2.1 2.1 0 0 1 .8.6 7.6 7.6 0 0 1 .8 1.1 7.5 7.5 0 0 1 .7 1.2 2.9 2.9 0 0 1 .2.9 1.9 1.9 0 0 1-.7 1.4l-1.3 1.1-1.2.8-1.4.6-1.4.4-1.3.6-1.7 1-2.4 1.4-2.7 1.7-2.6 1.9-1.8 1.7a2.8 2.8 0 0 0-.8 1.5 3.2 3.2 0 0 0 .8 2.3 4.5 4.5 0 0 0 1.9 1.4 10.5 10.5 0 0 0 2.4.6h2.5a14.9 14.9 0 0 0 6.1-1.3 32 32 0 0 0 5.7-3.1c1.8-1.2 3.5-2.5 5.1-3.8l4.4-3.5.6-.4.7-.2a.8.8 0 0 1 .8.6 5 5 0 0 1 .5 1.3c.1.5.1 1 .2 1.5v1.1a9.7 9.7 0 0 1-.1 1.8 4.7 4.7 0 0 1-.4 1.4 2.5 2.5 0 0 1-.8 1.2 9.2 9.2 0 0 1-1.4 1.3 45.8 45.8 0 0 1-4.6 3.4 36.5 36.5 0 0 1-5.4 3.2 33.2 33.2 0 0 1-6.2 2.4 25.2 25.2 0 0 1-6.7.9 32.7 32.7 0 0 1-5.3-.5 16.3 16.3 0 0 1-5-1.6 10.8 10.8 0 0 1-3.8-3.2 8.5 8.5 0 0 1-1.5-5.1 8.8 8.8 0 0 1 1-4.3 12.7 12.7 0 0 1 2.4-3.3 14.8 14.8 0 0 1 3.5-2.5 33.9 33.9 0 0 1 3.9-1.8 4.1 4.1 0 0 1-1.8-1.2 3.1 3.1 0 0 1-1-1.5 3.7 3.7 0 0 1-.4-1.8 12.5 12.5 0 0 1-.2-2.1 10.4 10.4 0 0 1 1.5-5.3 18.3 18.3 0 0 1 3.8-4.6 27.3 27.3 0 0 1 5.4-3.8 35 35 0 0 1 6.2-2.9 47.6 47.6 0 0 1 6.1-1.9 29.6 29.6 0 0 1 5.5-.6 5.9 5.9 0 0 1 1.7.2 7 7 0 0 1 1.9.6 4.9 4.9 0 0 1 1.4 1.1 1.8 1.8 0 0 1 .7 1.8z" transform="translate(-.4 -.4)"/><path class="cls-3" d="M1401.6 656.4a8.4 8.4 0 0 1-.4 2.7 5.1 5.1 0 0 1-1 2.1 5.9 5.9 0 0 1-1.6 1.5 11.8 11.8 0 0 1-2.2 1.4 11.7 11.7 0 0 1-2.6 1 8.2 8.2 0 0 1-2.6.4 1.8 1.8 0 0 1-1.1-.2.6.6 0 0 1-.6-.3c-.2-.1-.3-.3-.4-.4a1 1 0 0 0-.5-.4.8.8 0 0 1-.4-.4 1.5 1.5 0 0 1-.1-.7 1.3 1.3 0 0 1 .1-.6l.4-.5.4-.7a1.9 1.9 0 0 0 .4-.9 23.6 23.6 0 0 0-5.2.9c-1.8.6-3.5 1.2-5.1 1.9a36.2 36.2 0 0 0-4.4 2.4 43.7 43.7 0 0 0-3.6 2.5 28.5 28.5 0 0 0-2.4 2.2 2.7 2.7 0 0 0-.8 1.5c0 .5.5.9 1.6 1.2l4.4.9 6.1 1.3a43.8 43.8 0 0 1 7.1 2.6 9.1 9.1 0 0 1 2.3 1.5 10.1 10.1 0 0 1 1.7 1.9 8.8 8.8 0 0 1 .9 2 4.2 4.2 0 0 1 .4 1.8 8.6 8.6 0 0 1-1.4 4.7 15.4 15.4 0 0 1-3.6 4.1 22.8 22.8 0 0 1-5 3.3 60.7 60.7 0 0 1-5.9 2.4 47.3 47.3 0 0 1-5.9 1.6 36.1 36.1 0 0 1-5.3.5 18.5 18.5 0 0 1-5.1-.7 8.5 8.5 0 0 1-3.3-1.7 6 6 0 0 1-1.8-2.1 6.8 6.8 0 0 1-.5-2.3 9.2 9.2 0 0 1 .4-2.9 10 10 0 0 1 1-2.6 6.3 6.3 0 0 1 1.5-1.7 2.9 2.9 0 0 1 1.7-.6h1.9c.6.2.9.5.9 1.1v.4a.9.9 0 0 0-.1.5 2.3 2.3 0 0 0 .4 1.4 3.9 3.9 0 0 0 .8 1 2.3 2.3 0 0 0 1 .7l.9.3a35.5 35.5 0 0 0 6.7-.6 33.3 33.3 0 0 0 5.5-1.5 12.8 12.8 0 0 0 3.7-2 2.8 2.8 0 0 0 1.3-2c0-.5-.4-1-1.3-1.4a23.2 23.2 0 0 0-3.5-1.2l-4.8-1.1a49.4 49.4 0 0 1-5.5-1.5l-2.9-1a7.7 7.7 0 0 1-2.5-1.4 6.2 6.2 0 0 1-1.9-2.3 5.9 5.9 0 0 1-.7-3.1 11.5 11.5 0 0 1 2-6.4 21.2 21.2 0 0 1 5-5.4 34.2 34.2 0 0 1 6.9-4.5c2.6-1.2 5.1-2.3 7.7-3.2a57.2 57.2 0 0 1 7.2-2.1 34.2 34.2 0 0 1 5.5-.7 12.2 12.2 0 0 1 4.8.7 5.4 5.4 0 0 1 2.4 1.4 3.3 3.3 0 0 1 .9 1.6 5.7 5.7 0 0 1 .1 1.2zM1441.9 656.4a8.4 8.4 0 0 1-.4 2.7 7.2 7.2 0 0 1-.9 2.1 7.8 7.8 0 0 1-1.6 1.5 12.8 12.8 0 0 1-2.3 1.4 11.7 11.7 0 0 1-2.6 1 7.8 7.8 0 0 1-2.6.4 1.5 1.5 0 0 1-1-.2.9.9 0 0 1-.7-.3l-.4-.4a.8.8 0 0 0-.4-.4.8.8 0 0 1-.4-.4 1.4 1.4 0 0 1-.2-.7 1.4 1.4 0 0 1 .2-.6l.3-.5.5-.7a3.9 3.9 0 0 0 .4-.9 23.5 23.5 0 0 0-5.3.9l-5 1.9a47.6 47.6 0 0 0-4.5 2.4l-3.6 2.5a16.6 16.6 0 0 0-2.3 2.2 3.1 3.1 0 0 0-.9 1.5c0 .5.6.9 1.7 1.2l4.3.9 6.2 1.3a47.6 47.6 0 0 1 7.1 2.6 11.4 11.4 0 0 1 2.3 1.5 9.5 9.5 0 0 1 1.6 1.9 9.3 9.3 0 0 1 1 2 6.2 6.2 0 0 1 .3 1.8 8.5 8.5 0 0 1-1.3 4.7 15.4 15.4 0 0 1-3.6 4.1 28.9 28.9 0 0 1-5 3.3c-2 .9-3.9 1.7-5.9 2.4a44.4 44.4 0 0 1-6 1.6 34.9 34.9 0 0 1-5.2.5 17.4 17.4 0 0 1-5.1-.7 9.8 9.8 0 0 1-3.4-1.7 4.8 4.8 0 0 1-1.7-2.1 5.3 5.3 0 0 1-.6-2.3 9.2 9.2 0 0 1 .4-2.9 10.2 10.2 0 0 1 1.1-2.6 5 5 0 0 1 1.5-1.7 2.7 2.7 0 0 1 1.7-.6h1.9a1.1 1.1 0 0 1 .8 1.1v.9a3.2 3.2 0 0 0 .3 1.4 2.8 2.8 0 0 0 .9 1 2.8 2.8 0 0 0 .9.7l.9.3a37.4 37.4 0 0 0 6.8-.6 36.3 36.3 0 0 0 5.5-1.5 12.1 12.1 0 0 0 3.6-2c.9-.7 1.4-1.4 1.4-2s-.4-1-1.3-1.4l-3.5-1.2-4.9-1.1-5.5-1.5-2.8-1a8.2 8.2 0 0 1-2.6-1.4 7.5 7.5 0 0 1-2.6-5.4 11.5 11.5 0 0 1 2-6.4 21.6 21.6 0 0 1 5.1-5.4 34.2 34.2 0 0 1 6.9-4.5 73.5 73.5 0 0 1 7.7-3.2 61.2 61.2 0 0 1 7.1-2.1 35.7 35.7 0 0 1 5.5-.7 12.2 12.2 0 0 1 4.8.7 5.9 5.9 0 0 1 2.5 1.4 2.4 2.4 0 0 1 .8 1.6 5.7 5.7 0 0 1 .1 1.2zM1482.4 662.3a18.3 18.3 0 0 1-1.6 6.8 47.1 47.1 0 0 1-4.3 8.3 69 69 0 0 1-6.3 8.5 79.5 79.5 0 0 1-7.8 7.6 45.2 45.2 0 0 1-8.3 5.4 19.3 19.3 0 0 1-8.4 2.1 9.6 9.6 0 0 1-3.8-.8 10 10 0 0 1-2.9-2 9.7 9.7 0 0 1-2.6-6.6 28.5 28.5 0 0 1 1.8-10 41.7 41.7 0 0 1 4.4-9 47.6 47.6 0 0 1 6.4-7.7 55.2 55.2 0 0 1 7.1-6 51.7 51.7 0 0 1 7.2-3.9 17.2 17.2 0 0 1 6.1-1.3 8 8 0 0 1 2.3.3l1.6.6 1 .8c.2.3.4.5.4.7v.4l1.1-.2h.8a7.1 7.1 0 0 1 2 .4 6.9 6.9 0 0 1 1.9 1 7.2 7.2 0 0 1 1.4 1.9 6.8 6.8 0 0 1 .5 2.7zm-11.4 1.6a2 2 0 0 1-1.4-.6c-.4-.4-.5-1.1-.5-2.3a20.5 20.5 0 0 0-4.1 1.8 35.9 35.9 0 0 0-4.4 2.8 37.8 37.8 0 0 0-4.3 3.8 60.3 60.3 0 0 0-4.2 4.5 41.4 41.4 0 0 0-5.3 8.9 20.4 20.4 0 0 0-1.9 6.7 4.2 4.2 0 0 0 .7 2.3 1.9 1.9 0 0 0 1.7.8 6.7 6.7 0 0 0 2.6-.7 16.5 16.5 0 0 0 3.8-2.1 39.6 39.6 0 0 0 4.7-3.6 55.8 55.8 0 0 0 5-5.5 65.9 65.9 0 0 0 6.8-10c1.3-2.7 2-4.6 2-5.7s-.2-1.1-.8-1.1z" transform="translate(-.4 -.4)"/><path class="cls-2" d="m624.6 598.5 15.6-15.5v-24.3l-14.5-14.5h-35.2l-11.3-11.3v-19.8l12.1-12.1h29.3l12 12.1v17.1h6.3v-19.3l-15.6-15.6h-34.9l-15.6 15.6v24.3l14.5 14.4h35.2l11.3 11.3v19.8l-12 12.1H590l-12.1-12.1v-17.1h-6.3V583l15.5 15.5zM698.9 598.5v-5.7h-12.4l2.9 2.9v-97.5l-2.9 2.8h38.6l12.1 12.1v28.7l-12.1 12.1h-37.3v5.7H728l15.5-15.5v-33.2L728 495.3h-54.5v5.7h12.4l-2.9-2.8v97.5l2.9-2.9h-12.4v5.7zM827.1 598.5l15.5-15.5v-72.1l-15.5-15.6h-41l-15.6 15.6V583l15.6 15.5zm-50.2-17.8v-67.6L789 501h35.2l12.1 12.1v67.6l-12.1 12.1H789zM955.8 598.5v-5.7H945l5 3.2-22.6-41.9-6.5.8 22.2 41.1 1-3.2h-13.3v5.7zm-54.4 0v-5.7H889l2.9 2.9v-97.5L889 501h37l15.2 15.3v20.3L926 551.8h-35.7v5.4h38.6l18.7-18.7V514l-18.7-18.7H876v5.7h12.4l-2.9-2.8v97.5l2.9-2.9H876v5.7zM1028.9 598.5v-5.7h-17.2l2.9 2.9v-97.5l-2.9 2.8h35.9l-2.8-2.8v26.6h6.3v-29.5h-79.4v29.5h6.4v-26.6l-2.9 2.8h35.9l-2.9-2.8v97.5l2.9-2.9H994v5.7zM1127.2 598.5l15.5-15.5v-24.3l-14.4-14.5H1093l-11.2-11.3v-19.8l12-12.1h29.4l11.9 12.1v17.1h6.4v-19.3l-15.6-15.6H1091l-15.6 15.6v24.3l14.5 14.4h35.2l11.3 11.3v19.8l-12.1 12.1h-31.7l-12.1-12.1v-17.1h-6.4V583l15.6 15.5zM828.3 652.5a24.5 24.5 0 0 0-8.5 1.5 19.7 19.7 0 0 0-7.2 4.6 22.3 22.3 0 0 0-5 7.7 30.7 30.7 0 0 0-1.8 11.1 30.3 30.3 0 0 0 1.4 9.3 21 21 0 0 0 4.1 7.5 16.7 16.7 0 0 0 6.5 4.9 21.1 21.1 0 0 0 8.9 1.8 22.6 22.6 0 0 0 6.9-1 13.8 13.8 0 0 0 5.3-2.6l4.7-6.7-1.2-13.4a25.1 25.1 0 0 1-1.2 8.3 14.5 14.5 0 0 1-3.2 5.6 12.3 12.3 0 0 1-4.7 3.2 16.1 16.1 0 0 1-5.4.9 12.4 12.4 0 0 1-10.5-5.5 18.8 18.8 0 0 1-2.6-5.9 33.3 33.3 0 0 1-.8-7.3 26.9 26.9 0 0 1 1.1-7.9 16.8 16.8 0 0 1 3-5.8 14.4 14.4 0 0 1 4.6-3.5 14.7 14.7 0 0 1 5.6-1.1 14.3 14.3 0 0 1 5 .9 13.2 13.2 0 0 1 4.6 2.9 16.1 16.1 0 0 1 3.3 5.1 21.1 21.1 0 0 1 1.2 7.5l1.5-12.3-4.6-6.8a11.2 11.2 0 0 0-4.9-2.2 22.8 22.8 0 0 0-6.1-.8zm14.1-16.6v63.8h7.4v-63.8zM863 653.7v46h7.4v-46zm3.7-15.1a4.8 4.8 0 0 0-3.4 1.4 4.6 4.6 0 0 0-1.4 3.4 4.9 4.9 0 0 0 1.4 3.4 5.1 5.1 0 0 0 6.8 0 4.9 4.9 0 0 0 1.4-3.4 4.6 4.6 0 0 0-1.4-3.4 4.8 4.8 0 0 0-3.4-1.4zM897.1 652.5a21.1 21.1 0 0 0-6.4.9 15.3 15.3 0 0 0-5.1 2.6 12.4 12.4 0 0 0-3.2 4.3 13.1 13.1 0 0 0-1.2 5.6 10.9 10.9 0 0 0 1.2 5.3 12.6 12.6 0 0 0 3.1 3.8 18 18 0 0 0 4.7 2.7c1.8.7 3.8 1.4 5.9 2a35.3 35.3 0 0 1 4.9 1.6 15.2 15.2 0 0 1 3.4 1.9 6.1 6.1 0 0 1 1.9 2.4 6.5 6.5 0 0 1 .6 2.9 5.4 5.4 0 0 1-.7 2.9 4.8 4.8 0 0 1-1.9 2.1 8.6 8.6 0 0 1-2.9 1.3 12.7 12.7 0 0 1-3.4.4 15.2 15.2 0 0 1-3.8-.5 8.9 8.9 0 0 1-3.1-1.5 7.3 7.3 0 0 1-2.4-2.8 11.5 11.5 0 0 1-1.5-4.2h-7.8a17 17 0 0 0 2.1 6.7 14.5 14.5 0 0 0 3.9 4.6 14.3 14.3 0 0 0 5.4 2.6 23.9 23.9 0 0 0 6.6.8 24.4 24.4 0 0 0 6.8-.8 16.3 16.3 0 0 0 5.5-2.5 10.4 10.4 0 0 0 3.5-4 11.7 11.7 0 0 0 1.4-5.7 14.2 14.2 0 0 0-1-5.2 11.4 11.4 0 0 0-2.9-4.1 22.1 22.1 0 0 0-4.8-3.1 44.2 44.2 0 0 0-7-2.3l-4.2-1.3a19.1 19.1 0 0 1-3.2-1.7 7 7 0 0 1-2-2.2 6.5 6.5 0 0 1-.7-2.9 6.7 6.7 0 0 1 .6-2.8 5.9 5.9 0 0 1 1.4-2.2 5.6 5.6 0 0 1 2.3-1.4 11.6 11.6 0 0 1 3.4-.5 9.2 9.2 0 0 1 6.5 2.3 11.2 11.2 0 0 1 3.2 6.3h7.8a18.4 18.4 0 0 0-1.5-5.8 16.7 16.7 0 0 0-3.4-4.5 14.4 14.4 0 0 0-5.1-3 20.9 20.9 0 0 0-6.9-1zM941.4 652.5a23.1 23.1 0 0 0-8.3 1.5 19.1 19.1 0 0 0-6.8 4.8 24 24 0 0 0-4.8 7.7 27.5 27.5 0 0 0-1.7 10.3 35.4 35.4 0 0 0 1.5 10.9 21.3 21.3 0 0 0 4.4 7.5 16.3 16.3 0 0 0 6.5 4.4 23.7 23.7 0 0 0 8.1 1.3 24.6 24.6 0 0 0 7.2-1 18.1 18.1 0 0 0 5.9-2.9 17.8 17.8 0 0 0 4.4-5 23.6 23.6 0 0 0 2.6-6.9h-7.8a19.2 19.2 0 0 1-1.7 4.4 10 10 0 0 1-2.6 3.1 8.4 8.4 0 0 1-3.3 1.9 12.5 12.5 0 0 1-4.3.7 11.7 11.7 0 0 1-4.9-1.1 9.9 9.9 0 0 1-4-3.4 16.5 16.5 0 0 1-2.8-5.8 31 31 0 0 1-1.1-8.6 27.8 27.8 0 0 1 1.1-8.1 16.3 16.3 0 0 1 2.8-5.6 12.1 12.1 0 0 1 4.3-3.3 12.6 12.6 0 0 1 5.1-1.1 11.1 11.1 0 0 1 7.7 2.7c1.9 1.8 3.3 4.6 4.1 8.3h7.8a20.6 20.6 0 0 0-2-6.9 21.1 21.1 0 0 0-4-5.3 20.2 20.2 0 0 0-5.9-3.4 24.7 24.7 0 0 0-7.5-1.1zM988.6 658.2a15.2 15.2 0 0 1 6.2 1.3 14 14 0 0 1 4.6 3.8 21.6 21.6 0 0 1 2.9 5.9 29.7 29.7 0 0 1 .9 7.5 28.9 28.9 0 0 1-.9 7.4 19.1 19.1 0 0 1-2.9 5.9 14 14 0 0 1-4.6 3.8 12.6 12.6 0 0 1-6.2 1.4v5.7a24.8 24.8 0 0 0 10.2-1.9 19.7 19.7 0 0 0 7-5.3 21 21 0 0 0 4.2-7.8 30.6 30.6 0 0 0 1.4-9.2 32.2 32.2 0 0 0-1.4-9.3 21.4 21.4 0 0 0-4.2-7.7 19.7 19.7 0 0 0-7-5.3 24.8 24.8 0 0 0-10.2-1.9zm0-5.7a24.8 24.8 0 0 0-10.2 1.9 19.2 19.2 0 0 0-7.1 5.3 21.4 21.4 0 0 0-4.2 7.7 32.2 32.2 0 0 0-1.4 9.3 30.6 30.6 0 0 0 1.4 9.2 21 21 0 0 0 4.2 7.8 19.2 19.2 0 0 0 7.1 5.3 24.8 24.8 0 0 0 10.2 1.9v-5.7a13.3 13.3 0 0 1-10.8-5.2 17.1 17.1 0 0 1-2.9-5.9 25 25 0 0 1-1-7.4 25.7 25.7 0 0 1 1-7.5 19.1 19.1 0 0 1 2.9-5.9 12.2 12.2 0 0 1 4.6-3.8 14.9 14.9 0 0 1 6.2-1.3zM1050.2 653.7l-14.6 42.7h1.5l-14.8-42.6h-8.2l17.4 46h9.2l17.4-46zM1082.4 652.5a22 22 0 0 0-8.6 1.6 18.7 18.7 0 0 0-7 5 22.4 22.4 0 0 0-4.6 7.6 29.5 29.5 0 0 0-1.6 10.2l7.9-.6a25.7 25.7 0 0 1 1.1-7.8 15.2 15.2 0 0 1 2.8-5.7 13.3 13.3 0 0 1 4.3-3.5 14.3 14.3 0 0 1 5.6-1.1 11.3 11.3 0 0 1 5.4 1.2 9.6 9.6 0 0 1 3.9 3.6 18.4 18.4 0 0 1 2.3 5.7 36.7 36.7 0 0 1 .8 7.8l3-3.3h-32.4v5.8h36.7a19.9 19.9 0 0 0 .2-2.2v-1.4a34.8 34.8 0 0 0-1.3-9.3 20.8 20.8 0 0 0-3.9-7.2 18.1 18.1 0 0 0-6.1-4.8 20.8 20.8 0 0 0-8.5-1.6zm-21.8 24.4a31.1 31.1 0 0 0 1.6 10.6 21.1 21.1 0 0 0 4.3 7.5 18.5 18.5 0 0 0 6.6 4.5 23.2 23.2 0 0 0 8.4 1.4 25.4 25.4 0 0 0 6.8-.9 17.4 17.4 0 0 0 6.1-3 15.5 15.5 0 0 0 4.6-4.9 21.1 21.1 0 0 0 2.6-7.2h-7.9a11.5 11.5 0 0 1-1.4 4.3 9.8 9.8 0 0 1-2.6 3.3 10.7 10.7 0 0 1-3.6 2 12.1 12.1 0 0 1-4.3.7 14.4 14.4 0 0 1-5.1-.9 10.1 10.1 0 0 1-4.2-3.3 13.7 13.7 0 0 1-2.9-5.8 32.2 32.2 0 0 1-1.1-8.9zM1112.1 653.7v46h7.4v-46zm18-1a9.5 9.5 0 0 0-3.3.5 17.7 17.7 0 0 0-3.1 1.5l-4.5 6.7.3 12.1a19.8 19.8 0 0 1 1.1-6.8 13.7 13.7 0 0 1 2.8-4.7 12 12 0 0 1 4.4-2.5 16.3 16.3 0 0 1 5.5-.6v-5.6l-1.4-.6z" transform="translate(-.4 -.4)"/><path class="cls-3" d="M887.6 143.5a5.5 5.5 0 0 1-3.6-1.3 5.4 5.4 0 0 1-1.8-3.4 5.1 5.1 0 0 1 .9-4.1 5.7 5.7 0 0 1 3.6-2.2 35.6 35.6 0 0 0 9.7-3.6 44.1 44.1 0 0 0 10.3-8c7.9-8.4 11.9-18.9 12.1-31.5a12.5 12.5 0 0 0 .2-2.1v-2.1a1.3 1.3 0 0 0-.2-.8v-1a2.9 2.9 0 0 0-.6-1.5 2.9 2.9 0 0 0-2.1-.8h-36.2a3.9 3.9 0 0 0-1.7 1.3 2.8 2.8 0 0 0-.9 2v14.1a4.9 4.9 0 0 1-1.6 3.8 5.4 5.4 0 0 1-3.9 1.7 5.4 5.4 0 0 1-4-1.7 5 5 0 0 1-1.7-3.8V84.4c0-3.7 1.5-7.1 4.5-10.4s5.9-4 9-4h12.3V56.5a5.6 5.6 0 0 1 1.7-4 5.8 5.8 0 0 1 4-1.6 5.7 5.7 0 0 1 3.9 1.6 5.9 5.9 0 0 1 1.6 4V70h13a13.1 13.1 0 0 1 10.3 4.4 13.6 13.6 0 0 1 3.6 9 2.2 2.2 0 0 1 .1 1v2.9a17.7 17.7 0 0 1-.1 2.3c-.4 15.4-5.5 28.3-15.3 38.8a47.3 47.3 0 0 1-13.2 10.3 52.1 52.1 0 0 1-6.4 3 27.1 27.1 0 0 1-6.6 1.8zM952 137.8a5.4 5.4 0 0 1-3.9-1.6 5 5 0 0 1-1.7-3.8 5.8 5.8 0 0 1 1.7-4.1 5.6 5.6 0 0 1 3.9-1.5h21.1v-43h-18.2a5.1 5.1 0 0 1-4-1.7 5 5 0 0 1-1.6-3.9 5.3 5.3 0 0 1 1.6-3.9 5.4 5.4 0 0 1 4-1.6h47a5.5 5.5 0 0 1 4 1.6 5.3 5.3 0 0 1 1.6 3.9 5 5 0 0 1-1.6 3.9 5.2 5.2 0 0 1-4 1.7h-17.7v43h21a5.9 5.9 0 0 1 4.1 1.5 6.2 6.2 0 0 1 1.6 4.1 5.3 5.3 0 0 1-1.6 3.8 5.6 5.6 0 0 1-4.1 1.6zM1072.9 138.2a5.6 5.6 0 0 1-1.5 3.9 6 6 0 0 1-4 1.5 5.3 5.3 0 0 1-3.9-1.5 5 5 0 0 1-1.7-3.9V99.6c-2.2 2.9-4.4 5.6-6.7 8.2a103.9 103.9 0 0 1-7.2 7.8 76.1 76.1 0 0 1-6.7 6.4c-2.1 1.8-3.9 3.2-5.4 4.3a5.9 5.9 0 0 1-3.1.9 5.4 5.4 0 0 1-4.7-2.6 5.1 5.1 0 0 1-.7-4.2 5 5 0 0 1 2.4-3.4q6.5-4.2 17.1-16.5a116.8 116.8 0 0 0 13.4-18.5h-27.5a4.7 4.7 0 0 1-3.8-1.7 5.3 5.3 0 0 1 0-7.8 4.9 4.9 0 0 1 3.8-1.6h29.1V56.1a5 5 0 0 1 1.7-3.9 5.4 5.4 0 0 1 3.9-1.7 5.8 5.8 0 0 1 4 1.7 5.6 5.6 0 0 1 1.5 3.9v14.8h12.9a5.5 5.5 0 0 1 5.5 5.5 5.6 5.6 0 0 1-5.5 5.6h-12.9zM1113.3 79.8a5.4 5.4 0 0 1-4-1.7 5.7 5.7 0 0 1-1.7-4.1 5.6 5.6 0 0 1 5.7-5.5h12.4V55a5.3 5.3 0 0 1 1.6-3.9 5.1 5.1 0 0 1 4-1.7 5 5 0 0 1 3.9 1.7 5.3 5.3 0 0 1 1.6 3.9v13.5h21a13.9 13.9 0 0 1 9.4 3.5 13.7 13.7 0 0 1 4.8 11v44.8a16.5 16.5 0 0 1-15.3 15.6h-1.3a26.9 26.9 0 0 1-8.3-1.7l-3.8-1.3-1.7-.5a5.4 5.4 0 0 1-3-3.1 5 5 0 0 1-.1-4.3 5.5 5.5 0 0 1 3-3 5.1 5.1 0 0 1 4.2 0c4.7 1.8 7.8 2.7 9.5 2.7h1.1a4 4 0 0 0 3-1.5 4.2 4.2 0 0 0 1.4-2.9V83c0-2.1-1-3.2-2.9-3.2h-21.2a140.7 140.7 0 0 1-6.2 31.3 117.4 117.4 0 0 1-6.3 16.4 52.2 52.2 0 0 1-6.7 11 5.2 5.2 0 0 1-4.1 1.9 6.2 6.2 0 0 1-3.9-1.4 5.5 5.5 0 0 1-1.8-3.9 5.9 5.9 0 0 1 1.5-4.2 43.8 43.8 0 0 0 5-8.3 110.2 110.2 0 0 0 5.6-14.9 135.7 135.7 0 0 0 5.7-27.9zM1193.6 107.6a5.3 5.3 0 0 1-3.9-1.6 5 5 0 0 1-1.6-3.9 5.7 5.7 0 0 1 1.6-4 5.3 5.3 0 0 1 3.9-1.6h21.4l-.8-15.7h-17.7a5 5 0 0 1-3.9-1.6 4.8 4.8 0 0 1-1.7-3.9 5.3 5.3 0 0 1 1.7-4.1 5.3 5.3 0 0 1 3.9-1.6h17.4l-.7-13.1a5.7 5.7 0 0 1 1.4-4.1 5.9 5.9 0 0 1 3.9-1.8 5 5 0 0 1 4 1.5 4.8 4.8 0 0 1 1.8 3.8l.7 13.7h18.4a5.9 5.9 0 0 1 4 1.6 5.6 5.6 0 0 1 1.6 4.1 5 5 0 0 1-1.6 3.9 5.5 5.5 0 0 1-4 1.6h-18.1l.8 15.7h20.8a5.3 5.3 0 0 1 3.9 1.6 5.8 5.8 0 0 1 1.7 4 5 5 0 0 1-1.7 3.8 5.4 5.4 0 0 1-3.9 1.7h-20.3l1.2 30.1a5.1 5.1 0 0 1-1.4 3.9 5.9 5.9 0 0 1-3.9 1.8h-.2a4.7 4.7 0 0 1-3.8-1.7 4.6 4.6 0 0 1-1.8-3.7l-1.3-30.5z" transform="translate(-.4 -.4)"/><path class="cls-2" d="M89.4 423.5v2.7c1.2 0 1.7-.6 1.7-1.8a.8.8 0 0 0-.4-.7zm20.7-6.3c0-1.4-.9-2.7-2.8-3.9a13 13 0 0 0-6.6-1.7h-1.8a13.1 13.1 0 0 0-6.7 1.7c-1.8 1.2-2.8 2.5-2.8 3.9v2.7a6.4 6.4 0 0 1 4 1.1 4.3 4.3 0 0 1 1.4 3.4q0 5.4-5.4 5.4c-4.5 0-6.8-1.2-6.8-3.6v-9q0-3.6 4.5-7.2c3-2.4 7-3.6 11.8-3.6h1.8q7.2 0 11.7 3.6t4.5 7.2v5.4c0 4.2-4.6 8.6-13.7 13.3L89.4 443v8.5a3.8 3.8 0 0 0 .9 2.8 2.8 2.8 0 0 0 2.3 1 6.2 6.2 0 0 0 4-1.5 64.1 64.1 0 0 1 8.1-6.1 10.2 10.2 0 0 1 5.4-1.6v-6.6l6.8-3.3v22.5c0 3.6-1.8 5.4-5.5 5.4s-3.8-.8-3.8-2.6c1.7-.7 2.5-1.8 2.5-3.2v-7.4a6.5 6.5 0 0 0-3.4 1.1l-6.3 4.8c-3 2.5-5.6 3.7-7.8 3.7a11.5 11.5 0 0 1-7.3-2.1q-2.7-2.1-2.7-6.9v-10.8l17.2-8.9c6.9-3.5 10.3-6.6 10.3-9.2zm8.6-17.8q0 6.8-4.5 9.3c0-.3.1-.6.1-.9s-1-3.9-3.1-6.3a16.3 16.3 0 0 0-12.3-4.9c-7.4 0-11.6.8-12.6 2.5a5.6 5.6 0 0 0-.8 2.7c0 1.2 1.7 2.6 5 4.3l-4.7 3.3c-3.8-1.5-5.7-3.4-5.7-5.8v-2.7c0-1.3.8-2.6 2.3-4.1l2.4-2.2q5.1-4.5 14.1-4.5c5.8 0 10.8 1.5 14.7 4.5v-.7c0-3.3-1-5.7-3.1-7.2l-1.7-1.2a1.9 1.9 0 0 1-1.1-1.6 2.9 2.9 0 0 1 .6-1.5 1.9 1.9 0 0 1 1.6-.9 3.7 3.7 0 0 1 2 .7l2.2 1.7c3.1 2.1 4.6 6 4.6 11.5zM132.4 419.8v-2.7c0-1.2.8-2.6 2.4-4l2.4-2.2c3.1-3 5.1-4.5 5.8-4.5s2.7 1.3 5.3 4l1.9 2a3.1 3.1 0 0 0 2.1 1.1 2.6 2.6 0 0 0 1.8-1.1l1.8-2c2.5-2.7 4.1-4 5-4s1.9.7 3.3 2.2l4.3 4.5a3.4 3.4 0 0 0 2.5 1.4 3.7 3.7 0 0 0 1.9-.7c-1.7 4-3.4 6-4.9 6a4.7 4.7 0 0 1-3.8-1.4l-2.8-2.9a3.8 3.8 0 0 0-2.6-1.5c-1.1 0-2.3 1-3.7 2.9s-2.7 2.9-3.9 2.9-3.6-.9-5.7-2.9l-1.6-1.4a4.3 4.3 0 0 0-2.9-1.5 2.8 2.8 0 0 0-2.4 1.4 5.2 5.2 0 0 0-.8 2.6c0 1.2 1.7 2.6 5 4.3l-4.7 3.3c-3.8-1.5-5.7-3.4-5.7-5.8zm9.3 38.3-.7 2.4h-6v-27.1q0-3.6 4.5-7.2t11.7-3.6h1.8q7.2 0 11.7 3.6t4.5 7.2v27.1h-6.7v-27.1c0-1.4-1-2.6-2.9-3.8a11.6 11.6 0 0 0-6.6-1.8h-1.8a11.9 11.9 0 0 0-6.6 1.8c-1.9 1.2-2.9 2.4-2.9 3.8v16.3l1.7-2.6c1.9-3.1 4-4.6 6.4-4.6s5 1.4 5 4.3-.9 2.9-2.8 2.9-2-.4-2-1.2-.3-1.2-.9-1.2-1.5 1-2.7 3l-1.7 3zM187.3 437.4v-3.5c-1 .5-1.5 1.1-1.5 1.9a2.2 2.2 0 0 0 .4 1.3 1.6 1.6 0 0 0 1.1.3zm24.5-24.5c0-1.1-.6-1.7-1.8-1.7s-1.8.6-1.8 1.7.7 1.7 2.1 2.6a2.9 2.9 0 0 0 1.5-2.6zm-17.7 40.9 10.3-8.6 10.4 8.6v-25.7c0-2.6-.5-4.3-1.6-5.2a20.1 20.1 0 0 1-2.9-1.7 19.9 19.9 0 0 1-11.1 3.2c-3.8 0-6.7-.8-8.7-2.5a8.7 8.7 0 0 1-3.2-6.9 14.5 14.5 0 0 1 .9-4.8 13.7 13.7 0 0 0 .9-4.9c0-1.7-1.2-2.5-3.6-2.5q0-3.6 3.6-3.6c4.5 0 6.8 2 6.8 6.1a12.9 12.9 0 0 1-.9 5.1 11.8 11.8 0 0 0-.9 4.6c0 1.7.5 2.8 1.5 3.4a7.7 7.7 0 0 0 3.6.8 18.2 18.2 0 0 0 6.7-1 7.4 7.4 0 0 1-2.7-5.3c0-4.4 2.3-6.5 6.8-6.5s6.9 2.1 6.9 6.5c0 1.8-1 3.6-2.8 5.3l1.5.8c4 2.1 6 5.1 6 9.1v32.4h-6.8l-10.4-8.5-10.3 8.5h-6.8v-18a4.9 4.9 0 0 1-4.2-1.8 6.8 6.8 0 0 1-1.2-3.8 8.7 8.7 0 0 1 .7-3.7 11.1 11.1 0 0 1 2.7-3.4 7.7 7.7 0 0 1 5.4-1.8c2.2 0 3.4 1.2 3.4 3.6zM268 424.7l-3.1-1.9c-2.1-1.3-3.2-2.3-3.2-3.1s.7-2.1 2-4.2l6.1-9.1 3.9 2.2 1.9 1.2a6.7 6.7 0 0 0 2.9.9h.4l1.3-.2a7.2 7.2 0 0 1-1.5 3.6c-.9 1.5-1.9 2.4-2.9 2.5h-.5a6.6 6.6 0 0 1-3.4-1.3l-2.5-1.4-1.5 2.7 6.9 4.1v28.9q0 3.6-4.5 7.2t-11.7 3.6h-1.8c-4.8 0-8.8-1.2-11.8-3.6s-4.5-4.8-4.5-7.2v-25l-3.1-1.9c-2.1-1.3-3.2-2.3-3.2-3.1s.7-2.1 2-4.2l6.1-9.1 3.9 2.2 1.9 1.2a6.7 6.7 0 0 0 2.9.9h.4l1.3-.2a7.2 7.2 0 0 1-1.5 3.6c-.9 1.5-1.9 2.4-2.9 2.5h-.5a6.6 6.6 0 0 1-3.4-1.3l-2.5-1.4-1.5 2.7 6.9 4.1v28.9c0 1.4.9 2.7 2.8 3.8a12.2 12.2 0 0 0 6.7 1.8h1.8a12.1 12.1 0 0 0 6.6-1.8c1.9-1.1 2.8-2.4 2.8-3.8zM299.6 423.5v2.7a1.6 1.6 0 0 0 1.8-1.8c0-.3-.2-.5-.5-.7zm0-3.6a6.2 6.2 0 0 1 4 1.1 4.3 4.3 0 0 1 1.4 3.4q0 5.4-5.4 5.4c-4.5 0-6.7-1.2-6.7-3.6v-9a9.3 9.3 0 0 1 4.1-7.6c2.8-2.2 5-3.2 6.5-3.2s3.4 1.6 6.5 4.8q4.7-4.8 6.6-4.8c1.5 0 3.6 1 6.4 3.2a9.5 9.5 0 0 1 4.1 7.6v5.4c0 4.2-4.5 8.6-13.7 13.3l-13.8 7.1v8.5a3.8 3.8 0 0 0 .9 2.8 3 3 0 0 0 2.4 1 6 6 0 0 0 3.9-1.5 72.4 72.4 0 0 1 8.1-6.1 10.3 10.3 0 0 1 5.5-1.6v-6.6l6.7-3.3v22.5c0 3.6-1.8 5.4-5.5 5.4s-3.8-.8-3.8-2.6c1.7-.7 2.6-1.8 2.6-3.2v-7.4a6.8 6.8 0 0 0-3.5 1.1l-6.3 4.8c-3 2.5-5.6 3.7-7.7 3.7s-5.6-.7-7.4-2.1-2.6-3.7-2.6-6.9v-10.8l17.1-8.9c6.9-3.5 10.4-6.6 10.4-9.2v-5.4c0-1.5-.9-2.9-2.8-4.2a2.4 2.4 0 0 0-1.4-.5c-1.6 0-3.7 1.6-6.2 4.7-2.5-3.1-4.6-4.7-6.2-4.7a2.7 2.7 0 0 0-1.5.5q-2.7 2-2.7 4.2zM352 452.5c2.3-2.2 3.5-4.2 3.5-6a2.5 2.5 0 0 0-1-2.2 4.6 4.6 0 0 0-2.5-.6zm20.7-5.2a1.2 1.2 0 0 0-1.1.4 2.1 2.1 0 0 0-.4 1.4 5.2 5.2 0 0 0 1.5 3zm0-29c0-1.8-.4-3-1.2-3.5l-2.5-1.5-.8-.2a2.6 2.6 0 0 0-1.7 1l-2 2.2c-1.4 1.4-2.7 2.2-4.1 2.2a8.4 8.4 0 0 1-4.9-1.8l-2.6-2.5a2.4 2.4 0 0 0-1.6-.9 1.2 1.2 0 0 0-.9.4l-1.6 1.3a1.4 1.4 0 0 0-.2.6c0 .8 1.1 2.1 3.4 4v19.3c3.5 0 5.7.7 6.8 2.1a7.6 7.6 0 0 1 1.5 4.5 13.8 13.8 0 0 1-1.4 6 25.6 25.6 0 0 1-4.2 6.1l-2.7 2.9h-6.8v-38.3q-3.6-3.9-3.6-5.4t4.8-6c3.2-3 5.3-4.4 6.4-4.4s2.9 1 5.2 3.2l2.6 2.6h.5a3 3 0 0 0 1.8-1.1l1.5-1.6c2-2.2 3.6-3.2 4.9-3.2a6.9 6.9 0 0 1 3.5 1.3l2.3 1.5c2.9 1.8 4.4 4.9 4.4 9.1v24.2c7.1 0 10.7 3 10.7 9 0 2.5 1.3 3.8 4.1 3.8s4.1-1.3 4.1-3.8v-26.7l-3.2-1.9c-2.1-1.3-3.1-2.3-3.1-3.1s.6-2.1 2-4.2l6-9.1 3.9 2.2 2 1.2a6.4 6.4 0 0 0 2.9.9h.4l1.3-.2a7.2 7.2 0 0 1-1.5 3.6c-1 1.5-2 2.4-3 2.5h-.4a6.9 6.9 0 0 1-3.5-1.3l-2.4-1.4-1.6 2.7 7 4.1v30.7c0 6-3.6 9-10.9 9s-9.3-3-9.3-9c0-2.8-1.9-4.2-5.5-4.2v13.2h-6.8L370 456a15.5 15.5 0 0 1-2.7-7.9 6.1 6.1 0 0 1 1.4-4 5.1 5.1 0 0 1 4-1.6zM814 424.4h6.5a24.2 24.2 0 0 1 6.9-10.9 53.4 53.4 0 0 0-10.5-4.8l.7-4.7a63.4 63.4 0 0 1 13.8 6.3 58.4 58.4 0 0 1 13.7-6.3l.7 4.7a54.9 54.9 0 0 0-10.4 4.8 24.8 24.8 0 0 1 6.9 10.9h6.5v4.7h-5.6a30.2 30.2 0 0 1 .3 4c0 8-2.7 14.6-8.2 19.7a42.9 42.9 0 0 0 10.5 4.7l-.7 4.7a51.1 51.1 0 0 1-13.7-6.2 51.8 51.8 0 0 1-13.8 6.2l-.7-4.7a42.9 42.9 0 0 0 10.5-4.7c-5.4-5.2-8.1-11.7-8.1-19.7a26.1 26.1 0 0 1 .2-4H814zm10.7 8.7c0 6.9 2.2 12.4 6.7 16.7a22.4 22.4 0 0 0 6.7-16.7 17.5 17.5 0 0 0-.4-4H825a30.2 30.2 0 0 0-.3 4zm6.7-16.6a21.2 21.2 0 0 0-5.3 7.9h10.5a21.3 21.3 0 0 0-5.2-7.9zm2.1 24.8h-4.3V433h4.3zM895.6 411.1l-2.4 4.4-6.6-3.5v41.5l-20.1-8.7v16.8h-5.4v-24.1l20.1 8.6v-42.3zm-19.8 11.1h-5.9v5h-4.7v-5h-5.9v-3.9h5.9v-4.8h4.7v4.8h5.9zm-15.1 4.6a8 8 0 0 0 2.4 3.4 7.6 7.6 0 0 0 4.6 1.2 6.7 6.7 0 0 0 6.7-4.6l4.1 1.7c-2.3 5.1-5.9 7.6-10.8 7.6a11.1 11.1 0 0 1-6.9-2 14.5 14.5 0 0 1-4.3-5.6zm-4.2-14.6a14.5 14.5 0 0 1 4.3-5.6 11.1 11.1 0 0 1 6.9-2c4.9 0 8.5 2.6 10.8 7.6l-4.1 1.8c-1.3-3.1-3.5-4.7-6.7-4.7a7.6 7.6 0 0 0-4.6 1.2 7.8 7.8 0 0 0-2.4 3.5zm30.2-12.2a17.8 17.8 0 0 0-11.3-3.9 17.4 17.4 0 0 0-11.3 3.9l-3-3.1a23.2 23.2 0 0 1 7-4.1 22.4 22.4 0 0 1 7.3-1.2 21.5 21.5 0 0 1 14.3 5.3zM939.3 449.4V436H934v26.2h-1.8L919 438.3l-12.8 23.9-4.4-2.6 14.5-26.3-14.5-26.4 4.4-2.5 12.8 23.9 13.2-23.9h1.8v26.9h5.3V418h5.1v31.4zm-17.5-16.1 6.7 12.5v-25zm-18.2 8.4v-15.9h5v15.9zM975.9 457.8a11.4 11.4 0 0 0 5.4-1.8 9.2 9.2 0 0 0 2.9-3.8 16 16 0 0 0 1-5.2c.1-2 .2-4.1.2-6.4v-35.8h5.4v35.1c0 6.2-.6 10.9-1.7 13.9a12.4 12.4 0 0 1-5.7 6.6c-2.6 1.5-5.9 2.2-10.1 2.2a21.5 21.5 0 0 1-8.1-1.3 11.9 11.9 0 0 1-5.3-3.6 15.3 15.3 0 0 1-3-6.4 54.2 54.2 0 0 1-.9-11.4v-35.1h5.4v35.8c0 2.3.1 4.4.2 6.4a16 16 0 0 0 1.1 5.2 8 8 0 0 0 2.8 3.7 11.1 11.1 0 0 0 5.4 1.9v-53h5zM1030.9 461.6h-5.5v-27.2h-15.2v27.2h-5.4v-56.8h5.4v24.9h15.2v-24.9h5.5zm9.6-42.6h-5v-12.7h5zm0 19.5h-5v-12.7h5zm0 19.4h-5v-12.7h5zM1070.3 415.6a11.3 11.3 0 0 1-2.3 7.4 7.2 7.2 0 0 1-6 2.8 7.6 7.6 0 0 1-6.2-2.8 11.3 11.3 0 0 1-2.3-7.4 12.4 12.4 0 0 1 2.4-7.9 7.5 7.5 0 0 1 6.1-2.9 7.1 7.1 0 0 1 6 3 12.7 12.7 0 0 1 2.3 7.8zm-4.7 0a12.2 12.2 0 0 0-.8-5.1 3.1 3.1 0 0 0-2.8-1.4 3.1 3.1 0 0 0-2.9 1.4q-.9 1.3-.9 5.1a8.9 8.9 0 0 0 .8 4.4 2.9 2.9 0 0 0 2.8 1.5 3.4 3.4 0 0 0 3-1.4 10.3 10.3 0 0 0 .8-4.5zm25.5 1.5-9-4.8v49.3h-5.6c-7.6 0-13.6-1.6-17.9-4.6s-6.4-7.2-6.4-12.7a15.2 15.2 0 0 1 3-9.3 18.2 18.2 0 0 1 8.3-6.1 31.1 31.1 0 0 1 12.1-2.2h1.1v-23.1l16 8.8zm-16.3 14.3c-5.4 0-9.6 1.1-12.6 3.4s-4.6 5.4-4.6 9.5 1.5 7.2 4.5 9.3 7.2 3.3 12.7 3.3h1.9v-25.5z" transform="translate(-.4 -.4)"/><path class="cls-3" d="M495.4 410H493a13 13 0 0 0-4.9.9 12 12 0 0 0-3.8 3 63 63 0 0 0-4.1 7.1c-3.9-3.9-7.9-5.9-12-5.9a10.9 10.9 0 0 0-7.3 2.5c-1.8 1.6-2.7 3.9-2.7 7a10.8 10.8 0 0 0 2.8 7.3c1.9 2.2 5.4 4.5 10.6 6.8-4.2 7.5-7.6 14.1-10.3 19.8a110 110 0 0 1-16.4-9.9V462H439v-58.1h5.9v37.3a80.3 80.3 0 0 0 13.9 9.3c1.7-3.6 3.2-6.6 4.6-9.1a24.9 24.9 0 0 1-8.4-6.8 16.3 16.3 0 0 1-3.1-10 14.8 14.8 0 0 1 4.6-11.4 15.8 15.8 0 0 1 11.7-4.5 16.4 16.4 0 0 1 10.2 3.3 16.3 16.3 0 0 1 5.6-5.8 16.7 16.7 0 0 1 9-2.3h2.4z" transform="translate(-.4 -.4)"/><path class="cls-3" d="M545.9 462a74.9 74.9 0 0 1-6.6-13.3 129 129 0 0 1-5-14.8 68.2 68.2 0 0 0-4-11.2 15.2 15.2 0 0 0-4.1-5.3 9.5 9.5 0 0 0-5.6-1.5 7.1 7.1 0 0 0-5.4 2.3 9 9 0 0 0-2.2 6.4 10.9 10.9 0 0 0 2.9 7.3c1.8 2.2 5.4 4.5 10.6 6.8-4.2 7.5-7.6 14.1-10.3 19.8a110 110 0 0 1-16.4-9.9V462h-6v-58.1h6v37.3a80.3 80.3 0 0 0 13.9 9.3c1.7-3.6 3.2-6.6 4.6-9.1a24.9 24.9 0 0 1-8.4-6.8 15.7 15.7 0 0 1-3.1-10 15.2 15.2 0 0 1 4-10.8 12.9 12.9 0 0 1 9.8-4.3 14.1 14.1 0 0 1 8.9 2.8 32 32 0 0 1 11.2-6.3 49 49 0 0 1 15.6-2.1h17.9v6.1h-11.5a88.6 88.6 0 0 0-5.9 19.4 110.6 110.6 0 0 0-1.9 21.4 68.6 68.6 0 0 0 .7 11.2zm3.4-6.6a37.3 37.3 0 0 1-.4-4.6 122.5 122.5 0 0 1 1.8-21.8 94.2 94.2 0 0 1 5.5-19c-5.6 0-10.1.5-13.5 1.6a25.8 25.8 0 0 0-9.1 5c2.4 3.7 4.6 9.3 6.8 16.8a117.7 117.7 0 0 0 8.5 22z" transform="translate(-.4 -.4)"/><path class="cls-3" d="M572.5 462v-58.1h44.7v6.1h-38.7v17.5h38.7v6.1h-21.4a17.6 17.6 0 0 0-4 11.8 8.5 8.5 0 0 0 2.4 6.5 8.8 8.8 0 0 0 5.9 2.2c4.3 0 8.3-1.7 12.1-5.2a14.9 14.9 0 0 0 4.6 5.4 11.9 11.9 0 0 0 6.7 1.6h8.1v6.1h-9.1a18.4 18.4 0 0 1-7.4-1.2 10.8 10.8 0 0 1-4.5-3.4 17.4 17.4 0 0 1-10.5 3.1 14.2 14.2 0 0 1-10.5-4.2 15.2 15.2 0 0 1-4.1-10.9 24.8 24.8 0 0 1 .8-6.6 16.9 16.9 0 0 1 2.6-5.2h-10.4V462z" transform="translate(-.4 -.4)"/><path class="cls-3" d="M670.8 462a99.9 99.9 0 0 1-3-25.6c0-10.2 1.2-19 3.5-26.4h-15.9v52h-5.9v-52h-13.6v52H630v-58.1h61.4v6.1h-13.8a66.9 66.9 0 0 0-3 11.9 98.4 98.4 0 0 0-.9 14.5 99.7 99.7 0 0 0 3.1 25.6z" transform="translate(-.4 -.4)"/><path class="cls-3" d="M695.7 462h-5.9v-41.3h6.6a56.2 56.2 0 0 1 15.3 1.9 51.7 51.7 0 0 1 11.7-12.5v-.3l-7.6.2h-26v-6.1h56.9v6.1h-14.4c-6.4 5-11.3 9.8-14.7 14.6a26.4 26.4 0 0 1 10.7 8.7 22.1 22.1 0 0 1 4 13.3c0 5.1-1.3 8.9-3.8 11.7a14.9 14.9 0 0 1-20.9-.2c-2.5-2.9-3.8-6.9-3.8-12a40 40 0 0 1 4.7-18.1 57.4 57.4 0 0 0-12.8-1.3zm18.6-32.2a34.4 34.4 0 0 0-4.2 16.3c0 3.2.7 5.7 2.1 7.4a7.3 7.3 0 0 0 5.9 2.6 7.1 7.1 0 0 0 6-2.6c1.3-1.6 1.9-4 1.9-7 0-7.8-3.9-13.3-11.7-16.7z" transform="translate(-.4 -.4)"/><path class="cls-3" d="M761.4 462v-17.7H751V462h-5.9v-58.1h47.3c-.6 2.1-1 4.1-1.4 6.1h-40v28.2h10.4v-17.6h27a90.5 90.5 0 0 0 0 41.4zm5.9-6.1h13.9a91.4 91.4 0 0 1-1.1-14.6 92.7 92.7 0 0 1 1.1-14.7h-13.9zM1164.8 436h-12v15.1a33.5 33.5 0 0 1-10.4 1.5 19.9 19.9 0 0 1-13.2-4.8c-3.8-3.2-6.9-7.9-9.4-14.3a22.4 22.4 0 0 0 4.9-5.9 13.1 13.1 0 0 0 1.5-6.1 18.6 18.6 0 0 0-.6-4.5 16 16 0 0 0-1.6-4.2h-8.4v-6.6h65.5v6.6h-8.9v50.8h-7.4zm-19.5-6.6h19.5v-16.6h-32.9a26.2 26.2 0 0 1 1.7 8.7c0 5.2-1.7 9.4-5.1 12.5 1.9 4.1 3.9 7.1 6.2 9a11.3 11.3 0 0 0 7.8 2.8l2.8-.2z" transform="translate(-.4 -.4)"/><path class="cls-3" d="M1219 453.6a8.8 8.8 0 0 0 3-3.7 11 11 0 0 0 1-4.9 10.1 10.1 0 0 0-2.7-6.8 15.7 15.7 0 0 0-7.7-4.4 55.9 55.9 0 0 1-10.3 1c-6.9 0-10.4-1.7-10.4-5.2s2.7-4.7 8.1-4.7a37.4 37.4 0 0 1 13.4 2.5 11.5 11.5 0 0 0 5.5-4.6 12 12 0 0 0 1.9-7 23.6 23.6 0 0 0-.2-3h-40.8v-6.6h56.5v6.6h-8.3a18.2 18.2 0 0 1-1.6 11.4 14.7 14.7 0 0 1-6.1 6c3.5 1.9 6.2 4 7.8 6.5a15.1 15.1 0 0 1 2.5 8.7 15.3 15.3 0 0 1-7.1 13.4c-4.9 3.2-11.5 4.8-20.1 4.8q-9.6 0-14.7-3a9.6 9.6 0 0 1-5-8.7 9.2 9.2 0 0 1 3.5-7.3c2.3-1.9 5.6-2.8 9.7-2.8a25.5 25.5 0 0 1 12.1 3 30.9 30.9 0 0 1 10 8.8zm-6.2 2.7a33.3 33.3 0 0 0-7.6-6 17.6 17.6 0 0 0-7.9-1.9 8.1 8.1 0 0 0-4.6 1 2.9 2.9 0 0 0-1.6 2.7c0 1.8 1.1 3 3.1 3.9s5 1.2 9.1 1.2a43.5 43.5 0 0 0 5.3-.2 22.9 22.9 0 0 0 4.2-.7z" transform="translate(-.4 -.4)"/><path class="cls-3" d="M1273.3 424.8v-12h-38.4v-6.6h54.8v6.6h-8.9v15.9l-2.8 2.7h-16.2a48.8 48.8 0 0 0-9.4.7 8.4 8.4 0 0 0-4.4 2.6 7.3 7.3 0 0 0-1.6 5 12.5 12.5 0 0 0 1.4 5.6 19.2 19.2 0 0 0 3.8 5.6 31.9 31.9 0 0 1 9.6-6.8 25.1 25.1 0 0 1 10.9-2.3c4.1 0 7.2.9 9.6 2.8a9 9 0 0 1 3.4 7.3 9.9 9.9 0 0 1-4.5 8.8c-3.1 2-7.6 2.9-13.7 2.9a30.3 30.3 0 0 1-13.7-2.9 26.6 26.6 0 0 1-10.1-8.8 21.8 21.8 0 0 1-4.1-12.6 15.3 15.3 0 0 1 1.2-6 12.4 12.4 0 0 1 4-4.9 16.2 16.2 0 0 1 6.4-2.8 51 51 0 0 1 9.7-.8zm-16.6 30.2a15 15 0 0 0 4.5 1.7 24.8 24.8 0 0 0 5.6.5 20.9 20.9 0 0 0 8.1-1.2c1.9-.8 2.8-2 2.8-3.8a3 3 0 0 0-1.6-2.8 8.9 8.9 0 0 0-4.7-1 18.1 18.1 0 0 0-7.5 1.6 28.4 28.4 0 0 0-7.2 5zm-11.7 7a5 5 0 0 1 3.7 1.5 5.4 5.4 0 0 1 1.4 3.8 5.2 5.2 0 0 1-1.4 3.8 4.8 4.8 0 0 1-3.7 1.5 4.6 4.6 0 0 1-3.6-1.5 5.6 5.6 0 0 1 0-7.6 4.6 4.6 0 0 1 3.6-1.5z" transform="translate(-.4 -.4)"/><path class="cls-3" d="M1328.5 448.5a31.8 31.8 0 0 1-13.3 2.9 20.3 20.3 0 0 1-13.3-4.6c-3.7-3.1-6.9-7.7-9.4-13.9a20.8 20.8 0 0 0 5-5.6 12.8 12.8 0 0 0 1.5-6.1 17.1 17.1 0 0 0-.6-4.3 21.9 21.9 0 0 0-1.6-4.1h-8.5v-6.6h13.8a40.9 40.9 0 0 1 3.1 7.5 29.6 29.6 0 0 1 1.1 7.5v.6h22.2v-15.6h16.4v6.6h-9v50.8h-7.4zm0-8v-12.4H1305a14.1 14.1 0 0 1-3.8 5.4 24.5 24.5 0 0 0 6.2 8.6 12.4 12.4 0 0 0 7.8 2.6 23 23 0 0 0 6.4-.9 30.2 30.2 0 0 0 6.9-3.3zm-24.2 13.4a5.3 5.3 0 0 1 3.7 1.4 5.6 5.6 0 0 1 1.4 3.9 4.8 4.8 0 0 1-1.4 3.8 4.7 4.7 0 0 1-3.7 1.5 4.6 4.6 0 0 1-3.6-1.5 5.2 5.2 0 0 1-1.5-3.8 5.3 5.3 0 0 1 1.5-3.9 5.1 5.1 0 0 1 3.6-1.4z" transform="translate(-.4 -.4)"/><path class="cls-3" d="M1368.5 432.9a18.9 18.9 0 0 0-3.5-.2c-3.5 0-6.1.6-7.6 1.9s-2.4 3.1-2.4 5.7a14 14 0 0 0 3 8 21.2 21.2 0 0 0 7 6.4 17.1 17.1 0 0 0 8.5 2.2c2.3 0 4.1-.3 5.2-1.1a5.5 5.5 0 0 0 2.3-2.9 18.7 18.7 0 0 0 .7-6.2v-33.9h-38.2v-6.6h54.5v6.6h-8.9v34.9c0 4.4-.7 7.6-2.2 9.8a12.3 12.3 0 0 1-5.5 4.7 22 22 0 0 1-8.7 1.4 23.7 23.7 0 0 1-11.5-2.9 27.4 27.4 0 0 1-9.6-8.7 20.5 20.5 0 0 1-4-12.2 14.1 14.1 0 0 1 2-7.6 12 12 0 0 1 5.7-4.7 26.4 26.4 0 0 1 9.9-1.5 23.6 23.6 0 0 1 3.9.2z" transform="translate(-.4 -.4)"/><path class="cls-3" d="M1414.1 430.2h24.5v-17.4h-41.9v-6.6h58.3v6.6h-8.9v21.3l-2.8 2.7h-29.2c.1 6.7 1.5 11.7 4.4 15s7.2 5.1 12.9 5.1a30.7 30.7 0 0 0 8.2-1.1 34.6 34.6 0 0 0 7.8-3l2.6 6.6a41.4 41.4 0 0 1-18.7 4.2c-7.9 0-14-2.2-18.2-6.8s-6.4-10.9-6.4-19v-1h-1.6a5.3 5.3 0 0 1-3.6-1 2.9 2.9 0 0 1-1.2-2.5 8.5 8.5 0 0 1 1.6-4.6 15.5 15.5 0 0 1 3.9-4.2 8.2 8.2 0 0 1 4.4-1.7 3.5 3.5 0 0 1 2.9 1.3 6.1 6.1 0 0 1 1 3.8zM85.3 78h-9.5v-8.5h33.3c9.2 0 15.8 1.9 19.8 5.8S135 85.8 135 95v36h-9.3V94.9c0-6.2-1.2-10.6-3.7-13.1s-6.8-3.8-13-3.8H94.6v29.2c0 6.2-.6 10.9-1.7 14.3a12.6 12.6 0 0 1-5.4 7.3c-2.5 1.5-6.4 2.2-11.7 2.2h-.6v-8.5h.9a9.7 9.7 0 0 0 5.5-1.3 7.2 7.2 0 0 0 2.9-4 32 32 0 0 0 .8-8.1zm19.8 17.8a3.6 3.6 0 0 1 1.3-2.9 4.1 4.1 0 0 1 2.8-1.1 4.3 4.3 0 0 1 2.8 1.1 3.8 3.8 0 0 1 1.2 2.9 3.4 3.4 0 0 1-1.2 2.7 3.9 3.9 0 0 1-2.8 1.2 3.8 3.8 0 0 1-2.8-1.2 3.2 3.2 0 0 1-1.3-2.7zM151.9 69.5h9.3V131h-9.3zm25.6 0h9.3V131h-9.3zM213.4 131h-9.3V91h9.3zm39.1 0h-9.3V94.9c0-6.2-1.3-10.6-3.7-13.1s-6.9-3.8-13-3.8h-23.4v-8.5h23.6c9.2 0 15.8 1.9 19.8 5.9s6 10.5 6 19.6zM307.3 150.4H298V94.9c0-6.1-1.2-10.5-3.6-13s-6.8-3.9-13-3.9h-18.8v-8.5h18.9c9.3 0 15.9 1.9 19.9 5.9s5.9 10.5 5.9 19.6zM317.6 122.9c9.3 0 16.5-.8 21.8-2.5l-18.6-50.9H331l16.4 46.9c4.7-3.3 8.1-8.5 10.1-15.5s3.1-17.5 3.1-31.4h9.7c0 15.5-1.7 27.6-4.9 36.3s-8.7 15.2-16.2 19.5-18 6.7-31.6 7.4zM381.7 69.5h11.4l22.6 31.1c5-4.7 8-11.3 8.9-19.9l1.2-11.2h9.5l-1.1 10.9a43.7 43.7 0 0 1-2 9.7 38.2 38.2 0 0 1-4 8.1 59.1 59.1 0 0 1-7.7 8.9l18.1 23.9h-11.7l-26.5-35.9a10.3 10.3 0 0 0-3.5 2.6 12.2 12.2 0 0 0-2.2 4.1 52.8 52.8 0 0 0-2.2 9l-4.1 20.2h-9.7l4.2-20a71.9 71.9 0 0 1 3.3-12.1 16.4 16.4 0 0 1 3.9-5.8 18.8 18.8 0 0 1 6.1-3.8zM1295.1 354.4h-22.3V176.1h37.1l8.7 8.8a28.7 28.7 0 0 1 21-8.8h29.7v178.3H1347V183.6h-7.4a21.5 21.5 0 0 0-15.8 6.6l-1.7 1.8a15.3 15.3 0 0 0-1.6 2.2l11.7 11.6v148.6h-22.3V205.8l-19.1-19-2.1 1.5-2 1.9-1.7 1.8a16.3 16.3 0 0 0-1.7 2.2l11.8 11.6zM1425 354.4h-22.3v-63.2l-18.5-18.5v-96.6h22.3v89.2l19 19.1 2.2-1.6 1.9-1.8 1.8-1.9a13.7 13.7 0 0 0 1.5-2.1l-11.6-11.7v-89.2h22.3v89.2a28.3 28.3 0 0 1-8.8 21 31.1 31.1 0 0 1-9.8 6.7zM1480.7 324.7l19.1 19.1a15.3 15.3 0 0 0 2.2-1.6l1.8-1.7 1.9-2a19.1 19.1 0 0 0 1.5-2.1l-11.6-11.7v-37.2l-37.1-37.1v-44.6a29.7 29.7 0 0 1 59.4 0v59.5l-22.3-22.3v-37.2l-19.2-19-2 1.5-2 1.9-1.8 1.8c-.6.7-1.1 1.5-1.6 2.2l11.7 11.6V243l37.2 37.1v44.6a29.7 29.7 0 0 1-59.4 0v-59.4l22.2 22.2zM1592.1 354.4h-22.2V183.6h-7.5a21.5 21.5 0 0 0-15.8 6.6l-1.7 1.8a15.3 15.3 0 0 0-1.6 2.2l11.7 11.6v44.6h-22.3v-74.3h96.6v74.3H1607v-66.8h-7.4a21.3 21.3 0 0 0-15.8 6.6l-1.8 1.8c-.6.7-1.1 1.5-1.6 2.2l11.7 11.6zM1666.4 346.9h7.4a21.4 21.4 0 0 0 15.7-6.4l1.9-2a19.1 19.1 0 0 0 1.5-2.1l-11.6-11.7v-44.6h22.2v74.3h-59.4V176.1h59.4v74.3h-22.2v-66.8h-7.5a21.1 21.1 0 0 0-15.7 6.6l-1.8 1.8c-.6.7-1.1 1.5-1.6 2.2l11.7 11.6v55.7h37.1v7.5h-37.1zM1740.7 354.4h-22.3V176.1h29.7a28.6 28.6 0 0 1 20.9 8.8 28.3 28.3 0 0 1 8.8 20.9V243a28.3 28.3 0 0 1-8.8 21 40 40 0 0 1-4 3.5l12.8 12.6v74.3h-22.3v-66.9l-19.1-19-2.1 1.5a18 18 0 0 0-2 1.9l-1.7 1.8a15.3 15.3 0 0 0-1.6 2.2l11.7 11.6zm0-111.4 19 19.1a11.2 11.2 0 0 0 2.2-1.6l1.9-1.7 1.8-2a8 8 0 0 0 1.5-2.1l-11.6-11.7v-37.2l-19.1-19-2.1 1.5-2 1.9-1.7 1.8a15.3 15.3 0 0 0-1.6 2.2l11.7 11.6zM1833.5 354.4h-22.3v-63.2l-18.5-18.5v-96.6h22.2v89.2l19.1 19.1 2.2-1.6c.6-.6 1.2-1.1 1.8-1.8l1.9-1.9 1.5-2.1-11.6-11.7v-89.2h22.3v89.2a28.7 28.7 0 0 1-8.8 21 31.1 31.1 0 0 1-9.8 6.7zM1257 506.3l-5.8-1.4a52.1 52.1 0 0 0-9.7-.7 57 57 0 0 0-15.2 1.9 63 63 0 0 0-13.3 5.5 64.4 64.4 0 0 0-11.4 7.9 77.3 77.3 0 0 0-9.4 9.6v69.2h-9.1v-99.7h9.1V519a78.4 78.4 0 0 1 10.6-9.3 69.4 69.4 0 0 1 12-7.2 66.8 66.8 0 0 1 13.2-4.7 61.5 61.5 0 0 1 14.3-1.7h4.6l3.8.3 3.2.4 3.1.5zM1374.2 593.1c-4 1.3-7.8 2.3-11.3 3.2s-6.9 1.6-10.3 2.2a87.7 87.7 0 0 1-10.3 1.2c-3.5.3-7.4.4-11.6.4a90.9 90.9 0 0 1-26.5-3.5 59.5 59.5 0 0 1-20.1-10.2 45.5 45.5 0 0 1-12.8-16.1 48.5 48.5 0 0 1-4.5-21.2 49.8 49.8 0 0 1 4.3-20.9 48.6 48.6 0 0 1 12.1-16.3 55 55 0 0 1 18.5-10.6 73.1 73.1 0 0 1 23.9-3.7 75.1 75.1 0 0 1 24.2 3.6 49 49 0 0 1 17.8 10.4 44.2 44.2 0 0 1 11.1 16.3 59.1 59.1 0 0 1 3.7 21.7v2.2h-106.3a45.5 45.5 0 0 0 4.7 16.8 35.8 35.8 0 0 0 10.9 12.7 51.8 51.8 0 0 0 17.4 8 91.2 91.2 0 0 0 24.1 2.8 95.1 95.1 0 0 0 11.9-.8 99.4 99.4 0 0 0 11.6-2.2c3.6-.9 7-1.9 10.1-3a39.6 39.6 0 0 0 7.4-3.5zm-.7-49.2a45.7 45.7 0 0 0-3.4-14.6 35.3 35.3 0 0 0-8.6-12.2 43.6 43.6 0 0 0-14.7-8.4c-5.9-2.1-13.1-3.1-21.3-3.1a61 61 0 0 0-20.5 3.1 47.8 47.8 0 0 0-14.9 8.4 39.9 39.9 0 0 0-9.5 12.2 44.2 44.2 0 0 0-4.5 14.6zM1458.1 598.3h-13.6l-49.7-99.7h10.1l46.7 93.5 46.6-93.5h10.1zM1647.3 548.6c0 8.9-1.7 16.6-4.9 23.1a44.5 44.5 0 0 1-13.3 16.1 56.5 56.5 0 0 1-20.1 9.4 102 102 0 0 1-49.9 0 57 57 0 0 1-20.2-9.4 44.7 44.7 0 0 1-13.4-16.1q-4.8-9.7-4.8-23.1a55.4 55.4 0 0 1 2.2-16.3 48.1 48.1 0 0 1 6.3-13.1 42.3 42.3 0 0 1 9.9-9.9 58.3 58.3 0 0 1 12.8-7 78.8 78.8 0 0 1 15.2-4.2 116 116 0 0 1 17-1.3 94.4 94.4 0 0 1 24.9 3.1 58.1 58.1 0 0 1 20.1 9.3 46.2 46.2 0 0 1 13.3 16.1 52.7 52.7 0 0 1 4.9 23.3zm-9.4 0a48.1 48.1 0 0 0-3.4-18.8 36.3 36.3 0 0 0-10.2-13.7 47.3 47.3 0 0 0-16.8-8.4 86.3 86.3 0 0 0-23.4-2.8 82 82 0 0 0-23.3 2.9 45.9 45.9 0 0 0-17 8.4 35.7 35.7 0 0 0-10.3 13.7 51.7 51.7 0 0 0 0 37.4 35.4 35.4 0 0 0 10.3 13.6 44.4 44.4 0 0 0 17 8.4 82 82 0 0 0 23.3 2.9c8.9 0 16.7-.9 23.4-2.9a44.2 44.2 0 0 0 16.8-8.4 35.2 35.2 0 0 0 10.2-13.6 47.6 47.6 0 0 0 3.4-18.7zM1682.9 563.9a55.7 55.7 0 0 0 1.1 11.6 14.4 14.4 0 0 0 4.6 8 21.6 21.6 0 0 0 10 4.5 80.4 80.4 0 0 0 17.4 1.6h45.1v8.7h-46.9c-7.9 0-14.5-.6-19.7-1.9s-9.4-3.3-12.4-6a20.4 20.4 0 0 1-6.5-10.1 52.7 52.7 0 0 1-1.8-14.7v-67h9.1zM1819.7 506.9v91.4h-9v-91.4h-45.3v-8.3h99.7v8.3z" transform="translate(-.4 -.4)"/><path class="cls-2" d="m91.8 655.1-6.6 46.7h-2.7l6.7-46.7zm.9-14.4a2 2 0 0 1-1.5-.6 1.7 1.7 0 0 1-.6-1.4 2.4 2.4 0 0 1 2.5-2.5 2.5 2.5 0 0 1 1.5.5 2 2 0 0 1 .6 1.5 2.4 2.4 0 0 1-2.5 2.5zM132.1 654.2c4 0 6.9 1.3 8.8 3.8s2.3 6.1 1.7 10.7l-4.7 33.1h-2.7l4.7-32.9c.6-4.2.2-7.2-1.2-9.3s-3.6-3-6.8-3a14.4 14.4 0 0 0-10.2 4.5c-3.3 3.1-6.3 7.4-9.2 12.9l-4 27.8h-2.6l6.6-46.7h2.2l-1.6 13.8a33.7 33.7 0 0 1 8.7-10.9 16.8 16.8 0 0 1 10.3-3.8zM161.9 691c-.5 3.1-.1 5.4 1 7s2.8 2.3 5.4 2.3a15.4 15.4 0 0 0 4.3-.6l4.1-1.8 1.1 2.1a26.5 26.5 0 0 1-4.7 2 16.8 16.8 0 0 1-5 .7q-4.8 0-7.2-3c-1.7-2-2.3-4.8-1.7-8.5l4.9-35.2 2.4-12.5 2.1-.3zm17.8-35.9-.7 2.5h-22.8l.4-2.5zM208.8 654.2c4 0 7.1 1 9.5 3a9.6 9.6 0 0 1 3.5 7.8 11.9 11.9 0 0 1-4 9.2c-2.8 2.5-6.7 4.4-11.8 5.8a90.9 90.9 0 0 1-18.7 2.7l.2-2.3q15.9-1 23.7-4.8c5.2-2.5 7.9-6 7.9-10.5a7.8 7.8 0 0 0-2.7-6.2c-1.7-1.5-4.3-2.2-7.6-2.2a16.6 16.6 0 0 0-11.6 4.1 25.6 25.6 0 0 0-7 10.5 37.9 37.9 0 0 0-2.3 12.7c0 5.5 1.2 9.5 3.6 12.2s5.7 4 9.9 4a19.4 19.4 0 0 0 7-1.2 30.7 30.7 0 0 0 6.7-3.7l1.4 1.9a26.9 26.9 0 0 1-7.2 4.2 22.6 22.6 0 0 1-7.9 1.3q-7.8 0-12-4.8c-2.8-3.2-4.3-7.8-4.3-13.8a38.3 38.3 0 0 1 2.7-14 27.8 27.8 0 0 1 8-11.4 19.4 19.4 0 0 1 13-4.5zM255.2 654.2a12.1 12.1 0 0 1 4.3.7l-.7 2.3a10.5 10.5 0 0 0-3.6-.5 11.4 11.4 0 0 0-9 4.2c-2.6 2.8-5 7-7.4 12.7l-4 28.2h-2.7l6.6-46.7h2.3l-1.8 12.9a29.2 29.2 0 0 1 6.7-10.3 13.6 13.6 0 0 1 9.3-3.5zM285.9 635.6a17 17 0 0 1 5.1.7 25.2 25.2 0 0 1 5.1 2.3l-1.3 2a20.2 20.2 0 0 0-4.6-2.1 19.7 19.7 0 0 0-4.4-.5 11.3 11.3 0 0 0-7.1 2.1 10.5 10.5 0 0 0-3.4 6.7l-7.5 54.4a34.2 34.2 0 0 1-2.3 9.1 15.3 15.3 0 0 1-4 5.2 30.4 30.4 0 0 1-6.7 3.9l-.9-2.1a29.3 29.3 0 0 0 5.8-3.6 13 13 0 0 0 3.4-4.7 31.3 31.3 0 0 0 2.1-8.1l7.5-54.5a12.4 12.4 0 0 1 4.3-8.1 14.3 14.3 0 0 1 8.9-2.7zm1.4 19.5-.7 2.5h-23.4l.4-2.5zM313.7 654.2a26.3 26.3 0 0 1 7.3 1 39 39 0 0 1 6.4 2.8l-4.9 34a13.8 13.8 0 0 0 0 5.8 4.2 4.2 0 0 0 2.7 2.8l-.8 2.1a6.4 6.4 0 0 1-3.9-2.8c-.8-1.2-1-3.3-.7-6.2a21.6 21.6 0 0 1-6.5 6.6 15.2 15.2 0 0 1-8.3 2.4 13 13 0 0 1-10.7-4.8c-2.6-3.2-3.9-7.7-3.9-13.4a42.4 42.4 0 0 1 2.4-13.9 29.2 29.2 0 0 1 7.7-11.7c3.4-3.1 7.8-4.7 13.2-4.7zm.1 2.4c-4.8 0-8.7 1.4-11.7 4.4a24.4 24.4 0 0 0-6.7 10.7 38.6 38.6 0 0 0-2.2 12.7c0 5.1 1 9 3.1 11.7a10.5 10.5 0 0 0 8.8 4.1 13.4 13.4 0 0 0 8.3-2.8 25 25 0 0 0 6.8-8.2l4.3-29.9a20.3 20.3 0 0 0-4.8-2 22.2 22.2 0 0 0-5.9-.7zM362.8 654.2a19.9 19.9 0 0 1 6.6 1.1 14.6 14.6 0 0 1 5.2 3.4l-1.7 1.8a15.1 15.1 0 0 0-4.5-2.9 16.6 16.6 0 0 0-5.7-.9 15.7 15.7 0 0 0-11.4 4.3 24 24 0 0 0-6.5 10.6 39.2 39.2 0 0 0-2 12.4c0 5.4 1.2 9.4 3.5 12.1a12.8 12.8 0 0 0 10 4.1 19.1 19.1 0 0 0 6.4-1.1 20.8 20.8 0 0 0 5.6-3.1l1.5 2a21.8 21.8 0 0 1-13.6 4.7c-4.9 0-8.9-1.6-11.8-4.9S340 690 340 684a40.9 40.9 0 0 1 2.3-13.6 27.4 27.4 0 0 1 7.5-11.5 18.9 18.9 0 0 1 13-4.7zM404.1 654.2a14.4 14.4 0 0 1 9.5 3 9.9 9.9 0 0 1 3.5 7.8 12 12 0 0 1-4.1 9.2c-2.7 2.5-6.6 4.4-11.7 5.8a92 92 0 0 1-18.8 2.7l.3-2.3q15.8-1 23.7-4.8t7.8-10.5a8.1 8.1 0 0 0-2.6-6.2c-1.8-1.5-4.3-2.2-7.6-2.2a16.6 16.6 0 0 0-11.6 4.1 24.6 24.6 0 0 0-7 10.5 35.6 35.6 0 0 0-2.3 12.7c0 5.5 1.1 9.5 3.5 12.2s5.7 4 9.9 4a19 19 0 0 0 7-1.2 29 29 0 0 0 6.8-3.7l1.4 1.9a29 29 0 0 1-7.3 4.2 22.2 22.2 0 0 1-7.9 1.3c-5.1 0-9.1-1.6-11.9-4.8s-4.3-7.8-4.3-13.8a38.3 38.3 0 0 1 2.7-14 28.6 28.6 0 0 1 7.9-11.4 19.7 19.7 0 0 1 13.1-4.5z" transform="translate(-.4 -.4)"/><path class="cls-3" d="M481 763c-.3.6-.7 3-1.2 7.3l4.8.3c-.8-6.2-1.4-10-2.1-11.4l3.5.2h3.4l-.3-1.5q-49.7 1.2-62 4.5a32.1 32.1 0 0 0 .7-6.8 26.4 26.4 0 0 0-.6-6.3 82.2 82.2 0 0 0 10.4 2.1c4.2.6 8.9 1.1 14.3 1.6s17.7 1.5 36.8 2.8c-.5-2.6-1.1-5.2-1.7-7.7a26.5 26.5 0 0 0 6.3.8 30.5 30.5 0 0 0 6.7-.7c-3.9 14-5.9 31.1-6.1 51.4h-1.5v-3.7c-5.8-.1-12.5 0-20 .3s-14.8.8-21.7 1.3a97.6 97.6 0 0 0-1.6 16.2h-1.4a98 98 0 0 0-1.3-15.8l-8.6.9a93.8 93.8 0 0 0-1.5 14.8h-1.4a95.6 95.6 0 0 0-1-14.3 89.4 89.4 0 0 0-10.6 1.8 25.9 25.9 0 0 0 .7-6.3 38.8 38.8 0 0 0-.6-6.7 81.2 81.2 0 0 0 8.8 1.7 55.9 55.9 0 0 0-2.8-9.9 47.4 47.4 0 0 0 6.9.7 41.3 41.3 0 0 0 5.8-.5h.3l6.7.6a32.3 32.3 0 0 0 6.1-.6 31.4 31.4 0 0 0-1.7 5.2c-.7 2.5-1.3 4.7-1.7 6.8 13.6 1.3 27.2 2 40.6 2.2a210.7 210.7 0 0 0-2.9-34.8c-.6 1.6-1.2 5.8-1.9 12.5s-1 11.8-1.1 15.2h-.7q0-2.2-.3-6.9c-.2-3.1-.4-6-.7-8.8l-5 .3-1 9.8h-.5l-.2-1.8-.7-7.8h-3l-1 9.5h-.5l-.2-1.8-.7-7.6h-3l-1 9.3h-.5c-.1-.9-.4-4-.8-9.2l-3.1.2-.9 8.9h-.5c-.2-1-.5-3.9-.9-8.8a45.7 45.7 0 0 0-7 .6c.1-1.2.2-2 .2-2.6a8.2 8.2 0 0 0-.2-2.3c.5.3 2.7.5 6.7.8-.4-3.6-.6-5.7-.9-6.2l2.6.2a8.2 8.2 0 0 0 2.3-.2 26.8 26.8 0 0 0-1 6.4l2.4.2-.3-2.3a31.3 31.3 0 0 0-.6-4.3l2.6.3 2.2-.2a13.8 13.8 0 0 0-.5 2.6 33.9 33.9 0 0 0-.6 4.1h2.5c-.3-3.9-.6-6.2-.9-6.8l2.6.2 2.2-.2a51 51 0 0 0-1.1 7h2.6l-.3-2.4c-.2-2.6-.4-4.2-.7-4.7a13.8 13.8 0 0 0 2.6.2 5.7 5.7 0 0 0 2.3.1zm-41.8 27.7 6 .7a68.6 68.6 0 0 0-3-11.1 73.1 73.1 0 0 0-3 10.4zM551.7 748.5c-1 3.3-1.8 6.2-2.3 8.6l6.9 1.3c-.2-1.2-1.1-4.5-2.6-9.9a34 34 0 0 0 6.4.8 31.1 31.1 0 0 0 6.7-.7c-1.3 4.8-2.3 8.7-2.8 11.6a106.9 106.9 0 0 0-1.3 10.8c-.4 4.2-.7 8.8-.9 13.7a41.2 41.2 0 0 0 4.8-5l1.1.6c-1.2 2.1-2.3 4-3.1 5.7l-2.5 4.3a87.2 87.2 0 0 0 6 8.9l-.9.8-7.3-6.3-4.3-3.3 3.8-3.3c-.1-2.2-.2-4.4-.4-6.4l-7.4 1.1-2.5 4.7a42.7 42.7 0 0 1-2.2 3.8 75 75 0 0 0 6.1 8.9l-1 .8c-3.4-3.1-5.9-5.2-7.3-6.3l-4.3-3.3 1.2-1c-5.7.6-10.3 1.1-13.7 1.6s-6.3 1.1-8.8 1.7a23.1 23.1 0 0 0 4.9.5 30.7 30.7 0 0 0 5.3-.5l-1.2 1.9a21.9 21.9 0 0 0-3.4 8.3h-1.3a21.2 21.2 0 0 0-3.3-8.3l-1.2-1.9-7 2.3a44.6 44.6 0 0 0 .5-6.3 40 40 0 0 0-.5-6.7 65.5 65.5 0 0 0 12.8 3.4 182.4 182.4 0 0 0 19.5 1.7.1.1 0 0 0 .1-.1c-.4-5.2-.7-9.9-1.1-14.1s-.8-7.6-1.3-10.4-1.2-6.2-2.3-10.1l-1-3.8a31.9 31.9 0 0 0 6.3.8 32.7 32.7 0 0 0 6.8-.9zm-3.4 15.2c.9.4 4 1.1 9.3 1.9-.2-1.5-.5-3.3-1-5.6-4.2.6-6.9 1.1-8 1.4-.4 2.4-.7 5.3-1 8.5s-.6 8.2-.9 14.7l2.4-2.4-.9.3a17 17 0 0 0 .3-2.6 8 8 0 0 0-.3-2.3 20.2 20.2 0 0 0 4.4 1.1l6.3 1-.4-6-3.2.4a38.3 38.3 0 0 0-7 1.4c.1-1.2.2-2 .2-2.6a15.2 15.2 0 0 0-.2-2.3c1.1.6 4.5 1.3 10.1 2.1l-.6-5.9c-5.4.7-8.6 1.3-9.5 1.7a15.8 15.8 0 0 0 .3-2.6 7.3 7.3 0 0 0-.3-2.2zm-23.2-8.3q-.7 2.4-1.5 5.4c3.2 1.2 8.2 2 14.7 2.4v.7c-3 .3-5.8.6-8.2 1a41 41 0 0 0-6.7 1.7 18.1 18.1 0 0 0 .4-2.9 16.6 16.6 0 0 0-.2-2.4c-.9 3.6-1.4 8.9-1.6 15.6h-.9c-.5-7.9-1.4-14.2-2.8-18.8l-.8-2.7a19.5 19.5 0 0 0 3.7.5 17.4 17.4 0 0 0 3.9-.5zM596.3 762.9a32.1 32.1 0 0 0 .7-6.8 26.4 26.4 0 0 0-.6-6.3 112.7 112.7 0 0 0 17 3.2c6.8.9 18.4 1.9 35.1 3.1a102.9 102.9 0 0 0-2.6-13 34 34 0 0 0 6.4.8 31.8 31.8 0 0 0 6.7-.7c-1.4 4.8-2.4 11.5-3.3 20.2s-1.6 21.1-2.2 37.2c-8.6.2-16 .4-22.1.7s-11.5.8-15.8 1.4a117.3 117.3 0 0 0-12.9 2.5 30 30 0 0 0 .8-6.7 25.9 25.9 0 0 0-.7-6.3l3 .8c-.3-4.2-.6-7.8-1-10.9s-.8-5.8-1.3-8.5-1.5-6.6-2.8-11.8zm22.6 14.5c.1-.7.1-1.5.2-2.3l-.2-2.3h-.2v-2h.3v-.7a52 52 0 0 0-6.8-5.3 120.3 120.3 0 0 0-2.4 13c-.6 4.6-1 9.9-1.4 15.8 3.2.7 6.6 1.4 10.2 2l.2-.4v-3.5h-.2l.2-1.1-.2-1.1h.3V788c0-1-.1-1.8-.1-2.4h-.3v-2.1h.3a16.2 16.2 0 0 0 .1-2.2V779h-.2v-1.9zm31.5-1.7-13.7 1-2.4 2.8.2.2c6.5.6 12 1 16.2 1.2zm-25.1 21c5.4.6 14.2 1.4 26.2 2.3-1.5-1.3-3.1-2.6-4.8-4.2l-5.2.4c-7.1.5-12.4 1-16.2 1.5zm25.5-14.6-13.2.9 3.4 3.5 10.1.7zm-10.5 7-4 .3c-4.6.4-8.4.7-11.3 1.2l-.5.5c6.6.9 13.3 1.5 20.1 1.9zm10-14.7c-.1-1.8-.3-3.4-.4-5l-7.2.5-3.4 3.8zm-6.4-15.7a12.7 12.7 0 0 0 3 2.7h2.2l-.4-3c-9.5.2-17.6.5-24.1.9 5 .7 11 1.3 18 1.7a12 12 0 0 0 1.3-2.3zm-21.1 6.8a152.2 152.2 0 0 0 15.9 1.7l2.4-3.6c-8.8.6-14.9 1.3-18.3 1.9zm28.4 22.8-8 .6 4 4.2 4.3.3zm-16.7-15 2.1-3c-4.8.4-8.2.7-10 1l1.3 1.3zm-.6 10-3 .3-1.6 1.9 7.8.7zm15.4-20.2a41.1 41.1 0 0 0-4.7 4.5l5.2.4zm-36.1-2.7-1 3.9a22.1 22.1 0 0 0 4.2-4.4l-11 1.2h1a30.8 30.8 0 0 0 6.8-.7zm14.2 17.1c-2.1.3-3.8.5-4.9.8l6.7.9zm24.4 20.4-.2-3.5-2.8.3zm-34.9-38a19.8 19.8 0 0 0 2.2 3v-.8l-.2-2.3zM627 784a42.3 42.3 0 0 0-4.3.7l3.6.4zM675.6 766.9a19.4 19.4 0 0 0 3.2 2.9 48.6 48.6 0 0 0 5.1 3.7l10.7 6.9a209.2 209.2 0 0 0 16.7-13.7l-4.3.5-4.4.4-4.1.5-3.5.4-2.8.4-1.6.4a29.2 29.2 0 0 0 .5-4.5 18.9 18.9 0 0 0-.5-3.9 35.3 35.3 0 0 0 5.3 1.1l15.5 2q-11.7-10.7-17.4-14.4c-5.7 3.6-10 6.4-12.7 8.4a37.9 37.9 0 0 0-5.7 4.8 23.1 23.1 0 0 0-4.6-8.3c4.4-.5 11.4-2.8 21.2-6.8a23.8 23.8 0 0 0 6.6-5.8c.4 1.3 1.7 3.4 3.8 6.3s6.1 8.1 11.9 15.3a83.2 83.2 0 0 0-1.7-10.2 23.3 23.3 0 0 0 6.2.8l4.6-.3a28.1 28.1 0 0 0 4.2-10.6 59.8 59.8 0 0 0 7.9 4.5c3.7 2 8.6 4.3 14.8 7.1s20.6 9 43.4 18.8v1.5q-38.4 16-49.5 24.1a26.8 26.8 0 0 0-2.6-8.3c-.4 5-.8 11.8-1.4 20.3l5.3.6v.8l-5.4.5-.2 3.7h-1.3l-.2-3.5-12.4.9c-11 .8-17.2 1.4-18.5 1.8a33.6 33.6 0 0 0 .5-4.5 18.9 18.9 0 0 0-.5-3.9c.9.4 4.1.9 9.6 1.4-.4-8.5-.7-16.2-1-23.2s-.8-13.2-1.3-18.5l-.3-.3c-5.4 6.6-9.3 11.4-11.7 14.6a40.7 40.7 0 0 0-4.5 7 23.7 23.7 0 0 0-7.1-6.3l.8-.4a120.7 120.7 0 0 0-12.4-4.5 55.4 55.4 0 0 0-8.8-2.2 24.9 24.9 0 0 0 4.6-8.3zm70.2-3.2c-1.4 4.7-2.7 12.8-3.8 24.3a67.5 67.5 0 0 0 8.8-1.7c3.3-.7 6.9-1.7 11-2.8l29.7-9.1-13.1-4.3c-17.7-5.8-30.2-9.8-37.6-11.9a122.9 122.9 0 0 0-16.5-4c-1 3.5-1.9 9.7-2.8 18.5s-1.7 20.9-2.6 36.5l3.7.4a19.9 19.9 0 0 0 .4-4.2 16.4 16.4 0 0 0-.4-4 35.5 35.5 0 0 0 7 2.1c3.1.8 6 1.3 8.5 1.7l-.3-8.4c-3.2.4-6.2 1-9 1.6a49.1 49.1 0 0 0-6.2 1.7 37.4 37.4 0 0 0 .5-4.5 17.2 17.2 0 0 0-.4-3.9 45.7 45.7 0 0 0 6.3 1.9q4.2 1 8.7 1.8l-.5-8.3c-3.2.5-6.1 1-8.7 1.6s-4.6 1.2-5.8 1.6a35.4 35.4 0 0 0 .5-4.5 17.4 17.4 0 0 0-.5-3.9 45.8 45.8 0 0 0 6.1 1.9 67.6 67.6 0 0 0 8.3 1.7l-.7-8c-6.5 1-11.1 2.1-13.6 3.1a34.7 34.7 0 0 0 .5-4.6 18.9 18.9 0 0 0-.5-3.9 32.4 32.4 0 0 0 5.7 1.8l7.7 1.7a104.3 104.3 0 0 0-2.1-12.2 23.7 23.7 0 0 0 6.1.8 27.7 27.7 0 0 0 5.6-.5zm-7.6 42.8a87.4 87.4 0 0 0-15.2 3.1l15.4 1.5zM880.5 764.2a18.8 18.8 0 0 0 3.5.9l-3.1-1.4h-.3q-4.4-1.8-9-3.3c-3.1-.9-7.2-2-12.3-3.2v.8a223.8 223.8 0 0 0-26 1 116.2 116.2 0 0 0-21.3 4l-5.9 1.6a36.8 36.8 0 0 0 .7-7 42.3 42.3 0 0 0-.6-7.3 139.4 139.4 0 0 0 22.8 4.5 266.4 266.4 0 0 0 27.2 1.5 28.1 28.1 0 0 0 4.2-5.7 38.8 38.8 0 0 0 2.9-6.7 118.9 118.9 0 0 0 8.9 8.2c2.5 2.2 5.4 4.4 8.4 6.6a12.3 12.3 0 0 0 .2-2c0-.5-.1-1.5-.2-2.8a19.7 19.7 0 0 0 4.3.9 44.8 44.8 0 0 0 5.9.7l4.5-3.9-10.1 1a30.7 30.7 0 0 0-4.6.9 12.9 12.9 0 0 0 .3-2.4 25.7 25.7 0 0 0-.3-2.7q2.7 1.2 16.5 2.1a26.9 26.9 0 0 0-1.3-5.1 27.5 27.5 0 0 0 3.9.4 21.3 21.3 0 0 0 3.9-.4 32 32 0 0 0-1.6 6.4 36.7 36.7 0 0 0 8.1 2.5 43.4 43.4 0 0 0 8.7 1.2v.8c-3 .3-5.7.8-8.3 1.3a65.8 65.8 0 0 0-8.7 2.8 22.7 22.7 0 0 0 .4-4.1 38.4 38.4 0 0 0-.2-3.9c-.3 1.9-.5 3.9-.7 6.1s-.5 6.5-.9 13l4.4 2.6a154.2 154.2 0 0 0 15.7-15.3l1.7.9-2.7 4.9c-3.4 6.4-5.6 10.3-6.4 11.6 2.5 4.2 5.8 9 9.8 14.5l-1.5 1.2c-4.4-3.9-7.8-6.8-10.1-8.7s-4.6-3.8-6.8-5.4a244 244 0 0 0-30.9 19.7l-.8 7.9h-1.3v-3l-.2-2.9a97.4 97.4 0 0 0-8.9 8 36.6 36.6 0 0 0-2.4-5.9 42.5 42.5 0 0 0-3.4-5.2h-11l-1.2 10.8h-1.1c-.2-4-.5-7.6-.7-10.7l-7.4.3-1.1 10.4H833c-.3-4.7-.5-8.1-.7-10.1l-7.5.7-1 9.3h-1.1l-.6-8.9a113.2 113.2 0 0 0-16.3 3.4 43 43 0 0 0 .8-7.4 29.3 29.3 0 0 0-.7-6.9l3.7 1c5 1.5 9 2.6 11.9 3.2q-1.1-8.6-2.4-12a24.2 24.2 0 0 0 4.7.5 21.3 21.3 0 0 0 4.6-.4 62.2 62.2 0 0 0-2.9 12.7l6.5 1c-.7-6.5-1.6-11.1-2.6-13.7a35.6 35.6 0 0 0 4.7.5 29.2 29.2 0 0 0 4.6-.4c-1.1 2.7-2.2 7.4-3.1 14l6.8.5c-.8-7.1-1.7-11.9-2.7-14.5a24.2 24.2 0 0 0 4.7.4 20.7 20.7 0 0 0 4.6-.4c-1.2 2.9-2.2 7.8-3.2 14.7l6.6.2c-.3-6.3-.7-12.7-1.4-19.1s-1.6-10.8-2.6-13.3a34.9 34.9 0 0 0 5.3.5 30.4 30.4 0 0 0 5.1-.5 31.7 31.7 0 0 0-1.7 5.6c-.5 2.3-.9 5.1-1.4 8.4s-1.1 9.4-2 18.5h2.5l5.4-1.2c-.3-5.3-.8-10.3-1.4-14.8a45.2 45.2 0 0 0-2.1-9.8 37.4 37.4 0 0 0 5.3.5 30.5 30.5 0 0 0 5-.4 34.7 34.7 0 0 0-2.1 7.9c-.7 3.4-1.4 8.7-2.2 15.9 2.2-.5 4.3-1 6.4-1.7-.3-3-.7-5.9-1.2-8.8a37.6 37.6 0 0 0-1.7-6.7 39 39 0 0 0 5.3.6 31.3 31.3 0 0 0 5-.5c-1.3 3.1-2.3 7.8-3.3 14.1a185.2 185.2 0 0 0 28.7-13.1l-.9-.7 1.4-1.1-3.5-1.9v.8h-1v-1.5l-9.1-4.6q-7.2.6-9.6 1.5a12.5 12.5 0 0 0 .2-2.4 16.6 16.6 0 0 0-.3-2.6zm53.2-19.8a120.2 120.2 0 0 0-2.6 15.7c-1 7.6-1.8 15.9-2.4 24.8s-1 15.9-1.1 20.5h-1.8c.1-8.7-.4-19.7-1.5-33.1s-2.3-22.7-3.7-28a26.7 26.7 0 0 0 6.4.8 31.1 31.1 0 0 0 6.7-.7zm-47.3 18.3 4.8 3.1 7.6.6-.4-4.7-4.2.3 1.7 3-.6.9-4-3.6zm11.6-5.8-4.7.3-.7 1.4 1 2 4.8.2zm-.1-.9-.6-4.5h-1.5l.5.3-2.2 3.8zm-10 1.7a48.9 48.9 0 0 0-7 1.1c1.2.5 3.9 1 8.1 1.4l-2.2-1.7zm5.9 9.8 5.3 3.2-.2-3.6zM949.4 765.9v-.4l-.6-2.4 1 .3a31.9 31.9 0 0 0 .3-4.2 27.3 27.3 0 0 0-.6-6.4 82.2 82.2 0 0 0 10.4 2.1c4.2.6 8.9 1.2 14.3 1.6s17.7 1.5 36.8 2.9c-.5-2.7-1.1-5.3-1.7-7.8a25.9 25.9 0 0 0 6.3.8 31.1 31.1 0 0 0 6.7-.7c-3.9 14-5.9 31.1-6.1 51.4h-1.5v-3.7c-5.8-.1-12.5.1-20 .3s-14.8.8-21.7 1.3a111.7 111.7 0 0 0-1.7 16.2H970a98 98 0 0 0-1.3-15.8l-8.6.9a83.3 83.3 0 0 0-1.5 14.8h-1.4a96.5 96.5 0 0 0-1-14.3 69.7 69.7 0 0 0-10.6 1.9 33.9 33.9 0 0 0 .7-6.4 38.8 38.8 0 0 0-.6-6.7 81.2 81.2 0 0 0 8.8 1.7 57.3 57.3 0 0 0-2.7-9.5l-1.5-1.2.9-.5c-.3-5.1-.5-8.6-.7-10.7a35 35 0 0 0-.9-5.5zm21.4 3.2a55.6 55.6 0 0 0-1.9 10.6 57.6 57.6 0 0 0 8.9.8c-.4-6.5-.9-11.2-1.4-14.1l-9.5.8a63.7 63.7 0 0 0-6.8 1.4 9 9 0 0 0 .3-2.5c0-.8-.1-1.4-.1-1.9l-4.8.6c.8 1.1 3.1 3.9 6.8 8.3h.1l-2.1 2.5a99.1 99.1 0 0 0-6.7 8.2l4.9.3a30.3 30.3 0 0 0 5.8-.5h.3a44.6 44.6 0 0 0 6.6.6 31.5 31.5 0 0 0 6.1-.6c-.4 1.1-1 2.9-1.7 5.3s-1.2 4.7-1.7 6.8c13.7 1.2 27.2 2 40.7 2.1a224 224 0 0 0-2.8-34.1v.5c0 .2-.1.5-.1.8l-.4 2.9v.3q-1.4 14-1.5 15.3v.5h-1.5l-6.5.4h-1.9l-4.3.4h-.9l-.8.2h-.3v-3.8l2.2.6h.3l.9.2-.2-1.9v-.6s-.1-.8-.2-2.3h-3.1l-.3 3.3h-.5V778l-3.3.4h-.2l-.3 2.8h-.5v-2.7h-.1l-2.3.2-1.3.2-.2 2.3h-.4v-.3a12.8 12.8 0 0 1-.1-1.9h-.7a29.6 29.6 0 0 0-4.3.8v2.7h-.6v-1.4a41.4 41.4 0 0 0-14.3 2.5 17 17 0 0 0 .3-2.6c0-.5-.1-1.3-.2-2.5a41.3 41.3 0 0 0 4.4 1 38.4 38.4 0 0 0-1.4-7.7l-.8-2.7a8.8 8.8 0 0 0 2.4.3 9.8 9.8 0 0 0 2-.3zm36.1-6.5h1l.3-.4h1.9l1.2-.2h.7l-.3-1.1c-15.4.3-27.3.8-35.6 1.3l1.6.2a12.4 12.4 0 0 0 2.7-.3 59 59 0 0 0-1.6 12l1.5.3 3 .5v-1l-.3-1.8v-.6a16.5 16.5 0 0 0-.8-3.6h4.1l-.4 1.2c-.3.5-.6 2.6-1.1 6.1l.9.2h2.3v-.4c-.4-3.2-.6-5-.7-5.4v-.4l-.3-1.1-.2-.4.6.2h3.6a11.9 11.9 0 0 0-.7 2.5v.5l-.3 1.8-.4 2.4v.6h.5l2.5.2V773l-.4-2.7v-.3l-.4-1.3h.3l.5.2h3.5l-.2.5-.2.5v.6l-.3 1.5-.6 4.4 2.4.4h.6v-.4l-.2-.6a19.4 19.4 0 0 0-.7-3.3v-.4h.4l2 .2h1.7v.4c-.3 1.1-.6 2.2-.8 3.2l-.3 2.6v.6l-.3 2.7v.3l1.8.3 9.6 1h.4l-.2-2.1v-1h-.8l-2.3.3-3.2.3h-.1l-1.4.2h-.1v-2.4h.1l1.1.3 2.9.5h.7l1.9.2 1.2.2-.4-2.7-4.2.3h-1.7l-1.5.2h-.1v-1.6l-.2-.8a19.9 19.9 0 0 0 4.1.9h.7l1.9.3.9.2v-1.3l-.3-1.5h-.1l-1.1.2h-4l-1.6.3h-.4v-2.6h.2l2.7.5a42.3 42.3 0 0 0 4.3.7l-.3-2.6h-2.2l-2.7.2h-2v-.6h.1a5.9 5.9 0 0 0 2 .5l2.7.5 2.1.3h.1l-.4-2.6-.2-1.6v-.3l-1.4.2-5.9.3h-.4l-11.1.6h-4.7l-1.2.2h-.2v-.9l.2-.6h1.3l-1.1-1.3v-1.2a3.7 3.7 0 0 0-.1-1.1v-1l1 .3.2.6h1.5l7.2.8 2.7.2 11.2 1zm-45.4 31.9 5.9.6a71.6 71.6 0 0 0-3-11.1 77.1 77.1 0 0 0-2.9 10.5zm-.2-21-9.2 1.1-.3 7.1 4.3-3.5c2-1.8 3.8-3.3 5.2-4.7zm-9-2c1.2.3 4.2.7 8.9 1.4-3.9-3.7-6.5-6.1-8-7.3a55.8 55.8 0 0 0-.9 5.9zm23.2-8.5-13.7 1a35 35 0 0 0 5.5.9 82.9 82.9 0 0 0 8.9.6 10.9 10.9 0 0 0-.7-2.5zm3.3 12.7v3.1l-.2 1zM1034.3 777.8a73.9 73.9 0 0 0 12.9 2.1l-3.7-2.8 5.5-4.7a103.9 103.9 0 0 0-14.7 2.3 12 12 0 0 0 .4-3.5 17.5 17.5 0 0 0-.4-4c3.7 1.1 9.6 1.9 17.7 2.5 3.4-3.3 6.4-6.3 8.8-8.9l-11.7.8a57.5 57.5 0 0 0-7 .9 76.6 76.6 0 0 0-7.7 1.6 17.9 17.9 0 0 0 .4-3.6 17.2 17.2 0 0 0-.4-3.9 63.7 63.7 0 0 0 10.7 2c3.9.5 9.7.9 17.5 1.2-.5-2.4-1.1-4.9-1.8-7.7a27.4 27.4 0 0 0 6.4.8 31.1 31.1 0 0 0 6.7-.7c-3.9 14.1-6 31.2-6.1 51.4h-1.6c0-2.7 0-6.4-.2-11h-3.2l-.3.3-.2-.2q-11 .6-17.1 1.2a74.1 74.1 0 0 0-11.1 2 12.5 12.5 0 0 0 .5-3.6 16.7 16.7 0 0 0-.4-3.9c4.6 1.3 13.4 2.3 26.6 2.9l-10-8.5c-4.3.3-7.7.7-10.2 1.1s-4.7.9-6.4 1.3a12.5 12.5 0 0 0 .4-3.5 17.5 17.5 0 0 0-.3-3.9zm36.8-7.8 3.4 1.5a57.6 57.6 0 0 0 12.5 3.7 75.3 75.3 0 0 0 14 1.2v1.9c-3.6 0-6.9.1-10.1.4a69.3 69.3 0 0 0-8.8 1.6 88.8 88.8 0 0 0-11.1 4 35.8 35.8 0 0 0 .6-7 55.8 55.8 0 0 0-.5-7.3zm-16.8 7.2 2 3.3 9.2.5c-.2-2.6-.6-5.8-1-9.6l-7.2.4zm3.2 5.2c2.1 3.1 4.2 6.2 6.5 9.2h2l-.5-9.7zm5.4-21-2.5 4.6-2.1 4.1 6 .2c-.3-2.4-.7-5.4-1.4-8.9zM1514.9 786.3l-12.4-14.6c-2-2.2-3.6-4-4.9-5.2a6.1 6.1 0 0 0-4.3-1.8 6.6 6.6 0 0 0-4.3 1.3c-1.3 1-3 2.4-5 4.2l-.7.7a10 10 0 0 1 5.5 2.1 60.5 60.5 0 0 1 4.5 4.4l14 16-4.9 4.9-13-15a41 41 0 0 0-4.9-5.1 6.1 6.1 0 0 0-4.3-1.8c-1.9-.1-4.2 1-6.8 3.3l-16.5 14.7-5.4-6 28.4-25.3a40.5 40.5 0 0 1 6.3-4.8 12.3 12.3 0 0 1 12.1-.4 32.2 32.2 0 0 1 6.4 6l15.2 17.5zM1525 756.7l23.2 26.8a69.3 69.3 0 0 0 4.8 5.2 6.5 6.5 0 0 0 4.3 1.9 7.4 7.4 0 0 0 4.3-1.4 63.2 63.2 0 0 0 4.9-4.2l31-27.8 5.5 6.1-32.3 28.9a42.2 42.2 0 0 1-6.2 4.7 12.7 12.7 0 0 1-6.7 1.8 11.3 11.3 0 0 1-5.6-1.4c-1.6-.9-3.7-2.9-6.4-6l-25.9-30zm28.2 6.8c0-4.1 1.9-6.1 5.6-6.1s5.7 2.1 5.6 6.2a6.1 6.1 0 0 1-1.7 4.7 6.3 6.3 0 0 1-4 1.4c-3.7 0-5.5-2.1-5.5-6.2zM1667.3 799.5l-23.1-26.8c-2-2.2-3.6-4-4.9-5.2a6.1 6.1 0 0 0-4.3-1.8 6.9 6.9 0 0 0-4.3 1.4 54.4 54.4 0 0 0-5 4.1l-30.9 27.8-5.4-6 32.1-28.9a66.2 66.2 0 0 1 6.3-4.8 12.4 12.4 0 0 1 6.7-1.8 11.5 11.5 0 0 1 5.3 1.3c1.6.9 3.8 2.9 6.7 6.2l25.9 30zM1780.8 792.5l-20.4-23.7a68.3 68.3 0 0 0-4.9-5.2 6.3 6.3 0 0 0-4.3-1.8 6.7 6.7 0 0 0-4.3 1.4 55.5 55.5 0 0 0-5 4.2l-7.1 6.3-5.3-6.1 8.2-7.4a52.8 52.8 0 0 1 6.3-4.8 12.8 12.8 0 0 1 6.8-1.8 10.3 10.3 0 0 1 5.2 1.3c1.6.8 3.8 2.8 6.6 6.1l23.2 26.6zm-73.3-21.9a7.2 7.2 0 0 0-4 1.2c-1.2.8-8.9 7.5-23.1 20l-5.2-6 18.9-16.9a45.5 45.5 0 0 1 6.2-4.8 12.4 12.4 0 0 1 6.7-1.8 12.1 12.1 0 0 1 5.8 1.4c1.6.9 3.6 2.9 6.2 5.8l6.7 7.9a55.9 55.9 0 0 0 4.9 5.3 6.1 6.1 0 0 0 4.3 1.8 8 8 0 0 0 4.8-1.7c1.6-1.2 5.1-4.5 10.6-9.9l5.7 5.7-7.7 7.5a31.9 31.9 0 0 1-6.1 4.9 14.1 14.1 0 0 1-6.9 1.6 10.7 10.7 0 0 1-5.3-1.3c-1.6-.9-3.8-2.9-6.5-6.1l-7.9-9.1a26.2 26.2 0 0 0-4.1-4.1 6.9 6.9 0 0 0-4-1.4zM1789.1 794.4l25.4-22.4-2.8-3.5a40.2 40.2 0 0 1-4.3-5.5 9.8 9.8 0 0 1-1.6-5.7 14.1 14.1 0 0 1 1.7-6.3c1.1-1.9 3.3-4.2 6.5-6.9a41.9 41.9 0 0 1 7.1-5.1 13.5 13.5 0 0 1 5.3-1 12.4 12.4 0 0 1 4 .7 19.4 19.4 0 0 1 3.3 2c1 .9 6.5 7.1 16.4 18.5l-5.2 4.5-9.2-10.7a36.2 36.2 0 0 0-4.6-4.8 6.7 6.7 0 0 0-4.1-1.9 8.7 8.7 0 0 0-3.5.7 23.7 23.7 0 0 0-4.4 3.4q-5.1 4.1-5.1 7.5a6.8 6.8 0 0 0 1.4 4.2 66.4 66.4 0 0 0 4.2 5.3l25 29.1-4.9 4.2-19.9-22.7-25.4 22.4z" transform="translate(-.4 -.4)"/><path class="cls-2" d="M1138.8 803c-1.4-4.2-2.9-8.6-4.5-13.1s-3.1-9-4.8-13.4-3.3-8.7-5-12.9-3.3-8-4.9-11.6q-1.5-2.8-6-3v-1.9h7.8l6.2-.3q1.7 5.6 3.6 11.4c1.2 3.9 2.4 7.7 3.7 11.4s2.6 7.3 3.9 10.7 2.4 6.4 3.5 9.1c2.5-5.2 5-10.8 7.4-16.9s4.9-12.9 7.4-20.4a2 2 0 0 0-.6-2.3 8 8 0 0 0-3.6-.8v-1.9h14.9v1.9a7.7 7.7 0 0 0-3.7 1 5.6 5.6 0 0 0-2.3 2.7l-5.1 11.5c-1.7 4.2-3.5 8.4-5.2 12.8l-5.1 13.1-4.6 12.8zM1195.9 781.5a13.2 13.2 0 0 0-.3-4.3 2.7 2.7 0 0 0-1.9-1.8 5.6 5.6 0 0 0-2-.3h-6.9l-2.5.2c0 4.5.1 8.2.2 10.8a42.8 42.8 0 0 0 .5 6.2 9.2 9.2 0 0 0 .7 2.9 7.3 7.3 0 0 0 .9 1.3c1.2 1.1 3.4 1.6 6.6 1.6h5.4l3.2-.4a4.1 4.1 0 0 0 2.5-1.3 8.8 8.8 0 0 0 2-3.7l2.9-.2a31.8 31.8 0 0 0-.6 4.3 24.9 24.9 0 0 0-.4 4.7h-32l-4.3.3v-2a9 9 0 0 0 3.7-.7 2.4 2.4 0 0 0 1.3-2.1 37.1 37.1 0 0 0 .4-3.8c0-1.4.1-3.1.1-4.9s.1-4 .2-6.4v-8.2c0-5.3 0-9.7-.1-13.1s-.3-6.2-.6-8.5a2.3 2.3 0 0 0-1.4-2.1 11 11 0 0 0-3.7-.7v-1.9h28l7.1-.3c-.4 1.9-.8 3.7-1 5.4s-.6 3.5-.8 4.9l-2.8.2a8.3 8.3 0 0 0-.1-4.6 2.5 2.5 0 0 0-2.1-1.5 24.7 24.7 0 0 0-3.8-.5h-7.7l-3.9.2c0 1.6-.1 3.2-.2 4.8s-.1 3.2-.1 4.9-.1 3.4-.1 5.3v6l2.5.2h7a5.6 5.6 0 0 0 2-.3 4.6 4.6 0 0 0 2.3-1.6 7.4 7.4 0 0 0 1.2-3.5h2.8c-.3 2.5-.5 4.9-.7 7.3s-.5 5.1-.7 7.8zM1239.7 755.6a4.5 4.5 0 0 0-.9-3.9 7.9 7.9 0 0 0-3-2 10.8 10.8 0 0 0-4.2-.8 9.3 9.3 0 0 0-4.2.9 6.4 6.4 0 0 0-2.9 2.2 6.8 6.8 0 0 0-1.8 3.2 10.9 10.9 0 0 0-.7 4 8.8 8.8 0 0 0 2.3 6.2c1.5 1.8 3.9 3.2 7.2 4.4s8.1 3.6 10.2 6a13.6 13.6 0 0 1 3.2 9.2 15.9 15.9 0 0 1-1.7 7.2 17.7 17.7 0 0 1-4.7 5.5 22.3 22.3 0 0 1-6.8 3.7 23.7 23.7 0 0 1-8.1 1.3 35.7 35.7 0 0 1-6.3-.7 17.2 17.2 0 0 1-5.3-2.1 31.8 31.8 0 0 0 1.1-3.3c.2-1 .4-2.1.7-3.4h2.8a4.4 4.4 0 0 0 1.2 3.5 8.9 8.9 0 0 0 3.6 1.9 14.3 14.3 0 0 0 3.9.6c3.7 0 6.7-1 8.8-3a10.2 10.2 0 0 0 3.1-7.7 11.2 11.2 0 0 0-2.3-6.9 18 18 0 0 0-7.6-5.1 25.6 25.6 0 0 1-9.2-5.9 12.2 12.2 0 0 1-3.3-8.8 15.9 15.9 0 0 1 1.2-6.2 15.6 15.6 0 0 1 3.6-5.3 18.3 18.3 0 0 1 5.8-3.5 23.1 23.1 0 0 1 8.2-1.4 16.9 16.9 0 0 1 6.6 1.2 13.3 13.3 0 0 1 4.3 2.7 29.6 29.6 0 0 0-1.1 3.1q-.5 1.5-.9 3.3zM1282.5 801.5l-4.5-.3h-9.4l-4.4.3v-2a9 9 0 0 0 3.7-.7 2.5 2.5 0 0 0 1.4-2.1c.1-1.1.2-2.4.3-3.8s.1-3.1.2-4.9.1-4 .2-6.4v-14.8c0-2.1-.1-4-.1-5.8s-.1-3.6-.1-5.4-.1-3.4-.3-5.1h-6.6l-5 .2a8 8 0 0 0-3.1 1.2 5.3 5.3 0 0 0-2.1 2.1 22.6 22.6 0 0 0-1.4 3.6l-2.8.2c.4-1.6.7-3.4 1-5.3s.7-3.8.9-5.5l5.8.2 5.3.2h18.7l5.9-.2 5.8-.2 6.4-.3c-.4 1.8-.8 3.6-1.1 5.4s-.5 3.5-.7 4.9l-2.9.2c.4-2.2.4-3.7 0-4.6a2.7 2.7 0 0 0-2.2-1.5l-1.8-.4h-12.5c-.1 1.7-.1 3.5-.2 5.1s-.1 3.6-.2 5.4v20.6c0 2.4.1 4.5.1 6.4s.2 3.5.3 4.9.1 2.7.2 3.8a2.4 2.4 0 0 0 1.5 2.1 9 9 0 0 0 3.7.7zM1318.6 801.5l-4.4-.3h-9.4l-4.4.3v-2a9 9 0 0 0 3.7-.7 2.5 2.5 0 0 0 1.4-2.1c.1-1.1.2-2.4.3-3.8s.1-3.1.2-4.9.1-4 .1-6.4v-21.3c-.1-3.4-.3-6.2-.6-8.5a2.4 2.4 0 0 0-1.5-2.1 10.5 10.5 0 0 0-3.7-.7v-1.9h18.3v1.9a9.9 9.9 0 0 0-3.6.7 2.4 2.4 0 0 0-1.5 2.1c-.3 2.3-.4 5.1-.5 8.5s-.2 7.8-.2 13.1c0 3.1.1 5.8.1 8.2s.1 4.5.1 6.4.1 3.5.3 4.9.1 2.7.2 3.8a2.4 2.4 0 0 0 1.5 2.1 8.5 8.5 0 0 0 3.6.7zM1340.2 801.5l-4.4-.3h-9.5l-4.3.3v-2a9 9 0 0 0 3.7-.7 2.5 2.5 0 0 0 1.4-2.1c.1-1.1.2-2.4.3-3.8s.1-3.1.2-4.9.1-4 .1-6.4v-8.2c0-5.3 0-9.7-.1-13.1s-.3-6.2-.5-8.5a2.4 2.4 0 0 0-1.5-2.1 11 11 0 0 0-3.7-.7v-1.9h5.9a82.3 82.3 0 0 0 7.4-.6l3.6-.4h3.4a30.2 30.2 0 0 1 6.8.7 18.3 18.3 0 0 1 5.5 2.4 14.2 14.2 0 0 1 3.8 4.3 14 14 0 0 1 1.3 6 12.7 12.7 0 0 1-1.3 5.8 18.5 18.5 0 0 1-3.4 4.3 17.4 17.4 0 0 1-4.5 2.9 36.3 36.3 0 0 1-4.6 1.6l11.2 17.2c1.1 1.6 2 2.9 2.8 3.9a12 12 0 0 0 2.4 2.2 7.4 7.4 0 0 0 2.2 1.4l2.4.5v2.1l-2.8-.2h-10.2c-1-1.9-2.1-4-3.4-6.3s-2.6-4.5-4.1-6.8l-4.2-7c-1.4-2.3-2.8-4.4-4.1-6.3l-.7-1.8.3-.4 3.2-.4a13.9 13.9 0 0 0 3.8-.9 10.3 10.3 0 0 0 3.5-2 9.8 9.8 0 0 0 2.6-3.6 14.8 14.8 0 0 0 1-5.6 9.9 9.9 0 0 0-3.2-7.6 12.4 12.4 0 0 0-8.1-2.7h-2.9l-2.7.4c0 1.8-.1 3.6-.1 5.3s-.2 3.4-.2 5.3-.1 3.8-.1 5.9v6.7c0 3.1 0 5.8.1 8.2s0 4.5.1 6.4.1 3.5.2 4.9.2 2.7.3 3.8a2.5 2.5 0 0 0 1.4 2.1 9 9 0 0 0 3.7.7zM1368.1 774.6a32.3 32.3 0 0 1 2.1-11.9 27.6 27.6 0 0 1 5.8-9.3 26.3 26.3 0 0 1 8.7-5.9 28.8 28.8 0 0 1 11-2.2 29.8 29.8 0 0 1 10.3 1.8 24.6 24.6 0 0 1 8.5 5.4 25.7 25.7 0 0 1 5.7 8.8 32.7 32.7 0 0 1 2.1 12.1 34.5 34.5 0 0 1-2 11.9 27.8 27.8 0 0 1-5.8 9.2 26.2 26.2 0 0 1-8.9 6.1 27.9 27.9 0 0 1-10.9 2.1 28.8 28.8 0 0 1-10.2-1.8 22.9 22.9 0 0 1-8.5-5.4 23.7 23.7 0 0 1-5.8-8.8 32.3 32.3 0 0 1-2.1-12.1zm27.3 24.2a16.4 16.4 0 0 0 13.7-6.5q4.8-6.3 4.8-18.3a39.2 39.2 0 0 0-1.2-10 25.1 25.1 0 0 0-3.7-7.9 17.1 17.1 0 0 0-14-6.8c-5.9 0-10.4 2.1-13.6 6.3s-4.9 10.5-4.9 18.4a35.8 35.8 0 0 0 1.3 10.1 21.7 21.7 0 0 0 3.7 7.8 15.3 15.3 0 0 0 5.9 5.1 17.1 17.1 0 0 0 8 1.8zM84.1 802.2V747h10.5v21.6h35.1V747h10.4v55.2h-10.4v-24H94.6v24zM155.9 802.2h49.7v-9.6h-39.2v-13.9h23.2v-9.6h-23.2v-12.5h38.4V747h-48.9zM217.9 802.2h46.2v-9.6h-35.8V747h-10.4zM272.8 802.2h46.3v-9.6h-35.8V747h-10.5zM326.6 757.2a12.6 12.6 0 0 1 1-5.5 8.3 8.3 0 0 1 2.8-3.3 10.5 10.5 0 0 1 4.2-1.6 31.6 31.6 0 0 1 5.5-.4h30.3a31.6 31.6 0 0 1 5.5.4 11.6 11.6 0 0 1 4.3 1.6 9.1 9.1 0 0 1 2.8 3.3 14.2 14.2 0 0 1 1 5.5v34.3a13.5 13.5 0 0 1-1 5.7 7.6 7.6 0 0 1-2.6 3.4 10.2 10.2 0 0 1-4.3 1.7 32.7 32.7 0 0 1-5.7.5h-30.3a30.6 30.6 0 0 1-5.6-.5 11.1 11.1 0 0 1-4.3-1.7 7.2 7.2 0 0 1-2.6-3.5 12.8 12.8 0 0 1-1-5.6zM337 756v37.2h36.5V756z" transform="translate(-.4 -.4)"/></svg>