<svg xmlns="http://www.w3.org/2000/svg" viewBox="0 0 60805 3384" transform="translate(0, 3384) scale(1, -1)">
<path d="M1773,866Q1773,815 1740,778Q1707,741 1657,734Q1636,652 1596,578Q1641,567 1670,531Q1699,495 1699,447Q1699,391 1660,352Q1620,312 1564,312Q1523,312 1491,334Q1458,356 1442,391Q1366,328 1276,291Q1318,279 1345,244Q1372,208 1372,162Q1372,106 1333,67Q1294,28 1238,28Q1219,28 1206,32L1206,-22Q1206,-35 1197,-43Q1187,-51 1176,-51L873,-51Q862,-51 853,-43Q844,-36 844,-22L844,40L824,38Q768,38 729,78Q689,117 689,173Q689,213 711,246Q732,278 766,294Q679,331 608,392Q591,357 559,335Q526,312 485,312Q429,312 390,352Q350,391 350,447Q350,495 379,531Q408,567 453,578Q413,652 392,734Q344,740 310,778Q276,816 276,867Q276,915 306,951Q336,987 381,998L382,1006Q407,1152 495,1275Q512,1334 567,1357Q743,1533 992,1545Q1008,1549 1025,1549L1058,1545Q1182,1539 1291,1490Q1400,1440 1483,1357Q1537,1332 1554,1275Q1639,1155 1667,1007L1668,998Q1713,987 1743,951Q1773,915 1773,866ZM1547,1178Q1530,1144 1498,1123Q1466,1101 1425,1101Q1384,1101 1352,1123Q1319,1145 1303,1180L1233,1096Q1284,1043 1304,972L1604,1025Q1586,1106 1547,1178ZM967,821L963,824L839,753Q872,710 918,686L967,821ZM849,325L890,315L935,562L849,325ZM1025,602L1001,603L985,517L1064,517L1048,603L1025,602ZM1012,661L1025,660L1037,661L1025,731L1012,661ZM1151,1089Q1107,1118 1053,1124L1053,981L1059,979L1151,1089ZM1103,942L1106,937L1247,962Q1232,1012 1195,1051L1103,942ZM996,1124Q942,1118 898,1089L990,979L996,981L996,1124ZM854,1051Q817,1012 802,962L943,937L946,942L854,1051ZM792,905L791,893Q791,847 810,803L934,875L934,880L792,905ZM947,304L1025,299Q1055,299 1102,304L1074,458L975,458L947,304ZM1131,686Q1177,710 1210,753L1086,824L1082,821L1131,686ZM1239,803Q1258,853 1258,893L1257,905L1116,880L1115,875L1239,803ZM1502,1259Q1502,1284 1477,1300Q1451,1315 1423,1315Q1396,1315 1374,1298Q1352,1280 1352,1259Q1352,1245 1367,1239Q1382,1233 1429,1233Q1502,1233 1502,1259ZM1144,1476Q1159,1446 1159,1415Q1159,1366 1129,1330Q1099,1294 1053,1283L1053,1183Q1127,1175 1189,1134L1293,1258Q1299,1295 1323,1323Q1346,1350 1381,1363L1384,1366Q1274,1449 1144,1476ZM1022,1494Q997,1494 975,1478Q952,1462 952,1438Q952,1422 968,1417Q984,1412 1030,1412Q1102,1412 1102,1437Q1102,1458 1080,1476Q1057,1494 1022,1494ZM905,1475Q771,1447 666,1366L668,1363Q703,1351 727,1323Q750,1295 757,1258L860,1134Q922,1175 996,1183L996,1283Q950,1294 920,1330Q890,1366 890,1415Q890,1445 905,1475ZM622,1315Q596,1315 574,1299Q551,1283 551,1259Q551,1243 568,1239Q585,1234 629,1234Q701,1234 701,1258Q701,1282 676,1299Q651,1315 622,1315ZM503,1178Q463,1105 445,1025L745,972Q765,1043 816,1096L746,1180Q730,1145 698,1123Q665,1101 624,1101Q583,1101 552,1123Q520,1144 503,1178ZM414,864Q488,864 488,890L487,896Q478,922 455,934Q431,946 408,946Q380,946 359,929Q338,911 338,890Q338,877 351,872Q364,867 373,867Q386,864 414,864ZM451,739Q467,677 496,622L760,774Q733,830 733,893L734,915L512,954Q546,916 546,867Q546,822 520,787Q493,752 451,739ZM562,470Q562,492 536,509Q510,526 485,526Q456,526 434,510Q412,493 412,470Q412,454 429,449Q446,444 491,444Q562,444 562,470ZM794,345L898,631Q833,662 788,724L529,574Q565,561 590,531Q614,500 618,460Q696,387 794,345ZM901,195Q901,213 881,233Q861,252 823,252Q798,252 775,235Q751,217 751,196Q751,179 769,175Q786,170 831,170Q901,170 901,195ZM1126,88Q1103,120 1103,162Q1103,194 1117,222L1112,247Q1070,241 1025,241Q979,241 937,247Q959,212 959,173Q959,126 928,88L1126,88ZM1159,315L1200,325L1114,561L1159,315ZM1315,185Q1315,207 1290,225Q1265,242 1235,242Q1209,242 1187,225Q1165,207 1165,186Q1165,171 1184,166Q1202,160 1243,160Q1315,160 1315,185ZM1520,574L1261,724Q1216,662 1151,631L1255,345Q1353,387 1431,460Q1435,500 1460,531Q1484,561 1520,574ZM1642,469Q1642,491 1617,509Q1592,526 1563,526Q1535,526 1513,509Q1491,491 1491,470Q1491,453 1515,449Q1538,444 1570,444Q1642,444 1642,469ZM1553,622Q1581,677 1598,739Q1556,752 1530,787Q1504,821 1504,866Q1504,916 1536,954L1315,915L1316,893Q1316,830 1289,774L1553,622ZM1631,864L1646,864Q1716,864 1716,890Q1716,910 1693,928Q1669,946 1638,946Q1611,946 1589,930Q1566,913 1566,890Q1566,873 1589,869Q1612,864 1631,864Z"  transform="translate(0, 983)"/>
<path d="M1673,380Q1686,360 1699,342Q1712,323 1723,304Q1734,284 1741,262Q1748,240 1748,215Q1748,211 1748,208Q1747,204 1747,200Q1741,135 1709,81Q1676,26 1627,-14Q1578,-54 1518,-76Q1457,-99 1395,-99Q1330,-99 1279,-73Q1228,-47 1186,-7Q1143,33 1106,80Q1068,126 1029,168Q987,212 951,260Q914,307 877,355Q867,367 864,379Q860,391 860,406Q860,414 861,423Q861,432 861,440Q861,461 855,478Q849,495 839,510Q829,525 817,539Q805,552 793,567L697,685Q678,708 658,734Q638,760 627,786Q622,796 621,809Q619,821 617,833Q615,845 612,857Q608,869 601,878Q594,887 575,912Q555,937 531,969Q507,1000 482,1034Q457,1067 438,1093Q415,1125 394,1157Q372,1189 356,1224Q339,1258 329,1297Q319,1335 319,1379Q319,1415 327,1453Q334,1490 352,1521Q370,1552 400,1572Q430,1591 474,1591Q504,1591 534,1585Q564,1578 586,1568Q647,1541 696,1498Q744,1454 786,1403Q827,1352 864,1296Q900,1240 936,1188Q944,1177 951,1167Q958,1156 966,1145L970,1139Q979,1129 993,1127Q1006,1125 1017,1120Q1034,1114 1048,1105Q1062,1095 1075,1084Q1102,1059 1126,1031Q1149,1003 1171,973Q1192,943 1213,913Q1233,882 1255,853Q1265,840 1274,828Q1282,815 1297,807Q1310,801 1324,798Q1337,794 1350,789Q1368,781 1384,766Q1399,750 1412,735Q1448,693 1483,653Q1518,613 1550,568Q1582,522 1613,473Q1644,424 1673,380ZM902,560Q914,537 936,529Q957,520 981,520Q1019,521 1058,537Q1097,552 1128,575Q1143,586 1160,599Q1176,612 1190,628Q1203,643 1212,661Q1221,679 1221,701Q1221,730 1203,762Q1185,794 1166,822Q1148,849 1130,877Q1112,905 1094,931Q1085,944 1075,960Q1065,976 1055,990Q1044,1004 1033,1014Q1022,1024 1011,1024Q1003,1024 999,1015Q994,1005 991,992Q987,978 983,963Q979,947 973,935Q957,904 939,882Q920,860 889,844Q863,830 838,820Q813,810 779,810Q774,810 769,811Q763,811 758,811Q740,811 732,803Q724,794 724,787Q724,778 732,769Q739,759 746,751Q783,706 819,664Q855,622 890,577Q894,572 897,569Q900,565 902,560ZM639,1185Q658,1185 676,1190Q693,1195 707,1205Q721,1215 730,1231Q738,1246 738,1266Q738,1302 717,1345Q695,1388 662,1425Q628,1462 586,1487Q543,1511 501,1511Q456,1511 432,1481Q407,1451 407,1405Q407,1357 427,1317Q447,1277 480,1248Q512,1218 554,1202Q595,1185 639,1185ZM1385,-16Q1399,-15 1413,-12Q1427,-9 1427,1Q1427,9 1419,18L1170,299Q1160,310 1150,321Q1139,331 1126,331Q1121,331 1104,328Q1087,325 1064,322Q1059,321 1054,321Q1048,321 1043,321Q1030,321 1026,320Q1018,318 1018,311Q1018,303 1032,285Q1046,266 1065,246Q1084,225 1102,207Q1119,188 1127,179Q1154,147 1182,113Q1209,78 1240,50Q1270,21 1306,3Q1342,-16 1385,-16ZM938,410Q943,391 960,386Q976,380 995,380Q1027,380 1069,388Q1111,396 1154,413Q1196,429 1236,454Q1275,478 1302,511Q1324,537 1340,573Q1356,609 1356,645Q1356,659 1352,679Q1348,698 1339,706Q1331,713 1319,715Q1306,717 1301,717Q1289,717 1286,708Q1282,699 1280,682Q1275,644 1253,610Q1231,575 1199,547Q1166,518 1127,498Q1088,477 1049,466Q1029,460 1008,458Q987,455 966,452Q952,450 944,444Q936,438 936,422Q936,418 938,410Z"  transform="translate(2048, 983)"/>
<path d="M1726,1135L1726,817Q1726,745 1722,718Q1718,691 1695,659L1200,-5Q1174,-40 1131,-60Q1088,-81 1043,-81Q1000,-81 964,-63L415,197Q377,215 355,248Q332,281 332,323L332,716Q332,760 362,801L859,1465Q885,1500 928,1521Q970,1541 1017,1541Q1059,1541 1095,1524L1644,1263Q1681,1246 1704,1213Q1726,1180 1726,1135ZM418,714Q418,680 452,664L1001,403Q1015,395 1043,395Q1069,395 1093,406Q1117,417 1131,436L1628,1100Q1642,1118 1642,1139Q1642,1168 1607,1185L1059,1446Q1039,1455 1017,1455Q959,1455 929,1414L431,750Q418,732 418,714ZM1641,972L1200,384Q1174,349 1134,329Q1094,308 1046,308Q1000,308 964,326L418,585L418,420Q418,388 452,372L1001,111Q1019,102 1043,102Q1069,102 1093,113Q1117,124 1131,143L1626,807Q1640,825 1640,846L1641,972ZM719,958L721,964L892,1195Q895,1199 900,1199Q903,1199 1082,1113L1202,1270Q1205,1274 1210,1274L1215,1273L1324,1221Q1329,1218 1329,1211L1327,1205L1210,1052L1381,970Q1386,967 1386,961L1384,955L1214,723Q1211,719 1205,719L1201,720L1022,806L885,627L877,623L873,624L764,676Q757,683 757,686L760,692L894,867L725,948Q719,950 719,958ZM1158,851L1162,854L1219,930L1220,934L1217,939L1149,971L1084,886L1158,851ZM955,948L1020,1033L948,1067L943,1064L887,989L885,984Q885,981 890,979L955,948Z"  transform="translate(4096, 983)"/>
<path d="M1663,1459Q1700,1459 1727,1433Q1753,1407 1753,1369L1753,91Q1753,53 1727,27Q1700,0 1663,0L385,0Q347,0 321,27Q294,53 294,91L294,1369Q294,1407 321,1433Q347,1459 385,1459L1663,1459ZM1695,1369Q1695,1383 1686,1393Q1676,1402 1663,1402L385,1402Q371,1402 361,1393Q351,1383 351,1369L351,91Q351,77 361,68Q371,58 385,58L1663,58Q1676,58 1686,68Q1695,77 1695,91L1695,1369ZM772,685Q767,685 764,689Q760,693 760,697L760,809Q760,821 772,821L1312,821Q1325,821 1325,809L1325,697Q1325,693 1321,689Q1317,685 1312,685L772,685ZM1429,621Q1441,621 1441,608L1441,255Q1441,243 1429,243L656,243Q643,243 643,255L643,608Q643,613 647,617Q651,621 656,621L1429,621ZM1276,484L809,484L804,482L802,478L802,385L804,381L809,379L1276,379L1280,381L1282,385L1282,478L1280,482L1276,484ZM1607,881L1524,745Q1521,739 1513,739Q1501,739 1418,783Q1334,826 1236,889Q1138,952 1042,1029Q950,955 866,901Q782,846 718,810Q653,774 614,757Q574,739 571,739Q564,739 561,745L480,876L477,885Q477,891 518,909L531,915Q820,1064 1034,1253L1041,1256L1048,1254Q1164,1151 1302,1061Q1439,970 1545,919Q1604,891 1606,888Q1607,884 1607,881Z"  transform="translate(6144, 983)"/>
<path d="M526,107Q365,150 283,250L281,269Q281,829 480,1121Q679,1413 1066,1413Q1238,1413 1365,1350Q1492,1286 1576,1168Q1660,1050 1708,860Q1756,670 1759,371Q1670,341 1566,299Q1571,324 1578,341L1620,428Q1666,517 1687,581Q1707,645 1707,706Q1707,779 1674,823Q1640,866 1582,866Q1538,866 1505,836Q1471,806 1461,756Q1451,705 1422,663Q1393,620 1357,578Q1299,508 1278,454Q1257,399 1257,324L1262,169Q1163,131 1050,103Q936,74 805,74L795,75L795,106L802,324Q802,452 739,533L696,587Q611,686 598,756Q587,808 554,837Q520,866 477,866Q418,866 385,821Q351,775 351,695Q351,606 385,508Q418,409 467,356Q513,306 519,288Q524,269 526,250Q528,231 528,205L528,175L526,107ZM741,76Q650,80 580,94L580,153L582,207Q582,249 576,278Q570,306 559,327Q548,347 512,388Q463,440 434,527Q405,614 405,691Q405,812 477,812Q497,812 518,798Q538,783 546,746Q558,685 591,637Q623,589 661,544Q714,478 731,435Q748,391 748,328Q748,293 741,76ZM1314,191L1311,327Q1311,434 1362,500L1407,555Q1495,660 1513,746Q1521,783 1542,798Q1562,812 1582,812Q1613,812 1634,787Q1654,762 1654,706Q1654,658 1639,606Q1623,553 1570,447Q1548,402 1530,361Q1511,320 1511,276Q1467,261 1418,237Q1369,213 1314,191ZM874,525Q874,452 907,410Q940,367 999,367Q1039,367 1074,385Q1109,403 1127,430Q1144,457 1144,516Q1144,582 1126,649Q1108,716 1077,756Q1045,795 1007,795Q963,795 936,762Q908,729 891,649Q874,568 874,525ZM671,1012Q663,1012 656,1006Q648,999 648,988Q648,972 664,967Q665,967 680,964Q695,960 721,960L737,960L754,962L753,946Q753,907 774,880Q795,853 822,853Q849,853 870,881Q891,908 891,946Q891,983 872,1010Q891,1028 905,1052Q919,1075 919,1083L919,1087Q919,1096 913,1104Q907,1112 896,1112Q877,1112 866,1075L710,1007L671,1012ZM1144,1112Q1136,1112 1129,1105Q1121,1098 1121,1089L1122,1083Q1122,1075 1135,1052Q1148,1028 1168,1010Q1150,984 1150,946Q1150,908 1170,881Q1190,853 1218,853Q1245,853 1266,881Q1287,908 1287,946L1286,962L1303,960L1319,960Q1345,960 1360,964Q1375,967 1377,967Q1393,971 1393,990Q1393,1000 1386,1006Q1378,1012 1370,1012L1330,1007L1175,1075Q1169,1087 1165,1100Q1160,1112 1144,1112Z"  transform="translate(8192, 983)"/>
<path d="M1840,609Q1840,592 1828,580Q1815,567 1798,567Q1778,567 1766,582Q1701,663 1599,682Q1599,514 1522,384Q1444,254 1320,192Q1195,129 1045,129Q936,129 832,161L832,149Q832,70 881,-15Q886,-27 886,-36Q886,-53 875,-65Q863,-77 844,-77Q819,-77 808,-56Q749,47 749,149L752,193Q623,256 527,375Q504,321 504,252L507,201Q507,184 497,173Q487,161 470,159L465,159Q443,159 432,180Q421,200 421,252Q421,373 478,458Q420,579 420,697Q420,774 436,858L352,887Q330,895 325,922L309,1088L309,1092Q309,1109 321,1121Q333,1133 350,1133Q366,1133 378,1123Q390,1113 392,1096L405,957L464,936L474,950L471,979Q471,1105 585,1201Q568,1215 543,1223Q504,1235 504,1258Q504,1269 513,1278Q522,1286 534,1286Q555,1286 590,1270Q625,1253 641,1246L644,1245Q710,1288 784,1312L782,1357Q782,1441 820,1441Q847,1441 847,1400L846,1367L850,1330Q893,1339 935,1339Q1042,1339 1112,1284L1129,1349L1020,1438Q1005,1450 1005,1470Q1005,1488 1017,1500Q1029,1512 1046,1512Q1061,1512 1073,1503L1203,1397Q1219,1384 1219,1365L1192,1263Q1263,1246 1340,1200Q1417,1154 1486,1050Q1506,1054 1533,1054Q1632,1054 1736,997Q1757,986 1757,959Q1757,940 1744,929Q1731,918 1716,918Q1706,918 1696,923Q1612,970 1532,970L1543,949Q1582,864 1594,767Q1737,747 1830,636Q1840,625 1840,609ZM1008,214L1027,213L1045,213Q1167,213 1268,259L1090,579Q1055,568 1023,568Q951,568 906,609Q861,649 861,714Q861,793 934,847Q922,868 900,904Q878,939 863,978Q659,900 558,900L541,900Q538,899 536,897Q534,894 521,849Q507,803 507,777L508,762Q567,814 632,814Q678,814 710,780Q742,746 742,692Q742,623 690,567Q637,511 572,511L544,514Q606,371 749,289Q755,348 811,396Q866,443 932,443Q979,443 1011,409Q1043,375 1043,319Q1043,261 1008,214ZM1317,286Q1374,323 1424,389Q1473,455 1492,520L1482,519L1472,519Q1417,519 1375,552Q1333,584 1333,632Q1333,685 1388,734Q1442,782 1500,782L1508,782Q1491,876 1438,969L1418,1001Q1395,961 1351,937Q1307,912 1260,912Q1204,912 1169,946Q1134,979 1134,1027Q1134,1072 1162,1112Q1189,1152 1230,1163Q1182,1186 1147,1186L1143,1186L1139,1182L1135,1176Q1074,1079 903,996L910,987Q918,977 981,872Q1009,884 1039,884Q1104,884 1156,837Q1208,790 1208,727Q1208,689 1188,657Q1167,624 1140,604L1240,433L1317,286ZM872,1229Q872,1205 892,1184Q912,1163 939,1163Q962,1163 974,1177Q986,1191 986,1209Q986,1234 966,1255Q946,1275 918,1275Q896,1275 884,1261Q872,1247 872,1229ZM585,1077Q585,1047 604,1029Q623,1010 643,1010Q664,1010 677,1028Q689,1045 689,1066Q689,1096 671,1115Q652,1133 632,1133Q610,1133 598,1117Q585,1101 585,1077Z"  transform="translate(10240, 983)"/>
<path d=""  transform="translate(12288, 983)"/>
<path d="M1611,98Q1611,85 1603,77Q1594,69 1583,69L1270,69Q1254,69 1245,83L851,713L851,98Q851,86 843,78Q834,69 822,69L542,69Q530,69 522,78Q514,86 514,98L514,1390Q514,1402 522,1410Q530,1418 542,1418L822,1418Q834,1418 843,1410Q851,1402 851,1390L851,885L1197,1406Q1204,1418 1220,1418L1533,1418Q1544,1418 1553,1411Q1561,1403 1561,1390Q1561,1380 1556,1374L1177,800L1607,113Q1611,108 1611,98Z"  transform="translate(12820, 983)"/>
<path d="M1663,1459Q1700,1459 1727,1433Q1753,1407 1753,1369L1753,91Q1753,53 1727,27Q1700,0 1663,0L384,0Q347,0 321,27Q294,53 294,91L294,1369Q294,1407 321,1433Q347,1459 384,1459L1663,1459ZM1696,1369Q1696,1383 1687,1393Q1677,1402 1663,1402L384,1402Q370,1402 361,1393Q352,1383 352,1369L352,91Q352,77 361,67Q370,57 384,57L1663,57Q1677,57 1687,67Q1696,77 1696,91L1696,1369ZM1508,865Q1526,865 1526,847L1526,748Q1526,730 1508,730L1399,730L1399,616L1475,616Q1493,616 1493,599L1493,500Q1493,493 1488,488Q1483,482 1475,482L613,482Q594,482 594,500L594,599Q594,605 600,611Q605,616 613,616L689,616L689,730L579,730Q571,730 566,736Q561,741 561,748L561,847Q561,854 566,860Q571,865 579,865L689,865L689,995L655,913Q650,901 637,901L517,951Q506,956 506,967L620,1242Q625,1253 638,1253L644,1252L758,1204Q768,1199 768,1187Q768,1182 747,1132L1475,1132Q1493,1132 1493,1114L1493,1015Q1493,1007 1488,1002Q1482,997 1475,997L1399,997L1399,865L1508,865ZM791,391L790,385L726,233Q721,221 709,221L610,262Q599,266 599,279L600,286L664,438Q669,449 682,449L688,448L781,409Q791,404 791,391ZM1497,275Q1497,264 1485,257L1390,226L1384,225Q1369,225 1367,237L1315,394L1314,399Q1314,413 1326,416L1422,448L1427,449Q1439,449 1444,437L1496,280L1497,275ZM1023,267L1023,263Q1023,249 1009,245L912,222L908,221Q893,221 891,236L852,396L851,399Q851,413 865,417L962,441L966,441Q980,441 984,428L1023,267ZM1258,267Q1258,253 1244,251L1148,225L1142,224Q1128,224 1126,237L1083,396L1082,401Q1082,412 1095,419L1192,444L1197,445Q1210,445 1214,432L1257,273L1258,267ZM1071,997L1013,997L1013,865L1071,865L1071,997ZM1262,997L1207,997L1207,865L1262,865L1262,997ZM825,865L876,865L876,997L825,997L825,865ZM1013,616L1071,616L1071,730L1013,730L1013,616ZM1262,730L1207,730L1207,616L1262,616L1262,730ZM825,616L876,616L876,730L825,730L825,616Z"  transform="translate(14868, 983)"/>
<path d="M1773,734Q1773,572 1724,413Q1675,253 1607,175Q1539,96 1434,55Q1329,14 1194,14Q1070,14 965,44Q859,74 776,140Q692,205 646,298Q599,391 597,520L497,516Q349,516 265,565Q181,614 181,705Q181,772 233,820Q285,868 360,868Q397,868 439,860Q481,852 574,829L644,814Q677,930 748,1047Q818,1163 908,1237L910,1430Q910,1454 934,1461Q1154,1521 1158,1521Q1168,1521 1179,1514L1341,1384Q1350,1376 1352,1364L1361,1308Q1480,1264 1575,1196Q1670,1128 1722,1008Q1773,888 1773,734ZM1480,360Q1480,393 1439,414L1419,425L1391,445Q1342,486 1254,529Q1247,538 1243,570Q1229,649 1182,649Q1203,620 1203,581Q1203,527 1144,527Q1099,527 1079,549Q1059,570 1046,578Q1032,585 1016,585Q1001,577 981,573Q961,568 853,549Q745,529 671,524Q646,505 646,478Q646,464 654,456Q661,448 671,444Q680,439 688,436Q695,432 695,427Q695,419 688,402Q681,385 681,368Q681,356 689,347Q697,338 712,338Q747,338 814,405Q845,438 888,460Q930,481 975,481Q1063,481 1166,353Q1232,270 1269,239Q1305,207 1327,207Q1350,207 1354,231Q1355,239 1361,245Q1366,251 1396,259Q1425,267 1434,286L1438,313Q1443,321 1450,323Q1469,329 1475,338Q1480,346 1480,360ZM1717,754Q1717,848 1693,932Q1668,1015 1630,1065Q1591,1114 1579,1114Q1571,1114 1571,1105Q1571,1097 1577,1089Q1593,1068 1593,1049Q1593,1040 1585,1032Q1577,1024 1577,1015Q1577,1002 1597,979Q1617,954 1617,941Q1617,931 1600,919Q1583,906 1583,897Q1583,882 1601,854Q1619,826 1619,806Q1619,791 1606,783Q1593,775 1593,757Q1593,728 1618,689Q1652,627 1652,582Q1652,535 1667,522Q1698,556 1706,634L1711,673Q1717,709 1717,754ZM1261,1365L1152,1453L973,1405L973,1282L972,1274L1169,1220L1159,1253L1132,1336L1127,1353L1123,1373Q1123,1383 1133,1383L1182,1378Q1227,1374 1261,1365ZM1112,197Q1112,216 1093,231Q1074,246 1055,246L1037,245Q1025,245 1001,262Q976,279 957,279Q942,279 916,267L906,265Q897,265 887,271Q877,276 866,276Q843,276 843,249Q843,235 863,197Q883,158 906,134Q929,109 950,109Q968,109 990,118L1048,139Q1112,161 1112,197ZM1207,767Q1207,728 1251,698Q1294,667 1339,667Q1370,667 1395,680Q1420,692 1431,711Q1442,729 1442,767Q1442,829 1388,829L1354,826L1319,821L1285,819Q1245,819 1226,807Q1207,795 1207,767ZM1486,974Q1486,1003 1467,1016Q1448,1029 1428,1029Q1406,1029 1336,1005Q1266,981 1230,956Q1193,931 1193,909Q1193,885 1245,885Q1295,885 1348,897L1403,908Q1452,915 1469,932Q1486,948 1486,974ZM754,871Q754,844 774,823Q794,802 817,791Q892,785 917,785Q974,804 974,847Q974,870 921,898L854,941Q832,956 813,956Q787,956 771,924Q754,892 754,871ZM919,1126Q890,1126 868,1106Q846,1085 846,1058Q846,1041 860,1031Q873,1021 885,1011Q896,1000 915,986Q934,971 971,948Q1007,925 1015,931Q1041,931 1041,962Q1039,981 1017,1024Q994,1066 967,1096Q939,1126 919,1126ZM985,1221L1010,1175L1203,1115L1307,1228L1298,1294L1198,1176Q1192,1168 1180,1168L1173,1169L985,1221Z"  transform="translate(16916, 983)"/>
<path d="M1736,806Q1736,444 1422,282Q1184,160 943,160Q743,160 594,241Q445,321 386,458Q362,512 362,699Q362,744 374,776Q385,808 424,825L1516,1310Q1533,1317 1551,1317Q1628,1317 1667,1188L1686,1122Q1736,955 1736,806ZM1335,1010Q1294,1010 1294,987Q1294,967 1316,950Q1338,933 1362,933Q1375,933 1388,943Q1401,952 1401,966Q1401,986 1380,998Q1359,1010 1335,1010ZM1270,772Q1303,772 1303,803Q1303,827 1280,847Q1257,866 1233,866Q1213,866 1213,841Q1213,817 1231,795Q1248,772 1270,772ZM1100,724Q1100,745 1088,768Q1076,791 1063,791Q1049,791 1038,773Q1027,754 1027,731Q1027,715 1036,698Q1044,681 1065,681Q1081,681 1091,695Q1100,709 1100,724ZM876,713Q899,713 913,737Q926,760 926,782Q926,817 904,817Q885,817 865,796Q845,774 845,749Q845,735 854,724Q862,713 876,713ZM582,333Q579,348 565,362Q551,374 551,389L551,412Q551,425 544,431L530,445Q518,460 518,498Q518,513 503,533Q488,553 488,575L488,587L489,597Q460,633 434,673L437,594Q437,509 452,486Q493,395 582,333ZM766,330L769,352Q695,391 625,452L624,441Q624,412 647,392Q671,371 673,359L675,340L678,321Q681,312 697,298Q724,274 736,261Q780,249 810,244L810,254L809,264Q806,277 786,295Q766,313 766,330ZM916,232Q1018,232 1094,246Q1005,258 870,307Q870,292 889,277Q916,255 916,237L916,232ZM1663,804Q1663,872 1653,939Q1642,1005 1616,1103Q1590,1201 1576,1223Q1562,1245 1551,1245L1547,1245L1491,1220Q1527,1156 1556,1045Q1584,933 1584,832Q1584,722 1539,616Q1493,510 1401,454Q1308,398 1174,398Q1064,398 949,440Q834,482 736,560Q638,637 579,729L536,796L450,758Q487,685 558,602Q629,518 709,459Q788,399 866,370Q1061,296 1186,296Q1309,296 1426,367Q1543,438 1603,547Q1663,655 1663,804Z"  transform="translate(18964, 983)"/>
<path d="M1008,0L96,0L96,156L446,537Q610,714 663,789Q715,864 741,934Q766,1004 766,1085Q766,1198 702,1264Q638,1329 530,1329Q435,1329 359,1291Q282,1252 213,1192L111,1311Q302,1483 532,1483Q726,1483 838,1378Q950,1272 950,1092Q950,1000 917,912Q884,824 821,733Q757,642 600,473L319,174L319,166L1008,166L1008,0Z"  transform="translate(21012, 983)"/>
<path d="M1384,250Q1404,250 1417,232Q1430,213 1430,194Q1430,168 1417,157Q1404,145 1365,145Q1322,145 1282,135Q1186,119 1137,74Q1079,24 1000,-2Q921,-29 839,-29Q725,-29 634,20Q542,68 468,161Q393,254 349,378Q304,502 304,615L304,640Q304,700 319,700Q326,700 332,692Q346,674 383,660Q419,645 467,645Q519,645 571,653Q622,661 675,661Q816,661 937,610Q1057,559 1128,468Q1198,376 1205,260Q1205,201 1242,201Q1334,222 1352,236L1372,248L1384,250ZM1625,782Q1612,690 1539,592Q1466,493 1361,431Q1349,424 1337,416Q1325,408 1311,408Q1289,408 1289,426Q1289,435 1301,445L1377,511Q1465,585 1511,728Q1582,755 1625,782ZM1787,1131Q1787,1002 1703,907Q1619,811 1449,758Q1279,705 1062,705Q946,705 848,733Q750,761 702,810Q654,858 654,923Q654,977 689,1020Q724,1062 789,1093Q853,1123 943,1141Q1032,1158 1092,1158Q1250,1158 1350,1131Q1449,1104 1521,1043Q1483,1015 1421,991Q1295,1079 1090,1079Q984,1079 906,1052Q828,1024 828,973Q828,935 893,913Q958,891 1062,891Q1339,891 1497,972Q1655,1053 1655,1201Q1655,1266 1619,1320Q1582,1373 1521,1414Q1459,1455 1366,1486Q1273,1516 1120,1534Q1080,1534 1080,1549Q1080,1561 1113,1564Q1176,1564 1289,1543Q1402,1521 1498,1482Q1593,1442 1657,1390Q1720,1338 1754,1273Q1787,1207 1787,1131Z"  transform="translate(22140, 983)"/>
<path d=""  transform="translate(24188, 983)"/>
<path d="M1294,1223L1297,1144Q1297,1095 1244,1067L1670,124Q1676,110 1676,95Q1676,55 1637,19Q1597,-17 1542,-17Q1485,-17 1464,25L1001,944L998,942L989,938Q959,923 935,923Q915,923 873,942L857,945Q838,945 822,914Q784,839 773,832Q767,826 623,754Q597,742 578,742Q531,742 511,781L322,1154Q315,1167 315,1183Q315,1206 329,1228Q342,1249 367,1261Q457,1307 503,1331Q549,1354 598,1352L659,1347Q685,1347 718,1359Q751,1371 774,1386L779,1388Q755,1419 755,1445Q755,1487 848,1531Q940,1574 993,1574Q1016,1574 1031,1567Q1046,1559 1056,1527Q1167,1577 1304,1577Q1531,1577 1690,1447Q1699,1440 1699,1423Q1699,1398 1666,1374Q1632,1349 1581,1349Q1545,1349 1511,1359Q1476,1368 1438,1368Q1365,1368 1330,1335Q1294,1301 1294,1223Z"  transform="translate(24720, 983)"/>
<path d="M1464,523L1575,615Q1592,629 1612,629Q1644,629 1660,603Q1676,576 1676,497Q1676,377 1628,280Q1580,182 1488,114Q1396,45 1268,12Q1140,-22 1021,-22Q842,-22 691,41Q540,104 454,219Q367,333 367,476Q367,630 439,630Q458,630 471,620L577,551Q562,601 556,652Q443,682 362,790Q280,897 280,1017Q280,1106 340,1106Q364,1106 388,1093Q411,1080 431,1068Q496,1029 596,1003L605,1002Q632,1074 664,1130Q695,1186 757,1248Q818,1310 882,1335Q945,1360 1025,1360Q1123,1360 1191,1330Q1259,1299 1327,1216Q1394,1132 1443,1001Q1549,1026 1620,1068Q1640,1080 1664,1093Q1687,1106 1711,1106Q1770,1106 1770,1017Q1770,943 1733,863Q1696,783 1634,728Q1571,672 1495,652Q1486,575 1464,523ZM1234,562L1025,443L798,562L634,443L439,572Q426,524 426,476Q426,378 476,294Q526,209 614,150Q702,90 813,64Q924,37 1021,37Q1116,37 1212,58Q1308,79 1386,120Q1464,160 1514,211Q1563,262 1590,337Q1617,412 1617,498L1612,570L1442,429L1234,562ZM1210,1008Q1210,983 1226,967Q1241,950 1260,950Q1278,950 1290,965Q1302,980 1302,1000Q1302,1026 1287,1043Q1271,1060 1252,1060Q1235,1060 1223,1045Q1210,1030 1210,1008ZM912,891Q912,884 917,879L970,815L982,799Q1004,763 1026,761Q1040,761 1046,770Q1052,778 1059,786Q1066,794 1102,835Q1138,876 1138,892Q1138,910 1085,971L1063,998Q1055,1007 1047,1021Q1038,1035 1025,1035Q1016,1035 987,998L927,921Q918,912 915,903L912,891ZM752,1001Q752,981 764,966Q775,950 795,950Q814,950 830,967Q845,983 845,1008Q845,1028 834,1044Q822,1060 802,1060Q782,1060 767,1042Q752,1024 752,1001ZM962,892L963,900L971,909Q1012,961 1024,961Q1032,961 1037,955L1058,934Q1089,905 1089,895Q1089,890 1077,879Q1064,867 1056,859Q1053,854 1044,845Q1034,835 1028,835Q1015,835 1009,843Q985,872 962,892ZM1509,1194Q1486,1194 1470,1211Q1453,1228 1453,1251Q1453,1265 1459,1277L1535,1423Q1551,1453 1585,1453Q1600,1453 1613,1446Q1626,1439 1653,1406Q1680,1373 1702,1335Q1724,1297 1724,1279Q1724,1258 1711,1242Q1698,1226 1678,1223L1519,1195L1509,1194ZM1668,1279Q1629,1353 1585,1397L1509,1251L1668,1279ZM1186,1575Q1186,1642 1311,1642Q1356,1642 1389,1631Q1410,1629 1425,1613Q1439,1597 1439,1575L1439,1496Q1439,1456 1403,1443L1303,1405L1283,1402Q1265,1402 1251,1413Q1236,1423 1230,1440L1189,1556L1186,1575ZM1311,1586Q1279,1586 1242,1575L1283,1458L1383,1496L1383,1575Q1378,1575 1360,1581Q1341,1586 1311,1586ZM379,1299Q379,1313 391,1341Q402,1369 423,1395Q444,1420 467,1437Q489,1454 533,1476L554,1480Q588,1480 605,1449L645,1369Q651,1357 651,1343Q651,1330 645,1318L605,1238Q587,1207 554,1207L539,1209L420,1244Q401,1250 390,1265Q379,1280 379,1299ZM554,1264L594,1343L554,1424Q512,1405 480,1371Q447,1337 436,1298L554,1264Z"  transform="translate(26768, 983)"/>
<path d="M1729,1140Q1729,1044 1697,972Q1627,821 1625,631Q1625,549 1610,514Q1594,478 1563,478Q1509,478 1509,562L1510,608Q1510,711 1493,752Q1476,793 1445,793Q1426,793 1405,772Q1384,751 1358,703Q1331,654 1284,515Q1241,389 1198,325Q1110,195 965,127Q819,58 634,58Q534,58 440,81Q346,104 321,133Q295,162 295,205Q295,276 403,389Q500,492 599,622Q643,681 752,782Q866,886 910,937Q954,988 1019,1092Q1113,1242 1158,1299Q1203,1355 1259,1406Q1314,1456 1363,1479Q1412,1501 1461,1501Q1574,1501 1652,1399Q1729,1296 1729,1140ZM1514,1319Q1514,1354 1490,1373Q1465,1392 1425,1392Q1354,1392 1275,1313Q1196,1234 1058,1000Q1010,918 922,820Q833,722 809,699Q728,619 728,557Q728,528 741,515Q754,501 785,493Q797,526 829,558Q860,589 925,636Q1000,689 1071,782Q1141,874 1231,1021Q1257,1064 1342,1188Q1425,1309 1495,1309L1514,1307L1514,1319ZM1500,1228Q1500,1246 1477,1246Q1454,1246 1433,1222Q1360,1140 1270,986Q1149,782 1094,715Q1038,648 911,550Q872,522 864,511Q856,499 856,488Q856,480 866,480Q944,480 1005,511Q1066,542 1117,597Q1168,652 1247,788L1346,953L1468,1154Q1480,1172 1488,1192Q1490,1200 1495,1210Q1500,1219 1500,1228Z"  transform="translate(28816, 983)"/>
<path d="M268,1250Q268,1271 297,1313Q326,1354 356,1380Q369,1391 383,1405Q396,1419 416,1419Q448,1419 478,1374Q501,1345 518,1314L588,1190Q603,1161 619,1131Q634,1100 634,1093Q634,1080 623,1068Q612,1055 599,1055L588,1057Q515,1089 448,1129Q380,1168 311,1208Q298,1216 283,1225Q268,1233 268,1250ZM515,408Q527,408 539,397Q550,386 550,373Q550,364 544,357Q499,298 448,247L326,124Q316,114 302,114Q283,114 253,146Q222,178 199,224Q192,237 185,250Q177,263 177,278Q177,328 315,359L361,371Q397,382 453,395Q508,408 515,408ZM1448,1055Q1435,1055 1424,1067Q1413,1079 1413,1093Q1413,1104 1426,1127L1459,1190L1530,1314Q1543,1339 1560,1363Q1577,1386 1593,1403Q1609,1419 1628,1419Q1647,1419 1661,1407Q1675,1395 1697,1375Q1719,1354 1739,1328Q1759,1301 1771,1277Q1782,1252 1778,1250Q1778,1246 1777,1243Q1776,1239 1775,1236Q1773,1233 1771,1230Q1768,1227 1765,1225Q1761,1223 1618,1139Q1474,1055 1448,1055ZM1870,279Q1870,263 1846,219Q1821,174 1794,144Q1766,114 1745,114Q1731,114 1721,124Q1711,134 1703,143Q1651,195 1600,247Q1548,298 1503,357Q1497,364 1497,373Q1497,386 1509,397Q1520,408 1532,408Q1544,408 1595,396Q1646,384 1685,371L1710,365Q1774,351 1822,329Q1870,306 1870,279ZM1477,81Q1477,66 1466,55Q1454,44 1440,44Q1430,44 1421,50L1024,302L626,50Q617,44 607,44Q592,44 581,55Q570,66 570,81Q570,86 684,549L325,847Q312,857 312,875Q312,889 322,899Q331,909 345,911L813,949L990,1379Q1000,1402 1024,1402Q1047,1402 1057,1379L1234,949L1702,911Q1716,909 1726,899Q1735,889 1735,875Q1735,857 1722,847L1364,549Q1477,86 1477,81ZM1024,454L1298,280L1220,596L1467,801L1145,827L1024,1124L902,827L580,801L827,596L750,280L1024,454Z"  transform="translate(30864, 983)"/>
<path d="M1345,1035Q1447,919 1447,755Q1447,638 1390,541Q1332,443 1232,388Q1131,333 1010,333Q816,333 696,448Q575,563 575,752Q575,869 632,967Q689,1065 790,1120Q890,1175 1012,1175Q1124,1175 1223,1128L1186,1082Q1105,1117 1012,1117Q901,1117 816,1070Q730,1023 682,938Q633,853 633,752Q633,585 735,488Q837,390 1010,390Q1113,390 1201,437Q1289,484 1340,568Q1390,651 1390,755Q1390,892 1307,992L1345,1035ZM802,749Q802,836 863,897Q923,957 1013,957Q1047,957 1079,948L1021,878Q986,837 973,815Q960,793 960,773Q960,744 981,727Q1001,709 1027,709Q1058,709 1085,740L1197,865Q1237,798 1237,732Q1237,649 1173,591Q1109,532 1018,532Q923,532 863,595Q802,657 802,749ZM1777,1385Q1777,1352 1742,1317L1657,1228Q1634,1202 1610,1181Q1584,1155 1566,1148Q1548,1141 1530,1138Q1665,962 1665,736Q1665,555 1584,408Q1503,261 1357,179Q1210,96 1027,96Q839,96 682,174Q525,252 436,393Q346,534 346,709Q346,909 434,1065Q522,1221 682,1305Q841,1388 1048,1388Q1177,1388 1297,1332L1294,1361Q1294,1399 1320,1434L1341,1465L1433,1591Q1465,1639 1507,1639Q1534,1639 1554,1619Q1573,1599 1580,1566L1589,1525L1596,1485Q1619,1478 1628,1458L1632,1457L1644,1457L1695,1458Q1733,1458 1755,1437Q1777,1416 1777,1385ZM1351,1362Q1351,1338 1370,1262L1540,1469Q1526,1582 1507,1582Q1501,1582 1497,1579Q1492,1576 1429,1492Q1365,1407 1355,1382Q1351,1374 1351,1362ZM1607,736Q1607,959 1455,1139L1395,1141L1390,1141L1051,757Q1041,744 1027,744Q1014,744 1005,753Q996,761 996,774Q996,788 1007,802L1326,1202Q1319,1213 1317,1229Q1315,1244 1312,1258Q1249,1295 1188,1313Q1126,1330 1048,1330Q859,1330 713,1254Q566,1177 485,1035Q404,892 404,709Q404,549 486,422Q568,294 712,224Q855,153 1027,153Q1200,153 1332,229Q1464,304 1536,438Q1607,571 1607,736ZM1720,1386Q1720,1400 1695,1400L1615,1400L1439,1197L1494,1194L1501,1194Q1527,1194 1539,1199Q1551,1204 1569,1221Q1601,1253 1634,1285Q1667,1317 1695,1351Q1701,1358 1711,1367Q1720,1376 1720,1386Z"  transform="translate(32912, 983)"/>
<path d="M1770,797Q1770,771 1738,749Q1794,656 1794,618Q1794,583 1760,583Q1736,583 1697,610Q1658,637 1613,684Q1484,628 1310,588Q1425,253 1425,129Q1425,-1 1325,-1Q1232,-1 1108,143Q983,287 870,528L745,524Q590,524 472,549Q353,574 291,618Q229,662 229,717Q229,743 246,769Q262,794 291,816Q319,838 360,858Q401,877 408,877Q417,807 490,746Q562,684 592,684Q605,684 627,708Q649,731 649,741Q649,751 643,759Q637,766 619,776Q569,805 533,852Q497,899 491,956Q581,1012 707,1012Q694,1090 694,1166Q694,1306 740,1391Q786,1476 863,1476Q932,1476 1018,1348Q1104,1219 1189,961Q1399,923 1581,883Q1597,901 1641,941Q1684,981 1718,998Q1751,1014 1778,1014Q1816,1014 1816,982Q1816,945 1748,836Q1770,816 1770,797ZM762,713Q762,727 752,734Q741,740 729,740Q711,740 695,719Q679,698 679,680Q679,651 712,651Q733,651 748,675Q762,699 762,713ZM784,668Q784,658 791,651Q797,644 808,644Q827,644 845,662Q862,679 862,702Q862,730 833,730Q813,730 799,709Q784,688 784,668Z"  transform="translate(34960, 983)"/>
<path d=""  transform="translate(37008, 983)"/>
<path d="M1725,641Q1725,500 1677,384Q1628,267 1540,204L1473,155Q1374,80 1296,58Q1218,35 1090,35Q1015,35 890,49Q765,62 664,114Q562,166 486,249Q410,331 366,439Q322,547 322,672Q322,772 347,892Q371,1012 434,1110Q496,1208 589,1280Q681,1352 790,1386Q898,1419 1021,1419Q1183,1419 1311,1377Q1438,1335 1517,1258Q1595,1180 1648,1049Q1700,918 1722,709L1725,641ZM1636,678Q1636,764 1603,898Q1569,1031 1523,1113Q1476,1194 1412,1240Q1395,1232 1379,1223Q1362,1213 1344,1208Q1324,1203 1305,1193Q1286,1182 1269,1182Q1253,1182 1243,1203Q1233,1224 1233,1265Q1233,1309 1239,1316Q1169,1332 1062,1332Q893,1332 765,1281Q636,1229 569,1137Q541,1099 515,1063Q489,1027 471,982Q418,855 418,662Q418,502 494,391Q569,280 671,219Q772,157 903,140Q878,156 854,184Q829,212 829,236Q829,253 863,278Q897,302 925,302Q945,302 974,278Q1003,253 1015,237Q1027,221 1027,211Q1027,192 1003,171Q978,150 944,135Q1038,123 1104,123Q1171,123 1226,137Q1280,150 1331,176Q1382,202 1465,264Q1547,326 1592,433Q1636,540 1636,678ZM1527,860Q1527,842 1508,832Q1489,821 1437,821Q1412,821 1399,831Q1386,840 1382,860Q1377,879 1372,906Q1367,933 1369,953Q1369,966 1396,976Q1423,985 1460,985Q1476,985 1483,979Q1493,974 1509,934Q1525,894 1527,860ZM957,957Q957,935 955,924Q952,913 947,908Q941,903 898,892Q855,881 801,881Q781,881 774,894Q766,907 766,943Q766,964 768,981Q769,998 772,1010Q775,1021 779,1025Q783,1028 836,1041Q889,1054 909,1055Q932,1055 942,1041Q952,1027 952,1014L957,957ZM729,581Q728,556 720,531Q711,506 693,500Q675,493 647,493Q556,493 556,541Q556,558 565,575L579,605Q588,628 617,628L660,625L703,620Q729,614 729,581ZM1379,511Q1379,500 1376,491Q1372,481 1360,458Q1348,435 1329,428Q1310,421 1281,421Q1229,421 1214,433Q1157,490 1157,521Q1157,539 1195,571Q1215,588 1231,601Q1246,613 1269,613Q1317,613 1358,554Q1365,543 1372,535Q1379,526 1379,511ZM1309,233Q1309,214 1293,204Q1277,193 1260,193Q1243,193 1226,200Q1209,207 1209,221Q1209,238 1228,250Q1247,262 1268,262Q1285,262 1297,254Q1309,245 1309,233ZM1406,372Q1423,372 1441,367Q1458,361 1458,347Q1458,318 1421,318Q1404,318 1389,325Q1373,332 1373,345Q1373,372 1406,372ZM1566,501Q1566,471 1528,471Q1511,471 1499,480Q1487,488 1487,499Q1487,524 1526,524Q1566,524 1566,501ZM1064,400Q1064,366 1030,366Q1011,366 998,375Q985,384 985,398Q985,414 1000,421Q1015,428 1032,428Q1064,428 1064,400ZM1338,698Q1296,698 1296,725Q1296,738 1310,745Q1324,751 1339,751Q1374,751 1374,725Q1374,698 1338,698ZM1556,685Q1556,669 1540,657Q1523,645 1506,645Q1497,645 1487,652Q1477,658 1477,674Q1477,691 1492,701Q1507,710 1524,710Q1546,710 1554,694L1556,685ZM1221,941Q1221,929 1210,920Q1199,911 1182,911Q1148,911 1148,933Q1148,946 1161,957Q1174,967 1190,967Q1205,967 1213,959Q1221,950 1221,941Z"  transform="translate(37540, 983)"/>
<path d="M1774,682Q1774,510 1715,377L1696,335Q1671,271 1577,218Q1482,164 1336,133Q1190,102 1024,102Q858,102 710,133Q561,163 468,216Q374,269 353,334Q274,492 274,682Q274,879 364,1033Q453,1186 636,1282Q818,1378 1024,1378Q1230,1378 1413,1283Q1595,1187 1685,1034Q1774,880 1774,682ZM671,853L560,864Q585,763 671,687L671,853ZM840,845L717,850L717,652Q772,616 840,596L840,845ZM875,948Q886,948 894,957Q901,966 901,976L898,989Q897,990 889,1001Q881,1012 865,1025Q849,1038 825,1048Q800,1058 767,1058Q733,1058 706,1046Q678,1033 657,1014Q636,995 636,989Q632,984 632,975Q632,964 640,956Q647,948 658,948Q674,948 682,961Q713,1005 767,1005Q788,1005 804,999Q820,992 831,984Q841,976 846,969Q851,962 852,961Q860,948 875,948ZM1010,842L887,844L887,585Q936,574 1010,572L1010,842ZM1180,844L1056,842L1056,572Q1125,574 1180,584L1180,844ZM1349,850L1226,845L1226,596Q1294,616 1349,650L1349,850ZM1389,948Q1400,948 1408,956Q1416,964 1416,975L1412,989Q1412,995 1391,1015Q1370,1034 1342,1046Q1314,1058 1281,1058Q1248,1058 1224,1048Q1199,1037 1183,1025Q1167,1012 1159,1001Q1151,990 1150,989L1146,976Q1146,966 1154,957Q1161,948 1173,948Q1188,948 1196,961Q1196,965 1210,977Q1223,989 1241,997Q1259,1005 1281,1005Q1304,1005 1322,997Q1340,989 1353,977Q1366,965 1366,961Q1374,948 1389,948ZM1396,685Q1488,766 1508,864L1396,853L1396,685Z"  transform="translate(39588, 983)"/>
<path d=""  transform="translate(41636, 983)"/>
<path d="M1842,905Q1842,696 1730,530Q1617,363 1404,266Q1190,168 950,168L916,169Q935,152 950,133Q965,113 980,94Q995,75 991,68Q991,47 944,27Q897,7 853,7Q822,7 822,75L826,139L825,161Q790,122 752,101Q713,80 673,71Q633,61 568,61L517,62Q426,62 375,41Q324,19 293,-22Q261,-63 256,-113Q249,-171 241,-187Q232,-204 213,-204Q180,-204 180,-171Q180,-89 228,-17Q275,54 344,85Q412,115 528,115L589,115Q675,115 721,138Q767,160 800,212Q684,320 619,485Q554,650 554,856Q554,1047 636,1207Q718,1366 866,1457Q1014,1548 1199,1548Q1371,1548 1520,1462Q1669,1376 1756,1227Q1842,1077 1842,905Z"  transform="translate(41841, 983)"/>
<path d="M1711,1287L1709,1267Q1700,1225 1619,1137Q1537,1049 1351,901Q1279,845 1212,784Q1145,722 1133,667Q1115,579 1115,432L1117,300Q1117,227 1227,183L1264,169Q1371,131 1371,82Q1371,59 1336,39Q1301,18 1222,3Q1142,-12 1013,-12Q903,-12 816,16Q728,44 728,89Q728,140 875,195Q923,212 952,252Q981,292 981,349Q981,546 961,660Q956,686 932,715Q907,744 872,777Q837,810 797,843L693,930Q515,1071 442,1154Q369,1237 369,1287Q369,1375 556,1429Q742,1483 1040,1483Q1215,1483 1357,1463Q1433,1551 1508,1600Q1582,1648 1618,1648Q1635,1648 1647,1635Q1658,1622 1658,1603Q1658,1585 1643,1577Q1628,1568 1616,1562Q1526,1519 1453,1446Q1577,1421 1644,1381Q1711,1340 1711,1287ZM717,1198Q758,1219 844,1231Q930,1242 1026,1242Q1144,1242 1207,1233Q1268,1341 1297,1384Q1157,1397 1040,1397Q880,1397 759,1382Q638,1366 556,1340Q473,1313 456,1287Q472,1264 543,1239Q614,1214 717,1198ZM1131,119Q1131,130 1119,140Q1066,184 1043,234Q1002,152 896,111L856,94Q911,74 1013,74Q1065,74 1098,83Q1131,91 1131,119ZM1497,1137Q1311,1090 1040,1090Q766,1090 580,1137Q692,1037 894,873Q960,819 1042,819Q1094,819 1141,847Q1222,893 1365,1021L1435,1082L1497,1137ZM1624,1287Q1614,1302 1557,1327Q1500,1352 1385,1372Q1320,1289 1286,1218L1355,1197Q1462,1211 1537,1239Q1612,1266 1624,1287ZM950,954Q950,997 983,1027Q1015,1057 1059,1057Q1103,1057 1135,1027Q1167,997 1167,954Q1167,911 1135,881Q1102,851 1059,851Q1014,851 982,881Q950,911 950,954Z"  transform="translate(43889, 983)"/>
<path d="M1765,571Q1765,492 1711,435Q1657,378 1575,378Q1521,378 1469,404Q1417,429 1370,461L1364,462Q1358,462 1358,457L1362,444Q1382,406 1396,350Q1409,294 1409,257Q1409,161 1347,95Q1285,29 1188,29Q1100,29 1046,75Q990,124 960,188Q929,251 929,311Q929,327 923,335Q918,335 911,326Q860,206 792,156Q723,105 635,105Q541,105 480,167Q419,228 419,326Q419,472 568,595Q579,604 579,614Q579,622 571,624Q563,626 551,628L483,624Q377,624 326,677Q274,729 274,803Q274,891 350,961Q425,1031 544,1031L628,1025Q646,1026 646,1039L642,1054Q600,1116 600,1204Q600,1288 664,1348Q727,1408 817,1408Q982,1408 1069,1192Q1077,1170 1087,1170Q1094,1170 1104,1180Q1206,1333 1371,1333Q1476,1333 1551,1272Q1625,1211 1625,1118Q1625,1007 1485,917Q1471,910 1471,903Q1471,896 1492,890Q1571,873 1636,819Q1700,764 1733,700Q1765,636 1765,571ZM1012,531Q1106,531 1176,594Q1245,656 1245,752Q1245,850 1172,916Q1099,982 994,982Q899,982 834,917Q769,852 769,752Q769,655 841,593Q912,531 1012,531Z"  transform="translate(45937, 983)"/>
<path d=""  transform="translate(47985, 983)"/>
<path d="M1073,208Q1073,166 1106,136Q1138,106 1220,76Q1326,37 1326,-9Q1326,-51 1221,-77Q1116,-104 968,-104Q854,-104 769,-75Q683,-47 683,-2Q683,38 786,85L834,107Q937,152 937,220L936,266Q705,302 585,433Q464,563 464,771Q464,941 519,1128Q574,1314 666,1467Q699,1527 796,1559Q893,1590 1024,1590Q1314,1590 1382,1467Q1472,1318 1528,1133Q1583,948 1583,771Q1583,626 1524,517Q1464,408 1343,342Q1221,275 1073,262L1073,208ZM1179,1Q1047,43 1001,137Q961,66 862,24L811,2Q891,-18 968,-18Q1098,-18 1179,1ZM746,1437Q756,1422 794,1407Q831,1392 889,1382Q947,1372 1024,1372Q1100,1372 1161,1383Q1221,1393 1258,1409Q1295,1424 1302,1439Q1295,1452 1255,1468Q1215,1484 1158,1494Q1101,1504 1024,1504Q947,1504 889,1494Q830,1484 792,1469Q754,1453 746,1437ZM705,1360Q550,1042 550,771Q550,637 611,540Q671,443 787,394Q903,345 1022,345Q1101,345 1191,370Q1280,394 1351,447Q1422,500 1460,583Q1497,666 1497,771Q1497,904 1457,1058Q1417,1211 1343,1359Q1296,1324 1212,1305Q1128,1286 1024,1286Q920,1286 836,1305Q752,1324 705,1360ZM1033,420Q915,420 819,465Q722,510 667,594Q611,677 611,788Q611,851 678,890Q744,928 838,928Q891,928 942,914Q993,900 1043,883Q1093,866 1144,852Q1194,838 1246,838Q1324,838 1381,867Q1390,871 1398,871Q1418,871 1426,848Q1434,825 1434,800Q1434,634 1320,527Q1206,420 1033,420Z"  transform="translate(48517, 983)"/>
<path d="M1680,248L358,248L358,939L589,825Q599,871 619,915L357,1044L357,1231L1679,1231L1679,1047L1417,917Q1439,869 1448,827L1679,942L1680,248ZM1235,575Q1294,575 1333,617Q1371,658 1371,723Q1371,883 1275,982Q1178,1080 1018,1080Q865,1080 766,983Q666,886 666,737Q666,588 765,491Q864,393 1016,393Q1148,393 1237,461L1175,545Q1111,498 1019,498Q911,498 841,565Q771,631 771,736Q771,842 841,909Q910,975 1018,975Q1132,975 1199,908Q1266,841 1266,727Q1266,708 1261,694Q1255,680 1234,680Q1212,680 1200,704Q1187,728 1187,769L1187,888Q1187,895 1179,895L1090,895Q1083,895 1083,888L1083,878Q1043,901 993,901Q916,901 868,853Q819,804 819,731Q819,658 868,610Q916,562 994,562Q1078,562 1129,622Q1170,575 1235,575ZM993,809Q1031,809 1053,787Q1074,765 1074,732Q1074,699 1053,676Q1031,653 994,653Q956,653 935,676Q913,699 913,731Q913,763 934,786Q955,809 993,809Z"  transform="translate(50565, 983)"/>
<path d="M1795,923Q1795,884 1765,845L1762,842L1764,818Q1764,783 1743,753L1742,751Q1752,728 1752,701Q1752,677 1742,658L1738,652Q1747,631 1747,604L1743,564Q1739,526 1722,497Q1704,467 1647,424Q1615,400 1594,373L1547,313Q1501,259 1411,215Q1321,170 1199,150Q1219,85 1219,42Q1219,2 1201,-25Q1182,-53 1142,-76Q1102,-100 1066,-100Q1049,-100 1038,-89Q1026,-78 1026,-61Q1026,-36 1078,-13Q1129,9 1129,54Q1129,76 1120,97Q1111,118 1106,140L1039,138Q1039,48 1029,6Q1018,-37 993,-58Q968,-80 936,-91Q903,-102 872,-102Q840,-102 824,-95Q808,-88 808,-59Q808,-18 870,-10Q898,-6 914,5Q930,15 938,36Q945,57 948,142Q802,154 692,213Q581,272 518,378Q454,483 439,650Q391,668 362,713Q333,757 333,813Q333,859 352,903Q370,946 403,978L382,988Q283,1013 283,1071Q283,1103 316,1133Q348,1163 411,1183Q474,1203 501,1203L515,1244Q480,1278 458,1311Q436,1344 436,1391Q436,1440 458,1480Q480,1520 521,1527Q558,1534 590,1557Q643,1595 693,1595Q734,1595 768,1576Q786,1567 805,1567L863,1572Q900,1572 941,1543Q954,1533 964,1520Q973,1507 987,1499L1026,1477Q1056,1460 1068,1435Q1080,1410 1080,1368Q1080,1343 1076,1320Q1072,1296 1062,1279Q1052,1261 1041,1231Q1077,1180 1136,1048Q1181,946 1213,903Q1244,860 1273,835Q1302,810 1317,810Q1324,813 1327,836Q1334,878 1369,939Q1404,1000 1455,1028Q1506,1056 1587,1058Q1665,1058 1730,1022Q1795,985 1795,923ZM1727,924Q1727,949 1683,970Q1638,990 1587,990Q1472,990 1428,907Q1400,853 1394,824Q1391,800 1380,781Q1393,781 1439,774Q1484,766 1504,748Q1524,729 1524,698Q1524,685 1520,674Q1516,662 1516,652L1518,646Q1535,633 1535,596L1533,577Q1530,567 1521,557Q1512,547 1512,539Q1512,531 1515,527Q1518,522 1518,511Q1518,470 1455,420Q1449,415 1447,404Q1445,393 1440,385Q1394,329 1256,329Q1143,329 1062,370Q981,411 942,485Q933,498 919,539Q904,579 904,598Q904,613 913,613Q918,613 925,596Q955,495 1033,442Q1111,389 1228,389Q1319,389 1354,403Q1389,417 1389,434Q1389,439 1381,444Q1373,448 1373,455Q1373,464 1387,468Q1400,472 1417,477Q1433,482 1447,491Q1461,499 1461,518Q1461,530 1441,535Q1421,540 1421,549Q1421,555 1429,559Q1436,563 1445,568Q1454,573 1462,581Q1469,589 1469,602Q1469,613 1462,618Q1454,622 1445,624Q1435,626 1428,629Q1420,631 1420,639Q1420,645 1427,648Q1433,650 1441,653Q1449,656 1456,662Q1462,668 1462,680Q1462,710 1439,720Q1415,729 1348,734Q1290,737 1260,758Q1258,759 1245,772Q1190,811 1147,881Q1104,951 1044,1090Q997,1195 936,1250Q875,1305 789,1310Q723,1310 674,1277Q734,1261 770,1223Q805,1184 805,1135Q805,1085 770,1038Q735,990 700,974L674,959Q639,932 639,822Q639,748 604,701Q569,653 507,643Q522,489 587,395Q652,300 766,253Q880,205 1036,205Q1185,205 1311,247Q1436,289 1495,357L1527,398Q1564,453 1600,476Q1641,502 1657,521Q1672,540 1676,565Q1679,589 1679,594L1679,604Q1679,610 1675,622Q1670,634 1670,656Q1670,672 1684,693L1685,701Q1685,718 1674,738L1662,745Q1628,762 1628,775Q1628,790 1655,790L1683,786L1687,790Q1697,803 1697,817Q1697,833 1687,840Q1676,847 1664,852Q1651,856 1641,860Q1630,864 1630,873Q1630,895 1668,895Q1684,895 1706,886L1715,891Q1727,910 1727,924ZM352,1072Q361,1064 380,1059L411,1049Q458,1024 483,1024Q497,1024 497,1055L493,1135Q471,1135 418,1114Q365,1092 352,1072ZM638,1183Q621,1183 609,1169Q596,1154 596,1133Q596,1111 609,1097Q621,1082 638,1082Q655,1082 668,1097Q680,1111 680,1133Q680,1154 668,1169Q655,1183 638,1183Z"  transform="translate(52613, 983)"/>
<path d="M1928,459Q1928,425 1905,402Q1763,254 1607,186Q1451,118 1254,118Q1136,118 949,143Q902,150 842,150Q718,150 601,110Q483,70 396,2Q370,-19 340,-19Q306,-19 284,4Q261,26 258,56L165,987L164,997Q166,1016 168,1023Q170,1029 189,1059Q208,1088 243,1123Q277,1157 316,1184Q354,1211 405,1235Q456,1258 520,1275Q583,1292 647,1298Q711,1304 742,1302Q840,1302 925,1297Q1009,1291 1084,1291Q1234,1291 1325,1327Q1416,1363 1502,1449Q1526,1473 1560,1473Q1589,1473 1610,1457Q1631,1440 1639,1414L1924,484L1928,459ZM1223,1216L1276,928L1276,1226L1223,1216ZM621,1211L585,1204L626,1163L621,1211ZM437,1157L651,942L636,1073L521,1189L479,1174L437,1157ZM385,1129Q333,1098 318,1080L680,718L662,851L385,1129ZM713,489L693,625L279,1040Q258,1019 247,995L251,951L713,489ZM349,71Q372,91 418,118L326,210L339,82L349,71ZM470,146Q515,168 551,181L304,428L317,299L470,146ZM611,201L706,222L282,645L295,516L611,201ZM753,254L728,394L260,862L273,734L753,254ZM1379,209Q1319,430 1260,712Q1201,994 1166,1211L1084,1208Q1012,1208 934,1214Q856,1219 767,1219L678,1217L691,1098Q749,559 815,232L842,233Q899,233 959,225Q1136,201 1252,201Q1306,201 1374,208L1379,209ZM1415,1278Q1361,1251 1334,1242L1334,646Q1376,447 1415,300L1415,1278ZM1553,1383Q1530,1363 1514,1347Q1497,1331 1472,1315L1472,226Q1512,236 1553,253L1553,1383ZM1691,964L1610,1229L1610,279Q1669,310 1691,327L1691,964ZM1829,513L1748,777L1748,370Q1785,399 1829,443L1829,513Z"  transform="translate(54661, 983)"/>
<path d="M1497,535Q1617,535 1678,499Q1738,463 1738,398Q1738,326 1674,253Q1610,180 1460,99Q1310,17 1152,-33Q994,-83 898,-100Q801,-118 715,-118Q555,-118 476,-79Q397,-41 397,30Q397,87 457,150Q611,314 914,423Q896,442 875,451Q815,482 771,528Q726,574 703,640Q679,706 679,758Q679,834 693,895Q706,956 706,973Q706,1007 679,1020L596,1058Q522,1088 470,1138Q417,1187 388,1245Q358,1303 358,1351Q358,1404 389,1441Q419,1477 465,1477Q501,1477 527,1456Q553,1434 553,1404L551,1385Q551,1374 560,1360Q577,1321 610,1292Q642,1263 692,1240Q742,1217 855,1182Q835,1216 827,1249Q819,1281 819,1338Q819,1418 850,1471Q881,1524 939,1556Q997,1587 1059,1587Q1160,1587 1238,1520Q1315,1453 1315,1356Q1315,1305 1293,1254Q1271,1202 1239,1162Q1275,1172 1332,1203Q1389,1233 1408,1252Q1415,1259 1419,1279Q1438,1369 1522,1369Q1563,1369 1589,1344Q1614,1319 1614,1274Q1614,1226 1581,1188Q1547,1149 1488,1109Q1428,1068 1377,1040Q1325,1012 1286,1000L1226,977Q1200,967 1193,959Q1186,951 1175,920Q1163,888 1156,858Q1149,827 1149,814Q1149,779 1172,753Q1194,726 1249,698Q1302,669 1325,642Q1348,615 1348,579L1342,524Q1426,535 1497,535ZM715,-28Q785,-28 854,-17Q922,-7 1047,29Q1172,64 1244,93Q1316,122 1415,176Q1514,230 1557,265Q1599,300 1624,336Q1649,371 1649,398Q1649,421 1607,434Q1564,446 1497,446Q1431,446 1316,430Q1300,398 1300,389Q1300,383 1305,383Q1359,371 1359,323Q1359,290 1326,269Q1293,248 1249,248Q1197,248 1161,268Q1124,288 1124,322Q1124,348 1154,400L1099,386L1088,346L1057,255Q1047,226 1047,205Q1047,196 1054,193Q1096,175 1096,143Q1096,84 998,84Q963,84 929,100Q895,116 884,136Q872,155 872,185Q872,223 885,257Q897,291 911,327Q726,255 607,163Q487,70 487,30Q487,3 547,-12Q606,-28 715,-28ZM1092,477L1188,499Q1188,540 1158,559Q1127,577 1087,577Q1050,577 1050,560Q1050,550 1058,538Q1084,498 1092,477Z"  transform="translate(56709, 983)"/>
<path d="M1756,605Q1756,562 1737,528Q1718,493 1677,473Q1635,453 1602,453L1583,455Q1553,347 1471,268Q1389,189 1273,149Q1156,108 1025,108Q902,108 786,147Q669,186 584,263Q498,339 466,453Q402,453 354,492Q305,531 305,605Q305,673 347,715Q388,757 457,757Q471,860 509,944Q564,1113 696,1202Q827,1291 1030,1314Q1087,1320 1112,1330Q1137,1339 1153,1355Q1169,1371 1169,1397Q1169,1424 1186,1424Q1210,1424 1249,1389Q1293,1349 1293,1298Q1293,1262 1330,1242Q1384,1213 1442,1157Q1499,1100 1541,1010Q1583,919 1583,841L1583,830L1582,819L1593,757Q1674,757 1715,715Q1756,672 1756,605ZM1025,178Q1137,178 1237,211Q1336,243 1405,303Q1473,362 1503,435Q1532,507 1532,619Q1532,749 1501,849Q1396,1013 1280,1013Q1246,1013 1219,998Q1191,982 1164,964Q1136,945 1106,930Q1076,914 1037,914Q1019,914 1002,921Q984,927 984,938Q984,945 1004,963Q1024,982 1024,999Q1024,1021 999,1021Q977,1021 958,1009Q939,996 921,982Q902,967 882,955Q862,942 838,942Q796,942 796,960Q796,968 809,981Q822,994 822,1001Q822,1012 809,1018Q795,1024 782,1024Q696,1024 604,923L557,873Q518,762 518,619Q518,461 578,374Q637,287 760,233Q883,178 1025,178ZM372,605Q372,566 391,541Q410,516 445,516L454,517Q448,565 448,619L448,653L450,687Q411,684 392,662Q372,640 372,605ZM1595,519L1615,517Q1650,517 1670,542Q1689,566 1689,605Q1689,645 1665,667Q1641,688 1599,688L1602,619Q1602,573 1595,519ZM959,413Q959,417 963,422Q967,426 973,426L984,425Q1009,417 1028,417Q1048,417 1063,423Q1078,429 1086,429Q1097,429 1097,418Q1097,403 1073,391Q1049,378 1029,378Q1000,378 980,391Q959,403 959,413ZM1142,348Q1148,348 1153,343Q1158,338 1158,331Q1158,311 1121,284Q1083,257 1036,257Q988,257 944,279Q899,301 899,330Q899,336 904,343Q908,349 915,349L927,345L938,339Q984,312 1032,312Q1070,312 1115,337Q1120,339 1128,344Q1135,348 1142,348ZM749,602Q781,602 804,577Q827,552 827,516Q827,481 804,456Q781,430 749,430Q717,430 694,456Q671,481 671,516Q671,552 694,577Q717,602 749,602ZM1298,602Q1330,602 1353,577Q1376,552 1376,516Q1376,481 1353,456Q1330,430 1298,430Q1265,430 1243,456Q1220,481 1220,516Q1220,552 1243,577Q1265,602 1298,602Z"  transform="translate(58757, 983)"/>
</svg>
