<svg xmlns="http://www.w3.org/2000/svg" viewBox="0 0 40418 3789" transform="translate(0, 3789) scale(1, -1)">
<path d="M272,1255Q272,1324 266,1342Q259,1360 240,1371Q221,1382 174,1382L168,1382L168,1462L479,1462L479,1258Q479,1227 476,1201L471,1146L975,1146L975,672Q975,545 1023,486Q1071,426 1160,426Q1249,426 1301,486Q1353,545 1353,672L1353,939Q1353,1008 1347,1026Q1340,1044 1321,1055Q1302,1066 1255,1066L1249,1066L1249,1146L1560,1146L1560,680Q1560,504 1452,410Q1343,316 1159,316Q976,316 872,410Q768,503 768,680L768,1035L479,1035L479,206Q479,136 486,119Q492,101 510,91Q527,80 575,80L581,80L581,0L272,0L272,1255Z"  transform="translate(0, 1100)"/>
<path d="M330,553Q370,498 444,427Q517,356 601,299Q822,471 908,621Q994,770 994,942Q994,1159 918,1266Q842,1372 677,1372Q522,1372 439,1284Q355,1196 355,1025L355,980L148,980L148,1027Q148,1232 293,1358Q438,1483 685,1483Q938,1483 1077,1340Q1215,1196 1215,938Q1215,780 1104,621Q993,461 688,244L698,239Q790,187 912,149Q1034,111 1144,97L1129,0Q798,32 556,145Q314,258 123,462L330,553Z"  transform="translate(1687, 1100)"/>
<path d="M271,1255Q271,1324 265,1342Q258,1360 240,1371Q221,1382 174,1382L168,1382L168,1462L478,1462L478,1098L585,1098Q708,1098 786,1065Q864,1031 925,957Q986,883 1042,757Q1097,630 1137,579Q1177,528 1234,528L1268,528L1268,418L1151,418Q1039,418 978,462Q917,505 875,615Q833,724 792,810Q751,896 698,942Q645,987 553,987L478,987L478,207Q478,138 485,120Q491,102 510,91Q528,80 575,80L581,80L581,0L271,0L271,1255Z"  transform="translate(3005, 1100)"/>
<path d="M931,291L932,350Q932,380 934,406L939,461L929,461Q878,395 786,356Q693,316 599,316Q390,316 277,430Q163,544 163,772L163,1255Q163,1324 157,1342Q150,1360 132,1371Q113,1382 66,1382L60,1382L60,1462L370,1462L370,772Q370,596 436,516Q501,436 632,436Q764,436 848,520Q931,604 931,764Q931,807 928,842Q925,876 900,888Q875,899 834,899L828,899L828,979L1138,979L1138,207Q1138,138 1145,120Q1151,102 1170,91Q1188,80 1235,80L1241,80L1241,0L931,0L931,291Z"  transform="translate(4298, 1100)"/>
<path d="M1150,111L1533,111L1533,0L943,0L943,1042Q943,1198 863,1285Q782,1372 642,1372Q498,1372 419,1288Q340,1203 340,1034L340,711L133,711L133,1020Q133,1255 263,1369Q393,1482 650,1482Q884,1482 1017,1369Q1150,1255 1150,1042L1150,111Z"  transform="translate(5640, 1100)"/>
<path d="M194,351Q239,389 320,389Q320,255 413,173Q506,91 665,91Q837,91 931,178Q1025,265 1025,420Q1025,557 917,641Q809,725 638,725L142,725L142,835L614,835Q785,835 870,911Q954,987 954,1126Q954,1236 883,1299Q811,1361 688,1361Q544,1361 477,1290Q409,1219 409,1075Q233,1075 233,1208Q233,1336 363,1404Q492,1472 688,1472Q913,1472 1044,1382Q1175,1291 1175,1141Q1175,1013 1088,921Q1000,829 845,794L845,784Q1028,760 1137,660Q1246,560 1246,418Q1246,220 1080,100Q914,-20 667,-20Q439,-20 294,52Q148,123 148,237Q148,313 194,351Z"  transform="translate(7193, 1100)"/>
<path d=""  transform="translate(8519, 1100)"/>
<path d="M116,369Q154,406 226,406Q232,256 332,168Q432,80 582,80Q736,80 828,150Q919,219 919,334Q919,419 837,486Q754,552 537,641Q319,729 210,842Q101,954 101,1102Q101,1275 245,1379Q389,1483 589,1483Q763,1483 900,1410Q1036,1336 1036,1243Q1036,1184 993,1152Q950,1120 875,1120Q875,1236 793,1308Q711,1380 581,1380Q454,1380 373,1315Q291,1250 291,1147Q291,1054 369,982Q446,910 666,821Q885,731 1000,630Q1114,528 1114,380Q1114,198 958,89Q801,-20 566,-20Q369,-20 224,60Q78,139 78,268Q78,331 116,369Z"  transform="translate(9051, 1100)"/>
<path d="M1150,111L1533,111L1533,0L943,0L943,1042Q943,1198 863,1285Q782,1372 642,1372Q498,1372 419,1288Q340,1203 340,1034L340,711L133,711L133,1020Q133,1255 263,1369Q393,1482 650,1482Q884,1482 1017,1369Q1150,1255 1150,1042L1150,111Z"  transform="translate(10243, 1100)"/>
<path d="M1292,111L1292,0L250,0L250,1042Q250,1255 383,1369Q516,1482 750,1482Q1007,1482 1137,1369Q1267,1255 1267,1020L1267,711L1060,711L1060,1034Q1060,1203 981,1288Q902,1372 758,1372Q618,1372 538,1285Q457,1198 457,1042L457,111L1292,111Z"  transform="translate(11796, 1100)"/>
<path d="M253,430L253,1255Q253,1324 247,1342Q240,1360 222,1371Q203,1382 156,1382L150,1382L150,1462L460,1462L460,410Q460,251 539,171Q617,90 762,90Q908,90 986,171Q1063,252 1063,410L1063,1255Q1063,1324 1057,1342Q1050,1360 1032,1371Q1013,1382 966,1382L960,1382L960,1462L1280,1462Q1435,1462 1532,1408Q1629,1354 1629,1262Q1629,1200 1576,1159Q1523,1118 1439,1118Q1439,1238 1397,1294Q1354,1349 1270,1352L1270,430Q1270,217 1131,99Q991,-20 760,-20Q526,-20 390,97Q253,214 253,430Z"  transform="translate(13221, 1100)"/>
<path d="M1270,600L1270,430Q1270,217 1131,99Q991,-20 760,-20Q526,-20 390,97Q253,214 253,430L253,1255Q253,1324 247,1342Q240,1360 222,1371Q203,1382 156,1382L150,1382L150,1462L460,1462L460,1010L1295,1010L1295,899L460,899L460,410Q460,251 539,171Q617,90 762,90Q908,90 986,171Q1063,252 1063,410L1063,600L1270,600Z"  transform="translate(14850, 1100)"/>
<path d="M271,1255Q271,1324 265,1342Q258,1360 240,1371Q221,1382 174,1382L168,1382L168,1462L478,1462L478,1113Q478,1082 475,1056L470,1001L480,1001Q531,1067 624,1107Q716,1146 810,1146Q1019,1146 1133,1033Q1246,919 1246,691L1246,562L1039,562L1039,671Q1039,1026 777,1026Q641,1026 560,938Q478,850 478,696L478,207Q478,138 485,120Q491,102 510,91Q528,80 575,80L581,80L581,0L271,0L271,1255Z"  transform="translate(16258, 1100)"/>
<path d=""  transform="translate(17584, 1100)"/>
<path d="M411,-239Q556,-239 644,-192Q732,-145 732,-60Q732,3 688,35Q643,67 554,67Q481,67 372,37Q263,7 231,0L207,20L207,1349Q207,1418 201,1436Q194,1454 176,1465Q157,1476 110,1476L104,1476L104,1556L398,1556L398,1010L936,1010L936,907L398,907L398,129L406,123Q471,146 522,157Q572,167 619,167Q760,167 842,106Q923,44 923,-63Q923,-178 814,-254Q704,-331 567,-331Q497,-331 454,-305Q411,-279 411,-239Z"  transform="translate(18116, 1100)"/>
<path d="M411,-239Q556,-239 644,-192Q732,-145 732,-60Q732,3 688,35Q643,67 554,67Q481,67 372,37Q263,7 231,0L207,20L207,1349Q207,1418 201,1436Q194,1454 176,1465Q157,1476 110,1476L104,1476L104,1556L398,1556L398,1010L936,1010L936,907L398,907L398,129L406,123Q471,146 522,157Q572,167 619,167Q760,167 842,106Q923,44 923,-63Q923,-178 814,-254Q704,-331 567,-331Q497,-331 454,-305Q411,-279 411,-239Z"  transform="translate(19082, 1100)"/>
<path d="M808,-1Q808,27 809,58Q810,88 812,114L817,169L808,169Q717,-18 520,-18Q328,-18 228,113Q127,243 127,503Q127,769 226,899Q325,1029 520,1029Q717,1029 808,863L820,863L854,1010L998,1010L998,-440L1265,-440L1265,-543L808,-543L808,-1ZM743,810Q677,902 550,902Q432,902 375,805Q318,707 318,501Q318,301 374,205Q429,109 552,109Q678,109 743,200Q808,290 808,503Q808,718 743,810Z"  transform="translate(20018, 1100)"/>
<path d="M217,802Q217,867 210,888Q202,908 181,920Q159,931 110,931L104,931L104,1010L376,1010L401,856L410,856Q457,941 526,985Q595,1029 704,1029Q862,1029 948,933Q1033,836 1033,653L1033,206Q1033,136 1040,119Q1046,101 1064,91Q1082,80 1130,80L1136,80L1136,0L843,0L843,634Q843,770 792,836Q741,902 636,902Q526,902 467,818Q408,733 408,583L408,-440L1146,-440L1146,-543L217,-543L217,802Z"  transform="translate(21228, 1100)"/>
<path d="M220,-250L67,-250L67,-147L220,-147L220,802Q220,867 213,888Q205,908 184,920Q162,931 113,931L107,931L107,1010L374,1010L398,863L410,863Q501,1029 698,1029Q893,1029 992,899Q1091,769 1091,503Q1091,243 991,113Q890,-18 698,-18Q501,-18 410,169L401,169L406,114Q408,88 409,58Q410,27 410,-1L410,-147L1043,-147L1043,-250L410,-250L410,-336Q410,-405 417,-423Q423,-441 442,-452Q460,-463 507,-463L513,-463L513,-543L220,-543L220,-250ZM843,805Q786,902 668,902Q541,902 476,810Q410,718 410,503Q410,288 476,199Q541,109 666,109Q789,109 845,205Q900,301 900,501Q900,707 843,805Z"  transform="translate(22464, 1100)"/>
<path d="M814,-1Q814,27 815,58Q816,88 818,114L823,169L814,169Q723,-18 526,-18Q334,-18 234,113Q133,243 133,503Q133,769 232,899Q331,1029 526,1029Q723,1029 814,863L826,863L860,1010L1004,1010L1004,103L1271,103L1271,0L1004,0L1004,-336Q1004,-405 1011,-423Q1017,-441 1036,-452Q1054,-463 1101,-463L1107,-463L1107,-543L814,-543L814,-1ZM749,810Q683,902 556,902Q438,902 381,805Q324,707 324,501Q324,301 380,205Q435,109 558,109Q684,109 749,200Q814,290 814,503Q814,718 749,810Z"  transform="translate(23682, 1100)"/>
<path d=""  transform="translate(24953, 1100)"/>
<path d="M200,776Q271,986 329,1076Q239,1106 189,1165Q139,1223 139,1308Q139,1424 232,1495Q325,1566 440,1566Q514,1566 568,1537Q621,1508 621,1474Q474,1474 395,1430Q315,1386 315,1305Q315,1250 355,1212Q395,1173 509,1132L509,1108Q449,980 389,771Q329,562 329,407Q329,256 392,183Q454,110 567,110Q676,110 735,187Q793,263 793,414L793,803Q793,872 787,890Q780,908 762,919Q743,930 696,930L690,930L690,1010L983,1010L983,205Q983,120 1010,100Q1036,79 1097,79L1103,79L1103,0L831,0L806,153L797,153Q751,66 682,25Q612,-17 502,-17Q336,-17 233,97Q129,211 129,401Q129,565 200,776Z"  transform="translate(25485, 1100)"/>
<path d="M969,614Q969,567 974,555Q979,542 994,534Q1009,525 1044,525L1049,525L1049,446L789,446L789,651Q789,777 751,840Q712,902 622,902Q524,902 466,817Q408,731 408,587L408,103L1071,103L1071,0L408,0L408,-336Q408,-405 415,-423Q421,-441 440,-452Q458,-463 505,-463L511,-463L511,-543L217,-543L217,802Q217,867 210,888Q202,908 181,920Q159,931 110,931L104,931L104,1010L376,1010L401,857L410,857Q466,951 536,990Q605,1029 696,1029Q826,1029 898,944Q969,859 969,710L969,614Z"  transform="translate(26692, 1100)"/>
<path d="M207,803Q207,872 201,890Q194,908 176,919Q157,930 110,930L104,930L104,1010L398,1010L398,216Q398,103 438,-16Q478,-136 478,-215Q478,-357 381,-450Q284,-543 133,-543L103,-543L103,-440L117,-440Q221,-440 276,-395Q330,-350 330,-267Q330,-192 269,-42Q207,107 207,225L207,803Z"  transform="translate(27851, 1100)"/>
<path d="M217,802Q217,867 210,888Q202,908 181,920Q159,931 110,931L104,931L104,1010L376,1010L401,856L410,856Q458,942 536,985Q614,1028 714,1028Q913,1028 1023,894Q1132,760 1147,493L1274,461L1274,358L1144,390Q1134,206 1052,94Q970,-19 834,-19Q713,-19 633,60Q552,138 552,254Q552,392 636,466Q720,539 873,539Q896,539 922,536Q947,533 956,531Q938,715 864,808Q790,901 661,901Q547,901 478,816Q408,731 408,583L408,-338Q408,-408 415,-425Q422,-442 440,-452Q458,-463 505,-463L511,-463L511,-543L217,-543L217,802ZM959,396L957,428Q946,431 925,434Q903,436 883,436Q804,436 767,389Q729,341 729,247Q729,158 759,121Q789,84 844,84Q908,84 934,146Q960,208 960,337Q960,378 959,396Z"  transform="translate(28448, 1100)"/>
<path d="M834,-17Q834,11 835,42Q836,72 838,98L843,153L834,153Q785,61 712,22Q638,-17 529,-17Q373,-17 289,75Q205,166 205,352L205,803Q205,872 199,890Q192,908 174,919Q155,930 108,930L102,930L102,1010L396,1010L396,368Q396,232 443,171Q489,110 594,110Q707,110 771,191Q835,272 835,416L835,1349Q835,1414 828,1435Q820,1455 799,1467Q777,1478 728,1478L722,1478L722,1556L1027,1556L1027,1030Q1027,1002 1026,972Q1025,941 1023,915L1019,856L1028,856Q1075,941 1144,985Q1213,1029 1322,1029Q1480,1029 1566,933Q1651,836 1651,653L1651,206Q1651,136 1658,119Q1664,101 1682,91Q1700,80 1748,80L1754,80L1754,0L1461,0L1461,634Q1461,770 1410,836Q1359,902 1254,902Q1144,902 1085,818Q1026,733 1026,583L1026,-336Q1026,-401 1034,-421Q1041,-442 1063,-453Q1084,-465 1133,-465L1139,-465L1139,-543L834,-543L834,-17Z"  transform="translate(29743, 1100)"/>
<path d="M1397,-17Q1397,11 1398,42Q1399,72 1401,98L1406,153L1397,153Q1347,61 1279,22Q1210,-18 1110,-18Q1007,-18 938,31Q868,79 837,164L822,164Q775,75 706,29Q636,-18 526,-18Q371,-18 288,74Q205,165 205,351L205,803Q205,872 199,890Q192,908 174,919Q155,930 108,930L102,930L102,1010L396,1010L396,369Q396,235 444,172Q491,109 594,109Q696,109 747,181Q797,253 797,392L797,803Q797,872 791,890Q784,908 766,919Q747,930 700,930L694,930L694,1010L987,1010L987,369Q987,236 1032,173Q1077,109 1178,109Q1284,109 1341,188Q1397,266 1397,416L1397,803Q1397,872 1391,890Q1384,908 1366,919Q1347,930 1300,930L1294,930L1294,1010L1587,1010L1587,-336Q1587,-405 1594,-423Q1600,-441 1619,-452Q1637,-463 1684,-463L1690,-463L1690,-543L1397,-543L1397,-17Z"  transform="translate(31599, 1100)"/>
<path d=""  transform="translate(33393, 1100)"/>
<path d="M217,802Q217,867 210,888Q202,908 181,920Q159,931 110,931L104,931L104,1010L376,1010L401,856L410,856Q458,942 536,985Q614,1028 714,1028Q913,1028 1023,894Q1132,760 1147,493L1274,461L1274,358L1144,390Q1134,206 1052,94Q970,-19 834,-19Q713,-19 633,60Q552,138 552,254Q552,392 636,466Q720,539 873,539Q896,539 922,536Q947,533 956,531Q938,715 864,808Q790,901 661,901Q547,901 478,816Q408,731 408,583L408,-338Q408,-408 415,-425Q422,-442 440,-452Q458,-463 505,-463L511,-463L511,-543L217,-543L217,802ZM959,396L957,428Q946,431 925,434Q903,436 883,436Q804,436 767,389Q729,341 729,247Q729,158 759,121Q789,84 844,84Q908,84 934,146Q960,208 960,337Q960,378 959,396Z"  transform="translate(33925, 1100)"/>
<path d="M809,27Q809,48 810,73Q811,97 812,114L817,169L808,169Q717,-18 520,-18Q328,-18 228,113Q127,243 127,503Q127,769 226,899Q325,1029 520,1029Q717,1029 808,863L820,863L854,1010L998,1010L998,-24Q998,-273 876,-413Q754,-553 533,-553Q384,-553 271,-480Q158,-407 158,-313Q158,-251 212,-210Q265,-170 348,-170Q348,-302 399,-373Q450,-444 552,-444Q677,-444 743,-349Q808,-254 808,-61L809,27ZM743,810Q677,902 550,902Q432,902 375,805Q318,707 318,501Q318,301 374,205Q429,109 552,109Q678,109 743,200Q808,290 808,503Q808,718 743,810Z"  transform="translate(35220, 1100)"/>
<path d="M808,-1Q808,27 809,58Q810,88 812,114L817,169L808,169Q717,-18 520,-18Q328,-18 228,113Q127,243 127,503Q127,769 226,899Q325,1029 520,1029Q717,1029 808,863L820,863L854,1010L998,1010L998,-440L1265,-440L1265,-543L808,-543L808,-1ZM743,810Q677,902 550,902Q432,902 375,805Q318,707 318,501Q318,301 374,205Q429,109 552,109Q678,109 743,200Q808,290 808,503Q808,718 743,810Z"  transform="translate(36418, 1100)"/>
<path d="M337,1556L363,1482Q300,1434 272,1380Q243,1325 243,1265Q243,1207 273,1172Q303,1136 361,1131L361,985Q234,987 164,1054Q94,1121 94,1240Q94,1335 161,1422Q228,1508 337,1556Z"  transform="translate(37628, 1100)"/>
<path d="M181,635Q268,754 460,885Q651,1015 751,1077Q850,1138 850,1174Q850,1194 829,1203Q808,1212 770,1217L522,1248Q419,1261 354,1276Q288,1290 241,1330Q194,1369 194,1433Q194,1499 237,1533Q280,1566 349,1566Q349,1489 399,1457Q449,1424 597,1398L770,1368Q807,1362 925,1339Q1043,1316 1043,1228Q1043,1172 992,1124Q941,1075 798,982L992,215Q1008,154 1045,117Q1082,79 1156,79L1162,79L1162,0L880,0L838,163L829,163Q777,75 698,29Q619,-18 521,-18Q339,-18 217,85Q94,187 94,362Q94,516 181,635ZM703,144Q773,185 811,251L671,901Q476,769 381,639Q285,509 285,374Q285,251 360,177Q435,102 551,102Q633,102 703,144Z"  transform="translate(38126, 1100)"/>
<path d="M1119,1010L1119,907L897,907Q963,816 997,711Q1030,606 1030,497Q1030,259 904,121Q777,-18 564,-18Q365,-18 246,112Q127,241 127,453Q127,703 269,857Q411,1010 618,1010L644,1010Q464,1190 413,1275Q362,1360 362,1426Q362,1485 401,1526Q440,1566 497,1566Q536,1566 576,1545Q615,1523 649,1484Q606,1448 588,1417Q570,1385 570,1350Q570,1285 674,1174Q778,1063 827,1010L1119,1010ZM810,710Q782,811 715,907L644,907Q498,907 408,786Q318,665 318,451Q318,280 386,183Q454,85 575,85Q709,85 774,186Q838,287 838,493Q838,609 810,710Z"  transform="translate(39268, 1100)"/>
</svg>
