<svg width="37535" height="3789" viewBox="0 0 37535 3789" xmlns="http://www.w3.org/2000/svg">
    <defs/>
    <path fill="#000000" stroke="none" transform="matrix(1 0 0 -1 0 2689)" d="M 1409 643 L 1409 532 L 920 532 L 920 678 C 920 788.66666666667 900 871.33333333333 860 926 C 820 980.66666666667 764 1008 692 1008 C 518.66666666667 1008 432 898 432 678 L 432 0 L 225 0 L 225 1237 C 225 1270.33333333333 219.33333333333 1297.33333333333 208 1318 C 196 1338 179 1352.66666666667 157 1362 C 134.33333333333 1371.33333333333 101 1376 57 1376 L 31 1376 L 31 1462 L 432 1462 L 432 1147 C 432 1108.33333333333 429.33333333333 1050.33333333333 424 973 L 434 973 C 454 1017.66666666667 490.66666666667 1053 544 1079 C 596.66666666667 1105 659.66666666667 1118 733 1118 C 855.66666666667 1118 952 1079.66666666667 1022 1003 C 1091.33333333333 926.33333333333 1126 818 1126 678 L 1126 643 L 1409 643 Z"/>
    <path fill="#000000" stroke="none" transform="matrix(1 0 0 -1 1450 2689)" d="M 598 1249 C 598 1345.66666666667 584.66666666667 1414.33333333333 558 1455 C 531.33333333333 1495.66666666667 489.33333333333 1516 432 1516 C 374.66666666667 1516 333.33333333333 1497 308 1459 C 282.66666666667 1421 270 1351 270 1249 C 270 1161.66666666667 282.33333333333 1095.66666666667 307 1051 C 331.66666666667 1005.66666666667 373.33333333333 983 432 983 C 490 983 532.33333333333 1003.33333333333 559 1044 C 585 1084.66666666667 598 1153 598 1249 Z M 391 1798 C 349.66666666667 1798 319.33333333333 1777.33333333333 300 1736 C 280 1694 269.33333333333 1628.66666666667 268 1540 C 322 1576.66666666667 384.33333333333 1595 455 1595 C 665 1595 770 1479.66666666667 770 1249 C 770 1017 657.33333333333 901 432 901 C 349.33333333333 901 285 917.66666666667 239 951 C 193 983.66666666667 158.66666666667 1035.66666666667 136 1107 C 113.33333333333 1178.33333333333 102 1275 102 1397 C 102 1552.33333333333 128 1671.33333333333 180 1754 C 231.33333333333 1836.66666666667 305 1878 401 1878 C 422.33333333333 1878 452.66666666667 1872.66666666667 492 1862 C 530 1849.33333333333 562.66666666667 1843 590 1843 C 621.33333333333 1843 643 1861.33333333333 655 1898 C 722.33333333333 1884.66666666667 756 1859.66666666667 756 1823 C 756 1798.33333333333 747.33333333333 1777.33333333333 730 1760 C 712 1742 681.66666666667 1733 639 1733 C 597.66666666667 1733 547.66666666667 1744.33333333333 489 1767 C 471.66666666667 1774.33333333333 454.66666666667 1781.33333333333 438 1788 C 421.33333333333 1794.66666666667 405.66666666667 1798 391 1798 Z"/>
    <path fill="#000000" stroke="none" transform="matrix(1 0 0 -1 2318 2689)" d="M 737 559 L 1200 559 L 1200 461 L 737 461 L 737 412 C 737 264.66666666667 706.66666666667 156 646 86 C 585.33333333333 15.33333333333 492.33333333333 -20 367 -20 C 253 -20 169.66666666667 5 117 55 C 63.66666666667 105 37 174 37 262 C 37 359.33333333333 79.33333333333 433.33333333333 164 484 C 248 534 370 559 530 559 L 530 1237 C 530 1270.33333333333 524.33333333333 1297.33333333333 513 1318 C 501 1338 484 1352.66666666667 462 1362 C 439.33333333333 1371.33333333333 406 1376 362 1376 L 336 1376 L 336 1462 L 911 1462 C 1075.66666666667 1462 1201 1430.66666666667 1287 1368 C 1372.33333333333 1304.66666666667 1415 1213.33333333333 1415 1094 C 1415 965.33333333333 1367 866.33333333333 1271 797 C 1175 727 1040 692 866 692 L 737 692 L 737 559 Z M 737 788 L 846 788 C 972 788 1061.66666666667 811 1115 857 C 1167.66666666667 903 1194 979 1194 1085 C 1194 1183.66666666667 1169 1255 1119 1299 C 1068.33333333333 1342.33333333333 987.66666666667 1364 877 1364 L 737 1364 L 737 788 Z M 365 76 C 423.66666666667 76 466 103 492 157 C 517.33333333333 210.33333333333 530 293.33333333333 530 406 L 530 461 C 430 461 354 443.33333333333 302 408 C 249.33333333333 372 223 322 223 258 C 223 200.66666666667 235.33333333333 156 260 124 C 284.66666666667 92 319.66666666667 76 365 76 Z"/>
    <path fill="#000000" stroke="none" transform="matrix(1 0 0 -1 3813 2689)" d="M 784 0 C 572 0 408 63.66666666667 292 191 C 175.33333333333 318.33333333333 117 497.66666666667 117 729 C 117 963 175 1143.66666666667 291 1271 C 406.33333333333 1398.33333333333 570.66666666667 1462 784 1462 L 1217 1462 L 1217 838 L 1231 838 C 1365.66666666667 838 1465.66666666667 817.66666666667 1531 777 C 1595.66666666667 735.66666666667 1628 672 1628 586 C 1628 540.66666666667 1613.66666666667 505.66666666667 1585 481 C 1556.33333333333 456.33333333333 1517.33333333333 444 1468 444 C 1468 542 1449.66666666667 613.66666666667 1413 659 C 1376.33333333333 704.33333333333 1316.33333333333 727 1233 727 L 1217 727 L 1217 0 L 784 0 Z M 831 1358 C 669.66666666667 1358 548.33333333333 1304.66666666667 467 1198 C 385 1091.33333333333 344 935 344 729 C 344 526.33333333333 384.66666666667 371.33333333333 466 264 C 546.66666666667 156 667.66666666667 102 829 102 L 1010 102 L 1010 1358 L 831 1358 Z"/>
    <path fill="#000000" stroke="none" transform="matrix(1 0 0 -1 5451 2689)" d="M 1055 0 L 1055 1040 C 1055 1142.66666666667 1026.66666666667 1223.66666666667 970 1283 C 912.66666666667 1342.33333333333 833.66666666667 1372 733 1372 C 629.66666666667 1372 550.33333333333 1342.66666666667 495 1284 C 439.66666666667 1224.66666666667 412 1140.66666666667 412 1032 L 412 0 L 205 0 L 205 1020 C 205 1175.33333333333 249 1291.33333333333 337 1368 C 425 1444.66666666667 559.66666666667 1483 741 1483 C 907.66666666667 1483 1036.33333333333 1444.66666666667 1127 1368 C 1217 1291.33333333333 1262 1183.33333333333 1262 1044 L 1262 0 L 1055 0 Z"/>
    <path fill="#000000" stroke="none" transform="matrix(1 0 0 -1 6917 2689)" d="M 1505 946 C 1505 788 1452 660.66666666667 1346 564 C 1240 467.33333333333 1091 411.66666666667 899 397 L 899 0 L 702 0 L 702 397 C 512.66666666667 412.33333333333 367.66666666667 468 267 564 C 165.66666666667 660 115 788 115 948 C 115 1120 175 1252.33333333333 295 1345 C 415 1437 587.66666666667 1483 813 1483 C 1030.33333333333 1483 1200 1435.66666666667 1322 1341 C 1444 1246.33333333333 1505 1114.66666666667 1505 946 Z M 1278 946 C 1278 1081.33333333333 1246.33333333333 1183.66666666667 1183 1253 C 1119.66666666667 1322.33333333333 1025 1362 899 1372 L 899 510 C 1026.33333333333 522.66666666667 1121.33333333333 564.33333333333 1184 635 C 1246.66666666667 705.66666666667 1278 809.33333333333 1278 946 Z M 342 946 C 342 680 462 534.66666666667 702 510 L 702 1372 C 462 1354.66666666667 342 1212.66666666667 342 946 Z"/>
    <path fill="#000000" stroke="none" transform="matrix(1 0 0 -1 8539 2689)" d="M 432 666 L 541 666 C 667 666 756.66666666667 694 810 750 C 862.66666666667 806 889 898 889 1026 C 889 1146 864 1232.33333333333 814 1285 C 763.33333333333 1337.66666666667 682.33333333333 1364 571 1364 L 432 1364 L 432 666 Z M 788 111 C 980.66666666667 111 1077 50.66666666667 1077 -70 C 1077 -110 1063.33333333333 -140.66666666667 1036 -162 C 1008.66666666667 -184 969.33333333333 -195 918 -195 C 918 -141 910.66666666667 -100.66666666667 896 -74 C 881.33333333333 -48 857.33333333333 -29 824 -17 C 790 -5.66666666667 741.33333333333 0 678 0 L 225 0 L 225 1237 C 225 1270.33333333333 219.33333333333 1297.33333333333 208 1318 C 196 1338 179 1352.66666666667 157 1362 C 134.33333333333 1371.33333333333 101 1376 57 1376 L 31 1376 L 31 1462 L 606 1462 C 771.33333333333 1462 896.66666666667 1425.33333333333 982 1352 C 1067.33333333333 1278.66666666667 1110 1172.66666666667 1110 1034 C 1110 886 1062.33333333333 771.66666666667 967 691 C 871 609.66666666667 735.66666666667 569 561 569 L 432 569 L 432 111 L 788 111 Z"/>
    <path fill="#000000" stroke="none" transform="matrix(1 0 0 -1 10308 2689)" d="M 334 891 L 487 618 L 688 989 L 258 989 C 166 989 99.66666666667 984.33333333333 59 975 L 59 1065 C 123.66666666667 1087 191.33333333333 1098 262 1098 L 895 1098 L 895 1014 L 580 461 L 682 289 C 725.33333333333 217.66666666667 762.66666666667 168 794 140 C 825.33333333333 112 860.33333333333 98 899 98 C 927 98 955.66666666667 107 985 125 L 1020 59 C 997.33333333333 35.66666666667 972.66666666667 16.66666666667 946 2 C 919.33333333333 -12.66666666667 885.33333333333 -20 844 -20 C 806 -20 773.66666666667 -14.33333333333 747 -3 C 719.66666666667 8.33333333333 695.33333333333 25 674 47 C 652 69 630 99.33333333333 608 138 C 585.33333333333 176 552 240.66666666667 508 332 L 154 -365 L -61 -365 L 418 492 L 190 891 L 334 891 Z"/>
    <path fill="#000000" stroke="none" transform="matrix(1 0 0 -1 11359 2689)" d="M 309 492 C 309 352.66666666667 332 250.33333333333 378 185 C 423.33333333333 119 496 86 596 86 C 778.66666666667 86 870 241 870 551 C 870 661.66666666667 846.66666666667 747 800 807 C 752.66666666667 867 684.66666666667 897 596 897 C 496 897 423.33333333333 865.66666666667 378 803 C 332 739.66666666667 309 636 309 492 Z M 299 1460 C 215.66666666667 1460 174 1389.66666666667 174 1249 C 92 1249 51 1283.33333333333 51 1352 C 51 1416.66666666667 74 1468.66666666667 120 1508 C 165.33333333333 1547.33333333333 224.33333333333 1567 297 1567 C 407 1567 478.66666666667 1511.66666666667 512 1401 L 520 1401 C 564.66666666667 1511.66666666667 643.33333333333 1567 756 1567 C 864.66666666667 1567 943.66666666667 1504.66666666667 993 1380 C 1042.33333333333 1255.33333333333 1067 1068.33333333333 1067 819 C 1067 627 1051 469.33333333333 1019 346 C 987 222.66666666667 937.33333333333 131 870 71 C 802.66666666667 10.33333333333 711.33333333333 -20 596 -20 C 437.33333333333 -20 317.33333333333 24 236 112 C 154 200 113 326.66666666667 113 492 C 113 657.33333333333 153 783.66666666667 233 871 C 313 957.66666666667 428 1001 578 1001 C 708.66666666667 1001 803.33333333333 962.33333333333 862 885 L 870 885 C 870 1032.33333333333 865.33333333333 1147.33333333333 856 1230 C 846.66666666667 1312.66666666667 833 1371.66666666667 815 1407 C 796.33333333333 1442.33333333333 767.66666666667 1460 729 1460 C 682.33333333333 1460 649 1434.33333333333 629 1383 C 608.33333333333 1331 598 1257.66666666667 598 1163 L 426 1163 C 426 1267.66666666667 417 1343.33333333333 399 1390 C 380.33333333333 1436.66666666667 347 1460 299 1460 Z"/>
    <path fill="#000000" stroke="none" transform="matrix(1 0 0 -1 12539 2689)" d="M 508 -502 C 416.66666666667 -502 336.33333333333 -486.33333333333 267 -455 C 197 -423.66666666667 143.66666666667 -379.66666666667 107 -323 C 69.66666666667 -266.33333333333 51 -203 51 -133 C 51 -57 72 0.66666666667 114 40 C 156 78.66666666667 217 98 297 98 C 263 35.33333333333 246 -35.66666666667 246 -115 C 246 -205 268.33333333333 -273.66666666667 313 -321 C 357.66666666667 -369 421.33333333333 -393 504 -393 C 598 -393 668 -364 714 -306 C 759.33333333333 -248 782 -157 782 -33 C 782 87.66666666667 752 180 692 244 C 631.33333333333 308 544 340 430 340 L 338 340 L 338 451 L 430 451 C 521.33333333333 451 598 478 660 532 C 721.33333333333 585.33333333333 752 654.33333333333 752 739 C 752 929 670.66666666667 1024 508 1024 C 345.33333333333 1024 264 929 264 739 C 210 739 169.66666666667 748.66666666667 143 768 C 115.66666666667 787.33333333333 102 818.66666666667 102 862 C 102 905.33333333333 119 947 153 987 C 187 1026.33333333333 234.33333333333 1058 295 1082 C 355.66666666667 1106 426.66666666667 1118 508 1118 C 650.66666666667 1118 759.33333333333 1087.33333333333 834 1026 C 908.66666666667 964 946 872 946 750 C 946 668.66666666667 918 597.33333333333 862 536 C 806 474 731 432 637 410 L 637 399 C 744.33333333333 385.66666666667 828.66666666667 341.66666666667 890 267 C 950.66666666667 192.33333333333 981 95.66666666667 981 -23 C 981 -172.33333333333 938.66666666667 -289.33333333333 854 -374 C 768.66666666667 -459.33333333333 653.33333333333 -502 508 -502 Z"/>
    <path fill="#000000" stroke="none" transform="matrix(1 0 0 -1 13633 2689)" d="M 416 932 C 477.33333333333 1056 577.66666666667 1118 717 1118 C 958.33333333333 1118 1079 984.33333333333 1079 717 L 1079 233 C 1079 181 1090.33333333333 143.66666666667 1113 121 C 1135.66666666667 97.66666666667 1177 86 1237 86 L 1243 86 L 1243 0 L 887 0 L 887 707 C 887 802.33333333333 869 873 833 919 C 797 964.33333333333 740 987 662 987 C 581.33333333333 987 520 958.33333333333 478 901 C 435.33333333333 843 414 761 414 655 L 414 223 C 414 175.66666666667 426.33333333333 141 451 119 C 475 97 518.66666666667 86 582 86 L 588 86 L 588 0 L 37 0 L 37 86 L 53 86 C 116.33333333333 86 160.33333333333 98.33333333333 185 123 C 209 147 221 183.66666666667 221 233 L 221 1186 C 221 1441.33333333333 382.33333333333 1569 705 1569 C 748.33333333333 1569 802.33333333333 1564.33333333333 867 1555 C 931 1545.66666666667 982 1534 1020 1520 L 1020 1430 C 928.66666666667 1450 833.66666666667 1460 735 1460 C 619.66666666667 1460 537.33333333333 1437.33333333333 488 1392 C 438.66666666667 1346.66666666667 414 1273 414 1171 L 414 1106 C 414 1067.33333333333 411.33333333333 1009.33333333333 406 932 L 416 932 Z"/>
    <path fill="#000000" stroke="none" transform="matrix(1 0 0 -1 14933 2689)" d="M 1192 -434 L 1106 -502 C 931.33333333333 -364 844 -194.66666666667 844 6 C 844 42.66666666667 846.66666666667 96.66666666667 852 168 L 844 168 C 812.66666666667 103.33333333333 772 56 722 26 C 671.33333333333 -4.66666666667 607.33333333333 -20 530 -20 C 252 -20 113 169 113 547 C 113 732.33333333333 152 874 230 972 C 307.33333333333 1069.33333333333 419 1118 565 1118 C 647.66666666667 1118 720 1101.33333333333 782 1068 C 844 1034.66666666667 896 980.33333333333 938 905 C 977.33333333333 971.66666666667 1030.33333333333 1024 1097 1062 C 1163 1099.33333333333 1236.33333333333 1118 1317 1118 C 1463.66666666667 1118 1575.33333333333 1070.66666666667 1652 976 C 1728.66666666667 880.66666666667 1767 739 1767 551 C 1767 359 1732.66666666667 216 1664 122 C 1594.66666666667 27.33333333333 1490 -20 1350 -20 C 1209.33333333333 -20 1104.66666666667 42.66666666667 1036 168 L 1028 168 C 1033.33333333333 96.66666666667 1036 40.66666666667 1036 0 C 1036 -76.66666666667 1047 -147.33333333333 1069 -212 C 1090.33333333333 -277.33333333333 1131.33333333333 -351.33333333333 1192 -434 Z M 565 111 C 664.33333333333 111 735.66666666667 144 779 210 C 822.33333333333 276 844 388.33333333333 844 547 C 844 705.66666666667 821.66666666667 818.66666666667 777 886 C 731.66666666667 953.33333333333 660.33333333333 987 563 987 C 477.66666666667 987 414.33333333333 951 373 879 C 331.66666666667 807 311 695.66666666667 311 545 C 311 393.66666666667 331.33333333333 283.66666666667 372 215 C 412.66666666667 145.66666666667 477 111 565 111 Z M 1315 987 C 1215.66666666667 987 1144.33333333333 954 1101 888 C 1057.66666666667 822 1036 709.66666666667 1036 551 C 1036 399.66666666667 1058.33333333333 288.66666666667 1103 218 C 1147 146.66666666667 1218.33333333333 111 1317 111 C 1403 111 1466.66666666667 147 1508 219 C 1548.66666666667 291 1569 402.33333333333 1569 553 C 1569 698.33333333333 1549.33333333333 807 1510 879 C 1470.66666666667 951 1405.66666666667 987 1315 987 Z"/>
    <path fill="#000000" stroke="none" transform="matrix(1 0 0 -1 16813 2689)" d="M 1108 391 C 1108 287 1124 214.33333333333 1156 173 C 1188 131.66666666667 1240.33333333333 111 1313 111 C 1478.33333333333 111 1561 221.33333333333 1561 442 L 1561 864 C 1561 914.66666666667 1549 952 1525 976 C 1501 1000 1457.66666666667 1012 1395 1012 L 1386 1012 L 1386 1098 L 1753 1098 L 1753 223 C 1753 176.33333333333 1765 142 1789 120 C 1812.33333333333 97.33333333333 1855.66666666667 86 1919 86 L 1927 86 L 1927 0 L 1602 0 L 1575 166 L 1565 166 C 1529 101.33333333333 1486.66666666667 54.33333333333 1438 25 C 1388.66666666667 -5 1323.66666666667 -20 1243 -20 C 1131.66666666667 -20 1049.33333333333 12.66666666667 996 78 C 942 142.66666666667 915 243.66666666667 915 381 L 915 707 C 915 805.66666666667 898.33333333333 877 865 921 C 831 965 776 987 700 987 C 542 987 463 876.33333333333 463 655 L 463 223 C 463 175.66666666667 474.66666666667 141 498 119 C 521.33333333333 97 564.33333333333 86 627 86 L 637 86 L 637 0 L 86 0 L 86 86 L 102 86 C 165.33333333333 86 209.33333333333 98 234 122 C 258 145.33333333333 270 182.33333333333 270 233 L 270 815 C 270 886.33333333333 257.66666666667 936.66666666667 233 966 C 208.33333333333 995.33333333333 169 1010 115 1010 C 59 1010 16.66666666667 1005 -12 995 L -12 1085 C 50.66666666667 1107 118 1118 190 1118 C 264.66666666667 1118 322.33333333333 1102.66666666667 363 1072 C 403.66666666667 1041.33333333333 430.66666666667 992.66666666667 444 926 L 455 926 C 491.66666666667 993.33333333333 535 1042.33333333333 585 1073 C 634.33333333333 1103 697.33333333333 1118 774 1118 C 996.66666666667 1118 1108 984.33333333333 1108 717 L 1108 391 Z"/>
    <path fill="#000000" stroke="none" transform="matrix(1 0 0 -1 19319 2689)" d="M 1079 473 C 1079 173.66666666667 959.66666666667 11.33333333333 721 -14 C 724.33333333333 -86 736.66666666667 -153 758 -215 C 778.66666666667 -277.66666666667 816.66666666667 -350.66666666667 872 -434 L 786 -502 C 626 -366 540 -200.66666666667 528 -6 C 430.66666666667 14.66666666667 355.33333333333 64 302 142 C 248 219.33333333333 221 327.66666666667 221 467 L 221 872 C 221 918.66666666667 208.66666666667 953.66666666667 184 977 C 159.33333333333 1000.33333333333 116.33333333333 1012 55 1012 L 47 1012 L 47 1098 L 414 1098 L 414 465 C 414 331 433 234.33333333333 471 175 C 508.33333333333 115.66666666667 568.33333333333 86 651 86 C 733.66666666667 86 793.66666666667 117 831 179 C 868.33333333333 240.33333333333 887 338.33333333333 887 473 L 887 864 C 887 914.66666666667 875 952 851 976 C 827 1000 783.66666666667 1012 721 1012 L 713 1012 L 713 1098 L 1079 1098 L 1079 473 Z"/>
    <path fill="#000000" stroke="none" transform="matrix(1 0 0 -1 20587 2689)" d="M 887 541 C 887 702.33333333333 864.33333333333 818 819 888 C 773 958 700 993 600 993 C 501.33333333333 993 431 959.33333333333 389 892 C 347 824 326 707 326 541 C 326 392.33333333333 347.66666666667 279.33333333333 391 202 C 434.33333333333 124.66666666667 504 86 600 86 C 698.66666666667 86 771.33333333333 121.33333333333 818 192 C 864 262.66666666667 887 379 887 541 Z M 324 981 L 332 981 C 367.33333333333 1017.66666666667 411 1046.33333333333 463 1067 C 515 1087.66666666667 572.33333333333 1098 635 1098 C 781.66666666667 1098 893 1051.33333333333 969 958 C 1045 864 1083 725 1083 541 C 1083 167 922 -20 600 -20 C 481.33333333333 -20 388.66666666667 8 322 64 C 254.66666666667 120 205.66666666667 207.66666666667 175 327 C 144.33333333333 446.33333333333 129 598.66666666667 129 784 L 129 1264 C 129 1334 117 1384 93 1414 C 69 1443.33333333333 29 1458 -27 1458 C -85 1458 -127.33333333333 1453.33333333333 -154 1444 L -154 1534 C -89.33333333333 1556 -21.66666666667 1567 49 1567 C 232.33333333333 1567 324 1466 324 1264 L 324 981 Z"/>
    <path fill="#000000" stroke="none" transform="matrix(1 0 0 -1 21783 2689)" d="M 463 1483 C 579 1483 670.66666666667 1460 738 1414 C 804.66666666667 1367.33333333333 838 1304.33333333333 838 1225 C 838 1163 819 1110 781 1066 C 743 1021.33333333333 693 989.66666666667 631 971 L 631 961 C 710.33333333333 943 767 917.33333333333 801 884 C 835 850 852 801.66666666667 852 739 C 852 687 834.33333333333 643 799 607 C 763 570.33333333333 707 540.66666666667 631 518 L 631 508 C 791.66666666667 471.33333333333 872 391.33333333333 872 268 C 872 76 725.33333333333 -20 432 -20 C 351.33333333333 -20 284 -10.66666666667 230 8 C 176 26 135.33333333333 51.66666666667 108 85 C 80 117.66666666667 66 156.33333333333 66 201 C 66 288.33333333333 116.33333333333 332 217 332 C 217 254 237 192.33333333333 277 147 C 316.33333333333 101 371.33333333333 78 442 78 C 521.33333333333 78 580 93.33333333333 618 124 C 655.33333333333 154 674 203.33333333333 674 272 C 674 334.66666666667 653 381.33333333333 611 412 C 568.33333333333 442 509.33333333333 457 434 457 L 305 457 L 305 567 L 436 567 C 583.33333333333 567 657 624.33333333333 657 739 C 657 802.33333333333 638.33333333333 846.66666666667 601 872 C 563 896.66666666667 504 909 424 909 L 305 909 L 305 1020 L 426 1020 C 494.66666666667 1020 548 1037 586 1071 C 624 1104.33333333333 643 1148.66666666667 643 1204 C 643 1264 627.33333333333 1310 596 1342 C 564.66666666667 1373.33333333333 519 1389 459 1389 C 431.66666666667 1389 408 1385.66666666667 388 1379 C 368 1372.33333333333 349.33333333333 1365 332 1357 C 314 1349 296 1341.66666666667 278 1335 C 259.33333333333 1328.33333333333 238.33333333333 1325 215 1325 C 182.33333333333 1325 156.66666666667 1335.66666666667 138 1357 C 118.66666666667 1377.66666666667 109 1403.33333333333 109 1434 C 109 1506.66666666667 142.33333333333 1551 209 1567 C 215 1537.66666666667 224.66666666667 1513.66666666667 238 1495 C 251.33333333333 1475.66666666667 271.66666666667 1466 299 1466 C 319 1466 343.66666666667 1469 373 1475 C 402.33333333333 1480.33333333333 432.33333333333 1483 463 1483 Z"/>
    <path fill="#000000" stroke="none" transform="matrix(1 0 0 -1 22768 2689)" d="M 180 989 C 111.33333333333 989 61.66666666667 984.33333333333 31 975 L 31 1065 C 93.66666666667 1087 161 1098 233 1098 L 971 1098 L 971 989 L 539 989 L 539 358 C 539 259.33333333333 554.66666666667 189.33333333333 586 148 C 616.66666666667 106.66666666667 667.66666666667 86 739 86 C 801.66666666667 86 864 96.33333333333 926 117 L 926 27 C 898 11.66666666667 863.33333333333 -0.33333333333 822 -9 C 780 -18.33333333333 737.33333333333 -23 694 -23 C 576.66666666667 -23 489.33333333333 7.66666666667 432 69 C 374.66666666667 129.66666666667 346 216.66666666667 346 330 L 346 989 L 180 989 Z"/>
    <path fill="#000000" stroke="none" transform="matrix(1 0 0 -1 23882 2689)" d="M 717 233 C 717 182.33333333333 728.66666666667 145.33333333333 752 122 C 775.33333333333 98 818.33333333333 86 881 86 L 901 86 L 901 0 L 340 0 L 340 86 L 358 86 C 421.33333333333 86 465 97 489 119 C 512.33333333333 140.33333333333 524 175 524 223 L 524 723 C 524 823 504.33333333333 896 465 942 C 425.66666666667 987.33333333333 360 1010 268 1010 C 192 1010 116.33333333333 999.66666666667 41 979 L 41 1069 C 62.33333333333 1079.66666666667 100.66666666667 1090.66666666667 156 1102 C 211.33333333333 1112.66666666667 261.66666666667 1118 307 1118 C 580.33333333333 1118 717 991 717 737 L 717 233 Z"/>
    <path fill="#000000" stroke="none" transform="matrix(1 0 0 -1 24840 2689)" d="M 442 391 C 442 292.33333333333 459 221 493 177 C 526.33333333333 133 581 111 657 111 C 740.33333333333 111 804.33333333333 139.33333333333 849 196 C 893 252 915 334 915 442 L 915 864 C 915 914 903.33333333333 951.33333333333 880 976 C 856.66666666667 1000 813.33333333333 1012 750 1012 L 741 1012 L 741 1098 L 1108 1098 L 1108 223 C 1108 176.33333333333 1120 142 1144 120 C 1167.33333333333 97.33333333333 1210.66666666667 86 1274 86 L 1282 86 L 1282 0 L 956 0 L 930 166 L 920 166 C 884.66666666667 102 841.33333333333 55 790 25 C 738.66666666667 -5 671.33333333333 -20 588 -20 C 362.66666666667 -20 250 113.66666666667 250 381 L 250 815 C 250 884.33333333333 239 934.33333333333 217 965 C 195 995 158 1010 106 1010 C 53.33333333333 1010 14 1005 -12 995 L -12 1085 C 48 1107 112.66666666667 1118 182 1118 C 273.33333333333 1118 339.66666666667 1092.66666666667 381 1042 C 421.66666666667 991.33333333333 442 918.33333333333 442 823 L 442 391 Z"/>
    <path fill="#000000" stroke="none" transform="matrix(1 0 0 -1 26701 2689)" d="M 334 891 L 487 618 L 688 989 L 258 989 C 166 989 99.66666666667 984.33333333333 59 975 L 59 1065 C 123.66666666667 1087 191.33333333333 1098 262 1098 L 895 1098 L 895 1014 L 580 461 L 682 289 C 725.33333333333 217.66666666667 762.66666666667 168 794 140 C 825.33333333333 112 860.33333333333 98 899 98 C 927 98 955.66666666667 107 985 125 L 1020 59 C 997.33333333333 35.66666666667 972.66666666667 16.66666666667 946 2 C 919.33333333333 -12.66666666667 885.33333333333 -20 844 -20 C 806 -20 773.66666666667 -14.33333333333 747 -3 C 719.66666666667 8.33333333333 695.33333333333 25 674 47 C 652 69 630 99.33333333333 608 138 C 585.33333333333 176 552 240.66666666667 508 332 L 154 -365 L -61 -365 L 418 492 L 190 891 L 334 891 Z"/>
    <path fill="#000000" stroke="none" transform="matrix(1 0 0 -1 27752 2689)" d="M 844 -492 L 844 -82 C 844 -38 846.66666666667 45.33333333333 852 168 L 844 168 C 812.66666666667 103.33333333333 772 56 722 26 C 671.33333333333 -4.66666666667 607.33333333333 -20 530 -20 C 252 -20 113 169 113 547 C 113 732.33333333333 152 874 230 972 C 307.33333333333 1069.33333333333 419 1118 565 1118 C 647.66666666667 1118 720 1101.33333333333 782 1068 C 844 1034.66666666667 896 980.33333333333 938 905 C 977.33333333333 971.66666666667 1030.33333333333 1024 1097 1062 C 1163 1099.33333333333 1236.33333333333 1118 1317 1118 C 1463.66666666667 1118 1575.33333333333 1070.66666666667 1652 976 C 1728.66666666667 880.66666666667 1767 739 1767 551 C 1767 359 1732.66666666667 216 1664 122 C 1594.66666666667 27.33333333333 1490 -20 1350 -20 C 1209.33333333333 -20 1104.66666666667 42.66666666667 1036 168 L 1028 168 L 1036 -72 L 1036 -492 L 844 -492 Z M 565 111 C 664.33333333333 111 735.66666666667 144 779 210 C 822.33333333333 276 844 388.33333333333 844 547 C 844 705.66666666667 821.66666666667 818.66666666667 777 886 C 731.66666666667 953.33333333333 660.33333333333 987 563 987 C 477.66666666667 987 414.33333333333 951 373 879 C 331.66666666667 807 311 695.66666666667 311 545 C 311 393.66666666667 331.33333333333 283.66666666667 372 215 C 412.66666666667 145.66666666667 477 111 565 111 Z M 1315 987 C 1215.66666666667 987 1144.33333333333 954 1101 888 C 1057.66666666667 822 1036 709.66666666667 1036 551 C 1036 399.66666666667 1058.33333333333 288.66666666667 1103 218 C 1147 146.66666666667 1218.33333333333 111 1317 111 C 1403 111 1466.66666666667 147 1508 219 C 1548.66666666667 291 1569 402.33333333333 1569 553 C 1569 698.33333333333 1549.33333333333 807 1510 879 C 1470.66666666667 951 1405.66666666667 987 1315 987 Z"/>
    <path fill="#000000" stroke="none" transform="matrix(1 0 0 -1 29632 2689)" d="M 1079 391 C 1079 293 1094.66666666667 222 1126 178 C 1157.33333333333 133.33333333333 1209.33333333333 111 1282 111 C 1360.66666666667 111 1420.33333333333 139.66666666667 1461 197 C 1501.66666666667 254.33333333333 1522 336 1522 442 L 1522 707 C 1522 802.33333333333 1504.66666666667 873 1470 919 C 1435.33333333333 964.33333333333 1381 987 1307 987 C 1233.66666666667 987 1177.33333333333 961 1138 909 C 1098.66666666667 856.33333333333 1079 780.66666666667 1079 682 L 1079 391 Z M 887 707 C 887 802.33333333333 869.66666666667 873 835 919 C 800.33333333333 964.33333333333 746 987 672 987 C 595.33333333333 987 536.66666666667 958.33333333333 496 901 C 454.66666666667 843.66666666667 434 761.66666666667 434 655 L 434 223 C 434 176.33333333333 446 142 470 120 C 493.33333333333 97.33333333333 536.66666666667 86 600 86 L 608 86 L 608 0 L 57 0 L 57 86 L 84 86 C 144 86 185.33333333333 97.66666666667 208 121 C 230.66666666667 144.33333333333 242 181.66666666667 242 233 L 242 872 C 242 920.66666666667 230.66666666667 956.33333333333 208 979 C 185.33333333333 1001 144.66666666667 1012 86 1012 L 78 1012 L 78 1098 L 399 1098 L 426 932 L 436 932 C 472 998.66666666667 513.33333333333 1046.33333333333 560 1075 C 606.66666666667 1103.66666666667 668.33333333333 1118 745 1118 C 819.66666666667 1118 882.33333333333 1102.33333333333 933 1071 C 983 1039 1019.33333333333 992.66666666667 1042 932 L 1059 932 C 1093.66666666667 996 1135.66666666667 1043 1185 1073 C 1234.33333333333 1103 1299.33333333333 1118 1380 1118 C 1489.33333333333 1118 1572.33333333333 1084.66666666667 1629 1018 C 1685.66666666667 951.33333333333 1714 851 1714 717 L 1714 233 C 1714 181.66666666667 1725 144.33333333333 1747 121 C 1769 97.66666666667 1810 86 1870 86 L 1878 86 L 1878 0 L 1563 0 L 1536 166 L 1526 166 C 1494 103.33333333333 1453.66666666667 56.66666666667 1405 26 C 1355.66666666667 -4.66666666667 1290.66666666667 -20 1210 -20 C 1100.66666666667 -20 1019.66666666667 13 967 79 C 913.66666666667 145 887 245.66666666667 887 381 L 887 707 Z"/>
    <path fill="#000000" stroke="none" transform="matrix(1 0 0 -1 31567 2689)" d="M 424 -20 C 424 -148 445 -242.33333333333 487 -303 C 529 -364.33333333333 592.66666666667 -395 678 -395 C 745.33333333333 -395 796.33333333333 -372 831 -326 C 865 -280.66666666667 887 -213 897 -123 C 937.66666666667 -126.33333333333 969 -140.33333333333 991 -165 C 1013 -189.66666666667 1024 -220 1024 -256 C 1024 -299.33333333333 1010 -339 982 -375 C 953.33333333333 -411 912.33333333333 -439.33333333333 859 -460 C 805.66666666667 -481.33333333333 744 -492 674 -492 C 530 -492 420.33333333333 -447 345 -357 C 269 -267.66666666667 231 -140.33333333333 231 25 L 231 872 C 231 920 218.66666666667 955.33333333333 194 978 C 168.66666666667 1000.66666666667 126 1012 66 1012 L 57 1012 L 57 1098 L 389 1098 L 416 932 L 426 932 C 461.33333333333 996.66666666667 503.66666666667 1044 553 1074 C 601.66666666667 1103.33333333333 665.66666666667 1118 745 1118 C 975 1118 1090 984.33333333333 1090 717 L 1090 233 C 1090 182.33333333333 1100.66666666667 145.33333333333 1122 122 C 1143.33333333333 98 1184.33333333333 86 1245 86 L 1253 86 L 1253 0 L 897 0 L 897 707 C 897 802.33333333333 879 873 843 919 C 807 964.33333333333 750 987 672 987 C 592 987 530.66666666667 958.66666666667 488 902 C 445.33333333333 844.66666666667 424 762.33333333333 424 655 L 424 -20 Z"/>
    <path fill="#000000" stroke="none" transform="matrix(1 0 0 -1 32878 2689)" d="M 311 539 C 311 393.66666666667 343.33333333333 267.66666666667 408 161 C 472.66666666667 54.33333333333 565 -27.33333333333 685 -84 C 805 -141.33333333333 943.33333333333 -170 1100 -170 C 1145.33333333333 -170 1196.33333333333 -168.33333333333 1253 -165 C 1309 -161.66666666667 1370 -160 1436 -160 C 1494 -160 1539.66666666667 -173 1573 -199 C 1605.66666666667 -225.66666666667 1622 -261 1622 -305 C 1622 -336.33333333333 1610.66666666667 -364.33333333333 1588 -389 C 1565.33333333333 -413.66666666667 1536.33333333333 -428.66666666667 1501 -434 C 1491.66666666667 -403.33333333333 1453.66666666667 -375 1387 -349 C 1320.33333333333 -323 1230.66666666667 -302.66666666667 1118 -288 C 1005.33333333333 -273.33333333333 884.66666666667 -266 756 -266 C 577.33333333333 -266 438 -305.66666666667 338 -385 L 289 -332 C 316.33333333333 -287.33333333333 360.66666666667 -249 422 -217 C 482.66666666667 -185.66666666667 543.33333333333 -168.66666666667 604 -166 C 443.33333333333 -94.66666666667 321.33333333333 -1.66666666667 238 113 C 154.66666666667 227.66666666667 113 369 113 537 C 113 658.33333333333 129.33333333333 763 162 851 C 194 939 239.66666666667 1005.66666666667 299 1051 C 358.33333333333 1095.66666666667 427.33333333333 1118 506 1118 C 634 1118 729.66666666667 1054.66666666667 793 928 L 801 928 C 859.66666666667 1054.66666666667 956 1118 1090 1118 C 1219.33333333333 1118 1314 1054.66666666667 1374 928 L 1382 928 C 1442.66666666667 1054.66666666667 1539.66666666667 1118 1673 1118 C 1751 1118 1819.66666666667 1094.33333333333 1879 1047 C 1937.66666666667 999.66666666667 1983 931.66666666667 2015 843 C 2046.33333333333 754.33333333333 2062 648.66666666667 2062 526 C 2062 430 2049.33333333333 340 2024 256 C 1998.66666666667 171.33333333333 1964.66666666667 104.33333333333 1922 55 C 1878.66666666667 5 1833.33333333333 -20 1786 -20 C 1770.66666666667 -20 1757.66666666667 -14.66666666667 1747 -4 C 1736.33333333333 6.66666666667 1731 19.66666666667 1731 35 C 1819.66666666667 94.33333333333 1864 258 1864 526 C 1864 683.33333333333 1847.33333333333 803 1814 885 C 1780 967 1730.33333333333 1008 1665 1008 C 1603.66666666667 1008 1556.66666666667 975.33333333333 1524 910 C 1491.33333333333 844.66666666667 1475 754.33333333333 1475 639 L 1475 512 L 1282 512 L 1282 635 C 1282 883.66666666667 1217 1008 1087 1008 C 1025.66666666667 1008 978 975.66666666667 944 911 C 910 846.33333333333 893 755.66666666667 893 639 L 893 512 L 700 512 L 700 635 C 700 758.33333333333 685 851.33333333333 655 914 C 624.33333333333 976.66666666667 576.66666666667 1008 512 1008 C 440 1008 388.66666666667 970.33333333333 358 895 C 326.66666666667 819.66666666667 311 701 311 539 Z"/>
    <path fill="#000000" stroke="none" transform="matrix(1 0 0 -1 35053 2689)" d="M 705 858 C 705 902.66666666667 693 939 669 967 C 645 994.33333333333 613 1008 573 1008 C 471 1008 420 933.33333333333 420 784 C 372.66666666667 784 336.33333333333 795.33333333333 311 818 C 285 840.66666666667 272 870.33333333333 272 907 C 272 966.33333333333 300 1016.33333333333 356 1057 C 411.33333333333 1097.66666666667 483 1118 571 1118 C 663.66666666667 1118 738 1095.33333333333 794 1050 C 849.33333333333 1004 877 944 877 870 C 877 758 817.33333333333 680.33333333333 698 637 C 818 619 910 562.66666666667 974 468 C 1037.33333333333 372.66666666667 1069 243.33333333333 1069 80 C 1069 -301.33333333333 908.66666666667 -492 588 -492 C 434 -492 316.33333333333 -443 235 -345 C 153.66666666667 -247.66666666667 113 -106 113 80 C 113 409.33333333333 233 595 473 637 C 627.66666666667 663 705 736.66666666667 705 858 Z M 311 80 C 311 -82 333.66666666667 -200 379 -274 C 424.33333333333 -348 495.33333333333 -385 592 -385 C 687.33333333333 -385 757.66666666667 -348.33333333333 803 -275 C 847.66666666667 -202.33333333333 870 -84 870 80 C 870 240 848 357 804 431 C 759.33333333333 504.33333333333 688 541 590 541 C 492.66666666667 541 422 504.33333333333 378 431 C 333.33333333333 357.66666666667 311 240.66666666667 311 80 Z"/>
    <path fill="#000000" stroke="none" transform="matrix(1 0 0 -1 36235 2689)" d="M 416 932 C 477.33333333333 1056 577.66666666667 1118 717 1118 C 958.33333333333 1118 1079 984.33333333333 1079 717 L 1079 233 C 1079 181 1090.33333333333 143.66666666667 1113 121 C 1135.66666666667 97.66666666667 1177 86 1237 86 L 1243 86 L 1243 0 L 887 0 L 887 707 C 887 802.33333333333 869 873 833 919 C 797 964.33333333333 740 987 662 987 C 581.33333333333 987 520 958.33333333333 478 901 C 435.33333333333 843 414 761 414 655 L 414 223 C 414 175.66666666667 426.33333333333 141 451 119 C 475 97 518.66666666667 86 582 86 L 588 86 L 588 0 L 37 0 L 37 86 L 53 86 C 116.33333333333 86 160.33333333333 98.33333333333 185 123 C 209 147 221 183.66666666667 221 233 L 221 1186 C 221 1441.33333333333 382.33333333333 1569 705 1569 C 748.33333333333 1569 802.33333333333 1564.33333333333 867 1555 C 931 1545.66666666667 982 1534 1020 1520 L 1020 1430 C 928.66666666667 1450 833.66666666667 1460 735 1460 C 619.66666666667 1460 537.33333333333 1437.33333333333 488 1392 C 438.66666666667 1346.66666666667 414 1273 414 1171 L 414 1106 C 414 1067.33333333333 411.33333333333 1009.33333333333 406 932 L 416 932 Z"/>
</svg>
