<svg xmlns="http://www.w3.org/2000/svg" viewBox="0 0 43572 3750" transform="translate(0, 3750) scale(1, -1)">
<path d="M600,170Q600,157 607,145Q613,133 625,127Q637,120 650,120Q663,120 675,127Q687,133 694,145Q700,157 700,170Q700,183 693,195Q686,207 675,214Q663,220 650,220Q637,220 625,214Q613,207 607,195Q600,183 600,170ZM206,1769Q144,1723 144,1631Q144,1509 232,1494Q240,1493 247,1493Q354,1493 396,1600Q405,1561 405,1529Q405,1466 372,1426Q321,1366 256,1366Q242,1366 227,1369Q170,1373 127,1401Q84,1429 54,1466Q23,1502 12,1542Q0,1582 0,1631Q0,1784 96,1862Q196,1944 401,1944Q605,1944 704,1857Q800,1774 800,1610Q800,1458 614,1286Q488,1172 488,1081L488,300Q488,240 503,198Q507,222 520,245Q540,281 576,301Q612,320 650,320Q688,320 724,301Q759,281 780,245Q800,209 800,170Q800,87 757,45Q712,0 620,0Q445,0 366,90Q300,164 300,300L300,1081Q300,1219 509,1378Q666,1494 666,1610Q666,1712 602,1764Q535,1817 401,1817Q271,1817 206,1769Z"  transform="translate(0, 1100)"/>
<path d="M414,395Q394,378 394,354Q394,328 414,310Q433,292 460,292Q485,292 505,310Q524,328 524,354Q524,378 505,395Q485,412 460,412Q433,412 414,395ZM266,73Q147,145 147,273Q147,387 225,445Q303,503 460,503Q531,503 576,462Q621,420 621,354Q621,279 581,241Q540,203 460,203Q379,203 338,241Q332,247 327,254Q348,110 647,110Q803,110 906,168Q1009,226 1009,369Q1009,474 908,553Q806,631 645,658L393,704Q147,744 147,980Q147,1300 620,1300Q973,1300 1197,998Q927,1156 626,1156Q335,1156 335,980Q335,829 493,798L667,768Q906,729 1052,635Q1197,541 1197,369Q1197,154 1072,77Q947,0 647,0Q384,0 266,73Z"  transform="translate(947, 1100)"/>
<path d="M435,1208Q365,1208 365,1139Q365,1070 435,1070Q505,1070 505,1139Q505,1208 435,1208ZM540,870Q651,870 794,1002Q936,1134 1023,1300L1187,1218L511,-257L349,-189L854,881Q701,717 540,717Q147,717 147,1039Q147,1294 397,1300Q598,1298 598,1144Q598,1132 597,1118Q597,977 405,977Q359,977 323,1019Q335,870 540,870Z"  transform="translate(2291, 1100)"/>
<path d="M902,1058Q879,1079 848,1098Q716,1196 570,1196Q463,1196 399,1158Q335,1119 335,1036Q335,953 399,930Q463,906 570,906Q716,906 868,1030Q886,1042 902,1058ZM415,84Q485,84 485,154Q485,224 415,224Q345,224 345,154Q345,84 415,84ZM959,905Q813,802 570,802Q366,802 257,854Q147,906 147,1036Q147,1166 257,1233Q366,1300 570,1300Q829,1300 981,1210Q996,1271 1000,1350L1147,1320Q1133,1195 1100,1103Q1147,1036 1147,952L1147,220Q1147,106 1081,51Q1020,0 903,0Q844,0 783,40Q721,79 706,176Q691,273 634,382Q577,490 455,490Q336,490 308,281Q351,323 407,323Q502,323 548,285Q591,250 591,182Q593,165 593,150Q593,83 553,46Q504,1 397,0Q273,3 211,67Q147,132 147,261Q147,451 225,522Q304,594 455,594Q609,594 704,501Q799,407 823,276Q847,144 903,144Q959,144 959,220L959,905Z"  transform="translate(3625, 1100)"/>
<path d="M531,131Q553,150 553,191Q553,227 536,246Q517,267 478,267Q402,267 402,191Q402,146 429,128Q447,116 478,116Q512,116 531,131ZM356,352Q402,382 478,382Q573,382 621,334Q668,286 668,190Q668,95 620,47Q573,0 478,0Q348,0 273,52Q168,123 168,295L168,920Q168,1135 263,1228Q335,1300 464,1300Q597,1300 693,1127Q789,1300 922,1300Q1052,1300 1126,1226Q1218,1132 1218,920L1218,200Q1218,105 1168,0L980,0Q1030,75 1030,200L1030,920Q1030,1066 995,1126Q960,1186 922,1186Q852,1186 693,973Q534,1186 464,1186Q426,1186 391,1126Q356,1066 356,920L356,352Z"  transform="translate(4940, 1100)"/>
<path d="M531,131Q553,150 553,191Q553,227 536,246Q517,267 478,267Q402,267 402,191Q402,146 429,128Q447,116 478,116Q512,116 531,131ZM1030,920Q1030,1047 950,1119Q869,1190 689,1190Q509,1190 433,1119Q356,1047 356,920L356,352Q402,382 478,382Q573,382 621,334Q668,286 668,190Q668,95 620,47Q573,0 478,0Q348,0 273,52Q168,123 168,295L168,920Q168,1113 291,1207Q413,1300 689,1300Q964,1300 1091,1207Q1218,1113 1218,920L1218,200Q1218,105 1168,0L980,0Q1030,75 1030,200L1030,920Z"  transform="translate(6326, 1100)"/>
<path d=""  transform="translate(7712, 1100)"/>
<path d="M350,860Q350,842 359,826Q367,810 383,802Q399,793 417,793Q435,793 451,802Q467,810 476,826Q485,842 485,860Q485,878 476,894Q466,910 450,919Q434,928 417,928Q400,928 384,919Q368,910 359,894Q350,878 350,860ZM1019,921Q1019,1064 941,1127Q863,1190 677,1190Q291,1190 291,961L291,960Q310,984 338,1000Q376,1020 417,1020Q457,1020 496,1000Q534,979 556,941Q577,902 577,860Q577,818 556,780Q535,742 497,721Q459,700 417,700Q147,700 147,961Q147,1300 677,1300Q957,1300 1082,1218Q1207,1136 1207,921Q1207,750 1060,661Q912,572 677,514L506,470Q335,425 335,230Q335,110 409,110Q483,110 661,208Q838,305 945,305Q1070,305 1133,243Q1197,179 1197,-60Q1197,-270 1300,-390Q1009,-300 1009,-60Q1009,161 945,161Q841,161 687,81Q533,0 409,0Q293,0 220,58Q147,115 147,230Q147,495 396,558L644,622Q802,662 911,732Q1019,802 1019,921Z"  transform="translate(8352, 1100)"/>
<path d="M457,1184Q426,1184 408,1172Q381,1154 381,1109Q381,1033 457,1033Q496,1033 515,1054Q532,1073 532,1109Q532,1150 510,1169Q491,1184 457,1184ZM1197,380Q1197,187 1067,92Q943,0 668,0Q392,0 267,83Q147,163 147,350Q147,574 310,640Q147,713 147,870L147,1005Q147,1177 252,1248Q327,1300 457,1300Q552,1300 599,1253Q647,1205 647,1110Q647,1014 600,966Q552,918 457,918Q381,918 335,948L335,870Q335,704 547,704L627,704L627,570L547,570Q335,570 335,350Q335,229 412,170Q488,110 668,110Q848,110 929,182Q1009,253 1009,380L1009,1270Q1009,1355 1063,1465Q1116,1575 1280,1635Q1197,1485 1197,1270L1197,380Z"  transform="translate(9706, 1100)"/>
<path d="M243,158Q305,158 305,220Q305,281 243,281Q182,281 182,220Q182,158 243,158ZM653,380Q653,207 726,159Q799,110 939,110Q1079,110 1147,184Q1215,257 1215,380L1215,1100Q1215,1225 1165,1300L1353,1300Q1403,1195 1403,1100L1403,380Q1403,190 1288,95Q1173,0 944,0Q715,0 590,95L589,96Q511,0 340,0Q82,0 82,220Q82,382 243,382Q405,382 405,220Q405,155 362,116Q465,138 465,322L465,1100Q465,1225 415,1300L603,1300Q653,1195 653,1100L653,380Z"  transform="translate(11071, 1100)"/>
<path d="M317,1055Q381,1055 381,1118Q381,1182 317,1182Q253,1182 253,1118Q253,1055 317,1055ZM820,1045L820,1068Q820,1186 788,1186Q748,1186 748,1115Q748,1044 791,1044Q806,1044 820,1045ZM1331,256Q1288,256 1288,185Q1288,114 1328,114Q1360,114 1360,232L1360,255Q1346,256 1331,256ZM1008,374Q1008,164 909,79Q818,0 568,0Q338,0 247,78Q147,164 147,374Q147,692 263,847Q303,899 330,946Q239,947 193,990Q147,1033 147,1118Q147,1209 194,1255Q240,1300 332,1300Q416,1300 468,1255Q519,1209 519,1118Q519,992 427,820Q335,648 335,374Q335,206 383,158Q430,110 569,110Q727,110 774,159Q820,208 820,374L820,930L793,930Q739,930 682,983Q632,1029 632,1115Q632,1209 681,1255Q729,1300 793,1300Q955,1300 997,1159Q1078,1300 1226,1300Q1393,1300 1471,1217Q1548,1134 1548,1010L1548,315Q1648,110 1766,110Q1838,110 1869,156Q1900,201 1900,290L1900,1100Q1900,1225 1850,1300L2038,1300Q2088,1195 2088,1100L2088,290Q2088,166 2011,83Q1933,0 1766,0Q1618,0 1537,141Q1495,0 1333,0Q1269,0 1221,45Q1172,91 1172,185Q1172,271 1222,317Q1279,370 1333,370L1360,370L1360,1010Q1360,1099 1329,1145Q1298,1190 1226,1190Q1108,1190 1008,985L1008,374Z"  transform="translate(12642, 1100)"/>
<path d="M475,195Q468,183 468,170Q468,157 475,145Q481,133 493,127Q505,120 518,120Q531,120 543,127Q555,133 562,145Q568,157 568,170Q568,183 561,195Q554,207 543,214Q531,220 518,220Q505,220 493,214Q481,207 475,195ZM356,300Q356,240 371,198Q375,222 388,245Q408,281 444,301Q480,320 518,320Q556,320 592,301Q627,281 648,245Q668,209 668,170Q668,87 625,45Q580,0 488,0Q334,0 254,70Q168,144 168,300L168,1000Q168,1157 254,1232Q333,1300 462,1300Q660,1300 698,1126Q600,1186 502,1186Q404,1186 380,1136Q356,1085 356,1000L356,300Z"  transform="translate(14898, 1100)"/>
<path d="M317,1055Q381,1055 381,1118Q381,1182 317,1182Q253,1182 253,1118Q253,1055 317,1055ZM820,1045L820,1068Q820,1186 788,1186Q748,1186 748,1115Q748,1044 791,1044Q806,1044 820,1045ZM1360,1010Q1360,1099 1329,1145Q1298,1190 1226,1190Q1108,1190 1008,985L1008,374Q1008,164 909,79Q818,0 568,0Q338,0 247,78Q147,164 147,374Q147,692 263,847Q303,899 330,946Q239,947 193,990Q147,1033 147,1118Q147,1209 194,1255Q240,1300 332,1300Q416,1300 468,1255Q519,1209 519,1118Q519,992 427,820Q335,648 335,374Q335,206 383,158Q430,110 569,110Q727,110 774,159Q820,208 820,374L820,930L793,930Q739,930 682,983Q632,1029 632,1115Q632,1209 681,1255Q729,1300 793,1300Q955,1300 997,1159Q1078,1300 1226,1300Q1393,1300 1471,1217Q1548,1134 1548,1010L1548,200Q1548,105 1498,0L1310,0Q1360,75 1360,200L1360,1010Z"  transform="translate(15648, 1100)"/>
<path d=""  transform="translate(17364, 1100)"/>
<path d="M509,170Q509,157 516,145Q522,133 534,127Q546,120 559,120Q572,120 584,127Q596,133 603,145Q609,157 609,170Q609,183 602,195Q595,207 584,214Q572,220 559,220Q546,220 534,214Q522,207 516,195Q509,183 509,170ZM604,1307Q477,1223 438,1159Q397,1093 397,1010L397,300Q397,240 412,198Q416,222 429,245Q449,281 485,301Q521,320 559,320Q597,320 633,301Q668,281 689,245Q709,209 709,170Q709,87 666,45Q621,0 529,0Q354,0 275,90Q209,164 209,300L209,1010Q209,1190 373,1315L74,1579Q7,1638 0,1735L0,1742Q0,1814 41,1866Q102,1928 174,1933Q185,1934 196,1934Q285,1934 343,1883L450,1791Q610,1647 690,1647Q700,1647 779,1649Q700,1540 608,1540Q515,1540 356,1683L239,1787Q207,1817 178,1817Q150,1817 125,1786Q116,1774 116,1762Q116,1735 155,1702L603,1312L608,1310Q607,1309 606,1309L608,1307L604,1307Z"  transform="translate(18004, 1100)"/>
<path d="M273,1033Q349,1033 349,1109Q349,1184 273,1184Q198,1184 198,1109Q198,1033 273,1033ZM340,925Q310,918 273,918Q172,918 124,972Q82,1019 82,1109Q82,1198 124,1246Q171,1300 273,1300Q394,1300 457,1242Q528,1177 528,1040L528,390Q528,307 519,252Q577,247 634,190Q691,110 849,110Q968,110 1029,183Q1090,256 1090,360L1090,1100Q1090,1225 1040,1300L1228,1300Q1278,1195 1278,1100L1278,360Q1278,183 1175,92Q1071,0 869,0Q648,0 550,106Q517,141 479,144Q391,0 147,0L147,144Q244,144 292,196Q340,247 340,390L340,925Z"  transform="translate(18860, 1100)"/>
<path d="M509,170Q509,157 516,145Q522,133 534,127Q546,120 559,120Q572,120 584,127Q596,133 603,145Q609,157 609,170Q609,183 602,195Q595,207 584,214Q572,220 559,220Q546,220 534,214Q522,207 516,195Q509,183 509,170ZM397,300Q397,240 412,198Q416,222 429,245Q449,281 485,301Q521,320 559,320Q597,320 633,301Q668,281 689,245Q709,209 709,170Q709,87 666,45Q621,0 529,0Q354,0 275,90Q209,164 209,300L209,1010Q209,1115 369,1212Q529,1309 544,1323Q558,1336 558,1352Q558,1368 547,1374Q536,1379 524,1379Q501,1379 441,1352Q381,1325 350,1325Q291,1325 256,1366Q221,1407 197,1505Q156,1666 124,1755Q92,1844 -40,1912Q155,1907 199,1851Q242,1795 260,1746Q277,1697 282,1684Q287,1670 298,1628Q309,1592 317,1558Q324,1523 330,1505Q336,1486 345,1472Q354,1458 371,1458Q393,1458 442,1485Q491,1512 542,1512Q593,1512 651,1476Q709,1440 709,1372Q709,1275 549,1184Q397,1093 397,1010L397,300Z"  transform="translate(20306, 1100)"/>
<path d="M494,1130Q494,1194 430,1194Q365,1194 365,1130Q365,1067 430,1067Q494,1067 494,1130ZM1208,380Q1208,165 1116,71Q1046,0 912,0Q759,0 688,117Q617,0 464,0Q331,0 261,70Q168,163 168,380L168,1037Q168,1190 257,1254Q320,1300 420,1300Q500,1300 545,1253Q590,1205 590,1131Q590,1045 550,1002Q510,960 430,960Q387,960 356,971L356,380Q356,227 383,169Q410,110 464,110Q619,110 676,400L700,400Q757,110 912,110Q968,110 994,171Q1020,232 1020,380L1020,1270Q1020,1355 1074,1465Q1127,1575 1291,1635Q1208,1485 1208,1270L1208,380Z"  transform="translate(21162, 1100)"/>
<path d="M263,380Q263,360 273,342Q282,324 300,315Q318,305 338,305Q358,305 376,315Q394,324 404,342Q414,360 414,380Q414,400 404,418Q393,436 375,446Q357,456 338,456Q319,456 301,446Q283,436 273,418Q263,400 263,380ZM1147,380Q1147,190 1022,95Q897,0 647,0Q397,0 272,95Q147,190 147,380Q147,430 173,476Q198,522 244,547Q290,571 338,571Q386,571 432,547Q477,522 503,476Q529,430 529,380Q529,330 504,285Q479,239 434,214Q408,200 380,194Q482,110 647,110Q803,110 881,184Q959,257 959,380L959,902Q959,1009 883,1093Q806,1176 612,1176Q493,1176 379,1138Q265,1100 147,863Q147,1126 271,1213Q396,1300 607,1300Q898,1300 1023,1188Q1147,1075 1147,902L1147,380Z"  transform="translate(22538, 1100)"/>
<path d="M475,195Q468,183 468,170Q468,157 475,145Q481,133 493,127Q505,120 518,120Q531,120 543,127Q555,133 562,145Q568,157 568,170Q568,183 561,195Q554,207 543,214Q531,220 518,220Q505,220 493,214Q481,207 475,195ZM356,300Q356,240 371,198Q375,222 388,245Q408,281 444,301Q480,320 518,320Q556,320 592,301Q627,281 648,245Q668,209 668,170Q668,87 625,45Q580,0 488,0Q334,0 254,70Q168,144 168,300L168,1000Q168,1157 254,1232Q333,1300 462,1300Q660,1300 698,1126Q600,1186 502,1186Q404,1186 380,1136Q356,1085 356,1000L356,300ZM1107,195Q1100,183 1100,170Q1100,157 1107,145Q1113,133 1125,127Q1137,120 1150,120Q1163,120 1175,127Q1187,133 1194,145Q1200,157 1200,170Q1200,183 1193,195Q1186,207 1175,214Q1163,220 1150,220Q1137,220 1125,214Q1113,207 1107,195ZM988,300Q988,240 1003,198Q1007,222 1020,245Q1040,281 1076,301Q1112,320 1150,320Q1188,320 1224,301Q1259,281 1280,245Q1300,209 1300,170Q1300,87 1257,45Q1212,0 1120,0Q966,0 886,70Q800,144 800,300L800,1000Q800,1157 886,1232Q965,1300 1094,1300Q1292,1300 1330,1126Q1232,1186 1134,1186Q1036,1186 1012,1136Q988,1085 988,1000L988,300Z"  transform="translate(23853, 1100)"/>
<path d=""  transform="translate(25236, 1100)"/>
<path d="M198,191Q198,116 273,116Q349,116 349,191Q349,267 273,267Q198,267 198,191ZM814,663Q805,649 805,635Q805,621 814,608Q823,594 839,587Q854,579 870,579Q888,579 904,587Q919,594 928,608Q936,621 936,635Q936,649 928,663Q919,676 904,684Q888,691 870,691Q854,691 839,684Q823,676 814,663ZM340,1045L340,1068Q340,1186 268,1186Q198,1186 198,1115Q198,1044 311,1044Q326,1044 340,1045ZM1090,533L1090,950Q1090,1039 1029,1115Q968,1190 846,1190Q658,1190 561,1033L528,985L528,260Q528,123 457,58Q394,0 273,0Q171,0 124,54Q82,102 82,191Q82,281 124,328Q172,382 273,382Q310,382 340,375L340,930L313,930Q189,930 132,983Q82,1029 82,1115Q82,1209 131,1255Q179,1300 273,1300Q475,1300 517,1159Q628,1300 846,1300Q1063,1300 1171,1212Q1278,1124 1278,950L1278,575Q1362,631 1374,760L1551,760Q1490,536 1278,477L1278,200Q1278,105 1228,0L1040,0Q1090,75 1090,200L1090,456Q712,460 712,635Q712,670 734,702Q755,734 793,752Q830,769 870,769Q910,769 953,752Q995,734 1016,702Q1037,670 1037,635Q1037,600 1017,578Q1016,576 1016,575Q1045,538 1090,533Z"  transform="translate(25876, 1100)"/>
<path d="M310,1053Q371,1053 371,1117Q371,1180 310,1180Q249,1180 249,1117Q249,1053 310,1053ZM1197,430Q1197,190 1072,95Q947,0 671,0Q395,0 270,92Q147,183 147,413Q147,691 259,846Q297,898 322,945Q230,946 186,994Q147,1037 147,1117Q147,1206 189,1251Q233,1300 325,1300Q426,1300 476,1252Q523,1206 523,1117Q523,970 429,809Q335,647 335,413Q335,223 413,167Q491,110 672,110Q852,110 931,171Q1009,232 1009,430L1009,1100Q1009,1225 959,1300L1147,1300Q1197,1195 1197,1100L1197,430Z"  transform="translate(27322, 1100)"/>
<path d="M584,591Q659,592 659,661Q659,728 587,728Q513,728 510,660L510,655Q510,591 582,591L584,591ZM799,0Q623,0 581,105Q561,151 561,228Q561,323 588,378Q639,481 639,486Q618,467 554,467L548,467Q467,479 425,526Q382,573 379,657L379,667Q379,743 422,790Q468,838 561,854L566,854Q664,854 720,815Q771,779 784,710Q794,659 794,612Q794,536 767,473Q723,370 723,241Q723,110 799,110Q894,110 894,205L894,902Q894,1009 818,1093Q741,1176 547,1176Q428,1176 314,1138Q200,1100 82,863Q82,1126 206,1213Q331,1300 542,1300Q833,1300 958,1188Q1082,1075 1082,902L1082,201Q1082,108 1028,58Q965,0 799,0Z"  transform="translate(28687, 1100)"/>
<path d="M310,1053Q371,1053 371,1117Q371,1180 310,1180Q249,1180 249,1117Q249,1053 310,1053ZM730,1300L918,1300L918,360Q918,110 1076,110Q1146,110 1190,166Q1233,222 1233,373L1233,1100Q1233,1195 1283,1300L1471,1300Q1421,1225 1421,1100L1421,373Q1421,169 1322,79Q1236,0 1075,0Q910,0 824,110Q738,0 533,0Q333,0 247,78Q147,168 147,373Q147,691 259,846Q297,898 322,945Q226,946 183,998Q147,1040 147,1117Q147,1216 199,1261Q243,1300 325,1300Q422,1300 471,1256Q523,1211 523,1117Q523,970 429,809Q335,647 335,373Q335,220 380,165Q424,110 533,110Q730,110 730,360L730,1300Z"  transform="translate(29937, 1100)"/>
<path d="M276,375Q260,366 252,351Q243,335 243,318Q243,301 251,286Q259,270 275,262Q290,254 307,254Q324,254 340,262Q355,270 364,286Q373,301 373,318Q373,335 364,351Q354,366 339,375Q323,384 307,384Q291,384 276,375ZM402,188Q463,138 547,138Q673,138 752,224Q831,309 847,458L1035,458Q1008,237 872,134Q752,44 547,44Q377,44 262,113Q147,181 147,318Q147,360 169,399Q190,437 228,458Q266,478 307,478Q347,478 386,458Q424,437 446,399Q467,360 467,318Q467,276 446,238Q429,208 402,188ZM276,1097Q260,1088 252,1073Q243,1057 243,1040Q243,1023 251,1008Q259,992 275,984Q290,976 307,976Q324,976 340,984Q355,992 364,1008Q373,1023 373,1040Q373,1057 364,1073Q354,1088 339,1097Q323,1106 307,1106Q291,1106 276,1097ZM402,910Q463,860 547,860Q673,860 752,946Q831,1031 847,1180L1035,1180Q1008,959 872,856Q752,766 547,766Q377,766 262,835Q147,903 147,1040Q147,1082 169,1121Q190,1159 228,1180Q266,1200 307,1200Q347,1200 386,1180Q424,1159 446,1121Q467,1082 467,1040Q467,998 446,960Q429,930 402,910Z"  transform="translate(31526, 1100)"/>
<path d="M415,84Q485,84 485,154Q485,224 415,224Q345,224 345,154Q345,84 415,84ZM1147,220Q1147,106 1081,51Q1020,0 903,0Q844,0 783,40Q721,79 706,176Q691,273 634,382Q577,490 455,490Q336,490 308,281Q351,323 407,323Q502,323 548,285Q591,250 591,182Q593,165 593,150Q593,83 553,46Q504,1 397,0Q273,3 211,67Q147,132 147,261Q147,451 225,522Q304,594 455,594Q609,594 704,501Q799,407 823,276Q847,144 903,144Q959,144 959,220L959,902Q959,1009 883,1093Q806,1176 612,1176Q493,1176 379,1138Q265,1100 147,863Q147,1126 271,1213Q396,1300 607,1300Q898,1300 1023,1188Q1147,1075 1147,902L1147,220Z"  transform="translate(32708, 1100)"/>
<path d=""  transform="translate(34023, 1100)"/>
<path d="M310,1053Q371,1053 371,1117Q371,1180 310,1180Q249,1180 249,1117Q249,1053 310,1053ZM1421,373Q1421,169 1322,79Q1236,0 1055,0Q870,0 784,110Q698,0 513,0Q333,0 247,78Q147,168 147,373Q147,691 259,846Q297,898 322,945Q226,946 183,998Q147,1040 147,1117Q147,1216 199,1261Q243,1300 325,1300Q422,1300 471,1256Q523,1211 523,1117Q523,970 429,809Q335,647 335,373Q335,220 380,165Q424,110 513,110Q690,110 690,360L690,1100Q690,1195 740,1300L928,1300Q878,1225 878,1100L878,360Q878,110 1056,110Q1146,110 1190,166Q1233,222 1233,373L1233,1270Q1233,1355 1287,1465Q1340,1575 1504,1635Q1421,1485 1421,1270L1421,373Z"  transform="translate(34663, 1100)"/>
<path d="M198,191Q198,116 273,116Q349,116 349,191Q349,267 273,267Q198,267 198,191ZM340,1045L340,1068Q340,1186 268,1186Q198,1186 198,1115Q198,1044 311,1044Q326,1044 340,1045ZM273,0Q171,0 124,54Q82,102 82,191Q82,281 124,328Q172,382 273,382Q310,382 340,375L340,930L313,930Q189,930 132,983Q82,1029 82,1115Q82,1209 131,1255Q179,1300 273,1300Q475,1300 517,1159Q628,1300 846,1300Q1063,1300 1171,1212Q1278,1124 1278,950L1278,200Q1278,105 1228,0L1040,0Q1090,75 1090,200L1090,950Q1090,1039 1029,1115Q968,1190 846,1190Q658,1190 561,1033L528,985L528,260Q528,123 457,58Q394,0 273,0Z"  transform="translate(36252, 1100)"/>
<path d="M317,1055Q381,1055 381,1118Q381,1182 317,1182Q253,1182 253,1118Q253,1055 317,1055ZM820,1045L820,1068Q820,1186 788,1186Q748,1186 748,1115Q748,1044 791,1044Q806,1044 820,1045ZM2087,320Q2087,143 2009,72Q1930,0 1788,0Q1667,0 1569,106Q1536,141 1498,144Q1410,0 1106,0Q1263,74 1312,161Q1360,247 1360,350L1360,1010Q1360,1099 1329,1145Q1298,1190 1226,1190Q1108,1190 1008,985L1008,374Q1008,164 909,79Q818,0 568,0Q338,0 247,78Q147,164 147,374Q147,692 263,847Q303,899 330,946Q239,947 193,990Q147,1033 147,1118Q147,1209 194,1255Q240,1300 332,1300Q416,1300 468,1255Q519,1209 519,1118Q519,992 427,820Q335,648 335,374Q335,206 383,158Q430,110 569,110Q727,110 774,159Q820,208 820,374L820,930L793,930Q739,930 682,983Q632,1029 632,1115Q632,1209 681,1255Q729,1300 793,1300Q955,1300 997,1159Q1078,1300 1226,1300Q1393,1300 1471,1217Q1548,1134 1548,1010L1548,350Q1547,297 1538,252Q1596,247 1653,179Q1710,110 1768,110Q1827,110 1863,141Q1899,172 1899,320L1899,1100Q1899,1225 1849,1300L2037,1300Q2087,1195 2087,1100L2087,320Z"  transform="translate(37698, 1100)"/>
<path d="M-556,2045Q-575,2035 -586,2018Q-597,2001 -597,1982Q-597,1962 -586,1945Q-575,1928 -556,1919Q-537,1909 -517,1909Q-496,1909 -477,1919Q-458,1928 -447,1945Q-437,1962 -437,1982Q-437,2001 -447,2018Q-458,2035 -477,2045Q-496,2054 -517,2054Q-537,2054 -556,2045ZM-517,2163Q-466,2163 -418,2140Q-371,2116 -344,2073Q-317,2029 -317,1982Q-317,1934 -343,1891Q-369,1848 -417,1824Q-465,1800 -517,1800Q-568,1800 -616,1824Q-664,1848 -690,1891Q-717,1934 -717,1982Q-717,2029 -690,2073Q-663,2116 -615,2140Q-567,2163 -517,2163Z"  transform="translate(39953, 1100)"/>
<path d="M198,1040Q198,966 273,966Q349,966 349,1041Q349,1117 273,1117Q198,1117 198,1040ZM604,920Q604,1177 373,1203Q464,1157 464,1040Q464,850 272,850Q82,850 82,1040Q82,1300 437,1300Q792,1300 792,920L792,200Q792,105 742,0L554,0Q604,75 604,200L604,920Z"  transform="translate(39953, 1100)"/>
<path d="M414,395Q394,378 394,354Q394,328 414,310Q433,292 460,292Q485,292 505,310Q524,328 524,354Q524,378 505,395Q485,412 460,412Q433,412 414,395ZM220,1243Q293,1300 439,1300Q593,1300 731,1225Q813,1180 922,1180Q1080,1180 1197,1313Q1073,1036 922,1036Q770,1036 657,1096Q543,1156 439,1156Q335,1156 335,1025Q335,829 493,798L667,768Q906,729 1052,635Q1197,541 1197,369Q1197,154 1072,77Q947,0 647,0Q384,0 266,73Q147,145 147,273Q147,387 225,445Q303,503 460,503Q531,503 576,462Q621,420 621,354Q621,279 581,241Q540,203 460,203Q379,203 338,241Q332,247 327,254Q348,110 647,110Q803,110 906,168Q1009,226 1009,369Q1009,474 908,553Q806,631 645,658L393,704Q147,744 147,1025Q147,1185 220,1243Z"  transform="translate(40913, 1100)"/>
<path d="M457,1184Q426,1184 408,1172Q381,1154 381,1109Q381,1033 457,1033Q496,1033 515,1054Q532,1073 532,1109Q532,1150 510,1169Q491,1184 457,1184ZM759,738Q750,724 750,710Q750,696 759,683Q768,669 784,662Q799,654 815,654Q833,654 849,662Q864,669 873,683Q881,696 881,710Q881,724 873,738Q864,751 849,759Q833,766 815,766Q799,766 784,759Q768,751 759,738ZM1197,546L1197,380Q1197,187 1067,92Q943,0 668,0Q392,0 267,83Q147,163 147,350Q147,574 310,640Q147,713 147,870L147,1005Q147,1177 252,1248Q327,1300 457,1300Q552,1300 599,1253Q647,1205 647,1110Q647,1014 600,966Q552,918 457,918Q381,918 335,948L335,870Q335,704 547,704L627,704L627,570L547,570Q335,570 335,350Q335,229 412,170Q488,110 668,110Q848,110 929,182Q1009,253 1009,380L1009,532Q657,541 657,710Q657,745 679,777Q700,809 738,827Q775,844 815,844Q855,844 898,827Q940,809 961,777Q982,745 982,710Q982,675 962,653Q961,651 961,650Q981,625 1009,614L1009,1100Q1009,1195 1059,1300L1247,1300Q1197,1225 1197,1100L1197,635Q1305,687 1319,835L1496,835Q1431,598 1197,546Z"  transform="translate(42207, 1100)"/>
</svg>
