<svg xmlns="http://www.w3.org/2000/svg" viewBox="0 0 65536 3047" transform="translate(0, 3047) scale(1, -1)">
<path d="M1433,1433L1433,1843L1843,1843L1843,1638L1638,1638L1638,1433L1433,1433L1433,1228L1843,1228L1843,1024L1024,1024L1024,819L1843,819L1843,614L1024,614L1024,0L819,0L819,614L0,614L0,819L819,819L819,1024L204,1024L204,1228L409,1228L409,1433L204,1433L204,1638L0,1638L0,1843L204,1843L204,1638L614,1638L614,1228L819,1228L819,1843L1228,1843L1228,1638L1024,1638L1024,1228L1228,1228L1228,1433L1433,1433Z"  transform="translate(0, 1114)"/>
<path d="M204,1433L204,614L409,614L409,1433L204,1433ZM1433,0L1433,614L1228,614L1228,409L1024,409L1024,0L819,0L819,1228L614,1228L614,409L0,409L0,1433L204,1433L204,1638L614,1638L614,1433L819,1433L819,1843L1024,1843L1024,614L1228,614L1228,1024L1433,1024L1433,1228L1228,1228L1228,1433L1433,1433L1433,1843L1638,1843L1638,1433L1843,1433L1843,1228L1638,1228L1638,1024L1843,1024L1843,409L1638,409L1638,0L1433,0Z"  transform="translate(2048, 1114)"/>
<path d="M1228,1228L1228,1024L1638,1024L1638,1228L1228,1228ZM1638,1433L1638,1638L1228,1638L1228,1433L1638,1433ZM1638,204L1638,409L1843,409L1843,204L1638,204L1638,0L819,0L819,204L1638,204ZM1024,1433L1024,1638L819,1638L819,1843L1024,1843L1024,2048L1228,2048L1228,1843L1843,1843L1843,1433L1638,1433L1638,1228L1843,1228L1843,1024L1638,1024L1638,819L1843,819L1843,614L1433,614L1433,409L1024,409L1024,614L1433,614L1433,819L1024,819L1024,1024L819,1024L819,409L614,409L614,1228L409,1228L409,0L204,0L204,819L0,819L0,1024L204,1024L204,1433L409,1433L409,1843L614,1843L614,1433L819,1433L819,1228L1228,1228L1228,1433L1024,1433Z"  transform="translate(4096, 1114)"/>
<path d="M409,614L409,1433L204,1433L204,614L409,614ZM614,409L1228,409L1228,614L819,614L819,1228L1024,1228L1024,1433L1228,1433L1228,1638L819,1638L819,1433L614,1433L614,409ZM1228,819L1228,1024L1024,1024L1024,819L1228,819ZM1638,1024L1433,1024L1433,819L1638,819L1638,1024ZM1228,0L1228,204L614,204L614,409L0,409L0,1638L614,1638L614,1843L1843,1843L1843,1638L1433,1638L1433,1433L1843,1433L1843,1228L1638,1228L1638,1024L1843,1024L1843,614L1433,614L1433,409L1843,409L1843,204L1433,204L1433,0L1228,0Z"  transform="translate(6144, 1114)"/>
<path d="M1228,204L1228,409L1433,409L1433,614L1638,614L1638,819L1843,819L1843,409L1638,409L1638,204L1228,204L1228,0L614,0L614,204L1228,204ZM204,0L204,819L0,819L0,1024L204,1024L204,1433L409,1433L409,1843L614,1843L614,1228L819,1228L819,819L614,819L614,1228L409,1228L409,0L204,0ZM1024,614L1024,1638L819,1638L819,1843L1228,1843L1228,614L1024,614ZM1638,1024L1638,1228L1433,1228L1433,1638L1638,1638L1638,1433L1843,1433L1843,1024L1638,1024Z"  transform="translate(8192, 1114)"/>
<path d="M1638,1024L1638,1228L1433,1228L1433,1024L1638,1024ZM614,409L614,614L0,614L0,819L409,819L409,1433L1024,1433L1024,1638L204,1638L204,1843L1024,1843L1024,2048L1228,2048L1228,1843L1433,1843L1433,2048L1638,2048L1638,1843L1843,1843L1843,1638L1228,1638L1228,1433L1843,1433L1843,819L1433,819L1433,614L1228,614L1228,409L614,409L614,204L1638,204L1638,409L1843,409L1843,0L409,0L409,409L614,409Z"  transform="translate(10240, 1114)"/>
<path d=""  transform="translate(12288, 1114)"/>
<path d="M1433,614L1433,819L1638,819L1638,1024L1433,1024L1433,1433L1638,1433L1638,1638L1228,1638L1228,614L1433,614ZM819,0L819,204L1024,204L1024,614L819,614L819,409L614,409L614,204L409,204L409,0L204,0L204,1024L0,1024L0,1228L409,1228L409,409L614,409L614,614L819,614L819,819L1024,819L1024,1638L614,1638L614,1843L1843,1843L1843,0L1433,0L1433,204L1638,204L1638,614L1433,614L1433,409L1228,409L1228,0L819,0ZM614,1024L614,1433L819,1433L819,1024L614,1024ZM0,1638L0,1843L204,1843L204,1638L409,1638L409,1433L204,1433L204,1638L0,1638Z"  transform="translate(13312, 1114)"/>
<path d="M1638,819L1228,819L1228,614L1433,614L1433,409L1638,409L1638,819ZM409,614L409,1433L204,1433L204,614L409,614ZM1228,1024L1228,1228L1024,1228L1024,1024L1228,1024ZM1228,1433L1228,1638L1024,1638L1024,1433L1228,1433ZM1024,0L1024,204L819,204L819,0L409,0L409,204L819,204L819,409L614,409L614,614L409,614L409,409L0,409L0,1433L204,1433L204,1638L614,1638L614,614L1024,614L1024,819L819,819L819,1843L1843,1843L1843,1433L1638,1433L1638,1228L1843,1228L1843,1024L1638,1024L1638,819L1843,819L1843,204L1433,204L1433,409L1228,409L1228,0L1024,0Z"  transform="translate(15360, 1114)"/>
<path d="M819,614L819,819L614,819L614,614L819,614ZM1228,614L1228,819L1024,819L1024,614L1228,614ZM1638,204L1638,1638L409,1638L409,1433L1433,1433L1433,409L1228,409L1228,204L1638,204ZM819,1024L819,1228L614,1228L614,1024L819,1024ZM1228,1024L1228,1228L1024,1228L1024,1024L1228,1024ZM409,1638L409,2048L614,2048L614,1843L1843,1843L1843,204L1638,204L1638,0L1024,0L1024,409L409,409L409,1433L204,1433L204,1228L0,1228L0,1433L204,1433L204,1638L409,1638Z"  transform="translate(17408, 1114)"/>
<path d="M614,1024L614,819L819,819L819,1024L614,1024ZM1638,1024L1638,1228L1228,1228L1228,1024L1024,1024L1024,819L1433,819L1433,1024L1638,1024ZM1024,1024L1024,1433L409,1433L409,1024L614,1024L614,1228L819,1228L819,1024L1024,1024ZM1638,1433L1638,1638L1228,1638L1228,1433L1638,1433ZM204,1843L204,2048L409,2048L409,1843L614,1843L614,1638L1024,1638L1024,1843L1843,1843L1843,1024L1638,1024L1638,819L1843,819L1843,614L1228,614L1228,409L1433,409L1433,204L1843,204L1843,0L0,0L0,204L614,204L614,409L1024,409L1024,614L409,614L409,819L204,819L204,1433L0,1433L0,1638L409,1638L409,1843L204,1843Z"  transform="translate(19456, 1114)"/>
<path d="M1433,409L1433,614L1228,614L1228,1024L1024,1024L1024,819L819,819L819,1024L614,1024L614,819L819,819L819,614L614,614L614,409L1433,409ZM1638,819L1638,1024L1433,1024L1433,819L1638,819ZM819,1228L819,1433L614,1433L614,1638L409,1638L409,1228L819,1228ZM1228,1228L1228,1433L1024,1433L1024,1228L1228,1228ZM409,0L409,614L204,614L204,204L0,204L0,614L204,614L204,1843L614,1843L614,2048L1024,2048L1024,1843L1638,1843L1638,1638L1843,1638L1843,1433L1433,1433L1433,1228L1843,1228L1843,0L1638,0L1638,204L1433,204L1433,0L409,0Z"  transform="translate(21504, 1114)"/>
<path d="M1228,614L1228,819L1024,819L1024,614L819,614L819,409L614,409L614,204L1638,204L1638,409L1433,409L1433,614L1228,614ZM1024,819L1024,1228L614,1228L614,1433L1024,1433L1024,1843L1433,1843L1433,1638L1228,1638L1228,1433L1843,1433L1843,1228L1228,1228L1228,1024L1433,1024L1433,614L1843,614L1843,0L409,0L409,204L204,204L204,0L0,0L0,204L204,204L204,1228L0,1228L0,1433L409,1433L409,409L614,409L614,614L819,614L819,819L1024,819ZM0,1638L0,1843L409,1843L409,1638L0,1638Z"  transform="translate(23552, 1114)"/>
<path d=""  transform="translate(25600, 1114)"/>
<path d="M409,1228L409,1024L614,1024L614,1228L409,1228ZM614,1024L614,819L1228,819L1228,1024L1024,1024L1024,1228L819,1228L819,1024L614,1024ZM1228,1024L1433,1024L1433,1228L1228,1228L1228,1024ZM819,1638L614,1638L614,1433L819,1433L819,1638ZM1433,1638L1228,1638L1228,1433L1433,1433L1433,1638ZM614,0L614,204L204,204L204,409L819,409L819,614L204,614L204,1228L409,1228L409,1433L0,1433L0,1638L409,1638L409,1843L819,1843L819,1638L1024,1638L1024,1843L1433,1843L1433,1638L1843,1638L1843,1433L1638,1433L1638,614L1024,614L1024,409L1638,409L1638,204L1228,204L1228,0L1843,0L1843,-204L1228,-204L1228,0L614,0L614,-204L0,-204L0,0L614,0Z"  transform="translate(26624, 1114)"/>
<path d="M1024,614L1024,819L409,819L409,614L1024,614ZM1228,1228L1024,1228L1024,1433L819,1433L819,1228L614,1228L614,1024L1228,1024L1228,1228ZM614,1228L614,1433L204,1433L204,1638L819,1638L819,1843L1024,1843L1024,1638L1843,1638L1843,1433L1228,1433L1228,1228L1843,1228L1843,1024L1638,1024L1638,819L1228,819L1228,409L409,409L409,204L1638,204L1638,0L204,0L204,1024L0,1024L0,1228L614,1228Z"  transform="translate(28672, 1114)"/>
<path d="M819,204L819,409L409,409L409,204L819,204ZM1228,204L1228,409L1024,409L1024,204L1228,204ZM1638,204L1638,409L1433,409L1433,204L1638,204ZM409,819L409,614L1024,614L1024,819L819,819L819,1024L614,1024L614,819L409,819ZM1024,819L1228,819L1228,614L1433,614L1433,1024L1024,1024L1024,819ZM1433,1228L1433,1638L1024,1638L1024,1433L819,1433L819,1638L614,1638L614,1228L1024,1228L1024,1433L1228,1433L1228,1228L1433,1228ZM0,0L0,204L204,204L204,409L0,409L0,614L204,614L204,819L409,819L409,1024L0,1024L0,1228L409,1228L409,1843L819,1843L819,2048L1228,2048L1228,1843L1638,1843L1638,1228L1843,1228L1843,1024L1638,1024L1638,614L1843,614L1843,0L0,0Z"  transform="translate(30720, 1114)"/>
<path d="M1433,1024L1433,1228L1228,1228L1228,1024L1433,1024ZM1638,1638L1638,1843L1843,1843L1843,1638L1638,1638L1638,1433L1843,1433L1843,1228L1638,1228L1638,1024L1843,1024L1843,819L1638,819L1638,0L1433,0L1433,819L1228,819L1228,409L1024,409L1024,204L819,204L819,0L614,0L614,204L819,204L819,409L1024,409L1024,1228L819,1228L819,614L614,614L614,1228L409,1228L409,0L204,0L204,614L0,614L0,1433L204,1433L204,1843L409,1843L409,1433L614,1433L614,1228L819,1228L819,1433L1024,1433L1024,1638L819,1638L819,1843L1024,1843L1024,1638L1228,1638L1228,1433L1433,1433L1433,1638L1638,1638Z"  transform="translate(32768, 1114)"/>
<path d="M409,614L409,819L204,819L204,614L409,614ZM409,1024L409,1228L204,1228L204,1024L409,1024ZM1638,1024L1638,1228L1024,1228L1024,1024L1638,1024ZM204,1638L204,1433L409,1433L409,1638L204,1638ZM1024,1638L1024,1433L1638,1433L1638,1638L1024,1638ZM0,204L0,1638L204,1638L204,1843L614,1843L614,409L204,409L204,204L0,204ZM819,0L819,1638L1024,1638L1024,1843L1843,1843L1843,819L1433,819L1433,409L1638,409L1638,614L1843,614L1843,409L1638,409L1638,204L1843,204L1843,0L1638,0L1638,204L1433,204L1433,409L1228,409L1228,819L1024,819L1024,204L1228,204L1228,0L819,0Z"  transform="translate(34816, 1114)"/>
<path d="M819,819L1228,819L1228,1024L819,1024L819,819ZM0,614L0,1228L204,1228L204,614L0,614ZM1228,-204L1228,614L1024,614L1024,204L819,204L819,819L614,819L614,204L409,204L409,0L0,0L0,409L204,409L204,204L409,204L409,1638L204,1638L204,1843L614,1843L614,1228L1433,1228L1433,1433L1024,1433L1024,1638L819,1638L819,1843L1638,1843L1638,1228L1843,1228L1843,1024L1433,1024L1433,819L1843,819L1843,204L1638,204L1638,614L1433,614L1433,-204L1228,-204Z"  transform="translate(36864, 1114)"/>
<path d=""  transform="translate(38912, 1114)"/>
<path d="M1024,1228L1228,1228L1228,1433L1024,1433L1024,1228ZM1638,1228L1638,1433L1433,1433L1433,1228L1638,1228ZM204,0L204,819L0,819L0,1024L204,1024L204,1433L409,1433L409,1843L614,1843L614,1638L1228,1638L1228,2048L1433,2048L1433,1638L1843,1638L1843,1228L1638,1228L1638,1024L1843,1024L1843,819L1433,819L1433,614L1638,614L1638,204L1843,204L1843,0L1638,0L1638,204L1433,204L1433,409L1228,409L1228,204L1024,204L1024,0L614,0L614,409L819,409L819,204L1024,204L1024,614L1228,614L1228,819L614,819L614,1024L1024,1024L1024,1228L819,1228L819,1433L614,1433L614,1228L409,1228L409,0L204,0Z"  transform="translate(39936, 1114)"/>
<path d="M819,409L819,614L614,614L614,409L819,409ZM614,819L409,819L409,614L614,614L614,819ZM409,819L409,1024L204,1024L204,819L409,819ZM819,614L1024,614L1024,1024L614,1024L614,819L819,819L819,614ZM614,1433L614,1638L409,1638L409,1433L614,1433ZM1638,1433L1638,1638L1228,1638L1228,1433L1638,1433ZM1024,0L1024,409L819,409L819,204L0,204L0,409L409,409L409,614L204,614L204,819L0,819L0,1228L204,1228L204,1843L819,1843L819,1433L614,1433L614,1228L1024,1228L1024,1843L1843,1843L1843,1433L1638,1433L1638,1228L1843,1228L1843,819L1638,819L1638,1024L1228,1024L1228,614L1638,614L1638,409L1228,409L1228,0L1024,0Z"  transform="translate(41984, 1114)"/>
<path d="M1638,614L1638,1228L1024,1228L1024,614L614,614L614,409L819,409L819,204L1024,204L1024,409L1228,409L1228,1024L1433,1024L1433,614L1638,614ZM819,1433L614,1433L614,819L819,819L819,1433ZM204,1228L409,1228L409,1433L204,1433L204,1228ZM1638,1638L1638,1843L1843,1843L1843,1638L1638,1638L1638,1433L1843,1433L1843,614L1638,614L1638,204L1843,204L1843,0L1638,0L1638,204L1433,204L1433,409L1228,409L1228,204L1024,204L1024,0L819,0L819,204L614,204L614,0L409,0L409,614L0,614L0,819L409,819L409,1024L204,1024L204,1228L0,1228L0,1433L204,1433L204,1843L409,1843L409,1638L819,1638L819,1843L1024,1843L1024,1638L819,1638L819,1433L1228,1433L1228,1843L1433,1843L1433,1638L1638,1638Z"  transform="translate(44032, 1114)"/>
<path d="M1228,204L1228,409L819,409L819,204L1228,204ZM614,614L1228,614L1228,819L614,819L614,614ZM204,1638L204,409L614,409L614,614L409,614L409,1433L819,1433L819,1638L204,1638ZM819,1024L819,1228L614,1228L614,1024L819,1024ZM1228,1024L1228,1228L1024,1228L1024,1024L1228,1024ZM1638,1024L1638,1228L1433,1228L1433,1024L1638,1024ZM0,0L0,1638L204,1638L204,1843L819,1843L819,2048L1024,2048L1024,1843L1843,1843L1843,1638L1024,1638L1024,1433L1843,1433L1843,1024L1638,1024L1638,819L1433,819L1433,409L1638,409L1638,204L1843,204L1843,0L0,0Z"  transform="translate(46080, 1114)"/>
<path d="M1638,409L1228,409L1228,204L1638,204L1638,409ZM614,819L614,1024L204,1024L204,819L614,819ZM819,204L1024,204L1024,1433L819,1433L819,204ZM1638,819L1638,1024L1228,1024L1228,819L1638,819ZM819,0L819,204L614,204L614,409L0,409L0,1228L614,1228L614,1433L0,1433L0,1843L1843,1843L1843,1433L1228,1433L1228,1228L1843,1228L1843,614L1638,614L1638,409L1843,409L1843,0L819,0Z"  transform="translate(48128, 1114)"/>
<path d="M1024,409L1024,819L1228,819L1228,1024L819,1024L819,409L1024,409ZM1228,0L1228,204L1433,204L1433,614L1228,614L1228,409L1024,409L1024,204L819,204L819,0L614,0L614,204L819,204L819,409L409,409L409,204L0,204L0,1024L204,1024L204,1843L409,1843L409,614L614,614L614,1024L819,1024L819,1433L1024,1433L1024,1228L1433,1228L1433,1638L1024,1638L1024,1843L1843,1843L1843,1638L1638,1638L1638,1228L1843,1228L1843,1024L1638,1024L1638,0L1228,0Z"  transform="translate(50176, 1114)"/>
<path d=""  transform="translate(52224, 1114)"/>
<path d="M1638,1433L1638,1638L1433,1638L1433,1433L1638,1433ZM1228,1433L1228,1638L1024,1638L1024,1843L1843,1843L1843,1433L1638,1433L1638,1228L1843,1228L1843,1024L1638,1024L1638,1228L1433,1228L1433,819L1228,819L1228,614L1638,614L1638,204L1433,204L1433,0L1024,0L1024,204L1433,204L1433,409L204,409L204,819L1228,819L1228,1024L614,1024L614,1228L409,1228L409,1024L0,1024L0,1228L204,1228L204,1433L0,1433L0,1638L409,1638L409,1843L614,1843L614,1638L819,1638L819,1433L614,1433L614,1228L1433,1228L1433,1433L1228,1433Z"  transform="translate(53248, 1114)"/>
<path d="M819,819L819,614L1024,614L1024,819L819,819ZM1024,819L1228,819L1228,1024L1024,1024L1024,819ZM1638,1433L1228,1433L1228,1228L1638,1228L1638,1433ZM1228,1433L1228,1638L819,1638L819,1843L1228,1843L1228,1638L1433,1638L1433,1843L1843,1843L1843,1638L1638,1638L1638,1433L1843,1433L1843,1228L1638,1228L1638,1024L1433,1024L1433,819L1843,819L1843,204L1638,204L1638,614L1433,614L1433,-204L1228,-204L1228,614L1024,614L1024,204L819,204L819,614L614,614L614,204L409,204L409,0L0,0L0,409L204,409L204,204L409,204L409,614L0,614L0,819L409,819L409,1228L204,1228L204,1024L0,1024L0,1228L204,1228L204,1638L0,1638L0,1843L204,1843L204,1638L409,1638L409,1843L614,1843L614,1638L409,1638L409,1433L614,1433L614,819L819,819L819,1024L1024,1024L1024,1228L819,1228L819,1433L1228,1433Z"  transform="translate(55296, 1114)"/>
<path d="M1433,204L1638,204L1638,409L1433,409L1433,204ZM1433,409L1433,614L1024,614L1024,409L1433,409ZM1024,614L1024,819L819,819L819,614L1024,614ZM1024,1024L1024,1228L819,1228L819,1024L1024,1024ZM1638,819L1638,1638L1228,1638L1228,1433L1433,1433L1433,1228L1228,1228L1228,1024L1433,1024L1433,819L1638,819ZM1024,1433L1024,1638L819,1638L819,1433L1024,1433ZM1433,0L1433,204L819,204L819,409L614,409L614,204L409,204L409,0L204,0L204,614L0,614L0,819L204,819L204,1024L409,1024L409,409L614,409L614,1843L1843,1843L1843,0L1433,0ZM0,1433L0,1638L204,1638L204,1433L409,1433L409,1228L204,1228L204,1433L0,1433Z"  transform="translate(57344, 1114)"/>
<path d="M1433,409L1433,614L1024,614L1024,409L1433,409ZM1433,819L1433,1024L1024,1024L1024,819L1433,819ZM819,1433L819,1228L1024,1228L1024,1433L819,1433ZM1433,1228L1433,1433L1228,1433L1228,1228L1433,1228ZM204,0L204,1228L0,1228L0,1433L204,1433L204,1843L409,1843L409,0L204,0ZM614,0L614,204L819,204L819,1024L614,1024L614,1433L819,1433L819,1638L614,1638L614,1843L1228,1843L1228,2048L1433,2048L1433,1843L1843,1843L1843,1638L1638,1638L1638,1433L1843,1433L1843,1024L1638,1024L1638,204L1843,204L1843,0L1433,0L1433,204L1024,204L1024,0L614,0Z"  transform="translate(59392, 1114)"/>
<path d="M1433,1228L1433,1433L1228,1433L1228,1228L1433,1228ZM1228,1433L1228,1843L1433,1843L1433,1638L1843,1638L1843,1433L1638,1433L1638,1228L1433,1228L1433,204L1638,204L1638,614L1843,614L1843,0L1433,0L1433,204L1228,204L1228,409L1024,409L1024,614L819,614L819,819L1024,819L1024,614L1228,614L1228,1024L614,1024L614,204L409,204L409,0L0,0L0,204L204,204L204,409L409,409L409,1024L614,1024L614,1228L409,1228L409,1433L204,1433L204,1228L0,1228L0,1433L204,1433L204,1843L409,1843L409,1638L819,1638L819,1433L614,1433L614,1228L1024,1228L1024,1433L1228,1433Z"  transform="translate(61440, 1114)"/>
<path d="M614,204L614,409L819,409L819,204L614,204ZM1638,204L1638,409L1843,409L1843,204L1638,204ZM1433,1024L1433,1228L1228,1228L1228,1024L1433,1024ZM1433,1433L1433,1638L1228,1638L1228,1433L1433,1433ZM1024,0L1024,204L1228,204L1228,614L1024,614L1024,409L819,409L819,614L614,614L614,409L0,409L0,1433L204,1433L204,614L409,614L409,1433L204,1433L204,1638L614,1638L614,819L1024,819L1024,1024L819,1024L819,1433L1024,1433L1024,1638L819,1638L819,1843L1843,1843L1843,1638L1638,1638L1638,1433L1843,1433L1843,1024L1638,1024L1638,819L1843,819L1843,614L1638,614L1638,409L1433,409L1433,0L1024,0Z"  transform="translate(63488, 1114)"/>
</svg>
