<svg xmlns="http://www.w3.org/2000/svg" viewBox="0 0 62107 3302" transform="translate(0, 3302) scale(1, -1)">
<path d="M1182,1507Q1106,1238 1069,866Q1032,493 1012,-229L958,-229Q925,290 899,576Q872,861 839,1062Q806,1263 739,1507Q841,1482 951,1481Q1065,1481 1182,1507ZM1716,1507Q1640,1238 1603,849Q1565,460 1546,-229L1493,-229Q1451,397 1425,660Q1399,922 1365,1114Q1330,1306 1274,1507Q1376,1482 1485,1481Q1599,1481 1716,1507ZM647,1507Q591,1299 560,1078Q529,857 510,543Q490,228 477,-229L424,-229Q382,397 356,660Q330,922 296,1114Q261,1306 205,1507Q307,1482 416,1481Q530,1481 647,1507Z"  transform="translate(0, 1280)"/>
<path d="M649,1507Q775,1476 870,1476Q962,1476 1090,1507Q1029,1348 1000,1249Q970,1150 944,1021Q917,892 893,743L853,743Q748,436 670,-229L623,-229Q606,27 563,269Q519,511 439,743L401,743Q361,990 325,1140Q288,1290 237,1421L205,1507Q331,1476 425,1476Q517,1476 645,1507L614,1424Q562,1290 527,1149Q492,1008 454,773Q560,749 647,749Q731,749 841,774Q807,982 770,1135Q733,1287 681,1423L649,1507Z"  transform="translate(1921, 1280)"/>
<path d="M1300,1507Q1249,1368 1208,1120Q1166,872 1141,578Q1437,530 1804,506L1804,459Q1379,407 1132,354Q884,300 739,236Q754,343 754,433Q564,387 435,331Q305,275 211,199Q226,339 227,428Q227,558 205,676Q333,581 539,526Q450,1225 328,1493Q445,1478 539,1478Q650,1479 768,1507Q720,1379 676,1126Q631,873 604,510Q672,494 753,483Q749,581 725,676Q840,632 1062,592Q977,1229 860,1493Q977,1478 1072,1478Q1184,1479 1300,1507Z"  transform="translate(3215, 1280)"/>
<path d="M205,664L350,810Q724,1181 1040,1522L1083,1491Q798,1038 598,664L679,507Q899,77 1083,-215L1040,-246Q897,-92 538,312Q313,564 205,664Z"  transform="translate(5224, 1280)"/>
<path d="M205,727Q232,847 232,951Q232,1061 205,1169Q455,1100 673,1066Q890,1032 1191,1006Q1491,979 1942,950L1942,897Q1498,885 1180,865Q861,845 638,815Q415,784 205,727ZM205,207Q232,327 232,431Q232,541 205,649Q455,580 673,546Q890,512 1191,486Q1491,459 1942,430L1942,377Q1498,365 1180,345Q861,325 638,295Q415,264 205,207Z"  transform="translate(6512, 1280)"/>
<path d="M1036,1075Q1195,1044 1715,974Q2235,904 2482,877L2482,829Q1636,735 1379,697Q1121,659 1036,635Q1058,769 1058,881Q1058,976 1036,1075ZM205,817Q343,763 598,704Q852,644 1042,618L1042,571Q779,534 543,479Q306,424 205,377Q227,511 227,623Q227,718 205,817ZM205,1337Q333,1285 582,1227Q830,1168 1040,1139L1040,1092Q808,1059 562,1004Q316,949 205,897Q227,1031 227,1143Q227,1238 205,1337Z"  transform="translate(8658, 1280)"/>
<path d=""  transform="translate(11345, 1280)"/>
<path d="M1300,1507Q1254,1381 1211,1124Q1168,866 1141,535Q1241,509 1330,492Q1328,584 1311,676Q1435,639 1589,600Q1500,1256 1393,1493Q1510,1478 1604,1478Q1715,1479 1833,1507Q1789,1389 1747,1143Q1704,897 1677,580Q1965,514 2390,481L2390,428L2178,416Q1743,394 1311,233Q1326,345 1329,417Q1158,384 1025,341Q891,298 758,233Q773,345 776,417Q605,384 472,341Q338,298 205,233Q224,378 224,491Q224,616 205,709L275,678Q448,593 528,563Q437,1251 328,1493Q445,1478 539,1478Q650,1479 768,1507Q725,1394 681,1136Q637,878 609,536Q704,506 777,492Q775,584 758,676Q822,649 895,619Q968,588 1061,559Q970,1247 860,1493Q977,1478 1072,1478Q1184,1479 1300,1507Z"  transform="translate(11877, 1280)"/>
<path d="M205,664L350,810Q724,1181 1040,1522L1083,1491Q798,1038 598,664L679,507Q899,77 1083,-215L1040,-246Q897,-92 538,312Q313,564 205,664ZM1573,1507Q1497,1238 1460,849Q1422,460 1403,-229L1350,-229Q1308,385 1283,645Q1258,904 1225,1095Q1192,1285 1130,1507Q1232,1482 1342,1481Q1456,1481 1573,1507ZM1671,1389Q1791,1319 1885,1294Q1978,1268 2093,1266Q1850,930 1571,283L1526,297Q1673,952 1673,1323L1671,1389Z"  transform="translate(14472, 1280)"/>
<path d="M205,952Q232,1072 232,1176Q232,1286 205,1395Q451,1327 644,1296Q837,1264 1124,1238Q1410,1211 1942,1176L1942,1122Q1224,1102 851,1065Q477,1028 205,952ZM205,418Q232,538 232,642Q232,752 205,860Q455,791 673,757Q890,723 1191,697Q1491,670 1942,641L1942,588Q1498,576 1180,556Q861,536 638,506Q415,475 205,418ZM205,-117Q232,3 232,107Q232,217 205,326Q457,256 658,224Q858,192 1134,167Q1409,141 1942,106L1942,53Q1498,41 1180,21Q861,1 638,-29Q415,-60 205,-117Z"  transform="translate(16770, 1280)"/>
<path d="M205,952Q232,1072 232,1176Q232,1286 205,1395Q451,1327 644,1296Q837,1264 1124,1238Q1410,1211 1942,1176L1942,1122Q1224,1102 851,1065Q477,1028 205,952ZM205,418Q232,538 232,642Q232,752 205,860Q455,791 673,757Q890,723 1191,697Q1491,670 1942,641L1942,588Q1498,576 1180,556Q861,536 638,506Q415,475 205,418ZM205,-117Q232,3 232,107Q232,217 205,326Q457,256 658,224Q858,192 1134,167Q1409,141 1942,106L1942,53Q1498,41 1180,21Q861,1 638,-29Q415,-60 205,-117ZM791,-150L742,-267Q644,-499 596,-780L543,-780Q514,-613 472,-468Q430,-323 348,-150Q486,-170 597,-170Q692,-170 791,-150Z"  transform="translate(18916, 1280)"/>
<path d="M1645,1075Q1773,1023 2022,965Q2270,906 2480,877L2482,829Q2219,792 1983,737Q1746,682 1645,635Q1657,715 1663,795Q1462,760 1289,716Q1116,672 1036,635Q1058,769 1058,881Q1058,976 1036,1075Q1126,1039 1297,994Q1468,948 1665,911Q1661,990 1645,1075ZM205,817Q343,763 598,704Q852,644 1042,618L1042,571Q779,534 543,479Q306,424 205,377Q227,511 227,623Q227,718 205,817ZM205,1337Q333,1285 582,1227Q830,1168 1040,1139L1040,1092Q808,1059 562,1004Q316,949 205,897Q227,1031 227,1143Q227,1238 205,1337Z"  transform="translate(21062, 1280)"/>
<path d="M1741,664L1886,810Q2260,1181 2576,1522L2619,1491Q2334,1038 2134,664L2215,507Q2435,77 2619,-215L2576,-246Q2433,-92 2074,312Q1849,564 1741,664ZM205,727Q232,847 232,951Q232,1061 205,1169Q455,1100 673,1066Q890,1032 1191,1006Q1491,979 1942,950L1942,897Q1498,885 1180,865Q861,845 638,815Q415,784 205,727ZM205,207Q232,327 232,431Q232,541 205,649Q455,580 673,546Q890,512 1191,486Q1491,459 1942,430L1942,377Q1498,365 1180,345Q861,325 638,295Q415,264 205,207Z"  transform="translate(23749, 1280)"/>
<path d=""  transform="translate(26573, 1280)"/>
<path d="M647,954L602,844Q511,627 463,382Q559,384 647,401L599,284Q500,46 453,-229L399,-229Q370,-57 326,91Q282,238 205,401Q295,387 388,383Q358,538 320,663Q282,787 205,954Q295,940 388,936Q358,1091 320,1216Q282,1340 205,1507Q343,1487 454,1487Q549,1487 647,1507L602,1397Q511,1180 463,935Q559,937 647,954ZM1182,954L1136,844Q1045,627 997,382Q1090,384 1182,401L1133,284Q1035,52 987,-229L934,-229Q905,-62 863,83Q821,228 739,401Q829,387 923,383Q890,555 848,685Q806,815 739,954Q829,940 923,936Q890,1108 848,1238Q806,1368 739,1507Q879,1487 989,1487Q1083,1487 1182,1507L1136,1397Q1045,1180 997,935Q1090,937 1182,954Z"  transform="translate(27105, 1280)"/>
<path d="M758,676L867,630Q1081,540 1330,492Q1328,584 1311,676Q1593,593 1817,552Q2041,510 2390,481L2390,428L2178,416Q1743,394 1311,233Q1326,345 1329,417Q1158,384 1025,341Q891,298 758,233Q773,345 776,417Q605,384 472,341Q338,298 205,233Q225,373 225,483Q225,577 205,676L314,630Q528,540 777,492Q775,584 758,676Z"  transform="translate(28491, 1280)"/>
<path d="M768,1507Q723,1386 681,1139Q639,892 611,562Q785,531 1069,503Q977,1231 860,1493Q977,1478 1072,1478Q1184,1479 1300,1507Q1251,1375 1208,1101Q1164,827 1138,496L1607,459Q1510,1231 1393,1493Q1510,1478 1604,1478Q1715,1479 1833,1507Q1783,1375 1737,1081Q1690,787 1667,454L1942,436L1942,383Q1498,371 1180,351Q861,331 638,301Q415,270 205,213Q232,333 232,437Q232,547 205,655Q380,607 527,577Q436,1252 328,1493Q445,1478 539,1478Q650,1479 768,1507Z"  transform="translate(31086, 1280)"/>
<path d="M1092,1507Q1016,1238 979,866Q942,493 922,-229L868,-229Q835,290 809,576Q782,861 749,1062Q716,1263 649,1507Q758,1480 868,1480Q971,1480 1092,1507ZM1126,641L1184,690Q1360,834 1460,922L1495,899Q1449,827 1417,765Q1384,703 1350,641Q1384,581 1417,518Q1449,455 1495,383L1460,354L1347,457Q1207,584 1126,641ZM1126,57L1184,106Q1360,250 1460,338L1495,315Q1449,243 1417,181Q1384,119 1350,57Q1384,-3 1417,-65Q1449,-128 1495,-201L1460,-229L1347,-127Q1207,0 1126,57ZM1126,1227L1252,1331Q1334,1397 1460,1507L1495,1485Q1449,1413 1417,1351Q1384,1289 1350,1227Q1384,1167 1417,1104Q1449,1041 1495,969L1460,940L1347,1043Q1207,1170 1126,1227ZM205,641L263,690Q439,834 539,922L573,899Q527,827 495,765Q462,703 428,641Q462,581 495,518Q527,455 573,383L539,354L425,457Q289,580 205,641ZM205,57L263,106Q439,250 539,338L573,315Q527,243 495,181Q462,119 428,57Q462,-3 495,-65Q527,-128 573,-201L539,-229L425,-127Q323,-35 288,-6Q253,23 205,57ZM205,1227L331,1331Q413,1397 539,1507L573,1485Q527,1413 495,1351Q462,1289 428,1227Q462,1167 495,1104Q527,1041 573,969L539,940L425,1043Q289,1166 205,1227Z"  transform="translate(33232, 1280)"/>
<path d="M1241,1389Q1354,1322 1449,1295Q1543,1268 1663,1266Q1603,1184 1460,884Q1317,583 1017,-108L1083,-215L1040,-246Q897,-92 538,312Q313,564 205,664L350,810Q724,1181 1040,1522L1083,1491Q798,1038 598,664L665,536Q828,210 976,-39Q1242,1134 1242,1367L1241,1389Z"  transform="translate(34932, 1280)"/>
<path d="M205,657L645,984Q626,1116 602,1230Q577,1343 532,1507Q634,1482 744,1481Q858,1481 975,1507Q932,1354 904,1183L1081,1321L1110,1280L879,1010Q844,726 826,345Q966,161 1110,-4L1081,-45Q949,57 818,165L805,-229L752,-229L718,247Q550,385 423,491Q296,596 205,657ZM696,520Q689,611 673,756L598,657L696,520Z"  transform="translate(36800, 1280)"/>
<path d=""  transform="translate(38115, 1280)"/>
<path d="M205,864Q304,833 977,747Q951,975 922,1135Q892,1295 836,1505Q942,1483 1052,1483Q1162,1483 1278,1505Q1231,1336 1203,1152Q1174,968 1154,725L1271,711Q1335,775 1414,854Q1493,932 1590,1031Q1687,1129 1804,1251Q1920,1372 2060,1522L2103,1491Q1818,1038 1618,664L1699,507Q1919,77 2103,-215L2060,-246Q1898,-72 1588,277Q1366,527 1266,625L1145,606Q1121,237 1108,-229L1055,-229Q1022,272 994,581Q851,557 594,506Q336,455 213,422Q222,539 222,633Q222,747 205,864Z"  transform="translate(38647, 1280)"/>
<path d="M205,864Q264,845 518,808Q771,771 984,746Q962,949 935,1096Q907,1243 836,1505Q942,1483 1052,1483Q1162,1483 1278,1505Q1225,1317 1196,1143Q1167,969 1148,725L1271,711Q1335,775 1414,854Q1493,932 1590,1031Q1687,1129 1804,1251Q1920,1372 2060,1522L2103,1491Q1818,1038 1618,664L1699,507Q1919,77 2103,-215L2060,-246Q1898,-72 1588,277Q1366,527 1266,625L1139,605L1121,254Q1212,341 1294,430L1335,406Q1225,159 1116,-18Q1227,-166 1362,-408L1323,-438Q1208,-329 1063,-214Q917,-100 799,-25Q898,49 1034,172Q1023,344 1001,582Q764,541 523,492Q282,443 213,422Q222,539 222,633Q222,747 205,864Z"  transform="translate(40955, 1280)"/>
<path d="M205,418Q232,538 232,642Q232,752 205,860Q455,791 673,757Q890,723 1191,697Q1491,670 1942,641L1942,588Q1498,576 1180,556Q861,536 638,506Q415,475 205,418Z"  transform="translate(43263, 1280)"/>
<path d="M647,954L602,844Q511,627 463,382Q559,384 647,401L599,284Q500,46 453,-229L399,-229Q370,-57 326,91Q282,238 205,401Q295,387 388,383Q358,538 320,663Q282,787 205,954Q295,940 388,936Q358,1091 320,1216Q282,1340 205,1507Q343,1487 454,1487Q549,1487 647,1507L602,1397Q511,1180 463,935Q559,937 647,954Z"  transform="translate(45409, 1280)"/>
<path d="M205,864Q270,843 610,795Q950,747 1271,711Q1335,775 1414,854Q1493,932 1590,1031Q1687,1129 1804,1251Q1920,1372 2060,1522L2103,1491Q1818,1038 1618,664L1699,507Q1919,77 2103,-215L2060,-246Q1898,-72 1588,277Q1366,527 1266,625Q1012,588 668,521Q323,454 213,422Q222,539 222,633Q222,747 205,864Z"  transform="translate(46261, 1280)"/>
<path d="M942,1337Q1083,1281 1333,1224Q1583,1166 1778,1139L1778,1092Q1544,1059 1298,1004Q1051,948 942,897Q958,987 962,1080Q709,1039 504,990Q298,941 205,897Q227,1031 227,1143Q227,1238 205,1337Q312,1294 528,1240Q744,1185 963,1150Q962,1241 942,1337ZM942,817Q1081,762 1334,704Q1586,645 1778,618L1778,571Q1522,535 1284,480Q1046,425 942,377Q958,467 962,560Q711,520 506,471Q300,421 205,377Q227,511 227,623Q227,718 205,817Q316,772 541,716Q765,660 963,629Q962,721 942,817ZM1774,1075Q1902,1023 2151,965Q2399,906 2609,877L2611,829Q2348,792 2112,737Q1875,682 1774,635Q1795,766 1795,878Q1795,975 1774,1075Z"  transform="translate(48569, 1280)"/>
<path d=""  transform="translate(51385, 1280)"/>
<path d="M666,1507Q625,1408 581,1239Q537,1070 502,883Q579,889 666,903Q552,633 471,-229L424,-229Q389,154 334,462Q278,769 225,903Q308,884 386,881Q350,1086 306,1258Q262,1430 225,1507Q365,1487 473,1487Q567,1487 666,1507Z"  transform="translate(51917, 1280)"/>
<path d="M1116,1516Q1236,1489 1340,1489Q1450,1489 1559,1516Q1496,1290 1464,1101Q1431,911 1405,642Q1378,372 1337,-221L1284,-221Q1270,291 1249,603Q1228,914 1199,1116Q1170,1318 1116,1516ZM582,1516Q702,1489 806,1489Q916,1489 1024,1516Q958,1279 925,1075Q891,870 865,582Q838,293 805,-221L752,-221Q740,221 720,539Q700,857 670,1080Q640,1302 582,1516Z"  transform="translate(52808, 1280)"/>
<path d="M838,-139Q783,-26 722,49Q660,124 555,199Q705,253 1209,558Q884,539 648,507Q411,475 205,418Q232,538 232,642Q232,752 205,860Q469,785 724,749Q979,712 1407,679L1839,952L1868,913L1604,664L1942,641L1942,588L1508,572Q928,15 838,-139Z"  transform="translate(54954, 1280)"/>
<path d="M725,676Q871,622 1157,576Q1442,530 1804,506L1804,459Q1379,407 1132,354Q884,300 739,236Q754,343 754,433Q564,387 435,331Q305,275 211,199Q226,339 227,428Q227,558 205,676Q291,610 439,559Q586,507 753,483Q749,581 725,676Z"  transform="translate(57100, 1280)"/>
<path d="M647,1507Q591,1299 560,1078Q529,857 510,543Q490,228 477,-229L424,-229Q382,397 356,660Q330,922 296,1114Q261,1306 205,1507Q307,1482 416,1481Q530,1481 647,1507Z"  transform="translate(59109, 1280)"/>
<path d="M205,1397Q573,1327 1179,1236Q1153,1379 1116,1516Q1236,1489 1340,1489Q1450,1489 1559,1516Q1496,1290 1464,1101Q1431,911 1405,642Q1378,372 1337,-221L1284,-221Q1257,717 1198,1117Q980,1089 675,1042Q370,994 205,956Q227,1092 227,1202Q227,1297 205,1397Z"  transform="translate(59961, 1280)"/>
</svg>
