<svg xmlns="http://www.w3.org/2000/svg" viewBox="0 0 39663 3789" transform="translate(0, 3789) scale(1, -1)">
<path d="M780,575L1055,227Q1183,368 1231,499Q1278,630 1278,760Q1278,942 1194,1107Q1110,1272 1014,1350L1128,1485Q1283,1347 1372,1159Q1460,970 1460,760Q1460,547 1350,340Q1239,133 1061,-20L780,330L500,-20Q322,133 211,341Q100,548 100,760Q100,963 186,1151Q271,1339 432,1485L547,1350Q453,1276 368,1109Q283,941 283,760Q283,627 331,497Q379,366 506,227L780,575Z"  transform="translate(0, 1100)"/>
<path d="M694,1325Q586,1289 424,1158Q262,1026 262,922Q262,849 314,802Q366,754 442,754L524,754L524,600L442,600Q278,600 180,687Q82,773 82,922Q82,1026 170,1136Q257,1246 420,1350Q582,1453 694,1485Q807,1453 970,1350Q1133,1246 1220,1136Q1307,1026 1307,922Q1307,773 1209,687Q1110,600 946,600L864,600L864,754L946,754Q1022,754 1074,802Q1126,849 1126,922Q1126,1026 962,1160Q797,1293 694,1325ZM612,401L612,1059L776,1059L776,334L700,246L459,317Q481,227 544,173Q607,119 694,119Q800,119 857,226Q913,332 913,508L1077,508Q1061,230 961,105Q861,-20 694,-20Q566,-20 471,44Q376,107 325,233Q274,358 274,491L274,502L612,401Z"  transform="translate(1561, 1100)"/>
<path d="M1038,424Q965,375 860,375Q710,375 615,476Q520,576 520,731Q520,887 615,987Q710,1087 860,1087Q965,1087 1038,1038Q984,1181 883,1255Q781,1329 647,1329Q512,1329 402,1211Q292,1093 281,977L92,977Q152,1226 296,1355Q440,1483 647,1483Q929,1483 1100,1276Q1270,1069 1270,731Q1270,394 1100,187Q930,-20 647,-20Q435,-20 293,111Q150,241 92,485L281,485Q293,367 403,250Q513,133 647,133Q778,133 881,210Q983,286 1038,424ZM728,880Q666,817 666,731Q666,644 729,582Q791,520 877,520Q962,520 1025,583Q1087,646 1087,731Q1087,817 1025,880Q963,942 877,942Q790,942 728,880Z"  transform="translate(2950, 1100)"/>
<path d="M647,1462L823,1462Q956,1425 1090,1316Q1223,1207 1297,1055Q1370,902 1370,727Q1370,581 1315,443Q1260,304 1160,195Q1060,85 995,53L915,205Q963,228 1036,313Q1108,398 1149,505Q1190,612 1190,727Q1190,918 1083,1071Q975,1223 823,1284L823,0L647,0Q435,60 268,263Q100,466 100,735Q100,879 154,1015Q207,1150 305,1261Q402,1372 475,1409L555,1257Q510,1234 437,1150Q363,1065 322,957Q281,848 281,735Q281,542 389,391Q496,239 647,176L647,1462Z"  transform="translate(4320, 1100)"/>
<path d="M82,518L236,569L371,162Q471,195 585,290Q699,384 737,465Q644,488 502,598Q360,708 278,846Q195,984 195,1128Q195,1294 284,1390Q372,1485 520,1485Q645,1485 755,1398Q864,1310 927,1154Q989,998 989,805Q989,574 888,391Q787,208 599,98Q410,-12 268,-20L82,518ZM786,596Q809,677 809,813Q809,971 723,1151Q637,1331 518,1331Q451,1331 413,1276Q375,1220 375,1120Q375,1018 434,910Q493,802 596,714Q699,625 786,596Z"  transform="translate(5790, 1100)"/>
<path d="M1292,623Q1258,323 1109,152Q959,-20 713,-20Q431,-20 266,186Q100,392 100,731Q100,1076 257,1281Q414,1485 682,1485Q850,1485 986,1393Q1122,1300 1155,1182L973,1139Q968,1162 930,1211Q891,1260 830,1296Q768,1331 688,1331Q495,1331 388,1166Q281,1001 281,731Q281,460 395,297Q509,133 713,133Q853,133 966,252Q1079,371 1079,485Q1019,460 956,445Q893,430 844,430Q716,430 627,524Q537,617 537,741Q537,883 633,966Q728,1049 893,1049L1247,1049L1247,893L866,893Q781,893 740,852Q698,811 698,741Q698,665 744,620Q790,575 868,575Q930,575 1029,606Q1128,637 1198,672L1292,623Z"  transform="translate(6880, 1100)"/>
<path d=""  transform="translate(8264, 1100)"/>
<path d="M74,354L891,1128Q842,1230 764,1281Q685,1331 588,1331Q489,1331 401,1271Q313,1211 262,1110L74,1110Q139,1282 277,1384Q414,1485 588,1485Q761,1485 899,1384Q1037,1283 1102,1110L283,336Q330,237 411,185Q492,133 588,133Q687,133 775,193Q862,252 913,354L1102,354Q1037,182 900,81Q763,-20 588,-20Q412,-20 275,82Q138,183 74,354Z"  transform="translate(8796, 1100)"/>
<path d="M846,0L846,477L600,252Q383,321 233,489Q82,656 82,868Q82,1079 232,1247Q382,1415 600,1485L846,1257L846,1462L1022,1462L1022,0L846,0ZM600,426L846,662L846,1073L600,1311Q446,1255 355,1140Q264,1024 264,868Q264,714 354,598Q444,481 600,426Z"  transform="translate(9972, 1100)"/>
<path d="M655,1464L597,1406Q443,1252 362,1083Q281,913 281,737Q281,563 358,421Q434,279 535,205L938,596L938,1464L1114,1464L1114,2L938,2L938,371L535,-20Q386,57 243,283Q100,508 100,737Q100,924 187,1119Q273,1313 416,1464L655,1464Z"  transform="translate(11168, 1100)"/>
<path d="M526,731L993,1200Q889,1331 705,1331Q533,1331 424,1216Q315,1100 283,881L100,881Q134,1163 294,1324Q454,1485 705,1485Q872,1485 997,1407Q1122,1328 1190,1178L743,731L1190,287Q1123,138 1000,59Q876,-20 705,-20Q454,-20 294,142Q133,303 100,584L283,584Q314,366 423,250Q532,133 705,133Q889,133 993,264L526,731ZM913,793L1294,793L1294,651L913,651L913,793Z"  transform="translate(12456, 1100)"/>
<path d="M302,178Q125,375 125,735Q125,1092 301,1289Q476,1485 803,1485Q1122,1485 1299,1285Q1475,1085 1475,733Q1475,381 1297,181Q1119,-20 801,-20Q478,-20 302,178ZM1158,289Q1280,439 1280,733Q1280,1026 1159,1175Q1038,1323 803,1323Q565,1323 442,1173Q319,1022 319,733Q319,443 442,291Q565,139 801,139Q1036,139 1158,289Z"  transform="translate(13832, 1100)"/>
<path d="M1229,913Q1241,824 1241,723Q1241,403 1086,192Q930,-20 688,-20Q424,-20 263,204Q102,428 102,815Q198,719 292,663Q386,606 453,606Q578,606 622,692Q666,777 666,954Q666,1128 610,1230Q554,1331 457,1331Q373,1331 316,1257Q258,1182 258,1069L100,1069Q111,1250 208,1368Q304,1485 457,1485Q635,1485 733,1335Q831,1185 831,954Q831,717 752,585Q672,453 539,453Q416,453 303,526Q320,367 443,250Q565,133 688,133Q847,133 954,303Q1061,472 1061,723Q1061,808 1047,913L1229,913ZM1212,1261Q1249,1223 1249,1171Q1249,1119 1212,1082Q1174,1044 1122,1044Q1070,1044 1033,1082Q995,1119 995,1171Q995,1223 1033,1261Q1070,1298 1122,1298Q1174,1298 1212,1261Z"  transform="translate(15431, 1100)"/>
<path d=""  transform="translate(16772, 1100)"/>
<path d="M872,1464Q1019,1310 1104,1117Q1188,923 1188,737Q1188,510 1046,284Q904,57 754,-20L350,371L350,2L174,2L174,1464L350,1464L350,596L754,205Q871,295 940,435Q1008,574 1008,737Q1008,915 923,1088Q838,1261 691,1406L633,1464L872,1464Z"  transform="translate(17304, 1100)"/>
<path d="M344,532L344,1204Q237,1126 162,1016L61,1139Q186,1317 352,1401Q518,1485 764,1485Q939,1485 1076,1435Q1213,1384 1325,1280L1147,932L1147,258Q1242,327 1329,449L1430,326Q1307,149 1140,65Q972,-20 727,-20Q552,-20 415,30Q278,80 166,184L344,532ZM520,1294L520,492L385,225Q536,133 727,133Q866,133 971,168L971,973L1106,1239Q955,1331 764,1331Q630,1331 520,1294Z"  transform="translate(18592, 1100)"/>
<path d="M174,0L174,1462L350,1462L350,1257L596,1485Q828,1407 971,1240Q1114,1073 1114,868Q1114,658 965,491Q816,323 596,252L350,477L350,0L174,0ZM596,1311L350,1073L350,662L596,426Q748,479 840,596Q932,712 932,868Q932,1027 839,1142Q745,1257 596,1311Z"  transform="translate(20083, 1100)"/>
<path d="M367,213Q401,177 401,111Q401,46 367,9Q333,-29 272,-29Q212,-29 180,9Q147,46 147,111Q147,177 180,213Q212,248 272,248Q333,248 367,213Z"  transform="translate(21279, 1100)"/>
<path d="M633,0L691,58Q840,207 924,378Q1008,549 1008,727Q1008,888 940,1029Q872,1169 754,1260L350,868L350,0L174,0L174,1462L350,1462L350,1094L754,1485Q911,1401 1050,1176Q1188,951 1188,727Q1188,538 1101,345Q1014,152 872,0L633,0Z"  transform="translate(21828, 1100)"/>
<path d="M303,526Q320,367 443,250Q565,133 688,133Q847,133 954,303Q1061,472 1061,723Q1061,886 1019,1054Q977,1221 909,1358L856,1464L1055,1464L1106,1349Q1168,1213 1205,1051Q1241,889 1241,723Q1241,403 1086,192Q930,-20 688,-20Q424,-20 263,204Q102,428 102,815Q198,719 292,663Q386,606 453,606Q578,606 622,692Q666,777 666,954Q666,1128 610,1230Q554,1331 457,1331Q373,1331 316,1257Q258,1182 258,1069L100,1069Q111,1250 208,1368Q304,1485 457,1485Q635,1485 733,1335Q831,1185 831,954Q831,717 752,585Q672,453 539,453Q416,453 303,526Z"  transform="translate(23116, 1100)"/>
<path d=""  transform="translate(24457, 1100)"/>
<path d="M246,1464L401,1464L401,592L1020,1464L1153,1368L352,240Q402,190 470,162Q537,133 610,133Q696,133 785,187Q874,241 946,332L961,352L1075,242L1044,205Q955,98 843,39Q730,-20 610,-20Q485,-20 368,38Q250,96 143,227L246,373L246,1464Z"  transform="translate(24989, 1100)"/>
<path d="M1040,311Q964,159 849,70Q734,-20 600,-20Q474,-20 369,43Q263,106 160,279L272,444L272,1235L143,1325Q232,1405 344,1445Q456,1485 584,1485Q746,1485 887,1403Q1027,1321 1114,1176L1036,981L1029,998Q1019,1031 996,1074Q972,1117 942,1153L360,281Q400,215 467,174Q533,133 600,133Q672,133 738,181Q804,228 846,311L1040,311ZM817,1262Q700,1331 584,1331Q508,1331 428,1311L428,676L817,1262Z"  transform="translate(26191, 1100)"/>
<path d="M647,1286Q494,1222 388,1071Q281,920 281,727Q281,610 325,499Q368,388 441,307Q513,226 555,205L475,53Q409,86 312,193Q215,300 158,439Q100,578 100,727Q100,996 267,1199Q434,1401 647,1462L823,1462L823,178Q977,241 1084,394Q1190,547 1190,735Q1190,848 1150,955Q1110,1062 1037,1148Q963,1233 915,1257L995,1409Q1066,1374 1165,1263Q1263,1151 1317,1015Q1370,878 1370,735Q1370,560 1297,408Q1223,256 1091,148Q958,39 823,0L647,0L647,1286Z"  transform="translate(27354, 1100)"/>
<path d="M1190,629Q958,629 767,701Q575,773 465,902Q354,1031 354,1184Q354,1310 439,1398Q523,1485 680,1485Q871,1485 1028,1375Q1184,1265 1277,1069Q1370,872 1370,649Q1370,598 1364,550Q1357,502 1343,453Q1328,404 1309,360Q1290,316 1263,271Q1236,225 1208,190Q1180,154 1140,109Q1099,64 1064,36L997,-20L709,266L420,-20L387,5Q265,91 183,243Q100,395 100,586Q100,804 207,1004L371,928Q283,764 283,586Q283,354 418,207L709,504L999,207Q1086,280 1138,393Q1190,506 1190,629ZM1184,776Q1184,876 1113,1017Q1041,1157 931,1244Q820,1331 702,1331Q624,1331 578,1288Q532,1245 532,1171Q532,996 735,886Q937,776 1184,776Z"  transform="translate(28824, 1100)"/>
<path d="M340,1464L340,987L586,1212Q811,1138 958,970Q1104,802 1104,596Q1104,390 958,222Q811,54 586,-20L164,360L164,1464L340,1464ZM586,1038L340,813L340,393L598,162Q742,211 832,324Q922,437 922,596Q922,754 830,869Q737,983 586,1038Z"  transform="translate(30294, 1100)"/>
<path d="M1038,938Q1024,1097 900,1214Q776,1331 653,1331Q493,1331 387,1162Q281,992 281,741Q281,578 324,409Q366,239 433,106L485,0L287,0L237,116Q100,412 100,741Q100,1061 255,1273Q410,1485 653,1485Q918,1485 1079,1260Q1239,1035 1239,649Q1140,748 1047,803Q954,858 889,858Q764,858 720,773Q676,687 676,510Q676,337 732,235Q788,133 885,133Q966,133 1025,207Q1083,281 1083,395L1241,395Q1232,216 1135,98Q1037,-20 885,-20Q705,-20 608,130Q510,280 510,510Q510,743 589,878Q667,1012 803,1012Q924,1012 1038,938Z"  transform="translate(31480, 1100)"/>
<path d=""  transform="translate(32821, 1100)"/>
<path d="M367,1450Q401,1414 401,1348Q401,1283 367,1246Q333,1208 272,1208Q212,1208 180,1246Q147,1283 147,1348Q147,1414 180,1450Q212,1485 272,1485Q333,1485 367,1450Z"  transform="translate(33353, 1100)"/>
<path d="M506,1237Q382,1100 333,971Q283,842 283,705Q283,582 324,462Q364,341 436,242Q507,143 547,115L432,-20Q270,126 185,314Q100,502 100,705Q100,747 104,788Q108,828 114,860Q120,892 135,942Q150,991 169,1036Q187,1081 212,1128Q236,1174 266,1218Q295,1261 341,1320Q387,1379 433,1421L500,1485L780,1135L1061,1485L1128,1421Q1174,1378 1218,1323Q1261,1267 1292,1222Q1323,1176 1348,1129Q1373,1081 1392,1036Q1410,991 1425,942Q1440,892 1446,860Q1452,828 1456,788Q1460,747 1460,705Q1460,501 1375,313Q1290,125 1128,-20L1014,115Q1054,143 1126,242Q1197,341 1238,462Q1278,582 1278,705Q1278,838 1230,968Q1182,1097 1055,1237L780,889L506,1237Z"  transform="translate(33902, 1100)"/>
<path d="M367,213Q401,177 401,111Q401,46 367,9Q333,-29 272,-29Q212,-29 180,9Q147,46 147,111Q147,177 180,213Q212,248 272,248Q333,248 367,213ZM368,1090Q401,1054 401,987Q401,923 367,886Q333,848 272,848Q213,848 180,885Q147,922 147,987Q147,1053 179,1090Q210,1126 272,1126Q335,1126 368,1090Z"  transform="translate(35463, 1100)"/>
<path d="M123,1153Q201,1309 316,1397Q431,1485 563,1485Q702,1485 806,1414Q910,1343 973,1236L1004,1186L891,1020L891,229L1020,139L979,105Q920,57 815,19Q710,-20 580,-20Q418,-20 276,63Q134,145 49,289L127,483L134,466Q164,379 221,311L803,1184Q761,1251 696,1291Q630,1331 563,1331Q491,1331 425,1283Q358,1235 317,1153L123,1153ZM346,203Q395,171 457,152Q518,133 580,133Q648,133 688,143L735,154L735,788L346,203Z"  transform="translate(36012, 1100)"/>
<path d="M969,0L813,0L813,872L195,0L61,96L862,1225Q811,1276 742,1304Q673,1331 604,1331Q511,1331 420,1270Q328,1209 269,1132L254,1112L139,1223Q279,1388 392,1437Q505,1485 604,1485Q730,1485 847,1427Q964,1369 1071,1237L969,1092L969,0Z"  transform="translate(37175, 1100)"/>
<path d="M1049,1106L1049,584L1127,503L1296,330Q1190,167 1025,74Q859,-20 670,-20Q481,-20 316,73Q150,166 43,330Q267,558 291,584L291,1106Q291,1297 387,1395Q483,1493 670,1493Q854,1493 952,1397Q1049,1300 1049,1106ZM872,567L872,1098Q872,1237 819,1288Q766,1339 670,1339Q572,1339 520,1288Q467,1237 467,1098L467,567Q570,498 670,498Q719,498 775,517Q830,536 872,567ZM1098,313L969,442Q909,395 829,368Q748,340 670,340Q592,340 510,369Q427,397 371,442L242,313Q295,252 417,185Q538,117 670,117Q794,117 915,180Q1036,243 1098,313Z"  transform="translate(38324, 1100)"/>
</svg>
