<svg width="47774" height="3789" viewBox="0 0 47774 3789" xmlns="http://www.w3.org/2000/svg">
    <defs/>
    <path fill="#000000" stroke="none" transform="matrix(1 0 0 -1 0 2689)" d="M 120 0 L 120 174 C 120 418 182 606.33333333333 306 739 C 430 871 608.33333333333 937 841 937 L 882 937 L 882 1462 L 1042 1462 L 1042 792 L 882 792 C 675.33333333333 792 523.33333333333 741 426 639 C 328.66666666667 536.33333333333 280 369 280 137 L 280 0 L 120 0 Z M 1226 661 C 1202 684.33333333333 1190 712.66666666667 1190 746 C 1190 779.33333333333 1202 808 1226 832 C 1249.33333333333 855.33333333333 1277.66666666667 867 1311 867 C 1344.33333333333 867 1373 855.33333333333 1397 832 C 1420.33333333333 808 1432 779.33333333333 1432 746 C 1432 712.66666666667 1420.33333333333 684.33333333333 1397 661 C 1373 637 1344.33333333333 625 1311 625 C 1277.66666666667 625 1249.33333333333 637 1226 661 Z M 1047 1857 C 1070.33333333333 1833 1082 1804.33333333333 1082 1771 C 1082 1737.66666666667 1070.33333333333 1709.33333333333 1047 1686 C 1023 1662 994.33333333333 1650 961 1650 C 927.66666666667 1650 899.33333333333 1662 876 1686 C 852 1709.33333333333 840 1737.66666666667 840 1771 C 840 1804.33333333333 852 1833 876 1857 C 899.33333333333 1880.33333333333 927.66666666667 1892 961 1892 C 994.33333333333 1892 1023 1880.33333333333 1047 1857 Z"/>
    <path fill="#000000" stroke="none" transform="matrix(1 0 0 -1 1482 2689)" d="M 1071 0 L 100 0 L 100 145 L 911 145 L 911 1462 L 1071 1462 L 1071 0 Z M 841 1857 C 864.33333333333 1833 876 1804.33333333333 876 1771 C 876 1737.66666666667 864.33333333333 1709.33333333333 841 1686 C 817 1662 788.33333333333 1650 755 1650 C 721.66666666667 1650 693.33333333333 1662 670 1686 C 646 1709.33333333333 634 1737.66666666667 634 1771 C 634 1804.33333333333 646 1833 670 1857 C 693.33333333333 1880.33333333333 721.66666666667 1892 755 1892 C 788.33333333333 1892 817 1880.33333333333 841 1857 Z M 1331 1857 C 1354.33333333333 1833 1366 1804.33333333333 1366 1771 C 1366 1737.66666666667 1354.33333333333 1709.33333333333 1331 1686 C 1307 1662 1278.33333333333 1650 1245 1650 C 1211.66666666667 1650 1183.33333333333 1662 1160 1686 C 1136 1709.33333333333 1124 1737.66666666667 1124 1771 C 1124 1804.33333333333 1136 1833 1160 1857 C 1183.33333333333 1880.33333333333 1211.66666666667 1892 1245 1892 C 1278.33333333333 1892 1307 1880.33333333333 1331 1857 Z"/>
    <path fill="#000000" stroke="none" transform="matrix(1 0 0 -1 2693 2689)" d="M 1534 0 L 1534 692 C 1534 882.66666666667 1524.66666666667 1018.66666666667 1506 1100 C 1487.33333333333 1180.66666666667 1458.33333333333 1241.33333333333 1419 1282 C 1379.66666666667 1322 1328.66666666667 1342 1266 1342 C 1172 1342 1103.66666666667 1295.66666666667 1061 1203 C 1018.33333333333 1110.33333333333 997 950 997 722 L 997 0 L 837 0 L 837 722 C 837 964 815 1128 771 1214 C 726.33333333333 1299.33333333333 659 1342 569 1342 C 474.33333333333 1342 406 1294.33333333333 364 1199 C 321.33333333333 1103 300 934 300 692 L 300 0 L 140 0 L 140 692 C 140 910.66666666667 155 1072.66666666667 185 1178 C 215 1282.66666666667 262 1360.33333333333 326 1411 C 389.33333333333 1461.66666666667 470.33333333333 1487 569 1487 C 651.66666666667 1487 721.66666666667 1470 779 1436 C 835.66666666667 1401.33333333333 881.66666666667 1347.33333333333 917 1274 C 982.33333333333 1416 1098.66666666667 1487 1266 1487 C 1365.33333333333 1487 1446.66666666667 1461.66666666667 1510 1411 C 1573.33333333333 1359.66666666667 1620 1281.66666666667 1650 1177 C 1679.33333333333 1072.33333333333 1694 910.66666666667 1694 692 L 1694 0 L 1534 0 Z"/>
    <path fill="#000000" stroke="none" transform="matrix(1 0 0 -1 4527 2689)" d="M 480 1452 L 640 1452 L 640 135 L 1451 135 L 1451 -10 L 480 -10 L 480 1452 Z M 86 991 C 62 1014.33333333333 50 1042.66666666667 50 1076 C 50 1109.33333333333 62 1138 86 1162 C 109.33333333333 1185.33333333333 137.66666666667 1197 171 1197 C 204.33333333333 1197 233 1185.33333333333 257 1162 C 280.33333333333 1138 292 1109.33333333333 292 1076 C 292 1042.66666666667 280.33333333333 1014.33333333333 257 991 C 233 967 204.33333333333 955 171 955 C 137.66666666667 955 109.33333333333 967 86 991 Z M 86 331 C 62 354.33333333333 50 382.66666666667 50 416 C 50 449.33333333333 62 478 86 502 C 109.33333333333 525.33333333333 137.66666666667 537 171 537 C 204.33333333333 537 233 525.33333333333 257 502 C 280.33333333333 478 292 449.33333333333 292 416 C 292 382.66666666667 280.33333333333 354.33333333333 257 331 C 233 307 204.33333333333 295 171 295 C 137.66666666667 295 109.33333333333 307 86 331 Z"/>
    <path fill="#000000" stroke="none" transform="matrix(1 0 0 -1 6078 2689)" d="M 1107 145 C 1250.33333333333 145 1357 174.66666666667 1427 234 C 1497 292.66666666667 1532 385.66666666667 1532 513 C 1532 622.33333333333 1500.33333333333 711 1437 779 C 1373.66666666667 846.33333333333 1289.33333333333 880 1184 880 L 972 880 L 972 1025 L 1176 1025 C 1330.66666666667 1025 1455.33333333333 978.66666666667 1550 886 C 1644.66666666667 792.66666666667 1692 669.33333333333 1692 516 C 1692 172 1504.33333333333 0 1129 0 L 100 0 L 100 145 L 1107 145 Z M 1057 1452 C 1080.33333333333 1428 1092 1399.33333333333 1092 1366 C 1092 1332.66666666667 1080.33333333333 1304.33333333333 1057 1281 C 1033 1257 1004.33333333333 1245 971 1245 C 937.66666666667 1245 909.33333333333 1257 886 1281 C 862 1304.33333333333 850 1332.66666666667 850 1366 C 850 1399.33333333333 862 1428 886 1452 C 909.33333333333 1475.33333333333 937.66666666667 1487 971 1487 C 1004.33333333333 1487 1033 1475.33333333333 1057 1452 Z M 1547 1452 C 1570.33333333333 1428 1582 1399.33333333333 1582 1366 C 1582 1332.66666666667 1570.33333333333 1304.33333333333 1547 1281 C 1523 1257 1494.33333333333 1245 1461 1245 C 1427.66666666667 1245 1399.33333333333 1257 1376 1281 C 1352 1304.33333333333 1340 1332.66666666667 1340 1366 C 1340 1399.33333333333 1352 1428 1376 1452 C 1399.33333333333 1475.33333333333 1427.66666666667 1487 1461 1487 C 1494.33333333333 1487 1523 1475.33333333333 1547 1452 Z"/>
    <path fill="#000000" stroke="none" transform="matrix(1 0 0 -1 7890 2689)" d="M 1694 800 L 1694 770 C 1694 550.66666666667 1679 388.66666666667 1649 284 C 1619 178.66666666667 1572.33333333333 101 1509 51 C 1445 0.33333333333 1364 -25 1266 -25 C 1098.66666666667 -25 982.33333333333 46 917 188 C 882.33333333333 115.33333333333 836.33333333333 61.66666666667 779 27 C 721.66666666667 -7.66666666667 651.66666666667 -25 569 -25 C 467.66666666667 -25 385.33333333333 1.33333333333 322 54 C 258 106 211.66666666667 185 183 291 C 154.33333333333 396.33333333333 140 556 140 770 L 140 1462 L 300 1462 L 300 770 C 300 528 321 359.33333333333 363 264 C 405 168 473.66666666667 120 569 120 C 659.66666666667 120 727 163 771 249 C 815 335 837 498.66666666667 837 740 L 837 1025 L 997 1025 L 997 740 C 997 512 1018.33333333333 351.66666666667 1061 259 C 1103.66666666667 166.33333333333 1172 120 1266 120 C 1328 120 1379 140.33333333333 1419 181 C 1458.33333333333 221 1487.33333333333 282.33333333333 1506 365 C 1524.66666666667 447.66666666667 1534 582.66666666667 1534 770 L 1534 800 L 1694 800 Z"/>
    <path fill="#000000" stroke="none" transform="matrix(1 0 0 -1 10324 2689)" d="M 100 151 L 1120 731 L 100 1312 L 100 1484 L 120 1484 L 1377 746 L 1377 716 L 120 -21 L 100 -21 L 100 151 Z"/>
    <path fill="#000000" stroke="none" transform="matrix(1 0 0 -1 11781 2689)" d="M 1357 659 L 931 659 L 931 387 L 1357 150 L 1357 -21 L 1337 -21 L 80 716 L 80 746 L 1337 1484 L 1357 1484 L 1357 1312 L 931 1074 L 931 804 L 1357 804 L 1357 659 Z M 443 659 L 777 473 L 777 659 L 443 659 Z M 445 804 L 777 804 L 777 989 L 445 804 Z"/>
    <path fill="#000000" stroke="none" transform="matrix(1 0 0 -1 13238 2689)" d="M 913 207 L 380 207 L 380 0 L 220 0 L 220 207 L 100 207 L 100 352 L 220 352 L 220 687 L 913 687 L 333 1397 L 448 1487 L 1171 597 L 1171 542 L 380 542 L 380 352 L 913 352 L 913 207 Z M 1276 661 C 1252 684.33333333333 1240 712.66666666667 1240 746 C 1240 779.33333333333 1252 808 1276 832 C 1299.33333333333 855.33333333333 1327.66666666667 867 1361 867 C 1394.33333333333 867 1423 855.33333333333 1447 832 C 1470.33333333333 808 1482 779.33333333333 1482 746 C 1482 712.66666666667 1470.33333333333 684.33333333333 1447 661 C 1423 637 1394.33333333333 625 1361 625 C 1327.66666666667 625 1299.33333333333 637 1276 661 Z"/>
    <path fill="#000000" stroke="none" transform="matrix(1 0 0 -1 14770 2689)" d="M 1836 92 C 1896 137.33333333333 1943.66666666667 193.33333333333 1979 260 C 2014.33333333333 326.66666666667 2032 396.33333333333 2032 469 C 2032 552.33333333333 2014.66666666667 616 1980 660 C 1944.66666666667 703.33333333333 1894.66666666667 725 1830 725 C 1761.33333333333 725 1693.33333333333 700 1626 650 C 1558 600 1470.66666666667 505.33333333333 1364 366 C 1257.33333333333 226.66666666667 1158.66666666667 127 1068 67 C 976.66666666667 6.33333333333 881 -24 781 -24 C 677 -24 591 11.66666666667 523 83 C 454.33333333333 154.33333333333 420 250.33333333333 420 371 C 420 469.66666666667 446.66666666667 565.33333333333 500 658 C 552.66666666667 750 622.33333333333 823.66666666667 709 879 L 783 754 C 728.33333333333 719.33333333333 681.66666666667 666.33333333333 643 595 C 604.33333333333 523.66666666667 585 451 585 377 C 585 293.66666666667 602.66666666667 230.33333333333 638 187 C 672.66666666667 143 722.33333333333 121 787 121 C 853 121 919.33333333333 144.33333333333 986 191 C 1052.66666666667 237.66666666667 1142.33333333333 333 1255 477 C 1367 620.33333333333 1467.33333333333 721.66666666667 1556 781 C 1644.66666666667 840.33333333333 1738 870 1836 870 C 1940 870 2026.33333333333 834.33333333333 2095 763 C 2163 691.66666666667 2197 595.66666666667 2197 475 C 2197 375.66666666667 2173 283 2125 197 C 2077 110.33333333333 2005.33333333333 33 1910 -35 L 1836 92 Z M 86 661 C 62 684.33333333333 50 712.66666666667 50 746 C 50 779.33333333333 62 808 86 832 C 109.33333333333 855.33333333333 137.66666666667 867 171 867 C 204.33333333333 867 233 855.33333333333 257 832 C 280.33333333333 808 292 779.33333333333 292 746 C 292 712.66666666667 280.33333333333 684.33333333333 257 661 C 233 637 204.33333333333 625 171 625 C 137.66666666667 625 109.33333333333 637 86 661 Z M 1394 1452 C 1417.33333333333 1428 1429 1399.33333333333 1429 1366 C 1429 1332.66666666667 1417.33333333333 1304.33333333333 1394 1281 C 1370 1257 1341.33333333333 1245 1308 1245 C 1274.66666666667 1245 1246.33333333333 1257 1223 1281 C 1199 1304.33333333333 1187 1332.66666666667 1187 1366 C 1187 1399.33333333333 1199 1428 1223 1452 C 1246.33333333333 1475.33333333333 1274.66666666667 1487 1308 1487 C 1341.33333333333 1487 1370 1475.33333333333 1394 1452 Z"/>
    <path fill="#000000" stroke="none" transform="matrix(1 0 0 -1 17087 2689)" d="M 269 1462 L 339 1315 L 1328 1315 L 1398 1462 L 1570 1462 L 1570 1442 L 855 -15 L 815 -15 L 100 1442 L 100 1462 L 269 1462 Z M 1259 1170 L 408 1170 L 835 279 L 1259 1170 Z"/>
    <path fill="#000000" stroke="none" transform="matrix(1 0 0 -1 18757 2689)" d="M 100 151 L 1120 731 L 100 1312 L 100 1484 L 120 1484 L 1377 746 L 1377 716 L 120 -21 L 100 -21 L 100 151 Z M 307 1857 C 330.33333333333 1833 342 1804.33333333333 342 1771 C 342 1737.66666666667 330.33333333333 1709.33333333333 307 1686 C 283 1662 254.33333333333 1650 221 1650 C 187.66666666667 1650 159.33333333333 1662 136 1686 C 112 1709.33333333333 100 1737.66666666667 100 1771 C 100 1804.33333333333 112 1833 136 1857 C 159.33333333333 1880.33333333333 187.66666666667 1892 221 1892 C 254.33333333333 1892 283 1880.33333333333 307 1857 Z"/>
    <path fill="#000000" stroke="none" transform="matrix(1 0 0 -1 20814 2689)" d="M 80 1163 L 834 1163 L 834 1025 L 80 1025 L 80 1163 Z"/>
    <path fill="#000000" stroke="none" transform="matrix(1 0 0 -1 21728 2689)" d="M 1072 1462 L 1604 1063 L 1510 938 L 1072 1278 L 1072 523 C 1072 341.66666666667 1031.33333333333 205 950 113 C 868.66666666667 21 750.66666666667 -25 596 -25 C 443.33333333333 -25 326 20.66666666667 244 112 C 161.33333333333 202.66666666667 120 330.66666666667 120 496 C 120 658.66666666667 163.33333333333 787.66666666667 250 883 C 336 977.66666666667 452.33333333333 1025 599 1025 C 660.33333333333 1025 716.33333333333 1018 767 1004 C 817.66666666667 989.33333333333 866 964.33333333333 912 929 L 912 1462 L 1072 1462 Z M 912 560 C 912 650.66666666667 883.66666666667 726.66666666667 827 788 C 769.66666666667 849.33333333333 700 880 618 880 C 508.66666666667 880 425 846 367 778 C 309 709.33333333333 280 612.66666666667 280 488 C 280 374 307.66666666667 284.33333333333 363 219 C 418.33333333333 153 497 120 599 120 C 692.33333333333 120 768 152.33333333333 826 217 C 883.33333333333 281 912 360.33333333333 912 455 L 912 560 Z M 1082 1857 C 1105.33333333333 1833 1117 1804.33333333333 1117 1771 C 1117 1737.66666666667 1105.33333333333 1709.33333333333 1082 1686 C 1058 1662 1029.33333333333 1650 996 1650 C 962.66666666667 1650 934.33333333333 1662 911 1686 C 887 1709.33333333333 875 1737.66666666667 875 1771 C 875 1804.33333333333 887 1833 911 1857 C 934.33333333333 1880.33333333333 962.66666666667 1892 996 1892 C 1029.33333333333 1892 1058 1880.33333333333 1082 1857 Z"/>
    <path fill="#000000" stroke="none" transform="matrix(1 0 0 -1 23382 2689)" d="M 280 1025 L 280 501 C 280 379.66666666667 313.33333333333 286 380 220 C 446.66666666667 153.33333333333 541 120 663 120 C 785 120 879.33333333333 153.33333333333 946 220 C 1012 286 1045 379.66666666667 1045 501 L 1045 1025 L 1732 1025 L 1732 880 L 1205 880 L 1205 497 C 1205 335 1157.33333333333 207.66666666667 1062 115 C 966 21.66666666667 833 -25 663 -25 C 494.33333333333 -25 361.66666666667 21 265 113 C 168.33333333333 205 120 333.33333333333 120 498 L 120 1025 L 280 1025 Z"/>
    <path fill="#000000" stroke="none" transform="matrix(1 0 0 -1 25214 2689)" d="M 480 1462 L 1451 1462 L 1451 1317 L 640 1317 L 640 0 L 480 0 L 480 1462 Z M 86 661 C 62 684.33333333333 50 712.66666666667 50 746 C 50 779.33333333333 62 808 86 832 C 109.33333333333 855.33333333333 137.66666666667 867 171 867 C 204.33333333333 867 233 855.33333333333 257 832 C 280.33333333333 808 292 779.33333333333 292 746 C 292 712.66666666667 280.33333333333 684.33333333333 257 661 C 233 637 204.33333333333 625 171 625 C 137.66666666667 625 109.33333333333 637 86 661 Z"/>
    <path fill="#000000" stroke="none" transform="matrix(1 0 0 -1 26765 2689)" d="M 1276 620 C 1276 388 1229.66666666667 222.66666666667 1137 124 C 1043.66666666667 24.66666666667 899.33333333333 -25 704 -25 C 516 -25 375 32.66666666667 281 148 C 187 262.66666666667 140 442.66666666667 140 688 L 140 1462 L 300 1462 L 300 633 C 300 291 434.66666666667 120 704 120 C 853.33333333333 120 958 156 1018 228 C 1077.33333333333 300 1110 430.66666666667 1116 620 L 1276 620 Z"/>
    <path fill="#000000" stroke="none" transform="matrix(1 0 0 -1 28141 2689)" d="M 813 687 L 233 1397 L 348 1487 L 1071 597 L 1071 542 L 280 542 L 280 0 L 120 0 L 120 687 L 813 687 Z M 436 1857 C 459.33333333333 1833 471 1804.33333333333 471 1771 C 471 1737.66666666667 459.33333333333 1709.33333333333 436 1686 C 412 1662 383.33333333333 1650 350 1650 C 316.66666666667 1650 288.33333333333 1662 265 1686 C 241 1709.33333333333 229 1737.66666666667 229 1771 C 229 1804.33333333333 241 1833 265 1857 C 288.33333333333 1880.33333333333 316.66666666667 1892 350 1892 C 383.33333333333 1892 412 1880.33333333333 436 1857 Z M 1195 661 C 1171 684.33333333333 1159 712.66666666667 1159 746 C 1159 779.33333333333 1171 808 1195 832 C 1218.33333333333 855.33333333333 1246.66666666667 867 1280 867 C 1313.33333333333 867 1342 855.33333333333 1366 832 C 1389.33333333333 808 1401 779.33333333333 1401 746 C 1401 712.66666666667 1389.33333333333 684.33333333333 1366 661 C 1342 637 1313.33333333333 625 1280 625 C 1246.66666666667 625 1218.33333333333 637 1195 661 Z"/>
    <path fill="#000000" stroke="none" transform="matrix(1 0 0 -1 30192 2689)" d="M 1428 0 L 140 0 L 140 602 C 140 913.33333333333 193.33333333333 1138.66666666667 300 1278 C 406.66666666667 1417.33333333333 566.66666666667 1487 780 1487 C 898.66666666667 1487 998.66666666667 1467.66666666667 1080 1429 C 1160.66666666667 1389.66666666667 1225.33333333333 1337.66666666667 1274 1273 C 1322 1207.66666666667 1359.66666666667 1122 1387 1016 C 1414.33333333333 909.33333333333 1428 756.66666666667 1428 558 L 1428 0 Z M 1268 145 L 1268 582 C 1268 856 1229.66666666667 1051.33333333333 1153 1168 C 1076.33333333333 1284 952 1342 780 1342 C 610 1342 487.66666666667 1283.33333333333 413 1166 C 337.66666666667 1048.66666666667 300 854 300 582 L 300 145 L 1268 145 Z"/>
    <path fill="#000000" stroke="none" transform="matrix(1 0 0 -1 31760 2689)" d="M 1176 620 C 1176 448.66666666667 1159 319.33333333333 1125 232 C 1091 144.66666666667 1036 80 960 38 C 884 -4 782 -25 654 -25 C 555.33333333333 -25 474 -10.33333333333 410 19 C 345.33333333333 48.33333333333 294 87.66666666667 256 137 C 218 186.33333333333 189.33333333333 250.33333333333 170 329 C 150 407 140 526.66666666667 140 688 L 140 1462 L 300 1462 L 300 633 C 300 491 312 386.66666666667 336 320 C 360 253.33333333333 398 203.33333333333 450 170 C 501.33333333333 136.66666666667 569.33333333333 120 654 120 C 750 120 822.66666666667 134.33333333333 872 163 C 920.66666666667 191 955.66666666667 236 977 298 C 998.33333333333 359.33333333333 1011.33333333333 466.66666666667 1016 620 L 1176 620 Z M 1380 661 C 1356 684.33333333333 1344 712.66666666667 1344 746 C 1344 779.33333333333 1356 808 1380 832 C 1403.33333333333 855.33333333333 1431.66666666667 867 1465 867 C 1498.33333333333 867 1527 855.33333333333 1551 832 C 1574.33333333333 808 1586 779.33333333333 1586 746 C 1586 712.66666666667 1574.33333333333 684.33333333333 1551 661 C 1527 637 1498.33333333333 625 1465 625 C 1431.66666666667 625 1403.33333333333 637 1380 661 Z"/>
    <path fill="#000000" stroke="none" transform="matrix(1 0 0 -1 33396 2689)" d="M 128 658 L 128 804 L 391 804 L 100 1442 L 100 1462 L 770 1462 C 940 1462 1062.33333333333 1432.66666666667 1137 1374 C 1211 1314.66666666667 1248 1222.33333333333 1248 1097 C 1248 1003 1231 926.66666666667 1197 868 C 1163 808.66666666667 1110 763 1038 731 C 1110 697.66666666667 1163 652 1197 594 C 1231 535.33333333333 1248 459 1248 365 C 1248 240.33333333333 1211.33333333333 148.33333333333 1138 89 C 1064 29.66666666667 941.33333333333 0 770 0 L 100 0 L 100 20 L 391 658 L 128 658 Z M 334 145 L 770 145 C 895.33333333333 145 979.66666666667 164.66666666667 1023 204 C 1066.33333333333 243.33333333333 1088 304 1088 386 C 1088 475.33333333333 1061.33333333333 543 1008 589 C 954.66666666667 635 875.33333333333 658 770 658 L 561 658 L 334 145 Z M 561 804 L 770 804 C 875.33333333333 804 954.66666666667 827.33333333333 1008 874 C 1061.33333333333 920 1088 987.33333333333 1088 1076 C 1088 1156 1067 1216.33333333333 1025 1257 C 983 1297 898 1317 770 1317 L 334 1317 L 561 804 Z M 656 596 C 618.66666666667 632.66666666667 600 677.66666666667 600 731 C 600 783.66666666667 618.33333333333 828.66666666667 655 866 C 691.66666666667 902.66666666667 736.66666666667 921 790 921 C 842.66666666667 921 887.66666666667 902.66666666667 925 866 C 961.66666666667 829.33333333333 980 784.33333333333 980 731 C 980 678.33333333333 961.66666666667 633.66666666667 925 597 C 888.33333333333 559.66666666667 843.33333333333 541 790 541 C 737.33333333333 541 692.66666666667 559.33333333333 656 596 Z"/>
    <path fill="#000000" stroke="none" transform="matrix(1 0 0 -1 34764 2689)" d="M 300 292 L 509 615 C 605.66666666667 763.66666666667 706.66666666667 872.66666666667 812 942 C 917.33333333333 1010.66666666667 1031.66666666667 1045 1155 1045 C 1327 1045 1462.33333333333 997.66666666667 1561 903 C 1659.66666666667 807.66666666667 1709 674.66666666667 1709 504 C 1709 333.33333333333 1671.33333333333 202.66666666667 1596 112 C 1520.66666666667 20.66666666667 1413 -25 1273 -25 C 1149 -25 1054 7 988 71 C 921.33333333333 134.33333333333 888 210.66666666667 888 300 L 888 344 C 888 407.33333333333 912 463.66666666667 960 513 C 1007.33333333333 561.66666666667 1065.66666666667 586 1135 586 C 1191.66666666667 586 1241.33333333333 576.33333333333 1284 557 L 1238 420 C 1215.33333333333 429.33333333333 1198 435.33333333333 1186 438 C 1174 440 1159 441 1141 441 C 1113.66666666667 441 1091.33333333333 431 1074 411 C 1056.66666666667 391 1048 366.66666666667 1048 338 L 1048 300 C 1048 236 1068 190 1108 162 C 1147.33333333333 134 1205 120 1281 120 C 1369.66666666667 120 1436.66666666667 152 1482 216 C 1526.66666666667 280 1549 374.33333333333 1549 499 C 1549 625.66666666667 1514.66666666667 724.33333333333 1446 795 C 1376.66666666667 865 1279.66666666667 900 1155 900 C 956.33333333333 900 766.33333333333 753.66666666667 585 461 C 403 167.66666666667 307.66666666667 14 299 0 L 140 0 L 140 1025 L 300 1025 L 300 292 Z"/>
    <path fill="#000000" stroke="none" transform="matrix(1 0 0 -1 36593 2689)" d="M 136 651 C 112 674.33333333333 100 702.66666666667 100 736 C 100 769.33333333333 112 798 136 822 C 159.33333333333 845.33333333333 187.66666666667 857 221 857 C 254.33333333333 857 283 845.33333333333 307 822 C 330.33333333333 798 342 769.33333333333 342 736 C 342 702.66666666667 330.33333333333 674.33333333333 307 651 C 283 627 254.33333333333 615 221 615 C 187.66666666667 615 159.33333333333 627 136 651 Z"/>
    <path fill="#000000" stroke="none" transform="matrix(1 0 0 -1 37035 2689)" d="M 1006 0 L 100 0 L 100 145 L 846 145 L 846 582 L 100 582 L 100 727 L 846 727 L 846 1462 L 1006 1462 L 1006 0 Z"/>
    <path fill="#000000" stroke="none" transform="matrix(1 0 0 -1 38781 2689)" d="M 442 700 L 442 954 L 390 954 C 291.33333333333 954 215 975.66666666667 161 1019 C 107 1061.66666666667 80 1124.66666666667 80 1208 C 80 1289.33333333333 107.33333333333 1352 162 1396 C 216.66666666667 1440 292.66666666667 1462 390 1462 L 596 1462 L 596 1324 L 407 1324 C 337.66666666667 1324 291.66666666667 1314.33333333333 269 1295 C 245.66666666667 1275.66666666667 234 1247 234 1209 C 234 1169.66666666667 244.66666666667 1140.33333333333 266 1121 C 287.33333333333 1101.66666666667 334.33333333333 1092 407 1092 L 596 1092 L 596 700 L 442 700 Z M 800 0 L 800 939 C 800 1120.33333333333 840.66666666667 1257 922 1349 C 1003.33333333333 1441 1121.33333333333 1487 1276 1487 C 1428.66666666667 1487 1546.33333333333 1441.66666666667 1629 1351 C 1711 1259.66666666667 1752 1131.33333333333 1752 966 C 1752 803.33333333333 1709 674.66666666667 1623 580 C 1536.33333333333 484.66666666667 1419.66666666667 437 1273 437 C 1211.66666666667 437 1155.66666666667 444.33333333333 1105 459 C 1054.33333333333 473 1006 497.66666666667 960 533 L 960 0 L 800 0 Z M 960 902 C 960 811.33333333333 988.33333333333 735.33333333333 1045 674 C 1101.66666666667 612.66666666667 1171.33333333333 582 1254 582 C 1363.33333333333 582 1447 616.33333333333 1505 685 C 1563 753 1592 849.33333333333 1592 974 C 1592 1089.33333333333 1564.33333333333 1179.66666666667 1509 1245 C 1453 1309.66666666667 1374.33333333333 1342 1273 1342 C 1179.66666666667 1342 1104.33333333333 1310 1047 1246 C 989 1181.33333333333 960 1101.66666666667 960 1007 L 960 902 Z M 1369 1857 C 1392.33333333333 1833 1404 1804.33333333333 1404 1771 C 1404 1737.66666666667 1392.33333333333 1709.33333333333 1369 1686 C 1345 1662 1316.33333333333 1650 1283 1650 C 1249.66666666667 1650 1221.33333333333 1662 1198 1686 C 1174 1709.33333333333 1162 1737.66666666667 1162 1771 C 1162 1804.33333333333 1174 1833 1198 1857 C 1221.33333333333 1880.33333333333 1249.66666666667 1892 1283 1892 C 1316.33333333333 1892 1345 1880.33333333333 1369 1857 Z"/>
    <path fill="#000000" stroke="none" transform="matrix(1 0 0 -1 40653 2689)" d="M 140 1462 L 1046 1462 L 1046 1317 L 300 1317 L 300 880 L 1046 880 L 1046 735 L 300 735 L 300 0 L 140 0 L 140 1462 Z"/>
    <path fill="#000000" stroke="none" transform="matrix(1 0 0 -1 41799 2689)" d="M 269 1462 L 494 990 L 1173 990 L 1398 1462 L 1570 1462 L 1570 1442 L 855 -15 L 815 -15 L 100 1442 L 100 1462 L 269 1462 Z M 1104 845 L 564 845 L 835 279 L 1104 845 Z"/>
    <path fill="#000000" stroke="none" transform="matrix(1 0 0 -1 43469 2689)" d="M 1357 -21 L 1337 -21 L 80 716 L 80 746 L 1337 1484 L 1357 1484 L 1357 1312 L 337 731 L 1357 151 L 1357 -21 Z"/>
    <path fill="#000000" stroke="none" transform="matrix(1 0 0 -1 44926 2689)" d="M 1016 842 C 1011.33333333333 996 998.33333333333 1104 977 1166 C 955 1227.33333333333 919.66666666667 1272 871 1300 C 821.66666666667 1328 749.33333333333 1342 654 1342 C 570 1342 502.66666666667 1326 452 1294 C 400.66666666667 1261.33333333333 362.66666666667 1212 338 1146 C 312.66666666667 1080 300 974.33333333333 300 829 L 300 0 L 140 0 L 140 774 C 140 935.33333333333 149.66666666667 1054.66666666667 169 1132 C 188.33333333333 1209.33333333333 216.66666666667 1273 254 1323 C 291.33333333333 1372.33333333333 342.66666666667 1412 408 1442 C 473.33333333333 1472 555.33333333333 1487 654 1487 C 783.33333333333 1487 886 1466 962 1424 C 1037.33333333333 1381.33333333333 1092 1316.33333333333 1126 1229 C 1159.33333333333 1141.66666666667 1176 1012.66666666667 1176 842 L 1016 842 Z M 744 1857 C 767.33333333333 1833 779 1804.33333333333 779 1771 C 779 1737.66666666667 767.33333333333 1709.33333333333 744 1686 C 720 1662 691.33333333333 1650 658 1650 C 624.66666666667 1650 596.33333333333 1662 573 1686 C 549 1709.33333333333 537 1737.66666666667 537 1771 C 537 1804.33333333333 549 1833 573 1857 C 596.33333333333 1880.33333333333 624.66666666667 1892 658 1892 C 691.33333333333 1892 720 1880.33333333333 744 1857 Z"/>
    <path fill="#000000" stroke="none" transform="matrix(1 0 0 -1 46222 2689)" d="M 640 1462 L 640 929 C 686 964.33333333333 734.33333333333 989.33333333333 785 1004 C 835 1018 891 1025 953 1025 C 1101 1025 1218 977 1304 881 C 1389.33333333333 785 1432 656.66666666667 1432 496 C 1432 330.66666666667 1391 202.66666666667 1309 112 C 1226.33333333333 20.66666666667 1108.66666666667 -25 956 -25 C 800.66666666667 -25 682.66666666667 21.33333333333 602 114 C 520.66666666667 206 480 342.33333333333 480 523 L 480 1462 L 640 1462 Z M 640 455 C 640 359.66666666667 669 280 727 216 C 785 152 860.33333333333 120 953 120 C 1054.33333333333 120 1133 152.66666666667 1189 218 C 1244.33333333333 283.33333333333 1272 373.33333333333 1272 488 C 1272 612.66666666667 1243.33333333333 709.33333333333 1186 778 C 1128 846 1044 880 934 880 C 851.33333333333 880 781.66666666667 849.33333333333 725 788 C 668.33333333333 726.66666666667 640 650.66666666667 640 560 L 640 455 Z M 86 661 C 62 684.33333333333 50 712.66666666667 50 746 C 50 779.33333333333 62 808 86 832 C 109.33333333333 855.33333333333 137.66666666667 867 171 867 C 204.33333333333 867 233 855.33333333333 257 832 C 280.33333333333 808 292 779.33333333333 292 746 C 292 712.66666666667 280.33333333333 684.33333333333 257 661 C 233 637 204.33333333333 625 171 625 C 137.66666666667 625 109.33333333333 637 86 661 Z"/>
</svg>
