<svg xmlns="http://www.w3.org/2000/svg" viewBox="0 0 36259 3789" transform="translate(0, 3789) scale(1, -1)">
<path d="M640,1204Q750,1174 820,1087Q890,1000 890,891Q890,784 820,696Q750,608 640,579L640,0L470,0L470,579Q361,608 291,696Q220,783 220,891Q220,997 290,1086Q359,1174 470,1204L470,1760L640,1760L640,1204ZM385,892Q385,822 436,773Q487,723 555,723Q625,723 675,773Q725,822 725,892Q725,963 675,1012Q625,1061 555,1061Q487,1061 436,1012Q385,963 385,892Z"  transform="translate(0, 1100)"/>
<path d="M160,881Q160,1011 259,1109Q358,1206 495,1206Q582,1206 660,1163Q738,1119 784,1043Q830,967 830,881Q830,795 784,720Q738,645 661,602Q583,558 495,558Q408,558 331,602Q253,645 207,721Q160,796 160,881ZM325,882Q325,812 376,763Q427,713 495,713Q565,713 615,763Q665,812 665,882Q665,953 615,1002Q565,1051 495,1051Q427,1051 376,1002Q325,953 325,882Z"  transform="translate(1110, 1100)"/>
<path d="M1160,1760L1160,1415Q1160,1238 1064,1138Q967,1037 775,1019L775,0L605,0L605,1020Q413,1038 317,1138Q220,1238 220,1415L220,1760L390,1760L390,1422Q390,1293 464,1232Q537,1171 690,1171Q844,1171 917,1232Q990,1292 990,1422L990,1760L1160,1760Z"  transform="translate(2100, 1100)"/>
<path d="M655,440L955,0L760,0L557,297L355,0L160,0L460,440L160,880L460,1320L160,1761L355,1761L557,1463L760,1761L955,1761L655,1320L955,880L655,440ZM557,1177L355,880L557,583L759,880L557,1177Z"  transform="translate(3480, 1100)"/>
<path d="M940,0L770,0L770,530L390,530L390,0L220,0L220,1760L390,1760L390,1280L770,1280L770,1760L940,1760L940,0ZM390,680L770,680L770,1130L390,1130L390,680Z"  transform="translate(4595, 1100)"/>
<path d=""  transform="translate(5755, 1100)"/>
<path d="M160,171L578,483L578,496L160,850L160,910L578,1264L578,1277L160,1589L160,1790L818,1301L818,1241L388,880L818,519L818,459L160,-30L160,171Z"  transform="translate(6287, 1100)"/>
<path d="M120,1465Q120,1595 219,1693Q318,1790 455,1790Q542,1790 620,1747Q698,1703 744,1627Q790,1551 790,1465Q790,1358 720,1270Q650,1182 540,1153L540,940L1090,940L1090,0L920,0L920,790L540,790L540,0L370,0L370,1153Q261,1182 191,1270Q120,1357 120,1465ZM285,1466Q285,1396 336,1347Q387,1297 455,1297Q525,1297 575,1347Q625,1396 625,1466Q625,1537 575,1586Q525,1635 455,1635Q387,1635 336,1586Q285,1537 285,1466Z"  transform="translate(7265, 1100)"/>
<path d="M660,1080L975,1760L1160,1760L753,879L1160,0L974,0L660,678L346,0L160,0L567,879L160,1760L345,1760L660,1080Z"  transform="translate(8575, 1100)"/>
<path d="M940,0L770,0L770,1610L390,1610L390,0L220,0L220,1760L940,1760L940,0Z"  transform="translate(9895, 1100)"/>
<path d="M390,1040L800,1040L800,0L630,0L630,890L220,890L220,1760L390,1760L390,1040Z"  transform="translate(11055, 1100)"/>
<path d="M940,0L770,0L770,850L390,850L390,0L220,0L220,1000L495,1000L495,1760L665,1760L665,1000L940,1000L940,0Z"  transform="translate(12075, 1100)"/>
<path d=""  transform="translate(13235, 1100)"/>
<path d="M758,0L588,0L588,699L175,413L120,413L120,1396L175,1396L588,1110L588,1760L758,1760L758,0ZM290,1124L290,685L588,900L588,913L290,1124Z"  transform="translate(13767, 1100)"/>
<path d="M1160,1760L1160,1415Q1160,1238 1064,1138Q967,1038 775,1020L775,650L1125,650L1125,0L955,0L955,500L605,500L605,1020Q413,1038 317,1138Q220,1238 220,1415L220,1760L390,1760L390,1422Q390,1293 464,1232Q537,1171 690,1171Q844,1171 917,1232Q990,1292 990,1422L990,1760L1160,1760Z"  transform="translate(14745, 1100)"/>
<path d="M775,1176Q876,1190 933,1248Q990,1305 990,1422L990,1760L1160,1760L1160,1415Q1160,1238 1064,1138Q967,1037 775,1019L775,0L605,0L605,1020Q413,1038 317,1138Q220,1238 220,1415L220,1760L390,1760L390,1422Q390,1305 447,1248Q504,1190 605,1176L605,1760L775,1760L775,1176Z"  transform="translate(16125, 1100)"/>
<path d="M160,873Q160,993 220,1090Q279,1186 389,1241Q498,1296 640,1296Q782,1296 893,1242Q1003,1187 1064,1090Q1124,993 1124,873Q1124,754 1063,658Q1002,561 892,508Q781,454 640,454Q499,454 390,508Q280,561 220,657Q160,753 160,873ZM325,874Q325,770 387,701Q448,631 557,613L557,1137Q445,1116 385,1046Q325,976 325,874ZM959,874Q959,977 899,1046Q838,1115 727,1136L727,613Q838,633 899,703Q959,772 959,874Z"  transform="translate(17505, 1100)"/>
<path d="M940,0L770,0L770,850L390,850L390,0L220,0L220,1000L495,1000L495,1273L220,1273L220,1760L390,1760L390,1423L665,1423L665,1000L940,1000L940,0Z"  transform="translate(18789, 1100)"/>
<path d="M120,1760L765,1760L765,0L595,0L595,1610L120,1610L120,1760Z"  transform="translate(19949, 1100)"/>
<path d=""  transform="translate(20934, 1100)"/>
<path d="M990,0L990,338Q990,553 775,583L775,0L605,0L605,583Q390,553 390,338L390,0L220,0L220,345Q220,522 317,622Q413,722 605,740L605,1153Q496,1182 426,1270Q355,1357 355,1465Q355,1595 454,1693Q553,1790 690,1790Q777,1790 855,1747Q933,1703 979,1627Q1025,1551 1025,1465Q1025,1358 955,1270Q885,1182 775,1153L775,740Q967,722 1064,622Q1160,522 1160,345L1160,0L990,0ZM520,1466Q520,1396 571,1347Q622,1297 690,1297Q760,1297 810,1347Q860,1396 860,1466Q860,1537 810,1586Q760,1635 690,1635Q622,1635 571,1586Q520,1537 520,1466Z"  transform="translate(21466, 1100)"/>
<path d="M100,1216L449,1760L1169,1760L1169,0L999,0L999,1610L619,1610L619,0L449,0L449,1463L243,1139L100,1216Z"  transform="translate(22846, 1100)"/>
<path d="M936,0L160,0L471,889L160,1761L936,1761L624,889L936,0ZM703,151L548,693L392,151L703,151ZM548,1126L700,1610L395,1610L548,1126Z"  transform="translate(24235, 1100)"/>
<path d="M940,0L770,0L770,850L390,850L390,0L220,0L220,1000L479,1760L644,1760L384,1000L940,1000L940,0Z"  transform="translate(25331, 1100)"/>
<path d="M674,0L609,0L160,880L609,1760L674,1760L1123,880L674,0ZM641,1466L354,880L641,294L929,880L641,1466Z"  transform="translate(26491, 1100)"/>
<path d="M1190,0L220,0L220,1760L1190,1760L1190,0ZM790,151L1020,151L1020,1610L790,1610L790,151ZM390,151L620,151L620,1610L390,1610L390,151Z"  transform="translate(27774, 1100)"/>
<path d=""  transform="translate(29184, 1100)"/>
<path d="M220,293Q220,399 290,488Q359,576 470,606L470,1153Q361,1182 291,1270Q220,1357 220,1465Q220,1595 319,1693Q418,1790 555,1790Q642,1790 720,1747Q798,1703 844,1627Q890,1551 890,1465Q890,1358 820,1270Q750,1182 640,1153L640,606Q750,576 820,489Q890,402 890,293Q890,207 844,132Q798,57 721,14Q643,-30 555,-30Q468,-30 391,14Q313,57 267,133Q220,208 220,293ZM385,294Q385,224 436,175Q487,125 555,125Q625,125 675,175Q725,224 725,294Q725,365 675,414Q625,463 555,463Q487,463 436,414Q385,365 385,294ZM385,1466Q385,1396 436,1347Q487,1297 555,1297Q625,1297 675,1347Q725,1396 725,1466Q725,1537 675,1586Q625,1635 555,1635Q487,1635 436,1586Q385,1537 385,1466Z"  transform="translate(29716, 1100)"/>
<path d="M220,1465Q220,1595 319,1693Q418,1790 555,1790Q642,1790 720,1747Q798,1703 844,1627Q890,1551 890,1465Q890,1358 820,1270Q750,1182 640,1153L640,0L470,0L470,1153Q361,1182 291,1270Q220,1357 220,1465ZM385,1466Q385,1396 436,1347Q487,1297 555,1297Q625,1297 675,1347Q725,1396 725,1466Q725,1537 675,1586Q625,1635 555,1635Q487,1635 436,1586Q385,1537 385,1466Z"  transform="translate(30826, 1100)"/>
<path d="M559,1518L175,1303L100,1437L729,1790L729,0L559,0L559,1518Z"  transform="translate(31936, 1100)"/>
<path d="M940,0L220,0L220,1760L940,1760L940,0ZM390,150L770,150L770,830L390,830L390,150ZM390,980L770,980L770,1610L390,1610L390,980Z"  transform="translate(32885, 1100)"/>
<path d="M968,-30L120,466L120,538L656,880L120,1222L120,1294L968,1790L968,-30ZM364,499L798,253L798,789L364,512L364,499ZM364,1248L798,970L798,1507L364,1261L364,1248Z"  transform="translate(34045, 1100)"/>
<path d="M160,1790Q352,1746 499,1616Q646,1486 726,1291Q806,1096 806,877Q806,663 725,466Q643,269 497,140Q350,10 160,-30L160,130Q300,177 406,284Q512,390 572,548Q631,706 631,877Q631,1051 572,1210Q513,1369 406,1478Q298,1586 160,1625L160,1790Z"  transform="translate(35233, 1100)"/>
</svg>
