<svg width="42431" height="3789" viewBox="0 0 42431 3789" xmlns="http://www.w3.org/2000/svg">
    <defs/>
    <path fill="#000000" stroke="none" transform="matrix(1 0 0 -1 0 2689)" d="M 1509 735 C 1509 609 1479.33333333333 494.33333333333 1420 391 C 1360 287.66666666667 1276.33333333333 206 1169 146 C 1061.66666666667 85.33333333333 947.66666666667 55 827 55 C 700.33333333333 55 584 85.33333333333 478 146 C 372 206.66666666667 289.66666666667 288.33333333333 231 391 C 172.33333333333 493.66666666667 143 609 143 737 C 143 861.66666666667 173.33333333333 976 234 1080 C 294.66666666667 1183.33333333333 378.33333333333 1264.33333333333 485 1323 C 591 1381.66666666667 705.66666666667 1411 829 1411 C 949.66666666667 1411 1062.66666666667 1381.66666666667 1168 1323 C 1273.33333333333 1264.33333333333 1356.66666666667 1183.33333333333 1418 1080 C 1478.66666666667 976.66666666667 1509 861.66666666667 1509 735 Z M 330 735 C 330 638.33333333333 351.66666666667 550.66666666667 395 472 C 438.33333333333 393.33333333333 498.33333333333 332 575 288 C 651 243.33333333333 735 221 827 221 C 919 221 1003 243 1079 287 C 1155 331 1214.33333333333 392.33333333333 1257 471 C 1299.66666666667 549 1321 637 1321 735 C 1321 831.66666666667 1299.66666666667 919.33333333333 1257 998 C 1213.66666666667 1076.66666666667 1154 1138 1078 1182 C 1002 1225.33333333333 919 1247 829 1247 C 737 1247 652.66666666667 1225 576 1181 C 498.66666666667 1136.33333333333 438.33333333333 1075 395 997 C 351.66666666667 918.33333333333 330 831 330 735 Z"/>
    <path fill="#000000" stroke="none" transform="matrix(1 0 0 -1 1653 2689)" d="M 240 0 L 240 1462 L 424 1462 L 424 0 L 240 0 Z"/>
    <path fill="#000000" stroke="none" transform="matrix(1 0 0 -1 2317 2689)" d="M 504 287 L 154 164 L 96 319 L 504 463 L 504 958 L 154 829 L 96 985 L 504 1128 L 504 1464 L 688 1464 L 688 1194 L 1044 1321 L 1102 1165 L 688 1022 L 688 526 L 1044 655 L 1102 500 L 688 352 L 688 0 L 504 0 L 504 287 Z"/>
    <path fill="#000000" stroke="none" transform="matrix(1 0 0 -1 3515 2689)" d="M 670 774 L 98 1247 L 217 1382 L 909 791 L 909 1462 L 1094 1462 L 1094 0 L 909 0 L 909 748 L 242 102 L 106 236 L 670 774 Z"/>
    <path fill="#000000" stroke="none" transform="matrix(1 0 0 -1 4848 2689)" d="M 643 1462 L 827 1462 L 827 686 L 1294 1235 L 1430 1120 L 827 444 L 827 0 L 643 0 L 643 444 L 27 1126 L 168 1243 L 643 686 L 643 1462 Z"/>
    <path fill="#000000" stroke="none" transform="matrix(1 0 0 -1 6304 2689)" d="M 979 1464 L 979 16 L 870 -16 C 618 57.33333333333 427.66666666667 141 299 235 C 170.33333333333 328.33333333333 106 429 106 537 C 106 625.66666666667 165.66666666667 715.66666666667 285 807 C 404.33333333333 898.33333333333 574.33333333333 985 795 1067 L 795 1464 L 979 1464 Z M 307 530 C 307 410.66666666667 469.66666666667 292 795 174 L 795 903 C 635 840.33333333333 513.66666666667 777.33333333333 431 714 C 348.33333333333 650.66666666667 307 589.33333333333 307 530 Z"/>
    <path fill="#000000" stroke="none" transform="matrix(1 0 0 -1 8055 2689)" d="M 240 1380 L 1399 1380 L 1399 82 L 240 82 L 240 1380 Z M 418 244 L 1221 244 L 1221 651 L 418 651 L 418 244 Z M 1221 813 L 1221 1219 L 418 1219 L 418 813 L 1221 813 Z"/>
    <path fill="#000000" stroke="none" transform="matrix(1 0 0 -1 9693 2689)" d="M 1184 1432 L 1358 1370 L 770 100 L 594 100 L 27 1370 L 201 1432 L 682 317 L 1184 1432 Z M 584 1321 C 584 1361 594.33333333333 1390.33333333333 615 1409 C 635 1427 660 1436 690 1436 C 722.66666666667 1436 748.33333333333 1425.66666666667 767 1405 C 785.66666666667 1383.66666666667 795 1355.66666666667 795 1321 C 795 1285 785.33333333333 1257 766 1237 C 746.66666666667 1216.33333333333 721.33333333333 1206 690 1206 C 660 1206 635 1215.33333333333 615 1234 C 594.33333333333 1252.66666666667 584 1281.66666666667 584 1321 Z"/>
    <path fill="#000000" stroke="none" transform="matrix(1 0 0 -1 11077 2689)" d="M 549 868 L 47 1016 L 100 1180 L 549 1051 L 549 1464 L 733 1464 L 733 999 L 1237 858 L 1184 696 L 733 823 L 733 0 L 549 0 L 549 868 Z"/>
    <path fill="#000000" stroke="none" transform="matrix(1 0 0 -1 12361 2689)" d="M 240 1380 L 1522 1380 L 1522 82 L 240 82 L 240 1380 Z M 967 653 L 967 240 L 1350 240 L 1350 653 L 967 653 Z M 412 240 L 795 240 L 795 653 L 412 653 L 412 240 Z M 795 811 L 795 1223 L 412 1223 L 412 811 L 795 811 Z M 967 1223 L 967 811 L 1350 811 L 1350 1223 L 967 1223 Z"/>
    <path fill="#000000" stroke="none" transform="matrix(1 0 0 -1 14122 2689)" d="M 1067 0 L 459 741 C 424.33333333333 676.33333333333 390 587.33333333333 356 474 C 322 360 282.66666666667 197.33333333333 238 -14 L 55 14 C 113 282.66666666667 166.66666666667 484 216 618 C 264.66666666667 751.33333333333 323.33333333333 862.33333333333 392 951 C 460.66666666667 1039.66666666667 550.66666666667 1123.33333333333 662 1202 C 772.66666666667 1280.66666666667 928.66666666667 1370 1130 1470 L 1231 1440 L 1231 0 L 1067 0 Z M 1049 1245 C 908.33333333333 1163.66666666667 804.33333333333 1097.66666666667 737 1047 C 669 995.66666666667 613 945 569 895 L 1049 291 L 1049 1245 Z"/>
    <path fill="#000000" stroke="none" transform="matrix(1 0 0 -1 15592 2689)" d="M 1157 1081 C 1157 1011.66666666667 1133.66666666667 946.66666666667 1087 886 C 1040.33333333333 824.66666666667 975.66666666667 775.66666666667 893 739 C 991 703.66666666667 1064 655.66666666667 1112 595 C 1160 534.33333333333 1184 463.66666666667 1184 383 C 1184 308.33333333333 1162 240.33333333333 1118 179 C 1074 117 1013 68.33333333333 935 33 C 856.33333333333 -2.33333333333 768.66666666667 -20 672 -20 C 574 -20 485.33333333333 -3 406 31 C 326 65 264 112.33333333333 220 173 C 176 233.66666666667 154 301.66666666667 154 377 C 154 455 178 525.33333333333 226 588 C 274 650 344.66666666667 699 438 735 C 359.33333333333 763.66666666667 296 809.33333333333 248 872 C 200 934.66666666667 176 1001 176 1071 C 176 1143.66666666667 198 1212 242 1276 C 286 1340 345.66666666667 1390.66666666667 421 1428 C 496.33333333333 1464.66666666667 578.66666666667 1483 668 1483 C 760.66666666667 1483 844.33333333333 1465.33333333333 919 1430 C 993 1394.66666666667 1051.33333333333 1345.66666666667 1094 1283 C 1136 1220.33333333333 1157 1153 1157 1081 Z M 340 391 C 340 319.66666666667 372 259.66666666667 436 211 C 499.33333333333 161.66666666667 576.66666666667 137 668 137 C 762 137 840.33333333333 162.33333333333 903 213 C 965.66666666667 263.66666666667 997 330 997 412 C 997 481.33333333333 964.66666666667 540 900 588 C 834.66666666667 635.33333333333 757 659 667 659 C 574.33333333333 659 496.66666666667 633.66666666667 434 583 C 371.33333333333 532.33333333333 340 468.33333333333 340 391 Z M 664 1321 C 609.33333333333 1321 559.33333333333 1309.33333333333 514 1286 C 468 1262.66666666667 432 1231 406 1191 C 380 1151 367 1109 367 1065 C 367 995.66666666667 397 936.66666666667 457 888 C 517 839.33333333333 588.66666666667 815 672 815 C 753.33333333333 815 822.66666666667 839 880 887 C 936.66666666667 934.33333333333 965 993.66666666667 965 1065 C 965 1109.66666666667 952 1152 926 1192 C 899.33333333333 1231.33333333333 863 1262.66666666667 817 1286 C 771 1309.33333333333 720 1321 664 1321 Z"/>
    <path fill="#000000" stroke="none" transform="matrix(1 0 0 -1 17461 2689)" d="M 899 0 L 899 1296 C 802.33333333333 1268.66666666667 714.66666666667 1236.66666666667 636 1200 C 557.33333333333 1163.33333333333 495 1126 449 1088 C 402.33333333333 1049.33333333333 379 1016.33333333333 379 989 C 379 901.66666666667 497 790.33333333333 733 655 L 733 569 L 236 90 L 106 215 L 510 598 C 390.66666666667 679.33333333333 305.33333333333 749.33333333333 254 808 C 202 866.66666666667 176 924.33333333333 176 981 C 176 1037.66666666667 208.66666666667 1096.66666666667 274 1158 C 338.66666666667 1218.66666666667 432 1277.33333333333 554 1334 C 675.33333333333 1390 817 1439 979 1481 L 1083 1450 L 1083 0 L 899 0 Z"/>
    <path fill="#000000" stroke="none" transform="matrix(1 0 0 -1 18784 2689)" d="M 1044 16 L 930 -33 C 772 -3.66666666667 633.66666666667 32 515 74 C 396.33333333333 116 304.66666666667 161 240 209 C 175.33333333333 257 143 303.33333333333 143 348 C 143 410.66666666667 178.33333333333 474 249 538 C 319 602 432 672 588 748 C 433.33333333333 818.66666666667 325.33333333333 878.66666666667 264 928 C 202.66666666667 977.33333333333 172 1025.66666666667 172 1073 C 172 1122.33333333333 204.33333333333 1173.66666666667 269 1227 C 333.66666666667 1279.66666666667 424.66666666667 1329.33333333333 542 1376 C 658.66666666667 1422.66666666667 790 1461 936 1491 L 1044 1448 L 1044 16 Z M 860 1313 C 727.33333333333 1279.66666666667 614.33333333333 1240.66666666667 521 1196 C 427.66666666667 1150.66666666667 381 1109.66666666667 381 1073 C 381 1041 426.33333333333 998.66666666667 517 946 C 607 892.66666666667 721.33333333333 837.33333333333 860 780 L 860 1313 Z M 860 717 C 707.33333333333 649 585.66666666667 584.66666666667 495 524 C 403.66666666667 462.66666666667 358 413 358 375 C 358 347.66666666667 403 313.33333333333 493 272 C 583 230 705.33333333333 190.66666666667 860 154 L 860 717 Z"/>
    <path fill="#000000" stroke="none" transform="matrix(1 0 0 -1 20068 2689)" d="M 113 731 C 113 802.33333333333 152 883.33333333333 230 974 C 308 1064.66666666667 416.66666666667 1154.33333333333 556 1243 C 694.66666666667 1331.66666666667 854.66666666667 1411.66666666667 1036 1483 L 1145 1458 L 1145 25 L 1040 -12 C 866.66666666667 55.33333333333 721 124.66666666667 603 196 C 484.33333333333 266.66666666667 388.66666666667 335.33333333333 316 402 C 243.33333333333 468 191.33333333333 529.66666666667 160 587 C 128.66666666667 643.66666666667 113 691.66666666667 113 731 Z M 961 1266 C 849.66666666667 1223.33333333333 744 1169.66666666667 644 1105 C 543.33333333333 1039.66666666667 463.33333333333 973 404 905 C 344.66666666667 837 315 779 315 731 C 315 685.66666666667 341.66666666667 631.66666666667 395 569 C 448.33333333333 506.33333333333 523.33333333333 443 620 379 C 716.66666666667 315 830.33333333333 256.33333333333 961 203 L 961 1266 Z"/>
    <path fill="#000000" stroke="none" transform="matrix(1 0 0 -1 21452 2689)" d="M 170 358 L 96 520 L 739 788 L 739 1253 L 199 1016 L 123 1178 L 850 1485 L 924 1460 L 924 0 L 739 0 L 739 604 L 170 358 Z"/>
    <path fill="#000000" stroke="none" transform="matrix(1 0 0 -1 22615 2689)" d="M 922 1462 L 922 14 L 838 -20 L 76 299 L 160 463 L 737 205 L 737 1462 L 922 1462 Z"/>
    <path fill="#000000" stroke="none" transform="matrix(1 0 0 -1 23776 2689)" d="M 238 1511 C 440.66666666667 1449 601.33333333333 1378.66666666667 720 1300 C 838 1220.66666666667 897 1143.66666666667 897 1069 C 897 1017 874.33333333333 961 829 901 C 783 841 714.66666666667 775 624 703 C 520 620.33333333333 448.33333333333 557.33333333333 409 514 C 369.66666666667 470.66666666667 350 433 350 401 C 350 377 373.66666666667 346.33333333333 421 309 C 467.66666666667 271 530.33333333333 233.33333333333 609 196 C 687 158 778.33333333333 122 883 88 L 817 -72 C 590.33333333333 8.66666666667 424 87 318 163 C 211.33333333333 238.33333333333 158 315 158 393 C 158 444.33333333333 179.66666666667 499.66666666667 223 559 C 266.33333333333 618.33333333333 334 686.66666666667 426 764 C 538.66666666667 857.33333333333 611.66666666667 922.66666666667 645 960 C 677.66666666667 997.33333333333 694 1030.33333333333 694 1059 C 694 1097.66666666667 643.33333333333 1145 542 1201 C 440.66666666667 1257 317.33333333333 1308 172 1354 L 238 1511 Z"/>
    <path fill="#000000" stroke="none" transform="matrix(1 0 0 -1 25352 2689)" d="M 766 1423 C 892.66666666667 1423 1004 1399.33333333333 1100 1352 C 1195.33333333333 1304.66666666667 1268.33333333333 1239 1319 1155 C 1369.66666666667 1071 1395 976.66666666667 1395 872 C 1395 777.33333333333 1372.33333333333 689.33333333333 1327 608 C 1281.66666666667 526.66666666667 1218.33333333333 460.66666666667 1137 410 C 1055.66666666667 359.33333333333 962 329 856 319 L 856 -102 L 680 -102 L 680 319 C 569.33333333333 328.33333333333 473 358.33333333333 391 409 C 308.33333333333 459.66666666667 244.66666666667 525.66666666667 200 607 C 155.33333333333 688.33333333333 133 776.66666666667 133 872 C 133 977.33333333333 160.33333333333 1072 215 1156 C 269 1240 344.66666666667 1305.66666666667 442 1353 C 539.33333333333 1399.66666666667 647.33333333333 1423 766 1423 Z M 322 872 C 322 763.33333333333 354.33333333333 673.33333333333 419 602 C 483.66666666667 530 570.66666666667 486.33333333333 680 471 L 680 1266 C 570 1253.33333333333 483 1211.66666666667 419 1141 C 354.33333333333 1070.33333333333 322 980.66666666667 322 872 Z M 1208 872 C 1208 980 1175.66666666667 1069 1111 1139 C 1046.33333333333 1208.33333333333 961.33333333333 1250 856 1264 L 856 471 C 962.66666666667 486.33333333333 1048 530.33333333333 1112 603 C 1176 675 1208 764.66666666667 1208 872 Z"/>
    <path fill="#000000" stroke="none" transform="matrix(1 0 0 -1 26880 2689)" d="M 752 492 L 457 1176 L 252 641 L 82 696 L 371 1421 L 541 1421 L 831 731 L 1159 1421 L 1343 1421 L 1651 16 L 1470 -23 L 1214 1161 L 901 492 L 752 492 Z"/>
    <path fill="#000000" stroke="none" transform="matrix(1 0 0 -1 28649 2689)" d="M 795 0 L 795 375 C 561.66666666667 457.66666666667 388.66666666667 543.66666666667 276 633 C 162.66666666667 721.66666666667 106 818.66666666667 106 924 C 106 1016.66666666667 173 1112.33333333333 307 1211 C 441 1309 628.66666666667 1399 870 1481 L 979 1442 L 979 0 L 795 0 Z M 307 918 C 307 798.66666666667 469.66666666667 676.33333333333 795 551 L 795 1290 C 641.66666666667 1230.66666666667 522 1168.66666666667 436 1104 C 350 1039.33333333333 307 977.33333333333 307 918 Z"/>
    <path fill="#000000" stroke="none" transform="matrix(1 0 0 -1 29868 2689)" d="M 1184 1411 L 1358 1350 L 770 80 L 594 80 L 27 1350 L 201 1411 L 682 297 L 1184 1411 Z"/>
    <path fill="#000000" stroke="none" transform="matrix(1 0 0 -1 31252 2689)" d="M 82 1382 L 258 1440 L 514 727 L 911 1421 L 1085 1421 L 1372 20 L 1190 -20 L 950 1159 L 567 492 L 410 492 L 82 1382 Z"/>
    <path fill="#000000" stroke="none" transform="matrix(1 0 0 -1 32743 2689)" d="M 821 66 C 694.33333333333 66 579 95.33333333333 475 154 C 370.33333333333 212.66666666667 289 294 231 398 C 172.33333333333 501.33333333333 143 615.66666666667 143 741 C 143 871.66666666667 172.33333333333 988 231 1090 C 289.66666666667 1191.33333333333 371 1269.66666666667 475 1325 C 579 1379.66666666667 695.66666666667 1407 825 1407 C 949.66666666667 1407 1064.66666666667 1379 1170 1323 C 1274.66666666667 1266.33333333333 1356.66666666667 1187.33333333333 1416 1086 C 1475.33333333333 984.66666666667 1505 869.66666666667 1505 741 C 1505 615 1476 500.33333333333 1418 397 C 1359.33333333333 293 1277.33333333333 212 1172 154 C 1066.66666666667 95.33333333333 949.66666666667 66 821 66 Z M 1335 741 C 1335 871 1299.66666666667 983 1229 1077 L 922 745 L 1233 410 C 1301 499.33333333333 1335 609.66666666667 1335 741 Z M 313 741 C 313 615 345.33333333333 505.33333333333 410 412 L 713 745 L 414 1073 C 346.66666666667 981.66666666667 313 871 313 741 Z M 524 307 C 606 249.66666666667 705.66666666667 221 823 221 C 936.33333333333 221 1034 248.33333333333 1116 303 L 821 631 L 524 307 Z M 821 860 L 1110 1178 C 1028 1229.33333333333 931.66666666667 1255 821 1255 C 709 1255 612 1228.66666666667 530 1176 L 821 860 Z"/>
    <path fill="#000000" stroke="none" transform="matrix(1 0 0 -1 34928 2689)" d="M 862 1481 L 938 1456 L 938 0 L 754 0 L 754 279 L 164 -25 L 84 125 L 754 463 L 754 774 L 199 537 L 133 688 L 754 948 L 754 1272 L 205 1061 L 143 1217 L 862 1481 Z"/>
    <path fill="#000000" stroke="none" transform="matrix(1 0 0 -1 36106 2689)" d="M 424 809 L 915 809 L 915 647 L 424 647 L 424 0 L 240 0 L 240 1462 L 424 1462 L 424 809 Z"/>
    <path fill="#000000" stroke="none" transform="matrix(1 0 0 -1 37114 2689)" d="M 1112 1401 L 1112 0 L 928 0 L 928 1237 L 344 1237 L 344 748 L 160 748 L 160 1401 L 1112 1401 Z"/>
    <path fill="#000000" stroke="none" transform="matrix(1 0 0 -1 38466 2689)" d="M 164 1499 C 318 1447.66666666667 455 1381 575 1299 C 694.33333333333 1216.33333333333 787.33333333333 1126.33333333333 854 1029 C 920.66666666667 931.66666666667 954 838 954 748 C 954 660 919.33333333333 565 850 463 C 780 360.33333333333 684.33333333333 264.33333333333 563 175 C 441 85.66666666667 305.33333333333 12.33333333333 156 -45 L 78 109 C 209.33333333333 161.66666666667 326 225.33333333333 428 300 C 530 374.66666666667 610 451.66666666667 668 531 C 725.33333333333 610.33333333333 754 680.33333333333 754 741 C 754 775.66666666667 742 818.33333333333 718 869 C 693.33333333333 919.66666666667 654.33333333333 972.66666666667 601 1028 C 547 1082.66666666667 477.66666666667 1137.66666666667 393 1193 C 307.66666666667 1247.66666666667 204 1297 82 1341 L 164 1499 Z"/>
    <path fill="#000000" stroke="none" transform="matrix(1 0 0 -1 39541 2689)" d="M 1245 123 L 1077 41 L 649 625 L 215 41 L 61 123 L 545 752 L 92 1339 L 256 1421 L 655 879 L 1057 1421 L 1210 1339 L 760 756 L 1245 123 Z"/>
    <path fill="#000000" stroke="none" transform="matrix(1 0 0 -1 40848 2689)" d="M 784 858 L 395 1196 L 395 0 L 225 0 L 225 1454 L 322 1475 L 786 1075 L 1262 1475 L 1358 1454 L 1358 0 L 1176 0 L 1176 1196 L 784 858 Z"/>
</svg>
