<svg width="40190" height="3789" viewBox="0 0 40190 3789" xmlns="http://www.w3.org/2000/svg">
    <defs/>
    <path fill="#000000" stroke="none" transform="matrix(1 0 0 -1 0 2689)" d="M 31 731 L 782 1483 L 1534 731 L 1413 610 L 782 1241 L 152 610 L 31 731 Z"/>
    <path fill="#000000" stroke="none" transform="matrix(1 0 0 -1 1565 2689)" d="M 205 0 L 205 1401 L 328 1481 C 767.33333333333 1325.66666666667 987 1140 987 924 C 987 821.33333333333 938 725.66666666667 840 637 C 742 547.66666666667 591.66666666667 460.33333333333 389 375 L 389 0 L 205 0 Z M 803 915 C 803 979 767.33333333333 1042.66666666667 696 1106 C 624 1169.33333333333 521.66666666667 1230 389 1288 L 389 549 C 665 671 803 793 803 915 Z"/>
    <path fill="#000000" stroke="none" transform="matrix(1 0 0 -1 2655 2689)" d="M 698 1462 C 747.33333333333 1320 817 1214.33333333333 907 1145 C 997 1075 1106.33333333333 1036.66666666667 1235 1030 L 1235 862 C 1003 875.33333333333 833 953.33333333333 725 1096 L 725 0 L 541 0 L 541 1096 C 429.66666666667 953.33333333333 259.66666666667 875.33333333333 31 862 L 31 1030 C 297 1043.33333333333 475.66666666667 1187.33333333333 567 1462 L 698 1462 Z"/>
    <path fill="#000000" stroke="none" transform="matrix(1 0 0 -1 3921 2689)" d="M 774 211 L 1200 516 L 1305 367 L 774 0 L 590 0 L 590 1253 L 141 932 L 41 1075 L 590 1462 L 774 1462 L 774 211 Z"/>
    <path fill="#000000" stroke="none" transform="matrix(1 0 0 -1 5267 2689)" d="M 541 1022 L 367 1229 L 160 1024 L 31 1147 L 367 1483 L 633 1180 L 899 1483 L 1235 1147 L 1106 1024 L 899 1229 L 725 1022 L 725 0 L 541 0 L 541 1022 Z"/>
    <path fill="#000000" stroke="none" transform="matrix(1 0 0 -1 6533 2689)" d="M 1063 840 C 1009.66666666667 709.33333333333 983 576 983 440 C 983 289.33333333333 1028 142.66666666667 1118 0 L 924 0 C 882 76.66666666667 851.66666666667 149.66666666667 833 219 C 814.33333333333 288.33333333333 805 358.66666666667 805 430 C 805 532 816.66666666667 616 840 682 L 389 420 L 389 0 L 205 0 L 205 1462 L 389 1462 L 389 608 L 952 932 L 1063 840 Z"/>
    <path fill="#000000" stroke="none" transform="matrix(1 0 0 -1 8306 2689)" d="M 1286 1239 C 1358 1174.33333333333 1413.33333333333 1099 1452 1013 C 1490 926.33333333333 1509 833.66666666667 1509 735 C 1509 609 1479.33333333333 494.33333333333 1420 391 C 1360 287.66666666667 1276.33333333333 206 1169 146 C 1061.66666666667 85.33333333333 947.66666666667 55 827 55 C 700.33333333333 55 584 85.33333333333 478 146 C 372 206.66666666667 289.66666666667 288.33333333333 231 391 C 172.33333333333 493.66666666667 143 609 143 737 C 143 837.66666666667 162.66666666667 931.66666666667 202 1019 C 241.33333333333 1106.33333333333 298.33333333333 1181.66666666667 373 1245 L 496 1124 C 444 1078.66666666667 403.33333333333 1023 374 957 C 344.66666666667 890.33333333333 330 816.33333333333 330 735 C 330 638.33333333333 351.66666666667 550.66666666667 395 472 C 438.33333333333 393.33333333333 498.33333333333 332 575 288 C 651 243.33333333333 735 221 827 221 C 919 221 1003 243 1079 287 C 1155 331 1214.33333333333 392.33333333333 1257 471 C 1299.66666666667 549 1321 637 1321 735 C 1321 813.66666666667 1307.33333333333 885.33333333333 1280 950 C 1252.66666666667 1014 1215 1068.66666666667 1167 1114 L 1286 1239 Z M 723 549 C 723 585.66666666667 733.66666666667 612.66666666667 755 630 C 776.33333333333 646.66666666667 802.66666666667 655 834 655 C 867.33333333333 655 893.66666666667 645.66666666667 913 627 C 932.33333333333 607.66666666667 942 581.66666666667 942 549 C 942 515.66666666667 932 489.66666666667 912 471 C 891.33333333333 451.66666666667 865.33333333333 442 834 442 C 802.66666666667 442 776.33333333333 450.66666666667 755 468 C 733.66666666667 484.66666666667 723 511.66666666667 723 549 Z M 555 840 C 555 876.66666666667 565.66666666667 903.66666666667 587 921 C 608.33333333333 937.66666666667 634 946 664 946 C 696 946 722 936.33333333333 742 917 C 762 897.66666666667 772 872 772 840 C 772 807.33333333333 762.33333333333 781 743 761 C 723 741 696.66666666667 731 664 731 C 634 731 608.33333333333 740 587 758 C 565.66666666667 775.33333333333 555 802.66666666667 555 840 Z M 893 850 C 893 886.66666666667 903.66666666667 913.66666666667 925 931 C 946.33333333333 947.66666666667 972.66666666667 956 1004 956 C 1037.33333333333 956 1063.33333333333 946.33333333333 1082 927 C 1100.66666666667 907 1110 881.33333333333 1110 850 C 1110 818.66666666667 1100.66666666667 793 1082 773 C 1062.66666666667 753 1036.66666666667 743 1004 743 C 972.66666666667 743 946.33333333333 752 925 770 C 903.66666666667 787.33333333333 893 814 893 850 Z"/>
    <path fill="#000000" stroke="none" transform="matrix(1 0 0 -1 9959 2689)" d="M 2 1419 L 176 1481 L 520 524 C 565.33333333333 396 596.66666666667 289.66666666667 614 205 C 628.66666666667 280.33333333333 660.33333333333 388 709 528 L 1049 1481 L 1225 1419 L 707 0 L 522 0 L 2 1419 Z"/>
    <path fill="#000000" stroke="none" transform="matrix(1 0 0 -1 11188 2689)" d="M 535 0 L 535 231 C 535 295 547.33333333333 348 572 390 C 596.66666666667 432 641 479.33333333333 705 532 C 789 602.66666666667 849.33333333333 672 886 740 C 922 808 940 882.33333333333 940 963 C 940 1069.66666666667 910.66666666667 1154.66666666667 852 1218 C 793.33333333333 1281.33333333333 713.33333333333 1313 612 1313 C 512.66666666667 1313 433.66666666667 1282 375 1220 C 316.33333333333 1157.33333333333 287 1075 287 973 C 287 915.66666666667 295 859 311 803 C 326.33333333333 746.33333333333 346.33333333333 698.33333333333 371 659 L 184 659 C 158.66666666667 694.33333333333 138.66666666667 738.66666666667 124 792 C 109.33333333333 844.66666666667 102 903 102 967 C 102 1123 150.33333333333 1248 247 1342 C 343 1436 471.66666666667 1483 633 1483 C 727.66666666667 1483 812.66666666667 1461.33333333333 888 1418 C 963.33333333333 1374 1021.66666666667 1314.33333333333 1063 1239 C 1103.66666666667 1163.66666666667 1124 1082.33333333333 1124 995 C 1124 912.33333333333 1113 837 1091 769 C 1068.33333333333 701 1035.66666666667 638 993 580 C 949.66666666667 522 887.66666666667 459.66666666667 807 393 C 773 364.33333333333 750 337.33333333333 738 312 C 725.33333333333 286.66666666667 719 259 719 229 L 719 0 L 535 0 Z"/>
    <path fill="#000000" stroke="none" transform="matrix(1 0 0 -1 12415 2689)" d="M 512 934 C 396 998 309 1067.66666666667 251 1143 C 193 1217.66666666667 164 1300.33333333333 164 1391 L 164 1462 L 348 1462 L 348 1403 C 348 1325 380.33333333333 1252 445 1184 C 509 1116 622.66666666667 1036.66666666667 786 946 L 489 731 L 786 516 C 622.66666666667 425.33333333333 509 346 445 278 C 380.33333333333 209.33333333333 348 136.33333333333 348 59 L 348 0 L 164 0 L 164 72 C 164 163.33333333333 193 246 251 320 C 309 394 396 463.33333333333 512 528 L 238 731 L 512 934 Z"/>
    <path fill="#000000" stroke="none" transform="matrix(1 0 0 -1 13253 2689)" d="M 178 623 C 231.33333333333 752.33333333333 258 885.33333333333 258 1022 C 258 1172.66666666667 213 1319.33333333333 123 1462 L 317 1462 C 353 1396.66666666667 382 1329.33333333333 404 1260 C 425.33333333333 1190.66666666667 436 1114.66666666667 436 1032 C 436 930 424.33333333333 846 401 780 L 852 1042 L 852 1462 L 1036 1462 L 1036 0 L 852 0 L 852 854 L 289 530 L 178 623 Z"/>
    <path fill="#000000" stroke="none" transform="matrix(1 0 0 -1 14494 2689)" d="M 1534 731 L 782 -20 L 31 731 L 782 1483 L 1534 731 Z M 782 1241 L 272 731 L 782 221 L 1292 731 L 782 1241 Z M 676 731 C 676 771 686.33333333333 800.33333333333 707 819 C 727 837 752 846 782 846 C 810 846 834.66666666667 837 856 819 C 876.66666666667 800.33333333333 887 771 887 731 C 887 691.66666666667 876.66666666667 662.66666666667 856 644 C 834.66666666667 625.33333333333 810 616 782 616 C 752 616 727 625.33333333333 707 644 C 686.33333333333 662.66666666667 676 691.66666666667 676 731 Z"/>
    <path fill="#000000" stroke="none" transform="matrix(1 0 0 -1 16591 2689)" d="M 928 1171 C 874.66666666667 1171 830.33333333333 1156 795 1126 C 759 1096 727 1048.66666666667 699 984 C 670.33333333333 918.66666666667 643.33333333333 829 618 715 C 652.66666666667 689 688.33333333333 662 725 634 C 761 606 793.66666666667 574.66666666667 823 540 C 851.66666666667 504.66666666667 875.33333333333 465 894 421 C 912.66666666667 376.33333333333 922 324.66666666667 922 266 C 922 224.66666666667 915.66666666667 180.33333333333 903 133 C 889.66666666667 85.66666666667 872 41.33333333333 850 0 L 666 0 C 714.66666666667 90 739 172.66666666667 739 248 C 739 303.33333333333 722.66666666667 355.66666666667 690 405 C 656.66666666667 453.66666666667 604.66666666667 503 534 553 L 416 635 C 327.33333333333 696.33333333333 262.33333333333 750.33333333333 221 797 C 179.66666666667 843 148 893 126 947 C 103.33333333333 1001 92 1061.33333333333 92 1128 C 92 1206.66666666667 110.66666666667 1276.66666666667 148 1338 C 184.66666666667 1399.33333333333 236.33333333333 1447.66666666667 303 1483 L 403 1354 L 375 1332 C 347 1311.33333333333 324 1283 306 1247 C 288 1211 279 1170 279 1124 C 279 1066.66666666667 293.66666666667 1013 323 963 C 351.66666666667 913 400.33333333333 861.66666666667 469 809 C 509 999 565.33333333333 1137.66666666667 638 1225 C 710 1312.33333333333 805 1356 923 1356 L 928 1356 L 928 1171 Z"/>
    <path fill="#000000" stroke="none" transform="matrix(1 0 0 -1 17662 2689)" d="M 1323 0 L 1139 0 L 1139 1204 L 369 391 L 184 391 L 184 1462 L 369 1462 L 369 657 L 1139 1462 L 1323 1462 L 1323 0 Z"/>
    <path fill="#000000" stroke="none" transform="matrix(1 0 0 -1 19190 2689)" d="M 31 731 L 782 1483 L 1534 731 L 782 -20 L 662 100 L 1292 731 L 782 1241 L 152 610 L 31 731 Z"/>
    <path fill="#000000" stroke="none" transform="matrix(1 0 0 -1 20755 2689)" d="M 1087 739 C 1087 599 1020.66666666667 462.66666666667 888 330 C 754.66666666667 196.66666666667 571.33333333333 82.66666666667 338 -12 L 205 47 L 205 1417 L 334 1483 C 592.66666666667 1378.33333333333 783 1264.66666666667 905 1142 C 1026.33333333333 1018.66666666667 1087 884.33333333333 1087 739 Z M 389 195 C 489 238.33333333333 579.66666666667 291 661 353 C 741.66666666667 415 802.33333333333 478.66666666667 843 544 C 883 608.66666666667 903 672.33333333333 903 735 C 903 835.66666666667 859 932 771 1024 C 683 1115.33333333333 555.66666666667 1198.66666666667 389 1274 L 389 195 Z"/>
    <path fill="#000000" stroke="none" transform="matrix(1 0 0 -1 21945 2689)" d="M 205 1417 L 334 1483 C 542.66666666667 1427.66666666667 698 1366 800 1298 C 901.33333333333 1229.33333333333 952 1152.33333333333 952 1067 C 952 997 928.33333333333 935.66666666667 881 883 C 833 829.66666666667 757 777.66666666667 653 727 C 746.33333333333 692.33333333333 819.66666666667 647.66666666667 873 593 C 925.66666666667 537.66666666667 952 479.33333333333 952 418 C 952 326.66666666667 899.66666666667 244.66666666667 795 172 C 689.66666666667 98.66666666667 537.33333333333 37.33333333333 338 -12 L 205 47 L 205 1417 Z M 389 160 C 506.33333333333 193.33333333333 599 233 667 279 C 734.33333333333 324.33333333333 768 368 768 410 C 768 452.66666666667 736.66666666667 499 674 549 C 610.66666666667 598.33333333333 515.66666666667 646 389 692 L 389 160 Z M 389 756 C 529 812 627.33333333333 861.66666666667 684 905 C 740 948.33333333333 768 994 768 1042 C 768 1088.66666666667 735.33333333333 1133.33333333333 670 1176 C 604.66666666667 1218.66666666667 511 1256.66666666667 389 1290 L 389 756 Z"/>
    <path fill="#000000" stroke="none" transform="matrix(1 0 0 -1 23000 2689)" d="M 592 465 L 262 0 L 113 92 L 489 614 L -70 1462 L 154 1462 L 1047 92 L 897 0 L 592 465 Z"/>
    <path fill="#000000" stroke="none" transform="matrix(1 0 0 -1 24679 2689)" d="M 1468 735 C 1468 609 1438.33333333333 494.33333333333 1379 391 C 1319 287.66666666667 1235.33333333333 206 1128 146 C 1020.66666666667 85.33333333333 906.66666666667 55 786 55 C 659.33333333333 55 543 85.33333333333 437 146 C 331 206.66666666667 248.66666666667 288.33333333333 190 391 C 131.33333333333 493.66666666667 102 609 102 737 C 102 861.66666666667 132.33333333333 976 193 1080 C 253.66666666667 1183.33333333333 337.33333333333 1264.33333333333 444 1323 C 550 1381.66666666667 664.66666666667 1411 788 1411 C 908.66666666667 1411 1021.66666666667 1381.66666666667 1127 1323 C 1232.33333333333 1264.33333333333 1315.66666666667 1183.33333333333 1377 1080 C 1437.66666666667 976.66666666667 1468 861.66666666667 1468 735 Z M 289 735 C 289 638.33333333333 310.66666666667 550.66666666667 354 472 C 397.33333333333 393.33333333333 457.33333333333 332 534 288 C 610 243.33333333333 694 221 786 221 C 878 221 962 243 1038 287 C 1114 331 1173.33333333333 392.33333333333 1216 471 C 1258.66666666667 549 1280 637 1280 735 C 1280 831.66666666667 1258.66666666667 919.33333333333 1216 998 C 1172.66666666667 1076.66666666667 1113 1138 1037 1182 C 961 1225.33333333333 878 1247 788 1247 C 696 1247 611.66666666667 1225 535 1181 C 457.66666666667 1136.33333333333 397.33333333333 1075 354 997 C 310.66666666667 918.33333333333 289 831 289 735 Z"/>
    <path fill="#000000" stroke="none" transform="matrix(1 0 0 -1 26250 2689)" d="M 152 1057 L 557 672 L 842 977 L 436 1362 L 557 1483 L 1083 977 L 649 522 L 649 0 L 465 0 L 465 522 L 31 936 L 152 1057 Z"/>
    <path fill="#000000" stroke="none" transform="matrix(1 0 0 -1 27364 2689)" d="M 952 530 L 389 854 L 389 0 L 205 0 L 205 1462 L 389 1462 L 389 1042 L 840 780 C 816.66666666667 846 805 930 805 1032 C 805 1114.66666666667 816 1190.66666666667 838 1260 C 859.33333333333 1329.33333333333 888 1396.66666666667 924 1462 L 1118 1462 C 1028 1319.33333333333 983 1172.66666666667 983 1022 C 983 885.33333333333 1009.66666666667 752.33333333333 1063 623 L 952 530 Z"/>
    <path fill="#000000" stroke="none" transform="matrix(1 0 0 -1 28605 2689)" d="M 590 1059 L 41 1384 L 141 1528 L 774 1153 L 774 0 L 590 0 L 590 535 L 41 860 L 141 1004 L 590 735 L 590 1059 Z"/>
    <path fill="#000000" stroke="none" transform="matrix(1 0 0 -1 29584 2689)" d="M 397 971 C 448.33333333333 941 501.66666666667 902 557 854 C 569 876.66666666667 575 902 575 930 C 575 1006.66666666667 534.33333333333 1079.66666666667 453 1149 C 371 1218.33333333333 254 1283 102 1343 L 176 1493 C 558.66666666667 1329.66666666667 750 1142 750 930 C 750 874 724.66666666667 806.33333333333 674 727 C 724.66666666667 649.66666666667 750 582 750 524 C 750 312 558.66666666667 125.66666666667 176 -35 L 102 113 C 417.33333333333 237 575 374 575 524 C 575 544 568.33333333333 566.66666666667 555 592 C 517 560.66666666667 461 523 387 479 L 309 621 C 393.66666666667 669.66666666667 447.66666666667 705 471 727 C 447 749.66666666667 394.33333333333 784.33333333333 313 831 L 397 971 Z"/>
    <path fill="#000000" stroke="none" transform="matrix(1 0 0 -1 30456 2689)" d="M 496 1462 L 688 1462 L 1114 944 L 715 471 L 1114 0 L 891 0 L 596 358 L 301 0 L 78 0 L 477 471 L 78 944 L 496 1462 Z M 289 948 L 596 586 L 903 948 L 592 1327 L 289 948 Z"/>
    <path fill="#000000" stroke="none" transform="matrix(1 0 0 -1 32180 2689)" d="M 784 1483 L 1120 1147 L 991 1024 L 784 1229 L 610 1022 L 610 580 L 985 63 L 836 -29 L 518 414 L 201 -29 L 51 63 L 426 580 L 426 1075 L 784 1483 Z"/>
    <path fill="#000000" stroke="none" transform="matrix(1 0 0 -1 33331 2689)" d="M 590 0 L 590 1253 L 141 932 L 41 1075 L 590 1462 L 774 1462 L 774 0 L 590 0 Z"/>
    <path fill="#000000" stroke="none" transform="matrix(1 0 0 -1 34310 2689)" d="M 780 -39 L 672 68 L 920 309 L 565 621 L 94 209 L 94 424 L 442 727 L 94 1032 L 94 1247 L 565 836 L 918 1143 L 672 1378 L 780 1491 L 1577 725 L 780 -39 Z M 1036 1030 L 688 727 L 1036 422 L 1352 725 L 1036 1030 Z"/>
    <path fill="#000000" stroke="none" transform="matrix(1 0 0 -1 35918 2689)" d="M 844 1462 L 1028 1462 L 1028 0 L 844 0 L 82 635 L 82 817 L 844 1462 Z M 844 229 L 844 1239 L 252 731 L 844 229 Z"/>
    <path fill="#000000" stroke="none" transform="matrix(1 0 0 -1 37151 2689)" d="M 1022 563 L 676 563 L 676 0 L 492 0 L 492 563 L 145 563 L 145 711 L 492 711 L 492 874 L 117 1391 L 266 1483 L 584 1040 L 901 1483 L 1051 1391 L 676 874 L 676 711 L 1022 711 L 1022 563 Z"/>
    <path fill="#000000" stroke="none" transform="matrix(1 0 0 -1 38322 2689)" d="M 842 1462 L 1026 1462 L 1530 903 L 1530 1462 L 1714 1462 L 1714 637 L 1530 637 L 1026 1204 L 1026 0 L 842 0 L 338 559 L 338 0 L 154 0 L 154 825 L 338 825 L 842 258 L 842 1462 Z"/>
</svg>
