<svg xmlns="http://www.w3.org/2000/svg" viewBox="0 0 62774 4334" transform="translate(0, 4334) scale(1, -1)">
<path d="M1035,299Q1024,112 864,32L864,-65Q864,-170 892,-224Q920,-278 983,-278Q1013,-278 1039,-249Q1064,-221 1073,-153L1082,-152L1090,-152Q1133,-152 1171,-180Q1152,-286 1091,-352Q1030,-418 949,-418Q751,-418 751,-69L751,-5Q682,-20 593,-20Q373,-20 269,82Q165,183 165,383L165,1098L335,1098L335,391Q335,261 406,196Q476,131 635,131Q702,131 751,141L751,226Q751,331 723,385Q695,439 632,439Q602,439 577,411Q551,382 542,314L533,313L525,313Q482,313 444,341Q463,447 524,513Q585,579 666,579Q864,579 864,230L864,188Q916,229 920,299Q947,309 976,309Q1004,309 1035,299ZM735,1118Q816,1118 880,1069Q944,1020 984,926Q1068,1118 1272,1118Q1568,1118 1568,715L1568,0L1403,0L1403,707Q1403,836 1367,902Q1331,967 1245,967Q1170,967 1126,932Q1081,896 1060,833Q1038,770 1036,641L1036,630Q1007,622 983,622Q962,622 932,628L932,632Q930,760 910,826Q889,892 848,930Q806,967 736,967Q666,967 625,930Q583,893 563,828Q543,762 540,632Q511,624 487,624Q466,624 436,630L435,645L435,661Q435,786 475,897Q514,1007 581,1063Q648,1118 735,1118Z"  transform="translate(0, 1645)"/>
<path d="M845,405Q845,186 754,83Q663,-20 483,-20Q319,-20 247,74Q174,167 174,383L174,1098L344,1098L344,391Q344,294 361,238Q377,181 411,156Q444,131 519,131Q602,131 647,156Q692,181 711,234Q730,287 730,434L730,498L729,617L729,654Q729,872 830,995Q931,1118 1107,1118Q1323,1118 1394,934L1400,934Q1447,1028 1522,1073Q1596,1118 1687,1118Q2014,1118 2014,715L2014,0L1844,0L1844,707Q1844,836 1802,902Q1760,967 1661,967Q1538,967 1484,883Q1430,799 1430,606L1430,0L1260,0L1260,707Q1260,851 1215,909Q1170,967 1066,967Q948,967 896,886Q844,805 844,630L844,601L845,405Z"  transform="translate(1728, 1645)"/>
<path d="M735,1118Q816,1118 880,1069Q944,1020 984,926Q1068,1118 1272,1118Q1568,1118 1568,715L1568,-169Q1482,-169 1301,-249Q1119,-329 964,-443Q809,-557 729,-677Q649,-797 649,-914Q649,-951 658,-973Q666,-995 682,-1004Q697,-1014 735,-1014Q796,-1014 859,-979Q921,-944 1052,-835Q1265,-656 1495,-656Q1555,-656 1626,-665Q1696,-674 1735,-685Q1743,-719 1743,-744Q1743,-769 1735,-799Q1707,-787 1646,-779Q1585,-771 1516,-771Q1407,-771 1304,-818Q1201,-865 1093,-959Q978,-1060 896,-1103Q814,-1147 733,-1147Q541,-1147 541,-920Q541,-742 659,-557Q777,-372 986,-224Q1195,-76 1403,-23L1403,707Q1403,836 1367,902Q1331,967 1245,967Q1170,967 1126,932Q1081,896 1060,833Q1038,770 1036,641L1036,630Q1007,622 983,622Q962,622 932,628L932,632Q930,760 910,826Q889,892 848,930Q806,967 736,967Q666,967 625,930Q583,893 563,828Q543,762 540,632Q511,624 487,624Q466,624 436,630L435,645L435,661Q435,786 475,897Q514,1007 581,1063Q648,1118 735,1118ZM1035,299Q1029,144 913,62Q797,-20 593,-20Q373,-20 269,82Q165,183 165,383L165,1098L335,1098L335,391Q335,261 406,196Q476,131 635,131Q765,131 840,172Q915,213 920,299Q947,309 976,309Q1004,309 1035,299Z"  transform="translate(3903, 1645)"/>
<path d="M1228,707Q1228,828 1154,902Q1079,975 960,975Q720,975 680,729Q805,712 861,637Q916,562 916,403L916,321Q916,160 812,70Q708,-20 521,-20Q331,-20 246,78Q160,175 160,383L160,1098L330,1098L330,391Q330,296 356,240Q381,183 428,157Q474,131 567,131Q695,131 747,172Q799,212 799,304L799,359Q799,450 784,501Q768,551 740,575Q711,598 672,603Q633,608 587,609Q575,657 575,705Q575,814 633,910Q691,1005 794,1062Q896,1118 1014,1118Q1127,1118 1219,1064Q1310,1009 1355,917L1363,917Q1410,1011 1480,1065Q1550,1118 1656,1118Q1983,1118 1983,715L1983,0L1813,0L1813,707Q1813,836 1771,902Q1729,967 1630,967Q1509,967 1454,885Q1398,803 1398,623L1398,0L1228,0L1228,707Z"  transform="translate(5631, 1645)"/>
<path d="M873,351Q834,351 812,322Q789,293 777,234Q757,136 725,85Q692,34 630,7Q567,-20 476,-20Q362,-20 295,20Q228,60 197,139Q165,217 165,383L165,1098L335,1098L335,391Q335,230 373,163Q410,96 494,96Q540,96 570,114Q599,132 619,164Q638,195 668,294Q693,379 718,416Q742,453 778,473Q814,492 869,492Q944,492 996,449Q1047,406 1087,294L1113,222Q1159,96 1250,96Q1397,112 1479,225Q1561,337 1561,515Q1561,668 1500,812Q1438,956 1335,1038Q1366,1091 1415,1119Q1534,1027 1605,866Q1675,705 1675,524Q1675,366 1620,241Q1564,116 1461,48Q1357,-20 1218,-20L1208,-20Q1061,-12 1006,171Q975,276 947,314Q918,351 873,351Z"  transform="translate(7773, 1645)"/>
<path d="M824,-20Q758,-20 715,2Q672,24 640,57Q608,89 580,127Q552,164 515,196Q491,99 430,40Q368,-20 290,-20Q211,-20 156,37Q100,93 100,178Q100,274 162,324Q224,373 339,373L350,373L360,372L360,1098L530,1098L530,324Q576,296 608,260Q640,223 672,191Q704,158 742,136Q780,113 838,113Q928,113 967,183Q1005,253 1005,434L1005,623Q1005,772 948,855Q891,938 794,938Q769,970 769,1007Q769,1041 792,1064Q1165,1118 1330,1118Q1666,1118 1666,715L1666,0L1496,0L1496,707Q1496,837 1474,890Q1451,943 1397,965Q1342,987 1226,987Q1149,987 1005,968Q1120,858 1120,627L1120,383Q1120,197 1042,89Q964,-20 824,-20ZM214,178Q214,113 287,113Q328,113 344,149Q360,184 360,260L320,262Q264,262 239,242Q214,221 214,178Z"  transform="translate(9568, 1645)"/>
<path d=""  transform="translate(11394, 1645)"/>
<path d="M1512,405Q1512,-20 1238,-20Q1104,-20 1035,83Q965,186 965,383L965,707Q965,852 934,910Q903,967 832,967Q782,967 756,941Q729,914 718,857Q707,800 707,630L707,405Q707,-20 433,-20Q299,-20 230,83Q160,186 160,383L160,1098L330,1098L330,391Q330,295 343,239Q355,182 380,157Q404,131 459,131Q516,131 547,157Q578,183 591,240Q604,296 604,434L604,654Q604,884 671,1001Q737,1118 862,1118Q989,1118 1062,1011Q1135,904 1135,715L1135,391Q1135,295 1148,239Q1160,182 1185,157Q1209,131 1264,131Q1321,131 1352,157Q1383,183 1396,240Q1409,296 1409,434L1409,654Q1409,884 1476,1001Q1542,1118 1667,1118Q1794,1118 1867,1011Q1940,904 1940,715L1940,0L1770,0L1770,707Q1770,852 1739,910Q1708,967 1637,967Q1587,967 1561,941Q1534,914 1523,857Q1512,800 1512,629L1512,405Z"  transform="translate(12094, 1645)"/>
<path d="M466,-20Q310,-20 240,78Q170,176 170,383L170,1098L340,1098L340,391Q340,295 357,238Q374,181 407,156Q440,131 509,131Q606,131 653,155Q700,179 720,236Q739,292 739,434L739,654Q739,872 829,995Q919,1118 1080,1118Q1227,1118 1303,1016Q1378,914 1378,715L1378,0L1208,0L1208,707Q1208,853 1169,910Q1129,967 1043,967Q944,967 894,890Q843,813 843,629L842,405Q842,182 750,81Q657,-20 466,-20ZM966,-580L966,-616Q914,-632 882,-632Q849,-632 797,-616L797,-588Q797,-503 782,-451Q767,-400 743,-370Q719,-341 688,-328Q657,-315 625,-306Q593,-298 562,-287Q531,-277 507,-253Q483,-230 468,-187Q453,-144 453,-70Q480,-60 509,-60Q537,-60 568,-70Q568,-135 598,-167Q628,-199 694,-206Q813,-221 864,-258Q914,-296 940,-374Q966,-453 966,-580Z"  transform="translate(14194, 1645)"/>
<path d="M1939,707Q1939,836 1905,902Q1870,967 1784,967Q1674,967 1624,885Q1573,802 1573,606L1573,0L1403,0L1403,707Q1403,836 1367,902Q1331,967 1245,967Q1170,967 1125,931Q1080,895 1059,830Q1038,765 1036,630Q1007,622 983,622Q962,622 932,628Q930,758 910,826Q889,893 847,930Q805,967 736,967Q666,967 625,930Q583,893 563,828Q543,762 540,632Q511,624 487,624Q466,624 436,630L435,645L435,661Q435,786 475,897Q514,1007 581,1063Q648,1118 735,1118Q816,1118 880,1069Q944,1020 984,926Q1068,1118 1272,1118Q1477,1118 1540,934L1547,934Q1589,1028 1657,1073Q1725,1118 1808,1118Q1897,1118 1968,1074Q2039,1029 2075,934L2083,934Q2125,1028 2193,1073Q2261,1118 2344,1118Q2645,1118 2645,715L2645,0L2475,0L2475,707Q2475,836 2441,902Q2406,967 2320,967Q2211,967 2160,887Q2109,806 2109,623L2109,0L1939,0L1939,707ZM1035,299Q1029,144 913,62Q797,-20 593,-20Q373,-20 269,82Q165,183 165,383L165,1098L335,1098L335,391Q335,261 406,196Q476,131 635,131Q765,131 840,172Q915,213 920,299Q947,309 976,309Q1004,309 1035,299Z"  transform="translate(15727, 1645)"/>
<path d="M734,1118Q902,1118 984,926Q1070,1118 1273,1118Q1573,1118 1573,715L1573,0L1403,0L1403,707Q1403,841 1367,904Q1330,967 1239,967Q1138,967 1089,893Q1040,819 1036,630Q1007,622 983,622Q962,622 932,628Q932,807 882,887Q832,967 734,967Q640,967 592,893Q543,818 540,632Q511,624 487,624Q466,624 436,630L435,645L435,661Q435,787 475,898Q515,1009 581,1064Q647,1118 734,1118ZM863,409Q947,409 1009,348Q1070,286 1070,201Q1070,98 965,39Q859,-20 634,-20Q456,-20 359,22Q262,63 214,151Q165,239 165,383L165,1098L335,1098L335,375Q335,248 437,180Q539,111 722,111Q686,163 686,225Q686,302 737,356Q788,409 863,409ZM856,123Q956,143 956,205Q956,239 929,267Q902,294 865,294Q833,294 815,275Q797,255 797,226Q797,168 856,123Z"  transform="translate(18532, 1645)"/>
<path d="M1059,509Q1059,634 1009,729Q958,824 862,881Q766,938 689,938Q667,966 667,1000Q667,1035 689,1064Q786,1082 960,1100Q1134,1118 1224,1118Q1560,1118 1560,715L1560,0L1390,0L1390,707Q1390,837 1368,890Q1345,943 1291,965Q1236,987 1120,987Q1053,987 953,975Q1177,833 1177,475Q1177,233 1093,106Q1009,-21 850,-21Q803,-21 765,-4Q726,12 671,64Q590,-20 462,-20Q311,-20 243,79Q175,177 175,383L175,1098L345,1098L345,391Q345,257 386,182Q427,106 504,106Q539,106 565,122Q590,137 614,158L614,377L729,377L729,158Q788,105 843,105Q943,105 1001,214Q1059,322 1059,509Z"  transform="translate(20264, 1645)"/>
<path d="M131,622Q110,622 80,628Q80,863 168,991Q255,1118 420,1118Q622,1118 687,934L695,934Q777,1118 954,1118Q1161,1118 1224,934L1229,934Q1311,1118 1485,1118Q1786,1118 1786,715L1786,478Q1988,478 2088,404Q2187,329 2187,175Q2153,167 2130,167Q2106,167 2072,175Q2072,278 2006,321Q1940,364 1786,364L1786,0L1616,0L1616,364L1255,364L1255,0L1085,0L1085,366Q908,375 835,421Q762,466 762,565Q762,742 1000,814Q1028,776 1028,733L1028,725L1027,716Q903,681 903,601Q903,482 1085,477L1085,707Q1085,836 1051,902Q1016,967 930,967Q819,967 770,883Q721,798 721,606L721,0L551,0L551,707Q551,836 515,902Q479,967 393,967Q316,967 272,931Q228,894 207,830Q186,766 184,630Q155,622 131,622ZM1255,478L1616,478L1616,707Q1616,836 1582,902Q1547,967 1461,967Q1354,967 1305,888Q1255,809 1255,623L1255,478Z"  transform="translate(21984, 1645)"/>
<path d=""  transform="translate(24256, 1645)"/>
<path d="M735,1118Q816,1118 880,1069Q944,1020 984,926Q1068,1118 1272,1118Q1477,1118 1540,934L1547,934Q1589,1028 1657,1073Q1725,1118 1808,1118Q2109,1118 2109,715L2109,0L1939,0L1939,707Q1939,836 1905,902Q1870,967 1784,967Q1674,967 1624,885Q1573,802 1573,606L1573,0L1403,0L1403,707Q1403,836 1367,902Q1331,967 1245,967Q1168,967 1124,931Q1080,894 1059,830Q1038,766 1036,630Q1007,622 983,622Q962,622 932,628L932,632Q930,760 910,826Q889,892 848,930Q806,967 736,967Q666,967 625,930Q583,893 563,828Q543,762 540,632Q511,624 487,624Q466,624 436,630L435,645L435,661Q435,786 475,897Q514,1007 581,1063Q648,1118 735,1118ZM1035,299Q1029,144 913,62Q797,-20 593,-20Q373,-20 269,82Q165,183 165,383L165,1098L335,1098L335,391Q335,261 406,196Q476,131 635,131Q765,131 840,172Q915,213 920,299Q947,309 976,309Q1004,309 1035,299Z"  transform="translate(24956, 1645)"/>
<path d="M2174,-741Q2174,-816 2130,-883Q2086,-950 2013,-990Q1940,-1030 1866,-1030Q1759,-1030 1687,-961Q1615,-893 1612,-786Q1638,-776 1675,-776Q1718,-776 1732,-786Q1737,-844 1773,-878Q1808,-913 1857,-913Q1911,-913 1956,-868Q2000,-824 2000,-767Q2000,-702 1933,-663Q1865,-625 1757,-625Q1747,-611 1747,-569Q1747,-533 1757,-507Q1833,-507 1893,-466Q1952,-425 1952,-372Q1952,-306 1862,-273Q1772,-241 1573,-241L1573,-693Q1573,-912 1458,-1016Q1342,-1120 1075,-1120Q817,-1120 670,-980Q522,-841 522,-593Q522,-362 734,-245Q945,-128 1403,-128L1403,707Q1403,836 1367,902Q1331,967 1245,967Q1170,967 1126,932Q1081,896 1060,833Q1038,770 1036,641L1036,630Q1007,622 983,622Q962,622 932,628L932,632Q930,760 910,826Q889,892 848,930Q806,967 736,967Q666,967 625,930Q583,893 563,828Q543,762 540,632Q511,624 487,624Q466,624 436,630Q436,846 513,982Q589,1118 735,1118Q816,1118 880,1069Q944,1020 984,926Q1068,1118 1272,1118Q1573,1118 1573,715L1573,-128Q2122,-140 2122,-371Q2122,-430 2093,-472Q2063,-514 2005,-548Q2095,-577 2135,-625Q2174,-673 2174,-741ZM1101,-1006Q1221,-1006 1285,-976Q1348,-947 1376,-880Q1403,-813 1403,-681L1403,-243Q1030,-243 863,-321Q695,-400 695,-573Q695,-785 800,-895Q904,-1006 1101,-1006ZM1035,299Q1029,144 913,62Q797,-20 593,-20Q373,-20 269,82Q165,183 165,383L165,1098L335,1098L335,391Q335,261 406,196Q476,131 635,131Q765,131 840,172Q915,213 920,299Q947,309 976,309Q1004,309 1035,299Z"  transform="translate(27225, 1645)"/>
<path d="M1245,967Q1170,967 1126,932Q1081,896 1060,833Q1038,770 1036,641L1036,630Q1007,622 983,622Q962,622 932,628L932,632Q930,760 910,826Q889,892 848,930Q806,967 736,967Q666,967 625,930Q583,893 563,828Q543,762 540,632Q511,624 487,624Q466,624 436,630Q436,863 513,991Q590,1118 735,1118Q816,1118 880,1069Q944,1020 984,926Q1068,1118 1272,1118Q1477,1118 1538,934L1545,934Q1587,1028 1655,1073Q1723,1118 1806,1118Q2102,1118 2102,715L2102,0L1937,0L1937,707Q1937,836 1903,902Q1868,967 1782,967Q1672,967 1622,885Q1571,802 1571,606L1571,0L1403,0L1403,707Q1403,840 1365,904Q1327,967 1245,967ZM1035,299Q1024,112 864,32L864,-65Q864,-170 892,-224Q920,-278 983,-278Q1013,-278 1039,-249Q1064,-221 1073,-153L1082,-152L1090,-152Q1133,-152 1171,-180Q1152,-286 1091,-352Q1030,-418 949,-418Q751,-418 751,-69L751,-5Q682,-20 593,-20Q373,-20 269,82Q165,183 165,383L165,1098L335,1098L335,391Q335,261 406,196Q476,131 635,131Q702,131 751,141L751,226Q751,331 723,385Q695,439 632,439Q602,439 577,411Q551,382 542,314L533,313L525,313Q482,313 444,341Q463,447 524,513Q585,579 666,579Q864,579 864,230L864,188Q916,229 920,299Q947,309 976,309Q1004,309 1035,299Z"  transform="translate(29554, 1645)"/>
<path d="M1303,-1003Q1457,-1003 1556,-987Q1655,-971 1713,-937Q1771,-904 1799,-846Q1827,-788 1827,-649L1827,987Q1276,1107 1276,1425Q1276,1545 1357,1625Q1437,1705 1554,1705Q1664,1705 1752,1626Q1840,1547 1891,1403Q1941,1259 1941,1107L1941,1087Q2186,1033 2325,923Q2464,813 2464,682Q2464,569 2348,495Q2232,421 2047,418L2020,418Q2012,452 2012,476Q2012,498 2020,532Q2135,536 2211,588Q2286,639 2286,706Q2286,783 2194,852Q2102,921 1941,960L1941,-657Q1941,-826 1888,-926Q1834,-1026 1721,-1072Q1608,-1118 1404,-1118Q796,-1118 796,-715Q796,-546 893,-441Q990,-336 1174,-296Q1278,-274 1318,-244Q1358,-214 1381,-160Q1403,-106 1403,-20L1403,707Q1403,836 1367,902Q1331,967 1245,967Q1170,967 1126,932Q1081,896 1060,833Q1038,770 1036,641L1036,630Q1007,622 983,622Q962,622 932,628L932,632Q930,760 910,826Q889,892 848,930Q806,967 736,967Q666,967 625,930Q583,893 563,828Q543,762 540,632Q511,624 487,624Q466,624 436,630Q436,846 513,982Q589,1118 735,1118Q816,1118 880,1069Q944,1020 984,926Q1068,1118 1272,1118Q1573,1118 1573,715L1573,-20Q1573,-192 1497,-285Q1421,-379 1248,-408Q1070,-438 991,-516Q911,-595 911,-717Q911,-809 961,-874Q1010,-940 1103,-971Q1196,-1003 1303,-1003ZM1035,299Q1029,144 913,62Q797,-20 593,-20Q373,-20 269,82Q165,183 165,383L165,1098L335,1098L335,391Q335,261 406,196Q476,131 635,131Q765,131 840,172Q915,213 920,299Q947,309 976,309Q1004,309 1035,299ZM1405,1444Q1405,1325 1503,1246Q1600,1166 1815,1117Q1800,1323 1726,1456Q1651,1589 1535,1589Q1478,1589 1442,1554Q1405,1518 1405,1444Z"  transform="translate(31816, 1645)"/>
<path d="M842,405Q842,182 750,81Q657,-20 466,-20Q310,-20 240,78Q170,176 170,383L170,1098L340,1098L340,391Q340,295 357,238Q374,181 407,156Q440,131 509,131Q606,131 653,155Q700,179 720,236Q739,292 739,434L737,654Q737,870 828,994Q919,1118 1080,1118Q1227,1118 1303,1016Q1378,914 1378,715L1378,0L1208,0L1208,707Q1208,853 1169,910Q1129,967 1043,967Q932,967 887,883Q841,799 841,630L841,601L842,405Z"  transform="translate(34430, 1645)"/>
<path d="M735,1118Q816,1118 880,1069Q944,1020 984,926Q1068,1118 1272,1118Q1573,1118 1573,715L1573,0L1403,0L1403,707Q1403,836 1367,902Q1331,967 1245,967Q1170,967 1126,932Q1081,896 1060,833Q1038,770 1036,641L1036,630Q1007,622 983,622Q962,622 932,628L932,632Q930,760 910,826Q889,892 848,930Q806,967 736,967Q666,967 625,930Q583,893 563,828Q543,762 540,632Q511,624 487,624Q466,624 436,630L435,645L435,661Q435,786 475,897Q514,1007 581,1063Q648,1118 735,1118ZM668,-17L589,-20Q165,-20 165,383L165,1098L335,1098L335,391Q335,264 404,198Q473,132 631,132L712,135Q760,225 829,268Q898,310 976,310Q998,310 1035,299Q1029,185 966,111Q902,36 790,4Q770,-43 770,-89Q770,-140 794,-167Q817,-195 858,-195Q901,-195 924,-174Q946,-154 948,-128Q982,-120 1007,-120Q1032,-120 1062,-128Q1058,-203 1002,-256Q946,-309 867,-309Q779,-309 722,-241Q665,-174 665,-72L668,-17Z"  transform="translate(35968, 1645)"/>
<path d=""  transform="translate(37701, 1645)"/>
<path d="M1245,967Q1170,967 1126,932Q1081,896 1060,833Q1038,770 1036,641L1036,630Q1007,622 983,622Q962,622 932,628L932,632Q930,760 910,826Q889,892 848,930Q806,967 736,967Q666,967 625,930Q583,893 563,828Q543,762 540,632Q511,624 487,624Q466,624 436,630Q436,863 513,991Q590,1118 735,1118Q816,1118 880,1069Q944,1020 984,926Q1068,1118 1272,1118Q1477,1118 1538,934L1545,934Q1587,1028 1655,1073Q1723,1118 1806,1118Q2102,1118 2102,715L2102,0L1937,0L1937,707Q1937,836 1903,902Q1868,967 1782,967Q1672,967 1622,885Q1571,802 1571,606L1571,0L1403,0L1403,707Q1403,840 1365,904Q1327,967 1245,967ZM1035,299Q1029,144 913,62Q797,-20 593,-20Q373,-20 269,82Q165,183 165,383L165,1098L335,1098L335,391Q335,261 406,196Q476,131 635,131Q765,131 840,172Q915,213 920,299Q947,309 976,309Q1004,309 1035,299ZM1943,-580L1943,-616Q1891,-632 1859,-632Q1826,-632 1774,-616L1774,-588Q1774,-503 1759,-451Q1744,-400 1720,-370Q1696,-341 1665,-328Q1634,-315 1602,-306Q1570,-298 1539,-287Q1508,-277 1484,-253Q1460,-230 1445,-187Q1430,-144 1430,-70Q1457,-60 1486,-60Q1514,-60 1545,-70Q1545,-135 1575,-167Q1605,-199 1671,-206Q1790,-221 1841,-258Q1891,-296 1917,-374Q1943,-453 1943,-580Z"  transform="translate(38401, 1645)"/>
<path d="M1789,-20Q1656,80 1550,176Q1394,-20 1224,-20Q1063,-20 1008,166Q976,271 948,311Q919,351 873,351Q834,351 812,322Q789,293 777,234Q757,136 724,85Q690,33 629,7Q567,-20 479,-20Q364,-20 296,21Q228,61 197,138Q165,215 165,383L165,1098L335,1098L335,391Q335,224 374,160Q413,96 501,96Q544,96 573,115Q601,133 621,167Q640,200 668,294Q694,380 719,416Q743,452 779,472Q814,492 869,492Q949,492 1001,443Q1053,393 1086,294Q1121,183 1156,140Q1190,96 1244,96Q1347,96 1462,260Q1324,399 1259,524Q1193,649 1193,777Q1193,936 1271,1027Q1349,1118 1484,1118Q1620,1118 1695,1033Q1769,947 1769,781Q1769,660 1729,526Q1689,391 1619,275Q1697,202 1846,80Q1835,22 1789,-20ZM1321,754Q1321,666 1370,573Q1418,480 1526,367Q1580,473 1610,584Q1640,695 1640,778Q1640,879 1595,940Q1550,1000 1475,1000Q1407,1000 1364,928Q1321,855 1321,754Z"  transform="translate(40663, 1645)"/>
<path d="M1059,509Q1059,634 1009,729Q958,824 862,881Q766,938 689,938Q667,966 667,1000Q667,1035 689,1064Q786,1082 960,1100Q1134,1118 1224,1118Q1560,1118 1560,715L1560,0L1390,0L1390,707Q1390,837 1368,890Q1345,943 1291,965Q1236,987 1120,987Q1053,987 953,975Q1177,833 1177,475Q1177,258 1102,148Q1027,38 864,1L864,-65Q864,-170 892,-224Q920,-278 983,-278Q1013,-278 1039,-249Q1064,-221 1073,-153L1082,-152L1090,-152Q1133,-152 1171,-180Q1152,-286 1091,-352Q1030,-418 949,-418Q751,-418 751,-69L751,-16Q703,-20 650,-20Q465,-20 365,17Q264,54 220,137Q175,219 175,383L175,1098L345,1098L345,391Q345,282 374,221Q402,160 464,133Q526,106 658,106Q696,106 751,111L751,226Q751,331 723,385Q695,439 632,439Q602,439 577,411Q551,382 542,314L533,313L525,313Q482,313 444,341Q463,447 524,513Q585,579 666,579Q864,579 864,230L864,136Q965,174 1012,262Q1059,349 1059,509Z"  transform="translate(42589, 1645)"/>
<path d="M735,1118Q816,1118 880,1069Q944,1020 984,926Q1068,1118 1272,1118Q1573,1118 1573,715L1573,0L1403,0L1403,707Q1403,836 1367,902Q1331,967 1245,967Q1170,967 1126,932Q1081,896 1060,833Q1038,770 1036,641L1036,630Q1007,622 983,622Q962,622 932,628L932,632Q930,760 910,826Q889,892 848,930Q806,967 736,967Q666,967 625,930Q583,893 563,828Q543,762 540,632Q511,624 487,624Q466,624 436,630L435,645L435,661Q435,786 475,897Q514,1007 581,1063Q648,1118 735,1118ZM1035,299Q1029,144 913,62Q797,-20 593,-20Q373,-20 269,82Q165,183 165,383L165,1098L335,1098L335,391Q335,261 406,196Q476,131 635,131Q765,131 840,172Q915,213 920,299Q947,309 976,309Q1004,309 1035,299Z"  transform="translate(44309, 1645)"/>
<path d="M269,837Q269,777 241,726Q163,749 126,799Q88,849 88,917Q88,1012 164,1065Q240,1118 389,1118Q515,1118 586,1072Q657,1026 688,934L695,934Q739,1029 805,1074Q871,1118 964,1118Q1108,1118 1183,1015Q1257,911 1257,715L1257,0L1087,0L1087,707Q1087,849 1050,908Q1012,967 925,967Q821,967 771,882Q721,797 721,606L721,0L551,0L551,707Q551,859 495,937Q438,1015 333,1015Q274,1015 239,991Q203,966 203,922Q203,898 219,875Q235,851 269,837Z"  transform="translate(46037, 1645)"/>
<path d="M177,0L176,127L176,230L175,453L175,654Q175,870 266,994Q357,1118 518,1118Q665,1118 741,1016Q816,914 816,715L816,391Q816,295 833,238Q850,181 883,156Q916,131 985,131Q1082,131 1129,155Q1176,179 1196,236Q1215,292 1215,434L1213,654Q1213,870 1304,994Q1395,1118 1556,1118Q1703,1118 1779,1016Q1854,914 1854,715L1854,0L1684,0L1684,707Q1684,853 1645,910Q1605,967 1519,967Q1408,967 1363,883Q1317,799 1317,630L1317,601L1318,405Q1318,182 1226,81Q1133,-20 942,-20Q786,-20 716,78Q646,176 646,383L646,707Q646,853 607,910Q567,967 481,967Q370,967 325,883Q279,799 279,630L279,223L280,0L177,0Z"  transform="translate(47454, 1645)"/>
<path d=""  transform="translate(49468, 1645)"/>
<path d="M552,1062Q552,1034 543,1004L444,1004Q378,1004 343,965Q307,926 307,849Q307,755 366,703Q424,651 539,651Q548,622 548,595Q548,567 539,537Q423,537 351,470Q279,402 279,302Q279,206 336,151Q392,95 496,95Q584,95 635,125Q685,154 707,216Q729,277 729,417L729,657Q729,868 824,993Q919,1118 1083,1118Q1378,1118 1378,715L1378,0L1208,0L1208,707Q1208,853 1169,910Q1129,967 1043,967Q932,967 887,883Q842,799 842,630L842,405Q842,239 806,153Q770,67 691,24Q611,-20 479,-20Q316,-20 213,72Q110,163 110,315Q110,427 168,505Q226,583 326,599L326,605Q138,651 138,841Q138,977 216,1048Q293,1118 446,1118L543,1118Q552,1089 552,1062Z"  transform="translate(50168, 1645)"/>
<path d="M2159,707Q2159,853 2120,910Q2080,967 1994,967Q1793,967 1793,670L1793,0L1623,0L1623,707Q1623,836 1589,902Q1554,967 1468,967Q1359,967 1308,887Q1257,806 1257,623L1257,0L1087,0L1087,707Q1087,836 1053,902Q1018,967 932,967Q822,967 772,885Q721,802 721,606L721,0L551,0L551,707Q551,836 515,902Q479,967 393,967Q316,967 272,931Q228,894 207,830Q186,766 184,630Q155,622 131,622Q110,622 80,628Q80,863 168,991Q255,1118 420,1118Q622,1118 687,934L695,934Q737,1028 805,1073Q873,1118 956,1118Q1163,1118 1226,934L1234,934Q1316,1118 1492,1118Q1686,1118 1753,957L1761,957Q1850,1118 2031,1118Q2178,1118 2254,1016Q2329,914 2329,715L2329,391Q2329,292 2341,236Q2352,180 2376,156Q2399,131 2453,131Q2510,131 2541,157Q2572,183 2585,240Q2598,296 2598,434L2598,1118L2514,1118Q2431,1118 2374,1173Q2316,1228 2316,1305Q2316,1382 2374,1437Q2431,1492 2514,1492Q2597,1492 2655,1438Q2713,1383 2713,1305L2713,405Q2713,205 2640,93Q2567,-20 2427,-20Q2159,-20 2159,383L2159,707ZM2598,1232L2598,1305Q2598,1335 2574,1357Q2550,1378 2514,1378Q2478,1378 2455,1357Q2432,1335 2432,1305Q2432,1275 2455,1254Q2478,1232 2514,1232L2598,1232Z"  transform="translate(51706, 1645)"/>
<path d="M2660,179Q2660,85 2607,33Q2553,-20 2454,-20Q2364,-20 2291,29Q2189,-20 2065,-20Q1905,-20 1833,75Q1760,170 1760,369L1760,578Q1760,681 1730,732Q1699,782 1632,782Q1572,782 1541,732Q1509,681 1509,591L1509,322Q1509,218 1474,140Q1438,62 1375,21Q1312,-20 1233,-20Q1098,-20 1032,80Q965,180 965,369L965,667Q965,782 951,844Q937,905 907,936Q877,967 832,967Q708,967 708,725L708,330Q708,163 633,72Q558,-20 433,-20Q304,-20 232,70Q160,159 160,329L160,717Q160,913 245,1016Q329,1118 488,1118Q499,1065 499,1043Q499,1015 488,969Q404,969 367,907Q330,844 330,721L330,308Q330,218 365,175Q399,131 459,131Q523,131 561,170Q598,209 598,275L598,717Q598,906 668,1012Q738,1118 862,1118Q993,1118 1064,1001Q1135,884 1135,671L1135,349Q1135,233 1163,182Q1190,131 1259,131Q1323,131 1359,176Q1394,221 1394,301L1394,493Q1394,707 1463,820Q1532,933 1662,933Q1789,933 1860,828Q1930,722 1930,527L1930,369Q1930,276 1943,225Q1955,174 1983,153Q2011,131 2076,131Q2143,131 2191,144Q2135,252 2135,410Q2135,565 2202,654Q2269,743 2384,743Q2467,743 2532,672Q2597,601 2597,500Q2597,420 2570,354Q2620,317 2640,269Q2660,221 2660,179ZM2339,215Q2402,272 2439,343Q2476,414 2476,483Q2476,550 2454,582Q2431,613 2399,613Q2359,613 2332,553Q2304,492 2304,398Q2304,292 2339,215ZM2493,90Q2521,90 2540,113Q2559,136 2559,172Q2559,222 2523,253Q2480,179 2417,117Q2454,90 2493,90Z"  transform="translate(54489, 1645)"/>
<path d="M175,0L175,1098L345,1098L345,373L662,373L662,654Q662,862 772,990Q881,1118 1061,1118Q1180,1118 1261,1070Q1341,1021 1380,934L1388,934Q1435,1028 1510,1073Q1584,1118 1675,1118Q2002,1118 2002,715L2002,0L1832,0L1832,707Q1832,836 1790,902Q1748,967 1649,967Q1528,967 1473,884Q1417,801 1417,606L1417,0L1247,0L1247,707Q1247,830 1188,899Q1128,967 1024,967Q892,967 834,884Q776,801 776,629L776,373L849,373Q927,373 982,317Q1036,260 1036,178Q1036,95 981,38Q926,-20 849,-20Q772,-20 717,38Q662,95 662,178L662,262L345,262L345,0L175,0ZM776,178Q776,142 798,116Q819,90 849,90Q879,90 901,116Q922,142 922,178Q922,214 901,238Q879,262 849,262L776,262L776,178Z"  transform="translate(57309, 1645)"/>
<path d="M1059,509Q1059,634 1009,729Q958,824 862,881Q766,938 689,938Q667,966 667,1000Q667,1035 689,1064Q786,1082 960,1100Q1134,1118 1224,1118Q1560,1118 1560,715L1560,0L1390,0L1390,707Q1390,837 1368,890Q1345,943 1291,965Q1236,987 1120,987Q1053,987 953,975Q1177,833 1177,475Q1177,233 1093,106Q1009,-21 850,-21Q803,-21 765,-4Q726,12 671,64Q590,-20 462,-20Q311,-20 243,79Q175,177 175,383L175,1098L345,1098L345,391Q345,257 386,182Q427,106 504,106Q539,106 565,122Q590,137 614,158L614,377L729,377L729,158Q788,105 843,105Q943,105 1001,214Q1059,322 1059,509Z"  transform="translate(59471, 1645)"/>
<path d="M782,361Q823,373 855,373Q933,373 988,317Q1042,260 1042,178Q1042,95 987,38Q932,-20 855,-20Q800,-20 755,10Q710,40 687,89Q588,-20 428,-20Q294,-20 225,83Q155,186 155,383L155,1098L325,1098L325,391Q325,295 338,239Q350,182 375,157Q399,131 454,131Q542,131 623,226L668,278L668,654Q668,862 778,990Q887,1118 1067,1118Q1238,1118 1331,1019Q1423,919 1423,734L1423,0L1253,0L1253,707Q1253,830 1194,899Q1134,967 1030,967Q898,967 840,884Q782,801 782,629L782,361ZM782,192Q782,138 804,114Q825,90 855,90Q885,90 907,116Q928,142 928,178Q928,214 907,238Q885,262 855,262Q820,262 782,215L782,192Z"  transform="translate(61191, 1645)"/>
</svg>
