<svg width="46560" height="3789" viewBox="0 0 46560 3789" xmlns="http://www.w3.org/2000/svg">
    <defs/>
    <path fill="#000000" stroke="none" transform="matrix(1 0 0 -1 0 2689)" d="M 643 500 C 547 500 476.33333333333 485 431 455 C 385 424.33333333333 362 375.66666666667 362 309 C 362 259.66666666667 377.33333333333 222.33333333333 408 197 C 438 171 484 152.33333333333 546 141 C 608 129 688.66666666667 123 788 123 C 907.33333333333 123 997.33333333333 132.33333333333 1058 151 C 1118 169 1161.66666666667 199.33333333333 1189 242 C 1215.66666666667 284.66666666667 1229 346 1229 426 L 1401 426 C 1401 315.33333333333 1381.66666666667 228 1343 164 C 1303.66666666667 99.33333333333 1243 52.66666666667 1161 24 C 1078.33333333333 -5.33333333333 957 -20 797 -20 C 649 -20 530.33333333333 -9 441 13 C 351 34.33333333333 285 67 243 111 C 201 155 180 217 180 297 C 180 379 197 439.66666666667 231 479 C 264.33333333333 518.33333333333 322.66666666667 543.66666666667 406 555 L 406 563 C 329.33333333333 580.33333333333 276 606.66666666667 246 642 C 216 676.66666666667 201 733.66666666667 201 813 C 201 891 221 951 261 993 C 301 1035 364 1066.33333333333 450 1087 C 535.33333333333 1107.66666666667 649.66666666667 1118 793 1118 C 957.66666666667 1118 1081 1104 1163 1076 C 1245 1047.33333333333 1305.33333333333 1001.33333333333 1344 938 C 1382 874 1401 787.33333333333 1401 678 L 1231 678 C 1229.66666666667 784 1195.66666666667 860 1129 906 C 1062.33333333333 952 948 975 786 975 C 649.33333333333 975 548 962 482 936 C 416 909.33333333333 383 866.33333333333 383 807 C 383 743 402.66666666667 697.33333333333 442 670 C 481.33333333333 642.66666666667 548.33333333333 629 643 629 L 643 500 Z"/>
    <path fill="#000000" stroke="none" transform="matrix(1 0 0 -1 1581 2689)" d="M 829 -492 C 647.66666666667 -492 513 -483.33333333333 425 -466 C 337 -449.33333333333 275 -420 239 -378 C 202.33333333333 -336 184 -272 184 -186 L 371 -186 C 371 -228.66666666667 383.66666666667 -260.33333333333 409 -281 C 434.33333333333 -302.33333333333 476.66666666667 -317.33333333333 536 -326 C 594.66666666667 -335.33333333333 691.66666666667 -340 827 -340 C 957 -340 1054 -330 1118 -310 C 1182 -290.66666666667 1228 -258.66666666667 1256 -214 C 1284 -169.33333333333 1298 -104.66666666667 1298 -20 C 1298 22 1301 58.66666666667 1307 90 L 1298 94 C 1277.33333333333 50 1251.66666666667 20 1221 4 C 1189.66666666667 -12 1152 -20 1108 -20 C 980.66666666667 -20 888.33333333333 7.66666666667 831 63 C 773.66666666667 118.33333333333 745 206.66666666667 745 328 L 745 768 C 745 903.33333333333 684.33333333333 971 563 971 C 503 971 460.33333333333 958.66666666667 435 934 C 409.66666666667 909.33333333333 391.33333333333 869.33333333333 380 814 C 368 758 362 679.33333333333 362 578 L 362 0 L 180 0 L 180 578 C 180 722 191.33333333333 831.66666666667 214 907 C 236 981.66666666667 272.66666666667 1035.33333333333 324 1068 C 375.33333333333 1100 454.33333333333 1116 561 1116 C 688.33333333333 1116 780 1088.66666666667 836 1034 C 892 978.66666666667 920 890 920 768 L 920 328 C 920 262.66666666667 934.66666666667 212.66666666667 964 178 C 992.66666666667 142.66666666667 1036 125 1094 125 C 1158.66666666667 125 1203.66666666667 137 1229 161 C 1254.33333333333 185 1272.66666666667 225.66666666667 1284 283 C 1294.66666666667 339.66666666667 1300 418 1300 518 L 1300 1096 L 1483 1096 L 1483 70 C 1483 -85.33333333333 1464 -201.66666666667 1426 -279 C 1388 -356.33333333333 1325 -411 1237 -443 C 1149 -475.66666666667 1013 -492 829 -492 Z"/>
    <path fill="#000000" stroke="none" transform="matrix(1 0 0 -1 3244 2689)" d="M 700 1098 L 700 976 C 874.66666666667 1070.66666666667 1055.66666666667 1118 1243 1118 L 1401 1118 L 1401 0 L 1225 0 L 1225 977 C 1137.66666666667 977 1048.33333333333 963.66666666667 957 937 C 865.66666666667 909.66666666667 780 870.33333333333 700 819 L 700 297 C 700 195.66666666667 675 121 625 73 C 575 24.33333333333 499.66666666667 0 399 0 L 180 0 L 180 111 C 180 258.33333333333 209.66666666667 396.33333333333 269 525 C 328.33333333333 653 414 763.66666666667 526 857 L 526 954 L 180 954 L 180 1098 L 700 1098 Z M 332 141 L 420 141 C 452.66666666667 141 478.66666666667 152.33333333333 498 175 C 516.66666666667 197.66666666667 526 228 526 266 L 526 672 C 399.33333333333 525.33333333333 334.66666666667 348.33333333333 332 141 Z"/>
    <path fill="#000000" stroke="none" transform="matrix(1 0 0 -1 4825 2689)" d="M 1401 426 C 1401 314.66666666667 1381.66666666667 227 1343 163 C 1304.33333333333 99 1243 52.66666666667 1159 24 C 1074.33333333333 -5.33333333333 948.66666666667 -20 782 -20 C 616 -20 492 -2.66666666667 410 32 C 327.33333333333 66 268.33333333333 123 233 203 C 197.66666666667 283 180 401 180 557 C 180 711.66666666667 197.66666666667 827.66666666667 233 905 C 268.33333333333 981.66666666667 327.66666666667 1036.33333333333 411 1069 C 493.66666666667 1101.66666666667 621 1118 793 1118 C 961.66666666667 1118 1086.33333333333 1104 1167 1076 C 1247.66666666667 1048 1307 1002.66666666667 1345 940 C 1382.33333333333 876.66666666667 1401 789.33333333333 1401 678 L 1231 678 C 1231 783.33333333333 1197.66666666667 859.33333333333 1131 906 C 1064.33333333333 952 949.33333333333 975 786 975 C 662.66666666667 975 572.66666666667 964.33333333333 516 943 C 459.33333333333 921.66666666667 419.66666666667 884.66666666667 397 832 C 373.66666666667 779.33333333333 362 687.66666666667 362 557 C 362 431.66666666667 374.33333333333 340.33333333333 399 283 C 423.66666666667 225.66666666667 465.66666666667 184.66666666667 525 160 C 584.33333333333 135.33333333333 672 123 788 123 C 902 123 990 132.66666666667 1052 152 C 1114 170.66666666667 1159 201.66666666667 1187 245 C 1215 287.66666666667 1229 348 1229 426 L 1401 426 Z"/>
    <path fill="#000000" stroke="none" transform="matrix(1 0 0 -1 6406 2689)" d="M 809 516 L 764 516 L 356 909 L 356 514 L 180 514 L 180 1098 L 381 1098 L 786 705 L 1200 1098 L 1401 1098 L 1401 541 C 1401 375.66666666667 1384 256 1350 182 C 1316 107.33333333333 1257.66666666667 55 1175 25 C 1091.66666666667 -5 962.66666666667 -20 788 -20 C 631.33333333333 -20 514 -11.33333333333 436 6 C 357.33333333333 23.33333333333 298 52.33333333333 258 93 C 217.33333333333 133.66666666667 192 190.66666666667 182 264 L 358 264 C 366 214 400 179.33333333333 460 160 C 520 140.66666666667 628.66666666667 131 786 131 C 913.33333333333 131 1005.66666666667 140.66666666667 1063 160 C 1120.33333333333 178.66666666667 1161.33333333333 211 1186 257 C 1210.66666666667 303 1223 374.33333333333 1223 471 L 1223 934 L 809 516 Z"/>
    <path fill="#000000" stroke="none" transform="matrix(1 0 0 -1 7987 2689)" d="M 356 954 L 356 557 C 356 431.66666666667 369 340.33333333333 395 283 C 421 225.66666666667 464.33333333333 184.66666666667 525 160 C 585 135.33333333333 672.66666666667 123 788 123 C 910 123 1001 135.33333333333 1061 160 C 1121 184 1163.33333333333 224.66666666667 1188 282 C 1212.66666666667 339.33333333333 1225 431 1225 557 L 1225 1098 L 1401 1098 L 1401 557 C 1401 395 1383.66666666667 275 1349 197 C 1314.33333333333 118.33333333333 1254.33333333333 62.66666666667 1169 30 C 1083.66666666667 -3.33333333333 954.66666666667 -20 782 -20 C 616 -20 492 -2.66666666667 410 32 C 327.33333333333 66 268.33333333333 123 233 203 C 197.66666666667 283 180 401 180 557 L 180 1462 L 356 1462 L 356 1098 L 674 1098 L 674 954 L 356 954 Z"/>
    <path fill="#000000" stroke="none" transform="matrix(1 0 0 -1 10100 2689)" d="M 850 219 C 850 293 873.33333333333 351.66666666667 920 395 C 966.66666666667 437.66666666667 1032.66666666667 459 1118 459 C 1144.66666666667 459 1169.33333333333 454 1192 444 C 1166 477.33333333333 1130 503.66666666667 1084 523 C 1037.33333333333 541.66666666667 983.33333333333 551 922 551 C 830.66666666667 551 741.33333333333 524.33333333333 654 471 C 566.66666666667 417 495.33333333333 345.33333333333 440 256 C 384 166.66666666667 356 81.33333333333 356 0 L 180 0 L 180 1098 L 356 1098 L 1372 879 L 1372 729 L 356 946 L 356 563 C 356 477 350 402.66666666667 338 340 L 348 338 C 416.66666666667 455.33333333333 498 543 592 601 C 685.33333333333 659 795.33333333333 688 922 688 C 1018.66666666667 688 1103 671.33333333333 1175 638 C 1246.33333333333 604.66666666667 1302 557.66666666667 1342 497 C 1381.33333333333 435.66666666667 1401 367 1401 291 C 1401 194.33333333333 1376.66666666667 118.33333333333 1328 63 C 1278.66666666667 7.66666666667 1210 -20 1122 -20 C 940.66666666667 -20 850 59.66666666667 850 219 Z M 1245 260 L 1243 299 C 1199.66666666667 325 1158.66666666667 338 1120 338 C 1082.66666666667 338 1052.66666666667 327.33333333333 1030 306 C 1006.66666666667 284.66666666667 995 255.66666666667 995 219 C 995 182.33333333333 1006.66666666667 153.33333333333 1030 132 C 1053.33333333333 110.66666666667 1083.33333333333 100 1120 100 C 1154 100 1183.33333333333 115.66666666667 1208 147 C 1232.66666666667 178.33333333333 1245 216 1245 260 Z"/>
    <path fill="#000000" stroke="none" transform="matrix(1 0 0 -1 11681 2689)" d="M 1401 557 C 1401 395 1383.66666666667 275 1349 197 C 1314.33333333333 118.33333333333 1254.33333333333 62.66666666667 1169 30 C 1083.66666666667 -3.33333333333 954.66666666667 -20 782 -20 C 616 -20 492 -2.66666666667 410 32 C 327.33333333333 66 268.33333333333 123 233 203 C 197.66666666667 283 180 401 180 557 C 180 722.33333333333 197 842.33333333333 231 917 C 265 991 323.66666666667 1043 407 1073 C 489.66666666667 1103 618.33333333333 1118 793 1118 C 966.33333333333 1118 1094.33333333333 1101.33333333333 1177 1068 C 1259.66666666667 1034.66666666667 1317.66666666667 979 1351 901 C 1384.33333333333 823 1401 708.33333333333 1401 557 Z M 784 580 C 703.33333333333 580 626 590.66666666667 552 612 C 478 632.66666666667 416 660 366 694 C 363.33333333333 654 362 608.33333333333 362 557 C 362 431.66666666667 374.33333333333 340.33333333333 399 283 C 423.66666666667 225.66666666667 465.66666666667 184.66666666667 525 160 C 584.33333333333 135.33333333333 672 123 788 123 C 908 123 997.66666666667 135 1057 159 C 1115.66666666667 182.33333333333 1157.33333333333 222 1182 278 C 1206.66666666667 334 1219 427 1219 557 C 1219 607 1216.66666666667 651.66666666667 1212 691 C 1156.66666666667 658.33333333333 1091 631.66666666667 1015 611 C 938.33333333333 590.33333333333 861.33333333333 580 784 580 Z M 786 973 C 661.33333333333 973 570.33333333333 962 513 940 C 455 918 415 879 393 823 C 453.66666666667 793 518.66666666667 768.66666666667 588 750 C 657.33333333333 730.66666666667 722.66666666667 721 784 721 C 849.33333333333 721 918 730.66666666667 990 750 C 1062 768.66666666667 1126.33333333333 792 1183 820 C 1157 876 1115 915.66666666667 1057 939 C 999 961.66666666667 908.66666666667 973 786 973 Z"/>
    <path fill="#000000" stroke="none" transform="matrix(1 0 0 -1 13262 2689)" d="M 180 801 C 180 902.33333333333 204 977.33333333333 252 1026 C 300 1074 374.33333333333 1098 475 1098 L 715 1098 L 715 993 C 715 860.33333333333 684 731.66666666667 622 607 C 560 482.33333333333 471.33333333333 368.66666666667 356 266 L 356 141 C 470 141 583 162.66666666667 695 206 C 806.33333333333 248.66666666667 901.33333333333 307 980 381 C 1058.66666666667 454.33333333333 1119.33333333333 542.33333333333 1162 645 C 1204 747.66666666667 1225 862.33333333333 1225 989 L 1225 1098 L 1401 1098 L 1401 -133 C 1401 -372.33333333333 1289 -492 1065 -492 L 1012 -492 L 1012 -350 L 1079 -350 C 1123 -350 1158.33333333333 -334.33333333333 1185 -303 C 1211.66666666667 -272.33333333333 1225 -228 1225 -170 L 1225 297 C 1225 383 1231 457.33333333333 1243 520 L 1233 522 C 1219.66666666667 475.33333333333 1204.33333333333 436.33333333333 1187 405 C 1169 373 1141.33333333333 337 1104 297 C 1014 202.33333333333 901.66666666667 129 767 77 C 632.33333333333 24.33333333333 490.66666666667 -2 342 -2 L 180 -2 L 180 801 Z M 356 457 C 416 524.33333333333 463.66666666667 602.33333333333 499 691 C 534.33333333333 779.66666666667 553.66666666667 868 557 956 L 461 956 C 429 956 403.66666666667 945.33333333333 385 924 C 365.66666666667 902 356 871 356 831 L 356 457 Z"/>
    <path fill="#000000" stroke="none" transform="matrix(1 0 0 -1 14843 2689)" d="M 1360 281 C 1360 225 1367.66666666667 186.33333333333 1383 165 C 1397.66666666667 143.66666666667 1426 133 1468 133 L 1468 -8 C 1392 -8 1334.33333333333 -1 1295 13 C 1255 26.33333333333 1226.66666666667 49 1210 81 C 1192.66666666667 113 1184 170.66666666667 1184 254 L 1184 911 C 1073.33333333333 911 965.33333333333 889.33333333333 860 846 C 754.66666666667 802 664.66666666667 742.33333333333 590 667 C 514.66666666667 591.66666666667 457 501.66666666667 417 397 C 376.33333333333 291.66666666667 356 175 356 47 L 356 0 L 180 0 L 180 942 C 180 1107.33333333333 197 1227.33333333333 231 1302 C 265 1376 323.66666666667 1428 407 1458 C 489.66666666667 1488 618.33333333333 1503 793 1503 C 946.33333333333 1503 1061.66666666667 1494.33333333333 1139 1477 C 1215.66666666667 1459 1271.33333333333 1430.33333333333 1306 1391 C 1340.66666666667 1351 1358 1293.66666666667 1358 1219 L 1171 1219 C 1171 1257.66666666667 1160 1286.66666666667 1138 1306 C 1116 1324.66666666667 1079.66666666667 1338 1029 1346 C 977.66666666667 1354 899.66666666667 1358 795 1358 C 669 1358 577 1348 519 1328 C 460.33333333333 1308 418.66666666667 1274.33333333333 394 1227 C 368.66666666667 1179.66666666667 356 1108 356 1012 L 356 739 C 356 653 350 578.66666666667 338 516 L 348 514 C 362 562 377.66666666667 601.33333333333 395 632 C 411.66666666667 662 439 697.66666666667 477 739 C 575 843 686.33333333333 921.66666666667 811 975 C 935.66666666667 1028.33333333333 1064.66666666667 1055 1198 1055 L 1360 1055 L 1360 281 Z"/>
    <path fill="#000000" stroke="none" transform="matrix(1 0 0 -1 16424 2689)" d="M 1110 1118 C 1202.66666666667 1118 1274.33333333333 1095.33333333333 1325 1050 C 1375.66666666667 1004.66666666667 1401 934.66666666667 1401 840 C 1401 789.33333333333 1389.33333333333 738.33333333333 1366 687 C 1342 635.66666666667 1306 585.33333333333 1258 536 C 1209.33333333333 486 1165.33333333333 452 1126 434 L 1401 27 L 1401 0 L 834 0 L 834 141 L 1165 141 L 958 451 C 1054.66666666667 505.66666666667 1123.33333333333 563.33333333333 1164 624 C 1204.66666666667 684 1225 754 1225 834 C 1225 876.66666666667 1211.66666666667 911 1185 937 C 1158.33333333333 962.33333333333 1123.66666666667 975 1081 975 C 1001.66666666667 975 915.33333333333 950.33333333333 822 901 C 728.66666666667 851.66666666667 646.66666666667 787.33333333333 576 708 C 505.33333333333 628 451 537 413 435 C 375 333 356 224.33333333333 356 109 L 356 -492 L 180 -492 L 180 1098 L 356 1098 L 356 801 C 356 715 350 640.66666666667 338 578 L 348 575 C 367.33333333333 640.33333333333 392.66666666667 694.66666666667 424 738 C 455.33333333333 780.66666666667 500.33333333333 828 559 880 C 617.66666666667 932 676 975 734 1009 C 792 1043 852.66666666667 1069.66666666667 916 1089 C 978.66666666667 1108.33333333333 1043.33333333333 1118 1110 1118 Z"/>
    <path fill="#000000" stroke="none" transform="matrix(1 0 0 -1 18005 2689)" d="M 743 768 C 743 887.33333333333 772 975.33333333333 830 1032 C 888 1088 981.33333333333 1116 1110 1116 C 1214.66666666667 1116 1292.33333333333 1100.33333333333 1343 1069 C 1393 1037 1429 984 1451 910 C 1472.33333333333 836 1483 725.33333333333 1483 578 L 1483 0 L 1300 0 L 1300 578 C 1300 678 1294.33333333333 756.33333333333 1283 813 C 1271.66666666667 869 1253.66666666667 909.33333333333 1229 934 C 1203.66666666667 958.66666666667 1163.33333333333 971 1108 971 C 981.33333333333 971 918 903.33333333333 918 768 L 918 328 C 918 208.66666666667 888.33333333333 121 829 65 C 769.66666666667 8.33333333333 675.66666666667 -20 547 -20 C 443 -20 366.33333333333 -4 317 28 C 267.66666666667 59.33333333333 232.66666666667 111.66666666667 212 185 C 190.66666666667 258.33333333333 180 369.33333333333 180 518 L 180 1096 L 362 1096 L 362 518 C 362 414.66666666667 367.66666666667 335.33333333333 379 280 C 390.33333333333 224.66666666667 408.66666666667 185 434 161 C 458.66666666667 137 501 125 561 125 C 619.66666666667 125 664.66666666667 143 696 179 C 727.33333333333 214.33333333333 743 264 743 328 L 743 768 Z"/>
    <path fill="#000000" stroke="none" transform="matrix(1 0 0 -1 20200 2689)" d="M 180 572 L 180 616 C 180 741.33333333333 199.66666666667 840.33333333333 239 913 C 278.33333333333 985.66666666667 340 1038 424 1070 C 508 1102 633 1118 799 1118 C 965 1118 1089.33333333333 1101 1172 1067 C 1254 1032.33333333333 1312.66666666667 975 1348 895 C 1383.33333333333 815 1401 697 1401 541 C 1401 386.33333333333 1383 270.66666666667 1347 194 C 1310.33333333333 117.33333333333 1250 62.66666666667 1166 30 C 1081.33333333333 -3.33333333333 955.33333333333 -20 788 -20 C 617.33333333333 -20 492 -6 412 22 C 331.33333333333 50 272.66666666667 95.66666666667 236 159 C 198.66666666667 222.33333333333 180 309.33333333333 180 420 L 354 420 C 354 344 368 285 396 243 C 424 200.33333333333 468 169.66666666667 528 151 C 588 132.33333333333 677 123 795 123 C 889 123 962 128.66666666667 1014 140 C 1065.33333333333 151.33333333333 1105.66666666667 169.66666666667 1135 195 C 1163.66666666667 220.33333333333 1184.66666666667 256 1198 302 C 1210.66666666667 348 1217.66666666667 422.66666666667 1219 526 L 182 526 L 180 572 Z M 793 975 C 681.66666666667 975 596.33333333333 966.33333333333 537 949 C 477.66666666667 931 434.33333333333 902 407 862 C 379 822 362 757.33333333333 356 668 L 1213 668 C 1207 748.66666666667 1189.66666666667 810.66666666667 1161 854 C 1131.66666666667 897.33333333333 1088.33333333333 928.33333333333 1031 947 C 973 965.66666666667 893.66666666667 975 793 975 Z"/>
    <path fill="#000000" stroke="none" transform="matrix(1 0 0 -1 21781 2689)" d="M 180 1036 L 356 1036 L 1225 229 L 1225 1012 C 1225 1108.66666666667 1212.66666666667 1180.33333333333 1188 1227 C 1162.66666666667 1273.66666666667 1121 1307.33333333333 1063 1328 C 1005 1348 912.66666666667 1358 786 1358 C 636 1358 531.33333333333 1348 472 1328 C 412.66666666667 1307.33333333333 379.66666666667 1271 373 1219 L 182 1219 C 192 1293 217.33333333333 1350.33333333333 258 1391 C 298.66666666667 1431 358.33333333333 1459.66666666667 437 1477 C 515.66666666667 1494.33333333333 632.66666666667 1503 788 1503 C 963.33333333333 1503 1092.33333333333 1488 1175 1458 C 1257.66666666667 1428 1316 1376 1350 1302 C 1384 1228 1401 1108 1401 942 L 1401 0 L 1225 0 L 356 817 L 356 0 L 180 0 L 180 1036 Z"/>
    <path fill="#000000" stroke="none" transform="matrix(1 0 0 -1 23362 2689)" d="M 407 424 C 385 354 371 296 365 250 C 359 204 356 157 356 109 L 356 0 L 180 0 L 180 1098 L 356 1098 L 356 801 C 356 715 350 640.66666666667 338 578 L 348 575 C 362.66666666667 624.33333333333 379 664.66666666667 397 696 C 415 727.33333333333 441.66666666667 762.33333333333 477 801 C 570.33333333333 899 686 976.33333333333 824 1033 C 962 1089.66666666667 1101.66666666667 1118 1243 1118 L 1401 1118 L 1401 0 L 1225 0 L 1225 424 L 407 424 Z M 1225 981 C 1132.33333333333 981 1039 965.33333333333 945 934 C 851 902 763.33333333333 855.66666666667 682 795 C 600 734.33333333333 530.33333333333 657.66666666667 473 565 L 1225 565 L 1225 981 Z"/>
    <path fill="#000000" stroke="none" transform="matrix(1 0 0 -1 24943 2689)" d="M 764 -492 C 594 -492 469.66666666667 -477.66666666667 391 -449 C 312.33333333333 -420.33333333333 257.66666666667 -369.66666666667 227 -297 C 195.66666666667 -225 180 -102.66666666667 180 70 L 180 422 L 356 422 C 356 342.66666666667 369.33333333333 282.33333333333 396 241 C 422 199 464.66666666667 169 524 151 C 583.33333333333 132.33333333333 673 123 793 123 C 883.66666666667 123 956.33333333333 129.33333333333 1011 142 C 1065 154.66666666667 1107 174.66666666667 1137 202 C 1166.33333333333 228.66666666667 1187.33333333333 267.33333333333 1200 318 C 1212.66666666667 368 1219 447.66666666667 1219 557 C 1219 679 1207 767.66666666667 1183 823 C 1159 878.33333333333 1118.33333333333 917.66666666667 1061 941 C 1003 963.66666666667 914.33333333333 975 795 975 C 634.33333333333 975 520.33333333333 951.33333333333 453 904 C 385.66666666667 856.66666666667 352 780 352 674 L 182 674 C 182 784.66666666667 201.66666666667 872 241 936 C 279.66666666667 999.33333333333 341 1045.66666666667 425 1075 C 508.33333333333 1103.66666666667 629.33333333333 1118 788 1118 C 958.66666666667 1118 1086 1102 1170 1070 C 1253.33333333333 1037.33333333333 1312.66666666667 982 1348 904 C 1383.33333333333 825.33333333333 1401 709.66666666667 1401 557 C 1401 399 1383 280.66666666667 1347 202 C 1311 123.33333333333 1251.33333333333 66.66666666667 1168 32 C 1084 -2.66666666667 961 -20 799 -20 C 683 -20 601.33333333333 -16.66666666667 554 -10 C 506.66666666667 -4 469 6.66666666667 441 22 C 413 36.66666666667 387.66666666667 60.66666666667 365 94 L 356 90 C 362 58.66666666667 365 28.66666666667 365 0 C 365 -103.33333333333 376 -177.66666666667 398 -223 C 420 -268.33333333333 457.66666666667 -300.33333333333 511 -319 C 563.66666666667 -338.33333333333 648.66666666667 -348 766 -348 C 894.66666666667 -348 985.66666666667 -343.66666666667 1039 -335 C 1092.33333333333 -326.33333333333 1130.66666666667 -311 1154 -289 C 1176.66666666667 -267.66666666667 1188 -233.33333333333 1188 -186 L 1368 -186 C 1368 -273.33333333333 1351 -337.66666666667 1317 -379 C 1283 -420.33333333333 1226 -449.33333333333 1146 -466 C 1066 -483.33333333333 938.66666666667 -492 764 -492 Z"/>
    <path fill="#000000" stroke="none" transform="matrix(1 0 0 -1 26524 2689)" d="M 788 -492 C 614.66666666667 -492 489.33333333333 -484 412 -468 C 334 -452.66666666667 280 -425.66666666667 250 -387 C 220 -348.33333333333 205 -281.33333333333 205 -186 L 385 -186 C 385 -234.66666666667 396.33333333333 -269.33333333333 419 -290 C 441 -310.66666666667 478.66666666667 -325.33333333333 532 -334 C 584.66666666667 -343.33333333333 669.33333333333 -348 786 -348 C 908.66666666667 -348 999 -338 1057 -318 C 1114.33333333333 -298.66666666667 1155.33333333333 -265.33333333333 1180 -218 C 1204.66666666667 -171.33333333333 1217 -98.66666666667 1217 0 C 1217 32 1219.66666666667 62 1225 90 L 1217 94 C 1194.33333333333 60.66666666667 1169 36.66666666667 1141 22 C 1112.33333333333 6.66666666667 1074.33333333333 -4 1027 -10 C 979 -16.66666666667 897.33333333333 -20 782 -20 C 616 -20 492 -2.66666666667 410 32 C 327.33333333333 66 268.33333333333 123 233 203 C 197.66666666667 283 180 401 180 557 C 180 722.33333333333 197 842.33333333333 231 917 C 265 991 323.66666666667 1043 407 1073 C 489.66666666667 1103 618.33333333333 1118 793 1118 C 957 1118 1080 1104 1162 1076 C 1243.33333333333 1047.33333333333 1303.33333333333 1001.66666666667 1342 939 C 1380 875.66666666667 1399 788.66666666667 1399 678 L 1229 678 C 1229 782.66666666667 1196.33333333333 858.33333333333 1131 905 C 1065 951.66666666667 950 975 786 975 C 662.66666666667 975 572.66666666667 964.33333333333 516 943 C 459.33333333333 921.66666666667 419.66666666667 884.66666666667 397 832 C 373.66666666667 779.33333333333 362 687.66666666667 362 557 C 362 431.66666666667 374.33333333333 340.33333333333 399 283 C 423.66666666667 225.66666666667 465.66666666667 184.66666666667 525 160 C 584.33333333333 135.33333333333 672 123 788 123 C 902 123 989.66666666667 132.66666666667 1051 152 C 1112.33333333333 170.66666666667 1156.66666666667 201 1184 243 C 1211.33333333333 285 1225 346 1225 426 L 1401 426 L 1401 70 C 1401 -95.33333333333 1384 -215 1350 -289 C 1315.33333333333 -363.66666666667 1257.33333333333 -416 1176 -446 C 1094.66666666667 -476.66666666667 965.33333333333 -492 788 -492 Z"/>
    <path fill="#000000" stroke="none" transform="matrix(1 0 0 -1 28105 2689)" d="M 1075 -346 L 1075 -492 L 793 -492 C 618.33333333333 -492 490 -477 408 -447 C 325.33333333333 -417 266.66666666667 -364.66666666667 232 -290 C 197.33333333333 -216 180 -96 180 70 L 180 436 L 526 436 L 526 295 L 365 295 C 365 235.66666666667 399.66666666667 192.33333333333 469 165 C 537.66666666667 137 645.66666666667 123 793 123 C 870.33333333333 123 937.33333333333 126.33333333333 994 133 C 1050.66666666667 139.66666666667 1094.66666666667 149.33333333333 1126 162 C 1156.66666666667 174.66666666667 1180 191.66666666667 1196 213 C 1211.33333333333 233.66666666667 1219 262.33333333333 1219 299 C 1219 347.66666666667 1200 384.66666666667 1162 410 C 1124 434.66666666667 1049.33333333333 456.33333333333 938 475 L 514 547 C 434 561 372 578.33333333333 328 599 C 283.33333333333 619 251 644.66666666667 231 676 C 211 706.66666666667 201 752.33333333333 201 813 C 201 891 221 951 261 993 C 301 1035 364 1066.33333333333 450 1087 C 535.33333333333 1107.66666666667 649.66666666667 1118 793 1118 C 949.66666666667 1118 1068.33333333333 1105.33333333333 1149 1080 C 1229 1054.66666666667 1287.66666666667 1013.33333333333 1325 956 C 1361.66666666667 898.66666666667 1380 819.66666666667 1380 719 L 1210 719 C 1210 808.33333333333 1178.66666666667 873 1116 913 C 1052.66666666667 953 942.66666666667 973 786 973 C 652.66666666667 973 552.33333333333 962.33333333333 485 941 C 417 919 383 882.33333333333 383 831 C 383 787.66666666667 403 756 443 736 C 483 715.33333333333 549.66666666667 698 643 684 L 1020 623 C 1119.33333333333 606.33333333333 1196 585.66666666667 1250 561 C 1304 536.33333333333 1342.66666666667 505 1366 467 C 1389.33333333333 428.33333333333 1401 371.66666666667 1401 297 C 1401 217 1380 155 1338 111 C 1295.33333333333 67 1229 34.33333333333 1139 13 C 1049 -9 930.66666666667 -20 784 -20 C 640.66666666667 -20 536.66666666667 -10 472 10 C 406.66666666667 30 363.33333333333 62 342 106 L 334 104 C 348.66666666667 65.33333333333 357.66666666667 33.33333333333 361 8 C 363.66666666667 -17.33333333333 365 -45.33333333333 365 -76 C 365 -149.33333333333 378 -204.33333333333 404 -241 C 429.33333333333 -277.66666666667 471.66666666667 -304.33333333333 531 -321 C 589.66666666667 -337.66666666667 677 -346 793 -346 L 1075 -346 Z"/>
    <path fill="#000000" stroke="none" transform="matrix(1 0 0 -1 30218 2689)" d="M 354 109 L 354 0 L 180 0 L 180 1098 L 354 1098 L 354 801 C 354 715 348 640.66666666667 336 578 L 346 575 C 360.66666666667 624.33333333333 377 664.66666666667 395 696 C 413 727.33333333333 439.66666666667 762.33333333333 475 801 C 567 898.33333333333 682.33333333333 975.66666666667 821 1033 C 959.66666666667 1089.66666666667 1100.33333333333 1118 1243 1118 L 1401 1118 L 1401 -133 C 1401 -372.33333333333 1289 -492 1065 -492 L 1012 -492 L 1012 -350 L 1079 -350 C 1123 -350 1158.33333333333 -334.33333333333 1185 -303 C 1211.66666666667 -272.33333333333 1225 -228 1225 -170 L 1225 981 C 1113 981 1001 958.33333333333 889 913 C 777 867 681.33333333333 805.66666666667 602 729 C 522 651.66666666667 460.66666666667 560.66666666667 418 456 C 375.33333333333 351.33333333333 354 235.66666666667 354 109 Z"/>
    <path fill="#000000" stroke="none" transform="matrix(1 0 0 -1 31799 2689)" d="M 850 219 C 850 379 939.33333333333 459 1118 459 C 1151.33333333333 459 1187 451.33333333333 1225 436 L 1225 981 C 1113 981 1001.33333333333 958.33333333333 890 913 C 778.66666666667 867 683.33333333333 806 604 730 C 524.66666666667 654 463.66666666667 563.33333333333 421 458 C 377.66666666667 352 356 235.66666666667 356 109 L 356 0 L 180 0 L 180 1098 L 356 1098 L 356 801 C 356 715 350 640.66666666667 338 578 L 348 575 C 362.66666666667 624.33333333333 379 664.66666666667 397 696 C 415 727.33333333333 441.66666666667 762.33333333333 477 801 C 570.33333333333 899 686 976.33333333333 824 1033 C 962 1089.66666666667 1101.66666666667 1118 1243 1118 L 1401 1118 L 1401 311 C 1401 90.33333333333 1308 -20 1122 -20 C 940.66666666667 -20 850 59.66666666667 850 219 Z M 1120 338 C 1082.66666666667 338 1052.66666666667 327.33333333333 1030 306 C 1006.66666666667 284.66666666667 995 255.66666666667 995 219 C 995 182.33333333333 1006.66666666667 153.33333333333 1030 132 C 1053.33333333333 110.66666666667 1083.33333333333 100 1120 100 C 1190 100 1225 160.33333333333 1225 281 L 1225 312 C 1218.33333333333 316.66666666667 1204.66666666667 322.33333333333 1184 329 C 1163.33333333333 335 1142 338 1120 338 Z"/>
    <path fill="#000000" stroke="none" transform="matrix(1 0 0 -1 33380 2689)" d="M 1225 557 C 1225 673.66666666667 1212.66666666667 760.66666666667 1188 818 C 1163.33333333333 874.66666666667 1122.33333333333 915 1065 939 C 1007 963 917 975 795 975 C 643.66666666667 975 532.66666666667 957 462 921 C 391.33333333333 884.33333333333 356 825.66666666667 356 745 C 356 677 365.33333333333 627.66666666667 384 597 C 402.66666666667 566.33333333333 440.66666666667 532.66666666667 498 496 C 553.33333333333 575.33333333333 602.66666666667 630.33333333333 646 661 C 688.66666666667 691.66666666667 738.33333333333 707 795 707 C 853 707 902 689.66666666667 942 655 C 981.33333333333 620.33333333333 1001 574.66666666667 1001 518 C 1001 474 990 435.33333333333 968 402 C 945.33333333333 368 914.66666666667 341.33333333333 876 322 C 836.66666666667 302.66666666667 795.33333333333 293 752 293 C 721.33333333333 293 687.66666666667 298 651 308 C 614.33333333333 318 582.33333333333 331.33333333333 555 348 L 420 141 L 748 141 L 748 0 L 180 0 L 180 27 L 434 401 C 362 442.33333333333 310.66666666667 478.66666666667 280 510 C 248.66666666667 540.66666666667 224.33333333333 575.66666666667 207 615 C 189 653.66666666667 180 699.33333333333 180 752 C 180 876.66666666667 229.66666666667 969 329 1029 C 427.66666666667 1088.33333333333 580.66666666667 1118 788 1118 C 966 1118 1096.33333333333 1103 1179 1073 C 1261 1043 1318.66666666667 991.33333333333 1352 918 C 1384.66666666667 844 1401 723.66666666667 1401 557 L 1401 0 L 1225 0 L 1225 557 Z M 788 602 C 764.66666666667 602 742.66666666667 593 722 575 C 700.66666666667 557 664.66666666667 510.66666666667 614 436 C 620 430 638.66666666667 421.66666666667 670 411 C 700.66666666667 400.33333333333 727.33333333333 395 750 395 C 786.66666666667 395 817.33333333333 404.33333333333 842 423 C 866.66666666667 441.66666666667 879 468.66666666667 879 504 C 879 536 870.33333333333 560.33333333333 853 577 C 835 593.66666666667 813.33333333333 602 788 602 Z"/>
    <path fill="#000000" stroke="none" transform="matrix(1 0 0 -1 34961 2689)" d="M 788 123 C 906 123 995.33333333333 132.33333333333 1056 151 C 1116.66666666667 169.66666666667 1160.66666666667 200.66666666667 1188 244 C 1215.33333333333 287.33333333333 1229 348 1229 426 L 1401 426 C 1401 316.66666666667 1380.66666666667 230 1340 166 C 1299.33333333333 101.33333333333 1235.66666666667 54.33333333333 1149 25 C 1062.33333333333 -5 940 -20 782 -20 C 616 -20 492 -2.66666666667 410 32 C 327.33333333333 66 268.33333333333 123 233 203 C 197.66666666667 283 180 401 180 557 C 180 711.66666666667 197.66666666667 827.66666666667 233 905 C 268.33333333333 981.66666666667 327.66666666667 1036.33333333333 411 1069 C 493.66666666667 1101.66666666667 621 1118 793 1118 C 957 1118 1079.66666666667 1103.66666666667 1161 1075 C 1242.33333333333 1046.33333333333 1302 998.66666666667 1340 932 C 1377.33333333333 865.33333333333 1397.66666666667 771.66666666667 1401 651 L 363 482 L 368 412 C 380 302 417 226.33333333333 479 185 C 540.33333333333 143.66666666667 643.33333333333 123 788 123 Z M 1210 768 C 1198.66666666667 840 1161 892.33333333333 1097 925 C 1032.33333333333 957 928.66666666667 973 786 973 C 669.33333333333 973 582.66666666667 963.66666666667 526 945 C 469.33333333333 926.33333333333 428.66666666667 893.66666666667 404 847 C 379.33333333333 800.33333333333 365.66666666667 728.33333333333 363 631 L 1210 768 Z"/>
    <path fill="#000000" stroke="none" transform="matrix(1 0 0 -1 36542 2689)" d="M 1401 0 L 1225 0 C 1204.33333333333 110 1160.33333333333 213.33333333333 1093 310 C 1025 406.66666666667 940.66666666667 484.33333333333 840 543 C 739.33333333333 601.66666666667 636 631 530 631 L 530 301 C 530 185.66666666667 504.66666666667 105.33333333333 454 60 C 402.66666666667 14.66666666667 311.33333333333 -8 180 -8 L 180 133 C 232.66666666667 133 275 146.66666666667 307 174 C 338.33333333333 201.33333333333 354 239 354 287 L 354 768 L 545 768 C 642.33333333333 768 740 748 838 708 C 935.33333333333 668 1019.33333333333 613 1090 543 C 1160 473 1207.66666666667 395 1233 309 L 1243 311 C 1231 373.66666666667 1225 448.33333333333 1225 535 L 1225 956 L 180 956 L 180 1098 L 1401 1098 L 1401 0 Z"/>
    <path fill="#000000" stroke="none" transform="matrix(1 0 0 -1 38123 2689)" d="M 793 975 C 678.33333333333 975 590.33333333333 965.66666666667 529 947 C 467 927.66666666667 422 896.33333333333 394 853 C 366 809 352 748.66666666667 352 672 L 180 672 C 180 782 200.33333333333 869 241 933 C 281 997 344.33333333333 1044 431 1074 C 517 1103.33333333333 639.66666666667 1118 799 1118 C 965 1118 1089.33333333333 1101 1172 1067 C 1254 1032.33333333333 1312.66666666667 975 1348 895 C 1383.33333333333 815 1401 697 1401 541 C 1401 386.33333333333 1383.66666666667 270.66666666667 1349 194 C 1314.33333333333 116.66666666667 1255 61.66666666667 1171 29 C 1087 -3.66666666667 959.33333333333 -20 788 -20 C 636.66666666667 -20 525 -13.33333333333 453 0 C 380.33333333333 13.33333333333 322.33333333333 35 279 65 C 235.66666666667 94.33333333333 204 135.33333333333 184 188 L 1102 913 C 1041.33333333333 954.33333333333 938.33333333333 975 793 975 Z M 795 125 C 919.66666666667 125 1010 135.66666666667 1066 157 C 1122 177.66666666667 1161.66666666667 213.66666666667 1185 265 C 1207.66666666667 316.33333333333 1219 408.33333333333 1219 541 C 1219 651.66666666667 1209.66666666667 735 1191 791 L 408 178 C 439.33333333333 160.66666666667 483.66666666667 147.66666666667 541 139 C 598.33333333333 129.66666666667 683 125 795 125 Z"/>
    <path fill="#000000" stroke="none" transform="matrix(1 0 0 -1 40236 2689)" d="M 180 0 L 180 156 L 993 950 L 221 950 L 221 1098 L 1339 1098 L 1339 1071 L 383 141 L 569 141 C 684.33333333333 271 803 368.33333333333 925 433 C 1047 497.66666666667 1170 530 1294 530 L 1401 530 L 1401 268 C 1401 203.33333333333 1391 151.33333333333 1371 112 C 1350.33333333333 72.66666666667 1319.66666666667 44.33333333333 1279 27 C 1237.66666666667 9 1179.33333333333 0 1104 0 L 180 0 Z M 1108 141 C 1145.33333333333 141 1174.33333333333 151 1195 171 C 1215 191 1225 218.66666666667 1225 254 L 1225 377 C 1173 375 1124 365.66666666667 1078 349 C 1032 332.33333333333 988 311 946 285 C 903.33333333333 259 842 211 762 141 L 1108 141 Z"/>
    <path fill="#000000" stroke="none" transform="matrix(1 0 0 -1 41817 2689)" d="M 356 1098 L 356 125 C 468.66666666667 125 581 147.66666666667 693 193 C 804.33333333333 237.66666666667 899.66666666667 297.66666666667 979 373 C 1057.66666666667 448.33333333333 1118.33333333333 538.33333333333 1161 643 C 1203.66666666667 747.66666666667 1225 863 1225 989 L 1225 1098 L 1401 1098 L 1401 0 L 1225 0 L 1225 297 C 1225 383 1231 457.33333333333 1243 520 L 1233 522 C 1217.66666666667 469.33333333333 1201.33333333333 427.33333333333 1184 396 C 1166.66666666667 364.66666666667 1142 331.66666666667 1110 297 C 1020 200.33333333333 905 123.66666666667 765 67 C 625 10.33333333333 482.66666666667 -18 338 -18 L 180 -18 L 180 1098 L 356 1098 Z"/>
    <path fill="#000000" stroke="none" transform="matrix(1 0 0 -1 43398 2689)" d="M 1225 1462 L 1401 1462 L 1401 557 C 1401 395 1383.66666666667 275 1349 197 C 1314.33333333333 118.33333333333 1254.33333333333 62.66666666667 1169 30 C 1083.66666666667 -3.33333333333 954.66666666667 -20 782 -20 C 616 -20 492 -2.66666666667 410 32 C 327.33333333333 66 268.33333333333 123 233 203 C 197.66666666667 283 180 401 180 557 L 180 1098 L 354 1098 L 354 557 C 354 433 367.33333333333 342 394 284 C 420 226 463.66666666667 184.66666666667 525 160 C 585.66666666667 135.33333333333 673.33333333333 123 788 123 C 910 123 1001 135.33333333333 1061 160 C 1121 184 1163.33333333333 224.66666666667 1188 282 C 1212.66666666667 339.33333333333 1225 431 1225 557 L 1225 956 L 907 956 L 907 1098 L 1225 1098 L 1225 1462 Z"/>
    <path fill="#000000" stroke="none" transform="matrix(1 0 0 -1 44979 2689)" d="M 363 408 L 784 733 L 1218 414 C 1222.66666666667 456 1225 503.66666666667 1225 557 L 1225 1098 L 1401 1098 L 1401 557 C 1401 395 1383.66666666667 275 1349 197 C 1314.33333333333 118.33333333333 1254.33333333333 62.66666666667 1169 30 C 1083.66666666667 -3.33333333333 954.66666666667 -20 782 -20 C 616 -20 492 -2.66666666667 410 32 C 327.33333333333 66 268.33333333333 123 233 203 C 197.66666666667 283 180 401 180 557 L 180 1098 L 356 1098 L 356 557 C 356 502.33333333333 358.33333333333 452.66666666667 363 408 Z M 788 123 C 902 123 988.66666666667 133.66666666667 1048 155 C 1107.33333333333 175.66666666667 1149.66666666667 209.33333333333 1175 256 L 784 545 L 408 257 C 436 209.66666666667 479.66666666667 175.66666666667 539 155 C 598.33333333333 133.66666666667 681.33333333333 123 788 123 Z"/>
</svg>
