<svg xmlns="http://www.w3.org/2000/svg" viewBox="0 0 42283 3789" transform="translate(0, 3789) scale(1, -1)">
<path d="M125,731Q125,931 224,1106Q323,1280 498,1383Q673,1485 877,1485Q1079,1485 1254,1384Q1428,1282 1529,1108Q1630,933 1630,731Q1630,532 1531,359Q1432,186 1258,83Q1084,-20 877,-20Q670,-20 495,84Q320,187 223,360Q125,533 125,731ZM309,651Q335,455 472,313Q609,171 797,143L797,651L309,651ZM797,1319Q610,1293 474,1151Q337,1009 311,813L797,813L797,1319ZM958,145Q1142,169 1280,311Q1418,453 1444,651L958,651L958,145ZM1444,813Q1416,1011 1282,1150Q1147,1289 958,1319L958,813L1444,813Z"  transform="translate(0, 1100)"/>
<path d="M682,676Q638,698 589,726Q539,753 123,999L123,1116L854,1485L854,1313L612,1190Q466,1113 324,1051Q502,955 854,750L854,633L123,-20L123,184Q571,584 601,609Q631,634 682,674L682,676Z"  transform="translate(1755, 1100)"/>
<path d="M371,1462L371,0L188,0L188,1462L371,1462ZM172,-246Q172,-186 204,-158Q235,-131 279,-131Q322,-131 354,-158Q385,-186 385,-246Q385,-299 356,-329Q326,-360 279,-360Q231,-360 202,-330Q172,-300 172,-246Z"  transform="translate(2732, 1100)"/>
<path d="M199,1462L291,1462L770,850L1219,1462L1413,1462L872,721L1368,90L1368,0L199,0L199,1462ZM371,1104Q381,936 381,684L381,162L1116,162L371,1104Z"  transform="translate(3291, 1100)"/>
<path d="M1126,0L123,0L123,162L944,162L944,651L123,651L123,813L944,813L944,1300L123,1300L123,1462L1126,1462L1126,0Z"  transform="translate(4774, 1100)"/>
<path d="M123,360L123,477Q513,680 635,737L503,801L123,997L123,1114L854,1485L854,1313Q450,1100 348,1053Q485,989 547,956L854,797L854,678Q460,480 326,418Q398,385 854,152L854,-20L123,360Z"  transform="translate(6099, 1100)"/>
<path d=""  transform="translate(7076, 1100)"/>
<path d="M139,1171Q139,1249 177,1291Q214,1333 287,1333Q360,1333 399,1291Q438,1249 438,1171Q438,1095 398,1052Q357,1008 287,1008Q218,1008 179,1051Q139,1093 139,1171ZM139,291Q139,369 178,411Q216,453 287,453Q359,453 399,411Q438,368 438,291Q438,214 399,171Q360,127 287,127Q215,127 177,171Q139,214 139,291ZM993,1171Q993,1249 1031,1291Q1068,1333 1141,1333Q1214,1333 1253,1291Q1292,1249 1292,1171Q1292,1095 1252,1052Q1211,1008 1141,1008Q1072,1008 1033,1051Q993,1093 993,1171ZM993,291Q993,369 1032,411Q1070,453 1141,453Q1213,453 1253,411Q1292,368 1292,291Q1292,214 1253,171Q1214,127 1141,127Q1069,127 1031,171Q993,214 993,291Z"  transform="translate(7608, 1100)"/>
<path d="M264,1462Q377,1292 448,1186Q519,1079 584,963L588,963Q573,1128 573,1186L573,1462L735,1462L735,1192Q735,1113 723,963L727,963Q832,1145 862,1190L1044,1462L1239,1462L752,731L1239,0L1044,0L653,584L264,0L70,0L557,731L70,1462L264,1462Z"  transform="translate(9040, 1100)"/>
<path d="M381,1462L827,1014L713,899Q414,1198 375,1249Q381,1145 381,1036L381,0L199,0L199,1462L381,1462Z"  transform="translate(10349, 1100)"/>
<path d="M1630,731Q1630,597 1584,469Q1537,341 1446,238L1628,55L1513,-59L1327,129Q1245,61 1124,21Q1003,-20 879,-20Q671,-20 497,83Q322,186 224,360Q125,533 125,731Q125,934 227,1109Q328,1283 503,1384Q677,1485 879,1485Q1081,1485 1255,1384Q1429,1283 1530,1108Q1630,933 1630,731ZM932,754L1321,360Q1448,517 1448,731Q1448,890 1371,1029Q1293,1168 1162,1247Q1031,1325 879,1325Q725,1325 592,1246Q459,1166 382,1028Q305,889 305,731Q305,571 381,435Q457,298 591,219Q725,139 879,139Q1056,139 1206,248L817,639L932,754Z"  transform="translate(11279, 1100)"/>
<path d="M647,242Q663,305 687,379Q711,453 1059,1462L1231,1462L727,0L565,0L61,1462L233,1462L549,549Q580,458 605,386Q629,314 647,242Z"  transform="translate(13034, 1100)"/>
<path d="M823,334Q823,455 910,538Q997,621 1122,621Q1248,621 1337,534Q1425,447 1425,319Q1425,159 1284,70Q1142,-20 877,-20Q670,-20 495,84Q320,187 223,360Q125,533 125,731Q125,931 224,1106Q323,1280 498,1383Q673,1485 877,1485Q1136,1485 1281,1396Q1425,1307 1425,1143Q1425,1016 1337,930Q1249,844 1122,844Q996,844 910,925Q823,1006 823,1130Q823,1240 895,1325L877,1325Q737,1325 613,1259Q489,1192 409,1073Q328,953 309,809L547,809L547,1110L694,1110L694,809L979,809L979,664L694,664L694,365L547,365L547,664L309,664Q325,518 404,398Q483,277 609,208Q735,139 877,139L897,139Q823,220 823,334ZM971,328Q971,265 1016,221Q1060,176 1122,176Q1185,176 1229,220Q1272,264 1272,328Q1272,391 1230,434Q1187,477 1122,477Q1058,477 1015,434Q971,391 971,328ZM971,1135Q971,1072 1016,1028Q1060,983 1122,983Q1185,983 1229,1027Q1272,1071 1272,1135Q1272,1198 1230,1241Q1187,1284 1122,1284Q1058,1284 1015,1241Q971,1198 971,1135Z"  transform="translate(14326, 1100)"/>
<path d=""  transform="translate(15874, 1100)"/>
<path d="M1503,0L961,0L961,651L666,651L666,0L123,0L123,162L483,162L483,1300L123,1300L123,1462L666,1462L666,813L961,813L961,1462L1503,1462L1503,1300L1143,1300L1143,162L1503,162L1503,0Z"  transform="translate(16406, 1100)"/>
<path d="M70,1462L1239,1462L1239,1372L750,731L1239,90L1239,0L70,0L70,92L555,731L70,1370L70,1462ZM653,858L989,1300L317,1300L653,858ZM317,162L989,162L653,602L317,162Z"  transform="translate(18032, 1100)"/>
<path d="M455,1223Q455,1334 532,1410Q609,1485 717,1485Q825,1485 902,1410Q979,1334 979,1223Q979,1112 903,1038Q826,963 717,963Q609,963 532,1037Q455,1111 455,1223ZM598,1223Q598,1173 635,1139Q671,1104 719,1104Q766,1104 801,1139Q836,1174 836,1223Q836,1271 801,1306Q766,1341 719,1341Q670,1341 634,1307Q598,1272 598,1223ZM455,240Q455,351 532,427Q609,502 717,502Q825,502 902,427Q979,351 979,240Q979,129 903,55Q826,-20 717,-20Q609,-20 532,54Q455,128 455,240ZM598,240Q598,190 635,156Q671,121 719,121Q766,121 801,156Q836,191 836,240Q836,288 801,323Q766,358 719,358Q670,358 634,324Q598,289 598,240ZM82,651L82,813L1352,813L1352,651L82,651Z"  transform="translate(19341, 1100)"/>
<path d="M717,797Q717,912 723,987L717,987L681,882L641,784L383,215L383,0L199,0L199,1462L383,1462L383,772Q383,675 377,489L383,489Q402,542 423,603Q444,664 467,711L717,1264L717,1462L899,1462L899,0L717,0L717,797Z"  transform="translate(20775, 1100)"/>
<path d="M1239,1462L752,731L1239,0L1044,0L653,584L264,0L70,0L1044,1462L1239,1462Z"  transform="translate(21873, 1100)"/>
<path d="M1104,0L1104,651L381,651L381,0L199,0L199,813L651,813L651,1462L834,1462L834,813L1286,813L1286,0L1104,0Z"  transform="translate(23182, 1100)"/>
<path d=""  transform="translate(24667, 1100)"/>
<path d="M633,733Q633,870 758,870Q821,870 854,834Q887,797 887,733Q887,669 853,632Q819,594 758,594Q699,594 666,630Q633,666 633,733ZM150,733Q150,870 274,870Q337,870 370,834Q403,797 403,733Q403,669 369,632Q335,594 274,594Q216,594 183,631Q150,667 150,733ZM1116,733Q1116,870 1241,870Q1304,870 1337,834Q1370,797 1370,733Q1370,669 1336,632Q1302,594 1241,594Q1182,594 1149,630Q1116,666 1116,733Z"  transform="translate(25199, 1100)"/>
<path d="M1452,442L874,442L874,0L692,0L692,442L113,442L113,604L692,604L692,858L113,858L113,1020L692,1020L692,1462L874,1462L874,1020L1452,1020L1452,858L874,858L874,604L1452,604L1452,442Z"  transform="translate(26719, 1100)"/>
<path d="M111,1462L1280,1462L1280,1372L793,713L1321,0L1126,0L694,582L264,0L70,0L598,713L111,1370L111,1462ZM694,844L1032,1300L356,1300L694,844Z"  transform="translate(28286, 1100)"/>
<path d="M823,334Q823,455 910,538Q997,621 1122,621Q1248,621 1337,534Q1425,447 1425,319Q1425,159 1284,70Q1142,-20 877,-20Q670,-20 495,84Q320,187 223,360Q125,533 125,731Q125,931 224,1106Q323,1280 498,1383Q673,1485 877,1485Q1136,1485 1281,1396Q1425,1307 1425,1143Q1425,1016 1337,930Q1249,844 1122,844Q996,844 910,925Q823,1006 823,1130Q823,1240 895,1325L877,1325Q723,1325 591,1246Q459,1167 382,1029Q305,890 305,731Q305,573 381,436Q457,298 590,219Q723,139 877,139L897,139Q823,220 823,334ZM971,1135Q971,1072 1016,1028Q1060,983 1122,983Q1185,983 1229,1027Q1272,1071 1272,1135Q1272,1198 1230,1241Q1187,1284 1122,1284Q1058,1284 1015,1241Q971,1198 971,1135ZM971,328Q971,265 1016,221Q1060,176 1122,176Q1185,176 1229,220Q1272,264 1272,328Q1272,391 1230,434Q1187,477 1122,477Q1058,477 1015,434Q971,391 971,328Z"  transform="translate(29677, 1100)"/>
<path d="M1513,381L1163,381L1163,0L981,0L981,381L625,381L625,0L442,0L442,381L92,381L92,543L442,543L442,920L92,920L92,1081L442,1081L442,1462L625,1462L625,1081L981,1081L981,1462L1163,1462L1163,1081L1513,1081L1513,920L1163,920L1163,543L1513,543L1513,381ZM625,543L981,543L981,920L625,920L625,543Z"  transform="translate(31225, 1100)"/>
<path d="M1286,1462L1286,610L834,610L834,0L651,0L651,610L199,610L199,1462L381,1462L381,772L1104,772L1104,1462L1286,1462Z"  transform="translate(32831, 1100)"/>
<path d=""  transform="translate(34316, 1100)"/>
<path d="M946,590Q1111,582 1244,508Q1377,433 1467,299Q1557,165 1589,0L1421,0Q1373,196 1252,307Q1130,418 946,432L946,0L764,0L764,432Q579,418 458,307Q337,195 289,0L123,0Q173,256 343,417Q512,577 764,590L764,872Q512,885 342,1047Q172,1208 123,1462L289,1462Q338,1268 457,1156Q576,1044 764,1030L764,1462L946,1462L946,1030Q1131,1044 1252,1156Q1373,1267 1421,1462L1589,1462Q1557,1298 1467,1164Q1377,1030 1245,956Q1112,881 946,872L946,590Z"  transform="translate(34848, 1100)"/>
<path d="M111,92L598,750L70,1462L264,1462L694,881L1126,1462L1321,1462L793,750L1280,90L1280,0L111,0L111,92ZM356,162L1032,162L694,618L356,162Z"  transform="translate(36560, 1100)"/>
<path d="M1456,651L870,651L870,813L1456,813L1456,651ZM123,813L709,813L709,651L123,651L123,813Z"  transform="translate(37951, 1100)"/>
<path d="M162,1223Q162,1334 239,1410Q316,1485 424,1485Q532,1485 609,1410Q686,1334 686,1223Q686,1112 610,1038Q533,963 424,963Q316,963 239,1037Q162,1111 162,1223ZM305,1223Q305,1173 342,1139Q378,1104 426,1104Q473,1104 508,1139Q543,1174 543,1223Q543,1271 508,1306Q473,1341 426,1341Q377,1341 341,1307Q305,1272 305,1223ZM162,240Q162,351 239,427Q316,502 424,502Q532,502 609,427Q686,351 686,240Q686,129 610,55Q533,-20 424,-20Q316,-20 239,54Q162,128 162,240ZM305,240Q305,190 342,156Q378,121 426,121Q473,121 508,156Q543,191 543,240Q543,288 508,323Q473,358 426,358Q377,358 341,324Q305,289 305,240Z"  transform="translate(39530, 1100)"/>
<path d="M381,1462L381,0L199,0L199,1462L381,1462Z"  transform="translate(40378, 1100)"/>
<path d="M199,1462L1202,1462L1202,1300L381,1300L381,813L1202,813L1202,651L381,651L381,162L1202,162L1202,0L199,0L199,1462Z"  transform="translate(40958, 1100)"/>
</svg>
