<svg xmlns="http://www.w3.org/2000/svg" viewBox="0 0 45311 3789" transform="translate(0, 3789) scale(1, -1)">
<path d="M897,0L897,379Q761,279 580,279Q354,279 238,380Q121,481 121,682Q121,875 240,980Q359,1085 575,1085Q749,1085 897,987L897,1251L-35,1251L-35,1391L1249,1391L1249,1251L1053,1251L1053,0L897,0ZM596,940Q289,940 289,682Q289,426 584,426Q759,426 897,551L897,842Q755,940 596,940ZM276,215Q332,215 365,186Q397,156 397,100Q397,43 365,13Q332,-18 276,-18Q219,-18 188,13Q156,43 156,100Q156,156 188,186Q219,215 276,215Z"  transform="translate(0, 1100)"/>
<path d="M1356,1061Q1493,928 1493,713Q1493,562 1407,429Q1320,295 1170,215Q1019,135 834,129L834,889L827,891Q713,797 589,635Q464,472 342,258L178,319L178,1251L-35,1251L-35,1391L1931,1391L1931,1251L336,1251L336,543L344,541Q437,681 497,754Q557,826 633,901Q709,975 813,1065L985,997L985,297L991,293Q1151,335 1245,451Q1339,566 1339,721Q1339,866 1253,961L1356,1061ZM1317,180Q1480,264 1569,398Q1657,531 1657,686Q1657,847 1565,985L1675,1069Q1804,901 1804,680Q1804,486 1694,323Q1584,160 1384,63L1317,180Z"  transform="translate(1223, 1100)"/>
<path d="M1239,1061Q981,897 736,653Q490,409 301,121L139,186L139,1251L-35,1251L-35,1391L1575,1391L1575,1251L1401,1251L1401,0L1245,0L1245,1059L1239,1061ZM295,1251L295,403L303,401Q459,619 702,838Q945,1056 1249,1251L295,1251Z"  transform="translate(3142, 1100)"/>
<path d="M874,737Q1056,942 1362,969Q1407,883 1433,781Q1458,679 1458,582Q1458,410 1375,274Q1292,137 1141,61Q989,-16 799,-16Q599,-16 439,59Q278,133 190,269Q102,404 102,578Q102,664 125,737Q148,809 184,871Q220,932 297,1018L424,915Q360,849 331,801Q302,753 286,697Q270,640 270,573Q270,374 415,257Q560,139 803,139Q1028,139 1167,263Q1305,386 1305,592Q1305,702 1266,813Q1124,779 1029,697Q933,615 860,465L709,530L709,1251L-14,1251L-14,1391L1589,1391L1589,1251L866,1251L866,739L874,737Z"  transform="translate(4678, 1100)"/>
<path d="M1024,385Q1085,399 1126,399Q1267,399 1343,339Q1419,278 1419,164Q1419,90 1367,9Q1315,-73 1242,-120Q1168,-168 1090,-168Q1010,-168 963,-138Q915,-109 894,-58Q872,-7 872,94L872,186Q631,-2 530,-301L391,-250Q455,-58 583,97Q711,252 872,340L872,827L866,829Q743,748 664,678Q585,608 502,512Q418,416 342,293L178,360L178,1251L-35,1251L-35,1391L1530,1391L1530,1251L336,1251L336,565L344,563Q400,624 448,673Q496,722 540,762Q584,802 633,842Q682,882 852,1004L1024,936L1024,385ZM1092,-25Q1161,-25 1213,33Q1264,91 1264,162Q1264,214 1227,243Q1190,272 1122,272Q1070,272 1024,258L1024,90Q1024,33 1036,4Q1047,-25 1092,-25Z"  transform="translate(6253, 1100)"/>
<path d="M655,-63Q586,118 456,238Q325,357 133,401L133,553Q270,564 386,601Q501,637 557,689Q612,740 612,805Q612,898 565,954Q518,1010 442,1010Q298,1010 164,889L70,1014Q148,1080 249,1116Q350,1151 446,1151Q563,1151 651,1074Q738,997 760,872Q924,1012 1249,1251L-35,1251L-35,1391L1575,1391L1575,1251L1401,1251L1401,0L1245,0L1245,1059L1239,1061Q963,871 721,647Q670,568 575,517Q480,465 360,457L358,449Q487,414 611,295Q734,176 807,10L655,-63Z"  transform="translate(7758, 1100)"/>
<path d=""  transform="translate(9319, 1100)"/>
<path d="M344,563Q449,714 622,810Q795,906 993,924Q1081,739 1081,528Q1081,273 950,35Q819,-203 588,-373L481,-248Q654,-107 746,11Q838,129 883,259Q928,388 928,543Q928,636 893,760Q743,733 594,611Q445,489 330,293L178,358L178,1251L-35,1251L-35,1391L1278,1391L1278,1251L336,1251L336,565L344,563Z"  transform="translate(9851, 1100)"/>
<path d="M139,6L139,1251L-35,1251L-35,1391L1098,1391L1098,1251L295,1251L295,154L301,150Q439,167 559,245Q678,323 746,432Q813,541 813,645Q813,735 774,786Q735,836 657,836Q630,836 599,826Q567,815 549,803L487,940Q567,979 657,979Q797,979 883,889Q969,799 969,647Q969,486 855,332Q741,177 554,85Q366,-7 156,-10L139,6Z"  transform="translate(11098, 1100)"/>
<path d="M1300,1061Q933,828 691,598Q449,368 301,129L139,195L139,1251L-35,1251L-35,1391L1636,1391L1636,1251L1462,1251L1462,0L1307,0L1307,1059L1300,1061ZM295,1251L295,403L303,401Q442,594 675,793Q908,991 1311,1251L295,1251ZM1167,573Q1062,484 1027,439Q992,393 972,339Q952,284 952,211Q952,125 1008,61Q1064,-3 1163,-29L1114,-168Q956,-113 882,-16Q807,80 807,209Q807,458 1096,668L1167,573Z"  transform="translate(12175, 1100)"/>
<path d="M954,0L954,1212L944,1214L934,1214Q807,1214 653,1119Q498,1023 389,872Q555,803 635,706Q715,608 715,471Q715,343 630,257Q544,170 408,170Q321,170 248,213Q174,256 132,334Q90,411 90,510Q90,650 161,793Q232,935 355,1056Q478,1176 627,1251L-35,1251L-35,1391L1305,1391L1305,1251L1108,1251L1108,0L954,0ZM250,502Q250,422 297,368Q343,313 410,313Q472,313 514,355Q555,397 555,461Q555,552 496,625Q436,697 319,745Q250,621 250,502Z"  transform="translate(13787, 1100)"/>
<path d="M-35,1391L1378,1391L1378,1251L1186,1251L1186,0L1030,0L1030,1251L516,1251Q780,924 780,647Q780,472 685,367Q590,262 438,262Q348,262 274,303Q199,344 157,419Q115,494 115,590Q115,836 551,950Q446,1141 332,1251L-35,1251L-35,1391ZM274,565Q274,492 316,447Q358,401 424,401Q475,401 520,430Q565,459 594,514Q623,569 623,643Q623,725 600,815Q442,781 358,718Q274,654 274,565Z"  transform="translate(15077, 1100)"/>
<path d="M1532,1071Q1247,944 983,750L983,0L829,0L829,629Q575,418 326,127L178,195L178,1251L-35,1251L-35,1391L1847,1391L1847,1251L1694,1251L1694,0L1538,0L1538,1069L1532,1071ZM344,387Q557,616 829,825L829,1251L336,1251L336,389L344,387ZM983,1251L983,934Q1225,1098 1542,1251L983,1251Z"  transform="translate(16429, 1100)"/>
<path d=""  transform="translate(18264, 1100)"/>
<path d="M160,848Q329,758 502,758Q709,758 889,881L889,1251L-35,1251L-35,1391L1182,1391L1182,1251L1042,1251L1042,0L889,0L889,705Q801,655 709,635Q616,614 502,614Q406,614 322,649L317,643Q397,543 397,397Q397,169 186,-31L70,76Q164,162 206,239Q248,316 248,397Q248,489 210,565Q171,641 78,721L160,848Z"  transform="translate(18796, 1100)"/>
<path d="M1798,131Q1566,151 1401,342L1401,0L1245,0L1245,1059L1239,1061Q943,876 706,639Q469,401 301,129L139,195L139,1251L-35,1251L-35,1391L1884,1391L1884,1251L1401,1251L1401,891Q1484,915 1575,915Q1695,915 1761,856Q1827,796 1827,686Q1827,573 1742,512Q1657,450 1466,444L1464,438Q1514,380 1616,334Q1717,287 1821,276L1798,131ZM295,1251L295,403L303,401Q459,619 702,838Q945,1056 1249,1251L295,1251ZM1567,791Q1488,791 1401,760L1401,553Q1532,556 1607,592Q1681,627 1681,686Q1681,739 1650,765Q1619,791 1567,791Z"  transform="translate(19967, 1100)"/>
<path d="M150,25L150,1251L-35,1251L-35,1391L1161,1391L1161,1251L305,1251L305,164L311,160Q456,167 583,233Q710,299 785,404Q860,508 860,618Q860,813 700,813Q646,813 615,786Q584,758 584,713Q584,687 593,670Q601,653 616,641Q631,629 676,616L623,475Q535,493 483,554Q430,615 430,707Q430,781 468,837Q505,892 570,922Q634,952 709,952Q849,952 935,862Q1020,771 1020,621Q1020,458 907,313Q794,167 601,85Q408,3 176,0L150,25Z"  transform="translate(21827, 1100)"/>
<path d="M-35,1391L1141,1391L1141,1251L821,1251Q920,1162 920,1014Q920,891 842,795Q764,698 592,621Q427,549 363,489Q299,428 299,338Q299,237 360,181Q421,125 530,125Q635,125 700,183Q764,240 764,334Q764,380 756,412L915,434Q924,382 924,324Q924,167 820,78Q715,-12 530,-12Q412,-12 324,33Q235,78 187,159Q139,239 139,342Q139,424 176,491Q213,557 286,613Q358,668 514,741Q770,860 770,1026Q770,1120 713,1177Q655,1233 559,1233Q458,1233 393,1174Q328,1115 328,1016Q328,968 346,913L197,868Q170,934 170,1012Q170,1077 198,1140Q225,1203 281,1251L-35,1251L-35,1391Z"  transform="translate(22955, 1100)"/>
<path d="M1653,1147Q1310,846 1044,418L881,483L881,1114L874,1116Q558,828 301,418L139,483L139,1251L-35,1251L-35,1391L1989,1391L1989,1251L1815,1251L1815,0L1659,0L1659,1143L1653,1147ZM303,696Q419,857 543,991Q667,1125 819,1251L295,1251L295,698L303,696ZM1038,698L1047,696Q1164,859 1285,990Q1405,1121 1561,1251L1038,1251L1038,698Z"  transform="translate(24067, 1100)"/>
<path d="M1001,678L1010,676Q1148,883 1256,1012Q1363,1140 1487,1251L-35,1251L-35,1391L1909,1391L1909,1251L1735,1251L1735,0L1581,0L1581,1143L1575,1145Q1406,985 1269,790Q1132,594 1014,377L848,442L848,842L717,665Q534,415 453,353Q371,291 279,291Q208,291 156,326Q103,361 63,434L199,528Q219,488 240,471Q260,453 289,453Q322,453 352,474Q382,494 432,555Q511,647 656,836Q787,1007 858,1083L1001,1022L1001,678Z"  transform="translate(26037, 1100)"/>
<path d=""  transform="translate(27931, 1100)"/>
<path d="M1024,936L1024,-39Q1024,-119 1047,-150Q1070,-182 1118,-182Q1178,-182 1247,-137L1323,-270Q1276,-305 1230,-320Q1183,-336 1122,-336Q1003,-336 938,-264Q872,-193 872,-45L872,827L866,831Q708,724 583,596Q458,467 342,293L178,360L178,1251L-35,1251L-35,1391L1407,1391L1407,1251L336,1251L336,565L344,563Q400,624 448,673Q496,722 540,762Q584,802 633,842Q682,882 852,1004L1024,936Z"  transform="translate(28463, 1100)"/>
<path d="M901,0L901,324Q620,333 424,427Q228,521 92,715Q283,906 459,981Q635,1055 858,1055L901,1055L901,1251L-35,1251L-35,1391L1255,1391L1255,1251L1057,1251L1057,0L901,0ZM791,909Q693,909 614,887Q534,865 467,827Q399,788 291,694Q504,477 868,477L901,477L901,907L845,909L791,909Z"  transform="translate(29843, 1100)"/>
<path d="M-35,1391L1671,1391L1671,1251L1522,1251L1522,0L1368,0L1368,1034L1362,1036L1086,695Q854,405 728,265Q602,125 510,67Q418,8 322,8Q231,8 172,60Q112,111 76,217L221,285Q246,217 272,192Q297,166 336,166Q363,166 395,181Q426,195 466,228Q505,261 561,319Q616,377 700,474Q784,570 1356,1251L-35,1251L-35,1391Z"  transform="translate(31078, 1100)"/>
<path d="M-35,1391L1077,1391L1077,1251L410,1251L410,989Q472,1041 531,1067Q590,1092 668,1092Q773,1092 840,1023Q907,953 907,840Q907,668 760,561Q613,453 387,453L385,444Q538,391 626,342Q713,293 791,224Q868,155 934,57L809,-29Q704,126 558,232Q412,338 229,393L137,420L160,571Q238,561 303,561Q499,561 626,635Q752,708 752,827Q752,889 720,923Q688,956 625,956Q560,956 487,904Q414,851 365,766L250,813L250,1251L-35,1251L-35,1391Z"  transform="translate(32733, 1100)"/>
<path d="M922,0L922,117L889,117Q603,117 418,186Q232,255 100,414Q151,478 250,541Q349,604 453,637Q358,679 277,746Q196,813 156,887Q293,1024 452,1081Q611,1137 879,1137L922,1137L922,1251L-35,1251L-35,1391L1276,1391L1276,1251L1077,1251L1077,0L922,0ZM776,557Q629,557 516,525Q403,493 289,408Q458,262 829,262L875,262L922,264L922,551Q820,557 776,557ZM811,995Q652,995 551,967Q449,939 354,860Q451,771 549,737Q647,702 774,702Q883,702 922,705L922,993L865,995L811,995Z"  transform="translate(33786, 1100)"/>
<path d="M-27,1391L1556,1391L1556,1251L1376,1251L1376,0L1221,0L1221,778L870,739L868,733Q915,702 941,645Q967,588 967,522Q967,357 854,262Q740,166 549,166Q413,166 304,233Q194,299 140,414Q86,528 86,678Q86,968 338,1251L-27,1251L-27,1391ZM532,1251Q375,1094 308,957Q240,819 240,678Q240,554 281,471Q321,387 392,344Q463,301 559,301Q671,301 740,362Q809,423 809,524Q809,614 763,662Q716,710 614,713L623,854L1221,922L1221,1251L532,1251Z"  transform="translate(35041, 1100)"/>
<path d=""  transform="translate(36575, 1100)"/>
<path d="M897,0L897,360Q746,250 569,250Q356,250 239,356Q121,461 121,659Q121,851 240,957Q358,1063 575,1063Q748,1063 897,971L897,1251L-35,1251L-35,1391L1249,1391L1249,1251L1053,1251L1053,0L897,0ZM592,915Q289,915 289,659Q289,529 359,465Q428,401 573,401Q755,401 897,532L897,813Q813,871 741,893Q668,915 592,915Z"  transform="translate(37107, 1100)"/>
<path d="M-35,1391L834,1391Q826,1468 800,1525Q773,1581 733,1622Q692,1662 639,1689Q585,1715 520,1734Q454,1752 293,1778L319,1909Q513,1888 627,1848Q740,1807 811,1746Q882,1684 926,1596Q969,1508 979,1391L1184,1391L1184,1251L989,1251Q989,971 924,806Q859,640 721,563Q582,485 340,485L340,383Q340,261 389,194Q437,127 530,127Q627,127 739,190L813,57Q736,19 671,2Q605,-16 530,-16Q364,-16 274,91Q184,197 184,383L184,1251L-35,1251L-35,1391ZM340,1251L340,627Q530,627 634,688Q738,748 787,882Q836,1016 836,1251L340,1251Z"  transform="translate(38321, 1100)"/>
<path d="M623,809Q610,851 610,891Q610,965 652,1023Q693,1081 764,1114Q835,1147 913,1147Q988,1147 1049,1117Q1110,1086 1146,1030Q1182,973 1182,891Q1182,840 1156,792Q1130,743 1079,711Q1212,711 1288,630Q1364,549 1364,408Q1364,287 1294,196Q1223,104 1084,52Q945,0 778,0Q591,0 433,85Q274,169 192,312Q109,455 109,643Q109,969 391,1251L-14,1251L-14,1391L1509,1391L1509,1251L604,1251Q268,977 268,643Q268,493 332,382Q395,271 511,212Q626,152 776,152Q902,152 1004,185Q1106,218 1156,276Q1206,333 1206,410Q1206,500 1157,552Q1108,604 1024,604Q993,604 944,595Q894,585 854,569L809,715Q927,746 978,784Q1028,821 1028,887Q1028,943 995,977Q962,1010 903,1010Q850,1010 811,978Q772,945 772,891Q772,868 778,844L623,809Z"  transform="translate(39482, 1100)"/>
<path d="M1042,0L1042,1108Q744,934 602,838Q657,744 683,660Q709,576 709,483Q709,367 625,289Q541,211 418,211Q332,211 271,246Q209,281 176,345Q143,408 143,487Q143,581 201,669Q259,757 403,868Q278,1044 66,1251L-35,1251L-35,1391L1372,1391L1372,1251L1198,1251L1198,0L1042,0ZM524,956Q717,1085 1004,1251L276,1251Q435,1078 524,956ZM561,498Q561,601 479,752Q382,676 339,613Q295,550 295,487Q295,429 330,391Q364,352 424,352Q482,352 522,391Q561,430 561,498Z"  transform="translate(40969, 1100)"/>
<path d="M594,434L594,838Q524,805 446,805Q96,805 78,1251L-35,1251L-35,1391L1657,1391L1657,1251L1483,1251L1483,0L1327,0L1327,1059L1321,1061Q1164,924 1083,834Q1002,744 925,630Q848,515 772,379L594,434ZM752,1022L752,643L760,641Q868,801 988,932Q1107,1063 1329,1251L229,1251Q236,1095 294,1021Q351,946 465,946Q550,946 612,967Q673,988 733,1030L752,1022Z"  transform="translate(42325, 1100)"/>
<path d="M203,696Q255,635 315,635Q348,635 377,655Q406,675 465,748Q573,879 687,1008Q800,1137 928,1251L-35,1251L-35,1391L1352,1391L1352,1251L1178,1251L1178,0L1022,0L1022,1141Q905,1036 802,917Q699,797 590,662Q496,547 435,510Q373,473 301,473Q242,473 191,499Q140,524 92,590L203,696ZM731,-143Q645,-91 596,0Q547,90 547,195Q547,309 612,413Q677,516 821,616L897,512Q811,451 772,408Q733,364 712,314Q690,263 690,203Q690,52 821,-29L731,-143Z"  transform="translate(43976, 1100)"/>
</svg>
