<svg xmlns="http://www.w3.org/2000/svg" viewBox="0 0 46569 3789" transform="translate(0, 3789) scale(1, -1)">
<path d="M1071,254L905,88L885,96L991,254L627,254Q104,254 104,651Q104,739 136,805Q167,871 224,909Q280,946 348,946Q435,946 471,913Q486,1020 536,1106Q585,1192 662,1242Q739,1292 834,1292Q920,1292 988,1253Q1056,1213 1099,1143Q1141,1072 1149,987L1501,1311L1518,1298L1339,1055Q1398,1045 1436,1011Q1473,976 1473,918Q1473,890 1464,862Q1503,894 1558,914Q1612,934 1663,934Q1837,934 1931,838Q2025,741 2025,573Q2025,504 2003,415Q1980,326 1944,254L1071,254ZM205,651Q205,502 315,421Q424,340 633,340L1051,340L1243,623L874,735L1073,918Q1036,1169 831,1169Q713,1169 633,1080Q553,990 553,860Q553,807 569,754L522,748Q506,790 461,820Q415,850 360,850Q291,850 248,798Q205,745 205,651ZM1485,668L1157,340L1876,340Q1896,383 1911,449Q1925,515 1925,569Q1925,697 1857,764Q1788,831 1657,831Q1570,831 1510,806Q1450,780 1407,721L1378,743Q1399,792 1399,845Q1399,901 1373,933Q1346,965 1296,965L1272,961L1151,797L1485,668ZM1395,-63L1268,-244Q1212,-319 1174,-320Q1159,-320 1145,-308Q1131,-296 1131,-280Q1131,-267 1141,-252Q1151,-238 1202,-190L1376,-45L1395,-63ZM1212,137L1085,-43Q1032,-118 991,-119Q976,-119 963,-107Q949,-95 949,-79Q949,-67 958,-53Q967,-40 1020,10L1194,156L1212,137ZM1927,154L1800,-27Q1744,-102 1706,-103Q1691,-103 1677,-91Q1663,-79 1663,-65Q1663,-58 1667,-49Q1670,-40 1678,-30Q1685,-20 1735,27L1909,172L1927,154ZM1927,-279L1800,-459Q1744,-534 1706,-535Q1691,-535 1677,-523Q1663,-511 1663,-497Q1663,-490 1667,-481Q1670,-473 1677,-463Q1684,-454 1735,-406L1909,-260L1927,-279ZM506,141L375,-39Q322,-114 284,-115Q268,-115 255,-102Q242,-90 242,-75Q242,-62 252,-47Q262,-33 286,-10Q310,12 485,160L506,141ZM690,-63L559,-244Q506,-319 468,-320Q452,-320 439,-307Q426,-295 426,-280Q426,-269 433,-257Q440,-245 453,-231Q466,-217 670,-45L690,-63ZM705,-412L639,-526Q609,-566 586,-566Q571,-566 556,-552Q541,-538 541,-522Q541,-496 573,-477L684,-391L705,-412ZM348,-412L283,-526Q253,-566 229,-566Q214,-566 200,-552Q185,-538 185,-522Q185,-496 217,-477L328,-391L348,-412ZM1419,-412L1354,-526Q1324,-566 1301,-566Q1286,-566 1271,-552Q1256,-538 1256,-522Q1256,-496 1288,-477L1399,-391L1419,-412ZM1573,139L1516,41Q1492,7 1472,7Q1460,7 1446,18Q1432,29 1432,44Q1432,66 1460,84L1554,158L1573,139ZM1616,-188L1559,-287Q1536,-320 1515,-320Q1503,-320 1490,-309Q1477,-299 1476,-283Q1476,-261 1503,-244L1597,-170L1616,-188ZM1085,-399L1028,-498Q1005,-531 984,-531Q970,-531 958,-519Q945,-508 945,-494Q945,-470 973,-455L1067,-381L1085,-399ZM864,145L807,47Q782,15 764,15Q752,15 739,27Q726,38 726,52Q726,73 752,92L846,164L864,145ZM903,-195L844,-293Q823,-325 804,-325Q791,-325 778,-313Q765,-301 763,-287Q763,-266 791,-248L885,-176L903,-195Z"  transform="translate(0, 1100)"/>
<path d="M250,-47L104,-47L104,1493L250,1493L250,-47ZM420,385Q420,432 450,461Q479,489 524,489Q569,489 599,461Q629,432 629,387Q629,340 599,311Q569,281 524,281Q479,281 450,311Q420,340 420,385Z"  transform="translate(2130, 1100)"/>
<path d="M1669,639Q1669,429 1565,248Q1460,67 1279,-38Q1098,-143 887,-143Q675,-143 493,-36Q311,70 208,251Q104,431 104,639Q104,847 208,1028Q311,1208 493,1315Q674,1421 887,1421Q1097,1421 1278,1317Q1459,1212 1564,1031Q1669,850 1669,639ZM1026,1200L813,1200Q709,1109 547,1040L547,823Q655,863 793,958L793,119L1026,119L1026,1200Z"  transform="translate(2853, 1100)"/>
<path d="M131,1184Q131,1282 111,1308Q90,1333 25,1339L25,1389L422,1389L422,850Q522,971 674,971Q836,971 939,841Q1042,711 1042,506Q1042,274 914,122Q786,-31 586,-31Q449,-31 319,86L162,-35L131,-35L131,1184ZM422,209Q422,43 557,43Q666,43 707,151Q748,258 748,487Q748,674 705,764Q662,854 561,854Q514,854 473,823Q432,791 422,737L422,209Z"  transform="translate(4627, 1100)"/>
<path d="M1294,950L1331,952L1341,856Q1341,698 1253,593Q1165,487 1008,446Q895,227 713,104Q530,-20 313,-20Q166,-20 79,61Q-8,141 -8,285Q-8,367 42,423Q92,479 162,479Q221,479 256,448Q291,416 291,369Q291,238 143,238Q68,238 68,182Q68,113 132,65Q195,16 307,16Q410,16 503,105Q596,193 721,436Q598,467 526,558Q453,649 453,766Q453,954 599,1108Q745,1262 1028,1374Q1311,1485 1583,1485L1583,1454Q1454,1446 1368,1334Q1282,1221 1198,958L1083,629L1022,487Q1155,524 1230,620Q1305,715 1305,850Q1305,889 1294,950ZM1423,1440Q1210,1399 1074,1328Q938,1257 822,1145Q705,1032 636,906Q567,780 567,668Q567,610 586,574Q604,537 636,513Q668,489 737,469L868,725Q1122,1223 1423,1440Z"  transform="translate(5727, 1100)"/>
<path d="M694,-31L649,-14Q784,508 784,766Q784,1008 696,1150Q608,1292 459,1292Q293,1292 211,1130L170,1141Q178,1200 236,1277Q293,1354 374,1401Q455,1448 557,1448Q915,1448 915,961Q915,860 905,758L932,758Q1092,1124 1262,1281Q1432,1438 1626,1438Q1837,1438 1841,1243L1833,1120L1782,1114Q1776,1190 1761,1222Q1745,1253 1713,1272Q1681,1290 1626,1290Q1481,1290 1311,1135Q1141,979 1036,744Q930,508 883,39L694,-31Z"  transform="translate(7249, 1100)"/>
<path d=""  transform="translate(9016, 1100)"/>
<path d="M1460,1169L1460,793L104,793L104,1169L236,1169L236,938L1329,938L1329,1169L1460,1169ZM1329,289L1329,520L236,520L236,289L104,289L104,666L1460,666L1460,289L1329,289Z"  transform="translate(9548, 1100)"/>
<path d="M-23,-403L-47,-381L160,647Q236,1020 417,1222Q598,1423 864,1423Q1004,1423 1084,1368Q1163,1313 1163,1214Q1163,1067 1038,942Q913,817 772,801L770,784L829,780Q981,766 1072,691Q1163,616 1163,492Q1163,350 1079,233Q995,115 855,46Q715,-23 565,-23Q379,-23 326,49L317,68L322,78L471,229L494,223Q494,53 618,53Q702,53 768,120Q834,186 873,296Q911,406 911,508Q907,614 831,664Q754,713 559,713L516,713L528,780Q696,784 824,901Q952,1018 952,1174Q950,1260 896,1296Q842,1331 772,1331Q641,1331 554,1234Q467,1137 432,952L211,-315L-23,-403Z"  transform="translate(11113, 1100)"/>
<path d="M1669,639Q1669,429 1565,248Q1460,67 1279,-38Q1098,-143 887,-143Q675,-143 493,-36Q311,70 208,251Q104,431 104,639Q104,847 208,1028Q311,1208 493,1315Q674,1421 887,1421Q1097,1421 1278,1317Q1459,1212 1564,1031Q1669,850 1669,639ZM1579,635Q1579,822 1487,983Q1394,1144 1234,1238Q1074,1331 887,1331Q701,1331 541,1238Q381,1145 288,984Q195,823 195,635Q195,448 288,289Q381,129 541,38Q701,-53 887,-53Q1073,-53 1234,39Q1394,130 1487,289Q1579,448 1579,635ZM1018,676Q1121,654 1180,584Q1239,514 1239,412Q1239,276 1142,191Q1045,106 887,106Q727,106 631,191Q535,275 535,416Q535,620 760,676Q658,701 605,764Q551,826 551,922Q551,1035 644,1108Q737,1180 887,1180Q1035,1180 1129,1109Q1223,1037 1223,922Q1223,825 1170,760Q1117,694 1018,676ZM1079,909Q1077,985 1027,1031Q976,1077 883,1077Q806,1077 752,1029Q698,980 698,909Q698,832 749,787Q799,741 887,741Q975,741 1027,787Q1079,832 1079,909ZM1087,416Q1087,507 1034,561Q981,614 887,614Q797,614 742,558Q686,502 686,416Q686,331 741,278Q796,225 883,225Q974,225 1031,279Q1087,333 1087,416Z"  transform="translate(12356, 1100)"/>
<path d="M311,1288Q311,1356 347,1394Q382,1432 444,1432Q503,1432 539,1395Q575,1357 575,1288Q575,1221 540,1183Q504,1145 444,1145Q383,1145 347,1183Q311,1220 311,1288ZM858,1288Q858,1356 894,1394Q929,1432 991,1432Q1050,1432 1086,1395Q1122,1357 1122,1288Q1122,1221 1087,1183Q1051,1145 991,1145Q930,1145 894,1183Q858,1220 858,1288ZM311,264Q311,332 347,370Q382,408 444,408Q503,408 539,371Q575,333 575,264Q575,197 540,159Q504,121 444,121Q383,121 347,159Q311,196 311,264ZM858,264Q858,332 894,370Q929,408 991,408Q1050,408 1086,371Q1122,333 1122,264Q1122,197 1087,159Q1051,121 991,121Q930,121 894,159Q858,196 858,264Z"  transform="translate(14130, 1100)"/>
<path d="M1544,823L1544,639L82,117L82,309L1319,729L82,1153L82,1346L1544,823Z"  transform="translate(15564, 1100)"/>
<path d="M274,1331L659,506L659,1331L803,1331L803,508L1186,1331L1356,1331L782,143L680,143L104,1331L274,1331Z"  transform="translate(17135, 1100)"/>
<path d=""  transform="translate(18595, 1100)"/>
<path d="M868,596L868,973L909,973L909,596L868,596ZM1622,1202Q1663,1202 1668,1193Q1673,1184 1673,1149L1673,422Q1673,385 1668,376Q1663,367 1622,367L156,367Q115,367 110,376Q104,385 104,422L104,1149Q104,1184 110,1193Q115,1202 156,1202L1622,1202ZM145,1161L145,408L1632,408L1632,1161L145,1161ZM227,985Q227,1016 249,1038Q270,1059 301,1059Q332,1059 354,1038Q375,1016 375,985Q375,954 354,933Q332,911 301,911Q270,911 249,933Q227,954 227,985ZM643,584Q643,614 665,636Q686,657 717,657Q748,657 770,636Q791,614 791,584Q791,553 770,532Q748,510 717,510Q686,510 665,532Q643,553 643,584ZM987,985Q987,1016 1009,1038Q1030,1059 1061,1059Q1092,1059 1114,1038Q1135,1016 1135,985Q1135,954 1114,933Q1092,911 1061,911Q1030,911 1009,933Q987,954 987,985ZM1403,584Q1403,614 1425,636Q1446,657 1477,657Q1507,657 1529,636Q1550,614 1550,584Q1550,553 1529,532Q1507,510 1477,510Q1446,510 1425,532Q1403,553 1403,584Z"  transform="translate(19127, 1100)"/>
<path d="M668,70Q856,166 1022,347Q1188,528 1405,907Q1520,1110 1603,1195Q1686,1280 1718,1280Q1737,1280 1737,1272Q1737,1260 1716,1245Q1636,1188 1579,1112Q1522,1036 1403,829Q1282,616 1193,497Q1104,377 986,259Q868,141 753,64Q637,-14 596,-14Q573,-14 573,0Q573,12 588,29Q662,121 688,289L700,381Q719,563 791,706Q862,848 1047,1073Q895,956 796,892Q696,827 633,827Q545,827 545,911Q545,944 563,976Q580,1008 601,1036Q621,1063 638,1086Q655,1108 655,1120Q655,1137 631,1137Q616,1137 563,1108Q510,1079 436,1010Q346,926 309,874Q272,821 250,821Q233,821 233,834Q233,866 396,1019Q559,1171 647,1171Q696,1171 724,1143Q752,1114 752,1063Q752,1010 721,966Q690,922 649,862Q760,895 944,1036Q1128,1176 1182,1231Q1217,1266 1237,1266Q1249,1266 1249,1249Q1249,1237 1235,1221Q1147,1120 1106,1008L1044,786Q981,543 891,380Q801,217 668,70Z"  transform="translate(20905, 1100)"/>
<path d="M506,-20Q323,-20 219,128Q115,276 115,532Q115,693 145,826Q174,958 236,1098L420,1098Q354,949 325,819Q295,689 295,530Q295,341 354,235Q412,129 518,129Q613,129 664,200Q715,271 715,395L715,705L887,705L887,395Q887,267 938,198Q988,129 1081,129Q1185,129 1246,230Q1307,331 1307,530Q1307,687 1278,819Q1248,951 1182,1098L1366,1098Q1432,944 1460,815Q1487,686 1487,532Q1487,275 1383,128Q1279,-20 1096,-20Q874,-20 805,164L795,164Q730,-20 506,-20ZM1518,-160L1518,-305L84,-305L84,-160L1518,-160Z"  transform="translate(22128, 1100)"/>
<path d="M154,1210L199,1473L1278,1473L1231,1210L154,1210ZM145,629L190,889L1126,889L1079,629L145,629ZM-23,0L23,260L1137,260L1090,0L-23,0Z"  transform="translate(23730, 1100)"/>
<path d="M1241,227L1270,193Q1149,66 1075,19Q1001,-29 942,-29Q827,-29 813,143Q584,-23 446,-23Q326,-23 272,51L266,51Q266,-205 319,-346L180,-414L143,-379Q178,39 178,465Q178,729 168,907L383,977L403,956L391,717L385,520Q385,332 418,230Q451,127 555,127Q692,127 809,231L817,498Q817,727 807,897L1001,971L1034,952Q1022,565 1022,410Q1022,281 1042,224Q1061,166 1104,166Q1151,166 1183,189Q1214,211 1241,227Z"  transform="translate(24985, 1100)"/>
<path d="M172,731Q172,506 287,309Q401,111 599,-5Q797,-121 1024,-121Q1251,-121 1448,-6Q1645,109 1761,307Q1876,504 1876,731Q1876,958 1762,1155Q1647,1352 1449,1468Q1251,1583 1024,1583Q799,1583 601,1469Q403,1354 288,1156Q172,958 172,731ZM293,731Q293,535 390,366Q487,197 656,99Q825,0 1024,0Q1221,0 1390,98Q1559,195 1657,364Q1755,532 1755,731Q1755,928 1658,1097Q1561,1266 1392,1364Q1223,1462 1024,1462Q827,1462 658,1365Q489,1268 391,1099Q293,930 293,731ZM111,731Q111,975 234,1187Q356,1399 568,1522Q780,1645 1024,1645Q1268,1645 1480,1522Q1692,1399 1815,1187Q1937,975 1937,731Q1937,487 1815,275Q1692,63 1480,-59Q1268,-182 1024,-182Q780,-182 568,-59Q356,63 234,275Q111,487 111,731ZM231,731Q231,944 338,1129Q444,1313 630,1419Q815,1524 1024,1524Q1237,1524 1422,1418Q1606,1311 1712,1126Q1817,940 1817,731Q1817,518 1711,334Q1604,150 1419,45Q1233,-61 1024,-61Q811,-61 627,46Q442,152 337,337Q231,522 231,731ZM682,1171L829,1171L829,295L690,295L690,956L694,1042Q657,1006 518,901L449,1001L682,1171ZM1135,733Q1135,569 1167,483Q1198,397 1274,397Q1417,397 1417,735Q1417,1069 1274,1069Q1198,1069 1167,984Q1135,899 1135,733ZM1556,735Q1556,276 1274,276Q993,276 993,735Q993,1188 1274,1188Q1556,1188 1556,735Z"  transform="translate(26275, 1100)"/>
<path d=""  transform="translate(28323, 1100)"/>
<path d="M522,662Q522,349 439,120Q356,-109 195,-244L20,-244Q202,-84 275,114Q348,312 348,662L348,1710L522,1710L522,662Z"  transform="translate(28855, 1100)"/>
<path d="M336,989L100,989L109,1026L270,1098L1567,1098L1544,989L1323,989L1202,436Q1184,358 1184,311Q1184,244 1268,244Q1321,244 1368,264L1315,10Q1239,-20 1108,-20Q979,-20 899,54Q819,127 819,242Q819,272 824,312Q829,352 969,989L690,989L481,0L127,0L336,989ZM932,242Q932,164 984,123Q1036,82 1122,82Q1192,82 1233,90L1247,166L1239,166Q1155,166 1115,201Q1075,236 1075,309Q1075,356 1094,436L1212,989L1079,989L956,418Q932,319 932,242ZM256,100L393,100L582,989L444,989L256,100Z"  transform="translate(29482, 1100)"/>
<path d="M102,1499Q102,1542 116,1556Q129,1569 172,1569L1208,1569Q1251,1569 1265,1556Q1278,1542 1278,1499L1278,70Q1278,27 1265,14Q1251,0 1208,0L172,0Q129,0 116,14Q102,27 102,70L102,1499ZM131,82Q131,45 141,37Q150,29 184,29L1196,29Q1231,29 1240,37Q1249,45 1249,82L1249,1487Q1249,1524 1240,1532Q1231,1540 1196,1540L184,1540Q150,1540 141,1532Q131,1524 131,1487L131,82ZM231,1303Q242,1280 264,1261Q285,1241 285,1219Q285,1192 260,1192Q242,1192 236,1212L233,1212L233,1204L240,1174L223,1174L229,1204L229,1212L227,1212Q221,1192 203,1192Q178,1192 178,1219Q178,1241 200,1261Q221,1280 231,1303ZM455,1434Q463,1411 481,1391Q559,1298 559,1266Q559,1239 544,1225Q528,1210 512,1210Q477,1210 461,1253L459,1253L459,1239Q459,1198 473,1174L436,1174Q451,1198 451,1239L451,1253L449,1253Q432,1210 397,1210Q381,1210 366,1225Q350,1239 350,1266Q350,1294 393,1348Q444,1413 455,1434ZM924,1434Q932,1411 950,1391Q1028,1298 1028,1266Q1028,1239 1013,1225Q997,1210 981,1210Q946,1210 930,1253L928,1253L928,1239Q928,1198 942,1174L905,1174Q920,1198 920,1239L920,1253L918,1253Q901,1210 866,1210Q850,1210 835,1225Q819,1239 819,1266Q819,1294 862,1348Q913,1413 924,1434ZM926,135L899,180Q850,238 836,261Q821,283 821,303Q821,330 837,344Q852,358 868,358Q903,358 920,315L922,315L922,330Q922,371 907,395L944,395Q930,371 930,330L930,315L932,315Q948,358 983,358Q999,358 1015,344Q1030,330 1030,303Q1030,270 952,180Q934,158 926,135ZM457,135L430,180Q381,238 367,261Q352,283 352,303Q352,330 368,344Q383,358 399,358Q434,358 451,315L453,315L453,330Q453,371 438,395L475,395Q461,371 461,330L461,315L463,315Q479,358 514,358Q530,358 546,344Q561,330 561,303Q561,270 483,180Q465,158 457,135ZM455,918Q463,895 481,874Q559,782 559,750Q559,723 544,709Q528,694 512,694Q477,694 461,737L459,737L459,723Q459,682 473,657L436,657Q451,682 451,723L451,737L449,737Q432,694 397,694Q381,694 366,709Q350,723 350,750Q350,778 393,831Q444,897 455,918ZM924,918Q932,895 950,874Q1028,782 1028,750Q1028,723 1013,709Q997,694 981,694Q946,694 930,737L928,737L928,723Q928,682 942,657L905,657Q920,682 920,723L920,737L918,737Q901,694 866,694Q850,694 835,709Q819,723 819,750Q819,778 862,831Q913,897 924,918ZM281,1460Q236,1423 236,1346L205,1346Q211,1411 252,1458L186,1458L186,1485L281,1485L281,1460ZM688,1169Q696,1147 715,1126Q793,1034 793,1001Q793,975 778,961Q762,946 745,946Q711,946 694,989L692,989L692,975Q692,934 707,909L670,909Q684,934 684,975L684,989L682,989Q666,946 631,946Q614,946 599,961Q584,975 584,1001Q584,1030 627,1083Q678,1149 688,1169ZM1149,266Q1139,289 1118,309Q1096,328 1096,350Q1096,377 1120,377Q1139,377 1145,356L1147,356L1147,365L1141,395L1157,395L1151,365L1151,356L1153,356Q1159,377 1178,377Q1202,377 1202,350Q1202,328 1181,309Q1159,289 1149,266ZM1100,109Q1145,145 1145,223L1176,223Q1169,158 1128,111L1194,111L1194,84L1100,84L1100,109Z"  transform="translate(31073, 1100)"/>
<path d="M590,297L430,100L326,100L520,340L326,580L430,580L590,383L1247,383Q1190,451 1128,580L1200,580Q1307,455 1425,383L1499,383Q1442,451 1380,580L1452,580Q1579,430 1722,358L1722,322Q1579,250 1452,100L1380,100Q1442,229 1499,297L1425,297Q1307,225 1200,100L1128,100Q1190,229 1247,297L590,297Z"  transform="translate(32453, 1100)"/>
<path d="M1395,-111L1038,53Q974,-140 868,-315L717,-315Q849,-114 915,111L715,203Q659,-54 504,-315L352,-315Q532,-47 586,262L104,483L104,586L584,827Q523,1163 326,1438L483,1438Q649,1174 713,893L909,991Q836,1231 690,1438L848,1438Q965,1250 1032,1053L1395,1237L1395,1077L1071,920Q1118,734 1118,543Q1118,363 1077,193L1395,49L1395,-111ZM754,543Q754,435 741,342L948,250Q975,387 975,543Q975,710 942,856L739,758Q754,657 754,543ZM610,543Q610,618 604,692L297,543L604,403Q610,472 610,543Z"  transform="translate(34501, 1100)"/>
<path d="M1550,573L104,573L104,705L1550,705L1550,573ZM449,934Q533,934 591,987Q649,1039 659,1122L793,1122Q781,985 683,890Q585,795 449,795Q313,795 215,890Q116,984 104,1122L238,1122Q249,1028 299,981Q349,934 449,934ZM1206,934Q1291,934 1350,987Q1408,1039 1417,1122L1550,1122Q1538,981 1439,888Q1339,795 1206,795Q1071,795 973,890Q874,984 862,1122L995,1122Q1009,1022 1061,978Q1112,934 1206,934Z"  transform="translate(36000, 1100)"/>
<path d=""  transform="translate(37655, 1100)"/>
<path d="M104,1462L1386,1462L1386,0L104,0L104,1462ZM250,793L1241,1182L1241,1317L250,1317L250,793ZM1241,145L1241,281L250,668L250,145L1241,145ZM1241,438L1241,1022L434,731L1241,438Z"  transform="translate(38187, 1100)"/>
<path d="M141,559L82,582Q141,874 211,938Q256,977 387,977L965,977Q1049,977 1100,992Q1151,1006 1208,1059L1237,1028L1159,879Q1135,831 1111,807Q1087,782 1047,782L768,782Q750,610 750,485Q750,137 899,137Q961,137 1024,207L1051,152Q985,74 903,25Q821,-25 745,-25Q631,-25 584,54Q537,133 537,362Q537,455 569,782L352,782Q303,782 272,765Q240,748 215,716Q190,684 141,559Z"  transform="translate(39678, 1100)"/>
<path d="M1067,285L104,737L104,840L1067,1292L1067,1133L317,788L1067,444L1067,285ZM1067,53L1067,-106L104,346L104,506L1067,53ZM1055,1495Q1055,1446 1020,1409Q984,1372 932,1372Q881,1372 845,1408Q809,1444 809,1495Q809,1546 845,1582Q881,1618 932,1618Q985,1618 1020,1580Q1055,1542 1055,1495Z"  transform="translate(40946, 1100)"/>
<path d="M-102,47Q-8,47 36,85Q80,123 119,260L350,1124Q367,1186 367,1223Q367,1278 334,1299Q301,1319 223,1325L223,1374L1317,1374L1241,989L1184,989L1184,1008Q1184,1171 1098,1240Q1012,1309 821,1309Q735,1309 711,1291Q686,1272 672,1212L553,764L610,764Q774,764 847,813Q920,862 975,981L1026,981L881,416L836,416L838,457L838,496Q838,606 781,650Q723,694 592,694L563,694L535,692L406,215L389,133Q389,96 418,83Q446,70 526,70Q748,70 882,144Q1016,217 1135,416L1186,416L1067,0L-102,0L-102,47Z"  transform="translate(42117, 1100)"/>
<path d="M684,487L586,500L498,496Q293,446 293,287Q293,197 368,143Q442,88 578,88Q653,88 737,116Q821,143 963,223L985,186Q901,111 731,44Q561,-23 432,-23Q283,-23 183,38Q82,98 82,201Q82,307 152,388Q221,469 332,506L406,518L362,537Q287,569 287,678Q287,762 352,841Q416,920 527,968Q637,1016 770,1016Q879,1016 947,982Q1014,948 1032,922L930,788L907,788Q897,844 839,887Q780,930 694,930Q575,930 499,871Q422,811 422,715Q422,649 475,622Q528,594 659,594L758,596L684,487Z"  transform="translate(43460, 1100)"/>
<path d="M641,477Q698,410 760,281L688,281Q561,430 418,502L418,539Q561,610 688,760L760,760Q698,631 641,563L1630,563L1630,477L641,477ZM1376,129L1208,129L1208,215L1376,215L1376,383L1462,383L1462,215L1630,215L1630,129L1462,129L1462,-39L1376,-39L1376,129Z"  transform="translate(44521, 1100)"/>
</svg>
