<svg xmlns="http://www.w3.org/2000/svg" viewBox="0 0 48870 3789" transform="translate(0, 3789) scale(1, -1)">
<path d="M1259,-20Q1214,77 1214,241Q1214,330 1221,441Q1227,552 1227,685Q1227,835 1196,906Q1164,976 1098,976Q1028,976 970,877Q911,777 834,511L796,382Q674,-20 421,-20Q290,-20 220,91Q149,202 149,399Q149,469 156,612Q162,755 162,824Q162,969 120,1058L297,1116Q342,1019 342,855Q342,766 336,655Q329,544 329,411Q329,255 362,188Q394,120 458,120Q527,120 588,224Q648,327 713,582Q787,870 887,993Q987,1116 1135,1116Q1266,1116 1337,1005Q1407,894 1407,697Q1407,627 1401,484Q1394,341 1394,272Q1394,127 1436,38L1259,-20Z"  transform="translate(0, 1100)"/>
<path d="M241,497Q220,444 220,388Q220,266 305,193Q390,120 531,120Q665,120 763,191Q861,261 913,387Q965,513 965,668L965,683L964,696Q719,604 577,604Q449,604 373,662Q296,719 296,811Q296,888 353,961Q409,1033 507,1076Q604,1118 719,1118Q867,1118 968,1056Q1068,993 1114,867Q1163,889 1216,918L1245,832Q1202,805 1137,773Q1145,721 1145,672Q1145,484 1064,324Q983,163 838,72Q693,-20 516,-20Q394,-20 299,32Q203,84 152,176Q100,268 100,382Q100,473 136,554L241,497ZM612,714Q739,714 949,795Q897,978 704,978Q633,978 575,956Q517,934 482,895Q446,855 446,814Q446,773 486,744Q526,714 612,714Z"  transform="translate(1556, 1100)"/>
<path d="M1833,582Q1864,588 1895,588Q1992,588 2054,522Q2115,455 2115,345Q2115,197 2002,27Q1889,-144 1664,-321Q1438,-499 1215,-600L1168,-523Q1515,-348 1725,-117Q1935,113 1935,312Q1935,385 1905,417Q1874,448 1827,448Q1786,448 1754,439Q1721,430 1691,412Q1660,394 1597,339L1524,438Q1605,500 1664,606Q1722,711 1722,802Q1722,886 1687,932Q1651,978 1590,978Q1529,978 1485,945Q1441,911 1406,839Q1370,767 1324,604Q1229,264 1162,45Q1152,13 1129,-3Q1105,-20 1061,-20Q1015,-20 988,11Q961,42 914,203Q866,364 828,550Q789,735 778,839Q741,794 680,590Q619,385 557,132Q539,58 512,19Q484,-20 440,-20Q391,-20 366,7Q341,34 311,110Q280,185 245,311Q209,436 177,588Q144,740 123,877Q102,1013 100,1081L263,1118Q279,936 348,603Q416,270 453,204Q505,430 574,637Q643,843 714,981Q785,1118 824,1118Q895,1118 913,1019Q932,914 994,628Q1055,342 1093,218Q1191,614 1241,753Q1291,892 1343,968Q1395,1043 1462,1081Q1528,1118 1616,1118Q1750,1118 1826,1043Q1902,967 1902,820Q1902,693 1833,582Z"  transform="translate(2821, 1100)"/>
<path d="M721,927Q750,782 750,619Q750,547 744,466Q737,384 737,284Q737,139 779,50L602,-8Q557,89 557,253Q557,372 564,471Q570,570 570,649Q570,719 564,767L456,763Q310,763 215,850Q120,937 120,1076Q120,1210 223,1328Q325,1446 527,1535Q728,1623 980,1660L1003,1599Q734,1528 584,1458Q433,1387 367,1302Q300,1217 300,1096Q300,1009 347,956Q394,903 473,903Q515,903 589,910Q663,916 721,927Z"  transform="translate(5016, 1100)"/>
<path d="M1921,1322Q1741,1130 1649,890Q1557,650 1557,378Q1557,320 1563,272Q1658,297 1740,297Q1851,297 1911,252Q1970,207 1970,126Q1970,85 1937,46Q1903,6 1847,-17Q1790,-40 1723,-40Q1539,-40 1448,103Q1332,43 1279,24Q1225,4 1170,-8Q1114,-20 1047,-20Q931,-20 872,37Q812,93 812,196Q812,254 827,329Q842,404 860,488Q878,572 893,663Q908,753 908,843Q908,898 874,938Q839,978 790,978Q694,978 619,930Q544,881 488,789Q432,696 389,542Q345,387 296,49L100,-5Q137,326 243,586Q348,845 500,982Q651,1118 832,1118Q950,1118 1019,1047Q1088,976 1088,859Q1088,783 1073,692Q1058,600 1040,509Q1022,417 1007,334Q992,251 992,192Q992,158 1010,139Q1028,120 1080,120Q1115,120 1150,126Q1184,132 1224,145Q1264,157 1398,213Q1377,286 1377,371Q1377,630 1511,905Q1644,1180 1873,1385L1921,1322ZM1728,187Q1661,187 1591,165Q1632,70 1729,70Q1820,70 1820,124Q1820,155 1795,171Q1770,187 1728,187Z"  transform="translate(5969, 1100)"/>
<path d="M2043,90Q2124,90 2176,214Q2228,337 2228,532Q2228,770 2186,873Q2144,976 2060,976Q2006,976 1957,889Q1908,801 1828,520L1791,392Q1733,201 1626,91Q1519,-20 1380,-20Q1260,-20 1198,51Q1136,122 1136,255Q1136,313 1148,381Q1159,448 1174,523Q1188,598 1200,681Q1211,764 1211,854Q1211,908 1177,943Q1142,978 1093,978Q1042,978 977,958Q911,937 864,907L867,799Q867,426 746,203Q625,-20 421,-20Q290,-20 220,91Q149,202 149,399Q149,469 156,612Q162,755 162,824Q162,969 120,1058L297,1116Q342,1019 342,855Q342,766 336,655Q329,544 329,411Q329,255 362,188Q394,120 458,120Q574,120 631,256Q687,391 687,734Q687,894 666,1036L849,1098L859,998Q927,1051 1009,1085Q1090,1118 1152,1118Q1223,1118 1277,1084Q1330,1049 1361,992Q1391,935 1391,870Q1391,757 1354,544Q1316,330 1316,251Q1316,185 1339,153Q1361,120 1413,120Q1447,120 1477,142Q1507,164 1532,201Q1557,238 1579,286Q1600,334 1618,386Q1635,437 1649,488Q1663,539 1675,582Q1749,870 1849,993Q1949,1116 2097,1116Q2191,1116 2260,1051Q2329,986 2369,855Q2408,723 2408,544Q2408,392 2366,262Q2324,131 2248,56Q2172,-20 2077,-20Q1995,-20 1922,29Q1848,78 1809,156L1875,196Q1957,90 2043,90Z"  transform="translate(7989, 1100)"/>
<path d=""  transform="translate(10517, 1100)"/>
<path d="M618,582Q649,588 680,588Q737,588 789,555Q840,521 870,461Q900,401 900,323Q900,51 682,-175Q464,-401 -3,-600L-50,-523Q347,-356 534,-160Q720,35 720,289Q720,363 678,410Q635,457 567,457Q517,457 467,440Q417,423 383,399L310,498Q419,561 475,646Q531,731 531,832Q531,978 380,978Q286,978 237,934Q188,889 171,796L70,796Q74,936 165,1027Q256,1118 392,1118Q547,1118 629,1047Q711,976 711,844Q711,773 687,705Q662,636 618,582Z"  transform="translate(11049, 1100)"/>
<path d="M793,-20Q671,120 610,290Q548,459 548,673Q548,829 585,1093Q629,1409 638,1530Q536,1508 469,1508Q330,1508 226,1547Q121,1585 61,1664Q0,1743 0,1836Q0,1918 53,1995Q105,2071 195,2116Q285,2160 397,2160Q597,2160 708,2033Q819,1906 823,1686Q980,1740 1135,1822L1164,1736Q1017,1647 820,1581Q814,1440 794,1300Q774,1160 753,1026Q731,892 715,765Q698,637 698,520Q698,379 733,258Q767,136 853,38L793,-20ZM469,1618Q548,1618 642,1637L643,1657L643,1676Q643,1833 572,1927Q501,2020 382,2020Q314,2020 262,1995Q209,1970 180,1928Q150,1885 150,1839Q150,1776 190,1723Q229,1670 301,1644Q373,1618 469,1618Z"  transform="translate(12029, 1100)"/>
<path d="M1037,1197L1056,1088Q1020,1028 998,890Q976,751 976,598Q976,268 1009,166L1050,168Q1165,168 1246,134Q1327,99 1370,37Q1413,-25 1413,-104Q1413,-232 1327,-306Q1241,-381 1092,-381Q1019,-381 946,-352Q872,-323 819,-274L864,-210Q952,-271 1073,-271Q1155,-271 1209,-232Q1263,-193 1263,-129Q1263,-54 1201,-14Q1139,26 1037,26Q909,26 752,3Q595,-20 462,-20Q334,-20 276,52Q217,124 217,280Q217,517 193,731Q168,945 120,1058L287,1116Q397,883 397,301Q397,229 406,191Q414,153 434,137Q454,120 500,120Q606,120 764,145L855,158Q829,220 813,339Q796,458 796,598Q796,805 848,1052Q727,1078 657,1176Q587,1273 587,1410Q587,1594 694,1748Q801,1902 1011,2013Q1221,2123 1477,2160L1500,2099Q770,1906 770,1422Q770,1308 816,1245Q862,1181 948,1181Q963,1181 974,1183Q985,1184 1037,1197Z"  transform="translate(13093, 1100)"/>
<path d="M849,1098L859,998Q927,1051 1009,1085Q1090,1118 1152,1118Q1322,1118 1418,964Q1513,810 1513,536Q1513,474 1504,381Q1495,288 1478,203L1537,172Q1632,120 1692,120Q1749,120 1786,177Q1823,233 1834,343Q1860,611 1918,791Q1975,970 2071,1117Q2166,1264 2303,1385L2351,1322Q2244,1224 2175,1095Q2105,965 2065,804Q2025,643 2004,362Q1990,166 1915,73Q1840,-20 1704,-20Q1655,-20 1605,-3Q1554,13 1492,48L1421,87Q1327,-40 1151,-40Q1042,-40 976,6Q910,52 910,118Q910,203 972,250Q1033,297 1140,297Q1231,297 1316,271Q1327,324 1330,375Q1333,425 1333,531Q1333,753 1272,866Q1211,978 1093,978Q1042,978 977,958Q911,937 864,907L867,799Q867,426 746,203Q625,-20 421,-20Q290,-20 220,91Q149,202 149,399Q149,469 156,612Q162,755 162,824Q162,969 120,1058L297,1116Q342,1019 342,855Q342,766 336,655Q329,544 329,411Q329,255 362,188Q394,120 458,120Q574,120 631,256Q687,391 687,734Q687,894 666,1036L849,1098ZM1284,155Q1204,187 1152,187Q1110,187 1085,171Q1060,155 1060,124Q1060,70 1151,70Q1240,70 1284,155Z"  transform="translate(14473, 1100)"/>
<path d="M1105,907L1018,998Q976,782 976,598Q976,372 994,294Q1051,305 1101,305Q1219,305 1286,258Q1353,211 1353,133Q1353,68 1297,24Q1240,-20 1155,-20Q1007,-20 899,144Q846,120 793,92Q740,63 686,39Q632,14 576,-3Q520,-20 462,-20Q334,-20 276,52Q217,124 217,280Q217,496 197,695Q176,893 139,1007L25,920L-23,985L501,1437Q604,1528 650,1528Q672,1528 696,1513Q720,1498 744,1476Q768,1453 913,1273Q1006,1540 1176,1767Q1345,1993 1577,2160L1625,2087Q1424,1938 1275,1691Q1126,1444 1043,1112L1167,960L1105,907ZM287,1116Q397,883 397,301Q397,229 406,191Q414,153 433,137Q452,120 495,120Q527,120 576,137Q625,154 743,207L846,250Q823,318 810,412Q796,505 796,598Q796,883 873,1151L777,1253Q693,1343 636,1343Q580,1343 471,1260L278,1113L287,1116ZM1108,195Q1075,195 1035,188Q1054,138 1080,114Q1106,90 1143,90Q1165,90 1184,101Q1203,112 1203,137Q1203,195 1108,195Z"  transform="translate(16824, 1100)"/>
<path d="M563,-20Q608,205 686,399L680,399Q627,399 590,420Q553,441 527,479Q501,517 485,572Q469,626 438,795Q421,886 389,932Q356,978 305,978Q266,978 207,963Q148,947 95,918L50,980Q120,1039 209,1079Q298,1118 364,1118Q439,1118 491,1080Q542,1041 570,969Q598,897 619,722Q631,622 651,581Q670,539 704,539Q725,539 753,544Q918,871 1221,1118L1259,1049Q1126,910 1032,759Q938,608 877,441Q816,273 772,35L563,-20Z"  transform="translate(18204, 1100)"/>
<path d=""  transform="translate(19563, 1100)"/>
<path d="M732,391Q798,616 798,784Q798,978 700,978Q565,978 467,763Q369,547 296,49L100,-5Q135,304 229,565Q322,825 456,972Q590,1118 742,1118Q906,1118 954,927Q1016,1020 1088,1069Q1160,1118 1232,1118Q1363,1118 1428,1024Q1492,930 1492,732Q1492,606 1486,495Q1479,384 1479,284Q1479,139 1521,50L1344,-8Q1299,89 1299,253Q1299,372 1306,490Q1312,608 1312,729Q1312,866 1290,922Q1268,978 1209,978Q1141,978 1075,908Q1008,838 972,741Q968,603 908,391L732,391Z"  transform="translate(20095, 1100)"/>
<path d="M515,427Q481,420 438,420Q297,420 199,513Q100,605 100,743Q100,846 153,933Q206,1020 303,1069Q399,1118 521,1118Q762,1118 901,965Q1040,811 1040,535Q1040,305 921,87Q801,-131 581,-310Q361,-489 77,-600L30,-523Q442,-349 651,-79Q860,191 860,540Q860,750 773,864Q686,978 528,978Q417,978 349,917Q280,856 280,745Q280,640 323,585Q365,530 444,530Q470,530 486,534L515,427Z"  transform="translate(21736, 1100)"/>
<path d="M117,495Q239,487 352,469L352,486Q352,799 470,1112Q587,1425 808,1694Q1028,1963 1329,2160L1377,2087Q1129,1922 934,1665Q739,1408 636,1111Q532,814 532,523L532,476L534,431Q731,378 833,302Q934,225 934,132Q934,57 870,9Q805,-40 710,-40Q568,-40 475,65Q382,169 359,361Q243,384 100,399L117,495ZM794,124Q794,237 544,316Q579,70 703,70Q747,70 771,89Q794,107 794,124Z"  transform="translate(22876, 1100)"/>
<path d="M322,855Q322,766 316,655Q309,544 309,411Q309,255 342,188Q374,120 438,120Q507,120 568,224Q628,327 693,582Q767,870 867,993Q967,1116 1115,1116Q1225,1116 1308,1045Q1391,973 1439,839Q1486,705 1486,544Q1486,389 1443,259Q1400,128 1321,54Q1241,-20 1140,-20Q1058,-20 985,29Q911,78 872,156L938,196Q1020,90 1106,90Q1191,90 1249,220Q1306,350 1306,532Q1306,732 1244,854Q1182,976 1078,976Q1008,976 950,877Q891,777 814,511L776,382Q654,-20 401,-20Q270,-20 200,91Q129,202 129,399Q129,469 136,612Q142,755 142,824Q142,969 100,1058L277,1116Q322,1019 322,855Z"  transform="translate(23868, 1100)"/>
<path d="M241,497Q220,444 220,388Q220,266 305,193Q390,120 531,120Q665,120 763,191Q861,261 913,387Q965,513 965,668L965,682L964,696Q719,604 577,604Q449,604 373,662Q296,719 296,811Q296,888 353,961Q409,1033 507,1076Q604,1118 719,1118Q867,1118 968,1056Q1068,993 1114,867Q1238,925 1288,939Q1337,953 1378,953Q1499,953 1559,872Q1619,790 1619,635Q1619,395 1492,151Q1364,-94 1139,-293Q913,-492 636,-600L589,-523Q852,-412 1043,-237Q1233,-63 1336,165Q1439,392 1439,631Q1439,843 1322,843Q1271,843 1182,796L1137,773Q1145,721 1145,672Q1145,484 1064,324Q983,163 838,72Q693,-20 516,-20Q394,-20 299,32Q203,84 152,176Q100,268 100,382Q100,473 136,554L241,497ZM612,714Q739,714 949,795Q897,978 704,978Q633,978 575,956Q517,934 482,895Q446,855 446,814Q446,773 486,744Q526,714 612,714Z"  transform="translate(25474, 1100)"/>
<path d="M1251,1037Q1152,912 1094,801Q1036,689 1010,580Q983,470 983,306Q983,45 1161,-172Q1339,-389 1667,-523L1620,-600Q1215,-445 1009,-217Q803,11 803,298Q803,410 844,544Q885,678 970,816Q928,882 888,913Q848,944 794,961Q740,978 667,978Q576,978 487,886Q397,793 339,644Q280,494 280,360Q280,237 316,186Q351,135 424,135Q510,135 592,241L658,201Q619,123 545,74Q471,25 390,25Q251,25 176,113Q100,200 100,358Q100,527 189,712Q278,897 414,1008Q549,1118 691,1118Q765,1118 824,1102Q883,1086 933,1059Q982,1032 1067,957Q1123,1027 1188,1092L1251,1037Z"  transform="translate(27213, 1100)"/>
<path d=""  transform="translate(28560, 1100)"/>
<path d="M376,68L196,15Q161,111 141,239Q120,366 120,481Q120,676 184,825Q248,973 371,1056Q493,1138 660,1138Q870,1138 1010,976Q1142,1072 1291,1138L1330,1069Q1202,995 1071,891Q1162,739 1162,542Q1162,296 1074,80Q985,-136 815,-304Q644,-473 400,-580L353,-503Q677,-344 830,-94Q982,156 982,527Q982,672 940,779Q594,465 377,68L376,68ZM300,527Q300,356 322,235Q586,627 886,880Q794,998 641,998Q480,998 390,873Q300,747 300,527Z"  transform="translate(29092, 1100)"/>
<path d="M765,1228Q916,1147 1005,1093Q1121,1261 1260,1385L1308,1322Q1192,1201 1102,1033Q1258,933 1337,870L1295,806Q1210,864 1058,942Q944,680 944,378Q944,320 950,272Q1045,297 1127,297Q1238,297 1298,252Q1357,207 1357,126Q1357,85 1324,46Q1290,6 1234,-17Q1177,-40 1110,-40Q926,-40 835,103Q743,54 632,17Q520,-20 447,-20Q339,-20 276,42Q212,103 212,215Q212,263 226,360Q239,456 239,502Q239,590 223,712Q207,833 181,919Q155,1005 120,1058L287,1116Q347,1010 383,844Q419,677 419,499Q419,427 406,323Q392,218 392,197Q392,154 408,137Q424,120 469,120Q507,120 546,128Q585,136 626,149Q666,161 785,213Q764,286 764,371Q764,681 945,997L696,1113L765,1228ZM1115,187Q1048,187 978,165Q1019,70 1116,70Q1207,70 1207,124Q1207,155 1182,171Q1157,187 1115,187Z"  transform="translate(30442, 1100)"/>
<path d="M-55,234Q115,354 300,453Q391,765 556,942Q721,1118 925,1118Q1038,1118 1095,1041Q1151,963 1151,814L1147,741Q1345,775 1546,791Q1577,1069 1697,1298Q1817,1526 2035,1721L2083,1658Q1970,1550 1903,1439Q1835,1327 1796,1188Q1756,1048 1729,802Q1868,808 2012,808L2009,721Q1857,717 1719,705Q1688,348 1573,164Q1457,-20 1261,-20Q1116,-20 1028,87Q939,194 939,367Q939,451 950,565Q686,486 454,367Q434,240 416,49L220,-5Q229,129 253,254Q151,191 -7,76L-55,234ZM1298,120Q1350,120 1390,149Q1429,178 1456,233Q1483,287 1503,381Q1522,475 1537,686Q1319,658 1134,614Q1119,477 1119,379Q1119,263 1168,192Q1217,120 1298,120ZM870,978Q602,978 491,544Q722,644 963,701Q971,810 971,853Q971,921 945,950Q919,978 870,978Z"  transform="translate(31984, 1100)"/>
<path d="M2537,2088Q2345,1943 2193,1802Q2040,1661 1920,1525Q1800,1389 1709,1259Q1618,1129 1551,1006Q1483,883 1435,768Q1386,652 1351,546Q1332,489 1313,431Q1294,372 1275,317Q1256,261 1239,212Q1222,162 1208,123Q1284,122 1344,104Q1404,85 1446,54Q1488,22 1511,-21Q1533,-65 1533,-115Q1533,-166 1516,-213Q1498,-261 1459,-298Q1419,-335 1356,-357Q1292,-380 1199,-380Q1159,-380 1122,-371Q1085,-362 1052,-347Q1019,-332 991,-313Q962,-294 939,-274L984,-210Q1022,-239 1077,-254Q1131,-270 1181,-270Q1214,-270 1250,-265Q1285,-260 1315,-245Q1344,-230 1364,-202Q1383,-174 1383,-128Q1383,-98 1367,-74Q1351,-51 1323,-35Q1295,-20 1258,-12Q1221,-4 1178,-4Q1148,-4 1120,-7Q1104,-14 1089,-16Q1074,-19 1061,-19Q1034,-19 1011,-6Q987,7 974,34Q955,74 935,136Q915,197 895,271Q875,344 856,424Q837,503 822,580Q806,656 795,724Q783,791 778,840Q764,823 747,784Q730,745 712,692Q694,639 676,576Q657,513 640,449Q622,385 606,325Q590,264 578,215Q565,166 557,133Q549,100 546,92Q531,45 506,13Q481,-19 440,-19Q413,-19 390,-9Q367,0 346,36Q318,84 290,167Q261,249 234,349Q207,449 184,558Q160,666 142,766Q124,866 113,950Q101,1033 100,1082L263,1119Q267,1076 275,1018Q283,960 294,894Q304,827 318,756Q331,684 346,614Q360,543 375,478Q389,412 403,358Q417,304 430,264Q443,224 453,205Q482,332 516,449Q549,566 584,668Q619,769 654,852Q689,935 721,995Q752,1054 779,1087Q805,1119 824,1119Q865,1119 885,1092Q905,1065 913,1020Q920,981 932,921Q944,860 959,789Q974,717 991,640Q1007,563 1024,491Q1040,419 1056,356Q1072,293 1085,250Q1098,293 1109,332Q1120,371 1134,414Q1147,456 1165,507Q1182,557 1208,624Q1305,879 1436,1093Q1566,1306 1727,1492Q1888,1677 2079,1841Q2270,2005 2489,2161L2537,2088Z"  transform="translate(33887, 1100)"/>
<path d="M1749,-20Q1694,-20 1662,14Q1630,47 1594,130Q1558,213 1519,343Q1480,472 1452,608Q1424,743 1417,839Q1367,768 1229,276L1162,45Q1152,13 1129,-3Q1105,-20 1061,-20Q1015,-20 988,11Q961,42 914,203Q866,364 828,550Q789,735 778,839Q741,794 680,590Q619,385 557,132Q539,58 512,19Q484,-20 440,-20Q391,-20 366,7Q341,34 311,110Q280,185 245,311Q209,436 177,588Q144,740 123,877Q102,1013 100,1081L263,1118Q279,936 348,603Q416,270 453,204Q505,430 574,637Q643,843 714,981Q785,1118 824,1118Q895,1118 913,1019Q932,914 994,628Q1055,342 1093,218Q1131,404 1204,619Q1277,834 1351,976Q1425,1118 1463,1118Q1534,1118 1552,1019L1568,929Q1654,412 1749,225Q1811,465 1848,578Q1885,690 1932,796Q1979,902 2041,1003Q2102,1104 2183,1201Q2263,1297 2369,1385L2417,1322Q2251,1160 2118,875Q1985,590 1892,193Q1869,96 1852,56Q1835,15 1810,-2Q1785,-20 1749,-20Z"  transform="translate(35774, 1100)"/>
<path d="M120,-5Q176,477 358,779Q143,980 143,1233Q143,1458 370,1701Q596,1944 999,2160L1047,2087Q817,1964 655,1822Q493,1679 408,1529Q323,1378 323,1237Q323,1060 452,912Q629,1118 852,1118Q934,1118 998,1083Q1061,1048 1095,989Q1128,929 1128,859Q1128,814 1121,757Q1113,699 1071,489Q1232,391 1291,324Q1349,256 1349,187Q1349,99 1281,40Q1213,-20 1107,-20Q995,-20 936,43Q876,106 876,216Q876,302 898,441Q673,558 602,601Q531,644 461,694Q420,593 388,454Q355,315 316,49L120,-5ZM810,978Q644,978 535,829Q620,755 720,694Q820,632 920,575Q948,748 948,843Q948,892 906,935Q864,978 810,978ZM1210,165Q1210,256 1045,359Q1026,245 1026,190Q1026,143 1052,117Q1078,90 1113,90Q1210,90 1210,165Z"  transform="translate(38191, 1100)"/>
<path d=""  transform="translate(39660, 1100)"/>
<path d="M928,-8Q883,89 883,253Q883,342 890,448Q896,554 896,687Q896,847 855,913Q813,978 727,978Q612,978 508,900Q404,822 342,691Q280,560 280,418Q280,292 320,201Q360,110 454,58L397,-30Q258,17 179,133Q100,248 100,409Q100,570 193,739Q286,907 436,1013Q586,1118 743,1118Q907,1118 992,1011Q1076,904 1076,699Q1076,598 1070,491Q1063,384 1063,284Q1063,138 1105,49L928,-8Z"  transform="translate(40192, 1100)"/>
<path d="M849,1098L859,990Q933,1048 1015,1083Q1097,1118 1162,1118Q1233,1118 1287,1084Q1340,1049 1371,992Q1401,935 1401,870Q1401,751 1352,504Q1321,353 1312,292Q1302,230 1302,192Q1302,158 1320,139Q1338,120 1390,120Q1427,120 1464,127Q1501,134 1542,147Q1582,159 1708,213Q1687,286 1687,371Q1687,630 1821,905Q1954,1180 2183,1385L2231,1322Q2051,1130 1959,890Q1867,650 1867,378Q1867,320 1873,272Q1968,297 2050,297Q2161,297 2221,252Q2280,207 2280,126Q2280,85 2247,46Q2213,6 2157,-17Q2100,-40 2033,-40Q1849,-40 1758,103Q1620,29 1534,5Q1448,-20 1357,-20Q1241,-20 1182,37Q1122,93 1122,196Q1122,259 1138,340Q1153,421 1172,509Q1190,597 1206,686Q1221,775 1221,854Q1221,908 1187,943Q1152,978 1103,978Q1048,978 978,954Q907,930 865,901L867,799Q867,426 746,203Q625,-20 421,-20Q290,-20 220,91Q149,202 149,399Q149,469 156,612Q162,755 162,824Q162,969 120,1058L297,1116Q342,1019 342,855Q342,766 336,655Q329,544 329,411Q329,255 362,188Q394,120 458,120Q574,120 631,256Q687,391 687,734Q687,894 666,1036L849,1098ZM2038,187Q1971,187 1901,165Q1942,70 2039,70Q2130,70 2130,124Q2130,155 2105,171Q2080,187 2038,187Z"  transform="translate(41417, 1100)"/>
<path d="M470,-20Q435,-20 411,-10Q387,-1 366,35Q328,97 270,275Q211,453 152,704Q92,954 80,1081L243,1118Q255,1009 299,815Q342,620 394,445Q445,270 470,225Q532,465 569,578Q606,690 653,796Q700,902 762,1003Q823,1104 904,1201Q984,1297 1090,1385L1138,1322Q972,1160 839,875Q706,590 613,193Q590,96 573,56Q556,15 531,-2Q506,-20 470,-20Z"  transform="translate(43747, 1100)"/>
<path d="M451,668Q475,748 548,801Q620,854 715,854Q815,854 893,802Q971,750 1016,657Q1060,564 1060,459Q1060,322 1001,212Q941,102 834,41Q727,-20 597,-20Q452,-20 344,45Q235,109 178,228Q120,347 120,496Q120,710 257,929Q394,1147 676,1385L731,1334Q542,1153 457,1033Q372,913 336,785Q300,657 300,496Q300,312 376,216Q451,120 599,120Q730,120 805,211Q880,302 880,460Q880,595 832,670Q784,744 700,744Q586,744 552,623L451,668Z"  transform="translate(44885, 1100)"/>
<path d="M1058,1090L1056,1088Q1020,1028 998,890Q976,751 976,598Q976,372 994,294Q1051,305 1101,305Q1219,305 1286,258Q1353,211 1353,133Q1353,68 1297,24Q1240,-20 1155,-20Q1007,-20 899,144Q846,120 793,92Q740,63 686,39Q632,14 576,-3Q520,-20 462,-20Q334,-20 276,52Q217,124 217,280Q217,517 193,731Q168,945 120,1058L287,1116Q397,883 397,301Q397,229 406,191Q414,153 433,137Q452,120 495,120Q527,120 576,137Q625,154 743,207L846,250Q823,318 810,412Q796,505 796,598Q796,831 848,1052Q727,1078 657,1176Q587,1273 587,1410Q587,1594 694,1748Q801,1902 1011,2013Q1221,2123 1477,2160L1500,2099Q770,1906 770,1422Q770,1308 816,1245Q862,1181 948,1181Q963,1181 974,1183Q985,1184 1037,1197L1058,1090ZM1108,195Q1075,195 1035,188Q1054,138 1080,114Q1106,90 1143,90Q1165,90 1184,101Q1203,112 1203,137Q1203,195 1108,195Z"  transform="translate(46065, 1100)"/>
<path d="M287,1116Q397,883 397,301Q397,229 406,191Q414,153 433,137Q452,120 495,120Q527,120 576,137Q625,154 743,207L846,250Q823,318 810,412Q796,505 796,598Q796,911 891,1209Q986,1506 1160,1745Q1334,1984 1577,2160L1625,2087Q1436,1947 1291,1717Q1146,1486 1061,1180Q976,874 976,598Q976,372 994,294Q1051,305 1101,305Q1219,305 1286,258Q1353,211 1353,133Q1353,68 1297,24Q1240,-20 1155,-20Q1007,-20 899,144Q846,120 793,92Q740,63 686,39Q632,14 576,-3Q520,-20 462,-20Q334,-20 276,52Q217,124 217,280Q217,517 193,731Q168,945 120,1058L287,1116ZM1108,195Q1075,195 1035,188Q1054,138 1080,114Q1106,90 1143,90Q1165,90 1184,101Q1203,112 1203,137Q1203,195 1108,195Z"  transform="translate(47445, 1100)"/>
</svg>
