<svg xmlns="http://www.w3.org/2000/svg" viewBox="0 0 41050 3900" transform="translate(0, 3900) scale(1, -1)">
<path d="M310,893Q371,893 371,967Q371,1040 310,1040Q249,1040 249,967Q249,893 310,893ZM284,343Q284,124 654,124Q1022,124 1022,392L1022,1105Q1022,1140 1090,1140Q1157,1140 1157,1105L1156,389Q1155,0 651,0Q147,0 147,343Q147,541 259,696Q297,748 322,795Q147,797 147,967Q147,1138 325,1140Q503,1138 503,967Q503,820 394,659Q284,497 284,343Z"  transform="translate(0, 1300)"/>
<path d="M717,191Q717,244 669,244Q621,244 621,191Q621,138 669,138Q717,138 717,191ZM522,312Q522,207 539,203Q549,321 675,321Q800,321 802,198Q796,0 631,0Q399,0 399,312L399,921Q401,1079 529,1207Q656,1334 656,1441Q653,1657 401,1657Q135,1657 135,1441Q151,1319 232,1304Q240,1303 247,1303Q304,1303 346,1370L442,1296Q351,1176 256,1176Q242,1176 227,1179Q170,1183 127,1211Q84,1239 54,1276Q23,1312 12,1352Q0,1392 0,1441Q0,1784 401,1784Q792,1784 795,1441Q795,1298 614,1126Q522,1038 522,921L522,312Z"  transform="translate(1325, 1300)"/>
<path d="M462,989Q462,1053 398,1053Q333,1053 333,989Q333,926 398,926Q462,926 462,989ZM963,926Q1024,942 1037,992Q1013,1048 963,1048Q902,1048 895,979Q902,926 963,926ZM682,103Q612,0 460,0Q168,0 168,335L168,860Q168,1132 398,1140Q567,1136 567,981L567,970Q548,831 415,825Q349,825 303,873L303,335Q303,127 462,127Q615,127 615,309L615,374Q615,424 682,424Q749,424 749,367L746,323L746,316Q746,127 897,127Q1051,127 1051,335L1051,865Q1025,825 948,825Q805,831 789,974Q789,1128 967,1140Q1044,1140 1084,1096Q1092,1131 1092,1160Q1092,1170 1091,1180L1091,1182Q1091,1210 1137,1210Q1185,1210 1192,1195Q1198,1179 1200,1141Q1198,1094 1167,1009Q1186,946 1186,855L1186,335Q1186,0 905,0Q753,0 682,103Z"  transform="translate(2274, 1300)"/>
<path d="M407,85Q481,85 481,154Q481,223 407,223Q332,223 332,154Q332,85 407,85ZM935,0Q876,0 815,40Q753,79 713,176Q673,273 611,322Q549,370 478,375Q465,376 453,376Q317,376 300,281Q343,323 399,323Q583,303 583,182Q585,165 585,150Q585,2 389,0Q147,6 147,261Q169,507 457,507L471,507Q591,493 681,440Q771,387 825,264Q879,141 935,141Q1024,141 1024,200L1024,800Q1024,1005 676,1005L649,1005Q282,1005 281,831Q281,800 214,800Q147,800 147,831Q147,1140 652,1140Q1157,1140 1157,799L1157,200Q1157,0 935,0Z"  transform="translate(3628, 1300)"/>
<path d="M377,902Q377,972 308,972Q239,972 239,902Q239,832 308,832Q377,832 377,902ZM599,0Q537,0 537,34L537,828Q537,983 428,996Q470,955 470,902Q470,729 329,729Q313,727 298,727Q149,727 147,912Q153,1140 378,1140Q660,1140 660,825L660,34Q660,0 599,0Z"  transform="translate(4953, 1300)"/>
<path d="M346,353Q331,367 310,367Q286,367 271,353Q255,338 255,316Q255,293 271,279Q286,265 310,265Q331,265 346,279Q360,293 360,316L360,317Q360,339 346,353ZM1014,803Q1014,865 979,904Q937,949 872,971Q807,993 726,1003Q689,1007 650,1007Q601,1007 547,1001Q450,988 396,962Q342,935 309,884Q282,842 282,800Q282,790 284,781Q291,730 347,689Q403,648 521,636Q575,630 626,630Q686,630 741,638Q844,652 913,682Q982,711 1013,781Q1014,792 1014,803ZM617,0Q411,9 314,66Q231,104 191,164Q151,224 147,297Q156,360 183,399Q210,437 260,450Q286,457 311,457Q332,457 352,452Q395,441 418,415Q440,388 449,359Q453,341 453,322Q453,309 451,295Q445,261 421,230Q397,200 376,200L373,200Q395,170 506,152Q590,138 654,138Q676,138 695,139Q772,145 832,165Q891,184 933,212Q975,239 1005,294Q1030,340 1030,419Q1030,435 1029,452L1029,611Q980,565 912,541Q844,517 741,508Q664,501 594,501Q571,501 548,502Q458,505 394,526Q330,546 275,581Q220,616 188,669Q156,722 152,776Q150,793 150,810Q150,844 156,875Q165,921 211,981Q257,1041 337,1076Q416,1110 499,1125Q582,1140 650,1140Q744,1140 842,1116Q940,1091 1007,1048Q1073,1005 1115,930Q1157,855 1157,747L1157,345Q1157,285 1125,217Q1088,157 1042,120Q996,83 925,53Q854,22 725,9L617,0Z"  transform="translate(5781, 1300)"/>
<path d=""  transform="translate(7106, 1300)"/>
<path d="M291,893Q346,893 346,967Q346,1040 291,1040Q237,1040 237,967Q237,893 291,893ZM667,1045Q624,1041 621,1001Q621,957 674,957L676,957Q696,957 712,959Q708,1045 667,1045ZM846,353Q846,0 491,0Q147,0 147,343Q147,541 247,696Q280,748 302,795Q147,797 147,967Q147,1138 305,1140Q464,1138 464,967Q464,820 373,659Q281,498 281,344Q282,134 492,133Q714,133 714,351L714,855Q696,853 676,853Q540,853 540,997Q540,1140 667,1140Q785,1140 824,1039Q961,1140 1072,1140Q1345,1138 1347,861L1347,44Q1347,0 1281,0Q1214,0 1213,47L1213,864Q1212,1006 1070,1006Q945,1006 855,929Q847,917 846,906L846,353Z"  transform="translate(7746, 1300)"/>
<path d="M368,-143Q342,-121 301,-121Q262,-121 240,-143Q220,-163 220,-192Q220,-197 221,-203Q226,-270 344,-285Q393,-251 393,-205L393,-203Q393,-166 368,-143ZM875,1085Q875,1028 859,988Q842,948 797,936Q774,930 746,930Q720,930 692,935Q631,946 564,967Q496,987 420,1011Q343,1034 295,1036L286,1036Q246,1036 241,1017L241,1012Q241,994 283,984Q330,973 401,955Q471,936 554,911Q637,885 709,850Q781,815 828,772Q875,729 875,676L875,-45Q875,-64 876,-100L876,-109Q876,-142 870,-180Q862,-223 844,-262Q826,-301 788,-338Q750,-375 689,-399Q632,-422 531,-422L523,-422Q426,-422 356,-410Q282,-398 220,-370Q157,-343 129,-304Q100,-266 100,-201L100,-194Q100,-121 154,-68Q209,-14 270,-8Q287,-7 302,-7Q341,-7 368,-16Q406,-29 436,-53Q465,-77 485,-119Q500,-150 500,-189Q500,-203 498,-219Q490,-276 464,-296Q500,-306 538,-306Q549,-306 559,-305Q608,-302 652,-280Q695,-259 711,-212Q727,-165 731,-110Q735,-55 735,-6L735,614Q735,701 500,786L201,887Q114,914 114,986Q114,993 115,1001Q123,1057 144,1087Q165,1117 194,1128Q223,1139 276,1140L281,1140Q333,1140 420,1124Q512,1106 580,1088Q647,1069 691,1059Q695,1058 699,1058Q735,1058 735,1139L875,1139L875,1085Z"  transform="translate(9261, 1300)"/>
<path d="M311,908Q363,908 363,975Q363,1041 311,1041Q259,1041 259,975Q259,908 311,908ZM1140,335Q1140,7 861,0Q717,0 650,101Q584,0 452,0Q173,0 173,350Q173,552 268,690Q300,743 322,791Q147,803 147,976Q147,1151 325,1153Q496,1142 496,967Q496,818 400,663Q304,507 304,350Q308,135 456,135Q586,135 586,318Q586,333 585,350L585,1108Q585,1134 651,1134Q717,1134 717,1108L717,237Q717,135 862,135Q1009,135 1009,336Q1009,349 1008,363L1008,1163L1009,1163Q1009,1220 1011,1261Q1012,1310 1018,1353Q1023,1395 1033,1430Q1042,1465 1110,1465Q1168,1465 1168,1447Q1168,1444 1166,1441Q1155,1417 1149,1373Q1143,1329 1142,1274Q1140,1219 1140,1146L1140,335Z"  transform="translate(10305, 1300)"/>
<path d="M272,882Q290,864 321,864Q352,864 369,881Q385,898 385,926Q385,954 367,972Q348,989 319,989Q287,989 271,972Q254,955 254,927Q254,900 272,882ZM199,813Q147,875 147,934L147,944Q152,1008 194,1047Q236,1086 286,1090Q297,1091 307,1091Q345,1091 379,1080Q422,1066 446,1037Q469,1008 478,979Q486,953 486,926L486,920Q485,890 474,861Q462,832 432,805Q468,786 532,786Q544,786 556,787Q656,791 730,846Q831,919 853,1081L984,1081Q947,886 839,785Q730,684 550,684Q469,684 362,715Q255,746 199,813ZM272,238Q290,220 321,220Q352,220 369,237Q385,254 385,282Q385,310 367,328Q348,345 319,345Q287,345 271,328Q254,311 254,283Q254,256 272,238ZM199,169Q147,231 147,290L147,300Q152,364 194,403Q236,442 286,446Q297,447 307,447Q345,447 379,436Q422,422 446,393Q469,364 478,335Q486,309 486,282L486,276Q485,246 474,217Q462,188 432,161Q468,142 532,142Q544,142 556,143Q656,147 730,202Q831,275 853,437L984,437Q947,242 839,141Q730,40 550,40Q469,40 362,71Q255,102 199,169Z"  transform="translate(11614, 1300)"/>
<path d="M378,836Q310,836 310,767Q310,698 378,698Q445,698 445,767Q445,836 378,836ZM231,73Q147,145 147,240Q147,448 440,532L652,594Q1024,694 1024,818Q1019,904 929,957Q838,1009 623,1009Q328,1009 286,887Q326,929 377,929Q545,929 545,788Q547,772 547,758Q547,608 368,606Q147,612 147,837Q147,1140 623,1140Q764,1138 836,1126Q921,1111 992,1074Q1063,1037 1111,975Q1157,912 1157,815Q1157,599 699,471L460,403Q279,350 279,240Q280,202 321,168Q361,133 412,133Q474,133 641,194Q807,254 889,254Q989,254 1073,170L1111,126Q1139,83 1147,42L1147,32Q1147,0 1097,0Q1040,0 1037,26Q1029,46 986,84Q942,121 891,121Q830,121 660,62Q490,2 414,0Q315,0 231,73Z"  transform="translate(12745, 1300)"/>
<path d="M389,225Q318,225 318,158Q318,90 389,90Q460,90 460,158Q460,225 389,225ZM147,380Q147,539 313,602Q147,665 147,833Q147,1140 651,1140Q1155,1140 1157,787L1157,41Q1157,0 1090,0Q1022,0 1022,41L1022,789Q1022,1016 654,1016Q284,1016 284,833Q284,728 347,694Q409,659 473,657Q552,657 552,602Q552,547 512,547Q472,547 347,515Q284,475 284,380L284,262L293,275Q335,317 409,317Q565,317 565,178Q567,162 567,147Q567,2 389,0Q147,6 147,295L147,380Z"  transform="translate(14049, 1300)"/>
<path d=""  transform="translate(15374, 1300)"/>
<path d="M460,982Q460,1050 389,1050Q318,1050 318,982Q318,915 389,915Q460,915 460,982ZM654,124Q1022,124 1022,343L1022,1109Q1022,1140 1090,1140Q1157,1140 1157,1110L1156,343Q1155,0 651,0Q147,0 147,356Q147,515 313,577Q147,640 147,799L147,845Q147,1134 389,1140Q567,1138 567,993Q567,978 565,962Q565,823 409,823Q335,823 293,865L284,878L284,799Q284,704 347,670Q409,636 481,636Q552,636 552,578Q552,519 481,519Q409,519 347,485Q284,451 284,356Q284,124 654,124Z"  transform="translate(16014, 1300)"/>
<path d="M386,424Q318,424 318,357Q318,289 386,289Q453,289 453,357Q453,424 386,424ZM519,1139Q535,1140 554,1140Q581,1140 614,1138Q667,1135 734,1127Q800,1119 863,1106Q925,1093 980,1071Q1034,1049 1080,1011Q1126,972 1142,935Q1145,926 1145,918Q1145,889 1104,861Q1076,842 1060,842Q1045,842 1040,859Q1030,893 993,913Q956,933 910,953Q863,972 814,978Q764,984 688,994Q612,1004 521,1005Q383,996 342,965Q300,934 289,878L289,865Q289,743 469,716L776,656Q1157,593 1157,336Q1157,222 1111,161Q1063,100 992,64Q921,28 836,14Q764,2 623,0Q147,0 147,295Q147,495 368,501Q547,499 547,369Q547,357 545,343Q545,206 377,206Q326,206 286,246Q328,128 623,128Q838,128 929,179Q1019,230 1024,333Q1024,473 748,533L444,587Q147,635 147,858Q157,970 199,1018Q241,1066 283,1089Q325,1111 380,1126Q441,1134 519,1139Z"  transform="translate(17339, 1300)"/>
<path d="M192,193L192,191Q192,144 233,144Q274,144 275,193Q275,242 234,242Q192,242 192,193ZM509,88Q438,0 281,0Q105,0 100,193Q102,326 238,326L240,326Q369,325 369,214L369,201Q369,156 342,132Q425,132 437,293L437,1112Q437,1140 505,1140Q572,1140 572,1112L571,292L571,291Q571,135 842,135Q857,134 872,134Q1096,134 1115,294L1115,1112Q1115,1140 1183,1140Q1250,1140 1250,1113L1250,292Q1232,0 841,0Q614,0 509,88Z"  transform="translate(18643, 1300)"/>
<path d="M-577,1672Q-528,1672 -481,1648Q-434,1623 -408,1577Q-382,1531 -382,1481Q-382,1432 -407,1387Q-433,1341 -479,1316Q-526,1291 -577,1291Q-628,1291 -674,1316Q-721,1341 -747,1387Q-773,1432 -773,1481Q-773,1531 -746,1577Q-720,1623 -673,1648Q-627,1672 -577,1672ZM-616,1554Q-636,1543 -647,1524Q-659,1505 -659,1484Q-659,1463 -648,1444Q-637,1425 -617,1415Q-598,1404 -577,1404Q-555,1404 -535,1415Q-516,1425 -505,1444Q-495,1463 -495,1484Q-495,1505 -506,1524Q-517,1543 -536,1554Q-556,1564 -577,1564Q-597,1564 -616,1554Z"  transform="translate(20061, 1300)"/>
<path d="M377,902Q377,972 308,972Q239,972 239,902Q239,832 308,832Q377,832 377,902ZM599,0Q537,0 537,34L537,828Q537,983 428,996Q470,955 470,902Q470,729 329,729Q313,727 298,727Q149,727 147,912Q153,1140 378,1140Q660,1140 660,825L660,34Q660,0 599,0Z"  transform="translate(20061, 1300)"/>
<path d="M474,161Q474,230 400,230Q325,230 325,161Q325,92 400,92Q474,92 474,161ZM1090,984Q1157,903 1157,780L1157,200Q1157,0 934,0Q876,0 815,50Q753,99 713,196Q673,293 616,337Q559,380 478,380Q314,380 300,281Q343,323 400,323Q583,313 583,182Q585,166 585,151Q585,2 389,0Q147,6 147,251Q166,498 478,513Q590,513 681,455Q771,397 825,269Q879,141 934,141Q1024,141 1024,200L1024,780Q1024,811 1010,848Q828,667 535,667Q147,667 147,900Q147,1140 574,1140L585,1140Q834,1140 975,1071Q1011,1167 1018,1187Q1021,1199 1045,1199Q1063,1199 1091,1193Q1149,1180 1149,1159Q1149,1156 1148,1153Q1138,1127 1090,984ZM896,950Q790,1006 573,1006Q285,1006 285,900Q285,798 531,798Q763,798 896,950Z"  transform="translate(20889, 1300)"/>
<path d="M666,581L666,576Q666,511 740,511L742,511Q820,512 820,582Q820,651 745,651Q669,651 666,581ZM662,1010Q302,1010 302,847Q302,803 225,803Q147,803 147,847Q147,1140 666,1140Q1157,1140 1157,837Q1157,820 1156,802L1156,205Q1156,2 935,0Q783,5 739,107Q718,154 718,199Q718,253 747,304Q799,399 799,404Q777,384 711,384L705,384Q535,410 530,578L530,588Q530,747 718,779L721,779Q920,779 949,632Q958,582 958,538Q958,451 921,385Q865,286 861,215Q860,211 860,207Q860,142 935,129L945,129Q1013,129 1021,209L1021,802Q1021,1010 662,1010Z"  transform="translate(22214, 1300)"/>
<path d=""  transform="translate(23539, 1300)"/>
<path d="M460,982Q460,1050 389,1050Q318,1050 318,982Q318,915 389,915Q460,915 460,982ZM843,648Q843,682 823,695Q803,708 780,708Q753,708 736,689Q718,670 718,652Q718,633 736,613Q753,592 782,592Q805,592 824,609Q843,626 843,648ZM1156,468L1156,343Q1155,0 651,0Q147,0 147,356Q147,515 313,577Q147,640 147,799L147,845Q147,1134 389,1140Q567,1138 567,993Q567,978 565,962Q565,823 409,823Q335,823 293,865L284,878L284,799Q284,704 347,670Q409,636 481,636Q552,636 552,578Q552,519 481,519Q409,519 347,485Q284,451 284,356Q284,124 654,124Q1022,124 1022,343L1022,459Q1003,459 974,458Q960,457 944,457Q916,457 886,459Q838,461 786,472Q734,483 693,506Q651,528 623,570Q597,608 597,657L597,667Q599,709 616,736Q633,762 660,782Q686,801 714,809Q742,817 763,817Q769,817 792,816Q814,815 841,808Q868,801 897,782Q926,762 938,743Q949,723 956,708Q962,693 964,672L964,662Q964,645 960,629Q954,607 936,584Q936,581 988,581L1022,581L1022,1109Q1022,1140 1090,1140Q1157,1140 1157,1110L1156,591Q1184,598 1209,612Q1240,629 1267,675Q1293,720 1312,796L1447,798Q1423,613 1326,537Q1261,486 1156,468Z"  transform="translate(24179, 1300)"/>
<path d="M355,826Q285,826 285,757Q285,688 355,688Q425,688 425,757Q425,826 355,826ZM392,1142Q437,1142 477,1125Q517,1107 563,1078Q606,1050 641,1050L644,1050Q679,1051 726,1080Q773,1108 805,1125Q836,1142 893,1142Q963,1142 1016,1113Q1068,1083 1094,1031Q1119,978 1125,910Q1131,841 1131,765L1131,-80Q1131,-172 1081,-238Q1031,-305 968,-347Q904,-389 821,-408Q738,-428 674,-428Q640,-428 569,-410Q497,-393 439,-364Q380,-336 331,-299Q282,-262 235,-223L339,-119Q425,-197 513,-245Q601,-293 662,-293Q719,-293 783,-284Q846,-275 890,-248Q933,-221 968,-175Q1003,-129 1003,-58L1002,820Q1002,880 997,917Q992,954 978,975Q963,995 938,1002Q912,1009 891,1009Q831,1007 765,958Q703,911 646,911Q642,911 638,912Q577,915 507,965Q437,1015 376,1015L371,1015Q331,1015 296,984Q261,953 261,888L261,877Q302,919 355,919Q528,919 528,778Q530,762 530,747Q530,598 345,596Q147,602 147,827Q147,995 219,1069Q291,1142 392,1142Z"  transform="translate(25504, 1300)"/>
<path d="M438,240Q390,240 390,188Q390,136 438,136Q486,136 486,188Q486,240 438,240ZM291,306Q291,203 308,199Q318,315 444,315Q569,315 571,194Q565,0 400,0Q168,0 168,306L168,865Q168,1029 249,1085Q330,1140 405,1140Q502,1140 569,1101L569,987Q479,1009 405,1009Q339,1009 315,970Q291,931 291,889L291,306Z"  transform="translate(26803, 1300)"/>
<path d="M302,891Q360,891 360,966Q360,1041 302,1041Q244,1041 244,966Q244,891 302,891ZM982,1163Q982,1220 984,1261Q985,1310 992,1353Q998,1395 1009,1430Q1019,1465 1088,1465Q1147,1465 1147,1448Q1147,1445 1145,1441Q1133,1417 1126,1373Q1118,1329 1116,1274Q1113,1219 1113,1146L1113,400Q1113,0 628,0Q147,0 147,350Q147,552 254,700Q290,753 314,791Q147,793 147,966Q147,1140 315,1140L319,1140Q490,1140 490,966Q490,817 386,662Q281,507 281,350Q281,135 630,135Q981,135 981,400L981,1163L982,1163Z"  transform="translate(27521, 1300)"/>
<path d="M407,225Q336,225 336,158Q336,90 407,90Q478,90 478,158Q478,225 407,225ZM1176,735L1176,33Q1176,0 1109,0Q1041,0 1041,33L1041,735Q1041,1016 927,1016Q835,1016 758,912Q712,849 671,849Q630,849 584,912Q508,1016 415,1016Q303,1016 303,735L303,262L312,275Q354,317 428,317Q583,317 583,178Q585,162 585,147Q585,2 407,0Q168,6 168,295L168,735Q168,1140 424,1140Q549,1140 671,983Q793,1140 918,1140Q1176,1140 1176,735Z"  transform="translate(28802, 1300)"/>
<path d="M1162,176Q1145,188 1124,188L1118,188Q1079,184 1079,146L1079,144Q1082,104 1119,100L1121,100Q1162,100 1162,176ZM310,893Q371,893 371,967Q371,1040 310,1040Q249,1040 249,967Q249,893 310,893ZM659,1036Q618,1033 614,995Q614,950 660,950Q676,950 704,958Q706,970 706,980Q706,1032 659,1036ZM1757,800L1759,800L1759,277Q1759,0 1480,0Q1414,0 1273,103Q1238,0 1118,0Q988,0 988,143Q988,287 1127,287Q1145,287 1164,285L1164,863Q1164,1006 1021,1006Q940,1006 836,922L836,347Q825,0 496,0Q147,0 147,343Q147,541 247,696Q280,748 304,795Q147,797 147,967Q147,1137 305,1137L309,1137Q467,1137 467,967Q467,820 378,657Q288,493 279,341Q288,136 496,130Q703,130 703,353L703,855Q684,853 665,853Q526,853 526,997Q526,1137 651,1137L663,1137Q777,1137 812,1037Q948,1137 1021,1137L1027,1137Q1284,1137 1295,863L1295,234Q1299,223 1309,211Q1400,124 1480,124Q1624,124 1624,275L1624,790L1622,790L1622,1096Q1622,1140 1690,1140Q1757,1140 1757,1096L1757,800Z"  transform="translate(30146, 1300)"/>
<path d=""  transform="translate(32073, 1300)"/>
<path d="M295,893Q351,893 351,967Q351,1040 295,1040Q240,1040 240,967Q240,893 295,893ZM443,134Q591,134 591,335L591,1116Q591,1140 659,1140Q726,1140 726,1116L723,344L723,331Q723,134 879,134Q1039,134 1042,356L1042,1116Q1042,1140 1110,1140Q1175,1140 1175,1115L1172,355Q1167,0 883,0Q731,0 659,99Q588,0 446,0Q147,0 147,343Q147,561 249,696Q283,748 307,795Q147,797 147,967Q147,1138 310,1140Q472,1138 472,967Q472,820 377,668Q282,516 282,342L282,335Q282,134 441,134L443,134Z"  transform="translate(32713, 1300)"/>
<path d="M454,976Q451,1037 385,1037Q329,1034 322,976Q325,907 388,907Q454,907 454,976ZM1110,349Q1103,0 626,0Q148,0 148,343Q147,355 147,366Q147,519 276,582Q147,639 147,775Q147,785 148,795L148,842Q148,1137 378,1140Q547,1126 547,990Q547,976 545,961Q545,820 397,820Q314,822 281,876L281,795Q280,782 280,771Q280,704 329,678Q386,648 467,648Q547,648 547,580Q546,512 466,512Q385,512 328,482Q280,456 280,374Q280,360 281,344L281,340Q281,134 606,134L648,134Q977,134 977,350L977,1163L978,1163Q978,1220 980,1261Q981,1310 988,1353Q994,1395 1005,1430Q1015,1465 1084,1465L1086,1465Q1147,1464 1147,1446Q1147,1443 1145,1440Q1133,1416 1126,1372Q1118,1328 1114,1273Q1110,1218 1110,1145L1110,349Z"  transform="translate(34056, 1300)"/>
<path d="M278,902Q278,832 347,832Q416,832 416,902Q416,972 347,972Q278,972 278,902ZM189,-415Q147,-411 147,-343Q147,-282 182,-282L189,-282Q231,-289 262,-290Q355,-286 407,-272Q458,-259 501,-220Q544,-182 559,-133Q574,-84 574,20L574,834Q574,983 467,996Q509,955 509,902Q509,729 368,729Q352,727 337,727Q186,727 166,912Q192,1140 417,1140Q709,1140 709,828L709,-148Q709,-229 639,-300Q568,-371 484,-394Q399,-418 255,-422Q230,-420 189,-415Z"  transform="translate(35334, 1300)"/>
<path d="M317,895Q381,895 381,968Q381,1042 317,1042Q253,1042 253,968Q253,895 317,895ZM283,344Q291,131 488,131Q685,131 693,353L693,802Q693,1140 1001,1140Q1347,1140 1347,786L1347,34Q1347,0 1280,0Q1212,0 1212,34L1208,788Q1203,1009 1014,1009Q829,1009 829,786L829,353Q829,0 488,0Q147,0 147,344Q147,542 263,697Q303,749 330,796Q147,798 147,968Q147,1140 332,1140Q519,1140 519,968Q519,822 405,660Q291,498 283,344Z"  transform="translate(36211, 1300)"/>
<path d="M294,893Q349,893 349,967Q349,1040 294,1040Q239,1040 239,967Q239,893 294,893ZM656,1045Q608,1045 608,1001Q608,957 663,957L665,957Q686,957 702,959Q696,1045 656,1045ZM1758,806L1759,806L1758,297Q1746,0 1527,0Q1408,0 1348,57Q1287,113 1256,122Q1194,0 1072,0L1072,117L1073,117Q1098,117 1131,164Q1164,212 1164,310L1164,857Q1164,1003 1016,1005Q939,991 889,954Q838,917 836,906L836,353Q826,0 496,0Q147,0 147,343Q147,541 248,696Q281,748 304,795Q147,797 147,967Q147,1138 307,1140Q467,1138 467,967Q467,820 374,659Q283,500 283,344L283,337Q282,327 282,317Q282,130 496,130Q703,130 703,353L703,855Q684,853 665,853Q526,853 526,997Q526,1140 656,1140Q776,1140 813,1037Q937,1136 1022,1140Q1284,1140 1297,852L1297,233Q1335,218 1390,171Q1444,124 1527,124Q1625,124 1625,297L1625,741L1623,741L1625,1094Q1625,1140 1691,1140Q1758,1140 1758,1094L1758,806Z"  transform="translate(37726, 1300)"/>
<path d="M378,155Q378,215 314,215Q250,215 250,155Q250,94 314,94Q378,94 378,155ZM309,1044Q249,1044 249,1001Q249,956 290,950Q297,949 305,949Q339,949 378,974Q370,1038 309,1044ZM513,171Q506,13 321,0Q156,3 147,161Q163,291 276,317Q297,320 314,320Q355,320 378,304L378,843Q346,839 316,835Q147,849 147,993Q147,1135 303,1140Q442,1140 513,1032Q677,1135 841,1140Q1201,1131 1229,867L1229,35Q1229,0 1162,0Q1094,0 1094,42L1094,864Q1093,998 841,1015Q670,993 602,953Q533,913 513,892L513,171Z"  transform="translate(39653, 1300)"/>
</svg>
