<svg xmlns="http://www.w3.org/2000/svg" viewBox="0 0 34035 3789" transform="translate(0, 3789) scale(1, -1)">
<path d="M1137,0L442,0L442,416Q298,436 219,521Q139,605 139,745Q139,878 218,964Q297,1050 442,1071L442,1462L625,1462L625,1071Q772,1050 850,964Q928,878 928,743Q928,607 846,520Q764,432 625,414L625,160L1137,160L1137,0ZM532,918Q435,918 380,872Q324,825 324,743Q324,659 381,614Q437,569 537,569Q637,569 690,616Q743,662 743,743Q743,825 689,872Q635,918 532,918Z"  transform="translate(0, 1100)"/>
<path d="M31,0Q14,0 -18,10Q-51,20 -70,33L-70,160L180,160L180,1462L362,1462L362,276Q415,160 573,160L612,160L612,0L543,0Q479,0 433,23Q387,45 334,115Q275,0 113,0L31,0Z"  transform="translate(1067, 1100)"/>
<path d="M80,1051L309,1051L309,1462L492,1462L492,1051L721,1051L721,891L492,891L492,276Q544,160 702,160L870,160L870,0L672,0Q608,0 562,23Q516,45 463,115Q404,0 242,0L31,0Q14,0 -18,10Q-51,20 -70,33L-70,160L309,160L309,891L80,891L80,1051Z"  transform="translate(1610, 1100)"/>
<path d="M965,0L758,0Q681,0 628,24Q574,47 512,117Q452,0 289,0L31,0Q14,0 -18,10Q-51,20 -70,33L-70,160L356,160L356,717L8,1462L188,1462L365,1079Q416,965 446,883Q462,927 483,975Q503,1023 707,1462L887,1462L539,717L539,276Q590,160 750,160L965,160L965,0Z"  transform="translate(2411, 1100)"/>
<path d="M997,0L899,0Q823,0 771,22Q718,44 651,119L578,-29L614,-29Q726,-29 788,-78Q850,-127 850,-211Q850,-289 787,-371Q723,-454 619,-505Q514,-557 399,-557Q297,-557 237,-522Q176,-487 176,-434Q176,-418 210,-353Q244,-288 319,-155L401,-2L401,0L31,0Q14,0 -18,10Q-51,20 -70,33L-70,160L483,160Q633,460 676,573L864,573Q809,434 707,229Q767,160 891,160L997,160L997,0ZM383,-393Q401,-399 435,-399Q515,-399 592,-345Q668,-292 668,-229Q668,-188 639,-177Q610,-166 559,-166L506,-166L446,-279L383,-393Z"  transform="translate(3306, 1100)"/>
<path d="M139,1462L678,1462L678,240Q678,125 611,63Q544,0 428,0L31,0Q14,0 -18,10Q-51,20 -70,33L-70,160L496,160L496,721L139,721L139,881L496,881L496,1303L139,1303L139,1462Z"  transform="translate(4234, 1100)"/>
<path d=""  transform="translate(5092, 1100)"/>
<path d="M739,932L739,1100Q739,1270 828,1366Q917,1462 1079,1462Q1222,1462 1312,1368Q1401,1274 1401,1126Q1401,961 1295,867Q1188,772 997,772L922,772L922,311Q922,153 841,77Q760,0 592,0L180,0L180,621Q180,778 261,855Q342,932 510,932L739,932ZM362,160L606,160Q675,160 707,200Q739,240 739,326L739,772L496,772Q429,772 396,734Q362,695 362,606L362,160ZM922,932L1004,932Q1219,932 1219,1130Q1219,1211 1180,1257Q1140,1303 1069,1303Q922,1303 922,1116L922,932Z"  transform="translate(5624, 1100)"/>
<path d="M463,1370L477,1348Q452,1227 404,1064Q356,900 301,750L168,750Q232,1054 270,1370L463,1370Z"  transform="translate(7125, 1100)"/>
<path d="M498,1462L680,1462L1077,160L1249,160L1249,0L80,0L80,90L498,1462ZM287,160L889,160L657,932Q602,1114 586,1210Q562,1088 551,1043Q539,998 287,160Z"  transform="translate(7817, 1100)"/>
<path d="M201,1462L895,1462L895,276Q948,160 1106,160L1145,160L1145,0L1075,0Q1010,0 964,24Q917,47 866,115Q807,0 645,0L31,0Q14,0 -18,10Q-51,20 -70,33L-70,160L180,160L180,571Q180,729 261,806Q342,883 510,883L713,883L713,1303L201,1303L201,1462ZM362,160L713,160L713,723L496,723Q429,723 396,685Q362,646 362,557L362,160Z"  transform="translate(8997, 1100)"/>
<path d="M362,1051L362,276Q415,160 573,160L852,160L852,1051L1034,1051L1034,272Q1085,160 1243,160L1282,160L1282,0L1212,0Q1149,0 1103,23Q1057,45 1004,115Q945,0 782,0L543,0Q479,0 433,23Q387,45 334,115Q275,0 113,0L31,0Q14,0 -18,10Q-51,20 -70,33L-70,160L180,160L180,1051L362,1051Z"  transform="translate(10072, 1100)"/>
<path d="M100,1462L664,1462L664,1071Q811,1050 889,964Q967,878 967,743Q967,607 885,520Q803,432 664,414L664,240Q664,125 597,63Q530,0 414,0L31,0Q14,0 -18,10Q-51,20 -70,33L-70,160L481,160L481,416Q337,436 258,521Q178,605 178,745Q178,878 257,964Q336,1050 481,1071L481,1303L100,1303L100,1462ZM571,918Q475,918 419,873Q362,827 362,743Q362,661 417,615Q472,569 575,569Q676,569 729,616Q782,662 782,743Q782,825 728,872Q674,918 571,918Z"  transform="translate(11284, 1100)"/>
<path d=""  transform="translate(12392, 1100)"/>
<path d="M102,1462L965,1462L965,1303L625,1303L625,160L1137,160L1137,0L442,0L442,1303L102,1303L102,1462Z"  transform="translate(12924, 1100)"/>
<path d="M31,0Q14,0 -18,10Q-51,20 -70,33L-70,160L1040,160L1040,770L795,770L795,500L612,500L612,772L481,772Q300,772 197,865Q94,957 94,1126Q94,1279 193,1371Q292,1462 451,1462Q612,1462 704,1366Q795,1270 795,1096L795,932L1223,932L1223,276Q1274,160 1434,160L1473,160L1473,0L1403,0Q1339,0 1293,23Q1247,45 1194,115Q1135,0 973,0L31,0ZM276,1122Q276,1034 332,983Q387,932 494,932L612,932L612,1114Q612,1204 568,1254Q523,1303 444,1303Q367,1303 322,1255Q276,1206 276,1122Z"  transform="translate(13991, 1100)"/>
<path d="M483,160Q584,359 676,573L864,573Q810,437 665,147L580,-27L383,-393Q401,-399 430,-399Q496,-399 557,-360Q617,-321 672,-244Q726,-167 750,-90L885,-90Q830,-320 701,-438Q571,-557 387,-557Q296,-557 236,-522Q176,-488 176,-434Q176,-413 261,-258Q386,-31 401,-2L401,0L31,0Q14,0 -18,10Q-51,20 -70,33L-70,160L483,160Z"  transform="translate(15394, 1100)"/>
<path d="M182,750L168,772Q219,1015 344,1370L477,1370Q446,1223 416,1041Q386,858 375,750L182,750Z"  transform="translate(16322, 1100)"/>
<path d="M948,276Q1001,160 1159,160L1198,160L1198,0L1128,0Q1065,0 1019,23Q973,45 920,115Q861,0 698,0L100,0L100,160L766,160L766,891L100,891L100,1051L948,1051L948,276Z"  transform="translate(17014, 1100)"/>
<path d="M795,723L795,240Q795,125 728,63Q661,0 545,0L31,0Q14,0 -18,10Q-51,20 -70,33L-70,160L612,160L612,723L528,723Q321,723 208,824Q94,924 94,1100Q94,1264 194,1363Q294,1462 455,1462Q614,1462 705,1366Q795,1269 795,1098L795,883L1104,883L1104,723L795,723ZM276,1108Q276,996 343,940Q409,883 535,883L612,883L612,1112Q612,1203 573,1253Q533,1303 453,1303Q371,1303 324,1250Q276,1196 276,1108Z"  transform="translate(18142, 1100)"/>
<path d=""  transform="translate(19326, 1100)"/>
<path d="M342,1462L342,1145L934,1145L934,160L1184,160L1184,0L752,0L752,985L342,985L342,674L160,674L160,1462L342,1462Z"  transform="translate(19858, 1100)"/>
<path d="M31,0Q14,0 -18,10Q-51,20 -70,33L-70,160L592,160L592,254Q592,483 548,646Q503,809 400,959Q296,1108 80,1303L80,1462L895,1462L895,1303L299,1303Q764,890 774,276Q827,160 985,160L1067,160L1067,0L954,0Q889,0 843,24Q796,47 745,115Q688,0 524,0L31,0Z"  transform="translate(20972, 1100)"/>
<path d="M31,0Q22,0 8,3Q-6,6 -20,11Q-35,15 -48,21Q-61,27 -70,33L-70,160L180,160L180,489Q180,726 266,839Q352,952 506,952Q591,952 654,918Q716,884 745,831Q761,883 790,926Q819,969 860,1000Q900,1031 952,1048Q1003,1065 1065,1065Q1153,1065 1223,1038Q1293,1010 1342,954Q1390,897 1416,811Q1442,725 1442,608L1442,276Q1495,160 1653,160L1735,160L1735,0L1622,0Q1583,0 1554,8Q1525,15 1501,29Q1477,43 1456,65Q1435,86 1413,115Q1382,55 1324,28Q1266,0 1192,0L31,0ZM860,160L1260,160L1260,631Q1260,760 1214,833Q1167,905 1063,905Q1011,905 973,885Q934,864 909,826Q884,788 872,735Q860,682 860,616L860,160ZM362,160L678,160L678,516Q678,580 671,631Q663,682 645,718Q626,754 596,774Q565,793 520,793Q471,793 440,771Q409,749 392,710Q375,671 369,618Q362,564 362,502L362,160Z"  transform="translate(21969, 1100)"/>
<path d="M100,1462L983,1462L983,1303L633,1303L633,1071Q780,1050 858,965Q936,880 936,743Q936,607 855,520Q773,432 633,414L633,276Q686,160 844,160L1153,160L1153,0L852,0Q775,0 722,24Q668,47 606,117Q575,57 516,29Q457,0 383,0L31,0Q14,0 -18,10Q-51,20 -70,33L-70,160L451,160L451,416Q305,436 226,523Q147,609 147,745Q147,878 226,964Q305,1049 451,1071L451,1303L100,1303L100,1462ZM541,918Q443,918 388,872Q332,826 332,743Q332,659 389,614Q445,569 545,569Q645,569 699,616Q752,662 752,743Q752,825 698,872Q643,918 541,918Z"  transform="translate(23591, 1100)"/>
<path d="M1270,1051L1270,276Q1323,160 1481,160L1520,160L1520,0L1450,0Q1385,0 1339,24Q1292,47 1241,115Q1182,0 1020,0L31,0Q14,0 -18,10Q-51,20 -70,33L-70,160L180,160L180,739Q180,897 261,974Q342,1051 510,1051L1270,1051ZM362,160L1087,160L1087,891L496,891Q429,891 396,853Q362,814 362,725L362,160Z"  transform="translate(24674, 1100)"/>
<path d="M31,0Q14,0 -18,10Q-51,20 -70,33L-70,160L180,160L180,1462L362,1462L362,883L547,883Q774,883 892,768Q1010,653 1010,440Q1010,317 954,216Q898,114 795,57Q692,0 553,0L31,0ZM362,723L362,160L559,160Q684,160 754,235Q823,309 823,440Q823,572 752,648Q680,723 545,723L362,723Z"  transform="translate(26124, 1100)"/>
<path d=""  transform="translate(27279, 1100)"/>
<path d="M934,1462L934,160L1184,160L1184,0L752,0L752,891L342,891L342,586L160,586L160,1317L342,1317L342,1051L752,1051L752,1462L934,1462Z"  transform="translate(27811, 1100)"/>
<path d="M31,0Q14,0 -18,10Q-51,20 -70,33L-70,160L1135,160L1135,0L31,0ZM430,750L416,772Q439,884 486,1047Q533,1209 592,1370L725,1370Q694,1223 664,1041Q634,858 623,750L430,750Z"  transform="translate(28925, 1100)"/>
<path d="M-70,33L-70,160L135,160L543,1051L725,1051L1130,160L1337,160L1337,0L1008,0Q851,347 766,536Q680,724 633,866Q571,690 502,539L260,0L31,0Q14,0 -18,10Q-51,20 -70,33Z"  transform="translate(29994, 1100)"/>
<path d="M934,1462L934,276Q987,160 1145,160L1184,160L1184,0L1114,0Q1049,0 1003,24Q956,47 905,115Q846,0 684,0L31,0Q14,0 -18,10Q-51,20 -70,33L-70,160L752,160L752,1303L475,1303Q409,1303 376,1264Q342,1225 342,1137L342,829L160,829L160,1151Q160,1309 241,1386Q321,1462 489,1462L934,1462Z"  transform="translate(31262, 1100)"/>
<path d="M492,664L492,160L870,160L870,0L492,0L492,-557L309,-557L309,0L31,0Q14,0 -18,10Q-51,20 -70,33L-70,160L309,160L309,664L492,664Z"  transform="translate(32376, 1100)"/>
<path d="M31,0Q14,0 -18,10Q-51,20 -70,33L-70,160L180,160L180,1462L719,1462L719,1303L362,1303L362,881L719,881L719,721L362,721L362,240Q362,126 296,63Q230,0 113,0L31,0Z"  transform="translate(33177, 1100)"/>
</svg>
