<svg xmlns="http://www.w3.org/2000/svg" viewBox="0 0 76166 3789" transform="translate(0, 3789) scale(1, -1)">
<path d="M778,1507Q699,1224 663,833Q627,441 608,-229L555,-229Q528,182 502,502Q475,822 441,1036Q407,1250 336,1507Q388,1494 441,1488Q493,1481 551,1480Q607,1480 663,1487Q718,1494 778,1507ZM838,1249Q937,1194 1139,1148Q1340,1102 1655,1077L1655,1030Q1379,990 1179,937Q979,883 844,807Q849,858 853,911Q856,963 856,1018Q856,1072 852,1130Q848,1187 838,1249ZM848,469Q950,413 1151,368Q1351,322 1665,299L1665,250Q1388,209 1188,156Q987,102 856,27Q861,79 865,132Q868,184 868,238Q868,292 864,350Q859,407 848,469Z"  transform="translate(0, 1100)"/>
<path d="M1917,575Q2066,729 2287,999Q2507,1269 2707,1550L2750,1530Q2669,1347 2582,1160Q2495,973 2405,791L2310,600Q2377,472 2498,271Q2618,70 2796,-215L2753,-246Q2572,-51 2385,136Q2198,323 1917,575ZM1970,1505Q1899,1243 1861,875Q1823,506 1800,-229L1747,-229Q1708,348 1686,587Q1664,825 1634,1031Q1603,1236 1528,1505Q1634,1483 1744,1483Q1855,1483 1970,1505ZM313,1210Q394,1154 535,1107Q675,1060 854,1034Q852,1078 849,1125Q846,1171 838,1221Q926,1166 1112,1121Q1298,1076 1554,1051L1554,1001Q1295,957 1120,902Q944,847 846,778L852,880Q854,931 854,985Q681,946 549,894Q416,841 322,768Q328,821 332,874Q336,927 336,982Q336,1036 331,1093Q325,1150 313,1210ZM313,485Q389,433 528,386Q667,338 854,309Q852,353 849,400Q846,446 838,496Q926,441 1112,396Q1298,351 1554,326L1554,279Q1261,225 1099,171Q937,117 846,55L852,157Q854,207 854,260Q679,222 547,170Q414,117 322,43Q328,96 332,149Q336,202 336,257Q336,311 331,368Q325,425 313,485Z"  transform="translate(1970, 1100)"/>
<path d="M281,770Q382,715 566,671Q750,626 987,600Q1140,762 1347,1017Q1554,1272 1753,1550L1796,1530Q1715,1347 1628,1160Q1541,973 1451,791L1356,600Q1424,471 1544,271Q1663,70 1841,-215L1798,-246Q1608,-43 1437,127Q1266,297 1136,417L989,551Q775,514 610,465Q444,416 291,330Q300,382 306,435Q312,487 312,542Q312,596 305,653Q298,709 281,770ZM1499,575Q1668,749 1886,1017Q2104,1285 2290,1550L2333,1530Q2238,1320 2124,1076Q2009,832 1894,600Q1960,472 2080,271Q2199,70 2376,-215L2337,-246Q2136,-32 1944,159Q1751,349 1499,575Z"  transform="translate(4989, 1100)"/>
<path d="M586,776Q652,730 777,684Q902,637 1090,606Q1232,754 1440,1010Q1648,1265 1851,1550L1894,1530Q1813,1347 1726,1160Q1639,973 1549,791L1454,600Q1521,472 1641,271Q1760,70 1939,-215L1896,-246Q1697,-33 1537,126Q1377,284 1231,419L1083,553Q929,515 807,463Q685,410 598,334Q602,382 606,433Q610,484 610,541Q610,602 604,659Q598,715 586,776ZM362,303Q498,247 767,200Q1035,153 1366,131L1366,84Q988,34 748,-20Q507,-75 377,-139Q381,-94 384,-43Q387,7 387,56L387,72Q387,126 381,184Q374,241 362,303ZM350,1239Q482,1183 743,1138Q1003,1092 1352,1067L1352,1022Q1016,977 765,923Q514,869 358,797Q366,849 371,902Q376,954 376,1009Q376,1063 370,1120Q364,1177 350,1239ZM1692,821Q1761,774 1901,726Q2040,678 2253,649L2253,606Q2073,567 1939,514Q1805,461 1700,379Q1707,432 1711,485Q1715,538 1715,593Q1715,647 1710,704Q1705,760 1692,821Z"  transform="translate(7588, 1100)"/>
<path d="M1587,1065Q1515,866 1478,593Q1440,320 1417,-219L1364,-219Q1313,338 1285,519Q1256,699 1227,812Q1198,924 1145,1065Q1198,1056 1251,1051Q1303,1046 1362,1045Q1419,1045 1474,1051Q1528,1056 1587,1065ZM2093,1065Q2021,866 1984,593Q1946,320 1923,-219L1870,-219Q1829,231 1805,421Q1781,610 1749,752Q1717,894 1653,1065Q1705,1056 1757,1051Q1809,1046 1868,1045Q1925,1045 1980,1051Q2034,1056 2093,1065ZM1272,1561Q1388,1500 1581,1457Q1773,1413 2060,1389L2060,1341Q1817,1306 1626,1257Q1434,1207 1280,1118Q1285,1171 1288,1224Q1291,1276 1291,1331Q1291,1385 1287,1442Q1282,1499 1272,1561ZM250,578Q405,720 647,991Q889,1262 1116,1552L1155,1530Q1065,1349 962,1150Q859,951 773,793L668,602Q743,472 874,271Q1005,69 1200,-213L1165,-246Q943,-28 739,159Q535,346 250,578Z"  transform="translate(10121, 1100)"/>
<path d="M307,1176Q477,1126 662,1098Q846,1069 1055,1053Q1024,1204 987,1324Q949,1443 901,1538Q954,1531 1007,1527Q1059,1522 1113,1522Q1167,1522 1224,1528Q1280,1533 1341,1546Q1307,1468 1275,1343Q1242,1218 1214,1040Q1364,1029 1536,1022Q1708,1014 1925,1006L1925,952L1517,922Q1338,908 1196,895Q1188,836 1182,774Q1176,711 1171,643L1124,643Q1115,711 1106,770Q1097,829 1087,883Q832,856 669,826Q505,795 307,737Q333,840 333,951Q333,1061 307,1176ZM1028,696Q970,552 926,298Q881,44 858,-281L809,-281Q760,104 707,328Q654,552 586,686Q634,681 684,677Q734,673 791,673Q852,673 909,679Q966,685 1028,696ZM1714,711Q1655,564 1610,306Q1564,48 1544,-262L1497,-262Q1454,78 1400,315Q1345,551 1274,702Q1325,695 1378,690Q1430,685 1484,685Q1538,685 1595,691Q1652,696 1714,711Z"  transform="translate(12550, 1100)"/>
<path d=""  transform="translate(14764, 1100)"/>
<path d="M778,1505Q700,1228 664,836Q627,444 608,-229L555,-229Q516,348 494,587Q472,825 442,1031Q411,1236 336,1505Q441,1483 551,1483Q662,1483 778,1505ZM725,575Q889,744 1111,1018Q1333,1291 1516,1550L1559,1530Q1487,1367 1395,1170Q1302,972 1213,791L1118,600Q1185,472 1305,271Q1424,69 1604,-215L1561,-246Q1368,-38 1190,139Q1012,315 874,440L725,575ZM1419,610Q1504,558 1674,512Q1844,466 2109,440L2109,393Q1855,348 1696,296Q1536,243 1430,170Q1439,274 1439,381Q1439,487 1419,610ZM1419,1102Q1504,1047 1674,1002Q1843,956 2109,930L2109,883Q1843,834 1688,782Q1533,730 1430,659Q1433,702 1436,751Q1439,800 1439,844L1439,872Q1439,926 1434,983Q1429,1040 1419,1102Z"  transform="translate(15296, 1100)"/>
<path d="M2429,578Q2572,721 2800,1000Q3027,1278 3222,1552L3260,1530Q3153,1288 3047,1063Q2941,837 2822,602Q2889,472 3010,271Q3130,70 3308,-213L3265,-246Q3061,-26 2894,141Q2726,308 2579,442L2429,578ZM831,1057Q901,1010 1035,963Q1169,916 1374,885Q1371,973 1356,1067Q1441,1015 1624,971Q1806,927 2071,905L2071,856Q1798,809 1629,757Q1460,705 1364,641Q1369,689 1372,738Q1374,787 1374,840Q1200,799 1071,752Q942,704 838,631Q844,682 848,733Q852,784 852,838Q656,794 529,743Q401,692 322,631Q328,681 332,732Q336,782 336,835Q336,887 331,943Q325,998 313,1057Q380,1012 515,965Q650,918 852,887Q850,927 845,970Q839,1012 831,1057ZM831,596Q901,550 1035,504Q1169,457 1374,426Q1371,511 1356,606Q1441,554 1624,511Q1807,468 2071,442L2071,397Q1824,355 1644,301Q1464,247 1364,180Q1369,230 1372,279Q1374,328 1374,379Q1196,341 1067,292Q938,243 838,170Q844,221 848,273Q852,324 852,377Q680,341 545,290Q409,239 322,170Q328,221 332,272Q336,322 336,375Q336,427 331,482Q325,537 313,596Q396,543 532,499Q667,455 850,428Q848,468 844,510Q839,551 831,596ZM2486,1507Q2409,1218 2373,822Q2337,425 2316,-229L2263,-229Q2208,590 2170,897Q2132,1203 2048,1507Q2151,1483 2262,1483Q2372,1483 2486,1507ZM831,137Q929,75 1070,32Q1211,-12 1374,-33Q1372,11 1368,56Q1364,100 1356,150Q1441,98 1624,53Q1806,8 2071,-16L2071,-63Q1783,-114 1620,-165Q1457,-217 1364,-281Q1369,-231 1372,-182Q1374,-133 1374,-82Q1207,-117 1076,-165Q945,-213 838,-291Q850,-189 852,-84L852,-68Q852,29 831,137ZM831,1522Q909,1466 1045,1422Q1180,1378 1374,1350Q1371,1434 1356,1530Q1441,1477 1624,1433Q1806,1389 2071,1366L2071,1321Q1782,1270 1618,1218Q1454,1166 1364,1102Q1369,1153 1372,1203Q1374,1252 1374,1303Q1210,1267 1079,1219Q947,1171 838,1094Q850,1194 852,1298L852,1315Q852,1412 831,1522Z"  transform="translate(17684, 1100)"/>
<path d="M1276,575Q1425,729 1646,999Q1866,1269 2066,1550L2107,1530Q2001,1294 1895,1069Q1789,843 1669,600Q1735,472 1855,271Q1974,70 2150,-215L2111,-246Q1917,-37 1741,137Q1565,311 1425,440L1276,575ZM776,1505Q721,1301 692,1084Q662,867 643,581Q623,295 606,-229L553,-229Q523,242 496,547Q468,851 437,1049Q405,1246 336,1505Q440,1482 550,1482Q660,1482 776,1505ZM737,575Q901,744 1122,1017Q1343,1289 1526,1550L1571,1530Q1486,1338 1406,1167Q1326,996 1225,791L1130,600Q1200,472 1319,270Q1437,68 1614,-215L1573,-246Q1380,-38 1186,155Q991,347 737,575Z"  transform="translate(21215, 1100)"/>
<path d="M1696,328Q1646,260 1600,121Q1553,-19 1522,-233L1479,-233Q1442,-62 1391,74Q1340,209 1253,322Q1359,309 1466,307L1483,307Q1583,307 1696,328ZM1174,324Q1126,251 1078,113Q1030,-25 999,-238L958,-238Q922,-71 869,67Q815,204 731,315Q784,309 837,305Q890,301 945,301Q999,301 1056,307Q1113,312 1174,324ZM334,1561Q652,1476 1026,1444Q1399,1411 2015,1391L2015,1337Q1482,1302 1222,1277Q962,1252 776,1222Q589,1191 334,1120Q361,1226 361,1336Q361,1446 334,1561ZM334,721Q561,660 772,631Q983,602 1276,583Q1569,563 2015,549L2015,496Q1398,456 1164,431Q930,406 756,377Q581,347 334,279Q360,385 360,495Q360,606 334,721ZM776,1149Q998,1063 1274,1030Q1550,996 2003,979L2003,926Q1703,900 1509,877Q1315,853 1206,832Q1097,811 1016,789Q934,766 776,707Q785,760 790,813Q795,865 796,924Q796,981 791,1036Q785,1090 776,1149Z"  transform="translate(23589, 1100)"/>
<path d="M788,575Q948,740 1172,1015Q1396,1290 1579,1550L1622,1530Q1546,1359 1455,1163Q1364,966 1278,791L1184,600Q1251,471 1371,270Q1491,69 1667,-215L1624,-246Q1426,-32 1225,167Q1024,366 788,575ZM252,575Q415,743 633,1012Q851,1281 1042,1550L1083,1530Q1000,1342 908,1144Q816,945 741,791L647,600Q713,472 832,271Q950,70 1126,-215L1087,-246Q911,-57 720,135Q529,327 252,575ZM1542,1147Q1627,1094 1796,1047Q1965,1000 2228,975L2228,928Q1996,887 1832,835Q1667,783 1550,705Q1554,750 1557,801Q1560,851 1560,900L1560,916Q1560,970 1556,1028Q1551,1085 1542,1147ZM1542,608Q1627,556 1797,510Q1966,464 2228,438L2228,389Q1998,350 1830,298Q1662,246 1550,166Q1554,213 1557,264Q1560,314 1560,363L1560,378Q1560,432 1556,489Q1551,546 1542,608Z"  transform="translate(25911, 1100)"/>
<path d="M1339,1505Q1261,1228 1225,836Q1188,444 1169,-229L1116,-229Q1080,326 1055,598Q1029,870 997,1065Q965,1259 897,1505Q1003,1483 1114,1483Q1224,1483 1339,1505ZM1286,575Q1450,744 1672,1018Q1894,1291 2077,1550L2120,1530Q2035,1338 1955,1167Q1875,996 1774,791L1679,600Q1749,471 1868,270Q1986,68 2165,-215L2122,-246Q1929,-38 1751,139Q1573,315 1435,440L1286,575ZM266,864Q351,812 521,765Q690,717 952,694L952,645Q721,605 554,552Q386,499 274,422Q278,468 281,519Q284,569 284,618L284,633Q284,687 280,745Q275,802 266,864Z"  transform="translate(28432, 1100)"/>
<path d=""  transform="translate(30820, 1100)"/>
<path d="M780,1063Q703,864 666,574Q629,284 610,-219L557,-219Q517,218 495,395Q472,572 442,721Q412,869 338,1063Q391,1054 444,1050Q496,1045 555,1044Q613,1044 667,1049Q721,1054 780,1063ZM1286,1063Q1209,864 1172,574Q1135,284 1116,-219L1063,-219Q1012,339 983,521Q954,702 925,815Q895,927 844,1063Q897,1054 950,1050Q1002,1045 1061,1044Q1119,1044 1173,1049Q1227,1054 1286,1063ZM336,1559Q472,1498 701,1455Q930,1412 1257,1389L1257,1341Q961,1303 739,1253Q517,1202 344,1116Q351,1169 356,1222Q360,1274 360,1329Q360,1383 355,1440Q349,1497 336,1559ZM1358,1077Q1430,1027 1568,980Q1706,932 1919,903L1919,862Q1752,825 1613,771Q1474,717 1366,635Q1380,740 1382,848L1382,863Q1382,964 1358,1077Z"  transform="translate(31352, 1100)"/>
<path d="M727,1098Q827,1172 981,1312Q1134,1452 1249,1579L1294,1552Q1236,1424 1177,1309Q1117,1194 1063,1104Q1124,1022 1196,907Q1267,791 1321,694L1278,664Q1162,774 1005,900Q847,1025 727,1098ZM1784,1507Q1705,1224 1669,833Q1633,441 1614,-229L1561,-229Q1532,226 1505,528Q1478,830 1445,1041Q1412,1252 1341,1507Q1447,1483 1557,1483Q1668,1483 1784,1507ZM258,1098Q368,1181 517,1318Q666,1454 780,1579L825,1552Q765,1424 707,1309Q648,1194 594,1104Q656,1022 727,907Q797,792 850,694L807,664Q687,778 528,904Q368,1030 258,1098ZM727,133Q834,214 988,355Q1142,496 1249,612L1294,588Q1236,460 1177,345Q1117,229 1063,141Q1125,56 1199,-63Q1273,-182 1321,-268L1278,-301Q1150,-179 996,-58Q842,63 727,133ZM258,133Q379,226 527,363Q675,499 780,612L825,588Q765,460 707,345Q648,229 594,141Q656,55 729,-62Q802,-179 850,-268L807,-301Q675,-175 519,-53Q362,69 258,133Z"  transform="translate(33537, 1100)"/>
<path d="M266,831Q332,785 511,737Q689,688 911,657L911,614Q690,568 522,509Q353,449 274,389Q287,495 289,602L289,618Q289,718 266,831ZM2130,1507Q2055,1237 2019,865Q1983,493 1960,-229L1907,-229Q1857,503 1829,757Q1800,1011 1770,1168Q1739,1324 1688,1507Q1794,1483 1904,1483Q2015,1483 2130,1507ZM1288,1507Q1208,1209 1173,811Q1138,413 1118,-229L1065,-229Q1015,503 987,757Q958,1011 928,1168Q897,1324 846,1507Q952,1483 1063,1483Q1173,1483 1288,1507ZM1716,1065Q1659,909 1631,750Q1602,590 1583,382Q1563,174 1546,-219L1493,-219Q1453,223 1427,418Q1401,612 1372,746Q1343,879 1276,1065Q1379,1046 1488,1045Q1595,1045 1716,1065Z"  transform="translate(35657, 1100)"/>
<path d="M1780,911Q1849,861 1989,813Q2128,765 2341,737L2341,694Q2173,659 2036,606Q1899,553 1788,469Q1793,520 1797,573Q1800,625 1800,680Q1800,735 1796,793Q1791,850 1780,911ZM1278,1507Q1195,1197 1160,796Q1125,395 1108,-229L1055,-229Q1005,503 977,757Q948,1011 918,1168Q887,1324 836,1507Q941,1483 1052,1483Q1162,1483 1278,1507ZM1784,1507Q1703,1203 1668,815Q1632,426 1614,-229L1561,-229Q1532,226 1505,528Q1478,830 1445,1041Q1412,1252 1341,1507Q1447,1483 1557,1483Q1668,1483 1784,1507ZM778,1507Q699,1224 663,833Q627,441 608,-229L555,-229Q528,182 502,502Q475,822 441,1036Q407,1250 336,1507Q441,1483 551,1483Q662,1483 778,1507Z"  transform="translate(38123, 1100)"/>
<path d="M2023,1505Q1952,1243 1914,875Q1876,506 1853,-229L1800,-229Q1764,326 1739,598Q1713,870 1681,1065Q1649,1259 1581,1505Q1687,1483 1798,1483Q1908,1483 2023,1505ZM719,575Q879,740 1100,1011Q1320,1281 1509,1550L1552,1530Q1471,1347 1384,1160Q1297,973 1207,791L1112,600Q1178,472 1298,271Q1418,70 1597,-215L1554,-246Q1360,-37 1184,137Q1008,311 868,440L719,575ZM778,1505Q721,1295 693,1087Q664,879 644,590Q623,300 606,-229L553,-229Q507,491 476,752Q445,1012 420,1148Q395,1284 336,1505Q440,1483 550,1483Q661,1483 778,1505Z"  transform="translate(40730, 1100)"/>
<path d="M2271,1505Q2191,1208 2155,812Q2119,416 2101,-229L2048,-229Q2007,369 1981,635Q1955,900 1926,1082Q1896,1263 1829,1505Q1934,1483 2045,1483Q2155,1483 2271,1505ZM930,575Q1082,732 1300,1000Q1518,1267 1720,1550L1759,1530Q1676,1342 1584,1144Q1492,945 1417,791L1323,600Q1389,471 1509,271Q1628,71 1806,-215L1765,-246Q1571,-37 1395,137Q1219,311 1079,440L930,575ZM293,584Q378,530 548,484Q718,438 983,414L983,367Q733,321 570,268Q407,214 301,143Q311,246 312,356Q312,464 293,584ZM293,1075Q378,1019 548,974Q717,928 983,903L983,856Q730,809 567,755Q403,701 301,633Q311,736 312,846Q312,953 293,1075ZM2218,575Q2372,734 2594,1007Q2815,1279 3009,1550L3052,1530Q2972,1353 2875,1144Q2777,935 2706,791L2611,600Q2677,472 2797,271Q2917,70 3095,-215L3054,-246Q2857,-35 2683,138Q2508,310 2367,440L2218,575Z"  transform="translate(43089, 1100)"/>
<path d=""  transform="translate(46407, 1100)"/>
<path d="M1894,1507Q1811,1197 1776,796Q1741,395 1724,-229L1671,-229Q1636,318 1610,592Q1584,865 1552,1064Q1520,1262 1452,1507Q1557,1483 1668,1483Q1778,1483 1894,1507ZM1266,625Q899,577 679,526Q459,474 301,401Q309,453 314,506Q319,558 319,612Q319,666 313,723Q307,780 293,842Q413,792 656,745Q899,697 1266,672L1266,625ZM571,1317Q709,1258 946,1213Q1183,1167 1475,1147L1475,1100Q1149,1054 941,1004Q732,953 580,877Q587,930 592,982Q596,1034 596,1088Q596,1142 590,1199Q584,1255 571,1317ZM571,381Q694,326 925,281Q1156,235 1475,211L1475,162Q1131,115 926,63Q720,11 580,-61Q587,-8 592,45Q596,97 596,151Q596,205 590,262Q584,319 571,381Z"  transform="translate(46939, 1100)"/>
<path d="M836,1081Q755,869 720,588Q685,307 666,-201L612,-201Q576,212 551,410Q525,608 493,754Q461,900 393,1081Q446,1071 499,1066Q551,1061 606,1061Q660,1061 717,1066Q774,1070 836,1081ZM336,1577Q554,1501 931,1464Q1307,1426 1939,1407L1939,1360Q1524,1330 1226,1301Q927,1272 724,1237Q521,1201 336,1135Q352,1239 354,1347L354,1362Q354,1463 336,1577ZM1890,1081Q1812,875 1776,586Q1739,296 1720,-201L1667,-201Q1628,226 1606,405Q1583,584 1552,735Q1521,886 1448,1081Q1500,1071 1553,1066Q1605,1061 1659,1061Q1713,1061 1771,1066Q1828,1070 1890,1081ZM1360,1081Q1289,886 1251,614Q1213,342 1190,-201L1137,-201Q1087,339 1059,524Q1030,709 1000,826Q970,943 918,1081Q971,1071 1024,1066Q1076,1061 1130,1061Q1184,1061 1241,1066Q1298,1070 1360,1081Z"  transform="translate(49169, 1100)"/>
<path d="M2234,1507Q2155,1224 2119,833Q2083,441 2064,-229L2011,-229Q1976,318 1950,592Q1924,865 1892,1064Q1860,1262 1792,1507Q1898,1483 2009,1483Q2119,1483 2234,1507ZM778,1507Q699,1224 663,833Q627,441 608,-229L555,-229Q528,182 502,502Q475,822 441,1036Q407,1250 336,1507Q441,1483 551,1483Q662,1483 778,1507ZM770,881Q837,833 972,787Q1106,740 1311,711Q1309,756 1304,802Q1299,847 1288,897Q1358,850 1499,802Q1639,754 1851,725L1851,684Q1685,647 1547,594Q1409,541 1296,459Q1303,508 1307,559Q1311,609 1311,662Q1133,620 1005,568Q877,515 778,438Q784,491 789,544Q793,597 793,652Q793,707 788,764Q782,820 770,881Z"  transform="translate(51444, 1100)"/>
<path d="M1556,852Q1688,793 1916,749Q2143,704 2460,682L2460,633Q2137,588 1924,536Q1711,483 1565,410Q1571,458 1576,508Q1580,558 1580,615Q1580,675 1574,733Q1568,790 1556,852ZM1290,375Q1425,320 1682,274Q1938,228 2267,205L2267,158Q1881,107 1659,54Q1436,1 1300,-68Q1305,-20 1310,32Q1314,83 1314,139Q1314,200 1308,257Q1302,313 1290,375ZM1219,1507Q1157,1275 1128,1045Q1098,815 1080,506Q1061,197 1049,-229L995,-229Q960,318 934,592Q908,865 876,1064Q844,1262 776,1507Q881,1483 992,1483Q1103,1483 1219,1507ZM1278,1313Q1413,1255 1669,1210Q1924,1164 2249,1143L2249,1094Q1910,1051 1675,998Q1440,944 1286,870Q1293,922 1298,975Q1302,1027 1302,1082Q1302,1136 1297,1194Q1291,1251 1278,1313ZM279,823Q351,774 488,730Q625,686 840,649L840,606Q623,550 495,497Q367,444 287,381Q293,434 298,487Q302,539 302,594Q302,648 297,705Q292,761 279,823Z"  transform="translate(54014, 1100)"/>
<path d="M1116,852Q1250,792 1477,748Q1704,704 2019,682L2019,633Q1702,588 1487,536Q1272,484 1124,410Q1131,462 1136,515Q1140,567 1140,621Q1140,675 1135,733Q1129,790 1116,852ZM850,375Q988,319 1246,274Q1503,228 1827,205L1827,158Q1441,107 1219,54Q996,1 860,-68Q865,-20 870,32Q874,83 874,139Q874,200 868,257Q862,313 850,375ZM778,1507Q699,1224 663,833Q627,441 608,-229L555,-229Q528,182 502,502Q475,822 441,1036Q407,1250 336,1507Q441,1483 552,1483Q662,1483 778,1507ZM838,1313Q969,1256 1225,1211Q1481,1165 1808,1143L1808,1094Q1472,1051 1237,998Q1001,944 844,870Q851,922 857,975Q862,1027 862,1082Q862,1136 857,1194Q851,1251 838,1313Z"  transform="translate(56752, 1100)"/>
<path d="M250,575Q406,733 622,997Q837,1260 1044,1550L1083,1530Q1000,1342 908,1144Q816,945 741,791L647,600Q713,472 833,271Q952,70 1128,-215L1087,-246Q881,-24 683,172Q485,367 250,575ZM1135,358Q1284,301 1569,256Q1853,210 2214,188L2214,139Q1842,97 1571,42Q1300,-14 1145,-84Q1151,-36 1156,14Q1160,64 1160,121Q1160,182 1154,239Q1148,296 1135,358ZM1118,1407Q1187,1359 1319,1313Q1451,1266 1655,1235Q1652,1277 1647,1319Q1642,1361 1632,1407Q1703,1357 1842,1310Q1980,1262 2193,1231L2193,1192Q2017,1152 1880,1098Q1742,1043 1640,965Q1647,1019 1652,1074Q1657,1129 1657,1186Q1471,1142 1349,1091Q1226,1040 1126,965Q1132,1017 1137,1070Q1141,1123 1142,1182Q1142,1240 1136,1295Q1130,1349 1118,1407ZM1118,881Q1258,826 1547,780Q1836,733 2193,709L2193,662Q1793,614 1543,561Q1292,508 1128,438Q1137,491 1142,544Q1147,596 1147,651Q1147,705 1140,762Q1133,819 1118,881Z"  transform="translate(59050, 1100)"/>
<path d=""  transform="translate(61569, 1100)"/>
<path d="M727,1098Q823,1169 971,1304Q1118,1438 1247,1579L1292,1552Q1235,1424 1175,1309Q1115,1194 1061,1104Q1112,1038 1181,929Q1249,820 1319,694L1278,664Q1159,777 1003,900Q847,1023 727,1098ZM1784,1507Q1703,1219 1667,815Q1630,411 1612,-229L1559,-229Q1512,513 1472,848Q1431,1182 1341,1507Q1445,1483 1556,1483Q1667,1483 1784,1507ZM258,1098Q368,1181 517,1318Q666,1454 780,1579L825,1552Q765,1424 707,1309Q648,1194 594,1104Q645,1036 715,925Q784,813 848,694L807,664Q687,778 528,904Q368,1030 258,1098ZM727,133Q831,212 979,347Q1127,482 1247,612L1292,588Q1235,460 1175,345Q1115,229 1061,141Q1113,72 1187,-45Q1260,-162 1319,-268L1278,-301Q1147,-176 994,-57Q841,62 727,133ZM258,133Q379,226 527,363Q675,499 780,612L825,588Q765,460 707,345Q648,229 594,141Q646,70 719,-46Q792,-163 848,-268L807,-301Q675,-175 519,-53Q362,69 258,133ZM2302,1507Q2241,1269 2213,1044Q2185,819 2166,525Q2147,230 2132,-229L2079,-229Q2039,360 2016,606Q1993,851 1963,1050Q1932,1249 1860,1507Q1966,1483 2076,1483Q2187,1483 2302,1507Z"  transform="translate(62101, 1100)"/>
<path d="M831,1057Q925,997 1068,954Q1211,911 1374,887Q1371,972 1356,1067Q1443,1014 1631,970Q1819,926 2073,905L2073,858Q1825,816 1647,763Q1468,709 1364,641Q1369,689 1372,738Q1374,787 1374,840Q1197,800 1068,751Q938,702 840,631Q845,682 849,733Q852,784 852,838Q667,798 537,747Q407,696 322,631Q334,731 336,835L336,851Q336,948 315,1057Q392,1003 532,960Q671,916 850,889Q848,929 844,971Q839,1012 831,1057ZM831,596Q918,540 1060,496Q1201,451 1374,426Q1371,511 1356,606Q1441,556 1624,512Q1806,468 2073,442L2073,397Q1814,353 1642,301Q1469,249 1364,180Q1369,230 1372,279Q1374,328 1374,379Q1198,341 1065,292Q932,242 840,170Q845,223 849,274Q852,324 852,377Q671,339 540,289Q408,239 322,170Q328,221 332,272Q336,323 336,376Q336,428 332,483Q327,537 315,596Q392,544 529,500Q665,456 852,428Q850,468 845,510Q839,551 831,596ZM2486,1507Q2409,1218 2373,822Q2337,425 2316,-229L2263,-229Q2208,590 2170,897Q2132,1203 2048,1507Q2151,1483 2262,1483Q2372,1483 2486,1507ZM831,139Q933,74 1074,31Q1215,-13 1374,-33Q1372,11 1368,56Q1364,100 1356,150Q1441,98 1624,53Q1806,8 2073,-16L2073,-63Q1797,-110 1629,-162Q1460,-215 1364,-279Q1369,-229 1372,-181Q1374,-133 1374,-82Q1205,-117 1074,-165Q942,-214 840,-291Q851,-188 853,-83L853,-71Q853,28 831,139ZM831,1524Q911,1466 1051,1422Q1191,1377 1374,1350Q1372,1393 1368,1438Q1364,1482 1356,1532Q1441,1477 1624,1434Q1806,1391 2073,1366L2073,1321Q1799,1274 1631,1223Q1463,1171 1364,1102Q1369,1153 1372,1203Q1374,1252 1374,1303Q1208,1267 1077,1219Q945,1170 840,1094Q845,1144 849,1195Q852,1246 852,1299Q852,1352 848,1408Q843,1464 831,1524Z"  transform="translate(64739, 1100)"/>
<path d="M307,1577Q426,1513 622,1471Q818,1429 1067,1409Q1061,1488 1049,1577Q1169,1511 1372,1469Q1575,1427 1837,1407L1837,1360Q1582,1320 1392,1269Q1201,1218 1057,1135Q1061,1175 1065,1224Q1068,1272 1068,1313Q1068,1333 1067,1354Q781,1307 610,1258Q439,1208 317,1135Q327,1239 328,1347L328,1356Q328,1459 307,1577ZM1620,1081Q1544,882 1508,605Q1471,328 1448,-201L1395,-201Q1356,246 1331,434Q1305,621 1277,755Q1248,888 1178,1081Q1231,1071 1284,1066Q1336,1061 1390,1061Q1444,1061 1501,1066Q1558,1070 1620,1081ZM930,1081Q852,875 816,586Q779,296 760,-201L707,-201Q668,220 642,425Q615,629 584,768Q552,906 487,1081Q592,1061 701,1060Q808,1060 930,1081Z"  transform="translate(67561, 1100)"/>
<path d="M991,575Q1157,746 1368,1005Q1579,1264 1780,1550L1825,1530Q1723,1305 1620,1084Q1516,863 1386,600Q1452,472 1570,271Q1688,69 1866,-215L1829,-246Q1615,-19 1410,184Q1204,386 991,575ZM305,1255Q490,1186 737,1145Q983,1104 1298,1085L1298,1036Q1035,1006 795,960Q554,913 319,813Q325,861 330,912Q335,962 335,1019Q335,1079 328,1136Q320,1193 305,1255ZM324,332Q472,273 720,229Q968,185 1317,162L1317,113Q978,73 746,24Q514,-26 334,-111Q340,-58 344,-5Q347,47 347,102Q347,156 342,213Q336,270 324,332Z"  transform="translate(69654, 1100)"/>
<path d="M1772,1507Q1748,1421 1728,1330Q1708,1238 1692,1129Q1675,1020 1662,889Q1648,758 1637,594Q1626,429 1618,226Q1609,23 1602,-229L1548,-229Q1530,37 1515,241Q1500,444 1485,604Q1470,763 1455,886Q1439,1009 1421,1113Q1402,1217 1380,1312Q1357,1406 1329,1507Q1433,1483 1544,1483Q1655,1483 1772,1507ZM1411,131Q1215,105 1065,78Q915,51 800,24Q684,-4 598,-33Q512,-63 446,-94Q453,-42 458,11Q463,63 463,118Q463,172 458,229Q452,286 438,348Q559,296 803,250Q1047,203 1411,178L1411,131ZM1309,1139Q1113,1114 963,1088Q812,1061 697,1033Q581,1005 496,976Q410,946 344,915Q351,967 356,1020Q360,1072 360,1127Q360,1181 355,1239Q350,1296 336,1358Q397,1332 488,1307Q579,1281 701,1259Q823,1236 975,1218Q1127,1200 1309,1188L1309,1139ZM1370,645Q1217,620 1094,594Q971,568 876,540Q780,512 710,483Q639,453 590,422Q597,474 602,526Q606,578 606,632Q606,686 601,743Q595,800 582,862Q627,837 702,812Q777,787 878,765Q978,742 1102,723Q1226,704 1370,692L1370,645Z"  transform="translate(71743, 1100)"/>
<path d="M778,1505Q698,1208 662,812Q626,416 608,-229L555,-229Q516,348 494,587Q472,825 442,1031Q411,1236 336,1505Q441,1483 552,1483Q662,1483 778,1505ZM725,575Q885,740 1109,1015Q1333,1290 1516,1550L1559,1530Q1487,1367 1395,1170Q1302,972 1213,791L1118,600Q1187,472 1306,271Q1425,69 1604,-215L1561,-246Q1368,-38 1190,139Q1012,315 874,440L725,575ZM1364,864Q1449,812 1619,765Q1789,717 2054,694L2054,645Q1821,605 1653,552Q1484,498 1374,422Q1378,474 1381,527Q1383,579 1383,633Q1383,687 1379,745Q1374,802 1364,864Z"  transform="translate(73850, 1100)"/>
</svg>
