<svg width="43435" height="3789" viewBox="0 0 43435 3789" xmlns="http://www.w3.org/2000/svg">
    <defs/>
    <path fill="#000000" stroke="none" transform="matrix(1 0 0 -1 0 2689)" d="M 220 1462 L 402 1462 L 402 160 L 810 160 L 810 0 L 220 0 L 220 1462 Z"/>
    <path fill="#000000" stroke="none" transform="matrix(1 0 0 -1 870 2689)" d="M 1094 160 C 1094 388 1082 559.33333333333 1058 674 C 1034 788 994 876.66666666667 938 940 C 882 1003.33333333333 797.33333333333 1053.33333333333 684 1090 C 577.33333333333 967.33333333333 491.66666666667 836.33333333333 427 697 C 362.33333333333 557 330 441.66666666667 330 351 C 330 285.66666666667 351 237.66666666667 393 207 C 435 175.66666666667 502.66666666667 160 596 160 L 1094 160 Z M 629 1267 C 721.66666666667 1331.66666666667 821 1383 927 1421 C 1032.33333333333 1459 1148.33333333333 1478 1275 1478 L 1275 1323 C 1107 1323 952.66666666667 1283 812 1203 C 905.33333333333 1172.33333333333 981.66666666667 1131 1041 1079 C 1100.33333333333 1026.33333333333 1147 959 1181 877 C 1215 795 1239.33333333333 689 1254 559 C 1268.66666666667 429 1276 242.66666666667 1276 0 L 597 0 C 445 0 331 27.33333333333 255 82 C 178.33333333333 136.66666666667 140 216.33333333333 140 321 C 140 429.66666666667 174.33333333333 559.33333333333 243 710 C 311 860 401.33333333333 1000.33333333333 514 1131 C 401.33333333333 1152.33333333333 279.33333333333 1170 148 1184 L 148 1339 C 285.33333333333 1325 445.66666666667 1301 629 1267 Z"/>
    <path fill="#000000" stroke="none" transform="matrix(1 0 0 -1 2286 2689)" d="M 220 1462 L 402 1462 L 402 998 C 402 989.33333333333 401.33333333333 970.66666666667 400 942 C 398 913.33333333333 395.33333333333 873.33333333333 392 822 L 404 822 C 445.33333333333 884.66666666667 504.66666666667 935 582 973 C 659.33333333333 1011 741.66666666667 1030 829 1030 C 978.33333333333 1030 1096 988.66666666667 1182 906 C 1267.33333333333 823.33333333333 1310 707.33333333333 1310 558 L 1310 539 L 1128 539 L 1128 560 C 1128 660 1100.66666666667 737.33333333333 1046 792 C 990.66666666667 846 912 873 810 873 C 698 873 602 835 522 759 C 442 683 402 584.66666666667 402 464 L 402 0 L 220 0 L 220 1462 Z"/>
    <path fill="#000000" stroke="none" transform="matrix(1 0 0 -1 3729 2689)" d="M 168 437 L 343 437 L 343 326 C 420.33333333333 326 521.66666666667 363.66666666667 647 439 C 771.66666666667 513.66666666667 863.66666666667 590 923 668 C 884.33333333333 640 841.33333333333 618.33333333333 794 603 C 746.66666666667 587.66666666667 689.66666666667 580 623 580 C 491.66666666667 580 381.66666666667 621 293 703 C 204.33333333333 785 160 890.66666666667 160 1020 C 160 1154 209.33333333333 1264.66666666667 308 1352 C 406 1439.33333333333 528.66666666667 1483 676 1483 C 833.33333333333 1483 958.66666666667 1439.66666666667 1052 1353 C 1145.33333333333 1266.33333333333 1192 1153.66666666667 1192 1015 C 1192 887 1157 768.33333333333 1087 659 C 1016.33333333333 549.66666666667 904.33333333333 438.66666666667 751 326 L 1035 326 C 1123.66666666667 326 1189.33333333333 306.66666666667 1232 268 C 1274 229.33333333333 1295 168.66666666667 1295 86 L 1295 -25 L 1121 -25 L 1121 90 C 1121 156.66666666667 1078.66666666667 190 994 190 L 343 190 L 343 -25 L 168 -25 L 168 437 Z M 998 867 C 1004 887 1008.66666666667 908.66666666667 1012 932 C 1015.33333333333 955.33333333333 1017 983 1017 1015 C 1017 1109.66666666667 985.33333333333 1185.66666666667 922 1243 C 858.66666666667 1299.66666666667 774 1328 668 1328 C 568.66666666667 1328 489.33333333333 1300.33333333333 430 1245 C 370 1189 340 1114 340 1020 C 340 931.33333333333 369 860.33333333333 427 807 C 484.33333333333 753 563.66666666667 726 665 726 C 725.66666666667 726 783.66666666667 737.33333333333 839 760 C 894.33333333333 782.66666666667 947.33333333333 818.33333333333 998 867 Z"/>
    <path fill="#000000" stroke="none" transform="matrix(1 0 0 -1 5108 2689)" d="M 205 889 C 205 1082.33333333333 261.33333333333 1229.66666666667 374 1331 C 486.66666666667 1432.33333333333 648.33333333333 1483 859 1483 C 1045.66666666667 1483 1194.33333333333 1439.66666666667 1305 1353 C 1415 1265.66666666667 1478 1143.33333333333 1494 986 L 1708 986 L 1708 826 L 1494 826 C 1494 642 1458.66666666667 501.33333333333 1388 404 C 1317.33333333333 306.66666666667 1217.33333333333 258 1088 258 C 979.33333333333 258 890 291.66666666667 820 359 C 750 426.33333333333 715 510.66666666667 715 612 C 715 723.33333333333 753.66666666667 813.66666666667 831 883 C 907.66666666667 951.66666666667 1014.66666666667 986 1152 986 L 1312 986 C 1302 1096.66666666667 1257.66666666667 1181 1179 1239 C 1099.66666666667 1296.33333333333 992 1325 856 1325 C 691.33333333333 1325 572 1287.33333333333 498 1212 C 424 1136.66666666667 387 1022.66666666667 387 870 L 387 0 L 205 0 L 205 889 Z M 1312 826 L 1163 826 C 1080.33333333333 826 1016.66666666667 808 972 772 C 927.33333333333 736 905 682.66666666667 905 612 C 905 551.33333333333 921.33333333333 503.33333333333 954 468 C 986.66666666667 432.66666666667 1031.33333333333 415 1088 415 C 1166.66666666667 415 1223.66666666667 445.66666666667 1259 507 C 1294.33333333333 567.66666666667 1312 674 1312 826 Z"/>
    <path fill="#000000" stroke="none" transform="matrix(1 0 0 -1 6876 2689)" d="M 226 833 C 262 952.33333333333 309.33333333333 1063.33333333333 368 1166 C 305.33333333333 1170.66666666667 256.66666666667 1186.33333333333 222 1213 C 186.66666666667 1239.66666666667 161.66666666667 1277.33333333333 147 1326 C 131.66666666667 1374.66666666667 124 1451.33333333333 124 1556 L 308 1556 C 308 1460 315.66666666667 1399.33333333333 331 1374 C 345.66666666667 1348 370 1331 404 1323 C 437.33333333333 1315 502.66666666667 1311 600 1311 L 618 1281 C 521.33333333333 1105 454.33333333333 956 417 834 C 379.66666666667 712 361 601.33333333333 361 502 C 361 388.66666666667 388.66666666667 300 444 236 C 498.66666666667 171.33333333333 575.66666666667 139 675 139 C 781.66666666667 139 863 167.33333333333 919 224 C 975 280 1003 368.33333333333 1003 489 L 1003 850 L 1186 850 L 1186 465 C 1186 316.33333333333 1139.33333333333 198.66666666667 1046 112 C 952 25.33333333333 828.66666666667 -18 676 -18 C 526 -18 404.33333333333 29.66666666667 311 125 C 217.66666666667 219.66666666667 171 345.33333333333 171 502 C 171 602.66666666667 189.33333333333 713 226 833 Z"/>
    <path fill="#000000" stroke="none" transform="matrix(1 0 0 -1 8754 2689)" d="M 189 59 L 189 234 C 255.66666666667 202 328.66666666667 178 408 162 C 486.66666666667 145.33333333333 568.33333333333 137 653 137 C 782.33333333333 137 885 162.33333333333 961 213 C 1036.33333333333 263.66666666667 1074 328 1074 406 C 1074 480 1041.33333333333 544 976 598 C 910 651.33333333333 812 692.66666666667 682 722 L 219 592 L 177 732 L 426 801 L 426 811 C 335.33333333333 843 266 885.33333333333 218 938 C 170 990.66666666667 146 1052.33333333333 146 1123 C 146 1233.66666666667 196 1321.33333333333 296 1386 C 396 1450.66666666667 522 1483 674 1483 C 824 1483 949.33333333333 1451.33333333333 1050 1388 C 1150.66666666667 1324 1201 1235.66666666667 1201 1123 C 1201 1052.33333333333 1177 990.66666666667 1129 938 C 1081 885.33333333333 1011.66666666667 843 921 811 L 921 801 C 1036.33333333333 759.66666666667 1122 707 1178 643 C 1233.33333333333 579 1261 505.66666666667 1261 423 C 1261 291.66666666667 1205.33333333333 185 1094 103 C 982.66666666667 21 839.66666666667 -20 665 -20 C 560.33333333333 -20 470.66666666667 -14 396 -2 C 321.33333333333 10 252.33333333333 30.33333333333 189 59 Z M 682 872 C 798.66666666667 898.66666666667 883.66666666667 933 937 975 C 989.66666666667 1017 1016 1066.33333333333 1016 1123 C 1016 1187.66666666667 985 1239 923 1277 C 861 1314.33333333333 778 1333 674 1333 C 569.33333333333 1333 486 1314 424 1276 C 362 1238 331 1187 331 1123 C 331 1069 358.33333333333 1021 413 979 C 467.66666666667 936.33333333333 557.33333333333 900.66666666667 682 872 Z"/>
    <path fill="#000000" stroke="none" transform="matrix(1 0 0 -1 10140 2689)" d="M 220 1462 L 402 1462 L 402 998 C 402 989.33333333333 401.33333333333 970.66666666667 400 942 C 398 913.33333333333 395.33333333333 873.33333333333 392 822 L 404 822 C 445.33333333333 884.66666666667 504.66666666667 935 582 973 C 659.33333333333 1011 741.66666666667 1030 829 1030 C 978.33333333333 1030 1096 988.66666666667 1182 906 C 1267.33333333333 823.33333333333 1310 707.33333333333 1310 558 L 1310 539 L 1128 539 L 1128 560 C 1128 660 1100.66666666667 737.33333333333 1046 792 C 990.66666666667 846 912 873 810 873 C 698 873 602 835 522 759 C 442 683 402 584.66666666667 402 464 L 402 0 L 220 0 L 220 1462 Z"/>
    <path fill="#000000" stroke="none" transform="matrix(1 0 0 -1 11543 2689)" d="M 409 3 C 318.33333333333 17.66666666667 225.33333333333 43 130 79 L 130 246 C 213.33333333333 216 296.33333333333 191.33333333333 379 172 C 461.66666666667 152 541.33333333333 140.33333333333 618 137 L 618 719 C 460 747 344.66666666667 791.66666666667 272 853 C 198.66666666667 914.33333333333 162 999 162 1107 C 162 1212.33333333333 205.66666666667 1298 293 1364 C 379.66666666667 1429.33333333333 488.66666666667 1462 620 1462 L 800 1462 L 800 859 C 1022.66666666667 834.33333333333 1181 790 1275 726 C 1369 662 1416 570 1416 450 C 1416 308 1355 194.33333333333 1233 109 C 1110.33333333333 23 944.33333333333 -20 735 -20 C 608.33333333333 -20 499.66666666667 -12.33333333333 409 3 Z M 800 699 L 800 137 C 925.33333333333 139.66666666667 1027.66666666667 168.66666666667 1107 224 C 1186.33333333333 278.66666666667 1226 350.33333333333 1226 439 C 1226 511.66666666667 1195.33333333333 567.66666666667 1134 607 C 1072 646.33333333333 960.66666666667 677 800 699 Z M 618 887 L 618 1303 C 535.33333333333 1303 470.33333333333 1284.33333333333 423 1247 C 375.66666666667 1209 352 1161.33333333333 352 1104 C 352 1047.33333333333 372.33333333333 1000.66666666667 413 964 C 453.66666666667 927.33333333333 522 901.66666666667 618 887 Z"/>
    <path fill="#000000" stroke="none" transform="matrix(1 0 0 -1 13074 2689)" d="M 205 982 C 205 1138 250.66666666667 1260.33333333333 342 1349 C 432.66666666667 1437.66666666667 556.66666666667 1482 714 1482 C 868.66666666667 1482 991.33333333333 1436.66666666667 1082 1346 C 1172.66666666667 1255.33333333333 1218 1130.66666666667 1218 972 L 1218 923 L 1036 923 L 1036 989 C 1036 1091 1007 1172.33333333333 949 1233 C 891 1293.66666666667 812.66666666667 1324 714 1324 C 613.33333333333 1324 533.66666666667 1292.66666666667 475 1230 C 416.33333333333 1167.33333333333 387 1078.33333333333 387 963 L 387 0 L 205 0 L 205 982 Z"/>
    <path fill="#000000" stroke="none" transform="matrix(1 0 0 -1 14425 2689)" d="M 1491 160 L 1491 0 L 961 0 L 961 963 C 961 1078.33333333333 931.66666666667 1167.33333333333 873 1230 C 814.33333333333 1292.66666666667 734.66666666667 1324 634 1324 C 535.33333333333 1324 457 1293.66666666667 399 1233 C 341 1172.33333333333 312 1091 312 989 L 312 923 L 130 923 L 130 972 C 130 1130 175.33333333333 1254.66666666667 266 1346 C 356 1436.66666666667 478.66666666667 1482 634 1482 C 790.66666666667 1482 914.66666666667 1437.66666666667 1006 1349 C 1097.33333333333 1260.33333333333 1143 1138 1143 982 L 1143 160 L 1491 160 Z"/>
    <path fill="#000000" stroke="none" transform="matrix(1 0 0 -1 15976 2689)" d="M 1269 0 L 1087 0 L 1087 888 C 1087 1036 1057.66666666667 1145.66666666667 999 1217 C 939.66666666667 1288.33333333333 852.33333333333 1324 737 1324 C 620.33333333333 1324 533 1288.33333333333 475 1217 C 416.33333333333 1145.66666666667 387 1036.33333333333 387 889 L 387 0 L 205 0 L 205 909 C 205 1091.66666666667 251.33333333333 1233 344 1333 C 436.66666666667 1432.33333333333 568 1482 738 1482 C 906.66666666667 1482 1037.33333333333 1432.66666666667 1130 1334 C 1222.66666666667 1234.66666666667 1269 1093 1269 909 L 1269 792 L 1617 792 L 1617 632 L 1269 632 L 1269 0 Z"/>
    <path fill="#000000" stroke="none" transform="matrix(1 0 0 -1 18185 2689)" d="M 194 1010 L 369 1010 L 369 137 L 612 137 L 612 0 L 194 0 L 194 1010 Z"/>
    <path fill="#000000" stroke="none" transform="matrix(1 0 0 -1 18848 2689)" d="M 875 -1 C 875 26.33333333333 876 51.66666666667 878 75 C 880 98.33333333333 882.66666666667 120.33333333333 886 141 L 874 141 C 842 89 798 49.66666666667 742 23 C 686 -4.33333333333 623.66666666667 -18 555 -18 C 423 -18 319.66666666667 30 245 126 C 170.33333333333 221.33333333333 133 347 133 503 C 133 665 170.33333333333 793.33333333333 245 888 C 319.66666666667 982 424.66666666667 1029 560 1029 C 698.66666666667 1029 803.33333333333 976.66666666667 874 872 L 882 872 L 907 1010 L 1050 1010 L 1050 -403 L 1293 -403 L 1293 -546 L 875 -546 L 875 -1 Z M 803 788 C 754.33333333333 849.33333333333 681 880 583 880 C 497 880 431 847.33333333333 385 782 C 338.33333333333 716.66666666667 315 622.66666666667 315 500 C 315 379.33333333333 337.66666666667 287.66666666667 383 225 C 427.66666666667 161.66666666667 495.33333333333 130 586 130 C 689.33333333333 130 763.33333333333 160.33333333333 808 221 C 852.66666666667 281.66666666667 875 375 875 501 C 875 630.33333333333 851 726 803 788 Z"/>
    <path fill="#000000" stroke="none" transform="matrix(1 0 0 -1 20092 2689)" d="M 370 533 L 370 -546 L 194 -546 L 194 1010 L 337 1010 L 362 872 L 372 872 C 402.66666666667 922 447.33333333333 960.66666666667 506 988 C 564.66666666667 1015.33333333333 636 1029 720 1029 C 856 1029 970 984.33333333333 1062 895 C 1153.33333333333 805.66666666667 1205.33333333333 684.33333333333 1218 531 C 1246 521.66666666667 1274 511.66666666667 1302 501 C 1329.33333333333 490.33333333333 1357.33333333333 479.66666666667 1386 469 L 1341 353 L 1281 376 C 1259.66666666667 383.33333333333 1239.33333333333 390 1220 396 C 1212 260.66666666667 1179.66666666667 156.33333333333 1123 83 C 1065.66666666667 9 987.66666666667 -28 889 -28 C 801 -28 729.33333333333 0 674 56 C 618.66666666667 112 591 185 591 275 C 591 367 620.33333333333 440.33333333333 679 495 C 737 549.66666666667 811.66666666667 577 903 577 C 911 577 921.33333333333 576.66666666667 934 576 L 1007 569 C 1017 567.66666666667 1024 567 1028 567 C 1014.66666666667 663.66666666667 977 740 915 796 C 853 852 780 880 696 880 C 579.33333333333 880 496 853 446 799 C 395.33333333333 744.33333333333 370 655.66666666667 370 533 Z M 1038 394 L 1038 430 L 971 438 C 959 439.33333333333 947.33333333333 440.33333333333 936 441 C 924.66666666667 441.66666666667 915 442 907 442 C 861 442 824.33333333333 427 797 397 C 769.66666666667 366.33333333333 756 320.66666666667 756 260 C 756 213.33333333333 769 175.33333333333 795 146 C 820.33333333333 116 851.66666666667 101 889 101 C 941 101 979 125.66666666667 1003 175 C 1026.33333333333 224.33333333333 1038 297.33333333333 1038 394 Z"/>
    <path fill="#000000" stroke="none" transform="matrix(1 0 0 -1 21525 2689)" d="M 1054 0 L 911 0 L 886 138 L 876 138 C 844 88 799 49.33333333333 741 22 C 683 -5.33333333333 616.66666666667 -19 542 -19 C 432.66666666667 -19 345.33333333333 13 280 77 C 214.66666666667 140.33333333333 182 228 182 340 L 182 1010 L 358 1010 L 358 387 C 358 301.66666666667 378.66666666667 237.33333333333 420 194 C 460.66666666667 150 519.66666666667 128 597 128 C 697.66666666667 128 769.66666666667 159.66666666667 813 223 C 856.33333333333 285.66666666667 878 379 878 503 L 878 1010 L 1054 1010 L 1054 0 Z"/>
    <path fill="#000000" stroke="none" transform="matrix(1 0 0 -1 22773 2689)" d="M 1050 143 L 1293 143 L 1293 0 L 1050 0 L 1050 -546 L 875 -546 L 875 -1 C 875 26.33333333333 876 51.66666666667 878 75 C 880 98.33333333333 882.66666666667 120.33333333333 886 141 L 874 141 C 842 89 798 49.66666666667 742 23 C 686 -4.33333333333 623.66666666667 -18 555 -18 C 423 -18 319.66666666667 30 245 126 C 170.33333333333 221.33333333333 133 347 133 503 C 133 665 170.33333333333 793.33333333333 245 888 C 319.66666666667 982 424.66666666667 1029 560 1029 C 698.66666666667 1029 803.33333333333 976.66666666667 874 872 L 882 872 L 907 1010 L 1050 1010 L 1050 143 Z M 803 788 C 754.33333333333 849.33333333333 681 880 583 880 C 497 880 431 847.33333333333 385 782 C 338.33333333333 716.66666666667 315 622.66666666667 315 500 C 315 379.33333333333 337.66666666667 287.66666666667 383 225 C 427.66666666667 161.66666666667 495.33333333333 130 586 130 C 689.33333333333 130 763.33333333333 160.33333333333 808 221 C 852.66666666667 281.66666666667 875 375 875 501 C 875 630.33333333333 851 726 803 788 Z"/>
    <path fill="#000000" stroke="none" transform="matrix(1 0 0 -1 24121 2689)" d="M 194 1010 L 337 1010 L 362 872 L 372 872 C 404 922 449 960.66666666667 507 988 C 565 1015.33333333333 631.33333333333 1029 706 1029 C 814.66666666667 1029 902 997.33333333333 968 934 C 1033.33333333333 870 1066 782 1066 670 L 1066 -403 L 1309 -403 L 1309 -546 L 890 -546 L 890 623 C 890 708.33333333333 869.66666666667 773 829 817 C 787.66666666667 860.33333333333 728.33333333333 882 651 882 C 550.33333333333 882 478.33333333333 850.66666666667 435 788 C 391.66666666667 724.66666666667 370 631 370 507 L 370 0 L 194 0 L 194 1010 Z"/>
    <path fill="#000000" stroke="none" transform="matrix(1 0 0 -1 25901 2689)" d="M 268 893 C 357.33333333333 983.66666666667 478.66666666667 1029 632 1029 C 658 1029 684.33333333333 1027.33333333333 711 1024 C 737 1020 760.66666666667 1016 782 1012 L 819 1004 C 831 1001.33333333333 842.66666666667 998.33333333333 854 995 L 854 1556 L 1030 1556 L 1030 950 L 1247 899 L 1217 767 L 1030 814 L 1030 507 C 1030 349.66666666667 991.33333333333 223 914 127 C 836 30.33333333333 728 -18 590 -18 C 455.33333333333 -18 345.66666666667 30.66666666667 261 128 C 175.66666666667 225.33333333333 133 350.33333333333 133 503 C 133 672.33333333333 178 802.33333333333 268 893 Z M 854 507 L 854 853 C 843.33333333333 855.66666666667 832.66666666667 858 822 860 L 789 866 C 769.66666666667 869.33333333333 747.66666666667 872.66666666667 723 876 C 698.33333333333 878.66666666667 673.33333333333 880 648 880 C 543.33333333333 880 461.66666666667 848.33333333333 403 785 C 344.33333333333 721.66666666667 315 626.66666666667 315 500 C 315 381.33333333333 339.66666666667 290.33333333333 389 227 C 437.66666666667 163 506.66666666667 131 596 131 C 684.66666666667 131 750 161 792 221 C 833.33333333333 281 854 376.33333333333 854 507 Z"/>
    <path fill="#000000" stroke="none" transform="matrix(1 0 0 -1 27209 2689)" d="M 90 -409 L 104 -409 C 160.66666666667 -409 203.66666666667 -391 233 -355 C 262.33333333333 -319 277 -270.66666666667 277 -210 C 277 -178 272.66666666667 -148.33333333333 264 -121 L 236 -32 C 224.66666666667 2.66666666667 215 40.33333333333 207 81 C 198.33333333333 121 194 167.66666666667 194 221 L 194 1010 L 362 1010 L 362 213 C 362 119 376 39.66666666667 404 -25 C 432 -89.66666666667 446 -147.33333333333 446 -198 C 446 -296 414.66666666667 -378.33333333333 352 -445 C 288.66666666667 -512.33333333333 211.33333333333 -546 120 -546 L 90 -546 L 90 -409 Z"/>
    <path fill="#000000" stroke="none" transform="matrix(1 0 0 -1 27765 2689)" d="M 878 1418 C 847.33333333333 1418 822.66666666667 1409.66666666667 804 1393 C 785.33333333333 1376.33333333333 776 1351 776 1317 C 776 1294.33333333333 783 1273 797 1253 C 810.33333333333 1232.33333333333 827.33333333333 1211.33333333333 848 1190 L 915 1120 C 957 1075.33333333333 990.66666666667 1026 1016 972 C 1041.33333333333 917.33333333333 1054 856.66666666667 1054 790 L 1054 0 L 911 0 L 886 138 L 876 138 C 844 88 799 49.33333333333 741 22 C 683 -5.33333333333 616.66666666667 -19 542 -19 C 432.66666666667 -19 345.33333333333 13 280 77 C 214.66666666667 140.33333333333 182 228 182 340 L 182 1010 L 358 1010 L 358 387 C 358 301.66666666667 378.66666666667 237.33333333333 420 194 C 460.66666666667 150 519.66666666667 128 597 128 C 697.66666666667 128 769.66666666667 159.66666666667 813 223 C 856.33333333333 285.66666666667 878 379 878 503 L 878 734 C 878 803.33333333333 865.66666666667 866.33333333333 841 923 C 816.33333333333 979.66666666667 770.33333333333 1042.33333333333 703 1111 C 635.66666666667 1179.66666666667 602 1248.33333333333 602 1317 C 602 1391.66666666667 627 1450.33333333333 677 1493 C 726.33333333333 1535 793.66666666667 1556 879 1556 L 1631 1556 L 1631 1010 L 2354 1010 L 2354 867 L 1631 867 L 1631 387 C 1631 301.66666666667 1651.66666666667 237.33333333333 1693 194 C 1733.66666666667 150 1792.66666666667 128 1870 128 C 1970.66666666667 128 2042.66666666667 159.66666666667 2086 223 C 2129.33333333333 285.66666666667 2151 379 2151 503 L 2151 633 L 2327 633 L 2327 0 L 2184 0 L 2159 138 L 2149 138 C 2117 88 2072 49.33333333333 2014 22 C 1956 -5.33333333333 1889.66666666667 -19 1815 -19 C 1705.66666666667 -19 1618.33333333333 13 1553 77 C 1487.66666666667 140.33333333333 1455 228 1455 340 L 1455 1418 L 878 1418 Z"/>
    <path fill="#000000" stroke="none" transform="matrix(1 0 0 -1 30286 2689)" d="M 1053 1556 L 1053 -403 L 1296 -403 L 1296 -546 L 878 -546 L 878 -2 C 878 26 879 51.66666666667 881 75 C 883 97.66666666667 885.66666666667 119.33333333333 889 140 L 877 140 C 845 88.66666666667 800 49.33333333333 742 22 C 683.33333333333 -5.33333333333 616.66666666667 -19 542 -19 C 432.66666666667 -19 345.33333333333 13 280 77 C 214.66666666667 140.33333333333 182 228 182 340 L 182 1010 L 358 1010 L 358 387 C 358 301.66666666667 378.66666666667 237.33333333333 420 194 C 460.66666666667 150 519.66666666667 128 597 128 C 697.66666666667 128 769.66666666667 159.66666666667 813 223 C 856.33333333333 285.66666666667 878 379 878 503 L 878 1556 L 1053 1556 Z"/>
    <path fill="#000000" stroke="none" transform="matrix(1 0 0 -1 31533 2689)" d="M 878 734 C 878 803.33333333333 865.66666666667 866.33333333333 841 923 C 816.33333333333 979.66666666667 770.33333333333 1042.33333333333 703 1111 C 635.66666666667 1179.66666666667 602 1248.33333333333 602 1317 C 602 1391.66666666667 627 1450.33333333333 677 1493 C 726.33333333333 1535 793.66666666667 1556 879 1556 L 1455 1556 L 1594 1486 C 1576.66666666667 1450 1561.66666666667 1416.66666666667 1549 1386 C 1535.66666666667 1355.33333333333 1529 1328.33333333333 1529 1305 C 1529 1271.66666666667 1561 1237.66666666667 1625 1203 C 1689 1168.33333333333 1746.66666666667 1136.33333333333 1798 1107 L 1806 1083 C 1730.66666666667 963 1671 847.66666666667 1627 737 C 1582.33333333333 625.66666666667 1560 531.33333333333 1560 454 C 1560 353.33333333333 1583.33333333333 273.66666666667 1630 215 C 1676.66666666667 155.66666666667 1741.33333333333 126 1824 126 C 1915.33333333333 126 1984.33333333333 157.33333333333 2031 220 C 2077 282.66666666667 2100 373.66666666667 2100 493 L 2100 1010 L 2276 1010 L 2276 0 L 2133 0 L 2108 138 L 2098 138 C 2070.66666666667 91.33333333333 2029 53.66666666667 1973 25 C 1917 -4.33333333333 1859.33333333333 -19 1800 -19 C 1673.33333333333 -19 1571.33333333333 23.33333333333 1494 108 C 1416.66666666667 192 1378 306.66666666667 1378 452 C 1378 529.33333333333 1396.66666666667 618.33333333333 1434 719 C 1471.33333333333 819.66666666667 1528 927.33333333333 1604 1042 C 1492 1103.33333333333 1422.33333333333 1148.66666666667 1395 1178 C 1367.66666666667 1206.66666666667 1354 1240.33333333333 1354 1279 C 1354 1298.33333333333 1357.33333333333 1319.33333333333 1364 1342 C 1370 1364.66666666667 1378.66666666667 1390 1390 1418 L 878 1418 C 847.33333333333 1418 822.66666666667 1409.66666666667 804 1393 C 785.33333333333 1376.33333333333 776 1351 776 1317 C 776 1294.33333333333 783 1273 797 1253 C 810.33333333333 1232.33333333333 827.33333333333 1211.33333333333 848 1190 L 915 1120 C 957 1075.33333333333 990.66666666667 1026 1016 972 C 1041.33333333333 917.33333333333 1054 856.66666666667 1054 790 L 1054 0 L 911 0 L 886 138 L 876 138 C 844 88 799 49.33333333333 741 22 C 683 -5.33333333333 616.66666666667 -19 542 -19 C 432.66666666667 -19 345.33333333333 13 280 77 C 214.66666666667 140.33333333333 182 228 182 340 L 182 1010 L 358 1010 L 358 387 C 358 301.66666666667 378.66666666667 237.33333333333 420 194 C 460.66666666667 150 519.66666666667 128 597 128 C 697.66666666667 128 769.66666666667 159.66666666667 813 223 C 856.33333333333 285.66666666667 878 379 878 503 L 878 734 Z"/>
    <path fill="#000000" stroke="none" transform="matrix(1 0 0 -1 34535 2689)" d="M 877 140 C 845 88.66666666667 800 49.33333333333 742 22 C 683.33333333333 -5.33333333333 616.66666666667 -19 542 -19 C 432.66666666667 -19 345.33333333333 13 280 77 C 214.66666666667 140.33333333333 182 228 182 340 L 182 1010 L 358 1010 L 358 387 C 358 301.66666666667 378.66666666667 237.33333333333 420 194 C 460.66666666667 150 519.66666666667 128 597 128 C 697.66666666667 128 769.66666666667 159.66666666667 813 223 C 856.33333333333 285.66666666667 878 379 878 503 L 878 1556 L 1053 1556 L 1053 1012 C 1053 984 1052 958.66666666667 1050 936 C 1048 912.66666666667 1045.33333333333 890.66666666667 1042 870 L 1054 870 C 1086 920 1131.33333333333 959 1190 987 C 1248.66666666667 1015 1315.33333333333 1029 1390 1029 C 1498.66666666667 1029 1586 997.33333333333 1652 934 C 1717.33333333333 870 1750 782 1750 670 L 1750 0 L 1574 0 L 1574 623 C 1574 708.33333333333 1553.66666666667 773 1513 817 C 1471.66666666667 860.33333333333 1412.33333333333 882 1335 882 C 1234.33333333333 882 1162.33333333333 850.66666666667 1119 788 C 1075.66666666667 724.66666666667 1054 631 1054 507 L 1054 -546 L 878 -546 L 878 -2 C 878 26 879 51.66666666667 881 75 C 883 97.66666666667 885.66666666667 119.33333333333 889 140 L 877 140 Z"/>
    <path fill="#000000" stroke="none" transform="matrix(1 0 0 -1 36466 2689)" d="M 182 1556 L 358 1556 L 358 387 C 358 301.66666666667 378.66666666667 237.33333333333 420 194 C 460.66666666667 150 519.66666666667 128 597 128 C 697.66666666667 128 769.66666666667 159.66666666667 813 223 C 856.33333333333 285.66666666667 878 379 878 503 L 878 1010 L 1053 1010 L 1053 -546 L 878 -546 L 878 -2 C 878 26 879 51.66666666667 881 75 C 883 97.66666666667 885.66666666667 119.33333333333 889 140 L 877 140 C 845 88.66666666667 800 49.33333333333 742 22 C 683.33333333333 -5.33333333333 616.66666666667 -19 542 -19 C 432.66666666667 -19 345.33333333333 13 280 77 C 214.66666666667 140.33333333333 182 228 182 340 L 182 1556 Z"/>
    <path fill="#000000" stroke="none" transform="matrix(1 0 0 -1 37713 2689)" d="M 194 1010 L 337 1010 L 362 872 L 372 872 C 404 922 449 960.66666666667 507 988 C 565 1015.33333333333 631.33333333333 1029 706 1029 C 814.66666666667 1029 902 997.33333333333 968 934 C 1033.33333333333 870 1066 782 1066 670 L 1066 143 L 1309 143 L 1309 0 L 1066 0 L 1066 -546 L 890 -546 L 890 623 C 890 708.33333333333 869.66666666667 773 829 817 C 787.66666666667 860.33333333333 728.33333333333 882 651 882 C 550.33333333333 882 478.33333333333 850.66666666667 435 788 C 391.66666666667 724.66666666667 370 631 370 507 L 370 0 L 194 0 L 194 1010 Z"/>
    <path fill="#000000" stroke="none" transform="matrix(1 0 0 -1 39077 2689)" d="M 807 611 L 807 646 C 807 724 791 783 759 823 C 727 862.33333333333 681 882 621 882 C 533.66666666667 882 470 853 430 795 C 389.33333333333 736.33333333333 369 643 369 515 L 369 -546 L 194 -546 L 194 1556 L 369 1556 L 369 1012 C 369 984 368 958.66666666667 366 936 C 364 912.66666666667 361.33333333333 890.66666666667 358 870 L 370 870 C 400 922 441.33333333333 961.66666666667 494 989 C 546 1015.66666666667 602 1029 662 1029 C 761.33333333333 1029 839 999.33333333333 895 940 C 950.33333333333 880.66666666667 978 798.33333333333 978 693 L 975 387 C 975 301.66666666667 995.66666666667 237.33333333333 1037 194 C 1077.66666666667 150 1136.66666666667 128 1214 128 C 1314.66666666667 128 1386.66666666667 159.66666666667 1430 223 C 1473.33333333333 285.66666666667 1495 379 1495 503 L 1495 1010 L 1671 1010 L 1671 0 L 1528 0 L 1503 138 L 1493 138 C 1461 88 1416 49.33333333333 1358 22 C 1300 -5.33333333333 1233.66666666667 -19 1159 -19 C 1049.66666666667 -19 962.33333333333 13 897 77 C 831.66666666667 140.33333333333 799 228 799 340 L 807 611 Z"/>
    <path fill="#000000" stroke="none" transform="matrix(1 0 0 -1 40944 2689)" d="M 182 1556 L 358 1556 L 358 387 C 358 301.66666666667 378.66666666667 237.33333333333 420 194 C 460.66666666667 150 519.66666666667 128 597 128 C 697.66666666667 128 769.66666666667 159.66666666667 813 223 C 856.33333333333 285.66666666667 878 379 878 503 L 878 1010 L 1053 1010 L 1053 -546 L 878 -546 L 878 -2 C 878 26 879 51.66666666667 881 75 C 883 97.66666666667 885.66666666667 119.33333333333 889 140 L 877 140 C 845 88.66666666667 800 49.33333333333 742 22 C 683.33333333333 -5.33333333333 616.66666666667 -19 542 -19 C 432.66666666667 -19 345.33333333333 13 280 77 C 214.66666666667 140.33333333333 182 228 182 340 L 182 1556 Z"/>
    <path fill="#000000" stroke="none" transform="matrix(1 0 0 -1 42191 2689)" d="M 1050 -65 C 1050 -225 1008 -346.66666666667 924 -430 C 840 -513.33333333333 718.66666666667 -555 560 -555 C 495.33333333333 -555 432.33333333333 -549.33333333333 371 -538 C 309 -527.33333333333 254 -511.33333333333 206 -490 L 206 -328 C 256 -354.66666666667 312.33333333333 -374.33333333333 375 -387 C 437.66666666667 -400.33333333333 502.33333333333 -407 569 -407 C 665.66666666667 -407 741 -378.66666666667 795 -322 C 848.33333333333 -266 875 -184.66666666667 875 -78 C 875 -10 875.66666666667 37.66666666667 877 65 C 878.33333333333 92.33333333333 881.33333333333 117.66666666667 886 141 L 874 141 C 842 89 798 49.66666666667 742 23 C 686 -4.33333333333 623.66666666667 -18 555 -18 C 423 -18 319.66666666667 30 245 126 C 170.33333333333 221.33333333333 133 347 133 503 C 133 665 170.33333333333 793.33333333333 245 888 C 319.66666666667 982 424.66666666667 1029 560 1029 C 698.66666666667 1029 803.33333333333 976.66666666667 874 872 L 882 872 L 907 1010 L 1050 1010 L 1050 -65 Z M 803 788 C 754.33333333333 849.33333333333 681 880 583 880 C 497 880 431 847.33333333333 385 782 C 338.33333333333 716.66666666667 315 622.66666666667 315 500 C 315 378.66666666667 337.33333333333 286.66666666667 382 224 C 426.66666666667 161.33333333333 494.66666666667 130 586 130 C 689.33333333333 130 763.33333333333 160.33333333333 808 221 C 852.66666666667 281.66666666667 875 375 875 501 C 875 630.33333333333 851 726 803 788 Z"/>
</svg>
