<svg xmlns="http://www.w3.org/2000/svg" viewBox="0 0 46164 3789" transform="translate(0, 3789) scale(1, -1)">
<path d="M813,41Q707,-20 574,-20Q439,-20 331,51Q222,122 161,255Q100,387 100,565L100,848Q100,1117 170,1320Q240,1522 371,1631Q501,1740 675,1740Q903,1740 1042,1564L909,1461Q874,1525 801,1564Q727,1602 649,1602Q482,1602 398,1472Q313,1341 292,1024Q412,1118 574,1118Q687,1118 784,1057Q881,995 929,893Q981,998 1078,1058Q1175,1118 1286,1118Q1422,1118 1531,1051Q1639,983 1700,858Q1760,733 1760,565Q1760,386 1699,254Q1637,121 1528,51Q1419,-20 1286,-20Q1153,-20 1047,41L1128,158Q1200,118 1278,118Q1421,118 1499,232Q1576,346 1576,563Q1576,760 1499,870Q1421,980 1281,980Q1166,980 1096,896Q1025,812 1015,663L845,663Q834,813 764,897Q694,980 579,980Q440,980 362,870Q284,760 284,563Q284,345 362,232Q439,118 582,118Q660,118 732,158L813,41Z"  transform="translate(0, 1100)"/>
<path d="M1637,-83Q1637,-213 1594,-328Q1550,-444 1473,-507Q1396,-570 1297,-570Q1144,-570 1051,-433Q958,-296 958,-71L958,187Q818,-20 616,-20Q370,-20 235,209Q100,438 100,840Q100,1281 232,1511Q363,1740 616,1740Q872,1740 1004,1511Q1136,1282 1136,840L1136,-74Q1136,-222 1152,-291Q1168,-361 1203,-396Q1238,-432 1297,-432Q1357,-432 1392,-396Q1427,-361 1443,-291Q1459,-221 1459,-74L1459,1098L1637,1098L1637,-83ZM948,696Q898,778 808,824Q718,870 605,870Q511,870 425,827Q338,783 286,707Q299,408 381,263Q462,118 616,118Q771,118 853,257Q935,396 948,696ZM952,890Q948,1264 867,1433Q786,1602 616,1602Q444,1602 366,1439Q288,1275 284,898Q353,950 438,979Q522,1008 610,1008Q800,1008 952,890Z"  transform="translate(1860, 1100)"/>
<path d="M487,969Q393,929 339,824Q284,718 284,538Q284,452 301,378Q375,446 463,477Q550,508 636,508Q821,508 953,390Q968,456 968,538Q968,718 914,824Q859,929 765,969L821,1108Q977,1025 1065,879Q1152,732 1152,550Q1152,364 1075,229Q1130,113 1130,-20Q1130,-193 1061,-324Q991,-456 870,-528Q749,-600 607,-600Q469,-600 392,-543Q315,-487 315,-382Q315,-293 380,-231Q444,-170 548,-170Q642,-170 706,-231Q770,-292 770,-391Q770,-432 764,-460Q846,-418 896,-296Q946,-174 946,-25Q946,29 938,75Q807,-20 626,-20Q473,-20 352,50Q231,120 166,249Q100,377 100,550Q100,732 188,879Q276,1025 431,1108L487,969ZM627,370Q551,370 481,333Q411,295 368,231Q456,118 626,118Q794,118 883,233Q798,370 627,370ZM452,-383Q452,-426 480,-453Q508,-480 549,-480Q589,-480 616,-452Q643,-424 643,-383Q643,-340 616,-311Q588,-282 549,-282Q508,-282 480,-310Q452,-338 452,-383Z"  transform="translate(3637, 1100)"/>
<path d="M1083,551Q1083,394 1009,260Q934,126 807,53Q679,-20 525,-20Q408,-20 311,21Q213,62 157,139Q100,216 100,313Q100,407 160,472Q219,537 334,566L334,571Q242,590 184,652Q125,713 125,794Q125,881 184,957Q242,1032 339,1075Q436,1118 540,1118Q689,1118 815,1044Q941,969 1012,839Q1083,708 1083,551ZM565,496L525,496Q412,496 348,451Q284,405 284,322Q284,225 353,172Q422,118 566,118Q729,118 814,229Q899,340 899,551Q899,760 813,870Q727,980 563,980Q441,980 375,931Q309,882 309,792Q309,634 540,634L565,634L565,496Z"  transform="translate(4889, 1100)"/>
<path d="M1055,-20Q843,-20 766,176Q689,-20 478,-20Q303,-20 202,114Q100,247 100,473Q100,661 187,809Q273,956 428,1037Q582,1118 768,1118Q950,1118 1103,1037Q1256,955 1345,809Q1433,662 1433,473Q1433,247 1331,114Q1229,-20 1055,-20ZM768,980Q541,980 413,848Q284,716 284,485Q284,118 462,118Q651,118 681,430L852,430Q882,118 1071,118Q1249,118 1249,485Q1249,713 1120,847Q990,980 768,980Z"  transform="translate(6072, 1100)"/>
<path d="M1747,18Q1697,-5 1654,-12Q1610,-20 1555,-20Q1346,-20 1159,133Q906,-20 591,-20Q442,-20 333,20Q223,60 162,142Q100,224 100,333Q100,420 148,490Q195,559 284,598Q188,638 144,697Q100,756 100,843Q100,917 148,981Q196,1044 284,1081Q372,1118 488,1118Q572,1118 656,1095Q740,1071 796,1033L728,919Q688,948 625,964Q561,980 507,980Q396,980 340,940Q284,900 284,835Q284,786 302,752Q319,718 352,695Q384,672 438,659Q492,646 593,646L605,646L605,525L545,527Q422,527 353,477Q284,427 284,336Q284,232 362,175Q440,118 590,118Q847,118 1053,240Q968,343 920,473Q871,602 871,748Q871,851 912,936Q952,1021 1027,1070Q1102,1118 1198,1118Q1293,1118 1373,1071Q1452,1023 1492,941Q1532,858 1532,749Q1532,448 1293,231Q1421,118 1560,118Q1632,118 1687,139L1747,18ZM1189,346Q1348,509 1348,745Q1348,868 1314,924Q1279,980 1198,980Q1126,980 1091,929Q1055,877 1055,763Q1055,538 1189,346Z"  transform="translate(7605, 1100)"/>
<path d=""  transform="translate(9312, 1100)"/>
<path d="M925,-343Q981,-224 1011,-59Q1040,106 1040,339Q1040,980 639,980Q471,980 378,856Q284,732 284,517Q284,305 305,212Q325,118 369,118Q393,118 417,147Q440,176 481,252Q551,386 646,386Q736,386 784,320Q832,253 832,137L829,68L679,0L682,85Q682,169 664,209Q646,248 625,248Q607,248 594,228Q581,208 569,179Q556,149 541,114Q525,79 501,50Q476,20 441,0Q406,-20 354,-20Q229,-20 165,111Q100,242 100,493Q100,676 172,819Q243,961 369,1040Q495,1118 643,1118Q916,1118 1071,907Q1225,696 1225,332Q1225,111 1149,-113Q1073,-337 955,-468Q836,-600 706,-600Q604,-600 539,-539Q474,-478 474,-377Q474,-286 540,-228Q605,-170 712,-170Q791,-170 852,-218Q913,-267 925,-343ZM611,-383Q611,-426 639,-453Q667,-480 708,-480Q748,-480 775,-452Q802,-424 802,-383Q802,-340 775,-311Q747,-282 708,-282Q667,-282 639,-310Q611,-338 611,-383Z"  transform="translate(9844, 1100)"/>
<path d="M1298,137L1318,138L1337,138Q1467,138 1543,253Q1618,367 1618,559Q1618,758 1533,869Q1447,980 1299,980Q1193,980 1115,916Q1036,852 997,723Q1012,646 1012,553Q1012,375 952,246Q891,116 779,48Q667,-20 521,-20Q383,-20 269,47Q155,113 80,238L212,313Q246,237 335,178Q423,118 520,118Q660,118 744,238Q828,358 828,555Q828,760 744,870Q659,980 509,980Q431,980 361,942Q290,904 249,839L118,915Q190,1013 296,1066Q402,1118 518,1118Q789,1118 918,926Q992,1016 1095,1067Q1197,1118 1320,1118Q1463,1118 1573,1051Q1682,984 1742,857Q1802,729 1802,553Q1802,400 1748,282Q1693,164 1599,95Q1688,52 1736,-18Q1784,-88 1784,-174Q1784,-288 1719,-382Q1653,-476 1540,-523Q1426,-570 1276,-570Q1140,-570 1001,-507Q862,-445 778,-339L899,-250Q965,-330 1067,-381Q1168,-432 1276,-432Q1435,-432 1518,-368Q1601,-304 1601,-177Q1601,-91 1530,-45Q1458,0 1329,0L1314,0L1298,-1L1298,137ZM1088,1240Q1066,1262 1020,1330Q973,1397 940,1458Q864,1319 791,1240L618,1240Q778,1369 898,1560L993,1560Q1041,1476 1124,1377Q1207,1278 1262,1240L1088,1240Z"  transform="translate(11169, 1100)"/>
<path d="M861,839Q772,980 609,980Q441,980 363,874Q284,768 284,545Q284,358 324,243Q363,128 428,128Q473,128 546,143Q619,158 686,158Q862,158 980,67Q1097,-25 1097,-165Q1097,-279 1027,-378Q956,-477 828,-538Q700,-600 577,-600Q439,-600 362,-543Q285,-487 285,-382Q285,-290 350,-230Q415,-170 517,-170Q614,-170 677,-231Q739,-293 739,-392Q739,-432 733,-460Q814,-427 861,-357Q907,-288 907,-187Q907,-92 845,-36Q782,20 669,20Q629,20 549,5Q469,-10 400,-10Q319,-10 250,60Q180,129 140,254Q100,378 100,533Q100,689 167,825Q234,960 352,1039Q469,1118 609,1118Q732,1118 825,1074Q918,1029 994,942L861,839ZM422,-383Q422,-426 450,-453Q478,-480 519,-480Q559,-480 586,-452Q613,-424 613,-383Q613,-340 586,-311Q558,-282 519,-282Q478,-282 450,-310Q422,-338 422,-383Z"  transform="translate(13071, 1100)"/>
<path d="M118,915Q190,1013 296,1066Q402,1118 518,1118Q669,1118 780,1053Q891,988 952,861Q1012,734 1012,553Q1012,380 947,251Q882,121 767,51Q651,-20 511,-20Q376,-20 266,46Q156,111 80,238L212,313Q246,237 335,178Q423,118 520,118Q660,118 744,238Q828,358 828,555Q828,760 744,870Q659,980 509,980Q431,980 361,942Q290,904 249,839L118,915Z"  transform="translate(14268, 1100)"/>
<path d="M433,-10Q264,71 182,237Q100,402 100,672L100,848Q100,1117 170,1320Q240,1522 371,1631Q501,1740 675,1740Q903,1740 1042,1564L909,1461Q874,1525 801,1564Q727,1602 649,1602Q478,1602 392,1466Q305,1330 286,1002Q423,1118 598,1118Q750,1118 871,1048Q992,978 1058,849Q1124,720 1124,548Q1124,366 1037,220Q950,73 793,-10L737,129Q831,169 886,275Q940,380 940,560Q940,761 851,871Q762,980 598,980Q510,980 435,945Q360,910 319,850Q278,790 278,721L278,640Q278,482 299,392Q320,301 366,236Q412,171 489,129L433,-10Z"  transform="translate(15380, 1100)"/>
<path d="M969,151Q887,64 796,22Q705,-20 594,-20Q455,-20 342,51Q229,122 165,254Q100,385 100,553Q100,715 164,844Q227,973 338,1046Q448,1118 573,1118Q684,1118 770,1077Q856,1035 902,962Q948,888 948,801Q948,712 895,634Q841,555 753,508Q665,460 578,460Q419,460 284,566L284,546Q284,328 369,223Q453,118 603,118Q679,118 746,154Q813,190 864,249L969,151ZM302,715Q353,655 420,627Q486,598 556,598Q646,598 705,655Q764,712 764,795Q764,880 712,930Q660,980 572,980Q473,980 402,911Q331,842 302,715Z"  transform="translate(16604, 1100)"/>
<path d=""  transform="translate(17673, 1100)"/>
<path d="M487,976Q393,936 339,831Q284,725 284,545Q284,452 302,379Q375,446 463,477Q550,508 636,508Q826,508 955,405Q968,474 968,545Q968,725 914,831Q859,936 765,976L821,1108Q977,1025 1065,879Q1152,732 1152,550Q1152,382 1077,245Q1130,131 1130,-27Q1130,-189 1068,-312Q1006,-436 893,-503Q780,-570 639,-570Q501,-570 387,-503Q273,-437 198,-312L330,-237Q364,-313 453,-372Q541,-432 638,-432Q775,-432 861,-318Q946,-204 946,-25Q946,33 937,83Q801,-20 626,-20Q480,-20 358,54Q236,127 168,257Q100,387 100,550Q100,728 190,878Q280,1027 431,1108L487,976ZM627,370Q551,370 481,333Q411,295 368,231Q456,118 626,118Q795,118 883,233Q798,370 627,370Z"  transform="translate(18205, 1100)"/>
<path d="M854,-301L957,-307Q1009,-307 1041,-294Q1073,-281 1073,-255Q1073,-232 1024,-218Q975,-205 890,-205Q750,-205 680,-238Q610,-272 610,-345Q610,-412 698,-446Q786,-480 948,-480Q1186,-480 1327,-352Q1468,-225 1532,53Q1420,-20 1286,-20Q1153,-20 1047,41L1128,158Q1200,118 1278,118Q1421,118 1499,232Q1576,346 1576,563Q1576,760 1499,870Q1421,980 1281,980Q1166,980 1096,896Q1025,812 1015,663L845,663Q834,813 764,897Q694,980 579,980Q440,980 362,870Q284,760 284,563Q284,345 362,232Q439,118 582,118Q660,118 732,158L813,41Q707,-20 574,-20Q439,-20 331,51Q222,122 161,255Q100,387 100,565Q100,731 160,857Q219,982 328,1050Q436,1118 574,1118Q687,1118 784,1057Q881,995 929,893Q981,998 1078,1058Q1175,1118 1286,1118Q1422,1118 1531,1051Q1639,983 1700,858Q1760,733 1760,565L1760,556Q1760,-4 1548,-302Q1335,-600 935,-600Q707,-600 584,-534Q460,-468 460,-346Q460,-277 514,-215Q567,-154 662,-119Q757,-85 881,-85Q1038,-85 1131,-130Q1223,-175 1223,-253Q1223,-324 1151,-370Q1078,-417 953,-417L883,-413L854,-301Z"  transform="translate(19457, 1100)"/>
<path d="M118,915Q190,1013 296,1066Q402,1118 518,1118Q669,1118 780,1053Q891,988 952,861Q1012,734 1012,553Q1012,416 970,303Q1008,229 1106,174Q1203,118 1300,118Q1450,118 1534,238Q1618,358 1618,565Q1618,759 1538,870Q1458,980 1319,980Q1262,980 1215,953Q1167,926 1138,881L1008,961Q1068,1049 1154,1084Q1239,1118 1342,1118Q1469,1118 1575,1050Q1681,982 1742,858Q1802,734 1802,563Q1802,387 1739,255Q1676,122 1562,51Q1447,-20 1301,-20Q1025,-20 877,144Q805,61 709,21Q612,-20 511,-20Q376,-20 266,46Q156,111 80,238L212,313Q246,237 335,178Q423,118 520,118Q660,118 744,238Q828,358 828,555Q828,760 744,870Q659,980 509,980Q431,980 361,942Q290,904 249,839L118,915Z"  transform="translate(22677, 1100)"/>
<path d="M1333,10Q1243,-20 1180,-20Q1066,-20 1002,42Q938,104 938,210Q938,246 955,345Q971,444 971,570Q971,695 929,792Q887,888 810,934Q732,980 626,980Q460,980 372,872Q284,763 284,560Q284,379 339,272Q393,164 487,124L431,-10Q273,75 187,217Q100,359 100,538Q100,701 169,834Q237,967 358,1043Q478,1118 626,1118Q774,1118 892,1052Q1010,986 1083,856Q1155,726 1155,582Q1155,502 1131,390Q1107,278 1107,223Q1107,118 1186,118Q1230,118 1273,131L1333,10Z"  transform="translate(21339, 1100)"/>
<path d="M118,916Q195,1015 301,1067Q407,1118 530,1118Q673,1118 783,1051Q892,984 952,857Q1012,729 1012,553Q1012,408 960,283Q907,158 809,85Q994,-4 994,-174Q994,-288 929,-382Q863,-476 750,-523Q636,-570 486,-570Q350,-570 211,-507Q72,-445 -12,-339L109,-250Q175,-330 277,-381Q378,-432 486,-432Q645,-432 728,-368Q811,-304 811,-177Q811,0 539,0L524,0L508,-1L508,137L528,138L547,138Q677,138 753,253Q828,367 828,559Q828,758 743,869Q657,980 509,980Q344,980 249,839L118,916Z"  transform="translate(24658, 1100)"/>
<path d="M487,-397Q513,-412 557,-422Q600,-432 628,-432Q767,-432 859,-354Q950,-277 995,-114Q1040,48 1040,339Q1040,980 639,980Q471,980 378,856Q284,732 284,517Q284,305 305,212Q325,118 369,118Q393,118 417,147Q440,176 481,252Q551,386 646,386Q736,386 784,320Q832,253 832,137L829,68L679,0L682,85Q682,169 664,209Q646,248 625,248Q607,248 594,228Q581,208 569,179Q556,149 541,114Q525,79 501,50Q476,20 441,0Q406,-20 354,-20Q229,-20 165,111Q100,242 100,493Q100,676 172,819Q243,961 369,1040Q495,1118 643,1118Q915,1118 1070,911Q1224,703 1224,339Q1224,72 1150,-138Q1076,-348 941,-459Q805,-570 624,-570Q510,-570 421,-530L487,-397Z"  transform="translate(25770, 1100)"/>
<path d=""  transform="translate(27094, 1100)"/>
<path d="M724,883Q656,980 534,980Q417,980 351,859Q284,738 284,529Q284,339 345,229Q405,118 509,118Q563,118 613,166Q662,214 740,359L940,730Q1024,886 1085,960Q1145,1034 1214,1076Q1282,1118 1363,1118Q1479,1118 1573,1049Q1667,980 1719,856Q1771,732 1771,571Q1771,410 1712,273Q1652,135 1552,58Q1452,-20 1340,-20Q1242,-20 1168,20Q1093,59 1045,124L1147,215Q1215,118 1337,118Q1454,118 1521,239Q1587,360 1587,569Q1587,698 1559,792Q1530,885 1480,933Q1429,980 1362,980Q1308,980 1259,933Q1210,885 1131,739L931,368Q847,212 787,138Q726,64 658,22Q589,-20 508,-20Q391,-20 297,50Q203,119 152,243Q100,367 100,527Q100,688 160,826Q219,963 319,1041Q419,1118 531,1118Q629,1118 704,1079Q778,1039 826,974L724,883ZM1033,-369Q975,-385 892,-385Q775,-385 705,-348Q635,-311 635,-251Q635,-177 748,-128Q860,-80 1030,-80Q1273,-80 1399,-145Q1524,-211 1524,-330Q1524,-407 1454,-469Q1383,-531 1252,-565Q1121,-600 944,-600Q795,-600 662,-573Q528,-546 419,-499Q309,-453 237,-393L307,-294Q434,-383 604,-431Q773,-480 946,-480Q1082,-480 1177,-460Q1272,-441 1323,-405Q1374,-370 1374,-325Q1374,-256 1289,-228Q1204,-200 1034,-200Q900,-200 843,-213Q785,-226 785,-242Q785,-256 816,-265Q846,-275 899,-275Q946,-275 994,-269L1033,-369Z"  transform="translate(27626, 1100)"/>
<path d="M1035,551Q1035,292 907,136Q779,-20 563,-20Q433,-20 326,54Q219,128 160,260Q100,392 100,551Q100,715 159,846Q217,976 324,1047Q431,1118 570,1118Q708,1118 814,1047Q920,975 978,845Q1035,715 1035,551ZM284,551Q284,350 359,234Q434,118 568,118Q705,118 778,233Q851,347 851,551Q851,757 777,869Q703,980 565,980Q432,980 358,867Q284,754 284,551Z"  transform="translate(29497, 1100)"/>
<path d="M1172,427Q1215,393 1239,345Q1263,296 1263,240Q1263,180 1227,118Q1190,56 1127,18Q1063,-20 979,-20Q894,-20 818,27Q742,74 659,173Q566,282 510,324Q453,365 394,365Q336,365 301,331Q265,297 265,235Q265,176 297,142Q328,108 378,108Q430,108 471,126L533,10Q463,-20 361,-20Q293,-20 232,12Q171,43 136,99Q100,155 100,224Q100,290 140,354Q180,417 249,455Q318,493 403,493Q495,493 577,446Q658,399 739,301Q836,183 885,146Q933,108 984,108Q1040,108 1077,140Q1113,172 1113,225Q1113,252 1099,284Q1085,316 1063,336L1172,427ZM1172,1052Q1215,1018 1239,970Q1263,921 1263,865Q1263,805 1227,743Q1190,681 1127,643Q1063,605 979,605Q894,605 818,652Q742,699 659,798Q566,907 510,949Q453,990 394,990Q336,990 301,956Q265,922 265,860Q265,801 297,767Q328,733 378,733Q430,733 471,751L533,635Q463,605 361,605Q293,605 232,637Q171,668 136,724Q100,780 100,849Q100,915 140,979Q180,1042 249,1080Q318,1118 403,1118Q495,1118 577,1071Q658,1024 739,926Q836,808 885,771Q933,733 984,733Q1040,733 1077,765Q1113,797 1113,850Q1113,877 1099,909Q1085,941 1063,961L1172,1052Z"  transform="translate(30632, 1100)"/>
<path d="M1039,1098L1039,271Q1039,-10 1058,-155Q1077,-301 1120,-367Q1162,-434 1241,-434Q1272,-434 1316,-419L1383,-546Q1310,-572 1255,-572Q1091,-572 985,-380Q879,-188 863,128Q735,-20 580,-20Q475,-20 385,40Q294,100 240,202Q185,304 185,412L185,875Q185,925 164,953Q142,980 101,980Q65,980 34,971L20,1103Q65,1118 128,1118Q191,1118 245,1075Q299,1031 331,950Q363,869 363,763L363,416Q363,302 386,242Q409,182 458,150Q506,118 587,118Q716,118 789,211Q861,303 861,482L861,1099L1039,1098Z"  transform="translate(31995, 1100)"/>
<path d="M118,915Q190,1013 296,1066Q402,1118 518,1118Q669,1118 780,1053Q891,988 952,861Q1012,734 1012,553Q1012,416 970,303Q1008,229 1106,174Q1203,118 1300,118Q1450,118 1534,238Q1618,358 1618,565Q1618,759 1538,870Q1458,980 1319,980Q1262,980 1215,953Q1167,926 1138,881L1008,961Q1068,1049 1154,1084Q1239,1118 1342,1118Q1469,1118 1575,1050Q1681,982 1742,858Q1802,734 1802,563Q1802,387 1739,255Q1676,122 1562,51Q1447,-20 1301,-20Q1025,-20 877,144Q805,61 709,21Q612,-20 511,-20Q376,-20 266,46Q156,111 80,238L212,313Q246,237 335,178Q423,118 520,118Q660,118 744,238Q828,358 828,555Q828,760 744,870Q659,980 509,980Q431,980 361,942Q290,904 249,839L118,915ZM513,-367Q513,-260 635,-195Q757,-130 971,-130Q1184,-130 1307,-194Q1429,-259 1429,-367Q1429,-474 1307,-537Q1185,-600 971,-600Q758,-600 636,-537Q513,-474 513,-367ZM663,-366Q663,-419 744,-449Q825,-480 967,-480Q1113,-480 1196,-449Q1279,-419 1279,-366Q1279,-312 1197,-281Q1114,-250 967,-250Q823,-250 743,-280Q663,-311 663,-366Z"  transform="translate(33218, 1100)"/>
<path d="M1128,158Q1200,118 1278,118Q1414,118 1495,238Q1576,358 1576,563Q1576,760 1499,870Q1421,980 1281,980Q1176,980 1108,904Q1040,828 1023,690Q1035,622 1035,551Q1035,292 907,136Q779,-20 563,-20Q433,-20 326,54Q219,128 160,260Q100,392 100,551Q100,715 159,846Q217,976 324,1047Q431,1118 570,1118Q691,1118 783,1067Q874,1015 934,925Q990,1013 1085,1066Q1180,1118 1286,1118Q1424,1118 1533,1052Q1641,986 1701,863Q1760,740 1760,575Q1760,391 1701,257Q1642,123 1534,52Q1426,-20 1286,-20Q1153,-20 1047,41L1128,158ZM284,551Q284,350 359,234Q434,118 568,118Q705,118 778,233Q851,347 851,551Q851,757 777,869Q703,980 565,980Q432,980 358,867Q284,754 284,551Z"  transform="translate(35120, 1100)"/>
<path d=""  transform="translate(36980, 1100)"/>
<path d="M986,-382Q986,-288 1052,-229Q1118,-170 1224,-170Q1303,-170 1364,-219Q1425,-269 1437,-346Q1491,-235 1525,-65Q1559,105 1563,283L1759,532Q1759,252 1681,-24Q1603,-300 1482,-450Q1360,-600 1219,-600Q1114,-600 1050,-538Q986,-477 986,-382ZM1123,-383Q1123,-426 1151,-453Q1179,-480 1220,-480Q1260,-480 1287,-452Q1314,-424 1314,-383Q1314,-340 1287,-311Q1259,-282 1220,-282Q1179,-282 1151,-310Q1123,-338 1123,-383ZM813,41Q707,-20 574,-20Q439,-20 331,51Q222,122 161,255Q100,387 100,565Q100,731 160,857Q219,982 328,1050Q436,1118 574,1118Q687,1118 784,1057Q881,995 929,893Q981,998 1078,1058Q1175,1118 1286,1118Q1422,1118 1531,1051Q1639,983 1700,858Q1760,733 1760,565Q1760,386 1699,254Q1637,121 1528,51Q1419,-20 1286,-20Q1153,-20 1047,41L1128,158Q1200,118 1278,118Q1421,118 1499,232Q1576,346 1576,563Q1576,760 1499,870Q1421,980 1281,980Q1166,980 1096,896Q1025,812 1015,663L845,663Q834,813 764,897Q694,980 579,980Q440,980 362,870Q284,760 284,563Q284,345 362,232Q439,118 582,118Q660,118 732,158L813,41Z"  transform="translate(37512, 1100)"/>
<path d="M518,1033Q573,1071 657,1095Q741,1118 826,1118Q940,1118 1029,1081Q1117,1043 1166,978Q1214,912 1214,835Q1214,668 1026,597Q1117,556 1166,489Q1214,422 1214,334Q1214,281 1190,219Q1166,157 1110,104Q1054,51 961,16Q868,-20 729,-20Q542,-20 399,88Q255,195 178,389Q100,582 100,821Q100,1070 181,1285Q262,1499 400,1620Q538,1740 700,1740Q815,1740 914,1694Q1012,1648 1078,1564L945,1461Q910,1525 841,1564Q772,1602 697,1602Q284,1602 284,821Q284,604 339,444Q394,284 496,201Q597,118 731,118Q877,118 954,175Q1030,232 1030,336Q1030,427 961,477Q892,527 769,527L708,525L708,646L775,649Q907,654 969,701Q1030,747 1030,835Q1030,900 974,940Q918,980 807,980Q752,980 689,964Q626,947 586,919L518,1033Z"  transform="translate(39372, 1100)"/>
<path d="M1103,42Q1051,10 988,-5Q924,-20 868,-20Q671,-20 485,142Q275,-20 68,-20Q12,-20 -40,-11L-8,124Q28,118 55,118Q133,118 219,152Q305,186 384,247Q184,490 184,763Q184,861 228,943Q272,1024 348,1071Q423,1118 511,1118Q606,1118 682,1074Q757,1030 801,948Q845,866 845,749Q845,632 778,494Q711,356 593,237Q725,118 873,118Q912,118 960,131Q1008,144 1035,162L1103,42ZM495,350Q569,433 615,534Q661,635 661,745Q661,868 627,924Q592,980 511,980Q439,980 404,929Q368,877 368,763Q368,538 495,350Z"  transform="translate(40686, 1100)"/>
<path d="M433,-10Q264,71 182,237Q100,402 100,672L100,848Q100,1117 170,1320Q240,1522 371,1631Q501,1740 675,1740Q903,1740 1042,1564L909,1461Q874,1525 801,1564Q727,1602 649,1602Q478,1602 392,1466Q305,1330 286,1002Q423,1118 598,1118Q750,1118 871,1048Q992,978 1058,849Q1124,720 1124,548Q1124,415 1078,297Q1031,178 947,94Q1154,6 1154,-174Q1154,-288 1089,-382Q1023,-476 910,-523Q796,-570 646,-570Q510,-570 371,-507Q232,-445 148,-339L269,-250Q335,-330 437,-381Q538,-432 646,-432Q805,-432 888,-368Q971,-304 971,-177Q971,0 699,0L684,0L668,-1L668,137L700,137Q765,137 821,193Q877,249 909,346Q940,443 940,560Q940,761 851,871Q762,980 598,980Q466,980 375,909Q284,838 278,734L278,640Q278,482 299,392Q320,301 366,236Q412,171 489,129L433,-10Z"  transform="translate(41749, 1100)"/>
<path d="M454,-397Q528,-432 594,-432Q732,-432 824,-355Q916,-279 961,-115Q1005,48 1005,347Q1005,667 897,824Q789,980 567,980Q439,980 362,937Q284,893 284,822Q284,736 357,691Q429,646 593,646L605,646L605,525L545,527Q422,527 353,477Q284,427 284,336Q284,235 353,177Q421,118 538,118Q602,118 648,131Q693,143 748,179L816,58Q740,17 673,-1Q605,-20 525,-20Q391,-20 296,26Q200,71 150,150Q100,228 100,331Q100,418 148,489Q195,559 284,598Q186,638 143,695Q100,752 100,838Q100,906 160,972Q220,1038 327,1078Q433,1118 570,1118Q756,1118 897,1021Q1037,924 1113,747Q1189,569 1189,347Q1189,68 1115,-141Q1040,-350 904,-460Q767,-570 579,-570Q482,-570 387,-530L454,-397Z"  transform="translate(42973, 1100)"/>
<path d="M118,915Q190,1013 296,1066Q402,1118 518,1118Q789,1118 918,926Q992,1016 1095,1067Q1197,1118 1320,1118Q1463,1118 1573,1051Q1682,984 1742,857Q1802,729 1802,553Q1802,390 1747,258Q1692,126 1594,53Q1495,-20 1370,-20Q1272,-20 1198,20Q1123,59 1075,124L1177,215Q1245,118 1367,118Q1484,118 1551,233Q1618,348 1618,559Q1618,758 1533,869Q1447,980 1299,980Q1193,980 1115,916Q1036,852 997,723Q1012,646 1012,553Q1012,375 952,246Q891,116 779,48Q667,-20 521,-20Q383,-20 269,47Q155,113 80,238L212,313Q246,237 335,178Q423,118 520,118Q660,118 744,238Q828,358 828,555Q828,760 744,870Q659,980 509,980Q431,980 361,942Q290,904 249,839L118,915Z"  transform="translate(44262, 1100)"/>
</svg>
