<svg width="36308" height="3789" viewBox="0 0 36308 3789" xmlns="http://www.w3.org/2000/svg">
    <defs/>
    <path fill="#000000" stroke="none" transform="matrix(1 0 0 -1 0 2689)" d="M 129 1057 L 129 1227 L 506 1227 C 690 1227 821.66666666667 1187.66666666667 901 1109 C 980.33333333333 1030.33333333333 1020 900.33333333333 1020 719 L 1020 170 L 1153 170 L 1153 0 L 82 0 L 82 170 L 836 170 L 836 721 C 836 843.66666666667 811.33333333333 930.33333333333 762 981 C 712 1031.66666666667 626 1057 504 1057 L 129 1057 Z M 352 1579 L 680 1579 L 680 1473 L 352 1473 L 352 1579 Z"/>
    <path fill="#000000" stroke="none" transform="matrix(1 0 0 -1 1225 2689)" d="M 174 1227 L 358 1227 L 358 0 L 174 0 L 174 1227 Z M -70 702 C -70 725.33333333333 -62 744.66666666667 -46 760 C -30 774.66666666667 -11.33333333333 782 10 782 C 31.33333333333 782 50 774.66666666667 66 760 C 82 744.66666666667 90 725.33333333333 90 702 C 90 680.66666666667 82 662.66666666667 66 648 C 50 632.66666666667 31.33333333333 625 10 625 C -11.33333333333 625 -30 632.66666666667 -46 648 C -62 662.66666666667 -70 680.66666666667 -70 702 Z"/>
    <path fill="#000000" stroke="none" transform="matrix(1 0 0 -1 1757 2689)" d="M 1225 0 L 174 0 L 174 1227 L 711 1227 C 895 1227 1026.66666666667 1187.66666666667 1106 1109 C 1185.33333333333 1030.33333333333 1225 900.33333333333 1225 719 L 1225 0 Z M 358 1057 L 358 170 L 1040 170 L 1040 721 C 1040 842.33333333333 1015.66666666667 928.66666666667 967 980 C 917.66666666667 1031.33333333333 831.66666666667 1057 709 1057 L 358 1057 Z"/>
    <path fill="#000000" stroke="none" transform="matrix(1 0 0 -1 3146 2689)" d="M 238 1071 L 80 1071 L 80 1665 L 266 1665 L 266 1227 L 352 1227 L 803 606 C 903 699.33333333333 962.33333333333 832 981 1004 L 1004 1227 L 1194 1227 L 1171 1008 C 1164.33333333333 936.66666666667 1151 872.33333333333 1131 815 C 1111 757.66666666667 1084.66666666667 704 1052 654 C 1018.66666666667 604 967.66666666667 545 899 477 L 1260 0 L 1026 0 L 238 1071 Z"/>
    <path fill="#000000" stroke="none" transform="matrix(1 0 0 -1 4432 2689)" d="M 174 1227 L 358 1227 L 358 582 L 174 582 L 174 1227 Z M 684 1227 L 868 1227 L 868 582 L 684 582 L 684 1227 Z M 358 422 L 686 422 L 686 316 L 358 316 L 358 422 Z"/>
    <path fill="#000000" stroke="none" transform="matrix(1 0 0 -1 5474 2689)" d="M 963 596 C 963 198.66666666667 775 0 399 0 L 80 0 L 80 170 L 403 170 C 530.33333333333 170 624.33333333333 205.33333333333 685 276 C 745.66666666667 346.66666666667 776 452.66666666667 776 594 L 776 633 C 776 775 745.66666666667 881.33333333333 685 952 C 623.66666666667 1022 529.66666666667 1057 403 1057 L 80 1057 L 80 1227 L 399 1227 C 775 1227 963 1028.33333333333 963 631 L 963 596 Z M 385 633 C 385 656.33333333333 393 675.66666666667 409 691 C 425 705.66666666667 443.66666666667 713 465 713 C 486.33333333333 713 505 705.66666666667 521 691 C 537 675.66666666667 545 656.33333333333 545 633 C 545 611.66666666667 537 593.66666666667 521 579 C 505 563.66666666667 486.33333333333 556 465 556 C 443.66666666667 556 425 563.66666666667 409 579 C 393 593.66666666667 385 611.66666666667 385 633 Z"/>
    <path fill="#000000" stroke="none" transform="matrix(1 0 0 -1 7118 2689)" d="M 262 1057 L 72 1057 L 72 1227 L 735 1227 C 919 1227 1051 1188 1131 1110 C 1211 1031.33333333333 1251 901 1251 719 L 1251 0 L 1067 0 L 1067 721 C 1067 843.66666666667 1042.33333333333 930.33333333333 993 981 C 943 1031.66666666667 856.33333333333 1057 733 1057 L 446 1057 L 446 475 C 446 352.33333333333 435 257.33333333333 413 190 C 390.33333333333 122.66666666667 354.33333333333 74.33333333333 305 45 C 255.66666666667 15 178 0 72 0 L 61 0 L 61 170 L 78 170 C 124.66666666667 170 161.33333333333 178.66666666667 188 196 C 214.66666666667 212.66666666667 233.66666666667 239 245 275 C 256.33333333333 311 262 365.33333333333 262 438 L 262 1057 Z M 657 702 C 657 725.33333333333 665 744.66666666667 681 760 C 697 774.66666666667 715.66666666667 782 737 782 C 758.33333333333 782 777 774.66666666667 793 760 C 809 744.66666666667 817 725.33333333333 817 702 C 817 680.66666666667 809 662.66666666667 793 648 C 777 632.66666666667 758.33333333333 625 737 625 C 715.66666666667 625 697 632.66666666667 681 648 C 665 662.66666666667 657 680.66666666667 657 702 Z"/>
    <path fill="#000000" stroke="none" transform="matrix(1 0 0 -1 8533 2689)" d="M 174 1227 L 358 1227 L 358 0 L 174 0 L 174 1227 Z M 684 1227 L 868 1227 L 868 0 L 684 0 L 684 1227 Z"/>
    <path fill="#000000" stroke="none" transform="matrix(1 0 0 -1 9575 2689)" d="M 356 0 L 172 0 L 172 797 L 356 797 L 356 0 Z M 1135 0 L 950 0 L 950 721 C 950 843.66666666667 925.33333333333 930.33333333333 876 981 C 826 1031.66666666667 740 1057 618 1057 L 152 1057 L 152 1227 L 621 1227 C 805 1227 936.66666666667 1187.66666666667 1016 1109 C 1095.33333333333 1030.33333333333 1135 900.33333333333 1135 719 L 1135 0 Z"/>
    <path fill="#000000" stroke="none" transform="matrix(1 0 0 -1 10873 2689)" d="M 930 -385 L 745 -385 L 745 721 C 745 842.33333333333 720.66666666667 928.66666666667 672 980 C 622.66666666667 1031.33333333333 536.66666666667 1057 414 1057 L 39 1057 L 39 1227 L 416 1227 C 600 1227 731.66666666667 1187.66666666667 811 1109 C 890.33333333333 1030.33333333333 930 900.33333333333 930 719 L 930 -385 Z"/>
    <path fill="#000000" stroke="none" transform="matrix(1 0 0 -1 11967 2689)" d="M 41 162 C 225 162 369.66666666667 179 475 213 L 104 1227 L 307 1227 L 635 291 C 728.33333333333 357.66666666667 795.33333333333 461 836 601 C 876.66666666667 740.33333333333 897 949 897 1227 L 1090 1227 C 1090 918.33333333333 1057.33333333333 677 992 503 C 926 329 819 199.66666666667 671 115 C 522.33333333333 30.33333333333 312.33333333333 -19 41 -33 L 41 162 Z"/>
    <path fill="#000000" stroke="none" transform="matrix(1 0 0 -1 13159 2689)" d="M 125 1227 L 352 1227 L 803 606 C 903 699.33333333333 962.33333333333 832 981 1004 L 1004 1227 L 1194 1227 L 1171 1008 C 1164.33333333333 936.66666666667 1151 872.33333333333 1131 815 C 1111 757.66666666667 1084.66666666667 704 1052 654 C 1018.66666666667 604 967.66666666667 545 899 477 L 1260 0 L 1026 0 L 498 717 C 469.33333333333 703 446.33333333333 685.66666666667 429 665 C 411 643.66666666667 396 616 384 582 C 371.33333333333 548 356.66666666667 488.33333333333 340 403 L 260 0 L 66 0 L 150 399 C 174 513 196 593.66666666667 216 641 C 236 688.33333333333 261.33333333333 726.66666666667 292 756 C 322 785.33333333333 362.66666666667 810.33333333333 414 831 L 125 1227 Z"/>
    <path fill="#000000" stroke="none" transform="matrix(1 0 0 -1 15014 2689)" d="M 930 -385 L 745 -385 L 745 721 C 745 842.33333333333 720.66666666667 928.66666666667 672 980 C 622.66666666667 1031.33333333333 536.66666666667 1057 414 1057 L 39 1057 L 39 1227 L 416 1227 C 600 1227 731.66666666667 1187.66666666667 811 1109 C 890.33333333333 1030.33333333333 930 900.33333333333 930 719 L 930 -385 Z M 328 702 C 328 725.33333333333 336 744.66666666667 352 760 C 368 774.66666666667 386.66666666667 782 408 782 C 429.33333333333 782 448 774.66666666667 464 760 C 480 744.66666666667 488 725.33333333333 488 702 C 488 680.66666666667 480 662.66666666667 464 648 C 448 632.66666666667 429.33333333333 625 408 625 C 386.66666666667 625 368 632.66666666667 352 648 C 336 662.66666666667 328 680.66666666667 328 702 Z"/>
    <path fill="#000000" stroke="none" transform="matrix(1 0 0 -1 16108 2689)" d="M 356 0 L 172 0 L 172 797 L 356 797 L 356 0 Z M 1135 0 L 950 0 L 950 721 C 950 843.66666666667 925.33333333333 930.33333333333 876 981 C 826 1031.66666666667 740 1057 618 1057 L 152 1057 L 152 1227 L 621 1227 C 805 1227 936.66666666667 1187.66666666667 1016 1109 C 1095.33333333333 1030.33333333333 1135 900.33333333333 1135 719 L 1135 0 Z M 561 702 C 561 725.33333333333 569 744.66666666667 585 760 C 601 774.66666666667 619.66666666667 782 641 782 C 662.33333333333 782 681 774.66666666667 697 760 C 713 744.66666666667 721 725.33333333333 721 702 C 721 680.66666666667 713 662.66666666667 697 648 C 681 632.66666666667 662.33333333333 625 641 625 C 619.66666666667 625 601 632.66666666667 585 648 C 569 662.66666666667 561 680.66666666667 561 702 Z"/>
    <path fill="#000000" stroke="none" transform="matrix(1 0 0 -1 17345 2689)" d="M 41 162 C 225 162 369.66666666667 179 475 213 L 104 1227 L 307 1227 L 635 291 C 728.33333333333 357.66666666667 795.33333333333 461 836 601 C 876.66666666667 740.33333333333 897 949 897 1227 L 1090 1227 C 1090 918.33333333333 1057.33333333333 677 992 503 C 926 329 819 199.66666666667 671 115 C 522.33333333333 30.33333333333 312.33333333333 -19 41 -33 L 41 162 Z"/>
    <path fill="#000000" stroke="none" transform="matrix(1 0 0 -1 18537 2689)" d="M 262 1057 L 72 1057 L 72 1227 L 735 1227 C 919 1227 1051 1188 1131 1110 C 1211 1031.33333333333 1251 901 1251 719 L 1251 0 L 1067 0 L 1067 721 C 1067 843.66666666667 1042.33333333333 930.33333333333 993 981 C 943 1031.66666666667 856.33333333333 1057 733 1057 L 446 1057 L 446 475 C 446 352.33333333333 435 257.33333333333 413 190 C 390.33333333333 122.66666666667 354.33333333333 74.33333333333 305 45 C 255.66666666667 15 178 0 72 0 L 61 0 L 61 170 L 78 170 C 124.66666666667 170 161.33333333333 178.66666666667 188 196 C 214.66666666667 212.66666666667 233.66666666667 239 245 275 C 256.33333333333 311 262 365.33333333333 262 438 L 262 1057 Z"/>
    <path fill="#000000" stroke="none" transform="matrix(1 0 0 -1 19952 2689)" d="M 598 1227 C 782 1227 913.66666666667 1188 993 1110 C 1072.33333333333 1032 1112 901.66666666667 1112 719 L 1112 -385 L 928 -385 L 928 721 C 928 843.66666666667 903.33333333333 930.33333333333 854 981 C 804 1031.66666666667 718 1057 596 1057 L 319 1057 L 319 711 L 563 711 L 563 541 L 133 541 L 133 1227 L 598 1227 Z"/>
    <path fill="#000000" stroke="none" transform="matrix(1 0 0 -1 21228 2689)" d="M 633 1049 L 633 858 L 524 895 C 484.66666666667 874.33333333333 457.33333333333 855 442 837 C 426.66666666667 819 415.66666666667 797.66666666667 409 773 C 402.33333333333 747.66666666667 399 716 399 678 L 399 0 L 215 0 L 215 670 C 215 740.66666666667 228.66666666667 798 256 842 C 282.66666666667 886 328.33333333333 918.66666666667 393 940 L 51 1055 L 51 1245 L 633 1049 Z"/>
    <path fill="#000000" stroke="none" transform="matrix(1 0 0 -1 22459 2689)" d="M 668 1227 L 858 1227 L 827 899 C 817 787.66666666667 803.66666666667 707.33333333333 787 658 C 769.66666666667 608 744.33333333333 569.66666666667 711 543 C 677.66666666667 515.66666666667 622.33333333333 491.66666666667 545 471 L 395 436 L 444 178 L 468 178 C 602 178 709.33333333333 186 790 202 C 870.66666666667 217.33333333333 934.33333333333 241.66666666667 981 275 C 1027.66666666667 308.33333333333 1064 355.66666666667 1090 417 C 1115.33333333333 477.66666666667 1135.66666666667 572.66666666667 1151 702 L 1214 1227 L 1407 1227 L 1343 709 C 1322.33333333333 534.33333333333 1293 405 1255 321 C 1217 236.33333333333 1163.33333333333 171 1094 125 C 1024.66666666667 78.33333333333 929.33333333333 44.66666666667 808 24 C 686 2.66666666667 511.66666666667 -8.66666666667 285 -10 L 51 1227 L 242 1227 L 365 596 L 438 610 C 510 626 560.33333333333 654.33333333333 589 695 C 617.66666666667 735 635.66666666667 803.66666666667 643 901 L 668 1227 Z M 878 623 C 878 646.33333333333 886 665.66666666667 902 681 C 918 695.66666666667 936.66666666667 703 958 703 C 979.33333333333 703 998 695.66666666667 1014 681 C 1030 665.66666666667 1038 646.33333333333 1038 623 C 1038 601.66666666667 1030 583.66666666667 1014 569 C 998 553.66666666667 979.33333333333 546 958 546 C 936.66666666667 546 918 553.66666666667 902 569 C 886 583.66666666667 878 601.66666666667 878 623 Z M 65 1526 C 65 1547.33333333333 73 1566 89 1582 C 105 1598 123.66666666667 1606 145 1606 C 166.33333333333 1606 185 1598 201 1582 C 217 1566 225 1547.33333333333 225 1526 C 225 1504.66666666667 217.33333333333 1486 202 1470 C 186 1454 167 1446 145 1446 C 122.33333333333 1446 103.33333333333 1454 88 1470 C 72.66666666667 1486 65 1504.66666666667 65 1526 Z"/>
    <path fill="#000000" stroke="none" transform="matrix(1 0 0 -1 23954 2689)" d="M 174 1227 L 358 1227 L 358 582 L 174 582 L 174 1227 Z M -70 874 C -70 897.33333333333 -62 916.66666666667 -46 932 C -30 946.66666666667 -11.33333333333 954 10 954 C 31.33333333333 954 50 946.66666666667 66 932 C 82 916.66666666667 90 897.33333333333 90 874 C 90 852.66666666667 82 834.66666666667 66 820 C 50 804.66666666667 31.33333333333 797 10 797 C -11.33333333333 797 -30 804.66666666667 -46 820 C -62 834.66666666667 -70 852.66666666667 -70 874 Z"/>
    <path fill="#000000" stroke="none" transform="matrix(1 0 0 -1 24486 2689)" d="M 778 1247 C 939.33333333333 1247 1057.33333333333 1198 1132 1100 C 1206 1001.33333333333 1243 845 1243 631 L 1243 0 L 641 0 L 641 170 L 1057 170 L 1057 608 C 1057 771.33333333333 1036 890 994 964 C 952 1038 880.66666666667 1075 780 1075 C 690 1075 616 1034.33333333333 558 953 C 500 871 446.33333333333 727.33333333333 397 522 L 272 0 L 74 0 L 211 537 C 242.33333333333 661.66666666667 273.66666666667 763.33333333333 305 842 L 55 1227 L 272 1227 L 397 1024 C 449 1102.66666666667 504.66666666667 1159.66666666667 564 1195 C 623.33333333333 1229.66666666667 694.66666666667 1247 778 1247 Z M 680 718 C 680 741.33333333333 688 760.66666666667 704 776 C 720 790.66666666667 738.66666666667 798 760 798 C 781.33333333333 798 800 790.66666666667 816 776 C 832 760.66666666667 840 741.33333333333 840 718 C 840 696.66666666667 832 678.66666666667 816 664 C 800 648.66666666667 781.33333333333 641 760 641 C 738.66666666667 641 720 648.66666666667 704 664 C 688 678.66666666667 680 696.66666666667 680 718 Z"/>
    <path fill="#000000" stroke="none" transform="matrix(1 0 0 -1 25893 2689)" d="M 358 797 L 358 -385 L 174 -385 L 174 797 L 358 797 Z M 123 1227 L 641 1227 C 805.66666666667 1227 922.66666666667 1197.66666666667 992 1139 C 1061.33333333333 1079.66666666667 1096 982 1096 846 C 1096 658 1040.33333333333 485.66666666667 929 329 C 817 171.66666666667 665.66666666667 53 475 -27 L 475 184 C 614.33333333333 246.66666666667 721.66666666667 334 797 446 C 871.66666666667 557.33333333333 909 682.33333333333 909 821 C 909 910.33333333333 889.66666666667 972 851 1006 C 811.66666666667 1040 744.33333333333 1057 649 1057 L 123 1057 L 123 1227 Z"/>
    <path fill="#000000" stroke="none" transform="matrix(1 0 0 -1 27101 2689)" d="M 125 1227 L 352 1227 L 803 606 C 903 699.33333333333 962.33333333333 832 981 1004 L 1004 1227 L 1194 1227 L 1171 1008 C 1164.33333333333 936.66666666667 1151 872.33333333333 1131 815 C 1111 757.66666666667 1084.66666666667 704 1052 654 C 1018.66666666667 604 967.66666666667 545 899 477 L 1260 0 L 1026 0 L 498 717 C 469.33333333333 703 446.33333333333 685.66666666667 429 665 C 411 643.66666666667 396 616 384 582 C 371.33333333333 548 356.66666666667 488.33333333333 340 403 L 260 0 L 66 0 L 150 399 C 174 513 196 593.66666666667 216 641 C 236 688.33333333333 261.33333333333 726.66666666667 292 756 C 322 785.33333333333 362.66666666667 810.33333333333 414 831 L 125 1227 Z M 590 -348 L 590 -231 L 479 -231 L 479 -125 L 807 -125 L 807 -231 L 700 -231 L 700 -348 L 590 -348 Z"/>
    <path fill="#000000" stroke="none" transform="matrix(1 0 0 -1 28387 2689)" d="M 193 162 C 320.33333333333 209.33333333333 429.66666666667 269.33333333333 521 342 C 612.33333333333 414 682 492.66666666667 730 578 C 777.33333333333 663.33333333333 801 750 801 838 C 801 984 723 1057 567 1057 L 70 1057 L 70 1665 L 254 1665 L 254 1227 L 586 1227 C 853.33333333333 1227 987 1108 987 870 C 987 675.33333333333 915.33333333333 496 772 332 C 628.66666666667 167.33333333333 435.66666666667 41.66666666667 193 -45 L 193 162 Z M 348 718 C 348 741.33333333333 356 760.66666666667 372 776 C 388 790.66666666667 406.66666666667 798 428 798 C 449.33333333333 798 468 790.66666666667 484 776 C 500 760.66666666667 508 741.33333333333 508 718 C 508 696.66666666667 500 678.66666666667 484 664 C 468 648.66666666667 449.33333333333 641 428 641 C 406.66666666667 641 388 648.66666666667 372 664 C 356 678.66666666667 348 696.66666666667 348 718 Z"/>
    <path fill="#000000" stroke="none" transform="matrix(1 0 0 -1 30000 2689)" d="M 668 1227 L 858 1227 L 827 899 C 817 787.66666666667 803.66666666667 707.33333333333 787 658 C 769.66666666667 608 744.33333333333 569.66666666667 711 543 C 677.66666666667 515.66666666667 622.33333333333 491.66666666667 545 471 L 395 436 L 444 178 L 468 178 C 602 178 709.33333333333 186 790 202 C 870.66666666667 217.33333333333 934.33333333333 241.66666666667 981 275 C 1027.66666666667 308.33333333333 1064 355.66666666667 1090 417 C 1115.33333333333 477.66666666667 1135.66666666667 572.66666666667 1151 702 L 1214 1227 L 1407 1227 L 1343 709 C 1322.33333333333 534.33333333333 1293 405 1255 321 C 1217 236.33333333333 1163.33333333333 171 1094 125 C 1024.66666666667 78.33333333333 929.33333333333 44.66666666667 808 24 C 686 2.66666666667 511.66666666667 -8.66666666667 285 -10 L 51 1227 L 242 1227 L 365 596 L 438 610 C 510 626 560.33333333333 654.33333333333 589 695 C 617.66666666667 735 635.66666666667 803.66666666667 643 901 L 668 1227 Z M 72 1526 C 72 1547.33333333333 80 1566 96 1582 C 112 1598 130.66666666667 1606 152 1606 C 173.33333333333 1606 192 1598 208 1582 C 224 1566 232 1547.33333333333 232 1526 C 232 1504.66666666667 224.33333333333 1486 209 1470 C 193 1454 174 1446 152 1446 C 129.33333333333 1446 110.33333333333 1454 95 1470 C 79.66666666667 1486 72 1504.66666666667 72 1526 Z"/>
    <path fill="#000000" stroke="none" transform="matrix(1 0 0 -1 31495 2689)" d="M 633 1049 L 633 858 L 524 895 C 484.66666666667 874.33333333333 457.33333333333 855 442 837 C 426.66666666667 819 415.66666666667 797.66666666667 409 773 C 402.33333333333 747.66666666667 399 716 399 678 L 399 0 L 215 0 L 215 670 C 215 740.66666666667 228.66666666667 798 256 842 C 282.66666666667 886 328.33333333333 918.66666666667 393 940 L 51 1055 L 51 1245 L 633 1049 Z M -53 702 C -53 725.33333333333 -45 744.66666666667 -29 760 C -13 774.66666666667 5.66666666667 782 27 782 C 48.33333333333 782 67 774.66666666667 83 760 C 99 744.66666666667 107 725.33333333333 107 702 C 107 680.66666666667 99 662.66666666667 83 648 C 67 632.66666666667 48.33333333333 625 27 625 C 5.66666666667 625 -13 632.66666666667 -29 648 C -45 662.66666666667 -53 680.66666666667 -53 702 Z"/>
    <path fill="#000000" stroke="none" transform="matrix(1 0 0 -1 32157 2689)" d="M 659 -20 C 489 -20 364 23 284 109 C 204 194.33333333333 164 326 164 504 L 164 1227 L 348 1227 L 348 510 C 348 386 372.66666666667 295.33333333333 422 238 C 470.66666666667 180.66666666667 550.66666666667 152 662 152 C 792.66666666667 152 887.33333333333 192.33333333333 946 273 C 1004.66666666667 353.66666666667 1034 487.33333333333 1034 674 C 1034 812.66666666667 1019.33333333333 914.33333333333 990 979 C 960.66666666667 1043 910.66666666667 1075 840 1075 C 772 1075 706.33333333333 1053.33333333333 643 1010 L 643 1186 C 695 1226.66666666667 766.66666666667 1247 858 1247 C 949.33333333333 1247 1021.33333333333 1227.33333333333 1074 1188 C 1126 1148.66666666667 1164.66666666667 1087 1190 1003 C 1214.66666666667 918.33333333333 1227 808.66666666667 1227 674 C 1227 434.66666666667 1181.33333333333 259.33333333333 1090 148 C 998.66666666667 36 855 -20 659 -20 Z M 614 702 C 614 725.33333333333 622 744.66666666667 638 760 C 654 774.66666666667 672.66666666667 782 694 782 C 715.33333333333 782 734 774.66666666667 750 760 C 766 744.66666666667 774 725.33333333333 774 702 C 774 680.66666666667 766 662.66666666667 750 648 C 734 632.66666666667 715.33333333333 625 694 625 C 672.66666666667 625 654 632.66666666667 638 648 C 622 662.66666666667 614 680.66666666667 614 702 Z"/>
    <path fill="#000000" stroke="none" transform="matrix(1 0 0 -1 33494 2689)" d="M 930 0 L 745 0 L 745 721 C 745 842.33333333333 720.66666666667 928.66666666667 672 980 C 622.66666666667 1031.33333333333 536.66666666667 1057 414 1057 L 39 1057 L 39 1227 L 416 1227 C 600 1227 731.66666666667 1187.66666666667 811 1109 C 890.33333333333 1030.33333333333 930 900.33333333333 930 719 L 930 0 Z"/>
    <path fill="#000000" stroke="none" transform="matrix(1 0 0 -1 34588 2689)" d="M 950 682 C 950 808 922.33333333333 902 867 964 C 811.66666666667 1026 724.66666666667 1057 606 1057 L 330 1057 L 330 711 L 573 711 L 573 541 L 143 541 L 143 1227 L 608 1227 C 786.66666666667 1227 919.66666666667 1182.66666666667 1007 1094 C 1093.66666666667 1004.66666666667 1137 866 1137 678 L 1137 596 C 1137 198.66666666667 949 0 573 0 L 154 0 L 154 170 L 578 170 C 704.66666666667 170 798.33333333333 205.33333333333 859 276 C 919.66666666667 346 950 452 950 594 L 950 682 Z"/>
    <path fill="#000000" stroke="none" transform="matrix(1 0 0 -1 35776 2689)" d="M 174 1227 L 358 1227 L 358 -385 L 174 -385 L 174 1227 Z"/>
</svg>
