<svg xmlns="http://www.w3.org/2000/svg" viewBox="0 0 32188 3789" transform="translate(0, 3789) scale(1, -1)">
<path d="M1744,1098L1836,838Q1888,692 1936,648Q1984,604 2078,604Q2052,671 2052,811L2052,1098L2232,1098L2232,809Q2232,715 2242,665Q2252,615 2275,561Q2298,507 2340,444L2084,444Q1956,444 1884,476Q1811,507 1761,580Q1710,652 1671,782L1523,0Q1472,-268 1341,-380Q1210,-492 962,-492L30,-492L30,-340L962,-340Q1123,-340 1215,-258Q1307,-176 1343,8L1558,1098L1744,1098Z"  transform="translate(0, 1100)"/>
<path d="M250,1098L430,1098L430,418Q430,201 332,93Q233,-16 41,-16L41,135Q149,135 200,202Q250,269 250,418L250,1098Z"  transform="translate(2439, 1100)"/>
<path d="M1350,1098L1530,1098L1530,0L1352,0Q1111,0 939,172Q767,343 721,623Q682,460 571,310Q459,159 309,70Q158,-20 20,-20L20,131Q124,131 242,210Q359,289 447,418Q534,547 583,722Q631,897 631,1098L811,1098Q816,814 888,599Q959,384 1081,268Q1203,152 1350,152L1350,1098Z"  transform="translate(3033, 1100)"/>
<path d="M1243,858Q1242,541 1135,356Q1027,171 797,86Q567,0 176,0L78,0L78,152L170,152Q610,152 827,288Q1044,424 1049,707L616,707Q373,707 273,796Q172,885 172,1098L352,1098Q352,963 408,911Q463,858 612,858L1243,858Z"  transform="translate(4737, 1100)"/>
<path d=""  transform="translate(6044, 1100)"/>
<path d="M360,139L416,139Q648,139 775,265Q901,391 901,625Q901,774 818,871Q735,967 610,967Q444,967 355,875Q266,783 254,618L74,618Q92,855 233,987Q374,1118 612,1118Q826,1118 957,983Q1087,848 1087,625Q1087,432 1004,285Q920,138 766,59Q612,-20 412,-20L360,-20L360,139Z"  transform="translate(6576, 1100)"/>
<path d="M1290,662Q1290,451 1229,292Q1167,133 1022,0L786,0Q956,137 1029,292Q1102,447 1102,662L1102,938L590,938L590,795Q590,403 445,192Q300,-20 31,-20L31,139Q218,143 314,308Q410,472 410,793L410,1098L1290,1098L1290,662Z"  transform="translate(7776, 1100)"/>
<path d="M78,-20L78,139Q173,139 228,192Q282,245 319,371Q355,497 385,762Q206,771 116,851Q25,930 10,1098L190,1098Q200,1000 245,960Q290,919 395,913Q415,1101 469,1206Q523,1310 624,1358Q725,1405 897,1405L850,1245Q714,1245 652,1170Q589,1094 573,913L1235,913Q1221,489 1074,235Q927,-20 692,-20L692,139Q837,143 928,306Q1019,468 1042,762L563,762Q532,470 475,303Q417,135 323,58Q229,-20 78,-20Z"  transform="translate(9214, 1100)"/>
<path d="M332,784Q224,802 159,837Q93,872 60,926Q26,980 10,1098L190,1098Q202,1023 232,992Q262,960 324,944Q385,927 499,920Q613,913 786,913L1124,913Q1111,467 974,224Q837,-20 596,-20L596,139Q889,148 936,762L688,762Q563,762 510,766Q478,390 345,185Q212,-20 -10,-20L-10,139Q134,143 221,297Q307,451 332,784Z"  transform="translate(10564, 1100)"/>
<path d="M1137,0L1137,510L807,510Q807,261 700,121Q592,-20 401,-20Q255,-20 171,61Q86,141 86,287Q86,477 200,570Q314,662 541,662L627,662L627,1098L807,1098L807,662L1137,662L1137,1098L1317,1098L1317,0L1137,0ZM408,131Q512,131 570,225Q627,319 627,510L547,510Q404,510 338,459Q272,408 272,291Q272,216 307,174Q342,131 408,131Z"  transform="translate(11803, 1100)"/>
<path d="M842,152L332,1098L537,1098L1028,152L1176,152L1176,1098L1356,1098L1356,0L10,0L10,152L842,152Z"  transform="translate(13294, 1100)"/>
<path d=""  transform="translate(14824, 1100)"/>
<path d="M125,913Q178,832 249,801Q319,770 412,770Q782,770 995,1098L1153,1098Q1137,766 995,508Q853,250 615,115Q376,-20 63,-20L31,-20L31,131Q376,131 615,315Q853,499 938,821Q715,616 412,616Q264,616 168,661Q71,706 0,811L125,913Z"  transform="translate(15356, 1100)"/>
<path d="M543,1335Q680,1020 881,879Q1082,737 1374,737Q1365,510 1286,339Q1206,167 1068,74Q930,-20 754,-20L754,139Q908,139 1023,266Q1138,393 1163,590Q812,650 618,901Q618,463 463,222Q308,-20 31,-20L31,139Q228,141 335,337Q442,532 442,901Q442,979 421,1102Q399,1224 365,1335L543,1335Z"  transform="translate(16595, 1100)"/>
<path d="M1233,965Q1182,965 1122,949Q1062,933 986,903Q825,840 641,840Q506,840 401,885Q296,929 213,1030L332,1137Q434,991 641,991Q797,991 960,1054Q1123,1116 1237,1116Q1474,1116 1595,986Q1716,856 1716,600Q1716,302 1538,151Q1359,0 1016,0L31,0L31,152L1018,152Q1289,152 1410,262Q1530,371 1530,614Q1530,785 1456,875Q1381,965 1233,965Z"  transform="translate(18047, 1100)"/>
<path d="M324,268Q324,320 308,370Q291,420 271,469Q250,518 234,565Q217,611 217,655Q217,876 459,1118L594,1006Q480,901 439,821Q397,741 397,659Q397,619 414,578Q430,536 451,489Q471,442 488,388Q504,334 504,270Q504,136 428,58Q351,-20 217,-20Q167,-20 114,-12Q60,-4 39,4L39,156Q93,131 188,131Q251,131 288,169Q324,207 324,268Z"  transform="translate(19833, 1100)"/>
<path d="M1140,961Q1162,961 1193,964Q1224,967 1266,974Q1307,981 1341,984Q1375,987 1404,987Q1590,987 1697,873Q1805,759 1805,563Q1805,276 1622,138Q1438,0 1072,0L733,0Q547,0 422,47Q296,93 221,170Q145,246 113,344Q80,441 80,544Q80,623 104,691Q128,758 173,809L173,1556L354,1556L354,923Q405,937 461,937Q551,937 618,907Q684,876 729,826Q773,775 795,709Q817,643 817,572Q817,500 801,439Q784,377 758,325Q731,273 697,232Q663,190 628,159Q653,156 679,155Q704,154 733,154L1074,154Q1359,154 1490,247Q1621,340 1621,551Q1621,687 1557,761Q1492,834 1359,834Q1310,834 1236,821Q1197,814 1168,811Q1139,807 1119,807Q982,807 916,876Q849,944 849,1098L1029,1098Q1029,1025 1056,993Q1083,961 1140,961ZM266,544Q266,435 306,352Q346,269 436,218Q529,278 581,370Q632,461 632,573Q632,676 582,731Q532,786 451,786Q410,786 377,767Q343,747 318,714Q293,681 280,637Q266,593 266,544Z"  transform="translate(20505, 1100)"/>
<path d=""  transform="translate(22483, 1100)"/>
<path d="M1434,-188L1434,1098L1614,1098L1614,-340L30,-340L30,-188L1434,-188Z"  transform="translate(23015, 1100)"/>
<path d="M338,-143L162,-143Q203,-4 219,84Q234,172 242,283Q250,394 250,528Q250,693 232,785Q214,877 175,918Q135,958 41,963L41,1114Q228,1114 316,1017Q404,919 424,705Q706,868 936,1118L1042,987Q781,701 430,532Q426,295 412,176Q541,228 685,323Q829,418 967,547L1071,418Q909,258 749,161Q588,64 381,0Q368,-57 338,-143Z"  transform="translate(24803, 1100)"/>
<path d="M1243,858Q1204,559 1088,394Q972,229 755,154Q537,78 176,78L78,78L78,229L223,229Q601,229 788,341Q975,453 1028,707L727,707Q522,707 402,747Q282,786 227,869Q172,952 172,1098L352,1098Q352,1002 386,952Q419,902 496,880Q572,858 725,858L1243,858ZM57,-264Q73,-150 160,-83Q246,-16 373,-16Q506,-16 586,-80Q666,-145 684,-264L561,-264Q531,-158 371,-158Q298,-158 246,-184Q194,-211 180,-264L57,-264Z"  transform="translate(26009, 1100)"/>
<path d="M827,858Q811,441 652,221Q492,0 213,0L119,0L119,152L211,152Q386,152 497,292Q607,432 629,700L451,700Q267,700 188,793Q109,885 109,1098L289,1098Q289,999 304,949Q319,899 356,879Q392,858 477,858L827,858ZM1585,858Q1570,452 1409,226Q1248,0 975,0L877,0L877,152L971,152Q1146,152 1251,291Q1355,429 1386,700L1208,700Q1025,700 946,793Q866,885 866,1098L1047,1098Q1047,1001 1062,951Q1077,901 1112,880Q1147,858 1235,858L1585,858Z"  transform="translate(27348, 1100)"/>
<path d="M444,1335Q464,1281 489,1201Q513,1121 527,1014Q595,1060 680,1089Q765,1118 867,1118Q976,1118 1053,1085Q1130,1052 1179,995Q1228,937 1250,860Q1272,782 1272,693Q1272,608 1253,512Q1233,415 1199,322Q1165,228 1120,144Q1074,60 1022,0L807,0Q866,63 917,147Q968,231 1006,324Q1043,417 1065,514Q1086,611 1086,701Q1086,830 1024,899Q962,967 845,967Q745,967 668,927Q590,887 539,823Q538,706 524,596Q510,486 480,384Q449,281 400,185Q350,89 279,0L70,0Q152,94 208,192Q264,290 299,394Q333,497 348,608Q362,718 362,838Q362,1095 264,1335L444,1335Z"  transform="translate(29019, 1100)"/>
<path d="M733,152Q1050,152 1235,292Q1420,432 1473,707L1149,707Q946,707 856,800Q766,892 766,1098L946,1098Q946,971 992,915Q1038,858 1149,858L1669,858Q1645,456 1406,228Q1167,0 735,0L31,0L31,152L733,152Z"  transform="translate(30433, 1100)"/>
</svg>
