<svg xmlns="http://www.w3.org/2000/svg" viewBox="0 0 62412 3789" transform="translate(0, 3789) scale(1, -1)">
<path d="M1210,766Q1210,730 1186,704Q1162,677 1126,677L1062,680Q814,695 661,695Q497,695 257,680L194,677Q158,677 134,704Q110,730 110,766Q110,800 132,823Q153,846 208,854Q262,862 395,869Q528,875 661,875Q743,875 833,872Q922,869 1005,863Q1088,857 1133,850Q1177,843 1194,819Q1210,795 1210,766ZM1910,419Q1910,383 1886,357Q1862,330 1826,330L1775,332Q1304,355 1161,355Q1022,355 771,343L494,330Q458,330 434,357Q410,383 410,419Q410,445 424,467Q438,489 465,499Q492,509 626,518Q759,526 931,531Q1103,535 1161,535Q1225,535 1386,531Q1546,526 1691,517Q1835,508 1860,499Q1884,490 1897,468Q1910,445 1910,419ZM1910,78Q1910,42 1886,16Q1862,-11 1826,-11Q1796,-11 1745,-5Q1694,0 1636,0Q1567,0 1521,-5Q1474,-11 1444,-11Q1408,-11 1384,16Q1360,42 1360,78Q1360,127 1416,154Q1471,180 1636,180Q1799,180 1855,154Q1910,127 1910,78Z"  transform="translate(0, 1100)"/>
<path d="M1610,755Q1610,719 1586,693Q1562,666 1526,666L1472,671Q1260,695 861,695Q707,695 591,687Q474,678 393,669Q311,659 262,651Q213,642 194,642Q158,642 134,669Q110,695 110,731Q110,760 127,784Q144,807 181,816Q262,838 451,857Q640,875 861,875Q1329,875 1539,840Q1577,834 1594,809Q1610,784 1610,755Z"  transform="translate(2020, 1100)"/>
<path d="M1888,480Q1888,243 1656,112Q1423,-20 1014,-20Q600,-20 370,111Q140,241 140,480Q140,631 243,743Q345,855 547,918Q748,980 1014,980Q1285,980 1485,918Q1685,856 1787,745Q1888,634 1888,480ZM1694,480Q1694,631 1512,716Q1329,800 1014,800Q698,800 516,717Q334,633 334,480Q334,325 515,243Q695,160 1014,160Q1326,160 1510,243Q1694,326 1694,480Z"  transform="translate(3740, 1100)"/>
<path d="M1148,848Q1368,980 1620,980Q1794,980 1897,911Q1999,841 1999,717Q1999,642 1973,571Q1947,500 1902,431Q1856,361 1734,224Q1684,168 1636,113Q1588,58 1551,1Q1531,-30 1487,-30Q1449,-30 1417,-3Q1384,24 1384,58Q1384,88 1420,136Q1456,184 1595,330Q1805,552 1805,687Q1805,741 1748,771Q1690,800 1592,800Q1478,800 1367,759Q1256,717 1148,637Q1040,557 930,434Q819,311 663,77Q617,8 597,-11Q577,-30 553,-30Q514,-30 478,-1Q442,28 442,61Q442,100 547,244Q651,387 789,540Q926,692 989,731Q909,772 849,786Q788,800 685,800Q557,800 465,775Q373,750 213,668Q197,660 184,660Q156,660 133,687Q110,714 110,745Q110,787 146,814Q389,980 685,980Q806,980 927,946Q1047,911 1148,848Z"  transform="translate(5768, 1100)"/>
<path d="M345,310Q414,295 540,245Q665,195 728,150Q790,104 790,68Q790,32 763,4Q735,-25 697,-25Q665,-25 649,-15Q553,38 457,81Q361,124 206,177Q164,191 137,223Q110,255 110,294Q110,310 129,341Q148,372 173,395Q330,536 556,643Q781,750 1065,813Q1348,875 1622,875Q1769,875 1769,779Q1769,732 1732,716Q1695,699 1631,697Q1198,679 891,584Q584,488 345,310ZM1317,222Q1317,191 1291,165Q1264,138 1230,138Q1213,138 1187,152Q1160,166 1096,211Q1019,263 934,299Q861,330 838,351Q814,371 814,407Q814,446 839,470Q864,493 902,493Q941,493 1003,467Q1065,440 1150,390Q1235,340 1276,302Q1317,263 1317,222Z"  transform="translate(7897, 1100)"/>
<path d="M1530,62Q1530,28 1502,4Q1474,-20 1435,-20Q1414,-20 1384,-5Q1354,9 1305,36Q1182,102 1072,152Q961,201 796,262L632,323Q597,336 581,359Q565,382 565,405Q565,443 591,470Q617,497 649,497Q702,497 853,442Q1003,387 1087,349L1170,314Q1284,266 1377,219Q1470,171 1500,139Q1530,107 1530,62ZM1496,890Q1496,862 1480,837Q1463,811 1432,807Q1290,792 1068,752Q846,712 652,659Q458,605 301,543Q237,518 216,518Q180,518 155,545Q130,572 130,609Q130,656 183,687Q288,747 525,815Q761,882 1030,931Q1298,980 1411,980Q1446,980 1471,955Q1496,929 1496,890Z"  transform="translate(9776, 1100)"/>
<path d=""  transform="translate(11436, 1100)"/>
<path d="M795,-20Q657,-20 549,65Q441,150 380,312Q319,473 318,690L194,682Q158,682 134,709Q110,735 110,771Q110,829 181,856Q236,875 506,875Q774,875 829,856Q900,829 900,771Q900,735 876,709Q852,682 816,682Q786,682 710,689Q634,695 503,695Q506,524 544,405Q582,285 647,223Q712,160 799,160Q949,160 1082,340L1186,479Q1295,626 1399,686Q1503,745 1626,745Q1749,745 1851,685Q1952,624 2010,519Q2068,413 2068,290Q2068,171 2023,105Q1977,39 1877,10Q1776,-20 1584,-20Q1512,-20 1488,3Q1463,25 1463,77Q1463,160 1588,160Q1706,160 1765,171Q1823,182 1849,208Q1874,233 1874,290Q1874,360 1841,424Q1807,488 1748,527Q1689,565 1622,565Q1547,565 1483,524Q1419,483 1352,396L1245,258Q1125,104 1018,42Q911,-20 795,-20Z"  transform="translate(11968, 1100)"/>
<path d="M1055,787Q1025,790 927,795Q828,800 739,800Q454,800 319,785Q337,670 407,595Q477,519 594,482Q711,444 908,420Q1095,397 1217,361Q1339,325 1410,252Q1481,178 1501,67L1503,47Q1503,16 1478,-7Q1452,-30 1412,-30Q1367,-30 1344,-15Q1320,0 1309,41Q1292,101 1249,139Q1206,177 1144,202Q1082,226 1006,240Q929,254 847,267Q764,280 679,295Q593,310 514,336Q434,361 364,401Q294,441 242,504Q190,567 160,657Q130,746 130,870Q130,903 155,928Q179,953 221,958Q485,980 729,980Q991,980 1096,967Q1201,953 1248,921Q1294,889 1294,830Q1294,791 1273,763Q1251,734 1230,715Q1166,655 1134,625Q1101,595 1063,595Q1027,595 1002,622Q976,648 976,683Q976,720 1010,749L1055,787Z"  transform="translate(14166, 1100)"/>
<path d="M1354,980Q1389,980 1414,953Q1439,926 1439,889Q1439,863 1426,840Q1412,817 1384,810Q1242,774 1081,728Q920,681 710,605Q499,529 421,480Q478,448 625,391Q772,333 933,283Q1093,233 1227,195Q1361,156 1384,151Q1412,145 1426,122Q1439,98 1439,72Q1439,34 1413,7Q1387,-20 1354,-20Q1321,-20 1195,14Q1069,47 874,110Q679,172 440,271Q200,370 160,401Q110,439 110,487Q110,527 155,559Q186,582 327,643Q467,703 651,773Q835,842 1071,911Q1306,980 1354,980Z"  transform="translate(15779, 1100)"/>
<path d="M875,495Q875,553 916,594Q956,634 1014,634Q1072,634 1113,594Q1153,553 1153,495Q1153,437 1113,397Q1072,356 1014,356Q956,356 916,397Q875,437 875,495ZM1888,480Q1888,243 1656,112Q1423,-20 1014,-20Q600,-20 370,111Q140,241 140,480Q140,631 243,743Q345,855 547,918Q748,980 1014,980Q1285,980 1485,918Q1685,856 1787,745Q1888,634 1888,480ZM1694,480Q1694,631 1512,716Q1329,800 1014,800Q698,800 516,717Q334,633 334,480Q334,325 515,243Q695,160 1014,160Q1326,160 1510,243Q1694,326 1694,480Z"  transform="translate(17328, 1100)"/>
<path d="M575,388Q363,524 252,628Q140,731 140,789Q140,825 175,859Q209,892 301,921Q392,950 518,965Q643,980 802,980Q1106,980 1300,930Q1494,880 1494,789Q1494,748 1479,720Q1463,692 1417,669Q1157,537 902,387Q1055,300 1346,173Q1378,159 1394,135Q1409,111 1409,89Q1409,53 1383,25Q1357,-3 1323,-3Q1285,-3 1111,82Q936,167 737,287Q474,125 311,2Q266,-30 236,-30Q202,-30 176,-2Q150,26 150,62Q150,86 172,111Q194,135 326,225Q457,315 575,388ZM1251,754Q1154,776 1031,788Q907,800 802,800Q572,800 373,754Q557,600 737,485Q1016,649 1251,754Z"  transform="translate(19356, 1100)"/>
<path d="M1622,565Q1547,565 1483,524Q1419,483 1352,396L1245,258Q1125,104 1018,42Q911,-20 795,-20Q657,-20 549,65Q441,150 380,312Q319,473 318,690L194,682Q158,682 134,709Q110,735 110,771Q110,829 181,856Q236,875 506,875Q774,875 829,856Q900,829 900,771Q900,735 876,709Q852,682 816,682Q786,682 710,689Q634,695 503,695Q506,524 544,405Q582,285 647,223Q712,160 799,160Q949,160 1082,340L1186,479Q1295,626 1399,686Q1503,745 1626,745Q1759,745 1859,678Q1959,610 2021,475Q2082,340 2082,239Q2082,204 2058,181Q2034,158 1995,158Q1954,158 1930,183Q1906,208 1896,259Q1880,332 1843,410Q1806,487 1751,526Q1696,565 1622,565Z"  transform="translate(20990, 1100)"/>
<path d=""  transform="translate(23182, 1100)"/>
<path d="M508,-20Q413,-20 327,34Q240,87 190,181Q140,275 140,398Q140,632 253,740Q365,848 587,914Q808,980 1097,980Q1328,980 1525,934Q1721,887 1865,798Q2051,683 2051,421Q2051,287 2003,188Q1954,89 1866,35Q1778,-20 1673,-20Q1600,-20 1528,3Q1455,25 1356,87L1095,249L784,57Q658,-20 508,-20ZM1666,160Q1756,160 1812,232Q1867,303 1867,428Q1867,501 1832,562Q1797,622 1740,655Q1620,725 1453,763Q1285,800 1096,800Q706,800 458,658Q324,580 324,428Q324,299 378,230Q431,160 526,160Q577,160 669,206L952,388Q980,406 1021,419Q1062,431 1096,431Q1173,431 1232,390L1459,244Q1588,160 1666,160Z"  transform="translate(23714, 1100)"/>
<path d="M1821,375Q1821,338 1787,309Q1752,280 1713,280Q1681,280 1657,313Q1600,392 1532,434Q1463,475 1365,475Q1287,475 1201,449Q1115,423 988,363Q867,304 767,277Q667,250 572,250Q437,250 327,303Q217,356 127,477Q110,500 110,530Q110,567 145,596Q179,625 218,625Q250,625 274,592Q331,513 400,472Q468,430 566,430Q645,430 733,457Q821,484 943,543Q1059,599 1160,627Q1261,655 1359,655Q1494,655 1604,602Q1714,549 1804,428Q1821,405 1821,375Z"  transform="translate(25905, 1100)"/>
<path d="M1544,651Q1391,695 953,695Q792,695 590,665Q388,634 294,600Q219,575 194,575Q159,575 135,603Q110,630 110,668Q110,688 124,712Q137,735 167,747Q308,804 533,840Q757,875 953,875Q1223,875 1417,855Q1610,834 1704,796Q1797,758 1797,692Q1797,653 1785,633Q1772,612 1749,595Q1526,435 1397,264Q1375,234 1326,234Q1288,234 1261,262Q1233,289 1233,322Q1233,362 1264,398Q1357,511 1544,651Z"  transform="translate(27836, 1100)"/>
<path d="M1972,604Q1972,550 1960,508Q1922,371 1828,286Q1734,201 1616,201Q1445,201 1343,373Q1279,479 1247,512Q1215,544 1175,544Q1135,544 1096,503Q1056,461 1003,366Q917,210 852,134Q787,58 710,19Q632,-20 542,-20Q430,-20 335,39Q240,98 185,202Q130,305 130,427Q130,554 188,657Q246,760 349,817Q451,874 582,874Q703,874 801,803Q898,731 958,600Q1003,654 1057,689Q1110,724 1179,724Q1256,724 1318,682Q1380,639 1433,553Q1492,455 1530,418Q1568,381 1612,381Q1658,381 1695,412Q1732,443 1754,492Q1776,541 1788,584Q1800,636 1823,661Q1845,685 1885,685Q1924,685 1948,662Q1972,639 1972,604ZM568,160Q610,160 649,184Q688,208 726,254Q764,300 828,407Q801,537 730,616Q658,694 568,694Q460,694 395,619Q329,544 329,426Q329,309 395,235Q461,160 568,160Z"  transform="translate(29763, 1100)"/>
<path d="M1079,875Q1383,875 1639,836Q1895,796 2021,725Q2052,708 2052,656Q2052,616 2029,588Q2005,560 1971,560Q1957,560 1915,578L1899,584Q1585,695 1079,695Q838,695 642,656Q446,616 235,536Q204,524 189,524Q154,524 132,552Q110,579 110,616Q110,667 148,685Q333,774 591,825Q849,875 1079,875ZM2023,78Q2023,42 1999,16Q1975,-11 1939,-11Q1909,-11 1858,-5Q1807,0 1749,0Q1680,0 1634,-5Q1587,-11 1557,-11Q1521,-11 1497,16Q1473,42 1473,78Q1473,127 1529,154Q1584,180 1749,180Q1912,180 1968,154Q2023,127 2023,78ZM1103,78Q1103,42 1079,16Q1055,-11 1019,-11Q989,-11 938,-5Q887,0 829,0Q760,0 714,-5Q667,-11 637,-11Q601,-11 577,16Q553,42 553,78Q553,127 609,154Q664,180 829,180Q992,180 1048,154Q1103,127 1103,78Z"  transform="translate(31845, 1100)"/>
<path d="M2082,239Q2082,204 2058,181Q2034,158 1995,158Q1954,158 1930,183Q1906,208 1896,259Q1880,332 1843,410Q1806,487 1751,526Q1696,565 1622,565Q1547,565 1483,524Q1419,483 1352,396L1245,258Q1125,104 1018,42Q911,-20 795,-20Q663,-20 561,51Q459,122 398,259Q336,395 336,498Q336,533 360,556Q384,579 423,579Q463,579 487,555Q511,530 523,479Q538,406 573,327Q608,247 666,204Q723,160 799,160Q949,160 1082,340L1186,479Q1295,626 1399,686Q1503,745 1626,745Q1759,745 1859,678Q1959,610 2021,475Q2082,340 2082,239ZM506,695Q362,695 233,684L194,682Q158,682 134,709Q110,735 110,771Q110,829 181,856Q236,875 506,875Q774,875 829,856Q900,829 900,771Q900,735 876,709Q852,682 816,682Q786,682 713,689Q639,695 506,695Z"  transform="translate(34007, 1100)"/>
<path d=""  transform="translate(36199, 1100)"/>
<path d="M2197,94Q2023,82 1869,63Q1714,43 1630,24Q1392,-31 1357,-31Q1321,-31 1297,-1Q1273,29 1273,69Q1273,126 1338,150Q1420,179 1631,214Q1841,248 1989,255Q1945,503 1872,599Q1799,695 1683,695Q1588,695 1404,519L1329,450L1098,245Q870,40 639,40Q549,40 481,66Q412,92 355,139Q297,186 243,252Q189,317 127,397Q110,420 110,450Q110,487 145,516Q179,545 218,545Q247,545 274,512Q375,381 429,328Q483,274 532,247Q580,220 633,220Q790,220 1000,411L1247,634Q1372,748 1434,790Q1495,832 1555,854Q1614,875 1683,875Q1918,875 2043,693Q2168,510 2197,94Z"  transform="translate(36731, 1100)"/>
<path d="M1099,672Q1250,584 1333,482Q1416,380 1416,272Q1416,160 1362,99Q1307,37 1195,9Q1082,-20 903,-20Q773,-20 678,-2Q582,15 526,48Q469,80 440,133Q411,185 411,272Q411,369 490,470Q569,570 728,669Q549,736 328,779Q291,786 271,810Q250,833 250,863Q250,901 273,928Q295,954 325,954Q362,954 569,896Q775,837 916,769Q1128,869 1358,925Q1588,980 1771,980Q1812,980 1830,953Q1847,926 1847,891Q1847,850 1830,825Q1812,800 1781,800Q1445,800 1099,672ZM1269,1234Q1269,1199 1248,1169Q1227,1138 1193,1138L1128,1145Q737,1162 691,1162Q570,1162 420,1153Q270,1143 217,1133L180,1130Q154,1130 132,1156Q110,1181 110,1219Q110,1242 121,1264Q131,1285 147,1294Q163,1303 276,1317Q388,1330 509,1336Q630,1342 691,1342Q1025,1342 1199,1310Q1237,1302 1253,1280Q1269,1257 1269,1234ZM911,589Q772,517 689,433Q605,349 605,272Q605,216 673,188Q741,160 915,160Q1063,160 1143,189Q1222,218 1222,272Q1222,346 1141,428Q1060,510 911,589Z"  transform="translate(39038, 1100)"/>
<path d="M1832,698Q1688,751 1518,776Q1348,800 1079,800Q895,800 774,785Q653,769 522,735Q391,700 235,641Q204,629 189,629Q154,629 132,657Q110,684 110,721Q110,772 148,790Q339,884 581,932Q823,980 1079,980Q1326,980 1493,961Q1659,942 1787,903Q1914,864 1975,822Q2036,779 2036,732Q2036,693 2019,661Q2001,628 1955,579Q1838,452 1715,291Q1592,130 1538,39Q1526,17 1502,-6Q1477,-30 1457,-30Q1422,-30 1389,0Q1355,30 1355,65Q1355,98 1445,230Q1534,361 1638,488Q1742,614 1832,698ZM1085,533Q1085,497 1065,477Q981,391 876,258Q770,124 697,10Q685,-9 671,-19Q657,-30 631,-30Q592,-30 559,-3Q525,24 525,57Q525,66 527,73Q528,80 544,109Q559,137 596,191Q633,245 689,317Q744,389 820,475Q895,560 928,588Q960,616 991,618Q1028,618 1057,593Q1085,568 1085,533Z"  transform="translate(40995, 1100)"/>
<path d="M1088,63Q1088,27 1061,-1Q1033,-30 995,-30Q970,-30 947,-20L464,161Q375,196 375,274Q375,310 438,379Q599,563 907,728Q726,804 570,836Q413,867 200,879Q163,882 153,887Q110,906 110,960Q110,999 146,1020Q181,1040 245,1040Q446,1040 658,992Q870,944 1110,835L1121,830Q1478,980 1710,980Q1795,980 1826,963Q1857,946 1857,912Q1857,864 1817,840Q1777,816 1692,807Q1502,786 1285,709Q1067,631 873,514Q679,396 597,294L1001,154Q1088,114 1088,63Z"  transform="translate(43161, 1100)"/>
<path d="M933,900Q754,900 569,876Q384,851 294,820Q219,795 194,795Q159,795 135,823Q110,850 110,888Q110,940 179,973Q248,1006 361,1030Q474,1054 633,1067Q792,1080 933,1080Q1168,1080 1381,1051Q1594,1022 1688,974Q1723,955 1741,937Q1759,918 1759,889Q1759,852 1735,824Q1711,795 1675,795Q1645,795 1589,815Q1479,853 1286,877Q1093,900 933,900ZM930,451Q790,451 615,432L568,428Q532,428 508,455Q484,481 484,517Q484,544 499,564Q514,584 544,598Q574,611 687,621Q800,631 930,631Q1047,631 1161,622Q1275,612 1303,602Q1374,575 1374,517Q1374,481 1350,455Q1326,428 1290,428L1242,432Q1058,451 930,451ZM1206,78Q1206,42 1182,16Q1158,-11 1122,-11Q1092,-11 1041,-5Q990,0 932,0Q863,0 817,-5Q770,-11 740,-11Q704,-11 680,16Q656,42 656,78Q656,127 712,154Q767,180 932,180Q1095,180 1151,154Q1206,127 1206,78Z"  transform="translate(45128, 1100)"/>
<path d="M1354,78Q1354,42 1330,16Q1306,-11 1270,-11Q1240,-11 1189,-5Q1138,0 1080,0Q1011,0 965,-5Q918,-11 888,-11Q852,-11 828,16Q804,42 804,78Q804,127 860,154Q915,180 1080,180Q1243,180 1299,154Q1354,127 1354,78ZM1079,875Q1383,875 1639,836Q1895,796 2021,725Q2052,708 2052,656Q2052,616 2029,588Q2005,560 1971,560Q1957,560 1915,578L1899,584Q1585,695 1079,695Q838,695 642,656Q446,616 235,536Q204,524 189,524Q154,524 132,552Q110,579 110,616Q110,667 148,685Q333,774 591,825Q849,875 1079,875Z"  transform="translate(46997, 1100)"/>
<path d=""  transform="translate(49159, 1100)"/>
<path d="M1189,767Q1189,732 1168,702Q1147,671 1113,671L1081,675Q1054,678 869,687Q684,695 661,695L531,692Q536,521 574,402Q611,283 677,222Q742,160 827,160Q977,160 1110,340L1214,479Q1357,672 1538,774Q1719,875 1911,875Q1974,875 2001,852Q2028,829 2028,800Q2028,704 1908,695Q1735,680 1614,611Q1492,542 1380,396L1283,271Q1541,184 1922,124L1960,119Q2028,110 2028,41Q2028,-1 1999,-25Q1969,-50 1923,-50Q1773,-50 1554,0Q1335,50 1151,121Q1001,-20 823,-20Q686,-20 578,65Q470,149 410,309Q349,468 346,683Q226,673 187,666L150,663Q124,663 102,689Q80,714 80,752Q80,775 91,797Q101,818 117,827Q133,836 246,850Q358,863 479,869Q600,875 661,875Q793,875 912,867Q1030,859 1110,845Q1189,830 1189,767Z"  transform="translate(49691, 1100)"/>
<path d="M1887,378Q1887,191 1701,86Q1514,-20 1182,-20Q847,-20 662,86Q477,192 477,378Q477,564 672,672Q866,780 1182,780Q1501,780 1694,674Q1887,567 1887,378ZM1693,379Q1693,483 1559,542Q1424,600 1185,600Q939,600 805,542Q671,483 671,379Q671,274 806,217Q941,160 1185,160Q1428,160 1561,217Q1693,274 1693,379ZM791,1130Q943,1130 1124,1117Q1305,1104 1399,1084Q1437,1076 1453,1054Q1469,1031 1469,1008Q1469,973 1448,943Q1427,912 1393,912Q1373,912 1336,918Q1139,950 791,950Q464,950 243,918Q201,912 180,912Q154,912 132,938Q110,963 110,1001Q110,1030 125,1054Q140,1078 164,1082Q267,1103 441,1117Q615,1130 791,1130Z"  transform="translate(51849, 1100)"/>
<path d="M933,160Q1093,160 1286,184Q1479,207 1589,245Q1645,265 1675,265Q1711,265 1735,237Q1759,208 1759,171Q1759,142 1741,124Q1723,105 1688,86Q1594,38 1381,9Q1168,-20 933,-20Q792,-20 633,-7Q474,6 361,30Q248,54 179,87Q110,120 110,172Q110,210 135,238Q159,265 194,265Q219,265 294,240Q384,209 569,185Q754,160 933,160ZM930,609Q1058,609 1242,628L1290,632Q1326,632 1350,606Q1374,579 1374,543Q1374,485 1303,458Q1275,448 1161,439Q1047,429 930,429Q800,429 687,439Q574,449 544,463Q514,476 499,496Q484,516 484,543Q484,579 508,606Q532,632 568,632L615,628Q790,609 930,609ZM1206,982Q1206,933 1151,907Q1095,880 932,880Q767,880 712,907Q656,933 656,982Q656,1018 680,1045Q704,1071 740,1071Q770,1071 817,1066Q863,1060 932,1060Q990,1060 1041,1066Q1092,1071 1122,1071Q1158,1071 1182,1045Q1206,1018 1206,982Z"  transform="translate(53876, 1100)"/>
<path d="M1079,875Q1383,875 1639,836Q1895,796 2021,725Q2052,708 2052,656Q2052,616 2029,588Q2005,560 1971,560Q1957,560 1915,578L1899,584Q1585,695 1079,695Q921,695 772,677Q951,485 1098,293Q1244,101 1244,49Q1244,13 1215,-8Q1186,-30 1150,-30Q1094,-30 1062,16Q976,141 916,220Q856,298 793,369Q729,440 546,634Q412,602 235,536Q204,524 189,524Q154,524 132,552Q110,579 110,616Q110,667 148,685Q333,774 591,825Q849,875 1079,875Z"  transform="translate(55745, 1100)"/>
<path d="M1683,875Q1872,875 1991,756Q2110,636 2162,379L2163,367Q2163,332 2138,308Q2113,283 2072,283Q2027,283 2004,297Q1980,311 1969,354Q1925,542 1856,619Q1786,695 1683,695Q1588,695 1404,519L1329,450L1098,245Q870,40 639,40Q549,40 481,66Q412,92 355,139Q297,186 243,252Q189,317 127,397Q110,420 110,450Q110,487 145,516Q179,545 218,545Q247,545 274,512Q375,381 429,328Q483,274 532,247Q580,220 633,220Q790,220 1000,411L1247,634Q1372,748 1434,790Q1495,832 1555,854Q1614,875 1683,875ZM2233,78Q2233,42 2209,16Q2185,-11 2149,-11L2043,-5Q1968,0 1909,0Q1841,0 1768,-5L1667,-11Q1631,-11 1607,16Q1583,42 1583,78Q1583,127 1639,154Q1694,180 1909,180Q1993,180 2068,174Q2143,167 2162,160Q2233,132 2233,78Z"  transform="translate(57907, 1100)"/>
<path d="M2023,78Q2023,42 1999,16Q1975,-11 1939,-11Q1909,-11 1858,-5Q1807,0 1749,0Q1680,0 1634,-5Q1587,-11 1557,-11Q1521,-11 1497,16Q1473,42 1473,78Q1473,127 1529,154Q1584,180 1749,180Q1912,180 1968,154Q2023,127 2023,78ZM1079,875Q1383,875 1639,836Q1895,796 2021,725Q2052,708 2052,656Q2052,616 2029,588Q2005,560 1971,560Q1957,560 1915,578L1899,584Q1585,695 1079,695Q838,695 642,656Q446,616 235,536Q204,524 189,524Q154,524 132,552Q110,579 110,616Q110,667 148,685Q333,774 591,825Q849,875 1079,875Z"  transform="translate(60250, 1100)"/>
</svg>
