<svg xmlns="http://www.w3.org/2000/svg" viewBox="0 0 47565 3840" transform="translate(0, 3840) scale(1, -1)">
<path d="M643,1096L997,1096L997,1106Q997,1204 1074,1276Q1151,1348 1268,1348Q1399,1348 1479,1271Q1559,1194 1559,1067Q1559,1010 1543,958Q1526,905 1495,851Q1464,797 1343,641Q1272,555 1232,485Q1192,414 1192,330Q1192,260 1252,211Q1311,162 1376,154L1333,-8Q1257,2 1186,47Q1114,92 1070,163Q1026,233 1026,330Q1026,422 1073,520Q1120,618 1231,745Q1395,932 1395,1067Q1395,1114 1366,1153Q1337,1192 1270,1192Q1214,1192 1183,1154Q1151,1116 1151,1042Q1151,999 1165,952L475,952Q489,999 492,1042Q492,1114 459,1153Q426,1192 371,1192Q303,1192 275,1153Q246,1114 246,1067Q246,932 410,745Q522,614 568,517Q614,420 614,330Q614,233 570,163Q526,92 456,47Q385,2 307,-8L264,154Q330,162 390,211Q449,260 449,330Q449,414 409,485Q369,555 297,641Q176,795 147,848Q117,901 100,955Q82,1008 82,1067Q82,1194 161,1271Q240,1348 373,1348Q494,1348 569,1277Q643,1206 643,1096Z"  transform="translate(0, 1151)"/>
<path d="M53,1350L1425,1350L1425,1200L252,1200Q388,973 434,778Q534,815 621,815Q695,815 836,784Q885,773 933,764Q981,754 1032,754Q1097,754 1167,776Q1237,797 1292,844L1368,711Q1294,648 1209,627Q1123,606 1032,606Q973,606 858,633Q805,644 748,654Q690,664 621,664Q548,664 455,629L457,613L457,596Q457,392 365,188Q488,221 582,221Q697,221 844,186Q1000,147 1112,147Q1196,147 1257,173Q1318,198 1366,260L1487,158Q1350,-4 1112,-4Q1008,-4 860,31Q696,70 586,70Q477,70 386,44Q295,18 238,-27Q163,7 96,47Q281,336 281,594Q281,706 250,816Q219,926 167,1027Q114,1128 53,1200L53,1350Z"  transform="translate(1642, 1151)"/>
<path d="M1358,1350Q1694,1350 1694,963L1694,0L1520,0L1520,954Q1520,1081 1479,1138Q1438,1194 1346,1194Q1307,1194 1265,1167Q1223,1139 1177,1093Q1130,1047 1004,883Q1161,664 1217,545Q1272,426 1272,326Q1272,170 1172,82Q1071,-6 905,-6Q743,-6 640,85Q537,176 537,326Q537,424 586,535Q635,645 805,883Q657,1075 587,1135Q516,1194 463,1194Q369,1194 329,1138Q289,1081 289,954L289,0L113,0L113,963Q113,1350 451,1350Q563,1350 665,1279Q766,1208 903,1018Q1053,1214 1151,1282Q1249,1350 1358,1350ZM707,352Q707,248 763,197Q819,145 903,145Q989,145 1046,197Q1102,248 1102,356Q1102,487 903,752Q811,625 759,529Q707,432 707,352Z"  transform="translate(3168, 1151)"/>
<path d="M1085,557L776,557L776,0L610,0L610,557L324,557L324,0L158,0L158,1198L88,1198L88,1350L1151,1350L1151,1198L776,1198L776,702L1085,702L1085,557ZM324,702L610,702L610,1198L324,1198L324,702Z"  transform="translate(4993, 1151)"/>
<path d="M946,727Q823,893 606,893Q450,893 368,795Q285,697 285,516Q285,341 374,242Q463,143 623,143Q740,143 855,192Q969,240 1059,322L1165,207Q1049,103 918,48Q787,-8 623,-8Q392,-8 251,130Q109,267 109,518Q109,1036 594,1036Q784,1036 946,926L946,1200L57,1200L57,1350L1188,1350L1188,1200L1114,1200L1114,727L946,727Z"  transform="translate(6207, 1151)"/>
<path d="M66,1200L66,1350L1249,1350L1249,1200L365,1200L365,516Q365,154 741,154Q997,154 1108,406L1249,328Q1188,176 1062,88Q936,0 743,0Q471,0 334,145Q197,289 197,561L197,1200L66,1200Z"  transform="translate(7503, 1151)"/>
<path d=""  transform="translate(8824, 1151)"/>
<path d="M1550,809Q1531,669 1459,596Q1386,522 1272,522Q1004,522 1004,805L1004,1200L784,1200L784,0L614,0L614,1200L375,1200L375,0L209,0L209,1200L82,1200L82,1350L1491,1350L1491,1202L1163,1202L1163,795Q1163,728 1191,698Q1218,668 1274,668Q1330,668 1358,715Q1385,761 1395,850L1550,809Z"  transform="translate(9356, 1151)"/>
<path d="M223,1053Q373,1368 739,1368Q999,1368 1137,1225Q1274,1081 1274,807L1274,-4Q1126,78 961,78Q856,78 705,37Q561,-4 455,-4Q217,-4 80,158L180,268Q279,145 461,145Q557,145 717,188Q874,231 961,231Q1026,231 1108,211L1108,846Q1108,1020 1012,1117Q915,1214 735,1214Q606,1214 520,1159Q434,1104 369,975L223,1053Z"  transform="translate(10968, 1151)"/>
<path d="M117,1350L727,1350Q957,1350 1145,1272Q1293,1410 1360,1466L1464,1354Q1328,1242 1286,1200Q1411,1119 1467,1031Q1522,942 1522,836Q1522,743 1482,674Q1441,605 1370,569Q1298,532 1210,532Q1063,532 977,618Q891,703 891,852Q891,922 930,1001Q968,1079 1038,1153Q910,1200 713,1200L362,1200Q559,1014 669,813Q778,612 778,428Q778,231 672,113Q565,-6 393,-6Q190,-6 57,162L182,270Q227,208 281,178Q334,147 385,147Q487,147 546,227Q604,306 604,436Q604,624 471,833Q338,1041 117,1200L117,1350ZM1049,852Q1049,763 1091,715Q1133,666 1210,666Q1279,666 1323,713Q1366,759 1366,836Q1366,915 1316,986Q1265,1056 1176,1104Q1049,970 1049,852Z"  transform="translate(12365, 1151)"/>
<path d="M664,0L664,106Q563,-6 414,-6Q278,-6 185,89Q92,184 92,319Q92,433 143,512Q194,591 305,641L383,500Q258,429 258,322Q258,245 308,196Q358,147 440,147Q514,147 576,200Q637,253 664,338L664,1198L84,1198L84,1350L1145,1350L1145,1198L829,1198L829,0L664,0Z"  transform="translate(13971, 1151)"/>
<path d="M66,1350L1473,1350L1473,1200L289,1200Q285,1160 285,1094Q287,849 427,719Q567,588 821,588Q957,588 1042,621Q993,675 966,733Q938,791 938,838Q938,956 1014,1025Q1089,1094 1204,1094Q1319,1094 1393,1021Q1466,948 1466,836Q1466,750 1420,684Q1374,618 1274,553Q1370,444 1404,378Q1438,311 1438,211Q1438,113 1354,0L1176,0Q1167,197 1040,197Q968,197 932,152Q896,107 893,0L725,0Q720,97 676,150Q631,203 553,203Q468,203 418,152Q368,101 365,0L197,0Q202,101 246,184Q289,266 364,307Q438,348 539,348Q640,348 711,305Q781,261 809,178Q829,254 891,298Q953,342 1040,342Q1127,342 1189,292Q1250,242 1274,156Q1290,196 1290,236Q1290,330 1130,487Q991,440 823,440Q500,440 310,612Q119,784 117,1085Q117,1150 123,1200L66,1200L66,1350ZM1098,840Q1098,753 1176,672Q1303,737 1303,836Q1303,946 1204,946Q1158,946 1128,918Q1098,889 1098,840Z"  transform="translate(15179, 1151)"/>
<path d="M295,1200Q563,887 563,563Q563,413 508,297Q453,180 343,102Q232,24 90,0L45,164Q215,200 305,306Q395,412 395,575Q395,720 311,890Q227,1060 76,1204L76,1350L1642,1350L1642,1204Q1477,1042 1394,875Q1311,708 1311,555Q1311,409 1403,302Q1494,194 1663,150L1616,0Q1492,30 1363,117Q1233,204 1104,347Q975,490 795,752L932,848Q1057,650 1153,532L1151,555L1151,575Q1151,892 1432,1200L295,1200Z"  transform="translate(16744, 1151)"/>
<path d=""  transform="translate(18454, 1151)"/>
<path d="M1171,0L156,0L156,1198L86,1198L86,1350L1249,1350L1249,1198L1171,1198L1171,0ZM748,143L1001,143L1001,1198L748,1198L748,143ZM328,143L582,143L582,1198L328,1198L328,143Z"  transform="translate(18986, 1151)"/>
<path d="M55,1350L1368,1350L1368,1200L55,1200L55,1350ZM893,614Q905,605 942,595Q978,584 999,584Q1078,584 1121,629Q1163,674 1163,756Q1163,836 1122,883Q1081,930 1008,930Q928,930 869,883Q810,835 761,732Q711,628 676,483Q635,318 569,215Q503,111 409,55Q315,-1 174,-1Q133,-1 90,4L106,150L151,149Q275,149 342,192Q409,235 456,323Q502,410 541,565Q605,814 723,944Q840,1073 1006,1073Q1094,1073 1166,1036Q1238,999 1280,930Q1321,860 1321,760Q1321,659 1282,588Q1242,517 1172,480Q1101,442 1014,442Q963,442 910,457Q856,472 827,492L893,614Z"  transform="translate(20325, 1151)"/>
<path d="M852,225Q721,-6 469,-6Q303,-6 204,81Q104,168 104,313Q104,403 162,482Q219,561 424,711Q575,821 605,850Q635,879 651,907Q666,934 666,971Q666,1051 617,1093Q567,1135 485,1135Q336,1135 266,989L127,1059Q238,1274 485,1274Q637,1274 728,1190Q819,1106 819,963Q819,809 616,672Q401,522 332,448Q262,373 262,305Q262,215 323,174Q383,133 467,133Q627,133 727,311L852,225ZM393,1657Q393,1692 418,1717Q442,1741 477,1741Q512,1741 537,1717Q561,1692 561,1657Q561,1622 537,1598Q512,1573 477,1573Q442,1573 418,1598Q393,1622 393,1657ZM279,1593Q340,1460 479,1460Q625,1460 680,1589L801,1548Q768,1454 684,1402Q600,1350 479,1350Q233,1350 158,1548L279,1593Z"  transform="translate(21742, 1151)"/>
<path d="M70,1350L1421,1350L1421,1200L264,1200Q491,928 528,707Q581,818 663,873Q745,928 870,928Q966,928 1045,891Q1124,853 1167,785Q1210,717 1210,627Q1210,581 1191,500Q1171,418 1171,377Q1171,313 1231,313Q1270,313 1307,348L1409,240Q1333,164 1223,164Q1126,164 1067,222Q1008,279 1008,377Q1008,409 1037,583L1042,627Q1042,696 994,739Q945,782 864,782Q746,782 671,696Q596,610 545,412Q505,247 395,142Q284,37 106,0L59,147Q223,188 309,294Q395,399 395,561Q395,712 304,890Q213,1067 70,1200L70,1350Z"  transform="translate(22668, 1151)"/>
<path d="M1059,154Q1460,172 1460,580Q1460,952 1225,952Q1114,952 1058,908Q1001,864 971,767Q940,670 940,516L772,516Q770,674 742,768Q713,862 661,906Q608,950 504,950Q248,950 248,578Q248,358 351,258Q453,158 649,154L649,-2Q373,2 222,154Q70,305 70,578Q70,821 180,959Q289,1096 492,1102Q526,1219 624,1288Q721,1356 852,1356Q987,1356 1086,1290Q1184,1223 1221,1102Q1628,1102 1628,580Q1628,305 1482,156Q1335,6 1059,-2L1059,154ZM856,817Q907,1012 1071,1077Q1051,1141 995,1182Q938,1223 854,1223Q776,1223 720,1186Q664,1149 643,1079Q809,1022 856,817Z"  transform="translate(24159, 1151)"/>
<path d="M76,1350L1468,1350L1468,1200L287,1200Q395,1061 501,998Q606,935 762,891L895,852Q1129,784 1248,718Q1367,651 1423,566Q1479,481 1479,375Q1479,195 1380,93Q1281,-10 1114,-10Q1044,-10 973,14Q902,37 852,78L946,205Q1029,143 1114,143Q1206,143 1259,208Q1311,272 1311,379Q1311,453 1271,505Q1230,557 1152,597Q1074,636 887,688Q797,714 703,745Q609,776 518,825Q596,669 596,524Q596,317 461,177Q325,36 92,0L45,160Q232,186 331,283Q430,380 430,539Q430,688 334,873Q238,1058 80,1200L76,1200L76,1350Z"  transform="translate(25885, 1151)"/>
<path d=""  transform="translate(27435, 1151)"/>
<path d="M1362,920Q1360,1078 1326,1159Q1291,1239 1206,1239Q1115,1239 1078,1180Q1040,1120 1040,967L1040,0L76,0L76,856Q76,1101 199,1239Q322,1376 555,1376Q690,1376 779,1331Q867,1286 930,1188Q957,1288 1030,1342Q1102,1395 1212,1395Q1362,1395 1443,1281Q1523,1166 1528,942L1362,920ZM872,901Q872,1052 789,1137Q706,1221 557,1221Q409,1221 328,1134Q246,1046 246,883L246,723L872,723L872,901ZM246,145L872,145L872,578L246,578L246,145Z"  transform="translate(27967, 1151)"/>
<path d="M70,1350L1372,1350L1372,1200Q1277,1153 1116,1047Q954,940 827,829Q957,708 1013,638Q1069,567 1099,500Q1128,432 1128,360Q1128,249 1081,165Q1034,81 938,32Q842,-18 723,-18Q606,-18 514,27Q421,71 368,156Q315,240 315,360Q315,458 378,563Q441,667 614,831Q542,895 443,967Q343,1039 228,1110Q112,1180 70,1200L70,1350ZM494,367Q494,259 558,193Q622,127 723,127Q822,127 886,194Q950,261 950,367Q950,447 891,538Q832,628 723,715Q494,552 494,367ZM336,1200Q550,1072 723,928Q879,1066 1106,1200L336,1200Z"  transform="translate(29577, 1151)"/>
<path d="M96,1350L2320,1350L2320,1200Q2245,1159 2092,1050Q1939,940 1817,829Q1993,666 2056,565Q2118,463 2118,360Q2118,186 2006,84Q1894,-18 1712,-18Q1526,-18 1416,85Q1305,188 1305,360Q1305,455 1363,555Q1421,655 1604,831Q1399,1012 1210,1141Q1014,1008 813,829Q989,666 1052,565Q1114,463 1114,360Q1114,186 1003,84Q891,-18 709,-18Q522,-18 412,85Q301,188 301,360Q301,455 360,555Q418,655 600,831Q481,936 333,1044Q184,1151 96,1200L96,1350ZM1483,367Q1483,258 1547,193Q1610,127 1712,127Q1812,127 1876,195Q1939,262 1939,367Q1939,532 1712,715Q1483,549 1483,367ZM479,367Q479,258 543,193Q606,127 709,127Q809,127 873,195Q936,262 936,367Q936,532 709,715Q479,549 479,367ZM1364,1200Q1528,1077 1712,928Q1866,1063 2073,1200L1364,1200ZM360,1200Q524,1077 709,928Q862,1063 1069,1200L360,1200Z"  transform="translate(31025, 1151)"/>
<path d="M793,0L793,80Q793,405 648,573Q502,741 217,741L145,741L145,891L217,891Q448,891 579,824Q710,756 784,618L793,618L793,1200L78,1200L78,1350L1026,1350L1026,1200L956,1200L956,0L793,0Z"  transform="translate(33433, 1151)"/>
<path d="M1171,0L156,0L156,1198L86,1198L86,1350L1661,1350L1661,1198L1591,1198L1591,735L1425,735L1425,1198L1171,1198L1171,0ZM324,143L584,143L584,1198L324,1198L324,143ZM754,143L1006,143L1006,1198L754,1198L754,143Z"  transform="translate(34539, 1151)"/>
<path d="M1288,1202Q1043,1076 934,1011Q825,945 736,878Q646,811 582,741Q518,671 481,596Q444,521 444,438Q444,294 521,217Q598,139 750,139Q910,139 1061,285Q1075,269 1117,227Q1159,185 1178,168Q1099,95 1038,60Q976,25 902,4Q827,-18 737,-18Q600,-18 488,38Q375,93 321,191Q266,289 266,422Q266,629 432,818Q598,1006 963,1200L68,1200L68,1350L1288,1350L1288,1202Z"  transform="translate(36290, 1151)"/>
<path d=""  transform="translate(37654, 1151)"/>
<path d="M1303,201Q1054,-14 764,-14Q585,-14 442,69Q298,151 219,303Q139,455 139,659Q139,906 231,1200L94,1200L94,1350L1403,1350L1403,1200L1300,1200L1073,762L922,842L1116,1200L428,1200Q322,926 322,659Q322,502 377,388Q432,274 534,213Q635,152 768,152Q996,152 1202,326L1303,201Z"  transform="translate(38186, 1151)"/>
<path d="M182,0L182,891L602,891L602,1198L80,1198L80,1350L1309,1350L1309,1198L768,1198L768,891L1186,891L1186,0L182,0ZM1016,143L1016,739L768,739L768,143L1016,143ZM602,143L602,739L354,739L354,143L602,143Z"  transform="translate(39663, 1151)"/>
<path d="M252,868Q559,868 733,831Q791,908 890,1021Q989,1134 1208,1362L1321,1257Q1028,964 899,791Q1093,727 1190,618Q1286,508 1286,358Q1286,251 1238,169Q1189,86 1106,40Q1022,-6 930,-6Q815,-6 728,39Q641,83 592,166Q543,249 543,371Q543,524 647,696Q500,717 311,717Q238,717 156,711L45,836L365,1366L512,1284L252,868ZM713,373Q713,265 768,209Q823,152 922,152Q1009,152 1065,207Q1120,261 1120,354Q1120,568 809,657Q713,507 713,373Z"  transform="translate(41060, 1151)"/>
<path d="M995,365Q1011,270 1049,227Q1087,184 1155,184Q1223,184 1265,233Q1307,281 1307,360Q1307,498 1211,567Q1115,635 897,635Q770,635 592,594L596,524Q596,317 461,177Q325,36 92,0L45,160Q232,186 331,283Q430,380 430,539Q430,694 334,876Q237,1058 76,1200L76,1350L1470,1350L1470,1200L287,1200Q483,978 559,739Q752,782 891,782Q1191,782 1332,679Q1473,576 1473,367Q1473,263 1431,190Q1388,116 1316,76Q1243,35 1155,35Q1014,35 932,110Q850,185 831,324L995,365Z"  transform="translate(42467, 1151)"/>
<path d="M1118,0L1118,1200L903,1200L903,0L735,0L735,1200L309,1200Q439,1043 510,877Q580,711 580,557Q580,418 524,299Q467,179 363,102Q258,24 115,0L68,150Q232,185 322,297Q412,409 412,584Q412,737 326,904Q239,1070 98,1200L98,1350L1923,1350L1923,1200Q1771,1064 1691,903Q1610,741 1610,584Q1610,412 1700,299Q1790,185 1954,150L1909,0Q1766,24 1661,101Q1555,178 1499,297Q1442,415 1442,557Q1442,712 1514,881Q1585,1049 1710,1200L1286,1200L1286,0L1118,0Z"  transform="translate(44005, 1151)"/>
<path d="M1356,907Q1281,805 1239,682Q1196,559 1196,444Q1196,308 1259,236Q1322,164 1440,164L1495,168L1516,14Q1493,10 1440,10Q1318,10 1225,61Q1132,112 1080,208Q1028,304 1028,438Q1028,668 1182,920Q904,863 702,780Q783,671 823,575Q862,479 862,383Q862,259 813,172Q763,85 677,40Q590,-6 477,-6Q383,-6 300,40Q216,86 168,169Q119,251 119,358Q119,638 457,831Q319,980 244,1052Q168,1124 76,1200L76,1350L1468,1350L1468,1200L305,1200Q496,1018 600,901Q820,993 1188,1071L1356,907ZM696,385Q696,527 555,709Q287,555 287,354Q287,259 343,206Q399,152 485,152Q586,152 641,214Q696,275 696,385Z"  transform="translate(46000, 1151)"/>
</svg>
