<svg xmlns="http://www.w3.org/2000/svg" viewBox="0 0 53307 3943" transform="translate(0, 3943) scale(1, -1)">
<path d="M1008,0L147,0L375,684L92,684L145,846L633,846L403,162L858,162L1233,1300L154,1300L207,1462L1489,1462L1008,0Z"  transform="translate(0, 1254)"/>
<path d="M190,0L618,1300L152,1300L205,1462L877,1462L446,162L1141,162L961,719L1155,719L1389,0L190,0Z"  transform="translate(1415, 1254)"/>
<path d="M387,0L188,0L616,1300L152,1300L205,1462L1612,1462L1407,844L1847,844L1618,162L1819,162L2243,1462L2904,1462L2425,0L2224,0L2650,1300L2388,1300L1962,0L1366,0L1595,682L1354,682L1128,0L930,0L1358,1300L821,1300L387,0Z"  transform="translate(2906, 1254)"/>
<path d="M397,0L829,1300L588,1300L160,0L-41,0L438,1462L1081,1462L651,162L1057,162L1485,1462L1688,1462L1206,0L397,0Z"  transform="translate(5736, 1254)"/>
<path d="M989,1462L1651,1462L1171,0L971,0L1397,1300L1135,1300L709,0L113,0L342,682L33,682L86,844L594,844L365,162L565,162L989,1462Z"  transform="translate(7350, 1254)"/>
<path d="M975,0L-45,0L436,1462L635,1462L205,162L825,162L1260,1462L1458,1462L975,0Z"  transform="translate(8927, 1254)"/>
<path d=""  transform="translate(10311, 1254)"/>
<path d="M616,1300L147,1300L201,1462L874,1462L444,162L1061,162L936,272Q815,381 815,489Q815,598 888,659Q960,719 1094,719L1559,719L1505,557L1096,557Q1004,557 1004,483Q1004,441 1106,354L1378,111L1341,0L188,0L616,1300Z"  transform="translate(10843, 1254)"/>
<path d="M207,813L461,813L627,1300L154,1300L207,1462L874,1462L657,813L897,813L844,651L604,651L387,0L188,0L408,651L154,651L207,813ZM1034,813L1288,813L1454,1300L981,1300L1034,1462L1702,1462L1485,813L1724,813L1671,651L1432,651L1214,0L1016,0L1235,651L981,651L1034,813Z"  transform="translate(12410, 1254)"/>
<path d="M1761,1098L1401,0L1200,0L997,586L805,0L68,0L383,936L74,936L127,1098L635,1098L319,162L662,162L1085,1462L1284,1462L1092,874L1292,279L1563,1098L1761,1098Z"  transform="translate(14042, 1254)"/>
<path d="M1085,1462L1284,1462L1165,1098L1745,1098L1384,0L1184,0L1489,936L1112,936L805,0L68,0L383,936L74,936L127,1098L635,1098L319,162L662,162L1085,1462Z"  transform="translate(15822, 1254)"/>
<path d="M1098,971L1186,971L1683,276L2030,1300L1419,1300L1386,1206L1190,1206L1276,1462L2281,1462L1794,0L1667,0L1188,662L971,0L172,0L602,1300L156,1300L209,1462L854,1462L424,162L827,162L1098,971Z"  transform="translate(17585, 1254)"/>
<path d="M3357,1098L2996,0L2796,0L2593,586L2400,0L1663,0L1882,651L1343,651L1126,0L928,0L1147,651L604,651L387,0L188,0L408,651L154,651L207,813L461,813L627,1300L154,1300L207,1462L1614,1462L1397,813L2134,813L1915,162L2257,162L2681,1462L2879,1462L2687,874L2888,279L3158,1098L3357,1098ZM819,1300L657,813L1200,813L1366,1300L819,1300Z"  transform="translate(19791, 1254)"/>
<path d=""  transform="translate(23164, 1254)"/>
<path d="M190,0L618,1300L152,1300L205,1462L877,1462L446,162L1149,162L1280,557L911,557L965,719L1524,719L1288,0L190,0Z"  transform="translate(23696, 1254)"/>
<path d="M1161,330L242,330L561,1300L199,1300L252,1462L819,1462L498,492L1012,492L1278,1300L918,1300L971,1462L1536,1462L1161,330ZM184,162L1104,162L1051,0L131,0L184,162Z"  transform="translate(25336, 1254)"/>
<path d="M881,971L969,971L1466,276L1812,1300L1202,1300L1169,1206L973,1206L1059,1462L2064,1462L1577,0L1450,0L971,662L754,0L-45,0L438,1462L823,1462L772,1300L582,1300L207,162L610,162L881,971Z"  transform="translate(26794, 1254)"/>
<path d="M205,674L688,674L786,971L133,971L186,1133L1040,1133L889,674L1102,674L1049,512L836,512L668,0L465,0L635,512L152,512L205,674ZM205,1462L1149,1462L1096,1300L152,1300L205,1462Z"  transform="translate(28781, 1254)"/>
<path d="M807,715L854,864L1325,1300L719,1300L770,1462L1626,1462L1612,1335L1104,864Q1253,864 1375,811Q1497,757 1565,663Q1632,569 1632,457Q1632,305 1560,195Q1488,84 1350,29Q1212,-27 1018,-27Q752,-27 560,70Q368,167 265,357Q162,546 162,807Q162,969 209,1131Q256,1293 340,1417L386,1484L403,1507L621,1507L553,1409Q447,1259 404,1114Q360,969 360,807Q360,494 532,318Q704,141 1018,141Q1211,141 1319,226Q1427,310 1427,457Q1427,575 1308,645Q1189,715 999,715L807,715Z"  transform="translate(29877, 1254)"/>
<path d="M287,0L340,162L768,162L1145,1300L586,1300L395,725L625,725L571,563L141,563L436,1462L1405,1462L971,162L1417,162L1847,1462L2810,1462L2519,582L2071,582L2124,743L2372,743L2552,1300L1995,1300L1620,162L2077,162L2023,0L287,0Z"  transform="translate(31661, 1254)"/>
<path d=""  transform="translate(34397, 1254)"/>
<path d="M623,1300L414,1300L526,1016L623,1300ZM825,162L938,477Q972,573 1018,625Q1063,677 1131,705Q1199,733 1294,733Q1410,733 1486,674Q1561,615 1561,525Q1561,487 1546,442L1399,0L1208,0L1329,375Q1335,394 1342,416Q1349,438 1353,460Q1357,482 1357,503Q1355,573 1266,573Q1215,573 1181,543Q1146,512 1120,434L969,0L188,0L446,770L168,1462L877,1462L444,162L825,162Z"  transform="translate(34929, 1254)"/>
<path d="M387,0L184,0L403,651L154,651L207,813L457,813L623,1300L154,1300L207,1462L1702,1462L1214,0L1012,0L1231,651L604,651L387,0ZM819,1300L657,813L1284,813L1450,1300L819,1300Z"  transform="translate(36576, 1254)"/>
<path d="M195,1300L248,1462L926,1462L553,330Q742,156 846,156Q903,156 943,189Q982,221 1020,296Q1057,370 1104,510L1419,1462L1620,1462L1262,383Q1206,209 1155,128Q1103,46 1034,9Q964,-29 862,-29Q771,-29 678,11Q585,50 479,139Q429,51 363,12Q297,-27 205,-27Q84,-27 12,39Q-61,104 -61,215Q-61,336 15,408Q91,479 213,479Q259,479 308,467Q356,455 387,436L668,1300L195,1300ZM207,121Q294,121 340,268Q280,324 209,324Q164,324 132,298Q100,271 100,225Q100,179 127,150Q154,121 207,121Z"  transform="translate(38208, 1254)"/>
<path d="M1214,0L190,0L618,1300L154,1300L207,1462L877,1462L446,162L1065,162L1440,1300L975,1300L1028,1462L1698,1462L1214,0Z"  transform="translate(39744, 1254)"/>
<path d="M618,1300L141,1300L195,1462L877,1462L444,162L717,162L958,848L1143,848L1440,0L1247,0L1051,582L860,0L190,0L618,1300ZM1507,848L1804,0L1614,0L1313,848L1507,848Z"  transform="translate(41368, 1254)"/>
<path d="M387,0L184,0L623,1300L154,1300L207,1462L874,1462L387,0ZM1214,0L1012,0L1450,1300L981,1300L1034,1462L1702,1462L1214,0Z"  transform="translate(43074, 1254)"/>
<path d=""  transform="translate(44698, 1254)"/>
<path d="M1061,848L1277,232L1356,0L1161,0L967,582L776,0L-45,0L438,1462L1051,1462L997,1300L582,1300L207,162L631,162L811,668L872,848L1061,848Z"  transform="translate(45230, 1254)"/>
<path d="M238,1188L537,1188L573,1300L272,1300L326,1462L831,1462L346,0L145,0L483,1026L184,1026L238,1188Z"  transform="translate(46508, 1254)"/>
<path d="M438,1462L1051,1462L997,1300L582,1300L207,162L997,162L1128,557L707,557L760,719L1372,719L1137,0L-45,0L438,1462Z"  transform="translate(47253, 1254)"/>
<path d="M758,162L846,422L1038,422L899,0L-45,0L438,1462L889,1462L836,1300L582,1300L207,162L758,162Z"  transform="translate(48654, 1254)"/>
<path d="M1186,864Q1335,864 1457,811Q1579,757 1647,663Q1714,569 1714,457Q1714,307 1632,196Q1549,85 1398,29Q1247,-27 1036,-27Q614,-27 388,192Q162,411 162,807Q162,969 209,1131Q256,1293 340,1417L386,1484L403,1507L621,1507L553,1409Q447,1259 404,1114Q360,969 360,807Q360,483 534,312Q708,141 1036,141Q1180,141 1287,181Q1394,220 1452,293Q1509,365 1509,457Q1509,575 1390,645Q1271,715 1081,715L889,715L936,864L1407,1300L801,1300L852,1462L1708,1462L1694,1335L1409,1071Q1525,1102 1593,1102Q1661,1102 1711,1082Q1760,1062 1788,1029Q1815,995 1815,958Q1815,920 1790,897Q1765,874 1724,874Q1690,874 1668,891Q1646,908 1621,929Q1596,949 1562,966Q1528,983 1470,983Q1391,983 1323,956Q1254,928 1186,864Z"  transform="translate(49803, 1254)"/>
<path d="M1231,0L1028,0L1458,1300L1122,1300L694,0L492,0L922,1300L586,1300L156,0L-47,0L436,1462L1710,1462L1231,0Z"  transform="translate(51669, 1254)"/>
</svg>
