<svg xmlns="http://www.w3.org/2000/svg" viewBox="0 0 44886 3789" transform="translate(0, 3789) scale(1, -1)">
<path d="M821,358Q821,596 778,709Q735,821 633,867Q530,913 324,913L293,913Q269,839 222,795Q174,750 121,750L82,750L123,1049L317,1049Q363,1049 428,1044L428,1221Q337,1273 260,1369Q182,1464 154,1556L340,1556Q421,1358 535,1317Q598,1342 643,1404Q687,1465 727,1556L913,1556Q878,1442 796,1348Q714,1253 614,1206L614,1024Q826,982 917,839Q1008,696 1008,414L1008,0L821,0L821,358Z"  transform="translate(0, 1100)"/>
<path d="M657,477Q565,477 522,454Q478,430 458,379Q438,328 438,240L438,0L252,0L252,233Q252,433 340,523Q427,612 608,612L756,612Q646,704 596,790Q545,876 530,985L293,985Q273,914 224,868Q175,821 121,821L82,821L115,1055L82,1284L121,1284Q175,1284 224,1239Q272,1193 293,1120L526,1120Q538,1288 641,1387Q743,1485 907,1485Q1067,1485 1162,1402Q1257,1319 1257,1178Q1257,1070 1201,987Q1145,903 1039,858Q933,813 788,813Q852,715 954,664Q1056,612 1184,612L1458,612L1499,293L1460,293Q1392,293 1344,345Q1296,397 1284,477L657,477ZM918,1346Q818,1346 767,1279Q715,1212 715,1087Q715,1031 731,956Q906,956 991,1005Q1075,1053 1075,1165Q1075,1243 1032,1295Q988,1346 918,1346Z"  transform="translate(1192, 1100)"/>
<path d="M627,1440L627,1268Q627,1104 676,1061Q789,1178 985,1178Q1207,1178 1324,1043Q1440,908 1440,641L1440,0L1253,0L1253,645Q1253,838 1190,926Q1126,1014 995,1014Q859,1014 794,927Q729,840 729,647L729,553L543,553L543,637Q543,803 586,915Q510,950 475,1035Q440,1119 440,1262L440,1440L293,1440Q273,1375 226,1336Q178,1296 121,1296L82,1296L115,1497L82,1698L121,1698Q177,1698 225,1659Q272,1620 293,1554L774,1554Q796,1623 843,1661Q890,1698 946,1698L985,1698L952,1497L985,1296L946,1296Q889,1296 842,1335Q795,1373 774,1440L627,1440Z"  transform="translate(2773, 1100)"/>
<path d="M246,1462Q408,1462 487,1422Q566,1382 604,1294Q641,1205 641,1047L641,860L1012,860L1012,1462L1198,1462L1198,0L1012,0L1012,725L641,725L641,0L455,0L455,1065Q455,1204 422,1266Q389,1327 307,1327L293,1327Q270,1253 223,1208Q175,1163 121,1163L82,1163L123,1462L246,1462Z"  transform="translate(4336, 1100)"/>
<path d="M289,0L102,0Q106,567 438,807Q320,860 258,946Q195,1031 195,1141Q195,1302 292,1393Q389,1483 555,1483Q667,1483 747,1440Q827,1397 870,1322Q913,1247 913,1159Q913,1086 887,1024Q861,962 812,907Q762,851 645,766Q763,721 849,633Q935,545 995,401Q1065,494 1202,494Q1337,494 1413,424Q1489,354 1489,238Q1489,111 1412,37Q1334,-37 1202,-37Q1081,-37 1006,19Q931,75 893,205Q828,418 740,525Q651,631 512,666Q413,577 375,492Q289,305 289,0ZM569,903Q644,953 673,987Q702,1020 717,1061Q731,1102 731,1155Q731,1242 682,1294Q632,1346 549,1346Q467,1346 418,1292Q369,1237 369,1147Q369,1055 421,993Q473,930 569,903ZM1206,358Q1146,358 1113,324Q1079,290 1079,233Q1079,172 1114,135Q1148,98 1206,98Q1263,98 1296,136Q1329,173 1329,233Q1329,287 1296,323Q1263,358 1206,358Z"  transform="translate(5718, 1100)"/>
<path d="M434,0L434,193Q434,353 404,473Q374,593 309,709L254,809Q154,989 154,1130Q154,1294 251,1389Q348,1483 508,1483Q686,1483 784,1393Q881,1303 881,1137Q881,979 773,874Q665,769 494,754Q544,646 567,578L993,578Q1127,578 1196,523Q1264,467 1264,367Q1264,260 1193,200Q1122,139 993,139Q865,139 794,202Q723,264 723,367Q723,419 741,463L598,463Q621,350 621,225L621,0L434,0ZM516,1343Q435,1343 386,1289Q336,1234 336,1143Q336,1010 428,883Q562,899 630,965Q698,1031 698,1139Q698,1231 649,1287Q599,1343 516,1343ZM993,469Q940,469 912,442Q883,414 883,367Q883,311 912,279Q940,246 993,246Q1047,246 1076,280Q1104,314 1104,367Q1104,413 1075,441Q1045,469 993,469Z"  transform="translate(7162, 1100)"/>
<path d=""  transform="translate(8508, 1100)"/>
<path d="M1440,512Q1381,512 1333,559Q1284,606 1266,676L1102,676L1102,516Q1102,255 979,118Q856,-20 627,-20Q400,-20 282,119Q164,258 164,520L164,940Q164,1203 282,1342Q400,1481 627,1481Q855,1481 979,1343Q1102,1205 1102,944L1102,811L1438,811L1479,512L1440,512ZM915,948Q915,1140 848,1229Q780,1317 637,1317Q488,1317 419,1228Q350,1139 350,950L350,510Q350,320 419,232Q488,143 637,143Q779,143 847,231Q915,319 915,512L915,948Z"  transform="translate(9040, 1100)"/>
<path d="M539,942L313,942Q295,873 248,826Q200,778 141,778L102,778L143,1077L539,1077L539,1462L313,1462Q296,1402 249,1361Q201,1319 141,1319L102,1319L135,1520L102,1720L141,1720Q200,1720 248,1679Q296,1638 313,1577L950,1577Q971,1643 1017,1682Q1063,1720 1122,1720L1161,1720L1128,1520L1161,1319L1122,1319Q1062,1319 1016,1359Q970,1398 950,1462L725,1462L725,1077L1120,1077L1161,778L1122,778Q1066,778 1018,823Q970,868 948,942L725,942L725,135L1120,135L1161,-164L1122,-164Q1067,-164 1019,-119Q971,-75 948,0L313,0Q294,-70 246,-117Q198,-164 141,-164L102,-164L143,135L539,135L539,942Z"  transform="translate(10601, 1100)"/>
<path d="M676,1366Q746,1383 796,1424Q846,1464 909,1556L1096,1556Q1059,1450 979,1371Q898,1292 776,1253L776,1104Q1023,1104 1144,1024Q1264,944 1264,776Q1264,616 1138,533Q1012,449 776,449L776,0L590,0L590,449Q102,449 102,776Q102,948 224,1026Q345,1104 590,1104L590,1249Q463,1284 377,1364Q291,1444 254,1556L440,1556Q500,1470 554,1426Q608,1382 676,1366ZM590,969Q436,969 361,925Q285,881 285,778Q285,701 316,662Q347,623 414,604Q481,584 590,584L590,969ZM776,584Q934,584 1008,628Q1081,672 1081,776Q1081,877 1006,923Q931,969 776,969L776,584Z"  transform="translate(11763, 1100)"/>
<path d="M289,0L102,0Q112,262 190,427Q268,592 424,694Q176,803 176,1038Q176,1159 247,1249Q318,1338 432,1362L432,1556L618,1556L618,1362Q744,1343 820,1257Q895,1171 895,1049Q895,945 834,853Q772,760 623,653Q804,590 901,393Q929,437 986,466Q1042,494 1120,494Q1255,494 1331,424Q1407,354 1407,238Q1407,111 1330,37Q1252,-37 1120,-37Q1042,-37 990,-15Q938,6 901,45Q864,84 837,139Q809,193 780,260Q715,405 647,472Q578,538 485,553Q379,459 334,336Q289,213 289,0ZM551,793Q713,882 713,1044Q713,1129 664,1182Q614,1235 530,1235Q448,1235 399,1180Q350,1124 350,1036Q350,942 405,879Q459,816 551,793ZM1124,358Q1064,358 1031,324Q997,290 997,233Q997,172 1032,135Q1066,98 1124,98Q1181,98 1214,136Q1247,173 1247,233Q1247,287 1214,323Q1181,358 1124,358Z"  transform="translate(13088, 1100)"/>
<path d="M752,1462L938,1462L938,662Q938,499 986,424Q1034,348 1133,348Q1223,348 1270,421Q1317,494 1319,659L1319,1462L1505,1462L1505,653Q1505,433 1406,309Q1307,184 1128,184Q985,184 897,270Q822,-20 549,-20Q374,-20 279,106Q184,231 184,457L184,1462L371,1462L371,457Q371,294 419,219Q467,143 565,143Q658,143 705,219Q752,294 752,461L752,1462Z"  transform="translate(14536, 1100)"/>
<path d="M299,115L547,729Q164,762 164,1124L164,1462L350,1462L350,1130Q350,883 600,862L844,1462L1032,1462L494,135L791,135Q808,202 858,251Q907,299 963,299L1001,299L969,70L1001,-164L963,-164Q907,-164 857,-115Q807,-66 791,0L299,0L299,115Z"  transform="translate(16226, 1100)"/>
<path d=""  transform="translate(17340, 1100)"/>
<path d="M1270,1462L1311,1163L1272,1163Q1215,1163 1166,1210Q1116,1257 1098,1327L799,1327L799,811L975,811L975,979L1161,979L1161,625L1360,625L1401,305L1362,305Q1294,305 1246,357Q1198,409 1186,489L975,489L975,676L799,676L799,0L612,0L612,1327L313,1327Q294,1257 246,1210Q198,1163 141,1163L102,1163L143,1462L1270,1462Z"  transform="translate(17872, 1100)"/>
<path d="M1808,383Q1742,383 1693,435Q1644,486 1632,567L1421,567L1421,754L1257,754Q1232,624 1111,557Q989,489 776,489L776,0L590,0L590,489Q352,489 227,571Q102,652 102,817Q102,989 224,1067Q345,1145 590,1145L590,1462L776,1462L776,1145Q991,1145 1112,1083Q1233,1021 1257,889L1421,889L1421,1057L1608,1057L1608,702L1806,702L1847,383L1808,383ZM590,1010Q436,1010 361,966Q285,922 285,819Q285,742 316,703Q347,664 414,645Q481,625 590,625L590,1010ZM776,625Q934,625 1008,669Q1081,713 1081,817Q1081,918 1006,964Q931,1010 776,1010L776,625Z"  transform="translate(19355, 1100)"/>
<path d="M627,1440L627,1268Q627,1104 676,1061Q789,1178 985,1178Q1207,1178 1324,1043Q1440,908 1440,641L1440,135L1612,135L1653,-164L1614,-164Q1557,-164 1508,-117Q1458,-70 1440,0L942,0Q923,-70 875,-117Q827,-164 770,-164L731,-164L772,135L1253,135L1253,645Q1253,838 1190,926Q1126,1014 995,1014Q859,1014 794,927Q729,840 729,647L729,553L543,553L543,637Q543,803 586,915Q510,950 475,1035Q440,1119 440,1262L440,1440L293,1440Q273,1375 226,1336Q178,1296 121,1296L82,1296L115,1497L82,1698L121,1698Q177,1698 225,1659Q272,1620 293,1554L774,1554Q796,1623 843,1661Q890,1698 946,1698L985,1698L952,1497L985,1296L946,1296Q889,1296 842,1335Q795,1373 774,1440L627,1440Z"  transform="translate(21100, 1100)"/>
<path d="M901,1462Q936,1406 936,1333Q936,1208 834,1102Q762,1028 744,1000Q725,972 725,944L725,936L1120,936L1161,637L1122,637Q1066,637 1018,682Q970,727 948,801L725,801L725,0L539,0L539,801L313,801Q295,732 248,685Q200,637 141,637L102,637L143,936L539,936L539,942Q539,1004 594,1059Q494,1076 431,1146Q367,1215 367,1309Q367,1398 410,1462L313,1462Q296,1402 249,1361Q201,1319 141,1319L102,1319L135,1520L102,1720L141,1720Q200,1720 248,1679Q296,1638 313,1577L948,1577Q970,1651 1019,1696Q1068,1741 1122,1741L1161,1741L1120,1462L901,1462ZM651,1438Q606,1438 578,1404Q549,1370 549,1321Q549,1213 682,1176Q754,1243 754,1327Q754,1378 728,1408Q702,1438 651,1438Z"  transform="translate(22708, 1100)"/>
<path d="M1047,541L1153,541Q1282,541 1357,472Q1432,403 1432,287Q1432,148 1338,74Q1244,0 1073,0L670,0L670,117L872,608L696,608Q613,575 500,575Q319,575 221,654Q123,732 123,881L123,1178Q123,1323 220,1403Q317,1483 498,1483Q677,1483 777,1403Q877,1322 877,1178L877,881Q877,803 848,743L1128,743L1047,541ZM500,713Q610,713 656,762Q702,810 702,913L702,1153Q702,1250 655,1298Q608,1346 498,1346Q392,1346 345,1298Q297,1250 297,1153L297,913Q297,810 345,762Q392,713 500,713ZM989,401L881,135L1038,135Q1144,135 1197,171Q1249,206 1249,281Q1249,401 1094,401L989,401Z"  transform="translate(23972, 1100)"/>
<path d="M256,0L549,727Q352,744 258,844Q164,944 164,1124L164,1462L350,1462L350,1130Q350,883 602,862L844,1462L1032,1462L444,0L256,0Z"  transform="translate(25399, 1100)"/>
<path d=""  transform="translate(26448, 1100)"/>
<path d="M799,729L1163,729L1204,410L1165,410Q1098,410 1050,461Q1001,512 989,594L799,594L799,0L612,0L612,1327L313,1327Q294,1257 246,1210Q198,1163 141,1163L102,1163L143,1462L1270,1462L1311,1163L1272,1163Q1215,1163 1166,1210Q1116,1257 1098,1327L799,1327L799,729Z"  transform="translate(26980, 1100)"/>
<path d="M848,1346L848,1223Q967,1203 1038,1123Q1108,1042 1108,924Q1108,766 993,667Q877,567 688,561Q751,487 835,457Q919,426 1071,426L1309,426L1350,106L1311,106Q1243,106 1195,158Q1147,210 1135,291L508,291Q416,291 373,268Q329,244 309,193Q289,142 289,53L289,0L102,0L102,47Q102,247 190,337Q278,426 459,426L594,426Q500,497 439,613Q377,728 377,844Q377,993 452,1093Q526,1193 662,1221L662,1346L375,1346Q355,1281 308,1242Q260,1202 203,1202L164,1202L197,1403L164,1604L203,1604Q259,1604 307,1565Q354,1526 375,1460L1141,1460Q1159,1524 1207,1564Q1255,1604 1313,1604L1352,1604L1319,1403L1352,1202L1313,1202Q1255,1202 1207,1243Q1158,1283 1141,1346L848,1346ZM768,1092Q674,1092 620,1030Q565,967 565,864Q565,812 578,768Q590,724 602,702Q767,704 847,755Q926,805 926,911Q926,989 882,1041Q838,1092 768,1092Z"  transform="translate(28393, 1100)"/>
<path d="M821,545Q821,783 779,894Q736,1005 635,1053Q533,1100 324,1100L293,1100Q270,1026 223,981Q175,936 121,936L82,936L123,1235L317,1235Q391,1235 459,1231Q374,1285 301,1381Q227,1476 203,1556L389,1556Q429,1458 480,1398Q530,1337 584,1317Q647,1342 692,1404Q736,1465 776,1556L963,1556Q925,1438 840,1342Q754,1245 655,1202Q822,1158 905,1045Q987,932 1004,725L1370,725L1411,426L1372,426Q1316,426 1268,471Q1220,516 1198,590L1008,590L1008,0L821,0L821,545Z"  transform="translate(29766, 1100)"/>
<path d="M1122,637Q1066,637 1018,682Q970,727 948,801L725,801L725,0L539,0L539,801L313,801Q295,732 248,685Q200,637 141,637L102,637L143,936L539,936L539,948Q539,1007 575,1059Q475,1076 412,1146Q348,1215 348,1309Q348,1431 428,1504Q507,1577 635,1577Q765,1577 842,1512Q918,1446 918,1333Q918,1206 816,1102Q755,1041 740,1012Q725,982 725,954L725,936L1120,936L1161,637L1122,637ZM633,1438Q588,1438 559,1404Q530,1369 530,1321Q530,1213 664,1176Q735,1242 735,1327Q735,1378 710,1408Q684,1438 633,1438Z"  transform="translate(31259, 1100)"/>
<path d="M293,0Q273,-71 224,-117Q175,-164 121,-164L82,-164L115,70L82,299L121,299Q175,299 224,254Q272,208 293,135L502,135L502,457L164,457L164,594Q164,1014 502,1112L502,1346L293,1346Q273,1281 226,1242Q178,1202 121,1202L82,1202L115,1403L82,1604L121,1604Q177,1604 225,1565Q272,1526 293,1460L897,1460Q919,1529 966,1567Q1013,1604 1069,1604L1108,1604L1075,1403L1108,1202L1069,1202Q1012,1202 965,1241Q918,1279 897,1346L688,1346L688,1141L716,1143L965,1143Q1112,1143 1189,1084Q1266,1024 1266,909Q1266,795 1187,730Q1107,664 963,664Q821,664 740,731Q659,798 659,909Q659,959 676,1001Q496,987 423,900Q350,813 350,610L350,594L688,594L688,0L293,0ZM965,1024Q906,1024 874,993Q842,961 842,907Q842,850 875,814Q907,778 963,778Q1018,778 1051,814Q1083,850 1083,907Q1083,962 1052,993Q1021,1024 965,1024Z"  transform="translate(32523, 1100)"/>
<path d="M246,1462Q408,1462 487,1422Q566,1382 604,1294Q641,1205 641,1047L641,860L1012,860L1012,1047Q1012,1203 1049,1293Q1086,1382 1165,1422Q1244,1462 1407,1462L1530,1462L1571,1163L1532,1163Q1476,1163 1427,1212Q1378,1260 1360,1327L1346,1327Q1262,1327 1230,1264Q1198,1201 1198,1065L1198,0L1012,0L1012,725L641,725L641,362L455,362L455,725L293,725Q270,649 223,605Q176,561 121,561L82,561L123,860L455,860L455,1065Q455,1204 422,1266Q389,1327 307,1327L293,1327Q270,1253 223,1208Q175,1163 121,1163L82,1163L123,1462L246,1462Z"  transform="translate(33871, 1100)"/>
<path d=""  transform="translate(35524, 1100)"/>
<path d="M1075,1604L1042,1403L1075,1202L1036,1202Q979,1202 932,1241Q885,1279 864,1346L672,1346L672,1059Q834,1019 917,886Q999,752 1008,541L1198,541Q1327,541 1402,472Q1477,403 1477,287Q1477,148 1383,74Q1289,0 1118,0L823,0L823,408Q823,644 780,756Q737,868 635,916Q532,963 324,963L293,963Q270,889 223,844Q175,799 121,799L82,799L123,1098L317,1098Q402,1098 485,1092L485,1346L293,1346Q273,1281 226,1242Q178,1202 121,1202L82,1202L115,1403L82,1604L121,1604Q177,1604 225,1565Q272,1526 293,1460L864,1460Q886,1529 933,1567Q980,1604 1036,1604L1075,1604ZM1010,401L1010,135L1083,135Q1189,135 1242,171Q1294,206 1294,281Q1294,401 1139,401L1010,401Z"  transform="translate(36056, 1100)"/>
<path d="M434,0L434,193Q434,353 404,473Q374,593 309,709L254,809Q154,989 154,1130Q154,1294 251,1389Q348,1483 508,1483Q686,1483 784,1393Q881,1303 881,1137Q881,979 773,874Q665,769 494,754Q566,604 594,483Q621,362 621,225L621,0L434,0ZM516,1343Q435,1343 386,1289Q336,1234 336,1143Q336,1010 428,883Q562,899 630,965Q698,1031 698,1139Q698,1231 649,1287Q599,1343 516,1343Z"  transform="translate(37488, 1100)"/>
<path d="M776,0L590,0L590,489Q352,489 227,571Q102,652 102,817Q102,989 224,1067Q345,1145 590,1145L590,1462L776,1462L776,1145Q1019,1145 1142,1066Q1264,986 1264,817Q1264,656 1137,573Q1010,489 776,489L776,0ZM590,1010Q436,1010 361,966Q285,922 285,819Q285,742 316,703Q347,664 414,645Q481,625 590,625L590,1010ZM776,625Q934,625 1008,669Q1081,713 1081,817Q1081,918 1006,964Q931,1010 776,1010L776,625Z"  transform="translate(38522, 1100)"/>
<path d="M164,590Q164,944 323,1105Q481,1266 809,1266L1085,1266L1085,1171Q1148,1215 1236,1241Q1323,1266 1403,1266Q1581,1266 1705,1183Q1829,1100 1882,942L2054,942Q2183,942 2258,873Q2333,804 2333,688Q2333,549 2239,475Q2145,401 1974,401L1720,401L1720,690Q1720,910 1634,1006Q1547,1102 1343,1102Q1279,1102 1203,1079Q1127,1056 1085,1022L1085,717L1237,717L1237,541L1384,541Q1513,541 1588,472Q1663,403 1663,287Q1663,149 1571,75Q1478,0 1305,0L1051,0L1051,582L899,582L899,1102Q697,1102 588,1065Q478,1028 420,942L498,942Q626,942 701,874Q776,806 776,688Q776,550 684,476Q591,401 418,401L164,401L164,590ZM1653,1720L1620,1520L1653,1319L1614,1319Q1552,1319 1505,1362Q1458,1404 1442,1462L676,1462Q657,1400 611,1360Q564,1319 504,1319L465,1319L498,1520L465,1720L504,1720Q563,1720 610,1680Q656,1640 676,1577L1442,1577Q1459,1637 1506,1679Q1552,1720 1614,1720L1653,1720ZM1905,803L1907,776L1907,537L1939,537Q2045,537 2098,572Q2150,607 2150,682Q2150,803 1995,803L1905,803ZM1237,401L1237,135L1270,135Q1376,135 1429,171Q1481,206 1481,281Q1481,401 1325,401L1237,401ZM367,803Q350,728 350,610L350,537L383,537Q489,537 542,572Q594,607 594,682Q594,803 438,803L367,803Z"  transform="translate(39888, 1100)"/>
<path d="M289,0L102,0Q106,567 438,807Q320,860 258,946Q195,1031 195,1141Q195,1302 292,1393Q389,1483 555,1483Q658,1483 735,1446Q811,1409 857,1343Q902,1276 911,1190L1196,1190L1237,891L1198,891Q1142,891 1094,936Q1046,981 1024,1055L897,1055Q877,986 822,921Q767,855 645,766Q832,699 930,535Q1028,371 1028,125L1028,0L842,0L842,94Q842,346 759,485Q675,624 512,666Q413,577 375,492Q289,305 289,0ZM569,903Q644,953 673,987Q702,1020 717,1061Q731,1102 731,1155Q731,1242 682,1294Q632,1346 549,1346Q467,1346 418,1292Q369,1237 369,1147Q369,1055 421,993Q473,930 569,903Z"  transform="translate(42303, 1100)"/>
<path d="M725,541L1120,541L1161,242L1122,242Q1066,242 1018,287Q970,332 948,406L725,406L725,0L539,0L539,942L313,942Q295,873 248,826Q200,778 141,778L102,778L143,1077L539,1077L539,1462L725,1462L725,1077L1120,1077L1161,778L1122,778Q1066,778 1018,823Q970,868 948,942L725,942L725,541Z"  transform="translate(43622, 1100)"/>
</svg>
