<svg xmlns="http://www.w3.org/2000/svg" viewBox="0 0 43351 3789" transform="translate(0, 3789) scale(1, -1)">
<path d="M1004,1243L1004,993Q1176,981 1317,891Q1458,801 1545,642Q1631,483 1636,303L1804,303L1804,201L102,201L102,303L268,303Q271,562 446,768Q621,974 901,993L901,1243L1004,1243ZM102,102L1804,102L1804,0L102,0L102,102ZM1534,303Q1526,528 1380,700Q1234,872 1004,891L1004,756Q1189,738 1290,608Q1390,478 1399,303L1534,303ZM901,891Q667,872 521,696Q374,520 371,303L506,303Q506,392 552,503Q597,613 688,680Q779,747 901,758L901,891ZM901,653Q761,638 685,529Q608,420 608,303L743,303Q746,383 789,440Q832,497 901,512L901,653ZM1296,303Q1285,451 1209,544Q1132,637 1004,653L1004,512Q1072,497 1115,440Q1158,382 1161,303L1296,303ZM846,303L1059,303Q1056,355 1028,386Q999,416 952,416Q905,416 877,387Q849,357 846,303Z"  transform="translate(0, 1100)"/>
<path d="M453,694Q465,610 465,467L465,0L281,0L281,795L467,889L1014,410L897,281L664,479Q598,538 562,575Q526,612 453,694ZM1014,1485L1014,1292L281,922L281,1114L1014,1485ZM867,999Q895,968 895,915Q895,862 866,832Q836,801 791,801Q746,801 715,829Q684,857 684,915Q684,975 715,1003Q746,1030 791,1030Q839,1030 867,999Z"  transform="translate(1907, 1100)"/>
<path d="M764,682L166,682L166,961Q166,1210 285,1348Q404,1485 614,1485Q858,1485 980,1321Q1102,1156 1102,819Q1102,629 1072,409Q1041,188 989,0L809,0Q920,449 920,819Q920,1079 841,1208Q762,1337 614,1337Q486,1337 417,1235Q348,1133 348,950L348,844L764,844L764,682Z"  transform="translate(3136, 1100)"/>
<path d="M356,0L174,0L174,1462L356,1462L356,0ZM455,1087L455,1260L1010,1485L1010,1313L455,1087ZM455,752L455,924L1010,1151L1010,979L455,752Z"  transform="translate(4404, 1100)"/>
<path d="M184,1221L1157,1221L1157,248L184,248L184,1221ZM563,330L778,330L778,694L563,694L563,330ZM860,1139L860,776L1075,776L1075,1139L860,1139ZM266,776L481,776L481,1139L266,1139L266,776ZM860,477L1075,477L1075,545L860,545L860,477ZM860,627L1075,627L1075,694L860,694L860,627ZM266,477L481,477L481,545L266,545L266,477ZM266,627L481,627L481,694L266,694L266,627ZM563,924L778,924L778,991L563,991L563,924ZM266,330L481,330L481,395L266,395L266,330ZM1075,330L1075,395L860,395L860,330L1075,330ZM563,776L778,776L778,842L563,842L563,776ZM563,1073L778,1073L778,1139L563,1139L563,1073Z"  transform="translate(5496, 1100)"/>
<path d="M1189,1191Q1356,1101 1450,950Q1544,799 1544,629Q1544,457 1450,307Q1355,156 1187,68Q1019,-20 823,-20Q628,-20 461,68Q293,155 198,306Q102,456 102,629Q102,801 198,952Q293,1102 460,1191Q626,1280 823,1280Q1022,1280 1189,1191ZM1132,156Q1276,229 1359,356Q1442,483 1442,629Q1442,855 1260,1017Q1077,1178 823,1178Q569,1178 387,1017Q205,855 205,629Q205,404 388,243Q570,82 823,82Q987,82 1132,156ZM1249,506Q1171,562 1064,594Q956,625 831,625Q694,625 593,596Q491,566 397,506L317,557Q354,736 488,843Q622,950 817,950Q1023,950 1157,844Q1291,738 1329,557L1249,506ZM1196,647Q1145,743 1047,796Q949,848 819,848Q570,848 449,647Q551,692 633,710Q715,727 815,727Q1030,727 1196,647Z"  transform="translate(6837, 1100)"/>
<path d=""  transform="translate(8484, 1100)"/>
<path d="M731,1317L731,551Q976,541 1117,451Q1257,361 1257,211Q1257,98 1187,39Q1116,-20 985,-20Q792,-20 680,162Q617,65 544,23Q470,-20 375,-20Q242,-20 172,41Q102,101 102,211Q102,362 243,452Q384,541 629,551L629,1317L731,1317Z"  transform="translate(9016, 1100)"/>
<path d="M1004,29L885,457Q798,418 711,412L711,-68L608,-68L608,412Q516,418 434,457L315,29L217,55L342,508Q231,584 167,706Q102,827 102,967Q102,1115 177,1245Q252,1375 382,1450Q512,1524 659,1524Q807,1524 937,1450Q1067,1375 1142,1246Q1217,1116 1217,967Q1217,828 1151,705Q1085,582 977,508L1102,55L1004,29ZM980,647Q1114,781 1114,967Q1114,1154 979,1288Q844,1421 659,1421Q473,1421 339,1288Q205,1154 205,967Q205,783 338,648Q471,512 659,512Q845,512 980,647ZM817,1123Q881,1058 881,967Q881,875 816,810Q751,745 659,745Q568,745 503,810Q438,875 438,967Q438,1059 503,1124Q567,1188 659,1188Q753,1188 817,1123ZM743,883Q778,918 778,967Q778,1015 743,1050Q708,1085 659,1085Q611,1085 576,1050Q541,1015 541,967Q541,918 577,883Q612,848 659,848Q707,848 743,883ZM706,1349Q725,1330 725,1303Q725,1275 706,1256Q687,1237 659,1237Q632,1237 613,1256Q594,1275 594,1303Q594,1330 613,1349Q632,1368 659,1368Q687,1368 706,1349ZM706,678Q725,659 725,631Q725,603 706,584Q687,565 659,565Q632,565 613,584Q594,603 594,631Q594,659 613,678Q632,696 659,696Q687,696 706,678ZM987,1184Q1006,1165 1006,1137Q1006,1109 987,1090Q968,1071 940,1071Q912,1071 893,1090Q874,1109 874,1137Q874,1165 893,1184Q912,1202 940,1202Q968,1202 987,1184ZM426,1184Q444,1165 444,1137Q444,1109 426,1090Q407,1071 379,1071Q351,1071 332,1090Q313,1109 313,1137Q313,1165 332,1184Q351,1202 379,1202Q407,1202 426,1184ZM426,844Q444,825 444,797Q444,769 426,750Q407,731 379,731Q351,731 332,750Q313,769 313,797Q313,825 332,844Q351,862 379,862Q407,862 426,844ZM987,844Q1006,825 1006,797Q1006,769 987,750Q968,731 940,731Q912,731 893,750Q874,769 874,797Q874,825 893,844Q912,862 940,862Q968,862 987,844Z"  transform="translate(10376, 1100)"/>
<path d="M785,1430Q903,1311 903,1147Q903,995 803,882Q702,768 553,750L553,-68L451,-68L451,750Q302,768 202,882Q102,996 102,1147Q102,1311 220,1430Q337,1548 502,1548Q667,1548 785,1430ZM639,1108L776,1028Q801,1092 801,1147Q801,1212 776,1266L639,1186Q645,1168 645,1147Q645,1126 639,1108ZM537,1286Q576,1273 604,1245L739,1325Q704,1373 651,1405Q598,1436 537,1444L537,1286ZM227,1030L362,1108Q358,1120 358,1147Q358,1168 365,1188L229,1266Q205,1210 205,1147Q205,1085 227,1030ZM604,1047Q576,1019 537,1008L537,852Q598,860 651,891Q704,921 739,969L604,1047ZM467,1008Q428,1018 399,1047L262,969Q297,921 351,891Q404,860 467,852L467,1008ZM399,1247Q428,1276 467,1286L467,1444Q404,1436 352,1405Q299,1373 264,1325L399,1247ZM554,1095Q575,1116 575,1147Q575,1178 554,1200Q533,1221 502,1221Q471,1221 450,1200Q428,1178 428,1147Q428,1116 450,1095Q471,1073 502,1073Q533,1073 554,1095Z"  transform="translate(11695, 1100)"/>
<path d="M1120,78Q1263,122 1334,168Q1405,214 1427,266L1409,264L1391,264Q1311,264 1257,307Q1202,350 1202,410Q1202,456 1238,488Q1274,520 1348,520Q1403,520 1449,496Q1495,472 1520,424Q1550,464 1550,516Q1550,541 1542,573Q1479,539 1407,539Q1334,539 1294,569Q1253,599 1253,653Q1253,703 1293,736Q1333,768 1395,768Q1478,768 1542,733L1544,758Q1544,809 1511,848Q1455,776 1348,776Q1279,776 1234,808Q1188,840 1188,895Q1188,946 1232,979Q1275,1012 1339,1012Q1400,1012 1454,995Q1451,1058 1400,1101Q1348,1143 1264,1143L1202,1139Q1208,1104 1208,1069Q1208,989 1169,942Q1130,895 1061,895Q1010,895 975,929Q940,962 940,1022Q940,1073 979,1122Q1018,1170 1081,1202Q1032,1274 913,1274Q878,1274 844,1268Q870,1217 870,1149Q870,1074 832,1027Q794,979 733,979Q675,979 639,1023Q602,1067 602,1141Q602,1216 657,1276Q625,1284 561,1284Q476,1284 425,1232Q373,1179 373,1102Q373,1068 377,1040Q437,1049 463,1049Q546,1049 605,1008Q664,966 664,907Q664,849 620,813Q576,776 502,776Q443,776 389,810Q334,844 303,918Q254,892 230,853Q205,814 205,774Q205,723 238,678Q312,750 406,750Q471,750 515,715Q559,680 559,629Q559,502 395,502Q326,502 262,539Q252,505 252,467Q252,396 294,354Q335,312 410,303Q406,319 406,354Q406,428 445,471Q484,514 545,514Q602,514 638,474Q674,434 674,377Q674,327 644,287Q614,246 561,223Q627,172 748,172Q829,172 881,206Q933,239 946,307Q896,283 844,283Q768,283 725,321Q682,358 682,418Q682,478 730,516Q778,553 850,553Q932,553 995,492Q1006,523 1006,553Q1006,568 997,604Q921,567 846,567Q781,567 742,599Q702,630 702,686Q702,743 744,775Q786,807 860,807Q894,807 937,790Q979,773 1016,741Q1032,757 1063,805L1153,752Q1128,709 1081,662Q1108,614 1108,553Q1108,464 1049,387L1053,344Q1053,217 972,144Q891,70 748,70Q642,70 569,106Q495,142 455,201L438,201Q305,201 228,272Q150,343 150,467Q150,543 180,602Q102,680 102,774Q102,842 149,907Q196,971 276,1010Q270,1049 270,1102Q270,1218 348,1302Q425,1386 561,1386Q684,1386 762,1346Q836,1376 913,1376Q1010,1376 1074,1336Q1137,1296 1169,1233Q1215,1245 1264,1245Q1399,1245 1478,1171Q1556,1096 1556,991Q1556,966 1552,944Q1647,870 1647,758Q1647,705 1620,653Q1653,596 1653,516Q1653,457 1623,403Q1593,348 1542,313Q1538,207 1454,128Q1370,49 1149,-20L1120,78ZM934,408Q906,461 844,461Q809,461 792,449Q774,436 774,416Q774,396 794,386Q813,375 844,375Q895,375 934,408ZM399,950Q439,868 518,868Q571,868 571,903Q571,924 541,939Q510,954 463,954Q431,954 399,950ZM750,1233Q694,1197 694,1135Q694,1103 706,1087Q717,1071 731,1071Q751,1071 765,1091Q778,1111 778,1151Q778,1201 750,1233ZM309,616Q351,594 395,594Q467,594 467,631Q467,657 412,657Q352,657 309,616ZM1114,1112Q1032,1074 1032,1018Q1032,1004 1040,996Q1048,987 1061,987Q1089,987 1103,1014Q1116,1040 1116,1075L1114,1112ZM1434,360Q1421,391 1393,410Q1365,428 1333,428Q1294,428 1294,406Q1294,390 1323,373Q1351,356 1391,356Q1419,356 1434,360ZM502,309Q582,332 582,385Q582,401 573,412Q564,422 547,422Q531,422 515,406Q498,389 498,354Q498,324 502,309ZM940,682Q899,717 852,717Q795,717 795,686Q795,672 810,666Q825,659 842,659Q894,659 940,682ZM1430,905Q1383,920 1339,920Q1318,920 1300,914Q1282,908 1282,897Q1282,883 1301,876Q1320,868 1348,868Q1404,868 1430,905ZM1485,651Q1447,676 1393,676Q1376,676 1363,671Q1350,665 1350,655Q1350,631 1407,631Q1452,631 1485,651Z"  transform="translate(12701, 1100)"/>
<path d="M102,215Q222,369 271,488Q319,606 319,737Q319,937 201,1139L201,1210L764,1704L836,1704L1204,1305L1178,1239Q1048,1202 977,1125Q905,1048 905,946Q905,806 1008,696L1008,625L510,-156L438,-156L102,143L102,215ZM307,1163Q376,1048 403,911L666,997L420,1264L307,1163ZM668,281L874,604L510,471L668,281ZM754,1554L477,1313L821,1292L754,1554ZM395,537L717,657L416,836Q422,789 422,737Q422,626 395,537ZM465,-41L629,217L260,143L465,-41ZM887,674Q807,781 803,934L573,862L887,674ZM375,471Q339,378 254,246L522,299L375,471ZM805,995Q817,1104 889,1182L627,1200L805,995ZM868,1520L942,1233Q994,1278 1067,1303L868,1520Z"  transform="translate(14456, 1100)"/>
<path d="M1128,909Q1303,999 1466,999Q1607,999 1703,924Q1798,848 1798,731Q1798,615 1704,539Q1610,463 1468,463Q1299,463 1128,551Q1219,386 1219,219Q1219,71 1143,-24Q1066,-119 950,-119Q835,-119 759,-24Q682,70 682,215Q682,317 709,400Q736,483 770,551Q599,463 438,463Q294,463 198,538Q102,613 102,731Q102,847 197,923Q291,999 434,999Q600,999 770,909Q736,977 709,1061Q682,1144 682,1247Q682,1392 759,1487Q835,1581 950,1581Q1066,1581 1143,1487Q1219,1392 1219,1249Q1219,1072 1128,909ZM1069,51Q1116,118 1116,217Q1116,410 950,651Q784,410 784,215Q784,117 832,51Q879,-16 950,-16Q1021,-16 1069,51ZM872,731Q722,829 621,863Q520,897 434,897Q337,897 271,850Q205,802 205,731Q205,660 271,613Q337,565 436,565Q631,565 872,731ZM1629,850Q1562,897 1462,897Q1273,897 1028,731Q1269,565 1473,565Q1565,565 1631,613Q1696,661 1696,731Q1696,802 1629,850ZM950,811Q1030,924 1073,1040Q1116,1155 1116,1253Q1116,1347 1069,1413Q1021,1479 950,1479Q878,1479 831,1411Q784,1343 784,1243Q784,1052 950,811Z"  transform="translate(15763, 1100)"/>
<path d=""  transform="translate(17664, 1100)"/>
<path d="M813,1522L1450,885L1376,811L827,1360L827,807L1231,807L1231,705L827,705L827,541L1231,541L1231,438L827,438L827,274L1231,274L1231,172L827,172L827,-80L725,-80L725,172L322,172L322,274L725,274L725,438L322,438L322,541L725,541L725,705L322,705L322,807L725,807L725,1360L176,811L102,885L741,1522L813,1522Z"  transform="translate(18196, 1100)"/>
<path d="M387,1130Q244,1161 173,1224Q102,1287 102,1362Q102,1511 248,1511Q329,1511 390,1434Q450,1356 475,1223Q602,1200 795,1200Q962,1200 1106,1223Q1132,1362 1193,1437Q1253,1511 1333,1511Q1479,1511 1479,1362Q1479,1285 1408,1223Q1337,1161 1194,1130Q1169,973 1169,723Q1169,481 1194,324Q1337,293 1408,231Q1479,168 1479,92Q1479,-57 1333,-57Q1253,-57 1193,18Q1132,92 1106,231Q980,254 795,254Q601,254 475,231Q449,92 389,18Q328,-57 248,-57Q102,-57 102,92Q102,170 173,232Q244,293 387,324Q412,478 412,725Q412,973 387,1130ZM487,336Q604,356 795,356Q977,356 1094,336Q1067,506 1067,723Q1067,948 1094,1118Q977,1098 795,1098Q604,1098 487,1118Q514,948 514,725Q514,506 487,336ZM604,981L977,981L977,473L604,473L604,981ZM707,575L874,575L874,879L707,879L707,575ZM365,207Q205,164 205,92Q205,45 248,45Q322,45 365,207ZM1217,1247Q1376,1294 1376,1362Q1376,1409 1333,1409Q1259,1409 1217,1247ZM1217,207Q1260,45 1333,45Q1376,45 1376,92Q1376,160 1217,207ZM365,1247Q322,1409 248,1409Q205,1409 205,1362Q205,1291 365,1247Z"  transform="translate(19748, 1100)"/>
<path d="M199,0L199,1462L383,1462L383,160L1022,160L1022,0L199,0ZM776,571Q807,543 807,484Q807,425 776,397Q744,369 702,369Q657,369 627,397Q596,425 596,484Q596,543 627,571Q657,598 702,598Q744,598 776,571Z"  transform="translate(21329, 1100)"/>
<path d="M803,1720Q928,1720 1008,1648Q1087,1576 1087,1458Q1087,1381 1048,1320Q1009,1259 944,1227Q1038,1131 1038,995Q1038,921 1011,860Q984,798 936,756Q976,728 999,684Q1022,640 1022,588Q1022,491 948,428Q1022,365 1022,268Q1022,172 948,109Q1022,48 1022,-49Q1022,-144 959,-202Q895,-260 782,-260L102,-260L102,-158L782,-158Q920,-158 920,-49Q920,2 886,30Q852,57 793,57L504,57L504,160L793,160Q852,160 886,191Q920,222 920,268Q920,317 884,347Q848,377 788,377L504,377L504,479L788,479Q852,479 886,508Q920,537 920,588Q920,694 774,694L260,694L260,797L578,797Q508,871 508,995Q508,1123 587,1212Q665,1300 772,1300L803,1300Q885,1300 935,1343Q985,1385 985,1458Q985,1524 936,1571Q887,1618 799,1618L418,1618L418,1720L803,1720ZM887,854Q936,912 936,995Q936,1077 888,1138Q839,1198 772,1198Q704,1198 657,1139Q610,1079 610,995Q610,911 658,853Q706,795 772,795Q838,795 887,854Z"  transform="translate(22402, 1100)"/>
<path d="M510,287Q523,405 580,625L799,1462L989,1462L811,803L1333,803L1333,641L768,641L598,0L420,0L33,1462L221,1462L440,612Q463,519 482,440Q501,361 510,287ZM1174,504Q1202,473 1202,420Q1202,366 1173,336Q1144,305 1098,305Q1053,305 1022,333Q991,361 991,420Q991,480 1022,508Q1053,535 1098,535Q1146,535 1174,504ZM1174,1108Q1202,1077 1202,1024Q1202,970 1173,940Q1144,909 1098,909Q1053,909 1022,937Q991,965 991,1024Q991,1084 1022,1112Q1053,1139 1098,1139Q1146,1139 1174,1108Z"  transform="translate(23674, 1100)"/>
<path d="M477,621L477,702L154,702L154,805L477,805L477,885Q316,903 209,1023Q102,1143 102,1309Q102,1487 227,1611Q351,1735 528,1735Q705,1735 830,1611Q954,1486 954,1309Q954,1145 847,1024Q740,902 580,885L580,805L903,805L903,702L580,702L580,621Q741,603 848,482Q954,361 954,199Q954,21 830,-103Q706,-227 528,-227Q352,-227 227,-103Q102,20 102,199Q102,362 210,483Q317,603 477,621ZM758,1079Q852,1173 852,1309Q852,1445 758,1539Q663,1632 528,1632Q393,1632 299,1538Q205,1444 205,1309Q205,1174 299,1080Q392,985 528,985Q664,985 758,1079ZM758,-31Q852,63 852,199Q852,335 758,429Q663,522 528,522Q393,522 299,428Q205,334 205,199Q205,64 299,-30Q392,-125 528,-125Q664,-125 758,-31ZM679,1460Q741,1398 741,1309Q741,1220 679,1158Q617,1096 528,1096Q439,1096 377,1158Q315,1220 315,1309Q315,1398 377,1460Q439,1522 528,1522Q617,1522 679,1460ZM679,350Q741,288 741,199Q741,110 679,48Q617,-14 528,-14Q439,-14 377,48Q315,110 315,199Q315,288 377,350Q439,412 528,412Q617,412 679,350ZM607,120Q639,152 639,199Q639,245 607,277Q575,309 528,309Q482,309 450,277Q418,245 418,199Q418,152 450,120Q482,88 528,88Q575,88 607,120ZM607,1230Q639,1262 639,1309Q639,1355 607,1387Q575,1419 528,1419Q482,1419 450,1387Q418,1355 418,1309Q418,1262 450,1230Q482,1198 528,1198Q575,1198 607,1230Z"  transform="translate(25089, 1100)"/>
<path d=""  transform="translate(26146, 1100)"/>
<path d="M543,1583L672,1454L801,1583L874,1509L723,1358L723,1276Q791,1286 870,1286L1018,1286L1167,1427L1241,1354L1112,1235L1241,1116L1167,1042L1018,1184L870,1184Q788,1184 723,1171L723,872Q780,862 870,862L1018,862L1167,1004L1241,930L1112,811L1241,692L1167,618L1018,760L870,760Q777,760 723,768L723,686Q844,651 913,588Q981,524 981,449Q981,373 915,313Q848,253 723,221L723,80L874,-72L801,-145L672,-16L543,-145L469,-72L621,80L621,201Q565,193 473,193L324,193L176,51L102,125L231,244L102,362L176,436L324,295L473,295Q563,295 621,305L621,604Q552,616 473,616L324,616L176,475L102,549L231,668L102,786L176,860L324,719L473,719Q551,719 621,709L621,788Q496,820 429,880Q362,940 362,1016Q362,1091 430,1154Q498,1217 621,1253L621,1358L469,1509L543,1583ZM723,578L723,328Q794,349 837,381Q879,413 879,449Q879,484 837,519Q794,553 723,578ZM621,895L621,1145Q548,1120 507,1086Q465,1051 465,1016Q465,981 507,949Q548,917 621,895Z"  transform="translate(26678, 1100)"/>
<path d="M164,1260L485,1020Q610,1174 788,1174Q988,1174 1112,993Q1235,812 1235,555L1235,467L1534,246L1473,164L1235,340L1235,0L1133,0L1133,416L512,872Q444,730 444,555L444,0L342,0L342,555Q342,768 430,934L102,1178L164,1260ZM567,961L1133,543L1133,555Q1133,768 1038,920Q942,1071 788,1071Q658,1071 567,961Z"  transform="translate(28021, 1100)"/>
<path d="M164,1014L463,782L971,782L971,1284L457,1284L164,1057L102,1139L289,1284L113,1284L113,1386L289,1386L102,1532L164,1614L457,1386L1073,1386L1073,76L457,76L164,-152L102,-70L289,76L113,76L113,178L289,178L102,324L164,406L457,178L971,178L971,680L453,680L164,457L102,539L283,680L113,680L113,782L293,782L102,932L164,1014Z"  transform="translate(29657, 1100)"/>
<path d="M637,885L637,653L694,653Q828,653 902,592Q975,531 975,422Q975,320 908,252Q840,184 739,184Q674,184 637,205L637,166L913,-119L840,-188L586,72L332,-188L258,-119L535,166L535,551Q354,555 266,617Q178,678 178,803Q178,901 225,987Q170,1032 136,1098Q102,1163 102,1241Q102,1376 196,1470Q290,1563 422,1563Q558,1563 651,1469Q743,1374 743,1241Q743,1109 650,1016Q556,922 422,922Q367,922 317,938Q281,879 281,803Q281,723 341,689Q400,655 535,653L535,885L637,885ZM578,1087Q641,1149 641,1241Q641,1333 578,1397Q514,1460 422,1460Q330,1460 268,1396Q205,1332 205,1241Q205,1150 268,1087Q330,1024 422,1024Q514,1024 578,1087ZM637,551L637,305Q664,287 737,287Q797,287 835,325Q872,362 872,422Q872,551 694,551L637,551Z"  transform="translate(30914, 1100)"/>
<path d="M1004,0L1004,649Q1004,843 900,981Q796,1118 645,1118Q493,1118 390,989Q287,860 287,649L287,0L184,0L184,649Q184,908 317,1065Q450,1221 645,1221Q839,1221 973,1053Q1106,884 1106,649L1106,0L1004,0Z"  transform="translate(31991, 1100)"/>
<path d="M1014,453L1014,350L1217,350L1217,248L1014,248L1014,154L1217,154L1217,51L1014,51L1014,-43L1217,-43L1217,-145L911,-145L911,334L610,170L184,170L184,1317L610,1317L911,1153L911,1632L1217,1632L1217,1530L1014,1530L1014,1436L1217,1436L1217,1333L1014,1333L1014,1239L1217,1239L1217,1137L1014,1137L1014,1034L944,1034L610,1212L610,995L805,995L805,893L610,893L610,799L946,799L946,696L610,696L610,602L805,602L805,500L610,500L610,274L944,453L1014,453ZM287,272L508,272L508,1214L287,1214L287,272Z"  transform="translate(33281, 1100)"/>
<path d=""  transform="translate(34600, 1100)"/>
<path d="M981,0L287,385L287,0L184,0L184,522L248,522L494,385L494,967L248,836L184,836L184,1397L287,1397L287,971L494,1083L494,1573L565,1573Q656,1573 769,1489Q881,1404 881,1309Q881,1244 844,1195Q806,1145 727,1100L678,1071Q813,1003 893,896Q973,789 973,668Q973,553 920,468Q866,382 686,279L1030,90L981,0ZM596,995L596,342Q763,432 817,499Q870,566 870,668Q870,767 797,855Q723,943 596,995ZM596,1139L698,1200Q742,1226 760,1249Q778,1271 778,1300Q778,1344 722,1394Q665,1443 596,1462L596,1139Z"  transform="translate(35132, 1100)"/>
<path d="M82,1047L136,1067Q191,1088 260,1102Q328,1116 401,1116Q535,1116 631,1077Q727,1037 782,971L786,971L782,1126L782,1462L967,1462L967,0L782,0Q782,101 786,209L782,209Q701,121 596,78Q490,34 344,31L303,195Q495,195 639,305Q782,414 782,586Q782,759 678,855Q573,950 389,950Q266,950 167,904L123,885L82,1047Z"  transform="translate(36265, 1100)"/>
<path d="M285,293Q184,338 184,442Q184,526 241,570Q298,613 422,623L422,809Q184,824 184,991Q184,1039 210,1079Q236,1118 285,1139Q213,1213 213,1321Q213,1430 288,1506Q363,1581 473,1581Q582,1581 658,1506Q733,1431 733,1321Q733,1226 675,1155Q617,1084 524,1065L524,909Q684,905 760,859Q836,813 836,717Q836,623 763,575Q690,527 524,524L524,367Q618,348 676,278Q733,207 733,113Q733,3 658,-72Q583,-147 473,-147Q365,-147 289,-72Q213,2 213,113Q213,219 285,293ZM585,1Q631,47 631,113Q631,176 587,223Q542,270 473,270Q404,270 360,223Q315,176 315,113Q315,47 361,1Q407,-45 473,-45Q539,-45 585,1ZM585,1209Q631,1255 631,1321Q631,1387 585,1433Q539,1479 473,1479Q407,1479 361,1433Q315,1387 315,1321Q315,1255 361,1209Q407,1163 473,1163Q539,1163 585,1209ZM524,807L524,627Q733,633 733,717Q733,801 524,807ZM422,369L422,522Q287,511 287,442Q287,411 323,392Q358,372 422,369ZM422,911L422,1065Q361,1062 324,1043Q287,1023 287,991Q287,957 319,938Q350,918 422,911ZM520,1368Q539,1349 539,1321Q539,1293 520,1274Q501,1255 473,1255Q445,1255 427,1274Q408,1293 408,1321Q408,1349 427,1368Q445,1386 473,1386Q501,1386 520,1368ZM520,160Q539,141 539,113Q539,85 520,66Q501,47 473,47Q445,47 427,66Q408,85 408,113Q408,141 427,160Q445,178 473,178Q501,178 520,160Z"  transform="translate(37430, 1100)"/>
<path d="M195,0L0,0L522,1462L707,1462L1229,0L1036,0L707,938Q647,1109 614,1257Q584,1105 522,934L195,0Z"  transform="translate(38368, 1100)"/>
<path d="M184,1343L1528,1343L1528,0L184,0L184,1343ZM649,102L1063,102L1063,465L649,465L649,102ZM1064,465L1426,465L1426,879L1064,879L1064,465ZM1063,1241L649,1241L649,879L1063,879L1063,1241ZM648,879L286,879L286,465L648,465L648,879Z"  transform="translate(39597, 1100)"/>
<path d="M1401,618L1020,1331L639,618Q716,570 761,491Q805,412 805,322Q805,176 702,74Q598,-29 453,-29Q309,-29 206,74Q102,176 102,322Q102,467 206,571Q309,674 453,674Q498,674 545,662L983,1483L1055,1483L1495,662Q1538,674 1587,674Q1733,674 1836,572Q1939,469 1939,322Q1939,176 1836,74Q1732,-29 1587,-29Q1442,-29 1340,74Q1237,176 1237,322Q1237,416 1282,494Q1327,572 1401,618ZM1764,147Q1837,219 1837,322Q1837,424 1764,498Q1690,571 1587,571Q1483,571 1411,498Q1339,425 1339,322Q1339,219 1411,147Q1483,74 1587,74Q1690,74 1764,147ZM629,146Q702,218 702,322Q702,425 629,498Q556,571 453,571Q349,571 277,498Q205,425 205,322Q205,219 277,147Q349,74 453,74Q555,74 629,146ZM1651,386Q1677,359 1677,322Q1677,284 1651,259Q1624,233 1587,233Q1550,233 1525,259Q1499,284 1499,322Q1499,359 1525,386Q1550,412 1587,412Q1624,412 1651,386ZM517,386Q543,359 543,322Q543,284 517,259Q490,233 453,233Q415,233 390,259Q365,284 365,322Q365,359 390,386Q415,412 453,412Q490,412 517,386Z"  transform="translate(41309, 1100)"/>
</svg>
