<svg xmlns="http://www.w3.org/2000/svg" viewBox="0 0 31197 3789" transform="translate(0, 3789) scale(1, -1)">
<path d="M160,0L473,829Q285,1044 258,1298L410,1298Q432,1112 530,983Q643,1298 899,1298Q1034,1298 1123,1207Q1212,1116 1212,971Q1212,834 1112,736Q1012,637 866,637Q729,637 600,717L328,0L160,0ZM905,1159Q813,1159 756,1074Q698,989 651,852Q739,776 860,776Q956,776 1011,838Q1065,899 1065,985Q1065,1067 1019,1113Q973,1159 905,1159Z"  transform="translate(0, 1100)"/>
<path d="M1071,1217L522,741L1071,741L1071,623L436,0L236,0L842,602L264,602L264,707Q668,1059 748,1120Q666,1108 614,1108Q395,1108 240,1169L293,1298Q422,1266 505,1259Q588,1251 680,1251Q895,1251 1071,1298L1071,1217Z"  transform="translate(1284, 1100)"/>
<path d="M547,254L655,389L782,535L1487,1298L1649,1298L1350,0L1186,0L1374,811L1432,1044Q1405,1010 1327,921Q1249,831 492,0L330,0L590,1128L84,881L127,1065L524,1260Q602,1300 670,1300Q717,1300 738,1269Q758,1237 758,1200Q758,1141 741,1061Q723,981 690,842L586,403Q569,324 547,254Z"  transform="translate(2351, 1100)"/>
<path d="M1245,1044Q1219,1010 1141,921Q1063,831 305,0L143,0L442,1298L606,1298L399,403Q383,324 360,254L469,389L596,535L1300,1298L1462,1298Q1229,279 1204,190L1493,303Q1538,324 1587,324Q1698,324 1698,172Q1698,59 1631,-78Q1563,-215 1444,-338L1339,-248Q1550,8 1550,166L1104,0L999,0L1188,811L1245,1044Z"  transform="translate(4143, 1100)"/>
<path d="M1104,289Q1317,432 1420,516Q1522,600 1606,678L1708,569Q1475,350 1192,170L1104,289ZM483,190Q727,373 1037,665Q1346,956 1653,1298L1849,1298Q967,324 449,0L287,0L555,1133L100,909L143,1096L483,1260Q565,1298 629,1298Q676,1298 697,1268Q717,1237 717,1200Q717,1149 678,983L549,442L483,190Z"  transform="translate(5970, 1100)"/>
<path d="M442,1298L606,1298L406,442L340,190Q584,373 893,665Q1202,956 1509,1298L1706,1298Q1284,840 1069,629L1462,197L1354,98L958,526Q606,193 305,0L143,0L442,1298Z"  transform="translate(7764, 1100)"/>
<path d=""  transform="translate(9413, 1100)"/>
<path d="M362,303L1114,1298L1276,1298L1233,532Q1229,387 1206,248Q1233,297 1258,339Q1282,381 1872,1298L2046,1298L1210,0L1049,0L1090,788Q1108,1034 1112,1067Q1087,1026 938,823L305,0L143,0L442,1298L606,1298Q506,868 452,639Q397,410 362,303Z"  transform="translate(9945, 1100)"/>
<path d="M475,190Q719,373 1028,665Q1337,956 1645,1298L1841,1298Q1438,858 1200,627L1597,197L1489,98L1094,526Q741,193 440,0L279,0L506,979L63,811L102,983L436,1110Q522,1145 580,1145Q627,1145 648,1114Q668,1083 668,1047Q668,965 596,670Q524,375 475,190Z"  transform="translate(11911, 1100)"/>
<path d="M338,190Q582,373 891,665Q1200,956 1507,1298L1704,1298Q821,324 303,0L141,0L442,1298L604,1298L414,483L338,190Z"  transform="translate(13699, 1100)"/>
<path d="M688,1130Q688,1096 672,1014L1055,692Q1298,924 1642,1298L1839,1298Q1442,860 1167,596L1612,223L1513,111L1061,496Q729,186 438,0L276,0L526,1063L82,870L123,1049L455,1190Q553,1229 600,1229Q647,1229 668,1198Q688,1167 688,1130ZM473,190Q586,274 749,414Q911,553 946,592L635,856L539,442L473,190Z"  transform="translate(15348, 1100)"/>
<path d="M1462,1298L1163,0L999,0L1188,811L1245,1044Q1219,1010 1141,921Q1063,831 305,0L143,0L442,1298L606,1298L399,403Q383,324 360,254L469,389L596,535L1300,1298L1462,1298Z"  transform="translate(17134, 1100)"/>
<path d="M1458,1028L1194,760Q668,225 293,0L131,0Q270,293 363,541Q455,788 541,1137L98,956L137,1128L469,1266Q547,1298 618,1298Q666,1298 687,1268Q707,1237 707,1200Q707,1122 639,885Q571,647 520,509Q469,371 410,248Q766,518 1260,1030L1520,1298L1681,1298Q1522,553 1309,160Q1401,178 1540,249Q1679,319 1788,408L1917,408Q1837,301 1794,116Q1751,-70 1751,-285L1602,-285Q1602,0 1653,150Q1368,0 1116,0L1077,0Q1200,256 1285,486Q1370,715 1458,1028Z"  transform="translate(18740, 1100)"/>
<path d=""  transform="translate(20702, 1100)"/>
<path d="M489,190Q733,373 1043,665Q1352,956 1659,1298L1855,1298Q973,324 455,0L293,0L518,979L63,756L106,940L446,1106Q528,1145 592,1145Q639,1145 660,1114Q680,1083 680,1047Q680,965 608,670Q520,295 489,190Z"  transform="translate(21234, 1100)"/>
<path d="M1083,1298L496,0L322,0L836,1133Q717,1112 561,1112Q305,1112 166,1174L217,1298Q371,1251 584,1251Q821,1251 963,1298L1083,1298Z"  transform="translate(23036, 1100)"/>
<path d="M932,1122Q1096,1014 1315,956Q1372,1128 1445,1198Q1518,1268 1628,1268Q1729,1268 1797,1211Q1864,1153 1864,1065Q1864,936 1773,859Q1681,782 1544,782L1427,791L1182,0L1016,0L1272,823Q1049,881 889,985L584,0L418,0L770,1135Q674,1100 541,1100Q438,1100 327,1122Q215,1143 156,1171L211,1298Q389,1239 545,1239Q702,1239 817,1298L987,1298L932,1122ZM1632,1128Q1571,1128 1536,1075Q1501,1022 1470,930L1550,924Q1638,924 1677,962Q1716,999 1716,1047Q1716,1081 1695,1105Q1673,1128 1632,1128Z"  transform="translate(24099, 1100)"/>
<path d="M545,442Q530,383 516,325Q502,266 479,190Q528,227 583,272Q637,317 688,358Q809,459 935,575Q1061,690 1184,811Q1307,932 1425,1056Q1542,1180 1649,1298L1845,1298Q1706,1145 1539,968Q1372,791 1191,615Q1010,438 821,278Q631,117 444,0L283,0L449,725L4,541L45,719L379,854Q420,870 455,883Q489,895 524,895Q571,895 592,865Q612,834 612,797Q612,768 610,744Q608,719 602,687Q596,655 585,607Q573,559 555,483L545,442ZM764,1380L682,1024L518,1024L600,1380L764,1380Z"  transform="translate(26077, 1100)"/>
<path d="M596,1133L84,881L127,1065L524,1260Q606,1298 670,1298Q717,1298 738,1268Q758,1237 758,1200Q758,1118 686,823L606,483L539,240L725,422Q1090,776 1282,1159L1354,1298L1458,1298L1458,1147Q1458,1008 1515,932Q1571,856 1665,856Q1737,856 1800,899Q1862,942 1972,1096L2079,1010Q1974,850 1878,784Q1782,717 1659,717Q1542,717 1454,786Q1366,854 1341,965Q1214,745 1036,542Q858,338 711,209Q563,80 434,0L334,0L596,1133Z"  transform="translate(27859, 1100)"/>
<path d="M1104,604L139,604L172,743L1137,743L1104,604Z"  transform="translate(29942, 1100)"/>
</svg>
