<svg xmlns="http://www.w3.org/2000/svg" viewBox="0 0 31391 3789" transform="translate(0, 3789) scale(1, -1)">
<path d="M218,1488L394,1141L564,1342Q593,1376 612,1386Q631,1395 651,1395Q694,1395 736,1338L890,1141L1170,1396Q1203,1425 1228,1437Q1252,1449 1292,1449Q1348,1449 1385,1408Q1421,1367 1421,1299Q1421,1113 1313,869Q1204,625 997,353Q789,80 564,-112L451,14Q624,169 800,397Q976,624 1096,847Q1215,1069 1234,1213Q1049,1036 1022,1015Q994,994 968,981Q941,967 919,961Q896,955 870,955Q829,955 804,971Q779,987 738,1038L636,1161L475,990Q418,931 364,931Q294,931 249,1020L60,1398L218,1488Z"  transform="translate(0, 1100)"/>
<path d="M524,1089Q499,1222 484,1282Q249,1256 140,1233L156,1399Q662,1470 1060,1477L1044,1313Q875,1313 681,1299Q700,1228 720,1110Q898,1126 1084,1134L1072,970Q915,966 745,950L770,744Q937,757 1144,761L1128,597Q964,597 786,583Q811,301 816,-11L623,8Q621,281 594,566Q432,549 226,521L242,687Q452,715 577,727Q563,852 550,929Q417,913 173,875L185,1041Q308,1062 524,1089Z"  transform="translate(1561, 1100)"/>
<path d="M1164,1425Q851,616 699,-24L524,35Q569,278 694,663Q438,574 157,446L100,597Q449,754 757,857Q613,1001 448,1137Q282,1272 148,1357L258,1482Q404,1390 557,1270Q709,1150 822,1038Q901,1263 989,1482L1164,1425Z"  transform="translate(2845, 1100)"/>
<path d="M881,558Q881,632 853,756Q554,732 169,732Q80,732 80,824Q80,885 151,961Q257,1077 362,1187Q466,1297 572,1389L608,1421Q664,1472 732,1472Q778,1472 809,1452Q839,1432 857,1386Q888,1309 941,1134Q993,959 1035,792Q1076,625 1076,542Q1076,408 897,260Q718,111 390,-22L313,127Q439,171 596,260Q753,349 817,421Q881,492 881,558ZM816,912Q765,1095 702,1281Q615,1219 508,1115Q401,1010 311,902L315,893L365,892Q536,892 816,912Z"  transform="translate(4049, 1100)"/>
<path d=""  transform="translate(5325, 1100)"/>
<path d="M1506,651Q1506,329 1343,155Q1180,-20 876,-20Q533,-20 342,201Q150,421 150,813Q150,1132 315,1309Q479,1485 777,1485Q1006,1485 1171,1384Q1335,1283 1421,1095Q1506,906 1506,651ZM1312,654Q1312,975 1175,1149Q1038,1323 787,1323Q566,1323 456,1194Q345,1064 345,812Q345,491 480,317Q615,142 866,142Q1086,142 1199,272Q1312,402 1312,654ZM741,356Q741,479 734,647Q652,642 526,642L509,642L463,643L446,643L436,804L509,803Q622,803 726,809L703,1106L882,1131Q904,915 910,825Q1064,843 1196,871L1214,712Q1077,681 919,662Q926,494 926,373L741,356Z"  transform="translate(5857, 1100)"/>
<path d="M645,1484Q735,1281 792,1130Q1024,1281 1226,1399L1300,1250Q1072,1121 848,979Q916,792 971,596Q1265,608 1557,626L1580,464Q1288,448 1014,438Q1061,252 1100,29L924,-25Q880,214 823,432Q471,421 263,421Q168,421 124,453Q80,484 80,547Q80,599 112,645Q143,691 228,750Q463,913 634,1026Q575,1185 482,1406L645,1484ZM274,576Q522,580 780,588Q742,717 688,875Q475,735 270,585L274,576Z"  transform="translate(7493, 1100)"/>
<path d="M1071,-227Q880,259 743,744Q654,727 534,727Q333,727 217,755Q100,782 100,833Q109,943 214,1097Q318,1251 457,1365Q596,1479 679,1479Q723,1479 742,1457Q760,1435 777,1362Q864,971 997,531Q1129,91 1245,-162L1071,-227ZM618,1279Q585,1264 512,1195Q438,1126 383,1054Q327,982 300,921L303,911Q392,892 517,892Q620,892 699,906Q645,1115 618,1279Z"  transform="translate(9173, 1100)"/>
<path d="M1072,219Q1019,403 925,638Q815,611 651,592Q487,573 369,573Q100,573 100,662Q100,728 132,820Q164,912 225,1025Q285,1138 364,1254Q443,1370 500,1421Q556,1472 621,1472Q672,1472 727,1406Q781,1339 856,1201Q930,1062 1006,892Q1082,721 1146,555Q1210,388 1244,271L1072,219ZM863,786Q799,933 728,1070Q657,1206 599,1281Q495,1148 410,992Q325,836 310,753L314,744Q346,736 415,736Q573,736 863,786Z"  transform="translate(10418, 1100)"/>
<path d="M288,77Q257,77 242,96Q227,114 227,158Q227,545 175,1115L150,1402L336,1426L355,1225L1027,1394L1055,1398Q1103,1398 1109,1345Q1172,827 1177,20L985,-10L985,250L336,84Q311,77 288,77ZM959,891Q949,1040 933,1203L370,1059Q381,947 395,747L959,891ZM983,418L970,725L404,581Q408,501 414,273L983,418Z"  transform="translate(11762, 1100)"/>
<path d="M30,938Q270,1232 581,1439Q631,1474 682,1474Q723,1474 742,1454Q761,1433 772,1406Q840,1242 909,840Q977,437 985,42L793,0Q788,210 769,407Q749,603 706,862Q663,1121 619,1245Q454,1124 347,1024Q240,924 149,817L30,938Z"  transform="translate(13079, 1100)"/>
<path d=""  transform="translate(14264, 1100)"/>
<path d="M100,1047Q192,1118 252,1162Q312,1206 361,1242Q410,1277 618,1421Q691,1472 758,1472Q805,1472 829,1452Q853,1432 867,1404Q1003,1121 1108,812Q1212,502 1325,31L1162,-25Q1104,225 1037,458Q806,271 499,99L421,241Q729,409 986,626Q947,754 902,881Q660,706 347,525L269,667Q561,834 844,1039Q783,1193 734,1279Q467,1119 187,911L100,1047Z"  transform="translate(14796, 1100)"/>
<path d="M539,0Q526,241 526,329L531,513Q342,540 231,666Q120,791 120,985Q120,1126 204,1241Q288,1356 431,1421Q574,1485 729,1485Q877,1485 1000,1422Q1123,1359 1192,1247Q1260,1134 1260,995Q1260,784 1115,656Q970,527 718,508L714,343Q714,182 728,0L539,0ZM1072,984Q1072,1106 1005,1194Q938,1281 821,1311Q794,1178 769,998Q743,817 730,672Q892,692 982,774Q1072,856 1072,984ZM307,966Q307,847 369,772Q430,697 543,676Q560,857 587,1034Q614,1210 637,1315Q489,1290 398,1194Q307,1098 307,966Z"  transform="translate(16241, 1100)"/>
<path d="M1007,1389Q918,1232 886,1126Q853,1019 853,905Q853,671 920,460Q986,249 1096,124L961,-16Q828,115 744,370Q659,625 659,894L659,937L661,985Q531,922 380,922Q223,922 129,1011Q35,1100 35,1241Q35,1355 100,1473L272,1397Q230,1332 230,1246Q230,1168 273,1126Q315,1084 389,1084Q688,1084 848,1486L1007,1389Z"  transform="translate(17621, 1100)"/>
<path d="M410,1067Q582,1208 666,1278Q750,1348 813,1348Q864,1348 902,1316Q939,1283 939,1239Q939,979 785,606Q630,232 419,-37L270,68Q375,205 479,397Q583,588 648,772Q712,956 733,1113L487,913Q456,888 421,876Q385,864 359,864Q324,864 297,887Q270,909 257,947L80,1397L239,1477L410,1067Z"  transform="translate(18897, 1100)"/>
<path d="M1025,436Q982,436 955,458Q927,480 885,593Q842,706 800,878Q757,1050 741,1162Q681,1105 541,768Q522,723 500,698Q477,673 455,665Q433,656 407,656Q358,656 332,671Q305,686 268,755Q231,823 196,920Q160,1016 122,1155Q84,1294 60,1408L230,1461Q337,1020 407,885Q513,1138 619,1321Q725,1504 777,1504Q819,1504 839,1478Q859,1451 868,1411L909,1208Q980,846 1032,709Q1129,897 1230,1307L1408,1254Q1393,1174 1356,1053Q1319,932 1270,801Q1220,669 1180,585Q1140,501 1108,469Q1075,436 1025,436Z"  transform="translate(19976, 1100)"/>
<path d="M1125,350Q990,336 865,308Q739,280 528,215Q486,203 455,203Q372,203 354,284Q374,417 491,765Q333,737 129,673L149,833Q360,907 551,937Q621,1134 688,1297L120,1175L133,1356L747,1482Q785,1491 812,1491Q910,1491 910,1390Q910,1366 890,1306Q665,757 567,400Q698,440 813,465Q927,489 1087,512L1125,350Z"  transform="translate(21514, 1100)"/>
<path d=""  transform="translate(22759, 1100)"/>
<path d="M715,1494Q769,1494 769,1418Q769,1367 747,1105Q725,842 725,665Q725,258 740,165L1160,270L1189,114L868,22Q822,8 749,-7Q676,-22 657,-22Q624,-22 600,-6Q575,10 559,53Q546,90 539,313Q532,535 532,658Q532,762 545,984Q557,1206 570,1297L140,1182L147,1347L580,1471Q672,1494 715,1494Z"  transform="translate(23291, 1100)"/>
<path d="M100,1127Q203,1484 588,1484Q774,1484 875,1384Q976,1283 976,1101Q976,894 880,587Q784,280 628,-25L452,29Q609,357 696,637Q782,916 782,1115Q782,1210 725,1266Q667,1322 567,1322Q346,1322 282,1093L100,1127Z"  transform="translate(24620, 1100)"/>
<path d="M259,1511Q318,1331 401,1134Q485,1251 602,1337Q719,1422 796,1422Q867,1422 924,1312L1014,1144Q1044,1089 1085,1089Q1131,1089 1190,1160Q1248,1230 1311,1367L1461,1299Q1353,1094 1262,1007Q1171,920 1070,920Q1018,920 968,953Q918,986 883,1046L769,1246Q609,1153 477,960Q654,568 918,112L774,-8Q532,404 366,756Q199,1107 80,1452L259,1511Z"  transform="translate(25746, 1100)"/>
<path d="M798,1413L972,1362Q876,1059 835,905Q1079,922 1311,931L1299,767Q1106,763 793,739Q726,454 692,54L505,78Q530,424 596,723Q346,698 200,675L212,841Q356,864 637,890Q690,1096 798,1413Z"  transform="translate(27307, 1100)"/>
<path d="M961,108Q783,51 582,18Q381,-15 226,-15Q163,-15 122,12Q80,38 80,83Q80,114 95,161Q109,207 126,261Q163,382 318,725Q472,1067 653,1406L818,1329Q756,1222 603,903Q450,584 373,404Q296,224 281,158Q593,175 926,274L961,108Z"  transform="translate(28818, 1100)"/>
<path d="M780,1485Q937,1485 1060,1425Q1183,1364 1258,1245Q1332,1126 1332,987Q1332,834 1253,714Q1174,593 1036,533Q897,472 709,472Q454,472 307,608Q160,743 160,975Q160,1119 238,1237Q316,1354 458,1420Q599,1485 780,1485ZM774,1323Q646,1323 551,1280Q455,1236 405,1158Q354,1080 354,983Q354,819 451,727Q548,634 723,634Q918,634 1028,728Q1138,822 1138,988Q1138,1074 1092,1152Q1045,1230 962,1277Q878,1323 774,1323Z"  transform="translate(29899, 1100)"/>
</svg>
