<svg xmlns="http://www.w3.org/2000/svg" viewBox="0 0 42372 3789" transform="translate(0, 3789) scale(1, -1)">
<path d="M41,879L176,879Q187,1191 296,1374Q405,1556 600,1556Q697,1556 758,1532L758,1386Q693,1407 623,1407Q505,1407 431,1263Q356,1118 356,879L549,879Q695,879 774,815Q852,751 852,625Q852,521 802,410Q751,299 673,236Q595,172 512,172Q419,172 344,242Q268,312 224,440Q180,567 174,739L41,739L41,879ZM356,739Q356,628 378,531Q399,434 436,378Q473,322 514,322Q570,322 620,416Q670,510 670,621Q670,670 635,705Q599,739 541,739L356,739Z"  transform="translate(0, 1100)"/>
<path d="M592,866Q592,721 615,637Q638,552 687,514Q736,475 829,475Q916,475 960,494Q1004,512 1023,555Q1042,597 1042,694L1042,879L1186,879Q1227,727 1227,639Q1227,512 1190,445Q1152,377 1068,346Q984,315 836,315Q670,315 592,414Q597,226 606,160L1270,160L1270,0L629,0Q657,-136 712,-247Q767,-358 879,-492L711,-492Q610,-395 548,-279Q486,-164 453,0L258,0L258,-205L76,-205L76,160L428,160Q410,331 410,561L410,879L592,879L592,866Z"  transform="translate(954, 1100)"/>
<path d="M567,322Q669,322 724,373Q778,423 778,516Q778,597 742,689Q705,780 637,866L784,956Q866,863 914,743Q961,623 961,512Q961,352 862,262Q763,172 567,172Q484,172 424,205Q492,111 492,-59L492,-182L303,-182L303,-59Q303,68 249,179Q195,290 74,403L190,528Q274,431 373,377Q472,322 567,322Z"  transform="translate(2183, 1100)"/>
<path d="M66,-492L-102,-492Q30,-331 84,-206Q138,-82 161,84Q184,250 184,563Q184,819 214,998Q243,1176 306,1307Q368,1438 483,1556L653,1556Q535,1418 475,1300Q415,1181 391,1023Q367,865 367,561Q367,279 339,88Q311,-104 248,-241Q184,-378 66,-492Z"  transform="translate(3256, 1100)"/>
<path d="M422,877L602,877L602,283Q602,-92 881,-92Q1025,-92 1101,-8Q1176,76 1176,231Q1176,289 1165,337Q1153,385 1140,431Q1126,477 1115,524Q1104,570 1104,625Q1104,751 1176,877L1358,877Q1326,826 1306,755Q1286,684 1286,629Q1286,579 1297,534Q1308,489 1322,442Q1335,395 1347,344Q1358,292 1358,229Q1358,5 1232,-118Q1105,-242 866,-242Q646,-242 534,-117Q422,8 422,276L422,377Q336,295 199,295Q107,295 20,315L20,444L195,444Q316,444 369,521Q422,598 422,772L422,877Z"  transform="translate(3807, 1100)"/>
<path d="M1243,-201Q1243,-10 1081,-10Q1010,-10 973,-53Q936,-97 920,-205Q898,-340 809,-416Q719,-492 588,-492Q345,-492 229,-326Q113,-161 113,182Q113,345 134,502Q155,659 215,879L387,879L387,834Q387,676 411,586Q434,495 486,454Q537,412 631,412Q752,412 801,467Q850,521 850,659L850,879L993,879Q1011,815 1023,743Q1034,670 1034,635Q1034,441 940,352Q846,262 641,262Q500,262 417,324Q333,386 307,518Q295,413 295,203Q295,-66 368,-204Q440,-342 580,-342Q717,-342 745,-156Q766,-20 854,60Q942,139 1081,139Q1243,139 1333,48Q1423,-44 1423,-211Q1423,-285 1382,-408L1243,-408L1243,-201Z"  transform="translate(5298, 1100)"/>
<path d=""  transform="translate(6701, 1100)"/>
<path d="M608,-242Q375,-242 254,-72Q133,97 133,422Q133,559 171,669Q209,778 275,839Q341,899 420,899Q553,899 631,773Q709,646 709,428Q709,304 639,249Q569,193 428,193L334,193Q399,-94 608,-94Q774,-94 857,-6Q940,81 940,244L940,877L1122,877L1122,242Q1122,-94 1360,-94Q1606,-94 1606,313Q1606,453 1580,578Q1554,702 1481,877L1661,877Q1788,629 1788,322Q1788,44 1683,-99Q1578,-242 1372,-242Q1239,-242 1149,-186Q1059,-131 1022,-25Q961,-140 864,-191Q767,-242 608,-242ZM315,410L315,372L317,332L408,332Q473,332 500,358Q526,384 526,432Q526,584 500,667Q473,750 422,750Q371,750 343,661Q315,571 315,410Z"  transform="translate(7233, 1100)"/>
<path d="M1602,193Q1602,101 1523,51Q1443,0 1292,0L358,0L358,150L1296,150Q1419,150 1419,199Q1419,239 1334,278Q1248,316 1071,360Q923,397 847,430Q770,463 739,504Q707,544 707,623Q707,692 628,721Q549,750 408,750Q224,750 4,670L-51,805Q40,848 159,874Q277,899 395,899Q641,899 760,847Q879,795 879,680Q879,620 901,595Q923,570 986,548Q1048,526 1210,487Q1375,441 1454,404Q1533,366 1568,319Q1602,272 1602,193Z"  transform="translate(9164, 1100)"/>
<path d="M403,1516Q417,1487 429,1432Q440,1376 440,1327Q440,1255 425,1183Q409,1110 368,996Q326,882 311,809Q295,736 295,664Q295,299 557,299Q720,299 802,409Q883,518 883,719Q883,939 829,1150L799,1270L979,1270Q1034,1079 1050,962Q1065,845 1065,715Q1065,466 961,326Q857,186 653,160L653,-299L471,-299L471,158Q288,179 201,307Q113,434 113,674Q113,835 192,1029Q234,1133 252,1201Q270,1269 270,1331Q270,1424 246,1489L238,1516L403,1516Z"  transform="translate(10858, 1100)"/>
<path d="M356,-221L174,-221L174,877L356,877L356,-221Z"  transform="translate(12066, 1100)"/>
<path d="M-102,1556L68,1556Q184,1437 246,1307Q308,1176 338,998Q367,819 367,563Q367,257 389,90Q411,-78 466,-203Q520,-328 653,-492L485,-492Q367,-379 304,-242Q240,-106 212,85Q184,275 184,561Q184,859 161,1017Q138,1175 81,1292Q23,1408 -102,1556Z"  transform="translate(12596, 1100)"/>
<path d="M164,166Q164,407 194,587Q223,766 266,879L438,879Q365,668 365,518Q365,324 563,324Q685,324 737,386Q788,447 788,592L788,879L932,879Q973,692 973,606Q973,453 1015,389Q1056,324 1163,324Q1272,324 1318,385Q1364,445 1364,592L1364,879L1507,879Q1548,700 1548,590Q1548,370 1462,272Q1375,174 1176,174Q1053,174 985,226Q916,277 881,387Q840,273 769,224Q697,174 573,174Q403,174 330,285L335,239Q346,144 346,78Q346,-143 409,-242Q471,-342 612,-342Q656,-342 701,-323Q746,-304 837,-242Q913,-191 985,-167Q1057,-143 1139,-143Q1291,-143 1380,-211Q1468,-280 1468,-403Q1468,-434 1448,-492L1309,-492L1309,-455Q1309,-368 1261,-330Q1213,-293 1122,-293Q1066,-293 1014,-314Q961,-336 878,-392Q802,-445 736,-468Q669,-492 598,-492Q367,-492 266,-341Q164,-190 164,166Z"  transform="translate(13147, 1100)"/>
<path d=""  transform="translate(14828, 1100)"/>
<path d="M608,-94Q796,-94 876,19Q956,131 956,387L956,879L1098,879Q1115,841 1127,782Q1139,723 1139,682Q1139,608 1176,562Q1213,516 1272,516Q1344,516 1377,560Q1409,604 1409,694L1409,879L1550,879Q1568,825 1580,764Q1591,702 1591,662Q1591,520 1512,444Q1432,367 1272,367Q1193,367 1139,410L1139,379Q1139,49 1012,-96Q885,-242 608,-242Q375,-242 254,-72Q133,97 133,422Q133,559 171,669Q209,778 275,839Q341,899 420,899Q553,899 631,773Q709,646 709,428Q709,304 639,249Q569,193 428,193L334,193Q399,-94 608,-94ZM315,410L315,372L317,332L408,332Q473,332 500,358Q526,384 526,432Q526,584 500,667Q473,750 422,750Q371,750 343,661Q315,571 315,410Z"  transform="translate(15360, 1100)"/>
<path d="M356,580Q356,459 375,411Q394,363 441,343Q487,322 584,322Q728,322 787,383Q846,443 846,586L846,879L989,879Q1008,793 1019,700Q1030,606 1030,557Q1030,360 928,266Q825,172 598,172Q442,172 356,260L356,-283L174,-283L174,879L356,879L356,580Z"  transform="translate(17043, 1100)"/>
<path d="M356,317Q356,44 308,-149Q259,-343 154,-492L-14,-492Q68,-338 106,-225Q143,-112 159,26Q174,164 174,362L174,879L317,879Q336,851 347,812Q358,772 358,743Q358,666 386,633Q414,600 485,600Q557,600 588,640Q618,679 618,766L618,879L760,879Q776,852 789,807Q801,761 801,727Q801,672 834,641Q867,610 928,610Q982,610 1012,629Q1042,648 1065,695Q1087,742 1122,879L1303,879Q1266,726 1253,621Q1239,516 1239,387Q1239,141 1312,25Q1384,-92 1530,-92Q1675,-92 1748,25Q1821,141 1821,387Q1821,515 1808,620Q1794,724 1757,879L1937,879Q1976,730 1990,617Q2003,503 2003,379Q2003,61 1886,-89Q1768,-240 1530,-240Q1291,-240 1174,-89Q1057,61 1057,379L1057,442L1059,500Q1004,451 922,451Q767,451 715,608Q693,530 646,491Q598,451 504,451Q389,451 340,561Q356,409 356,317Z"  transform="translate(18206, 1100)"/>
<path d="M584,-242Q358,-242 246,-78Q133,85 133,422Q133,559 171,669Q209,778 275,839Q341,899 420,899Q553,899 631,773Q709,646 709,428Q709,304 639,249Q569,193 428,193L330,193Q354,50 421,-22Q488,-94 592,-94Q754,-94 825,21Q895,135 895,385L895,879L1077,879L1077,283Q1077,-92 1311,-92Q1428,-92 1494,-14Q1559,64 1559,203Q1559,264 1548,318Q1536,371 1523,422Q1509,472 1498,522Q1487,572 1487,627Q1487,846 1613,980Q1739,1114 1970,1130L2071,997Q1875,997 1772,905Q1669,812 1669,631Q1669,581 1680,535Q1691,489 1705,439Q1718,389 1730,331Q1741,273 1741,199Q1741,-7 1625,-124Q1509,-242 1298,-242Q1179,-242 1103,-192Q1026,-143 967,-29Q897,-144 812,-193Q726,-242 584,-242ZM315,332L408,332Q473,332 500,358Q526,384 526,432Q526,584 500,667Q473,750 422,750Q371,750 343,661Q315,571 315,410L315,332Z"  transform="translate(20352, 1100)"/>
<path d="M487,899Q628,899 703,833Q778,766 778,641Q778,579 809,548Q839,516 897,516Q969,516 1002,560Q1034,604 1034,694L1034,879L1176,879Q1217,738 1217,662Q1217,519 1138,443Q1058,367 897,367Q757,367 681,430Q604,492 604,608Q604,681 572,721Q540,760 487,760Q389,760 342,663Q295,565 295,354Q295,189 347,50Q398,-89 508,-219L328,-219Q113,14 113,354Q113,636 204,768Q294,899 487,899Z"  transform="translate(22226, 1100)"/>
<path d="M68,-342Q192,-342 280,-321Q367,-301 423,-263Q479,-226 508,-163Q537,-101 537,14L537,172Q312,180 213,254Q113,327 113,483Q113,589 150,690Q187,790 249,846Q311,901 389,901Q551,901 635,678Q719,455 719,29Q719,-238 563,-365Q407,-492 100,-492L-819,-492L-819,-342L68,-342ZM295,492Q295,412 355,372Q414,331 530,322Q510,530 472,641Q434,752 389,752Q354,752 325,673Q295,594 295,492Z"  transform="translate(23516, 1100)"/>
<path d=""  transform="translate(24388, 1100)"/>
<path d="M41,336L344,336Q518,336 590,396Q662,455 662,596L662,877L805,877Q846,672 846,563Q846,384 748,294Q650,203 438,188L438,-344L256,-344L256,186Q149,189 41,207L41,336Z"  transform="translate(24920, 1100)"/>
<path d="M541,737Q301,737 301,516Q301,396 352,347Q402,298 541,291L541,131Q301,131 301,-106Q301,-207 349,-262Q397,-317 520,-346L461,-492Q284,-455 199,-364Q113,-273 113,-109Q113,-3 165,74Q216,151 328,205Q212,248 163,326Q113,404 113,518Q113,696 227,797Q340,897 541,897L541,737Z"  transform="translate(25930, 1100)"/>
<path d="M-51,1532Q10,1556 106,1556Q274,1556 363,1434Q452,1312 492,1030Q532,747 532,231L532,193L350,193L350,231Q350,694 325,941Q299,1187 243,1297Q187,1407 84,1407Q14,1407 -51,1386L-51,1532Z"  transform="translate(26573, 1100)"/>
<path d="M244,449Q133,449 41,469L41,598L225,598Q296,598 327,638Q358,677 358,764L358,877L500,877Q516,850 529,805Q541,759 541,725Q541,670 574,639Q607,608 668,608Q722,608 752,627Q782,646 805,693Q827,740 862,877L1042,877Q1005,722 992,617Q979,511 979,385Q979,139 1052,23Q1124,-94 1270,-94Q1415,-94 1488,23Q1561,139 1561,385Q1561,513 1548,618Q1534,722 1497,877L1677,877Q1716,728 1730,615Q1743,501 1743,377Q1743,59 1626,-91Q1508,-242 1270,-242Q1031,-242 914,-91Q797,59 797,377L797,440L799,498Q744,449 662,449Q507,449 455,606Q433,528 386,489Q338,449 244,449Z"  transform="translate(27269, 1100)"/>
<path d="M1745,322Q1889,322 1949,385Q2009,447 2009,590L2009,877L2152,877Q2193,698 2193,588Q2193,367 2090,270Q1987,172 1753,172Q1627,172 1546,220Q1465,267 1405,385Q1346,269 1264,221Q1182,172 1051,172Q925,172 846,221Q766,269 709,385Q648,266 566,219Q484,172 356,172Q184,172 41,193L41,322L346,322Q490,322 553,386Q616,450 616,600L616,877L760,877Q801,695 801,610Q801,454 858,388Q914,322 1049,322Q1193,322 1253,385Q1313,447 1313,590L1313,877L1456,877Q1497,713 1497,604Q1497,450 1553,386Q1608,322 1745,322Z"  transform="translate(29155, 1100)"/>
<path d="M883,-492Q891,-380 891,-332Q891,-63 788,-63Q764,-63 745,-83Q726,-103 672,-191Q592,-319 444,-319Q350,-319 294,-257Q238,-196 238,-96Q238,11 281,121L303,182Q152,295 86,409Q20,522 20,655Q20,763 92,831Q164,899 279,899Q418,899 491,801Q563,703 563,518Q563,431 539,350Q515,269 487,196Q458,122 434,55Q410,-12 410,-72Q410,-168 463,-168Q488,-168 507,-148Q526,-129 545,-99Q563,-70 585,-36Q607,-2 637,28Q667,57 709,77Q750,96 809,96Q935,96 1004,-13Q1073,-123 1073,-313Q1073,-404 1063,-492L883,-492ZM203,659Q203,565 244,493Q285,421 365,358Q366,363 369,377Q372,390 376,408Q379,425 382,443Q385,461 385,475Q385,602 357,676Q328,750 279,750Q248,750 226,730Q203,709 203,659Z"  transform="translate(31482, 1100)"/>
<path d=""  transform="translate(32604, 1100)"/>
<path d="M786,897Q927,897 1002,831Q1077,764 1077,639Q1077,577 1108,546Q1138,514 1196,514Q1268,514 1301,558Q1333,602 1333,692L1333,877L1475,877Q1516,736 1516,659Q1516,517 1437,441Q1357,365 1196,365Q1056,365 980,428Q903,490 903,606Q903,678 871,718Q839,758 786,758Q688,758 641,661Q594,563 594,352Q594,192 646,55Q698,-82 815,-221L635,-221Q548,-127 491,6Q433,138 422,303Q388,13 274,-221L102,-221Q173,-64 212,119Q250,301 250,473Q250,594 212,705Q173,815 104,877L279,877Q333,832 374,731Q414,629 422,506Q473,897 786,897Z"  transform="translate(33136, 1100)"/>
<path d="M102,897Q303,897 417,796Q530,695 530,518Q530,404 481,326Q431,248 315,205Q428,151 479,74Q530,-3 530,-109Q530,-273 445,-364Q359,-455 182,-492L123,-346Q249,-316 296,-261Q342,-206 342,-106Q342,131 102,131L102,291Q239,297 291,346Q342,394 342,516Q342,737 102,737L102,897Z"  transform="translate(34733, 1100)"/>
<path d="M995,-340Q1386,-340 1741,-254L1741,-412Q1383,-492 989,-492Q561,-492 352,-310Q143,-128 143,252Q143,583 225,879L397,879Q367,765 367,676Q367,595 399,557Q431,518 508,518Q604,518 640,561Q676,604 676,729L676,879L817,879Q838,831 848,774Q858,716 858,676Q858,604 893,561Q927,518 985,518Q1072,518 1113,577Q1154,635 1186,817L1200,879L1380,879Q1343,724 1330,619Q1317,513 1317,387Q1317,208 1389,124Q1461,39 1608,39Q1754,39 1826,124Q1898,208 1898,387Q1898,510 1886,616Q1873,722 1835,879L2015,879Q2054,730 2068,617Q2081,503 2081,379Q2081,128 1964,10Q1846,-109 1608,-109Q1369,-109 1252,10Q1135,128 1135,379L1139,459Q1111,402 1071,380Q1031,358 965,358Q889,358 835,401Q780,443 762,516Q739,430 677,394Q614,358 504,358Q399,358 328,442L326,362L326,279Q326,158 350,59L924,137L944,-12L406,-82Q483,-215 630,-277Q776,-340 995,-340Z"  transform="translate(35376, 1100)"/>
<path d="M164,668Q164,1111 268,1334Q372,1556 590,1556Q687,1556 748,1532L748,1386Q683,1407 612,1407Q346,1407 346,674Q346,503 358,414Q369,324 399,324Q439,324 482,393L522,456Q605,588 745,588Q871,588 941,478Q1010,368 1010,178Q1010,12 981,-121L805,-121Q827,11 827,160Q827,428 725,428Q701,428 682,408Q663,388 609,300Q529,172 381,172Q262,172 213,292Q164,411 164,668Z"  transform="translate(37600, 1100)"/>
<path d="M541,737Q301,737 301,516Q301,428 326,381Q351,333 408,311L408,322L715,322Q857,322 921,386Q985,449 985,598L985,877L1128,877Q1169,718 1169,608Q1169,454 1226,388Q1282,322 1417,322Q1561,322 1621,385Q1681,447 1681,590L1681,877L1825,877Q1852,742 1859,686Q1866,629 1866,588Q1866,367 1763,270Q1660,172 1425,172Q1299,172 1218,220Q1137,267 1077,385Q1017,267 936,220Q855,172 725,172Q625,172 541,178L541,131Q301,131 301,-106Q301,-207 349,-262Q397,-317 520,-346L461,-492Q284,-455 199,-364Q113,-273 113,-109Q113,-3 165,74Q216,151 328,205Q212,248 163,326Q113,404 113,518Q113,696 227,797Q340,897 541,897L541,737Z"  transform="translate(38659, 1100)"/>
<path d="M549,-242Q338,-242 226,-126Q113,-10 113,207Q113,312 141,413Q168,514 229,636Q294,770 319,852Q344,934 344,1016Q344,1114 317,1205Q290,1295 244,1335L424,1335Q463,1290 489,1203Q514,1116 514,1014Q514,917 488,822Q462,727 405,606Q346,484 321,392Q295,299 295,209Q295,64 364,-15Q432,-94 557,-94Q693,-94 761,23Q829,139 829,385Q829,508 817,615Q804,721 766,877L946,877Q997,652 1021,591Q1044,530 1075,493Q1106,455 1148,438Q1189,420 1245,420Q1337,420 1377,487Q1417,553 1417,696L1417,877L1561,877Q1602,721 1602,641Q1602,260 1262,260Q1104,260 1012,365Q1006,-242 549,-242Z"  transform="translate(40658, 1100)"/>
</svg>
