<svg xmlns="http://www.w3.org/2000/svg" viewBox="0 0 36234 3789" transform="translate(0, 3789) scale(1, -1)">
<path d="M780,1085L1186,1462L1364,1462L1364,0L1186,0L1186,502L782,877L377,500L377,0L199,0L199,1462L377,1462L780,1085ZM377,711L668,983L377,1249L377,711ZM895,981L1186,711L1186,1251L895,981Z"  transform="translate(0, 1100)"/>
<path d="M555,0L555,1278L297,1040L20,1278L20,1462L299,1225L555,1462L739,1462L995,1225L1274,1462L1274,1268L997,1030L739,1257L739,0L555,0Z"  transform="translate(1544, 1100)"/>
<path d="M199,1462L383,1462L383,942L199,942L199,1462Z"  transform="translate(2840, 1100)"/>
<path d="M383,0L199,0L199,1462L383,1462L383,727Q468,727 543,754Q617,780 680,827Q742,874 791,939Q840,1004 874,1082Q908,1159 926,1246Q944,1332 944,1423L944,1462L1135,1462L1135,1425Q1135,1306 1107,1197Q1079,1087 1029,992Q979,897 910,819Q840,741 757,686Q673,630 578,600Q483,569 383,569L383,0Z"  transform="translate(3424, 1100)"/>
<path d="M383,901L383,674Q491,674 592,698Q692,722 780,768Q867,814 939,881Q1010,947 1062,1033Q1113,1118 1141,1221Q1169,1324 1169,1442L1169,1462L1364,1462L1364,1440Q1364,1295 1330,1170Q1296,1044 1234,941Q1171,838 1083,758Q995,677 886,622Q777,567 650,539Q523,510 383,510L383,0L199,0L199,1462L383,1462L383,1065Q459,1065 521,1096Q583,1127 627,1180Q670,1232 694,1300Q717,1368 717,1442L717,1462L911,1462L911,1440Q911,1328 869,1230Q826,1131 754,1058Q681,985 585,943Q489,901 383,901Z"  transform="translate(4589, 1100)"/>
<path d="M324,1094L324,1085L686,756L686,745L324,377L324,369L666,0L416,0L78,369L78,377L436,745L436,754L78,1085L78,1094L457,1462L707,1462L324,1094Z"  transform="translate(5984, 1100)"/>
<path d=""  transform="translate(6764, 1100)"/>
<path d="M555,0L299,238L20,0L20,195L297,432L555,199L555,1462L739,1462L995,1225L1274,1462L1274,1268L997,1030L739,1257L739,0L555,0Z"  transform="translate(7296, 1100)"/>
<path d="M240,1462L424,1462L424,963Q471,941 502,892Q532,842 532,758Q532,699 517,658Q501,616 474,589Q447,562 411,550Q375,537 334,537Q292,537 256,550Q220,562 194,589Q167,616 152,658Q137,699 137,758Q137,843 166,892Q195,941 240,963L240,1462Z"  transform="translate(8592, 1100)"/>
<path d="M623,885L918,1042L979,915L623,721L623,0L438,0L438,629L156,477L82,600L438,791L438,1462L623,1462L623,885Z"  transform="translate(9262, 1100)"/>
<path d="M625,0L434,0L434,1296L156,1145L82,1272L438,1462L625,1462L625,0Z"  transform="translate(10325, 1100)"/>
<path d="M537,1221Q537,1280 568,1308Q599,1335 643,1335Q664,1335 683,1329Q702,1322 717,1308Q731,1294 740,1273Q748,1251 748,1221Q748,1192 740,1170Q731,1148 717,1134Q702,1120 683,1113Q664,1106 643,1106Q598,1106 568,1134Q537,1162 537,1221ZM383,0L199,0L199,1462L383,1462L383,727Q468,727 543,754Q617,780 680,827Q742,874 791,939Q840,1004 874,1082Q908,1159 926,1246Q944,1332 944,1423L944,1462L1135,1462L1135,1425Q1135,1306 1107,1197Q1079,1087 1029,992Q979,897 910,819Q840,741 757,686Q673,630 578,600Q483,569 383,569L383,0Z"  transform="translate(11150, 1100)"/>
<path d="M580,1462L776,1462L776,561Q866,553 954,522Q1042,490 1116,425Q1190,359 1246,256Q1301,152 1325,0L1130,0Q1114,81 1088,149Q1061,217 1020,269Q978,321 919,355Q859,388 776,399L776,0L580,0L580,399Q497,388 437,355Q377,321 336,269Q294,217 268,149Q241,81 225,0L31,0Q55,152 111,256Q166,359 240,425Q314,490 402,522Q490,553 580,561L580,1462Z"  transform="translate(12315, 1100)"/>
<path d=""  transform="translate(13671, 1100)"/>
<path d="M1122,1294L784,1057L383,1294L383,1133L782,895L782,725L383,963L383,0L199,0L199,1462L383,1462L782,1225L1122,1462L1122,1294Z"  transform="translate(14203, 1100)"/>
<path d="M664,717L967,514L885,383L598,575Q600,529 603,481Q605,440 607,392Q608,344 608,301L608,0L438,0L438,301Q438,344 440,392Q442,440 444,481Q447,529 451,575L164,383L82,514L385,717L82,922L164,1055L438,870L438,1462L608,1462L608,868L885,1055L967,922L664,717Z"  transform="translate(15409, 1100)"/>
<path d="M240,555Q193,578 165,627Q137,676 137,758Q137,843 166,892Q195,941 240,963L240,1462L424,1462L424,963Q471,941 502,892Q532,842 532,758Q532,674 502,625Q472,575 424,553L424,0L240,0L240,555Z"  transform="translate(16460, 1100)"/>
<path d="M713,754L1241,0L1020,0L713,483L713,0L528,0L528,483L221,0L0,0L528,754L528,1462L713,1462L713,754Z"  transform="translate(17130, 1100)"/>
<path d="M481,614L481,381L199,686L199,874L483,1151L483,926L334,782L334,770L481,614Z"  transform="translate(18373, 1100)"/>
<path d="M713,0L528,0L528,709L0,1462L221,1462L528,979L528,1462L713,1462L713,979L1020,1462L1241,1462L713,709L713,0Z"  transform="translate(19057, 1100)"/>
<path d=""  transform="translate(20300, 1100)"/>
<path d="M1083,1169L1311,739L1311,715L1102,328L1323,0L1128,0L776,545L776,0L623,0L623,557L270,0L82,0L297,328L88,715L88,739L315,1169L113,1462L311,1462L623,987L623,1462L776,1462L776,983L1090,1462L1288,1462L1083,1169ZM803,766L1014,461L1153,723L1153,731L991,1040L803,766ZM401,1036L246,731L246,723L385,461L592,762L401,1036Z"  transform="translate(20832, 1100)"/>
<path d="M1042,723Q1042,867 989,971Q936,1074 846,1140Q755,1206 636,1237Q516,1268 383,1268L383,854Q468,854 545,831Q621,807 679,754Q736,700 770,615Q803,529 803,406L803,0L623,0L623,373Q623,467 605,531Q586,595 554,634Q521,673 478,690Q434,707 383,707L383,0L199,0L199,1462L393,1462Q494,1462 595,1444Q696,1426 788,1389Q880,1351 960,1293Q1039,1235 1098,1154Q1156,1073 1190,968Q1223,863 1223,733L1223,0L1042,0L1042,723Z"  transform="translate(22237, 1100)"/>
<path d="M743,1006L383,1257L383,0L199,0L199,1462L383,1462L743,1204L1122,1462L1307,1462L1307,0L1122,0L1122,1260L743,1006Z"  transform="translate(23638, 1100)"/>
<path d="M1032,723Q1032,867 981,971Q929,1074 841,1140Q752,1206 634,1237Q516,1268 383,1268L383,0L199,0L199,1462L393,1462Q494,1462 595,1444Q696,1426 788,1389Q880,1351 960,1293Q1039,1235 1098,1154Q1156,1073 1190,968Q1223,863 1223,733L1223,0L1032,0L1032,723Z"  transform="translate(25145, 1100)"/>
<path d="M580,901Q490,910 402,942Q314,973 240,1038Q166,1103 111,1207Q55,1310 31,1462L225,1462Q241,1381 268,1313Q294,1245 336,1194Q377,1142 437,1109Q497,1075 580,1063L580,1462L776,1462L776,1063Q859,1075 919,1109Q978,1142 1020,1194Q1061,1245 1088,1313Q1114,1381 1130,1462L1325,1462Q1301,1310 1246,1207Q1190,1103 1116,1038Q1042,973 954,942Q866,910 776,901L776,0L580,0L580,901Z"  transform="translate(26546, 1100)"/>
<path d="M199,1462L373,1462L373,1282Q519,1264 631,1225Q743,1186 819,1122Q895,1058 934,967Q973,875 973,752Q973,645 950,564Q926,482 885,421Q843,360 787,318Q730,276 664,248Q597,220 523,204Q449,188 373,180L373,0L199,0L199,1462ZM778,745Q778,836 753,902Q728,967 678,1011Q628,1055 552,1081Q476,1106 373,1118L373,336Q472,352 548,376Q623,400 675,445Q726,489 752,561Q778,633 778,745ZM459,735Q459,795 490,823Q520,850 565,850Q607,850 639,823Q670,795 670,735Q670,706 662,685Q653,663 639,649Q624,635 605,628Q586,621 565,621Q520,621 490,649Q459,676 459,735Z"  transform="translate(27902, 1100)"/>
<path d=""  transform="translate(28977, 1100)"/>
<path d="M750,264L369,0L199,0L199,1462L369,1462L750,1196L1137,1462L1296,1462L1296,0L1137,0L750,264ZM750,1030L369,766L369,696L750,430L1137,696L1137,766L750,1030ZM1137,928L1137,1300L868,1114L1137,928ZM1137,162L1137,535L868,348L1137,162ZM369,528L369,168L631,348L369,528ZM369,1294L369,934L631,1114L369,1294Z"  transform="translate(29509, 1100)"/>
<path d="M156,1044L428,883L428,1462L612,1462L612,774L956,571L885,449L612,606L612,0L428,0L428,713L82,915L156,1044Z"  transform="translate(31006, 1100)"/>
<path d="M199,1462L512,1462Q623,1462 714,1440Q804,1418 869,1374Q933,1329 969,1261Q1004,1193 1004,1102Q1004,1021 980,964Q956,906 914,867Q871,828 813,805Q755,782 688,770L688,760Q757,748 817,723Q877,698 921,657Q965,615 991,556Q1016,496 1016,416Q1016,316 981,239Q945,161 879,108Q813,55 719,28Q625,0 508,0L199,0L199,1462ZM383,840L471,840Q568,840 634,858Q700,876 740,909Q779,941 796,986Q813,1030 813,1083Q813,1134 796,1175Q779,1216 739,1245Q698,1274 632,1290Q565,1305 467,1305L383,1305L383,840ZM383,690L383,156L473,156Q570,156 636,177Q702,197 743,233Q783,269 801,318Q819,367 819,424Q819,478 801,527Q783,575 742,612Q700,648 633,669Q566,690 469,690L383,690ZM506,1079Q506,1124 528,1144Q550,1163 584,1163Q616,1163 638,1144Q659,1124 659,1079Q659,1036 638,1016Q616,995 584,995Q550,995 528,1016Q506,1036 506,1079ZM506,424Q506,469 528,489Q550,508 584,508Q616,508 638,489Q659,469 659,424Q659,381 638,361Q616,340 584,340Q550,340 528,361Q506,381 506,424Z"  transform="translate(32046, 1100)"/>
<path d="M438,1462L623,1462L967,1260L895,1137L623,1294L623,0L438,0L438,1300L156,1149L82,1272L438,1462Z"  transform="translate(33172, 1100)"/>
<path d="M199,1462L383,1462L383,774L727,571L655,449L383,606L383,0L199,0L199,1462Z"  transform="translate(34223, 1100)"/>
<path d="M1192,0L983,0L596,635L203,0L8,0L494,762L39,1462L244,1462L602,889L963,1462L1157,1462L705,766L1192,0Z"  transform="translate(35034, 1100)"/>
</svg>
