<svg width="24662" height="3909" viewBox="0 0 24662 3909" xmlns="http://www.w3.org/2000/svg">
    <defs/>
    <path fill="#000000" stroke="none" transform="matrix(1 0 0 -1 0 2689)" d="M 106 811 C 138 907.66666666667 192.66666666667 983 270 1037 C 346.66666666667 1091 439 1118 547 1118 C 689.66666666667 1118 801 1080.66666666667 881 1006 C 961 931.33333333333 1001 827.33333333333 1001 694 C 1001 464 883 283.33333333333 647 152 L 1090 152 L 1090 0 L 238 0 L 238 129 C 625.33333333333 217.66666666667 819 407.33333333333 819 698 C 819 777.33333333333 794 842 744 892 C 694 942 628.33333333333 967 547 967 C 484.33333333333 967 428.66666666667 947.33333333333 380 908 C 331.33333333333 868 296.66666666667 815.33333333333 276 750 L 106 811 Z"/>
    <path fill="#000000" stroke="none" transform="matrix(1 0 0 -1 1716 2689)" d="M 727 694 C 727 531.33333333333 677.33333333333 393.33333333333 578 280 C 478 166 318 66 98 -20 L 98 139 C 254 207 367 284 437 370 C 506.33333333333 455.33333333333 541 564.66666666667 541 698 C 541 776 517.33333333333 840.33333333333 470 891 C 422 941.66666666667 360.33333333333 967 285 967 C 223.66666666667 967 163.33333333333 954 104 928 L 104 1079 C 153.33333333333 1105 213.66666666667 1118 285 1118 C 423.66666666667 1118 532.66666666667 1079 612 1001 C 716.66666666667 1079 837.66666666667 1118 975 1118 C 1102.33333333333 1118 1202.66666666667 1081 1276 1007 C 1349.33333333333 932.33333333333 1386 828 1386 694 C 1386 547.33333333333 1328.66666666667 409 1214 279 C 1098.66666666667 148.33333333333 948.66666666667 48.66666666667 764 -20 L 764 139 C 909.33333333333 217 1018.33333333333 302 1091 394 C 1163.66666666667 485.33333333333 1200 586.66666666667 1200 698 C 1200 779.33333333333 1178.66666666667 844.66666666667 1136 894 C 1093.33333333333 942.66666666667 1035 967 961 967 C 873 967 783.33333333333 937.66666666667 692 879 C 715.33333333333 822.33333333333 727 760.66666666667 727 694 Z"/>
    <path fill="#000000" stroke="none" transform="matrix(1 0 0 -1 3213 2689)" d="M 422 170 C 342.66666666667 310.66666666667 280 461.66666666667 234 623 C 188 784.33333333333 162.66666666667 942.66666666667 158 1098 L 336 1098 C 338.66666666667 946.66666666667 363.66666666667 790 411 628 C 458.33333333333 465.33333333333 520.66666666667 320.33333333333 598 193 C 564 83 518 -15 460 -101 C 401.33333333333 -187 332 -266.66666666667 252 -340 L 940 -340 L 940 -492 L 0 -492 L 0 -354 C 206.66666666667 -223.33333333333 347.33333333333 -48.66666666667 422 170 Z"/>
    <path fill="#000000" stroke="none" transform="matrix(1 0 0 -1 4034 2689)" d="M 545 295 C 523 201.66666666667 489.66666666667 106.33333333333 445 9 C 399.66666666667 -88.33333333333 332 -204.66666666667 242 -340 L 973 -340 L 973 -492 L 20 -492 L 20 -354 C 90.66666666667 -272.66666666667 157.33333333333 -173 220 -55 C 282 62.33333333333 329.33333333333 177 362 289 C 350 418.33333333333 321.33333333333 557.33333333333 276 706 C 230 854 175.66666666667 984.66666666667 113 1098 L 315 1098 C 353 1026 390.66666666667 931.66666666667 428 815 C 468.66666666667 861 520.66666666667 898 584 926 C 647.33333333333 953.33333333333 710.66666666667 967 774 967 C 860.66666666667 967 938.66666666667 948.66666666667 1008 912 C 1076.66666666667 874.66666666667 1129.66666666667 822.33333333333 1167 755 C 1204.33333333333 687 1223 609.33333333333 1223 522 C 1223 443.33333333333 1201 369.33333333333 1157 300 C 1112.33333333333 230.66666666667 1051.66666666667 167.66666666667 975 111 L 846 223 C 904 257 950.33333333333 302 985 358 C 1019 413.33333333333 1036 468 1036 522 C 1036 608 1011.33333333333 677 962 729 C 912.66666666667 781 848.66666666667 807 770 807 C 708.66666666667 807 652 792.33333333333 600 763 C 548 733.66666666667 507 693 477 641 C 508.33333333333 515.66666666667 531 400.33333333333 545 295 Z"/>
    <path fill="#000000" stroke="none" transform="matrix(1 0 0 -1 5363 2689)" d="M 287 967 C 257 967 225.33333333333 962.66666666667 192 954 C 158 945.33333333333 132.33333333333 936.66666666667 115 928 L 63 1075 C 91 1088.33333333333 125.66666666667 1099 167 1107 C 208.33333333333 1114.33333333333 248.33333333333 1118 287 1118 C 406.33333333333 1118 498.33333333333 1094.66666666667 563 1048 C 627 1000.66666666667 659 932.66666666667 659 844 C 659 776 637.33333333333 715 594 661 C 550 607 476.33333333333 548.33333333333 373 485 C 489.66666666667 438.33333333333 578.66666666667 379 640 307 C 700.66666666667 235 731 153 731 61 C 731 -17.66666666667 705.66666666667 -94 655 -168 C 603.66666666667 -242.66666666667 538.33333333333 -300 459 -340 L 901 -340 L 901 -492 L 49 -492 L 49 -362 C 206.33333333333 -326 328.33333333333 -271.66666666667 415 -199 C 501.66666666667 -126.33333333333 545 -40.33333333333 545 59 C 545 113 528.66666666667 163.66666666667 496 211 C 463.33333333333 257.66666666667 418.66666666667 297.33333333333 362 330 C 305.33333333333 362.66666666667 245.33333333333 383.66666666667 182 393 L 182 545 C 252.66666666667 580.33333333333 309.33333333333 613.66666666667 352 645 C 394 675.66666666667 425 706.33333333333 445 737 C 465 767 475 802.66666666667 475 844 C 475 926 412.33333333333 967 287 967 Z"/>
    <path fill="#000000" stroke="none" transform="matrix(1 0 0 -1 6324 2689)" d="M 123 1083 C 184.33333333333 1106.33333333333 255.33333333333 1118 336 1118 C 455.33333333333 1118 550.66666666667 1079.66666666667 622 1003 C 693.33333333333 926.33333333333 729 823.33333333333 729 694 C 729 506 624 325.33333333333 414 152 L 840 152 C 1077.33333333333 316.66666666667 1196 498.66666666667 1196 698 C 1196 778 1176.33333333333 841.33333333333 1137 888 C 1097 934.66666666667 1042.33333333333 958 973 958 C 915 958 868.66666666667 950 834 934 L 778 1083 C 839.33333333333 1106.33333333333 910.33333333333 1118 991 1118 C 1110.33333333333 1118 1205.66666666667 1079.66666666667 1277 1003 C 1348.33333333333 926.33333333333 1384 823.33333333333 1384 694 C 1384 596 1357.66666666667 501 1305 409 C 1251.66666666667 317 1173 231.33333333333 1069 152 L 1460 152 L 1460 0 L 152 0 L 152 137 C 411.33333333333 305 541 492 541 698 C 541 776.66666666667 521.33333333333 839.66666666667 482 887 C 442 934.33333333333 387 958 317 958 C 259 958 212.66666666667 950 178 934 L 123 1083 Z"/>
    <path fill="#000000" stroke="none" transform="matrix(1 0 0 -1 8157 2689)" d="M 362 -143 L 362 688 L 543 688 L 543 -295 L -1079 -295 L -1079 -143 L 362 -143 Z"/>
    <path fill="#000000" stroke="none" transform="matrix(1 0 0 -1 9406 2689)" d="M 1378 739 C 1261.33333333333 739 1153.66666666667 761.66666666667 1055 807 L 1055 289 C 1055 236.33333333333 1058.66666666667 200.66666666667 1066 182 C 1073.33333333333 163.33333333333 1086 150.33333333333 1104 143 C 1122 135 1148 131 1182 131 C 1242.66666666667 131 1312.33333333333 138 1391 152 L 1391 0 C 1311 -13.33333333333 1237 -20 1169 -20 C 1092.33333333333 -20 1033 -10 991 10 C 949 30 919 62.66666666667 901 108 C 883 152.66666666667 874 216.33333333333 874 299 L 874 901 C 789.33333333333 945 710.33333333333 967 637 967 C 529.66666666667 967 447.66666666667 936.66666666667 391 876 C 333.66666666667 815.33333333333 305 726 305 608 C 305 521.33333333333 319.33333333333 423.66666666667 348 315 C 376.66666666667 206.33333333333 417 101.33333333333 469 0 L 285 0 C 238.33333333333 82 199.66666666667 180.33333333333 169 295 C 138.33333333333 409 123 513.33333333333 123 608 C 123 764 167.66666666667 888 257 980 C 346.33333333333 1072 464.66666666667 1118 612 1118 C 680.66666666667 1118 747 1108.66666666667 811 1090 C 875 1071.33333333333 941.33333333333 1043 1010 1005 C 1080 965.66666666667 1144.33333333333 937 1203 919 C 1261 900.33333333333 1320.66666666667 891 1382 891 C 1429.33333333333 891 1467 905.33333333333 1495 934 C 1522.33333333333 962 1536 996.66666666667 1536 1038 C 1536 1060 1533.33333333333 1080 1528 1098 L 1710 1098 C 1715.33333333333 1069.33333333333 1718 1048 1718 1034 C 1718 943.33333333333 1687.33333333333 871.66666666667 1626 819 C 1564.66666666667 765.66666666667 1482 739 1378 739 Z"/>
    <path fill="#000000" stroke="none" transform="matrix(1 0 0 -1 11165 2689)" d="M 328 967 C 298 967 266.33333333333 962.66666666667 233 954 C 199 945.33333333333 173.33333333333 936.66666666667 156 928 L 104 1075 C 132 1088.33333333333 166.66666666667 1099 208 1107 C 249.33333333333 1114.33333333333 289.33333333333 1118 328 1118 C 447.33333333333 1118 539.33333333333 1094.66666666667 604 1048 C 668 1000.66666666667 700 932.66666666667 700 844 C 700 775.33333333333 675.33333333333 713.33333333333 626 658 C 576.66666666667 602.66666666667 497 546.33333333333 387 489 C 527.66666666667 443.66666666667 635.33333333333 377.33333333333 710 290 C 784 202.66666666667 821 99.33333333333 821 -20 C 821 -150.66666666667 769.33333333333 -251.66666666667 666 -323 C 562 -394.33333333333 418.66666666667 -430 236 -430 C 193.33333333333 -430 143.33333333333 -426.33333333333 86 -419 C 28 -412.33333333333 -17.66666666667 -404.33333333333 -51 -395 L -51 -244 C -21 -252 24 -259.66666666667 84 -267 C 143.33333333333 -275 196.66666666667 -279 244 -279 C 367.33333333333 -279 463 -256.33333333333 531 -211 C 599 -165.66666666667 633 -102 633 -20 C 633 79.33333333333 596.66666666667 166.66666666667 524 242 C 450.66666666667 317.33333333333 350.33333333333 371 223 403 L 223 545 C 293.66666666667 582.33333333333 350.33333333333 617.33333333333 393 650 C 435 682 466 712.66666666667 486 742 C 506 771.33333333333 516 805.33333333333 516 844 C 516 926 453.33333333333 967 328 967 Z"/>
    <path fill="#000000" stroke="none" transform="matrix(1 0 0 -1 12064 2689)" d="M 659 942 C 610.33333333333 958.66666666667 561.33333333333 967 512 967 C 456 967 414 950 386 916 C 358 882 344 836 344 778 C 344 732.66666666667 355.33333333333 691.33333333333 378 654 C 400.66666666667 616.66666666667 433.33333333333 578.33333333333 476 539 C 518.66666666667 499 599 436 717 350 L 717 164 C 525 41.33333333333 314.66666666667 -20 86 -20 L 86 139 C 248 139 406.33333333333 177.33333333333 561 254 C 439.66666666667 345.33333333333 355.66666666667 415.33333333333 309 464 C 262.33333333333 512 226.66666666667 560.66666666667 202 610 C 176.66666666667 659.33333333333 164 713.33333333333 164 772 C 164 877.33333333333 196 961.33333333333 260 1024 C 324 1086.66666666667 408 1118 512 1118 C 580.66666666667 1118 645 1108.66666666667 705 1090 L 659 942 Z"/>
    <path fill="#000000" stroke="none" transform="matrix(1 0 0 -1 12904 2689)" d="M 1120 152 L 1266 152 L 1266 0 L 1120 0 L 1120 -246 L 940 -246 L 940 0 L 733 0 C 533 0 379.66666666667 47.33333333333 273 142 C 166.33333333333 236.66666666667 113 372.33333333333 113 549 C 113 727.66666666667 156.33333333333 867.33333333333 243 968 C 329.66666666667 1068 452 1118 610 1118 C 789.33333333333 1118 919.33333333333 1064.66666666667 1000 958 C 1080 850.66666666667 1120 675.33333333333 1120 432 L 1120 152 Z M 940 434 C 940 624.66666666667 914.66666666667 761.33333333333 864 844 C 812.66666666667 926 728.66666666667 967 612 967 C 403.33333333333 967 299 827 299 547 C 299 409.66666666667 338 309.66666666667 416 247 C 494 183.66666666667 607.33333333333 152 756 152 L 940 152 L 940 434 Z"/>
    <path fill="#000000" stroke="none" transform="matrix(1 0 0 -1 14219 2689)" d="M 1501 522 C 1514.33333333333 494.66666666667 1525.33333333333 461 1534 421 C 1542 381 1546 343 1546 307 C 1546 202.33333333333 1514.66666666667 122 1452 66 C 1389.33333333333 10 1302.66666666667 -18 1192 -18 C 1115.33333333333 -18 1050.66666666667 -2 998 30 C 944.66666666667 62 904 106 876 162 C 848 218 834 280.66666666667 834 350 C 834 393.33333333333 838.66666666667 431.66666666667 848 465 C 856.66666666667 497.66666666667 866.33333333333 528.66666666667 877 558 C 887.66666666667 586.66666666667 897.66666666667 615.33333333333 907 644 C 915.66666666667 672.66666666667 920 704.33333333333 920 739 C 920 811 902.33333333333 867 867 907 C 831 947 782.33333333333 967 721 967 C 659 967 611.33333333333 946.66666666667 578 906 C 544.66666666667 865.33333333333 528 809 528 737 C 528 703.66666666667 531.66666666667 673.33333333333 539 646 C 546.33333333333 618 554.66666666667 589.66666666667 564 561 C 572.66666666667 531.66666666667 581 500 589 466 C 596.33333333333 432 600 392.66666666667 600 348 C 600 234 562.66666666667 144.33333333333 488 79 C 413.33333333333 13 311.33333333333 -20 182 -20 C 119.33333333333 -20 62 -13.33333333333 10 0 L 10 158 C 61.33333333333 140 118.66666666667 131 182 131 C 263.33333333333 131 323.33333333333 148.33333333333 362 183 C 400.66666666667 217.66666666667 420 271.33333333333 420 344 C 420 382.66666666667 416.33333333333 418.66666666667 409 452 C 401 485.33333333333 392.66666666667 517.66666666667 384 549 C 374.66666666667 579.66666666667 366.33333333333 610.33333333333 359 641 C 351.66666666667 671 348 703 348 737 C 348 857.66666666667 380 951.33333333333 444 1018 C 508 1084.66666666667 601 1118 723 1118 C 843 1118 936 1085 1002 1019 C 1067.33333333333 952.33333333333 1100 859 1100 739 C 1100 705.66666666667 1095.33333333333 673 1086 641 C 1076 608.33333333333 1065.33333333333 576 1054 544 C 1042.66666666667 511.33333333333 1032.33333333333 479 1023 447 C 1013 414.33333333333 1008 381.33333333333 1008 348 C 1008 284 1025 232.33333333333 1059 193 C 1092.33333333333 153 1136.66666666667 133 1192 133 C 1308 133 1366 191 1366 307 C 1366 386.33333333333 1349.66666666667 458 1317 522 L 1501 522 Z"/>
    <path fill="#000000" stroke="none" transform="matrix(1 0 0 -1 15851 2689)" d="M 862 152 C 814 292.66666666667 742.33333333333 445.33333333333 647 610 L 408 1028 L 563 1118 L 803 700 C 877 568.66666666667 935 451.66666666667 977 349 C 1018.33333333333 246.33333333333 1055 130 1087 0 L 31 0 L 31 152 L 862 152 Z"/>
    <path fill="#000000" stroke="none" transform="matrix(1 0 0 -1 17630 2689)" d="M 393 967 C 272.33333333333 967 166 929.33333333333 74 854 L -16 987 C 46 1032.33333333333 110 1065.66666666667 176 1087 C 242 1107.66666666667 315.66666666667 1118 397 1118 C 545 1118 660 1080.66666666667 742 1006 C 823.33333333333 931.33333333333 864 827.33333333333 864 694 C 864 538.66666666667 804.33333333333 397.66666666667 685 271 C 565.66666666667 143.66666666667 399.33333333333 46.66666666667 186 -20 L 186 145 C 356.66666666667 218.33333333333 481.33333333333 299 560 387 C 638.66666666667 474.33333333333 678 578 678 698 C 678 779.33333333333 652 844.66666666667 600 894 C 547.33333333333 942.66666666667 478.33333333333 967 393 967 Z"/>
    <path fill="#000000" stroke="none" transform="matrix(1 0 0 -1 18627 2689)" d="M 10 891 C 81.33333333333 939 152.33333333333 979.33333333333 223 1012 C 204.33333333333 1049.33333333333 192.33333333333 1080.66666666667 187 1106 C 181 1131.33333333333 178 1161.33333333333 178 1196 C 178 1238 186.66666666667 1285 204 1337 C 220.66666666667 1389 240 1430.66666666667 262 1462 L 422 1462 C 366 1374 338 1286.66666666667 338 1200 C 338 1160.66666666667 349.66666666667 1117.66666666667 373 1071 C 474.33333333333 1102.33333333333 571.33333333333 1118 664 1118 C 833.33333333333 1118 966 1067.66666666667 1062 967 C 1158 865.66666666667 1206 727 1206 551 C 1206 372.33333333333 1157 232.66666666667 1059 132 C 961 30.66666666667 829.33333333333 -20 664 -20 C 568 -20 476.66666666667 -7 390 19 C 303.33333333333 44.33333333333 232.66666666667 80.33333333333 178 127 L 178 254 L 453 582 L 295 874 C 227 840.66666666667 160.66666666667 802.66666666667 96 760 L 10 891 Z M 334 201 C 435.33333333333 153 545.33333333333 129 664 129 C 779.33333333333 129 867.66666666667 164.66666666667 929 236 C 989.66666666667 306.66666666667 1020 411.66666666667 1020 551 C 1020 680.33333333333 988.66666666667 782 926 856 C 862.66666666667 930 775.33333333333 967 664 967 C 590 967 516.66666666667 955.33333333333 444 932 L 639 563 L 334 201 Z"/>
    <path fill="#000000" stroke="none" transform="matrix(1 0 0 -1 19944 2689)" d="M 547 526 C 547 468.66666666667 530.33333333333 404 497 332 C 463 260 420.33333333333 200 369 152 L 844 152 L 844 0 L 143 0 L 143 121 C 222.33333333333 191.66666666667 278.33333333333 257.33333333333 311 318 C 343.66666666667 378 360 447.33333333333 360 526 C 360 566.66666666667 350.66666666667 606.33333333333 332 645 C 313.33333333333 683.66666666667 281.66666666667 731.33333333333 237 788 C 154.33333333333 890 113 1002.66666666667 113 1126 C 113 1265.33333333333 158.66666666667 1375.33333333333 250 1456 C 340.66666666667 1536.66666666667 466.33333333333 1577 627 1577 C 683.66666666667 1577 738.66666666667 1571 792 1559 C 845.33333333333 1546.33333333333 886.33333333333 1532.66666666667 915 1518 L 860 1374 C 769.33333333333 1408 690.33333333333 1425 623 1425 C 407 1425 299 1324 299 1122 C 299 1074 309 1027.33333333333 329 982 C 349 936.66666666667 380.33333333333 887.33333333333 423 834 C 465 780.66666666667 496.33333333333 729.33333333333 517 680 C 537 630 547 578.66666666667 547 526 Z"/>
    <path fill="#000000" stroke="none" transform="matrix(1 0 0 -1 20839 2689)" d="M 356 563 C 390.66666666667 571 427.66666666667 575 467 575 C 599 575 704.33333333333 537 783 461 C 861.66666666667 385 901 284.66666666667 901 160 C 901 38 865.33333333333 -62.66666666667 794 -142 C 722.66666666667 -222 614.33333333333 -277 469 -307 C 377 -325 300.33333333333 -347.33333333333 239 -374 C 177 -401.33333333333 116.33333333333 -440.66666666667 57 -492 L 57 -293 C 143.66666666667 -231.66666666667 260 -186.66666666667 406 -158 C 513.33333333333 -136.66666666667 591.66666666667 -101 641 -51 C 690.33333333333 -1 715 68.66666666667 715 158 C 715 242.66666666667 689 308.33333333333 637 355 C 585 401 514 424 424 424 C 382 424 337 417 289 403 C 240.33333333333 388.33333333333 202.66666666667 370.66666666667 176 350 L 176 1556 L 356 1556 L 356 563 Z"/>
    <path fill="#000000" stroke="none" transform="matrix(1 0 0 -1 21826 2689)" d="M 30 152 L 505 152 L 300 1098 L 486 1098 L 691 152 L 1088 152 L 1088 1098 L 1269 1098 L 1269 0 L 30 0 L 30 152 Z"/>
    <path fill="#000000" stroke="none" transform="matrix(1 0 0 -1 23269 2689)" d="M 645 184 C 643.66666666667 69.33333333333 618.66666666667 -30.33333333333 570 -115 C 520.66666666667 -199.66666666667 451.33333333333 -274.66666666667 362 -340 L 987 -340 L 987 -492 L 102 -492 L 102 -362 C 194 -290 263.33333333333 -230 310 -182 C 356.66666666667 -134 391.33333333333 -87.66666666667 414 -43 C 436 1 450.33333333333 55 457 119 C 368.33333333333 190.33333333333 298.66666666667 257.33333333333 248 320 C 196.66666666667 382 160.33333333333 444.33333333333 139 507 C 117 569.66666666667 106 645 106 733 C 106 804.33333333333 123.33333333333 869.66666666667 158 929 C 192 988.33333333333 239.66666666667 1034.66666666667 301 1068 C 361.66666666667 1101.33333333333 429.33333333333 1118 504 1118 C 610 1118 693.33333333333 1088.66666666667 754 1030 C 814 971.33333333333 844 889.33333333333 844 784 C 844 696.66666666667 856 635.33333333333 880 600 C 903.33333333333 564.66666666667 943 547 999 547 C 1046.33333333333 547 1081.66666666667 564.33333333333 1105 599 C 1127.66666666667 633.66666666667 1139 689.33333333333 1139 766 C 1139 818.66666666667 1136 863.66666666667 1130 901 L 1296 901 C 1303.33333333333 863 1307 818 1307 766 C 1307 647.33333333333 1280.33333333333 556 1227 492 C 1173.66666666667 427.33333333333 1095.66666666667 395 993 395 C 787 395 684 510.33333333333 684 741 C 684 817 669 873.66666666667 639 911 C 608.33333333333 948.33333333333 560.66666666667 967 496 967 C 432.66666666667 967 382 945.33333333333 344 902 C 306 858.66666666667 287 801 287 729 C 287 633.66666666667 313.66666666667 545 367 463 C 419.66666666667 380.33333333333 512.33333333333 287.33333333333 645 184 Z"/>
</svg>
