<svg width="45261" height="3789" viewBox="0 0 45261 3789" xmlns="http://www.w3.org/2000/svg">
    <defs/>
    <path fill="#000000" stroke="none" transform="matrix(1 0 0 -1 0 2689)" d="M 150 952 C 150 990.66666666667 160.66666666667 1035 182 1085 L 360 1503 L 510 1450 L 334 1047 C 322.66666666667 1023 317 997.66666666667 317 971 C 317 946.33333333333 324 925.66666666667 338 909 C 351.33333333333 891.66666666667 376 874.66666666667 412 858 L 459 838 C 577.66666666667 785.33333333333 637 708.66666666667 637 608 C 637 565.33333333333 626.66666666667 521 606 475 L 387 -20 L 238 33 L 453 514 C 466.33333333333 542.66666666667 473 568 473 590 C 473 614.66666666667 465.66666666667 635.66666666667 451 653 C 436.33333333333 669.66666666667 411.66666666667 686 377 702 L 328 723 C 209.33333333333 773.66666666667 150 850 150 952 Z"/>
    <path fill="#000000" stroke="none" transform="matrix(1 0 0 -1 788 2689)" d="M 1012 735 L 391 735 L 391 0 L 231 0 L 231 1462 L 391 1462 L 391 877 L 1012 877 L 1012 735 Z"/>
    <path fill="#000000" stroke="none" transform="matrix(1 0 0 -1 1892 2689)" d="M 791 0 L 563 0 L 115 1415 L 279 1464 L 563 590 C 590.33333333333 508.66666666667 615 424.33333333333 637 337 C 659 249 672.66666666667 179 678 127 L 688 127 C 696 184.33333333333 711 256 733 342 C 755 428 778.33333333333 508.66666666667 803 584 L 1079 1464 L 1235 1409 L 791 0 Z"/>
    <path fill="#000000" stroke="none" transform="matrix(1 0 0 -1 3242 2689)" d="M 735 0 L 735 436 C 735 545.33333333333 742 619.66666666667 756 659 L 748 664 C 734.66666666667 643.33333333333 710 615 674 579 C 638 543 606 514.66666666667 578 494 L 236 215 L 143 342 L 506 635 C 532 656.33333333333 566 677.33333333333 608 698 C 650 718.66666666667 692.33333333333 735.33333333333 735 748 L 735 756 C 655 772 578.66666666667 808.66666666667 506 866 L 137 1161 L 236 1284 L 578 1010 C 606 988 638 958.66666666667 674 922 C 710 884.66666666667 734.66666666667 856.66666666667 748 838 L 756 842 C 750 859.33333333333 745 889.33333333333 741 932 C 737 974.66666666667 735 1019 735 1065 L 735 1462 L 895 1462 L 895 1065 C 895 1025.66666666667 892.66666666667 983 888 937 C 883.33333333333 891 878 859.33333333333 872 842 L 881 838 C 897 859.33333333333 923.66666666667 888.66666666667 961 926 C 997.66666666667 963.33333333333 1028.33333333333 991.33333333333 1053 1010 L 1393 1284 L 1491 1161 L 1124 866 C 1050 808.66666666667 973.66666666667 772 895 756 L 895 748 C 934.33333333333 736.66666666667 975.66666666667 720.33333333333 1019 699 C 1061.66666666667 677.66666666667 1096.66666666667 656.33333333333 1124 635 L 1485 342 L 1393 215 L 1053 494 C 1025.66666666667 514.66666666667 994.33333333333 542.33333333333 959 577 C 923.66666666667 611 897.66666666667 640 881 664 L 872 659 C 878 642.33333333333 883.33333333333 611 888 565 C 892.66666666667 518.33333333333 895 475.33333333333 895 436 L 895 0 L 735 0 Z"/>
    <path fill="#000000" stroke="none" transform="matrix(1 0 0 -1 4872 2689)" d="M 1257 770 L 1380 662 L 803 0 L 743 0 L 162 664 L 287 772 L 766 207 L 1257 770 Z M 707 756 L 162 1378 L 287 1487 L 766 922 L 1257 1485 L 1380 1376 L 838 756 L 707 756 Z"/>
    <path fill="#000000" stroke="none" transform="matrix(1 0 0 -1 6414 2689)" d="M 1083 735 L 666 735 L 666 0 L 508 0 L 508 735 L 92 735 L 92 877 L 508 877 L 508 1462 L 666 1462 L 666 877 L 1083 877 L 1083 735 Z"/>
    <path fill="#000000" stroke="none" transform="matrix(1 0 0 -1 8122 2689)" d="M 1180 0 L 244 0 L 244 141 L 633 141 L 633 901 C 633 1018.33333333333 637.66666666667 1139.33333333333 647 1264 L 639 1264 C 612.33333333333 1215.33333333333 571.33333333333 1164.66666666667 516 1112 L 244 848 L 137 956 L 666 1483 L 758 1483 L 1288 954 L 1180 848 L 911 1112 C 849 1174 806 1224.66666666667 782 1264 L 774 1264 L 781 1184 C 789 1087.33333333333 793 993 793 901 L 793 141 L 1180 141 L 1180 0 Z"/>
    <path fill="#000000" stroke="none" transform="matrix(1 0 0 -1 9549 2689)" d="M 1010 487 L 1016 477 C 1069.33333333333 483.66666666667 1140.33333333333 487 1229 487 L 1335 487 L 1335 344 L 555 344 L 555 487 L 688 487 C 759.33333333333 487 827 483.66666666667 891 477 L 895 487 C 850.33333333333 515.66666666667 802 557.33333333333 750 612 L 444 918 L 176 666 L 70 770 L 428 1112 L 479 1112 L 954 635 L 1432 1112 L 1481 1112 L 1837 770 L 1726 664 L 1464 918 L 1135 596 C 1103 565.33333333333 1080 543.66666666667 1066 531 C 1051.33333333333 518.33333333333 1032.66666666667 503.66666666667 1010 487 Z"/>
    <path fill="#000000" stroke="none" transform="matrix(1 0 0 -1 11454 2689)" d="M 842 815 L 842 655 L 268 -6 L 147 98 L 696 735 L 137 1382 L 258 1487 L 842 815 Z M 942 811 L 942 1462 L 1102 1462 L 1102 811 L 942 811 Z M 942 0 L 942 651 L 1102 651 L 1102 0 L 942 0 Z"/>
    <path fill="#000000" stroke="none" transform="matrix(1 0 0 -1 12787 2689)" d="M 524 641 C 388 708.33333333333 293.66666666667 775.66666666667 241 843 C 188.33333333333 909.66666666667 162 992 162 1090 C 162 1157.33333333333 180 1221.66666666667 216 1283 C 252 1344.33333333333 300.66666666667 1393 362 1429 C 423.33333333333 1465 489.66666666667 1483 561 1483 C 646.33333333333 1483 722 1469 788 1441 C 854 1413 925 1364.66666666667 1001 1296 L 911 1169 C 849 1225 788 1267 728 1295 C 668 1323 611.66666666667 1337 559 1337 C 521 1337 484.33333333333 1326.33333333333 449 1305 C 413.66666666667 1283 385 1253 363 1215 C 341 1176.33333333333 330 1136 330 1094 C 330 1040.66666666667 340.33333333333 997.33333333333 361 964 C 381 930 416 896 466 862 C 515.33333333333 827.33333333333 605.66666666667 778.33333333333 737 715 L 403 -20 L 254 43 L 524 641 Z"/>
    <path fill="#000000" stroke="none" transform="matrix(1 0 0 -1 13856 2689)" d="M 1176 526 L 758 526 L 758 0 L 600 0 L 600 526 L 184 526 L 184 668 L 600 668 L 600 944 L 184 944 L 184 1085 L 600 1085 L 600 1462 L 758 1462 L 758 1085 L 1176 1085 L 1176 944 L 758 944 L 758 668 L 1176 668 L 1176 526 Z"/>
    <path fill="#000000" stroke="none" transform="matrix(1 0 0 -1 15216 2689)" d="M 862 918 L 1362 1487 L 1491 1393 L 973 799 L 1610 74 L 1481 -20 L 862 678 L 244 -20 L 115 74 L 752 799 L 233 1393 L 362 1487 L 862 918 Z M 936 412 C 936 331.33333333333 941.33333333333 274 952 240 C 962 206 979.33333333333 181.66666666667 1004 167 C 1028.66666666667 152.33333333333 1068.66666666667 145 1124 145 L 1161 145 L 1161 0 L 1124 0 C 1028 0 956 11.66666666667 908 35 C 860 57.66666666667 826 96.33333333333 806 151 C 786 205.66666666667 776 290.66666666667 776 406 L 776 465 L 936 465 L 936 412 Z"/>
    <path fill="#000000" stroke="none" transform="matrix(1 0 0 -1 17474 2689)" d="M 1026 836 L 602 836 L 602 0 L 442 0 L 442 1321 L 137 1321 L 137 1462 L 1130 1462 L 1130 1321 L 602 1321 L 602 977 L 1026 977 L 1026 836 Z"/>
    <path fill="#000000" stroke="none" transform="matrix(1 0 0 -1 18742 2689)" d="M 236 -10 L 115 88 L 578 741 L 233 1253 L 365 1343 L 735 793 L 735 690 L 236 -10 Z M 969 690 L 969 793 L 1333 1343 L 1462 1251 L 1128 741 L 1589 88 L 1468 -10 L 969 690 Z M 811 942 L 508 1397 L 631 1481 L 858 1141 L 1079 1483 L 1212 1395 L 909 942 L 811 942 Z"/>
    <path fill="#000000" stroke="none" transform="matrix(1 0 0 -1 20446 2689)" d="M 909 0 L 324 0 L 324 141 L 539 141 L 539 727 L 137 1130 L 248 1243 L 621 870 L 997 1245 L 1047 1245 L 1350 950 L 1239 844 L 1030 1051 L 698 733 L 698 141 L 909 141 L 909 0 Z M 909 1321 L 324 1321 L 324 1462 L 909 1462 L 909 1321 Z"/>
    <path fill="#000000" stroke="none" transform="matrix(1 0 0 -1 21865 2689)" d="M 236 -10 L 115 88 L 578 741 L 125 1407 L 256 1497 L 735 793 L 735 690 L 236 -10 Z M 969 690 L 969 793 L 1450 1507 L 1579 1407 L 1128 741 L 1589 88 L 1468 -10 L 969 690 Z M 909 537 L 1212 82 L 1087 -2 L 860 338 L 639 -4 L 508 84 L 811 537 L 909 537 Z"/>
    <path fill="#000000" stroke="none" transform="matrix(1 0 0 -1 23569 2689)" d="M 885 12 L 1182 823 L 1178 834 C 1146 826.66666666667 1075 823 965 823 L 801 823 L 801 965 L 1192 965 L 1192 1462 L 1352 1462 L 1352 965 L 1747 965 L 1747 823 L 1610 823 C 1478 823 1397.33333333333 826.66666666667 1368 834 L 1362 823 L 1659 12 L 1491 -8 L 1337 424 C 1326.33333333333 455.33333333333 1313.66666666667 500 1299 558 C 1284.33333333333 616 1276 654.66666666667 1274 674 L 1266 674 C 1264 653.33333333333 1256.66666666667 618.33333333333 1244 569 C 1231.33333333333 519 1216.66666666667 470 1200 422 L 1049 -8 L 885 12 Z M 555 739 C 555 889.66666666667 521.66666666667 1020 455 1130 C 387.66666666667 1239.33333333333 297.33333333333 1316 184 1360 L 248 1485 C 338.66666666667 1452.33333333333 420 1399.66666666667 492 1327 C 563.33333333333 1254.33333333333 619 1167 659 1065 C 699 962.33333333333 719 853.66666666667 719 739 C 719 624.33333333333 699 516 659 414 C 619 312 563 224.66666666667 491 152 C 419 78.66666666667 338 26 248 -6 L 184 119 C 298 163 388.33333333333 240 455 350 C 521.66666666667 460 555 589.66666666667 555 739 Z"/>
    <path fill="#000000" stroke="none" transform="matrix(1 0 0 -1 25431 2689)" d="M 516 762 L 674 762 L 674 0 L 516 0 L 516 762 Z M 805 1276 L 240 614 L 115 723 L 780 1483 L 840 1483 L 1505 723 L 1382 614 L 805 1276 Z M 946 762 L 1106 762 L 1106 0 L 946 0 L 946 762 Z"/>
    <path fill="#000000" stroke="none" transform="matrix(1 0 0 -1 27585 2689)" d="M 244 801 L 516 537 C 558.66666666667 495 599.66666666667 436.66666666667 639 362 L 647 362 C 637.66666666667 488 633 616.66666666667 633 748 L 633 1462 L 793 1462 L 793 748 C 793 618.66666666667 786.66666666667 490 774 362 L 782 362 C 825.33333333333 435.33333333333 868.33333333333 493.66666666667 911 537 L 1180 801 L 1288 694 L 737 141 L 1180 141 L 1180 0 L 244 0 L 244 141 L 690 141 L 137 692 L 244 801 Z"/>
    <path fill="#000000" stroke="none" transform="matrix(1 0 0 -1 29012 2689)" d="M 115 106 C 263.66666666667 207.33333333333 395.33333333333 315.33333333333 510 430 C 404.66666666667 549.33333333333 324 664.66666666667 268 776 C 212 887.33333333333 184 988.33333333333 184 1079 C 184 1164.33333333333 201.66666666667 1239.33333333333 237 1304 C 271.66666666667 1368.66666666667 320.33333333333 1418 383 1452 C 445.66666666667 1486 517.33333333333 1503 598 1503 C 678 1503 749.66666666667 1486 813 1452 C 875.66666666667 1417.33333333333 924.66666666667 1368 960 1304 C 994.66666666667 1239.33333333333 1012 1164.33333333333 1012 1079 C 1012 897.66666666667 911.66666666667 684.66666666667 711 440 C 845.66666666667 305.33333333333 982 194 1120 106 L 1032 -23 C 886 70.33333333333 744.66666666667 186.66666666667 608 326 C 473.33333333333 181.33333333333 339.66666666667 65 207 -23 L 115 106 Z M 338 1079 C 338 930.33333333333 430 751.66666666667 614 543 C 775.33333333333 732.33333333333 856 911 856 1079 C 856 1164.33333333333 833.33333333333 1230.66666666667 788 1278 C 742 1324.66666666667 678.66666666667 1348 598 1348 C 516.66666666667 1348 453 1324.66666666667 407 1278 C 361 1231.33333333333 338 1165 338 1079 Z"/>
    <path fill="#000000" stroke="none" transform="matrix(1 0 0 -1 30247 2689)" d="M 936 872 C 936 758 930.66666666667 647.66666666667 920 541 L 928 537 C 948.66666666667 573.66666666667 991.66666666667 613.66666666667 1057 657 L 1440 924 L 1208 1139 L 1317 1257 L 1626 967 L 1626 870 L 1128 522 C 1061.33333333333 476.66666666667 995.33333333333 440.66666666667 930 414 L 936 403 C 965.33333333333 410.33333333333 1061 414 1223 414 L 1358 414 L 1358 266 L 362 266 L 362 414 L 569 414 C 679 414 750 410.33333333333 782 403 L 788 414 C 716.66666666667 444.66666666667 651.33333333333 480.66666666667 592 522 L 92 870 L 92 967 L 401 1257 L 508 1139 L 279 926 L 659 657 C 723 611.66666666667 764 571.66666666667 782 537 L 793 541 C 781.66666666667 654.33333333333 776 764.66666666667 776 872 L 776 961 L 936 961 L 936 872 Z"/>
    <path fill="#000000" stroke="none" transform="matrix(1 0 0 -1 31963 2689)" d="M 885 813 C 885 695.66666666667 901.33333333333 613.33333333333 934 566 C 966.66666666667 518 1026 494 1112 494 L 1278 494 L 1278 344 L 1112 344 C 1002.66666666667 344 923 359 873 389 C 823 418.33333333333 786.33333333333 467 763 535 C 739 603 727 694.33333333333 727 809 L 727 950 L 885 950 L 885 813 Z M 1278 0 L 315 0 L 315 141 L 1278 141 L 1278 0 Z M 805 1276 L 240 614 L 115 723 L 780 1483 L 840 1483 L 1505 723 L 1382 614 L 805 1276 Z"/>
    <path fill="#000000" stroke="none" transform="matrix(1 0 0 -1 33608 2689)" d="M 317 -6 L 162 6 L 371 1462 L 1110 1462 L 1319 6 L 1161 -6 L 973 1319 L 506 1319 L 317 -6 Z"/>
    <path fill="#000000" stroke="none" transform="matrix(1 0 0 -1 35087 2689)" d="M 1217 920 L 391 920 L 391 0 L 231 0 L 231 1462 L 391 1462 L 391 1061 L 649 1061 L 649 1462 L 809 1462 L 809 1061 L 1057 1061 L 1057 1462 L 1217 1462 L 1217 920 Z"/>
    <path fill="#000000" stroke="none" transform="matrix(1 0 0 -1 36973 2689)" d="M 573 977 L 1217 977 L 1217 836 L 553 836 L 432 -6 L 272 6 L 463 1321 L 162 1321 L 162 1462 L 1217 1462 L 1217 1321 L 625 1321 L 573 977 Z M 1057 0 L 1057 651 L 1217 651 L 1217 0 L 1057 0 Z M 764 145 L 764 651 L 924 651 L 924 145 L 764 145 Z"/>
    <path fill="#000000" stroke="none" transform="matrix(1 0 0 -1 38396 2689)" d="M 670 1122 L 397 1386 L 496 1481 L 715 1278 L 932 1483 L 1028 1386 L 758 1122 L 670 1122 Z M 1180 240 C 1064.66666666667 352.66666666667 977.33333333333 438.33333333333 918 497 C 858.66666666667 555 810.66666666667 614.66666666667 774 676 L 766 676 C 784 543.33333333333 793 415.66666666667 793 293 L 793 0 L 633 0 L 633 293 C 633 440.33333333333 640.33333333333 568 655 676 L 647 676 C 611 610 567.33333333333 552.66666666667 516 504 L 244 240 L 137 348 L 586 793 L 168 1198 L 279 1311 L 713 883 L 1149 1313 L 1260 1198 L 838 793 L 1288 346 L 1180 240 Z"/>
    <path fill="#000000" stroke="none" transform="matrix(1 0 0 -1 39823 2689)" d="M 553 0 C 419 147.33333333333 316.33333333333 299 245 455 C 173 610.33333333333 137 766.66666666667 137 924 C 137 1038.66666666667 154.66666666667 1138.66666666667 190 1224 C 225.33333333333 1309.33333333333 277.33333333333 1375 346 1421 C 414.66666666667 1466.33333333333 497.33333333333 1489 594 1489 C 737.33333333333 1489 849 1439.66666666667 929 1341 C 1009 1241.66666666667 1049 1102.66666666667 1049 924 C 1049 767.33333333333 1013.33333333333 611.33333333333 942 456 C 870.66666666667 300 767.66666666667 148 633 0 L 553 0 Z M 297 924 C 297 786.66666666667 323 653.66666666667 375 525 C 427 395.66666666667 500 276.66666666667 594 168 C 689.33333333333 278 762.66666666667 397.66666666667 814 527 C 865.33333333333 656.33333333333 891 788.66666666667 891 924 C 891 1060 865.66666666667 1163.66666666667 815 1235 C 764.33333333333 1305.66666666667 690.66666666667 1341 594 1341 C 497.33333333333 1341 423.66666666667 1305 373 1233 C 322.33333333333 1161 297 1058 297 924 Z"/>
    <path fill="#000000" stroke="none" transform="matrix(1 0 0 -1 41009 2689)" d="M 92 0 L 92 141 L 530 141 C 436.66666666667 267 366.33333333333 396.33333333333 319 529 C 271.66666666667 661.66666666667 248 793.33333333333 248 924 C 248 1038.66666666667 265.66666666667 1138.66666666667 301 1224 C 336.33333333333 1309.33333333333 388.33333333333 1375 457 1421 C 525.66666666667 1466.33333333333 608.33333333333 1489 705 1489 C 848.33333333333 1489 960 1439.33333333333 1040 1340 C 1119.33333333333 1240.66666666667 1159 1102 1159 924 C 1159 658.66666666667 1064 397.66666666667 874 141 L 1317 141 L 1317 0 L 92 0 Z M 406 924 C 406 788.66666666667 431.33333333333 653.33333333333 482 518 C 532.66666666667 382.66666666667 607 258.33333333333 705 145 C 801 257.66666666667 875 381.66666666667 927 517 C 978.33333333333 651.66666666667 1004 787.33333333333 1004 924 C 1004 1058.66666666667 978.66666666667 1162 928 1234 C 877.33333333333 1305.33333333333 803 1341 705 1341 C 607.66666666667 1341 533.66666666667 1305.33333333333 483 1234 C 431.66666666667 1162.66666666667 406 1059.33333333333 406 924 Z"/>
    <path fill="#000000" stroke="none" transform="matrix(1 0 0 -1 42416 2689)" d="M 1004 379 C 1004 298.33333333333 985.66666666667 228 949 168 C 911.66666666667 107.33333333333 859.66666666667 61 793 29 C 725.66666666667 -3.66666666667 651.66666666667 -20 571 -20 C 489.66666666667 -20 415.66666666667 -3.33333333333 349 30 C 281.66666666667 62.66666666667 229.66666666667 109 193 169 C 155.66666666667 229 137 299 137 379 C 137 459.66666666667 161.66666666667 532 211 596 C 260.33333333333 659.33333333333 330 708.33333333333 420 743 C 320.66666666667 804.33333333333 252.66666666667 863.33333333333 216 920 C 178.66666666667 976.66666666667 160 1044 160 1122 C 160 1190.66666666667 178.66666666667 1252.33333333333 216 1307 C 252.66666666667 1361 303.66666666667 1403.33333333333 369 1434 C 433.66666666667 1464 503.33333333333 1479 578 1479 C 651.33333333333 1479 719.33333333333 1464.33333333333 782 1435 C 844 1405 892.66666666667 1363 928 1309 C 963.33333333333 1255 981 1192.66666666667 981 1122 C 981 1052 958.33333333333 985.66666666667 913 923 C 867.66666666667 860.33333333333 803.66666666667 807.33333333333 721 764 C 807 730 875.66666666667 678 927 608 C 978.33333333333 538 1004 461.66666666667 1004 379 Z M 838 371 C 838 523 748.33333333333 634.33333333333 569 705 C 391.66666666667 637.66666666667 303 526.33333333333 303 371 C 303 295.66666666667 327.33333333333 236 376 192 C 424.66666666667 147.33333333333 488.33333333333 125 567 125 C 648.33333333333 125 714 147 764 191 C 813.33333333333 234.33333333333 838 294.33333333333 838 371 Z M 817 1120 C 817 1182.66666666667 793.66666666667 1234.33333333333 747 1275 C 699.66666666667 1315 641 1335 571 1335 C 503 1335 445 1315 397 1275 C 348.33333333333 1235 324 1184 324 1122 C 324 1054 345 994.33333333333 387 943 C 429 891 489.66666666667 845 569 805 C 734.33333333333 887.66666666667 817 992.66666666667 817 1120 Z"/>
    <path fill="#000000" stroke="none" transform="matrix(1 0 0 -1 43557 2689)" d="M 1014 1485 L 1214 1253 L 1108 1157 L 907 1391 L 1014 1485 Z M 844 1333 L 1044 1102 L 936 1006 L 737 1239 L 844 1333 Z M 236 -10 L 115 88 L 578 741 L 233 1253 L 365 1343 L 735 793 L 735 690 L 236 -10 Z M 969 690 L 969 793 L 1333 1343 L 1462 1243 L 1128 741 L 1589 88 L 1468 -10 L 969 690 Z"/>
</svg>
