<svg xmlns="http://www.w3.org/2000/svg" viewBox="0 0 40503 3789" transform="translate(0, 3789) scale(1, -1)">
<path d="M1579,1497Q1778,1379 1884,1181Q1989,982 1989,731Q1989,502 1922,332Q1855,161 1731,71Q1606,-20 1440,-20Q1296,-20 1196,62Q1096,144 1057,289L1051,289Q949,-20 668,-20Q505,-20 382,69Q259,157 192,324Q125,491 125,719Q125,1253 555,1493L659,1370Q483,1264 400,1105Q317,946 317,719Q317,544 362,414Q406,284 488,216Q569,147 674,147Q830,147 897,270Q963,392 963,653L963,1421L1147,1421L1147,653Q1147,388 1217,268Q1286,147 1438,147Q1540,147 1622,216Q1703,284 1749,414Q1794,543 1794,719Q1794,943 1703,1114Q1612,1284 1444,1380L1579,1497Z"  transform="translate(0, 1100)"/>
<path d="M942,0L762,0L762,465Q451,482 275,664Q98,846 98,1147L98,1278L283,1278L283,1167Q283,923 410,778Q537,632 762,623L762,1462L942,1462L942,623Q1170,642 1296,781Q1421,919 1421,1163L1421,1278L1610,1278L1610,1145Q1610,961 1529,810Q1448,659 1298,569Q1147,478 942,465L942,0Z"  transform="translate(2114, 1100)"/>
<path d="M758,1462Q876,1462 942,1433Q1007,1403 1036,1346Q1065,1288 1065,1147L891,1147Q891,1233 850,1266Q808,1298 698,1298L383,1298L383,0L199,0L199,1462L758,1462Z"  transform="translate(3822, 1100)"/>
<path d="M518,911Q401,971 346,1020Q291,1068 264,1125Q236,1182 236,1257Q236,1390 353,1477Q469,1563 653,1563Q862,1563 1090,1446L1020,1294Q835,1401 647,1401Q545,1401 484,1360Q422,1318 422,1253Q422,1206 441,1173Q460,1139 497,1111Q534,1083 588,1056Q642,1029 711,995Q874,917 963,842Q1051,766 1097,674Q1143,581 1143,463Q1143,321 1080,211Q1016,101 896,41Q775,-20 614,-20Q386,-20 246,106Q106,232 106,438Q106,604 210,725Q314,845 518,911ZM956,461Q956,574 893,661Q830,747 674,829Q531,789 454,739Q377,688 336,615Q295,542 295,442Q295,305 382,222Q468,139 612,139Q774,139 865,227Q956,314 956,461Z"  transform="translate(4895, 1100)"/>
<path d="M469,889Q785,889 927,811Q1069,732 1069,561Q1069,415 930,312Q791,209 532,156L532,147Q584,154 672,159Q759,164 809,164L1092,164L1092,0L78,0L78,164Q228,178 328,201Q856,320 856,541Q856,652 758,697Q660,741 432,741L201,741L201,879L799,1313L799,1317Q633,1298 330,1298L102,1298L102,1462L1051,1462L1051,1315L469,895L469,889Z"  transform="translate(6132, 1100)"/>
<path d="M596,901Q735,897 847,840Q959,783 1021,684Q1083,584 1083,453Q1083,229 928,105Q773,-20 494,-20Q235,-20 72,59L72,227Q172,179 285,155Q398,131 496,131Q695,131 793,215Q891,299 891,455Q891,597 790,675Q689,752 496,752L369,752L369,885L791,1298L113,1298L113,1462L1022,1462L1022,1317L596,901Z"  transform="translate(7303, 1100)"/>
<path d=""  transform="translate(8499, 1100)"/>
<path d="M936,1462Q1227,1462 1227,1169L1051,1169Q1051,1300 926,1300L717,1300L717,0L532,0L532,1300L324,1300Q199,1300 199,1169L23,1169Q23,1462 313,1462L936,1462Z"  transform="translate(9031, 1100)"/>
<path d="M825,1321Q589,1321 454,1163Q319,1005 319,731Q319,448 450,295Q581,141 823,141Q979,141 1174,199L1174,39Q1081,5 995,-7Q909,-20 797,-20Q474,-20 300,177Q125,373 125,733Q125,959 209,1129Q292,1299 452,1391Q611,1483 827,1483Q1059,1483 1231,1397L1157,1241Q982,1321 825,1321Z"  transform="translate(10280, 1100)"/>
<path d="M1135,1032Q1135,808 982,689Q829,569 551,569L383,569L383,0L199,0L199,1462L586,1462Q1135,1462 1135,1032ZM383,727L530,727Q748,727 846,798Q944,868 944,1024Q944,1165 853,1235Q762,1305 569,1305L383,1305L383,727Z"  transform="translate(11574, 1100)"/>
<path d="M717,0L532,0L532,1079L324,1079Q199,1079 199,948L23,948Q23,1241 313,1241L532,1241L532,1462L717,1462L717,1241L936,1241Q1227,1241 1227,948L1051,948Q1051,1079 926,1079L717,1079L717,0Z"  transform="translate(12813, 1100)"/>
<path d="M57,819L1231,819L1231,655L57,655L57,819ZM57,1462L1231,1462L1231,1300L57,1300L57,1462ZM1231,162L1231,0L57,0L57,162L1231,162Z"  transform="translate(14062, 1100)"/>
<path d="M926,516Q1152,528 1268,651Q1384,773 1384,995Q1384,1165 1329,1245Q1273,1325 1157,1325Q926,1325 926,1014L926,516ZM741,1026Q741,1236 854,1360Q966,1483 1161,1483Q1575,1483 1575,1004Q1575,822 1499,680Q1422,538 1277,455Q1132,371 926,358L926,-334L741,-334L741,358Q451,374 297,528Q143,682 143,958L143,1462L328,1462L328,971Q328,765 436,646Q544,527 741,516L741,1026Z"  transform="translate(15352, 1100)"/>
<path d=""  transform="translate(17040, 1100)"/>
<path d="M645,0L645,1098L801,1098L801,0L645,0ZM174,0L174,1098L332,1098L332,0L174,0ZM1114,1098L1272,1098L1272,0L1114,0L1114,1098Z"  transform="translate(17572, 1100)"/>
<path d="M1372,549Q1372,304 1229,154Q1085,4 829,-16L829,-492L653,-492L653,-16Q401,5 256,155Q111,305 111,549Q111,799 255,947Q399,1094 659,1114L659,1556L829,1556L829,1114Q1082,1089 1227,939Q1372,789 1372,549ZM299,549Q299,168 659,131L659,965Q471,946 385,841Q299,735 299,549ZM1186,549Q1186,924 829,963L829,131Q1186,170 1186,549Z"  transform="translate(19018, 1100)"/>
<path d="M434,561L55,1098L260,1098L543,684L823,1098L1026,1098L647,561L1047,0L842,0L543,438L240,0L37,0L434,561Z"  transform="translate(20503, 1100)"/>
<path d="M526,0Q526,-161 449,-246Q371,-332 225,-332Q112,-332 50,-271Q-12,-210 -12,-100Q-12,20 78,86Q168,152 332,152L346,152L346,1098L526,1098L526,152L1016,152L1016,0L526,0ZM240,-186Q346,-186 346,-29L346,0L309,0Q232,0 195,-24Q158,-48 158,-102Q158,-143 182,-164Q206,-186 240,-186Z"  transform="translate(21586, 1100)"/>
<path d="M174,0L174,1098L332,1098L332,637L645,637L645,1098L801,1098L801,637L1114,637L1114,1098L1272,1098L1272,637L1501,637L1501,489L1272,489L1272,0L1114,0L1114,489L801,489L801,0L645,0L645,489L332,489L332,0L174,0Z"  transform="translate(22645, 1100)"/>
<path d="M428,1556Q448,1561 522,1561Q607,1561 655,1512Q702,1462 702,1380Q702,1325 680,1257Q658,1188 606,1098L618,1098Q868,1098 1008,959Q1147,819 1147,569Q1147,393 1071,256Q994,119 859,50Q724,-20 543,-20Q174,-20 174,295L174,956L354,956L354,330Q354,228 404,179Q453,129 571,129Q691,129 779,182Q867,235 914,332Q961,429 961,551Q961,758 852,857Q743,956 524,956L428,956L428,1098L460,1146Q535,1256 535,1339Q535,1380 514,1403Q493,1425 455,1425L428,1425L428,1556Z"  transform="translate(24171, 1100)"/>
<path d=""  transform="translate(25431, 1100)"/>
<path d="M1077,821Q1077,715 1017,660Q957,604 846,584L846,575Q985,556 1049,493Q1112,429 1112,322Q1112,166 998,83Q883,0 668,0L174,0L174,1098L666,1098Q1077,1098 1077,821ZM932,332Q932,424 860,461Q788,498 649,498L354,498L354,145L653,145Q932,145 932,332ZM901,805Q901,882 842,915Q782,948 662,948L354,948L354,647L629,647Q776,647 839,684Q901,720 901,805Z"  transform="translate(25963, 1100)"/>
<path d="M758,1098L197,0L20,0L582,1098L758,1098Z"  transform="translate(27143, 1100)"/>
<path d="M1077,821Q1077,715 1017,660Q957,604 846,584L846,575Q985,556 1049,493Q1112,429 1112,322Q1112,166 998,83Q883,0 668,0L174,0L174,1098L666,1098Q1077,1098 1077,821ZM932,332Q932,424 860,461Q788,498 649,498L354,498L354,145L653,145Q932,145 932,332ZM901,805Q901,882 842,915Q782,948 662,948L354,948L354,647L629,647Q776,647 839,684Q901,720 901,805Z"  transform="translate(27921, 1100)"/>
<path d="M354,1098L354,641L950,641L950,1098L1130,1098L1130,0L950,0L950,489L354,489L354,0L174,0L174,1098L354,1098Z"  transform="translate(29101, 1100)"/>
<path d="M428,1509L762,1509L762,1790L907,1790L907,1509L1241,1509L1241,1372L907,1372L907,1229L762,1229L762,1372L428,1372L428,1509ZM442,1698Q442,1751 470,1775Q498,1798 539,1798Q585,1798 610,1771Q635,1744 635,1698Q635,1645 606,1620Q577,1595 539,1595Q498,1595 470,1620Q442,1645 442,1698ZM1032,1698Q1032,1751 1060,1775Q1088,1798 1126,1798Q1165,1798 1194,1775Q1223,1751 1223,1698Q1223,1645 1194,1620Q1165,1595 1126,1595Q1088,1595 1060,1620Q1032,1645 1032,1698ZM1559,545Q1559,269 1481,59Q1402,-152 1252,-270Q1101,-389 915,-389Q827,-389 764,-369L764,-205Q823,-223 913,-223Q1062,-223 1163,-149Q1263,-75 1339,96L1333,100Q1285,42 1229,11Q1173,-20 1098,-20Q901,-20 838,213L831,213Q796,105 716,43Q635,-20 510,-20Q395,-20 305,49Q214,117 164,246Q113,374 113,547Q113,736 184,888Q255,1040 397,1147L526,1047Q403,950 348,829Q293,708 293,547Q293,357 355,248Q417,139 526,139Q633,139 692,224Q750,309 750,457L750,1098L922,1098L922,457Q922,305 977,222Q1031,139 1128,139Q1198,139 1256,189Q1313,239 1346,333Q1378,426 1378,553Q1378,845 1151,1047L1284,1147Q1559,918 1559,545Z"  transform="translate(30406, 1100)"/>
<path d="M526,0Q526,-161 449,-246Q371,-332 225,-332Q112,-332 50,-271Q-12,-210 -12,-100Q-12,20 78,86Q168,152 332,152L346,152L346,1098L526,1098L526,152L1016,152L1016,0L526,0ZM240,-186Q346,-186 346,-29L346,0L309,0Q232,0 195,-24Q158,-48 158,-102Q158,-143 182,-164Q206,-186 240,-186Z"  transform="translate(32077, 1100)"/>
<path d=""  transform="translate(33136, 1100)"/>
<path d="M506,145L1006,145L756,500L506,145ZM1339,145L1339,0L240,0Q25,0 25,244L174,244Q174,193 200,169Q225,145 299,145L651,623L492,844Q442,913 402,936Q362,958 291,958L291,1100L340,1100Q439,1100 506,1063Q572,1025 635,932L760,752L1006,1098L1204,1098L872,635L1130,276Q1189,194 1231,170Q1273,145 1339,145Z"  transform="translate(33668, 1100)"/>
<path d="M1020,686Q1020,482 890,367Q760,252 532,252L375,252L375,31L741,31L741,-115L375,-115L375,-492L193,-492L193,-115L-4,-115L-4,31L193,31L193,1098L565,1098Q781,1098 901,989Q1020,879 1020,686ZM375,397L522,397Q674,397 754,469Q834,540 834,680Q834,811 758,882Q681,952 539,952L375,952L375,397Z"  transform="translate(35014, 1100)"/>
<path d="M571,1098Q678,1098 737,1071Q796,1043 822,990Q848,936 848,807L690,807Q690,885 653,916Q616,946 518,946L354,946L354,0L174,0L174,1098L571,1098Z"  transform="translate(36116, 1100)"/>
<path d="M645,0L645,1098L801,1098L801,0L645,0ZM174,0L174,1098L332,1098L332,0L174,0ZM1114,1098L1272,1098L1272,0L1114,0L1114,1098Z"  transform="translate(37003, 1100)"/>
<path d="M635,-20Q385,-20 249,125Q113,269 113,543Q113,822 251,970Q388,1118 641,1118Q725,1118 805,1102Q885,1085 944,1059L891,911Q754,963 637,963Q479,963 398,883Q316,803 299,639L838,639L838,492L297,492Q306,308 388,221Q470,133 631,133Q724,133 795,152Q866,170 928,195L928,39Q808,-20 635,-20Z"  transform="translate(38449, 1100)"/>
<path d="M909,1098L1126,1098L610,274L610,-492L430,-492L430,274L-86,1098L131,1098L520,451L909,1098Z"  transform="translate(39463, 1100)"/>
</svg>
