<svg xmlns="http://www.w3.org/2000/svg" viewBox="0 0 39779 3805" transform="translate(0, 3805) scale(1, -1)">
<path d="M1212,1300L827,1300Q794,1217 756,1094Q1023,1054 1159,931Q1294,808 1294,610Q1294,514 1261,433Q1228,351 1171,272L1026,338Q1118,490 1118,596Q1118,736 1019,824Q919,911 711,948Q616,644 550,384Q484,123 461,-31L287,-16Q318,205 429,606Q539,1006 645,1300L203,1300L231,1452L1241,1452L1212,1300Z"  transform="translate(0, 1116)"/>
<path d="M1051,903Q1051,759 926,480Q801,201 645,-35L496,41Q645,259 760,512Q874,764 874,895Q874,957 825,982Q776,1006 657,1006Q442,1006 356,1023Q270,1040 237,1083Q203,1125 203,1221Q203,1284 214,1356Q225,1428 240,1475L403,1448Q365,1316 365,1253Q365,1209 388,1194Q411,1178 472,1172Q532,1165 680,1165Q870,1165 961,1104Q1051,1043 1051,903Z"  transform="translate(1430, 1116)"/>
<path d="M932,369Q932,286 892,169Q851,52 788,-35L643,31Q683,94 720,198Q756,302 756,365Q756,429 720,454Q683,479 608,479Q382,479 259,594Q135,709 135,907Q135,1192 264,1334Q393,1475 655,1475Q752,1475 874,1445Q995,1414 1069,1372L1004,1227Q929,1272 828,1297Q726,1321 645,1321Q463,1321 385,1223Q307,1125 307,911Q307,759 389,695Q470,631 643,631Q808,631 870,571Q932,510 932,369Z"  transform="translate(2571, 1116)"/>
<path d="M1006,655Q1006,511 881,329Q755,146 535,-37L426,72Q657,269 743,398Q829,527 829,647Q829,723 772,752Q714,780 596,780Q543,780 476,768Q409,756 379,743L342,887Q467,918 520,952Q573,986 599,1038Q625,1090 625,1171Q625,1335 356,1335Q276,1335 203,1323L180,1468Q285,1483 369,1483Q590,1483 696,1408Q801,1333 801,1176Q801,1104 771,1039Q740,973 686,922Q841,922 924,854Q1006,785 1006,655Z"  transform="translate(3745, 1116)"/>
<path d="M1153,1442Q1109,1215 973,926Q837,636 643,366Q449,96 274,-35L172,90Q292,181 432,359Q572,536 707,774Q546,938 415,1112Q283,1285 231,1405L387,1495Q431,1398 542,1249Q653,1100 799,948Q941,1242 985,1470L1153,1442Z"  transform="translate(4841, 1116)"/>
<path d="M393,1092Q393,923 511,829Q628,735 834,735Q1015,735 1116,817Q1217,898 1217,1040Q1217,1153 1116,1260L1245,1366Q1389,1222 1389,1047Q1389,910 1313,805Q1237,700 1102,642Q966,584 807,584Q539,584 378,717Q217,849 217,1077Q217,1166 258,1289Q299,1412 360,1497L506,1432Q457,1354 425,1259Q393,1163 393,1092Z"  transform="translate(5986, 1116)"/>
<path d=""  transform="translate(7411, 1116)"/>
<path d="M346,776Q203,919 203,1096Q203,1200 256,1285Q309,1370 405,1417Q501,1464 625,1464Q838,1464 959,1371Q1079,1277 1079,1114Q1079,987 1002,875Q924,762 733,618Q567,497 498,408Q428,319 428,240Q428,174 462,145Q495,115 561,115Q691,115 854,188L905,43Q836,11 739,-10Q641,-31 551,-31Q256,-31 256,242Q256,337 344,451Q431,565 641,729Q807,856 855,925Q903,993 903,1087Q903,1192 829,1253Q755,1313 625,1313Q513,1313 444,1255Q375,1197 375,1102Q375,989 475,883L346,776Z"  transform="translate(7943, 1116)"/>
<path d="M455,-16Q478,155 547,429Q615,703 690,952Q519,947 400,933Q280,918 186,887L150,1028Q309,1095 735,1102Q808,1341 866,1483L1032,1438Q980,1313 890,1022Q799,731 727,441Q655,150 629,-31L455,-16Z"  transform="translate(9067, 1116)"/>
<path d="M1333,1130Q1333,1018 1257,927Q1180,835 1041,782Q901,729 733,727Q708,624 659,371Q609,117 588,-31L424,-14Q442,108 486,346Q529,584 567,739Q401,770 302,870Q203,970 203,1118Q203,1308 346,1499L481,1430L440,1362Q369,1245 369,1133Q369,1026 432,961Q495,895 604,870Q685,1148 787,1271Q889,1393 1042,1393Q1172,1393 1253,1320Q1333,1247 1333,1130ZM1034,1241Q970,1241 929,1205Q888,1169 849,1086Q809,1003 768,858Q936,867 1049,942Q1161,1017 1161,1126Q1161,1178 1126,1210Q1091,1241 1034,1241Z"  transform="translate(10159, 1116)"/>
<path d="M1042,1460Q1220,1460 1317,1367Q1413,1274 1413,1096Q1413,879 1323,549Q1232,218 1120,-33L958,10Q1066,247 1152,561Q1237,875 1237,1087Q1237,1180 1179,1240Q1120,1300 1020,1300Q809,1300 606,1255Q545,944 434,540Q323,136 252,-27L90,16Q157,174 286,657Q415,1139 451,1368Q585,1408 751,1434Q917,1460 1042,1460Z"  transform="translate(11552, 1116)"/>
<path d="M567,-16Q585,105 630,301Q675,496 735,700Q516,731 400,784Q283,837 228,925Q172,1012 172,1145Q172,1241 205,1323Q238,1404 295,1483L440,1417Q348,1265 348,1159Q348,1061 387,1003Q426,944 513,908Q600,871 776,844Q904,1271 979,1448L1145,1403Q1056,1191 917,706Q778,221 741,-31L567,-16Z"  transform="translate(13070, 1116)"/>
<path d="M1071,981Q1071,867 1011,778Q951,688 844,638Q737,588 614,588Q558,588 512,592Q467,381 358,212Q248,42 92,-45L14,90Q174,189 276,375Q377,561 377,764Q377,859 360,913L496,946Q514,922 528,863Q541,804 541,735L579,733L618,733Q742,733 819,800Q895,867 895,977Q895,1065 831,1109Q766,1153 602,1171Q466,1188 386,1216Q306,1244 264,1290Q221,1336 199,1427L340,1479Q359,1406 427,1370Q494,1333 621,1317Q814,1293 900,1256Q985,1218 1028,1152Q1071,1085 1071,981Z"  transform="translate(14252, 1116)"/>
<path d=""  transform="translate(15413, 1116)"/>
<path d="M1516,307Q1516,117 1368,-33L1239,74Q1339,180 1339,293Q1339,420 1259,504Q1178,587 1008,629Q937,345 754,-33L590,12Q726,285 804,540Q881,794 881,971Q881,1140 811,1228Q740,1315 602,1315Q490,1315 421,1257Q352,1199 352,1104Q352,992 453,885L324,778Q180,922 180,1098Q180,1259 298,1363Q415,1466 602,1466Q930,1466 1024,1202Q1070,1328 1128,1460L1290,1417Q1228,1277 1158,1092Q1088,906 1053,776Q1285,727 1401,608Q1516,489 1516,307Z"  transform="translate(15945, 1116)"/>
<path d="M629,-16Q663,234 793,700Q553,706 419,723Q285,739 203,772Q309,887 348,974Q387,1060 387,1145Q387,1212 363,1261Q338,1310 274,1370L383,1485Q474,1420 513,1344Q551,1268 551,1171Q551,996 455,864Q542,850 834,850Q959,1284 1040,1483L1206,1438Q1123,1239 985,744Q846,249 803,-31L629,-16Z"  transform="translate(17596, 1116)"/>
<path d="M715,1495Q904,1495 995,1424Q1085,1352 1085,1192Q1085,970 995,599Q904,228 793,-33L631,10Q683,130 744,330Q805,529 848,727L692,731Q423,731 240,664L203,805Q384,881 690,881Q789,881 877,877Q909,1054 909,1184Q909,1264 858,1300Q806,1335 692,1335Q472,1335 240,1257L203,1399Q321,1443 458,1469Q595,1495 715,1495Z"  transform="translate(18847, 1116)"/>
<path d="M506,420Q316,420 226,492Q135,563 135,723Q135,970 360,1497L522,1454Q425,1229 368,1035Q311,841 311,731Q311,653 360,617Q409,580 528,580Q635,580 718,594Q801,607 926,649Q956,775 956,844Q956,921 910,958Q864,995 760,995Q691,995 634,988Q577,980 500,954L463,1098Q634,1155 782,1155Q959,1155 1046,1083Q1133,1010 1133,852Q1133,717 1050,451Q966,184 870,-33L709,10Q789,191 879,479Q684,420 506,420Z"  transform="translate(20104, 1116)"/>
<path d="M352,1217Q352,1112 512,1112Q583,1112 653,1120Q723,1128 801,1128Q976,1128 1059,1056Q1141,984 1141,817Q1141,643 1028,463Q915,283 721,154Q526,24 289,-29L246,119Q459,165 623,273Q786,380 876,525Q965,670 965,817Q965,901 918,935Q871,969 776,969Q705,969 635,961Q565,952 487,952Q341,952 261,1023Q180,1093 180,1221Q180,1324 253,1402Q325,1479 432,1497L483,1356Q422,1340 387,1303Q352,1266 352,1217Z"  transform="translate(21372, 1116)"/>
<path d="M430,1217Q430,1160 465,1100Q500,1040 621,922Q745,800 797,728Q848,655 877,577Q905,499 905,408Q905,289 837,188Q769,86 649,28Q529,-31 391,-31Q264,-31 172,-2L209,147Q290,125 389,125Q540,125 635,203Q729,281 729,408Q729,465 708,517Q687,569 648,621Q609,673 510,770Q391,889 349,950Q306,1011 282,1078Q258,1144 258,1221Q258,1324 331,1402Q403,1479 510,1497L561,1356Q498,1340 464,1303Q430,1266 430,1217Z"  transform="translate(22603, 1116)"/>
<path d=""  transform="translate(23598, 1116)"/>
<path d="M350,-16Q370,135 436,404Q501,672 586,952Q355,947 186,887L150,1028Q318,1100 631,1104Q708,1356 762,1483L928,1438Q882,1330 811,1100Q1159,1082 1307,1024L1247,872Q1084,936 766,952Q682,669 615,399Q548,129 524,-31L350,-16Z"  transform="translate(24130, 1116)"/>
<path d="M1130,547Q1130,672 1064,758Q997,844 868,881Q788,637 727,392Q666,146 639,-31L465,-16Q508,304 692,903L690,903Q509,903 408,822Q307,740 307,598Q307,486 408,379L279,272Q135,416 135,592Q135,728 210,833Q285,938 421,997Q556,1055 717,1055L741,1055L764,1053L815,1102Q694,1116 582,1207Q469,1297 420,1415L559,1501Q590,1405 684,1334Q777,1262 877,1262Q948,1262 1012,1305Q1076,1348 1167,1473L1300,1389Q1262,1324 1213,1278Q1164,1231 1114,1191Q1064,1151 1017,1113Q969,1074 934,1026Q1112,978 1210,857Q1307,735 1307,561Q1307,474 1267,352Q1226,229 1163,141L1018,207Q1067,287 1099,382Q1130,477 1130,547Z"  transform="translate(25451, 1116)"/>
<path d="M592,891Q566,925 507,1016Q447,1107 412,1169Q385,950 385,668Q385,262 457,-8L285,-33Q217,315 217,668Q217,1068 281,1475L455,1460Q459,1361 735,981L592,891Z"  transform="translate(26915, 1116)"/>
<path d="M1516,307Q1516,117 1368,-33L1239,74Q1339,180 1339,293Q1339,420 1259,504Q1178,587 1008,629Q937,345 754,-33L590,12Q726,285 804,540Q881,794 881,971Q881,1140 811,1228Q740,1315 602,1315Q490,1315 421,1257Q352,1199 352,1104Q352,992 453,885L324,778Q180,922 180,1098Q180,1259 298,1363Q415,1466 602,1466Q824,1466 941,1345Q1057,1224 1057,979Q1057,879 1038,778Q1276,732 1396,613Q1516,493 1516,307Z"  transform="translate(27777, 1116)"/>
<path d="M715,1460Q893,1460 989,1367Q1085,1273 1085,1096Q1085,882 944,550Q803,218 625,-35L483,53Q654,281 782,579Q909,876 909,1087Q909,1180 851,1240Q792,1300 692,1300Q469,1300 240,1223L203,1364Q321,1408 458,1434Q595,1460 715,1460Z"  transform="translate(29405, 1116)"/>
<path d="M324,778Q180,922 180,1098Q180,1259 298,1363Q415,1466 602,1466Q824,1466 941,1345Q1057,1224 1057,979Q1057,593 754,-33L590,12Q726,285 804,540Q881,794 881,971Q881,1140 811,1228Q740,1315 602,1315Q490,1315 421,1257Q352,1199 352,1104Q352,992 453,885L324,778Z"  transform="translate(30581, 1116)"/>
<path d=""  transform="translate(31787, 1116)"/>
<path d="M1067,610Q1067,418 920,270L791,377Q891,483 891,596Q891,736 792,824Q692,911 483,948Q395,653 328,381Q261,108 242,-31L68,-16Q108,256 247,753Q385,1250 479,1483L645,1438Q598,1326 526,1094Q795,1054 931,930Q1067,806 1067,610Z"  transform="translate(32319, 1116)"/>
<path d="M311,-45L244,90Q339,130 434,291Q529,451 608,735Q687,1019 737,1309L735,1309Q554,1309 453,1228Q352,1146 352,1004Q352,891 453,784L324,678Q180,820 180,997Q180,1134 256,1239Q332,1344 468,1402Q603,1460 762,1460Q935,1460 1070,1401Q1205,1341 1279,1229Q1352,1117 1352,967Q1352,836 1290,696Q1227,556 1145,487L1018,584Q1088,654 1132,757Q1176,859 1176,952Q1176,1079 1107,1166Q1037,1252 909,1286Q862,1007 769,690Q675,373 559,190Q442,6 311,-45Z"  transform="translate(33476, 1116)"/>
<path d="M375,1217Q375,1130 395,1089Q415,1047 471,1047Q517,1047 548,1080Q578,1113 600,1192Q626,1287 663,1336Q699,1384 757,1409Q814,1434 899,1434Q1031,1434 1093,1364Q1155,1294 1155,1139Q1155,693 791,-31L651,41Q979,705 979,1139Q979,1198 957,1234Q934,1270 893,1270Q846,1270 820,1246Q793,1222 762,1128Q722,1003 652,945Q581,887 467,887Q337,887 270,973Q203,1059 203,1221Q203,1371 266,1493L426,1450Q375,1320 375,1217Z"  transform="translate(34918, 1116)"/>
<path d="M578,676Q578,720 565,752Q551,783 525,806Q498,828 428,858Q387,876 347,897Q306,917 274,952Q241,986 221,1040Q201,1094 201,1178Q201,1313 300,1404Q398,1495 553,1495Q635,1495 714,1487Q793,1479 834,1466L797,1317Q713,1339 555,1339Q469,1339 423,1298Q377,1257 377,1178Q377,1116 411,1076Q444,1036 541,999Q626,967 667,932Q707,896 729,843Q750,789 750,709Q750,563 689,362Q628,160 530,-33L385,14Q466,199 522,388Q578,576 578,676Z"  transform="translate(36208, 1116)"/>
<path d="M240,-16Q284,308 473,946Q306,933 172,887L135,1028Q276,1087 520,1102Q600,1362 651,1483L817,1438Q768,1320 698,1096Q966,1061 1107,938Q1247,815 1247,610Q1247,418 1100,270L971,377Q1071,483 1071,596Q1071,881 655,948Q581,703 510,416Q438,129 414,-31L240,-16Z"  transform="translate(37154, 1116)"/>
<path d="M971,1241Q971,1341 1038,1399Q1105,1456 1223,1456L1274,1315Q1206,1306 1172,1290Q1137,1274 1137,1237Q1137,1191 1152,1118Q1167,1046 1167,991Q1167,834 1051,752Q934,670 711,670Q592,670 516,690L477,563Q396,321 288,161Q179,1 59,-45L-8,90Q63,119 138,223Q213,326 275,482Q337,638 405,939Q473,1240 504,1468L678,1454Q632,1128 553,834Q629,815 715,815Q825,815 880,832Q935,849 963,886Q991,923 991,987Q991,1028 982,1109Q972,1187 971,1241Z"  transform="translate(38491, 1116)"/>
</svg>
