<svg width="36234" height="3789" viewBox="0 0 36234 3789" xmlns="http://www.w3.org/2000/svg">
    <defs/>
    <path fill="#000000" stroke="none" transform="matrix(1 0 0 -1 0 2689)" d="M 780 1085 L 1186 1462 L 1364 1462 L 1364 0 L 1186 0 L 1186 502 L 782 877 L 377 500 L 377 0 L 199 0 L 199 1462 L 377 1462 L 780 1085 Z M 377 711 L 668 983 L 377 1249 L 377 711 Z M 895 981 L 1186 711 L 1186 1251 L 895 981 Z"/>
    <path fill="#000000" stroke="none" transform="matrix(1 0 0 -1 1544 2689)" d="M 555 0 L 555 1278 L 297 1040 L 20 1278 L 20 1462 L 299 1225 L 555 1462 L 739 1462 L 995 1225 L 1274 1462 L 1274 1268 L 997 1030 L 739 1257 L 739 0 L 555 0 Z"/>
    <path fill="#000000" stroke="none" transform="matrix(1 0 0 -1 2840 2689)" d="M 199 1462 L 383 1462 L 383 942 L 199 942 L 199 1462 Z"/>
    <path fill="#000000" stroke="none" transform="matrix(1 0 0 -1 3424 2689)" d="M 383 0 L 199 0 L 199 1462 L 383 1462 L 383 727 C 439.66666666667 727 493 736 543 754 C 592.33333333333 771.33333333333 638 795.66666666667 680 827 C 721.33333333333 858.33333333333 758.33333333333 895.66666666667 791 939 C 823.66666666667 982.33333333333 851.33333333333 1030 874 1082 C 896.66666666667 1133.33333333333 914 1188 926 1246 C 938 1303.33333333333 944 1362.33333333333 944 1423 L 944 1462 L 1135 1462 L 1135 1425 C 1135 1345.66666666667 1125.66666666667 1269.66666666667 1107 1197 C 1088.33333333333 1123.66666666667 1062.33333333333 1055.33333333333 1029 992 C 995.66666666667 928.66666666667 956 871 910 819 C 863.33333333333 767 812.33333333333 722.66666666667 757 686 C 701 648.66666666667 641.33333333333 620 578 600 C 514.66666666667 579.33333333333 449.66666666667 569 383 569 L 383 0 Z"/>
    <path fill="#000000" stroke="none" transform="matrix(1 0 0 -1 4589 2689)" d="M 383 901 L 383 674 C 455 674 524.66666666667 682 592 698 C 658.66666666667 714 721.33333333333 737.33333333333 780 768 C 838 798.66666666667 891 836.33333333333 939 881 C 986.33333333333 925 1027.33333333333 975.66666666667 1062 1033 C 1096 1089.66666666667 1122.33333333333 1152.33333333333 1141 1221 C 1159.66666666667 1289.66666666667 1169 1363.33333333333 1169 1442 L 1169 1462 L 1364 1462 L 1364 1440 C 1364 1343.33333333333 1352.66666666667 1253.33333333333 1330 1170 C 1307.33333333333 1086 1275.33333333333 1009.66666666667 1234 941 C 1192 872.33333333333 1141.66666666667 811.33333333333 1083 758 C 1024.33333333333 704 958.66666666667 658.66666666667 886 622 C 813.33333333333 585.33333333333 734.66666666667 557.66666666667 650 539 C 565.33333333333 519.66666666667 476.33333333333 510 383 510 L 383 0 L 199 0 L 199 1462 L 383 1462 L 383 1065 C 433.66666666667 1065 479.66666666667 1075.33333333333 521 1096 C 562.33333333333 1116.66666666667 597.66666666667 1144.66666666667 627 1180 C 655.66666666667 1214.66666666667 678 1254.66666666667 694 1300 C 709.33333333333 1345.33333333333 717 1392.66666666667 717 1442 L 717 1462 L 911 1462 L 911 1440 C 911 1365.33333333333 897 1295.33333333333 869 1230 C 840.33333333333 1164 802 1106.66666666667 754 1058 C 705.33333333333 1009.33333333333 649 971 585 943 C 521 915 453.66666666667 901 383 901 Z"/>
    <path fill="#000000" stroke="none" transform="matrix(1 0 0 -1 5984 2689)" d="M 324 1094 L 324 1085 L 686 756 L 686 745 L 324 377 L 324 369 L 666 0 L 416 0 L 78 369 L 78 377 L 436 745 L 436 754 L 78 1085 L 78 1094 L 457 1462 L 707 1462 L 324 1094 Z"/>
    <path fill="#000000" stroke="none" transform="matrix(1 0 0 -1 7296 2689)" d="M 555 0 L 299 238 L 20 0 L 20 195 L 297 432 L 555 199 L 555 1462 L 739 1462 L 995 1225 L 1274 1462 L 1274 1268 L 997 1030 L 739 1257 L 739 0 L 555 0 Z"/>
    <path fill="#000000" stroke="none" transform="matrix(1 0 0 -1 8592 2689)" d="M 240 1462 L 424 1462 L 424 963 C 455.33333333333 948.33333333333 481.33333333333 924.66666666667 502 892 C 522 858.66666666667 532 814 532 758 C 532 718.66666666667 527 685.33333333333 517 658 C 506.33333333333 630 492 607 474 589 C 456 571 435 558 411 550 C 387 541.33333333333 361.33333333333 537 334 537 C 306 537 280 541.33333333333 256 550 C 232 558 211.33333333333 571 194 589 C 176 607 162 630 152 658 C 142 685.33333333333 137 718.66666666667 137 758 C 137 814.66666666667 146.66666666667 859.33333333333 166 892 C 185.33333333333 924.66666666667 210 948.33333333333 240 963 L 240 1462 Z"/>
    <path fill="#000000" stroke="none" transform="matrix(1 0 0 -1 9262 2689)" d="M 623 885 L 918 1042 L 979 915 L 623 721 L 623 0 L 438 0 L 438 629 L 156 477 L 82 600 L 438 791 L 438 1462 L 623 1462 L 623 885 Z"/>
    <path fill="#000000" stroke="none" transform="matrix(1 0 0 -1 10325 2689)" d="M 625 0 L 434 0 L 434 1296 L 156 1145 L 82 1272 L 438 1462 L 625 1462 L 625 0 Z"/>
    <path fill="#000000" stroke="none" transform="matrix(1 0 0 -1 11150 2689)" d="M 537 1221 C 537 1260.33333333333 547.33333333333 1289.33333333333 568 1308 C 588.66666666667 1326 613.66666666667 1335 643 1335 C 657 1335 670.33333333333 1333 683 1329 C 695.66666666667 1324.33333333333 707 1317.33333333333 717 1308 C 726.33333333333 1298.66666666667 734 1287 740 1273 C 745.33333333333 1258.33333333333 748 1241 748 1221 C 748 1201.66666666667 745.33333333333 1184.66666666667 740 1170 C 734 1155.33333333333 726.33333333333 1143.33333333333 717 1134 C 707 1124.66666666667 695.66666666667 1117.66666666667 683 1113 C 670.33333333333 1108.33333333333 657 1106 643 1106 C 613 1106 588 1115.33333333333 568 1134 C 547.33333333333 1152.66666666667 537 1181.66666666667 537 1221 Z M 383 0 L 199 0 L 199 1462 L 383 1462 L 383 727 C 439.66666666667 727 493 736 543 754 C 592.33333333333 771.33333333333 638 795.66666666667 680 827 C 721.33333333333 858.33333333333 758.33333333333 895.66666666667 791 939 C 823.66666666667 982.33333333333 851.33333333333 1030 874 1082 C 896.66666666667 1133.33333333333 914 1188 926 1246 C 938 1303.33333333333 944 1362.33333333333 944 1423 L 944 1462 L 1135 1462 L 1135 1425 C 1135 1345.66666666667 1125.66666666667 1269.66666666667 1107 1197 C 1088.33333333333 1123.66666666667 1062.33333333333 1055.33333333333 1029 992 C 995.66666666667 928.66666666667 956 871 910 819 C 863.33333333333 767 812.33333333333 722.66666666667 757 686 C 701 648.66666666667 641.33333333333 620 578 600 C 514.66666666667 579.33333333333 449.66666666667 569 383 569 L 383 0 Z"/>
    <path fill="#000000" stroke="none" transform="matrix(1 0 0 -1 12315 2689)" d="M 580 1462 L 776 1462 L 776 561 C 836 555.66666666667 895.33333333333 542.66666666667 954 522 C 1012.66666666667 500.66666666667 1066.66666666667 468.33333333333 1116 425 C 1165.33333333333 381 1208.66666666667 324.66666666667 1246 256 C 1282.66666666667 186.66666666667 1309 101.33333333333 1325 0 L 1130 0 C 1119.33333333333 54 1105.33333333333 103.66666666667 1088 149 C 1070 194.33333333333 1047.33333333333 234.33333333333 1020 269 C 992 303.66666666667 958.33333333333 332.33333333333 919 355 C 879 377 831.33333333333 391.66666666667 776 399 L 776 0 L 580 0 L 580 399 C 524.66666666667 391.66666666667 477 377 437 355 C 397 332.33333333333 363.33333333333 303.66666666667 336 269 C 308 234.33333333333 285.33333333333 194.33333333333 268 149 C 250 103.66666666667 235.66666666667 54 225 0 L 31 0 C 47 101.33333333333 73.66666666667 186.66666666667 111 256 C 147.66666666667 324.66666666667 190.66666666667 381 240 425 C 289.33333333333 468.33333333333 343.33333333333 500.66666666667 402 522 C 460.66666666667 542.66666666667 520 555.66666666667 580 561 L 580 1462 Z"/>
    <path fill="#000000" stroke="none" transform="matrix(1 0 0 -1 14203 2689)" d="M 1122 1294 L 784 1057 L 383 1294 L 383 1133 L 782 895 L 782 725 L 383 963 L 383 0 L 199 0 L 199 1462 L 383 1462 L 782 1225 L 1122 1462 L 1122 1294 Z"/>
    <path fill="#000000" stroke="none" transform="matrix(1 0 0 -1 15409 2689)" d="M 664 717 L 967 514 L 885 383 L 598 575 C 599.33333333333 544.33333333333 601 513 603 481 C 604.33333333333 453.66666666667 605.66666666667 424 607 392 C 607.66666666667 360 608 329.66666666667 608 301 L 608 0 L 438 0 L 438 301 C 438 329.66666666667 438.66666666667 360 440 392 C 441.33333333333 424 442.66666666667 453.66666666667 444 481 C 446 513 448.33333333333 544.33333333333 451 575 L 164 383 L 82 514 L 385 717 L 82 922 L 164 1055 L 438 870 L 438 1462 L 608 1462 L 608 868 L 885 1055 L 967 922 L 664 717 Z"/>
    <path fill="#000000" stroke="none" transform="matrix(1 0 0 -1 16460 2689)" d="M 240 555 C 208.66666666667 570.33333333333 183.66666666667 594.33333333333 165 627 C 146.33333333333 659.66666666667 137 703.33333333333 137 758 C 137 814.66666666667 146.66666666667 859.33333333333 166 892 C 185.33333333333 924.66666666667 210 948.33333333333 240 963 L 240 1462 L 424 1462 L 424 963 C 455.33333333333 948.33333333333 481.33333333333 924.66666666667 502 892 C 522 858.66666666667 532 814 532 758 C 532 702 522 657.66666666667 502 625 C 482 591.66666666667 456 567.66666666667 424 553 L 424 0 L 240 0 L 240 555 Z"/>
    <path fill="#000000" stroke="none" transform="matrix(1 0 0 -1 17130 2689)" d="M 713 754 L 1241 0 L 1020 0 L 713 483 L 713 0 L 528 0 L 528 483 L 221 0 L 0 0 L 528 754 L 528 1462 L 713 1462 L 713 754 Z"/>
    <path fill="#000000" stroke="none" transform="matrix(1 0 0 -1 18373 2689)" d="M 481 614 L 481 381 L 199 686 L 199 874 L 483 1151 L 483 926 L 334 782 L 334 770 L 481 614 Z"/>
    <path fill="#000000" stroke="none" transform="matrix(1 0 0 -1 19057 2689)" d="M 713 0 L 528 0 L 528 709 L 0 1462 L 221 1462 L 528 979 L 528 1462 L 713 1462 L 713 979 L 1020 1462 L 1241 1462 L 713 709 L 713 0 Z"/>
    <path fill="#000000" stroke="none" transform="matrix(1 0 0 -1 20832 2689)" d="M 1083 1169 L 1311 739 L 1311 715 L 1102 328 L 1323 0 L 1128 0 L 776 545 L 776 0 L 623 0 L 623 557 L 270 0 L 82 0 L 297 328 L 88 715 L 88 739 L 315 1169 L 113 1462 L 311 1462 L 623 987 L 623 1462 L 776 1462 L 776 983 L 1090 1462 L 1288 1462 L 1083 1169 Z M 803 766 L 1014 461 L 1153 723 L 1153 731 L 991 1040 L 803 766 Z M 401 1036 L 246 731 L 246 723 L 385 461 L 592 762 L 401 1036 Z"/>
    <path fill="#000000" stroke="none" transform="matrix(1 0 0 -1 22237 2689)" d="M 1042 723 C 1042 819 1024.33333333333 901.66666666667 989 971 C 953.66666666667 1039.66666666667 906 1096 846 1140 C 785.33333333333 1184 715.33333333333 1216.33333333333 636 1237 C 556 1257.66666666667 471.66666666667 1268 383 1268 L 383 854 C 439.66666666667 854 493.66666666667 846.33333333333 545 831 C 595.66666666667 815 640.33333333333 789.33333333333 679 754 C 717 718 747.33333333333 671.66666666667 770 615 C 792 557.66666666667 803 488 803 406 L 803 0 L 623 0 L 623 373 C 623 435.66666666667 617 488.33333333333 605 531 C 592.33333333333 573.66666666667 575.33333333333 608 554 634 C 532 660 506.66666666667 678.66666666667 478 690 C 448.66666666667 701.33333333333 417 707 383 707 L 383 0 L 199 0 L 199 1462 L 393 1462 C 460.33333333333 1462 527.66666666667 1456 595 1444 C 662.33333333333 1432 726.66666666667 1413.66666666667 788 1389 C 849.33333333333 1363.66666666667 906.66666666667 1331.66666666667 960 1293 C 1012.66666666667 1254.33333333333 1058.66666666667 1208 1098 1154 C 1136.66666666667 1100 1167.33333333333 1038 1190 968 C 1212 898 1223 819.66666666667 1223 733 L 1223 0 L 1042 0 L 1042 723 Z"/>
    <path fill="#000000" stroke="none" transform="matrix(1 0 0 -1 23638 2689)" d="M 743 1006 L 383 1257 L 383 0 L 199 0 L 199 1462 L 383 1462 L 743 1204 L 1122 1462 L 1307 1462 L 1307 0 L 1122 0 L 1122 1260 L 743 1006 Z"/>
    <path fill="#000000" stroke="none" transform="matrix(1 0 0 -1 25145 2689)" d="M 1032 723 C 1032 819 1015 901.66666666667 981 971 C 946.33333333333 1039.66666666667 899.66666666667 1096 841 1140 C 781.66666666667 1184 712.66666666667 1216.33333333333 634 1237 C 555.33333333333 1257.66666666667 471.66666666667 1268 383 1268 L 383 0 L 199 0 L 199 1462 L 393 1462 C 460.33333333333 1462 527.66666666667 1456 595 1444 C 662.33333333333 1432 726.66666666667 1413.66666666667 788 1389 C 849.33333333333 1363.66666666667 906.66666666667 1331.66666666667 960 1293 C 1012.66666666667 1254.33333333333 1058.66666666667 1208 1098 1154 C 1136.66666666667 1100 1167.33333333333 1038 1190 968 C 1212 898 1223 819.66666666667 1223 733 L 1223 0 L 1032 0 L 1032 723 Z"/>
    <path fill="#000000" stroke="none" transform="matrix(1 0 0 -1 26546 2689)" d="M 580 901 C 520 907 460.66666666667 920.66666666667 402 942 C 343.33333333333 962.66666666667 289.33333333333 994.66666666667 240 1038 C 190.66666666667 1081.33333333333 147.66666666667 1137.66666666667 111 1207 C 73.66666666667 1275.66666666667 47 1360.66666666667 31 1462 L 225 1462 C 235.66666666667 1408 250 1358.33333333333 268 1313 C 285.33333333333 1267.66666666667 308 1228 336 1194 C 363.33333333333 1159.33333333333 397 1131 437 1109 C 477 1086.33333333333 524.66666666667 1071 580 1063 L 580 1462 L 776 1462 L 776 1063 C 831.33333333333 1071 879 1086.33333333333 919 1109 C 958.33333333333 1131 992 1159.33333333333 1020 1194 C 1047.33333333333 1228 1070 1267.66666666667 1088 1313 C 1105.33333333333 1358.33333333333 1119.33333333333 1408 1130 1462 L 1325 1462 C 1309 1360.66666666667 1282.66666666667 1275.66666666667 1246 1207 C 1208.66666666667 1137.66666666667 1165.33333333333 1081.33333333333 1116 1038 C 1066.66666666667 994.66666666667 1012.66666666667 962.66666666667 954 942 C 895.33333333333 920.66666666667 836 907 776 901 L 776 0 L 580 0 L 580 901 Z"/>
    <path fill="#000000" stroke="none" transform="matrix(1 0 0 -1 27902 2689)" d="M 199 1462 L 373 1462 L 373 1282 C 470.33333333333 1270 556.33333333333 1251 631 1225 C 705.66666666667 1199 768.33333333333 1164.66666666667 819 1122 C 869.66666666667 1079.33333333333 908 1027.66666666667 934 967 C 960 905.66666666667 973 834 973 752 C 973 680.66666666667 965.33333333333 618 950 564 C 934 509.33333333333 912.33333333333 461.66666666667 885 421 C 857 380.33333333333 824.33333333333 346 787 318 C 749 290 708 266.66666666667 664 248 C 619.33333333333 229.33333333333 572.33333333333 214.66666666667 523 204 C 473.66666666667 193.33333333333 423.66666666667 185.33333333333 373 180 L 373 0 L 199 0 L 199 1462 Z M 778 745 C 778 805.66666666667 769.66666666667 858 753 902 C 736.33333333333 945.33333333333 711.33333333333 981.66666666667 678 1011 C 644.66666666667 1040.33333333333 602.66666666667 1063.66666666667 552 1081 C 501.33333333333 1097.66666666667 441.66666666667 1110 373 1118 L 373 336 C 439 346.66666666667 497.33333333333 360 548 376 C 598 392 640.33333333333 415 675 445 C 709 474.33333333333 734.66666666667 513 752 561 C 769.33333333333 609 778 670.33333333333 778 745 Z M 459 735 C 459 775 469.33333333333 804.33333333333 490 823 C 510 841 535 850 565 850 C 593 850 617.66666666667 841 639 823 C 659.66666666667 804.33333333333 670 775 670 735 C 670 715.66666666667 667.33333333333 699 662 685 C 656 670.33333333333 648.33333333333 658.33333333333 639 649 C 629 639.66666666667 617.66666666667 632.66666666667 605 628 C 592.33333333333 623.33333333333 579 621 565 621 C 535 621 510 630.33333333333 490 649 C 469.33333333333 667 459 695.66666666667 459 735 Z"/>
    <path fill="#000000" stroke="none" transform="matrix(1 0 0 -1 29509 2689)" d="M 750 264 L 369 0 L 199 0 L 199 1462 L 369 1462 L 750 1196 L 1137 1462 L 1296 1462 L 1296 0 L 1137 0 L 750 264 Z M 750 1030 L 369 766 L 369 696 L 750 430 L 1137 696 L 1137 766 L 750 1030 Z M 1137 928 L 1137 1300 L 868 1114 L 1137 928 Z M 1137 162 L 1137 535 L 868 348 L 1137 162 Z M 369 528 L 369 168 L 631 348 L 369 528 Z M 369 1294 L 369 934 L 631 1114 L 369 1294 Z"/>
    <path fill="#000000" stroke="none" transform="matrix(1 0 0 -1 31006 2689)" d="M 156 1044 L 428 883 L 428 1462 L 612 1462 L 612 774 L 956 571 L 885 449 L 612 606 L 612 0 L 428 0 L 428 713 L 82 915 L 156 1044 Z"/>
    <path fill="#000000" stroke="none" transform="matrix(1 0 0 -1 32046 2689)" d="M 199 1462 L 512 1462 C 586 1462 653.33333333333 1454.66666666667 714 1440 C 774 1425.33333333333 825.66666666667 1403.33333333333 869 1374 C 911.66666666667 1344 945 1306.33333333333 969 1261 C 992.33333333333 1215.66666666667 1004 1162.66666666667 1004 1102 C 1004 1048 996 1002 980 964 C 964 925.33333333333 942 893 914 867 C 885.33333333333 841 851.66666666667 820.33333333333 813 805 C 774.33333333333 789.66666666667 732.66666666667 778 688 770 L 688 760 C 734 752 777 739.66666666667 817 723 C 857 706.33333333333 891.66666666667 684.33333333333 921 657 C 950.33333333333 629 973.66666666667 595.33333333333 991 556 C 1007.66666666667 516 1016 469.33333333333 1016 416 C 1016 349.33333333333 1004.33333333333 290.33333333333 981 239 C 957 187 923 143.33333333333 879 108 C 835 72.66666666667 781.66666666667 46 719 28 C 656.33333333333 9.33333333333 586 0 508 0 L 199 0 L 199 1462 Z M 383 840 L 471 840 C 535.66666666667 840 590 846 634 858 C 678 870 713.33333333333 887 740 909 C 766 930.33333333333 784.66666666667 956 796 986 C 807.33333333333 1015.33333333333 813 1047.66666666667 813 1083 C 813 1117 807.33333333333 1147.66666666667 796 1175 C 784.66666666667 1202.33333333333 765.66666666667 1225.66666666667 739 1245 C 711.66666666667 1264.33333333333 676 1279.33333333333 632 1290 C 587.33333333333 1300 532.33333333333 1305 467 1305 L 383 1305 L 383 840 Z M 383 690 L 383 156 L 473 156 C 537.66666666667 156 592 163 636 177 C 680 190.33333333333 715.66666666667 209 743 233 C 769.66666666667 257 789 285.33333333333 801 318 C 813 350.66666666667 819 386 819 424 C 819 460 813 494.33333333333 801 527 C 789 559 769.33333333333 587.33333333333 742 612 C 714 636 677.66666666667 655 633 669 C 588.33333333333 683 533.66666666667 690 469 690 L 383 690 Z M 506 1079 C 506 1109 513.33333333333 1130.66666666667 528 1144 C 542.66666666667 1156.66666666667 561.33333333333 1163 584 1163 C 605.33333333333 1163 623.33333333333 1156.66666666667 638 1144 C 652 1130.66666666667 659 1109 659 1079 C 659 1050.33333333333 652 1029.33333333333 638 1016 C 623.33333333333 1002 605.33333333333 995 584 995 C 561.33333333333 995 542.66666666667 1002 528 1016 C 513.33333333333 1029.33333333333 506 1050.33333333333 506 1079 Z M 506 424 C 506 454 513.33333333333 475.66666666667 528 489 C 542.66666666667 501.66666666667 561.33333333333 508 584 508 C 605.33333333333 508 623.33333333333 501.66666666667 638 489 C 652 475.66666666667 659 454 659 424 C 659 395.33333333333 652 374.33333333333 638 361 C 623.33333333333 347 605.33333333333 340 584 340 C 561.33333333333 340 542.66666666667 347 528 361 C 513.33333333333 374.33333333333 506 395.33333333333 506 424 Z"/>
    <path fill="#000000" stroke="none" transform="matrix(1 0 0 -1 33172 2689)" d="M 438 1462 L 623 1462 L 967 1260 L 895 1137 L 623 1294 L 623 0 L 438 0 L 438 1300 L 156 1149 L 82 1272 L 438 1462 Z"/>
    <path fill="#000000" stroke="none" transform="matrix(1 0 0 -1 34223 2689)" d="M 199 1462 L 383 1462 L 383 774 L 727 571 L 655 449 L 383 606 L 383 0 L 199 0 L 199 1462 Z"/>
    <path fill="#000000" stroke="none" transform="matrix(1 0 0 -1 35034 2689)" d="M 1192 0 L 983 0 L 596 635 L 203 0 L 8 0 L 494 762 L 39 1462 L 244 1462 L 602 889 L 963 1462 L 1157 1462 L 705 766 L 1192 0 Z"/>
</svg>
