<svg xmlns="http://www.w3.org/2000/svg" viewBox="0 0 46829 3789" transform="translate(0, 3789) scale(1, -1)">
<path d="M715,604Q682,604 652,577Q621,549 557,475L166,43L31,166L459,637Q535,721 588,755Q641,788 698,788Q762,788 807,748Q852,707 915,623L1102,383Q1182,276 1205,259Q1227,242 1247,242Q1274,242 1306,276Q1337,309 1386,362L1634,637Q1710,721 1765,755Q1819,788 1876,788Q1939,788 1985,748Q2030,707 2095,621L2466,131L2349,43L2040,446Q1985,522 1954,563Q1923,604 1890,604Q1855,604 1825,575Q1794,545 1733,475L1497,215Q1427,137 1375,90Q1323,43 1260,43Q1204,43 1162,76Q1120,109 1036,221L778,563Q748,604 715,604ZM565,180Q565,317 690,317Q819,317 819,180Q819,106 781,74Q743,41 690,41Q565,41 565,180ZM1739,180Q1739,317 1864,317Q1993,317 1993,180Q1993,106 1955,74Q1917,41 1864,41Q1739,41 1739,180Z"  transform="translate(0, 1100)"/>
<path d="M39,135L547,596Q623,664 688,705Q752,745 838,745Q911,745 971,710Q1030,674 1108,580L1307,352Q1372,274 1417,236Q1462,197 1516,197Q1569,197 1614,227Q1659,256 1724,322L1733,332Q1800,399 1800,459Q1800,494 1788,522Q1776,549 1746,586Q1716,623 1210,1198L1325,1298L1855,696Q1917,627 1951,574Q1985,520 1985,449Q1985,381 1965,334Q1944,287 1902,242Q1860,197 1785,132Q1710,66 1659,40Q1608,14 1526,10Q1436,10 1378,58Q1319,106 1257,176L1059,403Q993,481 948,521Q903,561 850,561Q797,561 753,530Q709,498 641,434L160,0L39,135ZM719,139Q719,276 844,276Q973,276 973,139Q973,66 935,33Q897,0 844,0Q719,0 719,139Z"  transform="translate(2497, 1100)"/>
<path d="M2089,483Q2089,455 2034,403L1837,221Q1726,121 1654,84Q1581,47 1497,47Q1444,47 1401,62Q1358,76 1321,104Q1284,131 1186,240L1061,379Q801,147 751,114Q700,80 654,64Q608,47 553,47Q498,47 455,64Q412,80 373,111Q334,141 242,244Q61,444 46,470Q31,496 31,512Q31,543 84,592Q276,770 351,835Q426,899 504,923Q582,946 623,946Q684,946 735,926Q786,905 834,864Q881,823 1057,618L1229,772Q1350,881 1421,914Q1491,946 1569,946Q1645,946 1707,914Q1769,881 1882,756L2034,571Q2089,516 2089,483ZM1176,481Q1327,301 1380,266Q1432,231 1487,231Q1522,231 1555,244Q1587,256 1625,284Q1663,311 1882,512L1833,578Q1755,668 1700,715Q1645,762 1581,762Q1518,762 1462,725Q1405,688 1319,608L1176,481ZM236,481Q365,326 420,279Q475,231 543,231Q584,231 625,252Q666,272 722,322Q778,371 940,516Q821,657 760,710Q698,762 635,762Q571,762 515,727Q459,692 375,610L236,481Z"  transform="translate(4639, 1100)"/>
<path d="M145,942L672,342Q737,266 781,225Q825,184 879,184Q932,184 976,216Q1020,248 1087,311L1782,942L1905,807L1182,150Q1106,82 1042,41Q977,0 891,0Q821,0 766,31Q711,61 621,166L31,838L145,942Z"  transform="translate(6757, 1100)"/>
<path d="M39,135L547,596Q623,664 688,705Q752,745 838,745Q911,745 971,710Q1030,674 1108,580L1307,352Q1372,276 1417,237Q1462,197 1516,197Q1569,197 1614,227Q1659,256 1724,322L1733,332Q1800,399 1800,459Q1800,494 1788,522Q1776,549 1746,586Q1716,623 1210,1198L1325,1298L1855,696Q1917,627 1951,574Q1985,520 1985,449Q1985,381 1965,334Q1944,287 1902,242Q1860,197 1785,132Q1710,66 1659,40Q1608,14 1526,10Q1436,10 1378,58Q1319,106 1257,176L1059,403Q993,481 948,521Q903,561 850,561Q797,561 753,530Q709,498 641,434L160,0L39,135ZM1051,-29L932,111Q905,139 890,154Q874,168 856,168Q846,168 835,162Q823,156 653,0L530,133L735,326Q768,354 790,369Q811,383 846,383Q879,383 905,361Q930,338 1165,72L1051,-29Z"  transform="translate(8692, 1100)"/>
<path d="M156,18L35,156L707,760Q825,866 898,900Q971,934 1049,934Q1108,934 1156,916Q1204,897 1249,858Q1294,819 1520,561Q1577,504 1577,469Q1577,440 1522,389L1341,221Q1231,121 1158,84Q1085,47 1001,47Q948,47 905,62Q862,76 825,104Q788,131 690,240L805,342Q899,231 991,231Q1059,231 1127,282Q1194,332 1370,500L1311,565Q1233,657 1180,703Q1126,748 1061,748Q997,748 942,711Q887,674 801,596L156,18Z"  transform="translate(10834, 1100)"/>
<path d=""  transform="translate(12440, 1100)"/>
<path d="M707,604Q664,604 604,535L160,43L25,166Q305,477 450,633Q594,788 692,788Q756,788 801,748Q846,707 909,623L1094,383Q1171,281 1194,262Q1217,242 1241,242Q1268,242 1300,276Q1331,309 1380,362L1628,637Q1704,721 1758,755Q1812,788 1868,788Q1931,788 1977,748Q2023,707 2089,621L2460,131L2341,43L2034,446Q1978,522 1948,563Q1917,604 1884,604Q1849,604 1819,575Q1788,545 1726,475L1491,215Q1419,137 1368,90Q1317,43 1253,43Q1198,43 1156,76Q1114,109 1030,221L770,563Q739,604 707,604ZM1735,180Q1735,317 1860,317Q1989,317 1989,180Q1989,106 1951,74Q1913,41 1860,41Q1735,41 1735,180Z"  transform="translate(12972, 1100)"/>
<path d="M47,135L621,647L297,1022L412,1120L1081,346Q1141,279 1187,240Q1233,201 1286,201Q1325,201 1356,216Q1386,231 1446,283Q1505,334 1525,362Q1544,389 1546,442Q1546,473 1533,505Q1520,537 1487,579Q1454,621 1110,1026L1223,1120L1602,686Q1673,604 1702,550Q1731,496 1731,430Q1726,354 1704,304Q1681,254 1605,182Q1528,109 1457,62Q1386,14 1300,14Q1231,14 1178,43Q1124,72 1028,180L739,512L168,0L47,135Z"  transform="translate(15462, 1100)"/>
<path d="M1266,406L1049,657Q983,735 939,775Q895,815 842,815Q788,815 744,784Q700,752 633,688L150,254L31,389L537,850Q612,918 678,959Q743,999 829,999Q903,999 963,964Q1022,928 1100,834L1380,508L1266,406ZM1208,31L977,297Q950,328 936,341Q922,354 901,354Q877,354 803,285L524,31L401,164L780,512Q813,543 835,556Q856,569 891,569Q928,569 959,541Q989,512 1323,129L1208,31Z"  transform="translate(17260, 1100)"/>
<path d="M412,1120L1298,96L1188,0L739,512L168,0L47,135L621,647L297,1022L412,1120Z"  transform="translate(18671, 1100)"/>
<path d="M1061,567L1276,319Q1341,244 1386,204Q1430,164 1483,164Q1534,164 1578,193Q1622,221 1733,332Q1800,399 1800,459Q1800,494 1788,522Q1776,549 1746,586Q1716,623 1210,1198L1325,1298L1855,696Q1917,627 1951,574Q1985,520 1985,449Q1985,389 1972,351Q1958,313 1927,272Q1896,231 1805,145Q1714,59 1643,18Q1571,-23 1495,-23Q1430,-23 1373,9Q1315,41 1225,143L944,465L1061,567ZM1503,346L1274,608Q1208,684 1163,725Q1118,766 1065,766Q1012,766 968,734Q924,702 856,639L156,18L35,156L762,801Q838,868 903,909Q967,950 1053,950Q1118,950 1172,922Q1225,893 1323,784L1618,449L1503,346Z"  transform="translate(19910, 1100)"/>
<path d="M1790,0L1409,434L932,0L809,135L1288,571Q1188,688 1148,723Q1108,758 1057,758Q1004,758 960,726Q915,694 848,631L154,0L31,135L752,791Q827,858 893,900Q958,942 1044,942Q1094,942 1134,928Q1174,913 1214,881Q1253,848 1403,676Q1628,877 1687,910Q1745,942 1823,942Q1888,942 1942,914Q1995,885 2093,776L2683,102L2568,0L2042,600Q1976,676 1932,717Q1888,758 1835,758Q1782,758 1738,726Q1694,694 1626,631L1522,537L1905,102L1790,0Z"  transform="translate(22052, 1100)"/>
<path d=""  transform="translate(24766, 1100)"/>
<path d="M1468,274L1186,600Q1118,676 1074,717Q1030,758 977,758Q924,758 880,726Q836,694 768,631L752,616Q827,610 876,569Q924,528 979,471L1298,111L1188,0L893,336Q827,412 782,452Q737,492 684,492Q618,492 530,416L160,80L39,215L674,791Q750,858 815,900Q879,942 965,942Q1030,942 1088,911Q1145,879 1235,776L1581,385L1468,274Z"  transform="translate(25298, 1100)"/>
<path d="M145,942L672,342Q737,266 781,225Q825,184 879,184Q932,184 976,216Q1020,248 1087,311L1782,942L1905,807L1182,150Q1106,82 1042,41Q977,0 891,0Q821,0 766,31Q711,61 621,166L31,838L145,942ZM782,794Q782,932 907,932Q1036,932 1036,794Q1036,721 998,688Q960,655 907,655Q782,655 782,794Z"  transform="translate(26844, 1100)"/>
<path d="M715,604Q682,604 652,577Q621,549 557,475L166,43L31,166L459,637Q535,721 588,755Q641,788 698,788Q762,788 807,748Q852,707 915,623L1102,383Q1182,276 1205,259Q1227,242 1247,242Q1274,242 1306,276Q1337,309 1386,362L1634,637Q1710,721 1765,755Q1819,788 1876,788Q1939,788 1985,748Q2030,707 2095,621L2466,131L2349,43L2040,446Q1985,522 1954,563Q1923,604 1890,604Q1855,604 1825,575Q1794,545 1733,475L1497,215Q1427,137 1375,90Q1323,43 1260,43Q1204,43 1162,76Q1120,109 1036,221L778,563Q748,604 715,604Z"  transform="translate(28779, 1100)"/>
<path d="M1790,0L1264,600Q1198,676 1154,717Q1110,758 1057,758Q1004,758 960,726Q915,694 848,631L154,0L31,135L752,791Q827,858 893,900Q958,942 1044,942Q1110,942 1164,914Q1217,885 1315,776L1905,102L1790,0Z"  transform="translate(31276, 1100)"/>
<path d="M2415,176L1950,707Q1884,784 1839,824Q1794,864 1741,864Q1690,864 1646,833Q1602,801 1534,737L1374,594L1253,729L1438,899Q1513,967 1579,1008Q1645,1049 1731,1049Q1796,1049 1850,1021Q1903,993 1999,885L2527,287L2415,176ZM758,659Q709,659 668,631Q627,602 150,176L31,311L455,694Q530,762 595,804Q659,846 745,846Q819,846 875,815Q930,784 1016,686L1169,508Q1235,430 1280,390Q1325,350 1378,350Q1436,350 1487,389Q1538,428 1724,614L1853,485L1681,315Q1610,244 1544,205Q1477,166 1389,166Q1323,166 1269,196Q1214,225 1120,332L942,535Q889,596 847,628Q805,659 758,659Z"  transform="translate(33211, 1100)"/>
<path d="M47,135L616,645L551,723Q489,793 454,846Q418,899 418,975Q418,1049 455,1116Q492,1182 599,1273Q705,1364 760,1389Q815,1413 879,1413Q928,1413 968,1398Q1008,1382 1044,1353Q1079,1323 1417,938L1300,836L1090,1077Q1032,1145 987,1185Q942,1225 893,1225Q846,1225 814,1209Q782,1192 717,1133Q602,1040 602,963Q602,913 634,868Q666,823 731,748L1298,96L1188,0L737,510L168,0L47,135Z"  transform="translate(35767, 1100)"/>
<path d=""  transform="translate(37153, 1100)"/>
<path d="M758,760Q705,760 661,728Q616,696 549,633L150,274L31,412L455,793Q530,862 595,903Q659,944 745,944Q811,944 865,916Q918,887 1016,778L1147,633Q1184,588 1205,566Q1225,543 1253,543Q1278,543 1309,568Q1339,592 1554,793Q1630,862 1695,903Q1759,944 1847,944Q1913,944 1965,917Q2017,889 2116,778L2470,369L2361,276L2066,602Q1999,676 1955,718Q1911,760 1858,760Q1806,760 1761,728Q1716,696 1649,633L1434,436Q1380,385 1343,365Q1305,344 1262,344Q1219,344 1185,370Q1151,395 1110,442L942,635Q887,696 846,728Q805,760 758,760ZM928,440L1036,311Q1149,180 1257,180Q1343,180 1410,224Q1477,268 1544,338L1632,428L1761,299L1624,162Q1548,86 1467,43Q1386,0 1276,0Q1096,0 965,160L811,336L928,440Z"  transform="translate(37685, 1100)"/>
<path d="M6,391L868,1159L989,1022L127,256L6,391ZM399,137L1260,903L1382,766L522,2L399,137Z"  transform="translate(40186, 1100)"/>
<path d="M1790,0L1264,600Q1198,676 1154,717Q1110,758 1057,758Q1004,758 960,726Q915,694 848,631L154,0L31,135L752,791Q827,858 893,900Q958,942 1044,942Q1110,942 1164,914Q1217,885 1315,776L1905,102L1790,0ZM909,137Q909,275 1034,275Q1163,275 1163,137Q1163,64 1125,31Q1087,-2 1034,-2Q909,-2 909,137Z"  transform="translate(41572, 1100)"/>
<path d="M39,135L547,596Q623,664 688,705Q752,745 838,745Q911,745 971,710Q1030,674 1108,580L1307,352Q1372,274 1417,236Q1462,197 1516,197Q1569,197 1614,227Q1659,256 1724,322L1733,332Q1800,399 1800,459Q1800,494 1788,522Q1776,549 1746,586Q1716,623 1210,1198L1325,1298L1855,696Q1917,627 1951,574Q1985,520 1985,449Q1985,381 1965,334Q1944,287 1902,242Q1860,197 1785,132Q1710,66 1659,40Q1608,14 1526,10Q1436,10 1378,58Q1319,106 1257,176L1059,403Q993,481 948,521Q903,561 850,561Q797,561 753,530Q709,498 641,434L160,0L39,135Z"  transform="translate(43507, 1100)"/>
<path d="M1151,483Q1151,455 1096,403L899,221Q788,121 716,84Q643,47 559,47Q506,47 463,62Q420,76 383,104Q346,131 248,240Q74,430 53,462Q31,494 31,512Q31,543 84,592Q279,770 351,833Q422,895 491,922Q559,948 623,948Q698,948 761,916Q823,883 936,758L1096,571Q1151,516 1151,483ZM236,483Q367,330 405,297Q442,264 477,248Q512,231 549,231Q584,231 617,244Q649,256 687,284Q725,311 944,512Q838,639 768,702Q697,764 635,764Q578,764 528,735Q477,705 236,483Z"  transform="translate(45649, 1100)"/>
</svg>
