<svg xmlns="http://www.w3.org/2000/svg" viewBox="0 0 44580 3789" transform="translate(0, 3789) scale(1, -1)">
<path d="M1475,733Q1475,382 1298,181Q1120,-20 801,-20Q478,-20 302,178Q125,375 125,735Q125,1092 301,1289Q476,1485 803,1485Q1121,1485 1298,1286Q1475,1086 1475,733ZM892,139Q1073,165 1174,303Q1275,441 1285,685L892,685L892,139ZM314,685Q322,448 423,308Q524,167 708,140L708,685L314,685ZM1281,841Q1262,1053 1164,1176Q1065,1298 892,1323L892,841L1281,841ZM708,1322Q536,1297 436,1173Q336,1049 318,841L708,841L708,1322Z"  transform="translate(0, 1100)"/>
<path d="M1224,0L1015,0L628,635L235,0L40,0L526,762L71,1462L1189,1462L737,766L1224,0ZM634,889L891,1304L378,1304L634,889Z"  transform="translate(1600, 1100)"/>
<path d="M1323,930Q1323,694 1187,548Q1051,402 814,379L814,0L634,0L634,379Q477,394 361,467Q245,540 185,660Q125,779 125,931Q125,1096 197,1223Q269,1349 405,1417Q541,1485 725,1485Q1004,1485 1164,1337Q1323,1188 1323,930ZM319,930Q319,737 423,637Q526,537 722,537Q918,537 1024,636Q1129,735 1129,930Q1129,1120 1027,1222Q925,1323 725,1323Q525,1323 422,1222Q319,1121 319,930Z"  transform="translate(2864, 1100)"/>
<path d="M604,158L925,158L925,0L100,0L100,158L420,158L420,1304L100,1304L100,1462L925,1462L925,1304L604,1304L604,158Z"  transform="translate(4312, 1100)"/>
<path d="M1327,750Q1327,519 1193,373Q1058,226 818,200L818,0L634,0L634,199Q477,214 361,287Q245,360 185,480Q125,599 125,751Q125,982 260,1129Q395,1275 634,1300L634,1462L818,1462L818,1300Q1055,1277 1191,1131Q1327,984 1327,750ZM315,750Q315,584 396,482Q476,379 634,356L634,1143Q481,1121 398,1021Q315,921 315,750ZM1137,750Q1137,917 1055,1019Q972,1121 818,1143L818,357Q975,382 1056,485Q1137,587 1137,750Z"  transform="translate(5337, 1100)"/>
<path d="M384,1462L1077,1305L1042,1147L384,1296L384,885L912,767L877,609L384,719L384,295L1077,138L1042,-20L384,129L384,0L200,0L200,1462L384,1462Z"  transform="translate(6789, 1100)"/>
<path d=""  transform="translate(7966, 1100)"/>
<path d="M671,0L487,0L487,1304L30,1304L30,1462L1126,1462L1126,1304L671,1304L671,0Z"  transform="translate(8498, 1100)"/>
<path d="M1178,10Q1232,190 1232,343Q1232,925 554,1229Q638,1139 691,991Q744,843 744,674Q744,208 417,-20L315,124Q429,215 490,357Q550,498 550,684Q550,854 489,997Q428,1140 319,1222Q210,1304 80,1304L80,1462L124,1462Q489,1462 786,1316Q1082,1169 1254,905Q1425,641 1425,337Q1425,158 1365,-20L1178,10Z"  transform="translate(9654, 1100)"/>
<path d="M1652,0L1468,0L1468,685L1018,685L1018,0L834,0L834,685L384,685L384,0L200,0L200,1462L384,1462L384,841L834,841L834,1462L1018,1462L1018,841L1468,841L1468,1462L1652,1462L1652,0Z"  transform="translate(11199, 1100)"/>
<path d="M956,184L386,184L386,340L956,340L956,184ZM671,1278Q629,1110 608,1059L206,0L20,0L591,1468L757,1468L1327,0L1136,0L741,1059L671,1278Z"  transform="translate(13051, 1100)"/>
<path d="M113,1482Q398,1420 546,1227Q694,1034 694,728Q694,423 543,232Q391,40 113,-20L80,138Q298,202 399,344Q500,486 500,728Q500,972 396,1118Q291,1264 80,1324L113,1482ZM1464,1324Q1252,1264 1148,1118Q1044,971 1044,728Q1044,487 1145,345Q1245,203 1464,138L1431,-20Q1153,40 1002,232Q850,423 850,728Q850,1034 998,1227Q1146,1420 1431,1482L1464,1324Z"  transform="translate(14398, 1100)"/>
<path d="M1680,0L1496,0L1496,1304L1032,1304L1032,0L848,0L848,1304L384,1304L384,0L200,0L200,1462L1680,1462L1680,0Z"  transform="translate(15942, 1100)"/>
<path d=""  transform="translate(17822, 1100)"/>
<path d="M1318,0L1134,0L1134,685L384,685L384,0L200,0L200,1462L384,1462L384,841L1134,841L1134,1462L1318,1462L1318,0Z"  transform="translate(18354, 1100)"/>
<path d="M753,695L1341,94L1224,-20L680,536L137,-20L20,94L608,695L753,695ZM753,1462L1341,861L1224,747L680,1303L137,747L20,861L608,1462L753,1462Z"  transform="translate(19872, 1100)"/>
<path d="M825,1321Q589,1321 454,1163Q319,1005 319,731Q319,448 450,295Q581,141 823,141Q979,141 1174,199L1174,39Q1081,5 995,-7Q909,-20 797,-20Q474,-20 300,177Q125,373 125,733Q125,959 209,1129Q292,1299 452,1391Q611,1483 827,1483Q1059,1483 1231,1397L1157,1241Q982,1321 825,1321Z"  transform="translate(21233, 1100)"/>
<path d="M781,1462L781,832Q847,955 919,1075L1151,1462L1339,1462L781,557L781,0L597,0L597,557L40,1462L228,1462L474,1053L597,836L597,1462L781,1462Z"  transform="translate(22527, 1100)"/>
<path d="M736,484Q736,322 819,232Q902,142 1042,142Q1151,142 1239,203Q1327,263 1377,374L1527,293Q1477,152 1345,66Q1212,-20 1043,-20Q896,-20 781,38Q666,96 604,204Q542,311 542,453Q542,620 644,765L60,765L60,921L761,921L390,1383L520,1482L966,924L943,819Q850,782 793,691Q736,599 736,484Z"  transform="translate(23906, 1100)"/>
<path d="M1116,0L940,457L360,457L186,0L0,0L571,1468L737,1468L1307,0L1116,0ZM885,616L721,1059L651,1278Q616,1139 588,1059L422,616L885,616Z"  transform="translate(25533, 1100)"/>
<path d=""  transform="translate(26842, 1100)"/>
<path d="M773,1463L1361,862L1244,748L793,1215L793,0L609,0L609,1217L157,748L40,862L628,1463L773,1463Z"  transform="translate(27374, 1100)"/>
<path d="M200,1462L617,1462Q911,1462 1042,1375Q1172,1287 1172,1100Q1172,970 1101,886Q1030,801 894,776L894,766Q1063,737 1143,649Q1222,561 1222,416Q1222,220 1088,110Q954,0 714,0L200,0L200,1462ZM384,841L654,841Q828,841 905,896Q982,951 982,1079Q982,1199 897,1252Q811,1304 626,1304L384,1304L384,841ZM384,158L679,158Q853,158 939,225Q1025,292 1025,430Q1025,559 937,622Q849,685 665,685L384,685L384,158Z"  transform="translate(28775, 1100)"/>
<path d="M1146,1351L695,640L695,0L511,0L511,640L60,1349L60,1462L1146,1462L1146,1351ZM288,1304L603,800L918,1304L288,1304Z"  transform="translate(30107, 1100)"/>
<path d="M676,1304L636,1304Q537,1304 466,1263Q395,1222 357,1150Q319,1077 319,984Q319,894 357,822Q395,749 467,708Q538,667 636,667L676,667L676,509L630,509Q480,509 365,570Q250,631 188,741Q125,851 125,985Q125,1121 188,1231Q250,1340 365,1401Q479,1462 630,1462L676,1462L676,1304ZM648,158L688,158Q787,158 858,199Q929,240 967,313Q1005,385 1005,478Q1005,568 967,641Q929,713 858,754Q786,795 688,795L648,795L648,953L694,953Q844,953 959,892Q1074,831 1137,721Q1199,611 1199,477Q1199,341 1137,232Q1074,122 960,61Q845,0 694,0L648,0L648,158Z"  transform="translate(31313, 1100)"/>
<path d="M60,113L521,1462L705,1462L1168,111L1168,0L60,0L60,113ZM611,1262Q560,1062 517,932L255,158L967,158L709,924Q642,1124 611,1262Z"  transform="translate(32637, 1100)"/>
<path d="M1026,0L889,0Q520,0 323,191Q125,382 125,745Q125,1087 315,1275Q504,1462 846,1462L1026,1462L1026,0ZM320,685Q346,193 842,160L842,685L320,685ZM842,1304Q371,1292 324,841L842,841L842,1304Z"  transform="translate(33865, 1100)"/>
<path d=""  transform="translate(35091, 1100)"/>
<path d="M1172,830L1172,873Q1172,1096 1063,1210Q953,1323 744,1323Q550,1323 467,1234Q384,1144 384,953L384,0L200,0L200,1000Q200,1230 342,1358Q484,1485 744,1485Q1042,1485 1199,1335Q1356,1184 1356,873L1356,830L1172,830Z"  transform="translate(35623, 1100)"/>
<path d="M1475,733Q1475,382 1298,181Q1120,-20 801,-20Q478,-20 302,178Q125,375 125,735Q125,1092 301,1289Q476,1485 803,1485Q1121,1485 1298,1286Q1475,1086 1475,733ZM891,131Q1082,159 1186,314Q1289,468 1289,733Q1289,995 1188,1149Q1086,1302 891,1331L891,131ZM707,1329Q514,1298 413,1145Q311,991 311,733Q311,476 412,320Q513,163 707,132L707,1329Z"  transform="translate(37079, 1100)"/>
<path d="M1475,733Q1475,382 1298,181Q1120,-20 801,-20Q478,-20 302,178Q125,375 125,735Q125,1092 301,1289Q476,1485 803,1485Q1121,1485 1298,1286Q1475,1086 1475,733ZM319,733Q319,443 442,291Q565,139 801,139Q1036,139 1158,289Q1280,439 1280,733Q1280,1026 1159,1175Q1038,1323 803,1323Q565,1323 442,1173Q319,1022 319,733Z"  transform="translate(38679, 1100)"/>
<path d="M1883,0L30,0L417,1462L608,1462L879,516Q937,308 949,221Q960,296 1023,510L1303,1462L1494,1462L1883,0ZM1394,1236Q1366,1057 1314,884L1096,158L1648,158L1465,886Q1410,1098 1394,1236ZM519,1236Q497,1080 449,888L265,158L805,158L597,877Q541,1072 519,1236Z"  transform="translate(40278, 1100)"/>
<path d="M384,1462L1077,1305L1042,1147L384,1296L384,0L200,0L200,1462L384,1462Z"  transform="translate(42191, 1100)"/>
<path d="M1072,1462L1072,532L698,532L698,0L514,0L514,532L140,532L140,1462L1072,1462ZM324,690L888,690L888,1304L324,1304L324,690Z"  transform="translate(43368, 1100)"/>
</svg>
