<svg xmlns="http://www.w3.org/2000/svg" viewBox="0 0 65961 4675" transform="translate(0, 4675) scale(1, -1)">
<path d="M1626,170Q1696,170 1734,233Q1772,296 1772,417L1772,1100L1819,1100Q1924,1100 1988,1057Q2052,1014 2080,925Q2107,835 2107,635L2107,0L2027,0L2027,626Q2027,930 1878,930L1852,930L1852,465Q1852,262 1826,175Q1800,87 1736,44Q1671,0 1567,0L1520,0L1520,612Q1520,791 1426,870Q1332,948 1130,948Q923,948 832,867Q740,785 740,616L740,0L693,0Q590,0 526,43Q461,86 435,175Q408,263 408,465L408,660Q408,825 382,887Q355,948 289,948Q239,948 212,925Q184,902 173,859Q162,815 160,688Q131,680 116,680L80,686Q80,920 133,1019Q185,1118 286,1118Q387,1118 438,1024Q488,930 488,653L488,417Q488,296 527,233Q565,170 634,170L660,170L660,616Q660,860 779,989Q898,1118 1129,1118Q1355,1118 1478,995Q1600,871 1600,615L1600,170L1626,170ZM1235,-51L1193,222Q1168,387 1136,449Q1103,510 1048,510Q1016,510 993,486Q969,462 958,418L895,438Q910,539 960,610Q1010,680 1071,680Q1140,680 1185,595Q1230,509 1262,297L1314,-31L1235,-51Z"  transform="translate(0, 1986)"/>
<path d="M1443,0L1443,626Q1443,930 1294,930L1268,930L1268,482Q1268,237 1161,109Q1053,-20 839,-20Q624,-20 516,104Q408,227 408,464L408,660Q408,825 382,887Q355,948 289,948Q239,948 212,925Q184,902 173,859Q162,815 160,688Q131,680 116,680L80,686Q80,920 133,1019Q185,1118 286,1118Q387,1118 438,1024Q488,930 488,653L488,486Q488,306 570,228Q652,150 838,150Q1025,150 1107,231Q1188,312 1188,482L1188,1100L1235,1100Q1340,1100 1404,1057Q1468,1014 1496,925Q1523,835 1523,635L1523,0L1443,0ZM990,-217Q931,-180 833,-180Q773,-180 732,-199Q691,-218 691,-250Q691,-298 829,-327Q966,-357 1043,-406Q1120,-456 1120,-544Q1120,-640 1046,-705Q971,-770 856,-770Q747,-770 638,-701Q529,-632 498,-541L536,-515Q563,-557 658,-589Q752,-621 836,-621Q914,-621 975,-596Q1035,-571 1035,-530Q1035,-490 992,-463Q948,-436 821,-408Q694,-380 650,-346Q606,-312 606,-263Q606,-192 673,-146Q739,-100 838,-100Q905,-100 949,-113Q992,-126 1029,-146L990,-217Z"  transform="translate(2237, 1986)"/>
<path d="M1270,420Q1267,191 1206,86Q1144,-20 1026,-20Q892,-20 761,165Q630,349 537,386L537,372Q537,168 481,74Q425,-20 314,-20Q237,-20 188,41Q139,101 139,189Q139,352 228,457Q317,561 457,569L457,660Q457,805 422,877Q386,948 309,948Q236,948 200,899Q163,849 160,688Q131,680 116,680L80,686Q80,916 140,1017Q199,1118 320,1118Q425,1118 481,1021Q537,924 537,653L537,563Q617,545 694,480Q771,414 870,282Q968,150 1023,150Q1105,150 1146,217Q1187,283 1190,450L1190,535Q1190,702 1109,816Q1027,930 882,930Q969,1118 1159,1118Q1326,1118 1412,996Q1497,873 1497,635L1497,0L1417,0L1417,626Q1417,777 1361,863Q1305,948 1196,948Q1150,948 1117,934Q1195,870 1233,783Q1270,696 1270,559L1270,420ZM457,365L457,399Q229,394 229,200Q229,80 318,80Q457,80 457,365Z"  transform="translate(3890, 1986)"/>
<path d="M2090,-432Q2035,-469 1958,-488Q1881,-508 1808,-508L1757,-507Q1692,-817 1580,-1120L1500,-1100L1510,-1068Q1506,-1001 1409,-951Q1311,-901 1060,-844Q809,-787 669,-733Q528,-680 454,-604Q380,-528 380,-428Q380,-308 482,-224Q584,-140 743,-140Q951,-140 1236,-257Q1521,-375 1677,-398Q1740,-45 1740,258Q1740,948 1470,948Q1385,948 1325,890Q1264,832 1255,733L1186,733Q1186,817 1122,883Q1057,948 971,948Q845,948 793,868Q740,788 740,616L740,0L693,0Q590,0 526,43Q461,86 435,175Q408,263 408,465L408,660Q408,825 382,887Q355,948 289,948Q239,948 212,925Q184,902 173,859Q162,815 160,688Q131,680 116,680L80,686Q80,920 133,1019Q185,1118 286,1118Q387,1118 438,1024Q488,930 488,653L488,417Q488,296 527,233Q565,170 634,170L660,170L660,616Q660,890 732,1004Q804,1118 971,1118Q1154,1118 1220,912Q1287,1118 1470,1118Q1649,1118 1745,901Q1840,683 1840,268Q1840,-68 1777,-407L1798,-408Q1972,-408 2057,-361L2090,-432ZM1551,-935Q1620,-697 1659,-499Q1466,-477 1158,-383Q850,-290 681,-290Q480,-290 480,-432Q480,-531 614,-606Q748,-681 1112,-763Q1475,-846 1551,-935Z"  transform="translate(5517, 1986)"/>
<path d="M0,850Q59,975 164,1047Q269,1118 388,1118Q583,1118 700,988Q816,858 816,658Q816,439 713,309Q610,178 437,178Q372,178 320,215Q268,252 268,307Q268,432 377,523L444,472Q401,429 401,377Q401,334 427,313Q453,291 493,291Q586,291 651,395Q716,499 716,651Q716,790 629,874Q542,958 391,958Q280,958 197,918Q114,878 74,804L0,850Z"  transform="translate(7457, 1986)"/>
<path d="M2065,0L2065,626Q2065,930 1916,930L1890,930L1890,221Q1890,110 1846,45Q1802,-20 1726,-20Q1631,-20 1586,63Q1540,146 1540,372L1540,612Q1540,790 1443,869Q1345,948 1141,948Q935,948 832,862Q729,776 729,612L729,608Q1017,593 1179,489Q1341,384 1341,203Q1341,100 1268,40Q1194,-20 1069,-20Q916,-20 783,101Q649,222 649,413L649,440L537,435L537,372Q537,168 481,74Q425,-20 314,-20Q237,-20 188,41Q139,101 139,189Q139,333 224,438Q308,543 457,586L457,660Q457,805 422,877Q386,948 309,948Q236,948 200,899Q163,849 160,688Q131,680 116,680L80,686Q80,916 140,1017Q199,1118 320,1118Q425,1118 481,1021Q537,924 537,653L537,603Q565,607 649,610L649,654Q649,873 780,996Q910,1118 1138,1118Q1375,1118 1498,989Q1620,860 1620,615L1620,365Q1620,231 1643,181Q1665,130 1729,130Q1767,130 1789,174Q1810,218 1810,283L1810,1100L1857,1100Q1962,1100 2026,1057Q2090,1014 2118,925Q2145,835 2145,635L2145,0L2065,0ZM729,407Q729,251 840,166Q951,80 1080,80Q1149,80 1195,105Q1241,130 1241,174Q1241,280 1100,351Q958,422 729,437L729,407ZM457,421Q345,394 287,337Q229,279 229,200Q229,80 318,80Q457,80 457,365L457,421Z"  transform="translate(8373, 1986)"/>
<path d="M2295,0L2295,626Q2295,930 2146,930L2120,930L2120,482Q2120,237 2013,109Q1905,-20 1691,-20Q1476,-20 1368,104Q1260,227 1260,464L1260,612Q1260,804 1202,876Q1144,948 1000,948Q889,948 837,919Q785,890 763,823Q740,755 740,616L740,339Q740,142 704,61Q667,-20 584,-20Q495,-20 452,51Q408,121 408,323L408,660Q408,825 382,887Q355,948 289,948Q239,948 212,925Q184,902 173,859Q162,815 160,688Q131,680 116,680L80,686Q80,920 133,1019Q185,1118 286,1118Q387,1118 438,1024Q488,930 488,653L488,365Q488,220 508,175Q528,130 587,130Q660,130 660,341L660,616Q660,891 738,1005Q816,1118 999,1118Q1183,1118 1262,1004Q1340,889 1340,615L1340,486Q1340,306 1422,228Q1504,150 1690,150Q1877,150 1959,231Q2040,312 2040,482L2040,1100L2087,1100Q2192,1100 2256,1057Q2320,1014 2348,925Q2375,835 2375,635L2375,0L2295,0Z"  transform="translate(10648, 1986)"/>
<path d=""  transform="translate(13153, 1986)"/>
<path d="M788,770L788,383L856,300Q916,218 954,184Q992,150 1023,150Q1105,150 1148,219Q1190,287 1190,475L1190,1100L1237,1100Q1342,1100 1406,1057Q1470,1014 1498,925Q1525,835 1525,635L1525,0L1445,0L1445,626Q1445,930 1296,930L1270,930L1270,427Q1270,-20 1026,-20Q969,-20 915,11Q860,42 788,129L788,-4Q788,-159 875,-254Q962,-350 1107,-350Q1252,-350 1338,-288Q1424,-226 1441,-110L1507,-130Q1485,-319 1382,-419Q1278,-520 1107,-520Q922,-520 815,-384Q708,-248 708,-15L708,232Q614,354 537,386L537,372Q537,168 481,74Q425,-20 314,-20Q237,-20 188,41Q139,101 139,189Q139,352 228,457Q317,561 457,569L457,660Q457,805 422,877Q386,948 309,948Q236,948 200,899Q163,849 160,688Q131,680 116,680L80,686Q80,916 140,1017Q199,1118 320,1118Q425,1118 481,1021Q537,924 537,653L537,563Q624,543 708,466L708,770L788,770ZM457,365L457,399Q229,394 229,200Q229,80 318,80Q457,80 457,365Z"  transform="translate(13683, 1986)"/>
<path d="M1324,-1118L1324,-826Q1324,-649 1232,-568Q1139,-488 934,-488Q728,-488 636,-570Q544,-652 544,-822L544,-1118L497,-1118Q325,-1118 228,-1001Q130,-885 130,-676Q130,-500 237,-330Q343,-161 620,73Q897,307 990,446Q1082,585 1082,721Q1082,828 1024,888Q966,948 870,948Q766,948 706,881Q646,813 644,688Q615,680 600,680L564,686Q564,883 643,1001Q721,1118 867,1118Q1010,1118 1096,1010Q1182,901 1182,714Q1182,552 1115,403Q1048,253 911,114Q773,-25 583,-176Q393,-327 312,-447Q230,-567 230,-681Q230,-795 297,-871Q363,-948 438,-948L464,-948L464,-822Q464,-577 584,-447Q703,-318 933,-318Q1159,-318 1282,-442Q1404,-567 1404,-823L1404,-1118L1324,-1118Z"  transform="translate(15338, 1986)"/>
<path d="M408,660Q408,825 382,887Q355,948 289,948Q239,948 212,925Q184,902 173,859Q162,815 160,688Q131,680 116,680L80,686Q80,920 133,1019Q185,1118 286,1118Q387,1118 438,1024Q488,930 488,653L488,482Q488,303 532,227Q575,150 679,150Q748,150 791,188Q834,226 873,296Q911,365 968,365Q1041,365 1101,258Q1160,150 1258,150Q1362,150 1405,227Q1448,303 1448,482L1448,535Q1448,702 1367,816Q1285,930 1140,930Q1227,1118 1417,1118Q1584,1118 1670,996Q1755,873 1755,635L1755,0L1675,0L1675,626Q1675,777 1619,863Q1563,948 1454,948Q1408,948 1375,934Q1453,870 1491,783Q1528,696 1528,559L1528,482Q1528,210 1470,95Q1411,-20 1278,-20Q1178,-20 1116,83Q1054,186 968,186Q881,186 821,83Q760,-20 659,-20Q524,-20 466,98Q408,216 408,482L408,660Z"  transform="translate(16872, 1986)"/>
<path d="M137,471Q100,588 100,702Q100,905 285,1012Q469,1118 803,1118Q951,1118 1053,1088L1037,934Q953,948 803,948Q631,948 538,906Q444,863 444,787Q444,705 536,655Q628,605 775,605L889,605L889,527L775,527Q632,527 538,475Q444,422 444,339Q444,251 545,201Q645,150 832,150Q1095,150 1190,231Q1284,311 1284,482L1284,1100L1331,1100Q1436,1100 1500,1057Q1564,1014 1592,925Q1619,835 1619,635L1619,0L1539,0L1539,626Q1539,930 1390,930L1364,930L1364,482Q1364,-20 835,-20Q604,-20 474,73Q344,165 344,325Q344,411 390,474Q435,537 518,567Q344,634 344,801Q344,902 416,980Q311,939 256,870Q200,801 200,710Q200,601 229,510L137,471Z"  transform="translate(18757, 1986)"/>
<path d="M1443,0L1443,626Q1443,930 1294,930L1268,930L1268,482Q1268,237 1161,109Q1053,-20 839,-20Q624,-20 516,104Q408,227 408,464L408,660Q408,825 382,887Q355,948 289,948Q239,948 212,925Q184,902 173,859Q162,815 160,688Q131,680 116,680L80,686Q80,920 133,1019Q185,1118 286,1118Q387,1118 438,1024Q488,930 488,653L488,486Q488,306 570,228Q652,150 838,150Q1025,150 1107,231Q1188,312 1188,482L1188,1100L1235,1100Q1340,1100 1404,1057Q1468,1014 1496,925Q1523,835 1523,635L1523,0L1443,0ZM990,-217Q931,-180 833,-180Q773,-180 732,-199Q691,-218 691,-250Q691,-298 829,-327Q966,-357 1043,-406Q1120,-456 1120,-544Q1120,-640 1046,-705Q971,-770 856,-770Q747,-770 638,-701Q529,-632 498,-541L536,-515Q563,-557 658,-589Q752,-621 836,-621Q914,-621 975,-596Q1035,-571 1035,-530Q1035,-490 992,-463Q948,-436 821,-408Q694,-380 650,-346Q606,-312 606,-263Q606,-192 673,-146Q739,-100 838,-100Q905,-100 949,-113Q992,-126 1029,-146L990,-217Z"  transform="translate(20506, 1986)"/>
<path d="M0,850Q59,975 164,1047Q269,1118 388,1118Q583,1118 700,988Q816,858 816,658Q816,439 713,309Q610,178 437,178Q372,178 320,215Q268,252 268,307Q268,432 377,523L444,472Q401,429 401,377Q401,334 427,313Q453,291 493,291Q586,291 651,395Q716,499 716,651Q716,790 629,874Q542,958 391,958Q280,958 197,918Q114,878 74,804L0,850Z"  transform="translate(22159, 1986)"/>
<path d="M1415,0L1415,626Q1415,777 1359,863Q1303,948 1194,948Q1148,948 1115,934Q1193,870 1231,783Q1268,696 1268,559L1268,482Q1268,237 1161,109Q1053,-20 839,-20Q624,-20 516,104Q408,227 408,464L408,660Q408,825 382,887Q355,948 289,948Q239,948 212,925Q184,902 173,859Q162,815 160,688Q131,680 116,680L80,686Q80,920 133,1019Q185,1118 286,1118Q387,1118 438,1024Q488,930 488,653L488,486Q488,306 570,228Q652,150 838,150Q1025,150 1107,231Q1188,312 1188,482L1188,535Q1188,702 1107,816Q1025,930 880,930Q967,1118 1157,1118Q1324,1118 1410,996Q1495,873 1495,635L1495,0L1415,0Z"  transform="translate(23075, 1986)"/>
<path d=""  transform="translate(24700, 1986)"/>
<path d="M905,503Q938,510 962,510Q1096,510 1179,423Q1261,335 1261,189Q1261,101 1212,41Q1163,-20 1086,-20Q977,-20 910,59Q842,138 828,286Q782,253 630,117Q477,-20 364,-20Q262,-20 191,50Q120,120 120,225Q120,317 194,405L256,361Q210,298 210,256Q210,208 241,179Q272,150 331,150Q456,150 595,287Q734,424 825,473L825,616Q825,860 944,989Q1063,1118 1294,1118Q1520,1118 1643,995Q1765,871 1765,615L1765,0L1685,0L1685,612Q1685,791 1591,870Q1497,948 1295,948Q1088,948 997,867Q905,785 905,616L905,503ZM905,326Q908,208 954,144Q1000,80 1082,80Q1117,80 1144,109Q1171,137 1171,174Q1171,253 1120,296Q1068,339 977,339Q942,339 905,326ZM423,560L415,659Q402,832 377,890Q351,948 298,948Q228,948 196,902Q163,856 160,688Q131,680 116,680L80,686Q80,937 141,1028Q202,1118 309,1118Q388,1118 430,1040Q472,961 486,759L503,565L423,560Z"  transform="translate(25230, 1986)"/>
<path d="M1528,1100L1528,482Q1528,210 1470,95Q1411,-20 1278,-20Q1178,-20 1116,83Q1054,186 968,186Q881,186 821,83Q760,-20 659,-20Q524,-20 466,98Q408,216 408,482L408,660Q408,825 382,887Q355,948 289,948Q239,948 212,925Q184,902 173,859Q162,815 160,688Q131,680 116,680L80,686Q80,920 133,1019Q185,1118 286,1118Q387,1118 438,1024Q488,930 488,653L488,482Q488,303 532,227Q575,150 679,150Q748,150 791,188Q834,226 873,296Q911,365 968,365Q1041,365 1101,258Q1160,150 1258,150Q1362,150 1405,227Q1448,303 1448,482L1448,1100L1528,1100Z"  transform="translate(27125, 1986)"/>
<path d="M1270,427Q1267,191 1206,86Q1145,-20 1026,-20Q892,-20 761,165Q630,349 537,386L537,372Q537,168 481,74Q425,-20 314,-20Q237,-20 188,41Q139,101 139,189Q139,352 228,457Q317,561 457,569L457,660Q457,805 422,877Q386,948 309,948Q236,948 200,899Q163,849 160,688Q131,680 116,680L80,686Q80,916 140,1017Q199,1118 320,1118Q425,1118 481,1021Q537,924 537,653L537,563Q617,545 694,480Q771,414 870,282Q968,150 1023,150Q1105,150 1148,219Q1190,287 1190,475L1190,1100L1237,1100Q1342,1100 1406,1057Q1470,1014 1498,925Q1525,835 1525,635L1525,0L1445,0L1445,626Q1445,930 1296,930L1270,930L1270,427ZM457,365L457,399Q229,394 229,200Q229,80 318,80Q457,80 457,365Z"  transform="translate(28783, 1986)"/>
<path d="M2784,0L2784,626Q2784,783 2740,857Q2696,930 2625,930L2579,930L2579,410Q2579,202 2511,91Q2442,-20 2313,-20Q2087,-20 2012,388Q1937,-20 1711,-20Q1581,-20 1513,92Q1445,203 1445,410L1445,626Q1445,930 1296,930L1270,930L1270,427Q1270,-20 1026,-20Q892,-20 761,165Q630,349 537,386L537,372Q537,168 481,74Q425,-20 314,-20Q237,-20 188,41Q139,101 139,189Q139,352 228,457Q317,561 457,569L457,660Q457,805 422,877Q386,948 309,948Q236,948 200,899Q163,849 160,688Q131,680 116,680L80,686Q80,916 140,1017Q199,1118 320,1118Q425,1118 481,1021Q537,924 537,653L537,563Q617,545 694,480Q771,414 870,282Q968,150 1023,150Q1105,150 1148,219Q1190,287 1190,475L1190,1100L1237,1100Q1342,1100 1406,1057Q1470,1014 1498,925Q1525,835 1525,635L1525,439Q1525,289 1573,220Q1620,150 1717,150Q1834,150 1898,334Q1962,518 1968,858L1970,1010L2054,1010Q2059,622 2091,466Q2123,310 2176,230Q2228,150 2307,150Q2410,150 2455,225Q2499,299 2499,439L2499,1100L2566,1100Q2716,1100 2790,1009Q2864,917 2864,635L2864,0L2784,0ZM457,365L457,399Q229,394 229,200Q229,80 318,80Q457,80 457,365Z"  transform="translate(30438, 1986)"/>
<path d="M738,770L738,615L859,610L859,654Q859,873 990,996Q1120,1118 1348,1118Q1585,1118 1708,989Q1830,860 1830,615L1830,365Q1830,231 1853,181Q1875,130 1939,130Q1977,130 1999,174Q2020,218 2020,283L2020,1100L2067,1100Q2172,1100 2236,1057Q2300,1014 2328,925Q2355,835 2355,635L2355,0L2275,0L2275,626Q2275,930 2126,930L2100,930L2100,221Q2100,110 2056,45Q2012,-20 1936,-20Q1841,-20 1796,63Q1750,146 1750,372L1750,612Q1750,790 1653,869Q1555,948 1351,948Q1148,948 1044,860Q939,772 939,603Q1253,575 1402,478Q1551,380 1551,203Q1551,100 1478,40Q1404,-20 1279,-20Q1126,-20 993,101Q859,222 859,413L859,442Q820,445 738,445L738,-4Q738,-159 825,-254Q912,-350 1057,-350Q1202,-350 1288,-288Q1374,-226 1391,-110L1457,-130Q1435,-319 1332,-419Q1228,-520 1057,-520Q872,-520 765,-384Q658,-248 658,-15L658,443L537,435L537,372Q537,168 481,74Q425,-20 314,-20Q237,-20 188,41Q139,101 139,189Q139,333 224,438Q308,543 457,586L457,660Q457,805 422,877Q386,948 309,948Q236,948 200,899Q163,849 160,688Q131,680 116,680L80,686Q80,916 140,1017Q199,1118 320,1118Q425,1118 481,1021Q537,924 537,653L537,602L658,613L658,770L738,770ZM939,437L939,407Q939,251 1050,166Q1161,80 1290,80Q1359,80 1405,105Q1451,130 1451,174Q1451,280 1310,351Q1168,422 939,437ZM457,365L457,421Q345,394 287,337Q229,279 229,200Q229,80 318,80Q457,80 457,365Z"  transform="translate(33432, 1986)"/>
<path d="M2291,0L2291,626Q2291,930 2142,930L2116,930L2116,221Q2116,110 2072,45Q2028,-20 1952,-20Q1857,-20 1812,63Q1766,146 1766,372L1766,661Q1766,948 1546,948Q1480,948 1426,911Q1371,873 1334,810Q1297,747 1253,694Q1209,640 1151,640Q1092,640 1049,694Q1005,748 968,811Q931,873 876,911Q821,948 755,948Q673,948 621,901Q569,853 527,718Q485,583 436,538Q386,493 306,493Q191,493 136,592Q80,690 80,925L116,931Q131,931 160,923Q162,794 176,751Q189,707 220,685Q251,663 308,663Q377,663 416,701Q455,738 473,807L495,891Q521,990 551,1031Q580,1072 627,1095Q674,1118 747,1118Q815,1118 871,1080Q926,1041 961,979Q996,917 1041,864Q1086,810 1150,810Q1247,810 1331,964Q1414,1118 1554,1118Q1698,1118 1772,1001Q1846,883 1846,664L1846,365Q1846,231 1869,181Q1891,130 1955,130Q1993,130 2015,174Q2036,218 2036,283L2036,1100L2083,1100Q2188,1100 2252,1057Q2316,1014 2344,925Q2371,835 2371,635L2371,0L2291,0Z"  transform="translate(35917, 1986)"/>
<path d=""  transform="translate(38418, 1986)"/>
<path d="M1934,-1118L1934,-826Q1934,-649 1842,-568Q1749,-488 1544,-488Q1338,-488 1246,-570Q1154,-652 1154,-822L1154,-1118L1107,-1118Q936,-1118 839,-1002Q741,-886 741,-676Q741,-507 840,-353Q938,-200 1217,23Q1495,245 1594,399Q1693,552 1693,721Q1693,827 1634,888Q1574,948 1470,948Q1385,948 1325,890Q1264,832 1255,733L1186,733Q1186,817 1122,883Q1057,948 971,948Q845,948 793,868Q740,788 740,616L740,0L693,0Q590,0 526,43Q461,86 435,175Q408,263 408,465L408,660Q408,825 382,887Q355,948 289,948Q239,948 212,925Q184,902 173,859Q162,815 160,688Q131,680 116,680L80,686Q80,920 133,1019Q185,1118 286,1118Q387,1118 438,1024Q488,930 488,653L488,417Q488,296 527,233Q565,170 634,170L660,170L660,616Q660,890 732,1004Q804,1118 971,1118Q1154,1118 1220,912Q1287,1118 1470,1118Q1623,1118 1708,1013Q1793,907 1793,714Q1793,535 1731,379Q1668,222 1535,84Q1402,-55 1191,-210Q980,-366 911,-472Q841,-578 841,-683Q841,-782 902,-865Q962,-948 1048,-948L1074,-948L1074,-822Q1074,-577 1194,-447Q1313,-318 1543,-318Q1769,-318 1892,-442Q2014,-567 2014,-823L2014,-1118L1934,-1118Z"  transform="translate(38948, 1986)"/>
<path d="M1324,-1118L1324,-826Q1324,-649 1232,-568Q1139,-488 934,-488Q728,-488 636,-570Q544,-652 544,-822L544,-1118L497,-1118Q325,-1118 228,-1001Q130,-885 130,-676Q130,-500 237,-330Q343,-161 620,73Q897,307 990,446Q1082,585 1082,721Q1082,828 1024,888Q966,948 870,948Q766,948 706,881Q646,813 644,688Q615,680 600,680L564,686Q564,883 643,1001Q721,1118 867,1118Q1010,1118 1096,1010Q1182,901 1182,714Q1182,552 1115,403Q1048,253 911,114Q773,-25 583,-176Q393,-327 312,-447Q230,-567 230,-681Q230,-795 297,-871Q363,-948 438,-948L464,-948L464,-822Q464,-577 584,-447Q703,-318 933,-318Q1159,-318 1282,-442Q1404,-567 1404,-823L1404,-1118L1324,-1118Z"  transform="translate(40962, 1986)"/>
<path d="M0,850Q59,975 164,1047Q269,1118 388,1118Q583,1118 700,988Q816,858 816,658Q816,439 713,309Q610,178 437,178Q372,178 320,215Q268,252 268,307Q268,432 377,523L444,472Q401,429 401,377Q401,334 427,313Q453,291 493,291Q586,291 651,395Q716,499 716,651Q716,790 629,874Q542,958 391,958Q280,958 197,918Q114,878 74,804L0,850Z"  transform="translate(42496, 1986)"/>
<path d="M1520,0L1520,612Q1520,791 1426,870Q1332,948 1130,948Q923,948 832,867Q740,785 740,616L740,465Q740,262 714,175Q688,87 624,44Q559,0 455,0L408,0L408,660Q408,825 382,887Q355,948 289,948Q239,948 212,925Q184,902 173,859Q162,815 160,688Q131,680 116,680L80,686Q80,920 133,1019Q185,1118 286,1118Q387,1118 438,1024Q488,930 488,653L488,170L514,170Q584,170 622,233Q660,296 660,417L660,616Q660,860 779,989Q898,1118 1129,1118Q1355,1118 1478,995Q1600,871 1600,615L1600,0L1520,0Z"  transform="translate(43412, 1986)"/>
<path d="M1934,-1118L1934,-826Q1934,-649 1842,-568Q1749,-488 1544,-488Q1338,-488 1246,-570Q1154,-652 1154,-822L1154,-1118L1107,-1118Q936,-1118 839,-1002Q741,-886 741,-676Q741,-507 840,-353Q938,-200 1217,23Q1495,245 1594,399Q1693,552 1693,721Q1693,827 1634,888Q1574,948 1470,948Q1385,948 1325,890Q1264,832 1255,733L1186,733Q1186,817 1122,883Q1057,948 971,948Q845,948 793,868Q740,788 740,616L740,0L693,0Q590,0 526,43Q461,86 435,175Q408,263 408,465L408,660Q408,825 382,887Q355,948 289,948Q239,948 212,925Q184,902 173,859Q162,815 160,688Q131,680 116,680L80,686Q80,920 133,1019Q185,1118 286,1118Q387,1118 438,1024Q488,930 488,653L488,417Q488,296 527,233Q565,170 634,170L660,170L660,616Q660,890 732,1004Q804,1118 971,1118Q1154,1118 1220,912Q1287,1118 1470,1118Q1623,1118 1708,1013Q1793,907 1793,714Q1793,535 1731,379Q1668,222 1535,84Q1402,-55 1191,-210Q980,-366 911,-472Q841,-578 841,-683Q841,-782 902,-865Q962,-948 1048,-948L1074,-948L1074,-822Q1074,-577 1194,-447Q1313,-318 1543,-318Q1769,-318 1892,-442Q2014,-567 2014,-823L2014,-1118L1934,-1118Z"  transform="translate(45142, 1986)"/>
<path d="M0,850Q59,975 164,1047Q269,1118 388,1118Q583,1118 700,988Q816,858 816,658Q816,439 713,309Q610,178 437,178Q372,178 320,215Q268,252 268,307Q268,432 377,523L444,472Q401,429 401,377Q401,334 427,313Q453,291 493,291Q586,291 651,395Q716,499 716,651Q716,790 629,874Q542,958 391,958Q280,958 197,918Q114,878 74,804L0,850Z"  transform="translate(47156, 1986)"/>
<path d="M1188,482L1188,903Q1044,924 957,1017Q870,1110 870,1246Q870,1331 916,1381Q961,1430 1040,1430Q1136,1430 1200,1328Q1263,1225 1268,1072Q1356,1072 1422,1139Q1487,1206 1497,1323L1566,1280Q1553,1109 1471,1007Q1389,904 1268,901L1268,482Q1268,237 1161,109Q1053,-20 839,-20Q624,-20 516,104Q408,227 408,464L408,660Q408,825 382,887Q355,948 289,948Q239,948 212,925Q184,902 173,859Q162,815 160,688Q131,680 116,680L80,686Q80,920 133,1019Q185,1118 286,1118Q387,1118 438,1024Q488,930 488,653L488,486Q488,306 570,228Q652,150 838,150Q1025,150 1107,231Q1188,312 1188,482ZM1020,1126Q1079,1081 1188,1072Q1184,1184 1142,1257Q1099,1330 1044,1330Q960,1330 960,1247Q960,1171 1020,1126Z"  transform="translate(48072, 1986)"/>
<path d="M440,726Q474,831 540,896Q605,960 684,960Q772,960 832,905Q892,849 892,764Q892,613 773,536Q853,511 897,454Q940,397 940,321Q940,169 842,75Q743,-20 580,-20Q376,-20 238,158Q100,336 100,597Q100,772 174,909Q247,1046 389,1128Q530,1210 689,1210Q891,1210 1053,1111Q1214,1011 1292,844L1222,798Q1095,986 971,1048Q846,1110 691,1110Q484,1110 342,971Q200,831 200,605Q200,384 299,267Q397,150 580,150Q719,150 780,196Q840,242 840,332Q840,397 786,436Q731,475 625,475L533,475L543,555L620,555Q693,563 743,605Q792,646 792,691Q792,736 755,763Q718,790 665,790Q595,790 550,769Q505,747 476,700L440,726ZM2203,346L2068,404L2068,0L1988,0L1988,439Q1871,490 1813,509L1813,485Q1813,231 1721,106Q1629,-20 1454,-20Q1284,-20 1185,81Q1085,181 1064,370L1130,390Q1146,274 1228,212Q1310,150 1454,150Q1590,150 1662,237Q1733,323 1733,496L1733,531Q1689,541 1662,541Q1621,541 1594,519Q1567,497 1567,459Q1567,417 1609,373L1559,331Q1501,380 1467,440Q1432,500 1432,551Q1432,600 1468,630Q1503,660 1558,660Q1621,660 1733,625L1733,1100L1780,1100Q1885,1100 1949,1057Q2013,1014 2041,925Q2068,835 2068,635L2068,492L2228,424L2203,346ZM1813,598L1988,526L1988,626Q1988,930 1839,930L1813,930L1813,598Z"  transform="translate(49638, 1986)"/>
<path d=""  transform="translate(51896, 1986)"/>
<path d="M1443,0L1443,626Q1443,930 1294,930L1268,930L1268,482Q1268,237 1161,109Q1053,-20 839,-20Q624,-20 516,104Q408,227 408,464L408,660Q408,825 382,887Q355,948 289,948Q239,948 212,925Q184,902 173,859Q162,815 160,688Q131,680 116,680L80,686Q80,920 133,1019Q185,1118 286,1118Q387,1118 438,1024Q488,930 488,653L488,486Q488,306 570,228Q652,150 838,150Q1025,150 1107,231Q1188,312 1188,482L1188,1100L1235,1100Q1340,1100 1404,1057Q1468,1014 1496,925Q1523,835 1523,635L1523,0L1443,0Z"  transform="translate(52426, 1986)"/>
<path d="M1700,0L1700,616Q1700,788 1648,868Q1596,948 1470,948Q1385,948 1325,890Q1264,832 1255,733L1186,733Q1186,817 1122,883Q1057,948 971,948Q845,948 793,868Q740,788 740,616L740,0L693,0Q590,0 526,43Q461,86 435,175Q408,263 408,465L408,660Q408,825 382,887Q355,948 289,948Q239,948 212,925Q184,902 173,859Q162,815 160,688Q131,680 116,680L80,686Q80,920 133,1019Q185,1118 286,1118Q387,1118 438,1024Q488,930 488,653L488,417Q488,296 527,233Q565,170 634,170L660,170L660,616Q660,890 732,1004Q804,1118 971,1118Q1154,1118 1220,912Q1287,1118 1470,1118Q1638,1118 1709,1004Q1780,890 1780,616L1780,0L1700,0ZM1360,-167Q1301,-130 1203,-130Q1143,-130 1102,-149Q1061,-168 1061,-200Q1061,-248 1199,-277Q1336,-307 1413,-356Q1490,-406 1490,-494Q1490,-590 1416,-655Q1341,-720 1226,-720Q1117,-720 1008,-651Q899,-582 868,-491L906,-465Q933,-507 1028,-539Q1122,-571 1206,-571Q1284,-571 1345,-546Q1405,-521 1405,-480Q1405,-440 1362,-413Q1318,-386 1191,-358Q1064,-330 1020,-296Q976,-262 976,-213Q976,-142 1043,-96Q1109,-50 1208,-50Q1275,-50 1319,-63Q1362,-76 1399,-96L1360,-167Z"  transform="translate(54079, 1986)"/>
<path d="M1700,0L1700,616Q1700,788 1648,868Q1596,948 1470,948Q1385,948 1325,890Q1264,832 1255,733L1186,733Q1186,817 1122,883Q1057,948 971,948Q845,948 793,868Q740,788 740,616L740,0L693,0Q590,0 526,43Q461,86 435,175Q408,263 408,465L408,660Q408,825 382,887Q355,948 289,948Q239,948 212,925Q184,902 173,859Q162,815 160,688Q131,680 116,680L80,686Q80,920 133,1019Q185,1118 286,1118Q387,1118 438,1024Q488,930 488,653L488,417Q488,296 527,233Q565,170 634,170L660,170L660,616Q660,890 732,1004Q804,1118 971,1118Q1154,1118 1220,912Q1287,1118 1470,1118Q1638,1118 1709,1004Q1780,890 1780,616L1780,0L1700,0Z"  transform="translate(55989, 1986)"/>
<path d="M2090,-432Q2035,-469 1958,-488Q1881,-508 1808,-508L1757,-507Q1692,-817 1580,-1120L1500,-1100L1510,-1068Q1506,-1001 1409,-951Q1311,-901 1060,-844Q809,-787 669,-733Q528,-680 454,-604Q380,-528 380,-428Q380,-308 482,-224Q584,-140 743,-140Q951,-140 1236,-257Q1521,-375 1677,-398Q1740,-45 1740,258Q1740,948 1470,948Q1385,948 1325,890Q1264,832 1255,733L1186,733Q1186,817 1122,883Q1057,948 971,948Q845,948 793,868Q740,788 740,616L740,0L693,0Q590,0 526,43Q461,86 435,175Q408,263 408,465L408,660Q408,825 382,887Q355,948 289,948Q239,948 212,925Q184,902 173,859Q162,815 160,688Q131,680 116,680L80,686Q80,920 133,1019Q185,1118 286,1118Q387,1118 438,1024Q488,930 488,653L488,417Q488,296 527,233Q565,170 634,170L660,170L660,616Q660,890 732,1004Q804,1118 971,1118Q1154,1118 1220,912Q1287,1118 1470,1118Q1649,1118 1745,901Q1840,683 1840,268Q1840,-68 1777,-407L1798,-408Q1972,-408 2057,-361L2090,-432ZM1551,-935Q1620,-697 1659,-499Q1466,-477 1158,-383Q850,-290 681,-290Q480,-290 480,-432Q480,-531 614,-606Q748,-681 1112,-763Q1475,-846 1551,-935Z"  transform="translate(57899, 1986)"/>
<path d="M2207,0L2207,626Q2207,930 2058,930L2032,930L2032,465Q2032,262 2006,175Q1980,87 1916,44Q1851,0 1747,0L1700,0L1700,616Q1700,788 1648,868Q1596,948 1470,948Q1385,948 1325,890Q1264,832 1255,733L1186,733Q1186,817 1122,883Q1057,948 971,948Q845,948 793,868Q740,788 740,616L740,0L693,0Q590,0 526,43Q461,86 435,175Q408,263 408,465L408,660Q408,825 382,887Q355,948 289,948Q239,948 212,925Q184,902 173,859Q162,815 160,688Q131,680 116,680L80,686Q80,920 133,1019Q185,1118 286,1118Q387,1118 438,1024Q488,930 488,653L488,417Q488,296 527,233Q565,170 634,170L660,170L660,616Q660,890 732,1004Q804,1118 971,1118Q1154,1118 1220,912Q1287,1118 1470,1118Q1638,1118 1709,1004Q1780,890 1780,616L1780,170L1806,170Q1876,170 1914,233Q1952,296 1952,417L1952,1100L1999,1100Q2104,1100 2168,1057Q2232,1014 2260,925Q2287,835 2287,635L2287,0L2207,0Z"  transform="translate(59839, 1986)"/>
<path d="M3495,0L3495,626Q3495,930 3346,930L3320,930L3320,339Q3320,142 3284,61Q3247,-20 3164,-20Q3075,-20 3032,51Q2988,121 2988,323L2988,616Q2988,813 2938,881Q2887,948 2728,948Q2585,948 2527,876Q2468,803 2468,612L2468,464Q2468,227 2355,104Q2242,-20 2027,-20Q1799,-20 1685,108Q1570,235 1570,482L1570,612Q1570,948 1141,948Q922,948 826,872Q729,796 729,637L729,608Q1017,593 1179,489Q1341,384 1341,203Q1341,100 1268,40Q1194,-20 1069,-20Q916,-20 783,101Q649,222 649,413L649,439Q577,439 537,435L537,372Q537,168 481,74Q425,-20 314,-20Q237,-20 188,41Q139,101 139,189Q139,333 224,438Q308,543 457,586L457,660Q457,805 422,877Q386,948 309,948Q236,948 200,899Q163,849 160,688Q131,680 116,680L80,686Q80,916 140,1017Q199,1118 320,1118Q425,1118 481,1021Q537,924 537,653L537,603Q577,610 649,610L649,654Q649,873 780,996Q910,1118 1138,1118Q1381,1118 1516,987Q1650,855 1650,615L1650,482Q1650,314 1739,232Q1828,150 2028,150Q2216,150 2302,229Q2388,308 2388,486L2388,615Q2388,890 2467,1004Q2546,1118 2729,1118Q2913,1118 2991,1004Q3068,889 3068,616L3068,365Q3068,220 3088,175Q3108,130 3167,130Q3240,130 3240,341L3240,1100L3287,1100Q3392,1100 3456,1057Q3520,1014 3548,925Q3575,835 3575,635L3575,0L3495,0ZM729,407Q729,251 840,166Q951,80 1080,80Q1149,80 1195,105Q1241,130 1241,174Q1241,280 1100,351Q958,422 729,437L729,407ZM457,421Q345,394 287,337Q229,279 229,200Q229,80 318,80Q457,80 457,365L457,421Z"  transform="translate(62256, 1986)"/>
</svg>
