<svg width="35578" height="3789" viewBox="0 0 35578 3789" xmlns="http://www.w3.org/2000/svg">
    <defs/>
    <path fill="#000000" stroke="none" transform="matrix(1 0 0 -1 0 2689)" d="M 1174 666 L 719 666 L 719 0 L 535 0 L 535 666 L 80 666 L 80 822 L 535 822 L 535 1304 L 80 1304 L 80 1462 L 1174 1462 L 1174 1304 L 719 1304 L 719 822 L 1174 822 L 1174 666 Z"/>
    <path fill="#000000" stroke="none" transform="matrix(1 0 0 -1 1254 2689)" d="M 1883 0 L 1688 0 L 1465 886 C 1428.33333333333 1027.33333333333 1404.66666666667 1144 1394 1236 C 1375.33333333333 1116.66666666667 1348.66666666667 999.33333333333 1314 884 L 1049 0 L 851 0 L 597 877 C 559.66666666667 1007 533.66666666667 1126.66666666667 519 1236 C 504.33333333333 1132 481 1016 449 888 L 225 0 L 30 0 L 417 1462 L 608 1462 L 879 516 C 917.66666666667 377.33333333333 941 279 949 221 C 956.33333333333 271 981 367.33333333333 1023 510 L 1303 1462 L 1494 1462 L 1883 0 Z"/>
    <path fill="#000000" stroke="none" transform="matrix(1 0 0 -1 3699 2689)" d="M 1064 1462 L 1064 0 L 880 0 L 880 569 L 712 569 C 524.66666666667 569 380 607.66666666667 278 685 C 176 762.33333333333 125 874.66666666667 125 1022 C 125 1166.66666666667 172 1276.33333333333 266 1351 C 359.33333333333 1425 496.33333333333 1462 677 1462 L 1064 1462 Z M 880 1304 L 694 1304 C 564.66666666667 1304 470 1281 410 1235 C 349.33333333333 1188.33333333333 319 1118 319 1024 C 319 920.66666666667 351.66666666667 845.33333333333 417 798 C 482.33333333333 750.66666666667 587.66666666667 727 733 727 L 880 727 L 880 1304 Z"/>
    <path fill="#000000" stroke="none" transform="matrix(1 0 0 -1 4963 2689)" d="M 765 774 C 883 716.66666666667 967.33333333333 656.66666666667 1018 594 C 1068 530.66666666667 1093 459 1093 379 C 1093 259.66666666667 1048.66666666667 163.33333333333 960 90 C 871.33333333333 16.66666666667 752 -20 602 -20 C 444 -20 321 14.66666666667 233 84 C 144.33333333333 152.66666666667 100 249 100 373 C 100 539 201.66666666667 669.33333333333 405 764 C 314.33333333333 816 249 872 209 932 C 168.33333333333 991.33333333333 148 1059 148 1135 C 148 1239.66666666667 189.33333333333 1324 272 1388 C 354.66666666667 1451.33333333333 462.66666666667 1483 596 1483 C 730.66666666667 1483 839 1451.66666666667 921 1389 C 1003 1326.33333333333 1044 1241 1044 1133 C 1044 1059.66666666667 1022 994 978 936 C 933.33333333333 878 862.33333333333 824 765 774 Z M 565 685 C 470.33333333333 645 401 600.33333333333 357 551 C 312.33333333333 501.66666666667 290 441.66666666667 290 371 C 290 299.66666666667 315 243.66666666667 365 203 C 415 162.33333333333 492.66666666667 142 598 142 C 697.33333333333 142 773 162.33333333333 825 203 C 877 243.66666666667 903 301.66666666667 903 377 C 903 442.33333333333 876.66666666667 499.33333333333 824 548 C 770.66666666667 596 684.33333333333 641.66666666667 565 685 Z M 604 847 C 770.66666666667 916.33333333333 854 1007.33333333333 854 1120 C 854 1186 831 1236 785 1270 C 739 1304 675.33333333333 1321 594 1321 C 514.66666666667 1321 452.33333333333 1304 407 1270 C 361 1235.33333333333 338 1185.33333333333 338 1120 C 338 1081.33333333333 347 1047 365 1017 C 382.33333333333 986.33333333333 408 958.33333333333 442 933 C 475.33333333333 907.66666666667 529.33333333333 879 604 847 Z"/>
    <path fill="#000000" stroke="none" transform="matrix(1 0 0 -1 6156 2689)" d="M 773 1462 L 1361 862 L 1244 748 L 793 1209 L 793 0 L 609 0 L 609 1211 L 157 748 L 40 862 L 628 1462 L 773 1462 Z"/>
    <path fill="#000000" stroke="none" transform="matrix(1 0 0 -1 7557 2689)" d="M 681 0 L 681 594 L 159 165 L 60 298 L 611 749 L 60 1201 L 159 1334 L 681 904 L 681 1462 L 865 1462 L 865 0 L 681 0 Z"/>
    <path fill="#000000" stroke="none" transform="matrix(1 0 0 -1 8622 2689)" d="M 1096 0 L 889 0 C 643 0 454.33333333333 63.66666666667 323 191 C 191 318.33333333333 125 503 125 745 C 125 973 188.33333333333 1149.66666666667 315 1275 C 441 1399.66666666667 618 1462 846 1462 L 1096 1462 L 1096 0 Z M 872 1305 C 688 1305 550 1257.33333333333 458 1162 C 365.33333333333 1066.66666666667 319 925.66666666667 319 739 C 319 351.66666666667 513.66666666667 158 903 158 L 912 158 L 912 1305 L 872 1305 Z"/>
    <path fill="#000000" stroke="none" transform="matrix(1 0 0 -1 9918 2689)" d="M 984 1462 L 984 0 L 800 0 L 800 1267 L 144 867 L 60 1010 L 800 1462 L 984 1462 Z"/>
    <path fill="#000000" stroke="none" transform="matrix(1 0 0 -1 11634 2689)" d="M 1174 666 L 719 666 L 719 158 L 1174 158 L 1174 0 L 80 0 L 80 158 L 535 158 L 535 666 L 80 666 L 80 822 L 535 822 L 535 1304 L 80 1304 L 80 1462 L 1174 1462 L 1174 1304 L 719 1304 L 719 822 L 1174 822 L 1174 666 Z"/>
    <path fill="#000000" stroke="none" transform="matrix(1 0 0 -1 12888 2689)" d="M 941 1201 L 941 0 L 757 0 L 757 1201 L 551 940 L 413 940 L 60 1382 L 187 1482 L 481 1117 L 757 1462 L 941 1462 L 1217 1117 L 1511 1482 L 1638 1382 L 1285 940 L 1147 940 L 941 1201 Z"/>
    <path fill="#000000" stroke="none" transform="matrix(1 0 0 -1 14586 2689)" d="M 63 1397 C 177.66666666667 1454.33333333333 312.33333333333 1483 467 1483 C 610.33333333333 1483 735.33333333333 1452.66666666667 842 1392 C 948 1330.66666666667 1029 1243.33333333333 1085 1130 C 1141 1016.66666666667 1169 884.33333333333 1169 733 C 1169 493 1111 307.66666666667 995 177 C 878.33333333333 45.66666666667 712.33333333333 -20 497 -20 C 423 -20 357.33333333333 -15.66666666667 300 -7 C 242 1 182 16.33333333333 120 39 L 120 199 C 250 160.33333333333 367 141 471 141 C 631.66666666667 141 756 192 844 294 C 931.33333333333 396 975 541.66666666667 975 731 C 975 913.66666666667 930 1057.66666666667 840 1163 C 750 1268.33333333333 626.33333333333 1321 469 1321 C 364.33333333333 1321 253.66666666667 1294.33333333333 137 1241 L 63 1397 Z"/>
    <path fill="#000000" stroke="none" transform="matrix(1 0 0 -1 15880 2689)" d="M 1336 0 L 1152 0 L 1152 1192 L 893 859 L 725 859 L 470 1182 L 187 819 L 60 925 L 407 1370 L 538 1370 L 808 1020 L 1152 1462 L 1336 1462 L 1336 0 Z"/>
    <path fill="#000000" stroke="none" transform="matrix(1 0 0 -1 17416 2689)" d="M 434 1462 L 434 0 L 250 0 L 250 1462 L 434 1462 Z"/>
    <path fill="#000000" stroke="none" transform="matrix(1 0 0 -1 18100 2689)" d="M 800 0 L 60 452 L 144 595 L 800 194 L 800 581 L 210 942 L 294 1085 L 800 776 L 800 1462 L 984 1462 L 984 0 L 800 0 Z"/>
    <path fill="#000000" stroke="none" transform="matrix(1 0 0 -1 19816 2689)" d="M 671 0 L 487 0 L 487 1304 L 30 1304 L 30 1462 L 1126 1462 L 1126 1304 L 671 1304 L 671 0 Z"/>
    <path fill="#000000" stroke="none" transform="matrix(1 0 0 -1 20972 2689)" d="M 1174 666 L 719 666 L 719 0 L 535 0 L 535 666 L 80 666 L 80 822 L 535 822 L 535 1462 L 719 1462 L 719 822 L 1174 822 L 1174 666 Z"/>
    <path fill="#000000" stroke="none" transform="matrix(1 0 0 -1 22226 2689)" d="M 1323 750 C 1323 578 1269.33333333333 442.66666666667 1162 344 C 1054.66666666667 244.66666666667 908 195 722 195 C 600 195 494 217.66666666667 404 263 C 314 308.33333333333 245 373.33333333333 197 458 C 149 542 125 639.66666666667 125 751 C 125 861 149 958.33333333333 197 1043 C 245 1127 314.33333333333 1191.66666666667 405 1237 C 495.66666666667 1282.33333333333 602.33333333333 1305 725 1305 C 911 1305 1057.33333333333 1255.66666666667 1164 1157 C 1270 1057.66666666667 1323 922 1323 750 Z M 319 750 C 319 621.33333333333 353.66666666667 523.66666666667 423 457 C 491.66666666667 390.33333333333 591.33333333333 357 722 357 C 852.66666666667 357 953.33333333333 390 1024 456 C 1094 522 1129 620 1129 750 C 1129 876.66666666667 1095 974 1027 1042 C 959 1109.33333333333 858.33333333333 1143 725 1143 C 591.66666666667 1143 490.66666666667 1109.33333333333 422 1042 C 353.33333333333 974.66666666667 319 877.33333333333 319 750 Z"/>
    <path fill="#000000" stroke="none" transform="matrix(1 0 0 -1 23674 2689)" d="M 80 651 C 131.33333333333 707 191.66666666667 751.66666666667 261 785 C 329.66666666667 817.66666666667 401.33333333333 834 476 834 C 536.66666666667 834 596.33333333333 824.66666666667 655 806 C 713 787.33333333333 764 762.33333333333 808 731 C 874 781.66666666667 918.33333333333 821 941 849 C 963.66666666667 876.33333333333 981.33333333333 906.66666666667 994 940 C 1006.66666666667 973.33333333333 1013 1012.33333333333 1013 1057 C 1013 1109 981.33333333333 1160.66666666667 918 1212 C 854 1263.33333333333 770.33333333333 1305 667 1337 L 740 1482 C 886.66666666667 1436 1001.33333333333 1376.33333333333 1084 1303 C 1166 1229.66666666667 1207 1150.33333333333 1207 1065 C 1207 988.33333333333 1190.66666666667 919.33333333333 1158 858 C 1125.33333333333 796 1077.33333333333 740 1014 690 C 941.33333333333 632 891 583 863 543 C 835 503 821 459 821 411 C 821 353 854 297.66666666667 920 245 C 985.33333333333 192.33333333333 1067.66666666667 152.33333333333 1167 125 L 1094 -20 C 948.66666666667 19.33333333333 834.66666666667 77 752 153 C 668.66666666667 228.33333333333 627 311.66666666667 627 403 C 627 485.66666666667 648 556 690 614 C 632 652.66666666667 561 672 477 672 C 359 672 258.66666666667 626 176 534 L 80 651 Z"/>
    <path fill="#000000" stroke="none" transform="matrix(1 0 0 -1 25011 2689)" d="M 30 1331 C 90 1378.33333333333 159.33333333333 1415.66666666667 238 1443 C 316 1469.66666666667 399 1483 487 1483 C 633.66666666667 1483 747.33333333333 1451.66666666667 828 1389 C 908.66666666667 1326.33333333333 949 1236.66666666667 949 1120 C 949 999.33333333333 901.66666666667 896.33333333333 807 811 C 885.66666666667 778.33333333333 925 710 925 606 C 925 572 918.66666666667 524.33333333333 906 463 C 893.33333333333 401.66666666667 887 359.33333333333 887 336 C 887 299.33333333333 900.66666666667 263 928 227 C 954.66666666667 191 1000.66666666667 146.66666666667 1066 94 L 953 -40 C 860.33333333333 27.33333333333 794 89 754 145 C 713.33333333333 201 693 259.66666666667 693 321 C 693 355 699.33333333333 397.33333333333 712 448 C 724.66666666667 498.66666666667 731 539.33333333333 731 570 C 731 638.66666666667 699.33333333333 673 636 673 C 610.66666666667 673 578.33333333333 667.66666666667 539 657 L 511 813 C 591.66666666667 834.33333333333 652.66666666667 870.33333333333 694 921 C 734.66666666667 971 755 1030 755 1098 C 755 1168 731.66666666667 1222.66666666667 685 1262 C 637.66666666667 1301.33333333333 572.33333333333 1321 489 1321 C 423.66666666667 1321 363 1311.66666666667 307 1293 C 251 1274.33333333333 187.66666666667 1241.33333333333 117 1194 L 30 1331 Z"/>
    <path fill="#000000" stroke="none" transform="matrix(1 0 0 -1 26177 2689)" d="M 919 1462 L 919 0 L 735 0 L 735 578 L 179 -20 L 60 90 L 735 816 L 735 1462 L 919 1462 Z"/>
    <path fill="#000000" stroke="none" transform="matrix(1 0 0 -1 27828 2689)" d="M 984 1462 L 984 0 L 800 0 L 800 686 L 294 377 L 210 520 L 800 881 L 800 1267 L 144 867 L 60 1010 L 800 1462 L 984 1462 Z"/>
    <path fill="#000000" stroke="none" transform="matrix(1 0 0 -1 29012 2689)" d="M 1189 0 L 1005 0 L 1005 1229 L 636 845 L 507 845 L 506 848 L 503 845 L 60 1370 L 188 1482 L 576 1016 L 1005 1462 L 1189 1462 L 1189 0 Z"/>
    <path fill="#000000" stroke="none" transform="matrix(1 0 0 -1 30401 2689)" d="M 735 0 L 735 642 L 60 1369 L 179 1482 L 735 883 L 735 1462 L 919 1462 L 919 0 L 735 0 Z"/>
    <path fill="#000000" stroke="none" transform="matrix(1 0 0 -1 31520 2689)" d="M 781 1462 L 781 832 C 825 914 871 995 919 1075 L 1151 1462 L 1339 1462 L 781 557 L 781 0 L 597 0 L 597 557 L 40 1462 L 228 1462 L 474 1053 L 597 836 L 597 1462 L 781 1462 Z"/>
    <path fill="#000000" stroke="none" transform="matrix(1 0 0 -1 32899 2689)" d="M 1136 0 L 928 557 L 255 130 L 206 0 L 20 0 L 591 1468 L 757 1468 L 1327 0 L 1136 0 Z M 671 1278 C 647.66666666667 1185.33333333333 626.66666666667 1112.33333333333 608 1059 L 351 383 L 870 712 L 741 1059 L 671 1278 Z"/>
    <path fill="#000000" stroke="none" transform="matrix(1 0 0 -1 34246 2689)" d="M 1132 0 L 618 0 C 458.66666666667 0 334.33333333333 36.66666666667 245 110 C 155 183.33333333333 110 285.33333333333 110 416 C 110 512 136.66666666667 589.66666666667 190 649 C 242.66666666667 707.66666666667 325.33333333333 746.66666666667 438 766 L 438 776 C 347.33333333333 792.66666666667 278.33333333333 829.33333333333 231 886 C 183.66666666667 942 160 1013.33333333333 160 1100 C 160 1224.66666666667 203.33333333333 1316.33333333333 290 1375 C 376.66666666667 1433 518.33333333333 1462 715 1462 L 1132 1462 L 1132 0 Z M 948 1304 L 706 1304 C 582.66666666667 1304 492.66666666667 1286.66666666667 436 1252 C 378.66666666667 1216.66666666667 350 1159 350 1079 C 350 993.66666666667 375.66666666667 932.66666666667 427 896 C 478.33333333333 859.33333333333 562 841 678 841 L 948 841 L 948 1304 Z M 667 685 C 544.33333333333 685 453.66666666667 664 395 622 C 336.33333333333 580 307 516 307 430 C 307 338 335.66666666667 269.66666666667 393 225 C 449.66666666667 180.33333333333 536.33333333333 158 653 158 L 948 158 L 948 685 L 667 685 Z"/>
</svg>
