<svg width="45891" height="3797" viewBox="0 0 45891 3797" xmlns="http://www.w3.org/2000/svg">
    <defs/>
    <path fill="#000000" stroke="none" transform="matrix(1 0 0 -1 0 2689)" d="M 385 -20 C 291 47.33333333333 218.33333333333 137.33333333333 167 250 C 115.66666666667 362 90 483 90 613 C 90 713.66666666667 105 802.33333333333 135 879 C 165 955 206.66666666667 1014 260 1056 C 312.66666666667 1097.33333333333 370 1118 432 1118 C 546.66666666667 1118 627 1066.33333333333 673 963 C 719 1066.33333333333 799.66666666667 1118 915 1118 C 977.66666666667 1118 1035.33333333333 1097.33333333333 1088 1056 C 1140.66666666667 1014 1182 955 1212 879 C 1242 802.33333333333 1257 713.66666666667 1257 613 C 1257 482.33333333333 1231.33333333333 361 1180 249 C 1128 136.33333333333 1055.33333333333 46.66666666667 962 -20 L 893 99 C 952.33333333333 148.33333333333 998.33333333333 215.66666666667 1031 301 C 1063 386.33333333333 1079 482.66666666667 1079 590 C 1079 712.66666666667 1065 808.33333333333 1037 877 C 1008.33333333333 945.66666666667 966.33333333333 980 911 980 C 862.33333333333 980 823.66666666667 956.33333333333 795 909 C 765.66666666667 861 747 794 739 708 L 608 708 C 600 794.66666666667 581.33333333333 861.66666666667 552 909 C 522.66666666667 956.33333333333 484 980 436 980 C 380.66666666667 980 339 946 311 878 C 282.33333333333 810 268 714 268 590 C 268 482.66666666667 284.33333333333 386.66666666667 317 302 C 349 216.66666666667 394.66666666667 149 454 99 L 385 -20 Z"/>
    <path fill="#000000" stroke="none" transform="matrix(1 0 0 -1 1347 2689)" d="M 90 915 C 138 980.33333333333 197.33333333333 1030.66666666667 268 1066 C 338.66666666667 1100.66666666667 412.66666666667 1118 490 1118 C 590.66666666667 1118 678 1096.33333333333 752 1053 C 826 1009.66666666667 883.33333333333 945.66666666667 924 861 C 964 776.33333333333 984 673.66666666667 984 553 C 984 457 970 373.66666666667 942 303 C 964.66666666667 255 1009 212.33333333333 1075 175 C 1141 137 1206.66666666667 118 1272 118 C 1372.66666666667 118 1452 158 1510 238 C 1567.33333333333 318 1596 427 1596 565 C 1596 651.66666666667 1583.33333333333 726.33333333333 1558 789 C 1532 851 1496.33333333333 898.33333333333 1451 931 C 1405 963.66666666667 1351.66666666667 980 1291 980 C 1253 980 1218.33333333333 971 1187 953 C 1155 935 1129.33333333333 911 1110 881 L 980 961 C 1020 1019.66666666667 1068.66666666667 1060.66666666667 1126 1084 C 1182.66666666667 1106.66666666667 1245.33333333333 1118 1314 1118 C 1398.66666666667 1118 1476.33333333333 1095.33333333333 1547 1050 C 1617.66666666667 1004.66666666667 1673.33333333333 940.66666666667 1714 858 C 1754 775.33333333333 1774 677 1774 563 C 1774 445.66666666667 1753 343 1711 255 C 1669 166.33333333333 1610 98.33333333333 1534 51 C 1457.33333333333 3.66666666667 1370.33333333333 -20 1273 -20 C 1183 -20 1102 -6 1030 22 C 958 49.33333333333 897.33333333333 89.66666666667 848 143 C 749.33333333333 34.33333333333 627.66666666667 -20 483 -20 C 383 -20 297.33333333333 3.66666666667 226 51 C 154 98.33333333333 98.66666666667 163.66666666667 60 247 L 220 300 C 237.33333333333 240 270 194.66666666667 318 164 C 365.33333333333 133.33333333333 423.33333333333 118 492 118 C 586 118 662 158.33333333333 720 239 C 777.33333333333 319.66666666667 806 425 806 555 C 806 690.33333333333 777.33333333333 795 720 869 C 662 943 582.33333333333 980 481 980 C 429 980 379.66666666667 967.33333333333 333 942 C 285.66666666667 916.66666666667 248.33333333333 882.33333333333 221 839 L 90 915 Z"/>
    <path fill="#000000" stroke="none" transform="matrix(1 0 0 -1 3211 2689)" d="M 964 -83 C 958.66666666667 -29.66666666667 943 27.66666666667 917 89 C 827 16.33333333333 724 -20 608 -20 C 510 -20 421.33333333333 5 342 55 C 262.66666666667 104.33333333333 201 173.66666666667 157 263 C 112.33333333333 351.66666666667 90 450.66666666667 90 560 C 90 678.66666666667 117.66666666667 785.66666666667 173 881 C 227.66666666667 975.66666666667 307.66666666667 1051.33333333333 413 1108 L 471 974 C 408.33333333333 947.33333333333 359 898.33333333333 323 827 C 286.33333333333 755 268 658.66666666667 268 538 C 268 403.33333333333 297 299.66666666667 355 227 C 413 154.33333333333 497.33333333333 118 608 118 C 707.33333333333 118 785.33333333333 147.66666666667 842 207 C 784 274.33333333333 717.33333333333 314.66666666667 642 328 L 661 464 C 757 452.66666666667 843.66666666667 412.33333333333 921 343 C 939 401.66666666667 948 466.66666666667 948 538 C 948 658.66666666667 930 755 894 827 C 857.33333333333 898.33333333333 807.66666666667 947.33333333333 745 974 L 803 1108 C 906.33333333333 1052.66666666667 986 978 1042 884 C 1098 789.33333333333 1126 681.33333333333 1126 560 C 1126 432 1093.66666666667 316.66666666667 1029 214 C 1078.33333333333 130.66666666667 1108.33333333333 44.33333333333 1119 -45 L 964 -83 Z"/>
    <path fill="#000000" stroke="none" transform="matrix(1 0 0 -1 4427 2689)" d="M 1054 464 C 1054 631.33333333333 1013 759.33333333333 931 848 C 848.33333333333 936 728.33333333333 980 571 980 C 497.66666666667 980 437.66666666667 970 391 950 C 344.33333333333 930 321 902.33333333333 321 867 C 321 848.33333333333 334.33333333333 830.66666666667 361 814 C 387.66666666667 796.66666666667 436.66666666667 775 508 749 C 661.33333333333 693.66666666667 767 637.33333333333 825 580 C 883 522.66666666667 912 455 912 377 C 912 307 894.33333333333 241 859 179 C 823 117 774 68.33333333333 712 33 C 649.33333333333 -2.33333333333 580.33333333333 -20 505 -20 C 384.33333333333 -20 285 16 207 88 C 129 159.33333333333 90 252.33333333333 90 367 C 90 430.33333333333 108 487.33333333333 144 538 L 282 455 C 266 425.66666666667 258 395 258 363 C 258 289 280.33333333333 229.66666666667 325 185 C 369 140.33333333333 428 118 502 118 C 570 118 625.66666666667 141 669 187 C 712.33333333333 232.33333333333 734 291.66666666667 734 365 C 734 403.66666666667 724.66666666667 437.66666666667 706 467 C 686.66666666667 495.66666666667 660 521.33333333333 626 544 C 592 566 529.66666666667 594.33333333333 439 629 C 339.66666666667 666.33333333333 274.66666666667 694.66666666667 244 714 C 212.66666666667 732.66666666667 188 754 170 778 C 152 802 143 830.33333333333 143 863 C 143 907.66666666667 162.33333333333 950 201 990 C 239.66666666667 1030 293.66666666667 1061.33333333333 363 1084 C 431.66666666667 1106.66666666667 509.66666666667 1118 597 1118 C 793 1118 948 1062 1062 950 C 1175.33333333333 837.33333333333 1232 681.33333333333 1232 482 C 1232 393.33333333333 1224 305.66666666667 1208 219 C 1191.33333333333 131.66666666667 1168.33333333333 52 1139 -20 L 997 43 C 1019 131 1034 207 1042 271 C 1050 334.33333333333 1054 398.66666666667 1054 464 Z"/>
    <path fill="#000000" stroke="none" transform="matrix(1 0 0 -1 5749 2689)" d="M 1130 560 C 1130 476.66666666667 1114 391 1082 303 L 1089 308 C 1111 258.66666666667 1155.33333333333 214.66666666667 1222 176 C 1288 137.33333333333 1354.33333333333 118 1421 118 C 1521 118 1599 158 1655 238 C 1711 318 1739 427 1739 565 C 1739 688.33333333333 1716.33333333333 783.33333333333 1671 850 C 1625.66666666667 916.66666666667 1548.66666666667 960 1440 980 L 1323 1001 C 1170.33333333333 1024.33333333333 1063.66666666667 1063.66666666667 1003 1119 C 941.66666666667 1173.66666666667 911 1250.66666666667 911 1350 C 911 1376 915.33333333333 1417.66666666667 924 1475 C 932.66666666667 1532.33333333333 943.66666666667 1579.66666666667 957 1617 L 1108 1556 C 1090 1484 1081 1406.66666666667 1081 1324 C 1081 1266 1100.33333333333 1222.33333333333 1139 1193 C 1177.66666666667 1163.66666666667 1255.33333333333 1142.66666666667 1372 1130 L 1463 1118 C 1611.66666666667 1094 1724.66666666667 1035 1802 941 C 1878.66666666667 846.33333333333 1917 720.33333333333 1917 563 C 1917 444.33333333333 1896.33333333333 341 1855 253 C 1813.66666666667 165 1755.33333333333 97.66666666667 1680 51 C 1604 3.66666666667 1518 -20 1422 -20 C 1329.33333333333 -20 1246.33333333333 -5 1173 25 C 1099 54.33333333333 1037.66666666667 96.66666666667 989 152 C 889.66666666667 37.33333333333 755 -20 585 -20 C 427.66666666667 -20 306 8.66666666667 220 66 C 133.33333333333 122.66666666667 90 203 90 307 C 90 356.33333333333 107.66666666667 403.66666666667 143 449 C 178.33333333333 493.66666666667 228.66666666667 530.33333333333 294 559 C 232.66666666667 581 183.33333333333 613.66666666667 146 657 C 108.66666666667 700.33333333333 90 747.66666666667 90 799 C 90 895 134 972.33333333333 222 1031 C 309.33333333333 1089 422 1118 560 1118 C 678 1118 780 1095 866 1049 C 952 1002.33333333333 1017.66666666667 936.66666666667 1063 852 C 1107.66666666667 766.66666666667 1130 669.33333333333 1130 560 Z M 550 510 C 460.66666666667 501.33333333333 391.33333333333 479.33333333333 342 444 C 292.66666666667 408.66666666667 268 362.66666666667 268 306 C 268 241.33333333333 294 194 346 164 C 397.33333333333 133.33333333333 473.66666666667 118 575 118 C 652.33333333333 118 719.33333333333 135.66666666667 776 171 C 832 205.66666666667 875.33333333333 257.33333333333 906 326 C 936.66666666667 394.66666666667 952 472.66666666667 952 560 C 952 692.66666666667 918 796 850 870 C 782 943.33333333333 687 980 565 980 C 473.66666666667 980 401.33333333333 964 348 932 C 294.66666666667 900 268 854.66666666667 268 796 C 268 745.33333333333 293 703.33333333333 343 670 C 392.33333333333 636.66666666667 461.33333333333 615.66666666667 550 607 L 550 510 Z"/>
    <path fill="#000000" stroke="none" transform="matrix(1 0 0 -1 7756 2689)" d="M 810 124 C 778 80.66666666667 737.33333333333 46 688 20 C 638 -6.66666666667 580.33333333333 -20 515 -20 C 440.33333333333 -20 370.33333333333 6 305 58 C 239 109.33333333333 186.66666666667 180.66666666667 148 272 C 109.33333333333 362.66666666667 90 462.33333333333 90 571 C 90 678.33333333333 107 773.66666666667 141 857 C 175 940.33333333333 223 1004.66666666667 285 1050 C 346.33333333333 1095.33333333333 415.33333333333 1118 492 1118 C 545.33333333333 1118 595 1104.33333333333 641 1077 C 686.33333333333 1049 729 1010.66666666667 769 962 C 809 913.33333333333 857.66666666667 836 915 730 L 1115 359 C 1167 262.33333333333 1209.66666666667 198 1243 166 C 1275.66666666667 134 1310 118 1346 118 C 1413.33333333333 118 1467 154 1507 226 C 1547 297.33333333333 1567 398.33333333333 1567 529 L 1567 951 C 1567 1101.66666666667 1583 1238.33333333333 1615 1361 C 1647 1483 1692 1576.66666666667 1750 1642 C 1808 1707.33333333333 1875.66666666667 1740 1953 1740 C 1989.66666666667 1740 2032.33333333333 1731.33333333333 2081 1714 L 2014 1587 C 1985.33333333333 1597 1954.66666666667 1602 1922 1602 C 1872.66666666667 1602 1835 1579 1809 1533 C 1783 1487 1764.66666666667 1411.66666666667 1754 1307 C 1742.66666666667 1202.33333333333 1737 1040.33333333333 1737 821 L 1737 527 C 1737 419 1720.66666666667 323.33333333333 1688 240 C 1655.33333333333 156 1609.33333333333 91.66666666667 1550 47 C 1490.66666666667 2.33333333333 1423 -20 1347 -20 C 1293.66666666667 -20 1244.33333333333 -6 1199 22 C 1153 49.33333333333 1110 87.33333333333 1070 136 C 1030 184.66666666667 981.33333333333 262 924 368 L 724 739 C 672 836.33333333333 629.66666666667 901 597 933 C 563.66666666667 964.33333333333 529 980 493 980 C 423 980 368 943.33333333333 328 870 C 288 796 268 695.66666666667 268 569 C 268 428.33333333333 290.33333333333 318 335 238 C 379 158 440 118 518 118 C 599.33333333333 118 662.66666666667 150.33333333333 708 215 L 810 124 Z"/>
    <path fill="#000000" stroke="none" transform="matrix(1 0 0 -1 10169 2689)" d="M 1114 961 C 1154 1019.66666666667 1202.66666666667 1060.66666666667 1260 1084 C 1316.66666666667 1106.66666666667 1379.33333333333 1118 1448 1118 C 1532.66666666667 1118 1610.33333333333 1095.33333333333 1681 1050 C 1751.66666666667 1004.66666666667 1807.33333333333 940.66666666667 1848 858 C 1888 775.33333333333 1908 677 1908 563 C 1908 445.66666666667 1887 343 1845 255 C 1803 166.33333333333 1744 98.33333333333 1668 51 C 1591.33333333333 3.66666666667 1504.33333333333 -20 1407 -20 C 1315 -20 1232.33333333333 -5.33333333333 1159 24 C 1085.66666666667 52.66666666667 1025.66666666667 94 979 148 C 933 96 878.33333333333 55 815 25 C 751.66666666667 -5 682.66666666667 -20 608 -20 C 510 -20 421.33333333333 5 342 55 C 262.66666666667 104.33333333333 201 173.66666666667 157 263 C 112.33333333333 351.66666666667 90 450.66666666667 90 560 C 90 678.66666666667 117.66666666667 785.66666666667 173 881 C 227.66666666667 975.66666666667 307.66666666667 1051.33333333333 413 1108 L 471 974 C 408.33333333333 947.33333333333 359 898.33333333333 323 827 C 286.33333333333 755 268 658.66666666667 268 538 C 268 403.33333333333 297 299.66666666667 355 227 C 413 154.33333333333 497.33333333333 118 608 118 C 718 118 802.33333333333 154.66666666667 861 228 C 919 300.66666666667 948 404 948 538 C 948 658.66666666667 930 755 894 827 C 857.33333333333 898.33333333333 807.66666666667 947.33333333333 745 974 L 803 1108 C 906.33333333333 1052.66666666667 986 978 1042 884 C 1098 789.33333333333 1126 681.33333333333 1126 560 C 1126 521.33333333333 1123 483.66666666667 1117 447 C 1111 410.33333333333 1097.33333333333 362.33333333333 1076 303 C 1099.33333333333 254.33333333333 1144 211.33333333333 1210 174 C 1276 136.66666666667 1341.33333333333 118 1406 118 C 1506.66666666667 118 1586 158 1644 238 C 1701.33333333333 318 1730 427 1730 565 C 1730 651.66666666667 1717.33333333333 726.33333333333 1692 789 C 1666 851 1630.33333333333 898.33333333333 1585 931 C 1539 963.66666666667 1485.66666666667 980 1425 980 C 1387 980 1352.33333333333 971 1321 953 C 1289 935 1263.33333333333 911 1244 881 L 1114 961 Z"/>
    <path fill="#000000" stroke="none" transform="matrix(1 0 0 -1 12167 2689)" d="M 810 124 C 778 80.66666666667 737.33333333333 46 688 20 C 638 -6.66666666667 580.33333333333 -20 515 -20 C 440.33333333333 -20 370.33333333333 6 305 58 C 239 109.33333333333 186.66666666667 180.66666666667 148 272 C 109.33333333333 362.66666666667 90 462.33333333333 90 571 C 90 678.33333333333 107 773.66666666667 141 857 C 175 940.33333333333 223 1004.66666666667 285 1050 C 346.33333333333 1095.33333333333 415.33333333333 1118 492 1118 C 545.33333333333 1118 595 1104.33333333333 641 1077 C 686.33333333333 1049 729 1010.66666666667 769 962 C 809 913.33333333333 857.66666666667 836 915 730 L 1115 359 C 1167 262.33333333333 1209.66666666667 198 1243 166 C 1275.66666666667 134 1310 118 1346 118 C 1390 118 1429 134 1463 166 C 1497 197.33333333333 1523.66666666667 244 1543 306 C 1561.66666666667 368 1571 442.33333333333 1571 529 C 1571 669.66666666667 1549 780 1505 860 C 1460.33333333333 940 1399 980 1321 980 C 1239.66666666667 980 1176.33333333333 947.66666666667 1131 883 L 1029 974 C 1061 1017.33333333333 1102 1052.33333333333 1152 1079 C 1201.33333333333 1105 1258.66666666667 1118 1324 1118 C 1398.66666666667 1118 1469 1092.33333333333 1535 1041 C 1600.33333333333 989 1652.33333333333 917.66666666667 1691 827 C 1729.66666666667 735.66666666667 1749 635.66666666667 1749 527 C 1749 420.33333333333 1732 325.33333333333 1698 242 C 1663.33333333333 158 1615.33333333333 93.33333333333 1554 48 C 1492.66666666667 2.66666666667 1423.66666666667 -20 1347 -20 C 1293.66666666667 -20 1244.33333333333 -6 1199 22 C 1153 49.33333333333 1110 87.33333333333 1070 136 C 1030 184.66666666667 981.33333333333 262 924 368 L 724 739 C 672 836.33333333333 629.66666666667 901 597 933 C 563.66666666667 964.33333333333 529 980 493 980 C 423 980 368 943.33333333333 328 870 C 288 796 268 695.66666666667 268 569 C 268 428.33333333333 290.33333333333 318 335 238 C 379 158 440 118 518 118 C 599.33333333333 118 662.66666666667 150.33333333333 708 215 L 810 124 Z"/>
    <path fill="#000000" stroke="none" transform="matrix(1 0 0 -1 14006 2689)" d="M 767 49 C 737.66666666667 29 691.33333333333 12.66666666667 628 0 C 564.66666666667 -13.33333333333 507.33333333333 -20 456 -20 C 384.66666666667 -20 319.33333333333 -6.33333333333 260 21 L 260 -48 C 260 -150.66666666667 269.66666666667 -227.66666666667 289 -279 C 307.66666666667 -330.33333333333 338 -368.66666666667 380 -394 C 422 -419.33333333333 479 -432 551 -432 L 736 -432 C 828.66666666667 -432 893.66666666667 -423.33333333333 931 -406 C 968.33333333333 -388.66666666667 987 -361.66666666667 987 -325 C 987 -295 979.33333333333 -271.33333333333 964 -254 C 948 -236.66666666667 927 -228 901 -228 C 874.33333333333 -228 854.66666666667 -237.33333333333 842 -256 L 733 -183 C 750.33333333333 -157.66666666667 774 -137.33333333333 804 -122 C 834 -107.33333333333 866.33333333333 -100 901 -100 C 970.33333333333 -100 1026 -120.66666666667 1068 -162 C 1110 -204 1131 -258.33333333333 1131 -325 C 1131 -399.66666666667 1101 -459 1041 -503 C 980.33333333333 -547.66666666667 900.66666666667 -570 802 -570 L 530 -570 C 395.33333333333 -570 288.33333333333 -521.66666666667 209 -425 C 129.66666666667 -328.33333333333 90 -196.33333333333 90 -29 L 90 307 C 90 356.33333333333 107.66666666667 403.66666666667 143 449 C 178.33333333333 493.66666666667 228.66666666667 530.33333333333 294 559 C 232.66666666667 581 183.33333333333 613.66666666667 146 657 C 108.66666666667 700.33333333333 90 747.66666666667 90 799 C 90 893 136.66666666667 969.66666666667 230 1029 C 322.66666666667 1088.33333333333 439.33333333333 1118 580 1118 C 705.33333333333 1118 815.33333333333 1092.66666666667 910 1042 C 1004 990.66666666667 1076.33333333333 918 1127 824 C 1177 730 1202 621.66666666667 1202 499 C 1202 405.66666666667 1193.33333333333 310.66666666667 1176 214 C 1158 117.33333333333 1134.66666666667 39.33333333333 1106 -20 L 967 43 C 988.33333333333 123 1003.33333333333 194.66666666667 1012 258 C 1020 320.66666666667 1024 399.66666666667 1024 495 C 1024 647 985.66666666667 766 909 852 C 831.66666666667 937.33333333333 723.66666666667 980 585 980 C 518.33333333333 980 461.33333333333 972 414 956 C 366 939.33333333333 329.66666666667 917 305 889 C 280.33333333333 860.33333333333 268 829.33333333333 268 796 C 268 745.33333333333 293 703.33333333333 343 670 C 392.33333333333 636.66666666667 461.33333333333 615.66666666667 550 607 L 550 510 C 460.66666666667 501.33333333333 391.33333333333 479.33333333333 342 444 C 292.66666666667 408.66666666667 268 362.66666666667 268 306 C 268 245.33333333333 287 199 325 167 C 362.33333333333 134.33333333333 412 118 474 118 C 510 118 551.66666666667 123 599 133 C 645.66666666667 142.33333333333 681.33333333333 155.33333333333 706 172 L 767 49 Z"/>
    <path fill="#000000" stroke="none" transform="matrix(1 0 0 -1 15298 2689)" d="M 70 56 C 168 130.66666666667 290 168 436 168 C 551.33333333333 168 642 205 708 279 C 773.33333333333 352.33333333333 806 451 806 575 C 806 702.33333333333 777 801.66666666667 719 873 C 661 944.33333333333 581.66666666667 980 481 980 C 429 980 379.66666666667 967.33333333333 333 942 C 285.66666666667 916.66666666667 248.33333333333 882.33333333333 221 839 L 90 915 C 138 980.33333333333 197.33333333333 1030.66666666667 268 1066 C 338.66666666667 1100.66666666667 412.66666666667 1118 490 1118 C 587.33333333333 1118 673.33333333333 1096.66666666667 748 1054 C 822.66666666667 1010.66666666667 880.66666666667 948 922 866 C 963.33333333333 784 984 686.33333333333 984 573 C 984 471 961 379.33333333333 915 298 C 868.33333333333 216 801.66666666667 151 715 103 C 802.33333333333 56.33333333333 872 -13 924 -105 C 976 -197.66666666667 1006 -301.66666666667 1014 -417 L 849 -406 C 843 -320.66666666667 822.33333333333 -245 787 -179 C 751.66666666667 -113 704 -61.66666666667 644 -25 C 584 11.66666666667 513.66666666667 30 433 30 C 320.33333333333 30 227.33333333333 5.66666666667 154 -43 L 70 56 Z"/>
    <path fill="#000000" stroke="none" transform="matrix(1 0 0 -1 16372 2689)" d="M 1965 -50 C 1960.33333333333 12.66666666667 1951 67.66666666667 1937 115 C 1845 25 1738 -20 1616 -20 C 1538.66666666667 -20 1472 -8.33333333333 1416 15 C 1359.33333333333 38.33333333333 1316 71.33333333333 1286 114 C 1234 72.66666666667 1173.33333333333 40 1104 16 C 1034.66666666667 -8 963.33333333333 -20 890 -20 C 767.33333333333 -20 670 9 598 67 C 526 124.33333333333 490 204.33333333333 490 307 C 490 356.33333333333 507.66666666667 403.66666666667 543 449 C 578.33333333333 493.66666666667 628.66666666667 530.33333333333 694 559 C 632.66666666667 581 583.33333333333 613.66666666667 546 657 C 508.66666666667 700.33333333333 490 747.66666666667 490 799 C 490 895 534 972.33333333333 622 1031 C 709.33333333333 1089 822 1118 960 1118 C 1109.33333333333 1118 1231 1086.33333333333 1325 1023 C 1411 1086.33333333333 1510.33333333333 1118 1623 1118 C 1775.66666666667 1118 1897 1070 1987 974 C 2077 878 2122 750.33333333333 2122 591 C 2122 471.66666666667 2095 360 2041 256 C 2079.66666666667 178.66666666667 2105.66666666667 86.66666666667 2119 -20 L 1965 -50 Z M 965 980 C 873.66666666667 980 801.33333333333 964 748 932 C 694.66666666667 900 668 854.66666666667 668 796 C 668 745.33333333333 693 703.33333333333 743 670 C 792.33333333333 636.66666666667 861.33333333333 615.66666666667 950 607 L 950 510 C 860.66666666667 501.33333333333 791.33333333333 479.33333333333 742 444 C 692.66666666667 408.66666666667 668 362.66666666667 668 306 C 668 240.66666666667 689.33333333333 193 732 163 C 774 133 837.66666666667 118 923 118 C 978.33333333333 118 1035 130.33333333333 1093 155 C 1150.33333333333 179 1200.66666666667 211.33333333333 1244 252 L 1249 256 C 1253.66666666667 307.33333333333 1270.66666666667 353.66666666667 1300 395 C 1328.66666666667 435.66666666667 1368.33333333333 467.66666666667 1419 491 C 1469 514.33333333333 1526 526 1590 526 C 1723.33333333333 526 1833.33333333333 488.66666666667 1920 414 L 1928 407 C 1938.66666666667 457.66666666667 1944 515.66666666667 1944 581 C 1944 709 1915.66666666667 807.66666666667 1859 877 C 1802.33333333333 945.66666666667 1717.66666666667 980 1605 980 C 1496.33333333333 980 1402.66666666667 930 1324 830 C 1318 836 1312.33333333333 841.66666666667 1307 847 C 1301 852.33333333333 1274.66666666667 874.33333333333 1228 913 C 1160 957.66666666667 1072.33333333333 980 965 980 Z M 719 1850 C 670.33333333333 1867.33333333333 625 1876 583 1876 C 498.33333333333 1876 430 1846.33333333333 378 1787 C 326 1727 300 1649 300 1553 L 300 -107 C 300 -203.66666666667 326 -281.66666666667 378 -341 C 430 -400.33333333333 498.33333333333 -430 583 -430 C 625 -430 670.33333333333 -421.33333333333 719 -404 L 764 -544 C 708 -561.33333333333 650.33333333333 -570 591 -570 C 501.66666666667 -570 422 -549 352 -507 C 281.33333333333 -465 226.66666666667 -405.66666666667 188 -329 C 149.33333333333 -253 130 -168 130 -74 L 130 1520 C 130 1614.66666666667 149.33333333333 1700.33333333333 188 1777 C 226.66666666667 1853 281.33333333333 1912 352 1954 C 422.66666666667 1995.33333333333 502.33333333333 2016 591 2016 C 650.33333333333 2016 708 2007.33333333333 764 1990 L 719 1850 Z M 1615 388 C 1548.33333333333 388 1498.66666666667 375.33333333333 1466 350 C 1433.33333333333 324 1417 290.33333333333 1417 249 C 1417 209 1434 177.33333333333 1468 154 C 1501.33333333333 130 1553.66666666667 118 1625 118 C 1679.66666666667 118 1728.33333333333 130.33333333333 1771 155 C 1813 179 1846.33333333333 212.33333333333 1871 255 C 1840.33333333333 299.66666666667 1803.33333333333 333 1760 355 C 1716 377 1667.66666666667 388 1615 388 Z"/>
    <path fill="#000000" stroke="none" transform="matrix(1 0 0 -1 18584 2689)" d="M 1327 138 C 1285.66666666667 138 1244.66666666667 144 1204 156 C 1169.33333333333 100.66666666667 1129.66666666667 57.66666666667 1085 27 C 1040.33333333333 -3.66666666667 993 -19.33333333333 943 -20 C 892.33333333333 -20 846.33333333333 -9 805 13 C 763 34.33333333333 731.66666666667 68.66666666667 711 116 C 667.66666666667 25.33333333333 582.66666666667 -20 456 -20 C 342.66666666667 -20 253.33333333333 12 188 76 C 122.66666666667 140 90 223.66666666667 90 327 C 90 385 106 437.33333333333 138 484 C 170 530.66666666667 215.33333333333 568.66666666667 274 598 C 206.66666666667 625.33333333333 159.33333333333 658 132 696 C 104 733.33333333333 90 779.66666666667 90 835 C 90 887 106 935 138 979 C 169.33333333333 1023 213.66666666667 1057.33333333333 271 1082 C 328.33333333333 1106 394.66666666667 1118 470 1118 C 538 1118 607.33333333333 1106 678 1082 L 626 958 C 579.33333333333 972.66666666667 533.66666666667 980 489 980 C 415 980 359.66666666667 966.66666666667 323 940 C 286.33333333333 913.33333333333 268 878.33333333333 268 835 C 268 773 291.33333333333 726 338 694 C 384 662 459.66666666667 646 565 646 L 565 526 L 544 527 L 529 527 C 447 527 383 509.66666666667 337 475 C 291 439.66666666667 268 390.66666666667 268 328 C 268 188 331.33333333333 118 458 118 C 514.66666666667 118 558 140.66666666667 588 186 C 618 230.66666666667 637.33333333333 298.66666666667 646 390 L 777 390 C 794.33333333333 208.66666666667 848.33333333333 118 939 118 C 964.33333333333 118 989 126.66666666667 1013 144 C 1037 161.33333333333 1057.66666666667 185 1075 215 C 995 267 931.33333333333 337.66666666667 884 427 C 836.66666666667 515.66666666667 813 612.66666666667 813 718 C 813 781.33333333333 823 844.66666666667 843 908 C 863 970.66666666667 890.33333333333 1021.33333333333 925 1060 C 959 1098.66666666667 995.33333333333 1118 1034 1118 C 1085.33333333333 1118 1132.33333333333 1096.33333333333 1175 1053 C 1217.66666666667 1009.66666666667 1252.33333333333 947.33333333333 1279 866 C 1305 784 1318 700.33333333333 1318 615 C 1318 499 1300.33333333333 389.33333333333 1265 286 C 1287 282 1310 279.66666666667 1334 279 L 1327 138 Z M 1158 604 C 1158 694 1145.33333333333 775.66666666667 1120 849 C 1094 922.33333333333 1061 966.33333333333 1021 981 C 986.33333333333 921 969 829.33333333333 969 706 C 969 632.66666666667 982.66666666667 565 1010 503 C 1037.33333333333 440.33333333333 1077 389 1129 349 C 1148.33333333333 430.33333333333 1158 515.33333333333 1158 604 Z"/>
    <path fill="#000000" stroke="none" transform="matrix(1 0 0 -1 20550 2689)" d="M 423 -10 C 310.33333333333 44 226.66666666667 126.33333333333 172 237 C 117.33333333333 347 90 492 90 672 L 90 848 C 90 1027.33333333333 113.33333333333 1184.66666666667 160 1320 C 206.66666666667 1454.66666666667 273.66666666667 1558.33333333333 361 1631 C 447.66666666667 1703.66666666667 549 1740 665 1740 C 817 1740 939.33333333333 1681.33333333333 1032 1564 L 899 1461 C 875.66666666667 1503.66666666667 839.66666666667 1538 791 1564 C 741.66666666667 1589.33333333333 691 1602 639 1602 C 525 1602 439.33333333333 1556.66666666667 382 1466 C 324 1375.33333333333 288.66666666667 1220.66666666667 276 1002 C 367.33333333333 1079.33333333333 471.33333333333 1118 588 1118 C 688.66666666667 1118 778.66666666667 1094.66666666667 858 1048 C 937.33333333333 1001.33333333333 998.66666666667 935 1042 849 C 1084.66666666667 763 1106 662.66666666667 1106 548 C 1106 425.33333333333 1077.66666666667 315 1021 217 C 963.66666666667 119 884.33333333333 43.33333333333 783 -10 L 725 129 C 787.66666666667 155.66666666667 837.33333333333 204.33333333333 874 275 C 910 345 928 440 928 560 C 928 694.66666666667 899 798.33333333333 841 871 C 782.33333333333 943.66666666667 698 980 588 980 C 529.33333333333 980 475 968.33333333333 425 945 C 375 921.66666666667 336.33333333333 890 309 850 C 281.66666666667 810 268 767 268 721 L 268 640 C 268 534.66666666667 275 452 289 392 C 303 331.33333333333 325.33333333333 279.33333333333 356 236 C 386.66666666667 192.66666666667 427.66666666667 157 479 129 L 423 -10 Z"/>
    <path fill="#000000" stroke="none" transform="matrix(1 0 0 -1 21746 2689)" d="M 735 -539 C 703 -553.66666666667 664 -565.66666666667 618 -575 C 572 -585 531.33333333333 -590 496 -590 C 360 -590 255.33333333333 -520 182 -380 C 108.66666666667 -240.66666666667 72 -49.33333333333 72 194 L 72 320 L 250 290 L 250 282 C 266.66666666667 238 298.66666666667 199.66666666667 346 167 C 393.33333333333 134.33333333333 442 118 492 118 C 586 118 662 158.33333333333 720 239 C 777.33333333333 319.66666666667 806 425 806 555 C 806 690.33333333333 777.33333333333 795 720 869 C 662 943 582.33333333333 980 481 980 C 429 980 379.66666666667 967.33333333333 333 942 C 285.66666666667 916.66666666667 248.33333333333 882.33333333333 221 839 L 90 915 C 138 980.33333333333 197.33333333333 1030.66666666667 268 1066 C 338.66666666667 1100.66666666667 412.66666666667 1118 490 1118 C 590.66666666667 1118 678 1096.33333333333 752 1053 C 826 1009.66666666667 883.33333333333 945.66666666667 924 861 C 964 776.33333333333 984 673.66666666667 984 553 C 984 437.66666666667 962.33333333333 337 919 251 C 875.66666666667 164.33333333333 815.66666666667 97.66666666667 739 51 C 661.66666666667 3.66666666667 576.33333333333 -20 483 -20 C 398.33333333333 -20 321 6.33333333333 251 59 C 255 -86.33333333333 264.33333333333 -192.66666666667 279 -260 C 293.66666666667 -327.33333333333 316 -376 346 -406 C 375.33333333333 -436.66666666667 416.66666666667 -452 470 -452 C 518.66666666667 -452 567 -440.33333333333 615 -417 L 735 -539 Z"/>
    <path fill="#000000" stroke="none" transform="matrix(1 0 0 -1 22820 2689)" d="M 626 958 C 579.33333333333 972.66666666667 533.66666666667 980 489 980 C 415 980 359.66666666667 966.66666666667 323 940 C 286.33333333333 913.33333333333 268 878.33333333333 268 835 C 268 773 291.33333333333 726 338 694 C 384 662 459.66666666667 646 565 646 L 565 526 L 545 527 L 529 527 C 447 527 383 509.66666666667 337 475 C 291 439.66666666667 268 390.66666666667 268 328 C 268 188 331.33333333333 118 458 118 C 514.66666666667 118 558 140.66666666667 588 186 C 618 230.66666666667 637.33333333333 298.66666666667 646 390 L 777 390 C 794.33333333333 208.66666666667 848.33333333333 118 939 118 C 973 118 1003.33333333333 134.33333333333 1030 167 C 1056.66666666667 199 1078 246.33333333333 1094 309 C 1109.33333333333 371 1117 446.33333333333 1117 535 C 1117 642.33333333333 1099.33333333333 733.33333333333 1064 808 C 1028.66666666667 882 973 944 897 994 L 978 1118 C 1080.66666666667 1064 1159.33333333333 987.33333333333 1214 888 C 1268 788 1295 670.33333333333 1295 535 C 1295 425.66666666667 1279.33333333333 329 1248 245 C 1216.66666666667 161 1173.66666666667 96 1119 50 C 1063.66666666667 3.33333333333 1005 -20 943 -20 C 892.33333333333 -20 846.33333333333 -9 805 13 C 763 34.33333333333 731.66666666667 68.66666666667 711 116 C 667.66666666667 25.33333333333 582.66666666667 -20 456 -20 C 342.66666666667 -20 253.33333333333 12 188 76 C 122.66666666667 140 90 223.66666666667 90 327 C 90 385 106 437.33333333333 138 484 C 170 530.66666666667 215.33333333333 568.66666666667 274 598 C 206.66666666667 625.33333333333 159.33333333333 658 132 696 C 104 733.33333333333 90 779.66666666667 90 835 C 90 887 106 935 138 979 C 169.33333333333 1023 213.66666666667 1057.33333333333 271 1082 C 328.33333333333 1106 394.66666666667 1118 470 1118 C 538 1118 607.33333333333 1106 678 1082 L 626 958 Z"/>
    <path fill="#000000" stroke="none" transform="matrix(1 0 0 -1 24205 2689)" d="M 1387 1587 C 1358.33333333333 1597 1327.66666666667 1602 1295 1602 C 1245.66666666667 1602 1208 1578.66666666667 1182 1532 C 1156 1485.33333333333 1137.66666666667 1409.66666666667 1127 1305 C 1115.66666666667 1200.33333333333 1110 1039 1110 821 C 1110 260.33333333333 913.66666666667 -20 521 -20 C 435.66666666667 -20 361 -6.66666666667 297 20 C 232.33333333333 46 181.66666666667 86.33333333333 145 141 C 108.33333333333 195.66666666667 90 257.66666666667 90 327 C 90 386.33333333333 106.33333333333 440 139 488 C 171 535.33333333333 216 572 274 598 C 206.66666666667 625.33333333333 159.33333333333 658 132 696 C 104 733.33333333333 90 779.66666666667 90 835 C 90 887 106 935 138 979 C 169.33333333333 1023 213.66666666667 1057.33333333333 271 1082 C 328.33333333333 1106 394.66666666667 1118 470 1118 C 526 1118 582 1110.33333333333 638 1095 C 694 1079 740.66666666667 1058.33333333333 778 1033 L 710 919 C 683.33333333333 938.33333333333 649 953.33333333333 607 964 C 564.33333333333 974.66666666667 525 980 489 980 C 415 980 359.33333333333 966.66666666667 322 940 C 284.66666666667 913.33333333333 266 878.33333333333 266 835 C 266 792.33333333333 277 757 299 729 C 320.33333333333 700.33333333333 353.66666666667 679.33333333333 399 666 C 443.66666666667 652.66666666667 506.33333333333 646 587 646 L 587 525 L 527 527 C 445 527 381 510.33333333333 335 477 C 289 443.66666666667 266 396.66666666667 266 336 C 266 267.33333333333 287.66666666667 214 331 176 C 374.33333333333 137.33333333333 438 118 522 118 C 663.33333333333 118 767 170.33333333333 833 275 C 899 379 932 535.66666666667 932 745 L 932 951 C 932 1101 949 1237.33333333333 983 1360 C 1016.33333333333 1482.66666666667 1062.66666666667 1576.66666666667 1122 1642 C 1181.33333333333 1707.33333333333 1249.33333333333 1740 1326 1740 C 1362.66666666667 1740 1405.33333333333 1731.33333333333 1454 1714 L 1387 1587 Z"/>
    <path fill="#000000" stroke="none" transform="matrix(1 0 0 -1 25459 2689)" d="M 1187 -20 C 1200.33333333333 25.33333333333 1207 96.66666666667 1207 194 C 1207 466.66666666667 1159 666 1063 792 C 966.33333333333 917.33333333333 825 980 639 980 C 519.66666666667 980 427.66666666667 965.33333333333 363 936 C 298.33333333333 906 266 862.33333333333 266 805 C 266 749 293 705.33333333333 347 674 C 401 642 473.66666666667 626 565 626 L 565 506 L 544 507 L 527 507 C 445 507 381 489.66666666667 335 455 C 289 419.66666666667 266 370.66666666667 266 308 C 266 246.66666666667 278.33333333333 199.66666666667 303 167 C 327 134.33333333333 362 118 408 118 C 457.33333333333 118 494 134.33333333333 518 167 C 542 199.66666666667 559.33333333333 251.33333333333 570 322 L 688 322 C 698.66666666667 250 715 198 737 166 C 758.33333333333 134 792.66666666667 118 840 118 C 872.66666666667 118 901 131.66666666667 925 159 C 949 185.66666666667 964 228.66666666667 970 288 L 1112 252 C 1080 70.66666666667 990 -20 842 -20 C 747.33333333333 -20 676.33333333333 24 629 112 C 581.66666666667 24 507.33333333333 -20 406 -20 C 347.33333333333 -20 293.66666666667 -5.33333333333 245 24 C 195.66666666667 53.33333333333 157.66666666667 93.33333333333 131 144 C 103.66666666667 194.66666666667 90 249 90 307 C 90 365 106 417.33333333333 138 464 C 170 510.66666666667 215.33333333333 548.66666666667 274 578 C 151.33333333333 623.33333333333 90 699 90 805 C 90 835 98.66666666667 868.33333333333 116 905 C 132.66666666667 941 162 975 204 1007 C 246 1038.33333333333 302.66666666667 1064.66666666667 374 1086 C 444.66666666667 1107.33333333333 534.33333333333 1118 643 1118 C 801.66666666667 1118 935.66666666667 1082.33333333333 1045 1011 C 1153.66666666667 939.66666666667 1236.33333333333 834 1293 694 C 1349 554 1377 387.66666666667 1377 195 C 1377 124.33333333333 1371.33333333333 60.66666666667 1360 4 L 1187 -20 Z"/>
    <path fill="#000000" stroke="none" transform="matrix(1 0 0 -1 26896 2689)" d="M 835 -50 C 830.33333333333 12.66666666667 821 67.66666666667 807 115 C 715 25 608 -20 486 -20 C 410.66666666667 -20 345.66666666667 -9 291 13 C 236.33333333333 34.33333333333 194 65 164 105 C 134 144.33333333333 119 187.66666666667 119 235 C 119 289 133.33333333333 338.33333333333 162 383 C 190 427.66666666667 230 462.66666666667 282 488 C 333.33333333333 513.33333333333 392.66666666667 526 460 526 C 593.33333333333 526 703.33333333333 488.66666666667 790 414 L 798 407 C 808.66666666667 457.66666666667 814 515.66666666667 814 581 C 814 709 785.66666666667 807.66666666667 729 877 C 672.33333333333 945.66666666667 587.66666666667 980 475 980 C 425 980 380.66666666667 967.66666666667 342 943 C 303.33333333333 917.66666666667 278.33333333333 884 267 842 L 90 858 C 90 1446 255 1740 585 1740 C 737 1740 859.33333333333 1681.33333333333 952 1564 L 819 1461 C 795.66666666667 1503.66666666667 759.66666666667 1538 711 1564 C 661.66666666667 1589.33333333333 611 1602 559 1602 C 508.33333333333 1602 466 1593.66666666667 432 1577 C 397.33333333333 1559.66666666667 368 1532.66666666667 344 1496 C 320 1459.33333333333 302 1410.33333333333 290 1349 C 277.33333333333 1287.66666666667 269.66666666667 1187.66666666667 267 1049 C 336.33333333333 1095 418 1118 512 1118 C 605.33333333333 1118 688.66666666667 1096.33333333333 762 1053 C 834.66666666667 1009.66666666667 891.33333333333 947.66666666667 932 867 C 972 786.33333333333 992 694.33333333333 992 591 C 992 471.66666666667 965 360 911 256 C 949.66666666667 178.66666666667 975.66666666667 86.66666666667 989 -20 L 835 -50 Z M 485 388 C 418.33333333333 388 368.66666666667 375.33333333333 336 350 C 303.33333333333 324 287 290.33333333333 287 249 C 287 209 304 177.33333333333 338 154 C 371.33333333333 130 423.66666666667 118 495 118 C 549.66666666667 118 598.33333333333 130.33333333333 641 155 C 683 179 716.33333333333 212.33333333333 741 255 C 710.33333333333 299.66666666667 673.33333333333 333 630 355 C 586 377 537.66666666667 388 485 388 Z"/>
    <path fill="#000000" stroke="none" transform="matrix(1 0 0 -1 28500 2689)" d="M 835 -50 C 830.33333333333 12.66666666667 821 67.66666666667 807 115 C 715 25 608 -20 486 -20 C 410.66666666667 -20 345.66666666667 -9 291 13 C 236.33333333333 34.33333333333 194 65 164 105 C 134 144.33333333333 119 187.66666666667 119 235 C 119 289 133.33333333333 338.33333333333 162 383 C 190 427.66666666667 230 462.66666666667 282 488 C 333.33333333333 513.33333333333 392.66666666667 526 460 526 C 593.33333333333 526 703.33333333333 488.66666666667 790 414 L 798 407 C 808.66666666667 457.66666666667 814 515.66666666667 814 581 C 814 709 785.66666666667 807.66666666667 729 877 C 672.33333333333 945.66666666667 587.66666666667 980 475 980 C 423 980 373.66666666667 967.33333333333 327 942 C 279.66666666667 916.66666666667 242.33333333333 882.33333333333 215 839 L 90 911 C 130 974.33333333333 186 1024.66666666667 258 1062 C 330 1099.33333333333 408.33333333333 1118 493 1118 C 645.66666666667 1118 767 1070 857 974 C 947 878 992 750.33333333333 992 591 C 992 471.66666666667 965 360 911 256 C 949.66666666667 178.66666666667 975.66666666667 86.66666666667 989 -20 L 835 -50 Z M 485 388 C 418.33333333333 388 368.66666666667 375.33333333333 336 350 C 303.33333333333 324 287 290.33333333333 287 249 C 287 209 304 177.33333333333 338 154 C 371.33333333333 130 423.66666666667 118 495 118 C 549.66666666667 118 598.33333333333 130.33333333333 641 155 C 683 179 716.33333333333 212.33333333333 741 255 C 710.33333333333 299.66666666667 673.33333333333 333 630 355 C 586 377 537.66666666667 388 485 388 Z"/>
    <path fill="#000000" stroke="none" transform="matrix(1 0 0 -1 29582 2689)" d="M 1130 560 C 1130 450 1108 351 1064 263 C 1019.33333333333 174.33333333333 956 105 874 55 C 791.33333333333 5 695 -20 585 -20 C 427.66666666667 -20 306 8.66666666667 220 66 C 133.33333333333 122.66666666667 90 203 90 307 C 90 356.33333333333 107.66666666667 403.66666666667 143 449 C 178.33333333333 493.66666666667 228.66666666667 530.33333333333 294 559 C 232.66666666667 581 183.33333333333 613.66666666667 146 657 C 108.66666666667 700.33333333333 90 747.66666666667 90 799 C 90 895 134 972.33333333333 222 1031 C 309.33333333333 1089 422 1118 560 1118 C 678 1118 780 1095 866 1049 C 952 1002.33333333333 1017.66666666667 936.66666666667 1063 852 C 1107.66666666667 766.66666666667 1130 669.33333333333 1130 560 Z M 550 510 C 460.66666666667 501.33333333333 391.33333333333 479.33333333333 342 444 C 292.66666666667 408.66666666667 268 362.66666666667 268 306 C 268 241.33333333333 294 194 346 164 C 397.33333333333 133.33333333333 473.66666666667 118 575 118 C 652.33333333333 118 719.33333333333 135.66666666667 776 171 C 832 205.66666666667 875.33333333333 257.33333333333 906 326 C 936.66666666667 394.66666666667 952 472.66666666667 952 560 C 952 692.66666666667 918 796 850 870 C 782 943.33333333333 687 980 565 980 C 473.66666666667 980 401.33333333333 964 348 932 C 294.66666666667 900 268 854.66666666667 268 796 C 268 745.33333333333 293 703.33333333333 343 670 C 392.33333333333 636.66666666667 461.33333333333 615.66666666667 550 607 L 550 510 Z"/>
    <path fill="#000000" stroke="none" transform="matrix(1 0 0 -1 30802 2689)" d="M 1112 158 C 1160 131.33333333333 1210 118 1262 118 C 1352.66666666667 118 1425 158 1479 238 C 1533 318 1560 426.33333333333 1560 563 C 1560 694.33333333333 1534.33333333333 796.66666666667 1483 870 C 1431 943.33333333333 1358.33333333333 980 1265 980 C 1193.66666666667 980 1134.66666666667 954.33333333333 1088 903 C 1041.33333333333 851 1012.33333333333 780 1001 690 C 1009 644.66666666667 1013 598.33333333333 1013 551 C 1013 377 971.33333333333 238.33333333333 888 135 C 804 31.66666666667 690.33333333333 -20 547 -20 C 460.33333333333 -20 382 4.66666666667 312 54 C 242 103.33333333333 187.66666666667 172 149 260 C 109.66666666667 347.33333333333 90 444.33333333333 90 551 C 90 661.66666666667 109 760.33333333333 147 847 C 185 933.66666666667 239.33333333333 1000.66666666667 310 1048 C 380.66666666667 1094.66666666667 462 1118 554 1118 C 709.33333333333 1118 830 1053.66666666667 916 925 C 952.66666666667 983 1003 1029.66666666667 1067 1065 C 1130.33333333333 1100.33333333333 1198 1118 1270 1118 C 1361.33333333333 1118 1442.66666666667 1096.33333333333 1514 1053 C 1585.33333333333 1009 1640.66666666667 946.33333333333 1680 865 C 1718.66666666667 783.66666666667 1738 687 1738 575 C 1738 452.33333333333 1719 346.33333333333 1681 257 C 1642.33333333333 167.66666666667 1587.66666666667 99.33333333333 1517 52 C 1445.66666666667 4 1363.33333333333 -20 1270 -20 C 1181.33333333333 -20 1101.66666666667 0.33333333333 1031 41 L 1112 158 Z M 268 551 C 268 417 293 311.33333333333 343 234 C 393 156.66666666667 462.66666666667 118 552 118 C 643.33333333333 118 713.33333333333 156.33333333333 762 233 C 810.66666666667 309 835 415 835 551 C 835 688.33333333333 810.33333333333 794.33333333333 761 869 C 711.66666666667 943 641 980 549 980 C 460.33333333333 980 391.33333333333 942.33333333333 342 867 C 292.66666666667 791.66666666667 268 686.33333333333 268 551 Z"/>
    <path fill="#000000" stroke="none" transform="matrix(1 0 0 -1 32630 2689)" d="M 602 895 C 566 905 528.33333333333 910 489 910 C 341.66666666667 910 268 864.66666666667 268 774 C 268 728.66666666667 295.33333333333 692.66666666667 350 666 C 404 639.33333333333 475.66666666667 626 565 626 L 565 506 L 545 507 L 529 507 C 446.33333333333 507 382.33333333333 490.66666666667 337 458 C 291 425.33333333333 268 378.66666666667 268 318 C 268 250 283 199.66666666667 313 167 C 343 134.33333333333 391.33333333333 118 458 118 C 514.66666666667 118 558 140.66666666667 588 186 C 618 230.66666666667 637.33333333333 298.66666666667 646 390 L 777 390 C 794.33333333333 208.66666666667 848.33333333333 118 939 118 C 979.66666666667 118 1017 138.33333333333 1051 179 C 1084.33333333333 219.66666666667 1110.66666666667 277.33333333333 1130 352 C 1148.66666666667 426.66666666667 1158 510.66666666667 1158 604 C 1158 745.33333333333 1134.66666666667 852.33333333333 1088 925 C 1040.66666666667 997 964.66666666667 1048.66666666667 860 1080 L 750 1111 C 615.33333333333 1145.66666666667 522.33333333333 1187.66666666667 471 1237 C 419.66666666667 1286.33333333333 394 1351.33333333333 394 1432 C 394 1484.66666666667 413 1535.33333333333 451 1584 C 488.33333333333 1632 539.66666666667 1670 605 1698 C 669.66666666667 1726 741.66666666667 1740 821 1740 C 907 1740 985.66666666667 1724.66666666667 1057 1694 C 1128.33333333333 1663.33333333333 1186.66666666667 1621.66666666667 1232 1569 L 1112 1476 C 1073.33333333333 1520 1032 1552 988 1572 C 943.33333333333 1592 883.66666666667 1602 809 1602 C 736.33333333333 1602 678.66666666667 1586 636 1554 C 592.66666666667 1521.33333333333 571 1478.33333333333 571 1425 C 571 1377 588.33333333333 1337.66666666667 623 1307 C 657.66666666667 1276.33333333333 713 1250.66666666667 789 1230 L 917 1195 C 1060.33333333333 1155.66666666667 1163 1090.66666666667 1225 1000 C 1287 908.66666666667 1318 780.33333333333 1318 615 C 1318 498.33333333333 1301.66666666667 391.66666666667 1269 295 C 1235.66666666667 198.33333333333 1190 121.66666666667 1132 65 C 1073.33333333333 8.33333333333 1010.33333333333 -20 943 -20 C 892.33333333333 -20 846.33333333333 -9 805 13 C 763 34.33333333333 731.66666666667 68.66666666667 711 116 C 667.66666666667 25.33333333333 582.66666666667 -20 456 -20 C 341.33333333333 -20 251.66666666667 10.66666666667 187 72 C 122.33333333333 133.33333333333 90 215 90 317 C 90 429.66666666667 151.33333333333 516.66666666667 274 578 C 151.33333333333 628 90 698 90 788 C 90 838 105.33333333333 883 136 923 C 166 962.33333333333 209.66666666667 993 267 1015 C 323.66666666667 1037 391.33333333333 1048 470 1048 C 529.33333333333 1048 588.33333333333 1039.33333333333 647 1022 L 602 895 Z"/>
    <path fill="#000000" stroke="none" transform="matrix(1 0 0 -1 34038 2689)" d="M 655 135 C 611 31.66666666667 533.33333333333 -20 422 -20 C 360 -20 303.66666666667 2 253 46 C 201.66666666667 89.33333333333 161.66666666667 152 133 234 C 104.33333333333 315.33333333333 90 411.66666666667 90 523 C 90 634.33333333333 113.33333333333 735.66666666667 160 827 C 206 918.33333333333 272 989.66666666667 358 1041 C 443.33333333333 1092.33333333333 542.33333333333 1118 655 1118 C 767 1118 865.33333333333 1092.66666666667 950 1042 C 1034.66666666667 991.33333333333 1100 919.66666666667 1146 827 C 1191.33333333333 734.33333333333 1214 628.66666666667 1214 510 C 1214 407.33333333333 1199.66666666667 315.66666666667 1171 235 C 1141.66666666667 153.66666666667 1101.66666666667 91 1051 47 C 1000.33333333333 2.33333333333 945 -20 885 -20 C 829 -20 782.33333333333 -7.33333333333 745 18 C 707.66666666667 43.33333333333 677.66666666667 82.33333333333 655 135 Z M 716 348 C 726 276 745 219.66666666667 773 179 C 801 138.33333333333 837 118 881 118 C 933 118 972 153 998 223 C 1023.33333333333 293 1036 391.33333333333 1036 518 C 1036 666.66666666667 1003.66666666667 781 939 861 C 874.33333333333 940.33333333333 779.66666666667 980 655 980 C 527.66666666667 980 431.33333333333 940.66666666667 366 862 C 300.66666666667 783.33333333333 268 668.66666666667 268 518 C 268 390.66666666667 281.66666666667 292.33333333333 309 223 C 335.66666666667 153 374.66666666667 118 426 118 C 514.66666666667 118 571 194.66666666667 595 348 L 716 348 Z"/>
    <path fill="#000000" stroke="none" transform="matrix(1 0 0 -1 35342 2689)" d="M 996 -256 C 983.33333333333 -237.33333333333 963.66666666667 -228 937 -228 C 911 -228 890.33333333333 -236.33333333333 875 -253 C 859 -270.33333333333 851 -294.33333333333 851 -325 C 851 -361.66666666667 869.66666666667 -388.66666666667 907 -406 C 943.66666666667 -423.33333333333 1008.66666666667 -432 1102 -432 L 1287 -432 C 1358.33333333333 -432 1415 -419.33333333333 1457 -394 C 1499 -369.33333333333 1529.66666666667 -331.33333333333 1549 -280 C 1568.33333333333 -229.33333333333 1578 -152 1578 -48 L 1578 96 C 1500.66666666667 18.66666666667 1416 -20 1324 -20 C 1258.66666666667 -20 1201.33333333333 -6.66666666667 1152 20 C 1102 46 1061 80.66666666667 1029 124 L 1131 215 C 1176.33333333333 150.33333333333 1239.66666666667 118 1321 118 C 1399 118 1460.33333333333 158.33333333333 1505 239 C 1549 319.66666666667 1571 429.66666666667 1571 569 C 1571 655 1561.66666666667 729.33333333333 1543 792 C 1523.66666666667 854 1497.33333333333 901 1464 933 C 1430 964.33333333333 1390.66666666667 980 1346 980 C 1310 980 1275.66666666667 964.33333333333 1243 933 C 1210.33333333333 901 1167.66666666667 836.33333333333 1115 739 L 915 368 C 859 264 811 187.33333333333 771 138 C 730.33333333333 88.66666666667 687.33333333333 50 642 22 C 596 -6 546 -20 492 -20 C 414.66666666667 -20 345.33333333333 3 284 49 C 222 94.33333333333 174.33333333333 159 141 243 C 107 326.33333333333 90 421 90 527 C 90 635 109.33333333333 734.66666666667 148 826 C 186.66666666667 917.33333333333 238.66666666667 989 304 1041 C 369.33333333333 1092.33333333333 439.66666666667 1118 515 1118 C 580.33333333333 1118 638 1105 688 1079 C 737.33333333333 1052.33333333333 778 1017.33333333333 810 974 L 708 883 C 662.66666666667 947.66666666667 599.33333333333 980 518 980 C 440 980 379 939.66666666667 335 859 C 290.33333333333 778.33333333333 268 668.33333333333 268 529 C 268 402.33333333333 288.33333333333 302.33333333333 329 229 C 369 155 423.66666666667 118 493 118 C 529 118 563.66666666667 134 597 166 C 629.66666666667 198 672 262.33333333333 724 359 L 924 730 C 980 834 1028.33333333333 910.66666666667 1069 960 C 1109 1009.33333333333 1152 1048 1198 1076 C 1243.33333333333 1104 1293 1118 1347 1118 C 1423.66666666667 1118 1492.66666666667 1095.33333333333 1554 1050 C 1615.33333333333 1004.66666666667 1663.33333333333 940.33333333333 1698 857 C 1732 773.66666666667 1749 678.33333333333 1749 571 L 1748 526 L 1748 -29 C 1748 -195.66666666667 1708.33333333333 -327.33333333333 1629 -424 C 1549.66666666667 -521.33333333333 1442.66666666667 -570 1308 -570 L 1036 -570 C 936.66666666667 -570 857 -547.66666666667 797 -503 C 737 -459 707 -399.66666666667 707 -325 C 707 -259 728 -205 770 -163 C 812 -121 867.66666666667 -100 937 -100 C 971 -100 1003 -107.33333333333 1033 -122 C 1063 -137.33333333333 1087 -157.66666666667 1105 -183 L 996 -256 Z"/>
    <path fill="#000000" stroke="none" transform="matrix(1 0 0 -1 37713 2689)" d="M 1417 1587 C 1388.33333333333 1597 1357.66666666667 1602 1325 1602 C 1275.66666666667 1602 1238 1579 1212 1533 C 1186 1487 1167.66666666667 1411.66666666667 1157 1307 C 1145.66666666667 1202.33333333333 1140 1040.33333333333 1140 821 C 1140 532.33333333333 1096 320 1008 184 C 919.33333333333 48 782 -20 596 -20 C 503.33333333333 -20 417.66666666667 5 339 55 C 260.33333333333 104.33333333333 199.33333333333 172.33333333333 156 259 C 112 345.66666666667 90 441 90 545 C 90 666.33333333333 119.33333333333 778 178 880 C 236 981.33333333333 315 1057.33333333333 415 1108 L 471 976 C 401 941.33333333333 349.66666666667 888.33333333333 317 817 C 284.33333333333 745.66666666667 268 654.33333333333 268 543 C 268 407 297 302.33333333333 355 229 C 413 155 495.33333333333 118 602 118 C 692 118 763 138.33333333333 815 179 C 866.33333333333 219 903.66666666667 282.66666666667 927 370 C 950.33333333333 457.33333333333 962 582.33333333333 962 745 L 962 951 C 962 1101 979 1237.33333333333 1013 1360 C 1046.33333333333 1482.66666666667 1092.66666666667 1576.66666666667 1152 1642 C 1211.33333333333 1707.33333333333 1279.33333333333 1740 1356 1740 C 1392.66666666667 1740 1435.33333333333 1731.33333333333 1484 1714 L 1417 1587 Z"/>
    <path fill="#000000" stroke="none" transform="matrix(1 0 0 -1 38997 2689)" d="M 1597 1501 C 1534.33333333333 1568.33333333333 1449 1602 1341 1602 C 1209 1602 1143 1546.66666666667 1143 1436 C 1143 1406.66666666667 1153.33333333333 1380 1174 1356 C 1194.66666666667 1331.33333333333 1228.33333333333 1306 1275 1280 C 1351.66666666667 1235.33333333333 1408.66666666667 1193.66666666667 1446 1155 C 1482.66666666667 1116.33333333333 1511 1070.33333333333 1531 1017 C 1550.33333333333 963 1560 900.66666666667 1560 830 L 1560 20 L 1390 0 L 1390 812 C 1390 868.66666666667 1382.66666666667 918 1368 960 C 1352.66666666667 1001.33333333333 1332 1037.33333333333 1306 1068 C 1280 1098 1237.33333333333 1130.66666666667 1178 1166 L 1100 1212 C 1055.33333333333 1238.66666666667 1021.66666666667 1270.33333333333 999 1307 C 976.33333333333 1343 965 1386 965 1436 C 965 1480.66666666667 983.66666666667 1527.33333333333 1021 1576 C 1058.33333333333 1624.66666666667 1107 1664.33333333333 1167 1695 C 1226.33333333333 1725 1288.33333333333 1740 1353 1740 C 1499 1740 1621.33333333333 1690.66666666667 1720 1592 L 1597 1501 Z M 495 -294 L 512 -292 L 528 -292 C 591.33333333333 -292 643 -305.66666666667 683 -333 C 722.33333333333 -361 742 -396.66666666667 742 -440 C 742 -486.66666666667 720 -525 676 -555 C 632 -585 575.66666666667 -600 507 -600 C 417 -600 346 -579 294 -537 C 242 -495.66666666667 216 -440 216 -370 C 216 -316.66666666667 233.66666666667 -269 269 -227 C 303.66666666667 -185 354.33333333333 -151.66666666667 421 -127 C 487.66666666667 -102.33333333333 570.66666666667 -90 670 -90 C 762 -90 841.66666666667 -100.33333333333 909 -121 C 976.33333333333 -141.66666666667 1029 -173.66666666667 1067 -217 C 1104.33333333333 -261 1123 -312 1123 -370 C 1123 -404.66666666667 1113 -438 1093 -470 C 1072.33333333333 -502.66666666667 1043.33333333333 -530.66666666667 1006 -554 C 968.66666666667 -577.33333333333 923.66666666667 -592.66666666667 871 -600 L 832 -495 C 874 -491 908 -477 934 -453 C 960 -429 973 -400 973 -366 C 973 -267.33333333333 872.33333333333 -218 671 -218 C 563.66666666667 -218 486 -230 438 -254 C 390 -278.66666666667 366 -316 366 -366 C 366 -398.66666666667 378.33333333333 -425 403 -445 C 427 -465.66666666667 464.33333333333 -476 515 -476 C 538.33333333333 -476 559 -472.66666666667 577 -466 C 594.33333333333 -459.33333333333 603 -450.33333333333 603 -439 C 603 -411 577 -397 525 -397 L 512 -398 L 495 -294 Z M 385 -20 C 291 47.33333333333 218.33333333333 137.33333333333 167 250 C 115.66666666667 362 90 483 90 613 C 90 713.66666666667 105 802.33333333333 135 879 C 165 955 206.66666666667 1014 260 1056 C 312.66666666667 1097.33333333333 370 1118 432 1118 C 546.66666666667 1118 627 1066.33333333333 673 963 C 719 1066.33333333333 799.66666666667 1118 915 1118 C 977.66666666667 1118 1035.33333333333 1097.33333333333 1088 1056 C 1140.66666666667 1014 1182 955 1212 879 C 1242 802.33333333333 1257 713.66666666667 1257 613 C 1257 482.33333333333 1231.33333333333 361 1180 249 C 1128 136.33333333333 1055.33333333333 46.66666666667 962 -20 L 893 99 C 952.33333333333 148.33333333333 998.33333333333 215.66666666667 1031 301 C 1063 386.33333333333 1079 482.66666666667 1079 590 C 1079 712.66666666667 1065 808.33333333333 1037 877 C 1008.33333333333 945.66666666667 966.33333333333 980 911 980 C 862.33333333333 980 823.66666666667 956.33333333333 795 909 C 765.66666666667 861 747 794 739 708 L 608 708 C 600 794.66666666667 581.33333333333 861.66666666667 552 909 C 522.66666666667 956.33333333333 484 980 436 980 C 380.66666666667 980 339 946 311 878 C 282.33333333333 810 268 714 268 590 C 268 482.66666666667 284.33333333333 386.66666666667 317 302 C 349 216.66666666667 394.66666666667 149 454 99 L 385 -20 Z"/>
    <path fill="#000000" stroke="none" transform="matrix(1 0 0 -1 40657 2689)" d="M 655 114 C 722.33333333333 121.33333333333 775.33333333333 143 814 179 C 852 215 871 260.66666666667 871 316 C 871 427.33333333333 777 492 589 510 L 589 607 C 677 615.66666666667 746 636.66666666667 796 670 C 846 703.33333333333 871 745.33333333333 871 796 C 871 829.33333333333 860 860 838 888 C 816 916 784.66666666667 938.33333333333 744 955 C 702.66666666667 971.66666666667 655 980 601 980 C 486.33333333333 980 402.33333333333 945 349 875 C 295 804.33333333333 268 690.33333333333 268 533 C 268 433.66666666667 286.33333333333 346 323 270 C 359 193.33333333333 408.33333333333 141.33333333333 471 114 L 413 -20 C 341.66666666667 12 282.33333333333 56 235 112 C 187.66666666667 168 151.66666666667 232.33333333333 127 305 C 102.33333333333 377.66666666667 90 455.33333333333 90 538 C 90 650.66666666667 110.66666666667 751 152 839 C 192.66666666667 927 251.33333333333 995.66666666667 328 1045 C 404.66666666667 1093.66666666667 497.33333333333 1118 606 1118 C 685.33333333333 1118 759.66666666667 1104.33333333333 829 1077 C 897.66666666667 1049 951.66666666667 1011 991 963 C 1029.66666666667 914.33333333333 1049 859.66666666667 1049 799 C 1049 747.66666666667 1030.33333333333 700.33333333333 993 657 C 955.66666666667 613.66666666667 906.33333333333 581 845 559 C 915.66666666667 529 967.33333333333 492.33333333333 1000 449 C 1032.66666666667 405 1049 361 1049 317 C 1049 227 1014.66666666667 149.66666666667 946 85 C 876.66666666667 20.33333333333 793.33333333333 -14.66666666667 696 -20 L 655 114 Z"/>
    <path fill="#000000" stroke="none" transform="matrix(1 0 0 -1 41796 2689)" d="M 881 839 C 850.33333333333 885 811.66666666667 920 765 944 C 717.66666666667 968 666.66666666667 980 612 980 C 506 980 422.33333333333 940.66666666667 361 862 C 299 783.33333333333 268 681 268 555 C 268 445 294 353.33333333333 346 280 C 397.33333333333 206.66666666667 465.33333333333 162.66666666667 550 148 L 624 136 C 734 117.33333333333 823.66666666667 86.33333333333 893 43 C 961.66666666667 -0.33333333333 1020 -62 1068 -142 C 1115.33333333333 -222 1162.66666666667 -347 1210 -517 L 1045 -565 C 1003.66666666667 -389 950 -256.33333333333 884 -167 C 817.33333333333 -77.66666666667 732.33333333333 -25 629 -9 L 572 0 C 406 27.33333333333 284.33333333333 87 207 179 C 129 270.33333333333 90 395 90 553 C 90 658.33333333333 112 754.33333333333 156 841 C 199.33333333333 927.66666666667 261 995.66666666667 341 1045 C 420.33333333333 1093.66666666667 510 1118 610 1118 C 688.66666666667 1118 763.33333333333 1100.66666666667 834 1066 C 904.66666666667 1030.66666666667 964 980.33333333333 1012 915 L 881 839 Z"/>
    <path fill="#000000" stroke="none" transform="matrix(1 0 0 -1 42926 2689)" d="M 1013 551 C 1013 377 971.33333333333 238.33333333333 888 135 C 804 31.66666666667 690.33333333333 -20 547 -20 C 460.33333333333 -20 382 4.66666666667 312 54 C 242 103.33333333333 187.66666666667 172 149 260 C 109.66666666667 347.33333333333 90 444.33333333333 90 551 C 90 661.66666666667 109 760.33333333333 147 847 C 185 933.66666666667 239.33333333333 1000.66666666667 310 1048 C 380.66666666667 1094.66666666667 462 1118 554 1118 C 645.33333333333 1118 726 1094.66666666667 796 1048 C 865.33333333333 1000.66666666667 919 934 957 848 C 994.33333333333 762 1013 663 1013 551 Z M 268 551 C 268 417 293 311.33333333333 343 234 C 393 156.66666666667 462.66666666667 118 552 118 C 643.33333333333 118 713.33333333333 156.33333333333 762 233 C 810.66666666667 309 835 415 835 551 C 835 688.33333333333 810.33333333333 794.33333333333 761 869 C 711.66666666667 943 641 980 549 980 C 460.33333333333 980 391.33333333333 942.33333333333 342 867 C 292.66666666667 791.66666666667 268 686.33333333333 268 551 Z"/>
    <path fill="#000000" stroke="none" transform="matrix(1 0 0 -1 44029 2689)" d="M 978 961 C 1018 1019.66666666667 1066.66666666667 1060.66666666667 1124 1084 C 1180.66666666667 1106.66666666667 1243.33333333333 1118 1312 1118 C 1396.66666666667 1118 1474.33333333333 1095.33333333333 1545 1050 C 1615.66666666667 1004.66666666667 1671.33333333333 940.66666666667 1712 858 C 1752 775.33333333333 1772 677 1772 563 C 1772 445.66666666667 1751 343 1709 255 C 1667 166.33333333333 1608 98.33333333333 1532 51 C 1455.33333333333 3.66666666667 1368.33333333333 -20 1271 -20 C 1097 -20 954.66666666667 38.66666666667 844 156 C 747.33333333333 38.66666666667 628 -20 486 -20 C 410.66666666667 -20 345.66666666667 -9 291 13 C 236.33333333333 34.33333333333 194 65 164 105 C 134 144.33333333333 119 187.66666666667 119 235 C 119 289 133.33333333333 338.33333333333 162 383 C 190 427.66666666667 230 462.66666666667 282 488 C 333.33333333333 513.33333333333 392.66666666667 526 460 526 C 595.33333333333 526 708 486.33333333333 798 407 C 808.66666666667 458.33333333333 814 516.33333333333 814 581 C 814 709 785.66666666667 807.66666666667 729 877 C 672.33333333333 945.66666666667 587.66666666667 980 475 980 C 423 980 373.66666666667 967.33333333333 327 942 C 279.66666666667 916.66666666667 242.33333333333 882.33333333333 215 839 L 90 911 C 130 974.33333333333 186 1024.66666666667 258 1062 C 330 1099.33333333333 408.33333333333 1118 493 1118 C 645.66666666667 1118 767 1070 857 974 C 947 878 992 750.33333333333 992 591 C 992 481 970 379.33333333333 926 286 C 960.66666666667 237.33333333333 1009.33333333333 197.33333333333 1072 166 C 1134.66666666667 134 1200.66666666667 118 1270 118 C 1370.66666666667 118 1450 158 1508 238 C 1565.33333333333 318 1594 427 1594 565 C 1594 651.66666666667 1581.33333333333 726.33333333333 1556 789 C 1530 851 1494.33333333333 898.33333333333 1449 931 C 1403 963.66666666667 1349.66666666667 980 1289 980 C 1251 980 1216.33333333333 971 1185 953 C 1153 935 1127.33333333333 911 1108 881 L 978 961 Z M 485 388 C 418.33333333333 388 368.66666666667 375.33333333333 336 350 C 303.33333333333 324 287 290.33333333333 287 249 C 287 209 304 177.33333333333 338 154 C 371.33333333333 130 423.66666666667 118 495 118 C 549.66666666667 118 598.33333333333 130.33333333333 641 155 C 683 179 716.33333333333 212.33333333333 741 255 C 710.33333333333 298.33333333333 673 331.33333333333 629 354 C 585 376.66666666667 537 388 485 388 Z"/>
</svg>
