<svg xmlns="http://www.w3.org/2000/svg" viewBox="0 0 46721 3789" transform="translate(0, 3789) scale(1, -1)">
<path d="M1030,868Q900,868 825,933Q750,997 750,1112Q750,1239 819,1309Q888,1378 1014,1378Q1125,1378 1207,1307Q1289,1235 1335,1089Q1380,942 1380,748Q1380,527 1291,346Q1202,164 1048,71Q893,-23 688,-23Q514,-23 382,32Q249,86 177,190Q104,293 104,436Q104,581 184,667Q264,753 412,768Q277,791 206,868Q135,944 135,1067Q135,1220 234,1300Q333,1380 526,1380L560,1380L594,1378L594,1219L561,1221L530,1221Q406,1221 349,1182Q291,1142 291,1061Q291,850 672,850L672,682Q440,680 350,621Q260,562 260,432Q260,290 368,217Q475,143 686,143Q849,143 970,215Q1090,287 1159,431Q1227,574 1227,758Q1227,990 1173,1106Q1119,1221 1020,1221Q962,1221 933,1195Q903,1169 903,1122Q903,1024 1030,1024L1030,868Z"  transform="translate(0, 1100)"/>
<path d="M88,371Q88,483 130,550Q171,616 257,646Q342,676 514,676L745,676Q957,676 1047,758Q1137,839 1137,1034Q1137,1137 1111,1177Q1084,1217 1028,1217Q987,1217 945,1179Q902,1141 842,1063Q714,902 656,851Q597,800 533,774Q469,748 387,748Q228,748 145,836Q61,923 61,1083Q61,1214 138,1292Q214,1370 336,1370Q451,1370 519,1307Q586,1243 586,1130L584,1087L436,1087L436,1103Q436,1158 417,1190Q397,1221 336,1221Q276,1221 245,1186Q213,1150 213,1081Q213,877 389,877Q468,877 542,936Q615,995 781,1197Q859,1292 923,1335Q986,1378 1053,1378Q1168,1378 1228,1290Q1288,1201 1288,1034Q1288,857 1236,750Q1183,643 1076,594Q968,545 774,545L543,545Q375,545 308,505Q240,464 240,371Q240,249 319,196Q398,143 580,143Q763,143 878,210Q993,276 1053,401L1182,371L1181,352Q1181,155 1363,155L1391,156L1411,-6L1366,-7Q1249,-7 1181,39Q1113,85 1083,190Q994,79 869,28Q744,-23 580,-23Q333,-23 211,75Q88,172 88,371Z"  transform="translate(1466, 1100)"/>
<path d="M1206,156Q1300,182 1345,241Q1389,299 1389,377Q1389,422 1379,471Q1369,519 1348,582Q1327,644 1237,856Q1186,848 1092,848L1048,848L1006,850Q968,668 914,543Q859,418 787,317Q715,216 626,139Q536,62 443,21Q350,-20 270,-20Q182,-20 131,22Q80,63 80,141Q80,169 92,207Q143,363 174,440Q270,679 307,806Q344,932 344,1001Q344,1058 305,1085L72,1268L168,1389L387,1212Q444,1167 468,1123Q492,1078 492,1022Q492,922 453,776Q413,629 313,389Q296,348 285,309Q273,269 262,235Q250,201 250,189Q250,145 303,145Q374,145 464,204Q554,263 634,362Q714,461 775,592Q835,722 866,868Q721,897 641,970Q561,1042 561,1157Q561,1255 626,1316Q690,1376 786,1376Q910,1376 969,1296Q1028,1215 1028,1073L1024,981L1060,979L1094,979Q1148,979 1176,983Q1147,1061 1147,1133Q1147,1248 1209,1310Q1270,1372 1384,1372Q1479,1372 1539,1314Q1599,1255 1599,1157Q1599,1059 1539,993Q1478,926 1378,889L1434,762Q1544,512 1544,356Q1544,222 1461,119Q1377,16 1239,-12L1206,156ZM711,1159Q711,1107 755,1066Q798,1024 885,1001Q889,1033 889,1069Q889,1235 791,1235Q761,1235 736,1213Q711,1191 711,1159ZM1286,1126Q1286,1073 1309,1014Q1378,1037 1414,1074Q1450,1111 1450,1157Q1450,1189 1432,1210Q1414,1231 1380,1231Q1334,1231 1310,1203Q1286,1175 1286,1126Z"  transform="translate(2852, 1100)"/>
<path d="M932,-18Q839,-18 763,19Q687,56 645,124Q602,191 602,287Q602,337 623,390Q644,443 715,543Q607,553 542,627Q477,700 477,821Q477,905 514,965Q550,1025 613,1058Q676,1090 754,1090Q886,1090 959,1015Q1032,939 1032,811Q1032,750 1001,692L1315,692Q1314,868 1249,992Q1184,1116 1067,1182Q949,1247 797,1247Q628,1247 508,1168Q388,1089 329,943Q270,797 270,592Q270,328 408,63L258,-6Q111,274 111,592Q111,842 189,1023Q266,1203 426,1302Q585,1401 799,1401Q993,1401 1149,1312Q1304,1223 1384,1066Q1464,908 1466,692L1642,692L1622,543L1456,543Q1425,279 1285,131Q1145,-18 932,-18ZM901,543Q819,455 793,402Q766,348 766,297Q766,223 811,183Q856,143 932,143Q1080,143 1182,251Q1283,358 1309,543L901,543ZM631,819Q631,759 663,726Q695,692 754,692L838,692Q883,751 883,813Q883,869 853,905Q823,940 760,940Q702,940 667,907Q631,874 631,819Z"  transform="translate(4550, 1100)"/>
<path d="M659,680Q486,680 402,658Q318,635 277,585Q236,534 236,449Q236,301 352,222Q468,143 682,143Q930,143 1066,304Q1202,465 1202,760Q1202,969 1121,1092Q1039,1214 889,1214L883,1214L883,1374L897,1374Q1037,1374 1142,1297Q1246,1219 1301,1078Q1356,937 1356,752Q1356,511 1275,337Q1194,163 1043,72Q891,-20 688,-20Q512,-20 374,36Q235,91 159,195Q82,299 82,440Q82,594 162,672Q242,749 403,760Q267,787 195,873Q123,958 123,1085Q123,1214 208,1296Q293,1378 428,1378Q574,1378 643,1307Q712,1235 712,1118L711,1092L559,1092L559,1099Q559,1219 436,1219Q366,1219 324,1181Q281,1143 281,1081Q281,958 375,892Q468,825 659,825L659,680Z"  transform="translate(6227, 1100)"/>
<path d="M506,1288Q379,1141 328,990Q276,839 276,664Q276,411 334,277Q391,143 500,143Q571,143 609,180Q647,217 668,295Q688,373 688,504L688,877Q688,1058 724,1167Q759,1276 832,1326Q904,1376 1038,1376Q1206,1376 1301,1198Q1395,1020 1395,700Q1395,489 1340,301Q1284,113 1182,-31L1034,66Q1127,191 1185,370Q1243,549 1243,700Q1243,947 1188,1082Q1132,1217 1028,1217Q966,1217 933,1196Q900,1174 880,1132Q859,1089 850,1026Q840,962 840,877L840,494Q840,310 808,199Q775,87 705,35Q634,-18 500,-18Q318,-18 221,157Q123,332 123,664Q123,877 189,1062Q255,1246 389,1389L506,1288Z"  transform="translate(7681, 1100)"/>
<path d=""  transform="translate(9184, 1100)"/>
<path d="M559,948Q579,914 597,901Q615,887 641,887Q677,887 712,919Q747,951 819,1059L815,1065Q724,1156 662,1190Q600,1223 530,1223Q375,1223 286,1077Q197,931 197,674Q197,515 250,396Q303,277 405,212Q507,147 649,147Q819,147 925,236Q1030,325 1030,465Q1030,616 903,664L973,805Q1176,724 1176,465Q1176,328 1108,215Q1039,102 920,42Q801,-18 645,-18Q467,-18 335,65Q202,147 129,309Q55,470 55,676Q55,888 112,1051Q168,1213 274,1301Q379,1389 524,1389Q601,1389 662,1361Q722,1333 795,1265L897,1174Q963,1266 1025,1307Q1087,1348 1157,1348Q1269,1348 1333,1282Q1397,1215 1397,1104Q1397,1041 1366,985Q1335,929 1280,897Q1224,864 1153,864Q1043,864 922,965L863,879Q810,802 758,768Q705,733 639,733Q576,733 529,764Q481,794 440,868L559,948ZM1153,1196Q1112,1196 1078,1170Q1044,1144 1004,1083Q1049,1046 1082,1029Q1115,1012 1149,1012Q1190,1012 1218,1039Q1245,1066 1245,1104Q1245,1149 1221,1173Q1197,1196 1153,1196Z"  transform="translate(9770, 1100)"/>
<path d="M981,1098Q981,1022 1035,958Q1089,893 1198,831Q1223,925 1223,1055Q1223,1142 1193,1182Q1163,1221 1098,1221Q1050,1221 1016,1187Q981,1153 981,1098ZM1292,594Q1226,288 1073,133Q919,-23 684,-23Q495,-23 359,65Q223,153 151,325Q78,497 78,741Q78,1055 163,1219Q247,1382 418,1382Q548,1382 621,1296Q694,1209 694,1061Q694,919 620,834Q546,748 422,748Q297,748 215,803L215,741Q215,549 271,414Q327,279 432,210Q537,141 684,141Q872,141 994,282Q1116,422 1169,688Q975,806 902,903Q829,999 829,1106Q829,1231 901,1306Q972,1380 1087,1380Q1222,1380 1298,1295Q1374,1210 1374,1055Q1374,921 1331,745Q1466,642 1519,556Q1571,470 1571,348Q1571,160 1395,-2L1270,117Q1419,247 1419,367Q1419,445 1387,499Q1355,552 1292,594ZM420,1223Q338,1223 294,1159Q250,1095 238,965Q311,907 412,907Q480,907 517,950Q553,992 553,1061Q553,1141 517,1182Q481,1223 420,1223Z"  transform="translate(11230, 1100)"/>
<path d="M1411,367Q1411,507 1274,598Q1208,284 1039,131Q870,-23 590,-23Q357,-23 221,94Q84,211 84,416Q84,730 397,756Q117,805 117,1085Q117,1219 203,1298Q288,1376 418,1376Q546,1376 619,1309Q692,1241 692,1126L692,1110L690,1092L541,1092Q541,1166 510,1195Q479,1223 416,1223Q344,1223 307,1186Q270,1149 270,1083Q270,958 366,890Q462,821 655,821L655,682Q489,682 405,656Q320,629 278,572Q236,515 236,416Q236,286 330,214Q424,141 600,141Q820,141 954,274Q1088,407 1151,692Q1082,734 1017,775Q952,816 902,864Q852,912 822,971Q791,1029 791,1106Q791,1229 871,1305Q950,1380 1069,1380Q1213,1380 1290,1296Q1366,1211 1366,1055Q1366,948 1317,750Q1463,629 1513,544Q1563,459 1563,348Q1563,154 1374,4L1251,125Q1321,178 1366,243Q1411,308 1411,367ZM950,1098Q950,1048 971,1009Q991,969 1033,933Q1075,897 1184,836Q1212,941 1212,1055Q1212,1221 1075,1221Q1023,1221 987,1187Q950,1152 950,1098Z"  transform="translate(12864, 1100)"/>
<path d="M924,-229L921,-193Q921,-140 951,-88Q981,-37 1061,-14Q936,3 867,72Q797,141 797,250Q797,322 850,373L631,373L651,514L1208,514L1188,373L1100,373Q1007,373 972,346Q936,318 936,262Q936,204 983,168Q1029,131 1104,131Q1273,131 1363,296Q1452,461 1452,764Q1452,984 1391,1099Q1330,1214 1198,1214Q1097,1214 1039,1158Q981,1102 953,990Q924,878 922,715L764,715Q761,971 700,1093Q639,1214 508,1214Q240,1214 240,764Q240,454 331,309Q421,164 608,160L608,-10Q353,-6 219,194Q84,394 84,762Q84,1059 188,1219Q291,1378 492,1378Q775,1378 838,1100L844,1102Q929,1378 1208,1378Q1394,1378 1498,1220Q1602,1062 1602,764Q1602,430 1505,232Q1407,33 1223,-6Q1314,-25 1364,-89Q1413,-153 1413,-246Q1413,-375 1323,-444Q1233,-514 1069,-514Q782,-514 537,-240L641,-139Q744,-257 853,-317Q962,-377 1063,-377Q1152,-377 1203,-338Q1253,-299 1253,-227Q1253,-176 1228,-148Q1203,-121 1159,-121Q1118,-121 1093,-146Q1068,-172 1068,-212L1069,-229L924,-229Z"  transform="translate(14492, 1100)"/>
<path d="M1073,170Q1269,178 1378,336Q1487,494 1487,764Q1487,992 1431,1106Q1375,1219 1251,1219Q1112,1219 1048,1087Q984,955 981,698L809,698Q802,1219 545,1219Q399,1219 331,1105Q262,991 262,760Q262,612 272,535Q398,637 551,637Q696,637 770,559Q844,480 844,332Q844,225 809,146Q773,67 702,24Q630,-20 539,-20Q333,-20 223,185Q113,390 113,768Q113,1068 218,1224Q323,1380 532,1380Q682,1380 772,1308Q862,1235 891,1100L897,1102Q983,1380 1257,1380Q1438,1380 1535,1220Q1632,1059 1632,764Q1632,409 1484,205Q1335,0 1073,-8L1073,170ZM311,371Q326,270 390,205Q453,139 532,139Q611,139 653,188Q694,237 694,326Q694,489 551,489Q485,489 421,457Q356,424 311,371Z"  transform="translate(16192, 1100)"/>
<path d="M1276,164Q1338,172 1382,209Q1425,246 1454,308Q1482,370 1498,474Q1513,577 1513,764Q1513,922 1495,1021Q1476,1120 1439,1167Q1402,1214 1337,1214Q1259,1214 1227,1138Q1194,1062 1194,868L1194,698L1047,698L1047,868Q1047,1046 1011,1130Q974,1214 899,1214Q808,1214 772,1123Q735,1032 735,782L735,453Q735,210 662,96Q588,-18 430,-18Q255,-18 173,137Q90,291 90,606Q90,846 154,1047Q218,1247 344,1389L479,1292Q351,1144 299,983Q246,821 246,604Q246,361 290,252Q333,143 430,143Q584,143 584,455L584,844Q584,1114 654,1247Q724,1380 874,1380Q1080,1380 1116,1174L1122,1176Q1140,1275 1196,1327Q1252,1378 1360,1378Q1661,1378 1661,764Q1661,364 1567,182Q1472,0 1276,-12L1276,164Z"  transform="translate(17943, 1100)"/>
<path d=""  transform="translate(19690, 1100)"/>
<path d="M739,1303Q843,1384 967,1384Q1091,1384 1161,1315Q1231,1245 1231,1128Q1231,1062 1203,1010Q1175,958 1108,897L764,571Q862,473 893,433Q924,392 941,351Q958,309 958,264Q958,137 878,60Q797,-18 662,-18Q526,-18 443,59Q360,135 360,262Q360,332 401,401Q441,469 545,565L557,578L166,961Q61,1064 61,1167Q61,1255 120,1310Q179,1364 279,1364L547,1364L547,1208L291,1208Q256,1208 238,1192Q219,1176 219,1153Q219,1108 266,1061L659,674L1006,1001Q1079,1068 1079,1122Q1079,1172 1051,1201Q1023,1229 971,1229Q896,1229 827,1178L739,1303ZM807,274Q807,309 789,341Q770,372 725,415L662,475Q583,407 549,364Q514,320 514,272Q514,212 555,177Q595,141 662,141Q727,141 767,178Q807,215 807,274Z"  transform="translate(20276, 1100)"/>
<path d="M158,1364L483,1364Q585,1364 641,1311Q696,1258 696,1159Q696,1099 644,811Q591,522 543,309L632,251Q792,143 897,143Q1000,143 1063,203Q1126,262 1126,354Q1126,428 1093,522Q1060,616 987,755Q910,901 879,986Q848,1070 848,1133Q848,1364 1092,1364L1319,1364L1319,1208L1112,1208Q1049,1208 1022,1186Q995,1164 995,1114Q995,1062 1025,988Q1055,913 1137,762Q1208,630 1243,532Q1278,433 1278,354Q1278,177 1188,82Q1098,-14 922,-14Q862,-14 789,16Q715,46 613,113L510,178Q480,76 419,28Q358,-20 262,-20Q166,-20 106,42Q45,104 45,199Q45,299 106,360Q166,420 272,420Q331,420 408,385Q451,579 498,829Q545,1079 545,1118Q545,1208 463,1208L117,1208L158,1364ZM262,123Q304,123 332,152Q359,180 377,250Q314,274 268,274Q228,274 207,252Q186,230 186,199Q186,165 207,144Q228,123 262,123Z"  transform="translate(21581, 1100)"/>
<path d="M651,514L1208,514L1188,373L1100,373Q1007,373 972,346Q936,318 936,262Q936,206 979,176Q1022,145 1104,145Q1273,145 1363,304Q1452,463 1452,764Q1452,984 1391,1099Q1330,1214 1198,1214Q1097,1214 1039,1158Q981,1102 953,990Q924,878 922,715L764,715Q761,971 700,1093Q639,1214 508,1214Q240,1214 240,764Q240,454 331,309Q421,164 608,160L608,-10Q353,-6 219,194Q84,394 84,762Q84,1059 188,1219Q291,1378 492,1378Q775,1378 838,1100L844,1102Q929,1378 1208,1378Q1394,1378 1498,1220Q1602,1062 1602,764Q1602,-18 1122,-18Q1030,-18 952,17Q873,51 835,111Q797,170 797,250Q797,322 850,373L631,373L651,514Z"  transform="translate(22955, 1100)"/>
<path d="M631,631Q828,633 899,673Q969,713 969,803Q969,936 799,936Q646,936 631,801L469,817Q477,940 568,1011Q658,1081 799,1081Q946,1081 1033,1009Q1120,937 1120,815Q1120,690 1067,631Q1014,571 899,557L897,551Q1020,551 1085,508Q1235,513 1319,553Q1265,624 1244,675Q1223,725 1223,770Q1223,856 1278,905Q1333,954 1423,954Q1508,954 1564,904Q1620,854 1620,770Q1620,689 1586,630Q1552,570 1499,522Q1608,375 1608,270Q1608,188 1556,116Q1504,43 1407,-4L1321,129Q1406,177 1434,212Q1462,247 1462,289Q1462,346 1389,444Q1266,398 1171,383Q1180,347 1180,315Q1180,154 1056,65Q932,-25 713,-25Q521,-25 380,58Q238,141 161,302Q84,462 84,684Q84,909 163,1071Q242,1233 388,1318Q533,1403 725,1403Q998,1403 1192,1253L1104,1124Q1022,1188 934,1218Q846,1247 733,1247Q506,1247 371,1100Q236,953 236,688Q236,421 358,280Q479,139 707,139Q861,139 940,189Q1018,239 1018,332Q1018,399 990,430Q962,461 892,473Q822,485 633,485L631,631ZM1358,764Q1358,724 1375,692Q1392,659 1421,621Q1489,696 1489,764Q1489,794 1471,810Q1452,825 1423,825Q1394,825 1376,808Q1358,790 1358,764Z"  transform="translate(24649, 1100)"/>
<path d="M702,-4L675,-5Q505,-5 380,80Q254,165 192,321Q129,477 129,694Q129,1029 259,1205Q389,1380 637,1380Q839,1380 949,1261Q1059,1142 1059,920L1059,0L899,0L899,907Q899,1219 639,1219Q463,1219 374,1087Q285,955 285,696Q285,435 388,302Q491,168 690,168L702,-4Z"  transform="translate(26343, 1100)"/>
<path d="M948,1219Q917,1218 889,1208Q860,1197 770,1143Q742,1124 700,1104Q689,973 614,900Q539,827 401,827Q257,827 173,910Q88,993 88,1135Q88,1279 186,1372L299,1274Q240,1206 240,1135Q240,977 393,977Q516,977 541,1075Q472,1080 430,1117Q387,1154 387,1227Q387,1298 429,1337Q471,1376 541,1376Q604,1376 638,1349Q671,1322 688,1268Q794,1333 853,1357Q911,1380 950,1380Q1081,1378 1147,1285Q1212,1191 1212,995Q1212,779 1108,680Q1003,580 774,580L647,580Q477,580 399,562Q321,543 288,499Q254,455 254,367Q254,285 298,238Q341,190 420,168Q499,145 655,145Q1018,145 1018,350Q1018,416 995,455L1149,504Q1180,422 1180,338Q1180,-18 653,-18Q355,-18 226,80Q96,178 96,377Q96,504 147,576Q198,647 301,678Q404,709 647,709L741,709Q918,709 999,776Q1079,843 1079,999Q1079,1219 948,1219Z"  transform="translate(27535, 1100)"/>
<path d=""  transform="translate(28844, 1100)"/>
<path d="M764,709Q933,709 1015,779Q1096,848 1096,999Q1096,1225 930,1225Q743,1225 743,1030L743,862L602,862L602,1030Q602,1129 561,1178Q520,1227 430,1227Q350,1227 303,1182Q256,1136 256,1059Q256,1006 283,935Q310,864 346,817L217,737Q168,804 134,896Q100,987 100,1067Q100,1212 185,1297Q270,1382 408,1382Q607,1382 670,1219Q696,1293 768,1337Q839,1380 932,1380Q1080,1380 1157,1286Q1233,1192 1233,995Q1233,786 1126,683Q1018,580 797,580L676,580Q497,580 410,560Q323,540 284,495Q244,450 244,367Q244,285 288,238Q331,190 410,168Q489,145 645,145Q820,145 918,215Q1016,284 1038,414L1184,395L1180,334Q1180,166 1362,166L1378,166L1397,4L1376,2L1354,2Q1176,2 1094,166Q1035,75 928,29Q820,-18 643,-18Q350,-18 223,79Q96,175 96,377Q96,503 152,575Q208,646 317,678Q426,709 676,709L764,709Z"  transform="translate(29430, 1100)"/>
<path d="M803,709Q984,709 1071,778Q1157,847 1157,999Q1157,1223 991,1223Q805,1223 805,1028L805,862L664,862L664,1028Q664,1127 623,1176Q582,1225 492,1225Q411,1225 364,1180Q317,1134 317,1057Q317,1006 343,937Q369,868 408,817L279,737Q226,808 194,898Q162,988 162,1065Q162,1209 246,1295Q330,1380 469,1380Q668,1380 731,1217Q757,1291 829,1336Q901,1380 995,1380Q1140,1380 1217,1282Q1294,1184 1294,995Q1294,786 1183,683Q1072,580 836,580L709,580Q538,580 460,561Q382,542 349,499Q315,455 315,367Q315,285 359,238Q402,190 481,168Q560,145 717,145Q843,145 918,167Q992,188 1036,233Q1079,277 1079,350Q1079,413 1057,455L1210,504Q1241,422 1241,338Q1241,-18 715,-18Q417,-18 288,80Q158,178 158,377Q158,504 209,576Q259,647 362,678Q465,709 709,709L803,709Z"  transform="translate(30835, 1100)"/>
<path d="M340,862Q230,875 173,945Q115,1015 115,1124Q115,1245 189,1313Q263,1380 387,1380Q499,1380 565,1311Q631,1241 631,1122Q631,1024 547,726L456,378Q434,297 434,260Q434,208 477,180Q519,152 596,152Q724,152 848,286Q971,419 1046,622Q1120,824 1120,1016Q1120,1122 1081,1173Q1041,1223 948,1223L752,1223L752,1380L948,1380Q1115,1380 1193,1289Q1270,1198 1270,1024Q1270,776 1173,532Q1076,287 919,137Q762,-14 594,-14Q457,-14 364,54Q270,121 270,229Q270,294 326,493L399,755Q451,937 467,1006Q483,1075 483,1116Q483,1166 455,1195Q427,1223 371,1223Q327,1223 297,1197Q266,1171 266,1124Q266,1080 292,1052Q317,1023 373,1012L340,862Z"  transform="translate(32232, 1100)"/>
<path d="M815,145Q966,164 1045,298Q1124,431 1124,657Q1124,948 1014,1084Q904,1219 655,1219Q473,1219 364,1150Q254,1081 254,961Q254,906 279,854Q342,904 407,929Q471,954 549,954Q658,954 715,896Q772,837 772,729Q772,629 712,575Q651,520 545,520Q421,520 283,606Q244,535 244,459Q244,308 335,227Q426,145 614,145L606,-18Q461,-18 339,41Q216,99 156,202Q96,304 96,444Q96,589 182,721Q102,845 102,969Q102,1091 166,1181Q229,1271 360,1324Q490,1376 657,1376Q965,1376 1122,1193Q1278,1010 1278,653Q1278,341 1159,165Q1040,-11 825,-18L815,145ZM539,811Q444,811 356,727Q441,664 535,664Q572,664 601,680Q629,696 629,737Q629,772 606,792Q583,811 539,811Z"  transform="translate(33610, 1100)"/>
<path d="M1264,1255Q1107,1170 1008,1087Q908,1003 823,889Q898,918 963,918Q1105,918 1183,812Q1260,706 1260,514Q1260,352 1186,230Q1111,108 978,43Q844,-23 682,-23Q500,-23 358,53Q215,129 143,262Q70,394 70,573Q70,721 118,828Q166,934 264,993Q361,1051 489,1051L489,891Q357,891 290,809Q223,726 223,573Q223,369 342,255Q461,141 678,141Q798,141 896,188Q994,234 1050,320Q1106,406 1106,516Q1106,648 1060,712Q1014,776 918,776Q728,776 635,602L502,694Q718,1031 969,1214L121,1214L147,1364L1229,1364L1264,1255Z"  transform="translate(35003, 1100)"/>
<path d="M377,778Q259,806 201,881Q143,955 143,1067Q143,1154 192,1222Q240,1290 335,1332Q430,1374 530,1374Q708,1374 808,1282Q907,1190 907,1024Q907,937 877,875Q847,812 780,759Q712,706 563,633Q399,553 352,519Q304,484 281,445Q258,406 258,352Q258,253 326,198Q393,143 512,143Q631,143 705,184Q779,224 822,305Q864,386 877,504L1010,477Q999,407 999,354Q999,164 1206,164L1227,2L1197,1Q994,1 915,170Q859,82 759,32Q659,-18 518,-18Q396,-18 299,29Q201,75 154,156Q106,237 106,348Q106,434 142,498Q177,561 251,615Q324,668 537,766Q662,824 711,883Q760,942 760,1034Q760,1125 699,1176Q637,1227 532,1227Q435,1227 368,1180Q301,1132 301,1063Q301,1000 331,967Q361,933 420,918L377,778Z"  transform="translate(36353, 1100)"/>
<path d=""  transform="translate(37578, 1100)"/>
<path d="M727,1214Q653,1210 599,1162Q544,1114 526,1036Q593,1057 664,1057Q789,1057 865,997Q940,936 940,834Q940,774 911,722Q881,669 828,639Q775,608 702,608Q598,608 520,667Q442,726 408,831Q256,708 256,516Q256,400 310,314Q363,228 460,184Q557,139 678,139Q779,139 866,183Q952,227 1004,309Q1055,390 1057,498Q1057,538 1043,594Q1028,650 1010,686L1137,737Q1196,629 1196,492Q1196,348 1131,233Q1066,117 943,47Q820,-23 672,-23Q518,-23 389,44Q260,111 187,233Q113,355 113,516Q113,658 182,777Q250,896 385,975L385,993Q385,1118 463,1214L84,1214L117,1364L1169,1364L1135,1214L727,1214ZM659,924Q597,924 530,899Q548,837 595,801Q642,764 698,764Q740,764 764,785Q788,806 788,840Q788,878 754,901Q719,924 659,924Z"  transform="translate(38164, 1100)"/>
<path d="M57,1346Q132,1376 215,1376Q320,1376 383,1307Q446,1238 446,1122Q446,1020 363,726L272,378Q250,297 250,260Q250,208 293,180Q335,152 412,152Q544,152 669,277Q794,401 875,608Q956,814 956,1016Q956,1122 917,1173Q877,1223 784,1223L567,1223L567,1380L784,1380Q951,1380 1029,1289Q1106,1198 1106,1024Q1106,779 1009,533Q911,286 749,136Q586,-14 410,-14Q273,-14 180,54Q86,121 86,229Q86,294 142,493L214,756Q295,1038 295,1122Q295,1174 266,1196Q237,1217 197,1217Q157,1217 111,1198L57,1346Z"  transform="translate(39446, 1100)"/>
<path d="M827,827Q856,891 856,965Q856,1083 789,1151Q721,1219 600,1219Q419,1219 321,1090Q223,961 223,723Q223,574 289,383Q355,192 451,63L313,-31Q206,120 139,332Q72,543 72,723Q72,1025 211,1203Q350,1380 588,1380Q711,1380 805,1331Q898,1281 950,1186Q1001,1091 1001,956Q1001,773 889,653L887,606L887,563Q887,379 907,301Q927,223 971,184Q1015,145 1092,145Q1202,145 1264,278Q1325,410 1325,664Q1325,796 1298,898Q1271,999 1234,1075Q1196,1151 1155,1203Q1113,1255 1085,1288L1202,1389Q1345,1235 1412,1056Q1479,876 1479,664Q1479,339 1379,162Q1279,-16 1102,-16Q923,-16 836,100Q748,216 748,451L752,553Q699,532 625,532Q510,532 446,594Q381,655 381,762Q381,855 442,913Q502,971 600,971Q674,971 732,932Q790,892 827,827ZM618,684Q670,684 725,715Q694,821 602,821Q567,821 550,801Q532,781 532,758Q532,684 618,684Z"  transform="translate(40650, 1100)"/>
<path d="M897,283Q897,320 887,362Q725,362 643,400Q561,438 524,520Q487,602 487,727L487,942L653,954L653,745Q653,650 670,598Q687,546 724,522Q761,498 852,498Q830,560 813,623Q795,685 795,745Q795,851 866,909Q936,967 1055,967Q1125,967 1184,935Q1243,903 1277,846Q1311,789 1311,713Q1311,601 1245,514Q1178,426 1040,381Q1055,303 1055,274Q1055,137 947,59Q839,-20 655,-20Q479,-20 350,68Q220,155 151,314Q82,472 82,678Q82,901 160,1061Q238,1220 384,1303Q530,1386 727,1386Q882,1386 1025,1322Q1167,1257 1278,1135L1171,1036Q1079,1136 968,1186Q856,1235 741,1235Q498,1235 365,1088Q231,940 231,680Q231,521 281,398Q331,274 425,207Q518,139 647,139Q766,139 832,178Q897,216 897,283ZM950,725Q950,685 963,636Q976,587 999,516Q1072,544 1115,598Q1157,651 1157,713Q1157,823 1059,823Q1008,823 979,798Q950,772 950,725Z"  transform="translate(42225, 1100)"/>
<path d="M373,535L395,682L594,682Q557,743 557,817Q557,936 637,1008Q716,1079 848,1079Q1018,1079 1106,953Q1194,826 1194,578Q1194,295 1054,139Q914,-18 664,-18Q496,-18 370,66Q243,149 174,309Q104,468 104,690Q104,901 184,1060Q264,1218 424,1310Q584,1401 782,1401Q996,1401 1167,1295Q1337,1189 1420,1001Q1503,813 1503,557Q1503,420 1470,265Q1437,109 1382,-10L1233,51Q1348,274 1348,557Q1348,772 1285,926Q1221,1079 1090,1163Q959,1247 784,1247Q626,1247 503,1176Q379,1105 318,982Q256,858 256,690Q256,520 306,396Q356,272 449,208Q541,143 659,143Q846,143 944,257Q1042,371 1042,578Q1042,934 852,934Q784,934 746,902Q707,870 707,807Q707,762 727,728Q746,693 778,682L909,682L885,535L373,535Z"  transform="translate(43626, 1100)"/>
<path d="M96,0L96,1059Q96,1227 156,1304Q215,1380 344,1380Q429,1380 536,1268L596,1204Q650,1272 713,1309Q776,1346 838,1346Q908,1346 957,1317Q1006,1288 1032,1239Q1057,1190 1057,1130Q1057,1019 999,959Q941,899 836,899Q732,899 631,993Q571,847 571,655Q571,415 664,281Q757,147 928,147Q1014,147 1086,192Q1158,236 1200,319Q1241,401 1241,514Q1241,605 1192,797Q1143,989 1143,1077Q1143,1213 1217,1289Q1290,1364 1417,1364L1417,1204L1401,1204Q1337,1204 1309,1172Q1280,1140 1280,1073Q1280,998 1296,927Q1312,855 1331,785Q1350,715 1366,646Q1382,577 1382,508Q1382,348 1325,229Q1267,110 1164,47Q1061,-16 928,-16Q778,-16 665,64Q551,144 490,297Q428,449 428,655Q428,902 528,1098Q466,1166 428,1193Q390,1219 356,1219Q242,1219 242,1059L242,0L96,0ZM836,1194Q760,1194 694,1108Q764,1053 829,1053Q877,1053 898,1076Q918,1099 918,1126Q918,1157 895,1176Q872,1194 836,1194Z"  transform="translate(45232, 1100)"/>
</svg>
