<svg width="39794" height="3789" viewBox="0 0 39794 3789" xmlns="http://www.w3.org/2000/svg">
    <defs/>
    <path fill="#000000" stroke="none" transform="matrix(1 0 0 -1 0 2689)" d="M 724 1462 L 724 333 C 741.33333333333 426.33333333333 764.66666666667 519 794 611 L 1064 1462 L 1259 1462 L 742 0 L 547 0 L 30 1462 L 223 1462 L 491 612 C 510.33333333333 547.33333333333 533.33333333333 456 560 338 L 560 1462 L 724 1462 Z"/>
    <path fill="#000000" stroke="none" transform="matrix(1 0 0 -1 1289 2689)" d="M 384 1462 L 1150 705 L 1150 549 L 384 549 L 384 0 L 200 0 L 200 1462 L 384 1462 Z M 384 1235 L 384 705 L 921 705 L 384 1235 Z"/>
    <path fill="#000000" stroke="none" transform="matrix(1 0 0 -1 2520 2689)" d="M 746 1340 C 583.33333333333 1256 476.33333333333 1191 425 1145 C 373.66666666667 1098.33333333333 348 1050.33333333333 348 1001 C 348 969 354 941.33333333333 366 918 C 378 894.66666666667 394.66666666667 873.66666666667 416 855 C 436.66666666667 836.33333333333 478.33333333333 809.66666666667 541 775 C 597 743.66666666667 637 716.66666666667 661 694 C 684.33333333333 671.33333333333 702.33333333333 645.66666666667 715 617 C 727.66666666667 588.33333333333 734 555 734 517 C 734 418.33333333333 690.66666666667 324.33333333333 604 235 C 517.33333333333 145 387.33333333333 55.66666666667 214 -33 L 130 123 C 250 174.33333333333 348.33333333333 235 425 305 C 501.66666666667 375 540 437.66666666667 540 493 C 540 520.33333333333 528.33333333333 545.66666666667 505 569 C 481 591.66666666667 428.33333333333 627 347 675 C 218.33333333333 750.33333333333 154 851.33333333333 154 978 C 154 1172 326.33333333333 1343.33333333333 671 1492 L 746 1340 Z"/>
    <path fill="#000000" stroke="none" transform="matrix(1 0 0 -1 3396 2689)" d="M 30 1462 L 218 1462 L 547 524 C 595 386.66666666667 627.33333333333 278.66666666667 644 200 C 660.66666666667 282 692.33333333333 388.33333333333 739 519 L 402 1462 L 550 1462 L 810 721 L 907 999 L 742 1462 L 890 1462 L 979 1206 L 1069 1462 L 1259 1462 L 737 0 L 552 0 L 30 1462 Z"/>
    <path fill="#000000" stroke="none" transform="matrix(1 0 0 -1 4685 2689)" d="M 200 0 L 200 1462 L 384 1462 L 384 903 L 906 1329 L 1005 1201 L 458 749 L 1005 298 L 906 170 L 384 595 L 384 0 L 200 0 Z"/>
    <path fill="#000000" stroke="none" transform="matrix(1 0 0 -1 5770 2689)" d="M 434 1462 L 434 0 L 250 0 L 250 1462 L 434 1462 Z"/>
    <path fill="#000000" stroke="none" transform="matrix(1 0 0 -1 6986 2689)" d="M 200 1462 L 617 1462 C 813 1462 954.66666666667 1433 1042 1375 C 1128.66666666667 1316.33333333333 1172 1224.66666666667 1172 1100 C 1172 1013.33333333333 1148.33333333333 942 1101 886 C 1053.66666666667 829.33333333333 984.66666666667 792.66666666667 894 776 L 894 766 C 1006.66666666667 746.66666666667 1089.66666666667 707.66666666667 1143 649 C 1195.66666666667 590.33333333333 1222 512.66666666667 1222 416 C 1222 285.33333333333 1177.33333333333 183.33333333333 1088 110 C 998.66666666667 36.66666666667 874 0 714 0 L 200 0 L 200 1462 Z M 384 841 L 654 841 C 770 841 853.66666666667 859.33333333333 905 896 C 956.33333333333 932.66666666667 982 993.66666666667 982 1079 C 982 1159 953.66666666667 1216.66666666667 897 1252 C 839.66666666667 1286.66666666667 749.33333333333 1304 626 1304 L 384 1304 L 384 841 Z M 384 158 L 679 158 C 795 158 881.66666666667 180.33333333333 939 225 C 996.33333333333 269.66666666667 1025 338 1025 430 C 1025 516 995.66666666667 580 937 622 C 878.33333333333 664 787.66666666667 685 665 685 L 384 685 L 384 158 Z"/>
    <path fill="#000000" stroke="none" transform="matrix(1 0 0 -1 8318 2689)" d="M 1194 0 L 985 0 L 598 635 L 205 0 L 10 0 L 496 762 L 41 1462 L 246 1462 L 604 889 L 965 1462 L 1159 1462 L 707 766 L 1194 0 Z"/>
    <path fill="#000000" stroke="none" transform="matrix(1 0 0 -1 9522 2689)" d="M 1174 666 L 719 666 L 719 0 L 535 0 L 535 666 L 80 666 L 80 822 L 535 822 L 535 1462 L 719 1462 L 719 822 L 1174 822 L 1174 666 Z"/>
    <path fill="#000000" stroke="none" transform="matrix(1 0 0 -1 10776 2689)" d="M 414 1462 C 556.66666666667 1462 685.66666666667 1428 801 1360 C 915.66666666667 1292 1005.33333333333 1197.33333333333 1070 1076 C 1134 954 1166 818.66666666667 1166 670 L 1166 612 L 982 612 L 982 670 C 982 790 957.66666666667 898.66666666667 909 996 C 860.33333333333 1093.33333333333 792.66666666667 1169 706 1223 C 618.66666666667 1277 521.33333333333 1304 414 1304 L 384 1304 L 384 0 L 200 0 L 200 1462 L 414 1462 Z"/>
    <path fill="#000000" stroke="none" transform="matrix(1 0 0 -1 12062 2689)" d="M 1017 0 L 200 0 L 200 1462 L 1017 1462 L 1017 1304 L 384 1304 L 384 841 L 980 841 L 980 685 L 384 685 L 384 158 L 1017 158 L 1017 0 Z"/>
    <path fill="#000000" stroke="none" transform="matrix(1 0 0 -1 13199 2689)" d="M 1174 666 L 719 666 L 719 158 L 1174 158 L 1174 0 L 80 0 L 80 158 L 535 158 L 535 666 L 80 666 L 80 822 L 535 822 L 535 1304 L 80 1304 L 80 1462 L 1174 1462 L 1174 1304 L 719 1304 L 719 822 L 1174 822 L 1174 666 Z"/>
    <path fill="#000000" stroke="none" transform="matrix(1 0 0 -1 14985 2689)" d="M 1403 683 L 819 -15 L 705 -15 L 120 683 L 120 779 L 705 1477 L 819 1477 L 1403 779 L 1403 683 Z M 1218 732 L 762 1278 L 305 732 L 762 182 L 1218 732 Z"/>
    <path fill="#000000" stroke="none" transform="matrix(1 0 0 -1 16508 2689)" d="M 671 0 L 487 0 L 487 1304 L 30 1304 L 30 1462 L 1126 1462 L 1126 1304 L 671 1304 L 671 0 Z"/>
    <path fill="#000000" stroke="none" transform="matrix(1 0 0 -1 17664 2689)" d="M 200 0 L 200 1462 L 384 1462 L 384 883 L 940 1482 L 1059 1372 L 384 645 L 384 0 L 200 0 Z"/>
    <path fill="#000000" stroke="none" transform="matrix(1 0 0 -1 18803 2689)" d="M 552 1462 L 737 1462 L 1259 0 L 1064 0 L 737 934 C 691.66666666667 1065.33333333333 660.66666666667 1173 644 1257 C 624.66666666667 1163 594 1056.66666666667 552 938 L 223 0 L 30 0 L 552 1462 Z"/>
    <path fill="#000000" stroke="none" transform="matrix(1 0 0 -1 20092 2689)" d="M 1567 1381 L 1241 957 L 1087 957 L 834 1287 L 581 957 L 427 957 L 100 1382 L 227 1482 L 501 1124 L 762 1462 L 903 1462 L 1166 1124 L 1440 1482 L 1567 1381 Z M 926 987 L 926 0 L 742 0 L 742 987 L 926 987 Z"/>
    <path fill="#000000" stroke="none" transform="matrix(1 0 0 -1 21759 2689)" d="M 384 1462 L 619 1052 L 780 1373 L 907 1373 L 1068 1052 L 1303 1474 L 1443 1390 L 1143 865 L 989 865 L 843 1154 L 698 865 L 544 865 L 384 1145 L 384 0 L 200 0 L 200 1462 L 384 1462 Z"/>
    <path fill="#000000" stroke="none" transform="matrix(1 0 0 -1 23814 2689)" d="M 587 1462 C 768.33333333333 1462 905.66666666667 1425 999 1351 C 1092.33333333333 1276.33333333333 1139 1166.66666666667 1139 1022 C 1139 875.33333333333 1088.33333333333 763.33333333333 987 686 C 885 608 740 569 552 569 L 384 569 L 384 0 L 200 0 L 200 1462 L 587 1462 Z M 384 727 L 531 727 C 676.33333333333 727 781.66666666667 750.66666666667 847 798 C 912.33333333333 844.66666666667 945 920 945 1024 C 945 1118 914.66666666667 1188.33333333333 854 1235 C 793.33333333333 1281 698.66666666667 1304 570 1304 L 384 1304 L 384 727 Z"/>
    <path fill="#000000" stroke="none" transform="matrix(1 0 0 -1 25078 2689)" d="M 266 1336 L 651 951 L 651 1462 L 835 1462 L 835 951 L 1220 1336 L 1340 1217 L 862 739 L 1356 246 L 1237 126 L 835 528 L 835 0 L 651 0 L 651 528 L 249 126 L 130 246 L 623 739 L 146 1217 L 266 1336 Z"/>
    <path fill="#000000" stroke="none" transform="matrix(1 0 0 -1 26548 2689)" d="M 1475 733 C 1475 499 1416 315 1298 181 C 1179.33333333333 47 1013.66666666667 -20 801 -20 C 585.66666666667 -20 419.33333333333 46 302 178 C 184 309.33333333333 125 495 125 735 C 125 973 183.66666666667 1157.66666666667 301 1289 C 417.66666666667 1419.66666666667 585 1485 803 1485 C 1015 1485 1180 1418.66666666667 1298 1286 C 1416 1152.66666666667 1475 968.33333333333 1475 733 Z M 319 733 C 319 539.66666666667 360 392.33333333333 442 291 C 524 189.66666666667 643.66666666667 139 801 139 C 957.66666666667 139 1076.66666666667 189 1158 289 C 1239.33333333333 389 1280 537 1280 733 C 1280 928.33333333333 1239.66666666667 1075.66666666667 1159 1175 C 1078.33333333333 1273.66666666667 959.66666666667 1323 803 1323 C 644.33333333333 1323 524 1273 442 1173 C 360 1072.33333333333 319 925.66666666667 319 733 Z"/>
    <path fill="#000000" stroke="none" transform="matrix(1 0 0 -1 28148 2689)" d="M 1234 1324 C 1078 1279.33333333333 959 1206.33333333333 877 1105 C 795 1003 754 877.33333333333 754 728 C 754 428.66666666667 914 232 1234 138 L 1201 -20 C 1079 6.66666666667 971.66666666667 51 879 113 C 785.66666666667 175 711.66666666667 252.66666666667 657 346 C 601.66666666667 251.33333333333 527 173.33333333333 433 112 C 339 50 232.33333333333 6 113 -20 L 80 138 C 400 232 560 428.66666666667 560 728 C 560 877.33333333333 519.33333333333 1003 438 1105 C 356 1206.33333333333 236.66666666667 1279.33333333333 80 1324 L 113 1482 C 234.33333333333 1456 341.66666666667 1412 435 1350 C 528.33333333333 1288 602.33333333333 1209.33333333333 657 1114 C 711.66666666667 1209.33333333333 785.66666666667 1288 879 1350 C 972.33333333333 1412 1079.66666666667 1456 1201 1482 L 1234 1324 Z"/>
    <path fill="#000000" stroke="none" transform="matrix(1 0 0 -1 29462 2689)" d="M 773 1462 L 1361 862 L 1244 748 L 793 1209 L 793 0 L 609 0 L 609 1211 L 157 748 L 40 862 L 628 1462 L 773 1462 Z"/>
    <path fill="#000000" stroke="none" transform="matrix(1 0 0 -1 30863 2689)" d="M 1120 1364 L 1003 1279 L 1228 1117 L 1502 1482 L 1629 1384 L 1299 957 L 1165 957 L 864 1177 L 564 957 L 430 957 L 100 1384 L 227 1482 L 501 1117 L 725 1279 L 609 1364 L 708 1492 L 864 1379 L 1021 1492 L 1120 1364 Z M 957 987 L 957 0 L 773 0 L 773 987 L 957 987 Z"/>
    <path fill="#000000" stroke="none" transform="matrix(1 0 0 -1 33124 2689)" d="M 644 158 L 1005 158 L 1005 0 L 100 0 L 100 158 L 460 158 L 460 1304 L 100 1304 L 100 1462 L 1005 1462 L 1005 1304 L 644 1304 L 644 158 Z"/>
    <path fill="#000000" stroke="none" transform="matrix(1 0 0 -1 34229 2689)" d="M 40 113 L 521 1462 L 705 1462 L 1188 111 L 1188 0 L 40 0 L 40 113 Z M 611 1262 C 579.66666666667 1138 546.66666666667 1028 512 932 L 237 158 L 985 158 L 713 924 C 667 1052 633 1164.66666666667 611 1262 Z"/>
    <path fill="#000000" stroke="none" transform="matrix(1 0 0 -1 35457 2689)" d="M 439 1241 C 424.33333333333 1137 401 1021 369 893 L 238 380 L 50 380 L 337 1462 L 523 1462 C 640.33333333333 1196.66666666667 729.66666666667 993 791 851 C 851.66666666667 708.33333333333 885.33333333333 623 892 595 L 1228 1462 L 1414 1462 L 1705 380 L 1518 380 L 1385 891 C 1348.33333333333 1032.33333333333 1324.66666666667 1149 1314 1241 L 988 380 L 798 380 L 439 1241 Z"/>
    <path fill="#000000" stroke="none" transform="matrix(1 0 0 -1 37212 2689)" d="M 1305 380 L 1088 380 L 375 1224 L 367 1224 C 378.33333333333 1088 384 952.33333333333 384 817 L 384 380 L 200 380 L 200 1462 L 407 1462 L 1127 603 L 1135 603 C 1133.66666666667 619 1131 682.33333333333 1127 793 C 1123 903 1121 978 1121 1018 L 1121 1462 L 1305 1462 L 1305 380 Z"/>
    <path fill="#000000" stroke="none" transform="matrix(1 0 0 -1 38717 2689)" d="M 384 0 L 200 0 L 200 1462 L 1017 1462 L 1017 1304 L 384 1304 L 384 781 L 978 781 L 978 625 L 384 625 L 384 0 Z"/>
</svg>
