<svg xmlns="http://www.w3.org/2000/svg" viewBox="0 0 33607 3789" transform="translate(0, 3789) scale(1, -1)">
<path d="M444,889L119,889L119,1028L381,1028Q479,1028 521,1015Q563,1001 583,969Q602,937 602,879Q602,834 594,797Q646,813 723,824Q799,834 862,834Q1045,834 1217,754L1378,1008Q1478,1168 1566,1233Q1654,1298 1769,1298Q1876,1298 1952,1244Q2028,1189 2068,1092L1939,1036Q1891,1159 1761,1159Q1691,1159 1633,1111Q1575,1062 1503,944L1265,548Q1090,253 948,127Q806,0 664,0Q538,0 464,111Q389,221 389,406Q389,562 421,725Q444,846 444,889ZM856,694Q712,694 567,645Q555,584 551,528Q547,471 547,401Q547,291 581,215Q614,139 664,139Q757,139 869,250Q980,360 1145,635Q1010,694 856,694Z"  transform="translate(0, 1100)"/>
<path d="M492,0L354,0L350,1159L39,1159L39,1298L301,1298Q383,1298 427,1284Q471,1269 490,1238Q508,1206 508,1126L512,309L516,309Q649,585 772,796Q894,1007 984,1104Q1073,1201 1176,1250Q1278,1298 1397,1298Q1559,1298 1655,1212Q1751,1126 1751,987Q1751,771 1571,690Q1666,664 1728,582Q1790,499 1790,393Q1790,185 1626,83Q1462,-20 1133,-20L1049,-20L1049,119L1114,119Q1380,119 1506,187Q1632,255 1632,393Q1632,491 1558,545Q1483,598 1350,598L1198,598L1198,737L1292,737Q1428,737 1511,799Q1593,861 1593,967Q1593,1059 1537,1109Q1481,1159 1380,1159Q1183,1159 1004,891Q917,762 761,480Q558,113 492,0Z"  transform="translate(2109, 1100)"/>
<path d="M221,1223Q308,1263 385,1281Q462,1298 578,1298Q758,1298 858,1219Q958,1140 958,1001Q958,810 778,729Q876,702 937,617Q997,532 997,416Q997,223 860,112Q722,0 498,0Q388,0 295,15Q201,30 98,68L150,201Q209,174 306,157Q403,139 496,139Q601,139 679,175Q756,211 799,275Q842,338 842,414Q842,520 769,579Q696,637 547,637L406,637L406,776L500,776Q635,776 718,836Q801,896 801,993Q801,1072 739,1116Q676,1159 569,1159Q497,1159 418,1141Q338,1123 279,1094L221,1223Z"  transform="translate(3997, 1100)"/>
<path d="M893,352Q952,234 1010,187Q1068,139 1143,139Q1235,139 1306,195Q1376,250 1415,346Q1454,442 1454,555Q1454,712 1384,857Q1313,1002 1204,1081Q1095,1159 969,1159Q794,1159 640,1053Q485,946 387,757Q289,568 289,365Q289,262 346,201Q402,139 500,139Q596,139 692,188Q787,236 893,352ZM864,141Q695,0 489,0Q323,0 227,103Q131,205 131,387Q131,545 198,713Q265,881 383,1016Q501,1151 656,1225Q810,1298 977,1298Q1138,1298 1284,1198Q1429,1098 1521,921Q1612,743 1612,553Q1612,392 1554,265Q1496,138 1393,69Q1289,0 1157,0Q1066,0 999,29Q932,58 864,141Z"  transform="translate(5093, 1100)"/>
<path d="M397,311Q397,417 446,637Q459,694 459,766L119,766L119,905L408,905Q517,905 567,869Q616,832 616,745Q616,684 590,573Q566,468 561,420Q555,371 555,326Q555,227 600,183Q644,139 731,139Q858,139 994,269Q1130,399 1217,597Q1303,794 1303,965Q1303,1100 1240,1171Q1176,1241 1053,1241Q968,1241 897,1204Q825,1167 774,1102L670,1192Q816,1380 1063,1380Q1253,1380 1357,1272Q1460,1164 1460,961Q1460,744 1346,513Q1232,281 1060,141Q888,0 719,0Q566,0 482,82Q397,164 397,311Z"  transform="translate(6836, 1100)"/>
<path d="M766,1147Q556,1099 433,911Q309,722 309,449Q309,313 326,215Q343,117 381,0L217,0Q152,181 152,446Q152,693 241,884Q330,1075 499,1187Q668,1298 870,1298Q1072,1298 1242,1187Q1411,1076 1501,884Q1591,691 1591,446Q1591,187 1524,0L1360,0Q1398,117 1415,214Q1432,310 1432,449Q1432,637 1366,798Q1300,959 1181,1053Q1061,1146 905,1157L905,1145Q905,1068 969,1013L1018,967Q1065,929 1065,883Q1065,844 1031,809Q997,774 920,731Q889,715 889,709Q889,702 942,680Q1013,652 1039,636Q1064,619 1079,599Q1094,579 1094,553Q1094,522 1065,490Q1035,457 954,410Q930,394 910,383Q889,372 889,367Q889,362 907,356Q996,323 1045,291Q1094,258 1094,213Q1094,166 1061,129Q1027,92 977,57Q871,-16 803,-135L672,-66Q737,62 872,154Q905,176 905,193Q905,208 868,223L815,244Q768,262 746,292Q723,321 723,365Q723,400 749,432Q774,464 811,485Q847,505 886,526Q905,534 905,541Q905,549 868,565L815,587Q723,623 723,707Q723,731 732,750Q741,769 758,785Q774,801 797,816Q820,831 865,858Q905,879 905,885Q905,892 885,905Q766,986 766,1141L766,1147Z"  transform="translate(8395, 1100)"/>
<path d=""  transform="translate(10136, 1100)"/>
<path d="M369,160Q187,160 72,233L145,352Q227,299 369,299Q515,299 623,414Q730,528 782,741L877,741Q918,564 999,459Q1046,493 1105,584Q1164,674 1190,741L1284,741Q1321,535 1416,417Q1511,299 1647,299Q1702,299 1743,311Q1783,323 1845,358L1911,236Q1822,189 1769,175Q1715,160 1649,160Q1510,160 1403,238Q1296,315 1210,492Q1086,328 973,258Q880,366 831,469Q750,320 630,240Q510,160 369,160ZM580,870Q442,870 325,913Q207,955 66,1059L143,1174Q271,1082 366,1046Q460,1010 584,1010Q774,1010 1044,1100Q1308,1186 1485,1186Q1623,1186 1741,1144Q1859,1101 2003,997L1917,887Q1788,982 1686,1015Q1584,1047 1458,1047Q1346,1047 1172,993Q919,914 800,892Q680,870 580,870Z"  transform="translate(10668, 1100)"/>
<path d="M1522,510Q1628,510 1717,487Q1806,463 1911,408L1847,283Q1748,334 1680,353Q1611,371 1530,371Q1479,371 1410,354Q1341,336 1305,319L766,94Q644,43 518,43Q408,43 314,81Q220,118 104,217L195,326Q273,251 350,217Q426,182 522,182Q620,182 711,221L940,317L940,895L766,823Q644,772 518,772Q408,772 314,810Q220,847 104,946L195,1055Q273,980 350,946Q426,911 522,911Q620,911 711,950L1249,1176Q1310,1202 1386,1221Q1461,1239 1522,1239Q1628,1239 1717,1216Q1806,1192 1911,1137L1847,1012Q1748,1063 1680,1082Q1611,1100 1530,1100Q1436,1100 1305,1049L1098,961L1098,383L1249,446Q1403,510 1522,510Z"  transform="translate(12739, 1100)"/>
<path d="M641,1061L641,1032Q641,946 627,853Q612,759 594,670Q576,580 562,500Q547,419 547,360Q547,139 664,139Q713,139 765,169Q817,198 872,254Q926,309 995,405Q1064,501 1217,754L1311,909Q1449,1138 1546,1218Q1642,1298 1769,1298Q1876,1298 1952,1244Q2028,1189 2068,1092L1939,1036Q1891,1159 1765,1159Q1693,1159 1634,1110Q1574,1060 1503,944L1266,548Q1093,254 948,127Q802,0 651,0Q533,0 461,95Q389,189 389,344Q389,473 434,670L455,768L172,768L172,907L477,907Q485,968 485,1061L172,1061L172,1200L471,1200Q444,1303 377,1365Q309,1426 184,1458L217,1595Q360,1547 435,1497Q509,1447 557,1375Q604,1303 627,1200L928,1200L928,1061L641,1061Z"  transform="translate(14754, 1100)"/>
<path d="M621,483Q481,483 361,527Q241,571 106,672L184,786Q308,697 405,660Q501,623 625,623Q815,623 1085,713Q1349,799 1526,799Q1664,799 1784,756Q1904,713 2044,610L1958,500Q1835,591 1735,625Q1634,659 1499,659Q1383,659 1213,606Q960,527 841,505Q721,483 621,483Z"  transform="translate(16831, 1100)"/>
<path d="M221,1223Q308,1263 385,1281Q462,1298 578,1298Q794,1298 893,1184Q986,1239 1098,1239Q1261,1239 1334,1117Q1407,994 1407,719L1407,424Q1407,288 1430,237Q1452,185 1505,162Q1558,139 1661,139L1661,0L1640,0Q1496,0 1411,43Q1326,86 1288,171Q1249,256 1249,424L1249,719Q1249,921 1211,1011Q1173,1100 1079,1100Q1020,1100 952,1065Q958,1033 958,1001Q958,810 778,729Q876,702 937,617Q997,532 997,416Q997,223 860,112Q722,0 498,0Q388,0 295,15Q201,30 98,68L150,201Q209,174 306,157Q403,139 496,139Q601,139 679,175Q756,211 799,275Q842,338 842,414Q842,520 769,579Q696,637 547,637L406,637L406,776L500,776Q635,776 718,836Q801,896 801,993Q801,1072 739,1116Q676,1159 569,1159Q497,1159 418,1141Q338,1123 279,1094L221,1223Z"  transform="translate(18979, 1100)"/>
<path d="M596,303Q709,303 821,324Q932,344 1079,389Q1264,443 1354,459Q1443,475 1524,475Q1662,475 1783,432Q1904,388 2042,287L1956,176Q1829,270 1730,303Q1630,336 1497,336Q1385,336 1216,284Q1118,254 984,219Q849,184 761,174Q672,164 594,164Q410,164 302,261Q193,357 193,514Q193,639 245,739Q297,839 373,909Q238,959 104,1059L182,1174Q310,1082 405,1046Q499,1010 623,1010Q813,1010 1083,1100Q1347,1186 1524,1186Q1662,1186 1782,1143Q1902,1100 2042,997L1956,887Q1827,982 1725,1015Q1623,1047 1497,1047Q1385,1047 1211,993Q958,914 839,892Q719,870 618,870Q574,870 532,874Q453,818 402,728Q350,637 350,518Q350,420 412,362Q473,303 596,303Z"  transform="translate(20693, 1100)"/>
<path d=""  transform="translate(22839, 1100)"/>
<path d="M1073,666Q1156,666 1212,692Q1268,717 1335,780Q1422,858 1488,888Q1553,918 1632,918Q1781,918 1871,825Q1960,731 1960,580Q1960,402 1845,278Q1729,154 1526,117L1491,248Q1644,284 1728,371Q1812,457 1812,582Q1812,669 1761,724Q1710,778 1632,778Q1574,778 1532,756Q1489,733 1436,678Q1356,598 1269,562Q1181,526 1073,526Q1063,408 1009,318Q955,227 869,179Q783,131 680,131Q587,131 501,153Q415,174 367,174Q326,174 308,150Q289,125 289,90Q289,47 307,0L162,0Q141,53 141,115Q141,202 201,258Q260,313 360,313Q434,313 524,292Q613,270 670,270Q915,270 915,590Q915,747 862,827Q809,907 692,907Q600,907 510,861Q419,815 330,815Q224,815 165,872Q106,928 106,1026Q106,1098 153,1161Q199,1224 330,1313L408,1196Q307,1131 281,1100Q254,1068 254,1030Q254,954 348,954Q387,954 465,993Q568,1047 680,1047Q851,1047 953,949Q1055,850 1073,666Z"  transform="translate(23371, 1100)"/>
<path d="M805,801Q805,894 848,969Q723,911 634,889Q545,866 471,866Q361,866 267,904Q173,941 57,1040L150,1151Q231,1073 309,1040Q387,1006 475,1006Q553,1006 670,1048Q786,1089 897,1149Q1046,1227 1170,1265Q1294,1303 1407,1303Q1509,1303 1596,1281Q1683,1259 1796,1200L1733,1075Q1641,1125 1569,1144Q1497,1163 1415,1163Q1282,1163 1177,1120Q1072,1076 1013,999Q954,922 954,829Q954,812 960,800Q966,788 978,779Q989,769 1044,745Q1103,722 1133,696Q1163,669 1163,627Q1163,575 1072,523Q1020,494 1002,480Q983,466 983,457Q983,451 1021,435Q1058,418 1093,404Q1184,367 1184,307Q1184,260 1154,228Q1124,195 1073,160Q968,95 895,-20L768,47Q852,196 979,272Q999,285 999,293Q999,303 963,315L911,336Q817,370 817,451Q817,492 846,529Q875,565 956,602Q975,610 975,616Q975,623 966,627Q957,631 938,639Q805,690 805,801Z"  transform="translate(25442, 1100)"/>
<path d="M555,295Q555,220 588,180Q621,139 680,139Q809,139 944,262Q1079,385 1281,706L1473,1008Q1569,1164 1658,1231Q1746,1298 1864,1298Q1970,1298 2046,1244Q2122,1189 2163,1092L2034,1036Q1987,1159 1855,1159Q1783,1159 1726,1110Q1668,1061 1597,944L1528,827Q1578,764 1646,656Q1714,548 1745,481L1616,414Q1526,588 1446,696Q1297,457 1218,355Q1139,252 1071,187Q1003,121 935,80Q867,38 803,19Q738,0 670,0Q539,0 468,80Q397,160 397,309Q397,417 446,637Q459,694 459,766L119,766L119,905L408,905Q517,905 567,869Q616,832 616,745Q616,684 590,573Q566,466 561,409Q555,352 555,295Z"  transform="translate(27312, 1100)"/>
<path d="M397,309Q397,417 446,637Q459,694 459,766L119,766L119,905L408,905Q517,905 567,869Q616,832 616,745Q616,684 590,573Q566,466 561,409Q555,352 555,295Q555,139 686,139Q776,139 876,209Q975,278 1089,426Q1203,573 1386,887Q1442,981 1489,1058Q1535,1134 1587,1187Q1638,1240 1702,1269Q1765,1298 1855,1298Q1976,1298 2057,1223Q2138,1147 2138,1032Q2138,950 2100,881Q2062,812 1994,774Q1925,735 1833,735Q1713,735 1622,778L1679,905Q1744,874 1827,874Q1897,874 1944,919Q1991,964 1991,1032Q1991,1087 1951,1123Q1911,1159 1847,1159Q1792,1159 1747,1130Q1701,1101 1655,1043Q1609,984 1518,821Q1334,500 1197,330Q1060,159 932,80Q804,0 678,0Q541,0 469,79Q397,158 397,309Z"  transform="translate(29503, 1100)"/>
<path d="M291,0Q327,308 496,596Q415,559 344,559Q250,559 195,613Q139,666 139,754Q139,848 205,922L311,831Q279,793 279,760Q279,698 354,698Q498,698 762,938Q1148,1292 1593,1292Q1785,1292 1931,1225L1872,1098Q1749,1153 1593,1153Q1407,1153 1209,1065Q1011,977 853,823Q695,669 592,460Q489,250 453,0L291,0Z"  transform="translate(31610, 1100)"/>
</svg>
