<svg width="31197" height="3789" viewBox="0 0 31197 3789" xmlns="http://www.w3.org/2000/svg">
    <defs/>
    <path fill="#000000" stroke="none" transform="matrix(1 0 0 -1 0 2689)" d="M 160 0 L 473 829 C 347.66666666667 972.33333333333 276 1128.66666666667 258 1298 L 410 1298 C 424.66666666667 1174 464.66666666667 1069 530 983 C 605.33333333333 1193 728.33333333333 1298 899 1298 C 989 1298 1063.66666666667 1267.66666666667 1123 1207 C 1182.33333333333 1146.33333333333 1212 1067.66666666667 1212 971 C 1212 879.66666666667 1178.66666666667 801.33333333333 1112 736 C 1045.33333333333 670 963.33333333333 637 866 637 C 774.66666666667 637 686 663.66666666667 600 717 L 328 0 L 160 0 Z M 905 1159 C 843.66666666667 1159 794 1130.66666666667 756 1074 C 717.33333333333 1017.33333333333 682.33333333333 943.33333333333 651 852 C 709.66666666667 801.33333333333 779.33333333333 776 860 776 C 924 776 974.33333333333 796.66666666667 1011 838 C 1047 878.66666666667 1065 927.66666666667 1065 985 C 1065 1039.66666666667 1049.66666666667 1082.33333333333 1019 1113 C 988.33333333333 1143.66666666667 950.33333333333 1159 905 1159 Z"/>
    <path fill="#000000" stroke="none" transform="matrix(1 0 0 -1 1284 2689)" d="M 1071 1217 L 522 741 L 1071 741 L 1071 623 L 436 0 L 236 0 L 842 602 L 264 602 L 264 707 C 533.33333333333 941.66666666667 694.66666666667 1079.33333333333 748 1120 C 693.33333333333 1112 648.66666666667 1108 614 1108 C 468 1108 343.33333333333 1128.33333333333 240 1169 L 293 1298 C 379 1276.66666666667 449.66666666667 1263.66666666667 505 1259 C 560.33333333333 1253.66666666667 618.66666666667 1251 680 1251 C 823.33333333333 1251 953.66666666667 1266.66666666667 1071 1298 L 1071 1217 Z"/>
    <path fill="#000000" stroke="none" transform="matrix(1 0 0 -1 2351 2689)" d="M 547 254 L 655 389 L 782 535 L 1487 1298 L 1649 1298 L 1350 0 L 1186 0 L 1374 811 L 1432 1044 C 1414 1021.33333333333 1379 980.33333333333 1327 921 C 1275 861 996.66666666667 554 492 0 L 330 0 L 590 1128 L 84 881 L 127 1065 L 524 1260 C 576 1286.66666666667 624.66666666667 1300 670 1300 C 701.33333333333 1300 724 1289.66666666667 738 1269 C 751.33333333333 1247.66666666667 758 1224.66666666667 758 1200 C 758 1160.66666666667 752.33333333333 1114.33333333333 741 1061 C 729 1007.66666666667 712 934.66666666667 690 842 L 586 403 C 574.66666666667 350.33333333333 561.66666666667 300.66666666667 547 254 Z"/>
    <path fill="#000000" stroke="none" transform="matrix(1 0 0 -1 4143 2689)" d="M 1245 1044 C 1227.66666666667 1021.33333333333 1193 980.33333333333 1141 921 C 1089 861 810.33333333333 554 305 0 L 143 0 L 442 1298 L 606 1298 L 399 403 C 388.33333333333 350.33333333333 375.33333333333 300.66666666667 360 254 L 469 389 L 596 535 L 1300 1298 L 1462 1298 C 1306.66666666667 618.66666666667 1220.66666666667 249.33333333333 1204 190 L 1493 303 C 1523 317 1554.33333333333 324 1587 324 C 1661 324 1698 273.33333333333 1698 172 C 1698 96.66666666667 1675.66666666667 13.33333333333 1631 -78 C 1585.66666666667 -169.33333333333 1523.33333333333 -256 1444 -338 L 1339 -248 C 1479.66666666667 -77.33333333333 1550 60.66666666667 1550 166 L 1104 0 L 999 0 L 1188 811 L 1245 1044 Z"/>
    <path fill="#000000" stroke="none" transform="matrix(1 0 0 -1 5970 2689)" d="M 1104 289 C 1246 384.33333333333 1351.33333333333 460 1420 516 C 1488 572 1550 626 1606 678 L 1708 569 C 1552.66666666667 423 1380.66666666667 290 1192 170 L 1104 289 Z M 483 190 C 645.66666666667 312 830.33333333333 470.33333333333 1037 665 C 1243 859 1448.33333333333 1070 1653 1298 L 1849 1298 C 1261 648.66666666667 794.33333333333 216 449 0 L 287 0 L 555 1133 L 100 909 L 143 1096 L 483 1260 C 537.66666666667 1285.33333333333 586.33333333333 1298 629 1298 C 660.33333333333 1298 683 1288 697 1268 C 710.33333333333 1247.33333333333 717 1224.66666666667 717 1200 C 717 1166 704 1093.66666666667 678 983 L 549 442 L 483 190 Z"/>
    <path fill="#000000" stroke="none" transform="matrix(1 0 0 -1 7764 2689)" d="M 442 1298 L 606 1298 L 406 442 L 340 190 C 502.66666666667 312 687 470.33333333333 893 665 C 1099 859 1304.33333333333 1070 1509 1298 L 1706 1298 C 1424.66666666667 992.66666666667 1212.33333333333 769.66666666667 1069 629 L 1462 197 L 1354 98 L 958 526 C 723.33333333333 304 505.66666666667 128.66666666667 305 0 L 143 0 L 442 1298 Z"/>
    <path fill="#000000" stroke="none" transform="matrix(1 0 0 -1 9945 2689)" d="M 362 303 L 1114 1298 L 1276 1298 L 1233 532 C 1230.33333333333 435.33333333333 1221.33333333333 340.66666666667 1206 248 C 1224 280.66666666667 1241.33333333333 311 1258 339 C 1274 367 1478.66666666667 686.66666666667 1872 1298 L 2046 1298 L 1210 0 L 1049 0 L 1090 788 C 1102 952 1109.33333333333 1045 1112 1067 C 1095.33333333333 1039.66666666667 1037.33333333333 958.33333333333 938 823 L 305 0 L 143 0 L 442 1298 L 606 1298 C 539.33333333333 1011.33333333333 488 791.66666666667 452 639 C 415.33333333333 486.33333333333 385.33333333333 374.33333333333 362 303 Z"/>
    <path fill="#000000" stroke="none" transform="matrix(1 0 0 -1 11911 2689)" d="M 475 190 C 637.66666666667 312 822 470.33333333333 1028 665 C 1234 859 1439.66666666667 1070 1645 1298 L 1841 1298 C 1572.33333333333 1004.66666666667 1358.66666666667 781 1200 627 L 1597 197 L 1489 98 L 1094 526 C 858.66666666667 304 640.66666666667 128.66666666667 440 0 L 279 0 L 506 979 L 63 811 L 102 983 L 436 1110 C 493.33333333333 1133.33333333333 541.33333333333 1145 580 1145 C 611.33333333333 1145 634 1134.66666666667 648 1114 C 661.33333333333 1093.33333333333 668 1071 668 1047 C 668 992.33333333333 644 866.66666666667 596 670 C 548 473.33333333333 507.66666666667 313.33333333333 475 190 Z"/>
    <path fill="#000000" stroke="none" transform="matrix(1 0 0 -1 13699 2689)" d="M 338 190 C 500.66666666667 312 685 470.33333333333 891 665 C 1097 859 1302.33333333333 1070 1507 1298 L 1704 1298 C 1115.33333333333 648.66666666667 648.33333333333 216 303 0 L 141 0 L 442 1298 L 604 1298 L 414 483 L 338 190 Z"/>
    <path fill="#000000" stroke="none" transform="matrix(1 0 0 -1 15348 2689)" d="M 688 1130 C 688 1107.33333333333 682.66666666667 1068.66666666667 672 1014 L 1055 692 C 1217 846.66666666667 1412.66666666667 1048.66666666667 1642 1298 L 1839 1298 C 1574.33333333333 1006 1350.33333333333 772 1167 596 L 1612 223 L 1513 111 L 1061 496 C 839.66666666667 289.33333333333 632 124 438 0 L 276 0 L 526 1063 L 82 870 L 123 1049 L 455 1190 C 520.33333333333 1216 568.66666666667 1229 600 1229 C 631.33333333333 1229 654 1218.66666666667 668 1198 C 681.33333333333 1177.33333333333 688 1154.66666666667 688 1130 Z M 473 190 C 548.33333333333 246 640.33333333333 320.66666666667 749 414 C 857 506.66666666667 922.66666666667 566 946 592 L 635 856 L 539 442 L 473 190 Z"/>
    <path fill="#000000" stroke="none" transform="matrix(1 0 0 -1 17134 2689)" d="M 1462 1298 L 1163 0 L 999 0 L 1188 811 L 1245 1044 C 1227.66666666667 1021.33333333333 1193 980.33333333333 1141 921 C 1089 861 810.33333333333 554 305 0 L 143 0 L 442 1298 L 606 1298 L 399 403 C 388.33333333333 350.33333333333 375.33333333333 300.66666666667 360 254 L 469 389 L 596 535 L 1300 1298 L 1462 1298 Z"/>
    <path fill="#000000" stroke="none" transform="matrix(1 0 0 -1 18740 2689)" d="M 1458 1028 L 1194 760 C 843.33333333333 403.33333333333 543 150 293 0 L 131 0 C 223.66666666667 195.33333333333 301 375.66666666667 363 541 C 424.33333333333 705.66666666667 483.66666666667 904.33333333333 541 1137 L 98 956 L 137 1128 L 469 1266 C 521 1287.33333333333 570.66666666667 1298 618 1298 C 650 1298 673 1288 687 1268 C 700.33333333333 1247.33333333333 707 1224.66666666667 707 1200 C 707 1148 684.33333333333 1043 639 885 C 593.66666666667 726.33333333333 554 601 520 509 C 486 417 449.33333333333 330 410 248 C 647.33333333333 428 930.66666666667 688.66666666667 1260 1030 L 1520 1298 L 1681 1298 C 1575 801.33333333333 1451 422 1309 160 C 1370.33333333333 172 1447.33333333333 201.66666666667 1540 249 C 1632.66666666667 295.66666666667 1715.33333333333 348.66666666667 1788 408 L 1917 408 C 1863.66666666667 336.66666666667 1822.66666666667 239.33333333333 1794 116 C 1765.33333333333 -8 1751 -141.66666666667 1751 -285 L 1602 -285 C 1602 -95 1619 50 1653 150 C 1463 50 1284 0 1116 0 L 1077 0 C 1159 170.66666666667 1228.33333333333 332.66666666667 1285 486 C 1341.66666666667 638.66666666667 1399.33333333333 819.33333333333 1458 1028 Z"/>
    <path fill="#000000" stroke="none" transform="matrix(1 0 0 -1 21234 2689)" d="M 489 190 C 651.66666666667 312 836.33333333333 470.33333333333 1043 665 C 1249 859 1454.33333333333 1070 1659 1298 L 1855 1298 C 1267 648.66666666667 800.33333333333 216 455 0 L 293 0 L 518 979 L 63 756 L 106 940 L 446 1106 C 500.66666666667 1132 549.33333333333 1145 592 1145 C 623.33333333333 1145 646 1134.66666666667 660 1114 C 673.33333333333 1093.33333333333 680 1071 680 1047 C 680 992.33333333333 656 866.66666666667 608 670 C 549.33333333333 420 509.66666666667 260 489 190 Z"/>
    <path fill="#000000" stroke="none" transform="matrix(1 0 0 -1 23036 2689)" d="M 1083 1298 L 496 0 L 322 0 L 836 1133 C 756.66666666667 1119 665 1112 561 1112 C 390.33333333333 1112 258.66666666667 1132.66666666667 166 1174 L 217 1298 C 319.66666666667 1266.66666666667 442 1251 584 1251 C 742 1251 868.33333333333 1266.66666666667 963 1298 L 1083 1298 Z"/>
    <path fill="#000000" stroke="none" transform="matrix(1 0 0 -1 24099 2689)" d="M 932 1122 C 1041.33333333333 1050 1169 994.66666666667 1315 956 C 1353 1070.66666666667 1396.33333333333 1151.33333333333 1445 1198 C 1493.66666666667 1244.66666666667 1554.66666666667 1268 1628 1268 C 1695.33333333333 1268 1751.66666666667 1249 1797 1211 C 1841.66666666667 1172.33333333333 1864 1123.66666666667 1864 1065 C 1864 979 1833.66666666667 910.33333333333 1773 859 C 1711.66666666667 807.66666666667 1635.33333333333 782 1544 782 L 1427 791 L 1182 0 L 1016 0 L 1272 823 C 1123.33333333333 861.66666666667 995.66666666667 915.66666666667 889 985 L 584 0 L 418 0 L 770 1135 C 706 1111.66666666667 629.66666666667 1100 541 1100 C 472.33333333333 1100 401 1107.33333333333 327 1122 C 252.33333333333 1136 195.33333333333 1152.33333333333 156 1171 L 211 1298 C 329.66666666667 1258.66666666667 441 1239 545 1239 C 649.66666666667 1239 740.33333333333 1258.66666666667 817 1298 L 987 1298 L 932 1122 Z M 1632 1128 C 1591.33333333333 1128 1559.33333333333 1110.33333333333 1536 1075 C 1512.66666666667 1039.66666666667 1490.66666666667 991.33333333333 1470 930 L 1550 924 C 1608.66666666667 924 1651 936.66666666667 1677 962 C 1703 986.66666666667 1716 1015 1716 1047 C 1716 1069.66666666667 1709 1089 1695 1105 C 1680.33333333333 1120.33333333333 1659.33333333333 1128 1632 1128 Z"/>
    <path fill="#000000" stroke="none" transform="matrix(1 0 0 -1 26077 2689)" d="M 545 442 C 535 402.66666666667 525.33333333333 363.66666666667 516 325 C 506.66666666667 285.66666666667 494.33333333333 240.66666666667 479 190 C 511.66666666667 214.66666666667 546.33333333333 242 583 272 C 619 302 654 330.66666666667 688 358 C 768.66666666667 425.33333333333 851 497.66666666667 935 575 C 1019 651.66666666667 1102 730.33333333333 1184 811 C 1266 891.66666666667 1346.33333333333 973.33333333333 1425 1056 C 1503 1138.66666666667 1577.66666666667 1219.33333333333 1649 1298 L 1845 1298 C 1752.33333333333 1196 1650.33333333333 1086 1539 968 C 1427.66666666667 850 1311.66666666667 732.33333333333 1191 615 C 1070.33333333333 497 947 384.66666666667 821 278 C 694.33333333333 170.66666666667 568.66666666667 78 444 0 L 283 0 L 449 725 L 4 541 L 45 719 L 379 854 C 406.33333333333 864.66666666667 431.66666666667 874.33333333333 455 883 C 477.66666666667 891 500.66666666667 895 524 895 C 555.33333333333 895 578 885 592 865 C 605.33333333333 844.33333333333 612 821.66666666667 612 797 C 612 777.66666666667 611.33333333333 760 610 744 C 608.66666666667 727.33333333333 606 708.33333333333 602 687 C 598 665.66666666667 592.33333333333 639 585 607 C 577 575 567 533.66666666667 555 483 L 545 442 Z M 764 1380 L 682 1024 L 518 1024 L 600 1380 L 764 1380 Z"/>
    <path fill="#000000" stroke="none" transform="matrix(1 0 0 -1 27859 2689)" d="M 596 1133 L 84 881 L 127 1065 L 524 1260 C 578.66666666667 1285.33333333333 627.33333333333 1298 670 1298 C 701.33333333333 1298 724 1288 738 1268 C 751.33333333333 1247.33333333333 758 1224.66666666667 758 1200 C 758 1145.33333333333 734 1019.66666666667 686 823 L 606 483 L 539 240 L 725 422 C 968.33333333333 658 1154 903.66666666667 1282 1159 L 1354 1298 L 1458 1298 L 1458 1147 C 1458 1054.33333333333 1477 982.66666666667 1515 932 C 1552.33333333333 881.33333333333 1602.33333333333 856 1665 856 C 1713 856 1758 870.33333333333 1800 899 C 1841.33333333333 927.66666666667 1898.66666666667 993.33333333333 1972 1096 L 2079 1010 C 2009 903.33333333333 1942 828 1878 784 C 1814 739.33333333333 1741 717 1659 717 C 1581 717 1512.66666666667 740 1454 786 C 1395.33333333333 831.33333333333 1357.66666666667 891 1341 965 C 1256.33333333333 818.33333333333 1154.66666666667 677.33333333333 1036 542 C 917.33333333333 406 809 295 711 209 C 612.33333333333 123 520 53.33333333333 434 0 L 334 0 L 596 1133 Z"/>
    <path fill="#000000" stroke="none" transform="matrix(1 0 0 -1 29942 2689)" d="M 1104 604 L 139 604 L 172 743 L 1137 743 L 1104 604 Z"/>
</svg>
