<svg width="39663" height="3789" viewBox="0 0 39663 3789" xmlns="http://www.w3.org/2000/svg">
    <defs/>
    <path fill="#000000" stroke="none" transform="matrix(1 0 0 -1 0 2689)" d="M 780 575 L 1055 227 C 1140.33333333333 321 1199 411.66666666667 1231 499 C 1262.33333333333 586.33333333333 1278 673.33333333333 1278 760 C 1278 881.33333333333 1250 997 1194 1107 C 1138 1217 1078 1298 1014 1350 L 1128 1485 C 1231.33333333333 1393 1312.66666666667 1284.33333333333 1372 1159 C 1430.66666666667 1033 1460 900 1460 760 C 1460 618 1423.33333333333 478 1350 340 C 1276 202 1179.66666666667 82 1061 -20 L 780 330 L 500 -20 C 381.33333333333 82 285 202.33333333333 211 341 C 137 479 100 618.66666666667 100 760 C 100 895.33333333333 128.66666666667 1025.66666666667 186 1151 C 242.66666666667 1276.33333333333 324.66666666667 1387.66666666667 432 1485 L 547 1350 C 484.33333333333 1300.66666666667 424.66666666667 1220.33333333333 368 1109 C 311.33333333333 997 283 880.66666666667 283 760 C 283 671.33333333333 299 583.66666666667 331 497 C 363 409.66666666667 421.33333333333 319.66666666667 506 227 L 780 575 Z"/>
    <path fill="#000000" stroke="none" transform="matrix(1 0 0 -1 1561 2689)" d="M 694 1325 C 622 1301 532 1245.33333333333 424 1158 C 316 1070 262 991.33333333333 262 922 C 262 873.33333333333 279.33333333333 833.33333333333 314 802 C 348.66666666667 770 391.33333333333 754 442 754 L 524 754 L 524 600 L 442 600 C 332.66666666667 600 245.33333333333 629 180 687 C 114.66666666667 744.33333333333 82 822.66666666667 82 922 C 82 991.33333333333 111.33333333333 1062.66666666667 170 1136 C 228 1209.33333333333 311.33333333333 1280.66666666667 420 1350 C 528 1418.66666666667 619.33333333333 1463.66666666667 694 1485 C 769.33333333333 1463.66666666667 861.33333333333 1418.66666666667 970 1350 C 1078.66666666667 1280.66666666667 1162 1209.33333333333 1220 1136 C 1278 1062.66666666667 1307 991.33333333333 1307 922 C 1307 822.66666666667 1274.33333333333 744.33333333333 1209 687 C 1143 629 1055.33333333333 600 946 600 L 864 600 L 864 754 L 946 754 C 996.66666666667 754 1039.33333333333 770 1074 802 C 1108.66666666667 833.33333333333 1126 873.33333333333 1126 922 C 1126 991.33333333333 1071.33333333333 1070.66666666667 962 1160 C 852 1248.66666666667 762.66666666667 1303.66666666667 694 1325 Z M 612 401 L 612 1059 L 776 1059 L 776 334 L 700 246 L 459 317 C 473.66666666667 257 502 209 544 173 C 586 137 636 119 694 119 C 764.66666666667 119 819 154.66666666667 857 226 C 894.33333333333 296.66666666667 913 390.66666666667 913 508 L 1077 508 C 1066.33333333333 322.66666666667 1027.66666666667 188.33333333333 961 105 C 894.33333333333 21.66666666667 805.33333333333 -20 694 -20 C 608.66666666667 -20 534.33333333333 1.33333333333 471 44 C 407.66666666667 86 359 149 325 233 C 291 316.33333333333 274 402.33333333333 274 491 L 274 502 L 612 401 Z"/>
    <path fill="#000000" stroke="none" transform="matrix(1 0 0 -1 2950 2689)" d="M 1038 424 C 989.33333333333 391.33333333333 930 375 860 375 C 760 375 678.33333333333 408.66666666667 615 476 C 551.66666666667 542.66666666667 520 627.66666666667 520 731 C 520 835 551.66666666667 920.33333333333 615 987 C 678.33333333333 1053.66666666667 760 1087 860 1087 C 930 1087 989.33333333333 1070.66666666667 1038 1038 C 1002 1133.33333333333 950.33333333333 1205.66666666667 883 1255 C 815 1304.33333333333 736.33333333333 1329 647 1329 C 557 1329 475.33333333333 1289.66666666667 402 1211 C 328.66666666667 1132.33333333333 288.33333333333 1054.33333333333 281 977 L 92 977 C 132 1143 200 1269 296 1355 C 392 1440.33333333333 509 1483 647 1483 C 835 1483 986 1414 1100 1276 C 1213.33333333333 1138 1270 956.33333333333 1270 731 C 1270 506.33333333333 1213.33333333333 325 1100 187 C 986.66666666667 49 835.66666666667 -20 647 -20 C 505.66666666667 -20 387.66666666667 23.66666666667 293 111 C 197.66666666667 197.66666666667 130.66666666667 322.33333333333 92 485 L 281 485 C 289 406.33333333333 329.66666666667 328 403 250 C 476.33333333333 172 557.66666666667 133 647 133 C 734.33333333333 133 812.33333333333 158.66666666667 881 210 C 949 260.66666666667 1001.33333333333 332 1038 424 Z M 728 880 C 686.66666666667 838 666 788.33333333333 666 731 C 666 673 687 623.33333333333 729 582 C 770.33333333333 540.66666666667 819.66666666667 520 877 520 C 933.66666666667 520 983 541 1025 583 C 1066.33333333333 625 1087 674.33333333333 1087 731 C 1087 788.33333333333 1066.33333333333 838 1025 880 C 983.66666666667 921.33333333333 934.33333333333 942 877 942 C 819 942 769.33333333333 921.33333333333 728 880 Z"/>
    <path fill="#000000" stroke="none" transform="matrix(1 0 0 -1 4320 2689)" d="M 647 1462 L 823 1462 C 911.66666666667 1437.33333333333 1000.66666666667 1388.66666666667 1090 1316 C 1178.66666666667 1243.33333333333 1247.66666666667 1156.33333333333 1297 1055 C 1345.66666666667 953 1370 843.66666666667 1370 727 C 1370 629.66666666667 1351.66666666667 535 1315 443 C 1278.33333333333 350.33333333333 1226.66666666667 267.66666666667 1160 195 C 1093.33333333333 121.66666666667 1038.33333333333 74.33333333333 995 53 L 915 205 C 947 220.33333333333 987.33333333333 256.33333333333 1036 313 C 1084 369.66666666667 1121.66666666667 433.66666666667 1149 505 C 1176.33333333333 576.33333333333 1190 650.33333333333 1190 727 C 1190 854.33333333333 1154.33333333333 969 1083 1071 C 1011 1172.33333333333 924.33333333333 1243.33333333333 823 1284 L 823 0 L 647 0 C 505.66666666667 40 379.33333333333 127.66666666667 268 263 C 156 398.33333333333 100 555.66666666667 100 735 C 100 831 118 924.33333333333 154 1015 C 189.33333333333 1105 239.66666666667 1187 305 1261 C 369.66666666667 1335 426.33333333333 1384.33333333333 475 1409 L 555 1257 C 525 1241.66666666667 485.66666666667 1206 437 1150 C 387.66666666667 1093.33333333333 349.33333333333 1029 322 957 C 294.66666666667 884.33333333333 281 810.33333333333 281 735 C 281 606.33333333333 317 491.66666666667 389 391 C 460.33333333333 289.66666666667 546.33333333333 218 647 176 L 647 1462 Z"/>
    <path fill="#000000" stroke="none" transform="matrix(1 0 0 -1 5790 2689)" d="M 82 518 L 236 569 L 371 162 C 437.66666666667 184 509 226.66666666667 585 290 C 661 352.66666666667 711.66666666667 411 737 465 C 675 480.33333333333 596.66666666667 524.66666666667 502 598 C 407.33333333333 671.33333333333 332.66666666667 754 278 846 C 222.66666666667 938 195 1032 195 1128 C 195 1238.66666666667 224.66666666667 1326 284 1390 C 342.66666666667 1453.33333333333 421.33333333333 1485 520 1485 C 603.33333333333 1485 681.66666666667 1456 755 1398 C 827.66666666667 1339.33333333333 885 1258 927 1154 C 968.33333333333 1050 989 933.66666666667 989 805 C 989 651 955.33333333333 513 888 391 C 820.66666666667 269 724.33333333333 171.33333333333 599 98 C 473 24.66666666667 362.66666666667 -14.66666666667 268 -20 L 82 518 Z M 786 596 C 801.33333333333 650 809 722.33333333333 809 813 C 809 918.33333333333 780.33333333333 1031 723 1151 C 665.66666666667 1271 597.33333333333 1331 518 1331 C 473.33333333333 1331 438.33333333333 1312.66666666667 413 1276 C 387.66666666667 1238.66666666667 375 1186.66666666667 375 1120 C 375 1052 394.66666666667 982 434 910 C 473.33333333333 838 527.33333333333 772.66666666667 596 714 C 664.66666666667 654.66666666667 728 615.33333333333 786 596 Z"/>
    <path fill="#000000" stroke="none" transform="matrix(1 0 0 -1 6880 2689)" d="M 1292 623 C 1269.33333333333 423 1208.33333333333 266 1109 152 C 1009 37.33333333333 877 -20 713 -20 C 525 -20 376 48.66666666667 266 186 C 155.33333333333 323.33333333333 100 505 100 731 C 100 961 152.33333333333 1144.33333333333 257 1281 C 361.66666666667 1417 503.33333333333 1485 682 1485 C 794 1485 895.33333333333 1454.33333333333 986 1393 C 1076.66666666667 1331 1133 1260.66666666667 1155 1182 L 973 1139 C 969.66666666667 1154.33333333333 955.33333333333 1178.33333333333 930 1211 C 904 1243.66666666667 870.66666666667 1272 830 1296 C 788.66666666667 1319.33333333333 741.33333333333 1331 688 1331 C 559.33333333333 1331 459.33333333333 1276 388 1166 C 316.66666666667 1056 281 911 281 731 C 281 550.33333333333 319 405.66666666667 395 297 C 471 187.66666666667 577 133 713 133 C 806.33333333333 133 890.66666666667 172.66666666667 966 252 C 1041.33333333333 331.33333333333 1079 409 1079 485 C 1039 468.33333333333 998 455 956 445 C 914 435 876.66666666667 430 844 430 C 758.66666666667 430 686.33333333333 461.33333333333 627 524 C 567 586 537 658.33333333333 537 741 C 537 835.66666666667 569 910.66666666667 633 966 C 696.33333333333 1021.33333333333 783 1049 893 1049 L 1247 1049 L 1247 893 L 866 893 C 809.33333333333 893 767.33333333333 879.33333333333 740 852 C 712 824.66666666667 698 787.66666666667 698 741 C 698 690.33333333333 713.33333333333 650 744 620 C 774.66666666667 590 816 575 868 575 C 909.33333333333 575 963 585.33333333333 1029 606 C 1095 626.66666666667 1151.33333333333 648.66666666667 1198 672 L 1292 623 Z"/>
    <path fill="#000000" stroke="none" transform="matrix(1 0 0 -1 8796 2689)" d="M 74 354 L 891 1128 C 858.33333333333 1196 816 1247 764 1281 C 711.33333333333 1314.33333333333 652.66666666667 1331 588 1331 C 522 1331 459.66666666667 1311 401 1271 C 342.33333333333 1231 296 1177.33333333333 262 1110 L 74 1110 C 117.33333333333 1224.66666666667 185 1316 277 1384 C 368.33333333333 1451.33333333333 472 1485 588 1485 C 703.33333333333 1485 807 1451.33333333333 899 1384 C 991 1316.66666666667 1058.66666666667 1225.33333333333 1102 1110 L 283 336 C 314.33333333333 270 357 219.66666666667 411 185 C 465 150.33333333333 524 133 588 133 C 654 133 716.33333333333 153 775 193 C 833 232.33333333333 879 286 913 354 L 1102 354 C 1058.66666666667 239.33333333333 991.33333333333 148.33333333333 900 81 C 808.66666666667 13.66666666667 704.66666666667 -20 588 -20 C 470.66666666667 -20 366.33333333333 14 275 82 C 183.66666666667 149.33333333333 116.66666666667 240 74 354 Z"/>
    <path fill="#000000" stroke="none" transform="matrix(1 0 0 -1 9972 2689)" d="M 846 0 L 846 477 L 600 252 C 455.33333333333 298 333 377 233 489 C 132.33333333333 600.33333333333 82 726.66666666667 82 868 C 82 1008.66666666667 132 1135 232 1247 C 332 1359 454.66666666667 1438.33333333333 600 1485 L 846 1257 L 846 1462 L 1022 1462 L 1022 0 L 846 0 Z M 600 426 L 846 662 L 846 1073 L 600 1311 C 497.33333333333 1273.66666666667 415.66666666667 1216.66666666667 355 1140 C 294.33333333333 1062.66666666667 264 972 264 868 C 264 765.33333333333 294 675.33333333333 354 598 C 414 520 496 462.66666666667 600 426 Z"/>
    <path fill="#000000" stroke="none" transform="matrix(1 0 0 -1 11168 2689)" d="M 655 1464 L 597 1406 C 494.33333333333 1303.33333333333 416 1195.66666666667 362 1083 C 308 969.66666666667 281 854.33333333333 281 737 C 281 621 306.66666666667 515.66666666667 358 421 C 408.66666666667 326.33333333333 467.66666666667 254.33333333333 535 205 L 938 596 L 938 1464 L 1114 1464 L 1114 2 L 938 2 L 938 371 L 535 -20 C 435.66666666667 31.33333333333 338.33333333333 132.33333333333 243 283 C 147.66666666667 433 100 584.33333333333 100 737 C 100 861.66666666667 129 989 187 1119 C 244.33333333333 1248.33333333333 320.66666666667 1363.33333333333 416 1464 L 655 1464 Z"/>
    <path fill="#000000" stroke="none" transform="matrix(1 0 0 -1 12456 2689)" d="M 526 731 L 993 1200 C 923.66666666667 1287.33333333333 827.66666666667 1331 705 1331 C 590.33333333333 1331 496.66666666667 1292.66666666667 424 1216 C 351.33333333333 1138.66666666667 304.33333333333 1027 283 881 L 100 881 C 122.66666666667 1069 187.33333333333 1216.66666666667 294 1324 C 400.66666666667 1431.33333333333 537.66666666667 1485 705 1485 C 816.33333333333 1485 913.66666666667 1459 997 1407 C 1080.33333333333 1354.33333333333 1144.66666666667 1278 1190 1178 L 743 731 L 1190 287 C 1145.33333333333 187.66666666667 1082 111.66666666667 1000 59 C 917.33333333333 6.33333333333 819 -20 705 -20 C 537.66666666667 -20 400.66666666667 34 294 142 C 186.66666666667 249.33333333333 122 396.66666666667 100 584 L 283 584 C 303.66666666667 438.66666666667 350.33333333333 327.33333333333 423 250 C 495.66666666667 172 589.66666666667 133 705 133 C 827.66666666667 133 923.66666666667 176.66666666667 993 264 L 526 731 Z M 913 793 L 1294 793 L 1294 651 L 913 651 L 913 793 Z"/>
    <path fill="#000000" stroke="none" transform="matrix(1 0 0 -1 13832 2689)" d="M 302 178 C 184 309.33333333333 125 495 125 735 C 125 973 183.66666666667 1157.66666666667 301 1289 C 417.66666666667 1419.66666666667 585 1485 803 1485 C 1015.66666666667 1485 1181 1418.33333333333 1299 1285 C 1416.33333333333 1151.66666666667 1475 967.66666666667 1475 733 C 1475 498.33333333333 1415.66666666667 314.33333333333 1297 181 C 1178.33333333333 47 1013 -20 801 -20 C 585.66666666667 -20 419.33333333333 46 302 178 Z M 1158 289 C 1239.33333333333 389 1280 537 1280 733 C 1280 928.33333333333 1239.66666666667 1075.66666666667 1159 1175 C 1078.33333333333 1273.66666666667 959.66666666667 1323 803 1323 C 644.33333333333 1323 524 1273 442 1173 C 360 1072.33333333333 319 925.66666666667 319 733 C 319 539.66666666667 360 392.33333333333 442 291 C 524 189.66666666667 643.66666666667 139 801 139 C 957.66666666667 139 1076.66666666667 189 1158 289 Z"/>
    <path fill="#000000" stroke="none" transform="matrix(1 0 0 -1 15431 2689)" d="M 1229 913 C 1237 853.66666666667 1241 790.33333333333 1241 723 C 1241 509.66666666667 1189.33333333333 332.66666666667 1086 192 C 982 50.66666666667 849.33333333333 -20 688 -20 C 512 -20 370.33333333333 54.66666666667 263 204 C 155.66666666667 353.33333333333 102 557 102 815 C 166 751 229.33333333333 700.33333333333 292 663 C 354.66666666667 625 408.33333333333 606 453 606 C 536.33333333333 606 592.66666666667 634.66666666667 622 692 C 651.33333333333 748.66666666667 666 836 666 954 C 666 1070 647.33333333333 1162 610 1230 C 572.66666666667 1297.33333333333 521.66666666667 1331 457 1331 C 401 1331 354 1306.33333333333 316 1257 C 277.33333333333 1207 258 1144.33333333333 258 1069 L 100 1069 C 107.33333333333 1189.66666666667 143.33333333333 1289.33333333333 208 1368 C 272 1446 355 1485 457 1485 C 575.66666666667 1485 667.66666666667 1435 733 1335 C 798.33333333333 1235 831 1108 831 954 C 831 796 804.66666666667 673 752 585 C 698.66666666667 497 627.66666666667 453 539 453 C 457 453 378.33333333333 477.33333333333 303 526 C 314.33333333333 420 361 328 443 250 C 524.33333333333 172 606 133 688 133 C 794 133 882.66666666667 189.66666666667 954 303 C 1025.33333333333 415.66666666667 1061 555.66666666667 1061 723 C 1061 779.66666666667 1056.33333333333 843 1047 913 L 1229 913 Z M 1212 1261 C 1236.66666666667 1235.66666666667 1249 1205.66666666667 1249 1171 C 1249 1136.33333333333 1236.66666666667 1106.66666666667 1212 1082 C 1186.66666666667 1056.66666666667 1156.66666666667 1044 1122 1044 C 1087.33333333333 1044 1057.66666666667 1056.66666666667 1033 1082 C 1007.66666666667 1106.66666666667 995 1136.33333333333 995 1171 C 995 1205.66666666667 1007.66666666667 1235.66666666667 1033 1261 C 1057.66666666667 1285.66666666667 1087.33333333333 1298 1122 1298 C 1156.66666666667 1298 1186.66666666667 1285.66666666667 1212 1261 Z"/>
    <path fill="#000000" stroke="none" transform="matrix(1 0 0 -1 17304 2689)" d="M 872 1464 C 970 1361.33333333333 1047.33333333333 1245.66666666667 1104 1117 C 1160 987.66666666667 1188 861 1188 737 C 1188 585.66666666667 1140.66666666667 434.66666666667 1046 284 C 951.33333333333 132.66666666667 854 31.33333333333 754 -20 L 350 371 L 350 2 L 174 2 L 174 1464 L 350 1464 L 350 596 L 754 205 C 832 265 894 341.66666666667 940 435 C 985.33333333333 527.66666666667 1008 628.33333333333 1008 737 C 1008 855.66666666667 979.66666666667 972.66666666667 923 1088 C 866.33333333333 1203.33333333333 789 1309.33333333333 691 1406 L 633 1464 L 872 1464 Z"/>
    <path fill="#000000" stroke="none" transform="matrix(1 0 0 -1 18592 2689)" d="M 344 532 L 344 1204 C 272.66666666667 1152 212 1089.33333333333 162 1016 L 61 1139 C 144.33333333333 1257.66666666667 241.33333333333 1345 352 1401 C 462.66666666667 1457 600 1485 764 1485 C 880.66666666667 1485 984.66666666667 1468.33333333333 1076 1435 C 1167.33333333333 1401 1250.33333333333 1349.33333333333 1325 1280 L 1147 932 L 1147 258 C 1210.33333333333 304 1271 367.66666666667 1329 449 L 1430 326 C 1348 208 1251.33333333333 121 1140 65 C 1028 8.33333333333 890.33333333333 -20 727 -20 C 610.33333333333 -20 506.33333333333 -3.33333333333 415 30 C 323.66666666667 63.33333333333 240.66666666667 114.66666666667 166 184 L 344 532 Z M 520 1294 L 520 492 L 385 225 C 485.66666666667 163.66666666667 599.66666666667 133 727 133 C 819.66666666667 133 901 144.66666666667 971 168 L 971 973 L 1106 1239 C 1005.33333333333 1300.33333333333 891.33333333333 1331 764 1331 C 674.66666666667 1331 593.33333333333 1318.66666666667 520 1294 Z"/>
    <path fill="#000000" stroke="none" transform="matrix(1 0 0 -1 20083 2689)" d="M 174 0 L 174 1462 L 350 1462 L 350 1257 L 596 1485 C 750.66666666667 1433 875.66666666667 1351.33333333333 971 1240 C 1066.33333333333 1128.66666666667 1114 1004.66666666667 1114 868 C 1114 728 1064.33333333333 602.33333333333 965 491 C 865.66666666667 379 742.66666666667 299.33333333333 596 252 L 350 477 L 350 0 L 174 0 Z M 596 1311 L 350 1073 L 350 662 L 596 426 C 697.33333333333 461.33333333333 778.66666666667 518 840 596 C 901.33333333333 673.33333333333 932 764 932 868 C 932 974 901 1065.33333333333 839 1142 C 776.33333333333 1218.66666666667 695.33333333333 1275 596 1311 Z"/>
    <path fill="#000000" stroke="none" transform="matrix(1 0 0 -1 21279 2689)" d="M 367 213 C 389.66666666667 189 401 155 401 111 C 401 67.66666666667 389.66666666667 33.66666666667 367 9 C 344.33333333333 -16.33333333333 312.66666666667 -29 272 -29 C 232 -29 201.33333333333 -16.33333333333 180 9 C 158 33.66666666667 147 67.66666666667 147 111 C 147 155 158 189 180 213 C 201.33333333333 236.33333333333 232 248 272 248 C 312.66666666667 248 344.33333333333 236.33333333333 367 213 Z"/>
    <path fill="#000000" stroke="none" transform="matrix(1 0 0 -1 21828 2689)" d="M 633 0 L 691 58 C 790.33333333333 157.33333333333 868 264 924 378 C 980 492 1008 608.33333333333 1008 727 C 1008 834.33333333333 985.33333333333 935 940 1029 C 894.66666666667 1122.33333333333 832.66666666667 1199.33333333333 754 1260 L 350 868 L 350 0 L 174 0 L 174 1462 L 350 1462 L 350 1094 L 754 1485 C 858.66666666667 1429 957.33333333333 1326 1050 1176 C 1142 1026 1188 876.33333333333 1188 727 C 1188 601 1159 473.66666666667 1101 345 C 1043 216.33333333333 966.66666666667 101.33333333333 872 0 L 633 0 Z"/>
    <path fill="#000000" stroke="none" transform="matrix(1 0 0 -1 23116 2689)" d="M 303 526 C 314.33333333333 420 361 328 443 250 C 524.33333333333 172 606 133 688 133 C 794 133 882.66666666667 189.66666666667 954 303 C 1025.33333333333 415.66666666667 1061 555.66666666667 1061 723 C 1061 831.66666666667 1047 942 1019 1054 C 991 1165.33333333333 954.33333333333 1266.66666666667 909 1358 L 856 1464 L 1055 1464 L 1106 1349 C 1147.33333333333 1258.33333333333 1180.33333333333 1159 1205 1051 C 1229 943 1241 833.66666666667 1241 723 C 1241 509.66666666667 1189.33333333333 332.66666666667 1086 192 C 982 50.66666666667 849.33333333333 -20 688 -20 C 512 -20 370.33333333333 54.66666666667 263 204 C 155.66666666667 353.33333333333 102 557 102 815 C 166 751 229.33333333333 700.33333333333 292 663 C 354.66666666667 625 408.33333333333 606 453 606 C 536.33333333333 606 592.66666666667 634.66666666667 622 692 C 651.33333333333 748.66666666667 666 836 666 954 C 666 1070 647.33333333333 1162 610 1230 C 572.66666666667 1297.33333333333 521.66666666667 1331 457 1331 C 401 1331 354 1306.33333333333 316 1257 C 277.33333333333 1207 258 1144.33333333333 258 1069 L 100 1069 C 107.33333333333 1189.66666666667 143.33333333333 1289.33333333333 208 1368 C 272 1446 355 1485 457 1485 C 575.66666666667 1485 667.66666666667 1435 733 1335 C 798.33333333333 1235 831 1108 831 954 C 831 796 804.66666666667 673 752 585 C 698.66666666667 497 627.66666666667 453 539 453 C 457 453 378.33333333333 477.33333333333 303 526 Z"/>
    <path fill="#000000" stroke="none" transform="matrix(1 0 0 -1 24989 2689)" d="M 246 1464 L 401 1464 L 401 592 L 1020 1464 L 1153 1368 L 352 240 C 385.33333333333 206.66666666667 424.66666666667 180.66666666667 470 162 C 514.66666666667 142.66666666667 561.33333333333 133 610 133 C 667.33333333333 133 725.66666666667 151 785 187 C 844.33333333333 223 898 271.33333333333 946 332 L 961 352 L 1075 242 L 1044 205 C 984.66666666667 133.66666666667 917.66666666667 78.33333333333 843 39 C 767.66666666667 -0.33333333333 690 -20 610 -20 C 526.66666666667 -20 446 -0.66666666667 368 38 C 289.33333333333 76.66666666667 214.33333333333 139.66666666667 143 227 L 246 373 L 246 1464 Z"/>
    <path fill="#000000" stroke="none" transform="matrix(1 0 0 -1 26191 2689)" d="M 1040 311 C 989.33333333333 209.66666666667 925.66666666667 129.33333333333 849 70 C 772.33333333333 10 689.33333333333 -20 600 -20 C 516 -20 439 1 369 43 C 298.33333333333 85 228.66666666667 163.66666666667 160 279 L 272 444 L 272 1235 L 143 1325 C 202.33333333333 1378.33333333333 269.33333333333 1418.33333333333 344 1445 C 418.66666666667 1471.66666666667 498.66666666667 1485 584 1485 C 692 1485 793 1457.66666666667 887 1403 C 980.33333333333 1348.33333333333 1056 1272.66666666667 1114 1176 L 1036 981 L 1029 998 C 1022.33333333333 1020 1011.33333333333 1045.33333333333 996 1074 C 980 1102.66666666667 962 1129 942 1153 L 360 281 C 386.66666666667 237 422.33333333333 201.33333333333 467 174 C 511 146.66666666667 555.33333333333 133 600 133 C 648 133 694 149 738 181 C 782 212.33333333333 818 255.66666666667 846 311 L 1040 311 Z M 817 1262 C 739 1308 661.33333333333 1331 584 1331 C 533.33333333333 1331 481.33333333333 1324.33333333333 428 1311 L 428 676 L 817 1262 Z"/>
    <path fill="#000000" stroke="none" transform="matrix(1 0 0 -1 27354 2689)" d="M 647 1286 C 545 1243.33333333333 458.66666666667 1171.66666666667 388 1071 C 316.66666666667 970.33333333333 281 855.66666666667 281 727 C 281 649 295.66666666667 573 325 499 C 353.66666666667 425 392.33333333333 361 441 307 C 489 253 527 219 555 205 L 475 53 C 431 75 376.66666666667 121.66666666667 312 193 C 247.33333333333 264.33333333333 196 346.33333333333 158 439 C 119.33333333333 531.66666666667 100 627.66666666667 100 727 C 100 906.33333333333 155.66666666667 1063.66666666667 267 1199 C 378.33333333333 1333.66666666667 505 1421.33333333333 647 1462 L 823 1462 L 823 178 C 925.66666666667 220 1012.66666666667 292 1084 394 C 1154.66666666667 496 1190 609.66666666667 1190 735 C 1190 810.33333333333 1176.66666666667 883.66666666667 1150 955 C 1123.33333333333 1026.33333333333 1085.66666666667 1090.66666666667 1037 1148 C 987.66666666667 1204.66666666667 947 1241 915 1257 L 995 1409 C 1042.33333333333 1385.66666666667 1099 1337 1165 1263 C 1230.33333333333 1188.33333333333 1281 1105.66666666667 1317 1015 C 1352.33333333333 923.66666666667 1370 830.33333333333 1370 735 C 1370 618.33333333333 1345.66666666667 509.33333333333 1297 408 C 1247.66666666667 306.66666666667 1179 220 1091 148 C 1002.33333333333 75.33333333333 913 26 823 0 L 647 0 L 647 1286 Z"/>
    <path fill="#000000" stroke="none" transform="matrix(1 0 0 -1 28824 2689)" d="M 1190 629 C 1035.33333333333 629 894.33333333333 653 767 701 C 639 749 538.33333333333 816 465 902 C 391 988 354 1082 354 1184 C 354 1268 382.33333333333 1339.33333333333 439 1398 C 495 1456 575.33333333333 1485 680 1485 C 807.33333333333 1485 923.33333333333 1448.33333333333 1028 1375 C 1132 1301.66666666667 1215 1199.66666666667 1277 1069 C 1339 937.66666666667 1370 797.66666666667 1370 649 C 1370 615 1368 582 1364 550 C 1359.33333333333 518 1352.33333333333 485.66666666667 1343 453 C 1333 420.33333333333 1321.66666666667 389.33333333333 1309 360 C 1296.33333333333 330.66666666667 1281 301 1263 271 C 1245 240.33333333333 1226.66666666667 213.33333333333 1208 190 C 1189.33333333333 166 1166.66666666667 139 1140 109 C 1112.66666666667 79 1087.33333333333 54.66666666667 1064 36 L 997 -20 L 709 266 L 420 -20 L 387 5 C 305.66666666667 62.33333333333 237.66666666667 141.66666666667 183 243 C 127.66666666667 344.33333333333 100 458.66666666667 100 586 C 100 731.33333333333 135.66666666667 870.66666666667 207 1004 L 371 928 C 312.33333333333 818.66666666667 283 704.66666666667 283 586 C 283 431.33333333333 328 305 418 207 L 709 504 L 999 207 C 1057 255.66666666667 1103.33333333333 317.66666666667 1138 393 C 1172.66666666667 468.33333333333 1190 547 1190 629 Z M 1184 776 C 1184 842.66666666667 1160.33333333333 923 1113 1017 C 1065 1110.33333333333 1004.33333333333 1186 931 1244 C 857 1302 780.66666666667 1331 702 1331 C 650 1331 608.66666666667 1316.66666666667 578 1288 C 547.33333333333 1259.33333333333 532 1220.33333333333 532 1171 C 532 1054.33333333333 599.66666666667 959.33333333333 735 886 C 869.66666666667 812.66666666667 1019.33333333333 776 1184 776 Z"/>
    <path fill="#000000" stroke="none" transform="matrix(1 0 0 -1 30294 2689)" d="M 340 1464 L 340 987 L 586 1212 C 736 1162.66666666667 860 1082 958 970 C 1055.33333333333 858 1104 733.33333333333 1104 596 C 1104 458.66666666667 1055.33333333333 334 958 222 C 860 110 736 29.33333333333 586 -20 L 164 360 L 164 1464 L 340 1464 Z M 586 1038 L 340 813 L 340 393 L 598 162 C 694 194.66666666667 772 248.66666666667 832 324 C 892 399.33333333333 922 490 922 596 C 922 701.33333333333 891.33333333333 792.33333333333 830 869 C 768 945 686.66666666667 1001.33333333333 586 1038 Z"/>
    <path fill="#000000" stroke="none" transform="matrix(1 0 0 -1 31480 2689)" d="M 1038 938 C 1028.66666666667 1044 982.66666666667 1136 900 1214 C 817.33333333333 1292 735 1331 653 1331 C 546.33333333333 1331 457.66666666667 1274.66666666667 387 1162 C 316.33333333333 1048.66666666667 281 908.33333333333 281 741 C 281 632.33333333333 295.33333333333 521.66666666667 324 409 C 352 295.66666666667 388.33333333333 194.66666666667 433 106 L 485 0 L 287 0 L 237 116 C 145.66666666667 313.33333333333 100 521.66666666667 100 741 C 100 954.33333333333 151.66666666667 1131.66666666667 255 1273 C 358.33333333333 1414.33333333333 491 1485 653 1485 C 829.66666666667 1485 971.66666666667 1410 1079 1260 C 1185.66666666667 1110 1239 906.33333333333 1239 649 C 1173 715 1109 766.33333333333 1047 803 C 985 839.66666666667 932.33333333333 858 889 858 C 805.66666666667 858 749.33333333333 829.66666666667 720 773 C 690.66666666667 715.66666666667 676 628 676 510 C 676 394.66666666667 694.66666666667 303 732 235 C 769.33333333333 167 820.33333333333 133 885 133 C 939 133 985.66666666667 157.66666666667 1025 207 C 1063.66666666667 256.33333333333 1083 319 1083 395 L 1241 395 C 1235 275.66666666667 1199.66666666667 176.66666666667 1135 98 C 1069.66666666667 19.33333333333 986.33333333333 -20 885 -20 C 765 -20 672.66666666667 30 608 130 C 542.66666666667 230 510 356.66666666667 510 510 C 510 665.33333333333 536.33333333333 788 589 878 C 641 967.33333333333 712.33333333333 1012 803 1012 C 883.66666666667 1012 962 987.33333333333 1038 938 Z"/>
    <path fill="#000000" stroke="none" transform="matrix(1 0 0 -1 33353 2689)" d="M 367 1450 C 389.66666666667 1426 401 1392 401 1348 C 401 1304.66666666667 389.66666666667 1270.66666666667 367 1246 C 344.33333333333 1220.66666666667 312.66666666667 1208 272 1208 C 232 1208 201.33333333333 1220.66666666667 180 1246 C 158 1270.66666666667 147 1304.66666666667 147 1348 C 147 1392 158 1426 180 1450 C 201.33333333333 1473.33333333333 232 1485 272 1485 C 312.66666666667 1485 344.33333333333 1473.33333333333 367 1450 Z"/>
    <path fill="#000000" stroke="none" transform="matrix(1 0 0 -1 33902 2689)" d="M 506 1237 C 423.33333333333 1145.66666666667 365.66666666667 1057 333 971 C 299.66666666667 885 283 796.33333333333 283 705 C 283 623 296.66666666667 542 324 462 C 350.66666666667 381.33333333333 388 308 436 242 C 483.33333333333 176 520.33333333333 133.66666666667 547 115 L 432 -20 C 324 77.33333333333 241.66666666667 188.66666666667 185 314 C 128.33333333333 439.33333333333 100 569.66666666667 100 705 C 100 733 101.33333333333 760.66666666667 104 788 C 106.66666666667 814.66666666667 110 838.66666666667 114 860 C 118 881.33333333333 125 908.66666666667 135 942 C 145 974.66666666667 156.33333333333 1006 169 1036 C 181 1066 195.33333333333 1096.66666666667 212 1128 C 228 1158.66666666667 246 1188.66666666667 266 1218 C 285.33333333333 1246.66666666667 310.33333333333 1280.66666666667 341 1320 C 371.66666666667 1359.33333333333 402.33333333333 1393 433 1421 L 500 1485 L 780 1135 L 1061 1485 L 1128 1421 C 1158.66666666667 1392.33333333333 1188.66666666667 1359.66666666667 1218 1323 C 1246.66666666667 1285.66666666667 1271.33333333333 1252 1292 1222 C 1312.66666666667 1191.33333333333 1331.33333333333 1160.33333333333 1348 1129 C 1364.66666666667 1097 1379.33333333333 1066 1392 1036 C 1404 1006 1415 974.66666666667 1425 942 C 1435 908.66666666667 1442 881.33333333333 1446 860 C 1450 838.66666666667 1453.33333333333 814.66666666667 1456 788 C 1458.66666666667 760.66666666667 1460 733 1460 705 C 1460 569 1431.66666666667 438.33333333333 1375 313 C 1318.33333333333 187.66666666667 1236 76.66666666667 1128 -20 L 1014 115 C 1040.66666666667 133.66666666667 1078 176 1126 242 C 1173.33333333333 308 1210.66666666667 381.33333333333 1238 462 C 1264.66666666667 542 1278 623 1278 705 C 1278 793.66666666667 1262 881.33333333333 1230 968 C 1198 1054 1139.66666666667 1143.66666666667 1055 1237 L 780 889 L 506 1237 Z"/>
    <path fill="#000000" stroke="none" transform="matrix(1 0 0 -1 35463 2689)" d="M 367 213 C 389.66666666667 189 401 155 401 111 C 401 67.66666666667 389.66666666667 33.66666666667 367 9 C 344.33333333333 -16.33333333333 312.66666666667 -29 272 -29 C 232 -29 201.33333333333 -16.33333333333 180 9 C 158 33.66666666667 147 67.66666666667 147 111 C 147 155 158 189 180 213 C 201.33333333333 236.33333333333 232 248 272 248 C 312.66666666667 248 344.33333333333 236.33333333333 367 213 Z M 368 1090 C 390 1066 401 1031.66666666667 401 987 C 401 944.33333333333 389.66666666667 910.66666666667 367 886 C 344.33333333333 860.66666666667 312.66666666667 848 272 848 C 232.66666666667 848 202 860.33333333333 180 885 C 158 909.66666666667 147 943.66666666667 147 987 C 147 1031 157.66666666667 1065.33333333333 179 1090 C 199.66666666667 1114 230.66666666667 1126 272 1126 C 314 1126 346 1114 368 1090 Z"/>
    <path fill="#000000" stroke="none" transform="matrix(1 0 0 -1 36012 2689)" d="M 123 1153 C 175 1257 239.33333333333 1338.33333333333 316 1397 C 392.66666666667 1455.66666666667 475 1485 563 1485 C 655.66666666667 1485 736.66666666667 1461.33333333333 806 1414 C 875.33333333333 1366.66666666667 931 1307.33333333333 973 1236 L 1004 1186 L 891 1020 L 891 229 L 1020 139 L 979 105 C 939.66666666667 73 885 44.33333333333 815 19 C 745 -7 666.66666666667 -20 580 -20 C 472 -20 370.66666666667 7.66666666667 276 63 C 181.33333333333 117.66666666667 105.66666666667 193 49 289 L 127 483 L 134 466 C 154 408 183 356.33333333333 221 311 L 803 1184 C 775 1228.66666666667 739.33333333333 1264.33333333333 696 1291 C 652 1317.66666666667 607.66666666667 1331 563 1331 C 515 1331 469 1315 425 1283 C 380.33333333333 1251 344.33333333333 1207.66666666667 317 1153 L 123 1153 Z M 346 203 C 378.66666666667 181.66666666667 415.66666666667 164.66666666667 457 152 C 497.66666666667 139.33333333333 538.66666666667 133 580 133 C 625.33333333333 133 661.33333333333 136.33333333333 688 143 L 735 154 L 735 788 L 346 203 Z"/>
    <path fill="#000000" stroke="none" transform="matrix(1 0 0 -1 37175 2689)" d="M 969 0 L 813 0 L 813 872 L 195 0 L 61 96 L 862 1225 C 828 1259 788 1285.33333333333 742 1304 C 696 1322 650 1331 604 1331 C 542 1331 480.66666666667 1310.66666666667 420 1270 C 358.66666666667 1229.33333333333 308.33333333333 1183.33333333333 269 1132 L 254 1112 L 139 1223 C 232.33333333333 1333 316.66666666667 1404.33333333333 392 1437 C 467.33333333333 1469 538 1485 604 1485 C 688 1485 769 1465.66666666667 847 1427 C 925 1388.33333333333 999.66666666667 1325 1071 1237 L 969 1092 L 969 0 Z"/>
    <path fill="#000000" stroke="none" transform="matrix(1 0 0 -1 38324 2689)" d="M 1049 1106 L 1049 584 L 1127 503 L 1296 330 C 1225.33333333333 221.33333333333 1135 136 1025 74 C 914.33333333333 11.33333333333 796 -20 670 -20 C 544 -20 426 11 316 73 C 205.33333333333 135 114.33333333333 220.66666666667 43 330 C 192.33333333333 482 275 566.66666666667 291 584 L 291 1106 C 291 1233.33333333333 323 1329.66666666667 387 1395 C 451 1460.33333333333 545.33333333333 1493 670 1493 C 792.66666666667 1493 886.66666666667 1461 952 1397 C 1016.66666666667 1332.33333333333 1049 1235.33333333333 1049 1106 Z M 872 567 L 872 1098 C 872 1190.66666666667 854.33333333333 1254 819 1288 C 783.66666666667 1322 734 1339 670 1339 C 604.66666666667 1339 554.66666666667 1322 520 1288 C 484.66666666667 1254 467 1190.66666666667 467 1098 L 467 567 C 535.66666666667 521 603.33333333333 498 670 498 C 702.66666666667 498 737.66666666667 504.33333333333 775 517 C 811.66666666667 529.66666666667 844 546.33333333333 872 567 Z M 1098 313 L 969 442 C 929 410.66666666667 882.33333333333 386 829 368 C 775 349.33333333333 722 340 670 340 C 618 340 564.66666666667 349.66666666667 510 369 C 454.66666666667 387.66666666667 408.33333333333 412 371 442 L 242 313 C 277.33333333333 272.33333333333 335.66666666667 229.66666666667 417 185 C 497.66666666667 139.66666666667 582 117 670 117 C 752.66666666667 117 834.33333333333 138 915 180 C 995.66666666667 222 1056.66666666667 266.33333333333 1098 313 Z"/>
</svg>
