<svg xmlns="http://www.w3.org/2000/svg" viewBox="0 0 40384 3789" transform="translate(0, 3789) scale(1, -1)">
<path d="M100,0L149,492Q159,597 176,652Q192,707 226,750Q259,793 377,896Q287,988 250,1065Q213,1141 213,1223Q213,1294 249,1355Q284,1415 351,1450Q417,1484 506,1484Q648,1484 728,1416Q808,1348 808,1233Q808,1146 772,1069Q735,992 641,897L693,857Q783,787 824,716Q865,644 865,550Q865,517 856,443Q846,368 846,325Q846,224 876,181Q906,138 965,138Q1055,138 1105,211Q1154,283 1154,424Q1154,506 1139,577L1314,620Q1334,540 1334,440Q1334,221 1234,100Q1134,-22 954,-22Q816,-22 736,58Q656,138 656,299Q656,353 665,405Q673,456 673,513Q673,630 585,708L509,776Q408,683 375,625Q342,567 333,483L285,0L100,0ZM508,1009Q564,1060 584,1088Q603,1116 613,1148Q623,1179 623,1218Q623,1269 589,1297Q555,1324 507,1324Q461,1324 429,1294Q397,1263 397,1221Q397,1161 427,1111Q457,1060 508,1009Z"  transform="translate(0, 1100)"/>
<path d="M1394,838Q1394,433 1204,206Q1013,-22 673,-22Q404,-22 257,149Q110,319 110,622Q110,883 197,1079Q283,1275 446,1380Q609,1485 834,1485Q1099,1485 1247,1312Q1394,1138 1394,838ZM1200,835Q1200,1070 1101,1198Q1002,1325 817,1325Q577,1325 441,1144Q304,962 304,631Q304,394 405,266Q505,138 690,138Q932,138 1066,324Q1200,509 1200,835Z"  transform="translate(1414, 1100)"/>
<path d="M450,0L534,813Q460,777 372,777Q236,777 158,845Q80,913 80,1051L83,1105L120,1462L304,1462L273,1152L269,1085Q269,1009 302,973Q334,937 401,937Q481,937 519,981Q556,1024 565,1105L604,1462L788,1462L729,904Q821,950 934,950Q1089,950 1162,873Q1235,795 1235,619Q1235,555 1222,435Q1209,315 1209,249Q1209,195 1241,167Q1273,138 1330,138Q1426,138 1473,196Q1519,253 1519,389Q1519,499 1504,577L1679,620Q1699,540 1699,417Q1699,203 1603,91Q1507,-22 1324,-22Q1167,-22 1093,47Q1019,115 1019,248Q1019,312 1034,421Q1049,529 1049,599Q1049,705 1014,748Q979,790 892,790Q778,790 710,722L634,0L450,0Z"  transform="translate(2938, 1100)"/>
<path d="M60,1401Q141,1447 214,1466Q287,1484 368,1484Q512,1484 594,1411Q676,1338 676,1214Q676,1085 598,950Q812,899 924,780Q1035,660 1035,482Q1035,259 895,119Q754,-22 525,-22Q338,-22 227,78Q115,177 115,335Q115,449 160,563Q204,677 298,808Q402,954 442,1037Q481,1120 481,1198Q481,1257 442,1291Q403,1324 338,1324Q224,1324 123,1264L60,1401ZM497,805Q411,687 379,624Q346,561 328,495Q310,429 310,353Q310,255 377,197Q444,138 555,138Q639,138 704,183Q769,227 805,304Q841,380 841,470Q841,596 755,685Q668,773 497,805Z"  transform="translate(4717, 1100)"/>
<path d="M30,1476Q62,1484 121,1484Q168,1484 257,1464Q345,1443 385,1443Q480,1443 532,1462L663,1462L550,415Q544,357 544,305Q547,138 662,138Q757,138 801,225Q844,311 844,479Q844,597 806,658L817,810Q927,800 1028,800Q1130,800 1236,810L1216,648Q1134,640 1015,640Q1029,583 1029,453Q1029,316 985,206Q940,96 859,37Q777,-22 667,-22Q359,-22 359,299Q359,349 365,406L462,1290Q426,1280 386,1280Q338,1280 242,1302Q146,1324 122,1324L55,1321L30,1476Z"  transform="translate(5872, 1100)"/>
<path d="M318,1400Q417,1484 601,1484Q761,1484 840,1403Q919,1322 919,1153Q919,1134 914,1078Q908,1021 799,0L615,0L667,494Q618,590 482,590Q371,590 300,507Q229,423 215,283L184,0L0,0L30,292Q76,750 473,750Q600,750 687,692L721,1013L730,1144Q730,1241 693,1283Q656,1324 565,1324Q528,1324 488,1310Q447,1295 418,1267L318,1400Z"  transform="translate(7148, 1100)"/>
<path d=""  transform="translate(8177, 1100)"/>
<path d="M1039,640L1026,515Q969,-22 472,-22Q344,-22 255,26Q165,74 118,161Q70,248 70,360Q70,435 96,492Q122,548 165,593Q207,638 262,675Q316,712 373,749Q429,786 484,826Q538,866 581,917Q623,967 649,1031Q675,1095 675,1180Q675,1244 637,1284Q598,1324 514,1324Q337,1324 311,1142L123,1173Q152,1336 249,1410Q345,1484 520,1484Q686,1484 778,1403Q869,1322 869,1183Q869,1070 829,976Q789,882 712,805Q635,728 456,613Q356,549 310,492Q264,435 264,373Q264,260 326,199Q387,138 507,138Q647,138 736,246Q825,353 844,542L854,640L1039,640Z"  transform="translate(8777, 1100)"/>
<path d="M1075,61Q994,15 921,-3Q848,-22 767,-22Q623,-22 541,51Q459,124 459,248Q459,379 537,508Q329,556 215,675Q100,794 100,977Q100,1203 241,1344Q381,1484 610,1484Q732,1484 825,1439Q918,1393 969,1311Q1020,1229 1020,1124Q1020,1010 975,896Q930,782 837,653Q732,506 693,423Q654,339 654,264Q654,205 693,172Q732,138 797,138Q911,138 1012,198L1075,61ZM637,654Q719,763 753,829Q787,894 806,962Q825,1030 825,1106Q825,1205 758,1265Q691,1324 580,1324Q496,1324 431,1279Q365,1233 330,1156Q294,1078 294,989Q294,862 382,774Q469,686 637,654Z"  transform="translate(9896, 1100)"/>
<path d="M1525,620Q1545,508 1545,417Q1545,203 1449,91Q1353,-22 1170,-22Q1013,-22 939,47Q865,115 865,248Q865,312 880,421Q895,529 895,599Q895,705 860,748Q825,790 738,790Q624,790 557,723L481,0L297,0L412,1106L412,1133Q412,1234 374,1279Q335,1324 247,1324Q210,1324 170,1310Q129,1295 100,1267L0,1400Q99,1484 283,1484Q443,1484 522,1403Q601,1322 601,1153L599,1115L576,904Q668,950 780,950Q935,950 1008,873Q1081,795 1081,619Q1081,555 1068,435Q1055,315 1055,249Q1055,195 1087,167Q1119,138 1176,138Q1272,138 1319,196Q1365,253 1365,389Q1365,447 1350,577L1525,620Z"  transform="translate(11031, 1100)"/>
<path d="M837,1198Q998,1053 1078,900Q1157,746 1157,567Q1157,393 1085,259Q1012,125 878,53Q743,-20 566,-20Q338,-20 209,94Q80,208 80,408Q80,616 192,809Q304,1002 549,1198Q458,1266 338,1343L435,1490Q586,1398 705,1308Q829,1389 1014,1490L1081,1343Q946,1269 837,1198ZM682,1092Q467,931 371,766Q274,601 274,422Q274,286 354,213Q433,140 582,140Q766,140 865,251Q963,362 963,567Q963,719 895,843Q827,967 682,1092Z"  transform="translate(12656, 1100)"/>
<path d="M104,620L193,1462L377,1462L325,974Q356,993 409,1005Q461,1017 509,1017Q704,1017 816,893Q927,768 927,548Q927,274 805,126Q683,-22 458,-22Q274,-22 173,60Q71,142 40,314L221,325Q239,229 296,184Q352,138 456,138Q588,138 661,247Q733,355 733,541Q733,693 672,775Q610,857 497,857Q443,857 386,835Q329,812 304,778L288,620L104,620Z"  transform="translate(13953, 1100)"/>
<path d="M913,1053Q913,857 864,658Q815,458 730,310Q644,162 524,71Q404,-21 255,-46L226,107Q378,146 489,269Q599,391 659,596Q575,559 473,559Q293,559 187,676Q80,792 80,991Q80,1221 196,1353Q312,1484 518,1484Q700,1484 807,1370Q913,1256 913,1053ZM719,1052Q719,1183 664,1253Q609,1323 508,1323Q274,1323 274,990Q274,851 326,785Q378,719 483,719Q601,719 660,805Q719,890 719,1052Z"  transform="translate(15000, 1100)"/>
<path d=""  transform="translate(16033, 1100)"/>
<path d="M805,1219Q691,1324 563,1324Q514,1324 472,1303Q429,1281 404,1242Q378,1202 378,1144Q378,1086 404,1038Q429,989 473,945Q517,900 659,798Q774,715 828,657Q882,598 911,534Q939,470 939,394Q939,198 816,88Q693,-22 474,-22Q186,-22 0,193L126,320Q211,223 296,181Q381,138 472,138Q604,138 675,198Q745,258 745,378Q741,437 715,484Q689,531 649,571Q609,611 559,647Q509,683 458,720Q406,756 357,796Q307,836 269,885Q231,933 208,993Q184,1052 184,1128Q184,1293 285,1389Q386,1484 555,1484Q771,1484 902,1359L805,1219Z"  transform="translate(16633, 1100)"/>
<path d="M918,1208Q802,1324 657,1324Q541,1324 473,1242Q404,1159 389,997L378,898Q474,950 594,950Q749,950 822,873Q895,795 895,619Q895,554 882,434Q869,313 869,246Q869,192 901,164Q933,135 990,135Q1085,135 1132,193Q1179,251 1179,389Q1179,499 1164,577L1339,620Q1359,508 1359,417Q1359,203 1264,89Q1168,-25 984,-25Q827,-25 753,44Q679,112 679,245Q679,309 694,419Q709,529 709,599Q709,705 674,748Q639,790 552,790Q428,790 359,710L285,0L100,0L205,1006Q229,1239 348,1362Q467,1484 677,1484Q780,1484 867,1450Q953,1415 1046,1327L918,1208Z"  transform="translate(17672, 1100)"/>
<path d="M140,0L293,1462L477,1462L324,0L140,0Z"  transform="translate(19111, 1100)"/>
<path d="M1494,620Q1514,527 1514,437Q1514,217 1417,96Q1319,-25 1139,-25Q836,-25 836,296Q836,312 841,367Q845,422 948,1240L940,1240L684,860L584,860L407,1242L399,1242Q396,1077 377,887L284,0L100,0L253,1462L478,1462L657,1084L911,1462L1141,1462L1042,521Q1026,370 1026,322Q1026,221 1056,178Q1086,135 1145,135Q1235,135 1285,208Q1334,280 1334,421Q1334,483 1319,577L1494,620Z"  transform="translate(19728, 1100)"/>
<path d="M512,-22Q316,-22 208,93Q100,207 100,415Q100,544 161,660Q221,776 352,898Q265,988 224,1066Q183,1144 183,1223Q183,1342 267,1413Q351,1484 490,1484Q622,1484 700,1417Q778,1350 778,1233Q778,1147 743,1071Q707,994 612,898Q664,853 710,821L582,690L482,778Q378,682 335,600Q291,517 291,428Q291,276 352,207Q413,138 547,138Q683,138 768,249Q853,359 876,561L884,640L1069,640L1059,542Q1030,262 892,120Q754,-22 512,-22ZM481,1012Q546,1074 570,1123Q593,1172 593,1230Q593,1276 563,1300Q532,1324 484,1324Q435,1324 401,1295Q367,1265 367,1221Q367,1126 481,1012Z"  transform="translate(21322, 1100)"/>
<path d="M1944,620Q1964,527 1964,437Q1964,216 1867,97Q1769,-22 1589,-22Q1280,-22 1280,286Q1280,338 1295,448Q1309,557 1309,613Q1309,678 1278,714Q1246,750 1184,750Q1027,750 1010,582L948,0L764,0L820,535L824,602Q824,678 792,714Q759,750 692,750Q612,750 575,707Q537,663 528,582L464,0L280,0Q392,1121 392,1134Q392,1236 353,1280Q314,1324 227,1324Q190,1324 150,1310Q109,1295 80,1267L-20,1400Q79,1484 263,1484Q426,1484 504,1403Q581,1321 581,1154Q581,1130 554,874Q628,910 721,910Q871,910 952,814Q1054,910 1203,910Q1347,910 1425,834Q1503,758 1503,618Q1503,585 1488,463Q1472,340 1472,300Q1472,138 1595,138Q1685,138 1735,210Q1784,281 1784,421Q1784,491 1769,577L1944,620Z"  transform="translate(22471, 1100)"/>
<path d=""  transform="translate(24515, 1100)"/>
<path d="M0,1442Q84,1484 196,1484Q265,1484 363,1463Q460,1441 540,1441Q610,1441 715,1462L837,1462L684,0L500,0L637,1295Q563,1281 520,1281Q439,1281 340,1303Q241,1324 196,1324Q118,1324 62,1303L0,1442Z"  transform="translate(25115, 1100)"/>
<path d="M1121,620Q1141,527 1141,437Q1141,216 1044,97Q946,-22 766,-22Q623,-22 543,62Q463,146 463,299Q463,335 474,429L514,809Q444,777 352,777Q216,777 138,845Q60,913 60,1051L63,1105L100,1462L284,1462L253,1152L249,1085Q249,1009 282,973Q314,937 381,937Q461,937 499,981Q536,1024 545,1105L584,1462L768,1462L669,521Q653,370 653,325Q653,224 683,181Q713,138 772,138Q862,138 912,210Q961,281 961,421Q961,502 946,577L1121,620Z"  transform="translate(26052, 1100)"/>
<path d="M525,0L561,353Q561,412 522,447Q482,482 400,482Q329,482 298,439Q267,395 258,314L224,0L40,0L74,336Q106,642 393,642Q505,642 587,600L609,813Q535,777 447,777Q311,777 233,845Q155,913 155,1051L158,1105L195,1462L379,1462L348,1152L344,1085Q344,1009 377,973Q409,937 476,937Q556,937 594,981Q631,1024 640,1105L679,1462L863,1462L709,0L525,0Z"  transform="translate(27273, 1100)"/>
<path d="M809,619Q872,624 952,624L928,469Q875,469 775,462Q707,227 575,103Q443,-22 268,-22Q140,-22 70,37Q0,96 0,211Q0,306 73,384Q145,461 286,516Q426,570 615,598Q628,678 644,813Q570,777 482,777Q346,777 268,845Q190,913 190,1051L193,1105L230,1462L414,1462L383,1152L379,1085Q379,1009 412,973Q444,937 511,937Q591,937 629,981Q666,1024 675,1105L714,1462L898,1462L822,716L809,619ZM581,437Q392,405 288,348Q184,290 184,214Q184,184 208,161Q232,138 273,138Q496,138 581,437Z"  transform="translate(28216, 1100)"/>
<path d="M738,620Q758,508 758,437Q758,216 661,97Q563,-22 383,-22Q244,-22 162,64Q80,149 80,296Q80,339 86,387L202,1462L386,1462L286,521Q270,370 270,322Q270,226 299,182Q327,138 389,138Q479,138 529,210Q578,281 578,421Q578,491 563,577L738,620Z"  transform="translate(29248, 1100)"/>
<path d="M999,1462L900,516Q886,393 886,320Q886,223 913,181Q940,138 1002,138Q1092,138 1142,210Q1191,281 1191,421Q1191,483 1176,577L1351,620Q1371,508 1371,437Q1371,216 1274,97Q1176,-22 996,-22Q837,-22 759,85Q652,-22 433,-22Q263,-22 172,65Q80,152 80,324Q80,371 87,448Q93,524 192,1462L377,1462L278,514Q270,438 270,377Q270,244 314,191Q357,138 453,138Q535,138 588,176Q640,213 670,287Q700,361 717,516L816,1462L999,1462Z"  transform="translate(30086, 1100)"/>
<path d=""  transform="translate(31537, 1100)"/>
<path d="M923,847L834,0L650,0L701,483Q619,445 518,445Q323,445 212,570Q100,694 100,914Q100,1188 222,1336Q344,1484 569,1484Q753,1484 855,1402Q956,1320 987,1148L806,1137Q788,1232 732,1278Q675,1324 571,1324Q439,1324 367,1216Q294,1107 294,921Q294,769 356,687Q417,605 530,605Q582,605 639,627Q695,649 722,683L739,847L923,847Z"  transform="translate(32137, 1100)"/>
<path d="M1411,620Q1431,540 1431,440Q1431,220 1334,99Q1236,-22 1056,-22Q913,-22 833,58Q753,137 753,299Q753,352 770,496L821,948Q829,1009 829,1085Q829,1215 783,1270Q737,1325 638,1325Q557,1325 507,1289Q456,1252 428,1180Q399,1107 381,939Q363,770 283,0L100,0L199,946Q218,1126 249,1220Q279,1313 333,1370Q386,1427 469,1456Q551,1484 666,1484Q793,1484 870,1449Q947,1413 983,1341Q1019,1268 1019,1138Q1019,1059 1006,942Q975,667 959,526Q943,385 943,325Q943,224 973,181Q1003,138 1062,138Q1152,138 1202,211Q1251,283 1251,424Q1251,506 1236,577L1411,620Z"  transform="translate(33234, 1100)"/>
<path d="M922,1462Q953,1381 975,1241Q996,1100 996,979Q996,840 923,762Q850,684 712,684Q550,684 442,779Q291,656 291,448Q291,299 361,219Q431,138 555,138Q645,138 721,187Q797,236 849,337Q901,437 912,550L1107,550Q1061,262 924,120Q787,-22 532,-22Q402,-22 304,38Q206,98 153,201Q100,304 100,425Q100,572 164,696Q228,820 342,904Q261,1048 240,1252L217,1462L402,1462L420,1290Q434,1162 473,1056Q512,950 568,897Q623,844 688,844Q747,844 778,878Q809,911 809,973Q809,1084 790,1223Q770,1362 738,1462L922,1462Z"  transform="translate(34745, 1100)"/>
<path d="M1288,1462L1211,710Q1290,717 1398,720L1374,565L1193,555Q1165,378 1074,248Q983,117 834,47Q684,-23 499,-23Q309,-23 213,44Q117,110 117,254Q117,408 352,521Q587,633 1020,690L1034,813Q960,777 872,777Q722,777 641,873Q539,777 390,777Q250,777 175,852Q100,926 100,1069L103,1137L136,1462L320,1462L290,1164L282,1074Q282,1008 315,973Q348,937 409,937Q566,937 583,1105L620,1462L804,1462L773,1152L769,1085Q769,1009 802,973Q834,937 901,937Q981,937 1019,981Q1056,1024 1065,1105L1104,1462L1288,1462ZM502,137Q701,137 828,240Q954,342 997,534Q665,488 483,415Q301,341 301,252Q301,187 350,162Q399,137 502,137Z"  transform="translate(35932, 1100)"/>
<path d="M1331,620Q1351,540 1351,437Q1351,217 1254,96Q1156,-25 976,-25Q673,-25 673,296Q673,310 674,322Q674,334 745,1006L595,1006Q615,958 615,905Q615,770 523,680Q430,589 297,589Q185,589 113,663Q40,737 40,844Q40,923 84,998Q128,1072 202,1116Q275,1160 357,1160L761,1160L793,1462L977,1462L879,521Q863,370 863,322Q863,221 893,178Q923,135 982,135Q1072,135 1122,208Q1171,280 1171,421Q1171,499 1156,577L1331,620ZM458,889Q458,937 425,971Q391,1004 341,1004Q284,1004 241,961Q197,918 197,861Q197,809 232,777Q266,745 314,745Q370,745 414,787Q458,829 458,889Z"  transform="translate(37360, 1100)"/>
<path d="M1493,620Q1513,508 1513,437Q1513,216 1416,97Q1318,-22 1138,-22Q996,-22 916,58Q835,138 835,299Q835,326 839,370Q843,414 881,747Q843,728 656,646L630,369Q592,-22 263,-22Q145,-22 73,56Q0,133 0,258Q0,356 51,437Q102,517 195,586Q288,655 482,743L516,1105L516,1133Q516,1234 478,1279Q439,1324 351,1324Q314,1324 274,1310Q233,1295 204,1267L104,1400Q203,1484 387,1484Q547,1484 626,1403Q705,1322 705,1153L703,1115L673,824Q815,884 903,935L920,1095Q941,1297 1023,1391Q1105,1484 1263,1484Q1362,1484 1422,1428Q1482,1371 1482,1283Q1482,1165 1390,1062Q1298,959 1078,847Q1052,614 1039,495Q1025,375 1025,325Q1025,224 1055,181Q1085,138 1144,138Q1234,138 1284,210Q1333,281 1333,421Q1333,447 1318,577L1493,620ZM465,559Q308,480 247,414Q185,347 185,272Q185,206 216,172Q246,138 291,138Q350,138 394,200Q437,261 448,374L465,559ZM1096,1032Q1201,1092 1249,1146Q1297,1199 1297,1253Q1297,1281 1279,1303Q1261,1324 1229,1324Q1170,1324 1142,1264Q1113,1203 1102,1090L1096,1032Z"  transform="translate(38791, 1100)"/>
</svg>
