<svg xmlns="http://www.w3.org/2000/svg" viewBox="0 0 24310 2000" transform="translate(0, 2000) scale(1, -1)">
<path d="M202,152L202,105Q202,34 198,29Q197,28 197,27Q189,12 176,5Q164,0 154,0Q146,0 138,3Q129,6 121,14Q111,26 107,40Q106,43 106,370Q106,697 107,700Q111,713 122,725Q132,737 146,739Q159,741 167,738L176,735Q197,724 202,696L202,587L203,474L351,601Q496,726 503,730Q522,745 547,737Q566,730 574,712Q589,680 563,657L228,370Q266,338 307,303Q348,267 394,228Q562,84 563,83Q578,68 578,48Q578,29 565,14Q551,-1 531,-1Q517,-1 503,9Q502,11 482,27Q449,55 416,83Q383,110 351,139L203,265L202,152Z"  transform="translate(0, 700)"/>
<path d="M390,197L390,132Q390,34 386,29Q386,28 385,27Q377,12 364,5Q352,0 342,0Q334,0 326,3Q319,5 309,14Q299,26 298,31Q295,39 295,199L295,353L106,595L106,643Q106,699 110,708Q112,718 124,728Q136,738 146,739Q159,741 167,738L176,735Q189,728 197,713Q202,701 202,664L203,627L273,538Q308,493 323,475Q337,456 341,451L343,449L352,460Q361,471 380,495Q398,519 414,539L483,628L483,662Q483,700 486,709Q490,719 498,725Q504,732 515,737Q534,743 552,735Q567,728 574,713Q579,701 579,648L579,595L391,354L390,197Z"  transform="translate(715, 700)"/>
<path d="M270,150Q196,30 194,21Q184,8 171,3Q151,-4 132,6Q113,16 108,37Q104,48 110,67Q110,68 121,88Q127,98 136,112Q144,126 155,146Q166,165 177,184Q188,202 199,220L287,370Q267,404 245,441Q223,478 199,520Q155,593 134,631Q112,669 110,673Q102,691 111,712Q120,735 147,739Q162,742 179,733Q185,730 194,718Q196,714 215,682Q233,650 270,589L342,465L344,467L490,716Q497,728 508,734Q519,740 531,740Q547,740 560,730Q573,719 577,703Q582,688 574,673Q574,672 486,520L398,370Q418,336 440,299Q462,262 486,220Q574,67 574,67Q582,53 577,36Q574,22 563,13Q550,0 531,0Q519,0 508,6Q497,12 490,24L344,273L342,275L270,150Z"  transform="translate(1430, 700)"/>
<path d="M142,2Q107,13 107,48Q107,83 142,94L146,95L220,96L295,96L295,644L146,644L142,646Q118,654 111,672Q101,691 111,712Q120,735 147,739L152,739Q169,739 221,740Q273,740 342,740Q536,740 539,739Q556,736 567,723Q578,709 578,692Q578,675 567,662Q556,648 539,645Q537,644 463,644L390,644L390,96L463,96Q539,96 548,93Q566,85 574,68Q584,46 573,25Q561,4 538,1Q536,0 340,0L146,0L142,2Z"  transform="translate(2145, 700)"/>
<path d="M107,0L107,61L116,77Q447,642 447,644L146,644L142,646Q118,654 111,672Q101,691 111,712Q120,735 147,739L153,739Q162,739 182,739Q202,739 230,740Q257,740 292,740Q326,740 364,740L579,740L579,679L238,96L386,96Q537,96 539,95Q556,92 567,79Q578,65 578,48Q578,31 567,18Q556,4 539,1Q536,0 321,0L107,0Z"  transform="translate(2860, 700)"/>
<path d="M106,115L106,403Q106,699 110,708Q112,718 124,728Q136,738 146,739Q159,741 167,738Q172,737 185,729Q197,717 201,704Q202,701 202,421L202,141L229,96L268,96L295,141L295,300L295,366Q295,464 299,469Q299,470 300,471Q312,498 342,498Q352,498 364,493Q377,486 383,476Q388,465 390,451L390,300L391,141L417,96L456,96L483,142L483,419Q483,699 486,709Q490,719 498,725Q504,732 515,737Q534,743 552,735Q571,726 578,704Q579,701 579,408L579,115L553,71Q525,24 524,22Q516,11 508,7Q504,3 491,1Q489,0 434,0Q383,0 377,2Q358,8 347,26L343,33Q342,31 341,30Q340,28 338,26Q328,8 308,2Q302,0 252,0Q197,0 195,1Q185,3 177,7Q170,11 161,23L106,115Z"  transform="translate(3575, 700)"/>
<path d=""  transform="translate(4290, 700)"/>
<path d="M109,32Q107,40 107,209L107,392L107,740L354,740Q458,738 467,736Q468,735 470,735Q513,725 543,691Q573,657 578,612Q579,607 579,582Q579,557 579,511Q579,465 579,440Q579,415 578,410Q572,359 537,325Q502,290 453,283Q448,282 416,282Q384,282 323,282L202,282L202,161L202,110Q202,34 198,29Q197,28 197,27Q189,12 176,5Q164,0 154,0Q146,0 138,3Q129,6 121,14Q111,26 110,31L109,32ZM202,378L323,378Q372,378 400,378Q427,378 434,379Q448,379 456,383Q472,389 478,405Q480,409 481,414Q482,419 483,424L483,511L483,604L481,609Q475,636 447,643Q445,644 323,644L202,644L202,378Z"  transform="translate(5005, 700)"/>
<path d="M298,0L33,0L33,666L298,666L298,0ZM265,33L265,633L66,633L66,33L265,33Z"  transform="translate(5720, 700)"/>
<path d="M202,152L202,105Q202,34 198,29Q197,28 197,27Q189,12 176,5Q164,0 154,0Q146,0 138,3Q129,6 121,14Q111,26 107,40Q106,43 106,370Q106,697 107,700Q111,713 122,725Q132,737 146,739Q159,741 167,738L176,735Q197,724 202,696L202,587L203,474L351,601Q496,726 503,730Q522,745 547,737Q566,730 574,712Q589,680 563,657L228,370Q266,338 307,303Q348,267 394,228Q562,84 563,83Q578,68 578,48Q578,29 565,14Q551,-1 531,-1Q517,-1 503,9Q502,11 482,27Q449,55 416,83Q383,110 351,139L203,265L202,152Z"  transform="translate(6435, 700)"/>
<path d="M449,61Q431,32 405,16Q378,0 343,0Q311,0 283,16Q254,31 237,59Q234,63 179,173Q152,228 138,257Q124,285 122,289Q117,300 114,314Q110,328 108,345Q107,370 108,395Q112,427 122,451Q124,456 179,566Q233,676 237,681Q254,705 277,720Q299,735 328,739Q329,739 334,740Q339,740 342,740Q375,740 404,724Q433,707 449,679L458,662Q466,646 480,619Q494,591 507,564Q533,513 547,484Q561,455 565,447Q591,377 570,309Q565,292 507,175L449,61ZM450,276Q470,313 477,331Q485,355 483,379Q482,391 477,409Q470,427 450,464L396,572Q366,632 363,635Q357,642 349,643Q333,646 322,635Q317,630 266,526L211,414Q209,409 207,403Q205,397 204,389Q199,369 204,351Q205,343 207,337Q209,331 211,326Q212,323 220,307Q227,291 239,268Q250,244 264,217Q277,190 289,167Q301,143 310,126Q319,108 322,104Q327,99 336,97Q349,93 363,104Q367,110 396,168L450,276Z"  transform="translate(7150, 700)"/>
<path d="M254,123Q263,103 285,97L289,96L342,96Q396,96 408,101Q428,110 434,132Q434,147 434,196Q434,244 435,307Q435,370 436,440Q436,510 437,568Q437,626 437,665Q437,703 437,703Q440,716 451,727Q462,736 475,739Q487,741 495,738Q500,737 514,729Q524,719 530,704L530,127Q527,102 517,81Q506,59 489,43Q472,26 450,15Q428,4 403,1Q398,0 383,0Q368,0 342,0Q287,0 282,1Q257,4 235,15Q213,26 196,43Q179,59 168,81Q157,103 155,128Q154,132 154,154Q154,175 153,215Q153,295 154,298Q155,300 157,306Q158,312 160,314Q165,322 177,331Q190,336 196,337Q213,339 227,330Q240,323 246,307Q249,298 249,216L249,180Q249,155 250,142Q251,128 253,124L254,123Z"  transform="translate(7865, 700)"/>
<path d="M203,274Q203,135 204,132Q210,110 230,101Q231,101 232,100Q239,96 343,96Q385,96 408,96Q431,96 437,97Q449,97 456,101Q472,107 478,123Q483,135 483,188L483,242L434,242Q381,242 373,245Q365,247 356,256Q347,265 345,274Q339,287 344,305Q347,313 356,323Q366,333 373,334Q382,337 482,337L579,337L579,236Q579,185 579,158Q579,131 578,126Q577,107 564,80Q530,12 453,1Q448,0 421,0Q394,0 343,0Q235,0 220,3Q173,15 143,47Q113,78 108,128Q107,133 107,169Q106,204 106,273Q106,342 107,378Q107,414 108,419Q112,466 139,507Q161,536 179,560Q197,584 211,602Q285,694 286,695Q321,731 371,739Q375,740 397,740Q418,740 457,740Q537,740 539,739Q556,736 567,723Q578,709 578,692Q578,659 549,648Q541,644 460,644L386,644Q364,641 352,626Q348,621 332,601Q316,580 288,544Q280,534 272,524Q264,513 256,502Q238,479 229,468Q220,456 219,455Q209,440 204,419L203,413L203,274Z"  transform="translate(8580, 700)"/>
<path d=""  transform="translate(9295, 700)"/>
<path d="M202,52Q202,39 197,27Q193,14 176,5Q164,0 154,0Q146,0 138,3Q129,6 121,14Q111,26 107,40Q106,43 106,370Q106,697 107,700Q111,713 122,725Q132,737 146,739Q159,741 167,738L176,735Q197,724 202,696L202,587L203,474L222,490Q230,498 239,505Q248,511 256,518Q267,525 278,529Q289,533 300,535Q317,539 366,539Q414,539 431,535Q452,532 475,519Q498,505 518,486Q538,467 554,445Q569,423 574,402Q579,382 579,272Q579,217 579,188Q579,159 578,154Q572,109 540,74Q537,71 492,32Q458,5 418,1Q413,0 367,0Q345,0 332,0Q319,0 315,1Q283,5 261,19Q239,33 216,53L203,64L202,52ZM304,104Q308,101 318,97Q321,96 366,96L410,96L415,97Q421,100 431,107Q441,114 452,123Q462,132 471,142Q479,151 481,157L483,163L483,269Q483,376 482,378Q480,387 474,394Q473,396 452,414Q442,423 437,428Q431,432 430,433Q422,439 414,441Q412,442 401,442Q389,442 368,443Q355,443 343,443Q330,442 326,442L323,442Q312,440 304,434Q303,433 288,421Q273,409 257,395Q240,380 226,368Q212,355 212,355Q206,348 204,339L203,335L203,270Q203,203 204,201Q205,198 207,194Q208,189 212,183Q232,163 254,145Q276,127 298,110L304,104Z"  transform="translate(10010, 700)"/>
<path d="M108,-165Q107,-162 107,179L107,518L108,523Q115,549 143,557Q154,560 166,557Q189,551 196,537Q202,522 202,502L203,485L222,505Q227,510 233,516Q239,521 246,528Q280,553 322,558Q335,559 348,559Q361,559 375,557Q405,553 432,536Q439,531 447,525Q454,519 462,511Q497,481 516,465Q535,448 539,444Q571,413 578,366Q579,361 579,269L579,179L577,171Q569,127 540,95Q521,76 497,56Q473,35 444,12Q411,-15 370,-19Q346,-21 319,-19Q279,-15 246,11Q245,12 238,19Q230,26 222,34L202,53L202,-54L202,-99Q202,-167 198,-172L197,-174Q189,-189 176,-196Q164,-201 155,-201Q145,-201 133,-196Q120,-189 112,-174Q112,-174 110,-168L108,-165ZM203,200Q204,195 206,191Q208,186 210,182Q212,180 224,169Q235,157 257,135L305,87Q313,79 322,78Q328,76 345,76Q361,76 367,78Q371,79 386,91Q401,102 419,116Q436,130 452,144Q467,158 472,163Q476,167 481,180L483,185L483,269Q483,355 482,357Q478,371 474,374Q467,382 455,393Q442,404 429,416Q415,428 403,438Q390,448 381,454Q375,459 367,461Q365,462 360,462Q355,462 347,463Q335,463 327,462Q318,461 307,454Q306,454 292,440Q278,426 261,409Q244,392 230,377Q215,362 213,360Q206,352 205,345L203,339L203,200Z"  transform="translate(10725, 700)"/>
<path d="M186,12Q173,0 155,0Q141,0 129,7Q117,14 111,28Q99,53 116,76Q117,78 137,103Q157,128 199,177L280,275Q280,276 202,370Q163,418 144,442Q124,466 123,468Q115,480 117,494Q117,503 121,512Q132,534 157,538Q165,540 176,537Q189,534 199,524Q199,523 210,511Q220,498 236,480Q251,461 269,439Q286,417 302,399Q318,380 329,368Q340,355 341,354L343,352Q344,352 414,437Q485,523 486,524Q495,533 501,534Q513,539 521,539Q539,539 553,527Q566,514 568,494Q570,480 562,468Q561,466 542,442Q522,418 483,370Q405,276 405,275Q423,253 443,229Q463,204 486,177Q528,128 548,103Q568,78 569,76Q580,62 579,44Q577,26 563,13Q550,0 531,0Q508,0 495,16Q493,18 474,42Q454,65 417,110L343,200L339,197L186,12Z"  transform="translate(11440, 700)"/>
<path d="M202,192L202,129Q202,34 198,29Q198,28 197,27Q189,12 176,5Q164,0 154,0Q146,0 138,3Q129,6 121,14Q111,26 107,40Q106,43 106,370Q106,697 107,700Q111,713 122,725Q132,737 146,739Q159,741 167,738L176,735Q197,724 202,696L202,579L203,458L250,488Q295,517 307,524Q333,535 355,538Q360,539 372,539Q383,539 402,539Q421,538 432,538Q442,538 445,537Q494,529 527,495Q560,460 566,411Q566,409 572,233Q578,58 578,50Q578,39 577,36Q572,19 559,9Q545,-1 528,0Q494,3 484,37Q484,38 483,84Q481,130 477,221Q476,252 475,279Q474,305 473,328Q471,374 471,389Q470,404 470,405Q464,433 439,440L433,442L398,442Q357,442 350,438Q343,435 274,390L203,344L202,192Z"  transform="translate(12155, 700)"/>
<path d="M232,96L385,96Q534,96 542,94Q558,90 568,78Q578,65 578,48Q578,31 567,18Q556,4 539,1Q536,0 343,0Q149,0 146,1Q131,4 121,14Q111,26 107,40Q106,43 106,68Q106,94 107,97Q110,107 118,119Q123,124 165,164Q207,204 288,282L454,442L311,443L169,443L164,444Q145,450 136,467Q126,483 131,502Q134,516 145,526Q156,536 170,538L356,538Q541,538 543,537Q554,533 561,528Q570,521 574,512Q577,506 579,473Q579,442 576,434Q575,428 567,419L545,398Q534,387 518,372Q502,356 481,336Q459,316 439,296Q418,276 398,256L232,96Z"  transform="translate(12870, 700)"/>
<path d="M202,52Q202,39 197,27Q193,14 176,5Q164,0 154,0Q146,0 138,3Q129,6 121,14Q111,26 107,40Q106,43 106,370Q106,697 107,700Q111,713 122,725Q132,737 146,739Q159,741 167,738L176,735Q197,724 202,696L202,587L203,474L222,490Q230,498 239,505Q248,511 256,518Q267,525 278,529Q289,533 300,535Q317,539 366,539Q414,539 431,535Q452,532 475,519Q498,505 518,486Q538,467 554,445Q569,423 574,402Q579,382 579,272Q579,217 579,188Q579,159 578,154Q572,109 540,74Q537,71 492,32Q458,5 418,1Q413,0 367,0Q345,0 332,0Q319,0 315,1Q283,5 261,19Q239,33 216,53L203,64L202,52ZM304,104Q308,101 318,97Q321,96 366,96L410,96L415,97Q421,100 431,107Q441,114 452,123Q462,132 471,142Q479,151 481,157L483,163L483,269Q483,376 482,378Q480,387 474,394Q473,396 452,414Q442,423 437,428Q431,432 430,433Q422,439 414,441Q412,442 401,442Q389,442 368,443Q355,443 343,443Q330,442 326,442L323,442Q312,440 304,434Q303,433 288,421Q273,409 257,395Q240,380 226,368Q212,355 212,355Q206,348 204,339L203,335L203,270Q203,203 204,201Q205,198 207,194Q208,189 212,183Q232,163 254,145Q276,127 298,110L304,104Z"  transform="translate(13585, 700)"/>
<path d=""  transform="translate(14300, 700)"/>
<path d="M441,96L446,97Q468,105 477,124Q485,140 481,157Q477,174 463,185Q461,186 459,187Q457,188 456,189Q456,189 437,197Q429,201 412,209Q395,216 369,227Q343,238 317,250Q290,261 262,274Q190,305 183,310Q164,318 151,334Q123,362 117,404Q111,453 144,493Q174,531 225,538Q229,539 341,539Q395,539 424,539Q453,539 457,538Q471,537 489,530Q506,523 523,513Q539,503 552,490Q564,476 567,461Q570,449 567,438Q566,436 566,434Q565,432 563,429Q547,398 515,403Q495,406 481,423Q471,436 455,441L450,442L344,443Q235,443 234,442Q226,441 219,434Q212,427 212,418Q212,413 214,410Q217,401 224,397Q224,397 314,356Q496,277 512,267Q548,243 566,204Q586,157 574,112Q563,70 534,41Q504,12 463,3Q447,0 338,0Q238,0 228,2Q205,5 184,15Q166,22 144,36Q122,50 111,68Q101,90 112,109Q126,139 160,136Q173,133 189,122Q200,112 215,105Q230,98 244,96L441,96Z"  transform="translate(15015, 700)"/>
<path d="M483,64Q478,60 474,57Q469,53 464,49Q443,31 442,30Q411,5 370,1Q365,0 353,0Q340,0 319,0Q273,0 268,1Q235,5 201,27Q167,48 146,74Q113,107 107,157Q106,161 106,189Q106,217 106,270Q106,323 107,351Q107,378 108,382Q111,405 119,423Q126,441 138,456Q149,470 164,483Q179,496 196,509Q225,530 267,538L318,538Q338,539 351,539Q364,538 372,537Q411,533 441,510Q449,502 464,490L483,474L483,486Q483,494 484,500Q485,505 487,509Q492,523 507,532Q513,537 525,538Q543,540 555,532Q566,525 572,515Q574,511 575,507Q576,503 578,498L578,-165Q572,-181 560,-191Q548,-201 531,-201Q518,-201 506,-193Q493,-186 488,-174Q484,-167 484,-158Q484,-153 484,-126Q483,-100 483,-49L483,64ZM276,96L319,96Q363,96 375,101Q379,102 415,133L458,169Q467,177 473,184Q478,191 481,198L483,203L483,335L481,339Q478,350 472,357Q468,361 454,373Q440,385 425,399Q409,412 396,423Q383,434 380,435Q376,437 372,439Q368,441 363,442Q359,443 318,443Q276,443 274,442Q263,441 236,417Q210,397 207,387L206,385Q203,379 203,318L203,220Q203,160 206,154Q206,153 207,153Q207,153 207,152Q210,142 236,122Q257,102 271,97L276,96Z"  transform="translate(15730, 700)"/>
<path d="M232,115Q239,127 247,141Q255,154 263,169L295,222L295,278Q295,338 298,347Q303,361 316,369Q328,377 342,377Q357,377 370,369Q382,361 387,347Q390,338 390,278L390,222L453,115Q461,138 468,166L483,217L488,349Q490,416 491,451Q492,486 493,490Q493,510 508,525Q522,539 542,539Q558,539 572,526Q586,513 588,497Q588,480 587,444Q586,408 584,352Q578,207 578,206Q578,203 571,176Q563,148 554,116Q544,83 536,56Q528,29 526,27Q519,8 496,2Q490,0 463,0Q432,0 430,1Q413,2 402,16Q400,18 392,31Q384,44 370,67Q343,114 342,114Q336,103 330,92Q323,80 315,67L288,20L282,14Q273,5 265,3Q256,0 222,0Q195,0 189,2Q166,8 159,27Q158,29 150,56Q141,83 132,116Q122,148 115,176Q107,203 107,206Q107,207 101,352Q96,500 99,506Q107,533 136,538Q165,543 181,521Q187,515 191,503Q191,502 192,498Q192,493 192,490Q193,486 194,451Q195,416 197,349L202,217L232,115Z"  transform="translate(16445, 700)"/>
<path d="M343,100Q359,136 377,176Q394,215 413,260L483,420L483,457Q483,500 486,507Q491,518 498,524Q505,531 515,536Q531,540 547,536Q557,531 564,524Q571,518 576,507Q579,500 579,450Q579,400 575,391Q568,375 491,199Q415,24 413,22Q407,11 397,7Q390,3 381,1Q378,0 343,0Q308,0 305,1Q295,2 289,7Q281,11 273,22Q272,24 252,69Q232,113 194,202Q155,290 134,337Q113,384 111,391Q107,400 107,450Q107,500 110,507Q112,518 124,527Q136,536 146,538Q164,541 179,532Q189,525 196,515Q197,514 199,507Q202,500 202,457L202,420L343,100Z"  transform="translate(17160, 700)"/>
<path d="M298,0L33,0L33,666L298,666L298,0ZM265,33L265,633L66,633L66,33L265,33Z"  transform="translate(17875, 700)"/>
<path d="M195,210Q193,37 193,36Q189,26 184,18Q169,0 147,0Q139,0 131,3Q124,4 113,14Q103,24 100,40Q98,46 98,269Q98,493 100,499Q103,513 114,524Q124,535 138,538Q156,541 171,532Q186,523 191,509L192,506Q196,508 197,509Q224,533 260,538Q307,544 348,512Q357,505 364,496L366,493L377,502Q395,519 399,520Q435,543 474,538Q513,532 540,504Q567,476 572,436Q573,434 575,386Q576,337 580,241Q586,51 586,45Q586,39 581,27Q574,12 559,5Q550,1 541,0Q524,0 514,7Q505,11 497,24Q492,33 491,40L490,66Q489,92 487,141Q486,165 486,189Q485,213 484,236Q478,424 476,430Q474,435 467,441Q461,443 460,443Q456,443 454,441Q448,438 421,414L391,388L390,214Q390,38 389,36Q385,26 380,18Q364,0 342,0Q334,0 326,3Q321,4 310,13Q301,22 296,37Q295,39 295,234L294,427L293,431Q290,438 283,441Q280,442 274,442Q268,442 265,440Q260,438 228,409L195,381L195,210Z"  transform="translate(18590, 700)"/>
<path d=""  transform="translate(19305, 700)"/>
<path d="M343,100Q359,136 377,176Q394,215 413,260L483,420L483,457Q483,500 486,507Q491,518 498,524Q505,531 515,536Q531,540 547,536Q557,531 564,524Q571,518 576,507Q579,500 579,450Q579,400 575,391Q568,375 491,199Q415,24 413,22Q407,11 397,7Q390,3 381,1Q378,0 343,0Q308,0 305,1Q295,2 289,7Q281,11 273,22Q272,24 252,69Q232,113 194,202Q155,290 134,337Q113,384 111,391Q107,400 107,450Q107,500 110,507Q112,518 124,527Q136,536 146,538Q164,541 179,532Q189,525 196,515Q197,514 199,507Q202,500 202,457L202,420L343,100Z"  transform="translate(20020, 700)"/>
<path d="M189,2Q154,12 154,48Q154,84 189,94L193,95L244,96L295,96L295,644L193,644L189,646Q169,651 160,668Q150,684 155,703Q158,717 169,727Q180,737 194,739L198,739Q207,739 228,740Q248,740 274,740L309,740Q356,738 362,736L364,735Q383,725 389,704Q389,702 390,626Q390,550 390,398L390,96L441,96L492,95L496,94Q512,89 522,77Q531,65 531,48Q531,31 522,19Q512,7 496,2L491,0L194,0L189,2Z"  transform="translate(20735, 700)"/>
<path d="M275,96L407,96Q543,94 549,92Q578,81 578,48Q578,31 567,18Q556,4 539,1Q536,0 405,0Q340,0 306,0Q272,0 268,1Q227,5 196,30Q158,59 146,74Q113,108 108,157Q107,161 107,270Q107,379 108,384Q114,431 146,465Q149,468 194,507Q225,532 267,538L342,538Q413,540 433,535Q465,528 492,507Q537,468 539,465Q568,434 576,395Q579,380 579,307Q579,240 574,228Q567,216 561,212Q551,205 543,203Q535,201 371,201L202,201L203,182Q203,159 207,152Q212,140 236,122Q259,100 270,97L275,96ZM202,297L483,297L483,336Q483,376 478,388Q477,393 472,397Q461,408 445,422Q428,436 415,441L411,442L345,443Q274,443 268,440Q265,439 257,434Q249,428 241,421Q232,414 224,407Q216,400 213,397Q211,393 209,390Q207,386 205,381L203,376L203,336L202,297Z"  transform="translate(21450, 700)"/>
<path d="M189,-200Q154,-189 154,-153Q154,-118 189,-107L193,-106L302,-105L411,-105L415,-104Q421,-103 432,-95Q442,-88 453,-78Q463,-69 471,-59Q479,-50 481,-44L483,-38L483,33Q483,80 483,93Q483,105 482,104L464,89Q435,65 433,64Q404,45 370,41Q365,40 319,40Q273,40 268,41Q230,45 196,70Q194,72 186,79Q178,86 170,94Q161,101 154,107Q147,113 146,114Q120,142 111,178Q107,193 107,286L107,380Q110,404 118,422Q125,439 137,454Q149,469 164,482Q179,495 196,509Q224,530 267,538L318,538Q338,539 351,539Q364,538 372,537Q411,533 441,510Q449,502 464,490L483,474L483,486Q485,503 487,509Q491,521 502,529Q513,536 525,538Q543,540 555,532Q568,524 572,515L576,507Q579,498 579,228Q579,94 579,26Q579,-42 578,-47Q572,-92 540,-127Q531,-138 492,-169Q460,-197 415,-201L193,-201L189,-200ZM207,192Q212,180 236,162Q258,143 271,138L276,136L319,136Q364,136 376,141Q382,144 413,171L457,209Q477,226 481,238L483,244L483,335L481,339Q478,350 472,357Q469,360 455,373Q440,385 424,399Q408,413 395,424Q382,435 380,435Q376,437 372,439Q368,441 363,442Q360,443 318,443Q277,443 274,442Q263,441 236,417Q212,399 207,387Q203,380 203,373L203,289L203,249Q203,200 206,194L207,192Z"  transform="translate(22165, 700)"/>
<path d="M195,210Q193,37 193,36Q189,26 184,18Q169,0 147,0Q139,0 131,3Q124,4 113,14Q103,24 100,40Q98,46 98,269Q98,493 100,499Q103,513 114,524Q124,535 138,538Q156,541 171,532Q186,523 191,509L192,506Q196,508 197,509Q224,533 260,538Q307,544 348,512Q357,505 364,496L366,493L377,502Q395,519 399,520Q435,543 474,538Q513,532 540,504Q567,476 572,436Q573,434 575,386Q576,337 580,241Q586,51 586,45Q586,39 581,27Q574,12 559,5Q550,1 541,0Q524,0 514,7Q505,11 497,24Q492,33 491,40L490,66Q489,92 487,141Q486,165 486,189Q485,213 484,236Q478,424 476,430Q474,435 467,441Q461,443 460,443Q456,443 454,441Q448,438 421,414L391,388L390,214Q390,38 389,36Q385,26 380,18Q364,0 342,0Q334,0 326,3Q321,4 310,13Q301,22 296,37Q295,39 295,234L294,427L293,431Q290,438 283,441Q280,442 274,442Q268,442 265,440Q260,438 228,409L195,381L195,210Z"  transform="translate(22880, 700)"/>
<path d="M441,96L446,97Q468,105 477,124Q485,140 481,157Q477,174 463,185Q461,186 459,187Q457,188 456,189Q456,189 437,197Q429,201 412,209Q395,216 369,227Q343,238 317,250Q290,261 262,274Q190,305 183,310Q164,318 151,334Q123,362 117,404Q111,453 144,493Q174,531 225,538Q229,539 341,539Q395,539 424,539Q453,539 457,538Q471,537 489,530Q506,523 523,513Q539,503 552,490Q564,476 567,461Q570,449 567,438Q566,436 566,434Q565,432 563,429Q547,398 515,403Q495,406 481,423Q471,436 455,441L450,442L344,443Q235,443 234,442Q226,441 219,434Q212,427 212,418Q212,413 214,410Q217,401 224,397Q224,397 314,356Q496,277 512,267Q548,243 566,204Q586,157 574,112Q563,70 534,41Q504,12 463,3Q447,0 338,0Q238,0 228,2Q205,5 184,15Q166,22 144,36Q122,50 111,68Q101,90 112,109Q126,139 160,136Q173,133 189,122Q200,112 215,105Q230,98 244,96L441,96Z"  transform="translate(23595, 700)"/>
</svg>
