<svg xmlns="http://www.w3.org/2000/svg" viewBox="0 0 29398 3047" transform="translate(0, 3047) scale(1, -1)">
<path d="M226,341Q226,317 235,296Q244,275 259,260Q274,245 295,236Q316,227 340,227L681,227L681,0L226,0Q178,0 137,18Q96,35 65,66Q34,97 17,138Q-1,179 -1,227L-1,1592Q-1,1640 17,1682Q34,1723 65,1754Q96,1784 137,1802Q178,1820 226,1820L681,1820L681,1365L340,1365Q316,1365 295,1356Q274,1347 259,1332Q244,1317 235,1296Q226,1275 226,1251L226,341Z"  transform="translate(0, 955)"/>
<path d="M910,227Q910,179 892,138Q874,97 844,66Q813,35 772,18Q730,0 682,0L227,0L227,1592L0,1592L0,1820L455,1820L455,910L682,910Q730,910 772,892Q813,874 844,844Q874,813 892,772Q910,730 910,682L910,227ZM455,227L568,227Q592,227 613,236Q634,245 649,260Q664,275 673,296Q682,317 682,341L682,568Q682,592 673,613Q664,634 649,649Q634,664 613,673Q592,682 568,682L455,682L455,227Z"  transform="translate(796, 955)"/>
<path d="M226,0L-1,0L-1,1820L454,1820Q502,1820 543,1802Q584,1784 615,1754Q646,1723 664,1682Q681,1640 681,1592L681,910Q681,863 664,822Q646,780 615,749Q584,718 543,700Q501,682 454,682L226,682L226,0ZM226,910L340,910Q364,910 385,919Q405,928 421,944Q436,959 445,980Q454,1000 454,1024L454,1251Q454,1275 445,1296Q436,1316 421,1332Q405,1347 385,1356Q364,1365 340,1365L226,1365L226,910Z"  transform="translate(1820, 955)"/>
<path d="M227,0L0,0L0,1820L682,1820L682,1365L227,1365L227,0Z"  transform="translate(2616, 955)"/>
<path d="M112,227L340,227Q364,227 385,236Q405,245 421,261Q436,276 445,297Q454,317 454,341L454,568L226,568Q178,568 137,586Q96,604 65,635Q34,665 17,707Q-1,748 -1,796L-1,1820L226,1820L226,910Q226,886 235,865Q244,844 259,829Q274,814 295,805Q316,796 340,796L454,796L454,1820L681,1820L681,227Q681,180 664,139Q646,97 615,67Q584,36 543,18Q501,0 454,0L112,0L112,227Z"  transform="translate(3412, 955)"/>
<path d="M227,0L0,0L0,1820L227,1820L227,910L455,910L455,1592Q455,1640 473,1682Q490,1723 521,1754Q552,1784 593,1802Q634,1820 682,1820L910,1820Q958,1820 999,1802Q1040,1784 1071,1754Q1102,1723 1120,1682Q1137,1640 1137,1592L1137,227Q1137,179 1120,138Q1102,97 1071,66Q1040,35 999,18Q958,0 910,0L682,0Q634,0 593,18Q552,35 521,66Q490,97 473,138Q455,179 455,227L455,682L227,682L227,0ZM682,341Q682,317 691,296Q700,275 715,260Q730,245 751,236Q772,227 796,227Q820,227 841,236Q861,245 877,261Q892,276 901,297Q910,317 910,341L910,1251Q910,1273 902,1293Q894,1312 880,1328Q866,1343 848,1353Q829,1363 807,1364L785,1364Q740,1361 711,1329Q682,1296 682,1251L682,341Z"  transform="translate(4208, 955)"/>
<path d=""  transform="translate(5459, 955)"/>
<path d="M227,0L0,0L0,1820L227,1820L227,910L455,910L455,1592Q455,1640 473,1682Q490,1723 521,1754Q552,1784 593,1802Q634,1820 682,1820L910,1820Q958,1820 999,1802Q1040,1784 1071,1754Q1102,1723 1120,1682Q1137,1640 1137,1592L1137,227Q1137,179 1120,138Q1102,97 1071,66Q1040,35 999,18Q958,0 910,0L682,0Q634,0 593,18Q552,35 521,66Q490,97 473,138Q455,179 455,227L455,682L227,682L227,0ZM682,341Q682,317 691,296Q700,275 715,260Q730,245 751,236Q772,227 796,227Q820,227 841,236Q861,245 877,261Q892,276 901,297Q910,317 910,341L910,1251Q910,1273 902,1293Q894,1312 880,1328Q866,1343 848,1353Q829,1363 807,1364L785,1364Q740,1361 711,1329Q682,1296 682,1251L682,341Z"  transform="translate(5800, 955)"/>
<path d="M227,-227L0,-227L0,227Q24,227 45,236Q65,245 81,261Q96,276 105,297Q113,317 113,341L113,1592Q113,1639 131,1681Q149,1722 180,1753Q211,1784 253,1802Q294,1820 341,1820L568,1820Q616,1820 658,1802Q699,1784 730,1754Q760,1723 778,1682Q796,1640 796,1592L796,227L910,227L910,-227L682,-227L682,0L227,0L227,-227ZM341,227L568,227L568,1251Q568,1296 539,1329Q510,1361 465,1364L444,1364Q399,1361 370,1329Q341,1296 341,1251L341,227Z"  transform="translate(7051, 955)"/>
<path d="M226,341Q226,317 235,296Q244,275 259,260Q274,245 295,236Q316,227 340,227L681,227L681,0L226,0Q178,0 137,18Q96,35 65,66Q34,97 17,138Q-1,179 -1,227L-1,1592Q-1,1640 17,1682Q34,1723 65,1754Q96,1784 137,1802Q178,1820 226,1820L681,1820L681,1365L340,1365Q316,1365 295,1356Q274,1347 259,1332Q244,1317 235,1296Q226,1275 226,1251L226,910L681,910L681,682L226,682L226,341ZM-1,2104L226,2104L226,1877L-1,1877L-1,2104ZM454,2104L681,2104L681,1877L454,1877L454,2104Z"  transform="translate(8075, 955)"/>
<path d="M227,0L0,0L0,625Q0,679 19,719Q38,758 76,796Q38,834 19,874Q0,913 0,967L0,1592Q0,1640 18,1682Q35,1723 66,1754Q97,1784 138,1802Q179,1820 227,1820L682,1820L682,0L455,0L455,682L341,682Q317,682 296,673Q275,664 260,649Q245,634 236,613Q227,592 227,568L227,0ZM227,1024Q227,1000 236,979Q245,958 260,943Q275,928 296,919Q317,910 341,910L455,910L455,1365L341,1365Q317,1365 296,1356Q275,1347 260,1332Q245,1317 236,1296Q227,1275 227,1251L227,1024Z"  transform="translate(8871, 955)"/>
<path d="M0,227L341,227Q365,227 386,236Q406,245 422,261Q437,276 446,297Q455,317 455,341L455,682L227,682L227,910L455,910L455,1251Q455,1275 446,1296Q437,1316 422,1332Q406,1347 386,1356Q365,1365 341,1365L0,1365L0,1820L455,1820Q503,1820 544,1802Q585,1784 616,1754Q647,1723 665,1682Q682,1640 682,1592L682,227Q682,180 665,139Q647,97 616,67Q585,36 544,18Q502,0 455,0L0,0L0,227Z"  transform="translate(9667, 955)"/>
<path d="M227,284Q179,284 138,302Q97,320 66,351Q35,381 18,423Q0,464 0,512L0,1365Q0,1413 18,1454Q35,1495 66,1526Q97,1557 138,1575Q179,1592 227,1592L455,1592L455,1820L682,1820L682,1592L910,1592Q958,1592 999,1575Q1040,1557 1071,1526Q1102,1495 1120,1454Q1137,1413 1137,1365L1137,455L1131,455Q1121,418 1100,387Q1079,355 1050,332Q1021,309 985,297Q949,284 910,284L682,284L682,0L455,0L455,284L227,284ZM227,625Q227,601 236,581Q245,560 261,545Q276,529 297,521Q317,512 341,512L455,512L455,1137L341,1137Q317,1137 297,1129Q276,1120 261,1105Q245,1089 236,1069Q227,1048 227,1024L227,625ZM682,512L796,512Q820,512 841,521Q861,530 877,545Q892,560 901,581Q910,601 910,625L910,1024Q910,1048 901,1069Q892,1089 877,1104Q861,1119 841,1128Q820,1137 796,1137L682,1137L682,512Z"  transform="translate(10463, 955)"/>
<path d=""  transform="translate(11714, 955)"/>
<path d="M0,227L341,227Q365,227 386,236Q406,245 422,261Q437,276 446,297Q455,317 455,341Q455,364 446,385Q437,406 422,422Q406,437 385,446Q364,455 341,455L227,455L227,682L341,682Q365,682 386,691Q406,700 422,716Q437,731 446,752Q455,772 455,796Q455,819 446,840Q437,861 422,877Q406,892 385,901Q364,910 341,910L0,910L0,1365L455,1365Q503,1365 544,1347Q585,1329 616,1299Q647,1268 665,1227Q682,1185 682,1137L682,739Q682,684 663,645Q643,606 605,568Q631,542 649,517Q667,491 675,455L682,455L682,170L676,170Q666,133 645,102Q624,70 595,48Q565,25 530,13Q494,0 455,0L0,0L0,227Z"  transform="translate(12055, 955)"/>
<path d="M227,0Q179,0 138,18Q97,35 66,66Q35,97 18,138Q0,179 0,227L0,1137Q0,1185 18,1227Q35,1268 66,1299Q97,1329 138,1347Q179,1365 227,1365L455,1365L455,1820L682,1820L682,1365L910,1365Q958,1365 999,1347Q1040,1329 1071,1299Q1102,1268 1120,1227Q1137,1185 1137,1137L1137,227Q1137,179 1120,138Q1102,97 1071,66Q1040,35 999,18Q958,0 910,0L682,0L682,-455L455,-455L455,0L227,0ZM227,341Q227,317 236,296Q245,275 260,260Q275,245 296,236Q317,227 341,227L455,227L455,910L341,910Q317,910 297,901Q276,892 261,877Q245,861 236,841Q227,820 227,796L227,341ZM682,227L796,227Q820,227 841,236Q861,245 877,261Q892,276 901,297Q910,317 910,341L910,796Q910,819 901,840Q892,861 877,877Q861,892 840,901Q819,910 796,910L682,910L682,227Z"  transform="translate(12851, 955)"/>
<path d="M681,227Q681,180 664,139Q646,97 615,67Q584,36 543,18Q501,0 454,0L226,0Q178,0 137,18Q96,35 65,66Q34,97 17,138Q-1,179 -1,227L-1,1137Q-1,1185 17,1227Q34,1268 65,1299Q96,1329 137,1347Q178,1365 226,1365L454,1365Q502,1365 543,1347Q584,1329 615,1299Q646,1268 664,1227Q681,1185 681,1137L681,227ZM226,341Q226,317 235,296Q244,275 259,260Q274,245 295,236Q316,227 340,227Q364,227 385,236Q405,245 421,261Q436,276 445,297Q454,317 454,341L454,796Q454,817 446,837Q438,857 424,873Q410,888 392,898Q373,908 351,909L329,909Q307,908 289,898Q270,888 256,873Q242,857 234,838Q226,818 226,796L226,341Z"  transform="translate(14102, 955)"/>
<path d="M-56,227L56,227Q80,227 101,236Q122,245 137,260Q152,275 161,296Q170,317 170,341L170,1137Q170,1184 188,1226Q206,1267 237,1298Q268,1329 310,1347Q351,1365 398,1365L625,1365Q672,1365 714,1347Q755,1329 786,1298Q817,1267 835,1226Q853,1184 853,1137L853,0L625,0L625,796Q625,818 617,838Q609,857 596,873Q582,888 563,898Q544,908 522,909L501,909Q479,908 460,898Q441,888 428,873Q414,857 406,838Q398,818 398,796L398,227Q398,179 380,138Q362,97 332,66Q301,35 260,18Q218,0 170,0L-56,0L-56,227Z"  transform="translate(14898, 955)"/>
<path d="M227,0L0,0L0,398Q0,452 19,491Q38,530 76,568Q38,606 19,646Q0,685 0,739L0,1137Q0,1185 18,1227Q35,1268 66,1299Q97,1329 138,1347Q179,1365 227,1365L682,1365L682,0L455,0L455,455L341,455Q317,455 297,446Q276,437 261,422Q245,406 236,386Q227,365 227,341L227,0ZM341,910Q317,910 297,901Q276,892 261,877Q245,861 236,841Q227,820 227,796Q227,772 236,751Q245,730 260,715Q275,700 296,691Q317,682 341,682L455,682L455,910L341,910Z"  transform="translate(15865, 955)"/>
<path d="M227,341Q180,341 139,359Q97,377 67,408Q36,438 18,480Q0,521 0,568L0,1365L227,1365L227,682Q227,658 236,638Q245,617 261,602Q276,586 297,577Q317,568 341,568L455,568L455,1365L682,1365L682,0L455,0L455,341L227,341Z"  transform="translate(16661, 955)"/>
<path d=""  transform="translate(17457, 955)"/>
<path d="M227,0L0,0L0,455L6,455Q17,500 47,537Q76,574 116,597Q61,627 31,680Q0,733 0,796L0,1365L227,1365L227,796Q227,772 236,751Q245,730 260,715Q275,700 296,691Q317,682 341,682Q365,682 386,691Q406,700 422,716Q437,731 446,752Q455,772 455,796L455,1365L682,1365L682,796Q682,732 651,681Q620,629 566,597Q605,574 635,537Q664,500 675,455L682,455L682,0L455,0L455,341Q455,364 446,385Q437,406 422,422Q406,437 385,446Q364,455 341,455Q317,455 297,446Q276,437 261,422Q245,406 236,386Q227,365 227,341L227,0Z"  transform="translate(17798, 955)"/>
<path d="M227,227L455,227L455,1365L682,1365L682,227L910,227L910,1365L1137,1365L1137,0L0,0L0,1365L227,1365L227,227Z"  transform="translate(18594, 955)"/>
<path d="M227,341Q227,317 236,296Q245,275 260,260Q275,245 296,236Q317,227 341,227L455,227L455,1365L682,1365L682,0L227,0Q179,0 138,18Q97,35 66,66Q35,97 18,138Q0,179 0,227L0,1365L227,1365L227,341ZM227,1792Q227,1768 236,1747Q245,1726 260,1711Q275,1696 296,1687Q317,1678 341,1678Q365,1678 386,1687Q406,1696 422,1712Q437,1727 446,1748Q455,1768 455,1792L455,1905L682,1905L682,1678Q682,1631 665,1590Q647,1548 616,1517Q585,1486 544,1468Q502,1450 455,1450L227,1450Q179,1450 138,1468Q97,1486 66,1517Q35,1547 18,1589Q0,1630 0,1678L0,1905L227,1905L227,1792Z"  transform="translate(19845, 955)"/>
<path d="M227,341Q227,317 236,296Q245,275 260,260Q275,245 296,236Q317,227 341,227L682,227L682,0L227,0Q179,0 138,18Q97,35 66,66Q35,97 18,138Q0,179 0,227L0,1137Q0,1185 18,1227Q35,1268 66,1299Q97,1329 138,1347Q179,1365 227,1365L455,1365Q503,1365 544,1347Q585,1329 616,1299Q647,1268 665,1227Q682,1185 682,1137L682,455L227,455L227,341ZM227,682L455,682L455,796Q455,817 447,837Q439,857 425,873Q411,888 393,898Q374,908 352,909L330,909Q308,908 290,898Q271,888 257,873Q243,857 235,838Q227,818 227,796L227,682ZM227,1450L0,1450L0,1678L227,1678L227,1450ZM682,1450L455,1450L455,1678L682,1678L682,1450Z"  transform="translate(20641, 955)"/>
<path d="M0,0L0,1365L227,1365L227,227L455,227L455,1365L682,1365L682,227L796,227L796,-227L568,-227L568,0L0,0Z"  transform="translate(21437, 955)"/>
<path d="M227,227L455,227L455,1365L682,1365L682,227L910,227L910,1365L1137,1365L1137,0L0,0L0,1365L227,1365L227,227Z"  transform="translate(22347, 955)"/>
<path d=""  transform="translate(23598, 955)"/>
<path d="M226,341Q226,317 235,296Q244,275 259,260Q274,245 295,236Q316,227 340,227L454,227L454,1365L681,1365L681,0L226,0Q178,0 137,18Q96,35 65,66Q34,97 17,138Q-1,179 -1,227L-1,1365L226,1365L226,341Z"  transform="translate(23939, 955)"/>
<path d="M0,0L0,1365L227,1365L227,227L455,227L455,1365L682,1365L682,227L796,227L796,-227L568,-227L568,0L0,0Z"  transform="translate(24735, 955)"/>
<path d="M0,0L0,1365L227,1365L227,227L455,227L455,1365L682,1365L682,227L910,227L910,1365L1137,1365L1137,227L1251,227L1251,-227L1024,-227L1024,0L0,0Z"  transform="translate(25645, 955)"/>
<path d="M226,341Q226,317 235,296Q244,275 259,260Q274,245 295,236Q316,227 340,227L454,227L454,1365L681,1365L681,0L226,0Q178,0 137,18Q96,35 65,66Q34,97 17,138Q-1,179 -1,227L-1,1365L226,1365L226,341Z"  transform="translate(27010, 955)"/>
<path d="M-1,455Q-1,502 17,544Q35,585 66,616Q96,647 138,665Q179,682 226,682L454,682L454,796Q454,819 445,840Q436,861 421,877Q405,892 384,901Q363,910 340,910L-1,910L-1,1365L454,1365Q502,1365 543,1347Q584,1329 615,1299Q646,1268 664,1227Q681,1185 681,1137L681,0L226,0Q178,0 137,18Q96,35 65,66Q34,97 17,138Q-1,179 -1,227L-1,455ZM340,455Q316,455 296,446Q275,437 260,422Q244,406 235,386Q226,365 226,341Q226,317 235,296Q244,275 259,260Q274,245 295,236Q316,227 340,227L454,227L454,455L340,455Z"  transform="translate(27806, 955)"/>
<path d="M227,341Q180,341 139,359Q97,377 67,408Q36,438 18,480Q0,521 0,568L0,1365L227,1365L227,682Q227,658 236,638Q245,617 261,602Q276,586 297,577Q317,568 341,568L455,568L455,1365L682,1365L682,0L455,0L455,341L227,341Z"  transform="translate(28602, 955)"/>
</svg>
