<svg width="23872" height="3048" viewBox="0 0 23872 3048" xmlns="http://www.w3.org/2000/svg">
    <defs/>
    <g transform="matrix(1 0 0 -1 0 3048)">
        <g transform="matrix(1 0 0 1 0 884)">
            <path fill="#000000" stroke="none" d="M 640 256 Q 640 150 564 75 Q 489 0 384 0 L 128 0 L 128 1536 L 384 1536 Q 489 1536 564 1460 Q 640 1385 640 1280 L 640 256 Z M 320 64 L 384 64 Q 463 64 519 120 Q 527 128 534.5 136.5 Q 542 145 548 155 L 448 256 L 448 1280 L 283 1444 Q 273 1438 264.5 1430.5 Q 256 1423 248 1415 Q 240 1407 232.5 1398.5001 Q 225 1390 219 1380 L 320 1280 L 320 64 Z"/>
        </g>
        <g transform="matrix(1 0 0 1 640 884)">
            <path fill="#000000" stroke="none" d="M 320 64 L 384 64 Q 463 64 519 120 Q 527 128 534.5 136.5 Q 542 145 548 155 L 448 256 L 448 640 L 640 640 L 640 0 L 128 0 L 128 1536 L 640 1536 L 640 896 L 448 896 L 448 1472 L 384 1472 Q 304 1472 248 1415 Q 240 1407 232.5 1398.5001 Q 225 1390 219 1380 L 320 1280 L 320 800 L 640 800 L 640 736 L 320 736 L 320 64 Z"/>
        </g>
        <g transform="matrix(1 0 0 1 1280 884)">
            <path fill="#000000" stroke="none" d="M 320 256 L 484 91 Q 494 97 502.49997 104.5 Q 511 112 519 120 Q 576 176 576 256 L 640 256 Q 640 150 564 75 Q 489 0 384 0 Q 278 0 203 75 Q 128 150 128 256 L 128 1280 Q 128 1385 203 1460 Q 278 1536 384 1536 Q 489 1536 564 1460 Q 640 1385 640 1280 L 640 384 L 448 384 L 448 1280 L 283 1444 Q 273 1438 264.5 1430.5 Q 256 1423 248 1415 Q 240 1407 232.5 1398.5001 Q 225 1390 219 1380 L 320 1280 L 320 256 Z"/>
        </g>
        <g transform="matrix(1 0 0 1 1920 884)">
            <path fill="#000000" stroke="none" d="M 640 256 Q 640 150 564 75 Q 489 0 384 0 Q 278 0 203 75 Q 128 150 128 256 L 128 1280 Q 128 1385 203 1460 Q 278 1536 384 1536 Q 489 1536 564 1460 Q 640 1385 640 1280 L 640 256 Z M 320 256 L 484 91 Q 494 97 502.49997 104.5 Q 511 112 519 120 Q 527 128 534.5 136.5 Q 542 145 548 155 L 448 256 L 448 1280 L 283 1444 Q 273 1438 264.5 1430.5 Q 256 1423 248 1415 Q 240 1407 232.5 1398.5001 Q 225 1390 219 1380 L 320 1280 L 320 256 Z"/>
        </g>
        <g transform="matrix(1 0 0 1 2560 884)">
            <path fill="#000000" stroke="none" d="M 640 256 Q 640 150 564 75 Q 489 0 384 0 L 128 0 L 128 1536 L 384 1536 Q 489 1536 564 1460 Q 640 1385 640 1280 L 640 256 Z M 320 64 L 384 64 Q 463 64 519 120 Q 527 128 534.5 136.5 Q 542 145 548 155 L 448 256 L 448 1280 L 283 1444 Q 273 1438 264.5 1430.5 Q 256 1423 248 1415 Q 240 1407 232.5 1398.5001 Q 225 1390 219 1380 L 320 1280 L 320 64 Z"/>
        </g>
        <g transform="matrix(1 0 0 1 3200 884)">
            <path fill="#000000" stroke="none" d="M 320 64 L 384 64 Q 463 64 519 120 Q 527 128 534.5 136.5 Q 542 145 548 155 L 448 256 L 448 640 L 640 640 L 640 0 L 128 0 L 128 1536 L 640 1536 L 640 896 L 448 896 L 448 1472 L 384 1472 Q 304 1472 248 1415 Q 240 1407 232.5 1398.5001 Q 225 1390 219 1380 L 320 1280 L 320 800 L 640 800 L 640 736 L 320 736 L 320 64 Z"/>
        </g>
        <g transform="matrix(1 0 0 1 4224 884)">
            <path fill="#000000" stroke="none" d="M 320 0 L 128 0 L 128 1536 L 448 1536 L 523 1460 Q 598 1536 704 1536 L 960 1536 L 960 0 L 768 0 L 768 1472 L 704 1472 Q 624 1472 568 1415 Q 560 1407 552.5 1398.5001 Q 545 1390 539 1380 L 640 1280 L 640 0 L 448 0 L 448 1280 L 283 1444 Q 273 1438 264.5 1430.5 Q 256 1423 248 1415 Q 240 1407 232.5 1398.5001 Q 225 1390 219 1380 L 320 1280 L 320 0 Z"/>
        </g>
        <g transform="matrix(1 0 0 1 5184 884)">
            <path fill="#000000" stroke="none" d="M 480 0 L 288 0 L 288 544 L 128 704 L 128 1536 L 320 1536 L 320 768 L 484 603 Q 494 609 502.49997 616.5 Q 511 624 519 632 Q 527 640 534.5 648.5 Q 542 657 548 667 L 448 768 L 448 1536 L 640 1536 L 640 768 Q 640 662 564 587 Q 527 549 480 529 L 480 0 Z"/>
        </g>
        <g transform="matrix(1 0 0 1 5824 884)">
            <path fill="#000000" stroke="none" d="M 320 256 L 484 91 Q 494 97 502.49997 104.5 Q 511 112 519 120 Q 527 128 534.5 136.5 Q 542 145 548 155 L 448 256 L 448 576 L 128 896 L 128 1280 Q 128 1385 203 1460 Q 278 1536 384 1536 Q 489 1536 564 1460 Q 640 1385 640 1280 L 640 768 L 448 960 L 448 1280 L 283 1444 Q 273 1438 264.5 1430.5 Q 256 1423 248 1415 Q 240 1407 232.5 1398.5001 Q 225 1390 219 1380 L 320 1280 L 320 960 L 640 640 L 640 256 Q 640 150 564 75 Q 489 0 384 0 Q 278 0 203 75 Q 128 150 128 256 L 128 768 L 320 576 L 320 256 Z"/>
        </g>
        <g transform="matrix(1 0 0 1 6464 884)">
            <path fill="#000000" stroke="none" d="M 640 0 L 448 0 L 448 1472 L 384 1472 Q 304 1472 248 1415 Q 240 1407 232.5 1398.5001 Q 225 1390 219 1380 L 320 1280 L 320 896 L 128 896 L 128 1536 L 960 1536 L 960 896 L 768 896 L 768 1472 L 704 1472 Q 624 1472 568 1415 Q 560 1407 552.5 1398.5001 Q 545 1390 539 1380 L 640 1280 L 640 0 Z"/>
        </g>
        <g transform="matrix(1 0 0 1 7424 884)">
            <path fill="#000000" stroke="none" d="M 320 64 L 384 64 Q 463 64 519 120 Q 527 128 534.5 136.5 Q 542 145 548 155 L 448 256 L 448 640 L 640 640 L 640 0 L 128 0 L 128 1536 L 640 1536 L 640 896 L 448 896 L 448 1472 L 384 1472 Q 304 1472 248 1415 Q 240 1407 232.5 1398.5001 Q 225 1390 219 1380 L 320 1280 L 320 800 L 640 800 L 640 736 L 320 736 L 320 64 Z"/>
        </g>
        <g transform="matrix(1 0 0 1 8064 884)">
            <path fill="#000000" stroke="none" d="M 320 0 L 128 0 L 128 1536 L 384 1536 Q 489 1536 564 1460 Q 640 1385 640 1280 L 640 960 Q 640 854 564 779 Q 546 761 530 749 L 640 640 L 640 0 L 448 0 L 448 576 L 283 740 Q 273 734 264.5 726.5 Q 256 719 248 711 Q 240 703 232.5 694.5 Q 225 686 219 676 L 320 576 L 320 0 Z M 320 960 L 484 795 Q 494 801 502.49997 808.5 Q 511 816 519 824 Q 527 832 534.5 840.5 Q 542 849 548 859 L 448 960 L 448 1280 L 283 1444 Q 273 1438 264.5 1430.5 Q 256 1423 248 1415 Q 240 1407 232.5 1398.5001 Q 225 1390 219 1380 L 320 1280 L 320 960 Z"/>
        </g>
        <g transform="matrix(1 0 0 1 8704 884)">
            <path fill="#000000" stroke="none" d="M 480 0 L 288 0 L 288 544 L 128 704 L 128 1536 L 320 1536 L 320 768 L 484 603 Q 494 609 502.49997 616.5 Q 511 624 519 632 Q 527 640 534.5 648.5 Q 542 657 548 667 L 448 768 L 448 1536 L 640 1536 L 640 768 Q 640 662 564 587 Q 527 549 480 529 L 480 0 Z"/>
        </g>
        <g transform="matrix(1 0 0 1 9728 884)">
            <path fill="#000000" stroke="none" d="M 640 256 Q 640 150 564 75 Q 489 0 384 0 Q 278 0 203 75 Q 128 150 128 256 L 128 1024 Q 128 1129 203 1204 Q 278 1280 384 1280 Q 489 1280 564 1204 Q 640 1129 640 1024 L 640 256 Z M 320 256 L 484 91 Q 494 97 502.49997 104.5 Q 511 112 519 120 Q 527 128 534.5 136.5 Q 542 145 548 155 L 448 256 L 448 1024 L 283 1188 Q 273 1182 264.5 1174.5 Q 256 1167 248 1159 Q 240 1151 232.5 1142.5 Q 225 1134 219 1124 L 320 1024 L 320 256 Z"/>
        </g>
        <g transform="matrix(1 0 0 1 10368 884)">
            <path fill="#000000" stroke="none" d="M 640 256 Q 640 150 564 75 Q 489 0 384 0 L 128 0 L 128 1664 L 320 1664 L 320 1280 L 384 1280 Q 489 1280 564 1204 Q 640 1129 640 1024 L 640 256 Z M 320 256 L 484 91 Q 494 97 502.49997 104.5 Q 511 112 519 120 Q 527 128 534.5 136.5 Q 542 145 548 155 L 448 256 L 448 1024 L 283 1188 Q 273 1182 264.5 1174.5 Q 256 1167 248 1159 Q 240 1151 232.5 1142.5 Q 225 1134 219 1124 L 320 1024 L 320 256 Z"/>
        </g>
        <g transform="matrix(1 0 0 1 11008 884)">
            <path fill="#000000" stroke="none" d="M 320 256 L 484 91 Q 494 97 502.49997 104.5 Q 511 112 519 120 Q 527 128 534.5 136.5 Q 542 145 548 155 L 448 256 L 448 448 L 128 768 L 128 1024 Q 128 1129 203 1204 Q 278 1280 384 1280 Q 489 1280 564 1204 Q 640 1129 640 1024 L 640 640 L 448 832 L 448 1024 L 283 1188 Q 273 1182 264.5 1174.5 Q 256 1167 248 1159 Q 240 1151 232.5 1142.5 Q 225 1134 219 1124 L 320 1024 L 320 832 L 640 512 L 640 256 Q 640 150 564 75 Q 489 0 384 0 Q 278 0 203 75 Q 128 150 128 256 L 128 640 L 320 448 L 320 256 Z"/>
        </g>
        <g transform="matrix(1 0 0 1 11648 884)">
            <path fill="#000000" stroke="none" d="M 320 256 L 484 91 Q 494 97 502.49997 104.5 Q 511 112 519 120 Q 576 176 576 256 L 640 256 Q 640 150 564 75 Q 489 0 384 0 Q 278 0 203 75 Q 128 150 128 256 L 128 1024 Q 128 1129 203 1204 Q 278 1280 384 1280 Q 489 1280 564 1204 Q 640 1129 640 1024 L 640 384 L 320 384 L 320 256 Z M 320 448 L 448 448 L 448 1024 L 283 1188 Q 273 1182 264.5 1174.5 Q 256 1167 248 1159 Q 240 1151 232.5 1142.5 Q 225 1134 219 1124 L 320 1024 L 320 448 Z"/>
        </g>
        <g transform="matrix(1 0 0 1 12288 884)">
            <path fill="#000000" stroke="none" d="M 320 0 L 128 0 L 128 1280 L 192 1280 L 192 1193 Q 197 1199 203 1204 Q 278 1280 384 1280 Q 489 1280 564 1204 Q 640 1129 640 1024 L 640 384 L 448 384 L 448 1024 L 283 1188 Q 273 1182 264.5 1174.5 Q 256 1167 248 1159 Q 240 1151 232.5 1142.5 Q 225 1134 219 1124 L 320 1024 L 320 0 Z"/>
        </g>
        <g transform="matrix(1 0 0 1 12928 884)">
            <path fill="#000000" stroke="none" d="M 128 192 L 128 1280 L 320 1280 L 320 256 L 384 192 L 484 91 Q 494 97 502.49997 104.5 Q 511 112 519 120 Q 527 128 534.5 136.5 Q 542 145 548 155 L 448 256 L 448 1280 L 640 1280 L 640 256 Q 640 150 564 75 Q 489 0 384 0 L 320 0 L 128 192 Z"/>
        </g>
        <g transform="matrix(1 0 0 1 13568 884)">
            <path fill="#000000" stroke="none" d="M 320 256 L 484 91 Q 494 97 502.49997 104.5 Q 511 112 519 120 Q 576 176 576 256 L 640 256 Q 640 150 564 75 Q 489 0 384 0 Q 278 0 203 75 Q 128 150 128 256 L 128 1024 Q 128 1129 203 1204 Q 278 1280 384 1280 Q 489 1280 564 1204 Q 640 1129 640 1024 L 640 384 L 320 384 L 320 256 Z M 320 448 L 448 448 L 448 1024 L 283 1188 Q 273 1182 264.5 1174.5 Q 256 1167 248 1159 Q 240 1151 232.5 1142.5 Q 225 1134 219 1124 L 320 1024 L 320 448 Z"/>
        </g>
        <g transform="matrix(1 0 0 1 14592 884)">
            <path fill="#000000" stroke="none" d="M 128 128 Q 128 233 203 308 Q 221 326 237 338 L 128 448 Q 128 540 183 608 Q 128 675 128 768 L 128 1024 Q 128 1129 203 1204 Q 278 1280 384 1280 L 640 1280 L 640 1216 L 553 1216 Q 556 1213 559 1210 Q 562 1207 564 1204 Q 640 1129 640 1024 L 640 768 Q 640 662 564 587 Q 489 512 384 512 Q 342 512 309 522 L 640 192 L 640 -128 Q 640 -233 564 -308 Q 489 -384 384 -384 Q 278 -384 203 -308 Q 128 -233 128 -128 L 128 128 Z M 320 768 L 484 603 Q 494 609 502.49997 616.5 Q 511 624 519 632 Q 527 640 534.5 648.5 Q 542 657 548 667 L 448 768 L 448 1024 L 283 1188 Q 273 1182 264.5 1174.5 Q 256 1167 248 1159 Q 240 1151 232.5 1142.5 Q 225 1134 219 1124 L 320 1024 L 320 768 Z M 320 -128 L 484 -292 Q 494 -286 502.49997 -278.5 Q 511 -271 519 -263 Q 527 -255 534.5 -246.5 Q 542 -238 548 -228 L 448 -128 L 448 128 L 283 292 Q 273 286 264.5 278.5 Q 256 271 248 263 Q 240 255 232.5 246.5 Q 225 238 219 228 L 320 128 L 320 -128 Z"/>
        </g>
        <g transform="matrix(1 0 0 1 15232 884)">
            <path fill="#000000" stroke="none" d="M 320 0 L 128 0 L 128 1280 L 192 1280 L 192 1193 Q 197 1199 203 1204 Q 278 1280 384 1280 Q 489 1280 564 1204 Q 640 1129 640 1024 L 640 384 L 448 384 L 448 1024 L 283 1188 Q 273 1182 264.5 1174.5 Q 256 1167 248 1159 Q 240 1151 232.5 1142.5 Q 225 1134 219 1124 L 320 1024 L 320 0 Z"/>
        </g>
        <g transform="matrix(1 0 0 1 15872 884)">
            <path fill="#000000" stroke="none" d="M 320 256 L 484 91 Q 494 97 502.49997 104.5 Q 511 112 519 120 Q 576 176 576 256 L 640 256 Q 640 150 564 75 Q 489 0 384 0 Q 278 0 203 75 Q 128 150 128 256 L 128 1024 Q 128 1129 203 1204 Q 278 1280 384 1280 Q 489 1280 564 1204 Q 640 1129 640 1024 L 640 384 L 320 384 L 320 256 Z M 320 448 L 448 448 L 448 1024 L 283 1188 Q 273 1182 264.5 1174.5 Q 256 1167 248 1159 Q 240 1151 232.5 1142.5 Q 225 1134 219 1124 L 320 1024 L 320 448 Z"/>
        </g>
        <g transform="matrix(1 0 0 1 16512 884)">
            <path fill="#000000" stroke="none" d="M 576 0 L 576 86 Q 573 83 570 80 Q 567 77 564 75 Q 489 0 384 0 Q 278 0 203 75 Q 128 150 128 256 L 128 640 Q 128 745 203 820 Q 278 896 384 896 L 448 896 L 448 1024 L 283 1188 Q 273 1182 264.5 1174.5 Q 256 1167 248 1159 Q 192 1103 192 1024 L 128 1024 Q 128 1129 203 1204 Q 278 1280 384 1280 Q 489 1280 564 1204 Q 640 1129 640 1024 L 640 0 L 576 0 Z M 320 256 L 484 91 Q 494 97 502.49997 104.5 Q 511 112 519 120 Q 527 128 534.5 136.5 Q 542 145 548 155 L 448 256 L 448 832 L 384 832 Q 304 832 248 775 Q 240 767 232.5 758.5 Q 225 750 219 740 L 320 640 L 320 256 Z"/>
        </g>
        <g transform="matrix(1 0 0 1 17152 884)">
            <path fill="#000000" stroke="none" d="M 320 256 L 448 128 L 448 0 L 384 0 Q 278 0 203 75 Q 128 150 128 256 L 128 1344 L 256 1472 L 320 1472 L 320 1280 L 480 1280 L 480 1216 L 320 1216 L 320 256 Z"/>
        </g>
        <g transform="matrix(1 0 0 1 17600 884)">
            <path fill="#000000" stroke="none" d="M 320 256 L 484 91 Q 494 97 502.49997 104.5 Q 511 112 519 120 Q 576 176 576 256 L 640 256 Q 640 150 564 75 Q 489 0 384 0 Q 278 0 203 75 Q 128 150 128 256 L 128 1024 Q 128 1129 203 1204 Q 278 1280 384 1280 Q 489 1280 564 1204 Q 640 1129 640 1024 L 640 384 L 320 384 L 320 256 Z M 320 448 L 448 448 L 448 1024 L 283 1188 Q 273 1182 264.5 1174.5 Q 256 1167 248 1159 Q 240 1151 232.5 1142.5 Q 225 1134 219 1124 L 320 1024 L 320 448 Z"/>
        </g>
        <g transform="matrix(1 0 0 1 18240 884)">
            <path fill="#000000" stroke="none" d="M 320 256 L 484 91 Q 494 97 502.49997 104.5 Q 511 112 519 120 Q 527 128 534.5 136.5 Q 542 145 548 155 L 448 256 L 448 448 L 128 768 L 128 1024 Q 128 1129 203 1204 Q 278 1280 384 1280 Q 489 1280 564 1204 Q 640 1129 640 1024 L 640 640 L 448 832 L 448 1024 L 283 1188 Q 273 1182 264.5 1174.5 Q 256 1167 248 1159 Q 240 1151 232.5 1142.5 Q 225 1134 219 1124 L 320 1024 L 320 832 L 640 512 L 640 256 Q 640 150 564 75 Q 489 0 384 0 Q 278 0 203 75 Q 128 150 128 256 L 128 640 L 320 448 L 320 256 Z"/>
        </g>
        <g transform="matrix(1 0 0 1 18880 884)">
            <path fill="#000000" stroke="none" d="M 320 256 L 448 128 L 448 0 L 384 0 Q 278 0 203 75 Q 128 150 128 256 L 128 1344 L 256 1472 L 320 1472 L 320 1280 L 480 1280 L 480 1216 L 320 1216 L 320 256 Z"/>
        </g>
        <g transform="matrix(1 0 0 1 19712 884)">
            <path fill="#000000" stroke="none" d="M 320 0 L 128 0 L 128 1280 L 192 1280 L 192 1193 Q 197 1199 203 1204 Q 278 1280 384 1280 Q 489 1280 564 1204 Q 640 1129 640 1024 L 640 384 L 448 384 L 448 1024 L 283 1188 Q 273 1182 264.5 1174.5 Q 256 1167 248 1159 Q 240 1151 232.5 1142.5 Q 225 1134 219 1124 L 320 1024 L 320 0 Z"/>
        </g>
        <g transform="matrix(1 0 0 1 20352 884)">
            <path fill="#000000" stroke="none" d="M 320 256 L 484 91 Q 494 97 502.49997 104.5 Q 511 112 519 120 Q 527 128 534.5 136.5 Q 542 145 548 155 L 448 256 L 448 1280 L 640 1280 L 640 0 L 576 0 L 576 86 Q 573 83 570 80 Q 567 77 564 75 Q 489 0 384 0 Q 278 0 203 75 Q 128 150 128 256 L 128 1280 L 320 1280 L 320 256 Z"/>
        </g>
        <g transform="matrix(1 0 0 1 20992 884)">
            <path fill="#000000" stroke="none" d="M 640 256 Q 640 150 564 75 Q 489 0 384 0 L 128 0 L 128 1664 L 320 1664 L 320 1280 L 384 1280 Q 489 1280 564 1204 Q 640 1129 640 1024 L 640 256 Z M 320 256 L 484 91 Q 494 97 502.49997 104.5 Q 511 112 519 120 Q 527 128 534.5 136.5 Q 542 145 548 155 L 448 256 L 448 1024 L 283 1188 Q 273 1182 264.5 1174.5 Q 256 1167 248 1159 Q 240 1151 232.5 1142.5 Q 225 1134 219 1124 L 320 1024 L 320 256 Z"/>
        </g>
        <g transform="matrix(1 0 0 1 21632 884)">
            <path fill="#000000" stroke="none" d="M 320 0 L 128 0 L 128 1280 L 192 1280 L 192 1193 Q 197 1199 203 1204 Q 278 1280 384 1280 Q 489 1280 564 1204 Q 640 1129 640 1024 L 640 384 L 448 384 L 448 1024 L 283 1188 Q 273 1182 264.5 1174.5 Q 256 1167 248 1159 Q 240 1151 232.5 1142.5 Q 225 1134 219 1124 L 320 1024 L 320 0 Z"/>
        </g>
        <g transform="matrix(1 0 0 1 22272 884)">
            <path fill="#000000" stroke="none" d="M 320 256 L 484 91 Q 494 97 502.49997 104.5 Q 511 112 519 120 Q 527 128 534.5 136.5 Q 542 145 548 155 L 448 256 L 448 1280 L 640 1280 L 640 0 L 576 0 L 576 86 Q 573 83 570 80 Q 567 77 564 75 Q 489 0 384 0 Q 278 0 203 75 Q 128 150 128 256 L 128 1280 L 320 1280 L 320 256 Z"/>
        </g>
        <g transform="matrix(1 0 0 1 22912 884)">
            <path fill="#000000" stroke="none" d="M 320 0 L 128 0 L 128 1280 L 192 1280 L 192 1193 Q 197 1199 203 1204 Q 278 1280 384 1280 Q 435 1280 483 1259 Q 516 1246 543 1223 Q 612 1280 704 1280 Q 809 1280 884 1204 Q 960 1129 960 1024 L 960 0 L 768 0 L 768 1024 L 603 1188 Q 593 1182 584.5 1174.5 Q 576 1167 568 1159 Q 560 1151 552.5 1142.5 Q 545 1134 539 1124 L 640 1024 L 640 0 L 448 0 L 448 1024 L 283 1188 Q 273 1182 264.5 1174.5 Q 256 1167 248 1159 Q 240 1151 232.5 1142.5 Q 225 1134 219 1124 L 320 1024 L 320 0 Z"/>
        </g>
    </g>
</svg>
