<svg width="20736" height="3048" viewBox="0 0 20736 3048" xmlns="http://www.w3.org/2000/svg">
    <defs/>
    <path fill="#000000" stroke="none" transform="matrix(1 0 0 -1 0 2164)" d="M 320 256 L 484 91 C 490.66666666667 95 497 99.66666666667 503 105 C 508.33333333333 109.66666666667 513.66666666667 114.66666666667 519 120 C 557 157.33333333333 576 202.66666666667 576 256 L 640 256 C 640 185.33333333333 614.66666666667 125 564 75 C 514 25 454 0 384 0 C 313.33333333333 0 253 25 203 75 C 153 125 128 185.33333333333 128 256 L 128 1280 C 128 1350 153 1410 203 1460 C 253 1510.66666666667 313.33333333333 1536 384 1536 C 454 1536 514 1510.66666666667 564 1460 C 614.66666666667 1410 640 1350 640 1280 L 640 384 L 448 384 L 448 1280 L 283 1444 C 276.33333333333 1440 270.33333333333 1435.66666666667 265 1431 C 259 1425.66666666667 253.33333333333 1420.33333333333 248 1415 C 242.66666666667 1409.66666666667 237.66666666667 1404.33333333333 233 1399 C 227.66666666667 1393 223 1386.66666666667 219 1380 L 320 1280 L 320 256 Z"/>
    <path fill="#000000" stroke="none" transform="matrix(1 0 0 -1 640 2164)" d="M 320 0 L 128 0 L 128 1536 L 448 1536 L 523 1460 C 573 1510.66666666667 633.33333333333 1536 704 1536 L 960 1536 L 960 0 L 768 0 L 768 1472 L 704 1472 C 650.66666666667 1472 605.33333333333 1453 568 1415 C 562.66666666667 1409.66666666667 557.66666666667 1404.33333333333 553 1399 C 547.66666666667 1393 543 1386.66666666667 539 1380 L 640 1280 L 640 0 L 448 0 L 448 1280 L 283 1444 C 276.33333333333 1440 270.33333333333 1435.66666666667 265 1431 C 259 1425.66666666667 253.33333333333 1420.33333333333 248 1415 C 242.66666666667 1409.66666666667 237.66666666667 1404.33333333333 233 1399 C 227.66666666667 1393 223 1386.66666666667 219 1380 L 320 1280 L 320 0 Z"/>
    <path fill="#000000" stroke="none" transform="matrix(1 0 0 -1 1600 2164)" d="M 320 0 L 128 0 L 128 1536 L 320 1536 L 320 960 L 484 795 C 490.66666666667 799 497 803.66666666667 503 809 C 508.33333333333 813.66666666667 513.66666666667 818.66666666667 519 824 C 524.33333333333 829.33333333333 529.66666666667 835 535 841 C 539.66666666667 846.33333333333 544 852.33333333333 548 859 L 448 960 L 448 1536 L 640 1536 L 640 960 C 640 889.33333333333 614.66666666667 829 564 779 C 552 767 540.66666666667 757 530 749 L 640 640 L 640 0 L 448 0 L 448 576 L 283 740 C 276.33333333333 736 270.33333333333 731.66666666667 265 727 C 259 721.66666666667 253.33333333333 716.33333333333 248 711 C 242.66666666667 705.66666666667 237.66666666667 700.33333333333 233 695 C 227.66666666667 689 223 682.66666666667 219 676 L 320 576 L 320 0 Z"/>
    <path fill="#000000" stroke="none" transform="matrix(1 0 0 -1 2240 2164)" d="M 320 256 L 484 91 C 490.66666666667 95 497 99.66666666667 503 105 C 508.33333333333 109.66666666667 513.66666666667 114.66666666667 519 120 C 524.33333333333 125.33333333333 529.66666666667 131 535 137 C 539.66666666667 142.33333333333 544 148.33333333333 548 155 L 448 256 L 448 576 L 128 896 L 128 1280 C 128 1350 153 1410 203 1460 C 253 1510.66666666667 313.33333333333 1536 384 1536 C 454 1536 514 1510.66666666667 564 1460 C 614.66666666667 1410 640 1350 640 1280 L 640 768 L 448 960 L 448 1280 L 283 1444 C 276.33333333333 1440 270.33333333333 1435.66666666667 265 1431 C 259 1425.66666666667 253.33333333333 1420.33333333333 248 1415 C 242.66666666667 1409.66666666667 237.66666666667 1404.33333333333 233 1399 C 227.66666666667 1393 223 1386.66666666667 219 1380 L 320 1280 L 320 960 L 640 640 L 640 256 C 640 185.33333333333 614.66666666667 125 564 75 C 514 25 454 0 384 0 C 313.33333333333 0 253 25 203 75 C 153 125 128 185.33333333333 128 256 L 128 768 L 320 576 L 320 256 Z"/>
    <path fill="#000000" stroke="none" transform="matrix(1 0 0 -1 2880 2164)" d="M 320 0 L 128 0 L 128 1536 L 384 1536 C 454 1536 514 1510.66666666667 564 1460 C 614.66666666667 1410 640 1350 640 1280 L 640 960 C 640 889.33333333333 614.66666666667 829 564 779 C 552 767 540.66666666667 757 530 749 L 640 640 L 640 0 L 448 0 L 448 576 L 283 740 C 276.33333333333 736 270.33333333333 731.66666666667 265 727 C 259 721.66666666667 253.33333333333 716.33333333333 248 711 C 242.66666666667 705.66666666667 237.66666666667 700.33333333333 233 695 C 227.66666666667 689 223 682.66666666667 219 676 L 320 576 L 320 0 Z M 320 960 L 484 795 C 490.66666666667 799 497 803.66666666667 503 809 C 508.33333333333 813.66666666667 513.66666666667 818.66666666667 519 824 C 524.33333333333 829.33333333333 529.66666666667 835 535 841 C 539.66666666667 846.33333333333 544 852.33333333333 548 859 L 448 960 L 448 1280 L 283 1444 C 276.33333333333 1440 270.33333333333 1435.66666666667 265 1431 C 259 1425.66666666667 253.33333333333 1420.33333333333 248 1415 C 242.66666666667 1409.66666666667 237.66666666667 1404.33333333333 233 1399 C 227.66666666667 1393 223 1386.66666666667 219 1380 L 320 1280 L 320 960 Z"/>
    <path fill="#000000" stroke="none" transform="matrix(1 0 0 -1 3520 2164)" d="M 64 -320 C 117.33333333333 -320 162.33333333333 -301 199 -263 C 204.33333333333 -257.66666666667 209.66666666667 -252 215 -246 C 219.66666666667 -240.66666666667 224 -234.66666666667 228 -228 L 128 -128 L 128 1536 L 320 1536 L 320 -128 C 320 -198 294.66666666667 -258 244 -308 C 194 -358.66666666667 134 -384 64 -384 L 64 -320 Z"/>
    <path fill="#000000" stroke="none" transform="matrix(1 0 0 -1 4224 2164)" d="M 80 64 L 128 64 L 128 1472 L 80 1472 L 80 1536 L 368 1536 L 368 1472 L 320 1472 L 320 64 L 368 64 L 368 0 L 80 0 L 80 64 Z"/>
    <path fill="#000000" stroke="none" transform="matrix(1 0 0 -1 4544 2164)" d="M 640 0 L 448 0 L 448 1472 L 384 1472 C 330.66666666667 1472 285.33333333333 1453 248 1415 C 242.66666666667 1409.66666666667 237.66666666667 1404.33333333333 233 1399 C 227.66666666667 1393 223 1386.66666666667 219 1380 L 320 1280 L 320 896 L 128 896 L 128 1536 L 960 1536 L 960 896 L 768 896 L 768 1472 L 704 1472 C 650.66666666667 1472 605.33333333333 1453 568 1415 C 562.66666666667 1409.66666666667 557.66666666667 1404.33333333333 553 1399 C 547.66666666667 1393 543 1386.66666666667 539 1380 L 640 1280 L 640 0 Z"/>
    <path fill="#000000" stroke="none" transform="matrix(1 0 0 -1 5504 2164)" d="M 320 256 L 484 91 C 490.66666666667 95 497 99.66666666667 503 105 C 508.33333333333 109.66666666667 513.66666666667 114.66666666667 519 120 C 524.33333333333 125.33333333333 529.66666666667 131 535 137 C 539.66666666667 142.33333333333 544 148.33333333333 548 155 L 448 256 L 448 576 L 128 896 L 128 1280 C 128 1350 153 1410 203 1460 C 253 1510.66666666667 313.33333333333 1536 384 1536 C 454 1536 514 1510.66666666667 564 1460 C 614.66666666667 1410 640 1350 640 1280 L 640 768 L 448 960 L 448 1280 L 283 1444 C 276.33333333333 1440 270.33333333333 1435.66666666667 265 1431 C 259 1425.66666666667 253.33333333333 1420.33333333333 248 1415 C 242.66666666667 1409.66666666667 237.66666666667 1404.33333333333 233 1399 C 227.66666666667 1393 223 1386.66666666667 219 1380 L 320 1280 L 320 960 L 640 640 L 640 256 C 640 185.33333333333 614.66666666667 125 564 75 C 514 25 454 0 384 0 C 313.33333333333 0 253 25 203 75 C 153 125 128 185.33333333333 128 256 L 128 768 L 320 576 L 320 256 Z"/>
    <path fill="#000000" stroke="none" transform="matrix(1 0 0 -1 6144 2164)" d="M 320 64 L 384 64 C 436.66666666667 64 481.66666666667 82.66666666667 519 120 C 524.33333333333 125.33333333333 529.66666666667 131 535 137 C 539.66666666667 142.33333333333 544 148.33333333333 548 155 L 448 256 L 448 640 L 640 640 L 640 0 L 128 0 L 128 1536 L 320 1536 L 320 64 Z"/>
    <path fill="#000000" stroke="none" transform="matrix(1 0 0 -1 6784 2164)" d="M 640 256 C 640 185.33333333333 614.66666666667 125 564 75 C 514 25 454 0 384 0 L 128 0 L 128 1536 L 384 1536 C 454 1536 514 1510.66666666667 564 1460 C 614.66666666667 1410 640 1350 640 1280 L 640 960 C 640 889.33333333333 614.66666666667 829 564 779 C 552 767 540.66666666667 757 530 749 L 640 640 L 640 256 Z M 320 64 L 384 64 C 436.66666666667 64 481.66666666667 82.66666666667 519 120 C 524.33333333333 125.33333333333 529.66666666667 131 535 137 C 539.66666666667 142.33333333333 544 148.33333333333 548 155 L 448 256 L 448 576 L 283 740 C 276.33333333333 736 270.33333333333 731.66666666667 265 727 C 259 721.66666666667 253.33333333333 716.33333333333 248 711 C 242.66666666667 705.66666666667 237.66666666667 700.33333333333 233 695 C 227.66666666667 689 223 682.66666666667 219 676 L 320 576 L 320 64 Z M 320 960 L 484 795 C 490.66666666667 799 497 803.66666666667 503 809 C 508.33333333333 813.66666666667 513.66666666667 818.66666666667 519 824 C 524.33333333333 829.33333333333 529.66666666667 835 535 841 C 539.66666666667 846.33333333333 544 852.33333333333 548 859 L 448 960 L 448 1280 L 283 1444 C 276.33333333333 1440 270.33333333333 1435.66666666667 265 1431 C 259 1425.66666666667 253.33333333333 1420.33333333333 248 1415 C 242.66666666667 1409.66666666667 237.66666666667 1404.33333333333 233 1399 C 227.66666666667 1393 223 1386.66666666667 219 1380 L 320 1280 L 320 960 Z"/>
    <path fill="#000000" stroke="none" transform="matrix(1 0 0 -1 7424 2164)" d="M 320 64 L 384 64 C 436.66666666667 64 481.66666666667 82.66666666667 519 120 C 524.33333333333 125.33333333333 529.66666666667 131 535 137 C 539.66666666667 142.33333333333 544 148.33333333333 548 155 L 448 256 L 448 640 L 640 832 L 640 0 L 128 0 L 128 576 L 448 896 L 448 1472 L 384 1472 C 330.66666666667 1472 285.33333333333 1453 248 1415 C 242.66666666667 1409.66666666667 237.66666666667 1404.33333333333 233 1399 C 227.66666666667 1393 223 1386.66666666667 219 1380 L 320 1280 L 320 896 L 128 704 L 128 1536 L 640 1536 L 640 960 L 320 640 L 320 64 Z"/>
    <path fill="#000000" stroke="none" transform="matrix(1 0 0 -1 8448 2164)" d="M 320 0 L 128 0 L 128 448 C 128 518 153 578 203 628 C 215 640 226.33333333333 650 237 658 L 128 768 L 128 1280 L 320 1280 L 320 832 L 484 667 C 490.66666666667 671 497 675.66666666667 503 681 C 508.33333333333 685.66666666667 513.66666666667 690.66666666667 519 696 C 524.33333333333 701.33333333333 529.66666666667 707 535 713 C 539.66666666667 718.33333333333 544 724.33333333333 548 731 L 448 832 L 448 1280 L 640 1280 L 640 832 C 640 761.33333333333 614.66666666667 701 564 651 C 552 639 540.66666666667 629 530 621 L 640 512 L 640 0 L 448 0 L 448 448 L 283 612 C 276.33333333333 608 270.33333333333 603.66666666667 265 599 C 259 593.66666666667 253.33333333333 588.33333333333 248 583 C 242.66666666667 577.66666666667 237.66666666667 572.33333333333 233 567 C 227.66666666667 561 223 554.66666666667 219 548 L 320 448 L 320 0 Z"/>
    <path fill="#000000" stroke="none" transform="matrix(1 0 0 -1 9088 2164)" d="M 320 0 L 128 0 L 128 1664 L 320 1664 L 320 1280 L 384 1280 C 454 1280 514 1254.66666666667 564 1204 C 614.66666666667 1154 640 1094 640 1024 L 640 0 L 448 0 L 448 1024 L 283 1188 C 276.33333333333 1184 270.33333333333 1179.66666666667 265 1175 C 259 1169.66666666667 253.33333333333 1164.33333333333 248 1159 C 242.66666666667 1153.66666666667 237.66666666667 1148.33333333333 233 1143 C 227.66666666667 1137 223 1130.66666666667 219 1124 L 320 1024 L 320 0 Z"/>
    <path fill="#000000" stroke="none" transform="matrix(1 0 0 -1 9728 2164)" d="M 320 256 L 484 91 C 490.66666666667 95 497 99.66666666667 503 105 C 508.33333333333 109.66666666667 513.66666666667 114.66666666667 519 120 C 557 157.33333333333 576 202.66666666667 576 256 L 640 256 C 640 185.33333333333 614.66666666667 125 564 75 C 514 25 454 0 384 0 C 313.33333333333 0 253 25 203 75 C 153 125 128 185.33333333333 128 256 L 128 1024 C 128 1094 153 1154 203 1204 C 253 1254.66666666667 313.33333333333 1280 384 1280 C 454 1280 514 1254.66666666667 564 1204 C 614.66666666667 1154 640 1094 640 1024 L 640 384 L 320 384 L 320 256 Z M 320 448 L 448 448 L 448 1024 L 283 1188 C 276.33333333333 1184 270.33333333333 1179.66666666667 265 1175 C 259 1169.66666666667 253.33333333333 1164.33333333333 248 1159 C 242.66666666667 1153.66666666667 237.66666666667 1148.33333333333 233 1143 C 227.66666666667 1137 223 1130.66666666667 219 1124 L 320 1024 L 320 448 Z"/>
    <path fill="#000000" stroke="none" transform="matrix(1 0 0 -1 10368 2164)" d="M 576 0 L 576 86 C 574 84 572 82 570 80 C 568 78 566 76.33333333333 564 75 C 514 25 454 0 384 0 C 313.33333333333 0 253 25 203 75 C 153 125 128 185.33333333333 128 256 L 128 1024 C 128 1094 153 1154 203 1204 C 253 1254.66666666667 313.33333333333 1280 384 1280 L 448 1280 L 448 1664 L 640 1664 L 640 0 L 576 0 Z M 320 256 L 484 91 C 490.66666666667 95 497 99.66666666667 503 105 C 508.33333333333 109.66666666667 513.66666666667 114.66666666667 519 120 C 524.33333333333 125.33333333333 529.66666666667 131 535 137 C 539.66666666667 142.33333333333 544 148.33333333333 548 155 L 448 256 L 448 1024 L 283 1188 C 276.33333333333 1184 270.33333333333 1179.66666666667 265 1175 C 259 1169.66666666667 253.33333333333 1164.33333333333 248 1159 C 242.66666666667 1153.66666666667 237.66666666667 1148.33333333333 233 1143 C 227.66666666667 1137 223 1130.66666666667 219 1124 L 320 1024 L 320 256 Z"/>
    <path fill="#000000" stroke="none" transform="matrix(1 0 0 -1 11008 2164)" d="M 320 0 L 128 0 L 128 1664 L 320 1664 L 320 1280 L 384 1280 C 454 1280 514 1254.66666666667 564 1204 C 614.66666666667 1154 640 1094 640 1024 L 640 0 L 448 0 L 448 1024 L 283 1188 C 276.33333333333 1184 270.33333333333 1179.66666666667 265 1175 C 259 1169.66666666667 253.33333333333 1164.33333333333 248 1159 C 242.66666666667 1153.66666666667 237.66666666667 1148.33333333333 233 1143 C 227.66666666667 1137 223 1130.66666666667 219 1124 L 320 1024 L 320 0 Z"/>
    <path fill="#000000" stroke="none" transform="matrix(1 0 0 -1 11648 2164)" d="M 576 0 L 576 86 C 574 84 572 82 570 80 C 568 78 566 76.33333333333 564 75 C 514 25 454 0 384 0 C 313.33333333333 0 253 25 203 75 C 153 125 128 185.33333333333 128 256 L 128 640 C 128 710 153 770 203 820 C 253 870.66666666667 313.33333333333 896 384 896 L 448 896 L 448 1024 L 283 1188 C 276.33333333333 1184 270.33333333333 1179.66666666667 265 1175 C 259 1169.66666666667 253.33333333333 1164.33333333333 248 1159 C 210.66666666667 1121.66666666667 192 1076.66666666667 192 1024 L 128 1024 C 128 1094 153 1154 203 1204 C 253 1254.66666666667 313.33333333333 1280 384 1280 C 454 1280 514 1254.66666666667 564 1204 C 614.66666666667 1154 640 1094 640 1024 L 640 0 L 576 0 Z M 320 256 L 484 91 C 490.66666666667 95 497 99.66666666667 503 105 C 508.33333333333 109.66666666667 513.66666666667 114.66666666667 519 120 C 524.33333333333 125.33333333333 529.66666666667 131 535 137 C 539.66666666667 142.33333333333 544 148.33333333333 548 155 L 448 256 L 448 832 L 384 832 C 330.66666666667 832 285.33333333333 813 248 775 C 242.66666666667 769.66666666667 237.66666666667 764.33333333333 233 759 C 227.66666666667 753 223 746.66666666667 219 740 L 320 640 L 320 256 Z"/>
    <path fill="#000000" stroke="none" transform="matrix(1 0 0 -1 12672 2164)" d="M 320 -384 L 128 -384 L 128 1280 L 192 1280 L 192 1193 C 195.33333333333 1197 199 1200.66666666667 203 1204 C 253 1254.66666666667 313.33333333333 1280 384 1280 C 454 1280 514 1254.66666666667 564 1204 C 614.66666666667 1154 640 1094 640 1024 L 640 256 C 640 185.33333333333 614.66666666667 125 564 75 C 514 25 454 0 384 0 L 320 0 L 320 -384 Z M 320 256 L 484 91 C 490.66666666667 95 497 99.66666666667 503 105 C 508.33333333333 109.66666666667 513.66666666667 114.66666666667 519 120 C 524.33333333333 125.33333333333 529.66666666667 131 535 137 C 539.66666666667 142.33333333333 544 148.33333333333 548 155 L 448 256 L 448 1024 L 283 1188 C 276.33333333333 1184 270.33333333333 1179.66666666667 265 1175 C 259 1169.66666666667 253.33333333333 1164.33333333333 248 1159 C 242.66666666667 1153.66666666667 237.66666666667 1148.33333333333 233 1143 C 227.66666666667 1137 223 1130.66666666667 219 1124 L 320 1024 L 320 256 Z"/>
    <path fill="#000000" stroke="none" transform="matrix(1 0 0 -1 13312 2164)" d="M 384 0 C 313.33333333333 0 253 25 203 75 C 153 125 128 185.33333333333 128 256 L 128 1024 C 128 1094 153 1154 203 1204 C 253 1254.66666666667 313.33333333333 1280 384 1280 L 640 1280 L 640 -384 L 448 -384 L 448 0 L 384 0 Z M 320 256 L 484 91 C 490.66666666667 95 497 99.66666666667 503 105 C 508.33333333333 109.66666666667 513.66666666667 114.66666666667 519 120 C 524.33333333333 125.33333333333 529.66666666667 131 535 137 C 539.66666666667 142.33333333333 544 148.33333333333 548 155 L 448 256 L 448 1024 L 283 1188 C 276.33333333333 1184 270.33333333333 1179.66666666667 265 1175 C 259 1169.66666666667 253.33333333333 1164.33333333333 248 1159 C 242.66666666667 1153.66666666667 237.66666666667 1148.33333333333 233 1143 C 227.66666666667 1137 223 1130.66666666667 219 1124 L 320 1024 L 320 256 Z"/>
    <path fill="#000000" stroke="none" transform="matrix(1 0 0 -1 13952 2164)" d="M 320 0 L 128 0 L 128 1280 L 192 1280 L 192 1193 C 195.33333333333 1197 199 1200.66666666667 203 1204 C 253 1254.66666666667 313.33333333333 1280 384 1280 C 454 1280 514 1254.66666666667 564 1204 C 614.66666666667 1154 640 1094 640 1024 L 640 0 L 448 0 L 448 1024 L 283 1188 C 276.33333333333 1184 270.33333333333 1179.66666666667 265 1175 C 259 1169.66666666667 253.33333333333 1164.33333333333 248 1159 C 242.66666666667 1153.66666666667 237.66666666667 1148.33333333333 233 1143 C 227.66666666667 1137 223 1130.66666666667 219 1124 L 320 1024 L 320 0 Z"/>
    <path fill="#000000" stroke="none" transform="matrix(1 0 0 -1 14592 2164)" d="M 320 0 L 128 0 L 128 1280 L 192 1280 L 192 1193 C 195.33333333333 1197 199 1200.66666666667 203 1204 C 253 1254.66666666667 313.33333333333 1280 384 1280 C 454 1280 514 1254.66666666667 564 1204 C 614.66666666667 1154 640 1094 640 1024 L 640 0 L 448 0 L 448 1024 L 283 1188 C 276.33333333333 1184 270.33333333333 1179.66666666667 265 1175 C 259 1169.66666666667 253.33333333333 1164.33333333333 248 1159 C 242.66666666667 1153.66666666667 237.66666666667 1148.33333333333 233 1143 C 227.66666666667 1137 223 1130.66666666667 219 1124 L 320 1024 L 320 0 Z"/>
    <path fill="#000000" stroke="none" transform="matrix(1 0 0 -1 15232 2164)" d="M 320 0 L 128 0 L 128 1408 C 128 1478 153 1538 203 1588 C 253 1638.66666666667 313.33333333333 1664 384 1664 C 454 1664 514 1638.66666666667 564 1588 C 614.66666666667 1538 640 1478 640 1408 L 448 1408 L 283 1572 C 276.33333333333 1568 270.33333333333 1563.66666666667 265 1559 C 259 1553.66666666667 253.33333333333 1548.33333333333 248 1543 C 210.66666666667 1505.66666666667 192 1460.66666666667 192 1408 L 192 1280 L 640 1280 L 640 1216 L 192 1216 L 192 1152 L 320 1024 L 320 0 Z"/>
    <path fill="#000000" stroke="none" transform="matrix(1 0 0 -1 15744 2164)" d="M 128 192 L 128 1280 L 320 1280 L 320 256 L 384 192 L 484 91 C 490.66666666667 95 497 99.66666666667 503 105 C 508.33333333333 109.66666666667 513.66666666667 114.66666666667 519 120 C 524.33333333333 125.33333333333 529.66666666667 131 535 137 C 539.66666666667 142.33333333333 544 148.33333333333 548 155 L 448 256 L 448 1280 L 640 1280 L 640 256 C 640 185.33333333333 614.66666666667 125 564 75 C 514 25 454 0 384 0 L 320 0 L 128 192 Z"/>
    <path fill="#000000" stroke="none" transform="matrix(1 0 0 -1 16768 2164)" d="M 128 128 C 128 198 153 258 203 308 C 215 320 226.33333333333 330 237 338 L 128 448 C 128 509.33333333333 146.33333333333 562.66666666667 183 608 C 146.33333333333 652.66666666667 128 706 128 768 L 128 1024 C 128 1094 153 1154 203 1204 C 253 1254.66666666667 313.33333333333 1280 384 1280 L 640 1280 L 640 1216 L 553 1216 C 555 1214 557 1212 559 1210 C 561 1208 562.66666666667 1206 564 1204 C 614.66666666667 1154 640 1094 640 1024 L 640 768 C 640 697.33333333333 614.66666666667 637 564 587 C 514 537 454 512 384 512 C 356 512 331 515.33333333333 309 522 L 640 192 L 640 -128 C 640 -198 614.66666666667 -258 564 -308 C 514 -358.66666666667 454 -384 384 -384 C 313.33333333333 -384 253 -358.66666666667 203 -308 C 153 -258 128 -198 128 -128 L 128 128 Z M 320 768 L 484 603 C 490.66666666667 607 497 611.66666666667 503 617 C 508.33333333333 621.66666666667 513.66666666667 626.66666666667 519 632 C 524.33333333333 637.33333333333 529.66666666667 643 535 649 C 539.66666666667 654.33333333333 544 660.33333333333 548 667 L 448 768 L 448 1024 L 283 1188 C 276.33333333333 1184 270.33333333333 1179.66666666667 265 1175 C 259 1169.66666666667 253.33333333333 1164.33333333333 248 1159 C 242.66666666667 1153.66666666667 237.66666666667 1148.33333333333 233 1143 C 227.66666666667 1137 223 1130.66666666667 219 1124 L 320 1024 L 320 768 Z M 320 -128 L 484 -292 C 490.66666666667 -288 497 -283.33333333333 503 -278 C 508.33333333333 -273.33333333333 513.66666666667 -268.33333333333 519 -263 C 524.33333333333 -257.66666666667 529.66666666667 -252 535 -246 C 539.66666666667 -240.66666666667 544 -234.66666666667 548 -228 L 448 -128 L 448 128 L 283 292 C 276.33333333333 288 270.33333333333 283.66666666667 265 279 C 259 273.66666666667 253.33333333333 268.33333333333 248 263 C 242.66666666667 257.66666666667 237.66666666667 252.33333333333 233 247 C 227.66666666667 241 223 234.66666666667 219 228 L 320 128 L 320 -128 Z"/>
    <path fill="#000000" stroke="none" transform="matrix(1 0 0 -1 17408 2164)" d="M 320 -384 L 128 -384 L 128 1280 L 192 1280 L 192 1193 C 195.33333333333 1197 199 1200.66666666667 203 1204 C 253 1254.66666666667 313.33333333333 1280 384 1280 C 454 1280 514 1254.66666666667 564 1204 C 614.66666666667 1154 640 1094 640 1024 L 640 256 C 640 185.33333333333 614.66666666667 125 564 75 C 514 25 454 0 384 0 L 320 0 L 320 -384 Z M 320 256 L 484 91 C 490.66666666667 95 497 99.66666666667 503 105 C 508.33333333333 109.66666666667 513.66666666667 114.66666666667 519 120 C 524.33333333333 125.33333333333 529.66666666667 131 535 137 C 539.66666666667 142.33333333333 544 148.33333333333 548 155 L 448 256 L 448 1024 L 283 1188 C 276.33333333333 1184 270.33333333333 1179.66666666667 265 1175 C 259 1169.66666666667 253.33333333333 1164.33333333333 248 1159 C 242.66666666667 1153.66666666667 237.66666666667 1148.33333333333 233 1143 C 227.66666666667 1137 223 1130.66666666667 219 1124 L 320 1024 L 320 256 Z"/>
    <path fill="#000000" stroke="none" transform="matrix(1 0 0 -1 18048 2164)" d="M 320 0 L 128 0 L 128 1280 L 192 1280 L 192 1193 C 195.33333333333 1197 199 1200.66666666667 203 1204 C 253 1254.66666666667 313.33333333333 1280 384 1280 C 454 1280 514 1254.66666666667 564 1204 C 614.66666666667 1154 640 1094 640 1024 L 640 384 L 448 384 L 448 1024 L 283 1188 C 276.33333333333 1184 270.33333333333 1179.66666666667 265 1175 C 259 1169.66666666667 253.33333333333 1164.33333333333 248 1159 C 242.66666666667 1153.66666666667 237.66666666667 1148.33333333333 233 1143 C 227.66666666667 1137 223 1130.66666666667 219 1124 L 320 1024 L 320 0 Z"/>
    <path fill="#000000" stroke="none" transform="matrix(1 0 0 -1 18688 2164)" d="M 320 0 L 128 0 L 128 1664 L 320 1664 L 320 832 L 484 667 C 490.66666666667 671 497 675.66666666667 503 681 C 508.33333333333 685.66666666667 513.66666666667 690.66666666667 519 696 C 524.33333333333 701.33333333333 529.66666666667 707 535 713 C 539.66666666667 718.33333333333 544 724.33333333333 548 731 L 448 832 L 448 1280 L 640 1280 L 640 832 C 640 761.33333333333 614.66666666667 701 564 651 C 552 639 540.66666666667 629 530 621 L 640 512 L 640 0 L 448 0 L 448 448 L 283 612 C 276.33333333333 608 270.33333333333 603.66666666667 265 599 C 259 593.66666666667 253.33333333333 588.33333333333 248 583 C 242.66666666667 577.66666666667 237.66666666667 572.33333333333 233 567 C 227.66666666667 561 223 554.66666666667 219 548 L 320 448 L 320 0 Z"/>
    <path fill="#000000" stroke="none" transform="matrix(1 0 0 -1 19328 2164)" d="M 320 256 L 448 128 L 448 0 L 384 0 C 313.33333333333 0 253 25 203 75 C 153 125 128 185.33333333333 128 256 L 128 1344 L 256 1472 L 320 1472 L 320 1280 L 480 1280 L 480 1216 L 320 1216 L 320 256 Z"/>
    <path fill="#000000" stroke="none" transform="matrix(1 0 0 -1 19776 2164)" d="M 128 192 L 128 1280 L 320 1280 L 320 256 L 384 192 L 484 91 C 490.66666666667 95 497 99.66666666667 503 105 C 508.33333333333 109.66666666667 513.66666666667 114.66666666667 519 120 C 524.33333333333 125.33333333333 529.66666666667 131 535 137 C 539.66666666667 142.33333333333 544 148.33333333333 548 155 L 448 256 L 448 1280 L 640 1280 L 640 256 L 804 91 C 810.66666666667 95 817 99.66666666667 823 105 C 828.33333333333 109.66666666667 833.66666666667 114.66666666667 839 120 C 844.33333333333 125.33333333333 849.66666666667 131 855 137 C 859.66666666667 142.33333333333 864 148.33333333333 868 155 L 768 256 L 768 1280 L 960 1280 L 960 256 C 960 185.33333333333 934.66666666667 125 884 75 C 834 25 774 0 704 0 L 640 0 L 564 75 C 514 25 454 0 384 0 L 320 0 L 128 192 Z"/>
</svg>
