<svg width="33000" height="3701" viewBox="0 0 33000 3701" xmlns="http://www.w3.org/2000/svg">
    <defs/>
    <path fill="#000000" stroke="none" transform="matrix(1 0 0 -1 0 2646)" d="M 639 221 L 589 0 L 738 0 L 1277 1456 L 1068 1456 L 639 221 Z M 238 1456 L 29 1456 L 567 0 L 716 0 L 663 221 L 238 1456 Z"/>
    <path fill="#000000" stroke="none" transform="matrix(1 0 0 -1 1258 2646)" d="M 778 185 C 778 169.66666666667 778.66666666667 153.33333333333 780 136 C 781.33333333333 118.66666666667 783.33333333333 101.66666666667 786 85 C 788.66666666667 68.33333333333 792 52.66666666667 796 38 C 799.33333333333 23.33333333333 803.33333333333 10.66666666667 808 0 L 1001 0 L 1001 16 C 995 30.66666666667 989.66666666667 47 985 65 C 979.66666666667 83 975.66666666667 101.66666666667 973 121 C 969.66666666667 140.33333333333 967.33333333333 160 966 180 C 964 199.33333333333 963 218 963 236 L 963 740 C 963 800.66666666667 953 853.66666666667 933 899 C 913 944.33333333333 885.33333333333 982 850 1012 C 814.66666666667 1042 772.33333333333 1064.66666666667 723 1080 C 673.66666666667 1094.66666666667 619.66666666667 1102 561 1102 C 495.66666666667 1102 436.66666666667 1092.66666666667 384 1074 C 330.66666666667 1055.33333333333 285.33333333333 1031 248 1001 C 210.66666666667 970.33333333333 182 936 162 898 C 141.33333333333 859.33333333333 131 820.66666666667 131 782 L 316 782 C 316 804.66666666667 321.66666666667 826.33333333333 333 847 C 344.33333333333 867.66666666667 360.33333333333 886 381 902 C 401 917.33333333333 425.66666666667 929.66666666667 455 939 C 483.66666666667 948.33333333333 515.33333333333 953 550 953 C 587.33333333333 953 620.33333333333 948 649 938 C 677.66666666667 928 701.66666666667 914 721 896 C 739.66666666667 877.33333333333 754 855 764 829 C 773.33333333333 803 778 774 778 742 L 778 185 Z M 810 656 L 595 656 C 521 656 454 648.33333333333 394 633 C 334 617.66666666667 283 595.33333333333 241 566 C 198.33333333333 536 165.66666666667 499 143 455 C 119.66666666667 410.33333333333 108 359 108 301 C 108 256.33333333333 116.66666666667 214.33333333333 134 175 C 151.33333333333 135.66666666667 176 101.66666666667 208 73 C 240 44.33333333333 278.66666666667 21.66666666667 324 5 C 368.66666666667 -11.66666666667 418.66666666667 -20 474 -20 C 532.66666666667 -20 585.66666666667 -9.66666666667 633 11 C 679.66666666667 31.66666666667 720.33333333333 57.33333333333 755 88 C 789 118 816.33333333333 150.33333333333 837 185 C 857.66666666667 219 870.33333333333 250 875 278 L 796 367 C 794.66666666667 342.33333333333 786.66666666667 317 772 291 C 756.66666666667 264.33333333333 736 240 710 218 C 684 196 653.33333333333 178 618 164 C 582 149.33333333333 543 142 501 142 C 467 142 437 147 411 157 C 385 166.33333333333 363.33333333333 179.33333333333 346 196 C 328.66666666667 212 315.66666666667 231.33333333333 307 254 C 298.33333333333 276 294 300 294 326 C 294 359.33333333333 301.33333333333 388.66666666667 316 414 C 330.66666666667 438.66666666667 352 459.33333333333 380 476 C 408 492.66666666667 442.66666666667 505.33333333333 484 514 C 525.33333333333 522 572.33333333333 526 625 526 L 812 526 L 810 656 Z M 259 1371 C 259 1356.33333333333 261.33333333333 1342.66666666667 266 1330 C 270.66666666667 1317.33333333333 277.66666666667 1306.33333333333 287 1297 C 296.33333333333 1287.66666666667 307.66666666667 1280.33333333333 321 1275 C 334.33333333333 1269.66666666667 350 1267 368 1267 C 386 1267 402 1269.66666666667 416 1275 C 429.33333333333 1280.33333333333 440.66666666667 1287.66666666667 450 1297 C 459.33333333333 1306.33333333333 466.33333333333 1317.33333333333 471 1330 C 475.66666666667 1342.66666666667 478 1356.33333333333 478 1371 C 478 1386.33333333333 475.66666666667 1400.66666666667 471 1414 C 466.33333333333 1426.66666666667 459.33333333333 1437.66666666667 450 1447 C 440.66666666667 1456.33333333333 429.33333333333 1464 416 1470 C 402 1475.33333333333 386 1478 368 1478 C 350 1478 334.33333333333 1475.33333333333 321 1470 C 307.66666666667 1464 296.33333333333 1456.33333333333 287 1447 C 277.66666666667 1437.66666666667 270.66666666667 1426.66666666667 266 1414 C 261.33333333333 1400.66666666667 259 1386.33333333333 259 1371 Z M 690 1369 C 690 1354.33333333333 692.33333333333 1340.66666666667 697 1328 C 701.66666666667 1315.33333333333 708.66666666667 1304.33333333333 718 1295 C 726.66666666667 1285.66666666667 738 1278.33333333333 752 1273 C 765.33333333333 1267.66666666667 781 1265 799 1265 C 817 1265 833 1267.66666666667 847 1273 C 860.33333333333 1278.33333333333 871.66666666667 1285.66666666667 881 1295 C 890.33333333333 1304.33333333333 897.33333333333 1315.33333333333 902 1328 C 906.66666666667 1340.66666666667 909 1354.33333333333 909 1369 C 909 1384.33333333333 906.66666666667 1398.66666666667 902 1412 C 897.33333333333 1424.66666666667 890.33333333333 1435.66666666667 881 1445 C 871.66666666667 1454.33333333333 860.33333333333 1462 847 1468 C 833 1473.33333333333 817 1476 799 1476 C 781 1476 765.33333333333 1473.33333333333 752 1468 C 738 1462 726.66666666667 1454.33333333333 718 1445 C 708.66666666667 1435.66666666667 701.66666666667 1424.66666666667 697 1412 C 692.33333333333 1398.66666666667 690 1384.33333333333 690 1369 Z"/>
    <path fill="#000000" stroke="none" transform="matrix(1 0 0 -1 2372 2646)" d="M 342 1536 L 156 1536 L 156 0 L 342 0 L 342 1536 Z"/>
    <path fill="#000000" stroke="none" transform="matrix(1 0 0 -1 2870 2646)" d="M 594 1082 L 9 1082 L 9 940 L 594 940 L 594 1082 Z M 207 1345 L 207 269 C 207 215 213.66666666667 169.66666666667 227 133 C 239.66666666667 95.66666666667 257.33333333333 65.66666666667 280 43 C 302.66666666667 20.33333333333 329.33333333333 4.33333333333 360 -5 C 390 -15 422 -20 456 -20 C 472.66666666667 -20 488 -19.33333333333 502 -18 C 516 -16.66666666667 529 -15 541 -13 C 553 -11 564 -8.66666666667 574 -6 C 583.33333333333 -4 591.66666666667 -2 599 0 L 598 151 C 589.33333333333 149 576.66666666667 146.66666666667 560 144 C 542.66666666667 140.66666666667 526.33333333333 139 511 139 C 495.66666666667 139 481 140.66666666667 467 144 C 452.33333333333 146.66666666667 439.66666666667 152.66666666667 429 162 C 417.66666666667 171.33333333333 408.66666666667 184.33333333333 402 201 C 395.33333333333 217.66666666667 392 240 392 268 L 392 1345 L 207 1345 Z"/>
    <path fill="#000000" stroke="none" transform="matrix(1 0 0 -1 3520 2646)" d="M 92 529 C 92 451 103.66666666667 378.66666666667 127 312 C 149.66666666667 244.66666666667 182.33333333333 186.66666666667 225 138 C 267 88.66666666667 318.66666666667 50 380 22 C 440.66666666667 -6 509 -20 585 -20 C 661 -20 729.33333333333 -6 790 22 C 850.66666666667 50 902.33333333333 88.66666666667 945 138 C 987 186.66666666667 1019.66666666667 244.66666666667 1043 312 C 1065.66666666667 378.66666666667 1077 451 1077 529 L 1077 552 C 1077 630 1065.66666666667 702.66666666667 1043 770 C 1019.66666666667 837.33333333333 986.66666666667 895.66666666667 944 945 C 901.33333333333 993.66666666667 849.66666666667 1032 789 1060 C 727.66666666667 1088 659 1102 583 1102 C 507.66666666667 1102 439.66666666667 1088 379 1060 C 318.33333333333 1032 267 993.66666666667 225 945 C 182.33333333333 895.66666666667 149.66666666667 837.33333333333 127 770 C 103.66666666667 702.66666666667 92 630 92 552 L 92 529 Z M 277 552 C 277 605.33333333333 283.33333333333 656 296 704 C 308.66666666667 752 328 794.33333333333 354 831 C 379.33333333333 867 411.33333333333 896 450 918 C 488 939.33333333333 532.33333333333 950 583 950 C 634.33333333333 950 679.33333333333 939.33333333333 718 918 C 756 896 788 867 814 831 C 839.33333333333 794.33333333333 858.66666666667 752 872 704 C 884.66666666667 656 891 605.33333333333 891 552 L 891 529 C 891 475 884.66666666667 424 872 376 C 858.66666666667 328 839.33333333333 286 814 250 C 788.66666666667 214 757 185.33333333333 719 164 C 680.33333333333 142.66666666667 635.66666666667 132 585 132 C 533.66666666667 132 488.66666666667 142.66666666667 450 164 C 411.33333333333 185.33333333333 379.33333333333 214 354 250 C 328 286 308.66666666667 328 296 376 C 283.33333333333 424 277 475 277 529 L 277 552 Z"/>
    <path fill="#000000" stroke="none" transform="matrix(1 0 0 -1 4672 2646)" d="M 946 152 L 159 152 L 159 0 L 946 0 L 946 152 Z M 917 951 L 917 1082 L 799 1082 L 88 136 L 88 0 L 201 0 L 917 951 Z M 835 1082 L 96 1082 L 96 929 L 835 929 L 835 1082 Z M 362 1535 L 206 1535 L 206 1525 L 456 1251 L 570 1251 L 824 1525 L 824 1535 L 664 1535 L 513 1365 L 362 1535 Z"/>
    <path fill="#000000" stroke="none" transform="matrix(1 0 0 -1 5672 2646)" d="M 590 -20 C 643.33333333333 -20 691.33333333333 -14 734 -2 C 776.66666666667 9.33333333333 814.66666666667 25 848 45 C 880.66666666667 64.33333333333 909.33333333333 86.66666666667 934 112 C 958.66666666667 136.66666666667 979.66666666667 162.33333333333 997 189 L 885 278 C 868.33333333333 256 850.33333333333 236 831 218 C 811 199.33333333333 789.33333333333 183.66666666667 766 171 C 742.66666666667 158.33333333333 717.33333333333 148.66666666667 690 142 C 662.66666666667 134.66666666667 632.66666666667 131 600 131 C 549.33333333333 131 504.33333333333 141 465 161 C 425 180.33333333333 391.33333333333 207 364 241 C 336.66666666667 274.33333333333 315.66666666667 313.66666666667 301 359 C 286.33333333333 403.66666666667 279 451.66666666667 279 503 L 279 545 C 279 610.33333333333 286 668 300 718 C 314 768 333.66666666667 810.33333333333 359 845 C 384.33333333333 879.66666666667 414.66666666667 906 450 924 C 485.33333333333 941.33333333333 524 950 566 950 C 613.33333333333 950 653 941.33333333333 685 924 C 717 906.66666666667 743.33333333333 884 764 856 C 784 828 799 796.33333333333 809 761 C 818.33333333333 725.66666666667 824 690 826 654 L 826 640 L 203 640 L 203 489 L 1011 489 L 1011 572 C 1011 648 1002.33333333333 718.33333333333 985 783 C 967.66666666667 847.66666666667 941 903.66666666667 905 951 C 868.33333333333 998.33333333333 822 1035.33333333333 766 1062 C 710 1088.66666666667 643.33333333333 1102 566 1102 C 505.33333333333 1102 446.66666666667 1089.66666666667 390 1065 C 332.66666666667 1039.66666666667 282 1003.33333333333 238 956 C 194 908.66666666667 159 850.33333333333 133 781 C 106.33333333333 711.66666666667 93 633 93 545 L 93 503 C 93 427 104.66666666667 357 128 293 C 151.33333333333 229 184.66666666667 174 228 128 C 271.33333333333 81.33333333333 323.66666666667 45 385 19 C 446.33333333333 -7 514.66666666667 -20 590 -20 Z"/>
    <path fill="#000000" stroke="none" transform="matrix(1 0 0 -1 7266 2646)" d="M 835 1553 C 835 1527 829.33333333333 1505.33333333333 818 1488 C 806.66666666667 1470.66666666667 790.33333333333 1456 769 1444 C 747.66666666667 1432 721.66666666667 1422 691 1414 C 660.33333333333 1406 625.33333333333 1398.33333333333 586 1391 C 538 1381.66666666667 492.66666666667 1367.33333333333 450 1348 C 406.66666666667 1328.66666666667 367 1303.66666666667 331 1273 C 295 1242.33333333333 262.66666666667 1205.66666666667 234 1163 C 204.66666666667 1120.33333333333 180 1071.66666666667 160 1017 C 140 961.66666666667 124.66666666667 900 114 832 C 103.33333333333 764 98 689 98 607 L 98 515 L 250 515 L 250 607 C 245.33333333333 680.33333333333 246 745.66666666667 252 803 C 257.33333333333 859.66666666667 267.66666666667 910 283 954 C 298.33333333333 997.33333333333 317.66666666667 1034.66666666667 341 1066 C 363.66666666667 1097.33333333333 390 1124 420 1146 C 449.33333333333 1167.33333333333 481.66666666667 1185 517 1199 C 551.66666666667 1212.33333333333 588 1223 626 1231 C 672 1241 716.66666666667 1251.33333333333 760 1262 C 803.33333333333 1272 842 1287.66666666667 876 1309 C 909.33333333333 1330.33333333333 936.33333333333 1360 957 1398 C 977 1436 987 1487.66666666667 987 1553 L 835 1553 Z M 616 1020 C 558.66666666667 1020 506 1010.66666666667 458 992 C 409.33333333333 973.33333333333 365.66666666667 948.66666666667 327 918 C 287.66666666667 886.66666666667 253.66666666667 850.66666666667 225 810 C 195.66666666667 768.66666666667 172 725.66666666667 154 681 C 148 667 142 653.66666666667 136 641 C 129.33333333333 628.33333333333 123.33333333333 616 118 604 C 112 591.33333333333 107.33333333333 579 104 567 C 100 555 98 542.66666666667 98 530 L 98 508 C 98 458 103 410 113 364 C 122.33333333333 318 136.66666666667 275.66666666667 156 237 C 174.66666666667 197.66666666667 198 162.33333333333 226 131 C 254 99 286 71.66666666667 322 49 C 357.33333333333 26.33333333333 397 9 441 -3 C 484.33333333333 -15 531.33333333333 -21 582 -21 C 658 -21 726 -7.66666666667 786 19 C 845.33333333333 45.66666666667 895.66666666667 82.66666666667 937 130 C 978.33333333333 177.33333333333 1010 233.33333333333 1032 298 C 1054 362.66666666667 1065 432.66666666667 1065 508 L 1065 530 C 1065 600 1055 665 1035 725 C 1014.33333333333 784.33333333333 985 836 947 880 C 908.33333333333 924 861.33333333333 958.33333333333 806 983 C 750 1007.66666666667 686.66666666667 1020 616 1020 Z M 580 869 C 631.33333333333 869 676 860 714 842 C 751.33333333333 823.33333333333 782.33333333333 798.33333333333 807 767 C 831.66666666667 735.66666666667 850 699.66666666667 862 659 C 873.33333333333 618.33333333333 879 575.33333333333 879 530 L 879 508 C 879 457.33333333333 873.33333333333 409.33333333333 862 364 C 850 318 831.66666666667 278 807 244 C 782.33333333333 209.33333333333 751.66666666667 182 715 162 C 677.66666666667 141.33333333333 633.33333333333 131 582 131 C 548 131 517 135.66666666667 489 145 C 460.33333333333 154.33333333333 435 167.33333333333 413 184 C 391 200.66666666667 372 220.66666666667 356 244 C 339.33333333333 266.66666666667 325.66666666667 292 315 320 C 304.33333333333 348 296.33333333333 378 291 410 C 285.66666666667 441.33333333333 283 474 283 508 L 283 530 C 283 575.33333333333 289 618.33333333333 301 659 C 312.33333333333 699.66666666667 330.33333333333 735.66666666667 355 767 C 379.66666666667 798.33333333333 410.66666666667 823.33333333333 448 842 C 485.33333333333 860 529.33333333333 869 580 869 Z"/>
    <path fill="#000000" stroke="none" transform="matrix(1 0 0 -1 8399 2646)" d="M 91 529 C 91 451 102.66666666667 378.66666666667 126 312 C 148.66666666667 244.66666666667 181.33333333333 186.66666666667 224 138 C 266 88.66666666667 317.66666666667 50 379 22 C 439.66666666667 -6 508 -20 584 -20 C 660 -20 728.33333333333 -6 789 22 C 849.66666666667 50 901.33333333333 88.66666666667 944 138 C 986 186.66666666667 1018.66666666667 244.66666666667 1042 312 C 1064.66666666667 378.66666666667 1076 451 1076 529 L 1076 552 C 1076 630 1064.66666666667 702.66666666667 1042 770 C 1018.66666666667 837.33333333333 985.66666666667 895.66666666667 943 945 C 900.33333333333 993.66666666667 848.66666666667 1032 788 1060 C 726.66666666667 1088 658 1102 582 1102 C 506.66666666667 1102 438.66666666667 1088 378 1060 C 317.33333333333 1032 266 993.66666666667 224 945 C 181.33333333333 895.66666666667 148.66666666667 837.33333333333 126 770 C 102.66666666667 702.66666666667 91 630 91 552 L 91 529 Z M 276 552 C 276 605.33333333333 282.33333333333 656 295 704 C 307.66666666667 752 327 794.33333333333 353 831 C 378.33333333333 867 410.33333333333 896 449 918 C 487 939.33333333333 531.33333333333 950 582 950 C 633.33333333333 950 678.33333333333 939.33333333333 717 918 C 755 896 787 867 813 831 C 838.33333333333 794.33333333333 857.66666666667 752 871 704 C 883.66666666667 656 890 605.33333333333 890 552 L 890 529 C 890 475 883.66666666667 424 871 376 C 857.66666666667 328 838.33333333333 286 813 250 C 787.66666666667 214 756 185.33333333333 718 164 C 679.33333333333 142.66666666667 634.66666666667 132 584 132 C 532.66666666667 132 487.66666666667 142.66666666667 449 164 C 410.33333333333 185.33333333333 378.33333333333 214 353 250 C 327 286 307.66666666667 328 295 376 C 282.33333333333 424 276 475 276 529 L 276 552 Z"/>
    <path fill="#000000" stroke="none" transform="matrix(1 0 0 -1 9567 2646)" d="M 763 246 L 397 1082 L 219 1082 L 699 0 L 827 0 L 1309 1082 L 1131 1082 L 763 246 Z M 343 1082 L 158 1082 L 158 0 L 343 0 L 343 1082 Z M 1177 0 L 1363 0 L 1363 1082 L 1177 1082 L 1177 0 Z"/>
    <path fill="#000000" stroke="none" transform="matrix(1 0 0 -1 11086 2646)" d="M 444 112 L 367 -98 C 355.66666666667 -131.33333333333 343 -159.33333333333 329 -182 C 315 -204.66666666667 299 -222.66666666667 281 -236 C 262.33333333333 -250 241 -260 217 -266 C 192.33333333333 -272 164.33333333333 -275 133 -275 C 131 -275 127.66666666667 -274.66666666667 123 -274 C 118.33333333333 -274 113.66666666667 -273.66666666667 109 -273 C 103.66666666667 -273 98.66666666667 -272.66666666667 94 -272 C 89.33333333333 -272 85.66666666667 -271.66666666667 83 -271 L 84 -421 C 88.66666666667 -422.33333333333 95.33333333333 -424 104 -426 C 112.66666666667 -428 122 -429.66666666667 132 -431 C 142 -433 152 -434.33333333333 162 -435 C 172 -436.33333333333 180.66666666667 -437 188 -437 C 237.33333333333 -437 280 -428 316 -410 C 351.33333333333 -392 381.66666666667 -369.33333333333 407 -342 C 432.33333333333 -315.33333333333 453.33333333333 -286 470 -254 C 486 -222.66666666667 499 -193.66666666667 509 -167 L 943 1082 L 745 1082 L 444 112 Z M 223 1082 L 21 1082 L 419 -21 L 552 47 L 504 242 L 223 1082 Z"/>
    <path fill="#000000" stroke="none" transform="matrix(1 0 0 -1 12055 2646)" d="M 1645 152 L 1321 152 L 1321 0 L 1462 0 L 1462 -321 L 1627 -321 L 1645 152 Z M 146 1082 L 146 0 L 1493 0 L 1493 1082 L 1308 1082 L 1308 152 L 913 152 L 913 1082 L 727 1082 L 727 152 L 331 152 L 331 1082 L 146 1082 Z"/>
    <path fill="#000000" stroke="none" transform="matrix(1 0 0 -1 13762 2646)" d="M 589 -20 C 642.33333333333 -20 690.33333333333 -14 733 -2 C 775.66666666667 9.33333333333 813.66666666667 25 847 45 C 879.66666666667 64.33333333333 908.33333333333 86.66666666667 933 112 C 957.66666666667 136.66666666667 978.66666666667 162.33333333333 996 189 L 884 278 C 867.33333333333 256 849.33333333333 236 830 218 C 810 199.33333333333 788.33333333333 183.66666666667 765 171 C 741.66666666667 158.33333333333 716.33333333333 148.66666666667 689 142 C 661.66666666667 134.66666666667 631.66666666667 131 599 131 C 548.33333333333 131 503.33333333333 141 464 161 C 424 180.33333333333 390.33333333333 207 363 241 C 335.66666666667 274.33333333333 314.66666666667 313.66666666667 300 359 C 285.33333333333 403.66666666667 278 451.66666666667 278 503 L 278 545 C 278 610.33333333333 285 668 299 718 C 313 768 332.66666666667 810.33333333333 358 845 C 383.33333333333 879.66666666667 413.66666666667 906 449 924 C 484.33333333333 941.33333333333 523 950 565 950 C 612.33333333333 950 652 941.33333333333 684 924 C 716 906.66666666667 742.33333333333 884 763 856 C 783 828 798 796.33333333333 808 761 C 817.33333333333 725.66666666667 823 690 825 654 L 825 640 L 202 640 L 202 489 L 1010 489 L 1010 572 C 1010 648 1001.33333333333 718.33333333333 984 783 C 966.66666666667 847.66666666667 940 903.66666666667 904 951 C 867.33333333333 998.33333333333 821 1035.33333333333 765 1062 C 709 1088.66666666667 642.33333333333 1102 565 1102 C 504.33333333333 1102 445.66666666667 1089.66666666667 389 1065 C 331.66666666667 1039.66666666667 281 1003.33333333333 237 956 C 193 908.66666666667 158 850.33333333333 132 781 C 105.33333333333 711.66666666667 92 633 92 545 L 92 503 C 92 427 103.66666666667 357 127 293 C 150.33333333333 229 183.66666666667 174 227 128 C 270.33333333333 81.33333333333 322.66666666667 45 384 19 C 445.33333333333 -7 513.66666666667 -20 589 -20 Z"/>
    <path fill="#000000" stroke="none" transform="matrix(1 0 0 -1 15356 2646)" d="M 582 1476 C 535.33333333333 1476 491.66666666667 1470.33333333333 451 1459 C 410.33333333333 1447.66666666667 373 1430.33333333333 339 1407 C 305 1383.66666666667 274.66666666667 1354.33333333333 248 1319 C 221.33333333333 1283.66666666667 198.66666666667 1242 180 1194 C 161.33333333333 1145.33333333333 147.33333333333 1090.33333333333 138 1029 C 128 967.66666666667 123 899.66666666667 123 825 L 123 640 C 123 565.33333333333 128 497.33333333333 138 436 C 148 374 162.33333333333 318.66666666667 181 270 C 199 220.66666666667 221.66666666667 178 249 142 C 275.66666666667 105.33333333333 306.33333333333 75 341 51 C 375 27 412.33333333333 9.33333333333 453 -2 C 493.66666666667 -14 537.33333333333 -20 584 -20 C 631.33333333333 -20 675.33333333333 -14 716 -2 C 756.66666666667 9.33333333333 794 27 828 51 C 862 75 892.33333333333 105.33333333333 919 142 C 945.66666666667 178 968 220.66666666667 986 270 C 1004 318.66666666667 1018 374 1028 436 C 1037.33333333333 497.33333333333 1042 565.33333333333 1042 640 L 1042 825 C 1042 899.66666666667 1037.33333333333 967.66666666667 1028 1029 C 1018 1090.33333333333 1004 1145.33333333333 986 1194 C 967.33333333333 1242 944.66666666667 1283.66666666667 918 1319 C 891.33333333333 1354.33333333333 861 1383.66666666667 827 1407 C 792.33333333333 1430.33333333333 754.66666666667 1447.66666666667 714 1459 C 672.66666666667 1470.33333333333 628.66666666667 1476 582 1476 Z M 582 1325 C 612 1325 639.66666666667 1320.33333333333 665 1311 C 690.33333333333 1301.66666666667 713.33333333333 1288 734 1270 C 754 1252 771.66666666667 1229.66666666667 787 1203 C 802.33333333333 1176.33333333333 815.33333333333 1145.66666666667 826 1111 C 836 1076.33333333333 843.66666666667 1037.66666666667 849 995 C 854.33333333333 952.33333333333 857 906 857 856 L 857 801 L 308 801 L 308 856 C 308 906 310.66666666667 952.33333333333 316 995 C 321.33333333333 1037.66666666667 329.33333333333 1076.33333333333 340 1111 C 350 1145.66666666667 363 1176.33333333333 379 1203 C 394.33333333333 1229.66666666667 412.33333333333 1252 433 1270 C 453 1288 475.66666666667 1301.66666666667 501 1311 C 525.66666666667 1320.33333333333 552.66666666667 1325 582 1325 Z M 584 132 C 554.66666666667 132 527.33333333333 137 502 147 C 476.66666666667 156.33333333333 454 170.33333333333 434 189 C 413.33333333333 207.66666666667 395.33333333333 231 380 259 C 364 286.33333333333 350.66666666667 317.66666666667 340 353 C 329.33333333333 388.33333333333 321.33333333333 427.66666666667 316 471 C 310.66666666667 514.33333333333 308 561 308 611 L 308 650 L 857 650 L 857 611 C 857 561 854.66666666667 514.33333333333 850 471 C 844.66666666667 427.66666666667 837 388.33333333333 827 353 C 816.33333333333 317.66666666667 803.66666666667 286.33333333333 789 259 C 773.66666666667 231 756 207.66666666667 736 189 C 715.33333333333 170.33333333333 692.33333333333 156.33333333333 667 147 C 641.66666666667 137 614 132 584 132 Z"/>
    <path fill="#000000" stroke="none" transform="matrix(1 0 0 -1 16523 2646)" d="M 146 -416 L 331 -416 L 332 577 C 332 604.33333333333 334.33333333333 632.66666666667 339 662 C 343 690.66666666667 349.33333333333 719 358 747 C 366.66666666667 774.33333333333 378 800.33333333333 392 825 C 406 849.66666666667 422.66666666667 871.33333333333 442 890 C 461.33333333333 908 483.66666666667 922.66666666667 509 934 C 533.66666666667 944.66666666667 561.33333333333 950 592 950 C 626 950 656.33333333333 945 683 935 C 709.66666666667 924.33333333333 733.33333333333 909.66666666667 754 891 C 774.66666666667 871.66666666667 792.33333333333 849 807 823 C 821.66666666667 797 833.66666666667 768.33333333333 843 737 C 852.33333333333 705 859.33333333333 671 864 635 C 868 598.33333333333 870 560.66666666667 870 522 L 870 501 C 870 467 867.66666666667 434.33333333333 863 403 C 858.33333333333 371 851 341.33333333333 841 314 C 831 286.66666666667 818.33333333333 262 803 240 C 787 217.33333333333 768.66666666667 198 748 182 C 726.66666666667 166 702.66666666667 153.66666666667 676 145 C 648.66666666667 136.33333333333 618.33333333333 132 585 132 C 539 132 499.33333333333 139.33333333333 466 154 C 432.66666666667 168.66666666667 404 188.33333333333 380 213 C 356 237.66666666667 336.33333333333 266.33333333333 321 299 C 305.66666666667 331 293 364.66666666667 283 400 C 283 400 278.66666666667 404 270 412 C 260.66666666667 419.33333333333 250.66666666667 427.66666666667 240 437 C 228.66666666667 445.66666666667 218.33333333333 454 209 462 C 199 469.33333333333 193.66666666667 473.33333333333 193 474 C 198.33333333333 423.33333333333 206.66666666667 376 218 332 C 228.66666666667 287.33333333333 243 246.66666666667 261 210 C 279 173.33333333333 300.33333333333 140.66666666667 325 112 C 349 83.33333333333 377 59.33333333333 409 40 C 440.33333333333 20.66666666667 475.33333333333 6 514 -4 C 552.66666666667 -14.66666666667 595 -20 641 -20 C 685.66666666667 -20 727 -14 765 -2 C 802.33333333333 9.33333333333 836.33333333333 26 867 48 C 897.66666666667 69.33333333333 925 95.33333333333 949 126 C 972.33333333333 156.66666666667 992 191.33333333333 1008 230 C 1024 268.66666666667 1036 311 1044 357 C 1052 402.33333333333 1056 450.33333333333 1056 501 L 1056 522 C 1056 578.66666666667 1051.66666666667 632.33333333333 1043 683 C 1034.33333333333 733.66666666667 1021.33333333333 780.66666666667 1004 824 C 986.66666666667 866.66666666667 965.33333333333 905.33333333333 940 940 C 914 974 884 1003 850 1027 C 815.33333333333 1051 776.66666666667 1069.66666666667 734 1083 C 690.66666666667 1095.66666666667 643.33333333333 1102 592 1102 C 552 1102 513 1097 475 1087 C 437 1077 401.66666666667 1062.33333333333 369 1043 C 335.66666666667 1023 305.33333333333 998.33333333333 278 969 C 250.66666666667 939.66666666667 227.33333333333 905.66666666667 208 867 C 188 828.33333333333 172.66666666667 785 162 737 C 151.33333333333 689 146 636.33333333333 146 579 L 146 -416 Z"/>
    <path fill="#000000" stroke="none" transform="matrix(1 0 0 -1 17684 2646)" d="M 1231 1082 C 1251 1040.66666666667 1269.66666666667 999 1287 957 C 1303.66666666667 914.33333333333 1318.66666666667 871.33333333333 1332 828 C 1344.66666666667 784 1355 740 1363 696 C 1370.33333333333 651.33333333333 1374.33333333333 606.33333333333 1375 561 C 1375 522.33333333333 1373.33333333333 484.66666666667 1370 448 C 1366.66666666667 411.33333333333 1361.33333333333 377.33333333333 1354 346 C 1346.66666666667 314 1337.33333333333 285 1326 259 C 1314 232.33333333333 1300 209.66666666667 1284 191 C 1267.33333333333 171.66666666667 1248.33333333333 157 1227 147 C 1205.66666666667 136.33333333333 1181.66666666667 131 1155 131 C 1134.33333333333 131 1114.33333333333 133.66666666667 1095 139 C 1075.66666666667 144.33333333333 1058 152.66666666667 1042 164 C 1025.33333333333 175.33333333333 1010.33333333333 190 997 208 C 983.66666666667 226 972.33333333333 247.66666666667 963 273 C 953.66666666667 298.33333333333 946.66666666667 327.33333333333 942 360 C 936.66666666667 392.66666666667 934 429.66666666667 934 471 L 934 770 L 804 770 L 804 473 C 804 420.33333333333 807.66666666667 371.66666666667 815 327 C 822.33333333333 281.66666666667 833 240.66666666667 847 204 C 860.33333333333 167.33333333333 877.33333333333 135 898 107 C 918.66666666667 79 942.33333333333 55.66666666667 969 37 C 995.66666666667 17.66666666667 1025.66666666667 3.33333333333 1059 -6 C 1091.66666666667 -16 1127 -21 1165 -21 C 1213 -21 1256.33333333333 -13.66666666667 1295 1 C 1333 15.66666666667 1366.66666666667 36 1396 62 C 1425.33333333333 88 1450.66666666667 119 1472 155 C 1492.66666666667 191 1509.66666666667 230.66666666667 1523 274 C 1535.66666666667 316.66666666667 1545.33333333333 362.33333333333 1552 411 C 1558 459.66666666667 1561 509.66666666667 1561 561 C 1561 617 1557.33333333333 670 1550 720 C 1542 769.33333333333 1532 815.66666666667 1520 859 C 1507.33333333333 902.33333333333 1493 942.66666666667 1477 980 C 1460.33333333333 1016.66666666667 1443 1050.66666666667 1425 1082 L 1231 1082 Z M 257 1082 C 239 1050.66666666667 222 1016.66666666667 206 980 C 189.33333333333 942.66666666667 174.66666666667 902.33333333333 162 859 C 149.33333333333 815.66666666667 139.33333333333 769.33333333333 132 720 C 124.66666666667 670 121 617 121 561 C 121 509.66666666667 124.33333333333 459.66666666667 131 411 C 137 362.33333333333 146.66666666667 316.66666666667 160 274 C 172.66666666667 230.66666666667 189.66666666667 191 211 155 C 231.66666666667 119 256.66666666667 88 286 62 C 315.33333333333 36 349.33333333333 15.66666666667 388 1 C 426 -13.66666666667 469 -21 517 -21 C 555.66666666667 -21 591.33333333333 -16 624 -6 C 656.66666666667 3.33333333333 686.33333333333 17.66666666667 713 37 C 739.66666666667 55.66666666667 763.33333333333 79 784 107 C 804.66666666667 135 822 167.33333333333 836 204 C 849.33333333333 240.66666666667 859.66666666667 281.66666666667 867 327 C 874.33333333333 371.66666666667 878 420.33333333333 878 473 L 878 770 L 748 770 L 748 471 C 748 429.66666666667 745.66666666667 392.66666666667 741 360 C 735.66666666667 327.33333333333 728.33333333333 298.33333333333 719 273 C 709.66666666667 247.66666666667 698.33333333333 226 685 208 C 671.66666666667 190 656.66666666667 175.33333333333 640 164 C 623.33333333333 152.66666666667 605.66666666667 144.33333333333 587 139 C 567.66666666667 133.66666666667 547.33333333333 131 526 131 C 499.33333333333 131 475.33333333333 136.33333333333 454 147 C 432.66666666667 157 414 171.66666666667 398 191 C 382 209.66666666667 368.33333333333 232.33333333333 357 259 C 345 285.66666666667 335.33333333333 315 328 347 C 320.66666666667 378.33333333333 315.33333333333 412.33333333333 312 449 C 308.66666666667 485 307 522.33333333333 307 561 C 308.33333333333 606.33333333333 312.66666666667 651.33333333333 320 696 C 327.33333333333 740 337.66666666667 784 351 828 C 363.66666666667 871.33333333333 378.66666666667 914.33333333333 396 957 C 412.66666666667 999 431 1040.66666666667 451 1082 L 257 1082 Z M 779 1232 L 891 1232 L 1007 1568 L 833 1568 L 779 1232 Z"/>
    <path fill="#000000" stroke="none" transform="matrix(1 0 0 -1 19371 2646)" d="M 1137 1082 L 41 1082 L 41 929 L 1137 929 L 1137 1082 Z M 396 1082 L 210 1082 L 210 0 L 396 0 L 396 1082 Z M 796 1082 L 796 277 C 796 223 802.66666666667 177.66666666667 816 141 C 829.33333333333 103.66666666667 847.33333333333 73.66666666667 870 51 C 892.66666666667 28.33333333333 919.33333333333 12 950 2 C 980 -8 1012 -13 1046 -13 C 1062.66666666667 -13 1078 -12.33333333333 1092 -11 C 1106 -9.66666666667 1119 -8 1131 -6 C 1143 -4 1154 -1.66666666667 1164 1 C 1173.33333333333 3.66666666667 1181.66666666667 6 1189 8 L 1188 158 C 1179.33333333333 156 1166.66666666667 153.66666666667 1150 151 C 1132.66666666667 147.66666666667 1116.33333333333 146 1101 146 C 1085.66666666667 146 1071 147.66666666667 1057 151 C 1042.33333333333 153.66666666667 1029.66666666667 159.66666666667 1019 169 C 1007.66666666667 178.33333333333 998.66666666667 191.66666666667 992 209 C 985.33333333333 225.66666666667 982 248 982 276 L 982 1082 L 796 1082 Z"/>
    <path fill="#000000" stroke="none" transform="matrix(1 0 0 -1 20592 2646)" d="M 91 529 C 91 451 102.66666666667 378.66666666667 126 312 C 148.66666666667 244.66666666667 181.33333333333 186.66666666667 224 138 C 266 88.66666666667 317.66666666667 50 379 22 C 439.66666666667 -6 508 -20 584 -20 C 660 -20 728.33333333333 -6 789 22 C 849.66666666667 50 901.33333333333 88.66666666667 944 138 C 986 186.66666666667 1018.66666666667 244.66666666667 1042 312 C 1064.66666666667 378.66666666667 1076 451 1076 529 L 1076 552 C 1076 630 1064.66666666667 702.66666666667 1042 770 C 1018.66666666667 837.33333333333 985.66666666667 895.66666666667 943 945 C 900.33333333333 993.66666666667 848.66666666667 1032 788 1060 C 726.66666666667 1088 658 1102 582 1102 C 506.66666666667 1102 438.66666666667 1088 378 1060 C 317.33333333333 1032 266 993.66666666667 224 945 C 181.33333333333 895.66666666667 148.66666666667 837.33333333333 126 770 C 102.66666666667 702.66666666667 91 630 91 552 L 91 529 Z M 276 552 C 276 605.33333333333 282.33333333333 656 295 704 C 307.66666666667 752 327 794.33333333333 353 831 C 378.33333333333 867 410.33333333333 896 449 918 C 487 939.33333333333 531.33333333333 950 582 950 C 633.33333333333 950 678.33333333333 939.33333333333 717 918 C 755 896 787 867 813 831 C 838.33333333333 794.33333333333 857.66666666667 752 871 704 C 883.66666666667 656 890 605.33333333333 890 552 L 890 529 C 890 475 883.66666666667 424 871 376 C 857.66666666667 328 838.33333333333 286 813 250 C 787.66666666667 214 756 185.33333333333 718 164 C 679.33333333333 142.66666666667 634.66666666667 132 584 132 C 532.66666666667 132 487.66666666667 142.66666666667 449 164 C 410.33333333333 185.33333333333 378.33333333333 214 353 250 C 327 286 307.66666666667 328 295 376 C 282.33333333333 424 276 475 276 529 L 276 552 Z"/>
    <path fill="#000000" stroke="none" transform="matrix(1 0 0 -1 21745 2646)" d="M 469 167 L 441 0 L 565 0 L 954 1082 L 765 1082 L 469 167 Z M 222 1082 L 32 1082 L 424 0 L 548 0 L 527 162 L 222 1082 Z"/>
    <path fill="#000000" stroke="none" transform="matrix(1 0 0 -1 23245 2646)" d="M 573 132 C 535 132 501.33333333333 137.33333333333 472 148 C 442 158 416 172.33333333333 394 191 C 372 209 353.66666666667 230.33333333333 339 255 C 323.66666666667 279.66666666667 311.66666666667 306.33333333333 303 335 C 293.66666666667 363.66666666667 287 393.66666666667 283 425 C 279 456.33333333333 277 488 277 520 L 277 562 C 277 609.33333333333 281.66666666667 656 291 702 C 300.33333333333 748 316.66666666667 789.66666666667 340 827 C 362.66666666667 863.66666666667 393 893.33333333333 431 916 C 469 938.66666666667 516.33333333333 950 573 950 C 610.33333333333 950 644 943.66666666667 674 931 C 704 918.33333333333 730 901.33333333333 752 880 C 774 858 791.66666666667 832.66666666667 805 804 C 817.66666666667 774.66666666667 825.33333333333 743.33333333333 828 710 L 1004 710 C 1001.33333333333 766 989.33333333333 818 968 866 C 946.66666666667 913.33333333333 917.33333333333 954.66666666667 880 990 C 842 1024.66666666667 797.33333333333 1052 746 1072 C 694 1092 636.33333333333 1102 573 1102 C 491.66666666667 1102 421 1087.66666666667 361 1059 C 300.33333333333 1029.66666666667 250.33333333333 990.33333333333 211 941 C 171 891.66666666667 141.33333333333 834.33333333333 122 769 C 102 703.66666666667 92 634.66666666667 92 562 L 92 520 C 92 447.33333333333 102 378.33333333333 122 313 C 141.33333333333 247.66666666667 171 190.33333333333 211 141 C 250.33333333333 91.66666666667 300.33333333333 52.66666666667 361 24 C 421 -5.33333333333 491.66666666667 -20 573 -20 C 630.33333333333 -20 684.66666666667 -10 736 10 C 786.66666666667 29.33333333333 831.66666666667 55.66666666667 871 89 C 909.66666666667 121.66666666667 941 160 965 204 C 988.33333333333 248 1001.33333333333 294 1004 342 L 828 342 C 825.33333333333 311.33333333333 817 283.33333333333 803 258 C 788.33333333333 232 769.66666666667 209.66666666667 747 191 C 723.66666666667 172.33333333333 697.33333333333 158 668 148 C 638 137.33333333333 606.33333333333 132 573 132 Z M 471 -10 L 440 -145 C 468 -147 492.33333333333 -150 513 -154 C 533 -158 549.66666666667 -163.33333333333 563 -170 C 575.66666666667 -177.33333333333 585.33333333333 -186.33333333333 592 -197 C 598 -208.33333333333 601 -222.33333333333 601 -239 C 601 -257 596.66666666667 -272 588 -284 C 579.33333333333 -296.66666666667 567.66666666667 -307 553 -315 C 537.66666666667 -323 520 -328.66666666667 500 -332 C 480 -336 458.33333333333 -338 435 -338 L 442 -445 C 492 -445 536 -440 574 -430 C 611.33333333333 -420 642.66666666667 -405.66666666667 668 -387 C 693.33333333333 -369 712.66666666667 -347 726 -321 C 738.66666666667 -295.66666666667 745 -267.33333333333 745 -236 C 745 -207.33333333333 740.66666666667 -182.66666666667 732 -162 C 723.33333333333 -141.33333333333 712 -124.33333333333 698 -111 C 683.33333333333 -97.66666666667 667 -87 649 -79 C 630.33333333333 -71.66666666667 611.33333333333 -66.33333333333 592 -63 L 604 -10 L 471 -10 Z"/>
    <path fill="#000000" stroke="none" transform="matrix(1 0 0 -1 24317 2646)" d="M 779 185 C 779 169.66666666667 779.66666666667 153.33333333333 781 136 C 782.33333333333 118.66666666667 784.33333333333 101.66666666667 787 85 C 789.66666666667 68.33333333333 793 52.66666666667 797 38 C 800.33333333333 23.33333333333 804.33333333333 10.66666666667 809 0 L 1002 0 L 1002 16 C 996 30.66666666667 990.66666666667 47 986 65 C 980.66666666667 83 976.66666666667 101.66666666667 974 121 C 970.66666666667 140.33333333333 968.33333333333 160 967 180 C 965 199.33333333333 964 218 964 236 L 964 740 C 964 800.66666666667 954 853.66666666667 934 899 C 914 944.33333333333 886.33333333333 982 851 1012 C 815.66666666667 1042 773.33333333333 1064.66666666667 724 1080 C 674.66666666667 1094.66666666667 620.66666666667 1102 562 1102 C 496.66666666667 1102 437.66666666667 1092.66666666667 385 1074 C 331.66666666667 1055.33333333333 286.33333333333 1031 249 1001 C 211.66666666667 970.33333333333 183 936 163 898 C 142.33333333333 859.33333333333 132 820.66666666667 132 782 L 317 782 C 317 804.66666666667 322.66666666667 826.33333333333 334 847 C 345.33333333333 867.66666666667 361.33333333333 886 382 902 C 402 917.33333333333 426.66666666667 929.66666666667 456 939 C 484.66666666667 948.33333333333 516.33333333333 953 551 953 C 588.33333333333 953 621.33333333333 948 650 938 C 678.66666666667 928 702.66666666667 914 722 896 C 740.66666666667 877.33333333333 755 855 765 829 C 774.33333333333 803 779 774 779 742 L 779 185 Z M 811 656 L 596 656 C 522 656 455 648.33333333333 395 633 C 335 617.66666666667 284 595.33333333333 242 566 C 199.33333333333 536 166.66666666667 499 144 455 C 120.66666666667 410.33333333333 109 359 109 301 C 109 256.33333333333 117.66666666667 214.33333333333 135 175 C 152.33333333333 135.66666666667 177 101.66666666667 209 73 C 241 44.33333333333 279.66666666667 21.66666666667 325 5 C 369.66666666667 -11.66666666667 419.66666666667 -20 475 -20 C 533.66666666667 -20 586.66666666667 -9.66666666667 634 11 C 680.66666666667 31.66666666667 721.33333333333 57.33333333333 756 88 C 790 118 817.33333333333 150.33333333333 838 185 C 858.66666666667 219 871.33333333333 250 876 278 L 797 367 C 795.66666666667 342.33333333333 787.66666666667 317 773 291 C 757.66666666667 264.33333333333 737 240 711 218 C 685 196 654.33333333333 178 619 164 C 583 149.33333333333 544 142 502 142 C 468 142 438 147 412 157 C 386 166.33333333333 364.33333333333 179.33333333333 347 196 C 329.66666666667 212 316.66666666667 231.33333333333 308 254 C 299.33333333333 276 295 300 295 326 C 295 359.33333333333 302.33333333333 388.66666666667 317 414 C 331.66666666667 438.66666666667 353 459.33333333333 381 476 C 409 492.66666666667 443.66666666667 505.33333333333 485 514 C 526.33333333333 522 573.33333333333 526 626 526 L 813 526 L 811 656 Z"/>
    <path fill="#000000" stroke="none" transform="matrix(1 0 0 -1 25416 2646)" d="M 470 167 L 442 0 L 566 0 L 955 1082 L 766 1082 L 470 167 Z M 223 1082 L 33 1082 L 425 0 L 549 0 L 528 162 L 223 1082 Z"/>
    <path fill="#000000" stroke="none" transform="matrix(1 0 0 -1 26393 2646)" d="M 779 185 C 779 169.66666666667 779.66666666667 153.33333333333 781 136 C 782.33333333333 118.66666666667 784.33333333333 101.66666666667 787 85 C 789.66666666667 68.33333333333 793 52.66666666667 797 38 C 800.33333333333 23.33333333333 804.33333333333 10.66666666667 809 0 L 1002 0 L 1002 16 C 996 30.66666666667 990.66666666667 47 986 65 C 980.66666666667 83 976.66666666667 101.66666666667 974 121 C 970.66666666667 140.33333333333 968.33333333333 160 967 180 C 965 199.33333333333 964 218 964 236 L 964 740 C 964 800.66666666667 954 853.66666666667 934 899 C 914 944.33333333333 886.33333333333 982 851 1012 C 815.66666666667 1042 773.33333333333 1064.66666666667 724 1080 C 674.66666666667 1094.66666666667 620.66666666667 1102 562 1102 C 496.66666666667 1102 437.66666666667 1092.66666666667 385 1074 C 331.66666666667 1055.33333333333 286.33333333333 1031 249 1001 C 211.66666666667 970.33333333333 183 936 163 898 C 142.33333333333 859.33333333333 132 820.66666666667 132 782 L 317 782 C 317 804.66666666667 322.66666666667 826.33333333333 334 847 C 345.33333333333 867.66666666667 361.33333333333 886 382 902 C 402 917.33333333333 426.66666666667 929.66666666667 456 939 C 484.66666666667 948.33333333333 516.33333333333 953 551 953 C 588.33333333333 953 621.33333333333 948 650 938 C 678.66666666667 928 702.66666666667 914 722 896 C 740.66666666667 877.33333333333 755 855 765 829 C 774.33333333333 803 779 774 779 742 L 779 185 Z M 811 656 L 596 656 C 522 656 455 648.33333333333 395 633 C 335 617.66666666667 284 595.33333333333 242 566 C 199.33333333333 536 166.66666666667 499 144 455 C 120.66666666667 410.33333333333 109 359 109 301 C 109 256.33333333333 117.66666666667 214.33333333333 135 175 C 152.33333333333 135.66666666667 177 101.66666666667 209 73 C 241 44.33333333333 279.66666666667 21.66666666667 325 5 C 369.66666666667 -11.66666666667 419.66666666667 -20 475 -20 C 533.66666666667 -20 586.66666666667 -9.66666666667 634 11 C 680.66666666667 31.66666666667 721.33333333333 57.33333333333 756 88 C 790 118 817.33333333333 150.33333333333 838 185 C 858.66666666667 219 871.33333333333 250 876 278 L 797 367 C 795.66666666667 342.33333333333 787.66666666667 317 773 291 C 757.66666666667 264.33333333333 737 240 711 218 C 685 196 654.33333333333 178 619 164 C 583 149.33333333333 544 142 502 142 C 468 142 438 147 412 157 C 386 166.33333333333 364.33333333333 179.33333333333 347 196 C 329.66666666667 212 316.66666666667 231.33333333333 308 254 C 299.33333333333 276 295 300 295 326 C 295 359.33333333333 302.33333333333 388.66666666667 317 414 C 331.66666666667 438.66666666667 353 459.33333333333 381 476 C 409 492.66666666667 443.66666666667 505.33333333333 485 514 C 526.33333333333 522 573.33333333333 526 626 526 L 813 526 L 811 656 Z"/>
    <path fill="#000000" stroke="none" transform="matrix(1 0 0 -1 27507 2646)" d="M 594 1082 L 9 1082 L 9 940 L 594 940 L 594 1082 Z M 207 1345 L 207 269 C 207 215 213.66666666667 169.66666666667 227 133 C 239.66666666667 95.66666666667 257.33333333333 65.66666666667 280 43 C 302.66666666667 20.33333333333 329.33333333333 4.33333333333 360 -5 C 390 -15 422 -20 456 -20 C 472.66666666667 -20 488 -19.33333333333 502 -18 C 516 -16.66666666667 529 -15 541 -13 C 553 -11 564 -8.66666666667 574 -6 C 583.33333333333 -4 591.66666666667 -2 599 0 L 598 151 C 589.33333333333 149 576.66666666667 146.66666666667 560 144 C 542.66666666667 140.66666666667 526.33333333333 139 511 139 C 495.66666666667 139 481 140.66666666667 467 144 C 452.33333333333 146.66666666667 439.66666666667 152.66666666667 429 162 C 417.66666666667 171.33333333333 408.66666666667 184.33333333333 402 201 C 395.33333333333 217.66666666667 392 240 392 268 L 392 1345 L 207 1345 Z"/>
    <path fill="#000000" stroke="none" transform="matrix(1 0 0 -1 28177 2646)" d="M 590 -20 C 643.33333333333 -20 691.33333333333 -14 734 -2 C 776.66666666667 9.33333333333 814.66666666667 25 848 45 C 880.66666666667 64.33333333333 909.33333333333 86.66666666667 934 112 C 958.66666666667 136.66666666667 979.66666666667 162.33333333333 997 189 L 885 278 C 868.33333333333 256 850.33333333333 236 831 218 C 811 199.33333333333 789.33333333333 183.66666666667 766 171 C 742.66666666667 158.33333333333 717.33333333333 148.66666666667 690 142 C 662.66666666667 134.66666666667 632.66666666667 131 600 131 C 549.33333333333 131 504.33333333333 141 465 161 C 425 180.33333333333 391.33333333333 207 364 241 C 336.66666666667 274.33333333333 315.66666666667 313.66666666667 301 359 C 286.33333333333 403.66666666667 279 451.66666666667 279 503 L 279 545 C 279 610.33333333333 286 668 300 718 C 314 768 333.66666666667 810.33333333333 359 845 C 384.33333333333 879.66666666667 414.66666666667 906 450 924 C 485.33333333333 941.33333333333 524 950 566 950 C 613.33333333333 950 653 941.33333333333 685 924 C 717 906.66666666667 743.33333333333 884 764 856 C 784 828 799 796.33333333333 809 761 C 818.33333333333 725.66666666667 824 690 826 654 L 826 640 L 203 640 L 203 489 L 1011 489 L 1011 572 C 1011 648 1002.33333333333 718.33333333333 985 783 C 967.66666666667 847.66666666667 941 903.66666666667 905 951 C 868.33333333333 998.33333333333 822 1035.33333333333 766 1062 C 710 1088.66666666667 643.33333333333 1102 566 1102 C 505.33333333333 1102 446.66666666667 1089.66666666667 390 1065 C 332.66666666667 1039.66666666667 282 1003.33333333333 238 956 C 194 908.66666666667 159 850.33333333333 133 781 C 106.33333333333 711.66666666667 93 633 93 545 L 93 503 C 93 427 104.66666666667 357 128 293 C 151.33333333333 229 184.66666666667 174 228 128 C 271.33333333333 81.33333333333 323.66666666667 45 385 19 C 446.33333333333 -7 514.66666666667 -20 590 -20 Z"/>
    <path fill="#000000" stroke="none" transform="matrix(1 0 0 -1 29263 2646)" d="M 573 132 C 535 132 501.33333333333 137.33333333333 472 148 C 442 158 416 172.33333333333 394 191 C 372 209 353.66666666667 230.33333333333 339 255 C 323.66666666667 279.66666666667 311.66666666667 306.33333333333 303 335 C 293.66666666667 363.66666666667 287 393.66666666667 283 425 C 279 456.33333333333 277 488 277 520 L 277 562 C 277 609.33333333333 281.66666666667 656 291 702 C 300.33333333333 748 316.66666666667 789.66666666667 340 827 C 362.66666666667 863.66666666667 393 893.33333333333 431 916 C 469 938.66666666667 516.33333333333 950 573 950 C 610.33333333333 950 644 943.66666666667 674 931 C 704 918.33333333333 730 901.33333333333 752 880 C 774 858 791.66666666667 832.66666666667 805 804 C 817.66666666667 774.66666666667 825.33333333333 743.33333333333 828 710 L 1004 710 C 1001.33333333333 766 989.33333333333 818 968 866 C 946.66666666667 913.33333333333 917.33333333333 954.66666666667 880 990 C 842 1024.66666666667 797.33333333333 1052 746 1072 C 694 1092 636.33333333333 1102 573 1102 C 491.66666666667 1102 421 1087.66666666667 361 1059 C 300.33333333333 1029.66666666667 250.33333333333 990.33333333333 211 941 C 171 891.66666666667 141.33333333333 834.33333333333 122 769 C 102 703.66666666667 92 634.66666666667 92 562 L 92 520 C 92 447.33333333333 102 378.33333333333 122 313 C 141.33333333333 247.66666666667 171 190.33333333333 211 141 C 250.33333333333 91.66666666667 300.33333333333 52.66666666667 361 24 C 421 -5.33333333333 491.66666666667 -20 573 -20 C 630.33333333333 -20 684.66666666667 -10 736 10 C 786.66666666667 29.33333333333 831.66666666667 55.66666666667 871 89 C 909.66666666667 121.66666666667 941 160 965 204 C 988.33333333333 248 1001.33333333333 294 1004 342 L 828 342 C 825.33333333333 311.33333333333 817 283.33333333333 803 258 C 788.33333333333 232 769.66666666667 209.66666666667 747 191 C 723.66666666667 172.33333333333 697.33333333333 158 668 148 C 638 137.33333333333 606.33333333333 132 573 132 Z M 380 1535 L 224 1535 L 224 1525 L 474 1251 L 588 1251 L 842 1525 L 842 1535 L 682 1535 L 531 1365 L 380 1535 Z"/>
    <path fill="#000000" stroke="none" transform="matrix(1 0 0 -1 30335 2646)" d="M 327 1536 L 141 1536 L 141 0 L 327 0 L 327 1536 Z M 988 1082 L 762 1082 L 426 726 L 237 500 L 252 303 L 516 577 L 988 1082 Z M 819 0 L 1037 0 L 529 681 L 433 516 L 819 0 Z"/>
    <path fill="#000000" stroke="none" transform="matrix(1 0 0 -1 31373 2646)" d="M 803 250 L 812 0 L 989 0 L 989 1082 L 803 1082 L 803 250 Z M 838 478 C 838 430.66666666667 832.66666666667 386.33333333333 822 345 C 810.66666666667 303 792.66666666667 266.66666666667 768 236 C 742.66666666667 205.33333333333 710 181.33333333333 670 164 C 629.33333333333 146 579.66666666667 137 521 137 C 495.66666666667 137 471 140.66666666667 447 148 C 423 155.33333333333 402 168.33333333333 384 187 C 365.33333333333 205 350.33333333333 230 339 262 C 327.66666666667 293.33333333333 322 333.33333333333 322 382 L 322 1082 L 137 1082 L 137 384 C 137 312 145.66666666667 250.66666666667 163 200 C 179.66666666667 148.66666666667 203.66666666667 106.66666666667 235 74 C 266.33333333333 41.33333333333 304 17.66666666667 348 3 C 391.33333333333 -12.33333333333 439.33333333333 -20 492 -20 C 544 -20 590.33333333333 -14.33333333333 631 -3 C 671.66666666667 8.33333333333 707.66666666667 24.66666666667 739 46 C 770.33333333333 66.66666666667 797.33333333333 92 820 122 C 842 152 860 185.66666666667 874 223 C 888 259.66666666667 898.33333333333 299.66666666667 905 343 C 911.66666666667 386.33333333333 915 432 915 480 L 838 478 Z"/>
    <path fill="#000000" stroke="none" transform="matrix(1 0 0 -1 32502 2646)" d="M 342 1536 L 156 1536 L 156 0 L 342 0 L 342 1536 Z"/>
</svg>
