<svg width="28877" height="3607" viewBox="0 0 28877 3607" xmlns="http://www.w3.org/2000/svg">
    <defs/>
    <g transform="matrix(1 0 0 -1 0 3607)">
        <g transform="matrix(1 0 0 1 0 1117)">
            <path fill="#000000" stroke="none" d="M 1789 1432 Q 1789 1414 1765.5 1387 Q 1742 1360 1697 1334 Q 1652 1308 1585.5 1287 Q 1519 1266 1433 1260 Q 1373 1184 1282 1061.5 Q 1191 939 1072 760 Q 1149 757 1220 748 Q 1254 743 1268.5 729 Q 1283 715 1283 696 Q 1283 690 1276.5 680.5 Q 1270 671 1261 661.5 Q 1252 652 1242.5 642.5 Q 1233 633 1226 627 Q 1218 618 1213 610 Q 1208 602 1203 596 Q 1198 590 1191 586 Q 1184 582 1173 582 Q 1164 582 1160 582.5 Q 1156 583 1153.5 583.5 Q 1151 584 1149.5 584.5 Q 1148 585 1144 586 Q 1124 587 1094.5 588 Q 1065 589 1027 589 Q 1012 589 995.50006 588.5 Q 979 588 962 588 Q 930 538 891.5 478 Q 853 418 814 357 Q 775 296 738 238.5 Q 701 181 671.5 135 Q 642 89 623 58.5 Q 604 28 601 23 Q 589 1 575.5 -12 Q 562 -25 533 -25 Q 525 -25 515 -23.500002 Q 505 -22 493 -20 Q 451 -12 431.5 -3 Q 412 6 412 27 Q 412 34 414.5 43 Q 417 52 421 63 Q 426 78 444.5 110 Q 463 142 490 184.5 Q 517 227 550.5 277.5 Q 584 328 619.5 380.5 Q 655 433 690.5 484.5 Q 726 536 757 580 Q 703 577 652 574 Q 601 571 558.5 568 Q 516 565 483.5 563 Q 451 561 435 559 Q 427 557 413.5 552 Q 400 547 388 547 Q 374 547 367 557.5 Q 360 568 360 582 Q 360 590 364 600 Q 373 621 380 632.5 Q 387 644 392 650.5 Q 397 657 401.5 662 Q 406 667 409 674 Q 412 681 419.5 690.5 Q 427 700 437 709.5 Q 447 719 458 726.5 Q 469 734 480 737 Q 487 739 521.5 742.5 Q 556 746 610.5 750 Q 665 754 735.49994 757.5 Q 806 761 884 762 Q 910 802 947.5 857.5 Q 985 913 1028.5 974.5 Q 1072 1036 1118.5 1098 Q 1165 1160 1210 1212 Q 1177 1206 1133.5 1200 Q 1090 1194 1034 1189 Q 978 1184 908 1181 Q 838 1178 751 1178 Q 644 1178 573 1190.5 Q 502 1203 459.5 1225 Q 417 1247 399.5 1277.5 Q 382 1308 382 1343 Q 382 1366 394 1387 Q 406 1408 428 1424 Q 450 1440 481.5 1450 Q 513 1460 552 1460 Q 592 1460 607 1454 Q 622 1448 622 1443 Q 622 1434 605 1434 Q 590 1434 577.5 1429 Q 565 1424 556 1416.5 Q 547 1409 542.5 1400.5 Q 538 1392 538 1386 Q 538 1380 551.5 1372 Q 565 1364 600 1357.5 Q 635 1351 695 1346 Q 755 1341 847 1341 Q 1022 1341 1153.5 1352 Q 1285 1363 1382 1378 Q 1417 1407 1452 1431.5001 Q 1487 1456 1523.5 1473 Q 1560 1490 1600 1499.5 Q 1640 1509 1685 1509 Q 1717 1509 1738 1498 Q 1759 1487 1771 1470 Q 1778 1460 1783 1451 Q 1788 1442 1789 1432 Z M 1658 1450 Q 1647 1447 1637.5 1443 Q 1628 1439 1619 1434 Q 1638 1442 1648 1445 Q 1658 1448 1658 1450 Z"/>
        </g>
        <g transform="matrix(1 0 0 1 1169 1117)">
            <path fill="#000000" stroke="none" d="M 1782 1145 Q 1782 1073 1748.5 1008.5 Q 1715 944 1658 887 Q 1601 830 1526 782 Q 1451 734 1368.5 695.5 Q 1286 657 1201 629 Q 1116 601 1038 584 Q 1069 552 1111 500 Q 1153 448 1200 388.5 Q 1247 329 1297 268.5 Q 1347 208 1394 159.5 Q 1441 111 1482 80.5 Q 1523 50 1553 50 Q 1563 50 1572 56 Q 1581 62 1586 62 Q 1597 62 1597 51 Q 1597 45 1589 37 Q 1561 6 1541.5 -16 Q 1522 -38 1504 -52 Q 1486 -66 1466.5 -72 Q 1447 -78 1419 -78 Q 1382 -78 1334.5 -44 Q 1287 -10 1234 44.5 Q 1181 99 1126 168.5 Q 1071 238 1018.5 308 Q 966 378 919 442.5 Q 872 507 836 553 Q 800 496 755.5 427.5 Q 711 359 669 290.5 Q 627 222 591 160.5 Q 555 99 535 57 Q 522 29 504.50003 22 Q 487 15 467 15 Q 458 15 449 15.5 Q 440 16 432 16 Q 423 16 416 15.5 Q 409 15 402 15 Q 395 15 384 17 Q 373 19 363.5 24.499998 Q 354 30 347 40 Q 340 50 340 67 Q 340 86 348.5 115 Q 357 144 377 186 Q 385 203 417.5 254 Q 450 305 498.5 378.5 Q 547 452 607 540.5 Q 667 629 729.5 720 Q 792 811 852.5 898 Q 913 985 963 1055 Q 1013 1125 1047.5 1171 Q 1082 1217 1092 1227 Q 1106 1240 1114 1246 Q 1122 1252 1133 1255 Q 1136 1257 1140 1260.5 Q 1144 1264 1149 1264 Q 1155 1264 1158.5 1262.5 Q 1162 1261 1167 1261 Q 1172 1261 1176.5 1262.5 Q 1181 1264 1184 1264 Q 1193 1264 1197.5 1258.5 Q 1202 1253 1210 1247 Q 1230 1233 1241 1220.5 Q 1252 1208 1252 1191 Q 1252 1174 1239 1151 Q 1234 1142 1218 1118 Q 1202 1094 1178 1059.5 Q 1154 1025 1125 983.5 Q 1096 942 1065.5 898.50006 Q 1035 855 1005 812.5 Q 975 770 950 733 Q 1006 736 1076.5 758 Q 1147 780 1220 814.5 Q 1293 849 1362 893.49994 Q 1431 938 1485.4999 985.5 Q 1540 1033 1573 1079.5 Q 1606 1126 1606 1165 Q 1606 1197 1574.5 1220 Q 1543 1243 1497.5 1257.5 Q 1452 1272 1401 1279 Q 1350 1286 1311 1286 Q 1234 1286 1147 1271 Q 1060 1256 976 1232 Q 892 1208 819 1179.5 Q 746 1151 698 1124 Q 634 1088 599.5 1056 Q 565 1024 565 1013 Q 565 1008 575 1007 Q 585 1006 591 1006 Q 598 1006 608 1010 Q 618 1014 637 1026 Q 638 1027 641 1027 Q 647 1027 651.5 1022 Q 656 1017 656 1010 Q 656 1004 651 999 Q 625 973 600.5 956.49994 Q 576 940 552 931 Q 528 922 504.50003 918.5 Q 481 915 457 915 Q 447 915 431.5 922 Q 416 929 402 942 Q 388 955 377.50003 975 Q 367 995 367 1020 Q 367 1050 384.5 1086 Q 402 1122 447 1167 Q 473 1193 519 1223.5 Q 565 1254 627 1284.5 Q 689 1315 764.49994 1343.5 Q 840 1372 924.49994 1394 Q 1009 1416 1099.5 1429 Q 1190 1442 1282 1442 Q 1386 1442 1463.5 1425.5001 Q 1541 1409 1596.5 1382.5 Q 1652 1356 1688 1323 Q 1724 1290 1745 1257 Q 1766 1224 1774 1194.5 Q 1782 1165 1782 1145 Z"/>
        </g>
        <g transform="matrix(1 0 0 1 2651 1117)">
            <path fill="#000000" stroke="none" d="M 1442 1335 Q 1442 1306 1435 1288 Q 1428 1270 1417 1259 Q 1406 1248 1392.5001 1242.5 Q 1379 1237 1365 1233 Q 1319 1216 1273.5 1204 Q 1228 1192 1178 1192 Q 1152 1192 1128 1199.5 Q 1104 1207 1099 1218 Q 1100 1230 1106 1246.5 Q 1112 1263 1121 1278 Q 1054 1276 987.5 1259 Q 921 1242 860.49994 1216.5 Q 800 1191 748.5 1159 Q 697 1127 658.5 1094.5 Q 620 1062 598.5 1031.5 Q 577 1001 577 978 Q 577 957 601 944 Q 625 931 660 924.49994 Q 695 918 734 915.5 Q 773 913 804 913 Q 824 913 837 914 Q 850 915 859 916.5 Q 868 918 874 920 Q 880 922 887 925 Q 906 934 930.50006 940.5 Q 955 947 980.5 951 Q 1006 955 1031 957 Q 1056 959 1075 959 Q 1120 959 1142.5 945 Q 1165 931 1165 906 Q 1165 894 1159.5 877 Q 1154 860 1146.5 842.5 Q 1139 825 1131.5 811.5 Q 1124 798 1120 793 Q 1117 790 1099.5 784 Q 1082 778 1058.5 771 Q 1035 764 1010.5 759 Q 986 754 969 752 Q 967 751 956.49994 750 Q 946 749 937 747 Q 920 744 903.5 742 Q 887 740 878 744 Q 715 663 615 584.5 Q 515 506 460 438.49997 Q 405 371 386 318 Q 367 265 367 235 Q 367 204 379 184.5 Q 391 165 410.5 154.5 Q 430 144 454.49997 140 Q 479 136 504 136 Q 558 136 630.5 160 Q 703 184 780 223.5 Q 857 263 931.50006 314 Q 1006 365 1065 420 Q 1124 475 1160 530 Q 1196 585 1196 631 Q 1196 640 1202 645.5 Q 1208 651 1216 654 Q 1224 657 1232 658 Q 1240 659 1244 659 Q 1258 659 1274 654.5 Q 1290 650 1303.5 637.5 Q 1317 625 1326 602.5 Q 1335 580 1335 544 Q 1335 499 1301.5 439 Q 1268 379 1208.5 315.5 Q 1149 252 1069 190.5 Q 989 129 896.50006 80.5 Q 804 32 702.49994 2 Q 601 -28 500 -28 Q 445 -28 389 -12 Q 333 4 288 38 Q 243 72 214.5 125 Q 186 178 186 253 Q 186 308 206 361 Q 226 414 259.5 463.5 Q 293 513 336 557.5 Q 379 602 426 640.5 Q 473 679 519.5 710 Q 566 741 606 764 Q 570 772 533 787 Q 496 802 466.5 826.5 Q 437 851 418.5 887.5 Q 400 924 400 976 Q 400 1043 438 1104 Q 476 1165 539.5 1218.5 Q 603 1272 685.5 1315.5 Q 768 1359 856 1390.4999 Q 944 1422 1031 1439 Q 1118 1456 1192 1456 Q 1216 1456 1242.5 1454 Q 1269 1452 1292.5 1449 Q 1316 1446 1334 1442.5 Q 1352 1439 1359 1437 Q 1379 1427 1394.5001 1412.5 Q 1410 1398 1420.5 1383.5 Q 1431 1369 1436.5 1356 Q 1442 1343 1442 1335 Z"/>
        </g>
        <g transform="matrix(1 0 0 1 3793 1117)">
            <path fill="#000000" stroke="none" d="M 1679 1356 Q 1679 1339 1676.5 1315.5 Q 1674 1292 1666 1276 Q 1657 1259 1648.5001 1253.5 Q 1640 1248 1629 1239 Q 1614 1226 1586.5001 1218 Q 1559 1210 1525.5 1205 Q 1492 1200 1457 1197.5 Q 1422 1195 1391.5 1193.5 Q 1361 1192 1340 1190.5 Q 1319 1189 1314 1186 Q 1308 1182 1305 1182 Q 1300 1182 1293.5 1189 Q 1287 1196 1287 1212 Q 1287 1226 1298.5 1244 Q 1310 1262 1326 1282 Q 1239 1277 1150.5 1252.5 Q 1062 1228 980 1192.5 Q 898 1157 826 1115 Q 754 1073 701 1033 Q 648 993 617.5 959 Q 587 925 587 905 Q 587 893 595.5 879 Q 604 865 630.5 849.5 Q 657 834 705.50006 815.5 Q 754 797 835 776 Q 889 762 947.5 745.5 Q 1006 729 1062 707.50006 Q 1118 686 1168.5 659 Q 1219 632 1256.5 597.5 Q 1294 563 1316.5 520 Q 1339 477 1339 424 Q 1339 375 1311.5 322 Q 1284 269 1231 219 Q 1178 169 1101.5 124 Q 1025 79 926.49994 45 Q 828 11 709.5 -9 Q 591 -29 454 -29 Q 366 -29 306 -11.5 Q 246 6 209.5 33.5 Q 173 61 157 94 Q 141 127 141 158 Q 141 194 157 219 Q 173 244 193 259 Q 213 274 231.5 280.5 Q 250 287 255 287 Q 273 287 273 275 Q 273 268 266.5 261.5 Q 260 255 260 248 Q 260 233 283 218.5 Q 306 204 342 192.5 Q 378 181 422.49997 173.5 Q 467 166 509 166 Q 585 166 661.5 179.49998 Q 738 193 808 215.5 Q 878 238 938 266.5 Q 998 295 1042.5 324.5 Q 1087 354 1112.5 383 Q 1138 412 1138 434 Q 1138 458 1107 479 Q 1076 500 1022 520 Q 968 540 895 559 Q 822 578 738 598 Q 560 639 470 706.50006 Q 380 774 380 881 Q 380 959 430 1032 Q 480 1105 562 1168.5 Q 644 1232 750 1284 Q 856 1336 968 1373.5 Q 1080 1411 1189.5 1431.5001 Q 1299 1452 1388 1452 Q 1460 1452 1514.4999 1443 Q 1569 1434 1605.5 1419.4999 Q 1642 1405 1660.5 1388 Q 1679 1371 1679 1356 Z"/>
        </g>
        <g transform="matrix(1 0 0 1 5132 1117)">
            <path fill="#000000" stroke="none" d="M 1994 1413 Q 2006 1404 2006 1391 Q 2006 1380 1999.4999 1369 Q 1993 1358 1985 1346 Q 1940 1277 1887 1195 Q 1834 1113 1777 1025 Q 1720 937 1662 845.5 Q 1604 754 1549 664 Q 1512 604 1469 532.5 Q 1426 461 1382 388.5 Q 1338 316 1297 248 Q 1256 180 1224 127 Q 1192 74 1172 41 Q 1152 8 1150 6 Q 1148 4 1147.5 0 Q 1147 -4 1140 -4 Q 1138 -4 1134 -2.5 Q 1130 -1 1126 -1 Q 1120 -1 1113.5 -4.5 Q 1107 -8 1099 -8 Q 1096 -8 1091.5 -6.5 Q 1087 -5 1083 -5 Q 1078 -5 1074.5 -6.5 Q 1071 -8 1066 -8 L 1060 -8 Q 1053 -8 1039 -12 Q 1025 -16 1004 -16 Q 981 -16 967.5 -8.5 Q 954 -1 954 18 Q 954 32 963 53 Q 970 69 989 103.5 Q 1008 138 1034.5 184 Q 1061 230 1093 283.5 Q 1125 337 1157 390.49997 Q 1189 444 1220 494.5 Q 1251 545 1275 584 Q 1233 583 1186.5 582 Q 1140 581 1092.5 580.5 Q 1045 580 998.5 579.5 Q 952 579 910 579 Q 876 579 848 579 Q 820 579 795 579.5 Q 770 580 746 580 Q 722 580 695 580 Q 660 524 621.5 459 Q 583 394 545 329.5 Q 507 265 471.49997 205 Q 436 145 408 98.50001 Q 380 52 361 24 Q 342 -4 337 -6 Q 332 -7 329 -7.5 Q 326 -8 322 -8 Q 313 -8 309 -5 Q 305 -2 302 1.5 Q 299 5 297 8 Q 295 11 291 11 Q 288 11 286.5 10 Q 285 9 282 7.5 Q 279 6 274 4.5 Q 269 3 259 3 Q 251 3 244.50002 3.5 Q 238 4 236 4 Q 234 4 231.5 7 Q 229 10 227 10 Q 225 10 225 7 Q 225 4 217 4 Q 198 4 186 13.5 Q 174 23 174 40 Q 174 50 175 55 Q 176 63 181 77.5 Q 186 92 193 107.5 Q 200 123 207 137 Q 214 151 218 158 Q 246 206 281.5 260.5 Q 317 315 354 370.5 Q 391 426 427 479.5 Q 463 533 492 578 Q 454 580 426.5 580 Q 399 580 388 582 Q 356 587 333.5 607 Q 311 627 298 678 Q 293 698 290 711 Q 287 724 288 732 Q 288 749 295.5 754 Q 303 759 311 759 Q 319 759 325 755.5 Q 331 752 337 752 Q 360 751 386.5 749.5 Q 413 748 440.50003 746.5 Q 468 745 494 744 Q 520 743 542 743 Q 556 743 569.5 744 Q 583 745 599 745 Q 626 787 662 842 Q 698 897 739.50006 958 Q 781 1019 824.5 1082.5 Q 868 1146 910 1206 Q 889 1189 860 1170 Q 831 1151 794.5 1135 Q 758 1119 713.5 1108.5 Q 669 1098 617 1098 Q 581 1098 547.5 1107 Q 514 1116 488 1133.5 Q 462 1151 446.5 1176 Q 431 1201 431 1233 Q 431 1259 443 1280.5 Q 455 1302 474.5 1317 Q 494 1332 519 1340 Q 544 1348 570 1348 Q 579 1348 585 1344.5 Q 591 1341 591 1336 Q 591 1333 587.5 1331 Q 584 1329 580.5 1327 Q 577 1325 573.5 1323 Q 570 1321 570 1317 Q 570 1309 579.5 1301.5 Q 589 1294 605 1288.5 Q 621 1283 642.5 1279.5 Q 664 1276 687 1276 Q 716 1276 755 1289 Q 794 1302 836.5 1322 Q 879 1342 920.5 1365 Q 962 1388 995.50006 1408.5 Q 1029 1429 1051 1443.5 Q 1073 1458 1076 1460 Q 1084 1464 1105 1470 Q 1126 1476 1148 1476 Q 1165 1476 1176.5 1470 Q 1188 1464 1195.5 1456 Q 1203 1448 1208 1440 Q 1213 1432 1217 1427 Q 1222 1422 1225 1419 Q 1228 1416 1228 1411 Q 1228 1404 1219 1386 Q 1216 1379 1193.5 1344 Q 1171 1309 1137 1256.5 Q 1103 1204 1060.5 1139 Q 1018 1074 973.5 1006 Q 929 938 886 872 Q 843 806 808 752 Q 830 752 868.5 752.5 Q 907 753 955.5 753.5 Q 1004 754 1060 755 Q 1116 756 1172.5 757 Q 1229 758 1284 759.5 Q 1339 761 1385 762 Q 1416 811 1456 874 Q 1496 937 1538.5 1004 Q 1581 1071 1623 1137 Q 1665 1203 1699.5 1256.5 Q 1734 1310 1757.5 1346.5 Q 1781 1383 1787 1391 Q 1805 1417 1822.5 1425 Q 1840 1433 1863 1433 Q 1872 1433 1885 1432 Q 1898 1431 1911 1430 Q 1924 1429 1935 1428 Q 1946 1427 1951 1427 Q 1959 1427 1963 1427 Q 1967 1427 1971 1426 Q 1975 1425 1980 1422 Q 1985 1419 1994 1413 Z"/>
        </g>
        <g transform="matrix(1 0 0 1 7093 1117)">
            <path fill="#000000" stroke="none" d="M 1801 979 Q 1801 882 1769 788.5 Q 1737 695 1680.5 607.5 Q 1624 520 1545.4999 441.50003 Q 1467 363 1374 295.5 Q 1281 228 1177 173.5 Q 1073 119 964.5 80.5 Q 856 42 746.5 21 Q 637 0 534 0 Q 483 0 450 3 Q 417 6 396 11 Q 375 16 363.5 22.499998 Q 352 29 345 36 Q 338 43 333 50 Q 328 57 319 63 Q 308 70 304 86 Q 300 102 300 121 Q 300 141 303 159 Q 306 177 308 186 Q 317 217 345.50003 272 Q 374 327 416 397 Q 458 467 510 547.5 Q 562 628 617 710.5 Q 672 793 727.5 873 Q 783 953 831.49994 1022 Q 880 1091 918 1144.5 Q 956 1198 978 1227 Q 980 1230 986.5 1233 Q 993 1236 1006 1239 Q 1019 1242 1039.5 1244.5 Q 1060 1247 1091 1249 Q 1133 1249 1149 1243 Q 1165 1237 1165 1220 Q 1165 1206 1142 1174 Q 1121 1145 1082.5 1088 Q 1044 1031 995 956.49994 Q 946 882 890 796.49994 Q 834 711 778.5 626 Q 723 541 672 461.5 Q 621 382 582 321 Q 543 260 520 222 Q 497 184 497 181 Q 497 174 509.5 171 Q 522 168 554 168 Q 678 168 804 205 Q 930 242 1047 304 Q 1164 366 1265.5 445.5 Q 1367 525 1442.5 610 Q 1518 695 1561.5 778.5 Q 1605 862 1605 932 Q 1605 1003 1573 1066 Q 1541 1129 1479 1176.5 Q 1417 1224 1326 1252 Q 1235 1280 1117 1280 Q 1030 1280 951 1263 Q 872 1246 808 1222 Q 744 1198 697.5 1172 Q 651 1146 628 1128 Q 608 1112 599 1101.5 Q 590 1091 590 1084 Q 590 1076 602 1076 Q 616 1076 627.5 1080 Q 639 1084 645 1084 Q 654 1084 654 1080 Q 654 1076 636 1065 Q 625 1059 619.5 1054 Q 614 1049 610 1045 Q 606 1041 602 1037 Q 598 1033 591 1028 Q 542 998 517.5 989.49994 Q 493 981 481 980 Q 473 980 469 981.5 Q 465 983 460 983 L 456 983 Q 447 983 433.5 987 Q 420 991 408 1000.5 Q 396 1010 387 1025.5 Q 378 1041 378 1065 Q 378 1105 402.5 1148 Q 427 1191 473 1232 Q 519 1273 585 1309.5 Q 651 1346 733 1374 Q 815 1402 912.5 1418 Q 1010 1434 1119 1434 Q 1284 1434 1411 1400 Q 1538 1366 1624.5 1305 Q 1711 1244 1756 1160.5 Q 1801 1077 1801 979 Z"/>
        </g>
        <g transform="matrix(1 0 0 1 8700 1117)">
            <path fill="#000000" stroke="none" d="M 1092 1423 Q 1008 1299 906.5 1147 Q 805 995 691 820.5 Q 577 646 452.5 450.5 Q 328 255 199 45 Q 185 22 176.5 14 Q 168 6 160 4 Q 157 4 138 -3 Q 119 -10 78 -18 Q 73 -20 67 -19 Q 61 -18 58 -20 Q 53 -25 44 -27.500002 Q 35 -30 28 -30 Q 24 -30 23 -29 Q 20 -29 12.5 -27 Q 5 -25 -2.5 -22 Q -10 -19 -16 -15.5 Q -22 -12 -22 -10 Q -22 -7 -22 1 Q -22 9 -21.500002 18.5 Q -21 28 -20.5 36.5 Q -20 45 -18 49 Q -11 72 16.5 123 Q 44 174 86.50001 245 Q 129 316 183.5 402.5 Q 238 489 299 583 Q 360 677 424.50003 774 Q 489 871 551.5 963 Q 614 1055 671.5 1137 Q 729 1219 776 1283 Q 823 1347 856.5 1389 Q 890 1431 904 1442 Q 918 1453 941 1453 Q 967 1453 987 1451.5 Q 1007 1450 1021 1450 Q 1038 1450 1049 1451 Q 1060 1452 1068 1452 Q 1080 1452 1087 1446 Q 1094 1440 1094 1432 Q 1094 1426 1092 1423 Z"/>
        </g>
        <g transform="matrix(1 0 0 1 9274 1117)">
            <path fill="#000000" stroke="none" d="M 1782 1145 Q 1782 1073 1748.5 1008.5 Q 1715 944 1658 887 Q 1601 830 1526 782 Q 1451 734 1368.5 695.5 Q 1286 657 1201 629 Q 1116 601 1038 584 Q 1069 552 1111 500 Q 1153 448 1200 388.5 Q 1247 329 1297 268.5 Q 1347 208 1394 159.5 Q 1441 111 1482 80.5 Q 1523 50 1553 50 Q 1563 50 1572 56 Q 1581 62 1586 62 Q 1597 62 1597 51 Q 1597 45 1589 37 Q 1561 6 1541.5 -16 Q 1522 -38 1504 -52 Q 1486 -66 1466.5 -72 Q 1447 -78 1419 -78 Q 1382 -78 1334.5 -44 Q 1287 -10 1234 44.5 Q 1181 99 1126 168.5 Q 1071 238 1018.5 308 Q 966 378 919 442.5 Q 872 507 836 553 Q 800 496 755.5 427.5 Q 711 359 669 290.5 Q 627 222 591 160.5 Q 555 99 535 57 Q 522 29 504.50003 22 Q 487 15 467 15 Q 458 15 449 15.5 Q 440 16 432 16 Q 423 16 416 15.5 Q 409 15 402 15 Q 395 15 384 17 Q 373 19 363.5 24.499998 Q 354 30 347 40 Q 340 50 340 67 Q 340 86 348.5 115 Q 357 144 377 186 Q 385 203 417.5 254 Q 450 305 498.5 378.5 Q 547 452 607 540.5 Q 667 629 729.5 720 Q 792 811 852.5 898 Q 913 985 963 1055 Q 1013 1125 1047.5 1171 Q 1082 1217 1092 1227 Q 1106 1240 1114 1246 Q 1122 1252 1133 1255 Q 1136 1257 1140 1260.5 Q 1144 1264 1149 1264 Q 1155 1264 1158.5 1262.5 Q 1162 1261 1167 1261 Q 1172 1261 1176.5 1262.5 Q 1181 1264 1184 1264 Q 1193 1264 1197.5 1258.5 Q 1202 1253 1210 1247 Q 1230 1233 1241 1220.5 Q 1252 1208 1252 1191 Q 1252 1174 1239 1151 Q 1234 1142 1218 1118 Q 1202 1094 1178 1059.5 Q 1154 1025 1125 983.5 Q 1096 942 1065.5 898.50006 Q 1035 855 1005 812.5 Q 975 770 950 733 Q 1006 736 1076.5 758 Q 1147 780 1220 814.5 Q 1293 849 1362 893.49994 Q 1431 938 1485.4999 985.5 Q 1540 1033 1573 1079.5 Q 1606 1126 1606 1165 Q 1606 1197 1574.5 1220 Q 1543 1243 1497.5 1257.5 Q 1452 1272 1401 1279 Q 1350 1286 1311 1286 Q 1234 1286 1147 1271 Q 1060 1256 976 1232 Q 892 1208 819 1179.5 Q 746 1151 698 1124 Q 634 1088 599.5 1056 Q 565 1024 565 1013 Q 565 1008 575 1007 Q 585 1006 591 1006 Q 598 1006 608 1010 Q 618 1014 637 1026 Q 638 1027 641 1027 Q 647 1027 651.5 1022 Q 656 1017 656 1010 Q 656 1004 651 999 Q 625 973 600.5 956.49994 Q 576 940 552 931 Q 528 922 504.50003 918.5 Q 481 915 457 915 Q 447 915 431.5 922 Q 416 929 402 942 Q 388 955 377.50003 975 Q 367 995 367 1020 Q 367 1050 384.5 1086 Q 402 1122 447 1167 Q 473 1193 519 1223.5 Q 565 1254 627 1284.5 Q 689 1315 764.49994 1343.5 Q 840 1372 924.49994 1394 Q 1009 1416 1099.5 1429 Q 1190 1442 1282 1442 Q 1386 1442 1463.5 1425.5001 Q 1541 1409 1596.5 1382.5 Q 1652 1356 1688 1323 Q 1724 1290 1745 1257 Q 1766 1224 1774 1194.5 Q 1782 1165 1782 1145 Z"/>
        </g>
        <g transform="matrix(1 0 0 1 10756 1117)">
            <path fill="#000000" stroke="none" d="M 1442 1335 Q 1442 1306 1435 1288 Q 1428 1270 1417 1259 Q 1406 1248 1392.5001 1242.5 Q 1379 1237 1365 1233 Q 1319 1216 1273.5 1204 Q 1228 1192 1178 1192 Q 1152 1192 1128 1199.5 Q 1104 1207 1099 1218 Q 1100 1230 1106 1246.5 Q 1112 1263 1121 1278 Q 1054 1276 987.5 1259 Q 921 1242 860.49994 1216.5 Q 800 1191 748.5 1159 Q 697 1127 658.5 1094.5 Q 620 1062 598.5 1031.5 Q 577 1001 577 978 Q 577 957 601 944 Q 625 931 660 924.49994 Q 695 918 734 915.5 Q 773 913 804 913 Q 824 913 837 914 Q 850 915 859 916.5 Q 868 918 874 920 Q 880 922 887 925 Q 906 934 930.50006 940.5 Q 955 947 980.5 951 Q 1006 955 1031 957 Q 1056 959 1075 959 Q 1120 959 1142.5 945 Q 1165 931 1165 906 Q 1165 894 1159.5 877 Q 1154 860 1146.5 842.5 Q 1139 825 1131.5 811.5 Q 1124 798 1120 793 Q 1117 790 1099.5 784 Q 1082 778 1058.5 771 Q 1035 764 1010.5 759 Q 986 754 969 752 Q 967 751 956.49994 750 Q 946 749 937 747 Q 920 744 903.5 742 Q 887 740 878 744 Q 715 663 615 584.5 Q 515 506 460 438.49997 Q 405 371 386 318 Q 367 265 367 235 Q 367 204 379 184.5 Q 391 165 410.5 154.5 Q 430 144 454.49997 140 Q 479 136 504 136 Q 558 136 630.5 160 Q 703 184 780 223.5 Q 857 263 931.50006 314 Q 1006 365 1065 420 Q 1124 475 1160 530 Q 1196 585 1196 631 Q 1196 640 1202 645.5 Q 1208 651 1216 654 Q 1224 657 1232 658 Q 1240 659 1244 659 Q 1258 659 1274 654.5 Q 1290 650 1303.5 637.5 Q 1317 625 1326 602.5 Q 1335 580 1335 544 Q 1335 499 1301.5 439 Q 1268 379 1208.5 315.5 Q 1149 252 1069 190.5 Q 989 129 896.50006 80.5 Q 804 32 702.49994 2 Q 601 -28 500 -28 Q 445 -28 389 -12 Q 333 4 288 38 Q 243 72 214.5 125 Q 186 178 186 253 Q 186 308 206 361 Q 226 414 259.5 463.5 Q 293 513 336 557.5 Q 379 602 426 640.5 Q 473 679 519.5 710 Q 566 741 606 764 Q 570 772 533 787 Q 496 802 466.5 826.5 Q 437 851 418.5 887.5 Q 400 924 400 976 Q 400 1043 438 1104 Q 476 1165 539.5 1218.5 Q 603 1272 685.5 1315.5 Q 768 1359 856 1390.4999 Q 944 1422 1031 1439 Q 1118 1456 1192 1456 Q 1216 1456 1242.5 1454 Q 1269 1452 1292.5 1449 Q 1316 1446 1334 1442.5 Q 1352 1439 1359 1437 Q 1379 1427 1394.5001 1412.5 Q 1410 1398 1420.5 1383.5 Q 1431 1369 1436.5 1356 Q 1442 1343 1442 1335 Z"/>
        </g>
        <g transform="matrix(1 0 0 1 11988 1117)">
            <path fill="#000000" stroke="none" d="M 1524 1276 Q 1524 1230 1498 1175.5 Q 1472 1121 1430 1067.5 Q 1388 1014 1335.5 964 Q 1283 914 1230 875.5 Q 1177 837 1128.5 814 Q 1080 791 1047 791 Q 1021 791 999 800 Q 977 809 961.50006 823 Q 946 837 937 853 Q 928 869 928 883 Q 928 888 930.50006 900.5 Q 933 913 937.5 926 Q 942 939 949 948.5 Q 956 958 965 958 Q 961 953 961 948 Q 961 941 970 938.5 Q 979 936 991 936 Q 1012 936 1044.5 953.5 Q 1077 971 1113.5 999 Q 1150 1027 1187.5 1062 Q 1225 1097 1255 1132 Q 1285 1167 1304 1197.5 Q 1323 1228 1323 1248 Q 1323 1274 1288 1274 Q 1242 1274 1175 1251.5 Q 1108 1229 1031.5 1188.5 Q 955 1148 875 1092.5 Q 795 1037 723 971 Q 646 901 576.5 815.5 Q 507 730 454 640 Q 401 550 369.5 461 Q 338 372 338 293 Q 338 264 345.50003 238.5 Q 353 213 369.5 194.5 Q 386 176 411.5 165 Q 437 154 473 154 Q 536 154 610.5 182.5 Q 685 211 759.5 255 Q 834 299 904 351 Q 974 403 1028 450 Q 1082 497 1115 531.5 Q 1148 566 1149 575 Q 1150 583 1158 583 Q 1168 583 1175 572.5 Q 1182 562 1182 544 Q 1182 519 1177.5 486.49997 Q 1173 454 1165 412 Q 1161 393 1134.5 355 Q 1108 317 1061.5 270.5 Q 1015 224 951 175.5 Q 887 127 808.5 87 Q 730 47 638.5 21.500002 Q 547 -4 446 -4 Q 398 -4 347.5 19.5 Q 297 43 256.5 84.5 Q 216 126 190 183.5 Q 164 241 164 309 Q 164 402 193 499.5 Q 222 597 273.5 694 Q 325 791 396 883 Q 467 975 552 1057.5 Q 637 1140 732 1209 Q 827 1278 926 1328 Q 1025 1378 1125.5 1406 Q 1226 1434 1321 1434 Q 1348 1434 1383 1424 Q 1418 1414 1449.5 1394.5001 Q 1481 1375 1502.5 1345.5 Q 1524 1316 1524 1276 Z"/>
        </g>
        <g transform="matrix(1 0 0 1 13152 1117)">
            <path fill="#000000" stroke="none" d="M 1743 1434 Q 1751 1421 1756 1408.5 Q 1761 1396 1761 1383 Q 1761 1349 1727.5 1322 Q 1694 1295 1642 1274.5 Q 1590 1254 1527 1240 Q 1464 1226 1405 1217 Q 1369 1171 1333 1119.5 Q 1297 1068 1261.5 1016.5 Q 1226 965 1192.5 914.5 Q 1159 864 1127 819 Q 1063 727 1001 627 Q 939 527 880.5 430.5 Q 822 334 765.49994 247 Q 709 160 654.5 94 Q 600 28 548 -10.5 Q 496 -49 445 -49 Q 425 -49 404.5 -44 Q 384 -39 367.5 -27 Q 351 -15 340.5 5.5 Q 330 26 330 57 Q 330 90 351.5 131 Q 373 172 401.5 210 Q 430 248 457 277.5 Q 484 307 496 317 Q 513 331 522 331 Q 533 331 533 318 Q 533 313 530.5 307.5 Q 528 302 528 297 Q 528 291 533.5 286 Q 539 281 546 281 Q 555 281 560 289 Q 565 295 590.5 329.5 Q 616 364 658 423.49997 Q 700 483 757 566 Q 814 649 881 752 Q 954 864 1021 969.5 Q 1088 1075 1166 1169 Q 1124 1159 1070.5 1147 Q 1017 1135 956.49994 1124.5 Q 896 1114 831.49994 1107.5 Q 767 1101 704 1101 Q 653 1101 604.5 1106 Q 556 1111 512 1124 Q 454 1141 434 1166 Q 414 1191 414 1231 Q 414 1239 414.5 1247 Q 415 1255 416 1264 Q 418 1291 436.5 1312.5 Q 455 1334 480.5 1348.5 Q 506 1363 534.5 1370.5 Q 563 1378 584 1378 Q 607 1378 607 1364 Q 607 1358 602 1351.5 Q 597 1345 590.5 1338 Q 584 1331 579 1324 Q 574 1317 574 1312 Q 574 1305 583.5 1299 Q 593 1293 616 1288.5 Q 639 1284 677.5 1282 Q 716 1280 775 1280 Q 853 1280 924 1284 Q 995 1288 1063.5 1296 Q 1132 1304 1199 1315.5 Q 1266 1327 1336 1341 Q 1368 1367 1403.5 1391.5 Q 1439 1416 1479 1438 Q 1519 1460 1558.5 1470.5 Q 1598 1481 1633 1481 Q 1671 1481 1700 1469 Q 1729 1457 1743 1434 Z"/>
        </g>
        <g transform="matrix(1 0 0 1 14738 1117)">
            <path fill="#000000" stroke="none" d="M 750 748 Q 750 715 735 684.5 Q 720 654 695.5 631.5 Q 671 609 639.5 595.5 Q 608 582 575 582 Q 551 582 545 593.5 Q 539 605 539 627 Q 539 635 540 641 Q 541 647 543 653 Q 521 645 501 635 Q 481 625 461 614 Q 449 607 420.5 589 Q 392 571 363.5 549 Q 335 527 313 505 Q 291 483 291 469 Q 291 463 299.5 462 Q 308 461 311 461 Q 331 461 350 466 Q 369 471 387 477.5 Q 405 484 423.49997 489 Q 442 494 461 494 Q 466 494 471 494 Q 476 494 481 492 Q 487 489 494.5 480.5 Q 502 472 508.5 462 Q 515 452 519.5 442 Q 524 432 524 426 Q 524 413 511.5 401 Q 499 389 489 381 Q 478 372 466.5 366.5 Q 455 361 443 357 Q 431 353 419 348.5 Q 407 344 395 338 Q 385 332 365.5 321 Q 346 310 322.5 296 Q 299 282 274.5 265.5 Q 250 249 230 233 Q 210 217 197 202 Q 184 187 184 176 Q 184 150 197.5 134.5 Q 211 119 231 111 Q 251 103 274 100.5 Q 297 98 317 98 Q 372 98 424.50003 120.5 Q 477 143 525.5 175.5 Q 574 208 617 243.49998 Q 660 279 694 305 Q 699 308 705 311.5 Q 711 315 717 315 Q 727 315 732 305 Q 737 295 739.50006 282 Q 742 269 742.5 256 Q 743 243 743 236 Q 743 217 741.5 203.49998 Q 740 190 735 179 Q 730 168 721 158 Q 712 148 696 135 Q 660 106 615 75 Q 570 44 518.5 18.5 Q 467 -7 409.50003 -23 Q 352 -39 291 -39 Q 246 -39 197.5 -31 Q 149 -23 108.5 -2 Q 68 19 42 54.5 Q 16 90 16 145 Q 16 187 32.5 220 Q 49 253 76 278.5 Q 103 304 137.5 322.5 Q 172 341 207 354 Q 186 363 174 375 Q 162 387 156 402 Q 150 417 148.5 434 Q 147 451 147 471 Q 147 520 172.50002 564.5 Q 198 609 239.5 646.5 Q 281 684 334.5 714 Q 388 744 443.5 765 Q 499 786 553 797.49994 Q 607 809 649 809 Q 662 809 679.5 805.5 Q 697 802 712.5 794.5 Q 728 787 739 775.5 Q 750 764 750 748 Z"/>
        </g>
        <g transform="matrix(1 0 0 1 15378 1117)">
            <path fill="#000000" stroke="none" d="M 872 761 Q 872 737 864.50006 712.5 Q 857 688 848 676 Q 838 663 820 649.5 Q 802 636 780 625 Q 758 614 734 607 Q 710 600 688 600 Q 676 600 669 602.5 Q 662 605 658 609 Q 654 613 651 616.5 Q 648 620 643 623 Q 638 625 635.5 630.5 Q 633 636 633 642 Q 633 648 635.5 652.5 Q 638 657 641.5 662 Q 645 667 649.5 673.5 Q 654 680 657 690 Q 610 688 563.5 674 Q 517 660 474.5 640.5 Q 432 621 396 598 Q 360 575 333 553.5 Q 306 532 291 514.5 Q 276 497 276 489 Q 276 475 305 468 Q 334 461 381.5 452 Q 429 443 490.5 428 Q 552 413 616 383 Q 639 372 656.5 356 Q 674 340 685.5 322.5 Q 697 305 703 287.5 Q 709 270 709 256 Q 709 211 685 172 Q 661 133 622 100 Q 583 67 532.5 42 Q 482 17 429 -1 Q 376 -19 324 -28 Q 272 -37 231 -37 Q 177 -37 140.5 -25.500002 Q 104 -14 82 3.5 Q 60 21 50.5 42 Q 41 63 41 82 Q 41 109 48 134 Q 55 159 66.5 178.5 Q 78 198 93 209.5 Q 108 221 123 221 Q 142 221 157 217.5 Q 172 214 172 200 Q 172 196 171.5 192 Q 171 188 171 184 Q 171 170 177 159 Q 183 148 191.5 140 Q 200 132 209 127.5 Q 218 123 225 123 Q 288 123 343.5 133.5 Q 399 144 440.50003 160 Q 482 176 506 195 Q 530 214 530 231 Q 530 245 506.5 255.5 Q 483 266 445 276 Q 407 286 359 296.5 Q 311 307 262 322 Q 237 330 212 340 Q 187 350 166.5 365.5 Q 146 381 133.5 404.5 Q 121 428 121 461 Q 121 521 155.5 573.5 Q 190 626 244.50002 670 Q 299 714 367 748 Q 435 782 502.49997 805.5 Q 570 829 629.5 841.5 Q 689 854 727 854 Q 782 854 811.5 843 Q 841 832 854.5 817.5 Q 868 803 870 789 Q 872 775 872 768 L 872 761 Z"/>
        </g>
        <g transform="matrix(1 0 0 1 16131 1117)">
            <path fill="#000000" stroke="none" d="M 885 668 Q 885 636 870.5 588.5 Q 856 541 829 485.5 Q 802 430 764.49994 370 Q 727 310 681 252 Q 635 194 582.5 142 Q 530 90 473 50.5 Q 416 11 356.5 -12 Q 297 -35 237 -35 Q 191 -35 159 -7 Q 127 21 127 80 Q 78 5 28 -73 Q -22 -151 -68 -224.5 Q -114 -298 -155 -363.5 Q -196 -429 -227.49998 -479 Q -259 -529 -278.5 -560.5 Q -298 -592 -303 -598 Q -318 -617 -327 -617 Q -330 -617 -341 -611.5 Q -352 -606 -364.5 -595.5 Q -377 -585 -387.5 -569 Q -398 -553 -399 -532 Q -399 -503 -394 -481 Q -389 -459 -375 -436 Q -370 -428 -342 -382 Q -314 -336 -269.5 -263 Q -225 -190 -167.5 -96 Q -110 -2 -45.5 102.50001 Q 19 207 87 316.5 Q 155 426 220 530 Q 285 634 344 727 Q 403 820 449 890.5 Q 495 961 525 1004.5 Q 555 1048 563 1053 Q 574 1061 583 1063 Q 592 1065 599 1065 Q 604 1065 608.5 1064.5 Q 613 1064 618 1064 Q 622 1064 626.5 1065 Q 631 1066 636 1066 Q 644 1066 649.5 1060.5 Q 655 1055 661 1036 Q 664 1028 666.5 1022 Q 669 1016 669 1010 Q 669 1003 664.5 994 Q 660 985 649 971 L 364 537 Q 436 606 509 660 Q 540 683 574 705 Q 608 727 642.5 744 Q 677 761 710.5 771.50006 Q 744 782 774 782 Q 827 782 856 750.5 Q 885 719 885 668 Z M 706 604 Q 706 613 700.49994 619 Q 695 625 686 625 Q 667 625 631 602 Q 595 579 549.5 541 Q 504 503 452.5 454 Q 401 405 351 353 Q 301 301 256.5 249.5 Q 212 198 180 156 Q 206 124 250 124 Q 291 124 340.5 149.5 Q 390 175 440.50003 216 Q 491 257 539 309.5 Q 587 362 624 415 Q 661 468 683.5 518 Q 706 568 706 604 Z"/>
        </g>
        <g transform="matrix(1 0 0 1 16932 1117)">
            <path fill="#000000" stroke="none" d="M 885 723 Q 885 709 876 686 Q 867 663 852.5 636 Q 838 609 820.5 580 Q 803 551 785.5 524 Q 768 497 752.5 475 Q 737 453 727 440 Q 716 426 703 417 Q 690 408 670 408 Q 638 408 621 432 Q 604 456 604 485 Q 604 507 610.5 528 Q 617 549 627.5 569 Q 638 589 651.5 607.5 Q 665 626 678 641 L 676 643 Q 663 642 634 620 Q 605 598 567.5 564.5 Q 530 531 488.50003 490.5 Q 447 450 410 412 Q 373 374 344.50003 343.5 Q 316 313 303 299 Q 246 237 194 172.50002 Q 142 108 92 41 Q 82 27 65 12.5 Q 48 -2 31 -2 Q 25 -2 11 2 Q -3 6 -17.5 11.5 Q -32 17 -44.5 23 Q -57 29 -61 33 Q -66 36 -67 40 Q -68 44 -68 49 Q -68 62 -61.5 77.5 Q -55 93 -46 109.49999 Q -37 126 -26.499998 142 Q -16 158 -8 172 Q 57 285 122.50001 395 Q 188 505 254 616 Q 276 652 296 688.5 Q 316 725 342 758 Q 368 790 411 802.50006 Q 454 815 494 815 Q 509 815 513.5 802 Q 518 789 518 776 Q 518 758 502 726.5 Q 486 695 464.5 660.5 Q 443 626 421.5 594.5 Q 400 563 389 545 Q 424 585 470 631.5 Q 516 678 568.5 718.5 Q 621 759 677.5 786 Q 734 813 791 813 Q 831 813 858 789 Q 885 765 885 723 Z"/>
        </g>
        <g transform="matrix(1 0 0 1 17647 1117)">
            <path fill="#000000" stroke="none" d="M 750 748 Q 750 715 735 684.5 Q 720 654 695.5 631.5 Q 671 609 639.5 595.5 Q 608 582 575 582 Q 551 582 545 593.5 Q 539 605 539 627 Q 539 635 540 641 Q 541 647 543 653 Q 521 645 501 635 Q 481 625 461 614 Q 449 607 420.5 589 Q 392 571 363.5 549 Q 335 527 313 505 Q 291 483 291 469 Q 291 463 299.5 462 Q 308 461 311 461 Q 331 461 350 466 Q 369 471 387 477.5 Q 405 484 423.49997 489 Q 442 494 461 494 Q 466 494 471 494 Q 476 494 481 492 Q 487 489 494.5 480.5 Q 502 472 508.5 462 Q 515 452 519.5 442 Q 524 432 524 426 Q 524 413 511.5 401 Q 499 389 489 381 Q 478 372 466.5 366.5 Q 455 361 443 357 Q 431 353 419 348.5 Q 407 344 395 338 Q 385 332 365.5 321 Q 346 310 322.5 296 Q 299 282 274.5 265.5 Q 250 249 230 233 Q 210 217 197 202 Q 184 187 184 176 Q 184 150 197.5 134.5 Q 211 119 231 111 Q 251 103 274 100.5 Q 297 98 317 98 Q 372 98 424.50003 120.5 Q 477 143 525.5 175.5 Q 574 208 617 243.49998 Q 660 279 694 305 Q 699 308 705 311.5 Q 711 315 717 315 Q 727 315 732 305 Q 737 295 739.50006 282 Q 742 269 742.5 256 Q 743 243 743 236 Q 743 217 741.5 203.49998 Q 740 190 735 179 Q 730 168 721 158 Q 712 148 696 135 Q 660 106 615 75 Q 570 44 518.5 18.5 Q 467 -7 409.50003 -23 Q 352 -39 291 -39 Q 246 -39 197.5 -31 Q 149 -23 108.5 -2 Q 68 19 42 54.5 Q 16 90 16 145 Q 16 187 32.5 220 Q 49 253 76 278.5 Q 103 304 137.5 322.5 Q 172 341 207 354 Q 186 363 174 375 Q 162 387 156 402 Q 150 417 148.5 434 Q 147 451 147 471 Q 147 520 172.50002 564.5 Q 198 609 239.5 646.5 Q 281 684 334.5 714 Q 388 744 443.5 765 Q 499 786 553 797.49994 Q 607 809 649 809 Q 662 809 679.5 805.5 Q 697 802 712.5 794.5 Q 728 787 739 775.5 Q 750 764 750 748 Z"/>
        </g>
        <g transform="matrix(1 0 0 1 18287 1117)">
            <path fill="#000000" stroke="none" d="M 872 761 Q 872 737 864.50006 712.5 Q 857 688 848 676 Q 838 663 820 649.5 Q 802 636 780 625 Q 758 614 734 607 Q 710 600 688 600 Q 676 600 669 602.5 Q 662 605 658 609 Q 654 613 651 616.5 Q 648 620 643 623 Q 638 625 635.5 630.5 Q 633 636 633 642 Q 633 648 635.5 652.5 Q 638 657 641.5 662 Q 645 667 649.5 673.5 Q 654 680 657 690 Q 610 688 563.5 674 Q 517 660 474.5 640.5 Q 432 621 396 598 Q 360 575 333 553.5 Q 306 532 291 514.5 Q 276 497 276 489 Q 276 475 305 468 Q 334 461 381.5 452 Q 429 443 490.5 428 Q 552 413 616 383 Q 639 372 656.5 356 Q 674 340 685.5 322.5 Q 697 305 703 287.5 Q 709 270 709 256 Q 709 211 685 172 Q 661 133 622 100 Q 583 67 532.5 42 Q 482 17 429 -1 Q 376 -19 324 -28 Q 272 -37 231 -37 Q 177 -37 140.5 -25.500002 Q 104 -14 82 3.5 Q 60 21 50.5 42 Q 41 63 41 82 Q 41 109 48 134 Q 55 159 66.5 178.5 Q 78 198 93 209.5 Q 108 221 123 221 Q 142 221 157 217.5 Q 172 214 172 200 Q 172 196 171.5 192 Q 171 188 171 184 Q 171 170 177 159 Q 183 148 191.5 140 Q 200 132 209 127.5 Q 218 123 225 123 Q 288 123 343.5 133.5 Q 399 144 440.50003 160 Q 482 176 506 195 Q 530 214 530 231 Q 530 245 506.5 255.5 Q 483 266 445 276 Q 407 286 359 296.5 Q 311 307 262 322 Q 237 330 212 340 Q 187 350 166.5 365.5 Q 146 381 133.5 404.5 Q 121 428 121 461 Q 121 521 155.5 573.5 Q 190 626 244.50002 670 Q 299 714 367 748 Q 435 782 502.49997 805.5 Q 570 829 629.5 841.5 Q 689 854 727 854 Q 782 854 811.5 843 Q 841 832 854.5 817.5 Q 868 803 870 789 Q 872 775 872 768 L 872 761 Z"/>
        </g>
        <g transform="matrix(1 0 0 1 19000 1117)">
            <path fill="#000000" stroke="none" d="M 872 761 Q 872 737 864.50006 712.5 Q 857 688 848 676 Q 838 663 820 649.5 Q 802 636 780 625 Q 758 614 734 607 Q 710 600 688 600 Q 676 600 669 602.5 Q 662 605 658 609 Q 654 613 651 616.5 Q 648 620 643 623 Q 638 625 635.5 630.5 Q 633 636 633 642 Q 633 648 635.5 652.5 Q 638 657 641.5 662 Q 645 667 649.5 673.5 Q 654 680 657 690 Q 610 688 563.5 674 Q 517 660 474.5 640.5 Q 432 621 396 598 Q 360 575 333 553.5 Q 306 532 291 514.5 Q 276 497 276 489 Q 276 475 305 468 Q 334 461 381.5 452 Q 429 443 490.5 428 Q 552 413 616 383 Q 639 372 656.5 356 Q 674 340 685.5 322.5 Q 697 305 703 287.5 Q 709 270 709 256 Q 709 211 685 172 Q 661 133 622 100 Q 583 67 532.5 42 Q 482 17 429 -1 Q 376 -19 324 -28 Q 272 -37 231 -37 Q 177 -37 140.5 -25.500002 Q 104 -14 82 3.5 Q 60 21 50.5 42 Q 41 63 41 82 Q 41 109 48 134 Q 55 159 66.5 178.5 Q 78 198 93 209.5 Q 108 221 123 221 Q 142 221 157 217.5 Q 172 214 172 200 Q 172 196 171.5 192 Q 171 188 171 184 Q 171 170 177 159 Q 183 148 191.5 140 Q 200 132 209 127.5 Q 218 123 225 123 Q 288 123 343.5 133.5 Q 399 144 440.50003 160 Q 482 176 506 195 Q 530 214 530 231 Q 530 245 506.5 255.5 Q 483 266 445 276 Q 407 286 359 296.5 Q 311 307 262 322 Q 237 330 212 340 Q 187 350 166.5 365.5 Q 146 381 133.5 404.5 Q 121 428 121 461 Q 121 521 155.5 573.5 Q 190 626 244.50002 670 Q 299 714 367 748 Q 435 782 502.49997 805.5 Q 570 829 629.5 841.5 Q 689 854 727 854 Q 782 854 811.5 843 Q 841 832 854.5 817.5 Q 868 803 870 789 Q 872 775 872 768 L 872 761 Z"/>
        </g>
        <g transform="matrix(1 0 0 1 19753 1117)">
            <path fill="#000000" stroke="none" d="M 834 657 Q 834 607 806 536.5 Q 778 466 730 390 Q 682 314 617.5 239.5 Q 553 165 481 105.49999 Q 409 46 333 9.5 Q 257 -27 185 -27 Q 149 -27 118.50001 -13.5 Q 88 0 66.5 22.499998 Q 45 45 33 75 Q 21 105 21 139 Q 21 230 51.5 315 Q 82 400 131 474.5 Q 180 549 242.5 610.5 Q 305 672 370 716 Q 435 760 496.5 784.5 Q 558 809 604 809 Q 627 809 644 804 Q 661 799 673 792 Q 685 785 691 778 Q 697 771 697 766 L 697 760 Q 708 762 716.5 762 Q 725 762 731 762 Q 749 762 767 756 Q 785 750 800 737.50006 Q 815 725 824.5 705 Q 834 685 834 657 Z M 633 629 Q 618 629 608 639 Q 598 649 598 680 Q 564 668 525.5 647.5 Q 487 627 448.5 598 Q 410 569 372 532 Q 334 495 299 451 Q 234 367 203.49998 294.5 Q 173 222 172 177 Q 172 151 182.5 136 Q 193 121 213 121 Q 230 121 259.5 132.5 Q 289 144 327 169.5 Q 365 195 409 235 Q 453 275 498 332 Q 581 436 617.5 507.5 Q 654 579 654 609 Q 654 629 640 629 L 633 629 Z"/>
        </g>
        <g transform="matrix(1 0 0 1 20928 1117)">
            <path fill="#000000" stroke="none" d="M 1001 1446 Q 997 1436 965 1385.5 Q 933 1335 884 1257.5 Q 835 1180 773 1083 Q 711 986 646 883.5 Q 581 781 518 680 Q 455 579 403 494 Q 409 492 415 489.50003 Q 421 487 428 485 Q 466 492 502 498.5 Q 538 505 567 510.5 Q 596 516 617 520 Q 638 524 647 526 Q 655 528 661 528 Q 686 528 714.5 515.5 Q 743 503 774 498 Q 779 497 785 483 Q 791 469 791 454 Q 791 443 786 434.5 Q 781 426 770 424 Q 766 423 750.5 419.5 Q 735 416 710.5 410 Q 686 404 654 396 Q 622 388 585 379 Q 610 350 624 317.5 Q 638 285 638 254 Q 638 202 612 137 Q 586 72 541.5 1 Q 497 -70 438 -143 Q 379 -216 314 -284.5 Q 249 -353 181.5 -413 Q 114 -473 51.5 -517.5 Q -11 -562 -63.5 -588 Q -116 -614 -152 -614 Q -167 -614 -187 -609 Q -207 -604 -225 -592 Q -243 -580 -255 -560 Q -267 -540 -267 -510 Q -267 -447 -238 -365.5 Q -209 -284 -158.5 -185.5 Q -108 -87 -40.5 27 Q 27 141 104 268 Q 87 265 79.5 264 Q 72 263 64 263 Q 44 263 32.5 270.5 Q 21 278 15 288 Q 9 298 7.5 308 Q 6 318 6 322 Q 6 329 2 336 Q -2 343 -2 350 Q -2 358 6 362 Q 18 372 26 385.5 Q 34 399 47 410 Q 59 421 77.5 438 Q 96 455 110 459 Q 121 461 157 473.50003 Q 193 486 239 494 Q 309 611 377 723 Q 445 835 507.5 935 Q 570 1035 624 1120 Q 678 1205 718.5 1268.5 Q 759 1332 784.5 1370.5 Q 810 1409 815 1415 Q 833 1436 858 1451 Q 883 1466 908 1475 Q 933 1484 953 1487.4999 Q 973 1491 980 1491 Q 992 1491 999.5 1485.4999 Q 1007 1480 1007 1469 Q 1007 1460 1001 1446 Z M 464 240 Q 464 267 447.5 291.5 Q 431 316 405 336 L 294 311 Q 257 248 213 174 Q 169 100 125 25 Q 81 -50 40.5 -122 Q 0 -194 -31 -254.5 Q -62 -315 -81 -360 Q -100 -405 -100 -425 Q -100 -440 -89 -440 Q -77 -440 -46.5 -421 Q -16 -402 25 -369 Q 66 -336 115 -291 Q 164 -246 212.50002 -194.5 Q 261 -143 306.5 -86 Q 352 -29 387 27.500002 Q 422 84 443 138.5 Q 464 193 464 240 Z"/>
        </g>
        <g transform="matrix(1 0 0 1 21645 1117)">
            <path fill="#000000" stroke="none" d="M 713 1098 Q 713 1070 698.5 1040 Q 684 1010 660.5 984.5 Q 637 959 608.5 942.5 Q 580 926 551 926 Q 492 926 492 985 Q 492 1015 506 1045.5 Q 520 1076 542.5 1100 Q 565 1124 594 1139.5 Q 623 1155 654 1155 Q 681 1155 697 1140.5 Q 713 1126 713 1098 Z M 551 225 Q 551 214 550.5 203 Q 550 192 545 182 Q 519 128 476 86.50001 Q 433 45 383.5 16.5 Q 334 -12 283.5 -26.499998 Q 233 -41 192 -41 Q 158 -41 125.49999 -26.499998 Q 93 -12 67.5 12 Q 42 36 26 67 Q 10 98 10 131 Q 10 156 26.499998 197 Q 43 238 67 285 Q 91 332 120 380.5 Q 149 429 173 469 Q 197 509 213.5 536 Q 230 563 230 567 Q 230 576 223.5 584 Q 217 592 209.5 600 Q 202 608 195.49998 616 Q 189 624 189 633 Q 189 637 201 652.5 Q 213 668 232.5 688.5 Q 252 709 277.5 732 Q 303 755 329.5 774.5 Q 356 794 382.5 806.5 Q 409 819 430 819 Q 442 819 455.49997 811 Q 469 803 479.5 791 Q 490 779 497 765 Q 504 751 504 739 Q 504 734 488.50003 703.49994 Q 473 673 449 629 Q 425 585 396 534 Q 367 483 340.5 436.5 Q 314 390 293.5 354.5 Q 273 319 266 307 Q 257 292 244 272 Q 231 252 219.49998 230 Q 208 208 199.5 186.5 Q 191 165 191 147 Q 191 126 207 119.5 Q 223 113 242 113 Q 272 113 302.5 128 Q 333 143 362 165.5 Q 391 188 417 214 Q 443 240 464.5 262.5 Q 486 285 501.5 300 Q 517 315 525 315 Q 536 315 541 303.5 Q 546 292 548.5 277 Q 551 262 551 247 Q 551 232 551 225 Z"/>
        </g>
        <g transform="matrix(1 0 0 1 22060 1117)">
            <path fill="#000000" stroke="none" d="M 885 723 Q 885 709 876 686 Q 867 663 852.5 636 Q 838 609 820.5 580 Q 803 551 785.5 524 Q 768 497 752.5 475 Q 737 453 727 440 Q 716 426 703 417 Q 690 408 670 408 Q 638 408 621 432 Q 604 456 604 485 Q 604 507 610.5 528 Q 617 549 627.5 569 Q 638 589 651.5 607.5 Q 665 626 678 641 L 676 643 Q 663 642 634 620 Q 605 598 567.5 564.5 Q 530 531 488.50003 490.5 Q 447 450 410 412 Q 373 374 344.50003 343.5 Q 316 313 303 299 Q 246 237 194 172.50002 Q 142 108 92 41 Q 82 27 65 12.5 Q 48 -2 31 -2 Q 25 -2 11 2 Q -3 6 -17.5 11.5 Q -32 17 -44.5 23 Q -57 29 -61 33 Q -66 36 -67 40 Q -68 44 -68 49 Q -68 62 -61.5 77.5 Q -55 93 -46 109.49999 Q -37 126 -26.499998 142 Q -16 158 -8 172 Q 57 285 122.50001 395 Q 188 505 254 616 Q 276 652 296 688.5 Q 316 725 342 758 Q 368 790 411 802.50006 Q 454 815 494 815 Q 509 815 513.5 802 Q 518 789 518 776 Q 518 758 502 726.5 Q 486 695 464.5 660.5 Q 443 626 421.5 594.5 Q 400 563 389 545 Q 424 585 470 631.5 Q 516 678 568.5 718.5 Q 621 759 677.5 786 Q 734 813 791 813 Q 831 813 858 789 Q 885 765 885 723 Z"/>
        </g>
        <g transform="matrix(1 0 0 1 22775 1117)">
            <path fill="#000000" stroke="none" d="M 872 761 Q 872 737 864.50006 712.5 Q 857 688 848 676 Q 838 663 820 649.5 Q 802 636 780 625 Q 758 614 734 607 Q 710 600 688 600 Q 676 600 669 602.5 Q 662 605 658 609 Q 654 613 651 616.5 Q 648 620 643 623 Q 638 625 635.5 630.5 Q 633 636 633 642 Q 633 648 635.5 652.5 Q 638 657 641.5 662 Q 645 667 649.5 673.5 Q 654 680 657 690 Q 610 688 563.5 674 Q 517 660 474.5 640.5 Q 432 621 396 598 Q 360 575 333 553.5 Q 306 532 291 514.5 Q 276 497 276 489 Q 276 475 305 468 Q 334 461 381.5 452 Q 429 443 490.5 428 Q 552 413 616 383 Q 639 372 656.5 356 Q 674 340 685.5 322.5 Q 697 305 703 287.5 Q 709 270 709 256 Q 709 211 685 172 Q 661 133 622 100 Q 583 67 532.5 42 Q 482 17 429 -1 Q 376 -19 324 -28 Q 272 -37 231 -37 Q 177 -37 140.5 -25.500002 Q 104 -14 82 3.5 Q 60 21 50.5 42 Q 41 63 41 82 Q 41 109 48 134 Q 55 159 66.5 178.5 Q 78 198 93 209.5 Q 108 221 123 221 Q 142 221 157 217.5 Q 172 214 172 200 Q 172 196 171.5 192 Q 171 188 171 184 Q 171 170 177 159 Q 183 148 191.5 140 Q 200 132 209 127.5 Q 218 123 225 123 Q 288 123 343.5 133.5 Q 399 144 440.50003 160 Q 482 176 506 195 Q 530 214 530 231 Q 530 245 506.5 255.5 Q 483 266 445 276 Q 407 286 359 296.5 Q 311 307 262 322 Q 237 330 212 340 Q 187 350 166.5 365.5 Q 146 381 133.5 404.5 Q 121 428 121 461 Q 121 521 155.5 573.5 Q 190 626 244.50002 670 Q 299 714 367 748 Q 435 782 502.49997 805.5 Q 570 829 629.5 841.5 Q 689 854 727 854 Q 782 854 811.5 843 Q 841 832 854.5 817.5 Q 868 803 870 789 Q 872 775 872 768 L 872 761 Z"/>
        </g>
        <g transform="matrix(1 0 0 1 23528 1117)">
            <path fill="#000000" stroke="none" d="M 50 160 Q 51 199 72 260 Q 93 321 126.50001 393 Q 160 465 202 541.5 Q 244 618 284.5 688 Q 325 758 361.50003 816 Q 398 874 420 909 Q 420 909 408.50003 908 Q 397 907 379.5 905 Q 362 903 341.5 900.5 Q 321 898 301.5 896 Q 282 894 267.5 892.49994 Q 253 891 247 891 L 238 891 Q 228 891 213.5 893 Q 199 895 186 900.5 Q 173 906 164 915.5 Q 155 925 155 940 Q 155 946 159 951.5 Q 163 957 168.5 963 Q 174 969 179 975.5 Q 184 982 187 989 Q 191 1001 206 1014 Q 221 1027 240.5 1038.5 Q 260 1050 280 1058 Q 300 1066 312 1067 Q 344 1069 376.50003 1070 Q 409 1071 441 1073 Q 465 1074 474 1074.5 Q 483 1075 485 1075 Q 487 1075 486 1075 Q 485 1075 487 1075 Q 489 1075 498.5 1075.5 Q 508 1076 531 1077 Q 563 1124 596.5 1172 Q 630 1220 668 1262 Q 677 1274 682 1278 Q 687 1282 703 1282 Q 715 1282 726.5 1285 Q 738 1288 750 1288 Q 759 1288 764.49994 1286.5 Q 770 1285 774 1283 Q 778 1281 781.5 1279.5 Q 785 1278 791 1278 Q 800 1278 807 1268.5 Q 814 1259 814 1251 Q 814 1245 800.50006 1221 Q 787 1197 769.50006 1169 Q 752 1141 735.49994 1115.5 Q 719 1090 713 1081 Q 718 1081 730.5 1082 Q 743 1083 758 1084 Q 773 1085 788 1086 Q 803 1087 812 1087 Q 830 1087 845.5 1086 Q 861 1085 867 1083 Q 876 1079 882.5 1072.5 Q 889 1066 894.49994 1058.5 Q 900 1051 906 1043.5 Q 912 1036 920 1030 Q 928 1024 932.5 1018 Q 937 1012 937 1001 Q 937 986 928.50006 975.5 Q 920 965 908 958 Q 896 951 882 947 Q 868 943 857 942 Q 788 935 729 928.50006 Q 670 922 601 918 Q 588 897 565 859.5 Q 542 822 513.5 773.5 Q 485 725 452.5 669.5 Q 420 614 388.5 556.5 Q 357 499 327.5 444 Q 298 389 275 341.5 Q 252 294 237.5 258 Q 223 222 220 203 Q 218 192 217 182 Q 216 172 216 164 Q 216 135 228.50002 125 Q 241 115 265 115 Q 289 115 318.5 130 Q 348 145 378.5 167 Q 409 189 439 215 Q 469 241 494 263 Q 519 285 536.5 300 Q 554 315 560 315 Q 571 315 576 303.5 Q 581 292 583.5 277 Q 586 262 586 247 Q 586 232 586 225 Q 586 196 575 176.5 Q 564 157 541 137 Q 516 115 481 85 Q 446 55 405 27.500002 Q 364 0 320 -19 Q 276 -38 233 -38 Q 219 -38 205 -35 Q 167 -28 138 -14.5 Q 109 -1 89.49999 21.500002 Q 70 44 60 78 Q 50 112 50 160 Z"/>
        </g>
        <g transform="matrix(1 0 0 1 24393 1117)">
            <path fill="#000000" stroke="none" d="M 1011 1397 Q 1011 1354 986 1292 Q 961 1230 919 1156 Q 877 1082 821 1000 Q 765 918 703.49994 835.50006 Q 642 753 578.5 673 Q 515 593 457 523 Q 399 453 350 396.5 Q 301 340 269 305 Q 266 280 259.5 257 Q 253 234 253 209 Q 253 161 284 135 Q 315 109 361 109 Q 392 109 424 124.5 Q 456 140 486.49997 162.5 Q 517 185 545 212 Q 573 239 596.5 261.5 Q 620 284 638 299.5 Q 656 315 667 315 Q 677 315 682 306 Q 687 297 689.5 284.5 Q 692 272 692.5 260 Q 693 248 693 242 L 693 222 Q 693 188 678.5 167.5 Q 664 147 646 127 Q 616 93 574.5 62.5 Q 533 32 486 9.5 Q 439 -13 390 -26 Q 341 -39 294 -39 Q 244 -39 207.5 -23.500002 Q 171 -8 147 20 Q 123 48 111 88 Q 99 128 99 176 Q 99 245 113 323.5 Q 127 402 151.5 484 Q 176 566 209 649 Q 242 732 280 809.5 Q 318 887 358.49997 957 Q 399 1027 439 1083 Q 470 1127 505.50003 1174.5 Q 541 1222 580 1268.5 Q 619 1315 659.5 1357 Q 700 1399 739.50006 1431 Q 779 1463 817.5 1482 Q 856 1501 890 1501 Q 913 1501 934.5 1494 Q 956 1487 973 1473.5 Q 990 1460 1000.5 1440.5 Q 1011 1421 1011 1397 Z M 845 1335 Q 845 1341 843 1345.5 Q 841 1350 835 1350 Q 822 1350 791.5 1319.5 Q 761 1289 722.5 1241.5 Q 684 1194 641.5 1137 Q 599 1080 561.5 1026.5 Q 524 973 496 930.50006 Q 468 888 458 870 Q 437 833 416.5 790.5 Q 396 748 376.50003 704.50006 Q 357 661 340.5 617 Q 324 573 310 532 Q 328 554 360.50003 595.5 Q 393 637 434.5 691 Q 476 745 522 808 Q 568 871 613.5 936 Q 659 1001 701 1064 Q 743 1127 775 1180.5 Q 807 1234 826 1274.5 Q 845 1315 845 1335 Z M 294 -240 Q 294 -279 268.5 -321.5 Q 243 -364 205.5 -400 Q 168 -436 125.49999 -459.5 Q 83 -483 49 -483 Q 37 -483 30.499998 -480 Q 24 -477 20 -473.50003 Q 16 -470 12 -465.5 Q 8 -461 2 -458 Q -3 -456 -6 -450.5 Q -9 -445 -9 -438 Q -9 -425 0 -417 Q 3 -415 19 -409.50003 Q 35 -404 54 -395 Q 73 -386 88 -372.5 Q 103 -359 103 -342 Q 103 -332 96.5 -324 Q 90 -316 81.5 -307 Q 73 -298 66.5 -287 Q 60 -276 60 -259 Q 60 -231 72 -209.5 Q 84 -188 103 -173 Q 122 -158 145.5 -150 Q 169 -142 192 -142 Q 221 -142 240.5 -151 Q 260 -160 272 -174 Q 284 -188 289 -205.5 Q 294 -223 294 -240 Z"/>
        </g>
        <g transform="matrix(1 0 0 1 24921 1117)">
            <path fill="#000000" stroke="none" d="M 885 1427 Q 877 1414 855 1381 Q 833 1348 802 1300 Q 771 1252 732.49994 1191 Q 694 1130 651 1060.5 Q 608 991 563 915.5 Q 518 840 474 764 Q 501 778 531 786.5 Q 561 795 588 800 Q 615 805 635.5 807 Q 656 809 663 809 Q 680 809 709 805.5 Q 738 802 766 785.5 Q 794 769 814 736 Q 834 703 834 643 Q 834 588 805 517 Q 776 446 726.5 370.5 Q 677 295 612 222.5 Q 547 150 474 93.49999 Q 401 37 324.5 2 Q 248 -33 177 -33 Q 162 -33 138.5 -21 Q 115 -9 93 12.5 Q 71 34 55.5 65 Q 40 96 40 133 Q 40 182 58.5 249 Q 77 316 109.49999 394 Q 142 472 184.5 558.5 Q 227 645 276 733 Q 325 821 376.50003 908 Q 428 995 477.5 1074.5 Q 527 1154 572 1222.5 Q 617 1291 652 1342 Q 687 1393 709 1424 Q 731 1455 736 1460 Q 747 1471 765 1479 Q 783 1487 802.50006 1492 Q 822 1497 839.5 1499 Q 857 1501 867 1501 Q 881 1501 892 1494.5 Q 903 1488 903 1473 Q 903 1455 885 1427 Z M 619 657 Q 594 657 563.5 647 Q 533 637 504 624.5 Q 475 612 450.5 602 Q 426 592 414 592 Q 408 592 401 597 Q 394 602 386 610 Q 344 535 308.5 465.5 Q 273 396 247 337 Q 221 278 206 233 Q 191 188 191 162 Q 191 156 191.5 148.5 Q 192 141 195 134 Q 198 127 204 122 Q 210 117 220 117 Q 243 117 275 132 Q 307 147 343.5 172.50002 Q 380 198 419 232.5 Q 458 267 494 306 Q 530 345 561.5 386 Q 593 427 615 467 Q 636 504 646 538.5 Q 656 573 656 600 Q 656 626 646.5 641.5 Q 637 657 619 657 Z"/>
        </g>
        <g transform="matrix(1 0 0 1 25684 1117)">
            <path fill="#000000" stroke="none" d="M 550 225 Q 550 214 549.5 203 Q 549 192 544 182 Q 518 128 475 86.50001 Q 432 45 382.5 16.5 Q 333 -12 282.5 -26.499998 Q 232 -41 191 -41 Q 157 -41 124.5 -26.499998 Q 92 -12 66.5 12 Q 41 36 25 67 Q 9 98 9 131 Q 9 156 25.500002 197 Q 42 238 66 285 Q 90 332 119 380.5 Q 148 429 172 469 Q 196 509 212.50002 536 Q 229 563 229 567 Q 229 576 222.5 584 Q 216 592 208.5 600 Q 201 608 194.5 616 Q 188 624 188 633 Q 188 637 200 652.5 Q 212 668 231.5 688.5 Q 251 709 276.5 732 Q 302 755 328.5 774.5 Q 355 794 381.5 806.5 Q 408 819 429 819 Q 441 819 454.49997 811 Q 468 803 478.5 791 Q 489 779 496 765 Q 503 751 503 739 Q 503 734 487.49997 703.49994 Q 472 673 448 629 Q 424 585 395 534 Q 366 483 339.5 436.5 Q 313 390 292.5 354.5 Q 272 319 265 307 Q 256 292 243 272 Q 230 252 218.5 230 Q 207 208 198.5 186.5 Q 190 165 190 147 Q 190 126 206 119.5 Q 222 113 241 113 Q 271 113 301.5 128 Q 332 143 361 165.5 Q 390 188 416 214 Q 442 240 463.5 262.5 Q 485 285 500.5 300 Q 516 315 524 315 Q 535 315 540 303.5 Q 545 292 547.5 277 Q 550 262 550 247 Q 550 232 550 225 Z M 644 1121 Q 678 1121 702 1128.5 Q 726 1136 743 1147 Q 760 1158 772 1171.5 Q 784 1185 794 1196 Q 804 1207 813.5 1214.5 Q 823 1222 836 1222 Q 848 1222 856.5 1214.5 Q 865 1207 870.5 1196 Q 876 1185 879 1171 Q 882 1157 882 1143 Q 882 1123 875 1107 Q 858 1073 832.50006 1046 Q 807 1019 776 1000 Q 745 981 709 970.5 Q 673 960 635 960 Q 601 960 575.5 969 Q 550 978 530 991 Q 510 1004 494.5 1020 Q 479 1036 465 1049 Q 451 1062 437 1071 Q 423 1080 406 1080 Q 370 1080 344.50003 1061 Q 319 1042 297 1018.5 Q 275 995 253.5 976 Q 232 957 203 957 Q 195 957 188 968.5 Q 181 980 181 998 Q 181 1030 195 1060.5 Q 209 1091 231 1117.5 Q 253 1144 280.5 1166.5 Q 308 1189 336 1204.5 Q 364 1220 389 1229 Q 414 1238 431 1238 Q 462 1238 484.5 1229.5 Q 507 1221 525 1208 Q 543 1195 557.5 1179.5 Q 572 1164 585.5 1151 Q 599 1138 613 1129.5 Q 627 1121 644 1121 Z"/>
        </g>
        <g transform="matrix(1 0 0 1 26109 1117)">
            <path fill="#000000" stroke="none" d="M 1272 772 Q 1272 732 1252 677 Q 1232 622 1197 559 Q 1162 496 1115.5 429 Q 1069 362 1016.5 298 Q 964 234 908 177 Q 852 120 798 77 Q 744 34 695.5 9 Q 647 -16 609 -16 Q 581 -16 561 -6 Q 541 4 528 20.5 Q 515 37 509.5 58 Q 504 79 504 100 Q 504 106 505.50003 127.5 Q 507 149 513 181 Q 519 213 530.5 252 Q 542 291 561 330 Q 518 273 461.5 209 Q 405 145 345.50003 91.5 Q 286 38 228.50002 2.5 Q 171 -33 125 -33 Q 87 -33 62 -10 Q 37 13 37 61 Q 37 86 46.5 123 Q 56 160 72 204 Q 88 248 109 296 Q 130 344 152 389 Q 174 434 196.50002 474 Q 219 514 238 543 Q 228 537 219.49998 533 Q 211 529 202 529 Q 190 529 178.5 535 Q 167 541 158.5 549.5 Q 150 558 144.5 566.5 Q 139 575 139 580 Q 139 590 148 602 Q 152 608 168.5 624.5 Q 185 641 209 662.5 Q 233 684 261 708 Q 289 732 317 751.5 Q 345 771 369.5 784 Q 394 797 410 797 Q 422 797 439 794.5 Q 456 792 471.49997 785.5 Q 487 779 498.5 768 Q 510 757 510 741 Q 510 730 489.50003 687 Q 469 644 438 585 Q 407 526 371 458.5 Q 335 391 304 332 Q 273 273 252.50002 230 Q 232 187 232 176 Q 232 173 234 173 Q 242 173 273.5 203.49998 Q 305 234 350.5 283.5 Q 396 333 450.5 395 Q 505 457 559 520 Q 613 583 660.5 640.5 Q 708 698 740 739 Q 751 756 763.5 759.5 Q 776 763 794 763 Q 798 763 813.5 768.50006 Q 829 774 849 774 Q 862 774 874.5 764 Q 887 754 887 744 Q 887 738 883 731 Q 870 707 848 664.5 Q 826 622 800.50006 570.5 Q 775 519 749.5 462 Q 724 405 703 352 Q 682 299 669 254.5 Q 656 210 656 182 Q 656 175 658.5 169.5 Q 661 164 669 164 Q 676 164 688.5 170.5 Q 701 177 720.5 193.5 Q 740 210 768 238 Q 796 266 834 309 Q 893 376 941.5 442.5 Q 990 509 1025.5 567.5 Q 1061 626 1080.5 672 Q 1100 718 1100 743 Q 1100 751 1098 755.5 Q 1096 760 1094 764.49994 Q 1092 769 1090 775 Q 1088 781 1088 791 Q 1088 834 1117 856.5 Q 1146 879 1188 879 Q 1228 879 1250 854 Q 1272 829 1272 772 Z M 1175 1092 Q 1175 1064 1161.5 1034 Q 1148 1004 1124.5 979.5 Q 1101 955 1070.5 939.5 Q 1040 924 1005 924 Q 966 924 947.5 947 Q 929 970 929 1004 Q 929 1018 939.5 1045.5 Q 950 1073 971 1101 Q 992 1129 1024 1149.5 Q 1056 1170 1099 1170 Q 1112 1170 1125.5 1166.5 Q 1139 1163 1150 1154 Q 1161 1145 1168 1130 Q 1175 1115 1175 1092 Z M 845 1094 Q 845 1067 833 1037.5 Q 821 1008 800 982.5 Q 779 957 751 940.5 Q 723 924 691 924 Q 662 924 646 947 Q 630 970 630 1008 Q 630 1029 638.5 1057.5 Q 647 1086 664 1112.5 Q 681 1139 708.5 1157.5 Q 736 1176 773 1176 Q 785 1176 798 1171.5 Q 811 1167 821.5 1157 Q 832 1147 838.5 1131.5 Q 845 1116 845 1094 Z"/>
        </g>
        <g transform="matrix(1 0 0 1 27243 1117)">
            <path fill="#000000" stroke="none" d="M 955 225 Q 955 199 944.5 176 Q 934 153 908 137 Q 881 112 846 82 Q 811 52 771.50006 26 Q 732 0 689 -17.5 Q 646 -35 601 -35 Q 571 -34 541 -22.499998 Q 511 -11 487 10 Q 463 31 448 60.5 Q 433 90 433 127 Q 433 175 451.5 229 Q 470 283 498 338 Q 526 393 560.5 447 Q 595 501 626 547 Q 630 553 638 565.5 Q 646 578 655 592 Q 664 606 671 620 Q 678 634 679 641 L 677 643 Q 664 642 635 620 Q 606 598 568.5 564.5 Q 531 531 489.50003 490.5 Q 448 450 411 412 Q 374 374 345.50003 343.5 Q 317 313 304 299 Q 247 236 196 171.5 Q 145 107 95 41 Q 84 27 67 12.5 Q 50 -2 32 -2 Q 26 -2 12.5 2 Q -1 6 -15.5 11.5 Q -30 17 -43 23 Q -56 29 -60 33 Q -65 36 -66 40 Q -67 44 -67 49 Q -67 61 -60.5 77 Q -54 93 -45 109.49999 Q -36 126 -25.500002 142 Q -15 158 -7 172 Q 58 285 123.5 395 Q 189 505 255 616 Q 277 652 297 688.5 Q 317 725 343 758 Q 369 790 412 802.50006 Q 455 815 495 815 Q 512 815 515.5 802 Q 519 789 519 776 Q 519 758 503 726.5 Q 487 695 465.5 660.5 Q 444 626 422.49997 594.5 Q 401 563 390 545 Q 426 585 472 631.5 Q 518 678 570.5 718.5 Q 623 759 679.5 786 Q 736 813 794 813 Q 832 813 860 788.5 Q 888 764 888 723 Q 888 700 868.5 661.5 Q 849 623 822.5 581 Q 796 539 769.50006 501 Q 743 463 728 440 Q 716 421 691.5 383.5 Q 667 346 643 303.5 Q 619 261 601 220.50002 Q 583 180 583 154 Q 583 130 602 120 Q 621 110 643 110 Q 667 110 695.5 125 Q 724 140 753 163 Q 782 186 810.5 212.50002 Q 839 239 863 262 Q 887 285 904.5 300 Q 922 315 929 315 Q 940 315 945 303.5 Q 950 292 952.5 277 Q 955 262 955 247 Q 955 232 955 225 Z M 822 1189 Q 854 1215 878 1232 Q 902 1249 919.5 1262.5 Q 937 1276 948.5 1287.5 Q 960 1299 965 1314 Q 968 1322 972.5 1327 Q 977 1332 984 1332 Q 999 1332 1011.5 1321.5 Q 1024 1311 1032 1295.5 Q 1040 1280 1044.5 1262.5 Q 1049 1245 1049 1232 Q 1049 1184 1023 1150 Q 997 1116 965 1095 Q 958 1088 936 1073.5 Q 914 1059 884 1040.5 Q 854 1022 819.5 1002.5 Q 785 983 753 967.5 Q 721 952 695 941.5 Q 669 931 656 931 Q 644 931 638.5 940 Q 633 949 633 957 Q 633 966 638 976 Q 650 1008 668.5 1036 Q 687 1064 711 1090 Q 735 1116 763 1140 Q 791 1164 822 1189 Z"/>
        </g>
        <g transform="matrix(1 0 0 1 28043 1117)">
            <path fill="#000000" stroke="none" d="M 980 295 Q 982 285 984 265 Q 986 245 986 225 Q 986 212 985 201 Q 984 190 980 182 Q 973 169 956.49994 147.5 Q 940 126 916.5 102 Q 893 78 863.49994 53.5 Q 834 29 801 9.5 Q 768 -10 733.49994 -22.499998 Q 699 -35 666 -35 Q 627 -35 599 -20.5 Q 571 -6 552.5 17 Q 534 40 525.5 70.5 Q 517 101 517 132 Q 517 182 537 227 Q 496 173 446.5 126 Q 397 79 347 44 Q 297 9 250 -11 Q 203 -31 165 -31 Q 133 -31 106 -19.5 Q 79 -8 58.5 11 Q 38 30 25.500002 54.5 Q 13 79 9 106 Q 5 129 5 156 Q 5 230 34 304.5 Q 63 379 111 447 Q 159 515 221 573.5 Q 283 632 349.5 675.5 Q 416 719 482 743.5 Q 548 768 603 768 Q 661 768 693.5 749 Q 726 730 734 705 Q 746 724 756 735 Q 766 746 776 751.5 Q 786 757 797.49994 758.5 Q 809 760 824 760 Q 856 760 878 747.5 Q 900 735 900 708 Q 900 697 896.50006 685 Q 893 673 886 666 Q 882 662 867 638 Q 852 614 831 577 Q 810 540 785.5 493 Q 761 446 738 395 Q 715 344 697 293 Q 679 242 671 197 Q 668 187 668 169 Q 668 150 674.5 132 Q 681 114 700 114 Q 720 114 744 127 Q 768 140 793 160 Q 818 180 842.5 204 Q 867 228 886.5 249 Q 906 270 919.5 285.5 Q 933 301 937 305 Q 948 314 959 314 Q 978 314 980 295 Z M 691 649 Q 666 649 629 642 Q 592 635 546.5 614.5 Q 501 594 448 557 Q 395 520 337 459 Q 304 425 272.5 382 Q 241 339 217 296 Q 193 253 178 216 Q 163 179 163 156 Q 163 131 183 131 Q 193 131 216.5 146 Q 240 161 271.5 186 Q 303 211 339.5 242.5 Q 376 274 411 306.5 Q 446 339 476 370 Q 506 401 525 424 Q 542 445 562.5 473 Q 583 501 605 531 Q 627 561 649 591.5 Q 671 622 691 649 Z M 535 1012 Q 511 1061 488 1095.5 Q 465 1130 448 1154 Q 431 1178 420.5 1194.5 Q 410 1211 410 1225 Q 410 1234 423 1246.5 Q 436 1259 456 1270.5 Q 476 1282 501 1290 Q 526 1298 550 1298 Q 568 1298 578 1289 Q 588 1280 596 1259 Q 604 1238 612.5 1203.5 Q 621 1169 636 1118 Q 641 1102 650 1076 Q 659 1050 667.5 1021.49994 Q 676 993 682.5 966 Q 689 939 689 921 Q 689 904 681 898.50006 Q 673 893 656 893 Q 624 893 603.5 906.5 Q 583 920 570 939 Q 557 958 549 978.5 Q 541 999 535 1012 Z"/>
        </g>
    </g>
</svg>
