<svg width="19310" height="2000" viewBox="0 0 19310 2000" xmlns="http://www.w3.org/2000/svg">
    <defs/>
    <g transform="matrix(1 0 0 -1 0 2000)">
        <g transform="matrix(1 0 0 1 0 730)">
            <path fill="#000000" stroke="none" d="M 854 690 L 690 31 L 713 31 L 545 680 L 429 680 L 257 32 L 280 31 L 124 690 L 26 690 L 208 0 L 322 0 L 496 638 L 473 639 L 640 0 L 753 0 L 945 690 L 854 690 Z"/>
        </g>
        <g transform="matrix(1 0 0 1 960 730)">
            <path fill="#000000" stroke="none" d="M 373 636 Q 427 636 470 616 Q 513 596 542.5 558 Q 572 520 587.5 466.5 Q 603 413 603 345 Q 603 278 587.5 224 Q 572 170 542.5 132.5 Q 513 95 470 74.5 Q 427 54 373 54 L 373 -14 Q 452 -14 512.5 12.5 Q 573 39 614.5 86.50001 Q 656 134 677.5 200 Q 699 266 699 345 Q 699 424 677.5 490 Q 656 556 614.5 603.5 Q 573 651 512.5 677.5 Q 452 704 373 704 L 373 636 Z M 373 704 Q 294 704 233.5 677.5 Q 173 651 131.5 603.5 Q 90 556 68.5 490 Q 47 424 47 345 Q 47 266 68.5 200 Q 90 134 131.5 86.50001 Q 173 39 233.5 12.5 Q 294 -14 373 -14 L 373 54 Q 319 54 276 74.5 Q 233 95 203.49998 132.5 Q 174 170 158.5 224 Q 143 278 143 345 Q 143 413 158.5 466.5 Q 174 520 203.49998 558 Q 233 596 276 616 Q 319 636 373 636 L 373 704 Z"/>
        </g>
        <g transform="matrix(1 0 0 1 1697 730)">
            <path fill="#000000" stroke="none" d="M 180 690 L 180 620 L 326 620 Q 349 620 365 619 Q 381 618 395 616 Q 443 609 469.5 580.5 Q 496 552 496 494 Q 496 465 487.49997 442.5 Q 479 420 464.5 404.5 Q 450 389 429.5 380 Q 409 371 385 369 Q 371 367 356 367 Q 341 367 318 367 L 180 367 L 180 297 L 316 297 Q 328 297 340.5 297 Q 353 297 365 296 Q 391 294 409 284.5 Q 427 275 439 259 Q 451 243 458 221.5 Q 465 200 468 173 Q 471 141 474.5 116 Q 478 91 482.5 71 Q 487 51 492.5 34 Q 498 17 505 0 L 600 0 Q 590 14 582.5 31.500002 Q 575 49 569.5 71 Q 564 93 560.5 120 Q 557 147 554 181 Q 551 215 541 246 Q 531 277 512.5 300.5 Q 494 324 467 338 Q 440 352 403 352 L 403 330 Q 434 330 467 340 Q 500 350 527 371 Q 554 392 571 424.50003 Q 588 457 588 502 Q 588 546 575 578 Q 562 610 539.5 632.5 Q 517 655 485.5 668 Q 454 681 416 686 Q 393 689 372.5 689.5 Q 352 690 326 690 L 180 690 Z M 100 690 L 100 0 L 186 0 L 186 690 L 100 690 Z"/>
        </g>
        <g transform="matrix(1 0 0 1 2316 730)">
            <path fill="#000000" stroke="none" d="M 100 690 L 100 0 L 186 0 L 186 690 L 100 690 Z M 161 70 L 161 0 L 559 0 L 559 70 L 161 70 Z"/>
        </g>
        <g transform="matrix(1 0 0 1 2891 730)">
            <path fill="#000000" stroke="none" d="M 180 690 L 180 620 L 305 620 Q 332 620 352 619 Q 372 618 389 615 Q 433 608 468 587.5 Q 503 567 527 534 Q 551 501 564 455.49997 Q 577 410 577 353 Q 577 292 563.5 243.49998 Q 550 195 524.5 160 Q 499 125 463.5 103.5 Q 428 82 384 75 Q 367 72 347 71 Q 327 70 300 70 L 180 70 L 180 0 L 305 0 Q 333 0 350 0.5 Q 367 1 393 4 Q 453 12 504 38.5 Q 555 65 592 109.49999 Q 629 154 650 215.5 Q 671 277 671 353 Q 671 430 651 489 Q 631 548 594.5 589.5 Q 558 631 508 655 Q 458 679 398 686 Q 372 689 355 689.5 Q 338 690 310 690 L 180 690 Z M 100 690 L 100 0 L 186 0 L 186 690 L 100 690 Z"/>
        </g>
        <g transform="matrix(1 0 0 1 3816 730)">
            <path fill="#000000" stroke="none" d="M 99 690 L 99 0 L 185 0 L 185 690 L 99 690 Z M 160 70 L 160 0 L 558 0 L 558 70 L 160 70 Z M 160 380 L 160 310 L 518 310 L 518 380 L 160 380 Z M 160 690 L 160 620 L 548 620 L 548 690 L 160 690 Z M 293 864 Q 270 864 254 848 Q 238 832 238 809 Q 238 786 254 770 Q 270 754 293 754 Q 316 754 332 770 Q 348 786 348 809 Q 348 832 332 848 Q 316 864 293 864 Z"/>
        </g>
        <g transform="matrix(1 0 0 1 4403 730)">
            <path fill="#000000" stroke="none" d="M 99 690 L 99 0 L 185 0 L 185 690 L 99 690 Z M 160 70 L 160 0 L 558 0 L 558 70 L 160 70 Z M 160 380 L 160 310 L 518 310 L 518 380 L 160 380 Z M 160 690 L 160 620 L 548 620 L 548 690 L 160 690 Z M 204 850 L 289 740 L 345 740 L 284 850 L 204 850 Z"/>
        </g>
        <g transform="matrix(1 0 0 1 4990 730)">
            <path fill="#000000" stroke="none" d="M 43 52 L 84 11 L 711 638 L 670 679 L 43 52 Z M 377 636 Q 431 636 474 616 Q 517 596 546.5 558 Q 576 520 591.5 466.5 Q 607 413 607 345 Q 607 278 591.5 224 Q 576 170 546.5 132.5 Q 517 95 474 74.5 Q 431 54 377 54 L 377 -14 Q 456 -14 516.5 12.5 Q 577 39 618.5 86.50001 Q 660 134 681.5 200 Q 703 266 703 345 Q 703 424 681.5 490 Q 660 556 618.5 603.5 Q 577 651 516.5 677.5 Q 456 704 377 704 L 377 636 Z M 377 704 Q 298 704 237.5 677.5 Q 177 651 135.5 603.5 Q 94 556 72.5 490 Q 51 424 51 345 Q 51 266 72.5 200 Q 94 134 135.5 86.50001 Q 177 39 237.5 12.5 Q 298 -14 377 -14 L 377 54 Q 323 54 280 74.5 Q 237 95 207.5 132.5 Q 178 170 162.5 224 Q 147 278 147 345 Q 147 413 162.5 466.5 Q 178 520 207.5 558 Q 237 596 280 616 Q 323 636 377 636 L 377 704 Z"/>
        </g>
        <g transform="matrix(1 0 0 1 5735 730)">
            <path fill="#000000" stroke="none" d="M 372 636 Q 426 636 469 616 Q 512 596 541.5 558 Q 571 520 586.5 466.5 Q 602 413 602 345 Q 602 278 586.5 224 Q 571 170 541.5 132.5 Q 512 95 469 74.5 Q 426 54 372 54 L 372 -14 Q 451 -14 511.5 12.5 Q 572 39 613.5 86.50001 Q 655 134 676.5 200 Q 698 266 698 345 Q 698 424 676.5 490 Q 655 556 613.5 603.5 Q 572 651 511.5 677.5 Q 451 704 372 704 L 372 636 Z M 372 704 Q 293 704 232.5 677.5 Q 172 651 130.5 603.5 Q 89 556 67.5 490 Q 46 424 46 345 Q 46 266 67.5 200 Q 89 134 130.5 86.50001 Q 172 39 232.5 12.5 Q 293 -14 372 -14 L 372 54 Q 318 54 275 74.5 Q 232 95 202.5 132.5 Q 173 170 157.5 224 Q 142 278 142 345 Q 142 413 157.5 466.5 Q 173 520 202.5 558 Q 232 596 275 616 Q 318 636 372 636 L 372 704 Z M 417 850 Q 416 811 403 796 Q 390 781 368 781 Q 346 781 333 796 Q 320 811 319 850 L 266 850 Q 266 819 272 795.5 Q 278 772 290 756.5 Q 302 741 321.5 733.49994 Q 341 726 368 726 Q 395 726 414 733.49994 Q 433 741 445.5 756.5 Q 458 772 464 795.5 Q 470 819 470 850 L 417 850 Z"/>
        </g>
        <g transform="matrix(1 0 0 1 6472 730)">
            <path fill="#000000" stroke="none" d="M 514 690 L 298 369 L 350 368 L 141 690 L 43 690 L 271 348 L 25 0 L 124 0 L 346 330 L 295 329 L 522 0 L 623 0 L 373 351 L 613 690 L 514 690 Z"/>
        </g>
        <g transform="matrix(1 0 0 1 7097 730)">
            <path fill="#000000" stroke="none" d="M 401 690 L 401 267 Q 401 240 401 220.50002 Q 401 201 400 186 Q 395 125 364.5 89.49999 Q 334 54 274 54 Q 243 54 219.49998 62.5 Q 196 71 179.49998 88.5 Q 163 106 153.5 132 Q 144 158 142 194 L 140 235 L 54 235 L 55 194 Q 56 146 70.5 107.5 Q 85 69 111.5 42 Q 138 15 176 0.5 Q 214 -14 262 -14 Q 317 -14 357.5 0 Q 398 14 425.50003 40 Q 453 66 467.5 102 Q 482 138 485 181 Q 487 207 487 225.5 Q 487 244 487 264 L 487 690 L 401 690 Z M 242 850 L 175 740 L 238 740 L 288 835 L 254 835 L 304 740 L 368 740 L 301 850 L 242 850 Z"/>
        </g>
        <g transform="matrix(1 0 0 1 7857 730)">
            <path fill="#000000" stroke="none" d="M 289 544 Q 238 544 191 526.5 Q 144 509 108 474 Q 72 439 51 385 Q 30 331 30 257 Q 30 199 46 149.5 Q 62 100 92.5 63.5 Q 123 27 168 6.5 Q 213 -14 271 -14 Q 312 -14 350 -2.5 Q 388 9 411 28 L 465 105 L 451 260 Q 451 203 437.5 163.5 Q 424 124 400.5 99 Q 377 74 347 63 Q 317 52 284 52 Q 244 52 214 68.5 Q 184 85 164 114.50001 Q 144 144 134 183 Q 124 222 124 267 Q 124 319 136.5 358.49997 Q 149 398 171.5 424.50003 Q 194 451 224 464.5 Q 254 478 289 478 Q 318 478 346.5 467.5 Q 375 457 398.5 434.5 Q 422 412 436.5 376 Q 451 340 451 289 L 469 431 L 416 509 Q 396 526 359 535 Q 322 544 289 544 Z M 451 735 L 451 0 L 537 0 L 537 735 L 451 735 Z"/>
        </g>
        <g transform="matrix(1 0 0 1 8472 730)">
            <path fill="#000000" stroke="none" d="M 73 530 L 73 0 L 159 0 L 159 530 L 73 530 Z M 116 704 Q 93 704 77 688 Q 61 672 61 649 Q 61 626 77 610 Q 93 594 116 594 Q 139 594 155 610 Q 171 626 171 649 Q 171 672 155 688 Q 139 704 116 704 Z"/>
        </g>
        <g transform="matrix(1 0 0 1 8710 730)">
            <path fill="#000000" stroke="none" d="M 228 544 Q 187 544 153.5 533.5 Q 120 523 96 503 Q 72 483 58.5 454 Q 45 425 45 389 Q 45 354 58.5 328.5 Q 72 303 95 284.5 Q 118 266 149 253.5 Q 180 241 216 231 Q 249 222 273 212 Q 297 202 312 190 Q 327 178 334 163 Q 341 148 341 129 Q 341 110 333 95.5 Q 325 81 311 71.5 Q 297 62 278 57 Q 259 52 238 52 Q 215 52 195 57.5 Q 175 63 158.5 75 Q 142 87 130.5 107 Q 119 127 114 156 L 24 156 Q 30 111 48 79 Q 66 47 93 26 Q 120 5 155.5 -4.5 Q 191 -14 232 -14 Q 274 -14 310 -4.5 Q 346 5 372.5 23.500002 Q 399 42 414 70.5 Q 429 99 429 136 Q 429 170 418 196 Q 407 222 384.5 242.5 Q 362 263 328.5 278.5 Q 295 294 249 306 Q 222 313 200.5 321 Q 179 329 164 339.5 Q 149 350 141 364.5 Q 133 379 133 399 Q 133 416 138.5 430.5 Q 144 445 154.5 455.49997 Q 165 466 182 472 Q 199 478 221 478 Q 268 478 296 452 Q 324 426 333 379 L 423 379 Q 419 415 404.5 445.5 Q 390 476 366 498 Q 342 520 307.5 532 Q 273 544 228 544 Z"/>
        </g>
        <g transform="matrix(1 0 0 1 9169 730)">
            <path fill="#000000" stroke="none" d="M 279 544 Q 229 544 184 525.5 Q 139 507 104.5 471 Q 70 435 50 383 Q 30 331 30 264 Q 30 191 48 138.5 Q 66 86 97.49999 52 Q 129 18 172.50002 2 Q 216 -14 266 -14 Q 310 -14 348.5 -2.5 Q 387 9 417 31.500002 Q 447 54 467.5 88.5 Q 488 123 498 169 L 408 169 Q 401 140 388.5 118 Q 376 96 359 81.5 Q 342 67 319.5 59.5 Q 297 52 271 52 Q 241 52 214.5 64.5 Q 188 77 168 103.5 Q 148 130 136 171 Q 124 212 124 270 Q 124 324 136 363 Q 148 402 169 427.5 Q 190 453 218 465.5 Q 246 478 277 478 Q 331 478 365 447 Q 399 416 413 352 L 503 352 Q 497 396 479 431 Q 461 466 432.5 491.5 Q 404 517 365.5 530.5 Q 327 544 279 544 Z"/>
        </g>
        <g transform="matrix(1 0 0 1 9698 730)">
            <path fill="#000000" stroke="none" d="M 293 478 Q 333 478 364.5 462.5 Q 396 447 417.5 418.5 Q 439 390 450.5 351 Q 462 312 462 265 Q 462 219 450.5 179.49998 Q 439 140 417.5 112 Q 396 84 364.5 68 Q 333 52 293 52 L 293 -14 Q 361 -14 410.5 8.5 Q 460 31 492 69.5 Q 524 108 540 158.5 Q 556 209 556 265 Q 556 321 540 372 Q 524 423 492 461 Q 460 499 410.5 521.5 Q 361 544 293 544 L 293 478 Z M 293 544 Q 226 544 176 521.5 Q 126 499 94 461 Q 62 423 46 372 Q 30 321 30 265 Q 30 209 46 158.5 Q 62 108 94 69.5 Q 126 31 176 8.5 Q 226 -14 293 -14 L 293 52 Q 253 52 221.5 68 Q 190 84 168.5 112 Q 147 140 135.5 179.49998 Q 124 219 124 265 Q 124 312 135.5 351 Q 147 390 168.5 418.5 Q 190 447 221.5 462.5 Q 253 478 293 478 L 293 544 Z"/>
        </g>
        <g transform="matrix(1 0 0 1 10284 730)">
            <path fill="#000000" stroke="none" d="M 417 530 L 249 38 L 266 39 L 96 530 L 1 530 L 202 0 L 307 0 L 508 530 L 417 530 Z"/>
        </g>
        <g transform="matrix(1 0 0 1 10790 730)">
            <path fill="#000000" stroke="none" d="M 282 544 Q 228 544 181.5 524.5 Q 135 505 101.49999 468 Q 68 431 49 379.5 Q 30 328 30 263 L 122 270 Q 122 321 133.5 360 Q 145 399 166 425 Q 187 451 216 464.5 Q 245 478 280 478 Q 316 478 343 464 Q 370 450 387.5 423 Q 405 396 414 357 Q 423 318 423 268 L 458 305 L 85 305 L 85 239 L 507 239 Q 509 253 509 263.5 Q 509 274 509 280 Q 509 338 494 386.5 Q 479 435 450 470 Q 421 505 379 524.5 Q 337 544 282 544 Z M 30 263 Q 30 193 48.5 141 Q 67 89 99 54.5 Q 131 20 175 3 Q 219 -14 271 -14 Q 312 -14 350 -3 Q 388 8 419.5 30.499998 Q 451 53 472.50003 88 Q 494 123 502 171 L 412 171 Q 408 143 395.5 120.5 Q 383 98 365 83 Q 347 68 324 60 Q 301 52 275 52 Q 244 52 216 63 Q 188 74 167 99.5 Q 146 125 134 167 Q 122 209 122 270 L 30 263 Z"/>
        </g>
        <g transform="matrix(1 0 0 1 11339 730)">
            <path fill="#000000" stroke="none" d="M 74 530 L 74 0 L 160 0 L 160 530 L 74 530 Z M 282 542 Q 263 542 244 535.5 Q 225 529 208 518 L 156 441 L 160 302 Q 160 347 172 380 Q 184 413 205 433.5 Q 226 454 255 463 Q 284 472 318 470 L 318 535 Q 310 539 301.5 540.5 Q 293 542 282 542 Z"/>
        </g>
        <g transform="matrix(1 0 0 1 11885 730)">
            <path fill="#000000" stroke="none" d="M 331 544 Q 290 544 258.5 535 Q 227 526 193 500 L 156 432 L 160 233 Q 160 301 172 347.5 Q 184 394 205 422.49997 Q 226 451 254 463.5 Q 282 476 313 476 Q 375 476 402.5 445.5 Q 430 415 434 368 Q 436 348 436 330 Q 436 312 436 292 L 436 0 L 522 0 L 522 298 Q 522 330 522 349.5 Q 522 369 520 389 Q 514 459 466.5 501.5 Q 419 544 331 544 Z M 74 530 L 74 0 L 160 0 L 160 530 L 74 530 Z"/>
        </g>
        <g transform="matrix(1 0 0 1 12478 730)">
            <path fill="#000000" stroke="none" d="M 281 544 Q 227 544 180.50002 524.5 Q 134 505 100.5 468 Q 67 431 48 379.5 Q 29 328 29 263 L 121 270 Q 121 321 132.5 360 Q 144 399 165 425 Q 186 451 215 464.5 Q 244 478 279 478 Q 315 478 342 464 Q 369 450 386.5 423 Q 404 396 413 357 Q 422 318 422 268 L 457 305 L 84 305 L 84 239 L 506 239 Q 508 253 508 263.5 Q 508 274 508 280 Q 508 338 493 386.5 Q 478 435 449 470 Q 420 505 378 524.5 Q 336 544 281 544 Z M 29 263 Q 29 193 47.5 141 Q 66 89 98 54.5 Q 130 20 174 3 Q 218 -14 270 -14 Q 311 -14 349 -3 Q 387 8 418.5 30.499998 Q 450 53 471.49997 88 Q 493 123 501 171 L 411 171 Q 407 143 394.5 120.5 Q 382 98 364 83 Q 346 68 323 60 Q 300 52 274 52 Q 243 52 215 63 Q 187 74 166 99.5 Q 145 125 133 167 Q 121 209 121 270 L 29 263 Z M 306 11 Q 284 3 263.5 -11 Q 243 -25 227.49998 -43.5 Q 212 -62 202.5 -86 Q 193 -110 193 -138 Q 193 -186 218.5 -204.50002 Q 244 -223 286 -223 Q 311 -223 333.5 -217 Q 356 -211 375 -198 L 375 -149 Q 361 -160 347.5 -164.5 Q 334 -169 319 -169 Q 297 -169 286 -158 Q 275 -147 275 -119 Q 275 -95 282.5 -75 Q 290 -55 303 -39.5 Q 316 -24 333 -13.5 Q 350 -3 369 0 L 306 11 Z"/>
        </g>
        <g transform="matrix(1 0 0 1 13027 730)">
            <path fill="#000000" stroke="none" d="M 407 530 L 160 263 L 160 169 L 225 241 L 185 253 L 403 0 L 520 0 L 233 321 L 231 240 L 517 530 L 407 530 Z M 74 735 L 74 0 L 160 0 L 160 735 L 74 735 Z"/>
        </g>
        <g transform="matrix(1 0 0 1 13540 730)">
            <path fill="#000000" stroke="none" d="M 278 544 Q 228 544 183 525.5 Q 138 507 103.5 471 Q 69 435 49 383 Q 29 331 29 264 Q 29 191 47 138.5 Q 65 86 96.5 52 Q 128 18 171.5 2 Q 215 -14 265 -14 Q 309 -14 347.5 -2.5 Q 386 9 416 31.500002 Q 446 54 466.5 88.5 Q 487 123 497 169 L 407 169 Q 400 140 387.5 118 Q 375 96 358 81.5 Q 341 67 318.5 59.5 Q 296 52 270 52 Q 240 52 213.5 64.5 Q 187 77 167 103.5 Q 147 130 135 171 Q 123 212 123 270 Q 123 324 135 363 Q 147 402 168 427.5 Q 189 453 217 465.5 Q 245 478 276 478 Q 330 478 364 447 Q 398 416 412 352 L 502 352 Q 496 396 478 431 Q 460 466 431.5 491.5 Q 403 517 364.5 530.5 Q 326 544 278 544 Z M 271 690 L 210 580 L 266 580 L 351 690 L 271 690 Z"/>
        </g>
        <g transform="matrix(1 0 0 1 14069 730)">
            <path fill="#000000" stroke="none" d="M 42 526 L 42 458 L 349 458 L 349 485 L 20 66 L 20 0 L 433 0 L 433 68 L 101 68 L 101 41 L 428 457 L 428 526 L 42 526 Z"/>
        </g>
        <g transform="matrix(1 0 0 1 14521 730)">
            <path fill="#000000" stroke="none" d="M 281 544 Q 227 544 180.50002 524.5 Q 134 505 100.5 468 Q 67 431 48 379.5 Q 29 328 29 263 L 121 270 Q 121 321 132.5 360 Q 144 399 165 425 Q 186 451 215 464.5 Q 244 478 279 478 Q 315 478 342 464 Q 369 450 386.5 423 Q 404 396 413 357 Q 422 318 422 268 L 457 305 L 84 305 L 84 239 L 506 239 Q 508 253 508 263.5 Q 508 274 508 280 Q 508 338 493 386.5 Q 478 435 449 470 Q 420 505 378 524.5 Q 336 544 281 544 Z M 29 263 Q 29 193 47.5 141 Q 66 89 98 54.5 Q 130 20 174 3 Q 218 -14 270 -14 Q 311 -14 349 -3 Q 387 8 418.5 30.499998 Q 450 53 471.49997 88 Q 493 123 501 171 L 411 171 Q 407 143 394.5 120.5 Q 382 98 364 83 Q 346 68 323 60 Q 300 52 274 52 Q 243 52 215 63 Q 187 74 166 99.5 Q 145 125 133 167 Q 121 209 121 270 L 29 263 Z M 306 11 Q 284 3 263.5 -11 Q 243 -25 227.49998 -43.5 Q 212 -62 202.5 -86 Q 193 -110 193 -138 Q 193 -186 218.5 -204.50002 Q 244 -223 286 -223 Q 311 -223 333.5 -217 Q 356 -211 375 -198 L 375 -149 Q 361 -160 347.5 -164.5 Q 334 -169 319 -169 Q 297 -169 286 -158 Q 275 -147 275 -119 Q 275 -95 282.5 -75 Q 290 -55 303 -39.5 Q 316 -24 333 -13.5 Q 350 -3 369 0 L 306 11 Z"/>
        </g>
        <g transform="matrix(1 0 0 1 15070 730)">
            <path fill="#000000" stroke="none" d="M 330 544 Q 289 544 257.5 535 Q 226 526 192 500 L 155 432 L 159 233 Q 159 301 171 347 Q 183 393 204 421.5 Q 225 450 253 462.5 Q 281 475 312 476 Q 374 478 401.5 446.5 Q 429 415 433 368 Q 435 348 435 330 Q 435 312 435 292 L 435 0 L 521 0 L 521 298 Q 521 330 521 349.5 Q 521 369 519 389 Q 513 459 465.5 501.5 Q 418 544 330 544 Z M 73 740 L 73 0 L 159 0 L 159 740 L 73 740 Z M 267 690 L 200 580 L 263 580 L 313 675 L 279 675 L 329 580 L 393 580 L 326 690 L 267 690 Z"/>
        </g>
        <g transform="matrix(1 0 0 1 15879 730)">
            <path fill="#000000" stroke="none" d="M 293 478 Q 333 478 364.5 462.5 Q 396 447 417.5 418.5 Q 439 390 450.5 351 Q 462 312 462 265 Q 462 219 450.5 179.49998 Q 439 140 417.5 112 Q 396 84 364.5 68 Q 333 52 293 52 L 293 -14 Q 361 -14 410.5 8.5 Q 460 31 492 69.5 Q 524 108 540 158.5 Q 556 209 556 265 Q 556 321 540 372 Q 524 423 492 461 Q 460 499 410.5 521.5 Q 361 544 293 544 L 293 478 Z M 293 544 Q 226 544 176 521.5 Q 126 499 94 461 Q 62 423 46 372 Q 30 321 30 265 Q 30 209 46 158.5 Q 62 108 94 69.5 Q 126 31 176 8.5 Q 226 -14 293 -14 L 293 52 Q 253 52 221.5 68 Q 190 84 168.5 112 Q 147 140 135.5 179.49998 Q 124 219 124 265 Q 124 312 135.5 351 Q 147 390 168.5 418.5 Q 190 447 221.5 462.5 Q 253 478 293 478 L 293 544 Z"/>
        </g>
        <g transform="matrix(1 0 0 1 16465 730)">
            <path fill="#000000" stroke="none" d="M 227 544 Q 186 544 152.5 533.5 Q 119 523 95 503 Q 71 483 57.5 454 Q 44 425 44 389 Q 44 354 57.5 328.5 Q 71 303 94 284.5 Q 117 266 148 253.5 Q 179 241 215 231 Q 248 222 272 212 Q 296 202 311 190 Q 326 178 333 163 Q 340 148 340 129 Q 340 110 332 95.5 Q 324 81 310 71.5 Q 296 62 277 57 Q 258 52 237 52 Q 214 52 194 57.5 Q 174 63 157.5 75 Q 141 87 129.5 107 Q 118 127 113 156 L 23 156 Q 29 111 47 79 Q 65 47 92 26 Q 119 5 154.5 -4.5 Q 190 -14 231 -14 Q 273 -14 309 -4.5 Q 345 5 371.5 23.500002 Q 398 42 413 70.5 Q 428 99 428 136 Q 428 170 417 196 Q 406 222 383.5 242.5 Q 361 263 327.5 278.5 Q 294 294 248 306 Q 221 313 199.5 321 Q 178 329 163 339.5 Q 148 350 140 364.5 Q 132 379 132 399 Q 132 416 137.5 430.5 Q 143 445 153.5 455.49997 Q 164 466 181 472 Q 198 478 220 478 Q 267 478 295 452 Q 323 426 332 379 L 422 379 Q 418 415 403.5 445.5 Q 389 476 365 498 Q 341 520 306.5 532 Q 272 544 227 544 Z M 240 -51 L 188 -195 L 249 -195 L 309 -63 L 309 -51 L 240 -51 Z"/>
        </g>
        <g transform="matrix(1 0 0 1 16924 730)">
            <path fill="#000000" stroke="none" d="M 292 478 Q 332 478 363.5 462.5 Q 395 447 416.5 418.5 Q 438 390 449.5 351 Q 461 312 461 265 Q 461 219 449.5 179.49998 Q 438 140 416.5 112 Q 395 84 363.5 68 Q 332 52 292 52 L 292 -14 Q 360 -14 409.50003 8.5 Q 459 31 491 69.5 Q 523 108 539 158.5 Q 555 209 555 265 Q 555 321 539 372 Q 523 423 491 461 Q 459 499 409.50003 521.5 Q 360 544 292 544 L 292 478 Z M 292 544 Q 225 544 175 521.5 Q 125 499 93 461 Q 61 423 45 372 Q 29 321 29 265 Q 29 209 45 158.5 Q 61 108 93 69.5 Q 125 31 175 8.5 Q 225 -14 292 -14 L 292 52 Q 252 52 220.50002 68 Q 189 84 167.5 112 Q 146 140 134.5 179.49998 Q 123 219 123 265 Q 123 312 134.5 351 Q 146 390 167.5 418.5 Q 189 447 220.50002 462.5 Q 252 478 292 478 L 292 544 Z M 385 690 L 324 580 L 380 580 L 465 690 L 385 690 Z M 263 690 L 202 580 L 258 580 L 343 690 L 263 690 Z"/>
        </g>
        <g transform="matrix(1 0 0 1 17510 730)">
            <path fill="#000000" stroke="none" d="M 65 530 L 65 212 Q 65 180 66 160.5 Q 67 141 70 121 Q 75 94 89 69.5 Q 103 45 126.50001 26.499998 Q 150 8 182.5 -3 Q 215 -14 256 -14 Q 297 -14 328.5 -5.5 Q 360 3 394 28 L 431 98 L 427 297 Q 427 229 415.5 182.5 Q 404 136 383.5 107.5 Q 363 79 336 66.5 Q 309 54 278 54 Q 224 54 192.5 82 Q 161 110 155 155 Q 153 175 152 195 Q 151 215 151 228 L 151 530 L 65 530 Z M 427 530 L 427 0 L 513 0 L 513 530 L 427 530 Z M 388 690 L 327 580 L 383 580 L 468 690 L 388 690 Z M 266 690 L 205 580 L 261 580 L 346 690 L 266 690 Z"/>
        </g>
        <g transform="matrix(1 0 0 1 18102 730)">
            <path fill="#000000" stroke="none" d="M 331 544 Q 290 544 258.5 535 Q 227 526 193 500 L 156 432 L 160 233 Q 160 301 172 347.5 Q 184 394 205 422.49997 Q 226 451 254 463.5 Q 282 476 313 476 Q 375 476 402.5 445.5 Q 430 415 434 368 Q 436 348 436 330 Q 436 312 436 292 L 436 0 L 522 0 L 522 298 Q 522 330 522 349.5 Q 522 369 520 389 Q 514 459 466.5 501.5 Q 419 544 331 544 Z M 74 530 L 74 0 L 160 0 L 160 530 L 74 530 Z"/>
        </g>
        <g transform="matrix(1 0 0 1 18695 730)">
            <path fill="#000000" stroke="none" d="M 451 530 L 451 76 Q 451 64 451 50.5 Q 451 37 450 18 Q 449 -20 437.5 -50 Q 426 -80 405 -101 Q 384 -122 353.5 -133 Q 323 -144 284 -144 Q 250 -144 223 -136 Q 196 -128 177.5 -113.49999 Q 159 -99 148 -78.5 Q 137 -58 134 -34 L 133 -25 L 46 -25 L 47 -35 Q 51 -77 67.5 -109.49999 Q 84 -142 113 -164.5 Q 142 -187 184.5 -198.5 Q 227 -210 284 -210 Q 341 -210 387 -195 Q 433 -180 465.5 -150 Q 498 -120 516 -75.5 Q 534 -31 536 27 Q 537 49 537 77 Q 537 105 537 130 L 537 530 L 451 530 Z M 289 544 Q 238 544 191 526.5 Q 144 509 108 474 Q 72 439 51 385 Q 30 331 30 257 Q 30 199 46 149.5 Q 62 100 92.5 63.5 Q 123 27 168 6.5 Q 213 -14 271 -14 Q 312 -14 350 -2.5 Q 388 9 411 28 L 465 105 L 451 260 Q 451 203 437.5 163.5 Q 424 124 400.5 99 Q 377 74 347 63 Q 317 52 284 52 Q 244 52 214 68.5 Q 184 85 164 114.50001 Q 144 144 134 183 Q 124 222 124 267 Q 124 319 136.5 358.49997 Q 149 398 171.5 424.50003 Q 194 451 224 464.5 Q 254 478 289 478 Q 318 478 346.5 467.5 Q 375 457 398.5 434.5 Q 422 412 436.5 376 Q 451 340 451 289 L 469 431 L 416 509 Q 396 526 359 535 Q 322 544 289 544 Z"/>
        </g>
    </g>
</svg>
