<svg width="18301" height="2000" viewBox="0 0 18301 2000" xmlns="http://www.w3.org/2000/svg">
    <defs/>
    <g transform="matrix(1 0 0 -1 0 2000)">
        <g transform="matrix(1 0 0 1 0 730)">
            <path fill="#000000" stroke="none" d="M 444 704 Q 360 704 288.5 670.5 Q 217 637 165.5 579 Q 114 521 85.5 442 Q 57 363 57 271 Q 57 206 74 153.5 Q 91 101 124.5 63.5 Q 158 26 207.5 6 Q 257 -14 321 -14 Q 389 -14 443 3.5 Q 497 21 536.5 52.5 Q 576 84 603 126.50001 Q 630 169 644 220 L 647 230 L 561 230 L 557 220 Q 543 183 523 152.5 Q 503 122 476.5 100 Q 450 78 415.5 66 Q 381 54 338 54 Q 295 54 261 68 Q 227 82 203 110.50001 Q 179 139 166.5 181.5 Q 154 224 154 282 Q 154 355 174 419.5 Q 194 484 230 532 Q 266 580 317 608 Q 368 636 430 636 Q 517 636 562 598 Q 607 560 607 470 L 607 460 L 693 460 L 694 470 Q 698 521 684 563.5 Q 670 606 638.5 637.5 Q 607 669 558.5 686.5 Q 510 704 444 704 Z"/>
        </g>
        <g transform="matrix(1 0 0 1 717 730)">
            <path fill="#000000" stroke="none" d="M 429 636 Q 476 636 513.5 619.5 Q 551 603 577 572.5 Q 603 542 617 499.5 Q 631 457 631 405 Q 631 346 614.5 284 Q 598 222 564 171 Q 530 120 478 87 Q 426 54 355 54 L 337 -14 Q 438 -14 511.5 22.499998 Q 585 59 632.5 118.50001 Q 680 178 702.49994 253 Q 725 328 725 405 Q 725 466 707.50006 520.5 Q 690 575 655 615.5 Q 620 656 568 680 Q 516 704 447 704 L 429 636 Z M 447 704 Q 346 704 272.5 667.5 Q 199 631 151.5 572 Q 104 513 81.5 437.5 Q 59 362 59 285 Q 59 224 76.5 169.5 Q 94 115 129 74.5 Q 164 34 216 10 Q 268 -14 337 -14 L 355 54 Q 307 54 269.5 70.5 Q 232 87 206 117.49999 Q 180 148 166.5 190.5 Q 153 233 153 285 Q 153 344 169.5 406 Q 186 468 220 519 Q 254 570 306 603 Q 358 636 429 636 L 447 704 Z"/>
        </g>
        <g transform="matrix(1 0 0 1 1464 730)">
            <path fill="#000000" stroke="none" d="M 360 704 Q 307 704 260 689 Q 213 674 177.5 645.5 Q 142 617 121.49999 575.5 Q 101 534 101 482 Q 101 447 114 421 Q 127 395 150.5 375.49997 Q 174 356 206.5 342.5 Q 239 329 278 319 Q 354 300 388.5 272 Q 423 244 423 194 Q 423 160 410 134 Q 397 108 374.49997 90 Q 352 72 322 63 Q 292 54 257 54 Q 223 54 196.50002 63.5 Q 170 73 151 91 Q 132 109 121.49999 135.5 Q 111 162 109 196 L 17 196 Q 14 146 29 107 Q 44 68 74 41 Q 104 14 147 0 Q 190 -14 243 -14 Q 302 -14 352.5 1.5 Q 403 17 440 46.5 Q 477 76 498 117 Q 519 158 519 209 Q 519 287 470.49997 331.5 Q 422 376 325 399 Q 292 407 268 416.5 Q 244 426 228 439 Q 212 452 204.50002 469 Q 197 486 197 508 Q 197 538 208 562 Q 219 586 238.5 602.5 Q 258 619 284 627.5 Q 310 636 341 636 Q 374 636 399.5 627 Q 425 618 442 600.5 Q 459 583 467 557.5 Q 475 532 472 499 L 564 499 Q 567 543 555.5 580.5 Q 544 618 518.5 645.5 Q 493 673 453.5 688.5 Q 414 704 360 704 Z"/>
        </g>
        <g transform="matrix(1 0 0 1 2029 730)">
            <path fill="#000000" stroke="none" d="M 720 690 L 384 34 L 422 34 L 316 690 L 174 690 L 52 0 L 138 0 L 251 648 L 238 648 L 342 0 L 450 0 L 786 646 L 771 650 L 654 0 L 740 0 L 862 690 L 720 690 Z"/>
        </g>
        <g transform="matrix(1 0 0 1 2894 730)">
            <path fill="#000000" stroke="none" d="M 429 636 Q 476 636 513.5 619.5 Q 551 603 577 572.5 Q 603 542 617 499.5 Q 631 457 631 405 Q 631 346 614.5 284 Q 598 222 564 171 Q 530 120 478 87 Q 426 54 355 54 L 337 -14 Q 438 -14 511.5 22.499998 Q 585 59 632.5 118.50001 Q 680 178 702.49994 253 Q 725 328 725 405 Q 725 466 707.50006 520.5 Q 690 575 655 615.5 Q 620 656 568 680 Q 516 704 447 704 L 429 636 Z M 447 704 Q 346 704 272.5 667.5 Q 199 631 151.5 572 Q 104 513 81.5 437.5 Q 59 362 59 285 Q 59 224 76.5 169.5 Q 94 115 129 74.5 Q 164 34 216 10 Q 268 -14 337 -14 L 355 54 Q 307 54 269.5 70.5 Q 232 87 206 117.49999 Q 180 148 166.5 190.5 Q 153 233 153 285 Q 153 344 169.5 406 Q 186 468 220 519 Q 254 570 306 603 Q 358 636 429 636 L 447 704 Z"/>
        </g>
        <g transform="matrix(1 0 0 1 3641 730)">
            <path fill="#000000" stroke="none" d="M 360 704 Q 307 704 260 689 Q 213 674 177.5 645.5 Q 142 617 121.49999 575.5 Q 101 534 101 482 Q 101 447 114 421 Q 127 395 150.5 375.49997 Q 174 356 206.5 342.5 Q 239 329 278 319 Q 354 300 388.5 272 Q 423 244 423 194 Q 423 160 410 134 Q 397 108 374.49997 90 Q 352 72 322 63 Q 292 54 257 54 Q 223 54 196.50002 63.5 Q 170 73 151 91 Q 132 109 121.49999 135.5 Q 111 162 109 196 L 17 196 Q 14 146 29 107 Q 44 68 74 41 Q 104 14 147 0 Q 190 -14 243 -14 Q 302 -14 352.5 1.5 Q 403 17 440 46.5 Q 477 76 498 117 Q 519 158 519 209 Q 519 287 470.49997 331.5 Q 422 376 325 399 Q 292 407 268 416.5 Q 244 426 228 439 Q 212 452 204.50002 469 Q 197 486 197 508 Q 197 538 208 562 Q 219 586 238.5 602.5 Q 258 619 284 627.5 Q 310 636 341 636 Q 374 636 399.5 627 Q 425 618 442 600.5 Q 459 583 467 557.5 Q 475 532 472 499 L 564 499 Q 567 543 555.5 580.5 Q 544 618 518.5 645.5 Q 493 673 453.5 688.5 Q 414 704 360 704 Z"/>
        </g>
        <g transform="matrix(1 0 0 1 4402 730)">
            <path fill="#000000" stroke="none" d="M 628 690 L 530 124 L 306 690 L 174 690 L 53 0 L 139 0 L 243 598 L 500 -31 L 491 -83 Q 485 -117 467 -135 Q 449 -153 408 -153 L 396 -223 Q 444 -223 475.5 -217 Q 507 -211 527.5 -194 Q 548 -177 560 -146.5 Q 572 -116 581 -67 L 714 690 L 628 690 Z"/>
        </g>
        <g transform="matrix(1 0 0 1 5119 730)">
            <path fill="#000000" stroke="none" d="M 601 690 L 526 263 Q 523 246 520 231 Q 517 216 513 202 Q 502 163 485 135 Q 468 107 443.5 89 Q 419 71 387.5 62.5 Q 356 54 316 54 Q 279 54 251.49998 63 Q 224 72 206 88.5 Q 188 105 179.49998 129 Q 171 153 171 182 Q 171 202 173 218.5 Q 175 235 181 270 L 255 690 L 169 690 L 93 262 Q 91 252 89.49999 242 Q 88 232 87 221.5 Q 86 211 85.5 200.5 Q 85 190 85 179 Q 85 133 98.50001 97 Q 112 61 139.5 36 Q 167 11 208 -1.5 Q 249 -14 304 -14 Q 367 -14 416.5 0 Q 466 14 502 40 Q 538 66 561.5 105 Q 585 144 597 193 Q 601 208 604 223.5 Q 607 239 610 255 L 687 690 L 601 690 Z M 345 11 Q 275 -13 239 -57.5 Q 203 -102 203 -150 Q 203 -190 227 -206.5 Q 251 -223 283 -223 Q 311 -223 334.5 -215.5 Q 358 -208 376 -195 L 385 -149 Q 370 -160 355.5 -164.5 Q 341 -169 326 -169 Q 308 -169 298.5 -159.5 Q 289 -150 289 -127 Q 289 -110 297.5 -89.49999 Q 306 -69 322 -50.5 Q 338 -32 359.49997 -18 Q 381 -4 406 0 L 345 11 Z"/>
        </g>
        <g transform="matrix(1 0 0 1 5802 730)">
            <path fill="#000000" stroke="none" d="M 111 558 L 101 502 L 733 502 L 743 558 L 111 558 Z M 640 690 L 518 0 L 604 0 L 726 690 L 640 690 Z M 174 690 L 52 0 L 138 0 L 260 690 L 174 690 Z M 179 374 L 166 302 L 604 302 L 617 374 L 179 374 Z"/>
        </g>
        <g transform="matrix(1 0 0 1 6531 730)">
            <path fill="#000000" stroke="none" d="M 628 690 L 530 124 L 306 690 L 174 690 L 53 0 L 139 0 L 243 598 L 500 -31 L 491 -83 Q 485 -117 467 -135 Q 449 -153 408 -153 L 396 -223 Q 444 -223 475.5 -217 Q 507 -211 527.5 -194 Q 548 -177 560 -146.5 Q 572 -116 581 -67 L 714 690 L 628 690 Z"/>
        </g>
        <g transform="matrix(1 0 0 1 7248 730)">
            <path fill="#000000" stroke="none" d="M 355 690 L 233 0 L 319 0 L 441 690 L 355 690 Z M 109 690 L 96 620 L 674 620 L 687 690 L 109 690 Z M 423 850 L 356 755 L 390 755 L 357 850 L 293 850 L 340 740 L 399 740 L 486 850 L 423 850 Z"/>
        </g>
        <g transform="matrix(1 0 0 1 7861 730)">
            <path fill="#000000" stroke="none" d="M 173 690 L 51 0 L 137 0 L 259 690 L 173 690 Z M 65 11 Q -5 -13 -41 -57.5 Q -77 -102 -77 -150 Q -77 -190 -53 -206.5 Q -29 -223 3 -223 Q 31 -223 54.5 -215.5 Q 78 -208 96 -195 L 105 -149 Q 90 -160 75.5 -164.5 Q 61 -169 46 -169 Q 28 -169 18.5 -159.5 Q 9 -150 9 -127 Q 9 -110 17.5 -89.49999 Q 26 -69 42 -50.5 Q 58 -32 79.5 -18 Q 101 -4 126 0 L 65 11 Z"/>
        </g>
        <g transform="matrix(1 0 0 1 8320 730)">
            <path fill="#000000" stroke="none" d="M 381 544 Q 340 544 306.5 535 Q 273 526 235 500 L 186 432 L 155 233 Q 167 301 187.49998 347 Q 208 393 233.5 421.5 Q 259 450 289.5 462.5 Q 320 475 351 476 Q 408 478 431 451.5 Q 454 425 454 384 Q 454 368 451.5 347 Q 449 326 443 292 L 390 0 L 476 0 L 530 298 Q 535 322 537.5 338.5 Q 540 355 541 367 Q 542 379 542.5 388.5 Q 543 398 543 408 Q 543 471 502.49997 507.5 Q 462 544 381 544 Z M 121 530 L 28 0 L 114 0 L 155 233 L 207 530 L 121 530 Z"/>
        </g>
        <g transform="matrix(1 0 0 1 8915 730)">
            <path fill="#000000" stroke="none" d="M 304 544 Q 258 544 218.5 532 Q 179 520 148.5 497.5 Q 118 475 98 441.50003 Q 78 408 69 366 L 159 366 Q 165 393 175.5 414 Q 186 435 203 449.5 Q 220 464 244.50002 471 Q 269 478 303 478 Q 350 478 369 456.50003 Q 388 435 388 404 Q 388 393 386 377.50003 Q 384 362 379 333 L 356 201 L 335 85 L 330 0 L 416 0 Q 417 22 418.5 40.5 Q 420 59 421.5 75 Q 423 91 425 105.49999 Q 427 120 430 135 L 465 334 Q 469 356 471.49997 376 Q 474 396 474 413 Q 474 442 464 466.5 Q 454 491 433.5 508 Q 413 525 381 534.5 Q 349 544 304 544 Z M 382 319 Q 304 325 236.50002 317 Q 169 309 119 285 Q 69 261 40.5 221 Q 12 181 12 123 Q 12 88 24.499998 62 Q 37 36 57 19 Q 77 2 103 -6 Q 129 -14 157 -14 Q 202 -14 237 -4.5 Q 272 5 296 28 L 343 87 L 356 201 Q 350 169 334 141.5 Q 318 114 296 94 Q 274 74 248 63 Q 222 52 197 52 Q 156 52 131 72.5 Q 106 93 106 132 Q 106 171 127.5 197.5 Q 149 224 185.5 239 Q 222 254 270 258 Q 318 262 370 256 L 382 319 Z"/>
        </g>
        <g transform="matrix(1 0 0 1 9421 730)">
            <path fill="#000000" stroke="none" d="M 151 649 L 63 151 Q 57 119 54.5 99.5 Q 52 80 52 69 Q 52 28 77.5 10 Q 103 -8 151 -8 Q 168 -8 184.5 -6 Q 201 -4 215 0 L 227 63 Q 183 55 162.5 63 Q 142 71 142 100 Q 142 107 143 118 Q 144 129 149 155 L 237 649 L 151 649 Z M 60 526 L 48 460 L 294 460 L 306 526 L 60 526 Z"/>
        </g>
        <g transform="matrix(1 0 0 1 9724 730)">
            <path fill="#000000" stroke="none" d="M 115 530 L 61 232 Q 57 208 54 192 Q 51 176 50 164 Q 49 152 48.5 142.5 Q 48 133 48 122 Q 48 59 88.5 22.499998 Q 129 -14 210 -14 Q 251 -14 284.5 -5 Q 318 4 356 30 L 405 98 L 436 297 Q 424 229 403.5 183 Q 383 137 357.5 108.5 Q 332 80 302 67.5 Q 272 55 240 54 Q 183 52 160 78.5 Q 137 105 137 146 Q 137 162 139.5 183 Q 142 204 148 238 L 201 530 L 115 530 Z M 477 530 L 436 297 L 384 0 L 470 0 L 563 530 L 477 530 Z"/>
        </g>
        <g transform="matrix(1 0 0 1 10314 730)">
            <path fill="#000000" stroke="none" d="M 122 530 L 28 0 L 114 0 L 167 302 L 208 530 L 122 530 Z M 332 542 Q 313 542 292.5 535.5 Q 272 529 254 518 L 188 441 L 167 302 Q 175 347 193 380 Q 211 413 236 433.5 Q 261 454 291.5 463 Q 322 472 355 470 L 367 535 Q 359 539 351 540.5 Q 343 542 332 542 Z"/>
        </g>
        <g transform="matrix(1 0 0 1 10638 730)">
            <path fill="#000000" stroke="none" d="M 304 544 Q 258 544 218.5 532 Q 179 520 148.5 497.5 Q 118 475 98 441.50003 Q 78 408 69 366 L 159 366 Q 165 393 175.5 414 Q 186 435 203 449.5 Q 220 464 244.50002 471 Q 269 478 303 478 Q 350 478 369 456.50003 Q 388 435 388 404 Q 388 393 386 377.50003 Q 384 362 379 333 L 356 201 L 335 85 L 330 0 L 416 0 Q 417 22 418.5 40.5 Q 420 59 421.5 75 Q 423 91 425 105.49999 Q 427 120 430 135 L 465 334 Q 469 356 471.49997 376 Q 474 396 474 413 Q 474 442 464 466.5 Q 454 491 433.5 508 Q 413 525 381 534.5 Q 349 544 304 544 Z M 382 319 Q 304 325 236.50002 317 Q 169 309 119 285 Q 69 261 40.5 221 Q 12 181 12 123 Q 12 88 24.499998 62 Q 37 36 57 19 Q 77 2 103 -6 Q 129 -14 157 -14 Q 202 -14 237 -4.5 Q 272 5 296 28 L 343 87 L 356 201 Q 350 169 334 141.5 Q 318 114 296 94 Q 274 74 248 63 Q 222 52 197 52 Q 156 52 131 72.5 Q 106 93 106 132 Q 106 171 127.5 197.5 Q 149 224 185.5 239 Q 222 254 270 258 Q 318 262 370 256 L 382 319 Z"/>
        </g>
        <g transform="matrix(1 0 0 1 11144 730)">
            <path fill="#000000" stroke="none" d="M 153 735 L 50 149 Q 46 129 43.5 114.50001 Q 41 100 39.5 90 Q 38 80 37.5 73.5 Q 37 67 37 61 Q 37 22 58.5 9 Q 80 -4 114 -4 Q 129 -4 145 -3 Q 161 -2 176 0 L 187 63 Q 157 60 143 67 Q 129 74 129 100 Q 129 105 129.5 109.49999 Q 130 114 130.5 120 Q 131 126 132.5 134 Q 134 142 136 152 L 239 735 L 153 735 Z"/>
        </g>
        <g transform="matrix(1 0 0 1 11588 730)">
            <path fill="#000000" stroke="none" d="M 448 530 L 209 63 L 133 530 L 35 530 L 152 -48 L 164 0 L 139 -46 Q 125 -73 111 -90.50001 Q 97 -108 82 -119 Q 67 -130 50 -134.5 Q 33 -139 13 -139 Q 5 -139 -2.5 -138.5 Q -10 -138 -18 -136 L -30 -207 Q -20 -209 -9.5 -209.5 Q 1 -210 12 -210 Q 50 -210 79 -200 Q 108 -190 135 -166 Q 162 -142 190 -101.49999 Q 218 -61 252 0 L 547 530 L 448 530 Z"/>
        </g>
        <g transform="matrix(1 0 0 1 12082 730)">
            <path fill="#000000" stroke="none" d="M 252 544 Q 202 544 164.5 531 Q 127 518 101.49999 496.5 Q 76 475 63.5 446 Q 51 417 51 384 Q 51 350 62.5 325.5 Q 74 301 94 283.5 Q 114 266 140.5 254 Q 167 242 198 233 Q 226 224 246 214.5 Q 266 205 279 193.5 Q 292 182 298 168 Q 304 154 304 136 Q 304 94 273.5 70 Q 243 46 198 46 Q 150 46 117 69 Q 84 92 79 150 L -11 150 Q -10 120 1 89.49999 Q 12 59 35.5 34.5 Q 59 10 97 -5 Q 135 -20 191 -20 Q 241 -20 279.5 -7.5 Q 318 5 344 27 Q 370 49 384 79 Q 398 109 398 143 Q 398 209 358 244.50002 Q 318 280 241 303 Q 220 309 202 317 Q 184 325 171.5 336 Q 159 347 152 361 Q 145 375 145 393 Q 145 410 150.5 425 Q 156 440 168.5 452 Q 181 464 200.5 471 Q 220 478 248 478 Q 293 478 315 452 Q 337 426 339 379 L 429 379 Q 428 415 417.5 445.5 Q 407 476 385.5 498 Q 364 520 331 532 Q 298 544 252 544 Z M 168 -51 L 108 -195 L 156 -195 L 237 -58 L 237 -51 L 168 -51 Z"/>
        </g>
        <g transform="matrix(1 0 0 1 12533 730)">
            <path fill="#000000" stroke="none" d="M 763 544 Q 727 544 693 535 Q 659 526 628 506.5 Q 597 487 569 457 Q 541 427 518 385 L 544 388 Q 536 427 519 456.50003 Q 502 486 477 505.50003 Q 452 525 418 534.5 Q 384 544 342 544 Q 254 544 193.5 508.5 Q 133 473 95.5 421 Q 58 369 41 309 Q 24 249 24 201 Q 24 156 36.5 117 Q 49 78 76 48.5 Q 103 19 144.5 2.5 Q 186 -14 244 -14 Q 286 -14 322.5 -4.5 Q 359 5 390.49997 24 Q 422 43 448 72 Q 474 101 496 140 L 471 143 Q 479 101 495.5 71 Q 512 41 536 22 Q 560 3 590 -5.5 Q 620 -14 654 -14 Q 695 -14 735 -3 Q 775 8 810 30.499998 Q 845 53 873 88 Q 901 123 917 171 L 827 171 Q 818 143 801.50006 120.5 Q 785 98 764.49994 83 Q 744 68 719.5 60 Q 695 52 669 52 Q 643 52 621 60.5 Q 599 69 583.5 87 Q 568 105 559 132.5 Q 550 160 550 199 Q 550 208 550 218 Q 550 228 552 239 L 934 239 Q 942 263 946 292 Q 950 321 950 347 Q 950 392 938 428 Q 926 464 903 490 Q 880 516 845 530 Q 810 544 763 544 Z M 331 478 Q 365 478 390.49997 467 Q 416 456 433 435.5 Q 450 415 458.5 386.5 Q 467 358 467 323 Q 467 284 455.49997 236.50002 Q 444 189 418.5 148 Q 393 107 352.5 79.5 Q 312 52 255 52 Q 221 52 195.49998 63 Q 170 74 153 94.50001 Q 136 115 127.5 143.5 Q 119 172 119 207 Q 119 246 131 293.5 Q 143 341 168.5 382 Q 194 423 234 450.5 Q 274 478 331 478 Z M 750 478 Q 779 478 800 469.5 Q 821 461 835.50006 444 Q 850 427 857 402 Q 864 377 864 344 Q 864 336 863.49994 326 Q 863 316 861 305 L 565 305 Q 576 347 594.5 379.5 Q 613 412 637 434 Q 661 456 689.5 467 Q 718 478 750 478 Z"/>
        </g>
        <g transform="matrix(1 0 0 1 13502 730)">
            <path fill="#000000" stroke="none" d="M 252 544 Q 202 544 164.5 531 Q 127 518 101.49999 496.5 Q 76 475 63.5 446 Q 51 417 51 384 Q 51 350 62.5 325.5 Q 74 301 94 283.5 Q 114 266 140.5 254 Q 167 242 198 233 Q 226 224 246 214.5 Q 266 205 279 193.5 Q 292 182 298 168 Q 304 154 304 136 Q 304 94 273.5 70 Q 243 46 198 46 Q 150 46 117 69 Q 84 92 79 150 L -11 150 Q -10 120 1 89.49999 Q 12 59 35.5 34.5 Q 59 10 97 -5 Q 135 -20 191 -20 Q 241 -20 279.5 -7.5 Q 318 5 344 27 Q 370 49 384 79 Q 398 109 398 143 Q 398 209 358 244.50002 Q 318 280 241 303 Q 220 309 202 317 Q 184 325 171.5 336 Q 159 347 152 361 Q 145 375 145 393 Q 145 410 150.5 425 Q 156 440 168.5 452 Q 181 464 200.5 471 Q 220 478 248 478 Q 293 478 315 452 Q 337 426 339 379 L 429 379 Q 428 415 417.5 445.5 Q 407 476 385.5 498 Q 364 520 331 532 Q 298 544 252 544 Z M 331 690 L 250 580 L 306 580 L 411 690 L 331 690 Z"/>
        </g>
        <g transform="matrix(1 0 0 1 13953 730)">
            <path fill="#000000" stroke="none" d="M 321 478 Q 359 478 386 464.5 Q 413 451 430.5 428 Q 448 405 456.50003 374 Q 465 343 465 308 Q 465 263 452.5 217 Q 440 171 414.5 134.5 Q 389 98 352 75 Q 315 52 265 52 L 254 -14 Q 335 -14 393 16.5 Q 451 47 487.49997 94.50001 Q 524 142 541.5 199 Q 559 256 559 310 Q 559 355 546.5 397.5 Q 534 440 507 472.50003 Q 480 505 437 524.5 Q 394 544 332 544 L 321 478 Z M 332 544 Q 251 544 193 513.5 Q 135 483 98.50001 435.5 Q 62 388 44.5 331 Q 27 274 27 220 Q 27 175 39.5 132.5 Q 52 90 79 57.5 Q 106 25 149.5 5.5 Q 193 -14 254 -14 L 265 52 Q 228 52 200.5 65.5 Q 173 79 155.5 102 Q 138 125 129.5 156 Q 121 187 121 222 Q 121 267 133.5 313 Q 146 359 171.5 395.5 Q 197 432 234.5 455 Q 272 478 321 478 L 332 544 Z M 334 690 L 247 580 L 310 580 L 377 675 L 343 675 L 376 580 L 440 580 L 393 690 L 334 690 Z"/>
        </g>
        <g transform="matrix(1 0 0 1 14541 730)">
            <path fill="#000000" stroke="none" d="M 303 544 Q 257 544 217.5 532 Q 178 520 147.5 497.5 Q 117 475 97 441.50003 Q 77 408 68 366 L 158 366 Q 164 393 174.5 414 Q 185 435 202 449.5 Q 219 464 243.49998 471 Q 268 478 302 478 Q 349 478 368 456.50003 Q 387 435 387 404 Q 387 393 385 377.50003 Q 383 362 378 333 L 355 201 L 334 85 L 329 0 L 415 0 Q 416 22 417.5 40.5 Q 419 59 420.5 75 Q 422 91 424 105.49999 Q 426 120 429 135 L 464 334 Q 468 356 470.49997 376 Q 473 396 473 413 Q 473 442 463 466.5 Q 453 491 432.5 508 Q 412 525 380 534.5 Q 348 544 303 544 Z M 381 319 Q 303 325 235.49998 317 Q 168 309 118 285 Q 68 261 39.5 221 Q 11 181 11 123 Q 11 88 23.500002 62 Q 36 36 56 19 Q 76 2 102 -6 Q 128 -14 156 -14 Q 201 -14 236 -4.5 Q 271 5 295 28 L 342 87 L 355 201 Q 349 169 333 141.5 Q 317 114 295 94 Q 273 74 247 63 Q 221 52 196 52 Q 155 52 130 72.5 Q 105 93 105 132 Q 105 171 126.50001 197.5 Q 148 224 184.5 239 Q 221 254 269 258 Q 317 262 369 256 L 381 319 Z M 359 690 L 278 580 L 334 580 L 439 690 L 359 690 Z"/>
        </g>
        <g transform="matrix(1 0 0 1 15243 730)">
            <path fill="#000000" stroke="none" d="M 448 530 L 196 44 L 213 45 L 133 530 L 35 530 L 142 0 L 252 0 L 547 530 L 448 530 Z"/>
        </g>
        <g transform="matrix(1 0 0 1 15737 730)">
            <path fill="#000000" stroke="none" d="M 114 530 L 60 232 Q 56 208 53 192 Q 50 176 49 164 Q 48 152 47.5 142.5 Q 47 133 47 122 Q 47 59 87.5 22.499998 Q 128 -14 209 -14 Q 250 -14 283.5 -5 Q 317 4 355 30 L 404 98 L 435 297 Q 423 229 402.5 183 Q 382 137 356.5 108.5 Q 331 80 301 67.5 Q 271 55 239 54 Q 182 52 159 78.5 Q 136 105 136 146 Q 136 162 138.5 183 Q 141 204 147 238 L 200 530 L 114 530 Z M 476 530 L 435 297 L 383 0 L 469 0 L 562 530 L 476 530 Z M 335 690 L 248 580 L 311 580 L 378 675 L 344 675 L 377 580 L 441 580 L 394 690 L 335 690 Z"/>
        </g>
        <g transform="matrix(1 0 0 1 16327 730)">
            <path fill="#000000" stroke="none" d="M 114 530 L 60 232 Q 56 208 53 192 Q 50 176 49 164 Q 48 152 47.5 142.5 Q 47 133 47 122 Q 47 59 87.5 22.499998 Q 128 -14 209 -14 Q 250 -14 283.5 -5 Q 317 4 355 30 L 404 98 L 435 297 Q 423 229 402.5 183 Q 382 137 356.5 108.5 Q 331 80 301 67.5 Q 271 55 239 54 Q 182 52 159 78.5 Q 136 105 136 146 Q 136 162 138.5 183 Q 141 204 147 238 L 200 530 L 114 530 Z M 476 530 L 435 297 L 383 0 L 469 0 L 562 530 L 476 530 Z M 249 656 L 239 604 L 479 604 L 489 656 L 249 656 Z"/>
        </g>
        <g transform="matrix(1 0 0 1 16917 730)">
            <path fill="#000000" stroke="none" d="M 303 544 Q 257 544 217.5 532 Q 178 520 147.5 497.5 Q 117 475 97 441.50003 Q 77 408 68 366 L 158 366 Q 164 393 174.5 414 Q 185 435 202 449.5 Q 219 464 243.49998 471 Q 268 478 302 478 Q 349 478 368 456.50003 Q 387 435 387 404 Q 387 393 385 377.50003 Q 383 362 378 333 L 355 201 L 334 85 L 329 0 L 415 0 Q 416 22 417.5 40.5 Q 419 59 420.5 75 Q 422 91 424 105.49999 Q 426 120 429 135 L 464 334 Q 468 356 470.49997 376 Q 473 396 473 413 Q 473 442 463 466.5 Q 453 491 432.5 508 Q 412 525 380 534.5 Q 348 544 303 544 Z M 381 319 Q 303 325 235.49998 317 Q 168 309 118 285 Q 68 261 39.5 221 Q 11 181 11 123 Q 11 88 23.500002 62 Q 36 36 56 19 Q 76 2 102 -6 Q 128 -14 156 -14 Q 201 -14 236 -4.5 Q 271 5 295 28 L 342 87 L 355 201 Q 349 169 333 141.5 Q 317 114 295 94 Q 273 74 247 63 Q 221 52 196 52 Q 155 52 130 72.5 Q 105 93 105 132 Q 105 171 126.50001 197.5 Q 148 224 184.5 239 Q 221 254 269 258 Q 317 262 369 256 L 381 319 Z M 293 690 L 206 580 L 269 580 L 336 675 L 302 675 L 335 580 L 399 580 L 352 690 L 293 690 Z"/>
        </g>
        <g transform="matrix(1 0 0 1 17423 730)">
            <path fill="#000000" stroke="none" d="M 150 649 L 62 151 Q 56 119 53.5 99.5 Q 51 80 51 69 Q 51 28 76.5 10 Q 102 -8 150 -8 Q 167 -8 183.5 -6 Q 200 -4 214 0 L 226 63 Q 182 55 161.5 63 Q 141 71 141 100 Q 141 107 142 118 Q 143 129 148 155 L 236 649 L 150 649 Z M 59 526 L 47 460 L 293 460 L 305 526 L 59 526 Z M 26 348 L 16 296 L 256 296 L 266 348 L 26 348 Z"/>
        </g>
        <g transform="matrix(1 0 0 1 17713 730)">
            <path fill="#000000" stroke="none" d="M 321 478 Q 359 478 386 464.5 Q 413 451 430.5 428 Q 448 405 456.50003 374 Q 465 343 465 308 Q 465 263 452.5 217 Q 440 171 414.5 134.5 Q 389 98 352 75 Q 315 52 265 52 L 254 -14 Q 335 -14 393 16.5 Q 451 47 487.49997 94.50001 Q 524 142 541.5 199 Q 559 256 559 310 Q 559 355 546.5 397.5 Q 534 440 507 472.50003 Q 480 505 437 524.5 Q 394 544 332 544 L 321 478 Z M 332 544 Q 251 544 193 513.5 Q 135 483 98.50001 435.5 Q 62 388 44.5 331 Q 27 274 27 220 Q 27 175 39.5 132.5 Q 52 90 79 57.5 Q 106 25 149.5 5.5 Q 193 -14 254 -14 L 265 52 Q 228 52 200.5 65.5 Q 173 79 155.5 102 Q 138 125 129.5 156 Q 121 187 121 222 Q 121 267 133.5 313 Q 146 359 171.5 395.5 Q 197 432 234.5 455 Q 272 478 321 478 L 332 544 Z M 334 690 L 247 580 L 310 580 L 377 675 L 343 675 L 376 580 L 440 580 L 393 690 L 334 690 Z"/>
        </g>
    </g>
</svg>
