<svg width="19310" height="2000" viewBox="0 0 19310 2000" xmlns="http://www.w3.org/2000/svg">
    <defs/>
    <path fill="#000000" stroke="none" transform="matrix(1 0 0 -1 0 1270)" d="M 854 690 L 690 31 L 713 31 L 545 680 L 429 680 L 257 32 L 280 31 L 124 690 L 26 690 L 208 0 L 322 0 L 496 638 L 473 639 L 640 0 L 753 0 L 945 690 L 854 690 Z"/>
    <path fill="#000000" stroke="none" transform="matrix(1 0 0 -1 960 1270)" d="M 373 636 C 409 636 441.33333333333 629.33333333333 470 616 C 498.66666666667 602.66666666667 523 583.33333333333 543 558 C 562.33333333333 532.66666666667 577.33333333333 502.33333333333 588 467 C 598 431 603 390.33333333333 603 345 C 603 300.33333333333 598 260 588 224 C 577.33333333333 188 562.33333333333 157.66666666667 543 133 C 523 107.66666666667 498.66666666667 88.33333333333 470 75 C 441.33333333333 61 409 54 373 54 L 373 -14 C 425.66666666667 -14 472.33333333333 -5 513 13 C 553 30.33333333333 587 55 615 87 C 642.33333333333 118.33333333333 663.33333333333 156 678 200 C 692 244 699 292.33333333333 699 345 C 699 397.66666666667 692 446 678 490 C 663.33333333333 534 642.33333333333 572 615 604 C 587 635.33333333333 553 660 513 678 C 472.33333333333 695.33333333333 425.66666666667 704 373 704 L 373 636 Z M 373 704 C 320.33333333333 704 274 695.33333333333 234 678 C 193.33333333333 660 159.33333333333 635.33333333333 132 604 C 104 572 83 534 69 490 C 54.33333333333 446 47 397.66666666667 47 345 C 47 292.33333333333 54.33333333333 244 69 200 C 83 156 104 118.33333333333 132 87 C 159.33333333333 55 193.33333333333 30.33333333333 234 13 C 274 -5 320.33333333333 -14 373 -14 L 373 54 C 337 54 304.66666666667 61 276 75 C 247.33333333333 88.33333333333 223.33333333333 107.66666666667 204 133 C 184 157.66666666667 169 188 159 224 C 148.33333333333 260 143 300.33333333333 143 345 C 143 390.33333333333 148.33333333333 431 159 467 C 169 502.33333333333 184 532.66666666667 204 558 C 223.33333333333 583.33333333333 247.33333333333 602.66666666667 276 616 C 304.66666666667 629.33333333333 337 636 373 636 L 373 704 Z"/>
    <path fill="#000000" stroke="none" transform="matrix(1 0 0 -1 1697 1270)" d="M 180 690 L 180 620 L 326 620 C 341.33333333333 620 354.33333333333 619.66666666667 365 619 C 375.66666666667 618.33333333333 385.66666666667 617.33333333333 395 616 C 427 611.33333333333 452 599.66666666667 470 581 C 487.33333333333 561.66666666667 496 532.66666666667 496 494 C 496 474.66666666667 493.33333333333 457.66666666667 488 443 C 482 427.66666666667 474.33333333333 415 465 405 C 455 394.33333333333 443.33333333333 386 430 380 C 416 374 401 370.33333333333 385 369 C 375.66666666667 367.66666666667 366 367 356 367 C 346 367 333.33333333333 367 318 367 L 180 367 L 180 297 L 316 297 C 324 297 332.33333333333 297 341 297 C 349 297 357 296.66666666667 365 296 C 382.33333333333 294.66666666667 397 291 409 285 C 421 278.33333333333 431 269.66666666667 439 259 C 447 248.33333333333 453.33333333333 236 458 222 C 462.66666666667 207.33333333333 466 191 468 173 C 470 151.66666666667 472.33333333333 132.66666666667 475 116 C 477 99.33333333333 479.66666666667 84.33333333333 483 71 C 485.66666666667 57.66666666667 489 45.33333333333 493 34 C 496.33333333333 22.66666666667 500.33333333333 11.33333333333 505 0 L 600 0 C 593.33333333333 9.33333333333 587.66666666667 20 583 32 C 577.66666666667 43.33333333333 573.33333333333 56.33333333333 570 71 C 566 85.66666666667 563 102 561 120 C 558.33333333333 138 556 158.33333333333 554 181 C 552 203.66666666667 547.66666666667 225.33333333333 541 246 C 534.33333333333 266.66666666667 525 285 513 301 C 500.33333333333 316.33333333333 485 328.66666666667 467 338 C 449 347.33333333333 427.66666666667 352 403 352 L 403 330 C 423.66666666667 330 445 333.33333333333 467 340 C 489 346.66666666667 509 357 527 371 C 545 385 559.66666666667 403 571 425 C 582.33333333333 446.33333333333 588 472 588 502 C 588 531.33333333333 583.66666666667 556.66666666667 575 578 C 566.33333333333 599.33333333333 554.66666666667 617.66666666667 540 633 C 524.66666666667 647.66666666667 506.66666666667 659.33333333333 486 668 C 464.66666666667 676.66666666667 441.33333333333 682.66666666667 416 686 C 400.66666666667 688 386.33333333333 689.33333333333 373 690 C 359 690 343.33333333333 690 326 690 L 180 690 Z M 100 690 L 100 0 L 186 0 L 186 690 L 100 690 Z"/>
    <path fill="#000000" stroke="none" transform="matrix(1 0 0 -1 2316 1270)" d="M 100 690 L 100 0 L 186 0 L 186 690 L 100 690 Z M 161 70 L 161 0 L 559 0 L 559 70 L 161 70 Z"/>
    <path fill="#000000" stroke="none" transform="matrix(1 0 0 -1 2891 1270)" d="M 180 690 L 180 620 L 305 620 C 323 620 338.66666666667 619.66666666667 352 619 C 365.33333333333 618.33333333333 377.66666666667 617 389 615 C 418.33333333333 610.33333333333 444.66666666667 601.33333333333 468 588 C 491.33333333333 574 511 556 527 534 C 543 512 555.33333333333 486 564 456 C 572.66666666667 425.33333333333 577 391 577 353 C 577 312.33333333333 572.66666666667 276 564 244 C 554.66666666667 211.33333333333 541.66666666667 183.33333333333 525 160 C 507.66666666667 136.66666666667 487.33333333333 118 464 104 C 440 89.33333333333 413.33333333333 79.66666666667 384 75 C 372.66666666667 73 360.33333333333 71.66666666667 347 71 C 333.66666666667 70.33333333333 318 70 300 70 L 180 70 L 180 0 L 305 0 C 323.66666666667 0 338.66666666667 0.33333333333 350 1 C 361.33333333333 1 375.66666666667 2 393 4 C 433 9.33333333333 470 21 504 39 C 538 56.33333333333 567.33333333333 80 592 110 C 616.66666666667 139.33333333333 636 174.66666666667 650 216 C 664 256.66666666667 671 302.33333333333 671 353 C 671 404.33333333333 664.33333333333 449.66666666667 651 489 C 637.66666666667 528.33333333333 619 562 595 590 C 570.33333333333 617.33333333333 541.33333333333 639 508 655 C 474.66666666667 671 438 681.33333333333 398 686 C 380.66666666667 688 366.33333333333 689.33333333333 355 690 C 343.66666666667 690 328.66666666667 690 310 690 L 180 690 Z M 100 690 L 100 0 L 186 0 L 186 690 L 100 690 Z"/>
    <path fill="#000000" stroke="none" transform="matrix(1 0 0 -1 3816 1270)" d="M 99 690 L 99 0 L 185 0 L 185 690 L 99 690 Z M 160 70 L 160 0 L 558 0 L 558 70 L 160 70 Z M 160 380 L 160 310 L 518 310 L 518 380 L 160 380 Z M 160 690 L 160 620 L 548 620 L 548 690 L 160 690 Z M 293 864 C 277.66666666667 864 264.66666666667 858.66666666667 254 848 C 243.33333333333 837.33333333333 238 824.33333333333 238 809 C 238 793.66666666667 243.33333333333 780.66666666667 254 770 C 264.66666666667 759.33333333333 277.66666666667 754 293 754 C 308.33333333333 754 321.33333333333 759.33333333333 332 770 C 342.66666666667 780.66666666667 348 793.66666666667 348 809 C 348 824.33333333333 342.66666666667 837.33333333333 332 848 C 321.33333333333 858.66666666667 308.33333333333 864 293 864 Z"/>
    <path fill="#000000" stroke="none" transform="matrix(1 0 0 -1 4403 1270)" d="M 99 690 L 99 0 L 185 0 L 185 690 L 99 690 Z M 160 70 L 160 0 L 558 0 L 558 70 L 160 70 Z M 160 380 L 160 310 L 518 310 L 518 380 L 160 380 Z M 160 690 L 160 620 L 548 620 L 548 690 L 160 690 Z M 204 850 L 289 740 L 345 740 L 284 850 L 204 850 Z"/>
    <path fill="#000000" stroke="none" transform="matrix(1 0 0 -1 4990 1270)" d="M 43 52 L 84 11 L 711 638 L 670 679 L 43 52 Z M 377 636 C 413 636 445.33333333333 629.33333333333 474 616 C 502.66666666667 602.66666666667 527 583.33333333333 547 558 C 566.33333333333 532.66666666667 581.33333333333 502.33333333333 592 467 C 602 431 607 390.33333333333 607 345 C 607 300.33333333333 602 260 592 224 C 581.33333333333 188 566.33333333333 157.66666666667 547 133 C 527 107.66666666667 502.66666666667 88.33333333333 474 75 C 445.33333333333 61 413 54 377 54 L 377 -14 C 429.66666666667 -14 476.33333333333 -5 517 13 C 557 30.33333333333 591 55 619 87 C 646.33333333333 118.33333333333 667.33333333333 156 682 200 C 696 244 703 292.33333333333 703 345 C 703 397.66666666667 696 446 682 490 C 667.33333333333 534 646.33333333333 572 619 604 C 591 635.33333333333 557 660 517 678 C 476.33333333333 695.33333333333 429.66666666667 704 377 704 L 377 636 Z M 377 704 C 324.33333333333 704 278 695.33333333333 238 678 C 197.33333333333 660 163.33333333333 635.33333333333 136 604 C 108 572 87 534 73 490 C 58.33333333333 446 51 397.66666666667 51 345 C 51 292.33333333333 58.33333333333 244 73 200 C 87 156 108 118.33333333333 136 87 C 163.33333333333 55 197.33333333333 30.33333333333 238 13 C 278 -5 324.33333333333 -14 377 -14 L 377 54 C 341 54 308.66666666667 61 280 75 C 251.33333333333 88.33333333333 227.33333333333 107.66666666667 208 133 C 188 157.66666666667 173 188 163 224 C 152.33333333333 260 147 300.33333333333 147 345 C 147 390.33333333333 152.33333333333 431 163 467 C 173 502.33333333333 188 532.66666666667 208 558 C 227.33333333333 583.33333333333 251.33333333333 602.66666666667 280 616 C 308.66666666667 629.33333333333 341 636 377 636 L 377 704 Z"/>
    <path fill="#000000" stroke="none" transform="matrix(1 0 0 -1 5735 1270)" d="M 372 636 C 408 636 440.33333333333 629.33333333333 469 616 C 497.66666666667 602.66666666667 522 583.33333333333 542 558 C 561.33333333333 532.66666666667 576.33333333333 502.33333333333 587 467 C 597 431 602 390.33333333333 602 345 C 602 300.33333333333 597 260 587 224 C 576.33333333333 188 561.33333333333 157.66666666667 542 133 C 522 107.66666666667 497.66666666667 88.33333333333 469 75 C 440.33333333333 61 408 54 372 54 L 372 -14 C 424.66666666667 -14 471.33333333333 -5 512 13 C 552 30.33333333333 586 55 614 87 C 641.33333333333 118.33333333333 662.33333333333 156 677 200 C 691 244 698 292.33333333333 698 345 C 698 397.66666666667 691 446 677 490 C 662.33333333333 534 641.33333333333 572 614 604 C 586 635.33333333333 552 660 512 678 C 471.33333333333 695.33333333333 424.66666666667 704 372 704 L 372 636 Z M 372 704 C 319.33333333333 704 273 695.33333333333 233 678 C 192.33333333333 660 158.33333333333 635.33333333333 131 604 C 103 572 82 534 68 490 C 53.33333333333 446 46 397.66666666667 46 345 C 46 292.33333333333 53.33333333333 244 68 200 C 82 156 103 118.33333333333 131 87 C 158.33333333333 55 192.33333333333 30.33333333333 233 13 C 273 -5 319.33333333333 -14 372 -14 L 372 54 C 336 54 303.66666666667 61 275 75 C 246.33333333333 88.33333333333 222.33333333333 107.66666666667 203 133 C 183 157.66666666667 168 188 158 224 C 147.33333333333 260 142 300.33333333333 142 345 C 142 390.33333333333 147.33333333333 431 158 467 C 168 502.33333333333 183 532.66666666667 203 558 C 222.33333333333 583.33333333333 246.33333333333 602.66666666667 275 616 C 303.66666666667 629.33333333333 336 636 372 636 L 372 704 Z M 417 850 C 416.33333333333 824 411.66666666667 806 403 796 C 394.33333333333 786 382.66666666667 781 368 781 C 353.33333333333 781 341.66666666667 786 333 796 C 324.33333333333 806 319.66666666667 824 319 850 L 266 850 C 266 829.33333333333 268 811.33333333333 272 796 C 276 780 282 767 290 757 C 298 746.33333333333 308.66666666667 738.66666666667 322 734 C 334.66666666667 728.66666666667 350 726 368 726 C 386 726 401.33333333333 728.66666666667 414 734 C 426.66666666667 738.66666666667 437.33333333333 746.33333333333 446 757 C 454 767 460 780 464 796 C 468 811.33333333333 470 829.33333333333 470 850 L 417 850 Z"/>
    <path fill="#000000" stroke="none" transform="matrix(1 0 0 -1 6472 1270)" d="M 514 690 L 298 369 L 350 368 L 141 690 L 43 690 L 271 348 L 25 0 L 124 0 L 346 330 L 295 329 L 522 0 L 623 0 L 373 351 L 613 690 L 514 690 Z"/>
    <path fill="#000000" stroke="none" transform="matrix(1 0 0 -1 7097 1270)" d="M 401 690 L 401 267 C 401 249 401 233.66666666667 401 221 C 401 207.66666666667 400.66666666667 196 400 186 C 396.66666666667 145.33333333333 385 113.33333333333 365 90 C 344.33333333333 66 314 54 274 54 C 253.33333333333 54 235.33333333333 57 220 63 C 204 68.33333333333 190.66666666667 77 180 89 C 168.66666666667 100.33333333333 160 114.66666666667 154 132 C 147.33333333333 149.33333333333 143.33333333333 170 142 194 L 140 235 L 54 235 L 55 194 C 55.66666666667 162 61 133.33333333333 71 108 C 80.33333333333 82 94 60 112 42 C 129.33333333333 24 150.66666666667 10.33333333333 176 1 C 201.33333333333 -9 230 -14 262 -14 C 298.66666666667 -14 330.66666666667 -9.33333333333 358 0 C 384.66666666667 9.33333333333 407.33333333333 22.66666666667 426 40 C 444 57.33333333333 458 78 468 102 C 477.33333333333 126 483 152.33333333333 485 181 C 486.33333333333 198.33333333333 487 213.33333333333 487 226 C 487 238 487 250.66666666667 487 264 L 487 690 L 401 690 Z M 242 850 L 175 740 L 238 740 L 288 835 L 254 835 L 304 740 L 368 740 L 301 850 L 242 850 Z"/>
    <path fill="#000000" stroke="none" transform="matrix(1 0 0 -1 7857 1270)" d="M 289 544 C 255 544 222.33333333333 538.33333333333 191 527 C 159.66666666667 515 132 497.33333333333 108 474 C 84 450.66666666667 65 421 51 385 C 37 349 30 306.33333333333 30 257 C 30 218.33333333333 35.33333333333 182.66666666667 46 150 C 56.66666666667 116.66666666667 72.33333333333 88 93 64 C 113 39.33333333333 138 20.33333333333 168 7 C 198 -7 232.33333333333 -14 271 -14 C 298.33333333333 -14 324.66666666667 -10 350 -2 C 375.33333333333 5.33333333333 395.66666666667 15.33333333333 411 28 L 465 105 L 451 260 C 451 222 446.66666666667 190 438 164 C 428.66666666667 137.33333333333 416.33333333333 115.66666666667 401 99 C 385 82.33333333333 367 70.33333333333 347 63 C 327 55.66666666667 306 52 284 52 C 257.33333333333 52 234 57.66666666667 214 69 C 194 79.66666666667 177.33333333333 95 164 115 C 150.66666666667 134.33333333333 140.66666666667 157 134 183 C 127.33333333333 209 124 237 124 267 C 124 301.66666666667 128.33333333333 332.33333333333 137 359 C 145 385 156.66666666667 407 172 425 C 186.66666666667 442.33333333333 204 455.66666666667 224 465 C 244 473.66666666667 265.66666666667 478 289 478 C 308.33333333333 478 327.66666666667 474.66666666667 347 468 C 365.66666666667 460.66666666667 383 449.66666666667 399 435 C 414.33333333333 419.66666666667 427 400 437 376 C 446.33333333333 352 451 323 451 289 L 469 431 L 416 509 C 402.66666666667 520.33333333333 383.66666666667 529 359 535 C 334.33333333333 541 311 544 289 544 Z M 451 735 L 451 0 L 537 0 L 537 735 L 451 735 Z"/>
    <path fill="#000000" stroke="none" transform="matrix(1 0 0 -1 8472 1270)" d="M 73 530 L 73 0 L 159 0 L 159 530 L 73 530 Z M 116 704 C 100.66666666667 704 87.66666666667 698.66666666667 77 688 C 66.33333333333 677.33333333333 61 664.33333333333 61 649 C 61 633.66666666667 66.33333333333 620.66666666667 77 610 C 87.66666666667 599.33333333333 100.66666666667 594 116 594 C 131.33333333333 594 144.33333333333 599.33333333333 155 610 C 165.66666666667 620.66666666667 171 633.66666666667 171 649 C 171 664.33333333333 165.66666666667 677.33333333333 155 688 C 144.33333333333 698.66666666667 131.33333333333 704 116 704 Z"/>
    <path fill="#000000" stroke="none" transform="matrix(1 0 0 -1 8710 1270)" d="M 228 544 C 200.66666666667 544 176 540.66666666667 154 534 C 131.33333333333 526.66666666667 112 516.33333333333 96 503 C 80 489.66666666667 67.66666666667 473.33333333333 59 454 C 49.66666666667 434.66666666667 45 413 45 389 C 45 365.66666666667 49.66666666667 345.66666666667 59 329 C 67.66666666667 311.66666666667 79.66666666667 297 95 285 C 110.33333333333 272.33333333333 128.33333333333 262 149 254 C 169.66666666667 245.33333333333 192 237.66666666667 216 231 C 238 225 257 218.66666666667 273 212 C 289 205.33333333333 302 198 312 190 C 322 182 329.33333333333 173 334 163 C 338.66666666667 153 341 141.66666666667 341 129 C 341 116.33333333333 338.33333333333 105.33333333333 333 96 C 327.66666666667 86 320.33333333333 78 311 72 C 301.66666666667 65.33333333333 290.66666666667 60.33333333333 278 57 C 265.33333333333 53.66666666667 252 52 238 52 C 222.66666666667 52 208.33333333333 54 195 58 C 181.66666666667 61.33333333333 169.66666666667 67 159 75 C 147.66666666667 83 138.33333333333 93.66666666667 131 107 C 123 120.33333333333 117.33333333333 136.66666666667 114 156 L 24 156 C 28 126 36 100.33333333333 48 79 C 60 57.66666666667 75 40 93 26 C 111 12 132 2 156 -4 C 179.33333333333 -10.66666666667 204.66666666667 -14 232 -14 C 260 -14 286 -10.66666666667 310 -4 C 334 2 355 11.33333333333 373 24 C 390.33333333333 36 404 51.66666666667 414 71 C 424 89.66666666667 429 111.33333333333 429 136 C 429 158.66666666667 425.33333333333 178.66666666667 418 196 C 410.66666666667 213.33333333333 399.66666666667 229 385 243 C 369.66666666667 256.33333333333 351 268.33333333333 329 279 C 306.33333333333 289 279.66666666667 298 249 306 C 231 310.66666666667 215 315.66666666667 201 321 C 186.33333333333 326.33333333333 174 332.66666666667 164 340 C 154 346.66666666667 146.33333333333 355 141 365 C 135.66666666667 374.33333333333 133 385.66666666667 133 399 C 133 410.33333333333 135 421 139 431 C 142.33333333333 440.33333333333 147.66666666667 448.66666666667 155 456 C 161.66666666667 462.66666666667 170.66666666667 468 182 472 C 193.33333333333 476 206.33333333333 478 221 478 C 252.33333333333 478 277.33333333333 469.33333333333 296 452 C 314.66666666667 434.66666666667 327 410.33333333333 333 379 L 423 379 C 420.33333333333 403 414.33333333333 425.33333333333 405 446 C 395 466 382 483.33333333333 366 498 C 350 512.66666666667 330.66666666667 524 308 532 C 284.66666666667 540 258 544 228 544 Z"/>
    <path fill="#000000" stroke="none" transform="matrix(1 0 0 -1 9169 1270)" d="M 279 544 C 245.66666666667 544 214 538 184 526 C 154 513.33333333333 127.66666666667 495 105 471 C 81.66666666667 447 63.33333333333 417.66666666667 50 383 C 36.66666666667 348.33333333333 30 308.66666666667 30 264 C 30 215.33333333333 36 173.66666666667 48 139 C 60 103.66666666667 76.66666666667 74.66666666667 98 52 C 118.66666666667 29.33333333333 143.66666666667 12.66666666667 173 2 C 201.66666666667 -8.66666666667 232.66666666667 -14 266 -14 C 295.33333333333 -14 323 -10 349 -2 C 374.33333333333 5.33333333333 397 16.66666666667 417 32 C 437 46.66666666667 454 65.66666666667 468 89 C 481.33333333333 111.66666666667 491.33333333333 138.33333333333 498 169 L 408 169 C 403.33333333333 149.66666666667 397 132.66666666667 389 118 C 380.33333333333 103.33333333333 370.33333333333 91.33333333333 359 82 C 347.66666666667 72 334.66666666667 64.66666666667 320 60 C 304.66666666667 54.66666666667 288.33333333333 52 271 52 C 251 52 232.33333333333 56.33333333333 215 65 C 197 73 181.33333333333 86 168 104 C 154.66666666667 121.33333333333 144 143.66666666667 136 171 C 128 198.33333333333 124 231.33333333333 124 270 C 124 306 128 337 136 363 C 144 389 155 410.66666666667 169 428 C 183 444.66666666667 199.33333333333 457.33333333333 218 466 C 236.66666666667 474 256.33333333333 478 277 478 C 313 478 342.33333333333 467.66666666667 365 447 C 387.66666666667 426.33333333333 403.66666666667 394.66666666667 413 352 L 503 352 C 499 381.33333333333 491 407.66666666667 479 431 C 467 454.33333333333 451.66666666667 474.66666666667 433 492 C 413.66666666667 508.66666666667 391.33333333333 521.66666666667 366 531 C 340 539.66666666667 311 544 279 544 Z"/>
    <path fill="#000000" stroke="none" transform="matrix(1 0 0 -1 9698 1270)" d="M 293 478 C 319.66666666667 478 343.66666666667 473 365 463 C 385.66666666667 452.33333333333 403.33333333333 437.66666666667 418 419 C 432 399.66666666667 443 377 451 351 C 458.33333333333 325 462 296.33333333333 462 265 C 462 234.33333333333 458.33333333333 206 451 180 C 443 153.33333333333 432 130.66666666667 418 112 C 403.33333333333 93.33333333333 385.66666666667 78.66666666667 365 68 C 343.66666666667 57.33333333333 319.66666666667 52 293 52 L 293 -14 C 338.33333333333 -14 377.66666666667 -6.33333333333 411 9 C 443.66666666667 23.66666666667 470.66666666667 44 492 70 C 513.33333333333 95.33333333333 529.33333333333 125 540 159 C 550.66666666667 192.33333333333 556 227.66666666667 556 265 C 556 302.33333333333 550.66666666667 338 540 372 C 529.33333333333 406 513.33333333333 435.66666666667 492 461 C 470.66666666667 486.33333333333 443.66666666667 506.66666666667 411 522 C 377.66666666667 536.66666666667 338.33333333333 544 293 544 L 293 478 Z M 293 544 C 248.33333333333 544 209.33333333333 536.66666666667 176 522 C 142.66666666667 506.66666666667 115.33333333333 486.33333333333 94 461 C 72.66666666667 435.66666666667 56.66666666667 406 46 372 C 35.33333333333 338 30 302.33333333333 30 265 C 30 227.66666666667 35.33333333333 192.33333333333 46 159 C 56.66666666667 125 72.66666666667 95.33333333333 94 70 C 115.33333333333 44 142.66666666667 23.66666666667 176 9 C 209.33333333333 -6.33333333333 248.33333333333 -14 293 -14 L 293 52 C 266.33333333333 52 242.66666666667 57.33333333333 222 68 C 200.66666666667 78.66666666667 183 93.33333333333 169 112 C 154.33333333333 130.66666666667 143.33333333333 153.33333333333 136 180 C 128 206 124 234.33333333333 124 265 C 124 296.33333333333 128 325 136 351 C 143.33333333333 377 154.33333333333 399.66666666667 169 419 C 183 437.66666666667 200.66666666667 452.33333333333 222 463 C 242.66666666667 473 266.33333333333 478 293 478 L 293 544 Z"/>
    <path fill="#000000" stroke="none" transform="matrix(1 0 0 -1 10284 1270)" d="M 417 530 L 249 38 L 266 39 L 96 530 L 1 530 L 202 0 L 307 0 L 508 530 L 417 530 Z"/>
    <path fill="#000000" stroke="none" transform="matrix(1 0 0 -1 10790 1270)" d="M 282 544 C 246 544 212.66666666667 537.66666666667 182 525 C 150.66666666667 511.66666666667 124 492.66666666667 102 468 C 79.33333333333 443.33333333333 61.66666666667 414 49 380 C 36.33333333333 345.33333333333 30 306.33333333333 30 263 L 122 270 C 122 304 126 334 134 360 C 141.33333333333 386 152 407.66666666667 166 425 C 180 442.33333333333 196.66666666667 455.66666666667 216 465 C 235.33333333333 473.66666666667 256.66666666667 478 280 478 C 304 478 325 473.33333333333 343 464 C 361 454.66666666667 376 441 388 423 C 399.33333333333 405 408 383 414 357 C 420 331 423 301.33333333333 423 268 L 458 305 L 85 305 L 85 239 L 507 239 C 508.33333333333 248.33333333333 509 256.66666666667 509 264 C 509 270.66666666667 509 276 509 280 C 509 318.66666666667 504 354.33333333333 494 387 C 484 419 469.33333333333 446.66666666667 450 470 C 430.66666666667 493.33333333333 407 511.66666666667 379 525 C 351 537.66666666667 318.66666666667 544 282 544 Z M 30 263 C 30 216.33333333333 36.33333333333 175.66666666667 49 141 C 61 106.33333333333 77.66666666667 77.66666666667 99 55 C 120.33333333333 31.66666666667 145.66666666667 14.33333333333 175 3 C 204.33333333333 -8.33333333333 236.33333333333 -14 271 -14 C 298.33333333333 -14 324.66666666667 -10.33333333333 350 -3 C 375.33333333333 4.33333333333 398.66666666667 15.66666666667 420 31 C 440.66666666667 45.66666666667 458.33333333333 64.66666666667 473 88 C 487 111.33333333333 496.66666666667 139 502 171 L 412 171 C 409.33333333333 152.33333333333 404 135.66666666667 396 121 C 387.33333333333 105.66666666667 377 93 365 83 C 353 73 339.33333333333 65.33333333333 324 60 C 308.66666666667 54.66666666667 292.33333333333 52 275 52 C 254.33333333333 52 234.66666666667 55.66666666667 216 63 C 197.33333333333 70.33333333333 181 82.66666666667 167 100 C 153 116.66666666667 142 139 134 167 C 126 195 122 229.33333333333 122 270 L 30 263 Z"/>
    <path fill="#000000" stroke="none" transform="matrix(1 0 0 -1 11339 1270)" d="M 74 530 L 74 0 L 160 0 L 160 530 L 74 530 Z M 282 542 C 269.33333333333 542 256.66666666667 540 244 536 C 231.33333333333 531.33333333333 219.33333333333 525.33333333333 208 518 L 156 441 L 160 302 C 160 332 164 358 172 380 C 180 402 191 420 205 434 C 219 447.33333333333 235.66666666667 457 255 463 C 274.33333333333 469 295.33333333333 471.33333333333 318 470 L 318 535 C 312.66666666667 537.66666666667 307.33333333333 539.66666666667 302 541 C 296 541.66666666667 289.33333333333 542 282 542 Z"/>
    <path fill="#000000" stroke="none" transform="matrix(1 0 0 -1 11885 1270)" d="M 331 544 C 303.66666666667 544 279.66666666667 541 259 535 C 237.66666666667 529 215.66666666667 517.33333333333 193 500 L 156 432 L 160 233 C 160 278.33333333333 164 316.66666666667 172 348 C 180 378.66666666667 191 403.66666666667 205 423 C 219 441.66666666667 235.33333333333 455.33333333333 254 464 C 272.66666666667 472 292.33333333333 476 313 476 C 354.33333333333 476 384.33333333333 466 403 446 C 421 425.33333333333 431.33333333333 399.33333333333 434 368 C 435.33333333333 354.66666666667 436 342 436 330 C 436 318 436 305.33333333333 436 292 L 436 0 L 522 0 L 522 298 C 522 319.33333333333 522 336.66666666667 522 350 C 522 362.66666666667 521.33333333333 375.66666666667 520 389 C 516 435.66666666667 498.33333333333 473.33333333333 467 502 C 435 530 389.66666666667 544 331 544 Z M 74 530 L 74 0 L 160 0 L 160 530 L 74 530 Z"/>
    <path fill="#000000" stroke="none" transform="matrix(1 0 0 -1 12478 1270)" d="M 281 544 C 245 544 211.66666666667 537.66666666667 181 525 C 149.66666666667 511.66666666667 123 492.66666666667 101 468 C 78.33333333333 443.33333333333 60.66666666667 414 48 380 C 35.33333333333 345.33333333333 29 306.33333333333 29 263 L 121 270 C 121 304 125 334 133 360 C 140.33333333333 386 151 407.66666666667 165 425 C 179 442.33333333333 195.66666666667 455.66666666667 215 465 C 234.33333333333 473.66666666667 255.66666666667 478 279 478 C 303 478 324 473.33333333333 342 464 C 360 454.66666666667 375 441 387 423 C 398.33333333333 405 407 383 413 357 C 419 331 422 301.33333333333 422 268 L 457 305 L 84 305 L 84 239 L 506 239 C 507.33333333333 248.33333333333 508 256.66666666667 508 264 C 508 270.66666666667 508 276 508 280 C 508 318.66666666667 503 354.33333333333 493 387 C 483 419 468.33333333333 446.66666666667 449 470 C 429.66666666667 493.33333333333 406 511.66666666667 378 525 C 350 537.66666666667 317.66666666667 544 281 544 Z M 29 263 C 29 216.33333333333 35.33333333333 175.66666666667 48 141 C 60 106.33333333333 76.66666666667 77.66666666667 98 55 C 119.33333333333 31.66666666667 144.66666666667 14.33333333333 174 3 C 203.33333333333 -8.33333333333 235.33333333333 -14 270 -14 C 297.33333333333 -14 323.66666666667 -10.33333333333 349 -3 C 374.33333333333 4.33333333333 397.66666666667 15.66666666667 419 31 C 439.66666666667 45.66666666667 457.33333333333 64.66666666667 472 88 C 486 111.33333333333 495.66666666667 139 501 171 L 411 171 C 408.33333333333 152.33333333333 403 135.66666666667 395 121 C 386.33333333333 105.66666666667 376 93 364 83 C 352 73 338.33333333333 65.33333333333 323 60 C 307.66666666667 54.66666666667 291.33333333333 52 274 52 C 253.33333333333 52 233.66666666667 55.66666666667 215 63 C 196.33333333333 70.33333333333 180 82.66666666667 166 100 C 152 116.66666666667 141 139 133 167 C 125 195 121 229.33333333333 121 270 L 29 263 Z M 306 11 C 291.33333333333 5.66666666667 277.33333333333 -1.66666666667 264 -11 C 250 -20.33333333333 238 -31 228 -43 C 217.33333333333 -55.66666666667 209 -70 203 -86 C 196.33333333333 -102 193 -119.33333333333 193 -138 C 193 -170 201.66666666667 -192 219 -204 C 235.66666666667 -216.66666666667 258 -223 286 -223 C 302.66666666667 -223 318.66666666667 -221 334 -217 C 348.66666666667 -213 362.33333333333 -206.66666666667 375 -198 L 375 -149 C 365.66666666667 -156.33333333333 356.66666666667 -161.33333333333 348 -164 C 338.66666666667 -167.33333333333 329 -169 319 -169 C 304.33333333333 -169 293.33333333333 -165.33333333333 286 -158 C 278.66666666667 -150.66666666667 275 -137.66666666667 275 -119 C 275 -103 277.66666666667 -88.33333333333 283 -75 C 287.66666666667 -61.66666666667 294.33333333333 -49.66666666667 303 -39 C 311.66666666667 -29 321.66666666667 -20.33333333333 333 -13 C 344.33333333333 -6.33333333333 356.33333333333 -2 369 0 L 306 11 Z"/>
    <path fill="#000000" stroke="none" transform="matrix(1 0 0 -1 13027 1270)" d="M 407 530 L 160 263 L 160 169 L 225 241 L 185 253 L 403 0 L 520 0 L 233 321 L 231 240 L 517 530 L 407 530 Z M 74 735 L 74 0 L 160 0 L 160 735 L 74 735 Z"/>
    <path fill="#000000" stroke="none" transform="matrix(1 0 0 -1 13540 1270)" d="M 278 544 C 244.66666666667 544 213 538 183 526 C 153 513.33333333333 126.66666666667 495 104 471 C 80.66666666667 447 62.33333333333 417.66666666667 49 383 C 35.66666666667 348.33333333333 29 308.66666666667 29 264 C 29 215.33333333333 35 173.66666666667 47 139 C 59 103.66666666667 75.66666666667 74.66666666667 97 52 C 117.66666666667 29.33333333333 142.66666666667 12.66666666667 172 2 C 200.66666666667 -8.66666666667 231.66666666667 -14 265 -14 C 294.33333333333 -14 322 -10 348 -2 C 373.33333333333 5.33333333333 396 16.66666666667 416 32 C 436 46.66666666667 453 65.66666666667 467 89 C 480.33333333333 111.66666666667 490.33333333333 138.33333333333 497 169 L 407 169 C 402.33333333333 149.66666666667 396 132.66666666667 388 118 C 379.33333333333 103.33333333333 369.33333333333 91.33333333333 358 82 C 346.66666666667 72 333.66666666667 64.66666666667 319 60 C 303.66666666667 54.66666666667 287.33333333333 52 270 52 C 250 52 231.33333333333 56.33333333333 214 65 C 196 73 180.33333333333 86 167 104 C 153.66666666667 121.33333333333 143 143.66666666667 135 171 C 127 198.33333333333 123 231.33333333333 123 270 C 123 306 127 337 135 363 C 143 389 154 410.66666666667 168 428 C 182 444.66666666667 198.33333333333 457.33333333333 217 466 C 235.66666666667 474 255.33333333333 478 276 478 C 312 478 341.33333333333 467.66666666667 364 447 C 386.66666666667 426.33333333333 402.66666666667 394.66666666667 412 352 L 502 352 C 498 381.33333333333 490 407.66666666667 478 431 C 466 454.33333333333 450.66666666667 474.66666666667 432 492 C 412.66666666667 508.66666666667 390.33333333333 521.66666666667 365 531 C 339 539.66666666667 310 544 278 544 Z M 271 690 L 210 580 L 266 580 L 351 690 L 271 690 Z"/>
    <path fill="#000000" stroke="none" transform="matrix(1 0 0 -1 14069 1270)" d="M 42 526 L 42 458 L 349 458 L 349 485 L 20 66 L 20 0 L 433 0 L 433 68 L 101 68 L 101 41 L 428 457 L 428 526 L 42 526 Z"/>
    <path fill="#000000" stroke="none" transform="matrix(1 0 0 -1 14521 1270)" d="M 281 544 C 245 544 211.66666666667 537.66666666667 181 525 C 149.66666666667 511.66666666667 123 492.66666666667 101 468 C 78.33333333333 443.33333333333 60.66666666667 414 48 380 C 35.33333333333 345.33333333333 29 306.33333333333 29 263 L 121 270 C 121 304 125 334 133 360 C 140.33333333333 386 151 407.66666666667 165 425 C 179 442.33333333333 195.66666666667 455.66666666667 215 465 C 234.33333333333 473.66666666667 255.66666666667 478 279 478 C 303 478 324 473.33333333333 342 464 C 360 454.66666666667 375 441 387 423 C 398.33333333333 405 407 383 413 357 C 419 331 422 301.33333333333 422 268 L 457 305 L 84 305 L 84 239 L 506 239 C 507.33333333333 248.33333333333 508 256.66666666667 508 264 C 508 270.66666666667 508 276 508 280 C 508 318.66666666667 503 354.33333333333 493 387 C 483 419 468.33333333333 446.66666666667 449 470 C 429.66666666667 493.33333333333 406 511.66666666667 378 525 C 350 537.66666666667 317.66666666667 544 281 544 Z M 29 263 C 29 216.33333333333 35.33333333333 175.66666666667 48 141 C 60 106.33333333333 76.66666666667 77.66666666667 98 55 C 119.33333333333 31.66666666667 144.66666666667 14.33333333333 174 3 C 203.33333333333 -8.33333333333 235.33333333333 -14 270 -14 C 297.33333333333 -14 323.66666666667 -10.33333333333 349 -3 C 374.33333333333 4.33333333333 397.66666666667 15.66666666667 419 31 C 439.66666666667 45.66666666667 457.33333333333 64.66666666667 472 88 C 486 111.33333333333 495.66666666667 139 501 171 L 411 171 C 408.33333333333 152.33333333333 403 135.66666666667 395 121 C 386.33333333333 105.66666666667 376 93 364 83 C 352 73 338.33333333333 65.33333333333 323 60 C 307.66666666667 54.66666666667 291.33333333333 52 274 52 C 253.33333333333 52 233.66666666667 55.66666666667 215 63 C 196.33333333333 70.33333333333 180 82.66666666667 166 100 C 152 116.66666666667 141 139 133 167 C 125 195 121 229.33333333333 121 270 L 29 263 Z M 306 11 C 291.33333333333 5.66666666667 277.33333333333 -1.66666666667 264 -11 C 250 -20.33333333333 238 -31 228 -43 C 217.33333333333 -55.66666666667 209 -70 203 -86 C 196.33333333333 -102 193 -119.33333333333 193 -138 C 193 -170 201.66666666667 -192 219 -204 C 235.66666666667 -216.66666666667 258 -223 286 -223 C 302.66666666667 -223 318.66666666667 -221 334 -217 C 348.66666666667 -213 362.33333333333 -206.66666666667 375 -198 L 375 -149 C 365.66666666667 -156.33333333333 356.66666666667 -161.33333333333 348 -164 C 338.66666666667 -167.33333333333 329 -169 319 -169 C 304.33333333333 -169 293.33333333333 -165.33333333333 286 -158 C 278.66666666667 -150.66666666667 275 -137.66666666667 275 -119 C 275 -103 277.66666666667 -88.33333333333 283 -75 C 287.66666666667 -61.66666666667 294.33333333333 -49.66666666667 303 -39 C 311.66666666667 -29 321.66666666667 -20.33333333333 333 -13 C 344.33333333333 -6.33333333333 356.33333333333 -2 369 0 L 306 11 Z"/>
    <path fill="#000000" stroke="none" transform="matrix(1 0 0 -1 15070 1270)" d="M 330 544 C 302.66666666667 544 278.66666666667 541 258 535 C 236.66666666667 529 214.66666666667 517.33333333333 192 500 L 155 432 L 159 233 C 159 278.33333333333 163 316.33333333333 171 347 C 179 377.66666666667 190 402.66666666667 204 422 C 218 440.66666666667 234.33333333333 454.33333333333 253 463 C 271.66666666667 471 291.33333333333 475.33333333333 312 476 C 353.33333333333 477.33333333333 383.33333333333 467.66666666667 402 447 C 420 425.66666666667 430.33333333333 399.33333333333 433 368 C 434.33333333333 354.66666666667 435 342 435 330 C 435 318 435 305.33333333333 435 292 L 435 0 L 521 0 L 521 298 C 521 319.33333333333 521 336.66666666667 521 350 C 521 362.66666666667 520.33333333333 375.66666666667 519 389 C 515 435.66666666667 497.33333333333 473.33333333333 466 502 C 434 530 388.66666666667 544 330 544 Z M 73 740 L 73 0 L 159 0 L 159 740 L 73 740 Z M 267 690 L 200 580 L 263 580 L 313 675 L 279 675 L 329 580 L 393 580 L 326 690 L 267 690 Z"/>
    <path fill="#000000" stroke="none" transform="matrix(1 0 0 -1 15879 1270)" d="M 293 478 C 319.66666666667 478 343.66666666667 473 365 463 C 385.66666666667 452.33333333333 403.33333333333 437.66666666667 418 419 C 432 399.66666666667 443 377 451 351 C 458.33333333333 325 462 296.33333333333 462 265 C 462 234.33333333333 458.33333333333 206 451 180 C 443 153.33333333333 432 130.66666666667 418 112 C 403.33333333333 93.33333333333 385.66666666667 78.66666666667 365 68 C 343.66666666667 57.33333333333 319.66666666667 52 293 52 L 293 -14 C 338.33333333333 -14 377.66666666667 -6.33333333333 411 9 C 443.66666666667 23.66666666667 470.66666666667 44 492 70 C 513.33333333333 95.33333333333 529.33333333333 125 540 159 C 550.66666666667 192.33333333333 556 227.66666666667 556 265 C 556 302.33333333333 550.66666666667 338 540 372 C 529.33333333333 406 513.33333333333 435.66666666667 492 461 C 470.66666666667 486.33333333333 443.66666666667 506.66666666667 411 522 C 377.66666666667 536.66666666667 338.33333333333 544 293 544 L 293 478 Z M 293 544 C 248.33333333333 544 209.33333333333 536.66666666667 176 522 C 142.66666666667 506.66666666667 115.33333333333 486.33333333333 94 461 C 72.66666666667 435.66666666667 56.66666666667 406 46 372 C 35.33333333333 338 30 302.33333333333 30 265 C 30 227.66666666667 35.33333333333 192.33333333333 46 159 C 56.66666666667 125 72.66666666667 95.33333333333 94 70 C 115.33333333333 44 142.66666666667 23.66666666667 176 9 C 209.33333333333 -6.33333333333 248.33333333333 -14 293 -14 L 293 52 C 266.33333333333 52 242.66666666667 57.33333333333 222 68 C 200.66666666667 78.66666666667 183 93.33333333333 169 112 C 154.33333333333 130.66666666667 143.33333333333 153.33333333333 136 180 C 128 206 124 234.33333333333 124 265 C 124 296.33333333333 128 325 136 351 C 143.33333333333 377 154.33333333333 399.66666666667 169 419 C 183 437.66666666667 200.66666666667 452.33333333333 222 463 C 242.66666666667 473 266.33333333333 478 293 478 L 293 544 Z"/>
    <path fill="#000000" stroke="none" transform="matrix(1 0 0 -1 16465 1270)" d="M 227 544 C 199.66666666667 544 175 540.66666666667 153 534 C 130.33333333333 526.66666666667 111 516.33333333333 95 503 C 79 489.66666666667 66.66666666667 473.33333333333 58 454 C 48.66666666667 434.66666666667 44 413 44 389 C 44 365.66666666667 48.66666666667 345.66666666667 58 329 C 66.66666666667 311.66666666667 78.66666666667 297 94 285 C 109.33333333333 272.33333333333 127.33333333333 262 148 254 C 168.66666666667 245.33333333333 191 237.66666666667 215 231 C 237 225 256 218.66666666667 272 212 C 288 205.33333333333 301 198 311 190 C 321 182 328.33333333333 173 333 163 C 337.66666666667 153 340 141.66666666667 340 129 C 340 116.33333333333 337.33333333333 105.33333333333 332 96 C 326.66666666667 86 319.33333333333 78 310 72 C 300.66666666667 65.33333333333 289.66666666667 60.33333333333 277 57 C 264.33333333333 53.66666666667 251 52 237 52 C 221.66666666667 52 207.33333333333 54 194 58 C 180.66666666667 61.33333333333 168.66666666667 67 158 75 C 146.66666666667 83 137.33333333333 93.66666666667 130 107 C 122 120.33333333333 116.33333333333 136.66666666667 113 156 L 23 156 C 27 126 35 100.33333333333 47 79 C 59 57.66666666667 74 40 92 26 C 110 12 131 2 155 -4 C 178.33333333333 -10.66666666667 203.66666666667 -14 231 -14 C 259 -14 285 -10.66666666667 309 -4 C 333 2 354 11.33333333333 372 24 C 389.33333333333 36 403 51.66666666667 413 71 C 423 89.66666666667 428 111.33333333333 428 136 C 428 158.66666666667 424.33333333333 178.66666666667 417 196 C 409.66666666667 213.33333333333 398.66666666667 229 384 243 C 368.66666666667 256.33333333333 350 268.33333333333 328 279 C 305.33333333333 289 278.66666666667 298 248 306 C 230 310.66666666667 214 315.66666666667 200 321 C 185.33333333333 326.33333333333 173 332.66666666667 163 340 C 153 346.66666666667 145.33333333333 355 140 365 C 134.66666666667 374.33333333333 132 385.66666666667 132 399 C 132 410.33333333333 134 421 138 431 C 141.33333333333 440.33333333333 146.66666666667 448.66666666667 154 456 C 160.66666666667 462.66666666667 169.66666666667 468 181 472 C 192.33333333333 476 205.33333333333 478 220 478 C 251.33333333333 478 276.33333333333 469.33333333333 295 452 C 313.66666666667 434.66666666667 326 410.33333333333 332 379 L 422 379 C 419.33333333333 403 413.33333333333 425.33333333333 404 446 C 394 466 381 483.33333333333 365 498 C 349 512.66666666667 329.66666666667 524 307 532 C 283.66666666667 540 257 544 227 544 Z M 240 -51 L 188 -195 L 249 -195 L 309 -63 L 309 -51 L 240 -51 Z"/>
    <path fill="#000000" stroke="none" transform="matrix(1 0 0 -1 16924 1270)" d="M 292 478 C 318.66666666667 478 342.66666666667 473 364 463 C 384.66666666667 452.33333333333 402.33333333333 437.66666666667 417 419 C 431 399.66666666667 442 377 450 351 C 457.33333333333 325 461 296.33333333333 461 265 C 461 234.33333333333 457.33333333333 206 450 180 C 442 153.33333333333 431 130.66666666667 417 112 C 402.33333333333 93.33333333333 384.66666666667 78.66666666667 364 68 C 342.66666666667 57.33333333333 318.66666666667 52 292 52 L 292 -14 C 337.33333333333 -14 376.66666666667 -6.33333333333 410 9 C 442.66666666667 23.66666666667 469.66666666667 44 491 70 C 512.33333333333 95.33333333333 528.33333333333 125 539 159 C 549.66666666667 192.33333333333 555 227.66666666667 555 265 C 555 302.33333333333 549.66666666667 338 539 372 C 528.33333333333 406 512.33333333333 435.66666666667 491 461 C 469.66666666667 486.33333333333 442.66666666667 506.66666666667 410 522 C 376.66666666667 536.66666666667 337.33333333333 544 292 544 L 292 478 Z M 292 544 C 247.33333333333 544 208.33333333333 536.66666666667 175 522 C 141.66666666667 506.66666666667 114.33333333333 486.33333333333 93 461 C 71.66666666667 435.66666666667 55.66666666667 406 45 372 C 34.33333333333 338 29 302.33333333333 29 265 C 29 227.66666666667 34.33333333333 192.33333333333 45 159 C 55.66666666667 125 71.66666666667 95.33333333333 93 70 C 114.33333333333 44 141.66666666667 23.66666666667 175 9 C 208.33333333333 -6.33333333333 247.33333333333 -14 292 -14 L 292 52 C 265.33333333333 52 241.66666666667 57.33333333333 221 68 C 199.66666666667 78.66666666667 182 93.33333333333 168 112 C 153.33333333333 130.66666666667 142.33333333333 153.33333333333 135 180 C 127 206 123 234.33333333333 123 265 C 123 296.33333333333 127 325 135 351 C 142.33333333333 377 153.33333333333 399.66666666667 168 419 C 182 437.66666666667 199.66666666667 452.33333333333 221 463 C 241.66666666667 473 265.33333333333 478 292 478 L 292 544 Z M 385 690 L 324 580 L 380 580 L 465 690 L 385 690 Z M 263 690 L 202 580 L 258 580 L 343 690 L 263 690 Z"/>
    <path fill="#000000" stroke="none" transform="matrix(1 0 0 -1 17510 1270)" d="M 65 530 L 65 212 C 65 190.66666666667 65.33333333333 173.66666666667 66 161 C 66.66666666667 147.66666666667 68 134.33333333333 70 121 C 73.33333333333 103 79.66666666667 86 89 70 C 98.33333333333 53.33333333333 111 39 127 27 C 142.33333333333 14.33333333333 161 4.33333333333 183 -3 C 204.33333333333 -10.33333333333 228.66666666667 -14 256 -14 C 283.33333333333 -14 307.66666666667 -11 329 -5 C 349.66666666667 0.33333333333 371.33333333333 11.33333333333 394 28 L 431 98 L 427 297 C 427 251.66666666667 423.33333333333 213.66666666667 416 183 C 408 151.66666666667 397.33333333333 126.66666666667 384 108 C 370 88.66666666667 354 75 336 67 C 318 58.33333333333 298.66666666667 54 278 54 C 242 54 213.66666666667 63.33333333333 193 82 C 171.66666666667 100.66666666667 159 125 155 155 C 153.66666666667 168.33333333333 152.66666666667 181.66666666667 152 195 C 151.33333333333 208.33333333333 151 219.33333333333 151 228 L 151 530 L 65 530 Z M 427 530 L 427 0 L 513 0 L 513 530 L 427 530 Z M 388 690 L 327 580 L 383 580 L 468 690 L 388 690 Z M 266 690 L 205 580 L 261 580 L 346 690 L 266 690 Z"/>
    <path fill="#000000" stroke="none" transform="matrix(1 0 0 -1 18102 1270)" d="M 331 544 C 303.66666666667 544 279.66666666667 541 259 535 C 237.66666666667 529 215.66666666667 517.33333333333 193 500 L 156 432 L 160 233 C 160 278.33333333333 164 316.66666666667 172 348 C 180 378.66666666667 191 403.66666666667 205 423 C 219 441.66666666667 235.33333333333 455.33333333333 254 464 C 272.66666666667 472 292.33333333333 476 313 476 C 354.33333333333 476 384.33333333333 466 403 446 C 421 425.33333333333 431.33333333333 399.33333333333 434 368 C 435.33333333333 354.66666666667 436 342 436 330 C 436 318 436 305.33333333333 436 292 L 436 0 L 522 0 L 522 298 C 522 319.33333333333 522 336.66666666667 522 350 C 522 362.66666666667 521.33333333333 375.66666666667 520 389 C 516 435.66666666667 498.33333333333 473.33333333333 467 502 C 435 530 389.66666666667 544 331 544 Z M 74 530 L 74 0 L 160 0 L 160 530 L 74 530 Z"/>
    <path fill="#000000" stroke="none" transform="matrix(1 0 0 -1 18695 1270)" d="M 451 530 L 451 76 C 451 68 451 59.66666666667 451 51 C 451 41.66666666667 450.66666666667 30.66666666667 450 18 C 449.33333333333 -7.33333333333 445.33333333333 -30 438 -50 C 430 -70 419 -87 405 -101 C 391 -115 374 -125.66666666667 354 -133 C 333.33333333333 -140.33333333333 310 -144 284 -144 C 261.33333333333 -144 241 -141.33333333333 223 -136 C 205 -130.66666666667 190 -123 178 -113 C 165.33333333333 -103.66666666667 155.33333333333 -92 148 -78 C 140.66666666667 -64.66666666667 136 -50 134 -34 L 133 -25 L 46 -25 L 47 -35 C 49.66666666667 -63 56.66666666667 -87.66666666667 68 -109 C 78.66666666667 -131 93.66666666667 -149.33333333333 113 -164 C 132.33333333333 -179.33333333333 156.33333333333 -190.66666666667 185 -198 C 213 -206 246 -210 284 -210 C 322 -210 356.33333333333 -205 387 -195 C 417.66666666667 -185 444 -170 466 -150 C 487.33333333333 -130 504 -105 516 -75 C 528 -45.66666666667 534.66666666667 -11.66666666667 536 27 C 536.66666666667 41.66666666667 537 58.33333333333 537 77 C 537 95.66666666667 537 113.33333333333 537 130 L 537 530 L 451 530 Z M 289 544 C 255 544 222.33333333333 538.33333333333 191 527 C 159.66666666667 515 132 497.33333333333 108 474 C 84 450.66666666667 65 421 51 385 C 37 349 30 306.33333333333 30 257 C 30 218.33333333333 35.33333333333 182.66666666667 46 150 C 56.66666666667 116.66666666667 72.33333333333 88 93 64 C 113 39.33333333333 138 20.33333333333 168 7 C 198 -7 232.33333333333 -14 271 -14 C 298.33333333333 -14 324.66666666667 -10 350 -2 C 375.33333333333 5.33333333333 395.66666666667 15.33333333333 411 28 L 465 105 L 451 260 C 451 222 446.66666666667 190 438 164 C 428.66666666667 137.33333333333 416.33333333333 115.66666666667 401 99 C 385 82.33333333333 367 70.33333333333 347 63 C 327 55.66666666667 306 52 284 52 C 257.33333333333 52 234 57.66666666667 214 69 C 194 79.66666666667 177.33333333333 95 164 115 C 150.66666666667 134.33333333333 140.66666666667 157 134 183 C 127.33333333333 209 124 237 124 267 C 124 301.66666666667 128.33333333333 332.33333333333 137 359 C 145 385 156.66666666667 407 172 425 C 186.66666666667 442.33333333333 204 455.66666666667 224 465 C 244 473.66666666667 265.66666666667 478 289 478 C 308.33333333333 478 327.66666666667 474.66666666667 347 468 C 365.66666666667 460.66666666667 383 449.66666666667 399 435 C 414.33333333333 419.66666666667 427 400 437 376 C 446.33333333333 352 451 323 451 289 L 469 431 L 416 509 C 402.66666666667 520.33333333333 383.66666666667 529 359 535 C 334.33333333333 541 311 544 289 544 Z"/>
</svg>
