<svg width="17472" height="2000" viewBox="0 0 17472 2000" xmlns="http://www.w3.org/2000/svg">
    <defs/>
    <path fill="#000000" stroke="none" transform="matrix(1 0 0 -1 0 1270)" d="M 173 690 L 51 0 L 137 0 L 259 690 L 173 690 Z M 125 70 L 112 0 L 510 0 L 523 70 L 125 70 Z M 397 690 L 337 546 L 385 546 L 466 683 L 466 690 L 397 690 Z"/>
    <path fill="#000000" stroke="none" transform="matrix(1 0 0 -1 539 1270)" d="M 428 636 C 459.33333333333 636 487.66666666667 630.66666666667 513 620 C 537.66666666667 608.66666666667 558.66666666667 593 576 573 C 593.33333333333 552.33333333333 606.66666666667 528 616 500 C 625.33333333333 471.33333333333 630 439.66666666667 630 405 C 630 365.66666666667 624.66666666667 325.33333333333 614 284 C 602.66666666667 242.66666666667 585.66666666667 205 563 171 C 540.33333333333 137 511.66666666667 109 477 87 C 442.33333333333 65 401.33333333333 54 354 54 L 336 -14 C 403.33333333333 -14 461.66666666667 -1.66666666667 511 23 C 559.66666666667 47 600 79 632 119 C 663.33333333333 158.33333333333 686.66666666667 203 702 253 C 716.66666666667 303 724 353.66666666667 724 405 C 724 445.66666666667 718.33333333333 484.33333333333 707 521 C 695 557 677.33333333333 588.66666666667 654 616 C 630.66666666667 642.66666666667 601.66666666667 664 567 680 C 532.33333333333 696 492 704 446 704 L 428 636 Z M 446 704 C 378.66666666667 704 320.66666666667 692 272 668 C 222.66666666667 643.33333333333 182.33333333333 611.33333333333 151 572 C 119 532.66666666667 95.66666666667 488 81 438 C 65.66666666667 387.33333333333 58 336.33333333333 58 285 C 58 244.33333333333 64 206 76 170 C 87.33333333333 133.33333333333 104.66666666667 101.66666666667 128 75 C 151.33333333333 47.66666666667 180.33333333333 26 215 10 C 249.66666666667 -6 290 -14 336 -14 L 354 54 C 322 54 293.66666666667 59.66666666667 269 71 C 243.66666666667 81.66666666667 222.33333333333 97.33333333333 205 118 C 187.66666666667 138 174.66666666667 162.33333333333 166 191 C 156.66666666667 219 152 250.33333333333 152 285 C 152 324.33333333333 157.66666666667 364.66666666667 169 406 C 179.66666666667 447.33333333333 196.33333333333 485 219 519 C 241.66666666667 553 270.33333333333 581 305 603 C 339.66666666667 625 380.66666666667 636 428 636 L 446 704 Z M 389 831 C 373 831 359.66666666667 826.33333333333 349 817 C 337.66666666667 807 329.33333333333 788 324 760 L 362 760 C 363.33333333333 767.33333333333 365.66666666667 772.66666666667 369 776 C 372.33333333333 778.66666666667 376.66666666667 780 382 780 C 386.66666666667 780 392 779.33333333333 398 778 C 404 776 412.66666666667 773 424 769 C 436.66666666667 764.33333333333 447.33333333333 761 456 759 C 464.66666666667 757 473.66666666667 756 483 756 C 499 756 512.66666666667 761 524 771 C 534.66666666667 780.33333333333 542.66666666667 799 548 827 L 510 827 C 508.66666666667 819.66666666667 506.33333333333 814.66666666667 503 812 C 499.66666666667 808.66666666667 495.33333333333 807 490 807 C 485.33333333333 807 480 808 474 810 C 468 811.33333333333 459.33333333333 814 448 818 C 435.33333333333 822.66666666667 424.66666666667 826 416 828 C 407.33333333333 830 398.33333333333 831 389 831 Z"/>
    <path fill="#000000" stroke="none" transform="matrix(1 0 0 -1 1286 1270)" d="M 174 690 L 52 0 L 138 0 L 260 690 L 174 690 Z M 180 380 L 168 310 L 516 310 L 528 380 L 180 380 Z M 235 690 L 222 620 L 610 620 L 623 690 L 235 690 Z"/>
    <path fill="#000000" stroke="none" transform="matrix(1 0 0 -1 1862 1270)" d="M 174 690 L 52 0 L 138 0 L 260 690 L 174 690 Z"/>
    <path fill="#000000" stroke="none" transform="matrix(1 0 0 -1 2125 1270)" d="M 596 690 L 182 336 L 167 239 L 244 307 L 219 317 L 460 0 L 565 0 L 265 385 L 249 304 L 701 690 L 596 690 Z M 173 690 L 51 0 L 137 0 L 259 690 L 173 690 Z M 243 -51 L 183 -195 L 231 -195 L 312 -58 L 312 -51 L 243 -51 Z"/>
    <path fill="#000000" stroke="none" transform="matrix(1 0 0 -1 2754 1270)" d="M 566 690 L 318 350 L 184 690 L 93 690 L 272 250 L 335 250 L 667 690 L 566 690 Z M 268 300 L 215 0 L 301 0 L 354 300 L 268 300 Z M 444 835 C 437.33333333333 835 430.66666666667 833.66666666667 424 831 C 417.33333333333 827.66666666667 411.66666666667 823.66666666667 407 819 C 401.66666666667 814.33333333333 397.33333333333 809 394 803 C 390.66666666667 796.33333333333 389 789.33333333333 389 782 C 389 770.66666666667 392.66666666667 761.33333333333 400 754 C 407.33333333333 746.66666666667 416.66666666667 743 428 743 C 434.66666666667 743 441.33333333333 744.66666666667 448 748 C 454.66666666667 750.66666666667 460.66666666667 754.33333333333 466 759 C 470.66666666667 763.66666666667 474.66666666667 769.33333333333 478 776 C 481.33333333333 782.66666666667 483 789.33333333333 483 796 C 483 807.33333333333 479.33333333333 816.66666666667 472 824 C 464.66666666667 831.33333333333 455.33333333333 835 444 835 Z M 298 835 C 291.33333333333 835 284.66666666667 833.66666666667 278 831 C 271.33333333333 827.66666666667 265.66666666667 823.66666666667 261 819 C 255.66666666667 814.33333333333 251.33333333333 809 248 803 C 244.66666666667 796.33333333333 243 789.33333333333 243 782 C 243 770.66666666667 246.66666666667 761.33333333333 254 754 C 261.33333333333 746.66666666667 270.66666666667 743 282 743 C 288.66666666667 743 295.33333333333 744.66666666667 302 748 C 308.66666666667 750.66666666667 314.66666666667 754.33333333333 320 759 C 324.66666666667 763.66666666667 328.66666666667 769.33333333333 332 776 C 335.33333333333 782.66666666667 337 789.33333333333 337 796 C 337 807.33333333333 333.33333333333 816.66666666667 326 824 C 318.66666666667 831.33333333333 309.33333333333 835 298 835 Z"/>
    <path fill="#000000" stroke="none" transform="matrix(1 0 0 -1 3335 1270)" d="M 173 690 L 51 0 L 137 0 L 259 690 L 173 690 Z M 125 70 L 112 0 L 510 0 L 523 70 L 125 70 Z M 179 380 L 167 310 L 525 310 L 537 380 L 179 380 Z M 234 690 L 221 620 L 609 620 L 622 690 L 234 690 Z M 400 850 L 313 740 L 376 740 L 443 835 L 409 835 L 442 740 L 506 740 L 459 850 L 400 850 Z"/>
    <path fill="#000000" stroke="none" transform="matrix(1 0 0 -1 4124 1270)" d="M 628 690 L 530 124 L 306 690 L 174 690 L 53 0 L 139 0 L 243 598 L 500 -31 L 491 -83 C 487 -105.66666666667 479 -123 467 -135 C 455 -147 435.33333333333 -153 408 -153 L 396 -223 C 428 -223 454.66666666667 -221 476 -217 C 496.66666666667 -213 514 -205.33333333333 528 -194 C 541.33333333333 -182.66666666667 552 -166.66666666667 560 -146 C 568 -126 575 -99.66666666667 581 -67 L 714 690 L 628 690 Z"/>
    <path fill="#000000" stroke="none" transform="matrix(1 0 0 -1 4841 1270)" d="M 601 690 L 526 263 C 524 251.66666666667 522 241 520 231 C 518 221 515.66666666667 211.33333333333 513 202 C 505.66666666667 176 496.33333333333 153.66666666667 485 135 C 473.66666666667 116.33333333333 460 101 444 89 C 427.33333333333 77 408.66666666667 68.33333333333 388 63 C 366.66666666667 57 342.66666666667 54 316 54 C 291.33333333333 54 270 57 252 63 C 233.33333333333 69 218 77.66666666667 206 89 C 194 99.66666666667 185.33333333333 113 180 129 C 174 145 171 162.66666666667 171 182 C 171 195.33333333333 171.66666666667 207.66666666667 173 219 C 174.33333333333 229.66666666667 177 246.66666666667 181 270 L 255 690 L 169 690 L 93 262 C 91.66666666667 255.33333333333 90.66666666667 248.66666666667 90 242 C 88.66666666667 235.33333333333 87.66666666667 228.66666666667 87 222 C 86.33333333333 214.66666666667 86 207.66666666667 86 201 C 85.33333333333 193.66666666667 85 186.33333333333 85 179 C 85 148.33333333333 89.66666666667 121 99 97 C 107.66666666667 73 121.33333333333 52.66666666667 140 36 C 158 19.33333333333 180.66666666667 7 208 -1 C 235.33333333333 -9.66666666667 267.33333333333 -14 304 -14 C 346 -14 383.66666666667 -9.33333333333 417 0 C 449.66666666667 9.33333333333 478 22.66666666667 502 40 C 526 57.33333333333 546 79 562 105 C 577.33333333333 131 589 160.33333333333 597 193 C 599.66666666667 203 602 213.33333333333 604 224 C 606 234 608 244.33333333333 610 255 L 687 690 L 601 690 Z M 345 11 C 298.33333333333 -5 263 -27.66666666667 239 -57 C 215 -87 203 -118 203 -150 C 203 -176.66666666667 211 -195.33333333333 227 -206 C 243 -217.33333333333 261.66666666667 -223 283 -223 C 301.66666666667 -223 319 -220.33333333333 335 -215 C 350.33333333333 -210.33333333333 364 -203.66666666667 376 -195 L 385 -149 C 375 -156.33333333333 365.33333333333 -161.33333333333 356 -164 C 346 -167.33333333333 336 -169 326 -169 C 314 -169 305 -165.66666666667 299 -159 C 292.33333333333 -153 289 -142.33333333333 289 -127 C 289 -115.66666666667 292 -103 298 -89 C 303.33333333333 -75.66666666667 311.33333333333 -62.66666666667 322 -50 C 332.66666666667 -38 345.33333333333 -27.33333333333 360 -18 C 374 -8.66666666667 389.33333333333 -2.66666666667 406 0 L 345 11 Z"/>
    <path fill="#000000" stroke="none" transform="matrix(1 0 0 -1 5524 1270)" d="M 111 558 L 101 502 L 733 502 L 743 558 L 111 558 Z M 640 690 L 518 0 L 604 0 L 726 690 L 640 690 Z M 174 690 L 52 0 L 138 0 L 260 690 L 174 690 Z M 179 374 L 166 302 L 604 302 L 617 374 L 179 374 Z"/>
    <path fill="#000000" stroke="none" transform="matrix(1 0 0 -1 6253 1270)" d="M 628 690 L 530 124 L 306 690 L 174 690 L 53 0 L 139 0 L 243 598 L 500 -31 L 491 -83 C 487 -105.66666666667 479 -123 467 -135 C 455 -147 435.33333333333 -153 408 -153 L 396 -223 C 428 -223 454.66666666667 -221 476 -217 C 496.66666666667 -213 514 -205.33333333333 528 -194 C 541.33333333333 -182.66666666667 552 -166.66666666667 560 -146 C 568 -126 575 -99.66666666667 581 -67 L 714 690 L 628 690 Z"/>
    <path fill="#000000" stroke="none" transform="matrix(1 0 0 -1 6970 1270)" d="M 355 690 L 233 0 L 319 0 L 441 690 L 355 690 Z M 109 690 L 96 620 L 674 620 L 687 690 L 109 690 Z M 423 850 L 356 755 L 390 755 L 357 850 L 293 850 L 340 740 L 399 740 L 486 850 L 423 850 Z"/>
    <path fill="#000000" stroke="none" transform="matrix(1 0 0 -1 7583 1270)" d="M 173 690 L 51 0 L 137 0 L 259 690 L 173 690 Z M 65 11 C 18.33333333333 -5 -17 -27.66666666667 -41 -57 C -65 -87 -77 -118 -77 -150 C -77 -176.66666666667 -69 -195.33333333333 -53 -206 C -37 -217.33333333333 -18.33333333333 -223 3 -223 C 21.66666666667 -223 39 -220.33333333333 55 -215 C 70.33333333333 -210.33333333333 84 -203.66666666667 96 -195 L 105 -149 C 95 -156.33333333333 85.33333333333 -161.33333333333 76 -164 C 66 -167.33333333333 56 -169 46 -169 C 34 -169 25 -165.66666666667 19 -159 C 12.33333333333 -153 9 -142.33333333333 9 -127 C 9 -115.66666666667 12 -103 18 -89 C 23.33333333333 -75.66666666667 31.33333333333 -62.66666666667 42 -50 C 52.66666666667 -38 65.33333333333 -27.33333333333 80 -18 C 94 -8.66666666667 109.33333333333 -2.66666666667 126 0 L 65 11 Z"/>
    <path fill="#000000" stroke="none" transform="matrix(1 0 0 -1 8042 1270)" d="M 447 530 L 208 63 L 132 530 L 34 530 L 151 -48 L 163 0 L 138 -46 C 128.66666666667 -64 119.33333333333 -78.66666666667 110 -90 C 100.66666666667 -102 91 -111.66666666667 81 -119 C 71 -126.33333333333 60.33333333333 -131.33333333333 49 -134 C 37.66666666667 -137.33333333333 25.33333333333 -139 12 -139 C 6.66666666667 -139 1.66666666667 -138.66666666667 -3 -138 C -8.33333333333 -138 -13.66666666667 -137.33333333333 -19 -136 L -31 -207 C -24.33333333333 -208.33333333333 -17.33333333333 -209 -10 -209 C -3.33333333333 -209.66666666667 3.66666666667 -210 11 -210 C 36.33333333333 -210 58.66666666667 -206.66666666667 78 -200 C 97.33333333333 -193.33333333333 116 -182 134 -166 C 152 -150 170.33333333333 -128.33333333333 189 -101 C 207.66666666667 -74.33333333333 228.33333333333 -40.66666666667 251 0 L 546 530 L 447 530 Z M 353 690 L 272 580 L 328 580 L 433 690 L 353 690 Z"/>
    <path fill="#000000" stroke="none" transform="matrix(1 0 0 -1 8536 1270)" d="M 303 544 C 272.33333333333 544 244 540 218 532 C 191.33333333333 524 168 512.66666666667 148 498 C 127.33333333333 482.66666666667 110.33333333333 464 97 442 C 83.66666666667 419.33333333333 74 394 68 366 L 158 366 C 162 384 167.66666666667 400 175 414 C 181.66666666667 428 190.66666666667 440 202 450 C 213.33333333333 459.33333333333 227.33333333333 466.33333333333 244 471 C 260 475.66666666667 279.33333333333 478 302 478 C 333.33333333333 478 355.33333333333 471 368 457 C 380.66666666667 442.33333333333 387 424.66666666667 387 404 C 387 396.66666666667 386.33333333333 388 385 378 C 383.66666666667 367.33333333333 381.33333333333 352.33333333333 378 333 L 355 201 L 334 85 L 329 0 L 415 0 C 415.66666666667 14.66666666667 416.66666666667 28.33333333333 418 41 C 418.66666666667 53 419.66666666667 64.33333333333 421 75 C 421.66666666667 85.66666666667 422.66666666667 96 424 106 C 425.33333333333 115.33333333333 427 125 429 135 L 464 334 C 466.66666666667 348.66666666667 469 362.66666666667 471 376 C 472.33333333333 389.33333333333 473 401.66666666667 473 413 C 473 432.33333333333 469.66666666667 450.33333333333 463 467 C 456.33333333333 483 446.33333333333 496.66666666667 433 508 C 419 519.33333333333 401.33333333333 528.33333333333 380 535 C 358.66666666667 541 333 544 303 544 Z M 381 319 C 329 323 280.66666666667 322.33333333333 236 317 C 190.66666666667 311.66666666667 151.33333333333 301 118 285 C 84.66666666667 269 58.66666666667 247.66666666667 40 221 C 20.66666666667 194.33333333333 11 161.66666666667 11 123 C 11 99.66666666667 15.33333333333 79.33333333333 24 62 C 32 44.66666666667 42.66666666667 30.33333333333 56 19 C 69.33333333333 7.66666666667 84.66666666667 -0.66666666667 102 -6 C 119.33333333333 -11.33333333333 137.33333333333 -14 156 -14 C 186 -14 212.66666666667 -10.66666666667 236 -4 C 259.33333333333 2 279 12.66666666667 295 28 L 342 87 L 355 201 C 351 179.66666666667 343.66666666667 160 333 142 C 322.33333333333 123.33333333333 309.66666666667 107.33333333333 295 94 C 280.33333333333 80.66666666667 264.33333333333 70.33333333333 247 63 C 229.66666666667 55.66666666667 212.66666666667 52 196 52 C 168.66666666667 52 146.66666666667 59 130 73 C 113.33333333333 86.33333333333 105 106 105 132 C 105 158 112.33333333333 180 127 198 C 141 215.33333333333 160.33333333333 229 185 239 C 209 249 237 255.33333333333 269 258 C 301 260.66666666667 334.33333333333 260 369 256 L 381 319 Z M 393 675 C 386.33333333333 675 379.66666666667 673.66666666667 373 671 C 366.33333333333 667.66666666667 360.66666666667 663.66666666667 356 659 C 350.66666666667 654.33333333333 346.33333333333 649 343 643 C 339.66666666667 636.33333333333 338 629.33333333333 338 622 C 338 610.66666666667 341.66666666667 601.33333333333 349 594 C 356.33333333333 586.66666666667 365.66666666667 583 377 583 C 383.66666666667 583 390.33333333333 584.66666666667 397 588 C 403.66666666667 590.66666666667 409.66666666667 594.33333333333 415 599 C 419.66666666667 603.66666666667 423.66666666667 609.33333333333 427 616 C 430.33333333333 622.66666666667 432 629.33333333333 432 636 C 432 647.33333333333 428.33333333333 656.66666666667 421 664 C 413.66666666667 671.33333333333 404.33333333333 675 393 675 Z M 247 675 C 240.33333333333 675 233.66666666667 673.66666666667 227 671 C 220.33333333333 667.66666666667 214.66666666667 663.66666666667 210 659 C 204.66666666667 654.33333333333 200.33333333333 649 197 643 C 193.66666666667 636.33333333333 192 629.33333333333 192 622 C 192 610.66666666667 195.66666666667 601.33333333333 203 594 C 210.33333333333 586.66666666667 219.66666666667 583 231 583 C 237.66666666667 583 244.33333333333 584.66666666667 251 588 C 257.66666666667 590.66666666667 263.66666666667 594.33333333333 269 599 C 273.66666666667 603.66666666667 277.66666666667 609.33333333333 281 616 C 284.33333333333 622.66666666667 286 629.33333333333 286 636 C 286 647.33333333333 282.33333333333 656.66666666667 275 664 C 267.66666666667 671.33333333333 258.33333333333 675 247 675 Z"/>
    <path fill="#000000" stroke="none" transform="matrix(1 0 0 -1 9042 1270)" d="M 502 530 L 422 76 C 420.66666666667 68 419 59.66666666667 417 51 C 415 41.66666666667 412.66666666667 30.66666666667 410 18 C 398.66666666667 -33.33333333333 376.66666666667 -73 344 -101 C 311.33333333333 -129.66666666667 268.66666666667 -144 216 -144 C 193.33333333333 -144 173.66666666667 -141.33333333333 157 -136 C 139.66666666667 -130.66666666667 125.66666666667 -123 115 -113 C 103.66666666667 -103.66666666667 95.66666666667 -92 91 -78 C 86.33333333333 -64.66666666667 84.33333333333 -50 85 -34 L 86 -25 L -1 -25 L -2 -35 C -4 -63 -0.66666666667 -87.66666666667 8 -109 C 16.66666666667 -131 30.33333333333 -149.33333333333 49 -164 C 67 -179.33333333333 89.33333333333 -190.66666666667 116 -198 C 142 -206 171.33333333333 -210 204 -210 C 244.66666666667 -210 281.33333333333 -205 314 -195 C 346.66666666667 -185 375.33333333333 -170 400 -150 C 424.66666666667 -130 445.33333333333 -105 462 -75 C 478 -45.66666666667 490 -11.66666666667 498 27 C 501.33333333333 41.66666666667 504.66666666667 58.33333333333 508 77 C 510.66666666667 95.66666666667 513.66666666667 113.33333333333 517 130 L 588 530 L 502 530 Z M 342 544 C 288.66666666667 544 242.33333333333 534 203 514 C 163.66666666667 493.33333333333 131 467 105 435 C 79 402.33333333333 59.66666666667 365.66666666667 47 325 C 34.33333333333 284.33333333333 28 243.33333333333 28 202 C 28 172 32.33333333333 144 41 118 C 49 91.33333333333 61.33333333333 68.33333333333 78 49 C 94 29 114.66666666667 13.66666666667 140 3 C 164.66666666667 -8.33333333333 193.33333333333 -14 226 -14 C 239.33333333333 -14 253 -13 267 -11 C 281 -9 294.33333333333 -6 307 -2 C 319.66666666667 1.33333333333 331.66666666667 5.66666666667 343 11 C 354.33333333333 16.33333333333 364.33333333333 22 373 28 L 441 105 L 454 260 C 447.33333333333 222 437 190 423 164 C 409 137.33333333333 393 115.66666666667 375 99 C 356.33333333333 82.33333333333 336.33333333333 70.33333333333 315 63 C 293.66666666667 55.66666666667 272 52 250 52 C 228 52 209 56 193 64 C 177 71.33333333333 164 82 154 96 C 143.33333333333 109.33333333333 135.33333333333 125.33333333333 130 144 C 124.66666666667 162.66666666667 122 183.33333333333 122 206 C 122 240 126.66666666667 273.33333333333 136 306 C 144.66666666667 338 158 367 176 393 C 193.33333333333 418.33333333333 215 439 241 455 C 267 470.33333333333 296.66666666667 478 330 478 C 357.33333333333 478 380.33333333333 473 399 463 C 417 452.33333333333 431.33333333333 438.33333333333 442 421 C 452 403 458.33333333333 382.66666666667 461 360 C 463.66666666667 337.33333333333 463 313.66666666667 459 289 L 495 431 L 463 500 C 451.66666666667 513.33333333333 434.33333333333 524 411 532 C 387 540 364 544 342 544 Z M 380 704 C 371.33333333333 704 363 702.33333333333 355 699 C 347 695.66666666667 340 691.33333333333 334 686 C 328 680 323.33333333333 673.33333333333 320 666 C 316.66666666667 658 315 649.33333333333 315 640 C 315 626.66666666667 319.33333333333 615.66666666667 328 607 C 336.66666666667 598.33333333333 348 594 362 594 C 371.33333333333 594 380 595.66666666667 388 599 C 395.33333333333 602.33333333333 402 607 408 613 C 414 618.33333333333 418.66666666667 625 422 633 C 425.33333333333 641 427 649.33333333333 427 658 C 427 671.33333333333 422.66666666667 682.33333333333 414 691 C 405.33333333333 699.66666666667 394 704 380 704 Z"/>
    <path fill="#000000" stroke="none" transform="matrix(1 0 0 -1 9654 1270)" d="M 150 649 L 62 151 C 58 129.66666666667 55.33333333333 112.66666666667 54 100 C 52 86.66666666667 51 76.33333333333 51 69 C 51 41.66666666667 59.66666666667 22 77 10 C 93.66666666667 -2 118 -8 150 -8 C 161.33333333333 -8 172.66666666667 -7.33333333333 184 -6 C 194.66666666667 -4.66666666667 204.66666666667 -2.66666666667 214 0 L 226 63 C 196.66666666667 57.66666666667 175.33333333333 57.66666666667 162 63 C 148 68.33333333333 141 80.66666666667 141 100 C 141 104.66666666667 141.33333333333 110.66666666667 142 118 C 142.66666666667 125.33333333333 144.66666666667 137.66666666667 148 155 L 236 649 L 150 649 Z M 59 526 L 47 460 L 293 460 L 305 526 L 59 526 Z M 94 -51 L 34 -195 L 82 -195 L 163 -58 L 163 -51 L 94 -51 Z"/>
    <path fill="#000000" stroke="none" transform="matrix(1 0 0 -1 9957 1270)" d="M 150 649 L 62 151 C 58 129.66666666667 55.33333333333 112.66666666667 54 100 C 52 86.66666666667 51 76.33333333333 51 69 C 51 41.66666666667 59.66666666667 22 77 10 C 93.66666666667 -2 118 -8 150 -8 C 161.33333333333 -8 172.66666666667 -7.33333333333 184 -6 C 194.66666666667 -4.66666666667 204.66666666667 -2.66666666667 214 0 L 226 63 C 196.66666666667 57.66666666667 175.33333333333 57.66666666667 162 63 C 148 68.33333333333 141 80.66666666667 141 100 C 141 104.66666666667 141.33333333333 110.66666666667 142 118 C 142.66666666667 125.33333333333 144.66666666667 137.66666666667 148 155 L 236 649 L 150 649 Z M 59 526 L 47 460 L 293 460 L 305 526 L 59 526 Z M 326 709 L 266 565 L 314 565 L 395 702 L 395 709 L 326 709 Z"/>
    <path fill="#000000" stroke="none" transform="matrix(1 0 0 -1 10260 1270)" d="M 150 649 L 62 151 C 58 129.66666666667 55.33333333333 112.66666666667 54 100 C 52 86.66666666667 51 76.33333333333 51 69 C 51 41.66666666667 59.66666666667 22 77 10 C 93.66666666667 -2 118 -8 150 -8 C 161.33333333333 -8 172.66666666667 -7.33333333333 184 -6 C 194.66666666667 -4.66666666667 204.66666666667 -2.66666666667 214 0 L 226 63 C 196.66666666667 57.66666666667 175.33333333333 57.66666666667 162 63 C 148 68.33333333333 141 80.66666666667 141 100 C 141 104.66666666667 141.33333333333 110.66666666667 142 118 C 142.66666666667 125.33333333333 144.66666666667 137.66666666667 148 155 L 236 649 L 150 649 Z M 59 526 L 47 460 L 293 460 L 305 526 L 59 526 Z M 94 -51 L 34 -195 L 82 -195 L 163 -58 L 163 -51 L 94 -51 Z"/>
    <path fill="#000000" stroke="none" transform="matrix(1 0 0 -1 10759 1270)" d="M 448 530 L 209 63 L 133 530 L 35 530 L 152 -48 L 164 0 L 139 -46 C 129.66666666667 -64 120.33333333333 -78.66666666667 111 -90 C 101.66666666667 -102 92 -111.66666666667 82 -119 C 72 -126.33333333333 61.33333333333 -131.33333333333 50 -134 C 38.66666666667 -137.33333333333 26.33333333333 -139 13 -139 C 7.66666666667 -139 2.66666666667 -138.66666666667 -2 -138 C -7.33333333333 -138 -12.66666666667 -137.33333333333 -18 -136 L -30 -207 C -23.33333333333 -208.33333333333 -16.33333333333 -209 -9 -209 C -2.33333333333 -209.66666666667 4.66666666667 -210 12 -210 C 37.33333333333 -210 59.66666666667 -206.66666666667 79 -200 C 98.33333333333 -193.33333333333 117 -182 135 -166 C 153 -150 171.33333333333 -128.33333333333 190 -101 C 208.66666666667 -74.33333333333 229.33333333333 -40.66666666667 252 0 L 547 530 L 448 530 Z"/>
    <path fill="#000000" stroke="none" transform="matrix(1 0 0 -1 11253 1270)" d="M 252 544 C 218.66666666667 544 189.66666666667 539.66666666667 165 531 C 139.66666666667 522.33333333333 118.66666666667 511 102 497 C 84.66666666667 482.33333333333 72 465.33333333333 64 446 C 55.33333333333 426.66666666667 51 406 51 384 C 51 361.33333333333 55 342 63 326 C 70.33333333333 309.33333333333 80.66666666667 295.33333333333 94 284 C 107.33333333333 272 123 262 141 254 C 158.33333333333 246 177.33333333333 239 198 233 C 216.66666666667 227 232.66666666667 221 246 215 C 259.33333333333 208.33333333333 270.33333333333 201.33333333333 279 194 C 287.66666666667 186 294 177.33333333333 298 168 C 302 158.66666666667 304 148 304 136 C 304 108 294 86 274 70 C 253.33333333333 54 228 46 198 46 C 166 46 139 53.66666666667 117 69 C 95 84.33333333333 82.33333333333 111.33333333333 79 150 L -11 150 C -10.33333333333 130 -6.33333333333 110 1 90 C 8.33333333333 69.33333333333 20 51 36 35 C 51.33333333333 18.33333333333 71.66666666667 5 97 -5 C 122.33333333333 -15 153.66666666667 -20 191 -20 C 224.33333333333 -20 254 -15.66666666667 280 -7 C 305.33333333333 1 326.66666666667 12.33333333333 344 27 C 361.33333333333 41.66666666667 374.66666666667 59 384 79 C 393.33333333333 99 398 120.33333333333 398 143 C 398 187 384.66666666667 221 358 245 C 331.33333333333 268.33333333333 292.33333333333 287.66666666667 241 303 C 227 307 214 311.66666666667 202 317 C 190 322.33333333333 180 328.66666666667 172 336 C 163.33333333333 343.33333333333 156.66666666667 351.66666666667 152 361 C 147.33333333333 370.33333333333 145 381 145 393 C 145 404.33333333333 147 415 151 425 C 154.33333333333 435 160.33333333333 444 169 452 C 177 460 187.66666666667 466.33333333333 201 471 C 213.66666666667 475.66666666667 229.33333333333 478 248 478 C 278 478 300.33333333333 469.33333333333 315 452 C 329.66666666667 434.66666666667 337.66666666667 410.33333333333 339 379 L 429 379 C 428.33333333333 403 424.66666666667 425.33333333333 418 446 C 410.66666666667 466 400 483.33333333333 386 498 C 371.33333333333 512.66666666667 353 524 331 532 C 309 540 282.66666666667 544 252 544 Z M 168 -51 L 108 -195 L 156 -195 L 237 -58 L 237 -51 L 168 -51 Z"/>
    <path fill="#000000" stroke="none" transform="matrix(1 0 0 -1 11704 1270)" d="M 763 544 C 739 544 715.66666666667 541 693 535 C 670.33333333333 529 648.66666666667 519.66666666667 628 507 C 607.33333333333 493.66666666667 587.66666666667 477 569 457 C 550.33333333333 437 533.33333333333 413 518 385 L 544 388 C 538.66666666667 414 530.33333333333 437 519 457 C 507.66666666667 476.33333333333 493.66666666667 492.66666666667 477 506 C 460.33333333333 518.66666666667 440.66666666667 528.33333333333 418 535 C 395.33333333333 541 370 544 342 544 C 283.33333333333 544 234 532.33333333333 194 509 C 153.33333333333 485 120.66666666667 455.66666666667 96 421 C 70.66666666667 386.33333333333 52.33333333333 349 41 309 C 29.66666666667 269 24 233 24 201 C 24 171 28.33333333333 143 37 117 C 45 91 58 68.33333333333 76 49 C 94 29 117 13.66666666667 145 3 C 172.33333333333 -8.33333333333 205.33333333333 -14 244 -14 C 272 -14 298.33333333333 -10.66666666667 323 -4 C 347 2 369.66666666667 11.33333333333 391 24 C 411.66666666667 36.66666666667 430.66666666667 52.66666666667 448 72 C 465.33333333333 91.33333333333 481.33333333333 114 496 140 L 471 143 C 476.33333333333 115 484.66666666667 91 496 71 C 506.66666666667 51 520 34.66666666667 536 22 C 552 9.33333333333 570 0.33333333333 590 -5 C 610 -11 631.33333333333 -14 654 -14 C 681.33333333333 -14 708.33333333333 -10.33333333333 735 -3 C 761.66666666667 4.33333333333 786.66666666667 15.66666666667 810 31 C 833.33333333333 45.66666666667 854.33333333333 64.66666666667 873 88 C 891.66666666667 111.33333333333 906.33333333333 139 917 171 L 827 171 C 821 152.33333333333 812.66666666667 135.66666666667 802 121 C 790.66666666667 105.66666666667 778.33333333333 93 765 83 C 751 73 736 65.33333333333 720 60 C 703.33333333333 54.66666666667 686.33333333333 52 669 52 C 651.66666666667 52 635.66666666667 55 621 61 C 606.33333333333 66.33333333333 594 75 584 87 C 573.33333333333 99 565 114.33333333333 559 133 C 553 151 550 173 550 199 C 550 205 550 211.33333333333 550 218 C 550 224.66666666667 550.66666666667 231.66666666667 552 239 L 934 239 C 939.33333333333 255 943.33333333333 272.66666666667 946 292 C 948.66666666667 311.33333333333 950 329.66666666667 950 347 C 950 377 946 404 938 428 C 930 452 918.33333333333 472.66666666667 903 490 C 887.66666666667 507.33333333333 868.33333333333 520.66666666667 845 530 C 821.66666666667 539.33333333333 794.33333333333 544 763 544 Z M 331 478 C 353.66666666667 478 373.66666666667 474.33333333333 391 467 C 407.66666666667 459.66666666667 421.66666666667 449.33333333333 433 436 C 444.33333333333 422 453 405.66666666667 459 387 C 464.33333333333 367.66666666667 467 346.33333333333 467 323 C 467 297 463.33333333333 268.33333333333 456 237 C 448 205 435.66666666667 175.33333333333 419 148 C 401.66666666667 120.66666666667 379.66666666667 98 353 80 C 325.66666666667 61.33333333333 293 52 255 52 C 232.33333333333 52 212.66666666667 55.66666666667 196 63 C 178.66666666667 70.33333333333 164.33333333333 81 153 95 C 141.66666666667 108.33333333333 133.33333333333 124.66666666667 128 144 C 122 162.66666666667 119 183.66666666667 119 207 C 119 233 123 262 131 294 C 139 325.33333333333 151.66666666667 354.66666666667 169 382 C 185.66666666667 409.33333333333 207.33333333333 432.33333333333 234 451 C 260.66666666667 469 293 478 331 478 Z M 750 478 C 769.33333333333 478 786 475.33333333333 800 470 C 814 464 826 455.33333333333 836 444 C 845.33333333333 432.66666666667 852.33333333333 418.66666666667 857 402 C 861.66666666667 385.33333333333 864 366 864 344 C 864 338.66666666667 864 332.66666666667 864 326 C 863.33333333333 319.33333333333 862.33333333333 312.33333333333 861 305 L 565 305 C 572.33333333333 333 582.33333333333 358 595 380 C 607 401.33333333333 621 419.33333333333 637 434 C 653 448.66666666667 670.66666666667 459.66666666667 690 467 C 708.66666666667 474.33333333333 728.66666666667 478 750 478 Z"/>
    <path fill="#000000" stroke="none" transform="matrix(1 0 0 -1 12673 1270)" d="M 252 544 C 218.66666666667 544 189.66666666667 539.66666666667 165 531 C 139.66666666667 522.33333333333 118.66666666667 511 102 497 C 84.66666666667 482.33333333333 72 465.33333333333 64 446 C 55.33333333333 426.66666666667 51 406 51 384 C 51 361.33333333333 55 342 63 326 C 70.33333333333 309.33333333333 80.66666666667 295.33333333333 94 284 C 107.33333333333 272 123 262 141 254 C 158.33333333333 246 177.33333333333 239 198 233 C 216.66666666667 227 232.66666666667 221 246 215 C 259.33333333333 208.33333333333 270.33333333333 201.33333333333 279 194 C 287.66666666667 186 294 177.33333333333 298 168 C 302 158.66666666667 304 148 304 136 C 304 108 294 86 274 70 C 253.33333333333 54 228 46 198 46 C 166 46 139 53.66666666667 117 69 C 95 84.33333333333 82.33333333333 111.33333333333 79 150 L -11 150 C -10.33333333333 130 -6.33333333333 110 1 90 C 8.33333333333 69.33333333333 20 51 36 35 C 51.33333333333 18.33333333333 71.66666666667 5 97 -5 C 122.33333333333 -15 153.66666666667 -20 191 -20 C 224.33333333333 -20 254 -15.66666666667 280 -7 C 305.33333333333 1 326.66666666667 12.33333333333 344 27 C 361.33333333333 41.66666666667 374.66666666667 59 384 79 C 393.33333333333 99 398 120.33333333333 398 143 C 398 187 384.66666666667 221 358 245 C 331.33333333333 268.33333333333 292.33333333333 287.66666666667 241 303 C 227 307 214 311.66666666667 202 317 C 190 322.33333333333 180 328.66666666667 172 336 C 163.33333333333 343.33333333333 156.66666666667 351.66666666667 152 361 C 147.33333333333 370.33333333333 145 381 145 393 C 145 404.33333333333 147 415 151 425 C 154.33333333333 435 160.33333333333 444 169 452 C 177 460 187.66666666667 466.33333333333 201 471 C 213.66666666667 475.66666666667 229.33333333333 478 248 478 C 278 478 300.33333333333 469.33333333333 315 452 C 329.66666666667 434.66666666667 337.66666666667 410.33333333333 339 379 L 429 379 C 428.33333333333 403 424.66666666667 425.33333333333 418 446 C 410.66666666667 466 400 483.33333333333 386 498 C 371.33333333333 512.66666666667 353 524 331 532 C 309 540 282.66666666667 544 252 544 Z M 331 690 L 250 580 L 306 580 L 411 690 L 331 690 Z"/>
    <path fill="#000000" stroke="none" transform="matrix(1 0 0 -1 13124 1270)" d="M 321 478 C 346.33333333333 478 368 473.66666666667 386 465 C 404 455.66666666667 419 443.33333333333 431 428 C 442.33333333333 412.66666666667 451 394.66666666667 457 374 C 462.33333333333 353.33333333333 465 331.33333333333 465 308 C 465 278 461 247.66666666667 453 217 C 444.33333333333 186.33333333333 431.66666666667 159 415 135 C 397.66666666667 110.33333333333 376.66666666667 90.33333333333 352 75 C 327.33333333333 59.66666666667 298.33333333333 52 265 52 L 254 -14 C 308 -14 354.33333333333 -3.66666666667 393 17 C 431.66666666667 37 463.33333333333 63 488 95 C 512 126.33333333333 530 161 542 199 C 553.33333333333 237 559 274 559 310 C 559 340 555 369.33333333333 547 398 C 538.33333333333 426 525 451 507 473 C 489 494.33333333333 465.66666666667 511.66666666667 437 525 C 408.33333333333 537.66666666667 373.33333333333 544 332 544 L 321 478 Z M 332 544 C 278 544 231.66666666667 534 193 514 C 154.33333333333 493.33333333333 123 467.33333333333 99 436 C 74.33333333333 404 56.33333333333 369 45 331 C 33 293 27 256 27 220 C 27 190 31.33333333333 161 40 133 C 48 104.33333333333 61 79.33333333333 79 58 C 97 36 120.66666666667 18.66666666667 150 6 C 178.66666666667 -7.33333333333 213.33333333333 -14 254 -14 L 265 52 C 240.33333333333 52 219 56.66666666667 201 66 C 182.33333333333 74.66666666667 167.33333333333 86.66666666667 156 102 C 144 117.33333333333 135.33333333333 135.33333333333 130 156 C 124 176.66666666667 121 198.66666666667 121 222 C 121 252 125.33333333333 282.33333333333 134 313 C 142 343.66666666667 154.66666666667 371.33333333333 172 396 C 188.66666666667 420 209.66666666667 439.66666666667 235 455 C 259.66666666667 470.33333333333 288.33333333333 478 321 478 L 332 544 Z M 334 690 L 247 580 L 310 580 L 377 675 L 343 675 L 376 580 L 440 580 L 393 690 L 334 690 Z"/>
    <path fill="#000000" stroke="none" transform="matrix(1 0 0 -1 13712 1270)" d="M 303 544 C 272.33333333333 544 244 540 218 532 C 191.33333333333 524 168 512.66666666667 148 498 C 127.33333333333 482.66666666667 110.33333333333 464 97 442 C 83.66666666667 419.33333333333 74 394 68 366 L 158 366 C 162 384 167.66666666667 400 175 414 C 181.66666666667 428 190.66666666667 440 202 450 C 213.33333333333 459.33333333333 227.33333333333 466.33333333333 244 471 C 260 475.66666666667 279.33333333333 478 302 478 C 333.33333333333 478 355.33333333333 471 368 457 C 380.66666666667 442.33333333333 387 424.66666666667 387 404 C 387 396.66666666667 386.33333333333 388 385 378 C 383.66666666667 367.33333333333 381.33333333333 352.33333333333 378 333 L 355 201 L 334 85 L 329 0 L 415 0 C 415.66666666667 14.66666666667 416.66666666667 28.33333333333 418 41 C 418.66666666667 53 419.66666666667 64.33333333333 421 75 C 421.66666666667 85.66666666667 422.66666666667 96 424 106 C 425.33333333333 115.33333333333 427 125 429 135 L 464 334 C 466.66666666667 348.66666666667 469 362.66666666667 471 376 C 472.33333333333 389.33333333333 473 401.66666666667 473 413 C 473 432.33333333333 469.66666666667 450.33333333333 463 467 C 456.33333333333 483 446.33333333333 496.66666666667 433 508 C 419 519.33333333333 401.33333333333 528.33333333333 380 535 C 358.66666666667 541 333 544 303 544 Z M 381 319 C 329 323 280.66666666667 322.33333333333 236 317 C 190.66666666667 311.66666666667 151.33333333333 301 118 285 C 84.66666666667 269 58.66666666667 247.66666666667 40 221 C 20.66666666667 194.33333333333 11 161.66666666667 11 123 C 11 99.66666666667 15.33333333333 79.33333333333 24 62 C 32 44.66666666667 42.66666666667 30.33333333333 56 19 C 69.33333333333 7.66666666667 84.66666666667 -0.66666666667 102 -6 C 119.33333333333 -11.33333333333 137.33333333333 -14 156 -14 C 186 -14 212.66666666667 -10.66666666667 236 -4 C 259.33333333333 2 279 12.66666666667 295 28 L 342 87 L 355 201 C 351 179.66666666667 343.66666666667 160 333 142 C 322.33333333333 123.33333333333 309.66666666667 107.33333333333 295 94 C 280.33333333333 80.66666666667 264.33333333333 70.33333333333 247 63 C 229.66666666667 55.66666666667 212.66666666667 52 196 52 C 168.66666666667 52 146.66666666667 59 130 73 C 113.33333333333 86.33333333333 105 106 105 132 C 105 158 112.33333333333 180 127 198 C 141 215.33333333333 160.33333333333 229 185 239 C 209 249 237 255.33333333333 269 258 C 301 260.66666666667 334.33333333333 260 369 256 L 381 319 Z M 359 690 L 278 580 L 334 580 L 439 690 L 359 690 Z"/>
    <path fill="#000000" stroke="none" transform="matrix(1 0 0 -1 14414 1270)" d="M 448 530 L 196 44 L 213 45 L 133 530 L 35 530 L 142 0 L 252 0 L 547 530 L 448 530 Z"/>
    <path fill="#000000" stroke="none" transform="matrix(1 0 0 -1 14908 1270)" d="M 114 530 L 60 232 C 57.33333333333 216 55 202.66666666667 53 192 C 51 181.33333333333 49.66666666667 172 49 164 C 48.33333333333 156 48 149 48 143 C 47.33333333333 136.33333333333 47 129.33333333333 47 122 C 47 80 60.66666666667 47 88 23 C 114.66666666667 -1.66666666667 155 -14 209 -14 C 236.33333333333 -14 261.33333333333 -11 284 -5 C 306 1 329.66666666667 12.66666666667 355 30 L 404 98 L 435 297 C 427 251.66666666667 416.33333333333 213.66666666667 403 183 C 389 152.33333333333 373.66666666667 127.66666666667 357 109 C 339.66666666667 89.66666666667 321 76 301 68 C 281 59.33333333333 260.33333333333 54.66666666667 239 54 C 201 52.66666666667 174.33333333333 61 159 79 C 143.66666666667 96.33333333333 136 118.66666666667 136 146 C 136 156.66666666667 137 169 139 183 C 140.33333333333 197 143 215.33333333333 147 238 L 200 530 L 114 530 Z M 476 530 L 435 297 L 383 0 L 469 0 L 562 530 L 476 530 Z M 335 690 L 248 580 L 311 580 L 378 675 L 344 675 L 377 580 L 441 580 L 394 690 L 335 690 Z"/>
    <path fill="#000000" stroke="none" transform="matrix(1 0 0 -1 15498 1270)" d="M 114 530 L 60 232 C 57.33333333333 216 55 202.66666666667 53 192 C 51 181.33333333333 49.66666666667 172 49 164 C 48.33333333333 156 48 149 48 143 C 47.33333333333 136.33333333333 47 129.33333333333 47 122 C 47 80 60.66666666667 47 88 23 C 114.66666666667 -1.66666666667 155 -14 209 -14 C 236.33333333333 -14 261.33333333333 -11 284 -5 C 306 1 329.66666666667 12.66666666667 355 30 L 404 98 L 435 297 C 427 251.66666666667 416.33333333333 213.66666666667 403 183 C 389 152.33333333333 373.66666666667 127.66666666667 357 109 C 339.66666666667 89.66666666667 321 76 301 68 C 281 59.33333333333 260.33333333333 54.66666666667 239 54 C 201 52.66666666667 174.33333333333 61 159 79 C 143.66666666667 96.33333333333 136 118.66666666667 136 146 C 136 156.66666666667 137 169 139 183 C 140.33333333333 197 143 215.33333333333 147 238 L 200 530 L 114 530 Z M 476 530 L 435 297 L 383 0 L 469 0 L 562 530 L 476 530 Z M 249 656 L 239 604 L 479 604 L 489 656 L 249 656 Z"/>
    <path fill="#000000" stroke="none" transform="matrix(1 0 0 -1 16088 1270)" d="M 303 544 C 272.33333333333 544 244 540 218 532 C 191.33333333333 524 168 512.66666666667 148 498 C 127.33333333333 482.66666666667 110.33333333333 464 97 442 C 83.66666666667 419.33333333333 74 394 68 366 L 158 366 C 162 384 167.66666666667 400 175 414 C 181.66666666667 428 190.66666666667 440 202 450 C 213.33333333333 459.33333333333 227.33333333333 466.33333333333 244 471 C 260 475.66666666667 279.33333333333 478 302 478 C 333.33333333333 478 355.33333333333 471 368 457 C 380.66666666667 442.33333333333 387 424.66666666667 387 404 C 387 396.66666666667 386.33333333333 388 385 378 C 383.66666666667 367.33333333333 381.33333333333 352.33333333333 378 333 L 355 201 L 334 85 L 329 0 L 415 0 C 415.66666666667 14.66666666667 416.66666666667 28.33333333333 418 41 C 418.66666666667 53 419.66666666667 64.33333333333 421 75 C 421.66666666667 85.66666666667 422.66666666667 96 424 106 C 425.33333333333 115.33333333333 427 125 429 135 L 464 334 C 466.66666666667 348.66666666667 469 362.66666666667 471 376 C 472.33333333333 389.33333333333 473 401.66666666667 473 413 C 473 432.33333333333 469.66666666667 450.33333333333 463 467 C 456.33333333333 483 446.33333333333 496.66666666667 433 508 C 419 519.33333333333 401.33333333333 528.33333333333 380 535 C 358.66666666667 541 333 544 303 544 Z M 381 319 C 329 323 280.66666666667 322.33333333333 236 317 C 190.66666666667 311.66666666667 151.33333333333 301 118 285 C 84.66666666667 269 58.66666666667 247.66666666667 40 221 C 20.66666666667 194.33333333333 11 161.66666666667 11 123 C 11 99.66666666667 15.33333333333 79.33333333333 24 62 C 32 44.66666666667 42.66666666667 30.33333333333 56 19 C 69.33333333333 7.66666666667 84.66666666667 -0.66666666667 102 -6 C 119.33333333333 -11.33333333333 137.33333333333 -14 156 -14 C 186 -14 212.66666666667 -10.66666666667 236 -4 C 259.33333333333 2 279 12.66666666667 295 28 L 342 87 L 355 201 C 351 179.66666666667 343.66666666667 160 333 142 C 322.33333333333 123.33333333333 309.66666666667 107.33333333333 295 94 C 280.33333333333 80.66666666667 264.33333333333 70.33333333333 247 63 C 229.66666666667 55.66666666667 212.66666666667 52 196 52 C 168.66666666667 52 146.66666666667 59 130 73 C 113.33333333333 86.33333333333 105 106 105 132 C 105 158 112.33333333333 180 127 198 C 141 215.33333333333 160.33333333333 229 185 239 C 209 249 237 255.33333333333 269 258 C 301 260.66666666667 334.33333333333 260 369 256 L 381 319 Z M 293 690 L 206 580 L 269 580 L 336 675 L 302 675 L 335 580 L 399 580 L 352 690 L 293 690 Z"/>
    <path fill="#000000" stroke="none" transform="matrix(1 0 0 -1 16594 1270)" d="M 150 649 L 62 151 C 58 129.66666666667 55.33333333333 112.66666666667 54 100 C 52 86.66666666667 51 76.33333333333 51 69 C 51 41.66666666667 59.66666666667 22 77 10 C 93.66666666667 -2 118 -8 150 -8 C 161.33333333333 -8 172.66666666667 -7.33333333333 184 -6 C 194.66666666667 -4.66666666667 204.66666666667 -2.66666666667 214 0 L 226 63 C 196.66666666667 57.66666666667 175.33333333333 57.66666666667 162 63 C 148 68.33333333333 141 80.66666666667 141 100 C 141 104.66666666667 141.33333333333 110.66666666667 142 118 C 142.66666666667 125.33333333333 144.66666666667 137.66666666667 148 155 L 236 649 L 150 649 Z M 59 526 L 47 460 L 293 460 L 305 526 L 59 526 Z M 26 348 L 16 296 L 256 296 L 266 348 L 26 348 Z"/>
    <path fill="#000000" stroke="none" transform="matrix(1 0 0 -1 16884 1270)" d="M 321 478 C 346.33333333333 478 368 473.66666666667 386 465 C 404 455.66666666667 419 443.33333333333 431 428 C 442.33333333333 412.66666666667 451 394.66666666667 457 374 C 462.33333333333 353.33333333333 465 331.33333333333 465 308 C 465 278 461 247.66666666667 453 217 C 444.33333333333 186.33333333333 431.66666666667 159 415 135 C 397.66666666667 110.33333333333 376.66666666667 90.33333333333 352 75 C 327.33333333333 59.66666666667 298.33333333333 52 265 52 L 254 -14 C 308 -14 354.33333333333 -3.66666666667 393 17 C 431.66666666667 37 463.33333333333 63 488 95 C 512 126.33333333333 530 161 542 199 C 553.33333333333 237 559 274 559 310 C 559 340 555 369.33333333333 547 398 C 538.33333333333 426 525 451 507 473 C 489 494.33333333333 465.66666666667 511.66666666667 437 525 C 408.33333333333 537.66666666667 373.33333333333 544 332 544 L 321 478 Z M 332 544 C 278 544 231.66666666667 534 193 514 C 154.33333333333 493.33333333333 123 467.33333333333 99 436 C 74.33333333333 404 56.33333333333 369 45 331 C 33 293 27 256 27 220 C 27 190 31.33333333333 161 40 133 C 48 104.33333333333 61 79.33333333333 79 58 C 97 36 120.66666666667 18.66666666667 150 6 C 178.66666666667 -7.33333333333 213.33333333333 -14 254 -14 L 265 52 C 240.33333333333 52 219 56.66666666667 201 66 C 182.33333333333 74.66666666667 167.33333333333 86.66666666667 156 102 C 144 117.33333333333 135.33333333333 135.33333333333 130 156 C 124 176.66666666667 121 198.66666666667 121 222 C 121 252 125.33333333333 282.33333333333 134 313 C 142 343.66666666667 154.66666666667 371.33333333333 172 396 C 188.66666666667 420 209.66666666667 439.66666666667 235 455 C 259.66666666667 470.33333333333 288.33333333333 478 321 478 L 332 544 Z M 334 690 L 247 580 L 310 580 L 377 675 L 343 675 L 376 580 L 440 580 L 393 690 L 334 690 Z"/>
</svg>
