<svg width="60145" height="5682" viewBox="0 0 60145 5682" xmlns="http://www.w3.org/2000/svg">
    <defs/>
    <path fill="#000000" stroke="none" transform="matrix(1 0 0 -1 0 3769)" d="M 979 1521 L 966 1574 L 883 1545 L 834 1674 L 770 1677 L 872 1903 L 876 1930 C 886 1968.66666666667 905 1998.33333333333 933 2019 C 961 2039.66666666667 1001.66666666667 2050 1055 2050 C 1133.66666666667 2050 1199.66666666667 2031 1253 1993 C 1306.33333333333 1955 1333 1906.33333333333 1333 1847 C 1333 1815.66666666667 1324.66666666667 1783 1308 1749 C 1291.33333333333 1715 1259 1666.33333333333 1211 1603 L 1211 1525 L 1421 1475 C 1443 1470.33333333333 1461.33333333333 1460 1476 1444 C 1490 1428 1499.66666666667 1409.66666666667 1505 1389 L 1659 860 L 1586 500 L 1586 300 L 1501 273 L 1501 245 L 1416 227 L 1416 383 L 1447 471 L 1477 859 L 1351 1236 L 1268 913 L 1243 588 L 1284 583 L 1284 194 L 1386 122 L 1559 92 L 1559 0 L 1377 0 L 1099 78 L 695 19 C 610.33333333333 6.33333333333 541 0 487 0 C 445 0 408.66666666667 9 378 27 L 282 0 L 100 0 L 100 92 L 273 122 L 301 142 L 300 153 L 300 164 C 300 218.66666666667 345.33333333333 267.33333333333 436 310 L 326 710 C 323.33333333333 718.66666666667 321 730.66666666667 319 746 C 316.33333333333 760.66666666667 314.66666666667 773 314 783 C 314 824.33333333333 326 859 350 887 C 373.33333333333 914.33333333333 404.33333333333 928 443 928 C 463 928 484 923.66666666667 506 915 C 528 905.66666666667 546.66666666667 892.33333333333 562 875 L 869 530 L 899 718 L 781 1228 L 247 1038 L 180 1081 L 163 1154 L 547 1633 L 623 1669 L 794 1669 L 822 1591 L 785 1517 L 620 1496 C 587.33333333333 1452 529.66666666667 1378 447 1274 L 682 1410 C 728 1448 790 1476.33333333333 868 1495 L 979 1521 Z M 937 720 L 903 518 L 1207 585 L 1233 923 L 1325 1274 L 1373 1271 L 1517 857 L 1481 467 L 1448 380 L 1448 265 L 1474 270 L 1474 301 L 1545 324 L 1545 487 L 1619 869 L 1481 1342 C 1471 1375.33333333333 1461 1399 1451 1413 C 1441 1426.33333333333 1429.33333333333 1435 1416 1439 L 1173 1500 L 1173 1595 L 1073 1680 C 1109.66666666667 1730.66666666667 1130.33333333333 1760.33333333333 1135 1769 C 1139 1777 1141 1783.33333333333 1141 1788 C 1141 1807.33333333333 1133.33333333333 1817 1118 1817 C 1103.33333333333 1817 1089.33333333333 1808.33333333333 1076 1791 L 901 1890 L 819 1704 L 858 1702 L 900 1589 L 992 1619 L 1023 1494 L 866 1460 C 836 1454 805.66666666667 1443.66666666667 775 1429 C 743.66666666667 1414.33333333333 721 1398.33333333333 707 1381 L 395 1216 L 381 1242 L 599 1529 L 760 1548 L 760 1550 L 780 1593 L 773 1613 L 765 1635 L 633 1635 L 578 1603 L 528 1540 L 208 1149 L 213 1107 L 262 1081 L 809 1281 L 937 720 Z M 1249 553 L 1232 553 L 885 479 L 434 270 L 520 163 L 1249 204 L 1249 553 Z M 1520 67 L 1372 85 L 1253 171 L 499 128 L 397 252 C 357.66666666667 231.33333333333 338 203 338 167 C 338 128.33333333333 351.33333333333 97.66666666667 378 75 C 404.66666666667 51.66666666667 442 40 490 40 C 522.66666666667 40 561 42 605 46 C 649 50 820.66666666667 72.33333333333 1120 113 L 1382 38 L 1520 38 L 1520 67 Z M 851 502 L 526 861 L 477 750 L 598 388 L 851 502 Z M 1186 1629 C 1228.66666666667 1685.66666666667 1257.66666666667 1730.66666666667 1273 1764 C 1287.66666666667 1797.33333333333 1295 1828 1295 1856 C 1295 1885.33333333333 1283.33333333333 1912 1260 1936 C 1236.66666666667 1959.33333333333 1206.33333333333 1978 1169 1992 C 1131.66666666667 2005.33333333333 1094.33333333333 2012 1057 2012 C 979 2012 930.66666666667 1982.66666666667 912 1924 L 1072 1832 C 1089.33333333333 1846 1105.66666666667 1853 1121 1853 C 1138.33333333333 1853 1152 1846.66666666667 1162 1834 C 1172 1820.66666666667 1177 1806.33333333333 1177 1791 C 1177 1777.66666666667 1166.66666666667 1756 1146 1726 L 1117 1690 L 1186 1629 Z M 495 876 C 481 884 463 888 441 888 C 414.33333333333 888 393 878.66666666667 377 860 C 360.33333333333 840.66666666667 352 815 352 783 C 352 777 352.66666666667 770.33333333333 354 763 C 354.66666666667 755.66666666667 393.66666666667 610 471 326 L 561 370 L 437 748 L 495 876 Z M 340 56 C 328 69.33333333333 318.33333333333 84.66666666667 311 102 L 287 85 L 139 67 L 139 38 L 277 38 L 340 56 Z M 951 1773 C 923.66666666667 1773 900 1781.66666666667 880 1799 C 884 1804.33333333333 891.66666666667 1809 903 1813 C 914.33333333333 1816.33333333333 924.66666666667 1818 934 1818 C 949.33333333333 1818 961.66666666667 1815 971 1809 C 980.33333333333 1803 989.66666666667 1792.66666666667 999 1778 L 951 1773 Z"/>
    <path fill="#000000" stroke="none" transform="matrix(1 0 0 -1 1759 3769)" d="M 1351 583 L 1351 194 L 1453 122 L 1626 92 L 1626 0 L 1444 0 L 1166 78 L 762 19 C 677.33333333333 6.33333333333 608 0 554 0 C 512 0 475.66666666667 9 445 27 L 349 0 L 167 0 L 167 92 L 340 122 L 368 142 L 367 153 L 367 164 C 367 218.66666666667 412.33333333333 267.33333333333 503 310 L 393 710 C 390.33333333333 718.66666666667 388 730.66666666667 386 746 C 383.33333333333 760.66666666667 381.66666666667 773 381 783 C 381 824.33333333333 393 859 417 887 C 440.33333333333 914.33333333333 471.33333333333 928 510 928 C 530 928 551 923.66666666667 573 915 C 595 905.66666666667 613.66666666667 892.33333333333 629 875 L 936 530 L 966 718 L 904 1214 L 668 1006 L 608 1003 L 106 1490 L 138 1534 L 219 1499 L 200 1551 L 100 1617 L 126 1668 L 274 1595 L 329 1522 L 357 1433 L 598 1206 L 725 1331 L 769 1378 C 828.33333333333 1443.33333333333 883.66666666667 1482.33333333333 935 1495 L 1046 1521 L 1033 1574 L 950 1545 L 901 1674 L 837 1677 L 939 1903 L 943 1930 C 953 1968.66666666667 972 1998.33333333333 1000 2019 C 1028 2039.66666666667 1068.66666666667 2050 1122 2050 C 1200.66666666667 2050 1266.66666666667 2031 1320 1993 C 1373.33333333333 1955 1400 1906.33333333333 1400 1847 C 1400 1815.66666666667 1391.66666666667 1783 1375 1749 C 1358.33333333333 1715 1326 1666.33333333333 1278 1603 L 1278 1525 L 1488 1475 C 1510 1470.33333333333 1528.33333333333 1460 1543 1444 C 1557 1428 1566.66666666667 1409.66666666667 1572 1389 L 1739 864 L 1670 780 L 1335 913 L 1310 588 L 1351 583 Z M 1658 821 L 1699 873 L 1548 1342 C 1538 1375.33333333333 1528 1399 1518 1413 C 1508 1426.33333333333 1496.33333333333 1435 1483 1439 L 1240 1500 L 1240 1595 L 1140 1680 C 1176.66666666667 1730.66666666667 1197.33333333333 1760.33333333333 1202 1769 C 1206 1777 1208 1783.33333333333 1208 1788 C 1208 1807.33333333333 1200.33333333333 1817 1185 1817 C 1170.33333333333 1817 1156.33333333333 1808.33333333333 1143 1791 L 968 1890 L 886 1704 L 925 1702 L 967 1589 L 1059 1619 L 1090 1494 L 933 1460 C 903 1454 856 1417.66666666667 792 1351 L 603 1159 L 337 1402 L 299 1509 L 254 1575 L 145 1633 L 138 1618 L 233 1554 L 263 1469 L 250 1458 L 155 1501 L 148 1491 L 615 1043 L 653 1043 L 932 1285 L 1004 720 L 970 518 L 1274 585 L 1300 923 L 1005 1050 L 1022 1101 L 1109 1093 L 1075 1137 L 977 1162 L 986 1219 L 1132 1202 L 1207 1149 L 1249 1070 L 1317 1047 L 1398 1274 L 1440 1271 L 1596 950 L 1585 932 L 1237 1039 L 1183 1128 L 1120 1176 L 1015 1192 L 1013 1175 L 1106 1150 L 1161 1078 L 1152 1064 L 1048 1075 L 1045 1064 L 1320 952 L 1658 821 Z M 1316 553 L 1299 553 L 952 479 L 501 270 L 587 163 L 1316 204 L 1316 553 Z M 1587 67 L 1439 85 L 1320 171 L 566 128 L 464 252 C 424.66666666667 231.33333333333 405 203 405 167 C 405 128.33333333333 418.33333333333 97.66666666667 445 75 C 471.66666666667 51.66666666667 509 40 557 40 C 589.66666666667 40 628 42 672 46 C 716 50 887.66666666667 72.33333333333 1187 113 L 1449 38 L 1587 38 L 1587 67 Z M 918 502 L 593 861 L 544 750 L 665 388 L 918 502 Z M 1253 1629 C 1295.66666666667 1685.66666666667 1324.66666666667 1730.66666666667 1340 1764 C 1354.66666666667 1797.33333333333 1362 1828 1362 1856 C 1362 1885.33333333333 1350.33333333333 1912 1327 1936 C 1303.66666666667 1959.33333333333 1273.33333333333 1978 1236 1992 C 1198.66666666667 2005.33333333333 1161.33333333333 2012 1124 2012 C 1046 2012 997.66666666667 1982.66666666667 979 1924 L 1139 1832 C 1156.33333333333 1846 1172.66666666667 1853 1188 1853 C 1205.33333333333 1853 1219 1846.66666666667 1229 1834 C 1239 1820.66666666667 1244 1806.33333333333 1244 1791 C 1244 1777.66666666667 1233.66666666667 1756 1213 1726 L 1184 1690 L 1253 1629 Z M 562 876 C 548 884 530 888 508 888 C 481.33333333333 888 460 878.66666666667 444 860 C 427.33333333333 840.66666666667 419 815 419 783 C 419 777 419.66666666667 770.33333333333 421 763 C 421.66666666667 755.66666666667 460.66666666667 610 538 326 L 628 370 L 504 748 L 562 876 Z M 1551 980 L 1418 1236 L 1352 1038 L 1551 980 Z M 407 56 C 395 69.33333333333 385.33333333333 84.66666666667 378 102 L 354 85 L 206 67 L 206 38 L 344 38 L 407 56 Z M 1066 1778 L 1018 1773 C 990.66666666667 1773 967 1781.66666666667 947 1799 C 951 1804.33333333333 958.66666666667 1809 970 1813 C 981.33333333333 1816.33333333333 991.66666666667 1818 1001 1818 C 1016.33333333333 1818 1028.66666666667 1815 1038 1809 C 1047.33333333333 1803 1056.66666666667 1792.66666666667 1066 1778 Z"/>
    <path fill="#000000" stroke="none" transform="matrix(1 0 0 -1 3598 3769)" d="M 2019 784 C 1958.33333333333 641.33333333333 1912.66666666667 489.33333333333 1882 328 C 1850.66666666667 166 1830.33333333333 -19.66666666667 1821 -229 L 1778 -229 C 1751.33333333333 14.33333333333 1730 186.66666666667 1714 288 C 1697.33333333333 389.33333333333 1678.33333333333 479 1657 557 C 1635.66666666667 634.33333333333 1609.66666666667 710 1579 784 C 1637 770.66666666667 1701.33333333333 764 1772 764 C 1712 1116 1648.33333333333 1363.66666666667 1581 1507 C 1666.33333333333 1495 1742.66666666667 1489 1810 1489 C 1879.33333333333 1489 1949.66666666667 1495 2021 1507 C 1919.66666666667 1258.33333333333 1855 1010.66666666667 1827 764 C 1895 766.66666666667 1959 773.33333333333 2019 784 Z M 647 1507 C 517.66666666667 1034.33333333333 453 455.66666666667 453 -229 L 399 -229 C 399 455.66666666667 334.33333333333 1034.33333333333 205 1507 C 273.66666666667 1491 345.33333333333 1483 420 1483 C 493.33333333333 1483 569 1491 647 1507 Z M 1526 616 C 1502 585.33333333333 1474.66666666667 525.33333333333 1444 436 C 1412.66666666667 346.66666666667 1387 252 1367 152 C 1347 51.33333333333 1337 -41.66666666667 1337 -127 L 1292 -127 C 1292 -44.33333333333 1282.66666666667 46.66666666667 1264 146 C 1245.33333333333 245.33333333333 1221 338.66666666667 1191 426 C 1160.33333333333 512.66666666667 1130.66666666667 574 1102 610 C 1174.66666666667 601.33333333333 1236.66666666667 596 1288 594 C 1279.33333333333 706 1257 816.33333333333 1221 925 C 1184.33333333333 1033.66666666667 1144.66666666667 1115 1102 1169 C 1208.66666666667 1158.33333333333 1279 1153 1313 1153 C 1381 1153 1452 1160.66666666667 1526 1176 C 1484 1119.33333333333 1444.66666666667 1035.33333333333 1408 924 C 1370.66666666667 812.66666666667 1347.66666666667 702.66666666667 1339 594 C 1405 597.33333333333 1467.33333333333 604.66666666667 1526 616 Z M 1028 1169 L 981 1040 C 930.33333333333 901.33333333333 895 743 875 565 C 854.33333333333 386.33333333333 844 155.66666666667 844 -127 L 791 -127 C 791 150.33333333333 781 378.66666666667 761 558 C 741 736.66666666667 705 897.33333333333 653 1040 L 606 1169 C 676.66666666667 1153 745 1145 811 1145 C 877.66666666667 1145 950 1153 1028 1169 Z"/>
    <path fill="#000000" stroke="none" transform="matrix(1 0 0 -1 5824 3769)" d="M 1284 1507 C 1186 1267 1122.66666666667 1019.33333333333 1094 764 C 1160.66666666667 766.66666666667 1223.33333333333 773.33333333333 1282 784 C 1230 658 1189.66666666667 512 1161 346 C 1132.33333333333 179.33333333333 1113.33333333333 -12.33333333333 1104 -229 L 1051 -229 C 1021.66666666667 40.33333333333 992.33333333333 244.33333333333 963 383 C 933.66666666667 521 892.66666666667 654.66666666667 840 784 C 912.66666666667 770.66666666667 978.66666666667 764 1038 764 C 980 1105.33333333333 914.66666666667 1353 842 1507 C 930.66666666667 1495 1009.66666666667 1489 1079 1489 C 1157.66666666667 1489 1226 1495 1284 1507 Z M 647 1507 C 517.66666666667 1034.33333333333 453 455.66666666667 453 -229 L 399 -229 C 399 455.66666666667 334.33333333333 1034.33333333333 205 1507 C 273.66666666667 1491 345.33333333333 1483 420 1483 C 493.33333333333 1483 569 1491 647 1507 Z"/>
    <path fill="#000000" stroke="none" transform="matrix(1 0 0 -1 7313 3769)" d="M 774 211 L 1200 516 L 1305 367 L 774 0 L 590 0 L 590 1253 L 141 932 L 41 1075 L 590 1462 L 774 1462 L 774 211 Z"/>
    <path fill="#000000" stroke="none" transform="matrix(1 0 0 -1 8659 3769)" d="M 571 1462 L 756 1462 L 1305 1075 L 1204 932 L 756 1253 L 756 0 L 571 0 L 41 367 L 145 516 L 571 211 L 571 1462 Z"/>
    <path fill="#000000" stroke="none" transform="matrix(1 0 0 -1 10005 3769)" d="M 1471 -143 L 1471 688 L 1652 688 L 1652 -295 L 30 -295 L 30 -143 L 1471 -143 Z"/>
    <path fill="#000000" stroke="none" transform="matrix(1 0 0 -1 11831 3769)" d="M 30 152 L 505 152 L 300 1098 L 486 1098 L 691 152 L 1088 152 L 1088 1098 L 1269 1098 L 1269 0 L 30 0 L 30 152 Z"/>
    <path fill="#000000" stroke="none" transform="matrix(1 0 0 -1 13274 3769)" d="M 1233 965 C 1199 965 1162 959.66666666667 1122 949 C 1082 938.33333333333 1036.66666666667 923 986 903 C 878.66666666667 861 763.66666666667 840 641 840 C 551 840 471 855 401 885 C 331 914.33333333333 268.33333333333 962.66666666667 213 1030 L 332 1137 C 400 1039.66666666667 503 991 641 991 C 745 991 851.33333333333 1012 960 1054 C 1068.66666666667 1095.33333333333 1161 1116 1237 1116 C 1395 1116 1514.33333333333 1072.66666666667 1595 986 C 1675.66666666667 899.33333333333 1716 770.66666666667 1716 600 C 1716 401.33333333333 1656.66666666667 251.66666666667 1538 151 C 1418.66666666667 50.33333333333 1244.66666666667 0 1016 0 L 31 0 L 31 152 L 1018 152 C 1198.66666666667 152 1329.33333333333 188.66666666667 1410 262 C 1490 334.66666666667 1530 452 1530 614 C 1530 728 1505.33333333333 815 1456 875 C 1406 935 1331.66666666667 965 1233 965 Z"/>
    <path fill="#000000" stroke="none" transform="matrix(1 0 0 -1 15060 3769)" d="M 842 152 L 332 1098 L 537 1098 L 1028 152 L 1176 152 L 1176 1098 L 1356 1098 L 1356 0 L 10 0 L 10 152 L 842 152 Z"/>
    <path fill="#000000" stroke="none" transform="matrix(1 0 0 -1 16590 3769)" d="M 1745 322 C 1841 322 1909 343 1949 385 C 1989 426.33333333333 2009 494.66666666667 2009 590 L 2009 877 L 2152 877 C 2179.33333333333 757.66666666667 2193 661.33333333333 2193 588 C 2193 440.66666666667 2158.66666666667 334.66666666667 2090 270 C 2021.33333333333 204.66666666667 1909 172 1753 172 C 1669 172 1600 188 1546 220 C 1492 251.33333333333 1445 306.33333333333 1405 385 C 1365.66666666667 307.66666666667 1318.66666666667 253 1264 221 C 1209.33333333333 188.33333333333 1138.33333333333 172 1051 172 C 967 172 898.66666666667 188.33333333333 846 221 C 792.66666666667 253 747 307.66666666667 709 385 C 668.33333333333 305.66666666667 620.66666666667 250.33333333333 566 219 C 511.33333333333 187.66666666667 441.33333333333 172 356 172 C 241.33333333333 172 136.33333333333 179 41 193 L 41 322 L 346 322 C 442 322 511 343.33333333333 553 386 C 595 428.66666666667 616 500 616 600 L 616 877 L 760 877 C 787.33333333333 755.66666666667 801 666.66666666667 801 610 C 801 506 820 432 858 388 C 895.33333333333 344 959 322 1049 322 C 1145 322 1213 343 1253 385 C 1293 426.33333333333 1313 494.66666666667 1313 590 L 1313 877 L 1456 877 C 1483.33333333333 767.66666666667 1497 676.66666666667 1497 604 C 1497 501.33333333333 1515.66666666667 428.66666666667 1553 386 C 1589.66666666667 343.33333333333 1653.66666666667 322 1745 322 Z"/>
    <path fill="#000000" stroke="none" transform="matrix(1 0 0 -1 19449 3769)" d="M 41 322 L 348 322 C 443.33333333333 322 512.33333333333 343 555 385 C 597 427 618 498 618 598 L 618 877 L 762 877 C 789.33333333333 755.66666666667 803 666 803 608 C 803 505.33333333333 822 432 860 388 C 897.33333333333 344 961 322 1051 322 C 1147 322 1215 343 1255 385 C 1295 426.33333333333 1315 494.66666666667 1315 590 L 1315 877 L 1458 877 C 1485.33333333333 757.66666666667 1499 661.33333333333 1499 588 C 1499 440.66666666667 1464.66666666667 334.66666666667 1396 270 C 1327.33333333333 204.66666666667 1215 172 1059 172 C 975.66666666667 172 907.33333333333 187.33333333333 854 218 C 800 248.66666666667 752.33333333333 304.33333333333 711 385 C 670.33333333333 305.66666666667 622.66666666667 250.33333333333 568 219 C 513.33333333333 187.66666666667 443.33333333333 172 358 172 C 242 172 136.33333333333 179 41 193 L 41 322 Z"/>
    <path fill="#000000" stroke="none" transform="matrix(1 0 0 -1 21081 3769)" d="M 559 1518 L 175 1303 L 100 1437 L 729 1790 L 729 0 L 559 0 L 559 1518 Z"/>
    <path fill="#000000" stroke="none" transform="matrix(1 0 0 -1 22030 3769)" d="M 1160 1760 L 1160 1415 C 1160 1297 1128 1204.66666666667 1064 1138 C 999.33333333333 1070.66666666667 903 1031 775 1019 L 775 0 L 605 0 L 605 1020 C 477 1032 381 1071.33333333333 317 1138 C 252.33333333333 1204.66666666667 220 1297 220 1415 L 220 1760 L 390 1760 L 390 1422 C 390 1336 414.66666666667 1272.66666666667 464 1232 C 512.66666666667 1191.33333333333 588 1171 690 1171 C 792.66666666667 1171 868.33333333333 1191.33333333333 917 1232 C 965.66666666667 1272 990 1335.33333333333 990 1422 L 990 1760 L 1160 1760 Z"/>
    <path fill="#000000" stroke="none" transform="matrix(1 0 0 -1 23410 3769)" d="M 1132 0 L 618 0 C 458.66666666667 0 334.33333333333 36.66666666667 245 110 C 155 183.33333333333 110 285.33333333333 110 416 C 110 512 136.66666666667 589.66666666667 190 649 C 242.66666666667 707.66666666667 325.33333333333 746.66666666667 438 766 L 438 776 C 347.33333333333 792.66666666667 278.33333333333 829.33333333333 231 886 C 183.66666666667 942 160 1013.33333333333 160 1100 C 160 1224.66666666667 203.33333333333 1316.33333333333 290 1375 C 376.66666666667 1433 518.33333333333 1462 715 1462 L 1132 1462 L 1132 0 Z M 948 1304 L 706 1304 C 582.66666666667 1304 492.66666666667 1286.66666666667 436 1252 C 378.66666666667 1216.66666666667 350 1159 350 1079 C 350 993.66666666667 375.66666666667 932.66666666667 427 896 C 478.33333333333 859.33333333333 562 841 678 841 L 948 841 L 948 1304 Z M 667 685 C 544.33333333333 685 453.66666666667 664 395 622 C 336.33333333333 580 307 516 307 430 C 307 338 335.66666666667 269.66666666667 393 225 C 449.66666666667 180.33333333333 536.33333333333 158 653 158 L 948 158 L 948 685 L 667 685 Z"/>
    <path fill="#000000" stroke="none" transform="matrix(1 0 0 -1 24742 3769)" d="M 1136 0 L 928 557 L 255 130 L 206 0 L 20 0 L 591 1468 L 757 1468 L 1327 0 L 1136 0 Z M 671 1278 C 647.66666666667 1185.33333333333 626.66666666667 1112.33333333333 608 1059 L 351 383 L 870 712 L 741 1059 L 671 1278 Z"/>
    <path fill="#000000" stroke="none" transform="matrix(1 0 0 -1 26621 3769)" d="M 881 558 C 881 607.33333333333 871.66666666667 673.33333333333 853 756 C 653.66666666667 740 425.66666666667 732 169 732 C 109.66666666667 732 80 762.66666666667 80 824 C 80 864.66666666667 103.66666666667 910.33333333333 151 961 C 221.66666666667 1038.33333333333 292 1113.66666666667 362 1187 C 431.33333333333 1260.33333333333 501.33333333333 1327.66666666667 572 1389 L 608 1421 C 645.33333333333 1455 686.66666666667 1472 732 1472 C 762.66666666667 1472 788.33333333333 1465.33333333333 809 1452 C 829 1438.66666666667 845 1416.66666666667 857 1386 C 877.66666666667 1334.66666666667 905.66666666667 1250.66666666667 941 1134 C 975.66666666667 1017.33333333333 1007 903.33333333333 1035 792 C 1062.33333333333 680.66666666667 1076 597.33333333333 1076 542 C 1076 452.66666666667 1016.33333333333 358.66666666667 897 260 C 777.66666666667 160.66666666667 608.66666666667 66.66666666667 390 -22 L 313 127 C 397 156.33333333333 491.33333333333 200.66666666667 596 260 C 700.66666666667 319.33333333333 774.33333333333 373 817 421 C 859.66666666667 468.33333333333 881 514 881 558 Z M 816 912 C 782 1034 744 1157 702 1281 C 644 1239.66666666667 579.33333333333 1184.33333333333 508 1115 C 436.66666666667 1045 371 974 311 902 L 315 893 L 365 892 C 479 892 629.33333333333 898.66666666667 816 912 Z"/>
    <path fill="#000000" stroke="none" transform="matrix(1 0 0 -1 27897 3769)" d="M 645 1484 C 705 1348.66666666667 754 1230.66666666667 792 1130 C 946.66666666667 1230.66666666667 1091.33333333333 1320.33333333333 1226 1399 L 1300 1250 C 1148 1164 997.33333333333 1073.66666666667 848 979 C 893.33333333333 854.33333333333 934.33333333333 726.66666666667 971 596 C 1167 604 1362.33333333333 614 1557 626 L 1580 464 C 1385.33333333333 453.33333333333 1196.66666666667 444.66666666667 1014 438 C 1045.33333333333 314 1074 177.66666666667 1100 29 L 924 -25 C 894.66666666667 134.33333333333 861 286.66666666667 823 432 C 588.33333333333 424.66666666667 401.66666666667 421 263 421 C 199.66666666667 421 153.33333333333 431.66666666667 124 453 C 94.66666666667 473.66666666667 80 505 80 547 C 80 581.66666666667 90.66666666667 614.33333333333 112 645 C 132.66666666667 675.66666666667 171.33333333333 710.66666666667 228 750 C 384.66666666667 858.66666666667 520 950.66666666667 634 1026 C 594.66666666667 1132 544 1258.66666666667 482 1406 L 645 1484 Z M 274 576 C 439.33333333333 578.66666666667 608 582.66666666667 780 588 C 754.66666666667 674 724 769.66666666667 688 875 C 546 781.66666666667 406.66666666667 685 270 585 L 274 576 Z"/>
    <path fill="#000000" stroke="none" transform="matrix(1 0 0 -1 29577 3769)" d="M 1312 1482 C 1318.66666666667 1400.66666666667 1322 1305.33333333333 1322 1196 C 1322 988.66666666667 1301.66666666667 821 1261 693 C 1220.33333333333 565 1157.66666666667 455.33333333333 1073 364 C 987.66666666667 272.66666666667 874.33333333333 192.66666666667 733 124 C 591 54.66666666667 419.33333333333 -3.33333333333 218 -50 L 159 111 C 314.33333333333 149.66666666667 446.66666666667 192.66666666667 556 240 C 664.66666666667 287.33333333333 755.66666666667 339 829 395 C 901.66666666667 450.33333333333 960 512.66666666667 1004 582 C 1047.33333333333 651.33333333333 1079.66666666667 729.66666666667 1101 817 C 1122.33333333333 904.33333333333 1135.66666666667 1034.33333333333 1141 1207 C 1059 1135.66666666667 966.66666666667 1080.66666666667 864 1042 C 761.33333333333 1002.66666666667 659.66666666667 983 559 983 C 312.33333333333 983 159.33333333333 1132 100 1430 L 270 1482 C 289.33333333333 1397.33333333333 312 1331 338 1283 C 364 1235 395.33333333333 1200.66666666667 432 1180 C 468 1158.66666666667 519 1148 585 1148 C 636.33333333333 1148 701 1161 779 1187 C 856.33333333333 1213 928.66666666667 1248.33333333333 996 1293 C 1062.66666666667 1337 1110.33333333333 1382.33333333333 1139 1429 L 1312 1482 Z"/>
    <path fill="#000000" stroke="none" transform="matrix(1 0 0 -1 31059 3769)" d="M 1597 1375 C 1491.66666666667 1218.33333333333 1410 1050 1352 870 C 1294 690 1265 514.33333333333 1265 343 C 1265 198.33333333333 1274 94.33333333333 1292 31 L 1163 -50 C 1045 189.33333333333 930 403 818 591 C 705.33333333333 779 599 944.33333333333 499 1087 C 503.66666666667 1046.33333333333 506 1014.33333333333 506 991 C 506 891 481.66666666667 787.33333333333 433 680 C 383.66666666667 572 317 478.33333333333 233 399 L 100 518 C 168 576 223 655 265 755 C 307 855 328 960.66666666667 328 1072 C 328 1217.33333333333 306.66666666667 1327 264 1401 L 404 1494 C 668.66666666667 1168 896 819 1086 447 C 1094 612.33333333333 1132.66666666667 789.66666666667 1202 979 C 1270.66666666667 1168.33333333333 1358.33333333333 1336 1465 1482 L 1597 1375 Z"/>
    <path fill="#000000" stroke="none" transform="matrix(1 0 0 -1 32756 3769)" d="M 1288 1462 L 1211 710 C 1263.66666666667 714.66666666667 1326 718 1398 720 L 1374 565 L 1193 555 C 1174.33333333333 437 1134.66666666667 334.66666666667 1074 248 C 1013.33333333333 160.66666666667 933.33333333333 93.66666666667 834 47 C 734 0.33333333333 622.33333333333 -23 499 -23 C 372.33333333333 -23 277 -0.66666666667 213 44 C 149 88 117 158 117 254 C 117 356.66666666667 195.33333333333 445.66666666667 352 521 C 508.66666666667 595.66666666667 731.33333333333 652 1020 690 L 1034 813 C 984.66666666667 789 930.66666666667 777 872 777 C 772 777 695 809 641 873 C 573 809 489.33333333333 777 390 777 C 296.66666666667 777 225 802 175 852 C 125 901.33333333333 100 973.66666666667 100 1069 L 103 1137 L 136 1462 L 320 1462 L 290 1164 L 282 1074 C 282 1030 293 996.33333333333 315 973 C 337 949 368.33333333333 937 409 937 C 513.66666666667 937 571.66666666667 993 583 1105 L 620 1462 L 804 1462 L 773 1152 L 769 1085 C 769 1034.33333333333 780 997 802 973 C 823.33333333333 949 856.33333333333 937 901 937 C 954.33333333333 937 993.66666666667 951.66666666667 1019 981 C 1043.66666666667 1009.66666666667 1059 1051 1065 1105 L 1104 1462 L 1288 1462 Z M 502 137 C 634.66666666667 137 743.33333333333 171.33333333333 828 240 C 912 308 968.33333333333 406 997 534 C 775.66666666667 503.33333333333 604.33333333333 463.66666666667 483 415 C 361.66666666667 365.66666666667 301 311.33333333333 301 252 C 301 208.66666666667 317.33333333333 178.66666666667 350 162 C 382.66666666667 145.33333333333 433.33333333333 137 502 137 Z"/>
    <path fill="#000000" stroke="none" transform="matrix(1 0 0 -1 34716 3769)" d="M 837 1198 C 944.33333333333 1101.33333333333 1024.66666666667 1002 1078 900 C 1130.66666666667 797.33333333333 1157 686.33333333333 1157 567 C 1157 451 1133 348.33333333333 1085 259 C 1036.33333333333 169.66666666667 967.33333333333 101 878 53 C 788 4.33333333333 684 -20 566 -20 C 414 -20 295 18 209 94 C 123 170 80 274.66666666667 80 408 C 80 546.66666666667 117.33333333333 680.33333333333 192 809 C 266.66666666667 937.66666666667 385.66666666667 1067.33333333333 549 1198 C 488.33333333333 1243.33333333333 418 1291.66666666667 338 1343 L 435 1490 C 535.66666666667 1428.66666666667 625.66666666667 1368 705 1308 C 787.66666666667 1362 890.66666666667 1422.66666666667 1014 1490 L 1081 1343 C 991 1293.66666666667 909.66666666667 1245.33333333333 837 1198 Z M 682 1092 C 538.66666666667 984.66666666667 435 876 371 766 C 306.33333333333 656 274 541.33333333333 274 422 C 274 331.33333333333 300.66666666667 261.66666666667 354 213 C 406.66666666667 164.33333333333 482.66666666667 140 582 140 C 704.66666666667 140 799 177 865 251 C 930.33333333333 325 963 430.33333333333 963 567 C 963 668.33333333333 940.33333333333 760.33333333333 895 843 C 849.66666666667 925.66666666667 778.66666666667 1008.66666666667 682 1092 Z"/>
    <path fill="#000000" stroke="none" transform="matrix(1 0 0 -1 36013 3769)" d="M 307 1577 C 386.33333333333 1534.33333333333 491.33333333333 1499 622 1471 C 752.66666666667 1443 901 1422.33333333333 1067 1409 C 1063 1461.66666666667 1057 1517.66666666667 1049 1577 C 1129 1533 1236.66666666667 1497 1372 1469 C 1507.33333333333 1441 1662.33333333333 1420.33333333333 1837 1407 L 1837 1360 C 1667 1333.33333333333 1518.66666666667 1303 1392 1269 C 1264.66666666667 1235 1153 1190.33333333333 1057 1135 C 1059.66666666667 1161.66666666667 1062.33333333333 1191.33333333333 1065 1224 C 1067 1256 1068 1285.66666666667 1068 1313 C 1068 1326.33333333333 1067.66666666667 1340 1067 1354 C 876.33333333333 1322.66666666667 724 1290.66666666667 610 1258 C 496 1224.66666666667 398.33333333333 1183.66666666667 317 1135 C 323.66666666667 1204.33333333333 327.33333333333 1275 328 1347 L 328 1356 C 328 1424.66666666667 321 1498.33333333333 307 1577 Z M 1620 1081 C 1569.33333333333 948.33333333333 1532 789.66666666667 1508 605 C 1483.33333333333 420.33333333333 1463.33333333333 151.66666666667 1448 -201 L 1395 -201 C 1369 97 1347.66666666667 308.66666666667 1331 434 C 1313.66666666667 558.66666666667 1295.66666666667 665.66666666667 1277 755 C 1257.66666666667 843.66666666667 1224.66666666667 952.33333333333 1178 1081 C 1213.33333333333 1074.33333333333 1248.66666666667 1069.33333333333 1284 1066 C 1318.66666666667 1062.66666666667 1354 1061 1390 1061 C 1426 1061 1463 1062.66666666667 1501 1066 C 1539 1068.66666666667 1578.66666666667 1073.66666666667 1620 1081 Z M 930 1081 C 878 943.66666666667 840 778.66666666667 816 586 C 791.33333333333 392.66666666667 772.66666666667 130.33333333333 760 -201 L 707 -201 C 681 79.66666666667 659.33333333333 288.33333333333 642 425 C 624 561 604.66666666667 675.33333333333 584 768 C 562.66666666667 860 530.33333333333 964.33333333333 487 1081 C 557 1067.66666666667 628.33333333333 1060.66666666667 701 1060 C 772.33333333333 1060 848.66666666667 1067 930 1081 Z"/>
    <path fill="#000000" stroke="none" transform="matrix(1 0 0 -1 38106 3769)" d="M 836 1081 C 782 939.66666666667 743.33333333333 775.33333333333 720 588 C 696.66666666667 400.66666666667 678.66666666667 137.66666666667 666 -201 L 612 -201 C 588 74.33333333333 567.66666666667 278 551 410 C 533.66666666667 542 514.33333333333 656.66666666667 493 754 C 471.66666666667 851.33333333333 438.33333333333 960.33333333333 393 1081 C 428.33333333333 1074.33333333333 463.66666666667 1069.33333333333 499 1066 C 533.66666666667 1062.66666666667 569.33333333333 1061 606 1061 C 642 1061 679 1062.66666666667 717 1066 C 755 1068.66666666667 794.66666666667 1073.66666666667 836 1081 Z M 336 1577 C 481.33333333333 1526.33333333333 679.66666666667 1488.66666666667 931 1464 C 1181.66666666667 1438.66666666667 1517.66666666667 1419.66666666667 1939 1407 L 1939 1360 C 1662.33333333333 1340 1424.66666666667 1320.33333333333 1226 1301 C 1026.66666666667 1281.66666666667 859.33333333333 1260.33333333333 724 1237 C 588.66666666667 1213 459.33333333333 1179 336 1135 C 346.66666666667 1204.33333333333 352.66666666667 1275 354 1347 L 354 1362 C 354 1429.33333333333 348 1501 336 1577 Z M 1890 1081 C 1838 943.66666666667 1800 778.66666666667 1776 586 C 1751.33333333333 392.66666666667 1732.66666666667 130.33333333333 1720 -201 L 1667 -201 C 1641 83.66666666667 1620.66666666667 285.66666666667 1606 405 C 1590.66666666667 524.33333333333 1572.66666666667 634.33333333333 1552 735 C 1531.33333333333 835.66666666667 1496.66666666667 951 1448 1081 C 1482.66666666667 1074.33333333333 1517.66666666667 1069.33333333333 1553 1066 C 1587.66666666667 1062.66666666667 1623 1061 1659 1061 C 1695 1061 1732.33333333333 1062.66666666667 1771 1066 C 1809 1068.66666666667 1848.66666666667 1073.66666666667 1890 1081 Z M 1360 1081 C 1312.66666666667 951 1276.33333333333 795.33333333333 1251 614 C 1225.66666666667 432.66666666667 1205.33333333333 161 1190 -201 L 1137 -201 C 1103.66666666667 159 1077.66666666667 400.66666666667 1059 524 C 1039.66666666667 647.33333333333 1020 748 1000 826 C 980 904 952.66666666667 989 918 1081 C 953.33333333333 1074.33333333333 988.66666666667 1069.33333333333 1024 1066 C 1058.66666666667 1062.66666666667 1094 1061 1130 1061 C 1166 1061 1203 1062.66666666667 1241 1066 C 1279 1068.66666666667 1318.66666666667 1073.66666666667 1360 1081 Z"/>
    <path fill="#000000" stroke="none" transform="matrix(1 0 0 -1 40381 3769)" d="M 1300 1507 C 1266 1414.33333333333 1235.33333333333 1285.33333333333 1208 1120 C 1180 954.66666666667 1157.66666666667 774 1141 578 C 1338.33333333333 546 1559.33333333333 522 1804 506 L 1804 459 C 1520.66666666667 424.33333333333 1296.66666666667 389.33333333333 1132 354 C 966.66666666667 318 835.66666666667 278.66666666667 739 236 C 749 307.33333333333 754 373 754 433 C 627.33333333333 402.33333333333 521 368.33333333333 435 331 C 348.33333333333 293.66666666667 273.66666666667 249.66666666667 211 199 C 221 292.33333333333 226.33333333333 368.66666666667 227 428 C 227 514.66666666667 219.66666666667 597.33333333333 205 676 C 290.33333333333 612.66666666667 401.66666666667 562.66666666667 539 526 C 479.66666666667 992 409.33333333333 1314.33333333333 328 1493 C 406 1483 476.33333333333 1478 539 1478 C 613 1478.66666666667 689.33333333333 1488.33333333333 768 1507 C 736 1421.66666666667 705.33333333333 1294.66666666667 676 1126 C 646 957.33333333333 622 752 604 510 C 649.33333333333 499.33333333333 699 490.33333333333 753 483 C 750.33333333333 548.33333333333 741 612.66666666667 725 676 C 801.66666666667 646.66666666667 914 618.66666666667 1062 592 C 1005.33333333333 1016.66666666667 938 1317 860 1493 C 938 1483 1008.66666666667 1478 1072 1478 C 1146.66666666667 1478.66666666667 1222.66666666667 1488.33333333333 1300 1507 Z"/>
    <path fill="#000000" stroke="none" transform="matrix(1 0 0 -1 42390 3769)" d="M 725 676 C 822.33333333333 640 966.33333333333 606.66666666667 1157 576 C 1347 545.33333333333 1562.66666666667 522 1804 506 L 1804 459 C 1520.66666666667 424.33333333333 1296.66666666667 389.33333333333 1132 354 C 966.66666666667 318 835.66666666667 278.66666666667 739 236 C 749 307.33333333333 754 373 754 433 C 627.33333333333 402.33333333333 521 368.33333333333 435 331 C 348.33333333333 293.66666666667 273.66666666667 249.66666666667 211 199 C 221 292.33333333333 226.33333333333 368.66666666667 227 428 C 227 514.66666666667 219.66666666667 597.33333333333 205 676 C 262.33333333333 632 340.33333333333 593 439 559 C 537 524.33333333333 641.66666666667 499 753 483 C 750.33333333333 548.33333333333 741 612.66666666667 725 676 Z"/>
    <path fill="#000000" stroke="none" transform="matrix(1 0 0 -1 44931 3769)" d="M 773 1462 L 1361 862 L 1244 748 L 793 1209 L 793 0 L 609 0 L 609 1211 L 157 748 L 40 862 L 628 1462 L 773 1462 Z"/>
    <path fill="#000000" stroke="none" transform="matrix(1 0 0 -1 46332 3769)" d="M 384 1462 L 1150 705 L 1150 549 L 384 549 L 384 0 L 200 0 L 200 1462 L 384 1462 Z M 384 1235 L 384 705 L 921 705 L 384 1235 Z"/>
    <path fill="#000000" stroke="none" transform="matrix(1 0 0 -1 47563 3769)" d="M 135 0 C 144.33333333333 178.66666666667 167 368.66666666667 203 570 C 239 771.33333333333 283.33333333333 953.33333333333 336 1116 L 266 1116 L 266 1245 L 381 1245 C 490.33333333333 1521 605 1659 725 1659 C 788.33333333333 1659 850 1624 910 1554 C 969.33333333333 1484 1025 1381 1077 1245 L 1194 1245 L 1194 1116 L 1124 1116 C 1174.66666666667 960 1217.33333333333 781 1252 579 C 1286 376.33333333333 1308.33333333333 183.33333333333 1319 0 L 1174 0 C 1156 262.66666666667 1119.66666666667 518.66666666667 1065 768 L 383 768 C 356.33333333333 641.33333333333 333.66666666667 509.66666666667 315 373 C 296.33333333333 235.66666666667 284.33333333333 111.33333333333 279 0 L 135 0 Z M 473 1116 C 449 1033.33333333333 429.33333333333 960.33333333333 414 897 L 1036 897 C 1016 980.33333333333 995.66666666667 1053.33333333333 975 1116 L 473 1116 Z M 725 1516 C 691 1516 656 1493 620 1447 C 584 1401 548.66666666667 1333.66666666667 514 1245 L 936 1245 C 901.33333333333 1333.66666666667 866 1401 830 1447 C 794 1493 759 1516 725 1516 Z"/>
    <path fill="#000000" stroke="none" transform="matrix(1 0 0 -1 49017 3769)" d="M 1217 676 L 1073 676 L 1073 1116 L 780 1116 L 780 0 L 637 0 L 637 1116 L 346 1116 L 346 676 L 203 676 L 203 1638 L 346 1638 L 346 1245 L 1073 1245 L 1073 1638 L 1217 1638 L 1217 676 Z"/>
    <path fill="#000000" stroke="none" transform="matrix(1 0 0 -1 50436 3769)" d="M 1319 41 C 1328.33333333333 -9.66666666667 1340.66666666667 -61.66666666667 1356 -115 L 143 -115 L 143 1372 L 295 1372 L 295 920 L 561 920 L 561 1372 L 1253 1372 C 1212.33333333333 1187.33333333333 1192 1010.66666666667 1192 842 C 1192 672.66666666667 1212.33333333333 495.66666666667 1253 311 L 561 311 L 561 764 L 295 764 L 295 41 L 1319 41 Z M 713 1217 L 713 467 L 1069 467 C 1049.66666666667 577.66666666667 1040 702.66666666667 1040 842 C 1040 981.33333333333 1049.66666666667 1106.33333333333 1069 1217 L 713 1217 Z"/>
    <path fill="#000000" stroke="none" transform="matrix(1 0 0 -1 52426 3769)" d="M 633 168 L 295 168 L 295 -115 L 143 -115 L 143 1372 L 1163 1372 L 1163 1217 L 295 1217 L 295 848 L 1163 848 L 1163 692 L 295 692 L 295 324 L 573 324 C 793.66666666667 324 990.33333333333 288.33333333333 1163 217 L 1163 49 C 1047 103.66666666667 920.66666666667 139.33333333333 784 156 L 784 -115 L 633 -115 L 633 168 Z"/>
    <path fill="#000000" stroke="none" transform="matrix(1 0 0 -1 53733 3769)" d="M 1097 486 L 1097 155 L 1731 155 L 1731 0 L 100 0 L 100 155 L 947 155 L 947 486 L 409 486 L 409 613 C 419.66666666667 621 437.66666666667 638.33333333333 463 665 C 487.66666666667 691.66666666667 589 809.66666666667 767 1019 L 880 946 L 754 796 C 696 727.33333333333 643.66666666667 674 597 636 L 1129 636 C 1229 636 1302.33333333333 641.33333333333 1349 652 C 1395 662.66666666667 1428 680.66666666667 1448 706 C 1467.33333333333 730.66666666667 1477 769 1477 821 C 1477 865.66666666667 1472.33333333333 920.66666666667 1463 986 L 1605 1023 C 1618.33333333333 969.66666666667 1625 908 1625 838 C 1625 712.66666666667 1589.33333333333 622.66666666667 1518 568 C 1446.66666666667 513.33333333333 1332.33333333333 486 1175 486 L 1097 486 Z"/>
    <path fill="#000000" stroke="none" transform="matrix(1 0 0 -1 55564 3769)" d="M 140 242 C 140 319.33333333333 158.66666666667 391.33333333333 196 458 C 233.33333333333 524.66666666667 284.66666666667 577 350 615 C 414.66666666667 653 486.33333333333 672 565 672 C 639.66666666667 672 707 654.33333333333 767 619 C 826.33333333333 583.66666666667 872.33333333333 535.66666666667 905 475 C 937.66666666667 414.33333333333 954 346.66666666667 954 272 C 954 163.33333333333 916 75.33333333333 840 8 C 763.33333333333 -60 666 -94 548 -94 C 420.66666666667 -94 321 -64 249 -4 C 176.33333333333 56 140 138 140 242 Z M 286 262 C 286 128 373.33333333333 61 548 61 C 630.66666666667 61 694.66666666667 79.33333333333 740 116 C 785.33333333333 152.66666666667 808 204.66666666667 808 272 C 808 346.66666666667 785.33333333333 407 740 453 C 694.66666666667 499 636.33333333333 522 565 522 C 491 522 426 496.66666666667 370 446 C 314 395.33333333333 286 334 286 262 Z"/>
    <path fill="#000000" stroke="none" transform="matrix(1 0 0 -1 56658 3769)" d="M 1166 104 C 1191.33333333333 120.66666666667 1204 149.33333333333 1204 190 C 1204 243.33333333333 1138 392 1006 636 C 878.66666666667 647.33333333333 763 653 659 653 L 346 653 C 305.33333333333 653 274.66666666667 656 254 662 C 232.66666666667 668 210 684 186 710 C 161.33333333333 736 149 760.66666666667 149 784 C 149 808 167.66666666667 846.66666666667 205 900 C 242.33333333333 953.33333333333 291.33333333333 1014.66666666667 352 1084 C 412.66666666667 1153.33333333333 466.33333333333 1209.66666666667 513 1253 C 559.66666666667 1296.33333333333 592.66666666667 1324 612 1336 C 631.33333333333 1347.33333333333 655.33333333333 1353 684 1353 C 711.33333333333 1353 785.33333333333 1268.33333333333 906 1099 C 1026.66666666667 929 1147.33333333333 743.33333333333 1268 542 C 1388.66666666667 340 1449 218.66666666667 1449 178 C 1449 107.33333333333 1412.66666666667 47 1340 -3 C 1266.66666666667 -53.66666666667 1163 -79 1029 -79 C 930.33333333333 -79 791.66666666667 -64.66666666667 613 -36 C 434.33333333333 -7.33333333333 301.66666666667 7 215 7 C 171 7 132.66666666667 3 100 -5 L 139 230 C 165.66666666667 235.33333333333 191.66666666667 238 217 238 C 297 238 426.33333333333 211.66666666667 605 159 C 783 105.66666666667 918 79 1010 79 C 1088.66666666667 79 1140.66666666667 87.33333333333 1166 104 Z M 910 806 C 846.66666666667 915.33333333333 789.66666666667 1006 739 1078 C 687.66666666667 1150 653.33333333333 1189 636 1195 C 613.33333333333 1183 567.33333333333 1127 498 1027 C 428.66666666667 926.33333333333 394 859.66666666667 394 827 C 394 817 401.33333333333 812 416 812 L 637 812 L 910 806 Z"/>
    <path fill="#000000" stroke="none" transform="matrix(1 0 0 -1 58247 3769)" d="M 224 -90 C 194.66666666667 -33.33333333333 180 55 180 175 C 180 291 209.33333333333 426.33333333333 268 581 C 326 735.66666666667 412.66666666667 903.66666666667 528 1085 C 480 1109.66666666667 429.33333333333 1127.33333333333 376 1138 L 440 1374 C 554.66666666667 1350.66666666667 656.33333333333 1295.33333333333 745 1208 C 833 1120.66666666667 911 1000 979 846 C 1149 1077.33333333333 1305.66666666667 1236.33333333333 1449 1323 L 1570 1121 C 1366.66666666667 998.33333333333 1191 853 1043 685 C 1077.66666666667 589.66666666667 1111.33333333333 478 1144 350 C 1193.33333333333 438 1267.33333333333 535.66666666667 1366 643 C 1464.66666666667 750.33333333333 1554 827.33333333333 1634 874 L 1758 660 C 1644 590.66666666667 1536 509 1434 415 C 1331.33333333333 321 1239.66666666667 222.33333333333 1159 119 L 1046 141 C 996.66666666667 355 939 534.66666666667 873 680 C 807 825.33333333333 727 937 633 1015 C 568.33333333333 902.33333333333 517.66666666667 776 481 636 C 443.66666666667 496 425 363.66666666667 425 239 C 425 133.66666666667 437.33333333333 54 462 0 L 224 -90 Z"/>
</svg>
