<svg width="46829" height="3789" viewBox="0 0 46829 3789" xmlns="http://www.w3.org/2000/svg">
    <defs/>
    <path fill="#000000" stroke="none" transform="matrix(1 0 0 -1 0 2689)" d="M 715 604 C 693 604 672 595 652 577 C 631.33333333333 558.33333333333 599.66666666667 524.33333333333 557 475 L 166 43 L 31 166 L 459 637 C 509.66666666667 693 552.66666666667 732.33333333333 588 755 C 623.33333333333 777 660 788 698 788 C 740.66666666667 788 777 774.66666666667 807 748 C 837 720.66666666667 873 679 915 623 L 1102 383 C 1155.33333333333 311.66666666667 1189.66666666667 270.33333333333 1205 259 C 1219.66666666667 247.66666666667 1233.66666666667 242 1247 242 C 1265 242 1284.66666666667 253.33333333333 1306 276 C 1326.66666666667 298 1353.33333333333 326.66666666667 1386 362 L 1634 637 C 1684.66666666667 693 1728.33333333333 732.33333333333 1765 755 C 1801 777 1838 788 1876 788 C 1918 788 1954.33333333333 774.66666666667 1985 748 C 2015 720.66666666667 2051.66666666667 678.33333333333 2095 621 L 2466 131 L 2349 43 L 2040 446 C 2003.33333333333 496.66666666667 1974.66666666667 535.66666666667 1954 563 C 1933.33333333333 590.33333333333 1912 604 1890 604 C 1866.66666666667 604 1845 594.33333333333 1825 575 C 1804.33333333333 555 1773.66666666667 521.66666666667 1733 475 L 1497 215 C 1450.33333333333 163 1409.66666666667 121.33333333333 1375 90 C 1340.33333333333 58.66666666667 1302 43 1260 43 C 1222.66666666667 43 1190 54 1162 76 C 1134 98 1092 146.33333333333 1036 221 L 778 563 C 758 590.33333333333 737 604 715 604 Z M 565 180 C 565 271.33333333333 606.66666666667 317 690 317 C 776 317 819 271.33333333333 819 180 C 819 130.66666666667 806.33333333333 95.33333333333 781 74 C 755.66666666667 52 725.33333333333 41 690 41 C 606.66666666667 41 565 87.33333333333 565 180 Z M 1739 180 C 1739 271.33333333333 1780.66666666667 317 1864 317 C 1950 317 1993 271.33333333333 1993 180 C 1993 130.66666666667 1980.33333333333 95.33333333333 1955 74 C 1929.66666666667 52 1899.33333333333 41 1864 41 C 1780.66666666667 41 1739 87.33333333333 1739 180 Z"/>
    <path fill="#000000" stroke="none" transform="matrix(1 0 0 -1 2497 2689)" d="M 39 135 L 547 596 C 597.66666666667 641.33333333333 644.66666666667 677.66666666667 688 705 C 730.66666666667 731.66666666667 780.66666666667 745 838 745 C 886.66666666667 745 931 733.33333333333 971 710 C 1010.33333333333 686 1056 642.66666666667 1108 580 L 1307 352 C 1350.33333333333 300 1387 261.33333333333 1417 236 C 1447 210 1480 197 1516 197 C 1551.33333333333 197 1584 207 1614 227 C 1644 246.33333333333 1680.66666666667 278 1724 322 L 1733 332 C 1777.66666666667 376.66666666667 1800 419 1800 459 C 1800 482.33333333333 1796 503.33333333333 1788 522 C 1780 540 1766 561.33333333333 1746 586 C 1726 610.66666666667 1547.33333333333 814.66666666667 1210 1198 L 1325 1298 L 1855 696 C 1896.33333333333 650 1928.33333333333 609.33333333333 1951 574 C 1973.66666666667 538 1985 496.33333333333 1985 449 C 1985 403.66666666667 1978.33333333333 365.33333333333 1965 334 C 1951 302.66666666667 1930 272 1902 242 C 1874 212 1835 175.33333333333 1785 132 C 1735 88 1693 57.33333333333 1659 40 C 1625 22.66666666667 1580.66666666667 12.66666666667 1526 10 C 1466 10 1416.66666666667 26 1378 58 C 1338.66666666667 90 1298.33333333333 129.33333333333 1257 176 L 1059 403 C 1015 455 978 494.33333333333 948 521 C 918 547.66666666667 885.33333333333 561 850 561 C 814.66666666667 561 782.33333333333 550.66666666667 753 530 C 723.66666666667 508.66666666667 686.33333333333 476.66666666667 641 434 L 160 0 L 39 135 Z M 719 139 C 719 230.33333333333 760.66666666667 276 844 276 C 930 276 973 230.33333333333 973 139 C 973 90.33333333333 960.33333333333 55 935 33 C 909.66666666667 11 879.33333333333 0 844 0 C 760.66666666667 0 719 46.33333333333 719 139 Z"/>
    <path fill="#000000" stroke="none" transform="matrix(1 0 0 -1 4639 2689)" d="M 2089 483 C 2089 464.33333333333 2070.66666666667 437.66666666667 2034 403 L 1837 221 C 1763 154.33333333333 1702 108.66666666667 1654 84 C 1605.33333333333 59.33333333333 1553 47 1497 47 C 1461.66666666667 47 1429.66666666667 52 1401 62 C 1372.33333333333 71.33333333333 1345.66666666667 85.33333333333 1321 104 C 1296.33333333333 122 1251.33333333333 167.33333333333 1186 240 L 1061 379 C 887.66666666667 224.33333333333 784.33333333333 136 751 114 C 717 91.33333333333 684.66666666667 74.66666666667 654 64 C 623.33333333333 52.66666666667 589.66666666667 47 553 47 C 516.33333333333 47 483.66666666667 52.66666666667 455 64 C 426.33333333333 74.66666666667 399 90.33333333333 373 111 C 347 131 303.33333333333 175.33333333333 242 244 C 121.33333333333 377.33333333333 56 452.66666666667 46 470 C 36 487.33333333333 31 501.33333333333 31 512 C 31 532.66666666667 48.66666666667 559.33333333333 84 592 C 212 710.66666666667 301 791.66666666667 351 835 C 401 877.66666666667 452 907 504 923 C 556 938.33333333333 595.66666666667 946 623 946 C 663.66666666667 946 701 939.33333333333 735 926 C 769 912 802 891.33333333333 834 864 C 865.33333333333 836.66666666667 939.66666666667 754.66666666667 1057 618 L 1229 772 C 1309.66666666667 844.66666666667 1373.66666666667 892 1421 914 C 1467.66666666667 935.33333333333 1517 946 1569 946 C 1619.66666666667 946 1665.66666666667 935.33333333333 1707 914 C 1748.33333333333 892 1806.66666666667 839.33333333333 1882 756 L 2034 571 C 2070.66666666667 534.33333333333 2089 505 2089 483 Z M 1176 481 C 1276.66666666667 361 1344.66666666667 289.33333333333 1380 266 C 1414.66666666667 242.66666666667 1450.33333333333 231 1487 231 C 1510.33333333333 231 1533 235.33333333333 1555 244 C 1576.33333333333 252 1599.66666666667 265.33333333333 1625 284 C 1650.33333333333 302 1736 378 1882 512 L 1833 578 C 1781 638 1736.66666666667 683.66666666667 1700 715 C 1663.33333333333 746.33333333333 1623.66666666667 762 1581 762 C 1539 762 1499.33333333333 749.66666666667 1462 725 C 1424 700.33333333333 1376.33333333333 661.33333333333 1319 608 L 1176 481 Z M 236 481 C 322 377.66666666667 383.33333333333 310.33333333333 420 279 C 456.66666666667 247 497.66666666667 231 543 231 C 570.33333333333 231 597.66666666667 238 625 252 C 652.33333333333 265.33333333333 684.66666666667 288.66666666667 722 322 C 759.33333333333 354.66666666667 832 419.33333333333 940 516 C 860.66666666667 610 800.66666666667 674.66666666667 760 710 C 718.66666666667 744.66666666667 677 762 635 762 C 592.33333333333 762 552.33333333333 750.33333333333 515 727 C 477.66666666667 703.66666666667 431 664.66666666667 375 610 L 236 481 Z"/>
    <path fill="#000000" stroke="none" transform="matrix(1 0 0 -1 6757 2689)" d="M 145 942 L 672 342 C 715.33333333333 291.33333333333 751.66666666667 252.33333333333 781 225 C 810.33333333333 197.66666666667 843 184 879 184 C 914.33333333333 184 946.66666666667 194.66666666667 976 216 C 1005.33333333333 237.33333333333 1042.33333333333 269 1087 311 L 1782 942 L 1905 807 L 1182 150 C 1131.33333333333 104.66666666667 1084.66666666667 68.33333333333 1042 41 C 998.66666666667 13.66666666667 948.33333333333 0 891 0 C 844.33333333333 0 802.66666666667 10.33333333333 766 31 C 729.33333333333 51 681 96 621 166 L 31 838 L 145 942 Z"/>
    <path fill="#000000" stroke="none" transform="matrix(1 0 0 -1 8692 2689)" d="M 39 135 L 547 596 C 597.66666666667 641.33333333333 644.66666666667 677.66666666667 688 705 C 730.66666666667 731.66666666667 780.66666666667 745 838 745 C 886.66666666667 745 931 733.33333333333 971 710 C 1010.33333333333 686 1056 642.66666666667 1108 580 L 1307 352 C 1350.33333333333 301.33333333333 1387 263 1417 237 C 1447 210.33333333333 1480 197 1516 197 C 1551.33333333333 197 1584 207 1614 227 C 1644 246.33333333333 1680.66666666667 278 1724 322 L 1733 332 C 1777.66666666667 376.66666666667 1800 419 1800 459 C 1800 482.33333333333 1796 503.33333333333 1788 522 C 1780 540 1766 561.33333333333 1746 586 C 1726 610.66666666667 1547.33333333333 814.66666666667 1210 1198 L 1325 1298 L 1855 696 C 1896.33333333333 650 1928.33333333333 609.33333333333 1951 574 C 1973.66666666667 538 1985 496.33333333333 1985 449 C 1985 403.66666666667 1978.33333333333 365.33333333333 1965 334 C 1951 302.66666666667 1930 272 1902 242 C 1874 212 1835 175.33333333333 1785 132 C 1735 88 1693 57.33333333333 1659 40 C 1625 22.66666666667 1580.66666666667 12.66666666667 1526 10 C 1466 10 1416.66666666667 26 1378 58 C 1338.66666666667 90 1298.33333333333 129.33333333333 1257 176 L 1059 403 C 1015 455 978 494.33333333333 948 521 C 918 547.66666666667 885.33333333333 561 850 561 C 814.66666666667 561 782.33333333333 550.66666666667 753 530 C 723.66666666667 508.66666666667 686.33333333333 476.66666666667 641 434 L 160 0 L 39 135 Z M 1051 -29 L 932 111 C 914 129.66666666667 900 144 890 154 C 879.33333333333 163.33333333333 868 168 856 168 C 849.33333333333 168 842.33333333333 166 835 162 C 827 158 766.33333333333 104 653 0 L 530 133 L 735 326 C 757 344.66666666667 775.33333333333 359 790 369 C 804 378.33333333333 822.66666666667 383 846 383 C 868 383 887.66666666667 375.66666666667 905 361 C 921.66666666667 345.66666666667 1008.33333333333 249.33333333333 1165 72 L 1051 -29 Z"/>
    <path fill="#000000" stroke="none" transform="matrix(1 0 0 -1 10834 2689)" d="M 156 18 L 35 156 L 707 760 C 785.66666666667 830.66666666667 849.33333333333 877.33333333333 898 900 C 946.66666666667 922.66666666667 997 934 1049 934 C 1088.33333333333 934 1124 928 1156 916 C 1188 903.33333333333 1219 884 1249 858 C 1279 832 1369.33333333333 733 1520 561 C 1558 523 1577 492.33333333333 1577 469 C 1577 449.66666666667 1558.66666666667 423 1522 389 L 1341 221 C 1267.66666666667 154.33333333333 1206.66666666667 108.66666666667 1158 84 C 1109.33333333333 59.33333333333 1057 47 1001 47 C 965.66666666667 47 933.66666666667 52 905 62 C 876.33333333333 71.33333333333 849.66666666667 85.33333333333 825 104 C 800.33333333333 122 755.33333333333 167.33333333333 690 240 L 805 342 C 867.66666666667 268 929.66666666667 231 991 231 C 1036.33333333333 231 1081.66666666667 248 1127 282 C 1171.66666666667 315.33333333333 1252.66666666667 388 1370 500 L 1311 565 C 1259 626.33333333333 1215.33333333333 672.33333333333 1180 703 C 1144 733 1104.33333333333 748 1061 748 C 1018.33333333333 748 978.66666666667 735.66666666667 942 711 C 905.33333333333 686.33333333333 858.33333333333 648 801 596 L 156 18 Z"/>
    <path fill="#000000" stroke="none" transform="matrix(1 0 0 -1 12972 2689)" d="M 707 604 C 678.33333333333 604 644 581 604 535 L 160 43 L 25 166 C 211.66666666667 373.33333333333 353.33333333333 529 450 633 C 546 736.33333333333 626.66666666667 788 692 788 C 734.66666666667 788 771 774.66666666667 801 748 C 831 720.66666666667 867 679 909 623 L 1094 383 C 1145.33333333333 315 1178.66666666667 274.66666666667 1194 262 C 1209.33333333333 248.66666666667 1225 242 1241 242 C 1259 242 1278.66666666667 253.33333333333 1300 276 C 1320.66666666667 298 1347.33333333333 326.66666666667 1380 362 L 1628 637 C 1678.66666666667 693 1722 732.33333333333 1758 755 C 1794 777 1830.66666666667 788 1868 788 C 1910 788 1946.33333333333 774.66666666667 1977 748 C 2007.66666666667 720.66666666667 2045 678.33333333333 2089 621 L 2460 131 L 2341 43 L 2034 446 C 1996.66666666667 496.66666666667 1968 535.66666666667 1948 563 C 1927.33333333333 590.33333333333 1906 604 1884 604 C 1860.66666666667 604 1839 594.33333333333 1819 575 C 1798.33333333333 555 1767.33333333333 521.66666666667 1726 475 L 1491 215 C 1443 163 1402 121.33333333333 1368 90 C 1334 58.66666666667 1295.66666666667 43 1253 43 C 1216.33333333333 43 1184 54 1156 76 C 1128 98 1086 146.33333333333 1030 221 L 770 563 C 749.33333333333 590.33333333333 728.33333333333 604 707 604 Z M 1735 180 C 1735 271.33333333333 1776.66666666667 317 1860 317 C 1946 317 1989 271.33333333333 1989 180 C 1989 130.66666666667 1976.33333333333 95.33333333333 1951 74 C 1925.66666666667 52 1895.33333333333 41 1860 41 C 1776.66666666667 41 1735 87.33333333333 1735 180 Z"/>
    <path fill="#000000" stroke="none" transform="matrix(1 0 0 -1 15462 2689)" d="M 47 135 L 621 647 L 297 1022 L 412 1120 L 1081 346 C 1121 301.33333333333 1156.33333333333 266 1187 240 C 1217.66666666667 214 1250.66666666667 201 1286 201 C 1312 201 1335.33333333333 206 1356 216 C 1376 226 1406 248.33333333333 1446 283 C 1485.33333333333 317 1511.66666666667 343.33333333333 1525 362 C 1537.66666666667 380 1544.66666666667 406.66666666667 1546 442 C 1546 462.66666666667 1541.66666666667 483.66666666667 1533 505 C 1524.33333333333 526.33333333333 1509 551 1487 579 C 1465 607 1339.33333333333 756 1110 1026 L 1223 1120 L 1602 686 C 1649.33333333333 631.33333333333 1682.66666666667 586 1702 550 C 1721.33333333333 514 1731 474 1731 430 C 1727.66666666667 379.33333333333 1718.66666666667 337.33333333333 1704 304 C 1688.66666666667 270.66666666667 1655.66666666667 230 1605 182 C 1553.66666666667 133.33333333333 1504.33333333333 93.33333333333 1457 62 C 1409.66666666667 30 1357.33333333333 14 1300 14 C 1254 14 1213.33333333333 23.66666666667 1178 43 C 1142 62.33333333333 1092 108 1028 180 L 739 512 L 168 0 L 47 135 Z"/>
    <path fill="#000000" stroke="none" transform="matrix(1 0 0 -1 17260 2689)" d="M 1266 406 L 1049 657 C 1005 709 968.33333333333 748.33333333333 939 775 C 909.66666666667 801.66666666667 877.33333333333 815 842 815 C 806 815 773.33333333333 804.66666666667 744 784 C 714.66666666667 762.66666666667 677.66666666667 730.66666666667 633 688 L 150 254 L 31 389 L 537 850 C 587 895.33333333333 634 931.66666666667 678 959 C 721.33333333333 985.66666666667 771.66666666667 999 829 999 C 878.33333333333 999 923 987.33333333333 963 964 C 1002.33333333333 940 1048 896.66666666667 1100 834 L 1380 508 L 1266 406 Z M 1208 31 L 977 297 C 959 317.66666666667 945.33333333333 332.33333333333 936 341 C 926.66666666667 349.66666666667 915 354 901 354 C 885 354 852.33333333333 331 803 285 L 524 31 L 401 164 L 780 512 C 802 532.66666666667 820.33333333333 547.33333333333 835 556 C 849 564.66666666667 867.66666666667 569 891 569 C 915.66666666667 569 938.33333333333 559.66666666667 959 541 C 979 521.66666666667 1100.33333333333 384.33333333333 1323 129 L 1208 31 Z"/>
    <path fill="#000000" stroke="none" transform="matrix(1 0 0 -1 18671 2689)" d="M 412 1120 L 1298 96 L 1188 0 L 739 512 L 168 0 L 47 135 L 621 647 L 297 1022 L 412 1120 Z"/>
    <path fill="#000000" stroke="none" transform="matrix(1 0 0 -1 19910 2689)" d="M 1061 567 L 1276 319 C 1319.33333333333 269 1356 230.66666666667 1386 204 C 1415.33333333333 177.33333333333 1447.66666666667 164 1483 164 C 1517 164 1548.66666666667 173.66666666667 1578 193 C 1607.33333333333 211.66666666667 1659 258 1733 332 C 1777.66666666667 376.66666666667 1800 419 1800 459 C 1800 482.33333333333 1796 503.33333333333 1788 522 C 1780 540 1766 561.33333333333 1746 586 C 1726 610.66666666667 1547.33333333333 814.66666666667 1210 1198 L 1325 1298 L 1855 696 C 1896.33333333333 650 1928.33333333333 609.33333333333 1951 574 C 1973.66666666667 538 1985 496.33333333333 1985 449 C 1985 409 1980.66666666667 376.33333333333 1972 351 C 1962.66666666667 325.66666666667 1947.66666666667 299.33333333333 1927 272 C 1906.33333333333 244.66666666667 1865.66666666667 202.33333333333 1805 145 C 1744.33333333333 87.66666666667 1690.33333333333 45.33333333333 1643 18 C 1595 -9.33333333333 1545.66666666667 -23 1495 -23 C 1451.66666666667 -23 1411 -12.33333333333 1373 9 C 1334.33333333333 30.33333333333 1285 75 1225 143 L 944 465 L 1061 567 Z M 1503 346 L 1274 608 C 1230 658.66666666667 1193 697.66666666667 1163 725 C 1133 752.33333333333 1100.33333333333 766 1065 766 C 1029.66666666667 766 997.33333333333 755.33333333333 968 734 C 938.66666666667 712.66666666667 901.33333333333 681 856 639 L 156 18 L 35 156 L 762 801 C 812.66666666667 845.66666666667 859.66666666667 881.66666666667 903 909 C 945.66666666667 936.33333333333 995.66666666667 950 1053 950 C 1096.33333333333 950 1136 940.66666666667 1172 922 C 1207.33333333333 902.66666666667 1257.66666666667 856.66666666667 1323 784 L 1618 449 L 1503 346 Z"/>
    <path fill="#000000" stroke="none" transform="matrix(1 0 0 -1 22052 2689)" d="M 1790 0 L 1409 434 L 932 0 L 809 135 L 1288 571 C 1221.33333333333 649 1174.66666666667 699.66666666667 1148 723 C 1121.33333333333 746.33333333333 1091 758 1057 758 C 1021.66666666667 758 989.33333333333 747.33333333333 960 726 C 930 704.66666666667 892.66666666667 673 848 631 L 154 0 L 31 135 L 752 791 C 802 835.66666666667 849 872 893 900 C 936.33333333333 928 986.66666666667 942 1044 942 C 1077.33333333333 942 1107.33333333333 937.33333333333 1134 928 C 1160.66666666667 918 1187.33333333333 902.33333333333 1214 881 C 1240 859 1303 790.66666666667 1403 676 C 1553 810 1647.66666666667 888 1687 910 C 1725.66666666667 931.33333333333 1771 942 1823 942 C 1866.33333333333 942 1906 932.66666666667 1942 914 C 1977.33333333333 894.66666666667 2027.66666666667 848.66666666667 2093 776 L 2683 102 L 2568 0 L 2042 600 C 1998 650.66666666667 1961.33333333333 689.66666666667 1932 717 C 1902.66666666667 744.33333333333 1870.33333333333 758 1835 758 C 1799.66666666667 758 1767.33333333333 747.33333333333 1738 726 C 1708.66666666667 704.66666666667 1671.33333333333 673 1626 631 L 1522 537 L 1905 102 L 1790 0 Z"/>
    <path fill="#000000" stroke="none" transform="matrix(1 0 0 -1 25298 2689)" d="M 1468 274 L 1186 600 C 1140.66666666667 650.66666666667 1103.33333333333 689.66666666667 1074 717 C 1044.66666666667 744.33333333333 1012.33333333333 758 977 758 C 941.66666666667 758 909.33333333333 747.33333333333 880 726 C 850.66666666667 704.66666666667 813.33333333333 673 768 631 L 752 616 C 802 612 843.33333333333 596.33333333333 876 569 C 908 541.66666666667 942.33333333333 509 979 471 L 1298 111 L 1188 0 L 893 336 C 849 386.66666666667 812 425.33333333333 782 452 C 752 478.66666666667 719.33333333333 492 684 492 C 640 492 588.66666666667 466.66666666667 530 416 L 160 80 L 39 215 L 674 791 C 724.66666666667 835.66666666667 771.66666666667 872 815 900 C 857.66666666667 928 907.66666666667 942 965 942 C 1008.33333333333 942 1049.33333333333 931.66666666667 1088 911 C 1126 889.66666666667 1175 844.66666666667 1235 776 L 1581 385 L 1468 274 Z"/>
    <path fill="#000000" stroke="none" transform="matrix(1 0 0 -1 26844 2689)" d="M 145 942 L 672 342 C 715.33333333333 291.33333333333 751.66666666667 252.33333333333 781 225 C 810.33333333333 197.66666666667 843 184 879 184 C 914.33333333333 184 946.66666666667 194.66666666667 976 216 C 1005.33333333333 237.33333333333 1042.33333333333 269 1087 311 L 1782 942 L 1905 807 L 1182 150 C 1131.33333333333 104.66666666667 1084.66666666667 68.33333333333 1042 41 C 998.66666666667 13.66666666667 948.33333333333 0 891 0 C 844.33333333333 0 802.66666666667 10.33333333333 766 31 C 729.33333333333 51 681 96 621 166 L 31 838 L 145 942 Z M 782 794 C 782 886 823.66666666667 932 907 932 C 993 932 1036 886 1036 794 C 1036 745.33333333333 1023.33333333333 710 998 688 C 972.66666666667 666 942.33333333333 655 907 655 C 823.66666666667 655 782 701.33333333333 782 794 Z"/>
    <path fill="#000000" stroke="none" transform="matrix(1 0 0 -1 28779 2689)" d="M 715 604 C 693 604 672 595 652 577 C 631.33333333333 558.33333333333 599.66666666667 524.33333333333 557 475 L 166 43 L 31 166 L 459 637 C 509.66666666667 693 552.66666666667 732.33333333333 588 755 C 623.33333333333 777 660 788 698 788 C 740.66666666667 788 777 774.66666666667 807 748 C 837 720.66666666667 873 679 915 623 L 1102 383 C 1155.33333333333 311.66666666667 1189.66666666667 270.33333333333 1205 259 C 1219.66666666667 247.66666666667 1233.66666666667 242 1247 242 C 1265 242 1284.66666666667 253.33333333333 1306 276 C 1326.66666666667 298 1353.33333333333 326.66666666667 1386 362 L 1634 637 C 1684.66666666667 693 1728.33333333333 732.33333333333 1765 755 C 1801 777 1838 788 1876 788 C 1918 788 1954.33333333333 774.66666666667 1985 748 C 2015 720.66666666667 2051.66666666667 678.33333333333 2095 621 L 2466 131 L 2349 43 L 2040 446 C 2003.33333333333 496.66666666667 1974.66666666667 535.66666666667 1954 563 C 1933.33333333333 590.33333333333 1912 604 1890 604 C 1866.66666666667 604 1845 594.33333333333 1825 575 C 1804.33333333333 555 1773.66666666667 521.66666666667 1733 475 L 1497 215 C 1450.33333333333 163 1409.66666666667 121.33333333333 1375 90 C 1340.33333333333 58.66666666667 1302 43 1260 43 C 1222.66666666667 43 1190 54 1162 76 C 1134 98 1092 146.33333333333 1036 221 L 778 563 C 758 590.33333333333 737 604 715 604 Z"/>
    <path fill="#000000" stroke="none" transform="matrix(1 0 0 -1 31276 2689)" d="M 1790 0 L 1264 600 C 1220 650.66666666667 1183.33333333333 689.66666666667 1154 717 C 1124.66666666667 744.33333333333 1092.33333333333 758 1057 758 C 1021.66666666667 758 989.33333333333 747.33333333333 960 726 C 930 704.66666666667 892.66666666667 673 848 631 L 154 0 L 31 135 L 752 791 C 802 835.66666666667 849 872 893 900 C 936.33333333333 928 986.66666666667 942 1044 942 C 1088 942 1128 932.66666666667 1164 914 C 1199.33333333333 894.66666666667 1249.66666666667 848.66666666667 1315 776 L 1905 102 L 1790 0 Z"/>
    <path fill="#000000" stroke="none" transform="matrix(1 0 0 -1 33211 2689)" d="M 2415 176 L 1950 707 C 1906 758.33333333333 1869 797.33333333333 1839 824 C 1809 850.66666666667 1776.33333333333 864 1741 864 C 1707 864 1675.33333333333 853.66666666667 1646 833 C 1616.66666666667 811.66666666667 1579.33333333333 779.66666666667 1534 737 L 1374 594 L 1253 729 L 1438 899 C 1488 944.33333333333 1535 980.66666666667 1579 1008 C 1623 1035.33333333333 1673.66666666667 1049 1731 1049 C 1774.33333333333 1049 1814 1039.66666666667 1850 1021 C 1885.33333333333 1002.33333333333 1935 957 1999 885 L 2527 287 L 2415 176 Z M 758 659 C 725.33333333333 659 695.33333333333 649.66666666667 668 631 C 640.66666666667 611.66666666667 468 460 150 176 L 31 311 L 455 694 C 505 739.33333333333 551.66666666667 776 595 804 C 637.66666666667 832 687.66666666667 846 745 846 C 794.33333333333 846 837.66666666667 835.66666666667 875 815 C 911.66666666667 794.33333333333 958.66666666667 751.33333333333 1016 686 L 1169 508 C 1213 456 1250 416.66666666667 1280 390 C 1310 363.33333333333 1342.66666666667 350 1378 350 C 1416.66666666667 350 1453 363 1487 389 C 1521 415 1600 490 1724 614 L 1853 485 L 1681 315 C 1633.66666666667 267.66666666667 1588 231 1544 205 C 1499.33333333333 179 1447.66666666667 166 1389 166 C 1345 166 1305 176 1269 196 C 1232.33333333333 215.33333333333 1182.66666666667 260.66666666667 1120 332 L 942 535 C 906.66666666667 575.66666666667 875 606.66666666667 847 628 C 819 648.66666666667 789.33333333333 659 758 659 Z"/>
    <path fill="#000000" stroke="none" transform="matrix(1 0 0 -1 35767 2689)" d="M 47 135 L 616 645 L 551 723 C 509.66666666667 769.66666666667 477.33333333333 810.66666666667 454 846 C 430 881.33333333333 418 924.33333333333 418 975 C 418 1024.33333333333 430.33333333333 1071.33333333333 455 1116 C 479.66666666667 1160 527.66666666667 1212.33333333333 599 1273 C 669.66666666667 1333.66666666667 723.33333333333 1372.33333333333 760 1389 C 796.66666666667 1405 836.33333333333 1413 879 1413 C 911.66666666667 1413 941.33333333333 1408 968 1398 C 994.66666666667 1387.33333333333 1020 1372.33333333333 1044 1353 C 1067.33333333333 1333 1191.66666666667 1194.66666666667 1417 938 L 1300 836 L 1090 1077 C 1051.33333333333 1122.33333333333 1017 1158.33333333333 987 1185 C 957 1211.66666666667 925.66666666667 1225 893 1225 C 861.66666666667 1225 835.33333333333 1219.66666666667 814 1209 C 792.66666666667 1197.66666666667 760.33333333333 1172.33333333333 717 1133 C 640.33333333333 1071 602 1014.33333333333 602 963 C 602 929.66666666667 612.66666666667 898 634 868 C 655.33333333333 838 687.66666666667 798 731 748 L 1298 96 L 1188 0 L 737 510 L 168 0 L 47 135 Z"/>
    <path fill="#000000" stroke="none" transform="matrix(1 0 0 -1 37685 2689)" d="M 758 760 C 722.66666666667 760 690.33333333333 749.33333333333 661 728 C 631 706.66666666667 593.66666666667 675 549 633 L 150 274 L 31 412 L 455 793 C 505 839 551.66666666667 875.66666666667 595 903 C 637.66666666667 930.33333333333 687.66666666667 944 745 944 C 789 944 829 934.66666666667 865 916 C 900.33333333333 896.66666666667 950.66666666667 850.66666666667 1016 778 L 1147 633 C 1171.66666666667 603 1191 580.66666666667 1205 566 C 1218.33333333333 550.66666666667 1234.33333333333 543 1253 543 C 1269.66666666667 543 1288.33333333333 551.33333333333 1309 568 C 1329 584 1410.66666666667 659 1554 793 C 1604.66666666667 839 1651.66666666667 875.66666666667 1695 903 C 1737.66666666667 930.33333333333 1788.33333333333 944 1847 944 C 1891 944 1930.33333333333 935 1965 917 C 1999.66666666667 898.33333333333 2050 852 2116 778 L 2470 369 L 2361 276 L 2066 602 C 2021.33333333333 651.33333333333 1984.33333333333 690 1955 718 C 1925.66666666667 746 1893.33333333333 760 1858 760 C 1823.33333333333 760 1791 749.33333333333 1761 728 C 1731 706.66666666667 1693.66666666667 675 1649 633 L 1434 436 C 1398 402 1367.66666666667 378.33333333333 1343 365 C 1317.66666666667 351 1290.66666666667 344 1262 344 C 1233.33333333333 344 1207.66666666667 352.66666666667 1185 370 C 1162.33333333333 386.66666666667 1137.33333333333 410.66666666667 1110 442 L 942 635 C 905.33333333333 675.66666666667 873.33333333333 706.66666666667 846 728 C 818.66666666667 749.33333333333 789.33333333333 760 758 760 Z M 928 440 L 1036 311 C 1111.33333333333 223.66666666667 1185 180 1257 180 C 1314.33333333333 180 1365.33333333333 194.66666666667 1410 224 C 1454.66666666667 253.33333333333 1499.33333333333 291.33333333333 1544 338 L 1632 428 L 1761 299 L 1624 162 C 1573.33333333333 111.33333333333 1521 71.66666666667 1467 43 C 1413 14.33333333333 1349.33333333333 0 1276 0 C 1156 0 1052.33333333333 53.33333333333 965 160 L 811 336 L 928 440 Z"/>
    <path fill="#000000" stroke="none" transform="matrix(1 0 0 -1 40186 2689)" d="M 6 391 L 868 1159 L 989 1022 L 127 256 L 6 391 Z M 399 137 L 1260 903 L 1382 766 L 522 2 L 399 137 Z"/>
    <path fill="#000000" stroke="none" transform="matrix(1 0 0 -1 41572 2689)" d="M 1790 0 L 1264 600 C 1220 650.66666666667 1183.33333333333 689.66666666667 1154 717 C 1124.66666666667 744.33333333333 1092.33333333333 758 1057 758 C 1021.66666666667 758 989.33333333333 747.33333333333 960 726 C 930 704.66666666667 892.66666666667 673 848 631 L 154 0 L 31 135 L 752 791 C 802 835.66666666667 849 872 893 900 C 936.33333333333 928 986.66666666667 942 1044 942 C 1088 942 1128 932.66666666667 1164 914 C 1199.33333333333 894.66666666667 1249.66666666667 848.66666666667 1315 776 L 1905 102 L 1790 0 Z M 909 137 C 909 229 950.66666666667 275 1034 275 C 1120 275 1163 229 1163 137 C 1163 88.33333333333 1150.33333333333 53 1125 31 C 1099.66666666667 9 1069.33333333333 -2 1034 -2 C 950.66666666667 -2 909 44.33333333333 909 137 Z"/>
    <path fill="#000000" stroke="none" transform="matrix(1 0 0 -1 43507 2689)" d="M 39 135 L 547 596 C 597.66666666667 641.33333333333 644.66666666667 677.66666666667 688 705 C 730.66666666667 731.66666666667 780.66666666667 745 838 745 C 886.66666666667 745 931 733.33333333333 971 710 C 1010.33333333333 686 1056 642.66666666667 1108 580 L 1307 352 C 1350.33333333333 300 1387 261.33333333333 1417 236 C 1447 210 1480 197 1516 197 C 1551.33333333333 197 1584 207 1614 227 C 1644 246.33333333333 1680.66666666667 278 1724 322 L 1733 332 C 1777.66666666667 376.66666666667 1800 419 1800 459 C 1800 482.33333333333 1796 503.33333333333 1788 522 C 1780 540 1766 561.33333333333 1746 586 C 1726 610.66666666667 1547.33333333333 814.66666666667 1210 1198 L 1325 1298 L 1855 696 C 1896.33333333333 650 1928.33333333333 609.33333333333 1951 574 C 1973.66666666667 538 1985 496.33333333333 1985 449 C 1985 403.66666666667 1978.33333333333 365.33333333333 1965 334 C 1951 302.66666666667 1930 272 1902 242 C 1874 212 1835 175.33333333333 1785 132 C 1735 88 1693 57.33333333333 1659 40 C 1625 22.66666666667 1580.66666666667 12.66666666667 1526 10 C 1466 10 1416.66666666667 26 1378 58 C 1338.66666666667 90 1298.33333333333 129.33333333333 1257 176 L 1059 403 C 1015 455 978 494.33333333333 948 521 C 918 547.66666666667 885.33333333333 561 850 561 C 814.66666666667 561 782.33333333333 550.66666666667 753 530 C 723.66666666667 508.66666666667 686.33333333333 476.66666666667 641 434 L 160 0 L 39 135 Z"/>
    <path fill="#000000" stroke="none" transform="matrix(1 0 0 -1 45649 2689)" d="M 1151 483 C 1151 464.33333333333 1132.66666666667 437.66666666667 1096 403 L 899 221 C 825 154.33333333333 764 108.66666666667 716 84 C 667.33333333333 59.33333333333 615 47 559 47 C 523.66666666667 47 491.66666666667 52 463 62 C 434.33333333333 71.33333333333 407.66666666667 85.33333333333 383 104 C 358.33333333333 122 313.33333333333 167.33333333333 248 240 C 132 366.66666666667 67 440.66666666667 53 462 C 38.33333333333 483.33333333333 31 500 31 512 C 31 532.66666666667 48.66666666667 559.33333333333 84 592 C 214 710.66666666667 303 791 351 833 C 398.33333333333 874.33333333333 445 904 491 922 C 536.33333333333 939.33333333333 580.33333333333 948 623 948 C 673 948 719 937.33333333333 761 916 C 802.33333333333 894 860.66666666667 841.33333333333 936 758 L 1096 571 C 1132.66666666667 534.33333333333 1151 505 1151 483 Z M 236 483 C 323.33333333333 381 379.66666666667 319 405 297 C 429.66666666667 275 453.66666666667 258.66666666667 477 248 C 500.33333333333 236.66666666667 524.33333333333 231 549 231 C 572.33333333333 231 595 235.33333333333 617 244 C 638.33333333333 252 661.66666666667 265.33333333333 687 284 C 712.33333333333 302 798 378 944 512 C 873.33333333333 596.66666666667 814.66666666667 660 768 702 C 720.66666666667 743.33333333333 676.33333333333 764 635 764 C 597 764 561.33333333333 754.33333333333 528 735 C 494 715 396.66666666667 631 236 483 Z"/>
</svg>
