<svg width="46569" height="3789" viewBox="0 0 46569 3789" xmlns="http://www.w3.org/2000/svg">
    <defs/>
    <path fill="#000000" stroke="none" transform="matrix(1 0 0 -1 0 2689)" d="M 1071 254 L 905 88 L 885 96 L 991 254 L 627 254 C 278.33333333333 254 104 386.33333333333 104 651 C 104 709.66666666667 114.66666666667 761 136 805 C 156.66666666667 849 186 883.66666666667 224 909 C 261.33333333333 933.66666666667 302.66666666667 946 348 946 C 406 946 447 935 471 913 C 481 984.33333333333 502.66666666667 1048.66666666667 536 1106 C 568.66666666667 1163.33333333333 610.66666666667 1208.66666666667 662 1242 C 713.33333333333 1275.33333333333 770.66666666667 1292 834 1292 C 891.33333333333 1292 942.66666666667 1279 988 1253 C 1033.33333333333 1226.33333333333 1070.33333333333 1189.66666666667 1099 1143 C 1127 1095.66666666667 1143.66666666667 1043.66666666667 1149 987 L 1501 1311 L 1518 1298 L 1339 1055 C 1378.33333333333 1048.33333333333 1410.66666666667 1033.66666666667 1436 1011 C 1460.66666666667 987.66666666667 1473 956.66666666667 1473 918 C 1473 899.33333333333 1470 880.66666666667 1464 862 C 1490 883.33333333333 1521.33333333333 900.66666666667 1558 914 C 1594 927.33333333333 1629 934 1663 934 C 1779 934 1868.33333333333 902 1931 838 C 1993.66666666667 773.33333333333 2025 685 2025 573 C 2025 527 2017.66666666667 474.33333333333 2003 415 C 1987.66666666667 355.66666666667 1968 302 1944 254 L 1071 254 Z M 205 651 C 205 551.66666666667 241.66666666667 475 315 421 C 387.66666666667 367 493.66666666667 340 633 340 L 1051 340 L 1243 623 L 874 735 L 1073 918 C 1048.33333333333 1085.33333333333 967.66666666667 1169 831 1169 C 752.33333333333 1169 686.33333333333 1139.33333333333 633 1080 C 579.66666666667 1020 553 946.66666666667 553 860 C 553 824.66666666667 558.33333333333 789.33333333333 569 754 L 522 748 C 511.33333333333 776 491 800 461 820 C 430.33333333333 840 396.66666666667 850 360 850 C 314 850 276.66666666667 832.66666666667 248 798 C 219.33333333333 762.66666666667 205 713.66666666667 205 651 Z M 1485 668 L 1157 340 L 1876 340 C 1889.33333333333 368.66666666667 1901 405 1911 449 C 1920.33333333333 493 1925 533 1925 569 C 1925 654.33333333333 1902.33333333333 719.33333333333 1857 764 C 1811 808.66666666667 1744.33333333333 831 1657 831 C 1599 831 1550 822.66666666667 1510 806 C 1470 788.66666666667 1435.66666666667 760.33333333333 1407 721 L 1378 743 C 1392 775.66666666667 1399 809.66666666667 1399 845 C 1399 882.33333333333 1390.33333333333 911.66666666667 1373 933 C 1355 954.33333333333 1329.33333333333 965 1296 965 L 1272 961 L 1151 797 L 1485 668 Z M 1395 -63 L 1268 -244 C 1230.66666666667 -294 1199.33333333333 -319.33333333333 1174 -320 C 1164 -320 1154.33333333333 -316 1145 -308 C 1135.66666666667 -300 1131 -290.66666666667 1131 -280 C 1131 -271.33333333333 1134.33333333333 -262 1141 -252 C 1147.66666666667 -242.66666666667 1168 -222 1202 -190 L 1376 -45 L 1395 -63 Z M 1212 137 L 1085 -43 C 1049.66666666667 -93 1018.33333333333 -118.33333333333 991 -119 C 981 -119 971.66666666667 -115 963 -107 C 953.66666666667 -99 949 -89.66666666667 949 -79 C 949 -71 952 -62.33333333333 958 -53 C 964 -44.33333333333 984.66666666667 -23.33333333333 1020 10 L 1194 156 L 1212 137 Z M 1927 154 L 1800 -27 C 1762.66666666667 -77 1731.33333333333 -102.33333333333 1706 -103 C 1696 -103 1686.33333333333 -99 1677 -91 C 1667.66666666667 -83 1663 -74.33333333333 1663 -65 C 1663 -60.33333333333 1664.33333333333 -55 1667 -49 C 1669 -43 1672.66666666667 -36.66666666667 1678 -30 C 1682.66666666667 -23.33333333333 1701.66666666667 -4.33333333333 1735 27 L 1909 172 L 1927 154 Z M 1927 -279 L 1800 -459 C 1762.66666666667 -509 1731.33333333333 -534.33333333333 1706 -535 C 1696 -535 1686.33333333333 -531 1677 -523 C 1667.66666666667 -515 1663 -506.33333333333 1663 -497 C 1663 -492.33333333333 1664.33333333333 -487 1667 -481 C 1669 -475.66666666667 1672.33333333333 -469.66666666667 1677 -463 C 1681.66666666667 -457 1701 -438 1735 -406 L 1909 -260 L 1927 -279 Z M 506 141 L 375 -39 C 339.66666666667 -89 309.33333333333 -114.33333333333 284 -115 C 273.33333333333 -115 263.66666666667 -110.66666666667 255 -102 C 246.33333333333 -94 242 -85 242 -75 C 242 -66.33333333333 245.33333333333 -57 252 -47 C 258.66666666667 -37.66666666667 270 -25.33333333333 286 -10 C 302 4.66666666667 368.33333333333 61.33333333333 485 160 L 506 141 Z M 690 -63 L 559 -244 C 523.66666666667 -294 493.33333333333 -319.33333333333 468 -320 C 457.33333333333 -320 447.66666666667 -315.66666666667 439 -307 C 430.33333333333 -299 426 -290 426 -280 C 426 -272.66666666667 428.33333333333 -265 433 -257 C 437.66666666667 -249 444.33333333333 -240.33333333333 453 -231 C 461.66666666667 -221.66666666667 534 -159.66666666667 670 -45 L 690 -63 Z M 705 -412 L 639 -526 C 619 -552.66666666667 601.33333333333 -566 586 -566 C 576 -566 566 -561.33333333333 556 -552 C 546 -542.66666666667 541 -532.66666666667 541 -522 C 541 -504.66666666667 551.66666666667 -489.66666666667 573 -477 L 684 -391 L 705 -412 Z M 348 -412 L 283 -526 C 263 -552.66666666667 245 -566 229 -566 C 219 -566 209.33333333333 -561.33333333333 200 -552 C 190 -542.66666666667 185 -532.66666666667 185 -522 C 185 -504.66666666667 195.66666666667 -489.66666666667 217 -477 L 328 -391 L 348 -412 Z M 1419 -412 L 1354 -526 C 1334 -552.66666666667 1316.33333333333 -566 1301 -566 C 1291 -566 1281 -561.33333333333 1271 -552 C 1261 -542.66666666667 1256 -532.66666666667 1256 -522 C 1256 -504.66666666667 1266.66666666667 -489.66666666667 1288 -477 L 1399 -391 L 1419 -412 Z M 1573 139 L 1516 41 C 1500 18.33333333333 1485.33333333333 7 1472 7 C 1464 7 1455.33333333333 10.66666666667 1446 18 C 1436.66666666667 25.33333333333 1432 34 1432 44 C 1432 58.66666666667 1441.33333333333 72 1460 84 L 1554 158 L 1573 139 Z M 1616 -188 L 1559 -287 C 1543.66666666667 -309 1529 -320 1515 -320 C 1507 -320 1498.66666666667 -316.33333333333 1490 -309 C 1481.33333333333 -302.33333333333 1476.66666666667 -293.66666666667 1476 -283 C 1476 -268.33333333333 1485 -255.33333333333 1503 -244 L 1597 -170 L 1616 -188 Z M 1085 -399 L 1028 -498 C 1012.66666666667 -520 998 -531 984 -531 C 974.66666666667 -531 966 -527 958 -519 C 949.33333333333 -511.66666666667 945 -503.33333333333 945 -494 C 945 -478 954.33333333333 -465 973 -455 L 1067 -381 L 1085 -399 Z M 864 145 L 807 47 C 790.33333333333 25.66666666667 776 15 764 15 C 756 15 747.66666666667 19 739 27 C 730.33333333333 34.33333333333 726 42.66666666667 726 52 C 726 66 734.66666666667 79.33333333333 752 92 L 846 164 L 864 145 Z M 903 -195 L 844 -293 C 830 -314.33333333333 816.66666666667 -325 804 -325 C 795.33333333333 -325 786.66666666667 -321 778 -313 C 769.33333333333 -305 764.33333333333 -296.33333333333 763 -287 C 763 -273 772.33333333333 -260 791 -248 L 885 -176 L 903 -195 Z"/>
    <path fill="#000000" stroke="none" transform="matrix(1 0 0 -1 2130 2689)" d="M 250 -47 L 104 -47 L 104 1493 L 250 1493 L 250 -47 Z M 420 385 C 420 416.33333333333 430 441.66666666667 450 461 C 469.33333333333 479.66666666667 494 489 524 489 C 554 489 579 479.66666666667 599 461 C 619 441.66666666667 629 417 629 387 C 629 355.66666666667 619 330.33333333333 599 311 C 579 291 554 281 524 281 C 494 281 469.33333333333 291 450 311 C 430 330.33333333333 420 355 420 385 Z"/>
    <path fill="#000000" stroke="none" transform="matrix(1 0 0 -1 2853 2689)" d="M 1669 639 C 1669 499 1634.33333333333 368.66666666667 1565 248 C 1495 127.33333333333 1399.66666666667 32 1279 -38 C 1158.33333333333 -108 1027.66666666667 -143 887 -143 C 745.66666666667 -143 614.33333333333 -107.33333333333 493 -36 C 371.66666666667 34.66666666667 276.66666666667 130.33333333333 208 251 C 138.66666666667 371 104 500.33333333333 104 639 C 104 777.66666666667 138.66666666667 907.33333333333 208 1028 C 276.66666666667 1148 371.66666666667 1243.66666666667 493 1315 C 613.66666666667 1385.66666666667 745 1421 887 1421 C 1027 1421 1157.33333333333 1386.33333333333 1278 1317 C 1398.66666666667 1247 1494 1151.66666666667 1564 1031 C 1634 910.33333333333 1669 779.66666666667 1669 639 Z M 1026 1200 L 813 1200 C 743.66666666667 1139.33333333333 655 1086 547 1040 L 547 823 C 619 849.66666666667 701 894.66666666667 793 958 L 793 119 L 1026 119 L 1026 1200 Z"/>
    <path fill="#000000" stroke="none" transform="matrix(1 0 0 -1 4627 2689)" d="M 131 1184 C 131 1249.33333333333 124.33333333333 1290.66666666667 111 1308 C 97 1324.66666666667 68.33333333333 1335 25 1339 L 25 1389 L 422 1389 L 422 850 C 488.66666666667 930.66666666667 572.66666666667 971 674 971 C 782 971 870.33333333333 927.66666666667 939 841 C 1007.66666666667 754.33333333333 1042 642.66666666667 1042 506 C 1042 351.33333333333 999.33333333333 223.33333333333 914 122 C 828.66666666667 20 719.33333333333 -31 586 -31 C 494.66666666667 -31 405.66666666667 8 319 86 L 162 -35 L 131 -35 L 131 1184 Z M 422 209 C 422 98.33333333333 467 43 557 43 C 629.66666666667 43 679.66666666667 79 707 151 C 734.33333333333 222.33333333333 748 334.33333333333 748 487 C 748 611.66666666667 733.66666666667 704 705 764 C 676.33333333333 824 628.33333333333 854 561 854 C 529.66666666667 854 500.33333333333 843.66666666667 473 823 C 445.66666666667 801.66666666667 428.66666666667 773 422 737 L 422 209 Z"/>
    <path fill="#000000" stroke="none" transform="matrix(1 0 0 -1 5727 2689)" d="M 1294 950 L 1331 952 L 1341 856 C 1341 750.66666666667 1311.66666666667 663 1253 593 C 1194.33333333333 522.33333333333 1112.66666666667 473.33333333333 1008 446 C 932.66666666667 300 834.33333333333 186 713 104 C 591 21.33333333333 457.66666666667 -20 313 -20 C 215 -20 137 7 79 61 C 21 114.33333333333 -8 189 -8 285 C -8 339.66666666667 8.66666666667 385.66666666667 42 423 C 75.33333333333 460.33333333333 115.33333333333 479 162 479 C 201.33333333333 479 232.66666666667 468.66666666667 256 448 C 279.33333333333 426.66666666667 291 400.33333333333 291 369 C 291 281.66666666667 241.66666666667 238 143 238 C 93 238 68 219.33333333333 68 182 C 68 136 89.33333333333 97 132 65 C 174 32.33333333333 232.33333333333 16 307 16 C 375.66666666667 16 441 45.66666666667 503 105 C 565 163.66666666667 637.66666666667 274 721 436 C 639 456.66666666667 574 497.33333333333 526 558 C 477.33333333333 618.66666666667 453 688 453 766 C 453 891.33333333333 501.66666666667 1005.33333333333 599 1108 C 696.33333333333 1210.66666666667 839.33333333333 1299.33333333333 1028 1374 C 1216.66666666667 1448 1401.66666666667 1485 1583 1485 L 1583 1454 C 1497 1448.66666666667 1425.33333333333 1408.66666666667 1368 1334 C 1310.66666666667 1258.66666666667 1254 1133.33333333333 1198 958 L 1083 629 L 1022 487 C 1110.66666666667 511.66666666667 1180 556 1230 620 C 1280 683.33333333333 1305 760 1305 850 C 1305 876 1301.33333333333 909.33333333333 1294 950 Z M 1423 1440 C 1281 1412.66666666667 1164.66666666667 1375.33333333333 1074 1328 C 983.33333333333 1280.66666666667 899.33333333333 1219.66666666667 822 1145 C 744 1069.66666666667 682 990 636 906 C 590 822 567 742.66666666667 567 668 C 567 629.33333333333 573.33333333333 598 586 574 C 598 549.33333333333 614.66666666667 529 636 513 C 657.33333333333 497 691 482.33333333333 737 469 L 868 725 C 1037.33333333333 1057 1222.33333333333 1295.33333333333 1423 1440 Z"/>
    <path fill="#000000" stroke="none" transform="matrix(1 0 0 -1 7249 2689)" d="M 694 -31 L 649 -14 C 739 334 784 594 784 766 C 784 927.33333333333 754.66666666667 1055.33333333333 696 1150 C 637.33333333333 1244.66666666667 558.33333333333 1292 459 1292 C 348.33333333333 1292 265.66666666667 1238 211 1130 L 170 1141 C 175.33333333333 1180.33333333333 197.33333333333 1225.66666666667 236 1277 C 274 1328.33333333333 320 1369.66666666667 374 1401 C 428 1432.33333333333 489 1448 557 1448 C 795.66666666667 1448 915 1285.66666666667 915 961 C 915 893.66666666667 911.66666666667 826 905 758 L 932 758 C 1038.66666666667 1002 1148.66666666667 1176.33333333333 1262 1281 C 1375.33333333333 1385.66666666667 1496.66666666667 1438 1626 1438 C 1766.66666666667 1438 1838.33333333333 1373 1841 1243 L 1833 1120 L 1782 1114 C 1778 1164.66666666667 1771 1200.66666666667 1761 1222 C 1750.33333333333 1242.66666666667 1734.33333333333 1259.33333333333 1713 1272 C 1691.66666666667 1284 1662.66666666667 1290 1626 1290 C 1529.33333333333 1290 1424.33333333333 1238.33333333333 1311 1135 C 1197.66666666667 1031 1106 900.66666666667 1036 744 C 965.33333333333 586.66666666667 914.33333333333 351.66666666667 883 39 L 694 -31 Z"/>
    <path fill="#000000" stroke="none" transform="matrix(1 0 0 -1 9548 2689)" d="M 1460 1169 L 1460 793 L 104 793 L 104 1169 L 236 1169 L 236 938 L 1329 938 L 1329 1169 L 1460 1169 Z M 1329 289 L 1329 520 L 236 520 L 236 289 L 104 289 L 104 666 L 1460 666 L 1460 289 L 1329 289 Z"/>
    <path fill="#000000" stroke="none" transform="matrix(1 0 0 -1 11113 2689)" d="M -23 -403 L -47 -381 L 160 647 C 210.66666666667 895.66666666667 296.33333333333 1087.33333333333 417 1222 C 537.66666666667 1356 686.66666666667 1423 864 1423 C 957.33333333333 1423 1030.66666666667 1404.66666666667 1084 1368 C 1136.66666666667 1331.33333333333 1163 1280 1163 1214 C 1163 1116 1121.33333333333 1025.33333333333 1038 942 C 954.66666666667 858.66666666667 866 811.66666666667 772 801 L 770 784 L 829 780 C 930.33333333333 770.66666666667 1011.33333333333 741 1072 691 C 1132.66666666667 641 1163 574.66666666667 1163 492 C 1163 397.33333333333 1135 311 1079 233 C 1023 154.33333333333 948.33333333333 92 855 46 C 761.66666666667 0 665 -23 565 -23 C 441 -23 361.33333333333 1 326 49 L 317 68 L 322 78 L 471 229 L 494 223 C 494 109.66666666667 535.33333333333 53 618 53 C 674 53 724 75.33333333333 768 120 C 812 164 847 222.66666666667 873 296 C 898.33333333333 369.33333333333 911 440 911 508 C 908.33333333333 578.66666666667 881.66666666667 630.66666666667 831 664 C 779.66666666667 696.66666666667 689 713 559 713 L 516 713 L 528 780 C 640 782.66666666667 738.66666666667 823 824 901 C 909.33333333333 979 952 1070 952 1174 C 950.66666666667 1231.33333333333 932 1272 896 1296 C 860 1319.33333333333 818.66666666667 1331 772 1331 C 684.66666666667 1331 612 1298.66666666667 554 1234 C 496 1169.33333333333 455.33333333333 1075.33333333333 432 952 L 211 -315 L -23 -403 Z"/>
    <path fill="#000000" stroke="none" transform="matrix(1 0 0 -1 12356 2689)" d="M 1669 639 C 1669 499 1634.33333333333 368.66666666667 1565 248 C 1495 127.33333333333 1399.66666666667 32 1279 -38 C 1158.33333333333 -108 1027.66666666667 -143 887 -143 C 745.66666666667 -143 614.33333333333 -107.33333333333 493 -36 C 371.66666666667 34.66666666667 276.66666666667 130.33333333333 208 251 C 138.66666666667 371 104 500.33333333333 104 639 C 104 777.66666666667 138.66666666667 907.33333333333 208 1028 C 276.66666666667 1148 371.66666666667 1243.66666666667 493 1315 C 613.66666666667 1385.66666666667 745 1421 887 1421 C 1027 1421 1157.33333333333 1386.33333333333 1278 1317 C 1398.66666666667 1247 1494 1151.66666666667 1564 1031 C 1634 910.33333333333 1669 779.66666666667 1669 639 Z M 1579 635 C 1579 759.66666666667 1548.33333333333 875.66666666667 1487 983 C 1425 1090.33333333333 1340.66666666667 1175.33333333333 1234 1238 C 1127.33333333333 1300 1011.66666666667 1331 887 1331 C 763 1331 647.66666666667 1300 541 1238 C 434.33333333333 1176 350 1091.33333333333 288 984 C 226 876.66666666667 195 760.33333333333 195 635 C 195 510.33333333333 226 395 288 289 C 350 182.33333333333 434.33333333333 98.66666666667 541 38 C 647.66666666667 -22.66666666667 763 -53 887 -53 C 1011 -53 1126.66666666667 -22.33333333333 1234 39 C 1340.66666666667 99.66666666667 1425 183 1487 289 C 1548.33333333333 395 1579 510.33333333333 1579 635 Z M 1018 676 C 1086.66666666667 661.33333333333 1140.66666666667 630.66666666667 1180 584 C 1219.33333333333 537.33333333333 1239 480 1239 412 C 1239 321.33333333333 1206.66666666667 247.66666666667 1142 191 C 1077.33333333333 134.33333333333 992.33333333333 106 887 106 C 780.33333333333 106 695 134.33333333333 631 191 C 567 247 535 322 535 416 C 535 552 610 638.66666666667 760 676 C 692 692.66666666667 640.33333333333 722 605 764 C 569 805.33333333333 551 858 551 922 C 551 997.33333333333 582 1059.33333333333 644 1108 C 706 1156 787 1180 887 1180 C 985.66666666667 1180 1066.33333333333 1156.33333333333 1129 1109 C 1191.66666666667 1061 1223 998.66666666667 1223 922 C 1223 857.33333333333 1205.33333333333 803.33333333333 1170 760 C 1134.66666666667 716 1084 688 1018 676 Z M 1079 909 C 1077.66666666667 959.66666666667 1060.33333333333 1000.33333333333 1027 1031 C 993 1061.66666666667 945 1077 883 1077 C 831.66666666667 1077 788 1061 752 1029 C 716 996.33333333333 698 956.33333333333 698 909 C 698 857.66666666667 715 817 749 787 C 782.33333333333 756.33333333333 828.33333333333 741 887 741 C 945.66666666667 741 992.33333333333 756.33333333333 1027 787 C 1061.66666666667 817 1079 857.66666666667 1079 909 Z M 1087 416 C 1087 476.66666666667 1069.33333333333 525 1034 561 C 998.66666666667 596.33333333333 949.66666666667 614 887 614 C 827 614 778.66666666667 595.33333333333 742 558 C 704.66666666667 520.66666666667 686 473.33333333333 686 416 C 686 359.33333333333 704.33333333333 313.33333333333 741 278 C 777.66666666667 242.66666666667 825 225 883 225 C 943.66666666667 225 993 243 1031 279 C 1068.33333333333 315 1087 360.66666666667 1087 416 Z"/>
    <path fill="#000000" stroke="none" transform="matrix(1 0 0 -1 14130 2689)" d="M 311 1288 C 311 1333.33333333333 323 1368.66666666667 347 1394 C 370.33333333333 1419.33333333333 402.66666666667 1432 444 1432 C 483.33333333333 1432 515 1419.66666666667 539 1395 C 563 1369.66666666667 575 1334 575 1288 C 575 1243.33333333333 563.33333333333 1208.33333333333 540 1183 C 516 1157.66666666667 484 1145 444 1145 C 403.33333333333 1145 371 1157.66666666667 347 1183 C 323 1207.66666666667 311 1242.66666666667 311 1288 Z M 858 1288 C 858 1333.33333333333 870 1368.66666666667 894 1394 C 917.33333333333 1419.33333333333 949.66666666667 1432 991 1432 C 1030.33333333333 1432 1062 1419.66666666667 1086 1395 C 1110 1369.66666666667 1122 1334 1122 1288 C 1122 1243.33333333333 1110.33333333333 1208.33333333333 1087 1183 C 1063 1157.66666666667 1031 1145 991 1145 C 950.33333333333 1145 918 1157.66666666667 894 1183 C 870 1207.66666666667 858 1242.66666666667 858 1288 Z M 311 264 C 311 309.33333333333 323 344.66666666667 347 370 C 370.33333333333 395.33333333333 402.66666666667 408 444 408 C 483.33333333333 408 515 395.66666666667 539 371 C 563 345.66666666667 575 310 575 264 C 575 219.33333333333 563.33333333333 184.33333333333 540 159 C 516 133.66666666667 484 121 444 121 C 403.33333333333 121 371 133.66666666667 347 159 C 323 183.66666666667 311 218.66666666667 311 264 Z M 858 264 C 858 309.33333333333 870 344.66666666667 894 370 C 917.33333333333 395.33333333333 949.66666666667 408 991 408 C 1030.33333333333 408 1062 395.66666666667 1086 371 C 1110 345.66666666667 1122 310 1122 264 C 1122 219.33333333333 1110.33333333333 184.33333333333 1087 159 C 1063 133.66666666667 1031 121 991 121 C 950.33333333333 121 918 133.66666666667 894 159 C 870 183.66666666667 858 218.66666666667 858 264 Z"/>
    <path fill="#000000" stroke="none" transform="matrix(1 0 0 -1 15564 2689)" d="M 1544 823 L 1544 639 L 82 117 L 82 309 L 1319 729 L 82 1153 L 82 1346 L 1544 823 Z"/>
    <path fill="#000000" stroke="none" transform="matrix(1 0 0 -1 17135 2689)" d="M 274 1331 L 659 506 L 659 1331 L 803 1331 L 803 508 L 1186 1331 L 1356 1331 L 782 143 L 680 143 L 104 1331 L 274 1331 Z"/>
    <path fill="#000000" stroke="none" transform="matrix(1 0 0 -1 19127 2689)" d="M 868 596 L 868 973 L 909 973 L 909 596 L 868 596 Z M 1622 1202 C 1649.33333333333 1202 1664.66666666667 1199 1668 1193 C 1671.33333333333 1187 1673 1172.33333333333 1673 1149 L 1673 422 C 1673 397.33333333333 1671.33333333333 382 1668 376 C 1664.66666666667 370 1649.33333333333 367 1622 367 L 156 367 C 128.66666666667 367 113.33333333333 370 110 376 C 106 382 104 397.33333333333 104 422 L 104 1149 C 104 1172.33333333333 106 1187 110 1193 C 113.33333333333 1199 128.66666666667 1202 156 1202 L 1622 1202 Z M 145 1161 L 145 408 L 1632 408 L 1632 1161 L 145 1161 Z M 227 985 C 227 1005.66666666667 234.33333333333 1023.33333333333 249 1038 C 263 1052 280.33333333333 1059 301 1059 C 321.66666666667 1059 339.33333333333 1052 354 1038 C 368 1023.33333333333 375 1005.66666666667 375 985 C 375 964.33333333333 368 947 354 933 C 339.33333333333 918.33333333333 321.66666666667 911 301 911 C 280.33333333333 911 263 918.33333333333 249 933 C 234.33333333333 947 227 964.33333333333 227 985 Z M 643 584 C 643 604 650.33333333333 621.33333333333 665 636 C 679 650 696.33333333333 657 717 657 C 737.66666666667 657 755.33333333333 650 770 636 C 784 621.33333333333 791 604 791 584 C 791 563.33333333333 784 546 770 532 C 755.33333333333 517.33333333333 737.66666666667 510 717 510 C 696.33333333333 510 679 517.33333333333 665 532 C 650.33333333333 546 643 563.33333333333 643 584 Z M 987 985 C 987 1005.66666666667 994.33333333333 1023.33333333333 1009 1038 C 1023 1052 1040.33333333333 1059 1061 1059 C 1081.66666666667 1059 1099.33333333333 1052 1114 1038 C 1128 1023.33333333333 1135 1005.66666666667 1135 985 C 1135 964.33333333333 1128 947 1114 933 C 1099.33333333333 918.33333333333 1081.66666666667 911 1061 911 C 1040.33333333333 911 1023 918.33333333333 1009 933 C 994.33333333333 947 987 964.33333333333 987 985 Z M 1403 584 C 1403 604 1410.33333333333 621.33333333333 1425 636 C 1439 650 1456.33333333333 657 1477 657 C 1497 657 1514.33333333333 650 1529 636 C 1543 621.33333333333 1550 604 1550 584 C 1550 563.33333333333 1543 546 1529 532 C 1514.33333333333 517.33333333333 1497 510 1477 510 C 1456.33333333333 510 1439 517.33333333333 1425 532 C 1410.33333333333 546 1403 563.33333333333 1403 584 Z"/>
    <path fill="#000000" stroke="none" transform="matrix(1 0 0 -1 20905 2689)" d="M 668 70 C 793.33333333333 134 911.33333333333 226.33333333333 1022 347 C 1132.66666666667 467.66666666667 1260.33333333333 654.33333333333 1405 907 C 1481.66666666667 1042.33333333333 1547.66666666667 1138.33333333333 1603 1195 C 1658.33333333333 1251.66666666667 1696.66666666667 1280 1718 1280 C 1730.66666666667 1280 1737 1277.33333333333 1737 1272 C 1737 1264 1730 1255 1716 1245 C 1662.66666666667 1207 1617 1162.66666666667 1579 1112 C 1541 1061.33333333333 1482.33333333333 967 1403 829 C 1322.33333333333 687 1252.33333333333 576.33333333333 1193 497 C 1133.66666666667 417 1064.66666666667 337.66666666667 986 259 C 907.33333333333 180.33333333333 829.66666666667 115.33333333333 753 64 C 675.66666666667 12 623.33333333333 -14 596 -14 C 580.66666666667 -14 573 -9.33333333333 573 0 C 573 8 578 17.66666666667 588 29 C 637.33333333333 90.33333333333 670.66666666667 177 688 289 L 700 381 C 712.66666666667 502.33333333333 743 610.66666666667 791 706 C 838.33333333333 800.66666666667 923.66666666667 923 1047 1073 C 945.66666666667 995 862 934.66666666667 796 892 C 729.33333333333 848.66666666667 675 827 633 827 C 574.33333333333 827 545 855 545 911 C 545 933 551 954.66666666667 563 976 C 574.33333333333 997.33333333333 587 1017.33333333333 601 1036 C 614.33333333333 1054 626.66666666667 1070.66666666667 638 1086 C 649.33333333333 1100.66666666667 655 1112 655 1120 C 655 1131.33333333333 647 1137 631 1137 C 621 1137 598.33333333333 1127.33333333333 563 1108 C 527.66666666667 1088.66666666667 485.33333333333 1056 436 1010 C 376 954 333.66666666667 908.66666666667 309 874 C 284.33333333333 838.66666666667 264.66666666667 821 250 821 C 238.66666666667 821 233 825.33333333333 233 834 C 233 855.33333333333 287.33333333333 917 396 1019 C 504.66666666667 1120.33333333333 588.33333333333 1171 647 1171 C 679.66666666667 1171 705.33333333333 1161.66666666667 724 1143 C 742.66666666667 1123.66666666667 752 1097 752 1063 C 752 1027.66666666667 741.66666666667 995.33333333333 721 966 C 700.33333333333 936.66666666667 676.33333333333 902 649 862 C 723 884 821.33333333333 942 944 1036 C 1066.66666666667 1129.33333333333 1146 1194.33333333333 1182 1231 C 1205.33333333333 1254.33333333333 1223.66666666667 1266 1237 1266 C 1245 1266 1249 1260.33333333333 1249 1249 C 1249 1241 1244.33333333333 1231.66666666667 1235 1221 C 1176.33333333333 1153.66666666667 1133.33333333333 1082.66666666667 1106 1008 L 1044 786 C 1002 624 951 488.66666666667 891 380 C 831 271.33333333333 756.66666666667 168 668 70 Z"/>
    <path fill="#000000" stroke="none" transform="matrix(1 0 0 -1 22128 2689)" d="M 506 -20 C 384 -20 288.33333333333 29.33333333333 219 128 C 149.66666666667 226.66666666667 115 361.33333333333 115 532 C 115 639.33333333333 125 737.33333333333 145 826 C 164.33333333333 914 194.66666666667 1004.66666666667 236 1098 L 420 1098 C 376 998.66666666667 344.33333333333 905.66666666667 325 819 C 305 732.33333333333 295 636 295 530 C 295 404 314.66666666667 305.66666666667 354 235 C 392.66666666667 164.33333333333 447.33333333333 129 518 129 C 581.33333333333 129 630 152.66666666667 664 200 C 698 247.33333333333 715 312.33333333333 715 395 L 715 705 L 887 705 L 887 395 C 887 309.66666666667 904 244 938 198 C 971.33333333333 152 1019 129 1081 129 C 1150.33333333333 129 1205.33333333333 162.66666666667 1246 230 C 1286.66666666667 297.33333333333 1307 397.33333333333 1307 530 C 1307 634.66666666667 1297.33333333333 731 1278 819 C 1258 907 1226 1000 1182 1098 L 1366 1098 C 1410 995.33333333333 1441.33333333333 901 1460 815 C 1478 729 1487 634.66666666667 1487 532 C 1487 360.66666666667 1452.33333333333 226 1383 128 C 1313.66666666667 29.33333333333 1218 -20 1096 -20 C 948 -20 851 41.33333333333 805 164 L 795 164 C 751.66666666667 41.33333333333 655.33333333333 -20 506 -20 Z M 1518 -160 L 1518 -305 L 84 -305 L 84 -160 L 1518 -160 Z"/>
    <path fill="#000000" stroke="none" transform="matrix(1 0 0 -1 23730 2689)" d="M 154 1210 L 199 1473 L 1278 1473 L 1231 1210 L 154 1210 Z M 145 629 L 190 889 L 1126 889 L 1079 629 L 145 629 Z M -23 0 L 23 260 L 1137 260 L 1090 0 L -23 0 Z"/>
    <path fill="#000000" stroke="none" transform="matrix(1 0 0 -1 24985 2689)" d="M 1241 227 L 1270 193 C 1189.33333333333 108.33333333333 1124.33333333333 50.33333333333 1075 19 C 1025.66666666667 -13 981.33333333333 -29 942 -29 C 865.33333333333 -29 822.33333333333 28.33333333333 813 143 C 660.33333333333 32.33333333333 538 -23 446 -23 C 366 -23 308 1.66666666667 272 51 L 266 51 C 266 -119.66666666667 283.66666666667 -252 319 -346 L 180 -414 L 143 -379 C 166.33333333333 -100.33333333333 178 181 178 465 C 178 641 174.66666666667 788.33333333333 168 907 L 383 977 L 403 956 L 391 717 L 385 520 C 385 394.66666666667 396 298 418 230 C 440 161.33333333333 485.66666666667 127 555 127 C 646.33333333333 127 731 161.66666666667 809 231 L 817 498 C 817 650.66666666667 813.66666666667 783.66666666667 807 897 L 1001 971 L 1034 952 C 1026 694 1022 513.33333333333 1022 410 C 1022 324 1028.66666666667 262 1042 224 C 1054.66666666667 185.33333333333 1075.33333333333 166 1104 166 C 1135.33333333333 166 1161.66666666667 173.66666666667 1183 189 C 1203.66666666667 203.66666666667 1223 216.33333333333 1241 227 Z"/>
    <path fill="#000000" stroke="none" transform="matrix(1 0 0 -1 26275 2689)" d="M 172 731 C 172 581 210.33333333333 440.33333333333 287 309 C 363 177 467 72.33333333333 599 -5 C 731 -82.33333333333 872.66666666667 -121 1024 -121 C 1175.33333333333 -121 1316.66666666667 -82.66666666667 1448 -6 C 1579.33333333333 70.66666666667 1683.66666666667 175 1761 307 C 1837.66666666667 438.33333333333 1876 579.66666666667 1876 731 C 1876 882.33333333333 1838 1023.66666666667 1762 1155 C 1685.33333333333 1286.33333333333 1581 1390.66666666667 1449 1468 C 1317 1544.66666666667 1175.33333333333 1583 1024 1583 C 874 1583 733 1545 601 1469 C 469 1392.33333333333 364.66666666667 1288 288 1156 C 210.66666666667 1024 172 882.33333333333 172 731 Z M 293 731 C 293 600.33333333333 325.33333333333 478.66666666667 390 366 C 454.66666666667 253.33333333333 543.33333333333 164.33333333333 656 99 C 768.66666666667 33 891.33333333333 0 1024 0 C 1155.33333333333 0 1277.33333333333 32.66666666667 1390 98 C 1502.66666666667 162.66666666667 1591.66666666667 251.33333333333 1657 364 C 1722.33333333333 476 1755 598.33333333333 1755 731 C 1755 862.33333333333 1722.66666666667 984.33333333333 1658 1097 C 1593.33333333333 1209.66666666667 1504.66666666667 1298.66666666667 1392 1364 C 1279.33333333333 1429.33333333333 1156.66666666667 1462 1024 1462 C 892.66666666667 1462 770.66666666667 1429.66666666667 658 1365 C 545.33333333333 1300.33333333333 456.33333333333 1211.66666666667 391 1099 C 325.66666666667 986.33333333333 293 863.66666666667 293 731 Z M 111 731 C 111 893.66666666667 152 1045.66666666667 234 1187 C 315.33333333333 1328.33333333333 426.66666666667 1440 568 1522 C 709.33333333333 1604 861.33333333333 1645 1024 1645 C 1186.66666666667 1645 1338.66666666667 1604 1480 1522 C 1621.33333333333 1440 1733 1328.33333333333 1815 1187 C 1896.33333333333 1045.66666666667 1937 893.66666666667 1937 731 C 1937 568.33333333333 1896.33333333333 416.33333333333 1815 275 C 1733 133.66666666667 1621.33333333333 22.33333333333 1480 -59 C 1338.66666666667 -141 1186.66666666667 -182 1024 -182 C 861.33333333333 -182 709.33333333333 -141 568 -59 C 426.66666666667 22.33333333333 315.33333333333 133.66666666667 234 275 C 152 416.33333333333 111 568.33333333333 111 731 Z M 231 731 C 231 873 266.66666666667 1005.66666666667 338 1129 C 408.66666666667 1251.66666666667 506 1348.33333333333 630 1419 C 753.33333333333 1489 884.66666666667 1524 1024 1524 C 1166 1524 1298.66666666667 1488.66666666667 1422 1418 C 1544.66666666667 1346.66666666667 1641.33333333333 1249.33333333333 1712 1126 C 1782 1002 1817 870.33333333333 1817 731 C 1817 589 1781.66666666667 456.66666666667 1711 334 C 1639.66666666667 211.33333333333 1542.33333333333 115 1419 45 C 1295 -25.66666666667 1163.33333333333 -61 1024 -61 C 882 -61 749.66666666667 -25.33333333333 627 46 C 503.66666666667 116.66666666667 407 213.66666666667 337 337 C 266.33333333333 460.33333333333 231 591.66666666667 231 731 Z M 682 1171 L 829 1171 L 829 295 L 690 295 L 690 956 L 694 1042 C 669.33333333333 1018 610.66666666667 971 518 901 L 449 1001 L 682 1171 Z M 1135 733 C 1135 623.66666666667 1145.66666666667 540.33333333333 1167 483 C 1187.66666666667 425.66666666667 1223.33333333333 397 1274 397 C 1369.33333333333 397 1417 509.66666666667 1417 735 C 1417 957.66666666667 1369.33333333333 1069 1274 1069 C 1223.33333333333 1069 1187.66666666667 1040.66666666667 1167 984 C 1145.66666666667 927.33333333333 1135 843.66666666667 1135 733 Z M 1556 735 C 1556 429 1462 276 1274 276 C 1086.66666666667 276 993 429 993 735 C 993 1037 1086.66666666667 1188 1274 1188 C 1462 1188 1556 1037 1556 735 Z"/>
    <path fill="#000000" stroke="none" transform="matrix(1 0 0 -1 28855 2689)" d="M 522 662 C 522 453.33333333333 494.33333333333 272.66666666667 439 120 C 383.66666666667 -32.66666666667 302.33333333333 -154 195 -244 L 20 -244 C 141.33333333333 -137.33333333333 226.33333333333 -18 275 114 C 323.66666666667 246 348 428.66666666667 348 662 L 348 1710 L 522 1710 L 522 662 Z"/>
    <path fill="#000000" stroke="none" transform="matrix(1 0 0 -1 29482 2689)" d="M 336 989 L 100 989 L 109 1026 L 270 1098 L 1567 1098 L 1544 989 L 1323 989 L 1202 436 C 1190 384 1184 342.33333333333 1184 311 C 1184 266.33333333333 1212 244 1268 244 C 1303.33333333333 244 1336.66666666667 250.66666666667 1368 264 L 1315 10 C 1264.33333333333 -10 1195.33333333333 -20 1108 -20 C 1022 -20 952.33333333333 4.66666666667 899 54 C 845.66666666667 102.66666666667 819 165.33333333333 819 242 C 819 262 820.66666666667 285.33333333333 824 312 C 827.33333333333 338.66666666667 875.66666666667 564.33333333333 969 989 L 690 989 L 481 0 L 127 0 L 336 989 Z M 932 242 C 932 190 949.33333333333 150.33333333333 984 123 C 1018.66666666667 95.66666666667 1064.66666666667 82 1122 82 C 1168.66666666667 82 1205.66666666667 84.66666666667 1233 90 L 1247 166 L 1239 166 C 1183 166 1141.66666666667 177.66666666667 1115 201 C 1088.33333333333 224.33333333333 1075 260.33333333333 1075 309 C 1075 340.33333333333 1081.33333333333 382.66666666667 1094 436 L 1212 989 L 1079 989 L 956 418 C 940 352 932 293.33333333333 932 242 Z M 256 100 L 393 100 L 582 989 L 444 989 L 256 100 Z"/>
    <path fill="#000000" stroke="none" transform="matrix(1 0 0 -1 31073 2689)" d="M 102 1499 C 102 1527.66666666667 106.66666666667 1546.66666666667 116 1556 C 124.66666666667 1564.66666666667 143.33333333333 1569 172 1569 L 1208 1569 C 1236.66666666667 1569 1255.66666666667 1564.66666666667 1265 1556 C 1273.66666666667 1546.66666666667 1278 1527.66666666667 1278 1499 L 1278 70 C 1278 41.33333333333 1273.66666666667 22.66666666667 1265 14 C 1255.66666666667 4.66666666667 1236.66666666667 0 1208 0 L 172 0 C 143.33333333333 0 124.66666666667 4.66666666667 116 14 C 106.66666666667 22.66666666667 102 41.33333333333 102 70 L 102 1499 Z M 131 82 C 131 57.33333333333 134.33333333333 42.33333333333 141 37 C 147 31.66666666667 161.33333333333 29 184 29 L 1196 29 C 1219.33333333333 29 1234 31.66666666667 1240 37 C 1246 42.33333333333 1249 57.33333333333 1249 82 L 1249 1487 C 1249 1511.66666666667 1246 1526.66666666667 1240 1532 C 1234 1537.33333333333 1219.33333333333 1540 1196 1540 L 184 1540 C 161.33333333333 1540 147 1537.33333333333 141 1532 C 134.33333333333 1526.66666666667 131 1511.66666666667 131 1487 L 131 82 Z M 231 1303 C 238.33333333333 1287.66666666667 249.33333333333 1273.66666666667 264 1261 C 278 1247.66666666667 285 1233.66666666667 285 1219 C 285 1201 276.66666666667 1192 260 1192 C 248 1192 240 1198.66666666667 236 1212 L 233 1212 L 233 1204 L 240 1174 L 223 1174 L 229 1204 L 229 1212 L 227 1212 C 223 1198.66666666667 215 1192 203 1192 C 186.33333333333 1192 178 1201 178 1219 C 178 1233.66666666667 185.33333333333 1247.66666666667 200 1261 C 214 1273.66666666667 224.33333333333 1287.66666666667 231 1303 Z M 455 1434 C 460.33333333333 1418.66666666667 469 1404.33333333333 481 1391 C 533 1329 559 1287.33333333333 559 1266 C 559 1248 554 1234.33333333333 544 1225 C 533.33333333333 1215 522.66666666667 1210 512 1210 C 488.66666666667 1210 471.66666666667 1224.33333333333 461 1253 L 459 1253 L 459 1239 C 459 1211.66666666667 463.66666666667 1190 473 1174 L 436 1174 C 446 1190 451 1211.66666666667 451 1239 L 451 1253 L 449 1253 C 437.66666666667 1224.33333333333 420.33333333333 1210 397 1210 C 386.33333333333 1210 376 1215 366 1225 C 355.33333333333 1234.33333333333 350 1248 350 1266 C 350 1284.66666666667 364.33333333333 1312 393 1348 C 427 1391.33333333333 447.66666666667 1420 455 1434 Z M 924 1434 C 929.33333333333 1418.66666666667 938 1404.33333333333 950 1391 C 1002 1329 1028 1287.33333333333 1028 1266 C 1028 1248 1023 1234.33333333333 1013 1225 C 1002.33333333333 1215 991.66666666667 1210 981 1210 C 957.66666666667 1210 940.66666666667 1224.33333333333 930 1253 L 928 1253 L 928 1239 C 928 1211.66666666667 932.66666666667 1190 942 1174 L 905 1174 C 915 1190 920 1211.66666666667 920 1239 L 920 1253 L 918 1253 C 906.66666666667 1224.33333333333 889.33333333333 1210 866 1210 C 855.33333333333 1210 845 1215 835 1225 C 824.33333333333 1234.33333333333 819 1248 819 1266 C 819 1284.66666666667 833.33333333333 1312 862 1348 C 896 1391.33333333333 916.66666666667 1420 924 1434 Z M 926 135 L 899 180 C 866.33333333333 218.66666666667 845.33333333333 245.66666666667 836 261 C 826 275.66666666667 821 289.66666666667 821 303 C 821 321 826.33333333333 334.66666666667 837 344 C 847 353.33333333333 857.33333333333 358 868 358 C 891.33333333333 358 908.66666666667 343.66666666667 920 315 L 922 315 L 922 330 C 922 357.33333333333 917 379 907 395 L 944 395 C 934.66666666667 379 930 357.33333333333 930 330 L 930 315 L 932 315 C 942.66666666667 343.66666666667 959.66666666667 358 983 358 C 993.66666666667 358 1004.33333333333 353.33333333333 1015 344 C 1025 334.66666666667 1030 321 1030 303 C 1030 281 1004 240 952 180 C 940 165.33333333333 931.33333333333 150.33333333333 926 135 Z M 457 135 L 430 180 C 397.33333333333 218.66666666667 376.33333333333 245.66666666667 367 261 C 357 275.66666666667 352 289.66666666667 352 303 C 352 321 357.33333333333 334.66666666667 368 344 C 378 353.33333333333 388.33333333333 358 399 358 C 422.33333333333 358 439.66666666667 343.66666666667 451 315 L 453 315 L 453 330 C 453 357.33333333333 448 379 438 395 L 475 395 C 465.66666666667 379 461 357.33333333333 461 330 L 461 315 L 463 315 C 473.66666666667 343.66666666667 490.66666666667 358 514 358 C 524.66666666667 358 535.33333333333 353.33333333333 546 344 C 556 334.66666666667 561 321 561 303 C 561 281 535 240 483 180 C 471 165.33333333333 462.33333333333 150.33333333333 457 135 Z M 455 918 C 460.33333333333 902.66666666667 469 888 481 874 C 533 812.66666666667 559 771.33333333333 559 750 C 559 732 554 718.33333333333 544 709 C 533.33333333333 699 522.66666666667 694 512 694 C 488.66666666667 694 471.66666666667 708.33333333333 461 737 L 459 737 L 459 723 C 459 695.66666666667 463.66666666667 673.66666666667 473 657 L 436 657 C 446 673.66666666667 451 695.66666666667 451 723 L 451 737 L 449 737 C 437.66666666667 708.33333333333 420.33333333333 694 397 694 C 386.33333333333 694 376 699 366 709 C 355.33333333333 718.33333333333 350 732 350 750 C 350 768.66666666667 364.33333333333 795.66666666667 393 831 C 427 875 447.66666666667 904 455 918 Z M 924 918 C 929.33333333333 902.66666666667 938 888 950 874 C 1002 812.66666666667 1028 771.33333333333 1028 750 C 1028 732 1023 718.33333333333 1013 709 C 1002.33333333333 699 991.66666666667 694 981 694 C 957.66666666667 694 940.66666666667 708.33333333333 930 737 L 928 737 L 928 723 C 928 695.66666666667 932.66666666667 673.66666666667 942 657 L 905 657 C 915 673.66666666667 920 695.66666666667 920 723 L 920 737 L 918 737 C 906.66666666667 708.33333333333 889.33333333333 694 866 694 C 855.33333333333 694 845 699 835 709 C 824.33333333333 718.33333333333 819 732 819 750 C 819 768.66666666667 833.33333333333 795.66666666667 862 831 C 896 875 916.66666666667 904 924 918 Z M 281 1460 C 251 1435.33333333333 236 1397.33333333333 236 1346 L 205 1346 C 209 1389.33333333333 224.66666666667 1426.66666666667 252 1458 L 186 1458 L 186 1485 L 281 1485 L 281 1460 Z M 688 1169 C 693.33333333333 1154.33333333333 702.33333333333 1140 715 1126 C 767 1064.66666666667 793 1023 793 1001 C 793 983.66666666667 788 970.33333333333 778 961 C 767.33333333333 951 756.33333333333 946 745 946 C 722.33333333333 946 705.33333333333 960.33333333333 694 989 L 692 989 L 692 975 C 692 947.66666666667 697 925.66666666667 707 909 L 670 909 C 679.33333333333 925.66666666667 684 947.66666666667 684 975 L 684 989 L 682 989 C 671.33333333333 960.33333333333 654.33333333333 946 631 946 C 619.66666666667 946 609 951 599 961 C 589 970.33333333333 584 983.66666666667 584 1001 C 584 1020.33333333333 598.33333333333 1047.66666666667 627 1083 C 661 1127 681.33333333333 1155.66666666667 688 1169 Z M 1149 266 C 1142.33333333333 281.33333333333 1132 295.66666666667 1118 309 C 1103.33333333333 321.66666666667 1096 335.33333333333 1096 350 C 1096 368 1104 377 1120 377 C 1132.66666666667 377 1141 370 1145 356 L 1147 356 L 1147 365 L 1141 395 L 1157 395 L 1151 365 L 1151 356 L 1153 356 C 1157 370 1165.33333333333 377 1178 377 C 1194 377 1202 368 1202 350 C 1202 335.33333333333 1195 321.66666666667 1181 309 C 1166.33333333333 295.66666666667 1155.66666666667 281.33333333333 1149 266 Z M 1100 109 C 1130 133 1145 171 1145 223 L 1176 223 C 1171.33333333333 179.66666666667 1155.33333333333 142.33333333333 1128 111 L 1194 111 L 1194 84 L 1100 84 L 1100 109 Z"/>
    <path fill="#000000" stroke="none" transform="matrix(1 0 0 -1 32453 2689)" d="M 590 297 L 430 100 L 326 100 L 520 340 L 326 580 L 430 580 L 590 383 L 1247 383 C 1209 428.33333333333 1169.33333333333 494 1128 580 L 1200 580 C 1271.33333333333 496.66666666667 1346.33333333333 431 1425 383 L 1499 383 C 1461 428.33333333333 1421.33333333333 494 1380 580 L 1452 580 C 1536.66666666667 480 1626.66666666667 406 1722 358 L 1722 322 C 1626.66666666667 274 1536.66666666667 200 1452 100 L 1380 100 C 1421.33333333333 186 1461 251.66666666667 1499 297 L 1425 297 C 1346.33333333333 249 1271.33333333333 183.33333333333 1200 100 L 1128 100 C 1169.33333333333 186 1209 251.66666666667 1247 297 L 590 297 Z"/>
    <path fill="#000000" stroke="none" transform="matrix(1 0 0 -1 34501 2689)" d="M 1395 -111 L 1038 53 C 995.33333333333 -75.66666666667 938.66666666667 -198.33333333333 868 -315 L 717 -315 C 805 -181 871 -39 915 111 L 715 203 C 677.66666666667 31.66666666667 607.33333333333 -141 504 -315 L 352 -315 C 472 -136.33333333333 550 56 586 262 L 104 483 L 104 586 L 584 827 C 543.33333333333 1051 457.33333333333 1254.66666666667 326 1438 L 483 1438 C 593.66666666667 1262 670.33333333333 1080.33333333333 713 893 L 909 991 C 860.33333333333 1151 787.33333333333 1300 690 1438 L 848 1438 C 926 1312.66666666667 987.33333333333 1184.33333333333 1032 1053 L 1395 1237 L 1395 1077 L 1071 920 C 1102.33333333333 796 1118 670.33333333333 1118 543 C 1118 423 1104.33333333333 306.33333333333 1077 193 L 1395 49 L 1395 -111 Z M 754 543 C 754 471 749.66666666667 404 741 342 L 948 250 C 966 341.33333333333 975 439 975 543 C 975 654.33333333333 964 758.66666666667 942 856 L 739 758 C 749 690.66666666667 754 619 754 543 Z M 610 543 C 610 593 608 642.66666666667 604 692 L 297 543 L 604 403 C 608 449 610 495.66666666667 610 543 Z"/>
    <path fill="#000000" stroke="none" transform="matrix(1 0 0 -1 36000 2689)" d="M 1550 573 L 104 573 L 104 705 L 1550 705 L 1550 573 Z M 449 934 C 505 934 552.33333333333 951.66666666667 591 987 C 629.66666666667 1021.66666666667 652.33333333333 1066.66666666667 659 1122 L 793 1122 C 785 1030.66666666667 748.33333333333 953.33333333333 683 890 C 617.66666666667 826.66666666667 539.66666666667 795 449 795 C 358.33333333333 795 280.33333333333 826.66666666667 215 890 C 149 952.66666666667 112 1030 104 1122 L 238 1122 C 245.33333333333 1059.33333333333 265.66666666667 1012.33333333333 299 981 C 332.33333333333 949.66666666667 382.33333333333 934 449 934 Z M 1206 934 C 1262.66666666667 934 1310.66666666667 951.66666666667 1350 987 C 1388.66666666667 1021.66666666667 1411 1066.66666666667 1417 1122 L 1550 1122 C 1542 1028 1505 950 1439 888 C 1372.33333333333 826 1294.66666666667 795 1206 795 C 1116 795 1038.33333333333 826.66666666667 973 890 C 907 952.66666666667 870 1030 862 1122 L 995 1122 C 1004.33333333333 1055.33333333333 1026.33333333333 1007.33333333333 1061 978 C 1095 948.66666666667 1143.33333333333 934 1206 934 Z"/>
    <path fill="#000000" stroke="none" transform="matrix(1 0 0 -1 38187 2689)" d="M 104 1462 L 1386 1462 L 1386 0 L 104 0 L 104 1462 Z M 250 793 L 1241 1182 L 1241 1317 L 250 1317 L 250 793 Z M 1241 145 L 1241 281 L 250 668 L 250 145 L 1241 145 Z M 1241 438 L 1241 1022 L 434 731 L 1241 438 Z"/>
    <path fill="#000000" stroke="none" transform="matrix(1 0 0 -1 39678 2689)" d="M 141 559 L 82 582 C 121.33333333333 776.66666666667 164.33333333333 895.33333333333 211 938 C 241 964 299.66666666667 977 387 977 L 965 977 C 1021 977 1066 982 1100 992 C 1134 1001.33333333333 1170 1023.66666666667 1208 1059 L 1237 1028 L 1159 879 C 1143 847 1127 823 1111 807 C 1095 790.33333333333 1073.66666666667 782 1047 782 L 768 782 C 756 667.33333333333 750 568.33333333333 750 485 C 750 253 799.66666666667 137 899 137 C 940.33333333333 137 982 160.33333333333 1024 207 L 1051 152 C 1007 100 957.66666666667 57.66666666667 903 25 C 848.33333333333 -8.33333333333 795.66666666667 -25 745 -25 C 669 -25 615.33333333333 1.33333333333 584 54 C 552.66666666667 106.66666666667 537 209.33333333333 537 362 C 537 424 547.66666666667 564 569 782 L 352 782 C 319.33333333333 782 292.66666666667 776.33333333333 272 765 C 250.66666666667 753.66666666667 231.66666666667 737.33333333333 215 716 C 198.33333333333 694.66666666667 173.66666666667 642.33333333333 141 559 Z"/>
    <path fill="#000000" stroke="none" transform="matrix(1 0 0 -1 40946 2689)" d="M 1067 285 L 104 737 L 104 840 L 1067 1292 L 1067 1133 L 317 788 L 1067 444 L 1067 285 Z M 1067 53 L 1067 -106 L 104 346 L 104 506 L 1067 53 Z M 1055 1495 C 1055 1462.33333333333 1043.33333333333 1433.66666666667 1020 1409 C 996 1384.33333333333 966.66666666667 1372 932 1372 C 898 1372 869 1384 845 1408 C 821 1432 809 1461 809 1495 C 809 1529 821 1558 845 1582 C 869 1606 898 1618 932 1618 C 967.33333333333 1618 996.66666666667 1605.33333333333 1020 1580 C 1043.33333333333 1554.66666666667 1055 1526.33333333333 1055 1495 Z"/>
    <path fill="#000000" stroke="none" transform="matrix(1 0 0 -1 42117 2689)" d="M -102 47 C -39.33333333333 47 6.66666666667 59.66666666667 36 85 C 65.33333333333 110.33333333333 93 168.66666666667 119 260 L 350 1124 C 361.33333333333 1165.33333333333 367 1198.33333333333 367 1223 C 367 1259.66666666667 356 1285 334 1299 C 312 1312.33333333333 275 1321 223 1325 L 223 1374 L 1317 1374 L 1241 989 L 1184 989 L 1184 1008 C 1184 1116.66666666667 1155.33333333333 1194 1098 1240 C 1040.66666666667 1286 948.33333333333 1309 821 1309 C 763.66666666667 1309 727 1303 711 1291 C 694.33333333333 1278.33333333333 681.33333333333 1252 672 1212 L 553 764 L 610 764 C 719.33333333333 764 798.33333333333 780.33333333333 847 813 C 895.66666666667 845.66666666667 938.33333333333 901.66666666667 975 981 L 1026 981 L 881 416 L 836 416 L 838 457 L 838 496 C 838 569.33333333333 819 620.66666666667 781 650 C 742.33333333333 679.33333333333 679.33333333333 694 592 694 L 563 694 L 535 692 L 406 215 L 389 133 C 389 108.33333333333 398.66666666667 91.66666666667 418 83 C 436.66666666667 74.33333333333 472.66666666667 70 526 70 C 674 70 792.66666666667 94.66666666667 882 144 C 971.33333333333 192.66666666667 1055.66666666667 283.33333333333 1135 416 L 1186 416 L 1067 0 L -102 0 L -102 47 Z"/>
    <path fill="#000000" stroke="none" transform="matrix(1 0 0 -1 43460 2689)" d="M 684 487 L 586 500 L 498 496 C 361.33333333333 462.66666666667 293 393 293 287 C 293 227 318 179 368 143 C 417.33333333333 106.33333333333 487.33333333333 88 578 88 C 628 88 681 97.33333333333 737 116 C 793 134 868.33333333333 169.66666666667 963 223 L 985 186 C 929 136 844.33333333333 88.66666666667 731 44 C 617.66666666667 -0.66666666667 518 -23 432 -23 C 332.66666666667 -23 249.66666666667 -2.66666666667 183 38 C 115.66666666667 78 82 132.33333333333 82 201 C 82 271.66666666667 105.33333333333 334 152 388 C 198 442 258 481.33333333333 332 506 L 406 518 L 362 537 C 312 558.33333333333 287 605.33333333333 287 678 C 287 734 308.66666666667 788.33333333333 352 841 C 394.66666666667 893.66666666667 453 936 527 968 C 600.33333333333 1000 681.33333333333 1016 770 1016 C 842.66666666667 1016 901.66666666667 1004.66666666667 947 982 C 991.66666666667 959.33333333333 1020 939.33333333333 1032 922 L 930 788 L 907 788 C 900.33333333333 825.33333333333 877.66666666667 858.33333333333 839 887 C 799.66666666667 915.66666666667 751.33333333333 930 694 930 C 614.66666666667 930 549.66666666667 910.33333333333 499 871 C 447.66666666667 831 422 779 422 715 C 422 671 439.66666666667 640 475 622 C 510.33333333333 603.33333333333 571.66666666667 594 659 594 L 758 596 L 684 487 Z"/>
    <path fill="#000000" stroke="none" transform="matrix(1 0 0 -1 44521 2689)" d="M 641 477 C 679 432.33333333333 718.66666666667 367 760 281 L 688 281 C 603.33333333333 380.33333333333 513.33333333333 454 418 502 L 418 539 C 513.33333333333 586.33333333333 603.33333333333 660 688 760 L 760 760 C 718.66666666667 674 679 608.33333333333 641 563 L 1630 563 L 1630 477 L 641 477 Z M 1376 129 L 1208 129 L 1208 215 L 1376 215 L 1376 383 L 1462 383 L 1462 215 L 1630 215 L 1630 129 L 1462 129 L 1462 -39 L 1376 -39 L 1376 129 Z"/>
</svg>
