<svg width="40503" height="3789" viewBox="0 0 40503 3789" xmlns="http://www.w3.org/2000/svg">
    <defs/>
    <path fill="#000000" stroke="none" transform="matrix(1 0 0 -1 0 2689)" d="M 1579 1497 C 1711.66666666667 1418.33333333333 1813.33333333333 1313 1884 1181 C 1954 1048.33333333333 1989 898.33333333333 1989 731 C 1989 578.33333333333 1966.66666666667 445.33333333333 1922 332 C 1877.33333333333 218 1813.66666666667 131 1731 71 C 1647.66666666667 10.33333333333 1550.66666666667 -20 1440 -20 C 1344 -20 1262.66666666667 7.33333333333 1196 62 C 1129.33333333333 116.66666666667 1083 192.33333333333 1057 289 L 1051 289 C 983 83 855.33333333333 -20 668 -20 C 559.33333333333 -20 464 9.66666666667 382 69 C 300 127.66666666667 236.66666666667 212.66666666667 192 324 C 147.33333333333 435.33333333333 125 567 125 719 C 125 1075 268.33333333333 1333 555 1493 L 659 1370 C 541.66666666667 1299.33333333333 455.33333333333 1211 400 1105 C 344.66666666667 999 317 870.33333333333 317 719 C 317 602.33333333333 332 500.66666666667 362 414 C 391.33333333333 327.33333333333 433.33333333333 261.33333333333 488 216 C 542 170 604 147 674 147 C 778 147 852.33333333333 188 897 270 C 941 351.33333333333 963 479 963 653 L 963 1421 L 1147 1421 L 1147 653 C 1147 476.33333333333 1170.33333333333 348 1217 268 C 1263 187.33333333333 1336.66666666667 147 1438 147 C 1506 147 1567.33333333333 170 1622 216 C 1676 261.33333333333 1718.33333333333 327.33333333333 1749 414 C 1779 500 1794 601.66666666667 1794 719 C 1794 868.33333333333 1763.66666666667 1000 1703 1114 C 1642.33333333333 1227.33333333333 1556 1316 1444 1380 L 1579 1497 Z"/>
    <path fill="#000000" stroke="none" transform="matrix(1 0 0 -1 2114 2689)" d="M 942 0 L 762 0 L 762 465 C 554.66666666667 476.33333333333 392.33333333333 542.66666666667 275 664 C 157 785.33333333333 98 946.33333333333 98 1147 L 98 1278 L 283 1278 L 283 1167 C 283 1004.33333333333 325.33333333333 874.66666666667 410 778 C 494.66666666667 680.66666666667 612 629 762 623 L 762 1462 L 942 1462 L 942 623 C 1094 635.66666666667 1212 688.33333333333 1296 781 C 1379.33333333333 873 1421 1000.33333333333 1421 1163 L 1421 1278 L 1610 1278 L 1610 1145 C 1610 1022.33333333333 1583 910.66666666667 1529 810 C 1475 709.33333333333 1398 629 1298 569 C 1197.33333333333 508.33333333333 1078.66666666667 473.66666666667 942 465 L 942 0 Z"/>
    <path fill="#000000" stroke="none" transform="matrix(1 0 0 -1 3822 2689)" d="M 758 1462 C 836.66666666667 1462 898 1452.33333333333 942 1433 C 985.33333333333 1413 1016.66666666667 1384 1036 1346 C 1055.33333333333 1307.33333333333 1065 1241 1065 1147 L 891 1147 C 891 1204.33333333333 877.33333333333 1244 850 1266 C 822 1287.33333333333 771.33333333333 1298 698 1298 L 383 1298 L 383 0 L 199 0 L 199 1462 L 758 1462 Z"/>
    <path fill="#000000" stroke="none" transform="matrix(1 0 0 -1 4895 2689)" d="M 518 911 C 440 951 382.66666666667 987.33333333333 346 1020 C 309.33333333333 1052 282 1087 264 1125 C 245.33333333333 1163 236 1207 236 1257 C 236 1345.66666666667 275 1419 353 1477 C 430.33333333333 1534.33333333333 530.33333333333 1563 653 1563 C 792.33333333333 1563 938 1524 1090 1446 L 1020 1294 C 896.66666666667 1365.33333333333 772.33333333333 1401 647 1401 C 579 1401 524.66666666667 1387.33333333333 484 1360 C 442.66666666667 1332 422 1296.33333333333 422 1253 C 422 1221.66666666667 428.33333333333 1195 441 1173 C 453.66666666667 1150.33333333333 472.33333333333 1129.66666666667 497 1111 C 521.66666666667 1092.33333333333 552 1074 588 1056 C 624 1038 665 1017.66666666667 711 995 C 819.66666666667 943 903.66666666667 892 963 842 C 1021.66666666667 791.33333333333 1066.33333333333 735.33333333333 1097 674 C 1127.66666666667 612 1143 541.66666666667 1143 463 C 1143 368.33333333333 1122 284.33333333333 1080 211 C 1037.33333333333 137.66666666667 976 81 896 41 C 815.33333333333 0.33333333333 721.33333333333 -20 614 -20 C 462 -20 339.33333333333 22 246 106 C 152.66666666667 190 106 300.66666666667 106 438 C 106 548.66666666667 140.66666666667 644.33333333333 210 725 C 279.33333333333 805 382 867 518 911 Z M 956 461 C 956 536.33333333333 935 603 893 661 C 851 718.33333333333 778 774.33333333333 674 829 C 578.66666666667 802.33333333333 505.33333333333 772.33333333333 454 739 C 402.66666666667 705 363.33333333333 663.66666666667 336 615 C 308.66666666667 566.33333333333 295 508.66666666667 295 442 C 295 350.66666666667 324 277.33333333333 382 222 C 439.33333333333 166.66666666667 516 139 612 139 C 720 139 804.33333333333 168.33333333333 865 227 C 925.66666666667 285 956 363 956 461 Z"/>
    <path fill="#000000" stroke="none" transform="matrix(1 0 0 -1 6132 2689)" d="M 469 889 C 679.66666666667 889 832.33333333333 863 927 811 C 1021.66666666667 758.33333333333 1069 675 1069 561 C 1069 463.66666666667 1022.66666666667 380.66666666667 930 312 C 837.33333333333 243.33333333333 704.66666666667 191.33333333333 532 156 L 532 147 C 566.66666666667 151.66666666667 613.33333333333 155.66666666667 672 159 C 730 162.33333333333 775.66666666667 164 809 164 L 1092 164 L 1092 0 L 78 0 L 78 164 C 178 173.33333333333 261.33333333333 185.66666666667 328 201 C 680 280.33333333333 856 393.66666666667 856 541 C 856 615 823.33333333333 667 758 697 C 692.66666666667 726.33333333333 584 741 432 741 L 201 741 L 201 879 L 799 1313 L 799 1317 C 688.33333333333 1304.33333333333 532 1298 330 1298 L 102 1298 L 102 1462 L 1051 1462 L 1051 1315 L 469 895 L 469 889 Z"/>
    <path fill="#000000" stroke="none" transform="matrix(1 0 0 -1 7303 2689)" d="M 596 901 C 688.66666666667 898.33333333333 772.33333333333 878 847 840 C 921.66666666667 802 979.66666666667 750 1021 684 C 1062.33333333333 617.33333333333 1083 540.33333333333 1083 453 C 1083 303.66666666667 1031.33333333333 187.66666666667 928 105 C 824.66666666667 21.66666666667 680 -20 494 -20 C 321.33333333333 -20 180.66666666667 6.33333333333 72 59 L 72 227 C 138.66666666667 195 209.66666666667 171 285 155 C 360.33333333333 139 430.66666666667 131 496 131 C 628.66666666667 131 727.66666666667 159 793 215 C 858.33333333333 271 891 351 891 455 C 891 549.66666666667 857.33333333333 623 790 675 C 722.66666666667 726.33333333333 624.66666666667 752 496 752 L 369 752 L 369 885 L 791 1298 L 113 1298 L 113 1462 L 1022 1462 L 1022 1317 L 596 901 Z"/>
    <path fill="#000000" stroke="none" transform="matrix(1 0 0 -1 9031 2689)" d="M 936 1462 C 1130 1462 1227 1364.33333333333 1227 1169 L 1051 1169 C 1051 1256.33333333333 1009.33333333333 1300 926 1300 L 717 1300 L 717 0 L 532 0 L 532 1300 L 324 1300 C 240.66666666667 1300 199 1256.33333333333 199 1169 L 23 1169 C 23 1364.33333333333 119.66666666667 1462 313 1462 L 936 1462 Z"/>
    <path fill="#000000" stroke="none" transform="matrix(1 0 0 -1 10280 2689)" d="M 825 1321 C 667.66666666667 1321 544 1268.33333333333 454 1163 C 364 1057.66666666667 319 913.66666666667 319 731 C 319 542.33333333333 362.66666666667 397 450 295 C 537.33333333333 192.33333333333 661.66666666667 141 823 141 C 927 141 1044 160.33333333333 1174 199 L 1174 39 C 1112 16.33333333333 1052.33333333333 1 995 -7 C 937.66666666667 -15.66666666667 871.66666666667 -20 797 -20 C 581.66666666667 -20 416 45.66666666667 300 177 C 183.33333333333 307.66666666667 125 493 125 733 C 125 883.66666666667 153 1015.66666666667 209 1129 C 264.33333333333 1242.33333333333 345.33333333333 1329.66666666667 452 1391 C 558 1452.33333333333 683 1483 827 1483 C 981.66666666667 1483 1116.33333333333 1454.33333333333 1231 1397 L 1157 1241 C 1040.33333333333 1294.33333333333 929.66666666667 1321 825 1321 Z"/>
    <path fill="#000000" stroke="none" transform="matrix(1 0 0 -1 11574 2689)" d="M 1135 1032 C 1135 882.66666666667 1084 768.33333333333 982 689 C 880 609 736.33333333333 569 551 569 L 383 569 L 383 0 L 199 0 L 199 1462 L 586 1462 C 952 1462 1135 1318.66666666667 1135 1032 Z M 383 727 L 530 727 C 675.33333333333 727 780.66666666667 750.66666666667 846 798 C 911.33333333333 844.66666666667 944 920 944 1024 C 944 1118 913.66666666667 1188.33333333333 853 1235 C 792.33333333333 1281.66666666667 697.66666666667 1305 569 1305 L 383 1305 L 383 727 Z"/>
    <path fill="#000000" stroke="none" transform="matrix(1 0 0 -1 12813 2689)" d="M 717 0 L 532 0 L 532 1079 L 324 1079 C 240.66666666667 1079 199 1035.33333333333 199 948 L 23 948 C 23 1143.33333333333 119.66666666667 1241 313 1241 L 532 1241 L 532 1462 L 717 1462 L 717 1241 L 936 1241 C 1130 1241 1227 1143.33333333333 1227 948 L 1051 948 C 1051 1035.33333333333 1009.33333333333 1079 926 1079 L 717 1079 L 717 0 Z"/>
    <path fill="#000000" stroke="none" transform="matrix(1 0 0 -1 14062 2689)" d="M 57 819 L 1231 819 L 1231 655 L 57 655 L 57 819 Z M 57 1462 L 1231 1462 L 1231 1300 L 57 1300 L 57 1462 Z M 1231 162 L 1231 0 L 57 0 L 57 162 L 1231 162 Z"/>
    <path fill="#000000" stroke="none" transform="matrix(1 0 0 -1 15352 2689)" d="M 926 516 C 1076.66666666667 524 1190.66666666667 569 1268 651 C 1345.33333333333 732.33333333333 1384 847 1384 995 C 1384 1108.33333333333 1365.66666666667 1191.66666666667 1329 1245 C 1291.66666666667 1298.33333333333 1234.33333333333 1325 1157 1325 C 1003 1325 926 1221.33333333333 926 1014 L 926 516 Z M 741 1026 C 741 1166 778.66666666667 1277.33333333333 854 1360 C 928.66666666667 1442 1031 1483 1161 1483 C 1437 1483 1575 1323.33333333333 1575 1004 C 1575 882.66666666667 1549.66666666667 774.66666666667 1499 680 C 1447.66666666667 585.33333333333 1373.66666666667 510.33333333333 1277 455 C 1180.33333333333 399 1063.33333333333 366.66666666667 926 358 L 926 -334 L 741 -334 L 741 358 C 547.66666666667 368.66666666667 399.66666666667 425.33333333333 297 528 C 194.33333333333 630.66666666667 143 774 143 958 L 143 1462 L 328 1462 L 328 971 C 328 833.66666666667 364 725.33333333333 436 646 C 508 566.66666666667 609.66666666667 523.33333333333 741 516 L 741 1026 Z"/>
    <path fill="#000000" stroke="none" transform="matrix(1 0 0 -1 17572 2689)" d="M 645 0 L 645 1098 L 801 1098 L 801 0 L 645 0 Z M 174 0 L 174 1098 L 332 1098 L 332 0 L 174 0 Z M 1114 1098 L 1272 1098 L 1272 0 L 1114 0 L 1114 1098 Z"/>
    <path fill="#000000" stroke="none" transform="matrix(1 0 0 -1 19018 2689)" d="M 1372 549 C 1372 385.66666666667 1324.33333333333 254 1229 154 C 1133 54 999.66666666667 -2.66666666667 829 -16 L 829 -492 L 653 -492 L 653 -16 C 485 -2 352.66666666667 55 256 155 C 159.33333333333 255 111 386.33333333333 111 549 C 111 715.66666666667 159 848.33333333333 255 947 C 351 1045 485.66666666667 1100.66666666667 659 1114 L 659 1556 L 829 1556 L 829 1114 C 997.66666666667 1097.33333333333 1130.33333333333 1039 1227 939 C 1323.66666666667 839 1372 709 1372 549 Z M 299 549 C 299 295 419 155.66666666667 659 131 L 659 965 C 533.66666666667 952.33333333333 442.33333333333 911 385 841 C 327.66666666667 770.33333333333 299 673 299 549 Z M 1186 549 C 1186 799 1067 937 829 963 L 829 131 C 1067 157 1186 296.33333333333 1186 549 Z"/>
    <path fill="#000000" stroke="none" transform="matrix(1 0 0 -1 20503 2689)" d="M 434 561 L 55 1098 L 260 1098 L 543 684 L 823 1098 L 1026 1098 L 647 561 L 1047 0 L 842 0 L 543 438 L 240 0 L 37 0 L 434 561 Z"/>
    <path fill="#000000" stroke="none" transform="matrix(1 0 0 -1 21586 2689)" d="M 526 0 C 526 -107.33333333333 500.33333333333 -189.33333333333 449 -246 C 397 -303.33333333333 322.33333333333 -332 225 -332 C 149.66666666667 -332 91.33333333333 -311.66666666667 50 -271 C 8.66666666667 -230.33333333333 -12 -173.33333333333 -12 -100 C -12 -20 18 42 78 86 C 138 130 222.66666666667 152 332 152 L 346 152 L 346 1098 L 526 1098 L 526 152 L 1016 152 L 1016 0 L 526 0 Z M 240 -186 C 310.66666666667 -186 346 -133.66666666667 346 -29 L 346 0 L 309 0 C 257.66666666667 0 219.66666666667 -8 195 -24 C 170.33333333333 -40 158 -66 158 -102 C 158 -129.33333333333 166 -150 182 -164 C 198 -178.66666666667 217.33333333333 -186 240 -186 Z"/>
    <path fill="#000000" stroke="none" transform="matrix(1 0 0 -1 22645 2689)" d="M 174 0 L 174 1098 L 332 1098 L 332 637 L 645 637 L 645 1098 L 801 1098 L 801 637 L 1114 637 L 1114 1098 L 1272 1098 L 1272 637 L 1501 637 L 1501 489 L 1272 489 L 1272 0 L 1114 0 L 1114 489 L 801 489 L 801 0 L 645 0 L 645 489 L 332 489 L 332 0 L 174 0 Z"/>
    <path fill="#000000" stroke="none" transform="matrix(1 0 0 -1 24171 2689)" d="M 428 1556 C 441.33333333333 1559.33333333333 472.66666666667 1561 522 1561 C 578.66666666667 1561 623 1544.66666666667 655 1512 C 686.33333333333 1478.66666666667 702 1434.66666666667 702 1380 C 702 1343.33333333333 694.66666666667 1302.33333333333 680 1257 C 665.33333333333 1211 640.66666666667 1158 606 1098 L 618 1098 C 784.66666666667 1098 914.66666666667 1051.66666666667 1008 959 C 1100.66666666667 865.66666666667 1147 735.66666666667 1147 569 C 1147 451.66666666667 1121.66666666667 347.33333333333 1071 256 C 1019.66666666667 164.66666666667 949 96 859 50 C 769 3.33333333333 663.66666666667 -20 543 -20 C 297 -20 174 85 174 295 L 174 956 L 354 956 L 354 330 C 354 262 370.66666666667 211.66666666667 404 179 C 436.66666666667 145.66666666667 492.33333333333 129 571 129 C 651 129 720.33333333333 146.66666666667 779 182 C 837.66666666667 217.33333333333 882.66666666667 267.33333333333 914 332 C 945.33333333333 396.66666666667 961 469.66666666667 961 551 C 961 689 924.66666666667 791 852 857 C 779.33333333333 923 670 956 524 956 L 428 956 L 428 1098 L 460 1146 C 510 1219.33333333333 535 1283.66666666667 535 1339 C 535 1366.33333333333 528 1387.66666666667 514 1403 C 500 1417.66666666667 480.33333333333 1425 455 1425 L 428 1425 L 428 1556 Z"/>
    <path fill="#000000" stroke="none" transform="matrix(1 0 0 -1 25963 2689)" d="M 1077 821 C 1077 750.33333333333 1057 696.66666666667 1017 660 C 977 622.66666666667 920 597.33333333333 846 584 L 846 575 C 938.66666666667 562.33333333333 1006.33333333333 535 1049 493 C 1091 450.33333333333 1112 393.33333333333 1112 322 C 1112 218 1074 138.33333333333 998 83 C 921.33333333333 27.66666666667 811.33333333333 0 668 0 L 174 0 L 174 1098 L 666 1098 C 940 1098 1077 1005.66666666667 1077 821 Z M 932 332 C 932 393.33333333333 908 436.33333333333 860 461 C 812 485.66666666667 741.66666666667 498 649 498 L 354 498 L 354 145 L 653 145 C 839 145 932 207.33333333333 932 332 Z M 901 805 C 901 856.33333333333 881.33333333333 893 842 915 C 802 937 742 948 662 948 L 354 948 L 354 647 L 629 647 C 727 647 797 659.33333333333 839 684 C 880.33333333333 708 901 748.33333333333 901 805 Z"/>
    <path fill="#000000" stroke="none" transform="matrix(1 0 0 -1 27143 2689)" d="M 758 1098 L 197 0 L 20 0 L 582 1098 L 758 1098 Z"/>
    <path fill="#000000" stroke="none" transform="matrix(1 0 0 -1 27921 2689)" d="M 1077 821 C 1077 750.33333333333 1057 696.66666666667 1017 660 C 977 622.66666666667 920 597.33333333333 846 584 L 846 575 C 938.66666666667 562.33333333333 1006.33333333333 535 1049 493 C 1091 450.33333333333 1112 393.33333333333 1112 322 C 1112 218 1074 138.33333333333 998 83 C 921.33333333333 27.66666666667 811.33333333333 0 668 0 L 174 0 L 174 1098 L 666 1098 C 940 1098 1077 1005.66666666667 1077 821 Z M 932 332 C 932 393.33333333333 908 436.33333333333 860 461 C 812 485.66666666667 741.66666666667 498 649 498 L 354 498 L 354 145 L 653 145 C 839 145 932 207.33333333333 932 332 Z M 901 805 C 901 856.33333333333 881.33333333333 893 842 915 C 802 937 742 948 662 948 L 354 948 L 354 647 L 629 647 C 727 647 797 659.33333333333 839 684 C 880.33333333333 708 901 748.33333333333 901 805 Z"/>
    <path fill="#000000" stroke="none" transform="matrix(1 0 0 -1 29101 2689)" d="M 354 1098 L 354 641 L 950 641 L 950 1098 L 1130 1098 L 1130 0 L 950 0 L 950 489 L 354 489 L 354 0 L 174 0 L 174 1098 L 354 1098 Z"/>
    <path fill="#000000" stroke="none" transform="matrix(1 0 0 -1 30406 2689)" d="M 428 1509 L 762 1509 L 762 1790 L 907 1790 L 907 1509 L 1241 1509 L 1241 1372 L 907 1372 L 907 1229 L 762 1229 L 762 1372 L 428 1372 L 428 1509 Z M 442 1698 C 442 1733.33333333333 451.33333333333 1759 470 1775 C 488.66666666667 1790.33333333333 511.66666666667 1798 539 1798 C 569.66666666667 1798 593.33333333333 1789 610 1771 C 626.66666666667 1753 635 1728.66666666667 635 1698 C 635 1662.66666666667 625.33333333333 1636.66666666667 606 1620 C 586.66666666667 1603.33333333333 564.33333333333 1595 539 1595 C 511.66666666667 1595 488.66666666667 1603.33333333333 470 1620 C 451.33333333333 1636.66666666667 442 1662.66666666667 442 1698 Z M 1032 1698 C 1032 1733.33333333333 1041.33333333333 1759 1060 1775 C 1078.66666666667 1790.33333333333 1100.66666666667 1798 1126 1798 C 1152 1798 1174.66666666667 1790.33333333333 1194 1775 C 1213.33333333333 1759 1223 1733.33333333333 1223 1698 C 1223 1662.66666666667 1213.33333333333 1636.66666666667 1194 1620 C 1174.66666666667 1603.33333333333 1152 1595 1126 1595 C 1100.66666666667 1595 1078.66666666667 1603.33333333333 1060 1620 C 1041.33333333333 1636.66666666667 1032 1662.66666666667 1032 1698 Z M 1559 545 C 1559 361 1533 199 1481 59 C 1428.33333333333 -81.66666666667 1352 -191.33333333333 1252 -270 C 1151.33333333333 -349.33333333333 1039 -389 915 -389 C 856.33333333333 -389 806 -382.33333333333 764 -369 L 764 -205 C 803.33333333333 -217 853 -223 913 -223 C 1012.33333333333 -223 1095.66666666667 -198.33333333333 1163 -149 C 1229.66666666667 -99.66666666667 1288.33333333333 -18 1339 96 L 1333 100 C 1301 61.33333333333 1266.33333333333 31.66666666667 1229 11 C 1191.66666666667 -9.66666666667 1148 -20 1098 -20 C 966.66666666667 -20 880 57.66666666667 838 213 L 831 213 C 807.66666666667 141 769.33333333333 84.33333333333 716 43 C 662 1 593.33333333333 -20 510 -20 C 433.33333333333 -20 365 3 305 49 C 244.33333333333 94.33333333333 197.33333333333 160 164 246 C 130 331.33333333333 113 431.66666666667 113 547 C 113 673 136.66666666667 786.66666666667 184 888 C 231.33333333333 989.33333333333 302.33333333333 1075.66666666667 397 1147 L 526 1047 C 444 982.33333333333 384.66666666667 909.66666666667 348 829 C 311.33333333333 748.33333333333 293 654.33333333333 293 547 C 293 420.33333333333 313.66666666667 320.66666666667 355 248 C 396.33333333333 175.33333333333 453.33333333333 139 526 139 C 597.33333333333 139 652.66666666667 167.33333333333 692 224 C 730.66666666667 280.66666666667 750 358.33333333333 750 457 L 750 1098 L 922 1098 L 922 457 C 922 355.66666666667 940.33333333333 277.33333333333 977 222 C 1013 166.66666666667 1063.33333333333 139 1128 139 C 1174.66666666667 139 1217.33333333333 155.66666666667 1256 189 C 1294 222.33333333333 1324 270.33333333333 1346 333 C 1367.33333333333 395 1378 468.33333333333 1378 553 C 1378 747.66666666667 1302.33333333333 912.33333333333 1151 1047 L 1284 1147 C 1467.33333333333 994.33333333333 1559 793.66666666667 1559 545 Z"/>
    <path fill="#000000" stroke="none" transform="matrix(1 0 0 -1 32077 2689)" d="M 526 0 C 526 -107.33333333333 500.33333333333 -189.33333333333 449 -246 C 397 -303.33333333333 322.33333333333 -332 225 -332 C 149.66666666667 -332 91.33333333333 -311.66666666667 50 -271 C 8.66666666667 -230.33333333333 -12 -173.33333333333 -12 -100 C -12 -20 18 42 78 86 C 138 130 222.66666666667 152 332 152 L 346 152 L 346 1098 L 526 1098 L 526 152 L 1016 152 L 1016 0 L 526 0 Z M 240 -186 C 310.66666666667 -186 346 -133.66666666667 346 -29 L 346 0 L 309 0 C 257.66666666667 0 219.66666666667 -8 195 -24 C 170.33333333333 -40 158 -66 158 -102 C 158 -129.33333333333 166 -150 182 -164 C 198 -178.66666666667 217.33333333333 -186 240 -186 Z"/>
    <path fill="#000000" stroke="none" transform="matrix(1 0 0 -1 33668 2689)" d="M 506 145 L 1006 145 L 756 500 L 506 145 Z M 1339 145 L 1339 0 L 240 0 C 96.66666666667 0 25 81.33333333333 25 244 L 174 244 C 174 210 182.66666666667 185 200 169 C 216.66666666667 153 249.66666666667 145 299 145 L 651 623 L 492 844 C 458.66666666667 890 428.66666666667 920.66666666667 402 936 C 375.33333333333 950.66666666667 338.33333333333 958 291 958 L 291 1100 L 340 1100 C 406 1100 461.33333333333 1087.66666666667 506 1063 C 550 1037.66666666667 593 994 635 932 L 760 752 L 1006 1098 L 1204 1098 L 872 635 L 1130 276 C 1169.33333333333 221.33333333333 1203 186 1231 170 C 1259 153.33333333333 1295 145 1339 145 Z"/>
    <path fill="#000000" stroke="none" transform="matrix(1 0 0 -1 35014 2689)" d="M 1020 686 C 1020 550 976.66666666667 443.66666666667 890 367 C 803.33333333333 290.33333333333 684 252 532 252 L 375 252 L 375 31 L 741 31 L 741 -115 L 375 -115 L 375 -492 L 193 -492 L 193 -115 L -4 -115 L -4 31 L 193 31 L 193 1098 L 565 1098 C 709 1098 821 1061.66666666667 901 989 C 980.33333333333 915.66666666667 1020 814.66666666667 1020 686 Z M 375 397 L 522 397 C 623.33333333333 397 700.66666666667 421 754 469 C 807.33333333333 516.33333333333 834 586.66666666667 834 680 C 834 767.33333333333 808.66666666667 834.66666666667 758 882 C 706.66666666667 928.66666666667 633.66666666667 952 539 952 L 375 952 L 375 397 Z"/>
    <path fill="#000000" stroke="none" transform="matrix(1 0 0 -1 36116 2689)" d="M 571 1098 C 642.33333333333 1098 697.66666666667 1089 737 1071 C 776.33333333333 1052.33333333333 804.66666666667 1025.33333333333 822 990 C 839.33333333333 954 848 893 848 807 L 690 807 C 690 859 677.66666666667 895.33333333333 653 916 C 628.33333333333 936 583.33333333333 946 518 946 L 354 946 L 354 0 L 174 0 L 174 1098 L 571 1098 Z"/>
    <path fill="#000000" stroke="none" transform="matrix(1 0 0 -1 37003 2689)" d="M 645 0 L 645 1098 L 801 1098 L 801 0 L 645 0 Z M 174 0 L 174 1098 L 332 1098 L 332 0 L 174 0 Z M 1114 1098 L 1272 1098 L 1272 0 L 1114 0 L 1114 1098 Z"/>
    <path fill="#000000" stroke="none" transform="matrix(1 0 0 -1 38449 2689)" d="M 635 -20 C 468.33333333333 -20 339.66666666667 28.33333333333 249 125 C 158.33333333333 221 113 360.33333333333 113 543 C 113 729 159 871.33333333333 251 970 C 342.33333333333 1068.66666666667 472.33333333333 1118 641 1118 C 697 1118 751.66666666667 1112.66666666667 805 1102 C 858.33333333333 1090.66666666667 904.66666666667 1076.33333333333 944 1059 L 891 911 C 799.66666666667 945.66666666667 715 963 637 963 C 531.66666666667 963 452 936.33333333333 398 883 C 343.33333333333 829.66666666667 310.33333333333 748.33333333333 299 639 L 838 639 L 838 492 L 297 492 C 303 369.33333333333 333.33333333333 279 388 221 C 442.66666666667 162.33333333333 523.66666666667 133 631 133 C 693 133 747.66666666667 139.33333333333 795 152 C 842.33333333333 164 886.66666666667 178.33333333333 928 195 L 928 39 C 848 -0.33333333333 750.33333333333 -20 635 -20 Z"/>
    <path fill="#000000" stroke="none" transform="matrix(1 0 0 -1 39463 2689)" d="M 909 1098 L 1126 1098 L 610 274 L 610 -492 L 430 -492 L 430 274 L -86 1098 L 131 1098 L 520 451 L 909 1098 Z"/>
</svg>
