<svg width="38145" height="3789" viewBox="0 0 38145 3789" xmlns="http://www.w3.org/2000/svg">
    <defs/>
    <path fill="#000000" stroke="none" transform="matrix(1 0 0 -1 0 2689)" d="M 1046 312 L 1046 659 L 908 659 L 908 -16 L 863 -16 L 524 599 L 193 -16 L 80 50 L 453 728 L 80 1407 L 193 1473 L 524 857 L 863 1473 L 908 1473 L 908 779 L 1046 779 L 1046 1122 L 1176 1122 L 1176 312 L 1046 312 Z M 594 728 L 768 406 L 768 1051 L 594 728 Z M 126 512 L 126 922 L 256 922 L 256 512 L 126 512 Z M 918 1585 C 834 1653 737 1687 627 1687 C 517 1687 420 1653 336 1585 L 259 1665 C 319.66666666667 1715 380 1750.33333333333 440 1771 C 500 1791.66666666667 562.33333333333 1802 627 1802 C 767 1802 890 1756.33333333333 996 1665 L 918 1585 Z"/>
    <path fill="#000000" stroke="none" transform="matrix(1 0 0 -1 1296 2689)" d="M 950 0 L 230 0 L 230 120 L 950 120 L 950 0 Z M 900 290 L 280 290 L 280 410 L 900 410 L 900 290 Z M 1050 468 L 260 886 L 260 488 L 130 488 L 130 1092 L 920 658 L 920 1022 L 1050 1022 L 1050 468 Z M 880 1038 L 420 1279 L 420 1088 L 290 1088 L 290 1482 L 750 1235 L 750 1462 L 880 1462 L 880 1038 Z"/>
    <path fill="#000000" stroke="none" transform="matrix(1 0 0 -1 2476 2689)" d="M 120 610 L 250 610 L 250 375 L 473 258 L 473 1432 L 836 1225 L 836 1462 L 966 1462 L 966 852 L 836 852 L 836 1086 L 613 1204 L 613 30 L 250 237 L 250 0 L 120 0 L 120 610 Z M 824 1585 C 740 1653 643 1687 533 1687 C 423 1687 326 1653 242 1585 L 165 1665 C 225.66666666667 1715 286 1750.33333333333 346 1771 C 406 1791.66666666667 468.33333333333 1802 533 1802 C 673 1802 796 1756.33333333333 902 1665 L 824 1585 Z"/>
    <path fill="#000000" stroke="none" transform="matrix(1 0 0 -1 3562 2689)" d="M 280 1462 L 280 1261 C 280 1100.33333333333 298.33333333333 966.33333333333 335 859 C 410.33333333333 934.33333333333 501 972 607 972 C 713 972 803.66666666667 934.33333333333 879 859 C 915 968.33333333333 933 1105 933 1269 L 933 1462 L 1073 1462 L 1073 1269 C 1073 1046.33333333333 1038.33333333333 867 969 731 C 1038.33333333333 595 1073 415.66666666667 1073 193 L 1073 0 L 933 0 L 933 193 C 933 357.66666666667 915 494 879 602 C 804.33333333333 527.33333333333 713.66666666667 490 607 490 C 501 490 410.33333333333 527.66666666667 335 603 C 298.33333333333 495.66666666667 280 361.66666666667 280 201 L 280 0 L 140 0 L 140 201 C 140 418.33333333333 175 595 245 731 C 175 867 140 1043.66666666667 140 1261 L 140 1462 L 280 1462 Z M 605 852 C 521.66666666667 852 452.33333333333 811.66666666667 397 731 C 451 650.33333333333 520.33333333333 610 605 610 C 693.66666666667 610 764.33333333333 650.33333333333 817 731 C 763 811.66666666667 692.33333333333 852 605 852 Z"/>
    <path fill="#000000" stroke="none" transform="matrix(1 0 0 -1 4775 2689)" d="M 136 349 L 403 202 L 403 1488 L 915 1204 L 859 1091 L 543 1260 L 543 849 C 654.33333333333 839.66666666667 741.33333333333 800.33333333333 804 731 C 866 661.66666666667 897 570.33333333333 897 457 C 897 384.33333333333 884 323 858 273 L 744 318 C 750.66666666667 331.33333333333 756.33333333333 352 761 380 C 765 407.33333333333 767 433 767 457 C 767 533 746.66666666667 597.66666666667 706 651 C 664.66666666667 704.33333333333 610.33333333333 734 543 740 L 543 -26 L 80 236 L 136 349 Z M 1080 656 C 1103.33333333333 582 1115 502.66666666667 1115 418 L 1114 387 L 983 387 L 985 449 C 985 513.66666666667 977.66666666667 572 963 624 L 1080 656 Z M 907 924 C 967 870.66666666667 1014.33333333333 807.66666666667 1049 735 L 942 685 C 916 747 879 798.66666666667 831 840 L 907 924 Z M 784 875 C 732 907.66666666667 671 930.33333333333 601 943 L 620 1053 C 700.66666666667 1041.66666666667 775.33333333333 1014.33333333333 844 971 L 784 875 Z"/>
    <path fill="#000000" stroke="none" transform="matrix(1 0 0 -1 6010 2689)" d="M 790 0 L 790 754 L 454 754 L 454 127 L 220 301 L 220 0 L 80 0 L 80 550 L 314 378 L 314 1462 L 454 1462 L 454 874 L 790 874 L 790 1335 L 1024 1161 L 1024 1462 L 1164 1462 L 1164 912 L 930 1084 L 930 0 L 790 0 Z M 680 999 L 550 999 L 550 1306 L 680 1306 L 680 999 Z M 680 299 L 550 299 L 550 606 L 680 606 L 680 299 Z"/>
    <path fill="#000000" stroke="none" transform="matrix(1 0 0 -1 7754 2689)" d="M 504 0 L 504 433 C 438 416.33333333333 380.33333333333 374.33333333333 331 307 C 281.66666666667 239 246 151 224 43 L 100 82 C 129.33333333333 216 179.66666666667 324.33333333333 251 407 C 321.66666666667 489.66666666667 406 539.33333333333 504 556 L 504 747 C 416.66666666667 761.66666666667 341.66666666667 801 279 865 C 216.33333333333 929 167.33333333333 1011 132 1111 L 252 1155 C 277.33333333333 1077.66666666667 311.66666666667 1014.66666666667 355 966 C 397.66666666667 916.66666666667 447.33333333333 884.66666666667 504 870 L 504 1488 L 887 1296 L 826 1184 L 644 1277 L 644 871 C 760 900.33333333333 844.33333333333 995 897 1155 L 1017 1113 C 980.33333333333 1007 930 923 866 861 C 802 799 728 761 644 747 L 644 556 C 743.33333333333 540.66666666667 828 491.66666666667 898 409 C 968 325.66666666667 1017.66666666667 216.33333333333 1047 81 L 924 43 C 904 147.66666666667 870 234 822 302 C 774 370 714.66666666667 413.66666666667 644 433 L 644 0 L 504 0 Z"/>
    <path fill="#000000" stroke="none" transform="matrix(1 0 0 -1 8901 2689)" d="M 240 1372 C 258.66666666667 1226.66666666667 300.33333333333 1113.66666666667 365 1033 C 429.66666666667 952.33333333333 515.66666666667 912 623 912 C 723.66666666667 912 807 951.66666666667 873 1031 C 939 1110.33333333333 982.66666666667 1224 1004 1372 L 1146 1372 C 1123.33333333333 1205.33333333333 1072.66666666667 1071.66666666667 994 971 C 914.66666666667 870.33333333333 814.33333333333 812 693 796 L 693 227 L 309 401 L 309 0 L 169 0 L 169 600 L 553 428 L 553 796 C 429 810.66666666667 328 867 250 965 C 172 1062.33333333333 122 1198 100 1372 L 240 1372 Z M 808 1239 C 808 1165 792.33333333333 1107.33333333333 761 1066 C 729.66666666667 1024 684 1003 624 1003 C 564 1003 517.66666666667 1023.66666666667 485 1065 C 452.33333333333 1105.66666666667 436 1163.66666666667 436 1239 C 436 1316.33333333333 452.66666666667 1377.33333333333 486 1422 C 518.66666666667 1466 564.66666666667 1488 624 1488 C 682.66666666667 1488 728 1465.66666666667 760 1421 C 792 1375.66666666667 808 1315 808 1239 Z M 708 1239 C 708 1290.33333333333 701.33333333333 1327.33333333333 688 1350 C 674 1372.66666666667 652.66666666667 1384 624 1384 C 566 1384 537 1335.66666666667 537 1239 C 537 1197 544 1164.33333333333 558 1141 C 572 1117.66666666667 592.33333333333 1106 619 1106 C 678.33333333333 1106 708 1150.33333333333 708 1239 Z"/>
    <path fill="#000000" stroke="none" transform="matrix(1 0 0 -1 10147 2689)" d="M 1046 0 L 906 0 L 906 750 L 643 750 L 643 -26 L 296 214 L 360 314 L 503 217 L 503 1462 L 643 1462 L 643 870 L 906 870 L 906 1462 L 1046 1462 L 1046 0 Z M 391 517 C 333.66666666667 506.33333333333 289.33333333333 481.66666666667 258 443 C 226 403.66666666667 210 352 210 288 C 210 183.33333333333 248.33333333333 112.33333333333 325 75 L 256 -19 C 198 9.66666666667 154.33333333333 51 125 105 C 95 158.33333333333 80 219.33333333333 80 288 C 80 346.66666666667 92.33333333333 400.66666666667 117 450 C 141.66666666667 499.33333333333 177.66666666667 540 225 572 C 271.66666666667 603.33333333333 327 622.33333333333 391 629 L 391 517 Z"/>
    <path fill="#000000" stroke="none" transform="matrix(1 0 0 -1 11373 2689)" d="M 441 999 C 453.66666666667 1173 485.66666666667 1298 537 1374 C 587.66666666667 1450 660.66666666667 1488 756 1488 C 832 1488 893.66666666667 1464.66666666667 941 1418 C 988.33333333333 1370.66666666667 1023 1296.33333333333 1045 1195 C 1066.33333333333 1093.66666666667 1077 939.66666666667 1077 733 C 1077 532.33333333333 1065.66666666667 379.66666666667 1043 275 C 1020.33333333333 170.33333333333 985 94 937 46 C 889 -2 828 -26 754 -26 C 680 -26 619.33333333333 -2.33333333333 572 45 C 524.66666666667 92.33333333333 490 167.33333333333 468 270 C 445.33333333333 372.66666666667 434 529.66666666667 434 741 L 434 801 L 435 860 L 354 903 L 354 238 L 80 398 L 138 502 L 224 452 L 224 1117 L 441 999 Z M 754 94 C 796.66666666667 94 831 110.66666666667 857 144 C 882.33333333333 176.66666666667 901.33333333333 226.33333333333 914 293 C 926.66666666667 359.66666666667 934 460.33333333333 936 595 L 574 786 L 574 741 C 574 551 580 416 592 336 C 603.33333333333 256 622 195.66666666667 648 155 C 673.33333333333 114.33333333333 708.66666666667 94 754 94 Z M 937 733 C 937 923 931.33333333333 1057 920 1135 C 908 1213 889 1271.33333333333 863 1310 C 836.33333333333 1348.66666666667 800 1368 754 1368 C 696.66666666667 1368 654 1336.66666666667 626 1274 C 598 1210.66666666667 581.33333333333 1094.66666666667 576 926 L 937 730 L 937 733 Z"/>
    <path fill="#000000" stroke="none" transform="matrix(1 0 0 -1 12590 2689)" d="M 872 991 C 966.66666666667 893.66666666667 1014 750.33333333333 1014 561 C 1014 386.33333333333 975 250.66666666667 897 154 C 819 57.33333333333 712.33333333333 9 577 9 C 440.33333333333 9 333.33333333333 58 256 156 C 178.66666666667 254 140 390 140 564 C 140 751.33333333333 187.33333333333 893.66666666667 282 991 L 282 1197 C 282 1284.33333333333 309 1354.66666666667 363 1408 C 416.33333333333 1461.33333333333 486.66666666667 1488 574 1488 C 662.66666666667 1488 734.66666666667 1461.66666666667 790 1409 C 844.66666666667 1356.33333333333 872 1285.66666666667 872 1197 L 872 991 Z M 280 564 C 280 423.33333333333 305.33333333333 315.66666666667 356 241 C 406.66666666667 166.33333333333 479.66666666667 129 575 129 C 672.33333333333 129 746.66666666667 165.66666666667 798 239 C 848.66666666667 312.33333333333 874 418.66666666667 874 558 C 874 696.66666666667 848.66666666667 803 798 877 C 746.66666666667 951 672.33333333333 988 575 988 C 480.33333333333 988 407.66666666667 951.33333333333 357 878 C 305.66666666667 804 280 699.33333333333 280 564 Z M 577 1108 C 637 1108 692 1098 742 1078 L 742 1194 C 742 1251.33333333333 728.33333333333 1296.33333333333 701 1329 C 673.66666666667 1361.66666666667 633.33333333333 1378 580 1378 C 523.33333333333 1378 481.33333333333 1361.33333333333 454 1328 C 426 1294 412 1246.33333333333 412 1185 L 412 1078 C 462 1098 517 1108 577 1108 Z M 642 732 L 642 400 L 512 400 L 512 732 L 642 732 Z M 868 1585 C 784 1653 687 1687 577 1687 C 467 1687 370 1653 286 1585 L 209 1665 C 269.66666666667 1715 330 1750.33333333333 390 1771 C 450 1791.66666666667 512.33333333333 1802 577 1802 C 717 1802 840 1756.33333333333 946 1665 L 868 1585 Z"/>
    <path fill="#000000" stroke="none" transform="matrix(1 0 0 -1 13744 2689)" d="M 1086 1299 L 1025 1187 L 854 1277 L 854 207 L 337 431 L 337 0 L 197 0 L 197 620 L 714 398 L 714 1488 L 1086 1299 Z M 576 1014 L 423 1014 L 423 884 L 303 884 L 303 1014 L 150 1014 L 150 1114 L 303 1114 L 303 1238 L 423 1238 L 423 1114 L 576 1114 L 576 1014 Z M 186 896 C 201.33333333333 856.66666666667 222.66666666667 827 250 807 C 277.33333333333 786.33333333333 316.66666666667 776 368 776 C 448.66666666667 776 506 816 540 896 L 645 852 C 585.66666666667 721.33333333333 493.33333333333 656 368 656 C 294 656 234.33333333333 673.33333333333 189 708 C 143.66666666667 742 107.33333333333 790 80 852 L 186 896 Z M 80 1270 C 107.33333333333 1332 143.66666666667 1380.33333333333 189 1415 C 234.33333333333 1449 294 1466 368 1466 C 493.33333333333 1466 585.66666666667 1400.66666666667 645 1270 L 540 1226 C 506 1306 448.66666666667 1346 368 1346 C 316.66666666667 1346 277.33333333333 1336 250 1316 C 222.66666666667 1295.33333333333 201.33333333333 1265.33333333333 186 1226 L 80 1270 Z"/>
    <path fill="#000000" stroke="none" transform="matrix(1 0 0 -1 15410 2689)" d="M 120 957 L 287 957 C 320.33333333333 1065.66666666667 379.66666666667 1159.33333333333 465 1238 C 405 1275.33333333333 315.33333333333 1316.33333333333 196 1361 L 214 1482 C 353.33333333333 1437.33333333333 471.33333333333 1383 568 1319 C 662.66666666667 1382.33333333333 780.66666666667 1436.66666666667 922 1482 L 940 1361 C 820.66666666667 1317 731 1276 671 1238 C 755.66666666667 1158.66666666667 814.66666666667 1065 848 957 L 1016 957 L 1016 837 L 873 837 C 877.66666666667 798.33333333333 880 763.66666666667 880 733 C 880 527 809.66666666667 357.66666666667 669 225 C 740.33333333333 178.33333333333 830.66666666667 138.33333333333 940 105 L 922 -16 C 783.33333333333 24.66666666667 665.33333333333 78 568 144 C 470.66666666667 78 352.66666666667 24.66666666667 214 -16 L 196 105 C 304 138.33333333333 394 178.33333333333 466 225 C 326 358.33333333333 256 527.66666666667 256 733 C 256 769 258 803.66666666667 262 837 L 120 837 L 120 957 Z M 396 733 C 396 556.33333333333 453.33333333333 413.33333333333 568 304 C 682.66666666667 414.66666666667 740 557.66666666667 740 733 C 740 769 737.33333333333 803.66666666667 732 837 L 403 837 C 398.33333333333 798.33333333333 396 763.66666666667 396 733 Z M 568 1160 C 506.66666666667 1102.66666666667 461.66666666667 1035 433 957 L 703 957 C 675 1033 630 1100.66666666667 568 1160 Z M 623 522 L 513 522 L 513 735 L 623 735 L 623 522 Z"/>
    <path fill="#000000" stroke="none" transform="matrix(1 0 0 -1 16546 2689)" d="M 1086 1299 L 1025 1187 L 854 1277 L 854 207 L 337 431 L 337 0 L 197 0 L 197 620 L 714 398 L 714 1488 L 1086 1299 Z M 576 1014 L 423 1014 L 423 884 L 303 884 L 303 1014 L 150 1014 L 150 1114 L 303 1114 L 303 1238 L 423 1238 L 423 1114 L 576 1114 L 576 1014 Z M 186 896 C 201.33333333333 856.66666666667 222.66666666667 827 250 807 C 277.33333333333 786.33333333333 316.66666666667 776 368 776 C 448.66666666667 776 506 816 540 896 L 645 852 C 585.66666666667 721.33333333333 493.33333333333 656 368 656 C 294 656 234.33333333333 673.33333333333 189 708 C 143.66666666667 742 107.33333333333 790 80 852 L 186 896 Z M 80 1270 C 107.33333333333 1332 143.66666666667 1380.33333333333 189 1415 C 234.33333333333 1449 294 1466 368 1466 C 493.33333333333 1466 585.66666666667 1400.66666666667 645 1270 L 540 1226 C 506 1306 448.66666666667 1346 368 1346 C 316.66666666667 1346 277.33333333333 1336 250 1316 C 222.66666666667 1295.33333333333 201.33333333333 1265.33333333333 186 1226 L 80 1270 Z M 856 1585 C 772 1653 675 1687 565 1687 C 455 1687 358 1653 274 1585 L 197 1665 C 257.66666666667 1715 318 1750.33333333333 378 1771 C 438 1791.66666666667 500.33333333333 1802 565 1802 C 705 1802 828 1756.33333333333 934 1665 L 856 1585 Z"/>
    <path fill="#000000" stroke="none" transform="matrix(1 0 0 -1 17712 2689)" d="M 1046 312 L 1046 659 L 908 659 L 908 -16 L 863 -16 L 524 599 L 193 -16 L 80 50 L 453 728 L 80 1407 L 193 1473 L 524 857 L 863 1473 L 908 1473 L 908 779 L 1046 779 L 1046 1122 L 1176 1122 L 1176 312 L 1046 312 Z M 594 728 L 768 406 L 768 1051 L 594 728 Z M 126 512 L 126 922 L 256 922 L 256 512 L 126 512 Z"/>
    <path fill="#000000" stroke="none" transform="matrix(1 0 0 -1 19008 2689)" d="M 693 97 C 753 103.66666666667 799.33333333333 119.33333333333 832 144 C 864.66666666667 168.66666666667 889 200.66666666667 905 240 C 920.33333333333 278.66666666667 929.33333333333 323.66666666667 932 375 C 934.66666666667 425.66666666667 936 480.33333333333 936 539 L 936 1462 L 1076 1462 L 1076 559 C 1076 397 1061 277.33333333333 1031 200 C 1001 122.66666666667 952.66666666667 65.66666666667 886 29 C 819.33333333333 -7.66666666667 732.33333333333 -26 625 -26 C 543 -26 473.66666666667 -15.33333333333 417 6 C 359.66666666667 26.66666666667 314 57.66666666667 280 99 C 245.33333333333 140.33333333333 220 195 204 263 C 188 331 180 429.66666666667 180 559 L 180 1462 L 320 1462 L 320 539 C 320 480.33333333333 321.33333333333 425.66666666667 324 375 C 326.66666666667 323.66666666667 336 278.66666666667 352 240 C 367.33333333333 201.33333333333 391.33333333333 169.66666666667 424 145 C 456.66666666667 119.66666666667 503 103.66666666667 563 97 L 563 1462 L 693 1462 L 693 97 Z"/>
    <path fill="#000000" stroke="none" transform="matrix(1 0 0 -1 20264 2689)" d="M 852 0 L 712 0 L 712 700 L 320 700 L 320 0 L 180 0 L 180 1462 L 320 1462 L 320 820 L 712 820 L 712 1462 L 852 1462 L 852 0 Z M 1101 1095 L 971 1095 L 971 1422 L 1101 1422 L 1101 1095 Z M 1101 595 L 971 595 L 971 922 L 1101 922 L 1101 595 Z M 1101 95 L 971 95 L 971 422 L 1101 422 L 1101 95 Z"/>
    <path fill="#000000" stroke="none" transform="matrix(1 0 0 -1 21545 2689)" d="M 586 1184 C 586 1103.33333333333 566.66666666667 1039.33333333333 528 992 C 488.66666666667 944.66666666667 437 921 373 921 C 306.33333333333 921 253.33333333333 944.66666666667 214 992 C 174.66666666667 1038.66666666667 155 1102.66666666667 155 1184 C 155 1267.33333333333 175 1334.66666666667 215 1386 C 255 1436.66666666667 307.66666666667 1462 373 1462 C 437 1462 488.66666666667 1436 528 1384 C 566.66666666667 1332 586 1265.33333333333 586 1184 Z M 466 1184 C 466 1246 458.66666666667 1289.33333333333 444 1314 C 429.33333333333 1338 405.66666666667 1350 373 1350 C 337.66666666667 1350 312.33333333333 1338.33333333333 297 1315 C 281.66666666667 1291 274 1247.33333333333 274 1184 C 274 1134 281 1096 295 1070 C 309 1044 333 1031 367 1031 C 403.66666666667 1031 429.33333333333 1043.66666666667 444 1069 C 458.66666666667 1094.33333333333 466 1132.66666666667 466 1184 Z M 1122 1146 L 891 1268 L 891 0 L 747 0 C 550.33333333333 0 396.66666666667 39 286 117 C 175.33333333333 195 120 304 120 444 C 120 534.66666666667 145.66666666667 614.33333333333 197 683 C 247.66666666667 751.66666666667 319 804.66666666667 411 842 C 503 879.33333333333 607 898 723 898 L 751 898 L 751 1492 L 1163 1267 L 1122 1146 Z M 702 778 C 562.66666666667 778 454.33333333333 748.66666666667 377 690 C 299 631.33333333333 260 549.33333333333 260 444 C 260 340 298.33333333333 260 375 204 C 451 148 560 120 702 120 L 751 120 L 751 778 L 702 778 Z"/>
    <path fill="#000000" stroke="none" transform="matrix(1 0 0 -1 23288 2689)" d="M 863 -16 L 524 599 L 193 -16 L 80 50 L 453 728 L 80 1407 L 193 1473 L 524 857 L 863 1473 L 908 1473 L 908 -16 L 863 -16 Z M 594 728 L 768 406 L 768 1051 L 594 728 Z"/>
    <path fill="#000000" stroke="none" transform="matrix(1 0 0 -1 24376 2689)" d="M 1263 785 L 844 785 L 844 372 C 844 236 816.66666666667 135.66666666667 762 71 C 706.66666666667 6.33333333333 623 -26 511 -26 C 401.66666666667 -26 319.33333333333 6 264 70 C 208 133.33333333333 180 234 180 372 L 180 1462 L 320 1462 L 320 905 L 704 905 L 704 1462 L 844 1462 L 844 905 L 1263 905 L 1263 785 Z M 513 94 C 582.33333333333 94 631.66666666667 115 661 157 C 689.66666666667 199 704 270.33333333333 704 371 L 704 785 L 320 785 L 320 371 C 320 271 334.33333333333 200 363 158 C 391.66666666667 115.33333333333 441.66666666667 94 513 94 Z M 1115 260 L 985 260 L 985 630 L 1115 630 L 1115 260 Z M 1115 1060 L 985 1060 L 985 1350 L 1115 1350 L 1115 1060 Z"/>
    <path fill="#000000" stroke="none" transform="matrix(1 0 0 -1 25659 2689)" d="M 1037 694 L 759 694 L 759 177 L 332 381 L 332 0 L 192 0 L 192 600 L 619 378 L 619 694 L 149 694 L 149 804 L 619 804 L 619 1488 L 1066 1260 L 1005 1148 L 759 1276 L 759 804 L 1037 804 L 1037 694 Z M 526 1174 C 526 1093.33333333333 506.66666666667 1029.33333333333 468 982 C 428.66666666667 934.66666666667 377 911 313 911 C 246.33333333333 911 193.33333333333 934.66666666667 154 982 C 114.66666666667 1028.66666666667 95 1092.66666666667 95 1174 C 95 1257.33333333333 115 1324.66666666667 155 1376 C 195 1426.66666666667 247.66666666667 1452 313 1452 C 377 1452 428.66666666667 1426 468 1374 C 506.66666666667 1322 526 1255.33333333333 526 1174 Z M 406 1174 C 406 1236 398.66666666667 1279.33333333333 384 1304 C 369.33333333333 1328 345.66666666667 1340 313 1340 C 277.66666666667 1340 252.33333333333 1328.33333333333 237 1305 C 221.66666666667 1281 214 1237.33333333333 214 1174 C 214 1124 221 1086 235 1060 C 249 1034 273 1021 307 1021 C 343.66666666667 1021 369.33333333333 1033.66666666667 384 1059 C 398.66666666667 1084.33333333333 406 1122.66666666667 406 1174 Z"/>
    <path fill="#000000" stroke="none" transform="matrix(1 0 0 -1 26805 2689)" d="M 1073 1462 C 1051.66666666667 1261.33333333333 999 1107.66666666667 915 1001 C 831 893.66666666667 721.66666666667 840 587 840 C 447 840 335.66666666667 892.33333333333 253 997 C 169.66666666667 1101.66666666667 118.66666666667 1256.66666666667 100 1462 L 239 1462 C 253.66666666667 1294 290.66666666667 1168.33333333333 350 1085 C 408.66666666667 1001.66666666667 487.66666666667 960 587 960 C 681.66666666667 960 758.66666666667 1002.66666666667 818 1088 C 876.66666666667 1172.66666666667 914.66666666667 1297.33333333333 932 1462 L 1073 1462 Z M 989 363 L 649 363 L 649 0 L 519 0 L 519 363 L 179 363 L 179 473 L 519 473 L 519 740 L 649 740 L 649 473 L 989 473 L 989 363 Z"/>
    <path fill="#000000" stroke="none" transform="matrix(1 0 0 -1 27978 2689)" d="M 120 330 C 120 389.33333333333 135.66666666667 444.66666666667 167 496 C 198.33333333333 547.33333333333 243 589.66666666667 301 623 C 359 655.66666666667 427.33333333333 675.66666666667 506 683 L 506 1331 L 854 1113 L 854 1462 L 984 1462 L 984 893 L 646 1110 L 646 683 C 726 675 795 654.66666666667 853 622 C 910.33333333333 588.66666666667 954.66666666667 546.33333333333 986 495 C 1016.66666666667 443 1032 388 1032 330 C 1032 264 1013.33333333333 203.66666666667 976 149 C 938.66666666667 94.33333333333 886 51.66666666667 818 21 C 750 -10.33333333333 669.66666666667 -26 577 -26 C 482.33333333333 -26 401 -11 333 19 C 264.33333333333 49 211.66666666667 91.66666666667 175 147 C 138.33333333333 201.66666666667 120 262.66666666667 120 330 Z M 260 330 C 260 254 286.66666666667 196 340 156 C 393.33333333333 115.33333333333 472.33333333333 95 577 95 C 679.66666666667 95 758 115 812 155 C 865.33333333333 195 892 253.33333333333 892 330 C 892 408 865 467 811 507 C 757 546.33333333333 679 566 577 566 C 473 566 394.33333333333 546 341 506 C 287 465.33333333333 260 406.66666666667 260 330 Z"/>
    <path fill="#000000" stroke="none" transform="matrix(1 0 0 -1 29130 2689)" d="M 1036 1023 L 708 1178 L 708 887 L 1081 700 L 1027 593 L 708 751 L 708 0 L 568 0 L 568 820 L 395 906 L 395 231 L 80 414 L 138 518 L 265 445 L 265 1110 L 568 958 L 568 1394 L 906 1218 L 906 1462 L 1036 1462 L 1036 1023 Z M 886 1585 C 802 1653 705 1687 595 1687 C 485 1687 388 1653 304 1585 L 227 1665 C 287.66666666667 1715 348 1750.33333333333 408 1771 C 468 1791.66666666667 530.33333333333 1802 595 1802 C 735 1802 858 1756.33333333333 964 1665 L 886 1585 Z"/>
    <path fill="#000000" stroke="none" transform="matrix(1 0 0 -1 30831 2689)" d="M 976 1145 C 1024 1195 1082 1235 1150 1265 L 1208 1162 C 1136.66666666667 1131.33333333333 1080.33333333333 1086.33333333333 1039 1027 C 997 967 976 898 976 820 C 976 746 995 681 1033 625 C 1070.33333333333 568.33333333333 1123.33333333333 524.33333333333 1192 493 L 1138 387 C 1075.33333333333 413.66666666667 1021.33333333333 449 976 493 L 976 372 C 976 236 948.66666666667 135.66666666667 894 71 C 838.66666666667 6.33333333333 755 -26 643 -26 C 533.66666666667 -26 451.33333333333 6 396 70 C 340 133.33333333333 312 234 312 372 L 312 493 C 266.66666666667 449 212.66666666667 413.66666666667 150 387 L 96 493 C 158.66666666667 521.66666666667 209.66666666667 562.66666666667 249 616 C 288.33333333333 668.66666666667 309.33333333333 732.66666666667 312 808 L 312 820 C 312 898 291.33333333333 966.66666666667 250 1026 C 208 1085.33333333333 151.33333333333 1130.66666666667 80 1162 L 138 1265 C 206 1234.33333333333 264 1194.33333333333 312 1145 L 312 1462 L 452 1462 L 452 371 C 452 271 466.33333333333 200 495 158 C 523.66666666667 115.33333333333 573.66666666667 94 645 94 C 714.33333333333 94 763.66666666667 115 793 157 C 821.66666666667 199 836 270.33333333333 836 371 L 836 1462 L 976 1462 L 976 1145 Z M 593 1300 L 593 1216 C 593 1158.66666666667 609 1130 641 1130 C 677 1130 695 1158.66666666667 695 1216 L 695 1300 L 788 1300 L 788 1205 C 788 1151.66666666667 775.66666666667 1110 751 1080 C 725.66666666667 1049.33333333333 690.66666666667 1034 646 1034 C 599.33333333333 1034 563.33333333333 1049 538 1079 C 512.66666666667 1109 500 1151 500 1205 L 500 1300 L 593 1300 Z M 593 850 L 593 766 C 593 708.66666666667 609 680 641 680 C 677 680 695 708.66666666667 695 766 L 695 850 L 788 850 L 788 755 C 788 701.66666666667 775.66666666667 660 751 630 C 725.66666666667 599.33333333333 690.66666666667 584 646 584 C 599.33333333333 584 563.33333333333 599 538 629 C 512.66666666667 659 500 701 500 755 L 500 850 L 593 850 Z"/>
    <path fill="#000000" stroke="none" transform="matrix(1 0 0 -1 32119 2689)" d="M 1090 1342 L 723 1342 C 677 1342 646.66666666667 1335.33333333333 632 1322 C 617.33333333333 1308 610 1275 610 1223 L 610 240 C 610 188.66666666667 617.33333333333 156 632 142 C 646 127.33333333333 676.33333333333 120 723 120 L 1090 120 L 1090 0 L 712 0 C 620 0 556.66666666667 17.33333333333 522 52 C 487.33333333333 86.66666666667 470 152 470 248 L 470 731 L 423 731 C 367 731 319.33333333333 708.33333333333 280 663 C 240.66666666667 617.66666666667 221 561.33333333333 221 494 C 221 430 231.33333333333 377.66666666667 252 337 C 272 296.33333333333 303.66666666667 259.33333333333 347 226 L 268 136 C 205.33333333333 184.66666666667 158.33333333333 238 127 296 C 95.66666666667 353.33333333333 80 419.33333333333 80 494 C 80 550.66666666667 94.33333333333 605.66666666667 123 659 C 151 712.33333333333 188.66666666667 754.33333333333 236 785 C 188.66666666667 816.33333333333 151 858.33333333333 123 911 C 94.33333333333 963 80 1017 80 1073 C 80 1152.33333333333 94.66666666667 1220.66666666667 124 1278 C 153.33333333333 1334.66666666667 196.33333333333 1386 253 1432 L 344 1346 C 261.33333333333 1284 220 1194.33333333333 220 1077 C 220 1010.33333333333 239.33333333333 954.33333333333 278 909 C 316 863.66666666667 364.33333333333 841 423 841 L 470 841 L 470 1212 C 470 1281.33333333333 477.66666666667 1333 493 1367 C 508.33333333333 1400.33333333333 533.66666666667 1424.66666666667 569 1440 C 603.66666666667 1454.66666666667 651.33333333333 1462 712 1462 L 1090 1462 L 1090 1342 Z M 920 385 L 790 385 L 790 1128 L 920 1128 L 920 385 Z"/>
    <path fill="#000000" stroke="none" transform="matrix(1 0 0 -1 33309 2689)" d="M 1073 733 C 1073 493 1032.66666666667 306.66666666667 952 174 C 870.66666666667 40.66666666667 755.66666666667 -26 607 -26 C 458.33333333333 -26 343.33333333333 41.33333333333 262 176 C 180.66666666667 310.66666666667 140 499 140 741 C 140 974.33333333333 181 1157.33333333333 263 1290 C 344.33333333333 1422 459 1488 607 1488 C 756.33333333333 1488 871.33333333333 1422 952 1290 C 1032.66666666667 1157.33333333333 1073 971.66666666667 1073 733 Z M 933 733 C 933 939 905 1096.33333333333 849 1205 C 792.33333333333 1313.66666666667 711 1368 605 1368 C 502.33333333333 1368 422.66666666667 1313.33333333333 366 1204 C 308.66666666667 1094.66666666667 280 940.33333333333 280 741 C 280 527.66666666667 307.66666666667 366.66666666667 363 258 C 418.33333333333 148.66666666667 499 94 605 94 C 710.33333333333 94 791.33333333333 149 848 259 C 904.66666666667 368.33333333333 933 526.33333333333 933 733 Z M 851 678 C 851 578.66666666667 828 497 782 433 C 735.33333333333 369 675.66666666667 337 603 337 C 531.66666666667 337 473.66666666667 369.66666666667 429 435 C 383.66666666667 500.33333333333 361 581.33333333333 361 678 L 361 1065 L 481 1065 L 481 891 L 731 891 L 731 1065 L 851 1065 L 851 678 Z M 609 447 C 643.66666666667 447 672.66666666667 470 696 516 C 719.33333333333 562 731 617 731 681 L 731 771 L 481 771 L 481 690 C 481 622 493 564.66666666667 517 518 C 540.33333333333 470.66666666667 571 447 609 447 Z"/>
    <path fill="#000000" stroke="none" transform="matrix(1 0 0 -1 34522 2689)" d="M 241 1059 C 241 1143.66666666667 256 1218.33333333333 286 1283 C 316 1347.66666666667 360 1398 418 1434 C 476 1470 546 1488 628 1488 C 748 1488 842.33333333333 1450 911 1374 C 979 1298 1013 1193 1013 1059 C 1013 943.66666666667 985.66666666667 850.66666666667 931 780 C 875.66666666667 708.66666666667 797.66666666667 666.66666666667 697 654 L 697 335 C 697 174.33333333333 747.33333333333 94 848 94 C 890.66666666667 94 922 104 942 124 C 962 143.33333333333 976.66666666667 176.66666666667 986 224 C 994.66666666667 270.66666666667 999 340 999 432 L 1134 432 C 1134 312.66666666667 1124 221.33333333333 1104 158 C 1083.33333333333 94 1052.33333333333 47.33333333333 1011 18 C 969.66666666667 -11.33333333333 918.66666666667 -26 858 -26 C 757.33333333333 -26 680.33333333333 14.66666666667 627 96 C 572.33333333333 14.66666666667 495.33333333333 -26 396 -26 C 334.66666666667 -26 283.66666666667 -11.33333333333 243 18 C 201.66666666667 46.66666666667 171 92.66666666667 151 156 C 130.33333333333 219.33333333333 120 311.33333333333 120 432 L 255 432 C 255 342 259.66666666667 273 269 225 C 277.66666666667 177 292 143.33333333333 312 124 C 332 104 363.33333333333 94 406 94 C 506.66666666667 94 557 174.33333333333 557 335 L 557 654 C 456.33333333333 666.66666666667 378.66666666667 708.33333333333 324 779 C 268.66666666667 849 241 942.33333333333 241 1059 Z M 692 767 C 746 777 789.33333333333 802.33333333333 822 843 C 854.66666666667 883 874.33333333333 938.66666666667 881 1010 L 692 1010 L 692 767 Z M 373 1010 C 379 938.66666666667 398.66666666667 883 432 843 C 465.33333333333 802.33333333333 508.66666666667 777 562 767 L 562 1010 L 373 1010 Z M 879 1130 C 862.33333333333 1269.33333333333 800 1350 692 1372 L 692 1130 L 879 1130 Z M 562 1371 C 453.33333333333 1347.66666666667 391 1267.33333333333 375 1130 L 562 1130 L 562 1371 Z M 905 348 L 785 348 L 785 595 L 905 595 L 905 348 Z M 469 348 L 349 348 L 349 595 L 469 595 L 469 348 Z"/>
    <path fill="#000000" stroke="none" transform="matrix(1 0 0 -1 35776 2689)" d="M 273 191 L 522 394 L 273 598 L 357 677 L 546 522 L 546 802 C 502.66666666667 768 447.33333333333 751 380 751 C 288 751 219.33333333333 781.66666666667 174 843 C 128 903.66666666667 103.33333333333 1007.33333333333 100 1154 L 240 1154 C 242.66666666667 1042 254.33333333333 967 275 929 C 295 890.33333333333 332.66666666667 871 388 871 C 440 871 478.33333333333 889.33333333333 503 926 C 527.66666666667 962 540.66666666667 1016.33333333333 542 1089 C 400.66666666667 1117 328.33333333333 1241.33333333333 325 1462 L 465 1462 C 469 1362.66666666667 481.66666666667 1295 503 1259 C 523.66666666667 1222.33333333333 560.66666666667 1204 614 1204 C 668.66666666667 1204 707 1223.66666666667 729 1263 C 750.33333333333 1301.66666666667 762.33333333333 1368 765 1462 L 905 1462 C 902.33333333333 1346 882.33333333333 1258.66666666667 845 1200 C 807 1140.66666666667 752.66666666667 1104.33333333333 682 1091 C 685.33333333333 1017 698.33333333333 962 721 926 C 743.66666666667 889.33333333333 781.33333333333 871 834 871 C 887.33333333333 871 924.66666666667 891 946 931 C 967.33333333333 971 979.33333333333 1045.33333333333 982 1154 L 1122 1154 C 1119.33333333333 1049.33333333333 1108.33333333333 970.33333333333 1089 917 C 1069 863 1039 822 999 794 C 959 765.33333333333 906.66666666667 751 842 751 C 774.66666666667 751 719.33333333333 768 676 802 L 676 519 L 869 677 L 953 598 L 704 394 L 953 191 L 871 109 L 676 268 L 676 0 L 546 0 L 546 265 L 355 109 L 273 191 Z M 903 1585 C 819 1653 722 1687 612 1687 C 502 1687 405 1653 321 1585 L 244 1665 C 304.66666666667 1715 365 1750.33333333333 425 1771 C 485 1791.66666666667 547.33333333333 1802 612 1802 C 752 1802 875 1756.33333333333 981 1665 L 903 1585 Z"/>
    <path fill="#000000" stroke="none" transform="matrix(1 0 0 -1 36998 2689)" d="M 967 1463 L 967 207 L 450 431 L 450 0 L 310 0 L 310 620 L 827 398 L 827 1463 L 967 1463 Z M 205 750 C 135 842 100 951.33333333333 100 1078 C 100 1166 122.66666666667 1244 168 1312 C 213.33333333333 1380 277 1435.33333333333 359 1478 L 421 1378 C 362.33333333333 1352 316 1312 282 1258 C 247.33333333333 1203.33333333333 230 1143.33333333333 230 1078 C 230 1030 237.66666666667 983 253 937 C 268.33333333333 891 288 850.66666666667 312 816 L 205 750 Z M 753 1054 C 753 973.33333333333 733.66666666667 909.33333333333 695 862 C 655.66666666667 814.66666666667 604 791 540 791 C 473.33333333333 791 420.33333333333 814.66666666667 381 862 C 341.66666666667 908.66666666667 322 972.66666666667 322 1054 C 322 1137.33333333333 342 1204.66666666667 382 1256 C 422 1306.66666666667 474.66666666667 1332 540 1332 C 604 1332 655.66666666667 1306 695 1254 C 733.66666666667 1202 753 1135.33333333333 753 1054 Z M 633 1054 C 633 1116 625.66666666667 1159.33333333333 611 1184 C 596.33333333333 1208 572.66666666667 1220 540 1220 C 504.66666666667 1220 479.33333333333 1208.33333333333 464 1185 C 448.66666666667 1161 441 1117.33333333333 441 1054 C 441 1004 448 966 462 940 C 476 914 500 901 534 901 C 570.66666666667 901 596.33333333333 913.66666666667 611 939 C 625.66666666667 964.33333333333 633 1002.66666666667 633 1054 Z"/>
</svg>
