<svg width="41824" height="3789" viewBox="0 0 41824 3789" xmlns="http://www.w3.org/2000/svg">
    <defs/>
    <path fill="#000000" stroke="none" transform="matrix(1 0 0 -1 0 2689)" d="M 1327 1288 C 1281.66666666667 1124.66666666667 1259 802.33333333333 1259 321 L 1260 174 C 1260 98.66666666667 1226.33333333333 36.66666666667 1159 -12 C 1091.66666666667 -61.33333333333 1004.66666666667 -86 898 -86 C 748.66666666667 -86 626.33333333333 -71.66666666667 531 -43 C 435.66666666667 -14.33333333333 363.66666666667 0 315 0 C 257 0 212 -4 180 -12 L 219 223 C 245.66666666667 228.33333333333 281 231 325 231 C 385.66666666667 231 468.66666666667 204.66666666667 574 152 C 679.33333333333 98.66666666667 787.33333333333 72 898 72 C 960 72 1008.66666666667 86 1044 114 C 1079.33333333333 142 1097 181.66666666667 1097 233 C 1097 279.66666666667 1089.33333333333 373 1074 513 C 1058.66666666667 652.33333333333 1051 774.33333333333 1051 879 L 1051 926 L 1052 973 C 954 898.33333333333 830.33333333333 861 681 861 C 529 861 411.33333333333 892.66666666667 328 956 C 244 1018.66666666667 202 1109 202 1227 C 202 1267.66666666667 207.33333333333 1308 218 1348 L 451 1285 C 445 1257.66666666667 442 1230.66666666667 442 1204 C 442 1137.33333333333 464.33333333333 1090 509 1062 C 553.66666666667 1034 623 1020 717 1020 C 813.66666666667 1020 892 1045.33333333333 952 1096 C 1012 1146.66666666667 1056.33333333333 1228.33333333333 1085 1341 L 1327 1288 Z"/>
    <path fill="#000000" stroke="none" transform="matrix(1 0 0 -1 2039 2689)" d="M 224 -90 C 194.66666666667 -33.33333333333 180 55 180 175 C 180 291 209.33333333333 426.33333333333 268 581 C 326 735.66666666667 412.66666666667 903.66666666667 528 1085 C 480 1109.66666666667 429.33333333333 1127.33333333333 376 1138 L 440 1374 C 554.66666666667 1350.66666666667 656.33333333333 1295.33333333333 745 1208 C 833 1120.66666666667 911 1000 979 846 C 1149 1077.33333333333 1305.66666666667 1236.33333333333 1449 1323 L 1570 1121 C 1366.66666666667 998.33333333333 1191 853 1043 685 C 1077.66666666667 589.66666666667 1111.33333333333 478 1144 350 C 1193.33333333333 438 1267.33333333333 535.66666666667 1366 643 C 1464.66666666667 750.33333333333 1554 827.33333333333 1634 874 L 1758 660 C 1644 590.66666666667 1536 509 1434 415 C 1331.33333333333 321 1239.66666666667 222.33333333333 1159 119 L 1046 141 C 996.66666666667 355 939 534.66666666667 873 680 C 807 825.33333333333 727 937 633 1015 C 568.33333333333 902.33333333333 517.66666666667 776 481 636 C 443.66666666667 496 425 363.66666666667 425 239 C 425 133.66666666667 437.33333333333 54 462 0 L 224 -90 Z"/>
    <path fill="#000000" stroke="none" transform="matrix(1 0 0 -1 3937 2689)" d="M 54 1801 C 147.33333333333 1835 225 1866.66666666667 287 1896 C 349 1924.66666666667 394.66666666667 1950 424 1972 L 467 1891 C 443 1873 411 1855.33333333333 371 1838 C 330.33333333333 1820 286 1803 238 1787 L 172 1765 C 213.33333333333 1761.66666666667 259.66666666667 1750 311 1730 C 361.66666666667 1709.33333333333 417.66666666667 1680 479 1642 L 412 1522 C 375.33333333333 1550.66666666667 328.33333333333 1578.66666666667 271 1606 C 213 1633.33333333333 131.66666666667 1663 27 1695 L 54 1801 Z"/>
    <path fill="#000000" stroke="none" transform="matrix(1 0 0 -1 4443 2689)" d="M 140 1165 C 340.66666666667 1313.66666666667 543.66666666667 1388 749 1388 C 911 1388 1045.33333333333 1341 1152 1247 C 1258 1152.33333333333 1311 1044.66666666667 1311 924 C 1311 872 1217 764 1029 600 L 807 408 C 845 304 864 209.33333333333 864 124 C 864 44 848.66666666667 -24.66666666667 818 -82 L 585 0 C 607.66666666667 52 619 111.33333333333 619 178 C 619 314 578.33333333333 465.66666666667 497 633 C 415.66666666667 799.66666666667 296.66666666667 977 140 1165 Z M 371 1099 C 452.33333333333 1008.33333333333 525 914.66666666667 589 818 C 653 721.33333333333 705 631.66666666667 745 549 L 930 711 C 1024 794.33333333333 1071 860.33333333333 1071 909 C 1071 1007 1039 1086.66666666667 975 1148 C 911 1209.33333333333 828.66666666667 1240 728 1240 C 667.33333333333 1240 606 1228.33333333333 544 1205 C 482 1181.66666666667 424.33333333333 1146.33333333333 371 1099 Z"/>
    <path fill="#000000" stroke="none" transform="matrix(1 0 0 -1 5934 2689)" d="M 100 426 C 154 663.33333333333 248.66666666667 871 384 1049 C 519.33333333333 1226.33333333333 665.66666666667 1315 823 1315 C 945.66666666667 1315 1032 1268.33333333333 1082 1175 C 1212 1311 1342 1379 1472 1379 C 1589.33333333333 1379 1677.33333333333 1337 1736 1253 C 1819.33333333333 1353 1937.33333333333 1425.66666666667 2090 1471 L 2140 1249 C 2035.33333333333 1213 1968 1187 1938 1171 C 1907.33333333333 1154.33333333333 1880.33333333333 1135.66666666667 1857 1115 C 1833 1094.33333333333 1813 1069.33333333333 1797 1040 L 1798 1030 C 1798 965.33333333333 1784.66666666667 890 1758 804 C 1731.33333333333 717.33333333333 1681.33333333333 598.66666666667 1608 448 L 1537 303 C 1453.66666666667 132.33333333333 1409.66666666667 9.33333333333 1405 -66 L 1154 0 C 1160.66666666667 45.33333333333 1181.66666666667 103 1217 173 C 1251.66666666667 243 1312.33333333333 347 1399 485 C 1485.66666666667 623 1546.66666666667 733.33333333333 1582 816 C 1616.66666666667 898.66666666667 1634 970.66666666667 1634 1032 C 1634 1090.66666666667 1618 1137.66666666667 1586 1173 C 1553.33333333333 1207.66666666667 1509 1225 1453 1225 C 1373.66666666667 1225 1292.66666666667 1171 1210 1063 C 1126.66666666667 955 1050.33333333333 808 981 622 C 911 436 874.66666666667 307.66666666667 872 237 L 610 208 C 613.33333333333 271.33333333333 649.33333333333 389.33333333333 718 562 C 786 734 865.33333333333 885.66666666667 956 1017 C 945.33333333333 1113 895 1161 805 1161 C 719.66666666667 1161 639.33333333333 1102.66666666667 564 986 C 488.66666666667 869.33333333333 423.33333333333 700.66666666667 368 480 L 100 426 Z"/>
    <path fill="#000000" stroke="none" transform="matrix(1 0 0 -1 8174 2689)" d="M 951 1239 C 903.66666666667 1213.66666666667 849 1191.33333333333 787 1172 C 725 1152.66666666667 651.66666666667 1134 567 1116 C 482.33333333333 1097.33333333333 440 1075 440 1049 C 440 951.66666666667 468 824.66666666667 524 668 C 579.33333333333 510.66666666667 643.66666666667 380 717 276 C 789.66666666667 172 858 120 922 120 C 1016.66666666667 120 1110.33333333333 171.66666666667 1203 275 C 1295.66666666667 378.33333333333 1372.66666666667 511 1434 673 C 1495.33333333333 835 1526 986.66666666667 1526 1128 C 1526 1153.33333333333 1508.33333333333 1166 1473 1166 C 1409.66666666667 1166 1350 1148 1294 1112 C 1238 1076 1210 1039 1210 1001 C 1210 981.66666666667 1213.66666666667 965.66666666667 1221 953 C 1227.66666666667 939.66666666667 1236.33333333333 926.66666666667 1247 914 L 1071 738 C 1032.33333333333 778.66666666667 1006 817 992 853 C 977.33333333333 889 970 931 970 979 C 970 1011.66666666667 1007.66666666667 1060 1083 1124 C 1158.33333333333 1188 1239 1241.66666666667 1325 1285 C 1411 1328.33333333333 1482.33333333333 1350 1539 1350 C 1596.33333333333 1350 1647.33333333333 1330.66666666667 1692 1292 C 1736.66666666667 1253.33333333333 1763 1210.33333333333 1771 1163 C 1765.66666666667 1046.33333333333 1745.33333333333 941 1710 847 C 1674.66666666667 752.33333333333 1639 667.66666666667 1603 593 C 1567 517.66666666667 1524.66666666667 442.66666666667 1476 368 C 1427.33333333333 293.33333333333 1377.33333333333 227 1326 169 C 1274.66666666667 111 1222.66666666667 63 1170 25 C 1074.66666666667 -45 983.66666666667 -80 897 -80 C 775 -80 661.33333333333 -16.66666666667 556 110 C 450.66666666667 236.66666666667 361.66666666667 411 289 633 C 216.33333333333 854.33333333333 180 1034.33333333333 180 1173 C 196 1195 299.66666666667 1221.33333333333 491 1252 C 682.33333333333 1282.66666666667 815 1320.33333333333 889 1365 L 951 1239 Z"/>
    <path fill="#000000" stroke="none" transform="matrix(1 0 0 -1 10125 2689)" d="M 180 1210 C 212.66666666667 1252.66666666667 301.33333333333 1288.33333333333 446 1317 C 590.66666666667 1345.66666666667 753.33333333333 1360 934 1360 C 1101.33333333333 1360 1247 1347 1371 1321 C 1494.33333333333 1295 1589.33333333333 1258.33333333333 1656 1211 L 1659 1165 C 1659 1026.33333333333 1620.66666666667 872.33333333333 1544 703 C 1466.66666666667 533 1372.66666666667 399 1262 301 C 1151.33333333333 203 1040 154 928 154 C 802.66666666667 154 685.33333333333 205.66666666667 576 309 C 466 412.33333333333 372.66666666667 556 296 740 C 218.66666666667 924 180 1080.66666666667 180 1210 Z M 1185 476 C 1269 556.66666666667 1339.33333333333 654.33333333333 1396 769 C 1452.66666666667 883 1481 985.66666666667 1481 1077 C 1481 1111.66666666667 1426.33333333333 1141 1317 1165 C 1207.66666666667 1189 1080 1201 934 1201 C 799.33333333333 1201 683.33333333333 1189.33333333333 586 1166 C 488.66666666667 1142.66666666667 440 1113 440 1077 C 440 995.66666666667 469 895.66666666667 527 777 C 585 657.66666666667 654.33333333333 557.33333333333 735 476 C 815 394.66666666667 887.66666666667 354 953 354 C 1023 354 1100.33333333333 394.66666666667 1185 476 Z"/>
    <path fill="#000000" stroke="none" transform="matrix(1 0 0 -1 12496 2689)" d="M 1315 1191 L 1232 1190 L 1003 1190 C 1141 1015.33333333333 1251.66666666667 839 1335 661 C 1418.33333333333 483 1460 330.33333333333 1460 203 C 1460 98.33333333333 1435.66666666667 -0.66666666667 1387 -94 L 1148 0 C 1192.66666666667 84 1215 172.66666666667 1215 266 C 1215 386 1179 527.66666666667 1107 691 C 1035 853.66666666667 935.33333333333 1018.66666666667 808 1186 C 630.66666666667 1178 501.66666666667 1155.33333333333 421 1118 C 339.66666666667 1080 273.66666666667 1020 223 938 L 80 1114 C 117.33333333333 1190.66666666667 192.33333333333 1249.33333333333 305 1290 C 417.66666666667 1330 564 1350 744 1350 C 831.33333333333 1350 992.66666666667 1342.33333333333 1228 1327 L 1290 1327 L 1315 1191 Z"/>
    <path fill="#000000" stroke="none" transform="matrix(1 0 0 -1 14116 2689)" d="M 413 1573 L 515 1805 C 603.66666666667 1757.66666666667 672.66666666667 1694 722 1614 C 771.33333333333 1534 796 1449 796 1359 C 796 1231.66666666667 763.33333333333 1091 698 937 C 632 783 514.66666666667 580.66666666667 346 330 L 209 123 C 238.33333333333 108.33333333333 271 101 307 101 C 395.66666666667 101 501 122.66666666667 623 166 C 745 209.33333333333 849.66666666667 231 937 231 C 981.66666666667 231 1017.33333333333 228.33333333333 1044 223 L 1083 -12 C 1051 -4 1003 0 939 0 C 862.33333333333 0 754.33333333333 -9.33333333333 615 -28 C 475.66666666667 -47.33333333333 363.66666666667 -57 279 -57 C 183.66666666667 -57 104 -41.33333333333 40 -10 L 86 171 C 226.66666666667 350.33333333333 349 546.33333333333 453 759 C 557 971.66666666667 609 1148 609 1288 C 609 1356.66666666667 591.66666666667 1416.33333333333 557 1467 C 522.33333333333 1517 474.33333333333 1552.33333333333 413 1573 Z"/>
    <path fill="#000000" stroke="none" transform="matrix(1 0 0 -1 15359 2689)" d="M 1198 1305 L 1218 1277 C 1380.66666666667 1056.33333333333 1508 851.33333333333 1600 662 C 1691.33333333333 472 1737 319 1737 203 C 1737 95.66666666667 1712.66666666667 -3.33333333333 1664 -94 L 1426 0 C 1470 82.66666666667 1492 171.33333333333 1492 266 C 1492 344.66666666667 1475.33333333333 434.33333333333 1442 535 C 1408 635.66666666667 1360 741 1298 851 C 1136.66666666667 769.66666666667 1009.66666666667 688.66666666667 917 608 C 823.66666666667 526.66666666667 766.33333333333 448.66666666667 745 374 L 552 486 C 579.33333333333 557.33333333333 645.66666666667 632.66666666667 751 712 C 855.66666666667 791.33333333333 1013.66666666667 878 1225 972 C 1173 1052.66666666667 1116 1133.66666666667 1054 1215 C 809.33333333333 1178.33333333333 635 1131 531 1073 C 427 1014.33333333333 349.66666666667 925 299 805 L 130 958 C 166 1050.66666666667 236 1127 340 1187 C 443.33333333333 1247 580 1291.66666666667 750 1321 C 920 1349.66666666667 1046 1364 1128 1364 C 1146.66666666667 1364 1170 1344.33333333333 1198 1305 Z"/>
    <path fill="#000000" stroke="none" transform="matrix(1 0 0 -1 17256 2689)" d="M 370 1278 C 490 1326 622.33333333333 1350 767 1350 C 905.66666666667 1350 1014 1328.66666666667 1092 1286 C 1169.33333333333 1242.66666666667 1225 1173 1259 1077 C 1292.33333333333 981 1309 836.33333333333 1309 643 C 1309 443 1292 296.33333333333 1258 203 C 1223.33333333333 109.66666666667 1170.33333333333 41 1099 -3 C 1027 -47 935.33333333333 -69 824 -69 C 730 -69 638.33333333333 -59.33333333333 549 -40 C 459.66666666667 -21.33333333333 373 -12 289 -12 C 240.33333333333 -12 201.66666666667 -16 173 -24 L 213 211 C 239.66666666667 216.33333333333 265.66666666667 219 291 219 C 375.66666666667 219 460.66666666667 197.33333333333 546 154 C 630.66666666667 110.66666666667 717 89 805 89 C 893.66666666667 89 960 133.66666666667 1004 223 C 1047.33333333333 311.66666666667 1069 462 1069 674 C 1069 823.33333333333 1058 931 1036 997 C 1013.33333333333 1062.33333333333 976 1111 924 1143 C 872 1175 803.33333333333 1191 718 1191 C 548 1191 422 1156 340 1086 L 239 1115 C 217 1179 198.33333333333 1263 183 1367 C 167.66666666667 1471 160 1561 160 1637 C 160 1755 170.66666666667 1866 192 1970 L 439 1919 C 390.33333333333 1729 366 1551.33333333333 366 1386 L 370 1278 Z"/>
    <path fill="#000000" stroke="none" transform="matrix(1 0 0 -1 18745 2689)" d="M 1041 1292 C 1019.66666666667 1210.66666666667 1009 1140.33333333333 1009 1081 C 1009 1001.66666666667 1023 944 1051 908 C 1078.33333333333 872 1119.33333333333 854 1174 854 C 1218.66666666667 854 1259 872 1295 908 C 1330.33333333333 943.33333333333 1360.66666666667 1000 1386 1078 C 1411.33333333333 1155.33333333333 1425 1204.66666666667 1427 1226 C 1429 1246.66666666667 1435 1287.33333333333 1445 1348 L 1687 1295 C 1641.66666666667 1135 1619 809.33333333333 1619 318 L 1620 171 C 1620 95.66666666667 1586.33333333333 33.66666666667 1519 -15 C 1451.66666666667 -64.33333333333 1364.66666666667 -89 1258 -89 C 1067.33333333333 -89 891.66666666667 -71.33333333333 731 -36 C 570.33333333333 -1.33333333333 436.66666666667 16 330 16 C 252 16 197 12 165 4 L 205 239 C 231.66666666667 244.33333333333 276.33333333333 247 339 247 C 423 247 514.66666666667 226 614 184 C 713.33333333333 142 813.66666666667 112.33333333333 915 95 C 1015.66666666667 77.66666666667 1130 69 1258 69 C 1320 69 1368.66666666667 83 1404 111 C 1439.33333333333 139 1457 178.66666666667 1457 230 C 1457 271.33333333333 1450.33333333333 357.33333333333 1437 488 C 1423.66666666667 618 1415.66666666667 722.66666666667 1413 802 C 1345 731.33333333333 1260.66666666667 696 1160 696 C 1003.33333333333 696 895.33333333333 752.66666666667 836 866 C 758.66666666667 752.66666666667 657 696 531 696 C 411.66666666667 696 320 730 256 798 C 192 865.33333333333 160 961 160 1085 C 160 1179 172.33333333333 1269 197 1355 L 412 1292 C 390.66666666667 1210.66666666667 380 1140.33333333333 380 1081 C 380 1001.66666666667 394 944 422 908 C 450 872 491.33333333333 854 546 854 C 586.66666666667 854 624.33333333333 870.33333333333 659 903 C 693.66666666667 935 725 988.33333333333 753 1063 C 781 1137.66666666667 796.66666666667 1191.66666666667 800 1225 C 802.66666666667 1257.66666666667 811.33333333333 1301 826 1355 L 1041 1292 Z"/>
    <path fill="#000000" stroke="none" transform="matrix(1 0 0 -1 20612 2689)" d="M 1525 -94 L 1286 0 C 1330.66666666667 82.66666666667 1353 171.33333333333 1353 266 C 1353 366 1333 469.66666666667 1293 577 C 1011 405.66666666667 857 241.66666666667 831 85 L 625 168 C 646.33333333333 246.66666666667 699 324.33333333333 783 401 C 867 477.66666666667 990.33333333333 558.66666666667 1153 644 L 1246 695 C 1200.66666666667 795 1143.33333333333 898.33333333333 1074 1005 C 946 943.66666666667 838 868 750 778 C 662 687.33333333333 610.33333333333 596.33333333333 595 505 L 390 587 C 410.66666666667 661 460 735.33333333333 538 810 C 615.33333333333 884.66666666667 739 967.66666666667 909 1059 L 1003 1110 L 940 1194 C 779.33333333333 1194 643.33333333333 1177.33333333333 532 1144 C 420 1110 333.66666666667 1043 273 943 L 130 1119 C 164.66666666667 1190.33333333333 239.66666666667 1247 355 1289 C 470.33333333333 1330.33333333333 607 1351 765 1351 C 807.66666666667 1351 857 1349.66666666667 913 1347 C 968.33333333333 1343.66666666667 1004.66666666667 1340.33333333333 1022 1337 L 1116 1222 C 1264 1040.66666666667 1381.33333333333 858 1468 674 C 1554.66666666667 490 1598 333 1598 203 C 1598 95.66666666667 1573.66666666667 -3.33333333333 1525 -94 Z"/>
    <path fill="#000000" stroke="none" transform="matrix(1 0 0 -1 22902 2689)" d="M 1031 0 C 1047 46 1055 98 1055 156 C 1055 283.33333333333 1033.33333333333 420.33333333333 990 567 C 841.33333333333 579.66666666667 718 586 620 586 L 327 586 C 286.33333333333 586 255.66666666667 589 235 595 C 213.66666666667 601 191 617 167 643 C 142.33333333333 669 130 693.66666666667 130 717 C 130 737.66666666667 146.66666666667 773.33333333333 180 824 C 213.33333333333 874.66666666667 257.66666666667 935.33333333333 313 1006 C 368.33333333333 1076.66666666667 417.66666666667 1135.33333333333 461 1182 C 503.66666666667 1228 540 1264.66666666667 570 1292 C 599.33333333333 1319.33333333333 623.66666666667 1340 643 1354 C 662.33333333333 1368 685 1375 711 1375 C 725.66666666667 1375 742 1366.33333333333 760 1349 C 778 1331 836.66666666667 1234 936 1058 C 1034.66666666667 882 1120 700.66666666667 1192 514 C 1264 326.66666666667 1300 175.66666666667 1300 61 C 1300 -1.66666666667 1289.66666666667 -53 1269 -93 L 1031 0 Z M 930 737 C 894.66666666667 826.33333333333 852 917.33333333333 802 1010 C 751.33333333333 1102 708.66666666667 1167.66666666667 674 1207 C 652 1195.66666666667 596.66666666667 1126.33333333333 508 999 C 419.33333333333 871 375 791.33333333333 375 760 C 375 753.33333333333 376.66666666667 749.33333333333 380 748 C 383.33333333333 746 389 745 397 745 L 598 745 L 741 743 L 930 737 Z"/>
    <path fill="#000000" stroke="none" transform="matrix(1 0 0 -1 24362 2689)" d="M 214 1501 C 296 1491 362.66666666667 1455.66666666667 414 1395 C 465.33333333333 1334.33333333333 507.66666666667 1235.66666666667 541 1099 C 653 1173 778.66666666667 1235 918 1285 C 1056.66666666667 1335 1175 1360 1273 1360 C 1319 1360 1369 1300.66666666667 1423 1182 C 1476.33333333333 1062.66666666667 1525.66666666667 912 1571 730 C 1616.33333333333 547.33333333333 1639 417.33333333333 1639 340 C 1639 270.66666666667 1609.66666666667 215.33333333333 1551 174 C 1491.66666666667 132 1357 92.66666666667 1147 56 C 937 18.66666666667 780 -36.33333333333 676 -109 L 566 98 C 603.33333333333 125.33333333333 651.33333333333 146.33333333333 710 161 C 768.66666666667 175.66666666667 849.33333333333 183 952 183 C 1091.33333333333 183 1187 189.66666666667 1239 203 C 1291 215.66666666667 1330 235 1356 261 C 1381.33333333333 287 1394 323.33333333333 1394 370 C 1394 417.33333333333 1374.33333333333 521.33333333333 1335 682 C 1201 586 1075.66666666667 511.66666666667 959 459 C 842.33333333333 405.66666666667 741.66666666667 379 657 379 C 588.33333333333 379 546.33333333333 409.66666666667 531 471 C 515 532.33333333333 486.66666666667 648 446 818 C 405.33333333333 988 361 1105.66666666667 313 1171 C 265 1235.66666666667 204 1270.33333333333 130 1275 L 214 1501 Z M 669 520 C 755.66666666667 522 852.33333333333 556.33333333333 959 623 C 1065.66666666667 689.66666666667 1171.33333333333 782.66666666667 1276 902 C 1220 1092 1180 1187 1156 1187 C 1084 1187 997 1161 895 1109 C 792.33333333333 1056.33333333333 689.33333333333 983.33333333333 586 890 L 623 708 C 635.66666666667 646 651 583.33333333333 669 520 Z"/>
    <path fill="#000000" stroke="none" transform="matrix(1 0 0 -1 26161 2689)" d="M 24 1548 C 66.66666666667 1618 108.33333333333 1702 149 1800 C 189.66666666667 1897.33333333333 218.66666666667 1985 236 2063 L 431 2091 C 407.66666666667 2005 364.66666666667 1908.33333333333 302 1801 C 238.66666666667 1693.66666666667 168 1600.33333333333 90 1521 L 24 1548 Z"/>
    <path fill="#000000" stroke="none" transform="matrix(1 0 0 -1 26630 2689)" d="M 160 1184 C 254.66666666667 1243.33333333333 347.33333333333 1287.66666666667 438 1317 C 528 1345.66666666667 656 1360 822 1360 C 959.33333333333 1360 1067 1337.33333333333 1145 1292 C 1222.33333333333 1246.66666666667 1278.33333333333 1174.66666666667 1313 1076 C 1347 977.33333333333 1364 828.66666666667 1364 630 C 1364 431.33333333333 1347.33333333333 288.33333333333 1314 201 C 1280 113 1228 47.66666666667 1158 5 C 1087.33333333333 -37.66666666667 994.66666666667 -59 880 -59 C 783.33333333333 -59 679.33333333333 -49.33333333333 568 -30 C 456.66666666667 -11.33333333333 359.66666666667 -2 277 -2 C 227.66666666667 -2 189.33333333333 -6 162 -14 L 201 221 C 227.66666666667 226.33333333333 253.66666666667 229 279 229 C 361.66666666667 229 457.66666666667 207.33333333333 567 164 C 676.33333333333 120.66666666667 774 99 860 99 C 949.33333333333 99 1015.66666666667 141 1059 225 C 1102.33333333333 308.33333333333 1124 453.66666666667 1124 661 C 1124 814.33333333333 1112.66666666667 926 1090 996 C 1066.66666666667 1065.33333333333 1029.33333333333 1117 978 1151 C 926 1184.33333333333 857.66666666667 1201 773 1201 C 702.33333333333 1201 620 1180.66666666667 526 1140 C 432 1098.66666666667 353 1050.66666666667 289 996 L 160 1184 Z"/>
    <path fill="#000000" stroke="none" transform="matrix(1 0 0 -1 28174 2689)" d="M 1703 -94 L 1465 0 C 1509 82 1531 170.33333333333 1531 265 C 1531 367 1506.33333333333 478.33333333333 1457 599 C 1275.66666666667 487.66666666667 1148 394.33333333333 1074 319 C 999.33333333333 243 956.33333333333 171.66666666667 945 105 L 709 164 C 639 472.66666666667 549.66666666667 706 441 864 C 331.66666666667 1022 194.66666666667 1117.33333333333 30 1150 L 94 1386 C 198 1372 299 1318.33333333333 397 1225 C 455 1265 530.66666666667 1296 624 1318 C 717.33333333333 1339.33333333333 820.66666666667 1350 934 1350 C 975.33333333333 1350 1026.33333333333 1347.66666666667 1087 1343 C 1147.66666666667 1338.33333333333 1185.33333333333 1334.66666666667 1200 1332 L 1294 1221 C 1438.66666666667 1050.33333333333 1555.33333333333 871.33333333333 1644 684 C 1732 496.66666666667 1776 336 1776 202 C 1776 94.66666666667 1751.66666666667 -4 1703 -94 Z M 1262 964 C 1146 893.33333333333 1043 815.66666666667 953 731 C 863 645.66666666667 802.33333333333 567.66666666667 771 497 C 787 427.66666666667 798.33333333333 359 805 291 C 845 346.33333333333 904 403.66666666667 982 463 C 1059.33333333333 522.33333333333 1171.33333333333 592.33333333333 1318 673 L 1402 719 C 1364.66666666667 796.33333333333 1318 878 1262 964 Z M 691 758 C 781.66666666667 842 912 928 1082 1016 L 1188 1072 L 1099 1193 C 962.33333333333 1191 848.66666666667 1178.66666666667 758 1156 C 666.66666666667 1133.33333333333 593.33333333333 1099.33333333333 538 1054 C 596.66666666667 967.33333333333 647.66666666667 868.66666666667 691 758 Z"/>
    <path fill="#000000" stroke="none" transform="matrix(1 0 0 -1 30110 2689)" d="M 796 1702 C 780 1641.33333333333 752 1596 712 1566 C 672 1535.33333333333 625.66666666667 1520 573 1520 C 535.66666666667 1520 487 1537.66666666667 427 1573 C 366.33333333333 1607.66666666667 314 1625 270 1625 C 240.66666666667 1625 219 1616.66666666667 205 1600 C 190.33333333333 1582.66666666667 178.66666666667 1556 170 1520 L 30 1580 C 43.33333333333 1637.33333333333 68.33333333333 1681.66666666667 105 1713 C 141 1744.33333333333 188 1760 246 1760 C 285.33333333333 1760 336 1742.66666666667 398 1708 C 460 1673.33333333333 511.66666666667 1656 553 1656 C 581 1656 602.33333333333 1664.66666666667 617 1682 C 631.66666666667 1699.33333333333 643.66666666667 1726 653 1762 L 796 1702 Z"/>
    <path fill="#000000" stroke="none" transform="matrix(1 0 0 -1 31472 2689)" d="M 1166 104 C 1191.33333333333 120.66666666667 1204 149.33333333333 1204 190 C 1204 243.33333333333 1138 392 1006 636 C 878.66666666667 647.33333333333 763 653 659 653 L 346 653 C 305.33333333333 653 274.66666666667 656 254 662 C 232.66666666667 668 210 684 186 710 C 161.33333333333 736 149 760.66666666667 149 784 C 149 808 167.66666666667 846.66666666667 205 900 C 242.33333333333 953.33333333333 291.33333333333 1014.66666666667 352 1084 C 412.66666666667 1153.33333333333 466.33333333333 1209.66666666667 513 1253 C 559.66666666667 1296.33333333333 592.66666666667 1324 612 1336 C 631.33333333333 1347.33333333333 655.33333333333 1353 684 1353 C 711.33333333333 1353 785.33333333333 1268.33333333333 906 1099 C 1026.66666666667 929 1147.33333333333 743.33333333333 1268 542 C 1388.66666666667 340 1449 218.66666666667 1449 178 C 1449 107.33333333333 1412.66666666667 47 1340 -3 C 1266.66666666667 -53.66666666667 1163 -79 1029 -79 C 930.33333333333 -79 791.66666666667 -64.66666666667 613 -36 C 434.33333333333 -7.33333333333 301.66666666667 7 215 7 C 171 7 132.66666666667 3 100 -5 L 139 230 C 165.66666666667 235.33333333333 191.66666666667 238 217 238 C 297 238 426.33333333333 211.66666666667 605 159 C 783 105.66666666667 918 79 1010 79 C 1088.66666666667 79 1140.66666666667 87.33333333333 1166 104 Z M 910 806 C 846.66666666667 915.33333333333 789.66666666667 1006 739 1078 C 687.66666666667 1150 653.33333333333 1189 636 1195 C 613.33333333333 1183 567.33333333333 1127 498 1027 C 428.66666666667 926.33333333333 394 859.66666666667 394 827 C 394 817 401.33333333333 812 416 812 L 637 812 L 910 806 Z"/>
    <path fill="#000000" stroke="none" transform="matrix(1 0 0 -1 33061 2689)" d="M 224 -90 C 194.66666666667 -33.33333333333 180 55 180 175 C 180 300.33333333333 210 444.33333333333 270 607 C 329.33333333333 769 410.66666666667 930.66666666667 514 1092 C 472 1112.66666666667 426 1128 376 1138 L 440 1374 C 604.66666666667 1341.33333333333 745.66666666667 1245 863 1085 C 980.33333333333 925 1078 690.66666666667 1156 382 C 1210 463.33333333333 1284.66666666667 554.66666666667 1380 656 C 1474.66666666667 757.33333333333 1559.33333333333 830 1634 874 L 1758 660 C 1644 590.66666666667 1536 509 1434 415 C 1331.33333333333 321 1239.66666666667 222.33333333333 1159 119 L 1046 141 C 997.33333333333 352.33333333333 940.66666666667 530.33333333333 876 675 C 810.66666666667 819 732 930.33333333333 640 1009 C 574.66666666667 896.33333333333 522.66666666667 770 484 630 C 444.66666666667 489.33333333333 425 359 425 239 C 425 133.66666666667 437.33333333333 54 462 0 L 224 -90 Z"/>
    <path fill="#000000" stroke="none" transform="matrix(1 0 0 -1 34979 2689)" d="M 393 1352 C 371.66666666667 1270.66666666667 361 1200.33333333333 361 1141 C 361 1061.66666666667 375 1004 403 968 C 430.33333333333 932 471.33333333333 914 526 914 C 566.66666666667 914 604.33333333333 930 639 962 C 673.66666666667 993.33333333333 705.33333333333 1046.66666666667 734 1122 C 762 1196.66666666667 777.66666666667 1251.66666666667 781 1287 C 784.33333333333 1321.66666666667 792.66666666667 1364.33333333333 806 1415 L 1041 1352 C 1020.33333333333 1273.33333333333 1010 1203 1010 1141 C 1010 1061.66666666667 1024 1004 1052 968 C 1079.33333333333 932 1120.33333333333 914 1175 914 C 1253.66666666667 914 1315 957 1359 1043 C 1402.33333333333 1129 1425.66666666667 1253 1429 1415 L 1593 1364 C 1585.66666666667 958.66666666667 1438.33333333333 756 1151 756 C 1072.33333333333 756 1004.33333333333 770.66666666667 947 800 C 889 829.33333333333 845.66666666667 871.33333333333 817 926 C 739.66666666667 812.66666666667 638 756 512 756 C 391.33333333333 756 297.66666666667 790.33333333333 231 859 C 163.66666666667 927.66666666667 130 1023 130 1145 C 130 1236.33333333333 142.66666666667 1326.33333333333 168 1415 L 393 1352 Z"/>
    <path fill="#000000" stroke="none" transform="matrix(1 0 0 -1 36702 2689)" d="M 870 0 C 890.66666666667 40 908 87.66666666667 922 143 C 936 198.33333333333 943 252 943 304 C 943 404.66666666667 920 518.66666666667 874 646 L 687 653 L 327 653 C 286.33333333333 653 255.66666666667 656 235 662 C 213.66666666667 668 191 684 167 710 C 142.33333333333 736 130 760.66666666667 130 784 C 130 820 166.66666666667 885.33333333333 240 980 C 312.66666666667 1074 373.33333333333 1145.33333333333 422 1194 C 470.66666666667 1242.66666666667 512.66666666667 1281 548 1309 C 582.66666666667 1336.33333333333 622.33333333333 1350 667 1350 C 682.33333333333 1350 704.33333333333 1333.66666666667 733 1301 C 809 1327 884.33333333333 1340 959 1340 C 1037.66666666667 1340 1112 1328.33333333333 1182 1305 L 1122 1117 C 1043.33333333333 1144.33333333333 975.66666666667 1158 919 1158 C 888.33333333333 1158 859.33333333333 1155.66666666667 832 1151 C 895.33333333333 1039 963.66666666667 898 1037 728 C 1110.33333333333 557.33333333333 1154 446 1168 394 C 1181.33333333333 342 1188 284.33333333333 1188 221 C 1188 169 1181.33333333333 115.33333333333 1168 60 C 1154 4.66666666667 1134.33333333333 -46.66666666667 1109 -94 L 870 0 Z M 824 808 C 780.66666666667 926 740.66666666667 1019.33333333333 704 1088 C 666.66666666667 1156.66666666667 637.33333333333 1192.33333333333 616 1195 C 593.33333333333 1183 547.33333333333 1127 478 1027 C 408.66666666667 926.33333333333 374 859.66666666667 374 827 C 374 817 381.33333333333 812 396 812 L 617 812 L 824 808 Z"/>
    <path fill="#000000" stroke="none" transform="matrix(1 0 0 -1 38050 2689)" d="M 585 461 C 513 493.66666666667 449 518.66666666667 393 536 C 337 553.33333333333 283.33333333333 562 232 562 C 171.33333333333 562 120 553.66666666667 78 537 L 40 752 C 78.66666666667 762.66666666667 119.33333333333 768 162 768 C 235.33333333333 768 320.66666666667 750 418 714 C 494.66666666667 891.33333333333 588 1030.66666666667 698 1132 C 808 1232.66666666667 922 1283 1040 1283 C 1159.33333333333 1283 1244 1239 1294 1151 C 1424 1290.33333333333 1555.66666666667 1360 1689 1360 C 1790.33333333333 1360 1870 1328.66666666667 1928 1266 C 1986 1202.66666666667 2015 1117.66666666667 2015 1011 C 2015 946.33333333333 2001.66666666667 871 1975 785 C 1948.33333333333 698.33333333333 1898.33333333333 579.66666666667 1825 429 L 1754 284 C 1670.66666666667 120 1626.66666666667 0.33333333333 1622 -75 L 1370 0 C 1380 68.66666666667 1425.33333333333 165 1506 289 C 1586 412.33333333333 1663.66666666667 541 1739 675 C 1813.66666666667 809 1851 921.66666666667 1851 1013 C 1851 1071.66666666667 1835 1118.66666666667 1803 1154 C 1770.33333333333 1188.66666666667 1726 1206 1670 1206 C 1590.66666666667 1206 1509.66666666667 1152 1427 1044 C 1343.66666666667 936 1267.33333333333 789 1198 603 C 1128 417 1091.66666666667 288.66666666667 1089 218 L 827 189 C 830.33333333333 251.66666666667 866.33333333333 370 935 544 C 1003.66666666667 718 1082.33333333333 868.66666666667 1171 996 C 1157.66666666667 1084.66666666667 1108 1129 1022 1129 C 934.66666666667 1129 853.33333333333 1070.66666666667 778 954 C 702.66666666667 836.66666666667 638.33333333333 672.33333333333 585 461 Z"/>
    <path fill="#000000" stroke="none" transform="matrix(1 0 0 -1 40245 2689)" d="M 329 2050 C 417 2002.66666666667 485.66666666667 1941.33333333333 535 1866 C 584.33333333333 1790 609 1708.33333333333 609 1621 C 609 1546.33333333333 591 1460.33333333333 555 1363 C 670.33333333333 1321 803.66666666667 1249.66666666667 955 1149 C 1105.66666666667 1048.33333333333 1227.33333333333 949.66666666667 1320 853 C 1412.66666666667 756.33333333333 1459 679.33333333333 1459 622 C 1459 557.33333333333 1363 470 1171 360 C 979 249.33333333333 814.33333333333 172 677 128 C 687.66666666667 70.66666666667 693 17 693 -33 L 448 -78 C 434.66666666667 75.33333333333 412 205.66666666667 380 313 C 347.33333333333 419.66666666667 304 518.33333333333 250 609 C 196 699.66666666667 167.66666666667 751 165 763 C 161.66666666667 774.33333333333 160 783.33333333333 160 790 C 160 817.33333333333 195.33333333333 854 266 900 C 336 945.33333333333 398 993.33333333333 452 1044 C 506 1094.66666666667 549.66666666667 1145.66666666667 583 1197 C 511 1236.33333333333 447 1266.66666666667 391 1288 C 411.66666666667 1404 422 1492.66666666667 422 1554 C 422 1614.66666666667 402.66666666667 1673 364 1729 C 324.66666666667 1785 275.66666666667 1822.66666666667 217 1842 L 329 2050 Z M 331 779 C 398.33333333333 717 459 641.33333333333 513 552 C 566.33333333333 462 609.66666666667 365 643 261 C 919 373 1107.66666666667 495 1209 627 C 1167.66666666667 703 1108 781 1030 861 C 952 941 861.66666666667 1016.33333333333 759 1087 C 683.66666666667 995.66666666667 541 893 331 779 Z"/>
</svg>
