<svg width="43572" height="3750" viewBox="0 0 43572 3750" xmlns="http://www.w3.org/2000/svg">
    <defs/>
    <path fill="#000000" stroke="none" transform="matrix(1 0 0 -1 0 2650)" d="M 600 170 C 600 161.33333333333 602.33333333333 153 607 145 C 611 137 617 131 625 127 C 633 122.33333333333 641.33333333333 120 650 120 C 658.66666666667 120 667 122.33333333333 675 127 C 683 131 689.33333333333 137 694 145 C 698 153 700 161.33333333333 700 170 C 700 178.66666666667 697.66666666667 187 693 195 C 688.33333333333 203 682.33333333333 209.33333333333 675 214 C 667 218 658.66666666667 220 650 220 C 641.33333333333 220 633 218 625 214 C 617 209.33333333333 611 203 607 195 C 602.33333333333 187 600 178.66666666667 600 170 Z M 206 1769 C 164.66666666667 1738.33333333333 144 1692.33333333333 144 1631 C 144 1549.66666666667 173.33333333333 1504 232 1494 C 237.33333333333 1493.33333333333 242.33333333333 1493 247 1493 C 318.33333333333 1493 368 1528.66666666667 396 1600 C 402 1574 405 1550.33333333333 405 1529 C 405 1487 394 1452.66666666667 372 1426 C 338 1386 299.33333333333 1366 256 1366 C 246.66666666667 1366 237 1367 227 1369 C 189 1371.66666666667 155.66666666667 1382.33333333333 127 1401 C 98.33333333333 1419.66666666667 74 1441.33333333333 54 1466 C 33.33333333333 1490 19.33333333333 1515.33333333333 12 1542 C 4 1568.66666666667 0 1598.33333333333 0 1631 C 0 1733 32 1810 96 1862 C 162.66666666667 1916.66666666667 264.33333333333 1944 401 1944 C 537 1944 638 1915 704 1857 C 768 1801.66666666667 800 1719.33333333333 800 1610 C 800 1508.66666666667 738 1400.66666666667 614 1286 C 530 1210 488 1141.66666666667 488 1081 L 488 300 C 488 260 493 226 503 198 C 505.66666666667 214 511.33333333333 229.66666666667 520 245 C 533.33333333333 269 552 287.66666666667 576 301 C 600 313.66666666667 624.66666666667 320 650 320 C 675.33333333333 320 700 313.66666666667 724 301 C 747.33333333333 287.66666666667 766 269 780 245 C 793.33333333333 221 800 196 800 170 C 800 114.66666666667 785.66666666667 73 757 45 C 727 15 681.33333333333 0 620 0 C 503.33333333333 0 418.66666666667 30 366 90 C 322 139.33333333333 300 209.33333333333 300 300 L 300 1081 C 300 1173 369.66666666667 1272 509 1378 C 613.66666666667 1455.33333333333 666 1532.66666666667 666 1610 C 666 1678 644.66666666667 1729.33333333333 602 1764 C 557.33333333333 1799.33333333333 490.33333333333 1817 401 1817 C 314.33333333333 1817 249.33333333333 1801 206 1769 Z"/>
    <path fill="#000000" stroke="none" transform="matrix(1 0 0 -1 947 2650)" d="M 414 395 C 400.66666666667 383.66666666667 394 370 394 354 C 394 336.66666666667 400.66666666667 322 414 310 C 426.66666666667 298 442 292 460 292 C 476.66666666667 292 491.66666666667 298 505 310 C 517.66666666667 322 524 336.66666666667 524 354 C 524 370 517.66666666667 383.66666666667 505 395 C 491.66666666667 406.33333333333 476.66666666667 412 460 412 C 442 412 426.66666666667 406.33333333333 414 395 Z M 266 73 C 186.66666666667 121 147 187.66666666667 147 273 C 147 349 173 406.33333333333 225 445 C 277 483.66666666667 355.33333333333 503 460 503 C 507.33333333333 503 546 489.33333333333 576 462 C 606 434 621 398 621 354 C 621 304 607.66666666667 266.33333333333 581 241 C 553.66666666667 215.66666666667 513.33333333333 203 460 203 C 406 203 365.33333333333 215.66666666667 338 241 C 334 245 330.33333333333 249.33333333333 327 254 C 341 158 447.66666666667 110 647 110 C 751 110 837.33333333333 129.33333333333 906 168 C 974.66666666667 206.66666666667 1009 273.66666666667 1009 369 C 1009 439 975.33333333333 500.33333333333 908 553 C 840 605 752.33333333333 640 645 658 L 393 704 C 229 730.66666666667 147 822.66666666667 147 980 C 147 1193.33333333333 304.66666666667 1300 620 1300 C 855.33333333333 1300 1047.66666666667 1199.33333333333 1197 998 C 1017 1103.33333333333 826.66666666667 1156 626 1156 C 432 1156 335 1097.33333333333 335 980 C 335 879.33333333333 387.66666666667 818.66666666667 493 798 L 667 768 C 826.33333333333 742 954.66666666667 697.66666666667 1052 635 C 1148.66666666667 572.33333333333 1197 483.66666666667 1197 369 C 1197 225.66666666667 1155.33333333333 128.33333333333 1072 77 C 988.66666666667 25.66666666667 847 0 647 0 C 471.66666666667 0 344.66666666667 24.33333333333 266 73 Z"/>
    <path fill="#000000" stroke="none" transform="matrix(1 0 0 -1 2291 2650)" d="M 435 1208 C 388.33333333333 1208 365 1185 365 1139 C 365 1093 388.33333333333 1070 435 1070 C 481.66666666667 1070 505 1093 505 1139 C 505 1185 481.66666666667 1208 435 1208 Z M 540 870 C 614 870 698.66666666667 914 794 1002 C 888.66666666667 1090 965 1189.33333333333 1023 1300 L 1187 1218 L 511 -257 L 349 -189 L 854 881 C 752 771.66666666667 647.33333333333 717 540 717 C 278 717 147 824.33333333333 147 1039 C 147 1209 230.33333333333 1296 397 1300 C 531 1298.66666666667 598 1246.66666666667 598 1144 C 598 1136 597.66666666667 1127.33333333333 597 1118 C 597 1024 533 977 405 977 C 374.33333333333 977 347 991 323 1019 C 331 919.66666666667 403.33333333333 870 540 870 Z"/>
    <path fill="#000000" stroke="none" transform="matrix(1 0 0 -1 3625 2650)" d="M 902 1058 C 886.66666666667 1072 868.66666666667 1085.33333333333 848 1098 C 760 1163.33333333333 667.33333333333 1196 570 1196 C 498.66666666667 1196 441.66666666667 1183.33333333333 399 1158 C 356.33333333333 1132 335 1091.33333333333 335 1036 C 335 980.66666666667 356.33333333333 945.33333333333 399 930 C 441.66666666667 914 498.66666666667 906 570 906 C 667.33333333333 906 766.66666666667 947.33333333333 868 1030 C 880 1038 891.33333333333 1047.33333333333 902 1058 Z M 415 84 C 461.66666666667 84 485 107.33333333333 485 154 C 485 200.66666666667 461.66666666667 224 415 224 C 368.33333333333 224 345 200.66666666667 345 154 C 345 107.33333333333 368.33333333333 84 415 84 Z M 959 905 C 861.66666666667 836.33333333333 732 802 570 802 C 434 802 329.66666666667 819.33333333333 257 854 C 183.66666666667 888.66666666667 147 949.33333333333 147 1036 C 147 1122.66666666667 183.66666666667 1188.33333333333 257 1233 C 329.66666666667 1277.66666666667 434 1300 570 1300 C 742.66666666667 1300 879.66666666667 1270 981 1210 C 991 1250.66666666667 997.33333333333 1297.33333333333 1000 1350 L 1147 1320 C 1137.66666666667 1236.66666666667 1122 1164.33333333333 1100 1103 C 1131.33333333333 1058.33333333333 1147 1008 1147 952 L 1147 220 C 1147 144 1125 87.66666666667 1081 51 C 1040.33333333333 17 981 0 903 0 C 863.66666666667 0 823.66666666667 13.33333333333 783 40 C 741.66666666667 66 716 111.33333333333 706 176 C 696 240.66666666667 672 309.33333333333 634 382 C 596 454 536.33333333333 490 455 490 C 375.66666666667 490 326.66666666667 420.33333333333 308 281 C 336.66666666667 309 369.66666666667 323 407 323 C 470.33333333333 323 517.33333333333 310.33333333333 548 285 C 576.66666666667 261.66666666667 591 227.33333333333 591 182 C 592.33333333333 170.66666666667 593 160 593 150 C 593 105.33333333333 579.66666666667 70.66666666667 553 46 C 520.33333333333 16 468.33333333333 0.66666666667 397 0 C 314.33333333333 2 252.33333333333 24.33333333333 211 67 C 168.33333333333 110.33333333333 147 175 147 261 C 147 387.66666666667 173 474.66666666667 225 522 C 277.66666666667 570 354.33333333333 594 455 594 C 557.66666666667 594 640.66666666667 563 704 501 C 767.33333333333 438.33333333333 807 363.33333333333 823 276 C 839 188 865.66666666667 144 903 144 C 940.33333333333 144 959 169.33333333333 959 220 L 959 905 Z"/>
    <path fill="#000000" stroke="none" transform="matrix(1 0 0 -1 4940 2650)" d="M 531 131 C 545.66666666667 143.66666666667 553 163.66666666667 553 191 C 553 215 547.33333333333 233.33333333333 536 246 C 523.33333333333 260 504 267 478 267 C 427.33333333333 267 402 241.66666666667 402 191 C 402 161 411 140 429 128 C 441 120 457.33333333333 116 478 116 C 500.66666666667 116 518.33333333333 121 531 131 Z M 356 352 C 386.66666666667 372 427.33333333333 382 478 382 C 541.33333333333 382 589 366 621 334 C 652.33333333333 302 668 254 668 190 C 668 126.66666666667 652 79 620 47 C 588.66666666667 15.66666666667 541.33333333333 0 478 0 C 391.33333333333 0 323 17.33333333333 273 52 C 203 99.33333333333 168 180.33333333333 168 295 L 168 920 C 168 1063.33333333333 199.66666666667 1166 263 1228 C 311 1276 378 1300 464 1300 C 552.66666666667 1300 629 1242.33333333333 693 1127 C 757 1242.33333333333 833.33333333333 1300 922 1300 C 1008.66666666667 1300 1076.66666666667 1275.33333333333 1126 1226 C 1187.33333333333 1163.33333333333 1218 1061.33333333333 1218 920 L 1218 200 C 1218 136.66666666667 1201.33333333333 70 1168 0 L 980 0 C 1013.33333333333 50 1030 116.66666666667 1030 200 L 1030 920 C 1030 1017.33333333333 1018.33333333333 1086 995 1126 C 971.66666666667 1166 947.33333333333 1186 922 1186 C 875.33333333333 1186 799 1115 693 973 C 587 1115 510.66666666667 1186 464 1186 C 438.66666666667 1186 414.33333333333 1166 391 1126 C 367.66666666667 1086 356 1017.33333333333 356 920 L 356 352 Z"/>
    <path fill="#000000" stroke="none" transform="matrix(1 0 0 -1 6326 2650)" d="M 531 131 C 545.66666666667 143.66666666667 553 163.66666666667 553 191 C 553 215 547.33333333333 233.33333333333 536 246 C 523.33333333333 260 504 267 478 267 C 427.33333333333 267 402 241.66666666667 402 191 C 402 161 411 140 429 128 C 441 120 457.33333333333 116 478 116 C 500.66666666667 116 518.33333333333 121 531 131 Z M 1030 920 C 1030 1004.66666666667 1003.33333333333 1071 950 1119 C 896 1166.33333333333 809 1190 689 1190 C 569 1190 483.66666666667 1166.33333333333 433 1119 C 381.66666666667 1071 356 1004.66666666667 356 920 L 356 352 C 386.66666666667 372 427.33333333333 382 478 382 C 541.33333333333 382 589 366 621 334 C 652.33333333333 302 668 254 668 190 C 668 126.66666666667 652 79 620 47 C 588.66666666667 15.66666666667 541.33333333333 0 478 0 C 391.33333333333 0 323 17.33333333333 273 52 C 203 99.33333333333 168 180.33333333333 168 295 L 168 920 C 168 1048.66666666667 209 1144.33333333333 291 1207 C 372.33333333333 1269 505 1300 689 1300 C 872.33333333333 1300 1006.33333333333 1269 1091 1207 C 1175.66666666667 1144.33333333333 1218 1048.66666666667 1218 920 L 1218 200 C 1218 136.66666666667 1201.33333333333 70 1168 0 L 980 0 C 1013.33333333333 50 1030 116.66666666667 1030 200 L 1030 920 Z"/>
    <path fill="#000000" stroke="none" transform="matrix(1 0 0 -1 8352 2650)" d="M 350 860 C 350 848 353 836.66666666667 359 826 C 364.33333333333 815.33333333333 372.33333333333 807.33333333333 383 802 C 393.66666666667 796 405 793 417 793 C 429 793 440.33333333333 796 451 802 C 461.66666666667 807.33333333333 470 815.33333333333 476 826 C 482 836.66666666667 485 848 485 860 C 485 872 482 883.33333333333 476 894 C 469.33333333333 904.66666666667 460.66666666667 913 450 919 C 439.33333333333 925 428.33333333333 928 417 928 C 405.66666666667 928 394.66666666667 925 384 919 C 373.33333333333 913 365 904.66666666667 359 894 C 353 883.33333333333 350 872 350 860 Z M 1019 921 C 1019 1016.33333333333 993 1085 941 1127 C 889 1169 801 1190 677 1190 C 419.66666666667 1190 291 1113.66666666667 291 961 L 291 960 C 303.66666666667 976 319.33333333333 989.33333333333 338 1000 C 363.33333333333 1013.33333333333 389.66666666667 1020 417 1020 C 443.66666666667 1020 470 1013.33333333333 496 1000 C 521.33333333333 986 541.33333333333 966.33333333333 556 941 C 570 915 577 888 577 860 C 577 832 570 805.33333333333 556 780 C 542 754.66666666667 522.33333333333 735 497 721 C 471.66666666667 707 445 700 417 700 C 237 700 147 787 147 961 C 147 1187 323.66666666667 1300 677 1300 C 863.66666666667 1300 998.66666666667 1272.66666666667 1082 1218 C 1165.33333333333 1163.33333333333 1207 1064.33333333333 1207 921 C 1207 807 1158 720.33333333333 1060 661 C 961.33333333333 601.66666666667 833.66666666667 552.66666666667 677 514 L 506 470 C 392 440 335 360 335 230 C 335 150 359.66666666667 110 409 110 C 458.33333333333 110 542.33333333333 142.66666666667 661 208 C 779 272.66666666667 873.66666666667 305 945 305 C 1028.33333333333 305 1091 284.33333333333 1133 243 C 1175.66666666667 200.33333333333 1197 99.33333333333 1197 -60 C 1197 -200 1231.33333333333 -310 1300 -390 C 1106 -330 1009 -220 1009 -60 C 1009 87.33333333333 987.66666666667 161 945 161 C 875.66666666667 161 789.66666666667 134.33333333333 687 81 C 584.33333333333 27 491.66666666667 0 409 0 C 331.66666666667 0 268.66666666667 19.33333333333 220 58 C 171.33333333333 96 147 153.33333333333 147 230 C 147 406.66666666667 230 516 396 558 L 644 622 C 749.33333333333 648.66666666667 838.33333333333 685.33333333333 911 732 C 983 778.66666666667 1019 841.66666666667 1019 921 Z"/>
    <path fill="#000000" stroke="none" transform="matrix(1 0 0 -1 9706 2650)" d="M 457 1184 C 436.33333333333 1184 420 1180 408 1172 C 390 1160 381 1139 381 1109 C 381 1058.33333333333 406.33333333333 1033 457 1033 C 483 1033 502.33333333333 1040 515 1054 C 526.33333333333 1066.66666666667 532 1085 532 1109 C 532 1136.33333333333 524.66666666667 1156.33333333333 510 1169 C 497.33333333333 1179 479.66666666667 1184 457 1184 Z M 1197 380 C 1197 251.33333333333 1153.66666666667 155.33333333333 1067 92 C 984.33333333333 30.66666666667 851.33333333333 0 668 0 C 484 0 350.33333333333 27.66666666667 267 83 C 187 136.33333333333 147 225.33333333333 147 350 C 147 499.33333333333 201.33333333333 596 310 640 C 201.33333333333 688.66666666667 147 765.33333333333 147 870 L 147 1005 C 147 1119.66666666667 182 1200.66666666667 252 1248 C 302 1282.66666666667 370.33333333333 1300 457 1300 C 520.33333333333 1300 567.66666666667 1284.33333333333 599 1253 C 631 1221 647 1173.33333333333 647 1110 C 647 1046 631.33333333333 998 600 966 C 568 934 520.33333333333 918 457 918 C 406.33333333333 918 365.66666666667 928 335 948 L 335 870 C 335 759.33333333333 405.66666666667 704 547 704 L 627 704 L 627 570 L 547 570 C 405.66666666667 570 335 496.66666666667 335 350 C 335 269.33333333333 360.66666666667 209.33333333333 412 170 C 462.66666666667 130 548 110 668 110 C 788 110 875 134 929 182 C 982.33333333333 229.33333333333 1009 295.33333333333 1009 380 L 1009 1270 C 1009 1326.66666666667 1027 1391.66666666667 1063 1465 C 1098.33333333333 1538.33333333333 1170.66666666667 1595 1280 1635 C 1224.66666666667 1535 1197 1413.33333333333 1197 1270 L 1197 380 Z"/>
    <path fill="#000000" stroke="none" transform="matrix(1 0 0 -1 11071 2650)" d="M 243 158 C 284.33333333333 158 305 178.66666666667 305 220 C 305 260.66666666667 284.33333333333 281 243 281 C 202.33333333333 281 182 260.66666666667 182 220 C 182 178.66666666667 202.33333333333 158 243 158 Z M 653 380 C 653 264.66666666667 677.33333333333 191 726 159 C 774.66666666667 126.33333333333 845.66666666667 110 939 110 C 1032.33333333333 110 1101.66666666667 134.66666666667 1147 184 C 1192.33333333333 232.66666666667 1215 298 1215 380 L 1215 1100 C 1215 1183.33333333333 1198.33333333333 1250 1165 1300 L 1353 1300 C 1386.33333333333 1230 1403 1163.33333333333 1403 1100 L 1403 380 C 1403 253.33333333333 1364.66666666667 158.33333333333 1288 95 C 1211.33333333333 31.66666666667 1096.66666666667 0 944 0 C 791.33333333333 0 673.33333333333 31.66666666667 590 95 L 589 96 C 537 32 454 0 340 0 C 168 0 82 73.33333333333 82 220 C 82 328 135.66666666667 382 243 382 C 351 382 405 328 405 220 C 405 176.66666666667 390.66666666667 142 362 116 C 430.66666666667 130.66666666667 465 199.33333333333 465 322 L 465 1100 C 465 1183.33333333333 448.33333333333 1250 415 1300 L 603 1300 C 636.33333333333 1230 653 1163.33333333333 653 1100 L 653 380 Z"/>
    <path fill="#000000" stroke="none" transform="matrix(1 0 0 -1 12642 2650)" d="M 317 1055 C 359.66666666667 1055 381 1076 381 1118 C 381 1160.66666666667 359.66666666667 1182 317 1182 C 274.33333333333 1182 253 1160.66666666667 253 1118 C 253 1076 274.33333333333 1055 317 1055 Z M 820 1045 L 820 1068 C 820 1146.66666666667 809.33333333333 1186 788 1186 C 761.33333333333 1186 748 1162.33333333333 748 1115 C 748 1067.66666666667 762.33333333333 1044 791 1044 C 801 1044 810.66666666667 1044.33333333333 820 1045 Z M 1331 256 C 1302.33333333333 256 1288 232.33333333333 1288 185 C 1288 137.66666666667 1301.33333333333 114 1328 114 C 1349.33333333333 114 1360 153.33333333333 1360 232 L 1360 255 C 1350.66666666667 255.66666666667 1341 256 1331 256 Z M 1008 374 C 1008 234 975 135.66666666667 909 79 C 848.33333333333 26.33333333333 734.66666666667 0 568 0 C 414.66666666667 0 307.66666666667 26 247 78 C 180.33333333333 135.33333333333 147 234 147 374 C 147 586 185.66666666667 743.66666666667 263 847 C 289.66666666667 881.66666666667 312 914.66666666667 330 946 C 269.33333333333 946.66666666667 223.66666666667 961.33333333333 193 990 C 162.33333333333 1018.66666666667 147 1061.33333333333 147 1118 C 147 1178.66666666667 162.66666666667 1224.33333333333 194 1255 C 224.66666666667 1285 270.66666666667 1300 332 1300 C 388 1300 433.33333333333 1285 468 1255 C 502 1224.33333333333 519 1178.66666666667 519 1118 C 519 1034 488.33333333333 934.66666666667 427 820 C 365.66666666667 705.33333333333 335 556.66666666667 335 374 C 335 262 351 190 383 158 C 414.33333333333 126 476.33333333333 110 569 110 C 674.33333333333 110 742.66666666667 126.33333333333 774 159 C 804.66666666667 191.66666666667 820 263.33333333333 820 374 L 820 930 L 793 930 C 757 930 720 947.66666666667 682 983 C 648.66666666667 1013.66666666667 632 1057.66666666667 632 1115 C 632 1177.66666666667 648.33333333333 1224.33333333333 681 1255 C 713 1285 750.33333333333 1300 793 1300 C 901 1300 969 1253 997 1159 C 1051 1253 1127.33333333333 1300 1226 1300 C 1337.33333333333 1300 1419 1272.33333333333 1471 1217 C 1522.33333333333 1161.66666666667 1548 1092.66666666667 1548 1010 L 1548 315 C 1614.66666666667 178.33333333333 1687.33333333333 110 1766 110 C 1814 110 1848.33333333333 125.33333333333 1869 156 C 1889.66666666667 186 1900 230.66666666667 1900 290 L 1900 1100 C 1900 1183.33333333333 1883.33333333333 1250 1850 1300 L 2038 1300 C 2071.33333333333 1230 2088 1163.33333333333 2088 1100 L 2088 290 C 2088 207.33333333333 2062.33333333333 138.33333333333 2011 83 C 1959 27.66666666667 1877.33333333333 0 1766 0 C 1667.33333333333 0 1591 47 1537 141 C 1509 47 1441 0 1333 0 C 1290.33333333333 0 1253 15 1221 45 C 1188.33333333333 75.66666666667 1172 122.33333333333 1172 185 C 1172 242.33333333333 1188.66666666667 286.33333333333 1222 317 C 1260 352.33333333333 1297 370 1333 370 L 1360 370 L 1360 1010 C 1360 1069.33333333333 1349.66666666667 1114.33333333333 1329 1145 C 1308.33333333333 1175 1274 1190 1226 1190 C 1147.33333333333 1190 1074.66666666667 1121.66666666667 1008 985 L 1008 374 Z"/>
    <path fill="#000000" stroke="none" transform="matrix(1 0 0 -1 14898 2650)" d="M 475 195 C 470.33333333333 187 468 178.66666666667 468 170 C 468 161.33333333333 470.33333333333 153 475 145 C 479 137 485 131 493 127 C 501 122.33333333333 509.33333333333 120 518 120 C 526.66666666667 120 535 122.33333333333 543 127 C 551 131 557.33333333333 137 562 145 C 566 153 568 161.33333333333 568 170 C 568 178.66666666667 565.66666666667 187 561 195 C 556.33333333333 203 550.33333333333 209.33333333333 543 214 C 535 218 526.66666666667 220 518 220 C 509.33333333333 220 501 218 493 214 C 485 209.33333333333 479 203 475 195 Z M 356 300 C 356 260 361 226 371 198 C 373.66666666667 214 379.33333333333 229.66666666667 388 245 C 401.33333333333 269 420 287.66666666667 444 301 C 468 313.66666666667 492.66666666667 320 518 320 C 543.33333333333 320 568 313.66666666667 592 301 C 615.33333333333 287.66666666667 634 269 648 245 C 661.33333333333 221 668 196 668 170 C 668 114.66666666667 653.66666666667 73 625 45 C 595 15 549.33333333333 0 488 0 C 385.33333333333 0 307.33333333333 23.33333333333 254 70 C 196.66666666667 119.33333333333 168 196 168 300 L 168 1000 C 168 1104.66666666667 196.66666666667 1182 254 1232 C 306.66666666667 1277.33333333333 376 1300 462 1300 C 594 1300 672.66666666667 1242 698 1126 C 632.66666666667 1166 567.33333333333 1186 502 1186 C 436.66666666667 1186 396 1169.33333333333 380 1136 C 364 1102 356 1056.66666666667 356 1000 L 356 300 Z"/>
    <path fill="#000000" stroke="none" transform="matrix(1 0 0 -1 15648 2650)" d="M 317 1055 C 359.66666666667 1055 381 1076 381 1118 C 381 1160.66666666667 359.66666666667 1182 317 1182 C 274.33333333333 1182 253 1160.66666666667 253 1118 C 253 1076 274.33333333333 1055 317 1055 Z M 820 1045 L 820 1068 C 820 1146.66666666667 809.33333333333 1186 788 1186 C 761.33333333333 1186 748 1162.33333333333 748 1115 C 748 1067.66666666667 762.33333333333 1044 791 1044 C 801 1044 810.66666666667 1044.33333333333 820 1045 Z M 1360 1010 C 1360 1069.33333333333 1349.66666666667 1114.33333333333 1329 1145 C 1308.33333333333 1175 1274 1190 1226 1190 C 1147.33333333333 1190 1074.66666666667 1121.66666666667 1008 985 L 1008 374 C 1008 234 975 135.66666666667 909 79 C 848.33333333333 26.33333333333 734.66666666667 0 568 0 C 414.66666666667 0 307.66666666667 26 247 78 C 180.33333333333 135.33333333333 147 234 147 374 C 147 586 185.66666666667 743.66666666667 263 847 C 289.66666666667 881.66666666667 312 914.66666666667 330 946 C 269.33333333333 946.66666666667 223.66666666667 961.33333333333 193 990 C 162.33333333333 1018.66666666667 147 1061.33333333333 147 1118 C 147 1178.66666666667 162.66666666667 1224.33333333333 194 1255 C 224.66666666667 1285 270.66666666667 1300 332 1300 C 388 1300 433.33333333333 1285 468 1255 C 502 1224.33333333333 519 1178.66666666667 519 1118 C 519 1034 488.33333333333 934.66666666667 427 820 C 365.66666666667 705.33333333333 335 556.66666666667 335 374 C 335 262 351 190 383 158 C 414.33333333333 126 476.33333333333 110 569 110 C 674.33333333333 110 742.66666666667 126.33333333333 774 159 C 804.66666666667 191.66666666667 820 263.33333333333 820 374 L 820 930 L 793 930 C 757 930 720 947.66666666667 682 983 C 648.66666666667 1013.66666666667 632 1057.66666666667 632 1115 C 632 1177.66666666667 648.33333333333 1224.33333333333 681 1255 C 713 1285 750.33333333333 1300 793 1300 C 901 1300 969 1253 997 1159 C 1051 1253 1127.33333333333 1300 1226 1300 C 1337.33333333333 1300 1419 1272.33333333333 1471 1217 C 1522.33333333333 1161.66666666667 1548 1092.66666666667 1548 1010 L 1548 200 C 1548 136.66666666667 1531.33333333333 70 1498 0 L 1310 0 C 1343.33333333333 50 1360 116.66666666667 1360 200 L 1360 1010 Z"/>
    <path fill="#000000" stroke="none" transform="matrix(1 0 0 -1 18004 2650)" d="M 509 170 C 509 161.33333333333 511.33333333333 153 516 145 C 520 137 526 131 534 127 C 542 122.33333333333 550.33333333333 120 559 120 C 567.66666666667 120 576 122.33333333333 584 127 C 592 131 598.33333333333 137 603 145 C 607 153 609 161.33333333333 609 170 C 609 178.66666666667 606.66666666667 187 602 195 C 597.33333333333 203 591.33333333333 209.33333333333 584 214 C 576 218 567.66666666667 220 559 220 C 550.33333333333 220 542 218 534 214 C 526 209.33333333333 520 203 516 195 C 511.33333333333 187 509 178.66666666667 509 170 Z M 604 1307 C 519.33333333333 1251 464 1201.66666666667 438 1159 C 410.66666666667 1115 397 1065.33333333333 397 1010 L 397 300 C 397 260 402 226 412 198 C 414.66666666667 214 420.33333333333 229.66666666667 429 245 C 442.33333333333 269 461 287.66666666667 485 301 C 509 313.66666666667 533.66666666667 320 559 320 C 584.33333333333 320 609 313.66666666667 633 301 C 656.33333333333 287.66666666667 675 269 689 245 C 702.33333333333 221 709 196 709 170 C 709 114.66666666667 694.66666666667 73 666 45 C 636 15 590.33333333333 0 529 0 C 412.33333333333 0 327.66666666667 30 275 90 C 231 139.33333333333 209 209.33333333333 209 300 L 209 1010 C 209 1130 263.66666666667 1231.66666666667 373 1315 L 74 1579 C 29.33333333333 1618.33333333333 4.66666666667 1670.33333333333 0 1735 L 0 1742 C 0 1790 13.66666666667 1831.33333333333 41 1866 C 81.66666666667 1907.33333333333 126 1929.66666666667 174 1933 C 181.33333333333 1933.66666666667 188.66666666667 1934 196 1934 C 255.33333333333 1934 304.33333333333 1917 343 1883 L 450 1791 C 556.66666666667 1695 636.66666666667 1647 690 1647 C 696.66666666667 1647 726.33333333333 1647.66666666667 779 1649 C 726.33333333333 1576.33333333333 669.33333333333 1540 608 1540 C 546 1540 462 1587.66666666667 356 1683 L 239 1787 C 217.66666666667 1807 197.33333333333 1817 178 1817 C 159.33333333333 1817 141.66666666667 1806.66666666667 125 1786 C 119 1778 116 1770 116 1762 C 116 1744 129 1724 155 1702 L 603 1312 L 608 1310 C 607.33333333333 1309.33333333333 606.66666666667 1309 606 1309 L 608 1307 L 604 1307 Z"/>
    <path fill="#000000" stroke="none" transform="matrix(1 0 0 -1 18860 2650)" d="M 273 1033 C 323.66666666667 1033 349 1058.33333333333 349 1109 C 349 1159 323.66666666667 1184 273 1184 C 223 1184 198 1159 198 1109 C 198 1058.33333333333 223 1033 273 1033 Z M 340 925 C 320 920.33333333333 297.66666666667 918 273 918 C 205.66666666667 918 156 936 124 972 C 96 1003.33333333333 82 1049 82 1109 C 82 1168.33333333333 96 1214 124 1246 C 155.33333333333 1282 205 1300 273 1300 C 353.66666666667 1300 415 1280.66666666667 457 1242 C 504.33333333333 1198.66666666667 528 1131.33333333333 528 1040 L 528 390 C 528 334.66666666667 525 288.66666666667 519 252 C 557.66666666667 248.66666666667 596 228 634 190 C 672 136.66666666667 743.66666666667 110 849 110 C 928.33333333333 110 988.33333333333 134.33333333333 1029 183 C 1069.66666666667 231.66666666667 1090 290.66666666667 1090 360 L 1090 1100 C 1090 1183.33333333333 1073.33333333333 1250 1040 1300 L 1228 1300 C 1261.33333333333 1230 1278 1163.33333333333 1278 1100 L 1278 360 C 1278 242 1243.66666666667 152.66666666667 1175 92 C 1105.66666666667 30.66666666667 1003.66666666667 0 869 0 C 721.66666666667 0 615.33333333333 35.33333333333 550 106 C 528 129.33333333333 504.33333333333 142 479 144 C 420.33333333333 48 309.66666666667 0 147 0 L 147 144 C 211.66666666667 144 260 161.33333333333 292 196 C 324 230 340 294.66666666667 340 390 L 340 925 Z"/>
    <path fill="#000000" stroke="none" transform="matrix(1 0 0 -1 20306 2650)" d="M 509 170 C 509 161.33333333333 511.33333333333 153 516 145 C 520 137 526 131 534 127 C 542 122.33333333333 550.33333333333 120 559 120 C 567.66666666667 120 576 122.33333333333 584 127 C 592 131 598.33333333333 137 603 145 C 607 153 609 161.33333333333 609 170 C 609 178.66666666667 606.66666666667 187 602 195 C 597.33333333333 203 591.33333333333 209.33333333333 584 214 C 576 218 567.66666666667 220 559 220 C 550.33333333333 220 542 218 534 214 C 526 209.33333333333 520 203 516 195 C 511.33333333333 187 509 178.66666666667 509 170 Z M 397 300 C 397 260 402 226 412 198 C 414.66666666667 214 420.33333333333 229.66666666667 429 245 C 442.33333333333 269 461 287.66666666667 485 301 C 509 313.66666666667 533.66666666667 320 559 320 C 584.33333333333 320 609 313.66666666667 633 301 C 656.33333333333 287.66666666667 675 269 689 245 C 702.33333333333 221 709 196 709 170 C 709 114.66666666667 694.66666666667 73 666 45 C 636 15 590.33333333333 0 529 0 C 412.33333333333 0 327.66666666667 30 275 90 C 231 139.33333333333 209 209.33333333333 209 300 L 209 1010 C 209 1080 262.33333333333 1147.33333333333 369 1212 C 475.66666666667 1276.66666666667 534 1313.66666666667 544 1323 C 553.33333333333 1331.66666666667 558 1341.33333333333 558 1352 C 558 1362.66666666667 554.33333333333 1370 547 1374 C 539.66666666667 1377.33333333333 532 1379 524 1379 C 508.66666666667 1379 481 1370 441 1352 C 401 1334 370.66666666667 1325 350 1325 C 310.66666666667 1325 279.33333333333 1338.66666666667 256 1366 C 232.66666666667 1393.33333333333 213 1439.66666666667 197 1505 C 169.66666666667 1612.33333333333 145.33333333333 1695.66666666667 124 1755 C 102.66666666667 1814.33333333333 48 1866.66666666667 -40 1912 C 90 1908.66666666667 169.66666666667 1888.33333333333 199 1851 C 227.66666666667 1813.66666666667 248 1778.66666666667 260 1746 C 271.33333333333 1713.33333333333 278.66666666667 1692.66666666667 282 1684 C 285.33333333333 1674.66666666667 290.66666666667 1656 298 1628 C 305.33333333333 1604 311.66666666667 1580.66666666667 317 1558 C 321.66666666667 1534.66666666667 326 1517 330 1505 C 334 1492.33333333333 339 1481.33333333333 345 1472 C 351 1462.66666666667 359.66666666667 1458 371 1458 C 385.66666666667 1458 409.33333333333 1467 442 1485 C 474.66666666667 1503 508 1512 542 1512 C 576 1512 612.33333333333 1500 651 1476 C 689.66666666667 1452 709 1417.33333333333 709 1372 C 709 1307.33333333333 655.66666666667 1244.66666666667 549 1184 C 447.66666666667 1123.33333333333 397 1065.33333333333 397 1010 L 397 300 Z"/>
    <path fill="#000000" stroke="none" transform="matrix(1 0 0 -1 21162 2650)" d="M 494 1130 C 494 1172.66666666667 472.66666666667 1194 430 1194 C 386.66666666667 1194 365 1172.66666666667 365 1130 C 365 1088 386.66666666667 1067 430 1067 C 472.66666666667 1067 494 1088 494 1130 Z M 1208 380 C 1208 236.66666666667 1177.33333333333 133.66666666667 1116 71 C 1069.33333333333 23.66666666667 1001.33333333333 0 912 0 C 810 0 735.33333333333 39 688 117 C 640.66666666667 39 566 0 464 0 C 375.33333333333 0 307.66666666667 23.33333333333 261 70 C 199 132 168 235.33333333333 168 380 L 168 1037 C 168 1139 197.66666666667 1211.33333333333 257 1254 C 299 1284.66666666667 353.33333333333 1300 420 1300 C 473.33333333333 1300 515 1284.33333333333 545 1253 C 575 1221 590 1180.33333333333 590 1131 C 590 1073.66666666667 576.66666666667 1030.66666666667 550 1002 C 523.33333333333 974 483.33333333333 960 430 960 C 401.33333333333 960 376.66666666667 963.66666666667 356 971 L 356 380 C 356 278 365 207.66666666667 383 169 C 401 129.66666666667 428 110 464 110 C 567.33333333333 110 638 206.66666666667 676 400 L 700 400 C 738 206.66666666667 808.66666666667 110 912 110 C 949.33333333333 110 976.66666666667 130.33333333333 994 171 C 1011.33333333333 211.66666666667 1020 281.33333333333 1020 380 L 1020 1270 C 1020 1326.66666666667 1038 1391.66666666667 1074 1465 C 1109.33333333333 1538.33333333333 1181.66666666667 1595 1291 1635 C 1235.66666666667 1535 1208 1413.33333333333 1208 1270 L 1208 380 Z"/>
    <path fill="#000000" stroke="none" transform="matrix(1 0 0 -1 22538 2650)" d="M 263 380 C 263 366.66666666667 266.33333333333 354 273 342 C 279 330 288 321 300 315 C 312 308.33333333333 324.66666666667 305 338 305 C 351.33333333333 305 364 308.33333333333 376 315 C 388 321 397.33333333333 330 404 342 C 410.66666666667 354 414 366.66666666667 414 380 C 414 393.33333333333 410.66666666667 406 404 418 C 396.66666666667 430 387 439.33333333333 375 446 C 363 452.66666666667 350.66666666667 456 338 456 C 325.33333333333 456 313 452.66666666667 301 446 C 289 439.33333333333 279.66666666667 430 273 418 C 266.33333333333 406 263 393.33333333333 263 380 Z M 1147 380 C 1147 253.33333333333 1105.33333333333 158.33333333333 1022 95 C 938.66666666667 31.66666666667 813.66666666667 0 647 0 C 480.33333333333 0 355.33333333333 31.66666666667 272 95 C 188.66666666667 158.33333333333 147 253.33333333333 147 380 C 147 413.33333333333 155.66666666667 445.33333333333 173 476 C 189.66666666667 506.66666666667 213.33333333333 530.33333333333 244 547 C 274.66666666667 563 306 571 338 571 C 370 571 401.33333333333 563 432 547 C 462 530.33333333333 485.66666666667 506.66666666667 503 476 C 520.33333333333 445.33333333333 529 413.33333333333 529 380 C 529 346.66666666667 520.66666666667 315 504 285 C 487.33333333333 254.33333333333 464 230.66666666667 434 214 C 416.66666666667 204.66666666667 398.66666666667 198 380 194 C 448 138 537 110 647 110 C 751 110 829 134.66666666667 881 184 C 933 232.66666666667 959 298 959 380 L 959 902 C 959 973.33333333333 933.66666666667 1037 883 1093 C 831.66666666667 1148.33333333333 741.33333333333 1176 612 1176 C 532.66666666667 1176 455 1163.33333333333 379 1138 C 303 1112.66666666667 225.66666666667 1021 147 863 C 147 1038.33333333333 188.33333333333 1155 271 1213 C 354.33333333333 1271 466.33333333333 1300 607 1300 C 801 1300 939.66666666667 1262.66666666667 1023 1188 C 1105.66666666667 1112.66666666667 1147 1017.33333333333 1147 902 L 1147 380 Z"/>
    <path fill="#000000" stroke="none" transform="matrix(1 0 0 -1 23853 2650)" d="M 475 195 C 470.33333333333 187 468 178.66666666667 468 170 C 468 161.33333333333 470.33333333333 153 475 145 C 479 137 485 131 493 127 C 501 122.33333333333 509.33333333333 120 518 120 C 526.66666666667 120 535 122.33333333333 543 127 C 551 131 557.33333333333 137 562 145 C 566 153 568 161.33333333333 568 170 C 568 178.66666666667 565.66666666667 187 561 195 C 556.33333333333 203 550.33333333333 209.33333333333 543 214 C 535 218 526.66666666667 220 518 220 C 509.33333333333 220 501 218 493 214 C 485 209.33333333333 479 203 475 195 Z M 356 300 C 356 260 361 226 371 198 C 373.66666666667 214 379.33333333333 229.66666666667 388 245 C 401.33333333333 269 420 287.66666666667 444 301 C 468 313.66666666667 492.66666666667 320 518 320 C 543.33333333333 320 568 313.66666666667 592 301 C 615.33333333333 287.66666666667 634 269 648 245 C 661.33333333333 221 668 196 668 170 C 668 114.66666666667 653.66666666667 73 625 45 C 595 15 549.33333333333 0 488 0 C 385.33333333333 0 307.33333333333 23.33333333333 254 70 C 196.66666666667 119.33333333333 168 196 168 300 L 168 1000 C 168 1104.66666666667 196.66666666667 1182 254 1232 C 306.66666666667 1277.33333333333 376 1300 462 1300 C 594 1300 672.66666666667 1242 698 1126 C 632.66666666667 1166 567.33333333333 1186 502 1186 C 436.66666666667 1186 396 1169.33333333333 380 1136 C 364 1102 356 1056.66666666667 356 1000 L 356 300 Z M 1107 195 C 1102.33333333333 187 1100 178.66666666667 1100 170 C 1100 161.33333333333 1102.33333333333 153 1107 145 C 1111 137 1117 131 1125 127 C 1133 122.33333333333 1141.33333333333 120 1150 120 C 1158.66666666667 120 1167 122.33333333333 1175 127 C 1183 131 1189.33333333333 137 1194 145 C 1198 153 1200 161.33333333333 1200 170 C 1200 178.66666666667 1197.66666666667 187 1193 195 C 1188.33333333333 203 1182.33333333333 209.33333333333 1175 214 C 1167 218 1158.66666666667 220 1150 220 C 1141.33333333333 220 1133 218 1125 214 C 1117 209.33333333333 1111 203 1107 195 Z M 988 300 C 988 260 993 226 1003 198 C 1005.66666666667 214 1011.33333333333 229.66666666667 1020 245 C 1033.33333333333 269 1052 287.66666666667 1076 301 C 1100 313.66666666667 1124.66666666667 320 1150 320 C 1175.33333333333 320 1200 313.66666666667 1224 301 C 1247.33333333333 287.66666666667 1266 269 1280 245 C 1293.33333333333 221 1300 196 1300 170 C 1300 114.66666666667 1285.66666666667 73 1257 45 C 1227 15 1181.33333333333 0 1120 0 C 1017.33333333333 0 939.33333333333 23.33333333333 886 70 C 828.66666666667 119.33333333333 800 196 800 300 L 800 1000 C 800 1104.66666666667 828.66666666667 1182 886 1232 C 938.66666666667 1277.33333333333 1008 1300 1094 1300 C 1226 1300 1304.66666666667 1242 1330 1126 C 1264.66666666667 1166 1199.33333333333 1186 1134 1186 C 1068.66666666667 1186 1028 1169.33333333333 1012 1136 C 996 1102 988 1056.66666666667 988 1000 L 988 300 Z"/>
    <path fill="#000000" stroke="none" transform="matrix(1 0 0 -1 25876 2650)" d="M 198 191 C 198 141 223 116 273 116 C 323.66666666667 116 349 141 349 191 C 349 241.66666666667 323.66666666667 267 273 267 C 223 267 198 241.66666666667 198 191 Z M 814 663 C 808 653.66666666667 805 644.33333333333 805 635 C 805 625.66666666667 808 616.66666666667 814 608 C 820 598.66666666667 828.33333333333 591.66666666667 839 587 C 849 581.66666666667 859.33333333333 579 870 579 C 882 579 893.33333333333 581.66666666667 904 587 C 914 591.66666666667 922 598.66666666667 928 608 C 933.33333333333 616.66666666667 936 625.66666666667 936 635 C 936 644.33333333333 933.33333333333 653.66666666667 928 663 C 922 671.66666666667 914 678.66666666667 904 684 C 893.33333333333 688.66666666667 882 691 870 691 C 859.33333333333 691 849 688.66666666667 839 684 C 828.33333333333 678.66666666667 820 671.66666666667 814 663 Z M 340 1045 L 340 1068 C 340 1146.66666666667 316 1186 268 1186 C 221.33333333333 1186 198 1162.33333333333 198 1115 C 198 1067.66666666667 235.66666666667 1044 311 1044 C 321 1044 330.66666666667 1044.33333333333 340 1045 Z M 1090 533 L 1090 950 C 1090 1009.33333333333 1069.66666666667 1064.33333333333 1029 1115 C 988.33333333333 1165 927.33333333333 1190 846 1190 C 720.66666666667 1190 625.66666666667 1137.66666666667 561 1033 L 528 985 L 528 260 C 528 168.66666666667 504.33333333333 101.33333333333 457 58 C 415 19.33333333333 353.66666666667 0 273 0 C 205 0 155.33333333333 18 124 54 C 96 86 82 131.66666666667 82 191 C 82 251 96 296.66666666667 124 328 C 156 364 205.66666666667 382 273 382 C 297.66666666667 382 320 379.66666666667 340 375 L 340 930 L 313 930 C 230.33333333333 930 170 947.66666666667 132 983 C 98.66666666667 1013.66666666667 82 1057.66666666667 82 1115 C 82 1177.66666666667 98.33333333333 1224.33333333333 131 1255 C 163 1285 210.33333333333 1300 273 1300 C 407.66666666667 1300 489 1253 517 1159 C 591 1253 700.66666666667 1300 846 1300 C 990.66666666667 1300 1099 1270.66666666667 1171 1212 C 1242.33333333333 1153.33333333333 1278 1066 1278 950 L 1278 575 C 1334 612.33333333333 1366 674 1374 760 L 1551 760 C 1510.33333333333 610.66666666667 1419.33333333333 516.33333333333 1278 477 L 1278 200 C 1278 136.66666666667 1261.33333333333 70 1228 0 L 1040 0 C 1073.33333333333 50 1090 116.66666666667 1090 200 L 1090 456 C 838 458.66666666667 712 518.33333333333 712 635 C 712 658.33333333333 719.33333333333 680.66666666667 734 702 C 748 723.33333333333 767.66666666667 740 793 752 C 817.66666666667 763.33333333333 843.33333333333 769 870 769 C 896.66666666667 769 924.33333333333 763.33333333333 953 752 C 981 740 1002 723.33333333333 1016 702 C 1030 680.66666666667 1037 658.33333333333 1037 635 C 1037 611.66666666667 1030.33333333333 592.66666666667 1017 578 C 1016.33333333333 576.66666666667 1016 575.66666666667 1016 575 C 1035.33333333333 550.33333333333 1060 536.33333333333 1090 533 Z"/>
    <path fill="#000000" stroke="none" transform="matrix(1 0 0 -1 27322 2650)" d="M 310 1053 C 350.66666666667 1053 371 1074.33333333333 371 1117 C 371 1159 350.66666666667 1180 310 1180 C 269.33333333333 1180 249 1159 249 1117 C 249 1074.33333333333 269.33333333333 1053 310 1053 Z M 1197 430 C 1197 270 1155.33333333333 158.33333333333 1072 95 C 988.66666666667 31.66666666667 855 0 671 0 C 487 0 353.33333333333 30.66666666667 270 92 C 188 152.66666666667 147 259.66666666667 147 413 C 147 598.33333333333 184.33333333333 742.66666666667 259 846 C 284.33333333333 880.66666666667 305.33333333333 913.66666666667 322 945 C 260.66666666667 945.66666666667 215.33333333333 962 186 994 C 160 1022.66666666667 147 1063.66666666667 147 1117 C 147 1176.33333333333 161 1221 189 1251 C 218.33333333333 1283.66666666667 263.66666666667 1300 325 1300 C 392.33333333333 1300 442.66666666667 1284 476 1252 C 507.33333333333 1221.33333333333 523 1176.33333333333 523 1117 C 523 1019 491.66666666667 916.33333333333 429 809 C 366.33333333333 701 335 569 335 413 C 335 286.33333333333 361 204.33333333333 413 167 C 465 129 551.33333333333 110 672 110 C 792 110 878.33333333333 130.33333333333 931 171 C 983 211.66666666667 1009 298 1009 430 L 1009 1100 C 1009 1183.33333333333 992.33333333333 1250 959 1300 L 1147 1300 C 1180.33333333333 1230 1197 1163.33333333333 1197 1100 L 1197 430 Z"/>
    <path fill="#000000" stroke="none" transform="matrix(1 0 0 -1 28687 2650)" d="M 584 591 C 634 591.66666666667 659 615 659 661 C 659 705.66666666667 635 728 587 728 C 537.66666666667 728 512 705.33333333333 510 660 L 510 655 C 510 612.33333333333 534 591 582 591 L 584 591 Z M 799 0 C 681.66666666667 0 609 35 581 105 C 567.66666666667 135.66666666667 561 176.66666666667 561 228 C 561 291.33333333333 570 341.33333333333 588 378 C 622 446.66666666667 639 482.66666666667 639 486 C 625 473.33333333333 596.66666666667 467 554 467 L 548 467 C 494 475 453 494.66666666667 425 526 C 396.33333333333 557.33333333333 381 601 379 657 L 379 667 C 379 717.66666666667 393.33333333333 758.66666666667 422 790 C 452.66666666667 822 499 843.33333333333 561 854 L 566 854 C 631.33333333333 854 682.66666666667 841 720 815 C 754 791 775.33333333333 756 784 710 C 790.66666666667 676 794 643.33333333333 794 612 C 794 561.33333333333 785 515 767 473 C 737.66666666667 404.33333333333 723 327 723 241 C 723 153.66666666667 748.33333333333 110 799 110 C 862.33333333333 110 894 141.66666666667 894 205 L 894 902 C 894 973.33333333333 868.66666666667 1037 818 1093 C 766.66666666667 1148.33333333333 676.33333333333 1176 547 1176 C 467.66666666667 1176 390 1163.33333333333 314 1138 C 238 1112.66666666667 160.66666666667 1021 82 863 C 82 1038.33333333333 123.33333333333 1155 206 1213 C 289.33333333333 1271 401.33333333333 1300 542 1300 C 736 1300 874.66666666667 1262.66666666667 958 1188 C 1040.66666666667 1112.66666666667 1082 1017.33333333333 1082 902 L 1082 201 C 1082 139 1064 91.33333333333 1028 58 C 986 19.33333333333 909.66666666667 0 799 0 Z"/>
    <path fill="#000000" stroke="none" transform="matrix(1 0 0 -1 29937 2650)" d="M 310 1053 C 350.66666666667 1053 371 1074.33333333333 371 1117 C 371 1159 350.66666666667 1180 310 1180 C 269.33333333333 1180 249 1159 249 1117 C 249 1074.33333333333 269.33333333333 1053 310 1053 Z M 730 1300 L 918 1300 L 918 360 C 918 193.33333333333 970.66666666667 110 1076 110 C 1122.66666666667 110 1160.66666666667 128.66666666667 1190 166 C 1218.66666666667 203.33333333333 1233 272.33333333333 1233 373 L 1233 1100 C 1233 1163.33333333333 1249.66666666667 1230 1283 1300 L 1471 1300 C 1437.66666666667 1250 1421 1183.33333333333 1421 1100 L 1421 373 C 1421 237 1388 139 1322 79 C 1264.66666666667 26.33333333333 1182.33333333333 0 1075 0 C 965 0 881.33333333333 36.66666666667 824 110 C 766.66666666667 36.66666666667 669.66666666667 0 533 0 C 399.66666666667 0 304.33333333333 26 247 78 C 180.33333333333 138 147 236.33333333333 147 373 C 147 585 184.33333333333 742.66666666667 259 846 C 284.33333333333 880.66666666667 305.33333333333 913.66666666667 322 945 C 258 945.66666666667 211.66666666667 963.33333333333 183 998 C 159 1026 147 1065.66666666667 147 1117 C 147 1183 164.33333333333 1231 199 1261 C 228.33333333333 1287 270.33333333333 1300 325 1300 C 389.66666666667 1300 438.33333333333 1285.33333333333 471 1256 C 505.66666666667 1226 523 1179.66666666667 523 1117 C 523 1019 491.66666666667 916.33333333333 429 809 C 366.33333333333 701 335 555.66666666667 335 373 C 335 271 350 201.66666666667 380 165 C 409.33333333333 128.33333333333 460.33333333333 110 533 110 C 664.33333333333 110 730 193.33333333333 730 360 L 730 1300 Z"/>
    <path fill="#000000" stroke="none" transform="matrix(1 0 0 -1 31526 2650)" d="M 276 375 C 265.33333333333 369 257.33333333333 361 252 351 C 246 340.33333333333 243 329.33333333333 243 318 C 243 306.66666666667 245.66666666667 296 251 286 C 256.33333333333 275.33333333333 264.33333333333 267.33333333333 275 262 C 285 256.66666666667 295.66666666667 254 307 254 C 318.33333333333 254 329.33333333333 256.66666666667 340 262 C 350 267.33333333333 358 275.33333333333 364 286 C 370 296 373 306.66666666667 373 318 C 373 329.33333333333 370 340.33333333333 364 351 C 357.33333333333 361 349 369 339 375 C 328.33333333333 381 317.66666666667 384 307 384 C 296.33333333333 384 286 381 276 375 Z M 402 188 C 442.66666666667 154.66666666667 491 138 547 138 C 631 138 699.33333333333 166.66666666667 752 224 C 804.66666666667 280.66666666667 836.33333333333 358.66666666667 847 458 L 1035 458 C 1017 310.66666666667 962.66666666667 202.66666666667 872 134 C 792 74 683.66666666667 44 547 44 C 433.66666666667 44 338.66666666667 67 262 113 C 185.33333333333 158.33333333333 147 226.66666666667 147 318 C 147 346 154.33333333333 373 169 399 C 183 424.33333333333 202.66666666667 444 228 458 C 253.33333333333 471.33333333333 279.66666666667 478 307 478 C 333.66666666667 478 360 471.33333333333 386 458 C 411.33333333333 444 431.33333333333 424.33333333333 446 399 C 460 373 467 346 467 318 C 467 290 460 263.33333333333 446 238 C 434.66666666667 218 420 201.33333333333 402 188 Z M 276 1097 C 265.33333333333 1091 257.33333333333 1083 252 1073 C 246 1062.33333333333 243 1051.33333333333 243 1040 C 243 1028.66666666667 245.66666666667 1018 251 1008 C 256.33333333333 997.33333333333 264.33333333333 989.33333333333 275 984 C 285 978.66666666667 295.66666666667 976 307 976 C 318.33333333333 976 329.33333333333 978.66666666667 340 984 C 350 989.33333333333 358 997.33333333333 364 1008 C 370 1018 373 1028.66666666667 373 1040 C 373 1051.33333333333 370 1062.33333333333 364 1073 C 357.33333333333 1083 349 1091 339 1097 C 328.33333333333 1103 317.66666666667 1106 307 1106 C 296.33333333333 1106 286 1103 276 1097 Z M 402 910 C 442.66666666667 876.66666666667 491 860 547 860 C 631 860 699.33333333333 888.66666666667 752 946 C 804.66666666667 1002.66666666667 836.33333333333 1080.66666666667 847 1180 L 1035 1180 C 1017 1032.66666666667 962.66666666667 924.66666666667 872 856 C 792 796 683.66666666667 766 547 766 C 433.66666666667 766 338.66666666667 789 262 835 C 185.33333333333 880.33333333333 147 948.66666666667 147 1040 C 147 1068 154.33333333333 1095 169 1121 C 183 1146.33333333333 202.66666666667 1166 228 1180 C 253.33333333333 1193.33333333333 279.66666666667 1200 307 1200 C 333.66666666667 1200 360 1193.33333333333 386 1180 C 411.33333333333 1166 431.33333333333 1146.33333333333 446 1121 C 460 1095 467 1068 467 1040 C 467 1012 460 985.33333333333 446 960 C 434.66666666667 940 420 923.33333333333 402 910 Z"/>
    <path fill="#000000" stroke="none" transform="matrix(1 0 0 -1 32708 2650)" d="M 415 84 C 461.66666666667 84 485 107.33333333333 485 154 C 485 200.66666666667 461.66666666667 224 415 224 C 368.33333333333 224 345 200.66666666667 345 154 C 345 107.33333333333 368.33333333333 84 415 84 Z M 1147 220 C 1147 144 1125 87.66666666667 1081 51 C 1040.33333333333 17 981 0 903 0 C 863.66666666667 0 823.66666666667 13.33333333333 783 40 C 741.66666666667 66 716 111.33333333333 706 176 C 696 240.66666666667 672 309.33333333333 634 382 C 596 454 536.33333333333 490 455 490 C 375.66666666667 490 326.66666666667 420.33333333333 308 281 C 336.66666666667 309 369.66666666667 323 407 323 C 470.33333333333 323 517.33333333333 310.33333333333 548 285 C 576.66666666667 261.66666666667 591 227.33333333333 591 182 C 592.33333333333 170.66666666667 593 160 593 150 C 593 105.33333333333 579.66666666667 70.66666666667 553 46 C 520.33333333333 16 468.33333333333 0.66666666667 397 0 C 314.33333333333 2 252.33333333333 24.33333333333 211 67 C 168.33333333333 110.33333333333 147 175 147 261 C 147 387.66666666667 173 474.66666666667 225 522 C 277.66666666667 570 354.33333333333 594 455 594 C 557.66666666667 594 640.66666666667 563 704 501 C 767.33333333333 438.33333333333 807 363.33333333333 823 276 C 839 188 865.66666666667 144 903 144 C 940.33333333333 144 959 169.33333333333 959 220 L 959 902 C 959 973.33333333333 933.66666666667 1037 883 1093 C 831.66666666667 1148.33333333333 741.33333333333 1176 612 1176 C 532.66666666667 1176 455 1163.33333333333 379 1138 C 303 1112.66666666667 225.66666666667 1021 147 863 C 147 1038.33333333333 188.33333333333 1155 271 1213 C 354.33333333333 1271 466.33333333333 1300 607 1300 C 801 1300 939.66666666667 1262.66666666667 1023 1188 C 1105.66666666667 1112.66666666667 1147 1017.33333333333 1147 902 L 1147 220 Z"/>
    <path fill="#000000" stroke="none" transform="matrix(1 0 0 -1 34663 2650)" d="M 310 1053 C 350.66666666667 1053 371 1074.33333333333 371 1117 C 371 1159 350.66666666667 1180 310 1180 C 269.33333333333 1180 249 1159 249 1117 C 249 1074.33333333333 269.33333333333 1053 310 1053 Z M 1421 373 C 1421 237 1388 139 1322 79 C 1264.66666666667 26.33333333333 1175.66666666667 0 1055 0 C 931.66666666667 0 841.33333333333 36.66666666667 784 110 C 726.66666666667 36.66666666667 636.33333333333 0 513 0 C 393 0 304.33333333333 26 247 78 C 180.33333333333 138 147 236.33333333333 147 373 C 147 585 184.33333333333 742.66666666667 259 846 C 284.33333333333 880.66666666667 305.33333333333 913.66666666667 322 945 C 258 945.66666666667 211.66666666667 963.33333333333 183 998 C 159 1026 147 1065.66666666667 147 1117 C 147 1183 164.33333333333 1231 199 1261 C 228.33333333333 1287 270.33333333333 1300 325 1300 C 389.66666666667 1300 438.33333333333 1285.33333333333 471 1256 C 505.66666666667 1226 523 1179.66666666667 523 1117 C 523 1019 491.66666666667 916.33333333333 429 809 C 366.33333333333 701 335 555.66666666667 335 373 C 335 271 350 201.66666666667 380 165 C 409.33333333333 128.33333333333 453.66666666667 110 513 110 C 631 110 690 193.33333333333 690 360 L 690 1100 C 690 1163.33333333333 706.66666666667 1230 740 1300 L 928 1300 C 894.66666666667 1250 878 1183.33333333333 878 1100 L 878 360 C 878 193.33333333333 937.33333333333 110 1056 110 C 1116 110 1160.66666666667 128.66666666667 1190 166 C 1218.66666666667 203.33333333333 1233 272.33333333333 1233 373 L 1233 1270 C 1233 1326.66666666667 1251 1391.66666666667 1287 1465 C 1322.33333333333 1538.33333333333 1394.66666666667 1595 1504 1635 C 1448.66666666667 1535 1421 1413.33333333333 1421 1270 L 1421 373 Z"/>
    <path fill="#000000" stroke="none" transform="matrix(1 0 0 -1 36252 2650)" d="M 198 191 C 198 141 223 116 273 116 C 323.66666666667 116 349 141 349 191 C 349 241.66666666667 323.66666666667 267 273 267 C 223 267 198 241.66666666667 198 191 Z M 340 1045 L 340 1068 C 340 1146.66666666667 316 1186 268 1186 C 221.33333333333 1186 198 1162.33333333333 198 1115 C 198 1067.66666666667 235.66666666667 1044 311 1044 C 321 1044 330.66666666667 1044.33333333333 340 1045 Z M 273 0 C 205 0 155.33333333333 18 124 54 C 96 86 82 131.66666666667 82 191 C 82 251 96 296.66666666667 124 328 C 156 364 205.66666666667 382 273 382 C 297.66666666667 382 320 379.66666666667 340 375 L 340 930 L 313 930 C 230.33333333333 930 170 947.66666666667 132 983 C 98.66666666667 1013.66666666667 82 1057.66666666667 82 1115 C 82 1177.66666666667 98.33333333333 1224.33333333333 131 1255 C 163 1285 210.33333333333 1300 273 1300 C 407.66666666667 1300 489 1253 517 1159 C 591 1253 700.66666666667 1300 846 1300 C 990.66666666667 1300 1099 1270.66666666667 1171 1212 C 1242.33333333333 1153.33333333333 1278 1066 1278 950 L 1278 200 C 1278 136.66666666667 1261.33333333333 70 1228 0 L 1040 0 C 1073.33333333333 50 1090 116.66666666667 1090 200 L 1090 950 C 1090 1009.33333333333 1069.66666666667 1064.33333333333 1029 1115 C 988.33333333333 1165 927.33333333333 1190 846 1190 C 720.66666666667 1190 625.66666666667 1137.66666666667 561 1033 L 528 985 L 528 260 C 528 168.66666666667 504.33333333333 101.33333333333 457 58 C 415 19.33333333333 353.66666666667 0 273 0 Z"/>
    <path fill="#000000" stroke="none" transform="matrix(1 0 0 -1 37698 2650)" d="M 317 1055 C 359.66666666667 1055 381 1076 381 1118 C 381 1160.66666666667 359.66666666667 1182 317 1182 C 274.33333333333 1182 253 1160.66666666667 253 1118 C 253 1076 274.33333333333 1055 317 1055 Z M 820 1045 L 820 1068 C 820 1146.66666666667 809.33333333333 1186 788 1186 C 761.33333333333 1186 748 1162.33333333333 748 1115 C 748 1067.66666666667 762.33333333333 1044 791 1044 C 801 1044 810.66666666667 1044.33333333333 820 1045 Z M 2087 320 C 2087 202 2061 119.33333333333 2009 72 C 1956.33333333333 24 1882.66666666667 0 1788 0 C 1707.33333333333 0 1634.33333333333 35.33333333333 1569 106 C 1547 129.33333333333 1523.33333333333 142 1498 144 C 1439.33333333333 48 1308.66666666667 0 1106 0 C 1210.66666666667 49.33333333333 1279.33333333333 103 1312 161 C 1344 218.33333333333 1360 281.33333333333 1360 350 L 1360 1010 C 1360 1069.33333333333 1349.66666666667 1114.33333333333 1329 1145 C 1308.33333333333 1175 1274 1190 1226 1190 C 1147.33333333333 1190 1074.66666666667 1121.66666666667 1008 985 L 1008 374 C 1008 234 975 135.66666666667 909 79 C 848.33333333333 26.33333333333 734.66666666667 0 568 0 C 414.66666666667 0 307.66666666667 26 247 78 C 180.33333333333 135.33333333333 147 234 147 374 C 147 586 185.66666666667 743.66666666667 263 847 C 289.66666666667 881.66666666667 312 914.66666666667 330 946 C 269.33333333333 946.66666666667 223.66666666667 961.33333333333 193 990 C 162.33333333333 1018.66666666667 147 1061.33333333333 147 1118 C 147 1178.66666666667 162.66666666667 1224.33333333333 194 1255 C 224.66666666667 1285 270.66666666667 1300 332 1300 C 388 1300 433.33333333333 1285 468 1255 C 502 1224.33333333333 519 1178.66666666667 519 1118 C 519 1034 488.33333333333 934.66666666667 427 820 C 365.66666666667 705.33333333333 335 556.66666666667 335 374 C 335 262 351 190 383 158 C 414.33333333333 126 476.33333333333 110 569 110 C 674.33333333333 110 742.66666666667 126.33333333333 774 159 C 804.66666666667 191.66666666667 820 263.33333333333 820 374 L 820 930 L 793 930 C 757 930 720 947.66666666667 682 983 C 648.66666666667 1013.66666666667 632 1057.66666666667 632 1115 C 632 1177.66666666667 648.33333333333 1224.33333333333 681 1255 C 713 1285 750.33333333333 1300 793 1300 C 901 1300 969 1253 997 1159 C 1051 1253 1127.33333333333 1300 1226 1300 C 1337.33333333333 1300 1419 1272.33333333333 1471 1217 C 1522.33333333333 1161.66666666667 1548 1092.66666666667 1548 1010 L 1548 350 C 1547.33333333333 314.66666666667 1544 282 1538 252 C 1576.66666666667 248.66666666667 1615 224.33333333333 1653 179 C 1691 133 1729.33333333333 110 1768 110 C 1807.33333333333 110 1839 120.33333333333 1863 141 C 1887 161.66666666667 1899 221.33333333333 1899 320 L 1899 1100 C 1899 1183.33333333333 1882.33333333333 1250 1849 1300 L 2037 1300 C 2070.33333333333 1230 2087 1163.33333333333 2087 1100 L 2087 320 Z"/>
    <path fill="#000000" stroke="none" transform="matrix(1 0 0 -1 39953 2650)" d="M -556 2045 C -568.66666666667 2038.33333333333 -578.66666666667 2029.33333333333 -586 2018 C -593.33333333333 2006.66666666667 -597 1994.66666666667 -597 1982 C -597 1968.66666666667 -593.33333333333 1956.33333333333 -586 1945 C -578.66666666667 1933.66666666667 -568.66666666667 1925 -556 1919 C -543.33333333333 1912.33333333333 -530.33333333333 1909 -517 1909 C -503 1909 -489.66666666667 1912.33333333333 -477 1919 C -464.33333333333 1925 -454.33333333333 1933.66666666667 -447 1945 C -440.33333333333 1956.33333333333 -437 1968.66666666667 -437 1982 C -437 1994.66666666667 -440.33333333333 2006.66666666667 -447 2018 C -454.33333333333 2029.33333333333 -464.33333333333 2038.33333333333 -477 2045 C -489.66666666667 2051 -503 2054 -517 2054 C -530.33333333333 2054 -543.33333333333 2051 -556 2045 Z M -517 2163 C -483 2163 -450 2155.33333333333 -418 2140 C -386.66666666667 2124 -362 2101.66666666667 -344 2073 C -326 2043.66666666667 -317 2013.33333333333 -317 1982 C -317 1950 -325.66666666667 1919.66666666667 -343 1891 C -360.33333333333 1862.33333333333 -385 1840 -417 1824 C -449 1808 -482.33333333333 1800 -517 1800 C -551 1800 -584 1808 -616 1824 C -648 1840 -672.66666666667 1862.33333333333 -690 1891 C -708 1919.66666666667 -717 1950 -717 1982 C -717 2013.33333333333 -708 2043.66666666667 -690 2073 C -672 2101.66666666667 -647 2124 -615 2140 C -583 2155.33333333333 -550.33333333333 2163 -517 2163 Z"/>
    <path fill="#000000" stroke="none" transform="matrix(1 0 0 -1 39953 2650)" d="M 198 1040 C 198 990.66666666667 223 966 273 966 C 323.66666666667 966 349 991 349 1041 C 349 1091.66666666667 323.66666666667 1117 273 1117 C 223 1117 198 1091.33333333333 198 1040 Z M 604 920 C 604 1091.33333333333 527 1185.66666666667 373 1203 C 433.66666666667 1172.33333333333 464 1118 464 1040 C 464 913.33333333333 400 850 272 850 C 145.33333333333 850 82 913.33333333333 82 1040 C 82 1213.33333333333 200.33333333333 1300 437 1300 C 673.66666666667 1300 792 1173.33333333333 792 920 L 792 200 C 792 136.66666666667 775.33333333333 70 742 0 L 554 0 C 587.33333333333 50 604 116.66666666667 604 200 L 604 920 Z"/>
    <path fill="#000000" stroke="none" transform="matrix(1 0 0 -1 40913 2650)" d="M 414 395 C 400.66666666667 383.66666666667 394 370 394 354 C 394 336.66666666667 400.66666666667 322 414 310 C 426.66666666667 298 442 292 460 292 C 476.66666666667 292 491.66666666667 298 505 310 C 517.66666666667 322 524 336.66666666667 524 354 C 524 370 517.66666666667 383.66666666667 505 395 C 491.66666666667 406.33333333333 476.66666666667 412 460 412 C 442 412 426.66666666667 406.33333333333 414 395 Z M 220 1243 C 268.66666666667 1281 341.66666666667 1300 439 1300 C 541.66666666667 1300 639 1275 731 1225 C 785.66666666667 1195 849.33333333333 1180 922 1180 C 1027.33333333333 1180 1119 1224.33333333333 1197 1313 C 1114.33333333333 1128.33333333333 1022.66666666667 1036 922 1036 C 820.66666666667 1036 732.33333333333 1056 657 1096 C 581 1136 508.33333333333 1156 439 1156 C 369.66666666667 1156 335 1112.33333333333 335 1025 C 335 894.33333333333 387.66666666667 818.66666666667 493 798 L 667 768 C 826.33333333333 742 954.66666666667 697.66666666667 1052 635 C 1148.66666666667 572.33333333333 1197 483.66666666667 1197 369 C 1197 225.66666666667 1155.33333333333 128.33333333333 1072 77 C 988.66666666667 25.66666666667 847 0 647 0 C 471.66666666667 0 344.66666666667 24.33333333333 266 73 C 186.66666666667 121 147 187.66666666667 147 273 C 147 349 173 406.33333333333 225 445 C 277 483.66666666667 355.33333333333 503 460 503 C 507.33333333333 503 546 489.33333333333 576 462 C 606 434 621 398 621 354 C 621 304 607.66666666667 266.33333333333 581 241 C 553.66666666667 215.66666666667 513.33333333333 203 460 203 C 406 203 365.33333333333 215.66666666667 338 241 C 334 245 330.33333333333 249.33333333333 327 254 C 341 158 447.66666666667 110 647 110 C 751 110 837.33333333333 129.33333333333 906 168 C 974.66666666667 206.66666666667 1009 273.66666666667 1009 369 C 1009 439 975.33333333333 500.33333333333 908 553 C 840 605 752.33333333333 640 645 658 L 393 704 C 229 730.66666666667 147 837.66666666667 147 1025 C 147 1131.66666666667 171.33333333333 1204.33333333333 220 1243 Z"/>
    <path fill="#000000" stroke="none" transform="matrix(1 0 0 -1 42207 2650)" d="M 457 1184 C 436.33333333333 1184 420 1180 408 1172 C 390 1160 381 1139 381 1109 C 381 1058.33333333333 406.33333333333 1033 457 1033 C 483 1033 502.33333333333 1040 515 1054 C 526.33333333333 1066.66666666667 532 1085 532 1109 C 532 1136.33333333333 524.66666666667 1156.33333333333 510 1169 C 497.33333333333 1179 479.66666666667 1184 457 1184 Z M 759 738 C 753 728.66666666667 750 719.33333333333 750 710 C 750 700.66666666667 753 691.66666666667 759 683 C 765 673.66666666667 773.33333333333 666.66666666667 784 662 C 794 656.66666666667 804.33333333333 654 815 654 C 827 654 838.33333333333 656.66666666667 849 662 C 859 666.66666666667 867 673.66666666667 873 683 C 878.33333333333 691.66666666667 881 700.66666666667 881 710 C 881 719.33333333333 878.33333333333 728.66666666667 873 738 C 867 746.66666666667 859 753.66666666667 849 759 C 838.33333333333 763.66666666667 827 766 815 766 C 804.33333333333 766 794 763.66666666667 784 759 C 773.33333333333 753.66666666667 765 746.66666666667 759 738 Z M 1197 546 L 1197 380 C 1197 251.33333333333 1153.66666666667 155.33333333333 1067 92 C 984.33333333333 30.66666666667 851.33333333333 0 668 0 C 484 0 350.33333333333 27.66666666667 267 83 C 187 136.33333333333 147 225.33333333333 147 350 C 147 499.33333333333 201.33333333333 596 310 640 C 201.33333333333 688.66666666667 147 765.33333333333 147 870 L 147 1005 C 147 1119.66666666667 182 1200.66666666667 252 1248 C 302 1282.66666666667 370.33333333333 1300 457 1300 C 520.33333333333 1300 567.66666666667 1284.33333333333 599 1253 C 631 1221 647 1173.33333333333 647 1110 C 647 1046 631.33333333333 998 600 966 C 568 934 520.33333333333 918 457 918 C 406.33333333333 918 365.66666666667 928 335 948 L 335 870 C 335 759.33333333333 405.66666666667 704 547 704 L 627 704 L 627 570 L 547 570 C 405.66666666667 570 335 496.66666666667 335 350 C 335 269.33333333333 360.66666666667 209.33333333333 412 170 C 462.66666666667 130 548 110 668 110 C 788 110 875 134 929 182 C 982.33333333333 229.33333333333 1009 295.33333333333 1009 380 L 1009 532 C 774.33333333333 538 657 597.33333333333 657 710 C 657 733.33333333333 664.33333333333 755.66666666667 679 777 C 693 798.33333333333 712.66666666667 815 738 827 C 762.66666666667 838.33333333333 788.33333333333 844 815 844 C 841.66666666667 844 869.33333333333 838.33333333333 898 827 C 926 815 947 798.33333333333 961 777 C 975 755.66666666667 982 733.33333333333 982 710 C 982 686.66666666667 975.33333333333 667.66666666667 962 653 C 961.33333333333 651.66666666667 961 650.66666666667 961 650 C 974.33333333333 633.33333333333 990.33333333333 621.33333333333 1009 614 L 1009 1100 C 1009 1163.33333333333 1025.66666666667 1230 1059 1300 L 1247 1300 C 1213.66666666667 1250 1197 1183.33333333333 1197 1100 L 1197 635 C 1269 669.66666666667 1309.66666666667 736.33333333333 1319 835 L 1496 835 C 1452.66666666667 677 1353 580.66666666667 1197 546 Z"/>
</svg>
