<svg width="46721" height="3789" viewBox="0 0 46721 3789" xmlns="http://www.w3.org/2000/svg">
    <defs/>
    <path fill="#000000" stroke="none" transform="matrix(1 0 0 -1 0 2689)" d="M 1030 868 C 943.33333333333 868 875 889.66666666667 825 933 C 775 975.66666666667 750 1035.33333333333 750 1112 C 750 1196.66666666667 773 1262.33333333333 819 1309 C 865 1355 930 1378 1014 1378 C 1088 1378 1152.33333333333 1354.33333333333 1207 1307 C 1261.66666666667 1259 1304.33333333333 1186.33333333333 1335 1089 C 1365 991 1380 877.33333333333 1380 748 C 1380 600.66666666667 1350.33333333333 466.66666666667 1291 346 C 1231.66666666667 224.66666666667 1150.66666666667 133 1048 71 C 944.66666666667 8.33333333333 824.66666666667 -23 688 -23 C 572 -23 470 -4.66666666667 382 32 C 293.33333333333 68 225 120.66666666667 177 190 C 128.33333333333 258.66666666667 104 340.66666666667 104 436 C 104 532.66666666667 130.66666666667 609.66666666667 184 667 C 237.33333333333 724.33333333333 313.33333333333 758 412 768 C 322 783.33333333333 253.33333333333 816.66666666667 206 868 C 158.66666666667 918.66666666667 135 985 135 1067 C 135 1169 168 1246.66666666667 234 1300 C 300 1353.33333333333 397.33333333333 1380 526 1380 L 560 1380 L 594 1378 L 594 1219 L 561 1221 L 530 1221 C 447.33333333333 1221 387 1208 349 1182 C 310.33333333333 1155.33333333333 291 1115 291 1061 C 291 920.33333333333 418 850 672 850 L 672 682 C 517.33333333333 680.66666666667 410 660.33333333333 350 621 C 290 581.66666666667 260 518.66666666667 260 432 C 260 337.33333333333 296 265.66666666667 368 217 C 439.33333333333 167.66666666667 545.33333333333 143 686 143 C 794.66666666667 143 889.33333333333 167 970 215 C 1050 263 1113 335 1159 431 C 1204.33333333333 526.33333333333 1227 635.33333333333 1227 758 C 1227 912.66666666667 1209 1028.66666666667 1173 1106 C 1137 1182.66666666667 1086 1221 1020 1221 C 981.33333333333 1221 952.33333333333 1212.33333333333 933 1195 C 913 1177.66666666667 903 1153.33333333333 903 1122 C 903 1056.66666666667 945.33333333333 1024 1030 1024 L 1030 868 Z"/>
    <path fill="#000000" stroke="none" transform="matrix(1 0 0 -1 1466 2689)" d="M 88 371 C 88 445.66666666667 102 505.33333333333 130 550 C 157.33333333333 594 199.66666666667 626 257 646 C 313.66666666667 666 399.33333333333 676 514 676 L 745 676 C 886.33333333333 676 987 703.33333333333 1047 758 C 1107 812 1137 904 1137 1034 C 1137 1102.66666666667 1128.33333333333 1150.33333333333 1111 1177 C 1093 1203.66666666667 1065.33333333333 1217 1028 1217 C 1000.66666666667 1217 973 1204.33333333333 945 1179 C 916.33333333333 1153.66666666667 882 1115 842 1063 C 756.66666666667 955.66666666667 694.66666666667 885 656 851 C 616.66666666667 817 575.66666666667 791.33333333333 533 774 C 490.33333333333 756.66666666667 441.66666666667 748 387 748 C 281 748 200.33333333333 777.33333333333 145 836 C 89 894 61 976.33333333333 61 1083 C 61 1170.33333333333 86.66666666667 1240 138 1292 C 188.66666666667 1344 254.66666666667 1370 336 1370 C 412.66666666667 1370 473.66666666667 1349 519 1307 C 563.66666666667 1264.33333333333 586 1205.33333333333 586 1130 L 584 1087 L 436 1087 L 436 1103 C 436 1139.66666666667 429.66666666667 1168.66666666667 417 1190 C 403.66666666667 1210.66666666667 376.66666666667 1221 336 1221 C 296 1221 265.66666666667 1209.33333333333 245 1186 C 223.66666666667 1162 213 1127 213 1081 C 213 945 271.66666666667 877 389 877 C 441.66666666667 877 492.66666666667 896.66666666667 542 936 C 590.66666666667 975.33333333333 670.33333333333 1062.33333333333 781 1197 C 833 1260.33333333333 880.33333333333 1306.33333333333 923 1335 C 965 1363.66666666667 1008.33333333333 1378 1053 1378 C 1129.66666666667 1378 1188 1348.66666666667 1228 1290 C 1268 1230.66666666667 1288 1145.33333333333 1288 1034 C 1288 916 1270.66666666667 821.33333333333 1236 750 C 1200.66666666667 678.66666666667 1147.33333333333 626.66666666667 1076 594 C 1004 561.33333333333 903.33333333333 545 774 545 L 543 545 C 431 545 352.66666666667 531.66666666667 308 505 C 262.66666666667 477.66666666667 240 433 240 371 C 240 289.66666666667 266.33333333333 231.33333333333 319 196 C 371.66666666667 160.66666666667 458.66666666667 143 580 143 C 702 143 801.33333333333 165.33333333333 878 210 C 954.66666666667 254 1013 317.66666666667 1053 401 L 1182 371 L 1181 352 C 1181 220.66666666667 1241.66666666667 155 1363 155 L 1391 156 L 1411 -6 L 1366 -7 C 1288 -7 1226.33333333333 8.33333333333 1181 39 C 1135.66666666667 69.66666666667 1103 120 1083 190 C 1023.66666666667 116 952.33333333333 62 869 28 C 785.66666666667 -6 689.33333333333 -23 580 -23 C 415.33333333333 -23 292.33333333333 9.66666666667 211 75 C 129 139.66666666667 88 238.33333333333 88 371 Z"/>
    <path fill="#000000" stroke="none" transform="matrix(1 0 0 -1 2852 2689)" d="M 1206 156 C 1268.66666666667 173.33333333333 1315 201.66666666667 1345 241 C 1374.33333333333 279.66666666667 1389 325 1389 377 C 1389 407 1385.66666666667 438.33333333333 1379 471 C 1372.33333333333 503 1362 540 1348 582 C 1334 623.33333333333 1297 714.66666666667 1237 856 C 1203 850.66666666667 1154.66666666667 848 1092 848 L 1048 848 L 1006 850 C 980.66666666667 728.66666666667 950 626.33333333333 914 543 C 877.33333333333 459.66666666667 835 384.33333333333 787 317 C 739 249.66666666667 685.33333333333 190.33333333333 626 139 C 566 87.66666666667 505 48.33333333333 443 21 C 381 -6.33333333333 323.33333333333 -20 270 -20 C 211.33333333333 -20 165 -6 131 22 C 97 49.33333333333 80 89 80 141 C 80 159.66666666667 84 181.66666666667 92 207 C 126 311 153.33333333333 388.66666666667 174 440 C 238 599.33333333333 282.33333333333 721.33333333333 307 806 C 331.66666666667 890 344 955 344 1001 C 344 1039 331 1067 305 1085 L 72 1268 L 168 1389 L 387 1212 C 425 1182 452 1152.33333333333 468 1123 C 484 1093 492 1059.33333333333 492 1022 C 492 955.33333333333 479 873.33333333333 453 776 C 426.33333333333 678 379.66666666667 549 313 389 C 301.66666666667 361.66666666667 292.33333333333 335 285 309 C 277 282.33333333333 269.33333333333 257.66666666667 262 235 C 254 212.33333333333 250 197 250 189 C 250 159.66666666667 267.66666666667 145 303 145 C 350.33333333333 145 404 164.66666666667 464 204 C 524 243.33333333333 580.66666666667 296 634 362 C 687.33333333333 428 734.33333333333 504.66666666667 775 592 C 815 678.66666666667 845.33333333333 770.66666666667 866 868 C 769.33333333333 887.33333333333 694.33333333333 921.33333333333 641 970 C 587.66666666667 1018 561 1080.33333333333 561 1157 C 561 1222.33333333333 582.66666666667 1275.33333333333 626 1316 C 668.66666666667 1356 722 1376 786 1376 C 868.66666666667 1376 929.66666666667 1349.33333333333 969 1296 C 1008.33333333333 1242 1028 1167.66666666667 1028 1073 L 1024 981 L 1060 979 L 1094 979 C 1130 979 1157.33333333333 980.33333333333 1176 983 C 1156.66666666667 1035 1147 1085 1147 1133 C 1147 1209.66666666667 1167.66666666667 1268.66666666667 1209 1310 C 1249.66666666667 1351.33333333333 1308 1372 1384 1372 C 1447.33333333333 1372 1499 1352.66666666667 1539 1314 C 1579 1274.66666666667 1599 1222.33333333333 1599 1157 C 1599 1091.66666666667 1579 1037 1539 993 C 1498.33333333333 948.33333333333 1444.66666666667 913.66666666667 1378 889 L 1434 762 C 1507.33333333333 595.33333333333 1544 460 1544 356 C 1544 266.66666666667 1516.33333333333 187.66666666667 1461 119 C 1405 50.33333333333 1331 6.66666666667 1239 -12 L 1206 156 Z M 711 1159 C 711 1124.33333333333 725.66666666667 1093.33333333333 755 1066 C 783.66666666667 1038 827 1016.33333333333 885 1001 C 887.66666666667 1022.33333333333 889 1045 889 1069 C 889 1179.66666666667 856.33333333333 1235 791 1235 C 771 1235 752.66666666667 1227.66666666667 736 1213 C 719.33333333333 1198.33333333333 711 1180.33333333333 711 1159 Z M 1286 1126 C 1286 1090.66666666667 1293.66666666667 1053.33333333333 1309 1014 C 1355 1029.33333333333 1390 1049.33333333333 1414 1074 C 1438 1098.66666666667 1450 1126.33333333333 1450 1157 C 1450 1178.33333333333 1444 1196 1432 1210 C 1420 1224 1402.66666666667 1231 1380 1231 C 1349.33333333333 1231 1326 1221.66666666667 1310 1203 C 1294 1184.33333333333 1286 1158.66666666667 1286 1126 Z"/>
    <path fill="#000000" stroke="none" transform="matrix(1 0 0 -1 4550 2689)" d="M 932 -18 C 870 -18 813.66666666667 -5.66666666667 763 19 C 712.33333333333 43.66666666667 673 78.66666666667 645 124 C 616.33333333333 168.66666666667 602 223 602 287 C 602 320.33333333333 609 354.66666666667 623 390 C 637 425.33333333333 667.66666666667 476.33333333333 715 543 C 643 549.66666666667 585.33333333333 577.66666666667 542 627 C 498.66666666667 675.66666666667 477 740.33333333333 477 821 C 477 877 489.33333333333 925 514 965 C 538 1005 571 1036 613 1058 C 655 1079.33333333333 702 1090 754 1090 C 842 1090 910.33333333333 1065 959 1015 C 1007.66666666667 964.33333333333 1032 896.33333333333 1032 811 C 1032 770.33333333333 1021.66666666667 730.66666666667 1001 692 L 1315 692 C 1314.33333333333 809.33333333333 1292.33333333333 909.33333333333 1249 992 C 1205.66666666667 1074.66666666667 1145 1138 1067 1182 C 988.33333333333 1225.33333333333 898.33333333333 1247 797 1247 C 684.33333333333 1247 588 1220.66666666667 508 1168 C 428 1115.33333333333 368.33333333333 1040.33333333333 329 943 C 289.66666666667 845.66666666667 270 728.66666666667 270 592 C 270 416 316 239.66666666667 408 63 L 258 -6 C 160 180.66666666667 111 380 111 592 C 111 758.66666666667 137 902.33333333333 189 1023 C 240.33333333333 1143 319.33333333333 1236 426 1302 C 532 1368 656.33333333333 1401 799 1401 C 928.33333333333 1401 1045 1371.33333333333 1149 1312 C 1252.33333333333 1252.66666666667 1330.66666666667 1170.66666666667 1384 1066 C 1437.33333333333 960.66666666667 1464.66666666667 836 1466 692 L 1642 692 L 1622 543 L 1456 543 C 1435.33333333333 367 1378.33333333333 229.66666666667 1285 131 C 1191.66666666667 31.66666666667 1074 -18 932 -18 Z M 901 543 C 846.33333333333 484.33333333333 810.33333333333 437.33333333333 793 402 C 775 366 766 331 766 297 C 766 247.66666666667 781 209.66666666667 811 183 C 841 156.33333333333 881.33333333333 143 932 143 C 1030.66666666667 143 1114 179 1182 251 C 1249.33333333333 322.33333333333 1291.66666666667 419.66666666667 1309 543 L 901 543 Z M 631 819 C 631 779 641.66666666667 748 663 726 C 684.33333333333 703.33333333333 714.66666666667 692 754 692 L 838 692 C 868 731.33333333333 883 771.66666666667 883 813 C 883 850.33333333333 873 881 853 905 C 833 928.33333333333 802 940 760 940 C 721.33333333333 940 690.33333333333 929 667 907 C 643 885 631 855.66666666667 631 819 Z"/>
    <path fill="#000000" stroke="none" transform="matrix(1 0 0 -1 6227 2689)" d="M 659 680 C 543.66666666667 680 458 672.66666666667 402 658 C 346 642.66666666667 304.33333333333 618.33333333333 277 585 C 249.66666666667 551 236 505.66666666667 236 449 C 236 350.33333333333 274.66666666667 274.66666666667 352 222 C 429.33333333333 169.33333333333 539.33333333333 143 682 143 C 847.33333333333 143 975.33333333333 196.66666666667 1066 304 C 1156.66666666667 411.33333333333 1202 563.33333333333 1202 760 C 1202 899.33333333333 1175 1010 1121 1092 C 1066.33333333333 1173.33333333333 989 1214 889 1214 L 883 1214 L 883 1374 L 897 1374 C 990.33333333333 1374 1072 1348.33333333333 1142 1297 C 1211.33333333333 1245 1264.33333333333 1172 1301 1078 C 1337.66666666667 984 1356 875.33333333333 1356 752 C 1356 591.33333333333 1329 453 1275 337 C 1221 221 1143.66666666667 132.66666666667 1043 72 C 941.66666666667 10.66666666667 823.33333333333 -20 688 -20 C 570.66666666667 -20 466 -1.33333333333 374 36 C 281.33333333333 72.66666666667 209.66666666667 125.66666666667 159 195 C 107.66666666667 264.33333333333 82 346 82 440 C 82 542.66666666667 108.66666666667 620 162 672 C 215.33333333333 723.33333333333 295.66666666667 752.66666666667 403 760 C 312.33333333333 778 243 815.66666666667 195 873 C 147 929.66666666667 123 1000.33333333333 123 1085 C 123 1171 151.33333333333 1241.33333333333 208 1296 C 264.66666666667 1350.66666666667 338 1378 428 1378 C 525.33333333333 1378 597 1354.33333333333 643 1307 C 689 1259 712 1196 712 1118 L 711 1092 L 559 1092 L 559 1099 C 559 1179 518 1219 436 1219 C 389.33333333333 1219 352 1206.33333333333 324 1181 C 295.33333333333 1155.66666666667 281 1122.33333333333 281 1081 C 281 999 312.33333333333 936 375 892 C 437 847.33333333333 531.66666666667 825 659 825 L 659 680 Z"/>
    <path fill="#000000" stroke="none" transform="matrix(1 0 0 -1 7681 2689)" d="M 506 1288 C 421.33333333333 1190 362 1090.66666666667 328 990 C 293.33333333333 889.33333333333 276 780.66666666667 276 664 C 276 495.33333333333 295.33333333333 366.33333333333 334 277 C 372 187.66666666667 427.33333333333 143 500 143 C 547.33333333333 143 583.66666666667 155.33333333333 609 180 C 634.33333333333 204.66666666667 654 243 668 295 C 681.33333333333 347 688 416.66666666667 688 504 L 688 877 C 688 997.66666666667 700 1094.33333333333 724 1167 C 747.33333333333 1239.66666666667 783.33333333333 1292.66666666667 832 1326 C 880 1359.33333333333 948.66666666667 1376 1038 1376 C 1150 1376 1237.66666666667 1316.66666666667 1301 1198 C 1363.66666666667 1079.33333333333 1395 913.33333333333 1395 700 C 1395 559.33333333333 1376.66666666667 426.33333333333 1340 301 C 1302.66666666667 175.66666666667 1250 65 1182 -31 L 1034 66 C 1096 149.33333333333 1146.33333333333 250.66666666667 1185 370 C 1223.66666666667 489.33333333333 1243 599.33333333333 1243 700 C 1243 864.66666666667 1224.66666666667 992 1188 1082 C 1150.66666666667 1172 1097.33333333333 1217 1028 1217 C 986.66666666667 1217 955 1210 933 1196 C 911 1181.33333333333 893.33333333333 1160 880 1132 C 866 1103.33333333333 856 1068 850 1026 C 843.33333333333 983.33333333333 840 933.66666666667 840 877 L 840 494 C 840 371.33333333333 829.33333333333 273 808 199 C 786 124.33333333333 751.66666666667 69.66666666667 705 35 C 657.66666666667 -0.33333333333 589.33333333333 -18 500 -18 C 378.66666666667 -18 285.66666666667 40.33333333333 221 157 C 155.66666666667 273.66666666667 123 442.66666666667 123 664 C 123 806 145 938.66666666667 189 1062 C 233 1184.66666666667 299.66666666667 1293.66666666667 389 1389 L 506 1288 Z"/>
    <path fill="#000000" stroke="none" transform="matrix(1 0 0 -1 9770 2689)" d="M 559 948 C 572.33333333333 925.33333333333 585 909.66666666667 597 901 C 609 891.66666666667 623.66666666667 887 641 887 C 665 887 688.66666666667 897.66666666667 712 919 C 735.33333333333 940.33333333333 771 987 819 1059 L 815 1065 C 754.33333333333 1125.66666666667 703.33333333333 1167.33333333333 662 1190 C 620.66666666667 1212 576.66666666667 1223 530 1223 C 426.66666666667 1223 345.33333333333 1174.33333333333 286 1077 C 226.66666666667 979.66666666667 197 845.33333333333 197 674 C 197 568 214.66666666667 475.33333333333 250 396 C 285.33333333333 316.66666666667 337 255.33333333333 405 212 C 473 168.66666666667 554.33333333333 147 649 147 C 762.33333333333 147 854.33333333333 176.66666666667 925 236 C 995 295.33333333333 1030 371.66666666667 1030 465 C 1030 565.66666666667 987.66666666667 632 903 664 L 973 805 C 1108.33333333333 751 1176 637.66666666667 1176 465 C 1176 373.66666666667 1153.33333333333 290.33333333333 1108 215 C 1062 139.66666666667 999.33333333333 82 920 42 C 840.66666666667 2 749 -18 645 -18 C 526.33333333333 -18 423 9.66666666667 335 65 C 246.33333333333 119.66666666667 177.66666666667 201 129 309 C 79.66666666667 416.33333333333 55 538.66666666667 55 676 C 55 817.33333333333 74 942.33333333333 112 1051 C 149.33333333333 1159 203.33333333333 1242.33333333333 274 1301 C 344 1359.66666666667 427.33333333333 1389 524 1389 C 575.33333333333 1389 621.33333333333 1379.66666666667 662 1361 C 702 1342.33333333333 746.33333333333 1310.33333333333 795 1265 L 897 1174 C 941 1235.33333333333 983.66666666667 1279.66666666667 1025 1307 C 1066.33333333333 1334.33333333333 1110.33333333333 1348 1157 1348 C 1231.66666666667 1348 1290.33333333333 1326 1333 1282 C 1375.66666666667 1237.33333333333 1397 1178 1397 1104 C 1397 1062 1386.66666666667 1022.33333333333 1366 985 C 1345.33333333333 947.66666666667 1316.66666666667 918.33333333333 1280 897 C 1242.66666666667 875 1200.33333333333 864 1153 864 C 1079.66666666667 864 1002.66666666667 897.66666666667 922 965 L 863 879 C 827.66666666667 827.66666666667 792.66666666667 790.66666666667 758 768 C 722.66666666667 744.66666666667 683 733 639 733 C 597 733 560.33333333333 743.33333333333 529 764 C 497 784 467.33333333333 818.66666666667 440 868 L 559 948 Z M 1153 1196 C 1125.66666666667 1196 1100.66666666667 1187.33333333333 1078 1170 C 1055.33333333333 1152.66666666667 1030.66666666667 1123.66666666667 1004 1083 C 1034 1058.33333333333 1060 1040.33333333333 1082 1029 C 1104 1017.66666666667 1126.33333333333 1012 1149 1012 C 1176.33333333333 1012 1199.33333333333 1021 1218 1039 C 1236 1057 1245 1078.66666666667 1245 1104 C 1245 1134 1237 1157 1221 1173 C 1205 1188.33333333333 1182.33333333333 1196 1153 1196 Z"/>
    <path fill="#000000" stroke="none" transform="matrix(1 0 0 -1 11230 2689)" d="M 981 1098 C 981 1047.33333333333 999 1000.66666666667 1035 958 C 1071 914.66666666667 1125.33333333333 872.33333333333 1198 831 C 1214.66666666667 893.66666666667 1223 968.33333333333 1223 1055 C 1223 1113 1213 1155.33333333333 1193 1182 C 1173 1208 1141.33333333333 1221 1098 1221 C 1066 1221 1038.66666666667 1209.66666666667 1016 1187 C 992.66666666667 1164.33333333333 981 1134.66666666667 981 1098 Z M 1292 594 C 1248 390 1175 236.33333333333 1073 133 C 970.33333333333 29 840.66666666667 -23 684 -23 C 558 -23 449.66666666667 6.33333333333 359 65 C 268.33333333333 123.66666666667 199 210.33333333333 151 325 C 102.33333333333 439.66666666667 78 578.33333333333 78 741 C 78 950.33333333333 106.33333333333 1109.66666666667 163 1219 C 219 1327.66666666667 304 1382 418 1382 C 504.66666666667 1382 572.33333333333 1353.33333333333 621 1296 C 669.66666666667 1238 694 1159.66666666667 694 1061 C 694 966.33333333333 669.33333333333 890.66666666667 620 834 C 570.66666666667 776.66666666667 504.66666666667 748 422 748 C 338.66666666667 748 269.66666666667 766.33333333333 215 803 L 215 741 C 215 613 233.66666666667 504 271 414 C 308.33333333333 324 362 256 432 210 C 502 164 586 141 684 141 C 809.33333333333 141 912.66666666667 188 994 282 C 1075.33333333333 375.33333333333 1133.66666666667 510.66666666667 1169 688 C 1039.66666666667 766.66666666667 950.66666666667 838.33333333333 902 903 C 853.33333333333 967 829 1034.66666666667 829 1106 C 829 1189.33333333333 853 1256 901 1306 C 948.33333333333 1355.33333333333 1010.33333333333 1380 1087 1380 C 1177 1380 1247.33333333333 1351.66666666667 1298 1295 C 1348.66666666667 1238.33333333333 1374 1158.33333333333 1374 1055 C 1374 965.66666666667 1359.66666666667 862.33333333333 1331 745 C 1421 676.33333333333 1483.66666666667 613.33333333333 1519 556 C 1553.66666666667 498.66666666667 1571 429.33333333333 1571 348 C 1571 222.66666666667 1512.33333333333 106 1395 -2 L 1270 117 C 1369.33333333333 203.66666666667 1419 287 1419 367 C 1419 419 1408.33333333333 463 1387 499 C 1365.66666666667 534.33333333333 1334 566 1292 594 Z M 420 1223 C 365.33333333333 1223 323.33333333333 1201.66666666667 294 1159 C 264.66666666667 1116.33333333333 246 1051.66666666667 238 965 C 286.66666666667 926.33333333333 344.66666666667 907 412 907 C 457.33333333333 907 492.33333333333 921.33333333333 517 950 C 541 978 553 1015 553 1061 C 553 1114.33333333333 541 1154.66666666667 517 1182 C 493 1209.33333333333 460.66666666667 1223 420 1223 Z"/>
    <path fill="#000000" stroke="none" transform="matrix(1 0 0 -1 12864 2689)" d="M 1411 367 C 1411 460.33333333333 1365.33333333333 537.33333333333 1274 598 C 1230 388.66666666667 1151.66666666667 233 1039 131 C 926.33333333333 28.33333333333 776.66666666667 -23 590 -23 C 434.66666666667 -23 311.66666666667 16 221 94 C 129.66666666667 172 84 279.33333333333 84 416 C 84 625.33333333333 188.33333333333 738.66666666667 397 756 C 210.33333333333 788.66666666667 117 898.33333333333 117 1085 C 117 1174.33333333333 145.66666666667 1245.33333333333 203 1298 C 259.66666666667 1350 331.33333333333 1376 418 1376 C 503.33333333333 1376 570.33333333333 1353.66666666667 619 1309 C 667.66666666667 1263.66666666667 692 1202.66666666667 692 1126 L 692 1110 L 690 1092 L 541 1092 C 541 1141.33333333333 530.66666666667 1175.66666666667 510 1195 C 489.33333333333 1213.66666666667 458 1223 416 1223 C 368 1223 331.66666666667 1210.66666666667 307 1186 C 282.33333333333 1161.33333333333 270 1127 270 1083 C 270 999.66666666667 302 935.33333333333 366 890 C 430 844 526.33333333333 821 655 821 L 655 682 C 544.33333333333 682 461 673.33333333333 405 656 C 348.33333333333 638 306 610 278 572 C 250 534 236 482 236 416 C 236 329.33333333333 267.33333333333 262 330 214 C 392.66666666667 165.33333333333 482.66666666667 141 600 141 C 746.66666666667 141 864.66666666667 185.33333333333 954 274 C 1043.33333333333 362.66666666667 1109 502 1151 692 C 1105 720 1060.33333333333 747.66666666667 1017 775 C 973.66666666667 802.33333333333 935.33333333333 832 902 864 C 868.66666666667 896 842 931.66666666667 822 971 C 801.33333333333 1009.66666666667 791 1054.66666666667 791 1106 C 791 1188 817.66666666667 1254.33333333333 871 1305 C 923.66666666667 1355 989.66666666667 1380 1069 1380 C 1165 1380 1238.66666666667 1352 1290 1296 C 1340.66666666667 1239.33333333333 1366 1159 1366 1055 C 1366 983.66666666667 1349.66666666667 882 1317 750 C 1414.33333333333 669.33333333333 1479.66666666667 600.66666666667 1513 544 C 1546.33333333333 487.33333333333 1563 422 1563 348 C 1563 218.66666666667 1500 104 1374 4 L 1251 125 C 1297.66666666667 160.33333333333 1336 199.66666666667 1366 243 C 1396 286.33333333333 1411 327.66666666667 1411 367 Z M 950 1098 C 950 1064.66666666667 957 1035 971 1009 C 984.33333333333 982.33333333333 1005 957 1033 933 C 1061 909 1111.33333333333 876.66666666667 1184 836 C 1202.66666666667 906 1212 979 1212 1055 C 1212 1165.66666666667 1166.33333333333 1221 1075 1221 C 1040.33333333333 1221 1011 1209.66666666667 987 1187 C 962.33333333333 1163.66666666667 950 1134 950 1098 Z"/>
    <path fill="#000000" stroke="none" transform="matrix(1 0 0 -1 14492 2689)" d="M 924 -229 L 921 -193 C 921 -157.66666666667 931 -122.66666666667 951 -88 C 971 -54 1007.66666666667 -29.33333333333 1061 -14 C 977.66666666667 -2.66666666667 913 26 867 72 C 820.33333333333 118 797 177.33333333333 797 250 C 797 298 814.66666666667 339 850 373 L 631 373 L 651 514 L 1208 514 L 1188 373 L 1100 373 C 1038 373 995.33333333333 364 972 346 C 948 327.33333333333 936 299.33333333333 936 262 C 936 223.33333333333 951.66666666667 192 983 168 C 1013.66666666667 143.33333333333 1054 131 1104 131 C 1216.66666666667 131 1303 186 1363 296 C 1422.33333333333 406 1452 562 1452 764 C 1452 910.66666666667 1431.66666666667 1022.33333333333 1391 1099 C 1350.33333333333 1175.66666666667 1286 1214 1198 1214 C 1130.66666666667 1214 1077.66666666667 1195.33333333333 1039 1158 C 1000.33333333333 1120.66666666667 971.66666666667 1064.66666666667 953 990 C 933.66666666667 915.33333333333 923.33333333333 823.66666666667 922 715 L 764 715 C 762 885.66666666667 740.66666666667 1011.66666666667 700 1093 C 659.33333333333 1173.66666666667 595.33333333333 1214 508 1214 C 329.33333333333 1214 240 1064 240 764 C 240 557.33333333333 270.33333333333 405.66666666667 331 309 C 391 212.33333333333 483.33333333333 162.66666666667 608 160 L 608 -10 C 438 -7.33333333333 308.33333333333 60.66666666667 219 194 C 129 327.33333333333 84 516.66666666667 84 762 C 84 960 118.66666666667 1112.33333333333 188 1219 C 256.66666666667 1325 358 1378 492 1378 C 680.66666666667 1378 796 1285.33333333333 838 1100 L 844 1102 C 900.66666666667 1286 1022 1378 1208 1378 C 1332 1378 1428.66666666667 1325.33333333333 1498 1220 C 1567.33333333333 1114.66666666667 1602 962.66666666667 1602 764 C 1602 541.33333333333 1569.66666666667 364 1505 232 C 1439.66666666667 99.33333333333 1345.66666666667 20 1223 -6 C 1283.66666666667 -18.66666666667 1330.66666666667 -46.33333333333 1364 -89 C 1396.66666666667 -131.66666666667 1413 -184 1413 -246 C 1413 -332 1383 -398 1323 -444 C 1263 -490.66666666667 1178.33333333333 -514 1069 -514 C 877.66666666667 -514 700.33333333333 -422.66666666667 537 -240 L 641 -139 C 709.66666666667 -217.66666666667 780.33333333333 -277 853 -317 C 925.66666666667 -357 995.66666666667 -377 1063 -377 C 1122.33333333333 -377 1169 -364 1203 -338 C 1236.33333333333 -312 1253 -275 1253 -227 C 1253 -193 1244.66666666667 -166.66666666667 1228 -148 C 1211.33333333333 -130 1188.33333333333 -121 1159 -121 C 1131.66666666667 -121 1109.66666666667 -129.33333333333 1093 -146 C 1076.33333333333 -163.33333333333 1068 -185.33333333333 1068 -212 L 1069 -229 L 924 -229 Z"/>
    <path fill="#000000" stroke="none" transform="matrix(1 0 0 -1 16192 2689)" d="M 1073 170 C 1203.66666666667 175.33333333333 1305.33333333333 230.66666666667 1378 336 C 1450.66666666667 441.33333333333 1487 584 1487 764 C 1487 916 1468.33333333333 1030 1431 1106 C 1393.66666666667 1181.33333333333 1333.66666666667 1219 1251 1219 C 1158.33333333333 1219 1090.66666666667 1175 1048 1087 C 1005.33333333333 999 983 869.33333333333 981 698 L 809 698 C 804.33333333333 1045.33333333333 716.33333333333 1219 545 1219 C 447.66666666667 1219 376.33333333333 1181 331 1105 C 285 1029 262 914 262 760 C 262 661.33333333333 265.33333333333 586.33333333333 272 535 C 356 603 449 637 551 637 C 647.66666666667 637 720.66666666667 611 770 559 C 819.33333333333 506.33333333333 844 430.66666666667 844 332 C 844 260.66666666667 832.33333333333 198.66666666667 809 146 C 785 93.33333333333 749.33333333333 52.66666666667 702 24 C 654 -5.33333333333 599.66666666667 -20 539 -20 C 401.66666666667 -20 296.33333333333 48.33333333333 223 185 C 149.66666666667 321.66666666667 113 516 113 768 C 113 968 148 1120 218 1224 C 288 1328 392.66666666667 1380 532 1380 C 632 1380 712 1356 772 1308 C 832 1259.33333333333 871.66666666667 1190 891 1100 L 897 1102 C 954.33333333333 1287.33333333333 1074.33333333333 1380 1257 1380 C 1377.66666666667 1380 1470.33333333333 1326.66666666667 1535 1220 C 1599.66666666667 1112.66666666667 1632 960.66666666667 1632 764 C 1632 527.33333333333 1582.66666666667 341 1484 205 C 1384.66666666667 68.33333333333 1247.66666666667 -2.66666666667 1073 -8 L 1073 170 Z M 311 371 C 321 303.66666666667 347.33333333333 248.33333333333 390 205 C 432 161 479.33333333333 139 532 139 C 584.66666666667 139 625 155.33333333333 653 188 C 680.33333333333 220.66666666667 694 266.66666666667 694 326 C 694 434.66666666667 646.33333333333 489 551 489 C 507 489 463.66666666667 478.33333333333 421 457 C 377.66666666667 435 341 406.33333333333 311 371 Z"/>
    <path fill="#000000" stroke="none" transform="matrix(1 0 0 -1 17943 2689)" d="M 1276 164 C 1317.33333333333 169.33333333333 1352.66666666667 184.33333333333 1382 209 C 1410.66666666667 233.66666666667 1434.66666666667 266.66666666667 1454 308 C 1472.66666666667 349.33333333333 1487.33333333333 404.66666666667 1498 474 C 1508 542.66666666667 1513 639.33333333333 1513 764 C 1513 869.33333333333 1507 955 1495 1021 C 1482.33333333333 1087 1463.66666666667 1135.66666666667 1439 1167 C 1414.33333333333 1198.33333333333 1380.33333333333 1214 1337 1214 C 1285 1214 1248.33333333333 1188.66666666667 1227 1138 C 1205 1087.33333333333 1194 997.33333333333 1194 868 L 1194 698 L 1047 698 L 1047 868 C 1047 986.66666666667 1035 1074 1011 1130 C 986.33333333333 1186 949 1214 899 1214 C 838.33333333333 1214 796 1183.66666666667 772 1123 C 747.33333333333 1062.33333333333 735 948.66666666667 735 782 L 735 453 C 735 291 710.66666666667 172 662 96 C 612.66666666667 20 535.33333333333 -18 430 -18 C 313.33333333333 -18 227.66666666667 33.66666666667 173 137 C 117.66666666667 239.66666666667 90 396 90 606 C 90 766 111.33333333333 913 154 1047 C 196.66666666667 1180.33333333333 260 1294.33333333333 344 1389 L 479 1292 C 393.66666666667 1193.33333333333 333.66666666667 1090.33333333333 299 983 C 263.66666666667 875 246 748.66666666667 246 604 C 246 442 260.66666666667 324.66666666667 290 252 C 318.66666666667 179.33333333333 365.33333333333 143 430 143 C 532.66666666667 143 584 247 584 455 L 584 844 C 584 1024 607.33333333333 1158.33333333333 654 1247 C 700.66666666667 1335.66666666667 774 1380 874 1380 C 1011.33333333333 1380 1092 1311.33333333333 1116 1174 L 1122 1176 C 1134 1242 1158.66666666667 1292.33333333333 1196 1327 C 1233.33333333333 1361 1288 1378 1360 1378 C 1560.66666666667 1378 1661 1173.33333333333 1661 764 C 1661 497.33333333333 1629.66666666667 303.33333333333 1567 182 C 1503.66666666667 60.66666666667 1406.66666666667 -4 1276 -12 L 1276 164 Z"/>
    <path fill="#000000" stroke="none" transform="matrix(1 0 0 -1 20276 2689)" d="M 739 1303 C 808.33333333333 1357 884.33333333333 1384 967 1384 C 1049.66666666667 1384 1114.33333333333 1361 1161 1315 C 1207.66666666667 1268.33333333333 1231 1206 1231 1128 C 1231 1084 1221.66666666667 1044.66666666667 1203 1010 C 1184.33333333333 975.33333333333 1152.66666666667 937.66666666667 1108 897 L 764 571 C 829.33333333333 505.66666666667 872.33333333333 459.66666666667 893 433 C 913.66666666667 405.66666666667 929.66666666667 378.33333333333 941 351 C 952.33333333333 323 958 294 958 264 C 958 179.33333333333 931.33333333333 111.33333333333 878 60 C 824 8 752 -18 662 -18 C 571.33333333333 -18 498.33333333333 7.66666666667 443 59 C 387.66666666667 109.66666666667 360 177.33333333333 360 262 C 360 308.66666666667 373.66666666667 355 401 401 C 427.66666666667 446.33333333333 475.66666666667 501 545 565 L 557 578 L 166 961 C 96 1029.66666666667 61 1098.33333333333 61 1167 C 61 1225.66666666667 80.66666666667 1273.33333333333 120 1310 C 159.33333333333 1346 212.33333333333 1364 279 1364 L 547 1364 L 547 1208 L 291 1208 C 267.66666666667 1208 250 1202.66666666667 238 1192 C 225.33333333333 1181.33333333333 219 1168.33333333333 219 1153 C 219 1123 234.66666666667 1092.33333333333 266 1061 L 659 674 L 1006 1001 C 1054.66666666667 1045.66666666667 1079 1086 1079 1122 C 1079 1155.33333333333 1069.66666666667 1181.66666666667 1051 1201 C 1032.33333333333 1219.66666666667 1005.66666666667 1229 971 1229 C 921 1229 873 1212 827 1178 L 739 1303 Z M 807 274 C 807 297.33333333333 801 319.66666666667 789 341 C 776.33333333333 361.66666666667 755 386.33333333333 725 415 L 662 475 C 609.33333333333 429.66666666667 571.66666666667 392.66666666667 549 364 C 525.66666666667 334.66666666667 514 304 514 272 C 514 232 527.66666666667 200.33333333333 555 177 C 581.66666666667 153 617.33333333333 141 662 141 C 705.33333333333 141 740.33333333333 153.33333333333 767 178 C 793.66666666667 202.66666666667 807 234.66666666667 807 274 Z"/>
    <path fill="#000000" stroke="none" transform="matrix(1 0 0 -1 21581 2689)" d="M 158 1364 L 483 1364 C 551 1364 603.66666666667 1346.33333333333 641 1311 C 677.66666666667 1275.66666666667 696 1225 696 1159 C 696 1119 678.66666666667 1003 644 811 C 608.66666666667 618.33333333333 575 451 543 309 L 632 251 C 738.66666666667 179 827 143 897 143 C 965.66666666667 143 1021 163 1063 203 C 1105 242.33333333333 1126 292.66666666667 1126 354 C 1126 403.33333333333 1115 459.33333333333 1093 522 C 1071 584.66666666667 1035.66666666667 662.33333333333 987 755 C 935.66666666667 852.33333333333 899.66666666667 929.33333333333 879 986 C 858.33333333333 1042 848 1091 848 1133 C 848 1287 929.33333333333 1364 1092 1364 L 1319 1364 L 1319 1208 L 1112 1208 C 1070 1208 1040 1200.66666666667 1022 1186 C 1004 1171.33333333333 995 1147.33333333333 995 1114 C 995 1079.33333333333 1005 1037.33333333333 1025 988 C 1045 938 1082.33333333333 862.66666666667 1137 762 C 1184.33333333333 674 1219.66666666667 597.33333333333 1243 532 C 1266.33333333333 466 1278 406.66666666667 1278 354 C 1278 236 1248 145.33333333333 1188 82 C 1128 18 1039.33333333333 -14 922 -14 C 882 -14 837.66666666667 -4 789 16 C 739.66666666667 36 681 68.33333333333 613 113 L 510 178 C 490 110 459.66666666667 60 419 28 C 378.33333333333 -4 326 -20 262 -20 C 198 -20 146 0.66666666667 106 42 C 65.33333333333 83.33333333333 45 135.66666666667 45 199 C 45 265.66666666667 65.33333333333 319.33333333333 106 360 C 146 400 201.33333333333 420 272 420 C 311.33333333333 420 356.66666666667 408.33333333333 408 385 C 436.66666666667 514.33333333333 466.66666666667 662.33333333333 498 829 C 529.33333333333 995.66666666667 545 1092 545 1118 C 545 1178 517.66666666667 1208 463 1208 L 117 1208 L 158 1364 Z M 262 123 C 290 123 313.33333333333 132.66666666667 332 152 C 350 170.66666666667 365 203.33333333333 377 250 C 335 266 298.66666666667 274 268 274 C 241.33333333333 274 221 266.66666666667 207 252 C 193 237.33333333333 186 219.66666666667 186 199 C 186 176.33333333333 193 158 207 144 C 221 130 239.33333333333 123 262 123 Z"/>
    <path fill="#000000" stroke="none" transform="matrix(1 0 0 -1 22955 2689)" d="M 651 514 L 1208 514 L 1188 373 L 1100 373 C 1038 373 995.33333333333 364 972 346 C 948 327.33333333333 936 299.33333333333 936 262 C 936 224.66666666667 950.33333333333 196 979 176 C 1007.66666666667 155.33333333333 1049.33333333333 145 1104 145 C 1216.66666666667 145 1303 198 1363 304 C 1422.33333333333 410 1452 563.33333333333 1452 764 C 1452 910.66666666667 1431.66666666667 1022.33333333333 1391 1099 C 1350.33333333333 1175.66666666667 1286 1214 1198 1214 C 1130.66666666667 1214 1077.66666666667 1195.33333333333 1039 1158 C 1000.33333333333 1120.66666666667 971.66666666667 1064.66666666667 953 990 C 933.66666666667 915.33333333333 923.33333333333 823.66666666667 922 715 L 764 715 C 762 885.66666666667 740.66666666667 1011.66666666667 700 1093 C 659.33333333333 1173.66666666667 595.33333333333 1214 508 1214 C 329.33333333333 1214 240 1064 240 764 C 240 557.33333333333 270.33333333333 405.66666666667 331 309 C 391 212.33333333333 483.33333333333 162.66666666667 608 160 L 608 -10 C 438 -7.33333333333 308.33333333333 60.66666666667 219 194 C 129 327.33333333333 84 516.66666666667 84 762 C 84 960 118.66666666667 1112.33333333333 188 1219 C 256.66666666667 1325 358 1378 492 1378 C 680.66666666667 1378 796 1285.33333333333 838 1100 L 844 1102 C 900.66666666667 1286 1022 1378 1208 1378 C 1332 1378 1428.66666666667 1325.33333333333 1498 1220 C 1567.33333333333 1114.66666666667 1602 962.66666666667 1602 764 C 1602 242.66666666667 1442 -18 1122 -18 C 1060.66666666667 -18 1004 -6.33333333333 952 17 C 899.33333333333 39.66666666667 860.33333333333 71 835 111 C 809.66666666667 150.33333333333 797 196.66666666667 797 250 C 797 298 814.66666666667 339 850 373 L 631 373 L 651 514 Z"/>
    <path fill="#000000" stroke="none" transform="matrix(1 0 0 -1 24649 2689)" d="M 631 631 C 762.33333333333 632.33333333333 851.66666666667 646.33333333333 899 673 C 945.66666666667 699.66666666667 969 743 969 803 C 969 891.66666666667 912.33333333333 936 799 936 C 697 936 641 891 631 801 L 469 817 C 474.33333333333 899 507.33333333333 963.66666666667 568 1011 C 628 1057.66666666667 705 1081 799 1081 C 897 1081 975 1057 1033 1009 C 1091 961 1120 896.33333333333 1120 815 C 1120 731.66666666667 1102.33333333333 670.33333333333 1067 631 C 1031.66666666667 591 975.66666666667 566.33333333333 899 557 L 897 551 C 979 551 1041.66666666667 536.66666666667 1085 508 C 1185 511.33333333333 1263 526.33333333333 1319 553 C 1283 600.33333333333 1258 641 1244 675 C 1230 708.33333333333 1223 740 1223 770 C 1223 827.33333333333 1241.33333333333 872.33333333333 1278 905 C 1314.66666666667 937.66666666667 1363 954 1423 954 C 1479.66666666667 954 1526.66666666667 937.33333333333 1564 904 C 1601.33333333333 870.66666666667 1620 826 1620 770 C 1620 716 1608.66666666667 669.33333333333 1586 630 C 1563.33333333333 590 1534.33333333333 554 1499 522 C 1571.66666666667 424 1608 340 1608 270 C 1608 215.33333333333 1590.66666666667 164 1556 116 C 1521.33333333333 67.33333333333 1471.66666666667 27.33333333333 1407 -4 L 1321 129 C 1377.66666666667 161 1415.33333333333 188.66666666667 1434 212 C 1452.66666666667 235.33333333333 1462 261 1462 289 C 1462 327 1437.66666666667 378.66666666667 1389 444 C 1307 413.33333333333 1234.33333333333 393 1171 383 C 1177 359 1180 336.33333333333 1180 315 C 1180 207.66666666667 1138.66666666667 124.33333333333 1056 65 C 973.33333333333 5 859 -25 713 -25 C 585 -25 474 2.66666666667 380 58 C 285.33333333333 113.33333333333 212.33333333333 194.66666666667 161 302 C 109.66666666667 408.66666666667 84 536 84 684 C 84 834 110.33333333333 963 163 1071 C 215.66666666667 1179 290.66666666667 1261.33333333333 388 1318 C 484.66666666667 1374.66666666667 597 1403 725 1403 C 907 1403 1062.66666666667 1353 1192 1253 L 1104 1124 C 1049.33333333333 1166.66666666667 992.66666666667 1198 934 1218 C 875.33333333333 1237.33333333333 808.33333333333 1247 733 1247 C 581.66666666667 1247 461 1198 371 1100 C 281 1002 236 864.66666666667 236 688 C 236 510 276.66666666667 374 358 280 C 438.66666666667 186 555 139 707 139 C 809.66666666667 139 887.33333333333 155.66666666667 940 189 C 992 222.33333333333 1018 270 1018 332 C 1018 376.66666666667 1008.66666666667 409.33333333333 990 430 C 971.33333333333 450.66666666667 938.66666666667 465 892 473 C 845.33333333333 481 759 485 633 485 L 631 631 Z M 1358 764 C 1358 737.33333333333 1363.66666666667 713.33333333333 1375 692 C 1386.33333333333 670 1401.66666666667 646.33333333333 1421 621 C 1466.33333333333 671 1489 718.66666666667 1489 764 C 1489 784 1483 799.33333333333 1471 810 C 1458.33333333333 820 1442.33333333333 825 1423 825 C 1403.66666666667 825 1388 819.33333333333 1376 808 C 1364 796 1358 781.33333333333 1358 764 Z"/>
    <path fill="#000000" stroke="none" transform="matrix(1 0 0 -1 26343 2689)" d="M 702 -4 L 675 -5 C 561.66666666667 -5 463.33333333333 23.33333333333 380 80 C 296 136.66666666667 233.33333333333 217 192 321 C 150 425 129 549.33333333333 129 694 C 129 917.33333333333 172.33333333333 1087.66666666667 259 1205 C 345.66666666667 1321.66666666667 471.66666666667 1380 637 1380 C 771.66666666667 1380 875.66666666667 1340.33333333333 949 1261 C 1022.33333333333 1181.66666666667 1059 1068 1059 920 L 1059 0 L 899 0 L 899 907 C 899 1115 812.33333333333 1219 639 1219 C 521.66666666667 1219 433.33333333333 1175 374 1087 C 314.66666666667 999 285 868.66666666667 285 696 C 285 522 319.33333333333 390.66666666667 388 302 C 456.66666666667 212.66666666667 557.33333333333 168 690 168 L 702 -4 Z"/>
    <path fill="#000000" stroke="none" transform="matrix(1 0 0 -1 27535 2689)" d="M 948 1219 C 927.33333333333 1218.33333333333 907.66666666667 1214.66666666667 889 1208 C 869.66666666667 1200.66666666667 830 1179 770 1143 C 751.33333333333 1130.33333333333 728 1117.33333333333 700 1104 C 692.66666666667 1016.66666666667 664 948.66666666667 614 900 C 564 851.33333333333 493 827 401 827 C 305 827 229 854.66666666667 173 910 C 116.33333333333 965.33333333333 88 1040.33333333333 88 1135 C 88 1231 120.66666666667 1310 186 1372 L 299 1274 C 259.66666666667 1228.66666666667 240 1182.33333333333 240 1135 C 240 1029.66666666667 291 977 393 977 C 475 977 524.33333333333 1009.66666666667 541 1075 C 495 1078.33333333333 458 1092.33333333333 430 1117 C 401.33333333333 1141.66666666667 387 1178.33333333333 387 1227 C 387 1274.33333333333 401 1311 429 1337 C 457 1363 494.33333333333 1376 541 1376 C 583 1376 615.33333333333 1367 638 1349 C 660 1331 676.66666666667 1304 688 1268 C 758.66666666667 1311.33333333333 813.66666666667 1341 853 1357 C 891.66666666667 1372.33333333333 924 1380 950 1380 C 1037.33333333333 1378.66666666667 1103 1347 1147 1285 C 1190.33333333333 1222.33333333333 1212 1125.66666666667 1212 995 C 1212 851 1177.33333333333 746 1108 680 C 1038 613.33333333333 926.66666666667 580 774 580 L 647 580 C 533.66666666667 580 451 574 399 562 C 347 549.33333333333 310 528.33333333333 288 499 C 265.33333333333 469.66666666667 254 425.66666666667 254 367 C 254 312.33333333333 268.66666666667 269.33333333333 298 238 C 326.66666666667 206 367.33333333333 182.66666666667 420 168 C 472.66666666667 152.66666666667 551 145 655 145 C 897 145 1018 213.33333333333 1018 350 C 1018 394 1010.33333333333 429 995 455 L 1149 504 C 1169.66666666667 449.33333333333 1180 394 1180 338 C 1180 100.66666666667 1004.33333333333 -18 653 -18 C 454.33333333333 -18 312 14.66666666667 226 80 C 139.33333333333 145.33333333333 96 244.33333333333 96 377 C 96 461.66666666667 113 528 147 576 C 181 623.33333333333 232.33333333333 657.33333333333 301 678 C 369.66666666667 698.66666666667 485 709 647 709 L 741 709 C 859 709 945 731.33333333333 999 776 C 1052.33333333333 820.66666666667 1079 895 1079 999 C 1079 1145.66666666667 1035.33333333333 1219 948 1219 Z"/>
    <path fill="#000000" stroke="none" transform="matrix(1 0 0 -1 29430 2689)" d="M 764 709 C 876.66666666667 709 960.33333333333 732.33333333333 1015 779 C 1069 825 1096 898.33333333333 1096 999 C 1096 1149.66666666667 1040.66666666667 1225 930 1225 C 805.33333333333 1225 743 1160 743 1030 L 743 862 L 602 862 L 602 1030 C 602 1096 588.33333333333 1145.33333333333 561 1178 C 533.66666666667 1210.66666666667 490 1227 430 1227 C 376.66666666667 1227 334.33333333333 1212 303 1182 C 271.66666666667 1151.33333333333 256 1110.33333333333 256 1059 C 256 1023.66666666667 265 982.33333333333 283 935 C 301 887.66666666667 322 848.33333333333 346 817 L 217 737 C 184.33333333333 781.66666666667 156.66666666667 834.66666666667 134 896 C 111.33333333333 956.66666666667 100 1013.66666666667 100 1067 C 100 1163.66666666667 128.33333333333 1240.33333333333 185 1297 C 241.66666666667 1353.66666666667 316 1382 408 1382 C 540.66666666667 1382 628 1327.66666666667 670 1219 C 687.33333333333 1268.33333333333 720 1307.66666666667 768 1337 C 815.33333333333 1365.66666666667 870 1380 932 1380 C 1030.66666666667 1380 1105.66666666667 1348.66666666667 1157 1286 C 1207.66666666667 1223.33333333333 1233 1126.33333333333 1233 995 C 1233 855.66666666667 1197.33333333333 751.66666666667 1126 683 C 1054 614.33333333333 944.33333333333 580 797 580 L 676 580 C 556.66666666667 580 468 573.33333333333 410 560 C 352 546.66666666667 310 525 284 495 C 257.33333333333 465 244 422.33333333333 244 367 C 244 312.33333333333 258.66666666667 269.33333333333 288 238 C 316.66666666667 206 357.33333333333 182.66666666667 410 168 C 462.66666666667 152.66666666667 541 145 645 145 C 761.66666666667 145 852.66666666667 168.33333333333 918 215 C 983.33333333333 261 1023.33333333333 327.33333333333 1038 414 L 1184 395 L 1180 334 C 1180 222 1240.66666666667 166 1362 166 L 1378 166 L 1397 4 L 1376 2 L 1354 2 C 1235.33333333333 2 1148.66666666667 56.66666666667 1094 166 C 1054.66666666667 105.33333333333 999.33333333333 59.66666666667 928 29 C 856 -2.33333333333 761 -18 643 -18 C 447.66666666667 -18 307.66666666667 14.33333333333 223 79 C 138.33333333333 143 96 242.33333333333 96 377 C 96 461 114.66666666667 527 152 575 C 189.33333333333 622.33333333333 244.33333333333 656.66666666667 317 678 C 389.66666666667 698.66666666667 509.33333333333 709 676 709 L 764 709 Z"/>
    <path fill="#000000" stroke="none" transform="matrix(1 0 0 -1 30835 2689)" d="M 803 709 C 923.66666666667 709 1013 732 1071 778 C 1128.33333333333 824 1157 897.66666666667 1157 999 C 1157 1148.33333333333 1101.66666666667 1223 991 1223 C 867 1223 805 1158 805 1028 L 805 862 L 664 862 L 664 1028 C 664 1094 650.33333333333 1143.33333333333 623 1176 C 595.66666666667 1208.66666666667 552 1225 492 1225 C 438 1225 395.33333333333 1210 364 1180 C 332.66666666667 1149.33333333333 317 1108.33333333333 317 1057 C 317 1023 325.66666666667 983 343 937 C 360.33333333333 891 382 851 408 817 L 279 737 C 243.66666666667 784.33333333333 215.33333333333 838 194 898 C 172.66666666667 958 162 1013.66666666667 162 1065 C 162 1161 190 1237.66666666667 246 1295 C 302 1351.66666666667 376.33333333333 1380 469 1380 C 601.66666666667 1380 689 1325.66666666667 731 1217 C 748.33333333333 1266.33333333333 781 1306 829 1336 C 877 1365.33333333333 932.33333333333 1380 995 1380 C 1091.66666666667 1380 1165.66666666667 1347.33333333333 1217 1282 C 1268.33333333333 1216.66666666667 1294 1121 1294 995 C 1294 855.66666666667 1257 751.66666666667 1183 683 C 1109 614.33333333333 993.33333333333 580 836 580 L 709 580 C 595 580 512 573.66666666667 460 561 C 408 548.33333333333 371 527.66666666667 349 499 C 326.33333333333 469.66666666667 315 425.66666666667 315 367 C 315 312.33333333333 329.66666666667 269.33333333333 359 238 C 387.66666666667 206 428.33333333333 182.66666666667 481 168 C 533.66666666667 152.66666666667 612.33333333333 145 717 145 C 801 145 868 152.33333333333 918 167 C 967.33333333333 181 1006.66666666667 203 1036 233 C 1064.66666666667 262.33333333333 1079 301.33333333333 1079 350 C 1079 392 1071.66666666667 427 1057 455 L 1210 504 C 1230.66666666667 449.33333333333 1241 394 1241 338 C 1241 100.66666666667 1065.66666666667 -18 715 -18 C 516.33333333333 -18 374 14.66666666667 288 80 C 201.33333333333 145.33333333333 158 244.33333333333 158 377 C 158 461.66666666667 175 528 209 576 C 242.33333333333 623.33333333333 293.33333333333 657.33333333333 362 678 C 430.66666666667 698.66666666667 546.33333333333 709 709 709 L 803 709 Z"/>
    <path fill="#000000" stroke="none" transform="matrix(1 0 0 -1 32232 2689)" d="M 340 862 C 266.66666666667 870.66666666667 211 898.33333333333 173 945 C 134.33333333333 991.66666666667 115 1051.33333333333 115 1124 C 115 1204.66666666667 139.66666666667 1267.66666666667 189 1313 C 238.33333333333 1357.66666666667 304.33333333333 1380 387 1380 C 461.66666666667 1380 521 1357 565 1311 C 609 1264.33333333333 631 1201.33333333333 631 1122 C 631 1056.66666666667 603 924.66666666667 547 726 L 456 378 C 441.33333333333 324 434 284.66666666667 434 260 C 434 225.33333333333 448.33333333333 198.66666666667 477 180 C 505 161.33333333333 544.66666666667 152 596 152 C 681.33333333333 152 765.33333333333 196.66666666667 848 286 C 930 374.66666666667 996 486.66666666667 1046 622 C 1095.33333333333 756.66666666667 1120 888 1120 1016 C 1120 1086.66666666667 1107 1139 1081 1173 C 1054.33333333333 1206.33333333333 1010 1223 948 1223 L 752 1223 L 752 1380 L 948 1380 C 1059.33333333333 1380 1141 1349.66666666667 1193 1289 C 1244.33333333333 1228.33333333333 1270 1140 1270 1024 C 1270 858.66666666667 1237.66666666667 694.66666666667 1173 532 C 1108.33333333333 368.66666666667 1023.66666666667 237 919 137 C 814.33333333333 36.33333333333 706 -14 594 -14 C 502.66666666667 -14 426 8.66666666667 364 54 C 301.33333333333 98.66666666667 270 157 270 229 C 270 272.33333333333 288.66666666667 360.33333333333 326 493 L 399 755 C 433.66666666667 876.33333333333 456.33333333333 960 467 1006 C 477.66666666667 1052 483 1088.66666666667 483 1116 C 483 1149.33333333333 473.66666666667 1175.66666666667 455 1195 C 436.33333333333 1213.66666666667 408.33333333333 1223 371 1223 C 341.66666666667 1223 317 1214.33333333333 297 1197 C 276.33333333333 1179.66666666667 266 1155.33333333333 266 1124 C 266 1094.66666666667 274.66666666667 1070.66666666667 292 1052 C 308.66666666667 1032.66666666667 335.66666666667 1019.33333333333 373 1012 L 340 862 Z"/>
    <path fill="#000000" stroke="none" transform="matrix(1 0 0 -1 33610 2689)" d="M 815 145 C 915.66666666667 157.66666666667 992.33333333333 208.66666666667 1045 298 C 1097.66666666667 386.66666666667 1124 506.33333333333 1124 657 C 1124 851 1087.33333333333 993.33333333333 1014 1084 C 940.66666666667 1174 821 1219 655 1219 C 533.66666666667 1219 436.66666666667 1196 364 1150 C 290.66666666667 1104 254 1041 254 961 C 254 924.33333333333 262.33333333333 888.66666666667 279 854 C 321 887.33333333333 363.66666666667 912.33333333333 407 929 C 449.66666666667 945.66666666667 497 954 549 954 C 621.66666666667 954 677 934.66666666667 715 896 C 753 856.66666666667 772 801 772 729 C 772 662.33333333333 752 611 712 575 C 671.33333333333 538.33333333333 615.66666666667 520 545 520 C 462.33333333333 520 375 548.66666666667 283 606 C 257 558.66666666667 244 509.66666666667 244 459 C 244 358.33333333333 274.33333333333 281 335 227 C 395.66666666667 172.33333333333 488.66666666667 145 614 145 L 606 -18 C 509.33333333333 -18 420.33333333333 1.66666666667 339 41 C 257 79.66666666667 196 133.33333333333 156 202 C 116 270 96 350.66666666667 96 444 C 96 540.66666666667 124.66666666667 633 182 721 C 128.66666666667 803.66666666667 102 886.33333333333 102 969 C 102 1050.33333333333 123.33333333333 1121 166 1181 C 208 1241 272.66666666667 1288.66666666667 360 1324 C 446.66666666667 1358.66666666667 545.66666666667 1376 657 1376 C 862.33333333333 1376 1017.33333333333 1315 1122 1193 C 1226 1071 1278 891 1278 653 C 1278 445 1238.33333333333 282.33333333333 1159 165 C 1079.66666666667 47.66666666667 968.33333333333 -13.33333333333 825 -18 L 815 145 Z M 539 811 C 475.66666666667 811 414.66666666667 783 356 727 C 412.66666666667 685 472.33333333333 664 535 664 C 559.66666666667 664 581.66666666667 669.33333333333 601 680 C 619.66666666667 690.66666666667 629 709.66666666667 629 737 C 629 760.33333333333 621.33333333333 778.66666666667 606 792 C 590.66666666667 804.66666666667 568.33333333333 811 539 811 Z"/>
    <path fill="#000000" stroke="none" transform="matrix(1 0 0 -1 35003 2689)" d="M 1264 1255 C 1159.33333333333 1198.33333333333 1074 1142.33333333333 1008 1087 C 941.33333333333 1031 879.66666666667 965 823 889 C 873 908.33333333333 919.66666666667 918 963 918 C 1057.66666666667 918 1131 882.66666666667 1183 812 C 1234.33333333333 741.33333333333 1260 642 1260 514 C 1260 406 1235.33333333333 311.33333333333 1186 230 C 1136 148.66666666667 1066.66666666667 86.33333333333 978 43 C 888.66666666667 -1 790 -23 682 -23 C 560.66666666667 -23 452.66666666667 2.33333333333 358 53 C 262.66666666667 103.66666666667 191 173.33333333333 143 262 C 94.33333333333 350 70 453.66666666667 70 573 C 70 671.66666666667 86 756.66666666667 118 828 C 150 898.66666666667 198.66666666667 953.66666666667 264 993 C 328.66666666667 1031.66666666667 403.66666666667 1051 489 1051 L 489 891 C 401 891 334.66666666667 863.66666666667 290 809 C 245.33333333333 753.66666666667 223 675 223 573 C 223 437 262.66666666667 331 342 255 C 421.33333333333 179 533.33333333333 141 678 141 C 758 141 830.66666666667 156.66666666667 896 188 C 961.33333333333 218.66666666667 1012.66666666667 262.66666666667 1050 320 C 1087.33333333333 377.33333333333 1106 442.66666666667 1106 516 C 1106 604 1090.66666666667 669.33333333333 1060 712 C 1029.33333333333 754.66666666667 982 776 918 776 C 791.33333333333 776 697 718 635 602 L 502 694 C 646 918.66666666667 801.66666666667 1092 969 1214 L 121 1214 L 147 1364 L 1229 1364 L 1264 1255 Z"/>
    <path fill="#000000" stroke="none" transform="matrix(1 0 0 -1 36353 2689)" d="M 377 778 C 298.33333333333 796.66666666667 239.66666666667 831 201 881 C 162.33333333333 930.33333333333 143 992.33333333333 143 1067 C 143 1125 159.33333333333 1176.66666666667 192 1222 C 224 1267.33333333333 271.66666666667 1304 335 1332 C 398.33333333333 1360 463.33333333333 1374 530 1374 C 648.66666666667 1374 741.33333333333 1343.33333333333 808 1282 C 874 1220.66666666667 907 1134.66666666667 907 1024 C 907 966 897 916.33333333333 877 875 C 857 833 824.66666666667 794.33333333333 780 759 C 734.66666666667 723.66666666667 662.33333333333 681.66666666667 563 633 C 453.66666666667 579.66666666667 383.33333333333 541.66666666667 352 519 C 320 495.66666666667 296.33333333333 471 281 445 C 265.66666666667 419 258 388 258 352 C 258 286 280.66666666667 234.66666666667 326 198 C 370.66666666667 161.33333333333 432.66666666667 143 512 143 C 591.33333333333 143 655.66666666667 156.66666666667 705 184 C 754.33333333333 210.66666666667 793.33333333333 251 822 305 C 850 359 868.33333333333 425.33333333333 877 504 L 1010 477 C 1002.66666666667 430.33333333333 999 389.33333333333 999 354 C 999 227.33333333333 1068 164 1206 164 L 1227 2 L 1197 1 C 1061.66666666667 1 967.66666666667 57.33333333333 915 170 C 877.66666666667 111.33333333333 825.66666666667 65.33333333333 759 32 C 692.33333333333 -1.33333333333 612 -18 518 -18 C 436.66666666667 -18 363.66666666667 -2.33333333333 299 29 C 233.66666666667 59.66666666667 185.33333333333 102 154 156 C 122 210 106 274 106 348 C 106 405.33333333333 118 455.33333333333 142 498 C 165.33333333333 540 201.66666666667 579 251 615 C 299.66666666667 650.33333333333 395 700.66666666667 537 766 C 620.33333333333 804.66666666667 678.33333333333 843.66666666667 711 883 C 743.66666666667 922.33333333333 760 972.66666666667 760 1034 C 760 1094.66666666667 739.66666666667 1142 699 1176 C 657.66666666667 1210 602 1227 532 1227 C 467.33333333333 1227 412.66666666667 1211.33333333333 368 1180 C 323.33333333333 1148 301 1109 301 1063 C 301 1021 311 989 331 967 C 351 944.33333333333 380.66666666667 928 420 918 L 377 778 Z"/>
    <path fill="#000000" stroke="none" transform="matrix(1 0 0 -1 38164 2689)" d="M 727 1214 C 677.66666666667 1211.33333333333 635 1194 599 1162 C 562.33333333333 1130 538 1088 526 1036 C 570.66666666667 1050 616.66666666667 1057 664 1057 C 747.33333333333 1057 814.33333333333 1037 865 997 C 915 956.33333333333 940 902 940 834 C 940 794 930.33333333333 756.66666666667 911 722 C 891 686.66666666667 863.33333333333 659 828 639 C 792.66666666667 618.33333333333 750.66666666667 608 702 608 C 632.66666666667 608 572 627.66666666667 520 667 C 468 706.33333333333 430.66666666667 761 408 831 C 306.66666666667 749 256 644 256 516 C 256 438.66666666667 274 371.33333333333 310 314 C 345.33333333333 256.66666666667 395.33333333333 213.33333333333 460 184 C 524.66666666667 154 597.33333333333 139 678 139 C 745.33333333333 139 808 153.66666666667 866 183 C 923.33333333333 212.33333333333 969.33333333333 254.33333333333 1004 309 C 1038 363 1055.66666666667 426 1057 498 C 1057 524.66666666667 1052.33333333333 556.66666666667 1043 594 C 1033 631.33333333333 1022 662 1010 686 L 1137 737 C 1176.33333333333 665 1196 583.33333333333 1196 492 C 1196 396 1174.33333333333 309.66666666667 1131 233 C 1087.66666666667 155.66666666667 1025 93.66666666667 943 47 C 861 0.33333333333 770.66666666667 -23 672 -23 C 569.33333333333 -23 475 -0.66666666667 389 44 C 303 88.66666666667 235.66666666667 151.66666666667 187 233 C 137.66666666667 314.33333333333 113 408.66666666667 113 516 C 113 610.66666666667 136 697.66666666667 182 777 C 227.33333333333 856.33333333333 295 922.33333333333 385 975 L 385 993 C 385 1076.33333333333 411 1150 463 1214 L 84 1214 L 117 1364 L 1169 1364 L 1135 1214 L 727 1214 Z M 659 924 C 617.66666666667 924 574.66666666667 915.66666666667 530 899 C 542 857.66666666667 563.66666666667 825 595 801 C 626.33333333333 776.33333333333 660.66666666667 764 698 764 C 726 764 748 771 764 785 C 780 799 788 817.33333333333 788 840 C 788 865.33333333333 776.66666666667 885.66666666667 754 901 C 730.66666666667 916.33333333333 699 924 659 924 Z"/>
    <path fill="#000000" stroke="none" transform="matrix(1 0 0 -1 39446 2689)" d="M 57 1346 C 107 1366 159.66666666667 1376 215 1376 C 285 1376 341 1353 383 1307 C 425 1261 446 1199.33333333333 446 1122 C 446 1054 418.33333333333 922 363 726 L 272 378 C 257.33333333333 324 250 284.66666666667 250 260 C 250 225.33333333333 264.33333333333 198.66666666667 293 180 C 321 161.33333333333 360.66666666667 152 412 152 C 500 152 585.66666666667 193.66666666667 669 277 C 752.33333333333 359.66666666667 821 470 875 608 C 929 745.33333333333 956 881.33333333333 956 1016 C 956 1086.66666666667 943 1139 917 1173 C 890.33333333333 1206.33333333333 846 1223 784 1223 L 567 1223 L 567 1380 L 784 1380 C 895.33333333333 1380 977 1349.66666666667 1029 1289 C 1080.33333333333 1228.33333333333 1106 1140 1106 1024 C 1106 860.66666666667 1073.66666666667 697 1009 533 C 943.66666666667 368.33333333333 857 236 749 136 C 640.33333333333 36 527.33333333333 -14 410 -14 C 318.66666666667 -14 242 8.66666666667 180 54 C 117.33333333333 98.66666666667 86 157 86 229 C 86 272.33333333333 104.66666666667 360.33333333333 142 493 L 214 756 C 268 944 295 1066 295 1122 C 295 1156.66666666667 285.33333333333 1181.33333333333 266 1196 C 246.66666666667 1210 223.66666666667 1217 197 1217 C 170.33333333333 1217 141.66666666667 1210.66666666667 111 1198 L 57 1346 Z"/>
    <path fill="#000000" stroke="none" transform="matrix(1 0 0 -1 40650 2689)" d="M 827 827 C 846.33333333333 869.66666666667 856 915.66666666667 856 965 C 856 1043.66666666667 833.66666666667 1105.66666666667 789 1151 C 743.66666666667 1196.33333333333 680.66666666667 1219 600 1219 C 479.33333333333 1219 386.33333333333 1176 321 1090 C 255.66666666667 1004 223 881.66666666667 223 723 C 223 623.66666666667 245 510.33333333333 289 383 C 333 255.66666666667 387 149 451 63 L 313 -31 C 241.66666666667 69.66666666667 183.66666666667 190.66666666667 139 332 C 94.33333333333 472.66666666667 72 603 72 723 C 72 924.33333333333 118.33333333333 1084.33333333333 211 1203 C 303.66666666667 1321 429.33333333333 1380 588 1380 C 670 1380 742.33333333333 1363.66666666667 805 1331 C 867 1297.66666666667 915.33333333333 1249.33333333333 950 1186 C 984 1122.66666666667 1001 1046 1001 956 C 1001 834 963.66666666667 733 889 653 L 887 606 L 887 563 C 887 440.33333333333 893.66666666667 353 907 301 C 920.33333333333 249 941.66666666667 210 971 184 C 1000.33333333333 158 1040.66666666667 145 1092 145 C 1165.33333333333 145 1222.66666666667 189.33333333333 1264 278 C 1304.66666666667 366 1325 494.66666666667 1325 664 C 1325 752 1316 830 1298 898 C 1280 965.33333333333 1258.66666666667 1024.33333333333 1234 1075 C 1208.66666666667 1125.66666666667 1182.33333333333 1168.33333333333 1155 1203 C 1127 1237.66666666667 1103.66666666667 1266 1085 1288 L 1202 1389 C 1297.33333333333 1286.33333333333 1367.33333333333 1175.33333333333 1412 1056 C 1456.66666666667 936 1479 805.33333333333 1479 664 C 1479 447.33333333333 1445.66666666667 280 1379 162 C 1312.33333333333 43.33333333333 1220 -16 1102 -16 C 982.66666666667 -16 894 22.66666666667 836 100 C 777.33333333333 177.33333333333 748 294.33333333333 748 451 L 752 553 C 716.66666666667 539 674.33333333333 532 625 532 C 548.33333333333 532 488.66666666667 552.66666666667 446 594 C 402.66666666667 634.66666666667 381 690.66666666667 381 762 C 381 824 401.33333333333 874.33333333333 442 913 C 482 951.66666666667 534.66666666667 971 600 971 C 649.33333333333 971 693.33333333333 958 732 932 C 770.66666666667 905.33333333333 802.33333333333 870.33333333333 827 827 Z M 618 684 C 652.66666666667 684 688.33333333333 694.33333333333 725 715 C 704.33333333333 785.66666666667 663.33333333333 821 602 821 C 578.66666666667 821 561.33333333333 814.33333333333 550 801 C 538 787.66666666667 532 773.33333333333 532 758 C 532 708.66666666667 560.66666666667 684 618 684 Z"/>
    <path fill="#000000" stroke="none" transform="matrix(1 0 0 -1 42225 2689)" d="M 897 283 C 897 307.66666666667 893.66666666667 334 887 362 C 779 362 697.66666666667 374.66666666667 643 400 C 588.33333333333 425.33333333333 548.66666666667 465.33333333333 524 520 C 499.33333333333 574.66666666667 487 643.66666666667 487 727 L 487 942 L 653 954 L 653 745 C 653 681.66666666667 658.66666666667 632.66666666667 670 598 C 681.33333333333 563.33333333333 699.33333333333 538 724 522 C 748.66666666667 506 791.33333333333 498 852 498 C 837.33333333333 539.33333333333 824.33333333333 581 813 623 C 801 664.33333333333 795 705 795 745 C 795 815.66666666667 818.66666666667 870.33333333333 866 909 C 912.66666666667 947.66666666667 975.66666666667 967 1055 967 C 1101.66666666667 967 1144.66666666667 956.33333333333 1184 935 C 1223.33333333333 913.66666666667 1254.33333333333 884 1277 846 C 1299.66666666667 808 1311 763.66666666667 1311 713 C 1311 638.33333333333 1289 572 1245 514 C 1200.33333333333 455.33333333333 1132 411 1040 381 C 1050 329 1055 293.33333333333 1055 274 C 1055 182.66666666667 1019 111 947 59 C 875 6.33333333333 777.66666666667 -20 655 -20 C 537.66666666667 -20 436 9.33333333333 350 68 C 263.33333333333 126 197 208 151 314 C 105 419.33333333333 82 540.66666666667 82 678 C 82 826.66666666667 108 954.33333333333 160 1061 C 212 1167 286.66666666667 1247.66666666667 384 1303 C 481.33333333333 1358.33333333333 595.66666666667 1386 727 1386 C 830.33333333333 1386 929.66666666667 1364.66666666667 1025 1322 C 1119.66666666667 1278.66666666667 1204 1216.33333333333 1278 1135 L 1171 1036 C 1109.66666666667 1102.66666666667 1042 1152.66666666667 968 1186 C 893.33333333333 1218.66666666667 817.66666666667 1235 741 1235 C 579 1235 453.66666666667 1186 365 1088 C 275.66666666667 989.33333333333 231 853.33333333333 231 680 C 231 574 247.66666666667 480 281 398 C 314.33333333333 315.33333333333 362.33333333333 251.66666666667 425 207 C 487 161.66666666667 561 139 647 139 C 726.33333333333 139 788 152 832 178 C 875.33333333333 203.33333333333 897 238.33333333333 897 283 Z M 950 725 C 950 698.33333333333 954.33333333333 668.66666666667 963 636 C 971.66666666667 603.33333333333 983.66666666667 563.33333333333 999 516 C 1047.66666666667 534.66666666667 1086.33333333333 562 1115 598 C 1143 633.33333333333 1157 671.66666666667 1157 713 C 1157 786.33333333333 1124.33333333333 823 1059 823 C 1025 823 998.33333333333 814.66666666667 979 798 C 959.66666666667 780.66666666667 950 756.33333333333 950 725 Z"/>
    <path fill="#000000" stroke="none" transform="matrix(1 0 0 -1 43626 2689)" d="M 373 535 L 395 682 L 594 682 C 569.33333333333 722.66666666667 557 767.66666666667 557 817 C 557 896.33333333333 583.66666666667 960 637 1008 C 689.66666666667 1055.33333333333 760 1079 848 1079 C 961.33333333333 1079 1047.33333333333 1037 1106 953 C 1164.66666666667 868.33333333333 1194 743.33333333333 1194 578 C 1194 389.33333333333 1147.33333333333 243 1054 139 C 960.66666666667 34.33333333333 830.66666666667 -18 664 -18 C 552 -18 454 10 370 66 C 285.33333333333 121.33333333333 220 202.33333333333 174 309 C 127.33333333333 415 104 542 104 690 C 104 830.66666666667 130.66666666667 954 184 1060 C 237.33333333333 1165.33333333333 317.33333333333 1248.66666666667 424 1310 C 530.66666666667 1370.66666666667 650 1401 782 1401 C 924.66666666667 1401 1053 1365.66666666667 1167 1295 C 1280.33333333333 1224.33333333333 1364.66666666667 1126.33333333333 1420 1001 C 1475.33333333333 875.66666666667 1503 727.66666666667 1503 557 C 1503 465.66666666667 1492 368.33333333333 1470 265 C 1448 161 1418.66666666667 69.33333333333 1382 -10 L 1233 51 C 1309.66666666667 199.66666666667 1348 368.33333333333 1348 557 C 1348 700.33333333333 1327 823.33333333333 1285 926 C 1242.33333333333 1028 1177.33333333333 1107 1090 1163 C 1002.66666666667 1219 900.66666666667 1247 784 1247 C 678.66666666667 1247 585 1223.33333333333 503 1176 C 420.33333333333 1128.66666666667 358.66666666667 1064 318 982 C 276.66666666667 899.33333333333 256 802 256 690 C 256 576.66666666667 272.66666666667 478.66666666667 306 396 C 339.33333333333 313.33333333333 387 250.66666666667 449 208 C 510.33333333333 164.66666666667 580.33333333333 143 659 143 C 783.66666666667 143 878.66666666667 181 944 257 C 1009.33333333333 333 1042 440 1042 578 C 1042 815.33333333333 978.66666666667 934 852 934 C 806.66666666667 934 771.33333333333 923.33333333333 746 902 C 720 880.66666666667 707 849 707 807 C 707 777 713.66666666667 750.66666666667 727 728 C 739.66666666667 704.66666666667 756.66666666667 689.33333333333 778 682 L 909 682 L 885 535 L 373 535 Z"/>
    <path fill="#000000" stroke="none" transform="matrix(1 0 0 -1 45232 2689)" d="M 96 0 L 96 1059 C 96 1171 116 1252.66666666667 156 1304 C 195.33333333333 1354.66666666667 258 1380 344 1380 C 400.66666666667 1380 464.66666666667 1342.66666666667 536 1268 L 596 1204 C 632 1249.33333333333 671 1284.33333333333 713 1309 C 755 1333.66666666667 796.66666666667 1346 838 1346 C 884.66666666667 1346 924.33333333333 1336.33333333333 957 1317 C 989.66666666667 1297.66666666667 1014.66666666667 1271.66666666667 1032 1239 C 1048.66666666667 1206.33333333333 1057 1170 1057 1130 C 1057 1056 1037.66666666667 999 999 959 C 960.33333333333 919 906 899 836 899 C 766.66666666667 899 698.33333333333 930.33333333333 631 993 C 591 895.66666666667 571 783 571 655 C 571 495 602 370.33333333333 664 281 C 726 191.66666666667 814 147 928 147 C 985.33333333333 147 1038 162 1086 192 C 1134 221.33333333333 1172 263.66666666667 1200 319 C 1227.33333333333 373.66666666667 1241 438.66666666667 1241 514 C 1241 574.66666666667 1224.66666666667 669 1192 797 C 1159.33333333333 925 1143 1018.33333333333 1143 1077 C 1143 1167.66666666667 1167.66666666667 1238.33333333333 1217 1289 C 1265.66666666667 1339 1332.33333333333 1364 1417 1364 L 1417 1204 L 1401 1204 C 1358.33333333333 1204 1327.66666666667 1193.33333333333 1309 1172 C 1289.66666666667 1150.66666666667 1280 1117.66666666667 1280 1073 C 1280 1023 1285.33333333333 974.33333333333 1296 927 C 1306.66666666667 879 1318.33333333333 831.66666666667 1331 785 C 1343.66666666667 738.33333333333 1355.33333333333 692 1366 646 C 1376.66666666667 600 1382 554 1382 508 C 1382 401.33333333333 1363 308.33333333333 1325 229 C 1286.33333333333 149.66666666667 1232.66666666667 89 1164 47 C 1095.33333333333 5 1016.66666666667 -16 928 -16 C 828 -16 740.33333333333 10.66666666667 665 64 C 589 117.33333333333 530.66666666667 195 490 297 C 448.66666666667 398.33333333333 428 517.66666666667 428 655 C 428 819.66666666667 461.33333333333 967.33333333333 528 1098 C 486.66666666667 1143.33333333333 453.33333333333 1175 428 1193 C 402.66666666667 1210.33333333333 378.66666666667 1219 356 1219 C 280 1219 242 1165.66666666667 242 1059 L 242 0 L 96 0 Z M 836 1194 C 785.33333333333 1194 738 1165.33333333333 694 1108 C 740.66666666667 1071.33333333333 785.66666666667 1053 829 1053 C 861 1053 884 1060.66666666667 898 1076 C 911.33333333333 1091.33333333333 918 1108 918 1126 C 918 1146.66666666667 910.33333333333 1163.33333333333 895 1176 C 879.66666666667 1188 860 1194 836 1194 Z"/>
</svg>
