<svg width="54149" height="3789" viewBox="0 0 54149 3789" xmlns="http://www.w3.org/2000/svg">
    <defs/>
    <path fill="#000000" stroke="none" transform="matrix(1 0 0 -1 0 2689)" d="M 209 358 C 209 392 212 420.33333333333 218 443 C 223.33333333333 465 229.66666666667 484.33333333333 237 501 C 243.66666666667 517 250 532 256 546 C 261.33333333333 559.33333333333 264 574.66666666667 264 592 C 264 610.66666666667 254.66666666667 625 236 635 C 217.33333333333 644.33333333333 183.66666666667 649 135 649 L 152 768 C 236 760 297 741.33333333333 335 712 C 372.33333333333 682.66666666667 391 640.66666666667 391 586 C 391 558.66666666667 387.33333333333 534 380 512 C 372 489.33333333333 363.66666666667 468.66666666667 355 450 C 345.66666666667 430.66666666667 337.33333333333 413.33333333333 330 398 C 322.66666666667 382 319 367.33333333333 319 354 C 319 325.33333333333 343 311 391 311 C 415.66666666667 311 443 316 473 326 C 502.33333333333 335.33333333333 527 346.66666666667 547 360 L 547 864 C 466.33333333333 889.33333333333 400 935.33333333333 348 1002 C 296 1068 270 1142.33333333333 270 1225 C 270 1301 293 1372 339 1438 C 384.33333333333 1503.33333333333 449.66666666667 1556.66666666667 535 1598 C 619.66666666667 1638.66666666667 707 1659 797 1659 C 885.66666666667 1659 971.66666666667 1638.66666666667 1055 1598 C 1137.66666666667 1557.33333333333 1201.66666666667 1504.66666666667 1247 1440 C 1292.33333333333 1375.33333333333 1315 1303.66666666667 1315 1225 C 1315 1141 1288 1065.66666666667 1234 999 C 1179.33333333333 932.33333333333 1111.33333333333 885.33333333333 1030 858 L 1030 354 C 1053.33333333333 340 1078.66666666667 329.33333333333 1106 322 C 1133.33333333333 314.66666666667 1156.66666666667 311 1176 311 C 1223.33333333333 311 1247 325.33333333333 1247 354 C 1247 367.33333333333 1242.33333333333 382 1233 398 C 1223 413.33333333333 1212.33333333333 430.66666666667 1201 450 C 1189.66666666667 468.66666666667 1179.33333333333 489.33333333333 1170 512 C 1160 534 1155 558.66666666667 1155 586 C 1155 643.33333333333 1173.66666666667 686.33333333333 1211 715 C 1248.33333333333 743.66666666667 1309.66666666667 761.33333333333 1395 768 L 1411 649 C 1363.66666666667 649 1330.33333333333 644.33333333333 1311 635 C 1291.66666666667 625.66666666667 1282 611.33333333333 1282 592 C 1282 574.66666666667 1286 559.33333333333 1294 546 C 1302 532 1310.66666666667 517 1320 501 C 1329.33333333333 484.33333333333 1338 465 1346 443 C 1354 420.33333333333 1358 392 1358 358 C 1358 311.33333333333 1341.66666666667 274.66666666667 1309 248 C 1275.66666666667 220.66666666667 1232 207 1178 207 C 1149.33333333333 207 1121 211 1093 219 C 1064.33333333333 227 1043.33333333333 237.33333333333 1030 250 L 1030 0 L 547 0 L 547 256 C 527 242 502 230.33333333333 472 221 C 442 211.66666666667 414.33333333333 207 389 207 C 335 207 291.66666666667 220.66666666667 259 248 C 225.66666666667 275.33333333333 209 312 209 358 Z M 680 414 L 897 414 L 897 1372 L 1030 1372 L 1030 979 C 1072 999.66666666667 1106 1033.66666666667 1132 1081 C 1158 1127.66666666667 1171 1175.66666666667 1171 1225 C 1171 1285.66666666667 1154.66666666667 1339.33333333333 1122 1386 C 1088.66666666667 1432 1043.33333333333 1467.66666666667 986 1493 C 928.66666666667 1517.66666666667 865.66666666667 1530 797 1530 C 727 1530 662.33333333333 1517.33333333333 603 1492 C 543.66666666667 1466 497.33333333333 1430 464 1384 C 430.66666666667 1338 414 1285 414 1225 C 414 1175.66666666667 426.66666666667 1127.66666666667 452 1081 C 477.33333333333 1034.33333333333 509 1003 547 987 L 547 1372 L 680 1372 L 680 414 Z M 897 129 L 897 295 L 680 295 L 680 129 L 897 129 Z"/>
    <path fill="#000000" stroke="none" transform="matrix(1 0 0 -1 1546 2689)" d="M 225 1638 L 1659 1638 L 1659 0 L 225 0 L 225 1638 Z M 369 1509 L 369 129 L 1516 129 L 1516 1509 L 369 1509 Z M 1434 989 C 1410.66666666667 971.66666666667 1386.66666666667 958 1362 948 L 1362 739 L 1239 739 L 1239 909 C 1162.33333333333 894.33333333333 1069.66666666667 887 961 887 C 1011 875 1067.66666666667 815.33333333333 1131 708 C 1194.33333333333 600 1253 466.33333333333 1307 307 L 1167 307 C 1125.66666666667 420.33333333333 1083.66666666667 520 1041 606 C 998.33333333333 692 966 738.33333333333 944 745 C 918 735 881 685.33333333333 833 596 C 785 506.66666666667 743 410.33333333333 707 307 L 578 307 C 628 459 685.66666666667 590.66666666667 751 702 C 816.33333333333 812.66666666667 874.66666666667 874.33333333333 926 887 C 816 887 722.33333333333 894.33333333333 645 909 L 645 739 L 522 739 L 522 948 C 496 958.66666666667 472.33333333333 972.33333333333 451 989 L 451 1130 C 525 1084.66666666667 623 1052.66666666667 745 1034 C 734.33333333333 1064.66666666667 729 1100.33333333333 729 1141 C 729 1214.33333333333 749 1274 789 1320 C 828.33333333333 1366 878.66666666667 1389 940 1389 C 1002.66666666667 1389 1054.33333333333 1366 1095 1320 C 1135 1274 1155 1214.33333333333 1155 1141 C 1155 1100.33333333333 1149 1064.66666666667 1137 1034 C 1261.66666666667 1053.33333333333 1360.66666666667 1085.33333333333 1434 1130 L 1434 989 Z M 997 580 L 997 301 L 874 301 L 874 580 L 997 580 Z M 856 1141 C 856 1061.66666666667 884 1022 940 1022 C 996 1022 1024 1061.66666666667 1024 1141 C 1024 1177.66666666667 1017 1206.66666666667 1003 1228 C 989 1249.33333333333 968 1260 940 1260 C 912 1260 891 1249.33333333333 877 1228 C 863 1206.66666666667 856 1177.66666666667 856 1141 Z"/>
    <path fill="#000000" stroke="none" transform="matrix(1 0 0 -1 3430 2689)" d="M 723 178 L 369 178 L 369 0 L 225 0 L 225 1638 L 1362 1638 L 1362 0 L 1219 0 L 1219 178 L 866 178 L 866 0 L 723 0 L 723 178 Z M 369 1208 C 459.66666666667 1205.33333333333 537 1172.33333333333 601 1109 C 664.33333333333 1045 696 967.66666666667 696 877 C 696 785.66666666667 664 708.66666666667 600 646 C 536 582.66666666667 459 550.33333333333 369 549 L 369 307 L 1219 307 L 1219 537 C 1128.33333333333 538.33333333333 1051 570.66666666667 987 634 C 923 696.66666666667 891 773.33333333333 891 864 C 891 955.33333333333 923 1033 987 1097 C 1051 1160.33333333333 1128.33333333333 1193.33333333333 1219 1196 L 1219 1509 L 1120 1509 C 1109.33333333333 1425.66666666667 1072 1357.33333333333 1008 1304 C 943.33333333333 1250 868.66666666667 1223 784 1223 C 698 1223 623 1250.33333333333 559 1305 C 495 1359.66666666667 458.33333333333 1427.66666666667 449 1509 L 369 1509 L 369 1208 Z M 1018 866 C 1018 806 1037.66666666667 756 1077 716 C 1116.33333333333 675.33333333333 1163.66666666667 654.33333333333 1219 653 L 1219 1079 C 1163.66666666667 1076.33333333333 1116.33333333333 1055 1077 1015 C 1037.66666666667 974.33333333333 1018 924.66666666667 1018 866 Z M 569 879 C 569 933.66666666667 549.66666666667 982 511 1024 C 472.33333333333 1065.33333333333 425 1088 369 1092 L 369 666 C 422.33333333333 667.33333333333 469 689 509 731 C 549 772.33333333333 569 821.66666666667 569 879 Z M 784 1339 C 832.66666666667 1339 876.66666666667 1355 916 1387 C 955.33333333333 1418.33333333333 980.33333333333 1459 991 1509 L 578 1509 C 587.33333333333 1459 611.66666666667 1418.33333333333 651 1387 C 689.66666666667 1355 734 1339 784 1339 Z"/>
    <path fill="#000000" stroke="none" transform="matrix(1 0 0 -1 5017 2689)" d="M 1225 1593 C 1159 1499 1068.66666666667 1384.33333333333 954 1249 L 1108 1137 L 1108 152 C 1108 108 1092.33333333333 71.66666666667 1061 43 C 1029 14.33333333333 989.33333333333 0 942 0 L 391 0 C 342.33333333333 0 302.66666666667 15 272 45 C 240.66666666667 74.33333333333 225 110 225 152 L 225 737 C 347.66666666667 810.33333333333 525.33333333333 975 758 1231 C 644.66666666667 1327 522.33333333333 1447.66666666667 391 1593 L 496 1679 C 596 1559 713.33333333333 1443.66666666667 848 1333 C 964 1464.33333333333 1054.66666666667 1579.66666666667 1120 1679 L 1225 1593 Z M 965 1075 L 864 1143 C 766 1030.33333333333 672.33333333333 931.33333333333 583 846 C 493 760.66666666667 421.66666666667 705.33333333333 369 680 L 369 176 C 369 157.33333333333 373 145 381 139 C 389 132.33333333333 406.66666666667 129 434 129 L 899 129 C 926.33333333333 129 944.33333333333 132.33333333333 953 139 C 961 145 965 157.33333333333 965 176 L 965 1075 Z"/>
    <path fill="#000000" stroke="none" transform="matrix(1 0 0 -1 6467 2689)" d="M 1110 1473 C 1162 1467.66666666667 1204.33333333333 1446.33333333333 1237 1409 C 1269.66666666667 1371.66666666667 1286 1325.33333333333 1286 1270 C 1286 1208 1264.33333333333 1144 1221 1078 C 1177 1011.33333333333 1120.33333333333 954.33333333333 1051 907 C 1139 826.33333333333 1192 736.33333333333 1210 637 C 1210 574.33333333333 1179.33333333333 491.33333333333 1118 388 C 1056.66666666667 284.66666666667 987 198.33333333333 909 129 L 1008 129 L 1008 0 L 375 0 L 375 129 L 469 129 C 399 191 335.33333333333 269.33333333333 278 364 C 220.66666666667 458.66666666667 184.66666666667 548.33333333333 170 633 C 184.66666666667 729.66666666667 236 819.66666666667 324 903 C 258 946.33333333333 202.66666666667 1001.33333333333 158 1068 C 112.66666666667 1134.66666666667 90 1200 90 1264 C 90 1318.66666666667 106 1364.66666666667 138 1402 C 170 1439.33333333333 212.66666666667 1460.66666666667 266 1466 L 266 1481 L 530 1481 L 530 1925 L 664 1925 L 664 1823 L 672 1823 C 744.66666666667 1823 799.33333333333 1807.33333333333 836 1776 C 872.66666666667 1744.66666666667 891 1702.33333333333 891 1649 C 891 1617 884 1586 870 1556 C 855.33333333333 1525.33333333333 836.33333333333 1500.33333333333 813 1481 L 1110 1481 L 1110 1473 Z M 1073 635 C 1060.33333333333 699 1025.66666666667 759.66666666667 969 817 C 911.66666666667 873.66666666667 842 918 760 950 L 760 145 C 831.33333333333 213.66666666667 897.66666666667 294.66666666667 959 388 C 1019.66666666667 481.33333333333 1057.66666666667 563.66666666667 1073 635 Z M 303 635 C 319 564.33333333333 357.66666666667 482.33333333333 419 389 C 479.66666666667 295 545.33333333333 215.33333333333 616 150 L 616 948 C 537.33333333333 918 469.66666666667 874.66666666667 413 818 C 355.66666666667 761.33333333333 319 700.33333333333 303 635 Z M 270 1343 C 240 1331 225 1305.33333333333 225 1266 C 225 1212 242.33333333333 1160.33333333333 277 1111 C 311.66666666667 1061.66666666667 362 1019.66666666667 428 985 C 438.66666666667 992.33333333333 459 1004 489 1020 C 485.66666666667 1084.66666666667 472.66666666667 1148.33333333333 450 1211 C 427.33333333333 1273.66666666667 399.66666666667 1315.66666666667 367 1337 L 367 1214 L 270 1214 L 270 1343 Z M 1010 1343 C 977.33333333333 1323.66666666667 949.33333333333 1282.66666666667 926 1220 C 902 1156.66666666667 888.33333333333 1090 885 1020 C 902.33333333333 1012.66666666667 921.33333333333 1002.33333333333 942 989 C 1006 1021 1057 1062 1095 1112 C 1132.33333333333 1162 1151 1215.33333333333 1151 1272 C 1151 1312 1136 1338 1106 1350 L 1106 1214 L 1010 1214 L 1010 1343 Z M 772 1640 C 772 1664 763.66666666667 1681 747 1691 C 729.66666666667 1701 702 1706 664 1706 L 664 1495 C 704 1520.33333333333 732 1544.66666666667 748 1568 C 764 1590.66666666667 772 1614.66666666667 772 1640 Z M 502 1352 C 562 1274 600 1178.33333333333 616 1065 L 616 1352 L 502 1352 Z M 760 1067 C 774.66666666667 1181 811.33333333333 1276 870 1352 L 760 1352 L 760 1067 Z"/>
    <path fill="#000000" stroke="none" transform="matrix(1 0 0 -1 7843 2689)" d="M 903 829 L 590 829 L 590 0 L 446 0 L 446 829 L 135 829 L 135 958 L 446 958 L 446 1638 L 590 1638 L 590 958 L 903 958 L 903 829 Z"/>
    <path fill="#000000" stroke="none" transform="matrix(1 0 0 -1 9413 2689)" d="M 766 840 L 774 840 C 774 862 779 887 789 915 C 798.33333333333 942.33333333333 812.33333333333 976 831 1016 C 849.66666666667 1056 955.66666666667 1271 1149 1661 L 1276 1597 L 1245 1540 C 1278.33333333333 1402 1301.33333333333 1290 1314 1204 C 1326.66666666667 1117.33333333333 1333 1044.33333333333 1333 985 C 1333 909 1323.33333333333 821.33333333333 1304 722 C 1284 622 1258.33333333333 525.33333333333 1227 432 C 1284.33333333333 393.33333333333 1313 343.66666666667 1313 283 C 1313 221.66666666667 1291 169.66666666667 1247 127 C 1203 83.66666666667 1143 55.66666666667 1067 43 L 1040 166 C 1082 171.33333333333 1115.66666666667 183.66666666667 1141 203 C 1165.66666666667 221.66666666667 1178 246 1178 276 C 1178 307.33333333333 1164.33333333333 330.66666666667 1137 346 C 1109 361.33333333333 1072 369 1026 369 L 1010 473 L 1075 479 C 1093 479 1110 477 1126 473 C 1148 554.33333333333 1165.33333333333 641.33333333333 1178 734 C 1190 826.66666666667 1196 910.33333333333 1196 985 C 1196 1064.33333333333 1190 1142.33333333333 1178 1219 C 1166.66666666667 1271.66666666667 1161 1327.33333333333 1161 1386 L 1153 1386 L 842 776 L 842 0 L 698 0 L 698 772 L 373 1407 L 365 1407 C 365 1369 362.33333333333 1327 357 1281 C 343 1168.33333333333 336 1069.66666666667 336 985 C 336 905.66666666667 342.66666666667 819 356 725 C 368.66666666667 631 385.33333333333 547 406 473 C 424 477 441.66666666667 479 459 479 L 524 473 L 506 369 C 404.66666666667 369 354 338 354 276 C 354 246 367 221.66666666667 393 203 C 418.33333333333 183.66666666667 452 171.33333333333 494 166 L 467 43 C 390.33333333333 55.66666666667 330.33333333333 83 287 125 C 243 166.33333333333 221 219 221 283 C 221 343 249 392.66666666667 305 432 C 273 528 247.66666666667 626.66666666667 229 728 C 210.33333333333 829.33333333333 201 915 201 985 C 201 1117 230.33333333333 1304 289 1546 L 262 1597 L 389 1661 C 595 1246.33333333333 706 1021.66666666667 722 987 C 737.33333333333 952.33333333333 748.66666666667 924 756 902 C 762.66666666667 880 766 859.33333333333 766 840 Z"/>
    <path fill="#000000" stroke="none" transform="matrix(1 0 0 -1 10947 2689)" d="M 2191 1638 L 2191 492 L 2478 492 L 2478 0 L 1475 0 L 1475 492 L 1761 492 L 1761 993 L 594 993 L 594 492 L 881 492 L 881 0 L 164 0 L 164 492 L 451 492 L 451 993 L 307 993 L 307 1638 L 737 1638 L 737 1384 L 1761 1384 L 1761 1638 L 2191 1638 Z M 737 1122 L 1761 1122 L 1761 1255 L 737 1255 L 737 1122 Z M 1905 492 L 2048 492 L 2048 1255 L 1905 1255 L 1905 492 Z M 2191 129 L 2335 129 L 2335 362 L 2191 362 L 2191 129 Z M 307 129 L 451 129 L 451 362 L 307 362 L 307 129 Z M 594 129 L 737 129 L 737 362 L 594 362 L 594 129 Z M 1618 129 L 1761 129 L 1761 362 L 1618 362 L 1618 129 Z M 1905 129 L 2048 129 L 2048 362 L 1905 362 L 1905 129 Z M 451 1122 L 594 1122 L 594 1255 L 451 1255 L 451 1122 Z M 1905 1384 L 2048 1384 L 2048 1509 L 1905 1509 L 1905 1384 Z M 451 1384 L 594 1384 L 594 1509 L 451 1509 L 451 1384 Z"/>
    <path fill="#000000" stroke="none" transform="matrix(1 0 0 -1 13589 2689)" d="M 1362 674 L 969 674 L 969 803 L 1092 803 L 1092 1116 L 573 1116 L 573 1108 C 611 1086 647 1023 681 919 C 715 814.33333333333 747.66666666667 675 779 501 C 810.33333333333 327 835.33333333333 160 854 0 L 713 0 C 699.66666666667 126.66666666667 678.33333333333 274.33333333333 649 443 C 619 611 589.66666666667 748 561 854 C 532.33333333333 959.33333333333 510.66666666667 1012 496 1012 C 477.33333333333 1012 453.66666666667 962.33333333333 425 863 C 396.33333333333 763.66666666667 368.33333333333 633.66666666667 341 473 C 313 312.33333333333 291.33333333333 154.66666666667 276 0 L 139 0 C 161.66666666667 178 188.66666666667 353.66666666667 220 527 C 250.66666666667 699.66666666667 281.66666666667 834.33333333333 313 931 C 344.33333333333 1027.66666666667 378.66666666667 1086.66666666667 416 1108 L 416 1116 C 362 1118 311.66666666667 1132.66666666667 265 1160 C 217.66666666667 1186.66666666667 180.66666666667 1223.33333333333 154 1270 C 126.66666666667 1316 113 1367.66666666667 113 1425 C 113 1495 132.66666666667 1551.66666666667 172 1595 C 211.33333333333 1637.66666666667 263.33333333333 1659 328 1659 C 386.66666666667 1659 432.33333333333 1647 465 1623 C 497.66666666667 1599 522.66666666667 1561.66666666667 540 1511 C 556.66666666667 1460.33333333333 565 1393.66666666667 565 1311 L 565 1245 L 1092 1245 L 1092 1638 L 1436 1638 L 1436 1509 L 1235 1509 L 1235 803 L 1362 803 L 1362 674 Z M 246 1411 C 246 1359 262.33333333333 1318.33333333333 295 1289 C 327.66666666667 1259.66666666667 370 1245 422 1245 L 422 1311 C 422 1458.33333333333 392.66666666667 1532 334 1532 C 275.33333333333 1532 246 1491.66666666667 246 1411 Z"/>
    <path fill="#000000" stroke="none" transform="matrix(1 0 0 -1 15150 2689)" d="M 2191 0 L 2191 367 C 2191 385 2187 397.33333333333 2179 404 C 2171 410.66666666667 2153.33333333333 414 2126 414 L 2009 414 L 2009 0 L 1866 0 L 1866 414 L 633 414 L 633 0 L 489 0 L 489 414 L 373 414 C 345 414 327 410.66666666667 319 404 C 311 397.33333333333 307 385 307 367 L 307 0 L 164 0 L 164 391 C 164 435 180 471.33333333333 212 500 C 243.33333333333 528.66666666667 282.66666666667 543 330 543 L 489 543 L 489 1124 L 1178 1124 L 1178 1413 L 1051 1286 L 950 1386 L 1249 1686 L 1548 1386 L 1448 1286 L 1321 1413 L 1321 1124 L 2009 1124 L 2009 543 L 2169 543 C 2217.66666666667 543 2257.66666666667 528.33333333333 2289 499 C 2319.66666666667 469 2335 433 2335 391 L 2335 0 L 2191 0 Z M 633 543 L 1866 543 L 1866 995 L 633 995 L 633 543 Z"/>
    <path fill="#000000" stroke="none" transform="matrix(1 0 0 -1 17649 2689)" d="M 1272 1620 C 1248.66666666667 1588 1237 1557.33333333333 1237 1528 C 1237 1500.66666666667 1246.66666666667 1459 1266 1403 C 1284.66666666667 1347 1294 1302.66666666667 1294 1270 C 1294 1192 1274.33333333333 1123 1235 1063 C 1195.66666666667 1003 1140.33333333333 955.33333333333 1069 920 C 997.66666666667 884.66666666667 917 864 827 858 C 829 842.66666666667 831.66666666667 825 835 805 C 838.33333333333 785 840 761 840 733 L 840 0 L 696 0 L 696 727 C 696 768.33333333333 699.66666666667 812 707 858 C 567.66666666667 868 456.66666666667 910.33333333333 374 985 C 291.33333333333 1059 250 1154 250 1270 C 250 1306.66666666667 260 1350.66666666667 280 1402 C 299.33333333333 1453.33333333333 309 1494 309 1524 C 309 1552 297.33333333333 1583.33333333333 274 1618 L 414 1667 C 440 1636.33333333333 453 1593.33333333333 453 1538 C 453 1510.66666666667 443 1468 423 1410 C 403 1352 393 1305.33333333333 393 1270 C 393 1178 424.66666666667 1107.66666666667 488 1059 C 551.33333333333 1009.66666666667 644.66666666667 985 768 985 C 892.66666666667 985 987.66666666667 1010 1053 1060 C 1118.33333333333 1109.33333333333 1151 1179.33333333333 1151 1270 C 1151 1301.33333333333 1141.66666666667 1346.66666666667 1123 1406 C 1103.66666666667 1464.66666666667 1094 1508.66666666667 1094 1538 C 1094 1590.66666666667 1106 1631 1130 1659 L 1272 1620 Z M 764 1358 L 756 1358 C 746.66666666667 1292 723.33333333333 1223.66666666667 686 1153 L 641 1065 L 518 1124 L 698 1462 L 825 1462 L 1006 1124 L 885 1061 L 840 1149 C 795.33333333333 1248.33333333333 770 1318 764 1358 Z M 559 133 L 262 133 L 262 262 L 559 262 L 559 133 Z M 559 399 L 262 399 L 262 528 L 559 528 L 559 399 Z M 1274 399 L 977 399 L 977 528 L 1274 528 L 1274 399 Z M 1274 133 L 977 133 L 977 262 L 1274 262 L 1274 133 Z M 1274 666 L 977 666 L 977 795 L 1274 795 L 1274 666 Z M 559 666 L 262 666 L 262 795 L 559 795 L 559 666 Z"/>
    <path fill="#000000" stroke="none" transform="matrix(1 0 0 -1 19185 2689)" d="M 1085 0 L 164 0 L 164 129 L 553 129 L 553 451 L 328 451 L 328 580 L 553 580 L 553 1141 L 328 1141 L 328 1270 L 553 1270 L 553 1509 L 164 1509 L 164 1638 L 1085 1638 L 1085 1509 L 696 1509 L 696 1270 L 942 1270 L 942 1141 L 696 1141 L 696 580 L 942 580 L 942 451 L 696 451 L 696 129 L 1085 129 L 1085 0 Z"/>
    <path fill="#000000" stroke="none" transform="matrix(1 0 0 -1 20966 2689)" d="M 846 1343 C 872.66666666667 1343 893 1352 907 1370 C 921 1387.33333333333 928 1410 928 1438 C 928 1499.33333333333 901.33333333333 1530 848 1530 L 877 1659 C 933.66666666667 1659 979.66666666667 1642.66666666667 1015 1610 C 1049.66666666667 1576.66666666667 1067 1535 1067 1485 C 1067 1413.66666666667 1035 1351.33333333333 971 1298 C 1011 1284.66666666667 1041.33333333333 1261.33333333333 1062 1228 C 1082 1194 1092 1157.33333333333 1092 1118 C 1092 1058 1072 1009 1032 971 C 991.33333333333 932.33333333333 939.66666666667 913 877 913 L 848 1042 C 884.66666666667 1042 911.66666666667 1051.66666666667 929 1071 C 945.66666666667 1089.66666666667 954 1111 954 1135 C 954 1163.66666666667 944.33333333333 1187 925 1205 C 905.66666666667 1222.33333333333 879.33333333333 1232.33333333333 846 1235 L 846 1343 Z M 547 1245 L 483 1245 L 283 0 L 135 0 L 354 1245 L 256 1245 L 256 1374 L 776 1374 L 776 1245 L 676 1245 L 897 0 L 743 0 L 547 1245 Z"/>
    <path fill="#000000" stroke="none" transform="matrix(1 0 0 -1 22148 2689)" d="M 645 256 L 645 340 L 618 340 C 537.33333333333 340 462 359.66666666667 392 399 C 321.33333333333 437.66666666667 265.66666666667 491.33333333333 225 560 C 184.33333333333 628.66666666667 164 702.66666666667 164 782 C 164 862 184.33333333333 936.33333333333 225 1005 C 265.66666666667 1073.66666666667 321 1127.66666666667 391 1167 C 461 1205.66666666667 536.66666666667 1225 618 1225 L 1905 1225 L 3090 928 C 3192.66666666667 964.66666666667 3244 1050 3244 1184 C 3244 1324 3189.33333333333 1408.66666666667 3080 1438 L 3101 1575 C 3150.33333333333 1567 3198 1543.66666666667 3244 1505 C 3289.33333333333 1465.66666666667 3325.66666666667 1417 3353 1359 C 3380.33333333333 1301 3394 1242 3394 1182 C 3394 1098 3371.33333333333 1020.33333333333 3326 949 C 3280 877 3223.33333333333 829.66666666667 3156 807 C 3224 783 3280.66666666667 735.33333333333 3326 664 C 3371.33333333333 592.66666666667 3394 515.33333333333 3394 432 C 3394 372 3380.66666666667 313 3354 255 C 3326.66666666667 197 3290 148.33333333333 3244 109 C 3198 69.66666666667 3150.33333333333 46.33333333333 3101 39 L 3080 176 C 3189.33333333333 205.33333333333 3244 290 3244 430 C 3244 564 3192.66666666667 649.33333333333 3090 686 L 2486 514 L 2486 344 L 2343 344 L 2343 473 L 2161 422 L 2161 283 L 2017 283 L 2017 381 L 1815 324 L 1815 211 L 1671 211 L 1671 283 L 1579 256 L 645 256 Z M 788 1096 L 788 913 L 899 913 C 947.66666666667 913 987.66666666667 898.66666666667 1019 870 C 1049.66666666667 841.33333333333 1065 805.33333333333 1065 762 L 1065 385 L 1436 385 L 1436 1096 L 788 1096 Z M 2417 770 C 2417.66666666667 778 2421.66666666667 790.33333333333 2429 807 C 2436.33333333333 823.66666666667 2458 868 2494 940 L 1868 1096 L 1579 1096 L 1579 942 L 1616 965 L 1737 760 L 1745 760 C 1745.66666666667 764 1747 769 1749 775 C 1751 781 1754 788.33333333333 1758 797 C 1762 805.66666666667 1789.66666666667 861.66666666667 1841 965 L 1964 965 L 2083 770 L 2091 770 C 2091.66666666667 774 2093 779 2095 785 C 2097 791 2100 798.33333333333 2104 807 C 2108 815.66666666667 2135.66666666667 871.66666666667 2187 975 L 2288 975 L 2408 770 L 2417 770 Z M 319 721 C 332.33333333333 650.33333333333 366.66666666667 591.66666666667 422 545 C 477.33333333333 498.33333333333 542.66666666667 475 618 475 L 645 475 L 645 721 L 319 721 Z M 2632 907 L 2486 647 L 3045 805 L 2632 907 Z M 645 1090 L 632 1092 L 618 1092 C 544.66666666667 1092 480.33333333333 1069.66666666667 425 1025 C 369.66666666667 979.66666666667 334.33333333333 921.33333333333 319 850 L 645 850 L 645 1090 Z M 3662 1425 L 3736 1339 L 3708 1313 C 3680 1285.66666666667 3666 1250 3666 1206 C 3666 1134.66666666667 3648 1078.66666666667 3612 1038 C 3575.33333333333 997.33333333333 3526.33333333333 977 3465 977 L 3452 977 L 3439 979 L 3459 1096 C 3480.33333333333 1096 3499 1107 3515 1129 C 3531 1150.33333333333 3539 1176 3539 1206 C 3539 1262.66666666667 3549.33333333333 1308.66666666667 3570 1344 C 3590.66666666667 1378.66666666667 3621.33333333333 1405.66666666667 3662 1425 Z M 3650 606 L 3723 520 C 3699 497.33333333333 3683.33333333333 480.66666666667 3676 470 C 3668.66666666667 459.33333333333 3663.33333333333 447.33333333333 3660 434 C 3656 420 3654 404.33333333333 3654 387 C 3654 315.66666666667 3636 259.66666666667 3600 219 C 3563.33333333333 178.33333333333 3514.33333333333 158 3453 158 L 3440 158 L 3426 160 L 3447 276 C 3468.33333333333 276 3487 286.66666666667 3503 308 C 3519 329.33333333333 3527 355.66666666667 3527 387 C 3527 443.66666666667 3537 489.33333333333 3557 524 C 3577 558.66666666667 3608 586 3650 606 Z M 788 784 L 788 385 L 922 385 L 922 784 L 788 784 Z M 3004 592 L 3068 512 L 3042 491 C 3028.66666666667 482.33333333333 3020 472.66666666667 3016 462 C 3011.33333333333 451.33333333333 3009 435.33333333333 3009 414 C 3009 345.33333333333 2992 292.66666666667 2958 256 C 2923.33333333333 219.33333333333 2873.33333333333 201 2808 201 L 2795 201 L 2781 203 L 2802 324 C 2828 324 2848 332.33333333333 2862 349 C 2875.33333333333 365.66666666667 2882 387.33333333333 2882 414 C 2882 461.33333333333 2890.66666666667 497.33333333333 2908 522 C 2924.66666666667 546.66666666667 2956.66666666667 570 3004 592 Z M 3045 1411 L 3109 1331 L 3083 1310 C 3069 1300.66666666667 3060 1290.66666666667 3056 1280 C 3051.33333333333 1268.66666666667 3049 1253 3049 1233 C 3049 1165 3032.33333333333 1112.66666666667 2999 1076 C 2965.66666666667 1038.66666666667 2915.66666666667 1020 2849 1020 L 2836 1020 L 2822 1022 L 2843 1143 C 2869 1143 2888.66666666667 1151.33333333333 2902 1168 C 2915.33333333333 1184.66666666667 2922 1206.33333333333 2922 1233 C 2922 1281 2930.66666666667 1317.33333333333 2948 1342 C 2965.33333333333 1366 2997.66666666667 1389 3045 1411 Z M 1815 457 L 2017 514 L 2017 647 L 1917 817 L 1815 639 L 1815 457 Z M 1579 793 L 1579 391 L 1671 416 L 1671 637 L 1579 793 Z M 2161 555 L 2343 606 L 2343 647 L 2249 805 L 2161 649 L 2161 555 Z"/>
    <path fill="#000000" stroke="none" transform="matrix(1 0 0 -1 26047 2689)" d="M 225 455 L 225 1165 L 1976 1165 L 1976 455 L 225 455 Z M 369 584 L 1833 584 L 1833 1036 L 369 1036 L 369 584 Z"/>
    <path fill="#000000" stroke="none" transform="matrix(1 0 0 -1 28249 2689)" d="M 135 0 C 144.33333333333 178.66666666667 167 368.66666666667 203 570 C 239 771.33333333333 283.33333333333 953.33333333333 336 1116 L 266 1116 L 266 1245 L 381 1245 C 490.33333333333 1521 605 1659 725 1659 C 788.33333333333 1659 850 1624 910 1554 C 969.33333333333 1484 1025 1381 1077 1245 L 1194 1245 L 1194 1116 L 1124 1116 C 1174.66666666667 960 1217.33333333333 781 1252 579 C 1286 376.33333333333 1308.33333333333 183.33333333333 1319 0 L 1174 0 C 1156 262.66666666667 1119.66666666667 518.66666666667 1065 768 L 383 768 C 356.33333333333 641.33333333333 333.66666666667 509.66666666667 315 373 C 296.33333333333 235.66666666667 284.33333333333 111.33333333333 279 0 L 135 0 Z M 473 1116 C 449 1033.33333333333 429.33333333333 960.33333333333 414 897 L 1036 897 C 1016 980.33333333333 995.66666666667 1053.33333333333 975 1116 L 473 1116 Z M 725 1516 C 691 1516 656 1493 620 1447 C 584 1401 548.66666666667 1333.66666666667 514 1245 L 936 1245 C 901.33333333333 1333.66666666667 866 1401 830 1447 C 794 1493 759 1516 725 1516 Z"/>
    <path fill="#000000" stroke="none" transform="matrix(1 0 0 -1 29703 2689)" d="M 420 1151 C 424.66666666667 1077.66666666667 444.33333333333 1009.66666666667 479 947 C 513.66666666667 883.66666666667 558 836.33333333333 612 805 C 665.33333333333 836.33333333333 709.33333333333 883.66666666667 744 947 C 778.66666666667 1010.33333333333 799 1078.33333333333 805 1151 L 948 1151 C 936.66666666667 987.66666666667 885.66666666667 860.66666666667 795 770 L 887 770 L 887 641 L 735 641 C 691.66666666667 641 650.66666666667 646.33333333333 612 657 C 570.66666666667 646.33333333333 529.66666666667 641 489 641 L 338 641 L 338 770 L 428 770 C 339.33333333333 860 288.66666666667 987 276 1151 L 420 1151 Z M 784 1249 L 684 1249 L 684 1092 L 541 1092 L 541 1249 L 440 1249 L 440 1378 L 541 1378 L 541 1454 L 440 1454 L 440 1583 L 541 1583 L 541 1782 L 684 1782 L 684 1583 L 784 1583 L 784 1454 L 684 1454 L 684 1378 L 784 1378 L 784 1249 Z M 684 565 L 684 0 L 541 0 L 541 565 L 684 565 Z M 1122 938 L 1122 532 L 979 532 L 979 938 L 1122 938 Z M 246 938 L 246 532 L 102 532 L 102 938 L 246 938 Z"/>
    <path fill="#000000" stroke="none" transform="matrix(1 0 0 -1 30928 2689)" d="M 963 1073 C 963 986.33333333333 992.66666666667 918.33333333333 1052 869 C 1114.66666666667 815.66666666667 1156.66666666667 772 1178 738 C 1199.33333333333 703.33333333333 1215.66666666667 661.66666666667 1227 613 C 1237.66666666667 563.66666666667 1243 507.33333333333 1243 444 C 1243 320 1200 215 1114 129 L 1147 129 L 1147 0 L 260 0 L 260 129 L 293 129 C 207 215 164 320 164 444 C 164 510 170 567.66666666667 182 617 C 193.33333333333 665.66666666667 210 707 232 741 C 253.33333333333 775 294.66666666667 817.66666666667 356 869 C 414.66666666667 918.33333333333 444 986.33333333333 444 1073 L 444 1509 L 336 1509 L 336 1638 L 1071 1638 L 1071 1509 L 963 1509 L 963 1073 Z M 580 1075 C 580 1033.66666666667 576 998.33333333333 568 969 C 560 939.66666666667 549.66666666667 914 537 892 C 523.66666666667 869.33333333333 508.66666666667 849.33333333333 492 832 C 475.33333333333 814.66666666667 458.66666666667 797.66666666667 442 781 C 424.66666666667 763.66666666667 407.66666666667 745.66666666667 391 727 C 374.33333333333 707.66666666667 359.66666666667 685.33333333333 347 660 C 333.66666666667 634 323 603.66666666667 315 569 C 307 534.33333333333 303 492.66666666667 303 444 C 303 354.66666666667 329 280 381 220 C 432.33333333333 159.33333333333 500 129 584 129 L 823 129 C 907 129 975 159.33333333333 1027 220 C 1078.33333333333 280 1104 354.66666666667 1104 444 C 1104 495.33333333333 1099.33333333333 539.66666666667 1090 577 C 1080.66666666667 614.33333333333 1067.66666666667 647.66666666667 1051 677 C 1034.33333333333 705.66666666667 1006 740.33333333333 966 781 C 918.66666666667 827.66666666667 888 863 874 887 C 859.33333333333 911 848 938.33333333333 840 969 C 831.33333333333 999 827 1034.33333333333 827 1075 L 580 1075 Z M 819 1509 L 588 1509 L 588 1192 L 819 1192 L 819 1509 Z"/>
    <path fill="#000000" stroke="none" transform="matrix(1 0 0 -1 32867 2689)" d="M 821 895 L 651 895 L 651 0 L 508 0 L 508 895 L 340 895 L 340 1024 L 821 1024 L 821 895 Z M 492 1116 L 135 1116 L 135 1245 L 242 1245 L 242 1638 L 379 1638 L 379 1245 L 492 1245 L 492 1116 Z M 1026 1116 L 670 1116 L 670 1245 L 772 1245 L 772 1638 L 909 1638 L 909 1245 L 1026 1245 L 1026 1116 Z"/>
    <path fill="#000000" stroke="none" transform="matrix(1 0 0 -1 34028 2689)" d="M 2193 1638 L 2193 1509 L 2105 1509 L 2075 1440 L 2378 1440 C 2478.66666666667 1440 2555 1419.66666666667 2607 1379 C 2659 1338.33333333333 2685 1278 2685 1198 C 2685 1024 2560.66666666667 928.33333333333 2312 911 C 2314.66666666667 890.33333333333 2316 857 2316 811 C 2316 717 2300 623.33333333333 2268 530 C 2236 436 2188.66666666667 347.33333333333 2126 264 C 2062.66666666667 180 1997.66666666667 111.66666666667 1931 59 C 1905.66666666667 39.66666666667 1883 26.66666666667 1863 20 C 1843 12.66666666667 1817 7.66666666667 1785 5 C 1753 1.66666666667 1702.66666666667 0 1634 0 L 1153 0 C 1060.33333333333 0 996 3.33333333333 960 10 C 923.33333333333 16.66666666667 888.66666666667 33 856 59 C 788 112.33333333333 723 181.33333333333 661 266 C 598.33333333333 350 551 438.33333333333 519 531 C 487 623.66666666667 471 717 471 811 C 471 857 472.33333333333 890.33333333333 475 911 C 226.33333333333 928.33333333333 102 1024 102 1198 C 102 1278 128 1338.33333333333 180 1379 C 232 1419.66666666667 308.66666666667 1440 410 1440 L 713 1440 L 682 1509 L 594 1509 L 594 1638 L 2193 1638 Z M 1567 129 L 1614 129 C 1707.33333333333 129 1777.33333333333 139.33333333333 1824 160 C 1870 180 1925 230.66666666667 1989 312 C 2052.33333333333 392.66666666667 2099.66666666667 475.33333333333 2131 560 C 2161.66666666667 644 2177 727.66666666667 2177 811 C 2177 925 2156.66666666667 1015.66666666667 2116 1083 C 2075.33333333333 1149.66666666667 2013 1194.33333333333 1929 1217 C 1892.33333333333 1227 1874 1261.66666666667 1874 1321 L 1954 1509 L 834 1509 L 913 1321 C 913 1261.66666666667 894.66666666667 1227 858 1217 C 692.66666666667 1173 610 1037.66666666667 610 811 C 610 726.33333333333 626 641.33333333333 658 556 C 689.33333333333 470.66666666667 737 388 801 308 C 864.33333333333 228 919.33333333333 178.33333333333 966 159 C 1012 139 1081.33333333333 129 1174 129 L 1423 129 L 1423 580 L 1200 580 L 1200 520 L 1057 520 L 1057 1182 L 1200 1182 L 1200 1108 L 1683 1108 L 1683 979 L 1200 979 L 1200 709 L 1567 709 L 1567 129 Z M 2288 1047 C 2362.66666666667 1049.66666666667 2423.66666666667 1063.33333333333 2471 1088 C 2518.33333333333 1112 2542 1145.33333333333 2542 1188 C 2542 1225.33333333333 2537 1251.66666666667 2527 1267 C 2516.33333333333 1282.33333333333 2499 1293.66666666667 2475 1301 C 2450.33333333333 1307.66666666667 2415.33333333333 1311 2370 1311 L 2023 1311 C 2084.33333333333 1282.33333333333 2129.66666666667 1256.66666666667 2159 1234 C 2188.33333333333 1211.33333333333 2213.66666666667 1185 2235 1155 C 2256.33333333333 1125 2274 1089 2288 1047 Z M 500 1047 C 512.66666666667 1088.33333333333 529.66666666667 1124 551 1154 C 572.33333333333 1184 597.33333333333 1210.33333333333 626 1233 C 654.66666666667 1255.66666666667 700.66666666667 1281.66666666667 764 1311 L 418 1311 C 372 1311 337 1307.66666666667 313 1301 C 289 1293.66666666667 272 1282.33333333333 262 1267 C 251.33333333333 1251 246 1224.66666666667 246 1188 C 246 1146 269 1113 315 1089 C 361 1064.33333333333 422.66666666667 1050.33333333333 500 1047 Z"/>
    <path fill="#000000" stroke="none" transform="matrix(1 0 0 -1 36815 2689)" d="M 831 1667 L 1524 705 L 1413 625 L 1323 750 C 1275.66666666667 622.66666666667 1229.33333333333 476.66666666667 1184 312 C 1138.66666666667 147.33333333333 1116 43.33333333333 1116 0 L 995 0 L 897 117 C 837 187.66666666667 798.66666666667 256 782 322 L 774 322 C 765.33333333333 290 753.33333333333 259.33333333333 738 230 C 722 200.66666666667 698.66666666667 167 668 129 L 561 0 L 436 0 C 436 49.33333333333 416 158 376 326 C 336 493.33333333333 298 632.33333333333 262 743 L 178 625 L 68 705 L 750 1667 L 831 1667 Z M 362 885 C 397.33333333333 793 437.33333333333 662 482 492 C 526.66666666667 321.33333333333 549 213.33333333333 549 168 L 745 430 L 831 430 L 1026 158 C 1026 186 1040.33333333333 255 1069 365 C 1097 474.33333333333 1126.33333333333 578.33333333333 1157 677 C 1187.66666666667 775.66666666667 1210.33333333333 844.33333333333 1225 883 L 893 1343 C 859.66666666667 1387 834.66666666667 1424 818 1454 C 801.33333333333 1483.33333333333 792.33333333333 1499.66666666667 791 1503 C 789.66666666667 1501.66666666667 780.66666666667 1486.66666666667 764 1458 C 746.66666666667 1429.33333333333 720 1389.66666666667 684 1339 L 362 885 Z M 1028 543 L 567 543 L 567 672 L 1028 672 L 1028 543 Z M 1028 788 L 567 788 L 567 918 L 1028 918 L 1028 788 Z M 967 1038 L 629 1038 L 629 1167 L 967 1167 L 967 1038 Z"/>
    <path fill="#000000" stroke="none" transform="matrix(1 0 0 -1 38406 2689)" d="M 840 868 C 840 790 836.33333333333 726 829 676 L 1006 676 L 1047 932 C 1052.33333333333 965.33333333333 1063 1013.66666666667 1079 1077 L 911 1100 L 928 1229 L 1098 1206 C 1098 1224 1099.33333333333 1245.33333333333 1102 1270 C 1104 1294.66666666667 1122.33333333333 1421 1157 1649 L 1298 1626 L 1255 1346 C 1243.66666666667 1274 1233 1222.66666666667 1223 1192 L 1432 1165 L 1415 1036 L 1198 1063 C 1196.66666666667 1042.33333333333 1195.66666666667 1019.33333333333 1195 994 C 1194.33333333333 968.66666666667 1192 942.33333333333 1188 915 L 1151 676 L 1255 676 L 1255 547 L 829 547 C 836.33333333333 507 840 469.33333333333 840 434 L 840 0 L 696 0 L 696 428 C 696 472.66666666667 699 512.33333333333 705 547 L 283 547 L 283 676 L 387 676 L 350 913 C 346 940.33333333333 343.66666666667 966.66666666667 343 992 C 341.66666666667 1017.33333333333 340 1040.33333333333 338 1061 L 129 1034 L 113 1163 L 315 1188 C 309.66666666667 1206 304.33333333333 1228.33333333333 299 1255 C 293.66666666667 1281.66666666667 274 1405.33333333333 240 1626 L 381 1649 C 397.66666666667 1537.66666666667 411 1450.66666666667 421 1388 C 430.33333333333 1325.33333333333 436.66666666667 1264 440 1204 L 616 1227 L 633 1098 L 457 1075 C 473 1019.66666666667 484.66666666667 971.33333333333 492 930 L 530 676 L 705 676 C 699 724 696 788 696 868 L 696 1276 C 696 1320 699 1358.33333333333 705 1391 L 506 1391 L 506 1520 L 702 1520 C 699.33333333333 1544 698 1583.33333333333 698 1638 L 840 1638 C 840 1595.33333333333 838 1556 834 1520 L 1022 1520 L 1022 1391 L 829 1391 C 836.33333333333 1351 840 1314.66666666667 840 1282 L 840 868 Z"/>
    <path fill="#000000" stroke="none" transform="matrix(1 0 0 -1 39950 2689)" d="M 827 604 C 903 576.66666666667 970.66666666667 531.66666666667 1030 469 L 1077 420 L 989 322 L 774 547 L 651 547 L 651 0 L 508 0 L 508 547 L 113 547 L 113 676 L 508 676 L 508 799 C 444.66666666667 830.33333333333 395.66666666667 871.66666666667 361 923 C 326.33333333333 973.66666666667 309 1027 309 1083 C 309 1169.66666666667 326.66666666667 1239.33333333333 362 1292 L 262 1589 L 383 1626 L 424 1485 C 438.66666666667 1428.33333333333 446 1386.66666666667 446 1360 C 467.33333333333 1369.33333333333 494.66666666667 1376 528 1380 C 518.66666666667 1417.33333333333 514 1450.33333333333 514 1479 L 514 1638 L 633 1638 L 633 1479 C 633 1459.66666666667 627.33333333333 1427.33333333333 616 1382 C 647.33333333333 1376 673.33333333333 1368.66666666667 694 1360 C 694.66666666667 1372 698 1393.66666666667 704 1425 C 710 1456.33333333333 728.66666666667 1523.33333333333 760 1626 L 881 1589 L 780 1300 C 803.33333333333 1279.33333333333 821.66666666667 1249.66666666667 835 1211 C 847.66666666667 1171.66666666667 854 1131.33333333333 854 1090 C 854 1031.33333333333 836.66666666667 976.33333333333 802 925 C 766.66666666667 873 716.33333333333 830.33333333333 651 797 L 651 676 L 772 676 L 989 903 L 1077 805 L 1030 756 C 962.66666666667 685.33333333333 895 638 827 614 L 827 604 Z M 578 1276 C 538.66666666667 1276 507.66666666667 1259 485 1225 C 462.33333333333 1191 451 1143.66666666667 451 1083 C 451 1049.66666666667 457.66666666667 1018 471 988 C 483.66666666667 957.33333333333 500.66666666667 932.66666666667 522 914 C 542.66666666667 894.66666666667 562 885 580 885 C 597.33333333333 885 616.66666666667 894.66666666667 638 914 C 658.66666666667 932.66666666667 675.66666666667 957 689 987 C 702.33333333333 1017 709 1048.33333333333 709 1081 C 709 1143.66666666667 697.66666666667 1192 675 1226 C 651.66666666667 1259.33333333333 619.33333333333 1276 578 1276 Z"/>
    <path fill="#000000" stroke="none" transform="matrix(1 0 0 -1 41103 2689)" d="M 1186 -6 C 1136 -15.33333333333 1087.33333333333 -20 1040 -20 C 888 -20 747.66666666667 17.33333333333 619 92 C 489.66666666667 166 388.33333333333 267 315 395 C 241.66666666667 522.33333333333 205 659.66666666667 205 807 C 205 955.66666666667 242 1094.66666666667 316 1224 C 390 1352.66666666667 492 1454 622 1528 C 751.33333333333 1601.33333333333 890.66666666667 1638 1040 1638 C 1090 1638 1138.66666666667 1634 1186 1626 L 1186 1493 C 1151.33333333333 1499.66666666667 1109 1503 1059 1503 C 957 1503 861.33333333333 1484 772 1446 L 772 170 C 861.33333333333 132 957 113 1059 113 C 1101 113 1143.33333333333 117 1186 125 L 1186 -6 Z M 348 805 C 348 694.33333333333 372.66666666667 590.66666666667 422 494 C 470.66666666667 396.66666666667 539.66666666667 315.33333333333 629 250 L 629 1362 C 539.66666666667 1296.66666666667 470.66666666667 1215.33333333333 422 1118 C 372.66666666667 1020 348 915.66666666667 348 805 Z"/>
    <path fill="#000000" stroke="none" transform="matrix(1 0 0 -1 42985 2689)" d="M 717 1556 C 787 1556 843.33333333333 1537.33333333333 886 1500 C 928.66666666667 1462 950 1414.66666666667 950 1358 C 950 1320.66666666667 940.66666666667 1287 922 1257 L 924 1245 L 924 1231 C 907.33333333333 1086.33333333333 887.33333333333 969.66666666667 864 881 C 840.66666666667 791.66666666667 812.66666666667 732 780 702 L 780 362 L 653 362 L 653 707 C 619.66666666667 735.66666666667 591.33333333333 790.66666666667 568 872 C 544.66666666667 953.33333333333 524.66666666667 1068.33333333333 508 1217 L 510 1260 C 493.33333333333 1289.33333333333 485 1322 485 1358 C 485 1414 506 1461 548 1499 C 590 1537 646.33333333333 1556 717 1556 Z M 717 1157 C 685.66666666667 1157 657 1161 631 1169 C 639 1056.33333333333 650.66666666667 969.33333333333 666 908 C 680.66666666667 846 698.33333333333 815 719 815 C 735 815 749.66666666667 845.33333333333 763 906 C 776.33333333333 966.66666666667 787.66666666667 1053.66666666667 797 1167 C 775.66666666667 1160.33333333333 749 1157 717 1157 Z M 719 1444 C 639.66666666667 1444 600 1416 600 1360 C 600 1304 639.66666666667 1276 719 1276 C 798.33333333333 1276 838 1304 838 1360 C 838 1416 798.33333333333 1444 719 1444 Z M 717 1956 L 1333 1354 C 1261 1297.33333333333 1207.66666666667 1238.33333333333 1173 1177 C 1137.66666666667 1115.66666666667 1120 1044.33333333333 1120 963 C 1120 886.33333333333 1136 817.33333333333 1168 756 C 1200 694.66666666667 1255 630.33333333333 1333 563 L 717 -41 L 102 563 C 178.66666666667 627.66666666667 233.33333333333 690.66666666667 266 752 C 298.66666666667 813.33333333333 315 883.66666666667 315 963 C 315 1044.33333333333 297.66666666667 1116 263 1178 C 227.66666666667 1239.33333333333 174 1298 102 1354 L 717 1956 Z M 434 961 C 434 799 378 666.33333333333 266 563 L 717 115 L 1169 563 C 1057 666.33333333333 1001 799 1001 961 C 1001 1041.66666666667 1013.33333333333 1114.33333333333 1038 1179 C 1062.66666666667 1243.66666666667 1103 1304.66666666667 1159 1362 L 717 1800 L 276 1362 C 333.33333333333 1302.66666666667 374 1241.66666666667 398 1179 C 422 1115.66666666667 434 1043 434 961 Z"/>
    <path fill="#000000" stroke="none" transform="matrix(1 0 0 -1 44421 2689)" d="M 815 1391 L 985 1534 C 882.33333333333 1566 831 1632.33333333333 831 1733 C 831 1791 849.33333333333 1837.66666666667 886 1873 C 922 1907.66666666667 973.33333333333 1925 1040 1925 C 1101.33333333333 1925 1150.66666666667 1910.33333333333 1188 1881 C 1224.66666666667 1851.66666666667 1243 1813 1243 1765 C 1243 1744.33333333333 1239.66666666667 1722.66666666667 1233 1700 L 1462 1700 L 1722 1917 L 1804 1821 L 1604 1649 L 1604 1528 L 1532 1384 L 1566 1322 C 1591.33333333333 1278 1608.66666666667 1243.33333333333 1618 1218 C 1627.33333333333 1192 1632 1167.66666666667 1632 1145 C 1632 1106.33333333333 1624 1063.33333333333 1608 1016 C 1592 968.66666666667 1570.66666666667 925 1544 885 L 1958 885 L 1958 715 L 1772 553 L 2210 553 L 2210 424 L 2417 424 L 2417 518 L 2540 518 L 2540 16 L 2417 16 L 2417 129 L 2210 129 L 2210 0 L 494 0 L 494 129 L 287 129 L 287 16 L 164 16 L 164 518 L 287 518 L 287 424 L 494 424 L 494 553 L 932 553 L 745 715 L 745 885 L 1159 885 C 1132.33333333333 925 1111 969 1095 1017 C 1079 1064.33333333333 1071 1107 1071 1145 C 1071 1167 1075.33333333333 1190.33333333333 1084 1215 C 1092.66666666667 1239.66666666667 1110.66666666667 1275.33333333333 1138 1322 L 1171 1384 L 1120 1483 L 901 1296 L 815 1391 Z M 637 129 L 2066 129 L 2066 424 L 637 424 L 637 129 Z M 2345 1868 L 2345 1444 L 2671 1444 L 2671 1092 L 1956 1092 L 1956 1866 L 2345 1868 Z M 1470 1571 L 1233 1571 L 1233 1538 L 1307 1391 C 1294.33333333333 1359.66666666667 1282.33333333333 1333.33333333333 1271 1312 C 1259 1290 1248.66666666667 1270 1240 1252 C 1230.66666666667 1233.33333333333 1223.33333333333 1215.33333333333 1218 1198 C 1212.66666666667 1180 1210 1159.66666666667 1210 1137 C 1210 1097.66666666667 1218.66666666667 1053.66666666667 1236 1005 C 1253.33333333333 956.33333333333 1273.33333333333 916.33333333333 1296 885 L 1407 885 C 1429.66666666667 917 1449.66666666667 957.33333333333 1467 1006 C 1484.33333333333 1054.66666666667 1493 1098.33333333333 1493 1137 C 1493 1159.66666666667 1490.33333333333 1180 1485 1198 C 1479.66666666667 1215.33333333333 1472.66666666667 1233.33333333333 1464 1252 C 1454.66666666667 1270 1444.33333333333 1290 1433 1312 C 1421 1333.33333333333 1409 1359.66666666667 1397 1391 L 1470 1538 L 1470 1571 Z M 1581 553 L 1815 756 L 1454 756 L 1542 641 L 1479 592 L 1352 756 L 1227 592 L 1163 641 L 1251 756 L 889 756 L 1122 553 L 1581 553 Z M 2099 1221 L 2527 1221 L 2527 1315 L 2202 1315 L 2202 1739 L 2099 1739 L 2099 1221 Z M 1100 1630 C 1104 1645.33333333333 1108.33333333333 1661.66666666667 1113 1679 C 1117.66666666667 1696.33333333333 1120 1716.33333333333 1120 1739 C 1120 1759.66666666667 1113 1776.66666666667 1099 1790 C 1084.33333333333 1803.33333333333 1064 1810 1038 1810 C 1011.33333333333 1810 990.66666666667 1802.66666666667 976 1788 C 961.33333333333 1773.33333333333 954 1754.33333333333 954 1731 C 954 1703 966.66666666667 1680.33333333333 992 1663 C 1017.33333333333 1645 1053.33333333333 1634 1100 1630 Z M 2417 315 L 2210 315 L 2210 238 L 2417 238 L 2417 315 Z M 287 238 L 494 238 L 494 315 L 287 315 L 287 238 Z"/>
    <path fill="#000000" stroke="none" transform="matrix(1 0 0 -1 47255 2689)" d="M 1130 1509 L 1026 1509 L 1026 1266 C 1116 1235.33333333333 1187.66666666667 1186 1241 1118 C 1294.33333333333 1050 1321 972.33333333333 1321 885 C 1321 846.33333333333 1314.33333333333 809.66666666667 1301 775 C 1287 739.66666666667 1255.33333333333 677 1206 587 C 1124 437 1071.66666666667 241.33333333333 1049 0 L 604 0 C 581.33333333333 241.33333333333 529.33333333333 437 448 587 C 396.66666666667 680.33333333333 364.66666666667 743.66666666667 352 777 C 338.66666666667 810.33333333333 332 846.33333333333 332 885 C 332 910.33333333333 334 934 338 956 L 164 850 L 102 963 L 444 1161 C 362 1215 302.33333333333 1267.66666666667 265 1319 C 227.66666666667 1369.66666666667 209 1422.33333333333 209 1477 C 209 1539.66666666667 231.33333333333 1582.33333333333 276 1605 C 320 1627 396.66666666667 1638 506 1638 L 1130 1638 L 1130 1509 Z M 471 885 C 471 853.66666666667 476.33333333333 825.33333333333 487 800 C 497.66666666667 774.66666666667 527 723 575 645 C 651 521.66666666667 701 349.66666666667 725 129 L 928 129 C 952 349.66666666667 1002 521.66666666667 1078 645 C 1126 723 1155.33333333333 775 1166 801 C 1176.66666666667 826.33333333333 1182 854.33333333333 1182 885 C 1182 1041 1089 1138 903 1176 L 883 1178 L 883 1509 L 770 1509 L 770 1178 L 748 1176 C 563.33333333333 1137.33333333333 471 1040.33333333333 471 885 Z M 530 1509 C 450 1509 400.66666666667 1508 382 1506 C 362.66666666667 1503.33333333333 349 1499 341 1493 C 332.33333333333 1487 328 1478 328 1466 C 328 1435.33333333333 348.66666666667 1398.33333333333 390 1355 C 431.33333333333 1311 484.33333333333 1270.33333333333 549 1233 C 574.33333333333 1245.66666666667 600.33333333333 1256.66666666667 627 1266 L 627 1509 L 530 1509 Z"/>
    <path fill="#000000" stroke="none" transform="matrix(1 0 0 -1 48678 2689)" d="M 1264 0 C 1000 0 866.66666666667 189 864 567 L 164 567 L 164 813 C 164 880.33333333333 172.33333333333 946.66666666667 189 1012 C 205.66666666667 1076.66666666667 228 1139 256 1199 C 283.33333333333 1259 318.33333333333 1320 361 1382 C 403 1444 446 1497.33333333333 490 1542 C 534 1586 575.66666666667 1613 615 1623 C 654.33333333333 1633 723.66666666667 1638 823 1638 C 895.66666666667 1638 952.33333333333 1634.66666666667 993 1628 C 1033 1620.66666666667 1071 1606.66666666667 1107 1586 C 1143 1564.66666666667 1186 1522.66666666667 1236 1460 C 1286 1397.33333333333 1329.33333333333 1330.33333333333 1366 1259 C 1402 1187.66666666667 1430.33333333333 1114.66666666667 1451 1040 C 1471 964.66666666667 1481 889 1481 813 L 1481 567 L 1389 567 L 1389 0 L 1264 0 Z M 301 813 C 301 767.66666666667 303 728.66666666667 307 696 L 1339 696 L 1343 813 C 1343 872.33333333333 1336.66666666667 929.66666666667 1324 985 C 1311.33333333333 1039.66666666667 1294.66666666667 1091.33333333333 1274 1140 C 1253.33333333333 1188.66666666667 1228.66666666667 1236.33333333333 1200 1283 C 1171.33333333333 1329 1141.66666666667 1370.66666666667 1111 1408 C 1079.66666666667 1444.66666666667 1054.66666666667 1469.33333333333 1036 1482 C 1016.66666666667 1494 991.66666666667 1502.33333333333 961 1507 C 929.66666666667 1511 883.66666666667 1513 823 1513 C 761.66666666667 1513 718 1510.66666666667 692 1506 C 666 1500.66666666667 643 1492 623 1480 C 603 1468 577.66666666667 1444.66666666667 547 1410 C 516.33333333333 1374.66666666667 485.33333333333 1333.33333333333 454 1286 C 422.66666666667 1238.66666666667 396.33333333333 1190.33333333333 375 1141 C 353 1091.66666666667 335.33333333333 1039.33333333333 322 984 C 308 928 301 871 301 813 Z M 1008 567 C 1008.66666666667 419.66666666667 1030 310.66666666667 1072 240 C 1114 168.66666666667 1171.66666666667 131.66666666667 1245 129 L 1245 567 L 1008 567 Z"/>
    <path fill="#000000" stroke="none" transform="matrix(1 0 0 -1 50323 2689)" d="M 225 1638 L 1659 1638 L 1659 0 L 225 0 L 225 1638 Z M 369 129 L 1229 129 L 1229 1509 L 369 1509 L 369 129 Z M 727 989 L 428 1300 L 520 1391 L 791 1110 L 1061 1391 L 1153 1300 L 870 1006 L 870 225 L 727 225 L 727 989 Z M 1372 129 L 1516 129 L 1516 1509 L 1372 1509 L 1372 129 Z"/>
    <path fill="#000000" stroke="none" transform="matrix(1 0 0 -1 52207 2689)" d="M 799 1296 L 995 1296 C 1063 1296 1117.66666666667 1276.33333333333 1159 1237 C 1200.33333333333 1197 1230.66666666667 1138.66666666667 1250 1062 C 1268.66666666667 984.66666666667 1278 876.33333333333 1278 737 C 1278 685.66666666667 1284.66666666667 637.33333333333 1298 592 C 1311.33333333333 546.66666666667 1336 489 1372 419 C 1404 355.66666666667 1427.66666666667 290 1443 222 C 1458.33333333333 154 1466 80 1466 0 L 328 0 C 328 81.33333333333 335.66666666667 155.66666666667 351 223 C 366.33333333333 289.66666666667 390 355 422 419 C 458 490.33333333333 482.66666666667 548.66666666667 496 594 C 509.33333333333 639.33333333333 516 687 516 737 C 516 878.33333333333 525.66666666667 987.33333333333 545 1064 C 564.33333333333 1140.66666666667 594.66666666667 1198.66666666667 636 1238 C 677.33333333333 1276.66666666667 731.66666666667 1296 799 1296 Z M 1362 1536 C 1272.66666666667 1468 1119.66666666667 1434 903 1434 C 680.33333333333 1434 523.33333333333 1468 432 1536 L 432 1677 C 484 1643 557 1615.66666666667 651 1595 L 852 1884 L 940 1884 L 1141 1595 C 1233.66666666667 1615.66666666667 1307.33333333333 1643 1362 1677 L 1362 1536 Z M 324 1022 L 236 1022 L 16 1278 L 236 1532 L 324 1532 L 543 1278 L 324 1022 Z M 1559 1022 L 1470 1022 L 1251 1278 L 1470 1532 L 1559 1532 L 1778 1278 L 1559 1022 Z M 514 287 C 496 229.66666666667 484.33333333333 177 479 129 L 1315 129 C 1307.66666666667 183.66666666667 1295.33333333333 236.33333333333 1278 287 L 514 287 Z M 631 573 C 620.33333333333 538.33333333333 598.33333333333 486 565 416 L 1229 416 C 1193.66666666667 490 1171 542.33333333333 1161 573 L 631 573 Z M 659 741 L 659 721 L 657 702 L 1135 702 L 1135 741 L 1133 860 L 662 860 C 660 832 659 792.33333333333 659 741 Z M 821 1167 C 775.66666666667 1167 742 1151.33333333333 720 1120 C 697.33333333333 1088.66666666667 681.33333333333 1045 672 989 L 1120 989 C 1110.66666666667 1045 1095 1088.66666666667 1073 1120 C 1050.33333333333 1151.33333333333 1017 1167 973 1167 L 821 1167 Z M 283 1405 L 274 1405 L 268 1392 C 262.66666666667 1380 254 1366.66666666667 242 1352 C 229.33333333333 1337.33333333333 204 1312 166 1276 L 207 1239 C 241.66666666667 1207.66666666667 262.33333333333 1182.33333333333 269 1163 L 274 1149 L 283 1149 L 289 1163 C 297.66666666667 1185 316.66666666667 1209 346 1235 L 391 1276 L 346 1319 C 316 1347.66666666667 297 1372 289 1392 L 283 1405 Z M 1518 1405 L 1509 1405 L 1503 1392 C 1497.66666666667 1380 1489 1366.66666666667 1477 1352 C 1464.33333333333 1337.33333333333 1439 1312 1401 1276 L 1442 1239 C 1476.66666666667 1207.66666666667 1497.33333333333 1182.33333333333 1504 1163 L 1509 1149 L 1518 1149 L 1524 1163 C 1532.66666666667 1185 1551.66666666667 1209 1581 1235 L 1626 1276 L 1581 1319 C 1551 1347.66666666667 1532 1372 1524 1392 L 1518 1405 Z M 891 1757 L 885 1743 C 872.33333333333 1712.33333333333 839.33333333333 1655.66666666667 786 1573 L 891 1569 C 940.33333333333 1569 978 1570.33333333333 1004 1573 L 899 1757 L 891 1757 Z"/>
</svg>
