<svg width="52761" height="4700" viewBox="0 0 52761 4700" xmlns="http://www.w3.org/2000/svg">
    <defs/>
    <path fill="#000000" stroke="none" transform="matrix(1 0 0 -1 0 3000)" d="M 894 1000 C 850 1000 816.33333333333 992.33333333333 793 977 C 768.33333333333 960.33333333333 756 934.66666666667 756 900 C 756 860 796.66666666667 840 878 840 C 833.33333333333 780 787.66666666667 750 741 750 C 697.66666666667 750 661.33333333333 762.66666666667 632 788 C 603.33333333333 812.66666666667 589 850 589 900 C 589 968 615 1025.66666666667 667 1073 C 718.33333333333 1120.33333333333 794 1144 894 1144 C 993.33333333333 1144 1069.33333333333 1120.66666666667 1122 1074 C 1174 1026.66666666667 1200 968.66666666667 1200 900 C 1200 863.33333333333 1189 824.66666666667 1167 784 C 1140.33333333333 733.33333333333 1097 679.66666666667 1037 623 C 1084.33333333333 609 1121.33333333333 586.66666666667 1148 556 C 1182.66666666667 515.33333333333 1200 460 1200 390 L 1200 300 C 1200 233.33333333333 1158.33333333333 166.66666666667 1075 100 C 991.66666666667 33.33333333333 883.33333333333 0 750 0 L 700 0 C 566.66666666667 0 458.33333333333 33.33333333333 375 100 C 291.66666666667 166.66666666667 250 233.33333333333 250 300 L 250 1200 C 250 1266.66666666667 291.66666666667 1333.33333333333 375 1400 C 458.33333333333 1466.66666666667 566.66666666667 1500 700 1500 L 750 1500 C 883.33333333333 1500 991.66666666667 1466.66666666667 1075 1400 L 1200 1300 L 1012 1258 L 934 1307 C 882 1339.66666666667 820.66666666667 1356 750 1356 L 700 1356 C 629.33333333333 1356 568 1339.66666666667 516 1307 C 464 1274.33333333333 438 1238.66666666667 438 1200 L 438 300 C 438 261.33333333333 464 225.66666666667 516 193 C 568 160.33333333333 629.33333333333 144 700 144 L 750 144 C 820.66666666667 144 882 160.33333333333 934 193 C 986 225.66666666667 1012 261.33333333333 1012 300 L 1012 390 C 1012 439.33333333333 1006.33333333333 475 995 497 C 983 518.33333333333 963.33333333333 531.66666666667 936 537 C 929.33333333333 531 922 525.33333333333 914 520 L 700 355 C 676.66666666667 337 654.66666666667 328 634 328 C 612.66666666667 328 593 337.66666666667 575 357 C 558.33333333333 374.33333333333 550 391 550 407 C 550 426.33333333333 562 445 586 463 L 778 611 C 882 691.66666666667 954.66666666667 759 996 813 C 1020.66666666667 847.66666666667 1033 876.66666666667 1033 900 C 1033 935.33333333333 1020 961.33333333333 994 978 C 970.66666666667 992.66666666667 937.33333333333 1000 894 1000 Z"/>
    <path fill="#000000" stroke="none" transform="matrix(1 0 0 -1 1450 3000)" d="M 438 1139 C 451.33333333333 1139 463 1142.33333333333 473 1149 C 483 1156.33333333333 488 1168.33333333333 488 1185 C 488 1205.66666666667 471.33333333333 1232.66666666667 438 1266 L 438 1139 Z M 438 300 C 438 261.33333333333 464 225.66666666667 516 193 C 568 160.33333333333 629.33333333333 144 700 144 L 750 144 C 820.66666666667 144 882 160.33333333333 934 193 C 986 225.66666666667 1012 261.33333333333 1012 300 L 1012 993 L 925 1046 C 866.33333333333 1081.33333333333 837 1109.66666666667 837 1131 C 837 1151.66666666667 855.66666666667 1190.33333333333 893 1247 L 1061 1500 L 1169 1438 L 1223 1406 C 1254.33333333333 1388 1281 1379 1303 1379 C 1307 1379 1310.66666666667 1379.33333333333 1314 1380 L 1350 1385 C 1350 1361.66666666667 1336.33333333333 1328.66666666667 1309 1286 C 1281.66666666667 1243.33333333333 1254.33333333333 1220 1227 1216 C 1223 1215.33333333333 1218.66666666667 1215 1214 1215 C 1188.66666666667 1215 1157 1226.33333333333 1119 1249 L 1051 1288 L 1008 1213 L 1200 1100 L 1200 300 C 1200 261.33333333333 1226 225.66666666667 1278 193 C 1330 160.33333333333 1391.33333333333 144 1462 144 C 1532.66666666667 144 1594 160.33333333333 1646 193 C 1698 225.66666666667 1724 261.33333333333 1724 300 L 1724 993 L 1637 1046 C 1578.33333333333 1081.33333333333 1549 1109.66666666667 1549 1131 C 1549 1151.66666666667 1567.66666666667 1190.33333333333 1605 1247 L 1773 1500 L 1881 1438 L 1935 1406 C 1966.33333333333 1388 1993 1379 2015 1379 C 2019 1379 2022.66666666667 1379.33333333333 2026 1380 L 2062 1385 C 2062 1361.66666666667 2048.33333333333 1328.66666666667 2021 1286 C 1993.66666666667 1243.33333333333 1966.33333333333 1220 1939 1216 C 1935 1215.33333333333 1930.66666666667 1215 1926 1215 C 1900.66666666667 1215 1869 1226.33333333333 1831 1249 L 1763 1288 L 1720 1213 L 1912 1100 L 1912 300 C 1912 233.33333333333 1870.33333333333 166.66666666667 1787 100 C 1703.66666666667 33.33333333333 1595.33333333333 0 1462 0 C 1328.66666666667 0 1220.33333333333 33.33333333333 1137 100 C 1125.66666666667 108.66666666667 1115.33333333333 117.66666666667 1106 127 C 1096.66666666667 117.66666666667 1086.33333333333 108.66666666667 1075 100 C 991.66666666667 33.33333333333 883.33333333333 0 750 0 L 700 0 C 566.66666666667 0 458.33333333333 33.33333333333 375 100 C 291.66666666667 166.66666666667 250 233.33333333333 250 300 L 250 1400 C 250 1466.66666666667 291.33333333333 1500 374 1500 C 416.66666666667 1500 460 1468.66666666667 504 1406 C 547.33333333333 1342.66666666667 576.33333333333 1294.33333333333 591 1261 C 605.66666666667 1228.33333333333 613 1193 613 1155 C 613 1118.33333333333 600.33333333333 1083.33333333333 575 1050 C 550.33333333333 1016.66666666667 504.66666666667 1000 438 1000 L 438 300 Z"/>
    <path fill="#000000" stroke="none" transform="matrix(1 0 0 -1 3612 3000)" d="M 275 361 C 261.66666666667 361 250 357.66666666667 240 351 C 230 343.66666666667 225 331.66666666667 225 315 C 225 294.33333333333 241.66666666667 267.33333333333 275 234 L 275 361 Z M 463 0 L 275 0 L 210 95 C 166 157.66666666667 136.66666666667 205.66666666667 122 239 C 107.33333333333 271.66666666667 100 307 100 345 C 100 381.66666666667 112.66666666667 416.66666666667 138 450 C 162.66666666667 483.33333333333 208.33333333333 500 275 500 L 275 993 L 188 1046 C 129.33333333333 1081.33333333333 100 1109.66666666667 100 1131 C 100 1151.66666666667 118.66666666667 1190.33333333333 156 1247 L 324 1500 L 432 1438 L 486 1406 C 517.33333333333 1388 544 1379 566 1379 C 570 1379 573.66666666667 1379.33333333333 577 1380 L 613 1385 C 613 1361.66666666667 599.33333333333 1328.66666666667 572 1286 C 544.66666666667 1243.33333333333 517.33333333333 1220 490 1216 C 486 1215.33333333333 481.66666666667 1215 477 1215 C 451.66666666667 1215 420 1226.33333333333 382 1249 L 314 1288 L 271 1213 L 463 1100 L 463 0 Z"/>
    <path fill="#000000" stroke="none" transform="matrix(1 0 0 -1 4325 3000)" d="M 438 234 C 471.33333333333 267.33333333333 488 294.33333333333 488 315 C 488 331.66666666667 483 343.66666666667 473 351 C 463 357.66666666667 451.33333333333 361 438 361 L 438 234 Z M 1200 0 L 1012 0 L 1012 1200 C 1012 1238.66666666667 986 1274.33333333333 934 1307 C 882 1339.66666666667 820.66666666667 1356 750 1356 L 700 1356 C 629.33333333333 1356 568 1339.66666666667 516 1307 C 464 1274.33333333333 438 1238.66666666667 438 1200 L 438 500 C 504.66666666667 500 550.33333333333 483.33333333333 575 450 C 600.33333333333 416.66666666667 613 381.66666666667 613 345 C 613 307 605.66666666667 271.66666666667 591 239 C 576.33333333333 205.66666666667 547.33333333333 157.66666666667 504 95 L 438 0 L 250 0 L 250 1200 C 250 1266.66666666667 291.66666666667 1333.33333333333 375 1400 C 458.33333333333 1466.66666666667 566.66666666667 1500 700 1500 L 750 1500 C 883.33333333333 1500 991.66666666667 1466.66666666667 1075 1400 C 1158.33333333333 1333.33333333333 1200 1266.66666666667 1200 1200 L 1200 0 Z M 1724 993 L 1637 1046 C 1578.33333333333 1081.33333333333 1549 1109.66666666667 1549 1131 C 1549 1151.66666666667 1600.33333333333 1274.66666666667 1703 1500 C 1793 1412 1848.33333333333 1368 1869 1368 L 1872 1368 C 1890 1373.33333333333 1899 1397.33333333333 1899 1440 C 1899 1481.33333333333 1867 1515.33333333333 1803 1542 C 1747.66666666667 1565.33333333333 1720 1593 1720 1625 C 1720 1630.33333333333 1720.66666666667 1635.66666666667 1722 1641 C 1732 1680.33333333333 1759.66666666667 1700 1805 1700 C 1849.66666666667 1700 1899.66666666667 1680 1955 1640 C 2009.66666666667 1600 2037 1533.33333333333 2037 1440 C 2037 1352 2020.33333333333 1291 1987 1257 C 1953 1223 1921.33333333333 1206 1892 1206 C 1862 1206 1809 1229 1733 1275 L 1709 1215 L 1912 1100 L 1912 -450 C 1912 -583.33333333333 1833 -650 1675 -650 L 1200 -650 C 1041.33333333333 -650 962 -583.33333333333 962 -450 L 962 -350 C 962 -311.33333333333 936 -275.66666666667 884 -243 C 832 -210.33333333333 779 -194 725 -194 C 671 -194 618 -210.33333333333 566 -243 C 514 -275.66666666667 488 -311.33333333333 488 -350 L 488 -400 C 548 -400 587.33333333333 -408.33333333333 606 -425 C 624 -441.66666666667 633 -462 633 -486 C 633 -536.66666666667 609 -576.66666666667 561 -606 C 512.33333333333 -635.33333333333 466.66666666667 -650 424 -650 C 341.33333333333 -650 300 -616.66666666667 300 -550 L 300 -350 C 300 -283.33333333333 341.66666666667 -216.66666666667 425 -150 C 508.33333333333 -83.33333333333 608.33333333333 -50 725 -50 C 841.66666666667 -50 941.66666666667 -83.33333333333 1025 -150 C 1108.33333333333 -216.66666666667 1150 -283.33333333333 1150 -350 L 1150 -450 C 1150 -494 1198 -516 1294 -516 L 1581 -516 C 1676.33333333333 -516 1724 -494 1724 -450 L 1724 993 Z"/>
    <path fill="#000000" stroke="none" transform="matrix(1 0 0 -1 6462 3000)" d="M 438 222 C 503.33333333333 282 536 337.66666666667 536 389 C 536 415.66666666667 527 435.33333333333 509 448 C 491 460 467.33333333333 466 438 466 L 438 222 Z M 1200 0 L 1012 0 L 1012 1169 C 1012 1219.66666666667 1000.66666666667 1252 978 1266 L 910 1307 C 902.66666666667 1311 895.33333333333 1313 888 1313 C 872 1313 856 1303.66666666667 840 1285 L 785 1225 C 747.66666666667 1185 709.66666666667 1165 671 1165 C 618.33333333333 1165.66666666667 573.66666666667 1182.33333333333 537 1215 L 464 1283 C 447.33333333333 1299 432.33333333333 1307 419 1307 C 410.33333333333 1307 402.33333333333 1304 395 1298 L 351 1260 C 347 1256 345 1251 345 1245 C 345 1222.33333333333 376 1185.33333333333 438 1134 L 438 600 C 534.66666666667 600 597.66666666667 580.33333333333 627 541 C 655.66666666667 501 670 459 670 415 C 670 363 656.66666666667 308 630 250 C 603.33333333333 191.33333333333 564.66666666667 135 514 81 L 438 0 L 250 0 L 250 1062 C 183.33333333333 1133.33333333333 150 1183.33333333333 150 1212 C 150 1240.66666666667 194.33333333333 1296 283 1378 C 371 1459.33333333333 430.33333333333 1500 461 1500 C 493 1500 540.66666666667 1470.66666666667 604 1412 L 678 1340 C 682 1336.66666666667 686.66666666667 1335 692 1335 C 705.33333333333 1335 722 1345.66666666667 742 1367 L 783 1412 C 838.33333333333 1470.66666666667 883.33333333333 1500 918 1500 C 942.66666666667 1500 975.33333333333 1487.33333333333 1016 1462 L 1078 1423 C 1104 1406.33333333333 1126 1386.33333333333 1144 1363 C 1151.33333333333 1370.33333333333 1159 1377.66666666667 1167 1385 C 1250.33333333333 1461.66666666667 1348.66666666667 1500 1462 1500 C 1595.33333333333 1500 1703.66666666667 1461.66666666667 1787 1385 C 1870.33333333333 1308.33333333333 1912 1230 1912 1150 L 1912 0 L 1724 0 L 1724 1150 C 1724 1202 1698 1249.33333333333 1646 1292 C 1594 1334.66666666667 1532.66666666667 1356 1462 1356 C 1398 1356 1338.33333333333 1334.66666666667 1283 1292 C 1227.66666666667 1249.33333333333 1200 1202 1200 1150 L 1200 0 Z M 1615 -200 C 1615 -166.66666666667 1625 -141.66666666667 1645 -125 C 1665.66666666667 -108.33333333333 1697 -100 1739 -100 C 1796.33333333333 -100 1839.33333333333 -116.66666666667 1868 -150 C 1897.33333333333 -183.33333333333 1912 -233.33333333333 1912 -300 C 1912 -400 1876.33333333333 -475 1805 -525 C 1733.66666666667 -575 1640.33333333333 -600 1525 -600 C 1435 -600 1352.33333333333 -587.33333333333 1277 -562 C 1203 -537.33333333333 1126 -495.66666666667 1046 -437 C 966.66666666667 -379 885.66666666667 -333.33333333333 803 -300 C 721 -266.66666666667 651 -250 593 -250 C 532.33333333333 -250 472.33333333333 -257.33333333333 413 -272 C 353.66666666667 -287.33333333333 299.33333333333 -310 250 -340 C 250 -300 262 -265.66666666667 286 -237 C 311.33333333333 -209 352 -179 408 -147 C 464 -115.66666666667 539 -100 633 -100 C 739 -100 834.66666666667 -115.66666666667 920 -147 C 1005.33333333333 -178.33333333333 1092.33333333333 -226.33333333333 1181 -291 C 1269 -355.66666666667 1338 -401 1388 -427 C 1438 -453 1490.33333333333 -466 1545 -466 C 1591.66666666667 -466 1633.33333333333 -455 1670 -433 C 1706 -411 1724 -366.66666666667 1724 -300 C 1724 -290 1723.33333333333 -281 1722 -273 C 1712 -278.33333333333 1701.66666666667 -281 1691 -281 C 1678.33333333333 -281 1666 -277.33333333333 1654 -270 C 1641.33333333333 -262.66666666667 1631.66666666667 -252.66666666667 1625 -240 C 1618.33333333333 -227.33333333333 1615 -214 1615 -200 Z"/>
    <path fill="#000000" stroke="none" transform="matrix(1 0 0 -1 8624 3000)" d="M 438 222 C 503.33333333333 282 536 337.66666666667 536 389 C 536 415.66666666667 527 435.33333333333 509 448 C 491 460 467.33333333333 466 438 466 L 438 222 Z M 962 1149 L 813 1217 L 784 1230 L 763 1240 L 642 1296 C 604 1313.33333333333 574.66666666667 1322 554 1322 C 516.66666666667 1322 473.33333333333 1303.33333333333 424 1266 C 374.66666666667 1228.66666666667 342 1200.66666666667 326 1182 L 377 1148 C 417.66666666667 1122.66666666667 438 1090 438 1050 L 438 600 C 534.66666666667 600 597.66666666667 580.33333333333 627 541 C 655.66666666667 501 670 459 670 415 C 670 363 656.66666666667 308 630 250 C 603.33333333333 191.33333333333 564.66666666667 135 514 81 L 438 0 L 250 0 L 250 1008 L 188 1046 C 156 1065.33333333333 140 1096.66666666667 140 1140 C 140 1183.33333333333 167.66666666667 1229.66666666667 223 1279 L 348 1389 C 430.66666666667 1463 503 1500 565 1500 C 620.33333333333 1500 672 1489 720 1467 L 841 1412 L 1042 1320 C 1114 1286.66666666667 1150 1229.66666666667 1150 1149 L 1150 186 L 1412 402 L 1674 186 L 1674 1008 L 1612 1046 C 1580 1065.33333333333 1564 1096.66666666667 1564 1140 C 1564 1183.33333333333 1591.66666666667 1229.66666666667 1647 1279 L 1772 1389 C 1854.66666666667 1463 1927 1500 1989 1500 C 2044.33333333333 1500 2096 1489 2144 1467 L 2265 1412 L 2466 1320 C 2538 1286.66666666667 2574 1229.66666666667 2574 1149 L 2574 0 L 2386 0 L 2386 1149 L 2237 1217 L 2208 1230 L 2187 1240 L 2066 1296 C 2028 1313.33333333333 1998.66666666667 1322 1978 1322 C 1940.66666666667 1322 1897.33333333333 1303.33333333333 1848 1266 C 1798.66666666667 1228.66666666667 1766 1200.66666666667 1750 1182 L 1801 1148 C 1841.66666666667 1122.66666666667 1862 1090 1862 1050 L 1862 0 L 1674 0 L 1412 215 L 1150 0 L 962 0 L 962 1149 Z"/>
    <path fill="#000000" stroke="none" transform="matrix(1 0 0 -1 11980 3000)" d="M 1225 -250 C 1225 -350 1173.33333333333 -425 1070 -475 C 967.33333333333 -525 813 -550 607 -550 C 503.66666666667 -550 416 -539.33333333333 344 -518 C 272 -496 215.66666666667 -463.33333333333 175 -420 C 299 -440 443.33333333333 -450 608 -450 C 755.33333333333 -450 866 -433.33333333333 940 -400 C 1013.33333333333 -366.66666666667 1050 -316.66666666667 1050 -250 C 1050 -233.33333333333 1044 -220.66666666667 1032 -212 C 1019.33333333333 -204 1000.66666666667 -200 976 -200 C 976 -166.66666666667 986.33333333333 -141.66666666667 1007 -125 C 1027.66666666667 -108.33333333333 1058.66666666667 -100 1100 -100 C 1142 -100 1173.33333333333 -112.66666666667 1194 -138 C 1214.66666666667 -162.66666666667 1225 -200 1225 -250 Z M 1037 993 L 950 1046 C 891.33333333333 1081.33333333333 862 1109.66666666667 862 1131 C 862 1151.66666666667 880.66666666667 1190.33333333333 918 1247 L 1086 1500 L 1194 1438 L 1248 1406 C 1279.33333333333 1388 1306 1379 1328 1379 C 1332 1379 1335.66666666667 1379.33333333333 1339 1380 L 1375 1385 C 1375 1361.66666666667 1361.33333333333 1328.66666666667 1334 1286 C 1306.66666666667 1243.33333333333 1279.33333333333 1220 1252 1216 C 1248 1215.33333333333 1243.66666666667 1215 1239 1215 C 1213.66666666667 1215 1182 1226.33333333333 1144 1249 L 1076 1288 L 1033 1213 L 1225 1100 L 1225 300 C 1225 233.33333333333 1183.33333333333 166.66666666667 1100 100 C 1016.66666666667 33.33333333333 908.33333333333 0 775 0 L 725 0 C 591.66666666667 0 483.33333333333 33.33333333333 400 100 C 316.66666666667 166.66666666667 275 233.33333333333 275 300 L 275 993 L 188 1046 C 129.33333333333 1081.33333333333 100 1109.66666666667 100 1131 C 100 1151.66666666667 118.66666666667 1190.33333333333 156 1247 L 324 1500 L 432 1438 L 486 1406 C 517.33333333333 1388 544 1379 566 1379 C 570 1379 573.66666666667 1379.33333333333 577 1380 L 613 1385 C 613 1361.66666666667 599.33333333333 1328.66666666667 572 1286 C 544.66666666667 1243.33333333333 517.33333333333 1220 490 1216 C 486 1215.33333333333 481.66666666667 1215 477 1215 C 451.66666666667 1215 420 1226.33333333333 382 1249 L 314 1288 L 271 1213 L 463 1100 L 463 300 C 463 261.33333333333 489 225.66666666667 541 193 C 593 160.33333333333 654.33333333333 144 725 144 L 775 144 C 845.66666666667 144 907 160.33333333333 959 193 C 1011 225.66666666667 1037 261.33333333333 1037 300 L 1037 993 Z"/>
    <path fill="#000000" stroke="none" transform="matrix(1 0 0 -1 13455 3000)" d="M 438 1025 L 438 950 C 470 950 486 966.66666666667 486 1000 C 486 1008 481.66666666667 1014.33333333333 473 1019 C 465 1023 453.33333333333 1025 438 1025 Z M 1012 1050 L 1012 1200 C 1012 1238.66666666667 986 1274.33333333333 934 1307 C 882 1339.66666666667 820.66666666667 1356 750 1356 L 700 1356 C 629.33333333333 1356 568 1339.66666666667 516 1307 C 464 1274.33333333333 438 1238.66666666667 438 1200 L 438 1125 C 487.33333333333 1125 524.33333333333 1114.66666666667 549 1094 C 573.66666666667 1072.66666666667 586 1041.33333333333 586 1000 C 586 900 536.66666666667 850 438 850 C 312.66666666667 850 250 883.33333333333 250 950 L 250 1200 C 250 1266.66666666667 291.66666666667 1333.33333333333 375 1400 C 458.33333333333 1466.66666666667 566.66666666667 1500 700 1500 L 750 1500 C 883.33333333333 1500 991.66666666667 1466.66666666667 1075 1400 C 1158.33333333333 1333.33333333333 1200 1266.66666666667 1200 1200 L 1200 1050 C 1200 935.33333333333 1073 812.33333333333 819 681 L 438 485 L 438 300 C 438 261.33333333333 464 225.66666666667 516 193 C 568 160.33333333333 629.33333333333 144 700 144 L 750 144 C 820.66666666667 144 882 160.33333333333 934 193 C 986 225.66666666667 1012 261.33333333333 1012 300 L 1012 600 L 1200 700 L 1200 300 C 1200 233.33333333333 1158.33333333333 166.66666666667 1075 100 C 991.66666666667 33.33333333333 883.33333333333 0 750 0 L 700 0 C 566.66666666667 0 458.33333333333 33.33333333333 375 100 C 291.66666666667 166.66666666667 250 233.33333333333 250 300 L 250 550 L 726 795 C 916.66666666667 893.66666666667 1012 978.66666666667 1012 1050 Z"/>
    <path fill="#000000" stroke="none" transform="matrix(1 0 0 -1 14905 3000)" d="M 438 234 C 471.33333333333 267.33333333333 488 294.33333333333 488 315 C 488 331.66666666667 483 343.66666666667 473 351 C 463 357.66666666667 451.33333333333 361 438 361 L 438 234 Z M 250 750 C 250 816.66666666667 291.66666666667 883.33333333333 375 950 C 458.33333333333 1016.66666666667 566.66666666667 1050 700 1050 L 750 1050 C 883.33333333333 1050 991.66666666667 1016.66666666667 1075 950 C 1158.33333333333 883.33333333333 1200 816.66666666667 1200 750 L 1200 0 L 1012 0 L 1012 750 C 1012 788.66666666667 986 824.33333333333 934 857 C 882 889.66666666667 820.66666666667 906 750 906 L 700 906 C 629.33333333333 906 568 889.66666666667 516 857 C 464 824.33333333333 438 788.66666666667 438 750 L 438 500 C 504.66666666667 500 550.33333333333 483.33333333333 575 450 C 600.33333333333 416.66666666667 613 381.66666666667 613 345 C 613 307 605.66666666667 271.66666666667 591 239 C 576.33333333333 205.66666666667 547.33333333333 157.66666666667 504 95 L 438 0 L 250 0 L 250 750 Z M 180 1127 L 180 1202 C 180 1236.66666666667 223.66666666667 1294.66666666667 311 1376 C 398.33333333333 1458.66666666667 452.66666666667 1500 474 1500 C 498.66666666667 1500 547 1462.66666666667 619 1388 C 693 1316 773.33333333333 1280 860 1280 C 928 1280 979.33333333333 1291.66666666667 1014 1315 C 1048.66666666667 1338.33333333333 1066 1373.33333333333 1066 1420 C 1066 1488 1017.33333333333 1522 920 1522 C 853.33333333333 1522 820 1553 820 1615 C 820 1671.66666666667 853.33333333333 1700 920 1700 C 1006.66666666667 1700 1075 1673 1125 1619 C 1175 1565 1200 1498.66666666667 1200 1420 C 1200 1325.33333333333 1171.66666666667 1252.66666666667 1115 1202 C 1057.66666666667 1151.33333333333 972.66666666667 1126 860 1126 C 705.33333333333 1126 599.33333333333 1153.33333333333 542 1208 L 498 1248 C 469.33333333333 1274.66666666667 445.66666666667 1288 427 1288 C 398.33333333333 1288 375 1277.33333333333 357 1256 C 339 1234.66666666667 330 1208.66666666667 330 1178 C 330 1144.66666666667 375.66666666667 1104.66666666667 467 1058 L 338 967 C 232.66666666667 1007.66666666667 180 1061 180 1127 Z"/>
    <path fill="#000000" stroke="none" transform="matrix(1 0 0 -1 16355 3000)" d="M 1887 1114 L 1887 0 L 1699 0 L 1699 1114 L 1304 1296 C 1266 1313.33333333333 1236.66666666667 1322 1216 1322 C 1168.66666666667 1322 1106 1276.66666666667 1028 1186 L 1175 1100 L 1175 300 C 1175 233.33333333333 1133.33333333333 166.66666666667 1050 100 C 966.66666666667 33.33333333333 858.33333333333 0 725 0 C 591.66666666667 0 483.33333333333 33.33333333333 400 100 C 316.66666666667 166.66666666667 275 233.33333333333 275 300 L 275 993 L 188 1046 C 129.33333333333 1081.33333333333 100 1109.66666666667 100 1131 C 100 1151.66666666667 118.66666666667 1190.33333333333 156 1247 L 324 1500 L 432 1438 L 486 1406 C 517.33333333333 1388 544 1379 566 1379 C 570 1379 573.66666666667 1379.33333333333 577 1380 L 613 1385 C 613 1361.66666666667 599.33333333333 1328.66666666667 572 1286 C 544.66666666667 1243.33333333333 517.33333333333 1220 490 1216 C 486 1215.33333333333 481.66666666667 1215 477 1215 C 451.66666666667 1215 420 1226.33333333333 382 1249 L 314 1288 L 271 1213 L 463 1100 L 463 300 C 463 261.33333333333 489 225.66666666667 541 193 C 593 160.33333333333 654.33333333333 144 725 144 C 795.66666666667 144 857 160.33333333333 909 193 C 961 225.66666666667 987 261.33333333333 987 300 L 987 993 L 900 1046 C 841.33333333333 1081.33333333333 812 1109.66666666667 812 1131 C 812 1151.66666666667 839 1190.33333333333 893 1247 L 1013 1373 C 1093.66666666667 1457.66666666667 1165 1500 1227 1500 C 1282.33333333333 1500 1334 1489 1382 1467 L 1779 1285 C 1851 1251.66666666667 1887 1194.66666666667 1887 1114 Z"/>
    <path fill="#000000" stroke="none" transform="matrix(1 0 0 -1 18492 3000)" d="M 438 234 C 471.33333333333 267.33333333333 488 294.33333333333 488 315 C 488 331.66666666667 483 343.66666666667 473 351 C 463 357.66666666667 451.33333333333 361 438 361 L 438 234 Z M 492 1016 L 420 1049 C 340 1085.66666666667 300 1113 300 1131 C 300 1151.66666666667 325.33333333333 1190.33333333333 376 1247 L 605 1500 L 826 1400 C 864.66666666667 1382 898.33333333333 1373 927 1373 C 935 1373 942.66666666667 1373.66666666667 950 1375 L 1000 1385 C 1000 1361.66666666667 989 1329.66666666667 967 1289 C 944.33333333333 1248.33333333333 914.66666666667 1222.33333333333 878 1211 C 865.33333333333 1207 852 1205 838 1205 C 810.66666666667 1205 780.33333333333 1212.66666666667 747 1228 L 592 1299 L 523 1210 L 727 1115 C 763 1098.33333333333 784.66666666667 1076.33333333333 792 1049 C 906 1042.33333333333 1000.33333333333 1009.33333333333 1075 950 C 1158.33333333333 883.33333333333 1200 816.66666666667 1200 750 L 1200 300 C 1200 261.33333333333 1226 225.66666666667 1278 193 C 1330 160.33333333333 1391.33333333333 144 1462 144 C 1532.66666666667 144 1594 160.33333333333 1646 193 C 1698 225.66666666667 1724 261.33333333333 1724 300 L 1724 993 L 1637 1046 C 1578.33333333333 1081.33333333333 1549 1109.66666666667 1549 1131 C 1549 1151.66666666667 1567.66666666667 1190.33333333333 1605 1247 L 1773 1500 L 1881 1438 L 1935 1406 C 1966.33333333333 1388 1993 1379 2015 1379 C 2019 1379 2022.66666666667 1379.33333333333 2026 1380 L 2062 1385 C 2062 1361.66666666667 2048.33333333333 1328.66666666667 2021 1286 C 1993.66666666667 1243.33333333333 1966.33333333333 1220 1939 1216 C 1935 1215.33333333333 1930.66666666667 1215 1926 1215 C 1900.66666666667 1215 1869 1226.33333333333 1831 1249 L 1763 1288 L 1720 1213 L 1912 1100 L 1912 300 C 1912 233.33333333333 1870.33333333333 166.66666666667 1787 100 C 1703.66666666667 33.33333333333 1595.33333333333 0 1462 0 C 1328.66666666667 0 1220.33333333333 33.33333333333 1137 100 C 1053.66666666667 166.66666666667 1012 233.33333333333 1012 300 L 1012 750 C 1012 788.66666666667 986 824.33333333333 934 857 C 882 889.66666666667 820.66666666667 906 750 906 L 700 906 C 629.33333333333 906 568 889.66666666667 516 857 C 464 824.33333333333 438 788.66666666667 438 750 L 438 500 C 504.66666666667 500 550.33333333333 483.33333333333 575 450 C 600.33333333333 416.66666666667 613 381.66666666667 613 345 C 613 307 605.66666666667 271.66666666667 591 239 C 576.33333333333 205.66666666667 547.33333333333 157.66666666667 504 95 L 438 0 L 250 0 L 250 750 C 250 816.66666666667 291.66666666667 883.33333333333 375 950 C 409.66666666667 978 448.66666666667 1000 492 1016 Z"/>
    <path fill="#000000" stroke="none" transform="matrix(1 0 0 -1 20654 3000)" d="M 438 222 C 503.33333333333 282 536 337.66666666667 536 389 C 536 415.66666666667 527 435.33333333333 509 448 C 491 460 467.33333333333 466 438 466 L 438 222 Z M 438 600 C 534.66666666667 600 597.66666666667 580.33333333333 627 541 C 655.66666666667 501 670 459 670 415 C 670 363 656.66666666667 308 630 250 C 603.33333333333 191.33333333333 564.66666666667 135 514 81 L 438 0 L 250 0 L 250 1062 C 183.33333333333 1133.33333333333 150 1183.33333333333 150 1212 C 150 1240.66666666667 194.33333333333 1296 283 1378 C 371 1459.33333333333 430.33333333333 1500 461 1500 C 493 1500 540.66666666667 1470.66666666667 604 1412 L 678 1340 C 682 1336.66666666667 686.66666666667 1335 692 1335 C 705.33333333333 1335 722 1345.66666666667 742 1367 L 783 1412 C 838.33333333333 1470.66666666667 883.33333333333 1500 918 1500 C 942.66666666667 1500 975.33333333333 1487.33333333333 1016 1462 L 1078 1423 C 1159.33333333333 1371.66666666667 1200 1287 1200 1169 L 1200 0 L 1012 0 L 1012 1169 C 1012 1219.66666666667 1000.66666666667 1252 978 1266 L 910 1307 C 902.66666666667 1311 895.33333333333 1313 888 1313 C 872 1313 856 1303.66666666667 840 1285 L 785 1225 C 747.66666666667 1185 709.66666666667 1165 671 1165 C 618.33333333333 1165.66666666667 573.66666666667 1182.33333333333 537 1215 L 464 1283 C 447.33333333333 1299 432.33333333333 1307 419 1307 C 410.33333333333 1307 402.33333333333 1304 395 1298 L 351 1260 C 347 1256 345 1251 345 1245 C 345 1222.33333333333 376 1185.33333333333 438 1134 L 438 600 Z M 1200 -250 C 1200 -350 1148.33333333333 -425 1045 -475 C 942.33333333333 -525 788 -550 582 -550 C 478.66666666667 -550 391 -539.33333333333 319 -518 C 247 -496 190.66666666667 -463.33333333333 150 -420 C 274 -440 418.33333333333 -450 583 -450 C 730.33333333333 -450 841 -433.33333333333 915 -400 C 988.33333333333 -366.66666666667 1025 -316.66666666667 1025 -250 C 1025 -233.33333333333 1019 -220.66666666667 1007 -212 C 994.33333333333 -204 975.66666666667 -200 951 -200 C 951 -166.66666666667 961.33333333333 -141.66666666667 982 -125 C 1002.66666666667 -108.33333333333 1033.66666666667 -100 1075 -100 C 1117 -100 1148.33333333333 -112.66666666667 1169 -138 C 1189.66666666667 -162.66666666667 1200 -200 1200 -250 Z"/>
    <path fill="#000000" stroke="none" transform="matrix(1 0 0 -1 22636 3000)" d="M 438 1025 L 438 950 C 470 950 486 966.66666666667 486 1000 C 486 1008 481.66666666667 1014.33333333333 473 1019 C 465 1023 453.33333333333 1025 438 1025 Z M 1012 1200 C 1012 1238.66666666667 986 1274.33333333333 934 1307 C 882 1339.66666666667 820.66666666667 1356 750 1356 L 700 1356 C 629.33333333333 1356 568 1339.66666666667 516 1307 C 464 1274.33333333333 438 1238.66666666667 438 1200 L 438 1125 C 487.33333333333 1125 524.33333333333 1114.66666666667 549 1094 C 573.66666666667 1072.66666666667 586 1041.33333333333 586 1000 C 586 900 536.66666666667 850 438 850 C 312.66666666667 850 250 883.33333333333 250 950 L 250 1200 C 250 1266.66666666667 291.66666666667 1333.33333333333 375 1400 C 458.33333333333 1466.66666666667 566.66666666667 1500 700 1500 L 750 1500 C 883.33333333333 1500 991.66666666667 1466.66666666667 1075 1400 C 1158.33333333333 1333.33333333333 1200 1266.66666666667 1200 1200 L 1200 1050 C 1200 935.33333333333 1073 812.33333333333 819 681 L 438 485 L 438 250 C 438 214.66666666667 446 188.33333333333 462 171 C 478 153 499.66666666667 144 527 144 C 566.33333333333 144 603 158 637 186 C 737.66666666667 270 812.33333333333 326.66666666667 861 356 C 910.33333333333 385.33333333333 960.66666666667 400 1012 400 L 1012 583 L 1200 673 L 1200 50 C 1200 -50 1148.66666666667 -100 1046 -100 C 976.66666666667 -100 942 -76 942 -28 C 988.66666666667 -6.66666666667 1012 22.66666666667 1012 60 L 1012 266 C 980 266 948.33333333333 255.66666666667 917 235 C 885.66666666667 213.66666666667 827.66666666667 169.33333333333 743 102 C 658.33333333333 34 586.33333333333 0 527 0 C 441 0 373.33333333333 19.33333333333 324 58 C 274.66666666667 97.33333333333 250 161.33333333333 250 250 L 250 550 L 726 795 C 916.66666666667 893.66666666667 1012 978.66666666667 1012 1050 L 1012 1200 Z M 1250 1694 C 1250 1569.33333333333 1208 1483 1124 1435 C 1126 1443 1127 1451.66666666667 1127 1461 C 1127 1509.66666666667 1098.66666666667 1568 1042 1636 C 954 1726.66666666667 840 1772 700 1772 C 496 1772 380 1748.33333333333 352 1701 C 337.33333333333 1676.33333333333 330 1652 330 1628 C 330 1594.66666666667 375.66666666667 1554.66666666667 467 1508 L 338 1417 C 232.66666666667 1457.66666666667 180 1511 180 1577 L 180 1652 C 180 1686.66666666667 201.66666666667 1724.33333333333 245 1765 L 311 1826 C 405 1908.66666666667 534.66666666667 1950 700 1950 C 862.66666666667 1950 999 1908.33333333333 1109 1825 L 1109 1846 C 1109 1938 1079.66666666667 2004.33333333333 1021 2045 L 974 2078 C 955.33333333333 2090.66666666667 946 2105.66666666667 946 2123 C 946 2135 951 2148.33333333333 961 2163 C 973.66666666667 2181 988.66666666667 2190 1006 2190 C 1022 2190 1040 2183 1060 2169 L 1123 2124 C 1207.66666666667 2064 1250 1957.33333333333 1250 1804 L 1250 1694 Z"/>
    <path fill="#000000" stroke="none" transform="matrix(1 0 0 -1 24086 3000)" d="M 180 1127 L 180 1202 C 180 1236.66666666667 201.66666666667 1274.33333333333 245 1315 L 311 1376 C 398.33333333333 1458.66666666667 452.66666666667 1500 474 1500 C 498.66666666667 1500 547 1462.66666666667 619 1388 L 673 1332 C 691 1312.66666666667 710 1303 730 1303 C 746.66666666667 1303 763.66666666667 1312.66666666667 781 1332 L 831 1388 C 898.33333333333 1462.66666666667 944 1500 968 1500 C 991.33333333333 1500 1022 1479.33333333333 1060 1438 L 1178 1313 C 1201.33333333333 1288.33333333333 1225 1276 1249 1276 C 1266.33333333333 1276 1283.33333333333 1282 1300 1294 C 1253.33333333333 1182.66666666667 1208.33333333333 1127 1165 1127 C 1119.66666666667 1127 1085 1140 1061 1166 L 983 1247 C 956.33333333333 1274.33333333333 932 1288 910 1288 C 881.33333333333 1288 847.66666666667 1261.33333333333 809 1208 C 769.66666666667 1154 733.33333333333 1127 700 1127 C 652 1127 599.33333333333 1154 542 1208 L 498 1248 C 469.33333333333 1274.66666666667 442.33333333333 1288 417 1288 C 388.33333333333 1288 366.66666666667 1275.66666666667 352 1251 C 337.33333333333 1226.33333333333 330 1202 330 1178 C 330 1144.66666666667 375.66666666667 1104.66666666667 467 1058 L 338 967 C 232.66666666667 1007.66666666667 180 1061 180 1127 Z M 438 67 L 418 0 L 250 0 L 250 750 C 250 816.66666666667 291.66666666667 883.33333333333 375 950 C 458.33333333333 1016.66666666667 566.66666666667 1050 700 1050 L 750 1050 C 883.33333333333 1050 991.66666666667 1016.66666666667 1075 950 C 1158.33333333333 883.33333333333 1200 816.66666666667 1200 750 L 1200 0 L 1012 0 L 1012 750 C 1012 788.66666666667 986 824.33333333333 934 857 C 882 889.66666666667 820.66666666667 906 750 906 L 700 906 C 629.33333333333 906 568 889.66666666667 516 857 C 464 824.33333333333 438 788.66666666667 438 750 L 438 300 L 483 372 C 535.66666666667 457.33333333333 595.33333333333 500 662 500 C 754 500 800 460 800 380 C 800 326.66666666667 774.33333333333 300 723 300 C 685 300 666 311 666 333 C 666 355 658 366 642 366 C 626 366 601.33333333333 338.33333333333 568 283 L 519 201 L 438 67 Z"/>
    <path fill="#000000" stroke="none" transform="matrix(1 0 0 -1 25536 3000)" d="M 250 639 L 250 736 C 223.33333333333 722.66666666667 210 705.66666666667 210 685 C 210 668.33333333333 213.33333333333 656.66666666667 220 650 C 226.66666666667 642.66666666667 236.66666666667 639 250 639 Z M 930 1320 C 930 1350.66666666667 913.33333333333 1366 880 1366 C 846.66666666667 1366 830 1350.66666666667 830 1320 C 830 1297.33333333333 849.33333333333 1273.33333333333 888 1248 C 916 1264.66666666667 930 1288.66666666667 930 1320 Z M 438 186 L 725 423 L 1012 186 L 1012 899 C 1012 971 997.33333333333 1018.33333333333 968 1041 C 938.66666666667 1057 912 1073 888 1089 C 793.33333333333 1029.66666666667 690.66666666667 1000 580 1000 C 474.66666666667 1000 394.33333333333 1023 339 1069 C 279.66666666667 1119 250 1182.66666666667 250 1260 C 250 1303.33333333333 258.33333333333 1347.66666666667 275 1393 C 291.66666666667 1437.66666666667 300 1483.33333333333 300 1530 C 300 1576.66666666667 266.66666666667 1600 200 1600 C 200 1666.66666666667 233.33333333333 1700 300 1700 C 425.33333333333 1700 488 1643.33333333333 488 1530 C 488 1473.33333333333 479.66666666667 1426 463 1388 C 446.33333333333 1349.33333333333 438 1306.66666666667 438 1260 C 438 1214 451.66666666667 1183.33333333333 479 1168 C 506.33333333333 1152 540 1144 580 1144 C 656 1144 718.33333333333 1153.66666666667 767 1173 C 715.66666666667 1220.33333333333 690 1269.33333333333 690 1320 C 690 1440 753.33333333333 1500 880 1500 C 1006.66666666667 1500 1070 1440 1070 1320 C 1070 1268.66666666667 1044 1219.33333333333 992 1172 C 1006 1164.66666666667 1020.33333333333 1157.33333333333 1035 1150 C 1145 1091.33333333333 1200 1007.66666666667 1200 899 L 1200 0 L 1012 0 L 725 236 L 438 0 L 250 0 L 250 500 C 196.66666666667 500 158.33333333333 516.66666666667 135 550 C 111.66666666667 583.33333333333 100 618.33333333333 100 655 C 100 693 106.66666666667 727 120 757 C 132.66666666667 786.33333333333 157.66666666667 817.66666666667 195 851 C 231.66666666667 883.66666666667 281.33333333333 900 344 900 C 406.66666666667 900 438 866.66666666667 438 800 L 438 186 Z"/>
    <path fill="#000000" stroke="none" transform="matrix(1 0 0 -1 26986 3000)" d="M 1037 993 L 950 1046 C 891.33333333333 1081.33333333333 862 1109.66666666667 862 1131 C 862 1151.66666666667 880.66666666667 1190.33333333333 918 1247 L 1086 1500 L 1194 1438 L 1248 1406 C 1279.33333333333 1388 1306 1379 1328 1379 C 1332 1379 1335.66666666667 1379.33333333333 1339 1380 L 1375 1385 C 1375 1361.66666666667 1361.33333333333 1328.66666666667 1334 1286 C 1306.66666666667 1243.33333333333 1279.33333333333 1220 1252 1216 C 1248 1215.33333333333 1243.66666666667 1215 1239 1215 C 1213.66666666667 1215 1182 1226.33333333333 1144 1249 L 1076 1288 L 1033 1213 L 1225 1100 L 1225 300 C 1225 233.33333333333 1183.33333333333 166.66666666667 1100 100 C 1016.66666666667 33.33333333333 908.33333333333 0 775 0 L 725 0 C 591.66666666667 0 483.33333333333 33.33333333333 400 100 C 316.66666666667 166.66666666667 275 233.33333333333 275 300 L 275 993 L 188 1046 C 129.33333333333 1081.33333333333 100 1109.66666666667 100 1131 C 100 1151.66666666667 118.66666666667 1190.33333333333 156 1247 L 324 1500 L 432 1438 L 486 1406 C 517.33333333333 1388 544 1379 566 1379 C 570 1379 573.66666666667 1379.33333333333 577 1380 L 613 1385 C 613 1361.66666666667 599.33333333333 1328.66666666667 572 1286 C 544.66666666667 1243.33333333333 517.33333333333 1220 490 1216 C 486 1215.33333333333 481.66666666667 1215 477 1215 C 451.66666666667 1215 420 1226.33333333333 382 1249 L 314 1288 L 271 1213 L 463 1100 L 463 300 C 463 261.33333333333 489 225.66666666667 541 193 C 593 160.33333333333 654.33333333333 144 725 144 L 775 144 C 845.66666666667 144 907 160.33333333333 959 193 C 1011 225.66666666667 1037 261.33333333333 1037 300 L 1037 993 Z"/>
    <path fill="#000000" stroke="none" transform="matrix(1 0 0 -1 28461 3000)" d="M 438 1025 L 438 950 C 470 950 486 966.66666666667 486 1000 C 486 1008 481.66666666667 1014.33333333333 473 1019 C 465 1023 453.33333333333 1025 438 1025 Z M 438 1125 C 487.33333333333 1125 524.33333333333 1114.66666666667 549 1094 C 573.66666666667 1072.66666666667 586 1041.33333333333 586 1000 C 586 900 536.66666666667 850 438 850 C 312.66666666667 850 250 883.33333333333 250 950 L 250 1200 C 250 1281.33333333333 288.66666666667 1351.66666666667 366 1411 C 443.33333333333 1470.33333333333 503 1500 545 1500 C 579.66666666667 1500 640 1455.33333333333 726 1366 C 811.33333333333 1455.33333333333 871.66666666667 1500 907 1500 C 948.33333333333 1500 1007.33333333333 1470.33333333333 1084 1411 C 1161.33333333333 1351.66666666667 1200 1281.33333333333 1200 1200 L 1200 1050 C 1200 935.33333333333 1073 812.33333333333 819 681 L 438 485 L 438 250 C 438 214.66666666667 446 188.33333333333 462 171 C 478 153 499.66666666667 144 527 144 C 566.33333333333 144 603 158 637 186 C 737.66666666667 270 812.33333333333 326.66666666667 861 356 C 910.33333333333 385.33333333333 960.66666666667 400 1012 400 L 1012 583 L 1200 673 L 1200 50 C 1200 -50 1148.66666666667 -100 1046 -100 C 976.66666666667 -100 942 -76 942 -28 C 988.66666666667 -6.66666666667 1012 22.66666666667 1012 60 L 1012 266 C 980 266 948.33333333333 255.66666666667 917 235 C 885.66666666667 213.66666666667 827.66666666667 169.33333333333 743 102 C 658.33333333333 34 586.33333333333 0 527 0 C 441 0 373.33333333333 19.33333333333 324 58 C 274.66666666667 97.33333333333 250 161.33333333333 250 250 L 250 550 L 726 795 C 916.66666666667 893.66666666667 1012 978.66666666667 1012 1050 L 1012 1200 C 1012 1242.66666666667 987 1281.33333333333 937 1316 C 925 1324.66666666667 912 1329 898 1329 C 852.66666666667 1329 795.33333333333 1285.66666666667 726 1199 C 656 1285.66666666667 598 1329 552 1329 C 538 1329 525 1324.66666666667 513 1316 C 463 1281.33333333333 438 1242.66666666667 438 1200 L 438 1125 Z"/>
    <path fill="#000000" stroke="none" transform="matrix(1 0 0 -1 29911 3000)" d="M 438 222 C 503.33333333333 282 536 337.66666666667 536 389 C 536 415.66666666667 527 435.33333333333 509 448 C 491 460 467.33333333333 466 438 466 L 438 222 Z M 1012 366 C 998.66666666667 366 988.66666666667 362.66666666667 982 356 C 975.33333333333 348.66666666667 972 335 972 315 C 972 294.33333333333 985.33333333333 267.33333333333 1012 234 L 1012 366 Z M 1012 1169 C 1012 1219.66666666667 1000.66666666667 1252 978 1266 L 910 1307 C 902.66666666667 1311 895.33333333333 1313 888 1313 C 872 1313 856 1303.66666666667 840 1285 L 785 1225 C 747.66666666667 1185 709.66666666667 1165 671 1165 C 618.33333333333 1165.66666666667 573.66666666667 1182.33333333333 537 1215 L 464 1283 C 447.33333333333 1299 432.33333333333 1307 419 1307 C 410.33333333333 1307 402.33333333333 1304 395 1298 L 351 1260 C 347 1256 345 1251 345 1245 C 345 1222.33333333333 376 1185.33333333333 438 1134 L 438 600 C 534.66666666667 600 597.66666666667 580.33333333333 627 541 C 655.66666666667 501 670 459 670 415 C 670 363 656.66666666667 308 630 250 C 603.33333333333 191.33333333333 564.66666666667 135 514 81 L 438 0 L 250 0 L 250 1062 C 183.33333333333 1133.33333333333 150 1183.33333333333 150 1212 C 150 1240.66666666667 194.33333333333 1296 283 1378 C 371 1459.33333333333 430.33333333333 1500 461 1500 C 493 1500 540.66666666667 1470.66666666667 604 1412 L 678 1340 C 682 1336.66666666667 686.66666666667 1335 692 1335 C 705.33333333333 1335 722 1345.66666666667 742 1367 L 783 1412 C 838.33333333333 1470.66666666667 883.33333333333 1500 918 1500 C 942.66666666667 1500 975.33333333333 1487.33333333333 1016 1462 L 1078 1423 C 1159.33333333333 1371.66666666667 1200 1287 1200 1169 L 1200 500 C 1397.33333333333 500 1496 416.66666666667 1496 250 C 1496 179.33333333333 1534.66666666667 144 1612 144 C 1686.66666666667 144 1724 179.33333333333 1724 250 L 1724 993 L 1637 1046 C 1578.33333333333 1081.33333333333 1549 1109.66666666667 1549 1131 C 1549 1151.66666666667 1567.66666666667 1190.33333333333 1605 1247 L 1773 1500 L 1881 1438 L 1935 1406 C 1966.33333333333 1388 1993 1379 2015 1379 C 2019 1379 2022.66666666667 1379.33333333333 2026 1380 L 2062 1385 C 2062 1361.66666666667 2048.33333333333 1328.66666666667 2021 1286 C 1993.66666666667 1243.33333333333 1966.33333333333 1220 1939 1216 C 1935 1215.33333333333 1930.66666666667 1215 1926 1215 C 1900.66666666667 1215 1869 1226.33333333333 1831 1249 L 1763 1288 L 1720 1213 L 1912 1100 L 1912 250 C 1912 83.33333333333 1812 0 1612 0 C 1438.66666666667 0 1352 83.33333333333 1352 250 C 1352 327.33333333333 1301.33333333333 366 1200 366 L 1200 0 L 1012 0 L 937 124 C 887 206.66666666667 862 280.33333333333 862 345 C 862 388.33333333333 875.33333333333 425 902 455 C 928.66666666667 485 965.33333333333 500 1012 500 L 1012 1169 Z"/>
    <path fill="#000000" stroke="none" transform="matrix(1 0 0 -1 32605 3000)" d="M 1012 739 L 1012 836 C 985.33333333333 822.66666666667 972 805.66666666667 972 785 C 972 768.33333333333 975.33333333333 756.66666666667 982 750 C 988.66666666667 742.66666666667 998.66666666667 739 1012 739 Z M 438 300 C 438 261.33333333333 464 225.66666666667 516 193 C 568 160.33333333333 629.33333333333 144 700 144 L 750 144 C 820.66666666667 144 882 160.33333333333 934 193 C 986 225.66666666667 1012 261.33333333333 1012 300 L 1012 600 C 958.66666666667 600 920.33333333333 616.66666666667 897 650 C 873.66666666667 683.33333333333 862 718.33333333333 862 755 C 862 793 868.66666666667 827 882 857 C 894.66666666667 886.33333333333 919.66666666667 917.66666666667 957 951 C 993.66666666667 983.66666666667 1043.33333333333 1000 1106 1000 C 1168.66666666667 1000 1200 966.66666666667 1200 900 L 1200 300 C 1200 233.33333333333 1158.33333333333 166.66666666667 1075 100 C 991.66666666667 33.33333333333 883.33333333333 0 750 0 L 700 0 C 566.66666666667 0 458.33333333333 33.33333333333 375 100 C 291.66666666667 166.66666666667 250 233.33333333333 250 300 L 250 1010 C 203.33333333333 1054 175 1084.66666666667 165 1102 C 155 1118.66666666667 150 1139.66666666667 150 1165 C 150 1189.66666666667 155 1210.66666666667 165 1228 C 175 1245.33333333333 201.66666666667 1274.33333333333 245 1315 L 311 1376 C 398.33333333333 1458.66666666667 451.66666666667 1500 471 1500 C 490.33333333333 1500 550.66666666667 1462.66666666667 652 1388 C 756 1316 835.33333333333 1280 890 1280 C 951.33333333333 1280 996 1291.66666666667 1024 1315 C 1052 1338.33333333333 1066 1373.33333333333 1066 1420 C 1066 1488 1017.33333333333 1522 920 1522 C 853.33333333333 1522 820 1551.66666666667 820 1611 C 820 1670.33333333333 853.33333333333 1700 920 1700 C 1006.66666666667 1700 1075 1673 1125 1619 C 1175 1565 1200 1498.66666666667 1200 1420 C 1200 1325.33333333333 1171.66666666667 1252.66666666667 1115 1202 C 1057.66666666667 1151.33333333333 982.66666666667 1126 890 1126 C 762.66666666667 1126 653.33333333333 1158.66666666667 562 1224 L 498 1269 C 474.66666666667 1287 454 1296 436 1296 C 432 1296 428.33333333333 1295.66666666667 425 1295 C 404.33333333333 1290.33333333333 383.33333333333 1275.66666666667 362 1251 L 339 1226 C 332.33333333333 1218.66666666667 329 1211 329 1203 C 329 1191.66666666667 335 1179.66666666667 347 1167 L 377 1134 L 438 1068 L 438 300 Z"/>
    <path fill="#000000" stroke="none" transform="matrix(1 0 0 -1 34055 3000)" d="M 438 1025 L 438 950 C 470 950 486 966.66666666667 486 1000 C 486 1008 481.66666666667 1014.33333333333 473 1019 C 465 1023 453.33333333333 1025 438 1025 Z M 1012 1200 C 1012 1238.66666666667 986 1274.33333333333 934 1307 C 882 1339.66666666667 820.66666666667 1356 750 1356 L 700 1356 C 629.33333333333 1356 568 1339.66666666667 516 1307 C 464 1274.33333333333 438 1238.66666666667 438 1200 L 438 1125 C 487.33333333333 1125 524.33333333333 1114.66666666667 549 1094 C 573.66666666667 1072.66666666667 586 1041.33333333333 586 1000 C 586 900 536.66666666667 850 438 850 C 312.66666666667 850 250 883.33333333333 250 950 L 250 1200 C 250 1266.66666666667 291.66666666667 1333.33333333333 375 1400 C 458.33333333333 1466.66666666667 566.66666666667 1500 700 1500 L 750 1500 C 883.33333333333 1500 991.66666666667 1466.66666666667 1075 1400 C 1158.33333333333 1333.33333333333 1200 1266.66666666667 1200 1200 L 1200 1050 C 1200 935.33333333333 1073 812.33333333333 819 681 L 438 485 L 438 250 C 438 214.66666666667 446 188.33333333333 462 171 C 478 153 499.66666666667 144 527 144 C 566.33333333333 144 603 158 637 186 C 737.66666666667 270 812.33333333333 326.66666666667 861 356 C 910.33333333333 385.33333333333 960.66666666667 400 1012 400 L 1012 583 L 1200 673 L 1200 50 C 1200 -50 1148.66666666667 -100 1046 -100 C 976.66666666667 -100 942 -76 942 -28 C 988.66666666667 -6.66666666667 1012 22.66666666667 1012 60 L 1012 266 C 980 266 948.33333333333 255.66666666667 917 235 C 885.66666666667 213.66666666667 827.66666666667 169.33333333333 743 102 C 658.33333333333 34 586.33333333333 0 527 0 C 441 0 373.33333333333 19.33333333333 324 58 C 274.66666666667 97.33333333333 250 161.33333333333 250 250 L 250 550 L 726 795 C 916.66666666667 893.66666666667 1012 978.66666666667 1012 1050 L 1012 1200 Z"/>
    <path fill="#000000" stroke="none" transform="matrix(1 0 0 -1 35505 3000)" d="M 438 222 C 503.33333333333 282 536 337.66666666667 536 389 C 536 415.66666666667 527 435.33333333333 509 448 C 491 460 467.33333333333 466 438 466 L 438 222 Z M 438 600 C 534.66666666667 600 597.66666666667 580.33333333333 627 541 C 655.66666666667 501 670 459 670 415 C 670 363 656.66666666667 308 630 250 C 603.33333333333 191.33333333333 564.66666666667 135 514 81 L 438 0 L 250 0 L 250 1008 L 188 1046 C 156 1065.33333333333 140 1096.66666666667 140 1140 C 140 1183.33333333333 173.33333333333 1229.66666666667 240 1279 L 377 1381 C 484.33333333333 1460.33333333333 572 1500 640 1500 C 745.33333333333 1500 824.66666666667 1482.33333333333 878 1447 L 1092 1297 C 1164 1249 1200 1166.66666666667 1200 1050 L 1200 300 C 1200 261.33333333333 1226 225.66666666667 1278 193 C 1330 160.33333333333 1391.33333333333 144 1462 144 C 1532.66666666667 144 1594 160.33333333333 1646 193 C 1698 225.66666666667 1724 261.33333333333 1724 300 L 1724 993 L 1637 1046 C 1578.33333333333 1081.33333333333 1549 1109.66666666667 1549 1131 C 1549 1151.66666666667 1567.66666666667 1190.33333333333 1605 1247 L 1773 1500 L 1881 1438 L 1935 1406 C 1966.33333333333 1388 1993 1379 2015 1379 C 2019 1379 2022.66666666667 1379.33333333333 2026 1380 L 2062 1385 C 2062 1361.66666666667 2048.33333333333 1328.66666666667 2021 1286 C 1993.66666666667 1243.33333333333 1966.33333333333 1220 1939 1216 C 1935 1215.33333333333 1930.66666666667 1215 1926 1215 C 1900.66666666667 1215 1869 1226.33333333333 1831 1249 L 1763 1288 L 1720 1213 L 1912 1100 L 1912 300 C 1912 261.33333333333 1938 225.66666666667 1990 193 C 2042 160.33333333333 2103.33333333333 144 2174 144 C 2244.66666666667 144 2306 160.33333333333 2358 193 C 2410 225.66666666667 2436 261.33333333333 2436 300 L 2436 993 L 2349 1046 C 2290.33333333333 1081.33333333333 2261 1109.66666666667 2261 1131 C 2261 1151.66666666667 2279.66666666667 1190.33333333333 2317 1247 L 2485 1500 L 2593 1438 L 2647 1406 C 2678.33333333333 1388 2705 1379 2727 1379 C 2731 1379 2734.66666666667 1379.33333333333 2738 1380 L 2774 1385 C 2774 1361.66666666667 2760.33333333333 1328.66666666667 2733 1286 C 2705.66666666667 1243.33333333333 2678.33333333333 1220 2651 1216 C 2647 1215.33333333333 2642.66666666667 1215 2638 1215 C 2612.66666666667 1215 2581 1226.33333333333 2543 1249 L 2475 1288 L 2432 1213 L 2624 1100 L 2624 300 C 2624 233.33333333333 2582.33333333333 166.66666666667 2499 100 C 2415.66666666667 33.33333333333 2307.33333333333 0 2174 0 C 2040.66666666667 0 1932.33333333333 33.33333333333 1849 100 C 1837.66666666667 108.66666666667 1827.33333333333 117.66666666667 1818 127 C 1808.66666666667 117.66666666667 1798.33333333333 108.66666666667 1787 100 C 1703.66666666667 33.33333333333 1595.33333333333 0 1462 0 C 1328.66666666667 0 1220.33333333333 33.33333333333 1137 100 C 1053.66666666667 166.66666666667 1012 233.33333333333 1012 300 L 1012 1050 C 1012 1100.66666666667 999 1135.33333333333 973 1154 L 766 1296 C 741.33333333333 1313.33333333333 699.33333333333 1322 640 1322 C 570.66666666667 1322 513.33333333333 1305 468 1271 L 339 1173 L 377 1148 C 417.66666666667 1122.66666666667 438 1090 438 1050 L 438 600 Z"/>
    <path fill="#000000" stroke="none" transform="matrix(1 0 0 -1 38379 3000)" d="M 528 1026 C 414.66666666667 1026 340 1042 304 1074 C 268 1106 250 1151 250 1209 C 270.66666666667 1257 303.66666666667 1305.33333333333 349 1354 C 394.33333333333 1402.66666666667 452 1451.33333333333 522 1500 L 784 1290 L 1073 1499 L 1238 1499 L 1238 350 C 1238 233.33333333333 1197 146 1115 88 C 1033 29.33333333333 922.66666666667 0 784 0 C 646 0 542.33333333333 14.66666666667 473 44 C 403.66666666667 72.66666666667 369 116.33333333333 369 175 C 369 213.66666666667 379 242.66666666667 399 262 C 418.33333333333 281.33333333333 448 291 488 291 C 488 261 512.66666666667 230 562 198 C 611.33333333333 166.66666666667 685.33333333333 151 784 151 C 864.66666666667 151 929.33333333333 171.66666666667 978 213 C 1026 254.33333333333 1050 300 1050 350 L 1050 1289 L 786 1115 L 562 1289 L 465 1209 C 465 1189 470.33333333333 1174.33333333333 481 1165 C 491 1155 506.66666666667 1150 528 1150 C 547.33333333333 1150 562 1154.33333333333 572 1163 C 582 1171 587 1183.33333333333 587 1200 C 607 1200 621.66666666667 1193 631 1179 C 641 1164.33333333333 646 1142.33333333333 646 1113 C 646 1083.66666666667 636.33333333333 1061.66666666667 617 1047 C 597 1033 567.33333333333 1026 528 1026 Z"/>
    <path fill="#000000" stroke="none" transform="matrix(1 0 0 -1 39867 3000)" d="M 977 1059 C 968.33333333333 1054.33333333333 964 1048 964 1040 C 964 1006.66666666667 980 990 1012 990 L 1012 1065 C 996.66666666667 1065 985 1063 977 1059 Z M 1200 250 C 1200 161.33333333333 1175.33333333333 97.33333333333 1126 58 C 1076.66666666667 19.33333333333 1002.33333333333 0 903 0 C 843.66666666667 0 790 13 742 39 C 693.33333333333 65 650.66666666667 104 614 156 C 591.33333333333 187.33333333333 564.33333333333 213.66666666667 533 235 C 501.66666666667 255.66666666667 470 266 438 266 L 438 0 L 250 0 L 250 673 L 438 583 L 438 400 C 489.33333333333 400 539.66666666667 385.33333333333 589 356 C 637.66666666667 326.66666666667 680 287.33333333333 716 238 C 752 188 782.33333333333 160 807 154 C 831.66666666667 147.33333333333 863.66666666667 144 903 144 C 943.66666666667 144 972 153 988 171 C 1004 188.33333333333 1012 214.66666666667 1012 250 L 1012 561 L 645 689 C 381.66666666667 781 250 901.33333333333 250 1050 L 250 1200 C 250 1266.66666666667 291.66666666667 1333.33333333333 375 1400 C 458.33333333333 1466.66666666667 566.66666666667 1500 700 1500 L 750 1500 C 883.33333333333 1500 991.66666666667 1466.66666666667 1075 1400 C 1158.33333333333 1333.33333333333 1200 1266.66666666667 1200 1200 L 1200 990 C 1200 923.33333333333 1137.33333333333 890 1012 890 C 913.33333333333 890 864 940 864 1040 C 864 1081.33333333333 876.33333333333 1112.66666666667 901 1134 C 925.66666666667 1154.66666666667 962.66666666667 1165 1012 1165 L 1012 1200 C 1012 1238.66666666667 986 1274.33333333333 934 1307 C 882 1339.66666666667 820.66666666667 1356 750 1356 L 700 1356 C 629.33333333333 1356 568 1339.66666666667 516 1307 C 464 1274.33333333333 438 1238.66666666667 438 1200 L 438 1050 C 438 959.33333333333 532.33333333333 881 721 815 L 1200 648 L 1200 250 Z"/>
    <path fill="#000000" stroke="none" transform="matrix(1 0 0 -1 41317 3000)" d="M 1012 739 L 1012 836 C 985.33333333333 822.66666666667 972 805.66666666667 972 785 C 972 768.33333333333 975.33333333333 756.66666666667 982 750 C 988.66666666667 742.66666666667 998.66666666667 739 1012 739 Z M 1012 600 C 958.66666666667 600 920.33333333333 616.66666666667 897 650 C 873.66666666667 683.33333333333 862 718.33333333333 862 755 C 862 793 868.66666666667 827 882 857 C 894.66666666667 886.33333333333 919.66666666667 917.66666666667 957 951 C 993.66666666667 983.66666666667 1043.33333333333 1000 1106 1000 C 1168.66666666667 1000 1200 966.66666666667 1200 900 L 1200 0 L 1012 0 L 725 236 L 438 0 L 250 0 L 250 1010 C 203.33333333333 1054 175 1084.66666666667 165 1102 C 155 1118.66666666667 150 1139.66666666667 150 1165 C 150 1189.66666666667 155 1210.66666666667 165 1228 C 175 1245.33333333333 202 1274.66666666667 246 1316 L 311 1377 C 398.33333333333 1459 452.66666666667 1500 474 1500 C 498.66666666667 1500 547 1462.66666666667 619 1388 L 673 1332 C 691 1312.66666666667 710 1303 730 1303 C 746.66666666667 1303 763.66666666667 1312.66666666667 781 1332 L 831 1388 C 898.33333333333 1462.66666666667 944 1500 968 1500 C 991.33333333333 1500 1022 1479.33333333333 1060 1438 L 1178 1313 C 1201.33333333333 1288.33333333333 1225 1276 1249 1276 C 1266.33333333333 1276 1283.33333333333 1282 1300 1294 C 1253.33333333333 1182.66666666667 1208.33333333333 1127 1165 1127 C 1119.66666666667 1127 1085 1140 1061 1166 L 983 1247 C 956.33333333333 1274.33333333333 932 1288 910 1288 C 881.33333333333 1288 847.66666666667 1261.33333333333 809 1208 C 769.66666666667 1154 733.33333333333 1127 700 1127 C 652 1127 599.33333333333 1154 542 1208 L 498 1248 C 469.33333333333 1274.66666666667 442.33333333333 1288 417 1288 C 401.66666666667 1288 387.66666666667 1280.66666666667 375 1266 L 336 1222 C 330.66666666667 1216 328 1209.66666666667 328 1203 C 328 1192.33333333333 334.33333333333 1180.33333333333 347 1167 L 377 1134 L 438 1068 L 438 186 L 725 423 L 1012 186 L 1012 600 Z"/>
    <path fill="#000000" stroke="none" transform="matrix(1 0 0 -1 43299 3000)" d="M 1042 710 C 1019.33333333333 710 1008 697 1008 671 C 1049.33333333333 671 1070 677.66666666667 1070 691 C 1070 703.66666666667 1060.66666666667 710 1042 710 Z M 987 1094 C 978.33333333333 1089.33333333333 974 1083 974 1075 C 974 1055 986.66666666667 1045 1012 1045 L 1012 1100 C 1003.33333333333 1100 995 1098 987 1094 Z M 250 1200 C 250 1266.66666666667 291.66666666667 1333.33333333333 375 1400 C 458.33333333333 1466.66666666667 566.66666666667 1500 700 1500 L 750 1500 C 883.33333333333 1500 991.66666666667 1466.66666666667 1075 1400 C 1158.33333333333 1333.33333333333 1200 1266.66666666667 1200 1200 L 1200 1045 C 1200 978.33333333333 1137.33333333333 945 1012 945 C 920 945 874 988.33333333333 874 1075 C 874 1116.33333333333 886.33333333333 1147.66666666667 911 1169 C 935.66666666667 1189.66666666667 969.33333333333 1200 1012 1200 C 1012 1238.66666666667 986 1274.33333333333 934 1307 C 882 1339.66666666667 820.66666666667 1356 750 1356 L 700 1356 C 629.33333333333 1356 568 1339.66666666667 516 1307 C 464 1274.33333333333 438 1238.66666666667 438 1200 L 438 945 C 438 860.33333333333 464.33333333333 793.66666666667 517 745 C 569.66666666667 695.66666666667 639.33333333333 671 726 671 L 820 671 C 820 704.33333333333 837.66666666667 739.33333333333 873 776 C 907.66666666667 812.66666666667 964 831 1042 831 C 1088 831 1126 820.33333333333 1156 799 C 1185.33333333333 777 1200 741.33333333333 1200 692 C 1200 634.66666666667 1185 595.33333333333 1155 574 C 1125.66666666667 552 1076.66666666667 541 1008 541 L 1008 302 C 1008 201.33333333333 982 126 930 76 C 877.33333333333 25.33333333333 800.66666666667 0 700 0 C 608.66666666667 0 534.66666666667 21.33333333333 478 64 C 420.66666666667 106 392 168 392 250 L 392 450 L 570 450 L 570 250 C 570 222 581.66666666667 197.33333333333 605 176 C 628.33333333333 154.66666666667 660 144 700 144 C 729.33333333333 144 756.66666666667 157 782 183 C 807.33333333333 208.33333333333 820 247.66666666667 820 301 L 820 541 L 726 541 C 580.66666666667 541 465 579 379 655 C 293 730.33333333333 250 827 250 945 L 250 1200 Z M 1724 993 L 1637 1046 C 1578.33333333333 1081.33333333333 1549 1109.66666666667 1549 1131 C 1549 1151.66666666667 1567.66666666667 1190.33333333333 1605 1247 L 1773 1500 L 1881 1438 L 1935 1406 C 1966.33333333333 1388 1993 1379 2015 1379 C 2019 1379 2022.66666666667 1379.33333333333 2026 1380 L 2062 1385 C 2062 1361.66666666667 2048.33333333333 1328.66666666667 2021 1286 C 1993.66666666667 1243.33333333333 1966.33333333333 1220 1939 1216 C 1935 1215.33333333333 1930.66666666667 1215 1926 1215 C 1900.66666666667 1215 1869 1226.33333333333 1831 1249 L 1763 1288 L 1720 1213 L 1912 1100 L 1912 -650 L 1724 -650 L 1462 -435 L 1200 -650 L 1012 -650 L 1012 -300 C 937.33333333333 -300 900 -270 900 -210 C 900 -176.66666666667 918.66666666667 -141.66666666667 956 -105 C 993.33333333333 -68.33333333333 1033.33333333333 -50 1076 -50 C 1158.66666666667 -50 1200 -83.33333333333 1200 -150 L 1200 -464 L 1462 -248 L 1724 -464 L 1724 993 Z"/>
    <path fill="#000000" stroke="none" transform="matrix(1 0 0 -1 45461 3000)" d="M 1012 739 L 1012 836 C 985.33333333333 822.66666666667 972 805.66666666667 972 785 C 972 768.33333333333 975.33333333333 756.66666666667 982 750 C 988.66666666667 742.66666666667 998.66666666667 739 1012 739 Z M 250 366 C 236.66666666667 366 226.66666666667 362.66666666667 220 356 C 213.33333333333 348.66666666667 210 335 210 315 C 210 294.33333333333 223.33333333333 267.33333333333 250 234 L 250 366 Z M 438 500 C 642 500 744 416.66666666667 744 250 C 744 179.33333333333 796 144 900 144 C 974.66666666667 144 1012 179.33333333333 1012 250 L 1012 600 C 958.66666666667 600 920.33333333333 616.66666666667 897 650 C 873.66666666667 683.33333333333 862 718.33333333333 862 755 C 862 793 868.66666666667 827 882 857 C 894.66666666667 886.33333333333 919.66666666667 917.66666666667 957 951 C 993.66666666667 983.66666666667 1043.33333333333 1000 1106 1000 C 1168.66666666667 1000 1200 966.66666666667 1200 900 L 1200 250 C 1200 83.33333333333 1100 0 900 0 C 700 0 600 83.33333333333 600 250 C 600 327.33333333333 546 366 438 366 L 438 0 L 250 0 L 175 124 C 125 206.66666666667 100 280.33333333333 100 345 C 100 388.33333333333 113.33333333333 425 140 455 C 166.66666666667 485 203.33333333333 500 250 500 L 250 1010 C 203.33333333333 1054 175 1084.66666666667 165 1102 C 155 1118.66666666667 150 1139.66666666667 150 1165 C 150 1189.66666666667 155 1210.66666666667 165 1228 C 175 1245.33333333333 202 1274.66666666667 246 1316 L 311 1377 C 398.33333333333 1459 452.66666666667 1500 474 1500 C 498.66666666667 1500 547 1462.66666666667 619 1388 L 673 1332 C 691 1312.66666666667 710 1303 730 1303 C 746.66666666667 1303 763.66666666667 1312.66666666667 781 1332 L 831 1388 C 898.33333333333 1462.66666666667 944 1500 968 1500 C 991.33333333333 1500 1022 1479.33333333333 1060 1438 L 1178 1313 C 1201.33333333333 1288.33333333333 1225 1276 1249 1276 C 1266.33333333333 1276 1283.33333333333 1282 1300 1294 C 1253.33333333333 1182.66666666667 1208.33333333333 1127 1165 1127 C 1119.66666666667 1127 1085 1140 1061 1166 L 983 1247 C 956.33333333333 1274.33333333333 932 1288 910 1288 C 881.33333333333 1288 847.66666666667 1261.33333333333 809 1208 C 769.66666666667 1154 733.33333333333 1127 700 1127 C 652 1127 599.33333333333 1154 542 1208 L 498 1248 C 469.33333333333 1274.66666666667 442.33333333333 1288 417 1288 C 401.66666666667 1288 387.66666666667 1280.66666666667 375 1266 L 336 1222 C 330.66666666667 1216 328 1209.66666666667 328 1203 C 328 1192.33333333333 334.33333333333 1180.33333333333 347 1167 L 377 1134 L 438 1068 L 438 500 Z"/>
    <path fill="#000000" stroke="none" transform="matrix(1 0 0 -1 46911 3000)" d="M 250 739 L 250 836 C 223.33333333333 822.66666666667 210 805.66666666667 210 785 C 210 768.33333333333 213.33333333333 756.66666666667 220 750 C 226.66666666667 742.66666666667 236.66666666667 739 250 739 Z M 250 600 C 196.66666666667 600 158.33333333333 616.66666666667 135 650 C 111.66666666667 683.33333333333 100 718.33333333333 100 755 C 100 793 106.66666666667 827 120 857 C 132.66666666667 886.33333333333 157.66666666667 917.66666666667 195 951 C 231.66666666667 983.66666666667 281.33333333333 1000 344 1000 C 406.66666666667 1000 438 966.66666666667 438 900 L 438 186 L 725 423 L 1012 186 L 1012 1124 L 782 1285 C 746 1309.66666666667 716.66666666667 1322 694 1322 C 646.66666666667 1322 584 1276.66666666667 506 1186 C 480.66666666667 1157.33333333333 454 1141.66666666667 426 1139 L 417 1139 C 392.33333333333 1139 366.33333333333 1149 339 1169 C 279.66666666667 1219 250 1282.66666666667 250 1360 C 250 1403.33333333333 258.33333333333 1447.66666666667 275 1493 C 291.66666666667 1537.66666666667 300 1583.33333333333 300 1630 C 300 1676.66666666667 266.66666666667 1700 200 1700 C 200 1766.66666666667 233.33333333333 1800 300 1800 C 425.33333333333 1800 488 1743.33333333333 488 1630 C 488 1573.33333333333 479.66666666667 1526 463 1488 C 446.33333333333 1449.33333333333 438 1406.66666666667 438 1360 L 438 1317 L 491 1373 C 571.66666666667 1457.66666666667 643 1500 705 1500 C 768.33333333333 1500 820 1486.33333333333 860 1459 L 1106 1287 C 1168.66666666667 1245 1200 1187.33333333333 1200 1114 L 1200 0 L 1012 0 L 725 236 L 438 0 L 250 0 L 250 600 Z"/>
    <path fill="#000000" stroke="none" transform="matrix(1 0 0 -1 48361 3000)" d="M 438 186 L 725 423 L 1012 186 L 1012 1000 L 1200 1000 L 1200 0 L 1012 0 L 725 236 L 438 0 L 250 0 L 250 1010 C 203.33333333333 1054 175 1084.66666666667 165 1102 C 155 1118.66666666667 150 1139.66666666667 150 1165 C 150 1189.66666666667 155 1210.66666666667 165 1228 C 175 1245.33333333333 201.66666666667 1274.33333333333 245 1315 L 311 1376 C 398.33333333333 1458.66666666667 451.66666666667 1500 471 1500 C 490.33333333333 1500 550.66666666667 1462.66666666667 652 1388 C 756 1316 835.33333333333 1280 890 1280 C 951.33333333333 1280 996 1291.66666666667 1024 1315 C 1052 1338.33333333333 1066 1373.33333333333 1066 1420 C 1066 1488 1017.33333333333 1522 920 1522 C 853.33333333333 1522 820 1551.66666666667 820 1611 C 820 1670.33333333333 853.33333333333 1700 920 1700 C 1006.66666666667 1700 1075 1673 1125 1619 C 1175 1565 1200 1498.66666666667 1200 1420 C 1200 1325.33333333333 1171.66666666667 1252.66666666667 1115 1202 C 1057.66666666667 1151.33333333333 982.66666666667 1126 890 1126 C 762.66666666667 1126 653.33333333333 1158.66666666667 562 1224 L 498 1269 C 474.66666666667 1287 454 1296 436 1296 C 432 1296 428.33333333333 1295.66666666667 425 1295 C 404.33333333333 1290.33333333333 383.33333333333 1275.66666666667 362 1251 L 339 1226 C 332.33333333333 1218.66666666667 329 1211 329 1203 C 329 1191.66666666667 335 1179.66666666667 347 1167 L 377 1134 L 438 1068 L 438 186 Z"/>
    <path fill="#000000" stroke="none" transform="matrix(1 0 0 -1 49811 3000)" d="M 1225 -250 C 1225 -296.66666666667 1213.33333333333 -338 1190 -374 C 1196.66666666667 -399.33333333333 1215.33333333333 -418.66666666667 1246 -432 C 1276.66666666667 -444.66666666667 1319.33333333333 -451 1374 -451 C 1374 -483.66666666667 1360.66666666667 -508.33333333333 1334 -525 C 1306.66666666667 -541.66666666667 1266 -550 1212 -550 C 1173.33333333333 -550 1139.66666666667 -544.66666666667 1111 -534 C 1083 -523.33333333333 1060.33333333333 -507.66666666667 1043 -487 C 991.66666666667 -507.66666666667 929.66666666667 -523.33333333333 857 -534 C 784.33333333333 -544.66666666667 700.66666666667 -550 606 -550 C 503.33333333333 -550 416 -539.33333333333 344 -518 C 272 -496 215.66666666667 -463.33333333333 175 -420 C 298.33333333333 -440 442.66666666667 -450 608 -450 C 754.66666666667 -450 865 -433.33333333333 939 -400 C 1012.33333333333 -366.66666666667 1049 -316.66666666667 1049 -250 C 1049 -216.66666666667 1024 -200 974 -200 C 974 -166.66666666667 984.66666666667 -141.66666666667 1006 -125 C 1027.33333333333 -108.33333333333 1059 -100 1101 -100 C 1142.33333333333 -100 1173.33333333333 -112.66666666667 1194 -138 C 1214.66666666667 -162.66666666667 1225 -200 1225 -250 Z M 1037 993 L 950 1046 C 891.33333333333 1081.33333333333 862 1109.66666666667 862 1131 C 862 1151.66666666667 880.66666666667 1190.33333333333 918 1247 L 1086 1500 L 1194 1438 L 1248 1406 C 1279.33333333333 1388 1306 1379 1328 1379 C 1332 1379 1335.66666666667 1379.33333333333 1339 1380 L 1375 1385 C 1375 1361.66666666667 1361.33333333333 1328.66666666667 1334 1286 C 1306.66666666667 1243.33333333333 1279.33333333333 1220 1252 1216 C 1248 1215.33333333333 1243.66666666667 1215 1239 1215 C 1213.66666666667 1215 1182 1226.33333333333 1144 1249 L 1076 1288 L 1033 1213 L 1225 1100 L 1225 300 C 1225 233.33333333333 1183.33333333333 166.66666666667 1100 100 C 1016.66666666667 33.33333333333 908.33333333333 0 775 0 L 725 0 C 591.66666666667 0 483.33333333333 33.33333333333 400 100 C 316.66666666667 166.66666666667 275 233.33333333333 275 300 L 275 993 L 188 1046 C 129.33333333333 1081.33333333333 100 1109.66666666667 100 1131 C 100 1151.66666666667 118.66666666667 1190.33333333333 156 1247 L 324 1500 L 432 1438 L 486 1406 C 517.33333333333 1388 544 1379 566 1379 C 570 1379 573.66666666667 1379.33333333333 577 1380 L 613 1385 C 613 1361.66666666667 599.33333333333 1328.66666666667 572 1286 C 544.66666666667 1243.33333333333 517.33333333333 1220 490 1216 C 486 1215.33333333333 481.66666666667 1215 477 1215 C 451.66666666667 1215 420 1226.33333333333 382 1249 L 314 1288 L 271 1213 L 463 1100 L 463 300 C 463 261.33333333333 489 225.66666666667 541 193 C 593 160.33333333333 654.33333333333 144 725 144 L 775 144 C 845.66666666667 144 907 160.33333333333 959 193 C 1011 225.66666666667 1037 261.33333333333 1037 300 L 1037 993 Z"/>
    <path fill="#000000" stroke="none" transform="matrix(1 0 0 -1 51286 3000)" d="M 1037 744 L 1037 993 L 950 1046 C 891.33333333333 1081.33333333333 862 1109.66666666667 862 1131 C 862 1151.66666666667 880.66666666667 1190.33333333333 918 1247 L 1086 1500 L 1194 1438 L 1248 1406 C 1279.33333333333 1388 1306 1379 1328 1379 C 1332 1379 1335.66666666667 1379.33333333333 1339 1380 L 1375 1385 C 1375 1361.66666666667 1361.33333333333 1328.66666666667 1334 1286 C 1306.66666666667 1243.33333333333 1279.33333333333 1220 1252 1216 C 1248 1215.33333333333 1243.66666666667 1215 1239 1215 C 1213.66666666667 1215 1182 1226.33333333333 1144 1249 L 1076 1288 L 1033 1213 L 1225 1100 L 1225 744 L 1350 744 L 1350 600 L 1225 600 L 1225 300 C 1225 233.33333333333 1183.33333333333 166.66666666667 1100 100 C 1016.66666666667 33.33333333333 908.33333333333 0 775 0 L 725 0 C 591.66666666667 0 483.33333333333 33.33333333333 400 100 C 316.66666666667 166.66666666667 275 233.33333333333 275 300 L 275 993 L 188 1046 C 129.33333333333 1081.33333333333 100 1109.66666666667 100 1131 C 100 1151.66666666667 118.66666666667 1190.33333333333 156 1247 L 324 1500 L 432 1438 L 486 1406 C 517.33333333333 1388 544 1379 566 1379 C 570 1379 573.66666666667 1379.33333333333 577 1380 L 613 1385 C 613 1361.66666666667 599.33333333333 1328.66666666667 572 1286 C 544.66666666667 1243.33333333333 517.33333333333 1220 490 1216 C 486 1215.33333333333 481.66666666667 1215 477 1215 C 451.66666666667 1215 420 1226.33333333333 382 1249 L 314 1288 L 271 1213 L 463 1100 L 463 300 C 463 261.33333333333 489 225.66666666667 541 193 C 593 160.33333333333 654.33333333333 144 725 144 L 775 144 C 845.66666666667 144 907 160.33333333333 959 193 C 1011 225.66666666667 1037 261.33333333333 1037 300 L 1037 600 L 850 600 L 850 744 L 1037 744 Z"/>
</svg>
