<svg width="62412" height="3789" viewBox="0 0 62412 3789" xmlns="http://www.w3.org/2000/svg">
    <defs/>
    <path fill="#000000" stroke="none" transform="matrix(1 0 0 -1 0 2689)" d="M 1210 766 C 1210 742 1202 721.33333333333 1186 704 C 1170 686 1150 677 1126 677 L 1062 680 C 896.66666666667 690 763 695 661 695 C 551.66666666667 695 417 690 257 680 L 194 677 C 170 677 150 686 134 704 C 118 721.33333333333 110 742 110 766 C 110 788.66666666667 117.33333333333 807.66666666667 132 823 C 146 838.33333333333 171.33333333333 848.66666666667 208 854 C 244 859.33333333333 306.33333333333 864.33333333333 395 869 C 483.66666666667 873 572.33333333333 875 661 875 C 715.66666666667 875 773 874 833 872 C 892.33333333333 870 949.66666666667 867 1005 863 C 1060.33333333333 859 1103 854.66666666667 1133 850 C 1162.33333333333 845.33333333333 1182.66666666667 835 1194 819 C 1204.66666666667 803 1210 785.33333333333 1210 766 Z M 1910 419 C 1910 395 1902 374.33333333333 1886 357 C 1870 339 1850 330 1826 330 L 1775 332 C 1461 347.33333333333 1256.33333333333 355 1161 355 C 1068.33333333333 355 938.33333333333 351 771 343 L 494 330 C 470 330 450 339 434 357 C 418 374.33333333333 410 395 410 419 C 410 436.33333333333 414.66666666667 452.33333333333 424 467 C 433.33333333333 481.66666666667 447 492.33333333333 465 499 C 483 505.66666666667 536.66666666667 512 626 518 C 714.66666666667 523.33333333333 816.33333333333 527.66666666667 931 531 C 1045.66666666667 533.66666666667 1122.33333333333 535 1161 535 C 1203.66666666667 535 1278.66666666667 533.66666666667 1386 531 C 1492.66666666667 527.66666666667 1594.33333333333 523 1691 517 C 1787 511 1843.33333333333 505 1860 499 C 1876 493 1888.33333333333 482.66666666667 1897 468 C 1905.66666666667 452.66666666667 1910 436.33333333333 1910 419 Z M 1910 78 C 1910 54 1902 33.33333333333 1886 16 C 1870 -2 1850 -11 1826 -11 C 1806 -11 1779 -9 1745 -5 C 1711 -1.66666666667 1674.66666666667 0 1636 0 C 1590 0 1551.66666666667 -1.66666666667 1521 -5 C 1489.66666666667 -9 1464 -11 1444 -11 C 1420 -11 1400 -2 1384 16 C 1368 33.33333333333 1360 54 1360 78 C 1360 110.66666666667 1378.66666666667 136 1416 154 C 1452.66666666667 171.33333333333 1526 180 1636 180 C 1744.66666666667 180 1817.66666666667 171.33333333333 1855 154 C 1891.66666666667 136 1910 110.66666666667 1910 78 Z"/>
    <path fill="#000000" stroke="none" transform="matrix(1 0 0 -1 2020 2689)" d="M 1610 755 C 1610 731 1602 710.33333333333 1586 693 C 1570 675 1550 666 1526 666 L 1472 671 C 1330.66666666667 687 1127 695 861 695 C 758.33333333333 695 668.33333333333 692.33333333333 591 687 C 513 681 447 675 393 669 C 338.33333333333 662.33333333333 294.66666666667 656.33333333333 262 651 C 229.33333333333 645 206.66666666667 642 194 642 C 170 642 150 651 134 669 C 118 686.33333333333 110 707 110 731 C 110 750.33333333333 115.66666666667 768 127 784 C 138.33333333333 799.33333333333 156.33333333333 810 181 816 C 235 830.66666666667 325 844.33333333333 451 857 C 577 869 713.66666666667 875 861 875 C 1173 875 1399 863.33333333333 1539 840 C 1564.33333333333 836 1582.66666666667 825.66666666667 1594 809 C 1604.66666666667 792.33333333333 1610 774.33333333333 1610 755 Z"/>
    <path fill="#000000" stroke="none" transform="matrix(1 0 0 -1 3740 2689)" d="M 1888 480 C 1888 322 1810.66666666667 199.33333333333 1656 112 C 1500.66666666667 24 1286.66666666667 -20 1014 -20 C 738 -20 523.33333333333 23.66666666667 370 111 C 216.66666666667 197.66666666667 140 320.66666666667 140 480 C 140 580.66666666667 174.33333333333 668.33333333333 243 743 C 311 817.66666666667 412.33333333333 876 547 918 C 681 959.33333333333 836.66666666667 980 1014 980 C 1194.66666666667 980 1351.66666666667 959.33333333333 1485 918 C 1618.33333333333 876.66666666667 1719 819 1787 745 C 1854.33333333333 671 1888 582.66666666667 1888 480 Z M 1694 480 C 1694 580.66666666667 1633.33333333333 659.33333333333 1512 716 C 1390 772 1224 800 1014 800 C 803.33333333333 800 637.33333333333 772.33333333333 516 717 C 394.66666666667 661 334 582 334 480 C 334 376.66666666667 394.33333333333 297.66666666667 515 243 C 635 187.66666666667 801.33333333333 160 1014 160 C 1222 160 1387.33333333333 187.66666666667 1510 243 C 1632.66666666667 298.33333333333 1694 377.33333333333 1694 480 Z"/>
    <path fill="#000000" stroke="none" transform="matrix(1 0 0 -1 5768 2689)" d="M 1148 848 C 1294.66666666667 936 1452 980 1620 980 C 1736 980 1828.33333333333 957 1897 911 C 1965 864.33333333333 1999 799.66666666667 1999 717 C 1999 667 1990.33333333333 618.33333333333 1973 571 C 1955.66666666667 523.66666666667 1932 477 1902 431 C 1871.33333333333 384.33333333333 1815.33333333333 315.33333333333 1734 224 C 1700.66666666667 186.66666666667 1668 149.66666666667 1636 113 C 1604 76.33333333333 1575.66666666667 39 1551 1 C 1537.66666666667 -19.66666666667 1516.33333333333 -30 1487 -30 C 1461.66666666667 -30 1438.33333333333 -21 1417 -3 C 1395 15 1384 35.33333333333 1384 58 C 1384 78 1396 104 1420 136 C 1444 168 1502.33333333333 232.66666666667 1595 330 C 1735 478 1805 597 1805 687 C 1805 723 1786 751 1748 771 C 1709.33333333333 790.33333333333 1657.33333333333 800 1592 800 C 1516 800 1441 786.33333333333 1367 759 C 1293 731 1220 690.33333333333 1148 637 C 1076 583.66666666667 1003.33333333333 516 930 434 C 856 352 767 233 663 77 C 632.33333333333 31 610.33333333333 1.66666666667 597 -11 C 583.66666666667 -23.66666666667 569 -30 553 -30 C 527 -30 502 -20.33333333333 478 -1 C 454 18.33333333333 442 39 442 61 C 442 87 477 148 547 244 C 616.33333333333 339.33333333333 697 438 789 540 C 880.33333333333 641.33333333333 947 705 989 731 C 935.66666666667 758.33333333333 889 776.66666666667 849 786 C 808.33333333333 795.33333333333 753.66666666667 800 685 800 C 599.66666666667 800 526.33333333333 791.66666666667 465 775 C 403.66666666667 758.33333333333 319.66666666667 722.66666666667 213 668 C 202.33333333333 662.66666666667 192.66666666667 660 184 660 C 165.33333333333 660 148.33333333333 669 133 687 C 117.66666666667 705 110 724.33333333333 110 745 C 110 773 122 796 146 814 C 308 924.66666666667 487.66666666667 980 685 980 C 765.66666666667 980 846.33333333333 968.66666666667 927 946 C 1007 922.66666666667 1080.66666666667 890 1148 848 Z"/>
    <path fill="#000000" stroke="none" transform="matrix(1 0 0 -1 7897 2689)" d="M 345 310 C 391 300 456 278.33333333333 540 245 C 623.33333333333 211.66666666667 686 180 728 150 C 769.33333333333 119.33333333333 790 92 790 68 C 790 44 781 22.66666666667 763 4 C 744.33333333333 -15.33333333333 722.33333333333 -25 697 -25 C 675.66666666667 -25 659.66666666667 -21.66666666667 649 -15 C 585 20.33333333333 521 52.33333333333 457 81 C 393 109.66666666667 309.33333333333 141.66666666667 206 177 C 178 186.33333333333 155 201.66666666667 137 223 C 119 244.33333333333 110 268 110 294 C 110 304.66666666667 116.33333333333 320.33333333333 129 341 C 141.66666666667 361.66666666667 156.33333333333 379.66666666667 173 395 C 277.66666666667 489 405.33333333333 571.66666666667 556 643 C 706 714.33333333333 875.66666666667 771 1065 813 C 1253.66666666667 854.33333333333 1439.33333333333 875 1622 875 C 1720 875 1769 843 1769 779 C 1769 747.66666666667 1756.66666666667 726.66666666667 1732 716 C 1707.33333333333 704.66666666667 1673.66666666667 698.33333333333 1631 697 C 1342.33333333333 685 1095.66666666667 647.33333333333 891 584 C 686.33333333333 520 504.33333333333 428.66666666667 345 310 Z M 1317 222 C 1317 201.33333333333 1308.33333333333 182.33333333333 1291 165 C 1273 147 1252.66666666667 138 1230 138 C 1218.66666666667 138 1204.33333333333 142.66666666667 1187 152 C 1169 161.33333333333 1138.66666666667 181 1096 211 C 1044.66666666667 245.66666666667 990.66666666667 275 934 299 C 885.33333333333 319.66666666667 853.33333333333 337 838 351 C 822 364.33333333333 814 383 814 407 C 814 433 822.33333333333 454 839 470 C 855.66666666667 485.33333333333 876.66666666667 493 902 493 C 928 493 961.66666666667 484.33333333333 1003 467 C 1044.33333333333 449 1093.33333333333 423.33333333333 1150 390 C 1206.66666666667 356.66666666667 1248.66666666667 327.33333333333 1276 302 C 1303.33333333333 276 1317 249.33333333333 1317 222 Z"/>
    <path fill="#000000" stroke="none" transform="matrix(1 0 0 -1 9776 2689)" d="M 1530 62 C 1530 39.33333333333 1520.66666666667 20 1502 4 C 1483.33333333333 -12 1461 -20 1435 -20 C 1421 -20 1404 -15 1384 -5 C 1364 4.33333333333 1337.66666666667 18 1305 36 C 1223 80 1145.33333333333 118.66666666667 1072 152 C 998 184.66666666667 906 221.33333333333 796 262 L 632 323 C 608.66666666667 331.66666666667 591.66666666667 343.66666666667 581 359 C 570.33333333333 374.33333333333 565 389.66666666667 565 405 C 565 430.33333333333 573.66666666667 452 591 470 C 608.33333333333 488 627.66666666667 497 649 497 C 684.33333333333 497 752.33333333333 478.66666666667 853 442 C 953 405.33333333333 1031 374.33333333333 1087 349 L 1170 314 C 1246 282 1315 250.33333333333 1377 219 C 1439 187 1480 160.33333333333 1500 139 C 1520 117.66666666667 1530 92 1530 62 Z M 1496 890 C 1496 871.33333333333 1490.66666666667 853.66666666667 1480 837 C 1468.66666666667 819.66666666667 1452.66666666667 809.66666666667 1432 807 C 1337.33333333333 797 1216 778.66666666667 1068 752 C 920 725.33333333333 781.33333333333 694.33333333333 652 659 C 522.66666666667 623 405.66666666667 584.33333333333 301 543 C 258.33333333333 526.33333333333 230 518 216 518 C 192 518 171.66666666667 527 155 545 C 138.33333333333 563 130 584.33333333333 130 609 C 130 640.33333333333 147.66666666667 666.33333333333 183 687 C 253 727 367 769.66666666667 525 815 C 682.33333333333 859.66666666667 850.66666666667 898.33333333333 1030 931 C 1208.66666666667 963.66666666667 1335.66666666667 980 1411 980 C 1434.33333333333 980 1454.33333333333 971.66666666667 1471 955 C 1487.66666666667 937.66666666667 1496 916 1496 890 Z"/>
    <path fill="#000000" stroke="none" transform="matrix(1 0 0 -1 11968 2689)" d="M 795 -20 C 703 -20 621 8.33333333333 549 65 C 477 121.66666666667 420.66666666667 204 380 312 C 339.33333333333 419.33333333333 318.66666666667 545.33333333333 318 690 L 194 682 C 170 682 150 691 134 709 C 118 726.33333333333 110 747 110 771 C 110 809.66666666667 133.66666666667 838 181 856 C 217.66666666667 868.66666666667 326 875 506 875 C 684.66666666667 875 792.33333333333 868.66666666667 829 856 C 876.33333333333 838 900 809.66666666667 900 771 C 900 747 892 726.33333333333 876 709 C 860 691 840 682 816 682 C 796 682 760.66666666667 684.33333333333 710 689 C 659.33333333333 693 590.33333333333 695 503 695 C 505 581 518.66666666667 484.33333333333 544 405 C 569.33333333333 325 603.66666666667 264.33333333333 647 223 C 690.33333333333 181 741 160 799 160 C 899 160 993.33333333333 220 1082 340 L 1186 479 C 1258.66666666667 577 1329.66666666667 646 1399 686 C 1468.33333333333 725.33333333333 1544 745 1626 745 C 1708 745 1783 725 1851 685 C 1918.33333333333 644.33333333333 1971.33333333333 589 2010 519 C 2048.66666666667 448.33333333333 2068 372 2068 290 C 2068 210.66666666667 2053 149 2023 105 C 1992.33333333333 61 1943.66666666667 29.33333333333 1877 10 C 1809.66666666667 -10 1712 -20 1584 -20 C 1536 -20 1504 -12.33333333333 1488 3 C 1471.33333333333 17.66666666667 1463 42.33333333333 1463 77 C 1463 132.33333333333 1504.66666666667 160 1588 160 C 1666.66666666667 160 1725.66666666667 163.66666666667 1765 171 C 1803.66666666667 178.33333333333 1831.66666666667 190.66666666667 1849 208 C 1865.66666666667 224.66666666667 1874 252 1874 290 C 1874 336.66666666667 1863 381.33333333333 1841 424 C 1818.33333333333 466.66666666667 1787.33333333333 501 1748 527 C 1708.66666666667 552.33333333333 1666.66666666667 565 1622 565 C 1572 565 1525.66666666667 551.33333333333 1483 524 C 1440.33333333333 496.66666666667 1396.66666666667 454 1352 396 L 1245 258 C 1165 155.33333333333 1089.33333333333 83.33333333333 1018 42 C 946.66666666667 0.66666666667 872.33333333333 -20 795 -20 Z"/>
    <path fill="#000000" stroke="none" transform="matrix(1 0 0 -1 14166 2689)" d="M 1055 787 C 1035 789 992.33333333333 791.66666666667 927 795 C 861 798.33333333333 798.33333333333 800 739 800 C 549 800 409 795 319 785 C 331 708.33333333333 360.33333333333 645 407 595 C 453.66666666667 544.33333333333 516 506.66666666667 594 482 C 672 456.66666666667 776.66666666667 436 908 420 C 1032.66666666667 404.66666666667 1135.66666666667 385 1217 361 C 1298.33333333333 337 1362.66666666667 300.66666666667 1410 252 C 1457.33333333333 202.66666666667 1487.66666666667 141 1501 67 L 1503 47 C 1503 26.33333333333 1494.66666666667 8.33333333333 1478 -7 C 1460.66666666667 -22.33333333333 1438.66666666667 -30 1412 -30 C 1382 -30 1359.33333333333 -25 1344 -15 C 1328 -5 1316.33333333333 13.66666666667 1309 41 C 1297.66666666667 81 1277.66666666667 113.66666666667 1249 139 C 1220.33333333333 164.33333333333 1185.33333333333 185.33333333333 1144 202 C 1102.66666666667 218 1056.66666666667 230.66666666667 1006 240 C 954.66666666667 249.33333333333 901.66666666667 258.33333333333 847 267 C 791.66666666667 275.66666666667 735.66666666667 285 679 295 C 621.66666666667 305 566.66666666667 318.66666666667 514 336 C 460.66666666667 352.66666666667 410.66666666667 374.33333333333 364 401 C 317.33333333333 427.66666666667 276.66666666667 462 242 504 C 207.33333333333 546 180 597 160 657 C 140 716.33333333333 130 787.33333333333 130 870 C 130 892 138.33333333333 911.33333333333 155 928 C 171 944.66666666667 193 954.66666666667 221 958 C 397 972.66666666667 566.33333333333 980 729 980 C 903.66666666667 980 1026 975.66666666667 1096 967 C 1166 957.66666666667 1216.66666666667 942.33333333333 1248 921 C 1278.66666666667 899.66666666667 1294 869.33333333333 1294 830 C 1294 804 1287 781.66666666667 1273 763 C 1258.33333333333 743.66666666667 1244 727.66666666667 1230 715 C 1187.33333333333 675 1155.33333333333 645 1134 625 C 1112 605 1088.33333333333 595 1063 595 C 1039 595 1018.66666666667 604 1002 622 C 984.66666666667 639.33333333333 976 659.66666666667 976 683 C 976 707.66666666667 987.33333333333 729.66666666667 1010 749 L 1055 787 Z"/>
    <path fill="#000000" stroke="none" transform="matrix(1 0 0 -1 15779 2689)" d="M 1354 980 C 1377.33333333333 980 1397.33333333333 971 1414 953 C 1430.66666666667 935 1439 913.66666666667 1439 889 C 1439 871.66666666667 1434.66666666667 855.33333333333 1426 840 C 1416.66666666667 824.66666666667 1402.66666666667 814.66666666667 1384 810 C 1289.33333333333 786 1188.33333333333 758.66666666667 1081 728 C 973.66666666667 696.66666666667 850 655.66666666667 710 605 C 569.33333333333 554.33333333333 473 512.66666666667 421 480 C 459 458.66666666667 527 429 625 391 C 723 352.33333333333 825.66666666667 316.33333333333 933 283 C 1039.66666666667 249.66666666667 1137.66666666667 220.33333333333 1227 195 C 1316.33333333333 169 1368.66666666667 154.33333333333 1384 151 C 1402.66666666667 147 1416.66666666667 137.33333333333 1426 122 C 1434.66666666667 106 1439 89.33333333333 1439 72 C 1439 46.66666666667 1430.33333333333 25 1413 7 C 1395.66666666667 -11 1376 -20 1354 -20 C 1332 -20 1279 -8.66666666667 1195 14 C 1111 36 1004 68 874 110 C 744 151.33333333333 599.33333333333 205 440 271 C 280 337 186.66666666667 380.33333333333 160 401 C 126.66666666667 426.33333333333 110 455 110 487 C 110 513.66666666667 125 537.66666666667 155 559 C 175.66666666667 574.33333333333 233 602.33333333333 327 643 C 420.33333333333 683 528.33333333333 726.33333333333 651 773 C 773.66666666667 819 913.66666666667 865 1071 911 C 1227.66666666667 957 1322 980 1354 980 Z"/>
    <path fill="#000000" stroke="none" transform="matrix(1 0 0 -1 17328 2689)" d="M 875 495 C 875 533.66666666667 888.66666666667 566.66666666667 916 594 C 942.66666666667 620.66666666667 975.33333333333 634 1014 634 C 1052.66666666667 634 1085.66666666667 620.66666666667 1113 594 C 1139.66666666667 566.66666666667 1153 533.66666666667 1153 495 C 1153 456.33333333333 1139.66666666667 423.66666666667 1113 397 C 1085.66666666667 369.66666666667 1052.66666666667 356 1014 356 C 975.33333333333 356 942.66666666667 369.66666666667 916 397 C 888.66666666667 423.66666666667 875 456.33333333333 875 495 Z M 1888 480 C 1888 322 1810.66666666667 199.33333333333 1656 112 C 1500.66666666667 24 1286.66666666667 -20 1014 -20 C 738 -20 523.33333333333 23.66666666667 370 111 C 216.66666666667 197.66666666667 140 320.66666666667 140 480 C 140 580.66666666667 174.33333333333 668.33333333333 243 743 C 311 817.66666666667 412.33333333333 876 547 918 C 681 959.33333333333 836.66666666667 980 1014 980 C 1194.66666666667 980 1351.66666666667 959.33333333333 1485 918 C 1618.33333333333 876.66666666667 1719 819 1787 745 C 1854.33333333333 671 1888 582.66666666667 1888 480 Z M 1694 480 C 1694 580.66666666667 1633.33333333333 659.33333333333 1512 716 C 1390 772 1224 800 1014 800 C 803.33333333333 800 637.33333333333 772.33333333333 516 717 C 394.66666666667 661 334 582 334 480 C 334 376.66666666667 394.33333333333 297.66666666667 515 243 C 635 187.66666666667 801.33333333333 160 1014 160 C 1222 160 1387.33333333333 187.66666666667 1510 243 C 1632.66666666667 298.33333333333 1694 377.33333333333 1694 480 Z"/>
    <path fill="#000000" stroke="none" transform="matrix(1 0 0 -1 19356 2689)" d="M 575 388 C 433.66666666667 478.66666666667 326 558.66666666667 252 628 C 177.33333333333 696.66666666667 140 750.33333333333 140 789 C 140 813 151.66666666667 836.33333333333 175 859 C 197.66666666667 881 239.66666666667 901.66666666667 301 921 C 361.66666666667 940.33333333333 434 955 518 965 C 601.33333333333 975 696 980 802 980 C 1004.66666666667 980 1170.66666666667 963.33333333333 1300 930 C 1429.33333333333 896.66666666667 1494 849.66666666667 1494 789 C 1494 761.66666666667 1489 738.66666666667 1479 720 C 1468.33333333333 701.33333333333 1447.66666666667 684.33333333333 1417 669 C 1243.66666666667 581 1072 487 902 387 C 1004 329 1152 257.66666666667 1346 173 C 1367.33333333333 163.66666666667 1383.33333333333 151 1394 135 C 1404 119 1409 103.66666666667 1409 89 C 1409 65 1400.33333333333 43.66666666667 1383 25 C 1365.66666666667 6.33333333333 1345.66666666667 -3 1323 -3 C 1297.66666666667 -3 1227 25.33333333333 1111 82 C 994.33333333333 138.66666666667 869.66666666667 207 737 287 C 561.66666666667 179 419.66666666667 84 311 2 C 281 -19.33333333333 256 -30 236 -30 C 213.33333333333 -30 193.33333333333 -20.66666666667 176 -2 C 158.66666666667 16.66666666667 150 38 150 62 C 150 78 157.33333333333 94.33333333333 172 111 C 186.66666666667 127 238 165 326 225 C 413.33333333333 285 496.33333333333 339.33333333333 575 388 Z M 1251 754 C 1186.33333333333 768.66666666667 1113 780 1031 788 C 948.33333333333 796 872 800 802 800 C 648.66666666667 800 505.66666666667 784.66666666667 373 754 C 495.66666666667 651.33333333333 617 561.66666666667 737 485 C 923 594.33333333333 1094.33333333333 684 1251 754 Z"/>
    <path fill="#000000" stroke="none" transform="matrix(1 0 0 -1 20990 2689)" d="M 1622 565 C 1572 565 1525.66666666667 551.33333333333 1483 524 C 1440.33333333333 496.66666666667 1396.66666666667 454 1352 396 L 1245 258 C 1165 155.33333333333 1089.33333333333 83.33333333333 1018 42 C 946.66666666667 0.66666666667 872.33333333333 -20 795 -20 C 703 -20 621 8.33333333333 549 65 C 477 121.66666666667 420.66666666667 204 380 312 C 339.33333333333 419.33333333333 318.66666666667 545.33333333333 318 690 L 194 682 C 170 682 150 691 134 709 C 118 726.33333333333 110 747 110 771 C 110 809.66666666667 133.66666666667 838 181 856 C 217.66666666667 868.66666666667 326 875 506 875 C 684.66666666667 875 792.33333333333 868.66666666667 829 856 C 876.33333333333 838 900 809.66666666667 900 771 C 900 747 892 726.33333333333 876 709 C 860 691 840 682 816 682 C 796 682 760.66666666667 684.33333333333 710 689 C 659.33333333333 693 590.33333333333 695 503 695 C 505 581 518.66666666667 484.33333333333 544 405 C 569.33333333333 325 603.66666666667 264.33333333333 647 223 C 690.33333333333 181 741 160 799 160 C 899 160 993.33333333333 220 1082 340 L 1186 479 C 1258.66666666667 577 1329.66666666667 646 1399 686 C 1468.33333333333 725.33333333333 1544 745 1626 745 C 1714.66666666667 745 1792.33333333333 722.66666666667 1859 678 C 1925.66666666667 632.66666666667 1979.66666666667 565 2021 475 C 2061.66666666667 385 2082 306.33333333333 2082 239 C 2082 215.66666666667 2074 196.33333333333 2058 181 C 2042 165.66666666667 2021 158 1995 158 C 1967.66666666667 158 1946 166.33333333333 1930 183 C 1914 199.66666666667 1902.66666666667 225 1896 259 C 1885.33333333333 307.66666666667 1867.66666666667 358 1843 410 C 1818.33333333333 461.33333333333 1787.66666666667 500 1751 526 C 1714.33333333333 552 1671.33333333333 565 1622 565 Z"/>
    <path fill="#000000" stroke="none" transform="matrix(1 0 0 -1 23714 2689)" d="M 508 -20 C 444.66666666667 -20 384.33333333333 -2 327 34 C 269 69.33333333333 223.33333333333 118.33333333333 190 181 C 156.66666666667 243.66666666667 140 316 140 398 C 140 554 177.66666666667 668 253 740 C 327.66666666667 812 439 870 587 914 C 734.33333333333 958 904.33333333333 980 1097 980 C 1251 980 1393.66666666667 964.66666666667 1525 934 C 1655.66666666667 902.66666666667 1769 857.33333333333 1865 798 C 1989 721.33333333333 2051 595.66666666667 2051 421 C 2051 331.66666666667 2035 254 2003 188 C 1970.33333333333 122 1924.66666666667 71 1866 35 C 1807.33333333333 -1.66666666667 1743 -20 1673 -20 C 1624.33333333333 -20 1576 -12.33333333333 1528 3 C 1479.33333333333 17.66666666667 1422 45.66666666667 1356 87 L 1095 249 L 784 57 C 700 5.66666666667 608 -20 508 -20 Z M 1666 160 C 1726 160 1774.66666666667 184 1812 232 C 1848.66666666667 279.33333333333 1867 344.66666666667 1867 428 C 1867 476.66666666667 1855.33333333333 521.33333333333 1832 562 C 1808.66666666667 602 1778 633 1740 655 C 1660 701.66666666667 1564.33333333333 737.66666666667 1453 763 C 1341 787.66666666667 1222 800 1096 800 C 836 800 623.33333333333 752.66666666667 458 658 C 368.66666666667 606 324 529.33333333333 324 428 C 324 342 342 276 378 230 C 413.33333333333 183.33333333333 462.66666666667 160 526 160 C 560 160 607.66666666667 175.33333333333 669 206 L 952 388 C 970.66666666667 400 993.66666666667 410.33333333333 1021 419 C 1048.33333333333 427 1073.33333333333 431 1096 431 C 1147.33333333333 431 1192.66666666667 417.33333333333 1232 390 L 1459 244 C 1545 188 1614 160 1666 160 Z"/>
    <path fill="#000000" stroke="none" transform="matrix(1 0 0 -1 25905 2689)" d="M 1821 375 C 1821 350.33333333333 1809.66666666667 328.33333333333 1787 309 C 1763.66666666667 289.66666666667 1739 280 1713 280 C 1691.66666666667 280 1673 291 1657 313 C 1619 365.66666666667 1577.33333333333 406 1532 434 C 1486 461.33333333333 1430.33333333333 475 1365 475 C 1313 475 1258.33333333333 466.33333333333 1201 449 C 1143.66666666667 431.66666666667 1072.66666666667 403 988 363 C 907.33333333333 323.66666666667 833.66666666667 295 767 277 C 700.33333333333 259 635.33333333333 250 572 250 C 482 250 400.33333333333 267.66666666667 327 303 C 253.66666666667 338.33333333333 187 396.33333333333 127 477 C 115.66666666667 492.33333333333 110 510 110 530 C 110 554.66666666667 121.66666666667 576.66666666667 145 596 C 167.66666666667 615.33333333333 192 625 218 625 C 239.33333333333 625 258 614 274 592 C 312 539.33333333333 354 499.33333333333 400 472 C 445.33333333333 444 500.66666666667 430 566 430 C 618.66666666667 430 674.33333333333 439 733 457 C 791.66666666667 475 861.66666666667 503.66666666667 943 543 C 1020.33333333333 580.33333333333 1092.66666666667 608.33333333333 1160 627 C 1227.33333333333 645.66666666667 1293.66666666667 655 1359 655 C 1449 655 1530.66666666667 637.33333333333 1604 602 C 1677.33333333333 566.66666666667 1744 508.66666666667 1804 428 C 1815.33333333333 412.66666666667 1821 395 1821 375 Z"/>
    <path fill="#000000" stroke="none" transform="matrix(1 0 0 -1 27836 2689)" d="M 1544 651 C 1442 680.33333333333 1245 695 953 695 C 845.66666666667 695 724.66666666667 685 590 665 C 455.33333333333 644.33333333333 356.66666666667 622.66666666667 294 600 C 244 583.33333333333 210.66666666667 575 194 575 C 170.66666666667 575 151 584.33333333333 135 603 C 118.33333333333 621 110 642.66666666667 110 668 C 110 681.33333333333 114.66666666667 696 124 712 C 132.66666666667 727.33333333333 147 739 167 747 C 261 785 383 816 533 840 C 682.33333333333 863.33333333333 822.33333333333 875 953 875 C 1133 875 1287.66666666667 868.33333333333 1417 855 C 1545.66666666667 841 1641.33333333333 821.33333333333 1704 796 C 1766 770.66666666667 1797 736 1797 692 C 1797 666 1793 646.33333333333 1785 633 C 1776.33333333333 619 1764.33333333333 606.33333333333 1749 595 C 1600.33333333333 488.33333333333 1483 378 1397 264 C 1382.33333333333 244 1358.66666666667 234 1326 234 C 1300.66666666667 234 1279 243.33333333333 1261 262 C 1242.33333333333 280 1233 300 1233 322 C 1233 348.66666666667 1243.33333333333 374 1264 398 C 1326 473.33333333333 1419.33333333333 557.66666666667 1544 651 Z"/>
    <path fill="#000000" stroke="none" transform="matrix(1 0 0 -1 29763 2689)" d="M 1972 604 C 1972 568 1968 536 1960 508 C 1934.66666666667 416.66666666667 1890.66666666667 342.66666666667 1828 286 C 1765.33333333333 229.33333333333 1694.66666666667 201 1616 201 C 1502 201 1411 258.33333333333 1343 373 C 1300.33333333333 443.66666666667 1268.33333333333 490 1247 512 C 1225.66666666667 533.33333333333 1201.66666666667 544 1175 544 C 1148.33333333333 544 1122 530.33333333333 1096 503 C 1069.33333333333 475 1038.33333333333 429.33333333333 1003 366 C 945.66666666667 262 895.33333333333 184.66666666667 852 134 C 808.66666666667 83.33333333333 761.33333333333 45 710 19 C 658 -7 602 -20 542 -20 C 467.33333333333 -20 398.33333333333 -0.33333333333 335 39 C 271.66666666667 78.33333333333 221.66666666667 132.66666666667 185 202 C 148.33333333333 270.66666666667 130 345.66666666667 130 427 C 130 511.66666666667 149.33333333333 588.33333333333 188 657 C 226.66666666667 725.66666666667 280.33333333333 779 349 817 C 417 855 494.66666666667 874 582 874 C 662.66666666667 874 735.66666666667 850.33333333333 801 803 C 865.66666666667 755 918 687.33333333333 958 600 C 988 636 1021 665.66666666667 1057 689 C 1092.33333333333 712.33333333333 1133 724 1179 724 C 1230.33333333333 724 1276.66666666667 710 1318 682 C 1359.33333333333 653.33333333333 1397.66666666667 610.33333333333 1433 553 C 1472.33333333333 487.66666666667 1504.66666666667 442.66666666667 1530 418 C 1555.33333333333 393.33333333333 1582.66666666667 381 1612 381 C 1642.66666666667 381 1670.33333333333 391.33333333333 1695 412 C 1719.66666666667 432.66666666667 1739.33333333333 459.33333333333 1754 492 C 1768.66666666667 524.66666666667 1780 555.33333333333 1788 584 C 1796 618.66666666667 1807.66666666667 644.33333333333 1823 661 C 1837.66666666667 677 1858.33333333333 685 1885 685 C 1911 685 1932 677.33333333333 1948 662 C 1964 646.66666666667 1972 627.33333333333 1972 604 Z M 568 160 C 596 160 623 168 649 184 C 675 200 700.66666666667 223.33333333333 726 254 C 751.33333333333 284.66666666667 785.33333333333 335.66666666667 828 407 C 810 493.66666666667 777.33333333333 563.33333333333 730 616 C 682 668 628 694 568 694 C 496 694 438.33333333333 669 395 619 C 351 569 329 504.66666666667 329 426 C 329 348 351 284.33333333333 395 235 C 439 185 496.66666666667 160 568 160 Z"/>
    <path fill="#000000" stroke="none" transform="matrix(1 0 0 -1 31845 2689)" d="M 1079 875 C 1281.66666666667 875 1468.33333333333 862 1639 836 C 1809.66666666667 809.33333333333 1937 772.33333333333 2021 725 C 2041.66666666667 713.66666666667 2052 690.66666666667 2052 656 C 2052 629.33333333333 2044.33333333333 606.66666666667 2029 588 C 2013 569.33333333333 1993.66666666667 560 1971 560 C 1961.66666666667 560 1943 566 1915 578 L 1899 584 C 1689.66666666667 658 1416.33333333333 695 1079 695 C 918.33333333333 695 772.66666666667 682 642 656 C 511.33333333333 629.33333333333 375.66666666667 589.33333333333 235 536 C 214.33333333333 528 199 524 189 524 C 165.66666666667 524 146.66666666667 533.33333333333 132 552 C 117.33333333333 570 110 591.33333333333 110 616 C 110 650 122.66666666667 673 148 685 C 271.33333333333 744.33333333333 419 791 591 825 C 763 858.33333333333 925.66666666667 875 1079 875 Z M 2023 78 C 2023 54 2015 33.33333333333 1999 16 C 1983 -2 1963 -11 1939 -11 C 1919 -11 1892 -9 1858 -5 C 1824 -1.66666666667 1787.66666666667 0 1749 0 C 1703 0 1664.66666666667 -1.66666666667 1634 -5 C 1602.66666666667 -9 1577 -11 1557 -11 C 1533 -11 1513 -2 1497 16 C 1481 33.33333333333 1473 54 1473 78 C 1473 110.66666666667 1491.66666666667 136 1529 154 C 1565.66666666667 171.33333333333 1639 180 1749 180 C 1857.66666666667 180 1930.66666666667 171.33333333333 1968 154 C 2004.66666666667 136 2023 110.66666666667 2023 78 Z M 1103 78 C 1103 54 1095 33.33333333333 1079 16 C 1063 -2 1043 -11 1019 -11 C 999 -11 972 -9 938 -5 C 904 -1.66666666667 867.66666666667 0 829 0 C 783 0 744.66666666667 -1.66666666667 714 -5 C 682.66666666667 -9 657 -11 637 -11 C 613 -11 593 -2 577 16 C 561 33.33333333333 553 54 553 78 C 553 110.66666666667 571.66666666667 136 609 154 C 645.66666666667 171.33333333333 719 180 829 180 C 937.66666666667 180 1010.66666666667 171.33333333333 1048 154 C 1084.66666666667 136 1103 110.66666666667 1103 78 Z"/>
    <path fill="#000000" stroke="none" transform="matrix(1 0 0 -1 34007 2689)" d="M 2082 239 C 2082 215.66666666667 2074 196.33333333333 2058 181 C 2042 165.66666666667 2021 158 1995 158 C 1967.66666666667 158 1946 166.33333333333 1930 183 C 1914 199.66666666667 1902.66666666667 225 1896 259 C 1885.33333333333 307.66666666667 1867.66666666667 358 1843 410 C 1818.33333333333 461.33333333333 1787.66666666667 500 1751 526 C 1714.33333333333 552 1671.33333333333 565 1622 565 C 1572 565 1525.66666666667 551.33333333333 1483 524 C 1440.33333333333 496.66666666667 1396.66666666667 454 1352 396 L 1245 258 C 1165 155.33333333333 1089.33333333333 83.33333333333 1018 42 C 946.66666666667 0.66666666667 872.33333333333 -20 795 -20 C 707 -20 629 3.66666666667 561 51 C 493 98.33333333333 438.66666666667 167.66666666667 398 259 C 356.66666666667 349.66666666667 336 429.33333333333 336 498 C 336 521.33333333333 344 540.66666666667 360 556 C 376 571.33333333333 397 579 423 579 C 449.66666666667 579 471 571 487 555 C 503 538.33333333333 515 513 523 479 C 533 430.33333333333 549.66666666667 379.66666666667 573 327 C 596.33333333333 273.66666666667 627.33333333333 232.66666666667 666 204 C 704 174.66666666667 748.33333333333 160 799 160 C 899 160 993.33333333333 220 1082 340 L 1186 479 C 1258.66666666667 577 1329.66666666667 646 1399 686 C 1468.33333333333 725.33333333333 1544 745 1626 745 C 1714.66666666667 745 1792.33333333333 722.66666666667 1859 678 C 1925.66666666667 632.66666666667 1979.66666666667 565 2021 475 C 2061.66666666667 385 2082 306.33333333333 2082 239 Z M 506 695 C 410 695 319 691.33333333333 233 684 L 194 682 C 170 682 150 691 134 709 C 118 726.33333333333 110 747 110 771 C 110 809.66666666667 133.66666666667 838 181 856 C 217.66666666667 868.66666666667 326 875 506 875 C 684.66666666667 875 792.33333333333 868.66666666667 829 856 C 876.33333333333 838 900 809.66666666667 900 771 C 900 747 892 726.33333333333 876 709 C 860 691 840 682 816 682 C 796 682 761.66666666667 684.33333333333 713 689 C 663.66666666667 693 594.66666666667 695 506 695 Z"/>
    <path fill="#000000" stroke="none" transform="matrix(1 0 0 -1 36731 2689)" d="M 2197 94 C 2081 86 1971.66666666667 75.66666666667 1869 63 C 1765.66666666667 49.66666666667 1686 36.66666666667 1630 24 C 1471.33333333333 -12.66666666667 1380.33333333333 -31 1357 -31 C 1333 -31 1313 -21 1297 -1 C 1281 19 1273 42.33333333333 1273 69 C 1273 107 1294.66666666667 134 1338 150 C 1392.66666666667 169.33333333333 1490.33333333333 190.66666666667 1631 214 C 1771 236.66666666667 1890.33333333333 250.33333333333 1989 255 C 1959.66666666667 420.33333333333 1920.66666666667 535 1872 599 C 1823.33333333333 663 1760.33333333333 695 1683 695 C 1619.66666666667 695 1526.66666666667 636.33333333333 1404 519 L 1329 450 L 1098 245 C 946 108.33333333333 793 40 639 40 C 579 40 526.33333333333 48.66666666667 481 66 C 435 83.33333333333 393 107.66666666667 355 139 C 316.33333333333 170.33333333333 279 208 243 252 C 207 295.33333333333 168.33333333333 343.66666666667 127 397 C 115.66666666667 412.33333333333 110 430 110 450 C 110 474.66666666667 121.66666666667 496.66666666667 145 516 C 167.66666666667 535.33333333333 192 545 218 545 C 237.33333333333 545 256 534 274 512 C 341.33333333333 424.66666666667 393 363.33333333333 429 328 C 465 292 499.33333333333 265 532 247 C 564 229 597.66666666667 220 633 220 C 737.66666666667 220 860 283.66666666667 1000 411 L 1247 634 C 1330.33333333333 710 1392.66666666667 762 1434 790 C 1474.66666666667 818 1515 839.33333333333 1555 854 C 1594.33333333333 868 1637 875 1683 875 C 1839.66666666667 875 1959.66666666667 814.33333333333 2043 693 C 2126.33333333333 571 2177.66666666667 371.33333333333 2197 94 Z"/>
    <path fill="#000000" stroke="none" transform="matrix(1 0 0 -1 39038 2689)" d="M 1099 672 C 1199.66666666667 613.33333333333 1277.66666666667 550 1333 482 C 1388.33333333333 414 1416 344 1416 272 C 1416 197.33333333333 1398 139.66666666667 1362 99 C 1325.33333333333 57.66666666667 1269.66666666667 27.66666666667 1195 9 C 1119.66666666667 -10.33333333333 1022.33333333333 -20 903 -20 C 816.33333333333 -20 741.33333333333 -14 678 -2 C 614 9.33333333333 563.33333333333 26 526 48 C 488 69.33333333333 459.33333333333 97.66666666667 440 133 C 420.66666666667 167.66666666667 411 214 411 272 C 411 336.66666666667 437.33333333333 402.66666666667 490 470 C 542.66666666667 536.66666666667 622 603 728 669 C 608.66666666667 713.66666666667 475.33333333333 750.33333333333 328 779 C 303.33333333333 783.66666666667 284.33333333333 794 271 810 C 257 825.33333333333 250 843 250 863 C 250 888.33333333333 257.66666666667 910 273 928 C 287.66666666667 945.33333333333 305 954 325 954 C 349.66666666667 954 431 934.66666666667 569 896 C 706.33333333333 856.66666666667 822 814.33333333333 916 769 C 1057.33333333333 835.66666666667 1204.66666666667 887.66666666667 1358 925 C 1511.33333333333 961.66666666667 1649 980 1771 980 C 1798.33333333333 980 1818 971 1830 953 C 1841.33333333333 935 1847 914.33333333333 1847 891 C 1847 863.66666666667 1841.33333333333 841.66666666667 1830 825 C 1818 808.33333333333 1801.66666666667 800 1781 800 C 1557 800 1329.66666666667 757.33333333333 1099 672 Z M 1269 1234 C 1269 1210.66666666667 1262 1189 1248 1169 C 1234 1148.33333333333 1215.66666666667 1138 1193 1138 L 1128 1145 C 867.33333333333 1156.33333333333 721.66666666667 1162 691 1162 C 610.33333333333 1162 520 1159 420 1153 C 320 1146.33333333333 252.33333333333 1139.66666666667 217 1133 L 180 1130 C 162.66666666667 1130 146.66666666667 1138.66666666667 132 1156 C 117.33333333333 1172.66666666667 110 1193.66666666667 110 1219 C 110 1234.33333333333 113.66666666667 1249.33333333333 121 1264 C 127.66666666667 1278 136.33333333333 1288 147 1294 C 157.66666666667 1300 200.66666666667 1307.66666666667 276 1317 C 350.66666666667 1325.66666666667 428.33333333333 1332 509 1336 C 589.66666666667 1340 650.33333333333 1342 691 1342 C 913.66666666667 1342 1083 1331.33333333333 1199 1310 C 1224.33333333333 1304.66666666667 1242.33333333333 1294.66666666667 1253 1280 C 1263.66666666667 1264.66666666667 1269 1249.33333333333 1269 1234 Z M 911 589 C 818.33333333333 541 744.33333333333 489 689 433 C 633 377 605 323.33333333333 605 272 C 605 234.66666666667 627.66666666667 206.66666666667 673 188 C 718.33333333333 169.33333333333 799 160 915 160 C 1013.66666666667 160 1089.66666666667 169.66666666667 1143 189 C 1195.66666666667 208.33333333333 1222 236 1222 272 C 1222 321.33333333333 1195 373.33333333333 1141 428 C 1087 482.66666666667 1010.33333333333 536.33333333333 911 589 Z"/>
    <path fill="#000000" stroke="none" transform="matrix(1 0 0 -1 40995 2689)" d="M 1832 698 C 1736 733.33333333333 1631.33333333333 759.33333333333 1518 776 C 1404.66666666667 792 1258.33333333333 800 1079 800 C 956.33333333333 800 854.66666666667 795 774 785 C 693.33333333333 774.33333333333 609.33333333333 757.66666666667 522 735 C 434.66666666667 711.66666666667 339 680.33333333333 235 641 C 214.33333333333 633 199 629 189 629 C 165.66666666667 629 146.66666666667 638.33333333333 132 657 C 117.33333333333 675 110 696.33333333333 110 721 C 110 755 122.66666666667 778 148 790 C 275.33333333333 852.66666666667 419.66666666667 900 581 932 C 742.33333333333 964 908.33333333333 980 1079 980 C 1243.66666666667 980 1381.66666666667 973.66666666667 1493 961 C 1603.66666666667 948.33333333333 1701.66666666667 929 1787 903 C 1871.66666666667 877 1934.33333333333 850 1975 822 C 2015.66666666667 793.33333333333 2036 763.33333333333 2036 732 C 2036 706 2030.33333333333 682.33333333333 2019 661 C 2007 639 1985.66666666667 611.66666666667 1955 579 C 1877 494.33333333333 1797 398.33333333333 1715 291 C 1633 183.66666666667 1574 99.66666666667 1538 39 C 1530 24.33333333333 1518 9.33333333333 1502 -6 C 1485.33333333333 -22 1470.33333333333 -30 1457 -30 C 1433.66666666667 -30 1411 -20 1389 0 C 1366.33333333333 20 1355 41.66666666667 1355 65 C 1355 87 1385 142 1445 230 C 1504.33333333333 317.33333333333 1568.66666666667 403.33333333333 1638 488 C 1707.33333333333 572 1772 642 1832 698 Z M 1085 533 C 1085 509 1078.33333333333 490.33333333333 1065 477 C 1009 419.66666666667 946 346.66666666667 876 258 C 805.33333333333 168.66666666667 745.66666666667 86 697 10 C 689 -2.66666666667 680.33333333333 -12.33333333333 671 -19 C 661.66666666667 -26.33333333333 648.33333333333 -30 631 -30 C 605 -30 581 -21 559 -3 C 536.33333333333 15 525 35 525 57 C 525 63 525.66666666667 68.33333333333 527 73 C 527.66666666667 77.66666666667 533.33333333333 89.66666666667 544 109 C 554 127.66666666667 571.33333333333 155 596 191 C 620.66666666667 227 651.66666666667 269 689 317 C 725.66666666667 365 769.33333333333 417.66666666667 820 475 C 870 531.66666666667 906 569.33333333333 928 588 C 949.33333333333 606.66666666667 970.33333333333 616.66666666667 991 618 C 1015.66666666667 618 1037.66666666667 609.66666666667 1057 593 C 1075.66666666667 576.33333333333 1085 556.33333333333 1085 533 Z"/>
    <path fill="#000000" stroke="none" transform="matrix(1 0 0 -1 43161 2689)" d="M 1088 63 C 1088 39 1079 17.66666666667 1061 -1 C 1042.33333333333 -20.33333333333 1020.33333333333 -30 995 -30 C 978.33333333333 -30 962.33333333333 -26.66666666667 947 -20 L 464 161 C 404.66666666667 184.33333333333 375 222 375 274 C 375 298 396 333 438 379 C 545.33333333333 501.66666666667 701.66666666667 618 907 728 C 786.33333333333 778.66666666667 674 814.66666666667 570 836 C 465.33333333333 856.66666666667 342 871 200 879 C 175.33333333333 881 159.66666666667 883.66666666667 153 887 C 124.33333333333 899.66666666667 110 924 110 960 C 110 986 122 1006 146 1020 C 169.33333333333 1033.33333333333 202.33333333333 1040 245 1040 C 379 1040 516.66666666667 1024 658 992 C 799.33333333333 960 950 907.66666666667 1110 835 L 1121 830 C 1359 930 1555.33333333333 980 1710 980 C 1766.66666666667 980 1805.33333333333 974.33333333333 1826 963 C 1846.66666666667 951.66666666667 1857 934.66666666667 1857 912 C 1857 880 1843.66666666667 856 1817 840 C 1790.33333333333 824 1748.66666666667 813 1692 807 C 1565.33333333333 793 1429.66666666667 760.33333333333 1285 709 C 1139.66666666667 657 1002.33333333333 592 873 514 C 743.66666666667 435.33333333333 651.66666666667 362 597 294 L 1001 154 C 1059 127.33333333333 1088 97 1088 63 Z"/>
    <path fill="#000000" stroke="none" transform="matrix(1 0 0 -1 45128 2689)" d="M 933 900 C 813.66666666667 900 692.33333333333 892 569 876 C 445.66666666667 859.33333333333 354 840.66666666667 294 820 C 244 803.33333333333 210.66666666667 795 194 795 C 170.66666666667 795 151 804.33333333333 135 823 C 118.33333333333 841 110 862.66666666667 110 888 C 110 922.66666666667 133 951 179 973 C 225 995 285.66666666667 1014 361 1030 C 436.33333333333 1046 527 1058.33333333333 633 1067 C 739 1075.66666666667 839 1080 933 1080 C 1089.66666666667 1080 1239 1070.33333333333 1381 1051 C 1523 1031.66666666667 1625.33333333333 1006 1688 974 C 1711.33333333333 961.33333333333 1729 949 1741 937 C 1753 924.33333333333 1759 908.33333333333 1759 889 C 1759 864.33333333333 1751 842.66666666667 1735 824 C 1719 804.66666666667 1699 795 1675 795 C 1655 795 1626.33333333333 801.66666666667 1589 815 C 1515.66666666667 840.33333333333 1414.66666666667 861 1286 877 C 1157.33333333333 892.33333333333 1039.66666666667 900 933 900 Z M 930 451 C 836.66666666667 451 731.66666666667 444.66666666667 615 432 L 568 428 C 544 428 524 437 508 455 C 492 472.33333333333 484 493 484 517 C 484 535 489 550.66666666667 499 564 C 509 577.33333333333 524 588.66666666667 544 598 C 564 606.66666666667 611.66666666667 614.33333333333 687 621 C 762.33333333333 627.66666666667 843.33333333333 631 930 631 C 1008 631 1085 628 1161 622 C 1237 615.33333333333 1284.33333333333 608.66666666667 1303 602 C 1350.33333333333 584 1374 555.66666666667 1374 517 C 1374 493 1366 472.33333333333 1350 455 C 1334 437 1314 428 1290 428 L 1242 432 C 1119.33333333333 444.66666666667 1015.33333333333 451 930 451 Z M 1206 78 C 1206 54 1198 33.33333333333 1182 16 C 1166 -2 1146 -11 1122 -11 C 1102 -11 1075 -9 1041 -5 C 1007 -1.66666666667 970.66666666667 0 932 0 C 886 0 847.66666666667 -1.66666666667 817 -5 C 785.66666666667 -9 760 -11 740 -11 C 716 -11 696 -2 680 16 C 664 33.33333333333 656 54 656 78 C 656 110.66666666667 674.66666666667 136 712 154 C 748.66666666667 171.33333333333 822 180 932 180 C 1040.66666666667 180 1113.66666666667 171.33333333333 1151 154 C 1187.66666666667 136 1206 110.66666666667 1206 78 Z"/>
    <path fill="#000000" stroke="none" transform="matrix(1 0 0 -1 46997 2689)" d="M 1354 78 C 1354 54 1346 33.33333333333 1330 16 C 1314 -2 1294 -11 1270 -11 C 1250 -11 1223 -9 1189 -5 C 1155 -1.66666666667 1118.66666666667 0 1080 0 C 1034 0 995.66666666667 -1.66666666667 965 -5 C 933.66666666667 -9 908 -11 888 -11 C 864 -11 844 -2 828 16 C 812 33.33333333333 804 54 804 78 C 804 110.66666666667 822.66666666667 136 860 154 C 896.66666666667 171.33333333333 970 180 1080 180 C 1188.66666666667 180 1261.66666666667 171.33333333333 1299 154 C 1335.66666666667 136 1354 110.66666666667 1354 78 Z M 1079 875 C 1281.66666666667 875 1468.33333333333 862 1639 836 C 1809.66666666667 809.33333333333 1937 772.33333333333 2021 725 C 2041.66666666667 713.66666666667 2052 690.66666666667 2052 656 C 2052 629.33333333333 2044.33333333333 606.66666666667 2029 588 C 2013 569.33333333333 1993.66666666667 560 1971 560 C 1961.66666666667 560 1943 566 1915 578 L 1899 584 C 1689.66666666667 658 1416.33333333333 695 1079 695 C 918.33333333333 695 772.66666666667 682 642 656 C 511.33333333333 629.33333333333 375.66666666667 589.33333333333 235 536 C 214.33333333333 528 199 524 189 524 C 165.66666666667 524 146.66666666667 533.33333333333 132 552 C 117.33333333333 570 110 591.33333333333 110 616 C 110 650 122.66666666667 673 148 685 C 271.33333333333 744.33333333333 419 791 591 825 C 763 858.33333333333 925.66666666667 875 1079 875 Z"/>
    <path fill="#000000" stroke="none" transform="matrix(1 0 0 -1 49691 2689)" d="M 1189 767 C 1189 743.66666666667 1182 722 1168 702 C 1154 681.33333333333 1135.66666666667 671 1113 671 L 1081 675 C 1063 677 992.33333333333 681 869 687 C 745.66666666667 692.33333333333 676.33333333333 695 661 695 L 531 692 C 534.33333333333 578 548.66666666667 481.33333333333 574 402 C 598.66666666667 322.66666666667 633 262.66666666667 677 222 C 720.33333333333 180.66666666667 770.33333333333 160 827 160 C 927 160 1021.33333333333 220 1110 340 L 1214 479 C 1309.33333333333 607.66666666667 1417.33333333333 706 1538 774 C 1658.66666666667 841.33333333333 1783 875 1911 875 C 1953 875 1983 867.33333333333 2001 852 C 2019 836.66666666667 2028 819.33333333333 2028 800 C 2028 736 1988 701 1908 695 C 1792.66666666667 685 1694.66666666667 657 1614 611 C 1532.66666666667 565 1454.66666666667 493.33333333333 1380 396 L 1283 271 C 1455 213 1668 164 1922 124 L 1960 119 C 2005.33333333333 113 2028 87 2028 41 C 2028 13 2018.33333333333 -9 1999 -25 C 1979 -41.66666666667 1953.66666666667 -50 1923 -50 C 1823 -50 1700 -33.33333333333 1554 0 C 1408 33.33333333333 1273.66666666667 73.66666666667 1151 121 C 1051 27 941.66666666667 -20 823 -20 C 731.66666666667 -20 650 8.33333333333 578 65 C 506 121 450 202.33333333333 410 309 C 369.33333333333 415 348 539.66666666667 346 683 C 266 676.33333333333 213 670.66666666667 187 666 L 150 663 C 132.66666666667 663 116.66666666667 671.66666666667 102 689 C 87.33333333333 705.66666666667 80 726.66666666667 80 752 C 80 767.33333333333 83.66666666667 782.33333333333 91 797 C 97.66666666667 811 106.33333333333 821 117 827 C 127.66666666667 833 170.66666666667 840.66666666667 246 850 C 320.66666666667 858.66666666667 398.33333333333 865 479 869 C 559.66666666667 873 620.33333333333 875 661 875 C 749 875 832.66666666667 872.33333333333 912 867 C 990.66666666667 861.66666666667 1056.66666666667 854.33333333333 1110 845 C 1162.66666666667 835 1189 809 1189 767 Z"/>
    <path fill="#000000" stroke="none" transform="matrix(1 0 0 -1 51849 2689)" d="M 1887 378 C 1887 253.33333333333 1825 156 1701 86 C 1576.33333333333 15.33333333333 1403.33333333333 -20 1182 -20 C 958.66666666667 -20 785.33333333333 15.33333333333 662 86 C 538.66666666667 156.66666666667 477 254 477 378 C 477 502 542 600 672 672 C 801.33333333333 744 971.33333333333 780 1182 780 C 1394.66666666667 780 1565.33333333333 744.66666666667 1694 674 C 1822.66666666667 602.66666666667 1887 504 1887 378 Z M 1693 379 C 1693 448.33333333333 1648.33333333333 502.66666666667 1559 542 C 1469 580.66666666667 1344.33333333333 600 1185 600 C 1021 600 894.33333333333 580.66666666667 805 542 C 715.66666666667 502.66666666667 671 448.33333333333 671 379 C 671 309 716 255 806 217 C 896 179 1022.33333333333 160 1185 160 C 1347 160 1472.33333333333 179 1561 217 C 1649 255 1693 309 1693 379 Z M 791 1130 C 892.33333333333 1130 1003.33333333333 1125.66666666667 1124 1117 C 1244.66666666667 1108.33333333333 1336.33333333333 1097.33333333333 1399 1084 C 1424.33333333333 1078.66666666667 1442.33333333333 1068.66666666667 1453 1054 C 1463.66666666667 1038.66666666667 1469 1023.33333333333 1469 1008 C 1469 984.66666666667 1462 963 1448 943 C 1434 922.33333333333 1415.66666666667 912 1393 912 C 1379.66666666667 912 1360.66666666667 914 1336 918 C 1204.66666666667 939.33333333333 1023 950 791 950 C 573 950 390.33333333333 939.33333333333 243 918 C 215 914 194 912 180 912 C 162.66666666667 912 146.66666666667 920.66666666667 132 938 C 117.33333333333 954.66666666667 110 975.66666666667 110 1001 C 110 1020.33333333333 115 1038 125 1054 C 135 1070 148 1079.33333333333 164 1082 C 232.66666666667 1096 325 1107.66666666667 441 1117 C 557 1125.66666666667 673.66666666667 1130 791 1130 Z"/>
    <path fill="#000000" stroke="none" transform="matrix(1 0 0 -1 53876 2689)" d="M 933 160 C 1039.66666666667 160 1157.33333333333 168 1286 184 C 1414.66666666667 199.33333333333 1515.66666666667 219.66666666667 1589 245 C 1626.33333333333 258.33333333333 1655 265 1675 265 C 1699 265 1719 255.66666666667 1735 237 C 1751 217.66666666667 1759 195.66666666667 1759 171 C 1759 151.66666666667 1753 136 1741 124 C 1729 111.33333333333 1711.33333333333 98.66666666667 1688 86 C 1625.33333333333 54 1523 28.33333333333 1381 9 C 1239 -10.33333333333 1089.66666666667 -20 933 -20 C 839 -20 739 -15.66666666667 633 -7 C 527 1.66666666667 436.33333333333 14 361 30 C 285.66666666667 46 225 65 179 87 C 133 109 110 137.33333333333 110 172 C 110 197.33333333333 118.33333333333 219.33333333333 135 238 C 151 256 170.66666666667 265 194 265 C 210.66666666667 265 244 256.66666666667 294 240 C 354 219.33333333333 445.66666666667 201 569 185 C 692.33333333333 168.33333333333 813.66666666667 160 933 160 Z M 930 609 C 1015.33333333333 609 1119.33333333333 615.33333333333 1242 628 L 1290 632 C 1314 632 1334 623.33333333333 1350 606 C 1366 588 1374 567 1374 543 C 1374 504.33333333333 1350.33333333333 476 1303 458 C 1284.33333333333 451.33333333333 1237 445 1161 439 C 1085 432.33333333333 1008 429 930 429 C 843.33333333333 429 762.33333333333 432.33333333333 687 439 C 611.66666666667 445.66666666667 564 453.66666666667 544 463 C 524 471.66666666667 509 482.66666666667 499 496 C 489 509.33333333333 484 525 484 543 C 484 567 492 588 508 606 C 524 623.33333333333 544 632 568 632 L 615 628 C 731.66666666667 615.33333333333 836.66666666667 609 930 609 Z M 1206 982 C 1206 949.33333333333 1187.66666666667 924.33333333333 1151 907 C 1113.66666666667 889 1040.66666666667 880 932 880 C 822 880 748.66666666667 889 712 907 C 674.66666666667 924.33333333333 656 949.33333333333 656 982 C 656 1006 664 1027 680 1045 C 696 1062.33333333333 716 1071 740 1071 C 760 1071 785.66666666667 1069.33333333333 817 1066 C 847.66666666667 1062 886 1060 932 1060 C 970.66666666667 1060 1007 1062 1041 1066 C 1075 1069.33333333333 1102 1071 1122 1071 C 1146 1071 1166 1062.33333333333 1182 1045 C 1198 1027 1206 1006 1206 982 Z"/>
    <path fill="#000000" stroke="none" transform="matrix(1 0 0 -1 55745 2689)" d="M 1079 875 C 1281.66666666667 875 1468.33333333333 862 1639 836 C 1809.66666666667 809.33333333333 1937 772.33333333333 2021 725 C 2041.66666666667 713.66666666667 2052 690.66666666667 2052 656 C 2052 629.33333333333 2044.33333333333 606.66666666667 2029 588 C 2013 569.33333333333 1993.66666666667 560 1971 560 C 1961.66666666667 560 1943 566 1915 578 L 1899 584 C 1689.66666666667 658 1416.33333333333 695 1079 695 C 973.66666666667 695 871.33333333333 689 772 677 C 891.33333333333 549 1000 421 1098 293 C 1195.33333333333 165 1244 83.66666666667 1244 49 C 1244 25 1234.33333333333 6 1215 -8 C 1195.66666666667 -22.66666666667 1174 -30 1150 -30 C 1112.66666666667 -30 1083.33333333333 -14.66666666667 1062 16 C 1004.66666666667 99.33333333333 956 167.33333333333 916 220 C 876 272 835 321.66666666667 793 369 C 750.33333333333 416.33333333333 668 504.66666666667 546 634 C 456.66666666667 612.66666666667 353 580 235 536 C 214.33333333333 528 199 524 189 524 C 165.66666666667 524 146.66666666667 533.33333333333 132 552 C 117.33333333333 570 110 591.33333333333 110 616 C 110 650 122.66666666667 673 148 685 C 271.33333333333 744.33333333333 419 791 591 825 C 763 858.33333333333 925.66666666667 875 1079 875 Z"/>
    <path fill="#000000" stroke="none" transform="matrix(1 0 0 -1 57907 2689)" d="M 1683 875 C 1809 875 1911.66666666667 835.33333333333 1991 756 C 2070.33333333333 676 2127.33333333333 550.33333333333 2162 379 L 2163 367 C 2163 343.66666666667 2154.66666666667 324 2138 308 C 2121.33333333333 291.33333333333 2099.33333333333 283 2072 283 C 2042 283 2019.33333333333 287.66666666667 2004 297 C 1988 306.33333333333 1976.33333333333 325.33333333333 1969 354 C 1939.66666666667 479.33333333333 1902 567.66666666667 1856 619 C 1809.33333333333 669.66666666667 1751.66666666667 695 1683 695 C 1619.66666666667 695 1526.66666666667 636.33333333333 1404 519 L 1329 450 L 1098 245 C 946 108.33333333333 793 40 639 40 C 579 40 526.33333333333 48.66666666667 481 66 C 435 83.33333333333 393 107.66666666667 355 139 C 316.33333333333 170.33333333333 279 208 243 252 C 207 295.33333333333 168.33333333333 343.66666666667 127 397 C 115.66666666667 412.33333333333 110 430 110 450 C 110 474.66666666667 121.66666666667 496.66666666667 145 516 C 167.66666666667 535.33333333333 192 545 218 545 C 237.33333333333 545 256 534 274 512 C 341.33333333333 424.66666666667 393 363.33333333333 429 328 C 465 292 499.33333333333 265 532 247 C 564 229 597.66666666667 220 633 220 C 737.66666666667 220 860 283.66666666667 1000 411 L 1247 634 C 1330.33333333333 710 1392.66666666667 762 1434 790 C 1474.66666666667 818 1515 839.33333333333 1555 854 C 1594.33333333333 868 1637 875 1683 875 Z M 2233 78 C 2233 54 2225 33.33333333333 2209 16 C 2193 -2 2173 -11 2149 -11 L 2043 -5 C 1993 -1.66666666667 1948.33333333333 0 1909 0 C 1863.66666666667 0 1816.66666666667 -1.66666666667 1768 -5 L 1667 -11 C 1643 -11 1623 -2 1607 16 C 1591 33.33333333333 1583 54 1583 78 C 1583 110.66666666667 1601.66666666667 136 1639 154 C 1675.66666666667 171.33333333333 1765.66666666667 180 1909 180 C 1965 180 2018 178 2068 174 C 2118 169.33333333333 2149.33333333333 164.66666666667 2162 160 C 2209.33333333333 141.33333333333 2233 114 2233 78 Z"/>
    <path fill="#000000" stroke="none" transform="matrix(1 0 0 -1 60250 2689)" d="M 2023 78 C 2023 54 2015 33.33333333333 1999 16 C 1983 -2 1963 -11 1939 -11 C 1919 -11 1892 -9 1858 -5 C 1824 -1.66666666667 1787.66666666667 0 1749 0 C 1703 0 1664.66666666667 -1.66666666667 1634 -5 C 1602.66666666667 -9 1577 -11 1557 -11 C 1533 -11 1513 -2 1497 16 C 1481 33.33333333333 1473 54 1473 78 C 1473 110.66666666667 1491.66666666667 136 1529 154 C 1565.66666666667 171.33333333333 1639 180 1749 180 C 1857.66666666667 180 1930.66666666667 171.33333333333 1968 154 C 2004.66666666667 136 2023 110.66666666667 2023 78 Z M 1079 875 C 1281.66666666667 875 1468.33333333333 862 1639 836 C 1809.66666666667 809.33333333333 1937 772.33333333333 2021 725 C 2041.66666666667 713.66666666667 2052 690.66666666667 2052 656 C 2052 629.33333333333 2044.33333333333 606.66666666667 2029 588 C 2013 569.33333333333 1993.66666666667 560 1971 560 C 1961.66666666667 560 1943 566 1915 578 L 1899 584 C 1689.66666666667 658 1416.33333333333 695 1079 695 C 918.33333333333 695 772.66666666667 682 642 656 C 511.33333333333 629.33333333333 375.66666666667 589.33333333333 235 536 C 214.33333333333 528 199 524 189 524 C 165.66666666667 524 146.66666666667 533.33333333333 132 552 C 117.33333333333 570 110 591.33333333333 110 616 C 110 650 122.66666666667 673 148 685 C 271.33333333333 744.33333333333 419 791 591 825 C 763 858.33333333333 925.66666666667 875 1079 875 Z"/>
</svg>
