<svg width="36886" height="3789" viewBox="0 0 36886 3789" xmlns="http://www.w3.org/2000/svg">
    <defs/>
    <path fill="#000000" stroke="none" transform="matrix(1 0 0 -1 0 2689)" d="M 680 1462 L 864 1462 L 864 0 L 47 0 L 47 162 L 680 162 L 680 680 L 86 680 L 86 841 L 680 841 L 680 1462 Z"/>
    <path fill="#000000" stroke="none" transform="matrix(1 0 0 -1 1063 2689)" d="M 383 760 L 602 760 C 720.66666666667 760 807.33333333333 783.33333333333 862 830 C 916.66666666667 876.66666666667 944 946 944 1038 C 944 1130 916.33333333333 1197.33333333333 861 1240 C 805.66666666667 1282 716 1303 592 1303 L 383 1303 L 383 760 Z M 383 604 L 383 0 L 199 0 L 199 1462 L 602 1462 C 783.33333333333 1462 917.66666666667 1427.66666666667 1005 1359 C 1091.66666666667 1289.66666666667 1135 1185.66666666667 1135 1047 C 1135 853 1037.33333333333 722.33333333333 842 655 L 1243 0 L 1028 0 L 674 604 L 383 604 Z"/>
    <path fill="#000000" stroke="none" transform="matrix(1 0 0 -1 2337 2689)" d="M 1370 745 C 1370 503.66666666667 1304.33333333333 319.33333333333 1173 192 C 1041 64 852 0 606 0 L 199 0 L 199 1462 L 649 1462 C 876.33333333333 1462 1053.33333333333 1399.66666666667 1180 1275 C 1306.66666666667 1149.66666666667 1370 973 1370 745 Z M 1176 739 C 1176 925 1130.33333333333 1066 1039 1162 C 947 1257.33333333333 808.33333333333 1305 623 1305 L 383 1305 L 383 158 L 582 158 C 978 158 1176 351.66666666667 1176 739 Z"/>
    <path fill="#000000" stroke="none" transform="matrix(1 0 0 -1 3832 2689)" d="M 567 1482 C 629.66666666667 1482 680.33333333333 1473 719 1455 L 719 1300 C 671.66666666667 1313.33333333333 622.33333333333 1320 571 1320 C 504.33333333333 1320 454.33333333333 1300 421 1260 C 387.66666666667 1219.33333333333 371 1161 371 1085 L 371 0 L 186 0 L 186 1070 C 186 1202 219 1303.66666666667 285 1375 C 350.33333333333 1446.33333333333 444.33333333333 1482 567 1482 Z"/>
    <path fill="#000000" stroke="none" transform="matrix(1 0 0 -1 4591 2689)" d="M 1135 1032 C 1135 882.66666666667 1084 768.33333333333 982 689 C 880 609 736.33333333333 569 551 569 L 383 569 L 383 0 L 199 0 L 199 1462 L 586 1462 C 952 1462 1135 1318.66666666667 1135 1032 Z M 383 727 L 530 727 C 675.33333333333 727 780.66666666667 750.66666666667 846 798 C 911.33333333333 844.66666666667 944 920 944 1024 C 944 1118 913.66666666667 1188.33333333333 853 1235 C 792.33333333333 1281.66666666667 697.66666666667 1305 569 1305 L 383 1305 L 383 727 Z"/>
    <path fill="#000000" stroke="none" transform="matrix(1 0 0 -1 5830 2689)" d="M 874 1462 L 874 0 L 690 0 L 690 1298 L 51 1298 L 51 1462 L 874 1462 Z"/>
    <path fill="#000000" stroke="none" transform="matrix(1 0 0 -1 7435 2689)" d="M 1128 -20 L 1128 926 C 1128 1048 1095.66666666667 1141.33333333333 1031 1206 C 965.66666666667 1270.66666666667 872.66666666667 1303 752 1303 C 626 1303 530.66666666667 1271 466 1207 C 401.33333333333 1143 369 1050 369 928 L 369 -20 L 184 -20 L 184 922 C 184 1090 233 1222 331 1318 C 428.33333333333 1414 565 1462 741 1462 C 919.66666666667 1462 1059.33333333333 1414.33333333333 1160 1319 C 1260.66666666667 1223.66666666667 1311 1092.66666666667 1311 926 L 1311 -20 L 1128 -20 Z"/>
    <path fill="#000000" stroke="none" transform="matrix(1 0 0 -1 8932 2689)" d="M 469 142 C 626.33333333333 142 750 194.66666666667 840 300 C 930 405.33333333333 975 549.33333333333 975 732 C 975 920.66666666667 931.33333333333 1066.33333333333 844 1169 C 756.66666666667 1271 632.33333333333 1322 471 1322 C 367 1322 250 1302.66666666667 120 1264 L 120 1424 C 182 1446.66666666667 241.66666666667 1462.33333333333 299 1471 C 356.33333333333 1479 422.33333333333 1483 497 1483 C 712.33333333333 1483 878.33333333333 1417.66666666667 995 1287 C 1111 1155.66666666667 1169 970 1169 730 C 1169 578.66666666667 1141 446.33333333333 1085 333 C 1029 219.66666666667 947.66666666667 132.66666666667 841 72 C 734.33333333333 10.66666666667 609.66666666667 -20 467 -20 C 312.33333333333 -20 177.66666666667 8.66666666667 63 66 L 137 222 C 253.66666666667 168.66666666667 364.33333333333 142 469 142 Z"/>
    <path fill="#000000" stroke="none" transform="matrix(1 0 0 -1 10226 2689)" d="M 0 1462 L 193 1462 L 522 524 C 564 405.33333333333 594.66666666667 299 614 205 C 630.66666666667 289 661.66666666667 396.66666666667 707 528 L 1034 1462 L 1229 1462 L 707 0 L 522 0 L 0 1462 Z"/>
    <path fill="#000000" stroke="none" transform="matrix(1 0 0 -1 11455 2689)" d="M 891 702 L 672 702 C 552.66666666667 702 466 678.66666666667 412 632 C 357.33333333333 585.33333333333 330 516 330 424 C 330 332 357.66666666667 265 413 223 C 468.33333333333 180.33333333333 558 159 682 159 L 891 159 L 891 702 Z M 891 858 L 891 1462 L 1075 1462 L 1075 0 L 672 0 C 490.66666666667 0 356.66666666667 34.33333333333 270 103 C 182.66666666667 171.66666666667 139 275.66666666667 139 415 C 139 605 236.66666666667 735.66666666667 432 807 L 31 1462 L 246 1462 L 600 858 L 891 858 Z"/>
    <path fill="#000000" stroke="none" transform="matrix(1 0 0 -1 12729 2689)" d="M 150 111 C 150 155 161 189 183 213 C 204.33333333333 236.33333333333 235 248 275 248 C 315.66666666667 248 347.33333333333 236.33333333333 370 213 C 392.66666666667 189 404 155 404 111 C 404 67.66666666667 392.66666666667 33.66666666667 370 9 C 347.33333333333 -16.33333333333 315.66666666667 -29 275 -29 C 235.66666666667 -29 205 -16.66666666667 183 8 C 161 32.66666666667 150 67 150 111 Z M 540 111 C 540 155 551 189 573 213 C 594.33333333333 236.33333333333 625 248 665 248 C 705.66666666667 248 737.33333333333 236.33333333333 760 213 C 782.66666666667 189 794 155 794 111 C 794 67.66666666667 782.66666666667 33.66666666667 760 9 C 737.33333333333 -16.33333333333 705.66666666667 -29 665 -29 C 625.66666666667 -29 595 -16.66666666667 573 8 C 551 32.66666666667 540 67 540 111 Z"/>
    <path fill="#000000" stroke="none" transform="matrix(1 0 0 -1 13673 2689)" d="M 1016 0 L 199 0 L 199 1462 L 1016 1462 L 1016 1300 L 383 1300 L 383 844 L 979 844 L 979 684 L 383 684 L 383 162 L 1016 162 L 1016 0 Z"/>
    <path fill="#000000" stroke="none" transform="matrix(1 0 0 -1 15344 2689)" d="M 200 0 L 200 1463 L 384 1463 L 384 0 L 200 0 Z"/>
    <path fill="#000000" stroke="none" transform="matrix(1 0 0 -1 15928 2689)" d="M 150 111 C 150 155 161 189 183 213 C 204.33333333333 236.33333333333 235 248 275 248 C 317 248 350 236 374 212 C 398 188 410 154.33333333333 410 111 C 410 -0.33333333333 385 -95.33333333333 335 -174 C 285 -252.66666666667 216.66666666667 -299.66666666667 130 -315 L 130 -220 C 216 -188.66666666667 269.33333333333 -124.66666666667 290 -28 L 275 -29 C 235.66666666667 -29 205 -16.66666666667 183 8 C 161 32.66666666667 150 67 150 111 Z"/>
    <path fill="#000000" stroke="none" transform="matrix(1 0 0 -1 16482 2689)" d="M 1028 391 C 1028 263.66666666667 982 163.33333333333 890 90 C 798 16.66666666667 670 -20 506 -20 C 332.66666666667 -20 198.66666666667 3 104 49 L 104 225 C 166 198.33333333333 234 177.33333333333 308 162 C 381.33333333333 146.66666666667 450 139 514 139 C 623.33333333333 139 705.66666666667 160 761 202 C 816.33333333333 244 844 301.66666666667 844 375 C 844 423.66666666667 834 463.66666666667 814 495 C 794 526.33333333333 760.66666666667 555.66666666667 714 583 C 666.66666666667 610.33333333333 595.33333333333 641.33333333333 500 676 C 364.66666666667 725.33333333333 268 783.66666666667 210 851 C 152 917.66666666667 123 1004 123 1110 C 123 1224 166 1314.66666666667 252 1382 C 337.33333333333 1449.33333333333 450 1483 590 1483 C 736 1483 870.33333333333 1455.66666666667 993 1401 L 936 1243 C 810.66666666667 1295 694 1321 586 1321 C 499.33333333333 1321 431.66666666667 1302.33333333333 383 1265 C 333.66666666667 1227.66666666667 309 1175.33333333333 309 1108 C 309 1060 318.66666666667 1020.33333333333 338 989 C 356.66666666667 957 387.33333333333 928 430 902 C 472 876 538.33333333333 846.33333333333 629 813 C 737.66666666667 773 818.66666666667 734.33333333333 872 697 C 925.33333333333 659 964.66666666667 615.66666666667 990 567 C 1015.33333333333 517.66666666667 1028 459 1028 391 Z"/>
    <path fill="#000000" stroke="none" transform="matrix(1 0 0 -1 17606 2689)" d="M 1475 733 C 1475 499 1416 315 1298 181 C 1179.33333333333 47 1013.66666666667 -20 801 -20 C 585.66666666667 -20 419.33333333333 46 302 178 C 184 309.33333333333 125 495 125 735 C 125 973 183.66666666667 1157.66666666667 301 1289 C 417.66666666667 1419.66666666667 585 1485 803 1485 C 1015 1485 1180 1418.66666666667 1298 1286 C 1416 1152.66666666667 1475 968.33333333333 1475 733 Z M 319 733 C 319 539.66666666667 360 392.33333333333 442 291 C 524 189.66666666667 643.66666666667 139 801 139 C 957.66666666667 139 1076.66666666667 189 1158 289 C 1239.33333333333 389 1280 537 1280 733 C 1280 928.33333333333 1239.66666666667 1075.66666666667 1159 1175 C 1078.33333333333 1273.66666666667 959.66666666667 1323 803 1323 C 644.33333333333 1323 524 1273 442 1173 C 360 1072.33333333333 319 925.66666666667 319 733 Z"/>
    <path fill="#000000" stroke="none" transform="matrix(1 0 0 -1 19205 2689)" d="M 150 111 C 150 155 161 189 183 213 C 204.33333333333 236.33333333333 235 248 275 248 C 315.66666666667 248 347.33333333333 236.33333333333 370 213 C 392.66666666667 189 404 155 404 111 C 404 67.66666666667 392.66666666667 33.66666666667 370 9 C 347.33333333333 -16.33333333333 315.66666666667 -29 275 -29 C 235.66666666667 -29 205 -16.66666666667 183 8 C 161 32.66666666667 150 67 150 111 Z M 150 987 C 150 1031 160.66666666667 1065.33333333333 182 1090 C 202.66666666667 1114 233.66666666667 1126 275 1126 C 317 1126 349 1114 371 1090 C 393 1066 404 1031.66666666667 404 987 C 404 944.33333333333 392.66666666667 910.66666666667 370 886 C 347.33333333333 860.66666666667 315.66666666667 848 275 848 C 235.66666666667 848 205 860.33333333333 183 885 C 161 909.66666666667 150 943.66666666667 150 987 Z"/>
    <path fill="#000000" stroke="none" transform="matrix(1 0 0 -1 19759 2689)" d="M 1192 0 L 983 0 L 596 635 L 203 0 L 8 0 L 494 762 L 39 1462 L 244 1462 L 602 889 L 963 1462 L 1157 1462 L 705 766 L 1192 0 Z"/>
    <path fill="#000000" stroke="none" transform="matrix(1 0 0 -1 21491 2689)" d="M 123 162 L 756 162 L 756 684 L 160 684 L 160 844 L 756 844 L 756 1300 L 123 1300 L 123 1462 L 940 1462 L 940 0 L 123 0 L 123 162 Z"/>
    <path fill="#000000" stroke="none" transform="matrix(1 0 0 -1 22630 2689)" d="M 199 1462 L 616 1462 C 812 1462 953.66666666667 1433 1041 1375 C 1127.66666666667 1316.33333333333 1171 1224.66666666667 1171 1100 C 1171 1013.33333333333 1147.33333333333 942 1100 886 C 1052.66666666667 829.33333333333 983.66666666667 792.66666666667 893 776 L 893 766 C 1005.66666666667 746.66666666667 1088.66666666667 707.66666666667 1142 649 C 1194.66666666667 590.33333333333 1221 512.66666666667 1221 416 C 1221 285.33333333333 1176.33333333333 183.33333333333 1087 110 C 997.66666666667 36.66666666667 873 0 713 0 L 199 0 L 199 1462 Z M 383 840 L 653 840 C 767.66666666667 840 851 858.33333333333 903 895 C 955 931.66666666667 981 993 981 1079 C 981 1159 952.66666666667 1216.66666666667 896 1252 C 838.66666666667 1287.33333333333 748.33333333333 1305 625 1305 L 383 1305 L 383 840 Z M 383 686 L 383 156 L 678 156 C 795.33333333333 156 882.33333333333 178.66666666667 939 224 C 995.66666666667 269.33333333333 1024 338 1024 430 C 1024 517.33333333333 994 582 934 624 C 874 665.33333333333 784 686 664 686 L 383 686 Z"/>
    <path fill="#000000" stroke="none" transform="matrix(1 0 0 -1 23961 2689)" d="M 383 0 L 199 0 L 199 1462 L 1016 1462 L 1016 1300 L 383 1300 L 383 782 L 977 782 L 977 621 L 383 621 L 383 0 Z"/>
    <path fill="#000000" stroke="none" transform="matrix(1 0 0 -1 25024 2689)" d="M 825 1321 C 667.66666666667 1321 544 1268.33333333333 454 1163 C 364 1057.66666666667 319 913.66666666667 319 731 C 319 542.33333333333 362.66666666667 397 450 295 C 537.33333333333 192.33333333333 661.66666666667 141 823 141 C 927 141 1044 160.33333333333 1174 199 L 1174 39 C 1112 16.33333333333 1052.33333333333 1 995 -7 C 937.66666666667 -15.66666666667 871.66666666667 -20 797 -20 C 581.66666666667 -20 416 45.66666666667 300 177 C 183.33333333333 307.66666666667 125 493 125 733 C 125 883.66666666667 153 1015.66666666667 209 1129 C 264.33333333333 1242.33333333333 345.33333333333 1329.66666666667 452 1391 C 558 1452.33333333333 683 1483 827 1483 C 981.66666666667 1483 1116.33333333333 1454.33333333333 1231 1397 L 1157 1241 C 1040.33333333333 1294.33333333333 929.66666666667 1321 825 1321 Z"/>
    <path fill="#000000" stroke="none" transform="matrix(1 0 0 -1 26318 2689)" d="M 104 430 C 104 579.33333333333 155 694 257 774 C 359 853.33333333333 502.66666666667 893 688 893 L 856 893 L 856 1462 L 1040 1462 L 1040 0 L 653 0 C 287 0 104 143.33333333333 104 430 Z M 856 735 L 709 735 C 563.66666666667 735 458.33333333333 711.66666666667 393 665 C 327.66666666667 617.66666666667 295 542 295 438 C 295 344 325.33333333333 273.66666666667 386 227 C 446 180.33333333333 540.66666666667 157 670 157 L 856 157 L 856 735 Z"/>
    <path fill="#000000" stroke="none" transform="matrix(1 0 0 -1 27557 2689)" d="M 1317 0 L 1133 0 L 1133 682 L 383 682 L 383 0 L 199 0 L 199 1462 L 383 1462 L 383 844 L 1133 844 L 1133 1462 L 1317 1462 L 1317 0 Z"/>
    <path fill="#000000" stroke="none" transform="matrix(1 0 0 -1 29607 2689)" d="M 199 0 L 199 1462 L 383 1462 L 383 164 L 1022 164 L 1022 0 L 199 0 Z"/>
    <path fill="#000000" stroke="none" transform="matrix(1 0 0 -1 30680 2689)" d="M 150 987 C 150 1031 160.66666666667 1065.33333333333 182 1090 C 202.66666666667 1114 233.66666666667 1126 275 1126 C 361 1126 404 1079.66666666667 404 987 C 404 943 392.66666666667 909 370 885 C 347.33333333333 860.33333333333 315.66666666667 848 275 848 C 235.66666666667 848 205 860.33333333333 183 885 C 161 909.66666666667 150 943.66666666667 150 987 Z M 150 111 C 150 155 161 189 183 213 C 204.33333333333 236.33333333333 235 248 275 248 C 317 248 350 236 374 212 C 398 188 410 154.33333333333 410 111 C 410 -0.33333333333 385 -95.33333333333 335 -174 C 285 -252.66666666667 216.66666666667 -299.66666666667 130 -315 L 130 -220 C 216 -188.66666666667 269.33333333333 -124.66666666667 290 -28 L 275 -29 C 235.66666666667 -29 205 -16.66666666667 183 8 C 161 32.66666666667 150 67 150 111 Z"/>
    <path fill="#000000" stroke="none" transform="matrix(1 0 0 -1 31234 2689)" d="M 1268 0 L 1051 0 L 532 698 L 383 567 L 383 0 L 199 0 L 199 1462 L 383 1462 L 383 741 L 509 880 L 1030 1462 L 1245 1462 L 666 825 L 1268 0 Z"/>
    <path fill="#000000" stroke="none" transform="matrix(1 0 0 -1 32502 2689)" d="M 1358 0 L 1143 0 L 360 1214 L 352 1214 L 357 1133 C 365 1011.66666666667 369 906.33333333333 369 817 L 369 0 L 199 0 L 199 1462 L 412 1462 L 457 1391 L 937 649 L 1192 252 L 1200 252 C 1198.66666666667 268 1196 325.33333333333 1192 424 C 1188 522 1186 593 1186 637 L 1186 1462 L 1358 1462 L 1358 0 Z"/>
    <path fill="#000000" stroke="none" transform="matrix(1 0 0 -1 34058 2689)" d="M 1132 0 L 618 0 C 458.66666666667 0 334.33333333333 36.66666666667 245 110 C 155 183.33333333333 110 285.33333333333 110 416 C 110 512 136.66666666667 589.66666666667 190 649 C 242.66666666667 707.66666666667 325.33333333333 746.66666666667 438 766 L 438 776 C 347.33333333333 792.66666666667 278.33333333333 829.33333333333 231 886 C 183.66666666667 942 160 1013.33333333333 160 1100 C 160 1224.66666666667 203.33333333333 1316.33333333333 290 1375 C 376.66666666667 1433 518.33333333333 1462 715 1462 L 1132 1462 L 1132 0 Z M 948 1305 L 706 1305 C 582.66666666667 1305 492.66666666667 1287.33333333333 436 1252 C 378.66666666667 1216.66666666667 350 1159 350 1079 C 350 993 376 931.66666666667 428 895 C 479.33333333333 858.33333333333 562.66666666667 840 678 840 L 948 840 L 948 1305 Z M 667 686 C 546.33333333333 686 456.33333333333 665 397 623 C 337 581 307 516.66666666667 307 430 C 307 337.33333333333 335.66666666667 268.66666666667 393 224 C 450.33333333333 178.66666666667 537 156 653 156 L 948 156 L 948 686 L 667 686 Z"/>
    <path fill="#000000" stroke="none" transform="matrix(1 0 0 -1 35389 2689)" d="M 1311 1462 L 1311 516 C 1311 349.33333333333 1260.66666666667 218.33333333333 1160 123 C 1059.33333333333 27.66666666667 919.66666666667 -20 741 -20 C 564.33333333333 -20 427.33333333333 28.33333333333 330 125 C 232.66666666667 221 184 352.66666666667 184 520 L 184 1462 L 369 1462 L 369 514 C 369 394.66666666667 401 302.33333333333 465 237 C 528.33333333333 171.66666666667 624 139 752 139 C 872.66666666667 139 965.66666666667 171.33333333333 1031 236 C 1095.66666666667 300.66666666667 1128 394 1128 516 L 1128 1462 L 1311 1462 Z"/>
</svg>
