<svg width="48870" height="3789" viewBox="0 0 48870 3789" xmlns="http://www.w3.org/2000/svg">
    <defs/>
    <path fill="#000000" stroke="none" transform="matrix(1 0 0 -1 0 2689)" d="M 1259 -20 C 1229 44.66666666667 1214 131.66666666667 1214 241 C 1214 300.33333333333 1216.33333333333 367 1221 441 C 1225 515 1227 596.33333333333 1227 685 C 1227 785 1216.66666666667 858.66666666667 1196 906 C 1174.66666666667 952.66666666667 1142 976 1098 976 C 1051.33333333333 976 1008.66666666667 943 970 877 C 930.66666666667 810.33333333333 885.33333333333 688.33333333333 834 511 L 796 382 C 714.66666666667 114 589.66666666667 -20 421 -20 C 333.66666666667 -20 266.66666666667 17 220 91 C 172.66666666667 165 149 267.66666666667 149 399 C 149 445.66666666667 151.33333333333 516.66666666667 156 612 C 160 707.33333333333 162 778 162 824 C 162 920.66666666667 148 998.66666666667 120 1058 L 297 1116 C 327 1051.33333333333 342 964.33333333333 342 855 C 342 795.66666666667 340 729 336 655 C 331.33333333333 581 329 499.66666666667 329 411 C 329 307 340 232.66666666667 362 188 C 383.33333333333 142.66666666667 415.33333333333 120 458 120 C 504 120 547.33333333333 154.66666666667 588 224 C 628 292.66666666667 669.66666666667 412 713 582 C 762.33333333333 774 820.33333333333 911 887 993 C 953.66666666667 1075 1036.33333333333 1116 1135 1116 C 1222.33333333333 1116 1289.66666666667 1079 1337 1005 C 1383.66666666667 931 1407 828.33333333333 1407 697 C 1407 650.33333333333 1405 579.33333333333 1401 484 C 1396.33333333333 388.66666666667 1394 318 1394 272 C 1394 175.33333333333 1408 97.33333333333 1436 38 L 1259 -20 Z"/>
    <path fill="#000000" stroke="none" transform="matrix(1 0 0 -1 1556 2689)" d="M 241 497 C 227 461.66666666667 220 425.33333333333 220 388 C 220 306.66666666667 248.33333333333 241.66666666667 305 193 C 361.66666666667 144.33333333333 437 120 531 120 C 620.33333333333 120 697.66666666667 143.66666666667 763 191 C 828.33333333333 237.66666666667 878.33333333333 303 913 387 C 947.66666666667 471 965 564.66666666667 965 668 L 965 683 L 964 696 C 800.66666666667 634.66666666667 671.66666666667 604 577 604 C 491.66666666667 604 423.66666666667 623.33333333333 373 662 C 321.66666666667 700 296 749.66666666667 296 811 C 296 862.33333333333 315 912.33333333333 353 961 C 390.33333333333 1009 441.66666666667 1047.33333333333 507 1076 C 571.66666666667 1104 642.33333333333 1118 719 1118 C 817.66666666667 1118 900.66666666667 1097.33333333333 968 1056 C 1034.66666666667 1014 1083.33333333333 951 1114 867 C 1146.66666666667 881.66666666667 1180.66666666667 898.66666666667 1216 918 L 1245 832 C 1216.33333333333 814 1180.33333333333 794.33333333333 1137 773 C 1142.33333333333 738.33333333333 1145 704.66666666667 1145 672 C 1145 546.66666666667 1118 430.66666666667 1064 324 C 1010 216.66666666667 934.66666666667 132.66666666667 838 72 C 741.33333333333 10.66666666667 634 -20 516 -20 C 434.66666666667 -20 362.33333333333 -2.66666666667 299 32 C 235 66.66666666667 186 114.66666666667 152 176 C 117.33333333333 237.33333333333 100 306 100 382 C 100 442.66666666667 112 500 136 554 L 241 497 Z M 612 714 C 696.66666666667 714 809 741 949 795 C 914.33333333333 917 832.66666666667 978 704 978 C 656.66666666667 978 613.66666666667 970.66666666667 575 956 C 536.33333333333 941.33333333333 505.33333333333 921 482 895 C 458 868.33333333333 446 841.33333333333 446 814 C 446 786.66666666667 459.33333333333 763.33333333333 486 744 C 512.66666666667 724 554.66666666667 714 612 714 Z"/>
    <path fill="#000000" stroke="none" transform="matrix(1 0 0 -1 2821 2689)" d="M 1833 582 C 1853.66666666667 586 1874.33333333333 588 1895 588 C 1959.66666666667 588 2012.66666666667 566 2054 522 C 2094.66666666667 477.33333333333 2115 418.33333333333 2115 345 C 2115 246.33333333333 2077.33333333333 140.33333333333 2002 27 C 1926.66666666667 -87 1814 -203 1664 -321 C 1513.33333333333 -439.66666666667 1363.66666666667 -532.66666666667 1215 -600 L 1168 -523 C 1399.33333333333 -406.33333333333 1585 -271 1725 -117 C 1865 36.33333333333 1935 179.33333333333 1935 312 C 1935 360.66666666667 1925 395.66666666667 1905 417 C 1884.33333333333 437.66666666667 1858.33333333333 448 1827 448 C 1799.66666666667 448 1775.33333333333 445 1754 439 C 1732 433 1711 424 1691 412 C 1670.33333333333 400 1639 375.66666666667 1597 339 L 1524 438 C 1578 479.33333333333 1624.66666666667 535.33333333333 1664 606 C 1702.66666666667 676 1722 741.33333333333 1722 802 C 1722 858 1710.33333333333 901.33333333333 1687 932 C 1663 962.66666666667 1630.66666666667 978 1590 978 C 1549.33333333333 978 1514.33333333333 967 1485 945 C 1455.66666666667 922.33333333333 1429.33333333333 887 1406 839 C 1382 791 1354.66666666667 712.66666666667 1324 604 C 1260.66666666667 377.33333333333 1206.66666666667 191 1162 45 C 1155.33333333333 23.66666666667 1144.33333333333 7.66666666667 1129 -3 C 1113 -14.33333333333 1090.33333333333 -20 1061 -20 C 1030.33333333333 -20 1006 -9.66666666667 988 11 C 970 31.66666666667 945.33333333333 95.66666666667 914 203 C 882 310.33333333333 853.33333333333 426 828 550 C 802 673.33333333333 785.33333333333 769.66666666667 778 839 C 753.33333333333 809 720.66666666667 726 680 590 C 639.33333333333 453.33333333333 598.33333333333 300.66666666667 557 132 C 545 82.66666666667 530 45 512 19 C 493.33333333333 -7 469.33333333333 -20 440 -20 C 407.33333333333 -20 382.66666666667 -11 366 7 C 349.33333333333 25 331 59.33333333333 311 110 C 290.33333333333 160 268.33333333333 227 245 311 C 221 394.33333333333 198.33333333333 486.66666666667 177 588 C 155 689.33333333333 137 785.66666666667 123 877 C 109 967.66666666667 101.33333333333 1035.66666666667 100 1081 L 263 1118 C 273.66666666667 996.66666666667 302 825 348 603 C 393.33333333333 381 428.33333333333 248 453 204 C 487.66666666667 354.66666666667 528 499 574 637 C 620 774.33333333333 666.66666666667 889 714 981 C 761.33333333333 1072.33333333333 798 1118 824 1118 C 871.33333333333 1118 901 1085 913 1019 C 925.66666666667 949 952.66666666667 818.66666666667 994 628 C 1034.66666666667 437.33333333333 1067.66666666667 300.66666666667 1093 218 C 1158.33333333333 482 1207.66666666667 660.33333333333 1241 753 C 1274.33333333333 845.66666666667 1308.33333333333 917.33333333333 1343 968 C 1377.66666666667 1018 1417.33333333333 1055.66666666667 1462 1081 C 1506 1105.66666666667 1557.33333333333 1118 1616 1118 C 1705.33333333333 1118 1775.33333333333 1093 1826 1043 C 1876.66666666667 992.33333333333 1902 918 1902 820 C 1902 735.33333333333 1879 656 1833 582 Z"/>
    <path fill="#000000" stroke="none" transform="matrix(1 0 0 -1 5016 2689)" d="M 721 927 C 740.33333333333 830.33333333333 750 727.66666666667 750 619 C 750 571 748 520 744 466 C 739.33333333333 411.33333333333 737 350.66666666667 737 284 C 737 187.33333333333 751 109.33333333333 779 50 L 602 -8 C 572 56.66666666667 557 143.66666666667 557 253 C 557 332.33333333333 559.33333333333 405 564 471 C 568 537 570 596.33333333333 570 649 C 570 695.66666666667 568 735 564 767 L 456 763 C 358.66666666667 763 278.33333333333 792 215 850 C 151.66666666667 908 120 983.33333333333 120 1076 C 120 1165.33333333333 154.33333333333 1249.33333333333 223 1328 C 291 1406.66666666667 392.33333333333 1475.66666666667 527 1535 C 661 1593.66666666667 812 1635.33333333333 980 1660 L 1003 1599 C 823.66666666667 1551.66666666667 684 1504.66666666667 584 1458 C 483.33333333333 1410.66666666667 411 1358.66666666667 367 1302 C 322.33333333333 1245.33333333333 300 1176.66666666667 300 1096 C 300 1038 315.66666666667 991.33333333333 347 956 C 378.33333333333 920.66666666667 420.33333333333 903 473 903 C 501 903 539.66666666667 905.33333333333 589 910 C 638.33333333333 914 682.33333333333 919.66666666667 721 927 Z"/>
    <path fill="#000000" stroke="none" transform="matrix(1 0 0 -1 5969 2689)" d="M 1921 1322 C 1801 1194 1710.33333333333 1050 1649 890 C 1587.66666666667 730 1557 559.33333333333 1557 378 C 1557 339.33333333333 1559 304 1563 272 C 1626.33333333333 288.66666666667 1685.33333333333 297 1740 297 C 1814 297 1871 282 1911 252 C 1950.33333333333 222 1970 180 1970 126 C 1970 98.66666666667 1959 72 1937 46 C 1914.33333333333 19.33333333333 1884.33333333333 -1.66666666667 1847 -17 C 1809 -32.33333333333 1767.66666666667 -40 1723 -40 C 1600.33333333333 -40 1508.66666666667 7.66666666667 1448 103 C 1370.66666666667 63 1314.33333333333 36.66666666667 1279 24 C 1243 10.66666666667 1206.66666666667 0 1170 -8 C 1132.66666666667 -16 1091.66666666667 -20 1047 -20 C 969.66666666667 -20 911.33333333333 -1 872 37 C 832 74.33333333333 812 127.33333333333 812 196 C 812 234.66666666667 817 279 827 329 C 837 379 848 432 860 488 C 872 544 883 602.33333333333 893 663 C 903 723 908 783 908 843 C 908 879.66666666667 896.66666666667 911.33333333333 874 938 C 850.66666666667 964.66666666667 822.66666666667 978 790 978 C 726 978 669 962 619 930 C 569 897.33333333333 525.33333333333 850.33333333333 488 789 C 450.66666666667 727 417.66666666667 644.66666666667 389 542 C 359.66666666667 438.66666666667 328.66666666667 274.33333333333 296 49 L 100 -5 C 124.66666666667 215.66666666667 172.33333333333 412.66666666667 243 586 C 313 758.66666666667 398.66666666667 890.66666666667 500 982 C 600.66666666667 1072.66666666667 711.33333333333 1118 832 1118 C 910.66666666667 1118 973 1094.33333333333 1019 1047 C 1065 999.66666666667 1088 937 1088 859 C 1088 808.33333333333 1083 752.66666666667 1073 692 C 1063 630.66666666667 1052 569.66666666667 1040 509 C 1028 447.66666666667 1017 389.33333333333 1007 334 C 997 278.66666666667 992 231.33333333333 992 192 C 992 169.33333333333 998 151.66666666667 1010 139 C 1022 126.33333333333 1045.33333333333 120 1080 120 C 1103.33333333333 120 1126.66666666667 122 1150 126 C 1172.66666666667 130 1197.33333333333 136.33333333333 1224 145 C 1250.66666666667 153 1308.66666666667 175.66666666667 1398 213 C 1384 261.66666666667 1377 314.33333333333 1377 371 C 1377 543.66666666667 1421.66666666667 721.66666666667 1511 905 C 1599.66666666667 1088.33333333333 1720.33333333333 1248.33333333333 1873 1385 L 1921 1322 Z M 1728 187 C 1683.33333333333 187 1637.66666666667 179.66666666667 1591 165 C 1618.33333333333 101.66666666667 1664.33333333333 70 1729 70 C 1789.66666666667 70 1820 88 1820 124 C 1820 144.66666666667 1811.66666666667 160.33333333333 1795 171 C 1778.33333333333 181.66666666667 1756 187 1728 187 Z"/>
    <path fill="#000000" stroke="none" transform="matrix(1 0 0 -1 7989 2689)" d="M 2043 90 C 2097 90 2141.33333333333 131.33333333333 2176 214 C 2210.66666666667 296 2228 402 2228 532 C 2228 690.66666666667 2214 804.33333333333 2186 873 C 2158 941.66666666667 2116 976 2060 976 C 2024 976 1989.66666666667 947 1957 889 C 1924.33333333333 830.33333333333 1881.33333333333 707.33333333333 1828 520 L 1791 392 C 1752.33333333333 264.66666666667 1697.33333333333 164.33333333333 1626 91 C 1554.66666666667 17 1472.66666666667 -20 1380 -20 C 1300 -20 1239.33333333333 3.66666666667 1198 51 C 1156.66666666667 98.33333333333 1136 166.33333333333 1136 255 C 1136 293.66666666667 1140 335.66666666667 1148 381 C 1155.33333333333 425.66666666667 1164 473 1174 523 C 1183.33333333333 573 1192 625.66666666667 1200 681 C 1207.33333333333 736.33333333333 1211 794 1211 854 C 1211 890 1199.66666666667 919.66666666667 1177 943 C 1153.66666666667 966.33333333333 1125.66666666667 978 1093 978 C 1059 978 1020.33333333333 971.33333333333 977 958 C 933 944 895.33333333333 927 864 907 L 867 799 C 867 550.33333333333 826.66666666667 351.66666666667 746 203 C 665.33333333333 54.33333333333 557 -20 421 -20 C 333.66666666667 -20 266.66666666667 17 220 91 C 172.66666666667 165 149 267.66666666667 149 399 C 149 445.66666666667 151.33333333333 516.66666666667 156 612 C 160 707.33333333333 162 778 162 824 C 162 920.66666666667 148 998.66666666667 120 1058 L 297 1116 C 327 1051.33333333333 342 964.33333333333 342 855 C 342 795.66666666667 340 729 336 655 C 331.33333333333 581 329 499.66666666667 329 411 C 329 307 340 232.66666666667 362 188 C 383.33333333333 142.66666666667 415.33333333333 120 458 120 C 535.33333333333 120 593 165.33333333333 631 256 C 668.33333333333 346 687 505.33333333333 687 734 C 687 840.66666666667 680 941.33333333333 666 1036 L 849 1098 L 859 998 C 904.33333333333 1033.33333333333 954.33333333333 1062.33333333333 1009 1085 C 1063 1107 1110.66666666667 1118 1152 1118 C 1199.33333333333 1118 1241 1106.66666666667 1277 1084 C 1312.33333333333 1060.66666666667 1340.33333333333 1030 1361 992 C 1381 954 1391 913.33333333333 1391 870 C 1391 794.66666666667 1378.66666666667 686 1354 544 C 1328.66666666667 401.33333333333 1316 303.66666666667 1316 251 C 1316 207 1323.66666666667 174.33333333333 1339 153 C 1353.66666666667 131 1378.33333333333 120 1413 120 C 1435.66666666667 120 1457 127.33333333333 1477 142 C 1497 156.66666666667 1515.33333333333 176.33333333333 1532 201 C 1548.66666666667 225.66666666667 1564.33333333333 254 1579 286 C 1593 318 1606 351.33333333333 1618 386 C 1629.33333333333 420 1639.66666666667 454 1649 488 C 1658.33333333333 522 1667 553.33333333333 1675 582 C 1724.33333333333 774 1782.33333333333 911 1849 993 C 1915.66666666667 1075 1998.33333333333 1116 2097 1116 C 2159.66666666667 1116 2214 1094.33333333333 2260 1051 C 2306 1007.66666666667 2342.33333333333 942.33333333333 2369 855 C 2395 767 2408 663.33333333333 2408 544 C 2408 442.66666666667 2394 348.66666666667 2366 262 C 2338 174.66666666667 2298.66666666667 106 2248 56 C 2197.33333333333 5.33333333333 2140.33333333333 -20 2077 -20 C 2022.33333333333 -20 1970.66666666667 -3.66666666667 1922 29 C 1872.66666666667 61.66666666667 1835 104 1809 156 L 1875 196 C 1929.66666666667 125.33333333333 1985.66666666667 90 2043 90 Z"/>
    <path fill="#000000" stroke="none" transform="matrix(1 0 0 -1 11049 2689)" d="M 618 582 C 638.66666666667 586 659.33333333333 588 680 588 C 718 588 754.33333333333 577 789 555 C 823 532.33333333333 850 501 870 461 C 890 421 900 375 900 323 C 900 141.66666666667 827.33333333333 -24.33333333333 682 -175 C 536.66666666667 -325.66666666667 308.33333333333 -467.33333333333 -3 -600 L -50 -523 C 214.66666666667 -411.66666666667 409.33333333333 -290.66666666667 534 -160 C 658 -30 720 119.66666666667 720 289 C 720 338.33333333333 706 378.66666666667 678 410 C 649.33333333333 441.33333333333 612.33333333333 457 567 457 C 533.66666666667 457 500.33333333333 451.33333333333 467 440 C 433.66666666667 428.66666666667 405.66666666667 415 383 399 L 310 498 C 382.66666666667 540 437.66666666667 589.33333333333 475 646 C 512.33333333333 702.66666666667 531 764.66666666667 531 832 C 531 929.33333333333 480.66666666667 978 380 978 C 317.33333333333 978 269.66666666667 963.33333333333 237 934 C 204.33333333333 904 182.33333333333 858 171 796 L 70 796 C 72.66666666667 889.33333333333 104.33333333333 966.33333333333 165 1027 C 225.66666666667 1087.66666666667 301.33333333333 1118 392 1118 C 495.33333333333 1118 574.33333333333 1094.33333333333 629 1047 C 683.66666666667 999.66666666667 711 932 711 844 C 711 796.66666666667 703 750.33333333333 687 705 C 670.33333333333 659 647.33333333333 618 618 582 Z"/>
    <path fill="#000000" stroke="none" transform="matrix(1 0 0 -1 12029 2689)" d="M 793 -20 C 711.66666666667 73.33333333333 650.66666666667 176.66666666667 610 290 C 568.66666666667 402.66666666667 548 530.33333333333 548 673 C 548 777 560.33333333333 917 585 1093 C 614.33333333333 1303.66666666667 632 1449.33333333333 638 1530 C 570 1515.33333333333 513.66666666667 1508 469 1508 C 376.33333333333 1508 295.33333333333 1521 226 1547 C 156 1572.33333333333 101 1611.33333333333 61 1664 C 20.33333333333 1716.66666666667 0 1774 0 1836 C 0 1890.66666666667 17.66666666667 1943.66666666667 53 1995 C 87.66666666667 2045.66666666667 135 2086 195 2116 C 255 2145.33333333333 322.33333333333 2160 397 2160 C 530.33333333333 2160 634 2117.66666666667 708 2033 C 782 1948.33333333333 820.33333333333 1832.66666666667 823 1686 C 927.66666666667 1722 1031.66666666667 1767.33333333333 1135 1822 L 1164 1736 C 1066 1676.66666666667 951.33333333333 1625 820 1581 C 816 1487 807.33333333333 1393.33333333333 794 1300 C 780.66666666667 1206.66666666667 767 1115.33333333333 753 1026 C 738.33333333333 936.66666666667 725.66666666667 849.66666666667 715 765 C 703.66666666667 679.66666666667 698 598 698 520 C 698 426 709.66666666667 338.66666666667 733 258 C 755.66666666667 176.66666666667 795.66666666667 103.33333333333 853 38 L 793 -20 Z M 469 1618 C 521.66666666667 1618 579.33333333333 1624.33333333333 642 1637 L 643 1657 L 643 1676 C 643 1780.66666666667 619.33333333333 1864.33333333333 572 1927 C 524.66666666667 1989 461.33333333333 2020 382 2020 C 336.66666666667 2020 296.66666666667 2011.66666666667 262 1995 C 226.66666666667 1978.33333333333 199.33333333333 1956 180 1928 C 160 1899.33333333333 150 1869.66666666667 150 1839 C 150 1797 163.33333333333 1758.33333333333 190 1723 C 216 1687.66666666667 253 1661.33333333333 301 1644 C 349 1626.66666666667 405 1618 469 1618 Z"/>
    <path fill="#000000" stroke="none" transform="matrix(1 0 0 -1 13093 2689)" d="M 1037 1197 L 1056 1088 C 1032 1048 1012.66666666667 982 998 890 C 983.33333333333 797.33333333333 976 700 976 598 C 976 378 987 234 1009 166 L 1050 168 C 1126.66666666667 168 1192 156.66666666667 1246 134 C 1300 110.66666666667 1341.33333333333 78.33333333333 1370 37 C 1398.66666666667 -4.33333333333 1413 -51.33333333333 1413 -104 C 1413 -189.33333333333 1384.33333333333 -256.66666666667 1327 -306 C 1269.66666666667 -356 1191.33333333333 -381 1092 -381 C 1043.33333333333 -381 994.66666666667 -371.33333333333 946 -352 C 896.66666666667 -332.66666666667 854.33333333333 -306.66666666667 819 -274 L 864 -210 C 922.66666666667 -250.66666666667 992.33333333333 -271 1073 -271 C 1127.66666666667 -271 1173 -258 1209 -232 C 1245 -206 1263 -171.66666666667 1263 -129 C 1263 -79 1242.33333333333 -40.66666666667 1201 -14 C 1159.66666666667 12.66666666667 1105 26 1037 26 C 951.66666666667 26 856.66666666667 18.33333333333 752 3 C 647.33333333333 -12.33333333333 550.66666666667 -20 462 -20 C 376.66666666667 -20 314.66666666667 4 276 52 C 236.66666666667 100 217 176 217 280 C 217 438 209 588.33333333333 193 731 C 176.33333333333 873.66666666667 152 982.66666666667 120 1058 L 287 1116 C 360.33333333333 960.66666666667 397 689 397 301 C 397 253 400 216.33333333333 406 191 C 411.33333333333 165.66666666667 420.66666666667 147.66666666667 434 137 C 447.33333333333 125.66666666667 469.33333333333 120 500 120 C 570.66666666667 120 658.66666666667 128.33333333333 764 145 L 855 158 C 837.66666666667 199.33333333333 823.66666666667 259.66666666667 813 339 C 801.66666666667 418.33333333333 796 504.66666666667 796 598 C 796 736 813.33333333333 887.33333333333 848 1052 C 767.33333333333 1069.33333333333 703.66666666667 1110.66666666667 657 1176 C 610.33333333333 1240.66666666667 587 1318.66666666667 587 1410 C 587 1532.66666666667 622.66666666667 1645.33333333333 694 1748 C 765.33333333333 1850.66666666667 871 1939 1011 2013 C 1151 2086.33333333333 1306.33333333333 2135.33333333333 1477 2160 L 1500 2099 C 1013.33333333333 1970.33333333333 770 1744.66666666667 770 1422 C 770 1346 785.33333333333 1287 816 1245 C 846.66666666667 1202.33333333333 890.66666666667 1181 948 1181 C 958 1181 966.66666666667 1181.66666666667 974 1183 C 981.33333333333 1183.66666666667 1002.33333333333 1188.33333333333 1037 1197 Z"/>
    <path fill="#000000" stroke="none" transform="matrix(1 0 0 -1 14473 2689)" d="M 849 1098 L 859 998 C 904.33333333333 1033.33333333333 954.33333333333 1062.33333333333 1009 1085 C 1063 1107 1110.66666666667 1118 1152 1118 C 1265.33333333333 1118 1354 1066.66666666667 1418 964 C 1481.33333333333 861.33333333333 1513 718.66666666667 1513 536 C 1513 494.66666666667 1510 443 1504 381 C 1498 319 1489.33333333333 259.66666666667 1478 203 L 1537 172 C 1600.33333333333 137.33333333333 1652 120 1692 120 C 1730 120 1761.33333333333 139 1786 177 C 1810.66666666667 214.33333333333 1826.66666666667 269.66666666667 1834 343 C 1851.33333333333 521.66666666667 1879.33333333333 671 1918 791 C 1956 910.33333333333 2007 1019 2071 1117 C 2134.33333333333 1215 2211.66666666667 1304.33333333333 2303 1385 L 2351 1322 C 2279.66666666667 1256.66666666667 2221 1181 2175 1095 C 2128.33333333333 1008.33333333333 2091.66666666667 911.33333333333 2065 804 C 2038.33333333333 696.66666666667 2018 549.33333333333 2004 362 C 1994.66666666667 231.33333333333 1965 135 1915 73 C 1865 11 1794.66666666667 -20 1704 -20 C 1671.33333333333 -20 1638.33333333333 -14.33333333333 1605 -3 C 1571 7.66666666667 1533.33333333333 24.66666666667 1492 48 L 1421 87 C 1358.33333333333 2.33333333333 1268.33333333333 -40 1151 -40 C 1078.33333333333 -40 1020 -24.66666666667 976 6 C 932 36.66666666667 910 74 910 118 C 910 174.66666666667 930.66666666667 218.66666666667 972 250 C 1012.66666666667 281.33333333333 1068.66666666667 297 1140 297 C 1200.66666666667 297 1259.33333333333 288.33333333333 1316 271 C 1323.33333333333 306.33333333333 1328 341 1330 375 C 1332 408.33333333333 1333 460.33333333333 1333 531 C 1333 679 1312.66666666667 790.66666666667 1272 866 C 1231.33333333333 940.66666666667 1171.66666666667 978 1093 978 C 1059 978 1020.33333333333 971.33333333333 977 958 C 933 944 895.33333333333 927 864 907 L 867 799 C 867 550.33333333333 826.66666666667 351.66666666667 746 203 C 665.33333333333 54.33333333333 557 -20 421 -20 C 333.66666666667 -20 266.66666666667 17 220 91 C 172.66666666667 165 149 267.66666666667 149 399 C 149 445.66666666667 151.33333333333 516.66666666667 156 612 C 160 707.33333333333 162 778 162 824 C 162 920.66666666667 148 998.66666666667 120 1058 L 297 1116 C 327 1051.33333333333 342 964.33333333333 342 855 C 342 795.66666666667 340 729 336 655 C 331.33333333333 581 329 499.66666666667 329 411 C 329 307 340 232.66666666667 362 188 C 383.33333333333 142.66666666667 415.33333333333 120 458 120 C 535.33333333333 120 593 165.33333333333 631 256 C 668.33333333333 346 687 505.33333333333 687 734 C 687 840.66666666667 680 941.33333333333 666 1036 L 849 1098 Z M 1284 155 C 1230.66666666667 176.33333333333 1186.66666666667 187 1152 187 C 1124 187 1101.66666666667 181.66666666667 1085 171 C 1068.33333333333 160.33333333333 1060 144.66666666667 1060 124 C 1060 88 1090.33333333333 70 1151 70 C 1210.33333333333 70 1254.66666666667 98.33333333333 1284 155 Z"/>
    <path fill="#000000" stroke="none" transform="matrix(1 0 0 -1 16824 2689)" d="M 1105 907 L 1018 998 C 990 854 976 720.66666666667 976 598 C 976 447.33333333333 982 346 994 294 C 1032 301.33333333333 1067.66666666667 305 1101 305 C 1179.66666666667 305 1241.33333333333 289.33333333333 1286 258 C 1330.66666666667 226.66666666667 1353 185 1353 133 C 1353 89.66666666667 1334.33333333333 53.33333333333 1297 24 C 1259 -5.33333333333 1211.66666666667 -20 1155 -20 C 1056.33333333333 -20 971 34.66666666667 899 144 C 863.66666666667 128 828.33333333333 110.66666666667 793 92 C 757.66666666667 72.66666666667 722 55 686 39 C 650 22.33333333333 613.33333333333 8.33333333333 576 -3 C 538.66666666667 -14.33333333333 500.66666666667 -20 462 -20 C 376.66666666667 -20 314.66666666667 4 276 52 C 236.66666666667 100 217 176 217 280 C 217 424 210.33333333333 562.33333333333 197 695 C 183 827 163.66666666667 931 139 1007 L 25 920 L -23 985 L 501 1437 C 569.66666666667 1497.66666666667 619.33333333333 1528 650 1528 C 664.66666666667 1528 680 1523 696 1513 C 712 1503 728 1490.66666666667 744 1476 C 760 1460.66666666667 816.33333333333 1393 913 1273 C 975 1451 1062.66666666667 1615.66666666667 1176 1767 C 1288.66666666667 1917.66666666667 1422.33333333333 2048.66666666667 1577 2160 L 1625 2087 C 1491 1987.66666666667 1374.33333333333 1855.66666666667 1275 1691 C 1175.66666666667 1526.33333333333 1098.33333333333 1333.33333333333 1043 1112 L 1167 960 L 1105 907 Z M 287 1116 C 360.33333333333 960.66666666667 397 689 397 301 C 397 253 400 216.33333333333 406 191 C 411.33333333333 165.66666666667 420.33333333333 147.66666666667 433 137 C 445.66666666667 125.66666666667 466.33333333333 120 495 120 C 516.33333333333 120 543.33333333333 125.66666666667 576 137 C 608.66666666667 148.33333333333 664.33333333333 171.66666666667 743 207 L 846 250 C 830.66666666667 295.33333333333 818.66666666667 349.33333333333 810 412 C 800.66666666667 474 796 536 796 598 C 796 788 821.66666666667 972.33333333333 873 1151 L 777 1253 C 721 1313 674 1343 636 1343 C 598.66666666667 1343 543.66666666667 1315.33333333333 471 1260 L 278 1113 L 287 1116 Z M 1108 195 C 1086 195 1061.66666666667 192.66666666667 1035 188 C 1047.66666666667 154.66666666667 1062.66666666667 130 1080 114 C 1097.33333333333 98 1118.33333333333 90 1143 90 C 1157.66666666667 90 1171.33333333333 93.66666666667 1184 101 C 1196.66666666667 108.33333333333 1203 120.33333333333 1203 137 C 1203 175.66666666667 1171.33333333333 195 1108 195 Z"/>
    <path fill="#000000" stroke="none" transform="matrix(1 0 0 -1 18204 2689)" d="M 563 -20 C 593 130 634 269.66666666667 686 399 L 680 399 C 644.66666666667 399 614.66666666667 406 590 420 C 565.33333333333 434 544.33333333333 453.66666666667 527 479 C 509.66666666667 504.33333333333 495.66666666667 535.33333333333 485 572 C 474.33333333333 608 458.66666666667 682.33333333333 438 795 C 426.66666666667 855.66666666667 410.33333333333 901.33333333333 389 932 C 367 962.66666666667 339 978 305 978 C 279 978 246.33333333333 973 207 963 C 167.66666666667 952.33333333333 130.33333333333 937.33333333333 95 918 L 50 980 C 96.66666666667 1019.33333333333 149.66666666667 1052.33333333333 209 1079 C 268.33333333333 1105 320 1118 364 1118 C 414 1118 456.33333333333 1105.33333333333 491 1080 C 525 1054 551.33333333333 1017 570 969 C 588.66666666667 921 605 838.66666666667 619 722 C 627 655.33333333333 637.66666666667 608.33333333333 651 581 C 663.66666666667 553 681.33333333333 539 704 539 C 718 539 734.33333333333 540.66666666667 753 544 C 863 762 1019 953.33333333333 1221 1118 L 1259 1049 C 1170.33333333333 956.33333333333 1094.66666666667 859.66666666667 1032 759 C 969.33333333333 658.33333333333 917.66666666667 552.33333333333 877 441 C 836.33333333333 329 801.33333333333 193.66666666667 772 35 L 563 -20 Z"/>
    <path fill="#000000" stroke="none" transform="matrix(1 0 0 -1 20095 2689)" d="M 732 391 C 776 541 798 672 798 784 C 798 913.33333333333 765.33333333333 978 700 978 C 610 978 532.33333333333 906.33333333333 467 763 C 401.66666666667 619 344.66666666667 381 296 49 L 100 -5 C 123.33333333333 201 166.33333333333 391 229 565 C 291 738.33333333333 366.66666666667 874 456 972 C 545.33333333333 1069.33333333333 640.66666666667 1118 742 1118 C 851.33333333333 1118 922 1054.33333333333 954 927 C 995.33333333333 989 1040 1036.33333333333 1088 1069 C 1136 1101.66666666667 1184 1118 1232 1118 C 1319.33333333333 1118 1384.66666666667 1086.66666666667 1428 1024 C 1470.66666666667 961.33333333333 1492 864 1492 732 C 1492 648 1490 569 1486 495 C 1481.33333333333 421 1479 350.66666666667 1479 284 C 1479 187.33333333333 1493 109.33333333333 1521 50 L 1344 -8 C 1314 56.66666666667 1299 143.66666666667 1299 253 C 1299 332.33333333333 1301.33333333333 411.33333333333 1306 490 C 1310 568.66666666667 1312 648.33333333333 1312 729 C 1312 820.33333333333 1304.66666666667 884.66666666667 1290 922 C 1275.33333333333 959.33333333333 1248.33333333333 978 1209 978 C 1163.66666666667 978 1119 954.66666666667 1075 908 C 1030.33333333333 861.33333333333 996 805.66666666667 972 741 C 969.33333333333 649 948 532.33333333333 908 391 L 732 391 Z"/>
    <path fill="#000000" stroke="none" transform="matrix(1 0 0 -1 21736 2689)" d="M 515 427 C 492.33333333333 422.33333333333 466.66666666667 420 438 420 C 344 420 264.33333333333 451 199 513 C 133 574.33333333333 100 651 100 743 C 100 811.66666666667 117.66666666667 875 153 933 C 188.33333333333 991 238.33333333333 1036.33333333333 303 1069 C 367 1101.66666666667 439.66666666667 1118 521 1118 C 681.66666666667 1118 808.33333333333 1067 901 965 C 993.66666666667 862.33333333333 1040 719 1040 535 C 1040 381.66666666667 1000.33333333333 232.33333333333 921 87 C 841 -58.33333333333 727.66666666667 -190.66666666667 581 -310 C 434.33333333333 -429.33333333333 266.33333333333 -526 77 -600 L 30 -523 C 304.66666666667 -407 511.66666666667 -259 651 -79 C 790.33333333333 101 860 307.33333333333 860 540 C 860 680 831 788 773 864 C 715 940 633.33333333333 978 528 978 C 454 978 394.33333333333 957.66666666667 349 917 C 303 876.33333333333 280 819 280 745 C 280 675 294.33333333333 621.66666666667 323 585 C 351 548.33333333333 391.33333333333 530 444 530 C 461.33333333333 530 475.33333333333 531.33333333333 486 534 L 515 427 Z"/>
    <path fill="#000000" stroke="none" transform="matrix(1 0 0 -1 22876 2689)" d="M 117 495 C 198.33333333333 489.66666666667 276.66666666667 481 352 469 L 352 486 C 352 694.66666666667 391.33333333333 903.33333333333 470 1112 C 548 1320.66666666667 660.66666666667 1514.66666666667 808 1694 C 954.66666666667 1873.33333333333 1128.33333333333 2028.66666666667 1329 2160 L 1377 2087 C 1211.66666666667 1977 1064 1836.33333333333 934 1665 C 804 1493.66666666667 704.66666666667 1309 636 1111 C 566.66666666667 913 532 717 532 523 L 532 476 L 534 431 C 665.33333333333 395.66666666667 765 352.66666666667 833 302 C 900.33333333333 250.66666666667 934 194 934 132 C 934 82 912.66666666667 41 870 9 C 826.66666666667 -23.66666666667 773.33333333333 -40 710 -40 C 615.33333333333 -40 537 -5 475 65 C 413 134.33333333333 374.33333333333 233 359 361 C 281.66666666667 376.33333333333 195.33333333333 389 100 399 L 117 495 Z M 794 124 C 794 199.33333333333 710.66666666667 263.33333333333 544 316 C 567.33333333333 152 620.33333333333 70 703 70 C 732.33333333333 70 755 76.33333333333 771 89 C 786.33333333333 101 794 112.66666666667 794 124 Z"/>
    <path fill="#000000" stroke="none" transform="matrix(1 0 0 -1 23868 2689)" d="M 322 855 C 322 795.66666666667 320 729 316 655 C 311.33333333333 581 309 499.66666666667 309 411 C 309 307 320 232.66666666667 342 188 C 363.33333333333 142.66666666667 395.33333333333 120 438 120 C 484 120 527.33333333333 154.66666666667 568 224 C 608 292.66666666667 649.66666666667 412 693 582 C 742.33333333333 774 800.33333333333 911 867 993 C 933.66666666667 1075 1016.33333333333 1116 1115 1116 C 1188.33333333333 1116 1252.66666666667 1092.33333333333 1308 1045 C 1363.33333333333 997 1407 928.33333333333 1439 839 C 1470.33333333333 749.66666666667 1486 651.33333333333 1486 544 C 1486 440.66666666667 1471.66666666667 345.66666666667 1443 259 C 1414.33333333333 171.66666666667 1373.66666666667 103.33333333333 1321 54 C 1267.66666666667 4.66666666667 1207.33333333333 -20 1140 -20 C 1085.33333333333 -20 1033.66666666667 -3.66666666667 985 29 C 935.66666666667 61.66666666667 898 104 872 156 L 938 196 C 992.66666666667 125.33333333333 1048.66666666667 90 1106 90 C 1162.66666666667 90 1210.33333333333 133.33333333333 1249 220 C 1287 306.66666666667 1306 410.66666666667 1306 532 C 1306 665.33333333333 1285.33333333333 772.66666666667 1244 854 C 1202.66666666667 935.33333333333 1147.33333333333 976 1078 976 C 1031.33333333333 976 988.66666666667 943 950 877 C 910.66666666667 810.33333333333 865.33333333333 688.33333333333 814 511 L 776 382 C 694.66666666667 114 569.66666666667 -20 401 -20 C 313.66666666667 -20 246.66666666667 17 200 91 C 152.66666666667 165 129 267.66666666667 129 399 C 129 445.66666666667 131.33333333333 516.66666666667 136 612 C 140 707.33333333333 142 778 142 824 C 142 920.66666666667 128 998.66666666667 100 1058 L 277 1116 C 307 1051.33333333333 322 964.33333333333 322 855 Z"/>
    <path fill="#000000" stroke="none" transform="matrix(1 0 0 -1 25474 2689)" d="M 241 497 C 227 461.66666666667 220 425.33333333333 220 388 C 220 306.66666666667 248.33333333333 241.66666666667 305 193 C 361.66666666667 144.33333333333 437 120 531 120 C 620.33333333333 120 697.66666666667 143.66666666667 763 191 C 828.33333333333 237.66666666667 878.33333333333 303 913 387 C 947.66666666667 471 965 564.66666666667 965 668 L 965 682 L 964 696 C 800.66666666667 634.66666666667 671.66666666667 604 577 604 C 491.66666666667 604 423.66666666667 623.33333333333 373 662 C 321.66666666667 700 296 749.66666666667 296 811 C 296 862.33333333333 315 912.33333333333 353 961 C 390.33333333333 1009 441.66666666667 1047.33333333333 507 1076 C 571.66666666667 1104 642.33333333333 1118 719 1118 C 817.66666666667 1118 900.66666666667 1097.33333333333 968 1056 C 1034.66666666667 1014 1083.33333333333 951 1114 867 C 1196.66666666667 905.66666666667 1254.66666666667 929.66666666667 1288 939 C 1320.66666666667 948.33333333333 1350.66666666667 953 1378 953 C 1458.66666666667 953 1519 926 1559 872 C 1599 817.33333333333 1619 738.33333333333 1619 635 C 1619 475 1576.66666666667 313.66666666667 1492 151 C 1406.66666666667 -12.33333333333 1289 -160.33333333333 1139 -293 C 988.33333333333 -425.66666666667 820.66666666667 -528 636 -600 L 589 -523 C 764.33333333333 -449 915.66666666667 -353.66666666667 1043 -237 C 1169.66666666667 -121 1267.33333333333 13 1336 165 C 1404.66666666667 316.33333333333 1439 471.66666666667 1439 631 C 1439 772.33333333333 1400 843 1322 843 C 1288 843 1241.33333333333 827.33333333333 1182 796 L 1137 773 C 1142.33333333333 738.33333333333 1145 704.66666666667 1145 672 C 1145 546.66666666667 1118 430.66666666667 1064 324 C 1010 216.66666666667 934.66666666667 132.66666666667 838 72 C 741.33333333333 10.66666666667 634 -20 516 -20 C 434.66666666667 -20 362.33333333333 -2.66666666667 299 32 C 235 66.66666666667 186 114.66666666667 152 176 C 117.33333333333 237.33333333333 100 306 100 382 C 100 442.66666666667 112 500 136 554 L 241 497 Z M 612 714 C 696.66666666667 714 809 741 949 795 C 914.33333333333 917 832.66666666667 978 704 978 C 656.66666666667 978 613.66666666667 970.66666666667 575 956 C 536.33333333333 941.33333333333 505.33333333333 921 482 895 C 458 868.33333333333 446 841.33333333333 446 814 C 446 786.66666666667 459.33333333333 763.33333333333 486 744 C 512.66666666667 724 554.66666666667 714 612 714 Z"/>
    <path fill="#000000" stroke="none" transform="matrix(1 0 0 -1 27213 2689)" d="M 1251 1037 C 1185 953.66666666667 1132.66666666667 875 1094 801 C 1055.33333333333 726.33333333333 1027.33333333333 652.66666666667 1010 580 C 992 506.66666666667 983 415.33333333333 983 306 C 983 132 1042.33333333333 -27.33333333333 1161 -172 C 1279.66666666667 -316.66666666667 1448.33333333333 -433.66666666667 1667 -523 L 1620 -600 C 1350 -496.66666666667 1146.33333333333 -369 1009 -217 C 871.66666666667 -65 803 106.66666666667 803 298 C 803 372.66666666667 816.66666666667 454.66666666667 844 544 C 871.33333333333 633.33333333333 913.33333333333 724 970 816 C 942 860 914.66666666667 892.33333333333 888 913 C 861.33333333333 933.66666666667 830 949.66666666667 794 961 C 758 972.33333333333 715.66666666667 978 667 978 C 606.33333333333 978 546.33333333333 947.33333333333 487 886 C 427 824 377.66666666667 743.33333333333 339 644 C 299.66666666667 544 280 449.33333333333 280 360 C 280 278 292 220 316 186 C 339.33333333333 152 375.33333333333 135 424 135 C 481.33333333333 135 537.33333333333 170.33333333333 592 241 L 658 201 C 632 149 594.33333333333 106.66666666667 545 74 C 495.66666666667 41.33333333333 444 25 390 25 C 297.33333333333 25 226 54.33333333333 176 113 C 125.33333333333 171 100 252.66666666667 100 358 C 100 470.66666666667 129.66666666667 588.66666666667 189 712 C 248.33333333333 835.33333333333 323.33333333333 934 414 1008 C 504 1081.33333333333 596.33333333333 1118 691 1118 C 740.33333333333 1118 784.66666666667 1112.66666666667 824 1102 C 863.33333333333 1091.33333333333 899.66666666667 1077 933 1059 C 965.66666666667 1041 1010.33333333333 1007 1067 957 C 1104.33333333333 1003.66666666667 1144.66666666667 1048.66666666667 1188 1092 L 1251 1037 Z"/>
    <path fill="#000000" stroke="none" transform="matrix(1 0 0 -1 29092 2689)" d="M 376 68 L 196 15 C 172.66666666667 79 154.33333333333 153.66666666667 141 239 C 127 323.66666666667 120 404.33333333333 120 481 C 120 611 141.33333333333 725.66666666667 184 825 C 226.66666666667 923.66666666667 289 1000.66666666667 371 1056 C 452.33333333333 1110.66666666667 548.66666666667 1138 660 1138 C 800 1138 916.66666666667 1084 1010 976 C 1098 1040 1191.66666666667 1094 1291 1138 L 1330 1069 C 1244.66666666667 1019.66666666667 1158.33333333333 960.33333333333 1071 891 C 1131.66666666667 789.66666666667 1162 673.33333333333 1162 542 C 1162 378 1132.66666666667 224 1074 80 C 1014.66666666667 -64 928.33333333333 -192 815 -304 C 701 -416.66666666667 562.66666666667 -508.66666666667 400 -580 L 353 -503 C 569 -397 728 -260.66666666667 830 -94 C 931.33333333333 72.66666666667 982 279.66666666667 982 527 C 982 623.66666666667 968 707.66666666667 940 779 C 709.33333333333 569.66666666667 521.66666666667 332.66666666667 377 68 L 376 68 Z M 300 527 C 300 413 307.33333333333 315.66666666667 322 235 C 498 496.33333333333 686 711.33333333333 886 880 C 824.66666666667 958.66666666667 743 998 641 998 C 533.66666666667 998 450 956.33333333333 390 873 C 330 789 300 673.66666666667 300 527 Z"/>
    <path fill="#000000" stroke="none" transform="matrix(1 0 0 -1 30442 2689)" d="M 765 1228 C 865.66666666667 1174 945.66666666667 1129 1005 1093 C 1082.33333333333 1205 1167.33333333333 1302.33333333333 1260 1385 L 1308 1322 C 1230.66666666667 1241.33333333333 1162 1145 1102 1033 C 1206 966.33333333333 1284.33333333333 912 1337 870 L 1295 806 C 1238.33333333333 844.66666666667 1159.33333333333 890 1058 942 C 982 767.33333333333 944 579.33333333333 944 378 C 944 339.33333333333 946 304 950 272 C 1013.33333333333 288.66666666667 1072.33333333333 297 1127 297 C 1201 297 1258 282 1298 252 C 1337.33333333333 222 1357 180 1357 126 C 1357 98.66666666667 1346 72 1324 46 C 1301.33333333333 19.33333333333 1271.33333333333 -1.66666666667 1234 -17 C 1196 -32.33333333333 1154.66666666667 -40 1110 -40 C 987.33333333333 -40 895.66666666667 7.66666666667 835 103 C 773.66666666667 70.33333333333 706 41.66666666667 632 17 C 557.33333333333 -7.66666666667 495.66666666667 -20 447 -20 C 375 -20 318 0.66666666667 276 42 C 233.33333333333 82.66666666667 212 140.33333333333 212 215 C 212 247 216.66666666667 295.33333333333 226 360 C 234.66666666667 424 239 471.33333333333 239 502 C 239 560.66666666667 233.66666666667 630.66666666667 223 712 C 212.33333333333 792.66666666667 198.33333333333 861.66666666667 181 919 C 163.66666666667 976.33333333333 143.33333333333 1022.66666666667 120 1058 L 287 1116 C 327 1045.33333333333 359 954.66666666667 383 844 C 407 732.66666666667 419 617.66666666667 419 499 C 419 451 414.66666666667 392.33333333333 406 323 C 396.66666666667 253 392 211 392 197 C 392 168.33333333333 397.33333333333 148.33333333333 408 137 C 418.66666666667 125.66666666667 439 120 469 120 C 494.33333333333 120 520 122.66666666667 546 128 C 572 133.33333333333 598.66666666667 140.33333333333 626 149 C 652.66666666667 157 705.66666666667 178.33333333333 785 213 C 771 261.66666666667 764 314.33333333333 764 371 C 764 577.66666666667 824.33333333333 786.33333333333 945 997 L 696 1113 L 765 1228 Z M 1115 187 C 1070.33333333333 187 1024.66666666667 179.66666666667 978 165 C 1005.33333333333 101.66666666667 1051.33333333333 70 1116 70 C 1176.66666666667 70 1207 88 1207 124 C 1207 144.66666666667 1198.66666666667 160.33333333333 1182 171 C 1165.33333333333 181.66666666667 1143 187 1115 187 Z"/>
    <path fill="#000000" stroke="none" transform="matrix(1 0 0 -1 31984 2689)" d="M -55 234 C 58.33333333333 314 176.66666666667 387 300 453 C 360.66666666667 661 446 824 556 942 C 666 1059.33333333333 789 1118 925 1118 C 1000.33333333333 1118 1057 1092.33333333333 1095 1041 C 1132.33333333333 989 1151 913.33333333333 1151 814 L 1147 741 C 1279 763.66666666667 1412 780.33333333333 1546 791 C 1566.66666666667 976.33333333333 1617 1145.33333333333 1697 1298 C 1777 1450 1889.66666666667 1591 2035 1721 L 2083 1658 C 2007.66666666667 1586 1947.66666666667 1513 1903 1439 C 1857.66666666667 1364.33333333333 1822 1280.66666666667 1796 1188 C 1769.33333333333 1094.66666666667 1747 966 1729 802 C 1821.66666666667 806 1916 808 2012 808 L 2009 721 C 1907.66666666667 718.33333333333 1811 713 1719 705 C 1698.33333333333 467 1649.66666666667 286.66666666667 1573 164 C 1495.66666666667 41.33333333333 1391.66666666667 -20 1261 -20 C 1164.33333333333 -20 1086.66666666667 15.66666666667 1028 87 C 968.66666666667 158.33333333333 939 251.66666666667 939 367 C 939 423 942.66666666667 489 950 565 C 774 512.33333333333 608.66666666667 446.33333333333 454 367 C 440.66666666667 282.33333333333 428 176.33333333333 416 49 L 220 -5 C 226 84.33333333333 237 170.66666666667 253 254 C 185 212 98.33333333333 152.66666666667 -7 76 L -55 234 Z M 1298 120 C 1332.66666666667 120 1363.33333333333 129.66666666667 1390 149 C 1416 168.33333333333 1438 196.33333333333 1456 233 C 1474 269 1489.66666666667 318.33333333333 1503 381 C 1515.66666666667 443.66666666667 1527 545.33333333333 1537 686 C 1391.66666666667 667.33333333333 1257.33333333333 643.33333333333 1134 614 C 1124 522.66666666667 1119 444.33333333333 1119 379 C 1119 301.66666666667 1135.33333333333 239.33333333333 1168 192 C 1200.66666666667 144 1244 120 1298 120 Z M 870 978 C 691.33333333333 978 565 833.33333333333 491 544 C 645 610.66666666667 802.33333333333 663 963 701 C 968.33333333333 773.66666666667 971 824.33333333333 971 853 C 971 898.33333333333 962.33333333333 930.66666666667 945 950 C 927.66666666667 968.66666666667 902.66666666667 978 870 978 Z"/>
    <path fill="#000000" stroke="none" transform="matrix(1 0 0 -1 33887 2689)" d="M 2537 2088 C 2409 1991.33333333333 2294.33333333333 1896 2193 1802 C 2091 1708 2000 1615.66666666667 1920 1525 C 1840 1434.33333333333 1769.66666666667 1345.66666666667 1709 1259 C 1648.33333333333 1172.33333333333 1595.66666666667 1088 1551 1006 C 1505.66666666667 924 1467 844.66666666667 1435 768 C 1402.33333333333 690.66666666667 1374.33333333333 616.66666666667 1351 546 C 1338.33333333333 508 1325.66666666667 469.66666666667 1313 431 C 1300.33333333333 391.66666666667 1287.66666666667 353.66666666667 1275 317 C 1262.33333333333 279.66666666667 1250.33333333333 244.66666666667 1239 212 C 1227.66666666667 178.66666666667 1217.33333333333 149 1208 123 C 1258.66666666667 122.33333333333 1304 116 1344 104 C 1384 91.33333333333 1418 74.66666666667 1446 54 C 1474 32.66666666667 1495.66666666667 7.66666666667 1511 -21 C 1525.66666666667 -50.33333333333 1533 -81.66666666667 1533 -115 C 1533 -149 1527.33333333333 -181.66666666667 1516 -213 C 1504 -245 1485 -273.33333333333 1459 -298 C 1432.33333333333 -322.66666666667 1398 -342.33333333333 1356 -357 C 1313.33333333333 -372.33333333333 1261 -380 1199 -380 C 1172.33333333333 -380 1146.66666666667 -377 1122 -371 C 1097.33333333333 -365 1074 -357 1052 -347 C 1030 -337 1009.66666666667 -325.66666666667 991 -313 C 971.66666666667 -300.33333333333 954.33333333333 -287.33333333333 939 -274 L 984 -210 C 1009.33333333333 -229.33333333333 1040.33333333333 -244 1077 -254 C 1113 -264.66666666667 1147.66666666667 -270 1181 -270 C 1203 -270 1226 -268.33333333333 1250 -265 C 1273.33333333333 -261.66666666667 1295 -255 1315 -245 C 1334.33333333333 -235 1350.66666666667 -220.66666666667 1364 -202 C 1376.66666666667 -183.33333333333 1383 -158.66666666667 1383 -128 C 1383 -108 1377.66666666667 -90 1367 -74 C 1356.33333333333 -58.66666666667 1341.66666666667 -45.66666666667 1323 -35 C 1304.33333333333 -25 1282.66666666667 -17.33333333333 1258 -12 C 1233.33333333333 -6.66666666667 1206.66666666667 -4 1178 -4 C 1158 -4 1138.66666666667 -5 1120 -7 C 1109.33333333333 -11.66666666667 1099 -14.66666666667 1089 -16 C 1079 -18 1069.66666666667 -19 1061 -19 C 1043 -19 1026.33333333333 -14.66666666667 1011 -6 C 995 2.66666666667 982.66666666667 16 974 34 C 961.33333333333 60.66666666667 948.33333333333 94.66666666667 935 136 C 921.66666666667 176.66666666667 908.33333333333 221.66666666667 895 271 C 881.66666666667 319.66666666667 868.66666666667 370.66666666667 856 424 C 843.33333333333 476.66666666667 832 528.66666666667 822 580 C 811.33333333333 630.66666666667 802.33333333333 678.66666666667 795 724 C 787 768.66666666667 781.33333333333 807.33333333333 778 840 C 768.66666666667 828.66666666667 758.33333333333 810 747 784 C 735.66666666667 758 724 727.33333333333 712 692 C 700 656.66666666667 688 618 676 576 C 663.33333333333 534 651.33333333333 491.66666666667 640 449 C 628 406.33333333333 616.66666666667 365 606 325 C 595.33333333333 284.33333333333 586 247.66666666667 578 215 C 569.33333333333 182.33333333333 562.33333333333 155 557 133 C 551.66666666667 111 548 97.33333333333 546 92 C 536 60.66666666667 522.66666666667 34.33333333333 506 13 C 489.33333333333 -8.33333333333 467.33333333333 -19 440 -19 C 422 -19 405.33333333333 -15.66666666667 390 -9 C 374.66666666667 -3 360 12 346 36 C 327.33333333333 68 308.66666666667 111.66666666667 290 167 C 270.66666666667 221.66666666667 252 282.33333333333 234 349 C 216 415.66666666667 199.33333333333 485.33333333333 184 558 C 168 630 154 699.33333333333 142 766 C 130 832.66666666667 120.33333333333 894 113 950 C 105 1005.33333333333 100.66666666667 1049.33333333333 100 1082 L 263 1119 C 265.66666666667 1090.33333333333 269.66666666667 1056.66666666667 275 1018 C 280.33333333333 979.33333333333 286.66666666667 938 294 894 C 300.66666666667 849.33333333333 308.66666666667 803.33333333333 318 756 C 326.66666666667 708 336 660.66666666667 346 614 C 355.33333333333 566.66666666667 365 521.33333333333 375 478 C 384.33333333333 434 393.66666666667 394 403 358 C 412.33333333333 322 421.33333333333 290.66666666667 430 264 C 438.66666666667 237.33333333333 446.33333333333 217.66666666667 453 205 C 472.33333333333 289.66666666667 493.33333333333 371 516 449 C 538 527 560.66666666667 600 584 668 C 607.33333333333 735.33333333333 630.66666666667 796.66666666667 654 852 C 677.33333333333 907.33333333333 699.66666666667 955 721 995 C 741.66666666667 1034.33333333333 761 1065 779 1087 C 796.33333333333 1108.33333333333 811.33333333333 1119 824 1119 C 851.33333333333 1119 871.66666666667 1110 885 1092 C 898.33333333333 1074 907.66666666667 1050 913 1020 C 917.66666666667 994 924 961 932 921 C 940 880.33333333333 949 836.33333333333 959 789 C 969 741 979.66666666667 691.33333333333 991 640 C 1001.66666666667 588.66666666667 1012.66666666667 539 1024 491 C 1034.66666666667 443 1045.33333333333 398 1056 356 C 1066.66666666667 314 1076.33333333333 278.66666666667 1085 250 C 1093.66666666667 278.66666666667 1101.66666666667 306 1109 332 C 1116.33333333333 358 1124.66666666667 385.33333333333 1134 414 C 1142.66666666667 442 1153 473 1165 507 C 1176.33333333333 540.33333333333 1190.66666666667 579.33333333333 1208 624 C 1272.66666666667 794 1348.66666666667 950.33333333333 1436 1093 C 1522.66666666667 1235 1619.66666666667 1368 1727 1492 C 1834.33333333333 1615.33333333333 1951.66666666667 1731.66666666667 2079 1841 C 2206.33333333333 1950.33333333333 2343 2057 2489 2161 L 2537 2088 Z"/>
    <path fill="#000000" stroke="none" transform="matrix(1 0 0 -1 35774 2689)" d="M 1749 -20 C 1712.33333333333 -20 1683.33333333333 -8.66666666667 1662 14 C 1640.66666666667 36 1618 74.66666666667 1594 130 C 1570 185.33333333333 1545 256.33333333333 1519 343 C 1493 429 1470.66666666667 517.33333333333 1452 608 C 1433.33333333333 698 1421.66666666667 775 1417 839 C 1383.66666666667 791.66666666667 1321 604 1229 276 L 1162 45 C 1155.33333333333 23.66666666667 1144.33333333333 7.66666666667 1129 -3 C 1113 -14.33333333333 1090.33333333333 -20 1061 -20 C 1030.33333333333 -20 1006 -9.66666666667 988 11 C 970 31.66666666667 945.33333333333 95.66666666667 914 203 C 882 310.33333333333 853.33333333333 426 828 550 C 802 673.33333333333 785.33333333333 769.66666666667 778 839 C 753.33333333333 809 720.66666666667 726 680 590 C 639.33333333333 453.33333333333 598.33333333333 300.66666666667 557 132 C 545 82.66666666667 530 45 512 19 C 493.33333333333 -7 469.33333333333 -20 440 -20 C 407.33333333333 -20 382.66666666667 -11 366 7 C 349.33333333333 25 331 59.33333333333 311 110 C 290.33333333333 160 268.33333333333 227 245 311 C 221 394.33333333333 198.33333333333 486.66666666667 177 588 C 155 689.33333333333 137 785.66666666667 123 877 C 109 967.66666666667 101.33333333333 1035.66666666667 100 1081 L 263 1118 C 273.66666666667 996.66666666667 302 825 348 603 C 393.33333333333 381 428.33333333333 248 453 204 C 487.66666666667 354.66666666667 528 499 574 637 C 620 774.33333333333 666.66666666667 889 714 981 C 761.33333333333 1072.33333333333 798 1118 824 1118 C 871.33333333333 1118 901 1085 913 1019 C 925.66666666667 949 952.66666666667 818.66666666667 994 628 C 1034.66666666667 437.33333333333 1067.66666666667 300.66666666667 1093 218 C 1118.33333333333 342 1155.33333333333 475.66666666667 1204 619 C 1252.66666666667 762.33333333333 1301.66666666667 881.33333333333 1351 976 C 1400.33333333333 1070.66666666667 1437.66666666667 1118 1463 1118 C 1510.33333333333 1118 1540 1085 1552 1019 L 1568 929 C 1625.33333333333 584.33333333333 1685.66666666667 349.66666666667 1749 225 C 1790.33333333333 385 1823.33333333333 502.66666666667 1848 578 C 1872.66666666667 652.66666666667 1900.66666666667 725.33333333333 1932 796 C 1963.33333333333 866.66666666667 1999.66666666667 935.66666666667 2041 1003 C 2081.66666666667 1070.33333333333 2129 1136.33333333333 2183 1201 C 2236.33333333333 1265 2298.33333333333 1326.33333333333 2369 1385 L 2417 1322 C 2306.33333333333 1214 2206.66666666667 1065 2118 875 C 2029.33333333333 685 1954 457.66666666667 1892 193 C 1876.66666666667 128.33333333333 1863.33333333333 82.66666666667 1852 56 C 1840.66666666667 28.66666666667 1826.66666666667 9.33333333333 1810 -2 C 1793.33333333333 -14 1773 -20 1749 -20 Z"/>
    <path fill="#000000" stroke="none" transform="matrix(1 0 0 -1 38191 2689)" d="M 120 -5 C 157.33333333333 316.33333333333 236.66666666667 577.66666666667 358 779 C 214.66666666667 913 143 1064.33333333333 143 1233 C 143 1383 218.66666666667 1539 370 1701 C 520.66666666667 1863 730.33333333333 2016 999 2160 L 1047 2087 C 893.66666666667 2005 763 1916.66666666667 655 1822 C 547 1726.66666666667 464.66666666667 1629 408 1529 C 351.33333333333 1428.33333333333 323 1331 323 1237 C 323 1119 366 1010.66666666667 452 912 C 570 1049.33333333333 703.33333333333 1118 852 1118 C 906.66666666667 1118 955.33333333333 1106.33333333333 998 1083 C 1040 1059.66666666667 1072.33333333333 1028.33333333333 1095 989 C 1117 949 1128 905.66666666667 1128 859 C 1128 829 1125.66666666667 795 1121 757 C 1115.66666666667 718.33333333333 1099 629 1071 489 C 1178.33333333333 423.66666666667 1251.66666666667 368.66666666667 1291 324 C 1329.66666666667 278.66666666667 1349 233 1349 187 C 1349 128.33333333333 1326.33333333333 79.33333333333 1281 40 C 1235.66666666667 0 1177.66666666667 -20 1107 -20 C 1032.33333333333 -20 975.33333333333 1 936 43 C 896 85 876 142.66666666667 876 216 C 876 273.33333333333 883.33333333333 348.33333333333 898 441 C 748 519 649.33333333333 572.33333333333 602 601 C 554.66666666667 629.66666666667 507.66666666667 660.66666666667 461 694 C 433.66666666667 626.66666666667 409.33333333333 546.66666666667 388 454 C 366 361.33333333333 342 226.33333333333 316 49 L 120 -5 Z M 810 978 C 699.33333333333 978 607.66666666667 928.33333333333 535 829 C 591.66666666667 779.66666666667 653.33333333333 734.66666666667 720 694 C 786.66666666667 652.66666666667 853.33333333333 613 920 575 C 938.66666666667 690.33333333333 948 779.66666666667 948 843 C 948 875.66666666667 934 906.33333333333 906 935 C 878 963.66666666667 846 978 810 978 Z M 1210 165 C 1210 225.66666666667 1155 290.33333333333 1045 359 C 1032.33333333333 283 1026 226.66666666667 1026 190 C 1026 158.66666666667 1034.66666666667 134.33333333333 1052 117 C 1069.33333333333 99 1089.66666666667 90 1113 90 C 1177.66666666667 90 1210 115 1210 165 Z"/>
    <path fill="#000000" stroke="none" transform="matrix(1 0 0 -1 40192 2689)" d="M 928 -8 C 898 56.66666666667 883 143.66666666667 883 253 C 883 312.33333333333 885.33333333333 377.33333333333 890 448 C 894 518.66666666667 896 598.33333333333 896 687 C 896 793.66666666667 882.33333333333 869 855 913 C 827 956.33333333333 784.33333333333 978 727 978 C 650.33333333333 978 577.33333333333 952 508 900 C 438.66666666667 848 383.33333333333 778.33333333333 342 691 C 300.66666666667 603.66666666667 280 512.66666666667 280 418 C 280 334 293.33333333333 261.66666666667 320 201 C 346.66666666667 140.33333333333 391.33333333333 92.66666666667 454 58 L 397 -30 C 304.33333333333 1.33333333333 231.66666666667 55.66666666667 179 133 C 126.33333333333 209.66666666667 100 301.66666666667 100 409 C 100 516.33333333333 131 626.33333333333 193 739 C 255 851 336 942.33333333333 436 1013 C 536 1083 638.33333333333 1118 743 1118 C 852.33333333333 1118 935.33333333333 1082.33333333333 992 1011 C 1048 939.66666666667 1076 835.66666666667 1076 699 C 1076 631.66666666667 1074 562.33333333333 1070 491 C 1065.33333333333 419.66666666667 1063 350.66666666667 1063 284 C 1063 186.66666666667 1077 108.33333333333 1105 49 L 928 -8 Z"/>
    <path fill="#000000" stroke="none" transform="matrix(1 0 0 -1 41417 2689)" d="M 849 1098 L 859 990 C 908.33333333333 1028.66666666667 960.33333333333 1059.66666666667 1015 1083 C 1069.66666666667 1106.33333333333 1118.66666666667 1118 1162 1118 C 1209.33333333333 1118 1251 1106.66666666667 1287 1084 C 1322.33333333333 1060.66666666667 1350.33333333333 1030 1371 992 C 1391 954 1401 913.33333333333 1401 870 C 1401 790.66666666667 1384.66666666667 668.66666666667 1352 504 C 1331.33333333333 403.33333333333 1318 332.66666666667 1312 292 C 1305.33333333333 250.66666666667 1302 217.33333333333 1302 192 C 1302 169.33333333333 1308 151.66666666667 1320 139 C 1332 126.33333333333 1355.33333333333 120 1390 120 C 1414.66666666667 120 1439.33333333333 122.33333333333 1464 127 C 1488.66666666667 131.66666666667 1514.66666666667 138.33333333333 1542 147 C 1568.66666666667 155 1624 177 1708 213 C 1694 261.66666666667 1687 314.33333333333 1687 371 C 1687 543.66666666667 1731.66666666667 721.66666666667 1821 905 C 1909.66666666667 1088.33333333333 2030.33333333333 1248.33333333333 2183 1385 L 2231 1322 C 2111 1194 2020.33333333333 1050 1959 890 C 1897.66666666667 730 1867 559.33333333333 1867 378 C 1867 339.33333333333 1869 304 1873 272 C 1936.33333333333 288.66666666667 1995.33333333333 297 2050 297 C 2124 297 2181 282 2221 252 C 2260.33333333333 222 2280 180 2280 126 C 2280 98.66666666667 2269 72 2247 46 C 2224.33333333333 19.33333333333 2194.33333333333 -1.66666666667 2157 -17 C 2119 -32.33333333333 2077.66666666667 -40 2033 -40 C 1910.33333333333 -40 1818.66666666667 7.66666666667 1758 103 C 1666 53.66666666667 1591.33333333333 21 1534 5 C 1476.66666666667 -11.66666666667 1417.66666666667 -20 1357 -20 C 1279.66666666667 -20 1221.33333333333 -1 1182 37 C 1142 74.33333333333 1122 127.33333333333 1122 196 C 1122 238 1127.33333333333 286 1138 340 C 1148 394 1159.33333333333 450.33333333333 1172 509 C 1184 567.66666666667 1195.33333333333 626.66666666667 1206 686 C 1216 745.33333333333 1221 801.33333333333 1221 854 C 1221 890 1209.66666666667 919.66666666667 1187 943 C 1163.66666666667 966.33333333333 1135.66666666667 978 1103 978 C 1066.33333333333 978 1024.66666666667 970 978 954 C 930.66666666667 938 893 920.33333333333 865 901 L 867 799 C 867 550.33333333333 826.66666666667 351.66666666667 746 203 C 665.33333333333 54.33333333333 557 -20 421 -20 C 333.66666666667 -20 266.66666666667 17 220 91 C 172.66666666667 165 149 267.66666666667 149 399 C 149 445.66666666667 151.33333333333 516.66666666667 156 612 C 160 707.33333333333 162 778 162 824 C 162 920.66666666667 148 998.66666666667 120 1058 L 297 1116 C 327 1051.33333333333 342 964.33333333333 342 855 C 342 795.66666666667 340 729 336 655 C 331.33333333333 581 329 499.66666666667 329 411 C 329 307 340 232.66666666667 362 188 C 383.33333333333 142.66666666667 415.33333333333 120 458 120 C 535.33333333333 120 593 165.33333333333 631 256 C 668.33333333333 346 687 505.33333333333 687 734 C 687 840.66666666667 680 941.33333333333 666 1036 L 849 1098 Z M 2038 187 C 1993.33333333333 187 1947.66666666667 179.66666666667 1901 165 C 1928.33333333333 101.66666666667 1974.33333333333 70 2039 70 C 2099.66666666667 70 2130 88 2130 124 C 2130 144.66666666667 2121.66666666667 160.33333333333 2105 171 C 2088.33333333333 181.66666666667 2066 187 2038 187 Z"/>
    <path fill="#000000" stroke="none" transform="matrix(1 0 0 -1 43747 2689)" d="M 470 -20 C 446.66666666667 -20 427 -16.66666666667 411 -10 C 395 -4 380 11 366 35 C 340.66666666667 76.33333333333 308.66666666667 156.33333333333 270 275 C 230.66666666667 393.66666666667 191.33333333333 536.66666666667 152 704 C 112 870.66666666667 88 996.33333333333 80 1081 L 243 1118 C 251 1045.33333333333 269.66666666667 944.33333333333 299 815 C 327.66666666667 685 359.33333333333 561.66666666667 394 445 C 428 328.33333333333 453.33333333333 255 470 225 C 511.33333333333 385 544.33333333333 502.66666666667 569 578 C 593.66666666667 652.66666666667 621.66666666667 725.33333333333 653 796 C 684.33333333333 866.66666666667 720.66666666667 935.66666666667 762 1003 C 802.66666666667 1070.33333333333 850 1136.33333333333 904 1201 C 957.33333333333 1265 1019.33333333333 1326.33333333333 1090 1385 L 1138 1322 C 1027.33333333333 1214 927.66666666667 1065 839 875 C 750.33333333333 685 675 457.66666666667 613 193 C 597.66666666667 128.33333333333 584.33333333333 82.66666666667 573 56 C 561.66666666667 28.66666666667 547.66666666667 9.33333333333 531 -2 C 514.33333333333 -14 494 -20 470 -20 Z"/>
    <path fill="#000000" stroke="none" transform="matrix(1 0 0 -1 44885 2689)" d="M 451 668 C 467 721.33333333333 499.33333333333 765.66666666667 548 801 C 596 836.33333333333 651.66666666667 854 715 854 C 781.66666666667 854 841 836.66666666667 893 802 C 945 767.33333333333 986 719 1016 657 C 1045.33333333333 595 1060 529 1060 459 C 1060 367.66666666667 1040.33333333333 285.33333333333 1001 212 C 961 138.66666666667 905.33333333333 81.66666666667 834 41 C 762.66666666667 0.33333333333 683.66666666667 -20 597 -20 C 500.33333333333 -20 416 1.66666666667 344 45 C 271.33333333333 87.66666666667 216 148.66666666667 178 228 C 139.33333333333 307.33333333333 120 396.66666666667 120 496 C 120 638.66666666667 165.66666666667 783 257 929 C 348.33333333333 1074.33333333333 488 1226.33333333333 676 1385 L 731 1334 C 605 1213.33333333333 513.66666666667 1113 457 1033 C 400.33333333333 953 360 870.33333333333 336 785 C 312 699.66666666667 300 603.33333333333 300 496 C 300 373.33333333333 325.33333333333 280 376 216 C 426 152 500.33333333333 120 599 120 C 686.33333333333 120 755 150.33333333333 805 211 C 855 271.66666666667 880 354.66666666667 880 460 C 880 550 864 620 832 670 C 800 719.33333333333 756 744 700 744 C 624 744 574.66666666667 703.66666666667 552 623 L 451 668 Z"/>
    <path fill="#000000" stroke="none" transform="matrix(1 0 0 -1 46065 2689)" d="M 1058 1090 L 1056 1088 C 1032 1048 1012.66666666667 982 998 890 C 983.33333333333 797.33333333333 976 700 976 598 C 976 447.33333333333 982 346 994 294 C 1032 301.33333333333 1067.66666666667 305 1101 305 C 1179.66666666667 305 1241.33333333333 289.33333333333 1286 258 C 1330.66666666667 226.66666666667 1353 185 1353 133 C 1353 89.66666666667 1334.33333333333 53.33333333333 1297 24 C 1259 -5.33333333333 1211.66666666667 -20 1155 -20 C 1056.33333333333 -20 971 34.66666666667 899 144 C 863.66666666667 128 828.33333333333 110.66666666667 793 92 C 757.66666666667 72.66666666667 722 55 686 39 C 650 22.33333333333 613.33333333333 8.33333333333 576 -3 C 538.66666666667 -14.33333333333 500.66666666667 -20 462 -20 C 376.66666666667 -20 314.66666666667 4 276 52 C 236.66666666667 100 217 176 217 280 C 217 438 209 588.33333333333 193 731 C 176.33333333333 873.66666666667 152 982.66666666667 120 1058 L 287 1116 C 360.33333333333 960.66666666667 397 689 397 301 C 397 253 400 216.33333333333 406 191 C 411.33333333333 165.66666666667 420.33333333333 147.66666666667 433 137 C 445.66666666667 125.66666666667 466.33333333333 120 495 120 C 516.33333333333 120 543.33333333333 125.66666666667 576 137 C 608.66666666667 148.33333333333 664.33333333333 171.66666666667 743 207 L 846 250 C 830.66666666667 295.33333333333 818.66666666667 349.33333333333 810 412 C 800.66666666667 474 796 536 796 598 C 796 753.33333333333 813.33333333333 904.66666666667 848 1052 C 767.33333333333 1069.33333333333 703.66666666667 1110.66666666667 657 1176 C 610.33333333333 1240.66666666667 587 1318.66666666667 587 1410 C 587 1532.66666666667 622.66666666667 1645.33333333333 694 1748 C 765.33333333333 1850.66666666667 871 1939 1011 2013 C 1151 2086.33333333333 1306.33333333333 2135.33333333333 1477 2160 L 1500 2099 C 1013.33333333333 1970.33333333333 770 1744.66666666667 770 1422 C 770 1346 785.33333333333 1287 816 1245 C 846.66666666667 1202.33333333333 890.66666666667 1181 948 1181 C 958 1181 966.66666666667 1181.66666666667 974 1183 C 981.33333333333 1183.66666666667 1002.33333333333 1188.33333333333 1037 1197 L 1058 1090 Z M 1108 195 C 1086 195 1061.66666666667 192.66666666667 1035 188 C 1047.66666666667 154.66666666667 1062.66666666667 130 1080 114 C 1097.33333333333 98 1118.33333333333 90 1143 90 C 1157.66666666667 90 1171.33333333333 93.66666666667 1184 101 C 1196.66666666667 108.33333333333 1203 120.33333333333 1203 137 C 1203 175.66666666667 1171.33333333333 195 1108 195 Z"/>
    <path fill="#000000" stroke="none" transform="matrix(1 0 0 -1 47445 2689)" d="M 287 1116 C 360.33333333333 960.66666666667 397 689 397 301 C 397 253 400 216.33333333333 406 191 C 411.33333333333 165.66666666667 420.33333333333 147.66666666667 433 137 C 445.66666666667 125.66666666667 466.33333333333 120 495 120 C 516.33333333333 120 543.33333333333 125.66666666667 576 137 C 608.66666666667 148.33333333333 664.33333333333 171.66666666667 743 207 L 846 250 C 830.66666666667 295.33333333333 818.66666666667 349.33333333333 810 412 C 800.66666666667 474 796 536 796 598 C 796 806.66666666667 827.66666666667 1010.33333333333 891 1209 C 954.33333333333 1407 1044 1585.66666666667 1160 1745 C 1276 1904.33333333333 1415 2042.66666666667 1577 2160 L 1625 2087 C 1499 1993.66666666667 1387.66666666667 1870.33333333333 1291 1717 C 1194.33333333333 1563 1117.66666666667 1384 1061 1180 C 1004.33333333333 976 976 782 976 598 C 976 447.33333333333 982 346 994 294 C 1032 301.33333333333 1067.66666666667 305 1101 305 C 1179.66666666667 305 1241.33333333333 289.33333333333 1286 258 C 1330.66666666667 226.66666666667 1353 185 1353 133 C 1353 89.66666666667 1334.33333333333 53.33333333333 1297 24 C 1259 -5.33333333333 1211.66666666667 -20 1155 -20 C 1056.33333333333 -20 971 34.66666666667 899 144 C 863.66666666667 128 828.33333333333 110.66666666667 793 92 C 757.66666666667 72.66666666667 722 55 686 39 C 650 22.33333333333 613.33333333333 8.33333333333 576 -3 C 538.66666666667 -14.33333333333 500.66666666667 -20 462 -20 C 376.66666666667 -20 314.66666666667 4 276 52 C 236.66666666667 100 217 176 217 280 C 217 438 209 588.33333333333 193 731 C 176.33333333333 873.66666666667 152 982.66666666667 120 1058 L 287 1116 Z M 1108 195 C 1086 195 1061.66666666667 192.66666666667 1035 188 C 1047.66666666667 154.66666666667 1062.66666666667 130 1080 114 C 1097.33333333333 98 1118.33333333333 90 1143 90 C 1157.66666666667 90 1171.33333333333 93.66666666667 1184 101 C 1196.66666666667 108.33333333333 1203 120.33333333333 1203 137 C 1203 175.66666666667 1171.33333333333 195 1108 195 Z"/>
</svg>
