<svg width="39346" height="3789" viewBox="0 0 39346 3789" xmlns="http://www.w3.org/2000/svg">
    <defs/>
    <path fill="#000000" stroke="none" transform="matrix(1 0 0 -1 0 2689)" d="M 384 1154 C 502 1144 598.66666666667 1096.33333333333 674 1011 C 748.66666666667 925.66666666667 786 820 786 694 C 786 575.33333333333 749 474.33333333333 675 391 C 600.33333333333 307 503.33333333333 257.66666666667 384 243 L 384 0 L 200 0 L 200 387 L 264 387 C 325.33333333333 387 382 400 434 426 C 486 452 527 489 557 537 C 587 584.33333333333 602 638 602 698 C 602 789.33333333333 570.66666666667 864.33333333333 508 923 C 444.66666666667 981 363.33333333333 1010 264 1010 L 200 1010 L 200 1462 L 384 1462 L 384 1154 Z"/>
    <path fill="#000000" stroke="none" transform="matrix(1 0 0 -1 946 2689)" d="M 240 0 L 240 1462 L 424 1462 L 424 0 L 240 0 Z"/>
    <path fill="#000000" stroke="none" transform="matrix(1 0 0 -1 1610 2689)" d="M 314 515 L 314 446 C 314 335.33333333333 329 258 359 214 C 389 170 442.66666666667 148 520 148 C 600 148 655.66666666667 169.66666666667 687 213 C 718.33333333333 256.33333333333 734 327.33333333333 734 426 L 734 1462 L 918 1462 L 918 426 C 918 357.33333333333 925.33333333333 303 940 263 C 954 222.33333333333 975.66666666667 193 1005 175 C 1034.33333333333 157 1076.66666666667 148 1132 148 C 1209.33333333333 148 1263 170 1293 214 C 1323 258 1338 335.33333333333 1338 446 L 1338 515 L 1522 515 L 1522 446 C 1522 278 1490 157.66666666667 1426 85 C 1362 12.33333333333 1260.33333333333 -24 1121 -24 C 984.33333333333 -24 886 12.33333333333 826 85 C 765.33333333333 12.33333333333 667 -24 531 -24 C 392.33333333333 -24 291 12.33333333333 227 85 C 162.33333333333 157 130 277.33333333333 130 446 L 130 515 L 314 515 Z"/>
    <path fill="#000000" stroke="none" transform="matrix(1 0 0 -1 3262 2689)" d="M 200 0 L 200 1462 L 384 1462 C 604 1462 776 1397.33333333333 900 1268 C 1024 1138.66666666667 1086 960.33333333333 1086 733 C 1086 496.33333333333 1028.66666666667 315 914 189 C 799.33333333333 63 632.66666666667 0 414 0 L 200 0 Z M 384 164 L 388 164 C 550.66666666667 164 675.33333333333 213 762 311 C 848.66666666667 409 892 549 892 731 C 892 909.66666666667 847.66666666667 1049 759 1149 C 669.66666666667 1248.33333333333 544.66666666667 1298 384 1298 L 384 164 Z"/>
    <path fill="#000000" stroke="none" transform="matrix(1 0 0 -1 4508 2689)" d="M 592 0 L 592 1100 L 550 924 L 253 0 L 60 0 L 587 1462 L 762 1462 L 1289 0 L 1094 0 L 801 912 L 751 1121 L 751 0 L 592 0 Z"/>
    <path fill="#000000" stroke="none" transform="matrix(1 0 0 -1 5857 2689)" d="M 200 0 L 200 1462 L 384 1462 L 384 164 L 923 164 L 923 0 L 200 0 Z"/>
    <path fill="#000000" stroke="none" transform="matrix(1 0 0 -1 7412 2689)" d="M 213 1462 L 767 1462 L 1249 0 L 100 0 L 528 1298 L 213 1298 L 213 1462 Z M 352 164 L 994 164 L 674 1227 L 352 164 Z"/>
    <path fill="#000000" stroke="none" transform="matrix(1 0 0 -1 8761 2689)" d="M 467 784 C 521.66666666667 807.33333333333 578.66666666667 819 638 819 C 763.33333333333 819 863.33333333333 782.33333333333 938 709 C 1012.66666666667 635.66666666667 1050 539.33333333333 1050 420 C 1050 336 1032.33333333333 260.33333333333 997 193 C 961.66666666667 125.66666666667 911.33333333333 72.66666666667 846 34 C 780 -4.66666666667 703 -24 615 -24 C 472.33333333333 -24 367.66666666667 14.33333333333 301 91 C 233.66666666667 167.66666666667 200 284.33333333333 200 441 L 200 1462 L 384 1462 L 384 441 C 384 363.66666666667 392 305.33333333333 408 266 C 423.33333333333 226 448 196.33333333333 482 177 C 515.33333333333 157.66666666667 559.66666666667 148 615 148 C 775.66666666667 148 856 238 856 418 C 856 485.33333333333 837.66666666667 540.33333333333 801 583 C 763.66666666667 625.66666666667 715.66666666667 647 657 647 C 619 647 581 641.33333333333 543 630 L 467 784 Z"/>
    <path fill="#000000" stroke="none" transform="matrix(1 0 0 -1 9941 2689)" d="M 910 0 L 646 0 C 492 0 372.66666666667 30 288 90 C 202.66666666667 149.33333333333 160 231.66666666667 160 337 C 160 463.66666666667 205 557 295 617 C 384.33333333333 676.33333333333 522 706 708 706 L 726 706 L 726 1462 L 910 1462 L 910 0 Z M 726 542 C 624.66666666667 542 548.66666666667 536.33333333333 498 525 C 447.33333333333 513 411 493.33333333333 389 466 C 366.33333333333 438 355 397.66666666667 355 345 C 355 281 386 235 448 207 C 510 178.33333333333 602.66666666667 164 726 164 L 726 542 Z"/>
    <path fill="#000000" stroke="none" transform="matrix(1 0 0 -1 11051 2689)" d="M 344 680 L 344 0 L 160 0 L 160 844 L 650 844 L 650 1462 L 834 1462 L 834 680 L 344 680 Z"/>
    <path fill="#000000" stroke="none" transform="matrix(1 0 0 -1 12045 2689)" d="M 344 1380 C 344 1316.66666666667 354.33333333333 1261.66666666667 375 1215 C 395.66666666667 1168.33333333333 423.33333333333 1127 458 1091 C 492.66666666667 1055 532.33333333333 1022.33333333333 577 993 C 621.66666666667 963.66666666667 667.66666666667 934.33333333333 715 905 C 762.33333333333 934.33333333333 808.33333333333 963.66666666667 853 993 C 897.66666666667 1022.33333333333 937.33333333333 1055 972 1091 C 1006 1127 1033.66666666667 1168.33333333333 1055 1215 C 1075.66666666667 1261.66666666667 1086 1316.66666666667 1086 1380 L 1086 1462 L 1270 1462 L 1270 1380 C 1270 1320.66666666667 1263.33333333333 1266.33333333333 1250 1217 C 1236 1167 1216 1121.33333333333 1190 1080 C 1163.33333333333 1038 1127.66666666667 996.66666666667 1083 956 C 1037.66666666667 914.66666666667 968.33333333333 865.66666666667 875 809 C 973 744.33333333333 1043.66666666667 675.33333333333 1087 602 C 1130.33333333333 528 1152 446.33333333333 1152 357 C 1152 235.66666666667 1114 142 1038 76 C 961.33333333333 9.33333333333 852.33333333333 -24 711 -24 C 572.33333333333 -24 465.66666666667 9.33333333333 391 76 C 316.33333333333 142.66666666667 279 236.33333333333 279 357 C 279 448.33333333333 301.33333333333 530.66666666667 346 604 C 390.66666666667 676.66666666667 461 744 557 806 C 447.66666666667 871.33333333333 367.66666666667 930.33333333333 317 983 C 265.66666666667 1035 226.66666666667 1093.33333333333 200 1158 C 173.33333333333 1222 160 1296 160 1380 L 160 1462 L 344 1462 L 344 1380 Z M 718 716 C 635.33333333333 664.66666666667 574 610.66666666667 534 554 C 493.33333333333 497.33333333333 473 434.33333333333 473 365 C 473 291.66666666667 494.33333333333 237.33333333333 537 202 C 579 166 637 148 711 148 C 789 148 849.66666666667 165.66666666667 893 201 C 935.66666666667 236.33333333333 957 291 957 365 C 957 434.33333333333 937.66666666667 497.33333333333 899 554 C 860.33333333333 610 800 664 718 716 Z"/>
    <path fill="#000000" stroke="none" transform="matrix(1 0 0 -1 13475 2689)" d="M 582 1462 L 767 1462 L 1249 0 L 1044 0 L 674 1227 L 303 0 L 100 0 L 582 1462 Z"/>
    <path fill="#000000" stroke="none" transform="matrix(1 0 0 -1 15356 2689)" d="M 200 0 L 200 1462 L 923 1462 L 923 1298 L 384 1298 L 384 164 L 923 164 L 923 0 L 200 0 Z"/>
    <path fill="#000000" stroke="none" transform="matrix(1 0 0 -1 16439 2689)" d="M 680 0 L 680 682 L 160 682 L 160 844 L 680 844 L 680 1462 L 864 1462 L 864 844 L 1384 844 L 1384 682 L 864 682 L 864 0 L 680 0 Z"/>
    <path fill="#000000" stroke="none" transform="matrix(1 0 0 -1 17983 2689)" d="M 941 987 L 941 1016 C 941 1126.66666666667 926 1204 896 1248 C 866 1292 812.33333333333 1314 735 1314 C 655 1314 599.33333333333 1292 568 1248 C 536.66666666667 1203.33333333333 521 1126.66666666667 521 1018 L 521 162 L 1124 162 L 1124 0 L 100 0 L 100 162 L 337 162 L 337 1012 C 337 1181.33333333333 367.66666666667 1302.66666666667 429 1376 C 489.66666666667 1449.33333333333 588 1486 724 1486 C 862.66666666667 1486 964.33333333333 1450 1029 1378 C 1093 1305.33333333333 1125 1184.66666666667 1125 1016 L 1125 987 L 941 987 Z"/>
    <path fill="#000000" stroke="none" transform="matrix(1 0 0 -1 19268 2689)" d="M 355 735 C 355 643.66666666667 376.33333333333 559 419 481 C 461 403 519.33333333333 341.33333333333 594 296 C 668 250.66666666667 749.33333333333 228 838 228 C 925.33333333333 228 1006.66666666667 250.66666666667 1082 296 C 1156.66666666667 341.33333333333 1215.33333333333 403 1258 481 C 1300 558.33333333333 1321 643 1321 735 C 1321 825.66666666667 1300 910 1258 988 C 1215.33333333333 1066 1156.66666666667 1127.66666666667 1082 1173 C 1007.33333333333 1217.66666666667 926 1240 838 1240 C 749.33333333333 1240 668 1217.66666666667 594 1173 C 520 1128.33333333333 461.66666666667 1067 419 989 C 376.33333333333 910.33333333333 355 825.66666666667 355 735 Z M 160 734 C 160 858.66666666667 189 973.33333333333 247 1078 C 305 1182 386.33333333333 1263.66666666667 491 1323 C 595 1382.33333333333 710.66666666667 1412 838 1412 C 965.33333333333 1412 1081.33333333333 1382.33333333333 1186 1323 C 1290.66666666667 1263.66666666667 1372 1181.66666666667 1430 1077 C 1487.33333333333 972.33333333333 1516 858 1516 734 C 1516 609.33333333333 1487 495 1429 391 C 1371 286.33333333333 1290 204.33333333333 1186 145 C 1082 85.66666666667 966 56 838 56 C 710 56 594 85.66666666667 490 145 C 386 204.33333333333 305 286 247 390 C 189 494 160 608.66666666667 160 734 Z M 711 741 C 711 785 721.66666666667 819.33333333333 743 844 C 763.66666666667 868 794.66666666667 880 836 880 C 878 880 910 868 932 844 C 954 820 965 785.66666666667 965 741 C 965 698.33333333333 953.66666666667 664.66666666667 931 640 C 908.33333333333 614.66666666667 876.66666666667 602 836 602 C 796.66666666667 602 766 614.33333333333 744 639 C 722 663.66666666667 711 697.66666666667 711 741 Z"/>
    <path fill="#000000" stroke="none" transform="matrix(1 0 0 -1 20944 2689)" d="M 1668 517 L 1668 511 C 1668 383 1651.33333333333 281.33333333333 1618 206 C 1584 130.66666666667 1532 73.66666666667 1462 35 C 1391.33333333333 -4.33333333333 1300 -24 1188 -24 C 1026.66666666667 -24 908.66666666667 19 834 105 C 758.66666666667 191 721 328 721 516 L 721 546 C 683.66666666667 558 640 564 590 564 C 500 564 436.66666666667 543 400 501 C 362.66666666667 459 344 391.66666666667 344 299 L 344 0 L 160 0 L 160 334 C 160 474 194.66666666667 576 264 640 C 333.33333333333 703.33333333333 434.66666666667 735 568 735 C 620 735 671 727.33333333333 721 712 L 721 1462 L 905 1462 L 905 510 C 905 375.33333333333 927 281.33333333333 971 228 C 1015 174.66666666667 1087.66666666667 148 1189 148 C 1291 148 1365.66666666667 176 1413 232 C 1460.33333333333 288 1484 381 1484 511 L 1484 517 L 1668 517 Z"/>
    <path fill="#000000" stroke="none" transform="matrix(1 0 0 -1 22742 2689)" d="M 1400 359 L 1080 359 C 1065.33333333333 224.33333333333 1022.33333333333 127 951 67 C 879.66666666667 6.33333333333 775 -24 637 -24 C 531 -24 446.33333333333 -5.66666666667 383 31 C 319.66666666667 67 273.33333333333 122 244 196 C 214.66666666667 269.33333333333 200 376 200 516 L 200 1462 L 384 1462 L 384 510 C 384 403.33333333333 392 327 408 281 C 423.33333333333 235 449.33333333333 201.33333333333 486 180 C 522 158.66666666667 572.66666666667 148 638 148 C 704.66666666667 148 757 159.66666666667 795 183 C 833 206.33333333333 860.66666666667 242.66666666667 878 292 C 895.33333333333 340.66666666667 904 417.66666666667 904 523 L 1400 523 L 1400 359 Z"/>
    <path fill="#000000" stroke="none" transform="matrix(1 0 0 -1 24774 2689)" d="M 457 599 L 78 1172 L 1049 1172 L 670 599 L 1070 0 L 60 0 L 457 599 Z M 362 156 L 767 156 L 566 476 L 362 156 Z M 566 722 L 749 1016 L 381 1016 L 566 722 Z"/>
    <path fill="#000000" stroke="none" transform="matrix(1 0 0 -1 25904 2689)" d="M 1015 212 C 960.33333333333 123.33333333333 905.66666666667 61 851 25 C 796.33333333333 -11.66666666667 731.66666666667 -30 657 -30 C 599 -30 551.33333333333 -18.33333333333 514 5 C 476.66666666667 27.66666666667 448 57.66666666667 428 95 C 408 131.66666666667 398 171 398 213 C 398 257.66666666667 412.33333333333 304.66666666667 441 354 C 469 403.33333333333 525.33333333333 478 610 578 C 679.33333333333 660 732 741.33333333333 768 822 C 804 902 822 983.33333333333 822 1066 C 822 1140.66666666667 802 1200.66666666667 762 1246 C 721.33333333333 1291.33333333333 666.33333333333 1314 597 1314 C 515 1314 452.33333333333 1294 409 1254 C 365.66666666667 1214 344 1155.33333333333 344 1078 C 344 1036.66666666667 349 997 359 959 L 178 935 C 166 977 160 1022.66666666667 160 1072 C 160 1197.33333333333 200.66666666667 1297.66666666667 282 1373 C 363.33333333333 1448.33333333333 469.33333333333 1486 600 1486 C 728 1486 829.66666666667 1449.66666666667 905 1377 C 979.66666666667 1303.66666666667 1017 1205 1017 1081 C 1017 972.33333333333 989.33333333333 864 934 756 L 1174 592 L 1079 458 L 851 623 C 820.33333333333 579.66666666667 789 539.33333333333 757 502 C 725 464.66666666667 696 429.33333333333 670 396 C 644 362.66666666667 623 331.33333333333 607 302 C 590.33333333333 272 582 243.33333333333 582 216 C 582 188 588.33333333333 167 601 153 C 613.66666666667 139 634.66666666667 132 664 132 C 726.66666666667 132 782.66666666667 169 832 243 L 868 293 L 1015 212 Z"/>
    <path fill="#000000" stroke="none" transform="matrix(1 0 0 -1 27138 2689)" d="M 603 1462 L 603 554 L 1142 554 L 1142 390 L 603 390 L 603 164 L 1142 164 L 1142 0 L 419 0 L 419 1298 L 100 1298 L 100 1462 L 603 1462 Z"/>
    <path fill="#000000" stroke="none" transform="matrix(1 0 0 -1 28380 2689)" d="M 1015 212 C 960.33333333333 123.33333333333 905.66666666667 61 851 25 C 796.33333333333 -11.66666666667 731.66666666667 -30 657 -30 C 599 -30 551.33333333333 -18.33333333333 514 5 C 476.66666666667 27.66666666667 448 57.66666666667 428 95 C 408 131.66666666667 398 171 398 213 C 398 257.66666666667 412.33333333333 304.66666666667 441 354 C 469 403.33333333333 525.33333333333 478 610 578 C 679.33333333333 660 732 741.33333333333 768 822 C 804 902 822 983.33333333333 822 1066 C 822 1140.66666666667 802 1200.66666666667 762 1246 C 721.33333333333 1291.33333333333 666.33333333333 1314 597 1314 C 515 1314 452.33333333333 1294 409 1254 C 365.66666666667 1214 344 1155.33333333333 344 1078 C 344 1036.66666666667 349 997 359 959 L 178 935 C 166 977 160 1022.66666666667 160 1072 C 160 1197.33333333333 200.66666666667 1297.66666666667 282 1373 C 363.33333333333 1448.33333333333 469.33333333333 1486 600 1486 C 728 1486 829.66666666667 1449.66666666667 905 1377 C 979.66666666667 1303.66666666667 1017 1205 1017 1081 C 1017 905.66666666667 944.66666666667 730.33333333333 800 555 C 762 509 727 466.33333333333 695 427 C 662.33333333333 387 635.33333333333 349.66666666667 614 315 C 592.66666666667 280.33333333333 582 247.33333333333 582 216 C 582 188 588.33333333333 167 601 153 C 613.66666666667 139 634.66666666667 132 664 132 C 726.66666666667 132 782.66666666667 169 832 243 L 868 293 L 1015 212 Z"/>
    <path fill="#000000" stroke="none" transform="matrix(1 0 0 -1 29557 2689)" d="M 1362 110 C 1284 20.66666666667 1200.33333333333 -24 1111 -24 C 1055 -24 1005.66666666667 -11 963 15 C 919.66666666667 41 878.33333333333 84.33333333333 839 145 L 626 476 L 323 0 L 120 0 L 517 599 L 138 1172 L 343 1172 L 626 722 L 906 1172 L 1109 1172 L 730 599 L 933 288 C 971 230 1003.66666666667 190.66666666667 1031 170 C 1058.33333333333 148.66666666667 1086.33333333333 138 1115 138 C 1146.33333333333 138 1173.33333333333 147 1196 165 C 1218.66666666667 182.33333333333 1239.66666666667 202 1259 224 L 1362 110 Z"/>
    <path fill="#000000" stroke="none" transform="matrix(1 0 0 -1 30949 2689)" d="M 643 1462 L 643 164 L 1002 164 L 1002 0 L 100 0 L 100 164 L 459 164 L 459 1462 L 643 1462 Z"/>
    <path fill="#000000" stroke="none" transform="matrix(1 0 0 -1 32583 2689)" d="M 1002 1462 L 1002 1298 L 643 1298 L 643 164 L 1002 164 L 1002 0 L 100 0 L 100 164 L 459 164 L 459 1298 L 100 1298 L 100 1462 L 1002 1462 Z"/>
    <path fill="#000000" stroke="none" transform="matrix(1 0 0 -1 33685 2689)" d="M 517 599 L 138 1172 L 343 1172 L 626 722 L 906 1172 L 1109 1172 L 730 599 L 1130 0 L 925 0 L 626 476 L 323 0 L 120 0 L 517 599 Z"/>
    <path fill="#000000" stroke="none" transform="matrix(1 0 0 -1 34935 2689)" d="M 902 0 L 655 0 C 553 0 465 16 391 48 C 316.33333333333 80 259.33333333333 125.33333333333 220 184 C 180 242 160 308.66666666667 160 384 C 160 464 178.33333333333 534.33333333333 215 595 C 251 655.66666666667 301.33333333333 703.33333333333 366 738 C 300.66666666667 772 250 818 214 876 C 178 933.33333333333 160 1000.66666666667 160 1078 C 160 1150.66666666667 181.33333333333 1216.66666666667 224 1276 C 266 1334.66666666667 326 1380.33333333333 404 1413 C 481.33333333333 1445.66666666667 571.66666666667 1462 675 1462 L 902 1462 L 902 1298 L 660 1298 C 567.33333333333 1298 493.33333333333 1278.33333333333 438 1239 C 382.66666666667 1199.66666666667 355 1145.66666666667 355 1077 C 355 986.33333333333 385.66666666667 921 447 881 C 507.66666666667 840.33333333333 603.33333333333 820 734 820 L 864 820 L 864 656 L 734 656 C 607.33333333333 656 512.66666666667 634.33333333333 450 591 C 386.66666666667 547 355 478.33333333333 355 385 C 355 315 381.33333333333 260.66666666667 434 222 C 486 183.33333333333 557.66666666667 164 649 164 L 902 164 L 902 0 Z"/>
    <path fill="#000000" stroke="none" transform="matrix(1 0 0 -1 35967 2689)" d="M 603 1462 L 603 164 L 1142 164 L 1142 0 L 419 0 L 419 1298 L 100 1298 L 100 1462 L 603 1462 Z"/>
    <path fill="#000000" stroke="none" transform="matrix(1 0 0 -1 37209 2689)" d="M 384 390 L 384 164 L 923 164 L 923 0 L 200 0 L 200 1462 L 384 1462 L 384 554 L 923 554 L 923 390 L 384 390 Z"/>
    <path fill="#000000" stroke="none" transform="matrix(1 0 0 -1 38232 2689)" d="M 200 111 C 200 155 211 189 233 213 C 254.33333333333 236.33333333333 285 248 325 248 C 365.66666666667 248 397.33333333333 236.33333333333 420 213 C 442.66666666667 189 454 155 454 111 C 454 67.66666666667 442.66666666667 33.66666666667 420 9 C 397.33333333333 -16.33333333333 365.66666666667 -29 325 -29 C 285.66666666667 -29 255 -16.66666666667 233 8 C 211 32.66666666667 200 67 200 111 Z M 200 1123 C 200 1167 210.66666666667 1201.33333333333 232 1226 C 252.66666666667 1250 283.66666666667 1262 325 1262 C 367 1262 399 1250 421 1226 C 443 1202 454 1167.66666666667 454 1123 C 454 1080.33333333333 442.66666666667 1046.66666666667 420 1022 C 397.33333333333 996.66666666667 365.66666666667 984 325 984 C 285.66666666667 984 255 996.33333333333 233 1021 C 211 1045.66666666667 200 1079.66666666667 200 1123 Z M 660 616 C 660 660 670.66666666667 694.33333333333 692 719 C 712.66666666667 743 743.66666666667 755 785 755 C 827 755 859 743 881 719 C 903 695 914 660.66666666667 914 616 C 914 573.33333333333 902.66666666667 539.66666666667 880 515 C 857.33333333333 489.66666666667 825.66666666667 477 785 477 C 745.66666666667 477 715 489.33333333333 693 514 C 671 538.66666666667 660 572.66666666667 660 616 Z"/>
</svg>
