<svg width="47565" height="3840" viewBox="0 0 47565 3840" xmlns="http://www.w3.org/2000/svg">
    <defs/>
    <path fill="#000000" stroke="none" transform="matrix(1 0 0 -1 0 2689)" d="M 643 1096 L 997 1096 L 997 1106 C 997 1171.33333333333 1022.66666666667 1228 1074 1276 C 1125.33333333333 1324 1190 1348 1268 1348 C 1355.33333333333 1348 1425.66666666667 1322.33333333333 1479 1271 C 1532.33333333333 1219.66666666667 1559 1151.66666666667 1559 1067 C 1559 1029 1553.66666666667 992.66666666667 1543 958 C 1531.66666666667 922.66666666667 1515.66666666667 887 1495 851 C 1474.33333333333 815 1423.66666666667 745 1343 641 C 1295.66666666667 583.66666666667 1258.66666666667 531.66666666667 1232 485 C 1205.33333333333 437.66666666667 1192 386 1192 330 C 1192 283.33333333333 1212 243.66666666667 1252 211 C 1291.33333333333 178.33333333333 1332.66666666667 159.33333333333 1376 154 L 1333 -8 C 1282.33333333333 -1.33333333333 1233.33333333333 17 1186 47 C 1138 77 1099.33333333333 115.66666666667 1070 163 C 1040.66666666667 209.66666666667 1026 265.33333333333 1026 330 C 1026 391.33333333333 1041.66666666667 454.66666666667 1073 520 C 1104.33333333333 585.33333333333 1157 660.33333333333 1231 745 C 1340.33333333333 869.66666666667 1395 977 1395 1067 C 1395 1098.33333333333 1385.33333333333 1127 1366 1153 C 1346.66666666667 1179 1314.66666666667 1192 1270 1192 C 1232.66666666667 1192 1203.66666666667 1179.33333333333 1183 1154 C 1161.66666666667 1128.66666666667 1151 1091.33333333333 1151 1042 C 1151 1013.33333333333 1155.66666666667 983.33333333333 1165 952 L 475 952 C 484.33333333333 983.33333333333 490 1013.33333333333 492 1042 C 492 1090 481 1127 459 1153 C 437 1179 407.66666666667 1192 371 1192 C 325.66666666667 1192 293.66666666667 1179 275 1153 C 255.66666666667 1127 246 1098.33333333333 246 1067 C 246 977 300.66666666667 869.66666666667 410 745 C 484.66666666667 657.66666666667 537.33333333333 581.66666666667 568 517 C 598.66666666667 452.33333333333 614 390 614 330 C 614 265.33333333333 599.33333333333 209.66666666667 570 163 C 540.66666666667 115.66666666667 502.66666666667 77 456 47 C 408.66666666667 17 359 -1.33333333333 307 -8 L 264 154 C 308 159.33333333333 350 178.33333333333 390 211 C 429.33333333333 243.66666666667 449 283.33333333333 449 330 C 449 386 435.66666666667 437.66666666667 409 485 C 382.33333333333 531.66666666667 345 583.66666666667 297 641 C 216.33333333333 743.66666666667 166.33333333333 812.66666666667 147 848 C 127 883.33333333333 111.33333333333 919 100 955 C 88 990.33333333333 82 1027.66666666667 82 1067 C 82 1151.66666666667 108.33333333333 1219.66666666667 161 1271 C 213.66666666667 1322.33333333333 284.33333333333 1348 373 1348 C 453.66666666667 1348 519 1324.33333333333 569 1277 C 618.33333333333 1229.66666666667 643 1169.33333333333 643 1096 Z"/>
    <path fill="#000000" stroke="none" transform="matrix(1 0 0 -1 1642 2689)" d="M 53 1350 L 1425 1350 L 1425 1200 L 252 1200 C 342.66666666667 1048.66666666667 403.33333333333 908 434 778 C 500.66666666667 802.66666666667 563 815 621 815 C 670.33333333333 815 742 804.66666666667 836 784 C 868.66666666667 776.66666666667 901 770 933 764 C 965 757.33333333333 998 754 1032 754 C 1075.33333333333 754 1120.33333333333 761.33333333333 1167 776 C 1213.66666666667 790 1255.33333333333 812.66666666667 1292 844 L 1368 711 C 1318.66666666667 669 1265.66666666667 641 1209 627 C 1151.66666666667 613 1092.66666666667 606 1032 606 C 992.66666666667 606 934.66666666667 615 858 633 C 822.66666666667 640.33333333333 786 647.33333333333 748 654 C 709.33333333333 660.66666666667 667 664 621 664 C 572.33333333333 664 517 652.33333333333 455 629 L 457 613 L 457 596 C 457 460 426.33333333333 324 365 188 C 447 210 519.33333333333 221 582 221 C 658.66666666667 221 746 209.33333333333 844 186 C 948 160 1037.33333333333 147 1112 147 C 1168 147 1216.33333333333 155.66666666667 1257 173 C 1297.66666666667 189.66666666667 1334 218.66666666667 1366 260 L 1487 158 C 1395.66666666667 50 1270.66666666667 -4 1112 -4 C 1042.66666666667 -4 958.66666666667 7.66666666667 860 31 C 750.66666666667 57 659.33333333333 70 586 70 C 513.33333333333 70 446.66666666667 61.33333333333 386 44 C 325.33333333333 26.66666666667 276 3 238 -27 C 188 -4.33333333333 140.66666666667 20.33333333333 96 47 C 219.33333333333 239.66666666667 281 422 281 594 C 281 668.66666666667 270.66666666667 742.66666666667 250 816 C 229.33333333333 889.33333333333 201.66666666667 959.66666666667 167 1027 C 131.66666666667 1094.33333333333 93.66666666667 1152 53 1200 L 53 1350 Z"/>
    <path fill="#000000" stroke="none" transform="matrix(1 0 0 -1 3168 2689)" d="M 1358 1350 C 1582 1350 1694 1221 1694 963 L 1694 0 L 1520 0 L 1520 954 C 1520 1038.66666666667 1506.33333333333 1100 1479 1138 C 1451.66666666667 1175.33333333333 1407.33333333333 1194 1346 1194 C 1320 1194 1293 1185 1265 1167 C 1237 1148.33333333333 1207.66666666667 1123.66666666667 1177 1093 C 1145.66666666667 1062.33333333333 1088 992.33333333333 1004 883 C 1108.66666666667 737 1179.66666666667 624.33333333333 1217 545 C 1253.66666666667 465.66666666667 1272 392.66666666667 1272 326 C 1272 222 1238.66666666667 140.66666666667 1172 82 C 1104.66666666667 23.33333333333 1015.66666666667 -6 905 -6 C 797 -6 708.66666666667 24.33333333333 640 85 C 571.33333333333 145.66666666667 537 226 537 326 C 537 391.33333333333 553.33333333333 461 586 535 C 618.66666666667 608.33333333333 691.66666666667 724.33333333333 805 883 C 706.33333333333 1011 633.66666666667 1095 587 1135 C 539.66666666667 1174.33333333333 498.33333333333 1194 463 1194 C 400.33333333333 1194 355.66666666667 1175.33333333333 329 1138 C 302.33333333333 1100 289 1038.66666666667 289 954 L 289 0 L 113 0 L 113 963 C 113 1221 225.66666666667 1350 451 1350 C 525.66666666667 1350 597 1326.33333333333 665 1279 C 732.33333333333 1231.66666666667 811.66666666667 1144.66666666667 903 1018 C 1003 1148.66666666667 1085.66666666667 1236.66666666667 1151 1282 C 1216.33333333333 1327.33333333333 1285.33333333333 1350 1358 1350 Z M 707 352 C 707 282.66666666667 725.66666666667 231 763 197 C 800.33333333333 162.33333333333 847 145 903 145 C 960.33333333333 145 1008 162.33333333333 1046 197 C 1083.33333333333 231 1102 284 1102 356 C 1102 443.33333333333 1035.66666666667 575.33333333333 903 752 C 841.66666666667 667.33333333333 793.66666666667 593 759 529 C 724.33333333333 464.33333333333 707 405.33333333333 707 352 Z"/>
    <path fill="#000000" stroke="none" transform="matrix(1 0 0 -1 4993 2689)" d="M 1085 557 L 776 557 L 776 0 L 610 0 L 610 557 L 324 557 L 324 0 L 158 0 L 158 1198 L 88 1198 L 88 1350 L 1151 1350 L 1151 1198 L 776 1198 L 776 702 L 1085 702 L 1085 557 Z M 324 702 L 610 702 L 610 1198 L 324 1198 L 324 702 Z"/>
    <path fill="#000000" stroke="none" transform="matrix(1 0 0 -1 6207 2689)" d="M 946 727 C 864 837.66666666667 750.66666666667 893 606 893 C 502 893 422.66666666667 860.33333333333 368 795 C 312.66666666667 729.66666666667 285 636.66666666667 285 516 C 285 399.33333333333 314.66666666667 308 374 242 C 433.33333333333 176 516.33333333333 143 623 143 C 701 143 778.33333333333 159.33333333333 855 192 C 931 224 999 267.33333333333 1059 322 L 1165 207 C 1087.66666666667 137.66666666667 1005.33333333333 84.66666666667 918 48 C 830.66666666667 10.66666666667 732.33333333333 -8 623 -8 C 469 -8 345 38 251 130 C 156.33333333333 221.33333333333 109 350.66666666667 109 518 C 109 863.33333333333 270.66666666667 1036 594 1036 C 720.66666666667 1036 838 999.33333333333 946 926 L 946 1200 L 57 1200 L 57 1350 L 1188 1350 L 1188 1200 L 1114 1200 L 1114 727 L 946 727 Z"/>
    <path fill="#000000" stroke="none" transform="matrix(1 0 0 -1 7503 2689)" d="M 66 1200 L 66 1350 L 1249 1350 L 1249 1200 L 365 1200 L 365 516 C 365 274.66666666667 490.33333333333 154 741 154 C 911.66666666667 154 1034 238 1108 406 L 1249 328 C 1208.33333333333 226.66666666667 1146 146.66666666667 1062 88 C 978 29.33333333333 871.66666666667 0 743 0 C 561.66666666667 0 425.33333333333 48.33333333333 334 145 C 242.66666666667 241 197 379.66666666667 197 561 L 197 1200 L 66 1200 Z"/>
    <path fill="#000000" stroke="none" transform="matrix(1 0 0 -1 9356 2689)" d="M 1550 809 C 1537.33333333333 715.66666666667 1507 644.66666666667 1459 596 C 1410.33333333333 546.66666666667 1348 522 1272 522 C 1093.33333333333 522 1004 616.33333333333 1004 805 L 1004 1200 L 784 1200 L 784 0 L 614 0 L 614 1200 L 375 1200 L 375 0 L 209 0 L 209 1200 L 82 1200 L 82 1350 L 1491 1350 L 1491 1202 L 1163 1202 L 1163 795 C 1163 750.33333333333 1172.33333333333 718 1191 698 C 1209 678 1236.66666666667 668 1274 668 C 1311.33333333333 668 1339.33333333333 683.66666666667 1358 715 C 1376 745.66666666667 1388.33333333333 790.66666666667 1395 850 L 1550 809 Z"/>
    <path fill="#000000" stroke="none" transform="matrix(1 0 0 -1 10968 2689)" d="M 223 1053 C 323 1263 495 1368 739 1368 C 912.33333333333 1368 1045 1320.33333333333 1137 1225 C 1228.33333333333 1129 1274 989.66666666667 1274 807 L 1274 -4 C 1175.33333333333 50.66666666667 1071 78 961 78 C 891 78 805.66666666667 64.33333333333 705 37 C 609 9.66666666667 525.66666666667 -4 455 -4 C 296.33333333333 -4 171.33333333333 50 80 158 L 180 268 C 246 186 339.66666666667 145 461 145 C 525 145 610.33333333333 159.33333333333 717 188 C 821.66666666667 216.66666666667 903 231 961 231 C 1004.33333333333 231 1053.33333333333 224.33333333333 1108 211 L 1108 846 C 1108 962 1076 1052.33333333333 1012 1117 C 947.33333333333 1181.66666666667 855 1214 735 1214 C 649 1214 577.33333333333 1195.66666666667 520 1159 C 462.66666666667 1122.33333333333 412.33333333333 1061 369 975 L 223 1053 Z"/>
    <path fill="#000000" stroke="none" transform="matrix(1 0 0 -1 12365 2689)" d="M 117 1350 L 727 1350 C 880.33333333333 1350 1019.66666666667 1324 1145 1272 C 1243.66666666667 1364 1315.33333333333 1428.66666666667 1360 1466 L 1464 1354 C 1373.33333333333 1279.33333333333 1314 1228 1286 1200 C 1369.33333333333 1146 1429.66666666667 1089.66666666667 1467 1031 C 1503.66666666667 971.66666666667 1522 906.66666666667 1522 836 C 1522 774 1508.66666666667 720 1482 674 C 1454.66666666667 628 1417.33333333333 593 1370 569 C 1322 544.33333333333 1268.66666666667 532 1210 532 C 1112 532 1034.33333333333 560.66666666667 977 618 C 919.66666666667 674.66666666667 891 752.66666666667 891 852 C 891 898.66666666667 904 948.33333333333 930 1001 C 955.33333333333 1053 991.33333333333 1103.66666666667 1038 1153 C 952.66666666667 1184.33333333333 844.33333333333 1200 713 1200 L 362 1200 C 493.33333333333 1076 595.66666666667 947 669 813 C 741.66666666667 679 778 550.66666666667 778 428 C 778 296.66666666667 742.66666666667 191.66666666667 672 113 C 600.66666666667 33.66666666667 507.66666666667 -6 393 -6 C 257.66666666667 -6 145.66666666667 50 57 162 L 182 270 C 212 228.66666666667 245 198 281 178 C 316.33333333333 157.33333333333 351 147 385 147 C 453 147 506.66666666667 173.66666666667 546 227 C 584.66666666667 279.66666666667 604 349.33333333333 604 436 C 604 561.33333333333 559.66666666667 693.66666666667 471 833 C 382.33333333333 971.66666666667 264.33333333333 1094 117 1200 L 117 1350 Z M 1049 852 C 1049 792.66666666667 1063 747 1091 715 C 1119 682.33333333333 1158.66666666667 666 1210 666 C 1256 666 1293.66666666667 681.66666666667 1323 713 C 1351.66666666667 743.66666666667 1366 784.66666666667 1366 836 C 1366 888.66666666667 1349.33333333333 938.66666666667 1316 986 C 1282 1032.66666666667 1235.33333333333 1072 1176 1104 C 1091.33333333333 1014.66666666667 1049 930.66666666667 1049 852 Z"/>
    <path fill="#000000" stroke="none" transform="matrix(1 0 0 -1 13971 2689)" d="M 664 0 L 664 106 C 596.66666666667 31.33333333333 513.33333333333 -6 414 -6 C 323.33333333333 -6 247 25.66666666667 185 89 C 123 152.33333333333 92 229 92 319 C 92 395 109 459.33333333333 143 512 C 177 564.66666666667 231 607.66666666667 305 641 L 383 500 C 299.66666666667 452.66666666667 258 393.33333333333 258 322 C 258 270.66666666667 274.66666666667 228.66666666667 308 196 C 341.33333333333 163.33333333333 385.33333333333 147 440 147 C 489.33333333333 147 534.66666666667 164.66666666667 576 200 C 616.66666666667 235.33333333333 646 281.33333333333 664 338 L 664 1198 L 84 1198 L 84 1350 L 1145 1350 L 1145 1198 L 829 1198 L 829 0 L 664 0 Z"/>
    <path fill="#000000" stroke="none" transform="matrix(1 0 0 -1 15179 2689)" d="M 66 1350 L 1473 1350 L 1473 1200 L 289 1200 C 286.33333333333 1173.33333333333 285 1138 285 1094 C 286.33333333333 930.66666666667 333.66666666667 805.66666666667 427 719 C 520.33333333333 631.66666666667 651.66666666667 588 821 588 C 911.66666666667 588 985.33333333333 599 1042 621 C 1009.33333333333 657 984 694.33333333333 966 733 C 947.33333333333 771.66666666667 938 806.66666666667 938 838 C 938 916.66666666667 963.33333333333 979 1014 1025 C 1064 1071 1127.33333333333 1094 1204 1094 C 1280.66666666667 1094 1343.66666666667 1069.66666666667 1393 1021 C 1441.66666666667 972.33333333333 1466 910.66666666667 1466 836 C 1466 778.66666666667 1450.66666666667 728 1420 684 C 1389.33333333333 640 1340.66666666667 596.33333333333 1274 553 C 1338 480.33333333333 1381.33333333333 422 1404 378 C 1426.66666666667 333.33333333333 1438 277.66666666667 1438 211 C 1438 145.66666666667 1410 75.33333333333 1354 0 L 1176 0 C 1170 131.33333333333 1124.66666666667 197 1040 197 C 992 197 956 182 932 152 C 908 122 895 71.33333333333 893 0 L 725 0 C 721.66666666667 64.66666666667 705.33333333333 114.66666666667 676 150 C 646 185.33333333333 605 203 553 203 C 496.33333333333 203 451.33333333333 186 418 152 C 384.66666666667 118 367 67.33333333333 365 0 L 197 0 C 200.33333333333 67.33333333333 216.66666666667 128.66666666667 246 184 C 274.66666666667 238.66666666667 314 279.66666666667 364 307 C 413.33333333333 334.33333333333 471.66666666667 348 539 348 C 606.33333333333 348 663.66666666667 333.66666666667 711 305 C 757.66666666667 275.66666666667 790.33333333333 233.33333333333 809 178 C 822.33333333333 228.66666666667 849.66666666667 268.66666666667 891 298 C 932.33333333333 327.33333333333 982 342 1040 342 C 1098 342 1147.66666666667 325.33333333333 1189 292 C 1229.66666666667 258.66666666667 1258 213.33333333333 1274 156 C 1284.66666666667 182.66666666667 1290 209.33333333333 1290 236 C 1290 298.66666666667 1236.66666666667 382.33333333333 1130 487 C 1037.33333333333 455.66666666667 935 440 823 440 C 607.66666666667 440 436.66666666667 497.33333333333 310 612 C 182.66666666667 726.66666666667 118.33333333333 884.33333333333 117 1085 C 117 1128.33333333333 119 1166.66666666667 123 1200 L 66 1200 L 66 1350 Z M 1098 840 C 1098 782 1124 726 1176 672 C 1260.66666666667 715.33333333333 1303 770 1303 836 C 1303 909.33333333333 1270 946 1204 946 C 1173.33333333333 946 1148 936.66666666667 1128 918 C 1108 898.66666666667 1098 872.66666666667 1098 840 Z"/>
    <path fill="#000000" stroke="none" transform="matrix(1 0 0 -1 16744 2689)" d="M 295 1200 C 473.66666666667 991.33333333333 563 779 563 563 C 563 463 544.66666666667 374.33333333333 508 297 C 471.33333333333 219 416.33333333333 154 343 102 C 269 50 184.66666666667 16 90 0 L 45 164 C 158.33333333333 188 245 235.33333333333 305 306 C 365 376.66666666667 395 466.33333333333 395 575 C 395 671.66666666667 367 776.66666666667 311 890 C 255 1003.33333333333 176.66666666667 1108 76 1204 L 76 1350 L 1642 1350 L 1642 1204 C 1532 1096 1449.33333333333 986.33333333333 1394 875 C 1338.66666666667 763.66666666667 1311 657 1311 555 C 1311 457.66666666667 1341.66666666667 373.33333333333 1403 302 C 1463.66666666667 230 1550.33333333333 179.33333333333 1663 150 L 1616 0 C 1533.33333333333 20 1449 59 1363 117 C 1276.33333333333 175 1190 251.66666666667 1104 347 C 1018 442.33333333333 915 577.33333333333 795 752 L 932 848 C 1015.33333333333 716 1089 610.66666666667 1153 532 L 1151 555 L 1151 575 C 1151 786.33333333333 1244.66666666667 994.66666666667 1432 1200 L 295 1200 Z"/>
    <path fill="#000000" stroke="none" transform="matrix(1 0 0 -1 18986 2689)" d="M 1171 0 L 156 0 L 156 1198 L 86 1198 L 86 1350 L 1249 1350 L 1249 1198 L 1171 1198 L 1171 0 Z M 748 143 L 1001 143 L 1001 1198 L 748 1198 L 748 143 Z M 328 143 L 582 143 L 582 1198 L 328 1198 L 328 143 Z"/>
    <path fill="#000000" stroke="none" transform="matrix(1 0 0 -1 20325 2689)" d="M 55 1350 L 1368 1350 L 1368 1200 L 55 1200 L 55 1350 Z M 893 614 C 901 608 917.33333333333 601.66666666667 942 595 C 966 587.66666666667 985 584 999 584 C 1051.66666666667 584 1092.33333333333 599 1121 629 C 1149 659 1163 701.33333333333 1163 756 C 1163 809.33333333333 1149.33333333333 851.66666666667 1122 883 C 1094.66666666667 914.33333333333 1056.66666666667 930 1008 930 C 954.66666666667 930 908.33333333333 914.33333333333 869 883 C 829.66666666667 851 793.66666666667 800.66666666667 761 732 C 727.66666666667 662.66666666667 699.33333333333 579.66666666667 676 483 C 648.66666666667 373 613 283.66666666667 569 215 C 525 145.66666666667 471.66666666667 92.33333333333 409 55 C 346.33333333333 17.66666666667 268 -1 174 -1 C 146.66666666667 -1 118.66666666667 0.66666666667 90 4 L 106 150 L 151 149 C 233.66666666667 149 297.33333333333 163.33333333333 342 192 C 386.66666666667 220.66666666667 424.66666666667 264.33333333333 456 323 C 486.66666666667 381 515 461.66666666667 541 565 C 583.66666666667 731 644.33333333333 857.33333333333 723 944 C 801 1030 895.33333333333 1073 1006 1073 C 1064.66666666667 1073 1118 1060.66666666667 1166 1036 C 1214 1011.33333333333 1252 976 1280 930 C 1307.33333333333 883.33333333333 1321 826.66666666667 1321 760 C 1321 692.66666666667 1308 635.33333333333 1282 588 C 1255.33333333333 540.66666666667 1218.66666666667 504.66666666667 1172 480 C 1124.66666666667 454.66666666667 1072 442 1014 442 C 980 442 945.33333333333 447 910 457 C 874 467 846.33333333333 478.66666666667 827 492 L 893 614 Z"/>
    <path fill="#000000" stroke="none" transform="matrix(1 0 0 -1 21742 2689)" d="M 852 225 C 764.66666666667 71 637 -6 469 -6 C 358.33333333333 -6 270 23 204 81 C 137.33333333333 139 104 216.33333333333 104 313 C 104 373 123.33333333333 429.33333333333 162 482 C 200 534.66666666667 287.33333333333 611 424 711 C 524.66666666667 784.33333333333 585 830.66666666667 605 850 C 625 869.33333333333 640.33333333333 888.33333333333 651 907 C 661 925 666 946.33333333333 666 971 C 666 1024.33333333333 649.66666666667 1065 617 1093 C 583.66666666667 1121 539.66666666667 1135 485 1135 C 385.66666666667 1135 312.66666666667 1086.33333333333 266 989 L 127 1059 C 201 1202.33333333333 320.33333333333 1274 485 1274 C 586.33333333333 1274 667.33333333333 1246 728 1190 C 788.66666666667 1134 819 1058.33333333333 819 963 C 819 860.33333333333 751.33333333333 763.33333333333 616 672 C 472.66666666667 572 378 497.33333333333 332 448 C 285.33333333333 398 262 350.33333333333 262 305 C 262 245 282.33333333333 201.33333333333 323 174 C 363 146.66666666667 411 133 467 133 C 573.66666666667 133 660.33333333333 192.33333333333 727 311 L 852 225 Z M 393 1657 C 393 1680.33333333333 401.33333333333 1700.33333333333 418 1717 C 434 1733 453.66666666667 1741 477 1741 C 500.33333333333 1741 520.33333333333 1733 537 1717 C 553 1700.33333333333 561 1680.33333333333 561 1657 C 561 1633.66666666667 553 1614 537 1598 C 520.33333333333 1581.33333333333 500.33333333333 1573 477 1573 C 453.66666666667 1573 434 1581.33333333333 418 1598 C 401.33333333333 1614 393 1633.66666666667 393 1657 Z M 279 1593 C 319.66666666667 1504.33333333333 386.33333333333 1460 479 1460 C 576.33333333333 1460 643.33333333333 1503 680 1589 L 801 1548 C 779 1485.33333333333 740 1436.66666666667 684 1402 C 628 1367.33333333333 559.66666666667 1350 479 1350 C 315 1350 208 1416 158 1548 L 279 1593 Z"/>
    <path fill="#000000" stroke="none" transform="matrix(1 0 0 -1 22668 2689)" d="M 70 1350 L 1421 1350 L 1421 1200 L 264 1200 C 415.33333333333 1018.66666666667 503.33333333333 854.33333333333 528 707 C 563.33333333333 781 608.33333333333 836.33333333333 663 873 C 717.66666666667 909.66666666667 786.66666666667 928 870 928 C 934 928 992.33333333333 915.66666666667 1045 891 C 1097.66666666667 865.66666666667 1138.33333333333 830.33333333333 1167 785 C 1195.66666666667 739.66666666667 1210 687 1210 627 C 1210 596.33333333333 1203.66666666667 554 1191 500 C 1177.66666666667 445.33333333333 1171 404.33333333333 1171 377 C 1171 334.33333333333 1191 313 1231 313 C 1257 313 1282.33333333333 324.66666666667 1307 348 L 1409 240 C 1358.33333333333 189.33333333333 1296.33333333333 164 1223 164 C 1158.33333333333 164 1106.33333333333 183.33333333333 1067 222 C 1027.66666666667 260 1008 311.66666666667 1008 377 C 1008 398.33333333333 1017.66666666667 467 1037 583 L 1042 627 C 1042 673 1026 710.33333333333 994 739 C 961.33333333333 767.66666666667 918 782 864 782 C 785.33333333333 782 721 753.33333333333 671 696 C 621 638.66666666667 579 544 545 412 C 518.33333333333 302 468.33333333333 212 395 142 C 321 72 224.66666666667 24.66666666667 106 0 L 59 147 C 168.33333333333 174.33333333333 251.66666666667 223.33333333333 309 294 C 366.33333333333 364 395 453 395 561 C 395 661.66666666667 364.66666666667 771.33333333333 304 890 C 243.33333333333 1008 165.33333333333 1111.33333333333 70 1200 L 70 1350 Z"/>
    <path fill="#000000" stroke="none" transform="matrix(1 0 0 -1 24159 2689)" d="M 1059 154 C 1326.33333333333 166 1460 308 1460 580 C 1460 828 1381.66666666667 952 1225 952 C 1151 952 1095.33333333333 937.33333333333 1058 908 C 1020 878.66666666667 991 831.66666666667 971 767 C 950.33333333333 702.33333333333 940 618.66666666667 940 516 L 772 516 C 770.66666666667 621.33333333333 760.66666666667 705.33333333333 742 768 C 722.66666666667 830.66666666667 695.66666666667 876.66666666667 661 906 C 625.66666666667 935.33333333333 573.33333333333 950 504 950 C 333.33333333333 950 248 826 248 578 C 248 431.33333333333 282.33333333333 324.66666666667 351 258 C 419 191.33333333333 518.33333333333 156.66666666667 649 154 L 649 -2 C 465 0.66666666667 322.66666666667 52.66666666667 222 154 C 120.66666666667 254.66666666667 70 396 70 578 C 70 740 106.66666666667 867 180 959 C 252.66666666667 1050.33333333333 356.66666666667 1098 492 1102 C 514.66666666667 1180 558.66666666667 1242 624 1288 C 688.66666666667 1333.33333333333 764.66666666667 1356 852 1356 C 942 1356 1020 1334 1086 1290 C 1151.33333333333 1245.33333333333 1196.33333333333 1182.66666666667 1221 1102 C 1492.33333333333 1102 1628 928 1628 580 C 1628 396.66666666667 1579.33333333333 255.33333333333 1482 156 C 1384 56 1243 3.33333333333 1059 -2 L 1059 154 Z M 856 817 C 890 947 961.66666666667 1033.66666666667 1071 1077 C 1057.66666666667 1119.66666666667 1032.33333333333 1154.66666666667 995 1182 C 957 1209.33333333333 910 1223 854 1223 C 802 1223 757.33333333333 1210.66666666667 720 1186 C 682.66666666667 1161.33333333333 657 1125.66666666667 643 1079 C 753.66666666667 1041 824.66666666667 953.66666666667 856 817 Z"/>
    <path fill="#000000" stroke="none" transform="matrix(1 0 0 -1 25885 2689)" d="M 76 1350 L 1468 1350 L 1468 1200 L 287 1200 C 359 1107.33333333333 430.33333333333 1040 501 998 C 571 956 658 920.33333333333 762 891 L 895 852 C 1051 806.66666666667 1168.66666666667 762 1248 718 C 1327.33333333333 673.33333333333 1385.66666666667 622.66666666667 1423 566 C 1460.33333333333 509.33333333333 1479 445.66666666667 1479 375 C 1479 255 1446 161 1380 93 C 1314 24.33333333333 1225.33333333333 -10 1114 -10 C 1067.33333333333 -10 1020.33333333333 -2 973 14 C 925.66666666667 29.33333333333 885.33333333333 50.66666666667 852 78 L 946 205 C 1001.33333333333 163.66666666667 1057.33333333333 143 1114 143 C 1175.33333333333 143 1223.66666666667 164.66666666667 1259 208 C 1293.66666666667 250.66666666667 1311 307.66666666667 1311 379 C 1311 428.33333333333 1297.66666666667 470.33333333333 1271 505 C 1243.66666666667 539.66666666667 1204 570.33333333333 1152 597 C 1100 623 1011.66666666667 653.33333333333 887 688 C 827 705.33333333333 765.66666666667 724.33333333333 703 745 C 640.33333333333 765.66666666667 578.66666666667 792.33333333333 518 825 C 570 721 596 620.66666666667 596 524 C 596 386 551 270.33333333333 461 177 C 370.33333333333 83 247.33333333333 24 92 0 L 45 160 C 169.66666666667 177.33333333333 265 218.33333333333 331 283 C 397 347.66666666667 430 433 430 539 C 430 638.33333333333 398 749.66666666667 334 873 C 270 996.33333333333 185.33333333333 1105.33333333333 80 1200 L 76 1200 L 76 1350 Z"/>
    <path fill="#000000" stroke="none" transform="matrix(1 0 0 -1 27967 2689)" d="M 1362 920 C 1360.66666666667 1025.33333333333 1348.66666666667 1105 1326 1159 C 1302.66666666667 1212.33333333333 1262.66666666667 1239 1206 1239 C 1145.33333333333 1239 1102.66666666667 1219.33333333333 1078 1180 C 1052.66666666667 1140 1040 1069 1040 967 L 1040 0 L 76 0 L 76 856 C 76 1019.33333333333 117 1147 199 1239 C 281 1330.33333333333 399.66666666667 1376 555 1376 C 645 1376 719.66666666667 1361 779 1331 C 837.66666666667 1301 888 1253.33333333333 930 1188 C 948 1254.66666666667 981.33333333333 1306 1030 1342 C 1078 1377.33333333333 1138.66666666667 1395 1212 1395 C 1312 1395 1389 1357 1443 1281 C 1496.33333333333 1204.33333333333 1524.66666666667 1091.33333333333 1528 942 L 1362 920 Z M 872 901 C 872 1001.66666666667 844.33333333333 1080.33333333333 789 1137 C 733.66666666667 1193 656.33333333333 1221 557 1221 C 458.33333333333 1221 382 1192 328 1134 C 273.33333333333 1075.33333333333 246 991.66666666667 246 883 L 246 723 L 872 723 L 872 901 Z M 246 145 L 872 145 L 872 578 L 246 578 L 246 145 Z"/>
    <path fill="#000000" stroke="none" transform="matrix(1 0 0 -1 29577 2689)" d="M 70 1350 L 1372 1350 L 1372 1200 C 1308.66666666667 1168.66666666667 1223.33333333333 1117.66666666667 1116 1047 C 1008 975.66666666667 911.66666666667 903 827 829 C 913.66666666667 748.33333333333 975.66666666667 684.66666666667 1013 638 C 1050.33333333333 590.66666666667 1079 544.66666666667 1099 500 C 1118.33333333333 454.66666666667 1128 408 1128 360 C 1128 286 1112.33333333333 221 1081 165 C 1049.66666666667 109 1002 64.66666666667 938 32 C 874 -1.33333333333 802.33333333333 -18 723 -18 C 645 -18 575.33333333333 -3 514 27 C 452 56.33333333333 403.33333333333 99.33333333333 368 156 C 332.66666666667 212 315 280 315 360 C 315 425.33333333333 336 493 378 563 C 420 632.33333333333 498.66666666667 721.66666666667 614 831 C 566 873.66666666667 509 919 443 967 C 376.33333333333 1015 304.66666666667 1062.66666666667 228 1110 C 150.66666666667 1156.66666666667 98 1186.66666666667 70 1200 L 70 1350 Z M 494 367 C 494 295 515.33333333333 237 558 193 C 600.66666666667 149 655.66666666667 127 723 127 C 789 127 843.33333333333 149.33333333333 886 194 C 928.66666666667 238.66666666667 950 296.33333333333 950 367 C 950 420.33333333333 930.33333333333 477.33333333333 891 538 C 851.66666666667 598 795.66666666667 657 723 715 C 570.33333333333 606.33333333333 494 490.33333333333 494 367 Z M 336 1200 C 478.66666666667 1114.66666666667 607.66666666667 1024 723 928 C 827 1020 954.66666666667 1110.66666666667 1106 1200 L 336 1200 Z"/>
    <path fill="#000000" stroke="none" transform="matrix(1 0 0 -1 31025 2689)" d="M 96 1350 L 2320 1350 L 2320 1200 C 2270 1172.66666666667 2194 1122.66666666667 2092 1050 C 1990 976.66666666667 1898.33333333333 903 1817 829 C 1934.33333333333 720.33333333333 2014 632.33333333333 2056 565 C 2097.33333333333 497 2118 428.66666666667 2118 360 C 2118 244 2080.66666666667 152 2006 84 C 1931.33333333333 16 1833.33333333333 -18 1712 -18 C 1588 -18 1489.33333333333 16.33333333333 1416 85 C 1342 153.66666666667 1305 245.33333333333 1305 360 C 1305 423.33333333333 1324.33333333333 488.33333333333 1363 555 C 1401.66666666667 621.66666666667 1482 713.66666666667 1604 831 C 1467.33333333333 951.66666666667 1336 1055 1210 1141 C 1079.33333333333 1052.33333333333 947 948.33333333333 813 829 C 930.33333333333 720.33333333333 1010 632.33333333333 1052 565 C 1093.33333333333 497 1114 428.66666666667 1114 360 C 1114 244 1077 152 1003 84 C 928.33333333333 16 830.33333333333 -18 709 -18 C 584.33333333333 -18 485.33333333333 16.33333333333 412 85 C 338 153.66666666667 301 245.33333333333 301 360 C 301 423.33333333333 320.66666666667 488.33333333333 360 555 C 398.66666666667 621.66666666667 478.66666666667 713.66666666667 600 831 C 520.66666666667 901 431.66666666667 972 333 1044 C 233.66666666667 1115.33333333333 154.66666666667 1167.33333333333 96 1200 L 96 1350 Z M 1483 367 C 1483 294.33333333333 1504.33333333333 236.33333333333 1547 193 C 1589 149 1644 127 1712 127 C 1778.66666666667 127 1833.33333333333 149.66666666667 1876 195 C 1918 239.66666666667 1939 297 1939 367 C 1939 477 1863.33333333333 593 1712 715 C 1559.33333333333 604.33333333333 1483 488.33333333333 1483 367 Z M 479 367 C 479 294.33333333333 500.33333333333 236.33333333333 543 193 C 585 149 640.33333333333 127 709 127 C 775.66666666667 127 830.33333333333 149.66666666667 873 195 C 915 239.66666666667 936 297 936 367 C 936 477 860.33333333333 593 709 715 C 555.66666666667 604.33333333333 479 488.33333333333 479 367 Z M 1364 1200 C 1473.33333333333 1118 1589.33333333333 1027.33333333333 1712 928 C 1814.66666666667 1018 1935 1108.66666666667 2073 1200 L 1364 1200 Z M 360 1200 C 469.33333333333 1118 585.66666666667 1027.33333333333 709 928 C 811 1018 931 1108.66666666667 1069 1200 L 360 1200 Z"/>
    <path fill="#000000" stroke="none" transform="matrix(1 0 0 -1 33433 2689)" d="M 793 0 L 793 80 C 793 296.66666666667 744.66666666667 461 648 573 C 550.66666666667 685 407 741 217 741 L 145 741 L 145 891 L 217 891 C 371 891 491.66666666667 868.66666666667 579 824 C 666.33333333333 778.66666666667 734.66666666667 710 784 618 L 793 618 L 793 1200 L 78 1200 L 78 1350 L 1026 1350 L 1026 1200 L 956 1200 L 956 0 L 793 0 Z"/>
    <path fill="#000000" stroke="none" transform="matrix(1 0 0 -1 34539 2689)" d="M 1171 0 L 156 0 L 156 1198 L 86 1198 L 86 1350 L 1661 1350 L 1661 1198 L 1591 1198 L 1591 735 L 1425 735 L 1425 1198 L 1171 1198 L 1171 0 Z M 324 143 L 584 143 L 584 1198 L 324 1198 L 324 143 Z M 754 143 L 1006 143 L 1006 1198 L 754 1198 L 754 143 Z"/>
    <path fill="#000000" stroke="none" transform="matrix(1 0 0 -1 36290 2689)" d="M 1288 1202 C 1124.66666666667 1118 1006.66666666667 1054.33333333333 934 1011 C 861.33333333333 967 795.33333333333 922.66666666667 736 878 C 676 833.33333333333 624.66666666667 787.66666666667 582 741 C 539.33333333333 694.33333333333 505.66666666667 646 481 596 C 456.33333333333 546 444 493.33333333333 444 438 C 444 342 469.66666666667 268.33333333333 521 217 C 572.33333333333 165 648.66666666667 139 750 139 C 856.66666666667 139 960.33333333333 187.66666666667 1061 285 C 1070.33333333333 274.33333333333 1089 255 1117 227 C 1145 199 1165.33333333333 179.33333333333 1178 168 C 1125.33333333333 119.33333333333 1078.66666666667 83.33333333333 1038 60 C 996.66666666667 36.66666666667 951.33333333333 18 902 4 C 852 -10.66666666667 797 -18 737 -18 C 645.66666666667 -18 562.66666666667 0.66666666667 488 38 C 412.66666666667 74.66666666667 357 125.66666666667 321 191 C 284.33333333333 256.33333333333 266 333.33333333333 266 422 C 266 560 321.33333333333 692 432 818 C 542.66666666667 943.33333333333 719.66666666667 1070.66666666667 963 1200 L 68 1200 L 68 1350 L 1288 1350 L 1288 1202 Z"/>
    <path fill="#000000" stroke="none" transform="matrix(1 0 0 -1 38186 2689)" d="M 1303 201 C 1137 57.66666666667 957.33333333333 -14 764 -14 C 644.66666666667 -14 537.33333333333 13.66666666667 442 69 C 346 123.66666666667 271.66666666667 201.66666666667 219 303 C 165.66666666667 404.33333333333 139 523 139 659 C 139 823.66666666667 169.66666666667 1004 231 1200 L 94 1200 L 94 1350 L 1403 1350 L 1403 1200 L 1300 1200 L 1073 762 L 922 842 L 1116 1200 L 428 1200 C 357.33333333333 1017.33333333333 322 837 322 659 C 322 554.33333333333 340.33333333333 464 377 388 C 413.66666666667 312 466 253.66666666667 534 213 C 601.33333333333 172.33333333333 679.33333333333 152 768 152 C 920 152 1064.66666666667 210 1202 326 L 1303 201 Z"/>
    <path fill="#000000" stroke="none" transform="matrix(1 0 0 -1 39663 2689)" d="M 182 0 L 182 891 L 602 891 L 602 1198 L 80 1198 L 80 1350 L 1309 1350 L 1309 1198 L 768 1198 L 768 891 L 1186 891 L 1186 0 L 182 0 Z M 1016 143 L 1016 739 L 768 739 L 768 143 L 1016 143 Z M 602 143 L 602 739 L 354 739 L 354 143 L 602 143 Z"/>
    <path fill="#000000" stroke="none" transform="matrix(1 0 0 -1 41060 2689)" d="M 252 868 C 456.66666666667 868 617 855.66666666667 733 831 C 771.66666666667 882.33333333333 824 945.66666666667 890 1021 C 956 1096.33333333333 1062 1210 1208 1362 L 1321 1257 C 1125.66666666667 1061.66666666667 985 906.33333333333 899 791 C 1028.33333333333 748.33333333333 1125.33333333333 690.66666666667 1190 618 C 1254 544.66666666667 1286 458 1286 358 C 1286 286.66666666667 1270 223.66666666667 1238 169 C 1205.33333333333 113.66666666667 1161.33333333333 70.66666666667 1106 40 C 1050 9.33333333333 991.33333333333 -6 930 -6 C 853.33333333333 -6 786 9 728 39 C 670 68.33333333333 624.66666666667 110.66666666667 592 166 C 559.33333333333 221.33333333333 543 289.66666666667 543 371 C 543 473 577.66666666667 581.33333333333 647 696 C 549 710 437 717 311 717 C 262.33333333333 717 210.66666666667 715 156 711 L 45 836 L 365 1366 L 512 1284 L 252 868 Z M 713 373 C 713 301 731.33333333333 246.33333333333 768 209 C 804.66666666667 171 856 152 922 152 C 980 152 1027.66666666667 170.33333333333 1065 207 C 1101.66666666667 243 1120 292 1120 354 C 1120 496.66666666667 1016.33333333333 597.66666666667 809 657 C 745 557 713 462.33333333333 713 373 Z"/>
    <path fill="#000000" stroke="none" transform="matrix(1 0 0 -1 42467 2689)" d="M 995 365 C 1005.66666666667 301.66666666667 1023.66666666667 255.66666666667 1049 227 C 1074.33333333333 198.33333333333 1109.66666666667 184 1155 184 C 1200.33333333333 184 1237 200.33333333333 1265 233 C 1293 265 1307 307.33333333333 1307 360 C 1307 452 1275 521 1211 567 C 1147 612.33333333333 1042.33333333333 635 897 635 C 812.33333333333 635 710.66666666667 621.33333333333 592 594 L 596 524 C 596 386 551 270.33333333333 461 177 C 370.33333333333 83 247.33333333333 24 92 0 L 45 160 C 169.66666666667 177.33333333333 265 218.33333333333 331 283 C 397 347.66666666667 430 433 430 539 C 430 642.33333333333 398 754.66666666667 334 876 C 269.33333333333 997.33333333333 183.33333333333 1105.33333333333 76 1200 L 76 1350 L 1470 1350 L 1470 1200 L 287 1200 C 417.66666666667 1052 508.33333333333 898.33333333333 559 739 C 687.66666666667 767.66666666667 798.33333333333 782 891 782 C 1091 782 1238 747.66666666667 1332 679 C 1426 610.33333333333 1473 506.33333333333 1473 367 C 1473 297.66666666667 1459 238.66666666667 1431 190 C 1402.33333333333 140.66666666667 1364 102.66666666667 1316 76 C 1267.33333333333 48.66666666667 1213.66666666667 35 1155 35 C 1061 35 986.66666666667 60 932 110 C 877.33333333333 160 843.66666666667 231.33333333333 831 324 L 995 365 Z"/>
    <path fill="#000000" stroke="none" transform="matrix(1 0 0 -1 44005 2689)" d="M 1118 0 L 1118 1200 L 903 1200 L 903 0 L 735 0 L 735 1200 L 309 1200 C 395.66666666667 1095.33333333333 462.66666666667 987.66666666667 510 877 C 556.66666666667 766.33333333333 580 659.66666666667 580 557 C 580 464.33333333333 561.33333333333 378.33333333333 524 299 C 486 219 432.33333333333 153.33333333333 363 102 C 293 50 210.33333333333 16 115 0 L 68 150 C 177.33333333333 173.33333333333 262 222.33333333333 322 297 C 382 371.66666666667 412 467.33333333333 412 584 C 412 686 383.33333333333 792.66666666667 326 904 C 268 1014.66666666667 192 1113.33333333333 98 1200 L 98 1350 L 1923 1350 L 1923 1200 C 1821.66666666667 1109.33333333333 1744.33333333333 1010.33333333333 1691 903 C 1637 795 1610 688.66666666667 1610 584 C 1610 469.33333333333 1640 374.33333333333 1700 299 C 1760 223 1844.66666666667 173.33333333333 1954 150 L 1909 0 C 1813.66666666667 16 1731 49.66666666667 1661 101 C 1590.33333333333 152.33333333333 1536.33333333333 217.66666666667 1499 297 C 1461 375.66666666667 1442 462.33333333333 1442 557 C 1442 660.33333333333 1466 768.33333333333 1514 881 C 1561.33333333333 993 1626.66666666667 1099.33333333333 1710 1200 L 1286 1200 L 1286 0 L 1118 0 Z"/>
    <path fill="#000000" stroke="none" transform="matrix(1 0 0 -1 46000 2689)" d="M 1356 907 C 1306 839 1267 764 1239 682 C 1210.33333333333 600 1196 520.66666666667 1196 444 C 1196 353.33333333333 1217 284 1259 236 C 1301 188 1361.33333333333 164 1440 164 L 1495 168 L 1516 14 C 1500.66666666667 11.33333333333 1475.33333333333 10 1440 10 C 1358.66666666667 10 1287 27 1225 61 C 1163 95 1114.66666666667 144 1080 208 C 1045.33333333333 272 1028 348.66666666667 1028 438 C 1028 591.33333333333 1079.33333333333 752 1182 920 C 996.66666666667 882 836.66666666667 835.33333333333 702 780 C 756 707.33333333333 796.33333333333 639 823 575 C 849 511 862 447 862 383 C 862 300.33333333333 845.66666666667 230 813 172 C 779.66666666667 114 734.33333333333 70 677 40 C 619 9.33333333333 552.33333333333 -6 477 -6 C 414.33333333333 -6 355.33333333333 9.33333333333 300 40 C 244 70.66666666667 200 113.66666666667 168 169 C 135.33333333333 223.66666666667 119 286.66666666667 119 358 C 119 544.66666666667 231.66666666667 702.33333333333 457 831 C 365 930.33333333333 294 1004 244 1052 C 193.33333333333 1100 137.33333333333 1149.33333333333 76 1200 L 76 1350 L 1468 1350 L 1468 1200 L 305 1200 C 432.33333333333 1078.66666666667 530.66666666667 979 600 901 C 746.66666666667 962.33333333333 942.66666666667 1019 1188 1071 L 1356 907 Z M 696 385 C 696 479.66666666667 649 587.66666666667 555 709 C 376.33333333333 606.33333333333 287 488 287 354 C 287 290.66666666667 305.66666666667 241.33333333333 343 206 C 380.33333333333 170 427.66666666667 152 485 152 C 552.33333333333 152 604.33333333333 172.66666666667 641 214 C 677.66666666667 254.66666666667 696 311.66666666667 696 385 Z"/>
</svg>
