<svg width="12391" height="2000" viewBox="0 0 12391 2000" xmlns="http://www.w3.org/2000/svg">
    <defs/>
    <g transform="matrix(1 0 0 -1 0 2000)">
        <g transform="matrix(1 0 0 1 0 702)">
            <path fill="#000000" stroke="none" d="M 65 616 L 251 616 Q 292 616 328 600.5 Q 364 585 391 558 Q 418 531 433.5 494.5 Q 449 458 449 417 Q 449 376 433.5 340 Q 418 304 391 277 Q 364 250 328 234.5 Q 292 219 251 219 L 432 0 L 409 0 L 218 234 L 251 234 Q 289 234 321.5 248 Q 354 262 379 286.5 Q 404 311 418 344.50003 Q 432 378 432 417 Q 432 457 418 490.5 Q 404 524 379 548.5 Q 354 573 321.5 587 Q 289 601 251 601 L 81 601 L 81 0 L 65 0 L 65 616 Z"/>
        </g>
        <g transform="matrix(1 0 0 1 464 702)">
            <path fill="#000000" stroke="none" d="M 65 616 L 81 616 L 81 0 L 65 0 L 65 616 Z"/>
        </g>
        <g transform="matrix(1 0 0 1 610 702)">
            <path fill="#000000" stroke="none" d="M 65 616 L 244 616 Q 309 616 366.5 592.5 Q 424 569 467 527.5 Q 510 486 535 429.5 Q 560 373 560 308 Q 560 242 535 186 Q 510 130 467 88.5 Q 424 47 366.5 23.500002 Q 309 0 244 0 L 65 0 L 65 616 Z M 244 15 Q 306 15 360.50003 37.5 Q 415 60 455.49997 99.5 Q 496 139 519.5 192.5 Q 543 246 543 308 Q 543 370 519.5 423.49997 Q 496 477 455.49997 516.5 Q 415 556 360.50003 578.5 Q 306 601 244 601 L 81 601 L 81 15 L 244 15 Z"/>
        </g>
        <g transform="matrix(1 0 0 1 1204 702)">
            <path fill="#000000" stroke="none" d="M 61 92 Q 91 47 127.5 27 Q 164 7 208 7 Q 241 7 268.5 16.5 Q 296 26 315.5 43 Q 335 60 346 84 Q 357 108 357 136 Q 357 163 349.5 186.5 Q 342 210 324.5 231 Q 307 252 278 269.5 Q 249 287 206 300 Q 64 344 64 467 Q 64 503 77.5 532.5 Q 91 562 113 582 Q 135 602 163 613 Q 191 624 221 624 Q 269 624 309.5 602.5 Q 350 581 373 529 L 358 521 Q 341 560 309 584.5 Q 277 609 220 609 Q 195 609 170 600 Q 145 591 125.49999 573.5 Q 106 556 93.49999 530.5 Q 81 505 81 473 Q 81 412 111.5 375 Q 142 338 215 314 Q 305 285 339.5 240.5 Q 374 196 374 137 Q 374 104 361.50003 77.5 Q 349 51 326.5 32 Q 304 13 273.5 2.5 Q 243 -8 207 -8 Q 159 -8 118.50001 14 Q 78 36 49 84 L 61 92 Z"/>
        </g>
        <g transform="matrix(1 0 0 1 1629 702)">
            <path fill="#000000" stroke="none" d="M 65 616 L 87 616 L 495 19 L 495 616 L 511 616 L 511 0 L 489 0 L 81 594 L 81 0 L 65 0 L 65 616 Z"/>
        </g>
        <g transform="matrix(1 0 0 1 2205 702)">
            <path fill="#000000" stroke="none" d="M 611 113 Q 596 93 572.5 71.5 Q 549 50 517.5 32.5 Q 486 15 446.5 3.5 Q 407 -8 360 -8 Q 294 -8 236.50002 17 Q 179 42 136.5 84.5 Q 94 127 69 184.5 Q 44 242 44 308 Q 44 373 69 430.5 Q 94 488 136.5 531 Q 179 574 236.50002 599 Q 294 624 360 624 Q 410 624 449.5 613 Q 489 602 520 584 Q 551 566 574.5 544 Q 598 522 615 499 L 603 488 Q 585 513 561.5 535 Q 538 557 508 573.5 Q 478 590 441 599.5 Q 404 609 360 609 Q 298 609 243.49998 585 Q 189 561 148.5 520 Q 108 479 84.5 424.50003 Q 61 370 61 308 Q 61 246 84.5 191.5 Q 108 137 148.5 96 Q 189 55 243.49998 31 Q 298 7 360 7 Q 400 7 436 16.5 Q 472 26 503 42 Q 534 58 558.5 79 Q 583 100 600 123 L 611 113 Z"/>
        </g>
        <g transform="matrix(1 0 0 1 3053 702)">
            <path fill="#000000" stroke="none" d="M 340 -8 Q 276 -6 220.50002 19.5 Q 165 45 123.5 87.5 Q 82 130 58 187 Q 34 244 34 308 Q 34 373 59 430.5 Q 84 488 126.50001 531 Q 169 574 226.5 599 Q 284 624 350 624 Q 415 624 472.50003 599 Q 530 574 573 531 Q 616 488 641 430.5 Q 666 373 666 308 Q 666 243 641.5 186 Q 617 129 575 86.50001 Q 533 44 476.5 18.5 Q 420 -7 356 -8 L 356 -18 Q 356 -48 366 -71 Q 376 -94 392.50003 -110 Q 409 -126 430 -134.5 Q 451 -143 474 -143 Q 515 -143 542 -122 L 550 -134 Q 516 -158 472 -158 Q 444 -158 419.5 -147.5 Q 395 -137 377.50003 -118 Q 360 -99 350 -74.5 Q 340 -50 340 -21 L 340 -8 Z M 350 7 Q 412 7 466.5 31 Q 521 55 561.5 96 Q 602 137 625.5 191.5 Q 649 246 649 308 Q 649 370 625.5 424.50003 Q 602 479 561.5 520 Q 521 561 466.5 585 Q 412 609 350 609 Q 288 609 233.5 585 Q 179 561 138.5 520 Q 98 479 74.5 424.50003 Q 51 370 51 308 Q 51 246 74.5 191.5 Q 98 137 138.5 96 Q 179 55 233.5 31 Q 288 7 350 7 Z"/>
        </g>
        <g transform="matrix(1 0 0 1 3753 702)">
            <path fill="#000000" stroke="none" d="M 52 616 L 68 616 L 68 248 Q 68 186 85 140.5 Q 102 95 133 65.5 Q 164 36 206 21.500002 Q 248 7 298 7 Q 348 7 390 21.500002 Q 432 36 462.5 65.5 Q 493 95 510.5 140.5 Q 528 186 528 248 L 528 616 L 544 616 L 544 248 Q 544 181 524.5 132.5 Q 505 84 471.49997 52.5 Q 438 21 393.50003 6.5 Q 349 -8 298 -8 Q 247 -8 202 6.5 Q 157 21 124 52.5 Q 91 84 71.5 132.5 Q 52 181 52 248 L 52 616 Z"/>
        </g>
        <g transform="matrix(1 0 0 1 4320 702)">
            <path fill="#000000" stroke="none" d="M 281 616 L 295 616 L 549 0 L 530 0 L 441 219 L 135 219 L 46 0 L 28 0 L 281 616 Z M 288 596 L 142 234 L 435 234 L 288 596 Z"/>
        </g>
        <g transform="matrix(1 0 0 1 4897 702)">
            <path fill="#000000" stroke="none" d="M 65 616 L 85 616 L 356 231 L 626 616 L 646 616 L 646 0 L 630 0 L 630 594 L 362 214 L 349 214 L 81 594 L 81 0 L 65 0 L 65 616 Z"/>
        </g>
        <g transform="matrix(1 0 0 1 5608 702)">
            <path fill="#000000" stroke="none" d="M 22 96 Q 39 54 68 30.499998 Q 97 7 142 7 Q 165 7 186.5 16 Q 208 25 224.5 40.5 Q 241 56 251 78 Q 261 100 261 126 L 261 616 L 277 616 L 277 129 Q 277 101 266.5 76 Q 256 51 237 32 Q 218 13 193.5 2.5 Q 169 -8 140 -8 Q 95 -8 59 18 Q 23 44 9 89 L 22 96 Z"/>
        </g>
        <g transform="matrix(1 0 0 1 5944 702)">
            <path fill="#000000" stroke="none" d="M 22 616 L 41 616 L 283 20 L 525 616 L 543 616 L 290 0 L 276 0 L 22 616 Z"/>
        </g>
        <g transform="matrix(1 0 0 1 6686 702)">
            <path fill="#000000" stroke="none" d="M 31 14 L 196 220 L 37 220 L 37 234 L 215 234 L 215 220 L 50 14 L 216 14 L 216 0 L 31 0 L 31 14 Z"/>
        </g>
        <g transform="matrix(1 0 0 1 6938 702)">
            <path fill="#000000" stroke="none" d="M 65 238 L 81 238 L 81 0 L 65 0 L 65 238 Z M 59 318 Q 59 332 73 332 Q 87 332 87 318 Q 87 304 73 304 Q 59 304 59 318 Z"/>
        </g>
        <g transform="matrix(1 0 0 1 7084 702)">
            <path fill="#000000" stroke="none" d="M 26 -168 Q 50 -151 67 -131.5 Q 84 -112 94.50001 -86.50001 Q 105 -61 109.49999 -29 Q 114 3 114 44 L 114 220 L 34 220 L 34 234 L 114 234 L 114 528 Q 114 591 128.5 640.5 Q 143 690 168.5 723.5 Q 194 757 230.5 774.5 Q 267 792 310 792 Q 330 792 351.5 788 Q 373 784 385 779 L 381 765 Q 366 771 346 774.5 Q 326 778 310 778 Q 274 778 241 764 Q 208 750 183.5 720 Q 159 690 144.5 643 Q 130 596 130 531 L 130 234 L 210 234 L 210 220 L 130 220 L 130 48 Q 130 0 123.5 -36.5 Q 117 -73 104.5 -100 Q 92 -127 74.5 -146.5 Q 57 -166 34 -180 L 26 -168 Z"/>
        </g>
        <g transform="matrix(1 0 0 1 7318 702)">
            <path fill="#000000" stroke="none" d="M 30 238 L 48 238 L 131 20 L 211 234 L 232 234 L 313 20 L 395 238 L 412 238 L 320 0 L 306 0 L 221 218 L 137 0 L 123 0 L 30 238 Z"/>
        </g>
        <g transform="matrix(1 0 0 1 7757 702)">
            <path fill="#000000" stroke="none" d="M 65 788 L 81 788 L 81 0 L 65 0 L 65 788 Z"/>
        </g>
        <g transform="matrix(1 0 0 1 7903 702)">
            <path fill="#000000" stroke="none" d="M 31 14 L 196 220 L 37 220 L 37 234 L 215 234 L 215 220 L 50 14 L 216 14 L 216 0 L 31 0 L 31 14 Z"/>
        </g>
        <g transform="matrix(1 0 0 1 8332 702)">
            <path fill="#000000" stroke="none" d="M 57 -3 Q 62 14 63.5 38 Q 65 62 65 91 L 65 238 L 81 238 L 81 118 Q 81 92 79.5 74.5 Q 78 57 76 42 Q 91 95 109.49999 134 Q 128 173 145 196 Q 180 244 221 244 Q 253 244 272 221.5 Q 291 199 291 169 L 291 118 Q 291 92 289.5 74.5 Q 288 57 286 42 Q 301 95 319.5 134 Q 338 173 355 196 Q 390 244 431 244 Q 463 244 482 221.5 Q 501 199 501 169 L 501 0 L 485 0 L 485 161 Q 485 190 470.49997 209 Q 456 228 427 228 Q 389 228 353.5 171 Q 318 114 282 -7 L 267 -3 Q 272 14 273.5 38 Q 275 62 275 91 L 275 161 Q 275 190 260.5 209 Q 246 228 217 228 Q 179 228 143.5 171 Q 108 114 72 -7 L 57 -3 Z"/>
        </g>
        <g transform="matrix(1 0 0 1 8891 702)">
            <path fill="#000000" stroke="none" d="M 265 23 Q 265 37 265.5 49.5 Q 266 62 268 69 Q 251 27 221 9.5 Q 191 -8 154 -8 Q 105 -8 70 24.499998 Q 35 57 35 114 Q 35 146 45.5 170 Q 56 194 73 210.5 Q 90 227 113 235.49998 Q 136 244 161 244 Q 199 244 227 223.5 Q 255 203 268 169 Q 266 177 265.5 189 Q 265 201 265 215 L 265 238 L 281 238 L 281 0 L 265 0 L 265 23 Z M 160 5 Q 181 5 200.5 13.5 Q 220 22 234 36 Q 248 50 256.5 68.5 Q 265 87 265 107 L 265 129 Q 265 150 257 168.5 Q 249 187 234.5 201 Q 220 215 201 223 Q 182 231 160 231 Q 113 231 82.5 200 Q 52 169 52 117 Q 52 67 83 36 Q 114 5 160 5 Z"/>
        </g>
        <g transform="matrix(1 0 0 1 9237 702)">
            <path fill="#000000" stroke="none" d="M 106 220 L 26 220 L 26 234 L 106 234 L 106 358 L 122 358 L 122 234 L 202 234 L 202 220 L 122 220 L 122 0 L 106 0 L 106 220 Z"/>
        </g>
        <g transform="matrix(1 0 0 1 9465 702)">
            <path fill="#000000" stroke="none" d="M 65 788 L 81 788 L 81 103 L 227 238 L 250 238 L 121 122 L 254 0 L 230 0 L 109 112 L 81 86 L 81 0 L 65 0 L 65 788 Z"/>
        </g>
        <g transform="matrix(1 0 0 1 9749 702)">
            <path fill="#000000" stroke="none" d="M 57 -3 Q 62 14 63.5 38 Q 65 62 65 91 L 65 238 L 81 238 L 81 118 Q 81 92 79.5 74.5 Q 78 57 76 42 Q 91 95 109.49999 134 Q 128 173 145 196 Q 180 244 221 244 Q 253 244 272 221.5 Q 291 199 291 169 L 291 0 L 275 0 L 275 161 Q 275 190 260.5 209 Q 246 228 217 228 Q 179 228 143.5 171 Q 108 114 72 -7 L 57 -3 Z"/>
        </g>
        <g transform="matrix(1 0 0 1 10098 702)">
            <path fill="#000000" stroke="none" d="M 57 -3 Q 62 14 63.5 38 Q 65 62 65 91 L 65 788 L 81 788 L 81 118 Q 81 92 79.5 74.5 Q 78 57 76 42 Q 91 95 109.49999 134 Q 128 173 145 196 Q 180 244 221 244 Q 253 244 272 221.5 Q 291 199 291 169 L 291 0 L 275 0 L 275 161 Q 275 190 260.5 209 Q 246 228 217 228 Q 179 228 143.5 171 Q 108 114 72 -7 L 57 -3 Z"/>
        </g>
        <g transform="matrix(1 0 0 1 10624 702)">
            <path fill="#000000" stroke="none" d="M 65 788 L 81 788 L 81 213 Q 81 199 80.5 186.5 Q 80 174 78 167 Q 95 209 125 226.5 Q 155 244 192 244 Q 241 244 276 211.49998 Q 311 179 311 122 Q 311 90 300.5 65.5 Q 290 41 273 24.499998 Q 256 8 233 0 Q 210 -8 185 -8 Q 147 -8 119 12 Q 91 32 78 67 Q 80 59 80.5 47 Q 81 35 81 21 L 81 0 L 65 0 L 65 788 Z M 81 107 Q 81 86 89.49999 67.5 Q 98 49 112 35 Q 126 21 145 13 Q 164 5 186 5 Q 233 5 263.5 35.5 Q 294 66 294 119 Q 294 169 263 200 Q 232 231 186 231 Q 165 231 145.5 222.5 Q 126 214 112 199.5 Q 98 185 89.49999 167 Q 81 149 81 129 L 81 107 Z"/>
        </g>
        <g transform="matrix(1 0 0 1 10970 702)">
            <path fill="#000000" stroke="none" d="M 158 -8 Q 133 -8 110.50001 0 Q 88 8 71.5 24 Q 55 40 45 63.5 Q 35 87 35 118 Q 35 149 45 172.50002 Q 55 196 71.5 212 Q 88 228 110.50001 236 Q 133 244 158 244 Q 183 244 205.5 236 Q 228 228 244.50002 212 Q 261 196 271 172.50002 Q 281 149 281 118 Q 281 87 271 63.5 Q 261 40 244.50002 24 Q 228 8 205.5 0 Q 183 -8 158 -8 Z M 52 118 Q 52 67 81 36 Q 110 5 158 5 Q 206 5 235 36 Q 264 67 264 118 Q 264 169 235 200 Q 206 231 158 231 Q 110 231 81 200 Q 52 169 52 118 Z"/>
        </g>
        <g transform="matrix(1 0 0 1 11284 702)">
            <path fill="#000000" stroke="none" d="M 65 238 L 81 238 L 81 213 Q 81 199 80.5 186.5 Q 80 174 78 167 Q 95 209 125 226.5 Q 155 244 192 244 Q 241 244 276 211.49998 Q 311 179 311 122 Q 311 90 300.5 65.5 Q 290 41 273 24.499998 Q 256 8 233 0 Q 210 -8 185 -8 Q 147 -8 119 12 Q 91 32 78 67 Q 80 59 80.5 47 Q 81 35 81 21 L 81 -168 L 65 -168 L 65 238 Z M 81 107 Q 81 86 89.49999 67.5 Q 98 49 112 35 Q 126 21 145 13 Q 164 5 186 5 Q 233 5 263.5 35.5 Q 294 66 294 119 Q 294 169 263 200 Q 232 231 186 231 Q 165 231 145.5 222.5 Q 126 214 112 199.5 Q 98 185 89.49999 167 Q 81 149 81 129 L 81 107 Z"/>
        </g>
        <g transform="matrix(1 0 0 1 11630 702)">
            <path fill="#000000" stroke="none" d="M 26 -168 Q 50 -151 67 -131.5 Q 84 -112 94.50001 -86.50001 Q 105 -61 109.49999 -29 Q 114 3 114 44 L 114 220 L 34 220 L 34 234 L 114 234 L 114 528 Q 114 591 128.5 640.5 Q 143 690 168.5 723.5 Q 194 757 230.5 774.5 Q 267 792 310 792 Q 330 792 351.5 788 Q 373 784 385 779 L 381 765 Q 366 771 346 774.5 Q 326 778 310 778 Q 274 778 241 764 Q 208 750 183.5 720 Q 159 690 144.5 643 Q 130 596 130 531 L 130 234 L 210 234 L 210 220 L 130 220 L 130 48 Q 130 0 123.5 -36.5 Q 117 -73 104.5 -100 Q 92 -127 74.5 -146.5 Q 57 -166 34 -180 L 26 -168 Z"/>
        </g>
        <g transform="matrix(1 0 0 1 11864 702)">
            <path fill="#000000" stroke="none" d="M 109 120 L 26 238 L 46 238 L 119 131 L 198 238 L 216 238 L 128 120 L 215 0 L 195 0 L 118 109 L 40 0 L 22 0 L 109 120 Z"/>
        </g>
        <g transform="matrix(1 0 0 1 12102 702)">
            <path fill="#000000" stroke="none" d="M 251 34 Q 233 13 211.49998 2.5 Q 190 -8 155 -8 Q 104 -8 69.5 24.499998 Q 35 57 35 114 Q 35 146 45 170.5 Q 55 195 72.5 211.49998 Q 90 228 112.5 236 Q 135 244 160 244 Q 197 244 218 233 Q 239 222 253 203 L 243 193 Q 226 212 207.5 221.5 Q 189 231 159 231 Q 138 231 118.50001 223 Q 99 215 84 201 Q 69 187 60.5 166.5 Q 52 146 52 120 Q 52 66 83 35.5 Q 114 5 160 5 Q 186 5 204.50002 14 Q 223 23 242 43 L 251 34 Z"/>
        </g>
    </g>
</svg>
