<svg width="25637" height="3048" viewBox="0 0 25637 3048" xmlns="http://www.w3.org/2000/svg">
    <defs/>
    <path fill="#000000" stroke="none" transform="matrix(1 0 0 -1 0 1940)" d="M 894 998 L 726 988 L 716 1214 L 362 1206 L 366 750 L 664 750 L 664 606 L 368 588 L 372 184 L 514 176 L 514 -2 L 80 -12 L 74 184 L 192 184 L 190 1206 L 66 1202 L 76 1396 L 884 1406 L 894 998 Z"/>
    <path fill="#000000" stroke="none" transform="matrix(1 0 0 -1 910 1940)" d="M 903 1038 L 755 1028 L 735 1234 L 371 1226 L 367 780 L 671 780 L 671 636 L 365 618 L 361 172 L 735 186 L 735 406 L 883 406 L 893 8 L 79 -12 L 73 172 L 191 172 L 189 1226 L 65 1222 L 75 1416 L 893 1426 L 903 1038 Z"/>
    <path fill="#000000" stroke="none" transform="matrix(1 0 0 -1 1863 1940)" d="M 876 380 C 876 326 869.33333333333 275.33333333333 856 228 C 842 180 821 138.33333333333 793 103 C 765 67.66666666667 729.66666666667 39.66666666667 687 19 C 643.66666666667 -1.66666666667 592.66666666667 -12 534 -12 C 499.33333333333 -12 468 -8.66666666667 440 -2 C 411.33333333333 4 385.66666666667 14 363 28 C 339.66666666667 41.33333333333 318.33333333333 58.66666666667 299 80 C 279 101.33333333333 260 126.66666666667 242 156 L 240 2 L 64 26 L 96 484 L 244 478 C 250 442.66666666667 259.33333333333 406 272 368 C 284.66666666667 329.33333333333 301.66666666667 294 323 262 C 343.66666666667 230 369.66666666667 203.66666666667 401 183 C 432.33333333333 162.33333333333 469.33333333333 152 512 152 C 546.66666666667 152 576 157.66666666667 600 169 C 623.33333333333 180.33333333333 642.33333333333 196 657 216 C 671.66666666667 236 682.33333333333 259.66666666667 689 287 C 695 314.33333333333 698 344 698 376 C 698 412 692.33333333333 444.33333333333 681 473 C 669 501 652.66666666667 526 632 548 C 611.33333333333 569.33333333333 587.33333333333 588 560 604 C 532 620 502 633.33333333333 470 644 C 415.33333333333 663.33333333333 364 684.33333333333 316 707 C 267.33333333333 729 225 756 189 788 C 153 820 124.66666666667 858.66666666667 104 904 C 82.66666666667 949.33333333333 72 1005.33333333333 72 1072 C 72 1127.33333333333 80.33333333333 1178.33333333333 97 1225 C 113.66666666667 1271.66666666667 137.66666666667 1312 169 1346 C 200.33333333333 1379.33333333333 238.33333333333 1405.33333333333 283 1424 C 327.66666666667 1442.66666666667 378 1452 434 1452 C 469.33333333333 1452 500 1448.66666666667 526 1442 C 551.33333333333 1435.33333333333 574 1425 594 1411 C 614 1397 632.33333333333 1379.66666666667 649 1359 C 665.66666666667 1337.66666666667 682.66666666667 1312.66666666667 700 1284 L 702 1448 L 876 1444 L 854 934 L 698 940 C 691.33333333333 977.33333333333 682.66666666667 1015.66666666667 672 1055 C 661.33333333333 1094.33333333333 646.66666666667 1130.66666666667 628 1164 C 608.66666666667 1196.66666666667 584 1223.66666666667 554 1245 C 523.33333333333 1265.66666666667 485.33333333333 1276 440 1276 C 409.33333333333 1276 383 1270.33333333333 361 1259 C 338.33333333333 1247 319.66666666667 1231.33333333333 305 1212 C 290.33333333333 1192 279.66666666667 1169.33333333333 273 1144 C 265.66666666667 1118 262 1091.33333333333 262 1064 C 262 1025.33333333333 268.33333333333 992.33333333333 281 965 C 293.66666666667 937.66666666667 311 914.33333333333 333 895 C 354.33333333333 875 379.33333333333 858 408 844 C 436.66666666667 830 467.33333333333 817.33333333333 500 806 C 550 788 597.66666666667 767 643 743 C 688.33333333333 718.33333333333 728.33333333333 689 763 655 C 797.66666666667 621 825.33333333333 581.66666666667 846 537 C 866 491.66666666667 876 439.33333333333 876 380 Z"/>
    <path fill="#000000" stroke="none" transform="matrix(1 0 0 -1 2815 1940)" d="M 886 1002 L 732 982 L 722 1252 L 556 1246 L 546 194 L 686 198 L 676 18 L 264 8 L 258 194 L 376 194 L 374 1236 L 194 1224 L 204 972 L 38 972 L 48 1406 L 866 1436 L 886 1002 Z"/>
    <path fill="#000000" stroke="none" transform="matrix(1 0 0 -1 3735 1940)" d="M 501 198 L 491 18 L 79 8 L 73 194 L 191 194 L 189 1216 L 65 1212 L 75 1406 L 471 1406 L 487 1226 L 371 1216 L 361 194 L 501 198 Z"/>
    <path fill="#000000" stroke="none" transform="matrix(1 0 0 -1 4290 1940)" d="M 970 1256 L 846 1246 L 588 -18 L 362 -6 L 114 1226 L -10 1222 L 0 1416 L 406 1416 L 422 1236 L 306 1226 L 476 204 L 664 1246 L 540 1242 L 550 1436 L 956 1446 L 970 1256 Z"/>
    <path fill="#000000" stroke="none" transform="matrix(1 0 0 -1 5246 1940)" d="M 903 1038 L 755 1028 L 735 1234 L 371 1226 L 367 780 L 671 780 L 671 636 L 365 618 L 361 172 L 735 186 L 735 406 L 883 406 L 893 8 L 79 -12 L 73 172 L 191 172 L 189 1226 L 65 1222 L 75 1416 L 893 1426 L 903 1038 Z"/>
    <path fill="#000000" stroke="none" transform="matrix(1 0 0 -1 6559 1940)" d="M 1118 1232 L 1014 1236 L 994 172 L 1110 172 L 1116 -12 L 672 -2 L 672 178 L 814 172 L 820 550 L 364 550 L 364 194 L 482 194 L 486 8 L 52 18 L 52 198 L 194 194 L 184 1206 L 48 1216 L 52 1396 L 470 1396 L 470 1202 L 364 1206 L 364 706 L 818 722 L 822 1236 L 688 1246 L 692 1426 L 1118 1426 L 1118 1232 Z"/>
    <path fill="#000000" stroke="none" transform="matrix(1 0 0 -1 7753 1940)" d="M 349 1258 C 349 1240.66666666667 345.66666666667 1224.33333333333 339 1209 C 332.33333333333 1193.66666666667 323.33333333333 1180.33333333333 312 1169 C 300.66666666667 1157.66666666667 287.33333333333 1148.66666666667 272 1142 C 256.66666666667 1135.33333333333 240.33333333333 1132 223 1132 C 205.66666666667 1132 189.33333333333 1135.33333333333 174 1142 C 158.66666666667 1148.66666666667 145.33333333333 1157.66666666667 134 1169 C 122.66666666667 1180.33333333333 113.66666666667 1193.66666666667 107 1209 C 100.33333333333 1224.33333333333 97 1240.66666666667 97 1258 C 97 1275.33333333333 100.33333333333 1291.66666666667 107 1307 C 113.66666666667 1322.33333333333 122.66666666667 1335.66666666667 134 1347 C 145.33333333333 1358.33333333333 158.66666666667 1367.33333333333 174 1374 C 189.33333333333 1380.66666666667 205.66666666667 1384 223 1384 C 240.33333333333 1384 256.66666666667 1380.66666666667 272 1374 C 287.33333333333 1367.33333333333 300.66666666667 1358.33333333333 312 1347 C 323.33333333333 1335.66666666667 332.33333333333 1322.33333333333 339 1307 C 345.66666666667 1291.66666666667 349 1275.33333333333 349 1258 Z M 433 140 L 427 -26 L 61 -10 L 61 164 L 145 170 L 145 844 L 23 844 L 27 1018 L 349 1018 L 325 150 L 433 140 Z"/>
    <path fill="#000000" stroke="none" transform="matrix(1 0 0 -1 8210 1940)" d="M 771 510 C 771 477.33333333333 769.66666666667 441.66666666667 767 403 C 763.66666666667 364.33333333333 758.33333333333 325.66666666667 751 287 C 743 248.33333333333 732 211 718 175 C 703.33333333333 138.33333333333 685 106 663 78 C 640.33333333333 50 613.33333333333 27.66666666667 582 11 C 550 -5.66666666667 512.33333333333 -14 469 -14 C 435.66666666667 -14 405.33333333333 -4.33333333333 378 15 C 350 34.33333333333 328.33333333333 58 313 86 L 313 -252 L 403 -254 L 403 -412 L 21 -412 L 27 -242 L 131 -246 L 143 862 L 11 858 L 11 1022 L 279 1032 L 293 916 C 304.33333333333 932 317.66666666667 947 333 961 C 348.33333333333 975 365 987.33333333333 383 998 C 401 1008.66666666667 420 1017 440 1023 C 459.33333333333 1029 479 1032 499 1032 C 536.33333333333 1032 569 1023 597 1005 C 625 986.33333333333 649 962.33333333333 669 933 C 689 903 705.66666666667 869.33333333333 719 832 C 732.33333333333 794 743 755.66666666667 751 717 C 758.33333333333 678.33333333333 763.66666666667 641 767 605 C 769.66666666667 569 771 537.33333333333 771 510 Z M 595 496 C 595 511.33333333333 594.66666666667 530.66666666667 594 554 C 593.33333333333 577.33333333333 591.66666666667 602.33333333333 589 629 C 585.66666666667 655 581 681.33333333333 575 708 C 569 734.66666666667 560.66666666667 758.66666666667 550 780 C 539.33333333333 801.33333333333 526 818.66666666667 510 832 C 493.33333333333 845.33333333333 473.66666666667 852 451 852 C 430.33333333333 852 412.33333333333 848.33333333333 397 841 C 381 833.66666666667 367.66666666667 823.66666666667 357 811 C 346.33333333333 797.66666666667 338.33333333333 782.33333333333 333 765 C 327 747.66666666667 323.66666666667 729.33333333333 323 710 C 321.66666666667 647.33333333333 320.33333333333 585 319 523 C 317.66666666667 460.33333333333 317 397.33333333333 317 334 C 317 318.66666666667 320 301 326 281 C 331.33333333333 260.33333333333 339.33333333333 241 350 223 C 360.66666666667 205 373.66666666667 189.66666666667 389 177 C 403.66666666667 164.33333333333 420.33333333333 158 439 158 C 464.33333333333 158 485.66666666667 164 503 176 C 520.33333333333 188 534.66666666667 203.66666666667 546 223 C 557.33333333333 242.33333333333 566.33333333333 264.33333333333 573 289 C 579.66666666667 313 584.66666666667 337.66666666667 588 363 C 591.33333333333 388.33333333333 593.33333333333 412.66666666667 594 436 C 594.66666666667 459.33333333333 595 479.33333333333 595 496 Z"/>
    <path fill="#000000" stroke="none" transform="matrix(1 0 0 -1 9033 1940)" d="M 771 510 C 771 477.33333333333 769.66666666667 441.66666666667 767 403 C 763.66666666667 364.33333333333 758.33333333333 325.66666666667 751 287 C 743 248.33333333333 732 211 718 175 C 703.33333333333 138.33333333333 685 106 663 78 C 640.33333333333 50 613.33333333333 27.66666666667 582 11 C 550 -5.66666666667 512.33333333333 -14 469 -14 C 435.66666666667 -14 405.33333333333 -4.33333333333 378 15 C 350 34.33333333333 328.33333333333 58 313 86 L 313 -252 L 403 -254 L 403 -412 L 21 -412 L 27 -242 L 131 -246 L 143 862 L 11 858 L 11 1022 L 279 1032 L 293 916 C 304.33333333333 932 317.66666666667 947 333 961 C 348.33333333333 975 365 987.33333333333 383 998 C 401 1008.66666666667 420 1017 440 1023 C 459.33333333333 1029 479 1032 499 1032 C 536.33333333333 1032 569 1023 597 1005 C 625 986.33333333333 649 962.33333333333 669 933 C 689 903 705.66666666667 869.33333333333 719 832 C 732.33333333333 794 743 755.66666666667 751 717 C 758.33333333333 678.33333333333 763.66666666667 641 767 605 C 769.66666666667 569 771 537.33333333333 771 510 Z M 595 496 C 595 511.33333333333 594.66666666667 530.66666666667 594 554 C 593.33333333333 577.33333333333 591.66666666667 602.33333333333 589 629 C 585.66666666667 655 581 681.33333333333 575 708 C 569 734.66666666667 560.66666666667 758.66666666667 550 780 C 539.33333333333 801.33333333333 526 818.66666666667 510 832 C 493.33333333333 845.33333333333 473.66666666667 852 451 852 C 430.33333333333 852 412.33333333333 848.33333333333 397 841 C 381 833.66666666667 367.66666666667 823.66666666667 357 811 C 346.33333333333 797.66666666667 338.33333333333 782.33333333333 333 765 C 327 747.66666666667 323.66666666667 729.33333333333 323 710 C 321.66666666667 647.33333333333 320.33333333333 585 319 523 C 317.66666666667 460.33333333333 317 397.33333333333 317 334 C 317 318.66666666667 320 301 326 281 C 331.33333333333 260.33333333333 339.33333333333 241 350 223 C 360.66666666667 205 373.66666666667 189.66666666667 389 177 C 403.66666666667 164.33333333333 420.33333333333 158 439 158 C 464.33333333333 158 485.66666666667 164 503 176 C 520.33333333333 188 534.66666666667 203.66666666667 546 223 C 557.33333333333 242.33333333333 566.33333333333 264.33333333333 573 289 C 579.66666666667 313 584.66666666667 337.66666666667 588 363 C 591.33333333333 388.33333333333 593.33333333333 412.66666666667 594 436 C 594.66666666667 459.33333333333 595 479.33333333333 595 496 Z"/>
    <path fill="#000000" stroke="none" transform="matrix(1 0 0 -1 9856 1940)" d="M 787 848 L 691 842 L 453 -238 L 535 -242 L 535 -408 L 191 -412 L 185 -256 L 281 -246 L 337 -6 L 85 872 L -7 872 L 3 1042 L 339 1038 L 343 876 L 255 868 L 413 264 L 529 858 L 451 868 L 441 1028 L 787 1032 L 787 848 Z"/>
    <path fill="#000000" stroke="none" transform="matrix(1 0 0 -1 11006 1940)" d="M 688 544 C 688 511.33333333333 686 474.66666666667 682 434 C 678 392.66666666667 671 351.33333333333 661 310 C 651 268 638 227.33333333333 622 188 C 605.33333333333 148 584.66666666667 112.66666666667 560 82 C 535.33333333333 51.33333333333 506.66666666667 26.66666666667 474 8 C 440.66666666667 -10.66666666667 402 -20 358 -20 C 316.66666666667 -20 280.33333333333 -12 249 4 C 217.66666666667 19.33333333333 190.66666666667 40 168 66 C 145.33333333333 91.33333333333 126.33333333333 121 111 155 C 95.66666666667 189 83.66666666667 224.33333333333 75 261 C 65.66666666667 297.66666666667 59.33333333333 334.66666666667 56 372 C 52 409.33333333333 50 444 50 476 C 50 510 52 547.66666666667 56 589 C 60 629.66666666667 67 671.33333333333 77 714 C 86.33333333333 756 99.33333333333 797 116 837 C 132 877 152.33333333333 912.66666666667 177 944 C 201 974.66666666667 230 999.33333333333 264 1018 C 297.33333333333 1036.66666666667 336 1046 380 1046 C 420.66666666667 1046 456.66666666667 1038 488 1022 C 518.66666666667 1006 545.66666666667 984.66666666667 569 958 C 591.66666666667 931.33333333333 610.66666666667 900.66666666667 626 866 C 640.66666666667 831.33333333333 652.66666666667 795.66666666667 662 759 C 671.33333333333 721.66666666667 678 684.33333333333 682 647 C 686 609.66666666667 688 575.33333333333 688 544 Z M 530 550 C 530 564.66666666667 529.33333333333 583 528 605 C 526.66666666667 626.33333333333 524.33333333333 649.33333333333 521 674 C 517 698.66666666667 511.66666666667 723.33333333333 505 748 C 498.33333333333 772.66666666667 489.66666666667 795 479 815 C 468.33333333333 835 455.33333333333 851.33333333333 440 864 C 424 876 405.33333333333 882 384 882 C 358.66666666667 882 336.66666666667 874.33333333333 318 859 C 299.33333333333 843 283.66666666667 822.66666666667 271 798 C 257.66666666667 773.33333333333 247 746 239 716 C 231 685.33333333333 225 655 221 625 C 216.33333333333 594.33333333333 213.33333333333 565.66666666667 212 539 C 210.66666666667 512.33333333333 210 490.66666666667 210 474 C 210 460 210.66666666667 442.33333333333 212 421 C 213.33333333333 399 216 375.66666666667 220 351 C 224 326.33333333333 229.66666666667 302 237 278 C 243.66666666667 253.33333333333 252.33333333333 231 263 211 C 273.66666666667 191 286.66666666667 175 302 163 C 317.33333333333 150.33333333333 335.33333333333 144 356 144 C 381.33333333333 144 403.33333333333 151.66666666667 422 167 C 440 182.33333333333 455.66666666667 202.33333333333 469 227 C 481.66666666667 251 492 278 500 308 C 508 338 514.33333333333 368.33333333333 519 399 C 523 429 526 457.33333333333 528 484 C 529.33333333333 510.66666666667 530 532.66666666667 530 550 Z"/>
    <path fill="#000000" stroke="none" transform="matrix(1 0 0 -1 11743 1940)" d="M 569 800 C 543.66666666667 794.66666666667 519 785.66666666667 495 773 C 471 760.33333333333 449.66666666667 745 431 727 C 412.33333333333 708.33333333333 397.33333333333 687.33333333333 386 664 C 374.66666666667 640 369 614 369 586 C 369 519.33333333333 368.66666666667 453.33333333333 368 388 C 367.33333333333 322.66666666667 366.33333333333 256.66666666667 365 190 L 511 184 L 511 4 L 23 -6 L 37 184 L 169 190 L 183 834 L 77 830 L 71 1014 L 339 1040 L 339 902 C 353 913.33333333333 369.33333333333 925.66666666667 388 939 C 406.66666666667 952.33333333333 426.33333333333 965 447 977 C 467.66666666667 989 488.66666666667 1000 510 1010 C 530.66666666667 1019.33333333333 550.33333333333 1026 569 1030 L 569 800 Z"/>
    <path fill="#000000" stroke="none" transform="matrix(1 0 0 -1 12342 1940)" d="M 740 170 L 736 10 L 530 -10 L 520 106 C 506 91.33333333333 490 77 472 63 C 453.33333333333 49 433.66666666667 36.66666666667 413 26 C 391.66666666667 14.66666666667 370 6 348 0 C 325.33333333333 -6.66666666667 303.33333333333 -10 282 -10 C 240.66666666667 -10 206 -1.66666666667 178 15 C 149.33333333333 31.66666666667 126.66666666667 53.66666666667 110 81 C 92.66666666667 107.66666666667 80.33333333333 138.33333333333 73 173 C 65.66666666667 207 62 242 62 278 C 62 323.33333333333 69.66666666667 364.66666666667 85 402 C 99.66666666667 439.33333333333 120.66666666667 471.33333333333 148 498 C 174.66666666667 524 207 544.33333333333 245 559 C 283 573 324.66666666667 580 370 580 C 388 580 406 579 424 577 C 441.33333333333 574.33333333333 458.66666666667 570 476 564 C 477.33333333333 575.33333333333 478 586 478 596 C 478 606 478 616.66666666667 478 628 C 478 634 477.66666666667 644 477 658 C 476.33333333333 671.33333333333 475.33333333333 686.66666666667 474 704 C 472 720.66666666667 469.33333333333 738.33333333333 466 757 C 462.66666666667 775 458.33333333333 791.66666666667 453 807 C 447 821.66666666667 440.33333333333 834 433 844 C 425 853.33333333333 415.33333333333 858 404 858 C 385.33333333333 858 367.33333333333 849 350 831 C 332.66666666667 812.33333333333 317.33333333333 790.66666666667 304 766 C 290 740.66666666667 278.33333333333 715.66666666667 269 691 C 259 666.33333333333 252 647.33333333333 248 634 L 78 642 L 72 1014 L 238 1018 L 238 872 C 244.66666666667 889.33333333333 253.66666666667 907.33333333333 265 926 C 276.33333333333 944.66666666667 289.66666666667 961.66666666667 305 977 C 319.66666666667 991.66666666667 336.33333333333 1004 355 1014 C 373.66666666667 1023.33333333333 393.33333333333 1028 414 1028 C 465.33333333333 1028 506.33333333333 1020.33333333333 537 1005 C 567.66666666667 989.66666666667 591.33333333333 968.33333333333 608 941 C 624 913 634.66666666667 879.66666666667 640 841 C 645.33333333333 802.33333333333 648 759.33333333333 648 712 C 648 621.33333333333 647.33333333333 531 646 441 C 644.66666666667 351 640 260.66666666667 632 170 L 740 170 Z M 482 238 L 482 384 C 472.66666666667 397.33333333333 459 406 441 410 C 422.33333333333 414 405.33333333333 416 390 416 C 342 416 303 404.33333333333 273 381 C 243 357 228 319.33333333333 228 268 C 228 236.66666666667 236.33333333333 210.33333333333 253 189 C 269.66666666667 167 294.66666666667 156 328 156 C 339.33333333333 156 353.66666666667 157.66666666667 371 161 C 388.33333333333 163.66666666667 405.33333333333 168.33333333333 422 175 C 438 181.66666666667 452 190.33333333333 464 201 C 476 211 482 223.33333333333 482 238 Z"/>
    <path fill="#000000" stroke="none" transform="matrix(1 0 0 -1 13108 1940)" d="M 861 142 L 841 -18 L 505 -4 L 501 158 L 589 168 C 591 258.66666666667 593 349 595 439 C 596.33333333333 529 597 619.33333333333 597 710 C 597 726 595.66666666667 742.66666666667 593 760 C 589.66666666667 777.33333333333 584.33333333333 793.33333333333 577 808 C 569.66666666667 822.66666666667 559.66666666667 834.66666666667 547 844 C 533.66666666667 853.33333333333 517 858 497 858 C 467.66666666667 858 443 850 423 834 C 402.33333333333 817.33333333333 385.66666666667 797 373 773 C 360.33333333333 749 351.33333333333 723 346 695 C 340 667 336.33333333333 641.33333333333 335 618 C 331.66666666667 542.66666666667 329.66666666667 467.66666666667 329 393 C 327.66666666667 318.33333333333 326.33333333333 243.33333333333 325 168 L 413 168 L 423 6 L 77 2 L 77 186 L 175 192 L 169 842 L 23 852 L 27 1022 L 315 1032 L 321 890 C 334.33333333333 910 350.33333333333 929.33333333333 369 948 C 387 966 407 982 429 996 C 451 1010 474.33333333333 1021.33333333333 499 1030 C 523 1038 547.66666666667 1042 573 1042 C 603 1042 628.66666666667 1037 650 1027 C 671.33333333333 1017 689.33333333333 1003.33333333333 704 986 C 718.66666666667 968.66666666667 730.33333333333 949 739 927 C 747 904.33333333333 753.33333333333 880.66666666667 758 856 C 762.66666666667 830.66666666667 765.66666666667 805.33333333333 767 780 C 768.33333333333 754 769 729.33333333333 769 706 C 769 613.33333333333 768 521 766 429 C 763.33333333333 337 761 244.66666666667 759 152 L 861 142 Z"/>
    <path fill="#000000" stroke="none" transform="matrix(1 0 0 -1 13994 1940)" d="M 760 1058 L 604 920 C 617.33333333333 884.66666666667 626.33333333333 846 631 804 C 635.66666666667 761.33333333333 638 721.33333333333 638 684 C 638 635.33333333333 632.33333333333 590 621 548 C 609 506 591 469.33333333333 567 438 C 542.33333333333 406 511.33333333333 380 474 360 C 436 340 391.33333333333 327.33333333333 340 322 C 334.66666666667 318.66666666667 329 314.66666666667 323 310 C 316.33333333333 305.33333333333 310.33333333333 300.33333333333 305 295 C 299.66666666667 289 295.33333333333 283 292 277 C 288 270.33333333333 286 263.33333333333 286 256 C 286 250 288 243 292 235 C 296 226.33333333333 300.66666666667 218 306 210 C 311.33333333333 202 317 194.33333333333 323 187 C 328.33333333333 179.66666666667 332.66666666667 174 336 170 C 381.33333333333 170 425.66666666667 165.66666666667 469 157 C 512.33333333333 148.33333333333 551.33333333333 133.66666666667 586 113 C 620 91.66666666667 647.66666666667 63.66666666667 669 29 C 689.66666666667 -5.66666666667 700 -49.33333333333 700 -102 C 700 -146.66666666667 689.66666666667 -187.33333333333 669 -224 C 647.66666666667 -261.33333333333 620.33333333333 -293.33333333333 587 -320 C 553 -347.33333333333 515 -368.33333333333 473 -383 C 431 -398.33333333333 389.33333333333 -406 348 -406 C 304.66666666667 -406 264.66666666667 -399.33333333333 228 -386 C 190.66666666667 -373.33333333333 158.66666666667 -354.66666666667 132 -330 C 104.66666666667 -306 83.66666666667 -276.33333333333 69 -241 C 53.66666666667 -206.33333333333 46 -166.66666666667 46 -122 C 46 -72.66666666667 56.33333333333 -26.33333333333 77 17 C 97 59.66666666667 128 94.66666666667 170 122 C 158 141.33333333333 147.33333333333 161.66666666667 138 183 C 128.66666666667 204.33333333333 124 226 124 248 C 124 271.33333333333 130 294 142 316 C 154 338 170 354.66666666667 190 366 C 167.33333333333 383.33333333333 148 405 132 431 C 115.33333333333 456.33333333333 101.66666666667 484 91 514 C 79.66666666667 543.33333333333 71.33333333333 573.66666666667 66 605 C 60.66666666667 635.66666666667 58 664.66666666667 58 692 C 58 745.33333333333 64 794.33333333333 76 839 C 88 883 106.66666666667 921 132 953 C 157.33333333333 985 190 1010 230 1028 C 269.33333333333 1045.33333333333 316.66666666667 1054 372 1054 C 386.66666666667 1054 400 1053.33333333333 412 1052 C 423.33333333333 1050.66666666667 434.33333333333 1048.66666666667 445 1046 C 455.66666666667 1042.66666666667 466.33333333333 1039 477 1035 C 487.66666666667 1030.33333333333 499.33333333333 1024.66666666667 512 1018 L 638 1178 L 760 1058 Z M 472 696 C 472 715.33333333333 470 736 466 758 C 461.33333333333 780 454 800.66666666667 444 820 C 434 838.66666666667 421 854.33333333333 405 867 C 389 879.66666666667 369.33333333333 886 346 886 C 319.33333333333 886 298 880.66666666667 282 870 C 265.33333333333 858.66666666667 253 844.33333333333 245 827 C 236.33333333333 809 230.66666666667 789 228 767 C 225.33333333333 745 224 723.33333333333 224 702 C 224 684 226 662.66666666667 230 638 C 233.33333333333 613.33333333333 239.66666666667 589.66666666667 249 567 C 257.66666666667 544.33333333333 270 525.33333333333 286 510 C 301.33333333333 494 321.33333333333 486 346 486 C 369.33333333333 486 389 493.66666666667 405 509 C 421 523.66666666667 434 542 444 564 C 454 585.33333333333 461.33333333333 608 466 632 C 470 656 472 677.33333333333 472 696 Z M 540 -98 C 540 -74.66666666667 533.66666666667 -55 521 -39 C 508.33333333333 -23 492.66666666667 -10 474 0 C 454.66666666667 10 434 17.33333333333 412 22 C 390 26 369.33333333333 28 350 28 C 306 28 273 14.33333333333 251 -13 C 229 -41 218 -76 218 -118 C 218 -139.33333333333 223.33333333333 -157.33333333333 234 -172 C 244.66666666667 -186.66666666667 258 -198.33333333333 274 -207 C 290 -216.33333333333 308 -223 328 -227 C 347.33333333333 -231.66666666667 366 -234 384 -234 C 403.33333333333 -234 422.33333333333 -230.66666666667 441 -224 C 459 -218 475.66666666667 -209 491 -197 C 505.66666666667 -185 517.66666666667 -170.66666666667 527 -154 C 535.66666666667 -137.33333333333 540 -118.66666666667 540 -98 Z"/>
    <path fill="#000000" stroke="none" transform="matrix(1 0 0 -1 14715 1940)" d="M 667 606 C 667 551.33333333333 665 498 661 446 L 231 438 C 231.66666666667 424 232.66666666667 407.33333333333 234 388 C 234.66666666667 368 236.66666666667 347.33333333333 240 326 C 242.66666666667 304 247 282.66666666667 253 262 C 258.33333333333 240.66666666667 265.66666666667 221.66666666667 275 205 C 284.33333333333 187.66666666667 296 174 310 164 C 323.33333333333 153.33333333333 339.66666666667 148 359 148 C 380.33333333333 148 398.33333333333 153.66666666667 413 165 C 427.66666666667 175.66666666667 440 189.33333333333 450 206 C 459.33333333333 222 466.66666666667 240 472 260 C 477.33333333333 279.33333333333 481 297.33333333333 483 314 L 657 314 C 651 276 641 237.66666666667 627 199 C 613 160.33333333333 594.33333333333 125.33333333333 571 94 C 547.66666666667 62.66666666667 519.33333333333 37.33333333333 486 18 C 452.66666666667 -2 413.66666666667 -12 369 -12 C 322.33333333333 -12 282.33333333333 -3 249 15 C 215 32.33333333333 186.33333333333 55.66666666667 163 85 C 139.66666666667 114.33333333333 120.66666666667 148.33333333333 106 187 C 91.33333333333 225 80.33333333333 264.66666666667 73 306 C 65 346.66666666667 59.66666666667 387.66666666667 57 429 C 54.33333333333 470.33333333333 53 508.66666666667 53 544 C 53 576.66666666667 55 611.66666666667 59 649 C 62.33333333333 685.66666666667 68.33333333333 722.33333333333 77 759 C 85.66666666667 795.66666666667 97.66666666667 831 113 865 C 127.66666666667 899 146.33333333333 929 169 955 C 191.66666666667 980.33333333333 218.66666666667 1001 250 1017 C 281.33333333333 1032.33333333333 317.66666666667 1040 359 1040 C 429.66666666667 1040 485.33333333333 1029 526 1007 C 566.66666666667 984.33333333333 597.66666666667 953.66666666667 619 915 C 639.66666666667 875.66666666667 653 829.66666666667 659 777 C 664.33333333333 724.33333333333 667 667.33333333333 667 606 Z M 493 664 C 493 684 492 706.66666666667 490 732 C 487.33333333333 757.33333333333 482 781.33333333333 474 804 C 465.33333333333 826.66666666667 453.33333333333 845.66666666667 438 861 C 422 876.33333333333 400.33333333333 884 373 884 C 338.33333333333 884 311.33333333333 873 292 851 C 272.66666666667 829 258.66666666667 802.33333333333 250 771 C 240.66666666667 739 235 706 233 672 C 231 637.33333333333 229.66666666667 607.33333333333 229 582 L 487 582 C 491 610 493 637.33333333333 493 664 Z"/>
    <path fill="#000000" stroke="none" transform="matrix(1 0 0 -1 15793 1940)" d="M 740 170 L 736 10 L 530 -10 L 520 106 C 506 91.33333333333 490 77 472 63 C 453.33333333333 49 433.66666666667 36.66666666667 413 26 C 391.66666666667 14.66666666667 370 6 348 0 C 325.33333333333 -6.66666666667 303.33333333333 -10 282 -10 C 240.66666666667 -10 206 -1.66666666667 178 15 C 149.33333333333 31.66666666667 126.66666666667 53.66666666667 110 81 C 92.66666666667 107.66666666667 80.33333333333 138.33333333333 73 173 C 65.66666666667 207 62 242 62 278 C 62 323.33333333333 69.66666666667 364.66666666667 85 402 C 99.66666666667 439.33333333333 120.66666666667 471.33333333333 148 498 C 174.66666666667 524 207 544.33333333333 245 559 C 283 573 324.66666666667 580 370 580 C 388 580 406 579 424 577 C 441.33333333333 574.33333333333 458.66666666667 570 476 564 C 477.33333333333 575.33333333333 478 586 478 596 C 478 606 478 616.66666666667 478 628 C 478 634 477.66666666667 644 477 658 C 476.33333333333 671.33333333333 475.33333333333 686.66666666667 474 704 C 472 720.66666666667 469.33333333333 738.33333333333 466 757 C 462.66666666667 775 458.33333333333 791.66666666667 453 807 C 447 821.66666666667 440.33333333333 834 433 844 C 425 853.33333333333 415.33333333333 858 404 858 C 385.33333333333 858 367.33333333333 849 350 831 C 332.66666666667 812.33333333333 317.33333333333 790.66666666667 304 766 C 290 740.66666666667 278.33333333333 715.66666666667 269 691 C 259 666.33333333333 252 647.33333333333 248 634 L 78 642 L 72 1014 L 238 1018 L 238 872 C 244.66666666667 889.33333333333 253.66666666667 907.33333333333 265 926 C 276.33333333333 944.66666666667 289.66666666667 961.66666666667 305 977 C 319.66666666667 991.66666666667 336.33333333333 1004 355 1014 C 373.66666666667 1023.33333333333 393.33333333333 1028 414 1028 C 465.33333333333 1028 506.33333333333 1020.33333333333 537 1005 C 567.66666666667 989.66666666667 591.33333333333 968.33333333333 608 941 C 624 913 634.66666666667 879.66666666667 640 841 C 645.33333333333 802.33333333333 648 759.33333333333 648 712 C 648 621.33333333333 647.33333333333 531 646 441 C 644.66666666667 351 640 260.66666666667 632 170 L 740 170 Z M 482 238 L 482 384 C 472.66666666667 397.33333333333 459 406 441 410 C 422.33333333333 414 405.33333333333 416 390 416 C 342 416 303 404.33333333333 273 381 C 243 357 228 319.33333333333 228 268 C 228 236.66666666667 236.33333333333 210.33333333333 253 189 C 269.66666666667 167 294.66666666667 156 328 156 C 339.33333333333 156 353.66666666667 157.66666666667 371 161 C 388.33333333333 163.66666666667 405.33333333333 168.33333333333 422 175 C 438 181.66666666667 452 190.33333333333 464 201 C 476 211 482 223.33333333333 482 238 Z"/>
    <path fill="#000000" stroke="none" transform="matrix(1 0 0 -1 16559 1940)" d="M 637 232 C 637 195.33333333333 630 161.33333333333 616 130 C 601.33333333333 98.66666666667 581.66666666667 71.66666666667 557 49 C 532.33333333333 25.66666666667 504 7.66666666667 472 -5 C 439.33333333333 -17.66666666667 405 -24 369 -24 C 335.66666666667 -24 305.33333333333 -15 278 3 C 250.66666666667 21 227 42 207 66 L 185 -20 L 59 -10 L 69 322 L 261 320 C 259.66666666667 312 258.66666666667 303.66666666667 258 295 C 257.33333333333 286.33333333333 257 278 257 270 C 257 254 259 238.66666666667 263 224 C 267 208.66666666667 273 195 281 183 C 289 171 299.66666666667 161.66666666667 313 155 C 325.66666666667 147.66666666667 341 144 359 144 C 372.33333333333 144 384.33333333333 147.33333333333 395 154 C 405.66666666667 160 415 168 423 178 C 430.33333333333 188 436.33333333333 199 441 211 C 445 223 447 234.66666666667 447 246 C 447 274.66666666667 440.66666666667 300.33333333333 428 323 C 414.66666666667 345.66666666667 398 366 378 384 C 358 402 336 418 312 432 C 288 446 265 458.66666666667 243 470 C 207 489.33333333333 177.33333333333 509.33333333333 154 530 C 130 550.66666666667 111 573.66666666667 97 599 C 83 623.66666666667 73.33333333333 651.33333333333 68 682 C 62 712.66666666667 59 747.33333333333 59 786 C 59 823.33333333333 66.33333333333 857.66666666667 81 889 C 95 919.66666666667 114.33333333333 946.66666666667 139 970 C 163.66666666667 992.66666666667 192.33333333333 1010.33333333333 225 1023 C 257 1035.66666666667 291 1042 327 1042 C 360.33333333333 1042 390.66666666667 1033 418 1015 C 445.33333333333 997 469 976 489 952 L 511 1038 L 637 1028 L 627 696 L 435 698 C 436.33333333333 706 437.33333333333 714.33333333333 438 723 C 438.66666666667 731.66666666667 439 740 439 748 C 439 764 437 779.66666666667 433 795 C 429 809.66666666667 423 823 415 835 C 407 847 396.66666666667 856.66666666667 384 864 C 370.66666666667 870.66666666667 355 874 337 874 C 324.33333333333 874 312.66666666667 871 302 865 C 291.33333333333 858.33333333333 282 850 274 840 C 266 830 260 819 256 807 C 251.33333333333 795 249 783.33333333333 249 772 C 249 743.33333333333 255.33333333333 717.66666666667 268 695 C 280 671.66666666667 295.66666666667 651 315 633 C 333.66666666667 615 355 599 379 585 C 403 570.33333333333 426.33333333333 557.33333333333 449 546 C 483.66666666667 528 513 508.66666666667 537 488 C 560.33333333333 467.33333333333 579.66666666667 444.33333333333 595 419 C 609.66666666667 393.66666666667 620.33333333333 365.66666666667 627 335 C 633.66666666667 304.33333333333 637 270 637 232 Z"/>
    <path fill="#000000" stroke="none" transform="matrix(1 0 0 -1 17253 1940)" d="M 566 1018 L 562 838 L 386 838 C 384 748.66666666667 382.33333333333 659.33333333333 381 570 C 379 480.66666666667 378 390.66666666667 378 300 C 378 279.33333333333 382.33333333333 261 391 245 C 399 228.33333333333 410 214.66666666667 424 204 C 438 192.66666666667 454 184.33333333333 472 179 C 490 173 508.66666666667 170 528 170 C 534 170 539.66666666667 170 545 170 C 550.33333333333 170 556 170.66666666667 562 172 L 562 -6 C 530 -14 497.33333333333 -18 464 -18 C 420.66666666667 -18 381.66666666667 -10 347 6 C 312.33333333333 21.33333333333 283 42.66666666667 259 70 C 235 96.66666666667 216.66666666667 128.33333333333 204 165 C 190.66666666667 201 184 239.33333333333 184 280 C 184 373.33333333333 185 466.33333333333 187 559 C 188.33333333333 651.66666666667 190 744.66666666667 192 838 L 40 838 L 40 1018 L 196 1018 L 208 1366 L 398 1366 L 390 1018 L 566 1018 Z"/>
    <path fill="#000000" stroke="none" transform="matrix(1 0 0 -1 17863 1940)" d="M 688 544 C 688 511.33333333333 686 474.66666666667 682 434 C 678 392.66666666667 671 351.33333333333 661 310 C 651 268 638 227.33333333333 622 188 C 605.33333333333 148 584.66666666667 112.66666666667 560 82 C 535.33333333333 51.33333333333 506.66666666667 26.66666666667 474 8 C 440.66666666667 -10.66666666667 402 -20 358 -20 C 316.66666666667 -20 280.33333333333 -12 249 4 C 217.66666666667 19.33333333333 190.66666666667 40 168 66 C 145.33333333333 91.33333333333 126.33333333333 121 111 155 C 95.66666666667 189 83.66666666667 224.33333333333 75 261 C 65.66666666667 297.66666666667 59.33333333333 334.66666666667 56 372 C 52 409.33333333333 50 444 50 476 C 50 510 52 547.66666666667 56 589 C 60 629.66666666667 67 671.33333333333 77 714 C 86.33333333333 756 99.33333333333 797 116 837 C 132 877 152.33333333333 912.66666666667 177 944 C 201 974.66666666667 230 999.33333333333 264 1018 C 297.33333333333 1036.66666666667 336 1046 380 1046 C 420.66666666667 1046 456.66666666667 1038 488 1022 C 518.66666666667 1006 545.66666666667 984.66666666667 569 958 C 591.66666666667 931.33333333333 610.66666666667 900.66666666667 626 866 C 640.66666666667 831.33333333333 652.66666666667 795.66666666667 662 759 C 671.33333333333 721.66666666667 678 684.33333333333 682 647 C 686 609.66666666667 688 575.33333333333 688 544 Z M 530 550 C 530 564.66666666667 529.33333333333 583 528 605 C 526.66666666667 626.33333333333 524.33333333333 649.33333333333 521 674 C 517 698.66666666667 511.66666666667 723.33333333333 505 748 C 498.33333333333 772.66666666667 489.66666666667 795 479 815 C 468.33333333333 835 455.33333333333 851.33333333333 440 864 C 424 876 405.33333333333 882 384 882 C 358.66666666667 882 336.66666666667 874.33333333333 318 859 C 299.33333333333 843 283.66666666667 822.66666666667 271 798 C 257.66666666667 773.33333333333 247 746 239 716 C 231 685.33333333333 225 655 221 625 C 216.33333333333 594.33333333333 213.33333333333 565.66666666667 212 539 C 210.66666666667 512.33333333333 210 490.66666666667 210 474 C 210 460 210.66666666667 442.33333333333 212 421 C 213.33333333333 399 216 375.66666666667 220 351 C 224 326.33333333333 229.66666666667 302 237 278 C 243.66666666667 253.33333333333 252.33333333333 231 263 211 C 273.66666666667 191 286.66666666667 175 302 163 C 317.33333333333 150.33333333333 335.33333333333 144 356 144 C 381.33333333333 144 403.33333333333 151.66666666667 422 167 C 440 182.33333333333 455.66666666667 202.33333333333 469 227 C 481.66666666667 251 492 278 500 308 C 508 338 514.33333333333 368.33333333333 519 399 C 523 429 526 457.33333333333 528 484 C 529.33333333333 510.66666666667 530 532.66666666667 530 550 Z"/>
    <path fill="#000000" stroke="none" transform="matrix(1 0 0 -1 18600 1940)" d="M 862 160 L 858 -10 L 570 -20 L 564 142 C 550.66666666667 122 535 103 517 85 C 498.33333333333 66.33333333333 478.33333333333 50 457 36 C 435 22 412 11 388 3 C 364 -5.66666666667 339.33333333333 -10 314 -10 C 284 -10 258.33333333333 -5 237 5 C 215 15 196.66666666667 28.66666666667 182 46 C 167.33333333333 63.33333333333 155.66666666667 83.33333333333 147 106 C 138.33333333333 128 131.66666666667 151.66666666667 127 177 C 122.33333333333 201.66666666667 119.33333333333 227 118 253 C 116.66666666667 278.33333333333 116 302.66666666667 116 326 C 116 416.66666666667 117.33333333333 507.33333333333 120 598 C 122 688 124 778.66666666667 126 870 L 24 880 L 44 1040 L 302 1026 C 298.66666666667 906 295.66666666667 787.33333333333 293 670 C 289.66666666667 552.66666666667 288 434 288 314 C 288 298.66666666667 289.66666666667 282.66666666667 293 266 C 296.33333333333 249.33333333333 302 234.33333333333 310 221 C 317.33333333333 207 327.66666666667 195.66666666667 341 187 C 353.66666666667 178.33333333333 369.33333333333 174 388 174 C 417.33333333333 174 442.33333333333 182.33333333333 463 199 C 483 215 499.33333333333 235 512 259 C 524.66666666667 283 534 309 540 337 C 546 365 549.33333333333 390.66666666667 550 414 C 554 487.33333333333 556.33333333333 560.66666666667 557 634 C 557.66666666667 707.33333333333 558.66666666667 780.66666666667 560 854 L 472 854 L 462 1016 L 732 1020 L 716 170 L 862 160 Z"/>
    <path fill="#000000" stroke="none" transform="matrix(1 0 0 -1 19463 1940)" d="M 861 142 L 841 -18 L 505 -4 L 501 158 L 589 168 C 591 258.66666666667 593 349 595 439 C 596.33333333333 529 597 619.33333333333 597 710 C 597 726 595.66666666667 742.66666666667 593 760 C 589.66666666667 777.33333333333 584.33333333333 793.33333333333 577 808 C 569.66666666667 822.66666666667 559.66666666667 834.66666666667 547 844 C 533.66666666667 853.33333333333 517 858 497 858 C 467.66666666667 858 443 850 423 834 C 402.33333333333 817.33333333333 385.66666666667 797 373 773 C 360.33333333333 749 351.33333333333 723 346 695 C 340 667 336.33333333333 641.33333333333 335 618 C 331.66666666667 542.66666666667 329.66666666667 467.66666666667 329 393 C 327.66666666667 318.33333333333 326.33333333333 243.33333333333 325 168 L 413 168 L 423 6 L 77 2 L 77 186 L 175 192 L 169 842 L 23 852 L 27 1022 L 315 1032 L 321 890 C 334.33333333333 910 350.33333333333 929.33333333333 369 948 C 387 966 407 982 429 996 C 451 1010 474.33333333333 1021.33333333333 499 1030 C 523 1038 547.66666666667 1042 573 1042 C 603 1042 628.66666666667 1037 650 1027 C 671.33333333333 1017 689.33333333333 1003.33333333333 704 986 C 718.66666666667 968.66666666667 730.33333333333 949 739 927 C 747 904.33333333333 753.33333333333 880.66666666667 758 856 C 762.66666666667 830.66666666667 765.66666666667 805.33333333333 767 780 C 768.33333333333 754 769 729.33333333333 769 706 C 769 613.33333333333 768 521 766 429 C 763.33333333333 337 761 244.66666666667 759 152 L 861 142 Z"/>
    <path fill="#000000" stroke="none" transform="matrix(1 0 0 -1 20349 1940)" d="M 821 -2 L 553 -10 L 539 106 C 517 70 487.66666666667 41.66666666667 451 21 C 414.33333333333 0.33333333333 375 -10 333 -10 C 292.33333333333 -10 257 -1.33333333333 227 16 C 197 33.33333333333 171.66666666667 56.33333333333 151 85 C 129.66666666667 113.66666666667 112.66666666667 146.33333333333 100 183 C 86.66666666667 219.66666666667 76.66666666667 257.33333333333 70 296 C 62.66666666667 334.66666666667 57.66666666667 372.66666666667 55 410 C 52.33333333333 447.33333333333 51 481.33333333333 51 512 C 51 542.66666666667 53 577.33333333333 57 616 C 61 654 68 692.66666666667 78 732 C 87.33333333333 771.33333333333 100 809.66666666667 116 847 C 131.33333333333 884.33333333333 150.66666666667 917.66666666667 174 947 C 196.66666666667 976.33333333333 223.66666666667 1000 255 1018 C 286.33333333333 1035.33333333333 322.33333333333 1044 363 1044 C 394.33333333333 1044 424.33333333333 1036 453 1020 C 481 1003.33333333333 503 982 519 956 L 519 1282 L 339 1282 L 339 1454 L 705 1448 L 689 160 L 821 164 L 821 -2 Z M 513 736 C 509 748 503.33333333333 761.66666666667 496 777 C 488.66666666667 791.66666666667 480 805.66666666667 470 819 C 459.33333333333 831.66666666667 447.66666666667 842.33333333333 435 851 C 422.33333333333 859.66666666667 408.33333333333 864 393 864 C 371 864 352 857.66666666667 336 845 C 319.33333333333 832.33333333333 305.33333333333 816 294 796 C 282.66666666667 776 273.33333333333 753.66666666667 266 729 C 258 703.66666666667 252 678.66666666667 248 654 C 244 628.66666666667 241.33333333333 605 240 583 C 238 560.33333333333 237 541.33333333333 237 526 C 237 512.66666666667 237 494.66666666667 237 472 C 237 448.66666666667 238 424 240 398 C 242 371.33333333333 245.66666666667 344.66666666667 251 318 C 255.66666666667 290.66666666667 262.66666666667 266 272 244 C 281.33333333333 222 293.33333333333 204.33333333333 308 191 C 322.66666666667 177 341 170 363 170 C 380.33333333333 170 396.66666666667 175 412 185 C 426.66666666667 194.33333333333 440.33333333333 206.33333333333 453 221 C 465.66666666667 235 477 250.33333333333 487 267 C 496.33333333333 283 503.66666666667 297.33333333333 509 310 L 513 736 Z"/>
    <path fill="#000000" stroke="none" transform="matrix(1 0 0 -1 21540 1940)" d="M 437 850 L 487 686 L 311 616 L 303 168 L 411 158 L 405 -8 L 39 8 L 39 182 L 123 188 L 123 542 L 35 506 L 9 690 L 123 732 L 123 1264 L 1 1264 L 5 1440 L 327 1440 L 315 804 L 437 850 Z"/>
    <path fill="#000000" stroke="none" transform="matrix(1 0 0 -1 22009 1940)" d="M 667 606 C 667 551.33333333333 665 498 661 446 L 231 438 C 231.66666666667 424 232.66666666667 407.33333333333 234 388 C 234.66666666667 368 236.66666666667 347.33333333333 240 326 C 242.66666666667 304 247 282.66666666667 253 262 C 258.33333333333 240.66666666667 265.66666666667 221.66666666667 275 205 C 284.33333333333 187.66666666667 296 174 310 164 C 323.33333333333 153.33333333333 339.66666666667 148 359 148 C 380.33333333333 148 398.33333333333 153.66666666667 413 165 C 427.66666666667 175.66666666667 440 189.33333333333 450 206 C 459.33333333333 222 466.66666666667 240 472 260 C 477.33333333333 279.33333333333 481 297.33333333333 483 314 L 657 314 C 651 276 641 237.66666666667 627 199 C 613 160.33333333333 594.33333333333 125.33333333333 571 94 C 547.66666666667 62.66666666667 519.33333333333 37.33333333333 486 18 C 452.66666666667 -2 413.66666666667 -12 369 -12 C 322.33333333333 -12 282.33333333333 -3 249 15 C 215 32.33333333333 186.33333333333 55.66666666667 163 85 C 139.66666666667 114.33333333333 120.66666666667 148.33333333333 106 187 C 91.33333333333 225 80.33333333333 264.66666666667 73 306 C 65 346.66666666667 59.66666666667 387.66666666667 57 429 C 54.33333333333 470.33333333333 53 508.66666666667 53 544 C 53 576.66666666667 55 611.66666666667 59 649 C 62.33333333333 685.66666666667 68.33333333333 722.33333333333 77 759 C 85.66666666667 795.66666666667 97.66666666667 831 113 865 C 127.66666666667 899 146.33333333333 929 169 955 C 191.66666666667 980.33333333333 218.66666666667 1001 250 1017 C 281.33333333333 1032.33333333333 317.66666666667 1040 359 1040 C 429.66666666667 1040 485.33333333333 1029 526 1007 C 566.66666666667 984.33333333333 597.66666666667 953.66666666667 619 915 C 639.66666666667 875.66666666667 653 829.66666666667 659 777 C 664.33333333333 724.33333333333 667 667.33333333333 667 606 Z M 493 664 C 493 684 492 706.66666666667 490 732 C 487.33333333333 757.33333333333 482 781.33333333333 474 804 C 465.33333333333 826.66666666667 453.33333333333 845.66666666667 438 861 C 422 876.33333333333 400.33333333333 884 373 884 C 338.33333333333 884 311.33333333333 873 292 851 C 272.66666666667 829 258.66666666667 802.33333333333 250 771 C 240.66666666667 739 235 706 233 672 C 231 637.33333333333 229.66666666667 607.33333333333 229 582 L 487 582 C 491 610 493 637.33333333333 493 664 Z"/>
    <path fill="#000000" stroke="none" transform="matrix(1 0 0 -1 22727 1940)" d="M 406 158 L 400 -8 L 34 8 L 34 182 L 118 188 L 118 1264 L -4 1264 L 0 1440 L 322 1440 L 298 168 L 406 158 Z M 649 1276 C 649 1226 637.33333333333 1180 614 1138 C 590 1096 557 1062 515 1036 L 463 1078 C 471 1086 480.66666666667 1097 492 1111 C 502.66666666667 1125 509 1138 511 1150 C 494.33333333333 1151.33333333333 479 1155.66666666667 465 1163 C 451 1170.33333333333 439 1179.66666666667 429 1191 C 418.33333333333 1201.66666666667 410 1214.33333333333 404 1229 C 398 1243.66666666667 395 1259.33333333333 395 1276 C 395 1293.33333333333 398.33333333333 1310 405 1326 C 411.66666666667 1341.33333333333 420.66666666667 1355 432 1367 C 443.33333333333 1378.33333333333 456.66666666667 1387.33333333333 472 1394 C 487.33333333333 1400.66666666667 503.66666666667 1404 521 1404 C 538.33333333333 1404 555 1400.66666666667 571 1394 C 586.33333333333 1387.33333333333 600 1378.33333333333 612 1367 C 623.33333333333 1355 632.33333333333 1341.33333333333 639 1326 C 645.66666666667 1310 649 1293.33333333333 649 1276 Z"/>
    <path fill="#000000" stroke="none" transform="matrix(1 0 0 -1 23427 1940)" d="M 861 160 L 857 -10 L 569 -20 L 563 142 C 549.66666666667 122 534 103 516 85 C 497.33333333333 66.33333333333 477.33333333333 50 456 36 C 434 22 411 11 387 3 C 363 -5.66666666667 338.33333333333 -10 313 -10 C 283 -10 257.33333333333 -5 236 5 C 214 15 195.66666666667 28.66666666667 181 46 C 166.33333333333 63.33333333333 154.66666666667 83.33333333333 146 106 C 137.33333333333 128 130.66666666667 151.66666666667 126 177 C 121.33333333333 201.66666666667 118.33333333333 227 117 253 C 115.66666666667 278.33333333333 115 302.66666666667 115 326 C 115 416.66666666667 116.33333333333 507.33333333333 119 598 C 121 688 123 778.66666666667 125 870 L 23 880 L 43 1040 L 301 1026 C 297.66666666667 906 294.66666666667 787.33333333333 292 670 C 288.66666666667 552.66666666667 287 434 287 314 C 287 298.66666666667 288.66666666667 282.66666666667 292 266 C 295.33333333333 249.33333333333 301 234.33333333333 309 221 C 316.33333333333 207 326.66666666667 195.66666666667 340 187 C 352.66666666667 178.33333333333 368.33333333333 174 387 174 C 416.33333333333 174 441.33333333333 182.33333333333 462 199 C 482 215 498.33333333333 235 511 259 C 523.66666666667 283 533 309 539 337 C 545 365 548.33333333333 390.66666666667 549 414 C 553 487.33333333333 555.33333333333 560.66666666667 556 634 C 556.66666666667 707.33333333333 557.66666666667 780.66666666667 559 854 L 471 854 L 461 1016 L 731 1020 L 715 170 L 861 160 Z M 673 1161 C 664.33333333333 1153 654 1145 642 1137 C 630 1129 617.66666666667 1121.66666666667 605 1115 C 591.66666666667 1108.33333333333 578.33333333333 1103 565 1099 C 551 1095 537.66666666667 1093 525 1093 C 507.66666666667 1093 491 1097.33333333333 475 1106 C 458.33333333333 1114.66666666667 442.33333333333 1124 427 1134 C 411.66666666667 1144 396.66666666667 1153.33333333333 382 1162 C 367.33333333333 1170.66666666667 352.33333333333 1175 337 1175 C 329 1175 319.66666666667 1171.66666666667 309 1165 C 298.33333333333 1157.66666666667 287.66666666667 1149.33333333333 277 1140 C 266.33333333333 1130 256.66666666667 1120 248 1110 C 238.66666666667 1100 231.66666666667 1092.33333333333 227 1087 L 187 1207 C 195 1216.33333333333 205 1226.66666666667 217 1238 C 228.33333333333 1249.33333333333 241 1260 255 1270 C 268.33333333333 1279.33333333333 282.33333333333 1287.33333333333 297 1294 C 311.66666666667 1300 325.66666666667 1303 339 1303 C 356.33333333333 1303 372.33333333333 1299 387 1291 C 401.66666666667 1282.33333333333 416.33333333333 1273 431 1263 C 445 1253 459.66666666667 1244 475 1236 C 489.66666666667 1227.33333333333 506.33333333333 1223 525 1223 C 545 1223 565 1229.66666666667 585 1243 C 605 1255.66666666667 621 1269 633 1283 L 673 1161 Z"/>
    <path fill="#000000" stroke="none" transform="matrix(1 0 0 -1 24290 1940)" d="M 511 569 L 380 572 C 379.33333333333 526 379 480.66666666667 379 436 C 378.33333333333 391.33333333333 378 346 378 300 C 378 279.33333333333 382.33333333333 261 391 245 C 399 228.33333333333 410 214.66666666667 424 204 C 438 192.66666666667 454 184.33333333333 472 179 C 490 173 508.66666666667 170 528 170 C 534 170 539.66666666667 170 545 170 C 550.33333333333 170 556 170.66666666667 562 172 L 562 -6 C 530 -14 497.33333333333 -18 464 -18 C 420.66666666667 -18 381.66666666667 -10 347 6 C 312.33333333333 21.33333333333 283 42.66666666667 259 70 C 235 96.66666666667 216.66666666667 128.33333333333 204 165 C 190.66666666667 201 184 239.33333333333 184 280 C 184 330 184.33333333333 379.66666666667 185 429 C 185 477.66666666667 185.33333333333 527 186 577 L 99 579 L 109 703 L 189 703 L 192 838 L 40 838 L 40 1018 L 196 1018 L 208 1366 L 398 1366 L 390 1018 L 566 1018 L 562 838 L 386 838 L 383 703 L 501 703 L 511 569 Z"/>
    <path fill="#000000" stroke="none" transform="matrix(1 0 0 -1 24900 1940)" d="M 687 544 C 687 511.33333333333 685 474.66666666667 681 434 C 677 392.66666666667 670 351.33333333333 660 310 C 650 268 637 227.33333333333 621 188 C 604.33333333333 148 583.66666666667 112.66666666667 559 82 C 534.33333333333 51.33333333333 505.66666666667 26.66666666667 473 8 C 439.66666666667 -10.66666666667 401 -20 357 -20 C 315.66666666667 -20 279.33333333333 -12 248 4 C 216.66666666667 19.33333333333 189.66666666667 40 167 66 C 144.33333333333 91.33333333333 125.33333333333 121 110 155 C 94.66666666667 189 82.66666666667 224.33333333333 74 261 C 64.66666666667 297.66666666667 58.33333333333 334.66666666667 55 372 C 51 409.33333333333 49 444 49 476 C 49 510 51 547.66666666667 55 589 C 59 629.66666666667 66 671.33333333333 76 714 C 85.33333333333 756 98.33333333333 797 115 837 C 131 877 151.33333333333 912.66666666667 176 944 C 200 974.66666666667 229 999.33333333333 263 1018 C 296.33333333333 1036.66666666667 335 1046 379 1046 C 419.66666666667 1046 455.66666666667 1038 487 1022 C 517.66666666667 1006 544.66666666667 984.66666666667 568 958 C 590.66666666667 931.33333333333 609.66666666667 900.66666666667 625 866 C 639.66666666667 831.33333333333 651.66666666667 795.66666666667 661 759 C 670.33333333333 721.66666666667 677 684.33333333333 681 647 C 685 609.66666666667 687 575.33333333333 687 544 Z M 529 550 C 529 564.66666666667 528.33333333333 583 527 605 C 525.66666666667 626.33333333333 523.33333333333 649.33333333333 520 674 C 516 698.66666666667 510.66666666667 723.33333333333 504 748 C 497.33333333333 772.66666666667 488.66666666667 795 478 815 C 467.33333333333 835 454.33333333333 851.33333333333 439 864 C 423 876 404.33333333333 882 383 882 C 357.66666666667 882 335.66666666667 874.33333333333 317 859 C 298.33333333333 843 282.66666666667 822.66666666667 270 798 C 256.66666666667 773.33333333333 246 746 238 716 C 230 685.33333333333 224 655 220 625 C 215.33333333333 594.33333333333 212.33333333333 565.66666666667 211 539 C 209.66666666667 512.33333333333 209 490.66666666667 209 474 C 209 460 209.66666666667 442.33333333333 211 421 C 212.33333333333 399 215 375.66666666667 219 351 C 223 326.33333333333 228.66666666667 302 236 278 C 242.66666666667 253.33333333333 251.33333333333 231 262 211 C 272.66666666667 191 285.66666666667 175 301 163 C 316.33333333333 150.33333333333 334.33333333333 144 355 144 C 380.33333333333 144 402.33333333333 151.66666666667 421 167 C 439 182.33333333333 454.66666666667 202.33333333333 468 227 C 480.66666666667 251 491 278 499 308 C 507 338 513.33333333333 368.33333333333 518 399 C 522 429 525 457.33333333333 527 484 C 528.33333333333 510.66666666667 529 532.66666666667 529 550 Z M 645 1344 L 423 1112 L 329 1142 L 459 1394 L 645 1344 Z"/>
</svg>
