<svg width="25637" height="3048" viewBox="0 0 25637 3048" xmlns="http://www.w3.org/2000/svg">
    <defs/>
    <g transform="matrix(1 0 0 -1 0 3048)">
        <g transform="matrix(1 0 0 1 0 1108)">
            <path fill="#000000" stroke="none" d="M 894 998 L 726 988 L 716 1214 L 362 1206 L 366 750 L 664 750 L 664 606 L 368 588 L 372 184 L 514 176 L 514 -2 L 80 -12 L 74 184 L 192 184 L 190 1206 L 66 1202 L 76 1396 L 884 1406 L 894 998 Z"/>
        </g>
        <g transform="matrix(1 0 0 1 910 1108)">
            <path fill="#000000" stroke="none" d="M 903 1038 L 755 1028 L 735 1234 L 371 1226 L 367 780 L 671 780 L 671 636 L 365 618 L 361 172 L 735 186 L 735 406 L 883 406 L 893 8 L 79 -12 L 73 172 L 191 172 L 189 1226 L 65 1222 L 75 1416 L 893 1426 L 903 1038 Z"/>
        </g>
        <g transform="matrix(1 0 0 1 1863 1108)">
            <path fill="#000000" stroke="none" d="M 876 380 Q 876 299 855.5 227.49998 Q 835 156 793 103 Q 751 50 686.5 19 Q 622 -12 534 -12 Q 482 -12 439.49997 -2.5 Q 397 7 362.5 27.500002 Q 328 48 298.5 80 Q 269 112 242 156 L 240 2 L 64 26 L 96 484 L 244 478 Q 253 425 272 367.5 Q 291 310 322.5 262 Q 354 214 401 183 Q 448 152 512 152 Q 564 152 599.5 169 Q 635 186 657 216 Q 679 246 688.5 287 Q 698 328 698 376 Q 698 430 680.5 472.50003 Q 663 515 632 547.5 Q 601 580 559.5 604 Q 518 628 470 644 Q 388 673 315.5 706.50006 Q 243 740 189 788 Q 135 836 103.5 904 Q 72 972 72 1072 Q 72 1155 97 1225 Q 122 1295 169 1345.5 Q 216 1396 283 1424 Q 350 1452 434 1452 Q 487 1452 525.5 1442 Q 564 1432 594 1411 Q 624 1390 649 1358.5 Q 674 1327 700 1284 L 702 1448 L 876 1444 L 854 934 L 698 940 Q 688 996 672 1055 Q 656 1114 627.5 1163.5 Q 599 1213 553.5 1244.5 Q 508 1276 440 1276 Q 394 1276 360.50003 1258.5 Q 327 1241 305 1211.5 Q 283 1182 272.5 1143.5 Q 262 1105 262 1064 Q 262 1006 281 965 Q 300 924 332.5 894.49994 Q 365 865 408 844 Q 451 823 500 806 Q 575 779 643 742.5 Q 711 706 763 655 Q 815 604 845.5 536.5 Q 876 469 876 380 Z"/>
        </g>
        <g transform="matrix(1 0 0 1 2815 1108)">
            <path fill="#000000" stroke="none" d="M 886 1002 L 732 982 L 722 1252 L 556 1246 L 546 194 L 686 198 L 676 18 L 264 8 L 258 194 L 376 194 L 374 1236 L 194 1224 L 204 972 L 38 972 L 48 1406 L 866 1436 L 886 1002 Z"/>
        </g>
        <g transform="matrix(1 0 0 1 3735 1108)">
            <path fill="#000000" stroke="none" d="M 501 198 L 491 18 L 79 8 L 73 194 L 191 194 L 189 1216 L 65 1212 L 75 1406 L 471 1406 L 487 1226 L 371 1216 L 361 194 L 501 198 Z"/>
        </g>
        <g transform="matrix(1 0 0 1 4290 1108)">
            <path fill="#000000" stroke="none" d="M 970 1256 L 846 1246 L 588 -18 L 362 -6 L 114 1226 L -10 1222 L 0 1416 L 406 1416 L 422 1236 L 306 1226 L 476 204 L 664 1246 L 540 1242 L 550 1436 L 956 1446 L 970 1256 Z"/>
        </g>
        <g transform="matrix(1 0 0 1 5246 1108)">
            <path fill="#000000" stroke="none" d="M 903 1038 L 755 1028 L 735 1234 L 371 1226 L 367 780 L 671 780 L 671 636 L 365 618 L 361 172 L 735 186 L 735 406 L 883 406 L 893 8 L 79 -12 L 73 172 L 191 172 L 189 1226 L 65 1222 L 75 1416 L 893 1426 L 903 1038 Z"/>
        </g>
        <g transform="matrix(1 0 0 1 6559 1108)">
            <path fill="#000000" stroke="none" d="M 1118 1232 L 1014 1236 L 994 172 L 1110 172 L 1116 -12 L 672 -2 L 672 178 L 814 172 L 820 550 L 364 550 L 364 194 L 482 194 L 486 8 L 52 18 L 52 198 L 194 194 L 184 1206 L 48 1216 L 52 1396 L 470 1396 L 470 1202 L 364 1206 L 364 706 L 818 722 L 822 1236 L 688 1246 L 692 1426 L 1118 1426 L 1118 1232 Z"/>
        </g>
        <g transform="matrix(1 0 0 1 7753 1108)">
            <path fill="#000000" stroke="none" d="M 349 1258 Q 349 1232 339 1209 Q 329 1186 312 1169 Q 295 1152 272 1142 Q 249 1132 223 1132 Q 197 1132 174 1142 Q 151 1152 134 1169 Q 117 1186 107 1209 Q 97 1232 97 1258 Q 97 1284 107 1307 Q 117 1330 134 1347 Q 151 1364 174 1374 Q 197 1384 223 1384 Q 249 1384 272 1374 Q 295 1364 312 1347 Q 329 1330 339 1307 Q 349 1284 349 1258 Z M 433 140 L 427 -26 L 61 -10 L 61 164 L 145 170 L 145 844 L 23 844 L 27 1018 L 349 1018 L 325 150 L 433 140 Z"/>
        </g>
        <g transform="matrix(1 0 0 1 8210 1108)">
            <path fill="#000000" stroke="none" d="M 771 510 Q 771 461 766.49994 403 Q 762 345 750.5 287 Q 739 229 717.5 174.5 Q 696 120 662.5 78 Q 629 36 581.5 11 Q 534 -14 469 -14 Q 419 -14 377.50003 15 Q 336 44 313 86 L 313 -252 L 403 -254 L 403 -412 L 21 -412 L 27 -242 L 131 -246 L 143 862 L 11 858 L 11 1022 L 279 1032 L 293 916 Q 310 940 333 961 Q 356 982 383 998 Q 410 1014 439.49997 1023 Q 469 1032 499 1032 Q 555 1032 597 1004.5 Q 639 977 669 932.5 Q 699 888 719 831.49994 Q 739 775 750.5 717 Q 762 659 766.49994 605 Q 771 551 771 510 Z M 595 496 Q 595 519 594 554 Q 593 589 588.5 628.5 Q 584 668 575 708 Q 566 748 550 780 Q 534 812 509.5 832 Q 485 852 451 852 Q 420 852 396.5 841 Q 373 830 357 810.5 Q 341 791 332.5 765 Q 324 739 323 710 Q 321 616 319 522.5 Q 317 429 317 334 Q 317 311 325.5 280.5 Q 334 250 350 223 Q 366 196 388.5 177 Q 411 158 439 158 Q 477 158 503 176 Q 529 194 546 223 Q 563 252 573 288.5 Q 583 325 588 363 Q 593 401 594 436 Q 595 471 595 496 Z"/>
        </g>
        <g transform="matrix(1 0 0 1 9033 1108)">
            <path fill="#000000" stroke="none" d="M 771 510 Q 771 461 766.49994 403 Q 762 345 750.5 287 Q 739 229 717.5 174.5 Q 696 120 662.5 78 Q 629 36 581.5 11 Q 534 -14 469 -14 Q 419 -14 377.50003 15 Q 336 44 313 86 L 313 -252 L 403 -254 L 403 -412 L 21 -412 L 27 -242 L 131 -246 L 143 862 L 11 858 L 11 1022 L 279 1032 L 293 916 Q 310 940 333 961 Q 356 982 383 998 Q 410 1014 439.49997 1023 Q 469 1032 499 1032 Q 555 1032 597 1004.5 Q 639 977 669 932.5 Q 699 888 719 831.49994 Q 739 775 750.5 717 Q 762 659 766.49994 605 Q 771 551 771 510 Z M 595 496 Q 595 519 594 554 Q 593 589 588.5 628.5 Q 584 668 575 708 Q 566 748 550 780 Q 534 812 509.5 832 Q 485 852 451 852 Q 420 852 396.5 841 Q 373 830 357 810.5 Q 341 791 332.5 765 Q 324 739 323 710 Q 321 616 319 522.5 Q 317 429 317 334 Q 317 311 325.5 280.5 Q 334 250 350 223 Q 366 196 388.5 177 Q 411 158 439 158 Q 477 158 503 176 Q 529 194 546 223 Q 563 252 573 288.5 Q 583 325 588 363 Q 593 401 594 436 Q 595 471 595 496 Z"/>
        </g>
        <g transform="matrix(1 0 0 1 9856 1108)">
            <path fill="#000000" stroke="none" d="M 787 848 L 691 842 L 453 -238 L 535 -242 L 535 -408 L 191 -412 L 185 -256 L 281 -246 L 337 -6 L 85 872 L -7 872 L 3 1042 L 339 1038 L 343 876 L 255 868 L 413 264 L 529 858 L 451 868 L 441 1028 L 787 1032 L 787 848 Z"/>
        </g>
        <g transform="matrix(1 0 0 1 11006 1108)">
            <path fill="#000000" stroke="none" d="M 688 544 Q 688 495 682 433.5 Q 676 372 661 309.5 Q 646 247 621.5 187.49998 Q 597 128 560 82 Q 523 36 473.50003 8 Q 424 -20 358 -20 Q 296 -20 249 3.5 Q 202 27 168 65.5 Q 134 104 111 155 Q 88 206 74.5 261 Q 61 316 55.5 372 Q 50 428 50 476 Q 50 527 56 588.5 Q 62 650 76.5 713.5 Q 91 777 115.5 837 Q 140 897 176.5 943.5 Q 213 990 263.5 1018 Q 314 1046 380 1046 Q 441 1046 487.49997 1022 Q 534 998 568.5 958 Q 603 918 625.5 866 Q 648 814 662 758.5 Q 676 703 682 647 Q 688 591 688 544 Z M 530 550 Q 530 572 528 604.5 Q 526 637 520.5 674 Q 515 711 505 748 Q 495 785 479 815 Q 463 845 439.49997 863.49994 Q 416 882 384 882 Q 346 882 318 858.5 Q 290 835 270.5 798 Q 251 761 239 715.5 Q 227 670 220.50002 624.5 Q 214 579 212 539 Q 210 499 210 474 Q 210 453 212 420.5 Q 214 388 220 351 Q 226 314 236.50002 277.5 Q 247 241 263 211 Q 279 181 302 162.5 Q 325 144 356 144 Q 394 144 421.5 167 Q 449 190 468.5 226.5 Q 488 263 500 308 Q 512 353 518.5 398.5 Q 525 444 527.5 484 Q 530 524 530 550 Z"/>
        </g>
        <g transform="matrix(1 0 0 1 11743 1108)">
            <path fill="#000000" stroke="none" d="M 569 800 Q 531 792 495 773 Q 459 754 431 726.5 Q 403 699 386 663.5 Q 369 628 369 586 Q 369 486 368 388 Q 367 290 365 190 L 511 184 L 511 4 L 23 -6 L 37 184 L 169 190 L 183 834 L 77 830 L 71 1014 L 339 1040 L 339 902 Q 360 919 388 939 Q 416 959 447 977 Q 478 995 509.5 1009.5 Q 541 1024 569 1030 L 569 800 Z"/>
        </g>
        <g transform="matrix(1 0 0 1 12342 1108)">
            <path fill="#000000" stroke="none" d="M 740 170 L 736 10 L 530 -10 L 520 106 Q 499 84 471.49997 63 Q 444 42 412.5 25.500002 Q 381 9 347.5 -0.5 Q 314 -10 282 -10 Q 220 -10 177.5 15 Q 135 40 109.49999 80.5 Q 84 121 73 172.50002 Q 62 224 62 278 Q 62 346 84.5 402 Q 107 458 147.5 497.5 Q 188 537 245 558.5 Q 302 580 370 580 Q 397 580 423.49997 576.5 Q 450 573 476 564 Q 478 581 478 596 Q 478 611 478 628 Q 478 637 477 657.5 Q 476 678 473.50003 703.49994 Q 471 729 466 756.5 Q 461 784 452.5 806.5 Q 444 829 432.5 843.5 Q 421 858 404 858 Q 376 858 350 830.49994 Q 324 803 303.5 765.49994 Q 283 728 268.5 691 Q 254 654 248 634 L 78 642 L 72 1014 L 238 1018 L 238 872 Q 248 898 265 926 Q 282 954 304.5 976.5 Q 327 999 355 1013.5 Q 383 1028 414 1028 Q 491 1028 537 1005 Q 583 982 607.5 940.5 Q 632 899 640 841 Q 648 783 648 712 Q 648 576 646 441 Q 644 306 632 170 L 740 170 Z M 482 238 L 482 384 Q 468 404 440.50003 410 Q 413 416 390 416 Q 318 416 273 380.5 Q 228 345 228 268 Q 228 221 253 188.50002 Q 278 156 328 156 Q 345 156 371 160.5 Q 397 165 421.5 175 Q 446 185 464 200.5 Q 482 216 482 238 Z"/>
        </g>
        <g transform="matrix(1 0 0 1 13108 1108)">
            <path fill="#000000" stroke="none" d="M 861 142 L 841 -18 L 505 -4 L 501 158 L 589 168 Q 592 304 594.5 439 Q 597 574 597 710 Q 597 734 592.5 760 Q 588 786 577 808 Q 566 830 546.5 844 Q 527 858 497 858 Q 453 858 422.49997 833.50006 Q 392 809 373 773 Q 354 737 345.50003 695 Q 337 653 335 618 Q 330 505 328.5 393 Q 327 281 325 168 L 413 168 L 423 6 L 77 2 L 77 186 L 175 192 L 169 842 L 23 852 L 27 1022 L 315 1032 L 321 890 Q 341 920 368.5 947.5 Q 396 975 429 996 Q 462 1017 498.5 1029.5 Q 535 1042 573 1042 Q 618 1042 650 1027 Q 682 1012 704 986 Q 726 960 738.50006 926.49994 Q 751 893 758 855.5 Q 765 818 767 779.5 Q 769 741 769 706 Q 769 567 765.49994 429 Q 762 291 759 152 L 861 142 Z"/>
        </g>
        <g transform="matrix(1 0 0 1 13994 1108)">
            <path fill="#000000" stroke="none" d="M 760 1058 L 604 920 Q 624 867 631 803.50006 Q 638 740 638 684 Q 638 611 620.5 548 Q 603 485 566.5 437.5 Q 530 390 473.50003 360 Q 417 330 340 322 Q 332 317 322.5 310 Q 313 303 305 294.5 Q 297 286 291.5 276.5 Q 286 267 286 256 Q 286 247 292 234.5 Q 298 222 306 210 Q 314 198 322.5 187 Q 331 176 336 170 Q 404 170 469 157 Q 534 144 585.5 112.5 Q 637 81 668.5 29 Q 700 -23 700 -102 Q 700 -169 668.5 -224.5 Q 637 -280 586.5 -320.5 Q 536 -361 473 -383.5 Q 410 -406 348 -406 Q 283 -406 227.49998 -386.5 Q 172 -367 131.5 -330.5 Q 91 -294 68.5 -241.5 Q 46 -189 46 -122 Q 46 -48 76.5 16.5 Q 107 81 170 122 Q 152 151 138 183 Q 124 215 124 248 Q 124 283 142 316 Q 160 349 190 366 Q 156 392 131.5 430.5 Q 107 469 90.50001 513.5 Q 74 558 66 604.5 Q 58 651 58 692 Q 58 772 76 838.5 Q 94 905 132 953 Q 170 1001 229.5 1027.5 Q 289 1054 372 1054 Q 394 1054 411.5 1052 Q 429 1050 445 1045.5 Q 461 1041 477 1034.5 Q 493 1028 512 1018 L 638 1178 L 760 1058 Z M 472 696 Q 472 725 465.5 758 Q 459 791 444 819.5 Q 429 848 405 867 Q 381 886 346 886 Q 306 886 281.5 869.5 Q 257 853 244.50002 826.5 Q 232 800 228 767 Q 224 734 224 702 Q 224 675 229.5 638 Q 235 601 248.5 567 Q 262 533 285.5 509.5 Q 309 486 346 486 Q 381 486 405 508.5 Q 429 531 444 563.5 Q 459 596 465.5 632 Q 472 668 472 696 Z M 540 -98 Q 540 -63 521 -39 Q 502 -15 473.50003 0 Q 445 15 412 21.500002 Q 379 28 350 28 Q 284 28 251 -13.5 Q 218 -55 218 -118 Q 218 -150 234 -172 Q 250 -194 274 -207.5 Q 298 -221 327.5 -227.49998 Q 357 -234 384 -234 Q 413 -234 440.50003 -224.5 Q 468 -215 490.5 -197 Q 513 -179 526.5 -154 Q 540 -129 540 -98 Z"/>
        </g>
        <g transform="matrix(1 0 0 1 14715 1108)">
            <path fill="#000000" stroke="none" d="M 667 606 Q 667 524 661 446 L 231 438 Q 232 417 233.5 387.5 Q 235 358 239.5 325.5 Q 244 293 252.50002 261.5 Q 261 230 275 204.50002 Q 289 179 309.5 163.5 Q 330 148 359 148 Q 391 148 413 164.5 Q 435 181 449.5 205.5 Q 464 230 472 259.5 Q 480 289 483 314 L 657 314 Q 648 257 627 199 Q 606 141 571 94 Q 536 47 486 17.5 Q 436 -12 369 -12 Q 299 -12 248.5 14.5 Q 198 41 163 85 Q 128 129 106 186.5 Q 84 244 72.5 305.5 Q 61 367 57 429 Q 53 491 53 544 Q 53 593 58.5 648.5 Q 64 704 77 759 Q 90 814 112.5 865 Q 135 916 169 954.5 Q 203 993 250 1016.5 Q 297 1040 359 1040 Q 465 1040 526 1006.5 Q 587 973 618.5 914.5 Q 650 856 658.5 777 Q 667 698 667 606 Z M 493 664 Q 493 694 489.50003 732 Q 486 770 473.50003 804 Q 461 838 437.5 861 Q 414 884 373 884 Q 321 884 292 851 Q 263 818 249.5 770.50006 Q 236 723 233 671.5 Q 230 620 229 582 L 487 582 Q 493 624 493 664 Z"/>
        </g>
        <g transform="matrix(1 0 0 1 15793 1108)">
            <path fill="#000000" stroke="none" d="M 740 170 L 736 10 L 530 -10 L 520 106 Q 499 84 471.49997 63 Q 444 42 412.5 25.500002 Q 381 9 347.5 -0.5 Q 314 -10 282 -10 Q 220 -10 177.5 15 Q 135 40 109.49999 80.5 Q 84 121 73 172.50002 Q 62 224 62 278 Q 62 346 84.5 402 Q 107 458 147.5 497.5 Q 188 537 245 558.5 Q 302 580 370 580 Q 397 580 423.49997 576.5 Q 450 573 476 564 Q 478 581 478 596 Q 478 611 478 628 Q 478 637 477 657.5 Q 476 678 473.50003 703.49994 Q 471 729 466 756.5 Q 461 784 452.5 806.5 Q 444 829 432.5 843.5 Q 421 858 404 858 Q 376 858 350 830.49994 Q 324 803 303.5 765.49994 Q 283 728 268.5 691 Q 254 654 248 634 L 78 642 L 72 1014 L 238 1018 L 238 872 Q 248 898 265 926 Q 282 954 304.5 976.5 Q 327 999 355 1013.5 Q 383 1028 414 1028 Q 491 1028 537 1005 Q 583 982 607.5 940.5 Q 632 899 640 841 Q 648 783 648 712 Q 648 576 646 441 Q 644 306 632 170 L 740 170 Z M 482 238 L 482 384 Q 468 404 440.50003 410 Q 413 416 390 416 Q 318 416 273 380.5 Q 228 345 228 268 Q 228 221 253 188.50002 Q 278 156 328 156 Q 345 156 371 160.5 Q 397 165 421.5 175 Q 446 185 464 200.5 Q 482 216 482 238 Z"/>
        </g>
        <g transform="matrix(1 0 0 1 16559 1108)">
            <path fill="#000000" stroke="none" d="M 637 232 Q 637 177 615.5 130 Q 594 83 557 48.5 Q 520 14 471.49997 -5 Q 423 -24 369 -24 Q 319 -24 278 3 Q 237 30 207 66 L 185 -20 L 59 -10 L 69 322 L 261 320 Q 259 308 258 295 Q 257 282 257 270 Q 257 246 263 223.5 Q 269 201 281 183 Q 293 165 312.5 154.5 Q 332 144 359 144 Q 379 144 395 153.5 Q 411 163 422.49997 178 Q 434 193 440.50003 211 Q 447 229 447 246 Q 447 289 427.5 323 Q 408 357 378 384 Q 348 411 312 432 Q 276 453 243 470 Q 189 499 153.5 530 Q 118 561 97 598.5 Q 76 636 67.5 682 Q 59 728 59 786 Q 59 842 80.5 888.5 Q 102 935 139 969.5 Q 176 1004 224.5 1023 Q 273 1042 327 1042 Q 377 1042 418 1015 Q 459 988 489 952 L 511 1038 L 637 1028 L 627 696 L 435 698 Q 437 710 438 723 Q 439 736 439 748 Q 439 772 433 794.5 Q 427 817 415 835 Q 403 853 383.5 863.49994 Q 364 874 337 874 Q 318 874 302 864.50006 Q 286 855 274 840 Q 262 825 255.5 807 Q 249 789 249 772 Q 249 729 267.5 694.5 Q 286 660 314.5 633 Q 343 606 379 584.5 Q 415 563 449 546 Q 501 519 536.5 488 Q 572 457 594.5 419 Q 617 381 627 335 Q 637 289 637 232 Z"/>
        </g>
        <g transform="matrix(1 0 0 1 17253 1108)">
            <path fill="#000000" stroke="none" d="M 566 1018 L 562 838 L 386 838 Q 383 704 380.5 570 Q 378 436 378 300 Q 378 269 390.49997 244.50002 Q 403 220 424 203.49998 Q 445 187 472 178.5 Q 499 170 528 170 Q 537 170 545 170 Q 553 170 562 172 L 562 -6 Q 514 -18 464 -18 Q 399 -18 347 5.5 Q 295 29 259 69.5 Q 223 110 203.49998 164.5 Q 184 219 184 280 Q 184 420 186.5 559 Q 189 698 192 838 L 40 838 L 40 1018 L 196 1018 L 208 1366 L 398 1366 L 390 1018 L 566 1018 Z"/>
        </g>
        <g transform="matrix(1 0 0 1 17863 1108)">
            <path fill="#000000" stroke="none" d="M 688 544 Q 688 495 682 433.5 Q 676 372 661 309.5 Q 646 247 621.5 187.49998 Q 597 128 560 82 Q 523 36 473.50003 8 Q 424 -20 358 -20 Q 296 -20 249 3.5 Q 202 27 168 65.5 Q 134 104 111 155 Q 88 206 74.5 261 Q 61 316 55.5 372 Q 50 428 50 476 Q 50 527 56 588.5 Q 62 650 76.5 713.5 Q 91 777 115.5 837 Q 140 897 176.5 943.5 Q 213 990 263.5 1018 Q 314 1046 380 1046 Q 441 1046 487.49997 1022 Q 534 998 568.5 958 Q 603 918 625.5 866 Q 648 814 662 758.5 Q 676 703 682 647 Q 688 591 688 544 Z M 530 550 Q 530 572 528 604.5 Q 526 637 520.5 674 Q 515 711 505 748 Q 495 785 479 815 Q 463 845 439.49997 863.49994 Q 416 882 384 882 Q 346 882 318 858.5 Q 290 835 270.5 798 Q 251 761 239 715.5 Q 227 670 220.50002 624.5 Q 214 579 212 539 Q 210 499 210 474 Q 210 453 212 420.5 Q 214 388 220 351 Q 226 314 236.50002 277.5 Q 247 241 263 211 Q 279 181 302 162.5 Q 325 144 356 144 Q 394 144 421.5 167 Q 449 190 468.5 226.5 Q 488 263 500 308 Q 512 353 518.5 398.5 Q 525 444 527.5 484 Q 530 524 530 550 Z"/>
        </g>
        <g transform="matrix(1 0 0 1 18600 1108)">
            <path fill="#000000" stroke="none" d="M 862 160 L 858 -10 L 570 -20 L 564 142 Q 544 112 516.5 84.5 Q 489 57 456.50003 36 Q 424 15 388 2.5 Q 352 -10 314 -10 Q 269 -10 236.50002 5 Q 204 20 182 46 Q 160 72 147 105.49999 Q 134 139 127 176.5 Q 120 214 118 252.50002 Q 116 291 116 326 Q 116 462 119.5 597.5 Q 123 733 126 870 L 24 880 L 44 1040 L 302 1026 Q 297 846 292.5 670 Q 288 494 288 314 Q 288 291 293 266 Q 298 241 309.5 220.50002 Q 321 200 340.5 187 Q 360 174 388 174 Q 432 174 462.5 198.5 Q 493 223 512 259 Q 531 295 540 337 Q 549 379 550 414 Q 556 524 557 634 Q 558 744 560 854 L 472 854 L 462 1016 L 732 1020 L 716 170 L 862 160 Z"/>
        </g>
        <g transform="matrix(1 0 0 1 19463 1108)">
            <path fill="#000000" stroke="none" d="M 861 142 L 841 -18 L 505 -4 L 501 158 L 589 168 Q 592 304 594.5 439 Q 597 574 597 710 Q 597 734 592.5 760 Q 588 786 577 808 Q 566 830 546.5 844 Q 527 858 497 858 Q 453 858 422.49997 833.50006 Q 392 809 373 773 Q 354 737 345.50003 695 Q 337 653 335 618 Q 330 505 328.5 393 Q 327 281 325 168 L 413 168 L 423 6 L 77 2 L 77 186 L 175 192 L 169 842 L 23 852 L 27 1022 L 315 1032 L 321 890 Q 341 920 368.5 947.5 Q 396 975 429 996 Q 462 1017 498.5 1029.5 Q 535 1042 573 1042 Q 618 1042 650 1027 Q 682 1012 704 986 Q 726 960 738.50006 926.49994 Q 751 893 758 855.5 Q 765 818 767 779.5 Q 769 741 769 706 Q 769 567 765.49994 429 Q 762 291 759 152 L 861 142 Z"/>
        </g>
        <g transform="matrix(1 0 0 1 20349 1108)">
            <path fill="#000000" stroke="none" d="M 821 -2 L 553 -10 L 539 106 Q 506 52 451 21 Q 396 -10 333 -10 Q 272 -10 227 16 Q 182 42 150.5 85 Q 119 128 99.5 183 Q 80 238 69.5 296 Q 59 354 55 410 Q 51 466 51 512 Q 51 558 57 615.5 Q 63 673 77.5 732 Q 92 791 115.5 847 Q 139 903 173.5 947 Q 208 991 255 1017.5 Q 302 1044 363 1044 Q 410 1044 452.5 1019.5 Q 495 995 519 956 L 519 1282 L 339 1282 L 339 1454 L 705 1448 L 689 160 L 821 164 L 821 -2 Z M 513 736 Q 507 754 496 776.5 Q 485 799 469.5 818.5 Q 454 838 435 851 Q 416 864 393 864 Q 360 864 335.5 845 Q 311 826 294 796 Q 277 766 265.5 728.5 Q 254 691 248 653.5 Q 242 616 239.5 582.5 Q 237 549 237 526 Q 237 506 237 471.49997 Q 237 437 240 397.5 Q 243 358 250.5 317.5 Q 258 277 272 244 Q 286 211 308 190.5 Q 330 170 363 170 Q 389 170 411.5 184.5 Q 434 199 453 220.50002 Q 472 242 486.49997 266.5 Q 501 291 509 310 L 513 736 Z"/>
        </g>
        <g transform="matrix(1 0 0 1 21540 1108)">
            <path fill="#000000" stroke="none" d="M 437 850 L 487 686 L 311 616 L 303 168 L 411 158 L 405 -8 L 39 8 L 39 182 L 123 188 L 123 542 L 35 506 L 9 690 L 123 732 L 123 1264 L 1 1264 L 5 1440 L 327 1440 L 315 804 L 437 850 Z"/>
        </g>
        <g transform="matrix(1 0 0 1 22009 1108)">
            <path fill="#000000" stroke="none" d="M 667 606 Q 667 524 661 446 L 231 438 Q 232 417 233.5 387.5 Q 235 358 239.5 325.5 Q 244 293 252.50002 261.5 Q 261 230 275 204.50002 Q 289 179 309.5 163.5 Q 330 148 359 148 Q 391 148 413 164.5 Q 435 181 449.5 205.5 Q 464 230 472 259.5 Q 480 289 483 314 L 657 314 Q 648 257 627 199 Q 606 141 571 94 Q 536 47 486 17.5 Q 436 -12 369 -12 Q 299 -12 248.5 14.5 Q 198 41 163 85 Q 128 129 106 186.5 Q 84 244 72.5 305.5 Q 61 367 57 429 Q 53 491 53 544 Q 53 593 58.5 648.5 Q 64 704 77 759 Q 90 814 112.5 865 Q 135 916 169 954.5 Q 203 993 250 1016.5 Q 297 1040 359 1040 Q 465 1040 526 1006.5 Q 587 973 618.5 914.5 Q 650 856 658.5 777 Q 667 698 667 606 Z M 493 664 Q 493 694 489.50003 732 Q 486 770 473.50003 804 Q 461 838 437.5 861 Q 414 884 373 884 Q 321 884 292 851 Q 263 818 249.5 770.50006 Q 236 723 233 671.5 Q 230 620 229 582 L 487 582 Q 493 624 493 664 Z"/>
        </g>
        <g transform="matrix(1 0 0 1 22727 1108)">
            <path fill="#000000" stroke="none" d="M 406 158 L 400 -8 L 34 8 L 34 182 L 118 188 L 118 1264 L -4 1264 L 0 1440 L 322 1440 L 298 168 L 406 158 Z M 649 1276 Q 649 1201 613.5 1138 Q 578 1075 515 1036 L 463 1078 Q 475 1090 491.5 1111 Q 508 1132 511 1150 Q 486 1152 465 1163 Q 444 1174 428.5 1190.5 Q 413 1207 404 1229 Q 395 1251 395 1276 Q 395 1302 405 1325.5 Q 415 1349 432 1366.5 Q 449 1384 472 1394 Q 495 1404 521 1404 Q 547 1404 570.5 1394 Q 594 1384 611.5 1366.5 Q 629 1349 639 1325.5 Q 649 1302 649 1276 Z"/>
        </g>
        <g transform="matrix(1 0 0 1 23427 1108)">
            <path fill="#000000" stroke="none" d="M 861 160 L 857 -10 L 569 -20 L 563 142 Q 543 112 515.5 84.5 Q 488 57 455.49997 36 Q 423 15 387 2.5 Q 351 -10 313 -10 Q 268 -10 235.49998 5 Q 203 20 181 46 Q 159 72 146 105.49999 Q 133 139 126 176.5 Q 119 214 117 252.50002 Q 115 291 115 326 Q 115 462 118.50001 597.5 Q 122 733 125 870 L 23 880 L 43 1040 L 301 1026 Q 296 846 291.5 670 Q 287 494 287 314 Q 287 291 292 266 Q 297 241 308.5 220.50002 Q 320 200 339.5 187 Q 359 174 387 174 Q 431 174 461.5 198.5 Q 492 223 511 259 Q 530 295 539 337 Q 548 379 549 414 Q 555 524 556 634 Q 557 744 559 854 L 471 854 L 461 1016 L 731 1020 L 715 170 L 861 160 Z M 673 1161 Q 660 1149 642 1137 Q 624 1125 604.5 1115 Q 585 1105 564.5 1099 Q 544 1093 525 1093 Q 499 1093 474.5 1106 Q 450 1119 427 1134 Q 404 1149 382 1162 Q 360 1175 337 1175 Q 325 1175 309 1164.5 Q 293 1154 277 1139.5 Q 261 1125 247.5 1110 Q 234 1095 227 1087 L 187 1207 Q 199 1221 216.5 1238 Q 234 1255 254.5 1269.5 Q 275 1284 297 1293.5 Q 319 1303 339 1303 Q 365 1303 387 1290.5 Q 409 1278 430.5 1263 Q 452 1248 474.5 1235.5 Q 497 1223 525 1223 Q 555 1223 585 1242.5 Q 615 1262 633 1283 L 673 1161 Z"/>
        </g>
        <g transform="matrix(1 0 0 1 24290 1108)">
            <path fill="#000000" stroke="none" d="M 511 569 L 380 572 Q 379 503 378.5 436 Q 378 369 378 300 Q 378 269 390.49997 244.50002 Q 403 220 424 203.49998 Q 445 187 472 178.5 Q 499 170 528 170 Q 537 170 545 170 Q 553 170 562 172 L 562 -6 Q 514 -18 464 -18 Q 399 -18 347 5.5 Q 295 29 259 69.5 Q 223 110 203.49998 164.5 Q 184 219 184 280 Q 184 355 184.5 428.5 Q 185 502 186 577 L 99 579 L 109 703 L 189 703 L 192 838 L 40 838 L 40 1018 L 196 1018 L 208 1366 L 398 1366 L 390 1018 L 566 1018 L 562 838 L 386 838 L 383 703 L 501 703 L 511 569 Z"/>
        </g>
        <g transform="matrix(1 0 0 1 24900 1108)">
            <path fill="#000000" stroke="none" d="M 687 544 Q 687 495 681 433.5 Q 675 372 660 309.5 Q 645 247 620.5 187.49998 Q 596 128 559 82 Q 522 36 472.50003 8 Q 423 -20 357 -20 Q 295 -20 248 3.5 Q 201 27 167 65.5 Q 133 104 110 155 Q 87 206 73.5 261 Q 60 316 54.5 372 Q 49 428 49 476 Q 49 527 55 588.5 Q 61 650 75.5 713.5 Q 90 777 114.50001 837 Q 139 897 175.5 943.5 Q 212 990 262.5 1018 Q 313 1046 379 1046 Q 440 1046 486.49997 1022 Q 533 998 567.5 958 Q 602 918 624.5 866 Q 647 814 661 758.5 Q 675 703 681 647 Q 687 591 687 544 Z M 529 550 Q 529 572 527 604.5 Q 525 637 519.5 674 Q 514 711 504 748 Q 494 785 478 815 Q 462 845 438.49997 863.49994 Q 415 882 383 882 Q 345 882 317 858.5 Q 289 835 269.5 798 Q 250 761 238 715.5 Q 226 670 219.49998 624.5 Q 213 579 211 539 Q 209 499 209 474 Q 209 453 211 420.5 Q 213 388 219 351 Q 225 314 235.49998 277.5 Q 246 241 262 211 Q 278 181 301 162.5 Q 324 144 355 144 Q 393 144 420.5 167 Q 448 190 467.5 226.5 Q 487 263 499 308 Q 511 353 517.5 398.5 Q 524 444 526.5 484 Q 529 524 529 550 Z M 645 1344 L 423 1112 L 329 1142 L 459 1394 L 645 1344 Z"/>
        </g>
    </g>
</svg>
