<svg width="50944" height="2849" viewBox="0 0 50944 2849" xmlns="http://www.w3.org/2000/svg">
    <defs/>
    <path fill="#000000" stroke="none" transform="matrix(1 0 0 -1 0 1915)" d="M 356 588 L 356 0 L 231 0 L 231 1374 L 915 1374 C 1019.66666666667 1374 1109.33333333333 1366 1184 1350 C 1258.66666666667 1333.33333333333 1320 1308.66666666667 1368 1276 C 1415.33333333333 1242.66666666667 1450 1201.33333333333 1472 1152 C 1494 1102.66666666667 1505 1045 1505 979 C 1505 876.33333333333 1478 794.33333333333 1424 733 C 1370 671 1283 628.66666666667 1163 606 L 1632 0 L 1475 0 L 1032 592 C 1013.33333333333 590.66666666667 994.33333333333 589.66666666667 975 589 C 955.66666666667 588.33333333333 935.66666666667 588 915 588 L 356 588 Z M 1376 979 C 1376 1037.66666666667 1365.66666666667 1085.33333333333 1345 1122 C 1324.33333333333 1158 1290.66666666667 1186 1244 1206 C 1197.33333333333 1226 1136.33333333333 1239.66666666667 1061 1247 C 985 1253.66666666667 892 1257 782 1257 L 356 1257 L 356 705 L 778 705 C 888 705 981 708.33333333333 1057 715 C 1133 721 1194.66666666667 734 1242 754 C 1289.33333333333 773.33333333333 1323.66666666667 801 1345 837 C 1365.66666666667 872.33333333333 1376 919.66666666667 1376 979 Z"/>
    <path fill="#000000" stroke="none" transform="matrix(1 0 0 -1 1706 1915)" d="M 231 0 L 231 1374 L 1376 1374 L 1376 1257 L 367 1257 L 367 784 L 1325 784 L 1325 668 L 367 668 L 367 117 L 1391 117 L 1391 0 L 231 0 Z"/>
    <path fill="#000000" stroke="none" transform="matrix(1 0 0 -1 3252 1915)" d="M 928 0 L 741 0 L 55 1374 L 195 1374 L 838 86 L 1481 1374 L 1620 1374 L 928 0 Z"/>
    <path fill="#000000" stroke="none" transform="matrix(1 0 0 -1 4907 1915)" d="M 1880 686 C 1880 562.66666666667 1857.66666666667 456.33333333333 1813 367 C 1768.33333333333 277 1707 203 1629 145 C 1551 86.33333333333 1459 43 1353 15 C 1247 -13 1132.66666666667 -27 1010 -27 C 886.66666666667 -27 771.66666666667 -13 665 15 C 558.33333333333 43 465.66666666667 86.33333333333 387 145 C 308.33333333333 203 246.66666666667 277 202 367 C 157.33333333333 456.33333333333 135 562.66666666667 135 686 C 135 768 145.33333333333 842.66666666667 166 910 C 186.66666666667 976.66666666667 215.66666666667 1036.66666666667 253 1090 C 290.33333333333 1142.66666666667 335.66666666667 1188.33333333333 389 1227 C 441.66666666667 1265.66666666667 500.66666666667 1298 566 1324 C 630.66666666667 1349.33333333333 700.33333333333 1368.33333333333 775 1381 C 849.66666666667 1393 928 1399 1010 1399 C 1132.66666666667 1399 1247 1385 1353 1357 C 1459 1329 1551 1286 1629 1228 C 1707 1169.33333333333 1768.33333333333 1095.33333333333 1813 1006 C 1857.66666666667 916 1880 809.33333333333 1880 686 Z M 1751 686 C 1751 783.33333333333 1735.33333333333 869.33333333333 1704 944 C 1672 1018.66666666667 1625 1081.66666666667 1563 1133 C 1501 1183.66666666667 1424 1222.33333333333 1332 1249 C 1239.33333333333 1275 1132 1288 1010 1288 C 888 1288 780.66666666667 1274.66666666667 688 1248 C 594.66666666667 1221.33333333333 516.66666666667 1182.66666666667 454 1132 C 391.33333333333 1080.66666666667 344 1017.66666666667 312 943 C 280 867.66666666667 264 782 264 686 C 264 588.66666666667 280 502.66666666667 312 428 C 344 353.33333333333 391.33333333333 290.66666666667 454 240 C 516.66666666667 188.66666666667 594.66666666667 150 688 124 C 780.66666666667 97.33333333333 888 84 1010 84 C 1132 84 1239.33333333333 97.33333333333 1332 124 C 1424 150 1501 188.66666666667 1563 240 C 1625 290.66666666667 1672 353.33333333333 1704 428 C 1735.33333333333 502.66666666667 1751 588.66666666667 1751 686 Z"/>
    <path fill="#000000" stroke="none" transform="matrix(1 0 0 -1 6922 1915)" d="M 231 0 L 231 1374 L 356 1374 L 356 117 L 1360 117 L 1360 0 L 231 0 Z"/>
    <path fill="#000000" stroke="none" transform="matrix(1 0 0 -1 8092 1915)" d="M 788 1260 L 788 0 L 664 0 L 664 1260 L 39 1260 L 39 1374 L 1413 1374 L 1413 1260 L 788 1260 Z"/>
    <path fill="#000000" stroke="none" transform="matrix(1 0 0 -1 10314 1915)" d="M 356 588 L 356 0 L 231 0 L 231 1374 L 915 1374 C 1019.66666666667 1374 1109.33333333333 1366 1184 1350 C 1258.66666666667 1333.33333333333 1320 1308.66666666667 1368 1276 C 1415.33333333333 1242.66666666667 1450 1201.33333333333 1472 1152 C 1494 1102.66666666667 1505 1045 1505 979 C 1505 876.33333333333 1478 794.33333333333 1424 733 C 1370 671 1283 628.66666666667 1163 606 L 1632 0 L 1475 0 L 1032 592 C 1013.33333333333 590.66666666667 994.33333333333 589.66666666667 975 589 C 955.66666666667 588.33333333333 935.66666666667 588 915 588 L 356 588 Z M 1376 979 C 1376 1037.66666666667 1365.66666666667 1085.33333333333 1345 1122 C 1324.33333333333 1158 1290.66666666667 1186 1244 1206 C 1197.33333333333 1226 1136.33333333333 1239.66666666667 1061 1247 C 985 1253.66666666667 892 1257 782 1257 L 356 1257 L 356 705 L 778 705 C 888 705 981 708.33333333333 1057 715 C 1133 721 1194.66666666667 734 1242 754 C 1289.33333333333 773.33333333333 1323.66666666667 801 1345 837 C 1365.66666666667 872.33333333333 1376 919.66666666667 1376 979 Z"/>
    <path fill="#000000" stroke="none" transform="matrix(1 0 0 -1 12020 1915)" d="M 1616 72 C 1560 54.66666666667 1508 40 1460 28 C 1412 15.33333333333 1364.66666666667 5.33333333333 1318 -2 C 1271.33333333333 -10 1224 -15.66666666667 1176 -19 C 1127.33333333333 -23 1074 -25 1016 -25 C 881.33333333333 -25 759.66666666667 -8.66666666667 651 24 C 542.33333333333 56.66666666667 450 103.66666666667 374 165 C 297.33333333333 225.66666666667 238.33333333333 299.33333333333 197 386 C 155.66666666667 472.66666666667 135 570 135 678 C 135 782.66666666667 155 878.66666666667 195 966 C 234.33333333333 1053.33333333333 289.66666666667 1128.33333333333 361 1191 C 432.33333333333 1253.66666666667 517.66666666667 1302.33333333333 617 1337 C 716.33333333333 1371.66666666667 826 1389 946 1389 C 1070.66666666667 1389 1181.66666666667 1372.33333333333 1279 1339 C 1376.33333333333 1305.66666666667 1458.33333333333 1258 1525 1196 C 1591.66666666667 1134 1642.33333333333 1059 1677 971 C 1711.66666666667 882.33333333333 1729 782.66666666667 1729 672 L 1729 641 L 264 641 C 271.33333333333 555.66666666667 292.66666666667 478.66666666667 328 410 C 363.33333333333 341.33333333333 413.66666666667 283 479 235 C 543.66666666667 187 623.66666666667 150.33333333333 719 125 C 813.66666666667 99 924.33333333333 86 1051 86 C 1105 86 1159.66666666667 89.66666666667 1215 97 C 1270.33333333333 104.33333333333 1323.33333333333 114.33333333333 1374 127 C 1424.66666666667 139 1471 153 1513 169 C 1555 184.33333333333 1589.33333333333 200.33333333333 1616 217 L 1616 72 Z M 1606 750 C 1601.33333333333 820 1585.66666666667 887 1559 951 C 1532.33333333333 1014.33333333333 1492.66666666667 1070.33333333333 1440 1119 C 1386.66666666667 1167.66666666667 1319.33333333333 1206.33333333333 1238 1235 C 1156 1263.66666666667 1058 1278 944 1278 C 836.66666666667 1278 742.66666666667 1263.66666666667 662 1235 C 581.33333333333 1206.33333333333 513 1168 457 1120 C 401 1071.33333333333 357 1015.33333333333 325 952 C 293 888 272.66666666667 820.66666666667 264 750 L 1606 750 Z"/>
    <path fill="#000000" stroke="none" transform="matrix(1 0 0 -1 13864 1915)" d="M 928 0 L 741 0 L 55 1374 L 195 1374 L 838 86 L 1481 1374 L 1620 1374 L 928 0 Z"/>
    <path fill="#000000" stroke="none" transform="matrix(1 0 0 -1 15519 1915)" d="M 1880 686 C 1880 562.66666666667 1857.66666666667 456.33333333333 1813 367 C 1768.33333333333 277 1707 203 1629 145 C 1551 86.33333333333 1459 43 1353 15 C 1247 -13 1132.66666666667 -27 1010 -27 C 886.66666666667 -27 771.66666666667 -13 665 15 C 558.33333333333 43 465.66666666667 86.33333333333 387 145 C 308.33333333333 203 246.66666666667 277 202 367 C 157.33333333333 456.33333333333 135 562.66666666667 135 686 C 135 768 145.33333333333 842.66666666667 166 910 C 186.66666666667 976.66666666667 215.66666666667 1036.66666666667 253 1090 C 290.33333333333 1142.66666666667 335.66666666667 1188.33333333333 389 1227 C 441.66666666667 1265.66666666667 500.66666666667 1298 566 1324 C 630.66666666667 1349.33333333333 700.33333333333 1368.33333333333 775 1381 C 849.66666666667 1393 928 1399 1010 1399 C 1132.66666666667 1399 1247 1385 1353 1357 C 1459 1329 1551 1286 1629 1228 C 1707 1169.33333333333 1768.33333333333 1095.33333333333 1813 1006 C 1857.66666666667 916 1880 809.33333333333 1880 686 Z M 1751 686 C 1751 783.33333333333 1735.33333333333 869.33333333333 1704 944 C 1672 1018.66666666667 1625 1081.66666666667 1563 1133 C 1501 1183.66666666667 1424 1222.33333333333 1332 1249 C 1239.33333333333 1275 1132 1288 1010 1288 C 888 1288 780.66666666667 1274.66666666667 688 1248 C 594.66666666667 1221.33333333333 516.66666666667 1182.66666666667 454 1132 C 391.33333333333 1080.66666666667 344 1017.66666666667 312 943 C 280 867.66666666667 264 782 264 686 C 264 588.66666666667 280 502.66666666667 312 428 C 344 353.33333333333 391.33333333333 290.66666666667 454 240 C 516.66666666667 188.66666666667 594.66666666667 150 688 124 C 780.66666666667 97.33333333333 888 84 1010 84 C 1132 84 1239.33333333333 97.33333333333 1332 124 C 1424 150 1501 188.66666666667 1563 240 C 1625 290.66666666667 1672 353.33333333333 1704 428 C 1735.33333333333 502.66666666667 1751 588.66666666667 1751 686 Z"/>
    <path fill="#000000" stroke="none" transform="matrix(1 0 0 -1 17534 1915)" d="M 356 475 C 356 413 361 359.66666666667 371 315 C 381 270.33333333333 402 233.66666666667 434 205 C 466 176.33333333333 512.33333333333 155.33333333333 573 142 C 633 128 713 121 813 121 L 1434 121 L 1434 0 L 788 0 C 678 0 587.33333333333 9 516 27 C 444 44.33333333333 387 71.66666666667 345 109 C 302.33333333333 145.66666666667 272.66666666667 192.33333333333 256 249 C 239.33333333333 305.66666666667 231 373 231 451 L 231 1374 L 356 1374 L 356 475 Z"/>
    <path fill="#000000" stroke="none" transform="matrix(1 0 0 -1 18988 1915)" d="M 788 1260 L 788 0 L 664 0 L 664 1260 L 39 1260 L 39 1374 L 1413 1374 L 1413 1260 L 788 1260 Z"/>
    <path fill="#000000" stroke="none" transform="matrix(1 0 0 -1 21210 1915)" d="M 1249 1268 C 1229.66666666667 1274 1203 1280.66666666667 1169 1288 C 1134.33333333333 1294.66666666667 1090 1298 1036 1298 C 961.33333333333 1298 891.33333333333 1289 826 1271 C 760 1252.33333333333 699 1227.33333333333 643 1196 C 586.33333333333 1164.66666666667 534 1128.33333333333 486 1087 C 438 1045 394.66666666667 1000.66666666667 356 954 L 356 0 L 231 0 L 231 1374 L 356 1374 L 356 1094 C 400.66666666667 1140 449.33333333333 1182.33333333333 502 1221 C 554 1259.66666666667 609 1293 667 1321 C 725 1348.33333333333 786 1370 850 1386 C 913.33333333333 1401.33333333333 979 1409 1047 1409 C 1070.33333333333 1409 1091.33333333333 1408.66666666667 1110 1408 C 1128.66666666667 1406.66666666667 1146 1405.33333333333 1162 1404 C 1177.33333333333 1402 1192 1400 1206 1398 C 1220 1396 1234.33333333333 1393.66666666667 1249 1391 L 1249 1268 Z"/>
    <path fill="#000000" stroke="none" transform="matrix(1 0 0 -1 22459 1915)" d="M 1616 72 C 1560 54.66666666667 1508 40 1460 28 C 1412 15.33333333333 1364.66666666667 5.33333333333 1318 -2 C 1271.33333333333 -10 1224 -15.66666666667 1176 -19 C 1127.33333333333 -23 1074 -25 1016 -25 C 881.33333333333 -25 759.66666666667 -8.66666666667 651 24 C 542.33333333333 56.66666666667 450 103.66666666667 374 165 C 297.33333333333 225.66666666667 238.33333333333 299.33333333333 197 386 C 155.66666666667 472.66666666667 135 570 135 678 C 135 782.66666666667 155 878.66666666667 195 966 C 234.33333333333 1053.33333333333 289.66666666667 1128.33333333333 361 1191 C 432.33333333333 1253.66666666667 517.66666666667 1302.33333333333 617 1337 C 716.33333333333 1371.66666666667 826 1389 946 1389 C 1070.66666666667 1389 1181.66666666667 1372.33333333333 1279 1339 C 1376.33333333333 1305.66666666667 1458.33333333333 1258 1525 1196 C 1591.66666666667 1134 1642.33333333333 1059 1677 971 C 1711.66666666667 882.33333333333 1729 782.66666666667 1729 672 L 1729 641 L 264 641 C 271.33333333333 555.66666666667 292.66666666667 478.66666666667 328 410 C 363.33333333333 341.33333333333 413.66666666667 283 479 235 C 543.66666666667 187 623.66666666667 150.33333333333 719 125 C 813.66666666667 99 924.33333333333 86 1051 86 C 1105 86 1159.66666666667 89.66666666667 1215 97 C 1270.33333333333 104.33333333333 1323.33333333333 114.33333333333 1374 127 C 1424.66666666667 139 1471 153 1513 169 C 1555 184.33333333333 1589.33333333333 200.33333333333 1616 217 L 1616 72 Z M 1606 750 C 1601.33333333333 820 1585.66666666667 887 1559 951 C 1532.33333333333 1014.33333333333 1492.66666666667 1070.33333333333 1440 1119 C 1386.66666666667 1167.66666666667 1319.33333333333 1206.33333333333 1238 1235 C 1156 1263.66666666667 1058 1278 944 1278 C 836.66666666667 1278 742.66666666667 1263.66666666667 662 1235 C 581.33333333333 1206.33333333333 513 1168 457 1120 C 401 1071.33333333333 357 1015.33333333333 325 952 C 293 888 272.66666666667 820.66666666667 264 750 L 1606 750 Z"/>
    <path fill="#000000" stroke="none" transform="matrix(1 0 0 -1 24303 1915)" d="M 928 0 L 741 0 L 55 1374 L 195 1374 L 838 86 L 1481 1374 L 1620 1374 L 928 0 Z"/>
    <path fill="#000000" stroke="none" transform="matrix(1 0 0 -1 25958 1915)" d="M 1880 686 C 1880 562.66666666667 1857.66666666667 456.33333333333 1813 367 C 1768.33333333333 277 1707 203 1629 145 C 1551 86.33333333333 1459 43 1353 15 C 1247 -13 1132.66666666667 -27 1010 -27 C 886.66666666667 -27 771.66666666667 -13 665 15 C 558.33333333333 43 465.66666666667 86.33333333333 387 145 C 308.33333333333 203 246.66666666667 277 202 367 C 157.33333333333 456.33333333333 135 562.66666666667 135 686 C 135 768 145.33333333333 842.66666666667 166 910 C 186.66666666667 976.66666666667 215.66666666667 1036.66666666667 253 1090 C 290.33333333333 1142.66666666667 335.66666666667 1188.33333333333 389 1227 C 441.66666666667 1265.66666666667 500.66666666667 1298 566 1324 C 630.66666666667 1349.33333333333 700.33333333333 1368.33333333333 775 1381 C 849.66666666667 1393 928 1399 1010 1399 C 1132.66666666667 1399 1247 1385 1353 1357 C 1459 1329 1551 1286 1629 1228 C 1707 1169.33333333333 1768.33333333333 1095.33333333333 1813 1006 C 1857.66666666667 916 1880 809.33333333333 1880 686 Z M 1751 686 C 1751 783.33333333333 1735.33333333333 869.33333333333 1704 944 C 1672 1018.66666666667 1625 1081.66666666667 1563 1133 C 1501 1183.66666666667 1424 1222.33333333333 1332 1249 C 1239.33333333333 1275 1132 1288 1010 1288 C 888 1288 780.66666666667 1274.66666666667 688 1248 C 594.66666666667 1221.33333333333 516.66666666667 1182.66666666667 454 1132 C 391.33333333333 1080.66666666667 344 1017.66666666667 312 943 C 280 867.66666666667 264 782 264 686 C 264 588.66666666667 280 502.66666666667 312 428 C 344 353.33333333333 391.33333333333 290.66666666667 454 240 C 516.66666666667 188.66666666667 594.66666666667 150 688 124 C 780.66666666667 97.33333333333 888 84 1010 84 C 1132 84 1239.33333333333 97.33333333333 1332 124 C 1424 150 1501 188.66666666667 1563 240 C 1625 290.66666666667 1672 353.33333333333 1704 428 C 1735.33333333333 502.66666666667 1751 588.66666666667 1751 686 Z"/>
    <path fill="#000000" stroke="none" transform="matrix(1 0 0 -1 27973 1915)" d="M 356 475 C 356 413 361 359.66666666667 371 315 C 381 270.33333333333 402 233.66666666667 434 205 C 466 176.33333333333 512.33333333333 155.33333333333 573 142 C 633 128 713 121 813 121 L 1434 121 L 1434 0 L 788 0 C 678 0 587.33333333333 9 516 27 C 444 44.33333333333 387 71.66666666667 345 109 C 302.33333333333 145.66666666667 272.66666666667 192.33333333333 256 249 C 239.33333333333 305.66666666667 231 373 231 451 L 231 1374 L 356 1374 L 356 475 Z"/>
    <path fill="#000000" stroke="none" transform="matrix(1 0 0 -1 29427 1915)" d="M 788 1260 L 788 0 L 664 0 L 664 1260 L 39 1260 L 39 1374 L 1413 1374 L 1413 1260 L 788 1260 Z"/>
    <path fill="#000000" stroke="none" transform="matrix(1 0 0 -1 31649 1915)" d="M 1587 0 L 1587 666 L 356 666 L 356 0 L 231 0 L 231 981 L 55 981 L 55 1094 L 231 1094 L 231 1374 L 356 1374 L 356 1094 L 1587 1094 L 1587 1374 L 1712 1374 L 1712 1094 L 1888 1094 L 1888 981 L 1712 981 L 1712 0 L 1587 0 Z M 1587 782 L 1587 981 L 356 981 L 356 782 L 1587 782 Z"/>
    <path fill="#000000" stroke="none" transform="matrix(1 0 0 -1 33593 1915)" d="M 1593 379 C 1593 325.66666666667 1586 279.33333333333 1572 240 C 1558 200.66666666667 1538.66666666667 167 1514 139 C 1488.66666666667 110.33333333333 1458.66666666667 87.33333333333 1424 70 C 1388.66666666667 52 1350 38 1308 28 C 1266 17.33333333333 1221 10 1173 6 C 1125 2 1075.33333333333 0 1024 0 L 231 0 L 231 1374 L 1006 1374 C 1045.33333333333 1374 1084.66666666667 1372.33333333333 1124 1369 C 1163.33333333333 1365.66666666667 1201.33333333333 1359.66666666667 1238 1351 C 1274 1341.66666666667 1307.66666666667 1329 1339 1313 C 1369.66666666667 1297 1396.66666666667 1276 1420 1250 C 1442.66666666667 1224 1460.66666666667 1192.66666666667 1474 1156 C 1486.66666666667 1119.33333333333 1493 1076 1493 1026 C 1493 981.33333333333 1487.66666666667 942.66666666667 1477 910 C 1465.66666666667 877.33333333333 1449 849.33333333333 1427 826 C 1404.33333333333 802.66666666667 1375.66666666667 783.66666666667 1341 769 C 1306.33333333333 753.66666666667 1265.66666666667 741.66666666667 1219 733 C 1285.66666666667 728.33333333333 1342.66666666667 717 1390 699 C 1437.33333333333 681 1476 657 1506 627 C 1536 597 1558 561.33333333333 1572 520 C 1586 478 1593 431 1593 379 Z M 1376 1024 C 1376 1043.33333333333 1374.66666666667 1062.66666666667 1372 1082 C 1369.33333333333 1101.33333333333 1363.33333333333 1120 1354 1138 C 1344.66666666667 1155.33333333333 1331.33333333333 1171.66666666667 1314 1187 C 1296 1202.33333333333 1271.66666666667 1215.66666666667 1241 1227 C 1210.33333333333 1237.66666666667 1172.66666666667 1246.33333333333 1128 1253 C 1082.66666666667 1259 1028.33333333333 1262 965 1262 L 356 1262 L 356 782 L 965 782 C 1055 782 1127 788.66666666667 1181 802 C 1235 814.66666666667 1276.66666666667 832 1306 854 C 1334.66666666667 876 1353.66666666667 901.66666666667 1363 931 C 1371.66666666667 960.33333333333 1376 991.33333333333 1376 1024 Z M 1462 381 C 1462 433 1453 477.33333333333 1435 514 C 1417 550.66666666667 1389.33333333333 580.66666666667 1352 604 C 1314.66666666667 627.33333333333 1266.66666666667 644.66666666667 1208 656 C 1149.33333333333 666.66666666667 1079.66666666667 672 999 672 L 356 672 L 356 113 L 1016 113 C 1099.33333333333 113 1169.66666666667 118 1227 128 C 1283.66666666667 137.33333333333 1329.66666666667 153 1365 175 C 1399.66666666667 196.33333333333 1424.66666666667 224 1440 258 C 1454.66666666667 292 1462 333 1462 381 Z"/>
    <path fill="#000000" stroke="none" transform="matrix(1 0 0 -1 35307 1915)" d="M 788 1260 L 788 844 L 1270 844 L 1270 731 L 788 731 L 788 0 L 664 0 L 664 731 L 182 731 L 182 844 L 664 844 L 664 1260 L 39 1260 L 39 1374 L 1413 1374 L 1413 1260 L 788 1260 Z"/>
    <path fill="#000000" stroke="none" transform="matrix(1 0 0 -1 36759 1915)" d="M 230 0 L 230 1374 L 1375 1374 L 1375 1257 L 366 1257 L 366 784 L 1324 784 L 1324 668 L 366 668 L 366 117 L 1390 117 L 1390 0 L 230 0 Z M 517 1531 L 517 1644 L 1066 1644 L 1066 1531 L 517 1531 Z"/>
    <path fill="#000000" stroke="none" transform="matrix(1 0 0 -1 38305 1915)" d="M 1640 109 C 1592 89 1544.66666666667 70.66666666667 1498 54 C 1450.66666666667 37.33333333333 1401.66666666667 23 1351 11 C 1300.33333333333 -1 1247 -10.33333333333 1191 -17 C 1135 -23.66666666667 1074 -27 1008 -27 C 926.66666666667 -27 848.66666666667 -20.33333333333 774 -7 C 698.66666666667 6.33333333333 628.66666666667 26.33333333333 564 53 C 499.33333333333 79.66666666667 440.66666666667 113 388 153 C 335.33333333333 192.33333333333 290.33333333333 238.33333333333 253 291 C 215 343.66666666667 186 403 166 469 C 145.33333333333 535 135 607.33333333333 135 686 C 135 764.66666666667 145.33333333333 837 166 903 C 186 969 215 1028.33333333333 253 1081 C 290.33333333333 1133.66666666667 335.33333333333 1180 388 1220 C 440.66666666667 1259.33333333333 499.33333333333 1292.33333333333 564 1319 C 628.66666666667 1345.66666666667 698.33333333333 1365.66666666667 773 1379 C 847.66666666667 1392.33333333333 926 1399 1008 1399 C 1074 1399 1135 1395.66666666667 1191 1389 C 1247 1382.33333333333 1300.33333333333 1373 1351 1361 C 1401.66666666667 1349 1450.66666666667 1335 1498 1319 C 1544.66666666667 1302.33333333333 1592 1284 1640 1264 L 1640 1114 C 1602 1138 1561.33333333333 1160.66666666667 1518 1182 C 1474.66666666667 1203.33333333333 1428 1222 1378 1238 C 1327.33333333333 1254 1273.33333333333 1266.66666666667 1216 1276 C 1158.66666666667 1285.33333333333 1097.33333333333 1290 1032 1290 C 900 1290 785.66666666667 1275.66666666667 689 1247 C 592.33333333333 1218.33333333333 512.66666666667 1178 450 1126 C 386.66666666667 1073.33333333333 340 1010 310 936 C 279.33333333333 861.33333333333 264 778 264 686 C 264 594 279.33333333333 511 310 437 C 340 363 386.66666666667 300 450 248 C 512.66666666667 195.33333333333 592.33333333333 155 689 127 C 785.66666666667 98.33333333333 900 84 1032 84 C 1097.33333333333 84 1159.33333333333 88.66666666667 1218 98 C 1276 107.33333333333 1330.66666666667 120 1382 136 C 1432.66666666667 152 1479.66666666667 170.66666666667 1523 192 C 1565.66666666667 212.66666666667 1604.66666666667 234.66666666667 1640 258 L 1640 109 Z"/>
    <path fill="#000000" stroke="none" transform="matrix(1 0 0 -1 40855 1915)" d="M 1593 379 C 1593 325.66666666667 1586 279.33333333333 1572 240 C 1558 200.66666666667 1538.66666666667 167 1514 139 C 1488.66666666667 110.33333333333 1458.66666666667 87.33333333333 1424 70 C 1388.66666666667 52 1350 38 1308 28 C 1266 17.33333333333 1221 10 1173 6 C 1125 2 1075.33333333333 0 1024 0 L 231 0 L 231 1374 L 1006 1374 C 1045.33333333333 1374 1084.66666666667 1372.33333333333 1124 1369 C 1163.33333333333 1365.66666666667 1201.33333333333 1359.66666666667 1238 1351 C 1274 1341.66666666667 1307.66666666667 1329 1339 1313 C 1369.66666666667 1297 1396.66666666667 1276 1420 1250 C 1442.66666666667 1224 1460.66666666667 1192.66666666667 1474 1156 C 1486.66666666667 1119.33333333333 1493 1076 1493 1026 C 1493 981.33333333333 1487.66666666667 942.66666666667 1477 910 C 1465.66666666667 877.33333333333 1449 849.33333333333 1427 826 C 1404.33333333333 802.66666666667 1375.66666666667 783.66666666667 1341 769 C 1306.33333333333 753.66666666667 1265.66666666667 741.66666666667 1219 733 C 1285.66666666667 728.33333333333 1342.66666666667 717 1390 699 C 1437.33333333333 681 1476 657 1506 627 C 1536 597 1558 561.33333333333 1572 520 C 1586 478 1593 431 1593 379 Z M 1376 1024 C 1376 1043.33333333333 1374.66666666667 1062.66666666667 1372 1082 C 1369.33333333333 1101.33333333333 1363.33333333333 1120 1354 1138 C 1344.66666666667 1155.33333333333 1331.33333333333 1171.66666666667 1314 1187 C 1296 1202.33333333333 1271.66666666667 1215.66666666667 1241 1227 C 1210.33333333333 1237.66666666667 1172.66666666667 1246.33333333333 1128 1253 C 1082.66666666667 1259 1028.33333333333 1262 965 1262 L 356 1262 L 356 782 L 965 782 C 1055 782 1127 788.66666666667 1181 802 C 1235 814.66666666667 1276.66666666667 832 1306 854 C 1334.66666666667 876 1353.66666666667 901.66666666667 1363 931 C 1371.66666666667 960.33333333333 1376 991.33333333333 1376 1024 Z M 1462 381 C 1462 433 1453 477.33333333333 1435 514 C 1417 550.66666666667 1389.33333333333 580.66666666667 1352 604 C 1314.66666666667 627.33333333333 1266.66666666667 644.66666666667 1208 656 C 1149.33333333333 666.66666666667 1079.66666666667 672 999 672 L 356 672 L 356 113 L 1016 113 C 1099.33333333333 113 1169.66666666667 118 1227 128 C 1283.66666666667 137.33333333333 1329.66666666667 153 1365 175 C 1399.66666666667 196.33333333333 1424.66666666667 224 1440 258 C 1454.66666666667 292 1462 333 1462 381 Z"/>
    <path fill="#000000" stroke="none" transform="matrix(1 0 0 -1 42569 1915)" d="M 1639 109 C 1591 89 1543.66666666667 70.66666666667 1497 54 C 1449.66666666667 37.33333333333 1400.66666666667 23 1350 11 C 1299.33333333333 -1 1246 -10.33333333333 1190 -17 C 1134 -23.66666666667 1073 -27 1007 -27 C 925.66666666667 -27 847.66666666667 -20.33333333333 773 -7 C 697.66666666667 6.33333333333 627.66666666667 26.33333333333 563 53 C 498.33333333333 79.66666666667 439.66666666667 113 387 153 C 334.33333333333 192.33333333333 289.33333333333 238.33333333333 252 291 C 214 343.66666666667 185 403 165 469 C 144.33333333333 535 134 607.33333333333 134 686 C 134 764.66666666667 144.33333333333 837 165 903 C 185 969 214 1028.33333333333 252 1081 C 289.33333333333 1133.66666666667 334.33333333333 1180 387 1220 C 439.66666666667 1259.33333333333 498.33333333333 1292.33333333333 563 1319 C 627.66666666667 1345.66666666667 697.33333333333 1365.66666666667 772 1379 C 846.66666666667 1392.33333333333 925 1399 1007 1399 C 1073 1399 1134 1395.66666666667 1190 1389 C 1246 1382.33333333333 1299.33333333333 1373 1350 1361 C 1400.66666666667 1349 1449.66666666667 1335 1497 1319 C 1543.66666666667 1302.33333333333 1591 1284 1639 1264 L 1639 1114 C 1601 1138 1560.33333333333 1160.66666666667 1517 1182 C 1473.66666666667 1203.33333333333 1427 1222 1377 1238 C 1326.33333333333 1254 1272.33333333333 1266.66666666667 1215 1276 C 1157.66666666667 1285.33333333333 1096.33333333333 1290 1031 1290 C 899 1290 784.66666666667 1275.66666666667 688 1247 C 591.33333333333 1218.33333333333 511.66666666667 1178 449 1126 C 385.66666666667 1073.33333333333 339 1010 309 936 C 278.33333333333 861.33333333333 263 778 263 686 C 263 594 278.33333333333 511 309 437 C 339 363 385.66666666667 300 449 248 C 511.66666666667 195.33333333333 591.33333333333 155 688 127 C 784.66666666667 98.33333333333 899 84 1031 84 C 1096.33333333333 84 1158.33333333333 88.66666666667 1217 98 C 1275 107.33333333333 1329.66666666667 120 1381 136 C 1431.66666666667 152 1478.66666666667 170.66666666667 1522 192 C 1564.66666666667 212.66666666667 1603.66666666667 234.66666666667 1639 258 L 1639 109 Z M 1347 1501 L 999 1660 L 651 1501 L 612 1572 L 999 1792 L 1386 1572 L 1347 1501 Z"/>
    <path fill="#000000" stroke="none" transform="matrix(1 0 0 -1 44349 1915)" d="M 787 1260 L 787 0 L 663 0 L 663 1260 L 38 1260 L 38 1374 L 1412 1374 L 1412 1260 L 787 1260 Z M 732 -416 L 631 -416 L 670 -143 L 814 -143 L 732 -416 Z"/>
    <path fill="#000000" stroke="none" transform="matrix(1 0 0 -1 45760 1915)" d="M 1615 72 C 1559 54.66666666667 1507 40 1459 28 C 1411 15.33333333333 1363.66666666667 5.33333333333 1317 -2 C 1270.33333333333 -10 1223 -15.66666666667 1175 -19 C 1126.33333333333 -23 1073 -25 1015 -25 C 880.33333333333 -25 758.66666666667 -8.66666666667 650 24 C 541.33333333333 56.66666666667 449 103.66666666667 373 165 C 296.33333333333 225.66666666667 237.33333333333 299.33333333333 196 386 C 154.66666666667 472.66666666667 134 570 134 678 C 134 782.66666666667 154 878.66666666667 194 966 C 233.33333333333 1053.33333333333 288.66666666667 1128.33333333333 360 1191 C 431.33333333333 1253.66666666667 516.66666666667 1302.33333333333 616 1337 C 715.33333333333 1371.66666666667 825 1389 945 1389 C 1069.66666666667 1389 1180.66666666667 1372.33333333333 1278 1339 C 1375.33333333333 1305.66666666667 1457.33333333333 1258 1524 1196 C 1590.66666666667 1134 1641.33333333333 1059 1676 971 C 1710.66666666667 882.33333333333 1728 782.66666666667 1728 672 L 1728 641 L 263 641 C 270.33333333333 555.66666666667 291.66666666667 478.66666666667 327 410 C 362.33333333333 341.33333333333 412.66666666667 283 478 235 C 542.66666666667 187 622.66666666667 150.33333333333 718 125 C 812.66666666667 99 923.33333333333 86 1050 86 C 1104 86 1158.66666666667 89.66666666667 1214 97 C 1269.33333333333 104.33333333333 1322.33333333333 114.33333333333 1373 127 C 1423.66666666667 139 1470 153 1512 169 C 1554 184.33333333333 1588.33333333333 200.33333333333 1615 217 L 1615 72 Z M 1605 750 C 1600.33333333333 820 1584.66666666667 887 1558 951 C 1531.33333333333 1014.33333333333 1491.66666666667 1070.33333333333 1439 1119 C 1385.66666666667 1167.66666666667 1318.33333333333 1206.33333333333 1237 1235 C 1155 1263.66666666667 1057 1278 943 1278 C 835.66666666667 1278 741.66666666667 1263.66666666667 661 1235 C 580.33333333333 1206.33333333333 512 1168 456 1120 C 400 1071.33333333333 356 1015.33333333333 324 952 C 292 888 271.66666666667 820.66666666667 263 750 L 1605 750 Z M 857 1521 L 857 1675 L 1012 1675 L 1012 1521 L 857 1521 Z"/>
    <path fill="#000000" stroke="none" transform="matrix(1 0 0 -1 47624 1915)" d="M 1633 502 C 1633 412 1612 334.33333333333 1570 269 C 1528 203 1470.33333333333 148.33333333333 1397 105 C 1323 61.66666666667 1236 29.66666666667 1136 9 C 1035.33333333333 -12.33333333333 926.66666666667 -23 810 -23 C 683.33333333333 -23 567 -14.66666666667 461 2 C 355 18 262.33333333333 40.66666666667 183 70 L 183 215 C 225.66666666667 197 269.66666666667 180.33333333333 315 165 C 360.33333333333 149.66666666667 408.66666666667 136.33333333333 460 125 C 511.33333333333 113 566.33333333333 104 625 98 C 683 91.33333333333 746 88 814 88 C 910 88 1000 97.33333333333 1084 116 C 1168 134 1241.33333333333 160.66666666667 1304 196 C 1366 230.66666666667 1415.33333333333 273.66666666667 1452 325 C 1488 376.33333333333 1506 435.33333333333 1506 502 L 1506 762 C 1474 718.66666666667 1435 677.33333333333 1389 638 C 1342.33333333333 598 1290.66666666667 563 1234 533 C 1176.66666666667 502.33333333333 1114.66666666667 478 1048 460 C 981.33333333333 441.33333333333 911 432 837 432 C 753 432 678.66666666667 440 614 456 C 548.66666666667 471.33333333333 492 492.66666666667 444 520 C 395.33333333333 547.33333333333 354.33333333333 580 321 618 C 287.66666666667 655.33333333333 261 696.33333333333 241 741 C 220.33333333333 785 205.66666666667 831.33333333333 197 880 C 187.66666666667 928.66666666667 183 978 183 1028 L 183 1374 L 310 1374 L 310 1055 C 310 978.33333333333 319.33333333333 908.66666666667 338 846 C 356 783.33333333333 386 729.66666666667 428 685 C 470 640.33333333333 525.33333333333 606 594 582 C 662 557.33333333333 746.33333333333 545 847 545 C 925 545 996.66666666667 555.66666666667 1062 577 C 1127.33333333333 597.66666666667 1187 626 1241 662 C 1295 697.33333333333 1344 738.33333333333 1388 785 C 1432 831.66666666667 1471.33333333333 880.66666666667 1506 932 L 1506 1374 L 1633 1374 L 1633 502 Z M 1255 1501 L 907 1660 L 559 1501 L 520 1572 L 907 1792 L 1294 1572 L 1255 1501 Z"/>
    <path fill="#000000" stroke="none" transform="matrix(1 0 0 -1 49490 1915)" d="M 355 475 C 355 413 360 359.66666666667 370 315 C 380 270.33333333333 401 233.66666666667 433 205 C 465 176.33333333333 511.33333333333 155.33333333333 572 142 C 632 128 712 121 812 121 L 1433 121 L 1433 0 L 787 0 C 677 0 586.33333333333 9 515 27 C 443 44.33333333333 386 71.66666666667 344 109 C 301.33333333333 145.66666666667 271.66666666667 192.33333333333 255 249 C 238.33333333333 305.66666666667 230 373 230 451 L 230 1374 L 355 1374 L 355 475 Z M 984 1014 L 883 1014 L 951 1374 L 1094 1374 L 984 1014 Z"/>
</svg>
