<svg width="17696" height="2000" viewBox="0 0 17696 2000" xmlns="http://www.w3.org/2000/svg">
    <defs/>
    <g transform="matrix(1 0 0 -1 0 2000)">
        <g transform="matrix(1 0 0 1 0 773)">
            <path fill="#000000" stroke="none" d="M -2 8 L 0 10 Q 34 10 71 13 Q 78 14 84 16.5 Q 90 19 95 26 Q 127 68 158 111 Q 189 154 223 202 L 305 318 L 116 622 Q 107 634 94 635 Q 75 637 59.5 637.5 Q 44 638 26 638 L 24 640 L 24 649 Q 56 648 88 648 Q 120 648 152 648 Q 184 648 218 648 Q 252 648 284 649 L 284 640 L 282 638 Q 264 638 251.49998 637.5 Q 239 637 220 635 Q 207 634 211 625 L 359 385 L 414 463 Q 443 504 461 530 Q 479 556 490.5 573.5 Q 502 591 509.5 602.5 Q 517 614 525 626 Q 528 631 524 632.5 Q 520 634 513 635 Q 494 637 478 637.5 Q 462 638 444 638 L 442 640 L 442 649 Q 458 649 469 648.5 Q 480 648 490.5 648 Q 501 648 512.5 648 Q 524 648 540 648 Q 556 648 566.5 648 Q 577 648 586.5 648 Q 596 648 606 648.5 Q 616 649 632 649 L 632 640 L 630 638 Q 612 638 601.5 637.5 Q 591 637 572 635 Q 565 634 559 631.5 Q 553 629 548 622 Q 516 580 487 539 Q 458 498 424 450 L 368 371 L 586 26 Q 595 14 608 13 Q 646 10 681 10 L 683 8 L 683 -1 Q 651 0 616.5 0 Q 582 0 550 0 Q 518 0 481 0 Q 444 0 412 -1 L 412 8 L 414 10 Q 432 10 446.5 10.5 Q 461 11 480 13 Q 493 14 489 23 L 315 304 L 233 189 Q 204 148 185.5 121.49999 Q 167 95 155 77 Q 143 59 135 46.5 Q 127 34 119 22 Q 114 15 130 13 Q 168 10 204 10 L 206 8 L 206 -1 Q 190 -1 178 -0.5 Q 166 0 155 0 Q 144 0 131.5 0 Q 119 0 103 0 Q 87 0 74.5 0 Q 62 0 50 0 Q 38 0 26 -0.5 Q 14 -1 -2 -1 L -2 8 Z"/>
        </g>
        <g transform="matrix(1 0 0 1 694 773)">
            <path fill="#000000" stroke="none" d="M 19 8 L 21 10 Q 39 10 62 10.5 Q 85 11 104 13 Q 116 14 116 24 L 116 624 Q 116 634 104 635 Q 85 637 62 637.5 Q 39 638 21 638 L 19 640 L 19 649 Q 51 648 87.5 648 Q 124 648 156 648 Q 188 648 224.5 648 Q 261 648 293 649 L 293 640 L 291 638 Q 273 638 250 637.5 Q 227 637 208 635 Q 196 634 196 624 L 196 27 Q 196 12 209 12 Q 234 12 262.5 12.5 Q 291 13 318 13.5 Q 345 14 366.5 14.5 Q 388 15 398 16 Q 479 22 490 76 Q 494 95 496.5 118 Q 499 141 499 159 L 501 161 L 509 161 Q 509 143 509 120 Q 509 97 509.5 74 Q 510 51 511 31 Q 512 11 513 -1 L 511 -3 Q 478 -2 431 -1.5 Q 384 -1 334.5 -0.5 Q 285 0 238 0 Q 191 0 156 0 Q 124 0 87.5 0 Q 51 0 19 -1 L 19 8 Z"/>
        </g>
        <g transform="matrix(1 0 0 1 1253 773)">
            <path fill="#000000" stroke="none" d="M 43 26 Q 44 38 45 60 Q 46 82 46.5 106.50001 Q 47 131 47 156 Q 47 181 47 199 L 55 199 L 57 197 Q 62 136 74 98 Q 88 54 121.49999 25 Q 155 -4 206 -4 Q 279 -4 310 43 Q 341 90 341 179 L 341 624 Q 341 634 329 635 Q 310 637 287 637.5 Q 264 638 246 638 L 244 640 L 244 649 Q 276 648 312.5 648 Q 349 648 381 648 Q 413 648 449.5 648 Q 486 648 518 649 L 518 640 L 516 638 Q 498 638 475 637.5 Q 452 637 433 635 Q 421 634 421 624 L 421 189 Q 421 138 404.5 99.5 Q 388 61 358.49997 34.5 Q 329 8 290 -5 Q 251 -18 206 -18 Q 164 -18 120 -7.5 Q 76 3 44 23 L 43 26 Z"/>
        </g>
        <g transform="matrix(1 0 0 1 1763 773)">
            <path fill="#000000" stroke="none" d="M 96 622 Q 89 633 74 635 Q 55 637 34 637.5 Q 13 638 -5 638 L -7 640 L -7 649 Q 25 648 62 648 Q 99 648 131 648 Q 163 648 202.5 648 Q 242 648 274 649 L 274 640 L 272 638 Q 254 638 233.5 637.5 Q 213 637 194 635 Q 183 634 185 625 L 409 93 L 412 93 L 539 388 L 437 622 Q 430 633 415 635 Q 396 637 375 637.5 Q 354 638 336 638 L 334 640 L 334 649 Q 366 648 403 648 Q 440 648 472 648 L 650 648 Q 666 648 678 648 Q 690 648 701.49994 648 Q 713 648 724.5 648.5 Q 736 649 752 649 L 752 640 L 750 638 Q 715 638 677 635 Q 670 634 665.5 632 Q 661 630 657 622 Q 642 590 627 551 Q 612 512 592 467 L 750 93 L 753 93 L 922 491 Q 937 526 952.5 563.5 Q 968 601 976 626 Q 978 631 974.5 632.5 Q 971 634 964 635 Q 945 637 924 637.5 Q 903 638 885 638 L 883 640 L 883 649 Q 899 649 911.5 648.5 Q 924 648 936.5 648 Q 949 648 962 648 Q 975 648 991 648 Q 1007 648 1019 648 Q 1031 648 1042.5 648 Q 1054 648 1065.5 648.5 Q 1077 649 1093 649 L 1093 640 L 1091 638 Q 1056 638 1018 635 Q 1011 634 1007 632 Q 1003 630 999 622 Q 979 577 956 526 Q 933 475 902 403 L 718 -24 L 715 -24 L 546 369 L 377 -24 L 374 -24 L 96 622 Z M 586 485 Q 603 526 616 562.5 Q 629 599 636 626 Q 638 634 624 636 Q 614 637 605.5 637.5 Q 597 638 583 638 Q 569 638 557 637.5 Q 545 637 535 636 Q 524 635 526 625 L 586 485 Z"/>
        </g>
        <g transform="matrix(1 0 0 1 2834 773)">
            <path fill="#000000" stroke="none" d="M 19 8 L 21 10 Q 39 10 62 10.5 Q 85 11 104 13 Q 116 14 116 24 L 116 624 Q 116 634 104 635 Q 85 637 62 637.5 Q 39 638 21 638 L 19 640 L 19 649 Q 51 648 88.5 648 Q 126 648 156 648 Q 172 648 188 648 Q 204 648 226.5 648 Q 249 648 280 648.5 Q 311 649 356 649 Q 425 649 485 633.5 Q 545 618 589.5 583 Q 634 548 660 493 Q 686 438 686 359 Q 686 269 658 200.5 Q 630 132 580 87 Q 530 42 461 19.5 Q 392 -3 311 -1 Q 269 0 228.50002 0 Q 188 0 156 0 Q 126 0 88.5 0 Q 51 0 19 -1 L 19 8 Z M 210 15 Q 230 13 256 12.5 Q 282 12 310 12 Q 366 12 418 32 Q 470 52 510 93 Q 550 134 574 197 Q 598 260 598 346 Q 598 486 527 561 Q 456 636 320 636 Q 289 636 261 635.5 Q 233 635 210 633 Q 196 632 196 616 L 196 30 Q 196 16 210 15 Z"/>
        </g>
        <g transform="matrix(1 0 0 1 3542 773)">
            <path fill="#000000" stroke="none" d="M 19 8 L 21 10 Q 39 10 62 10.5 Q 85 11 104 13 Q 116 14 116 24 L 116 624 Q 116 634 104 635 Q 85 637 62 637.5 Q 39 638 21 638 L 19 640 L 19 649 Q 51 648 88.5 648 Q 126 648 156 648 Q 188 648 226.5 648 Q 265 648 325 649 Q 369 650 405 639 Q 441 628 466.5 608.5 Q 492 589 505.50003 561.5 Q 519 534 519 501 Q 519 463 503.49997 433.5 Q 488 404 462.5 383 Q 437 362 404 350 Q 371 338 335 335 Q 426 327 476 289 Q 526 251 526 180 Q 526 140 508 106 Q 490 72 457.50003 48 Q 425 24 380 11 Q 335 -2 281 -1 Q 243 0 215.5 0 Q 188 0 156 0 Q 126 0 88.5 0 Q 51 0 19 -1 L 19 8 Z M 196 30 Q 196 16 210 15 Q 230 13 246 12.5 Q 262 12 290 12 Q 320 12 347 21 Q 374 30 394 48.5 Q 414 67 426 95.5 Q 438 124 438 164 Q 438 192 430.5 221 Q 423 250 406.49997 273 Q 390 296 364.5 311 Q 339 326 303 326 L 196 326 L 196 30 Z M 299 340 Q 328 340 352 348 Q 376 356 393.50003 374.49997 Q 411 393 421 422 Q 431 451 431 493 Q 431 556 396 596 Q 361 636 299 636 Q 284 636 272.5 636 Q 261 636 251 635.5 Q 241 635 231.5 634.5 Q 222 634 210 633 Q 196 632 196 616 L 196 340 L 299 340 Z"/>
        </g>
        <g transform="matrix(1 0 0 1 4414 773)">
            <path fill="#000000" stroke="none" d="M -2 8 L 0 10 Q 34 10 71 13 Q 78 14 84 16.5 Q 90 19 95 26 Q 127 68 158 111 Q 189 154 223 202 L 305 318 L 116 622 Q 107 634 94 635 Q 75 637 59.5 637.5 Q 44 638 26 638 L 24 640 L 24 649 Q 56 648 88 648 Q 120 648 152 648 Q 184 648 218 648 Q 252 648 284 649 L 284 640 L 282 638 Q 264 638 251.49998 637.5 Q 239 637 220 635 Q 207 634 211 625 L 359 385 L 414 463 Q 443 504 461 530 Q 479 556 490.5 573.5 Q 502 591 509.5 602.5 Q 517 614 525 626 Q 528 631 524 632.5 Q 520 634 513 635 Q 494 637 478 637.5 Q 462 638 444 638 L 442 640 L 442 649 Q 458 649 469 648.5 Q 480 648 490.5 648 Q 501 648 512.5 648 Q 524 648 540 648 Q 556 648 566.5 648 Q 577 648 586.5 648 Q 596 648 606 648.5 Q 616 649 632 649 L 632 640 L 630 638 Q 612 638 601.5 637.5 Q 591 637 572 635 Q 565 634 559 631.5 Q 553 629 548 622 Q 516 580 487 539 Q 458 498 424 450 L 368 371 L 586 26 Q 595 14 608 13 Q 646 10 681 10 L 683 8 L 683 -1 Q 651 0 616.5 0 Q 582 0 550 0 Q 518 0 481 0 Q 444 0 412 -1 L 412 8 L 414 10 Q 432 10 446.5 10.5 Q 461 11 480 13 Q 493 14 489 23 L 315 304 L 233 189 Q 204 148 185.5 121.49999 Q 167 95 155 77 Q 143 59 135 46.5 Q 127 34 119 22 Q 114 15 130 13 Q 168 10 204 10 L 206 8 L 206 -1 Q 190 -1 178 -0.5 Q 166 0 155 0 Q 144 0 131.5 0 Q 119 0 103 0 Q 87 0 74.5 0 Q 62 0 50 0 Q 38 0 26 -0.5 Q 14 -1 -2 -1 L -2 8 Z"/>
        </g>
        <g transform="matrix(1 0 0 1 5108 773)">
            <path fill="#000000" stroke="none" d="M -16 8 L -14 10 Q 4 10 19.5 10.5 Q 35 11 54 13 Q 61 14 64.5 16 Q 68 18 72 26 Q 92 70 114.50001 121.49999 Q 137 173 168 245 L 346 672 L 349 672 L 621 26 Q 626 15 642 13 Q 659 11 676.5 10.5 Q 694 10 712 10 L 714 8 L 714 -1 Q 682 0 650 0 Q 618 0 586 0 Q 554 0 519.5 0 Q 485 0 453 -1 L 453 8 L 455 10 Q 490 10 523 13 Q 535 14 532 23 L 443 241 Q 404 242 377.50003 242 Q 351 242 317 242 Q 285 242 254.5 242 Q 224 242 183 241 L 148 157 Q 133 122 118.50001 84.5 Q 104 47 96 22 Q 94 14 107 13 Q 126 11 141.5 10.5 Q 157 10 175 10 L 177 8 L 177 -1 Q 161 -1 150 -0.5 Q 139 0 129 0 Q 119 0 108 0 Q 97 0 81 0 Q 65 0 53.5 0 Q 42 0 32 0 Q 22 0 11 -0.5 Q 0 -1 -16 -1 L -16 8 Z M 188 256 Q 226 255 260 255 Q 294 255 317 255 Q 349 255 379 255 Q 409 255 437 256 L 314 552 L 311 552 L 188 256 Z"/>
        </g>
        <g transform="matrix(1 0 0 1 5813 773)">
            <path fill="#000000" stroke="none" d="M 19 8 L 21 10 Q 39 10 62 10.5 Q 85 11 104 13 Q 116 14 116 24 L 116 624 Q 116 634 104 635 Q 85 637 62 637.5 Q 39 638 21 638 L 19 640 L 19 649 Q 51 648 88.5 648 Q 126 648 156 648 Q 172 648 179 648 Q 186 648 197 648 Q 208 648 229.5 648 Q 251 648 296 649 Q 342 649 380.5 639.5 Q 419 630 447 609.5 Q 475 589 490.5 559 Q 506 529 506 488 Q 506 405 448 356.5 Q 390 308 281 308 L 196 308 L 196 24 Q 196 14 208 13 Q 227 11 250 10.5 Q 273 10 291 10 L 293 8 L 293 -1 Q 261 0 224.5 0 Q 188 0 156 0 Q 124 0 87.5 0 Q 51 0 19 -1 L 19 8 Z M 280 322 Q 316 322 342 333.5 Q 368 345 385 366 Q 402 387 410 415 Q 418 443 418 476 Q 418 511 411 540.5 Q 404 570 389 591 Q 374 612 349.5 624 Q 325 636 290 636 Q 267 636 250 635.5 Q 233 635 210 633 Q 196 632 196 616 L 196 322 L 280 322 Z"/>
        </g>
        <g transform="matrix(1 0 0 1 6325 773)">
            <path fill="#000000" stroke="none" d="M 727 -126 L 730 -134 Q 692 -152 652 -161.5 Q 612 -171 559 -171 Q 522 -171 502.49997 -158 Q 483 -145 472 -121 Q 457 -90 444.5 -69 Q 432 -48 420 -34 Q 412 -26 398.5 -20 Q 385 -14 364 -12 Q 310 -9 253.5 11.5 Q 197 32 151 73 Q 105 114 75.5 176 Q 46 238 46 325 Q 46 400 74 463.5 Q 102 527 150 573 Q 198 619 261 644.5 Q 324 670 393 670 Q 469 670 533.5 645 Q 598 620 645 575 Q 692 530 718.5 468 Q 745 406 745 332 Q 745 263 721 203.49998 Q 697 144 655 99 Q 613 54 555.5 25.500002 Q 498 -3 430 -9 Q 454 -9 469.5 -11 Q 485 -13 495 -17 Q 505 -21 510.5 -27 Q 516 -33 520 -40 Q 528 -53 534 -63 Q 540 -73 546 -81.5 Q 552 -90 559 -98.50001 Q 566 -107 575 -118 Q 601 -150 635 -150 Q 656 -150 680.5 -143 Q 705 -136 725 -125 L 727 -126 Z M 405 1 Q 455 1 499.5 21.500002 Q 544 42 578 82 Q 612 122 632 180.50002 Q 652 239 652 314 Q 652 399 631 463 Q 610 527 574 570 Q 538 613 489 634.5 Q 440 656 384 656 Q 336 656 291.5 635 Q 247 614 213 573.5 Q 179 533 159 474.5 Q 139 416 139 342 Q 139 261 159 198 Q 179 135 214 91 Q 249 47 298 24 Q 347 1 405 1 Z"/>
        </g>
        <g transform="matrix(1 0 0 1 7116 773)">
            <path fill="#000000" stroke="none" d="M 43 26 Q 44 38 45 60 Q 46 82 46.5 106.50001 Q 47 131 47 156 Q 47 181 47 199 L 55 199 L 57 197 Q 62 136 74 98 Q 88 54 121.49999 25 Q 155 -4 206 -4 Q 279 -4 310 43 Q 341 90 341 179 L 341 624 Q 341 634 329 635 Q 310 637 287 637.5 Q 264 638 246 638 L 244 640 L 244 649 Q 276 648 312.5 648 Q 349 648 381 648 Q 413 648 449.5 648 Q 486 648 518 649 L 518 640 L 516 638 Q 498 638 475 637.5 Q 452 637 433 635 Q 421 634 421 624 L 421 189 Q 421 138 404.5 99.5 Q 388 61 358.49997 34.5 Q 329 8 290 -5 Q 251 -18 206 -18 Q 164 -18 120 -7.5 Q 76 3 44 23 L 43 26 Z"/>
        </g>
        <g transform="matrix(1 0 0 1 7626 773)">
            <path fill="#000000" stroke="none" d="M 19 8 L 21 10 Q 39 10 62 10.5 Q 85 11 104 13 Q 116 14 116 24 L 116 624 Q 116 634 104 635 Q 85 637 62 637.5 Q 39 638 21 638 L 19 640 L 19 649 Q 51 648 87.5 648 Q 124 648 156 648 Q 188 648 224.5 648 Q 261 648 293 649 L 293 640 L 291 638 Q 273 638 250 637.5 Q 227 637 208 635 Q 196 634 196 624 L 196 323 L 201 323 Q 216 331 230 342 Q 244 353 263 373 Q 322 435 361 477 Q 400 519 425.50003 547.5 Q 451 576 466 594 Q 481 612 491 625 Q 498 633 485 635 Q 474 637 457.50003 637.5 Q 441 638 423 638 L 421 640 L 421 649 Q 444 648 466.5 648 Q 489 648 515 648 Q 541 648 557 648 Q 573 648 595 649 L 595 640 L 593 638 Q 579 638 567 637.5 Q 555 637 541 635 Q 533 633 527.5 631 Q 522 629 516 623 Q 502 609 473.50003 578.5 Q 445 548 410.5 511 Q 376 474 340.5 435 Q 305 396 276 364 Q 302 332 338 289.5 Q 374 247 413 201.5 Q 452 156 490.5 112 Q 529 68 562 32 Q 571 21 580.5 18 Q 590 15 599 14 Q 619 12 631.5 11 Q 644 10 659 10 L 661 8 L 661 0 Q 650 0 627 0 Q 604 0 577 0 Q 550 0 522.5 -0.5 Q 495 -1 474 -2 L 472 0 Q 447 32 415 71.5 Q 383 111 350 151 Q 317 191 286 226.5 Q 255 262 234 286 Q 225 296 217.5 301.5 Q 210 307 200 309 L 196 309 L 196 24 Q 196 14 208 13 Q 227 11 250 10.5 Q 273 10 291 10 L 293 8 L 293 -1 Q 261 0 224.5 0 Q 188 0 156 0 Q 124 0 87.5 0 Q 51 0 19 -1 L 19 8 Z"/>
        </g>
        <g transform="matrix(1 0 0 1 8514 773)">
            <path fill="#000000" stroke="none" d="M 41 195 Q 41 246 58 285.5 Q 75 325 104 352 Q 133 379 172 393.50003 Q 211 408 255 408 Q 302 408 340.5 392.50003 Q 379 377 406.49997 350 Q 434 323 449 286 Q 464 249 464 205 Q 464 155 447 115.5 Q 430 76 401 48.5 Q 372 21 332 6.5 Q 292 -8 247 -8 Q 199 -8 161 7.5 Q 123 23 96 50 Q 69 77 55 114.50001 Q 41 152 41 195 Z M 257 7 Q 286 7 309 17 Q 332 27 348.5 49.5 Q 365 72 374 108 Q 383 144 383 195 Q 383 236 373 272 Q 363 308 345 335 Q 327 362 301.5 377.50003 Q 276 393 245 393 Q 188 393 155 350 Q 122 307 122 205 Q 122 165 131.5 129 Q 141 93 158.5 66 Q 176 39 201 23 Q 226 7 257 7 Z"/>
        </g>
        <g transform="matrix(1 0 0 1 9019 773)">
            <path fill="#000000" stroke="none" d="M 29 8 L 31 10 Q 49 10 67 10.5 Q 85 11 102 13 Q 112 14 112 25 L 112 375 Q 112 386 102 387 Q 88 389 70 389.5 Q 52 390 34 390 L 32 392 L 32 400 Q 48 400 68.5 400 Q 89 400 110 400 Q 131 400 151 400.5 Q 171 401 186 402 L 188 400 Q 187 386 186.5 367.5 Q 186 349 186 335 L 186 25 Q 186 14 196 13 Q 213 11 231 10.5 Q 249 10 267 10 L 269 8 L 269 -1 Q 258 -1 242.5 -0.5 Q 227 0 210.5 0 Q 194 0 178 0 Q 162 0 149 0 Q 136 0 120 0 Q 104 0 87.5 0 Q 71 0 55.5 -0.5 Q 40 -1 29 -1 L 29 8 Z M 99 534 Q 99 555 113.49999 569.5 Q 128 584 149 584 Q 170 584 184.5 569.5 Q 199 555 199 534 Q 199 513 184.5 498.5 Q 170 484 149 484 Q 128 484 113.49999 498.5 Q 99 513 99 534 Z"/>
        </g>
        <g transform="matrix(1 0 0 1 9307 773)">
            <path fill="#000000" stroke="none" d="M 24 8 L 26 10 Q 44 10 62 10.5 Q 80 11 97 13 Q 107 14 107 25 L 107 674 Q 107 685 97 686 Q 83 688 65 688.5 Q 47 689 29 689 L 27 691 L 27 699 Q 43 699 63.5 699 Q 84 699 105 699 Q 126 699 146 699.5 Q 166 700 181 701 L 183 699 Q 182 685 181.5 666.5 Q 181 648 181 634 L 181 25 Q 181 14 191 13 Q 208 11 226 10.5 Q 244 10 262 10 L 264 8 L 264 -1 Q 253 -1 237.5 -0.5 Q 222 0 205.5 0 Q 189 0 173 0 Q 157 0 144 0 Q 131 0 115 0 Q 99 0 82.5 0 Q 66 0 50.5 -0.5 Q 35 -1 24 -1 L 24 8 Z"/>
        </g>
        <g transform="matrix(1 0 0 1 9590 773)">
            <path fill="#000000" stroke="none" d="M 29 8 L 31 10 Q 49 10 67 10.5 Q 85 11 102 13 Q 112 14 112 25 L 112 375 Q 112 386 102 387 Q 88 389 70 389.5 Q 52 390 34 390 L 32 392 L 32 400 Q 48 400 68.5 400 Q 89 400 110 400 Q 131 400 151 400.5 Q 171 401 186 402 L 188 400 Q 187 386 186.5 365.5 Q 186 345 186 331 Q 210 352 230.5 366.5 Q 251 381 269 391 Q 300 408 333 408 Q 385 408 413 385 Q 441 362 451 325 Q 474 347 498.5 364 Q 523 381 541 391 Q 572 408 605 408 Q 671 408 700.49994 370.5 Q 730 333 730 268 L 730 25 Q 730 13 740 13 Q 762 11 782.5 10.5 Q 803 10 818 10 L 820 8 L 820 0 Q 809 0 789.5 0 Q 770 0 747.5 0 Q 725 0 701 -0.5 Q 677 -1 656 -2 L 654 0 Q 655 14 655.5 31 Q 656 48 656 65 L 656 254 Q 656 308 632.5 336.5 Q 609 365 563 365 Q 528 365 495 342 Q 476 329 467 317 Q 458 305 458 280 L 458 25 Q 458 13 468 13 Q 490 11 510.5 10.5 Q 531 10 546 10 L 548 8 L 548 0 Q 537 0 517.5 0 Q 498 0 475.5 0 Q 453 0 429 -0.5 Q 405 -1 384 -2 L 382 0 Q 383 14 383.5 31 Q 384 48 384 65 L 384 254 Q 384 308 360.50003 336.5 Q 337 365 291 365 Q 256 365 223 342 Q 204 329 195 317 Q 186 305 186 280 L 186 25 Q 186 14 196 13 Q 213 11 231 10.5 Q 249 10 267 10 L 269 8 L 269 -1 Q 258 -1 242.5 -0.5 Q 227 0 210.5 0 Q 194 0 178 0 Q 162 0 149 0 Q 136 0 120 0 Q 104 0 87.5 0 Q 71 0 55.5 -0.5 Q 40 -1 29 -1 L 29 8 Z"/>
        </g>
        <g transform="matrix(1 0 0 1 10418 773)">
            <path fill="#000000" stroke="none" d="M 43 8 L 45 10 Q 63 10 76 10.5 Q 89 11 106 13 Q 116 14 116 25 L 116 388 L 34 388 L 34 398 L 36 400 L 116 400 L 116 506 Q 116 541 123.5 569 Q 131 597 151 629 Q 176 668 205.5 688.5 Q 235 709 272 709 Q 302 709 322.5 703 Q 343 697 357 686 L 358 682 Q 357 668 356 650 Q 355 632 354 613.5 Q 353 595 352.5 577.5 Q 352 560 352 548 L 345 548 L 343 550 Q 343 566 341 584.5 Q 339 603 336 620 Q 333 635 328 648.5 Q 323 662 314 672.5 Q 305 683 292 689.5 Q 279 696 260 696 Q 240 696 222.5 683 Q 205 670 198 649 Q 194 638 192 621 Q 190 604 190 585 L 190 400 L 301 400 L 301 390 L 299 388 L 190 388 L 190 25 Q 190 14 200 13 Q 217 11 240 10.5 Q 263 10 281 10 L 283 8 L 283 -1 Q 272 -1 255 -0.5 Q 238 0 220 0 Q 202 0 184 0 Q 166 0 153 0 Q 127 0 96.5 0 Q 66 0 43 -1 L 43 8 Z"/>
        </g>
        <g transform="matrix(1 0 0 1 10737 773)">
            <path fill="#000000" stroke="none" d="M 366 0 Q 367 14 367.5 33 Q 368 52 368 69 Q 344 48 323.5 33.5 Q 303 19 285 8 Q 270 -1 254.5 -4.5 Q 239 -8 222 -8 Q 179 -8 145.5 6.5 Q 112 21 88.5 46 Q 65 71 53 104.5 Q 41 138 41 177 Q 41 235 60 278 Q 79 321 111.5 350 Q 144 379 187 393.50003 Q 230 408 278 408 Q 301 408 327 403.5 Q 353 399 368 392 L 368 674 Q 368 685 358 686 Q 344 688 326 688.5 Q 308 689 290 689 L 288 691 L 288 699 Q 304 699 324.5 699 Q 345 699 366 699 Q 387 699 407 699.5 Q 427 700 442 701 L 444 699 Q 443 685 442.5 666.5 Q 442 648 442 634 L 442 25 Q 442 13 452 13 Q 474 11 494.5 10.5 Q 515 10 530 10 L 532 8 L 532 0 Q 521 0 501.5 0 Q 482 0 459.5 0 Q 437 0 413 -0.5 Q 389 -1 368 -2 L 366 0 Z M 265 34 Q 297 34 332 59 Q 352 73 360 84 Q 368 95 368 118 L 368 257 Q 368 311 356 336 Q 328 393 257 393 Q 231 393 206.5 381.5 Q 182 370 163.5 347.5 Q 145 325 133.5 291.5 Q 122 258 122 215 Q 122 179 130.5 146 Q 139 113 156.5 88 Q 174 63 201 48.5 Q 228 34 265 34 Z"/>
        </g>
        <g transform="matrix(1 0 0 1 11581 773)">
            <path fill="#000000" stroke="none" d="M 400 57 L 403 51 Q 373 27 335.5 9.5 Q 298 -8 248 -8 Q 201 -8 163 6.5 Q 125 21 98 48 Q 71 75 56 112.5 Q 41 150 41 195 Q 41 246 57.5 285.5 Q 74 325 102 352 Q 130 379 166 393.50003 Q 202 408 241 408 Q 286 408 318.5 393.50003 Q 351 379 371.5 355.5 Q 392 332 402 302 Q 412 272 412 240 Q 412 233 411.5 225.5 Q 411 218 410 213 L 408 211 Q 381 212 342.5 212 Q 304 212 263.5 212 Q 223 212 185 211.49998 Q 147 211 120 210 Q 122 169 135.5 136 Q 149 103 171.5 79.5 Q 194 56 225 43 Q 256 30 292 30 Q 323 30 347 36 Q 371 42 397 57 L 400 57 Z M 119 224 Q 136 223 163 223 Q 190 223 220 223.5 Q 250 224 279.5 224.5 Q 309 225 332 226 Q 339 226 339 236 Q 339 308 312.5 351.5 Q 286 395 237 395 Q 178 395 149.5 350.5 Q 121 306 119 224 Z"/>
        </g>
        <g transform="matrix(1 0 0 1 12039 773)">
            <path fill="#000000" stroke="none" d="M 87 375 Q 87 386 77 387 Q 63 389 45 389.5 Q 27 390 9 390 L 7 392 L 7 400 Q 23 400 43.5 400 Q 64 400 85 400 Q 106 400 126 400.5 Q 146 401 161 402 L 163 400 Q 162 386 161.5 367.5 Q 161 349 161 335 L 161 146 Q 161 92 184.5 63.5 Q 208 35 254 35 Q 289 35 322 58 Q 341 71 350 83 Q 359 95 359 120 L 359 375 Q 359 386 349 387 Q 335 389 317 389.5 Q 299 390 281 390 L 279 392 L 279 400 Q 295 400 315.5 400 Q 336 400 357 400 Q 378 400 398 400.5 Q 418 401 433 402 L 435 400 Q 434 386 433.5 367.5 Q 433 349 433 335 L 433 25 Q 433 13 443 13 Q 465 11 485.5 10.5 Q 506 10 521 10 L 523 8 L 523 0 Q 512 0 492.5 0 Q 473 0 450.5 0 Q 428 0 404 -0.5 Q 380 -1 359 -2 L 357 0 Q 358 14 358.49997 33 Q 359 52 359 69 Q 335 48 314.5 33.5 Q 294 19 276 9 Q 245 -8 212 -8 Q 146 -8 116.5 29.500002 Q 87 67 87 132 L 87 375 Z"/>
        </g>
        <g transform="matrix(1 0 0 1 12570 773)">
            <path fill="#000000" stroke="none" d="M 29 8 L 31 10 Q 49 10 67 10.5 Q 85 11 102 13 Q 112 14 112 25 L 112 375 Q 112 386 102 387 Q 88 389 70 389.5 Q 52 390 34 390 L 32 392 L 32 400 Q 48 400 68.5 400 Q 89 400 110 400 Q 131 400 151 400.5 Q 171 401 186 402 L 188 400 Q 188 393 187.49998 383 Q 187 373 186.5 363 Q 186 353 186 343.5 Q 186 334 186 327 Q 207 352 220.50002 364 Q 234 376 251 390 Q 263 399 273.5 403.5 Q 284 408 298 408 Q 318 408 332 399.5 Q 346 391 353 379 L 354 375 Q 352 346 350 309 Q 348 272 348 247 L 341 247 L 339 249 Q 339 267 338 279.5 Q 337 292 334 309 Q 329 334 312 347 Q 295 360 268 360 Q 251 360 237.5 354.5 Q 224 349 213 339 Q 196 323 191 311.5 Q 186 300 186 277 L 186 25 Q 186 14 196 13 Q 213 11 231 10.5 Q 249 10 267 10 L 269 8 L 269 -1 Q 258 -1 242.5 -0.5 Q 227 0 210.5 0 Q 194 0 178 0 Q 162 0 149 0 Q 136 0 120 0 Q 104 0 87.5 0 Q 71 0 55.5 -0.5 Q 40 -1 29 -1 L 29 8 Z"/>
        </g>
        <g transform="matrix(1 0 0 1 12952 773)">
            <path fill="#000000" stroke="none" d="M 29 8 L 31 10 Q 49 10 67 10.5 Q 85 11 102 13 Q 112 14 112 25 L 112 375 Q 112 386 102 387 Q 88 389 70 389.5 Q 52 390 34 390 L 32 392 L 32 400 Q 48 400 68.5 400 Q 89 400 110 400 Q 131 400 151 400.5 Q 171 401 186 402 L 188 400 Q 187 386 186.5 365.5 Q 186 345 186 331 Q 210 352 230.5 366.5 Q 251 381 269 391 Q 300 408 333 408 Q 399 408 428.5 370.5 Q 458 333 458 268 L 458 25 Q 458 13 468 13 Q 490 11 510.5 10.5 Q 531 10 546 10 L 548 8 L 548 0 Q 537 0 517.5 0 Q 498 0 475.5 0 Q 453 0 429 -0.5 Q 405 -1 384 -2 L 382 0 Q 383 14 383.5 31 Q 384 48 384 65 L 384 254 Q 384 308 360.50003 336.5 Q 337 365 291 365 Q 256 365 223 342 Q 204 329 195 317 Q 186 305 186 280 L 186 25 Q 186 14 196 13 Q 213 11 231 10.5 Q 249 10 267 10 L 269 8 L 269 -1 Q 258 -1 242.5 -0.5 Q 227 0 210.5 0 Q 194 0 178 0 Q 162 0 149 0 Q 136 0 120 0 Q 104 0 87.5 0 Q 71 0 55.5 -0.5 Q 40 -1 29 -1 L 29 8 Z"/>
        </g>
        <g transform="matrix(1 0 0 1 13508 773)">
            <path fill="#000000" stroke="none" d="M 400 57 L 403 51 Q 373 27 335.5 9.5 Q 298 -8 248 -8 Q 201 -8 163 6.5 Q 125 21 98 48 Q 71 75 56 112.5 Q 41 150 41 195 Q 41 243 58 282 Q 75 321 105 349 Q 135 377 175.5 392.50003 Q 216 408 262 408 Q 300 408 335 402 Q 370 396 391 385 L 393 381 Q 392 371 391.49997 356.5 Q 391 342 390.49997 326.5 Q 390 311 389.5 296 Q 389 281 389 269 L 382 269 L 380 271 Q 380 288 379 297.5 Q 378 307 376 319 Q 368 357 336.5 376 Q 305 395 256 395 Q 197 395 159.5 350 Q 122 305 122 220 Q 122 175 135 139.5 Q 148 104 170.5 79.5 Q 193 55 224.5 42.5 Q 256 30 292 30 Q 323 30 347 36 Q 371 42 397 57 L 400 57 Z"/>
        </g>
        <g transform="matrix(1 0 0 1 13945 773)">
            <path fill="#000000" stroke="none" d="M 41 195 Q 41 246 58 285.5 Q 75 325 104 352 Q 133 379 172 393.50003 Q 211 408 255 408 Q 302 408 340.5 392.50003 Q 379 377 406.49997 350 Q 434 323 449 286 Q 464 249 464 205 Q 464 155 447 115.5 Q 430 76 401 48.5 Q 372 21 332 6.5 Q 292 -8 247 -8 Q 199 -8 161 7.5 Q 123 23 96 50 Q 69 77 55 114.50001 Q 41 152 41 195 Z M 257 7 Q 286 7 309 17 Q 332 27 348.5 49.5 Q 365 72 374 108 Q 383 144 383 195 Q 383 236 373 272 Q 363 308 345 335 Q 327 362 301.5 377.50003 Q 276 393 245 393 Q 188 393 155 350 Q 122 307 122 205 Q 122 165 131.5 129 Q 141 93 158.5 66 Q 176 39 201 23 Q 226 7 257 7 Z"/>
        </g>
        <g transform="matrix(1 0 0 1 14749 773)">
            <path fill="#000000" stroke="none" d="M 400 57 L 403 51 Q 373 27 335.5 9.5 Q 298 -8 248 -8 Q 201 -8 163 6.5 Q 125 21 98 48 Q 71 75 56 112.5 Q 41 150 41 195 Q 41 246 57.5 285.5 Q 74 325 102 352 Q 130 379 166 393.50003 Q 202 408 241 408 Q 286 408 318.5 393.50003 Q 351 379 371.5 355.5 Q 392 332 402 302 Q 412 272 412 240 Q 412 233 411.5 225.5 Q 411 218 410 213 L 408 211 Q 381 212 342.5 212 Q 304 212 263.5 212 Q 223 212 185 211.49998 Q 147 211 120 210 Q 122 169 135.5 136 Q 149 103 171.5 79.5 Q 194 56 225 43 Q 256 30 292 30 Q 323 30 347 36 Q 371 42 397 57 L 400 57 Z M 119 224 Q 136 223 163 223 Q 190 223 220 223.5 Q 250 224 279.5 224.5 Q 309 225 332 226 Q 339 226 339 236 Q 339 308 312.5 351.5 Q 286 395 237 395 Q 178 395 149.5 350.5 Q 121 306 119 224 Z"/>
        </g>
        <g transform="matrix(1 0 0 1 15207 773)">
            <path fill="#000000" stroke="none" d="M 77 370 Q 70 386 57 387 Q 29 390 -7 390 L -9 392 L -9 401 Q 2 401 17.5 400.5 Q 33 400 49.5 400 Q 66 400 82 400 Q 98 400 111 400 Q 124 400 140 400 Q 156 400 172.50002 400 Q 189 400 204.50002 400.5 Q 220 401 231 401 L 231 392 L 229 390 Q 194 390 161 387 Q 150 385 155 376 L 282 86 Q 298 124 316 165.5 Q 334 207 350.5 246 Q 367 285 381.5 319 Q 396 353 405 377 Q 409 386 399 387 Q 369 390 333 390 L 331 392 L 331 401 Q 354 400 376.50003 400 Q 399 400 425 400 Q 451 400 467 400 Q 483 400 505 401 L 505 392 L 503 390 Q 485 390 470 389.5 Q 455 389 438 387 Q 432 386 427.5 382.5 Q 423 379 419 370 L 251 -18 L 247 -18 L 77 370 Z"/>
        </g>
        <g transform="matrix(1 0 0 1 15688 773)">
            <path fill="#000000" stroke="none" d="M 46 18 Q 47 25 47.5 38.5 Q 48 52 48 67.5 Q 48 83 48 97.49999 Q 48 112 48 122 L 55 122 L 57 120 Q 57 86 67 64 Q 79 38 104 20 Q 129 2 180 2 Q 216 2 244 19.5 Q 272 37 272 69 Q 272 86 267.5 98.50001 Q 263 111 251 121.49999 Q 239 132 217.5 142.5 Q 196 153 163 165 Q 112 184 86.50001 213.5 Q 61 243 61 293 Q 61 320 72 342.5 Q 83 365 101.49999 381.5 Q 120 398 145.5 407 Q 171 416 200 416 Q 227 416 256.5 407.49997 Q 286 399 302 386 L 303 382 Q 302 375 301.5 362 Q 301 349 301 334 Q 301 319 301 305 Q 301 291 301 281 L 294 281 L 292 283 Q 292 299 289 314.5 Q 286 330 282 340 Q 271 366 250.5 384.5 Q 230 403 190 403 Q 160 403 136.5 386 Q 113 369 113 335 Q 113 318 117 305 Q 121 292 131 281.5 Q 141 271 157.5 262 Q 174 253 199 244 Q 233 231 257 219 Q 281 207 296.5 192.5 Q 312 178 319 159.5 Q 326 141 326 117 Q 326 90 314.5 67 Q 303 44 282 27 Q 261 10 231 0 Q 201 -10 165 -10 Q 138 -10 104 -3.5 Q 70 3 47 14 L 46 18 Z"/>
        </g>
        <g transform="matrix(1 0 0 1 16057 773)">
            <path fill="#000000" stroke="none" d="M 16 -224 Q 16 -214 17 -197 Q 18 -180 18.5 -161 Q 19 -142 19.5 -124 Q 20 -106 20 -94 L 27 -94 L 29 -96 Q 29 -113 30.499998 -125 Q 32 -137 34 -149 Q 39 -175 54.5 -191 Q 70 -207 97 -207 Q 112 -207 127.5 -199.5 Q 143 -192 157 -169 Q 165 -157 173 -143 Q 181 -129 190.5 -110 Q 200 -91 213 -65.5 Q 226 -40 242 -6 L 77 370 Q 70 386 57 387 Q 29 390 -7 390 L -9 392 L -9 401 Q 2 401 17.5 400.5 Q 33 400 49.5 400 Q 66 400 82 400 Q 98 400 111 400 Q 124 400 140 400 Q 156 400 172.50002 400 Q 189 400 204.50002 400.5 Q 220 401 231 401 L 231 392 L 229 390 Q 194 390 161 387 Q 150 385 155 376 L 282 86 Q 298 124 316 165.5 Q 334 207 350.5 246 Q 367 285 381.5 319 Q 396 353 405 377 Q 409 386 399 387 Q 369 390 333 390 L 331 392 L 331 401 Q 354 400 376.50003 400 Q 399 400 425 400 Q 451 400 467 400 Q 483 400 505 401 L 505 392 L 503 390 Q 485 390 470 389.5 Q 455 389 438 387 Q 432 386 427.5 382.5 Q 423 379 419 370 L 272 28 Q 262 4 246 -30 Q 230 -64 213 -98 Q 196 -132 180 -161 Q 164 -190 155 -204 Q 136 -232 117 -242 Q 98 -252 76 -252 Q 44 -252 18 -228 L 16 -224 Z"/>
        </g>
        <g transform="matrix(1 0 0 1 16538 773)">
            <path fill="#000000" stroke="none" d="M 317 370 Q 310 386 297 387 Q 269 390 231 390 Q 194 390 161 387 Q 150 385 155 376 L 282 86 Q 301 131 320.5 177 Q 340 223 359 267 L 317 370 Z M 77 370 Q 70 386 57 387 Q 29 390 -7 390 L -9 392 L -9 401 Q 2 401 32 400.5 Q 62 400 98 400 Q 134 400 170 400 Q 206 400 230 400 Q 253 400 289 400 Q 325 400 361 400 Q 397 400 427.5 400.5 Q 458 401 471 401 L 471 392 L 469 390 Q 434 390 401 387 Q 390 385 395 376 L 522 86 Q 538 124 556 165.5 Q 574 207 590.5 246 Q 607 285 621.5 319 Q 636 353 645 377 Q 649 386 639 387 Q 609 390 573 390 L 571 392 L 571 401 Q 594 400 616.5 400 Q 639 400 665 400 Q 691 400 707 400 Q 723 400 745 401 L 745 392 L 743 390 Q 725 390 710 389.5 Q 695 389 678 387 Q 672 386 667.5 382.5 Q 663 379 659 370 L 491 -18 L 487 -18 L 367 251 L 251 -18 L 247 -18 L 77 370 Z"/>
        </g>
        <g transform="matrix(1 0 0 1 17259 773)">
            <path fill="#000000" stroke="none" d="M 400 57 L 403 51 Q 373 27 335.5 9.5 Q 298 -8 248 -8 Q 201 -8 163 6.5 Q 125 21 98 48 Q 71 75 56 112.5 Q 41 150 41 195 Q 41 243 58 282 Q 75 321 105 349 Q 135 377 175.5 392.50003 Q 216 408 262 408 Q 300 408 335 402 Q 370 396 391 385 L 393 381 Q 392 371 391.49997 356.5 Q 391 342 390.49997 326.5 Q 390 311 389.5 296 Q 389 281 389 269 L 382 269 L 380 271 Q 380 288 379 297.5 Q 378 307 376 319 Q 368 357 336.5 376 Q 305 395 256 395 Q 197 395 159.5 350 Q 122 305 122 220 Q 122 175 135 139.5 Q 148 104 170.5 79.5 Q 193 55 224.5 42.5 Q 256 30 292 30 Q 323 30 347 36 Q 371 42 397 57 L 400 57 Z"/>
        </g>
    </g>
</svg>
