<svg width="38287" height="3047" viewBox="0 0 38287 3047" xmlns="http://www.w3.org/2000/svg">
    <defs/>
    <g transform="matrix(1 0 0 -1 0 3047)">
        <g transform="matrix(1 0 0 1 0 1114)">
            <path fill="#000000" stroke="none" d="M 819 1228 L 614 1228 L 614 819 L 409 819 L 409 614 L 819 614 L 819 1228 Z M 409 819 L 409 1228 L 204 1228 L 204 1433 L 819 1433 L 819 1228 L 1024 1228 L 1024 204 L 1228 204 L 1228 0 L 819 0 L 819 409 L 204 409 L 204 0 L -204 0 L -204 204 L 0 204 L 0 409 L 204 409 L 204 819 L 409 819 Z"/>
        </g>
        <g transform="matrix(1 0 0 1 1433 1114)">
            <path fill="#000000" stroke="none" d="M 0 0 L 0 1024 L 204 1024 L 204 204 L 614 204 L 614 0 L 0 0 Z"/>
        </g>
        <g transform="matrix(1 0 0 1 2252 1114)">
            <path fill="#000000" stroke="none" d="M -614 1638 L -614 1843 L -819 1843 L -819 2048 L -409 2048 L -409 1843 L -204 1843 L -204 1638 L -614 1638 Z"/>
        </g>
        <g transform="matrix(1 0 0 1 2252 1114)">
            <path fill="#000000" stroke="none" d="M 0 0 L 0 1228 L -204 1228 L -204 1433 L 204 1433 L 204 819 L 1024 819 L 1024 409 L 819 409 L 819 614 L 204 614 L 204 204 L 409 204 L 409 0 L 0 0 L 0 -204 L -204 -204 L -204 0 L 0 0 Z"/>
        </g>
        <g transform="matrix(1 0 0 1 3480 1114)">
            <path fill="#000000" stroke="none" d="M 819 -409 L 819 -204 L 1024 -204 L 1024 0 L 819 0 L 819 204 L 614 204 L 614 0 L 204 0 L 204 204 L 0 204 L 0 1228 L -204 1228 L -204 1433 L 204 1433 L 204 204 L 409 204 L 409 1228 L 614 1228 L 614 409 L 819 409 L 819 204 L 1024 204 L 1024 1228 L 819 1228 L 819 1433 L 1228 1433 L 1228 -409 L 819 -409 L 819 -614 L 0 -614 L 0 -204 L 204 -204 L 204 -409 L 819 -409 Z"/>
        </g>
        <g transform="matrix(1 0 0 1 4913 1114)">
            <path fill="#000000" stroke="none" d="M 614 1024 L 614 1228 L 204 1228 L 204 819 L 819 819 L 819 614 L 204 614 L 204 204 L 819 204 L 819 409 L 1024 409 L 1024 0 L -204 0 L -204 204 L 0 204 L 0 614 L -204 614 L -204 819 L 0 819 L 0 1228 L -204 1228 L -204 1433 L 614 1433 L 614 1228 L 819 1228 L 819 1433 L 1024 1433 L 1024 1024 L 614 1024 Z M 409 1638 L 409 1843 L 204 1843 L 204 2048 L 614 2048 L 614 1843 L 819 1843 L 819 1638 L 409 1638 Z"/>
        </g>
        <g transform="matrix(1 0 0 1 7165 1114)">
            <path fill="#000000" stroke="none" d="M 819 204 L 819 409 L 614 409 L 614 614 L 819 614 L 819 1228 L 614 1228 L 614 1433 L 1024 1433 L 1024 204 L 1228 204 L 1228 409 L 1433 409 L 1433 0 L 1024 0 L 1024 204 L 819 204 L 819 0 L 204 0 L 204 204 L 0 204 L 0 1228 L -204 1228 L -204 1433 L 204 1433 L 204 409 L 409 409 L 409 204 L 819 204 Z"/>
        </g>
        <g transform="matrix(1 0 0 1 8803 1114)">
            <path fill="#000000" stroke="none" d="M -1024 -614 L -1024 -204 L -819 -204 L -819 0 L -614 0 L -614 -204 L -409 -204 L -409 -614 L -614 -614 L -614 -409 L -819 -409 L -819 -614 L -1024 -614 Z"/>
        </g>
        <g transform="matrix(1 0 0 1 8803 1114)">
            <path fill="#000000" stroke="none" d="M 1433 1433 L 1433 1843 L 1638 1843 L 1638 1433 L 1433 1433 L 1433 1228 L 1024 1228 L 1024 819 L 819 819 L 819 1228 L 614 1228 L 614 614 L 819 614 L 819 0 L 1024 0 L 1024 409 L 1228 409 L 1228 614 L 1638 614 L 1638 409 L 1433 409 L 1433 204 L 1228 204 L 1228 0 L 1024 0 L 1024 -204 L 819 -204 L 819 0 L 614 0 L 614 614 L 409 614 L 409 1228 L 204 1228 L 204 1638 L 0 1638 L 0 1843 L 409 1843 L 409 1228 L 614 1228 L 614 1843 L 819 1843 L 819 1433 L 1024 1433 L 1024 1843 L 1228 1843 L 1228 1433 L 1433 1433 Z"/>
        </g>
        <g transform="matrix(1 0 0 1 10646 1114)">
            <path fill="#000000" stroke="none" d="M 409 0 L 409 409 L 614 409 L 614 0 L 409 0 Z M 0 409 L 0 819 L 204 819 L 204 409 L 0 409 Z M 819 409 L 819 819 L 1024 819 L 1024 409 L 819 409 Z M 409 819 L 409 1228 L 819 1228 L 819 1024 L 614 1024 L 614 819 L 409 819 Z"/>
        </g>
        <g transform="matrix(1 0 0 1 11874 1114)">
            <path fill="#000000" stroke="none" d="M 409 0 L 409 204 L 614 204 L 614 409 L 819 409 L 819 819 L 1024 819 L 1024 204 L 819 204 L 819 0 L 409 0 L 409 -204 L 0 -204 L 0 204 L 204 204 L 204 0 L 409 0 Z"/>
        </g>
        <g transform="matrix(1 0 0 1 13102 1114)">
            <path fill="#000000" stroke="none" d="M 204 0 L 204 1228 L 0 1228 L 0 1433 L 409 1433 L 409 0 L 204 0 Z"/>
        </g>
        <g transform="matrix(1 0 0 1 13716 1114)">
            <path fill="#000000" stroke="none" d="M -614 1638 L -614 1843 L -409 1843 L -409 2048 L -819 2048 L -819 1638 L -1024 1638 L -1024 2048 L -819 2048 L -819 2252 L -204 2252 L -204 2048 L 0 2048 L 0 1843 L -204 1843 L -204 1638 L -614 1638 Z"/>
        </g>
        <g transform="matrix(1 0 0 1 14740 1114)">
            <path fill="#000000" stroke="none" d="M 1024 0 L 1024 204 L 819 204 L 819 0 L 1024 0 Z M 204 1228 L 204 1638 L 614 1638 L 614 1433 L 819 1433 L 819 409 L 1228 409 L 1228 0 L 1024 0 L 1024 -204 L 614 -204 L 614 1433 L 409 1433 L 409 1228 L 204 1228 L 204 819 L 409 819 L 409 614 L 0 614 L 0 1228 L 204 1228 Z"/>
        </g>
        <g transform="matrix(1 0 0 1 16173 1114)">
            <path fill="#000000" stroke="none" d="M -1228 1433 L -1228 2048 L -1024 2048 L -1024 1638 L -614 1638 L -614 1433 L -1228 1433 Z M -614 1638 L -614 1843 L -819 1843 L -819 2048 L -1024 2048 L -1024 2252 L -614 2252 L -614 2048 L -409 2048 L -409 1638 L -614 1638 Z"/>
        </g>
        <g transform="matrix(1 0 0 1 16173 1114)">
            <path fill="#000000" stroke="none" d="M -204 2048 L -409 2048 L -409 1843 L -204 1843 L -204 2048 Z M -614 1843 L -614 2252 L -204 2252 L -204 2048 L 0 2048 L 0 1638 L -409 1638 L -409 1843 L -614 1843 Z"/>
        </g>
        <g transform="matrix(1 0 0 1 16173 1114)">
            <path fill="#000000" stroke="none" d="M 204 1024 L 204 1228 L 819 1228 L 819 1024 L 1024 1024 L 1024 0 L 614 0 L 614 204 L 819 204 L 819 1024 L 204 1024 L 204 819 L 614 819 L 614 614 L 409 614 L 409 409 L 204 409 L 204 0 L 0 0 L 0 409 L 204 409 L 204 614 L 0 614 L 0 1024 L 204 1024 Z"/>
        </g>
        <g transform="matrix(1 0 0 1 17401 1114)">
            <path fill="#000000" stroke="none" d="M 409 819 L 204 819 L 204 204 L 614 204 L 614 409 L 409 409 L 409 819 Z M 819 1638 L 614 1638 L 614 1433 L 819 1433 L 819 1638 Z M 1024 1843 L 819 1843 L 819 1638 L 1024 1638 L 1024 1843 Z M 1638 1638 L 1638 2048 L 1843 2048 L 1843 1638 L 1638 1638 L 1638 1433 L 1024 1433 L 1024 1228 L 1228 1228 L 1228 1024 L 1024 1024 L 1024 819 L 1228 819 L 1228 409 L 1433 409 L 1433 1228 L 1843 1228 L 1843 1024 L 1638 1024 L 1638 -204 L 1433 -204 L 1433 0 L 1228 0 L 1228 409 L 1024 409 L 1024 614 L 819 614 L 819 819 L 614 819 L 614 409 L 819 409 L 819 0 L 204 0 L 204 204 L 0 204 L 0 819 L 204 819 L 204 1024 L 0 1024 L 0 1228 L 409 1228 L 409 819 L 614 819 L 614 1024 L 819 1024 L 819 1228 L 614 1228 L 614 1433 L 204 1433 L 204 1638 L 0 1638 L 0 1843 L 204 1843 L 204 1638 L 614 1638 L 614 2048 L 1024 2048 L 1024 1843 L 1228 1843 L 1228 1638 L 1638 1638 Z"/>
        </g>
        <g transform="matrix(1 0 0 1 19449 1114)">
            <path fill="#000000" stroke="none" d="M 1228 819 L 1228 1024 L 1638 1024 L 1638 819 L 1843 819 L 1843 204 L 1638 204 L 1638 0 L 1228 0 L 1228 409 L 1433 409 L 1433 204 L 1638 204 L 1638 819 L 1228 819 L 1228 614 L 1024 614 L 1024 204 L 819 204 L 819 0 L 614 0 L 614 204 L 819 204 L 819 614 L 614 614 L 614 819 L 204 819 L 204 204 L 409 204 L 409 0 L 0 0 L 0 819 L 204 819 L 204 1024 L 819 1024 L 819 819 L 1228 819 Z"/>
        </g>
        <g transform="matrix(1 0 0 1 21497 1114)">
            <path fill="#000000" stroke="none" d="M 1433 1024 L 1433 1638 L 614 1638 L 614 1433 L 409 1433 L 409 1843 L 1638 1843 L 1638 1024 L 1433 1024 Z"/>
        </g>
        <g transform="matrix(1 0 0 1 24569 1114)">
            <path fill="#000000" stroke="none" d="M 1228 1024 L 1024 1024 L 1024 1228 L 614 1228 L 614 614 L 409 614 L 409 204 L 1024 204 L 1024 409 L 1228 409 L 1228 1024 Z M 409 614 L 409 1228 L 204 1228 L 204 1433 L 1228 1433 L 1228 1024 L 1433 1024 L 1433 409 L 1228 409 L 1228 204 L 1024 204 L 1024 0 L 0 0 L 0 204 L 204 204 L 204 614 L 409 614 Z"/>
        </g>
        <g transform="matrix(1 0 0 1 26207 1114)">
            <path fill="#000000" stroke="none" d="M 409 204 L 409 409 L 1228 409 L 1228 204 L 409 204 L 409 0 L 0 0 L 0 204 L 409 204 Z M 204 819 L 204 1024 L 1228 1024 L 1228 819 L 204 819 Z"/>
        </g>
        <g transform="matrix(1 0 0 1 27640 1114)">
            <path fill="#000000" stroke="none" d="M 819 409 L 819 614 L 0 614 L 0 819 L 1024 819 L 1024 409 L 819 409 Z"/>
        </g>
        <g transform="matrix(1 0 0 1 28664 1114)">
            <path fill="#000000" stroke="none" d="M 409 819 L 204 819 L 204 614 L 409 614 L 409 819 Z M 819 819 L 819 1024 L 409 1024 L 409 819 L 819 819 Z M 819 1024 L 1024 1024 L 1024 1638 L 1228 1638 L 1228 819 L 819 819 L 819 614 L 409 614 L 409 409 L 204 409 L 204 0 L 409 0 L 409 -204 L 204 -204 L 204 0 L 0 0 L 0 1433 L -204 1433 L -204 1638 L 204 1638 L 204 1024 L 409 1024 L 409 1228 L 614 1228 L 614 1638 L 819 1638 L 819 1024 Z"/>
        </g>
        <g transform="matrix(1 0 0 1 30097 1114)">
            <path fill="#000000" stroke="none" d="M 0 -204 L 0 0 L 204 0 L 204 -204 L 0 -204 Z M 819 -204 L 819 0 L 1024 0 L 1024 -204 L 819 -204 Z M 0 409 L 0 614 L 204 614 L 204 409 L 0 409 Z M 819 409 L 819 614 L 1024 614 L 1024 409 L 819 409 Z M 0 1024 L 0 1228 L 204 1228 L 204 1024 L 0 1024 Z M 819 1024 L 819 1228 L 1024 1228 L 1024 1024 L 819 1024 Z M 0 1638 L 0 1843 L 204 1843 L 204 1638 L 0 1638 Z M 819 1638 L 819 1843 L 1024 1843 L 1024 1638 L 819 1638 Z"/>
        </g>
        <g transform="matrix(1 0 0 1 32964 1114)">
            <path fill="#000000" stroke="none" d="M 409 204 L 409 409 L 204 409 L 204 204 L 409 204 Z M 204 409 L 204 614 L 614 614 L 614 204 L 409 204 L 409 0 L 0 0 L 0 409 L 204 409 Z"/>
        </g>
        <g transform="matrix(1 0 0 1 33783 1114)">
            <path fill="#000000" stroke="none" d="M 1433 1024 L 1433 1228 L 819 1228 L 819 1024 L 614 1024 L 614 819 L 1228 819 L 1228 1024 L 1433 1024 Z M 614 1024 L 614 1433 L 819 1433 L 819 1638 L 614 1638 L 614 1843 L 1024 1843 L 1024 1433 L 1638 1433 L 1638 1024 L 1433 1024 L 1433 614 L 1228 614 L 1228 409 L 1024 409 L 1024 204 L 1433 204 L 1433 409 L 1638 409 L 1638 204 L 1843 204 L 1843 0 L 0 0 L 0 204 L 819 204 L 819 409 L 1024 409 L 1024 614 L 204 614 L 204 819 L 409 819 L 409 1024 L 614 1024 Z"/>
        </g>
        <g transform="matrix(1 0 0 1 35831 1114)">
            <path fill="#000000" stroke="none" d="M 409 204 L 409 409 L 204 409 L 204 204 L 409 204 Z M 819 819 L 819 1024 L 1024 1024 L 1024 819 L 819 819 L 819 614 L 1024 614 L 1024 0 L 819 0 L 819 -204 L 614 -204 L 614 0 L 819 0 L 819 409 L 614 409 L 614 204 L 409 204 L 409 0 L 0 0 L 0 409 L 204 409 L 204 614 L 0 614 L 0 819 L 409 819 L 409 1024 L 614 1024 L 614 819 L 819 819 Z"/>
        </g>
        <g transform="matrix(1 0 0 1 37059 1114)">
            <path fill="#000000" stroke="none" d="M 614 614 L 614 819 L 0 819 L 0 1024 L 1024 1024 L 1024 819 L 819 819 L 819 614 L 614 614 L 614 0 L 204 0 L 204 204 L 409 204 L 409 614 L 614 614 Z"/>
        </g>
    </g>
</svg>
