<svg width="15263" height="2000" viewBox="0 0 15263 2000" xmlns="http://www.w3.org/2000/svg">
    <defs/>
    <path fill="#000000" stroke="none" transform="matrix(1 0 0 -1 0 1265)" d="M 592 656 C 570.66666666667 669.33333333333 544 679.66666666667 512 687 C 480 694.33333333333 444 698 404 698 C 359.33333333333 698 315.66666666667 691 273 677 C 229.66666666667 662.33333333333 191 640.33333333333 157 611 C 123 581.66666666667 95.66666666667 544.66666666667 75 500 C 54.33333333333 454.66666666667 44 401 44 339 C 44 284.33333333333 52.66666666667 235.33333333333 70 192 C 87.33333333333 148.66666666667 111.33333333333 112 142 82 C 172 52 208 29.33333333333 250 14 C 291.33333333333 -2 336.33333333333 -10 385 -10 C 422.33333333333 -10 457.33333333333 -7 490 -1 C 522.66666666667 4.33333333333 554 14.33333333333 584 29 L 577 103 C 547.66666666667 88.33333333333 519 78 491 72 C 462.33333333333 65.33333333333 430.66666666667 62 396 62 C 362.66666666667 62 330.33333333333 67.66666666667 299 79 C 267.66666666667 90.33333333333 240 107.66666666667 216 131 C 192 154.33333333333 172.66666666667 184 158 220 C 143.33333333333 255.33333333333 136 297.33333333333 136 346 C 136 392.66666666667 143.66666666667 433.66666666667 159 469 C 174.33333333333 503.66666666667 194.66666666667 532.66666666667 220 556 C 244.66666666667 579.33333333333 272.66666666667 597 304 609 C 335.33333333333 620.33333333333 367 626 399 626 C 437.66666666667 626 472 622.33333333333 502 615 C 531.33333333333 607.66666666667 559.33333333333 596.33333333333 586 581 L 592 656 Z"/>
    <path fill="#000000" stroke="none" transform="matrix(1 0 0 -1 621 1265)" d="M 76 0 L 449 0 L 449 72 L 158 72 L 158 688 L 76 688 L 76 0 Z"/>
    <path fill="#000000" stroke="none" transform="matrix(1 0 0 -1 1089 1265)" d="M 13 0 L 100 0 L 173 227 L 422 227 L 495 0 L 585 0 L 352 688 L 246 688 L 13 0 Z M 196 299 L 297 615 L 399 299 L 196 299 Z"/>
    <path fill="#000000" stroke="none" transform="matrix(1 0 0 -1 1685 1265)" d="M 158 0 L 158 287 L 205 287 C 227 287 246.33333333333 285 263 281 C 279.66666666667 276.33333333333 294 269.66666666667 306 261 C 317.33333333333 252.33333333333 326.66666666667 241.33333333333 334 228 C 341.33333333333 214.66666666667 346.66666666667 199 350 181 C 352.66666666667 168.33333333333 355.66666666667 154.33333333333 359 139 C 362.33333333333 123.66666666667 366 108 370 92 C 373.33333333333 76 377 60 381 44 C 384.33333333333 28 388 13.33333333333 392 0 L 487 0 C 483 11.33333333333 478.66666666667 24.66666666667 474 40 C 469.33333333333 55.33333333333 464.66666666667 71.66666666667 460 89 C 454.66666666667 105.66666666667 450 122.66666666667 446 140 C 441.33333333333 157.33333333333 437.33333333333 173.66666666667 434 189 C 430 208.33333333333 425.33333333333 226.33333333333 420 243 C 414 259 406.66666666667 273.33333333333 398 286 C 389.33333333333 298 378.66666666667 308.33333333333 366 317 C 352.66666666667 325 337 331 319 335 C 339.66666666667 339 359.33333333333 346 378 356 C 396.66666666667 365.33333333333 413 377.33333333333 427 392 C 441 406.66666666667 452.33333333333 423.33333333333 461 442 C 469 460.66666666667 473 481.33333333333 473 504 C 473 533.33333333333 468 560 458 584 C 447.33333333333 607.33333333333 432 627.66666666667 412 645 C 391.33333333333 661.66666666667 365.66666666667 674.66666666667 335 684 C 303.66666666667 693.33333333333 267.33333333333 698 226 698 C 204 698 181 697 157 695 C 132.33333333333 693 105.33333333333 690 76 686 L 76 0 L 158 0 Z M 158 621 C 174 623 187 624.33333333333 197 625 C 206.33333333333 625.66666666667 216.66666666667 626 228 626 C 279.33333333333 626 318.33333333333 614.66666666667 345 592 C 371 569.33333333333 384 537.33333333333 384 496 C 384 473.33333333333 379.33333333333 453.33333333333 370 436 C 360 418 346.33333333333 403 329 391 C 311.66666666667 379 291.66666666667 370 269 364 C 245.66666666667 357.33333333333 220.33333333333 354 193 354 L 158 354 L 158 621 Z"/>
    <path fill="#000000" stroke="none" transform="matrix(1 0 0 -1 2208 1265)" d="M 76 0 L 158 0 L 158 688 L 76 688 L 76 0 Z"/>
    <path fill="#000000" stroke="none" transform="matrix(1 0 0 -1 2436 1265)" d="M 209 0 L 291 0 L 291 612 L 499 612 L 499 684 L 1 684 L 1 612 L 209 612 L 209 0 Z"/>
    <path fill="#000000" stroke="none" transform="matrix(1 0 0 -1 2933 1265)" d="M 235 0 L 317 0 L 317 296 L 544 688 L 451 688 L 279 367 L 109 688 L 8 688 L 235 296 L 235 0 Z"/>
    <path fill="#000000" stroke="none" transform="matrix(1 0 0 -1 3693 1265)" d="M 592 656 C 570.66666666667 669.33333333333 544 679.66666666667 512 687 C 480 694.33333333333 444 698 404 698 C 359.33333333333 698 315.66666666667 691 273 677 C 229.66666666667 662.33333333333 191 640.33333333333 157 611 C 123 581.66666666667 95.66666666667 544.66666666667 75 500 C 54.33333333333 454.66666666667 44 401 44 339 C 44 284.33333333333 52.66666666667 235.33333333333 70 192 C 87.33333333333 148.66666666667 111.33333333333 112 142 82 C 172 52 208 29.33333333333 250 14 C 291.33333333333 -2 336.33333333333 -10 385 -10 C 422.33333333333 -10 457.33333333333 -7 490 -1 C 522.66666666667 4.33333333333 554 14.33333333333 584 29 L 577 103 C 547.66666666667 88.33333333333 519 78 491 72 C 462.33333333333 65.33333333333 430.66666666667 62 396 62 C 362.66666666667 62 330.33333333333 67.66666666667 299 79 C 267.66666666667 90.33333333333 240 107.66666666667 216 131 C 192 154.33333333333 172.66666666667 184 158 220 C 143.33333333333 255.33333333333 136 297.33333333333 136 346 C 136 392.66666666667 143.66666666667 433.66666666667 159 469 C 174.33333333333 503.66666666667 194.66666666667 532.66666666667 220 556 C 244.66666666667 579.33333333333 272.66666666667 597 304 609 C 335.33333333333 620.33333333333 367 626 399 626 C 437.66666666667 626 472 622.33333333333 502 615 C 531.33333333333 607.66666666667 559.33333333333 596.33333333333 586 581 L 592 656 Z"/>
    <path fill="#000000" stroke="none" transform="matrix(1 0 0 -1 4314 1265)" d="M 358 259 L 505 259 L 505 83 C 487.66666666667 75.66666666667 467 70.33333333333 443 67 C 418.33333333333 63.66666666667 397.33333333333 62 380 62 C 344 62 311 68 281 80 C 251 91.33333333333 225.33333333333 109 204 133 C 182 156.33333333333 165 186 153 222 C 141 257.33333333333 135 299 135 347 C 135 393.66666666667 142.33333333333 434.66666666667 157 470 C 171 504.66666666667 190 533.66666666667 214 557 C 237.33333333333 580.33333333333 264.33333333333 598 295 610 C 325.66666666667 621.33333333333 357.33333333333 627 390 627 C 430 627 466.33333333333 622.66666666667 499 614 C 531.66666666667 604.66666666667 561.33333333333 592.33333333333 588 577 L 594 654 C 572.66666666667 668 544.66666666667 679 510 687 C 475.33333333333 694.33333333333 438.66666666667 698 400 698 C 355.33333333333 698 311.66666666667 690.66666666667 269 676 C 226.33333333333 661.33333333333 188.33333333333 639.33333333333 155 610 C 121.66666666667 580 94.66666666667 542.66666666667 74 498 C 53.33333333333 452.66666666667 43 399.66666666667 43 339 C 43 283 51 233.33333333333 67 190 C 82.33333333333 146.66666666667 104.33333333333 110.33333333333 133 81 C 161 51 195.33333333333 28.33333333333 236 13 C 276 -2.33333333333 321 -10 371 -10 C 387 -10 404.66666666667 -9 424 -7 C 443.33333333333 -5.66666666667 462.66666666667 -3 482 1 C 501.33333333333 4.33333333333 520.33333333333 8.33333333333 539 13 C 557 17.66666666667 573 23 587 29 L 587 331 L 358 331 L 358 259 Z M 386 863 C 384 841 378 824 368 812 C 357.33333333333 800 343.33333333333 794 326 794 C 308.66666666667 794 295 800 285 812 C 274.33333333333 824 268 841 266 863 L 221 863 C 221 847.66666666667 223 833 227 819 C 231 805 237.33333333333 792.66666666667 246 782 C 254 771.33333333333 264.66666666667 763 278 757 C 291.33333333333 750.33333333333 307.33333333333 747 326 747 C 344.66666666667 747 360.66666666667 750.33333333333 374 757 C 387.33333333333 763 398.33333333333 771.33333333333 407 782 C 415 792.66666666667 421 805 425 819 C 429 833 431 847.66666666667 431 863 L 386 863 Z"/>
    <path fill="#000000" stroke="none" transform="matrix(1 0 0 -1 4967 1265)" d="M 220 -10 C 257.33333333333 -10 291.66666666667 -5.33333333333 323 4 C 353.66666666667 12.66666666667 380.33333333333 25.33333333333 403 42 C 425 58 442.33333333333 78 455 102 C 467 126 473 153 473 183 C 473 203.66666666667 469.33333333333 223.66666666667 462 243 C 454.66666666667 261.66666666667 444.33333333333 278.66666666667 431 294 C 417 308.66666666667 400.33333333333 321.33333333333 381 332 C 361.66666666667 342 340 348.66666666667 316 352 C 337.33333333333 356 357.33333333333 363 376 373 C 394.66666666667 382.33333333333 411 394 425 408 C 438.33333333333 422 449 438 457 456 C 465 473.33333333333 469 492.33333333333 469 513 C 469 540.33333333333 464.33333333333 565.33333333333 455 588 C 445.66666666667 610.66666666667 431.33333333333 630.33333333333 412 647 C 392 663 366.66666666667 675.66666666667 336 685 C 305.33333333333 693.66666666667 268.66666666667 698 226 698 C 217.33333333333 698 207.33333333333 697.66666666667 196 697 C 184.66666666667 696.33333333333 172.66666666667 695.66666666667 160 695 C 146.66666666667 693.66666666667 133 692.33333333333 119 691 C 105 689 90.66666666667 687 76 685 L 76 3 C 86.66666666667 1 97.66666666667 -0.66666666667 109 -2 C 119.66666666667 -4 131 -5.33333333333 143 -6 C 155 -7.33333333333 167.33333333333 -8.33333333333 180 -9 C 192.66666666667 -9.66666666667 206 -10 220 -10 Z M 158 621 C 174 623 187 624.33333333333 197 625 C 206.33333333333 625.66666666667 216.66666666667 626 228 626 C 279.33333333333 626 317.66666666667 615.66666666667 343 595 C 367.66666666667 573.66666666667 380 542.66666666667 380 502 C 380 480.66666666667 375.66666666667 462 367 446 C 357.66666666667 430 345 416.66666666667 329 406 C 313 394.66666666667 294 386.33333333333 272 381 C 250 375.66666666667 226 373 200 373 L 158 373 L 158 621 Z M 205 306 C 267 306 312.33333333333 293.66666666667 341 269 C 369 244.33333333333 383 212.33333333333 383 173 C 383 155 379 139.33333333333 371 126 C 363 112 352.33333333333 100.33333333333 339 91 C 325 81.66666666667 309 74.66666666667 291 70 C 273 64.66666666667 254 62 234 62 C 223.33333333333 62 211.33333333333 62.33333333333 198 63 C 184.66666666667 63.66666666667 171.33333333333 64.66666666667 158 66 L 158 306 L 205 306 Z"/>
    <path fill="#000000" stroke="none" transform="matrix(1 0 0 -1 5484 1265)" d="M -66 -214 C -26.66666666667 -198 8 -179.33333333333 38 -158 C 67.33333333333 -137.33333333333 92 -112.66666666667 112 -84 C 131.33333333333 -55.33333333333 146 -22.33333333333 156 15 C 166 52.33333333333 171 95.66666666667 171 145 L 171 688 L 89 688 L 89 143 C 89 101.66666666667 85.33333333333 66 78 36 C 70 6 58.33333333333 -20 43 -42 C 27.66666666667 -64 8.33333333333 -83 -15 -99 C -39 -115 -67 -129.66666666667 -99 -143 L -66 -214 Z"/>
    <path fill="#000000" stroke="none" transform="matrix(1 0 0 -1 5723 1265)" d="M 75 0 L 157 0 L 157 688 L 75 688 L 75 0 Z M 80 750 L 148 746 L 65 861 L -26 865 L 80 750 Z"/>
    <path fill="#000000" stroke="none" transform="matrix(1 0 0 -1 5951 1265)" d="M 12 0 L 99 0 L 172 227 L 421 227 L 494 0 L 584 0 L 351 688 L 245 688 L 12 0 Z M 195 299 L 296 615 L 398 299 L 195 299 Z M 357 863 C 355 841 349 824 339 812 C 328.33333333333 800 314.33333333333 794 297 794 C 279.66666666667 794 266 800 256 812 C 245.33333333333 824 239 841 237 863 L 192 863 C 192 847.66666666667 194 833 198 819 C 202 805 208.33333333333 792.66666666667 217 782 C 225 771.33333333333 235.66666666667 763 249 757 C 262.33333333333 750.33333333333 278.33333333333 747 297 747 C 315.66666666667 747 331.66666666667 750.33333333333 345 757 C 358.33333333333 763 369.33333333333 771.33333333333 378 782 C 386 792.66666666667 392 805 396 819 C 400 833 402 847.66666666667 402 863 L 357 863 Z"/>
    <path fill="#000000" stroke="none" transform="matrix(1 0 0 -1 6777 1265)" d="M 93 0 L 175 0 L 175 410 L 296 410 L 296 474 L 175 474 L 175 520 C 175 545.33333333333 178.66666666667 568 186 588 C 192.66666666667 607.33333333333 202.33333333333 623.66666666667 215 637 C 227 650.33333333333 241.33333333333 660.66666666667 258 668 C 274 675.33333333333 291.33333333333 679 310 679 C 321.33333333333 679 333 678.33333333333 345 677 C 357 675.66666666667 367.33333333333 673.66666666667 376 671 L 376 0 L 458 0 L 458 724 C 442.66666666667 729.33333333333 423 734.33333333333 399 739 C 375 743 349.66666666667 745 323 745 C 289.66666666667 745 259 739.66666666667 231 729 C 202.33333333333 718.33333333333 178 703 158 683 C 137.33333333333 662.33333333333 121.33333333333 637.66666666667 110 609 C 98.66666666667 579.66666666667 93 546.33333333333 93 509 L 93 474 L 26 474 L 26 410 L 93 410 L 93 0 Z"/>
    <path fill="#000000" stroke="none" transform="matrix(1 0 0 -1 7305 1265)" d="M 152 0 L 152 478 L 70 478 L 70 0 L 152 0 Z M 60 602 C 60 588 65 576 75 566 C 85 556 97 551 111 551 C 125 551 137 556 147 566 C 157 576 162 588 162 602 C 162 616 157 628 147 638 C 137 648 125 653 111 653 C 97 653 85 648 75 638 C 65 628 60 616 60 602 Z"/>
    <path fill="#000000" stroke="none" transform="matrix(1 0 0 -1 7527 1265)" d="M 76 -177 C 97.33333333333 -190.33333333333 120 -200 144 -206 C 167.33333333333 -212 190.33333333333 -215 213 -215 C 252.33333333333 -215 288 -209.66666666667 320 -199 C 352 -188.33333333333 379.33333333333 -172.33333333333 402 -151 C 424.66666666667 -129.66666666667 442.33333333333 -102.33333333333 455 -69 C 467 -36.33333333333 473 2.33333333333 473 47 L 473 478 L 399 478 L 394 397 C 390 409.66666666667 384 421.66666666667 376 433 C 367.33333333333 443.66666666667 357 453.33333333333 345 462 C 333 470 319.66666666667 476.33333333333 305 481 C 289.66666666667 485.66666666667 273.33333333333 488 256 488 C 224 488 194.66666666667 482 168 470 C 141.33333333333 457.33333333333 118.33333333333 439.66666666667 99 417 C 79.66666666667 394.33333333333 64.66666666667 367.33333333333 54 336 C 43.33333333333 304.66666666667 38 270.33333333333 38 233 C 38 197 43 164 53 134 C 63 104 77 78.33333333333 95 57 C 113 35.66666666667 134.66666666667 19.33333333333 160 8 C 184.66666666667 -4 212.33333333333 -10 243 -10 C 259.66666666667 -10 275.66666666667 -7.66666666667 291 -3 C 305.66666666667 1 319.33333333333 7.33333333333 332 16 C 344 24 355 33.66666666667 365 45 C 375 56.33333333333 383.66666666667 69 391 83 L 391 40 C 391 -24.66666666667 375.66666666667 -72 345 -102 C 313.66666666667 -132 271.66666666667 -147 219 -147 C 197.66666666667 -147 174.66666666667 -143 150 -135 C 125.33333333333 -127.66666666667 102.33333333333 -117 81 -103 L 76 -177 Z M 260 61 C 238.66666666667 61 219.66666666667 65.66666666667 203 75 C 186.33333333333 84.33333333333 172.66666666667 97 162 113 C 150.66666666667 129 142.33333333333 147.66666666667 137 169 C 131 190.33333333333 128 213 128 237 C 128 265 131.66666666667 290.33333333333 139 313 C 145.66666666667 335 155 354 167 370 C 179 386 193.33333333333 398.33333333333 210 407 C 226 415 243.66666666667 419 263 419 C 281 419 298 415 314 407 C 329.33333333333 399 342.66666666667 388 354 374 C 365.33333333333 359.33333333333 374.33333333333 342.33333333333 381 323 C 387.66666666667 303.66666666667 391 282.66666666667 391 260 L 391 208 C 391 187.33333333333 387.33333333333 168 380 150 C 372.66666666667 132 363 116.66666666667 351 104 C 338.33333333333 90.66666666667 324.33333333333 80.33333333333 309 73 C 293 65 276.66666666667 61 260 61 Z"/>
    <path fill="#000000" stroke="none" transform="matrix(1 0 0 -1 8070 1265)" d="M 70 0 L 152 0 L 152 267 C 152 287.66666666667 155.33333333333 307 162 325 C 168 343 176.33333333333 359 187 373 C 197 386.33333333333 209.33333333333 397 224 405 C 238 412.33333333333 253 416 269 416 C 306.33333333333 416 333.33333333333 404.33333333333 350 381 C 366.66666666667 357.66666666667 375 329 375 295 L 375 0 L 457 0 L 457 319 C 457 343.66666666667 453.66666666667 366.33333333333 447 387 C 439.66666666667 407.66666666667 429.33333333333 425.66666666667 416 441 C 402.66666666667 455.66666666667 386.33333333333 467.33333333333 367 476 C 347 484 324 488 298 488 C 269.33333333333 488 241.33333333333 480.66666666667 214 466 C 186.66666666667 450.66666666667 166 426.33333333333 152 393 L 152 735 L 70 735 L 70 0 Z"/>
    <path fill="#000000" stroke="none" transform="matrix(1 0 0 -1 8593 1265)" d="M 100 132 C 100 80 112.66666666667 43.33333333333 138 22 C 163.33333333333 0.66666666667 196 -10 236 -10 C 250 -10 263.66666666667 -8.66666666667 277 -6 C 290.33333333333 -3.33333333333 301.66666666667 0.33333333333 311 5 L 307 66 C 298.33333333333 62.66666666667 289.66666666667 60.33333333333 281 59 C 272.33333333333 57.66666666667 263.33333333333 57 254 57 C 232.66666666667 57 215.33333333333 63.66666666667 202 77 C 188.66666666667 89.66666666667 182 110 182 138 L 182 410 L 311 410 L 311 474 L 182 474 L 182 600 L 100 600 L 100 474 L 25 474 L 25 410 L 100 410 L 100 132 Z"/>
    <path fill="#000000" stroke="none" transform="matrix(1 0 0 -1 9158 1265)" d="M 147 0 L 240 0 L 287 178 C 291 193.33333333333 295 208.66666666667 299 224 C 303 238.66666666667 306.66666666667 254 310 270 C 313.33333333333 286 316.66666666667 302.66666666667 320 320 C 323.33333333333 337.33333333333 326.33333333333 355.66666666667 329 375 C 332.33333333333 355.66666666667 335.66666666667 337.33333333333 339 320 C 342.33333333333 302.66666666667 346 286 350 270 C 353.33333333333 254 357 238.66666666667 361 224 C 365 208.66666666667 369 193.33333333333 373 178 L 419 0 L 511 0 L 651 478 L 565 478 L 507 258 C 503 243.33333333333 499.33333333333 228.33333333333 496 213 C 492 197.66666666667 488.33333333333 182.33333333333 485 167 C 481.66666666667 151.66666666667 478.66666666667 136 476 120 C 472.66666666667 104 470 87.33333333333 468 70 C 466 87.33333333333 463.66666666667 104 461 120 C 457.66666666667 136 454.66666666667 151.66666666667 452 167 C 448.66666666667 182.33333333333 445.33333333333 197.66666666667 442 213 C 438 228.33333333333 434 243.33333333333 430 258 L 374 474 L 290 474 L 233 258 C 229 243.33333333333 225.33333333333 228.33333333333 222 213 C 218 197.66666666667 214.33333333333 182.33333333333 211 167 C 207.66666666667 151.66666666667 204.66666666667 136 202 120 C 198.66666666667 104 196 87.33333333333 194 70 C 192 87.33333333333 189.66666666667 104 187 120 C 184.33333333333 136 181.66666666667 151.66666666667 179 167 C 175.66666666667 182.33333333333 172.33333333333 197.66666666667 169 213 C 165 228.33333333333 161 243.33333333333 157 258 L 99 478 L 7 478 L 147 0 Z M 352 581 C 352 568.33333333333 356.66666666667 557.66666666667 366 549 C 374.66666666667 539.66666666667 385.33333333333 535 398 535 C 410.66666666667 535 421.66666666667 539.66666666667 431 549 C 439.66666666667 557.66666666667 444 568.33333333333 444 581 C 444 593.66666666667 439.66666666667 604.66666666667 431 614 C 421.66666666667 622.66666666667 410.66666666667 627 398 627 C 385.33333333333 627 374.66666666667 622.66666666667 366 614 C 356.66666666667 604.66666666667 352 593.66666666667 352 581 Z M 213 581 C 213 568.33333333333 217.66666666667 557.66666666667 227 549 C 235.66666666667 539.66666666667 246.33333333333 535 259 535 C 271.66666666667 535 282.66666666667 539.66666666667 292 549 C 300.66666666667 557.66666666667 305 568.33333333333 305 581 C 305 593.66666666667 300.66666666667 604.66666666667 292 614 C 282.66666666667 622.66666666667 271.66666666667 627 259 627 C 246.33333333333 627 235.66666666667 622.66666666667 227 614 C 217.66666666667 604.66666666667 213 593.66666666667 213 581 Z"/>
    <path fill="#000000" stroke="none" transform="matrix(1 0 0 -1 9813 1265)" d="M 260 -10 C 294 -10 324.66666666667 -4 352 8 C 379.33333333333 20 402.66666666667 37 422 59 C 441.33333333333 80.33333333333 456.33333333333 106.33333333333 467 137 C 477 167.66666666667 482 201.66666666667 482 239 C 482 276.33333333333 477 310.33333333333 467 341 C 456.33333333333 371.66666666667 441.33333333333 398 422 420 C 402.66666666667 441.33333333333 379.33333333333 458 352 470 C 324.66666666667 482 294 488 260 488 C 226 488 195.33333333333 482 168 470 C 140.66666666667 458 117.33333333333 441.33333333333 98 420 C 78.66666666667 398 64 371.66666666667 54 341 C 43.33333333333 310.33333333333 38 276.33333333333 38 239 C 38 201.66666666667 43.33333333333 167.66666666667 54 137 C 64 106.33333333333 78.66666666667 80.33333333333 98 59 C 117.33333333333 37 140.66666666667 20 168 8 C 195.33333333333 -4 226 -10 260 -10 Z M 260 56 C 238 56 219 60.66666666667 203 70 C 186.33333333333 79.33333333333 172.66666666667 92.33333333333 162 109 C 150.66666666667 125.66666666667 142.33333333333 145 137 167 C 131 189 128 213 128 239 C 128 265 131 289 137 311 C 142.33333333333 333 150.66666666667 352.33333333333 162 369 C 172.66666666667 385.66666666667 186.33333333333 398.66666666667 203 408 C 219 417.33333333333 238 422 260 422 C 282 422 301.33333333333 417.33333333333 318 408 C 334 398.66666666667 347.66666666667 385.66666666667 359 369 C 369.66666666667 352.33333333333 378 333 384 311 C 389.33333333333 289 392 265 392 239 C 392 213 389.33333333333 189 384 167 C 378 145 369.66666666667 125.66666666667 359 109 C 347.66666666667 92.33333333333 334 79.33333333333 318 70 C 301.33333333333 60.66666666667 282 56 260 56 Z"/>
    <path fill="#000000" stroke="none" transform="matrix(1 0 0 -1 10333 1265)" d="M 69 0 L 151 0 L 151 478 L 69 478 L 69 0 Z M -7 539 L 56 539 L 109 614 L 162 539 L 226 539 L 139 655 L 80 655 L -7 539 Z"/>
    <path fill="#000000" stroke="none" transform="matrix(1 0 0 -1 10555 1265)" d="M 147 0 L 240 0 L 287 178 C 291 193.33333333333 295 208.66666666667 299 224 C 303 238.66666666667 306.66666666667 254 310 270 C 313.33333333333 286 316.66666666667 302.66666666667 320 320 C 323.33333333333 337.33333333333 326.33333333333 355.66666666667 329 375 C 332.33333333333 355.66666666667 335.66666666667 337.33333333333 339 320 C 342.33333333333 302.66666666667 346 286 350 270 C 353.33333333333 254 357 238.66666666667 361 224 C 365 208.66666666667 369 193.33333333333 373 178 L 419 0 L 511 0 L 651 478 L 565 478 L 507 258 C 503 243.33333333333 499.33333333333 228.33333333333 496 213 C 492 197.66666666667 488.33333333333 182.33333333333 485 167 C 481.66666666667 151.66666666667 478.66666666667 136 476 120 C 472.66666666667 104 470 87.33333333333 468 70 C 466 87.33333333333 463.66666666667 104 461 120 C 457.66666666667 136 454.66666666667 151.66666666667 452 167 C 448.66666666667 182.33333333333 445.33333333333 197.66666666667 442 213 C 438 228.33333333333 434 243.33333333333 430 258 L 374 474 L 290 474 L 233 258 C 229 243.33333333333 225.33333333333 228.33333333333 222 213 C 218 197.66666666667 214.33333333333 182.33333333333 211 167 C 207.66666666667 151.66666666667 204.66666666667 136 202 120 C 198.66666666667 104 196 87.33333333333 194 70 C 192 87.33333333333 189.66666666667 104 187 120 C 184.33333333333 136 181.66666666667 151.66666666667 179 167 C 175.66666666667 182.33333333333 172.33333333333 197.66666666667 169 213 C 165 228.33333333333 161 243.33333333333 157 258 L 99 478 L 7 478 L 147 0 Z M 294 540 L 362 536 L 279 651 L 188 655 L 294 540 Z"/>
    <path fill="#000000" stroke="none" transform="matrix(1 0 0 -1 11210 1265)" d="M 151 0 L 151 478 L 69 478 L 69 0 L 151 0 Z M 59 602 C 59 588 64 576 74 566 C 84 556 96 551 110 551 C 124 551 136 556 146 566 C 156 576 161 588 161 602 C 161 616 156 628 146 638 C 136 648 124 653 110 653 C 96 653 84 648 74 638 C 64 628 59 616 59 602 Z M 203 -213 C 231 -197 256.66666666667 -179.33333333333 280 -160 C 302.66666666667 -140.66666666667 322.33333333333 -117.66666666667 339 -91 C 355 -64.33333333333 367.33333333333 -33.33333333333 376 2 C 384.66666666667 37.33333333333 389 79 389 127 L 389 478 L 307 478 L 307 122 C 307 85.33333333333 304 53.33333333333 298 26 C 292 -2 283 -26.33333333333 271 -47 C 259 -68.33333333333 244 -87 226 -103 C 207.33333333333 -119.66666666667 185.33333333333 -135.33333333333 160 -150 L 203 -213 Z M 297 602 C 297 588 302 576 312 566 C 322 556 334 551 348 551 C 362 551 374 556 384 566 C 394 576 399 588 399 602 C 399 616 394 628 384 638 C 374 648 362 653 348 653 C 334 653 322 648 312 638 C 302 628 297 616 297 602 Z"/>
    <path fill="#000000" stroke="none" transform="matrix(1 0 0 -1 11670 1265)" d="M 777 211 C 778.33333333333 219 779.33333333333 226 780 232 C 780.66666666667 238 781 244.66666666667 781 252 C 781 284.66666666667 777.66666666667 315.33333333333 771 344 C 764.33333333333 372.66666666667 754 397.66666666667 740 419 C 726 440.33333333333 708 457.33333333333 686 470 C 664 482 637.33333333333 488 606 488 C 567.33333333333 488 533.33333333333 478.66666666667 504 460 C 474 441.33333333333 450.33333333333 414.66666666667 433 380 C 417 414 394.33333333333 440.66666666667 365 460 C 335.66666666667 478.66666666667 300.66666666667 488 260 488 C 226 488 195.33333333333 482 168 470 C 140.66666666667 458 117.33333333333 441.33333333333 98 420 C 78.66666666667 398 64 371.66666666667 54 341 C 43.33333333333 310.33333333333 38 276.33333333333 38 239 C 38 201.66666666667 43.33333333333 167.66666666667 54 137 C 64 106.33333333333 78.66666666667 80.33333333333 98 59 C 117.33333333333 37 140.66666666667 20 168 8 C 195.33333333333 -4 226 -10 260 -10 C 300 -10 334.33333333333 -0.66666666667 363 18 C 391.66666666667 36 414.33333333333 61.33333333333 431 94 C 448.33333333333 60 472.33333333333 34.33333333333 503 17 C 533.66666666667 -1 569 -10 609 -10 C 637 -10 663.66666666667 -7 689 -1 C 714.33333333333 5 736 13 754 23 L 750 91 C 732.66666666667 80.33333333333 713.66666666667 72 693 66 C 671.66666666667 59.33333333333 650.33333333333 56 629 56 C 581 56 544.66666666667 68.33333333333 520 93 C 494.66666666667 117.66666666667 480.66666666667 157 478 211 L 777 211 Z M 128 239 C 128 265 131 289 137 311 C 142.33333333333 333 150.66666666667 352.33333333333 162 369 C 172.66666666667 385.66666666667 186.33333333333 398.66666666667 203 408 C 219 417.33333333333 238 422 260 422 C 282 422 301.33333333333 417 318 407 C 334 397 347.66666666667 383.33333333333 359 366 C 369.66666666667 348.66666666667 378 328.66666666667 384 306 C 389.33333333333 282.66666666667 392 258 392 232 C 392 206 389.33333333333 182.33333333333 384 161 C 378 139.66666666667 369.66666666667 121.33333333333 359 106 C 347.66666666667 90 334 77.66666666667 318 69 C 301.33333333333 60.33333333333 282 56 260 56 C 238 56 219 60.66666666667 203 70 C 186.33333333333 79.33333333333 172.66666666667 92.33333333333 162 109 C 150.66666666667 125.66666666667 142.33333333333 145 137 167 C 131 189 128 213 128 239 Z M 597 418 C 615 418 630.66666666667 414.33333333333 644 407 C 656.66666666667 399.66666666667 667 389.66666666667 675 377 C 683 364.33333333333 689 349.66666666667 693 333 C 696.33333333333 315.66666666667 698 297.33333333333 698 278 L 480 278 C 482 299.33333333333 486 318.66666666667 492 336 C 498 352.66666666667 506 367.33333333333 516 380 C 526 392 538 401.33333333333 552 408 C 565.33333333333 414.66666666667 580.33333333333 418 597 418 Z"/>
    <path fill="#000000" stroke="none" transform="matrix(1 0 0 -1 12724 1265)" d="M 423 211 C 424.33333333333 219 425.33333333333 226 426 232 C 426.66666666667 238 427 244.66666666667 427 252 C 427 284.66666666667 423.66666666667 315.33333333333 417 344 C 410.33333333333 372.66666666667 400 397.66666666667 386 419 C 372 440.33333333333 354 457.33333333333 332 470 C 310 482 283.33333333333 488 252 488 C 220 488 191 482 165 470 C 138.33333333333 457.33333333333 115.66666666667 439.66666666667 97 417 C 78.33333333333 394.33333333333 64 367 54 335 C 43.33333333333 302.33333333333 38 266 38 226 C 38 187.33333333333 43.33333333333 153.33333333333 54 124 C 64 94 78.33333333333 69.33333333333 97 50 C 115.66666666667 30 138.66666666667 15 166 5 C 192.66666666667 -5 222.33333333333 -10 255 -10 C 283 -10 309.66666666667 -7 335 -1 C 360.33333333333 5 382 13 400 23 L 396 91 C 378.66666666667 80.33333333333 359.66666666667 72 339 66 C 317.66666666667 59.33333333333 296.33333333333 56 275 56 C 227 56 190.66666666667 68.33333333333 166 93 C 140.66666666667 117.66666666667 126.66666666667 157 124 211 L 423 211 Z M 243 418 C 261 418 276.66666666667 414.33333333333 290 407 C 302.66666666667 399.66666666667 313 389.66666666667 321 377 C 329 364.33333333333 335 349.66666666667 339 333 C 342.33333333333 315.66666666667 344 297.33333333333 344 278 L 126 278 C 128 299.33333333333 132 318.66666666667 138 336 C 144 352.66666666667 152 367.33333333333 162 380 C 172 392 184 401.33333333333 198 408 C 211.33333333333 414.66666666667 226.33333333333 418 243 418 Z"/>
    <path fill="#000000" stroke="none" transform="matrix(1 0 0 -1 13194 1265)" d="M 93 0 L 175 0 L 175 410 L 296 410 L 296 474 L 175 474 L 175 530 C 175 555.33333333333 178.33333333333 577.33333333333 185 596 C 191 614.66666666667 199.33333333333 630 210 642 C 220 654 232 663 246 669 C 259.33333333333 674.33333333333 273.33333333333 677 288 677 C 302 677 313.66666666667 676.33333333333 323 675 C 332.33333333333 673 341 670.33333333333 349 667 L 354 735 C 346 738.33333333333 336.33333333333 741 325 743 C 313 744.33333333333 300.33333333333 745 287 745 C 257 745 230.33333333333 740.33333333333 207 731 C 183 721 162.66666666667 706.66666666667 146 688 C 128.66666666667 668.66666666667 115.66666666667 645 107 617 C 97.66666666667 588.33333333333 93 555.66666666667 93 519 L 93 474 L 26 474 L 26 410 L 93 410 L 93 0 Z"/>
    <path fill="#000000" stroke="none" transform="matrix(1 0 0 -1 13502 1265)" d="M 93 0 L 175 0 L 175 410 L 296 410 L 296 474 L 175 474 L 175 530 C 175 555.33333333333 178.33333333333 577.33333333333 185 596 C 191 614.66666666667 199.33333333333 630 210 642 C 220 654 232 663 246 669 C 259.33333333333 674.33333333333 273.33333333333 677 288 677 C 302 677 313.66666666667 676.33333333333 323 675 C 332.33333333333 673 341 670.33333333333 349 667 L 354 735 C 346 738.33333333333 336.33333333333 741 325 743 C 313 744.33333333333 300.33333333333 745 287 745 C 257 745 230.33333333333 740.33333333333 207 731 C 183 721 162.66666666667 706.66666666667 146 688 C 128.66666666667 668.66666666667 115.66666666667 645 107 617 C 97.66666666667 588.33333333333 93 555.66666666667 93 519 L 93 474 L 26 474 L 26 410 L 93 410 L 93 0 Z"/>
    <path fill="#000000" stroke="none" transform="matrix(1 0 0 -1 13810 1265)" d="M 184 0 L 275 0 L 452 478 L 363 478 L 232 78 L 102 478 L 8 478 L 184 0 Z"/>
    <path fill="#000000" stroke="none" transform="matrix(1 0 0 -1 14265 1265)" d="M 76 -177 C 97.33333333333 -190.33333333333 120 -200 144 -206 C 167.33333333333 -212 190.33333333333 -215 213 -215 C 252.33333333333 -215 288 -209.66666666667 320 -199 C 352 -188.33333333333 379.33333333333 -172.33333333333 402 -151 C 424.66666666667 -129.66666666667 442.33333333333 -102.33333333333 455 -69 C 467 -36.33333333333 473 2.33333333333 473 47 L 473 478 L 399 478 L 394 397 C 390 409.66666666667 384 421.66666666667 376 433 C 367.33333333333 443.66666666667 357 453.33333333333 345 462 C 333 470 319.66666666667 476.33333333333 305 481 C 289.66666666667 485.66666666667 273.33333333333 488 256 488 C 224 488 194.66666666667 482 168 470 C 141.33333333333 457.33333333333 118.33333333333 439.66666666667 99 417 C 79.66666666667 394.33333333333 64.66666666667 367.33333333333 54 336 C 43.33333333333 304.66666666667 38 270.33333333333 38 233 C 38 197 43 164 53 134 C 63 104 77 78.33333333333 95 57 C 113 35.66666666667 134.66666666667 19.33333333333 160 8 C 184.66666666667 -4 212.33333333333 -10 243 -10 C 259.66666666667 -10 275.66666666667 -7.66666666667 291 -3 C 305.66666666667 1 319.33333333333 7.33333333333 332 16 C 344 24 355 33.66666666667 365 45 C 375 56.33333333333 383.66666666667 69 391 83 L 391 40 C 391 -24.66666666667 375.66666666667 -72 345 -102 C 313.66666666667 -132 271.66666666667 -147 219 -147 C 197.66666666667 -147 174.66666666667 -143 150 -135 C 125.33333333333 -127.66666666667 102.33333333333 -117 81 -103 L 76 -177 Z M 260 61 C 238.66666666667 61 219.66666666667 65.66666666667 203 75 C 186.33333333333 84.33333333333 172.66666666667 97 162 113 C 150.66666666667 129 142.33333333333 147.66666666667 137 169 C 131 190.33333333333 128 213 128 237 C 128 265 131.66666666667 290.33333333333 139 313 C 145.66666666667 335 155 354 167 370 C 179 386 193.33333333333 398.33333333333 210 407 C 226 415 243.66666666667 419 263 419 C 281 419 298 415 314 407 C 329.33333333333 399 342.66666666667 388 354 374 C 365.33333333333 359.33333333333 374.33333333333 342.33333333333 381 323 C 387.66666666667 303.66666666667 391 282.66666666667 391 260 L 391 208 C 391 187.33333333333 387.33333333333 168 380 150 C 372.66666666667 132 363 116.66666666667 351 104 C 338.33333333333 90.66666666667 324.33333333333 80.33333333333 309 73 C 293 65 276.66666666667 61 260 61 Z"/>
    <path fill="#000000" stroke="none" transform="matrix(1 0 0 -1 14808 1265)" d="M 64 -215 C 111.33333333333 -201.66666666667 153.33333333333 -176 190 -138 C 226 -100.66666666667 254 -54.66666666667 274 0 L 451 478 L 362 478 L 231 78 L 101 478 L 7 478 L 186 -8 C 180 -25.33333333333 172.33333333333 -40.66666666667 163 -54 C 153 -68 141.66666666667 -80.66666666667 129 -92 C 116.33333333333 -103.33333333333 102 -113.33333333333 86 -122 C 70 -130.66666666667 53 -138.33333333333 35 -145 L 64 -215 Z M 180 536 L 248 540 L 354 655 L 263 651 L 180 536 Z"/>
</svg>
