<svg width="15530" height="2000" viewBox="0 0 15530 2000" xmlns="http://www.w3.org/2000/svg">
    <defs/>
    <g transform="matrix(1 0 0 -1 0 2000)">
        <g transform="matrix(1 0 0 1 0 840)">
            <path fill="#000000" stroke="none" d="M 151 92 Q 162 81 185 70.5 Q 208 60 240 60 Q 269 60 284.5 74 Q 300 88 300 110 Q 300 129 292 145.5 Q 284 162 268 179 Q 251 196 229.5 212 Q 208 228 183 245 Q 170 254 158 262.5 Q 146 271 134 280 Q 97 309 68.5 345 Q 40 381 40 430 Q 40 455 49.5 477 Q 59 499 75 515 Q 91 531 113 540.5 Q 135 550 160 550 Q 179 550 198.5 543 Q 218 536 234 523 Q 250 510 260 491.5 Q 270 473 270 450 Q 270 435 260.5 427.5 Q 251 420 240 420 Q 229 420 219.49998 427.5 Q 210 435 210 450 Q 210 464 196 477 Q 182 490 160 490 Q 135 490 117.49999 472.50003 Q 100 455 100 430 Q 100 397 123 372 Q 146 347 171 328 Q 182 320 193.5 311.5 Q 205 303 217 295 Q 230 286 242 277.5 Q 254 269 266 260 Q 284 246 301 230 Q 318 214 331 195.49998 Q 344 177 352 156 Q 360 135 360 110 Q 360 83 350 62.5 Q 340 42 323.5 28 Q 307 14 285 7 Q 263 0 240 0 Q 196 0 162.5 15 Q 129 30 109 48 Q 100 56 99 65.5 Q 98 75 102 83 Q 106 91 114 96 Q 122 101 131 101 Q 142 101 151 92 Z"/>
        </g>
        <g transform="matrix(1 0 0 1 400 840)">
            <path fill="#000000" stroke="none" d="M 428 66 Q 396 42 348 21 Q 300 0 240 0 Q 191 0 153.5 17 Q 116 34 91 64 Q 66 94 53 134 Q 40 174 40 220 Q 40 275 57.5 332 Q 75 389 108 435 Q 141 481 189.5 510.5 Q 238 540 300 540 Q 322 540 345 534.5 Q 368 529 388 514 Q 398 507 400 497.5 Q 402 488 398.5 479.5 Q 395 471 387 465 Q 379 459 370 459 Q 360 459 352 466 Q 334 480 300 480 Q 257 480 220.50002 458 Q 184 436 157 400 Q 130 364 115 317 Q 100 270 100 220 Q 100 146 136.5 103 Q 173 60 240 60 Q 287 60 325.5 77 Q 364 94 392 114 Q 400 121 410 121 Q 419 121 427 115 Q 435 109 438.49997 100.5 Q 442 92 440 82.5 Q 438 73 428 66 Z"/>
        </g>
        <g transform="matrix(1 0 0 1 880 840)">
            <path fill="#000000" stroke="none" d="M 451 7 Q 437 18 424 30.499998 Q 411 43 397 55 Q 348 97 299.5 124 Q 251 151 186 160 Q 171 162 163.5 171 Q 156 180 156 190 Q 156 200 163.5 209 Q 171 218 186 220 Q 262 231 306 260.5 Q 350 290 350 330 Q 350 359 336.5 382.5 Q 323 406 300 423.49997 Q 277 441 246 450.5 Q 215 460 180 460 Q 151 460 135.5 446 Q 120 432 120 410 Q 120 280 115.5 183 Q 111 86 100 25 Q 98 12 89.49999 6 Q 81 0 71 0 Q 58 0 48 9 Q 38 18 40 35 Q 51 95 55.5 189 Q 60 283 60 410 Q 60 437 70 457.50003 Q 80 478 96.5 492 Q 113 506 135 513 Q 157 520 180 520 Q 220 520 261 508 Q 302 496 335 472 Q 368 448 389 412.5 Q 410 377 410 330 Q 410 278 378.5 244 Q 347 210 301 190 Q 339 173 371.5 150.5 Q 404 128 436 100 Q 450 88 463 76 Q 476 64 490 53 Q 499 45 500.5 35.5 Q 502 26 498 18 Q 494 10 486.49997 4.5 Q 479 -1 470 -1 Q 461 -1 451 7 Z"/>
        </g>
        <g transform="matrix(1 0 0 1 1420 840)">
            <path fill="#000000" stroke="none" d="M 169 626 Q 175 615 177.5 603 Q 180 591 180 580 Q 180 554 163 537 Q 146 520 120 520 Q 106 520 95 528 Q 84 536 76 548 Q 68 560 64 574 Q 60 588 60 600 Q 60 626 77 643 Q 94 660 120 660 Q 140 660 152 648.5 Q 164 637 169 626 Z M 169 444 Q 159 393 149.5 317 Q 140 241 140 160 Q 140 115 142 86.50001 Q 144 58 149 37 Q 154 20 143.5 10 Q 133 0 120 0 Q 110 0 102 5.5 Q 94 11 91 23 Q 84 50 82 82.5 Q 80 115 80 160 Q 80 245 90 323.5 Q 100 402 111 456 Q 113 469 121 474.5 Q 129 480 139 480 Q 152 480 162.5 470.49997 Q 173 461 169 444 Z"/>
        </g>
        <g transform="matrix(1 0 0 1 1660 840)">
            <path fill="#000000" stroke="none" d="M 54 475 Q 63 481 75 487 Q 85 492 99.5 499 Q 114 506 132 513 Q 167 527 215 538.5 Q 263 550 320 550 Q 354 550 384.5 541 Q 415 532 438.49997 513.5 Q 462 495 476 467 Q 490 439 490 400 Q 490 366 474.5 336.5 Q 459 307 433 283 Q 407 259 372 241 Q 337 223 299 211 Q 284 207 274 214 Q 264 221 261 231.5 Q 258 242 262.5 253.5 Q 267 265 281 269 Q 355 291 392.50003 327 Q 430 363 430 400 Q 430 444 401.5 467 Q 373 490 320 490 Q 292 490 261 485.5 Q 230 481 199 472.50003 Q 168 464 139 452 Q 110 440 86 425 Q 79 420 69 420 Q 59 420 51.5 426 Q 44 432 41 441 Q 38 450 41 459.5 Q 44 469 54 475 Z M 141 13 Q 135 36 132.5 60.5 Q 130 85 130 110 Q 130 181 144.5 260.5 Q 159 340 182 410 Q 186 421 193.5 425.50003 Q 201 430 209 430 Q 223 430 233.5 419 Q 244 408 239 391 Q 216 325 203 250 Q 190 175 190 110 Q 190 88 192 66.5 Q 194 45 199 28 Q 204 11 193.5 0.5 Q 183 -10 169 -10 Q 160 -10 152 -4.5 Q 144 1 141 13 Z"/>
        </g>
        <g transform="matrix(1 0 0 1 2190 840)">
            <path fill="#000000" stroke="none" d="M 450 490 Q 397 490 351.5 488.50003 Q 306 487 265 485 Q 271 454 276 405 Q 281 356 284 296 Q 287 236 288.5 168 Q 290 100 290 30 Q 290 15 280.5 7.5 Q 271 0 260 0 Q 249 0 239.5 7.5 Q 230 15 230 30 Q 230 105 228.50002 175.5 Q 227 246 223.5 305.5 Q 220 365 215 410.5 Q 210 456 204 480 Q 167 476 135.5 471.49997 Q 104 467 77 461 Q 62 458 52.5 465.5 Q 43 473 40.5 484 Q 38 495 43.5 505.50003 Q 49 516 64 519 Q 134 535 227.49998 542.5 Q 321 550 450 550 Q 465 550 472.50003 540.5 Q 480 531 480 520 Q 480 509 472.50003 499.5 Q 465 490 450 490 Z"/>
        </g>
        <g transform="matrix(1 0 0 1 3170 840)">
            <path fill="#000000" stroke="none" d="M 100 -250 Q 100 -264 108 -272 Q 116 -280 130 -280 Q 162 -280 181 -250.5 Q 200 -221 200 -170 Q 200 -122 181 -50.5 Q 162 21 136 101 Q 124 141 112.5 180 Q 101 219 91 256 Q 82 292 76 326.5 Q 70 361 70 390 Q 70 421 75 462 Q 80 503 94 540.5 Q 108 578 133.5 604 Q 159 630 200 630 Q 230 630 249.5 615.5 Q 269 601 280 579 Q 291 557 295.5 530.5 Q 300 504 300 480 Q 300 408 265.5 330.5 Q 231 253 172 190 Q 177 173 182.5 155 Q 188 137 194 119 Q 206 79 218 40 Q 230 1 239 -36 Q 248 -72 254 -106.50001 Q 260 -141 260 -170 Q 260 -197 253.5 -227 Q 247 -257 232 -282 Q 217 -307 192 -323.5 Q 167 -340 130 -340 Q 91 -340 65.5 -314.5 Q 40 -289 40 -250 Q 40 -235 49.5 -227.49998 Q 59 -220 70 -220 Q 81 -220 90.50001 -227.49998 Q 100 -235 100 -250 Z M 152 259 Q 194 312 217 370.5 Q 240 429 240 480 Q 240 489 239 504.50003 Q 238 520 233.5 534.5 Q 229 549 221.5 559.5 Q 214 570 200 570 Q 178 570 164 547.5 Q 150 525 142.5 495 Q 135 465 132.5 435 Q 130 405 130 390 Q 130 357 137 324 Q 144 291 152 259 Z"/>
        </g>
        <g transform="matrix(1 0 0 1 3170 840)">
            <path fill="#000000" stroke="none" d="M 40 -250 Q 40 -206 58 -163.5 Q 76 -121 103.5 -81.5 Q 131 -42 163.5 -6.5 Q 196 29 226 59 Q 251 84 277 108 Q 303 132 330 157 Q 351 177 371.5 196.50002 Q 392 216 412 235 Q 400 283 400 330 Q 400 393 411 450 Q 422 507 441 552 Q 450 573 462 592.5 Q 474 612 489 627 Q 504 642 521.5 651 Q 539 660 560 660 Q 587 660 606 646.5 Q 625 633 637 612.5 Q 649 592 654.5 567.5 Q 660 543 660 520 Q 660 477 643 435.5 Q 626 394 599.5 355.5 Q 573 317 541.5 282 Q 510 247 480 218 Q 491 187 508.5 158 Q 526 129 548.5 107.5 Q 571 86 599 73 Q 627 60 660 60 Q 675 60 682.5 50.5 Q 690 41 690 30 Q 690 19 682.5 9.5 Q 675 0 660 0 Q 620 0 585 13.5 Q 550 27 521.5 50.5 Q 493 74 471 105.49999 Q 449 137 434 172 Q 392 134 350.5 95 Q 309 56 268 16 Q 244 -8 214.5 -39 Q 185 -70 159.5 -105 Q 134 -140 117 -177 Q 100 -214 100 -250 Q 100 -265 90.50001 -272.5 Q 81 -280 70 -280 Q 59 -280 49.5 -272.5 Q 40 -265 40 -250 Z M 463 286 Q 524 349 562 407 Q 600 465 600 520 Q 600 529 598.5 542.5 Q 597 556 592.5 568.5 Q 588 581 580 590.5 Q 572 600 560 600 Q 549 600 531.5 585 Q 514 570 496 528 Q 479 490 469.5 439 Q 460 388 460 330 Q 460 309 463 286 Z"/>
        </g>
        <g transform="matrix(1 0 0 1 3800 840)">
            <path fill="#000000" stroke="none" d="M 217 120 Q 185 70 138.5 35 Q 92 0 30 0 Q 15 0 7.5 9.5 Q 0 19 0 30 Q 0 41 7.5 50.5 Q 15 60 30 60 Q 70 60 101 82 Q 132 104 155.5 137 Q 179 170 195 208 Q 211 246 221 279 Q 225 291 233 296.5 Q 241 302 250 302 Q 264 302 273.5 292 Q 283 282 279 264 Q 274 236 272 210 Q 270 184 270 170 Q 270 127 291 103.5 Q 312 80 350 80 Q 380 80 403.5 100 Q 427 120 443.5 151.5 Q 460 183 469.5 222.5 Q 479 262 480 301 Q 481 317 490 324.5 Q 499 332 510 332 Q 521 332 530.5 324 Q 540 316 540 300 Q 540 214 546 165.5 Q 552 117 561.5 93.49999 Q 571 70 584 65 Q 597 60 610 60 Q 625 60 632.5 50.5 Q 640 41 640 30 Q 640 19 632.5 9.5 Q 625 0 610 0 Q 560 0 532.5 28 Q 505 56 493 117 Q 470 75 435.5 47.5 Q 401 20 350 20 Q 296 20 262.5 48 Q 229 76 217 120 Z"/>
        </g>
        <g transform="matrix(1 0 0 1 4380 840)">
            <path fill="#000000" stroke="none" d="M 389 486 Q 395 475 397.5 463 Q 400 451 400 440 Q 400 414 383 397 Q 366 380 340 380 Q 326 380 315 388 Q 304 396 296 408 Q 288 420 284 434 Q 280 448 280 460 Q 280 486 297 503 Q 314 520 340 520 Q 360 520 372 508.5 Q 384 497 389 486 Z M 488 26 Q 468 12 449 6 Q 430 0 410 0 Q 378 0 355 13.5 Q 332 27 316.5 48 Q 301 69 291.5 96 Q 282 123 277 150 Q 253 120 224 93 Q 195 66 163 45.5 Q 131 25 97 12.5 Q 63 0 30 0 Q 15 0 7.5 9.5 Q 0 19 0 30 Q 0 41 7.5 50.5 Q 15 60 30 60 Q 61 60 96 76.5 Q 131 93 164.5 120.5 Q 198 148 226.5 182.5 Q 255 217 273 253 Q 285 275 303 275 Q 314 275 322 266 Q 330 257 330 240 Q 330 221 332 190.5 Q 334 160 342.5 131 Q 351 102 367 81 Q 383 60 410 60 Q 421 60 431 63 Q 441 66 452 74 Q 460 81 470 81 Q 479 81 487 75 Q 495 69 498.5 60.5 Q 502 52 500 42.5 Q 498 33 488 26 Z"/>
        </g>
        <g transform="matrix(1 0 0 1 4920 840)">
            <path fill="#000000" stroke="none" d="M 330 174 Q 305 113 278.5 78 Q 252 43 227 26 Q 202 9 179.49998 4.5 Q 157 0 140 0 Q 115 0 96 9.5 Q 77 19 64.5 34 Q 52 49 46 69 Q 40 89 40 110 Q 40 149 57.5 188.50002 Q 75 228 104 259.5 Q 133 291 171 310.5 Q 209 330 250 330 Q 267 330 283 325.5 Q 299 321 313 311 Q 329 371 343.5 450.5 Q 358 530 370 634 Q 372 648 380.5 655 Q 389 662 400 662 Q 412 662 422 653 Q 432 644 430 627 Q 424 567 419 508 Q 414 458 409 403.5 Q 404 349 400 307 Q 399 291 397 271.5 Q 395 252 393.50003 233 Q 392 214 391 197.5 Q 390 181 390 170 Q 390 136 393.50003 114.50001 Q 397 93 404.5 81 Q 412 69 423.49997 64.5 Q 435 60 450 60 Q 465 60 472.50003 50.5 Q 480 41 480 30 Q 480 19 472.50003 9.5 Q 465 0 450 0 Q 411 0 387 15 Q 363 30 350.5 55 Q 338 80 334 111 Q 330 142 330 174 Z M 284 219 Q 284 225 285 227 Q 287 235 287 238 Q 288 240 288 242 Q 288 253 279 261.5 Q 270 270 250 270 Q 223 270 196.50002 255.5 Q 170 241 148.5 218.5 Q 127 196 113.49999 167.5 Q 100 139 100 110 Q 100 84 111.5 72 Q 123 60 140 60 Q 169 60 192 76 Q 215 92 232.5 116 Q 250 140 262.5 168 Q 275 196 284 219 Z"/>
        </g>
        <g transform="matrix(1 0 0 1 5340 840)">
            <path fill="#000000" stroke="none" d="M 408 74 Q 419 66 429 63 Q 439 60 450 60 Q 473 60 491.5 77.5 Q 510 95 510 130 Q 510 156 503 179.49998 Q 496 203 483.5 221 Q 471 239 454.49997 249.5 Q 438 260 420 260 Q 404 260 387 252 Q 370 244 354.5 232 Q 339 220 325.5 206 Q 312 192 301 181 Q 278 156 246.5 125 Q 215 94 179 66 Q 143 38 105 19 Q 67 0 30 0 Q 15 0 7.5 9.5 Q 0 19 0 30 Q 0 41 7.5 50.5 Q 15 60 30 60 Q 57 60 88.5 77.5 Q 120 95 151 120.5 Q 182 146 210 173.5 Q 238 201 258 222 Q 274 239 292 256.5 Q 310 274 330 288 Q 350 302 372.5 311 Q 395 320 420 320 Q 458 320 486 301.5 Q 514 283 533 255 Q 552 227 561 193.5 Q 570 160 570 130 Q 570 102 561 78.5 Q 552 55 536 37.5 Q 520 20 498 10 Q 476 0 450 0 Q 430 0 411 6 Q 392 12 372 26 Q 362 33 360 42.5 Q 358 52 361.50003 60.5 Q 365 69 373 75 Q 381 81 390 81 Q 400 81 408 74 Z"/>
        </g>
        <g transform="matrix(1 0 0 1 6420 840)">
            <path fill="#000000" stroke="none" d="M 342 164 Q 327 140 307 111 Q 287 82 262 57.5 Q 237 33 208.5 16.5 Q 180 0 150 0 Q 118 0 97 16 Q 76 32 63 55 Q 50 78 45 104 Q 40 130 40 150 Q 40 174 42 209 Q 44 244 51 276 Q 53 289 61 294.5 Q 69 300 79 300 Q 92 300 102.50001 290.5 Q 113 281 109 264 Q 104 235 102 203.49998 Q 100 172 100 150 Q 100 108 115.5 84 Q 131 60 150 60 Q 168 60 187.49998 73 Q 207 86 226.5 107.5 Q 246 129 264 155 Q 282 181 297.5 206.5 Q 313 232 325 255 Q 337 278 343 292 Q 353 315 372 315 Q 383 315 391.49997 306 Q 400 297 400 280 L 400 200 Q 400 173 404 156 Q 408 139 414 128.5 Q 420 118 427 114 Q 434 110 440 110 Q 463 110 493 128 Q 523 146 551.5 174 Q 580 202 602 237 Q 624 272 631 306 Q 634 321 642 328 Q 650 335 660 335 Q 670 335 678.5 328 Q 687 321 689 306 Q 694 283 698.5 269.5 Q 703 256 709.5 249.5 Q 716 243 725.5 241.5 Q 735 240 750 240 Q 765 240 772.5 230.5 Q 780 221 780 210 Q 780 199 772.5 189.5 Q 765 180 750 180 Q 715 180 694 189 Q 673 198 659 217 Q 641 184 615 154 Q 589 124 559.5 101 Q 530 78 499.5 64 Q 469 50 440 50 Q 417 50 400 59.5 Q 383 69 371 85 Q 359 101 352 121.49999 Q 345 142 342 164 Z"/>
        </g>
        <g transform="matrix(1 0 0 1 7140 840)">
            <path fill="#000000" stroke="none" d="M 30 240 Q 34 240 43.5 240.5 Q 53 241 63 242.5 Q 73 244 81 247 Q 89 250 90 255 Q 97 291 134 310.5 Q 171 330 240 330 Q 300 330 331 294.5 Q 362 259 370 204 Q 381 127 406 93.49999 Q 431 60 480 60 Q 495 60 502.49997 50.5 Q 510 41 510 30 Q 510 19 502.49997 9.5 Q 495 0 480 0 Q 437 0 407 15.5 Q 377 31 357.5 58 Q 338 85 327 120.5 Q 316 156 310 196 Q 305 236 287.5 253 Q 270 270 240 270 Q 235 270 220.50002 269.5 Q 206 269 191 266.5 Q 176 264 163.5 259 Q 151 254 150 245 Q 146 224 133.5 211 Q 121 198 104 191.5 Q 87 185 67.5 182.5 Q 48 180 30 180 Q 15 180 7.5 189.5 Q 0 199 0 210 Q 0 221 7.5 230.5 Q 15 240 30 240 Z"/>
        </g>
        <g transform="matrix(1 0 0 1 7590 840)">
            <path fill="#000000" stroke="none" d="M 389 486 Q 395 475 397.5 463 Q 400 451 400 440 Q 400 414 383 397 Q 366 380 340 380 Q 326 380 315 388 Q 304 396 296 408 Q 288 420 284 434 Q 280 448 280 460 Q 280 486 297 503 Q 314 520 340 520 Q 360 520 372 508.5 Q 384 497 389 486 Z M 440 0 Q 401 0 373.5 12.5 Q 346 25 326.5 45.5 Q 307 66 295.5 93.49999 Q 284 121 278 151 Q 254 121 225 93.49999 Q 196 66 164 45.5 Q 132 25 97.49999 12.5 Q 63 0 30 0 Q 15 0 7.5 9.5 Q 0 19 0 30 Q 0 41 7.5 50.5 Q 15 60 30 60 Q 61 60 96 76.5 Q 131 93 164.5 120.5 Q 198 148 226.5 182.5 Q 255 217 273 253 Q 285 275 303 275 Q 314 275 322 266 Q 330 257 330 240 Q 330 156 355 108 Q 380 60 440 60 Q 455 60 462.5 50.5 Q 470 41 470 30 Q 470 19 462.5 9.5 Q 455 0 440 0 Z"/>
        </g>
        <g transform="matrix(1 0 0 1 8000 840)">
            <path fill="#000000" stroke="none" d="M 564 210 Q 516 203 484.5 189.5 Q 453 176 431.5 153.5 Q 410 131 396 98.50001 Q 382 66 369 22 Q 365 8 357 1.5 Q 349 -5 340 -5 Q 331 -5 323 1.5 Q 315 8 311 21 Q 305 41 299.5 67.5 Q 294 94 289.5 123 Q 285 152 282.5 182.5 Q 280 213 280 240 Q 280 255 280 270 Q 280 285 281 300 Q 267 264 243 213 Q 219 162 187 114.50001 Q 155 67 115.5 33.5 Q 76 0 30 0 Q 15 0 7.5 9.5 Q 0 19 0 30 Q 0 41 7.5 50.5 Q 15 60 30 60 Q 61 60 92 91 Q 123 122 152 171 Q 181 220 207 280 Q 233 340 254 397.5 Q 275 455 289.5 503.49997 Q 304 552 311 578 Q 314 591 322.5 597 Q 331 603 340 603 Q 353 603 363 593 Q 373 583 370 565 Q 368 555 363 524 Q 358 493 353 448.5 Q 348 404 344 350 Q 340 296 340 240 Q 340 216 342 190 Q 344 164 348 138 Q 381 202 433 230.5 Q 485 259 556 270 Q 571 272 579.5 263.5 Q 588 255 589.5 244 Q 591 233 585 222.5 Q 579 212 564 210 Z"/>
        </g>
        <g transform="matrix(1 0 0 1 8630 840)">
            <path fill="#000000" stroke="none" d="M 333 33 Q 292 13 263 6.5 Q 234 0 200 0 Q 163 0 133.5 13.5 Q 104 27 83 50 Q 62 73 51 104 Q 40 135 40 170 Q 40 201 51 230 Q 62 259 81.5 281 Q 101 303 128.5 316.5 Q 156 330 190 330 Q 233 330 261.5 301.5 Q 290 273 290 230 Q 290 203 279 178 Q 268 153 250 131 Q 232 109 208 93 Q 184 77 158 68 Q 177 60 200 60 Q 226 60 249 65 Q 272 70 307 87 Q 314 91 321 91 Q 331 91 338.5 84 Q 346 77 348.5 67.5 Q 351 58 348 48.5 Q 345 39 333 33 Z M 109 120 Q 130 120 152 130 Q 174 140 191 156 Q 208 172 219 191.5 Q 230 211 230 230 Q 230 247 218.5 258.5 Q 207 270 190 270 Q 152 270 126 241.5 Q 100 213 100 170 Q 100 143 109 120 Z"/>
        </g>
        <g transform="matrix(1 0 0 1 9490 840)">
            <path fill="#000000" stroke="none" d="M 324 270 Q 276 263 244.50002 249.5 Q 213 236 191.5 213.5 Q 170 191 156 158.5 Q 142 126 129 82 Q 125 68 117 61.5 Q 109 55 100 55 Q 91 55 83 61.5 Q 75 68 71 81 Q 65 101 59.5 127.5 Q 54 154 49.5 183 Q 45 212 42.5 242.5 Q 40 273 40 300 Q 40 385 47.5 472 Q 55 559 71 636 Q 73 649 81 654.5 Q 89 660 99 660 Q 112 660 122.50001 650.5 Q 133 641 129 624 Q 115 550 107.5 465.5 Q 100 381 100 300 Q 100 276 102 250 Q 104 224 108 198 Q 141 262 193 290.5 Q 245 319 316 330 Q 331 332 339.5 323.5 Q 348 315 349.5 304 Q 351 293 345 282.5 Q 339 272 324 270 Z M 418 26 Q 398 12 379 6 Q 360 0 340 0 Q 310 0 286 16 Q 262 32 244 56 Q 226 80 213 108 Q 200 136 192 161 Q 186 178 196.50002 189 Q 207 200 221 200 Q 230 200 237.5 195.49998 Q 245 191 249 180 Q 253 167 261.5 146.5 Q 270 126 282 106.50001 Q 294 87 308.5 73.5 Q 323 60 340 60 Q 351 60 361 63 Q 371 66 382 74 Q 390 81 400 81 Q 409 81 417 75 Q 425 69 428.5 60.5 Q 432 52 430 42.5 Q 428 33 418 26 Z"/>
        </g>
        <g transform="matrix(1 0 0 1 9960 840)">
            <path fill="#000000" stroke="none" d="M 40 -210 Q 40 -244 18.5 -273.5 Q -3 -303 -41 -333 Q -49 -340 -60 -340 Q -69 -340 -77 -334.5 Q -85 -329 -88.5 -321 Q -92 -313 -90 -304 Q -88 -295 -79 -287 Q -42 -257 -31 -239 Q -20 -221 -20 -210 Q -20 -199 -27 -183 Q -36 -166 -25 -153 Q -14 -140 1 -140 Q 12 -140 19.5 -147.5 Q 27 -155 31.500002 -166 Q 36 -177 38 -189 Q 40 -201 40 -210 Z"/>
        </g>
        <g transform="matrix(1 0 0 1 9960 840)">
            <path fill="#000000" stroke="none" d="M 540 0 Q 493 0 466.5 26.499998 Q 440 53 440 100 Q 440 109 441.50003 122.50001 Q 443 136 445 150 Q 447 164 448.5 177.5 Q 450 191 450 200 Q 450 225 442.5 232.5 Q 435 240 430 240 Q 423 240 411 235 Q 399 230 378.5 208 Q 358 186 328.5 141 Q 299 96 257 16 Q 245 -5 228 -5 Q 217 -5 208.5 4 Q 200 13 200 30 Q 200 40 199.5 62 Q 199 84 197 110.50001 Q 195 137 191 165.5 Q 187 194 179 217 Q 171 240 159 255 Q 147 270 130 270 Q 123 270 113.49999 266 Q 104 262 91 249 Q 82 240 70 240 Q 61 240 54 245 Q 47 250 43 257.5 Q 39 265 40 274 Q 41 283 49 291 Q 66 309 86.50001 319.5 Q 107 330 130 330 Q 166 330 189 310.5 Q 212 291 225.5 261.5 Q 239 232 245.5 198.5 Q 252 165 255 137 Q 284 185 307.5 216.5 Q 331 248 352 266.5 Q 373 285 392 292.5 Q 411 300 430 300 Q 454 300 469.5 289.5 Q 485 279 494 264 Q 503 249 506.5 231.5 Q 510 214 510 200 Q 510 191 508.5 177.5 Q 507 164 505 150 Q 503 136 501.5 122.50001 Q 500 109 500 100 Q 500 60 540 60 Q 555 60 562.5 50.5 Q 570 41 570 30 Q 570 19 562.5 9.5 Q 555 0 540 0 Z"/>
        </g>
        <g transform="matrix(1 0 0 1 10470 840)">
            <path fill="#000000" stroke="none" d="M 389 486 Q 395 475 397.5 463 Q 400 451 400 440 Q 400 414 383 397 Q 366 380 340 380 Q 326 380 315 388 Q 304 396 296 408 Q 288 420 284 434 Q 280 448 280 460 Q 280 486 297 503 Q 314 520 340 520 Q 360 520 372 508.5 Q 384 497 389 486 Z M 488 26 Q 468 12 449 6 Q 430 0 410 0 Q 378 0 355 13.5 Q 332 27 316.5 48 Q 301 69 291.5 96 Q 282 123 277 150 Q 253 120 224 93 Q 195 66 163 45.5 Q 131 25 97 12.5 Q 63 0 30 0 Q 15 0 7.5 9.5 Q 0 19 0 30 Q 0 41 7.5 50.5 Q 15 60 30 60 Q 61 60 96 76.5 Q 131 93 164.5 120.5 Q 198 148 226.5 182.5 Q 255 217 273 253 Q 285 275 303 275 Q 314 275 322 266 Q 330 257 330 240 Q 330 221 332 190.5 Q 334 160 342.5 131 Q 351 102 367 81 Q 383 60 410 60 Q 421 60 431 63 Q 441 66 452 74 Q 460 81 470 81 Q 479 81 487 75 Q 495 69 498.5 60.5 Q 502 52 500 42.5 Q 498 33 488 26 Z"/>
        </g>
        <g transform="matrix(1 0 0 1 11010 840)">
            <path fill="#000000" stroke="none" d="M 44 201 Q 42 208 41 215 Q 40 222 40 230 Q 40 260 58 279 Q 76 298 102 309.5 Q 128 321 157.5 325.5 Q 187 330 210 330 Q 261 330 296 298.5 Q 331 267 340 204 Q 351 126 370 90 Q 379 73 388.5 66.5 Q 398 60 410 60 Q 419 60 423.49997 61 Q 428 62 430 63 Q 429 61 429 61 Q 439 71 450 71 Q 459 71 466.5 66 Q 474 61 477.5 53 Q 481 45 480 36 Q 479 27 471 19 Q 460 8 442.5 4 Q 425 0 410 0 Q 373 0 350 20 Q 327 40 312.5 70 Q 298 100 291 134 Q 284 168 280 196 Q 274 239 254.5 254.5 Q 235 270 210 270 Q 202 270 184 268 Q 166 266 147 261.5 Q 128 257 114 249 Q 100 241 100 230 Q 100 227 100.5 224.5 Q 101 222 102 218 Q 104 213 105 209 Q 106 205 108 200 Q 115 182 104 171 Q 93 160 79 160 Q 62 160 55 173.5 Q 48 187 44 201 Z"/>
        </g>
        <g transform="matrix(1 0 0 1 11530 840)">
            <path fill="#000000" stroke="none" d="M 170 -330 Q 128 -330 79 -330.5 Q 30 -331 -16.5 -332 Q -63 -333 -100 -335 Q -137 -337 -155 -340 Q -170 -342 -179 -334 Q -188 -326 -189.5 -315 Q -191 -304 -185.5 -293.5 Q -180 -283 -165 -280 Q -145 -277 -105.49999 -275 Q -66 -273 -18.5 -272 Q 29 -271 79 -270.5 Q 129 -270 170 -270 Q 185 -270 192.5 -279.5 Q 200 -289 200 -300 Q 200 -311 192.5 -320.5 Q 185 -330 170 -330 Z"/>
        </g>
        <g transform="matrix(1 0 0 1 11530 840)">
            <path fill="#000000" stroke="none" d="M 710 -240 Q 710 -255 722.5 -267.5 Q 735 -280 750 -280 Q 767 -280 783.5 -271.5 Q 800 -263 812.5 -233.5 Q 825 -204 832.50006 -148.5 Q 840 -93 840 0 Q 840 6 839.5 27 Q 839 48 838 76 Q 837 104 834.50006 134.5 Q 832 165 827.5 190.5 Q 823 216 816.5 233 Q 810 250 800 250 Q 798 250 794.5 248.5 Q 791 247 785 239 Q 778 231 771.50006 219 Q 765 207 757 192 Q 753 184 749.5 177 Q 746 170 742 163 Q 729 138 710 119 Q 691 100 660 100 Q 639 100 625.5 108.5 Q 612 117 604 131 Q 596 145 592 162 Q 588 179 585 196 Q 584 204 581.5 218 Q 579 232 575 239 Q 574 239 573 239.5 Q 572 240 570 240 Q 565 240 558.5 236 Q 552 232 543 217 Q 538 209 534 200.5 Q 530 192 525 182 Q 517 160 508 138 Q 499 116 490 94 Q 483 78 474 61 Q 465 44 453 30.499998 Q 441 17 425.50003 8.5 Q 410 0 390 0 Q 367 0 351.5 10.5 Q 336 21 326 37 Q 316 53 310.5 72.5 Q 305 92 302 110 Q 300 123 298.5 135.5 Q 297 148 295 162 Q 293 174 292 186.5 Q 291 199 289 210 Q 288 216 286.5 226 Q 285 236 281.5 245.5 Q 278 255 273 262.5 Q 268 270 260 270 Q 253 270 246 267 Q 239 264 231 254 Q 212 234 187 182 Q 161 131 138.5 89 Q 116 47 96 14 Q 87 -1 72 -1 Q 56 -1 45 13.5 Q 34 28 45 46 Q 65 78 86.50001 118.50001 Q 108 159 133 208 Q 147 234 159.5 256 Q 172 278 186 294 Q 200 311 218.5 320.5 Q 237 330 260 330 Q 283 330 298.5 320 Q 314 310 324 294 Q 334 278 339.5 258.5 Q 345 239 348 220 Q 350 207 351.5 194.5 Q 353 182 355 169 Q 357 156 358 143.5 Q 359 131 361 120 Q 362 114 363.5 104 Q 365 94 368.5 84.5 Q 372 75 377.50003 67.5 Q 383 60 390 60 Q 395 60 401.5 64.5 Q 408 69 417 83 Q 422 91 426 99.5 Q 430 108 435 118 Q 440 129 443.5 139.5 Q 447 150 452 161 Q 457 172 461 183.5 Q 465 195 470 206 Q 477 222 486 239 Q 495 256 507 269.5 Q 519 283 534.5 291.5 Q 550 300 570 300 Q 591 300 604.5 291.5 Q 618 283 626 269 Q 634 255 638 238 Q 642 221 645 204 Q 646 198 646.5 192 Q 647 186 649 180 Q 651 169 657 160 Q 665 160 668.5 162.5 Q 672 165 677 172 Q 682 178 690 191 Q 693 198 696.5 204.50002 Q 700 211 703 218 Q 711 233 720 249 Q 729 265 740.5 278.5 Q 752 292 766.49994 301 Q 781 310 800 310 Q 818 310 831.49994 303.5 Q 845 297 854.5 286.5 Q 864 276 870 263.5 Q 876 251 879 238 Q 886 212 893 148 Q 900 84 900 0 Q 900 -87 892.49994 -151 Q 885 -215 867.50006 -257 Q 850 -299 821.5 -319.5 Q 793 -340 750 -340 Q 730 -340 711.5 -332 Q 693 -324 679.5 -310.5 Q 666 -297 658 -278.5 Q 650 -260 650 -240 Q 650 -225 659.5 -217.5 Q 669 -210 680 -210 Q 691 -210 700.49994 -217.5 Q 710 -225 710 -240 Z"/>
        </g>
        <g transform="matrix(1 0 0 1 12940 840)">
            <path fill="#000000" stroke="none" d="M 230 12 Q 194 0 160 0 Q 129 0 106 12.5 Q 83 25 68.5 44.5 Q 54 64 47 89.49999 Q 40 115 40 140 Q 40 163 44 207.5 Q 48 252 61 307 Q 64 319 72 324.5 Q 80 330 89 330 Q 102 330 112.5 320 Q 123 310 119 293 Q 108 242 104 202 Q 100 162 100 140 Q 100 101 116.5 80.5 Q 133 60 160 60 Q 184 60 211 69 Q 225 74 235 67 Q 245 60 248.5 49.5 Q 252 39 248 28 Q 244 17 230 12 Z"/>
        </g>
        <g transform="matrix(1 0 0 1 13080 740)">
            <path fill="#000000" stroke="none" d="M -121 561 Q -109 575 -92 592 Q -75 609 -56 624 Q -37 639 -17.5 649.5 Q 2 660 20 660 Q 42 660 58 651 Q 74 642 88 626 Q 100 611 112 590 Q 124 569 137 543 Q 146 526 135 513 Q 124 500 109 500 Q 92 500 83 517 Q 58 568 42 587 Q 34 595 29.500002 597.5 Q 25 600 20 600 Q 14 600 5 594 Q -4 588 -14 580.5 Q -24 573 -32.5 565 Q -41 557 -45 553 Q -55 544 -63 535 Q -71 526 -79 519 Q -88 510 -100 510 Q -109 510 -116.5 515 Q -124 520 -127.5 527.5 Q -131 535 -130 544 Q -129 553 -121 561 Z"/>
        </g>
        <g transform="matrix(1 0 0 1 13230 840)">
            <path fill="#000000" stroke="none" d="M 270 -80 Q 270 -69 270 -56.5 Q 270 -44 271 -30 Q 241 -29 204.50002 -24.499998 Q 168 -20 135.5 -8 Q 103 4 81.5 25 Q 60 46 60 80 Q 60 98 66.5 112 Q 73 126 84 137 Q 95 148 108.5 156 Q 122 164 137 170 Q 155 179 179 188 Q 202 197 218.5 204 Q 235 211 246 219 Q 255 225 257.5 230 Q 260 235 260 240 Q 260 250 248.5 260 Q 237 270 210 270 Q 177 270 143.5 265 Q 110 260 78 251 Q 64 247 54 254 Q 44 261 41 272 Q 38 283 42.5 294 Q 47 305 62 309 Q 67 310 75 312 Q 81 314 89 316 Q 97 318 108 320 Q 129 324 155.5 327 Q 182 330 210 330 Q 227 330 246 325.5 Q 265 321 281.5 310.5 Q 298 300 309 282.5 Q 320 265 320 240 Q 320 203 296.5 183 Q 273 163 243 150 Q 225 141 201 132 Q 190 127 180 123.5 Q 170 120 161 116 Q 143 108 135 101 Q 125 95 122.50001 90 Q 120 85 120 80 Q 120 66 137.5 57 Q 155 48 180 42.5 Q 205 37 232 34.5 Q 259 32 278 31 Q 283 59 291.5 86 Q 300 113 314.5 134 Q 329 155 350 167.5 Q 371 180 400 180 Q 422 180 439 171 Q 456 162 467 147.5 Q 478 133 484 115.5 Q 490 98 490 80 Q 490 48 475.5 27.500002 Q 461 7 438 -5 Q 415 -17 387 -22.499998 Q 359 -28 332 -29 Q 330 -45 330 -58 Q 330 -71 330 -80 Q 330 -95 320.5 -102.50001 Q 311 -110 300 -110 Q 289 -110 279.5 -102.50001 Q 270 -95 270 -80 Z M 339 31 Q 354 32 370 35 Q 386 38 399.5 43.5 Q 413 49 421.5 58 Q 430 67 430 80 Q 430 100 420.5 110 Q 411 120 400 120 Q 387 120 377 112.5 Q 367 105 359.49997 93 Q 352 81 347 65 Q 342 49 339 31 Z"/>
        </g>
        <g transform="matrix(1 0 0 1 13760 840)">
            <path fill="#000000" stroke="none" d="M 115 613 Q 107 600 103.5 590 Q 100 580 100 570 Q 100 563 105 552.5 Q 110 542 122 527 Q 130 516 140.5 505.50003 Q 151 495 162 484 Q 173 492 183 500 Q 193 508 201 516 Q 212 527 216 535.5 Q 220 544 220 550 Q 220 569 215 579.5 Q 210 590 203 595 Q 193 602 190.5 611.5 Q 188 621 191.5 629.5 Q 195 638 202.5 644 Q 210 650 220 650 Q 230 650 237 645 Q 262 628 271 602 Q 280 576 280 550 Q 280 532 273.5 517 Q 267 502 256.5 488.50003 Q 246 475 233 463.5 Q 220 452 207 442 Q 219 430 232 416 Q 245 402 255.5 387 Q 266 372 273 355 Q 280 338 280 320 Q 280 277 251.49998 248.5 Q 223 220 180 220 Q 156 220 131.5 227.49998 Q 107 235 86.50001 250 Q 66 265 53 287.5 Q 40 310 40 340 Q 40 358 46.5 373 Q 53 388 63.5 401.5 Q 74 415 87 426.5 Q 100 438 113 448 Q 101 460 88 474 Q 75 488 64.5 503 Q 54 518 47 535 Q 40 552 40 570 Q 40 579 43 594.5 Q 46 610 52 625 Q 58 640 67.5 650.5 Q 77 661 89 661 Q 97 661 104 657 Q 111 653 115.5 646 Q 120 639 120.5 630.5 Q 121 622 115 613 Z M 157 406 Q 150 401 140 393 Q 130 385 121 376 Q 112 367 106 358 Q 100 349 100 340 Q 100 317 122.50001 298.5 Q 145 280 180 280 Q 197 280 208.5 291.5 Q 220 303 220 320 Q 220 330 213 342 Q 206 354 196.50002 366 Q 187 378 176 388.5 Q 165 399 157 406 Z"/>
        </g>
        <g transform="matrix(1 0 0 1 14080 840)">
            <path fill="#000000" stroke="none" d="M 70 330 Q 85 330 99 330 Q 113 330 126 331 L 126 338 L 134 442 Q 136 480 138 513.5 Q 140 547 140 570 Q 140 585 149.5 592.5 Q 159 600 170 600 Q 181 600 190.5 592.5 Q 200 585 200 570 Q 200 547 198 513.5 Q 196 480 194 442 L 186 338 L 186 334 Q 223 337 246 340.5 Q 269 344 281 349 Q 295 354 305 347 Q 315 340 318.5 329.5 Q 322 319 318 308 Q 314 297 300 292 Q 283 286 254 281 Q 225 276 182 273 Q 181 254 180.50002 238.5 Q 180 223 180 210 Q 180 194 182 168.5 Q 184 143 191.5 119 Q 199 95 212.50002 77.5 Q 226 60 250 60 Q 263 60 278 65.5 Q 293 71 313 85 Q 321 90 330 90 Q 340 90 347.5 84 Q 355 78 358.49997 69.5 Q 362 61 359.49997 51.5 Q 357 42 347 35 Q 322 19 299 9.5 Q 276 0 250 0 Q 210 0 184.5 21 Q 159 42 145 73.5 Q 131 105 125.49999 142 Q 120 179 120 210 Q 120 222 120.5 237.5 Q 121 253 122 271 Q 110 270 97 270 Q 84 270 70 270 Q 55 270 47.5 279.5 Q 40 289 40 300 Q 40 311 47.5 320.5 Q 55 330 70 330 Z"/>
        </g>
        <g transform="matrix(1 0 0 1 14480 840)">
            <path fill="#000000" stroke="none" d="M 40 -210 Q 40 -244 18.5 -273.5 Q -3 -303 -41 -333 Q -49 -340 -60 -340 Q -69 -340 -77 -334.5 Q -85 -329 -88.5 -321 Q -92 -313 -90 -304 Q -88 -295 -79 -287 Q -42 -257 -31 -239 Q -20 -221 -20 -210 Q -20 -199 -27 -183 Q -36 -166 -25 -153 Q -14 -140 1 -140 Q 12 -140 19.5 -147.5 Q 27 -155 31.500002 -166 Q 36 -177 38 -189 Q 40 -201 40 -210 Z"/>
        </g>
        <g transform="matrix(1 0 0 1 14480 840)">
            <path fill="#000000" stroke="none" d="M 326 107 Q 316 87 302.5 67.5 Q 289 48 271 33 Q 253 18 230.5 9 Q 208 0 180 0 Q 146 0 120 12 Q 94 24 76 44 Q 58 64 49 91.5 Q 40 119 40 150 Q 40 175 42 193.5 Q 44 212 46 225 Q 49 239 52 250 Q 56 261 63.5 265.5 Q 71 270 79 270 Q 93 270 103.5 259 Q 114 248 109 231 Q 106 223 105 211 Q 100 188 100 150 Q 100 107 121 83.5 Q 142 60 180 60 Q 213 60 236.50002 83 Q 260 106 275.5 139.5 Q 291 173 299.5 209.5 Q 308 246 310 273 Q 312 288 320.5 295.5 Q 329 303 340 303 Q 351 303 360.50003 295 Q 370 287 370 270 Q 370 261 370.5 241.5 Q 371 222 373 198.5 Q 375 175 378.5 150.5 Q 382 126 389 106 Q 396 86 406 73 Q 416 60 430 60 Q 441 60 450 66 Q 459 72 467 79 Q 478 91 490 91 Q 498 91 505.50003 86.50001 Q 513 82 517 74.5 Q 521 67 520.5 58.5 Q 520 50 513 41 Q 512 40 512 39 L 507 34 Q 491 19 471.49997 9.5 Q 452 0 430 0 Q 406 0 389 10 Q 372 20 359.49997 35.5 Q 347 51 339 70 Q 331 89 326 107 Z"/>
        </g>
        <g transform="matrix(1 0 0 1 15040 840)">
            <path fill="#000000" stroke="none" d="M -146 -290 Q -136 -262 -114 -241 Q -92 -220 -57 -220 Q -31 -220 -12.5 -231 Q 6 -242 21 -261 Q 29 -271 38 -275.5 Q 47 -280 63 -280 Q 77 -280 92.5 -271.5 Q 108 -263 122 -249 Q 132 -239 143 -239 Q 152 -239 159.5 -244 Q 167 -249 170.5 -257 Q 174 -265 173 -274 Q 172 -283 164 -291 Q 147 -308 121 -324 Q 95 -340 63 -340 Q 7 -340 -25 -299 Q -35 -288 -42 -284 Q -49 -280 -57 -280 Q -67 -280 -75 -286 Q -83 -292 -89 -309 Q -93 -320 -100.5 -325 Q -108 -330 -116 -330 Q -130 -330 -140.5 -318.5 Q -151 -307 -146 -290 Z"/>
        </g>
        <g transform="matrix(1 0 0 1 15040 840)">
            <path fill="#000000" stroke="none" d="M 440 8 Q 420 -10 400.5 -28 Q 381 -46 363 -63 Q 374 -85 382 -111.5 Q 390 -138 390 -170 Q 390 -203 380 -233.5 Q 370 -264 352.5 -288 Q 335 -312 311.5 -326 Q 288 -340 260 -340 Q 240 -340 225 -331.5 Q 210 -323 200 -309.5 Q 190 -296 185 -280.5 Q 180 -265 180 -250 Q 180 -223 189.5 -196.50002 Q 199 -170 214 -145 Q 229 -120 248.5 -97 Q 268 -74 288 -53 Q 280 -40 272 -28 Q 264 -16 257 -4 Q 250 10 245 26 Q 240 42 240 60 Q 240 79 245 101 Q 247 111 250 121.49999 Q 253 132 256 143 Q 261 159 265.5 176 Q 270 193 270 210 Q 270 235 252.50002 252.50002 Q 235 270 210 270 Q 202 270 184 268 Q 166 266 147 261.5 Q 128 257 114 249 Q 100 241 100 230 Q 100 227 100.5 224.5 Q 101 222 102 218 Q 104 213 105 209 Q 106 205 108 200 Q 115 182 104 171 Q 93 160 79 160 Q 62 160 55 173.5 Q 48 187 44 201 Q 42 208 41 215 Q 40 222 40 230 Q 40 260 58 279 Q 76 298 102 309.5 Q 128 321 157.5 325.5 Q 187 330 210 330 Q 235 330 257 320.5 Q 279 311 295 295 Q 311 279 320.5 257 Q 330 235 330 210 Q 330 191 325 169 Q 323 159 320 148.5 Q 317 138 314 127 Q 309 111 304.5 94 Q 300 77 300 60 Q 300 43 311 23 Q 322 3 332 -11 Q 348 5 365 20.5 Q 382 36 400 52 Q 408 60 420 60 Q 429 60 436.5 55 Q 444 50 447.5 42 Q 451 34 450 25 Q 449 16 440 8 Z M 318 -109 Q 289 -141 264.5 -178 Q 240 -215 240 -250 Q 240 -266 247.5 -273 Q 255 -280 260 -280 Q 270 -280 282 -273 Q 294 -266 304.5 -252 Q 315 -238 322.5 -217.5 Q 330 -197 330 -170 Q 330 -138 318 -109 Z"/>
        </g>
        <g transform="matrix(1 0 0 1 15250 760)">
            <path fill="#000000" stroke="none" d="M 151 609 Q 120 577 88.5 547.5 Q 57 518 28 496 Q 11 483 -8 471.49997 Q -27 460 -50 460 Q -78 460 -97.49999 476 Q -117 492 -130 516 Q -143 540 -150 567 Q -157 594 -160 616 Q -162 633 -152 641.5 Q -142 650 -130 650 Q -119 650 -110.50001 644 Q -102 638 -100 624 Q -99 616 -95.5 599 Q -92 582 -86 564.5 Q -80 547 -71 533.5 Q -62 520 -50 520 Q -46 520 -37 525 Q -26 531 -8 544 Q 18 564 47.5 591.5 Q 77 619 109 651 Q 119 661 130 661 Q 139 661 146.5 656 Q 154 651 157.5 643 Q 161 635 160 626 Q 159 617 151 609 Z"/>
        </g>
    </g>
</svg>
