<svg width="12563" height="2200" viewBox="0 0 12563 2200" xmlns="http://www.w3.org/2000/svg">
    <defs/>
    <g transform="matrix(1 0 0 -1 0 2200)">
        <g transform="matrix(1 0 0 1 0 765)">
            <path fill="#000000" stroke="none" d="M 210 682 L 119 30 L 408 30 L 397 0 L 83 0 L 179 682 L 210 682 Z"/>
        </g>
        <g transform="matrix(1 0 0 1 455 765)">
            <path fill="#000000" stroke="none" d="M 210 682 L 114 0 L 83 0 L 179 682 L 210 682 Z"/>
        </g>
        <g transform="matrix(1 0 0 1 726 765)">
            <path fill="#000000" stroke="none" d="M 332 682 Q 427 682 479.5 644.5 Q 532 607 532 534 Q 532 463 491 417 Q 450 371 379 361 Q 444 355 482.5 319.5 Q 521 284 521 216 Q 521 162 497.5 113.49999 Q 474 65 417.5 32.5 Q 361 0 268 0 L 83 0 L 179 682 L 332 682 Z M 334 653 L 206 653 L 119 29 L 272 29 Q 389 29 439 84.5 Q 489 140 489 217 Q 489 281 447 313.5 Q 405 346 331 346 L 156 346 L 160 374 L 324 374 Q 412 374 456.50003 420.5 Q 501 467 501 533 Q 501 594 457.50003 623.5 Q 414 653 334 653 Z"/>
        </g>
        <g transform="matrix(1 0 0 1 1315 765)">
            <path fill="#000000" stroke="none" d="M 340 682 Q 441 682 489.50003 643.5 Q 538 605 538 530 Q 538 480 516.5 435 Q 495 390 447 359 Q 399 328 325 320 L 152 320 L 157 349 L 296 349 Q 372 349 419 375.49997 Q 466 402 486 443 Q 506 484 506 530 Q 506 592 466 622.5 Q 426 653 336 653 L 206 653 L 114 0 L 83 0 L 179 682 L 340 682 Z M 349 332 L 500 0 L 465 0 L 318 327 L 349 332 Z"/>
        </g>
        <g transform="matrix(1 0 0 1 1892 765)">
            <path fill="#000000" stroke="none" d="M 506 682 L 498 653 L 206 653 L 167 373 L 419 373 L 415 345 L 163 345 L 119 29 L 421 29 L 416 0 L 83 0 L 179 682 L 506 682 Z"/>
        </g>
        <g transform="matrix(1 0 0 1 2675 765)">
            <path fill="#000000" stroke="none" d="M 3 0 L 7 28 L 478 653 L 133 653 L 137 682 L 520 682 L 517 655 L 46 30 L 417 30 L 408 0 L 3 0 Z M 452 870 L 466 852 L 329 758 L 313 758 L 201 852 L 217 869 L 325 791 L 452 870 Z"/>
        </g>
        <g transform="matrix(1 0 0 1 3186 765)">
            <path fill="#000000" stroke="none" d="M 210 682 L 119 30 L 408 30 L 397 0 L 83 0 L 179 682 L 210 682 Z M 362 329 Q 352 329 345.50003 335 Q 339 341 339 351 Q 339 363 347 371 Q 355 379 367 379 Q 377 379 383.5 373 Q 390 367 390 357 Q 390 345 382 337 Q 374 329 362 329 Z"/>
        </g>
        <g transform="matrix(1 0 0 1 3641 765)">
            <path fill="#000000" stroke="none" d="M 526 207 Q 517 142 487.49997 93 Q 458 44 407.49997 17 Q 357 -10 286 -10 Q 213 -10 169 17.5 Q 125 45 109.49999 94.50001 Q 94 144 103 209 L 169 682 L 200 682 L 134 210 Q 121 120 157.5 69.5 Q 194 19 286 19 Q 379 19 431 71.5 Q 483 124 495 212 L 561 682 L 592 682 L 526 207 Z M 416 934 Q 451 934 472 914 Q 493 894 493 862 Q 493 834 480 812 Q 467 790 445 778 Q 423 766 396 766 Q 361 766 340 786.5 Q 319 807 319 839 Q 319 867 332 888.5 Q 345 910 367 922 Q 389 934 416 934 Z M 415 910 Q 384 910 366 889.5 Q 348 869 348 839 Q 348 816 361 803 Q 374 790 397 790 Q 428 790 446 810.5 Q 464 831 464 861 Q 464 884 451 897 Q 438 910 415 910 Z"/>
        </g>
        <g transform="matrix(1 0 0 1 4285 765)">
            <path fill="#000000" stroke="none" d="M 539 682 L 269 271 L 230 0 L 199 0 L 237 270 L 79 682 L 113 682 L 255 301 L 503 682 L 539 682 Z M 236 796 Q 226 796 219.49998 802 Q 213 808 213 818 Q 213 830 221 838 Q 229 846 241 846 Q 251 846 257.5 840 Q 264 834 264 824 Q 264 812 256 804 Q 248 796 236 796 Z M 408 796 Q 398 796 391.49997 802 Q 385 808 385 818 Q 385 830 393 838 Q 401 846 413 846 Q 423 846 429.5 840 Q 436 834 436 824 Q 436 812 428 804 Q 420 796 408 796 Z"/>
        </g>
        <g transform="matrix(1 0 0 1 5075 765)">
            <path fill="#000000" stroke="none" d="M 182 520 L 108 0 L 78 0 L 152 520 L 182 520 Z M 191 681 Q 181 681 174.5 687 Q 168 693 168 703 Q 168 715 176 723 Q 184 731 196 731 Q 206 731 212.50002 725 Q 219 719 219 709 Q 219 697 211 689 Q 203 681 191 681 Z"/>
        </g>
        <g transform="matrix(1 0 0 1 5335 765)">
            <path fill="#000000" stroke="none" d="M 370 530 Q 437 530 467.5 488 Q 498 446 487 369 L 435 0 L 405 0 L 457 367 Q 467 436 444 470 Q 421 504 368 504 Q 307 504 253.5 453 Q 200 402 152 310 L 108 0 L 78 0 L 152 520 L 177 520 L 159 367 Q 201 445 255.5 487.49997 Q 310 530 370 530 Z"/>
        </g>
        <g transform="matrix(1 0 0 1 5917 765)">
            <path fill="#000000" stroke="none" d="M 120 120 Q 113 69 130.5 43 Q 148 17 192 17 Q 216 17 238.5 24 Q 261 31 285 44 L 297 20 Q 271 6 244.50002 -2 Q 218 -10 189 -10 Q 136 -10 108.5 23.500002 Q 81 57 90 118 L 145 510 L 172 650 L 195 653 L 120 120 Z M 319 520 L 311 493 L 57 493 L 61 520 L 319 520 Z"/>
        </g>
        <g transform="matrix(1 0 0 1 6232 765)">
            <path fill="#000000" stroke="none" d="M 328 530 Q 394 530 433.5 497 Q 473 464 473 410 Q 473 349 427.5 307.5 Q 382 266 296.5 243 Q 211 220 88 213 L 91 239 Q 267 250 354.5 292 Q 442 334 442 409 Q 442 452 412.5 477.5 Q 383 503 328 503 Q 251 503 198.5 456.50003 Q 146 410 120.5 339.5 Q 95 269 95 198 Q 95 107 135 62.5 Q 175 18 245 18 Q 289 18 323 31 Q 357 44 398 73 L 414 51 Q 373 20 333 5 Q 293 -10 245 -10 Q 159 -10 111.5 43.5 Q 64 97 64 197 Q 64 276 93.49999 352.5 Q 123 429 182.5 479.5 Q 242 530 328 530 Z"/>
        </g>
        <g transform="matrix(1 0 0 1 6741 765)">
            <path fill="#000000" stroke="none" d="M 336 530 Q 361 530 384 523 L 376 497 Q 358 503 336 503 Q 276 503 234.5 456 Q 193 409 153 314 L 108 0 L 78 0 L 152 520 L 178 520 L 158 377 Q 189 451 232 490.5 Q 275 530 336 530 Z"/>
        </g>
        <g transform="matrix(1 0 0 1 7104 765)">
            <path fill="#000000" stroke="none" d="M 315 738 Q 344 738 371.5 729.5 Q 399 721 428 704 L 414 682 Q 385 698 362.5 704.50006 Q 340 711 313 711 Q 265 711 234.5 687 Q 204 663 197 613 L 113 7 Q 104 -57 87 -94 Q 70 -131 43 -152.5 Q 16 -174 -32 -196 L -42 -172 Q -1 -152 22.499998 -132.5 Q 46 -113 61 -80 Q 76 -47 84 10 L 168 617 Q 176 675 215.5 706.50006 Q 255 738 315 738 Z M 330 520 L 322 493 L 62 493 L 66 520 L 330 520 Z"/>
        </g>
        <g transform="matrix(1 0 0 1 7404 765)">
            <path fill="#000000" stroke="none" d="M 324 530 Q 371 530 406 519 Q 441 508 477 488 L 422 109 Q 416 66 421.5 45 Q 427 24 452 13 L 443 -10 Q 413 -1 400 20.5 Q 387 42 392 90 Q 362 44 320 17 Q 278 -10 227 -10 Q 151 -10 108 43.5 Q 65 97 65 193 Q 65 270 92 347.5 Q 119 425 177 477.5 Q 235 530 324 530 Z M 325 504 Q 246 504 194.5 455 Q 143 406 119.5 334.5 Q 96 263 96 194 Q 96 109 130.5 63.5 Q 165 18 228 18 Q 279 18 320.5 48.5 Q 362 79 397 140 L 445 474 Q 420 488 390.49997 496 Q 361 504 325 504 Z"/>
        </g>
        <g transform="matrix(1 0 0 1 7956 765)">
            <path fill="#000000" stroke="none" d="M 319 530 Q 360 530 392.50003 518 Q 425 506 451 480 L 432 460 Q 410 481 382 492 Q 354 503 318 503 Q 241 503 191 455 Q 141 407 118.50001 336.5 Q 96 266 96 198 Q 96 109 136 63.5 Q 176 18 247 18 Q 285 18 317.5 30 Q 350 42 381 65 L 397 43 Q 330 -10 246 -10 Q 163 -10 114 44.5 Q 65 99 65 198 Q 65 273 91 349.5 Q 117 426 174.5 478 Q 232 530 319 530 Z"/>
        </g>
        <g transform="matrix(1 0 0 1 8407 765)">
            <path fill="#000000" stroke="none" d="M 328 530 Q 394 530 433.5 497 Q 473 464 473 410 Q 473 349 427.5 307.5 Q 382 266 296.5 243 Q 211 220 88 213 L 91 239 Q 267 250 354.5 292 Q 442 334 442 409 Q 442 452 412.5 477.5 Q 383 503 328 503 Q 251 503 198.5 456.50003 Q 146 410 120.5 339.5 Q 95 269 95 198 Q 95 107 135 62.5 Q 175 18 245 18 Q 289 18 323 31 Q 357 44 398 73 L 414 51 Q 373 20 333 5 Q 293 -10 245 -10 Q 159 -10 111.5 43.5 Q 64 97 64 197 Q 64 276 93.49999 352.5 Q 123 429 182.5 479.5 Q 242 530 328 530 Z"/>
        </g>
        <g transform="matrix(1 0 0 1 9206 765)">
            <path fill="#000000" stroke="none" d="M 585 652 L 581 625 L 506 625 L 309 625 L 309 652 L 585 652 Z M 492 739 L 522 734 L 418 0 L 393 0 L 406 122 Q 373 64 328 27 Q 283 -10 221 -10 Q 149 -10 107 44 Q 65 98 65 193 Q 65 269 90 346.5 Q 115 424 170 477 Q 225 530 310 530 Q 364 530 398 508 Q 432 486 452 453 L 492 739 Z M 311 503 Q 237 503 188.50002 455 Q 140 407 118 336 Q 96 265 96 194 Q 96 110 129.5 64 Q 163 18 222 18 Q 282 18 326 59 Q 370 100 414 179 L 447 415 Q 426 455 394 479 Q 362 503 311 503 Z"/>
        </g>
        <g transform="matrix(1 0 0 1 9782 765)">
            <path fill="#000000" stroke="none" d="M 159 362 Q 203 449 256 489.50003 Q 309 530 367 530 Q 419 530 449.5 502 Q 480 474 480 424 Q 480 360 433.5 313 Q 387 266 300 239 L 419 0 L 386 0 L 262 252 Q 353 276 401 320 Q 449 364 449 424 Q 449 461 429 482.5 Q 409 504 365 504 Q 303 504 250 449.5 Q 197 395 150 296 L 108 0 L 78 0 L 182 734 L 212 738 L 159 362 Z"/>
        </g>
        <g transform="matrix(1 0 0 1 10286 765)">
            <path fill="#000000" stroke="none" d="M 213 -10 Q 147 -10 115.5 32 Q 84 74 95 150 L 147 520 L 177 520 L 125 150 Q 116 83 139.5 50.5 Q 163 18 216 18 Q 279 18 332.5 72 Q 386 126 427 218 L 469 520 L 499 520 L 425 0 L 402 0 L 422 163 Q 388 85 333.5 37.5 Q 279 -10 213 -10 Z M 452 683 L 238 683 L 243 712 L 457 712 L 452 683 Z"/>
        </g>
        <g transform="matrix(1 0 0 1 10863 765)">
            <path fill="#000000" stroke="none" d="M 324 530 Q 371 530 406 519 Q 441 508 477 488 L 422 109 Q 416 66 421.5 45 Q 427 24 452 13 L 443 -10 Q 413 -1 400 20.5 Q 387 42 392 90 Q 362 44 320 17 Q 278 -10 227 -10 Q 151 -10 108 43.5 Q 65 97 65 193 Q 65 270 92 347.5 Q 119 425 177 477.5 Q 235 530 324 530 Z M 325 504 Q 246 504 194.5 455 Q 143 406 119.5 334.5 Q 96 263 96 194 Q 96 109 130.5 63.5 Q 165 18 228 18 Q 279 18 320.5 48.5 Q 362 79 397 140 L 445 474 Q 420 488 390.49997 496 Q 361 504 325 504 Z M 357 661 Q 312 661 284.5 687 Q 257 713 255 754 L 278 757 Q 283 724 303 707 Q 323 690 357 690 Q 393 690 419.5 708 Q 446 726 460 759 L 481 752 Q 469 711 435 686 Q 401 661 357 661 Z"/>
        </g>
        <g transform="matrix(1 0 0 1 11415 765)">
            <path fill="#000000" stroke="none" d="M 346 530 Q 421 530 461.5 481 Q 502 432 502 339 Q 502 260 476.5 180 Q 451 100 393 45 Q 335 -10 242 -10 Q 199 -10 163.5 -2.5 Q 128 5 82 23 L 183 734 L 213 738 L 172 443 Q 208 484 251.49998 507 Q 295 530 346 530 Z M 346 502 Q 292 502 251 477.5 Q 210 453 166 404 L 116 43 Q 144 31 173 24.499998 Q 202 18 241 18 Q 325 18 376.50003 70 Q 428 122 450 195.49998 Q 472 269 472 339 Q 472 420 440 461 Q 408 502 346 502 Z"/>
        </g>
        <g transform="matrix(1 0 0 1 11981 765)">
            <path fill="#000000" stroke="none" d="M 370 530 Q 437 530 467.5 488 Q 498 446 487 369 L 435 0 L 405 0 L 457 367 Q 467 436 444 470 Q 421 504 368 504 Q 307 504 253.5 453 Q 200 402 152 310 L 108 0 L 78 0 L 152 520 L 177 520 L 159 367 Q 201 445 255.5 487.49997 Q 310 530 370 530 Z M 242 -91 Q 255 -91 263.5 -99 Q 272 -107 272 -119 Q 272 -131 268 -140.5 Q 264 -150 250 -174 Q 249 -175 248 -176.5 Q 247 -178 246 -180 L 194 -265 L 173 -265 L 224 -152 Q 216 -148 211.49998 -140.5 Q 207 -133 207 -125 Q 207 -110 216.5 -100.5 Q 226 -91 242 -91 Z"/>
        </g>
    </g>
</svg>
