<svg width="45221" height="2900" viewBox="0 0 45221 2900" xmlns="http://www.w3.org/2000/svg">
    <defs/>
    <g transform="matrix(1 0 0 -1 0 2900)">
        <g transform="matrix(1 0 0 1 0 928)">
            <path fill="#000000" stroke="none" d="M 200 0 L 200 1400 L 464 1400 L 464 852 L 1354 852 L 1354 1400 L 1618 1400 L 1618 0 L 1354 0 L 1354 608 L 464 608 L 464 0 L 200 0 Z"/>
        </g>
        <g transform="matrix(1 0 0 1 1818 928)">
            <path fill="#000000" stroke="none" d="M 200 0 L 1458 0 L 1458 244 L 464 244 L 464 596 L 1052 596 L 1052 840 L 464 840 L 464 1156 L 1438 1156 L 1438 1400 L 200 1400 L 200 0 Z"/>
        </g>
        <g transform="matrix(1 0 0 1 3386 928)">
            <path fill="#000000" stroke="none" d="M 200 0 L 1372 0 L 1372 244 L 464 244 L 464 1400 L 200 1400 L 200 0 Z"/>
        </g>
        <g transform="matrix(1 0 0 1 4778 928)">
            <path fill="#000000" stroke="none" d="M 200 0 L 1372 0 L 1372 244 L 464 244 L 464 1400 L 200 1400 L 200 0 Z"/>
        </g>
        <g transform="matrix(1 0 0 1 6170 928)">
            <path fill="#000000" stroke="none" d="M 170 1140 L 170 1140 Q 170 1226 195 1279.5 Q 220 1333 265 1363 Q 310 1393 373 1403.5 Q 436 1414 512 1414 L 1278 1414 Q 1354 1414 1417 1403.5 Q 1480 1393 1525.5 1363 Q 1571 1333 1596.5 1279.5 Q 1622 1226 1622 1140 L 1622 272 Q 1622 184 1598.5 128 Q 1575 72 1530.5 40.5 Q 1486 9 1422 -2.5 Q 1358 -14 1278 -14 L 512 -14 Q 432 -14 368.5 -2 Q 305 10 261 41.5 Q 217 73 193.5 128.5 Q 170 184 170 272 L 170 1140 Z M 434 1170 L 434 230 Q 434 230 434 230 Q 434 230 434 230 Q 434 230 434 230 Q 434 230 434 230 L 1358 230 Q 1358 230 1358 230 Q 1358 230 1358 230 Q 1358 230 1358 230 Q 1358 230 1358 230 L 1358 1170 Q 1358 1170 1358 1170 Q 1358 1170 1358 1170 Q 1358 1170 1358 1170 Q 1358 1170 1358 1170 L 434 1170 Q 434 1170 434 1170 Q 434 1170 434 1170 Q 434 1170 434 1170 Q 434 1170 434 1170 Z"/>
        </g>
        <g transform="matrix(1 0 0 1 8580 928)">
            <path fill="#000000" stroke="none" d="M 170 1140 L 170 1140 Q 170 1214 189 1266 Q 208 1318 249.5 1351 Q 291 1384 356 1399 Q 421 1414 512 1414 L 1218 1414 Q 1310 1414 1375.5 1399 Q 1441 1384 1482.5 1351 Q 1524 1318 1543 1266 Q 1562 1214 1562 1140 L 1562 1036 L 1298 980 L 1298 1170 Q 1298 1170 1298 1170 Q 1298 1170 1298 1170 Q 1298 1170 1298 1170 Q 1298 1170 1298 1170 L 434 1170 Q 434 1170 434 1170 Q 434 1170 434 1170 Q 434 1170 434 1170 Q 434 1170 434 1170 L 434 230 Q 434 230 434 230 Q 434 230 434 230 Q 434 230 434 230 Q 434 230 434 230 L 1304 230 Q 1304 230 1304 230 Q 1304 230 1304 230 Q 1304 230 1304 230 Q 1304 230 1304 230 L 1304 562 L 864 562 L 864 806 L 1568 806 L 1568 272 Q 1568 195 1549 140.5 Q 1530 86 1489 51.5 Q 1448 17 1382.5 1.5 Q 1317 -14 1224 -14 L 512 -14 Q 419 -14 354 1.5 Q 289 17 248 51.5 Q 207 86 188.50002 140.5 Q 170 195 170 272 L 170 1140 Z M 743 1652 L 743 1652 Q 743 1617 745 1597.5 Q 747 1578 756 1569 Q 765 1560 784 1558 Q 803 1556 838 1556 L 902 1556 Q 937 1556 956 1558 Q 975 1560 984 1569 Q 993 1578 995 1597.5 Q 997 1617 997 1652 L 997 1718 Q 997 1753 995 1772 Q 993 1791 984 1800 Q 975 1809 956 1811 Q 937 1813 902 1813 L 838 1813 Q 803 1813 784 1811 Q 765 1809 756 1800 Q 747 1791 745 1772 Q 743 1753 743 1718 L 743 1652 Z"/>
        </g>
        <g transform="matrix(1 0 0 1 10308 928)">
            <path fill="#000000" stroke="none" d="M 200 0 L 200 1400 L 1142 1400 Q 1218 1400 1281 1389.5 Q 1344 1379 1389.5 1349 Q 1435 1319 1460.5001 1265.5 Q 1486 1212 1486 1126 L 1486 805 Q 1486 740 1464.5 691 Q 1443 642 1400 609.5 Q 1357 577 1292.5 561 Q 1228 545 1142 545 L 1055 545 L 1611 0 L 1256 0 L 701 545 L 464 545 L 464 0 L 200 0 Z M 464 789 L 1116 789 Q 1142 789 1162 793.5 Q 1182 798 1195.5 809 Q 1209 820 1215.5 839.5 Q 1222 859 1222 889 L 1222 1056 Q 1222 1082 1215.5 1101 Q 1209 1120 1195.5 1132 Q 1182 1144 1162 1150 Q 1142 1156 1116 1156 L 464 1156 L 464 789 Z"/>
        </g>
        <g transform="matrix(1 0 0 1 11959 928)">
            <path fill="#000000" stroke="none" d="M 20 1400 L 20 1156 L 576 1156 L 576 832 L 433 832 L 433 608 L 576 608 L 576 0 L 840 0 L 840 608 L 983 608 L 983 832 L 840 832 L 840 1156 L 1396 1156 L 1396 1400 L 20 1400 Z"/>
        </g>
        <g transform="matrix(1 0 0 1 13255 928)">
            <path fill="#000000" stroke="none" d="M 0 0 L 718 1400 L 926 1400 L 1654 0 L 1342 0 L 1175 326 L 457 326 L 290 0 L 0 0 Z M 580 566 L 1052 566 L 816 1025 L 580 566 Z M 510 1503 L 679 1503 Q 679 1542 687.5 1566.5 Q 696 1591 714 1605.5 Q 732 1620 760.5 1625.5 Q 789 1631 829 1631 Q 868 1631 896 1625.5 Q 924 1620 942 1605.5 Q 960 1591 968.5 1566.5 Q 977 1542 977 1503 L 1146 1503 Q 1146 1560 1139 1604 Q 1132 1648 1116 1681 Q 1100 1714 1075.5 1736.5 Q 1051 1759 1015.5 1773.5 Q 980 1788 934 1794 Q 888 1800 829 1800 Q 740 1800 679.5 1785.5 Q 619 1771 581 1736.5 Q 543 1702 526.5 1645 Q 510 1588 510 1503 Z"/>
        </g>
        <g transform="matrix(1 0 0 1 14959 928)">
            <path fill="#000000" stroke="none" d="M 0 0 L 718 1400 L 926 1400 L 1654 0 L 1342 0 L 1175 326 L 457 326 L 290 0 L 0 0 Z M 580 566 L 1052 566 L 816 1025 L 580 566 Z M 616 1672 L 616 1672 Q 616 1735 624 1773.5 Q 632 1812 654.5 1834 Q 677 1856 718.5 1863.5 Q 760 1871 828 1871 Q 896 1871 937.5 1863.5 Q 979 1856 1001.5 1834 Q 1024 1812 1032 1773.5 Q 1040 1735 1040 1672 Q 1040 1609 1032 1570 Q 1024 1531 1001.5 1509.5 Q 979 1488 937.5 1480 Q 896 1472 828 1472 Q 760 1472 718.5 1480 Q 677 1488 654.5 1509.5 Q 632 1531 624 1570 Q 616 1609 616 1672 Z M 756 1672 L 756 1672 Q 756 1651 758 1636.5 Q 760 1622 767.49994 1613 Q 775 1604 789.5 1600 Q 804 1596 828 1596 Q 852 1596 866.50006 1600 Q 881 1604 888.5 1613 Q 896 1622 898 1636.5 Q 900 1651 900 1672 Q 900 1692 898 1706.4999 Q 896 1721 888.5 1730 Q 881 1739 866.50006 1743 Q 852 1747 828 1747 Q 804 1747 789.5 1743 Q 775 1739 767.49994 1730 Q 760 1721 758 1706.4999 Q 756 1692 756 1672 Z M 621 1909 L 875 1909 L 1208 2224 L 908 2224 L 621 1909 Z"/>
        </g>
        <g transform="matrix(1 0 0 1 16543 928)">
            <path fill="#000000" stroke="none" d="M 472 0 L 0 1400 L 302 1400 L 593 490 L 898 1400 L 1104 1400 L 1415 484 L 1720 1400 L 1974 1400 L 1494 0 L 1294 0 L 981 901 L 672 0 L 472 0 Z M 683 1610 L 683 1682 Q 683 1714 684.5 1732 Q 686 1750 695 1758.5 Q 704 1767 722 1768.4999 Q 740 1770 773 1770 L 843 1770 Q 876 1770 894 1768.4999 Q 912 1767 921 1758.5 Q 930 1750 931.50006 1732 Q 933 1714 933 1682 L 933 1610 Q 933 1577 931.50006 1559 Q 930 1541 921 1532 Q 912 1523 894 1521.5 Q 876 1520 843 1520 L 773 1520 Q 740 1520 722 1521.5 Q 704 1523 695 1532 Q 686 1541 684.5 1559 Q 683 1577 683 1610 Z M 1093 1610 L 1093 1682 Q 1093 1714 1094.5 1732 Q 1096 1750 1105 1758.5 Q 1114 1767 1132 1768.4999 Q 1150 1770 1183 1770 L 1253 1770 Q 1286 1770 1304 1768.4999 Q 1322 1767 1331 1758.5 Q 1340 1750 1341.5 1732 Q 1343 1714 1343 1682 L 1343 1610 Q 1343 1577 1341.5 1559 Q 1340 1541 1331 1532 Q 1322 1523 1304 1521.5 Q 1286 1520 1253 1520 L 1183 1520 Q 1150 1520 1132 1521.5 Q 1114 1523 1105 1532 Q 1096 1541 1094.5 1559 Q 1093 1577 1093 1610 Z"/>
        </g>
        <g transform="matrix(1 0 0 1 19135 928)">
            <path fill="#000000" stroke="none" d="M 142 252 L 142 194 Q 142 131 159 91.5 Q 176 52 207.5 29.500002 Q 239 7 284 -1.5 Q 329 -10 386 -10 L 890 -10 Q 948 -10 993.50006 -1.5 Q 1039 7 1070.5 29.500002 Q 1102 52 1119 91.5 Q 1136 131 1136 194 L 1136 414 Q 1136 476 1118 514.5 Q 1100 553 1067.5 574 Q 1035 595 990 602.5 Q 945 610 890 610 L 384 610 Q 384 610 384 610 Q 384 610 384 610 L 384 806 Q 384 806 384 806 Q 384 806 384 806 L 902 806 Q 902 806 902 806 Q 902 806 902 806 L 902 716 L 1122 760 L 1122 814 Q 1122 875 1104 913 Q 1086 951 1053.5 972.5 Q 1021 994 976 1002 Q 931 1010 876 1010 L 408 1010 Q 354 1010 309 1002 Q 264 994 232 972.5 Q 200 951 182 913 Q 164 875 164 814 L 164 606 Q 164 543 181 503 Q 198 463 229.5 440 Q 261 417 306 408.50003 Q 351 400 408 400 L 916 400 Q 916 400 916 400 Q 916 400 916 400 L 916 194 Q 916 194 916 194 Q 916 194 916 194 L 362 194 Q 362 194 362 194 Q 362 194 362 194 L 362 298 L 142 252 Z"/>
        </g>
        <g transform="matrix(1 0 0 1 20413 928)">
            <path fill="#000000" stroke="none" d="M 152 204 L 152 204 Q 152 146 166 105.49999 Q 180 65 211 39.5 Q 242 14 290.5 2 Q 339 -10 408 -10 L 746 -10 Q 846 -10 905.5 17 Q 965 44 986 100 L 986 -428 L 1234 -428 L 1234 1000 L 986 1000 L 986 900 Q 965 956 905.5 983 Q 846 1010 746 1010 L 408 1010 Q 340 1010 291.5 998.5 Q 243 987 212 962 Q 181 937 166.5 898.50006 Q 152 860 152 806 L 152 204 Z M 400 214 L 400 786 Q 400 786 400 786 Q 400 786 400 786 L 986 786 L 986 214 L 400 214 Q 400 214 400 214 Q 400 214 400 214 Z"/>
        </g>
        <g transform="matrix(1 0 0 1 21827 928)">
            <path fill="#000000" stroke="none" d="M 166 194 L 166 194 Q 166 131 183 91.5 Q 200 52 231.5 29.500002 Q 263 7 308 -1.5 Q 353 -10 410 -10 L 952 -10 Q 1009 -10 1054.5 -1.5 Q 1100 7 1132 29.500002 Q 1164 52 1181 91.5 Q 1198 131 1198 194 L 1198 1000 L 950 1000 L 950 214 Q 950 214 950 214 Q 950 214 950 214 L 414 214 Q 414 214 414 214 Q 414 214 414 214 L 414 1000 L 166 1000 L 166 194 Z"/>
        </g>
        <g transform="matrix(1 0 0 1 23191 928)">
            <path fill="#000000" stroke="none" d="M 388 -10 L 672 -10 Q 717 -10 759 -2 Q 801 6 835.50006 24.499998 Q 870 43 895.49994 73.5 Q 921 104 934 150 L 934 0 L 1182 0 L 1182 814 Q 1182 876 1164 914 Q 1146 952 1113.5 973.5 Q 1081 995 1036 1002.5 Q 991 1010 936 1010 L 402 1010 Q 347 1010 302 1002.5 Q 257 995 224.5 973.5 Q 192 952 174 914 Q 156 876 156 814 L 156 764 L 404 718 L 404 806 Q 404 806 404 806 Q 404 806 404 806 L 934 806 Q 934 806 934 806 Q 934 806 934 806 L 934 598 L 428 598 Q 373 598 321.5 591 Q 270 584 230 563 Q 190 542 166 504 Q 142 466 142 404 L 142 194 Q 142 131 159 91.5 Q 176 52 207.5 29.500002 Q 239 7 284.5 -1.5 Q 330 -10 388 -10 Z M 390 194 L 390 394 Q 390 394 390 394 Q 390 394 390 394 L 934 394 L 934 194 L 390 194 Q 390 194 390 194 Q 390 194 390 194 Z"/>
        </g>
        <g transform="matrix(1 0 0 1 24539 928)">
            <path fill="#000000" stroke="none" d="M 180 0 L 428 0 L 428 786 L 834 786 Q 834 786 834 786 Q 834 786 834 786 L 834 654 L 1082 701 L 1082 760 Q 1082 827 1064 874.5 Q 1046 922 1007.5 952 Q 969 982 909 996 Q 849 1010 764 1010 L 710 1010 Q 592 1010 525 983.5 Q 458 957 428 906 L 428 1000 L 180 1000 L 180 0 Z"/>
        </g>
        <g transform="matrix(1 0 0 1 25681 928)">
            <path fill="#000000" stroke="none" d="M 152 250 L 152 250 Q 152 180 170.5 130.5 Q 189 81 226 49.5 Q 263 18 319 4 Q 375 -10 450 -10 L 906 -10 Q 992 -10 1052 4.5 Q 1112 19 1150.5 50.5 Q 1189 82 1206.5 131 Q 1224 180 1224 250 L 1224 260 L 976 304 L 976 194 Q 976 194 976 194 Q 976 194 976 194 L 400 194 Q 400 194 400 194 Q 400 194 400 194 L 400 402 L 1224 402 L 1224 786 Q 1224 840 1207 882 Q 1190 924 1156 952.5 Q 1122 981 1071 995.50006 Q 1020 1010 952 1010 L 422 1010 Q 354 1010 303 995.50006 Q 252 981 218.5 953 Q 185 925 168.5 884 Q 152 843 152 790 L 152 250 Z M 400 606 L 400 806 Q 400 806 400 806 Q 400 806 400 806 L 976 806 Q 976 806 976 806 Q 976 806 976 806 L 976 606 L 400 606 Z"/>
        </g>
        <g transform="matrix(1 0 0 1 27675 928)">
            <path fill="#000000" stroke="none" d="M 152 204 L 152 204 Q 152 146 166 105.49999 Q 180 65 211 39.5 Q 242 14 290.5 2 Q 339 -10 408 -10 L 988 -10 Q 1058 -10 1106.5 2 Q 1155 14 1185.5 39.5 Q 1216 65 1230 105.49999 Q 1244 146 1244 204 L 1244 806 Q 1244 914 1184.5 962 Q 1125 1010 988 1010 L 408 1010 Q 340 1010 291.5 998.5 Q 243 987 212 962 Q 181 937 166.5 898.50006 Q 152 860 152 806 L 152 204 Z M 400 214 L 400 786 Q 400 786 400 786 Q 400 786 400 786 L 996 786 Q 996 786 996 786 Q 996 786 996 786 L 996 214 Q 996 214 996 214 Q 996 214 996 214 L 400 214 Q 400 214 400 214 Q 400 214 400 214 Z M 796 0 L 600 0 Q 560 -17 527.5 -42 Q 495 -67 472 -97.49999 Q 449 -128 436.5 -163 Q 424 -198 424 -235 Q 424 -278 441 -313.5 Q 458 -349 489.50003 -374.49997 Q 521 -400 565 -414 Q 609 -428 662 -428 Q 685 -428 707 -425.50003 Q 729 -423 751 -418 Q 773 -413 794 -405.5 Q 815 -398 835 -388 L 873 -209 Q 859 -217 844.5 -222.5 Q 830 -228 815.5 -231.5 Q 801 -235 786.5 -237 Q 772 -239 758 -239 Q 730 -239 708 -232.5 Q 686 -226 670.5 -213.5 Q 655 -201 646.5 -183.5 Q 638 -166 638 -145 Q 638 -119 650 -95.5 Q 662 -72 683 -52.5 Q 704 -33 733 -19.5 Q 762 -6 796 0 Z"/>
        </g>
        <g transform="matrix(1 0 0 1 29071 928)">
            <path fill="#000000" stroke="none" d="M 180 -428 L 428 -428 L 428 100 Q 449 44 508.5 17 Q 568 -10 668 -10 L 1006 -10 Q 1074 -10 1122.5 1.5 Q 1171 13 1202 38 Q 1233 63 1247.5 101.49999 Q 1262 140 1262 194 L 1262 796 Q 1262 854 1248 894.49994 Q 1234 935 1203 960.50006 Q 1172 986 1123.5 998 Q 1075 1010 1006 1010 L 668 1010 Q 568 1010 508.5 983 Q 449 956 428 900 L 428 1000 L 180 1000 L 180 -428 Z M 428 214 L 428 786 L 1014 786 Q 1014 786 1014 786 Q 1014 786 1014 786 L 1014 214 Q 1014 214 1014 214 Q 1014 214 1014 214 L 428 214 Z"/>
        </g>
        <g transform="matrix(1 0 0 1 30485 928)">
            <path fill="#000000" stroke="none" d="M 215 204 L 215 204 Q 215 146 229 105.49999 Q 243 65 274 39.5 Q 305 14 353.5 2 Q 402 -10 471 -10 L 1051 -10 Q 1121 -10 1169.5 2 Q 1218 14 1248.5 39.5 Q 1279 65 1293 105.49999 Q 1307 146 1307 204 L 1307 806 Q 1307 914 1247.5 962 Q 1188 1010 1051 1010 L 471 1010 Q 403 1010 354.5 998.5 Q 306 987 275 962 Q 244 937 229.5 898.50006 Q 215 860 215 806 L 215 204 Z M 463 214 L 463 786 Q 463 786 463 786 Q 463 786 463 786 L 1059 786 Q 1059 786 1059 786 Q 1059 786 1059 786 L 1059 214 Q 1059 214 1059 214 Q 1059 214 1059 214 L 463 214 Q 463 214 463 214 Q 463 214 463 214 Z M 260 -60 L 451 113 L 457 119 L 1152 743 L 1152 743 L 1370 940 L 1262 1060 L 1047 866 L 1046 865 L 354 242 L 350 238 L 152 60 L 260 -60 Z"/>
        </g>
        <g transform="matrix(1 0 0 1 32007 928)">
            <path fill="#000000" stroke="none" d="M 388 -10 L 672 -10 Q 717 -10 759 -2 Q 801 6 835.50006 24.499998 Q 870 43 895.49994 73.5 Q 921 104 934 150 L 934 0 L 1182 0 L 1182 814 Q 1182 876 1164 914 Q 1146 952 1113.5 973.5 Q 1081 995 1036 1002.5 Q 991 1010 936 1010 L 402 1010 Q 347 1010 302 1002.5 Q 257 995 224.5 973.5 Q 192 952 174 914 Q 156 876 156 814 L 156 764 L 404 718 L 404 806 Q 404 806 404 806 Q 404 806 404 806 L 934 806 Q 934 806 934 806 Q 934 806 934 806 L 934 598 L 428 598 Q 373 598 321.5 591 Q 270 584 230 563 Q 190 542 166 504 Q 142 466 142 404 L 142 194 Q 142 131 159 91.5 Q 176 52 207.5 29.500002 Q 239 7 284.5 -1.5 Q 330 -10 388 -10 Z M 390 194 L 390 394 Q 390 394 390 394 Q 390 394 390 394 L 934 394 L 934 194 L 390 194 Q 390 194 390 194 Q 390 194 390 194 Z M 473 1267 L 473 1267 Q 473 1326 480 1362.5 Q 487 1399 508.5 1419.4999 Q 530 1440 569 1447 Q 608 1454 672 1454 Q 735 1454 774 1447 Q 813 1440 834.50006 1419.4999 Q 856 1399 863.49994 1362.5 Q 871 1326 871 1267 Q 871 1208 863.49994 1171.5 Q 856 1135 834.50006 1114.5 Q 813 1094 774 1086.5 Q 735 1079 672 1079 Q 608 1079 569 1086.5 Q 530 1094 508.5 1114.5 Q 487 1135 480 1171.5 Q 473 1208 473 1267 Z M 600 1267 L 600 1267 Q 600 1246 602 1231.5 Q 604 1217 611.5 1208 Q 619 1199 633.5 1195 Q 648 1191 672 1191 Q 696 1191 710.5 1195 Q 725 1199 732.49994 1208 Q 740 1217 742 1231.5 Q 744 1246 744 1267 Q 744 1287 742 1301.5 Q 740 1316 732.49994 1325 Q 725 1334 710.5 1338 Q 696 1342 672 1342 Q 648 1342 633.5 1338 Q 619 1334 611.5 1325 Q 604 1316 602 1301.5 Q 600 1287 600 1267 Z"/>
        </g>
        <g transform="matrix(1 0 0 1 33355 928)">
            <path fill="#000000" stroke="none" d="M 400 214 L 400 214 Q 400 214 400 214 Q 400 214 400 214 L 986 214 L 986 786 L 400 786 Q 400 786 400 786 Q 400 786 400 786 L 400 214 Z M 218 -428 L 172 -204 L 986 -204 Q 986 -204 986 -204 Q 986 -204 986 -204 L 986 100 Q 965 44 905.5 17 Q 846 -10 746 -10 L 408 -10 Q 339 -10 290.5 2 Q 242 14 211 39.5 Q 180 65 166 105.49999 Q 152 146 152 204 L 152 806 Q 152 860 166.5 898.50006 Q 181 937 212 962 Q 243 987 291.5 998.5 Q 340 1010 408 1010 L 746 1010 Q 846 1010 905.5 983 Q 965 956 986 900 L 986 1000 L 1234 1000 L 1234 -174 Q 1234 -261 1216.5 -311.5 Q 1199 -362 1161.5 -388 Q 1124 -414 1064.5 -421 Q 1005 -428 920 -428 L 218 -428 Z M 303 1085 L 523 1085 L 684 1305 L 844 1085 L 1070 1085 L 768 1448 L 607 1448 L 303 1085 Z"/>
        </g>
        <g transform="matrix(1 0 0 1 34755 928)">
            <path fill="#000000" stroke="none" d="M 408 -10 L 408 -10 Q 339 -10 290.5 2 Q 242 14 211 39.5 Q 180 65 166 105.49999 Q 152 146 152 204 L 152 806 Q 152 860 166.5 898.50006 Q 181 937 212 962 Q 243 987 291.5 998.5 Q 340 1010 408 1010 L 890 1010 Q 864 1055 832 1094 Q 800 1133 762 1168 L 433 1079 L 399 1205 L 628 1267 Q 565 1304 494 1333 Q 423 1362 343 1384 L 583 1458 Q 668 1439 744.5 1409.5 Q 821 1380 889 1338 L 1207 1424 L 1241 1298 L 1017 1237 Q 1070 1185 1112 1119 Q 1154 1053 1183 972 Q 1212 891 1228 794 Q 1244 697 1244 581 L 1244 204 Q 1244 146 1230 105.49999 Q 1216 65 1185.5 39.5 Q 1155 14 1106.5 2 Q 1058 -10 988 -10 L 408 -10 Z M 976 786 L 400 786 Q 400 786 400 786 Q 400 786 400 786 L 400 214 Q 400 214 400 214 Q 400 214 400 214 L 996 214 Q 996 214 996 214 Q 996 214 996 214 L 996 581 Q 996 637 991 687.5 Q 986 738 976 786 Z"/>
        </g>
        <g transform="matrix(1 0 0 1 36769 928)">
            <path fill="#000000" stroke="none" d="M 388 -10 L 672 -10 Q 717 -10 759 -2 Q 801 6 835.50006 24.499998 Q 870 43 895.49994 73.5 Q 921 104 934 150 L 934 0 L 1182 0 L 1182 814 Q 1182 876 1164 914 Q 1146 952 1113.5 973.5 Q 1081 995 1036 1002.5 Q 991 1010 936 1010 L 402 1010 Q 347 1010 302 1002.5 Q 257 995 224.5 973.5 Q 192 952 174 914 Q 156 876 156 814 L 156 764 L 404 718 L 404 806 Q 404 806 404 806 Q 404 806 404 806 L 934 806 Q 934 806 934 806 Q 934 806 934 806 L 934 598 L 428 598 Q 373 598 321.5 591 Q 270 584 230 563 Q 190 542 166 504 Q 142 466 142 404 L 142 194 Q 142 131 159 91.5 Q 176 52 207.5 29.500002 Q 239 7 284.5 -1.5 Q 330 -10 388 -10 Z M 390 194 L 390 394 Q 390 394 390 394 Q 390 394 390 394 L 934 394 L 934 194 L 390 194 Q 390 194 390 194 Q 390 194 390 194 Z M 1130 0 L 934 0 Q 894 -17 861.49994 -42 Q 829 -67 806 -97.49999 Q 783 -128 770.50006 -163 Q 758 -198 758 -235 Q 758 -278 775 -313.5 Q 792 -349 823.5 -374.49997 Q 855 -400 899 -414 Q 943 -428 996 -428 Q 1019 -428 1041 -425.50003 Q 1063 -423 1085 -418 Q 1107 -413 1128 -405.5 Q 1149 -398 1169 -388 L 1207 -209 Q 1193 -217 1178.5 -222.5 Q 1164 -228 1149.5 -231.5 Q 1135 -235 1120.5 -237 Q 1106 -239 1092 -239 Q 1064 -239 1042 -232.5 Q 1020 -226 1004.5 -213.5 Q 989 -201 980.5 -183.5 Q 972 -166 972 -145 Q 972 -119 984 -95.5 Q 996 -72 1017 -52.5 Q 1038 -33 1067 -19.5 Q 1096 -6 1130 0 Z"/>
        </g>
        <g transform="matrix(1 0 0 1 38117 928)">
            <path fill="#000000" stroke="none" d="M 388 -10 L 672 -10 Q 717 -10 759 -2 Q 801 6 835.50006 24.499998 Q 870 43 895.49994 73.5 Q 921 104 934 150 L 934 0 L 1182 0 L 1182 814 Q 1182 876 1164 914 Q 1146 952 1113.5 973.5 Q 1081 995 1036 1002.5 Q 991 1010 936 1010 L 402 1010 Q 347 1010 302 1002.5 Q 257 995 224.5 973.5 Q 192 952 174 914 Q 156 876 156 814 L 156 764 L 404 718 L 404 806 Q 404 806 404 806 Q 404 806 404 806 L 934 806 Q 934 806 934 806 Q 934 806 934 806 L 934 598 L 428 598 Q 373 598 321.5 591 Q 270 584 230 563 Q 190 542 166 504 Q 142 466 142 404 L 142 194 Q 142 131 159 91.5 Q 176 52 207.5 29.500002 Q 239 7 284.5 -1.5 Q 330 -10 388 -10 Z M 390 194 L 390 394 Q 390 394 390 394 Q 390 394 390 394 L 934 394 L 934 194 L 390 194 Q 390 194 390 194 Q 390 194 390 194 Z M 289 1085 L 509 1085 L 670 1305 L 830 1085 L 1056 1085 L 754 1448 L 593 1448 L 289 1085 Z M 542 -190 L 542 -252 Q 542 -284 543.5 -302 Q 545 -320 554 -328.5 Q 563 -337 581 -338.5 Q 599 -340 632 -340 L 692 -340 Q 725 -340 743 -338.5 Q 761 -337 770 -328.5 Q 779 -320 780.5 -302 Q 782 -284 782 -252 L 782 -190 Q 782 -158 780.5 -140 Q 779 -122 770 -113.49999 Q 761 -105 743 -103.5 Q 725 -102 692 -102 L 632 -102 Q 599 -102 581 -103.5 Q 563 -105 554 -113.49999 Q 545 -122 543.5 -140 Q 542 -158 542 -190 Z"/>
        </g>
        <g transform="matrix(1 0 0 1 39465 928)">
            <path fill="#000000" stroke="none" d="M 388 -10 L 672 -10 Q 717 -10 759 -2 Q 801 6 835.50006 24.499998 Q 870 43 895.49994 73.5 Q 921 104 934 150 L 934 0 L 1182 0 L 1182 814 Q 1182 876 1164 914 Q 1146 952 1113.5 973.5 Q 1081 995 1036 1002.5 Q 991 1010 936 1010 L 402 1010 Q 347 1010 302 1002.5 Q 257 995 224.5 973.5 Q 192 952 174 914 Q 156 876 156 814 L 156 764 L 404 718 L 404 806 Q 404 806 404 806 Q 404 806 404 806 L 934 806 Q 934 806 934 806 Q 934 806 934 806 L 934 598 L 428 598 Q 373 598 321.5 591 Q 270 584 230 563 Q 190 542 166 504 Q 142 466 142 404 L 142 194 Q 142 131 159 91.5 Q 176 52 207.5 29.500002 Q 239 7 284.5 -1.5 Q 330 -10 388 -10 Z M 390 194 L 390 394 Q 390 394 390 394 Q 390 394 390 394 L 934 394 L 934 194 L 390 194 Q 390 194 390 194 Q 390 194 390 194 Z"/>
        </g>
        <g transform="matrix(1 0 0 1 40813 928)">
            <path fill="#000000" stroke="none" d="M 400 214 L 400 214 Q 400 214 400 214 Q 400 214 400 214 L 986 214 L 986 786 L 400 786 Q 400 786 400 786 Q 400 786 400 786 L 400 214 Z M 218 -428 L 172 -204 L 986 -204 Q 986 -204 986 -204 Q 986 -204 986 -204 L 986 100 Q 965 44 905.5 17 Q 846 -10 746 -10 L 408 -10 Q 339 -10 290.5 2 Q 242 14 211 39.5 Q 180 65 166 105.49999 Q 152 146 152 204 L 152 806 Q 152 860 166.5 898.50006 Q 181 937 212 962 Q 243 987 291.5 998.5 Q 340 1010 408 1010 L 746 1010 Q 846 1010 905.5 983 Q 965 956 986 900 L 986 1000 L 1234 1000 L 1234 -174 Q 1234 -261 1216.5 -311.5 Q 1199 -362 1161.5 -388 Q 1124 -414 1064.5 -421 Q 1005 -428 920 -428 L 218 -428 Z M 794 1535 L 723 1560 L 578 1313 Q 570 1300 567.5 1279 Q 565 1258 565 1228 L 565 1174 Q 565 1140 566.5 1121 Q 568 1102 577 1093 Q 586 1084 604.5 1082.5 Q 623 1081 657 1081 L 716 1081 Q 749 1081 767.49994 1082.5 Q 786 1084 795 1093 Q 804 1102 805.5 1121 Q 807 1140 807 1174 L 807 1228 Q 807 1263 805.5 1282 Q 804 1301 795 1310 Q 786 1319 767.49994 1320.5 Q 749 1322 716 1322 L 694 1322 L 794 1535 Z"/>
        </g>
        <g transform="matrix(1 0 0 1 42213 928)">
            <path fill="#000000" stroke="none" d="M 180 -2 L 180 1448 L 428 1448 L 428 902 Q 449 958 508.5 985 Q 568 1012 668 1012 L 996 1012 Q 1064 1012 1112.5 1000.5 Q 1161 989 1192 964 Q 1223 939 1237.5 900.5 Q 1252 862 1252 808 L 1252 204 Q 1252 146 1238 105 Q 1224 64 1193 38 Q 1162 12 1113.5 0 Q 1065 -12 996 -12 L 668 -12 Q 568 -12 508.5 16 Q 449 44 428 100 L 428 -2 L 180 -2 Z M 428 214 L 1004 214 Q 1004 214 1004 214 Q 1004 214 1004 214 L 1004 788 Q 1004 788 1004 788 Q 1004 788 1004 788 L 428 788 L 428 214 Z"/>
        </g>
        <g transform="matrix(1 0 0 1 43607 928)">
            <path fill="#000000" stroke="none" d="M 363 0 L 5 1000 L 260 1000 L 494 326 L 723 1000 L 924 1000 L 1158 329 L 1388 1000 L 1609 1000 L 1248 0 L 1028 0 L 809 631 L 596 0 L 363 0 Z"/>
        </g>
    </g>
</svg>
