<svg width="45221" height="2900" viewBox="0 0 45221 2900" xmlns="http://www.w3.org/2000/svg">
    <defs/>
    <path fill="#000000" stroke="none" transform="matrix(1 0 0 -1 0 1972)" d="M 200 0 L 200 1400 L 464 1400 L 464 852 L 1354 852 L 1354 1400 L 1618 1400 L 1618 0 L 1354 0 L 1354 608 L 464 608 L 464 0 L 200 0 Z"/>
    <path fill="#000000" stroke="none" transform="matrix(1 0 0 -1 1818 1972)" d="M 200 0 L 1458 0 L 1458 244 L 464 244 L 464 596 L 1052 596 L 1052 840 L 464 840 L 464 1156 L 1438 1156 L 1438 1400 L 200 1400 L 200 0 Z"/>
    <path fill="#000000" stroke="none" transform="matrix(1 0 0 -1 3386 1972)" d="M 200 0 L 1372 0 L 1372 244 L 464 244 L 464 1400 L 200 1400 L 200 0 Z"/>
    <path fill="#000000" stroke="none" transform="matrix(1 0 0 -1 4778 1972)" d="M 200 0 L 1372 0 L 1372 244 L 464 244 L 464 1400 L 200 1400 L 200 0 Z"/>
    <path fill="#000000" stroke="none" transform="matrix(1 0 0 -1 6170 1972)" d="M 170 1140 C 170 1197.33333333333 178.33333333333 1244 195 1280 C 211.66666666667 1315.33333333333 235 1343 265 1363 C 295 1383 331 1396.66666666667 373 1404 C 415 1410.66666666667 461.33333333333 1414 512 1414 L 1278 1414 C 1328.66666666667 1414 1375 1410.66666666667 1417 1404 C 1459 1396.66666666667 1495.33333333333 1383 1526 1363 C 1556 1343 1579.66666666667 1315.33333333333 1597 1280 C 1613.66666666667 1244 1622 1197.33333333333 1622 1140 L 1622 272 C 1622 213.33333333333 1614.33333333333 165.33333333333 1599 128 C 1583 90.66666666667 1560.33333333333 61.66666666667 1531 41 C 1501 19.66666666667 1464.66666666667 5.33333333333 1422 -2 C 1379.33333333333 -10 1331.33333333333 -14 1278 -14 L 512 -14 C 458.66666666667 -14 411 -10 369 -2 C 326.33333333333 6 290.33333333333 20.66666666667 261 42 C 231.66666666667 62.66666666667 209.33333333333 91.66666666667 194 129 C 178 165.66666666667 170 213.33333333333 170 272 L 170 1140 Z M 434 1170 L 434 230 L 1358 230 L 1358 1170 L 434 1170 Z"/>
    <path fill="#000000" stroke="none" transform="matrix(1 0 0 -1 8580 1972)" d="M 170 1140 C 170 1189.33333333333 176.33333333333 1231.33333333333 189 1266 C 201.66666666667 1300.66666666667 222 1329 250 1351 C 277.33333333333 1373 312.66666666667 1389 356 1399 C 399.33333333333 1409 451.33333333333 1414 512 1414 L 1218 1414 C 1279.33333333333 1414 1332 1409 1376 1399 C 1419.33333333333 1389 1455 1373 1483 1351 C 1510.33333333333 1329 1530.33333333333 1300.66666666667 1543 1266 C 1555.66666666667 1231.33333333333 1562 1189.33333333333 1562 1140 L 1562 1036 L 1298 980 L 1298 1170 L 434 1170 L 434 230 L 1304 230 L 1304 562 L 864 562 L 864 806 L 1568 806 L 1568 272 C 1568 220.66666666667 1561.66666666667 177 1549 141 C 1536.33333333333 104.33333333333 1516.33333333333 74.66666666667 1489 52 C 1461.66666666667 28.66666666667 1426.33333333333 12 1383 2 C 1339 -8.66666666667 1286 -14 1224 -14 L 512 -14 C 450 -14 397.33333333333 -8.66666666667 354 2 C 310.66666666667 12 275.33333333333 28.66666666667 248 52 C 220.66666666667 74.66666666667 201 104.33333333333 189 141 C 176.33333333333 177 170 220.66666666667 170 272 L 170 1140 Z M 743 1652 C 743 1628.66666666667 743.66666666667 1610.66666666667 745 1598 C 746.33333333333 1584.66666666667 750 1575 756 1569 C 762 1563 771.33333333333 1559.33333333333 784 1558 C 796.66666666667 1556.66666666667 814.66666666667 1556 838 1556 L 902 1556 C 925.33333333333 1556 943.33333333333 1556.66666666667 956 1558 C 968.66666666667 1559.33333333333 978 1563 984 1569 C 990 1575 993.66666666667 1584.66666666667 995 1598 C 996.33333333333 1610.66666666667 997 1628.66666666667 997 1652 L 997 1718 C 997 1741.33333333333 996.33333333333 1759.33333333333 995 1772 C 993.66666666667 1784.66666666667 990 1794 984 1800 C 978 1806 968.66666666667 1809.66666666667 956 1811 C 943.33333333333 1812.33333333333 925.33333333333 1813 902 1813 L 838 1813 C 814.66666666667 1813 796.66666666667 1812.33333333333 784 1811 C 771.33333333333 1809.66666666667 762 1806 756 1800 C 750 1794 746.33333333333 1784.66666666667 745 1772 C 743.66666666667 1759.33333333333 743 1741.33333333333 743 1718 L 743 1652 Z"/>
    <path fill="#000000" stroke="none" transform="matrix(1 0 0 -1 10308 1972)" d="M 200 0 L 200 1400 L 1142 1400 C 1192.66666666667 1400 1239 1396.66666666667 1281 1390 C 1323 1382.66666666667 1359.33333333333 1369 1390 1349 C 1420 1329 1443.66666666667 1301.33333333333 1461 1266 C 1477.66666666667 1230 1486 1183.33333333333 1486 1126 L 1486 805 C 1486 761.66666666667 1479 723.66666666667 1465 691 C 1450.33333333333 658.33333333333 1428.66666666667 631.33333333333 1400 610 C 1371.33333333333 588 1335.66666666667 571.66666666667 1293 561 C 1249.66666666667 550.33333333333 1199.33333333333 545 1142 545 L 1055 545 L 1611 0 L 1256 0 L 701 545 L 464 545 L 464 0 L 200 0 Z M 464 789 L 1116 789 C 1133.33333333333 789 1148.66666666667 790.66666666667 1162 794 C 1175.33333333333 796.66666666667 1186.66666666667 801.66666666667 1196 809 C 1204.66666666667 816.33333333333 1211.33333333333 826.66666666667 1216 840 C 1220 852.66666666667 1222 869 1222 889 L 1222 1056 C 1222 1073.33333333333 1220 1088.33333333333 1216 1101 C 1211.33333333333 1113.66666666667 1204.66666666667 1124 1196 1132 C 1186.66666666667 1140 1175.33333333333 1146 1162 1150 C 1148.66666666667 1154 1133.33333333333 1156 1116 1156 L 464 1156 L 464 789 Z"/>
    <path fill="#000000" stroke="none" transform="matrix(1 0 0 -1 11959 1972)" d="M 20 1400 L 20 1156 L 576 1156 L 576 832 L 433 832 L 433 608 L 576 608 L 576 0 L 840 0 L 840 608 L 983 608 L 983 832 L 840 832 L 840 1156 L 1396 1156 L 1396 1400 L 20 1400 Z"/>
    <path fill="#000000" stroke="none" transform="matrix(1 0 0 -1 13255 1972)" d="M 0 0 L 718 1400 L 926 1400 L 1654 0 L 1342 0 L 1175 326 L 457 326 L 290 0 L 0 0 Z M 580 566 L 1052 566 L 816 1025 L 580 566 Z M 510 1503 L 679 1503 C 679 1529 682 1550.33333333333 688 1567 C 693.33333333333 1583 702 1596 714 1606 C 726 1615.33333333333 741.66666666667 1622 761 1626 C 779.66666666667 1629.33333333333 802.33333333333 1631 829 1631 C 855 1631 877.33333333333 1629.33333333333 896 1626 C 914.66666666667 1622 930 1615.33333333333 942 1606 C 954 1596 963 1583 969 1567 C 974.33333333333 1550.33333333333 977 1529 977 1503 L 1146 1503 C 1146 1541 1143.66666666667 1574.66666666667 1139 1604 C 1134.33333333333 1633.33333333333 1126.66666666667 1659 1116 1681 C 1105.33333333333 1703 1092 1721.66666666667 1076 1737 C 1059.33333333333 1751.66666666667 1039.33333333333 1764 1016 1774 C 992 1783.33333333333 964.66666666667 1790 934 1794 C 903.33333333333 1798 868.33333333333 1800 829 1800 C 769.66666666667 1800 720 1795.33333333333 680 1786 C 639.33333333333 1776 606.33333333333 1759.66666666667 581 1737 C 555.66666666667 1713.66666666667 537.66666666667 1683 527 1645 C 515.66666666667 1607 510 1559.66666666667 510 1503 Z"/>
    <path fill="#000000" stroke="none" transform="matrix(1 0 0 -1 14959 1972)" d="M 0 0 L 718 1400 L 926 1400 L 1654 0 L 1342 0 L 1175 326 L 457 326 L 290 0 L 0 0 Z M 580 566 L 1052 566 L 816 1025 L 580 566 Z M 616 1672 C 616 1714 618.66666666667 1748 624 1774 C 629.33333333333 1799.33333333333 639.66666666667 1819.33333333333 655 1834 C 669.66666666667 1848.66666666667 691 1858.66666666667 719 1864 C 746.33333333333 1868.66666666667 782.66666666667 1871 828 1871 C 873.33333333333 1871 910 1868.66666666667 938 1864 C 965.33333333333 1858.66666666667 986.66666666667 1848.66666666667 1002 1834 C 1016.66666666667 1819.33333333333 1026.66666666667 1799.33333333333 1032 1774 C 1037.33333333333 1748 1040 1714 1040 1672 C 1040 1630 1037.33333333333 1596 1032 1570 C 1026.66666666667 1544 1016.66666666667 1524 1002 1510 C 986.66666666667 1495.33333333333 965.33333333333 1485.33333333333 938 1480 C 910 1474.66666666667 873.33333333333 1472 828 1472 C 782.66666666667 1472 746.33333333333 1474.66666666667 719 1480 C 691 1485.33333333333 669.66666666667 1495.33333333333 655 1510 C 639.66666666667 1524 629.33333333333 1544 624 1570 C 618.66666666667 1596 616 1630 616 1672 Z M 756 1672 C 756 1658 756.66666666667 1646.33333333333 758 1637 C 759.33333333333 1627 762.66666666667 1619 768 1613 C 772.66666666667 1607 780 1602.66666666667 790 1600 C 799.33333333333 1597.33333333333 812 1596 828 1596 C 844 1596 857 1597.33333333333 867 1600 C 876.33333333333 1602.66666666667 883.66666666667 1607 889 1613 C 893.66666666667 1619 896.66666666667 1627 898 1637 C 899.33333333333 1646.33333333333 900 1658 900 1672 C 900 1685.33333333333 899.33333333333 1697 898 1707 C 896.66666666667 1716.33333333333 893.66666666667 1724 889 1730 C 883.66666666667 1736 876.33333333333 1740.33333333333 867 1743 C 857 1745.66666666667 844 1747 828 1747 C 812 1747 799.33333333333 1745.66666666667 790 1743 C 780 1740.33333333333 772.66666666667 1736 768 1730 C 762.66666666667 1724 759.33333333333 1716.33333333333 758 1707 C 756.66666666667 1697 756 1685.33333333333 756 1672 Z M 621 1909 L 875 1909 L 1208 2224 L 908 2224 L 621 1909 Z"/>
    <path fill="#000000" stroke="none" transform="matrix(1 0 0 -1 16543 1972)" d="M 472 0 L 0 1400 L 302 1400 L 593 490 L 898 1400 L 1104 1400 L 1415 484 L 1720 1400 L 1974 1400 L 1494 0 L 1294 0 L 981 901 L 672 0 L 472 0 Z M 683 1610 L 683 1682 C 683 1703.33333333333 683.66666666667 1720 685 1732 C 685.66666666667 1744 689 1753 695 1759 C 701 1764.33333333333 710 1767.66666666667 722 1769 C 734 1769.66666666667 751 1770 773 1770 L 843 1770 C 865 1770 882 1769.66666666667 894 1769 C 906 1767.66666666667 915 1764.33333333333 921 1759 C 927 1753 930.66666666667 1744 932 1732 C 932.66666666667 1720 933 1703.33333333333 933 1682 L 933 1610 C 933 1588 932.66666666667 1571 932 1559 C 930.66666666667 1547 927 1538 921 1532 C 915 1526 906 1522.66666666667 894 1522 C 882 1520.66666666667 865 1520 843 1520 L 773 1520 C 751 1520 734 1520.66666666667 722 1522 C 710 1522.66666666667 701 1526 695 1532 C 689 1538 685.66666666667 1547 685 1559 C 683.66666666667 1571 683 1588 683 1610 Z M 1093 1610 L 1093 1682 C 1093 1703.33333333333 1093.66666666667 1720 1095 1732 C 1095.66666666667 1744 1099 1753 1105 1759 C 1111 1764.33333333333 1120 1767.66666666667 1132 1769 C 1144 1769.66666666667 1161 1770 1183 1770 L 1253 1770 C 1275 1770 1292 1769.66666666667 1304 1769 C 1316 1767.66666666667 1325 1764.33333333333 1331 1759 C 1337 1753 1340.66666666667 1744 1342 1732 C 1342.66666666667 1720 1343 1703.33333333333 1343 1682 L 1343 1610 C 1343 1588 1342.66666666667 1571 1342 1559 C 1340.66666666667 1547 1337 1538 1331 1532 C 1325 1526 1316 1522.66666666667 1304 1522 C 1292 1520.66666666667 1275 1520 1253 1520 L 1183 1520 C 1161 1520 1144 1520.66666666667 1132 1522 C 1120 1522.66666666667 1111 1526 1105 1532 C 1099 1538 1095.66666666667 1547 1095 1559 C 1093.66666666667 1571 1093 1588 1093 1610 Z"/>
    <path fill="#000000" stroke="none" transform="matrix(1 0 0 -1 19135 1972)" d="M 142 252 L 142 194 C 142 152 147.66666666667 118 159 92 C 170.33333333333 65.33333333333 186.66666666667 44.66666666667 208 30 C 228.66666666667 14.66666666667 254 4.33333333333 284 -1 C 314 -7 348 -10 386 -10 L 890 -10 C 928.66666666667 -10 963.33333333333 -7 994 -1 C 1024 4.33333333333 1049.66666666667 14.66666666667 1071 30 C 1091.66666666667 44.66666666667 1107.66666666667 65.33333333333 1119 92 C 1130.33333333333 118 1136 152 1136 194 L 1136 414 C 1136 455.33333333333 1130 489 1118 515 C 1106 540.33333333333 1089.33333333333 560 1068 574 C 1046 588 1020 597.66666666667 990 603 C 960 607.66666666667 926.66666666667 610 890 610 L 384 610 L 384 806 L 902 806 L 902 716 L 1122 760 L 1122 814 C 1122 854.66666666667 1116 887.66666666667 1104 913 C 1092 938.33333333333 1075.33333333333 958.33333333333 1054 973 C 1032 987 1006 996.66666666667 976 1002 C 946 1007.33333333333 912.66666666667 1010 876 1010 L 408 1010 C 372 1010 339 1007.33333333333 309 1002 C 279 996.66666666667 253.33333333333 987 232 973 C 210.66666666667 958.33333333333 194 938.33333333333 182 913 C 170 887.66666666667 164 854.66666666667 164 814 L 164 606 C 164 564 169.66666666667 529.66666666667 181 503 C 192.33333333333 476.33333333333 208.66666666667 455.33333333333 230 440 C 250.66666666667 424.66666666667 276 414.33333333333 306 409 C 336 403 370 400 408 400 L 916 400 L 916 194 L 362 194 L 362 298 L 142 252 Z"/>
    <path fill="#000000" stroke="none" transform="matrix(1 0 0 -1 20413 1972)" d="M 152 204 C 152 165.33333333333 156.66666666667 132.66666666667 166 106 C 175.33333333333 78.66666666667 190.33333333333 56.66666666667 211 40 C 231.66666666667 22.66666666667 258.33333333333 10 291 2 C 323 -6 362 -10 408 -10 L 746 -10 C 812.66666666667 -10 866 -1 906 17 C 945.33333333333 35 972 62.66666666667 986 100 L 986 -428 L 1234 -428 L 1234 1000 L 986 1000 L 986 900 C 972 937.33333333333 945.33333333333 965 906 983 C 866 1001 812.66666666667 1010 746 1010 L 408 1010 C 362.66666666667 1010 324 1006.33333333333 292 999 C 259.33333333333 991 232.66666666667 978.66666666667 212 962 C 191.33333333333 945.33333333333 176.33333333333 924.33333333333 167 899 C 157 873 152 842 152 806 L 152 204 Z M 400 214 L 400 786 L 986 786 L 986 214 L 400 214 Z"/>
    <path fill="#000000" stroke="none" transform="matrix(1 0 0 -1 21827 1972)" d="M 166 194 C 166 152 171.66666666667 118 183 92 C 194.33333333333 65.33333333333 210.66666666667 44.66666666667 232 30 C 252.66666666667 14.66666666667 278 4.33333333333 308 -1 C 338 -7 372 -10 410 -10 L 952 -10 C 990 -10 1024.33333333333 -7 1055 -1 C 1085 4.33333333333 1110.66666666667 14.66666666667 1132 30 C 1153.33333333333 44.66666666667 1169.66666666667 65.33333333333 1181 92 C 1192.33333333333 118 1198 152 1198 194 L 1198 1000 L 950 1000 L 950 214 L 414 214 L 414 1000 L 166 1000 L 166 194 Z"/>
    <path fill="#000000" stroke="none" transform="matrix(1 0 0 -1 23191 1972)" d="M 388 -10 L 672 -10 C 702 -10 731 -7.33333333333 759 -2 C 787 3.33333333333 812.66666666667 12.33333333333 836 25 C 858.66666666667 37 878.66666666667 53.33333333333 896 74 C 912.66666666667 94 925.33333333333 119.33333333333 934 150 L 934 0 L 1182 0 L 1182 814 C 1182 855.33333333333 1176 888.66666666667 1164 914 C 1152 939.33333333333 1135.33333333333 959.33333333333 1114 974 C 1092 988 1066 997.66666666667 1036 1003 C 1006 1007.66666666667 972.66666666667 1010 936 1010 L 402 1010 C 365.33333333333 1010 332 1007.66666666667 302 1003 C 272 997.66666666667 246.33333333333 988 225 974 C 203 959.33333333333 186 939.33333333333 174 914 C 162 888.66666666667 156 855.33333333333 156 814 L 156 764 L 404 718 L 404 806 L 934 806 L 934 598 L 428 598 C 391.33333333333 598 356 595.66666666667 322 591 C 287.33333333333 586.33333333333 256.66666666667 577 230 563 C 203.33333333333 549 182 529.33333333333 166 504 C 150 478.66666666667 142 445.33333333333 142 404 L 142 194 C 142 152 147.66666666667 118 159 92 C 170.33333333333 65.33333333333 186.66666666667 44.66666666667 208 30 C 228.66666666667 14.66666666667 254.33333333333 4.33333333333 285 -1 C 315 -7 349.33333333333 -10 388 -10 Z M 390 194 L 390 394 L 934 394 L 934 194 L 390 194 Z"/>
    <path fill="#000000" stroke="none" transform="matrix(1 0 0 -1 24539 1972)" d="M 180 0 L 428 0 L 428 786 L 834 786 L 834 654 L 1082 701 L 1082 760 C 1082 804.66666666667 1076 843 1064 875 C 1052 906.33333333333 1033.33333333333 932 1008 952 C 982 972 949 986.66666666667 909 996 C 869 1005.33333333333 820.66666666667 1010 764 1010 L 710 1010 C 631.33333333333 1010 569.66666666667 1001.33333333333 525 984 C 480.33333333333 966 448 940 428 906 L 428 1000 L 180 1000 L 180 0 Z"/>
    <path fill="#000000" stroke="none" transform="matrix(1 0 0 -1 25681 1972)" d="M 152 250 C 152 203.33333333333 158.33333333333 163.66666666667 171 131 C 183 97.66666666667 201.33333333333 70.66666666667 226 50 C 250.66666666667 28.66666666667 281.66666666667 13.33333333333 319 4 C 356.33333333333 -5.33333333333 400 -10 450 -10 L 906 -10 C 963.33333333333 -10 1012 -5 1052 5 C 1092 14.33333333333 1125 29.66666666667 1151 51 C 1176.33333333333 71.66666666667 1195 98.33333333333 1207 131 C 1218.33333333333 163.66666666667 1224 203.33333333333 1224 250 L 1224 260 L 976 304 L 976 194 L 400 194 L 400 402 L 1224 402 L 1224 786 C 1224 822 1218.33333333333 854 1207 882 C 1195.66666666667 910 1178.66666666667 933.66666666667 1156 953 C 1133.33333333333 971.66666666667 1105 986 1071 996 C 1037 1005.33333333333 997.33333333333 1010 952 1010 L 422 1010 C 376.66666666667 1010 337 1005.33333333333 303 996 C 269 986 241 971.66666666667 219 953 C 196.33333333333 934.33333333333 179.66666666667 911.33333333333 169 884 C 157.66666666667 856.66666666667 152 825.33333333333 152 790 L 152 250 Z M 400 606 L 400 806 L 976 806 L 976 606 L 400 606 Z"/>
    <path fill="#000000" stroke="none" transform="matrix(1 0 0 -1 27675 1972)" d="M 152 204 C 152 165.33333333333 156.66666666667 132.66666666667 166 106 C 175.33333333333 78.66666666667 190.33333333333 56.66666666667 211 40 C 231.66666666667 22.66666666667 258.33333333333 10 291 2 C 323 -6 362 -10 408 -10 L 988 -10 C 1034.66666666667 -10 1074.33333333333 -6 1107 2 C 1139 10 1165.33333333333 22.66666666667 1186 40 C 1206 56.66666666667 1220.66666666667 78.66666666667 1230 106 C 1239.33333333333 132.66666666667 1244 165.33333333333 1244 204 L 1244 806 C 1244 878 1224.33333333333 930 1185 962 C 1145 994 1079.33333333333 1010 988 1010 L 408 1010 C 362.66666666667 1010 324 1006.33333333333 292 999 C 259.33333333333 991 232.66666666667 978.66666666667 212 962 C 191.33333333333 945.33333333333 176.33333333333 924.33333333333 167 899 C 157 873 152 842 152 806 L 152 204 Z M 400 214 L 400 786 L 996 786 L 996 214 L 400 214 Z M 796 0 L 600 0 C 573.33333333333 -11.33333333333 549.33333333333 -25.33333333333 528 -42 C 506 -58.66666666667 487.33333333333 -77 472 -97 C 456.66666666667 -117.66666666667 445 -139.66666666667 437 -163 C 428.33333333333 -186.33333333333 424 -210.33333333333 424 -235 C 424 -263.66666666667 429.66666666667 -289.66666666667 441 -313 C 452.33333333333 -337 468.66666666667 -357.33333333333 490 -374 C 510.66666666667 -391.33333333333 535.66666666667 -404.66666666667 565 -414 C 594.33333333333 -423.33333333333 626.66666666667 -428 662 -428 C 677.33333333333 -428 692.33333333333 -427 707 -425 C 721.66666666667 -423.66666666667 736.33333333333 -421.33333333333 751 -418 C 765.66666666667 -414.66666666667 780 -410.33333333333 794 -405 C 808 -400.33333333333 821.66666666667 -394.66666666667 835 -388 L 873 -209 C 863.66666666667 -214.33333333333 854.33333333333 -218.66666666667 845 -222 C 835 -226 825.33333333333 -229 816 -231 C 806 -233.66666666667 796.33333333333 -235.66666666667 787 -237 C 777 -238.33333333333 767.33333333333 -239 758 -239 C 739.33333333333 -239 722.66666666667 -236.66666666667 708 -232 C 693.33333333333 -228 681 -221.66666666667 671 -213 C 660.33333333333 -205 652.33333333333 -195 647 -183 C 641 -171.66666666667 638 -159 638 -145 C 638 -127.66666666667 642 -111 650 -95 C 658 -79.66666666667 669 -65.33333333333 683 -52 C 697 -39.33333333333 713.66666666667 -28.33333333333 733 -19 C 752.33333333333 -10.33333333333 773.33333333333 -4 796 0 Z"/>
    <path fill="#000000" stroke="none" transform="matrix(1 0 0 -1 29071 1972)" d="M 180 -428 L 428 -428 L 428 100 C 442 62.66666666667 469 35 509 17 C 548.33333333333 -1 601.33333333333 -10 668 -10 L 1006 -10 C 1051.33333333333 -10 1090.33333333333 -6 1123 2 C 1155 9.33333333333 1181.33333333333 21.33333333333 1202 38 C 1222.66666666667 54.66666666667 1238 76 1248 102 C 1257.33333333333 127.33333333333 1262 158 1262 194 L 1262 796 C 1262 834.66666666667 1257.33333333333 867.66666666667 1248 895 C 1238.66666666667 921.66666666667 1223.66666666667 943.66666666667 1203 961 C 1182.33333333333 977.66666666667 1156 990 1124 998 C 1091.33333333333 1006 1052 1010 1006 1010 L 668 1010 C 601.33333333333 1010 548.33333333333 1001 509 983 C 469 965 442 937.33333333333 428 900 L 428 1000 L 180 1000 L 180 -428 Z M 428 214 L 428 786 L 1014 786 L 1014 214 L 428 214 Z"/>
    <path fill="#000000" stroke="none" transform="matrix(1 0 0 -1 30485 1972)" d="M 215 204 C 215 165.33333333333 219.66666666667 132.66666666667 229 106 C 238.33333333333 78.66666666667 253.33333333333 56.66666666667 274 40 C 294.66666666667 22.66666666667 321.33333333333 10 354 2 C 386 -6 425 -10 471 -10 L 1051 -10 C 1097.66666666667 -10 1137.33333333333 -6 1170 2 C 1202 10 1228.33333333333 22.66666666667 1249 40 C 1269 56.66666666667 1283.66666666667 78.66666666667 1293 106 C 1302.33333333333 132.66666666667 1307 165.33333333333 1307 204 L 1307 806 C 1307 878 1287.33333333333 930 1248 962 C 1208 994 1142.33333333333 1010 1051 1010 L 471 1010 C 425.66666666667 1010 387 1006.33333333333 355 999 C 322.33333333333 991 295.66666666667 978.66666666667 275 962 C 254.33333333333 945.33333333333 239.33333333333 924.33333333333 230 899 C 220 873 215 842 215 806 L 215 204 Z M 463 214 L 463 786 L 1059 786 L 1059 214 L 463 214 Z M 260 -60 L 451 113 L 457 119 L 1152 743 L 1370 940 L 1262 1060 L 1047 866 L 1046 865 L 354 242 L 350 238 L 152 60 L 260 -60 Z"/>
    <path fill="#000000" stroke="none" transform="matrix(1 0 0 -1 32007 1972)" d="M 388 -10 L 672 -10 C 702 -10 731 -7.33333333333 759 -2 C 787 3.33333333333 812.66666666667 12.33333333333 836 25 C 858.66666666667 37 878.66666666667 53.33333333333 896 74 C 912.66666666667 94 925.33333333333 119.33333333333 934 150 L 934 0 L 1182 0 L 1182 814 C 1182 855.33333333333 1176 888.66666666667 1164 914 C 1152 939.33333333333 1135.33333333333 959.33333333333 1114 974 C 1092 988 1066 997.66666666667 1036 1003 C 1006 1007.66666666667 972.66666666667 1010 936 1010 L 402 1010 C 365.33333333333 1010 332 1007.66666666667 302 1003 C 272 997.66666666667 246.33333333333 988 225 974 C 203 959.33333333333 186 939.33333333333 174 914 C 162 888.66666666667 156 855.33333333333 156 814 L 156 764 L 404 718 L 404 806 L 934 806 L 934 598 L 428 598 C 391.33333333333 598 356 595.66666666667 322 591 C 287.33333333333 586.33333333333 256.66666666667 577 230 563 C 203.33333333333 549 182 529.33333333333 166 504 C 150 478.66666666667 142 445.33333333333 142 404 L 142 194 C 142 152 147.66666666667 118 159 92 C 170.33333333333 65.33333333333 186.66666666667 44.66666666667 208 30 C 228.66666666667 14.66666666667 254.33333333333 4.33333333333 285 -1 C 315 -7 349.33333333333 -10 388 -10 Z M 390 194 L 390 394 L 934 394 L 934 194 L 390 194 Z M 473 1267 C 473 1306.33333333333 475.33333333333 1338.33333333333 480 1363 C 484.66666666667 1387 494.33333333333 1406 509 1420 C 523 1433.33333333333 543 1442.33333333333 569 1447 C 595 1451.66666666667 629.33333333333 1454 672 1454 C 714 1454 748 1451.66666666667 774 1447 C 800 1442.33333333333 820.33333333333 1433.33333333333 835 1420 C 849 1406 858.66666666667 1387 864 1363 C 868.66666666667 1338.33333333333 871 1306.33333333333 871 1267 C 871 1227.66666666667 868.66666666667 1196 864 1172 C 858.66666666667 1147.33333333333 849 1128.33333333333 835 1115 C 820.33333333333 1101 800 1091.66666666667 774 1087 C 748 1081.66666666667 714 1079 672 1079 C 629.33333333333 1079 595 1081.66666666667 569 1087 C 543 1091.66666666667 523 1101 509 1115 C 494.33333333333 1128.33333333333 484.66666666667 1147.33333333333 480 1172 C 475.33333333333 1196 473 1227.66666666667 473 1267 Z M 600 1267 C 600 1253 600.66666666667 1241.33333333333 602 1232 C 603.33333333333 1222 606.66666666667 1214 612 1208 C 616.66666666667 1202 624 1197.66666666667 634 1195 C 643.33333333333 1192.33333333333 656 1191 672 1191 C 688 1191 701 1192.33333333333 711 1195 C 720.33333333333 1197.66666666667 727.66666666667 1202 733 1208 C 737.66666666667 1214 740.66666666667 1222 742 1232 C 743.33333333333 1241.33333333333 744 1253 744 1267 C 744 1280.33333333333 743.33333333333 1292 742 1302 C 740.66666666667 1311.33333333333 737.66666666667 1319 733 1325 C 727.66666666667 1331 720.33333333333 1335.33333333333 711 1338 C 701 1340.66666666667 688 1342 672 1342 C 656 1342 643.33333333333 1340.66666666667 634 1338 C 624 1335.33333333333 616.66666666667 1331 612 1325 C 606.66666666667 1319 603.33333333333 1311.33333333333 602 1302 C 600.66666666667 1292 600 1280.33333333333 600 1267 Z"/>
    <path fill="#000000" stroke="none" transform="matrix(1 0 0 -1 33355 1972)" d="M 400 214 L 986 214 L 986 786 L 400 786 L 400 214 Z M 218 -428 L 172 -204 L 986 -204 L 986 100 C 972 62.66666666667 945.33333333333 35 906 17 C 866 -1 812.66666666667 -10 746 -10 L 408 -10 C 362 -10 323 -6 291 2 C 258.33333333333 10 231.66666666667 22.66666666667 211 40 C 190.33333333333 56.66666666667 175.33333333333 78.66666666667 166 106 C 156.66666666667 132.66666666667 152 165.33333333333 152 204 L 152 806 C 152 842 157 873 167 899 C 176.33333333333 924.33333333333 191.33333333333 945.33333333333 212 962 C 232.66666666667 978.66666666667 259.33333333333 991 292 999 C 324 1006.33333333333 362.66666666667 1010 408 1010 L 746 1010 C 812.66666666667 1010 866 1001 906 983 C 945.33333333333 965 972 937.33333333333 986 900 L 986 1000 L 1234 1000 L 1234 -174 C 1234 -232 1228.33333333333 -277.66666666667 1217 -311 C 1205 -345 1186.66666666667 -370.66666666667 1162 -388 C 1136.66666666667 -405.33333333333 1104.33333333333 -416.33333333333 1065 -421 C 1025 -425.66666666667 976.66666666667 -428 920 -428 L 218 -428 Z M 303 1085 L 523 1085 L 684 1305 L 844 1085 L 1070 1085 L 768 1448 L 607 1448 L 303 1085 Z"/>
    <path fill="#000000" stroke="none" transform="matrix(1 0 0 -1 34755 1972)" d="M 408 -10 C 362 -10 323 -6 291 2 C 258.33333333333 10 231.66666666667 22.66666666667 211 40 C 190.33333333333 56.66666666667 175.33333333333 78.66666666667 166 106 C 156.66666666667 132.66666666667 152 165.33333333333 152 204 L 152 806 C 152 842 157 873 167 899 C 176.33333333333 924.33333333333 191.33333333333 945.33333333333 212 962 C 232.66666666667 978.66666666667 259.33333333333 991 292 999 C 324 1006.33333333333 362.66666666667 1010 408 1010 L 890 1010 C 872.66666666667 1040 853.33333333333 1068 832 1094 C 810.66666666667 1120 787.33333333333 1144.66666666667 762 1168 L 433 1079 L 399 1205 L 628 1267 C 586 1291.66666666667 541.33333333333 1313.66666666667 494 1333 C 446.66666666667 1352.33333333333 396.33333333333 1369.33333333333 343 1384 L 583 1458 C 639.66666666667 1445.33333333333 693.66666666667 1429.33333333333 745 1410 C 795.66666666667 1390 843.66666666667 1366 889 1338 L 1207 1424 L 1241 1298 L 1017 1237 C 1052.33333333333 1202.33333333333 1084 1163 1112 1119 C 1140 1075 1163.66666666667 1026 1183 972 C 1202.33333333333 918 1217.33333333333 858.66666666667 1228 794 C 1238.66666666667 729.33333333333 1244 658.33333333333 1244 581 L 1244 204 C 1244 165.33333333333 1239.33333333333 132.66666666667 1230 106 C 1220.66666666667 78.66666666667 1206 56.66666666667 1186 40 C 1165.33333333333 22.66666666667 1139 10 1107 2 C 1074.33333333333 -6 1034.66666666667 -10 988 -10 L 408 -10 Z M 976 786 L 400 786 L 400 214 L 996 214 L 996 581 C 996 618.33333333333 994.33333333333 654 991 688 C 987.66666666667 721.33333333333 982.66666666667 754 976 786 Z"/>
    <path fill="#000000" stroke="none" transform="matrix(1 0 0 -1 36769 1972)" d="M 388 -10 L 672 -10 C 702 -10 731 -7.33333333333 759 -2 C 787 3.33333333333 812.66666666667 12.33333333333 836 25 C 858.66666666667 37 878.66666666667 53.33333333333 896 74 C 912.66666666667 94 925.33333333333 119.33333333333 934 150 L 934 0 L 1182 0 L 1182 814 C 1182 855.33333333333 1176 888.66666666667 1164 914 C 1152 939.33333333333 1135.33333333333 959.33333333333 1114 974 C 1092 988 1066 997.66666666667 1036 1003 C 1006 1007.66666666667 972.66666666667 1010 936 1010 L 402 1010 C 365.33333333333 1010 332 1007.66666666667 302 1003 C 272 997.66666666667 246.33333333333 988 225 974 C 203 959.33333333333 186 939.33333333333 174 914 C 162 888.66666666667 156 855.33333333333 156 814 L 156 764 L 404 718 L 404 806 L 934 806 L 934 598 L 428 598 C 391.33333333333 598 356 595.66666666667 322 591 C 287.33333333333 586.33333333333 256.66666666667 577 230 563 C 203.33333333333 549 182 529.33333333333 166 504 C 150 478.66666666667 142 445.33333333333 142 404 L 142 194 C 142 152 147.66666666667 118 159 92 C 170.33333333333 65.33333333333 186.66666666667 44.66666666667 208 30 C 228.66666666667 14.66666666667 254.33333333333 4.33333333333 285 -1 C 315 -7 349.33333333333 -10 388 -10 Z M 390 194 L 390 394 L 934 394 L 934 194 L 390 194 Z M 1130 0 L 934 0 C 907.33333333333 -11.33333333333 883.33333333333 -25.33333333333 862 -42 C 840 -58.66666666667 821.33333333333 -77 806 -97 C 790.66666666667 -117.66666666667 779 -139.66666666667 771 -163 C 762.33333333333 -186.33333333333 758 -210.33333333333 758 -235 C 758 -263.66666666667 763.66666666667 -289.66666666667 775 -313 C 786.33333333333 -337 802.66666666667 -357.33333333333 824 -374 C 844.66666666667 -391.33333333333 869.66666666667 -404.66666666667 899 -414 C 928.33333333333 -423.33333333333 960.66666666667 -428 996 -428 C 1011.33333333333 -428 1026.33333333333 -427 1041 -425 C 1055.66666666667 -423.66666666667 1070.33333333333 -421.33333333333 1085 -418 C 1099.66666666667 -414.66666666667 1114 -410.33333333333 1128 -405 C 1142 -400.33333333333 1155.66666666667 -394.66666666667 1169 -388 L 1207 -209 C 1197.66666666667 -214.33333333333 1188.33333333333 -218.66666666667 1179 -222 C 1169 -226 1159.33333333333 -229 1150 -231 C 1140 -233.66666666667 1130.33333333333 -235.66666666667 1121 -237 C 1111 -238.33333333333 1101.33333333333 -239 1092 -239 C 1073.33333333333 -239 1056.66666666667 -236.66666666667 1042 -232 C 1027.33333333333 -228 1015 -221.66666666667 1005 -213 C 994.33333333333 -205 986.33333333333 -195 981 -183 C 975 -171.66666666667 972 -159 972 -145 C 972 -127.66666666667 976 -111 984 -95 C 992 -79.66666666667 1003 -65.33333333333 1017 -52 C 1031 -39.33333333333 1047.66666666667 -28.33333333333 1067 -19 C 1086.33333333333 -10.33333333333 1107.33333333333 -4 1130 0 Z"/>
    <path fill="#000000" stroke="none" transform="matrix(1 0 0 -1 38117 1972)" d="M 388 -10 L 672 -10 C 702 -10 731 -7.33333333333 759 -2 C 787 3.33333333333 812.66666666667 12.33333333333 836 25 C 858.66666666667 37 878.66666666667 53.33333333333 896 74 C 912.66666666667 94 925.33333333333 119.33333333333 934 150 L 934 0 L 1182 0 L 1182 814 C 1182 855.33333333333 1176 888.66666666667 1164 914 C 1152 939.33333333333 1135.33333333333 959.33333333333 1114 974 C 1092 988 1066 997.66666666667 1036 1003 C 1006 1007.66666666667 972.66666666667 1010 936 1010 L 402 1010 C 365.33333333333 1010 332 1007.66666666667 302 1003 C 272 997.66666666667 246.33333333333 988 225 974 C 203 959.33333333333 186 939.33333333333 174 914 C 162 888.66666666667 156 855.33333333333 156 814 L 156 764 L 404 718 L 404 806 L 934 806 L 934 598 L 428 598 C 391.33333333333 598 356 595.66666666667 322 591 C 287.33333333333 586.33333333333 256.66666666667 577 230 563 C 203.33333333333 549 182 529.33333333333 166 504 C 150 478.66666666667 142 445.33333333333 142 404 L 142 194 C 142 152 147.66666666667 118 159 92 C 170.33333333333 65.33333333333 186.66666666667 44.66666666667 208 30 C 228.66666666667 14.66666666667 254.33333333333 4.33333333333 285 -1 C 315 -7 349.33333333333 -10 388 -10 Z M 390 194 L 390 394 L 934 394 L 934 194 L 390 194 Z M 289 1085 L 509 1085 L 670 1305 L 830 1085 L 1056 1085 L 754 1448 L 593 1448 L 289 1085 Z M 542 -190 L 542 -252 C 542 -273.33333333333 542.66666666667 -290 544 -302 C 544.66666666667 -314 548 -322.66666666667 554 -328 C 560 -334 569 -337.33333333333 581 -338 C 593 -339.33333333333 610 -340 632 -340 L 692 -340 C 714 -340 731 -339.33333333333 743 -338 C 755 -337.33333333333 764 -334 770 -328 C 776 -322.66666666667 779.66666666667 -314 781 -302 C 781.66666666667 -290 782 -273.33333333333 782 -252 L 782 -190 C 782 -168.66666666667 781.66666666667 -152 781 -140 C 779.66666666667 -128 776 -119 770 -113 C 764 -107.66666666667 755 -104.33333333333 743 -103 C 731 -102.33333333333 714 -102 692 -102 L 632 -102 C 610 -102 593 -102.33333333333 581 -103 C 569 -104.33333333333 560 -107.66666666667 554 -113 C 548 -119 544.66666666667 -128 544 -140 C 542.66666666667 -152 542 -168.66666666667 542 -190 Z"/>
    <path fill="#000000" stroke="none" transform="matrix(1 0 0 -1 39465 1972)" d="M 388 -10 L 672 -10 C 702 -10 731 -7.33333333333 759 -2 C 787 3.33333333333 812.66666666667 12.33333333333 836 25 C 858.66666666667 37 878.66666666667 53.33333333333 896 74 C 912.66666666667 94 925.33333333333 119.33333333333 934 150 L 934 0 L 1182 0 L 1182 814 C 1182 855.33333333333 1176 888.66666666667 1164 914 C 1152 939.33333333333 1135.33333333333 959.33333333333 1114 974 C 1092 988 1066 997.66666666667 1036 1003 C 1006 1007.66666666667 972.66666666667 1010 936 1010 L 402 1010 C 365.33333333333 1010 332 1007.66666666667 302 1003 C 272 997.66666666667 246.33333333333 988 225 974 C 203 959.33333333333 186 939.33333333333 174 914 C 162 888.66666666667 156 855.33333333333 156 814 L 156 764 L 404 718 L 404 806 L 934 806 L 934 598 L 428 598 C 391.33333333333 598 356 595.66666666667 322 591 C 287.33333333333 586.33333333333 256.66666666667 577 230 563 C 203.33333333333 549 182 529.33333333333 166 504 C 150 478.66666666667 142 445.33333333333 142 404 L 142 194 C 142 152 147.66666666667 118 159 92 C 170.33333333333 65.33333333333 186.66666666667 44.66666666667 208 30 C 228.66666666667 14.66666666667 254.33333333333 4.33333333333 285 -1 C 315 -7 349.33333333333 -10 388 -10 Z M 390 194 L 390 394 L 934 394 L 934 194 L 390 194 Z"/>
    <path fill="#000000" stroke="none" transform="matrix(1 0 0 -1 40813 1972)" d="M 400 214 L 986 214 L 986 786 L 400 786 L 400 214 Z M 218 -428 L 172 -204 L 986 -204 L 986 100 C 972 62.66666666667 945.33333333333 35 906 17 C 866 -1 812.66666666667 -10 746 -10 L 408 -10 C 362 -10 323 -6 291 2 C 258.33333333333 10 231.66666666667 22.66666666667 211 40 C 190.33333333333 56.66666666667 175.33333333333 78.66666666667 166 106 C 156.66666666667 132.66666666667 152 165.33333333333 152 204 L 152 806 C 152 842 157 873 167 899 C 176.33333333333 924.33333333333 191.33333333333 945.33333333333 212 962 C 232.66666666667 978.66666666667 259.33333333333 991 292 999 C 324 1006.33333333333 362.66666666667 1010 408 1010 L 746 1010 C 812.66666666667 1010 866 1001 906 983 C 945.33333333333 965 972 937.33333333333 986 900 L 986 1000 L 1234 1000 L 1234 -174 C 1234 -232 1228.33333333333 -277.66666666667 1217 -311 C 1205 -345 1186.66666666667 -370.66666666667 1162 -388 C 1136.66666666667 -405.33333333333 1104.33333333333 -416.33333333333 1065 -421 C 1025 -425.66666666667 976.66666666667 -428 920 -428 L 218 -428 Z M 794 1535 L 723 1560 L 578 1313 C 572.66666666667 1304.33333333333 569.33333333333 1293 568 1279 C 566 1265 565 1248 565 1228 L 565 1174 C 565 1151.33333333333 565.66666666667 1133.66666666667 567 1121 C 567.66666666667 1108.33333333333 571 1099 577 1093 C 583 1087 592.33333333333 1083.66666666667 605 1083 C 617 1081.66666666667 634.33333333333 1081 657 1081 L 716 1081 C 738 1081 755.33333333333 1081.66666666667 768 1083 C 780 1083.66666666667 789 1087 795 1093 C 801 1099 804.66666666667 1108.33333333333 806 1121 C 806.66666666667 1133.66666666667 807 1151.33333333333 807 1174 L 807 1228 C 807 1251.33333333333 806.66666666667 1269.33333333333 806 1282 C 804.66666666667 1294.66666666667 801 1304 795 1310 C 789 1316 780 1319.66666666667 768 1321 C 755.33333333333 1321.66666666667 738 1322 716 1322 L 694 1322 L 794 1535 Z"/>
    <path fill="#000000" stroke="none" transform="matrix(1 0 0 -1 42213 1972)" d="M 180 -2 L 180 1448 L 428 1448 L 428 902 C 442 939.33333333333 469 967 509 985 C 548.33333333333 1003 601.33333333333 1012 668 1012 L 996 1012 C 1041.33333333333 1012 1080.33333333333 1008.33333333333 1113 1001 C 1145 993 1171.33333333333 980.66666666667 1192 964 C 1212.66666666667 947.33333333333 1228 926.33333333333 1238 901 C 1247.33333333333 875 1252 844 1252 808 L 1252 204 C 1252 165.33333333333 1247.33333333333 132.33333333333 1238 105 C 1228.66666666667 77.66666666667 1213.66666666667 55.33333333333 1193 38 C 1172.33333333333 20.66666666667 1146 8 1114 0 C 1081.33333333333 -8 1042 -12 996 -12 L 668 -12 C 601.33333333333 -12 548.33333333333 -2.66666666667 509 16 C 469 34.66666666667 442 62.66666666667 428 100 L 428 -2 L 180 -2 Z M 428 214 L 1004 214 L 1004 788 L 428 788 L 428 214 Z"/>
    <path fill="#000000" stroke="none" transform="matrix(1 0 0 -1 43607 1972)" d="M 363 0 L 5 1000 L 260 1000 L 494 326 L 723 1000 L 924 1000 L 1158 329 L 1388 1000 L 1609 1000 L 1248 0 L 1028 0 L 809 631 L 596 0 L 363 0 Z"/>
</svg>
