<svg width="26781" height="3047" viewBox="0 0 26781 3047" xmlns="http://www.w3.org/2000/svg">
    <defs/>
    <g transform="matrix(1 0 0 -1 0 3047)">
        <g transform="matrix(1 0 0 1 0 955)">
            <path fill="#000000" stroke="none" d="M 227 0 Q 134 0 66 66 Q 0 134 0 227 L 0 1592 Q 0 1686 66 1753 Q 133 1820 227 1820 L 455 1820 Q 549 1820 616 1753 Q 682 1687 682 1592 L 682 227 Q 682 133 615 66 Q 549 0 455 0 L 455 -227 L 227 -227 L 227 0 Z M 227 341 Q 227 295 260 260 Q 295 227 341 227 Q 388 227 421 260 Q 455 294 455 341 L 455 1251 Q 455 1298 421 1332 Q 392 1361 352 1364 L 330 1364 Q 291 1361 260 1332 Q 227 1298 227 1251 L 227 341 Z"/>
        </g>
        <g transform="matrix(1 0 0 1 796 955)">
            <path fill="#000000" stroke="none" d="M 227 341 Q 227 295 260 260 Q 295 227 341 227 Q 388 227 421 260 Q 455 294 455 341 L 455 1820 L 682 1820 L 682 227 Q 682 133 615 66 Q 549 0 455 0 L 227 0 Q 134 0 66 66 Q 0 134 0 227 L 0 1820 L 227 1820 L 227 341 Z"/>
        </g>
        <g transform="matrix(1 0 0 1 1592 955)">
            <path fill="#000000" stroke="none" d="M 227 341 Q 227 295 260 260 Q 295 227 341 227 L 682 227 L 682 0 L 227 0 Q 134 0 66 66 Q 0 134 0 227 L 0 1592 Q 0 1687 66 1753 Q 133 1820 227 1820 L 682 1820 L 682 1365 L 341 1365 Q 295 1365 260 1332 Q 227 1298 227 1251 L 227 910 L 682 910 L 682 682 L 227 682 L 227 341 Z"/>
        </g>
        <g transform="matrix(1 0 0 1 2388 955)">
            <path fill="#000000" stroke="none" d="M 0 227 L 341 227 Q 388 227 421 260 Q 455 294 455 341 L 455 568 Q 455 615 421 649 Q 388 682 341 682 L 227 682 Q 133 682 66 749 Q 0 815 0 910 L 0 1592 Q 0 1686 66 1753 Q 133 1820 227 1820 L 682 1820 L 682 1365 L 455 1365 L 455 1364 L 330 1364 Q 291 1361 260 1332 Q 227 1298 227 1251 L 227 1024 Q 227 976 260 943 Q 295 910 341 910 L 455 910 Q 549 910 615 843 Q 682 777 682 682 L 682 227 Q 682 133 615 66 Q 549 0 455 0 L 0 0 L 0 227 Z"/>
        </g>
        <g transform="matrix(1 0 0 1 3184 955)">
            <path fill="#000000" stroke="none" d="M 455 0 L 227 0 L 227 1365 L 0 1365 L 0 1820 L 682 1820 L 682 1365 L 455 1365 L 455 0 Z"/>
        </g>
        <g transform="matrix(1 0 0 1 4321 955)">
            <path fill="#000000" stroke="none" d="M 226 341 Q 226 295 259 260 Q 294 227 340 227 L 681 227 L 681 0 L 226 0 Q 133 0 65 66 Q -1 134 -1 227 L -1 1592 Q -1 1687 65 1753 Q 132 1820 226 1820 L 681 1820 L 681 1365 L 340 1365 Q 294 1365 259 1332 Q 226 1298 226 1251 L 226 341 Z"/>
        </g>
        <g transform="matrix(1 0 0 1 5117 955)">
            <path fill="#000000" stroke="none" d="M 910 227 Q 910 133 843 66 Q 777 0 682 0 L 227 0 L 227 1592 L 0 1592 L 0 1820 L 455 1820 L 455 910 L 682 910 Q 777 910 843 843 Q 910 776 910 682 L 910 227 Z M 455 227 L 568 227 Q 615 227 649 260 Q 682 295 682 341 L 682 568 Q 682 615 649 649 Q 615 682 568 682 L 455 682 L 455 227 Z"/>
        </g>
        <g transform="matrix(1 0 0 1 6141 955)">
            <path fill="#000000" stroke="none" d="M 226 0 L -1 0 L -1 1820 L 454 1820 Q 548 1820 615 1753 Q 681 1687 681 1592 L 681 910 Q 681 816 614 749 Q 548 682 454 682 L 226 682 L 226 0 Z M 226 910 L 340 910 Q 387 910 420 943 Q 454 976 454 1024 L 454 1251 Q 454 1298 420 1332 Q 387 1365 340 1365 L 226 1365 L 226 910 Z"/>
        </g>
        <g transform="matrix(1 0 0 1 6937 955)">
            <path fill="#000000" stroke="none" d="M 227 0 L 0 0 L 0 1820 L 682 1820 L 682 1365 L 227 1365 L 227 0 Z"/>
        </g>
        <g transform="matrix(1 0 0 1 7733 955)">
            <path fill="#000000" stroke="none" d="M 112 227 L 340 227 Q 387 227 420 260 Q 454 294 454 341 L 454 568 L 226 568 Q 132 568 65 635 Q -1 703 -1 796 L -1 1820 L 226 1820 L 226 910 Q 226 864 259 829 Q 294 796 340 796 L 454 796 L 454 1820 L 681 1820 L 681 227 Q 681 133 614 66 Q 548 0 454 0 L 112 0 L 112 227 Z"/>
        </g>
        <g transform="matrix(1 0 0 1 8529 955)">
            <path fill="#000000" stroke="none" d="M 227 0 L 0 0 L 0 1820 L 227 1820 L 227 910 L 455 910 L 455 1592 Q 455 1686 521 1753 Q 588 1820 682 1820 L 910 1820 Q 1004 1820 1071 1753 Q 1137 1687 1137 1592 L 1137 227 Q 1137 134 1071 66 Q 1004 0 910 0 L 682 0 Q 589 0 521 66 Q 455 134 455 227 L 455 682 L 227 682 L 227 0 Z M 682 341 Q 682 295 715 260 Q 750 227 796 227 Q 843 227 876 260 Q 910 294 910 341 L 910 1251 Q 910 1298 876 1332 Q 847 1361 807 1364 L 785 1364 Q 746 1361 715 1332 Q 682 1298 682 1251 L 682 341 Z"/>
        </g>
        <g transform="matrix(1 0 0 1 10121 955)">
            <path fill="#000000" stroke="none" d="M 227 0 L 0 0 L 0 1365 L 227 1365 L 227 0 Z M 0 1706 L 227 1706 L 227 1479 L 0 1479 L 0 1706 Z"/>
        </g>
        <g transform="matrix(1 0 0 1 10462 955)">
            <path fill="#000000" stroke="none" d="M 227 0 L 0 0 L 0 1137 Q 0 1231 66 1298 Q 133 1365 227 1365 L 910 1365 Q 1004 1365 1071 1298 Q 1137 1231 1137 1137 L 1137 0 L 910 0 L 910 796 Q 910 843 876 876 Q 843 910 796 910 L 682 910 L 682 0 L 455 0 L 455 909 L 330 909 Q 290 906 260 876 Q 227 843 227 796 L 227 0 Z"/>
        </g>
        <g transform="matrix(1 0 0 1 11713 955)">
            <path fill="#000000" stroke="none" d="M 0 455 Q 0 549 66 615 Q 133 682 227 682 L 455 682 L 455 796 Q 455 843 421 876 Q 388 910 341 910 L 0 910 L 0 1365 L 455 1365 Q 549 1365 616 1298 Q 682 1231 682 1137 L 682 0 L 227 0 Q 134 0 66 66 Q 0 134 0 227 L 0 455 Z M 341 455 Q 294 455 260 421 Q 227 388 227 341 Q 227 295 260 260 Q 295 227 341 227 L 455 227 L 455 455 L 341 455 Z"/>
        </g>
        <g transform="matrix(1 0 0 1 12509 955)">
            <path fill="#000000" stroke="none" d="M 0 -227 L 341 -227 Q 388 -227 421 -194 Q 455 -160 455 -113 L 455 0 L 227 0 Q 134 0 66 66 Q 0 134 0 227 L 0 1137 Q 0 1231 66 1298 Q 133 1365 227 1365 L 682 1365 L 682 -227 Q 682 -321 615 -388 Q 549 -455 455 -455 L 0 -455 L 0 -227 Z M 227 341 Q 227 295 260 260 Q 295 227 341 227 L 455 227 L 455 910 L 341 910 Q 294 910 260 876 Q 227 843 227 796 L 227 341 Z"/>
        </g>
        <g transform="matrix(1 0 0 1 13305 955)">
            <path fill="#000000" stroke="none" d="M 227 0 L 0 0 L 0 1365 L 227 1365 L 227 0 Z M 0 1706 L 227 1706 L 227 1479 L 0 1479 L 0 1706 Z"/>
        </g>
        <g transform="matrix(1 0 0 1 13646 955)">
            <path fill="#000000" stroke="none" d="M 227 0 L 0 0 L 0 1365 L 455 1365 Q 549 1365 616 1298 Q 682 1231 682 1137 L 682 0 L 455 0 L 455 796 Q 455 843 421 876 Q 388 910 341 910 L 227 910 L 227 0 Z"/>
        </g>
        <g transform="matrix(1 0 0 1 14442 955)">
            <path fill="#000000" stroke="none" d="M 227 341 Q 227 295 260 260 Q 295 227 341 227 L 682 227 L 682 0 L 227 0 Q 134 0 66 66 Q 0 134 0 227 L 0 1137 Q 0 1231 66 1298 Q 133 1365 227 1365 L 455 1365 Q 549 1365 616 1298 Q 682 1231 682 1137 L 682 455 L 227 455 L 227 341 Z M 227 682 L 455 682 L 455 796 Q 455 843 421 876 Q 393 906 352 909 L 330 909 Q 290 906 260 876 Q 227 843 227 796 L 227 682 Z"/>
        </g>
        <g transform="matrix(1 0 0 1 15579 955)">
            <path fill="#000000" stroke="none" d="M 0 227 L 341 227 Q 388 227 421 260 Q 455 294 455 341 Q 455 388 421 421 Q 388 455 341 455 L 227 455 L 227 682 L 341 682 Q 388 682 421 715 Q 455 749 455 796 Q 455 843 421 876 Q 388 910 341 910 L 0 910 L 0 1365 L 455 1365 Q 549 1365 616 1298 Q 682 1231 682 1137 L 682 739 Q 682 645 615 578 L 605 568 Q 607 566 610 563.5 Q 613 561 615 559 Q 662 512 675 455 L 682 455 L 682 170 L 676 170 Q 661 112 615 66 Q 549 0 455 0 L 0 0 L 0 227 Z"/>
        </g>
        <g transform="matrix(1 0 0 1 16375 955)">
            <path fill="#000000" stroke="none" d="M 227 0 Q 134 0 66 66 Q 0 134 0 227 L 0 1137 Q 0 1231 66 1298 Q 133 1365 227 1365 L 455 1365 L 455 1820 L 682 1820 L 682 1365 L 910 1365 Q 1004 1365 1071 1298 Q 1137 1231 1137 1137 L 1137 227 Q 1137 134 1071 66 Q 1004 0 910 0 L 682 0 L 682 -455 L 455 -455 L 455 0 L 227 0 Z M 227 341 Q 227 295 260 260 Q 295 227 341 227 L 455 227 L 455 910 L 341 910 Q 294 910 260 876 Q 227 843 227 796 L 227 341 Z M 682 227 L 796 227 Q 843 227 876 260 Q 910 294 910 341 L 910 796 Q 910 843 876 876 Q 843 910 796 910 L 682 910 L 682 227 Z"/>
        </g>
        <g transform="matrix(1 0 0 1 17626 955)">
            <path fill="#000000" stroke="none" d="M 681 227 Q 681 133 614 66 Q 548 0 454 0 L 226 0 Q 133 0 65 66 Q -1 134 -1 227 L -1 1137 Q -1 1231 65 1298 Q 132 1365 226 1365 L 454 1365 Q 548 1365 615 1298 Q 681 1231 681 1137 L 681 227 Z M 226 341 Q 226 295 259 260 Q 294 227 340 227 Q 387 227 420 260 Q 454 294 454 341 L 454 796 Q 454 843 420 876 Q 392 906 351 909 L 329 909 Q 289 906 259 876 Q 226 843 226 796 L 226 341 Z"/>
        </g>
        <g transform="matrix(1 0 0 1 18422 955)">
            <path fill="#000000" stroke="none" d="M -56 227 L 56 227 Q 103 227 137 260 Q 170 295 170 341 L 170 1137 Q 170 1231 237 1298 Q 304 1365 398 1365 L 625 1365 Q 719 1365 786 1298 Q 853 1231 853 1137 L 853 0 L 625 0 L 625 796 Q 625 843 592 876 Q 564 906 522 909 L 501 909 Q 459 906 431 876 Q 398 843 398 796 L 398 227 Q 398 133 331 66 Q 265 0 170 0 L -56 0 L -56 227 Z"/>
        </g>
        <g transform="matrix(1 0 0 1 19389 955)">
            <path fill="#000000" stroke="none" d="M 227 0 L 0 0 L 0 398 Q 0 492 66 559 Q 68 561 71 563.5 Q 74 566 76 568 L 66 578 Q 0 646 0 739 L 0 1137 Q 0 1231 66 1298 Q 133 1365 227 1365 L 682 1365 L 682 0 L 455 0 L 455 455 L 341 455 Q 294 455 260 421 Q 227 388 227 341 L 227 0 Z M 341 910 Q 294 910 260 876 Q 227 843 227 796 Q 227 750 260 715 Q 295 682 341 682 L 455 682 L 455 910 L 341 910 Z"/>
        </g>
        <g transform="matrix(1 0 0 1 20185 955)">
            <path fill="#000000" stroke="none" d="M 227 341 Q 133 341 66 408 Q 0 474 0 568 L 0 1365 L 227 1365 L 227 682 Q 227 635 260 602 Q 294 568 341 568 L 455 568 L 455 1365 L 682 1365 L 682 0 L 455 0 L 455 341 L 227 341 Z"/>
        </g>
        <g transform="matrix(1 0 0 1 21322 955)">
            <path fill="#000000" stroke="none" d="M 226 341 Q 226 295 259 260 Q 294 227 340 227 L 454 227 L 454 1365 L 681 1365 L 681 0 L 226 0 Q 133 0 65 66 Q -1 134 -1 227 L -1 1365 L 226 1365 L 226 341 Z"/>
        </g>
        <g transform="matrix(1 0 0 1 22118 955)">
            <path fill="#000000" stroke="none" d="M 0 0 L 0 1365 L 227 1365 L 227 227 L 455 227 L 455 1365 L 682 1365 L 682 227 L 796 227 L 796 -227 L 568 -227 L 568 0 L 0 0 Z"/>
        </g>
        <g transform="matrix(1 0 0 1 23028 955)">
            <path fill="#000000" stroke="none" d="M 0 0 L 0 1365 L 227 1365 L 227 227 L 455 227 L 455 1365 L 682 1365 L 682 227 L 910 227 L 910 1365 L 1137 1365 L 1137 227 L 1251 227 L 1251 -227 L 1024 -227 L 1024 0 L 0 0 Z"/>
        </g>
        <g transform="matrix(1 0 0 1 24393 955)">
            <path fill="#000000" stroke="none" d="M 226 341 Q 226 295 259 260 Q 294 227 340 227 L 454 227 L 454 1365 L 681 1365 L 681 0 L 226 0 Q 133 0 65 66 Q -1 134 -1 227 L -1 1365 L 226 1365 L 226 341 Z"/>
        </g>
        <g transform="matrix(1 0 0 1 25189 955)">
            <path fill="#000000" stroke="none" d="M -1 455 Q -1 549 65 615 Q 132 682 226 682 L 454 682 L 454 796 Q 454 843 420 876 Q 387 910 340 910 L -1 910 L -1 1365 L 454 1365 Q 548 1365 615 1298 Q 681 1231 681 1137 L 681 0 L 226 0 Q 133 0 65 66 Q -1 134 -1 227 L -1 455 Z M 340 455 Q 293 455 259 421 Q 226 388 226 341 Q 226 295 259 260 Q 294 227 340 227 L 454 227 L 454 455 L 340 455 Z"/>
        </g>
        <g transform="matrix(1 0 0 1 25985 955)">
            <path fill="#000000" stroke="none" d="M 227 341 Q 133 341 66 408 Q 0 474 0 568 L 0 1365 L 227 1365 L 227 682 Q 227 635 260 602 Q 294 568 341 568 L 455 568 L 455 1365 L 682 1365 L 682 0 L 455 0 L 455 341 L 227 341 Z"/>
        </g>
    </g>
</svg>
