<svg width="26781" height="3047" viewBox="0 0 26781 3047" xmlns="http://www.w3.org/2000/svg">
    <defs/>
    <path fill="#000000" stroke="none" transform="matrix(1 0 0 -1 0 2092)" d="M 227 0 C 165 0 111.33333333333 22 66 66 C 22 111.33333333333 0 165 0 227 L 0 1592 C 0 1654.66666666667 22 1708.33333333333 66 1753 C 110.66666666667 1797.66666666667 164.33333333333 1820 227 1820 L 455 1820 C 517.66666666667 1820 571.33333333333 1797.66666666667 616 1753 C 660 1709 682 1655.33333333333 682 1592 L 682 227 C 682 164.33333333333 659.66666666667 110.66666666667 615 66 C 571 22 517.66666666667 0 455 0 L 455 -227 L 227 -227 L 227 0 Z M 227 341 C 227 310.33333333333 238 283.33333333333 260 260 C 283.33333333333 238 310.33333333333 227 341 227 C 372.33333333333 227 399 238 421 260 C 443.66666666667 282.66666666667 455 309.66666666667 455 341 L 455 1251 C 455 1282.33333333333 443.66666666667 1309.33333333333 421 1332 C 401.66666666667 1351.33333333333 378.66666666667 1362 352 1364 L 330 1364 C 304 1362 280.66666666667 1351.33333333333 260 1332 C 238 1309.33333333333 227 1282.33333333333 227 1251 L 227 341 Z"/>
    <path fill="#000000" stroke="none" transform="matrix(1 0 0 -1 796 2092)" d="M 227 341 C 227 310.33333333333 238 283.33333333333 260 260 C 283.33333333333 238 310.33333333333 227 341 227 C 372.33333333333 227 399 238 421 260 C 443.66666666667 282.66666666667 455 309.66666666667 455 341 L 455 1820 L 682 1820 L 682 227 C 682 164.33333333333 659.66666666667 110.66666666667 615 66 C 571 22 517.66666666667 0 455 0 L 227 0 C 165 0 111.33333333333 22 66 66 C 22 111.33333333333 0 165 0 227 L 0 1820 L 227 1820 L 227 341 Z"/>
    <path fill="#000000" stroke="none" transform="matrix(1 0 0 -1 1592 2092)" d="M 227 341 C 227 310.33333333333 238 283.33333333333 260 260 C 283.33333333333 238 310.33333333333 227 341 227 L 682 227 L 682 0 L 227 0 C 165 0 111.33333333333 22 66 66 C 22 111.33333333333 0 165 0 227 L 0 1592 C 0 1655.33333333333 22 1709 66 1753 C 110.66666666667 1797.66666666667 164.33333333333 1820 227 1820 L 682 1820 L 682 1365 L 341 1365 C 310.33333333333 1365 283.33333333333 1354 260 1332 C 238 1309.33333333333 227 1282.33333333333 227 1251 L 227 910 L 682 910 L 682 682 L 227 682 L 227 341 Z"/>
    <path fill="#000000" stroke="none" transform="matrix(1 0 0 -1 2388 2092)" d="M 0 227 L 341 227 C 372.33333333333 227 399 238 421 260 C 443.66666666667 282.66666666667 455 309.66666666667 455 341 L 455 568 C 455 599.33333333333 443.66666666667 626.33333333333 421 649 C 399 671 372.33333333333 682 341 682 L 227 682 C 164.33333333333 682 110.66666666667 704.33333333333 66 749 C 22 793 0 846.66666666667 0 910 L 0 1592 C 0 1654.66666666667 22 1708.33333333333 66 1753 C 110.66666666667 1797.66666666667 164.33333333333 1820 227 1820 L 682 1820 L 682 1365 L 455 1365 L 455 1364 L 330 1364 C 304 1362 280.66666666667 1351.33333333333 260 1332 C 238 1309.33333333333 227 1282.33333333333 227 1251 L 227 1024 C 227 992 238 965 260 943 C 283.33333333333 921 310.33333333333 910 341 910 L 455 910 C 517.66666666667 910 571 887.66666666667 615 843 C 659.66666666667 799 682 745.33333333333 682 682 L 682 227 C 682 164.33333333333 659.66666666667 110.66666666667 615 66 C 571 22 517.66666666667 0 455 0 L 0 0 L 0 227 Z"/>
    <path fill="#000000" stroke="none" transform="matrix(1 0 0 -1 3184 2092)" d="M 455 0 L 227 0 L 227 1365 L 0 1365 L 0 1820 L 682 1820 L 682 1365 L 455 1365 L 455 0 Z"/>
    <path fill="#000000" stroke="none" transform="matrix(1 0 0 -1 4321 2092)" d="M 226 341 C 226 310.33333333333 237 283.33333333333 259 260 C 282.33333333333 238 309.33333333333 227 340 227 L 681 227 L 681 0 L 226 0 C 164 0 110.33333333333 22 65 66 C 21 111.33333333333 -1 165 -1 227 L -1 1592 C -1 1655.33333333333 21 1709 65 1753 C 109.66666666667 1797.66666666667 163.33333333333 1820 226 1820 L 681 1820 L 681 1365 L 340 1365 C 309.33333333333 1365 282.33333333333 1354 259 1332 C 237 1309.33333333333 226 1282.33333333333 226 1251 L 226 341 Z"/>
    <path fill="#000000" stroke="none" transform="matrix(1 0 0 -1 5117 2092)" d="M 910 227 C 910 164.33333333333 887.66666666667 110.66666666667 843 66 C 799 22 745.33333333333 0 682 0 L 227 0 L 227 1592 L 0 1592 L 0 1820 L 455 1820 L 455 910 L 682 910 C 745.33333333333 910 799 887.66666666667 843 843 C 887.66666666667 798.33333333333 910 744.66666666667 910 682 L 910 227 Z M 455 227 L 568 227 C 599.33333333333 227 626.33333333333 238 649 260 C 671 283.33333333333 682 310.33333333333 682 341 L 682 568 C 682 599.33333333333 671 626.33333333333 649 649 C 626.33333333333 671 599.33333333333 682 568 682 L 455 682 L 455 227 Z"/>
    <path fill="#000000" stroke="none" transform="matrix(1 0 0 -1 6141 2092)" d="M 226 0 L -1 0 L -1 1820 L 454 1820 C 516.66666666667 1820 570.33333333333 1797.66666666667 615 1753 C 659 1709 681 1655.33333333333 681 1592 L 681 910 C 681 847.33333333333 658.66666666667 793.66666666667 614 749 C 570 704.33333333333 516.66666666667 682 454 682 L 226 682 L 226 0 Z M 226 910 L 340 910 C 371.33333333333 910 398 921 420 943 C 442.66666666667 965 454 992 454 1024 L 454 1251 C 454 1282.33333333333 442.66666666667 1309.33333333333 420 1332 C 398 1354 371.33333333333 1365 340 1365 L 226 1365 L 226 910 Z"/>
    <path fill="#000000" stroke="none" transform="matrix(1 0 0 -1 6937 2092)" d="M 227 0 L 0 0 L 0 1820 L 682 1820 L 682 1365 L 227 1365 L 227 0 Z"/>
    <path fill="#000000" stroke="none" transform="matrix(1 0 0 -1 7733 2092)" d="M 112 227 L 340 227 C 371.33333333333 227 398 238 420 260 C 442.66666666667 282.66666666667 454 309.66666666667 454 341 L 454 568 L 226 568 C 163.33333333333 568 109.66666666667 590.33333333333 65 635 C 21 680.33333333333 -1 734 -1 796 L -1 1820 L 226 1820 L 226 910 C 226 879.33333333333 237 852.33333333333 259 829 C 282.33333333333 807 309.33333333333 796 340 796 L 454 796 L 454 1820 L 681 1820 L 681 227 C 681 164.33333333333 658.66666666667 110.66666666667 614 66 C 570 22 516.66666666667 0 454 0 L 112 0 L 112 227 Z"/>
    <path fill="#000000" stroke="none" transform="matrix(1 0 0 -1 8529 2092)" d="M 227 0 L 0 0 L 0 1820 L 227 1820 L 227 910 L 455 910 L 455 1592 C 455 1654.66666666667 477 1708.33333333333 521 1753 C 565.66666666667 1797.66666666667 619.33333333333 1820 682 1820 L 910 1820 C 972.66666666667 1820 1026.33333333333 1797.66666666667 1071 1753 C 1115 1709 1137 1655.33333333333 1137 1592 L 1137 227 C 1137 165 1115 111.33333333333 1071 66 C 1026.33333333333 22 972.66666666667 0 910 0 L 682 0 C 620 0 566.33333333333 22 521 66 C 477 111.33333333333 455 165 455 227 L 455 682 L 227 682 L 227 0 Z M 682 341 C 682 310.33333333333 693 283.33333333333 715 260 C 738.33333333333 238 765.33333333333 227 796 227 C 827.33333333333 227 854 238 876 260 C 898.66666666667 282.66666666667 910 309.66666666667 910 341 L 910 1251 C 910 1282.33333333333 898.66666666667 1309.33333333333 876 1332 C 856.66666666667 1351.33333333333 833.66666666667 1362 807 1364 L 785 1364 C 759 1362 735.66666666667 1351.33333333333 715 1332 C 693 1309.33333333333 682 1282.33333333333 682 1251 L 682 341 Z"/>
    <path fill="#000000" stroke="none" transform="matrix(1 0 0 -1 10121 2092)" d="M 227 0 L 0 0 L 0 1365 L 227 1365 L 227 0 Z M 0 1706 L 227 1706 L 227 1479 L 0 1479 L 0 1706 Z"/>
    <path fill="#000000" stroke="none" transform="matrix(1 0 0 -1 10462 2092)" d="M 227 0 L 0 0 L 0 1137 C 0 1199.66666666667 22 1253.33333333333 66 1298 C 110.66666666667 1342.66666666667 164.33333333333 1365 227 1365 L 910 1365 C 972.66666666667 1365 1026.33333333333 1342.66666666667 1071 1298 C 1115 1253.33333333333 1137 1199.66666666667 1137 1137 L 1137 0 L 910 0 L 910 796 C 910 827.33333333333 898.66666666667 854 876 876 C 854 898.66666666667 827.33333333333 910 796 910 L 682 910 L 682 0 L 455 0 L 455 909 L 330 909 C 303.33333333333 907 280 896 260 876 C 238 854 227 827.33333333333 227 796 L 227 0 Z"/>
    <path fill="#000000" stroke="none" transform="matrix(1 0 0 -1 11713 2092)" d="M 0 455 C 0 517.66666666667 22 571 66 615 C 110.66666666667 659.66666666667 164.33333333333 682 227 682 L 455 682 L 455 796 C 455 827.33333333333 443.66666666667 854 421 876 C 399 898.66666666667 372.33333333333 910 341 910 L 0 910 L 0 1365 L 455 1365 C 517.66666666667 1365 571.33333333333 1342.66666666667 616 1298 C 660 1253.33333333333 682 1199.66666666667 682 1137 L 682 0 L 227 0 C 165 0 111.33333333333 22 66 66 C 22 111.33333333333 0 165 0 227 L 0 455 Z M 341 455 C 309.66666666667 455 282.66666666667 443.66666666667 260 421 C 238 399 227 372.33333333333 227 341 C 227 310.33333333333 238 283.33333333333 260 260 C 283.33333333333 238 310.33333333333 227 341 227 L 455 227 L 455 455 L 341 455 Z"/>
    <path fill="#000000" stroke="none" transform="matrix(1 0 0 -1 12509 2092)" d="M 0 -227 L 341 -227 C 372.33333333333 -227 399 -216 421 -194 C 443.66666666667 -171.33333333333 455 -144.33333333333 455 -113 L 455 0 L 227 0 C 165 0 111.33333333333 22 66 66 C 22 111.33333333333 0 165 0 227 L 0 1137 C 0 1199.66666666667 22 1253.33333333333 66 1298 C 110.66666666667 1342.66666666667 164.33333333333 1365 227 1365 L 682 1365 L 682 -227 C 682 -289.66666666667 659.66666666667 -343.33333333333 615 -388 C 571 -432.66666666667 517.66666666667 -455 455 -455 L 0 -455 L 0 -227 Z M 227 341 C 227 310.33333333333 238 283.33333333333 260 260 C 283.33333333333 238 310.33333333333 227 341 227 L 455 227 L 455 910 L 341 910 C 309.66666666667 910 282.66666666667 898.66666666667 260 876 C 238 854 227 827.33333333333 227 796 L 227 341 Z"/>
    <path fill="#000000" stroke="none" transform="matrix(1 0 0 -1 13305 2092)" d="M 227 0 L 0 0 L 0 1365 L 227 1365 L 227 0 Z M 0 1706 L 227 1706 L 227 1479 L 0 1479 L 0 1706 Z"/>
    <path fill="#000000" stroke="none" transform="matrix(1 0 0 -1 13646 2092)" d="M 227 0 L 0 0 L 0 1365 L 455 1365 C 517.66666666667 1365 571.33333333333 1342.66666666667 616 1298 C 660 1253.33333333333 682 1199.66666666667 682 1137 L 682 0 L 455 0 L 455 796 C 455 827.33333333333 443.66666666667 854 421 876 C 399 898.66666666667 372.33333333333 910 341 910 L 227 910 L 227 0 Z"/>
    <path fill="#000000" stroke="none" transform="matrix(1 0 0 -1 14442 2092)" d="M 227 341 C 227 310.33333333333 238 283.33333333333 260 260 C 283.33333333333 238 310.33333333333 227 341 227 L 682 227 L 682 0 L 227 0 C 165 0 111.33333333333 22 66 66 C 22 111.33333333333 0 165 0 227 L 0 1137 C 0 1199.66666666667 22 1253.33333333333 66 1298 C 110.66666666667 1342.66666666667 164.33333333333 1365 227 1365 L 455 1365 C 517.66666666667 1365 571.33333333333 1342.66666666667 616 1298 C 660 1253.33333333333 682 1199.66666666667 682 1137 L 682 455 L 227 455 L 227 341 Z M 227 682 L 455 682 L 455 796 C 455 827.33333333333 443.66666666667 854 421 876 C 402.33333333333 896 379.33333333333 907 352 909 L 330 909 C 303.33333333333 907 280 896 260 876 C 238 854 227 827.33333333333 227 796 L 227 682 Z"/>
    <path fill="#000000" stroke="none" transform="matrix(1 0 0 -1 15579 2092)" d="M 0 227 L 341 227 C 372.33333333333 227 399 238 421 260 C 443.66666666667 282.66666666667 455 309.66666666667 455 341 C 455 372.33333333333 443.66666666667 399 421 421 C 399 443.66666666667 372.33333333333 455 341 455 L 227 455 L 227 682 L 341 682 C 372.33333333333 682 399 693 421 715 C 443.66666666667 737.66666666667 455 764.66666666667 455 796 C 455 827.33333333333 443.66666666667 854 421 876 C 399 898.66666666667 372.33333333333 910 341 910 L 0 910 L 0 1365 L 455 1365 C 517.66666666667 1365 571.33333333333 1342.66666666667 616 1298 C 660 1253.33333333333 682 1199.66666666667 682 1137 L 682 739 C 682 676.33333333333 659.66666666667 622.66666666667 615 578 L 605 568 C 606.33333333333 566.66666666667 608 565.33333333333 610 564 C 612 562 613.66666666667 560.33333333333 615 559 C 646.33333333333 527.66666666667 666.33333333333 493 675 455 L 682 455 L 682 170 L 676 170 C 666 131.33333333333 645.66666666667 96.66666666667 615 66 C 571 22 517.66666666667 0 455 0 L 0 0 L 0 227 Z"/>
    <path fill="#000000" stroke="none" transform="matrix(1 0 0 -1 16375 2092)" d="M 227 0 C 165 0 111.33333333333 22 66 66 C 22 111.33333333333 0 165 0 227 L 0 1137 C 0 1199.66666666667 22 1253.33333333333 66 1298 C 110.66666666667 1342.66666666667 164.33333333333 1365 227 1365 L 455 1365 L 455 1820 L 682 1820 L 682 1365 L 910 1365 C 972.66666666667 1365 1026.33333333333 1342.66666666667 1071 1298 C 1115 1253.33333333333 1137 1199.66666666667 1137 1137 L 1137 227 C 1137 165 1115 111.33333333333 1071 66 C 1026.33333333333 22 972.66666666667 0 910 0 L 682 0 L 682 -455 L 455 -455 L 455 0 L 227 0 Z M 227 341 C 227 310.33333333333 238 283.33333333333 260 260 C 283.33333333333 238 310.33333333333 227 341 227 L 455 227 L 455 910 L 341 910 C 309.66666666667 910 282.66666666667 898.66666666667 260 876 C 238 854 227 827.33333333333 227 796 L 227 341 Z M 682 227 L 796 227 C 827.33333333333 227 854 238 876 260 C 898.66666666667 282.66666666667 910 309.66666666667 910 341 L 910 796 C 910 827.33333333333 898.66666666667 854 876 876 C 854 898.66666666667 827.33333333333 910 796 910 L 682 910 L 682 227 Z"/>
    <path fill="#000000" stroke="none" transform="matrix(1 0 0 -1 17626 2092)" d="M 681 227 C 681 164.33333333333 658.66666666667 110.66666666667 614 66 C 570 22 516.66666666667 0 454 0 L 226 0 C 164 0 110.33333333333 22 65 66 C 21 111.33333333333 -1 165 -1 227 L -1 1137 C -1 1199.66666666667 21 1253.33333333333 65 1298 C 109.66666666667 1342.66666666667 163.33333333333 1365 226 1365 L 454 1365 C 516.66666666667 1365 570.33333333333 1342.66666666667 615 1298 C 659 1253.33333333333 681 1199.66666666667 681 1137 L 681 227 Z M 226 341 C 226 310.33333333333 237 283.33333333333 259 260 C 282.33333333333 238 309.33333333333 227 340 227 C 371.33333333333 227 398 238 420 260 C 442.66666666667 282.66666666667 454 309.66666666667 454 341 L 454 796 C 454 827.33333333333 442.66666666667 854 420 876 C 401.33333333333 896 378.33333333333 907 351 909 L 329 909 C 302.33333333333 907 279 896 259 876 C 237 854 226 827.33333333333 226 796 L 226 341 Z"/>
    <path fill="#000000" stroke="none" transform="matrix(1 0 0 -1 18422 2092)" d="M -56 227 L 56 227 C 87.33333333333 227 114.33333333333 238 137 260 C 159 283.33333333333 170 310.33333333333 170 341 L 170 1137 C 170 1199.66666666667 192.33333333333 1253.33333333333 237 1298 C 281.66666666667 1342.66666666667 335.33333333333 1365 398 1365 L 625 1365 C 687.66666666667 1365 741.33333333333 1342.66666666667 786 1298 C 830.66666666667 1253.33333333333 853 1199.66666666667 853 1137 L 853 0 L 625 0 L 625 796 C 625 827.33333333333 614 854 592 876 C 573.33333333333 896 550 907 522 909 L 501 909 C 473 907 449.66666666667 896 431 876 C 409 854 398 827.33333333333 398 796 L 398 227 C 398 164.33333333333 375.66666666667 110.66666666667 331 66 C 287 22 233.33333333333 0 170 0 L -56 0 L -56 227 Z"/>
    <path fill="#000000" stroke="none" transform="matrix(1 0 0 -1 19389 2092)" d="M 227 0 L 0 0 L 0 398 C 0 460.66666666667 22 514.33333333333 66 559 C 67.33333333333 560.33333333333 69 562 71 564 C 73 565.33333333333 74.66666666667 566.66666666667 76 568 L 66 578 C 22 623.33333333333 0 677 0 739 L 0 1137 C 0 1199.66666666667 22 1253.33333333333 66 1298 C 110.66666666667 1342.66666666667 164.33333333333 1365 227 1365 L 682 1365 L 682 0 L 455 0 L 455 455 L 341 455 C 309.66666666667 455 282.66666666667 443.66666666667 260 421 C 238 399 227 372.33333333333 227 341 L 227 0 Z M 341 910 C 309.66666666667 910 282.66666666667 898.66666666667 260 876 C 238 854 227 827.33333333333 227 796 C 227 765.33333333333 238 738.33333333333 260 715 C 283.33333333333 693 310.33333333333 682 341 682 L 455 682 L 455 910 L 341 910 Z"/>
    <path fill="#000000" stroke="none" transform="matrix(1 0 0 -1 20185 2092)" d="M 227 341 C 164.33333333333 341 110.66666666667 363.33333333333 66 408 C 22 452 0 505.33333333333 0 568 L 0 1365 L 227 1365 L 227 682 C 227 650.66666666667 238 624 260 602 C 282.66666666667 579.33333333333 309.66666666667 568 341 568 L 455 568 L 455 1365 L 682 1365 L 682 0 L 455 0 L 455 341 L 227 341 Z"/>
    <path fill="#000000" stroke="none" transform="matrix(1 0 0 -1 21322 2092)" d="M 226 341 C 226 310.33333333333 237 283.33333333333 259 260 C 282.33333333333 238 309.33333333333 227 340 227 L 454 227 L 454 1365 L 681 1365 L 681 0 L 226 0 C 164 0 110.33333333333 22 65 66 C 21 111.33333333333 -1 165 -1 227 L -1 1365 L 226 1365 L 226 341 Z"/>
    <path fill="#000000" stroke="none" transform="matrix(1 0 0 -1 22118 2092)" d="M 0 0 L 0 1365 L 227 1365 L 227 227 L 455 227 L 455 1365 L 682 1365 L 682 227 L 796 227 L 796 -227 L 568 -227 L 568 0 L 0 0 Z"/>
    <path fill="#000000" stroke="none" transform="matrix(1 0 0 -1 23028 2092)" d="M 0 0 L 0 1365 L 227 1365 L 227 227 L 455 227 L 455 1365 L 682 1365 L 682 227 L 910 227 L 910 1365 L 1137 1365 L 1137 227 L 1251 227 L 1251 -227 L 1024 -227 L 1024 0 L 0 0 Z"/>
    <path fill="#000000" stroke="none" transform="matrix(1 0 0 -1 24393 2092)" d="M 226 341 C 226 310.33333333333 237 283.33333333333 259 260 C 282.33333333333 238 309.33333333333 227 340 227 L 454 227 L 454 1365 L 681 1365 L 681 0 L 226 0 C 164 0 110.33333333333 22 65 66 C 21 111.33333333333 -1 165 -1 227 L -1 1365 L 226 1365 L 226 341 Z"/>
    <path fill="#000000" stroke="none" transform="matrix(1 0 0 -1 25189 2092)" d="M -1 455 C -1 517.66666666667 21 571 65 615 C 109.66666666667 659.66666666667 163.33333333333 682 226 682 L 454 682 L 454 796 C 454 827.33333333333 442.66666666667 854 420 876 C 398 898.66666666667 371.33333333333 910 340 910 L -1 910 L -1 1365 L 454 1365 C 516.66666666667 1365 570.33333333333 1342.66666666667 615 1298 C 659 1253.33333333333 681 1199.66666666667 681 1137 L 681 0 L 226 0 C 164 0 110.33333333333 22 65 66 C 21 111.33333333333 -1 165 -1 227 L -1 455 Z M 340 455 C 308.66666666667 455 281.66666666667 443.66666666667 259 421 C 237 399 226 372.33333333333 226 341 C 226 310.33333333333 237 283.33333333333 259 260 C 282.33333333333 238 309.33333333333 227 340 227 L 454 227 L 454 455 L 340 455 Z"/>
    <path fill="#000000" stroke="none" transform="matrix(1 0 0 -1 25985 2092)" d="M 227 341 C 164.33333333333 341 110.66666666667 363.33333333333 66 408 C 22 452 0 505.33333333333 0 568 L 0 1365 L 227 1365 L 227 682 C 227 650.66666666667 238 624 260 602 C 282.66666666667 579.33333333333 309.66666666667 568 341 568 L 455 568 L 455 1365 L 682 1365 L 682 0 L 455 0 L 455 341 L 227 341 Z"/>
</svg>
