<svg width="14680" height="1885" viewBox="0 0 14680 1885" xmlns="http://www.w3.org/2000/svg">
    <defs/>
    <path fill="#000000" stroke="none" transform="matrix(1 0 0 -1 0 1200)" d="M 350 728 L 139 728 L 139 738 L 574 738 L 574 728 L 360 728 L 270 -1 L 260 1 L 350 728 Z"/>
    <path fill="#000000" stroke="none" transform="matrix(1 0 0 -1 495 1200)" d="M 149 735 L 72 5 L 353 5 L 353 -5 L 66 -5 L 61 1 L 139 737 L 149 735 Z"/>
    <path fill="#000000" stroke="none" transform="matrix(1 0 0 -1 923 1200)" d="M 669 731 C 609 607 548.33333333333 484.33333333333 487 363 C 425.66666666667 241.66666666667 362.66666666667 120 298 -2 L 289 -1 C 255 120.33333333333 225 242 199 364 C 172.33333333333 485.33333333333 148.66666666667 608 128 732 L 138 734 C 158.66666666667 612 181.66666666667 491.33333333333 207 372 C 232.33333333333 252 261.66666666667 132.33333333333 295 13 C 358.33333333333 133 420.33333333333 253 481 373 C 541 492.33333333333 600.33333333333 613 659 735 L 669 731 Z"/>
    <path fill="#000000" stroke="none" transform="matrix(1 0 0 -1 1489 1200)" d="M 150 732 L 86 221 C 81.33333333333 185 83 153.33333333333 91 126 C 99 98.66666666667 112 75.66666666667 130 57 C 148 38.33333333333 170.66666666667 24.33333333333 198 15 C 225.33333333333 5 256.33333333333 0 291 0 C 357.66666666667 0 412.66666666667 18.33333333333 456 55 C 499.33333333333 91 525.66666666667 142.33333333333 535 209 L 607 734 L 617 732 L 545 207 C 540.33333333333 173 531 142.66666666667 517 116 C 503 88.66666666667 485 65.66666666667 463 47 C 441 28.33333333333 415.66666666667 14.33333333333 387 5 C 357.66666666667 -5 325.66666666667 -10 291 -10 C 255 -10 222.66666666667 -4.66666666667 194 6 C 165.33333333333 16 141.66666666667 31 123 51 C 103.66666666667 70.33333333333 90 94.66666666667 82 124 C 73.33333333333 152.66666666667 71.33333333333 185.66666666667 76 223 L 140 734 L 150 732 Z"/>
    <path fill="#000000" stroke="none" transform="matrix(1 0 0 -1 2087 1200)" d="M 59 5 L 107 5 C 141 5 176.66666666667 8 214 14 C 251.33333333333 19.33333333333 286 29.66666666667 318 45 C 349.33333333333 60.33333333333 375.33333333333 81.66666666667 396 109 C 416 135.66666666667 426 170.33333333333 426 213 C 426 239 423.33333333333 260.66666666667 418 278 C 412 295.33333333333 403.33333333333 310.33333333333 392 323 C 380 335 365.66666666667 345.33333333333 349 354 C 331.66666666667 362.66666666667 312 371 290 379 L 104 379 L 59 5 Z M 106 389 L 290 389 C 311.33333333333 396.33333333333 330 407 346 421 C 361.33333333333 434.33333333333 374.33333333333 450 385 468 C 395.66666666667 486 403.66666666667 505.33333333333 409 526 C 413.66666666667 546.66666666667 416 567.66666666667 416 589 C 416 620.33333333333 411.33333333333 645.33333333333 402 664 C 392.66666666667 682.66666666667 380 697 364 707 C 347.33333333333 716.33333333333 327.66666666667 722.66666666667 305 726 C 282.33333333333 728.66666666667 257.66666666667 730 231 730 L 147 730 L 106 389 Z M 53 0 L 48 1 L 138 736 L 143 740 L 231 740 C 259 740 285 738.33333333333 309 735 C 332.33333333333 731.66666666667 353 724.66666666667 371 714 C 388.33333333333 703.33333333333 402 688 412 668 C 421.33333333333 648 426 621.66666666667 426 589 C 426 568.33333333333 423.66666666667 547.66666666667 419 527 C 413.66666666667 505.66666666667 406 486 396 468 C 386 449.33333333333 373.66666666667 432.66666666667 359 418 C 343.66666666667 403.33333333333 325.66666666667 392 305 384 C 327 375.33333333333 346.33333333333 366.33333333333 363 357 C 379.66666666667 347.66666666667 393.33333333333 336.66666666667 404 324 C 414.66666666667 310.66666666667 422.66666666667 295.33333333333 428 278 C 433.33333333333 260 436 238.33333333333 436 213 C 436 169 425.66666666667 133 405 105 C 383.66666666667 76.33333333333 357 54 325 38 C 292.33333333333 21.33333333333 256.66666666667 10 218 4 C 179.33333333333 -2 142.33333333333 -5 107 -5 L 53 -5 L 53 0 Z"/>
    <path fill="#000000" stroke="none" transform="matrix(1 0 0 -1 2588 1200)" d="M 567 258 L 538 35 L 536 32 C 521.33333333333 23.33333333333 504.33333333333 16.33333333333 485 11 C 465 5.66666666667 444.66666666667 1.66666666667 424 -1 C 403.33333333333 -4.33333333333 382.66666666667 -6.33333333333 362 -7 C 341.33333333333 -8.33333333333 322.66666666667 -9 306 -9 C 261.33333333333 -9 223.33333333333 -0.66666666667 192 16 C 160.66666666667 32 135.33333333333 54 116 82 C 96.66666666667 109.33333333333 82.66666666667 141 74 177 C 64.66666666667 213 60 251 60 291 C 60 353 68 411.33333333333 84 466 C 99.33333333333 520.66666666667 123 568.33333333333 155 609 C 187 649.66666666667 227.66666666667 682 277 706 C 325.66666666667 729.33333333333 383.66666666667 741 451 741 C 481 741 510.33333333333 736.33333333333 539 727 C 567.66666666667 717 594.33333333333 703.33333333333 619 686 L 613 678 C 589.66666666667 694 564.33333333333 707 537 717 C 509 726.33333333333 480.33333333333 731 451 731 C 385 731 328 719.66666666667 280 697 C 232 673.66666666667 192.66666666667 642 162 602 C 130.66666666667 562 107.66666666667 515.33333333333 93 462 C 77.66666666667 408.66666666667 70 351.66666666667 70 291 C 70 253 74.33333333333 216.66666666667 83 182 C 91 146.66666666667 104.33333333333 115.66666666667 123 89 C 141.66666666667 62.33333333333 166 41 196 25 C 226 9 262.66666666667 1 306 1 C 322 1 340 1.66666666667 360 3 C 379.33333333333 3.66666666667 399.33333333333 5.66666666667 420 9 C 440.66666666667 11.66666666667 460.33333333333 15.33333333333 479 20 C 497.66666666667 24.66666666667 514 31 528 39 L 557 260 L 567 258 Z"/>
    <path fill="#000000" stroke="none" transform="matrix(1 0 0 -1 3382 1200)" d="M 296 301 C 264.66666666667 371.66666666667 235.66666666667 442.66666666667 209 514 C 182.33333333333 585.33333333333 157.33333333333 657.66666666667 134 731 L 144 735 C 166.66666666667 662.33333333333 191 591 217 521 C 243 450.33333333333 271.33333333333 380.66666666667 302 312 C 354.66666666667 379.33333333333 404 448.66666666667 450 520 C 496 591.33333333333 542 663.33333333333 588 736 L 596 730 C 550 656.66666666667 503.66666666667 584 457 512 C 410.33333333333 439.33333333333 360 368.66666666667 306 300 L 270 -1 L 260 1 L 296 301 Z"/>
    <path fill="#000000" stroke="none" transform="matrix(1 0 0 -1 3897 1200)" d="M 455 -7 C 429 20.33333333333 403 50.33333333333 377 83 C 351 115.66666666667 325.66666666667 149.66666666667 301 185 C 276.33333333333 219.66666666667 253 254.66666666667 231 290 C 208.33333333333 325.33333333333 187.33333333333 359.33333333333 168 392 L 168 398 C 193.33333333333 427.33333333333 221 458 251 490 C 281 521.33333333333 312.33333333333 552.33333333333 345 583 C 377 613.66666666667 409.66666666667 643 443 671 C 476.33333333333 699 509.33333333333 723.33333333333 542 744 L 548 736 C 516 715.33333333333 483.33333333333 691.33333333333 450 664 C 416.66666666667 636.66666666667 384 607.66666666667 352 577 C 320 546.33333333333 289.33333333333 515.33333333333 260 484 C 230 452.66666666667 202.66666666667 422.66666666667 178 394 C 197.33333333333 362 218 328.66666666667 240 294 C 262 258.66666666667 285.33333333333 223.66666666667 310 189 C 334.66666666667 154.33333333333 360 121 386 89 C 411.33333333333 56.33333333333 437 26.33333333333 463 -1 L 455 -7 Z M 151 735 L 58 -1 L 48 1 L 141 737 L 151 735 Z"/>
    <path fill="#000000" stroke="none" transform="matrix(1 0 0 -1 4360 1200)" d="M 685 1 L 700 711 C 647.33333333333 607 592.66666666667 504.33333333333 536 403 C 479.33333333333 301.66666666667 420.66666666667 201 360 101 L 351 102 C 317 199.33333333333 285.66666666667 299.66666666667 257 403 C 228.33333333333 506.33333333333 204 608.33333333333 184 709 L 20 0 L 10 2 L 179 734 L 189 734 C 209 632 233.66666666667 528 263 422 C 291.66666666667 316 323 214 357 116 C 417.66666666667 215.33333333333 477.33333333333 317.33333333333 536 422 C 594 526 649 630.33333333333 701 735 L 710 733 L 695 1 L 685 1 Z"/>
    <path fill="#000000" stroke="none" transform="matrix(1 0 0 -1 5187 1200)" d="M 685 1 L 700 711 C 647.33333333333 607 592.66666666667 504.33333333333 536 403 C 479.33333333333 301.66666666667 420.66666666667 201 360 101 L 351 102 C 317 199.33333333333 285.66666666667 299.66666666667 257 403 C 228.33333333333 506.33333333333 204 608.33333333333 184 709 L 20 0 L 10 2 L 179 734 L 189 734 C 209 632 233.66666666667 528 263 422 C 291.66666666667 316 323 214 357 116 C 417.66666666667 215.33333333333 477.33333333333 317.33333333333 536 422 C 594 526 649 630.33333333333 701 735 L 710 733 L 695 1 L 685 1 Z"/>
    <path fill="#000000" stroke="none" transform="matrix(1 0 0 -1 6014 1200)" d="M 148 732 L 58 -1 L 48 1 L 138 734 L 148 732 Z"/>
    <path fill="#000000" stroke="none" transform="matrix(1 0 0 -1 6169 1200)" d="M 95 303 L 215 303 C 255.66666666667 303 291 309.33333333333 321 322 C 351 334 376 351.66666666667 396 375 C 416 397.66666666667 431 425 441 457 C 450.33333333333 489 455 524.33333333333 455 563 C 455 606.33333333333 448 639.33333333333 434 662 C 420 684 401.33333333333 700 378 710 C 354.66666666667 719.33333333333 328 724.66666666667 298 726 C 267.33333333333 726.66666666667 235.33333333333 727 202 727 L 147 727 L 95 303 Z M 94 293 L 57 -11 L 47 -9 L 138 733 L 143 737 L 202 737 C 236.66666666667 737 270 736.33333333333 302 735 C 333.33333333333 733.66666666667 361.33333333333 727.66666666667 386 717 C 410 706.33333333333 429.33333333333 689.33333333333 444 666 C 458 642 465 607.66666666667 465 563 C 465 523 460 486.33333333333 450 453 C 439.33333333333 419.66666666667 423.66666666667 391.33333333333 403 368 C 382.33333333333 344 356.33333333333 325.66666666667 325 313 C 293.66666666667 299.66666666667 257 293 215 293 L 94 293 Z"/>
    <path fill="#000000" stroke="none" transform="matrix(1 0 0 -1 6810 1200)" d="M 90 501 L 90 511 L 174 511 L 200 662 L 210 660 L 184 511 L 352 511 L 352 501 L 183 501 L 116 112 C 114 101.33333333333 112.66666666667 89.33333333333 112 76 C 110.66666666667 62.66666666667 111.33333333333 50.33333333333 114 39 C 116.66666666667 27 121.66666666667 17.33333333333 129 10 C 136.33333333333 2 148 -2 164 -2 C 176.66666666667 -2 189.33333333333 2.33333333333 202 11 C 214.66666666667 19.66666666667 226.66666666667 30.33333333333 238 43 C 249.33333333333 55 259.66666666667 68 269 82 C 277.66666666667 95.33333333333 284.66666666667 107 290 117 L 298 113 C 292 101.66666666667 284.33333333333 89 275 75 C 265.66666666667 60.33333333333 255.33333333333 46.66666666667 244 34 C 232 20.66666666667 219.33333333333 9.66666666667 206 1 C 192 -7.66666666667 178 -12 164 -12 C 146 -12 132.66666666667 -7.66666666667 124 1 C 114.66666666667 9 108.33333333333 19.33333333333 105 32 C 101.66666666667 44.66666666667 100.66666666667 58.33333333333 102 73 C 102.66666666667 87.66666666667 104 101.33333333333 106 114 L 172 501 L 90 501 Z"/>
    <path fill="#000000" stroke="none" transform="matrix(1 0 0 -1 7164 1200)" d="M 433 522 L 441 516 L 244 273 L 380 2 L 372 -2 L 235 269 L 229 269 L 25 -3 L 17 3 L 220 275 L 99 517 L 107 521 L 229 279 L 236 279 L 433 522 Z"/>
    <path fill="#000000" stroke="none" transform="matrix(1 0 0 -1 7639 1200)" d="M 111 184 L 85 -1 L 75 1 L 147 520 L 157 518 L 115 216 C 122.33333333333 232 132 250.33333333333 144 271 C 156 291 169.66666666667 312.33333333333 185 335 C 200.33333333333 357 216.66666666667 379 234 401 C 251.33333333333 422.33333333333 269 442 287 460 C 304.33333333333 478 321.66666666667 493.33333333333 339 506 C 356.33333333333 518 372.33333333333 525.66666666667 387 529 L 388 529 C 401.33333333333 529 412 524.33333333333 420 515 C 427.33333333333 505 432.66666666667 493.33333333333 436 480 C 439.33333333333 466.66666666667 441 453 441 439 C 441 424.33333333333 440.33333333333 412.33333333333 439 403 L 379 -1 L 369 1 L 429 405 C 430.33333333333 412.33333333333 431 422.33333333333 431 435 C 431 447.66666666667 429.66666666667 460.33333333333 427 473 C 424.33333333333 485.66666666667 420.33333333333 496.66666666667 415 506 C 409 514.66666666667 400.33333333333 519 389 519 C 373.66666666667 515.66666666667 357.33333333333 507.33333333333 340 494 C 322 480.66666666667 304 464.33333333333 286 445 C 267.33333333333 425.66666666667 249 404.33333333333 231 381 C 213 357.66666666667 196.33333333333 334.33333333333 181 311 C 165.66666666667 287 152 264 140 242 C 128 220 118.66666666667 200.66666666667 112 184 L 111 184 Z"/>
    <path fill="#000000" stroke="none" transform="matrix(1 0 0 -1 8154 1200)" d="M 341 112 C 333 99.33333333333 323.33333333333 86 312 72 C 300 57.33333333333 287 44 273 32 C 259 19.33333333333 244.33333333333 9 229 1 C 213 -7.66666666667 197 -12 181 -12 C 161 -12 144.66666666667 -6.66666666667 132 4 C 118.66666666667 14.66666666667 108 28 100 44 C 92 59.33333333333 86.33333333333 76.33333333333 83 95 C 79.66666666667 113.66666666667 78 131 78 147 C 78 171 79.66666666667 197 83 225 C 85.66666666667 252.33333333333 90.66666666667 280 98 308 C 104.66666666667 336 114 363 126 389 C 137.33333333333 414.33333333333 151.66666666667 437 169 457 C 185.66666666667 477 205.66666666667 493 229 505 C 252.33333333333 517 279 523 309 523 C 322.33333333333 523 335.33333333333 521 348 517 C 360.66666666667 513 373.33333333333 508.66666666667 386 504 L 382 494 C 370.66666666667 498.66666666667 359 503 347 507 C 335 511 322.33333333333 513 309 513 C 279.66666666667 513 254 507.33333333333 232 496 C 209.33333333333 484 190 468.33333333333 174 449 C 157.33333333333 429 143.66666666667 406.33333333333 133 381 C 121.66666666667 355.66666666667 112.66666666667 329.66666666667 106 303 C 99.33333333333 275.66666666667 94.66666666667 248.66666666667 92 222 C 89.33333333333 194.66666666667 88 169.66666666667 88 147 C 88 132.33333333333 89.66666666667 116.33333333333 93 99 C 95.66666666667 81.66666666667 100.66666666667 65.66666666667 108 51 C 114.66666666667 35.66666666667 124 23 136 13 C 148 3 163 -2 181 -2 C 196.33333333333 -2 211.66666666667 2 227 10 C 241.66666666667 18 255.66666666667 28 269 40 C 282.33333333333 52 294.66666666667 65 306 79 C 316.66666666667 93 325.66666666667 106 333 118 L 341 112 Z"/>
    <path fill="#000000" stroke="none" transform="matrix(1 0 0 -1 8585 1200)" d="M 183 803 L 82 -1 L 72 1 L 173 805 L 183 803 Z M 112 203 C 124 231 139.33333333333 261.66666666667 158 295 C 176.66666666667 328.33333333333 198 360.66666666667 222 392 C 245.33333333333 422.66666666667 271 450.33333333333 299 475 C 326.33333333333 499 355.33333333333 515.66666666667 386 525 L 387 525 C 398.33333333333 525 408 522.33333333333 416 517 C 424 511 430.33333333333 503.66666666667 435 495 C 439.66666666667 485.66666666667 443 475.66666666667 445 465 C 447 454.33333333333 448 444.33333333333 448 435 C 448 406.33333333333 441.66666666667 381.33333333333 429 360 C 415.66666666667 338.66666666667 399.33333333333 319.66666666667 380 303 C 360.66666666667 285.66666666667 340 270 318 256 C 295.33333333333 241.33333333333 274.33333333333 226.33333333333 255 211 C 273 171 295.33333333333 133.66666666667 322 99 C 348.66666666667 64.33333333333 376 30 404 -4 L 396 -10 C 368 24.66666666667 340.33333333333 59.66666666667 313 95 C 285.66666666667 130.33333333333 262.66666666667 168.66666666667 244 210 L 246 216 C 264 230.66666666667 284.33333333333 245.33333333333 307 260 C 329 274 350 289.66666666667 370 307 C 389.33333333333 323.66666666667 405.66666666667 342.33333333333 419 363 C 431.66666666667 383.66666666667 438 407.66666666667 438 435 C 438 442.33333333333 437.33333333333 450.66666666667 436 460 C 434 469.33333333333 431 478 427 486 C 423 494 418 501 412 507 C 405.33333333333 512.33333333333 397.33333333333 515 388 515 C 358.66666666667 506.33333333333 330.66666666667 490 304 466 C 276.66666666667 442 251.66666666667 414.66666666667 229 384 C 205.66666666667 353.33333333333 185 321.66666666667 167 289 C 148.33333333333 256.33333333333 133.33333333333 226.33333333333 122 199 L 112 203 Z"/>
    <path fill="#000000" stroke="none" transform="matrix(1 0 0 -1 9095 1200)" d="M 50 515 L 50 525 L 147 525 L 152 519 L 102 70 C 98.66666666667 40 94.33333333333 11.33333333333 89 -16 C 83.66666666667 -44 75.66666666667 -70.33333333333 65 -95 C 54.33333333333 -120.33333333333 40.66666666667 -144 24 -166 C 7.33333333333 -188 -14 -208.33333333333 -40 -227 L -46 -219 C -20.66666666667 -201 0.33333333333 -181.33333333333 17 -160 C 33 -138.66666666667 46 -115.66666666667 56 -91 C 66 -66.33333333333 73.66666666667 -40.33333333333 79 -13 C 84.33333333333 14.33333333333 88.66666666667 42.66666666667 92 72 L 141 515 L 50 515 Z M 181 700 C 181 681.33333333333 171.66666666667 672 153 672 C 134.33333333333 672 125 681.33333333333 125 700 C 125 718.66666666667 134.33333333333 728 153 728 C 171.66666666667 728 181 718.66666666667 181 700 Z"/>
    <path fill="#000000" stroke="none" transform="matrix(1 0 0 -1 9503 1200)" d="M 392 508 C 275.33333333333 510 190 481.66666666667 136 423 C 81.33333333333 364.33333333333 54 278 54 164 C 54 150.66666666667 54.66666666667 136.66666666667 56 122 C 56.66666666667 107.33333333333 58.66666666667 92.66666666667 62 78 C 64.66666666667 63.33333333333 69 49.33333333333 75 36 C 80.33333333333 22.66666666667 87.66666666667 11 97 1 C 126.33333333333 22.33333333333 154.66666666667 48.66666666667 182 80 C 208.66666666667 110.66666666667 234 144 258 180 C 282 215.33333333333 304 251.33333333333 324 288 C 344 324 362 358 378 390 L 392 508 Z M 374 361 C 370.66666666667 353.66666666667 367 346.33333333333 363 339 C 359 331 355 323.33333333333 351 316 L 351 307 L 346 307 C 330 277.66666666667 313 248 295 218 C 276.33333333333 188 256.66666666667 159 236 131 C 215.33333333333 103 193.66666666667 77 171 53 C 147.66666666667 29 123.66666666667 8 99 -10 L 92 -9 C 81.33333333333 1.66666666667 73 14 67 28 C 60.33333333333 42 55.33333333333 56.66666666667 52 72 C 48.66666666667 87.33333333333 46.66666666667 103 46 119 C 44.66666666667 134.33333333333 44 149.33333333333 44 164 C 44 283.33333333333 73 372.66666666667 131 432 C 188.33333333333 491.33333333333 277.33333333333 520 398 518 L 403 512 L 388 389 L 388 387 L 387 387 L 313 -220 L 303 -218 L 374 361 Z"/>
    <path fill="#000000" stroke="none" transform="matrix(1 0 0 -1 9974 1200)" d="M 178 718 L 175 718 L 175 710 L 178 710 L 178 718 Z M 145 520 L 155 518 L 94 -1 L 84 1 L 145 520 Z M 203 700 C 203 681.33333333333 193.66666666667 672 175 672 C 156.33333333333 672 147 681.33333333333 147 700 C 147 718.66666666667 156.33333333333 728 175 728 C 193.66666666667 728 203 718.66666666667 203 700 Z"/>
    <path fill="#000000" stroke="none" transform="matrix(1 0 0 -1 10210 1200)" d="M 433 522 L 441 516 L 244 273 L 380 2 L 372 -2 L 235 269 L 229 269 L 25 -3 L 17 3 L 220 275 L 99 517 L 107 521 L 229 279 L 236 279 L 433 522 Z"/>
    <path fill="#000000" stroke="none" transform="matrix(1 0 0 -1 10685 1200)" d="M 401 346 C 404.33333333333 374 407.33333333333 402.33333333333 410 431 C 412.66666666667 459 415.33333333333 487 418 515 L 383 515 C 335 515 292.66666666667 505 256 485 C 219.33333333333 465 188.66666666667 438.66666666667 164 406 C 138.66666666667 372.66666666667 119.66666666667 335.33333333333 107 294 C 94.33333333333 252.66666666667 88 210.33333333333 88 167 C 88 156.33333333333 88.66666666667 142.66666666667 90 126 C 91.33333333333 109.33333333333 94 92.66666666667 98 76 C 101.33333333333 58.66666666667 106.33333333333 43 113 29 C 119 15 127.33333333333 5.33333333333 138 0 C 150 9.33333333333 163.66666666667 22.66666666667 179 40 C 194.33333333333 56.66666666667 210.33333333333 75.33333333333 227 96 C 243 116.66666666667 259.66666666667 138.66666666667 277 162 C 293.66666666667 185.33333333333 309.66666666667 208.33333333333 325 231 C 340.33333333333 253 354.66666666667 274.33333333333 368 295 C 381.33333333333 315 392.33333333333 332 401 346 Z M 361 1 C 367.66666666667 55 374.33333333333 108.66666666667 381 162 C 387 215.33333333333 393 269 399 323 C 383.66666666667 299 365 271 343 239 C 321 207 298.33333333333 175 275 143 C 251.66666666667 111 228.33333333333 81.33333333333 205 54 C 181.66666666667 26 160.66666666667 4.66666666667 142 -10 L 137 -11 C 124.33333333333 -5.66666666667 114.33333333333 4.33333333333 107 19 C 99 33.66666666667 93 50 89 68 C 84.33333333333 86 81.33333333333 104 80 122 C 78.66666666667 140 78 155 78 167 C 78 211.66666666667 84.66666666667 255.33333333333 98 298 C 111.33333333333 340.66666666667 131 379 157 413 C 182.33333333333 446.33333333333 214 473.33333333333 252 494 C 290 514.66666666667 333.66666666667 525 383 525 L 423 525 L 428 520 C 420.66666666667 432.66666666667 412 346 402 260 C 392 173.33333333333 381.66666666667 86.33333333333 371 -1 L 361 1 Z"/>
    <path fill="#000000" stroke="none" transform="matrix(1 0 0 -1 11165 1200)" d="M 5 -1 L -5 1 L 63 522 L 73 520 L 29 182 C 37 204 46.66666666667 228.33333333333 58 255 C 69.33333333333 281 82 307.33333333333 96 334 C 109.33333333333 360 124.33333333333 385 141 409 C 157 433 174.66666666667 454 194 472 C 212.66666666667 490 232.33333333333 504 253 514 C 273.66666666667 523.33333333333 295.33333333333 526.66666666667 318 524 L 316 514 C 292 516.66666666667 269 512 247 500 C 225 487.33333333333 204.33333333333 470 185 448 C 165 426 146.66666666667 401 130 373 C 112.66666666667 344.33333333333 97.33333333333 315.66666666667 84 287 C 70 257.66666666667 58 229.66666666667 48 203 C 37.33333333333 175.66666666667 29 152.66666666667 23 134 L 5 -1 Z"/>
    <path fill="#000000" stroke="none" transform="matrix(1 0 0 -1 11459 1200)" d="M 71 -1 L 61 1 L 161 805 L 171 803 L 93 179 C 111 214.33333333333 130 250.33333333333 150 287 C 170 323 192.66666666667 357.33333333333 218 390 C 242.66666666667 422 270.66666666667 450.66666666667 302 476 C 333.33333333333 501.33333333333 369 520 409 532 L 413 531 C 422.33333333333 523 428.66666666667 512 432 498 C 435.33333333333 484 437 469.33333333333 437 454 C 437 438.66666666667 436 423.66666666667 434 409 C 431.33333333333 393.66666666667 429 380.33333333333 427 369 L 361 -1 L 351 1 L 417 371 C 419 380.33333333333 421 392.33333333333 423 407 C 425 421 426.33333333333 435.33333333333 427 450 C 427.66666666667 464 426.66666666667 477.66666666667 424 491 C 421.33333333333 503.66666666667 416.33333333333 513.66666666667 409 521 C 369 509 333 489.66666666667 301 463 C 269 435.66666666667 240.33333333333 404.66666666667 215 370 C 189.66666666667 334.66666666667 167 298 147 260 C 126.33333333333 221.33333333333 107.33333333333 184.33333333333 90 149 L 71 -1 Z"/>
    <path fill="#000000" stroke="none" transform="matrix(1 0 0 -1 12155 1200)" d="M 95 525 C 113.66666666667 525 138 524.33333333333 168 523 C 197.33333333333 521.66666666667 227.33333333333 521 258 521 C 286.66666666667 521 313.66666666667 522 339 524 C 364.33333333333 526 384 530 398 536 L 404 528 L 20 13 C 31.33333333333 19.66666666667 42.33333333333 24.33333333333 53 27 C 63.66666666667 29 74.33333333333 30 85 30 C 99.66666666667 30 114 28.33333333333 128 25 C 142 21 156 17 170 13 C 183.33333333333 9 197 5.33333333333 211 2 C 225 -2 239 -4 253 -4 C 280.33333333333 -4 302 1.33333333333 318 12 C 333.33333333333 22 345.66666666667 35.33333333333 355 52 C 363.66666666667 68 370 86.66666666667 374 108 C 378 128.66666666667 382 149.33333333333 386 170 L 396 168 C 392 146 387.66666666667 124 383 102 C 377.66666666667 80 370.33333333333 60.66666666667 361 44 C 351 26.66666666667 337.66666666667 12.66666666667 321 2 C 304.33333333333 -8.66666666667 281.66666666667 -14 253 -14 C 238.33333333333 -14 224 -12 210 -8 C 196 -4.66666666667 182 -1 168 3 C 154 7 140.33333333333 11 127 15 C 113.66666666667 18.33333333333 100 20 86 20 C 72.66666666667 20 59.33333333333 17.66666666667 46 13 C 32 8.33333333333 17.33333333333 0.33333333333 2 -11 L -5 -4 L 387 521 C 371.66666666667 517 354 514.33333333333 334 513 C 313.33333333333 511.66666666667 291.66666666667 511 269 511 C 237.66666666667 511 206.66666666667 511.66666666667 176 513 C 144.66666666667 514.33333333333 117.66666666667 515 95 515 L 95 525 Z"/>
    <path fill="#000000" stroke="none" transform="matrix(1 0 0 -1 12616 1200)" d="M 83 17 C 95.66666666667 13 109.66666666667 9.66666666667 125 7 C 139.66666666667 3.66666666667 153.33333333333 2 166 2 C 196 2 223 8 247 20 C 270.33333333333 31.33333333333 291 46.66666666667 309 66 C 327 84.66666666667 342.66666666667 106.66666666667 356 132 C 368.66666666667 157.33333333333 379.33333333333 183.66666666667 388 211 C 396 238.33333333333 402 266 406 294 C 410 321.33333333333 412 347 412 371 C 412 383 411.66666666667 396 411 410 C 409.66666666667 423.33333333333 407.33333333333 436.66666666667 404 450 C 400.66666666667 463.33333333333 396 476 390 488 C 384 500 376 510 366 518 C 334 493.33333333333 304.66666666667 465.66666666667 278 435 C 250.66666666667 403.66666666667 225.66666666667 370.66666666667 203 336 C 180.33333333333 301.33333333333 160.33333333333 265.33333333333 143 228 C 125 190.66666666667 109 153.33333333333 95 116 L 83 17 Z M 54 -214 L 44 -212 L 85 118 L 86 118 L 136 521 L 146 519 L 101 157 C 129 227.66666666667 164.66666666667 295.66666666667 208 361 C 251.33333333333 426.33333333333 303 482 363 528 L 369 528 C 380.33333333333 520 389.66666666667 509.66666666667 397 497 C 403.66666666667 484.33333333333 409 471 413 457 C 416.33333333333 442.33333333333 418.66666666667 427.66666666667 420 413 C 421.33333333333 398.33333333333 422 384.33333333333 422 371 C 422 333 417.33333333333 292 408 248 C 398.66666666667 204 384 163 364 125 C 343.33333333333 87 316.66666666667 55.33333333333 284 30 C 251.33333333333 4.66666666667 212 -8 166 -8 C 152.66666666667 -8 138.66666666667 -6.33333333333 124 -3 C 108.66666666667 -0.33333333333 94.66666666667 3 82 7 L 54 -214 Z"/>
    <path fill="#000000" stroke="none" transform="matrix(1 0 0 -1 13128 1200)" d="M 219 43 C 241 77 261.33333333333 112.33333333333 280 149 C 298.66666666667 185 314.66666666667 220.33333333333 328 255 C 340.66666666667 289.66666666667 350.66666666667 323 358 355 C 365.33333333333 386.33333333333 369 414.66666666667 369 440 C 369 454 367 467.66666666667 363 481 C 359 493.66666666667 352.33333333333 505.66666666667 343 517 L 351 523 C 361 511.66666666667 368.33333333333 499 373 485 C 377 470.33333333333 379 455.33333333333 379 440 C 379 404 372.33333333333 362.33333333333 359 315 C 345 267.66666666667 326 219 302 169 C 277.33333333333 119 248.66666666667 70 216 22 C 183.33333333333 -26 148.33333333333 -69 111 -107 C 73.66666666667 -145 34.66666666667 -175.66666666667 -6 -199 C -47.33333333333 -222.33333333333 -88 -234 -128 -234 C -152.66666666667 -234 -177 -229.33333333333 -201 -220 L -197 -210 C -174.33333333333 -219.33333333333 -151.33333333333 -224 -128 -224 C -98 -224 -68 -217 -38 -203 C -8 -189.66666666667 21.66666666667 -171.33333333333 51 -148 C 80.33333333333 -124.66666666667 108.66666666667 -97.33333333333 136 -66 C 162.66666666667 -35.33333333333 188 -2.33333333333 212 33 L 35 518 L 45 522 L 219 43 Z"/>
    <path fill="#000000" stroke="none" transform="matrix(1 0 0 -1 13542 1200)" d="M 95 221 C 117.66666666667 228.33333333333 141.33333333333 237.33333333333 166 248 C 190.66666666667 258.66666666667 214.66666666667 271 238 285 C 261.33333333333 298.33333333333 283.33333333333 313.33333333333 304 330 C 324 346.66666666667 341 364.66666666667 355 384 C 362.33333333333 393.33333333333 368.66666666667 404 374 416 C 378.66666666667 427.33333333333 381 439 381 451 C 381 471.66666666667 374 487.33333333333 360 498 C 345.33333333333 508.66666666667 328.33333333333 514 309 514 C 278.33333333333 514 251 504.66666666667 227 486 C 202.33333333333 467.33333333333 181.33333333333 443.66666666667 164 415 C 146 386.33333333333 131.33333333333 354.66666666667 120 320 C 108.66666666667 285.33333333333 100.33333333333 252.33333333333 95 221 Z M 353 120 C 345 104 335.66666666667 88.33333333333 325 73 C 314.33333333333 57.66666666667 302.33333333333 44 289 32 C 275.66666666667 19.33333333333 261 9.33333333333 245 2 C 229 -6 211.33333333333 -10 192 -10 C 170 -10 151.66666666667 -5 137 5 C 122.33333333333 14.33333333333 110.66666666667 26.66666666667 102 42 C 93.33333333333 57.33333333333 87.33333333333 74.66666666667 84 94 C 80 112.66666666667 78 131 78 149 C 78 169.66666666667 80.33333333333 193.33333333333 85 220 C 89 246.66666666667 95.33333333333 274 104 302 C 112 329.33333333333 122.33333333333 356.33333333333 135 383 C 147.66666666667 409.66666666667 162.66666666667 433.66666666667 180 455 C 196.66666666667 475.66666666667 216 492.33333333333 238 505 C 259.33333333333 517.66666666667 283 524 309 524 C 331 524 350.33333333333 517.66666666667 367 505 C 383 492.33333333333 391 474.33333333333 391 451 C 391 437.66666666667 388.33333333333 425.33333333333 383 414 C 377.66666666667 402 371.33333333333 391 364 381 C 350 360.33333333333 332.33333333333 341.33333333333 311 324 C 289.66666666667 306.66666666667 267 290.66666666667 243 276 C 218.33333333333 261.33333333333 193.33333333333 248.66666666667 168 238 C 142 226.66666666667 117 217.33333333333 93 210 C 91.66666666667 198.66666666667 90.66666666667 188 90 178 C 88.66666666667 168 88 158.33333333333 88 149 C 88 132.33333333333 89.66666666667 115.33333333333 93 98 C 95.66666666667 80 101 64 109 50 C 117 35.33333333333 127.66666666667 23.33333333333 141 14 C 154.33333333333 4.66666666667 171.33333333333 0 192 0 C 210 0 226.66666666667 3.66666666667 242 11 C 257.33333333333 18.33333333333 271.33333333333 28 284 40 C 296.66666666667 52 308 65.33333333333 318 80 C 328 94.66666666667 337 109.33333333333 345 124 L 353 120 Z"/>
    <path fill="#000000" stroke="none" transform="matrix(1 0 0 -1 13974 1200)" d="M -44 -133 C -32 -165 -13 -189 13 -205 C 38.33333333333 -221 67.66666666667 -229 101 -229 C 130.33333333333 -229 156.66666666667 -223 180 -211 C 202.66666666667 -199 222.66666666667 -183 240 -163 C 257.33333333333 -143.66666666667 272.33333333333 -121 285 -95 C 297.66666666667 -69.66666666667 308.33333333333 -43.33333333333 317 -16 C 325.66666666667 11.33333333333 332.66666666667 38.66666666667 338 66 C 343.33333333333 93.33333333333 347.66666666667 118.33333333333 351 141 L 383 365 C 366.33333333333 340.33333333333 348 312.66666666667 328 282 C 308 250.66666666667 287 220 265 190 C 243 159.33333333333 220.33333333333 131 197 105 C 173.66666666667 79 150 58.33333333333 126 43 L -44 -133 Z M 404 516 L 346 516 C 302 516 263.66666666667 506.33333333333 231 487 C 198.33333333333 467.66666666667 171 442.33333333333 149 411 C 127 379.66666666667 110.66666666667 344.66666666667 100 306 C 89.33333333333 267.33333333333 84 228.33333333333 84 189 C 84 175 85 162.33333333333 87 151 C 88.33333333333 139 90.66666666667 128 94 118 C 97.33333333333 107.33333333333 101.66666666667 97 107 87 C 111.66666666667 77 117.66666666667 66 125 54 L 127 56 C 151 72.66666666667 175 94.66666666667 199 122 C 222.33333333333 149.33333333333 245 178.66666666667 267 210 C 289 240.66666666667 310 272 330 304 C 350 335.33333333333 368.66666666667 363.33333333333 386 388 L 404 516 Z M 117 48 C 109.66666666667 60 103.33333333333 71.33333333333 98 82 C 92.66666666667 92.66666666667 88.33333333333 103.66666666667 85 115 C 81 125.66666666667 78.33333333333 137 77 149 C 75 161 74 174.33333333333 74 189 C 74 229.66666666667 79.66666666667 270 91 310 C 102.33333333333 350 119.33333333333 386 142 418 C 164.66666666667 450 193 476 227 496 C 261 516 300.66666666667 526 346 526 L 410 526 L 415 520 L 361 139 C 357.66666666667 115 353.33333333333 89 348 61 C 342 33 334.66666666667 5 326 -23 C 316.66666666667 -51 305.66666666667 -78 293 -104 C 279.66666666667 -130 264 -153 246 -173 C 227.33333333333 -193 206.33333333333 -209 183 -221 C 159 -233 131.66666666667 -239 101 -239 C 65 -239 33.33333333333 -230 6 -212 C -22 -194 -42.33333333333 -168 -55 -134 L -52 -127 L 117 48 Z"/>
    <path fill="#000000" stroke="none" transform="matrix(1 0 0 -1 14457 1200)" d="M 50 515 L 50 525 L 147 525 L 152 519 L 102 70 C 98.66666666667 40 94.33333333333 11.33333333333 89 -16 C 83.66666666667 -44 75.66666666667 -70.33333333333 65 -95 C 54.33333333333 -120.33333333333 40.66666666667 -144 24 -166 C 7.33333333333 -188 -14 -208.33333333333 -40 -227 L -46 -219 C -20.66666666667 -201 0.33333333333 -181.33333333333 17 -160 C 33 -138.66666666667 46 -115.66666666667 56 -91 C 66 -66.33333333333 73.66666666667 -40.33333333333 79 -13 C 84.33333333333 14.33333333333 88.66666666667 42.66666666667 92 72 L 141 515 L 50 515 Z M 181 700 C 181 681.33333333333 171.66666666667 672 153 672 C 134.33333333333 672 125 681.33333333333 125 700 C 125 718.66666666667 134.33333333333 728 153 728 C 171.66666666667 728 181 718.66666666667 181 700 Z"/>
</svg>
