<svg width="17701" height="2010" viewBox="0 0 17701 2010" xmlns="http://www.w3.org/2000/svg">
    <defs/>
    <path fill="#000000" stroke="none" transform="matrix(1 0 0 -1 0 1270)" d="M 104 325 L 268 325 C 298.66666666667 325 330.66666666667 327.33333333333 364 332 C 396.66666666667 336 426.66666666667 344.66666666667 454 358 C 481.33333333333 370.66666666667 504 389 522 413 C 539.33333333333 437 548 468.33333333333 548 507 C 548 541 542 570 530 594 C 517.33333333333 617.33333333333 500.66666666667 636.66666666667 480 652 C 458.66666666667 666.66666666667 434.33333333333 677.66666666667 407 685 C 379 691.66666666667 350 695 320 695 L 104 695 L 104 325 Z M 104 0 L 94 0 L 94 700 L 99 705 L 320 705 C 351.33333333333 705 381.33333333333 701.33333333333 410 694 C 438.66666666667 686.66666666667 464 675 486 659 C 508 643 525.66666666667 622.66666666667 539 598 C 551.66666666667 572.66666666667 558 542.33333333333 558 507 C 558 467 549 434.66666666667 531 410 C 513 384.66666666667 490 365 462 351 C 433.33333333333 337 402 327.66666666667 368 323 C 333.33333333333 317.66666666667 300 315 268 315 L 104 315 L 104 0 Z"/>
    <path fill="#000000" stroke="none" transform="matrix(1 0 0 -1 501 1270)" d="M 467 700 L 467 305 C 467 265.66666666667 465 226.66666666667 461 188 C 457 149.33333333333 448 114.66666666667 434 84 C 420 52.66666666667 399.33333333333 27.33333333333 372 8 C 344 -11.33333333333 306 -21 258 -21 C 232 -21 206.66666666667 -17.66666666667 182 -11 C 157.33333333333 -5 135.66666666667 5 117 19 C 98.33333333333 32.33333333333 83.33333333333 49.66666666667 72 71 C 60.66666666667 91.66666666667 55 116.66666666667 55 146 C 55 170 59.33333333333 192 68 212 L 78 208 C 69.33333333333 188.66666666667 65 168 65 146 C 65 118 70.33333333333 94 81 74 C 91.66666666667 54 106 38 124 26 C 142 13.33333333333 162.66666666667 4 186 -2 C 209.33333333333 -8 233.33333333333 -11 258 -11 C 276.66666666667 -11 295.33333333333 -9 314 -5 C 332 -1.66666666667 349 4.66666666667 365 14 C 386.33333333333 27.33333333333 403.33333333333 45.66666666667 416 69 C 428 92.33333333333 437 117.66666666667 443 145 C 449 172.33333333333 453 200.33333333333 455 229 C 456.33333333333 257 457 282.33333333333 457 305 L 457 700 L 467 700 Z"/>
    <path fill="#000000" stroke="none" transform="matrix(1 0 0 -1 1024 1270)" d="M 592 698 L 308 -10 L 298 -10 L 12 698 L 22 702 L 303 5 L 582 702 L 592 698 Z"/>
    <path fill="#000000" stroke="none" transform="matrix(1 0 0 -1 1628 1270)" d="M 624 700 L 624 -8 L 615 -11 L 104 693 L 104 0 L 94 0 L 94 708 L 103 711 L 614 7 L 614 700 L 624 700 Z"/>
    <path fill="#000000" stroke="none" transform="matrix(1 0 0 -1 2346 1270)" d="M 624 700 L 624 -8 L 615 -11 L 104 693 L 104 0 L 94 0 L 94 708 L 103 711 L 614 7 L 614 700 L 624 700 Z"/>
    <path fill="#000000" stroke="none" transform="matrix(1 0 0 -1 3064 1270)" d="M 508 703 L 516 697 L 278 364 L 526 3 L 518 -3 L 272 356 L 16 -3 L 8 3 L 266 364 L 38 697 L 46 703 L 272 373 L 508 703 Z"/>
    <path fill="#000000" stroke="none" transform="matrix(1 0 0 -1 3883 1270)" d="M 286 695 L 11 695 L 11 705 L 571 705 L 571 695 L 296 695 L 296 0 L 286 0 L 286 695 Z"/>
    <path fill="#000000" stroke="none" transform="matrix(1 0 0 -1 4415 1270)" d="M 373 -11 C 424.33333333333 -11 469.66666666667 -0.66666666667 509 20 C 548.33333333333 40.66666666667 581.66666666667 68 609 102 C 635.66666666667 136 656 175.33333333333 670 220 C 683.33333333333 264 690 309.66666666667 690 357 C 690 405 683.33333333333 450.66666666667 670 494 C 656 536.66666666667 635.66666666667 574 609 606 C 581.66666666667 638 548.33333333333 663.66666666667 509 683 C 469.66666666667 701.66666666667 424.33333333333 711 373 711 C 321 711 275.66666666667 701.66666666667 237 683 C 197.66666666667 664.33333333333 165 639 139 607 C 113 574.33333333333 93.66666666667 536.66666666667 81 494 C 67.66666666667 450.66666666667 61 405 61 357 C 61 308.33333333333 67.33333333333 261.66666666667 80 217 C 92 172.33333333333 111 133.33333333333 137 100 C 162.33333333333 66 194.66666666667 39 234 19 C 272.66666666667 -1 319 -11 373 -11 Z M 381 -21 C 324.33333333333 -21 275.33333333333 -11 234 9 C 192.66666666667 28.33333333333 158.66666666667 55.33333333333 132 90 C 104.66666666667 124 84.33333333333 164 71 210 C 57.66666666667 256 51 305 51 357 C 51 407 58 454 72 498 C 85.33333333333 542 105.66666666667 580.66666666667 133 614 C 159.66666666667 646.66666666667 193 672.66666666667 233 692 C 273 711.33333333333 319.66666666667 721 373 721 C 425.66666666667 721 472.33333333333 711.33333333333 513 692 C 553.66666666667 672.66666666667 588 646.66666666667 616 614 C 643.33333333333 580.66666666667 664.33333333333 542 679 498 C 693 453.33333333333 700 406.33333333333 700 357 C 700 309.66666666667 693.33333333333 264 680 220 C 666.66666666667 175.33333333333 647 135.66666666667 621 101 C 594.33333333333 66.33333333333 562 38 524 16 C 485.33333333333 -6 441 -18.33333333333 391 -21 C 387 -47 388.66666666667 -71.33333333333 396 -94 C 403.33333333333 -116.66666666667 415 -136.33333333333 431 -153 C 446.33333333333 -169.66666666667 465.33333333333 -182.66666666667 488 -192 C 510 -201.33333333333 534 -206 560 -206 C 580 -206 600 -203.33333333333 620 -198 C 640 -192.66666666667 659 -185.33333333333 677 -176 L 681 -184 C 662.33333333333 -193.33333333333 643 -201 623 -207 C 602.33333333333 -213 581.33333333333 -216 560 -216 C 532.66666666667 -216 507.33333333333 -211 484 -201 C 460 -191 440 -177.33333333333 424 -160 C 407.33333333333 -142.66666666667 395 -122 387 -98 C 379 -74.66666666667 377 -49 381 -21 Z"/>
    <path fill="#000000" stroke="none" transform="matrix(1 0 0 -1 5166 1270)" d="M 104 355 L 104 0 L 94 0 L 94 700 L 99 705 L 569 705 L 569 695 L 104 695 L 104 365 L 469 365 L 469 355 L 104 355 Z"/>
    <path fill="#000000" stroke="none" transform="matrix(1 0 0 -1 5754 1270)" d="M 104 5 L 317 5 C 347 5 377.33333333333 7.33333333333 408 12 C 438.66666666667 16 466.33333333333 24.33333333333 491 37 C 515.66666666667 49.66666666667 535.66666666667 67.66666666667 551 91 C 566.33333333333 113.66666666667 574 143.66666666667 574 181 C 574 217 566 245.33333333333 550 266 C 533.33333333333 286.66666666667 512.66666666667 302.33333333333 488 313 C 462.66666666667 323.66666666667 435 331 405 335 C 375 339 346.33333333333 342.33333333333 319 345 L 104 345 L 104 5 Z M 104 355 L 319 355 C 347.66666666667 357 376 360.66666666667 404 366 C 432 370.66666666667 457 379 479 391 C 501 403 519 420 533 442 C 546.33333333333 463.33333333333 553 491.66666666667 553 527 C 553 559 547.33333333333 586 536 608 C 524.66666666667 629.33333333333 509.66666666667 646.66666666667 491 660 C 471.66666666667 672.66666666667 449.33333333333 681.66666666667 424 687 C 398.66666666667 692.33333333333 372 695 344 695 L 104 695 L 104 355 Z M 99 -5 L 99 0 L 94 0 L 94 700 L 99 705 L 344 705 C 373.33333333333 705 401.33333333333 702 428 696 C 454.66666666667 690 478 680 498 666 C 518 652 534 633.66666666667 546 611 C 557.33333333333 588.33333333333 563 560.33333333333 563 527 C 563 496.33333333333 558 470.66666666667 548 450 C 538 428.66666666667 524.33333333333 411.33333333333 507 398 C 489 384 468.33333333333 373.33333333333 445 366 C 421.66666666667 358.66666666667 396.33333333333 353.33333333333 369 350 C 395.66666666667 347.33333333333 422 343 448 337 C 473.33333333333 331 496.33333333333 322 517 310 C 537 297.33333333333 553.33333333333 280.66666666667 566 260 C 578 239.33333333333 584 213 584 181 C 584 142.33333333333 576 111 560 87 C 544 62.33333333333 523.33333333333 43.33333333333 498 30 C 472.66666666667 16 444.33333333333 6.66666666667 413 2 C 381 -2.66666666667 349 -5 317 -5 L 99 -5 Z"/>
    <path fill="#000000" stroke="none" transform="matrix(1 0 0 -1 6390 1270)" d="M 104 355 L 104 0 L 94 0 L 94 700 L 104 700 L 104 365 L 614 365 L 614 700 L 624 700 L 624 0 L 614 0 L 614 355 L 104 355 Z"/>
    <path fill="#000000" stroke="none" transform="matrix(1 0 0 -1 7108 1270)" d="M 104 700 L 104 0 L 94 0 L 94 700 L 104 700 Z"/>
    <path fill="#000000" stroke="none" transform="matrix(1 0 0 -1 7586 1270)" d="M 34 522 L 209 14 L 407 522 L 417 522 L 609 15 L 784 522 L 794 518 L 614 -2 L 604 -2 L 412 506 L 214 -2 L 204 -2 L 24 518 L 34 522 Z"/>
    <path fill="#000000" stroke="none" transform="matrix(1 0 0 -1 8404 1270)" d="M 494 175 C 480.66666666667 119 454 73.66666666667 414 39 C 373.33333333333 4.33333333333 319 -13 251 -13 C 212.33333333333 -13 181.33333333333 -6.66666666667 158 6 C 134.66666666667 18.66666666667 117 36 105 58 C 92.33333333333 80 84 105.66666666667 80 135 C 76 163.66666666667 74 194 74 226 L 74 520 L 84 520 L 84 226 C 84 195.33333333333 86 166.33333333333 90 139 C 93.33333333333 111 100.66666666667 86.66666666667 112 66 C 123.33333333333 44.66666666667 140.33333333333 28 163 16 C 185 3.33333333333 214.33333333333 -3 251 -3 C 292.33333333333 -3 328.33333333333 3.66666666667 359 17 C 389 30.33333333333 414 49 434 73 C 454 97 469 125.66666666667 479 159 C 489 191.66666666667 494 227.33333333333 494 266 L 494 520 L 504 520 L 504 266 L 504 260 L 504 0 L 494 0 L 494 175 Z"/>
    <path fill="#000000" stroke="none" transform="matrix(1 0 0 -1 8988 1270)" d="M 494 175 C 480.66666666667 119 454 73.66666666667 414 39 C 373.33333333333 4.33333333333 319 -13 251 -13 C 212.33333333333 -13 181.33333333333 -6.66666666667 158 6 C 134.66666666667 18.66666666667 117 36 105 58 C 92.33333333333 80 84 105.66666666667 80 135 C 76 163.66666666667 74 194 74 226 L 74 520 L 84 520 L 84 226 C 84 195.33333333333 86 166.33333333333 90 139 C 93.33333333333 111 100.66666666667 86.66666666667 112 66 C 123.33333333333 44.66666666667 140.33333333333 28 163 16 C 185 3.33333333333 214.33333333333 -3 251 -3 C 292.33333333333 -3 328.33333333333 3.66666666667 359 17 C 389 30.33333333333 414 49 434 73 C 454 97 469 125.66666666667 479 159 C 489 191.66666666667 494 227.33333333333 494 266 L 494 520 L 504 520 L 504 266 L 504 260 L 504 0 L 494 0 L 494 175 Z"/>
    <path fill="#000000" stroke="none" transform="matrix(1 0 0 -1 9572 1270)" d="M 12 515 L 12 525 L 116 525 L 116 574 C 116 596 117.33333333333 619.33333333333 120 644 C 122 668.66666666667 127.33333333333 691.33333333333 136 712 C 144.66666666667 732.66666666667 157.66666666667 750 175 764 C 191.66666666667 777.33333333333 214.33333333333 784 243 784 C 277.66666666667 784 308.33333333333 774 335 754 L 329 746 C 304.33333333333 764.66666666667 275.66666666667 774 243 774 C 216.33333333333 774 195.33333333333 767.66666666667 180 755 C 164 741.66666666667 152 725 144 705 C 136 685 131 663.33333333333 129 640 C 127 616.66666666667 126 594.66666666667 126 574 L 126 525 L 332 525 L 332 515 L 126 515 L 126 0 L 116 0 L 116 515 L 12 515 Z"/>
    <path fill="#000000" stroke="none" transform="matrix(1 0 0 -1 9902 1270)" d="M 291 545 C 279.66666666667 544.33333333333 265.66666666667 543.33333333333 249 542 C 231.66666666667 540 214 537.66666666667 196 535 C 177.33333333333 531.66666666667 159 527.33333333333 141 522 C 123 516.66666666667 107 510.33333333333 93 503 C 78.33333333333 495 66.66666666667 485.33333333333 58 474 C 48.66666666667 462.66666666667 44 449.66666666667 44 435 C 44 422.33333333333 47 411.66666666667 53 403 C 59 393.66666666667 66.66666666667 386.33333333333 76 381 C 84.66666666667 375 94.66666666667 370.66666666667 106 368 C 117.33333333333 365.33333333333 128.33333333333 364 139 364 C 157.66666666667 364 173.66666666667 365 187 367 C 200.33333333333 369 212.66666666667 372.66666666667 224 378 C 234.66666666667 382.66666666667 245.33333333333 389.33333333333 256 398 C 266.66666666667 406.66666666667 278.33333333333 417.33333333333 291 430 L 291 545 Z M 34 245 L 34 255 L 354 255 L 354 245 L 34 245 Z M 291 556 C 291 576.66666666667 289.66666666667 595.66666666667 287 613 C 284.33333333333 630.33333333333 279.33333333333 645.33333333333 272 658 C 264 670 252.66666666667 679.33333333333 238 686 C 223.33333333333 692.66666666667 203.33333333333 696 178 696 C 167.33333333333 696 155.33333333333 695 142 693 C 128.66666666667 690.33333333333 116 686.66666666667 104 682 C 91.33333333333 676.66666666667 80.33333333333 669.66666666667 71 661 C 61.66666666667 652.33333333333 55.33333333333 642 52 630 L 42 632 C 46 646 53 657.66666666667 63 667 C 73 676.33333333333 84.66666666667 684 98 690 C 110.66666666667 695.33333333333 124.33333333333 699.33333333333 139 702 C 153 704.66666666667 166 706 178 706 C 205.33333333333 706 227.33333333333 702.33333333333 244 695 C 260 687 272.33333333333 676.33333333333 281 663 C 289 649 294.33333333333 632.66666666667 297 614 C 299.66666666667 594.66666666667 301 573.33333333333 301 550 L 301 420 C 301 406.66666666667 304 394 310 382 C 316 370 326.66666666667 364 342 364 C 349.33333333333 364 357.33333333333 365.66666666667 366 369 L 369 359 C 360.33333333333 355.66666666667 351.33333333333 354 342 354 C 324.66666666667 354 312 360.66666666667 304 374 C 296 386.66666666667 291.66666666667 400.66666666667 291 416 C 279 404 267.66666666667 394.33333333333 257 387 C 246.33333333333 379 235.33333333333 372.66666666667 224 368 C 212.66666666667 362.66666666667 200.33333333333 359 187 357 C 173 355 157 354 139 354 C 127 354 114.66666666667 355.66666666667 102 359 C 89.33333333333 362.33333333333 78 367.33333333333 68 374 C 58 380.66666666667 50 389 44 399 C 37.33333333333 409 34 421 34 435 C 34 451.66666666667 38.66666666667 466 48 478 C 57.33333333333 490 69.33333333333 500.33333333333 84 509 C 98.66666666667 517.66666666667 115.33333333333 524.66666666667 134 530 C 152.66666666667 535.33333333333 171.66666666667 540 191 544 C 210.33333333333 547.33333333333 228.66666666667 550 246 552 C 263.33333333333 553.33333333333 278.33333333333 554.66666666667 291 556 Z"/>
    <path fill="#000000" stroke="none" transform="matrix(1 0 0 -1 10271 1270)" d="M 90 160 L 90 0 L 80 0 L 80 770 L 90 770 L 90 174 L 460 534 L 466 526 L 244 309 L 478 -5 L 470 -11 L 236 302 L 90 160 Z"/>
    <path fill="#000000" stroke="none" transform="matrix(1 0 0 -1 11038 1270)" d="M 86 770 L 86 157 C 86 139 86.33333333333 120.66666666667 87 102 C 87 83.33333333333 89.66666666667 66.33333333333 95 51 C 100.33333333333 35 109.33333333333 22 122 12 C 134.66666666667 2 153 -3 177 -3 C 193.66666666667 -3 209.33333333333 -0.66666666667 224 4 L 226 -6 C 211.33333333333 -10.66666666667 195 -13 177 -13 C 151 -13 131.33333333333 -7.66666666667 118 3 C 104 13 94 26.33333333333 88 43 C 81.33333333333 59.66666666667 77.66666666667 78 77 98 C 76.33333333333 118 76 137.66666666667 76 157 L 76 770 L 86 770 Z"/>
    <path fill="#000000" stroke="none" transform="matrix(1 0 0 -1 11272 1270)" d="M 518 369 C 502 420.33333333333 474 459.33333333333 434 486 C 393.33333333333 512 347 525 295 525 C 256.33333333333 525 222 518.66666666667 192 506 C 162 492.66666666667 137 474.33333333333 117 451 C 97 427.66666666667 82 400.33333333333 72 369 C 61.33333333333 337 56 302.33333333333 56 265 C 56 228.33333333333 61.33333333333 194 72 162 C 82.66666666667 129.33333333333 98.33333333333 101 119 77 C 139.66666666667 52.33333333333 165 33 195 19 C 225 4.33333333333 259.33333333333 -3 298 -3 C 321.33333333333 -3 344.33333333333 0.66666666667 367 8 C 389 14.66666666667 409.66666666667 24.66666666667 429 38 C 447.66666666667 50.66666666667 464.66666666667 66 480 84 C 495.33333333333 101.33333333333 508 120.33333333333 518 141 L 518 369 Z M 518 770 L 528 770 L 528 140 L 538 0 L 528 0 L 519 122 C 508.33333333333 102 495 83.66666666667 479 67 C 463 50.33333333333 445.66666666667 36.33333333333 427 25 C 407.66666666667 13 387.33333333333 3.66666666667 366 -3 C 344 -9.66666666667 321.33333333333 -13 298 -13 C 258 -13 222.33333333333 -5.66666666667 191 9 C 159.66666666667 23.66666666667 133.33333333333 43.66666666667 112 69 C 90.66666666667 94.33333333333 74.33333333333 124 63 158 C 51.66666666667 191.33333333333 46 227 46 265 C 46 303.66666666667 51.33333333333 339.66666666667 62 373 C 72.66666666667 405.66666666667 88.66666666667 434 110 458 C 130.66666666667 482 156.66666666667 501 188 515 C 218.66666666667 528.33333333333 254.33333333333 535 295 535 C 345 535 390 523.66666666667 430 501 C 469.33333333333 477.66666666667 498.66666666667 443.33333333333 518 398 L 518 770 Z"/>
    <path fill="#000000" stroke="none" transform="matrix(1 0 0 -1 11890 1270)" d="M 950 0 L 940 0 L 940 258 C 940 295.33333333333 938.33333333333 330.33333333333 935 363 C 931.66666666667 395 923.33333333333 423 910 447 C 896.66666666667 471 877.33333333333 490 852 504 C 826 518 790.33333333333 525 745 525 C 633.66666666667 525 558.66666666667 473 520 369 L 520 0 L 510 0 L 510 370 C 502 420.66666666667 481.33333333333 459.33333333333 448 486 C 414.66666666667 512 372.66666666667 525 322 525 C 272 525 232 517.66666666667 202 503 C 171.33333333333 488.33333333333 147.66666666667 468 131 442 C 114.33333333333 415.33333333333 103.33333333333 384 98 348 C 92.66666666667 312 90 272.66666666667 90 230 L 90 0 L 80 0 L 80 520 L 90 520 L 90 358 C 95.33333333333 385.33333333333 103.33333333333 410 114 432 C 124.66666666667 453.33333333333 139.33333333333 471.66666666667 158 487 C 176 502.33333333333 198.33333333333 514.33333333333 225 523 C 251.66666666667 531 284 535 322 535 C 370.66666666667 535 412.66666666667 523 448 499 C 482.66666666667 474.33333333333 505.66666666667 437.33333333333 517 388 C 537.66666666667 437.33333333333 567.66666666667 474.33333333333 607 499 C 645.66666666667 523 691.66666666667 535 745 535 C 791.66666666667 535 828.66666666667 528 856 514 C 883.33333333333 499.33333333333 904 479.66666666667 918 455 C 932 429.66666666667 941 400.33333333333 945 367 C 948.33333333333 333 950 296.66666666667 950 258 L 950 0 Z"/>
    <path fill="#000000" stroke="none" transform="matrix(1 0 0 -1 12914 1270)" d="M 52 525 L 441 525 L 445 517 L 51 5 L 471 5 L 471 -5 L 41 -5 L 37 3 L 431 515 L 52 515 L 52 525 Z"/>
    <path fill="#000000" stroke="none" transform="matrix(1 0 0 -1 13412 1270)" d="M 506 265 C 505.33333333333 300.33333333333 501 333.66666666667 493 365 C 485 396.33333333333 472.66666666667 424 456 448 C 438.66666666667 471.33333333333 416.66666666667 490 390 504 C 362.66666666667 518 329 525 289 525 C 250.33333333333 525 216.33333333333 518.33333333333 187 505 C 157.66666666667 491.66666666667 133.33333333333 473.33333333333 114 450 C 94.66666666667 426.66666666667 80.33333333333 399.33333333333 71 368 C 61 336 56 301.66666666667 56 265 L 506 265 Z M 56 255 C 56.66666666667 220.33333333333 62.33333333333 187.33333333333 73 156 C 83.66666666667 124.66666666667 99 97.33333333333 119 74 C 138.33333333333 50 162.66666666667 31.33333333333 192 18 C 220.66666666667 4 253.66666666667 -3 291 -3 C 309.66666666667 -3 329.33333333333 -1 350 3 C 370.66666666667 7 390.66666666667 13.33333333333 410 22 C 428.66666666667 30.66666666667 445.66666666667 41.66666666667 461 55 C 476.33333333333 67.66666666667 488 83.33333333333 496 102 L 506 98 L 505 96 C 496.33333333333 77.33333333333 484 61 468 47 C 451.33333333333 33 433.33333333333 21.66666666667 414 13 C 394.66666666667 4.33333333333 374.33333333333 -2 353 -6 C 331.66666666667 -10.66666666667 311 -13 291 -13 C 251 -13 216 -5.33333333333 186 10 C 155.33333333333 24.66666666667 129.66666666667 44.66666666667 109 70 C 88.33333333333 95.33333333333 72.66666666667 124.66666666667 62 158 C 51.33333333333 191.33333333333 46 226.66666666667 46 264 C 46 302 51 337.66666666667 61 371 C 71 403.66666666667 86.33333333333 432.33333333333 107 457 C 127 481 152.33333333333 500 183 514 C 213 528 248.33333333333 535 289 535 L 297 535 C 337.66666666667 534.33333333333 372 526.33333333333 400 511 C 427.33333333333 495.66666666667 449.66666666667 475.33333333333 467 450 C 483.66666666667 424.66666666667 496 395.66666666667 504 363 C 511.33333333333 330.33333333333 515.33333333333 296 516 260 L 511 255 L 56 255 Z"/>
    <path fill="#000000" stroke="none" transform="matrix(1 0 0 -1 13971 1270)" d="M 433 289 C 415 287.66666666667 393 285.66666666667 367 283 C 341 280.33333333333 314 276.33333333333 286 271 C 257.33333333333 265.66666666667 229 259 201 251 C 173 243 148 232.66666666667 126 220 C 103.33333333333 207.33333333333 85.33333333333 192.33333333333 72 175 C 58 157 51 136 51 112 C 51 92 55.66666666667 75 65 61 C 73.66666666667 46.33333333333 85 34.33333333333 99 25 C 113 15.66666666667 128.66666666667 8.66666666667 146 4 C 163.33333333333 -0.66666666667 180.66666666667 -3 198 -3 C 226.66666666667 -3 251.33333333333 -1.33333333333 272 2 C 292.66666666667 5.33333333333 311.66666666667 11.33333333333 329 20 C 346.33333333333 28 363.33333333333 38.66666666667 380 52 C 396 65.33333333333 413.66666666667 82 433 102 L 433 289 Z M 433 299 C 433 331.66666666667 431.33333333333 362 428 390 C 424.66666666667 417.33333333333 417 441 405 461 C 393 481 375.66666666667 496.66666666667 353 508 C 329.66666666667 519.33333333333 298.33333333333 525 259 525 C 241 525 221.66666666667 523.33333333333 201 520 C 180.33333333333 516 160.66666666667 510 142 502 C 123.33333333333 493.33333333333 107 482.33333333333 93 469 C 78.33333333333 455 68.33333333333 438.33333333333 63 419 L 53 421 C 58.33333333333 442.33333333333 68.66666666667 460.33333333333 84 475 C 98.66666666667 489 116 500.66666666667 136 510 C 155.33333333333 518.66666666667 176 525 198 529 C 220 533 240.33333333333 535 259 535 C 300.33333333333 535 333.33333333333 529 358 517 C 382 505 400.33333333333 488.33333333333 413 467 C 425.66666666667 445 434 419.33333333333 438 390 C 441.33333333333 360.66666666667 443 328.33333333333 443 293 L 443 88 C 443 78 444.33333333333 67.66666666667 447 57 C 449 45.66666666667 452.66666666667 35.66666666667 458 27 C 462.66666666667 18.33333333333 469.33333333333 11.33333333333 478 6 C 486.66666666667 0 497 -3 509 -3 C 521 -3 533.33333333333 -0.33333333333 546 5 L 550 -5 C 536 -10.33333333333 522.33333333333 -13 509 -13 C 495 -13 483.33333333333 -10 474 -4 C 464 2 456 10 450 20 C 444 29.33333333333 439.66666666667 40 437 52 C 434.33333333333 64 433 76 433 88 C 414.33333333333 69.33333333333 397 53.66666666667 381 41 C 364.33333333333 27.66666666667 347.33333333333 17 330 9 C 312.66666666667 1 293.66666666667 -4.66666666667 273 -8 C 251.66666666667 -11.33333333333 226.66666666667 -13 198 -13 C 179.33333333333 -13 160.66666666667 -10.33333333333 142 -5 C 123.33333333333 -0.33333333333 106.66666666667 7.33333333333 92 18 C 76.66666666667 28 64.33333333333 41 55 57 C 45.66666666667 72.33333333333 41 90.66666666667 41 112 C 41 137.33333333333 48 159.33333333333 62 178 C 76 196.66666666667 94.33333333333 212.66666666667 117 226 C 139.66666666667 239.33333333333 165.33333333333 250.33333333333 194 259 C 222.66666666667 267.66666666667 251.66666666667 274.66666666667 281 280 C 309.66666666667 285.33333333333 337.66666666667 289.33333333333 365 292 C 391.66666666667 294.66666666667 414.33333333333 297 433 299 Z"/>
    <path fill="#000000" stroke="none" transform="matrix(1 0 0 -1 14800 1270)" d="M 90 119 C 118 79 149.33333333333 48.66666666667 184 28 C 218 7.33333333333 260 -3 310 -3 C 351.33333333333 -3 387.33333333333 3.66666666667 418 17 C 448 30.33333333333 473 48.66666666667 493 72 C 513 95.33333333333 528 123.33333333333 538 156 C 547.33333333333 188.66666666667 552 224.33333333333 552 263 C 552 299 547.66666666667 333 539 365 C 530.33333333333 396.33333333333 517 424 499 448 C 480.33333333333 471.33333333333 457 490 429 504 C 401 518 367.33333333333 525 328 525 C 300.66666666667 525 274.66666666667 522.66666666667 250 518 C 224.66666666667 512.66666666667 201.66666666667 504.33333333333 181 493 C 160.33333333333 481 142.33333333333 465.66666666667 127 447 C 111 427.66666666667 98.66666666667 404 90 376 L 90 119 Z M 90 -240 L 80 -240 L 80 520 L 90 520 L 90 405 C 111.33333333333 452.33333333333 143.33333333333 486 186 506 C 228 525.33333333333 275.33333333333 535 328 535 C 368.66666666667 535 403.66666666667 528 433 514 C 462.33333333333 499.33333333333 486.66666666667 479.66666666667 506 455 C 524.66666666667 430.33333333333 538.66666666667 401.66666666667 548 369 C 557.33333333333 335.66666666667 562 300.33333333333 562 263 C 562 223 557 186 547 152 C 536.33333333333 118 520.66666666667 89 500 65 C 478.66666666667 40.33333333333 452.33333333333 21.33333333333 421 8 C 389.66666666667 -6 352.66666666667 -13 310 -13 C 260.66666666667 -13 218.66666666667 -3.33333333333 184 16 C 149.33333333333 35.33333333333 118 64 90 102 L 90 -240 Z"/>
    <path fill="#000000" stroke="none" transform="matrix(1 0 0 -1 15416 1270)" d="M 90 0 L 80 0 L 80 520 L 90 520 L 90 412 C 99.33333333333 430 109.33333333333 446.66666666667 120 462 C 130.66666666667 476.66666666667 142.66666666667 489.66666666667 156 501 C 169.33333333333 511.66666666667 184.66666666667 520 202 526 C 219.33333333333 532 239 535 261 535 C 274.33333333333 535 287.66666666667 533.66666666667 301 531 C 314.33333333333 527.66666666667 326.66666666667 522 338 514 L 332 506 C 321.33333333333 513.33333333333 310 518.33333333333 298 521 C 286 523.66666666667 273.66666666667 525 261 525 C 238.33333333333 525 218.33333333333 521.66666666667 201 515 C 183 507.66666666667 167.33333333333 498 154 486 C 140.66666666667 474 129 459.66666666667 119 443 C 108.33333333333 426.33333333333 98.66666666667 408.33333333333 90 389 L 90 0 Z"/>
    <path fill="#000000" stroke="none" transform="matrix(1 0 0 -1 15758 1270)" d="M 435 523 L 443 517 L 248 275 L 473 3 L 465 -3 L 241 267 L 23 -3 L 15 3 L 235 275 L 35 517 L 43 523 L 241 283 L 435 523 Z"/>
    <path fill="#000000" stroke="none" transform="matrix(1 0 0 -1 16237 1270)" d="M 90 0 L 80 0 L 80 770 L 90 770 L 90 412 C 102 433.33333333333 116.66666666667 452 134 468 C 150.66666666667 483.33333333333 169.33333333333 496 190 506 C 210.66666666667 516 232.66666666667 523.33333333333 256 528 C 279.33333333333 532.66666666667 303 535 327 535 C 368.33333333333 535 402.33333333333 528.66666666667 429 516 C 455 502.66666666667 475.66666666667 484.66666666667 491 462 C 505.66666666667 438.66666666667 516 411.66666666667 522 381 C 527.33333333333 349.66666666667 530 315.66666666667 530 279 L 530 0 L 520 0 L 520 279 C 520 314.33333333333 517.33333333333 347 512 377 C 506.66666666667 407 497 433 483 455 C 469 477 449.66666666667 494.33333333333 425 507 C 399.66666666667 519 367 525 327 525 C 302.33333333333 525 278 522.66666666667 254 518 C 230 512.66666666667 207.66666666667 504.66666666667 187 494 C 165.66666666667 482.66666666667 146.66666666667 468.33333333333 130 451 C 113.33333333333 433.66666666667 100 413 90 389 L 90 0 Z"/>
    <path fill="#000000" stroke="none" transform="matrix(1 0 0 -1 16841 1270)" d="M 182 368 C 207.33333333333 368 229 372.66666666667 247 382 C 264.33333333333 391.33333333333 278.66666666667 404 290 420 C 301.33333333333 435.33333333333 309.66666666667 453.33333333333 315 474 C 319.66666666667 494.66666666667 322 516.33333333333 322 539 C 322 585 311.66666666667 622.66666666667 291 652 C 269.66666666667 680.66666666667 234.33333333333 695 185 695 C 135 695 99.33333333333 680.33333333333 78 651 C 56 621.66666666667 45 583.33333333333 45 536 C 45 514 47.66666666667 493 53 473 C 57.66666666667 452.33333333333 65.33333333333 434.33333333333 76 419 C 86.66666666667 403 101 390.66666666667 119 382 C 136.33333333333 372.66666666667 157.33333333333 368 182 368 Z M 41 235 L 41 245 L 321 245 L 321 235 L 41 235 Z M 182 358 C 155.33333333333 358 132.66666666667 363 114 373 C 95.33333333333 382.33333333333 80.33333333333 395.33333333333 69 412 C 57 428 48.33333333333 447 43 469 C 37.66666666667 490.33333333333 35 512.66666666667 35 536 C 35 560.66666666667 38 583.33333333333 44 604 C 49.33333333333 624.66666666667 58 642.66666666667 70 658 C 82 672.66666666667 97.66666666667 684.33333333333 117 693 C 135.66666666667 701 158.33333333333 705 185 705 C 211 705 233.33333333333 701 252 693 C 270.66666666667 685 286 673.66666666667 298 659 C 310 644.33333333333 318.66666666667 627 324 607 C 329.33333333333 586.33333333333 332 563.66666666667 332 539 C 332 515 329.33333333333 492 324 470 C 318 448 309 428.66666666667 297 412 C 285 395.33333333333 269.66666666667 382.33333333333 251 373 C 231.66666666667 363 208.66666666667 358 182 358 Z"/>
    <path fill="#000000" stroke="none" transform="matrix(1 0 0 -1 17203 1270)" d="M 21 518 L 31 522 L 254 13 L 471 522 L 481 518 L 259 -2 L 258 -2 L 259 -2 C 251.66666666667 -18.66666666667 244.33333333333 -35.33333333333 237 -52 C 229.66666666667 -68.66666666667 222.33333333333 -85.33333333333 215 -102 C 208.33333333333 -118 201 -134 193 -150 C 184.33333333333 -166 174.66666666667 -180.66666666667 164 -194 C 152.66666666667 -207.33333333333 139.66666666667 -218 125 -226 C 109.66666666667 -234.66666666667 92 -239 72 -239 C 56.66666666667 -239 42 -236 28 -230 C 14 -224.66666666667 2 -215.66666666667 -8 -203 L 0 -197 C 9.33333333333 -208.33333333333 20.33333333333 -216.33333333333 33 -221 C 45 -226.33333333333 58 -229 72 -229 C 91.33333333333 -229 108 -225 122 -217 C 135.33333333333 -209 147.33333333333 -198.66666666667 158 -186 C 168 -173.33333333333 177 -159 185 -143 C 192.33333333333 -127.66666666667 199.33333333333 -112.66666666667 206 -98 C 213.33333333333 -81.33333333333 220.66666666667 -64.66666666667 228 -48 C 234.66666666667 -32 241.66666666667 -16 249 0 L 21 518 Z"/>
</svg>
