<svg width="17701" height="2010" viewBox="0 0 17701 2010" xmlns="http://www.w3.org/2000/svg">
    <defs/>
    <g transform="matrix(1 0 0 -1 0 2010)">
        <g transform="matrix(1 0 0 1 0 740)">
            <path fill="#000000" stroke="none" d="M 104 325 L 268 325 Q 314 325 363.5 331.5 Q 413 338 454 357.5 Q 495 377 521.5 413 Q 548 449 548 507 Q 548 558 529.5 593.5 Q 511 629 479.5 651.5 Q 448 674 406.49997 684.5 Q 365 695 320 695 L 104 695 L 104 325 Z M 104 0 L 94 0 L 94 700 L 99 705 L 320 705 Q 367 705 410 694 Q 453 683 486 659 Q 519 635 538.5 597.5 Q 558 560 558 507 Q 558 447 531 409.50003 Q 504 372 461.5 351 Q 419 330 367.5 322.5 Q 316 315 268 315 L 104 315 L 104 0 Z"/>
        </g>
        <g transform="matrix(1 0 0 1 501 740)">
            <path fill="#000000" stroke="none" d="M 467 700 L 467 305 Q 467 246 461 188 Q 455 130 434 83.5 Q 413 37 371.5 8 Q 330 -21 258 -21 Q 219 -21 182 -11.5 Q 145 -2 117 18.5 Q 89 39 72 70.5 Q 55 102 55 146 Q 55 182 68 212 L 78 208 Q 65 179 65 146 Q 65 104 81 74 Q 97 44 124 25.500002 Q 151 7 186 -2 Q 221 -11 258 -11 Q 286 -11 313.5 -5.5 Q 341 0 365 14 Q 397 34 415.5 69 Q 434 104 443 145 Q 452 186 454.49997 228.50002 Q 457 271 457 305 L 457 700 L 467 700 Z"/>
        </g>
        <g transform="matrix(1 0 0 1 1024 740)">
            <path fill="#000000" stroke="none" d="M 592 698 L 308 -10 L 298 -10 L 12 698 L 22 702 L 303 5 L 582 702 L 592 698 Z"/>
        </g>
        <g transform="matrix(1 0 0 1 1628 740)">
            <path fill="#000000" stroke="none" d="M 624 700 L 624 -8 L 615 -11 L 104 693 L 104 0 L 94 0 L 94 708 L 103 711 L 614 7 L 614 700 L 624 700 Z"/>
        </g>
        <g transform="matrix(1 0 0 1 2346 740)">
            <path fill="#000000" stroke="none" d="M 624 700 L 624 -8 L 615 -11 L 104 693 L 104 0 L 94 0 L 94 708 L 103 711 L 614 7 L 614 700 L 624 700 Z"/>
        </g>
        <g transform="matrix(1 0 0 1 3064 740)">
            <path fill="#000000" stroke="none" d="M 508 703 L 516 697 L 278 364 L 526 3 L 518 -3 L 272 356 L 16 -3 L 8 3 L 266 364 L 38 697 L 46 703 L 272 373 L 508 703 Z"/>
        </g>
        <g transform="matrix(1 0 0 1 3883 740)">
            <path fill="#000000" stroke="none" d="M 286 695 L 11 695 L 11 705 L 571 705 L 571 695 L 296 695 L 296 0 L 286 0 L 286 695 Z"/>
        </g>
        <g transform="matrix(1 0 0 1 4415 740)">
            <path fill="#000000" stroke="none" d="M 373 -11 Q 450 -11 509 20 Q 568 51 608.5 102 Q 649 153 669.5 219.49998 Q 690 286 690 357 Q 690 429 669.5 493.5 Q 649 558 608.5 606 Q 568 654 509 682.5 Q 450 711 373 711 Q 295 711 236.50002 683 Q 178 655 139 606.5 Q 100 558 80.5 493.5 Q 61 429 61 357 Q 61 284 79.5 217 Q 98 150 136.5 99.5 Q 175 49 233.5 19 Q 292 -11 373 -11 Z M 381 -21 Q 296 -21 234 8.5 Q 172 38 131.5 89.49999 Q 91 141 71 210 Q 51 279 51 357 Q 51 432 71.5 498 Q 92 564 132.5 613.5 Q 173 663 233 692 Q 293 721 373 721 Q 452 721 513 692 Q 574 663 615.5 613.5 Q 657 564 678.5 497.5 Q 700 431 700 357 Q 700 286 680 219.49998 Q 660 153 620.5 101 Q 581 49 523.5 16 Q 466 -17 391 -21 Q 385 -60 396 -94 Q 407 -128 430.5 -153 Q 454 -178 487.49997 -192 Q 521 -206 560 -206 Q 590 -206 620 -198 Q 650 -190 677 -176 L 681 -184 Q 653 -198 622.5 -207 Q 592 -216 560 -216 Q 519 -216 483.5 -201 Q 448 -186 423.49997 -160 Q 399 -134 387 -98.50001 Q 375 -63 381 -21 Z"/>
        </g>
        <g transform="matrix(1 0 0 1 5166 740)">
            <path fill="#000000" stroke="none" d="M 104 355 L 104 0 L 94 0 L 94 700 L 99 705 L 569 705 L 569 695 L 104 695 L 104 365 L 469 365 L 469 355 L 104 355 Z"/>
        </g>
        <g transform="matrix(1 0 0 1 5754 740)">
            <path fill="#000000" stroke="none" d="M 104 5 L 317 5 Q 362 5 408 11.5 Q 454 18 491 37 Q 528 56 551 90.50001 Q 574 125 574 181 Q 574 235 549.5 266 Q 525 297 487.49997 313 Q 450 329 405 335 Q 360 341 319 345 L 104 345 L 104 5 Z M 104 355 L 319 355 Q 362 358 404 365.5 Q 446 373 479 391 Q 512 409 532.5 441.50003 Q 553 474 553 527 Q 553 575 536 607.5 Q 519 640 490.5 659.5 Q 462 679 424 687 Q 386 695 344 695 L 104 695 L 104 355 Z M 99 -5 L 99 0 L 94 0 L 94 700 L 99 705 L 344 705 Q 388 705 428 696 Q 468 687 498 666 Q 528 645 545.5 611 Q 563 577 563 527 Q 563 481 548 449.5 Q 533 418 506.5 397.5 Q 480 377 445 366 Q 410 355 369 350 Q 409 346 447.5 337 Q 486 328 516.5 309.5 Q 547 291 565.5 260 Q 584 229 584 181 Q 584 123 560 86.50001 Q 536 50 498 29.500002 Q 460 9 412.5 2 Q 365 -5 317 -5 L 99 -5 Z"/>
        </g>
        <g transform="matrix(1 0 0 1 6390 740)">
            <path fill="#000000" stroke="none" d="M 104 355 L 104 0 L 94 0 L 94 700 L 104 700 L 104 365 L 614 365 L 614 700 L 624 700 L 624 0 L 614 0 L 614 355 L 104 355 Z"/>
        </g>
        <g transform="matrix(1 0 0 1 7108 740)">
            <path fill="#000000" stroke="none" d="M 104 700 L 104 0 L 94 0 L 94 700 L 104 700 Z"/>
        </g>
        <g transform="matrix(1 0 0 1 7586 740)">
            <path fill="#000000" stroke="none" d="M 34 522 L 209 14 L 407 522 L 417 522 L 609 15 L 784 522 L 794 518 L 614 -2 L 604 -2 L 412 506 L 214 -2 L 204 -2 L 24 518 L 34 522 Z"/>
        </g>
        <g transform="matrix(1 0 0 1 8404 740)">
            <path fill="#000000" stroke="none" d="M 494 175 Q 474 91 413.5 39 Q 353 -13 251 -13 Q 193 -13 158 6 Q 123 25 104.5 58 Q 86 91 80 134.5 Q 74 178 74 226 L 74 520 L 84 520 L 84 226 Q 84 180 89.49999 138.5 Q 95 97 112 65.5 Q 129 34 162.5 15.5 Q 196 -3 251 -3 Q 313 -3 358.49997 17 Q 404 37 434 73 Q 464 109 479 158.5 Q 494 208 494 266 L 494 520 L 504 520 L 504 266 L 504 260 L 504 0 L 494 0 L 494 175 Z"/>
        </g>
        <g transform="matrix(1 0 0 1 8988 740)">
            <path fill="#000000" stroke="none" d="M 494 175 Q 474 91 413.5 39 Q 353 -13 251 -13 Q 193 -13 158 6 Q 123 25 104.5 58 Q 86 91 80 134.5 Q 74 178 74 226 L 74 520 L 84 520 L 84 226 Q 84 180 89.49999 138.5 Q 95 97 112 65.5 Q 129 34 162.5 15.5 Q 196 -3 251 -3 Q 313 -3 358.49997 17 Q 404 37 434 73 Q 464 109 479 158.5 Q 494 208 494 266 L 494 520 L 504 520 L 504 266 L 504 260 L 504 0 L 494 0 L 494 175 Z"/>
        </g>
        <g transform="matrix(1 0 0 1 9572 740)">
            <path fill="#000000" stroke="none" d="M 12 515 L 12 525 L 116 525 L 116 574 Q 116 607 119.5 644 Q 123 681 136 712 Q 149 743 174.5 763.5 Q 200 784 243 784 Q 295 784 335 754 L 329 746 Q 292 774 243 774 Q 203 774 179.49998 754.5 Q 156 735 144 705 Q 132 675 129 640 Q 126 605 126 574 L 126 525 L 332 525 L 332 515 L 126 515 L 126 0 L 116 0 L 116 515 L 12 515 Z"/>
        </g>
        <g transform="matrix(1 0 0 1 9902 740)">
            <path fill="#000000" stroke="none" d="M 291 545 Q 274 544 248.5 541.5 Q 223 539 195.49998 534.5 Q 168 530 141 522 Q 114 514 92.5 502.49997 Q 71 491 57.5 474 Q 44 457 44 435 Q 44 416 53 402.5 Q 62 389 75.5 380.5 Q 89 372 106 368 Q 123 364 139 364 Q 167 364 187 367 Q 207 370 223.5 377.50003 Q 240 385 256 398 Q 272 411 291 430 L 291 545 Z M 34 245 L 34 255 L 354 255 L 354 245 L 34 245 Z M 291 556 Q 291 587 287 613 Q 283 639 271.5 657.5 Q 260 676 238 686 Q 216 696 178 696 Q 162 696 142 692.5 Q 122 689 103.5 681.5 Q 85 674 71 661 Q 57 648 52 630 L 42 632 Q 48 653 63 667 Q 78 681 97.49999 689.5 Q 117 698 138.5 702 Q 160 706 178 706 Q 219 706 243.49998 694.5 Q 268 683 280.5 662.5 Q 293 642 297 613.5 Q 301 585 301 550 L 301 420 Q 301 400 310 382 Q 319 364 342 364 Q 353 364 366 369 L 369 359 Q 356 354 342 354 Q 316 354 304 373.5 Q 292 393 291 416 Q 273 398 257 386.5 Q 241 375 224 367.5 Q 207 360 186.5 357 Q 166 354 139 354 Q 121 354 102 359 Q 83 364 68 374 Q 53 384 43.5 399 Q 34 414 34 435 Q 34 460 48 478 Q 62 496 84 509 Q 106 522 134 530 Q 162 538 191 543.5 Q 220 549 246 551.5 Q 272 554 291 556 Z"/>
        </g>
        <g transform="matrix(1 0 0 1 10271 740)">
            <path fill="#000000" stroke="none" d="M 90 160 L 90 0 L 80 0 L 80 770 L 90 770 L 90 174 L 460 534 L 466 526 L 244 309 L 478 -5 L 470 -11 L 236 302 L 90 160 Z"/>
        </g>
        <g transform="matrix(1 0 0 1 11038 740)">
            <path fill="#000000" stroke="none" d="M 86 770 L 86 157 Q 86 130 86.50001 102 Q 87 74 95 50.5 Q 103 27 122 12 Q 141 -3 177 -3 Q 202 -3 224 4 L 226 -6 Q 204 -13 177 -13 Q 138 -13 117.49999 2.5 Q 97 18 87.5 43 Q 78 68 77 98 Q 76 128 76 157 L 76 770 L 86 770 Z"/>
        </g>
        <g transform="matrix(1 0 0 1 11272 740)">
            <path fill="#000000" stroke="none" d="M 518 369 Q 494 446 433.5 485.5 Q 373 525 295 525 Q 237 525 192 505.50003 Q 147 486 117 451 Q 87 416 71.5 368.5 Q 56 321 56 265 Q 56 210 72 161.5 Q 88 113 119 76.5 Q 150 40 195 18.5 Q 240 -3 298 -3 Q 333 -3 366.5 7.5 Q 400 18 428.5 37.5 Q 457 57 480 83.5 Q 503 110 518 141 L 518 369 Z M 518 770 L 528 770 L 528 140 L 538 0 L 528 0 L 519 122 Q 503 92 479 67 Q 455 42 426.5 24.499998 Q 398 7 365.5 -3 Q 333 -13 298 -13 Q 238 -13 191 9 Q 144 31 112 69 Q 80 107 63 157.5 Q 46 208 46 265 Q 46 323 62 372.5 Q 78 422 109.49999 458 Q 141 494 187.49998 514.5 Q 234 535 295 535 Q 370 535 429.5 500.5 Q 489 466 518 398 L 518 770 Z"/>
        </g>
        <g transform="matrix(1 0 0 1 11890 740)">
            <path fill="#000000" stroke="none" d="M 950 0 L 940 0 L 940 258 Q 940 314 935 362.5 Q 930 411 910 447 Q 890 483 851.5 504 Q 813 525 745 525 Q 578 525 520 369 L 520 0 L 510 0 L 510 370 Q 498 446 448 485.5 Q 398 525 322 525 Q 247 525 201.5 503 Q 156 481 131 441.50003 Q 106 402 98 348 Q 90 294 90 230 L 90 0 L 80 0 L 80 520 L 90 520 L 90 358 Q 98 399 114 431.5 Q 130 464 157.5 487 Q 185 510 225 522.5 Q 265 535 322 535 Q 395 535 447.5 498.5 Q 500 462 517 388 Q 548 462 606.5 498.5 Q 665 535 745 535 Q 815 535 856 513.5 Q 897 492 918 454.49997 Q 939 417 944.5 366.5 Q 950 316 950 258 L 950 0 Z"/>
        </g>
        <g transform="matrix(1 0 0 1 12914 740)">
            <path fill="#000000" stroke="none" d="M 52 525 L 441 525 L 445 517 L 51 5 L 471 5 L 471 -5 L 41 -5 L 37 3 L 431 515 L 52 515 L 52 525 Z"/>
        </g>
        <g transform="matrix(1 0 0 1 13412 740)">
            <path fill="#000000" stroke="none" d="M 506 265 Q 505 318 493 365 Q 481 412 455.49997 447.5 Q 430 483 389.5 504 Q 349 525 289 525 Q 231 525 187 505 Q 143 485 114 450 Q 85 415 70.5 367.5 Q 56 320 56 265 L 506 265 Z M 56 255 Q 57 203 73 156 Q 89 109 118.50001 73.5 Q 148 38 191.5 17.5 Q 235 -3 291 -3 Q 319 -3 350 3 Q 381 9 409.50003 22 Q 438 35 461 54.5 Q 484 74 496 102 L 506 98 L 505 96 Q 492 68 467.5 47 Q 443 26 414 13 Q 385 0 353 -6.5 Q 321 -13 291 -13 Q 231 -13 185.5 9.5 Q 140 32 109 70 Q 78 108 62 158 Q 46 208 46 264 Q 46 321 61 370.5 Q 76 420 106.50001 456.50003 Q 137 493 182.5 514 Q 228 535 289 535 L 297 535 Q 358 534 399.5 511 Q 441 488 466.5 450 Q 492 412 503.49997 363 Q 515 314 516 260 L 511 255 L 56 255 Z"/>
        </g>
        <g transform="matrix(1 0 0 1 13971 740)">
            <path fill="#000000" stroke="none" d="M 433 289 Q 406 287 367 283 Q 328 279 285.5 271 Q 243 263 201 251 Q 159 239 125.49999 220 Q 92 201 71.5 174.5 Q 51 148 51 112 Q 51 82 64.5 60.5 Q 78 39 99 25 Q 120 11 146 4 Q 172 -3 198 -3 Q 241 -3 272 2 Q 303 7 329 19.5 Q 355 32 379.5 52 Q 404 72 433 102 L 433 289 Z M 433 299 Q 433 348 428 389.5 Q 423 431 405 461 Q 387 491 352.5 508 Q 318 525 259 525 Q 232 525 201 519.5 Q 170 514 142 501.5 Q 114 489 92.5 468.5 Q 71 448 63 419 L 53 421 Q 61 453 83.5 474.5 Q 106 496 135.5 509.5 Q 165 523 198 529 Q 231 535 259 535 Q 321 535 357.5 517 Q 394 499 413 466.5 Q 432 434 437.5 390 Q 443 346 443 293 L 443 88 Q 443 73 446.5 56.5 Q 450 40 457.50003 27 Q 465 14 478 5.5 Q 491 -3 509 -3 Q 527 -3 546 5 L 550 -5 Q 529 -13 509 -13 Q 488 -13 473.50003 -4 Q 459 5 450 19.5 Q 441 34 437 52 Q 433 70 433 88 Q 405 60 380.5 40.5 Q 356 21 330 9 Q 304 -3 272.5 -8 Q 241 -13 198 -13 Q 170 -13 142 -5.5 Q 114 2 91.5 17.5 Q 69 33 55 56.5 Q 41 80 41 112 Q 41 150 62 178 Q 83 206 117 226 Q 151 246 194 259 Q 237 272 280.5 280 Q 324 288 364.5 292 Q 405 296 433 299 Z"/>
        </g>
        <g transform="matrix(1 0 0 1 14800 740)">
            <path fill="#000000" stroke="none" d="M 90 119 Q 132 59 183.5 28 Q 235 -3 310 -3 Q 372 -3 417.5 17 Q 463 37 493 72 Q 523 107 537.5 156 Q 552 205 552 263 Q 552 317 539 364.5 Q 526 412 498.5 447.5 Q 471 483 429 504 Q 387 525 328 525 Q 287 525 249.5 517.5 Q 212 510 181 492.5 Q 150 475 126.50001 446.5 Q 103 418 90 376 L 90 119 Z M 90 -240 L 80 -240 L 80 520 L 90 520 L 90 405 Q 122 476 185.5 505.50003 Q 249 535 328 535 Q 389 535 433 513.5 Q 477 492 505.50003 455 Q 534 418 548 368.5 Q 562 319 562 263 Q 562 203 546.5 152 Q 531 101 499.5 64.5 Q 468 28 421 7.5 Q 374 -13 310 -13 Q 236 -13 184 16 Q 132 45 90 102 L 90 -240 Z"/>
        </g>
        <g transform="matrix(1 0 0 1 15416 740)">
            <path fill="#000000" stroke="none" d="M 90 0 L 80 0 L 80 520 L 90 520 L 90 412 Q 104 439 120 461.5 Q 136 484 156 500.5 Q 176 517 202 526 Q 228 535 261 535 Q 281 535 301 530.5 Q 321 526 338 514 L 332 506 Q 316 517 298 521 Q 280 525 261 525 Q 227 525 200.5 514.5 Q 174 504 154 486 Q 134 468 118.50001 443 Q 103 418 90 389 L 90 0 Z"/>
        </g>
        <g transform="matrix(1 0 0 1 15758 740)">
            <path fill="#000000" stroke="none" d="M 435 523 L 443 517 L 248 275 L 473 3 L 465 -3 L 241 267 L 23 -3 L 15 3 L 235 275 L 35 517 L 43 523 L 241 283 L 435 523 Z"/>
        </g>
        <g transform="matrix(1 0 0 1 16237 740)">
            <path fill="#000000" stroke="none" d="M 90 0 L 80 0 L 80 770 L 90 770 L 90 412 Q 108 444 133.5 467.5 Q 159 491 190 506 Q 221 521 256 528 Q 291 535 327 535 Q 389 535 428.5 515.5 Q 468 496 490.5 461.5 Q 513 427 521.5 380.5 Q 530 334 530 279 L 530 0 L 520 0 L 520 279 Q 520 332 512 377 Q 504 422 483 455 Q 462 488 424.50003 506.5 Q 387 525 327 525 Q 290 525 254 517.5 Q 218 510 186.5 493.5 Q 155 477 130 451 Q 105 425 90 389 L 90 0 Z"/>
        </g>
        <g transform="matrix(1 0 0 1 16841 740)">
            <path fill="#000000" stroke="none" d="M 182 368 Q 220 368 246.5 382 Q 273 396 290 419.5 Q 307 443 314.5 474 Q 322 505 322 539 Q 322 608 290.5 651.5 Q 259 695 185 695 Q 110 695 77.5 651 Q 45 607 45 536 Q 45 503 52.5 472.50003 Q 60 442 76 418.5 Q 92 395 118.50001 381.5 Q 145 368 182 368 Z M 41 235 L 41 245 L 321 245 L 321 235 L 41 235 Z M 182 358 Q 142 358 114 372.5 Q 86 387 68.5 411.5 Q 51 436 43 468.5 Q 35 501 35 536 Q 35 573 43.5 604 Q 52 635 70 657.5 Q 88 680 116.5 692.5 Q 145 705 185 705 Q 224 705 252 693 Q 280 681 298 659 Q 316 637 324 606.5 Q 332 576 332 539 Q 332 503 323.5 470 Q 315 437 297 412 Q 279 387 250.5 372.5 Q 222 358 182 358 Z"/>
        </g>
        <g transform="matrix(1 0 0 1 17203 740)">
            <path fill="#000000" stroke="none" d="M 21 518 L 31 522 L 254 13 L 471 522 L 481 518 L 259 -2 L 258 -2 L 259 -2 Q 248 -27 237 -52 Q 226 -77 215 -102 Q 205 -126 192.5 -150 Q 180 -174 163.5 -194 Q 147 -214 124.5 -226.5 Q 102 -239 72 -239 Q 49 -239 28 -230.5 Q 7 -222 -8 -203 L 0 -197 Q 14 -214 32.5 -221.5 Q 51 -229 72 -229 Q 101 -229 121.49999 -217 Q 142 -205 157.5 -186 Q 173 -167 184.5 -143.5 Q 196 -120 206 -98 Q 217 -73 227.49998 -48.5 Q 238 -24 249 0 L 21 518 Z"/>
        </g>
    </g>
</svg>
