<svg width="17396" height="2000" viewBox="0 0 17396 2000" xmlns="http://www.w3.org/2000/svg">
    <defs/>
    <g transform="matrix(1 0 0 -1 0 2000)">
        <g transform="matrix(1 0 0 1 0 730)">
            <path fill="#000000" stroke="none" d="M 292 -22 Q 267 56 238 139 Q 209 222 179 303 Q 149 384 118 460.5 Q 87 537 57 602 Q 40 638 -16 639 L -16 663 Q 32 662 79 663 Q 126 664 156 666 Q 176 598 198.5 526.5 Q 221 455 244.50002 386.5 Q 268 318 291.5 256 Q 315 194 335 145 Q 381 240 425.50003 351.5 Q 470 463 516 601 Q 522 619 508.5 628.5 Q 495 638 465 639 L 465 663 Q 485 661 508 660.5 Q 531 660 560 660 Q 583 660 603.5 660.5 Q 624 661 648 663 L 648 639 Q 619 638 601.5 627 Q 584 616 574 594 Q 544 528 512 452.5 Q 480 377 448 297 Q 416 217 386 136 Q 356 55 329 -20 L 292 -22 Z"/>
        </g>
        <g transform="matrix(1 0 0 1 652 730)">
            <path fill="#000000" stroke="none" d="M 339 241 Q 341 276 335.5 293.5 Q 330 311 313 316 Q 303 319 287.5 320 Q 272 321 237 321 Q 217 321 203.49998 321 Q 190 321 173 319 Q 173 235 175 186 Q 177 137 181 110.50001 Q 185 84 190 74.5 Q 195 65 201 59 Q 224 39 282 39 Q 326 39 348 40.5 Q 370 42 387 45 Q 405 48 418 60.5 Q 431 73 442 107 L 478 109 Q 473 83 469.5 55.5 Q 466 28 465 -1 Q 389 0 306.5 0 Q 224 0 132 0 Q 102 0 73.5 -0.5 Q 45 -1 21 -3 L 21 21 Q 50 22 65.5 29.500002 Q 81 37 83 55 Q 85 76 86.50001 102 Q 88 128 89 162 Q 90 196 90.50001 240 Q 91 284 91 340 Q 91 438 89.49999 500.5 Q 88 563 83 605 Q 81 623 65 630.5 Q 49 638 20 639 L 20 663 Q 46 661 74 660.5 Q 102 660 132 660 Q 178 660 215 660.5 Q 252 661 288 661.5 Q 324 662 362.5 663.5 Q 401 665 450 667 Q 442 633 436.5 600.5 Q 431 568 428 541 L 393 539 Q 400 579 392 595 Q 384 611 366 614 Q 343 618 319.5 619.5 Q 296 621 267 621 Q 246 621 225 620.5 Q 204 620 178 619 Q 177 589 176 560 Q 175 531 174 500 Q 173 469 173 435 Q 173 401 173 361 Q 190 359 203.49998 359 Q 217 359 237 359 Q 273 359 288.5 360 Q 304 361 314 364 Q 331 369 341.5 382.5 Q 352 396 356 426 L 391 426 Q 386 381 381.5 336.5 Q 377 292 374 241 L 339 241 Z"/>
        </g>
        <g transform="matrix(1 0 0 1 1168 730)">
            <path fill="#000000" stroke="none" d="M 359 558 Q 364 589 349 606 Q 334 622 312 631 Q 290 640 261 640 Q 231 640 209 630 Q 187 620 172.50002 603 Q 158 586 150.5 563 Q 143 540 143 514 Q 143 469 171 437.5 Q 199 406 259 385 Q 345 355 384 311 Q 423 267 423 199 Q 423 151 402 111 Q 381 71 345 42.5 Q 309 14 262 -2 Q 215 -18 163 -18 Q 126 -18 86 -9.5 Q 46 -1 21 16 Q 29 38 33.5 56.5 Q 38 75 42 98 L 77 100 Q 76 72 91 57 Q 110 40 135.5 33 Q 161 26 183 26 Q 252 26 290.5 63 Q 329 100 329 157 Q 329 205 300.5 241.5 Q 272 278 208 304 Q 135 334 95 376 Q 55 418 55 484 Q 55 524 69.5 560 Q 84 596 113 623.5 Q 142 651 185 667.5 Q 228 684 285 684 Q 331 684 366 669.5 Q 401 655 418 637 Q 410 616 404.5 598.5 Q 399 581 394 558 L 359 558 Z"/>
        </g>
        <g transform="matrix(1 0 0 1 1640 730)">
            <path fill="#000000" stroke="none" d="M 411 -3 Q 385 -1 357 -0.5 Q 329 0 299 0 Q 269 0 241 -0.5 Q 213 -1 188 -3 L 188 21 Q 217 22 232.5 29.500002 Q 248 37 250 55 Q 252 76 253.5 102 Q 255 128 256 162 Q 257 196 257.5 240 Q 258 284 258 340 Q 258 385 258 422 Q 258 459 257 492.5 Q 256 526 255.5 557.5 Q 255 589 253 621 L 171 621 Q 134 621 110.50001 617.5 Q 87 614 71.5 604 Q 56 594 47 577.5 Q 38 561 30 534 L -5 532 Q 2 561 8 596.5 Q 14 632 19 664 Q 57 662 89.49999 661 Q 122 660 154 659 Q 186 658 221 658 Q 256 658 299 658 Q 345 658 382.5 658.5 Q 420 659 455.49997 660.5 Q 491 662 527 663.5 Q 563 665 605 668 Q 597 634 591.5 601 Q 586 568 583 541 L 548 539 Q 555 579 547 595 Q 539 611 521 614 Q 509 616 497.5 617.5 Q 486 619 472.50003 619.5 Q 459 620 442.5 620.5 Q 426 621 404 621 L 345 621 Q 344 589 343 557.5 Q 342 526 341 492.5 Q 340 459 340 422 Q 340 385 340 340 Q 340 284 340.5 240 Q 341 196 342 162 Q 343 128 344.50003 102 Q 346 76 348 55 Q 350 37 366 29.500002 Q 382 22 411 21 L 411 -3 Z"/>
        </g>
        <g transform="matrix(1 0 0 1 2250 730)">
            <path fill="#000000" stroke="none" d="M 244 -3 Q 218 -1 190 -0.5 Q 162 0 132 0 Q 102 0 74 -0.5 Q 46 -1 21 -3 L 21 21 Q 50 22 65.5 29.500002 Q 81 37 83 55 Q 85 76 86.50001 102 Q 88 128 89 162 Q 90 196 90.50001 240 Q 91 284 91 340 Q 91 438 89.49999 500.5 Q 88 563 83 605 Q 81 623 65 630.5 Q 49 638 20 639 L 20 663 Q 46 661 74 660.5 Q 102 660 132 660 Q 162 660 190 660.5 Q 218 661 243 663 L 243 639 Q 214 638 198.5 630.5 Q 183 623 181 605 Q 176 563 174.5 500.5 Q 173 438 173 340 Q 173 284 173.5 240 Q 174 196 175 162 Q 176 128 177.5 102 Q 179 76 181 55 Q 183 37 199 29.500002 Q 215 22 244 21 L 244 -3 Z"/>
        </g>
        <g transform="matrix(1 0 0 1 2514 730)">
            <path fill="#000000" stroke="none" d="M 244 -3 Q 218 -1 190 -0.5 Q 162 0 132 0 Q 102 0 74 -0.5 Q 46 -1 21 -3 L 21 21 Q 50 22 65.5 29.500002 Q 81 37 83 55 Q 85 76 86.50001 102 Q 88 128 89 162 Q 90 196 90.50001 240 Q 91 284 91 340 Q 91 438 89.49999 500.5 Q 88 563 83 605 Q 81 623 65 630.5 Q 49 638 20 639 L 20 663 Q 46 661 61.5 660.5 Q 77 660 92 660 Q 115 660 135 661.5 Q 155 663 183 667 Q 207 670 227 672 Q 247 674 268 674 Q 312 674 351 664.5 Q 390 655 419 634.5 Q 448 614 464.5 583 Q 481 552 481 509 Q 481 468 464.5 437.5 Q 448 407 423.49997 385.5 Q 399 364 369 351 Q 339 338 312 331 L 450 120 Q 469 91 484 73 Q 499 55 512.5 44.5 Q 526 34 539.5 29 Q 553 24 569 22 L 569 -3 Q 555 -2 534.5 -1.5 Q 514 -1 492.5 -0.5 Q 471 0 449 0 Q 427 0 410 0 Q 392 35 368.5 76.5 Q 345 118 319 161 Q 293 204 267 246 Q 241 288 217 323 L 208 346 L 212 350 L 251 355 Q 274 358 297.5 366 Q 321 374 340.5 391 Q 360 408 372 435 Q 384 462 384 503 Q 384 561 345 595.5 Q 306 630 246 630 Q 227 630 211 628.5 Q 195 627 178 624 Q 177 591 176 560 Q 175 529 174 495 Q 173 461 173 423 Q 173 385 173 340 Q 173 284 173.5 240 Q 174 196 175 162 Q 176 128 177.5 102 Q 179 76 181 55 Q 183 37 199 29.500002 Q 215 22 244 21 L 244 -3 Z"/>
        </g>
        <g transform="matrix(1 0 0 1 3044 730)">
            <path fill="#000000" stroke="none" d="M 55 326 Q 55 406 80.5 471.49997 Q 106 537 151.5 584.5 Q 197 632 259 658 Q 321 684 393 684 Q 459 684 518.5 662 Q 578 640 622.5 596.5 Q 667 553 693 488.50003 Q 719 424 719 340 Q 719 261 693.5 195 Q 668 129 622.5 81.5 Q 577 34 515 8 Q 453 -18 381 -18 Q 315 -18 255.5 4 Q 196 26 151.5 69.5 Q 107 113 81 177.5 Q 55 242 55 326 Z M 389 30 Q 497 30 556.5 108.5 Q 616 187 616 333 Q 616 400 600.5 456 Q 585 512 555.5 552 Q 526 592 483 614 Q 440 636 385 636 Q 277 636 217.5 557.5 Q 158 479 158 333 Q 158 266 173.5 210 Q 189 154 218.5 114 Q 248 74 291 52 Q 334 30 389 30 Z"/>
        </g>
        <g transform="matrix(1 0 0 1 4033 730)">
            <path fill="#000000" stroke="none" d="M 197 -3 Q 177 -1 154.5 -0.5 Q 132 0 103 0 Q 80 0 60 -0.5 Q 40 -1 16 -3 L 16 21 Q 45 22 62 33 Q 79 44 89 66 Q 119 132 151 207.5 Q 183 283 214.5 363 Q 246 443 276.5 524 Q 307 605 334 680 L 371 682 Q 396 604 425 521 Q 454 438 484 357 Q 514 276 545 199.5 Q 576 123 606 58 Q 614 41 631 31.500002 Q 648 22 677 21 L 677 -3 Q 629 -2 583 -3 Q 537 -4 507 -6 Q 490 54 470.49997 115.5 Q 451 177 430 238 Q 403 240 373.5 240 Q 344 240 312 240 Q 259 240 208 237 Q 192 195 176.5 151 Q 161 107 145 59 Q 139 41 153 31.500002 Q 167 22 197 21 L 197 -3 Z M 312 278 Q 339 278 365 278 Q 391 278 416 280 Q 393 346 370.5 406.49997 Q 348 467 328 515 Q 302 460 276.5 402.5 Q 251 345 225 280 Q 245 278 264 278 Q 283 278 312 278 Z M 299 732 L 263 726 Q 274 744 282.5 758 Q 291 772 297.5 784.5 Q 304 797 310.5 810.5 Q 317 824 324 842 L 379 846 Q 386 828 392.50003 814 Q 399 800 406.49997 786.5 Q 414 773 422.49997 758.5 Q 431 744 443 726 L 407 732 L 350 794 L 299 732 Z"/>
        </g>
        <g transform="matrix(1 0 0 1 4725 730)">
            <path fill="#000000" stroke="none" d="M 243 -3 Q 217 -1 189 -0.5 Q 161 0 131 0 Q 101 0 73 -0.5 Q 45 -1 20 -3 L 20 21 Q 49 22 64.5 29.500002 Q 80 37 82 55 Q 84 76 85.5 102 Q 87 128 88 162 Q 89 196 89.49999 240 Q 90 284 90 340 Q 90 438 88.5 500.5 Q 87 563 82 605 Q 80 623 64 630.5 Q 48 638 19 639 L 19 663 Q 45 661 73 660.5 Q 101 660 131 660 Q 161 660 189 660.5 Q 217 661 242 663 L 242 639 Q 213 638 197.5 630.5 Q 182 623 180 605 Q 175 563 173.5 500.5 Q 172 438 172 340 Q 172 284 172.50002 240 Q 173 196 174 162 Q 175 128 176.5 102 Q 178 76 180 55 Q 182 37 198 29.500002 Q 214 22 243 21 L 243 -3 Z M 10 865 L 93 849 Q 105 818 119.5 788 Q 134 758 154 725 L 112 732 L 7 862 L 10 865 Z"/>
        </g>
        <g transform="matrix(1 0 0 1 4989 730)">
            <path fill="#000000" stroke="none" d="M 20 663 Q 46 661 62.5 660.5 Q 79 660 102 660 Q 123 660 147.5 661.5 Q 172 663 210 668 Q 230 670 253.5 672 Q 277 674 299 674 Q 474 674 571.5 593 Q 669 512 669 358 Q 669 265 637.5 195 Q 606 125 551 78.5 Q 496 32 421 9 Q 346 -14 260 -14 Q 244 -14 221 -12 Q 198 -10 178 -7 Q 162 -5 142 -2.5 Q 122 0 107 0 Q 84 0 65 -0.5 Q 46 -1 22 -3 L 22 21 Q 51 22 66 29.500002 Q 81 37 83 55 Q 85 76 86.50001 102 Q 88 128 89 162 Q 90 196 90.50001 240 Q 91 284 91 340 Q 91 438 89.49999 500.5 Q 88 563 83 605 Q 81 623 65 630.5 Q 49 638 20 639 L 20 663 Z M 290 32 Q 363 32 414.5 57 Q 466 82 499 124.5 Q 532 167 547.5 222.5 Q 563 278 563 339 Q 563 405 547 457.50003 Q 531 510 496 547.5 Q 461 585 405.5 605 Q 350 625 270 625 Q 250 625 225.5 622.5 Q 201 620 178 615 Q 177 584 176 553.5 Q 175 523 174 490 Q 173 457 173 420.5 Q 173 384 173 340 Q 173 251 175 198.5 Q 177 146 180.50002 116.5 Q 184 87 189.5 75.5 Q 195 64 201 58 Q 213 46 237 39 Q 261 32 290 32 Z"/>
        </g>
        <g transform="matrix(1 0 0 1 5713 730)">
            <path fill="#000000" stroke="none" d="M 54 326 Q 54 406 79.5 471.49997 Q 105 537 150.5 584.5 Q 196 632 258 658 Q 320 684 392 684 Q 458 684 517.5 662 Q 577 640 621.5 596.5 Q 666 553 692 488.50003 Q 718 424 718 340 Q 718 261 692.5 195 Q 667 129 621.5 81.5 Q 576 34 514 8 Q 452 -18 380 -18 Q 314 -18 254.5 4 Q 195 26 150.5 69.5 Q 106 113 80 177.5 Q 54 242 54 326 Z M 388 30 Q 496 30 555.5 108.5 Q 615 187 615 333 Q 615 400 599.5 456 Q 584 512 554.5 552 Q 525 592 482 614 Q 439 636 384 636 Q 276 636 216.5 557.5 Q 157 479 157 333 Q 157 266 172.50002 210 Q 188 154 217.5 114 Q 247 74 290 52 Q 333 30 388 30 Z M 367 725 Q 387 758 401.5 788 Q 416 818 428 849 L 511 865 L 514 862 L 409 732 L 367 725 Z"/>
        </g>
        <g transform="matrix(1 0 0 1 6440 730)">
            <path fill="#000000" stroke="none" d="M 421 -3 Q 395 -1 367 -0.5 Q 339 0 309 0 Q 279 0 251 -0.5 Q 223 -1 198 -3 L 198 21 Q 227 22 242.5 29.500002 Q 258 37 260 55 Q 262 74 263.5 96.5 Q 265 119 266 147.5 Q 267 176 267.5 212 Q 268 248 268 293 Q 245 335 223 372.5 Q 201 410 177.5 447 Q 154 484 128 522 Q 102 560 72 602 Q 61 618 44.5 628 Q 28 638 -1 639 L -1 663 Q 47 662 85.5 663 Q 124 664 157 666 Q 178 620 197.5 582 Q 217 544 237.5 509 Q 258 474 281.5 438.49997 Q 305 403 333 362 Q 359 396 379 425 Q 399 454 417 482 Q 435 510 451.5 539 Q 468 568 485 601 Q 494 619 480.5 628.5 Q 467 638 437 639 L 437 663 Q 457 661 480 660.5 Q 503 660 532 660 Q 555 660 575.5 660.5 Q 596 661 620 663 L 620 639 Q 591 638 576.5 627 Q 562 616 546 594 Q 518 556 495 523 Q 472 490 449.5 455.49997 Q 427 421 403 382 Q 379 343 350 293 Q 350 248 350.5 212 Q 351 176 352 147.5 Q 353 119 354.5 96.5 Q 356 74 358 55 Q 360 37 376 29.500002 Q 392 22 421 21 L 421 -3 Z M 251 740 Q 231 740 218.5 752.5 Q 206 765 206 785 Q 206 805 218.5 817.5 Q 231 830 251 830 Q 271 830 283.5 817.5 Q 296 805 296 785 Q 296 765 283.5 752.5 Q 271 740 251 740 Z M 391 740 Q 371 740 358.49997 752.5 Q 346 765 346 785 Q 346 805 358.49997 817.5 Q 371 830 391 830 Q 411 830 423.49997 817.5 Q 436 805 436 785 Q 436 765 423.49997 752.5 Q 411 740 391 740 Z"/>
        </g>
        <g transform="matrix(1 0 0 1 7058 730)">
            <path fill="#000000" stroke="none" d="M 172 -3 Q 152 -1 130 -0.5 Q 108 0 83 0 Q 60 0 40 -0.5 Q 20 -1 -4 -3 L -4 21 Q 63 22 67 66 Q 75 131 82 207 Q 89 283 95.5 363 Q 102 443 106.50001 524 Q 111 605 114 680 L 149 682 Q 189 583 254 452.5 Q 319 322 398 175 Q 427 217 454.49997 259.5 Q 482 302 515.5 358 Q 549 414 593 491.5 Q 637 569 700 682 L 738 682 Q 735 604 735 521 Q 735 438 737.50006 357 Q 740 276 744.5 199.5 Q 749 123 755 58 Q 757 40 776 31 Q 795 22 824 21 L 824 -3 Q 799 -1 769 -0.5 Q 739 0 709 0 Q 679 0 652 -0.5 Q 625 -1 601 -3 L 601 21 Q 630 22 643 31.500002 Q 656 41 657 59 Q 659 96 659 147 Q 659 198 657 254.5 Q 655 311 651.5 367.5 Q 648 424 643 473 Q 610 425 583 384 Q 556 343 528.5 295 Q 501 247 468.5 185.5 Q 436 124 391 34 L 362 32 Q 340 84 317 134.5 Q 294 185 268 237.5 Q 242 290 212 345.50003 Q 182 401 146 464 Q 139 412 133.5 363.5 Q 128 315 124.5 266 Q 121 217 118.50001 166 Q 116 115 115 59 Q 115 41 127.5 31.500002 Q 140 22 172 21 L 172 -3 Z"/>
        </g>
        <g transform="matrix(1 0 0 1 8119 730)">
            <path fill="#000000" stroke="none" d="M 335 84 Q 306 36 267.5 11 Q 229 -14 187 -14 Q 154 -14 126.50001 -1 Q 99 12 79 36 Q 59 60 47.5 93.49999 Q 36 127 36 168 Q 36 225 54 271 Q 72 317 103 348.5 Q 134 380 174 397 Q 214 414 257 414 Q 277 414 297.5 411 Q 318 408 336 401 Q 355 394 368 394 Q 384 394 405 411 L 422 407 Q 418 384 415 361.50003 Q 412 339 410.5 302 Q 409 265 408 205.5 Q 407 146 407 50 Q 406 6 408 -36.5 Q 410 -79 415 -129 Q 417 -147 434 -154.5 Q 451 -162 480 -163 L 480 -187 Q 455 -185 426.5 -184.5 Q 398 -184 371 -184 Q 344 -184 315.5 -184.5 Q 287 -185 262 -187 L 262 -163 Q 291 -162 308 -154.5 Q 325 -147 327 -129 Q 332 -79 333.5 -36.5 Q 335 6 335 50 L 335 84 Z M 335 270 Q 335 321 310 346 Q 285 371 243 371 Q 189 371 155.5 323.5 Q 122 276 122 186 Q 122 120 146 81.5 Q 170 43 215 43 Q 238 43 260 56.5 Q 282 70 298.5 96.5 Q 315 123 325 162.5 Q 335 202 335 255 L 335 270 Z"/>
        </g>
        <g transform="matrix(1 0 0 1 8588 730)">
            <path fill="#000000" stroke="none" d="M 4 397 Q 47 398 86 401.5 Q 125 405 160 414 L 163 409 Q 161 390 159.5 369.5 Q 158 349 157.5 324.5 Q 157 300 156.5 269.5 Q 156 239 156 200 Q 156 151 162 121 Q 168 91 179 74.5 Q 190 58 207 52.5 Q 224 47 245 47 Q 263 47 280.5 55.5 Q 298 64 312.5 83 Q 327 102 336 133 Q 345 164 345 210 Q 345 231 345 247.5 Q 345 264 344 278.5 Q 343 293 342 306.5 Q 341 320 339 335 Q 336 358 319.5 364 Q 303 370 265 372 L 265 397 Q 308 398 347 401.5 Q 386 405 421 414 L 424 409 Q 422 390 420.5 371 Q 419 352 418.5 329.5 Q 418 307 417.5 278 Q 417 249 417 210 L 417 185 Q 417 160 417.5 141.5 Q 418 123 419.5 109.49999 Q 421 96 423 85.5 Q 425 75 428 64 Q 439 27 489 26 L 489 2 Q 467 2 449.5 1 Q 432 0 417 -1.5 Q 402 -3 388.5 -6.5 Q 375 -10 361 -14 L 357 -10 Q 352 11 350 30 Q 348 49 346 82 Q 332 37 298 11.5 Q 264 -14 218 -14 Q 152 -14 116 21.500002 Q 80 57 82 119 Q 83 139 83.5 152.5 Q 84 166 84 175 Q 84 184 84 189.5 Q 84 195 84 200 Q 84 243 83 273.5 Q 82 304 78 335 Q 75 358 58.5 364 Q 42 370 4 372 L 4 397 Z"/>
        </g>
        <g transform="matrix(1 0 0 1 9090 730)">
            <path fill="#000000" stroke="none" d="M 379 2 Q 351 -14 325 -14 Q 301 -14 284.5 0 Q 268 14 260 51 Q 243 26 212.50002 6 Q 182 -14 144 -14 Q 124 -14 105 -5 Q 86 4 71.5 19.5 Q 57 35 48 55.5 Q 39 76 39 99 Q 39 145 73.5 172.50002 Q 108 200 158 208 Q 182 212 209 218.5 Q 236 225 256 232 Q 256 243 256.5 254.5 Q 257 266 257 280 Q 259 318 242.5 341 Q 226 364 181 364 Q 169 364 155 360.50003 Q 141 357 129.5 348 Q 118 339 109.49999 324 Q 101 309 99 286 L 69 284 Q 72 304 74.5 327 Q 77 350 78 367 Q 110 393 141.5 403.5 Q 173 414 205 414 Q 279 414 309 380 Q 339 346 335 293 Q 334 270 333 244.50002 Q 332 219 331.5 193 Q 331 167 331 142 Q 331 117 331 96 Q 332 67 344.50003 53.5 Q 357 40 370 40 Q 379 40 386 41 Q 393 42 402 47 L 406 43 L 401 15 L 379 2 Z M 178 38 Q 194 38 207.5 45.5 Q 221 53 231.5 65.5 Q 242 78 248 94.50001 Q 254 111 254 129 Q 254 141 254 156 Q 254 171 255 190 Q 196 188 160.5 163 Q 125 138 125 94 Q 125 71 140 54.5 Q 155 38 178 38 Z"/>
        </g>
        <g transform="matrix(1 0 0 1 9516 730)">
            <path fill="#000000" stroke="none" d="M 236 -3 Q 210 -1 181.5 -0.5 Q 153 0 126 0 Q 99 0 70.5 -0.5 Q 42 -1 17 -3 L 17 21 Q 46 22 63 29.500002 Q 80 37 82 55 Q 84 76 85.5 93 Q 87 110 88 126 Q 89 142 89.49999 160 Q 90 178 90 200 Q 90 234 89 269 Q 88 304 84 335 Q 81 358 64.5 364 Q 48 370 10 372 L 10 397 Q 53 398 83 401.5 Q 113 405 148 414 L 151 409 Q 153 390 155 365 Q 157 340 159 312 Q 172 357 206.5 385.5 Q 241 414 289 414 Q 355 414 391 378.5 Q 427 343 425 281 Q 423 215 423.49997 156 Q 424 97 426 55 Q 427 37 444 29.500002 Q 461 22 490 21 L 490 -3 Q 465 -1 442 -0.5 Q 419 0 392 0 Q 379 0 367 0 Q 355 0 344 -2 L 342 2 Q 347 37 349 94.50001 Q 351 152 352 237 Q 353 300 329 326.5 Q 305 353 262 353 Q 244 353 226.5 343.5 Q 209 334 194.5 313.5 Q 180 293 171 262.5 Q 162 232 162 190 Q 162 161 164 124.5 Q 166 88 170 55 Q 172 37 189.5 29.500002 Q 207 22 236 21 L 236 -3 Z"/>
        </g>
        <g transform="matrix(1 0 0 1 10012 730)">
            <path fill="#000000" stroke="none" d="M 283 25 Q 260 4 234 -5 Q 208 -14 178 -14 Q 130 -14 106 11 Q 82 36 84 76 Q 87 148 88 221 Q 89 294 88 357 L 22 357 L 26 382 Q 52 388 74 400 Q 93 411 110 437 Q 127 463 140 497 L 175 501 Q 171 478 169 450 Q 167 422 166 396 L 291 396 Q 289 388 288 378.5 Q 287 369 286 358 L 166 358 Q 165 329 164.5 294.5 Q 164 260 164 224 Q 164 188 164.5 152 Q 165 116 166 83 Q 167 58 181.5 48.5 Q 196 39 212 39 Q 232 39 250 45 Q 268 51 288 65 L 292 63 L 283 25 Z"/>
        </g>
        <g transform="matrix(1 0 0 1 10325 730)">
            <path fill="#000000" stroke="none" d="M 379 2 Q 351 -14 325 -14 Q 301 -14 284.5 0 Q 268 14 260 51 Q 243 26 212.50002 6 Q 182 -14 144 -14 Q 124 -14 105 -5 Q 86 4 71.5 19.5 Q 57 35 48 55.5 Q 39 76 39 99 Q 39 145 73.5 172.50002 Q 108 200 158 208 Q 182 212 209 218.5 Q 236 225 256 232 Q 256 243 256.5 254.5 Q 257 266 257 280 Q 259 318 242.5 341 Q 226 364 181 364 Q 169 364 155 360.50003 Q 141 357 129.5 348 Q 118 339 109.49999 324 Q 101 309 99 286 L 69 284 Q 72 304 74.5 327 Q 77 350 78 367 Q 110 393 141.5 403.5 Q 173 414 205 414 Q 279 414 309 380 Q 339 346 335 293 Q 334 270 333 244.50002 Q 332 219 331.5 193 Q 331 167 331 142 Q 331 117 331 96 Q 332 67 344.50003 53.5 Q 357 40 370 40 Q 379 40 386 41 Q 393 42 402 47 L 406 43 L 401 15 L 379 2 Z M 178 38 Q 194 38 207.5 45.5 Q 221 53 231.5 65.5 Q 242 78 248 94.50001 Q 254 111 254 129 Q 254 141 254 156 Q 254 171 255 190 Q 196 188 160.5 163 Q 125 138 125 94 Q 125 71 140 54.5 Q 155 38 178 38 Z"/>
        </g>
        <g transform="matrix(1 0 0 1 10751 730)">
            <path fill="#000000" stroke="none" d="M 261 307 Q 261 321 258.5 332.5 Q 256 344 248 352 Q 235 365 220 371 Q 205 377 183 377 Q 154 377 137.5 359 Q 121 341 121 317 Q 121 285 138.5 268 Q 156 251 194 238 Q 256 218 278.5 192.5 Q 301 167 301 130 Q 301 97 287.5 70 Q 274 43 250.5 24.499998 Q 227 6 197 -4 Q 167 -14 134 -14 Q 106 -14 78 -6 Q 50 2 25 18 Q 36 54 39 90 L 68 92 Q 68 72 74.5 58.5 Q 81 45 89 40 Q 117 22 152 22 Q 183 22 205.5 40.5 Q 228 59 228 94 Q 228 120 213 138 Q 198 156 160 167 Q 52 200 52 289 Q 52 314 62.5 336.5 Q 73 359 92.5 376.50003 Q 112 394 140 404 Q 168 414 203 414 Q 235 414 262 403.5 Q 289 393 304 376 Q 293 341 290 307 L 261 307 Z"/>
        </g>
        <g transform="matrix(1 0 0 1 11306 730)">
            <path fill="#000000" stroke="none" d="M 3 397 Q 46 398 85 401.5 Q 124 405 159 414 L 162 409 Q 160 390 158.5 369.5 Q 157 349 156.5 324.5 Q 156 300 155.5 269.5 Q 155 239 155 200 Q 155 151 161 121 Q 167 91 178 74.5 Q 189 58 206 52.5 Q 223 47 244 47 Q 262 47 279.5 55.5 Q 297 64 311.5 83 Q 326 102 335 133 Q 344 164 344 210 Q 344 231 344 247.5 Q 344 264 343 278.5 Q 342 293 341 306.5 Q 340 320 338 335 Q 335 358 318.5 364 Q 302 370 264 372 L 264 397 Q 307 398 346 401.5 Q 385 405 420 414 L 423 409 Q 421 390 419.5 371 Q 418 352 417.5 329.5 Q 417 307 416.5 278 Q 416 249 416 210 L 416 185 Q 416 160 416.5 141.5 Q 417 123 418.5 109.49999 Q 420 96 422 85.5 Q 424 75 427 64 Q 438 27 488 26 L 488 2 Q 466 2 448.5 1 Q 431 0 416 -1.5 Q 401 -3 387.5 -6.5 Q 374 -10 360 -14 L 356 -10 Q 351 11 349 30 Q 347 49 345 82 Q 331 37 297 11.5 Q 263 -14 217 -14 Q 151 -14 115 21.500002 Q 79 57 81 119 Q 82 139 82.5 152.5 Q 83 166 83 175 Q 83 184 83 189.5 Q 83 195 83 200 Q 83 243 82 273.5 Q 81 304 77 335 Q 74 358 57.5 364 Q 41 370 3 372 L 3 397 Z M 119 605 L 202 589 Q 214 558 228.50002 528 Q 243 498 263 465 L 221 472 L 116 602 L 119 605 Z"/>
        </g>
        <g transform="matrix(1 0 0 1 11808 730)">
            <path fill="#000000" stroke="none" d="M 379 2 Q 351 -14 325 -14 Q 301 -14 284.5 0 Q 268 14 260 51 Q 243 26 212.50002 6 Q 182 -14 144 -14 Q 124 -14 105 -5 Q 86 4 71.5 19.5 Q 57 35 48 55.5 Q 39 76 39 99 Q 39 145 73.5 172.50002 Q 108 200 158 208 Q 182 212 209 218.5 Q 236 225 256 232 Q 256 243 256.5 254.5 Q 257 266 257 280 Q 259 318 242.5 341 Q 226 364 181 364 Q 169 364 155 360.50003 Q 141 357 129.5 348 Q 118 339 109.49999 324 Q 101 309 99 286 L 69 284 Q 72 304 74.5 327 Q 77 350 78 367 Q 110 393 141.5 403.5 Q 173 414 205 414 Q 279 414 309 380 Q 339 346 335 293 Q 334 270 333 244.50002 Q 332 219 331.5 193 Q 331 167 331 142 Q 331 117 331 96 Q 332 67 344.50003 53.5 Q 357 40 370 40 Q 379 40 386 41 Q 393 42 402 47 L 406 43 L 401 15 L 379 2 Z M 125 94 Q 125 71 140 54.5 Q 155 38 178 38 Q 194 38 207.5 45.5 Q 221 53 231.5 65.5 Q 242 78 248 94.50001 Q 254 111 254 129 Q 254 141 254 156 Q 254 171 255 190 Q 196 188 160.5 163 Q 125 138 125 94 Z M 141 480 Q 121 480 108.5 492.5 Q 96 505 96 525 Q 96 545 108.5 557.5 Q 121 570 141 570 Q 161 570 173.5 557.5 Q 186 545 186 525 Q 186 505 173.5 492.5 Q 161 480 141 480 Z M 281 480 Q 261 480 248.5 492.5 Q 236 505 236 525 Q 236 545 248.5 557.5 Q 261 570 281 570 Q 301 570 313.5 557.5 Q 326 545 326 525 Q 326 505 313.5 492.5 Q 301 480 281 480 Z"/>
        </g>
        <g transform="matrix(1 0 0 1 12234 730)">
            <path fill="#000000" stroke="none" d="M 236 -3 Q 210 -1 181.5 -0.5 Q 153 0 126 0 Q 99 0 70.5 -0.5 Q 42 -1 17 -3 L 17 21 Q 46 22 63 29.500002 Q 80 37 82 55 Q 84 76 85.5 93 Q 87 110 88 126 Q 89 142 89.49999 160 Q 90 178 90 200 Q 90 234 89 269 Q 88 304 84 335 Q 81 358 64.5 364 Q 48 370 10 372 L 10 397 Q 53 398 83 401.5 Q 113 405 148 414 L 151 409 Q 153 389 155 362 Q 157 335 159 306 Q 173 355 207 384.5 Q 241 414 289 414 Q 351 414 381.5 388 Q 412 362 420 309 Q 436 357 469.5 385.5 Q 503 414 551 414 Q 617 414 653 378.5 Q 689 343 687 281 Q 685 215 685.5 156 Q 686 97 688 55 Q 689 37 706 29.500002 Q 723 22 752 21 L 752 -3 Q 727 -1 704 -0.5 Q 681 0 654 0 Q 641 0 629 0 Q 617 0 606 -2 L 604 2 Q 609 37 611 94.50001 Q 613 152 614 237 Q 615 300 591 326.5 Q 567 353 524 353 Q 506 353 488.50003 343.5 Q 471 334 456.50003 313.5 Q 442 293 433 262.5 Q 424 232 424 190 Q 423 151 423.49997 116.5 Q 424 82 426 55 Q 427 37 444.5 29.500002 Q 462 22 491 21 L 491 -3 Q 465 -1 442 -0.5 Q 419 0 392 0 Q 379 0 367 0 Q 355 0 344 -2 L 342 2 Q 347 37 349 94.50001 Q 351 152 352 237 Q 353 300 329 326.5 Q 305 353 262 353 Q 244 353 226.5 343.5 Q 209 334 194.5 313.5 Q 180 293 171 262.5 Q 162 232 162 190 Q 162 161 164 124.5 Q 166 88 170 55 Q 172 37 189.5 29.500002 Q 207 22 236 21 L 236 -3 Z"/>
        </g>
        <g transform="matrix(1 0 0 1 12992 730)">
            <path fill="#000000" stroke="none" d="M 37 198 Q 37 247 52.5 287 Q 68 327 95 355 Q 122 383 159 398.5 Q 196 414 238 414 Q 326 414 376.50003 359.49997 Q 427 305 427 202 Q 427 153 411.5 113 Q 396 73 369 45 Q 342 17 305 1.5 Q 268 -14 226 -14 Q 138 -14 87.5 40.5 Q 37 95 37 198 Z M 231 28 Q 279 28 310 68 Q 341 108 341 193 Q 341 232 333.5 264.5 Q 326 297 312 321 Q 298 345 278 358.49997 Q 258 372 233 372 Q 185 372 154 332 Q 123 292 123 207 Q 123 168 130.5 135.5 Q 138 103 152 79 Q 166 55 186 41.5 Q 206 28 231 28 Z M 336 546 Q 334 473 281 473 Q 270 473 256 477.5 Q 242 482 224 493 Q 207 504 196.50002 509 Q 186 514 178 514 Q 171 514 166.5 508.5 Q 162 503 160 485 L 134 482 Q 136 555 189 555 Q 201 555 215 551 Q 229 547 246 535 Q 277 514 292 514 Q 299 514 303.5 519.5 Q 308 525 310 543 L 336 546 Z"/>
        </g>
        <g transform="matrix(1 0 0 1 13455 730)">
            <path fill="#000000" stroke="none" d="M 637 9 Q 614 -3 592 -8.5 Q 570 -14 535 -14 Q 484 -14 446 10.5 Q 408 35 386 72 Q 360 31 319.5 8.5 Q 279 -14 227 -14 Q 139 -14 88.5 40.5 Q 38 95 38 198 Q 38 247 53.5 287 Q 69 327 96 355 Q 123 383 160 398.5 Q 197 414 239 414 Q 348 414 392 330 Q 415 368 456 391 Q 497 414 551 414 Q 582 414 608.5 401 Q 635 388 655 363.5 Q 675 339 686.5 304.5 Q 698 270 698 226 Q 698 215 681 205.5 Q 664 196 637 198 Q 607 200 579 200 Q 551 200 514 200 Q 488 200 466.5 199 Q 445 198 424 196 Q 428 124 464.5 81.5 Q 501 39 576 39 Q 602 39 628.5 48.5 Q 655 58 678 74 L 682 70 L 671 27 L 637 9 Z M 232 28 Q 280 28 311 68.5 Q 342 109 342 194 Q 342 233 334.5 265.5 Q 327 298 313 321.5 Q 299 345 279 358.49997 Q 259 372 234 372 Q 186 372 155 332 Q 124 292 124 207 Q 124 168 131.5 135.5 Q 139 103 153 79 Q 167 55 187 41.5 Q 207 28 232 28 Z M 425 233 Q 446 232 467.5 231.5 Q 489 231 511 231 Q 576 231 616 246 Q 616 272 610.5 294.5 Q 605 317 594 334 Q 583 351 567 361 Q 551 371 529 371 Q 508 371 490 360.50003 Q 472 350 458.5 331.5 Q 445 313 436 287.5 Q 427 262 425 233 Z"/>
        </g>
        <g transform="matrix(1 0 0 1 14188 730)">
            <path fill="#000000" stroke="none" d="M 227 -3 Q 202 -1 173.5 -0.5 Q 145 0 118 0 Q 91 0 62.5 -0.5 Q 34 -1 9 -3 L 9 21 Q 38 22 55 29.500002 Q 72 37 74 55 Q 76 76 77.5 98 Q 79 120 80 152.5 Q 81 185 81.5 232 Q 82 279 82 350 Q 82 418 81.5 464.5 Q 81 511 80 542.5 Q 79 574 77.5 595 Q 76 616 74 634 Q 72 653 56 661.5 Q 40 670 2 672 L 2 697 Q 53 698 91.5 701.49994 Q 130 705 165 714 L 168 709 Q 164 682 161 652.5 Q 158 623 156.5 582 Q 155 541 154.5 485.5 Q 154 430 154 350 Q 154 279 154.5 232 Q 155 185 156 152.5 Q 157 120 158.5 98 Q 160 76 162 55 Q 164 37 181 29.500002 Q 198 22 227 21 L 227 -3 Z"/>
        </g>
        <g transform="matrix(1 0 0 1 14643 730)">
            <path fill="#000000" stroke="none" d="M 331 9 Q 308 -3 286 -8.5 Q 264 -14 229 -14 Q 135 -14 85.5 38 Q 36 90 36 178 Q 36 231 50 274.5 Q 64 318 90.50001 349 Q 117 380 154.5 397 Q 192 414 239 414 Q 272 414 300 401 Q 328 388 348 363.5 Q 368 339 379.5 304.5 Q 391 270 391 226 Q 391 215 374 206.5 Q 357 198 330 199 Q 300 200 272.5 200 Q 245 200 208 200 Q 181 200 160 199.5 Q 139 199 118 198 Q 122 124 158.5 81.5 Q 195 39 270 39 Q 296 39 322.5 48.5 Q 349 58 372 74 L 376 70 L 365 27 L 331 9 Z M 119 233 Q 140 232 161.5 231.5 Q 183 231 205 231 Q 270 231 309 244 Q 309 270 302.5 293 Q 296 316 283.5 333 Q 271 350 253.5 360.50003 Q 236 371 214 371 Q 193 371 176.5 360.50003 Q 160 350 148 331.5 Q 136 313 128.5 287.5 Q 121 262 119 233 Z"/>
        </g>
        <g transform="matrix(1 0 0 1 15070 730)">
            <path fill="#000000" stroke="none" d="M 227 -3 Q 202 -1 173.5 -0.5 Q 145 0 118 0 Q 91 0 62.5 -0.5 Q 34 -1 9 -3 L 9 21 Q 38 22 55 29.500002 Q 72 37 74 55 Q 76 76 77.5 98 Q 79 120 80 152.5 Q 81 185 81.5 232 Q 82 279 82 350 Q 82 418 81.5 464.5 Q 81 511 80 542.5 Q 79 574 77.5 595 Q 76 616 74 634 Q 72 653 56 661.5 Q 40 670 2 672 L 2 697 Q 53 698 91.5 701.49994 Q 130 705 165 714 L 168 709 Q 164 682 161 652.5 Q 158 623 156.5 582 Q 155 541 154.5 485.5 Q 154 430 154 350 Q 154 279 154.5 232 Q 155 185 156 152.5 Q 157 120 158.5 98 Q 160 76 162 55 Q 164 37 181 29.500002 Q 198 22 227 21 L 227 -3 Z"/>
        </g>
        <g transform="matrix(1 0 0 1 15310 730)">
            <path fill="#000000" stroke="none" d="M 331 9 Q 308 -3 286 -8.5 Q 264 -14 229 -14 Q 135 -14 85.5 38 Q 36 90 36 178 Q 36 231 50 274.5 Q 64 318 90.50001 349 Q 117 380 154.5 397 Q 192 414 239 414 Q 272 414 300 401 Q 328 388 348 363.5 Q 368 339 379.5 304.5 Q 391 270 391 226 Q 391 215 374 206.5 Q 357 198 330 199 Q 300 200 272.5 200 Q 245 200 208 200 Q 181 200 160 199.5 Q 139 199 118 198 Q 122 124 158.5 81.5 Q 195 39 270 39 Q 296 39 322.5 48.5 Q 349 58 372 74 L 376 70 L 365 27 L 331 9 Z M 119 233 Q 140 232 161.5 231.5 Q 183 231 205 231 Q 270 231 309 244 Q 309 270 302.5 293 Q 296 316 283.5 333 Q 271 350 253.5 360.50003 Q 236 371 214 371 Q 193 371 176.5 360.50003 Q 160 350 148 331.5 Q 136 313 128.5 287.5 Q 121 262 119 233 Z"/>
        </g>
        <g transform="matrix(1 0 0 1 15737 730)">
            <path fill="#000000" stroke="none" d="M 417 396 Q 415 385 414.5 376 Q 414 367 414 356 L 341 356 Q 364 324 364 274 Q 364 241 351.5 215 Q 339 189 316.5 171 Q 294 153 263.5 143 Q 233 133 198 133 Q 193 133 187.49998 133 Q 182 133 177 134 Q 167 125 167 116 Q 167 105 181.5 99 Q 196 93 228 91 Q 265 89 295.5 83 Q 326 77 347.5 63.5 Q 369 50 380.5 28 Q 392 6 392 -27 Q 392 -67 371 -97.49999 Q 350 -128 317 -149 Q 284 -170 243.49998 -180.50002 Q 203 -191 164 -191 Q 133 -191 104.5 -181.5 Q 76 -172 54 -154.5 Q 32 -137 19 -113 Q 6 -89 6 -60 L 8 -56 Q 30 -38 56 -11 Q 82 16 105 44 Q 82 59 82 83 Q 82 95 98 108 Q 109 116 118.50001 122.50001 Q 128 129 141 140 Q 96 152 69.5 183.5 Q 43 215 43 264 Q 43 303 56.5 331 Q 70 359 93 377.50003 Q 116 396 146 405 Q 176 414 209 414 Q 231 414 247 411 Q 263 408 277 403 Q 290 398 300 397 Q 310 396 319 396 L 417 396 Z M 192 -153 Q 215 -153 237 -147.5 Q 259 -142 276 -130 Q 293 -118 303.5 -99.5 Q 314 -81 314 -55 Q 314 -23 292.5 -3.5 Q 271 16 221 19 Q 198 21 178 23 Q 158 25 143 30 Q 116 12 100 -9 Q 84 -30 84 -55 Q 84 -75 92 -92.5 Q 100 -110 114 -123.5 Q 128 -137 148 -145 Q 168 -153 192 -153 Z M 206 171 Q 244 171 266.5 195.49998 Q 289 220 289 264 Q 289 282 285 301.5 Q 281 321 270.5 337.5 Q 260 354 243 364.5 Q 226 375 199 375 Q 166 375 143.5 350 Q 121 325 121 271 Q 121 227 142.5 199 Q 164 171 206 171 Z"/>
        </g>
        <g transform="matrix(1 0 0 1 16161 730)">
            <path fill="#000000" stroke="none" d="M 379 2 Q 351 -14 325 -14 Q 301 -14 284.5 0 Q 268 14 260 51 Q 243 26 212.50002 6 Q 182 -14 144 -14 Q 124 -14 105 -5 Q 86 4 71.5 19.5 Q 57 35 48 55.5 Q 39 76 39 99 Q 39 145 73.5 172.50002 Q 108 200 158 208 Q 182 212 209 218.5 Q 236 225 256 232 Q 256 243 256.5 254.5 Q 257 266 257 280 Q 259 318 242.5 341 Q 226 364 181 364 Q 169 364 155 360.50003 Q 141 357 129.5 348 Q 118 339 109.49999 324 Q 101 309 99 286 L 69 284 Q 72 304 74.5 327 Q 77 350 78 367 Q 110 393 141.5 403.5 Q 173 414 205 414 Q 279 414 309 380 Q 339 346 335 293 Q 334 270 333 244.50002 Q 332 219 331.5 193 Q 331 167 331 142 Q 331 117 331 96 Q 332 67 344.50003 53.5 Q 357 40 370 40 Q 379 40 386 41 Q 393 42 402 47 L 406 43 L 401 15 L 379 2 Z M 178 38 Q 194 38 207.5 45.5 Q 221 53 231.5 65.5 Q 242 78 248 94.50001 Q 254 111 254 129 Q 254 141 254 156 Q 254 171 255 190 Q 196 188 160.5 163 Q 125 138 125 94 Q 125 71 140 54.5 Q 155 38 178 38 Z"/>
        </g>
        <g transform="matrix(1 0 0 1 16587 730)">
            <path fill="#000000" stroke="none" d="M 236 -3 Q 210 -1 181.5 -0.5 Q 153 0 126 0 Q 99 0 70.5 -0.5 Q 42 -1 17 -3 L 17 21 Q 46 22 63 29.500002 Q 80 37 82 55 Q 84 76 85.5 93 Q 87 110 88 126 Q 89 142 89.49999 160 Q 90 178 90 200 Q 90 234 89 269 Q 88 304 84 335 Q 81 358 64.5 364 Q 48 370 10 372 L 10 397 Q 53 398 83 401.5 Q 113 405 148 414 L 151 409 Q 153 390 155 365 Q 157 340 159 312 Q 172 357 206.5 385.5 Q 241 414 289 414 Q 355 414 391 378.5 Q 427 343 425 281 Q 423 215 423.49997 156 Q 424 97 426 55 Q 427 37 444 29.500002 Q 461 22 490 21 L 490 -3 Q 465 -1 442 -0.5 Q 419 0 392 0 Q 379 0 367 0 Q 355 0 344 -2 L 342 2 Q 347 37 349 94.50001 Q 351 152 352 237 Q 353 300 329 326.5 Q 305 353 262 353 Q 244 353 226.5 343.5 Q 209 334 194.5 313.5 Q 180 293 171 262.5 Q 162 232 162 190 Q 162 161 164 124.5 Q 166 88 170 55 Q 172 37 189.5 29.500002 Q 207 22 236 21 L 236 -3 Z"/>
        </g>
        <g transform="matrix(1 0 0 1 17083 730)">
            <path fill="#000000" stroke="none" d="M 283 25 Q 260 4 234 -5 Q 208 -14 178 -14 Q 130 -14 106 11 Q 82 36 84 76 Q 87 148 88 221 Q 89 294 88 357 L 22 357 L 26 382 Q 52 388 74 400 Q 93 411 110 437 Q 127 463 140 497 L 175 501 Q 171 478 169 450 Q 167 422 166 396 L 291 396 Q 289 388 288 378.5 Q 287 369 286 358 L 166 358 Q 165 329 164.5 294.5 Q 164 260 164 224 Q 164 188 164.5 152 Q 165 116 166 83 Q 167 58 181.5 48.5 Q 196 39 212 39 Q 232 39 250 45 Q 268 51 288 65 L 292 63 L 283 25 Z"/>
        </g>
    </g>
</svg>
