<svg width="15228" height="2000" viewBox="0 0 15228 2000" xmlns="http://www.w3.org/2000/svg">
    <defs/>
    <g transform="matrix(1 0 0 -1 0 2000)">
        <g transform="matrix(1 0 0 1 0 773)">
            <path fill="#000000" stroke="none" d="M 602 40 Q 575 25 549 15 Q 523 5 495.5 -1.5 Q 468 -8 437 -10.5 Q 406 -13 368 -13 Q 301 -13 242 8.5 Q 183 30 138.5 71 Q 94 112 68 172 Q 42 232 42 309 Q 42 385 72.5 447 Q 103 509 154 553.5 Q 205 598 270 622.5 Q 335 647 404 647 Q 474 647 529 636 Q 584 625 615 611 L 618 604 L 608 525 L 581 522 L 575 526 Q 565 563 522 582 Q 479 601 389 601 Q 339 601 294 582 Q 249 563 214.5 528.5 Q 180 494 160 446 Q 140 398 140 340 Q 140 266 160.5 210.5 Q 181 155 218.5 118 Q 256 81 309.5 62.5 Q 363 44 428 44 Q 469 44 509.5 54.5 Q 550 65 601 89 L 614 82 L 602 40 Z"/>
        </g>
        <g transform="matrix(1 0 0 1 644 773)">
            <path fill="#000000" stroke="none" d="M 12 15 Q 25 25 35 37 Q 45 49 54 70 Q 77 123 103.5 186.5 Q 130 250 159.5 321.5 Q 189 393 220.50002 471 Q 252 549 284 630 L 289 635 L 310 635 L 315 630 Q 366 496 422 361 Q 478 226 536 95 Q 550 64 561 46.5 Q 572 29 588 15 L 585 -2 Q 568 -1 539 -0.5 Q 510 0 472 0 L 466 3 Q 456 38 435.5 90.50001 Q 415 143 386 217 Q 363 218 331.5 219 Q 300 220 277 220 Q 246 220 220 219.49998 Q 194 219 173 218 Q 148 154 130 105 Q 112 56 95 3 L 91 0 Q 71 0 50 0 Q 29 0 15 -2 L 12 15 Z M 280 481 Q 260 441 238 389.5 Q 216 338 187 263 Q 207 262 227.49998 261.5 Q 248 261 274 261 Q 301 261 324 261 Q 347 261 372 263 L 286 481 L 280 481 Z"/>
        </g>
        <g transform="matrix(1 0 0 1 1250 773)">
            <path fill="#000000" stroke="none" d="M 78 5 Q 82 17 83 35 Q 84 55 84.5 74.5 Q 85 94 85.5 123 Q 86 152 86 196.50002 Q 86 241 86 310 Q 86 379 86 423.49997 Q 86 468 85.5 497 Q 85 526 84.5 545.5 Q 84 565 83 585 Q 82 603 78 615 L 82 621 Q 90 620 101.49999 620 Q 113 620 126 620 Q 162 620 190.5 621.5 Q 219 623 248 625 Q 349 632 409 592 Q 469 552 469 469 Q 469 423 450.5 387 Q 432 351 400.5 325.5 Q 369 300 327.5 286.5 Q 286 273 239 273 Q 224 273 209 279 L 196 314 L 201 319 Q 211 316 219.49998 315 Q 228 314 237 314 Q 266 314 291.5 322 Q 317 330 336.5 346 Q 356 362 367.5 386.5 Q 379 411 379 444 Q 379 516 343.5 549 Q 308 582 242 582 Q 225 582 205.5 580.5 Q 186 579 168 577 Q 167 553 166.5 529.5 Q 166 506 166 476.5 Q 166 447 166 407.49997 Q 166 368 166 310 Q 166 235 166 190 Q 166 145 166.5 117.49999 Q 167 90 167.5 72.5 Q 168 55 169 35 Q 170 17 174 5 L 170 -1 Q 162 0 150 0 Q 138 0 126 0 Q 114 0 102 0 Q 90 0 82 -1 L 78 5 Z"/>
        </g>
        <g transform="matrix(1 0 0 1 1722 773)">
            <path fill="#000000" stroke="none" d="M 78 5 Q 82 17 83 35 Q 84 55 84.5 74.5 Q 85 94 85.5 123 Q 86 152 86 196.50002 Q 86 241 86 310 Q 86 379 86 423.49997 Q 86 468 85.5 497 Q 85 526 84.5 545.5 Q 84 565 83 585 Q 82 603 78 615 L 82 621 Q 90 620 102 620 Q 114 620 126 620 Q 138 620 150 620 Q 162 620 170 621 L 174 615 Q 170 603 169 585 Q 168 565 167.5 545.5 Q 167 526 166.5 497 Q 166 468 166 423.49997 Q 166 379 166 310 Q 166 241 166 196.50002 Q 166 152 166.5 123 Q 167 94 167.5 74.5 Q 168 55 169 35 Q 170 17 174 5 L 170 -1 Q 162 0 150 0 Q 138 0 126 0 Q 114 0 102 0 Q 90 0 82 -1 L 78 5 Z"/>
        </g>
        <g transform="matrix(1 0 0 1 1974 773)">
            <path fill="#000000" stroke="none" d="M 225 5 Q 229 17 230 35 Q 231 55 231.5 76.5 Q 232 98 232.5 130 Q 233 162 233 208.5 Q 233 255 233 324 Q 233 419 232.5 487.49997 Q 232 556 230 576 L 184 576 Q 129 576 90 573 Q 73 571 62 567.5 Q 51 564 42 555 L 36 551 L 6 556 L 12 619 L 16 621 Q 53 619 95 619 Q 137 619 171 619 L 375 619 Q 409 619 451 619 Q 493 619 530 621 L 534 619 L 530 554 L 500 549 L 494 553 Q 477 570 444 573 Q 424 575 406 575.5 Q 388 576 362 576 L 316 576 Q 314 539 313.5 477.5 Q 313 416 313 324 Q 313 255 313 208.5 Q 313 162 313.5 130 Q 314 98 314.5 76.5 Q 315 55 316 35 Q 317 17 321 5 L 317 -1 Q 309 0 297 0 Q 285 0 273 0 Q 261 0 249 0 Q 237 0 229 -1 L 225 5 Z"/>
        </g>
        <g transform="matrix(1 0 0 1 2418 773)">
            <path fill="#000000" stroke="none" d="M 12 15 Q 25 25 35 37 Q 45 49 54 70 Q 77 123 103.5 186.5 Q 130 250 159.5 321.5 Q 189 393 220.50002 471 Q 252 549 284 630 L 289 635 L 310 635 L 315 630 Q 366 496 422 361 Q 478 226 536 95 Q 550 64 561 46.5 Q 572 29 588 15 L 585 -2 Q 568 -1 539 -0.5 Q 510 0 472 0 L 466 3 Q 456 38 435.5 90.50001 Q 415 143 386 217 Q 363 218 331.5 219 Q 300 220 277 220 Q 246 220 220 219.49998 Q 194 219 173 218 Q 148 154 130 105 Q 112 56 95 3 L 91 0 Q 71 0 50 0 Q 29 0 15 -2 L 12 15 Z M 280 481 Q 260 441 238 389.5 Q 216 338 187 263 Q 207 262 227.49998 261.5 Q 248 261 274 261 Q 301 261 324 261 Q 347 261 372 263 L 286 481 L 280 481 Z"/>
        </g>
        <g transform="matrix(1 0 0 1 3024 773)">
            <path fill="#000000" stroke="none" d="M 78 5 Q 82 17 83 35 Q 84 54 84.5 73 Q 85 92 85.5 121.49999 Q 86 151 86 196 Q 86 241 86 310 Q 86 379 86 423.49997 Q 86 468 85.5 497 Q 85 526 84.5 545.5 Q 84 565 83 585 Q 82 603 78 615 L 82 621 Q 90 620 102 620 Q 114 620 126 620 Q 138 620 150 620 Q 162 620 170 621 L 174 615 Q 170 603 169 585 Q 168 565 167.5 545.5 Q 167 526 166.5 497 Q 166 468 166 423.49997 Q 166 379 166 310 Q 166 261 166 230 Q 166 199 166.5 176.5 Q 167 154 167.5 136 Q 168 118 169 94 Q 170 74 183 59 Q 196 44 232 44 Q 283 44 308.5 45.5 Q 334 47 353 49 Q 370 51 380.5 56 Q 391 61 401 74 L 408 77 L 438 72 L 431 0 L 420 -2 Q 388 0 347.5 0 Q 307 0 268 0 L 126 0 Q 114 0 102 0 Q 90 0 82 -1 L 78 5 Z"/>
        </g>
        <g transform="matrix(1 0 0 1 3668 773)">
            <path fill="#000000" stroke="none" d="M 302 -61 Q 315 -51 330 -37 Q 345 -23 353 -12 Q 289 -12 232.5 10.5 Q 176 33 133.5 74.5 Q 91 116 66.5 175 Q 42 234 42 308 Q 42 382 67 444 Q 92 506 136.5 551 Q 181 596 243 621 Q 305 646 379 646 Q 456 646 517.5 621.5 Q 579 597 622.5 553.5 Q 666 510 689 452 Q 712 394 712 326 Q 712 244 686 182.5 Q 660 121 616 79.5 Q 572 38 514.5 15.5 Q 457 -7 394 -11 L 388 -19 Q 388 -27 407 -36 Q 442 -53 481 -69 Q 520 -85 558 -98.50001 Q 596 -112 631 -123.5 Q 666 -135 694 -143 Q 713 -148 726.5 -151 Q 740 -154 749.5 -155 Q 759 -156 766.49994 -156 Q 774 -156 782 -154 L 792 -164 Q 770 -190 756 -210.5 Q 742 -231 726 -258 L 718 -260 Q 665 -232 609 -204.50002 Q 553 -177 498.5 -152 Q 444 -127 394 -105.49999 Q 344 -84 302 -68 L 302 -61 Z M 384 32 Q 432 32 474 47.5 Q 516 63 547 95.5 Q 578 128 596 177.5 Q 614 227 614 295 Q 614 369 595.5 426.5 Q 577 484 543.5 523 Q 510 562 462.5 582 Q 415 602 357 602 Q 311 602 271 586 Q 231 570 202 537.5 Q 173 505 156.5 455.49997 Q 140 406 140 339 Q 140 191 202.5 111.5 Q 265 32 384 32 Z"/>
        </g>
        <g transform="matrix(1 0 0 1 4433 773)">
            <path fill="#000000" stroke="none" d="M 81 310 Q 81 388 80.5 457 Q 80 526 78 571 Q 77 580 74 589 Q 71 598 66 605 L 70 621 Q 75 620 89.49999 620 Q 104 620 121 620 Q 138 620 147.5 620 Q 157 620 165 621 L 169 615 Q 165 603 164 585 Q 163 566 162.5 544.5 Q 162 523 161.5 492.5 Q 161 462 161 418.5 Q 161 375 161 310 L 161 234 Q 161 182 174 146.5 Q 187 111 211.49998 88.5 Q 236 66 270.5 56 Q 305 46 348 46 Q 430 46 474 90.50001 Q 518 135 518 219 L 518 310 Q 518 375 518 418.5 Q 518 462 517.5 492.5 Q 517 523 516.5 544.5 Q 516 566 515 585 Q 514 603 510 615 L 514 621 Q 522 620 529.5 620 Q 537 620 548 620 Q 558 620 567.5 620 Q 577 620 582 621 L 586 605 Q 580 598 577 589 Q 574 580 574 571 Q 572 526 571.5 457 Q 571 388 571 310 L 571 216 Q 571 158 551 114.50001 Q 531 71 496.5 43 Q 462 15 415 1 Q 368 -13 313 -13 Q 264 -13 221.5 -0.5 Q 179 12 147.5 37.5 Q 116 63 98.50001 101 Q 81 139 81 191 L 81 310 Z"/>
        </g>
        <g transform="matrix(1 0 0 1 5070 773)">
            <path fill="#000000" stroke="none" d="M 78 5 Q 82 17 83 35 Q 84 54 84.5 73 Q 85 92 85.5 121.49999 Q 86 151 86 196 Q 86 241 86 310 Q 86 409 85.5 477 Q 85 545 83 585 Q 82 603 78 615 L 82 621 Q 90 620 102 620 Q 114 620 126 620 L 268 620 Q 302 620 344 620 Q 386 620 423 622 L 427 620 L 423 555 L 393 550 L 387 554 Q 382 563 374 567 Q 366 571 349 573 Q 310 576 255 576 L 168 576 Q 167 551 166.5 526 Q 166 501 166 473 Q 166 445 166 413.5 Q 166 382 166 343 Q 193 341 215 341 Q 237 341 267 341 Q 289 341 316.5 341.5 Q 344 342 381 345 L 385 343 L 378 293 Q 357 295 324.5 296 Q 292 297 264 297 Q 236 297 213 296.5 Q 190 296 166 294 Q 166 261 166 234.5 Q 166 208 166.5 185 Q 167 162 167.5 140 Q 168 118 169 94 Q 170 74 183 59 Q 196 44 232 44 Q 283 44 308.5 45.5 Q 334 47 353 49 Q 370 51 380.5 56 Q 391 61 401 74 L 408 77 L 438 72 L 431 0 L 420 -2 Q 388 0 347.5 0 Q 307 0 268 0 L 126 0 Q 114 0 102 0 Q 90 0 82 -1 L 78 5 Z"/>
        </g>
        <g transform="matrix(1 0 0 1 5544 773)">
            <path fill="#000000" stroke="none" d="M 44 25 L 54 94 L 85 97 L 91 93 Q 103 57 129 44.5 Q 155 32 200 32 Q 235 32 265 41 Q 295 50 316.5 67 Q 338 84 350 107.5 Q 362 131 362 160 Q 362 187 353.5 206 Q 345 225 328 240 Q 311 255 285.5 267.5 Q 260 280 226 294 Q 194 308 168 322 Q 142 336 123.5 354.5 Q 105 373 95 397.5 Q 85 422 85 455 Q 85 497 101 531 Q 117 565 145 589 Q 173 613 210.5 626.5 Q 248 640 290 640 Q 305 640 324 637 Q 343 634 361 629.5 Q 379 625 394 619 Q 409 613 417 606 L 420 599 L 410 534 L 379 531 L 373 535 Q 358 596 276 596 Q 227 596 195.49998 569 Q 164 542 164 495 Q 164 469 172 450.5 Q 180 432 195 418 Q 210 404 232.5 393 Q 255 382 283 371 Q 326 355 357 338.5 Q 388 322 407.49997 302 Q 427 282 436 257 Q 445 232 445 198 Q 445 152 426 113.49999 Q 407 75 372.5 47 Q 338 19 290 3.5 Q 242 -12 184 -12 Q 143 -12 110 -5.5 Q 77 1 47 18 L 44 25 Z"/>
        </g>
        <g transform="matrix(1 0 0 1 6045 773)">
            <path fill="#000000" stroke="none" d="M 225 5 Q 229 17 230 35 Q 231 55 231.5 76.5 Q 232 98 232.5 130 Q 233 162 233 208.5 Q 233 255 233 324 Q 233 419 232.5 487.49997 Q 232 556 230 576 L 184 576 Q 129 576 90 573 Q 73 571 62 567.5 Q 51 564 42 555 L 36 551 L 6 556 L 12 619 L 16 621 Q 53 619 95 619 Q 137 619 171 619 L 375 619 Q 409 619 451 619 Q 493 619 530 621 L 534 619 L 530 554 L 500 549 L 494 553 Q 477 570 444 573 Q 424 575 406 575.5 Q 388 576 362 576 L 316 576 Q 314 539 313.5 477.5 Q 313 416 313 324 Q 313 255 313 208.5 Q 313 162 313.5 130 Q 314 98 314.5 76.5 Q 315 55 316 35 Q 317 17 321 5 L 317 -1 Q 309 0 297 0 Q 285 0 273 0 Q 261 0 249 0 Q 237 0 229 -1 L 225 5 Z"/>
        </g>
        <g transform="matrix(1 0 0 1 6772 773)">
            <path fill="#000000" stroke="none" d="M 87 5 Q 89 10 89.49999 18 Q 90 26 91 35 Q 92 57 92.5 81.5 Q 93 106 93 141.5 Q 93 177 93 228.50002 Q 93 280 93 357 Q 83 357 66 356 Q 49 355 41 354 L 40 378 L 45 383 Q 57 385 70 389.5 Q 83 394 90 399 L 92 406 L 92 458 Q 92 526 107 574.5 Q 122 623 148.5 654.5 Q 175 686 209.5 701 Q 244 716 283 716 Q 314 716 341 707.50006 Q 368 699 379 687 L 381 680 L 375 619 L 348 616 L 342 620 Q 336 640 316.5 658 Q 297 676 259 676 Q 215 676 189.5 638.5 Q 164 601 164 518 L 164 400 Q 173 400 186.5 400.5 Q 200 401 214.5 401.5 Q 229 402 243 403 Q 257 404 267 405 L 282 400 L 277 363 Q 204 363 166 360 Q 166 290 166 238.5 Q 166 187 166.5 149 Q 167 111 167.5 84 Q 168 57 169 35 Q 169 26 170 18 Q 171 10 173 5 L 169 -1 Q 161 0 151 0 Q 141 0 130 0 Q 119 0 109 0 Q 99 0 91 -1 L 87 5 Z"/>
        </g>
        <g transform="matrix(1 0 0 1 7062 773)">
            <path fill="#000000" stroke="none" d="M 75 303 L 70 354 L 73 361 Q 98 384 130 396 Q 162 408 208 408 Q 280 408 305.5 376 Q 331 344 329 286 Q 328 265 327.5 247.5 Q 327 230 326.5 212 Q 326 194 326 174.5 Q 326 155 326 130 Q 326 102 328 84.5 Q 330 67 334 57 Q 338 47 344 43.5 Q 350 40 357 40 Q 364 40 370.5 41.5 Q 377 43 390 48 L 399 24 Q 377 8 354.5 0 Q 332 -8 313 -8 Q 291 -8 277.5 3 Q 264 14 259 40 Q 240 20 213.5 6 Q 187 -8 149 -8 Q 129 -8 110.50001 0 Q 92 8 77.5 23 Q 63 38 54.5 59.5 Q 46 81 46 109 Q 46 136 62.5 157.5 Q 79 179 115 187 Q 154 196 189.5 207 Q 225 218 254 229 Q 256 240 256.5 255 Q 257 270 257 282 Q 257 301 255 316.5 Q 253 332 246 343.5 Q 239 355 227 361.50003 Q 215 368 195 368 Q 160 368 138.5 351.5 Q 117 335 109 305 L 103 301 L 75 303 Z M 189 42 Q 206 42 218.5 50.5 Q 231 59 240 73 Q 248 84 252.50002 98.50001 Q 257 113 256 133 Q 256 143 255.5 148 Q 255 153 255 157 Q 255 161 255 166.5 Q 255 172 255 182 Q 229 178 204 172 Q 179 166 158 158 Q 142 151 135.5 139.5 Q 129 128 129 116 Q 129 80 145.5 61 Q 162 42 189 42 Z"/>
        </g>
        <g transform="matrix(1 0 0 1 7477 773)">
            <path fill="#000000" stroke="none" d="M 42 27 L 48 82 L 75 85 L 81 81 Q 95 30 157 30 Q 193 30 215 46.5 Q 237 63 237 92 Q 237 116 222.5 133.5 Q 208 151 161 168 Q 110 187 86 213 Q 62 239 62 284 Q 62 308 72.5 330.5 Q 83 353 101.49999 370 Q 120 387 145 397.5 Q 170 408 199 408 Q 234 408 258 401.5 Q 282 395 301 381 L 304 374 L 298 318 L 271 315 L 265 319 Q 257 344 241 357 Q 225 370 195 370 Q 169 370 149.5 354 Q 130 338 130 313 Q 130 284 144.5 269 Q 159 254 191 242 Q 226 229 248.5 216 Q 271 203 284 189 Q 297 175 302 159 Q 307 143 307 125 Q 307 91 293.5 65.5 Q 280 40 257.5 24 Q 235 8 205.5 0 Q 176 -8 145 -8 Q 117 -8 92 -1.5 Q 67 5 45 20 L 42 27 Z"/>
        </g>
        <g transform="matrix(1 0 0 1 7827 773)">
            <path fill="#000000" stroke="none" d="M 70 5 Q 72 10 72.5 18 Q 73 26 74 35 Q 75 57 75.5 80 Q 76 103 76.5 140.5 Q 77 178 77 237 Q 77 296 77 390 Q 77 445 77 483 Q 77 521 77 545.5 Q 77 570 76.5 583 Q 76 596 76 602 Q 73 658 60 671 L 64 687 L 140 707 L 153 701 Q 152 685 151 663.5 Q 150 642 149.5 603 Q 149 564 149 501 Q 149 438 149 339 Q 172 369 200 388.5 Q 228 408 269 408 Q 334 408 371.5 368.5 Q 409 329 409 263 Q 409 206 409 170.5 Q 409 135 409 112.5 Q 409 90 409.50003 76 Q 410 62 410 50 Q 410 26 423 16 L 420 -2 Q 412 -1 398.5 -0.5 Q 385 0 376 0 L 339 0 Q 338 9 337.5 17 Q 337 25 337 37 Q 337 49 337 66.5 Q 337 84 337 112 L 337 237 Q 337 297 311.5 323 Q 286 349 248 349 Q 201 349 172 310 Q 160 294 154.5 273.5 Q 149 253 149 220 Q 149 184 149 158 Q 149 132 149.5 111.5 Q 150 91 150.5 73 Q 151 55 152 35 Q 152 26 153 18 Q 154 10 156 5 L 152 -1 Q 144 0 134 0 Q 124 0 113 0 Q 102 0 92 0 Q 82 0 74 -1 L 70 5 Z"/>
        </g>
        <g transform="matrix(1 0 0 1 8308 773)">
            <path fill="#000000" stroke="none" d="M 74 5 Q 76 10 76.5 18 Q 77 26 78 35 Q 80 80 80.5 133 Q 81 186 81 233 Q 81 270 81 289 Q 81 308 80 319 Q 78 344 75.5 356 Q 73 368 65 377 L 69 393 L 144 413 L 157 407 Q 155 386 154 335 Q 153 284 153 220 Q 153 188 153 163.5 Q 153 139 153.5 118 Q 154 97 154.5 77 Q 155 57 156 35 Q 156 26 157 18 Q 158 10 160 5 L 156 -1 Q 148 0 138 0 Q 128 0 117 0 Q 106 0 96 0 Q 86 0 78 -1 L 74 5 Z M 69 532 Q 69 552 82 565.5 Q 95 579 115 579 Q 134 579 146.5 566.5 Q 159 554 159 536 Q 159 516 145.5 502.49997 Q 132 489 112 489 Q 94 489 81.5 501 Q 69 513 69 532 Z"/>
        </g>
        <g transform="matrix(1 0 0 1 8539 773)">
            <path fill="#000000" stroke="none" d="M 39 190 Q 39 240 53.5 280 Q 68 320 94.50001 348.5 Q 121 377 158 392.50003 Q 195 408 240 408 Q 290 408 328.5 391.49997 Q 367 375 393 347 Q 419 319 432 283.5 Q 445 248 445 210 Q 445 158 429 117.49999 Q 413 77 385 49 Q 357 21 319.5 6.5 Q 282 -8 240 -8 Q 196 -8 159 6 Q 122 20 95.5 46 Q 69 72 54 108.5 Q 39 145 39 190 Z M 122 222 Q 122 131 156.5 81.5 Q 191 32 246 32 Q 299 32 330.5 72.5 Q 362 113 362 184 Q 362 224 353.5 257.5 Q 345 291 329 315.5 Q 313 340 289 354 Q 265 368 234 368 Q 179 368 150.5 331 Q 122 294 122 222 Z"/>
        </g>
        <g transform="matrix(1 0 0 1 9023 773)">
            <path fill="#000000" stroke="none" d="M 74 5 Q 76 10 76.5 18 Q 77 26 78 35 Q 80 80 80.5 133 Q 81 186 81 233 Q 81 270 81 289 Q 81 308 80 319 Q 78 344 75.5 356 Q 73 368 65 377 L 69 393 L 144 413 L 157 407 Q 155 386 154 373.5 Q 153 361 153 339 Q 176 369 204 388.5 Q 232 408 273 408 Q 338 408 375.49997 368.5 Q 413 329 413 263 Q 413 206 413 170.5 Q 413 135 413 112.5 Q 413 90 413.5 76 Q 414 62 414 50 Q 414 26 427 16 L 424 -2 Q 416 -1 402.5 -0.5 Q 389 0 380 0 L 343 0 Q 342 9 341.5 17 Q 341 25 341 37 Q 341 49 341 66.5 Q 341 84 341 112 L 341 237 Q 341 297 315.5 323 Q 290 349 252 349 Q 205 349 176 310 Q 153 280 153 220 Q 153 124 156 35 Q 156 26 157 18 Q 158 10 160 5 L 156 -1 Q 148 0 138 0 Q 128 0 117 0 Q 106 0 96 0 Q 86 0 78 -1 L 74 5 Z"/>
        </g>
        <g transform="matrix(1 0 0 1 9690 773)">
            <path fill="#000000" stroke="none" d="M 374 58 L 385 31 Q 359 13 325 2.5 Q 291 -8 246 -8 Q 201 -8 163 5.5 Q 125 19 97.49999 45 Q 70 71 54.5 109.49999 Q 39 148 39 198 Q 39 245 57 284 Q 75 323 105.49999 350.5 Q 136 378 176.5 393 Q 217 408 262 408 Q 299 408 328.5 399.5 Q 358 391 378 376 L 381 369 L 375 311 L 348 308 L 342 312 Q 334 337 312.5 352.5 Q 291 368 247 368 Q 192 368 156 329 Q 120 290 120 215 Q 120 127 167 84 Q 214 41 286 41 Q 309 41 330.5 46.5 Q 352 52 369 60 L 374 58 Z"/>
        </g>
        <g transform="matrix(1 0 0 1 10104 773)">
            <path fill="#000000" stroke="none" d="M 137 161 Q 137 101 162.5 75 Q 188 49 226 49 Q 249 49 268 58 Q 287 67 302 88 Q 325 122 325 180 L 325 233 Q 325 270 325 289 Q 325 308 324 319 Q 322 344 319.5 356 Q 317 368 309 377 L 313 393 L 388 413 L 401 407 Q 399 386 398 338 Q 397 290 397 220 Q 397 185 397 162 Q 397 139 398 121.49999 Q 399 104 400 90.50001 Q 401 77 402 62 Q 404 50 424 50 L 426 18 Q 404 14 386 9 Q 368 4 349 -6 L 331 -4 Q 329 4 327 19.5 Q 325 35 325 61 Q 302 31 274 10.5 Q 246 -10 205 -10 Q 140 -10 102.50001 29.500002 Q 65 69 65 135 Q 65 192 65 226 Q 65 260 65 280 Q 65 300 64.5 309.5 Q 64 319 64 325 Q 63 345 60 356.5 Q 57 368 49 377 L 53 393 L 128 413 L 141 407 Q 139 386 138 335 Q 137 284 137 220 L 137 161 Z"/>
        </g>
        <g transform="matrix(1 0 0 1 10581 773)">
            <path fill="#000000" stroke="none" d="M 74 5 Q 76 10 76.5 18 Q 77 26 78 35 Q 80 80 80.5 133 Q 81 186 81 233 Q 81 270 81 289 Q 81 308 80 319 Q 78 344 75.5 356 Q 73 368 65 377 L 69 393 L 144 413 L 157 407 Q 155 386 154 335 Q 153 284 153 220 Q 153 188 153 163.5 Q 153 139 153.5 118 Q 154 97 154.5 77 Q 155 57 156 35 Q 156 26 157 18 Q 158 10 160 5 L 156 -1 Q 148 0 138 0 Q 128 0 117 0 Q 106 0 96 0 Q 86 0 78 -1 L 74 5 Z M 69 532 Q 69 552 82 565.5 Q 95 579 115 579 Q 134 579 146.5 566.5 Q 159 554 159 536 Q 159 516 145.5 502.49997 Q 132 489 112 489 Q 94 489 81.5 501 Q 69 513 69 532 Z"/>
        </g>
        <g transform="matrix(1 0 0 1 10812 773)">
            <path fill="#000000" stroke="none" d="M 42 27 L 48 82 L 75 85 L 81 81 Q 95 30 157 30 Q 193 30 215 46.5 Q 237 63 237 92 Q 237 116 222.5 133.5 Q 208 151 161 168 Q 110 187 86 213 Q 62 239 62 284 Q 62 308 72.5 330.5 Q 83 353 101.49999 370 Q 120 387 145 397.5 Q 170 408 199 408 Q 234 408 258 401.5 Q 282 395 301 381 L 304 374 L 298 318 L 271 315 L 265 319 Q 257 344 241 357 Q 225 370 195 370 Q 169 370 149.5 354 Q 130 338 130 313 Q 130 284 144.5 269 Q 159 254 191 242 Q 226 229 248.5 216 Q 271 203 284 189 Q 297 175 302 159 Q 307 143 307 125 Q 307 91 293.5 65.5 Q 280 40 257.5 24 Q 235 8 205.5 0 Q 176 -8 145 -8 Q 117 -8 92 -1.5 Q 67 5 45 20 L 42 27 Z"/>
        </g>
        <g transform="matrix(1 0 0 1 11162 773)">
            <path fill="#000000" stroke="none" d="M 74 5 Q 76 10 76.5 18 Q 77 26 78 35 Q 80 80 80.5 133 Q 81 186 81 233 Q 81 270 81 289 Q 81 308 80 319 Q 78 344 75.5 356 Q 73 368 65 377 L 69 393 L 144 413 L 157 407 Q 155 386 154 335 Q 153 284 153 220 Q 153 188 153 163.5 Q 153 139 153.5 118 Q 154 97 154.5 77 Q 155 57 156 35 Q 156 26 157 18 Q 158 10 160 5 L 156 -1 Q 148 0 138 0 Q 128 0 117 0 Q 106 0 96 0 Q 86 0 78 -1 L 74 5 Z M 69 532 Q 69 552 82 565.5 Q 95 579 115 579 Q 134 579 146.5 566.5 Q 159 554 159 536 Q 159 516 145.5 502.49997 Q 132 489 112 489 Q 94 489 81.5 501 Q 69 513 69 532 Z"/>
        </g>
        <g transform="matrix(1 0 0 1 11393 773)">
            <path fill="#000000" stroke="none" d="M 74 5 Q 76 10 76.5 18 Q 77 26 78 35 Q 80 80 80.5 133 Q 81 186 81 233 Q 81 270 81 289 Q 81 308 80 319 Q 78 344 75.5 356 Q 73 368 65 377 L 69 393 L 144 413 L 157 407 Q 155 386 154 373.5 Q 153 361 153 339 Q 176 369 204 388.5 Q 232 408 273 408 Q 338 408 375.49997 368.5 Q 413 329 413 263 Q 413 206 413 170.5 Q 413 135 413 112.5 Q 413 90 413.5 76 Q 414 62 414 50 Q 414 26 427 16 L 424 -2 Q 416 -1 402.5 -0.5 Q 389 0 380 0 L 343 0 Q 342 9 341.5 17 Q 341 25 341 37 Q 341 49 341 66.5 Q 341 84 341 112 L 341 237 Q 341 297 315.5 323 Q 290 349 252 349 Q 205 349 176 310 Q 153 280 153 220 Q 153 124 156 35 Q 156 26 157 18 Q 158 10 160 5 L 156 -1 Q 148 0 138 0 Q 128 0 117 0 Q 106 0 96 0 Q 86 0 78 -1 L 74 5 Z"/>
        </g>
        <g transform="matrix(1 0 0 1 11873 773)">
            <path fill="#000000" stroke="none" d="M 118 208 Q 119 167 132 135.5 Q 145 104 167 83 Q 189 62 219.49998 51.5 Q 250 41 286 41 Q 309 41 330.5 46.5 Q 352 52 369 60 L 374 58 L 385 31 Q 359 13 325 2.5 Q 291 -8 246 -8 Q 200 -8 162 5.5 Q 124 19 96.5 45.5 Q 69 72 54 111 Q 39 150 39 200 Q 39 242 53.5 280 Q 68 318 94 346.5 Q 120 375 156 391.49997 Q 192 408 235 408 Q 276 408 306 394 Q 336 380 356.5 356 Q 377 332 387 299 Q 397 266 397 228 Q 397 222 391.49997 218 Q 386 214 368 211.49998 Q 350 209 315 208.5 Q 280 208 221 208 L 118 208 Z M 221 248 Q 281 248 300 250.5 Q 319 253 319 258 Q 319 306 296.5 337 Q 274 368 227 368 Q 182 368 154.5 338 Q 127 308 119 248 L 221 248 Z"/>
        </g>
        <g transform="matrix(1 0 0 1 12494 773)">
            <path fill="#000000" stroke="none" d="M 118 208 Q 119 167 132 135.5 Q 145 104 167 83 Q 189 62 219.49998 51.5 Q 250 41 286 41 Q 309 41 330.5 46.5 Q 352 52 369 60 L 374 58 L 385 31 Q 359 13 325 2.5 Q 291 -8 246 -8 Q 200 -8 162 5.5 Q 124 19 96.5 45.5 Q 69 72 54 111 Q 39 150 39 200 Q 39 242 53.5 280 Q 68 318 94 346.5 Q 120 375 156 391.49997 Q 192 408 235 408 Q 276 408 306 394 Q 336 380 356.5 356 Q 377 332 387 299 Q 397 266 397 228 Q 397 222 391.49997 218 Q 386 214 368 211.49998 Q 350 209 315 208.5 Q 280 208 221 208 L 118 208 Z M 221 248 Q 281 248 300 250.5 Q 319 253 319 258 Q 319 306 296.5 337 Q 274 368 227 368 Q 182 368 154.5 338 Q 127 308 119 248 L 221 248 Z"/>
        </g>
        <g transform="matrix(1 0 0 1 12928 773)">
            <path fill="#000000" stroke="none" d="M 70 5 Q 72 10 72.5 18 Q 73 26 74 35 Q 75 57 75.5 80 Q 76 103 76.5 140.5 Q 77 178 77 237 Q 77 296 77 390 Q 77 445 77 483 Q 77 521 77 545.5 Q 77 570 76.5 583 Q 76 596 76 602 Q 73 658 60 671 L 64 687 L 140 707 L 153 701 Q 152 683 151 662.5 Q 150 642 149.5 605.5 Q 149 569 149 509 Q 149 449 149 352 Q 149 282 149 231.5 Q 149 181 149.5 145 Q 150 109 150.5 83 Q 151 57 152 35 Q 152 26 153 18 Q 154 10 156 5 L 152 -1 Q 144 0 134 0 Q 124 0 113 0 Q 102 0 92 0 Q 82 0 74 -1 L 70 5 Z"/>
        </g>
        <g transform="matrix(1 0 0 1 13154 773)">
            <path fill="#000000" stroke="none" d="M 118 208 Q 119 167 132 135.5 Q 145 104 167 83 Q 189 62 219.49998 51.5 Q 250 41 286 41 Q 309 41 330.5 46.5 Q 352 52 369 60 L 374 58 L 385 31 Q 359 13 325 2.5 Q 291 -8 246 -8 Q 200 -8 162 5.5 Q 124 19 96.5 45.5 Q 69 72 54 111 Q 39 150 39 200 Q 39 242 53.5 280 Q 68 318 94 346.5 Q 120 375 156 391.49997 Q 192 408 235 408 Q 276 408 306 394 Q 336 380 356.5 356 Q 377 332 387 299 Q 397 266 397 228 Q 397 222 391.49997 218 Q 386 214 368 211.49998 Q 350 209 315 208.5 Q 280 208 221 208 L 118 208 Z M 221 248 Q 281 248 300 250.5 Q 319 253 319 258 Q 319 306 296.5 337 Q 274 368 227 368 Q 182 368 154.5 338 Q 127 308 119 248 L 221 248 Z"/>
        </g>
        <g transform="matrix(1 0 0 1 13588 773)">
            <path fill="#000000" stroke="none" d="M 68 70 Q 82 83 92.5 96.5 Q 103 110 114 128 Q 88 146 70 177 Q 52 208 52 252 Q 52 289 64.5 318 Q 77 347 98 367 Q 119 387 148 397.5 Q 177 408 210 408 Q 241 408 265 401 Q 271 399 282 396 Q 293 393 305 393 Q 320 393 339.5 394 Q 359 395 380 399 L 394 392 L 389 355 L 329 355 Q 349 330 357 305 Q 365 280 365 257 Q 365 181 319.5 143 Q 274 105 202 105 Q 190 105 173 107.5 Q 156 110 144 115 Q 133 104 133 95 Q 133 69 157 55 Q 181 41 239 41 Q 329 41 366.5 12 Q 404 -17 404 -68 Q 404 -106 383 -140.5 Q 362 -175 328 -201 Q 294 -227 251 -242.5 Q 208 -258 164 -258 Q 93 -258 49.5 -224.5 Q 6 -191 6 -133 Q 6 -114 19 -102 Q 43 -80 63.5 -59 Q 84 -38 104 -12 Q 84 -4 72.5 14 Q 61 32 61 52 L 68 70 Z M 88 -124 Q 88 -145 96.5 -162 Q 105 -179 119.5 -191 Q 134 -203 152.5 -209.5 Q 171 -216 192 -216 Q 222 -216 246 -206 Q 270 -196 287 -179 Q 304 -162 313.5 -139.5 Q 323 -117 323 -91 Q 323 -60 303.5 -41.5 Q 284 -23 231 -23 Q 214 -23 193 -22.499998 Q 172 -22 153 -20 L 146 -21 Q 127 -38 115.5 -51.5 Q 104 -65 98 -76.5 Q 92 -88 90 -99.5 Q 88 -111 88 -124 Z M 209 141 Q 251 141 271.5 169 Q 292 197 292 246 Q 292 300 268.5 335 Q 245 370 203 370 Q 165 370 145 342 Q 125 314 125 269 Q 125 215 146 178 Q 167 141 209 141 Z"/>
        </g>
        <g transform="matrix(1 0 0 1 14013 773)">
            <path fill="#000000" stroke="none" d="M 75 303 L 70 354 L 73 361 Q 98 384 130 396 Q 162 408 208 408 Q 280 408 305.5 376 Q 331 344 329 286 Q 328 265 327.5 247.5 Q 327 230 326.5 212 Q 326 194 326 174.5 Q 326 155 326 130 Q 326 102 328 84.5 Q 330 67 334 57 Q 338 47 344 43.5 Q 350 40 357 40 Q 364 40 370.5 41.5 Q 377 43 390 48 L 399 24 Q 377 8 354.5 0 Q 332 -8 313 -8 Q 291 -8 277.5 3 Q 264 14 259 40 Q 240 20 213.5 6 Q 187 -8 149 -8 Q 129 -8 110.50001 0 Q 92 8 77.5 23 Q 63 38 54.5 59.5 Q 46 81 46 109 Q 46 136 62.5 157.5 Q 79 179 115 187 Q 154 196 189.5 207 Q 225 218 254 229 Q 256 240 256.5 255 Q 257 270 257 282 Q 257 301 255 316.5 Q 253 332 246 343.5 Q 239 355 227 361.50003 Q 215 368 195 368 Q 160 368 138.5 351.5 Q 117 335 109 305 L 103 301 L 75 303 Z M 189 42 Q 206 42 218.5 50.5 Q 231 59 240 73 Q 248 84 252.50002 98.50001 Q 257 113 256 133 Q 256 143 255.5 148 Q 255 153 255 157 Q 255 161 255 166.5 Q 255 172 255 182 Q 229 178 204 172 Q 179 166 158 158 Q 142 151 135.5 139.5 Q 129 128 129 116 Q 129 80 145.5 61 Q 162 42 189 42 Z"/>
        </g>
        <g transform="matrix(1 0 0 1 14428 773)">
            <path fill="#000000" stroke="none" d="M 74 5 Q 76 10 76.5 18 Q 77 26 78 35 Q 80 80 80.5 133 Q 81 186 81 233 Q 81 270 81 289 Q 81 308 80 319 Q 78 344 75.5 356 Q 73 368 65 377 L 69 393 L 144 413 L 157 407 Q 155 386 154 373.5 Q 153 361 153 339 Q 176 369 204 388.5 Q 232 408 273 408 Q 338 408 375.49997 368.5 Q 413 329 413 263 Q 413 206 413 170.5 Q 413 135 413 112.5 Q 413 90 413.5 76 Q 414 62 414 50 Q 414 26 427 16 L 424 -2 Q 416 -1 402.5 -0.5 Q 389 0 380 0 L 343 0 Q 342 9 341.5 17 Q 341 25 341 37 Q 341 49 341 66.5 Q 341 84 341 112 L 341 237 Q 341 297 315.5 323 Q 290 349 252 349 Q 205 349 176 310 Q 153 280 153 220 Q 153 124 156 35 Q 156 26 157 18 Q 158 10 160 5 L 156 -1 Q 148 0 138 0 Q 128 0 117 0 Q 106 0 96 0 Q 86 0 78 -1 L 74 5 Z"/>
        </g>
        <g transform="matrix(1 0 0 1 14908 773)">
            <path fill="#000000" stroke="none" d="M 288 50 L 297 24 Q 279 14 264.5 8 Q 250 2 236.50002 -1.5 Q 223 -5 209 -6.5 Q 195 -8 177 -8 Q 134 -8 106.50001 22.499998 Q 79 53 82 109 Q 82 118 83 135 Q 84 152 84.5 172.50002 Q 85 193 85.5 214.5 Q 86 236 86 253 Q 86 279 85.5 307.5 Q 85 336 84 355 Q 65 355 42 352 L 39 372 L 43 378 Q 62 386 74.5 394.5 Q 87 403 99 414 Q 113 427 121 437 Q 129 447 137 461 L 162 460 Q 159 430 159 397 Q 168 397 184 397.5 Q 200 398 218 398.5 Q 236 399 252.50002 400 Q 269 401 279 402 L 294 397 L 290 360 Q 281 360 263.5 360 Q 246 360 226 359.49997 Q 206 359 187.49998 358.49997 Q 169 358 160 357 Q 159 321 159 283 Q 159 245 159 210.5 Q 159 176 159 148 Q 159 120 160 103 Q 161 82 166 69.5 Q 171 57 179 50 Q 187 43 196.50002 41 Q 206 39 215 39 Q 234 39 249 41.5 Q 264 44 281 50 L 288 50 Z"/>
        </g>
    </g>
</svg>
