<svg width="15228" height="2000" viewBox="0 0 15228 2000" xmlns="http://www.w3.org/2000/svg">
    <defs/>
    <path fill="#000000" stroke="none" transform="matrix(1 0 0 -1 0 1227)" d="M 602 40 C 584 30 566.33333333333 21.66666666667 549 15 C 531.66666666667 8.33333333333 514 3 496 -1 C 477.33333333333 -5.66666666667 457.66666666667 -8.66666666667 437 -10 C 416.33333333333 -12 393.33333333333 -13 368 -13 C 323.33333333333 -13 281.33333333333 -5.66666666667 242 9 C 202.66666666667 23 168.33333333333 43.66666666667 139 71 C 109 98.33333333333 85.33333333333 132 68 172 C 50.66666666667 212 42 257.66666666667 42 309 C 42 359.66666666667 52.33333333333 405.66666666667 73 447 C 93 488.33333333333 120 524 154 554 C 188 583.33333333333 226.66666666667 606.33333333333 270 623 C 313.33333333333 639 358 647 404 647 C 450.66666666667 647 492.33333333333 643.33333333333 529 636 C 565.66666666667 628.66666666667 594.33333333333 620.33333333333 615 611 L 618 604 L 608 525 L 581 522 L 575 526 C 568.33333333333 550.66666666667 550.66666666667 569.33333333333 522 582 C 493.33333333333 594.66666666667 449 601 389 601 C 355.66666666667 601 324 594.66666666667 294 582 C 264 569.33333333333 237.66666666667 551.66666666667 215 529 C 191.66666666667 505.66666666667 173.33333333333 478 160 446 C 146.66666666667 414 140 378.66666666667 140 340 C 140 290.66666666667 147 247.66666666667 161 211 C 174.33333333333 173.66666666667 193.66666666667 142.66666666667 219 118 C 243.66666666667 93.33333333333 274 75 310 63 C 345.33333333333 50.33333333333 384.66666666667 44 428 44 C 455.33333333333 44 482.66666666667 47.66666666667 510 55 C 536.66666666667 61.66666666667 567 73 601 89 L 614 82 L 602 40 Z"/>
    <path fill="#000000" stroke="none" transform="matrix(1 0 0 -1 644 1227)" d="M 12 15 C 20.66666666667 21.66666666667 28.33333333333 29 35 37 C 41.66666666667 45 48 56 54 70 C 69.33333333333 105.33333333333 86 144.33333333333 104 187 C 121.33333333333 229 140 274 160 322 C 179.33333333333 369.33333333333 199.66666666667 419 221 471 C 241.66666666667 523 262.66666666667 576 284 630 L 289 635 L 310 635 L 315 630 C 349 540.66666666667 384.66666666667 451 422 361 C 459.33333333333 271 497.33333333333 182.33333333333 536 95 C 545.33333333333 74.33333333333 553.66666666667 58.33333333333 561 47 C 568.33333333333 35 577.33333333333 24.33333333333 588 15 L 585 -2 C 573.66666666667 -1.33333333333 558.33333333333 -0.66666666667 539 0 C 519.66666666667 0 497.33333333333 0 472 0 L 466 3 C 459.33333333333 26.33333333333 449.33333333333 55.66666666667 436 91 C 422 125.66666666667 405.33333333333 167.66666666667 386 217 C 370.66666666667 217.66666666667 352.66666666667 218.33333333333 332 219 C 310.66666666667 219.66666666667 292.33333333333 220 277 220 C 256.33333333333 220 237.33333333333 220 220 220 C 202.66666666667 219.33333333333 187 218.66666666667 173 218 C 156.33333333333 175.33333333333 142 137.66666666667 130 105 C 118 72.33333333333 106.33333333333 38.33333333333 95 3 L 91 0 C 77.66666666667 0 64 0 50 0 C 36 0 24.33333333333 -0.66666666667 15 -2 L 12 15 Z M 280 481 C 266.66666666667 454.33333333333 252.66666666667 424 238 390 C 223.33333333333 355.33333333333 206.33333333333 313 187 263 C 200.33333333333 262.33333333333 214 262 228 262 C 241.33333333333 261.33333333333 256.66666666667 261 274 261 C 292 261 308.66666666667 261 324 261 C 339.33333333333 261 355.33333333333 261.66666666667 372 263 L 286 481 L 280 481 Z"/>
    <path fill="#000000" stroke="none" transform="matrix(1 0 0 -1 1250 1227)" d="M 78 5 C 80.66666666667 13 82.33333333333 23 83 35 C 83.66666666667 48.33333333333 84.33333333333 61.66666666667 85 75 C 85 87.66666666667 85.33333333333 103.66666666667 86 123 C 86 142.33333333333 86 167 86 197 C 86 226.33333333333 86 264 86 310 C 86 356 86 394 86 424 C 86 453.33333333333 86 477.66666666667 86 497 C 85.33333333333 516.33333333333 85 532.66666666667 85 546 C 84.33333333333 558.66666666667 83.66666666667 571.66666666667 83 585 C 82.33333333333 597 80.66666666667 607 78 615 L 82 621 C 87.33333333333 620.33333333333 94 620 102 620 C 109.33333333333 620 117.33333333333 620 126 620 C 150 620 171.66666666667 620.66666666667 191 622 C 209.66666666667 622.66666666667 228.66666666667 623.66666666667 248 625 C 315.33333333333 629.66666666667 369 618.66666666667 409 592 C 449 565.33333333333 469 524.33333333333 469 469 C 469 438.33333333333 463 411 451 387 C 438.33333333333 363 421.66666666667 342.66666666667 401 326 C 379.66666666667 308.66666666667 355.33333333333 295.66666666667 328 287 C 300 277.66666666667 270.33333333333 273 239 273 C 229 273 219 275 209 279 L 196 314 L 201 319 C 207.66666666667 317 214 315.66666666667 220 315 C 225.33333333333 314.33333333333 231 314 237 314 C 256.33333333333 314 274.66666666667 316.66666666667 292 322 C 308.66666666667 327.33333333333 323.66666666667 335.33333333333 337 346 C 349.66666666667 356.66666666667 360 370.33333333333 368 387 C 375.33333333333 403 379 422 379 444 C 379 492 367.33333333333 527 344 549 C 320 571 286 582 242 582 C 230.66666666667 582 218.66666666667 581.66666666667 206 581 C 192.66666666667 579.66666666667 180 578.33333333333 168 577 C 167.33333333333 561 167 545.33333333333 167 530 C 166.33333333333 514 166 496.33333333333 166 477 C 166 457 166 434 166 408 C 166 381.33333333333 166 348.66666666667 166 310 C 166 260 166 220 166 190 C 166 160 166.33333333333 136 167 118 C 167 99.33333333333 167.33333333333 84.33333333333 168 73 C 168 61 168.33333333333 48.33333333333 169 35 C 169.66666666667 23 171.33333333333 13 174 5 L 170 -1 C 164.66666666667 -0.33333333333 158 0 150 0 C 142 0 134 0 126 0 C 118 0 110 0 102 0 C 94 0 87.33333333333 -0.33333333333 82 -1 L 78 5 Z"/>
    <path fill="#000000" stroke="none" transform="matrix(1 0 0 -1 1722 1227)" d="M 78 5 C 80.66666666667 13 82.33333333333 23 83 35 C 83.66666666667 48.33333333333 84.33333333333 61.66666666667 85 75 C 85 87.66666666667 85.33333333333 103.66666666667 86 123 C 86 142.33333333333 86 167 86 197 C 86 226.33333333333 86 264 86 310 C 86 356 86 394 86 424 C 86 453.33333333333 86 477.66666666667 86 497 C 85.33333333333 516.33333333333 85 532.66666666667 85 546 C 84.33333333333 558.66666666667 83.66666666667 571.66666666667 83 585 C 82.33333333333 597 80.66666666667 607 78 615 L 82 621 C 87.33333333333 620.33333333333 94 620 102 620 C 110 620 118 620 126 620 C 134 620 142 620 150 620 C 158 620 164.66666666667 620.33333333333 170 621 L 174 615 C 171.33333333333 607 169.66666666667 597 169 585 C 168.33333333333 571.66666666667 168 558.66666666667 168 546 C 167.33333333333 532.66666666667 167 516.33333333333 167 497 C 166.33333333333 477.66666666667 166 453.33333333333 166 424 C 166 394 166 356 166 310 C 166 264 166 226.33333333333 166 197 C 166 167 166.33333333333 142.33333333333 167 123 C 167 103.66666666667 167.33333333333 87.66666666667 168 75 C 168 61.66666666667 168.33333333333 48.33333333333 169 35 C 169.66666666667 23 171.33333333333 13 174 5 L 170 -1 C 164.66666666667 -0.33333333333 158 0 150 0 C 142 0 134 0 126 0 C 118 0 110 0 102 0 C 94 0 87.33333333333 -0.33333333333 82 -1 L 78 5 Z"/>
    <path fill="#000000" stroke="none" transform="matrix(1 0 0 -1 1974 1227)" d="M 225 5 C 227.66666666667 13 229.33333333333 23 230 35 C 230.66666666667 48.33333333333 231.33333333333 62.33333333333 232 77 C 232 91 232.33333333333 108.66666666667 233 130 C 233 151.33333333333 233 177.66666666667 233 209 C 233 239.66666666667 233 278 233 324 C 233 387.33333333333 233 442 233 488 C 232.33333333333 533.33333333333 231.33333333333 562.66666666667 230 576 L 184 576 C 147.33333333333 576 116 575 90 573 C 78.66666666667 571.66666666667 69.33333333333 570 62 568 C 54.66666666667 565.33333333333 48 561 42 555 L 36 551 L 6 556 L 12 619 L 16 621 C 40.66666666667 619.66666666667 67 619 95 619 C 123 619 148.33333333333 619 171 619 L 375 619 C 397.66666666667 619 423 619 451 619 C 479 619 505.33333333333 619.66666666667 530 621 L 534 619 L 530 554 L 500 549 L 494 553 C 482.66666666667 564.33333333333 466 571 444 573 C 430.66666666667 574.33333333333 418 575.33333333333 406 576 C 394 576 379.33333333333 576 362 576 L 316 576 C 314.66666666667 551.33333333333 314 518.66666666667 314 478 C 313.33333333333 436.66666666667 313 385.33333333333 313 324 C 313 278 313 239.66666666667 313 209 C 313 177.66666666667 313.33333333333 151.33333333333 314 130 C 314 108.66666666667 314.33333333333 91 315 77 C 315 62.33333333333 315.33333333333 48.33333333333 316 35 C 316.66666666667 23 318.33333333333 13 321 5 L 317 -1 C 311.66666666667 -0.33333333333 305 0 297 0 C 289 0 281 0 273 0 C 265 0 257 0 249 0 C 241 0 234.33333333333 -0.33333333333 229 -1 L 225 5 Z"/>
    <path fill="#000000" stroke="none" transform="matrix(1 0 0 -1 2418 1227)" d="M 12 15 C 20.66666666667 21.66666666667 28.33333333333 29 35 37 C 41.66666666667 45 48 56 54 70 C 69.33333333333 105.33333333333 86 144.33333333333 104 187 C 121.33333333333 229 140 274 160 322 C 179.33333333333 369.33333333333 199.66666666667 419 221 471 C 241.66666666667 523 262.66666666667 576 284 630 L 289 635 L 310 635 L 315 630 C 349 540.66666666667 384.66666666667 451 422 361 C 459.33333333333 271 497.33333333333 182.33333333333 536 95 C 545.33333333333 74.33333333333 553.66666666667 58.33333333333 561 47 C 568.33333333333 35 577.33333333333 24.33333333333 588 15 L 585 -2 C 573.66666666667 -1.33333333333 558.33333333333 -0.66666666667 539 0 C 519.66666666667 0 497.33333333333 0 472 0 L 466 3 C 459.33333333333 26.33333333333 449.33333333333 55.66666666667 436 91 C 422 125.66666666667 405.33333333333 167.66666666667 386 217 C 370.66666666667 217.66666666667 352.66666666667 218.33333333333 332 219 C 310.66666666667 219.66666666667 292.33333333333 220 277 220 C 256.33333333333 220 237.33333333333 220 220 220 C 202.66666666667 219.33333333333 187 218.66666666667 173 218 C 156.33333333333 175.33333333333 142 137.66666666667 130 105 C 118 72.33333333333 106.33333333333 38.33333333333 95 3 L 91 0 C 77.66666666667 0 64 0 50 0 C 36 0 24.33333333333 -0.66666666667 15 -2 L 12 15 Z M 280 481 C 266.66666666667 454.33333333333 252.66666666667 424 238 390 C 223.33333333333 355.33333333333 206.33333333333 313 187 263 C 200.33333333333 262.33333333333 214 262 228 262 C 241.33333333333 261.33333333333 256.66666666667 261 274 261 C 292 261 308.66666666667 261 324 261 C 339.33333333333 261 355.33333333333 261.66666666667 372 263 L 286 481 L 280 481 Z"/>
    <path fill="#000000" stroke="none" transform="matrix(1 0 0 -1 3024 1227)" d="M 78 5 C 80.66666666667 13 82.33333333333 23 83 35 C 83.66666666667 47.66666666667 84.33333333333 60.33333333333 85 73 C 85 85.66666666667 85.33333333333 102 86 122 C 86 141.33333333333 86 166 86 196 C 86 226 86 264 86 310 C 86 356 86 394 86 424 C 86 453.33333333333 86 477.66666666667 86 497 C 85.33333333333 516.33333333333 85 532.66666666667 85 546 C 84.33333333333 558.66666666667 83.66666666667 571.66666666667 83 585 C 82.33333333333 597 80.66666666667 607 78 615 L 82 621 C 87.33333333333 620.33333333333 94 620 102 620 C 110 620 118 620 126 620 C 134 620 142 620 150 620 C 158 620 164.66666666667 620.33333333333 170 621 L 174 615 C 171.33333333333 607 169.66666666667 597 169 585 C 168.33333333333 571.66666666667 168 558.66666666667 168 546 C 167.33333333333 532.66666666667 167 516.33333333333 167 497 C 166.33333333333 477.66666666667 166 453.33333333333 166 424 C 166 394 166 356 166 310 C 166 277.33333333333 166 250.66666666667 166 230 C 166 209.33333333333 166.33333333333 191.66666666667 167 177 C 167 161.66666666667 167.33333333333 148 168 136 C 168 124 168.33333333333 110 169 94 C 169.66666666667 80.66666666667 174.33333333333 69 183 59 C 191.66666666667 49 208 44 232 44 C 266 44 291.66666666667 44.66666666667 309 46 C 325.66666666667 46.66666666667 340.33333333333 47.66666666667 353 49 C 364.33333333333 50.33333333333 373.66666666667 52.66666666667 381 56 C 387.66666666667 59.33333333333 394.33333333333 65.33333333333 401 74 L 408 77 L 438 72 L 431 0 L 420 -2 C 398.66666666667 -0.66666666667 374.66666666667 0 348 0 C 320.66666666667 0 294 0 268 0 L 126 0 C 118 0 110 0 102 0 C 94 0 87.33333333333 -0.33333333333 82 -1 L 78 5 Z"/>
    <path fill="#000000" stroke="none" transform="matrix(1 0 0 -1 3668 1227)" d="M 302 -61 C 310.66666666667 -54.33333333333 320 -46.33333333333 330 -37 C 340 -27.66666666667 347.66666666667 -19.33333333333 353 -12 C 310.33333333333 -12 270.33333333333 -4.33333333333 233 11 C 195 25.66666666667 162 47 134 75 C 105.33333333333 102.33333333333 83 135.66666666667 67 175 C 50.33333333333 214.33333333333 42 258.66666666667 42 308 C 42 357.33333333333 50.33333333333 402.66666666667 67 444 C 83.66666666667 485.33333333333 107 521 137 551 C 166.33333333333 581 201.66666666667 604.33333333333 243 621 C 284.33333333333 637.66666666667 329.66666666667 646 379 646 C 430.33333333333 646 476.66666666667 638 518 622 C 558.66666666667 605.33333333333 593.66666666667 582.66666666667 623 554 C 651.66666666667 524.66666666667 673.66666666667 490.66666666667 689 452 C 704.33333333333 413.33333333333 712 371.33333333333 712 326 C 712 271.33333333333 703.33333333333 223.66666666667 686 183 C 668.66666666667 141.66666666667 645.33333333333 107.33333333333 616 80 C 586.66666666667 52 553 30.66666666667 515 16 C 476.33333333333 0.66666666667 436 -8.33333333333 394 -11 L 388 -19 C 388 -24.33333333333 394.33333333333 -30 407 -36 C 430.33333333333 -47.33333333333 455 -58.33333333333 481 -69 C 507 -79.66666666667 532.66666666667 -89.33333333333 558 -98 C 583.33333333333 -107.33333333333 607.66666666667 -115.66666666667 631 -123 C 654.33333333333 -131 675.33333333333 -137.66666666667 694 -143 C 706.66666666667 -146.33333333333 717.66666666667 -149 727 -151 C 735.66666666667 -153 743.33333333333 -154.33333333333 750 -155 C 756 -155.66666666667 761.66666666667 -156 767 -156 C 771.66666666667 -156 776.66666666667 -155.33333333333 782 -154 L 792 -164 C 777.33333333333 -181.33333333333 765.33333333333 -196.66666666667 756 -210 C 746.66666666667 -224 736.66666666667 -240 726 -258 L 718 -260 C 682.66666666667 -241.33333333333 646.33333333333 -222.66666666667 609 -204 C 571.66666666667 -186 535 -168.66666666667 499 -152 C 462.33333333333 -135.33333333333 427.33333333333 -119.66666666667 394 -105 C 360.66666666667 -91 330 -78.66666666667 302 -68 L 302 -61 Z M 384 32 C 416 32 446 37.33333333333 474 48 C 502 58 526.33333333333 74 547 96 C 567.66666666667 117.33333333333 584 144.66666666667 596 178 C 608 210.66666666667 614 249.66666666667 614 295 C 614 344.33333333333 608 388.33333333333 596 427 C 583.33333333333 465 566 497 544 523 C 521.33333333333 549 494.33333333333 568.66666666667 463 582 C 431 595.33333333333 395.66666666667 602 357 602 C 326.33333333333 602 297.66666666667 596.66666666667 271 586 C 244.33333333333 575.33333333333 221.33333333333 559.33333333333 202 538 C 182.66666666667 516 167.66666666667 488.66666666667 157 456 C 145.66666666667 422.66666666667 140 383.66666666667 140 339 C 140 240.33333333333 161 164.66666666667 203 112 C 244.33333333333 58.66666666667 304.66666666667 32 384 32 Z"/>
    <path fill="#000000" stroke="none" transform="matrix(1 0 0 -1 4433 1227)" d="M 81 310 C 81 362 81 411 81 457 C 80.33333333333 503 79.33333333333 541 78 571 C 77.33333333333 577 76 583 74 589 C 72 595 69.33333333333 600.33333333333 66 605 L 70 621 C 73.33333333333 620.33333333333 80 620 90 620 C 99.33333333333 620 109.66666666667 620 121 620 C 132.33333333333 620 141.33333333333 620 148 620 C 154 620 159.66666666667 620.33333333333 165 621 L 169 615 C 166.33333333333 607 164.66666666667 597 164 585 C 163.33333333333 572.33333333333 163 559 163 545 C 162.33333333333 530.33333333333 162 513 162 493 C 161.33333333333 472.33333333333 161 447.66666666667 161 419 C 161 389.66666666667 161 353.33333333333 161 310 L 161 234 C 161 199.33333333333 165.33333333333 170.33333333333 174 147 C 182.66666666667 123 195.33333333333 103.66666666667 212 89 C 228 73.66666666667 247.66666666667 62.66666666667 271 56 C 293.66666666667 49.33333333333 319.33333333333 46 348 46 C 402.66666666667 46 444.66666666667 61 474 91 C 503.33333333333 120.33333333333 518 163 518 219 L 518 310 C 518 353.33333333333 518 389.66666666667 518 419 C 518 447.66666666667 518 472.33333333333 518 493 C 517.33333333333 513 517 530.33333333333 517 545 C 516.33333333333 559 515.66666666667 572.33333333333 515 585 C 514.33333333333 597 512.66666666667 607 510 615 L 514 621 C 519.33333333333 620.33333333333 524.66666666667 620 530 620 C 534.66666666667 620 540.66666666667 620 548 620 C 554.66666666667 620 561.33333333333 620 568 620 C 574 620 578.66666666667 620.33333333333 582 621 L 586 605 C 582 600.33333333333 579 595 577 589 C 575 583 574 577 574 571 C 572.66666666667 541 572 503 572 457 C 571.33333333333 411 571 362 571 310 L 571 216 C 571 177.33333333333 564.33333333333 143.66666666667 551 115 C 537.66666666667 85.66666666667 519.66666666667 61.66666666667 497 43 C 473.66666666667 24.33333333333 446.33333333333 10.33333333333 415 1 C 383.66666666667 -8.33333333333 349.66666666667 -13 313 -13 C 280.33333333333 -13 250 -8.66666666667 222 0 C 193.33333333333 8 168.66666666667 20.66666666667 148 38 C 126.66666666667 54.66666666667 110.33333333333 75.66666666667 99 101 C 87 126.33333333333 81 156.33333333333 81 191 L 81 310 Z"/>
    <path fill="#000000" stroke="none" transform="matrix(1 0 0 -1 5070 1227)" d="M 78 5 C 80.66666666667 13 82.33333333333 23 83 35 C 83.66666666667 47.66666666667 84.33333333333 60.33333333333 85 73 C 85 85.66666666667 85.33333333333 102 86 122 C 86 141.33333333333 86 166 86 196 C 86 226 86 264 86 310 C 86 376 86 431.66666666667 86 477 C 85.33333333333 522.33333333333 84.33333333333 558.33333333333 83 585 C 82.33333333333 597 80.66666666667 607 78 615 L 82 621 C 87.33333333333 620.33333333333 94 620 102 620 C 110 620 118 620 126 620 L 268 620 C 290.66666666667 620 316 620 344 620 C 372 620 398.33333333333 620.66666666667 423 622 L 427 620 L 423 555 L 393 550 L 387 554 C 383.66666666667 560 379.33333333333 564.33333333333 374 567 C 368.66666666667 569.66666666667 360.33333333333 571.66666666667 349 573 C 323 575 291.66666666667 576 255 576 L 168 576 C 167.33333333333 559.33333333333 167 542.66666666667 167 526 C 166.33333333333 509.33333333333 166 491.66666666667 166 473 C 166 454.33333333333 166 434.66666666667 166 414 C 166 392.66666666667 166 369 166 343 C 184 341.66666666667 200.33333333333 341 215 341 C 229.66666666667 341 247 341 267 341 C 281.66666666667 341 298.33333333333 341.33333333333 317 342 C 335 342 356.33333333333 343 381 345 L 385 343 L 378 293 C 364 294.33333333333 346.33333333333 295.33333333333 325 296 C 303 296.66666666667 282.66666666667 297 264 297 C 245.33333333333 297 228.33333333333 297 213 297 C 197.66666666667 296.33333333333 182 295.33333333333 166 294 C 166 272 166 252.33333333333 166 235 C 166 217 166.33333333333 200.33333333333 167 185 C 167 169.66666666667 167.33333333333 154.66666666667 168 140 C 168 125.33333333333 168.33333333333 110 169 94 C 169.66666666667 80.66666666667 174.33333333333 69 183 59 C 191.66666666667 49 208 44 232 44 C 266 44 291.66666666667 44.66666666667 309 46 C 325.66666666667 46.66666666667 340.33333333333 47.66666666667 353 49 C 364.33333333333 50.33333333333 373.66666666667 52.66666666667 381 56 C 387.66666666667 59.33333333333 394.33333333333 65.33333333333 401 74 L 408 77 L 438 72 L 431 0 L 420 -2 C 398.66666666667 -0.66666666667 374.66666666667 0 348 0 C 320.66666666667 0 294 0 268 0 L 126 0 C 118 0 110 0 102 0 C 94 0 87.33333333333 -0.33333333333 82 -1 L 78 5 Z"/>
    <path fill="#000000" stroke="none" transform="matrix(1 0 0 -1 5544 1227)" d="M 44 25 L 54 94 L 85 97 L 91 93 C 99 69 111.66666666667 53 129 45 C 146.33333333333 36.33333333333 170 32 200 32 C 223.33333333333 32 245 35 265 41 C 285 47 302.33333333333 55.66666666667 317 67 C 331 78.33333333333 342 92 350 108 C 358 123.33333333333 362 140.66666666667 362 160 C 362 178 359.33333333333 193.33333333333 354 206 C 348 218.66666666667 339.33333333333 230 328 240 C 316.66666666667 250 302.66666666667 259.33333333333 286 268 C 268.66666666667 276 248.66666666667 284.66666666667 226 294 C 204.66666666667 303.33333333333 185.33333333333 312.66666666667 168 322 C 150.66666666667 331.33333333333 136 342.33333333333 124 355 C 111.33333333333 367 101.66666666667 381.33333333333 95 398 C 88.33333333333 414 85 433 85 455 C 85 483 90.33333333333 508.33333333333 101 531 C 111.66666666667 553.66666666667 126.33333333333 573 145 589 C 163.66666666667 605 185.66666666667 617.66666666667 211 627 C 235.66666666667 635.66666666667 262 640 290 640 C 300 640 311.33333333333 639 324 637 C 336.66666666667 635 349 632.66666666667 361 630 C 373 626.66666666667 384 623 394 619 C 404 615 411.66666666667 610.66666666667 417 606 L 420 599 L 410 534 L 379 531 L 373 535 C 363 575.66666666667 330.66666666667 596 276 596 C 243.33333333333 596 216.66666666667 587 196 569 C 174.66666666667 551 164 526.33333333333 164 495 C 164 477.66666666667 166.66666666667 463 172 451 C 177.33333333333 438.33333333333 185 427.33333333333 195 418 C 205 408.66666666667 217.66666666667 400.33333333333 233 393 C 247.66666666667 385.66666666667 264.33333333333 378.33333333333 283 371 C 311.66666666667 360.33333333333 336.33333333333 349.66666666667 357 339 C 377.66666666667 327.66666666667 394.66666666667 315.33333333333 408 302 C 420.66666666667 288.66666666667 430 273.66666666667 436 257 C 442 240.33333333333 445 220.66666666667 445 198 C 445 167.33333333333 438.66666666667 139.33333333333 426 114 C 413.33333333333 88 395.66666666667 65.66666666667 373 47 C 349.66666666667 28.33333333333 322 14 290 4 C 258 -6.66666666667 222.66666666667 -12 184 -12 C 156.66666666667 -12 132 -9.66666666667 110 -5 C 88 -1 67 6.66666666667 47 18 L 44 25 Z"/>
    <path fill="#000000" stroke="none" transform="matrix(1 0 0 -1 6045 1227)" d="M 225 5 C 227.66666666667 13 229.33333333333 23 230 35 C 230.66666666667 48.33333333333 231.33333333333 62.33333333333 232 77 C 232 91 232.33333333333 108.66666666667 233 130 C 233 151.33333333333 233 177.66666666667 233 209 C 233 239.66666666667 233 278 233 324 C 233 387.33333333333 233 442 233 488 C 232.33333333333 533.33333333333 231.33333333333 562.66666666667 230 576 L 184 576 C 147.33333333333 576 116 575 90 573 C 78.66666666667 571.66666666667 69.33333333333 570 62 568 C 54.66666666667 565.33333333333 48 561 42 555 L 36 551 L 6 556 L 12 619 L 16 621 C 40.66666666667 619.66666666667 67 619 95 619 C 123 619 148.33333333333 619 171 619 L 375 619 C 397.66666666667 619 423 619 451 619 C 479 619 505.33333333333 619.66666666667 530 621 L 534 619 L 530 554 L 500 549 L 494 553 C 482.66666666667 564.33333333333 466 571 444 573 C 430.66666666667 574.33333333333 418 575.33333333333 406 576 C 394 576 379.33333333333 576 362 576 L 316 576 C 314.66666666667 551.33333333333 314 518.66666666667 314 478 C 313.33333333333 436.66666666667 313 385.33333333333 313 324 C 313 278 313 239.66666666667 313 209 C 313 177.66666666667 313.33333333333 151.33333333333 314 130 C 314 108.66666666667 314.33333333333 91 315 77 C 315 62.33333333333 315.33333333333 48.33333333333 316 35 C 316.66666666667 23 318.33333333333 13 321 5 L 317 -1 C 311.66666666667 -0.33333333333 305 0 297 0 C 289 0 281 0 273 0 C 265 0 257 0 249 0 C 241 0 234.33333333333 -0.33333333333 229 -1 L 225 5 Z"/>
    <path fill="#000000" stroke="none" transform="matrix(1 0 0 -1 6772 1227)" d="M 87 5 C 88.33333333333 8.33333333333 89.33333333333 12.66666666667 90 18 C 90 23.33333333333 90.33333333333 29 91 35 C 91.66666666667 49.66666666667 92.33333333333 65.33333333333 93 82 C 93 98 93 118 93 142 C 93 165.33333333333 93 194.33333333333 93 229 C 93 263 93 305.66666666667 93 357 C 86.33333333333 357 77.33333333333 356.66666666667 66 356 C 54.66666666667 355.33333333333 46.33333333333 354.66666666667 41 354 L 40 378 L 45 383 C 53 384.33333333333 61.33333333333 386.66666666667 70 390 C 78.66666666667 392.66666666667 85.33333333333 395.66666666667 90 399 L 92 406 L 92 458 C 92 503.33333333333 97 542.33333333333 107 575 C 117 607 131 633.66666666667 149 655 C 166.33333333333 675.66666666667 186.66666666667 691 210 701 C 232.66666666667 711 257 716 283 716 C 303.66666666667 716 323 713.33333333333 341 708 C 359 702 371.66666666667 695 379 687 L 381 680 L 375 619 L 348 616 L 342 620 C 338 633.33333333333 329.66666666667 646 317 658 C 303.66666666667 670 284.33333333333 676 259 676 C 229.66666666667 676 206.66666666667 663.66666666667 190 639 C 172.66666666667 613.66666666667 164 573.33333333333 164 518 L 164 400 C 170 400 177.66666666667 400.33333333333 187 401 C 195.66666666667 401 205 401.33333333333 215 402 C 224.33333333333 402 233.66666666667 402.33333333333 243 403 C 252.33333333333 403.66666666667 260.33333333333 404.33333333333 267 405 L 282 400 L 277 363 C 228.33333333333 363 191.33333333333 362 166 360 C 166 313.33333333333 166 273 166 239 C 166 204.33333333333 166.33333333333 174.33333333333 167 149 C 167 123.66666666667 167.33333333333 102 168 84 C 168 66 168.33333333333 49.66666666667 169 35 C 169 29 169.33333333333 23.33333333333 170 18 C 170.66666666667 12.66666666667 171.66666666667 8.33333333333 173 5 L 169 -1 C 163.66666666667 -0.33333333333 157.66666666667 0 151 0 C 144.33333333333 0 137.33333333333 0 130 0 C 122.66666666667 0 115.66666666667 0 109 0 C 102.33333333333 0 96.33333333333 -0.33333333333 91 -1 L 87 5 Z"/>
    <path fill="#000000" stroke="none" transform="matrix(1 0 0 -1 7062 1227)" d="M 75 303 L 70 354 L 73 361 C 89.66666666667 376.33333333333 108.66666666667 388 130 396 C 151.33333333333 404 177.33333333333 408 208 408 C 256 408 288.66666666667 397.33333333333 306 376 C 322.66666666667 354.66666666667 330.33333333333 324.66666666667 329 286 C 328.33333333333 272 328 259.33333333333 328 248 C 327.33333333333 236 327 224 327 212 C 326.33333333333 200 326 187.66666666667 326 175 C 326 161.66666666667 326 146.66666666667 326 130 C 326 111.33333333333 326.66666666667 96.33333333333 328 85 C 329.33333333333 73 331.33333333333 63.66666666667 334 57 C 336.66666666667 50.33333333333 340 46 344 44 C 348 41.33333333333 352.33333333333 40 357 40 C 361.66666666667 40 366.33333333333 40.66666666667 371 42 C 375 42.66666666667 381.33333333333 44.66666666667 390 48 L 399 24 C 384.33333333333 13.33333333333 369.66666666667 5.33333333333 355 0 C 339.66666666667 -5.33333333333 325.66666666667 -8 313 -8 C 298.33333333333 -8 286.66666666667 -4.33333333333 278 3 C 268.66666666667 10.33333333333 262.33333333333 22.66666666667 259 40 C 246.33333333333 26.66666666667 231.33333333333 15.33333333333 214 6 C 196 -3.33333333333 174.33333333333 -8 149 -8 C 135.66666666667 -8 123 -5.33333333333 111 0 C 98.33333333333 5.33333333333 87.33333333333 13 78 23 C 68 33 60.33333333333 45.33333333333 55 60 C 49 74 46 90.33333333333 46 109 C 46 127 51.66666666667 143.33333333333 63 158 C 73.66666666667 172 91 181.66666666667 115 187 C 141 193 166 199.66666666667 190 207 C 213.33333333333 214.33333333333 234.66666666667 221.66666666667 254 229 C 255.33333333333 236.33333333333 256.33333333333 245 257 255 C 257 265 257 274 257 282 C 257 294.66666666667 256.33333333333 306.33333333333 255 317 C 253.66666666667 327 250.66666666667 336 246 344 C 241.33333333333 351.33333333333 235 357.33333333333 227 362 C 219 366 208.33333333333 368 195 368 C 171.66666666667 368 153 362.66666666667 139 352 C 124.33333333333 340.66666666667 114.33333333333 325 109 305 L 103 301 L 75 303 Z M 189 42 C 200.33333333333 42 210.33333333333 45 219 51 C 227 56.33333333333 234 63.66666666667 240 73 C 245.33333333333 80.33333333333 249.66666666667 89 253 99 C 255.66666666667 108.33333333333 256.66666666667 119.66666666667 256 133 C 256 139.66666666667 256 144.66666666667 256 148 C 255.33333333333 151.33333333333 255 154.33333333333 255 157 C 255 159.66666666667 255 163 255 167 C 255 170.33333333333 255 175.33333333333 255 182 C 237.66666666667 179.33333333333 220.66666666667 176 204 172 C 187.33333333333 168 172 163.33333333333 158 158 C 147.33333333333 153.33333333333 140 147.33333333333 136 140 C 131.33333333333 132 129 124 129 116 C 129 92 134.66666666667 73.66666666667 146 61 C 156.66666666667 48.33333333333 171 42 189 42 Z"/>
    <path fill="#000000" stroke="none" transform="matrix(1 0 0 -1 7477 1227)" d="M 42 27 L 48 82 L 75 85 L 81 81 C 90.33333333333 47 115.66666666667 30 157 30 C 181 30 200.33333333333 35.66666666667 215 47 C 229.66666666667 57.66666666667 237 72.66666666667 237 92 C 237 108 232.33333333333 122 223 134 C 213 145.33333333333 192.33333333333 156.66666666667 161 168 C 127 180.66666666667 102 195.66666666667 86 213 C 70 230.33333333333 62 254 62 284 C 62 300 65.66666666667 315.66666666667 73 331 C 79.66666666667 345.66666666667 89.33333333333 358.66666666667 102 370 C 114 381.33333333333 128.33333333333 390.66666666667 145 398 C 161.66666666667 404.66666666667 179.66666666667 408 199 408 C 222.33333333333 408 242 406 258 402 C 274 397.33333333333 288.33333333333 390.33333333333 301 381 L 304 374 L 298 318 L 271 315 L 265 319 C 259.66666666667 335.66666666667 251.66666666667 348.33333333333 241 357 C 230.33333333333 365.66666666667 215 370 195 370 C 177.66666666667 370 162.66666666667 364.66666666667 150 354 C 136.66666666667 343.33333333333 130 329.66666666667 130 313 C 130 293.66666666667 135 279 145 269 C 154.33333333333 259 169.66666666667 250 191 242 C 214.33333333333 233.33333333333 233.66666666667 224.66666666667 249 216 C 263.66666666667 207.33333333333 275.33333333333 198.33333333333 284 189 C 292.66666666667 179.66666666667 298.66666666667 169.66666666667 302 159 C 305.33333333333 148.33333333333 307 137 307 125 C 307 102.33333333333 302.66666666667 82.66666666667 294 66 C 284.66666666667 48.66666666667 272.66666666667 34.66666666667 258 24 C 242.66666666667 13.33333333333 225.33333333333 5.33333333333 206 0 C 186 -5.33333333333 165.66666666667 -8 145 -8 C 126.33333333333 -8 108.66666666667 -5.66666666667 92 -1 C 75.33333333333 3 59.66666666667 10 45 20 L 42 27 Z"/>
    <path fill="#000000" stroke="none" transform="matrix(1 0 0 -1 7827 1227)" d="M 70 5 C 71.33333333333 8.33333333333 72.33333333333 12.66666666667 73 18 C 73 23.33333333333 73.33333333333 29 74 35 C 74.66666666667 49.66666666667 75.33333333333 64.66666666667 76 80 C 76 95.33333333333 76.33333333333 115.66666666667 77 141 C 77 165.66666666667 77 197.66666666667 77 237 C 77 276.33333333333 77 327.33333333333 77 390 C 77 426.66666666667 77 457.66666666667 77 483 C 77 508.33333333333 77 529.33333333333 77 546 C 77 562 77 574.33333333333 77 583 C 76.33333333333 591.66666666667 76 598 76 602 C 74 639.33333333333 68.66666666667 662.33333333333 60 671 L 64 687 L 140 707 L 153 701 C 152.33333333333 690.33333333333 151.66666666667 678 151 664 C 150.33333333333 649.33333333333 150 629 150 603 C 149.33333333333 577 149 543 149 501 C 149 459 149 405 149 339 C 164.33333333333 359 181.33333333333 375.66666666667 200 389 C 218.66666666667 401.66666666667 241.66666666667 408 269 408 C 312.33333333333 408 346.66666666667 395 372 369 C 396.66666666667 342.33333333333 409 307 409 263 C 409 225 409 194.33333333333 409 171 C 409 147 409 127.66666666667 409 113 C 409 97.66666666667 409.33333333333 85.33333333333 410 76 C 410 66.66666666667 410 58 410 50 C 410 34 414.33333333333 22.66666666667 423 16 L 420 -2 C 414.66666666667 -1.33333333333 407.66666666667 -0.66666666667 399 0 C 389.66666666667 0 382 0 376 0 L 339 0 C 338.33333333333 6 338 11.66666666667 338 17 C 337.33333333333 22.33333333333 337 29 337 37 C 337 45 337 55 337 67 C 337 78.33333333333 337 93.33333333333 337 112 L 337 237 C 337 277 328.66666666667 305.66666666667 312 323 C 294.66666666667 340.33333333333 273.33333333333 349 248 349 C 216.66666666667 349 191.33333333333 336 172 310 C 164 299.33333333333 158.33333333333 287.33333333333 155 274 C 151 260 149 242 149 220 C 149 196 149 175.33333333333 149 158 C 149 140.66666666667 149.33333333333 125.33333333333 150 112 C 150 98 150.33333333333 85 151 73 C 151 61 151.33333333333 48.33333333333 152 35 C 152 29 152.33333333333 23.33333333333 153 18 C 153.66666666667 12.66666666667 154.66666666667 8.33333333333 156 5 L 152 -1 C 146.66666666667 -0.33333333333 140.66666666667 0 134 0 C 127.33333333333 0 120.33333333333 0 113 0 C 105.66666666667 0 98.66666666667 0 92 0 C 85.33333333333 0 79.33333333333 -0.33333333333 74 -1 L 70 5 Z"/>
    <path fill="#000000" stroke="none" transform="matrix(1 0 0 -1 8308 1227)" d="M 74 5 C 75.33333333333 8.33333333333 76.33333333333 12.66666666667 77 18 C 77 23.33333333333 77.33333333333 29 78 35 C 79.33333333333 65 80.33333333333 97.66666666667 81 133 C 81 168.33333333333 81 201.66666666667 81 233 C 81 257.66666666667 81 276.33333333333 81 289 C 81 301.66666666667 80.66666666667 311.66666666667 80 319 C 78.66666666667 335.66666666667 77.33333333333 348 76 356 C 74 364 70.33333333333 371 65 377 L 69 393 L 144 413 L 157 407 C 155.66666666667 393 154.66666666667 369 154 335 C 153.33333333333 301 153 262.66666666667 153 220 C 153 198.66666666667 153 180 153 164 C 153 147.33333333333 153.33333333333 132 154 118 C 154 104 154.33333333333 90.33333333333 155 77 C 155 63.66666666667 155.33333333333 49.66666666667 156 35 C 156 29 156.33333333333 23.33333333333 157 18 C 157.66666666667 12.66666666667 158.66666666667 8.33333333333 160 5 L 156 -1 C 150.66666666667 -0.33333333333 144.66666666667 0 138 0 C 131.33333333333 0 124.33333333333 0 117 0 C 109.66666666667 0 102.66666666667 0 96 0 C 89.33333333333 0 83.33333333333 -0.33333333333 78 -1 L 74 5 Z M 69 532 C 69 545.33333333333 73.33333333333 556.66666666667 82 566 C 90.66666666667 574.66666666667 101.66666666667 579 115 579 C 127.66666666667 579 138.33333333333 575 147 567 C 155 558.33333333333 159 548 159 536 C 159 522.66666666667 154.66666666667 511.66666666667 146 503 C 136.66666666667 493.66666666667 125.33333333333 489 112 489 C 100 489 90 493 82 501 C 73.33333333333 509 69 519.33333333333 69 532 Z"/>
    <path fill="#000000" stroke="none" transform="matrix(1 0 0 -1 8539 1227)" d="M 39 190 C 39 223.33333333333 44 253.33333333333 54 280 C 63.33333333333 306.66666666667 77 329.66666666667 95 349 C 112.33333333333 367.66666666667 133.33333333333 382.33333333333 158 393 C 182.66666666667 403 210 408 240 408 C 273.33333333333 408 303 402.66666666667 329 392 C 354.33333333333 380.66666666667 375.66666666667 365.66666666667 393 347 C 410.33333333333 328.33333333333 423.33333333333 307.33333333333 432 284 C 440.66666666667 260 445 235.33333333333 445 210 C 445 175.33333333333 439.66666666667 144.66666666667 429 118 C 418.33333333333 90.66666666667 403.66666666667 67.66666666667 385 49 C 366.33333333333 30.33333333333 344.66666666667 16.33333333333 320 7 C 294.66666666667 -3 268 -8 240 -8 C 210.66666666667 -8 183.66666666667 -3.33333333333 159 6 C 134.33333333333 15.33333333333 113.33333333333 28.66666666667 96 46 C 78 63.33333333333 64 84.33333333333 54 109 C 44 133 39 160 39 190 Z M 122 222 C 122 161.33333333333 133.66666666667 114.66666666667 157 82 C 179.66666666667 48.66666666667 209.33333333333 32 246 32 C 281.33333333333 32 309.66666666667 45.66666666667 331 73 C 351.66666666667 99.66666666667 362 136.66666666667 362 184 C 362 210.66666666667 359.33333333333 235.33333333333 354 258 C 348 280 339.66666666667 299.33333333333 329 316 C 318.33333333333 332 305 344.66666666667 289 354 C 273 363.33333333333 254.66666666667 368 234 368 C 197.33333333333 368 169.66666666667 355.66666666667 151 331 C 131.66666666667 306.33333333333 122 270 122 222 Z"/>
    <path fill="#000000" stroke="none" transform="matrix(1 0 0 -1 9023 1227)" d="M 74 5 C 75.33333333333 8.33333333333 76.33333333333 12.66666666667 77 18 C 77 23.33333333333 77.33333333333 29 78 35 C 79.33333333333 65 80.33333333333 97.66666666667 81 133 C 81 168.33333333333 81 201.66666666667 81 233 C 81 257.66666666667 81 276.33333333333 81 289 C 81 301.66666666667 80.66666666667 311.66666666667 80 319 C 78.66666666667 335.66666666667 77.33333333333 348 76 356 C 74 364 70.33333333333 371 65 377 L 69 393 L 144 413 L 157 407 C 155.66666666667 393 154.66666666667 382 154 374 C 153.33333333333 365.33333333333 153 353.66666666667 153 339 C 168.33333333333 359 185.33333333333 375.66666666667 204 389 C 222.66666666667 401.66666666667 245.66666666667 408 273 408 C 316.33333333333 408 350.66666666667 395 376 369 C 400.66666666667 342.33333333333 413 307 413 263 C 413 225 413 194.33333333333 413 171 C 413 147 413 127.66666666667 413 113 C 413 97.66666666667 413.33333333333 85.33333333333 414 76 C 414 66.66666666667 414 58 414 50 C 414 34 418.33333333333 22.66666666667 427 16 L 424 -2 C 418.66666666667 -1.33333333333 411.66666666667 -0.66666666667 403 0 C 393.66666666667 0 386 0 380 0 L 343 0 C 342.33333333333 6 342 11.66666666667 342 17 C 341.33333333333 22.33333333333 341 29 341 37 C 341 45 341 55 341 67 C 341 78.33333333333 341 93.33333333333 341 112 L 341 237 C 341 277 332.66666666667 305.66666666667 316 323 C 298.66666666667 340.33333333333 277.33333333333 349 252 349 C 220.66666666667 349 195.33333333333 336 176 310 C 160.66666666667 290 153 260 153 220 C 153 156 154 94.33333333333 156 35 C 156 29 156.33333333333 23.33333333333 157 18 C 157.66666666667 12.66666666667 158.66666666667 8.33333333333 160 5 L 156 -1 C 150.66666666667 -0.33333333333 144.66666666667 0 138 0 C 131.33333333333 0 124.33333333333 0 117 0 C 109.66666666667 0 102.66666666667 0 96 0 C 89.33333333333 0 83.33333333333 -0.33333333333 78 -1 L 74 5 Z"/>
    <path fill="#000000" stroke="none" transform="matrix(1 0 0 -1 9690 1227)" d="M 374 58 L 385 31 C 367.66666666667 19 347.66666666667 9.66666666667 325 3 C 302.33333333333 -4.33333333333 276 -8 246 -8 C 216 -8 188.33333333333 -3.33333333333 163 6 C 137.66666666667 14.66666666667 116 27.66666666667 98 45 C 79.33333333333 62.33333333333 65 84 55 110 C 44.33333333333 135.33333333333 39 164.66666666667 39 198 C 39 229.33333333333 45 258 57 284 C 69 310 85.33333333333 332.33333333333 106 351 C 126 369 149.66666666667 383 177 393 C 203.66666666667 403 232 408 262 408 C 286.66666666667 408 309 405.33333333333 329 400 C 348.33333333333 394 364.66666666667 386 378 376 L 381 369 L 375 311 L 348 308 L 342 312 C 336.66666666667 328.66666666667 327 342.33333333333 313 353 C 298.33333333333 363 276.33333333333 368 247 368 C 210.33333333333 368 180 355 156 329 C 132 303 120 265 120 215 C 120 156.33333333333 135.66666666667 112.66666666667 167 84 C 198.33333333333 55.33333333333 238 41 286 41 C 301.33333333333 41 316.33333333333 43 331 47 C 345 50.33333333333 357.66666666667 54.66666666667 369 60 L 374 58 Z"/>
    <path fill="#000000" stroke="none" transform="matrix(1 0 0 -1 10104 1227)" d="M 137 161 C 137 121 145.66666666667 92.33333333333 163 75 C 179.66666666667 57.66666666667 200.66666666667 49 226 49 C 241.33333333333 49 255.33333333333 52 268 58 C 280.66666666667 64 292 74 302 88 C 317.33333333333 110.66666666667 325 141.33333333333 325 180 L 325 233 C 325 257.66666666667 325 276.33333333333 325 289 C 325 301.66666666667 324.66666666667 311.66666666667 324 319 C 322.66666666667 335.66666666667 321.33333333333 348 320 356 C 318 364 314.33333333333 371 309 377 L 313 393 L 388 413 L 401 407 C 399.66666666667 393 398.66666666667 370 398 338 C 397.33333333333 306 397 266.66666666667 397 220 C 397 196.66666666667 397 177.33333333333 397 162 C 397 146.66666666667 397.33333333333 133.33333333333 398 122 C 398.66666666667 110 399.33333333333 99.66666666667 400 91 C 400.66666666667 81.66666666667 401.33333333333 72 402 62 C 403.33333333333 54 410.66666666667 50 424 50 L 426 18 C 411.33333333333 15.33333333333 398 12.33333333333 386 9 C 374 5.66666666667 361.66666666667 0.66666666667 349 -6 L 331 -4 C 329.66666666667 1.33333333333 328.33333333333 9.33333333333 327 20 C 325.66666666667 30 325 43.66666666667 325 61 C 309.66666666667 41 292.66666666667 24.33333333333 274 11 C 255.33333333333 -3 232.33333333333 -10 205 -10 C 161.66666666667 -10 127.66666666667 3.33333333333 103 30 C 77.66666666667 56 65 91 65 135 C 65 173 65 203.33333333333 65 226 C 65 248.66666666667 65 266.66666666667 65 280 C 65 293.33333333333 65 303.33333333333 65 310 C 64.33333333333 316 64 321 64 325 C 63.33333333333 338.33333333333 62 349 60 357 C 58 364.33333333333 54.33333333333 371 49 377 L 53 393 L 128 413 L 141 407 C 139.66666666667 393 138.66666666667 369 138 335 C 137.33333333333 301 137 262.66666666667 137 220 L 137 161 Z"/>
    <path fill="#000000" stroke="none" transform="matrix(1 0 0 -1 10581 1227)" d="M 74 5 C 75.33333333333 8.33333333333 76.33333333333 12.66666666667 77 18 C 77 23.33333333333 77.33333333333 29 78 35 C 79.33333333333 65 80.33333333333 97.66666666667 81 133 C 81 168.33333333333 81 201.66666666667 81 233 C 81 257.66666666667 81 276.33333333333 81 289 C 81 301.66666666667 80.66666666667 311.66666666667 80 319 C 78.66666666667 335.66666666667 77.33333333333 348 76 356 C 74 364 70.33333333333 371 65 377 L 69 393 L 144 413 L 157 407 C 155.66666666667 393 154.66666666667 369 154 335 C 153.33333333333 301 153 262.66666666667 153 220 C 153 198.66666666667 153 180 153 164 C 153 147.33333333333 153.33333333333 132 154 118 C 154 104 154.33333333333 90.33333333333 155 77 C 155 63.66666666667 155.33333333333 49.66666666667 156 35 C 156 29 156.33333333333 23.33333333333 157 18 C 157.66666666667 12.66666666667 158.66666666667 8.33333333333 160 5 L 156 -1 C 150.66666666667 -0.33333333333 144.66666666667 0 138 0 C 131.33333333333 0 124.33333333333 0 117 0 C 109.66666666667 0 102.66666666667 0 96 0 C 89.33333333333 0 83.33333333333 -0.33333333333 78 -1 L 74 5 Z M 69 532 C 69 545.33333333333 73.33333333333 556.66666666667 82 566 C 90.66666666667 574.66666666667 101.66666666667 579 115 579 C 127.66666666667 579 138.33333333333 575 147 567 C 155 558.33333333333 159 548 159 536 C 159 522.66666666667 154.66666666667 511.66666666667 146 503 C 136.66666666667 493.66666666667 125.33333333333 489 112 489 C 100 489 90 493 82 501 C 73.33333333333 509 69 519.33333333333 69 532 Z"/>
    <path fill="#000000" stroke="none" transform="matrix(1 0 0 -1 10812 1227)" d="M 42 27 L 48 82 L 75 85 L 81 81 C 90.33333333333 47 115.66666666667 30 157 30 C 181 30 200.33333333333 35.66666666667 215 47 C 229.66666666667 57.66666666667 237 72.66666666667 237 92 C 237 108 232.33333333333 122 223 134 C 213 145.33333333333 192.33333333333 156.66666666667 161 168 C 127 180.66666666667 102 195.66666666667 86 213 C 70 230.33333333333 62 254 62 284 C 62 300 65.66666666667 315.66666666667 73 331 C 79.66666666667 345.66666666667 89.33333333333 358.66666666667 102 370 C 114 381.33333333333 128.33333333333 390.66666666667 145 398 C 161.66666666667 404.66666666667 179.66666666667 408 199 408 C 222.33333333333 408 242 406 258 402 C 274 397.33333333333 288.33333333333 390.33333333333 301 381 L 304 374 L 298 318 L 271 315 L 265 319 C 259.66666666667 335.66666666667 251.66666666667 348.33333333333 241 357 C 230.33333333333 365.66666666667 215 370 195 370 C 177.66666666667 370 162.66666666667 364.66666666667 150 354 C 136.66666666667 343.33333333333 130 329.66666666667 130 313 C 130 293.66666666667 135 279 145 269 C 154.33333333333 259 169.66666666667 250 191 242 C 214.33333333333 233.33333333333 233.66666666667 224.66666666667 249 216 C 263.66666666667 207.33333333333 275.33333333333 198.33333333333 284 189 C 292.66666666667 179.66666666667 298.66666666667 169.66666666667 302 159 C 305.33333333333 148.33333333333 307 137 307 125 C 307 102.33333333333 302.66666666667 82.66666666667 294 66 C 284.66666666667 48.66666666667 272.66666666667 34.66666666667 258 24 C 242.66666666667 13.33333333333 225.33333333333 5.33333333333 206 0 C 186 -5.33333333333 165.66666666667 -8 145 -8 C 126.33333333333 -8 108.66666666667 -5.66666666667 92 -1 C 75.33333333333 3 59.66666666667 10 45 20 L 42 27 Z"/>
    <path fill="#000000" stroke="none" transform="matrix(1 0 0 -1 11162 1227)" d="M 74 5 C 75.33333333333 8.33333333333 76.33333333333 12.66666666667 77 18 C 77 23.33333333333 77.33333333333 29 78 35 C 79.33333333333 65 80.33333333333 97.66666666667 81 133 C 81 168.33333333333 81 201.66666666667 81 233 C 81 257.66666666667 81 276.33333333333 81 289 C 81 301.66666666667 80.66666666667 311.66666666667 80 319 C 78.66666666667 335.66666666667 77.33333333333 348 76 356 C 74 364 70.33333333333 371 65 377 L 69 393 L 144 413 L 157 407 C 155.66666666667 393 154.66666666667 369 154 335 C 153.33333333333 301 153 262.66666666667 153 220 C 153 198.66666666667 153 180 153 164 C 153 147.33333333333 153.33333333333 132 154 118 C 154 104 154.33333333333 90.33333333333 155 77 C 155 63.66666666667 155.33333333333 49.66666666667 156 35 C 156 29 156.33333333333 23.33333333333 157 18 C 157.66666666667 12.66666666667 158.66666666667 8.33333333333 160 5 L 156 -1 C 150.66666666667 -0.33333333333 144.66666666667 0 138 0 C 131.33333333333 0 124.33333333333 0 117 0 C 109.66666666667 0 102.66666666667 0 96 0 C 89.33333333333 0 83.33333333333 -0.33333333333 78 -1 L 74 5 Z M 69 532 C 69 545.33333333333 73.33333333333 556.66666666667 82 566 C 90.66666666667 574.66666666667 101.66666666667 579 115 579 C 127.66666666667 579 138.33333333333 575 147 567 C 155 558.33333333333 159 548 159 536 C 159 522.66666666667 154.66666666667 511.66666666667 146 503 C 136.66666666667 493.66666666667 125.33333333333 489 112 489 C 100 489 90 493 82 501 C 73.33333333333 509 69 519.33333333333 69 532 Z"/>
    <path fill="#000000" stroke="none" transform="matrix(1 0 0 -1 11393 1227)" d="M 74 5 C 75.33333333333 8.33333333333 76.33333333333 12.66666666667 77 18 C 77 23.33333333333 77.33333333333 29 78 35 C 79.33333333333 65 80.33333333333 97.66666666667 81 133 C 81 168.33333333333 81 201.66666666667 81 233 C 81 257.66666666667 81 276.33333333333 81 289 C 81 301.66666666667 80.66666666667 311.66666666667 80 319 C 78.66666666667 335.66666666667 77.33333333333 348 76 356 C 74 364 70.33333333333 371 65 377 L 69 393 L 144 413 L 157 407 C 155.66666666667 393 154.66666666667 382 154 374 C 153.33333333333 365.33333333333 153 353.66666666667 153 339 C 168.33333333333 359 185.33333333333 375.66666666667 204 389 C 222.66666666667 401.66666666667 245.66666666667 408 273 408 C 316.33333333333 408 350.66666666667 395 376 369 C 400.66666666667 342.33333333333 413 307 413 263 C 413 225 413 194.33333333333 413 171 C 413 147 413 127.66666666667 413 113 C 413 97.66666666667 413.33333333333 85.33333333333 414 76 C 414 66.66666666667 414 58 414 50 C 414 34 418.33333333333 22.66666666667 427 16 L 424 -2 C 418.66666666667 -1.33333333333 411.66666666667 -0.66666666667 403 0 C 393.66666666667 0 386 0 380 0 L 343 0 C 342.33333333333 6 342 11.66666666667 342 17 C 341.33333333333 22.33333333333 341 29 341 37 C 341 45 341 55 341 67 C 341 78.33333333333 341 93.33333333333 341 112 L 341 237 C 341 277 332.66666666667 305.66666666667 316 323 C 298.66666666667 340.33333333333 277.33333333333 349 252 349 C 220.66666666667 349 195.33333333333 336 176 310 C 160.66666666667 290 153 260 153 220 C 153 156 154 94.33333333333 156 35 C 156 29 156.33333333333 23.33333333333 157 18 C 157.66666666667 12.66666666667 158.66666666667 8.33333333333 160 5 L 156 -1 C 150.66666666667 -0.33333333333 144.66666666667 0 138 0 C 131.33333333333 0 124.33333333333 0 117 0 C 109.66666666667 0 102.66666666667 0 96 0 C 89.33333333333 0 83.33333333333 -0.33333333333 78 -1 L 74 5 Z"/>
    <path fill="#000000" stroke="none" transform="matrix(1 0 0 -1 11873 1227)" d="M 118 208 C 118.66666666667 180.66666666667 123.33333333333 156.66666666667 132 136 C 140.66666666667 114.66666666667 152.33333333333 97 167 83 C 181.66666666667 69 199.33333333333 58.66666666667 220 52 C 240 44.66666666667 262 41 286 41 C 301.33333333333 41 316.33333333333 43 331 47 C 345 50.33333333333 357.66666666667 54.66666666667 369 60 L 374 58 L 385 31 C 367.66666666667 19 347.66666666667 9.66666666667 325 3 C 302.33333333333 -4.33333333333 276 -8 246 -8 C 215.33333333333 -8 187.33333333333 -3.33333333333 162 6 C 136.66666666667 14.66666666667 115 28 97 46 C 78.33333333333 63.33333333333 64 85 54 111 C 44 137 39 166.66666666667 39 200 C 39 228 44 254.66666666667 54 280 C 63.33333333333 305.33333333333 76.66666666667 327.66666666667 94 347 C 111.33333333333 365.66666666667 132 380.66666666667 156 392 C 180 402.66666666667 206.33333333333 408 235 408 C 262.33333333333 408 286 403.33333333333 306 394 C 326 384.66666666667 343 372 357 356 C 370.33333333333 340 380.33333333333 321 387 299 C 393.66666666667 277 397 253.33333333333 397 228 C 397 224 395.33333333333 220.66666666667 392 218 C 388 215.33333333333 380 213.33333333333 368 212 C 356 210 338.33333333333 209 315 209 C 291.66666666667 208.33333333333 260.33333333333 208 221 208 L 118 208 Z M 221 248 C 261 248 287.33333333333 249 300 251 C 312.66666666667 252.33333333333 319 254.66666666667 319 258 C 319 290 311.66666666667 316.33333333333 297 337 C 281.66666666667 357.66666666667 258.33333333333 368 227 368 C 197 368 173 358 155 338 C 136.33333333333 318 124.33333333333 288 119 248 L 221 248 Z"/>
    <path fill="#000000" stroke="none" transform="matrix(1 0 0 -1 12494 1227)" d="M 118 208 C 118.66666666667 180.66666666667 123.33333333333 156.66666666667 132 136 C 140.66666666667 114.66666666667 152.33333333333 97 167 83 C 181.66666666667 69 199.33333333333 58.66666666667 220 52 C 240 44.66666666667 262 41 286 41 C 301.33333333333 41 316.33333333333 43 331 47 C 345 50.33333333333 357.66666666667 54.66666666667 369 60 L 374 58 L 385 31 C 367.66666666667 19 347.66666666667 9.66666666667 325 3 C 302.33333333333 -4.33333333333 276 -8 246 -8 C 215.33333333333 -8 187.33333333333 -3.33333333333 162 6 C 136.66666666667 14.66666666667 115 28 97 46 C 78.33333333333 63.33333333333 64 85 54 111 C 44 137 39 166.66666666667 39 200 C 39 228 44 254.66666666667 54 280 C 63.33333333333 305.33333333333 76.66666666667 327.66666666667 94 347 C 111.33333333333 365.66666666667 132 380.66666666667 156 392 C 180 402.66666666667 206.33333333333 408 235 408 C 262.33333333333 408 286 403.33333333333 306 394 C 326 384.66666666667 343 372 357 356 C 370.33333333333 340 380.33333333333 321 387 299 C 393.66666666667 277 397 253.33333333333 397 228 C 397 224 395.33333333333 220.66666666667 392 218 C 388 215.33333333333 380 213.33333333333 368 212 C 356 210 338.33333333333 209 315 209 C 291.66666666667 208.33333333333 260.33333333333 208 221 208 L 118 208 Z M 221 248 C 261 248 287.33333333333 249 300 251 C 312.66666666667 252.33333333333 319 254.66666666667 319 258 C 319 290 311.66666666667 316.33333333333 297 337 C 281.66666666667 357.66666666667 258.33333333333 368 227 368 C 197 368 173 358 155 338 C 136.33333333333 318 124.33333333333 288 119 248 L 221 248 Z"/>
    <path fill="#000000" stroke="none" transform="matrix(1 0 0 -1 12928 1227)" d="M 70 5 C 71.33333333333 8.33333333333 72.33333333333 12.66666666667 73 18 C 73 23.33333333333 73.33333333333 29 74 35 C 74.66666666667 49.66666666667 75.33333333333 64.66666666667 76 80 C 76 95.33333333333 76.33333333333 115.66666666667 77 141 C 77 165.66666666667 77 197.66666666667 77 237 C 77 276.33333333333 77 327.33333333333 77 390 C 77 426.66666666667 77 457.66666666667 77 483 C 77 508.33333333333 77 529.33333333333 77 546 C 77 562 77 574.33333333333 77 583 C 76.33333333333 591.66666666667 76 598 76 602 C 74 639.33333333333 68.66666666667 662.33333333333 60 671 L 64 687 L 140 707 L 153 701 C 152.33333333333 689 151.66666666667 676.33333333333 151 663 C 150.33333333333 649 150 630 150 606 C 149.33333333333 581.33333333333 149 549 149 509 C 149 469 149 416.66666666667 149 352 C 149 305.33333333333 149 265.33333333333 149 232 C 149 198 149.33333333333 169 150 145 C 150 121 150.33333333333 100.33333333333 151 83 C 151 65.66666666667 151.33333333333 49.66666666667 152 35 C 152 29 152.33333333333 23.33333333333 153 18 C 153.66666666667 12.66666666667 154.66666666667 8.33333333333 156 5 L 152 -1 C 146.66666666667 -0.33333333333 140.66666666667 0 134 0 C 127.33333333333 0 120.33333333333 0 113 0 C 105.66666666667 0 98.66666666667 0 92 0 C 85.33333333333 0 79.33333333333 -0.33333333333 74 -1 L 70 5 Z"/>
    <path fill="#000000" stroke="none" transform="matrix(1 0 0 -1 13154 1227)" d="M 118 208 C 118.66666666667 180.66666666667 123.33333333333 156.66666666667 132 136 C 140.66666666667 114.66666666667 152.33333333333 97 167 83 C 181.66666666667 69 199.33333333333 58.66666666667 220 52 C 240 44.66666666667 262 41 286 41 C 301.33333333333 41 316.33333333333 43 331 47 C 345 50.33333333333 357.66666666667 54.66666666667 369 60 L 374 58 L 385 31 C 367.66666666667 19 347.66666666667 9.66666666667 325 3 C 302.33333333333 -4.33333333333 276 -8 246 -8 C 215.33333333333 -8 187.33333333333 -3.33333333333 162 6 C 136.66666666667 14.66666666667 115 28 97 46 C 78.33333333333 63.33333333333 64 85 54 111 C 44 137 39 166.66666666667 39 200 C 39 228 44 254.66666666667 54 280 C 63.33333333333 305.33333333333 76.66666666667 327.66666666667 94 347 C 111.33333333333 365.66666666667 132 380.66666666667 156 392 C 180 402.66666666667 206.33333333333 408 235 408 C 262.33333333333 408 286 403.33333333333 306 394 C 326 384.66666666667 343 372 357 356 C 370.33333333333 340 380.33333333333 321 387 299 C 393.66666666667 277 397 253.33333333333 397 228 C 397 224 395.33333333333 220.66666666667 392 218 C 388 215.33333333333 380 213.33333333333 368 212 C 356 210 338.33333333333 209 315 209 C 291.66666666667 208.33333333333 260.33333333333 208 221 208 L 118 208 Z M 221 248 C 261 248 287.33333333333 249 300 251 C 312.66666666667 252.33333333333 319 254.66666666667 319 258 C 319 290 311.66666666667 316.33333333333 297 337 C 281.66666666667 357.66666666667 258.33333333333 368 227 368 C 197 368 173 358 155 338 C 136.33333333333 318 124.33333333333 288 119 248 L 221 248 Z"/>
    <path fill="#000000" stroke="none" transform="matrix(1 0 0 -1 13588 1227)" d="M 68 70 C 77.33333333333 78.66666666667 85.66666666667 87.66666666667 93 97 C 99.66666666667 105.66666666667 106.66666666667 116 114 128 C 96.66666666667 140 82 156.33333333333 70 177 C 58 197.66666666667 52 222.66666666667 52 252 C 52 276.66666666667 56.33333333333 298.66666666667 65 318 C 73 337.33333333333 84 353.66666666667 98 367 C 112 380.33333333333 128.66666666667 390.66666666667 148 398 C 167.33333333333 404.66666666667 188 408 210 408 C 230.66666666667 408 249 405.66666666667 265 401 C 269 399.66666666667 274.66666666667 398 282 396 C 289.33333333333 394 297 393 305 393 C 315 393 326.66666666667 393.33333333333 340 394 C 352.66666666667 394.66666666667 366 396.33333333333 380 399 L 394 392 L 389 355 L 329 355 C 342.33333333333 338.33333333333 351.66666666667 321.66666666667 357 305 C 362.33333333333 288.33333333333 365 272.33333333333 365 257 C 365 206.33333333333 350 168.33333333333 320 143 C 289.33333333333 117.66666666667 250 105 202 105 C 194 105 184.33333333333 106 173 108 C 161.66666666667 109.33333333333 152 111.66666666667 144 115 C 136.66666666667 107.66666666667 133 101 133 95 C 133 77.66666666667 141 64.33333333333 157 55 C 173 45.66666666667 200.33333333333 41 239 41 C 299 41 341.66666666667 31.33333333333 367 12 C 391.66666666667 -7.33333333333 404 -34 404 -68 C 404 -93.33333333333 397 -117.33333333333 383 -140 C 369 -163.33333333333 350.66666666667 -183.66666666667 328 -201 C 305.33333333333 -218.33333333333 279.66666666667 -232 251 -242 C 222.33333333333 -252.66666666667 193.33333333333 -258 164 -258 C 116.66666666667 -258 78.66666666667 -246.66666666667 50 -224 C 20.66666666667 -202 6 -171.66666666667 6 -133 C 6 -120.33333333333 10.33333333333 -110 19 -102 C 35 -87.33333333333 50 -73 64 -59 C 77.33333333333 -45 90.66666666667 -29.33333333333 104 -12 C 90.66666666667 -6.66666666667 80.33333333333 2 73 14 C 65 26 61 38.66666666667 61 52 L 68 70 Z M 88 -124 C 88 -138 91 -150.66666666667 97 -162 C 102.33333333333 -173.33333333333 110 -183 120 -191 C 129.33333333333 -199 140.33333333333 -205 153 -209 C 165 -213.66666666667 178 -216 192 -216 C 212 -216 230 -212.66666666667 246 -206 C 262 -199.33333333333 275.66666666667 -190.33333333333 287 -179 C 298.33333333333 -167.66666666667 307.33333333333 -154.33333333333 314 -139 C 320 -124.33333333333 323 -108.33333333333 323 -91 C 323 -70.33333333333 316.66666666667 -53.66666666667 304 -41 C 290.66666666667 -29 266.33333333333 -23 231 -23 C 219.66666666667 -23 207 -22.66666666667 193 -22 C 179 -22 165.66666666667 -21.33333333333 153 -20 L 146 -21 C 133.33333333333 -32.33333333333 123.33333333333 -42.33333333333 116 -51 C 108 -60.33333333333 102 -68.66666666667 98 -76 C 94 -84 91.33333333333 -91.66666666667 90 -99 C 88.66666666667 -107 88 -115.33333333333 88 -124 Z M 209 141 C 237 141 258 150.33333333333 272 169 C 285.33333333333 187.66666666667 292 213.33333333333 292 246 C 292 282 284.33333333333 311.66666666667 269 335 C 253 358.33333333333 231 370 203 370 C 177.66666666667 370 158.33333333333 360.66666666667 145 342 C 131.66666666667 323.33333333333 125 299 125 269 C 125 233 132 202.66666666667 146 178 C 160 153.33333333333 181 141 209 141 Z"/>
    <path fill="#000000" stroke="none" transform="matrix(1 0 0 -1 14013 1227)" d="M 75 303 L 70 354 L 73 361 C 89.66666666667 376.33333333333 108.66666666667 388 130 396 C 151.33333333333 404 177.33333333333 408 208 408 C 256 408 288.66666666667 397.33333333333 306 376 C 322.66666666667 354.66666666667 330.33333333333 324.66666666667 329 286 C 328.33333333333 272 328 259.33333333333 328 248 C 327.33333333333 236 327 224 327 212 C 326.33333333333 200 326 187.66666666667 326 175 C 326 161.66666666667 326 146.66666666667 326 130 C 326 111.33333333333 326.66666666667 96.33333333333 328 85 C 329.33333333333 73 331.33333333333 63.66666666667 334 57 C 336.66666666667 50.33333333333 340 46 344 44 C 348 41.33333333333 352.33333333333 40 357 40 C 361.66666666667 40 366.33333333333 40.66666666667 371 42 C 375 42.66666666667 381.33333333333 44.66666666667 390 48 L 399 24 C 384.33333333333 13.33333333333 369.66666666667 5.33333333333 355 0 C 339.66666666667 -5.33333333333 325.66666666667 -8 313 -8 C 298.33333333333 -8 286.66666666667 -4.33333333333 278 3 C 268.66666666667 10.33333333333 262.33333333333 22.66666666667 259 40 C 246.33333333333 26.66666666667 231.33333333333 15.33333333333 214 6 C 196 -3.33333333333 174.33333333333 -8 149 -8 C 135.66666666667 -8 123 -5.33333333333 111 0 C 98.33333333333 5.33333333333 87.33333333333 13 78 23 C 68 33 60.33333333333 45.33333333333 55 60 C 49 74 46 90.33333333333 46 109 C 46 127 51.66666666667 143.33333333333 63 158 C 73.66666666667 172 91 181.66666666667 115 187 C 141 193 166 199.66666666667 190 207 C 213.33333333333 214.33333333333 234.66666666667 221.66666666667 254 229 C 255.33333333333 236.33333333333 256.33333333333 245 257 255 C 257 265 257 274 257 282 C 257 294.66666666667 256.33333333333 306.33333333333 255 317 C 253.66666666667 327 250.66666666667 336 246 344 C 241.33333333333 351.33333333333 235 357.33333333333 227 362 C 219 366 208.33333333333 368 195 368 C 171.66666666667 368 153 362.66666666667 139 352 C 124.33333333333 340.66666666667 114.33333333333 325 109 305 L 103 301 L 75 303 Z M 189 42 C 200.33333333333 42 210.33333333333 45 219 51 C 227 56.33333333333 234 63.66666666667 240 73 C 245.33333333333 80.33333333333 249.66666666667 89 253 99 C 255.66666666667 108.33333333333 256.66666666667 119.66666666667 256 133 C 256 139.66666666667 256 144.66666666667 256 148 C 255.33333333333 151.33333333333 255 154.33333333333 255 157 C 255 159.66666666667 255 163 255 167 C 255 170.33333333333 255 175.33333333333 255 182 C 237.66666666667 179.33333333333 220.66666666667 176 204 172 C 187.33333333333 168 172 163.33333333333 158 158 C 147.33333333333 153.33333333333 140 147.33333333333 136 140 C 131.33333333333 132 129 124 129 116 C 129 92 134.66666666667 73.66666666667 146 61 C 156.66666666667 48.33333333333 171 42 189 42 Z"/>
    <path fill="#000000" stroke="none" transform="matrix(1 0 0 -1 14428 1227)" d="M 74 5 C 75.33333333333 8.33333333333 76.33333333333 12.66666666667 77 18 C 77 23.33333333333 77.33333333333 29 78 35 C 79.33333333333 65 80.33333333333 97.66666666667 81 133 C 81 168.33333333333 81 201.66666666667 81 233 C 81 257.66666666667 81 276.33333333333 81 289 C 81 301.66666666667 80.66666666667 311.66666666667 80 319 C 78.66666666667 335.66666666667 77.33333333333 348 76 356 C 74 364 70.33333333333 371 65 377 L 69 393 L 144 413 L 157 407 C 155.66666666667 393 154.66666666667 382 154 374 C 153.33333333333 365.33333333333 153 353.66666666667 153 339 C 168.33333333333 359 185.33333333333 375.66666666667 204 389 C 222.66666666667 401.66666666667 245.66666666667 408 273 408 C 316.33333333333 408 350.66666666667 395 376 369 C 400.66666666667 342.33333333333 413 307 413 263 C 413 225 413 194.33333333333 413 171 C 413 147 413 127.66666666667 413 113 C 413 97.66666666667 413.33333333333 85.33333333333 414 76 C 414 66.66666666667 414 58 414 50 C 414 34 418.33333333333 22.66666666667 427 16 L 424 -2 C 418.66666666667 -1.33333333333 411.66666666667 -0.66666666667 403 0 C 393.66666666667 0 386 0 380 0 L 343 0 C 342.33333333333 6 342 11.66666666667 342 17 C 341.33333333333 22.33333333333 341 29 341 37 C 341 45 341 55 341 67 C 341 78.33333333333 341 93.33333333333 341 112 L 341 237 C 341 277 332.66666666667 305.66666666667 316 323 C 298.66666666667 340.33333333333 277.33333333333 349 252 349 C 220.66666666667 349 195.33333333333 336 176 310 C 160.66666666667 290 153 260 153 220 C 153 156 154 94.33333333333 156 35 C 156 29 156.33333333333 23.33333333333 157 18 C 157.66666666667 12.66666666667 158.66666666667 8.33333333333 160 5 L 156 -1 C 150.66666666667 -0.33333333333 144.66666666667 0 138 0 C 131.33333333333 0 124.33333333333 0 117 0 C 109.66666666667 0 102.66666666667 0 96 0 C 89.33333333333 0 83.33333333333 -0.33333333333 78 -1 L 74 5 Z"/>
    <path fill="#000000" stroke="none" transform="matrix(1 0 0 -1 14908 1227)" d="M 288 50 L 297 24 C 285 17.33333333333 274.33333333333 12 265 8 C 255 4 245.66666666667 1 237 -1 C 227.66666666667 -3.66666666667 218.33333333333 -5.33333333333 209 -6 C 199.66666666667 -7.33333333333 189 -8 177 -8 C 148.33333333333 -8 125 2.33333333333 107 23 C 88.33333333333 43 80 71.66666666667 82 109 C 82 115 82.33333333333 123.66666666667 83 135 C 83.66666666667 146.33333333333 84.33333333333 159 85 173 C 85 186.33333333333 85.33333333333 200.33333333333 86 215 C 86 229 86 241.66666666667 86 253 C 86 270.33333333333 86 288.66666666667 86 308 C 85.33333333333 326.66666666667 84.66666666667 342.33333333333 84 355 C 71.33333333333 355 57.33333333333 354 42 352 L 39 372 L 43 378 C 55.66666666667 383.33333333333 66.33333333333 389 75 395 C 83 400.33333333333 91 406.66666666667 99 414 C 108.33333333333 422.66666666667 115.66666666667 430.33333333333 121 437 C 126.33333333333 443.66666666667 131.66666666667 451.66666666667 137 461 L 162 460 C 160 440 159 419 159 397 C 165 397 173.33333333333 397.33333333333 184 398 C 194.66666666667 398 206 398.33333333333 218 399 C 230 399 241.66666666667 399.33333333333 253 400 C 263.66666666667 400.66666666667 272.33333333333 401.33333333333 279 402 L 294 397 L 290 360 C 284 360 275.33333333333 360 264 360 C 252 360 239.33333333333 360 226 360 C 212.66666666667 359.33333333333 200 359 188 359 C 175.33333333333 358.33333333333 166 357.66666666667 160 357 C 159.33333333333 333 159 308.33333333333 159 283 C 159 257.66666666667 159 233.66666666667 159 211 C 159 187.66666666667 159 166.66666666667 159 148 C 159 129.33333333333 159.33333333333 114.33333333333 160 103 C 160.66666666667 89 162.66666666667 78 166 70 C 169.33333333333 61.33333333333 173.66666666667 54.66666666667 179 50 C 184.33333333333 45.33333333333 190.33333333333 42.33333333333 197 41 C 203 39.66666666667 209 39 215 39 C 227.66666666667 39 239 40 249 42 C 259 43.33333333333 269.66666666667 46 281 50 L 288 50 Z"/>
</svg>
