<svg width="14757" height="2000" viewBox="0 0 14757 2000" xmlns="http://www.w3.org/2000/svg">
    <defs/>
    <path fill="#000000" stroke="none" transform="matrix(1 0 0 -1 0 1227)" d="M 12 15 C 20.66666666667 21.66666666667 28.33333333333 29 35 37 C 41.66666666667 45 48 56 54 70 C 69.33333333333 105.33333333333 86 144.33333333333 104 187 C 121.33333333333 229 140 274 160 322 C 179.33333333333 369.33333333333 199.66666666667 419 221 471 C 241.66666666667 523 262.66666666667 576 284 630 L 289 635 L 310 635 L 315 630 C 349 540.66666666667 384.66666666667 451 422 361 C 459.33333333333 271 497.33333333333 182.33333333333 536 95 C 545.33333333333 74.33333333333 553.66666666667 58.33333333333 561 47 C 568.33333333333 35 577.33333333333 24.33333333333 588 15 L 585 -2 C 573.66666666667 -1.33333333333 558.33333333333 -0.66666666667 539 0 C 519.66666666667 0 497.33333333333 0 472 0 L 466 3 C 459.33333333333 26.33333333333 449.33333333333 55.66666666667 436 91 C 422 125.66666666667 405.33333333333 167.66666666667 386 217 C 370.66666666667 217.66666666667 352.66666666667 218.33333333333 332 219 C 310.66666666667 219.66666666667 292.33333333333 220 277 220 C 256.33333333333 220 237.33333333333 220 220 220 C 202.66666666667 219.33333333333 187 218.66666666667 173 218 C 156.33333333333 175.33333333333 142 137.66666666667 130 105 C 118 72.33333333333 106.33333333333 38.33333333333 95 3 L 91 0 C 77.66666666667 0 64 0 50 0 C 36 0 24.33333333333 -0.66666666667 15 -2 L 12 15 Z M 280 481 C 266.66666666667 454.33333333333 252.66666666667 424 238 390 C 223.33333333333 355.33333333333 206.33333333333 313 187 263 C 200.33333333333 262.33333333333 214 262 228 262 C 241.33333333333 261.33333333333 256.66666666667 261 274 261 C 292 261 308.66666666667 261 324 261 C 339.33333333333 261 355.33333333333 261.66666666667 372 263 L 286 481 L 280 481 Z"/>
    <path fill="#000000" stroke="none" transform="matrix(1 0 0 -1 606 1227)" d="M 55 5 C 59 12.33333333333 62 19.66666666667 64 27 C 66 33.66666666667 67.33333333333 40 68 46 C 70.66666666667 92 73.33333333333 135.66666666667 76 177 C 78 217.66666666667 80 258 82 298 C 83.33333333333 338 84.66666666667 378.66666666667 86 420 C 86.66666666667 461.33333333333 87 505.33333333333 87 552 C 87 571.33333333333 79.66666666667 588.66666666667 65 604 L 67 622 C 83 620.66666666667 98.66666666667 620 114 620 C 128.66666666667 620 142.33333333333 620 155 620 L 160 615 C 196.66666666667 531 234.33333333333 449.66666666667 273 371 C 311.66666666667 292.33333333333 350 218.66666666667 388 150 L 392 150 C 430.66666666667 220.66666666667 469 295 507 373 C 544.33333333333 451 581.33333333333 532.33333333333 618 617 L 625 621 C 639 621 654.33333333333 621 671 621 C 687 620.33333333333 707 620.66666666667 731 622 L 734 605 C 726 600.33333333333 720.66666666667 595 718 589 C 715.33333333333 583 714 575.33333333333 714 566 C 714 472.66666666667 716 382.33333333333 720 295 C 723.33333333333 207.66666666667 727.66666666667 126.66666666667 733 52 C 733.66666666667 40 735.33333333333 30 738 22 C 740 14 742.66666666667 8.33333333333 746 5 L 742 -2 C 739.33333333333 -2 735.66666666667 -1.66666666667 731 -1 C 726.33333333333 -1 721.33333333333 -0.66666666667 716 0 C 710 0 704.66666666667 0 700 0 C 694.66666666667 0 690.66666666667 0 688 0 L 647 0 L 642 5 C 644 71.66666666667 644 148.66666666667 642 236 C 640 322.66666666667 636.33333333333 412.66666666667 631 506 C 594.33333333333 442 555.33333333333 367.66666666667 514 283 C 472 198.33333333333 430 109.33333333333 388 16 L 383 11 L 355 11 L 350 16 C 318 85.33333333333 284.66666666667 157.33333333333 250 232 C 215.33333333333 306.66666666667 177.33333333333 382 136 458 C 131.33333333333 380 128.33333333333 303 127 227 C 125 150.33333333333 124 76.33333333333 124 5 L 119 0 L 94 0 C 90 0 84 0 76 0 C 68 0 62.33333333333 -0.33333333333 59 -1 L 55 5 Z"/>
    <path fill="#000000" stroke="none" transform="matrix(1 0 0 -1 1415 1227)" d="M -19 14 C -7 20.66666666667 5.66666666667 32.66666666667 19 50 C 35 71.33333333333 51.66666666667 94.33333333333 69 119 C 85.66666666667 143 102 166.66666666667 118 190 C 133.33333333333 213.33333333333 148 235.66666666667 162 257 C 175.33333333333 278.33333333333 186.66666666667 296.66666666667 196 312 C 175.33333333333 346 157.33333333333 375.66666666667 142 401 C 126 426.33333333333 111.66666666667 449 99 469 C 85.66666666667 489 73.33333333333 507.33333333333 62 524 C 50.66666666667 540 39 556 27 572 C 19.66666666667 581.33333333333 13 588.66666666667 7 594 C 1 599.33333333333 -4.66666666667 603.33333333333 -10 606 L -6 622 C -0.66666666667 621.33333333333 6.66666666667 621 16 621 C 24.66666666667 620.33333333333 34.33333333333 620 45 620 C 55 620 65.33333333333 620 76 620 C 86 620 94.66666666667 620 102 620 L 110 618 C 127.33333333333 588.66666666667 142.33333333333 563.66666666667 155 543 C 167 521.66666666667 178.33333333333 502.66666666667 189 486 C 199 468.66666666667 208.66666666667 452.66666666667 218 438 C 227.33333333333 422.66666666667 237.66666666667 406.33333333333 249 389 L 254 389 C 265.33333333333 404.33333333333 276.33333333333 419.66666666667 287 435 C 297 449.66666666667 307.66666666667 465.66666666667 319 483 C 330.33333333333 500.33333333333 342.66666666667 520 356 542 C 369.33333333333 563.33333333333 384.33333333333 588 401 616 L 408 620 C 417.33333333333 620 428.33333333333 620 441 620 C 453.66666666667 620 463.66666666667 620.66666666667 471 622 L 475 606 C 469.66666666667 601.33333333333 464 596.33333333333 458 591 C 451.33333333333 585.66666666667 444.66666666667 578.66666666667 438 570 C 422 548.66666666667 407.33333333333 529 394 511 C 380.66666666667 492.33333333333 368 474.33333333333 356 457 C 343.33333333333 439.66666666667 331 421.66666666667 319 403 C 307 384.33333333333 294.33333333333 364 281 342 C 308.33333333333 300 331.33333333333 264.66666666667 350 236 C 368 207.33333333333 384 182.33333333333 398 161 C 412 139 425.33333333333 119.33333333333 438 102 C 450 84.66666666667 463 66 477 46 C 484.33333333333 36 490.33333333333 29 495 25 C 499.66666666667 20.33333333333 505 16.66666666667 511 14 L 507 -2 C 502.33333333333 -1.33333333333 495 -0.66666666667 485 0 C 475 0 464.66666666667 0 454 0 C 442.66666666667 0 431.66666666667 0 421 0 C 409.66666666667 0 400.33333333333 0 393 0 L 386 3 C 366 41 342.33333333333 82.33333333333 315 127 C 287.66666666667 171.66666666667 258.66666666667 217.66666666667 228 265 L 223 265 C 201 234.33333333333 176.33333333333 197.33333333333 149 154 C 121 110 90 59.66666666667 56 3 L 49 0 C 39.66666666667 0 28.66666666667 0 16 0 C 2.66666666667 0 -7.66666666667 -0.66666666667 -15 -2 L -19 14 Z"/>
    <path fill="#000000" stroke="none" transform="matrix(1 0 0 -1 1922 1227)" d="M 78 5 C 80.66666666667 13 82.33333333333 23 83 35 C 83.66666666667 48.33333333333 84.33333333333 61.66666666667 85 75 C 85 87.66666666667 85.33333333333 103.66666666667 86 123 C 86 142.33333333333 86 167 86 197 C 86 226.33333333333 86 264 86 310 C 86 356 86 394 86 424 C 86 453.33333333333 86 477.66666666667 86 497 C 85.33333333333 516.33333333333 85 532.66666666667 85 546 C 84.33333333333 558.66666666667 83.66666666667 571.66666666667 83 585 C 82.33333333333 597 80.66666666667 607 78 615 L 82 621 C 87.33333333333 620.33333333333 94 620 102 620 C 110 620 118 620 126 620 C 143.33333333333 620 162.66666666667 620.66666666667 184 622 C 205.33333333333 622.66666666667 226.66666666667 623.66666666667 248 625 C 281.33333333333 627 311.33333333333 624.33333333333 338 617 C 364.66666666667 609 387.33333333333 597.66666666667 406 583 C 424 568.33333333333 438 551 448 531 C 457.33333333333 511 462 490 462 468 C 462 441.33333333333 457 417.66666666667 447 397 C 437 376.33333333333 424 358.66666666667 408 344 C 391.33333333333 329.33333333333 373 317.66666666667 353 309 C 332.33333333333 299.66666666667 311.33333333333 293.33333333333 290 290 C 322 242 353 198.33333333333 383 159 C 412.33333333333 119 443.66666666667 79 477 39 C 482.33333333333 31.66666666667 488 26.33333333333 494 23 C 499.33333333333 19 504 16.33333333333 508 15 L 505 -2 C 499 -1.33333333333 491.33333333333 -0.66666666667 482 0 C 472 0 462 0 452 0 C 441.33333333333 0 430.66666666667 0 420 0 C 409.33333333333 0 400 0 392 0 L 384 4 C 374.66666666667 19.33333333333 362 39 346 63 C 330 86.33333333333 313.33333333333 110.66666666667 296 136 C 278 161.33333333333 260.33333333333 186 243 210 C 225.66666666667 233.33333333333 210.66666666667 253 198 269 C 192 277 181.33333333333 281 166 281 C 166 235 166 198.66666666667 166 172 C 166 145.33333333333 166.33333333333 124.33333333333 167 109 C 167 93 167.33333333333 80 168 70 C 168 60 168.33333333333 48.33333333333 169 35 C 169.66666666667 23 171.33333333333 13 174 5 L 170 -1 C 164.66666666667 -0.33333333333 158 0 150 0 C 142 0 134 0 126 0 C 118 0 110 0 102 0 C 94 0 87.33333333333 -0.33333333333 82 -1 L 78 5 Z M 166 323 L 205 323 C 255.66666666667 323 296.33333333333 332.66666666667 327 352 C 357 371.33333333333 372 404.66666666667 372 452 C 372 492 361.66666666667 523.66666666667 341 547 C 320.33333333333 570.33333333333 288 582 244 582 C 215.33333333333 582 189.33333333333 580 166 576 L 166 323 Z"/>
    <path fill="#000000" stroke="none" transform="matrix(1 0 0 -1 2436 1227)" d="M 30 11 C 64.66666666667 65 99.66666666667 120.33333333333 135 177 C 170.33333333333 233 203.66666666667 286.33333333333 235 337 C 265.66666666667 387.66666666667 293.66666666667 434 319 476 C 343.66666666667 518 363 551.33333333333 377 576 L 279 576 C 244.33333333333 576 217.33333333333 575.66666666667 198 575 C 178 573.66666666667 161.33333333333 572.33333333333 148 571 C 136.66666666667 569.66666666667 127.66666666667 567.33333333333 121 564 C 113.66666666667 560.66666666667 106.66666666667 554.66666666667 100 546 L 93 543 L 63 548 L 70 620 L 81 622 C 91.66666666667 621.33333333333 108 621 130 621 C 151.33333333333 620.33333333333 174 620 198 620 C 221.33333333333 620 243.66666666667 620 265 620 C 286.33333333333 620 302 620 312 620 C 321.33333333333 620 331.33333333333 620 342 620 C 352.66666666667 620 365.33333333333 620 380 620 C 394.66666666667 620 411.66666666667 620.33333333333 431 621 C 450.33333333333 621 473.66666666667 621.33333333333 501 622 L 507 608 C 487.66666666667 581.33333333333 464 546 436 502 C 408 458 378 410.33333333333 346 359 C 314 307.66666666667 281.66666666667 254.66666666667 249 200 C 215.66666666667 145.33333333333 184.66666666667 93.33333333333 156 44 L 318 44 C 352 44 377.66666666667 44.66666666667 395 46 C 411.66666666667 46.66666666667 426.33333333333 47.66666666667 439 49 C 449.66666666667 50.33333333333 458.66666666667 52.66666666667 466 56 C 472.66666666667 59.33333333333 479.66666666667 65.33333333333 487 74 L 494 77 L 524 72 L 517 0 L 506 -2 C 484.66666666667 -0.66666666667 457.66666666667 0 425 0 C 392.33333333333 0 359 0 325 0 C 291 0 250.66666666667 0 204 0 C 157.33333333333 0 101.66666666667 -0.66666666667 37 -2 L 30 11 Z"/>
    <path fill="#000000" stroke="none" transform="matrix(1 0 0 -1 2982 1227)" d="M 197 5 C 199.66666666667 13 201.33333333333 23 202 35 C 202.66666666667 48.33333333333 203.33333333333 61.66666666667 204 75 C 204 88.33333333333 204.33333333333 104.33333333333 205 123 C 205 141 205 163 205 189 C 205 214.33333333333 205 246 205 284 C 181.66666666667 326 158 368.66666666667 134 412 C 109.33333333333 454.66666666667 83.66666666667 496.66666666667 57 538 C 51 547.33333333333 45.66666666667 555.33333333333 41 562 C 36.33333333333 568.66666666667 32 574.66666666667 28 580 C 23.33333333333 584.66666666667 18.66666666667 589 14 593 C 9.33333333333 597 4 601 -2 605 L 1 622 C 15.66666666667 620.66666666667 32.66666666667 620 52 620 C 71.33333333333 620 89.66666666667 620 107 620 L 113 616 C 127 589.33333333333 140.33333333333 564.66666666667 153 542 C 165 518.66666666667 177 496.33333333333 189 475 C 201 453.66666666667 213.33333333333 432.66666666667 226 412 C 238 391.33333333333 250.33333333333 370 263 348 L 268 348 C 325.33333333333 441.33333333333 375.66666666667 531 419 617 L 423 620 C 436.33333333333 620 448.66666666667 620 460 620 C 471.33333333333 620 481.66666666667 620.66666666667 491 622 L 494 605 C 486 601.66666666667 479.33333333333 598 474 594 C 468.66666666667 590 462 581.66666666667 454 569 C 428 529 401.33333333333 486 374 440 C 346.66666666667 393.33333333333 317 341.33333333333 285 284 C 285 246 285 214.33333333333 285 189 C 285 163 285.33333333333 141 286 123 C 286 104.33333333333 286.33333333333 88.33333333333 287 75 C 287 61.66666666667 287.33333333333 48.33333333333 288 35 C 288.66666666667 23 290.33333333333 13 293 5 L 289 -1 C 283.66666666667 -0.33333333333 277 0 269 0 C 261 0 253 0 245 0 C 237 0 229 0 221 0 C 213 0 206.33333333333 -0.33333333333 201 -1 L 197 5 Z"/>
    <path fill="#000000" stroke="none" transform="matrix(1 0 0 -1 3647 1227)" d="M 602 40 C 584 30 566.33333333333 21.66666666667 549 15 C 531.66666666667 8.33333333333 514 3 496 -1 C 477.33333333333 -5.66666666667 457.66666666667 -8.66666666667 437 -10 C 416.33333333333 -12 393.33333333333 -13 368 -13 C 323.33333333333 -13 281.33333333333 -5.66666666667 242 9 C 202.66666666667 23 168.33333333333 43.66666666667 139 71 C 109 98.33333333333 85.33333333333 132 68 172 C 50.66666666667 212 42 257.66666666667 42 309 C 42 359.66666666667 52.33333333333 405.66666666667 73 447 C 93 488.33333333333 120 524 154 554 C 188 583.33333333333 226.66666666667 606.33333333333 270 623 C 313.33333333333 639 358 647 404 647 C 450.66666666667 647 492.33333333333 643.33333333333 529 636 C 565.66666666667 628.66666666667 594.33333333333 620.33333333333 615 611 L 618 604 L 608 525 L 581 522 L 575 526 C 568.33333333333 550.66666666667 550.66666666667 569.33333333333 522 582 C 493.33333333333 594.66666666667 449 601 389 601 C 355.66666666667 601 324 594.66666666667 294 582 C 264 569.33333333333 237.66666666667 551.66666666667 215 529 C 191.66666666667 505.66666666667 173.33333333333 478 160 446 C 146.66666666667 414 140 378.66666666667 140 340 C 140 290.66666666667 147 247.66666666667 161 211 C 174.33333333333 173.66666666667 193.66666666667 142.66666666667 219 118 C 243.66666666667 93.33333333333 274 75 310 63 C 345.33333333333 50.33333333333 384.66666666667 44 428 44 C 455.33333333333 44 482.66666666667 47.66666666667 510 55 C 536.66666666667 61.66666666667 567 73 601 89 L 614 82 L 602 40 Z"/>
    <path fill="#000000" stroke="none" transform="matrix(1 0 0 -1 4291 1227)" d="M 78 5 C 80.66666666667 13 82.33333333333 23 83 35 C 83.66666666667 48.33333333333 84.33333333333 61.66666666667 85 75 C 85 87.66666666667 85.33333333333 103.66666666667 86 123 C 86 142.33333333333 86 167 86 197 C 86 226.33333333333 86 264 86 310 C 86 356 86 394 86 424 C 86 453.33333333333 86 477.66666666667 86 497 C 85.33333333333 516.33333333333 85 532.66666666667 85 546 C 84.33333333333 558.66666666667 83.66666666667 571.66666666667 83 585 C 82.33333333333 597 80.66666666667 607 78 615 L 82 621 C 87.33333333333 620.33333333333 94 620 102 620 C 109.33333333333 620 117.33333333333 620 126 620 C 150 620 171.66666666667 620.66666666667 191 622 C 209.66666666667 622.66666666667 228.66666666667 623.66666666667 248 625 C 315.33333333333 629.66666666667 369 618.66666666667 409 592 C 449 565.33333333333 469 524.33333333333 469 469 C 469 438.33333333333 463 411 451 387 C 438.33333333333 363 421.66666666667 342.66666666667 401 326 C 379.66666666667 308.66666666667 355.33333333333 295.66666666667 328 287 C 300 277.66666666667 270.33333333333 273 239 273 C 229 273 219 275 209 279 L 196 314 L 201 319 C 207.66666666667 317 214 315.66666666667 220 315 C 225.33333333333 314.33333333333 231 314 237 314 C 256.33333333333 314 274.66666666667 316.66666666667 292 322 C 308.66666666667 327.33333333333 323.66666666667 335.33333333333 337 346 C 349.66666666667 356.66666666667 360 370.33333333333 368 387 C 375.33333333333 403 379 422 379 444 C 379 492 367.33333333333 527 344 549 C 320 571 286 582 242 582 C 230.66666666667 582 218.66666666667 581.66666666667 206 581 C 192.66666666667 579.66666666667 180 578.33333333333 168 577 C 167.33333333333 561 167 545.33333333333 167 530 C 166.33333333333 514 166 496.33333333333 166 477 C 166 457 166 434 166 408 C 166 381.33333333333 166 348.66666666667 166 310 C 166 260 166 220 166 190 C 166 160 166.33333333333 136 167 118 C 167 99.33333333333 167.33333333333 84.33333333333 168 73 C 168 61 168.33333333333 48.33333333333 169 35 C 169.66666666667 23 171.33333333333 13 174 5 L 170 -1 C 164.66666666667 -0.33333333333 158 0 150 0 C 142 0 134 0 126 0 C 118 0 110 0 102 0 C 94 0 87.33333333333 -0.33333333333 82 -1 L 78 5 Z"/>
    <path fill="#000000" stroke="none" transform="matrix(1 0 0 -1 4763 1227)" d="M 78 5 C 80.66666666667 13 82.33333333333 23 83 35 C 83.66666666667 47.66666666667 84.33333333333 60.33333333333 85 73 C 85 85.66666666667 85.33333333333 102 86 122 C 86 141.33333333333 86 166 86 196 C 86 226 86 264 86 310 C 86 356 86 394 86 424 C 86 453.33333333333 86 477.66666666667 86 497 C 85.33333333333 516.33333333333 85 532.66666666667 85 546 C 84.33333333333 558.66666666667 83.66666666667 571.66666666667 83 585 C 82.33333333333 597 80.66666666667 607 78 615 L 82 621 C 87.33333333333 620.33333333333 94 620 102 620 C 110 620 118 620 126 620 C 134 620 142 620 150 620 C 158 620 164.66666666667 620.33333333333 170 621 L 174 615 C 171.33333333333 607 169.66666666667 597 169 585 C 168.33333333333 571.66666666667 168 558.66666666667 168 546 C 167.33333333333 532.66666666667 167 516.33333333333 167 497 C 166.33333333333 477.66666666667 166 453.33333333333 166 424 C 166 394 166 356 166 310 C 166 277.33333333333 166 250.66666666667 166 230 C 166 209.33333333333 166.33333333333 191.66666666667 167 177 C 167 161.66666666667 167.33333333333 148 168 136 C 168 124 168.33333333333 110 169 94 C 169.66666666667 80.66666666667 174.33333333333 69 183 59 C 191.66666666667 49 208 44 232 44 C 266 44 291.66666666667 44.66666666667 309 46 C 325.66666666667 46.66666666667 340.33333333333 47.66666666667 353 49 C 364.33333333333 50.33333333333 373.66666666667 52.66666666667 381 56 C 387.66666666667 59.33333333333 394.33333333333 65.33333333333 401 74 L 408 77 L 438 72 L 431 0 L 420 -2 C 398.66666666667 -0.66666666667 374.66666666667 0 348 0 C 320.66666666667 0 294 0 268 0 L 126 0 C 118 0 110 0 102 0 C 94 0 87.33333333333 -0.33333333333 82 -1 L 78 5 Z"/>
    <path fill="#000000" stroke="none" transform="matrix(1 0 0 -1 5220 1227)" d="M 30 11 C 64.66666666667 65 99.66666666667 120.33333333333 135 177 C 170.33333333333 233 203.66666666667 286.33333333333 235 337 C 265.66666666667 387.66666666667 293.66666666667 434 319 476 C 343.66666666667 518 363 551.33333333333 377 576 L 279 576 C 244.33333333333 576 217.33333333333 575.66666666667 198 575 C 178 573.66666666667 161.33333333333 572.33333333333 148 571 C 136.66666666667 569.66666666667 127.66666666667 567.33333333333 121 564 C 113.66666666667 560.66666666667 106.66666666667 554.66666666667 100 546 L 93 543 L 63 548 L 70 620 L 81 622 C 91.66666666667 621.33333333333 108 621 130 621 C 151.33333333333 620.33333333333 174 620 198 620 C 221.33333333333 620 243.66666666667 620 265 620 C 286.33333333333 620 302 620 312 620 C 321.33333333333 620 331.33333333333 620 342 620 C 352.66666666667 620 365.33333333333 620 380 620 C 394.66666666667 620 411.66666666667 620.33333333333 431 621 C 450.33333333333 621 473.66666666667 621.33333333333 501 622 L 507 608 C 487.66666666667 581.33333333333 464 546 436 502 C 408 458 378 410.33333333333 346 359 C 314 307.66666666667 281.66666666667 254.66666666667 249 200 C 215.66666666667 145.33333333333 184.66666666667 93.33333333333 156 44 L 318 44 C 352 44 377.66666666667 44.66666666667 395 46 C 411.66666666667 46.66666666667 426.33333333333 47.66666666667 439 49 C 449.66666666667 50.33333333333 458.66666666667 52.66666666667 466 56 C 472.66666666667 59.33333333333 479.66666666667 65.33333333333 487 74 L 494 77 L 524 72 L 517 0 L 506 -2 C 484.66666666667 -0.66666666667 457.66666666667 0 425 0 C 392.33333333333 0 359 0 325 0 C 291 0 250.66666666667 0 204 0 C 157.33333333333 0 101.66666666667 -0.66666666667 37 -2 L 30 11 Z"/>
    <path fill="#000000" stroke="none" transform="matrix(1 0 0 -1 5766 1227)" d="M 78 5 C 80.66666666667 13 82.33333333333 23 83 35 C 83.66666666667 47.66666666667 84.33333333333 60.33333333333 85 73 C 85 85.66666666667 85.33333333333 102 86 122 C 86 141.33333333333 86 166 86 196 C 86 226 86 264 86 310 C 86 356 86 394 86 424 C 86 453.33333333333 86 477.66666666667 86 497 C 85.33333333333 516.33333333333 85 532.66666666667 85 546 C 84.33333333333 558.66666666667 83.66666666667 571.66666666667 83 585 C 82.33333333333 597 80.66666666667 607 78 615 L 82 621 C 87.33333333333 620.33333333333 94 620 102 620 C 110 620 118 620 126 620 C 134 620 142 620 150 620 C 158 620 164.66666666667 620.33333333333 170 621 L 174 615 C 171.33333333333 607 169.66666666667 597 169 585 C 168.33333333333 571.66666666667 168 558.66666666667 168 546 C 167.33333333333 532.66666666667 167 516.33333333333 167 497 C 166.33333333333 477.66666666667 166 453.33333333333 166 424 C 166 394 166 356 166 310 C 166 277.33333333333 166 250.66666666667 166 230 C 166 209.33333333333 166.33333333333 191.66666666667 167 177 C 167 161.66666666667 167.33333333333 148 168 136 C 168 124 168.33333333333 110 169 94 C 169.66666666667 80.66666666667 174.33333333333 69 183 59 C 191.66666666667 49 208 44 232 44 C 266 44 291.66666666667 44.66666666667 309 46 C 325.66666666667 46.66666666667 340.33333333333 47.66666666667 353 49 C 364.33333333333 50.33333333333 373.66666666667 52.66666666667 381 56 C 387.66666666667 59.33333333333 394.33333333333 65.33333333333 401 74 L 408 77 L 438 72 L 431 0 L 420 -2 C 398.66666666667 -0.66666666667 374.66666666667 0 348 0 C 320.66666666667 0 294 0 268 0 L 126 0 C 118 0 110 0 102 0 C 94 0 87.33333333333 -0.33333333333 82 -1 L 78 5 Z"/>
    <path fill="#000000" stroke="none" transform="matrix(1 0 0 -1 6223 1227)" d="M 78 5 C 80.66666666667 13 82.33333333333 23 83 35 C 83.66666666667 48.33333333333 84.33333333333 61.66666666667 85 75 C 85 87.66666666667 85.33333333333 103.66666666667 86 123 C 86 142.33333333333 86 167 86 197 C 86 226.33333333333 86 264 86 310 C 86 356 86 394 86 424 C 86 453.33333333333 86 477.66666666667 86 497 C 85.33333333333 516.33333333333 85 532.66666666667 85 546 C 84.33333333333 558.66666666667 83.66666666667 571.66666666667 83 585 C 82.33333333333 597 80.66666666667 607 78 615 L 82 621 C 87.33333333333 620.33333333333 94 620 102 620 C 110 620 118 620 126 620 C 134 620 142 620 150 620 C 158 620 164.66666666667 620.33333333333 170 621 L 174 615 C 171.33333333333 607 169.66666666667 597 169 585 C 168.33333333333 571.66666666667 168 558.66666666667 168 546 C 167.33333333333 532.66666666667 167 516.33333333333 167 497 C 166.33333333333 477.66666666667 166 453.33333333333 166 424 C 166 394 166 356 166 310 C 166 264 166 226.33333333333 166 197 C 166 167 166.33333333333 142.33333333333 167 123 C 167 103.66666666667 167.33333333333 87.66666666667 168 75 C 168 61.66666666667 168.33333333333 48.33333333333 169 35 C 169.66666666667 23 171.33333333333 13 174 5 L 170 -1 C 164.66666666667 -0.33333333333 158 0 150 0 C 142 0 134 0 126 0 C 118 0 110 0 102 0 C 94 0 87.33333333333 -0.33333333333 82 -1 L 78 5 Z"/>
    <path fill="#000000" stroke="none" transform="matrix(1 0 0 -1 6662 1227)" d="M 118 208 C 118.66666666667 180.66666666667 123.33333333333 156.66666666667 132 136 C 140.66666666667 114.66666666667 152.33333333333 97 167 83 C 181.66666666667 69 199.33333333333 58.66666666667 220 52 C 240 44.66666666667 262 41 286 41 C 301.33333333333 41 316.33333333333 43 331 47 C 345 50.33333333333 357.66666666667 54.66666666667 369 60 L 374 58 L 385 31 C 367.66666666667 19 347.66666666667 9.66666666667 325 3 C 302.33333333333 -4.33333333333 276 -8 246 -8 C 215.33333333333 -8 187.33333333333 -3.33333333333 162 6 C 136.66666666667 14.66666666667 115 28 97 46 C 78.33333333333 63.33333333333 64 85 54 111 C 44 137 39 166.66666666667 39 200 C 39 228 44 254.66666666667 54 280 C 63.33333333333 305.33333333333 76.66666666667 327.66666666667 94 347 C 111.33333333333 365.66666666667 132 380.66666666667 156 392 C 180 402.66666666667 206.33333333333 408 235 408 C 262.33333333333 408 286 403.33333333333 306 394 C 326 384.66666666667 343 372 357 356 C 370.33333333333 340 380.33333333333 321 387 299 C 393.66666666667 277 397 253.33333333333 397 228 C 397 224 395.33333333333 220.66666666667 392 218 C 388 215.33333333333 380 213.33333333333 368 212 C 356 210 338.33333333333 209 315 209 C 291.66666666667 208.33333333333 260.33333333333 208 221 208 L 118 208 Z M 221 248 C 261 248 287.33333333333 249 300 251 C 312.66666666667 252.33333333333 319 254.66666666667 319 258 C 319 290 311.66666666667 316.33333333333 297 337 C 281.66666666667 357.66666666667 258.33333333333 368 227 368 C 197 368 173 358 155 338 C 136.33333333333 318 124.33333333333 288 119 248 L 221 248 Z"/>
    <path fill="#000000" stroke="none" transform="matrix(1 0 0 -1 7096 1227)" d="M 68 70 C 77.33333333333 78.66666666667 85.66666666667 87.66666666667 93 97 C 99.66666666667 105.66666666667 106.66666666667 116 114 128 C 96.66666666667 140 82 156.33333333333 70 177 C 58 197.66666666667 52 222.66666666667 52 252 C 52 276.66666666667 56.33333333333 298.66666666667 65 318 C 73 337.33333333333 84 353.66666666667 98 367 C 112 380.33333333333 128.66666666667 390.66666666667 148 398 C 167.33333333333 404.66666666667 188 408 210 408 C 230.66666666667 408 249 405.66666666667 265 401 C 269 399.66666666667 274.66666666667 398 282 396 C 289.33333333333 394 297 393 305 393 C 315 393 326.66666666667 393.33333333333 340 394 C 352.66666666667 394.66666666667 366 396.33333333333 380 399 L 394 392 L 389 355 L 329 355 C 342.33333333333 338.33333333333 351.66666666667 321.66666666667 357 305 C 362.33333333333 288.33333333333 365 272.33333333333 365 257 C 365 206.33333333333 350 168.33333333333 320 143 C 289.33333333333 117.66666666667 250 105 202 105 C 194 105 184.33333333333 106 173 108 C 161.66666666667 109.33333333333 152 111.66666666667 144 115 C 136.66666666667 107.66666666667 133 101 133 95 C 133 77.66666666667 141 64.33333333333 157 55 C 173 45.66666666667 200.33333333333 41 239 41 C 299 41 341.66666666667 31.33333333333 367 12 C 391.66666666667 -7.33333333333 404 -34 404 -68 C 404 -93.33333333333 397 -117.33333333333 383 -140 C 369 -163.33333333333 350.66666666667 -183.66666666667 328 -201 C 305.33333333333 -218.33333333333 279.66666666667 -232 251 -242 C 222.33333333333 -252.66666666667 193.33333333333 -258 164 -258 C 116.66666666667 -258 78.66666666667 -246.66666666667 50 -224 C 20.66666666667 -202 6 -171.66666666667 6 -133 C 6 -120.33333333333 10.33333333333 -110 19 -102 C 35 -87.33333333333 50 -73 64 -59 C 77.33333333333 -45 90.66666666667 -29.33333333333 104 -12 C 90.66666666667 -6.66666666667 80.33333333333 2 73 14 C 65 26 61 38.66666666667 61 52 L 68 70 Z M 88 -124 C 88 -138 91 -150.66666666667 97 -162 C 102.33333333333 -173.33333333333 110 -183 120 -191 C 129.33333333333 -199 140.33333333333 -205 153 -209 C 165 -213.66666666667 178 -216 192 -216 C 212 -216 230 -212.66666666667 246 -206 C 262 -199.33333333333 275.66666666667 -190.33333333333 287 -179 C 298.33333333333 -167.66666666667 307.33333333333 -154.33333333333 314 -139 C 320 -124.33333333333 323 -108.33333333333 323 -91 C 323 -70.33333333333 316.66666666667 -53.66666666667 304 -41 C 290.66666666667 -29 266.33333333333 -23 231 -23 C 219.66666666667 -23 207 -22.66666666667 193 -22 C 179 -22 165.66666666667 -21.33333333333 153 -20 L 146 -21 C 133.33333333333 -32.33333333333 123.33333333333 -42.33333333333 116 -51 C 108 -60.33333333333 102 -68.66666666667 98 -76 C 94 -84 91.33333333333 -91.66666666667 90 -99 C 88.66666666667 -107 88 -115.33333333333 88 -124 Z M 209 141 C 237 141 258 150.33333333333 272 169 C 285.33333333333 187.66666666667 292 213.33333333333 292 246 C 292 282 284.33333333333 311.66666666667 269 335 C 253 358.33333333333 231 370 203 370 C 177.66666666667 370 158.33333333333 360.66666666667 145 342 C 131.66666666667 323.33333333333 125 299 125 269 C 125 233 132 202.66666666667 146 178 C 160 153.33333333333 181 141 209 141 Z"/>
    <path fill="#000000" stroke="none" transform="matrix(1 0 0 -1 7521 1227)" d="M 70 5 C 71.33333333333 8.33333333333 72.33333333333 12.66666666667 73 18 C 73 23.33333333333 73.33333333333 29 74 35 C 74.66666666667 49.66666666667 75.33333333333 64.66666666667 76 80 C 76 95.33333333333 76.33333333333 115.66666666667 77 141 C 77 165.66666666667 77 197.66666666667 77 237 C 77 276.33333333333 77 327.33333333333 77 390 C 77 426.66666666667 77 457.66666666667 77 483 C 77 508.33333333333 77 529.33333333333 77 546 C 77 562 77 574.33333333333 77 583 C 76.33333333333 591.66666666667 76 598 76 602 C 74 639.33333333333 68.66666666667 662.33333333333 60 671 L 64 687 L 140 707 L 153 701 C 152.33333333333 690.33333333333 151.66666666667 678 151 664 C 150.33333333333 649.33333333333 150 629 150 603 C 149.33333333333 577 149 543 149 501 C 149 459 149 405 149 339 C 164.33333333333 359 181.33333333333 375.66666666667 200 389 C 218.66666666667 401.66666666667 241.66666666667 408 269 408 C 312.33333333333 408 346.66666666667 395 372 369 C 396.66666666667 342.33333333333 409 307 409 263 C 409 225 409 194.33333333333 409 171 C 409 147 409 127.66666666667 409 113 C 409 97.66666666667 409.33333333333 85.33333333333 410 76 C 410 66.66666666667 410 58 410 50 C 410 34 414.33333333333 22.66666666667 423 16 L 420 -2 C 414.66666666667 -1.33333333333 407.66666666667 -0.66666666667 399 0 C 389.66666666667 0 382 0 376 0 L 339 0 C 338.33333333333 6 338 11.66666666667 338 17 C 337.33333333333 22.33333333333 337 29 337 37 C 337 45 337 55 337 67 C 337 78.33333333333 337 93.33333333333 337 112 L 337 237 C 337 277 328.66666666667 305.66666666667 312 323 C 294.66666666667 340.33333333333 273.33333333333 349 248 349 C 216.66666666667 349 191.33333333333 336 172 310 C 164 299.33333333333 158.33333333333 287.33333333333 155 274 C 151 260 149 242 149 220 C 149 196 149 175.33333333333 149 158 C 149 140.66666666667 149.33333333333 125.33333333333 150 112 C 150 98 150.33333333333 85 151 73 C 151 61 151.33333333333 48.33333333333 152 35 C 152 29 152.33333333333 23.33333333333 153 18 C 153.66666666667 12.66666666667 154.66666666667 8.33333333333 156 5 L 152 -1 C 146.66666666667 -0.33333333333 140.66666666667 0 134 0 C 127.33333333333 0 120.33333333333 0 113 0 C 105.66666666667 0 98.66666666667 0 92 0 C 85.33333333333 0 79.33333333333 -0.33333333333 74 -1 L 70 5 Z"/>
    <path fill="#000000" stroke="none" transform="matrix(1 0 0 -1 8002 1227)" d="M 1 15 C 13 19.66666666667 22.66666666667 26 30 34 C 51.33333333333 58 74.33333333333 85 99 115 C 123 145 145 173.33333333333 165 200 C 154.33333333333 215.33333333333 144.66666666667 229.66666666667 136 243 C 126.66666666667 255.66666666667 117.66666666667 268.33333333333 109 281 C 99.66666666667 293 89.66666666667 306 79 320 C 68.33333333333 333.33333333333 56.33333333333 348.66666666667 43 366 C 39 371.33333333333 35 375.33333333333 31 378 C 26.33333333333 380.66666666667 21.66666666667 382.66666666667 17 384 L 19 402 C 34.33333333333 400.66666666667 50.66666666667 400 68 400 C 85.33333333333 400 101.66666666667 400 117 400 L 124 397 C 140.66666666667 371 155.66666666667 348 169 328 C 182.33333333333 308 197.33333333333 287 214 265 L 218 265 C 236.66666666667 288.33333333333 254 311 270 333 C 286 354.33333333333 301 375.66666666667 315 397 L 320 400 C 326 400 335.33333333333 400 348 400 C 360 400 369.66666666667 400.66666666667 377 402 L 379 384 C 367.66666666667 380.66666666667 358 374.66666666667 350 366 C 330 342.66666666667 312 320.33333333333 296 299 C 279.33333333333 277.66666666667 261.33333333333 254 242 228 C 263.33333333333 198 285.66666666667 166.33333333333 309 133 C 332.33333333333 99 358 65 386 31 C 393.33333333333 22.33333333333 401 17 409 15 L 406 -2 C 390.66666666667 -0.66666666667 374.66666666667 0 358 0 C 340.66666666667 0 324.33333333333 0 309 0 L 302 3 C 285.33333333333 29 268.66666666667 54.66666666667 252 80 C 234.66666666667 104.66666666667 215 132.33333333333 193 163 L 189 163 C 169.66666666667 139.66666666667 150.33333333333 114.66666666667 131 88 C 111 60.66666666667 91.66666666667 32.66666666667 73 4 L 67 0 C 64.33333333333 0 60.33333333333 0 55 0 C 49 0 43 0 37 0 C 30.33333333333 0 24 0 18 0 C 12 -0.66666666667 7.33333333333 -1.33333333333 4 -2 L 1 15 Z"/>
    <path fill="#000000" stroke="none" transform="matrix(1 0 0 -1 8410 1227)" d="M 87 5 C 88.33333333333 8.33333333333 89.33333333333 12.66666666667 90 18 C 90 23.33333333333 90.33333333333 29 91 35 C 91.66666666667 49.66666666667 92.33333333333 65.33333333333 93 82 C 93 98 93 118 93 142 C 93 165.33333333333 93 194.33333333333 93 229 C 93 263 93 305.66666666667 93 357 C 86.33333333333 357 77.33333333333 356.66666666667 66 356 C 54.66666666667 355.33333333333 46.33333333333 354.66666666667 41 354 L 40 378 L 45 383 C 53 384.33333333333 61.33333333333 386.66666666667 70 390 C 78.66666666667 392.66666666667 85.33333333333 395.66666666667 90 399 L 92 406 L 92 458 C 92 503.33333333333 97 542.33333333333 107 575 C 117 607 131 633.66666666667 149 655 C 166.33333333333 675.66666666667 186.66666666667 691 210 701 C 232.66666666667 711 257 716 283 716 C 303.66666666667 716 323 713.33333333333 341 708 C 359 702 371.66666666667 695 379 687 L 381 680 L 375 619 L 348 616 L 342 620 C 338 633.33333333333 329.66666666667 646 317 658 C 303.66666666667 670 284.33333333333 676 259 676 C 229.66666666667 676 206.66666666667 663.66666666667 190 639 C 172.66666666667 613.66666666667 164 573.33333333333 164 518 L 164 400 C 170 400 177.66666666667 400.33333333333 187 401 C 195.66666666667 401 205 401.33333333333 215 402 C 224.33333333333 402 233.66666666667 402.33333333333 243 403 C 252.33333333333 403.66666666667 260.33333333333 404.33333333333 267 405 L 282 400 L 277 363 C 228.33333333333 363 191.33333333333 362 166 360 C 166 313.33333333333 166 273 166 239 C 166 204.33333333333 166.33333333333 174.33333333333 167 149 C 167 123.66666666667 167.33333333333 102 168 84 C 168 66 168.33333333333 49.66666666667 169 35 C 169 29 169.33333333333 23.33333333333 170 18 C 170.66666666667 12.66666666667 171.66666666667 8.33333333333 173 5 L 169 -1 C 163.66666666667 -0.33333333333 157.66666666667 0 151 0 C 144.33333333333 0 137.33333333333 0 130 0 C 122.66666666667 0 115.66666666667 0 109 0 C 102.33333333333 0 96.33333333333 -0.33333333333 91 -1 L 87 5 Z"/>
    <path fill="#000000" stroke="none" transform="matrix(1 0 0 -1 8700 1227)" d="M 9 -229 C 27 -214.33333333333 41.66666666667 -198 53 -180 C 64.33333333333 -162 71.33333333333 -137 74 -105 C 76 -81 77.33333333333 -49.33333333333 78 -10 C 78 29.33333333333 78 79.33333333333 78 140 C 78 170 78 195.66666666667 78 217 C 78 237.66666666667 78 255 78 269 C 78 283 78 294 78 302 C 77.33333333333 309.33333333333 77 315 77 319 C 75.66666666667 335.66666666667 74.33333333333 348 73 356 C 71 364 67.33333333333 371 62 377 L 66 393 L 141 413 L 154 407 C 153.33333333333 400.33333333333 152.66666666667 392 152 382 C 151.33333333333 371.33333333333 151 358.66666666667 151 344 C 150.33333333333 329.33333333333 150 312 150 292 C 150 271.33333333333 150 247.33333333333 150 220 C 150 192.66666666667 150 168.33333333333 150 147 C 150 125 150 105.66666666667 150 89 C 150 71.66666666667 150.33333333333 56.33333333333 151 43 C 151 29 151.33333333333 16 152 4 C 153.33333333333 -20 153 -43 151 -65 C 148.33333333333 -87 144 -105.66666666667 138 -121 C 128 -147.66666666667 112.33333333333 -173 91 -197 C 69 -221 45.33333333333 -240 20 -254 L 6 -236 L 9 -229 Z M 66 532 C 66 545.33333333333 70.33333333333 556.66666666667 79 566 C 87.66666666667 574.66666666667 98.66666666667 579 112 579 C 124.66666666667 579 135.33333333333 575 144 567 C 152 558.33333333333 156 548 156 536 C 156 522.66666666667 151.66666666667 511.66666666667 143 503 C 133.66666666667 493.66666666667 122.33333333333 489 109 489 C 97 489 87 493 79 501 C 70.33333333333 509 66 519.33333333333 66 532 Z"/>
    <path fill="#000000" stroke="none" transform="matrix(1 0 0 -1 9094 1227)" d="M 137 161 C 137 121 145.66666666667 92.33333333333 163 75 C 179.66666666667 57.66666666667 200.66666666667 49 226 49 C 244.66666666667 49 260.33333333333 53 273 61 C 285.66666666667 68.33333333333 296 78.33333333333 304 91 C 311.33333333333 103 316.66666666667 117 320 133 C 323.33333333333 148.33333333333 325 164 325 180 L 325 233 C 325 257.66666666667 325 276.33333333333 325 289 C 325 301.66666666667 324.66666666667 311.66666666667 324 319 C 322.66666666667 335.66666666667 321.33333333333 348 320 356 C 318 364 314.33333333333 371 309 377 L 313 393 L 388 413 L 401 407 C 399.66666666667 393 398.66666666667 370 398 338 C 397.33333333333 306 397 266.66666666667 397 220 C 397 196.66666666667 397 177.33333333333 397 162 C 397 146.66666666667 397.33333333333 133.33333333333 398 122 C 398.66666666667 110 399.33333333333 99.66666666667 400 91 C 400.66666666667 81.66666666667 401.33333333333 72 402 62 C 403.33333333333 54 410.66666666667 50 424 50 L 426 18 C 411.33333333333 15.33333333333 398 12.33333333333 386 9 C 374 5.66666666667 361.66666666667 0.66666666667 349 -6 L 331 -4 C 329.66666666667 1.33333333333 328.33333333333 9.33333333333 327 20 C 325.66666666667 30 325 43.66666666667 325 61 C 309.66666666667 41 292.66666666667 24.33333333333 274 11 C 255.33333333333 -3 232.33333333333 -10 205 -10 C 161.66666666667 -10 127.66666666667 3.33333333333 103 30 C 77.66666666667 56 65 91 65 135 C 65 173 65 203.33333333333 65 226 C 65 248.66666666667 65 266.66666666667 65 280 C 65 293.33333333333 65 303.33333333333 65 310 C 64.33333333333 316 64 321 64 325 C 63.33333333333 338.33333333333 62 349 60 357 C 58 364.33333333333 54.33333333333 371 49 377 L 53 393 L 128 413 L 141 407 C 139.66666666667 393 138.66666666667 369 138 335 C 137.33333333333 301 137 262.66666666667 137 220 L 137 161 Z"/>
    <path fill="#000000" stroke="none" transform="matrix(1 0 0 -1 9571 1227)" d="M 42 27 L 48 82 L 75 85 L 81 81 C 90.33333333333 47 115.66666666667 30 157 30 C 181 30 200.33333333333 35.66666666667 215 47 C 229.66666666667 57.66666666667 237 72.66666666667 237 92 C 237 108 232.33333333333 122 223 134 C 213 145.33333333333 192.33333333333 156.66666666667 161 168 C 127 180.66666666667 102 195.66666666667 86 213 C 70 230.33333333333 62 254 62 284 C 62 300 65.66666666667 315.66666666667 73 331 C 79.66666666667 345.66666666667 89.33333333333 358.66666666667 102 370 C 114 381.33333333333 128.33333333333 390.66666666667 145 398 C 161.66666666667 404.66666666667 179.66666666667 408 199 408 C 222.33333333333 408 242 406 258 402 C 274 397.33333333333 288.33333333333 390.33333333333 301 381 L 304 374 L 298 318 L 271 315 L 265 319 C 259.66666666667 335.66666666667 251.66666666667 348.33333333333 241 357 C 230.33333333333 365.66666666667 215 370 195 370 C 177.66666666667 370 162.66666666667 364.66666666667 150 354 C 136.66666666667 343.33333333333 130 329.66666666667 130 313 C 130 293.66666666667 135 279 145 269 C 154.33333333333 259 169.66666666667 250 191 242 C 214.33333333333 233.33333333333 233.66666666667 224.66666666667 249 216 C 263.66666666667 207.33333333333 275.33333333333 198.33333333333 284 189 C 292.66666666667 179.66666666667 298.66666666667 169.66666666667 302 159 C 305.33333333333 148.33333333333 307 137 307 125 C 307 102.33333333333 302.66666666667 82.66666666667 294 66 C 284.66666666667 48.66666666667 272.66666666667 34.66666666667 258 24 C 242.66666666667 13.33333333333 225.33333333333 5.33333333333 206 0 C 186 -5.33333333333 165.66666666667 -8 145 -8 C 126.33333333333 -8 108.66666666667 -5.66666666667 92 -1 C 75.33333333333 3 59.66666666667 10 45 20 L 42 27 Z"/>
    <path fill="#000000" stroke="none" transform="matrix(1 0 0 -1 9921 1227)" d="M 75 303 L 70 354 L 73 361 C 89.66666666667 376.33333333333 108.66666666667 388 130 396 C 151.33333333333 404 177.33333333333 408 208 408 C 256 408 288.66666666667 397.33333333333 306 376 C 322.66666666667 354.66666666667 330.33333333333 324.66666666667 329 286 C 328.33333333333 272 328 259.33333333333 328 248 C 327.33333333333 236 327 224 327 212 C 326.33333333333 200 326 187.66666666667 326 175 C 326 161.66666666667 326 146.66666666667 326 130 C 326 111.33333333333 326.66666666667 96.33333333333 328 85 C 329.33333333333 73 331.33333333333 63.66666666667 334 57 C 336.66666666667 50.33333333333 340 46 344 44 C 348 41.33333333333 352.33333333333 40 357 40 C 361.66666666667 40 366.33333333333 40.66666666667 371 42 C 375 42.66666666667 381.33333333333 44.66666666667 390 48 L 399 24 C 384.33333333333 13.33333333333 369.66666666667 5.33333333333 355 0 C 339.66666666667 -5.33333333333 325.66666666667 -8 313 -8 C 298.33333333333 -8 286.66666666667 -4.33333333333 278 3 C 268.66666666667 10.33333333333 262.33333333333 22.66666666667 259 40 C 246.33333333333 26.66666666667 231.33333333333 15.33333333333 214 6 C 196 -3.33333333333 174.33333333333 -8 149 -8 C 135.66666666667 -8 123 -5.33333333333 111 0 C 98.33333333333 5.33333333333 87.33333333333 13 78 23 C 68 33 60.33333333333 45.33333333333 55 60 C 49 74 46 90.33333333333 46 109 C 46 127 51.66666666667 143.33333333333 63 158 C 73.66666666667 172 91 181.66666666667 115 187 C 141 193 166 199.66666666667 190 207 C 213.33333333333 214.33333333333 234.66666666667 221.66666666667 254 229 C 255.33333333333 236.33333333333 256.33333333333 245 257 255 C 257 265 257 274 257 282 C 257 294.66666666667 256.33333333333 306.33333333333 255 317 C 253.66666666667 327 250.66666666667 336 246 344 C 241.33333333333 351.33333333333 235 357.33333333333 227 362 C 219 366 208.33333333333 368 195 368 C 171.66666666667 368 153 362.66666666667 139 352 C 124.33333333333 340.66666666667 114.33333333333 325 109 305 L 103 301 L 75 303 Z M 189 42 C 200.33333333333 42 210.33333333333 45 219 51 C 227 56.33333333333 234 63.66666666667 240 73 C 245.33333333333 80.33333333333 249.66666666667 89 253 99 C 255.66666666667 108.33333333333 256.66666666667 119.66666666667 256 133 C 256 139.66666666667 256 144.66666666667 256 148 C 255.33333333333 151.33333333333 255 154.33333333333 255 157 C 255 159.66666666667 255 163 255 167 C 255 170.33333333333 255 175.33333333333 255 182 C 237.66666666667 179.33333333333 220.66666666667 176 204 172 C 187.33333333333 168 172 163.33333333333 158 158 C 147.33333333333 153.33333333333 140 147.33333333333 136 140 C 131.33333333333 132 129 124 129 116 C 129 92 134.66666666667 73.66666666667 146 61 C 156.66666666667 48.33333333333 171 42 189 42 Z"/>
    <path fill="#000000" stroke="none" transform="matrix(1 0 0 -1 10336 1227)" d="M 74 5 C 75.33333333333 8.33333333333 76.33333333333 12.66666666667 77 18 C 77 23.33333333333 77.33333333333 29 78 35 C 79.33333333333 65 80.33333333333 97.66666666667 81 133 C 81 168.33333333333 81 201.66666666667 81 233 C 81 257.66666666667 81 276.33333333333 81 289 C 81 301.66666666667 80.66666666667 311.66666666667 80 319 C 78.66666666667 335.66666666667 77.33333333333 348 76 356 C 74 364 70.33333333333 371 65 377 L 69 393 L 144 413 L 157 407 C 155.66666666667 393 154.66666666667 369 154 335 C 153.33333333333 301 153 262.66666666667 153 220 C 153 198.66666666667 153 180 153 164 C 153 147.33333333333 153.33333333333 132 154 118 C 154 104 154.33333333333 90.33333333333 155 77 C 155 63.66666666667 155.33333333333 49.66666666667 156 35 C 156 29 156.33333333333 23.33333333333 157 18 C 157.66666666667 12.66666666667 158.66666666667 8.33333333333 160 5 L 156 -1 C 150.66666666667 -0.33333333333 144.66666666667 0 138 0 C 131.33333333333 0 124.33333333333 0 117 0 C 109.66666666667 0 102.66666666667 0 96 0 C 89.33333333333 0 83.33333333333 -0.33333333333 78 -1 L 74 5 Z M 69 532 C 69 545.33333333333 73.33333333333 556.66666666667 82 566 C 90.66666666667 574.66666666667 101.66666666667 579 115 579 C 127.66666666667 579 138.33333333333 575 147 567 C 155 558.33333333333 159 548 159 536 C 159 522.66666666667 154.66666666667 511.66666666667 146 503 C 136.66666666667 493.66666666667 125.33333333333 489 112 489 C 100 489 90 493 82 501 C 73.33333333333 509 69 519.33333333333 69 532 Z"/>
    <path fill="#000000" stroke="none" transform="matrix(1 0 0 -1 10567 1227)" d="M 197 -10 C 189.66666666667 10.66666666667 179.66666666667 36.33333333333 167 67 C 154.33333333333 97 140.66666666667 128.66666666667 126 162 C 110.66666666667 194.66666666667 95.33333333333 227.66666666667 80 261 C 64.66666666667 293.66666666667 50.33333333333 322.66666666667 37 348 C 31 359.33333333333 25.33333333333 367.33333333333 20 372 C 14.66666666667 376 8.33333333333 380 1 384 L 3 402 C 13 400.66666666667 23 400 33 400 C 43 400 52.66666666667 400 62 400 L 113 400 L 118 396 C 124.66666666667 374.66666666667 132.66666666667 351.66666666667 142 327 C 151.33333333333 302.33333333333 161 278 171 254 C 181 229.33333333333 191.33333333333 205.66666666667 202 183 C 212 160.33333333333 221.66666666667 140 231 122 L 235 122 C 260.33333333333 173.33333333333 282.33333333333 223 301 271 C 319.66666666667 318.33333333333 335 359.66666666667 347 395 L 352 400 L 385 400 C 389.66666666667 400 394.66666666667 400 400 400 C 405.33333333333 400 410.33333333333 400.66666666667 415 402 L 419 386 C 411 382.66666666667 404.66666666667 378.66666666667 400 374 C 395.33333333333 368.66666666667 389.66666666667 360 383 348 C 374.33333333333 331.33333333333 363.33333333333 308.33333333333 350 279 C 336 249.66666666667 321.66666666667 218 307 184 C 291.66666666667 150 277 116 263 82 C 248.33333333333 47.33333333333 236 16.66666666667 226 -10 L 222 -14 L 202 -14 L 197 -10 Z"/>
    <path fill="#000000" stroke="none" transform="matrix(1 0 0 -1 10980 1227)" d="M 39 190 C 39 223.33333333333 44 253.33333333333 54 280 C 63.33333333333 306.66666666667 77 329.66666666667 95 349 C 112.33333333333 367.66666666667 133.33333333333 382.33333333333 158 393 C 182.66666666667 403 210 408 240 408 C 273.33333333333 408 303 402.66666666667 329 392 C 354.33333333333 380.66666666667 375.66666666667 365.66666666667 393 347 C 410.33333333333 328.33333333333 423.33333333333 307.33333333333 432 284 C 440.66666666667 260 445 235.33333333333 445 210 C 445 175.33333333333 439.66666666667 144.66666666667 429 118 C 418.33333333333 90.66666666667 403.66666666667 67.66666666667 385 49 C 366.33333333333 30.33333333333 344.66666666667 16.33333333333 320 7 C 294.66666666667 -3 268 -8 240 -8 C 210.66666666667 -8 183.66666666667 -3.33333333333 159 6 C 134.33333333333 15.33333333333 113.33333333333 28.66666666667 96 46 C 78 63.33333333333 64 84.33333333333 54 109 C 44 133 39 160 39 190 Z M 122 222 C 122 161.33333333333 133.66666666667 114.66666666667 157 82 C 179.66666666667 48.66666666667 209.33333333333 32 246 32 C 281.33333333333 32 309.66666666667 45.66666666667 331 73 C 351.66666666667 99.66666666667 362 136.66666666667 362 184 C 362 210.66666666667 359.33333333333 235.33333333333 354 258 C 348 280 339.66666666667 299.33333333333 329 316 C 318.33333333333 332 305 344.66666666667 289 354 C 273 363.33333333333 254.66666666667 368 234 368 C 197.33333333333 368 169.66666666667 355.66666666667 151 331 C 131.66666666667 306.33333333333 122 270 122 222 Z"/>
    <path fill="#000000" stroke="none" transform="matrix(1 0 0 -1 11651 1227)" d="M 51 -246 C 59 -236.66666666667 66.33333333333 -227 73 -217 C 79.66666666667 -207 88 -193 98 -175 C 107.33333333333 -157 119 -133.33333333333 133 -104 C 146.33333333333 -74.66666666667 163.66666666667 -35.66666666667 185 13 C 177.66666666667 33.66666666667 169.66666666667 55 161 77 C 151.66666666667 98.33333333333 141 122.33333333333 129 149 C 117 175.66666666667 103.33333333333 205.33333333333 88 238 C 72.66666666667 270 54.66666666667 306.66666666667 34 348 C 28.66666666667 358 23.33333333333 365.66666666667 18 371 C 12 375.66666666667 5.33333333333 380 -2 384 L 0 402 C 10 400.66666666667 20 400 30 400 C 40 400 49.66666666667 400 59 400 L 110 400 L 115 396 C 121.66666666667 374.66666666667 129.66666666667 351.66666666667 139 327 C 148.33333333333 302.33333333333 158 278 168 254 C 178 229.33333333333 188.33333333333 205.66666666667 199 183 C 209 160.33333333333 218.66666666667 140 228 122 L 232 122 C 257.33333333333 173.33333333333 279.33333333333 223 298 271 C 316.66666666667 318.33333333333 332 359.66666666667 344 395 L 349 400 L 382 400 C 386.66666666667 400 391.66666666667 400 397 400 C 402.33333333333 400 407.33333333333 400.66666666667 412 402 L 416 386 C 408 382.66666666667 401.66666666667 378.66666666667 397 374 C 392.33333333333 368.66666666667 386.66666666667 360 380 348 C 371.33333333333 331.33333333333 362.66666666667 313.66666666667 354 295 C 344.66666666667 276.33333333333 334.33333333333 254 323 228 C 311 201.33333333333 297.33333333333 169.66666666667 282 133 C 266 95.66666666667 247 50.33333333333 225 -3 C 209.66666666667 -39.66666666667 197.33333333333 -69.33333333333 188 -92 C 178.66666666667 -114.66666666667 170.66666666667 -134.33333333333 164 -151 C 157.33333333333 -167.66666666667 151.33333333333 -182.66666666667 146 -196 C 140.66666666667 -210 134.33333333333 -226.33333333333 127 -245 L 122 -250 C 112.66666666667 -251.33333333333 101.66666666667 -252.66666666667 89 -254 C 75.66666666667 -256 65.66666666667 -258 59 -260 L 51 -246 Z"/>
    <path fill="#000000" stroke="none" transform="matrix(1 0 0 -1 12061 1227)" d="M 359 -248 C 360.33333333333 -244.66666666667 361.33333333333 -240.33333333333 362 -235 C 362 -229.66666666667 362.33333333333 -224 363 -218 C 363.66666666667 -208 364 -200.66666666667 364 -196 C 364 -191.33333333333 364.33333333333 -186.33333333333 365 -181 C 365 -176.33333333333 365.33333333333 -170 366 -162 C 366 -154.66666666667 366 -143.33333333333 366 -128 C 366 -112.66666666667 366 -91.66666666667 366 -65 C 366 -39 366 -5 366 37 C 350 23.66666666667 331.33333333333 13 310 5 C 288 -3.66666666667 263.33333333333 -8 236 -8 C 174 -8 126 8.66666666667 92 42 C 58 75.33333333333 41 120.33333333333 41 177 C 41 211.66666666667 47.33333333333 243.33333333333 60 272 C 72.66666666667 300 89.66666666667 324.33333333333 111 345 C 131.66666666667 365 156 380.66666666667 184 392 C 212 402.66666666667 241.33333333333 408 272 408 C 284.66666666667 408 297 407.33333333333 309 406 C 320.33333333333 404 332.33333333333 401 345 397 C 361 391 375.33333333333 388 388 388 C 398.66666666667 388 412.33333333333 392.66666666667 429 402 L 443 395 C 441.66666666667 391.66666666667 440.66666666667 388 440 384 C 439.33333333333 379.33333333333 439 374 439 368 C 438.33333333333 353.33333333333 438 338.66666666667 438 324 C 437.33333333333 309.33333333333 437 291.66666666667 437 271 C 437 249.66666666667 437 223.66666666667 437 193 C 437 162.33333333333 437 123.66666666667 437 77 C 437 30.33333333333 437.33333333333 -8.33333333333 438 -39 C 438 -70.33333333333 438.33333333333 -96.66666666667 439 -118 C 439 -139.33333333333 439.33333333333 -157.66666666667 440 -173 C 440 -188.33333333333 440.33333333333 -203.33333333333 441 -218 C 441 -224 441.33333333333 -229.66666666667 442 -235 C 442.66666666667 -240.33333333333 443.66666666667 -244.66666666667 445 -248 L 441 -254 C 435.66666666667 -253.33333333333 429.66666666667 -253 423 -253 C 416.33333333333 -253 409.33333333333 -253 402 -253 C 394.66666666667 -253 387.66666666667 -253 381 -253 C 374.33333333333 -253 368.33333333333 -253.33333333333 363 -254 L 359 -248 Z M 257 39 C 276.33333333333 39 294.33333333333 42.66666666667 311 50 C 327.66666666667 57.33333333333 341.33333333333 66.33333333333 352 77 C 358 83 362 89.66666666667 364 97 C 365.33333333333 104.33333333333 366 113.66666666667 366 125 L 366 266 C 366 298 357 323 339 341 C 321 359 295 368 261 368 C 240.33333333333 368 221.33333333333 364.33333333333 204 357 C 186.66666666667 349 172 338 160 324 C 148 310 138.66666666667 293.66666666667 132 275 C 125.33333333333 255.66666666667 122 235 122 213 C 122 183.66666666667 125.66666666667 158 133 136 C 140.33333333333 114 150.33333333333 96 163 82 C 175 67.33333333333 189.33333333333 56.66666666667 206 50 C 222 42.66666666667 239 39 257 39 Z"/>
    <path fill="#000000" stroke="none" transform="matrix(1 0 0 -1 12568 1227)" d="M 69 5 C 70.33333333333 11 71.66666666667 20 73 32 C 73.66666666667 46.66666666667 74.33333333333 61 75 75 C 75 88.33333333333 75 107 75 131 C 75 155 75 187.66666666667 75 229 C 75 269.66666666667 75 324.33333333333 75 393 C 75 409 75 428 75 450 C 75 472 75 493.66666666667 75 515 C 74.33333333333 536.33333333333 74 555.33333333333 74 572 C 73.33333333333 588 73 598 73 602 C 71.66666666667 620.66666666667 70 635.66666666667 68 647 C 65.33333333333 657.66666666667 62 665.66666666667 58 671 L 62 687 L 138 707 L 151 701 C 149.66666666667 690.33333333333 148.66666666667 679 148 667 C 147.33333333333 655 147 637.33333333333 147 614 C 146.33333333333 590.66666666667 146 559.33333333333 146 520 C 146 480.66666666667 146 428.33333333333 146 363 C 162 376.33333333333 181 387.33333333333 203 396 C 224.33333333333 404 248.66666666667 408 276 408 C 337.33333333333 408 385.33333333333 391.33333333333 420 358 C 454 324.66666666667 471 279.66666666667 471 223 C 471 188.33333333333 464.66666666667 156.66666666667 452 128 C 439.33333333333 99.33333333333 422.33333333333 75 401 55 C 379.66666666667 35 355.33333333333 19.66666666667 328 9 C 300 -2.33333333333 270.66666666667 -8 240 -8 C 227.33333333333 -8 215 -7 203 -5 C 191 -3.66666666667 179 -1 167 3 C 159 5.66666666667 151.66666666667 8 145 10 C 138.33333333333 11.33333333333 131.33333333333 12 124 12 C 113.33333333333 12 99.66666666667 7.33333333333 83 -2 L 69 5 Z M 146 134 C 146 102 155 77 173 59 C 190.33333333333 41 216.33333333333 32 251 32 C 272.33333333333 32 291.66666666667 36 309 44 C 325.66666666667 51.33333333333 340 62 352 76 C 364 89.33333333333 373.33333333333 105.66666666667 380 125 C 386.66666666667 143.66666666667 390 164.33333333333 390 187 C 390 216.33333333333 386.33333333333 242 379 264 C 371.66666666667 286 362 304.33333333333 350 319 C 337.33333333333 333 323 343.66666666667 307 351 C 290.33333333333 357.66666666667 273 361 255 361 C 235.66666666667 361 217.66666666667 357.33333333333 201 350 C 184.33333333333 342.66666666667 170.66666666667 333.66666666667 160 323 C 154 317 150.33333333333 310.33333333333 149 303 C 147 295.66666666667 146 286.33333333333 146 275 L 146 134 Z"/>
    <path fill="#000000" stroke="none" transform="matrix(1 0 0 -1 13078 1227)" d="M 71 -248 C 72.33333333333 -244.66666666667 73.33333333333 -240.33333333333 74 -235 C 74 -229.66666666667 74.33333333333 -224 75 -218 C 75.66666666667 -203.33333333333 76.33333333333 -187 77 -169 C 77 -151.66666666667 77.33333333333 -132 78 -110 C 78 -88 78 -63 78 -35 C 78 -7.66666666667 78 23.33333333333 78 58 C 78 113.33333333333 78 157.33333333333 78 190 C 78 222 78 247 78 265 C 78 283 78 295.66666666667 78 303 C 77.33333333333 309.66666666667 77 315 77 319 C 75.66666666667 335.66666666667 74.33333333333 348 73 356 C 71 364 67.33333333333 371 62 377 L 66 393 L 139 413 L 152 407 C 150.66666666667 399.66666666667 150 393 150 387 C 149.33333333333 380.33333333333 149 372.33333333333 149 363 C 165 376.33333333333 184 387.33333333333 206 396 C 227.33333333333 404 251.66666666667 408 279 408 C 340.33333333333 408 388.33333333333 391.33333333333 423 358 C 457 324.66666666667 474 279.66666666667 474 223 C 474 188.33333333333 467.66666666667 156.66666666667 455 128 C 442.33333333333 99.33333333333 425.33333333333 75 404 55 C 382.66666666667 35 358.33333333333 19.66666666667 331 9 C 303 -2.33333333333 273.66666666667 -8 243 -8 C 227.66666666667 -8 211.66666666667 -6.66666666667 195 -4 C 177.66666666667 -1.33333333333 162.33333333333 2.33333333333 149 7 C 149 -42.33333333333 149.33333333333 -84.66666666667 150 -120 C 150.66666666667 -155.33333333333 151.66666666667 -188 153 -218 C 153 -224 153.33333333333 -229.66666666667 154 -235 C 154.66666666667 -240.33333333333 155.66666666667 -244.66666666667 157 -248 L 153 -254 C 147.66666666667 -253.33333333333 141.66666666667 -253 135 -253 C 128.33333333333 -253 121.33333333333 -253 114 -253 C 106.66666666667 -253 99.66666666667 -253 93 -253 C 86.33333333333 -253 80.33333333333 -253.33333333333 75 -254 L 71 -248 Z M 149 134 C 149 102 158 77 176 59 C 193.33333333333 41 219.33333333333 32 254 32 C 275.33333333333 32 294.66666666667 36 312 44 C 328.66666666667 51.33333333333 343 62 355 76 C 367 89.33333333333 376.33333333333 105.66666666667 383 125 C 389.66666666667 143.66666666667 393 164.33333333333 393 187 C 393 216.33333333333 389.33333333333 242 382 264 C 374.66666666667 286 365 304.33333333333 353 319 C 340.33333333333 333 326 343.66666666667 310 351 C 293.33333333333 357.66666666667 276 361 258 361 C 238.66666666667 361 220.66666666667 357.33333333333 204 350 C 187.33333333333 342.66666666667 173.66666666667 333.66666666667 163 323 C 157 317 153.33333333333 310.33333333333 152 303 C 150 295.66666666667 149 286.33333333333 149 275 L 149 134 Z"/>
    <path fill="#000000" stroke="none" transform="matrix(1 0 0 -1 13593 1227)" d="M 197 -10 C 189.66666666667 10.66666666667 179.66666666667 36.33333333333 167 67 C 154.33333333333 97 140.66666666667 128.66666666667 126 162 C 110.66666666667 194.66666666667 95.33333333333 227.66666666667 80 261 C 64.66666666667 293.66666666667 50.33333333333 322.66666666667 37 348 C 31 359.33333333333 25.33333333333 367.33333333333 20 372 C 14.66666666667 376 8.33333333333 380 1 384 L 3 402 C 13 400.66666666667 23 400 33 400 C 43 400 52.66666666667 400 62 400 L 113 400 L 118 396 C 124.66666666667 374.66666666667 132.66666666667 351.66666666667 142 327 C 151.33333333333 302.33333333333 161 278 171 254 C 181 229.33333333333 191.33333333333 205.66666666667 202 183 C 212 160.33333333333 221.66666666667 140 231 122 L 235 122 C 258.33333333333 174 280 225 300 275 C 319.33333333333 324.33333333333 335.66666666667 369 349 409 L 354 414 L 380 414 L 385 409 C 393 385 402 360.33333333333 412 335 C 421.33333333333 309.66666666667 431 284.66666666667 441 260 C 451 234.66666666667 461.33333333333 210.33333333333 472 187 C 482 163.66666666667 492 142 502 122 L 506 122 C 531.33333333333 173.33333333333 553.33333333333 223 572 271 C 590.66666666667 318.33333333333 606 359.66666666667 618 395 L 623 400 L 656 400 C 660.66666666667 400 665.66666666667 400 671 400 C 676.33333333333 400 681.33333333333 400.66666666667 686 402 L 690 386 C 682 382.66666666667 675.66666666667 378.66666666667 671 374 C 666.33333333333 368.66666666667 660.66666666667 360 654 348 C 645.33333333333 331.33333333333 634.33333333333 308.33333333333 621 279 C 607 249.66666666667 592.66666666667 218 578 184 C 562.66666666667 150 548 116 534 82 C 519.33333333333 47.33333333333 507 16.66666666667 497 -10 L 493 -14 L 473 -14 L 468 -10 C 452.66666666667 31.33333333333 435.33333333333 75.33333333333 416 122 C 396 168 373.33333333333 218 348 272 L 343 272 C 335.66666666667 255.33333333333 327.33333333333 236.33333333333 318 215 C 308.66666666667 193 299 170 289 146 C 278.33333333333 121.33333333333 267.66666666667 96 257 70 C 246.33333333333 43.33333333333 236 16.66666666667 226 -10 L 222 -14 L 202 -14 L 197 -10 Z"/>
    <path fill="#000000" stroke="none" transform="matrix(1 0 0 -1 14277 1227)" d="M 74 5 C 75.33333333333 8.33333333333 76.33333333333 12.66666666667 77 18 C 77 23.33333333333 77.33333333333 29 78 35 C 79.33333333333 65 80.33333333333 97.66666666667 81 133 C 81 168.33333333333 81 201.66666666667 81 233 C 81 257.66666666667 81 276.33333333333 81 289 C 81 301.66666666667 80.66666666667 311.66666666667 80 319 C 78.66666666667 335.66666666667 77.33333333333 348 76 356 C 74 364 70.33333333333 371 65 377 L 69 393 L 144 413 L 157 407 C 155.66666666667 393 154.66666666667 382 154 374 C 153.33333333333 365.33333333333 153 353.66666666667 153 339 C 168.33333333333 359 185.33333333333 375.66666666667 204 389 C 222.66666666667 401.66666666667 245.66666666667 408 273 408 C 316.33333333333 408 350.66666666667 395 376 369 C 400.66666666667 342.33333333333 413 307 413 263 C 413 225 413 194.33333333333 413 171 C 413 147 413 127.66666666667 413 113 C 413 97.66666666667 413.33333333333 85.33333333333 414 76 C 414 66.66666666667 414 58 414 50 C 414 34 418.33333333333 22.66666666667 427 16 L 424 -2 C 418.66666666667 -1.33333333333 411.66666666667 -0.66666666667 403 0 C 393.66666666667 0 386 0 380 0 L 343 0 C 342.33333333333 6 342 11.66666666667 342 17 C 341.33333333333 22.33333333333 341 29 341 37 C 341 45 341 55 341 67 C 341 78.33333333333 341 93.33333333333 341 112 L 341 237 C 341 277 332.66666666667 305.66666666667 316 323 C 298.66666666667 340.33333333333 277.33333333333 349 252 349 C 233.33333333333 349 217.66666666667 345.33333333333 205 338 C 192.33333333333 330 182.33333333333 320 175 308 C 167 296 161.33333333333 282.33333333333 158 267 C 154.66666666667 251.66666666667 153 236 153 220 C 153 156 154 94.33333333333 156 35 C 156 29 156.33333333333 23.33333333333 157 18 C 157.66666666667 12.66666666667 158.66666666667 8.33333333333 160 5 L 156 -1 C 150.66666666667 -0.33333333333 144.66666666667 0 138 0 C 131.33333333333 0 124.33333333333 0 117 0 C 109.66666666667 0 102.66666666667 0 96 0 C 89.33333333333 0 83.33333333333 -0.33333333333 78 -1 L 74 5 Z"/>
</svg>
