<svg width="65961" height="4675" viewBox="0 0 65961 4675" xmlns="http://www.w3.org/2000/svg">
    <defs/>
    <g transform="matrix(1 0 0 -1 0 4675)">
        <g transform="matrix(1 0 0 1 0 1986)">
            <path fill="#000000" stroke="none" d="M 1626 170 Q 1696 170 1734 233 Q 1772 296 1772 417 L 1772 1100 L 1819 1100 Q 1924 1100 1988 1057 Q 2052 1014 2079.5 924.49994 Q 2107 835 2107 635 L 2107 0 L 2027 0 L 2027 626 Q 2027 930 1878 930 L 1852 930 L 1852 465 Q 1852 262 1826 174.5 Q 1800 87 1735.5 43.5 Q 1671 0 1567 0 L 1520 0 L 1520 612 Q 1520 791 1426 869.5 Q 1332 948 1130 948 Q 923 948 831.49994 866.50006 Q 740 785 740 616 L 740 0 L 693 0 Q 590 0 525.5 43 Q 461 86 434.5 174.5 Q 408 263 408 465 L 408 660 Q 408 825 381.5 886.5 Q 355 948 289 948 Q 239 948 211.49998 925 Q 184 902 173 858.5 Q 162 815 160 688 Q 131 680 116 680 L 80 686 Q 80 920 132.5 1019 Q 185 1118 286 1118 Q 387 1118 437.5 1024 Q 488 930 488 653 L 488 417 Q 488 296 526.5 233 Q 565 170 634 170 L 660 170 L 660 616 Q 660 860 779 989 Q 898 1118 1129 1118 Q 1355 1118 1477.5 994.50006 Q 1600 871 1600 615 L 1600 170 L 1626 170 Z M 1235 -51 L 1193 222 Q 1168 387 1135.5 448.5 Q 1103 510 1048 510 Q 1016 510 992.50006 486 Q 969 462 958 418 L 895 438 Q 910 539 960 609.5 Q 1010 680 1071 680 Q 1140 680 1185 594.5 Q 1230 509 1262 297 L 1314 -31 L 1235 -51 Z"/>
        </g>
        <g transform="matrix(1 0 0 1 2237 1986)">
            <path fill="#000000" stroke="none" d="M 1443 0 L 1443 626 Q 1443 930 1294 930 L 1268 930 L 1268 482 Q 1268 237 1160.5 108.5 Q 1053 -20 839 -20 Q 624 -20 516 103.5 Q 408 227 408 464 L 408 660 Q 408 825 381.5 886.5 Q 355 948 289 948 Q 239 948 211.49998 925 Q 184 902 173 858.5 Q 162 815 160 688 Q 131 680 116 680 L 80 686 Q 80 920 132.5 1019 Q 185 1118 286 1118 Q 387 1118 437.5 1024 Q 488 930 488 653 L 488 486 Q 488 306 570 228 Q 652 150 838 150 Q 1025 150 1106.5 231 Q 1188 312 1188 482 L 1188 1100 L 1235 1100 Q 1340 1100 1404 1057 Q 1468 1014 1495.5001 924.49994 Q 1523 835 1523 635 L 1523 0 L 1443 0 Z M 990 -217 Q 931 -180 833 -180 Q 773 -180 732 -199 Q 691 -218 691 -250 Q 691 -298 828.49994 -327.5 Q 966 -357 1043 -406.49997 Q 1120 -456 1120 -544 Q 1120 -640 1045.5 -705 Q 971 -770 856 -770 Q 747 -770 638 -701 Q 529 -632 498 -541 L 536 -515 Q 563 -557 657.5 -589 Q 752 -621 836 -621 Q 914 -621 974.5 -596 Q 1035 -571 1035 -530 Q 1035 -490 991.49994 -463 Q 948 -436 821 -408 Q 694 -380 650 -346 Q 606 -312 606 -263 Q 606 -192 672.5 -146 Q 739 -100 838 -100 Q 905 -100 948.5 -113 Q 992 -126 1029 -146 L 990 -217 Z"/>
        </g>
        <g transform="matrix(1 0 0 1 3890 1986)">
            <path fill="#000000" stroke="none" d="M 1270 420 Q 1267 191 1205.5 85.5 Q 1144 -20 1026 -20 Q 892 -20 761 164.5 Q 630 349 537 386 L 537 372 Q 537 168 481 74 Q 425 -20 314 -20 Q 237 -20 188 40.5 Q 139 101 139 189 Q 139 352 228 456.50003 Q 317 561 457 569 L 457 660 Q 457 805 421.5 876.5 Q 386 948 309 948 Q 236 948 199.5 898.50006 Q 163 849 160 688 Q 131 680 116 680 L 80 686 Q 80 916 139.5 1017 Q 199 1118 320 1118 Q 425 1118 481 1021 Q 537 924 537 653 L 537 563 Q 617 545 694 479.5 Q 771 414 869.5 282 Q 968 150 1023 150 Q 1105 150 1146 216.5 Q 1187 283 1190 450 L 1190 535 Q 1190 702 1108.5 816 Q 1027 930 882 930 Q 969 1118 1159 1118 Q 1326 1118 1411.5 995.50006 Q 1497 873 1497 635 L 1497 0 L 1417 0 L 1417 626 Q 1417 777 1361 862.49994 Q 1305 948 1196 948 Q 1150 948 1117 934 Q 1195 870 1232.5 783 Q 1270 696 1270 559 L 1270 420 Z M 457 365 L 457 399 Q 229 394 229 200 Q 229 80 318 80 Q 457 80 457 365 Z"/>
        </g>
        <g transform="matrix(1 0 0 1 5517 1986)">
            <path fill="#000000" stroke="none" d="M 2090 -432 Q 2035 -469 1958 -488.50003 Q 1881 -508 1808 -508 L 1757 -507 Q 1692 -817 1580 -1120 L 1500 -1100 L 1510 -1068 Q 1506 -1001 1408.5 -951 Q 1311 -901 1060 -844 Q 809 -787 668.5 -733.49994 Q 528 -680 454 -604 Q 380 -528 380 -428 Q 380 -308 482 -224 Q 584 -140 743 -140 Q 951 -140 1236 -257.5 Q 1521 -375 1677 -398 Q 1740 -45 1740 258 Q 1740 948 1470 948 Q 1385 948 1324.5 890 Q 1264 832 1255 733 L 1186 733 Q 1186 817 1121.5 882.5 Q 1057 948 971 948 Q 845 948 792.5 868 Q 740 788 740 616 L 740 0 L 693 0 Q 590 0 525.5 43 Q 461 86 434.5 174.5 Q 408 263 408 465 L 408 660 Q 408 825 381.5 886.5 Q 355 948 289 948 Q 239 948 211.49998 925 Q 184 902 173 858.5 Q 162 815 160 688 Q 131 680 116 680 L 80 686 Q 80 920 132.5 1019 Q 185 1118 286 1118 Q 387 1118 437.5 1024 Q 488 930 488 653 L 488 417 Q 488 296 526.5 233 Q 565 170 634 170 L 660 170 L 660 616 Q 660 890 732 1004 Q 804 1118 971 1118 Q 1154 1118 1220 912 Q 1287 1118 1470 1118 Q 1649 1118 1744.5 900.5 Q 1840 683 1840 268 Q 1840 -68 1777 -407 L 1798 -408 Q 1972 -408 2057 -361 L 2090 -432 Z M 1551 -935 Q 1620 -697 1659 -499 Q 1466 -477 1158 -383.5 Q 850 -290 681 -290 Q 480 -290 480 -432 Q 480 -531 614 -606 Q 748 -681 1111.5 -763.5 Q 1475 -846 1551 -935 Z"/>
        </g>
        <g transform="matrix(1 0 0 1 7457 1986)">
            <path fill="#000000" stroke="none" d="M 0 850 Q 59 975 164 1046.5 Q 269 1118 388 1118 Q 583 1118 699.5 988 Q 816 858 816 658 Q 816 439 713 308.5 Q 610 178 437 178 Q 372 178 320 215 Q 268 252 268 307 Q 268 432 377 523 L 444 472 Q 401 429 401 377 Q 401 334 427 312.5 Q 453 291 493 291 Q 586 291 651 395 Q 716 499 716 651 Q 716 790 629 874 Q 542 958 391 958 Q 280 958 197 918 Q 114 878 74 804 L 0 850 Z"/>
        </g>
        <g transform="matrix(1 0 0 1 8373 1986)">
            <path fill="#000000" stroke="none" d="M 2065 0 L 2065 626 Q 2065 930 1916 930 L 1890 930 L 1890 221 Q 1890 110 1846 45 Q 1802 -20 1726 -20 Q 1631 -20 1585.5 63 Q 1540 146 1540 372 L 1540 612 Q 1540 790 1442.5 869 Q 1345 948 1141 948 Q 935 948 832 862 Q 729 776 729 612 L 729 608 Q 1017 593 1179 488.50003 Q 1341 384 1341 203 Q 1341 100 1267.5 40 Q 1194 -20 1069 -20 Q 916 -20 782.5 101 Q 649 222 649 413 L 649 440 L 537 435 L 537 372 Q 537 168 481 74 Q 425 -20 314 -20 Q 237 -20 188 40.5 Q 139 101 139 189 Q 139 333 223.5 438 Q 308 543 457 586 L 457 660 Q 457 805 421.5 876.5 Q 386 948 309 948 Q 236 948 199.5 898.50006 Q 163 849 160 688 Q 131 680 116 680 L 80 686 Q 80 916 139.5 1017 Q 199 1118 320 1118 Q 425 1118 481 1021 Q 537 924 537 653 L 537 603 Q 565 607 649 610 L 649 654 Q 649 873 779.5 995.50006 Q 910 1118 1138 1118 Q 1375 1118 1497.5 989 Q 1620 860 1620 615 L 1620 365 Q 1620 231 1642.4999 180.50002 Q 1665 130 1729 130 Q 1767 130 1788.5 174 Q 1810 218 1810 283 L 1810 1100 L 1857 1100 Q 1962 1100 2026 1057 Q 2090 1014 2117.5 924.49994 Q 2145 835 2145 635 L 2145 0 L 2065 0 Z M 729 407 Q 729 251 840 165.5 Q 951 80 1080 80 Q 1149 80 1195 105 Q 1241 130 1241 174 Q 1241 280 1099.5 351 Q 958 422 729 437 L 729 407 Z M 457 421 Q 345 394 287 336.5 Q 229 279 229 200 Q 229 80 318 80 Q 457 80 457 365 L 457 421 Z"/>
        </g>
        <g transform="matrix(1 0 0 1 10648 1986)">
            <path fill="#000000" stroke="none" d="M 2295 0 L 2295 626 Q 2295 930 2146 930 L 2120 930 L 2120 482 Q 2120 237 2012.5 108.5 Q 1905 -20 1691 -20 Q 1476 -20 1368 103.5 Q 1260 227 1260 464 L 1260 612 Q 1260 804 1202 876 Q 1144 948 1000 948 Q 889 948 837 919 Q 785 890 762.5 822.5 Q 740 755 740 616 L 740 339 Q 740 142 703.49994 61 Q 667 -20 584 -20 Q 495 -20 451.5 50.5 Q 408 121 408 323 L 408 660 Q 408 825 381.5 886.5 Q 355 948 289 948 Q 239 948 211.49998 925 Q 184 902 173 858.5 Q 162 815 160 688 Q 131 680 116 680 L 80 686 Q 80 920 132.5 1019 Q 185 1118 286 1118 Q 387 1118 437.5 1024 Q 488 930 488 653 L 488 365 Q 488 220 508 175 Q 528 130 587 130 Q 660 130 660 341 L 660 616 Q 660 891 738 1004.5 Q 816 1118 999 1118 Q 1183 1118 1261.5 1003.5 Q 1340 889 1340 615 L 1340 486 Q 1340 306 1422 228 Q 1504 150 1690 150 Q 1877 150 1958.5 231 Q 2040 312 2040 482 L 2040 1100 L 2087 1100 Q 2192 1100 2256 1057 Q 2320 1014 2347.5 924.49994 Q 2375 835 2375 635 L 2375 0 L 2295 0 Z"/>
        </g>
        <g transform="matrix(1 0 0 1 13683 1986)">
            <path fill="#000000" stroke="none" d="M 788 770 L 788 383 L 856 300 Q 916 218 954 184 Q 992 150 1023 150 Q 1105 150 1147.5 218.5 Q 1190 287 1190 475 L 1190 1100 L 1237 1100 Q 1342 1100 1406 1057 Q 1470 1014 1497.5 924.49994 Q 1525 835 1525 635 L 1525 0 L 1445 0 L 1445 626 Q 1445 930 1296 930 L 1270 930 L 1270 427 Q 1270 -20 1026 -20 Q 969 -20 914.5 11 Q 860 42 788 129 L 788 -4 Q 788 -159 875 -254.5 Q 962 -350 1107 -350 Q 1252 -350 1338 -288 Q 1424 -226 1441 -110 L 1507 -130 Q 1485 -319 1381.5 -419.5 Q 1278 -520 1107 -520 Q 922 -520 815 -384 Q 708 -248 708 -15 L 708 232 Q 614 354 537 386 L 537 372 Q 537 168 481 74 Q 425 -20 314 -20 Q 237 -20 188 40.5 Q 139 101 139 189 Q 139 352 228 456.50003 Q 317 561 457 569 L 457 660 Q 457 805 421.5 876.5 Q 386 948 309 948 Q 236 948 199.5 898.50006 Q 163 849 160 688 Q 131 680 116 680 L 80 686 Q 80 916 139.5 1017 Q 199 1118 320 1118 Q 425 1118 481 1021 Q 537 924 537 653 L 537 563 Q 624 543 708 466 L 708 770 L 788 770 Z M 457 365 L 457 399 Q 229 394 229 200 Q 229 80 318 80 Q 457 80 457 365 Z"/>
        </g>
        <g transform="matrix(1 0 0 1 15338 1986)">
            <path fill="#000000" stroke="none" d="M 1324 -1118 L 1324 -826 Q 1324 -649 1231.5 -568.5 Q 1139 -488 934 -488 Q 728 -488 636 -570 Q 544 -652 544 -822 L 544 -1118 L 497 -1118 Q 325 -1118 227.49998 -1001.5 Q 130 -885 130 -676 Q 130 -500 236.50002 -330.5 Q 343 -161 620 73 Q 897 307 989.49994 446 Q 1082 585 1082 721 Q 1082 828 1024 888 Q 966 948 870 948 Q 766 948 706 880.5 Q 646 813 644 688 Q 615 680 600 680 L 564 686 Q 564 883 642.5 1000.5 Q 721 1118 867 1118 Q 1010 1118 1096 1009.5 Q 1182 901 1182 714 Q 1182 552 1115 402.5 Q 1048 253 910.5 114 Q 773 -25 583 -176 Q 393 -327 311.5 -447 Q 230 -567 230 -681 Q 230 -795 296.5 -871.5 Q 363 -948 438 -948 L 464 -948 L 464 -822 Q 464 -577 583.5 -447.5 Q 703 -318 933 -318 Q 1159 -318 1281.5 -442.5 Q 1404 -567 1404 -823 L 1404 -1118 L 1324 -1118 Z"/>
        </g>
        <g transform="matrix(1 0 0 1 16872 1986)">
            <path fill="#000000" stroke="none" d="M 408 660 Q 408 825 381.5 886.5 Q 355 948 289 948 Q 239 948 211.49998 925 Q 184 902 173 858.5 Q 162 815 160 688 Q 131 680 116 680 L 80 686 Q 80 920 132.5 1019 Q 185 1118 286 1118 Q 387 1118 437.5 1024 Q 488 930 488 653 L 488 482 Q 488 303 531.5 226.5 Q 575 150 679 150 Q 748 150 791 188 Q 834 226 872.5 295.5 Q 911 365 968 365 Q 1041 365 1100.5 257.5 Q 1160 150 1258 150 Q 1362 150 1405 226.5 Q 1448 303 1448 482 L 1448 535 Q 1448 702 1366.5 816 Q 1285 930 1140 930 Q 1227 1118 1417 1118 Q 1584 1118 1669.5 995.50006 Q 1755 873 1755 635 L 1755 0 L 1675 0 L 1675 626 Q 1675 777 1619 862.49994 Q 1563 948 1454 948 Q 1408 948 1375 934 Q 1453 870 1490.5 783 Q 1528 696 1528 559 L 1528 482 Q 1528 210 1469.5 95 Q 1411 -20 1278 -20 Q 1178 -20 1116 83 Q 1054 186 968 186 Q 881 186 820.5 83 Q 760 -20 659 -20 Q 524 -20 466 98 Q 408 216 408 482 L 408 660 Z"/>
        </g>
        <g transform="matrix(1 0 0 1 18757 1986)">
            <path fill="#000000" stroke="none" d="M 137 471 Q 100 588 100 702 Q 100 905 284.5 1011.5 Q 469 1118 803 1118 Q 951 1118 1053 1088 L 1037 934 Q 953 948 803 948 Q 631 948 537.5 905.5 Q 444 863 444 787 Q 444 705 536 655 Q 628 605 775 605 L 889 605 L 889 527 L 775 527 Q 632 527 538 474.5 Q 444 422 444 339 Q 444 251 544.5 200.5 Q 645 150 832 150 Q 1095 150 1189.5 230.5 Q 1284 311 1284 482 L 1284 1100 L 1331 1100 Q 1436 1100 1500 1057 Q 1564 1014 1591.5 924.49994 Q 1619 835 1619 635 L 1619 0 L 1539 0 L 1539 626 Q 1539 930 1390 930 L 1364 930 L 1364 482 Q 1364 -20 835 -20 Q 604 -20 474 72.5 Q 344 165 344 325 Q 344 411 389.5 474 Q 435 537 518 567 Q 344 634 344 801 Q 344 902 416 980 Q 311 939 255.5 870 Q 200 801 200 710 Q 200 601 229 510 L 137 471 Z"/>
        </g>
        <g transform="matrix(1 0 0 1 20506 1986)">
            <path fill="#000000" stroke="none" d="M 1443 0 L 1443 626 Q 1443 930 1294 930 L 1268 930 L 1268 482 Q 1268 237 1160.5 108.5 Q 1053 -20 839 -20 Q 624 -20 516 103.5 Q 408 227 408 464 L 408 660 Q 408 825 381.5 886.5 Q 355 948 289 948 Q 239 948 211.49998 925 Q 184 902 173 858.5 Q 162 815 160 688 Q 131 680 116 680 L 80 686 Q 80 920 132.5 1019 Q 185 1118 286 1118 Q 387 1118 437.5 1024 Q 488 930 488 653 L 488 486 Q 488 306 570 228 Q 652 150 838 150 Q 1025 150 1106.5 231 Q 1188 312 1188 482 L 1188 1100 L 1235 1100 Q 1340 1100 1404 1057 Q 1468 1014 1495.5001 924.49994 Q 1523 835 1523 635 L 1523 0 L 1443 0 Z M 990 -217 Q 931 -180 833 -180 Q 773 -180 732 -199 Q 691 -218 691 -250 Q 691 -298 828.49994 -327.5 Q 966 -357 1043 -406.49997 Q 1120 -456 1120 -544 Q 1120 -640 1045.5 -705 Q 971 -770 856 -770 Q 747 -770 638 -701 Q 529 -632 498 -541 L 536 -515 Q 563 -557 657.5 -589 Q 752 -621 836 -621 Q 914 -621 974.5 -596 Q 1035 -571 1035 -530 Q 1035 -490 991.49994 -463 Q 948 -436 821 -408 Q 694 -380 650 -346 Q 606 -312 606 -263 Q 606 -192 672.5 -146 Q 739 -100 838 -100 Q 905 -100 948.5 -113 Q 992 -126 1029 -146 L 990 -217 Z"/>
        </g>
        <g transform="matrix(1 0 0 1 22159 1986)">
            <path fill="#000000" stroke="none" d="M 0 850 Q 59 975 164 1046.5 Q 269 1118 388 1118 Q 583 1118 699.5 988 Q 816 858 816 658 Q 816 439 713 308.5 Q 610 178 437 178 Q 372 178 320 215 Q 268 252 268 307 Q 268 432 377 523 L 444 472 Q 401 429 401 377 Q 401 334 427 312.5 Q 453 291 493 291 Q 586 291 651 395 Q 716 499 716 651 Q 716 790 629 874 Q 542 958 391 958 Q 280 958 197 918 Q 114 878 74 804 L 0 850 Z"/>
        </g>
        <g transform="matrix(1 0 0 1 23075 1986)">
            <path fill="#000000" stroke="none" d="M 1415 0 L 1415 626 Q 1415 777 1359 862.49994 Q 1303 948 1194 948 Q 1148 948 1115 934 Q 1193 870 1230.5 783 Q 1268 696 1268 559 L 1268 482 Q 1268 237 1160.5 108.5 Q 1053 -20 839 -20 Q 624 -20 516 103.5 Q 408 227 408 464 L 408 660 Q 408 825 381.5 886.5 Q 355 948 289 948 Q 239 948 211.49998 925 Q 184 902 173 858.5 Q 162 815 160 688 Q 131 680 116 680 L 80 686 Q 80 920 132.5 1019 Q 185 1118 286 1118 Q 387 1118 437.5 1024 Q 488 930 488 653 L 488 486 Q 488 306 570 228 Q 652 150 838 150 Q 1025 150 1106.5 231 Q 1188 312 1188 482 L 1188 535 Q 1188 702 1106.5 816 Q 1025 930 880 930 Q 967 1118 1157 1118 Q 1324 1118 1409.5 995.50006 Q 1495 873 1495 635 L 1495 0 L 1415 0 Z"/>
        </g>
        <g transform="matrix(1 0 0 1 25230 1986)">
            <path fill="#000000" stroke="none" d="M 905 503 Q 938 510 962 510 Q 1096 510 1178.5 422.49997 Q 1261 335 1261 189 Q 1261 101 1212 40.5 Q 1163 -20 1086 -20 Q 977 -20 909.5 59 Q 842 138 828 286 Q 782 253 629.5 116.5 Q 477 -20 364 -20 Q 262 -20 191 50 Q 120 120 120 225 Q 120 317 194 405 L 256 361 Q 210 298 210 256 Q 210 208 241 179 Q 272 150 331 150 Q 456 150 595 287 Q 734 424 825 473 L 825 616 Q 825 860 944 989 Q 1063 1118 1294 1118 Q 1520 1118 1642.4999 994.50006 Q 1765 871 1765 615 L 1765 0 L 1685 0 L 1685 612 Q 1685 791 1591 869.5 Q 1497 948 1295 948 Q 1088 948 996.5 866.50006 Q 905 785 905 616 L 905 503 Z M 905 326 Q 908 208 954 144 Q 1000 80 1082 80 Q 1117 80 1144 108.5 Q 1171 137 1171 174 Q 1171 253 1119.5 296 Q 1068 339 977 339 Q 942 339 905 326 Z M 423 560 L 415 659 Q 402 832 376.50003 890 Q 351 948 298 948 Q 228 948 195.49998 902 Q 163 856 160 688 Q 131 680 116 680 L 80 686 Q 80 937 141 1027.5 Q 202 1118 309 1118 Q 388 1118 430 1039.5 Q 472 961 486 759 L 503 565 L 423 560 Z"/>
        </g>
        <g transform="matrix(1 0 0 1 27125 1986)">
            <path fill="#000000" stroke="none" d="M 1528 1100 L 1528 482 Q 1528 210 1469.5 95 Q 1411 -20 1278 -20 Q 1178 -20 1116 83 Q 1054 186 968 186 Q 881 186 820.5 83 Q 760 -20 659 -20 Q 524 -20 466 98 Q 408 216 408 482 L 408 660 Q 408 825 381.5 886.5 Q 355 948 289 948 Q 239 948 211.49998 925 Q 184 902 173 858.5 Q 162 815 160 688 Q 131 680 116 680 L 80 686 Q 80 920 132.5 1019 Q 185 1118 286 1118 Q 387 1118 437.5 1024 Q 488 930 488 653 L 488 482 Q 488 303 531.5 226.5 Q 575 150 679 150 Q 748 150 791 188 Q 834 226 872.5 295.5 Q 911 365 968 365 Q 1041 365 1100.5 257.5 Q 1160 150 1258 150 Q 1362 150 1405 226.5 Q 1448 303 1448 482 L 1448 1100 L 1528 1100 Z"/>
        </g>
        <g transform="matrix(1 0 0 1 28783 1986)">
            <path fill="#000000" stroke="none" d="M 1270 427 Q 1267 191 1206 85.5 Q 1145 -20 1026 -20 Q 892 -20 761 164.5 Q 630 349 537 386 L 537 372 Q 537 168 481 74 Q 425 -20 314 -20 Q 237 -20 188 40.5 Q 139 101 139 189 Q 139 352 228 456.50003 Q 317 561 457 569 L 457 660 Q 457 805 421.5 876.5 Q 386 948 309 948 Q 236 948 199.5 898.50006 Q 163 849 160 688 Q 131 680 116 680 L 80 686 Q 80 916 139.5 1017 Q 199 1118 320 1118 Q 425 1118 481 1021 Q 537 924 537 653 L 537 563 Q 617 545 694 479.5 Q 771 414 869.5 282 Q 968 150 1023 150 Q 1105 150 1147.5 218.5 Q 1190 287 1190 475 L 1190 1100 L 1237 1100 Q 1342 1100 1406 1057 Q 1470 1014 1497.5 924.49994 Q 1525 835 1525 635 L 1525 0 L 1445 0 L 1445 626 Q 1445 930 1296 930 L 1270 930 L 1270 427 Z M 457 365 L 457 399 Q 229 394 229 200 Q 229 80 318 80 Q 457 80 457 365 Z"/>
        </g>
        <g transform="matrix(1 0 0 1 30438 1986)">
            <path fill="#000000" stroke="none" d="M 2784 0 L 2784 626 Q 2784 783 2740 856.5 Q 2696 930 2625 930 L 2579 930 L 2579 410 Q 2579 202 2510.5 91 Q 2442 -20 2313 -20 Q 2087 -20 2012 388 Q 1937 -20 1711 -20 Q 1581 -20 1513 91.5 Q 1445 203 1445 410 L 1445 626 Q 1445 930 1296 930 L 1270 930 L 1270 427 Q 1270 -20 1026 -20 Q 892 -20 761 164.5 Q 630 349 537 386 L 537 372 Q 537 168 481 74 Q 425 -20 314 -20 Q 237 -20 188 40.5 Q 139 101 139 189 Q 139 352 228 456.50003 Q 317 561 457 569 L 457 660 Q 457 805 421.5 876.5 Q 386 948 309 948 Q 236 948 199.5 898.50006 Q 163 849 160 688 Q 131 680 116 680 L 80 686 Q 80 916 139.5 1017 Q 199 1118 320 1118 Q 425 1118 481 1021 Q 537 924 537 653 L 537 563 Q 617 545 694 479.5 Q 771 414 869.5 282 Q 968 150 1023 150 Q 1105 150 1147.5 218.5 Q 1190 287 1190 475 L 1190 1100 L 1237 1100 Q 1342 1100 1406 1057 Q 1470 1014 1497.5 924.49994 Q 1525 835 1525 635 L 1525 439 Q 1525 289 1572.5 219.49998 Q 1620 150 1717 150 Q 1834 150 1898 334 Q 1962 518 1968 858 L 1970 1010 L 2054 1010 Q 2059 622 2091 466 Q 2123 310 2175.5 230 Q 2228 150 2307 150 Q 2410 150 2454.5 224.5 Q 2499 299 2499 439 L 2499 1100 L 2566 1100 Q 2716 1100 2790 1008.5 Q 2864 917 2864 635 L 2864 0 L 2784 0 Z M 457 365 L 457 399 Q 229 394 229 200 Q 229 80 318 80 Q 457 80 457 365 Z"/>
        </g>
        <g transform="matrix(1 0 0 1 33432 1986)">
            <path fill="#000000" stroke="none" d="M 738 770 L 738 615 L 859 610 L 859 654 Q 859 873 989.49994 995.50006 Q 1120 1118 1348 1118 Q 1585 1118 1707.5 989 Q 1830 860 1830 615 L 1830 365 Q 1830 231 1852.5 180.50002 Q 1875 130 1939 130 Q 1977 130 1998.5 174 Q 2020 218 2020 283 L 2020 1100 L 2067 1100 Q 2172 1100 2236 1057 Q 2300 1014 2327.5 924.49994 Q 2355 835 2355 635 L 2355 0 L 2275 0 L 2275 626 Q 2275 930 2126 930 L 2100 930 L 2100 221 Q 2100 110 2056 45 Q 2012 -20 1936 -20 Q 1841 -20 1795.5 63 Q 1750 146 1750 372 L 1750 612 Q 1750 790 1652.5001 869 Q 1555 948 1351 948 Q 1148 948 1043.5 860 Q 939 772 939 603 Q 1253 575 1402 477.5 Q 1551 380 1551 203 Q 1551 100 1477.5 40 Q 1404 -20 1279 -20 Q 1126 -20 992.50006 101 Q 859 222 859 413 L 859 442 Q 820 445 738 445 L 738 -4 Q 738 -159 825 -254.5 Q 912 -350 1057 -350 Q 1202 -350 1288 -288 Q 1374 -226 1391 -110 L 1457 -130 Q 1435 -319 1331.5 -419.5 Q 1228 -520 1057 -520 Q 872 -520 765 -384 Q 658 -248 658 -15 L 658 443 L 537 435 L 537 372 Q 537 168 481 74 Q 425 -20 314 -20 Q 237 -20 188 40.5 Q 139 101 139 189 Q 139 333 223.5 438 Q 308 543 457 586 L 457 660 Q 457 805 421.5 876.5 Q 386 948 309 948 Q 236 948 199.5 898.50006 Q 163 849 160 688 Q 131 680 116 680 L 80 686 Q 80 916 139.5 1017 Q 199 1118 320 1118 Q 425 1118 481 1021 Q 537 924 537 653 L 537 602 L 658 613 L 658 770 L 738 770 Z M 939 437 L 939 407 Q 939 251 1050 165.5 Q 1161 80 1290 80 Q 1359 80 1405 105 Q 1451 130 1451 174 Q 1451 280 1309.5 351 Q 1168 422 939 437 Z M 457 365 L 457 421 Q 345 394 287 336.5 Q 229 279 229 200 Q 229 80 318 80 Q 457 80 457 365 Z"/>
        </g>
        <g transform="matrix(1 0 0 1 35917 1986)">
            <path fill="#000000" stroke="none" d="M 2291 0 L 2291 626 Q 2291 930 2142 930 L 2116 930 L 2116 221 Q 2116 110 2072 45 Q 2028 -20 1952 -20 Q 1857 -20 1811.5001 63 Q 1766 146 1766 372 L 1766 661 Q 1766 948 1546 948 Q 1480 948 1425.5001 910.5 Q 1371 873 1334 810 Q 1297 747 1253 693.5 Q 1209 640 1151 640 Q 1092 640 1048.5 694 Q 1005 748 968 810.5 Q 931 873 876 910.5 Q 821 948 755 948 Q 673 948 621 900.5 Q 569 853 527 718 Q 485 583 435.5 538 Q 386 493 306 493 Q 191 493 135.5 591.5 Q 80 690 80 925 L 116 931 Q 131 931 160 923 Q 162 794 175.5 750.5 Q 189 707 220 685 Q 251 663 308 663 Q 377 663 416 700.49994 Q 455 738 473 807 L 495 891 Q 521 990 550.5 1031 Q 580 1072 627 1095 Q 674 1118 747 1118 Q 815 1118 870.5 1079.5 Q 926 1041 961 979 Q 996 917 1041 863.49994 Q 1086 810 1150 810 Q 1247 810 1330.5 964 Q 1414 1118 1554 1118 Q 1698 1118 1772 1000.5 Q 1846 883 1846 664 L 1846 365 Q 1846 231 1868.5 180.50002 Q 1891 130 1955 130 Q 1993 130 2014.5 174 Q 2036 218 2036 283 L 2036 1100 L 2083 1100 Q 2188 1100 2252 1057 Q 2316 1014 2343.5 924.49994 Q 2371 835 2371 635 L 2371 0 L 2291 0 Z"/>
        </g>
        <g transform="matrix(1 0 0 1 38948 1986)">
            <path fill="#000000" stroke="none" d="M 1934 -1118 L 1934 -826 Q 1934 -649 1841.5 -568.5 Q 1749 -488 1544 -488 Q 1338 -488 1246 -570 Q 1154 -652 1154 -822 L 1154 -1118 L 1107 -1118 Q 936 -1118 838.5 -1002 Q 741 -886 741 -676 Q 741 -507 839.5 -353.5 Q 938 -200 1216.5 22.499998 Q 1495 245 1594 398.5 Q 1693 552 1693 721 Q 1693 827 1633.5 887.5 Q 1574 948 1470 948 Q 1385 948 1324.5 890 Q 1264 832 1255 733 L 1186 733 Q 1186 817 1121.5 882.5 Q 1057 948 971 948 Q 845 948 792.5 868 Q 740 788 740 616 L 740 0 L 693 0 Q 590 0 525.5 43 Q 461 86 434.5 174.5 Q 408 263 408 465 L 408 660 Q 408 825 381.5 886.5 Q 355 948 289 948 Q 239 948 211.49998 925 Q 184 902 173 858.5 Q 162 815 160 688 Q 131 680 116 680 L 80 686 Q 80 920 132.5 1019 Q 185 1118 286 1118 Q 387 1118 437.5 1024 Q 488 930 488 653 L 488 417 Q 488 296 526.5 233 Q 565 170 634 170 L 660 170 L 660 616 Q 660 890 732 1004 Q 804 1118 971 1118 Q 1154 1118 1220 912 Q 1287 1118 1470 1118 Q 1623 1118 1708 1012.5 Q 1793 907 1793 714 Q 1793 535 1730.5 378.5 Q 1668 222 1535 83.5 Q 1402 -55 1191 -210.5 Q 980 -366 910.5 -472 Q 841 -578 841 -683 Q 841 -782 901.5 -865 Q 962 -948 1048 -948 L 1074 -948 L 1074 -822 Q 1074 -577 1193.5 -447.5 Q 1313 -318 1543 -318 Q 1769 -318 1891.5 -442.5 Q 2014 -567 2014 -823 L 2014 -1118 L 1934 -1118 Z"/>
        </g>
        <g transform="matrix(1 0 0 1 40962 1986)">
            <path fill="#000000" stroke="none" d="M 1324 -1118 L 1324 -826 Q 1324 -649 1231.5 -568.5 Q 1139 -488 934 -488 Q 728 -488 636 -570 Q 544 -652 544 -822 L 544 -1118 L 497 -1118 Q 325 -1118 227.49998 -1001.5 Q 130 -885 130 -676 Q 130 -500 236.50002 -330.5 Q 343 -161 620 73 Q 897 307 989.49994 446 Q 1082 585 1082 721 Q 1082 828 1024 888 Q 966 948 870 948 Q 766 948 706 880.5 Q 646 813 644 688 Q 615 680 600 680 L 564 686 Q 564 883 642.5 1000.5 Q 721 1118 867 1118 Q 1010 1118 1096 1009.5 Q 1182 901 1182 714 Q 1182 552 1115 402.5 Q 1048 253 910.5 114 Q 773 -25 583 -176 Q 393 -327 311.5 -447 Q 230 -567 230 -681 Q 230 -795 296.5 -871.5 Q 363 -948 438 -948 L 464 -948 L 464 -822 Q 464 -577 583.5 -447.5 Q 703 -318 933 -318 Q 1159 -318 1281.5 -442.5 Q 1404 -567 1404 -823 L 1404 -1118 L 1324 -1118 Z"/>
        </g>
        <g transform="matrix(1 0 0 1 42496 1986)">
            <path fill="#000000" stroke="none" d="M 0 850 Q 59 975 164 1046.5 Q 269 1118 388 1118 Q 583 1118 699.5 988 Q 816 858 816 658 Q 816 439 713 308.5 Q 610 178 437 178 Q 372 178 320 215 Q 268 252 268 307 Q 268 432 377 523 L 444 472 Q 401 429 401 377 Q 401 334 427 312.5 Q 453 291 493 291 Q 586 291 651 395 Q 716 499 716 651 Q 716 790 629 874 Q 542 958 391 958 Q 280 958 197 918 Q 114 878 74 804 L 0 850 Z"/>
        </g>
        <g transform="matrix(1 0 0 1 43412 1986)">
            <path fill="#000000" stroke="none" d="M 1520 0 L 1520 612 Q 1520 791 1426 869.5 Q 1332 948 1130 948 Q 923 948 831.49994 866.50006 Q 740 785 740 616 L 740 465 Q 740 262 714 174.5 Q 688 87 623.5 43.5 Q 559 0 455 0 L 408 0 L 408 660 Q 408 825 381.5 886.5 Q 355 948 289 948 Q 239 948 211.49998 925 Q 184 902 173 858.5 Q 162 815 160 688 Q 131 680 116 680 L 80 686 Q 80 920 132.5 1019 Q 185 1118 286 1118 Q 387 1118 437.5 1024 Q 488 930 488 653 L 488 170 L 514 170 Q 584 170 622 233 Q 660 296 660 417 L 660 616 Q 660 860 779 989 Q 898 1118 1129 1118 Q 1355 1118 1477.5 994.50006 Q 1600 871 1600 615 L 1600 0 L 1520 0 Z"/>
        </g>
        <g transform="matrix(1 0 0 1 45142 1986)">
            <path fill="#000000" stroke="none" d="M 1934 -1118 L 1934 -826 Q 1934 -649 1841.5 -568.5 Q 1749 -488 1544 -488 Q 1338 -488 1246 -570 Q 1154 -652 1154 -822 L 1154 -1118 L 1107 -1118 Q 936 -1118 838.5 -1002 Q 741 -886 741 -676 Q 741 -507 839.5 -353.5 Q 938 -200 1216.5 22.499998 Q 1495 245 1594 398.5 Q 1693 552 1693 721 Q 1693 827 1633.5 887.5 Q 1574 948 1470 948 Q 1385 948 1324.5 890 Q 1264 832 1255 733 L 1186 733 Q 1186 817 1121.5 882.5 Q 1057 948 971 948 Q 845 948 792.5 868 Q 740 788 740 616 L 740 0 L 693 0 Q 590 0 525.5 43 Q 461 86 434.5 174.5 Q 408 263 408 465 L 408 660 Q 408 825 381.5 886.5 Q 355 948 289 948 Q 239 948 211.49998 925 Q 184 902 173 858.5 Q 162 815 160 688 Q 131 680 116 680 L 80 686 Q 80 920 132.5 1019 Q 185 1118 286 1118 Q 387 1118 437.5 1024 Q 488 930 488 653 L 488 417 Q 488 296 526.5 233 Q 565 170 634 170 L 660 170 L 660 616 Q 660 890 732 1004 Q 804 1118 971 1118 Q 1154 1118 1220 912 Q 1287 1118 1470 1118 Q 1623 1118 1708 1012.5 Q 1793 907 1793 714 Q 1793 535 1730.5 378.5 Q 1668 222 1535 83.5 Q 1402 -55 1191 -210.5 Q 980 -366 910.5 -472 Q 841 -578 841 -683 Q 841 -782 901.5 -865 Q 962 -948 1048 -948 L 1074 -948 L 1074 -822 Q 1074 -577 1193.5 -447.5 Q 1313 -318 1543 -318 Q 1769 -318 1891.5 -442.5 Q 2014 -567 2014 -823 L 2014 -1118 L 1934 -1118 Z"/>
        </g>
        <g transform="matrix(1 0 0 1 47156 1986)">
            <path fill="#000000" stroke="none" d="M 0 850 Q 59 975 164 1046.5 Q 269 1118 388 1118 Q 583 1118 699.5 988 Q 816 858 816 658 Q 816 439 713 308.5 Q 610 178 437 178 Q 372 178 320 215 Q 268 252 268 307 Q 268 432 377 523 L 444 472 Q 401 429 401 377 Q 401 334 427 312.5 Q 453 291 493 291 Q 586 291 651 395 Q 716 499 716 651 Q 716 790 629 874 Q 542 958 391 958 Q 280 958 197 918 Q 114 878 74 804 L 0 850 Z"/>
        </g>
        <g transform="matrix(1 0 0 1 48072 1986)">
            <path fill="#000000" stroke="none" d="M 1188 482 L 1188 903 Q 1044 924 957 1017 Q 870 1110 870 1246 Q 870 1331 915.5 1380.5 Q 961 1430 1040 1430 Q 1136 1430 1199.5 1327.5 Q 1263 1225 1268 1072 Q 1356 1072 1421.4999 1139 Q 1487 1206 1497 1323 L 1566 1280 Q 1553 1109 1471 1006.5 Q 1389 904 1268 901 L 1268 482 Q 1268 237 1160.5 108.5 Q 1053 -20 839 -20 Q 624 -20 516 103.5 Q 408 227 408 464 L 408 660 Q 408 825 381.5 886.5 Q 355 948 289 948 Q 239 948 211.49998 925 Q 184 902 173 858.5 Q 162 815 160 688 Q 131 680 116 680 L 80 686 Q 80 920 132.5 1019 Q 185 1118 286 1118 Q 387 1118 437.5 1024 Q 488 930 488 653 L 488 486 Q 488 306 570 228 Q 652 150 838 150 Q 1025 150 1106.5 231 Q 1188 312 1188 482 Z M 1019.5 1126 Q 1079 1081 1188 1072 Q 1184 1184 1141.5 1257 Q 1099 1330 1044 1330 Q 960 1330 960 1247 Q 960 1171 1019.5 1126 Z"/>
        </g>
        <g transform="matrix(1 0 0 1 49638 1986)">
            <path fill="#000000" stroke="none" d="M 440 726 Q 474 831 539.5 895.49994 Q 605 960 684 960 Q 772 960 832 904.5 Q 892 849 892 764 Q 892 613 773 536 Q 853 511 896.50006 454 Q 940 397 940 321 Q 940 169 841.5 74.5 Q 743 -20 580 -20 Q 376 -20 238 158 Q 100 336 100 597 Q 100 772 173.5 909 Q 247 1046 388.5 1128 Q 530 1210 689 1210 Q 891 1210 1052.5 1110.5 Q 1214 1011 1292 844 L 1222 798 Q 1095 986 970.5 1048 Q 846 1110 691 1110 Q 484 1110 342 970.5 Q 200 831 200 605 Q 200 384 298.5 267 Q 397 150 580 150 Q 719 150 779.5 196 Q 840 242 840 332 Q 840 397 785.5 436 Q 731 475 625 475 L 533 475 L 543 555 L 620 555 Q 693 563 742.5 604.5 Q 792 646 792 691 Q 792 736 755 763 Q 718 790 665 790 Q 595 790 550 768.50006 Q 505 747 476 700 L 440 726 Z M 2203 346 L 2068 404 L 2068 0 L 1988 0 L 1988 439 Q 1871 490 1813 509 L 1813 485 Q 1813 231 1721 105.49999 Q 1629 -20 1454 -20 Q 1284 -20 1184.5 80.5 Q 1085 181 1064 370 L 1130 390 Q 1146 274 1228 212 Q 1310 150 1454 150 Q 1590 150 1661.5 236.50002 Q 1733 323 1733 496 L 1733 531 Q 1689 541 1662 541 Q 1621 541 1594 519 Q 1567 497 1567 459 Q 1567 417 1609 373 L 1559 331 Q 1501 380 1466.5 440 Q 1432 500 1432 551 Q 1432 600 1467.5 630 Q 1503 660 1558 660 Q 1621 660 1733 625 L 1733 1100 L 1780 1100 Q 1885 1100 1949 1057 Q 2013 1014 2040.5 924.49994 Q 2068 835 2068 635 L 2068 492 L 2228 424 L 2203 346 Z M 1813 598 L 1988 526 L 1988 626 Q 1988 930 1839 930 L 1813 930 L 1813 598 Z"/>
        </g>
        <g transform="matrix(1 0 0 1 52426 1986)">
            <path fill="#000000" stroke="none" d="M 1443 0 L 1443 626 Q 1443 930 1294 930 L 1268 930 L 1268 482 Q 1268 237 1160.5 108.5 Q 1053 -20 839 -20 Q 624 -20 516 103.5 Q 408 227 408 464 L 408 660 Q 408 825 381.5 886.5 Q 355 948 289 948 Q 239 948 211.49998 925 Q 184 902 173 858.5 Q 162 815 160 688 Q 131 680 116 680 L 80 686 Q 80 920 132.5 1019 Q 185 1118 286 1118 Q 387 1118 437.5 1024 Q 488 930 488 653 L 488 486 Q 488 306 570 228 Q 652 150 838 150 Q 1025 150 1106.5 231 Q 1188 312 1188 482 L 1188 1100 L 1235 1100 Q 1340 1100 1404 1057 Q 1468 1014 1495.5001 924.49994 Q 1523 835 1523 635 L 1523 0 L 1443 0 Z"/>
        </g>
        <g transform="matrix(1 0 0 1 54079 1986)">
            <path fill="#000000" stroke="none" d="M 1700 0 L 1700 616 Q 1700 788 1648 868 Q 1596 948 1470 948 Q 1385 948 1324.5 890 Q 1264 832 1255 733 L 1186 733 Q 1186 817 1121.5 882.5 Q 1057 948 971 948 Q 845 948 792.5 868 Q 740 788 740 616 L 740 0 L 693 0 Q 590 0 525.5 43 Q 461 86 434.5 174.5 Q 408 263 408 465 L 408 660 Q 408 825 381.5 886.5 Q 355 948 289 948 Q 239 948 211.49998 925 Q 184 902 173 858.5 Q 162 815 160 688 Q 131 680 116 680 L 80 686 Q 80 920 132.5 1019 Q 185 1118 286 1118 Q 387 1118 437.5 1024 Q 488 930 488 653 L 488 417 Q 488 296 526.5 233 Q 565 170 634 170 L 660 170 L 660 616 Q 660 890 732 1004 Q 804 1118 971 1118 Q 1154 1118 1220 912 Q 1287 1118 1470 1118 Q 1638 1118 1709 1004 Q 1780 890 1780 616 L 1780 0 L 1700 0 Z M 1360 -167 Q 1301 -130 1203 -130 Q 1143 -130 1102 -149 Q 1061 -168 1061 -200 Q 1061 -248 1198.5 -277.5 Q 1336 -307 1413 -356.5 Q 1490 -406 1490 -494 Q 1490 -590 1415.5 -655 Q 1341 -720 1226 -720 Q 1117 -720 1008 -651 Q 899 -582 868 -491 L 906 -465 Q 933 -507 1027.5 -539 Q 1122 -571 1206 -571 Q 1284 -571 1344.5 -546 Q 1405 -521 1405 -480 Q 1405 -440 1361.5 -413 Q 1318 -386 1191 -358 Q 1064 -330 1020 -296 Q 976 -262 976 -213 Q 976 -142 1042.5 -96 Q 1109 -50 1208 -50 Q 1275 -50 1318.5 -63 Q 1362 -76 1399 -96 L 1360 -167 Z"/>
        </g>
        <g transform="matrix(1 0 0 1 55989 1986)">
            <path fill="#000000" stroke="none" d="M 1700 0 L 1700 616 Q 1700 788 1648 868 Q 1596 948 1470 948 Q 1385 948 1324.5 890 Q 1264 832 1255 733 L 1186 733 Q 1186 817 1121.5 882.5 Q 1057 948 971 948 Q 845 948 792.5 868 Q 740 788 740 616 L 740 0 L 693 0 Q 590 0 525.5 43 Q 461 86 434.5 174.5 Q 408 263 408 465 L 408 660 Q 408 825 381.5 886.5 Q 355 948 289 948 Q 239 948 211.49998 925 Q 184 902 173 858.5 Q 162 815 160 688 Q 131 680 116 680 L 80 686 Q 80 920 132.5 1019 Q 185 1118 286 1118 Q 387 1118 437.5 1024 Q 488 930 488 653 L 488 417 Q 488 296 526.5 233 Q 565 170 634 170 L 660 170 L 660 616 Q 660 890 732 1004 Q 804 1118 971 1118 Q 1154 1118 1220 912 Q 1287 1118 1470 1118 Q 1638 1118 1709 1004 Q 1780 890 1780 616 L 1780 0 L 1700 0 Z"/>
        </g>
        <g transform="matrix(1 0 0 1 57899 1986)">
            <path fill="#000000" stroke="none" d="M 2090 -432 Q 2035 -469 1958 -488.50003 Q 1881 -508 1808 -508 L 1757 -507 Q 1692 -817 1580 -1120 L 1500 -1100 L 1510 -1068 Q 1506 -1001 1408.5 -951 Q 1311 -901 1060 -844 Q 809 -787 668.5 -733.49994 Q 528 -680 454 -604 Q 380 -528 380 -428 Q 380 -308 482 -224 Q 584 -140 743 -140 Q 951 -140 1236 -257.5 Q 1521 -375 1677 -398 Q 1740 -45 1740 258 Q 1740 948 1470 948 Q 1385 948 1324.5 890 Q 1264 832 1255 733 L 1186 733 Q 1186 817 1121.5 882.5 Q 1057 948 971 948 Q 845 948 792.5 868 Q 740 788 740 616 L 740 0 L 693 0 Q 590 0 525.5 43 Q 461 86 434.5 174.5 Q 408 263 408 465 L 408 660 Q 408 825 381.5 886.5 Q 355 948 289 948 Q 239 948 211.49998 925 Q 184 902 173 858.5 Q 162 815 160 688 Q 131 680 116 680 L 80 686 Q 80 920 132.5 1019 Q 185 1118 286 1118 Q 387 1118 437.5 1024 Q 488 930 488 653 L 488 417 Q 488 296 526.5 233 Q 565 170 634 170 L 660 170 L 660 616 Q 660 890 732 1004 Q 804 1118 971 1118 Q 1154 1118 1220 912 Q 1287 1118 1470 1118 Q 1649 1118 1744.5 900.5 Q 1840 683 1840 268 Q 1840 -68 1777 -407 L 1798 -408 Q 1972 -408 2057 -361 L 2090 -432 Z M 1551 -935 Q 1620 -697 1659 -499 Q 1466 -477 1158 -383.5 Q 850 -290 681 -290 Q 480 -290 480 -432 Q 480 -531 614 -606 Q 748 -681 1111.5 -763.5 Q 1475 -846 1551 -935 Z"/>
        </g>
        <g transform="matrix(1 0 0 1 59839 1986)">
            <path fill="#000000" stroke="none" d="M 2207 0 L 2207 626 Q 2207 930 2058 930 L 2032 930 L 2032 465 Q 2032 262 2006 174.5 Q 1980 87 1915.5 43.5 Q 1851 0 1747 0 L 1700 0 L 1700 616 Q 1700 788 1648 868 Q 1596 948 1470 948 Q 1385 948 1324.5 890 Q 1264 832 1255 733 L 1186 733 Q 1186 817 1121.5 882.5 Q 1057 948 971 948 Q 845 948 792.5 868 Q 740 788 740 616 L 740 0 L 693 0 Q 590 0 525.5 43 Q 461 86 434.5 174.5 Q 408 263 408 465 L 408 660 Q 408 825 381.5 886.5 Q 355 948 289 948 Q 239 948 211.49998 925 Q 184 902 173 858.5 Q 162 815 160 688 Q 131 680 116 680 L 80 686 Q 80 920 132.5 1019 Q 185 1118 286 1118 Q 387 1118 437.5 1024 Q 488 930 488 653 L 488 417 Q 488 296 526.5 233 Q 565 170 634 170 L 660 170 L 660 616 Q 660 890 732 1004 Q 804 1118 971 1118 Q 1154 1118 1220 912 Q 1287 1118 1470 1118 Q 1638 1118 1709 1004 Q 1780 890 1780 616 L 1780 170 L 1806 170 Q 1876 170 1914 233 Q 1952 296 1952 417 L 1952 1100 L 1999 1100 Q 2104 1100 2168 1057 Q 2232 1014 2259.5 924.49994 Q 2287 835 2287 635 L 2287 0 L 2207 0 Z"/>
        </g>
        <g transform="matrix(1 0 0 1 62256 1986)">
            <path fill="#000000" stroke="none" d="M 3495 0 L 3495 626 Q 3495 930 3346 930 L 3320 930 L 3320 339 Q 3320 142 3283.5 61 Q 3247 -20 3164 -20 Q 3075 -20 3031.5 50.5 Q 2988 121 2988 323 L 2988 616 Q 2988 813 2937.5002 880.5 Q 2887 948 2728 948 Q 2585 948 2526.5 875.5 Q 2468 803 2468 612 L 2468 464 Q 2468 227 2355 103.5 Q 2242 -20 2027 -20 Q 1799 -20 1684.5 107.5 Q 1570 235 1570 482 L 1570 612 Q 1570 948 1141 948 Q 922 948 825.5 872 Q 729 796 729 637 L 729 608 Q 1017 593 1179 488.50003 Q 1341 384 1341 203 Q 1341 100 1267.5 40 Q 1194 -20 1069 -20 Q 916 -20 782.5 101 Q 649 222 649 413 L 649 439 Q 577 439 537 435 L 537 372 Q 537 168 481 74 Q 425 -20 314 -20 Q 237 -20 188 40.5 Q 139 101 139 189 Q 139 333 223.5 438 Q 308 543 457 586 L 457 660 Q 457 805 421.5 876.5 Q 386 948 309 948 Q 236 948 199.5 898.50006 Q 163 849 160 688 Q 131 680 116 680 L 80 686 Q 80 916 139.5 1017 Q 199 1118 320 1118 Q 425 1118 481 1021 Q 537 924 537 653 L 537 603 Q 577 610 649 610 L 649 654 Q 649 873 779.5 995.50006 Q 910 1118 1138 1118 Q 1381 1118 1515.5 986.5 Q 1650 855 1650 615 L 1650 482 Q 1650 314 1739 232 Q 1828 150 2028 150 Q 2216 150 2302 229 Q 2388 308 2388 486 L 2388 615 Q 2388 890 2467 1004 Q 2546 1118 2729 1118 Q 2913 1118 2990.5 1003.5 Q 3068 889 3068 616 L 3068 365 Q 3068 220 3088 175 Q 3108 130 3167 130 Q 3240 130 3240 341 L 3240 1100 L 3287 1100 Q 3392 1100 3456 1057 Q 3520 1014 3547.5 924.49994 Q 3575 835 3575 635 L 3575 0 L 3495 0 Z M 729 407 Q 729 251 840 165.5 Q 951 80 1080 80 Q 1149 80 1195 105 Q 1241 130 1241 174 Q 1241 280 1099.5 351 Q 958 422 729 437 L 729 407 Z M 457 421 Q 345 394 287 336.5 Q 229 279 229 200 Q 229 80 318 80 Q 457 80 457 365 L 457 421 Z"/>
        </g>
    </g>
</svg>
