<svg width="34678" height="3308" viewBox="0 0 34678 3308" xmlns="http://www.w3.org/2000/svg">
    <defs/>
    <g transform="matrix(1 0 0 -1 0 3308)">
        <g transform="matrix(1 0 0 1 0 1326)">
            <path fill="#000000" stroke="none" d="M 1144 1009 L 1144 -326 L 994 -326 L 994 529 Q 929 481 855 458.5 Q 781 436 685 436 L 672 436 L 657 437 Q 683 340 683 271 Q 683 137 599 68.5 Q 515 0 354 0 L 100 0 L 100 155 L 359 155 Q 455 155 494 185.5 Q 533 216 533 282 Q 533 396 416 600 L 540 690 Q 571 640 599 587 L 655 583 Q 766 583 856.5 613.5 Q 947 644 994 697 L 994 1009 L 1144 1009 Z"/>
        </g>
        <g transform="matrix(1 0 0 1 1846 1326)">
            <path fill="#000000" stroke="none" d="M 793 -37 Q 644 -131 467 -267 Q 290 -403 256 -449 Q 284 -477 464.5 -545 Q 645 -613 839 -668 L 782 -826 Q 654 -796 443.5 -717 Q 233 -638 174.5 -591 Q 116 -544 116 -477 Q 116 -390 182 -314 Q 248 -238 431 -112 L 568 -17 Q 380 17 293 43 Q 185 74 185 173 Q 185 225 205.5 266 Q 226 307 276 363 Q 326 419 409.50003 493.5 Q 493 568 580 632.5 Q 667 697 737 739 L 818 614 Q 762 578 649 492.5 Q 536 407 436 318 Q 336 229 320 196 Q 354 182 518 148.5 Q 682 115 793 96 L 793 -37 Z"/>
        </g>
        <g transform="matrix(1 0 0 1 2820 1326)">
            <path fill="#000000" stroke="none" d="M 0 0 Q -33 0 -57 20.5 Q -81 41 -81 78 Q -81 114 -57 134.5 Q -33 155 0 155 L 773 155 L 773 486 L 188 486 L 188 1009 L 338 1009 L 338 636 L 773 636 L 773 1009 L 924 1009 L 924 155 L 1136 155 L 1136 0 L 0 0 Z"/>
        </g>
        <g transform="matrix(1 0 0 1 3956 1326)">
            <path fill="#000000" stroke="none" d="M 534 -780 Q 422 -556 342 -376 Q 295 -269 235.49998 -175 Q 176 -81 124.5 -40.5 Q 73 0 0 0 Q -34 0 -57.5 20.5 Q -81 41 -81 78 Q -81 114 -57.5 134.5 Q -34 155 0 155 Q 108 155 191 103.5 Q 274 52 343.5 -53.5 Q 413 -159 543 -455 L 609 -607 Q 695 -501 801.50006 -317 Q 908 -133 954 0 L 817 0 Q 655 0 570.5 75.5 Q 486 151 486 293 Q 486 388 535 481.5 Q 584 575 663 626 Q 742 677 839 677 Q 939 677 1015 633 Q 1091 589 1133 511 Q 1175 433 1175 342 Q 1175 236 1153 155 L 1331 155 L 1331 0 L 1111 0 Q 952 -415 638 -780 L 534 -780 Z M 629 315 Q 629 155 819 155 L 1004 155 Q 1028 220 1028 322 Q 1028 415 974 472 Q 920 529 836 529 Q 780 529 732.49994 498 Q 685 467 657 417 Q 629 367 629 315 Z"/>
        </g>
        <g transform="matrix(1 0 0 1 5287 1326)">
            <path fill="#000000" stroke="none" d="M 0 0 Q -34 0 -57.5 20.5 Q -81 41 -81 78 Q -81 114 -57.5 134.5 Q -34 155 0 155 L 108 155 Q 204 155 243 185.5 Q 282 216 282 282 Q 282 396 165 600 L 290 690 Q 359 583 395.5 473 Q 432 363 432 271 Q 432 0 113 0 L 0 0 Z"/>
        </g>
        <g transform="matrix(1 0 0 1 5879 1326)">
            <path fill="#000000" stroke="none" d="M 809 155 Q 805 289 781 369.5 Q 757 450 711 485 Q 665 520 583 520 Q 505 520 435 476 Q 365 432 322 360.50003 Q 279 289 279 223 Q 279 194 297.5 174.5 Q 316 155 354 155 L 809 155 Z M 1117 155 L 1117 0 L 335 0 Q 238 0 184 51.5 Q 130 103 130 191 Q 130 314 192 425.50003 Q 254 537 362.5 603.5 Q 471 670 597 670 Q 957 670 966 155 L 1117 155 Z"/>
        </g>
        <g transform="matrix(1 0 0 1 6996 1326)">
            <path fill="#000000" stroke="none" d="M 0 0 Q -34 0 -57.5 20.5 Q -81 41 -81 78 Q -81 114 -57.5 134.5 Q -34 155 0 155 L 1138 155 L 1138 486 L 166 486 L 166 613 Q 186 628 214.5 656.5 Q 243 685 539 1019 L 650 943 L 507 777 Q 494 762 450.5 719 Q 407 676 355 636 L 1138 636 L 1138 998 L 1288 998 L 1288 0 L 0 0 Z"/>
        </g>
        <g transform="matrix(1 0 0 1 8986 1326)">
            <path fill="#000000" stroke="none" d="M 1194 0 Q 1074 0 1012 82 Q 988 -19 921.5 -187 Q 855 -355 778 -496 Q 701 -637 621 -740 L 515 -740 Q 394 -517 286.5 -174.5 Q 179 168 140 479 L 283 505 Q 338 194 412 -56.5 Q 486 -307 587 -554 Q 655 -446 726 -288 Q 797 -130 843.5 24 Q 890 178 896 282 L 896 326 L 895 382 L 1032 402 Q 1042 362 1042 293 L 1042 273 Q 1051 220 1089.5 187.49998 Q 1128 155 1185 155 Q 1369 155 1369 398 L 1508 414 L 1510 385 L 1510 356 Q 1510 310 1503 275 Q 1517 216 1575 185.5 Q 1633 155 1719 155 L 1724 155 L 1724 0 L 1713 0 Q 1507 0 1432 127 Q 1347 0 1194 0 Z"/>
        </g>
        <g transform="matrix(1 0 0 1 10710 1326)">
            <path fill="#000000" stroke="none" d="M 383 121 Q 286 0 60 0 L 0 0 Q -33 0 -57 20.5 Q -81 41 -81 78 Q -81 114 -57 134.5 Q -33 155 0 155 L 80 155 Q 207 155 266.5 208 Q 326 261 326 386 L 464 402 L 466 379 L 466 356 Q 466 315 460 276 Q 469 220 508.5 187.49998 Q 548 155 604 155 Q 769 155 769 346 L 767 391 L 904 417 Q 911 385 911 323 L 911 298 L 910 276 Q 918 155 1003 155 L 1003 0 Q 943 0 893.49994 29.500002 Q 844 59 820 110 Q 750 0 610 0 Q 457 0 383 121 Z"/>
        </g>
        <g transform="matrix(1 0 0 1 11713 1326)">
            <path fill="#000000" stroke="none" d="M 362 1075 Q 362 1034 368 1009 Q 404 998 480 998 Q 585 998 640 1035 Q 695 1072 695 1140 Q 695 1219 651 1268 Q 607 1317 537 1317 Q 460 1317 411 1250 Q 362 1183 362 1075 Z M 0 0 Q -34 0 -57.5 20.5 Q -81 41 -81 78 Q -81 114 -57.5 134.5 Q -34 155 0 155 L 683 155 L 580 282 Q 210 736 210 1064 Q 210 1169 251 1261.5 Q 292 1354 365 1408 Q 438 1462 537 1462 Q 625 1462 695.5 1418 Q 766 1374 804 1299 Q 842 1224 842 1135 Q 842 1003 752 932 Q 662 861 494 861 L 395 866 Q 442 731 586 527.5 Q 730 324 886 155 L 1008 155 L 1008 0 L 0 0 Z"/>
        </g>
        <g transform="matrix(1 0 0 1 12721 1326)">
            <path fill="#000000" stroke="none" d="M 404 -754 L 264 -339 Q 190 -123 161 -79 Q 133 -37 99.5 -18.5 Q 66 0 0 0 Q -34 0 -57.5 20.5 Q -81 41 -81 78 Q -81 114 -57.5 134.5 Q -34 155 0 155 Q 133 155 212 93 Q 291 31 342 -107 Q 379 -205 484 -545 Q 601 -346 700 -93 Q 799 160 810 322 Q 810 401 803 485 L 945 505 Q 956 475 956 353 Q 956 144 827.5 -169 Q 699 -482 505 -754 L 404 -754 Z"/>
        </g>
        <g transform="matrix(1 0 0 1 13815 1326)">
            <path fill="#000000" stroke="none" d="M 1114 0 L 986 -492 L 835 -492 Q 804 -356 786 -255 L 736 0 L 513 0 Q 337 0 238.5 84.5 Q 140 169 140 316 Q 140 410 183 498 Q 226 586 302 638 Q 378 690 471 690 Q 549 690 604.5 668 Q 660 646 705 595.5 Q 750 545 781 461 Q 812 377 853.5 130 Q 895 -117 906 -309 L 925 -309 Q 946 -159 979.5 14 Q 1013 187 1049 318 Q 1085 449 1130.5 525.5 Q 1176 602 1243 646 Q 1310 690 1412 690 Q 1506 690 1578 645 Q 1650 600 1690 519.5 Q 1730 439 1730 344 Q 1730 229 1666 155 L 1888 155 L 1888 0 L 1114 0 Z M 287 329 Q 287 243 346 199 Q 405 155 517 155 L 701 155 Q 687 229 673 298.5 Q 659 368 635 421.5 Q 611 475 573.5 507.5 Q 536 540 477 540 Q 421 540 378 510.5 Q 335 481 311 432 Q 287 383 287 329 Z M 1415 540 Q 1354 540 1312 507.5 Q 1270 475 1237.5 409.50003 Q 1205 344 1153 155 L 1345 155 Q 1457 155 1517 203 Q 1577 251 1577 340 Q 1577 433 1533 486.49997 Q 1489 540 1415 540 Z"/>
        </g>
        <g transform="matrix(1 0 0 1 15703 1326)">
            <path fill="#000000" stroke="none" d="M 862 920 L 632 754 Q 524 682 432 636 L 1018 636 Q 1177 636 1264.5 554.5 Q 1352 473 1352 321 Q 1352 167 1263 83.5 Q 1174 0 1018 0 L 0 0 Q -34 0 -57.5 20.5 Q -81 41 -81 78 Q -81 114 -57.5 134.5 Q -34 155 0 155 L 1018 155 Q 1106 155 1154 198 Q 1202 241 1202 320 Q 1202 398 1154.5 442 Q 1107 486 1018 486 L 166 486 L 166 597 Q 235 632 328 700 L 769 1020 L 862 920 Z"/>
        </g>
        <g transform="matrix(1 0 0 1 17747 1326)">
            <path fill="#000000" stroke="none" d="M 1230 0 L 80 0 L 80 155 L 346 155 L 757 1206 Q 809 1342 893.49994 1412 Q 978 1482 1083 1482 Q 1199 1482 1266.5 1408.5 Q 1334 1335 1334 1207 Q 1334 1141 1309.5 1043 Q 1285 945 1224 780 L 993 155 L 1230 155 L 1230 0 Z M 509 155 L 824 155 L 1077 818 Q 1138 981 1160.5 1066 Q 1183 1151 1183 1201 Q 1183 1265 1154 1299.5 Q 1125 1334 1074 1334 Q 970 1334 899 1150 L 509 155 Z"/>
        </g>
        <g transform="matrix(1 0 0 1 19131 1326)">
            <path fill="#000000" stroke="none" d="M 1463 0 L 275 0 Q 140 0 140 128 Q 140 236 266 408 Q 392 580 541 695 L 645 604 Q 540 512 423.49997 368 Q 307 224 287 155 L 920 155 Q 915 178 915 214 Q 915 315 1015 446 Q 1115 577 1268 695 L 1372 604 Q 1247 502 1156 392 Q 1065 282 1065 229 Q 1065 182 1096.5 168.5 Q 1128 155 1196 155 L 1463 155 L 1463 0 Z"/>
        </g>
        <g transform="matrix(1 0 0 1 20694 1326)">
            <path fill="#000000" stroke="none" d="M 260 124 Q 169 0 5 0 L 0 0 Q -34 0 -57.5 20.5 Q -81 41 -81 78 Q -81 114 -57.5 134.5 Q -34 155 0 155 L 10 155 Q 103 155 152 215.5 Q 201 276 201 386 L 344 402 L 346 379 L 346 356 Q 346 316 340 277 Q 359 206 466 174 Q 590 431 735.49994 550.5 Q 881 670 1058 670 Q 1180 670 1271.5 616.5 Q 1363 563 1412.5 468.5 Q 1462 374 1462 260 Q 1462 198 1439 155 L 1621 155 L 1621 0 L 619 0 Q 485 0 401 29.500002 Q 317 59 260 124 Z M 1061 519 Q 937 519 818.5 420.5 Q 700 322 623 155 L 1186 155 Q 1312 155 1312 253 Q 1312 375 1243 447 Q 1174 519 1061 519 Z"/>
        </g>
        <g transform="matrix(1 0 0 1 22315 1326)">
            <path fill="#000000" stroke="none" d="M 0 0 Q -34 0 -57.5 20.5 Q -81 41 -81 78 Q -81 114 -57.5 134.5 Q -34 155 0 155 L 233 155 L 233 1422 L 383 1422 L 383 0 L 0 0 Z"/>
        </g>
        <g transform="matrix(1 0 0 1 22898 1326)">
            <path fill="#000000" stroke="none" d="M 640 0 L 255 0 Q 120 0 120 128 Q 120 236 246 408 Q 372 580 521 695 L 616 604 Q 525 524 406.49997 377 Q 288 230 267 155 L 640 155 L 640 0 Z"/>
        </g>
        <g transform="matrix(1 0 0 1 23538 1326)">
            <path fill="#000000" stroke="none" d="M 535 -780 Q 469 -650 386 -468 Q 300 -280 238.5 -183 Q 177 -86 124.5 -43 Q 72 0 0 0 Q -33 0 -57 20.5 Q -81 41 -81 78 Q -81 114 -57 134.5 Q -33 155 0 155 Q 61 155 115.5 136.5 Q 170 118 219 80.5 Q 268 43 312 -14 Q 356 -71 400.5 -156.5 Q 445 -242 609 -609 Q 701 -500 816 -316.5 Q 931 -133 986 0 L 714 0 Q 638 0 598.5 36.5 Q 559 73 559 141 Q 559 255 684 428.5 Q 809 602 941 694 L 1038 597 Q 916 501 811.5 362 Q 707 223 700 155 L 1049 155 Q 1095 155 1124 131 Q 1153 107 1153 61 Q 1153 9 1087 -131 Q 1021 -271 909.5 -434.5 Q 798 -598 643 -780 L 535 -780 Z"/>
        </g>
        <g transform="matrix(1 0 0 1 25343 1326)">
            <path fill="#000000" stroke="none" d="M 1603 0 Q 1512 0 1457 21 Q 1402 42 1367 88 Q 1337 42 1269.5 22 Q 1202 2 1076 0 L 714 -6 L 324 -11 Q 228 -11 174 40 Q 120 91 120 180 Q 120 270 186.5 351 Q 253 432 404.5 510.5 Q 556 589 731.5 639.5 Q 907 690 1026 690 Q 1189 690 1289 598 Q 1389 506 1450 297 Q 1469 232 1488 205.5 Q 1507 179 1536.5 167 Q 1566 155 1611 155 L 1611 0 L 1603 0 Z M 1004 540 Q 913 540 721 477 Q 529 414 400.5 342.5 Q 272 271 272 210 Q 272 145 358 145 L 979 153 L 1101 155 Q 1196 155 1247.5 179.49998 Q 1299 204 1299 249 Q 1299 288 1258 378 Q 1217 468 1153 504 Q 1089 540 1004 540 Z"/>
        </g>
        <g transform="matrix(1 0 0 1 26954 1326)">
            <path fill="#000000" stroke="none" d="M 853 486 L 853 155 L 1537 155 L 1537 0 L 0 0 Q -34 0 -57.5 20 Q -81 40 -81 77 Q -81 113 -57.5 134 Q -34 155 0 155 L 703 155 L 703 486 L 165 486 L 165 613 Q 181 625 218.5 665 Q 256 705 523 1019 L 636 946 L 510 796 Q 423 693 353 636 L 885 636 Q 1035 636 1104.5 652 Q 1174 668 1203.5 705.50006 Q 1233 743 1233 821 Q 1233 888 1219 986 L 1361 1023 Q 1381 943 1381 838 Q 1381 650 1274 568 Q 1167 486 931 486 L 853 486 Z"/>
        </g>
        <g transform="matrix(1 0 0 1 28491 1326)">
            <path fill="#000000" stroke="none" d="M 0 0 Q -34 0 -57.5 20.5 Q -81 41 -81 78 Q -81 114 -57.5 134.5 Q -34 155 0 155 L 466 155 Q 560 155 610 198 Q 660 241 660 321 Q 660 402 609 444 Q 558 486 466 486 L 166 486 L 166 598 Q 201 625 267 698 L 554 1019 L 666 944 L 507 762 Q 444 692 374 636 L 1202 636 L 1202 998 L 1352 998 L 1352 155 L 1564 155 L 1564 0 L 0 0 Z M 810 321 Q 810 206 713 155 L 1202 155 L 1202 486 L 723 486 Q 810 435 810 321 Z"/>
        </g>
        <g transform="matrix(1 0 0 1 30055 1326)">
            <path fill="#000000" stroke="none" d="M 1622 1009 L 1622 -326 L 1472 -326 L 1472 486 L 1055 486 Q 1109 417 1109 321 Q 1109 167 1020 83.5 Q 931 0 775 0 L 0 0 Q -33 0 -57 20.5 Q -81 41 -81 78 Q -81 114 -57 134.5 Q -33 155 0 155 L 775 155 Q 863 155 910 198 Q 957 241 957 321 Q 957 400 912 443 Q 867 486 783 486 L 165 486 L 165 597 Q 202 617 320 710 L 699 1020 L 795 926 L 622 781 Q 585 750 513 704 Q 441 658 401 636 L 1472 636 L 1472 1009 L 1622 1009 Z"/>
        </g>
        <g transform="matrix(1 0 0 1 31847 1326)">
            <path fill="#000000" stroke="none" d="M 180 -326 L 180 1422 L 330 1422 L 330 -326 L 180 -326 Z"/>
        </g>
        <g transform="matrix(1 0 0 1 32357 1326)">
            <path fill="#000000" stroke="none" d="M 1148 681 Q 1210 551 1293 330.5 Q 1376 110 1615 -603 Q 1691 -527 1831 -330 Q 1971 -133 2038 0 L 1776 0 Q 1700 0 1660.5 36.5 Q 1621 73 1621 141 Q 1621 255 1746 428.5 Q 1871 602 2003 694 L 2100 597 Q 1975 499 1871.4999 361 Q 1768 223 1761 155 L 2101 155 Q 2147 155 2176 131 Q 2205 107 2205 61 Q 2205 27 2192 -6 Q 2121 -179 1948.5 -414.5 Q 1776 -650 1637 -780 L 1529 -780 Q 1462 -628 1324 -232 L 1241 0 L 268 0 Q 133 0 133 128 Q 133 236 259 408 Q 385 580 534 695 L 638 604 Q 533 512 416.5 368 Q 300 224 280 155 L 1187 155 Q 1083 452 1006 615 L 1148 681 Z"/>
        </g>
    </g>
</svg>
