<svg width="53307" height="3943" viewBox="0 0 53307 3943" xmlns="http://www.w3.org/2000/svg">
    <defs/>
    <path fill="#000000" stroke="none" transform="matrix(1 0 0 -1 0 2689)" d="M 1008 0 L 147 0 L 375 684 L 92 684 L 145 846 L 633 846 L 403 162 L 858 162 L 1233 1300 L 154 1300 L 207 1462 L 1489 1462 L 1008 0 Z"/>
    <path fill="#000000" stroke="none" transform="matrix(1 0 0 -1 1415 2689)" d="M 190 0 L 618 1300 L 152 1300 L 205 1462 L 877 1462 L 446 162 L 1141 162 L 961 719 L 1155 719 L 1389 0 L 190 0 Z"/>
    <path fill="#000000" stroke="none" transform="matrix(1 0 0 -1 2906 2689)" d="M 387 0 L 188 0 L 616 1300 L 152 1300 L 205 1462 L 1612 1462 L 1407 844 L 1847 844 L 1618 162 L 1819 162 L 2243 1462 L 2904 1462 L 2425 0 L 2224 0 L 2650 1300 L 2388 1300 L 1962 0 L 1366 0 L 1595 682 L 1354 682 L 1128 0 L 930 0 L 1358 1300 L 821 1300 L 387 0 Z"/>
    <path fill="#000000" stroke="none" transform="matrix(1 0 0 -1 5736 2689)" d="M 397 0 L 829 1300 L 588 1300 L 160 0 L -41 0 L 438 1462 L 1081 1462 L 651 162 L 1057 162 L 1485 1462 L 1688 1462 L 1206 0 L 397 0 Z"/>
    <path fill="#000000" stroke="none" transform="matrix(1 0 0 -1 7350 2689)" d="M 989 1462 L 1651 1462 L 1171 0 L 971 0 L 1397 1300 L 1135 1300 L 709 0 L 113 0 L 342 682 L 33 682 L 86 844 L 594 844 L 365 162 L 565 162 L 989 1462 Z"/>
    <path fill="#000000" stroke="none" transform="matrix(1 0 0 -1 8927 2689)" d="M 975 0 L -45 0 L 436 1462 L 635 1462 L 205 162 L 825 162 L 1260 1462 L 1458 1462 L 975 0 Z"/>
    <path fill="#000000" stroke="none" transform="matrix(1 0 0 -1 10843 2689)" d="M 616 1300 L 147 1300 L 201 1462 L 874 1462 L 444 162 L 1061 162 L 936 272 C 855.33333333333 344.66666666667 815 417 815 489 C 815 561.66666666667 839.33333333333 618.33333333333 888 659 C 936 699 1004.66666666667 719 1094 719 L 1559 719 L 1505 557 L 1096 557 C 1034.66666666667 557 1004 532.33333333333 1004 483 C 1004 455 1038 412 1106 354 L 1378 111 L 1341 0 L 188 0 L 616 1300 Z"/>
    <path fill="#000000" stroke="none" transform="matrix(1 0 0 -1 12410 2689)" d="M 207 813 L 461 813 L 627 1300 L 154 1300 L 207 1462 L 874 1462 L 657 813 L 897 813 L 844 651 L 604 651 L 387 0 L 188 0 L 408 651 L 154 651 L 207 813 Z M 1034 813 L 1288 813 L 1454 1300 L 981 1300 L 1034 1462 L 1702 1462 L 1485 813 L 1724 813 L 1671 651 L 1432 651 L 1214 0 L 1016 0 L 1235 651 L 981 651 L 1034 813 Z"/>
    <path fill="#000000" stroke="none" transform="matrix(1 0 0 -1 14042 2689)" d="M 1761 1098 L 1401 0 L 1200 0 L 997 586 L 805 0 L 68 0 L 383 936 L 74 936 L 127 1098 L 635 1098 L 319 162 L 662 162 L 1085 1462 L 1284 1462 L 1092 874 L 1292 279 L 1563 1098 L 1761 1098 Z"/>
    <path fill="#000000" stroke="none" transform="matrix(1 0 0 -1 15822 2689)" d="M 1085 1462 L 1284 1462 L 1165 1098 L 1745 1098 L 1384 0 L 1184 0 L 1489 936 L 1112 936 L 805 0 L 68 0 L 383 936 L 74 936 L 127 1098 L 635 1098 L 319 162 L 662 162 L 1085 1462 Z"/>
    <path fill="#000000" stroke="none" transform="matrix(1 0 0 -1 17585 2689)" d="M 1098 971 L 1186 971 L 1683 276 L 2030 1300 L 1419 1300 L 1386 1206 L 1190 1206 L 1276 1462 L 2281 1462 L 1794 0 L 1667 0 L 1188 662 L 971 0 L 172 0 L 602 1300 L 156 1300 L 209 1462 L 854 1462 L 424 162 L 827 162 L 1098 971 Z"/>
    <path fill="#000000" stroke="none" transform="matrix(1 0 0 -1 19791 2689)" d="M 3357 1098 L 2996 0 L 2796 0 L 2593 586 L 2400 0 L 1663 0 L 1882 651 L 1343 651 L 1126 0 L 928 0 L 1147 651 L 604 651 L 387 0 L 188 0 L 408 651 L 154 651 L 207 813 L 461 813 L 627 1300 L 154 1300 L 207 1462 L 1614 1462 L 1397 813 L 2134 813 L 1915 162 L 2257 162 L 2681 1462 L 2879 1462 L 2687 874 L 2888 279 L 3158 1098 L 3357 1098 Z M 819 1300 L 657 813 L 1200 813 L 1366 1300 L 819 1300 Z"/>
    <path fill="#000000" stroke="none" transform="matrix(1 0 0 -1 23696 2689)" d="M 190 0 L 618 1300 L 152 1300 L 205 1462 L 877 1462 L 446 162 L 1149 162 L 1280 557 L 911 557 L 965 719 L 1524 719 L 1288 0 L 190 0 Z"/>
    <path fill="#000000" stroke="none" transform="matrix(1 0 0 -1 25336 2689)" d="M 1161 330 L 242 330 L 561 1300 L 199 1300 L 252 1462 L 819 1462 L 498 492 L 1012 492 L 1278 1300 L 918 1300 L 971 1462 L 1536 1462 L 1161 330 Z M 184 162 L 1104 162 L 1051 0 L 131 0 L 184 162 Z"/>
    <path fill="#000000" stroke="none" transform="matrix(1 0 0 -1 26794 2689)" d="M 881 971 L 969 971 L 1466 276 L 1812 1300 L 1202 1300 L 1169 1206 L 973 1206 L 1059 1462 L 2064 1462 L 1577 0 L 1450 0 L 971 662 L 754 0 L -45 0 L 438 1462 L 823 1462 L 772 1300 L 582 1300 L 207 162 L 610 162 L 881 971 Z"/>
    <path fill="#000000" stroke="none" transform="matrix(1 0 0 -1 28781 2689)" d="M 205 674 L 688 674 L 786 971 L 133 971 L 186 1133 L 1040 1133 L 889 674 L 1102 674 L 1049 512 L 836 512 L 668 0 L 465 0 L 635 512 L 152 512 L 205 674 Z M 205 1462 L 1149 1462 L 1096 1300 L 152 1300 L 205 1462 Z"/>
    <path fill="#000000" stroke="none" transform="matrix(1 0 0 -1 29877 2689)" d="M 807 715 L 854 864 L 1325 1300 L 719 1300 L 770 1462 L 1626 1462 L 1612 1335 L 1104 864 C 1203.33333333333 864 1293.66666666667 846.33333333333 1375 811 C 1456.33333333333 775 1519.66666666667 725.66666666667 1565 663 C 1609.66666666667 600.33333333333 1632 531.66666666667 1632 457 C 1632 355.66666666667 1608 268.33333333333 1560 195 C 1512 121 1442 65.66666666667 1350 29 C 1258 -8.33333333333 1147.33333333333 -27 1018 -27 C 840.66666666667 -27 688 5.33333333333 560 70 C 432 134.66666666667 333.66666666667 230.33333333333 265 357 C 196.33333333333 483 162 633 162 807 C 162 915 177.66666666667 1023 209 1131 C 240.33333333333 1239 284 1334.33333333333 340 1417 L 386 1484 L 403 1507 L 621 1507 L 553 1409 C 482.33333333333 1309 432.66666666667 1210.66666666667 404 1114 C 374.66666666667 1017.33333333333 360 915 360 807 C 360 598.33333333333 417.33333333333 435.33333333333 532 318 C 646.66666666667 200 808.66666666667 141 1018 141 C 1146.66666666667 141 1247 169.33333333333 1319 226 C 1391 282 1427 359 1427 457 C 1427 535.66666666667 1387.33333333333 598.33333333333 1308 645 C 1228.66666666667 691.66666666667 1125.66666666667 715 999 715 L 807 715 Z"/>
    <path fill="#000000" stroke="none" transform="matrix(1 0 0 -1 31661 2689)" d="M 287 0 L 340 162 L 768 162 L 1145 1300 L 586 1300 L 395 725 L 625 725 L 571 563 L 141 563 L 436 1462 L 1405 1462 L 971 162 L 1417 162 L 1847 1462 L 2810 1462 L 2519 582 L 2071 582 L 2124 743 L 2372 743 L 2552 1300 L 1995 1300 L 1620 162 L 2077 162 L 2023 0 L 287 0 Z"/>
    <path fill="#000000" stroke="none" transform="matrix(1 0 0 -1 34929 2689)" d="M 623 1300 L 414 1300 L 526 1016 L 623 1300 Z M 825 162 L 938 477 C 960.66666666667 541 987.33333333333 590.33333333333 1018 625 C 1048 659.66666666667 1085.66666666667 686.33333333333 1131 705 C 1176.33333333333 723.66666666667 1230.66666666667 733 1294 733 C 1371.33333333333 733 1435.33333333333 713.33333333333 1486 674 C 1536 634.66666666667 1561 585 1561 525 C 1561 499.66666666667 1556 472 1546 442 L 1399 0 L 1208 0 L 1329 375 C 1333 387.66666666667 1337.33333333333 401.33333333333 1342 416 C 1346.66666666667 430.66666666667 1350.33333333333 445.33333333333 1353 460 C 1355.66666666667 474.66666666667 1357 489 1357 503 C 1355.66666666667 549.66666666667 1325.33333333333 573 1266 573 C 1232 573 1203.66666666667 563 1181 543 C 1157.66666666667 522.33333333333 1137.33333333333 486 1120 434 L 969 0 L 188 0 L 446 770 L 168 1462 L 877 1462 L 444 162 L 825 162 Z"/>
    <path fill="#000000" stroke="none" transform="matrix(1 0 0 -1 36576 2689)" d="M 387 0 L 184 0 L 403 651 L 154 651 L 207 813 L 457 813 L 623 1300 L 154 1300 L 207 1462 L 1702 1462 L 1214 0 L 1012 0 L 1231 651 L 604 651 L 387 0 Z M 819 1300 L 657 813 L 1284 813 L 1450 1300 L 819 1300 Z"/>
    <path fill="#000000" stroke="none" transform="matrix(1 0 0 -1 38208 2689)" d="M 195 1300 L 248 1462 L 926 1462 L 553 330 C 679 214 776.66666666667 156 846 156 C 884 156 916.33333333333 167 943 189 C 969 210.33333333333 994.66666666667 246 1020 296 C 1044.66666666667 345.33333333333 1072.66666666667 416.66666666667 1104 510 L 1419 1462 L 1620 1462 L 1262 383 C 1224.66666666667 267 1189 182 1155 128 C 1120.33333333333 73.33333333333 1080 33.66666666667 1034 9 C 987.33333333333 -16.33333333333 930 -29 862 -29 C 801.33333333333 -29 740 -15.66666666667 678 11 C 616 37 549.66666666667 79.66666666667 479 139 C 445.66666666667 80.33333333333 407 38 363 12 C 319 -14 266.33333333333 -27 205 -27 C 124.33333333333 -27 60 -5 12 39 C -36.66666666667 82.33333333333 -61 141 -61 215 C -61 295.66666666667 -35.66666666667 360 15 408 C 65.66666666667 455.33333333333 131.66666666667 479 213 479 C 243.66666666667 479 275.33333333333 475 308 467 C 340 459 366.33333333333 448.66666666667 387 436 L 668 1300 L 195 1300 Z M 207 121 C 265 121 309.33333333333 170 340 268 C 300 305.33333333333 256.33333333333 324 209 324 C 179 324 153.33333333333 315.33333333333 132 298 C 110.66666666667 280 100 255.66666666667 100 225 C 100 194.33333333333 109 169.33333333333 127 150 C 145 130.66666666667 171.66666666667 121 207 121 Z"/>
    <path fill="#000000" stroke="none" transform="matrix(1 0 0 -1 39744 2689)" d="M 1214 0 L 190 0 L 618 1300 L 154 1300 L 207 1462 L 877 1462 L 446 162 L 1065 162 L 1440 1300 L 975 1300 L 1028 1462 L 1698 1462 L 1214 0 Z"/>
    <path fill="#000000" stroke="none" transform="matrix(1 0 0 -1 41368 2689)" d="M 618 1300 L 141 1300 L 195 1462 L 877 1462 L 444 162 L 717 162 L 958 848 L 1143 848 L 1440 0 L 1247 0 L 1051 582 L 860 0 L 190 0 L 618 1300 Z M 1507 848 L 1804 0 L 1614 0 L 1313 848 L 1507 848 Z"/>
    <path fill="#000000" stroke="none" transform="matrix(1 0 0 -1 43074 2689)" d="M 387 0 L 184 0 L 623 1300 L 154 1300 L 207 1462 L 874 1462 L 387 0 Z M 1214 0 L 1012 0 L 1450 1300 L 981 1300 L 1034 1462 L 1702 1462 L 1214 0 Z"/>
    <path fill="#000000" stroke="none" transform="matrix(1 0 0 -1 45230 2689)" d="M 1061 848 L 1277 232 L 1356 0 L 1161 0 L 967 582 L 776 0 L -45 0 L 438 1462 L 1051 1462 L 997 1300 L 582 1300 L 207 162 L 631 162 L 811 668 L 872 848 L 1061 848 Z"/>
    <path fill="#000000" stroke="none" transform="matrix(1 0 0 -1 46508 2689)" d="M 238 1188 L 537 1188 L 573 1300 L 272 1300 L 326 1462 L 831 1462 L 346 0 L 145 0 L 483 1026 L 184 1026 L 238 1188 Z"/>
    <path fill="#000000" stroke="none" transform="matrix(1 0 0 -1 47253 2689)" d="M 438 1462 L 1051 1462 L 997 1300 L 582 1300 L 207 162 L 997 162 L 1128 557 L 707 557 L 760 719 L 1372 719 L 1137 0 L -45 0 L 438 1462 Z"/>
    <path fill="#000000" stroke="none" transform="matrix(1 0 0 -1 48654 2689)" d="M 758 162 L 846 422 L 1038 422 L 899 0 L -45 0 L 438 1462 L 889 1462 L 836 1300 L 582 1300 L 207 162 L 758 162 Z"/>
    <path fill="#000000" stroke="none" transform="matrix(1 0 0 -1 49803 2689)" d="M 1186 864 C 1285.33333333333 864 1375.66666666667 846.33333333333 1457 811 C 1538.33333333333 775 1601.66666666667 725.66666666667 1647 663 C 1691.66666666667 600.33333333333 1714 531.66666666667 1714 457 C 1714 357 1686.66666666667 270 1632 196 C 1576.66666666667 122 1498.66666666667 66.33333333333 1398 29 C 1297.33333333333 -8.33333333333 1176.66666666667 -27 1036 -27 C 754.66666666667 -27 538.66666666667 46 388 192 C 237.33333333333 338 162 543 162 807 C 162 915 177.66666666667 1023 209 1131 C 240.33333333333 1239 284 1334.33333333333 340 1417 L 386 1484 L 403 1507 L 621 1507 L 553 1409 C 482.33333333333 1309 432.66666666667 1210.66666666667 404 1114 C 374.66666666667 1017.33333333333 360 915 360 807 C 360 591 418 426 534 312 C 650 198 817.33333333333 141 1036 141 C 1132 141 1215.66666666667 154.33333333333 1287 181 C 1358.33333333333 207 1413.33333333333 244.33333333333 1452 293 C 1490 341 1509 395.66666666667 1509 457 C 1509 535.66666666667 1469.33333333333 598.33333333333 1390 645 C 1310.66666666667 691.66666666667 1207.66666666667 715 1081 715 L 889 715 L 936 864 L 1407 1300 L 801 1300 L 852 1462 L 1708 1462 L 1694 1335 L 1409 1071 C 1486.33333333333 1091.66666666667 1547.66666666667 1102 1593 1102 C 1638.33333333333 1102 1677.66666666667 1095.33333333333 1711 1082 C 1743.66666666667 1068.66666666667 1769.33333333333 1051 1788 1029 C 1806 1006.33333333333 1815 982.66666666667 1815 958 C 1815 932.66666666667 1806.66666666667 912.33333333333 1790 897 C 1773.33333333333 881.66666666667 1751.33333333333 874 1724 874 C 1701.33333333333 874 1682.66666666667 879.66666666667 1668 891 C 1653.33333333333 902.33333333333 1637.66666666667 915 1621 929 C 1604.33333333333 942.33333333333 1584.66666666667 954.66666666667 1562 966 C 1539.33333333333 977.33333333333 1508.66666666667 983 1470 983 C 1417.33333333333 983 1368.33333333333 974 1323 956 C 1277 937.33333333333 1231.33333333333 906.66666666667 1186 864 Z"/>
    <path fill="#000000" stroke="none" transform="matrix(1 0 0 -1 51669 2689)" d="M 1231 0 L 1028 0 L 1458 1300 L 1122 1300 L 694 0 L 492 0 L 922 1300 L 586 1300 L 156 0 L -47 0 L 436 1462 L 1710 1462 L 1231 0 Z"/>
</svg>
