<svg width="24662" height="3909" viewBox="0 0 24662 3909" xmlns="http://www.w3.org/2000/svg">
    <defs/>
    <g transform="matrix(1 0 0 -1 0 3909)">
        <g transform="matrix(1 0 0 1 0 1220)">
            <path fill="#000000" stroke="none" d="M 106 811 Q 154 956 269.5 1037 Q 385 1118 547 1118 Q 761 1118 881 1006 Q 1001 894 1001 694 Q 1001 349 647 152 L 1090 152 L 1090 0 L 238 0 L 238 129 Q 819 262 819 698 Q 819 817 744 892 Q 669 967 547 967 Q 453 967 380 907.5 Q 307 848 276 750 L 106 811 Z"/>
        </g>
        <g transform="matrix(1 0 0 1 1716 1220)">
            <path fill="#000000" stroke="none" d="M 727 694 Q 727 450 577.5 279.5 Q 428 109 98 -20 L 98 139 Q 332 241 436.5 369.5 Q 541 498 541 698 Q 541 815 469.5 891 Q 398 967 285 967 Q 193 967 104 928 L 104 1079 Q 178 1118 285 1118 Q 493 1118 612 1001 Q 769 1118 975 1118 Q 1166 1118 1276 1006.5 Q 1386 895 1386 694 Q 1386 474 1213.5 278.5 Q 1041 83 764 -20 L 764 139 Q 982 256 1091 393.50003 Q 1200 531 1200 698 Q 1200 820 1136 893.49994 Q 1072 967 961 967 Q 829 967 692 879 Q 727 794 727 694 Z"/>
        </g>
        <g transform="matrix(1 0 0 1 3213 1220)">
            <path fill="#000000" stroke="none" d="M 422 170 Q 303 381 234 623 Q 165 865 158 1098 L 336 1098 Q 340 871 411 627.5 Q 482 384 598 193 Q 547 28 459.5 -101 Q 372 -230 252 -340 L 940 -340 L 940 -492 L 0 -492 L 0 -354 Q 310 -158 422 170 Z"/>
        </g>
        <g transform="matrix(1 0 0 1 4034 1220)">
            <path fill="#000000" stroke="none" d="M 545 295 Q 512 155 444.5 9 Q 377 -137 242 -340 L 973 -340 L 973 -492 L 20 -492 L 20 -354 Q 126 -232 219.49998 -55.5 Q 313 121 362 289 Q 344 483 275.5 705.50006 Q 207 928 113 1098 L 315 1098 Q 372 990 428 815 Q 489 884 584 925.49994 Q 679 967 774 967 Q 904 967 1007.5 911.5 Q 1111 856 1167 754.5 Q 1223 653 1223 522 Q 1223 404 1156.5 300 Q 1090 196 975 111 L 846 223 Q 933 274 984.5 357.5 Q 1036 441 1036 522 Q 1036 651 962 729 Q 888 807 770 807 Q 678 807 600 763 Q 522 719 477 641 Q 524 453 545 295 Z"/>
        </g>
        <g transform="matrix(1 0 0 1 5363 1220)">
            <path fill="#000000" stroke="none" d="M 287 967 Q 242 967 191.5 954 Q 141 941 115 928 L 63 1075 Q 105 1095 167 1106.5 Q 229 1118 287 1118 Q 466 1118 562.5 1047.5 Q 659 977 659 844 Q 659 742 593.5 661 Q 528 580 373 485 Q 548 415 639.5 307 Q 731 199 731 61 Q 731 -57 654.5 -168.5 Q 578 -280 459 -340 L 901 -340 L 901 -492 L 49 -492 L 49 -362 Q 285 -308 415 -199 Q 545 -90 545 59 Q 545 140 496 210.5 Q 447 281 362 330 Q 277 379 182 393 L 182 545 Q 288 598 351.5 644.5 Q 415 691 445 736.50006 Q 475 782 475 844 Q 475 967 287 967 Z"/>
        </g>
        <g transform="matrix(1 0 0 1 6324 1220)">
            <path fill="#000000" stroke="none" d="M 123 1083 Q 215 1118 336 1118 Q 515 1118 622 1003 Q 729 888 729 694 Q 729 412 414 152 L 840 152 Q 1196 399 1196 698 Q 1196 818 1136.5 888 Q 1077 958 973 958 Q 886 958 834 934 L 778 1083 Q 870 1118 991 1118 Q 1170 1118 1277 1003 Q 1384 888 1384 694 Q 1384 547 1304.5 409 Q 1225 271 1069 152 L 1460 152 L 1460 0 L 152 0 L 152 137 Q 541 389 541 698 Q 541 816 481.5 887 Q 422 958 317 958 Q 230 958 178 934 L 123 1083 Z"/>
        </g>
        <g transform="matrix(1 0 0 1 8157 1220)">
            <path fill="#000000" stroke="none" d="M 362 -143 L 362 688 L 543 688 L 543 -295 L -1079 -295 L -1079 -143 L 362 -143 Z"/>
        </g>
        <g transform="matrix(1 0 0 1 9406 1220)">
            <path fill="#000000" stroke="none" d="M 1378 739 Q 1203 739 1055 807 L 1055 289 Q 1055 210 1066 182 Q 1077 154 1104 142.5 Q 1131 131 1182 131 Q 1273 131 1391 152 L 1391 0 Q 1271 -20 1169 -20 Q 1054 -20 991 10 Q 928 40 901 107.5 Q 874 175 874 299 L 874 901 Q 747 967 637 967 Q 476 967 390.49997 876 Q 305 785 305 608 Q 305 478 348 315 Q 391 152 469 0 L 285 0 Q 215 123 169 294.5 Q 123 466 123 608 Q 123 842 257 980 Q 391 1118 612 1118 Q 715 1118 811 1090 Q 907 1062 1010 1005 Q 1115 946 1202.5 918.5 Q 1290 891 1382 891 Q 1453 891 1494.5 933.5 Q 1536 976 1536 1038 Q 1536 1071 1528 1098 L 1710 1098 Q 1718 1055 1718 1034 Q 1718 898 1626 818.5 Q 1534 739 1378 739 Z"/>
        </g>
        <g transform="matrix(1 0 0 1 11165 1220)">
            <path fill="#000000" stroke="none" d="M 328 967 Q 283 967 232.5 954 Q 182 941 156 928 L 104 1075 Q 146 1095 208 1106.5 Q 270 1118 328 1118 Q 507 1118 603.5 1047.5 Q 700 977 700 844 Q 700 741 626 658 Q 552 575 387 489 Q 598 421 709.5 290 Q 821 159 821 -20 Q 821 -216 665.5 -323 Q 510 -430 236 -430 Q 172 -430 85.5 -419.5 Q -1 -409 -51 -395 L -51 -244 Q -6 -256 83.5 -267.5 Q 173 -279 244 -279 Q 429 -279 531 -211 Q 633 -143 633 -20 Q 633 129 523.5 242 Q 414 355 223 403 L 223 545 Q 329 601 392.50003 649.5 Q 456 698 486 742 Q 516 786 516 844 Q 516 967 328 967 Z"/>
        </g>
        <g transform="matrix(1 0 0 1 12064 1220)">
            <path fill="#000000" stroke="none" d="M 659 942 Q 586 967 512 967 Q 428 967 386 916 Q 344 865 344 778 Q 344 710 378 654 Q 412 598 476 538.5 Q 540 479 717 350 L 717 164 Q 429 -20 86 -20 L 86 139 Q 329 139 561 254 Q 379 391 309 463.5 Q 239 536 201.5 610 Q 164 684 164 772 Q 164 930 260 1024 Q 356 1118 512 1118 Q 615 1118 705 1090 L 659 942 Z"/>
        </g>
        <g transform="matrix(1 0 0 1 12904 1220)">
            <path fill="#000000" stroke="none" d="M 1120 152 L 1266 152 L 1266 0 L 1120 0 L 1120 -246 L 940 -246 L 940 0 L 733 0 Q 433 0 273 142 Q 113 284 113 549 Q 113 817 243 967.5 Q 373 1118 610 1118 Q 879 1118 999.5 957.49994 Q 1120 797 1120 432 L 1120 152 Z M 940 434 Q 940 720 863.49994 843.5 Q 787 967 612 967 Q 299 967 299 547 Q 299 341 416 246.5 Q 533 152 756 152 L 940 152 L 940 434 Z"/>
        </g>
        <g transform="matrix(1 0 0 1 14219 1220)">
            <path fill="#000000" stroke="none" d="M 1501 522 Q 1521 481 1533.5 421 Q 1546 361 1546 307 Q 1546 150 1452 66 Q 1358 -18 1192 -18 Q 1077 -18 997.5 30 Q 918 78 876 162 Q 834 246 834 350 Q 834 415 847.5 464.5 Q 861 514 877 557.5 Q 893 601 906.5 644 Q 920 687 920 739 Q 920 847 866.50006 907 Q 813 967 721 967 Q 628 967 578 906 Q 528 845 528 737 Q 528 687 539 645.5 Q 550 604 563.5 560.5 Q 577 517 588.5 466 Q 600 415 600 348 Q 600 177 488 78.5 Q 376 -20 182 -20 Q 88 -20 10 0 L 10 158 Q 87 131 182 131 Q 304 131 362 183 Q 420 235 420 344 Q 420 402 408.50003 452 Q 397 502 383.5 548.5 Q 370 595 359 640.5 Q 348 686 348 737 Q 348 918 444 1018 Q 540 1118 723 1118 Q 903 1118 1001.5 1018.5 Q 1100 919 1100 739 Q 1100 689 1085.5 640.5 Q 1071 592 1054 543.5 Q 1037 495 1022.49994 446.5 Q 1008 398 1008 348 Q 1008 252 1058.5 192.5 Q 1109 133 1192 133 Q 1366 133 1366 307 Q 1366 426 1317 522 L 1501 522 Z"/>
        </g>
        <g transform="matrix(1 0 0 1 15851 1220)">
            <path fill="#000000" stroke="none" d="M 862 152 Q 790 363 647 610 L 408 1028 L 563 1118 L 803 700 Q 914 503 976.5 349 Q 1039 195 1087 0 L 31 0 L 31 152 L 862 152 Z"/>
        </g>
        <g transform="matrix(1 0 0 1 17630 1220)">
            <path fill="#000000" stroke="none" d="M 393 967 Q 212 967 74 854 L -16 987 Q 77 1055 176 1086.5 Q 275 1118 397 1118 Q 619 1118 741.5 1006 Q 864 894 864 694 Q 864 461 685 270.5 Q 506 80 186 -20 L 186 145 Q 442 255 560 386.5 Q 678 518 678 698 Q 678 820 599.5 893.49994 Q 521 967 393 967 Z"/>
        </g>
        <g transform="matrix(1 0 0 1 18627 1220)">
            <path fill="#000000" stroke="none" d="M 10 891 Q 117 963 223 1012 Q 195 1068 186.5 1106 Q 178 1144 178 1196 Q 178 1259 203.49998 1337 Q 229 1415 262 1462 L 422 1462 Q 338 1330 338 1200 Q 338 1141 373 1071 Q 525 1118 664 1118 Q 918 1118 1062 966.5 Q 1206 815 1206 551 Q 1206 283 1059 131.5 Q 912 -20 664 -20 Q 520 -20 390 18.5 Q 260 57 178 127 L 178 254 L 453 582 L 295 874 Q 193 824 96 760 L 10 891 Z M 334 201 Q 486 129 664 129 Q 837 129 928.50006 235.49998 Q 1020 342 1020 551 Q 1020 745 925.49994 856 Q 831 967 664 967 Q 553 967 444 932 L 639 563 L 334 201 Z"/>
        </g>
        <g transform="matrix(1 0 0 1 19944 1220)">
            <path fill="#000000" stroke="none" d="M 547 526 Q 547 440 496.5 332 Q 446 224 369 152 L 844 152 L 844 0 L 143 0 L 143 121 Q 262 227 311 317.5 Q 360 408 360 526 Q 360 587 332 645 Q 304 703 237 788 Q 113 941 113 1126 Q 113 1335 249.5 1456 Q 386 1577 627 1577 Q 712 1577 792 1558.5 Q 872 1540 915 1518 L 860 1374 Q 724 1425 623 1425 Q 299 1425 299 1122 Q 299 1050 329 982 Q 359 914 423 834 Q 486 754 516.5 679.5 Q 547 605 547 526 Z"/>
        </g>
        <g transform="matrix(1 0 0 1 20839 1220)">
            <path fill="#000000" stroke="none" d="M 356 563 Q 408 575 467 575 Q 665 575 783 461 Q 901 347 901 160 Q 901 -23 794 -142.5 Q 687 -262 469 -307 Q 331 -334 238.5 -374.49997 Q 146 -415 57 -492 L 57 -293 Q 187 -201 406 -158 Q 567 -126 641 -51 Q 715 24 715 158 Q 715 285 637 354.5 Q 559 424 424 424 Q 361 424 288.5 402.5 Q 216 381 176 350 L 176 1556 L 356 1556 L 356 563 Z"/>
        </g>
        <g transform="matrix(1 0 0 1 21826 1220)">
            <path fill="#000000" stroke="none" d="M 30 152 L 505 152 L 300 1098 L 486 1098 L 691 152 L 1088 152 L 1088 1098 L 1269 1098 L 1269 0 L 30 0 L 30 152 Z"/>
        </g>
        <g transform="matrix(1 0 0 1 23269 1220)">
            <path fill="#000000" stroke="none" d="M 645 184 Q 643 12 569.5 -115 Q 496 -242 362 -340 L 987 -340 L 987 -492 L 102 -492 L 102 -362 Q 240 -254 310 -182 Q 380 -110 413.5 -43.5 Q 447 23 457 119 Q 324 226 247.5 319.5 Q 171 413 138.5 507 Q 106 601 106 733 Q 106 840 157.5 929 Q 209 1018 300.5 1068 Q 392 1118 504 1118 Q 663 1118 753.5 1030 Q 844 942 844 784 Q 844 653 879.5 600 Q 915 547 999 547 Q 1070 547 1104.5 599 Q 1139 651 1139 766 Q 1139 845 1130 901 L 1296 901 Q 1307 844 1307 766 Q 1307 588 1227 491.5 Q 1147 395 993 395 Q 684 395 684 741 Q 684 855 638.5 911 Q 593 967 496 967 Q 401 967 344 902 Q 287 837 287 729 Q 287 586 366.5 462.5 Q 446 339 645 184 Z"/>
        </g>
    </g>
</svg>
