<svg width="36259" height="3789" viewBox="0 0 36259 3789" xmlns="http://www.w3.org/2000/svg">
    <defs/>
    <g transform="matrix(1 0 0 -1 0 3789)">
        <g transform="matrix(1 0 0 1 0 1100)">
            <path fill="#000000" stroke="none" d="M 640 1204 Q 750 1174 820 1087 Q 890 1000 890 891 Q 890 784 820 696 Q 750 608 640 579 L 640 0 L 470 0 L 470 579 Q 361 608 290.5 695.5 Q 220 783 220 891 Q 220 997 289.5 1085.5 Q 359 1174 470 1204 L 470 1760 L 640 1760 L 640 1204 Z M 385 892 Q 385 822 436 772.5 Q 487 723 555 723 Q 625 723 675 772.5 Q 725 822 725 892 Q 725 963 675 1012 Q 625 1061 555 1061 Q 487 1061 436 1012 Q 385 963 385 892 Z"/>
        </g>
        <g transform="matrix(1 0 0 1 1110 1100)">
            <path fill="#000000" stroke="none" d="M 160 881 Q 160 1011 259 1108.5 Q 358 1206 495 1206 Q 582 1206 660 1162.5 Q 738 1119 784 1043 Q 830 967 830 881 Q 830 795 784 720 Q 738 645 660.5 601.5 Q 583 558 495 558 Q 408 558 330.5 601.5 Q 253 645 206.5 720.5 Q 160 796 160 881 Z M 325 882 Q 325 812 376 762.5 Q 427 713 495 713 Q 565 713 615 762.5 Q 665 812 665 882 Q 665 953 615 1002 Q 565 1051 495 1051 Q 427 1051 376 1002 Q 325 953 325 882 Z"/>
        </g>
        <g transform="matrix(1 0 0 1 2100 1100)">
            <path fill="#000000" stroke="none" d="M 1160 1760 L 1160 1415 Q 1160 1238 1063.5 1137.5 Q 967 1037 775 1019 L 775 0 L 605 0 L 605 1020 Q 413 1038 316.5 1138 Q 220 1238 220 1415 L 220 1760 L 390 1760 L 390 1422 Q 390 1293 463.5 1232 Q 537 1171 690 1171 Q 844 1171 917 1231.5 Q 990 1292 990 1422 L 990 1760 L 1160 1760 Z"/>
        </g>
        <g transform="matrix(1 0 0 1 3480 1100)">
            <path fill="#000000" stroke="none" d="M 655 440 L 955 0 L 760 0 L 557 297 L 355 0 L 160 0 L 460 440 L 160 880 L 460 1320 L 160 1761 L 355 1761 L 557 1463 L 760 1761 L 955 1761 L 655 1320 L 955 880 L 655 440 Z M 557 1177 L 355 880 L 557 583 L 759 880 L 557 1177 Z"/>
        </g>
        <g transform="matrix(1 0 0 1 4595 1100)">
            <path fill="#000000" stroke="none" d="M 940 0 L 770 0 L 770 530 L 390 530 L 390 0 L 220 0 L 220 1760 L 390 1760 L 390 1280 L 770 1280 L 770 1760 L 940 1760 L 940 0 Z M 390 680 L 770 680 L 770 1130 L 390 1130 L 390 680 Z"/>
        </g>
        <g transform="matrix(1 0 0 1 6287 1100)">
            <path fill="#000000" stroke="none" d="M 160 171 L 578 483 L 578 496 L 160 850 L 160 910 L 578 1264 L 578 1277 L 160 1589 L 160 1790 L 818 1301 L 818 1241 L 388 880 L 818 519 L 818 459 L 160 -30 L 160 171 Z"/>
        </g>
        <g transform="matrix(1 0 0 1 7265 1100)">
            <path fill="#000000" stroke="none" d="M 120 1465 Q 120 1595 219 1692.5 Q 318 1790 455 1790 Q 542 1790 620 1746.5 Q 698 1703 744 1627 Q 790 1551 790 1465 Q 790 1358 720 1270 Q 650 1182 540 1153 L 540 940 L 1090 940 L 1090 0 L 920 0 L 920 790 L 540 790 L 540 0 L 370 0 L 370 1153 Q 261 1182 190.5 1269.5 Q 120 1357 120 1465 Z M 285 1466 Q 285 1396 336 1346.5 Q 387 1297 455 1297 Q 525 1297 575 1346.5 Q 625 1396 625 1466 Q 625 1537 575 1586 Q 525 1635 455 1635 Q 387 1635 336 1586 Q 285 1537 285 1466 Z"/>
        </g>
        <g transform="matrix(1 0 0 1 8575 1100)">
            <path fill="#000000" stroke="none" d="M 660 1080 L 975 1760 L 1160 1760 L 753 879 L 1160 0 L 974 0 L 660 678 L 346 0 L 160 0 L 567 879 L 160 1760 L 345 1760 L 660 1080 Z"/>
        </g>
        <g transform="matrix(1 0 0 1 9895 1100)">
            <path fill="#000000" stroke="none" d="M 940 0 L 770 0 L 770 1610 L 390 1610 L 390 0 L 220 0 L 220 1760 L 940 1760 L 940 0 Z"/>
        </g>
        <g transform="matrix(1 0 0 1 11055 1100)">
            <path fill="#000000" stroke="none" d="M 390 1040 L 800 1040 L 800 0 L 630 0 L 630 890 L 220 890 L 220 1760 L 390 1760 L 390 1040 Z"/>
        </g>
        <g transform="matrix(1 0 0 1 12075 1100)">
            <path fill="#000000" stroke="none" d="M 940 0 L 770 0 L 770 850 L 390 850 L 390 0 L 220 0 L 220 1000 L 495 1000 L 495 1760 L 665 1760 L 665 1000 L 940 1000 L 940 0 Z"/>
        </g>
        <g transform="matrix(1 0 0 1 13767 1100)">
            <path fill="#000000" stroke="none" d="M 758 0 L 588 0 L 588 699 L 175 413 L 120 413 L 120 1396 L 175 1396 L 588 1110 L 588 1760 L 758 1760 L 758 0 Z M 290 1124 L 290 685 L 588 900 L 588 913 L 290 1124 Z"/>
        </g>
        <g transform="matrix(1 0 0 1 14745 1100)">
            <path fill="#000000" stroke="none" d="M 1160 1760 L 1160 1415 Q 1160 1238 1063.5 1138 Q 967 1038 775 1020 L 775 650 L 1125 650 L 1125 0 L 955 0 L 955 500 L 605 500 L 605 1020 Q 413 1038 316.5 1138 Q 220 1238 220 1415 L 220 1760 L 390 1760 L 390 1422 Q 390 1293 463.5 1232 Q 537 1171 690 1171 Q 844 1171 917 1231.5 Q 990 1292 990 1422 L 990 1760 L 1160 1760 Z"/>
        </g>
        <g transform="matrix(1 0 0 1 16125 1100)">
            <path fill="#000000" stroke="none" d="M 775 1176 Q 876 1190 933 1247.5 Q 990 1305 990 1422 L 990 1760 L 1160 1760 L 1160 1415 Q 1160 1238 1063.5 1137.5 Q 967 1037 775 1019 L 775 0 L 605 0 L 605 1020 Q 413 1038 316.5 1138 Q 220 1238 220 1415 L 220 1760 L 390 1760 L 390 1422 Q 390 1305 447 1247.5 Q 504 1190 605 1176 L 605 1760 L 775 1760 L 775 1176 Z"/>
        </g>
        <g transform="matrix(1 0 0 1 17505 1100)">
            <path fill="#000000" stroke="none" d="M 160 873 Q 160 993 219.49998 1089.5 Q 279 1186 388.5 1241 Q 498 1296 640 1296 Q 782 1296 892.49994 1241.5 Q 1003 1187 1063.5 1090 Q 1124 993 1124 873 Q 1124 754 1063 657.5 Q 1002 561 891.5 507.5 Q 781 454 640 454 Q 499 454 389.5 507.5 Q 280 561 220 657 Q 160 753 160 873 Z M 325 874 Q 325 770 386.5 700.49994 Q 448 631 557 613 L 557 1137 Q 445 1116 385 1046 Q 325 976 325 874 Z M 959 874 Q 959 977 898.50006 1046 Q 838 1115 727 1136 L 727 613 Q 838 633 898.50006 702.49994 Q 959 772 959 874 Z"/>
        </g>
        <g transform="matrix(1 0 0 1 18789 1100)">
            <path fill="#000000" stroke="none" d="M 940 0 L 770 0 L 770 850 L 390 850 L 390 0 L 220 0 L 220 1000 L 495 1000 L 495 1273 L 220 1273 L 220 1760 L 390 1760 L 390 1423 L 665 1423 L 665 1000 L 940 1000 L 940 0 Z"/>
        </g>
        <g transform="matrix(1 0 0 1 19949 1100)">
            <path fill="#000000" stroke="none" d="M 120 1760 L 765 1760 L 765 0 L 595 0 L 595 1610 L 120 1610 L 120 1760 Z"/>
        </g>
        <g transform="matrix(1 0 0 1 21466 1100)">
            <path fill="#000000" stroke="none" d="M 990 0 L 990 338 Q 990 553 775 583 L 775 0 L 605 0 L 605 583 Q 390 553 390 338 L 390 0 L 220 0 L 220 345 Q 220 522 316.5 622 Q 413 722 605 740 L 605 1153 Q 496 1182 425.50003 1269.5 Q 355 1357 355 1465 Q 355 1595 454 1692.5 Q 553 1790 690 1790 Q 777 1790 855 1746.5 Q 933 1703 979 1627 Q 1025 1551 1025 1465 Q 1025 1358 955 1270 Q 885 1182 775 1153 L 775 740 Q 967 722 1063.5 622 Q 1160 522 1160 345 L 1160 0 L 990 0 Z M 520 1466 Q 520 1396 571 1346.5 Q 622 1297 690 1297 Q 760 1297 810 1346.5 Q 860 1396 860 1466 Q 860 1537 810 1586 Q 760 1635 690 1635 Q 622 1635 571 1586 Q 520 1537 520 1466 Z"/>
        </g>
        <g transform="matrix(1 0 0 1 22846 1100)">
            <path fill="#000000" stroke="none" d="M 100 1216 L 449 1760 L 1169 1760 L 1169 0 L 999 0 L 999 1610 L 619 1610 L 619 0 L 449 0 L 449 1463 L 243 1139 L 100 1216 Z"/>
        </g>
        <g transform="matrix(1 0 0 1 24235 1100)">
            <path fill="#000000" stroke="none" d="M 936 0 L 160 0 L 471 889 L 160 1761 L 936 1761 L 624 889 L 936 0 Z M 703 151 L 548 693 L 392 151 L 703 151 Z M 548 1126 L 700 1610 L 395 1610 L 548 1126 Z"/>
        </g>
        <g transform="matrix(1 0 0 1 25331 1100)">
            <path fill="#000000" stroke="none" d="M 940 0 L 770 0 L 770 850 L 390 850 L 390 0 L 220 0 L 220 1000 L 479 1760 L 644 1760 L 384 1000 L 940 1000 L 940 0 Z"/>
        </g>
        <g transform="matrix(1 0 0 1 26491 1100)">
            <path fill="#000000" stroke="none" d="M 674 0 L 609 0 L 160 880 L 609 1760 L 674 1760 L 1123 880 L 674 0 Z M 641 1466 L 354 880 L 641 294 L 929 880 L 641 1466 Z"/>
        </g>
        <g transform="matrix(1 0 0 1 27774 1100)">
            <path fill="#000000" stroke="none" d="M 1190 0 L 220 0 L 220 1760 L 1190 1760 L 1190 0 Z M 790 151 L 1020 151 L 1020 1610 L 790 1610 L 790 151 Z M 390 151 L 620 151 L 620 1610 L 390 1610 L 390 151 Z"/>
        </g>
        <g transform="matrix(1 0 0 1 29716 1100)">
            <path fill="#000000" stroke="none" d="M 220 293 Q 220 399 289.5 487.49997 Q 359 576 470 606 L 470 1153 Q 361 1182 290.5 1269.5 Q 220 1357 220 1465 Q 220 1595 319 1692.5 Q 418 1790 555 1790 Q 642 1790 720 1746.5 Q 798 1703 844 1627 Q 890 1551 890 1465 Q 890 1358 820 1270 Q 750 1182 640 1153 L 640 606 Q 750 576 820 489 Q 890 402 890 293 Q 890 207 844 132 Q 798 57 720.5 13.5 Q 643 -30 555 -30 Q 468 -30 390.49997 13.5 Q 313 57 266.5 132.5 Q 220 208 220 293 Z M 385 294 Q 385 224 436 174.5 Q 487 125 555 125 Q 625 125 675 174.5 Q 725 224 725 294 Q 725 365 675 414 Q 625 463 555 463 Q 487 463 436 414 Q 385 365 385 294 Z M 385 1466 Q 385 1396 436 1346.5 Q 487 1297 555 1297 Q 625 1297 675 1346.5 Q 725 1396 725 1466 Q 725 1537 675 1586 Q 625 1635 555 1635 Q 487 1635 436 1586 Q 385 1537 385 1466 Z"/>
        </g>
        <g transform="matrix(1 0 0 1 30826 1100)">
            <path fill="#000000" stroke="none" d="M 220 1465 Q 220 1595 319 1692.5 Q 418 1790 555 1790 Q 642 1790 720 1746.5 Q 798 1703 844 1627 Q 890 1551 890 1465 Q 890 1358 820 1270 Q 750 1182 640 1153 L 640 0 L 470 0 L 470 1153 Q 361 1182 290.5 1269.5 Q 220 1357 220 1465 Z M 385 1466 Q 385 1396 436 1346.5 Q 487 1297 555 1297 Q 625 1297 675 1346.5 Q 725 1396 725 1466 Q 725 1537 675 1586 Q 625 1635 555 1635 Q 487 1635 436 1586 Q 385 1537 385 1466 Z"/>
        </g>
        <g transform="matrix(1 0 0 1 31936 1100)">
            <path fill="#000000" stroke="none" d="M 559 1518 L 175 1303 L 100 1437 L 729 1790 L 729 0 L 559 0 L 559 1518 Z"/>
        </g>
        <g transform="matrix(1 0 0 1 32885 1100)">
            <path fill="#000000" stroke="none" d="M 940 0 L 220 0 L 220 1760 L 940 1760 L 940 0 Z M 390 150 L 770 150 L 770 830 L 390 830 L 390 150 Z M 390 980 L 770 980 L 770 1610 L 390 1610 L 390 980 Z"/>
        </g>
        <g transform="matrix(1 0 0 1 34045 1100)">
            <path fill="#000000" stroke="none" d="M 968 -30 L 120 466 L 120 538 L 656 880 L 120 1222 L 120 1294 L 968 1790 L 968 -30 Z M 364 499 L 798 253 L 798 789 L 364 512 L 364 499 Z M 364 1248 L 798 970 L 798 1507 L 364 1261 L 364 1248 Z"/>
        </g>
        <g transform="matrix(1 0 0 1 35233 1100)">
            <path fill="#000000" stroke="none" d="M 160 1790 Q 352 1746 499 1616 Q 646 1486 726 1291 Q 806 1096 806 877 Q 806 663 724.5 466 Q 643 269 496.5 139.5 Q 350 10 160 -30 L 160 130 Q 300 177 406 283.5 Q 512 390 571.5 548 Q 631 706 631 877 Q 631 1051 572 1210 Q 513 1369 405.5 1477.5 Q 298 1586 160 1625 L 160 1790 Z"/>
        </g>
    </g>
</svg>
