<svg width="53307" height="3943" viewBox="0 0 53307 3943" xmlns="http://www.w3.org/2000/svg">
    <defs/>
    <g transform="matrix(1 0 0 -1 0 3943)">
        <g transform="matrix(1 0 0 1 0 1254)">
            <path fill="#000000" stroke="none" d="M 1008 0 L 147 0 L 375 684 L 92 684 L 145 846 L 633 846 L 403 162 L 858 162 L 1233 1300 L 154 1300 L 207 1462 L 1489 1462 L 1008 0 Z"/>
        </g>
        <g transform="matrix(1 0 0 1 1415 1254)">
            <path fill="#000000" stroke="none" d="M 190 0 L 618 1300 L 152 1300 L 205 1462 L 877 1462 L 446 162 L 1141 162 L 961 719 L 1155 719 L 1389 0 L 190 0 Z"/>
        </g>
        <g transform="matrix(1 0 0 1 2906 1254)">
            <path fill="#000000" stroke="none" d="M 387 0 L 188 0 L 616 1300 L 152 1300 L 205 1462 L 1612 1462 L 1407 844 L 1847 844 L 1618 162 L 1819 162 L 2243 1462 L 2904 1462 L 2425 0 L 2224 0 L 2650 1300 L 2388 1300 L 1962 0 L 1366 0 L 1595 682 L 1354 682 L 1128 0 L 930 0 L 1358 1300 L 821 1300 L 387 0 Z"/>
        </g>
        <g transform="matrix(1 0 0 1 5736 1254)">
            <path fill="#000000" stroke="none" d="M 397 0 L 829 1300 L 588 1300 L 160 0 L -41 0 L 438 1462 L 1081 1462 L 651 162 L 1057 162 L 1485 1462 L 1688 1462 L 1206 0 L 397 0 Z"/>
        </g>
        <g transform="matrix(1 0 0 1 7350 1254)">
            <path fill="#000000" stroke="none" d="M 989 1462 L 1651 1462 L 1171 0 L 971 0 L 1397 1300 L 1135 1300 L 709 0 L 113 0 L 342 682 L 33 682 L 86 844 L 594 844 L 365 162 L 565 162 L 989 1462 Z"/>
        </g>
        <g transform="matrix(1 0 0 1 8927 1254)">
            <path fill="#000000" stroke="none" d="M 975 0 L -45 0 L 436 1462 L 635 1462 L 205 162 L 825 162 L 1260 1462 L 1458 1462 L 975 0 Z"/>
        </g>
        <g transform="matrix(1 0 0 1 10843 1254)">
            <path fill="#000000" stroke="none" d="M 616 1300 L 147 1300 L 201 1462 L 874 1462 L 444 162 L 1061 162 L 936 272 Q 815 381 815 489 Q 815 598 887.5 658.5 Q 960 719 1094 719 L 1559 719 L 1505 557 L 1096 557 Q 1004 557 1004 483 Q 1004 441 1106 354 L 1378 111 L 1341 0 L 188 0 L 616 1300 Z"/>
        </g>
        <g transform="matrix(1 0 0 1 12410 1254)">
            <path fill="#000000" stroke="none" d="M 207 813 L 461 813 L 627 1300 L 154 1300 L 207 1462 L 874 1462 L 657 813 L 897 813 L 844 651 L 604 651 L 387 0 L 188 0 L 408 651 L 154 651 L 207 813 Z M 1034 813 L 1288 813 L 1454 1300 L 981 1300 L 1034 1462 L 1702 1462 L 1485 813 L 1724 813 L 1671 651 L 1432 651 L 1214 0 L 1016 0 L 1235 651 L 981 651 L 1034 813 Z"/>
        </g>
        <g transform="matrix(1 0 0 1 14042 1254)">
            <path fill="#000000" stroke="none" d="M 1761 1098 L 1401 0 L 1200 0 L 997 586 L 805 0 L 68 0 L 383 936 L 74 936 L 127 1098 L 635 1098 L 319 162 L 662 162 L 1085 1462 L 1284 1462 L 1092 874 L 1292 279 L 1563 1098 L 1761 1098 Z"/>
        </g>
        <g transform="matrix(1 0 0 1 15822 1254)">
            <path fill="#000000" stroke="none" d="M 1085 1462 L 1284 1462 L 1165 1098 L 1745 1098 L 1384 0 L 1184 0 L 1489 936 L 1112 936 L 805 0 L 68 0 L 383 936 L 74 936 L 127 1098 L 635 1098 L 319 162 L 662 162 L 1085 1462 Z"/>
        </g>
        <g transform="matrix(1 0 0 1 17585 1254)">
            <path fill="#000000" stroke="none" d="M 1098 971 L 1186 971 L 1683 276 L 2030 1300 L 1419 1300 L 1386 1206 L 1190 1206 L 1276 1462 L 2281 1462 L 1794 0 L 1667 0 L 1188 662 L 971 0 L 172 0 L 602 1300 L 156 1300 L 209 1462 L 854 1462 L 424 162 L 827 162 L 1098 971 Z"/>
        </g>
        <g transform="matrix(1 0 0 1 19791 1254)">
            <path fill="#000000" stroke="none" d="M 3357 1098 L 2996 0 L 2796 0 L 2593 586 L 2400 0 L 1663 0 L 1882 651 L 1343 651 L 1126 0 L 928 0 L 1147 651 L 604 651 L 387 0 L 188 0 L 408 651 L 154 651 L 207 813 L 461 813 L 627 1300 L 154 1300 L 207 1462 L 1614 1462 L 1397 813 L 2134 813 L 1915 162 L 2257 162 L 2681 1462 L 2879 1462 L 2687 874 L 2888 279 L 3158 1098 L 3357 1098 Z M 819 1300 L 657 813 L 1200 813 L 1366 1300 L 819 1300 Z"/>
        </g>
        <g transform="matrix(1 0 0 1 23696 1254)">
            <path fill="#000000" stroke="none" d="M 190 0 L 618 1300 L 152 1300 L 205 1462 L 877 1462 L 446 162 L 1149 162 L 1280 557 L 911 557 L 965 719 L 1524 719 L 1288 0 L 190 0 Z"/>
        </g>
        <g transform="matrix(1 0 0 1 25336 1254)">
            <path fill="#000000" stroke="none" d="M 1161 330 L 242 330 L 561 1300 L 199 1300 L 252 1462 L 819 1462 L 498 492 L 1012 492 L 1278 1300 L 918 1300 L 971 1462 L 1536 1462 L 1161 330 Z M 184 162 L 1104 162 L 1051 0 L 131 0 L 184 162 Z"/>
        </g>
        <g transform="matrix(1 0 0 1 26794 1254)">
            <path fill="#000000" stroke="none" d="M 881 971 L 969 971 L 1466 276 L 1812 1300 L 1202 1300 L 1169 1206 L 973 1206 L 1059 1462 L 2064 1462 L 1577 0 L 1450 0 L 971 662 L 754 0 L -45 0 L 438 1462 L 823 1462 L 772 1300 L 582 1300 L 207 162 L 610 162 L 881 971 Z"/>
        </g>
        <g transform="matrix(1 0 0 1 28781 1254)">
            <path fill="#000000" stroke="none" d="M 205 674 L 688 674 L 786 971 L 133 971 L 186 1133 L 1040 1133 L 889 674 L 1102 674 L 1049 512 L 836 512 L 668 0 L 465 0 L 635 512 L 152 512 L 205 674 Z M 205 1462 L 1149 1462 L 1096 1300 L 152 1300 L 205 1462 Z"/>
        </g>
        <g transform="matrix(1 0 0 1 29877 1254)">
            <path fill="#000000" stroke="none" d="M 807 715 L 854 864 L 1325 1300 L 719 1300 L 770 1462 L 1626 1462 L 1612 1335 L 1104 864 Q 1253 864 1375 810.5 Q 1497 757 1564.5 663 Q 1632 569 1632 457 Q 1632 305 1560 194.5 Q 1488 84 1350 28.499998 Q 1212 -27 1018 -27 Q 752 -27 560 70 Q 368 167 265 356.5 Q 162 546 162 807 Q 162 969 209 1131 Q 256 1293 340 1417 L 386 1484 L 403 1507 L 621 1507 L 553 1409 Q 447 1259 403.5 1114 Q 360 969 360 807 Q 360 494 532 317.5 Q 704 141 1018 141 Q 1211 141 1319 225.5 Q 1427 310 1427 457 Q 1427 575 1308 645 Q 1189 715 999 715 L 807 715 Z"/>
        </g>
        <g transform="matrix(1 0 0 1 31661 1254)">
            <path fill="#000000" stroke="none" d="M 287 0 L 340 162 L 768 162 L 1145 1300 L 586 1300 L 395 725 L 625 725 L 571 563 L 141 563 L 436 1462 L 1405 1462 L 971 162 L 1417 162 L 1847 1462 L 2810 1462 L 2519 582 L 2071 582 L 2124 743 L 2372 743 L 2552 1300 L 1995 1300 L 1620 162 L 2077 162 L 2023 0 L 287 0 Z"/>
        </g>
        <g transform="matrix(1 0 0 1 34929 1254)">
            <path fill="#000000" stroke="none" d="M 623 1300 L 414 1300 L 526 1016 L 623 1300 Z M 825 162 L 938 477 Q 972 573 1017.5 625 Q 1063 677 1131 705 Q 1199 733 1294 733 Q 1410 733 1485.4999 674 Q 1561 615 1561 525 Q 1561 487 1546 442 L 1399 0 L 1208 0 L 1329 375 Q 1335 394 1342 416 Q 1349 438 1353 460 Q 1357 482 1357 503 Q 1355 573 1266 573 Q 1215 573 1180.5 542.5 Q 1146 512 1120 434 L 969 0 L 188 0 L 446 770 L 168 1462 L 877 1462 L 444 162 L 825 162 Z"/>
        </g>
        <g transform="matrix(1 0 0 1 36576 1254)">
            <path fill="#000000" stroke="none" d="M 387 0 L 184 0 L 403 651 L 154 651 L 207 813 L 457 813 L 623 1300 L 154 1300 L 207 1462 L 1702 1462 L 1214 0 L 1012 0 L 1231 651 L 604 651 L 387 0 Z M 819 1300 L 657 813 L 1284 813 L 1450 1300 L 819 1300 Z"/>
        </g>
        <g transform="matrix(1 0 0 1 38208 1254)">
            <path fill="#000000" stroke="none" d="M 195 1300 L 248 1462 L 926 1462 L 553 330 Q 742 156 846 156 Q 903 156 942.5 188.50002 Q 982 221 1019.5 295.5 Q 1057 370 1104 510 L 1419 1462 L 1620 1462 L 1262 383 Q 1206 209 1154.5 127.5 Q 1103 46 1033.5 8.5 Q 964 -29 862 -29 Q 771 -29 678 10.5 Q 585 50 479 139 Q 429 51 363 12 Q 297 -27 205 -27 Q 84 -27 11.5 38.5 Q -61 104 -61 215 Q -61 336 15 407.49997 Q 91 479 213 479 Q 259 479 307.5 467 Q 356 455 387 436 L 668 1300 L 195 1300 Z M 207 121 Q 294 121 340 268 Q 280 324 209 324 Q 164 324 132 297.5 Q 100 271 100 225 Q 100 179 127 150 Q 154 121 207 121 Z"/>
        </g>
        <g transform="matrix(1 0 0 1 39744 1254)">
            <path fill="#000000" stroke="none" d="M 1214 0 L 190 0 L 618 1300 L 154 1300 L 207 1462 L 877 1462 L 446 162 L 1065 162 L 1440 1300 L 975 1300 L 1028 1462 L 1698 1462 L 1214 0 Z"/>
        </g>
        <g transform="matrix(1 0 0 1 41368 1254)">
            <path fill="#000000" stroke="none" d="M 618 1300 L 141 1300 L 195 1462 L 877 1462 L 444 162 L 717 162 L 958 848 L 1143 848 L 1440 0 L 1247 0 L 1051 582 L 860 0 L 190 0 L 618 1300 Z M 1507 848 L 1804 0 L 1614 0 L 1313 848 L 1507 848 Z"/>
        </g>
        <g transform="matrix(1 0 0 1 43074 1254)">
            <path fill="#000000" stroke="none" d="M 387 0 L 184 0 L 623 1300 L 154 1300 L 207 1462 L 874 1462 L 387 0 Z M 1214 0 L 1012 0 L 1450 1300 L 981 1300 L 1034 1462 L 1702 1462 L 1214 0 Z"/>
        </g>
        <g transform="matrix(1 0 0 1 45230 1254)">
            <path fill="#000000" stroke="none" d="M 1061 848 L 1277 232 L 1356 0 L 1161 0 L 967 582 L 776 0 L -45 0 L 438 1462 L 1051 1462 L 997 1300 L 582 1300 L 207 162 L 631 162 L 811 668 L 872 848 L 1061 848 Z"/>
        </g>
        <g transform="matrix(1 0 0 1 46508 1254)">
            <path fill="#000000" stroke="none" d="M 238 1188 L 537 1188 L 573 1300 L 272 1300 L 326 1462 L 831 1462 L 346 0 L 145 0 L 483 1026 L 184 1026 L 238 1188 Z"/>
        </g>
        <g transform="matrix(1 0 0 1 47253 1254)">
            <path fill="#000000" stroke="none" d="M 438 1462 L 1051 1462 L 997 1300 L 582 1300 L 207 162 L 997 162 L 1128 557 L 707 557 L 760 719 L 1372 719 L 1137 0 L -45 0 L 438 1462 Z"/>
        </g>
        <g transform="matrix(1 0 0 1 48654 1254)">
            <path fill="#000000" stroke="none" d="M 758 162 L 846 422 L 1038 422 L 899 0 L -45 0 L 438 1462 L 889 1462 L 836 1300 L 582 1300 L 207 162 L 758 162 Z"/>
        </g>
        <g transform="matrix(1 0 0 1 49803 1254)">
            <path fill="#000000" stroke="none" d="M 1186 864 Q 1335 864 1457 810.5 Q 1579 757 1646.4999 663 Q 1714 569 1714 457 Q 1714 307 1631.5 196 Q 1549 85 1398 29 Q 1247 -27 1036 -27 Q 614 -27 388 192 Q 162 411 162 807 Q 162 969 209 1131 Q 256 1293 340 1417 L 386 1484 L 403 1507 L 621 1507 L 553 1409 Q 447 1259 403.5 1114 Q 360 969 360 807 Q 360 483 534 312 Q 708 141 1036 141 Q 1180 141 1287 180.50002 Q 1394 220 1451.5 292.5 Q 1509 365 1509 457 Q 1509 575 1390 645 Q 1271 715 1081 715 L 889 715 L 936 864 L 1407 1300 L 801 1300 L 852 1462 L 1708 1462 L 1694 1335 L 1409 1071 Q 1525 1102 1593 1102 Q 1661 1102 1710.4999 1082 Q 1760 1062 1787.5 1028.5 Q 1815 995 1815 958 Q 1815 920 1790 897 Q 1765 874 1724 874 Q 1690 874 1668 891 Q 1646 908 1621 928.50006 Q 1596 949 1562 966 Q 1528 983 1470 983 Q 1391 983 1322.5 955.5 Q 1254 928 1186 864 Z"/>
        </g>
        <g transform="matrix(1 0 0 1 51669 1254)">
            <path fill="#000000" stroke="none" d="M 1231 0 L 1028 0 L 1458 1300 L 1122 1300 L 694 0 L 492 0 L 922 1300 L 586 1300 L 156 0 L -47 0 L 436 1462 L 1710 1462 L 1231 0 Z"/>
        </g>
    </g>
</svg>
