<svg width="37535" height="3789" viewBox="0 0 37535 3789" xmlns="http://www.w3.org/2000/svg">
    <defs/>
    <g transform="matrix(1 0 0 -1 0 3789)">
        <g transform="matrix(1 0 0 1 0 1100)">
            <path fill="#000000" stroke="none" d="M 1409 643 L 1409 532 L 920 532 L 920 678 Q 920 844 860 926 Q 800 1008 692 1008 Q 432 1008 432 678 L 432 0 L 225 0 L 225 1237 Q 225 1287 207.5 1317.5 Q 190 1348 156.5 1362 Q 123 1376 57 1376 L 31 1376 L 31 1462 L 432 1462 L 432 1147 Q 432 1089 424 973 L 434 973 Q 464 1040 543.5 1079 Q 623 1118 733 1118 Q 917 1118 1021.49994 1003 Q 1126 888 1126 678 L 1126 643 L 1409 643 Z"/>
        </g>
        <g transform="matrix(1 0 0 1 1450 1100)">
            <path fill="#000000" stroke="none" d="M 598 1249 Q 598 1394 558 1455 Q 518 1516 432 1516 Q 346 1516 308 1459 Q 270 1402 270 1249 Q 270 1118 307 1050.5 Q 344 983 432 983 Q 519 983 558.5 1044 Q 598 1105 598 1249 Z M 391 1798 Q 329 1798 299.5 1735.5 Q 270 1673 268 1540 Q 349 1595 455 1595 Q 770 1595 770 1249 Q 770 901 432 901 Q 308 901 239 950.5 Q 170 1000 136 1107 Q 102 1214 102 1397 Q 102 1630 179.49998 1754 Q 257 1878 401 1878 Q 433 1878 492 1862 Q 549 1843 590 1843 Q 637 1843 655 1898 Q 756 1878 756 1823 Q 756 1786 729.5 1759.5 Q 703 1733 639 1733 Q 577 1733 489 1767 Q 463 1778 438 1788 Q 413 1798 391 1798 Z"/>
        </g>
        <g transform="matrix(1 0 0 1 2318 1100)">
            <path fill="#000000" stroke="none" d="M 737 559 L 1200 559 L 1200 461 L 737 461 L 737 412 Q 737 191 646 85.5 Q 555 -20 367 -20 Q 196 -20 116.5 55 Q 37 130 37 262 Q 37 408 163.5 483.5 Q 290 559 530 559 L 530 1237 Q 530 1287 512.5 1317.5 Q 495 1348 461.5 1362 Q 428 1376 362 1376 L 336 1376 L 336 1462 L 911 1462 Q 1158 1462 1286.5 1367.5 Q 1415 1273 1415 1094 Q 1415 901 1271 796.49994 Q 1127 692 866 692 L 737 692 L 737 559 Z M 737 788 L 846 788 Q 1035 788 1114.5 857 Q 1194 926 1194 1085 Q 1194 1233 1118.5 1298.5 Q 1043 1364 877 1364 L 737 1364 L 737 788 Z M 365 76 Q 453 76 491.5 156.5 Q 530 237 530 406 L 530 461 Q 380 461 301.5 407.49997 Q 223 354 223 258 Q 223 172 260 124 Q 297 76 365 76 Z"/>
        </g>
        <g transform="matrix(1 0 0 1 3813 1100)">
            <path fill="#000000" stroke="none" d="M 784 0 Q 466 0 291.5 191 Q 117 382 117 729 Q 117 1080 290.5 1271 Q 464 1462 784 1462 L 1217 1462 L 1217 838 L 1231 838 Q 1433 838 1530.5 776.5 Q 1628 715 1628 586 Q 1628 518 1585 481 Q 1542 444 1468 444 Q 1468 591 1413 659 Q 1358 727 1233 727 L 1217 727 L 1217 0 L 784 0 Z M 831 1358 Q 589 1358 466.5 1198 Q 344 1038 344 729 Q 344 425 465.5 263.5 Q 587 102 829 102 L 1010 102 L 1010 1358 L 831 1358 Z"/>
        </g>
        <g transform="matrix(1 0 0 1 5451 1100)">
            <path fill="#000000" stroke="none" d="M 1055 0 L 1055 1040 Q 1055 1194 969.5 1283 Q 884 1372 733 1372 Q 578 1372 495 1283.5 Q 412 1195 412 1032 L 412 0 L 205 0 L 205 1020 Q 205 1253 337 1368 Q 469 1483 741 1483 Q 991 1483 1126.5 1368 Q 1262 1253 1262 1044 L 1262 0 L 1055 0 Z"/>
        </g>
        <g transform="matrix(1 0 0 1 6917 1100)">
            <path fill="#000000" stroke="none" d="M 1505 946 Q 1505 709 1346 564 Q 1187 419 899 397 L 899 0 L 702 0 L 702 397 Q 418 420 266.5 564 Q 115 708 115 948 Q 115 1206 295 1344.5 Q 475 1483 813 1483 Q 1139 1483 1322 1341 Q 1505 1199 1505 946 Z M 1278 946 Q 1278 1149 1183 1253 Q 1088 1357 899 1372 L 899 510 Q 1090 529 1184 635 Q 1278 741 1278 946 Z M 342 946 Q 342 547 702 510 L 702 1372 Q 342 1346 342 946 Z"/>
        </g>
        <g transform="matrix(1 0 0 1 8539 1100)">
            <path fill="#000000" stroke="none" d="M 432 666 L 541 666 Q 730 666 809.5 750 Q 889 834 889 1026 Q 889 1206 813.5 1285 Q 738 1364 571 1364 L 432 1364 L 432 666 Z M 788 111 Q 1077 111 1077 -70 Q 1077 -130 1036 -162.5 Q 995 -195 918 -195 Q 918 -114 896 -74.5 Q 874 -35 823.5 -17.5 Q 773 0 678 0 L 225 0 L 225 1237 Q 225 1287 207.5 1317.5 Q 190 1348 156.5 1362 Q 123 1376 57 1376 L 31 1376 L 31 1462 L 606 1462 Q 854 1462 982 1352 Q 1110 1242 1110 1034 Q 1110 812 966.5 690.5 Q 823 569 561 569 L 432 569 L 432 111 L 788 111 Z"/>
        </g>
        <g transform="matrix(1 0 0 1 10308 1100)">
            <path fill="#000000" stroke="none" d="M 334 891 L 487 618 L 688 989 L 258 989 Q 120 989 59 975 L 59 1065 Q 156 1098 262 1098 L 895 1098 L 895 1014 L 580 461 L 682 289 Q 747 182 794 140 Q 841 98 899 98 Q 941 98 985 125 L 1020 59 Q 986 24 946 2 Q 906 -20 844 -20 Q 787 -20 746.5 -3 Q 706 14 673.5 47 Q 641 80 607.5 137.5 Q 574 195 508 332 L 154 -365 L -61 -365 L 418 492 L 190 891 L 334 891 Z"/>
        </g>
        <g transform="matrix(1 0 0 1 11359 1100)">
            <path fill="#000000" stroke="none" d="M 309 492 Q 309 283 377.50003 184.5 Q 446 86 596 86 Q 870 86 870 551 Q 870 717 799.49994 807 Q 729 897 596 897 Q 446 897 377.50003 802.50006 Q 309 708 309 492 Z M 299 1460 Q 174 1460 174 1249 Q 51 1249 51 1352 Q 51 1449 119.5 1508 Q 188 1567 297 1567 Q 462 1567 512 1401 L 520 1401 Q 587 1567 756 1567 Q 919 1567 993 1380 Q 1067 1193 1067 819 Q 1067 531 1019 346 Q 971 161 870 70.5 Q 769 -20 596 -20 Q 358 -20 235.49998 112 Q 113 244 113 492 Q 113 740 233 870.5 Q 353 1001 578 1001 Q 774 1001 862 885 L 870 885 Q 870 1106 856 1230 Q 842 1354 814.5 1407 Q 787 1460 729 1460 Q 659 1460 628.5 1382.5 Q 598 1305 598 1163 L 426 1163 Q 426 1320 398.5 1390 Q 371 1460 299 1460 Z"/>
        </g>
        <g transform="matrix(1 0 0 1 12539 1100)">
            <path fill="#000000" stroke="none" d="M 508 -502 Q 371 -502 266.5 -455 Q 162 -408 106.50001 -323 Q 51 -238 51 -133 Q 51 -19 114 39.5 Q 177 98 297 98 Q 246 4 246 -115 Q 246 -250 313 -321.5 Q 380 -393 504 -393 Q 645 -393 713.5 -306 Q 782 -219 782 -33 Q 782 148 691.5 244 Q 601 340 430 340 L 338 340 L 338 451 L 430 451 Q 567 451 659.5 531.5 Q 752 612 752 739 Q 752 1024 508 1024 Q 264 1024 264 739 Q 183 739 142.5 768 Q 102 797 102 862 Q 102 927 153 986.5 Q 204 1046 295 1082 Q 386 1118 508 1118 Q 722 1118 834 1025.5 Q 946 933 946 750 Q 946 628 862 535.5 Q 778 443 637 410 L 637 399 Q 798 379 889.5 267 Q 981 155 981 -23 Q 981 -247 853.5 -374.49997 Q 726 -502 508 -502 Z"/>
        </g>
        <g transform="matrix(1 0 0 1 13633 1100)">
            <path fill="#000000" stroke="none" d="M 416 932 Q 508 1118 717 1118 Q 1079 1118 1079 717 L 1079 233 Q 1079 155 1113 120.5 Q 1147 86 1237 86 L 1243 86 L 1243 0 L 887 0 L 887 707 Q 887 850 833 918.5 Q 779 987 662 987 Q 541 987 477.5 900.5 Q 414 814 414 655 L 414 223 Q 414 152 450.5 119 Q 487 86 582 86 L 588 86 L 588 0 L 37 0 L 37 86 L 53 86 Q 148 86 184.5 122.50001 Q 221 159 221 233 L 221 1186 Q 221 1569 705 1569 Q 770 1569 866.50006 1555 Q 963 1541 1020 1520 L 1020 1430 Q 883 1460 735 1460 Q 562 1460 488 1392 Q 414 1324 414 1171 L 414 1106 Q 414 1048 406 932 L 416 932 Z"/>
        </g>
        <g transform="matrix(1 0 0 1 14933 1100)">
            <path fill="#000000" stroke="none" d="M 1192 -434 L 1106 -502 Q 844 -295 844 6 Q 844 61 852 168 L 844 168 Q 797 71 721.5 25.500002 Q 646 -20 530 -20 Q 113 -20 113 547 Q 113 825 229.5 971.5 Q 346 1118 565 1118 Q 689 1118 782 1068 Q 875 1018 938 905 Q 997 1005 1096.5 1061.5 Q 1196 1118 1317 1118 Q 1537 1118 1652 975.5 Q 1767 833 1767 551 Q 1767 263 1663.5 121.49999 Q 1560 -20 1350 -20 Q 1139 -20 1036 168 L 1028 168 Q 1036 61 1036 0 Q 1036 -115 1068.5 -212.50002 Q 1101 -310 1192 -434 Z M 565 111 Q 714 111 779 210 Q 844 309 844 547 Q 844 785 776.5 886 Q 709 987 563 987 Q 435 987 373 879 Q 311 771 311 545 Q 311 318 372 214.5 Q 433 111 565 111 Z M 1315 987 Q 1166 987 1101 888 Q 1036 789 1036 551 Q 1036 324 1102.5 217.5 Q 1169 111 1317 111 Q 1446 111 1507.5 219 Q 1569 327 1569 553 Q 1569 771 1510 879 Q 1451 987 1315 987 Z"/>
        </g>
        <g transform="matrix(1 0 0 1 16813 1100)">
            <path fill="#000000" stroke="none" d="M 1108 391 Q 1108 235 1156 173 Q 1204 111 1313 111 Q 1561 111 1561 442 L 1561 864 Q 1561 940 1525 976 Q 1489 1012 1395 1012 L 1386 1012 L 1386 1098 L 1753 1098 L 1753 223 Q 1753 153 1788.5 119.5 Q 1824 86 1919 86 L 1927 86 L 1927 0 L 1602 0 L 1575 166 L 1565 166 Q 1511 69 1437.5 24.499998 Q 1364 -20 1243 -20 Q 1076 -20 995.50006 77.5 Q 915 175 915 381 L 915 707 Q 915 855 864.50006 921 Q 814 987 700 987 Q 463 987 463 655 L 463 223 Q 463 152 498 119 Q 533 86 627 86 L 637 86 L 637 0 L 86 0 L 86 86 L 102 86 Q 197 86 233.5 121.49999 Q 270 157 270 233 L 270 815 Q 270 922 233 966 Q 196 1010 115 1010 Q 31 1010 -12 995 L -12 1085 Q 82 1118 190 1118 Q 302 1118 363 1072 Q 424 1026 444 926 L 455 926 Q 510 1027 584.5 1072.5 Q 659 1118 774 1118 Q 1108 1118 1108 717 L 1108 391 Z"/>
        </g>
        <g transform="matrix(1 0 0 1 19319 1100)">
            <path fill="#000000" stroke="none" d="M 1079 473 Q 1079 24 721 -14 Q 726 -122 757.5 -215.5 Q 789 -309 872 -434 L 786 -502 Q 546 -298 528 -6 Q 382 25 301.5 141.5 Q 221 258 221 467 L 221 872 Q 221 942 184 977 Q 147 1012 55 1012 L 47 1012 L 47 1098 L 414 1098 L 414 465 Q 414 264 470.49997 175 Q 527 86 651 86 Q 775 86 831 178.5 Q 887 271 887 473 L 887 864 Q 887 940 851 976 Q 815 1012 721 1012 L 713 1012 L 713 1098 L 1079 1098 L 1079 473 Z"/>
        </g>
        <g transform="matrix(1 0 0 1 20587 1100)">
            <path fill="#000000" stroke="none" d="M 887 541 Q 887 783 818.5 888 Q 750 993 600 993 Q 452 993 389 891.5 Q 326 790 326 541 Q 326 318 391 202 Q 456 86 600 86 Q 748 86 817.5 192 Q 887 298 887 541 Z M 324 981 L 332 981 Q 385 1036 463 1067 Q 541 1098 635 1098 Q 855 1098 969 957.49994 Q 1083 817 1083 541 Q 1083 -20 600 -20 Q 422 -20 321.5 64 Q 221 148 175 327 Q 129 506 129 784 L 129 1264 Q 129 1369 93 1413.5 Q 57 1458 -27 1458 Q -114 1458 -154 1444 L -154 1534 Q -57 1567 49 1567 Q 324 1567 324 1264 L 324 981 Z"/>
        </g>
        <g transform="matrix(1 0 0 1 21783 1100)">
            <path fill="#000000" stroke="none" d="M 463 1483 Q 637 1483 737.50006 1413.5 Q 838 1344 838 1225 Q 838 1132 781 1065.5 Q 724 999 631 971 L 631 961 Q 750 934 801 883.5 Q 852 833 852 739 Q 852 661 798.49994 606.5 Q 745 552 631 518 L 631 508 Q 872 453 872 268 Q 872 -20 432 -20 Q 311 -20 230 7.5 Q 149 35 107.5 84.5 Q 66 134 66 201 Q 66 332 217 332 Q 217 215 276.5 146.5 Q 336 78 442 78 Q 561 78 617.5 123.5 Q 674 169 674 272 Q 674 366 610.5 411.5 Q 547 457 434 457 L 305 457 L 305 567 L 436 567 Q 657 567 657 739 Q 657 834 600.5 871.5 Q 544 909 424 909 L 305 909 L 305 1020 L 426 1020 Q 529 1020 586 1070.5 Q 643 1121 643 1204 Q 643 1294 596 1341.5 Q 549 1389 459 1389 Q 418 1389 388 1379 Q 358 1369 331.5 1357 Q 305 1345 277.5 1335 Q 250 1325 215 1325 Q 166 1325 137.5 1356.5 Q 109 1388 109 1434 Q 109 1543 209 1567 Q 218 1523 238 1494.5 Q 258 1466 299 1466 Q 329 1466 373 1475 Q 417 1483 463 1483 Z M 589 1556 L 589 1556 Z"/>
        </g>
        <g transform="matrix(1 0 0 1 22768 1100)">
            <path fill="#000000" stroke="none" d="M 180 989 Q 77 989 31 975 L 31 1065 Q 125 1098 233 1098 L 971 1098 L 971 989 L 539 989 L 539 358 Q 539 210 585.5 148 Q 632 86 739 86 Q 833 86 926 117 L 926 27 Q 884 4 821.5 -9.5 Q 759 -23 694 -23 Q 518 -23 432 68.5 Q 346 160 346 330 L 346 989 L 180 989 Z"/>
        </g>
        <g transform="matrix(1 0 0 1 23882 1100)">
            <path fill="#000000" stroke="none" d="M 717 233 Q 717 157 752 121.49999 Q 787 86 881 86 L 901 86 L 901 0 L 340 0 L 340 86 L 358 86 Q 453 86 488.50003 118.50001 Q 524 151 524 223 L 524 723 Q 524 873 465 941.5 Q 406 1010 268 1010 Q 154 1010 41 979 L 41 1069 Q 73 1085 156 1101.5 Q 239 1118 307 1118 Q 717 1118 717 737 L 717 233 Z"/>
        </g>
        <g transform="matrix(1 0 0 1 24840 1100)">
            <path fill="#000000" stroke="none" d="M 442 391 Q 442 243 492.5 177 Q 543 111 657 111 Q 782 111 848.5 195.49998 Q 915 280 915 442 L 915 864 Q 915 939 880 975.5 Q 845 1012 750 1012 L 741 1012 L 741 1098 L 1108 1098 L 1108 223 Q 1108 153 1143.5 119.5 Q 1179 86 1274 86 L 1282 86 L 1282 0 L 956 0 L 930 166 L 920 166 Q 867 70 790 25 Q 713 -20 588 -20 Q 250 -20 250 381 L 250 815 Q 250 919 217 964.5 Q 184 1010 106 1010 Q 27 1010 -12 995 L -12 1085 Q 78 1118 182 1118 Q 319 1118 380.5 1042 Q 442 966 442 823 L 442 391 Z"/>
        </g>
        <g transform="matrix(1 0 0 1 26701 1100)">
            <path fill="#000000" stroke="none" d="M 334 891 L 487 618 L 688 989 L 258 989 Q 120 989 59 975 L 59 1065 Q 156 1098 262 1098 L 895 1098 L 895 1014 L 580 461 L 682 289 Q 747 182 794 140 Q 841 98 899 98 Q 941 98 985 125 L 1020 59 Q 986 24 946 2 Q 906 -20 844 -20 Q 787 -20 746.5 -3 Q 706 14 673.5 47 Q 641 80 607.5 137.5 Q 574 195 508 332 L 154 -365 L -61 -365 L 418 492 L 190 891 L 334 891 Z"/>
        </g>
        <g transform="matrix(1 0 0 1 27752 1100)">
            <path fill="#000000" stroke="none" d="M 844 -492 L 844 -82 Q 844 -16 852 168 L 844 168 Q 797 71 721.5 25.500002 Q 646 -20 530 -20 Q 113 -20 113 547 Q 113 825 229.5 971.5 Q 346 1118 565 1118 Q 689 1118 782 1068 Q 875 1018 938 905 Q 997 1005 1096.5 1061.5 Q 1196 1118 1317 1118 Q 1537 1118 1652 975.5 Q 1767 833 1767 551 Q 1767 263 1663.5 121.49999 Q 1560 -20 1350 -20 Q 1139 -20 1036 168 L 1028 168 L 1036 -72 L 1036 -492 L 844 -492 Z M 565 111 Q 714 111 779 210 Q 844 309 844 547 Q 844 785 776.5 886 Q 709 987 563 987 Q 435 987 373 879 Q 311 771 311 545 Q 311 318 372 214.5 Q 433 111 565 111 Z M 1315 987 Q 1166 987 1101 888 Q 1036 789 1036 551 Q 1036 324 1102.5 217.5 Q 1169 111 1317 111 Q 1446 111 1507.5 219 Q 1569 327 1569 553 Q 1569 771 1510 879 Q 1451 987 1315 987 Z"/>
        </g>
        <g transform="matrix(1 0 0 1 29632 1100)">
            <path fill="#000000" stroke="none" d="M 1079 391 Q 1079 244 1126 177.5 Q 1173 111 1282 111 Q 1400 111 1461 197 Q 1522 283 1522 442 L 1522 707 Q 1522 850 1470 918.5 Q 1418 987 1307 987 Q 1197 987 1138 908.5 Q 1079 830 1079 682 L 1079 391 Z M 887 707 Q 887 850 835 918.5 Q 783 987 672 987 Q 557 987 495.5 901 Q 434 815 434 655 L 434 223 Q 434 153 469.5 119.5 Q 505 86 600 86 L 608 86 L 608 0 L 57 0 L 57 86 L 84 86 Q 174 86 208 121 Q 242 156 242 233 L 242 872 Q 242 945 208 978.5 Q 174 1012 86 1012 L 78 1012 L 78 1098 L 399 1098 L 426 932 L 436 932 Q 490 1032 560 1075 Q 630 1118 745 1118 Q 857 1118 932.5 1070.5 Q 1008 1023 1042 932 L 1059 932 Q 1111 1028 1185 1073 Q 1259 1118 1380 1118 Q 1544 1118 1629 1018 Q 1714 918 1714 717 L 1714 233 Q 1714 156 1747 121 Q 1780 86 1870 86 L 1878 86 L 1878 0 L 1563 0 L 1536 166 L 1526 166 Q 1478 72 1404.5 26 Q 1331 -20 1210 -20 Q 1046 -20 966.5 79 Q 887 178 887 381 L 887 707 Z"/>
        </g>
        <g transform="matrix(1 0 0 1 31567 1100)">
            <path fill="#000000" stroke="none" d="M 424 -20 Q 424 -212 487 -303.5 Q 550 -395 678 -395 Q 779 -395 830.49994 -326.5 Q 882 -258 897 -123 Q 958 -128 991 -165 Q 1024 -202 1024 -256 Q 1024 -321 981.5 -375 Q 939 -429 859 -460.5 Q 779 -492 674 -492 Q 458 -492 344.50003 -357.5 Q 231 -223 231 25 L 231 872 Q 231 944 193.5 978 Q 156 1012 66 1012 L 57 1012 L 57 1098 L 389 1098 L 416 932 L 426 932 Q 479 1029 552.5 1073.5 Q 626 1118 745 1118 Q 1090 1118 1090 717 L 1090 233 Q 1090 157 1122 121.49999 Q 1154 86 1245 86 L 1253 86 L 1253 0 L 897 0 L 897 707 Q 897 850 843 918.5 Q 789 987 672 987 Q 552 987 488 901.5 Q 424 816 424 655 L 424 -20 Z"/>
        </g>
        <g transform="matrix(1 0 0 1 32878 1100)">
            <path fill="#000000" stroke="none" d="M 311 539 Q 311 321 408 161 Q 505 1 685 -84.5 Q 865 -170 1100 -170 Q 1168 -170 1252.5 -165 Q 1337 -160 1436 -160 Q 1523 -160 1572.5 -199.5 Q 1622 -239 1622 -305 Q 1622 -352 1588 -389 Q 1554 -426 1501 -434 Q 1487 -388 1387 -349 Q 1287 -310 1118 -288 Q 949 -266 756 -266 Q 488 -266 338 -385 L 289 -332 Q 330 -265 421.5 -217.5 Q 513 -170 604 -166 Q 363 -59 238 113 Q 113 285 113 537 Q 113 719 161.5 851 Q 210 983 299 1050.5 Q 388 1118 506 1118 Q 698 1118 793 928 L 801 928 Q 889 1118 1090 1118 Q 1284 1118 1374 928 L 1382 928 Q 1473 1118 1673 1118 Q 1790 1118 1878.5 1047 Q 1967 976 2014.5 843 Q 2062 710 2062 526 Q 2062 382 2024 255.5 Q 1986 129 1921.5 54.5 Q 1857 -20 1786 -20 Q 1763 -20 1747 -4 Q 1731 12 1731 35 Q 1864 124 1864 526 Q 1864 762 1813.5001 885 Q 1763 1008 1665 1008 Q 1573 1008 1524 910 Q 1475 812 1475 639 L 1475 512 L 1282 512 L 1282 635 Q 1282 1008 1087 1008 Q 995 1008 944 911 Q 893 814 893 639 L 893 512 L 700 512 L 700 635 Q 700 820 654.5 914 Q 609 1008 512 1008 Q 404 1008 357.5 895 Q 311 782 311 539 Z M 1898 -492 L 1898 -492 Z"/>
        </g>
        <g transform="matrix(1 0 0 1 35053 1100)">
            <path fill="#000000" stroke="none" d="M 705 858 Q 705 925 669 966.5 Q 633 1008 573 1008 Q 420 1008 420 784 Q 349 784 310.5 818 Q 272 852 272 907 Q 272 996 355.5 1057 Q 439 1118 571 1118 Q 710 1118 793.5 1049.5 Q 877 981 877 870 Q 877 702 698 637 Q 878 610 973.5 467.5 Q 1069 325 1069 80 Q 1069 -492 588 -492 Q 357 -492 235 -345.50003 Q 113 -199 113 80 Q 113 574 473 637 Q 705 676 705 858 Z M 311 80 Q 311 -163 379 -274 Q 447 -385 592 -385 Q 735 -385 802.50006 -275.5 Q 870 -166 870 80 Q 870 320 803.50006 430.5 Q 737 541 590 541 Q 444 541 377.50003 431 Q 311 321 311 80 Z"/>
        </g>
        <g transform="matrix(1 0 0 1 36235 1100)">
            <path fill="#000000" stroke="none" d="M 416 932 Q 508 1118 717 1118 Q 1079 1118 1079 717 L 1079 233 Q 1079 155 1113 120.5 Q 1147 86 1237 86 L 1243 86 L 1243 0 L 887 0 L 887 707 Q 887 850 833 918.5 Q 779 987 662 987 Q 541 987 477.5 900.5 Q 414 814 414 655 L 414 223 Q 414 152 450.5 119 Q 487 86 582 86 L 588 86 L 588 0 L 37 0 L 37 86 L 53 86 Q 148 86 184.5 122.50001 Q 221 159 221 233 L 221 1186 Q 221 1569 705 1569 Q 770 1569 866.50006 1555 Q 963 1541 1020 1520 L 1020 1430 Q 883 1460 735 1460 Q 562 1460 488 1392 Q 414 1324 414 1171 L 414 1106 Q 414 1048 406 932 L 416 932 Z"/>
        </g>
    </g>
</svg>
