<svg width="41718" height="3789" viewBox="0 0 41718 3789" xmlns="http://www.w3.org/2000/svg">
    <defs/>
    <path fill="#000000" stroke="none" transform="matrix(1 0 0 -1 0 2689)" d="M 757 674 C 781.66666666667 658 803.33333333333 640 822 620 C 903.33333333333 686.66666666667 977.66666666667 738.33333333333 1045 775 C 1112.33333333333 811.66666666667 1170.33333333333 830 1219 830 C 1246.33333333333 830 1266.66666666667 824 1280 812 C 1292.66666666667 799.33333333333 1299 782.66666666667 1299 762 C 1299 736.66666666667 1269 707.33333333333 1209 674 C 1149 640 1108 614 1086 596 L 977 508 C 995 501.33333333333 1015.33333333333 496.33333333333 1038 493 C 1060.66666666667 489 1086.33333333333 487 1115 487 C 1153 487 1183 479.33333333333 1205 464 C 1226.33333333333 448.66666666667 1237 426 1237 396 C 1237 371.33333333333 1222.66666666667 352 1194 338 C 1164.66666666667 323.33333333333 1124.33333333333 316 1073 316 C 1031 316 986 320.33333333333 938 329 C 889.33333333333 337 842 349 796 365 C 760.66666666667 335 683.66666666667 266 565 158 C 445.66666666667 49.33333333333 332.33333333333 -30.66666666667 225 -82 C 117 -134 44 -160 6 -160 C -36 -160 -67.33333333333 -149 -88 -127 C -109.33333333333 -105.66666666667 -120 -78 -120 -44 C -120 15.33333333333 -84.66666666667 53.33333333333 -14 70 C 56.66666666667 86 146.66666666667 121 256 175 C 364.66666666667 229 488.66666666667 319.66666666667 628 447 C 602 466.33333333333 581.33333333333 487.33333333333 566 510 C 550.66666666667 532 543 555.66666666667 543 581 C 543 611.66666666667 553.33333333333 638.66666666667 574 662 C 594 685.33333333333 623 697 661 697 C 700.33333333333 697 732.33333333333 689.33333333333 757 674 Z"/>
    <path fill="#000000" stroke="none" transform="matrix(1 0 0 -1 1329 2689)" d="M 569 427 C 547.66666666667 411 529.33333333333 397 514 385 C 498 372.33333333333 490 361 490 351 C 490 341.66666666667 509.33333333333 319 548 283 C 586.66666666667 246.33333333333 606 207 606 165 C 606 96.33333333333 560.66666666667 36.66666666667 470 -14 C 378.66666666667 -64.66666666667 284 -90 186 -90 C 110.66666666667 -90 52.66666666667 -80.33333333333 12 -61 C -29.33333333333 -41.66666666667 -50 -14.33333333333 -50 21 C -50 49.66666666667 -43.33333333333 73 -30 91 C -16.66666666667 108.33333333333 4.66666666667 117 34 117 C 55.33333333333 117 80.33333333333 112.33333333333 109 103 C 137.66666666667 93 165.33333333333 88 192 88 C 254.66666666667 88 305.33333333333 95.33333333333 344 110 C 382 124 401 145 401 173 C 401 193.66666666667 382 217 344 243 C 306 269 287 291.33333333333 287 310 C 287 364.66666666667 327 430.33333333333 407 507 C 487 583 588 651 710 711 C 832 770.33333333333 936 800 1022 800 C 1084.66666666667 800 1130.33333333333 784 1159 752 C 1187.66666666667 719.33333333333 1202 673.66666666667 1202 615 C 1202 527.66666666667 1166.33333333333 455.66666666667 1095 399 C 1023 342.33333333333 941.33333333333 314 850 314 C 804.66666666667 314 756.33333333333 324 705 344 C 653 364 607.66666666667 391.66666666667 569 427 Z M 1003 630 C 997 633.33333333333 988.66666666667 635 978 635 C 962 635 929 624 879 602 C 829 580 780.33333333333 555.66666666667 733 529 C 750.33333333333 515.66666666667 769.66666666667 505 791 497 C 811.66666666667 488.33333333333 834.66666666667 484 860 484 C 908 484 945.33333333333 494.66666666667 972 516 C 998.66666666667 536.66666666667 1012 567.33333333333 1012 608 C 1012 619.33333333333 1009 626.66666666667 1003 630 Z M 925 908 C 907 926 898 948.66666666667 898 976 C 898 1007.33333333333 909 1033.66666666667 931 1055 C 953 1076.33333333333 978.33333333333 1087 1007 1087 C 1035 1087 1058.33333333333 1077.33333333333 1077 1058 C 1095.66666666667 1038.66666666667 1105 1015.33333333333 1105 988 C 1105 958.66666666667 1094 933.33333333333 1072 912 C 1050 890.66666666667 1024 880 994 880 C 966 880 943 889.33333333333 925 908 Z"/>
    <path fill="#000000" stroke="none" transform="matrix(1 0 0 -1 2659 2689)" d="M 1104 791 C 1122.66666666667 784.33333333333 1141.66666666667 765.66666666667 1161 735 C 1180.33333333333 703.66666666667 1190 668.66666666667 1190 630 C 1190 532 1147.66666666667 453 1063 393 C 977.66666666667 333 875 303 755 303 C 741.66666666667 303 726.33333333333 303.66666666667 709 305 C 691 306.33333333333 672 308.66666666667 652 312 C 510 143.33333333333 377.66666666667 22.66666666667 255 -50 C 132.33333333333 -123.33333333333 46.66666666667 -160 -2 -160 C -40.66666666667 -160 -70 -149.66666666667 -90 -129 C -110 -108.33333333333 -120 -80 -120 -44 C -120 13.33333333333 -84 52.33333333333 -12 73 C 60 93 117.66666666667 113.66666666667 161 135 C 204.33333333333 156.33333333333 253.33333333333 187.33333333333 308 228 C 362.66666666667 268 420.33333333333 319.33333333333 481 382 C 468.33333333333 393.33333333333 458.66666666667 406.33333333333 452 421 C 444.66666666667 435 441 451 441 469 C 441 514.33333333333 454.33333333333 549.33333333333 481 574 C 507.66666666667 598 544.66666666667 610 592 610 C 618 610 641.66666666667 599.66666666667 663 579 C 684.33333333333 558.33333333333 699.33333333333 532.33333333333 708 501 C 734.66666666667 492.33333333333 768.33333333333 488 809 488 C 858.33333333333 488 901 501 937 527 C 972.33333333333 552.33333333333 990 585.66666666667 990 627 C 990 674.33333333333 965 706.66666666667 915 724 C 864.33333333333 741.33333333333 839 766.66666666667 839 800 C 839 844.66666666667 870.33333333333 875.33333333333 933 892 C 995.66666666667 908 1039.66666666667 924 1065 940 L 1095 959 C 1104.33333333333 965 1114 970 1124 974 C 1133.33333333333 978 1144 980 1156 980 C 1180 980 1199.66666666667 972.33333333333 1215 957 C 1230.33333333333 941.66666666667 1238 922.66666666667 1238 900 C 1238 879.33333333333 1229.66666666667 861.33333333333 1213 846 C 1196.33333333333 830 1160 811.66666666667 1104 791 Z M 937 908 C 919 926 910 948.66666666667 910 976 C 910 1007.33333333333 921 1033.66666666667 943 1055 C 965 1076.33333333333 990.33333333333 1087 1019 1087 C 1047 1087 1070.33333333333 1077.33333333333 1089 1058 C 1107.66666666667 1038.66666666667 1117 1015.33333333333 1117 988 C 1117 958.66666666667 1106 933.33333333333 1084 912 C 1062 890.66666666667 1036 880 1006 880 C 978 880 955 889.33333333333 937 908 Z"/>
    <path fill="#000000" stroke="none" transform="matrix(1 0 0 -1 3957 2689)" d="M 1008 721 C 1018.66666666667 708.33333333333 1024 691.66666666667 1024 671 C 1024 661.66666666667 1022 649.33333333333 1018 634 C 1013.33333333333 618 991.66666666667 583.66666666667 953 531 C 914.33333333333 478.33333333333 845 409 745 323 C 644.33333333333 237 547.33333333333 165 454 107 C 360 48.33333333333 288.66666666667 12.66666666667 240 0 C 190.66666666667 -13.33333333333 161.66666666667 -20 153 -20 C 113.66666666667 -20 83.33333333333 -11 62 7 C 40.66666666667 25 30 50 30 82 C 30 146.66666666667 64.66666666667 188 134 206 C 203.33333333333 223.33333333333 287.33333333333 260.33333333333 386 317 C 484 373 570.66666666667 427.66666666667 646 481 C 721.33333333333 533.66666666667 784 590 834 650 C 883.33333333333 710 925.66666666667 740 961 740 C 981.66666666667 740 997.33333333333 733.66666666667 1008 721 Z"/>
    <path fill="#000000" stroke="none" transform="matrix(1 0 0 -1 5041 2689)" d="M 569 427 C 547.66666666667 411 529.33333333333 397 514 385 C 498 372.33333333333 490 361 490 351 C 490 341.66666666667 509.33333333333 319 548 283 C 586.66666666667 246.33333333333 606 207 606 165 C 606 96.33333333333 560.66666666667 36.66666666667 470 -14 C 378.66666666667 -64.66666666667 284 -90 186 -90 C 110.66666666667 -90 52.66666666667 -80.33333333333 12 -61 C -29.33333333333 -41.66666666667 -50 -14.33333333333 -50 21 C -50 49.66666666667 -43.33333333333 73 -30 91 C -16.66666666667 108.33333333333 4.66666666667 117 34 117 C 55.33333333333 117 80.33333333333 112.33333333333 109 103 C 137.66666666667 93 165.33333333333 88 192 88 C 254.66666666667 88 305.33333333333 95.33333333333 344 110 C 382 124 401 145 401 173 C 401 193.66666666667 382 217 344 243 C 306 269 287 291.33333333333 287 310 C 287 364.66666666667 327 430.33333333333 407 507 C 487 583 588 651 710 711 C 832 770.33333333333 936 800 1022 800 C 1084.66666666667 800 1130.33333333333 784 1159 752 C 1187.66666666667 719.33333333333 1202 673.66666666667 1202 615 C 1202 527.66666666667 1166.33333333333 455.66666666667 1095 399 C 1023 342.33333333333 941.33333333333 314 850 314 C 804.66666666667 314 756.33333333333 324 705 344 C 653 364 607.66666666667 391.66666666667 569 427 Z M 1003 630 C 997 633.33333333333 988.66666666667 635 978 635 C 962 635 929 624 879 602 C 829 580 780.33333333333 555.66666666667 733 529 C 750.33333333333 515.66666666667 769.66666666667 505 791 497 C 811.66666666667 488.33333333333 834.66666666667 484 860 484 C 908 484 945.33333333333 494.66666666667 972 516 C 998.66666666667 536.66666666667 1012 567.33333333333 1012 608 C 1012 619.33333333333 1009 626.66666666667 1003 630 Z"/>
    <path fill="#000000" stroke="none" transform="matrix(1 0 0 -1 6371 2689)" d="M 373 233 C 463.66666666667 262.33333333333 557.33333333333 322.66666666667 654 414 C 750.66666666667 504.66666666667 820 581.66666666667 862 645 C 903.33333333333 708.33333333333 946.66666666667 740 992 740 C 1018 740 1037 732 1049 716 C 1060.33333333333 700 1066 679.33333333333 1066 654 C 1066 580.66666666667 987.66666666667 476 831 340 C 673.66666666667 203.33333333333 538.66666666667 109.33333333333 426 58 C 312.66666666667 6 223.66666666667 -20 159 -20 C 131 -20 107.66666666667 -12.33333333333 89 3 C 69.66666666667 18.33333333333 60 36 60 56 C 60 84 71 112.66666666667 93 142 C 114.33333333333 170.66666666667 146.66666666667 220.66666666667 190 292 C 233.33333333333 362.66666666667 260.66666666667 433.33333333333 272 504 C 282.66666666667 574.66666666667 299.33333333333 620 322 640 C 344 659.33333333333 370.66666666667 669 402 669 C 438 669 464.33333333333 659.66666666667 481 641 C 497.66666666667 621.66666666667 506 590.66666666667 506 548 C 506 508.66666666667 488.66666666667 455 454 387 C 418.66666666667 318.33333333333 390 273 368 251 L 373 233 Z"/>
    <path fill="#000000" stroke="none" transform="matrix(1 0 0 -1 8497 2689)" d="M 504 253 L 453 307 C 434.33333333333 327 417.33333333333 349.33333333333 402 374 C 386.66666666667 398.66666666667 379 425.66666666667 379 455 C 379 527.66666666667 451 603.33333333333 595 682 C 738.33333333333 760.66666666667 831 800 873 800 C 903.66666666667 800 927.33333333333 791.66666666667 944 775 C 960 758.33333333333 968 738 968 714 C 968 681.33333333333 946.33333333333 655.66666666667 903 637 C 859 617.66666666667 794 584 708 536 C 622 488 579 457 579 443 C 579 433.66666666667 586.66666666667 421.66666666667 602 407 L 653 356 C 671.66666666667 337.33333333333 688.66666666667 317.66666666667 704 297 C 719.33333333333 276.33333333333 727 256 727 236 C 727 140 668.33333333333 61.66666666667 551 1 C 433 -59.66666666667 294 -90 134 -90 C 60 -90 0 -79.33333333333 -46 -58 C -92 -36.66666666667 -115 -7.33333333333 -115 30 C -115 59.33333333333 -105.66666666667 83.33333333333 -87 102 C -68.33333333333 120.66666666667 -46.33333333333 130 -21 130 C -8.33333333333 130 5.33333333333 128 20 124 L 66 110 C 82.66666666667 104.66666666667 101 100 121 96 C 140.33333333333 92 161.66666666667 90 185 90 C 283 90 364.66666666667 101.33333333333 430 124 C 494.66666666667 146.66666666667 527 175.66666666667 527 211 C 527 223 519.33333333333 237 504 253 Z M 439 888 C 421 906 412 928.66666666667 412 956 C 412 987.33333333333 423 1013.66666666667 445 1035 C 467 1056.33333333333 492.33333333333 1067 521 1067 C 549 1067 572.33333333333 1057.33333333333 591 1038 C 609.66666666667 1018.66666666667 619 995.33333333333 619 968 C 619 938.66666666667 608 913.33333333333 586 892 C 564 870.66666666667 538 860 508 860 C 480 860 457 869.33333333333 439 888 Z M 769 888 C 751 906 742 928.66666666667 742 956 C 742 987.33333333333 753 1013.66666666667 775 1035 C 797 1056.33333333333 822.33333333333 1067 851 1067 C 879 1067 902.33333333333 1057.33333333333 921 1038 C 939.66666666667 1018.66666666667 949 995.33333333333 949 968 C 949 938.66666666667 938 913.33333333333 916 892 C 894 870.66666666667 868 860 838 860 C 810 860 787 869.33333333333 769 888 Z"/>
    <path fill="#000000" stroke="none" transform="matrix(1 0 0 -1 9520 2689)" d="M 430 290 C 423.33333333333 284 409.66666666667 272.33333333333 389 255 C 368.33333333333 237.66666666667 358 223 358 211 C 358 202.33333333333 375.66666666667 182 411 150 C 446.33333333333 118 464 84 464 48 C 464 4 443.66666666667 -44.33333333333 403 -97 C 362.33333333333 -150.33333333333 298.66666666667 -200.66666666667 212 -248 C 124.66666666667 -296 62.66666666667 -320 26 -320 C -16 -320 -47.33333333333 -310.66666666667 -68 -292 C -89.33333333333 -274 -100 -248 -100 -214 C -100 -154.66666666667 -64.66666666667 -115.66666666667 6 -97 C 76.66666666667 -78.33333333333 135.33333333333 -56.33333333333 182 -31 C 228 -5.66666666667 251 20 251 46 C 251 60 236 82.33333333333 206 113 C 175.33333333333 143 160 168.66666666667 160 190 C 160 211.33333333333 167.66666666667 234.66666666667 183 260 C 198.33333333333 285.33333333333 226 319 266 361 C 306 402.33333333333 357.66666666667 448.66666666667 421 500 C 483.66666666667 551.33333333333 570.33333333333 615.33333333333 681 692 C 791 768 910 845 1038 923 C 1165.33333333333 1001 1240.66666666667 1044.66666666667 1264 1054 C 1287.33333333333 1063.33333333333 1312.33333333333 1068 1339 1068 C 1366.33333333333 1068 1386.66666666667 1062 1400 1050 C 1412.66666666667 1037.33333333333 1419 1020.66666666667 1419 1000 C 1419 966 1388.33333333333 931.66666666667 1327 897 L 1253 855 C 1198.33333333333 823.66666666667 1136 787.33333333333 1066 746 C 996 704 929.66666666667 663.66666666667 867 625 C 919 615 961.33333333333 589 994 547 C 1026 505 1042 454.33333333333 1042 395 C 1042 317 1008 252.33333333333 940 201 C 872 149 799.33333333333 123 722 123 C 653.33333333333 123 594.66666666667 136.66666666667 546 164 C 496.66666666667 191.33333333333 458 233.33333333333 430 290 Z M 595 402 C 603.66666666667 372 617.66666666667 346.33333333333 637 325 C 655.66666666667 303.66666666667 685.33333333333 293 726 293 C 759.33333333333 293 788.66666666667 303 814 323 C 839.33333333333 343 852 369.33333333333 852 402 C 852 424 844.33333333333 443 829 459 C 813.66666666667 474.33333333333 790 482 758 482 C 708.66666666667 482 654.33333333333 455.33333333333 595 402 Z"/>
    <path fill="#000000" stroke="none" transform="matrix(1 0 0 -1 10842 2689)" d="M 648 660 C 674.66666666667 605.33333333333 701.66666666667 578 729 578 C 743.66666666667 578 760.66666666667 585 780 599 C 799.33333333333 613 822 633 848 659 L 886 698 C 898 710 909.33333333333 720 920 728 C 930.66666666667 736 939.66666666667 740 947 740 C 986.33333333333 740 1006.66666666667 706.33333333333 1008 639 C 1008.66666666667 571.66666666667 1021 529 1045 511 C 1066.33333333333 511 1093 527 1125 559 C 1157 590.33333333333 1189 633.66666666667 1221 689 C 1252.33333333333 743.66666666667 1296.66666666667 771 1354 771 C 1378.66666666667 771 1397.33333333333 764.33333333333 1410 751 C 1422 737 1428 718.66666666667 1428 696 C 1428 646.66666666667 1397 593 1335 535 C 1273 476.33333333333 1217.33333333333 427.66666666667 1168 389 C 1118 350.33333333333 1070.33333333333 331 1025 331 C 991.66666666667 331 960 344.33333333333 930 371 C 900 397.66666666667 879.33333333333 433 868 477 C 834.66666666667 427.66666666667 800.66666666667 393.66666666667 766 375 C 730.66666666667 355.66666666667 698.33333333333 346 669 346 C 659.66666666667 346 648 349.66666666667 634 357 C 620 364.33333333333 605.66666666667 373 591 383 C 501 327 428.33333333333 265.66666666667 373 199 C 317.66666666667 131.66666666667 290 68 290 8 C 290 -42.66666666667 312.33333333333 -80 357 -104 C 401 -128 467.66666666667 -140 557 -140 C 619.66666666667 -140 670 -139 708 -137 C 745.33333333333 -135 776.66666666667 -132.66666666667 802 -130 L 867 -124 C 885.66666666667 -122 907.33333333333 -121 932 -121 C 954 -121 972 -127 986 -139 C 999.33333333333 -151.66666666667 1006 -170 1006 -194 C 1006 -235.33333333333 965.66666666667 -266.66666666667 885 -288 C 804.33333333333 -309.33333333333 691 -320 545 -320 C 398.33333333333 -320 287.66666666667 -293.33333333333 213 -240 C 137.66666666667 -187.33333333333 100 -112.33333333333 100 -15 C 100 69.66666666667 135.33333333333 157.33333333333 206 248 C 276 338 364 415.33333333333 470 480 L 439 499 C 420.33333333333 509.66666666667 405.66666666667 521.33333333333 395 534 C 384.33333333333 546.66666666667 379 561 379 577 C 379 615.66666666667 398.66666666667 652.66666666667 438 688 C 476.66666666667 723.33333333333 519.33333333333 741 566 741 C 594 741 621.33333333333 714 648 660 Z"/>
    <path fill="#000000" stroke="none" transform="matrix(1 0 0 -1 12320 2689)" d="M 781 652 C 832.33333333333 694 884.66666666667 726 938 748 C 990.66666666667 769.33333333333 1045 780 1101 780 C 1171 780 1224.33333333333 763 1261 729 C 1297 694.33333333333 1315 647.33333333333 1315 588 C 1315 486 1254 398.66666666667 1132 326 C 1010 252.66666666667 869 216 709 216 C 639 216 577.66666666667 220 525 228 C 430.33333333333 181.33333333333 367.66666666667 142.33333333333 337 111 C 305.66666666667 79 290 46.33333333333 290 13 C 290 -46.33333333333 311 -86.66666666667 353 -108 C 394.33333333333 -129.33333333333 464.66666666667 -140 564 -140 C 701.33333333333 -140 798.66666666667 -134.33333333333 856 -123 C 913.33333333333 -111.66666666667 945.66666666667 -106 953 -106 C 975 -106 993 -111.66666666667 1007 -123 C 1020.33333333333 -134.33333333333 1027 -152 1027 -176 C 1027 -222.66666666667 985.66666666667 -258.33333333333 903 -283 C 819.66666666667 -307.66666666667 706.33333333333 -320 563 -320 C 413 -320 298.33333333333 -295 219 -245 C 139.66666666667 -195.66666666667 100 -124.66666666667 100 -32 C 100 27.33333333333 118.33333333333 81.66666666667 155 131 C 191 179.66666666667 251.33333333333 231.33333333333 336 286 C 291.33333333333 311.33333333333 259.66666666667 341.33333333333 241 376 C 221.66666666667 410 212 447 212 487 C 212 554.33333333333 243 614.33333333333 305 667 C 366.33333333333 719.66666666667 447.66666666667 746 549 746 C 585 746 625 737.66666666667 669 721 C 713 703.66666666667 750.33333333333 680.66666666667 781 652 Z M 732 381 C 834.66666666667 385 926 407 1006 447 C 1085.33333333333 487 1125 528 1125 570 C 1125 578.66666666667 1120 588.33333333333 1110 599 C 1100 609.66666666667 1082 615 1056 615 C 1020.66666666667 615 981.33333333333 600.66666666667 938 572 C 894.66666666667 543.33333333333 826 479.66666666667 732 381 Z M 516 395 C 537.33333333333 412.33333333333 559.66666666667 433.33333333333 583 458 L 656 534 C 641.33333333333 548 625.33333333333 559.33333333333 608 568 C 590 576.66666666667 568.33333333333 581 543 581 C 497.66666666667 581 463 571.66666666667 439 553 C 414.33333333333 533.66666666667 402 511.66666666667 402 487 C 402 465 411 446.33333333333 429 431 C 447 415.66666666667 476 403.66666666667 516 395 Z"/>
    <path fill="#000000" stroke="none" transform="matrix(1 0 0 -1 13695 2689)" d="M 610 347 C 568 365 534.33333333333 393.66666666667 509 433 C 483 471.66666666667 470 518.33333333333 470 573 C 470 639.66666666667 491.33333333333 699.33333333333 534 752 C 576.66666666667 804 624 830 676 830 C 702 830 723.66666666667 824 741 812 C 757.66666666667 799.33333333333 766 781.33333333333 766 758 C 766 742.66666666667 760.66666666667 729.66666666667 750 719 L 714 684 C 699.33333333333 670 687 654 677 636 C 666.33333333333 618 661 595.33333333333 661 568 C 661 536 672 512 694 496 C 715.33333333333 479.33333333333 742 469.33333333333 774 466 C 810.66666666667 496.66666666667 855.66666666667 538.33333333333 909 591 C 961.66666666667 643 1001 669 1027 669 C 1046.33333333333 669 1061.33333333333 665 1072 657 C 1082 648.33333333333 1087 631.66666666667 1087 607 C 1087 518.33333333333 936.66666666667 368.33333333333 636 157 C 335.33333333333 -54.33333333333 123.66666666667 -160 1 -160 C -39.66666666667 -160 -70 -149 -90 -127 C -110 -105 -120 -76 -120 -40 C -120 21.33333333333 -78 59 6 73 C 90 86.33333333333 187 119.33333333333 297 172 C 406.33333333333 224 510.66666666667 282.33333333333 610 347 Z"/>
    <path fill="#000000" stroke="none" transform="matrix(1 0 0 -1 14812 2689)" d="M 569 427 C 547.66666666667 411 529.33333333333 397 514 385 C 498 372.33333333333 490 361 490 351 C 490 341.66666666667 509.33333333333 319 548 283 C 586.66666666667 246.33333333333 606 207 606 165 C 606 96.33333333333 560.66666666667 36.66666666667 470 -14 C 378.66666666667 -64.66666666667 284 -90 186 -90 C 110.66666666667 -90 52.66666666667 -80.33333333333 12 -61 C -29.33333333333 -41.66666666667 -50 -14.33333333333 -50 21 C -50 49.66666666667 -43.33333333333 73 -30 91 C -16.66666666667 108.33333333333 4.66666666667 117 34 117 C 55.33333333333 117 80.33333333333 112.33333333333 109 103 C 137.66666666667 93 165.33333333333 88 192 88 C 254.66666666667 88 305.33333333333 95.33333333333 344 110 C 382 124 401 145 401 173 C 401 193.66666666667 382 217 344 243 C 306 269 287 291.33333333333 287 310 C 287 364.66666666667 327 430.33333333333 407 507 C 487 583 588 651 710 711 C 832 770.33333333333 936 800 1022 800 C 1084.66666666667 800 1130.33333333333 784 1159 752 C 1187.66666666667 719.33333333333 1202 673.66666666667 1202 615 C 1202 527.66666666667 1166.33333333333 455.66666666667 1095 399 C 1023 342.33333333333 941.33333333333 314 850 314 C 804.66666666667 314 756.33333333333 324 705 344 C 653 364 607.66666666667 391.66666666667 569 427 Z M 1003 630 C 997 633.33333333333 988.66666666667 635 978 635 C 962 635 929 624 879 602 C 829 580 780.33333333333 555.66666666667 733 529 C 750.33333333333 515.66666666667 769.66666666667 505 791 497 C 811.66666666667 488.33333333333 834.66666666667 484 860 484 C 908 484 945.33333333333 494.66666666667 972 516 C 998.66666666667 536.66666666667 1012 567.33333333333 1012 608 C 1012 619.33333333333 1009 626.66666666667 1003 630 Z M 755 -95 C 737 -77 728 -54.33333333333 728 -27 C 728 4.33333333333 739 30.66666666667 761 52 C 783 73.33333333333 808.33333333333 84 837 84 C 865 84 888.33333333333 74.33333333333 907 55 C 925.66666666667 35.66666666667 935 12.33333333333 935 -15 C 935 -44.33333333333 924 -69.66666666667 902 -91 C 880 -112.33333333333 854 -123 824 -123 C 796 -123 773 -113.66666666667 755 -95 Z"/>
    <path fill="#000000" stroke="none" transform="matrix(1 0 0 -1 17142 2689)" d="M 406 294 C 370 315.33333333333 342.33333333333 342 323 374 C 303.66666666667 406 294 441 294 479 C 294 564.33333333333 338.33333333333 644.33333333333 427 719 C 515 793 613 830 721 830 C 787 830 837.66666666667 816.66666666667 873 790 C 908.33333333333 763.33333333333 926 724.66666666667 926 674 C 926 599.33333333333 900.33333333333 526.33333333333 849 455 C 797.66666666667 383.66666666667 696 288 544 168 C 392 47.33333333333 261.66666666667 -37.33333333333 153 -86 C 43.66666666667 -135.33333333333 -26.66666666667 -160 -58 -160 C -100 -160 -131.33333333333 -149.66666666667 -152 -129 C -173.33333333333 -108.33333333333 -184 -81 -184 -47 C -184 14.33333333333 -151.33333333333 52.33333333333 -86 67 C -21.33333333333 81.66666666667 57.66666666667 111.66666666667 151 157 C 243.66666666667 201.66666666667 328.66666666667 247.33333333333 406 294 Z M 588 421 C 642.66666666667 465.66666666667 681.33333333333 504 704 536 C 726.66666666667 568 738 597.66666666667 738 625 C 738 636.33333333333 734.33333333333 646 727 654 C 719.66666666667 661.33333333333 704.33333333333 665 681 665 C 638.33333333333 665 595 646.66666666667 551 610 C 506.33333333333 573.33333333333 484 534.33333333333 484 493 C 484 472.33333333333 492 456.33333333333 508 445 C 523.33333333333 433 550 425 588 421 Z M 647 908 C 629 926 620 948.66666666667 620 976 C 620 1007.33333333333 631 1033.66666666667 653 1055 C 675 1076.33333333333 700.33333333333 1087 729 1087 C 757 1087 780.33333333333 1077.33333333333 799 1058 C 817.66666666667 1038.66666666667 827 1015.33333333333 827 988 C 827 958.66666666667 816 933.33333333333 794 912 C 772 890.66666666667 746 880 716 880 C 688 880 665 889.33333333333 647 908 Z"/>
    <path fill="#000000" stroke="none" transform="matrix(1 0 0 -1 18179 2689)" d="M 1008 721 C 1018.66666666667 708.33333333333 1024 691.66666666667 1024 671 C 1024 661.66666666667 1022 649.33333333333 1018 634 C 1013.33333333333 618 991.66666666667 583.66666666667 953 531 C 914.33333333333 478.33333333333 845 409 745 323 C 644.33333333333 237 547.33333333333 165 454 107 C 360 48.33333333333 288.66666666667 12.66666666667 240 0 C 190.66666666667 -13.33333333333 161.66666666667 -20 153 -20 C 113.66666666667 -20 83.33333333333 -11 62 7 C 40.66666666667 25 30 50 30 82 C 30 146.66666666667 64.66666666667 188 134 206 C 203.33333333333 223.33333333333 287.33333333333 260.33333333333 386 317 C 484 373 570.66666666667 427.66666666667 646 481 C 721.33333333333 533.66666666667 784 590 834 650 C 883.33333333333 710 925.66666666667 740 961 740 C 981.66666666667 740 997.33333333333 733.66666666667 1008 721 Z M 775 28 C 757 46 748 68.66666666667 748 96 C 748 127.33333333333 759 153.66666666667 781 175 C 803 196.33333333333 828.33333333333 207 857 207 C 885 207 908.33333333333 197.33333333333 927 178 C 945.66666666667 158.66666666667 955 135.33333333333 955 108 C 955 78.66666666667 944 53.33333333333 922 32 C 900 10.66666666667 874 0 844 0 C 816 0 793 9.33333333333 775 28 Z"/>
    <path fill="#000000" stroke="none" transform="matrix(1 0 0 -1 19288 2689)" d="M 825 690 C 855 668.66666666667 879.33333333333 642 898 610 C 950 610 1001.66666666667 622.33333333333 1053 647 C 1103.66666666667 671.66666666667 1149.33333333333 703.33333333333 1190 742 C 1230.66666666667 780.66666666667 1263 800 1287 800 C 1309 800 1326.66666666667 793.33333333333 1340 780 C 1352.66666666667 766.66666666667 1359 751.33333333333 1359 734 C 1359 660 1298 586 1176 512 C 1053.33333333333 437.33333333333 910.66666666667 400 748 400 C 736.66666666667 400 728.33333333333 400.33333333333 723 401 C 629 285 534.33333333333 184 439 98 C 343 11.33333333333 254.33333333333 -53.33333333333 173 -96 C 91 -138.66666666667 32.66666666667 -160 -2 -160 C -40.66666666667 -160 -70 -149.66666666667 -90 -129 C -110 -108.33333333333 -120 -80 -120 -44 C -120 10 -90.33333333333 46.66666666667 -31 66 C 27.66666666667 85.33333333333 77.33333333333 103.66666666667 118 121 C 158 137.66666666667 208.66666666667 168.33333333333 270 213 C 331.33333333333 257 386.33333333333 301.66666666667 435 347 C 483 392.33333333333 524.66666666667 434.66666666667 560 474 C 536 500 524 529 524 561 C 524 607.66666666667 541.66666666667 646 577 676 C 612.33333333333 706 660 721 720 721 C 760 721 795 710.66666666667 825 690 Z"/>
    <path fill="#000000" stroke="none" transform="matrix(1 0 0 -1 20677 2689)" d="M 1112 147 C 961.33333333333 35.66666666667 777.33333333333 -20 560 -20 C 430 -20 324.33333333333 9.66666666667 243 69 C 161 127.66666666667 120 204.66666666667 120 300 C 120 410 158.66666666667 500.66666666667 236 572 C 312.66666666667 642.66666666667 415.66666666667 678 545 678 C 591 678 632.33333333333 672 669 660 C 705.66666666667 648 739 632.33333333333 769 613 C 821 651 876 681.66666666667 934 705 C 991.33333333333 728.33333333333 1051.33333333333 740 1114 740 C 1182 740 1236.33333333333 721 1277 683 C 1317.66666666667 645 1338 597.33333333333 1338 540 C 1338 388.66666666667 1262.66666666667 257.66666666667 1112 147 Z M 818 436 C 721.33333333333 353.33333333333 647 261.33333333333 595 160 C 757 168.66666666667 888 209 988 281 C 1088 353 1138 426 1138 500 C 1138 540 1115.33333333333 560 1070 560 C 998 560 914 518.66666666667 818 436 Z M 346 232 C 362.66666666667 210 383.33333333333 193.33333333333 408 182 L 448 250 C 472 290.66666666667 498.66666666667 331 528 371 C 557.33333333333 410.33333333333 589 447.66666666667 623 483 C 591 493 560.66666666667 498 532 498 C 472 498 421.66666666667 480.33333333333 381 445 C 340.33333333333 409.66666666667 320 367.33333333333 320 318 C 320 282.66666666667 328.66666666667 254 346 232 Z"/>
    <path fill="#000000" stroke="none" transform="matrix(1 0 0 -1 22135 2689)" d="M 321 423 C 272.33333333333 449.66666666667 239.66666666667 475 223 499 C 206.33333333333 522.33333333333 198 550 198 582 C 198 621.33333333333 214 658 246 692 C 278 726 315.66666666667 743 359 743 C 410.33333333333 743 452.66666666667 725.66666666667 486 691 C 519.33333333333 656.33333333333 538 610.66666666667 542 554 C 618.66666666667 543.33333333333 702 535 792 529 C 881.33333333333 523 981 520 1091 520 C 1461.66666666667 520 1680 546 1746 598 C 1811.33333333333 650 1854.66666666667 701.66666666667 1876 753 C 1896.66666666667 804.33333333333 1929.66666666667 830 1975 830 C 2001 830 2019.66666666667 822.66666666667 2031 808 C 2041.66666666667 792.66666666667 2047 772.33333333333 2047 747 C 2047 672.33333333333 2009.66666666667 598.33333333333 1935 525 C 1859.66666666667 451 1761.33333333333 401.66666666667 1640 377 C 1518.66666666667 352.33333333333 1327 340 1065 340 C 950.33333333333 340 847 344 755 352 C 663 359.33333333333 581.33333333333 368 510 378 C 480.66666666667 312 426.66666666667 248.33333333333 348 187 C 269.33333333333 125 204.66666666667 94 154 94 C 122 94 96.66666666667 102 78 118 C 59.33333333333 134 50 155.33333333333 50 182 C 50 220 75.33333333333 248 126 266 C 176.66666666667 283.33333333333 220 307 256 337 C 292 366.33333333333 313.66666666667 395 321 423 Z"/>
    <path fill="#000000" stroke="none" transform="matrix(1 0 0 -1 24222 2689)" d="M 787 526 C 668.33333333333 385.33333333333 526.33333333333 259.33333333333 361 148 C 195 36 76.66666666667 -20 6 -20 C -36 -20 -67.33333333333 -10.66666666667 -88 8 C -109.33333333333 26 -120 52 -120 86 C -120 144 -88.66666666667 182 -26 200 C 36.66666666667 217.33333333333 105 243 179 277 C 253 310.33333333333 324.66666666667 351 394 399 C 462.66666666667 446.33333333333 538.66666666667 515 622 605 C 704.66666666667 695 776.33333333333 740 837 740 C 881.66666666667 740 915.33333333333 724.33333333333 938 693 C 960 661.66666666667 971 612 971 544 C 971 468.66666666667 958 395.33333333333 932 324 C 906 252 868.33333333333 179.66666666667 819 107 C 769 34.33333333333 720.66666666667 -2 674 -2 C 645.33333333333 -2 622.66666666667 5.33333333333 606 20 C 588.66666666667 34 580 53 580 77 C 580 102.33333333333 587.33333333333 125 602 145 C 616.66666666667 164.33333333333 643.66666666667 203.66666666667 683 263 C 722.33333333333 322.33333333333 748.66666666667 370.66666666667 762 408 C 775.33333333333 445.33333333333 783.66666666667 484.66666666667 787 526 Z M 781 908 C 763 926 754 948.66666666667 754 976 C 754 1007.33333333333 765 1033.66666666667 787 1055 C 809 1076.33333333333 834.33333333333 1087 863 1087 C 891 1087 914.33333333333 1077.33333333333 933 1058 C 951.66666666667 1038.66666666667 961 1015.33333333333 961 988 C 961 958.66666666667 950 933.33333333333 928 912 C 906 890.66666666667 880 880 850 880 C 822 880 799 889.33333333333 781 908 Z"/>
    <path fill="#000000" stroke="none" transform="matrix(1 0 0 -1 26323 2689)" d="M 533 380 C 561.66666666667 371.33333333333 595.33333333333 367 634 367 C 684 367 726.66666666667 380 762 406 C 797.33333333333 432 815 465.33333333333 815 506 C 815 527.33333333333 810.66666666667 545 802 559 C 792.66666666667 572.33333333333 780.33333333333 582.33333333333 765 589 L 738 601 C 714 611.66666666667 695.66666666667 622 683 632 C 670.33333333333 642 664 657.66666666667 664 679 C 664 723.66666666667 695.33333333333 754.33333333333 758 771 C 820.66666666667 787 864.66666666667 803 890 819 L 920 838 C 929.33333333333 844 939 849 949 853 C 958.33333333333 857 969 859 981 859 C 1005 859 1024.66666666667 851.33333333333 1040 836 C 1055.33333333333 820.66666666667 1063 801.66666666667 1063 779 C 1063 758.33333333333 1054.66666666667 740.33333333333 1038 725 C 1021.33333333333 709 985 690.66666666667 929 670 C 947.66666666667 663.33333333333 966.66666666667 644.66666666667 986 614 C 1005.33333333333 582.66666666667 1015 547.66666666667 1015 509 C 1015 411.66666666667 972.66666666667 333 888 273 C 803.33333333333 212.33333333333 700.66666666667 182 580 182 C 525.33333333333 182 477.66666666667 185.66666666667 437 193 C 371 157.66666666667 326.66666666667 126 304 98 C 280.66666666667 70 269 41.66666666667 269 13 C 269 -45.66666666667 289.33333333333 -85.66666666667 330 -107 C 370.66666666667 -129 441.66666666667 -140 543 -140 C 611.66666666667 -140 671 -138.33333333333 721 -135 C 771 -132.33333333333 811.33333333333 -128.33333333333 842 -123 C 902 -112.33333333333 932 -106.66666666667 932 -106 C 954 -106 972 -111.66666666667 986 -123 C 999.33333333333 -134.33333333333 1006 -152 1006 -176 C 1006 -222 965 -257.33333333333 883 -282 C 801 -307.33333333333 687.33333333333 -320 542 -320 C 392 -320 277.33333333333 -295 198 -245 C 118.66666666667 -195.66666666667 79 -124.66666666667 79 -32 C 79 24.66666666667 95.33333333333 76.66666666667 128 124 C 160.66666666667 170.66666666667 214.66666666667 219.33333333333 290 270 C 274 292 266 318 266 348 C 266 393.33333333333 279.33333333333 428.33333333333 306 453 C 332.66666666667 477 369.66666666667 489 417 489 C 443 489 466.66666666667 478.66666666667 488 458 C 509.33333333333 437.33333333333 524.33333333333 411.33333333333 533 380 Z"/>
    <path fill="#000000" stroke="none" transform="matrix(1 0 0 -1 27516 2689)" d="M 1164 539 C 1114.66666666667 518.33333333333 1067 500.33333333333 1021 485 C 974.33333333333 469.66666666667 924.33333333333 459.33333333333 871 454 C 708.33333333333 279.33333333333 582 156.66666666667 492 86 C 402 14.66666666667 310 -44 216 -90 C 121.33333333333 -136.66666666667 51.33333333333 -160 6 -160 C -36 -160 -67.33333333333 -149 -88 -127 C -109.33333333333 -105.66666666667 -120 -78 -120 -44 C -120 18 -86 56.66666666667 -18 72 C 50 86.66666666667 125.66666666667 112 209 148 C 291.66666666667 184 371.66666666667 229 449 283 C 525.66666666667 337 598.66666666667 400.33333333333 668 473 C 636 485.66666666667 611 503 593 525 C 575 547 566 572.33333333333 566 601 C 566 648.33333333333 582.33333333333 688.66666666667 615 722 C 647 754.66666666667 690.33333333333 771 745 771 C 785 771 820 760.66666666667 850 740 C 880 719.33333333333 904.33333333333 693 923 661 C 973.66666666667 665 1017.66666666667 675 1055 691 C 1092.33333333333 706.33333333333 1123.66666666667 721.66666666667 1149 737 L 1222 781 C 1243.33333333333 793.66666666667 1265 800 1287 800 C 1313.66666666667 800 1332.66666666667 790 1344 770 C 1355.33333333333 749.33333333333 1361 704.33333333333 1361 635 C 1361 555 1345.33333333333 474.66666666667 1314 394 C 1282 312.66666666667 1241.66666666667 235.66666666667 1193 163 C 1143.66666666667 90.33333333333 1095.33333333333 54 1048 54 C 1019.33333333333 54 996.66666666667 61.33333333333 980 76 C 962.66666666667 90 954 109 954 133 C 954 164.33333333333 965.33333333333 193 988 219 C 1010.66666666667 245 1044.33333333333 290.33333333333 1089 355 C 1133 419 1158 480.33333333333 1164 539 Z"/>
    <path fill="#000000" stroke="none" transform="matrix(1 0 0 -1 29007 2689)" d="M 470 294 C 434 315.33333333333 406.33333333333 342 387 374 C 367.66666666667 406 358 441 358 479 C 358 564.33333333333 402.33333333333 644.33333333333 491 719 C 579 793 677 830 785 830 C 851 830 901.66666666667 816.66666666667 937 790 C 972.33333333333 763.33333333333 990 724.66666666667 990 674 C 990 599.33333333333 964.33333333333 526.33333333333 913 455 C 861.66666666667 383.66666666667 760 288 608 168 C 456 47.33333333333 325.66666666667 -37.33333333333 217 -86 C 107.66666666667 -135.33333333333 37.33333333333 -160 6 -160 C -36 -160 -67.33333333333 -149.66666666667 -88 -129 C -109.33333333333 -108.33333333333 -120 -81 -120 -47 C -120 14.33333333333 -87.33333333333 52.33333333333 -22 67 C 42.66666666667 81.66666666667 121.66666666667 111.66666666667 215 157 C 307.66666666667 201.66666666667 392.66666666667 247.33333333333 470 294 Z M 652 421 C 706.66666666667 465.66666666667 745.33333333333 504 768 536 C 790.66666666667 568 802 597.66666666667 802 625 C 802 636.33333333333 798.33333333333 646 791 654 C 783.66666666667 661.33333333333 768.33333333333 665 745 665 C 702.33333333333 665 659 646.66666666667 615 610 C 570.33333333333 573.33333333333 548 534.33333333333 548 493 C 548 472.33333333333 556 456.33333333333 572 445 C 587.33333333333 433 614 425 652 421 Z"/>
    <path fill="#000000" stroke="none" transform="matrix(1 0 0 -1 30109 2689)" d="M 677 455 C 700.33333333333 443 718.66666666667 431.33333333333 732 420 C 744.66666666667 408 751 390.66666666667 751 368 C 751 312.66666666667 695 240 583 150 C 471 59.33333333333 358 -15 244 -73 C 130 -131 50.66666666667 -160 6 -160 C -36 -160 -67.33333333333 -149 -88 -127 C -109.33333333333 -105.66666666667 -120 -78 -120 -44 C -120 18.66666666667 -68.33333333333 60.66666666667 35 82 C 137.66666666667 102.66666666667 244 140.33333333333 354 195 C 463.33333333333 249 518 296.66666666667 518 338 C 518 346 507 355.33333333333 485 366 C 462.33333333333 376 445.33333333333 388 434 402 C 422 416 416 433.33333333333 416 454 C 416 471.33333333333 426.33333333333 489 447 507 C 467.66666666667 524.33333333333 495.66666666667 541.66666666667 531 559 L 586 586 C 603.33333333333 594 617.66666666667 601.66666666667 629 609 C 639.66666666667 615.66666666667 645 621.66666666667 645 627 C 645 633 642.66666666667 637.66666666667 638 641 C 632.66666666667 644.33333333333 624.66666666667 647.33333333333 614 650 L 575 659 C 531.66666666667 669 501 680 483 692 C 465 704 456 722.33333333333 456 747 C 456 779 472.66666666667 804 506 822 C 539.33333333333 839.33333333333 572.66666666667 858 606 878 C 639.33333333333 897.33333333333 670.66666666667 919.33333333333 700 944 C 728.66666666667 968 755 980 779 980 C 800.33333333333 980 818.66666666667 972.33333333333 834 957 C 849.33333333333 941 857 922 857 900 C 857 881.33333333333 844.66666666667 860.33333333333 820 837 C 794.66666666667 813 757.66666666667 789 709 765 C 781.66666666667 745 826.66666666667 727.33333333333 844 712 C 861.33333333333 696.66666666667 870 678.33333333333 870 657 C 870 621 854 586.33333333333 822 553 C 790 519.66666666667 741.66666666667 487 677 455 Z"/>
    <path fill="#000000" stroke="none" transform="matrix(1 0 0 -1 31029 2689)" d="M 822 735 C 879.33333333333 691.66666666667 908 635 908 565 C 908 479 868.66666666667 399.33333333333 790 326 C 710.66666666667 252 599.33333333333 177.33333333333 456 102 C 312 26 240 -36.66666666667 240 -86 C 240 -126.66666666667 258.66666666667 -155 296 -171 C 333.33333333333 -187 389 -195 463 -195 C 519 -195 565.66666666667 -187 603 -171 C 639.66666666667 -155.66666666667 672.66666666667 -138 702 -118 C 731.33333333333 -98 757 -88 779 -88 C 801.66666666667 -88 819.66666666667 -94.33333333333 833 -107 C 846.33333333333 -120.33333333333 853 -139 853 -163 C 853 -212.33333333333 813.66666666667 -257.33333333333 735 -298 C 655.66666666667 -339.33333333333 561.33333333333 -360 452 -360 C 336 -360 241.66666666667 -336.33333333333 169 -289 C 96.33333333333 -242.33333333333 60 -178 60 -96 C 60 -9.33333333333 128.66666666667 74.66666666667 266 156 C 403.33333333333 237.33333333333 477 281 487 287 C 401.66666666667 304.33333333333 339.33333333333 332.33333333333 300 371 C 260 409.66666666667 240 458.66666666667 240 518 C 240 596 278.33333333333 662.66666666667 355 718 C 431.66666666667 772.66666666667 517.66666666667 800 613 800 C 695 800 764.66666666667 778.33333333333 822 735 Z M 487 600 C 448.33333333333 576.66666666667 429 548.33333333333 429 515 C 429 485.66666666667 449 463.33333333333 489 448 C 528.33333333333 432.66666666667 587.33333333333 424 666 422 C 684.66666666667 440.66666666667 698 460.33333333333 706 481 C 714 501 718 526 718 556 C 718 576 708.66666666667 594.33333333333 690 611 C 671.33333333333 627 643 635 605 635 C 564.33333333333 635 525 623.33333333333 487 600 Z"/>
    <path fill="#000000" stroke="none" transform="matrix(1 0 0 -1 31997 2689)" d="M 692 741 C 719.33333333333 741 746.33333333333 742.66666666667 773 746 L 931 762 C 957 764 983 765 1009 765 C 1029.66666666667 765 1046.66666666667 759.66666666667 1060 749 C 1072.66666666667 738.33333333333 1079 722.33333333333 1079 701 C 1079 679.66666666667 1072 657 1058 633 C 1043.33333333333 608.33333333333 988.33333333333 547 893 449 C 797 351 690 253.33333333333 572 156 C 454 58 342 -19 236 -75 C 129.33333333333 -131.66666666667 52.66666666667 -160 6 -160 C -36 -160 -67.33333333333 -149 -88 -127 C -109.33333333333 -105.66666666667 -120 -78 -120 -44 C -120 16.66666666667 -85.33333333333 54.33333333333 -16 69 C 52.66666666667 83.66666666667 133.66666666667 113 227 157 C 320.33333333333 201 422.33333333333 269 533 361 C 643.66666666667 452.33333333333 732 527.66666666667 798 587 C 768 583.66666666667 737 581.33333333333 705 580 C 673 578 638.66666666667 577 602 577 C 545.33333333333 577 502 587 472 607 C 441.33333333333 627 426 653 426 685 C 426 717.66666666667 441.66666666667 744.66666666667 473 766 C 504.33333333333 787.33333333333 537.33333333333 813.66666666667 572 845 C 606.66666666667 875.66666666667 636.66666666667 906 662 936 C 687.33333333333 965.33333333333 717.66666666667 980 753 980 C 776.33333333333 980 795.33333333333 972 810 956 C 824 939.33333333333 831 919.33333333333 831 896 C 831 851.33333333333 784.66666666667 799.66666666667 692 741 Z"/>
    <path fill="#000000" stroke="none" transform="matrix(1 0 0 -1 34176 2689)" d="M 677 455 C 700.33333333333 443 718.66666666667 431.33333333333 732 420 C 744.66666666667 408 751 390.66666666667 751 368 C 751 312.66666666667 695 240 583 150 C 471 59.33333333333 358 -15 244 -73 C 130 -131 50.66666666667 -160 6 -160 C -36 -160 -67.33333333333 -149 -88 -127 C -109.33333333333 -105.66666666667 -120 -78 -120 -44 C -120 18.66666666667 -68.33333333333 60.66666666667 35 82 C 137.66666666667 102.66666666667 244 140.33333333333 354 195 C 463.33333333333 249 518 296.66666666667 518 338 C 518 346 507 355.33333333333 485 366 C 462.33333333333 376 445.33333333333 388 434 402 C 422 416 416 433.33333333333 416 454 C 416 471.33333333333 426.33333333333 489 447 507 C 467.66666666667 524.33333333333 495.66666666667 541.66666666667 531 559 L 586 586 C 603.33333333333 594 617.66666666667 601.66666666667 629 609 C 639.66666666667 615.66666666667 645 621.66666666667 645 627 C 645 633 642.66666666667 637.66666666667 638 641 C 632.66666666667 644.33333333333 624.66666666667 647.33333333333 614 650 L 575 659 C 531.66666666667 669 501 680 483 692 C 465 704 456 722.33333333333 456 747 C 456 779 472.66666666667 804 506 822 C 539.33333333333 839.33333333333 572.66666666667 858 606 878 C 639.33333333333 897.33333333333 670.66666666667 919.33333333333 700 944 C 728.66666666667 968 755 980 779 980 C 800.33333333333 980 818.66666666667 972.33333333333 834 957 C 849.33333333333 941 857 922 857 900 C 857 881.33333333333 844.66666666667 860.33333333333 820 837 C 794.66666666667 813 757.66666666667 789 709 765 C 781.66666666667 745 826.66666666667 727.33333333333 844 712 C 861.33333333333 696.66666666667 870 678.33333333333 870 657 C 870 621 854 586.33333333333 822 553 C 790 519.66666666667 741.66666666667 487 677 455 Z M 443 -280 C 425 -262 416 -239.33333333333 416 -212 C 416 -180.66666666667 427 -154.33333333333 449 -133 C 471 -111.66666666667 496.33333333333 -101 525 -101 C 553 -101 576.33333333333 -110.66666666667 595 -130 C 613.66666666667 -149.33333333333 623 -172.66666666667 623 -200 C 623 -229.33333333333 612 -254.66666666667 590 -276 C 568 -297.33333333333 542 -308 512 -308 C 484 -308 461 -298.66666666667 443 -280 Z"/>
    <path fill="#000000" stroke="none" transform="matrix(1 0 0 -1 35096 2689)" d="M 713 627 C 691 632.33333333333 665 635 635 635 C 573 635 509.66666666667 624.66666666667 445 604 C 380.33333333333 583.33333333333 331.66666666667 573 299 573 C 271 573 249.33333333333 582 234 600 C 218 617.33333333333 210 638 210 662 C 210 704 244 737.66666666667 312 763 C 380 787.66666666667 483 800 621 800 C 745 800 836 786 894 758 C 951.33333333333 730 980 688.33333333333 980 633 C 980 579.66666666667 953.33333333333 519.33333333333 900 452 C 846 384 753 304.33333333333 621 213 C 489 121.66666666667 370 56.66666666667 264 18 C 158 -20.66666666667 85.33333333333 -40 46 -40 C -38 -40 -80 -6.33333333333 -80 61 C -80 123 -42.33333333333 161.66666666667 33 177 C 107.66666666667 192.33333333333 196.33333333333 218 299 254 C 401.66666666667 289.33333333333 502 344.66666666667 600 420 C 697.33333333333 494.66666666667 746 556 746 604 C 746 614 735 621.66666666667 713 627 Z"/>
    <path fill="#000000" stroke="none" transform="matrix(1 0 0 -1 36156 2689)" d="M 321 423 C 272.33333333333 449.66666666667 239.66666666667 475 223 499 C 206.33333333333 522.33333333333 198 550 198 582 C 198 621.33333333333 214 658 246 692 C 278 726 315.66666666667 743 359 743 C 410.33333333333 743 452.66666666667 725.66666666667 486 691 C 519.33333333333 656.33333333333 538 610.66666666667 542 554 C 618.66666666667 543.33333333333 702 535 792 529 C 881.33333333333 523 981 520 1091 520 C 1461.66666666667 520 1680 546 1746 598 C 1811.33333333333 650 1854.66666666667 701.66666666667 1876 753 C 1896.66666666667 804.33333333333 1929.66666666667 830 1975 830 C 2001 830 2019.66666666667 822.66666666667 2031 808 C 2041.66666666667 792.66666666667 2047 772.33333333333 2047 747 C 2047 672.33333333333 2009.66666666667 598.33333333333 1935 525 C 1859.66666666667 451 1761.33333333333 401.66666666667 1640 377 C 1518.66666666667 352.33333333333 1327 340 1065 340 C 950.33333333333 340 847 344 755 352 C 663 359.33333333333 581.33333333333 368 510 378 C 480.66666666667 312 426.66666666667 248.33333333333 348 187 C 269.33333333333 125 204.66666666667 94 154 94 C 122 94 96.66666666667 102 78 118 C 59.33333333333 134 50 155.33333333333 50 182 C 50 220 75.33333333333 248 126 266 C 176.66666666667 283.33333333333 220 307 256 337 C 292 366.33333333333 313.66666666667 395 321 423 Z M 891 728 C 873 746 864 768.66666666667 864 796 C 864 827.33333333333 875 853.66666666667 897 875 C 919 896.33333333333 944.33333333333 907 973 907 C 1001 907 1024.33333333333 897.33333333333 1043 878 C 1061.66666666667 858.66666666667 1071 835.33333333333 1071 808 C 1071 778.66666666667 1060 753.33333333333 1038 732 C 1016 710.66666666667 990 700 960 700 C 932 700 909 709.33333333333 891 728 Z M 1281 728 C 1263 746 1254 768.66666666667 1254 796 C 1254 827.33333333333 1265 853.66666666667 1287 875 C 1309 896.33333333333 1334.33333333333 907 1363 907 C 1391 907 1414.33333333333 897.33333333333 1433 878 C 1451.66666666667 858.66666666667 1461 835.33333333333 1461 808 C 1461 778.66666666667 1450 753.33333333333 1428 732 C 1406 710.66666666667 1380 700 1350 700 C 1322 700 1299 709.33333333333 1281 728 Z M 1108 986 C 1090 1004 1081 1026.66666666667 1081 1054 C 1081 1085.33333333333 1092 1111.66666666667 1114 1133 C 1136 1154.33333333333 1161.33333333333 1165 1190 1165 C 1218 1165 1241.33333333333 1155.33333333333 1260 1136 C 1278.66666666667 1116.66666666667 1288 1093.33333333333 1288 1066 C 1288 1036.66666666667 1277 1011.33333333333 1255 990 C 1233 968.66666666667 1207 958 1177 958 C 1149 958 1126 967.33333333333 1108 986 Z"/>
    <path fill="#000000" stroke="none" transform="matrix(1 0 0 -1 38243 2689)" d="M 1008 721 C 1018.66666666667 708.33333333333 1024 691.66666666667 1024 671 C 1024 661.66666666667 1022 649.33333333333 1018 634 C 1013.33333333333 618 991.66666666667 583.66666666667 953 531 C 914.33333333333 478.33333333333 845 409 745 323 C 644.33333333333 237 547.33333333333 165 454 107 C 360 48.33333333333 288.66666666667 12.66666666667 240 0 C 190.66666666667 -13.33333333333 161.66666666667 -20 153 -20 C 113.66666666667 -20 83.33333333333 -11 62 7 C 40.66666666667 25 30 50 30 82 C 30 146.66666666667 64.66666666667 188 134 206 C 203.33333333333 223.33333333333 287.33333333333 260.33333333333 386 317 C 484 373 570.66666666667 427.66666666667 646 481 C 721.33333333333 533.66666666667 784 590 834 650 C 883.33333333333 710 925.66666666667 740 961 740 C 981.66666666667 740 997.33333333333 733.66666666667 1008 721 Z M 772 890 C 754 908 745 930.66666666667 745 958 C 745 989.33333333333 756 1015.66666666667 778 1037 C 800 1058.33333333333 825.33333333333 1069 854 1069 C 882 1069 905.33333333333 1059.33333333333 924 1040 C 942.66666666667 1020.66666666667 952 997.33333333333 952 970 C 952 940.66666666667 941 915.33333333333 919 894 C 897 872.66666666667 871 862 841 862 C 813 862 790 871.33333333333 772 890 Z"/>
    <path fill="#000000" stroke="none" transform="matrix(1 0 0 -1 39352 2689)" d="M 787 526 C 668.33333333333 385.33333333333 526.33333333333 259.33333333333 361 148 C 195 36 76.66666666667 -20 6 -20 C -36 -20 -67.33333333333 -10.66666666667 -88 8 C -109.33333333333 26 -120 52 -120 86 C -120 144 -88.66666666667 182 -26 200 C 36.66666666667 217.33333333333 105 243 179 277 C 253 310.33333333333 324.66666666667 351 394 399 C 462.66666666667 446.33333333333 538.66666666667 515 622 605 C 704.66666666667 695 776.33333333333 740 837 740 C 881.66666666667 740 915.33333333333 724.33333333333 938 693 C 960 661.66666666667 971 612 971 544 C 971 468.66666666667 958 395.33333333333 932 324 C 906 252 868.33333333333 179.66666666667 819 107 C 769 34.33333333333 720.66666666667 -2 674 -2 C 645.33333333333 -2 622.66666666667 5.33333333333 606 20 C 588.66666666667 34 580 53 580 77 C 580 102.33333333333 587.33333333333 125 602 145 C 616.66666666667 164.33333333333 643.66666666667 203.66666666667 683 263 C 722.33333333333 322.33333333333 748.66666666667 370.66666666667 762 408 C 775.33333333333 445.33333333333 783.66666666667 484.66666666667 787 526 Z M 321 -180 C 303 -162 294 -139.33333333333 294 -112 C 294 -80.66666666667 305 -54.33333333333 327 -33 C 349 -11.66666666667 374.33333333333 -1 403 -1 C 431 -1 454.33333333333 -10.66666666667 473 -30 C 491.66666666667 -49.33333333333 501 -72.66666666667 501 -100 C 501 -129.33333333333 490 -154.66666666667 468 -176 C 446 -197.33333333333 420 -208 390 -208 C 362 -208 339 -198.66666666667 321 -180 Z"/>
    <path fill="#000000" stroke="none" transform="matrix(1 0 0 -1 40453 2689)" d="M 505 427 C 483.66666666667 411 465.33333333333 397 450 385 C 434 372.33333333333 426 361 426 351 C 426 341.66666666667 445.33333333333 319 484 283 C 522.66666666667 246.33333333333 542 207 542 165 C 542 96.33333333333 496.66666666667 36.66666666667 406 -14 C 314.66666666667 -64.66666666667 220 -90 122 -90 C 46.66666666667 -90 -11.33333333333 -80.33333333333 -52 -61 C -93.33333333333 -41.66666666667 -114 -14.33333333333 -114 21 C -114 49.66666666667 -107.33333333333 73 -94 91 C -80.66666666667 108.33333333333 -59.33333333333 117 -30 117 C -8.66666666667 117 16.33333333333 112.33333333333 45 103 C 73.66666666667 93 101.33333333333 88 128 88 C 190.66666666667 88 241.33333333333 95.33333333333 280 110 C 318 124 337 145 337 173 C 337 193.66666666667 318 217 280 243 C 242 269 223 291.33333333333 223 310 C 223 364.66666666667 263 430.33333333333 343 507 C 423 583 524 651 646 711 C 768 770.33333333333 872 800 958 800 C 1020.66666666667 800 1066.33333333333 784 1095 752 C 1123.66666666667 719.33333333333 1138 673.66666666667 1138 615 C 1138 527.66666666667 1102.33333333333 455.66666666667 1031 399 C 959 342.33333333333 877.33333333333 314 786 314 C 740.66666666667 314 692.33333333333 324 641 344 C 589 364 543.66666666667 391.66666666667 505 427 Z M 939 630 C 933 633.33333333333 924.66666666667 635 914 635 C 898 635 865 624 815 602 C 765 580 716.33333333333 555.66666666667 669 529 C 686.33333333333 515.66666666667 705.66666666667 505 727 497 C 747.66666666667 488.33333333333 770.66666666667 484 796 484 C 844 484 881.33333333333 494.66666666667 908 516 C 934.66666666667 536.66666666667 948 567.33333333333 948 608 C 948 619.33333333333 945 626.66666666667 939 630 Z M 650 878 C 632 896 623 918.66666666667 623 946 C 623 977.33333333333 634 1003.66666666667 656 1025 C 678 1046.33333333333 703.33333333333 1057 732 1057 C 760 1057 783.33333333333 1047.33333333333 802 1028 C 820.66666666667 1008.66666666667 830 985.33333333333 830 958 C 830 928.66666666667 819 903.33333333333 797 882 C 775 860.66666666667 749 850 719 850 C 691 850 668 859.33333333333 650 878 Z M 1040 878 C 1022 896 1013 918.66666666667 1013 946 C 1013 977.33333333333 1024 1003.66666666667 1046 1025 C 1068 1046.33333333333 1093.33333333333 1057 1122 1057 C 1150 1057 1173.33333333333 1047.33333333333 1192 1028 C 1210.66666666667 1008.66666666667 1220 985.33333333333 1220 958 C 1220 928.66666666667 1209 903.33333333333 1187 882 C 1165 860.66666666667 1139 850 1109 850 C 1081 850 1058 859.33333333333 1040 878 Z M 867 1136 C 849 1154 840 1176.66666666667 840 1204 C 840 1235.33333333333 851 1261.66666666667 873 1283 C 895 1304.33333333333 920.33333333333 1315 949 1315 C 977 1315 1000.33333333333 1305.33333333333 1019 1286 C 1037.66666666667 1266.66666666667 1047 1243.33333333333 1047 1216 C 1047 1186.66666666667 1036 1161.33333333333 1014 1140 C 992 1118.66666666667 966 1108 936 1108 C 908 1108 885 1117.33333333333 867 1136 Z"/>
</svg>
