<svg width="40511" height="3789" viewBox="0 0 40511 3789" xmlns="http://www.w3.org/2000/svg">
    <defs/>
    <g transform="matrix(1 0 0 -1 0 3789)">
        <g transform="matrix(1 0 0 1 0 1100)">
            <path fill="#000000" stroke="none" d="M 1243 578 Q 1243 789 1123 902.5 Q 1003 1016 780 1016 Q 559 1016 439 904 Q 319 792 319 578 Q 319 365 438 253 Q 557 141 778 141 Q 1001 141 1122 252.50002 Q 1243 364 1243 578 Z M 874 1171 Q 1142 1149 1290 991.49994 Q 1438 834 1438 575 Q 1438 296 1265 138 Q 1092 -20 778 -20 Q 473 -20 299 140 Q 125 300 125 575 Q 125 831 276 989.49994 Q 427 1148 690 1171 L 690 1300 L 193 1300 L 193 1462 L 1370 1462 L 1370 1300 L 874 1300 L 874 1171 Z"/>
        </g>
        <g transform="matrix(1 0 0 1 1491 1100)">
            <path fill="#000000" stroke="none" d="M 424 1303 L 217 1303 L 217 1067 L 41 1067 L 41 1462 L 608 1462 L 608 516 Q 608 139 940 139 Q 1110 139 1195 237 Q 1280 335 1280 514 L 1280 541 L 1464 541 L 1464 520 Q 1464 267 1327 123.5 Q 1190 -20 938 -20 Q 689 -20 556.5 119 Q 424 258 424 516 L 424 1303 Z"/>
        </g>
        <g transform="matrix(1 0 0 1 3037 1100)">
            <path fill="#000000" stroke="none" d="M 618 1321 Q 488 1321 415 1264.5 Q 342 1208 342 1108 Q 342 1036 370.5 988.49994 Q 399 941 462.5 902 Q 526 863 662 813 Q 825 753 905 696.5 Q 985 640 1023 566.5 Q 1061 493 1061 391 Q 1061 199 923.5 89.49999 Q 786 -20 543 -20 Q 322 -20 198 82.5 Q 74 185 74 367 Q 74 428 94 479 L 283 479 Q 258 433 258 381 Q 258 265 330 202 Q 402 139 545 139 Q 709 139 793 202 Q 877 265 877 375 Q 877 448 847 494.5 Q 817 541 747.5 582 Q 678 623 532 676 Q 329 750 242.5 850.5 Q 156 951 156 1110 Q 156 1281 284.5 1382 Q 413 1483 623 1483 Q 813 1483 919.5 1388.4999 Q 1026 1294 1026 1130 L 1022 1081 L 838 1081 L 842 1128 Q 842 1218 781.5 1269.5 Q 721 1321 618 1321 Z"/>
        </g>
        <g transform="matrix(1 0 0 1 4217 1100)">
            <path fill="#000000" stroke="none" d="M 199 1462 L 375 1462 L 375 1300 L 498 1300 Q 822 1300 995.50006 1126.5 Q 1169 953 1169 639 Q 1169 442 1088.5 293 Q 1008 144 855 62 Q 702 -20 498 -20 Q 385 -20 296.5 -7 Q 208 6 121 39 L 121 199 Q 314 141 469 141 Q 704 141 839.5 275 Q 975 409 975 639 Q 975 877 843.5 1008 Q 712 1139 469 1139 L 199 1139 L 199 1462 Z"/>
        </g>
        <g transform="matrix(1 0 0 1 6043 1100)">
            <path fill="#000000" stroke="none" d="M 1475 733 Q 1475 334 1251 133 Q 1214 101 1197 65 Q 1180 29 1180 -35 Q 1180 -106 1220 -147 Q 1260 -188 1337 -188 Q 1395 -188 1423 -178 L 1423 -340 Q 1375 -348 1321 -348 Q 1176 -348 1087.5 -271.5 Q 999 -195 999 -70 Q 999 -41 1008 4 Q 903 -20 801 -20 Q 478 -20 301.5 177.5 Q 125 375 125 735 Q 125 1092 300.5 1288.5 Q 476 1485 803 1485 Q 1121 1485 1298 1285.5 Q 1475 1086 1475 733 Z M 319 733 Q 319 443 442 291 Q 565 139 801 139 Q 1036 139 1158 289 Q 1280 439 1280 733 Q 1280 1026 1159 1174.5 Q 1038 1323 803 1323 Q 565 1323 442 1172.5 Q 319 1022 319 733 Z"/>
        </g>
        <g transform="matrix(1 0 0 1 7642 1100)">
            <path fill="#000000" stroke="none" d="M 1268 516 Q 1268 263 1126 121.49999 Q 984 -20 733 -20 Q 471 -20 327.5 123.5 Q 184 267 184 520 L 184 541 L 369 541 L 369 514 Q 369 335 459 237 Q 549 139 731 139 Q 902 139 992.50006 236 Q 1083 333 1083 516 L 1083 639 Q 1083 684 1087 727 Q 1091 770 1094 815 L 1081 815 Q 1006 706 904 656 Q 802 606 668 606 Q 439 606 311.5 745.5 Q 184 885 184 1137 L 184 1462 L 369 1462 L 369 1135 Q 369 766 702 766 Q 881 766 982 870.5 Q 1083 975 1083 1155 L 1083 1462 L 1268 1462 L 1268 516 Z"/>
        </g>
        <g transform="matrix(1 0 0 1 9096 1100)">
            <path fill="#000000" stroke="none" d="M 825 1321 Q 589 1321 454 1163 Q 319 1005 319 731 Q 319 456 439.49997 298.5 Q 560 141 768 141 Q 950 141 1124 233 L 1124 608 L 1309 608 L 1309 0 L 1124 0 L 1124 72 Q 951 -20 739 -20 Q 451 -20 288 181 Q 125 382 125 733 Q 125 959 208.5 1129 Q 292 1299 451.5 1391 Q 611 1483 827 1483 Q 1059 1483 1231 1397 L 1157 1241 Q 982 1321 825 1321 Z"/>
        </g>
        <g transform="matrix(1 0 0 1 10538 1100)">
            <path fill="#000000" stroke="none" d="M 369 516 Q 369 139 700 139 Q 871 139 955.5 237 Q 1040 335 1040 514 L 1040 541 L 1225 541 L 1225 520 Q 1225 267 1088 123.5 Q 951 -20 698 -20 Q 448 -20 316 117 Q 184 254 184 516 L 184 1462 L 369 1462 L 369 516 Z"/>
        </g>
        <g transform="matrix(1 0 0 1 12377 1100)">
            <path fill="#000000" stroke="none" d="M 174 1098 L 319 1098 L 346 948 L 356 948 Q 403 1028 488.50003 1073 Q 574 1118 680 1118 Q 938 1118 1016 934 L 1026 934 Q 1079 1022 1170.5 1070 Q 1262 1118 1378 1118 Q 1564 1118 1656.5 1022 Q 1749 926 1749 715 L 1749 0 L 1571 0 L 1571 707 Q 1571 967 1348 967 Q 1195 967 1123 878 Q 1051 789 1051 606 L 1051 0 L 907 0 L 879 145 L 870 145 Q 825 68 741 24 Q 657 -20 545 -20 Q 360 -20 267 75 Q 174 170 174 379 L 174 1098 Z M 354 391 Q 354 258 408.50003 193.5 Q 463 129 578 129 Q 731 129 801.50006 223 Q 872 317 872 526 L 872 707 Q 872 837 817.5 902 Q 763 967 647 967 Q 495 967 424.50003 874 Q 354 781 354 569 L 354 391 Z"/>
        </g>
        <g transform="matrix(1 0 0 1 14292 1100)">
            <path fill="#000000" stroke="none" d="M 1176 551 Q 1176 282 1040 131 Q 904 -20 664 -20 Q 515 -20 400 49 Q 285 118 222.5 247.5 Q 160 377 160 551 Q 160 735 246 874 Q 109 889 34 981 Q -41 1073 -41 1225 Q -41 1381 49.5 1474 Q 140 1567 297 1567 Q 450 1567 542.5 1477.5 Q 635 1388 635 1239 Q 635 1175 614 1114 Q 648 1118 686 1118 Q 831 1118 942.5 1049 Q 1054 980 1115 851 Q 1176 722 1176 551 Z M 346 551 Q 346 344 427.5 236.50002 Q 509 129 668 129 Q 825 129 907 236.50002 Q 989 344 989 551 Q 989 758 906 862.49994 Q 823 967 666 967 Q 504 967 425 864.50006 Q 346 762 346 551 Z M 297 1010 Q 376 1010 419.5 1064 Q 463 1118 463 1223 Q 463 1423 297 1423 Q 131 1423 131 1223 Q 131 1119 174 1064.5 Q 217 1010 297 1010 Z"/>
        </g>
        <g transform="matrix(1 0 0 1 15578 1100)">
            <path fill="#000000" stroke="none" d="M 1192 307 Q 1192 248 1209.5 203.49998 Q 1227 159 1248.5 116.5 Q 1270 74 1287.5 27.500002 Q 1305 -19 1305 -82 Q 1305 -279 1165 -385.5 Q 1025 -492 770 -492 Q 519 -492 354 -422 L 354 -254 Q 535 -340 791 -340 Q 939 -340 1031.5 -268 Q 1124 -196 1124 -82 Q 1124 -31 1106.5 12.5 Q 1089 56 1068 100 Q 1047 144 1029.5 192.5 Q 1012 241 1012 301 L 1012 702 Q 1012 836 953.5 901.5 Q 895 967 768 967 Q 599 967 522.5 873.5 Q 446 780 446 569 L 446 0 L 266 0 L 266 842 Q 266 901 243 923.5 Q 220 946 166 946 L 20 946 L 20 1098 L 205 1098 Q 319 1098 373 1064 Q 427 1030 438 948 L 449 948 Q 501 1030 592.5 1074 Q 684 1118 795 1118 Q 997 1118 1094.5 1019.5 Q 1192 921 1192 715 L 1192 307 Z"/>
        </g>
        <g transform="matrix(1 0 0 1 16956 1100)">
            <path fill="#000000" stroke="none" d="M 1192 -53 Q 1192 -181 1215 -298 Q 1238 -415 1276 -492 L 1092 -492 Q 1012 -324 1012 -59 L 1012 702 Q 1012 836 953.5 901.5 Q 895 967 768 967 Q 599 967 522.5 873.5 Q 446 780 446 569 L 446 0 L 266 0 L 266 842 Q 266 901 243 923.5 Q 220 946 166 946 L 20 946 L 20 1098 L 205 1098 Q 319 1098 373 1064 Q 427 1030 438 948 L 449 948 Q 501 1030 592.5 1074 Q 684 1118 795 1118 Q 997 1118 1094.5 1019.5 Q 1192 921 1192 715 L 1192 -53 Z"/>
        </g>
        <g transform="matrix(1 0 0 1 18314 1100)">
            <path fill="#000000" stroke="none" d="M 143 27 Q 239 81 362 117 Q 243 185 178 307 Q 113 429 113 588 Q 113 741 176 862.49994 Q 239 984 355 1051 Q 471 1118 625 1118 Q 869 1118 998.5 995.50006 Q 1128 873 1128 641 Q 1128 554 1108 492 L 924 492 Q 934 516 941 561 Q 948 606 948 645 Q 948 800 862.49994 883.5 Q 777 967 623 967 Q 474 967 386.5 865 Q 299 763 299 586 Q 299 393 394 279.5 Q 489 166 672 152 Q 824 139 937.5 55 Q 1051 -29 1120 -172 L 973 -244 Q 856 0 602 0 Q 403 0 207 -115 L 143 27 Z"/>
        </g>
        <g transform="matrix(1 0 0 1 19541 1100)">
            <path fill="#000000" stroke="none" d="M 1569 707 Q 1569 837 1515.5 902 Q 1462 967 1348 967 Q 1195 967 1123 878 Q 1051 789 1051 606 L 1051 391 Q 1051 258 1105 193.5 Q 1159 129 1274 129 Q 1427 129 1498 222.5 Q 1569 316 1569 526 L 1569 707 Z M 1606 0 L 1577 145 L 1569 145 Q 1521 65 1436.5 22.499998 Q 1352 -20 1243 -20 Q 1058 -20 965 75 Q 872 170 872 379 L 872 707 Q 872 837 817.5 902 Q 763 967 647 967 Q 495 967 424.50003 874 Q 354 781 354 569 L 354 0 L 174 0 L 174 1098 L 319 1098 L 346 948 L 356 948 Q 403 1028 488.50003 1073 Q 574 1118 680 1118 Q 938 1118 1016 934 L 1026 934 Q 1079 1022 1170.5 1070 Q 1262 1118 1378 1118 Q 1564 1118 1656.5 1022 Q 1749 926 1749 715 L 1749 0 L 1606 0 Z"/>
        </g>
        <g transform="matrix(1 0 0 1 21988 1100)">
            <path fill="#000000" stroke="none" d="M 1569 707 Q 1569 837 1515.5 902 Q 1462 967 1348 967 Q 1195 967 1123 878 Q 1051 789 1051 606 L 1051 391 Q 1051 258 1105 193.5 Q 1159 129 1274 129 Q 1427 129 1498 222.5 Q 1569 316 1569 526 L 1569 707 Z M 1606 0 L 1577 145 L 1569 145 Q 1521 65 1436.5 22.499998 Q 1352 -20 1243 -20 Q 1058 -20 965 75 Q 872 170 872 379 L 872 707 Q 872 837 817.5 902 Q 763 967 647 967 Q 495 967 424.50003 874 Q 354 781 354 569 L 354 0 L 174 0 L 174 1098 L 319 1098 L 346 948 L 356 948 Q 403 1028 488.50003 1073 Q 574 1118 680 1118 Q 938 1118 1016 934 L 1026 934 Q 1079 1022 1170.5 1070 Q 1262 1118 1378 1118 Q 1564 1118 1656.5 1022 Q 1749 926 1749 715 L 1749 0 L 1606 0 Z"/>
        </g>
        <g transform="matrix(1 0 0 1 23903 1100)">
            <path fill="#000000" stroke="none" d="M 1016 649 Q 1016 427 896.50006 301.5 Q 777 176 563 176 Q 358 176 235.49998 304 Q 113 432 113 649 Q 113 870 233 994 Q 353 1118 569 1118 Q 763 1118 883 1006 Q 1009 1118 1210 1118 Q 1417 1118 1532 1020 Q 1647 922 1647 748 Q 1647 487 1386 399 Q 1541 359 1623.5001 256.5 Q 1706 154 1706 2 Q 1706 -234 1551.4999 -363 Q 1397 -492 1106 -492 Q 834 -492 692.5 -388.5 Q 551 -285 551 -88 Q 551 -22 571 31 L 756 31 Q 731 -19 731 -84 Q 731 -211 830 -275.5 Q 929 -340 1116 -340 Q 1520 -340 1520 -2 Q 1520 152 1424.5 235.49998 Q 1329 319 1151 319 L 1122 319 L 1122 471 L 1151 471 Q 1302 471 1384 537.5 Q 1466 604 1466 723 Q 1466 841 1400 905 Q 1334 969 1208 969 Q 1054 969 967 889 Q 1016 780 1016 649 Z M 299 649 Q 299 488 367.5 407 Q 436 326 567 326 Q 698 326 767 406.49997 Q 836 487 836 649 Q 836 967 565 967 Q 299 967 299 649 Z"/>
        </g>
        <g transform="matrix(1 0 0 1 25695 1100)">
            <path fill="#000000" stroke="none" d="M 672 1098 L 672 1047 Q 672 983 711 933 Q 750 883 846 815 Q 947 744 992 691.5 Q 1037 639 1061 576 Q 1085 513 1085 434 Q 1085 226 948.5 103 Q 812 -20 582 -20 Q 350 -20 218 94.50001 Q 86 209 86 412 Q 86 490 104 573 L 295 573 Q 272 500 272 410 Q 272 275 350 203 Q 428 131 586 131 Q 731 131 815 207.5 Q 899 284 899 424 Q 899 495 855.5 561.5 Q 812 628 709 705 Q 584 797 538 872.5 Q 492 948 492 1055 L 492 1098 L 672 1098 Z"/>
        </g>
        <g transform="matrix(1 0 0 1 26879 1100)">
            <path fill="#000000" stroke="none" d="M 858 547 Q 858 776 789 872.5 Q 720 969 567 969 Q 438 969 368.5 858.5 Q 299 748 299 543 Q 299 334 367.5 231.5 Q 436 129 582 129 Q 858 129 858 547 Z M 1038 1100 Q 1038 1010 1028 946 L 1040 946 Q 1090 1031 1175.5 1073.5 Q 1261 1116 1360 1116 Q 1547 1116 1642 1020.49994 Q 1737 925 1737 715 L 1737 0 L 1559 0 L 1559 702 Q 1559 836 1504 901.5 Q 1449 967 1333 967 Q 1179 967 1108.5 873 Q 1038 779 1038 567 L 1038 549 Q 1038 281 915 130.5 Q 792 -20 573 -20 Q 346 -20 229.5 121.49999 Q 113 263 113 547 Q 113 817 225 967.5 Q 337 1118 539 1118 Q 742 1118 856 956 L 868 956 Q 866 972 862 1031.5 Q 858 1091 858 1118 Q 858 1344 962.50006 1450 Q 1067 1556 1290 1556 L 1683 1556 L 1683 1405 L 1305 1405 Q 1155 1405 1096.5 1344 Q 1038 1283 1038 1139 L 1038 1100 Z"/>
        </g>
        <g transform="matrix(1 0 0 1 28782 1100)">
            <path fill="#000000" stroke="none" d="M 354 -53 Q 354 -181 377 -298 Q 400 -415 438 -492 L 254 -492 Q 174 -320 174 -59 L 174 1556 L 354 1556 L 354 979 L 365 979 Q 396 1046 465.5 1082 Q 535 1118 629 1118 Q 755 1118 828 1051 Q 901 984 901 866 Q 901 768 931.50006 732 Q 962 696 1042 696 L 1145 696 L 1145 545 L 989 545 Q 865 545 792 609 Q 719 673 719 778 Q 719 874 681.5 920.5 Q 644 967 563 967 Q 463 967 408.50003 894 Q 354 821 354 684 L 354 -53 Z"/>
        </g>
        <g transform="matrix(1 0 0 1 29947 1100)">
            <path fill="#000000" stroke="none" d="M 354 1100 Q 354 1010 344 946 L 356 946 Q 405 1026 495 1071 Q 585 1116 698 1116 Q 898 1116 999 1020.49994 Q 1100 925 1100 715 L 1100 0 L 922 0 L 922 702 Q 922 836 862.49994 901.5 Q 803 967 676 967 Q 509 967 431.5 874 Q 354 781 354 567 L 354 0 L 174 0 L 174 1118 Q 174 1346 278.5 1451 Q 383 1556 606 1556 L 1061 1556 L 1061 1405 L 621 1405 Q 471 1405 412.5 1344 Q 354 1283 354 1139 L 354 1100 Z"/>
        </g>
        <g transform="matrix(1 0 0 1 31745 1100)">
            <path fill="#000000" stroke="none" d="M 162 395 L 162 1098 L 342 1098 L 342 391 Q 342 266 408 198.5 Q 474 131 608 131 Q 735 131 802.50006 198 Q 870 265 870 391 L 870 1098 L 1051 1098 L 1051 391 Q 1051 223 957 118.50001 Q 863 14 696 -8 Q 696 -320 780 -492 L 596 -492 Q 516 -324 516 -8 Q 347 11 254.5 116 Q 162 221 162 395 Z"/>
        </g>
        <g transform="matrix(1 0 0 1 32962 1100)">
            <path fill="#000000" stroke="none" d="M 926 950 L 612 868 Q 662 830 689.5 773 Q 717 716 717 647 Q 717 509 630.5 424.50003 Q 544 340 399 340 Q 86 340 86 655 L 90 713 L 258 713 Q 254 694 254 653 Q 254 571 292 525 Q 330 479 399 479 Q 469 479 509 525 Q 549 571 549 653 Q 549 806 403 827 L 403 956 L 940 1098 L 1106 1098 L 1106 27 Q 1106 -228 980 -360 Q 854 -492 608 -492 Q 383 -492 260 -386 Q 137 -280 137 -80 Q 137 -5 158 68 L 340 68 Q 317 -7 317 -80 Q 317 -210 393 -275 Q 469 -340 612 -340 Q 782 -340 854 -251.49998 Q 926 -163 926 33 L 926 950 Z"/>
        </g>
        <g transform="matrix(1 0 0 1 34242 1100)">
            <path fill="#000000" stroke="none" d="M 115 557 Q 115 824 225 971 Q 335 1118 537 1118 Q 787 1118 866 907 L 877 907 Q 922 1017 1002.5 1067.5 Q 1083 1118 1206 1118 Q 1402 1118 1514 970.5 Q 1626 823 1626 565 Q 1626 410 1594.5 278 Q 1563 146 1495 0 L 1311 0 Q 1381 147 1413.5 279 Q 1446 411 1446 567 Q 1446 757 1381 863 Q 1316 969 1194 969 Q 1081 969 1018.5 893.49994 Q 956 818 956 680 L 956 545 L 784 545 L 784 680 Q 784 819 722.5 894 Q 661 969 543 969 Q 423 969 359 864 Q 295 759 295 557 Q 295 371 340 254 Q 385 137 480.5 54 Q 576 -29 733 -80 Q 863 -122 948 -166 Q 1033 -210 1089.5 -264.5 Q 1146 -319 1198 -412 L 1055 -492 Q 997 -376 876.5 -307 Q 756 -238 610 -238 Q 516 -238 440.50003 -258 Q 365 -278 262 -332 L 197 -186 Q 256 -157 307.5 -140 Q 359 -123 457 -102 Q 285 -2 200 160 Q 115 322 115 557 Z"/>
        </g>
        <g transform="matrix(1 0 0 1 35983 1100)">
            <path fill="#000000" stroke="none" d="M 1192 -53 Q 1192 -181 1215 -298 Q 1238 -415 1276 -492 L 1092 -492 Q 1012 -324 1012 -59 L 1012 702 Q 1012 836 953.5 901.5 Q 895 967 768 967 Q 599 967 522.5 873.5 Q 446 780 446 569 L 446 0 L 266 0 L 266 842 Q 266 901 243 923.5 Q 220 946 166 946 L 20 946 L 20 1098 L 205 1098 Q 319 1098 373 1064 Q 427 1030 438 948 L 449 948 Q 501 1030 592.5 1074 Q 684 1118 795 1118 Q 997 1118 1094.5 1019.5 Q 1192 921 1192 715 L 1192 -53 Z"/>
        </g>
        <g transform="matrix(1 0 0 1 37341 1100)">
            <path fill="#000000" stroke="none" d="M 1145 573 Q 1145 280 1014.5 130 Q 884 -20 629 -20 Q 162 -20 162 498 L 162 1556 L 342 1556 L 342 504 Q 342 127 643 127 Q 963 127 963 578 Q 963 843 737 1098 L 942 1098 Q 1032 1000 1088.5 860 Q 1145 720 1145 573 Z"/>
        </g>
        <g transform="matrix(1 0 0 1 38596 1100)">
            <path fill="#000000" stroke="none" d="M 174 1098 L 319 1098 L 346 948 L 356 948 Q 403 1028 488.50003 1073 Q 574 1118 680 1118 Q 938 1118 1016 934 L 1026 934 Q 1079 1022 1170.5 1070 Q 1262 1118 1378 1118 Q 1564 1118 1656.5 1022 Q 1749 926 1749 715 L 1749 0 L 1571 0 L 1571 707 Q 1571 967 1348 967 Q 1195 967 1123 878 Q 1051 789 1051 606 L 1051 0 L 907 0 L 879 145 L 870 145 Q 825 68 741 24 Q 657 -20 545 -20 Q 360 -20 267 75 Q 174 170 174 379 L 174 1098 Z M 354 391 Q 354 258 408.50003 193.5 Q 463 129 578 129 Q 731 129 801.50006 223 Q 872 317 872 526 L 872 707 Q 872 837 817.5 902 Q 763 967 647 967 Q 495 967 424.50003 874 Q 354 781 354 569 L 354 391 Z"/>
        </g>
    </g>
</svg>
