<svg width="68317" height="3540" viewBox="0 0 68317 3540" xmlns="http://www.w3.org/2000/svg">
    <defs/>
    <g transform="matrix(1 0 0 -1 0 3540)">
        <g transform="matrix(1 0 0 1 0 1258)">
            <path fill="#000000" stroke="none" d="M 357 1134 L 357 501 Q 357 358 379.5 282 Q 402 206 459 165.5 Q 516 125 621 125 Q 729 125 786 169 Q 843 213 863.49994 289 Q 884 365 884 501 L 884 1134 L 2228 1134 L 2228 478 Q 2228 209 2112.5 92.5 Q 1997 -24 1787 -24 Q 1650 -24 1550 27.500002 Q 1450 79 1398.5001 183 Q 1347 287 1347 476 L 1347 986 L 1061 986 L 1061 473 Q 1061 290 1011.5 187 Q 962 84 862 30 Q 762 -24 620 -24 Q 483 -24 383 28 Q 283 80 231.5 183.5 Q 180 287 180 469 L 180 1134 L 357 1134 Z M 2051 986 L 1524 986 L 1524 501 Q 1524 358 1546.5 282 Q 1569 206 1626 165.5 Q 1683 125 1788 125 Q 1896 125 1953 169 Q 2010 213 2030.4999 289 Q 2051 365 2051 501 L 2051 986 Z"/>
        </g>
        <g transform="matrix(1 0 0 1 2408 1258)">
            <path fill="#000000" stroke="none" d="M 556 -320 Q 439 -320 383.5 -343.5 Q 328 -367 301 -412 Q 274 -457 274 -538 Q 274 -608 281 -650 L 110 -658 Q 97 -578 97 -498 Q 97 -394 141 -322 Q 185 -250 269 -211 Q 353 -172 501 -172 L 2284 -172 Q 2602 -172 2744 -103 Q 2886 -34 2944.5 110 Q 3003 254 3003 505 Q 3003 757 2924.5 885 Q 2846 1013 2692 1013 Q 2603 1013 2545 974 Q 2487 935 2460.5 863 Q 2434 791 2434 654 L 2434 0 L 2256 0 L 2256 688 Q 2256 861 2214.5 937 Q 2173 1013 2087 1013 Q 2002 1013 1960 970 Q 1918 927 1903.5 841.5 Q 1889 756 1889 626 L 1889 0 L 1054 0 L 1047 130 Q 1154 291 1154 550 Q 1154 764 1042.5 887 Q 931 1010 738 1010 Q 557 1010 437 900 Q 317 790 287 595 Q 405 672 534 672 Q 686 672 775.5 582 Q 865 492 865 337 Q 865 170 772 73 Q 679 -24 518 -24 Q 337 -24 227 112.5 Q 117 249 117 502 Q 117 702 194 850.5 Q 271 999 416 1080.5 Q 561 1162 746 1162 Q 1029 1162 1182.5 1003.5 Q 1336 845 1336 573 Q 1336 461 1312.5 360 Q 1289 259 1236 148 L 1712 148 L 1712 703 Q 1712 872 1751.5001 967 Q 1791 1062 1869 1112 Q 1947 1162 2058 1162 Q 2269 1162 2353 966 Q 2399 1059 2489.5 1110.5 Q 2580 1162 2703 1162 Q 2933 1162 3059 990 Q 3185 818 3185 500 Q 3185 223 3101.5 43 Q 3018 -137 2837.5 -228.50002 Q 2657 -320 2330 -320 L 556 -320 Z M 280 434 Q 289 277 352 196 Q 415 115 522 115 Q 601 115 649 168 Q 697 221 697 318 Q 697 416 644.5 472 Q 592 528 505 528 Q 392 528 280 434 Z M 1380 1134 L 1380 1134 Z"/>
        </g>
        <g transform="matrix(1 0 0 1 5732 1258)">
            <path fill="#000000" stroke="none" d="M 1641 572 Q 1565 529 1523 453 Q 1481 377 1481 285 Q 1481 166 1534.5 84 Q 1588 2 1689.5 -36.5 Q 1791 -75 1966 -75 L 2155 -75 L 2155 -222 L 1760 -222 L 1733 -272 Q 1656 -414 1564 -496.5 Q 1472 -579 1326 -618.5 Q 1180 -658 884 -658 Q 544 -658 383.5 -563 Q 223 -468 223 -269 Q 223 -201 251 -114 Q 279 -27 329 43 L 472 -29 Q 391 -145 391 -271 Q 391 -395 505 -452 Q 619 -509 886 -509 Q 1111 -509 1233 -480.5 Q 1355 -452 1436 -382 Q 1517 -312 1594 -159 Q 1456 -92 1385.5 19.5 Q 1315 131 1315 281 Q 1315 392 1368 495.5 Q 1421 599 1515.5 659.5 Q 1610 720 1726 720 Q 1773 720 1824 708 Q 1758 566 1758 453 Q 1758 277 1927 277 Q 2007 277 2051.5 337.5 Q 2096 398 2096 502 Q 2096 743 1872 876.5 Q 1648 1010 1237 1010 Q 903 1010 682.5 950.5 Q 462 891 372 774 Q 407 797 456.50003 811 Q 506 825 546 825 Q 690 825 773 740 Q 856 655 856 510 Q 856 351 766 261.5 Q 676 172 519 172 Q 422 172 336.5 217.5 Q 251 263 199 351.5 Q 147 440 147 559 Q 147 691 202.5 791.5 Q 258 892 390 982.5 Q 522 1073 720.5 1117.5 Q 919 1162 1232 1162 Q 1736 1162 2003.5001 981 Q 2271 800 2271 525 Q 2271 341 2183.5 236.50002 Q 2096 132 1928 132 Q 1779 132 1694.5 205.5 Q 1610 279 1610 415 Q 1610 507 1641 572 Z M 309 588 L 309 573 Q 309 448 369 379.5 Q 429 311 530 311 Q 602 311 645 359 Q 688 407 688 492 Q 688 579 640.5 629.5 Q 593 680 512 680 Q 407 680 309 588 Z M 1137 283 Q 1137 243 1110 217.5 Q 1083 192 1045 192 Q 1007 192 981 218 Q 955 244 955 283 Q 955 322 981 348 Q 1007 374 1045 374 Q 1085 374 1111 348 Q 1137 322 1137 283 Z M 613 -380 L 613 87 L 738 87 L 738 -285 L 907 -285 L 907 -100 Q 907 -18 924 18.5 Q 941 55 981 78 Q 1021 101 1081 101 Q 1189 101 1251.5 24 Q 1314 -53 1314 -165 Q 1314 -229 1291.5 -277 Q 1269 -325 1216 -352.5 Q 1163 -380 1054 -380 L 613 -380 Z M 1031 -285 L 1088 -285 Q 1141 -285 1165.5 -258.5 Q 1190 -232 1190 -164 Q 1190 -90 1159.5 -44.5 Q 1129 1 1082 1 Q 1031 1 1031 -62 L 1031 -285 Z"/>
        </g>
        <g transform="matrix(1 0 0 1 8110 1258)">
            <path fill="#000000" stroke="none" d="M 180 1134 L 1395 1134 L 1395 986 L 989 986 L 989 0 L 811 0 L 811 986 L 357 986 L 357 0 L 180 0 L 180 1134 Z M 713 569 Q 713 512 676 475 Q 639 438 584 438 Q 528 438 491 475 Q 454 512 454 569 Q 454 624 491 661 Q 528 698 584 698 Q 640 698 676.5 661.5 Q 713 625 713 569 Z M 1346 569 Q 1346 513 1309 475.5 Q 1272 438 1216 438 Q 1159 438 1122.5 475.5 Q 1086 513 1086 569 Q 1086 624 1123 661 Q 1160 698 1216 698 Q 1272 698 1309 661 Q 1346 624 1346 569 Z"/>
        </g>
        <g transform="matrix(1 0 0 1 9557 1258)">
            <path fill="#000000" stroke="none" d="M 407 1134 L 559 1045 Q 316 679 316 333 L 316 307 Q 316 -72 562.5 -286 Q 809 -500 1273 -500 L 1301 -500 Q 1726 -500 1962.4999 -326 Q 2199 -152 2199 173 Q 2199 334 2141.5 419.5 Q 2084 505 1975 505 Q 1882 505 1778 432 L 1778 0 L 1601 0 L 1601 986 L 1419 986 Q 1225 986 1109.5 950.5 Q 994 915 913.5 821.5 Q 833 728 810 597 Q 924 672 1053 672 Q 1205 672 1294.5 582 Q 1384 492 1384 337 Q 1384 170 1291 73 Q 1198 -24 1038 -24 Q 857 -24 746.5 109.49999 Q 636 243 636 489 Q 636 682 718 825 Q 800 968 961 1051 Q 1122 1134 1430 1134 L 2126 1134 L 2126 986 L 1778 986 L 1778 582 Q 1880 653 2007 653 Q 2177 653 2278.5 524 Q 2380 395 2380 169 Q 2380 -93 2252 -278.5 Q 2124 -464 1878.5 -561 Q 1633 -658 1311 -658 L 1244 -658 Q 886 -658 639 -541 Q 392 -424 265.5 -203.49998 Q 139 17 139 306 L 139 349 Q 139 531 210 737.50006 Q 281 944 407 1134 Z M 799 434 Q 805 281 867.50006 198 Q 930 115 1041 115 Q 1120 115 1168 168 Q 1216 221 1216 318 Q 1216 416 1163.5 472 Q 1111 528 1024 528 Q 909 528 799 434 Z"/>
        </g>
        <g transform="matrix(1 0 0 1 12037 1258)">
            <path fill="#000000" stroke="none" d="M 1385 0 L 180 0 L 180 1134 L 357 1134 L 357 148 L 1385 148 L 1385 0 Z"/>
        </g>
        <g transform="matrix(1 0 0 1 13988 1258)">
            <path fill="#000000" stroke="none" d="M 1281 572 Q 1205 529 1163 453 Q 1121 377 1121 285 Q 1121 166 1174.5 84 Q 1228 2 1329.5 -36.5 Q 1431 -75 1606 -75 L 1795 -75 L 1795 -222 L 1436 -222 Q 1409 -256 1380 -313 Q 1285 -499 1156 -578.5 Q 1027 -658 837 -658 L 795 -658 Q 577 -658 449.5 -566.5 Q 322 -475 322 -312 Q 322 -180 413.5 -97.49999 Q 505 -15 649 -15 Q 804 -15 892.49994 -98 Q 981 -181 981 -303 Q 981 -416 909 -506 Q 1013 -488 1083 -427.5 Q 1153 -367 1214 -262 Q 1246 -204 1272 -173 Q 1122 -110 1038.5 6.5 Q 955 123 955 281 Q 955 392 1008 495.5 Q 1061 599 1155.5 659.5 Q 1250 720 1366 720 Q 1413 720 1464 708 Q 1398 566 1398 453 Q 1398 277 1567 277 Q 1647 277 1691.5 337.5 Q 1736 398 1736 502 Q 1736 657 1649.5 772.5 Q 1563 888 1402.5 949 Q 1242 1010 1031 1010 Q 756 1010 568.5 935.5 Q 381 861 306 722 Q 407 785 506 785 Q 650 785 733 700 Q 816 615 816 470 Q 816 311 726 221.5 Q 636 132 479 132 Q 321 132 214 245.5 Q 107 359 107 550 Q 107 725 207 860.49994 Q 307 996 507.5 1079 Q 708 1162 1028 1162 Q 1439 1162 1675 979 Q 1911 796 1911 525 Q 1911 341 1823.5 236.50002 Q 1736 132 1568 132 Q 1419 132 1334.5 205.5 Q 1250 279 1250 415 Q 1250 507 1281 572 Z M 269 548 Q 269 416 329 343.5 Q 389 271 490 271 Q 562 271 605 319 Q 648 367 648 452 Q 648 539 600.5 589.5 Q 553 640 472 640 Q 367 640 269 548 Z M 732 -514 Q 812 -433 812 -329 Q 812 -247 768.50006 -201.5 Q 725 -156 644 -156 Q 575 -156 531.5 -198 Q 488 -240 488 -318 Q 488 -408 549.5 -458 Q 611 -508 732 -514 Z"/>
        </g>
        <g transform="matrix(1 0 0 1 16006 1258)">
            <path fill="#000000" stroke="none" d="M 1451 929 Q 1569 820 1629 683 Q 1689 546 1689 388 Q 1689 190 1602.5 83 Q 1516 -24 1357 -24 Q 1194 -24 1106 82.5 Q 1018 189 1018 381 Q 1018 541 1066.5 674 Q 1115 807 1213 914 Q 1128 962 1024.5 986 Q 921 1010 815 1010 Q 604 1010 464 900 Q 324 790 288 595 Q 406 672 534 672 Q 686 672 775.5 582 Q 865 492 865 337 Q 865 170 772 73 Q 679 -24 518 -24 Q 337 -24 227 112.5 Q 117 249 117 502 Q 117 699 206 849.5 Q 295 1000 458 1081 Q 621 1162 835 1162 Q 1110 1162 1331 1022 Q 1525 1162 1773 1162 Q 2017 1162 2207 1027 Q 2308 1086 2428.5 1110 Q 2549 1134 2721 1134 L 3343 1134 L 3343 986 L 2995 986 L 2995 0 L 2817 0 L 2817 986 L 2674 986 Q 2541 986 2464 971 Q 2387 956 2327 925 Q 2432 818 2485 680 Q 2538 542 2538 388 Q 2538 190 2451.5 83 Q 2365 -24 2206 -24 Q 2043 -24 1955 82.5 Q 1867 189 1867 381 Q 1867 543 1922.5 684.5 Q 1978 826 2082 928 Q 1944 1010 1777 1010 Q 1588 1010 1451 929 Z M 2199 837 Q 2123 758 2081.5 639 Q 2040 520 2040 388 Q 2040 252 2081.5 183.5 Q 2123 115 2200 115 Q 2280 115 2322 183.5 Q 2364 252 2364 372 Q 2364 508 2321.5 629 Q 2279 750 2199 837 Z M 1332 830 Q 1265 752 1228 636.5 Q 1191 521 1191 388 Q 1191 252 1232.5 183.5 Q 1274 115 1351 115 Q 1431 115 1473 183.5 Q 1515 252 1515 372 Q 1515 508 1467.5 627.5 Q 1420 747 1332 830 Z M 280 434 Q 289 277 352 196 Q 415 115 522 115 Q 601 115 649 168 Q 697 221 697 318 Q 697 416 644.5 472 Q 592 528 505 528 Q 392 528 280 434 Z"/>
        </g>
        <g transform="matrix(1 0 0 1 19383 1258)">
            <path fill="#000000" stroke="none" d="M 1606 1134 L 1606 986 L 1259 986 L 1259 0 L 1081 0 L 1081 986 L 900 986 Q 703 986 587.5 949.5 Q 472 913 392.50003 819.5 Q 313 726 289 596 Q 405 672 534 672 Q 686 672 775.5 582 Q 865 492 865 337 Q 865 170 772 73 Q 679 -24 518 -24 Q 337 -24 227 109 Q 117 242 117 489 Q 117 687 201 830 Q 285 973 446 1053.5 Q 607 1134 910 1134 L 1606 1134 Z M 280 433 Q 286 279 349 197 Q 412 115 522 115 Q 601 115 649 168 Q 697 221 697 318 Q 697 416 644.5 472 Q 592 528 505 528 Q 390 528 280 433 Z"/>
        </g>
        <g transform="matrix(1 0 0 1 21023 1258)">
            <path fill="#000000" stroke="none" d="M 180 1134 L 1238 1134 L 1238 986 L 881 986 L 881 656 Q 1002 742 1142 742 Q 1295 742 1387 657 Q 1479 572 1479 433 Q 1479 264 1383 148 L 1781 148 L 1781 1134 L 1959 1134 L 1959 0 L 704 0 L 704 148 L 1187 148 Q 1247 208 1274.5 269.5 Q 1302 331 1302 403 Q 1302 495 1251.5 544 Q 1201 593 1112 593 Q 997 593 881 504 L 881 294 L 704 294 L 704 986 L 357 986 L 357 0 L 180 0 L 180 1134 Z"/>
        </g>
        <g transform="matrix(1 0 0 1 23162 1258)">
            <path fill="#000000" stroke="none" d="M 1124 1030 L 1124 1134 L 2158 1134 L 2158 986 L 1810 986 L 1810 0 L 1633 0 L 1633 986 L 1276 986 L 1276 0 L 1099 0 L 1099 837 Q 1024 927 934.5 968.5 Q 845 1010 728 1010 Q 556 1010 437 898 Q 318 786 287 595 Q 405 672 534 672 Q 686 672 775.5 582 Q 865 492 865 337 Q 865 170 772 73 Q 679 -24 518 -24 Q 337 -24 227 112.5 Q 117 249 117 502 Q 117 703 196 852.5 Q 275 1002 420 1082 Q 565 1162 746 1162 Q 858 1162 948 1131.5 Q 1038 1101 1124 1030 Z M 280 434 Q 289 277 351 196 Q 413 115 522 115 Q 601 115 649 168 Q 697 221 697 318 Q 697 416 644.5 472 Q 592 528 505 528 Q 390 528 280 434 Z"/>
        </g>
        <g transform="matrix(1 0 0 1 25354 1258)">
            <path fill="#000000" stroke="none" d="M 357 1134 L 357 461 Q 357 314 369 256.5 Q 381 199 420 162 Q 459 125 529 125 Q 643 125 724 238 L 724 1134 L 902 1134 L 902 148 L 1614 148 L 1614 1134 L 1792 1134 L 1792 0 L 724 0 L 724 71 Q 625 -23 491 -23 Q 390 -23 323 23.500002 Q 256 70 218 155.5 Q 180 241 180 395 L 180 1134 L 357 1134 Z"/>
        </g>
        <g transform="matrix(1 0 0 1 27858 1258)">
            <path fill="#000000" stroke="none" d="M 327 1134 L 1398 1134 L 1398 986 L 1015 986 L 1015 671 Q 1306 663 1448 544.5 Q 1590 426 1590 197 Q 1590 78 1546 -15 Q 1502 -108 1405 -182.5 Q 1308 -257 1170.5 -288.5 Q 1033 -320 786 -320 L 557 -320 Q 477 -320 430 -330 Q 383 -340 346.5 -364.5 Q 310 -389 292 -430.5 Q 274 -472 274 -538 Q 274 -608 281 -650 L 110 -658 Q 97 -564 97 -498 Q 97 -395 141.5 -322.5 Q 186 -250 270 -211 Q 354 -172 501 -172 L 723 -172 Q 1000 -172 1136 -136 Q 1272 -100 1342.5 -13 Q 1413 74 1413 215 Q 1413 361 1316.5 439.49997 Q 1220 518 1015 527 L 1015 462 Q 1015 255 954.5 157.5 Q 894 60 791.5 18.5 Q 689 -23 535 -23 Q 344 -23 222 69.5 Q 100 162 100 318 Q 100 427 156.5 502.49997 Q 213 578 327 621 L 327 1134 Z M 679 672 L 841 672 L 841 986 L 488 986 L 488 660 Q 572 672 679 672 Z M 841 529 L 665 529 Q 460 529 368.5 479.5 Q 277 430 277 314 Q 277 225 350 175 Q 423 125 550 125 Q 708 125 774.5 201 Q 841 277 841 436 L 841 529 Z"/>
        </g>
        <g transform="matrix(1 0 0 1 29547 1258)">
            <path fill="#000000" stroke="none" d="M 3060 148 L 3060 0 L 392 0 Q 263 0 195.49998 49 Q 128 98 128 193 Q 128 291 207.5 339.5 Q 287 388 462 405 L 610 420 Q 760 435 857 468 Q 954 501 1005.5 558.5 Q 1057 616 1057 715 Q 1057 836 967.5 916.5 Q 878 997 714 1012 Q 785 913 785 802 Q 785 664 695.5 582 Q 606 500 451 500 Q 307 500 212 589 Q 117 678 117 816 Q 117 980 248.5 1070 Q 380 1160 610 1160 Q 908 1160 1070 1040 Q 1232 920 1232 715 Q 1232 582 1175.5 494 Q 1119 406 996 353.5 Q 873 301 632 277 L 468 261 Q 393 254 358 245 Q 323 236 312 225 Q 301 214 301 195 Q 301 170 317 159 Q 333 148 372 148 L 3060 148 Z M 554 1018 L 539 1018 Q 419 1018 349 964.5 Q 279 911 279 817 Q 279 737 327 688 Q 375 639 455 639 Q 533 639 579 688 Q 625 737 625 824 Q 625 934 554 1018 Z M 2232 1060 L 2232 1134 L 3060 1134 L 3060 994 L 2819 994 L 2819 295 L 2651 295 L 2651 994 L 2374 994 L 2374 295 L 2206 295 L 2206 881 Q 2138 959 2071 988.49994 Q 2004 1018 1920 1018 Q 1786 1018 1695 945 Q 1604 872 1580 741 Q 1673 815 1775 815 Q 1895 815 1969 742.5 Q 2043 670 2043 552 Q 2043 422 1965.5 346 Q 1888 270 1757 270 Q 1608 270 1516 373.5 Q 1424 477 1424 666 Q 1424 817 1485 929 Q 1546 1041 1662.5 1101.5 Q 1779 1162 1928 1162 Q 2018 1162 2089.5 1139 Q 2161 1116 2232 1060 Z M 1577 596 Q 1588 498 1633 449.5 Q 1678 401 1757 401 Q 1816 401 1852.5 438 Q 1889 475 1889 538 Q 1889 603 1848.5 642 Q 1808 681 1741 681 Q 1654 681 1577 596 Z"/>
        </g>
        <g transform="matrix(1 0 0 1 32701 1258)">
            <path fill="#000000" stroke="none" d="M 1281 572 Q 1205 529 1163 453 Q 1121 377 1121 285 Q 1121 166 1174.5 84 Q 1228 2 1329.5 -36.5 Q 1431 -75 1606 -75 L 1795 -75 L 1795 -222 L 1436 -222 Q 1409 -256 1380 -313 Q 1285 -499 1156 -578.5 Q 1027 -658 837 -658 Q 652 -658 539 -563 Q 426 -468 426 -297 Q 426 -212 457 -124.5 Q 488 -37 548 39 L 700 -34 Q 647 -112 625.5 -172 Q 604 -232 604 -294 Q 604 -509 852 -509 Q 931 -509 1000.5 -479 Q 1070 -449 1125.5 -385 Q 1181 -321 1214 -262 Q 1245 -205 1272 -172 Q 1120 -108 1037.5 8 Q 955 124 955 281 Q 955 392 1008 495.5 Q 1061 599 1155.5 659.5 Q 1250 720 1366 720 Q 1413 720 1464 708 Q 1398 566 1398 453 Q 1398 277 1567 277 Q 1647 277 1691.5 337.5 Q 1736 398 1736 502 Q 1736 657 1649.5 772.5 Q 1563 888 1402.5 949 Q 1242 1010 1031 1010 Q 756 1010 568.5 935.5 Q 381 861 306 722 Q 407 785 506 785 Q 650 785 733 700 Q 816 615 816 470 Q 816 311 726 221.5 Q 636 132 479 132 Q 321 132 214 245.5 Q 107 359 107 550 Q 107 725 207 860.49994 Q 307 996 507.5 1079 Q 708 1162 1028 1162 Q 1439 1162 1675 979 Q 1911 796 1911 525 Q 1911 341 1823.5 236.50002 Q 1736 132 1568 132 Q 1419 132 1334.5 205.5 Q 1250 279 1250 415 Q 1250 507 1281 572 Z M 269 548 Q 269 416 329 343.5 Q 389 271 490 271 Q 562 271 605 319 Q 648 367 648 452 Q 648 539 600.5 589.5 Q 553 640 472 640 Q 367 640 269 548 Z M 3132 1030 L 3132 1134 L 4166 1134 L 4166 986 L 3818 986 L 3818 0 L 3641 0 L 3641 986 L 3284 986 L 3284 0 L 3107 0 L 3107 837 Q 3032 927 2942.5 968.5 Q 2853 1010 2736 1010 Q 2564 1010 2445 898 Q 2326 786 2295 595 Q 2413 672 2542 672 Q 2694 672 2783.5 582 Q 2873 492 2873 337 Q 2873 170 2780 73 Q 2687 -24 2526 -24 Q 2345 -24 2235 112.5 Q 2125 249 2125 502 Q 2125 703 2204 852.5 Q 2283 1002 2428 1082 Q 2573 1162 2754 1162 Q 2866 1162 2956 1131.5 Q 3046 1101 3132 1030 Z M 2288 434 Q 2297 277 2359 196 Q 2421 115 2530 115 Q 2609 115 2657 168 Q 2705 221 2705 318 Q 2705 416 2652.5 472 Q 2600 528 2513 528 Q 2398 528 2288 434 Z"/>
        </g>
        <g transform="matrix(1 0 0 1 36901 1258)">
            <path fill="#000000" stroke="none" d="M 2151 148 L 2151 0 L 392 0 Q 263 0 195.49998 49 Q 128 98 128 193 Q 128 291 207.5 339.5 Q 287 388 462 405 L 610 420 Q 760 435 857 468 Q 954 501 1005.5 558.5 Q 1057 616 1057 715 Q 1057 836 967.5 916.5 Q 878 997 714 1012 Q 785 913 785 802 Q 785 664 695.5 582 Q 606 500 451 500 Q 307 500 212 589 Q 117 678 117 816 Q 117 980 248.5 1070 Q 380 1160 610 1160 Q 908 1160 1070 1040 Q 1232 920 1232 715 Q 1232 582 1175.5 494 Q 1119 406 996 353.5 Q 873 301 632 277 L 468 261 Q 393 254 358 245 Q 323 236 312 225 Q 301 214 301 195 Q 301 170 317 159 Q 333 148 372 148 L 2151 148 Z M 554 1018 L 539 1018 Q 419 1018 349 964.5 Q 279 911 279 817 Q 279 737 327 688 Q 375 639 455 639 Q 533 639 579 688 Q 625 737 625 824 Q 625 934 554 1018 Z"/>
        </g>
        <g transform="matrix(1 0 0 1 39086 1258)">
            <path fill="#000000" stroke="none" d="M 2116 -254 L 1937 -254 L 1937 212 L 1611 212 Q 1512 -8 1270.5 -131 Q 1029 -254 697 -254 L 670 -254 Q 384 -254 222 -152 Q 60 -50 60 122 Q 60 189 91 243 Q 122 297 192.5 328.5 Q 263 360 420 360 L 1476 360 Q 1496 435 1496 515 Q 1496 676 1426.5 798.49994 Q 1357 921 1231 976 Q 1282 893 1282 811 Q 1282 663 1194 578 Q 1106 493 955 493 Q 802 493 708.5 578 Q 615 663 615 813 Q 615 976 729 1068 Q 843 1160 1031 1160 Q 1221 1160 1367.5 1075 Q 1514 990 1593.5 839.5 Q 1673 689 1673 516 Q 1673 434 1658 360 L 1937 360 L 1937 1134 L 2116 1134 L 2116 143 Q 2216 206 2344 206 Q 2436 206 2515.5 164.5 Q 2595 123 2638 46 Q 2681 -31 2681 -133 Q 2681 -289 2586 -408.50003 Q 2491 -528 2314 -593 Q 2137 -658 1900 -658 L 1888 -658 Q 1621 -658 1474 -568.5 Q 1327 -479 1327 -315 Q 1327 -215 1402 -149.5 Q 1477 -84 1606 -84 Q 1708 -84 1825 -126 L 1796 -260 Q 1689 -225 1618 -225 Q 1554 -225 1519 -250 Q 1484 -275 1484 -322 Q 1484 -409 1588.5001 -459.5 Q 1693 -510 1897 -510 L 1911 -510 Q 2184 -510 2346.5 -406.49997 Q 2509 -303 2509 -128 Q 2509 -38 2457.5 13 Q 2406 64 2317 64 Q 2202 64 2116 3 L 2116 -254 Z M 1053 1017 L 1032 1018 Q 917 1023 847 968.5 Q 777 914 777 814 Q 777 732 824.5 682 Q 872 632 952 632 Q 1031 632 1076.5 681.5 Q 1122 731 1122 820 Q 1122 937 1053 1017 Z M 1414 212 L 449 212 Q 350 212 315 205 Q 280 198 259 176.5 Q 238 155 238 114 Q 238 9 349.5 -48 Q 461 -105 669 -105 L 700 -105 Q 955 -105 1137.5 -24 Q 1320 57 1414 212 Z"/>
        </g>
        <g transform="matrix(1 0 0 1 41776 1258)">
            <path fill="#000000" stroke="none" d="M 556 -320 Q 440 -320 384 -343.5 Q 328 -367 301 -412 Q 274 -457 274 -538 Q 274 -608 281 -650 L 110 -658 Q 97 -564 97 -498 Q 97 -395 141.5 -322.5 Q 186 -250 269.5 -211 Q 353 -172 501 -172 L 753 -172 Q 1070 -172 1212 -102.50001 Q 1354 -33 1412.5 111 Q 1471 255 1471 505 Q 1471 755 1391.5 884 Q 1312 1013 1158 1013 Q 1072 1013 1014.5 975.5 Q 957 938 929.50006 866.50006 Q 902 795 902 654 L 902 0 L 724 0 L 724 688 Q 724 861 682.5 937 Q 641 1013 555 1013 Q 470 1013 428 970 Q 386 927 371.5 841.5 Q 357 756 357 626 L 357 0 L 180 0 L 180 703 Q 180 872 219.49998 967 Q 259 1062 337 1112 Q 415 1162 526 1162 Q 737 1162 821 966 Q 867 1059 957.49994 1110.5 Q 1048 1162 1171 1162 Q 1401 1162 1527 990 Q 1653 818 1653 500 Q 1653 223 1569.5 43 Q 1486 -137 1305.5 -228.50002 Q 1125 -320 798 -320 L 556 -320 Z M 535 -23 L 535 -23 Z"/>
        </g>
        <g transform="matrix(1 0 0 1 44100 1258)">
            <path fill="#000000" stroke="none" d="M 180 0 L 180 1134 L 357 1134 L 357 148 L 819 148 L 819 727 Q 819 892 859 981.5 Q 899 1071 981 1116.5 Q 1063 1162 1187 1162 Q 1402 1162 1517.5 998.5 Q 1633 835 1633 537 Q 1633 404 1605 303 Q 1577 202 1513 132.5 Q 1449 63 1350.5 31.500002 Q 1252 0 1049 0 L 180 0 Z M 996 148 L 1092 148 Q 1225 148 1302.5 183 Q 1380 218 1416.5 301 Q 1453 384 1453 546 Q 1453 766 1383 890 Q 1313 1014 1184 1014 Q 1113 1014 1067.5 972 Q 1022 930 1009 866 Q 996 802 996 685 L 996 148 Z"/>
        </g>
        <g transform="matrix(1 0 0 1 45862 1258)">
            <path fill="#000000" stroke="none" d="M 327 1134 L 1398 1134 L 1398 986 L 1015 986 L 1015 672 L 1398 672 L 1398 529 L 1015 529 L 1015 462 Q 1015 255 954.5 157.5 Q 894 60 791.5 18.5 Q 689 -23 535 -23 Q 412 -23 310.5 20 Q 209 63 154.5 140.5 Q 100 218 100 318 Q 100 427 156.5 502.49997 Q 213 578 327 621 L 327 1134 Z M 679 672 L 841 672 L 841 986 L 488 986 L 488 660 Q 572 672 679 672 Z M 841 529 L 665 529 Q 460 529 368.5 479.5 Q 277 430 277 314 Q 277 225 350 175 Q 423 125 550 125 Q 708 125 774.5 201 Q 841 277 841 436 L 841 529 Z"/>
        </g>
        <g transform="matrix(1 0 0 1 47343 1258)">
            <path fill="#000000" stroke="none" d="M 1281 572 Q 1205 529 1163 453 Q 1121 377 1121 285 Q 1121 166 1174.5 84 Q 1228 2 1329.5 -36.5 Q 1431 -75 1606 -75 L 1795 -75 L 1795 -222 L 1436 -222 Q 1409 -256 1380 -313 Q 1285 -499 1156 -578.5 Q 1027 -658 837 -658 Q 652 -658 539 -563 Q 426 -468 426 -297 Q 426 -212 457 -124.5 Q 488 -37 548 39 L 700 -34 Q 647 -112 625.5 -172 Q 604 -232 604 -294 Q 604 -509 852 -509 Q 931 -509 1000.5 -479 Q 1070 -449 1125.5 -385 Q 1181 -321 1214 -262 Q 1245 -205 1272 -172 Q 1120 -108 1037.5 8 Q 955 124 955 281 Q 955 392 1008 495.5 Q 1061 599 1155.5 659.5 Q 1250 720 1366 720 Q 1413 720 1464 708 Q 1398 566 1398 453 Q 1398 277 1567 277 Q 1647 277 1691.5 337.5 Q 1736 398 1736 502 Q 1736 657 1649.5 772.5 Q 1563 888 1402.5 949 Q 1242 1010 1031 1010 Q 756 1010 568.5 935.5 Q 381 861 306 722 Q 407 785 506 785 Q 650 785 733 700 Q 816 615 816 470 Q 816 311 726 221.5 Q 636 132 479 132 Q 321 132 214 245.5 Q 107 359 107 550 Q 107 725 207 860.49994 Q 307 996 507.5 1079 Q 708 1162 1028 1162 Q 1439 1162 1675 979 Q 1911 796 1911 525 Q 1911 341 1823.5 236.50002 Q 1736 132 1568 132 Q 1419 132 1334.5 205.5 Q 1250 279 1250 415 Q 1250 507 1281 572 Z M 269 548 Q 269 416 329 343.5 Q 389 271 490 271 Q 562 271 605 319 Q 648 367 648 452 Q 648 539 600.5 589.5 Q 553 640 472 640 Q 367 640 269 548 Z"/>
        </g>
        <g transform="matrix(1 0 0 1 49361 1258)">
            <path fill="#000000" stroke="none" d="M 281 -650 L 110 -658 Q 97 -564 97 -498 Q 97 -395 141.5 -322.5 Q 186 -250 269.5 -211 Q 353 -172 501 -172 L 647 -172 Q 946 -172 1079.5 -130.5 Q 1213 -89 1276.5 3.5 Q 1340 96 1340 277 Q 1340 429 1282 511 Q 1224 593 1118 593 Q 1003 593 891 505 L 891 0 L 713 0 L 713 986 L 357 986 L 357 0 L 180 0 L 180 1134 L 1248 1134 L 1248 986 L 891 986 L 891 664 Q 966 711 1024 726.5 Q 1082 742 1146 742 Q 1309 742 1413 617 Q 1517 492 1517 279 Q 1517 120 1475.5 12 Q 1434 -96 1340 -173 Q 1246 -250 1105.5 -285 Q 965 -320 710 -320 L 556 -320 Q 440 -320 384 -343.5 Q 328 -367 301 -412 Q 274 -457 274 -538 Q 274 -608 281 -650 Z M 535 -23 L 535 -23 Z"/>
        </g>
        <g transform="matrix(1 0 0 1 50977 1258)">
            <path fill="#000000" stroke="none" d="M 1236 148 L 1780 148 L 1780 1134 L 1959 1134 L 1959 0 L 1054 0 L 1047 130 Q 1154 291 1154 550 Q 1154 764 1042.5 887 Q 931 1010 738 1010 Q 558 1010 437 900 Q 316 790 286 594 Q 402 672 534 672 Q 686 672 775.5 582 Q 865 492 865 337 Q 865 170 772 73 Q 679 -24 518 -24 Q 337 -24 227 112.5 Q 117 249 117 502 Q 117 702 194 850.5 Q 271 999 416 1080.5 Q 561 1162 746 1162 Q 1029 1162 1182.5 1003.5 Q 1336 845 1336 573 Q 1336 461 1312.5 360 Q 1289 259 1236 148 Z M 280 434 Q 289 277 352 196 Q 415 115 522 115 Q 601 115 649 168 Q 697 221 697 318 Q 697 416 644.5 472 Q 592 528 505 528 Q 390 528 280 434 Z"/>
        </g>
        <g transform="matrix(1 0 0 1 53116 1258)">
            <path fill="#000000" stroke="none" d="M 1159 937 Q 1203 1048 1283.5 1105 Q 1364 1162 1472 1162 Q 1635 1162 1727.5 1055 Q 1820 948 1820 703 L 1820 534 Q 1820 371 1849 289.5 Q 1878 208 1933.4999 168 Q 1989 128 2079 128 Q 2201 128 2262.5 217 Q 2324 306 2324 485 Q 2324 664 2259.5 823 Q 2195 982 2067 1120 L 2227 1228 Q 2368 1050 2435 870.5 Q 2502 691 2502 500 Q 2502 240 2392 108 Q 2282 -24 2066 -24 Q 1855 -24 1749 105.49999 Q 1643 235 1643 485 L 1643 589 Q 1643 785 1622.5 867 Q 1602 949 1561 981 Q 1520 1013 1455 1013 Q 1374 1013 1324.5 931.50006 Q 1275 850 1275 719 L 1275 0 L 1098 0 L 1098 613 Q 1098 744 1051.5 833.50006 Q 1005 923 919 966.5 Q 833 1010 728 1010 Q 556 1010 437 898 Q 318 786 287 595 Q 405 672 534 672 Q 686 672 775.5 582 Q 865 492 865 337 Q 865 170 772 73 Q 679 -24 518 -24 Q 337 -24 227 112.5 Q 117 249 117 502 Q 117 703 196 852.5 Q 275 1002 420 1082 Q 565 1162 746 1162 Q 1016 1162 1159 937 Z M 280 434 Q 289 277 351 196 Q 413 115 522 115 Q 601 115 649 168 Q 697 221 697 318 Q 697 416 644.5 472 Q 592 528 505 528 Q 390 528 280 434 Z M 1180 1134 L 1180 1134 Z"/>
        </g>
        <g transform="matrix(1 0 0 1 56279 1258)">
            <path fill="#000000" stroke="none" d="M 1606 1134 L 1606 986 L 1259 986 L 1259 0 L 802 -435 L 685 -325 L 1081 50 L 1081 986 L 900 986 Q 702 986 586.5 949.5 Q 471 913 393 820 Q 315 727 290 596 Q 406 672 534 672 Q 686 672 775.5 582 Q 865 492 865 337 Q 865 170 772 73 Q 679 -24 518 -24 Q 337 -24 227 109 Q 117 242 117 489 Q 117 687 201 830 Q 285 973 446 1053.5 Q 607 1134 910 1134 L 1606 1134 Z M 280 433 Q 286 279 349 197 Q 412 115 522 115 Q 601 115 649 168 Q 697 221 697 318 Q 697 416 644.5 472 Q 592 528 505 528 Q 390 528 280 433 Z M 1311 -658 L 1311 -658 Z M 857 0 L 857 0 Z"/>
        </g>
        <g transform="matrix(1 0 0 1 57919 1258)">
            <path fill="#000000" stroke="none" d="M 874 129 Q 562 129 436 57 Q 310 -15 310 -190 Q 310 -343 413.5 -425.50003 Q 517 -508 696 -508 Q 840 -508 914.5 -464.5 Q 989 -421 1020 -350.5 Q 1051 -280 1051 -149 L 1051 -22 L 1229 -22 L 1229 -96 Q 1229 -316 1302.5 -412 Q 1376 -508 1533 -508 Q 1654 -508 1720.5 -432.5 Q 1787 -357 1787 -215 Q 1787 -160 1771.5 -83 Q 1756 -6 1735 33 L 1909 93 Q 1942 2 1953.5 -70 Q 1965 -142 1965 -222 Q 1965 -423 1846 -540.5 Q 1727 -658 1535 -658 Q 1242 -658 1138 -429 Q 1079 -541 964.5 -599.5 Q 850 -658 693 -658 Q 524 -658 396 -599.5 Q 268 -541 198.5 -436 Q 129 -331 129 -204 Q 129 -47 200.5 59 Q 272 165 428.5 221 Q 585 277 873 277 L 1066 277 Q 1373 277 1516.4999 317 Q 1660 357 1722 444 Q 1784 531 1784 685 Q 1784 838 1702.5 925.49994 Q 1621 1013 1486 1013 Q 1391 1013 1334.5 971.5 Q 1278 930 1253.5 858.5 Q 1229 787 1229 654 L 1229 420 L 1051 420 L 1051 600 Q 1051 815 962.50006 916.5 Q 874 1018 691 1018 Q 604 1018 545 1005 Q 675 981 751.5 898.50006 Q 828 816 828 700 Q 828 553 732 464.5 Q 636 376 482 376 Q 317 376 223 467 Q 129 558 129 707 Q 129 838 199.5 941 Q 270 1044 398.5 1103 Q 527 1162 677 1162 Q 1007 1162 1128 934 Q 1234 1162 1492 1162 Q 1712 1162 1838.4999 1031.5 Q 1965 901 1965 686 Q 1965 501 1886 379 Q 1807 257 1629.5 193 Q 1452 129 1109 129 L 874 129 Z M 376 917 Q 291 837 291 702 Q 291 613 339 564 Q 387 515 479 515 Q 560 515 610 562 Q 660 609 660 686 Q 660 785 583 849.5 Q 506 914 376 917 Z"/>
        </g>
        <g transform="matrix(1 0 0 1 60013 1258)">
            <path fill="#000000" stroke="none" d="M 327 1134 L 1398 1134 L 1398 986 L 1015 986 L 1015 672 L 1071 672 Q 1342 672 1466 578 Q 1590 484 1590 311 Q 1590 155 1497 70 Q 1404 -15 1232 -15 Q 1187 -15 1131 -7 Q 1075 1 1030 15 L 1068 150 Q 1140 129 1208 129 Q 1312 129 1362.5 175 Q 1413 221 1413 320 Q 1413 424 1334 476.5 Q 1255 529 1062 529 L 1015 529 L 1015 462 Q 1015 255 954.5 157.5 Q 894 60 791.5 18.5 Q 689 -23 535 -23 Q 344 -23 222 69.5 Q 100 162 100 318 Q 100 427 156.5 502.49997 Q 213 578 327 621 L 327 1134 Z M 679 672 L 841 672 L 841 986 L 488 986 L 488 660 Q 572 672 679 672 Z M 841 529 L 665 529 Q 460 529 368.5 479.5 Q 277 430 277 314 Q 277 225 350 175 Q 423 125 550 125 Q 708 125 774.5 201 Q 841 277 841 436 L 841 529 Z"/>
        </g>
        <g transform="matrix(1 0 0 1 61702 1258)">
            <path fill="#000000" stroke="none" d="M 1147 -340 Q 1142 -346 1130 -373 Q 1081 -467 1021 -526.5 Q 961 -586 862 -622 Q 763 -658 602 -658 L 551 -658 Q 434 -658 330 -625.5 Q 226 -593 177.5 -528.5 Q 129 -464 129 -381 Q 129 -265 216.5 -194.5 Q 304 -124 450 -124 Q 525 -124 593 -135 L 578 -272 Q 527 -265 477 -265 Q 393 -265 349 -293.5 Q 305 -322 305 -378 Q 305 -446 371.5 -480.5 Q 438 -515 565 -515 L 616 -515 Q 753 -515 840 -469 Q 927 -423 982 -312 L 994 -289 Q 826 -214 819 0 L 180 0 L 180 1134 L 357 1134 L 357 148 L 819 148 L 819 727 Q 819 892 859 981.5 Q 899 1071 981 1116.5 Q 1063 1162 1187 1162 Q 1402 1162 1517.5 998.5 Q 1633 835 1633 537 Q 1633 401 1604.5 299 Q 1576 197 1511.5 129 Q 1447 61 1346.5 30.499998 Q 1246 0 1077 0 L 994 0 Q 995 -75 1023.49994 -117 Q 1052 -159 1106.5 -175.5 Q 1161 -192 1252 -192 L 1514 -192 L 1514 -340 L 1147 -340 Z M 996 148 L 1092 148 Q 1225 148 1302.5 183 Q 1380 218 1416.5 301 Q 1453 384 1453 546 Q 1453 766 1383 890 Q 1313 1014 1184 1014 Q 1113 1014 1067.5 972 Q 1022 930 1009 866 Q 996 802 996 685 L 996 148 Z"/>
        </g>
        <g transform="matrix(1 0 0 1 63464 1258)">
            <path fill="#000000" stroke="none" d="M 1344 -184 Q 1244 -230 1125 -376 Q 993 -537 872.5 -597.5 Q 752 -658 608 -658 Q 383 -658 256 -532 Q 129 -406 129 -204 Q 129 -47 200.5 59 Q 272 165 428.5 221 Q 585 277 873 277 L 1066 277 Q 1373 277 1516.4999 317 Q 1660 357 1722 444 Q 1784 531 1784 685 Q 1784 838 1702.5 925.49994 Q 1621 1013 1486 1013 Q 1391 1013 1334.5 971.5 Q 1278 930 1253.5 858.5 Q 1229 787 1229 654 L 1229 420 L 1051 420 L 1051 600 Q 1051 815 962.50006 916.5 Q 874 1018 691 1018 Q 604 1018 545 1005 Q 675 981 751.5 898.50006 Q 828 816 828 700 Q 828 553 732 464.5 Q 636 376 482 376 Q 317 376 223 467 Q 129 558 129 707 Q 129 838 199.5 941 Q 270 1044 398.5 1103 Q 527 1162 677 1162 Q 1007 1162 1128 934 Q 1234 1162 1492 1162 Q 1712 1162 1838.4999 1031.5 Q 1965 901 1965 686 Q 1965 501 1886 379 Q 1807 257 1629.5 193 Q 1452 129 1109 129 L 874 129 Q 562 129 436 57 Q 310 -15 310 -190 Q 310 -344 392 -426 Q 474 -508 599 -508 Q 676 -508 735 -488 Q 794 -468 847 -430 Q 900 -392 979 -304 Q 1079 -194 1153 -135.5 Q 1227 -77 1318.5 -46 Q 1410 -15 1539 -15 Q 1649 -15 1742.5 -56.5 Q 1836 -98 1887 -175 Q 1938 -252 1938 -356 Q 1938 -490 1846.5001 -574 Q 1755 -658 1611 -658 Q 1456 -658 1367.5 -575 Q 1279 -492 1279 -370 Q 1279 -268 1344 -184 Z M 376 917 Q 291 837 291 702 Q 291 613 339 564 Q 387 515 479 515 Q 560 515 610 562 Q 660 609 660 686 Q 660 786 584.5 850 Q 509 914 376 917 Z M 1527 -158 Q 1448 -241 1448 -344 Q 1448 -426 1491.5001 -471.49997 Q 1535 -517 1616 -517 Q 1685 -517 1728.5 -475 Q 1772 -433 1772 -355 Q 1772 -171 1527 -158 Z"/>
        </g>
        <g transform="matrix(1 0 0 1 65558 1258)">
            <path fill="#000000" stroke="none" d="M 2599 672 L 2599 0 L 2015 0 L 1868 -581 L 1706 -536 L 1841 0 L 1054 0 L 1047 130 Q 1154 291 1154 550 Q 1154 764 1042.5 887 Q 931 1010 738 1010 Q 558 1010 437 900 Q 316 790 286 594 Q 402 672 534 672 Q 686 672 775.5 582 Q 865 492 865 337 Q 865 170 772 73 Q 679 -24 518 -24 Q 337 -24 227 112.5 Q 117 249 117 502 Q 117 702 194 850.5 Q 271 999 416 1080.5 Q 561 1162 746 1162 Q 1029 1162 1182.5 1003.5 Q 1336 845 1336 573 Q 1336 461 1312.5 360 Q 1289 259 1236 148 L 1878 148 L 1935 375 Q 1731 396 1618 501.5 Q 1505 607 1505 787 Q 1505 951 1603 1056.5 Q 1701 1162 1861 1162 Q 2018 1162 2104 1073 Q 2190 984 2190 832 Q 2190 712 2147 524 Q 2306 550 2433 672 L 2599 672 Z M 1970 517 Q 2012 710 2012 825 Q 2012 916 1973 965 Q 1934 1014 1861 1014 Q 1775 1014 1725 953 Q 1675 892 1675 783 Q 1675 664 1750 596 Q 1825 528 1970 517 Z M 280 434 Q 289 277 352 196 Q 415 115 522 115 Q 601 115 649 168 Q 697 221 697 318 Q 697 416 644.5 472 Q 592 528 505 528 Q 390 528 280 434 Z M 2441 497 Q 2304 394 2110 375 L 2052 148 L 2434 148 L 2434 313 Q 2434 425 2441 497 Z M 1771 -658 L 1771 -658 Z M 1380 1134 L 1380 1134 Z"/>
        </g>
    </g>
</svg>
