<svg width="37612" height="3789" viewBox="0 0 37612 3789" xmlns="http://www.w3.org/2000/svg">
    <defs/>
    <g transform="matrix(1 0 0 -1 0 3789)">
        <g transform="matrix(1 0 0 1 0 1100)">
            <path fill="#000000" stroke="none" d="M 249 681 L 248 723 Q 248 841 224.5 887.5 Q 201 934 154 934 Q 60 934 10 848 L -20 929 Q 95 1064 206 1064 Q 362 1064 409 897 Q 484 1000 586.5 1059 Q 689 1118 789 1118 Q 929 1118 1016.5 1071 Q 1104 1024 1159 929.50006 Q 1214 835 1242 688 Q 1270 541 1270 338 Q 1270 170 1265 40 L 1091 -20 L 1094 101 Q 932 -20 736 -20 Q 574 -20 482 65 Q 390 150 390 305 Q 390 412 460 496.5 Q 530 581 662.5 628.5 Q 795 676 978 676 L 1068 673 Q 1047 791 1010 858.5 Q 973 926 919 957 Q 865 988 762 988 Q 647 988 554.5 908.5 Q 462 829 423 694 L 249 681 Z M 975 561 Q 787 561 681 492.5 Q 575 424 575 303 Q 575 214 630 162 Q 685 110 777 110 Q 869 110 955 141.5 Q 1041 173 1094 224 L 1094 303 Q 1094 437 1083 556 L 975 561 Z"/>
        </g>
        <g transform="matrix(1 0 0 1 1360 1100)">
            <path fill="#000000" stroke="none" d="M 1225 -388 Q 910 -540 659 -540 Q 520 -540 423.49997 -499.5 Q 327 -459 264.5 -382 Q 202 -305 166.5 -189 Q 131 -73 115.5 91 Q 100 255 100 639 L 100 1078 Q 100 1438 219 1649 Q 338 1860 556 1860 Q 800 1860 912.5 1630.5 Q 1025 1401 1025 911 Q 1025 228 1000 -2 Q 919 -20 821 -20 Q 698 -20 603 33 Q 508 86 456.50003 181 Q 405 276 405 395 Q 405 597 523.5 727 Q 642 857 853 883 Q 853 1213 824.5 1390.4999 Q 796 1568 733 1649 Q 670 1730 556 1730 Q 418 1730 347 1578 Q 276 1426 276 1098 L 276 636 Q 276 266 295 83.5 Q 314 -99 356.5 -204 Q 399 -309 472.50003 -359.49997 Q 546 -410 659 -410 Q 782 -410 917 -376.50003 Q 1052 -343 1225 -264 L 1225 -388 Z M 852 765 Q 724 742 654.5 650 Q 585 558 585 399 Q 585 303 618 235.49998 Q 651 168 708.5 131.5 Q 766 95 835 95 Q 852 337 852 765 Z"/>
        </g>
        <g transform="matrix(1 0 0 1 2485 1100)">
            <path fill="#000000" stroke="none" d="M 1707 -20 L 1715 181 Q 1627 91 1516.4999 35.5 Q 1406 -20 1324 -20 Q 1181 -20 1092.5 43.5 Q 1004 107 960 230 Q 869 119 744 49.5 Q 619 -20 525 -20 Q 319 -20 217.5 120.5 Q 116 261 116 551 L 116 747 Q 116 884 90 1036 L 261 1110 Q 281 1022 288 921 Q 381 1021 473 1069.5 Q 565 1118 644 1118 Q 939 1118 1043 867 Q 1132 983 1239 1050.5 Q 1346 1118 1443 1118 Q 1659 1118 1774.4999 981 Q 1890 844 1890 589 Q 1890 218 1881 20 L 1707 -20 Z M 292 551 Q 292 336 364.5 223 Q 437 110 568 110 Q 739 110 827 226 Q 915 342 915 563 Q 915 782 840.5 885 Q 766 988 615 988 Q 461 988 376.50003 873 Q 292 758 292 551 Z M 1091 551 Q 1091 336 1163.5 223 Q 1236 110 1367 110 Q 1538 110 1626 226 Q 1714 342 1714 563 Q 1714 782 1639.5 885 Q 1565 988 1414 988 Q 1260 988 1175.5 873 Q 1091 758 1091 551 Z"/>
        </g>
        <g transform="matrix(1 0 0 1 4465 1100)">
            <path fill="#000000" stroke="none" d="M 818 -20 Q 831 201 831 566 Q 831 793 817 921 Q 755 856 659 705 Q 563 554 441.50003 326 Q 320 98 291 18 L 118 -20 Q 131 201 131 566 Q 131 706 123 858 Q 115 1010 100 1082 L 269 1118 Q 288 1040 297.5 884.5 Q 307 729 307 571 L 302 246 Q 347 342 441.50003 518 Q 536 694 627.5 836 Q 719 978 785 1048 Q 851 1118 890 1118 Q 934 1118 949.5 1105 Q 965 1092 976 1053.5 Q 987 1015 994 956.49994 Q 1001 898 1004 809 Q 1007 720 1007 571 Q 1007 426 1002 252.50002 Q 997 79 992 20 L 818 -20 Z"/>
        </g>
        <g transform="matrix(1 0 0 1 5562 1100)">
            <path fill="#000000" stroke="none" d="M 140 -20 Q 128 65 114 318 Q 100 571 100 739 L 100 1078 Q 100 1438 219 1649 Q 338 1860 556 1860 Q 800 1860 912.5 1630.5 Q 1025 1401 1025 911 Q 1025 228 1000 -2 Q 919 -20 821 -20 Q 698 -20 603 33 Q 508 86 456.50003 181 Q 405 276 405 395 Q 405 597 523.5 727 Q 642 857 853 883 Q 853 1213 824.5 1390.4999 Q 796 1568 733 1649 Q 670 1730 556 1730 Q 418 1730 347 1578 Q 276 1426 276 1098 L 276 736 Q 276 493 287.5 305.5 Q 299 118 316 20 L 140 -20 Z M 852 765 Q 724 742 654.5 650 Q 585 558 585 399 Q 585 303 618 235.49998 Q 651 168 708.5 131.5 Q 766 95 835 95 Q 852 337 852 765 Z"/>
        </g>
        <g transform="matrix(1 0 0 1 6687 1100)">
            <path fill="#000000" stroke="none" d="M 15 768 Q 10 966 -20 1107 L 138 1162 Q 163 1075 169 979 Q 287 1118 395 1118 Q 463 1118 509.5 1068 Q 556 1018 578 916.5 Q 600 815 600 626 L 600 532 Q 600 326 614.5 249.5 Q 629 173 664 141.5 Q 699 110 772 110 Q 850 110 929.50006 142.5 Q 1009 175 1075 237 L 1075 498 Q 1075 883 1055 1048 L 1219 1068 Q 1231 1011 1241 805 Q 1251 599 1251 433 L 1251 381 Q 1251 -77 1133 -283.5 Q 1015 -490 772 -490 Q 697 -490 614 -463 Q 531 -436 490 -404 L 490 -290 Q 535 -331 610.5 -353 Q 686 -375 762 -375 Q 870 -375 936 -326.5 Q 1002 -278 1035 -177 Q 1068 -76 1073 114 Q 988 53 891 16.5 Q 794 -20 724 -20 Q 608 -20 544 28 Q 480 76 452 178 Q 424 280 424 519 L 424 665 Q 424 862 403.5 925 Q 383 988 326 988 Q 228 988 154 774 L 15 768 Z"/>
        </g>
        <g transform="matrix(1 0 0 1 8560 1100)">
            <path fill="#000000" stroke="none" d="M 1000 1118 Q 1030 1017 1052.5 852.5 Q 1075 688 1075 529 Q 1075 446 1068.5 281 Q 1062 116 1051 20 L 871 -20 L 886 145 Q 745 56 641 56 Q 563 56 520 116 Q 455 61 366.5 20.5 Q 278 -20 212 -20 Q 124 -20 80.5 56 Q 37 132 30 288 L 196 317 Q 198 208 216 158 Q 234 108 282 108 Q 324 108 379.5 127 Q 435 146 485 189 Q 463 259 459 364 L 625 393 Q 627 284 645 234 Q 663 184 711 184 Q 748 184 797 199.5 Q 846 215 892 249 Q 899 365 899 482 Q 899 628 878.5 822 Q 858 1016 833 1082 L 1000 1118 Z"/>
        </g>
        <g transform="matrix(1 0 0 1 9725 1100)">
            <path fill="#000000" stroke="none" d="M 130 -20 Q 127 13 124 62 Q 121 111 118 165.5 Q 115 220 110 331 Q 105 442 100 719 L 100 1098 Q 100 1329 153 1506.5 Q 206 1684 299 1772 Q 392 1860 519 1860 Q 743 1860 848 1634 Q 953 1408 953 941 Q 953 690 947.5 525 Q 942 360 942 290 L 768 250 Q 781 558 781 926 Q 781 1333 718.5 1531.5 Q 656 1730 519 1730 Q 401 1730 338.5 1577 Q 276 1424 276 1118 L 276 716 Q 276 542 285 347.5 Q 294 153 306 20 L 130 -20 Z"/>
        </g>
        <g transform="matrix(1 0 0 1 10778 1100)">
            <path fill="#000000" stroke="none" d="M 981 166 Q 891 88 756 34 Q 621 -20 513 -20 Q 311 -20 200.5 121.49999 Q 90 263 90 528 Q 90 666 170.5 807 Q 251 948 378.5 1033 Q 506 1118 642 1118 Q 744 1118 815 1083.5 Q 886 1049 923.5 989 Q 961 929 961 851 Q 961 743 876.5 641.5 Q 792 540 646 480.5 Q 500 421 322 421 L 274 421 Q 294 278 365.5 194 Q 437 110 552 110 Q 646 110 760.5 147 Q 875 184 945 235 L 981 166 Z M 266 537 L 288 536 L 309 536 Q 527 536 656 612 Q 785 688 785 819 Q 785 898 734 943 Q 683 988 594 988 Q 439 988 352.5 871 Q 266 754 266 551 L 266 537 Z"/>
        </g>
        <g transform="matrix(1 0 0 1 11849 1100)">
            <path fill="#000000" stroke="none" d="M 876 1118 Q 893 1042 910.5 823.5 Q 928 605 928 501 L 928 368 Q 928 124 874.5 -81 Q 821 -286 728.5 -388 Q 636 -490 513 -490 Q 300 -490 200 -297 Q 100 -104 100 319 Q 100 492 109.49999 728 Q 119 964 131 1082 L 301 1118 Q 272 611 272 334 Q 272 142 286 10.5 Q 300 -121 329.5 -202.5 Q 359 -284 407 -322 Q 455 -360 539 -360 Q 617 -360 663.5 -301.5 Q 710 -243 731 -128.5 Q 752 -14 752 228 L 752 450 Q 752 561 744 757.5 Q 736 954 719 1098 L 876 1118 Z"/>
        </g>
        <g transform="matrix(1 0 0 1 12877 1100)">
            <path fill="#000000" stroke="none" d="M 908 -20 L 916 181 Q 828 91 717.5 35.5 Q 607 -20 525 -20 Q 319 -20 217.5 120.5 Q 116 261 116 551 L 116 747 Q 116 884 90 1036 L 261 1110 Q 281 1022 288 921 Q 381 1021 473 1069.5 Q 565 1118 644 1118 Q 860 1118 975.5 981 Q 1091 844 1091 589 Q 1091 288 1082 20 L 908 -20 Z M 292 551 Q 292 336 364.5 223 Q 437 110 568 110 Q 739 110 827 226 Q 915 342 915 563 Q 915 782 840.5 885 Q 766 988 615 988 Q 461 988 376.50003 873 Q 292 758 292 551 Z"/>
        </g>
        <g transform="matrix(1 0 0 1 14058 1100)">
            <path fill="#000000" stroke="none" d="M 1219 1118 Q 1235 1041 1246.5 903 Q 1258 765 1258 606 Q 1258 508 1252 334.5 Q 1246 161 1234 20 L 1056 -20 L 1064 107 Q 992 56 895.49994 18 Q 799 -20 724 -20 Q 608 -20 544 28 Q 480 76 452 178 Q 424 280 424 519 L 424 665 Q 424 862 403.5 925 Q 383 988 326 988 Q 228 988 154 774 L 15 768 Q 10 966 -20 1107 L 138 1162 Q 163 1075 169 979 Q 287 1118 395 1118 Q 463 1118 509.5 1068 Q 556 1018 578 916.5 Q 600 815 600 626 L 600 532 Q 600 326 614.5 249.5 Q 629 173 664 141.5 Q 699 110 772 110 Q 852 110 931 143 Q 1010 176 1072 234 Q 1082 434 1082 588 Q 1082 909 1055 1098 L 1219 1118 Z"/>
        </g>
        <g transform="matrix(1 0 0 1 15938 1100)">
            <path fill="#000000" stroke="none" d="M 259 1091 Q 291 919 291 571 L 291 532 Q 291 341 306.5 260 Q 322 179 359.49997 144.5 Q 397 110 473 110 Q 548 110 625.5 140 Q 703 170 772 227 Q 720 357 720 538 L 720 606 Q 720 754 750.5 875 Q 781 996 838.5 1057 Q 896 1118 977 1118 Q 1028 1118 1113 1071 L 1078 1004 Q 1062 1010 1043 1016.5 Q 1024 1023 995 1023 Q 935 1023 909.5 958 Q 884 893 884 720 Q 937 815 1020 867 Q 1103 919 1189 919 Q 1314 919 1407.5 860 Q 1501 801 1556 679.5 Q 1611 558 1611 408 Q 1611 153 1555.5001 -22.499998 Q 1500 -198 1396.5001 -284 Q 1293 -370 1149 -370 Q 1080 -370 1003.5 -355 Q 927 -340 873 -316 L 873 -202 Q 930 -228 1003 -241.5 Q 1076 -255 1132 -255 Q 1274 -255 1346.5 -159 Q 1419 -63 1435 133 Q 1288 -20 1110 -20 Q 918 -20 816 139 Q 732 72 620.5 26 Q 509 -20 425 -20 Q 308 -20 241 29 Q 174 78 144.5 182.5 Q 115 287 115 519 L 115 566 Q 115 704 107.5 843.5 Q 100 983 90 1051 L 259 1091 Z M 896 479 Q 896 312 961.50006 211.49998 Q 1027 111 1136 111 Q 1224 111 1291.5 158.5 Q 1359 206 1397 291.5 Q 1435 377 1435 480 Q 1435 630 1369 720.5 Q 1303 811 1190 811 Q 1109 811 1040 767.49994 Q 971 724 933.5 648 Q 896 572 896 479 Z"/>
        </g>
        <g transform="matrix(1 0 0 1 17639 1100)">
            <path fill="#000000" stroke="none" d="M 489 -20 Q 337 -13 264.5 26 Q 192 65 161.5 152 Q 131 239 131 423 L 131 1357 Q 131 1705 90 1800 L 248 1830 Q 307 1672 307 1318 L 307 413 Q 307 273 320 212 Q 333 151 366 124.5 Q 399 98 489 87 L 489 -20 Z"/>
        </g>
        <g transform="matrix(1 0 0 1 18128 1100)">
            <path fill="#000000" stroke="none" d="M 1075 -20 Q 1097 138 1111.5 320 Q 1126 502 1126 618 Q 1126 787 1110 857 Q 1094 927 1056.5 957.49994 Q 1019 988 951 988 Q 837 988 744 926.49994 Q 651 865 597 757 L 600 626 L 600 556 Q 600 113 510.5 -73.5 Q 421 -260 225 -260 Q 140 -260 41 -212 L 41 -105 Q 133 -145 215 -145 Q 310 -145 352 -99 Q 394 -53 409 69 Q 424 191 424 571 L 424 665 Q 424 862 403.5 925 Q 383 988 326 988 Q 228 988 154 774 L 15 768 Q 10 966 -20 1107 L 138 1162 Q 163 1075 169 979 Q 287 1118 395 1118 Q 465 1118 511.5 1066.5 Q 558 1015 582 896 Q 655 991 775.5 1054.5 Q 896 1118 999 1118 Q 1113 1118 1178 1069.5 Q 1243 1021 1272.5 922.5 Q 1302 824 1302 606 Q 1302 485 1287.5 298.5 Q 1273 112 1255 20 L 1075 -20 Z"/>
        </g>
        <g transform="matrix(1 0 0 1 19520 1100)">
            <path fill="#000000" stroke="none" d="M 1154 1580 Q 1033 1667 932 1698.5 Q 831 1730 695 1730 Q 489 1730 382.5 1585 Q 276 1440 276 1134 L 276 0 L 100 0 L 100 1098 Q 100 1338 171.5 1513.5 Q 243 1689 374 1774.4999 Q 505 1860 687 1860 Q 783 1860 865 1842.5001 Q 947 1825 1024.5 1790.5 Q 1102 1756 1229 1673 L 1154 1580 Z"/>
        </g>
        <g transform="matrix(1 0 0 1 19949 1100)">
            <path fill="#000000" stroke="none" d="M 1295 42 Q 1230 6 1190.5 -7 Q 1151 -20 1118 -20 Q 1011 -20 955 33.5 Q 899 87 875 200 Q 792 97 686 38.5 Q 580 -20 477 -20 Q 367 -20 278 42 Q 189 104 139.5 218 Q 90 332 90 475 Q 90 634 162.5 783 Q 235 932 358.49997 1025 Q 482 1118 608 1118 Q 804 1118 912 981.5 Q 1020 845 1020 603 L 1020 523 Q 1020 296 1029.5 223.5 Q 1039 151 1064 123 Q 1089 95 1151 95 Q 1205 95 1295 131 L 1295 42 Z M 266 551 Q 266 336 338.5 223 Q 411 110 542 110 Q 693 110 768.50006 216 Q 844 322 844 563 Q 844 781 778 884.5 Q 712 988 578 988 Q 424 988 345 873 Q 266 758 266 551 Z"/>
        </g>
        <g transform="matrix(1 0 0 1 21184 1100)">
            <path fill="#000000" stroke="none" d="M 975 556 Q 975 308 951 20 L 773 -20 L 782 109 Q 692 49 596 14.5 Q 500 -20 431 -20 Q 314 -20 247 29 Q 180 78 150.5 182.5 Q 121 287 121 519 L 121 566 Q 121 706 113 858 Q 105 1010 90 1082 L 259 1118 Q 278 1040 287.5 884.5 Q 297 729 297 571 L 297 532 Q 297 341 312.5 260 Q 328 179 365.5 144.5 Q 403 110 479 110 Q 558 110 638.5 142.5 Q 719 175 790 238 Q 799 403 799 538 Q 799 909 772 1098 L 936 1118 Q 975 945 975 556 Z"/>
        </g>
        <g transform="matrix(1 0 0 1 22781 1100)">
            <path fill="#000000" stroke="none" d="M 781 -20 Q 803 138 817.5 320 Q 832 502 832 618 Q 832 787 816 857 Q 800 927 762.5 957.49994 Q 725 988 657 988 Q 544 988 451.5 926.49994 Q 359 865 304 758 L 307 571 Q 307 426 302 252.50002 Q 297 79 292 20 L 118 -20 Q 131 201 131 566 Q 131 706 123 858 Q 115 1010 100 1082 L 269 1118 Q 285 1048 296 907 Q 372 998 489 1058 Q 606 1118 705 1118 Q 819 1118 884 1069.5 Q 949 1021 978.5 922.5 Q 1008 824 1008 606 Q 1008 485 993.50006 298.5 Q 979 112 961 20 L 781 -20 Z"/>
        </g>
        <g transform="matrix(1 0 0 1 23879 1100)">
            <path fill="#000000" stroke="none" d="M 981 166 Q 881 79 766.49994 29.500002 Q 652 -20 550 -20 Q 332 -20 211 128.5 Q 90 277 90 551 Q 90 696 157.5 831 Q 225 966 335.5 1042 Q 446 1118 578 1118 Q 721 1118 808.5 1064.5 Q 896 1011 944 914 L 796 851 Q 759 923 703 955.5 Q 647 988 562 988 Q 266 988 266 551 Q 266 355 358 232.5 Q 450 110 593 110 Q 677 110 770 143 Q 863 176 945 235 L 981 166 Z"/>
        </g>
        <g transform="matrix(1 0 0 1 24950 1100)">
            <path fill="#000000" stroke="none" d="M 210 -290 Q 254 -329 331 -352 Q 408 -375 482 -375 Q 594 -375 648 -334.5 Q 702 -294 730 -200.5 Q 758 -107 767 71 Q 618 -20 446 -20 Q 284 -20 192 65 Q 100 150 100 305 Q 100 412 170 496.5 Q 240 581 372.5 628.5 Q 505 676 688 676 L 758 673 Q 737 849 681.5 918.5 Q 626 988 506 988 Q 326 988 265 774 L 125 768 Q 120 966 90 1107 L 248 1162 Q 274 1068 279 982 Q 395 1118 580 1118 Q 771 1118 860.49994 926 Q 950 734 950 325 Q 950 96 920 -52 Q 890 -200 836 -293 Q 782 -386 700.49994 -438 Q 619 -490 503 -490 Q 417 -490 337.5 -465.5 Q 258 -441 210 -404 L 210 -290 Z M 773 341 Q 773 438 768 558 L 685 561 Q 497 561 391 492.5 Q 285 424 285 303 Q 285 214 340 162 Q 395 110 487 110 Q 563 110 640.5 133 Q 718 156 771 196 L 773 341 Z"/>
        </g>
        <g transform="matrix(1 0 0 1 25990 1100)">
            <path fill="#000000" stroke="none" d="M 1530 -20 Q 1552 138 1566.5 320 Q 1581 502 1581 618 Q 1581 787 1565 857 Q 1549 927 1511.5 957.49994 Q 1474 988 1406 988 Q 1314 988 1223 943.5 Q 1132 899 1060 817 Q 1091 712 1091 589 Q 1091 227 1082 20 L 908 -20 L 916 181 Q 828 91 717.5 35.5 Q 607 -20 525 -20 Q 319 -20 217.5 120.5 Q 116 261 116 551 L 116 747 Q 116 884 90 1036 L 261 1110 Q 281 1022 288 921 Q 381 1021 473 1069.5 Q 565 1118 644 1118 Q 902 1118 1014 925 Q 1112 1014 1231 1066 Q 1350 1118 1454 1118 Q 1571 1118 1636 1069 Q 1701 1020 1729 915.5 Q 1757 811 1757 579 Q 1757 471 1742.5 305 Q 1728 139 1710 20 L 1530 -20 Z M 292 551 Q 292 336 364.5 223 Q 437 110 568 110 Q 739 110 827 226 Q 915 342 915 563 Q 915 782 840.5 885 Q 766 988 615 988 Q 461 988 376.50003 873 Q 292 758 292 551 Z"/>
        </g>
        <g transform="matrix(1 0 0 1 27837 1100)">
            <path fill="#000000" stroke="none" d="M 169 979 Q 287 1118 395 1118 Q 463 1118 509.5 1068 Q 556 1018 578 916.5 Q 600 815 600 626 L 600 556 Q 600 411 591 290 Q 710 210 841 210 Q 915 210 953 243 Q 991 276 1007 351.5 Q 1023 427 1023 604 L 1023 621 Q 1023 951 1003 1098 L 1167 1118 Q 1199 963 1199 622 L 1199 592 Q 1197 378 1167 277 Q 1137 176 1070.5 128 Q 1004 80 889 80 Q 820 80 731.5 111.5 Q 643 143 579 183 Q 549 -42 462.5 -151 Q 376 -260 225 -260 Q 140 -260 41 -212 L 41 -105 Q 133 -145 215 -145 Q 310 -145 352 -99 Q 394 -53 409 69 Q 424 191 424 571 L 424 665 Q 424 862 403.5 925 Q 383 988 326 988 Q 228 988 154 774 L 15 768 Q 10 966 -20 1107 L 138 1162 Q 163 1075 169 979 Z"/>
        </g>
        <g transform="matrix(1 0 0 1 29126 1100)">
            <path fill="#000000" stroke="none" d="M 1155 582 Q 1155 274 1084 127 Q 1013 -20 864 -20 Q 799 -20 738 15 Q 677 50 627.5 109 Q 578 168 549 236 Q 495 113 424.50003 46.5 Q 354 -20 280 -20 Q 215 -20 180.50002 23.500002 Q 146 67 131.5 163 Q 117 259 117 517 L 117 611 Q 117 826 90 1042 L 261 1076 Q 273 997 283 840 Q 293 683 293 594 L 293 478 Q 293 316 296.5 241 Q 300 166 308 137 Q 316 108 340 108 Q 374 108 426 185 Q 478 262 511 365 L 627 422 Q 698 255 758 182.5 Q 818 110 876 110 Q 923 110 951 240 Q 979 370 979 616 Q 979 837 952 1098 L 1124 1118 Q 1138 996 1146.5 844 Q 1155 692 1155 582 Z"/>
        </g>
        <g transform="matrix(1 0 0 1 30903 1100)">
            <path fill="#000000" stroke="none" d="M 1421 -20 Q 1443 138 1457.5 320 Q 1472 502 1472 618 Q 1472 787 1456 857 Q 1440 927 1402.5 957.49994 Q 1365 988 1297 988 Q 1201 988 1120.5 944.5 Q 1040 901 981 819 Q 1021 693 1021 548 L 1021 423 Q 1021 30 896.50006 -170 Q 772 -370 529 -370 Q 479 -370 395 -351 Q 311 -332 270 -309 L 270 -202 Q 301 -216 381.5 -235.49998 Q 462 -255 513 -255 Q 643 -255 706.50006 -209 Q 770 -163 805 -57.5 Q 840 48 851 236 Q 788 161 691.5 110 Q 595 59 516 59 Q 402 59 313 123.5 Q 224 188 170 313.5 Q 116 439 116 576 L 116 747 Q 116 884 90 1036 L 261 1110 Q 267 1080 272 1052 Q 277 1024 287 913 Q 339 1003 429.5 1060.5 Q 520 1118 614 1118 Q 723 1118 806 1065.5 Q 889 1013 942 913 Q 1020 1004 1134.5 1061 Q 1249 1118 1345 1118 Q 1459 1118 1524 1069.5 Q 1589 1021 1618.5 922.5 Q 1648 824 1648 606 Q 1648 485 1633.5 298.5 Q 1619 112 1601 20 L 1421 -20 Z M 292 548 Q 292 376 355.5 283 Q 419 190 532 190 Q 686 190 765.49994 308.5 Q 845 427 845 665 Q 845 817 777 907.5 Q 709 998 586 998 Q 454 998 373 871.5 Q 292 745 292 548 Z"/>
        </g>
        <g transform="matrix(1 0 0 1 32641 1100)">
            <path fill="#000000" stroke="none" d="M 536 110 Q 674 110 752.5 184.5 Q 831 259 847 420 L 812 420 Q 710 420 629.5 464 Q 549 508 506 583 Q 463 658 463 746 Q 463 846 518.5 932.5 Q 574 1019 673.5 1068.5 Q 773 1118 902 1118 Q 943 1118 980 1108 Q 1028 895 1028 576 L 1028 546 Q 1028 387 962.50006 259 Q 897 131 771 55.5 Q 645 -20 498 -20 Q 304 -20 212.50002 111.5 Q 121 243 121 519 L 121 566 Q 121 706 113 858 Q 105 1010 90 1082 L 259 1118 Q 278 1040 287.5 884.5 Q 297 729 297 571 L 297 532 Q 297 376 320.5 284.5 Q 344 193 394.5 151.5 Q 445 110 536 110 Z M 852 535 Q 852 790 833 1018 Q 639 981 639 752 Q 639 649 688.5 592 Q 738 535 823 535 L 852 535 Z"/>
        </g>
        <g transform="matrix(1 0 0 1 33759 1100)">
            <path fill="#000000" stroke="none" d="M 1225 -388 Q 914 -540 659 -540 Q 520 -540 423.49997 -499.5 Q 327 -459 264.5 -382 Q 202 -305 166.5 -189 Q 131 -73 115.5 91 Q 100 255 100 639 L 100 1098 Q 100 1318 153 1500 Q 206 1682 299 1771 Q 392 1860 519 1860 Q 739 1860 846 1630 Q 953 1400 953 941 L 953 786 L 952 640 L 779 610 L 781 875 L 781 964 Q 781 1353 716.5 1541.5 Q 652 1730 515 1730 Q 398 1730 337 1573.5 Q 276 1417 276 1134 L 276 636 Q 276 266 295 83.5 Q 314 -99 356.5 -204 Q 399 -309 472.50003 -359.49997 Q 546 -410 659 -410 Q 905 -410 1225 -264 L 1225 -388 Z"/>
        </g>
        <g transform="matrix(1 0 0 1 34812 1100)">
            <path fill="#000000" stroke="none" d="M 307 576 L 307 -81 Q 307 -192 328 -256 Q 349 -320 392.50003 -347.5 Q 436 -375 535 -375 Q 664 -375 796 -359 Q 928 -343 1005 -322 L 1025 -416 Q 742 -490 503 -490 Q 301 -490 216 -377.50003 Q 131 -265 131 11 L 131 615 Q 131 991 90 1088 L 248 1118 Q 277 1043 292 900.5 Q 307 758 307 576 Z"/>
        </g>
        <g transform="matrix(1 0 0 1 35317 1100)">
            <path fill="#000000" stroke="none" d="M 990 -201 Q 674 -257 503 -257 Q 301 -257 216 -144.5 Q 131 -32 131 244 L 131 618 Q 131 994 90 1091 L 248 1121 Q 277 1046 292 903.5 Q 307 761 307 579 L 307 152 Q 307 41 328 -23 Q 349 -87 392.50003 -114.50001 Q 436 -142 535 -142 Q 726 -142 970 -111 L 990 -201 Z M 100 -167 Q 227 -372 509 -372 Q 642 -372 747.5 -358 Q 853 -344 975 -311 L 994 -400 Q 892 -437 741 -463.5 Q 590 -490 484 -490 Q 353 -490 272.5 -469 Q 192 -448 122.50001 -403 Q 53 -358 -2 -280 L 100 -167 Z"/>
        </g>
        <g transform="matrix(1 0 0 1 35911 1100)">
            <path fill="#000000" stroke="none" d="M 259 1091 Q 291 919 291 571 L 291 532 Q 291 341 306.5 260 Q 322 179 359.49997 144.5 Q 397 110 473 110 Q 636 110 774 229 Q 720 369 720 527 L 720 606 Q 720 754 750.5 875 Q 781 996 838.5 1057 Q 896 1118 977 1118 Q 1028 1118 1113 1071 L 1078 1004 Q 1027 1023 989 1023 Q 929 1023 906.5 947.5 Q 884 872 884 720 Q 934 807 1022 863 Q 1110 919 1207 919 Q 1323 919 1413 857 Q 1503 795 1557 671.5 Q 1611 548 1611 394 L 1611 366 Q 1611 260 1591 20 L 1417 -20 Q 1427 57 1431 157 Q 1332 60 1255 20 Q 1178 -20 1093 -20 Q 919 -20 818 141 Q 733 71 619.5 25.500002 Q 506 -20 425 -20 Q 308 -20 241 29 Q 174 78 144.5 182.5 Q 115 287 115 519 L 115 566 Q 115 704 107.5 843.5 Q 100 983 90 1051 L 259 1091 Z M 896 479 Q 896 312 961.50006 211.49998 Q 1027 111 1136 111 Q 1224 111 1291.5 158.5 Q 1359 206 1397 291.5 Q 1435 377 1435 480 Q 1435 630 1369 720.5 Q 1303 811 1190 811 Q 1109 811 1040 767.49994 Q 971 724 933.5 648 Q 896 572 896 479 Z"/>
        </g>
    </g>
</svg>
