<svg width="41175" height="3789" viewBox="0 0 41175 3789" xmlns="http://www.w3.org/2000/svg">
    <defs/>
    <path fill="#000000" stroke="none" transform="matrix(1 0 0 -1 0 2689)" d="M 1037 74 C 1109 94 1163.33333333333 128 1200 176 C 1236 223.33333333333 1254 280.66666666667 1254 348 C 1254 392.66666666667 1239.66666666667 435.66666666667 1211 477 C 1181.66666666667 518.33333333333 1140.33333333333 551.33333333333 1087 576 C 1033 600.66666666667 970.66666666667 616.66666666667 900 624 L 900 475 C 900 380.33333333333 882 296 846 222 C 809.33333333333 147.33333333333 757 89.33333333333 689 48 C 621 6 539.66666666667 -15 445 -15 C 338.33333333333 -15 251 16.66666666667 183 80 C 114.33333333333 142.66666666667 80 225.66666666667 80 329 C 80 459.66666666667 138.66666666667 564.66666666667 256 644 C 372.66666666667 723.33333333333 532.66666666667 767.33333333333 736 776 L 736 1032 L 95 1032 L 145 1180 L 900 1180 L 900 772 C 1048.66666666667 759.33333333333 1162 718 1240 648 C 1317.33333333333 578 1356 483 1356 363 C 1356 271.66666666667 1331.66666666667 194 1283 130 C 1234.33333333333 65.33333333333 1164 17 1072 -15 L 1037 74 Z M 182 329 C 182 293 192.33333333333 260 213 230 C 233 199.33333333333 262.33333333333 175.66666666667 301 159 C 339.66666666667 141.66666666667 385.66666666667 133 439 133 C 497.66666666667 133 549.66666666667 145.33333333333 595 170 C 639.66666666667 194 674.33333333333 229.33333333333 699 276 C 723.66666666667 322 736 378 736 444 L 736 628 C 555.33333333333 621.33333333333 418 592 324 540 C 229.33333333333 487.33333333333 182 417 182 329 Z"/>
    <path fill="#000000" stroke="none" transform="matrix(1 0 0 -1 1416 2689)" d="M 614 546 C 464 358.66666666667 354.66666666667 190 286 40 L 68 -10 C 143.33333333333 149.33333333333 254.33333333333 317.66666666667 401 495 C 547 672.33333333333 725 851.33333333333 935 1032 L 60 1032 L 110 1180 L 1164 1180 L 1149 1110 C 982.33333333333 961.33333333333 828.66666666667 803.66666666667 688 637 L 1201 20 L 1082 -10 L 614 546 Z"/>
    <path fill="#000000" stroke="none" transform="matrix(1 0 0 -1 2697 2689)" d="M 1120 -10 L 1120 420 C 1066.66666666667 361.33333333333 1014.66666666667 319.33333333333 964 294 C 912.66666666667 268.66666666667 859 256 803 256 C 725.66666666667 256 660 272.66666666667 606 306 C 550.66666666667 272.66666666667 486.33333333333 256 413 256 C 300.33333333333 256 213.33333333333 288.33333333333 152 353 C 90.66666666667 417.66666666667 60 507.66666666667 60 623 C 60 713.66666666667 84.66666666667 803 134 891 C 183.33333333333 978.33333333333 248.66666666667 1050.66666666667 330 1108 C 410.66666666667 1164.66666666667 490.66666666667 1193 570 1193 C 663.33333333333 1193 736.33333333333 1173.33333333333 789 1134 C 841.66666666667 1094.66666666667 868 1036.66666666667 868 960 C 868 934 859.33333333333 905 842 873 C 824 840.33333333333 797 802 761 758 C 689.66666666667 671.33333333333 654 603 654 553 C 654 506.33333333333 670.66666666667 470 704 444 C 736.66666666667 417.33333333333 780.66666666667 404 836 404 C 883.33333333333 404 932 415.33333333333 982 438 C 1031.33333333333 460.66666666667 1077.33333333333 492.33333333333 1120 533 L 1120 1140 L 1284 1190 L 1284 40 L 1120 -10 Z M 446 404 C 469.33333333333 404 491 406 511 410 C 494.33333333333 445.33333333333 486 485.33333333333 486 530 C 486 557.33333333333 495 587 513 619 C 531 650.33333333333 557.66666666667 686 593 726 C 629 766 656 802 674 834 C 691.33333333333 866 700 895.66666666667 700 923 C 700 961 684.66666666667 990.66666666667 654 1012 C 623.33333333333 1032.66666666667 580.66666666667 1043 526 1043 C 428 1043 349 1009.66666666667 289 943 C 228.33333333333 876.33333333333 198 790.66666666667 198 686 C 198 592.66666666667 219.33333333333 522.33333333333 262 475 C 304.66666666667 427.66666666667 366 404 446 404 Z"/>
    <path fill="#000000" stroke="none" transform="matrix(1 0 0 -1 4131 2689)" d="M 1154 1180 L 1139 1110 C 1001 980 855 824.33333333333 701 643 C 546.33333333333 461 420.33333333333 296 323 148 L 1159 148 L 1109 0 L 88 0 L 123 147 C 257 327 385.33333333333 484.33333333333 508 619 C 630.66666666667 753.66666666667 769.66666666667 891.33333333333 925 1032 L 80 1032 L 130 1180 L 1154 1180 Z"/>
    <path fill="#000000" stroke="none" transform="matrix(1 0 0 -1 5370 2689)" d="M 680 834 C 758 834 830.33333333333 819.33333333333 897 790 C 963.66666666667 760.66666666667 1016 720.33333333333 1054 669 C 1091.33333333333 617 1110 559.33333333333 1110 496 C 1110 436 1097 376.66666666667 1071 318 C 1045 259.33333333333 1007.66666666667 206 959 158 C 1028.33333333333 112 1094 82.66666666667 1156 70 L 1118 -15 C 1040.66666666667 7.66666666667 960.33333333333 43 877 91 C 771.66666666667 20.33333333333 648.66666666667 -15 508 -15 C 380.66666666667 -15 277.66666666667 11.66666666667 199 65 C 119.66666666667 118.33333333333 80 189.33333333333 80 278 C 80 350.66666666667 106 410.33333333333 158 457 C 209.33333333333 503.66666666667 272.33333333333 527 347 527 C 410.33333333333 527 473.33333333333 512 536 482 C 598.66666666667 452 665.66666666667 405 737 341 L 852 241 C 912 301 942 380.33333333333 942 479 C 942 530.33333333333 929 576 903 616 C 877 655.33333333333 839.33333333333 686.33333333333 790 709 C 740.66666666667 731.66666666667 679.66666666667 743 607 743 L 486 737 L 496 797 L 756 1032 L 105 1032 L 155 1180 L 984 1180 L 969 1110 L 680 834 Z M 530 133 C 614 133 686.33333333333 146.33333333333 747 173 L 636 250 C 574 293.33333333333 518.33333333333 325.66666666667 469 347 C 419.66666666667 368.33333333333 373.33333333333 379 330 379 C 284.66666666667 379 248.66666666667 369.66666666667 222 351 C 195.33333333333 332.33333333333 182 308 182 278 C 182 234 214.33333333333 199 279 173 C 343 146.33333333333 426.66666666667 133 530 133 Z"/>
    <path fill="#000000" stroke="none" transform="matrix(1 0 0 -1 6606 2689)" d="M 370 1032 L 50 1032 L 100 1180 L 532 1180 L 514 1115 L 299 733 L 318 734 C 428 734 526 725.66666666667 612 709 C 720.66666666667 805.66666666667 805 890 865 962 C 925 1033.33333333333 974.66666666667 1106 1014 1180 L 1138 1180 C 1099.33333333333 1097.33333333333 1049 1016 987 936 C 924.33333333333 856 841 769.66666666667 737 677 C 827 646.33333333333 896.66666666667 602.33333333333 946 545 C 995.33333333333 487 1020 417.66666666667 1020 337 C 1020 271 1004 211.33333333333 972 158 C 939.33333333333 104.66666666667 893 62.66666666667 833 32 C 773 0.66666666667 702.33333333333 -15 621 -15 C 499 -15 407 8.66666666667 345 56 C 282.33333333333 103.33333333333 251 171.33333333333 251 260 C 251 304 265 349 293 395 C 321 441 376 501.33333333333 458 576 C 398 582.66666666667 328.66666666667 586 250 586 C 210 586 172.66666666667 582.66666666667 138 576 L 150 639 L 370 1032 Z M 852 337 C 852 389 829.66666666667 433.33333333333 785 470 C 739.66666666667 506.66666666667 675 534.66666666667 591 554 C 506.33333333333 482.66666666667 450.66666666667 428.66666666667 424 392 C 396.66666666667 354.66666666667 383 319.66666666667 383 287 C 383 241 403.33333333333 204 444 176 C 484 147.33333333333 538 133 606 133 C 682 133 742 151.33333333333 786 188 C 830 224 852 273.66666666667 852 337 Z"/>
    <path fill="#000000" stroke="none" transform="matrix(1 0 0 -1 8356 2689)" d="M 1112 1195 C 1219.33333333333 1145 1302.66666666667 1066 1362 958 C 1420.66666666667 849.33333333333 1450 721.33333333333 1450 574 C 1450 475.33333333333 1428.33333333333 379.33333333333 1385 286 C 1341.66666666667 192.66666666667 1286.33333333333 119.33333333333 1219 66 C 1151.66666666667 12 1084.33333333333 -15 1017 -15 C 956.33333333333 -15 900.66666666667 -3 850 21 C 798.66666666667 44.33333333333 757 80 725 128 C 642.33333333333 32.66666666667 550.33333333333 -15 449 -15 C 337 -15 247.66666666667 31.33333333333 181 124 C 113.66666666667 216 80 341.66666666667 80 501 C 80 635 115.66666666667 765.33333333333 187 892 C 258.33333333333 1018 351.33333333333 1117.33333333333 466 1190 L 509 1131 C 460.33333333333 1096.33333333333 416.33333333333 1048.66666666667 377 988 C 337 926.66666666667 305.66666666667 857.33333333333 283 780 C 259.66666666667 702 248 620 248 534 C 248 449.33333333333 257.66666666667 377 277 317 C 296.33333333333 256.33333333333 323.66666666667 210.66666666667 359 180 C 394.33333333333 148.66666666667 434.33333333333 133 479 133 C 557.66666666667 133 624.66666666667 164 680 226 C 669.33333333333 264.66666666667 664 306.33333333333 664 351 L 664 460 L 828 510 L 828 379 C 828 323 837.66666666667 277.33333333333 857 242 C 876.33333333333 206.66666666667 901 179.66666666667 931 161 C 961 142.33333333333 995.66666666667 133 1035 133 C 1115.66666666667 133 1177 164.33333333333 1219 227 C 1261 289 1282 380 1282 500 C 1282 652 1259.66666666667 772.33333333333 1215 861 C 1170.33333333333 949.66666666667 1104 1017 1016 1063 L 1112 1195 Z"/>
    <path fill="#000000" stroke="none" transform="matrix(1 0 0 -1 9886 2689)" d="M 1091 1032 L 672 1032 C 530.66666666667 982.66666666667 421.33333333333 910.66666666667 344 816 C 266.66666666667 721.33333333333 228 611.66666666667 228 487 C 228 419 243.66666666667 358.66666666667 275 306 C 306.33333333333 253.33333333333 353.66666666667 211.33333333333 417 180 C 480.33333333333 148.66666666667 549.33333333333 133 624 133 C 728.66666666667 133 818.33333333333 150.33333333333 893 185 C 842.33333333333 197.66666666667 801.33333333333 226.66666666667 770 272 C 738 316.66666666667 722 365 722 417 C 722 478.33333333333 743.33333333333 529.33333333333 786 570 C 828.66666666667 610 882 630 946 630 C 1008.66666666667 630 1063.33333333333 608 1110 564 C 1156.66666666667 519.33333333333 1180 465.66666666667 1180 403 C 1180 327 1156.33333333333 257.66666666667 1109 195 C 1061.66666666667 131.66666666667 993.66666666667 81 905 43 C 816.33333333333 4.33333333333 723.66666666667 -15 627 -15 C 448.33333333333 -15 309.33333333333 28.33333333333 210 115 C 110 201 60 322.33333333333 60 479 C 60 553 78.33333333333 625 115 695 C 151.66666666667 764.33333333333 202.66666666667 828.33333333333 268 887 C 332.66666666667 945 406.33333333333 993.33333333333 489 1032 L 60 1032 L 110 1180 L 1141 1180 L 1091 1032 Z M 829 427 C 829 393.66666666667 838.66666666667 366.66666666667 858 346 C 876.66666666667 325.33333333333 902.66666666667 315 936 315 C 964.66666666667 315 988 324.66666666667 1006 344 C 1024 363.33333333333 1033 388.33333333333 1033 419 C 1033 447 1024 471.33333333333 1006 492 C 988 512.66666666667 963.66666666667 523 933 523 C 903 523 878.33333333333 513.66666666667 859 495 C 839 476.33333333333 829 453.66666666667 829 427 Z"/>
    <path fill="#000000" stroke="none" transform="matrix(1 0 0 -1 11146 2689)" d="M 753 -10 L 753 560 C 713 489.33333333333 665 436 609 400 C 553 364 490.66666666667 346 422 346 C 357.33333333333 346 299 360.66666666667 247 390 C 194.33333333333 419.33333333333 153.33333333333 461.66666666667 124 517 C 94.66666666667 571.66666666667 80 636.33333333333 80 711 C 80 768.33333333333 92.66666666667 824.66666666667 118 880 C 142.66666666667 935.33333333333 178.66666666667 986.66666666667 226 1034 C 272.66666666667 1080.66666666667 325.33333333333 1119.33333333333 384 1150 C 442 1180 491.66666666667 1195 533 1195 C 617.66666666667 1195 696 1172 768 1126 L 917 1190 L 917 40 L 753 -10 Z M 470 494 C 558 494 627 521.33333333333 677 576 C 727 630.66666666667 752 707 752 805 L 752 915 L 751 912 C 721 948 694 974.33333333333 670 991 C 645.33333333333 1007.66666666667 616.66666666667 1021.33333333333 584 1032 C 551.33333333333 1042 513 1047 469 1047 C 399.66666666667 1047 345.66666666667 1021.66666666667 307 971 C 267.66666666667 919.66666666667 248 846.66666666667 248 752 C 248 671.33333333333 267.66666666667 608.33333333333 307 563 C 346.33333333333 517 400.66666666667 494 470 494 Z"/>
    <path fill="#000000" stroke="none" transform="matrix(1 0 0 -1 12213 2689)" d="M 1154 1180 L 1139 1110 C 1004.33333333333 983.33333333333 867.33333333333 838.33333333333 728 675 L 1094 675 L 1044 568 L 638 568 C 509.33333333333 411.33333333333 404.33333333333 271.33333333333 323 148 L 1159 148 L 1109 0 L 88 0 L 123 147 C 257 327 385.33333333333 484.33333333333 508 619 C 630.66666666667 753.66666666667 769.66666666667 891.33333333333 925 1032 L 80 1032 L 130 1180 L 1154 1180 Z"/>
    <path fill="#000000" stroke="none" transform="matrix(1 0 0 -1 13452 2689)" d="M 1143 1180 L 1143 40 L 979 -10 L 979 1032 L 773 1032 C 797.66666666667 998 810 937.66666666667 810 851 C 810 761 793.33333333333 677.33333333333 760 600 C 726.66666666667 522 680 460.33333333333 620 415 C 559.33333333333 369 491 346 415 346 C 349 346 290.66666666667 359.66666666667 240 387 C 189.33333333333 414.33333333333 150 454.33333333333 122 507 C 94 559 80 623.33333333333 80 700 C 80 768.66666666667 100 842 140 920 C 180 997.33333333333 230 1060 290 1108 C 349.33333333333 1156 408.33333333333 1180 467 1180 L 1143 1180 Z M 600 1032 L 412 1032 C 361.33333333333 1032 321.33333333333 1006.33333333333 292 955 C 262.66666666667 903 248 830.66666666667 248 738 C 248 687.33333333333 256.33333333333 644.33333333333 273 609 C 289 573 311.66666666667 545 341 525 C 369.66666666667 504.33333333333 400.66666666667 494 434 494 C 505.33333333333 494 560.66666666667 520.66666666667 600 574 C 638.66666666667 627.33333333333 658 702.66666666667 658 800 C 658 841.33333333333 652.66666666667 885.66666666667 642 933 C 630.66666666667 979.66666666667 616.66666666667 1012.66666666667 600 1032 Z"/>
    <path fill="#000000" stroke="none" transform="matrix(1 0 0 -1 14745 2689)" d="M 1193 40 L 1029 -10 L 1029 1033 C 965.66666666667 995.66666666667 893 963.66666666667 811 937 C 729 910.33333333333 657 897 595 897 C 525 897 461.66666666667 905 405 921 C 348.33333333333 936.33333333333 287.33333333333 966 222 1010 L 218 940 C 218 828 247.33333333333 741.66666666667 306 681 C 364.66666666667 619.66666666667 449 589 559 589 C 629 589 697.66666666667 599 765 619 C 831.66666666667 638.33333333333 885.33333333333 663.33333333333 926 694 L 972 634 C 908.66666666667 576 834.66666666667 529.33333333333 750 494 C 664.66666666667 458.66666666667 584 441 508 441 C 421.33333333333 441 343 459.66666666667 273 497 C 202.33333333333 534.33333333333 147.66666666667 587 109 655 C 69.66666666667 723 50 804 50 898 C 50 976 61.66666666667 1044 85 1102 L 216 1190 C 263.33333333333 1144 320 1108.33333333333 386 1083 C 452 1057.66666666667 521.66666666667 1045 595 1045 C 701.66666666667 1045 808 1059.33333333333 914 1088 C 1019.33333333333 1116 1105.33333333333 1151.66666666667 1172 1195 L 1193 1190 L 1193 40 Z"/>
    <path fill="#000000" stroke="none" transform="matrix(1 0 0 -1 16620 2689)" d="M 441 141 C 477.66666666667 141 510.66666666667 155 540 183 C 568.66666666667 211 596 250 622 300 C 648 349.33333333333 686 446.66666666667 736 592 C 698.66666666667 734 667 832.33333333333 641 887 C 614.33333333333 941.66666666667 584 983.66666666667 550 1013 C 515.33333333333 1042.33333333333 473.33333333333 1057 424 1057 C 320.66666666667 1057 257 985 233 841 L 119 871 C 147.66666666667 965.66666666667 197.66666666667 1043.33333333333 269 1104 C 340.33333333333 1164.66666666667 417 1195 499 1195 C 573.66666666667 1195 638.33333333333 1168 693 1114 C 747.66666666667 1060 795.33333333333 973.66666666667 836 855 C 887.33333333333 971 944.33333333333 1056.66666666667 1007 1112 C 1069.66666666667 1167.33333333333 1140.66666666667 1195 1220 1195 C 1337.33333333333 1195 1426.66666666667 1148 1488 1054 C 1549.33333333333 959.33333333333 1580 820 1580 636 C 1580 534 1560 430.66666666667 1520 326 C 1479.33333333333 221.33333333333 1427.66666666667 138.33333333333 1365 77 C 1301.66666666667 15.66666666667 1235.33333333333 -15 1166 -15 C 1105.33333333333 -15 1052.33333333333 -0.33333333333 1007 29 C 961 58.33333333333 921 100.66666666667 887 156 C 853 211.33333333333 819.66666666667 293.66666666667 787 403 C 734.33333333333 250.33333333333 678.66666666667 142.66666666667 620 80 C 561.33333333333 16.66666666667 494 -15 418 -15 C 312 -15 229.66666666667 29 171 117 C 111.66666666667 204.33333333333 81.33333333333 324 80 476 L 250 452 C 256 370.66666666667 266 309.66666666667 280 269 C 294 227.66666666667 314 196 340 174 C 366 152 399.66666666667 141 441 141 Z M 884 695 L 902 628 C 940 484 972.33333333333 381.66666666667 999 321 C 1025.66666666667 260.33333333333 1056 214 1090 182 C 1123.33333333333 149.33333333333 1163 133 1209 133 C 1277 133 1328 168.33333333333 1362 239 C 1395.33333333333 309 1412 421 1412 575 C 1412 676.33333333333 1402 762 1382 832 C 1361.33333333333 902 1333.33333333333 955.33333333333 1298 992 C 1262.66666666667 1028.66666666667 1222.66666666667 1047 1178 1047 C 1118.66666666667 1047 1066 1020.33333333333 1020 967 C 973.33333333333 913 928 822.33333333333 884 695 Z"/>
    <path fill="#000000" stroke="none" transform="matrix(1 0 0 -1 18280 2689)" d="M 1069 -10 L 1069 1032 L 50 1032 L 100 1180 L 1233 1180 L 1233 40 L 1069 -10 Z M 150 889 L 416 889 C 523.33333333333 889 610.66666666667 880 678 862 C 745.33333333333 843.33333333333 798 818.66666666667 836 788 C 874 757.33333333333 900 721.66666666667 914 681 C 928 640.33333333333 935 597.66666666667 935 553 C 935 491 924 437.33333333333 902 392 C 880 346 851 308 815 278 C 778.33333333333 248 736.66666666667 225.66666666667 690 211 C 643.33333333333 196.33333333333 595.66666666667 189 547 189 C 511.66666666667 189 478.66666666667 194.66666666667 448 206 C 417.33333333333 217.33333333333 390.66666666667 233.33333333333 368 254 C 344.66666666667 274 326.66666666667 298.33333333333 314 327 C 300.66666666667 355 294 386 294 420 C 294 444.66666666667 298.33333333333 467.33333333333 307 488 C 315.66666666667 508 327 525 341 539 C 355 553 371 564 389 572 C 407 579.33333333333 425.33333333333 583 444 583 C 463.33333333333 583 481.66666666667 579.66666666667 499 573 C 515.66666666667 565.66666666667 530.33333333333 556 543 544 C 555 531.33333333333 564.66666666667 516.66666666667 572 500 C 579.33333333333 482.66666666667 583 464 583 444 C 583 422.66666666667 579.66666666667 404.33333333333 573 389 C 566.33333333333 373.66666666667 558 360.66666666667 548 350 C 537.33333333333 339.33333333333 525.66666666667 331 513 325 C 500.33333333333 318.33333333333 488.33333333333 313.66666666667 477 311 C 483.66666666667 305 491.33333333333 299.66666666667 500 295 C 508 289.66666666667 522.33333333333 287 543 287 C 587 287 623.66666666667 294.33333333333 653 309 C 681.66666666667 323 704.66666666667 341.33333333333 722 364 C 738.66666666667 386.66666666667 750.33333333333 411.66666666667 757 439 C 763.66666666667 465.66666666667 767 492 767 518 C 767 563.33333333333 760 600.66666666667 746 630 C 732 658.66666666667 709 681.33333333333 677 698 C 645 714 603.33333333333 725.33333333333 552 732 C 500 738 436.33333333333 741 361 741 L 100 741 L 150 889 Z"/>
    <path fill="#000000" stroke="none" transform="matrix(1 0 0 -1 19663 2689)" d="M 371 1032 C 345 1004.66666666667 326.33333333333 978.33333333333 315 953 C 303.66666666667 927.66666666667 298 897 298 861 C 298 815 316 778 352 750 C 387.33333333333 722 437 708 501 708 C 545.66666666667 708 589 711.33333333333 631 718 C 673 724.66666666667 706.66666666667 733.33333333333 732 744 L 766 685 C 718.66666666667 649 668 621 614 601 C 559.33333333333 580.33333333333 509 567.33333333333 463 562 C 353 497.33333333333 298 421.66666666667 298 335 C 298 269.66666666667 319.33333333333 219.66666666667 362 185 C 404 150.33333333333 466.66666666667 133 550 133 C 646 133 723 147 781 175 C 838.33333333333 203 879.33333333333 245.66666666667 904 303 C 928 359.66666666667 946.33333333333 446.66666666667 959 564 C 973.66666666667 700 1003 812 1047 900 C 1091 987.33333333333 1158 1080.66666666667 1248 1180 L 1312 1124 C 1253.33333333333 1058 1208.33333333333 987.66666666667 1177 913 C 1145 837.66666666667 1125 752.66666666667 1117 658 C 1095 432 1031.66666666667 263.33333333333 927 152 C 821.66666666667 40.66666666667 679.66666666667 -15 501 -15 C 392.33333333333 -15 303.33333333333 13.33333333333 234 70 C 164.66666666667 126 130 199.33333333333 130 290 C 130 336.66666666667 148.33333333333 385.33333333333 185 436 C 221 486.66666666667 270 532 332 572 C 273.33333333333 587.33333333333 225 615.66666666667 187 657 C 149 698.33333333333 130 745.66666666667 130 799 C 130 875 172.66666666667 952.66666666667 258 1032 L 50 1032 L 100 1180 L 830 1180 L 780 1032 L 371 1032 Z"/>
    <path fill="#000000" stroke="none" transform="matrix(1 0 0 -1 21055 2689)" d="M 50 1032 L 100 1180 L 1083 1180 L 1083 40 L 919 -10 L 919 517 C 799.66666666667 393.66666666667 669.66666666667 332 529 332 C 317.66666666667 332 212 457.33333333333 212 708 L 212 1032 L 50 1032 Z M 919 1032 L 376 1032 L 376 750 C 376 682 384 629 400 591 C 415.33333333333 552.33333333333 436.66666666667 524.33333333333 464 507 C 490.66666666667 489 533.66666666667 480 593 480 C 725.66666666667 480 834.33333333333 529 919 627 L 919 1032 Z"/>
    <path fill="#000000" stroke="none" transform="matrix(1 0 0 -1 22288 2689)" d="M 1276 1180 L 1261 1110 L 896 763 C 1042 763 1163 733 1259 673 C 1354.33333333333 612.33333333333 1402 528.66666666667 1402 422 C 1402 334.66666666667 1381 258 1339 192 C 1296.33333333333 126 1234 75 1152 39 C 1070 3 972.66666666667 -15 860 -15 C 712.66666666667 -15 579 23.66666666667 459 101 C 339 177.66666666667 246 285 180 423 C 113.33333333333 560.33333333333 80 714.66666666667 80 886 C 80 966.66666666667 85 1034 95 1088 L 194 1058 C 189.33333333333 1034.66666666667 186.33333333333 1013.33333333333 185 994 C 183 974 182 941.33333333333 182 896 C 182 748 210.33333333333 617 267 503 C 323 388.33333333333 402.33333333333 298 505 232 C 607.66666666667 166 716.66666666667 133 832 133 C 1100 133 1234 229.33333333333 1234 422 C 1234 500.66666666667 1199.66666666667 560.66666666667 1131 602 C 1061.66666666667 643.33333333333 959 664 823 664 L 783 661 L 718 658 L 728 726 L 1048 1032 L 347 1032 L 397 1180 L 1276 1180 Z M 1347 948 C 1347 1019.33333333333 1371 1078.33333333333 1419 1125 C 1467 1171.66666666667 1528.33333333333 1195 1603 1195 C 1673 1195 1729.66666666667 1174 1773 1132 C 1816.33333333333 1090 1838 1033.33333333333 1838 962 C 1838 885.33333333333 1816.33333333333 823.33333333333 1773 776 C 1729 728 1670.66666666667 704 1598 704 C 1526.66666666667 704 1467 727.33333333333 1419 774 C 1371 820.66666666667 1347 878.66666666667 1347 948 Z M 1477 953 C 1477 915 1489 884.66666666667 1513 862 C 1537 838.66666666667 1568.33333333333 827 1607 827 C 1648.33333333333 827 1680 840.33333333333 1702 867 C 1723.33333333333 893 1734 928.33333333333 1734 973 C 1734 1013.66666666667 1722 1044.66666666667 1698 1066 C 1674 1086.66666666667 1644.66666666667 1097 1610 1097 C 1567.33333333333 1097 1534.66666666667 1084.66666666667 1512 1060 C 1488.66666666667 1034.66666666667 1477 999 1477 953 Z"/>
    <path fill="#000000" stroke="none" transform="matrix(1 0 0 -1 24186 2689)" d="M 1067 1032 L 656 1032 L 318 662 L 719 662 L 283 184 C 339 214 403.66666666667 237 477 253 C 549.66666666667 268.33333333333 620.33333333333 276 689 276 C 760.33333333333 276 830 268 898 252 C 966 235.33333333333 1022.33333333333 212.33333333333 1067 183 L 1067 1032 Z M 1231 70 L 1077 0 C 1033 44 979 76.33333333333 915 97 C 851 117.66666666667 769.33333333333 128 670 128 C 587.33333333333 128 497.33333333333 118 400 98 C 302 78 178.33333333333 42.33333333333 29 -9 L 10 31 L 489 555 L 97 555 L 521 1032 L 50 1032 L 100 1180 L 1231 1180 L 1231 70 Z"/>
    <path fill="#000000" stroke="none" transform="matrix(1 0 0 -1 26099 2689)" d="M 1121 467 C 1017.66666666667 535.66666666667 866 570 666 570 L 545 564 L 567 672 L 962 1032 L 536 1032 C 487.33333333333 1021.33333333333 441 994 397 950 C 352.33333333333 906 317 850.66666666667 291 784 C 265 717.33333333333 252 645 252 567 C 252 435 291.66666666667 329.66666666667 371 251 C 449.66666666667 172.33333333333 556.33333333333 133 691 133 C 805 133 903.33333333333 150.33333333333 986 185 C 1068 219.66666666667 1150 275 1232 351 L 1289 299 C 1247.66666666667 241 1193.66666666667 186.66666666667 1127 136 C 1059.66666666667 85.33333333333 989.66666666667 47.66666666667 917 23 C 843.66666666667 -2.33333333333 769.33333333333 -15 694 -15 C 502.66666666667 -15 352.66666666667 35 244 135 C 134.66666666667 234.33333333333 80 372.33333333333 80 549 C 80 645.66666666667 107.33333333333 740.66666666667 162 834 C 216 926.66666666667 289.66666666667 1003.66666666667 383 1065 C 475.66666666667 1125.66666666667 577.33333333333 1164 688 1180 L 1190 1180 L 1175 1110 L 751 709 C 819.66666666667 709 899 699.66666666667 989 681 C 1079 661.66666666667 1147.33333333333 639.33333333333 1194 614 L 1121 467 Z"/>
    <path fill="#000000" stroke="none" transform="matrix(1 0 0 -1 27448 2689)" d="M 457 654 L 488 920 C 285.33333333333 934 136 974.66666666667 40 1042 L 40 1190 C 108 1149.33333333333 190.66666666667 1118.33333333333 288 1097 C 385.33333333333 1075.66666666667 491.66666666667 1065 607 1065 C 737.66666666667 1065 855 1076 959 1098 C 1062.33333333333 1120 1142 1150.66666666667 1198 1190 L 1198 1042 C 1148 1002.66666666667 1069.33333333333 972 962 950 C 854.66666666667 928 736.33333333333 917 607 917 L 591 917 L 573 743 C 589.66666666667 748.33333333333 615 753.33333333333 649 758 C 682.33333333333 762.66666666667 711.66666666667 765 737 765 C 881 765 994.33333333333 733.33333333333 1077 670 C 1159 606 1200 517 1200 403 C 1200 279 1150 178.33333333333 1050 101 C 950 23.66666666667 816.66666666667 -15 650 -15 C 574 -15 499 -2.33333333333 425 23 C 350.33333333333 48.33333333333 278 87 208 139 C 138 190.33333333333 83.66666666667 243.66666666667 45 299 L 102 351 C 182.66666666667 276.33333333333 265.33333333333 221.33333333333 350 186 C 434.66666666667 150.66666666667 535.66666666667 133 653 133 C 774.33333333333 133 867.33333333333 157.66666666667 932 207 C 996 256.33333333333 1028 327.33333333333 1028 420 C 1028 468 1015.33333333333 510.66666666667 990 548 C 964.66666666667 585.33333333333 928.33333333333 614.66666666667 881 636 C 833.66666666667 656.66666666667 776.33333333333 667 709 667 C 610.33333333333 667 532.66666666667 656 476 634 L 457 654 Z"/>
    <path fill="#000000" stroke="none" transform="matrix(1 0 0 -1 28728 2689)" d="M 100 1180 L 206 1180 C 385.33333333333 1180 527.33333333333 1136 632 1048 C 736 959.33333333333 788 836.33333333333 788 679 C 788 577 765.66666666667 480.33333333333 721 389 C 675.66666666667 297 614.33333333333 223.66666666667 537 169 C 459.66666666667 114.33333333333 375.33333333333 87 284 87 C 221.33333333333 87 168.33333333333 108.33333333333 125 151 C 81.66666666667 193 60 246.66666666667 60 312 C 60 373.33333333333 83.33333333333 426.33333333333 130 471 C 176.66666666667 515.66666666667 231.33333333333 538 294 538 C 358.66666666667 538 412 518 454 478 C 495.33333333333 438 516 387.33333333333 516 326 L 512 284 C 546 317.33333333333 572.66666666667 361.33333333333 592 416 C 610.66666666667 470 620 539.66666666667 620 625 C 620 896.33333333333 476.66666666667 1032 190 1032 L 50 1032 L 100 1180 Z M 971 -10 L 971 1140 L 1135 1190 L 1135 40 L 971 -10 Z M 207 328 C 207 296 216 270.66666666667 234 252 C 251.33333333333 233.33333333333 276.66666666667 224 310 224 C 336.66666666667 224 360 233.66666666667 380 253 C 399.33333333333 271.66666666667 409 296.33333333333 409 327 C 409 360.33333333333 399 386 379 404 C 359 422 335 431 307 431 C 277.66666666667 431 253.66666666667 420.66666666667 235 400 C 216.33333333333 379.33333333333 207 355.33333333333 207 328 Z"/>
    <path fill="#000000" stroke="none" transform="matrix(1 0 0 -1 30013 2689)" d="M 1375 168 C 1334.33333333333 113.33333333333 1302 75.33333333333 1278 54 C 1253.33333333333 32.66666666667 1226.66666666667 16 1198 4 C 1169.33333333333 -8.66666666667 1136.66666666667 -15 1100 -15 C 1042.66666666667 -15 993 3.66666666667 951 41 C 908.33333333333 77.66666666667 875.66666666667 127.33333333333 853 190 C 795 122 732.66666666667 71 666 37 C 599.33333333333 2.33333333333 532.33333333333 -15 465 -15 C 347.66666666667 -15 254.33333333333 28 185 114 C 115 199.33333333333 80 318.66666666667 80 472 C 80 719.33333333333 190.66666666667 955.33333333333 412 1180 L 1314 1180 L 1264 1032 C 1190.66666666667 957.33333333333 1136.33333333333 891 1101 833 C 1065.66666666667 775 1038.33333333333 712 1019 644 C 999.66666666667 576 990 500 990 416 C 990 325.33333333333 1005.66666666667 255.66666666667 1037 207 C 1068.33333333333 157.66666666667 1114.33333333333 133 1175 133 C 1211 133 1240 139.66666666667 1262 153 C 1284 166.33333333333 1306.66666666667 186.33333333333 1330 213 L 1375 168 Z M 248 514 C 248 260 337.33333333333 133 516 133 C 636.66666666667 133 741.33333333333 182.33333333333 830 281 C 824.66666666667 315.66666666667 822 351.33333333333 822 388 C 822 491.33333333333 852 601.66666666667 912 719 C 972 835.66666666667 1053 940 1155 1032 L 421 1032 C 369 964 327.33333333333 884 296 792 C 264 700 248 607.33333333333 248 514 Z"/>
    <path fill="#000000" stroke="none" transform="matrix(1 0 0 -1 31448 2689)" d="M 52 1032 L 102 1180 L 1175 1180 L 1175 70 L 1021 0 C 882.33333333333 109.33333333333 735 189 579 239 C 422.33333333333 289 252.33333333333 314 69 314 L 50 378 L 753 1032 L 52 1032 Z M 1011 163 L 1011 1032 L 914 1032 L 299 463 C 425 453 551 422 677 370 C 802.33333333333 317.33333333333 913.66666666667 248.33333333333 1011 163 Z"/>
    <path fill="#000000" stroke="none" transform="matrix(1 0 0 -1 32773 2689)" d="M 539 1190 L 539 686 C 539 614.66666666667 557 560 593 522 C 628.33333333333 484 678.33333333333 465 743 465 C 856.33333333333 465 954.66666666667 494 1038 552 L 1038 1140 L 1203 1190 L 1203 40 L 1038 -10 L 1038 466 C 1004.66666666667 442 954.66666666667 419.66666666667 888 399 C 820.66666666667 377.66666666667 755.66666666667 367 693 367 C 587.66666666667 367 507.66666666667 393 453 445 C 398.33333333333 496.33333333333 371 569.66666666667 371 665 L 371 940 L 34 323 L 0 447 L 371 1140 L 539 1190 Z"/>
    <path fill="#000000" stroke="none" transform="matrix(1 0 0 -1 34658 2689)" d="M 1500 677 C 1481.33333333333 570.33333333333 1431.33333333333 458.33333333333 1350 341 C 1414 251 1468 154.33333333333 1512 51 L 1419 -5 C 1376.33333333333 82.33333333333 1327.66666666667 163.33333333333 1273 238 C 1199.66666666667 147.33333333333 1119.66666666667 66.33333333333 1033 -5 L 967 60 C 1045 126.66666666667 1121.33333333333 218.33333333333 1196 335 C 1102.66666666667 441 1004 521 900 575 L 900 475 C 900 380.33333333333 882 296 846 222 C 809.33333333333 147.33333333333 757 89.33333333333 689 48 C 621 6 539.66666666667 -15 445 -15 C 339.66666666667 -15 252.66666666667 18.66666666667 184 86 C 114.66666666667 152.66666666667 80 238.33333333333 80 343 C 80 435 101.33333333333 515.66666666667 144 585 C 186.66666666667 654.33333333333 248.66666666667 708.66666666667 330 748 C 411.33333333333 787.33333333333 502.33333333333 807 603 807 C 647.66666666667 807 692 802 736 792 L 736 1032 L 95 1032 L 145 1180 L 1290 1180 L 1240 1032 L 900 1032 L 900 736 C 1030.66666666667 673.33333333333 1151.66666666667 578.66666666667 1263 452 C 1314.33333333333 552 1348.33333333333 644 1365 728 L 1500 677 Z M 439 133 C 497.66666666667 133 549.66666666667 145.33333333333 595 170 C 639.66666666667 194 674.33333333333 229.33333333333 699 276 C 723.66666666667 322 736 378 736 444 L 736 639 C 684 652.33333333333 632.33333333333 659 581 659 C 454.33333333333 659 356.33333333333 632.33333333333 287 579 C 217 525.66666666667 182 452.33333333333 182 359 C 182 287.66666666667 205 232.33333333333 251 193 C 296.33333333333 153 359 133 439 133 Z"/>
    <path fill="#000000" stroke="none" transform="matrix(1 0 0 -1 36250 2689)" d="M 649 1032 C 518.33333333333 964 419 883.33333333333 351 790 L 877 790 L 872 749 L 710 541 L 999 541 L 914 393 L 502 393 L 507 434 L 669 642 L 276 642 C 260 592.66666666667 252 538.66666666667 252 480 C 252 370 284.66666666667 284.66666666667 350 224 C 415.33333333333 163.33333333333 507.66666666667 133 627 133 C 743.66666666667 133 844.66666666667 150.66666666667 930 186 C 1014.66666666667 220.66666666667 1097.33333333333 275.66666666667 1178 351 L 1235 299 C 1195 242.33333333333 1140.33333333333 188.66666666667 1071 138 C 1001.66666666667 87.33333333333 930 49.33333333333 856 24 C 782 -2 706.66666666667 -15 630 -15 C 515.33333333333 -15 417 5 335 45 C 252.33333333333 84.33333333333 189.33333333333 140.33333333333 146 213 C 102 285.66666666667 80 369 80 463 C 80 573.66666666667 114 679.33333333333 182 780 C 250 880 346.33333333333 964 471 1032 L 80 1032 L 130 1180 L 1230 1180 L 1180 1032 L 649 1032 Z"/>
    <path fill="#000000" stroke="none" transform="matrix(1 0 0 -1 37545 2689)" d="M 83 965 C 209 1118.33333333333 366 1195 554 1195 C 683.33333333333 1195 785 1169 859 1117 C 932.33333333333 1064.33333333333 969 992.33333333333 969 901 C 969 810.33333333333 925.66666666667 735.66666666667 839 677 C 981.66666666667 619.66666666667 1053 523.66666666667 1053 389 C 1053 313 1030 244.33333333333 984 183 C 937.33333333333 121.66666666667 873.33333333333 73.33333333333 792 38 C 710 2.66666666667 621.66666666667 -15 527 -15 C 440.33333333333 -15 354 1 268 33 C 181.33333333333 65 112 106.66666666667 60 158 L 125 234 C 169.66666666667 187.33333333333 229.66666666667 150.66666666667 305 124 C 379.66666666667 96.66666666667 454.33333333333 83 529 83 C 594.33333333333 83 655 94.33333333333 711 117 C 766.33333333333 139.66666666667 809.33333333333 171.33333333333 840 212 C 870 252.66666666667 885 300 885 354 C 885 434 854.66666666667 491.33333333333 794 526 C 733.33333333333 560 628.33333333333 577 479 577 L 338 577 L 388 725 L 534 725 C 601.33333333333 725 661 720.33333333333 713 711 C 769 755 797 812.66666666667 797 884 C 797 937.33333333333 774 978 728 1006 C 682 1033.33333333333 618 1047 536 1047 C 370.66666666667 1047 237.33333333333 1001.33333333333 136 910 L 83 965 Z"/>
    <path fill="#000000" stroke="none" transform="matrix(1 0 0 -1 38678 2689)" d="M 1202 1032 L 927 1032 L 927 557 C 927 434.33333333333 910.33333333333 330 877 244 C 843.66666666667 158 797.33333333333 93.33333333333 738 50 C 678 6.66666666667 607 -15 525 -15 C 404.33333333333 -15 311.66666666667 24.66666666667 247 104 C 182.33333333333 183.33333333333 150 297.66666666667 150 447 L 150 1140 L 314 1190 L 314 434 C 314 315.33333333333 331 227.33333333333 365 170 C 399 112 452.33333333333 83 525 83 C 583.66666666667 83 629.66666666667 96.33333333333 663 123 C 695.66666666667 149.66666666667 720.66666666667 191.66666666667 738 249 C 754.66666666667 305.66666666667 763 380 763 472 L 763 1032 L 813 1180 L 1252 1180 L 1202 1032 Z"/>
    <path fill="#000000" stroke="none" transform="matrix(1 0 0 -1 39980 2689)" d="M 944 1032 L 563 1032 C 461.66666666667 1032 384 1015 330 981 C 275.33333333333 947 248 897 248 831 C 248 779 274 736.66666666667 326 704 C 378 670.66666666667 446.33333333333 654 531 654 C 607 654 681.33333333333 660.66666666667 754 674 C 826.66666666667 686.66666666667 883.66666666667 703 925 723 L 975 657 C 905.66666666667 615.66666666667 829 583 745 559 C 661 535 578.66666666667 523 498 523 C 468 523 432 524.66666666667 390 528 C 295.33333333333 479.33333333333 248 413.66666666667 248 331 C 248 199 372.33333333333 133 621 133 C 790.33333333333 133 933.33333333333 166 1050 232 L 1115 167 C 1043.66666666667 60.33333333333 936.33333333333 -38.66666666667 793 -130 C 649.66666666667 -221.33333333333 507.33333333333 -284.66666666667 366 -320 L 325 -240 C 399 -215.33333333333 483 -177.66666666667 577 -127 C 671 -76.33333333333 748 -27 808 21 C 722 -3 638.33333333333 -15 557 -15 C 398.33333333333 -15 279.33333333333 10 200 60 C 120 109.33333333333 80 185.66666666667 80 289 C 80 335.66666666667 96.66666666667 382.33333333333 130 429 C 163.33333333333 475 209 516.33333333333 267 553 C 142.33333333333 593 80 675.33333333333 80 800 C 80 859.33333333333 103.66666666667 919.33333333333 151 980 C 198.33333333333 1040 261.33333333333 1088.33333333333 340 1125 C 418 1161.66666666667 501 1180 589 1180 L 994 1180 L 944 1032 Z"/>
</svg>
