<svg width="47125" height="3789" viewBox="0 0 47125 3789" xmlns="http://www.w3.org/2000/svg">
    <defs/>
    <g transform="matrix(1 0 0 -1 0 3789)">
        <g transform="matrix(1 0 0 1 0 1100)">
            <path fill="#000000" stroke="none" d="M 908 1118 Q 908 854 782 745 Q 908 633 908 364 L 908 0 L 160 0 L 160 364 Q 160 631 285 746 Q 160 855 160 1118 L 160 1462 L 908 1462 L 908 1118 Z M 724 364 Q 724 493 706 552.5 Q 688 612 647 639.5 Q 606 667 534 667 Q 461 667 421 639.5 Q 381 612 362.5 554 Q 344 496 344 364 L 344 162 L 724 162 L 724 364 Z M 344 1300 L 344 1118 Q 344 990 361.50003 935 Q 379 880 419.5 854.5 Q 460 829 534 829 Q 608 829 649 855 Q 690 881 707 938.5 Q 724 996 724 1118 L 724 1300 L 344 1300 Z"/>
        </g>
        <g transform="matrix(1 0 0 1 1068 1100)">
            <path fill="#000000" stroke="none" d="M 40 846 L 285 846 Q 309 1147 489.50003 1315 Q 670 1483 973 1483 Q 1215 1483 1389 1397 L 1313 1243 Q 1142 1321 975 1321 Q 760 1321 628.5 1194.5 Q 497 1068 477 846 L 1186 846 L 1186 684 L 475 684 Q 482 421 617 281 Q 752 141 1016 141 Q 1115 141 1202.5 158.5 Q 1290 176 1376 199 L 1376 39 Q 1276 4 1189.5 -8 Q 1103 -20 987 -20 Q 666 -20 483.5 159.5 Q 301 339 282 684 L 40 684 L 40 846 Z"/>
        </g>
        <g transform="matrix(1 0 0 1 2557 1100)">
            <path fill="#000000" stroke="none" d="M 906 1480 Q 1183 1453 1336.5 1256.5 Q 1490 1060 1490 733 Q 1490 408 1337.5 210.5 Q 1185 13 906 -15 L 906 -220 L 722 -220 L 722 -15 Q 442 14 291 207.5 Q 140 401 140 735 Q 140 1066 290.5 1258.5 Q 441 1451 722 1480 L 722 1662 L 906 1662 L 906 1480 Z M 906 140 Q 1101 169 1202.5 320.5 Q 1304 472 1304 733 Q 1304 996 1202 1145.5 Q 1100 1295 906 1322 L 906 140 Z M 722 1321 Q 529 1292 427.5 1140.5 Q 326 989 326 733 Q 326 475 427.5 322.5 Q 529 170 722 141 L 722 1321 Z"/>
        </g>
        <g transform="matrix(1 0 0 1 4187 1100)">
            <path fill="#000000" stroke="none" d="M 1505 0 L 400 0 Q 314 0 274 17 Q 234 34 217 74.5 Q 200 115 200 200 L 200 1462 L 384 1462 L 384 780 L 785 818 L 785 1462 L 969 1462 L 969 835 L 1307 867 Q 1345 870 1358 886 Q 1371 902 1371 934 L 1371 1462 L 1555 1462 L 1555 912 Q 1555 828 1542 792 Q 1529 756 1496 739.50006 Q 1463 723 1355 713 L 384 622 L 384 262 Q 384 218 391.49997 198 Q 399 178 417 170 Q 435 162 484 162 L 1505 162 L 1505 0 Z"/>
        </g>
        <g transform="matrix(1 0 0 1 5922 1100)">
            <path fill="#000000" stroke="none" d="M 400 0 Q 314 0 274 17 Q 234 34 217 74.5 Q 200 115 200 200 L 200 646 Q 200 732 217 772 Q 234 812 275 829 Q 316 846 400 846 L 782 846 L 782 1262 Q 782 1348 799 1388 Q 816 1428 857 1445 Q 898 1462 982 1462 L 1448 1462 Q 1496 1462 1522 1434.5 Q 1548 1407 1548 1363 L 1548 1249 Q 1548 1128 1500 1024.5 Q 1452 921 1356 846 Q 1473 844 1510.5 803.50006 Q 1548 763 1548 646 L 1548 200 Q 1548 81 1508.5 40.5 Q 1469 0 1348 0 L 400 0 Z M 484 684 Q 425 684 404.5 664.5 Q 384 645 384 584 L 384 262 Q 384 203 403.5 182.5 Q 423 162 484 162 L 782 162 L 782 684 L 484 684 Z M 1264 162 Q 1323 162 1343.5 181.5 Q 1364 201 1364 262 L 1364 584 Q 1364 643 1344.5 663.5 Q 1325 684 1264 684 L 966 684 L 966 162 L 1264 162 Z M 999 846 Q 1109 858 1191.5 906.5 Q 1274 955 1319 1041 Q 1364 1127 1364 1233 Q 1364 1273 1347.5 1286.5 Q 1331 1300 1291 1300 L 1066 1300 Q 1007 1300 986.5 1280.5 Q 966 1261 966 1200 L 966 846 L 999 846 Z"/>
        </g>
        <g transform="matrix(1 0 0 1 7670 1100)">
            <path fill="#000000" stroke="none" d="M 200 0 L 200 977 Q 200 1244 293 1363 Q 386 1482 574 1482 Q 766 1482 857 1362 Q 950 1482 1138 1482 Q 1269 1482 1351 1427 Q 1433 1372 1472.5 1266.5 Q 1512 1161 1512 977 L 1512 0 L 1328 0 L 1328 977 Q 1328 1113 1309.5 1181.5 Q 1291 1250 1249.5 1285 Q 1208 1320 1138 1320 Q 1039 1320 993.50006 1247.5 Q 948 1175 948 998 L 948 0 L 764 0 L 764 993 Q 764 1177 718 1248.5 Q 672 1320 574 1320 Q 504 1320 463 1285.5 Q 422 1251 403 1184 Q 384 1117 384 977 L 384 0 L 200 0 Z"/>
        </g>
        <g transform="matrix(1 0 0 1 9914 1100)">
            <path fill="#000000" stroke="none" d="M 948 1300 L 948 200 Q 948 81 908.5 40.5 Q 869 0 748 0 L 400 0 Q 314 0 274 17 Q 234 34 217 74.5 Q 200 115 200 200 L 200 1262 Q 200 1348 217 1388 Q 234 1428 275 1445 Q 316 1462 400 1462 L 918 1462 Q 872 1569 775.5 1614.5 Q 679 1660 520 1660 L 468 1660 L 468 1822 L 506 1822 Q 728 1822 877.5 1738 Q 1027 1654 1088 1495 Q 1149 1656 1299 1739 Q 1449 1822 1670 1822 L 1708 1822 L 1708 1660 L 1656 1660 Q 1486 1660 1392 1610.5 Q 1298 1561 1258 1462 L 1776 1462 Q 1895 1462 1935.4999 1421.4999 Q 1976 1381 1976 1262 L 1976 200 Q 1976 81 1936.5 40.5 Q 1897 0 1776 0 L 1428 0 Q 1342 0 1302 17 Q 1262 34 1245 74.5 Q 1228 115 1228 200 L 1228 1300 L 948 1300 Z M 764 1300 L 484 1300 Q 425 1300 404.5 1280.5 Q 384 1261 384 1200 L 384 262 Q 384 203 403.5 182.5 Q 423 162 484 162 L 664 162 Q 723 162 743.5 181.5 Q 764 201 764 262 L 764 1300 Z M 1412 1300 L 1412 262 Q 1412 203 1431.5001 182.5 Q 1451 162 1512 162 L 1692 162 Q 1751 162 1771.5 181.5 Q 1792 201 1792 262 L 1792 1200 Q 1792 1259 1772.4999 1279.5 Q 1753 1300 1692 1300 L 1412 1300 Z"/>
        </g>
        <g transform="matrix(1 0 0 1 12090 1100)">
            <path fill="#000000" stroke="none" d="M 1564 1243 Q 1393 1321 1226 1321 Q 1011 1321 879.5 1194.5 Q 748 1068 728 846 L 1437 846 L 1437 684 L 726 684 Q 733 421 868 281 Q 1003 141 1267 141 Q 1366 141 1453.5 158.5 Q 1541 176 1627 199 L 1627 39 Q 1527 4 1440.5 -8 Q 1354 -20 1238 -20 Q 917 -20 734.49994 159.5 Q 552 339 533 684 L 420 684 L 424 640 Q 424 553 370.5 493.5 Q 317 434 242 434 Q 165 434 112.5 495 Q 60 556 60 640 Q 60 725 112.5 786 Q 165 847 242 847 L 260 846 L 536 846 Q 560 1147 740.5 1315 Q 921 1483 1224 1483 Q 1466 1483 1640 1397 L 1564 1243 Z"/>
        </g>
        <g transform="matrix(1 0 0 1 13830 1100)">
            <path fill="#000000" stroke="none" d="M 1195 0 Q 1109 0 1069 17 Q 1029 34 1012 74.5 Q 995 115 995 200 L 995 566 L 780 566 L 757 567 L 546 0 L 369 0 L 591 597 Q 401 655 280.5 812.5 Q 160 970 160 1177 L 160 1363 Q 160 1407 186 1434.5 Q 212 1462 260 1462 L 1090 1462 L 817 728 L 1000 728 Q 1012 796 1055 821 Q 1098 846 1195 846 L 1601 846 Q 1720 846 1760.5 805.5 Q 1801 765 1801 646 L 1801 0 L 1195 0 Z M 1617 584 Q 1617 643 1597.5 663.5 Q 1578 684 1517 684 L 1279 684 Q 1220 684 1199.5 664.5 Q 1179 645 1179 584 L 1179 262 Q 1179 203 1198.5 182.5 Q 1218 162 1279 162 L 1617 162 L 1617 584 Z M 344 1152 Q 344 1005 427 895 Q 510 785 647 747 L 853 1300 L 417 1300 Q 369 1300 356.5 1273 Q 344 1246 344 1152 Z"/>
        </g>
        <g transform="matrix(1 0 0 1 15791 1100)">
            <path fill="#000000" stroke="none" d="M 484 1300 Q 425 1300 404.5 1280.5 Q 384 1261 384 1200 L 384 0 L 200 0 L 200 1262 Q 200 1348 217 1388 Q 234 1428 275 1445 Q 316 1462 400 1462 L 1215 1462 Q 1334 1462 1374.5 1421.4999 Q 1415 1381 1415 1262 L 1415 600 Q 1415 481 1375.5 440.50003 Q 1336 400 1215 400 L 867 400 Q 781 400 741 417 Q 701 434 684 474.5 Q 667 515 667 600 L 667 1300 L 484 1300 Z M 851 662 Q 851 603 870.5 582.5 Q 890 562 951 562 L 1131 562 Q 1190 562 1210.5 581.5 Q 1231 601 1231 662 L 1231 1200 Q 1231 1259 1211.5 1279.5 Q 1192 1300 1131 1300 L 851 1300 L 851 662 Z"/>
        </g>
        <g transform="matrix(1 0 0 1 17366 1100)">
            <path fill="#000000" stroke="none" d="M 1515 1462 L 1515 884 Q 1515 765 1475.5 724.5 Q 1436 684 1315 684 L 1152 684 Q 1212 575 1212 395 L 1212 0 L 464 0 L 464 395 Q 464 580 522 684 L 360 684 Q 274 684 234 701 Q 194 718 177 758.5 Q 160 799 160 884 L 160 1462 L 344 1462 L 344 946 Q 344 887 363.5 866.50006 Q 383 846 444 846 L 745 846 L 745 1462 L 930 1462 L 930 846 L 1231 846 Q 1290 846 1310.5 865.50006 Q 1331 885 1331 946 L 1331 1462 L 1515 1462 Z M 1028 395 Q 1028 521 1010.5 576.5 Q 993 632 952.5 657 Q 912 682 838 682 Q 764 682 724 657.5 Q 684 633 666 579 Q 648 525 648 395 L 648 162 L 1028 162 L 1028 395 Z"/>
        </g>
        <g transform="matrix(1 0 0 1 19041 1100)">
            <path fill="#000000" stroke="none" d="M 552 846 Q 671 846 711.5 805.5 Q 752 765 752 646 L 752 0 L 568 0 L 568 584 Q 568 643 548.5 663.5 Q 529 684 468 684 L 80 684 L 242 1462 L 418 1462 L 289 846 L 552 846 Z"/>
        </g>
        <g transform="matrix(1 0 0 1 20485 1100)">
            <path fill="#000000" stroke="none" d="M 371 -20 Q 202 -20 80 39 L 80 195 Q 234 133 375 133 Q 711 133 734 493 L 193 493 L 193 640 L 732 640 Q 718 808 637 885.5 Q 556 963 400 963 Q 295 963 144 909 L 93 1055 Q 157 1084 239.5 1101 Q 322 1118 398 1118 Q 655 1118 787.5 972.5 Q 920 827 920 549 Q 920 278 776.5 129 Q 633 -20 371 -20 Z"/>
        </g>
        <g transform="matrix(1 0 0 1 21525 1100)">
            <path fill="#000000" stroke="none" d="M 311 1098 L 460 1098 L 402 937 L 1027 937 L 970 1098 L 1119 1098 L 1350 495 L 983 495 Q 1038 404 1038 278 L 1038 0 L 390 0 L 390 280 Q 390 408 437 495 L 80 495 L 311 1098 Z M 862 280 Q 862 375 848 415 Q 834 455 803 474 Q 772 493 715 493 Q 637 493 601.5 448 Q 566 403 566 279 L 566 145 L 862 145 L 862 280 Z M 1075 802 L 792 802 L 792 640 L 1133 640 L 1075 802 Z M 297 640 L 636 640 L 636 802 L 354 802 L 297 640 Z"/>
        </g>
        <g transform="matrix(1 0 0 1 22955 1100)">
            <path fill="#000000" stroke="none" d="M 832 200 Q 832 84 790.5 42 Q 749 0 632 0 L 380 0 Q 266 0 223 41.5 Q 180 83 180 200 L 180 898 Q 180 1017 222.5 1057.5 Q 265 1098 380 1098 L 1090 1098 Q 1145 1098 1174 1082.5 Q 1203 1067 1215.5 1033.5 Q 1228 1000 1228 918 L 1228 680 L 1556 680 Q 1611 680 1640 664.5 Q 1669 649 1681.5001 615.5 Q 1694 582 1694 500 L 1694 180 Q 1694 97 1681.5001 63.5 Q 1669 30 1639.5 15 Q 1610 0 1556 0 L 1190 0 Q 1135 0 1106 15.5 Q 1077 31 1064.5 64.5 Q 1052 98 1052 180 L 1052 873 Q 1052 918 1039 935.5 Q 1026 953 982 953 L 832 953 L 832 200 Z M 456 953 Q 397 953 376.50003 933.5 Q 356 914 356 853 L 356 245 Q 356 186 375.49997 165.5 Q 395 145 456 145 L 556 145 Q 615 145 635.5 164.5 Q 656 184 656 245 L 656 953 L 456 953 Z M 1228 225 Q 1228 180 1241 162.5 Q 1254 145 1298 145 L 1448 145 Q 1492 145 1505 162.5 Q 1518 180 1518 225 L 1518 455 Q 1518 500 1505 517.5 Q 1492 535 1448 535 L 1228 535 L 1228 225 Z"/>
        </g>
        <g transform="matrix(1 0 0 1 24789 1100)">
            <path fill="#000000" stroke="none" d="M 80 0 L 548 1007 Q 568 1049 589.5 1073 Q 611 1097 651 1097 L 827 1097 Q 867 1097 888.5 1073 Q 910 1049 930 1007 L 1398 0 L 80 0 Z M 762 976 L 716 976 Q 700 976 676 923 L 523 594 L 955 594 L 802 923 Q 778 976 762 976 Z M 314 145 L 661 145 L 661 459 L 460 459 L 314 145 Z M 817 145 L 1163 145 L 1017 459 L 817 459 L 817 145 Z"/>
        </g>
        <g transform="matrix(1 0 0 1 26267 1100)">
            <path fill="#000000" stroke="none" d="M 812 1098 L 812 640 L 1170 640 Q 1225 640 1254.5 625 Q 1284 610 1296 577 Q 1308 544 1308 460 L 1308 0 L 1132 0 L 1132 415 Q 1132 460 1119.5 477.5 Q 1107 495 1062 495 L 812 495 L 812 0 L 636 0 L 636 495 L 386 495 Q 341 495 328.5 477.5 Q 316 460 316 415 L 316 0 L 140 0 L 140 460 Q 140 546 152.5 578.5 Q 165 611 195 625.5 Q 225 640 278 640 L 636 640 L 636 1098 L 812 1098 Z"/>
        </g>
        <g transform="matrix(1 0 0 1 27715 1100)">
            <path fill="#000000" stroke="none" d="M 1348 180 Q 1348 94 1335.5 61.5 Q 1323 29 1294 14.5 Q 1265 0 1210 0 L 318 0 Q 263 0 234 14.5 Q 205 29 192.5 61 Q 180 93 180 180 L 180 1098 L 356 1098 L 356 225 Q 356 180 368.5 162.5 Q 381 145 426 145 L 676 145 L 676 1098 L 852 1098 L 852 145 L 1102 145 Q 1147 145 1159.5 162.5 Q 1172 180 1172 225 L 1172 1098 L 1348 1098 L 1348 180 Z"/>
        </g>
        <g transform="matrix(1 0 0 1 29775 1100)">
            <path fill="#000000" stroke="none" d="M 1095 848 Q 1095 655 989 556 Q 1095 457 1095 265 L 1095 0 L 447 0 L 447 267 Q 447 427 505 513 L 365 513 L 369 477 Q 369 410 327 362 Q 285 314 225 314 Q 166 314 123 361.50003 Q 80 409 80 477 Q 80 542 120 591 Q 160 640 217 640 L 483 640 Q 447 721 447 846 L 447 1098 L 1095 1098 L 1095 848 Z M 919 145 L 919 257 Q 919 358 905.5 400 Q 892 442 861 462.5 Q 830 483 772 483 Q 717 483 684.5 460.5 Q 652 438 637.5 393 Q 623 348 623 256 L 623 145 L 919 145 Z M 623 953 L 623 857 Q 623 764 637.5 719.5 Q 652 675 684.5 652.5 Q 717 630 772 630 Q 828 630 859.5 650 Q 891 670 905 712 Q 919 754 919 856 L 919 953 L 623 953 Z"/>
        </g>
        <g transform="matrix(1 0 0 1 31030 1100)">
            <path fill="#000000" stroke="none" d="M 1149 848 Q 1149 655 1043 556 Q 1149 457 1149 265 L 1149 0 L 501 0 L 501 267 Q 501 427 559 513 L 436 513 Q 444 486 444 459 Q 444 383 391 329.5 Q 338 276 261 276 Q 187 276 133.5 330 Q 80 384 80 459 Q 80 531 132 585.5 Q 184 640 261 640 L 537 640 Q 501 721 501 846 L 501 1098 L 1149 1098 L 1149 848 Z M 973 145 L 973 257 Q 973 358 959.49994 400 Q 946 442 915 462.5 Q 884 483 826 483 Q 771 483 738.50006 460.5 Q 706 438 691.5 393 Q 677 348 677 256 L 677 145 L 973 145 Z M 677 953 L 677 857 Q 677 764 691.5 719.5 Q 706 675 738.50006 652.5 Q 771 630 826 630 Q 882 630 913.5 650 Q 945 670 959 712 Q 973 754 973 856 L 973 953 L 677 953 Z M 183 459 Q 183 425 205.5 402 Q 228 379 261 379 Q 296 379 318.5 402 Q 341 425 341 459 Q 341 491 318.5 514 Q 296 537 258 537 Q 226 537 204.50002 514 Q 183 491 183 459 Z"/>
        </g>
        <g transform="matrix(1 0 0 1 32339 1100)">
            <path fill="#000000" stroke="none" d="M 180 928 Q 180 1021 218.5 1059.5 Q 257 1098 341 1098 L 776 1098 Q 818 1098 844 1075 Q 870 1052 870 1004 L 870 874 Q 870 680 739 572.5 Q 608 465 356 453 L 356 0 L 180 0 L 180 928 Z M 356 597 Q 521 602 607.5 667.5 Q 694 733 694 868 Q 694 909 684.5 931 Q 675 953 643 953 L 422 953 Q 356 953 356 878 L 356 597 Z"/>
        </g>
        <g transform="matrix(1 0 0 1 33349 1100)">
            <path fill="#000000" stroke="none" d="M 1439 495 L 1089 495 Q 1097 322 1158.5 227.49998 Q 1220 133 1327 133 Q 1438 133 1525 169 L 1525 13 Q 1445 -20 1317 -20 Q 1124 -20 1017.5 113 Q 911 246 900 495 L 706 495 Q 695 246 587.5 113 Q 480 -20 289 -20 Q 161 -20 81 13 L 81 169 Q 143 145 188 139 Q 233 133 279 133 Q 384 133 445 224 Q 506 315 517 495 L 167 495 L 167 640 L 516 640 Q 504 812 443.5 887.5 Q 383 963 273 963 Q 234 963 191 955 Q 148 947 117 934 L 80 1088 Q 179 1118 302 1118 Q 485 1118 586.5 997.5 Q 688 877 704 640 L 902 640 Q 919 879 1020.49994 998.5 Q 1122 1118 1304 1118 Q 1427 1118 1526 1088 L 1489 934 Q 1462 946 1417.4999 954.5 Q 1373 963 1333 963 Q 1107 963 1089 640 L 1439 640 L 1439 495 Z"/>
        </g>
        <g transform="matrix(1 0 0 1 34955 1100)">
            <path fill="#000000" stroke="none" d="M 1389 386 L 1389 425 Q 1389 462 1376.5 478.5 Q 1364 495 1319 495 L 1282 495 Q 1270 252 1146.5 116 Q 1023 -20 812 -20 Q 613 -20 488.50003 117 Q 364 254 350 495 L 314 495 Q 269 495 256.5 478.5 Q 244 462 244 425 L 244 386 L 100 386 L 100 517 Q 100 590 124 615 Q 148 640 230 640 L 353 640 Q 373 869 494 993.50006 Q 615 1118 819 1118 Q 1014 1118 1136.5 991 Q 1259 864 1280 640 L 1403 640 Q 1485 640 1509 615 Q 1533 590 1533 517 L 1533 386 L 1389 386 Z M 817 129 Q 1079 129 1096 495 L 536 495 Q 553 129 817 129 Z M 814 967 Q 563 967 538 640 L 1094 640 Q 1069 967 814 967 Z"/>
        </g>
        <g transform="matrix(1 0 0 1 36588 1100)">
            <path fill="#000000" stroke="none" d="M 80 0 L 548 1007 Q 568 1049 589.5 1073 Q 611 1097 651 1097 L 827 1097 Q 867 1097 888.5 1073 Q 910 1049 930 1007 L 1398 0 L 80 0 Z M 762 976 L 716 976 Q 700 976 676 923 L 523 594 L 955 594 L 802 923 Q 778 976 762 976 Z M 314 145 L 661 145 L 661 459 L 460 459 L 314 145 Z M 817 145 L 1163 145 L 1017 459 L 817 459 L 817 145 Z"/>
        </g>
        <g transform="matrix(1 0 0 1 38598 1100)">
            <path fill="#000000" stroke="none" d="M 1732 842 Q 1732 656 1648 562.5 Q 1564 469 1407 469 Q 1257 469 1172 574 L 1144 544 Q 1197 498 1228.5 423 Q 1260 348 1260 254 L 1260 0 L 612 0 L 612 256 Q 612 453 717 544 L 695 568 Q 609 469 465 469 Q 308 469 224 562.5 Q 140 656 140 842 L 140 1098 L 1732 1098 L 1732 842 Z M 788 953 L 788 831 Q 788 712 823 664 Q 858 616 937 616 Q 993 616 1024.5 636 Q 1056 656 1070 698 Q 1084 740 1084 842 L 1084 953 L 788 953 Z M 316 953 L 316 843 Q 316 750 330.5 705.50006 Q 345 661 377.50003 638.5 Q 410 616 465 616 Q 521 616 552.5 636 Q 584 656 598 698 Q 612 740 612 842 L 612 953 L 316 953 Z M 1260 953 L 1260 831 Q 1260 705 1293 660.5 Q 1326 616 1407 616 Q 1462 616 1494.5 638.5 Q 1527 661 1541.5 706 Q 1556 751 1556 843 L 1556 953 L 1260 953 Z M 1084 256 Q 1084 351 1070 391 Q 1056 431 1025 450 Q 994 469 937 469 Q 859 469 823.5 424 Q 788 379 788 255 L 788 145 L 1084 145 L 1084 256 Z"/>
        </g>
        <g transform="matrix(1 0 0 1 40470 1100)">
            <path fill="#000000" stroke="none" d="M 221 1098 L 387 1098 L 264 640 L 496 640 Q 551 640 580 624.5 Q 609 609 621.5 575.5 Q 634 542 634 460 L 634 0 L 458 0 L 458 415 Q 458 460 445 477.5 Q 432 495 388 495 L 60 495 L 221 1098 Z"/>
        </g>
        <g transform="matrix(1 0 0 1 41284 1100)">
            <path fill="#000000" stroke="none" d="M 402 563 Q 291 611 225.5 692.5 Q 160 774 160 884 Q 160 1098 339 1098 L 1194 1098 Q 1249 1098 1278 1082.5 Q 1307 1067 1319.5 1033.5 Q 1332 1000 1332 918 L 1332 180 Q 1332 97 1319.5 63.5 Q 1307 30 1277.5 15 Q 1248 0 1194 0 L 359 0 Q 260 0 210 48 Q 160 96 160 214 Q 160 321 224 412.5 Q 288 504 402 563 Z M 856 145 L 1086 145 Q 1130 145 1143 162.5 Q 1156 180 1156 225 L 1156 495 L 856 495 L 856 145 Z M 680 498 Q 525 487 429.5 415 Q 334 343 334 238 Q 334 186 347.5 165.5 Q 361 145 396 145 L 680 145 L 680 498 Z M 856 639 L 1156 639 L 1156 873 Q 1156 918 1143 935.5 Q 1130 953 1086 953 L 856 953 L 856 639 Z M 680 953 L 420 953 Q 386 953 368 945 Q 350 937 342 921.5 Q 334 906 334 860 Q 334 761 420 704.50006 Q 506 648 680 640 L 680 953 Z"/>
        </g>
        <g transform="matrix(1 0 0 1 42796 1100)">
            <path fill="#000000" stroke="none" d="M 1082 0 L 1082 853 Q 1082 909 1076 924.49994 Q 1070 940 1054 946.5 Q 1038 953 1002 953 L 862 953 Q 828 953 811.5 947.5 Q 795 942 788.5 928 Q 782 914 782 853 L 782 180 Q 782 97 769.50006 63.5 Q 757 30 727.5 15 Q 698 0 644 0 L 278 0 Q 223 0 194 15.5 Q 165 31 152.5 64.5 Q 140 98 140 180 L 140 460 Q 140 543 152.5 576.5 Q 165 610 194.5 625 Q 224 640 278 640 L 606 640 L 606 908 Q 606 1009 620.5 1041 Q 635 1073 671 1085.5 Q 707 1098 776 1098 L 1088 1098 Q 1160 1098 1195 1083.5 Q 1230 1069 1244 1034.5 Q 1258 1000 1258 898 L 1258 0 L 1082 0 Z M 386 495 Q 342 495 329 477.5 Q 316 460 316 415 L 316 225 Q 316 180 329 162.5 Q 342 145 386 145 L 536 145 Q 580 145 593 162.5 Q 606 180 606 225 L 606 495 L 386 495 Z"/>
        </g>
        <g transform="matrix(1 0 0 1 44234 1100)">
            <path fill="#000000" stroke="none" d="M 1391 549 Q 1391 304 1247.5 154 Q 1104 4 848 -16 L 848 -342 L 672 -342 L 672 -16 Q 420 5 275 155 Q 130 305 130 549 Q 130 799 274 946.5 Q 418 1094 678 1114 L 678 1416 L 848 1416 L 848 1114 Q 1101 1089 1246 939 Q 1391 789 1391 549 Z M 318 549 Q 318 168 678 131 L 678 965 Q 490 946 404 840.5 Q 318 735 318 549 Z M 1205 549 Q 1205 924 848 963 L 848 131 Q 1205 170 1205 549 Z"/>
        </g>
        <g transform="matrix(1 0 0 1 45755 1100)">
            <path fill="#000000" stroke="none" d="M 979 0 L 850 0 Q 794 0 767.49994 9.5 Q 741 19 727 44 Q 713 69 702 147 L 649 501 Q 409 509 264.5 614 Q 120 719 120 884 Q 120 1001 169.5 1049.5 Q 219 1098 319 1098 L 562 1098 Q 641 1098 675.5 1087.5 Q 710 1077 726.5 1049.5 Q 743 1022 753 951 L 865 211 Q 871 171 880 158 Q 889 145 914 145 Q 939 145 948.5 159 Q 958 173 964 211 L 1101 1098 L 1270 1098 L 1127 147 Q 1113 62 1099.5 40 Q 1086 18 1060 9 Q 1034 0 979 0 Z M 531 953 L 356 953 Q 322 953 308 933 Q 294 913 294 860 Q 294 763 378.5 707 Q 463 651 628 642 L 590 887 Q 585 918 573 935.5 Q 561 953 531 953 Z"/>
        </g>
    </g>
</svg>
