<svg width="39779" height="3805" viewBox="0 0 39779 3805" xmlns="http://www.w3.org/2000/svg">
    <defs/>
    <g transform="matrix(1 0 0 -1 0 3805)">
        <g transform="matrix(1 0 0 1 0 1116)">
            <path fill="#000000" stroke="none" d="M 1212 1300 L 827 1300 Q 794 1217 756 1094 Q 1023 1054 1158.5 931 Q 1294 808 1294 610 Q 1294 514 1261 432.5 Q 1228 351 1171 272 L 1026 338 Q 1118 490 1118 596 Q 1118 736 1018.5 823.5 Q 919 911 711 948 Q 616 644 550 383.5 Q 484 123 461 -31 L 287 -16 Q 318 205 428.5 605.5 Q 539 1006 645 1300 L 203 1300 L 231 1452 L 1241 1452 L 1212 1300 Z"/>
        </g>
        <g transform="matrix(1 0 0 1 1430 1116)">
            <path fill="#000000" stroke="none" d="M 1051 903 Q 1051 759 926 480 Q 801 201 645 -35 L 496 41 Q 645 259 759.5 511.5 Q 874 764 874 895 Q 874 957 825 981.5 Q 776 1006 657 1006 Q 442 1006 356 1023 Q 270 1040 236.50002 1082.5 Q 203 1125 203 1221 Q 203 1284 214 1356 Q 225 1428 240 1475 L 403 1448 Q 365 1316 365 1253 Q 365 1209 388 1193.5 Q 411 1178 471.49997 1171.5 Q 532 1165 680 1165 Q 870 1165 960.50006 1104 Q 1051 1043 1051 903 Z"/>
        </g>
        <g transform="matrix(1 0 0 1 2571 1116)">
            <path fill="#000000" stroke="none" d="M 932 369 Q 932 286 891.5 169 Q 851 52 788 -35 L 643 31 Q 683 94 719.5 198 Q 756 302 756 365 Q 756 429 719.5 454 Q 683 479 608 479 Q 382 479 258.5 594 Q 135 709 135 907 Q 135 1192 264 1333.5 Q 393 1475 655 1475 Q 752 1475 873.5 1444.5 Q 995 1414 1069 1372 L 1004 1227 Q 929 1272 827.5 1296.5 Q 726 1321 645 1321 Q 463 1321 385 1223 Q 307 1125 307 911 Q 307 759 388.5 695 Q 470 631 643 631 Q 808 631 870 570.5 Q 932 510 932 369 Z"/>
        </g>
        <g transform="matrix(1 0 0 1 3745 1116)">
            <path fill="#000000" stroke="none" d="M 1006 655 Q 1006 511 880.5 328.5 Q 755 146 535 -37 L 426 72 Q 657 269 743 398 Q 829 527 829 647 Q 829 723 771.50006 751.5 Q 714 780 596 780 Q 543 780 476 768 Q 409 756 379 743 L 342 887 Q 467 918 520 952 Q 573 986 599 1038 Q 625 1090 625 1171 Q 625 1335 356 1335 Q 276 1335 203 1323 L 180 1468 Q 285 1483 369 1483 Q 590 1483 695.5 1408 Q 801 1333 801 1176 Q 801 1104 770.50006 1038.5 Q 740 973 686 922 Q 841 922 923.5 853.5 Q 1006 785 1006 655 Z"/>
        </g>
        <g transform="matrix(1 0 0 1 4841 1116)">
            <path fill="#000000" stroke="none" d="M 1153 1442 Q 1109 1215 973 925.49994 Q 837 636 643 366 Q 449 96 274 -35 L 172 90 Q 292 181 432 358.49997 Q 572 536 707 774 Q 546 938 414.5 1111.5 Q 283 1285 231 1405 L 387 1495 Q 431 1398 542 1249 Q 653 1100 799 948 Q 941 1242 985 1470 L 1153 1442 Z"/>
        </g>
        <g transform="matrix(1 0 0 1 5986 1116)">
            <path fill="#000000" stroke="none" d="M 393 1092 Q 393 923 510.5 829 Q 628 735 834 735 Q 1015 735 1116 816.5 Q 1217 898 1217 1040 Q 1217 1153 1116 1260 L 1245 1366 Q 1389 1222 1389 1047 Q 1389 910 1313 805 Q 1237 700 1101.5 642 Q 966 584 807 584 Q 539 584 378 716.5 Q 217 849 217 1077 Q 217 1166 258 1289 Q 299 1412 360 1497 L 506 1432 Q 457 1354 425 1258.5 Q 393 1163 393 1092 Z"/>
        </g>
        <g transform="matrix(1 0 0 1 7943 1116)">
            <path fill="#000000" stroke="none" d="M 346 776 Q 203 919 203 1096 Q 203 1200 256 1285 Q 309 1370 405 1417 Q 501 1464 625 1464 Q 838 1464 958.49994 1370.5 Q 1079 1277 1079 1114 Q 1079 987 1001.5 874.5 Q 924 762 733 618 Q 567 497 497.5 408 Q 428 319 428 240 Q 428 174 461.5 144.5 Q 495 115 561 115 Q 691 115 854 188 L 905 43 Q 836 11 738.50006 -10 Q 641 -31 551 -31 Q 256 -31 256 242 Q 256 337 343.5 451 Q 431 565 641 729 Q 807 856 855 924.49994 Q 903 993 903 1087 Q 903 1192 829 1252.5 Q 755 1313 625 1313 Q 513 1313 444 1255 Q 375 1197 375 1102 Q 375 989 475 883 L 346 776 Z"/>
        </g>
        <g transform="matrix(1 0 0 1 9067 1116)">
            <path fill="#000000" stroke="none" d="M 455 -16 Q 478 155 546.5 429 Q 615 703 690 952 Q 519 947 399.5 932.5 Q 280 918 186 887 L 150 1028 Q 309 1095 735 1102 Q 808 1341 866 1483 L 1032 1438 Q 980 1313 889.5 1022 Q 799 731 727 440.50003 Q 655 150 629 -31 L 455 -16 Z"/>
        </g>
        <g transform="matrix(1 0 0 1 10159 1116)">
            <path fill="#000000" stroke="none" d="M 1333 1130 Q 1333 1018 1256.5 926.49994 Q 1180 835 1040.5 782 Q 901 729 733 727 Q 708 624 658.5 370.5 Q 609 117 588 -31 L 424 -14 Q 442 108 485.5 346 Q 529 584 567 739 Q 401 770 302 870 Q 203 970 203 1118 Q 203 1308 346 1499 L 481 1430 L 440 1362 Q 369 1245 369 1133 Q 369 1026 432 960.50006 Q 495 895 604 870 Q 685 1148 787 1270.5 Q 889 1393 1042 1393 Q 1172 1393 1252.5 1320 Q 1333 1247 1333 1130 Z M 1034 1241 Q 970 1241 929 1205 Q 888 1169 848.5 1086 Q 809 1003 768 858 Q 936 867 1048.5 942 Q 1161 1017 1161 1126 Q 1161 1178 1126 1209.5 Q 1091 1241 1034 1241 Z"/>
        </g>
        <g transform="matrix(1 0 0 1 11552 1116)">
            <path fill="#000000" stroke="none" d="M 1042 1460 Q 1220 1460 1316.5 1367 Q 1413 1274 1413 1096 Q 1413 879 1322.5 548.5 Q 1232 218 1120 -33 L 958 10 Q 1066 247 1151.5 561 Q 1237 875 1237 1087 Q 1237 1180 1178.5 1240 Q 1120 1300 1020 1300 Q 809 1300 606 1255 Q 545 944 434 540 Q 323 136 252 -27 L 90 16 Q 157 174 286 656.5 Q 415 1139 451 1368 Q 585 1408 751 1434 Q 917 1460 1042 1460 Z"/>
        </g>
        <g transform="matrix(1 0 0 1 13070 1116)">
            <path fill="#000000" stroke="none" d="M 567 -16 Q 585 105 630 300.5 Q 675 496 735 700 Q 516 731 399.5 784 Q 283 837 227.49998 924.49994 Q 172 1012 172 1145 Q 172 1241 205 1322.5 Q 238 1404 295 1483 L 440 1417 Q 348 1265 348 1159 Q 348 1061 387 1002.5 Q 426 944 513 907.5 Q 600 871 776 844 Q 904 1271 979 1448 L 1145 1403 Q 1056 1191 917 706 Q 778 221 741 -31 L 567 -16 Z"/>
        </g>
        <g transform="matrix(1 0 0 1 14252 1116)">
            <path fill="#000000" stroke="none" d="M 1071 981 Q 1071 867 1011 777.5 Q 951 688 844 638 Q 737 588 614 588 Q 558 588 512 592 Q 467 381 357.5 211.49998 Q 248 42 92 -45 L 14 90 Q 174 189 275.5 375 Q 377 561 377 764 Q 377 859 360 913 L 496 946 Q 514 922 527.5 863 Q 541 804 541 735 L 579 733 L 618 733 Q 742 733 818.5 800 Q 895 867 895 977 Q 895 1065 830.49994 1109 Q 766 1153 602 1171 Q 466 1188 386 1216 Q 306 1244 263.5 1290 Q 221 1336 199 1427 L 340 1479 Q 359 1406 426.5 1369.5 Q 494 1333 621 1317 Q 814 1293 899.50006 1255.5 Q 985 1218 1028 1151.5 Q 1071 1085 1071 981 Z"/>
        </g>
        <g transform="matrix(1 0 0 1 15945 1116)">
            <path fill="#000000" stroke="none" d="M 1516 307 Q 1516 117 1368 -33 L 1239 74 Q 1339 180 1339 293 Q 1339 420 1258.5 503.49997 Q 1178 587 1008 629 Q 937 345 754 -33 L 590 12 Q 726 285 803.50006 539.5 Q 881 794 881 971 Q 881 1140 810.5 1227.5 Q 740 1315 602 1315 Q 490 1315 421 1257 Q 352 1199 352 1104 Q 352 992 453 885 L 324 778 Q 180 922 180 1098 Q 180 1259 297.5 1362.5 Q 415 1466 602 1466 Q 930 1466 1024 1202 Q 1070 1328 1128 1460 L 1290 1417 Q 1228 1277 1158 1091.5 Q 1088 906 1053 776 Q 1285 727 1400.5 608 Q 1516 489 1516 307 Z"/>
        </g>
        <g transform="matrix(1 0 0 1 17596 1116)">
            <path fill="#000000" stroke="none" d="M 629 -16 Q 663 234 793 700 Q 553 706 419 722.5 Q 285 739 203 772 Q 309 887 348 973.5 Q 387 1060 387 1145 Q 387 1212 362.5 1261 Q 338 1310 274 1370 L 383 1485 Q 474 1420 512.5 1344 Q 551 1268 551 1171 Q 551 996 455 864 Q 542 850 834 850 Q 959 1284 1040 1483 L 1206 1438 Q 1123 1239 984.5 744 Q 846 249 803 -31 L 629 -16 Z"/>
        </g>
        <g transform="matrix(1 0 0 1 18847 1116)">
            <path fill="#000000" stroke="none" d="M 715 1495 Q 904 1495 994.50006 1423.4999 Q 1085 1352 1085 1192 Q 1085 970 994.50006 599 Q 904 228 793 -33 L 631 10 Q 683 130 744 329.5 Q 805 529 848 727 L 692 731 Q 423 731 240 664 L 203 805 Q 384 881 690 881 Q 789 881 877 877 Q 909 1054 909 1184 Q 909 1264 857.5 1299.5 Q 806 1335 692 1335 Q 472 1335 240 1257 L 203 1399 Q 321 1443 458 1469 Q 595 1495 715 1495 Z"/>
        </g>
        <g transform="matrix(1 0 0 1 20104 1116)">
            <path fill="#000000" stroke="none" d="M 506 420 Q 316 420 225.5 491.5 Q 135 563 135 723 Q 135 970 360 1497 L 522 1454 Q 425 1229 368 1035 Q 311 841 311 731 Q 311 653 360 616.5 Q 409 580 528 580 Q 635 580 718 593.5 Q 801 607 926 649 Q 956 775 956 844 Q 956 921 910 958 Q 864 995 760 995 Q 691 995 634 987.5 Q 577 980 500 954 L 463 1098 Q 634 1155 782 1155 Q 959 1155 1046 1082.5 Q 1133 1010 1133 852 Q 1133 717 1049.5 450.5 Q 966 184 870 -33 L 709 10 Q 789 191 879 479 Q 684 420 506 420 Z"/>
        </g>
        <g transform="matrix(1 0 0 1 21372 1116)">
            <path fill="#000000" stroke="none" d="M 352 1217 Q 352 1112 512 1112 Q 583 1112 653 1120 Q 723 1128 801 1128 Q 976 1128 1058.5 1056 Q 1141 984 1141 817 Q 1141 643 1028 463 Q 915 283 720.5 153.5 Q 526 24 289 -29 L 246 119 Q 459 165 622.5 272.5 Q 786 380 875.5 525 Q 965 670 965 817 Q 965 901 918 935 Q 871 969 776 969 Q 705 969 635 960.50006 Q 565 952 487 952 Q 341 952 260.5 1022.49994 Q 180 1093 180 1221 Q 180 1324 252.50002 1401.5 Q 325 1479 432 1497 L 483 1356 Q 422 1340 387 1303 Q 352 1266 352 1217 Z"/>
        </g>
        <g transform="matrix(1 0 0 1 22603 1116)">
            <path fill="#000000" stroke="none" d="M 430 1217 Q 430 1160 465 1100 Q 500 1040 621 922 Q 745 800 796.49994 727.5 Q 848 655 876.5 577 Q 905 499 905 408 Q 905 289 837 187.49998 Q 769 86 649 27.500002 Q 529 -31 391 -31 Q 264 -31 172 -2 L 209 147 Q 290 125 389 125 Q 540 125 634.5 203 Q 729 281 729 408 Q 729 465 708 517 Q 687 569 648 621 Q 609 673 510 770 Q 391 889 348.5 950 Q 306 1011 282 1077.5 Q 258 1144 258 1221 Q 258 1324 330.5 1401.5 Q 403 1479 510 1497 L 561 1356 Q 498 1340 464 1303 Q 430 1266 430 1217 Z"/>
        </g>
        <g transform="matrix(1 0 0 1 24130 1116)">
            <path fill="#000000" stroke="none" d="M 350 -16 Q 370 135 435.5 403.5 Q 501 672 586 952 Q 355 947 186 887 L 150 1028 Q 318 1100 631 1104 Q 708 1356 762 1483 L 928 1438 Q 882 1330 811 1100 Q 1159 1082 1307 1024 L 1247 872 Q 1084 936 766 952 Q 682 669 615 399 Q 548 129 524 -31 L 350 -16 Z"/>
        </g>
        <g transform="matrix(1 0 0 1 25451 1116)">
            <path fill="#000000" stroke="none" d="M 1130 547 Q 1130 672 1063.5 758 Q 997 844 868 881 Q 788 637 727 391.49997 Q 666 146 639 -31 L 465 -16 Q 508 304 692 903 L 690 903 Q 509 903 408 821.5 Q 307 740 307 598 Q 307 486 408 379 L 279 272 Q 135 416 135 592 Q 135 728 210 833 Q 285 938 420.5 996.5 Q 556 1055 717 1055 L 741 1055 L 764 1053 L 815 1102 Q 694 1116 581.5 1206.5 Q 469 1297 420 1415 L 559 1501 Q 590 1405 683.5 1333.5 Q 777 1262 877 1262 Q 948 1262 1012 1305 Q 1076 1348 1167 1473 L 1300 1389 Q 1262 1324 1213 1277.5 Q 1164 1231 1114 1191 Q 1064 1151 1016.5 1112.5 Q 969 1074 934 1026 Q 1112 978 1209.5 856.5 Q 1307 735 1307 561 Q 1307 474 1266.5 351.5 Q 1226 229 1163 141 L 1018 207 Q 1067 287 1098.5 382 Q 1130 477 1130 547 Z"/>
        </g>
        <g transform="matrix(1 0 0 1 26915 1116)">
            <path fill="#000000" stroke="none" d="M 592 891 Q 566 925 506.5 1016 Q 447 1107 412 1169 Q 385 950 385 668 Q 385 262 457 -8 L 285 -33 Q 217 315 217 668 Q 217 1068 281 1475 L 455 1460 Q 459 1361 735 981 L 592 891 Z"/>
        </g>
        <g transform="matrix(1 0 0 1 27777 1116)">
            <path fill="#000000" stroke="none" d="M 1516 307 Q 1516 117 1368 -33 L 1239 74 Q 1339 180 1339 293 Q 1339 420 1258.5 503.49997 Q 1178 587 1008 629 Q 937 345 754 -33 L 590 12 Q 726 285 803.50006 539.5 Q 881 794 881 971 Q 881 1140 810.5 1227.5 Q 740 1315 602 1315 Q 490 1315 421 1257 Q 352 1199 352 1104 Q 352 992 453 885 L 324 778 Q 180 922 180 1098 Q 180 1259 297.5 1362.5 Q 415 1466 602 1466 Q 824 1466 940.5 1345 Q 1057 1224 1057 979 Q 1057 879 1038 778 Q 1276 732 1396 612.5 Q 1516 493 1516 307 Z"/>
        </g>
        <g transform="matrix(1 0 0 1 29405 1116)">
            <path fill="#000000" stroke="none" d="M 715 1460 Q 893 1460 989 1366.5 Q 1085 1273 1085 1096 Q 1085 882 944 550 Q 803 218 625 -35 L 483 53 Q 654 281 781.5 578.5 Q 909 876 909 1087 Q 909 1180 850.5 1240 Q 792 1300 692 1300 Q 469 1300 240 1223 L 203 1364 Q 321 1408 458 1434 Q 595 1460 715 1460 Z"/>
        </g>
        <g transform="matrix(1 0 0 1 30581 1116)">
            <path fill="#000000" stroke="none" d="M 324 778 Q 180 922 180 1098 Q 180 1259 297.5 1362.5 Q 415 1466 602 1466 Q 824 1466 940.5 1345 Q 1057 1224 1057 979 Q 1057 593 754 -33 L 590 12 Q 726 285 803.50006 539.5 Q 881 794 881 971 Q 881 1140 810.5 1227.5 Q 740 1315 602 1315 Q 490 1315 421 1257 Q 352 1199 352 1104 Q 352 992 453 885 L 324 778 Z"/>
        </g>
        <g transform="matrix(1 0 0 1 32319 1116)">
            <path fill="#000000" stroke="none" d="M 1067 610 Q 1067 418 920 270 L 791 377 Q 891 483 891 596 Q 891 736 791.5 823.5 Q 692 911 483 948 Q 395 653 328 380.5 Q 261 108 242 -31 L 68 -16 Q 108 256 246.5 753 Q 385 1250 479 1483 L 645 1438 Q 598 1326 526 1094 Q 795 1054 931 930 Q 1067 806 1067 610 Z"/>
        </g>
        <g transform="matrix(1 0 0 1 33476 1116)">
            <path fill="#000000" stroke="none" d="M 311 -45 L 244 90 Q 339 130 434 290.5 Q 529 451 608 735 Q 687 1019 737 1309 L 735 1309 Q 554 1309 453 1227.5 Q 352 1146 352 1004 Q 352 891 453 784 L 324 678 Q 180 820 180 997 Q 180 1134 256 1239 Q 332 1344 467.5 1402 Q 603 1460 762 1460 Q 935 1460 1070 1400.5 Q 1205 1341 1278.5 1229 Q 1352 1117 1352 967 Q 1352 836 1289.5 696 Q 1227 556 1145 487 L 1018 584 Q 1088 654 1132 756.5 Q 1176 859 1176 952 Q 1176 1079 1106.5 1165.5 Q 1037 1252 909 1286 Q 862 1007 768.50006 690 Q 675 373 558.5 189.5 Q 442 6 311 -45 Z"/>
        </g>
        <g transform="matrix(1 0 0 1 34918 1116)">
            <path fill="#000000" stroke="none" d="M 375 1217 Q 375 1130 395 1088.5 Q 415 1047 471 1047 Q 517 1047 547.5 1080 Q 578 1113 600 1192 Q 626 1287 662.5 1335.5 Q 699 1384 756.5 1409 Q 814 1434 899 1434 Q 1031 1434 1093 1364 Q 1155 1294 1155 1139 Q 1155 693 791 -31 L 651 41 Q 979 705 979 1139 Q 979 1198 956.49994 1234 Q 934 1270 893 1270 Q 846 1270 819.5 1246 Q 793 1222 762 1128 Q 722 1003 651.5 945 Q 581 887 467 887 Q 337 887 270 973 Q 203 1059 203 1221 Q 203 1371 266 1493 L 426 1450 Q 375 1320 375 1217 Z"/>
        </g>
        <g transform="matrix(1 0 0 1 36208 1116)">
            <path fill="#000000" stroke="none" d="M 578 676 Q 578 720 564.5 751.5 Q 551 783 524.5 805.5 Q 498 828 428 858 Q 387 876 346.5 896.50006 Q 306 917 273.5 951.5 Q 241 986 221 1040 Q 201 1094 201 1178 Q 201 1313 299.5 1404 Q 398 1495 553 1495 Q 635 1495 714 1487 Q 793 1479 834 1466 L 797 1317 Q 713 1339 555 1339 Q 469 1339 423 1298 Q 377 1257 377 1178 Q 377 1116 410.5 1076 Q 444 1036 541 999 Q 626 967 666.5 931.50006 Q 707 896 728.5 842.5 Q 750 789 750 709 Q 750 563 689 361.50003 Q 628 160 530 -33 L 385 14 Q 466 199 522 387.5 Q 578 576 578 676 Z"/>
        </g>
        <g transform="matrix(1 0 0 1 37154 1116)">
            <path fill="#000000" stroke="none" d="M 240 -16 Q 284 308 473 946 Q 306 933 172 887 L 135 1028 Q 276 1087 520 1102 Q 600 1362 651 1483 L 817 1438 Q 768 1320 698 1096 Q 966 1061 1106.5 938 Q 1247 815 1247 610 Q 1247 418 1100 270 L 971 377 Q 1071 483 1071 596 Q 1071 881 655 948 Q 581 703 509.5 416 Q 438 129 414 -31 L 240 -16 Z"/>
        </g>
        <g transform="matrix(1 0 0 1 38491 1116)">
            <path fill="#000000" stroke="none" d="M 971 1241 Q 971 1341 1038 1398.5001 Q 1105 1456 1223 1456 L 1274 1315 Q 1206 1306 1171.5 1290 Q 1137 1274 1137 1237 Q 1137 1191 1152 1118 Q 1167 1046 1167 991 Q 1167 834 1050.5 752 Q 934 670 711 670 Q 592 670 516 690 L 477 563 Q 396 321 287.5 161 Q 179 1 59 -45 L -8 90 Q 63 119 138 222.5 Q 213 326 275 482 Q 337 638 405 939 Q 473 1240 504 1468 L 678 1454 Q 632 1128 553 834 Q 629 815 715 815 Q 825 815 880 832 Q 935 849 963 886 Q 991 923 991 987 Q 991 1028 982 1109 Q 972 1187 971 1241 Z"/>
        </g>
    </g>
</svg>
