<svg width="46614" height="3789" viewBox="0 0 46614 3789" xmlns="http://www.w3.org/2000/svg">
    <defs/>
    <path fill="#000000" stroke="none" transform="matrix(1 0 0 -1 0 2689)" d="M 619 116 C 706.33333333333 116 773.33333333333 144.33333333333 820 201 C 866.66666666667 257 890 337 890 441 C 890 566.33333333333 856 629 788 629 C 755.33333333333 629 731.66666666667 617 717 593 C 701.66666666667 569 693.66666666667 534.33333333333 693 489 L 690 372 L 569 372 C 565.66666666667 404.66666666667 564 445 564 493 C 564 579 584.33333333333 645.66666666667 625 693 C 665 740.33333333333 719.66666666667 764 789 764 C 871.66666666667 764 934.33333333333 735.33333333333 977 678 C 1019.66666666667 620 1041 538.66666666667 1041 434 C 1041 293.33333333333 1003.33333333333 182.66666666667 928 102 C 852 20.66666666667 748.33333333333 -20 617 -20 C 476.33333333333 -20 372 21.33333333333 304 104 C 236 186.66666666667 202 317 202 495 L 202 1204 L 50 1219 L 50 1324 L 522 1324 L 522 1219 L 370 1204 L 370 479 C 370 357.66666666667 390.33333333333 267 431 207 C 471.66666666667 146.33333333333 534.33333333333 116 619 116 Z"/>
    <path fill="#000000" stroke="none" transform="matrix(1 0 0 -1 1181 2689)" d="M 1114 118 C 1189.33333333333 118 1247.33333333333 138.66666666667 1288 180 C 1328 221.33333333333 1352 291 1360 389 L 1194 403 L 1194 508 L 1643 508 L 1643 403 L 1506 389 C 1495.33333333333 259 1456 158.33333333333 1388 87 C 1320 15.66666666667 1229.33333333333 -20 1116 -20 C 994 -20 879 30 771 130 C 723 81.33333333333 671 44.33333333333 615 19 C 559 -7 502 -20 444 -20 C 324 -20 232 14.66666666667 168 84 C 103.33333333333 152.66666666667 71 249.66666666667 71 375 C 71 417 73.33333333333 451.66666666667 78 479 L 219 479 L 217 457 L 217 441 C 217 335 236.66666666667 254.66666666667 276 200 C 314.66666666667 145.33333333333 371 118 445 118 C 523 118 598 156 670 232 C 587.33333333333 329.33333333333 522.66666666667 436.33333333333 476 553 C 428.66666666667 669.66666666667 405 785 405 899 C 405 1034.33333333333 438.66666666667 1142.33333333333 506 1223 C 573.33333333333 1303.66666666667 664.66666666667 1344 780 1344 C 890 1344 976.66666666667 1306.66666666667 1040 1232 C 1103.33333333333 1157.33333333333 1135 1057 1135 931 C 1135 821 1110.33333333333 702 1061 574 C 1011.66666666667 445.33333333333 948 334 870 240 C 946.66666666667 158.66666666667 1028 118 1114 118 Z M 571 921 C 571 822.33333333333 588.66666666667 721 624 617 C 659.33333333333 513 709.33333333333 418.33333333333 774 333 C 832 419 879.66666666667 516.33333333333 917 625 C 953.66666666667 733.66666666667 972 832.33333333333 972 921 C 972 1014.33333333333 955.66666666667 1085.66666666667 923 1135 C 890.33333333333 1183.66666666667 842.33333333333 1208 779 1208 C 715 1208 664.33333333333 1181.66666666667 627 1129 C 589.66666666667 1075.66666666667 571 1006.33333333333 571 921 Z"/>
    <path fill="#000000" stroke="none" transform="matrix(1 0 0 -1 2829 2689)" d="M 450 120 L 602 105 L 602 0 L 130 0 L 130 105 L 282 120 L 282 898 L 130 913 L 130 1018 L 589 1018 L 589 913 L 450 898 L 450 702 L 545 702 C 674.33333333333 702 770 728.66666666667 832 782 C 894 834.66666666667 925 914.66666666667 925 1022 C 925 1115.33333333333 893 1186.66666666667 829 1236 C 764.33333333333 1285.33333333333 672.66666666667 1310 554 1310 C 496.66666666667 1310 438.66666666667 1304 380 1292 C 321.33333333333 1279.33333333333 270.33333333333 1262.66666666667 227 1242 L 174 1354 C 217.33333333333 1384 274 1407.66666666667 344 1425 C 414 1441.66666666667 486.66666666667 1450 562 1450 C 718 1450 844 1412 940 1336 C 1035.33333333333 1259.33333333333 1083 1157 1083 1029 C 1083 882.33333333333 1038 769.66666666667 948 691 C 858 611.66666666667 725.33333333333 572 550 572 L 450 572 L 450 120 Z"/>
    <path fill="#000000" stroke="none" transform="matrix(1 0 0 -1 4024 2689)" d="M 1427 1324 L 1427 1219 L 1277 1204 L 1277 120 L 1427 105 L 1427 0 L 957 0 L 957 105 L 1107 120 L 1107 619 L 436 619 L 436 120 L 587 105 L 587 0 L 115 0 L 115 105 L 266 120 L 266 1204 L 115 1219 L 115 1324 L 587 1324 L 587 1219 L 436 1204 L 436 749 L 1107 749 L 1107 1204 L 957 1219 L 957 1324 L 1427 1324 Z"/>
    <path fill="#000000" stroke="none" transform="matrix(1 0 0 -1 5536 2689)" d="M 1499 899 C 1526.33333333333 867 1562.33333333333 851 1607 851 C 1649 851 1682.66666666667 866.33333333333 1708 897 C 1732.66666666667 927.66666666667 1745 966.66666666667 1745 1014 C 1745 1074.66666666667 1726.66666666667 1122 1690 1156 C 1653.33333333333 1189.33333333333 1602 1206 1536 1206 C 1482 1206 1434 1191 1392 1161 C 1349.33333333333 1130.33333333333 1315.66666666667 1086.33333333333 1291 1029 C 1266.33333333333 971 1252.33333333333 899.33333333333 1249 814 L 1106 814 L 1104 886 C 1102.66666666667 942.66666666667 1092.33333333333 996 1073 1046 C 1053 1095.33333333333 1021.33333333333 1133.66666666667 978 1161 C 934.66666666667 1188.33333333333 880.66666666667 1203.33333333333 816 1206 L 816 479 C 816 316.33333333333 786.66666666667 192.66666666667 728 108 C 668.66666666667 22.66666666667 583.33333333333 -20 472 -20 C 230.66666666667 -20 110 175.66666666667 110 567 C 110 720.33333333333 136.66666666667 856 190 974 C 243.33333333333 1092 320 1183.33333333333 420 1248 C 519.33333333333 1312 637.33333333333 1344 774 1344 C 1000.66666666667 1344 1139.33333333333 1257.66666666667 1190 1085 L 1195 1085 C 1223 1167.66666666667 1266.66666666667 1231.66666666667 1326 1277 C 1385.33333333333 1321.66666666667 1456 1344 1538 1344 C 1609.33333333333 1344 1671.66666666667 1330.66666666667 1725 1304 C 1778.33333333333 1276.66666666667 1819.33333333333 1238.66666666667 1848 1190 C 1876 1141.33333333333 1890 1086 1890 1024 C 1890 938 1863.66666666667 866.66666666667 1811 810 C 1758.33333333333 752.66666666667 1690.66666666667 724 1608 724 C 1521.33333333333 724 1456 753 1412 811 L 1499 899 Z M 474 120 C 534.66666666667 120 579.33333333333 147.66666666667 608 203 C 636 258.33333333333 650 346.33333333333 650 467 L 650 1198 C 535.33333333333 1173.33333333333 445.33333333333 1104.66666666667 380 992 C 314.66666666667 878.66666666667 282 738 282 570 C 282 403.33333333333 296.66666666667 286.66666666667 326 220 C 355.33333333333 153.33333333333 404.66666666667 120 474 120 Z"/>
    <path fill="#000000" stroke="none" transform="matrix(1 0 0 -1 7416 2689)" d="M 60 253 C 124 254.33333333333 173.66666666667 273 209 309 C 243.66666666667 344.33333333333 261 391.33333333333 261 450 C 261 506 246.66666666667 551.33333333333 218 586 C 189.33333333333 620 145.66666666667 639.66666666667 87 645 L 87 767 C 193 764.33333333333 277 727 339 655 C 443 727.66666666667 528.33333333333 800.66666666667 595 874 C 661 946.66666666667 695.33333333333 1011 698 1067 L 698 1204 L 541 1219 L 541 1324 L 1014 1324 L 1014 1219 L 857 1204 L 857 1022 C 1058.33333333333 990.66666666667 1207.33333333333 929.66666666667 1304 839 C 1400 747.66666666667 1448 621.33333333333 1448 460 C 1448 372.66666666667 1428.66666666667 292.33333333333 1390 219 C 1350.66666666667 145.66666666667 1296 88.33333333333 1226 47 C 1156 5.66666666667 1076.33333333333 -15 987 -15 C 877.66666666667 -15 792 11.66666666667 730 65 C 668 117.66666666667 637 188.66666666667 637 278 C 637 363.33333333333 664.66666666667 431.66666666667 720 483 C 774.66666666667 534.33333333333 846.66666666667 560.66666666667 936 562 L 936 440 C 890.66666666667 438 855.33333333333 423.66666666667 830 397 C 804.66666666667 369.66666666667 792 333.66666666667 792 289 C 792 235 810 192.66666666667 846 162 C 881.33333333333 130.66666666667 927.33333333333 115 984 115 C 1040.66666666667 115 1091.66666666667 129.66666666667 1137 159 C 1181.66666666667 188.33333333333 1216.33333333333 229.33333333333 1241 282 C 1265 334 1277 391 1277 453 C 1277 528.33333333333 1267 590.33333333333 1247 639 C 1227 687.66666666667 1198 728.66666666667 1160 762 C 1122 794.66666666667 1072.66666666667 822.33333333333 1012 845 C 951.33333333333 867.66666666667 880.66666666667 884 800 894 C 755.33333333333 826.66666666667 696.33333333333 760 623 694 C 549.66666666667 627.33333333333 475.66666666667 570.66666666667 401 524 C 405.66666666667 498.66666666667 408 474 408 450 C 408 356.66666666667 376.33333333333 281 313 223 C 249 165 165 134.66666666667 61 132 L 60 253 Z"/>
    <path fill="#000000" stroke="none" transform="matrix(1 0 0 -1 9456 2689)" d="M 1383 1219 L 1233 1204 L 1233 414 C 1233 276 1190 169.66666666667 1104 95 C 1017.33333333333 20.33333333333 893 -17 731 -17 C 557.66666666667 -17 429.33333333333 19.33333333333 346 92 C 262 164 220 276 220 428 L 220 1204 L 70 1219 L 70 1324 L 540 1324 L 540 1219 L 388 1204 L 388 780 L 1065 780 L 1065 1204 L 913 1219 L 913 1324 L 1383 1324 L 1383 1219 Z M 731 123 C 845.66666666667 123 930 147.66666666667 984 197 C 1038 246.33333333333 1065 325.66666666667 1065 435 L 1065 650 L 388 650 L 388 444 C 388 331.33333333333 416 249.66666666667 472 199 C 527.33333333333 148.33333333333 613.66666666667 123 731 123 Z"/>
    <path fill="#000000" stroke="none" transform="matrix(1 0 0 -1 10909 2689)" d="M 334 634 C 268 634 208.33333333333 648.66666666667 155 678 C 101.66666666667 707.33333333333 59.66666666667 748.66666666667 29 802 L 115 886 C 155 847.33333333333 191.66666666667 820.33333333333 225 805 C 258.33333333333 789.66666666667 297 782 341 782 C 368.33333333333 782 396.33333333333 786.66666666667 425 796 C 453.66666666667 805.33333333333 483.66666666667 820 515 840 C 545.66666666667 859.33333333333 588.33333333333 893 643 941 C 697.66666666667 989 726 1018.33333333333 728 1029 L 728 1204 L 571 1219 L 571 1324 L 1044 1324 L 1044 1219 L 888 1204 L 888 1032 C 1065.33333333333 1013.33333333333 1198.33333333333 961.66666666667 1287 877 C 1375.66666666667 791.66666666667 1420 665.33333333333 1420 498 C 1420 402.66666666667 1397 315.33333333333 1351 236 C 1305 156 1241 93.33333333333 1159 48 C 1076.33333333333 2.66666666667 985 -20 885 -20 C 787 -20 703 -3.33333333333 633 30 C 562.33333333333 62.66666666667 507.33333333333 113 468 181 C 428.66666666667 249 409 328.33333333333 409 419 L 562 419 C 562 361 576 308.33333333333 604 261 C 631.33333333333 213.66666666667 669 178.33333333333 717 155 C 764.33333333333 131.66666666667 820.33333333333 120 885 120 C 995.66666666667 120 1084.66666666667 156 1152 228 C 1218.66666666667 300 1252 395 1252 513 C 1252 639.66666666667 1217.66666666667 735 1149 799 C 1080.33333333333 863 981 896.33333333333 851 899 C 823.66666666667 896.33333333333 779 869.66666666667 717 819 C 635.66666666667 750.33333333333 565.33333333333 702.33333333333 506 675 C 446 647.66666666667 388.66666666667 634 334 634 Z"/>
    <path fill="#000000" stroke="none" transform="matrix(1 0 0 -1 12299 2689)" d="M 822 1218 L 822 1324 L 1300 1324 L 1300 1219 L 1146 1204 L 1321 513 C 1345.66666666667 418.33333333333 1374.33333333333 294 1407 140 L 1417 140 C 1436.33333333333 214.66666666667 1456.66666666667 289.66666666667 1478 365 C 1498.66666666667 440.33333333333 1582 720 1728 1204 L 1571 1219 L 1571 1324 L 2043 1324 L 2043 1219 L 1893 1204 L 1505 0 L 1303 0 L 1138 625 C 1114 714.33333333333 1089 828.33333333333 1063 967 L 1053 967 C 1015 816.33333333333 973 668.33333333333 927 523 L 762 0 L 560 0 L 227 1204 L 76 1219 L 76 1324 L 558 1324 L 558 1219 L 409 1204 L 585 512 C 623.66666666667 357.33333333333 652.33333333333 234.33333333333 671 143 L 681 143 C 696.33333333333 204.33333333333 713.66666666667 269.33333333333 733 338 C 751.66666666667 406 834 686 980 1178 L 974 1204 L 822 1218 Z"/>
    <path fill="#000000" stroke="none" transform="matrix(1 0 0 -1 14422 2689)" d="M 436 570 L 597 760 L 1000 1209 L 856 1219 L 856 1324 L 1314 1324 L 1314 1219 L 1186 1208 L 781 771 L 1222 121 L 1353 105 L 1353 0 L 870 0 L 870 105 L 1017 120 L 664 645 L 541 511 L 436 407 L 436 120 L 587 105 L 587 0 L 115 0 L 115 105 L 267 120 L 267 1204 L 115 1219 L 115 1324 L 587 1324 L 587 1219 L 436 1204 L 436 570 Z"/>
    <path fill="#000000" stroke="none" transform="matrix(1 0 0 -1 15850 2689)" d="M 1119 779 C 1165 779 1202.33333333333 767 1231 743 C 1259 719 1273 688.33333333333 1273 651 C 1273 621 1263.33333333333 595.66666666667 1244 575 C 1224.66666666667 554.33333333333 1197.66666666667 544 1163 544 C 1137 544 1116 551 1100 565 C 1084 578.33333333333 1075.33333333333 598.66666666667 1074 626 C 1042 616.66666666667 1017.33333333333 593.33333333333 1000 556 C 982.66666666667 518.66666666667 974 470.33333333333 974 411 C 974 357.66666666667 985 309.33333333333 1007 266 C 1029 222 1061 186.66666666667 1103 160 C 1145 133.33333333333 1196 120 1256 120 C 1385.33333333333 120 1486.33333333333 170.33333333333 1559 271 C 1631 371 1667 507.33333333333 1667 680 C 1667 782 1647 873 1607 953 C 1566.33333333333 1033 1510.66666666667 1095 1440 1139 C 1368.66666666667 1182.33333333333 1290.33333333333 1204 1205 1204 C 1133.66666666667 1204 1065.66666666667 1191.66666666667 1001 1167 C 935.66666666667 1141.66666666667 882.66666666667 1107 842 1063 L 742 1150 C 788.66666666667 1211.33333333333 853.33333333333 1259 936 1293 C 1018.66666666667 1327 1110.66666666667 1344 1212 1344 C 1333.33333333333 1344 1442 1316 1538 1260 C 1634 1204 1708.66666666667 1125 1762 1023 C 1814.66666666667 921 1841 806.66666666667 1841 680 C 1841 465.33333333333 1788 295 1682 169 C 1575.33333333333 43 1430 -20 1246 -20 C 1152 -20 1071.66666666667 1.33333333333 1005 44 C 938.33333333333 86.66666666667 894.66666666667 145.33333333333 874 220 L 863 220 C 827.66666666667 142 777.66666666667 82.66666666667 713 42 C 647.66666666667 0.66666666667 573 -20 489 -20 C 353.66666666667 -20 250 18.66666666667 178 96 C 106 172.66666666667 70 280.33333333333 70 419 C 70 479 78 540 94 602 C 110 664 129 708.33333333333 151 735 L 292 729 C 275.33333333333 697 261.33333333333 656.33333333333 250 607 C 238 557 232 504.66666666667 232 450 C 232 344 254.33333333333 262.66666666667 299 206 C 343.66666666667 148.66666666667 407 120 489 120 C 574.33333333333 120 645.33333333333 149.66666666667 702 209 C 758 267.66666666667 797.66666666667 354.33333333333 821 469 C 844.33333333333 579 881 658.33333333333 931 707 C 980.33333333333 755 1043 779 1119 779 Z"/>
    <path fill="#000000" stroke="none" transform="matrix(1 0 0 -1 17856 2689)" d="M 40 455 C 45.33333333333 517.66666666667 66.66666666667 575 104 627 C 140.66666666667 678.33333333333 190 718.33333333333 252 747 C 313.33333333333 775.66666666667 381.66666666667 790 457 790 L 532 785 C 561.33333333333 824.33333333333 581 869 591 919 C 601 968.33333333333 606 1020.66666666667 606 1076 L 606 1208 L 449 1213 L 449 1324 L 922 1324 L 922 1213 L 769 1208 L 769 1040 C 777.66666666667 1013.33333333333 809.66666666667 1000 865 1000 C 892.33333333333 1000 923.33333333333 1008.66666666667 958 1026 C 992.66666666667 1043.33333333333 1040 1075.66666666667 1100 1123 C 1166 1175 1215.33333333333 1210.33333333333 1248 1229 C 1280.66666666667 1247.66666666667 1314 1262.66666666667 1348 1274 C 1381.33333333333 1284.66666666667 1416 1290 1452 1290 C 1541.33333333333 1290 1613.33333333333 1265.33333333333 1668 1216 C 1722.66666666667 1166 1750 1099.33333333333 1750 1016 C 1750 930.66666666667 1721.33333333333 859.66666666667 1664 803 C 1606.66666666667 745.66666666667 1529.33333333333 711 1432 699 L 1432 826 C 1482 835.33333333333 1523.33333333333 856.33333333333 1556 889 C 1588.66666666667 921 1605 959 1605 1003 C 1605 1051.66666666667 1590.66666666667 1087.66666666667 1562 1111 C 1532.66666666667 1133.66666666667 1495 1145 1449 1145 C 1422.33333333333 1145 1396.66666666667 1141 1372 1133 C 1347.33333333333 1124.33333333333 1322.66666666667 1112.66666666667 1298 1098 C 1273.33333333333 1082.66666666667 1232 1052.66666666667 1174 1008 C 1110 958 1064 925 1036 909 C 1007.33333333333 892.33333333333 979 879.33333333333 951 870 C 922.33333333333 860 893.66666666667 855 865 855 C 813 855 773 869 745 897 C 730.33333333333 842.33333333333 708.33333333333 793.66666666667 679 751 C 761.66666666667 715.66666666667 825.66666666667 664.66666666667 871 598 C 915.66666666667 531.33333333333 938 454.33333333333 938 367 C 938 249.66666666667 910 156.66666666667 854 88 C 797.33333333333 19.33333333333 718.33333333333 -15 617 -15 C 521.66666666667 -15 447.66666666667 12.66666666667 395 68 C 341.66666666667 122.66666666667 315 198 315 294 C 315 422.66666666667 358 545.66666666667 444 663 L 433 664 L 422 664 C 362.66666666667 664 309.33333333333 645 262 607 C 214.66666666667 568.33333333333 184.33333333333 517.66666666667 171 455 L 40 455 Z M 785 367 C 785 435.66666666667 768 494 734 542 C 699.33333333333 590 654.66666666667 623 600 641 C 550 580.33333333333 515 525.33333333333 495 476 C 475 426 465 372.66666666667 465 316 C 465 253.33333333333 478.33333333333 204.66666666667 505 170 C 531.66666666667 134.66666666667 569.66666666667 117 619 117 C 671 117 711.66666666667 138.33333333333 741 181 C 770.33333333333 223.66666666667 785 285.66666666667 785 367 Z"/>
    <path fill="#000000" stroke="none" transform="matrix(1 0 0 -1 20198 2689)" d="M 490 706 C 502.66666666667 638.66666666667 525.66666666667 590 559 560 C 591.66666666667 529.33333333333 639 514 701 514 C 778.33333333333 514 847.33333333333 531 908 565 C 968.66666666667 599 1014.33333333333 644.66666666667 1045 702 L 1045 780 C 1045 933.33333333333 1017.33333333333 1043.33333333333 962 1110 C 906 1176.66666666667 821.66666666667 1210 709 1210 C 671 1210 634.33333333333 1204.66666666667 599 1194 C 563.66666666667 1182.66666666667 538.66666666667 1169.33333333333 524 1154 C 559.33333333333 1136 577 1107.66666666667 577 1069 C 577 1040.33333333333 568 1017.66666666667 550 1001 C 531.33333333333 983.66666666667 507 975 477 975 C 442.33333333333 975 414.66666666667 985 394 1005 C 373.33333333333 1025 363 1053 363 1089 C 363 1140.33333333333 379.66666666667 1185.33333333333 413 1224 C 445.66666666667 1262 490.66666666667 1291.66666666667 548 1313 C 604.66666666667 1333.66666666667 664.66666666667 1344 728 1344 C 896 1344 1019 1297.66666666667 1097 1205 C 1174.33333333333 1112.33333333333 1213 965.66666666667 1213 765 L 1213 120 L 1364 105 L 1364 0 L 881 0 L 881 105 L 1045 120 L 1045 507 C 954.33333333333 419 839.33333333333 375 700 375 C 615.33333333333 375 546 391 492 423 C 438 455 397 504.66666666667 369 572 L 199 572 L 190 397 L 60 397 L 60 871 L 190 871 L 199 706 L 490 706 Z"/>
    <path fill="#000000" stroke="none" transform="matrix(1 0 0 -1 21622 2689)" d="M 723 817 C 799 871 875.66666666667 898 953 898 C 1037.66666666667 898 1104.66666666667 875.66666666667 1154 831 C 1203.33333333333 786.33333333333 1228 727 1228 653 C 1228 609.66666666667 1216.33333333333 573.33333333333 1193 544 C 1169.66666666667 514.66666666667 1138 500 1098 500 C 1068 500 1043.66666666667 508.33333333333 1025 525 C 1006.33333333333 541 997 563 997 591 C 997 613.66666666667 1004.66666666667 633 1020 649 C 1034.66666666667 665 1056.66666666667 674.66666666667 1086 678 C 1083.33333333333 708 1069.66666666667 731 1045 747 C 1020.33333333333 762.33333333333 987 770 945 770 C 909.66666666667 770 870.66666666667 759.33333333333 828 738 C 784.66666666667 716 749.66666666667 689.33333333333 723 658 L 723 120 L 875 105 L 875 0 L 404 0 L 404 105 L 555 120 L 555 549 C 523.66666666667 524.33333333333 487.33333333333 504.66666666667 446 490 C 404.66666666667 474.66666666667 364.33333333333 467 325 467 C 240.33333333333 467 173.33333333333 489.33333333333 124 534 C 74.66666666667 578.66666666667 50 638 50 712 C 50 756.66666666667 61.66666666667 793.33333333333 85 822 C 108.33333333333 850.66666666667 139.66666666667 865 179 865 C 207.66666666667 865 232 857 252 841 C 271.33333333333 824.33333333333 281 802 281 774 C 281 752.66666666667 274.33333333333 733.66666666667 261 717 C 247 699.66666666667 224 689.66666666667 192 687 C 194 657 208 634.33333333333 234 619 C 259.33333333333 603 292.33333333333 595 333 595 C 369 595 408 605.33333333333 450 626 C 492 646.66666666667 527 674 555 708 L 555 1204 L 404 1219 L 404 1324 L 875 1324 L 875 1219 L 723 1204 L 723 817 Z"/>
    <path fill="#000000" stroke="none" transform="matrix(1 0 0 -1 22870 2689)" d="M 802 738 L 828 687 C 962.66666666667 715 1030 801 1030 945 C 1030 1033 1001 1096.66666666667 943 1136 C 885 1174.66666666667 788.33333333333 1194 653 1194 L 435 1194 L 435 120 L 595 105 L 595 0 L 115 0 L 115 105 L 267 120 L 267 1204 L 115 1219 L 115 1324 L 676 1324 C 845.33333333333 1324 976 1293.66666666667 1068 1233 C 1159.33333333333 1172.33333333333 1205 1085 1205 971 C 1205 868.33333333333 1177.33333333333 783.66666666667 1122 717 C 1066 650.33333333333 985.33333333333 607.33333333333 880 588 L 1125 117 L 1310 105 L 1310 0 L 826 0 L 826 105 L 933 115 L 643 738 L 802 738 Z"/>
    <path fill="#000000" stroke="none" transform="matrix(1 0 0 -1 24220 2689)" d="M 527 116 C 599 116 661 138 713 182 C 765 226 802.66666666667 285.33333333333 826 360 C 677.33333333333 417.33333333333 556.66666666667 476.33333333333 464 537 C 371.33333333333 597.66666666667 303.33333333333 661 260 727 C 216.66666666667 793 195 869 195 955 C 195 1027 212 1093 246 1153 C 280 1212.33333333333 328.33333333333 1259 391 1293 C 453 1327 525 1344 607 1344 C 753.66666666667 1344 864.33333333333 1293 939 1191 C 1013.66666666667 1089 1051 940 1051 744 C 1051 598.66666666667 1029.66666666667 465.66666666667 987 345 C 943.66666666667 223.66666666667 883.66666666667 132.66666666667 807 72 C 730.33333333333 10.66666666667 637.33333333333 -20 528 -20 C 390.66666666667 -20 285 17.66666666667 211 93 C 137 167.66666666667 100 275 100 415 C 100 440.33333333333 102 461.33333333333 106 478 L 252 478 L 251 461 L 251 445 C 251 337.66666666667 274.33333333333 256 321 200 C 367 144 435.66666666667 116 527 116 Z M 605 1213 C 535 1213 476.66666666667 1188.33333333333 430 1139 C 383.33333333333 1089.66666666667 360 1029.33333333333 360 958 C 360 862.66666666667 398 780.66666666667 474 712 C 550 643.33333333333 680 571.66666666667 864 497 C 877.33333333333 574.33333333333 884 658.66666666667 884 750 C 884 911.33333333333 861.33333333333 1029 816 1103 C 770 1176.33333333333 699.66666666667 1213 605 1213 Z"/>
    <path fill="#000000" stroke="none" transform="matrix(1 0 0 -1 25416 2689)" d="M 426 782 C 480 782 527.66666666667 772 569 752 C 609.66666666667 731.33333333333 642 702.33333333333 666 665 L 676 665 C 674.66666666667 677 673 705 671 749 C 668.33333333333 793 667 829.66666666667 667 859 L 667 1204 L 515 1219 L 515 1324 L 985 1324 L 985 1219 L 835 1204 L 835 536 C 835 165.33333333333 698.66666666667 -20 426 -20 C 312 -20 221 16 153 88 C 84.33333333333 160 50 255.33333333333 50 374 C 50 498 84.33333333333 597 153 671 C 221.66666666667 745 312.66666666667 782 426 782 Z M 432 114 C 505.33333333333 114 562.33333333333 141 603 195 C 643.66666666667 249 664 322 664 414 C 664 484 643 540.66666666667 601 584 C 559 626.66666666667 505.66666666667 648 441 648 C 392.33333333333 648 350.33333333333 638 315 618 C 279.66666666667 597.33333333333 252.66666666667 566.33333333333 234 525 C 215.33333333333 483 206 434.33333333333 206 379 C 206 297.66666666667 226.33333333333 233.33333333333 267 186 C 307.66666666667 138 362.66666666667 114 432 114 Z"/>
    <path fill="#000000" stroke="none" transform="matrix(1 0 0 -1 26453 2689)" d="M 1349 105 L 1349 0 L 878 0 L 878 105 L 1029 120 L 1029 452 C 1029 555.33333333333 1008.66666666667 634 968 688 C 927.33333333333 742 862.66666666667 769 774 769 C 660 769 575 736.66666666667 519 672 C 463 606.66666666667 435 507 435 373 L 435 120 L 586 105 L 586 0 L 115 0 L 115 105 L 267 120 L 267 1204 L 115 1219 L 115 1324 L 598 1324 L 598 1219 L 435 1204 L 435 893 C 435 819 432.33333333333 763.33333333333 427 726 L 439 726 C 507.66666666667 848 625.33333333333 909 792 909 C 928 909 1029.66666666667 872.66666666667 1097 800 C 1163.66666666667 726.66666666667 1197 613.66666666667 1197 461 L 1197 120 L 1349 105 Z"/>
    <path fill="#000000" stroke="none" transform="matrix(1 0 0 -1 28394 2689)" d="M 1391 443 L 1141 443 L 1141 -143 L 992 -143 L 992 133 L 984 133 C 945.33333333333 79.66666666667 900.33333333333 41 849 17 C 797 -7.66666666667 736.66666666667 -20 668 -20 C 550.66666666667 -20 460 13.66666666667 396 81 C 332 147.66666666667 300 251 300 391 L 300 940 L 50 940 L 50 1070 L 304 1070 L 310 1324 L 468 1324 L 468 1070 L 788 1070 L 788 940 L 468 940 L 468 397 C 468 307 486.66666666667 238.33333333333 524 191 C 561.33333333333 143.66666666667 616 120 688 120 C 890.66666666667 120 992 225.66666666667 992 437 L 992 443 L 742 443 L 742 573 L 1391 573 L 1391 443 Z"/>
    <path fill="#000000" stroke="none" transform="matrix(1 0 0 -1 29795 2689)" d="M 1148 395 C 1148 264.33333333333 1101 166 1007 100 C 913 33.33333333333 773 0 587 0 L 115 0 L 115 105 L 266 120 L 266 1204 L 115 1219 L 115 1324 L 598 1324 L 598 1219 L 434 1204 L 434 768 L 617 768 C 801.66666666667 768 936.33333333333 737.33333333333 1021 676 C 1105.66666666667 614.66666666667 1148 521 1148 395 Z M 434 130 L 610 130 C 740 130 834 152 892 196 C 950 240 979 305 979 391 C 979 479 952.33333333333 542.33333333333 899 581 C 845 619 750.66666666667 638 616 638 L 434 638 L 434 130 Z"/>
    <path fill="#000000" stroke="none" transform="matrix(1 0 0 -1 31028 2689)" d="M 1313 673 C 1313 455.66666666667 1256 289.33333333333 1142 174 C 1027.33333333333 58 862 0 646 0 L 115 0 L 115 105 L 267 120 L 267 1194 L 115 1209 L 115 1324 L 685 1324 C 883 1324 1037.33333333333 1267 1148 1153 C 1258 1039 1313 879 1313 673 Z M 1139 667 C 1139 837.66666666667 1098.33333333333 968.33333333333 1017 1059 C 935 1149 815.66666666667 1194 659 1194 L 435 1194 L 435 130 L 632 130 C 800 130 926.66666666667 175.66666666667 1012 267 C 1096.66666666667 358.33333333333 1139 491.66666666667 1139 667 Z"/>
    <path fill="#000000" stroke="none" transform="matrix(1 0 0 -1 32486 2689)" d="M 453 838 C 475.66666666667 838 499 836 523 832 C 547 842.66666666667 572 856.33333333333 598 873 C 624 889.66666666667 649.66666666667 909.33333333333 675 932 C 699.66666666667 954.66666666667 721 977 739 999 C 756.33333333333 1021 765.66666666667 1043.33333333333 767 1066 L 767 1204 L 610 1219 L 610 1324 L 1083 1324 L 1083 1219 L 926 1204 L 926 1021 C 1105.33333333333 977.66666666667 1242 911.66666666667 1336 823 C 1430 733.66666666667 1477 619 1477 479 C 1477 339 1431.33333333333 223.66666666667 1340 133 C 1248 42.33333333333 1124.66666666667 -9 970 -21 L 970 111 C 1198.66666666667 151 1313 273.33333333333 1313 478 C 1313 595.33333333333 1273.33333333333 688.66666666667 1194 758 C 1114.66666666667 826.66666666667 999 875.66666666667 847 905 C 787.66666666667 852.33333333333 730 810 674 778 C 727.33333333333 740 767.66666666667 691.33333333333 795 632 C 821.66666666667 572.66666666667 835 506.66666666667 835 434 C 835 309.33333333333 800.66666666667 208.33333333333 732 131 C 663.33333333333 53.66666666667 570.33333333333 15 453 15 C 333 15 239.33333333333 51 172 123 C 104 195 70 293.66666666667 70 419 C 70 544.33333333333 104.66666666667 645.66666666667 174 723 C 242.66666666667 799.66666666667 335.66666666667 838 453 838 Z M 453 143 C 524.33333333333 143 580 168.66666666667 620 220 C 659.33333333333 271.33333333333 679 341.33333333333 679 430 C 679 518.66666666667 659.33333333333 587.33333333333 620 636 C 580 684.66666666667 524.33333333333 709 453 709 C 382.33333333333 709 327 683.66666666667 287 633 C 246.33333333333 581.66666666667 226 511.66666666667 226 423 C 226 336.33333333333 246 268 286 218 C 325.33333333333 168 381 143 453 143 Z"/>
    <path fill="#000000" stroke="none" transform="matrix(1 0 0 -1 34023 2689)" d="M 561 1206 C 478.33333333333 1206 414 1187.66666666667 368 1151 C 322 1114.33333333333 299 1064.33333333333 299 1001 C 299 962.33333333333 308.33333333333 929 327 901 C 345 872.33333333333 373 846 411 822 C 449 797.33333333333 511.66666666667 767.33333333333 599 732 C 694.33333333333 693.33333333333 765 657 811 623 C 857 589 891.66666666667 550.33333333333 915 507 C 938.33333333333 463.66666666667 950 413.33333333333 950 356 C 950 240 910 148.33333333333 830 81 C 749.33333333333 13.66666666667 638 -20 496 -20 C 421.33333333333 -20 349 -10.33333333333 279 9 C 209 27.66666666667 154.33333333333 51.66666666667 115 81 L 115 334 L 244 334 L 256 171 C 312 137 393.66666666667 120 501 120 C 687.66666666667 120 781 193.66666666667 781 341 C 781 379 772.66666666667 412 756 440 C 739.33333333333 467.33333333333 713.66666666667 492.66666666667 679 516 C 643.66666666667 539.33333333333 574.33333333333 572.33333333333 471 615 C 347.66666666667 663 261.33333333333 716.66666666667 212 776 C 162.66666666667 835.33333333333 138 908 138 994 C 138 1097.33333333333 177.33333333333 1181 256 1245 C 334 1308.33333333333 436 1340 562 1340 C 632 1340 699.66666666667 1332 765 1316 C 830.33333333333 1300 882.66666666667 1277.66666666667 922 1249 L 922 996 L 793 996 L 781 1162 C 733.66666666667 1191.33333333333 660.33333333333 1206 561 1206 Z"/>
    <path fill="#000000" stroke="none" transform="matrix(1 0 0 -1 35097 2689)" d="M 814 0 L 432 1186 L 407 1186 C 414.33333333333 1058 418 880.33333333333 418 653 L 418 120 L 546 105 L 546 0 L 115 0 L 115 105 L 265 120 L 265 1204 L 115 1219 L 115 1324 L 575 1324 L 812 505 C 858.66666666667 341 888.33333333333 228.66666666667 901 168 L 909 168 C 916.33333333333 196.66666666667 926.66666666667 233.66666666667 940 279 C 952.66666666667 323.66666666667 1059.66666666667 672 1261 1324 L 1707 1324 L 1707 1219 L 1557 1204 L 1557 120 L 1707 105 L 1707 0 L 1261 0 L 1261 105 L 1391 120 L 1391 656 C 1391 848.66666666667 1392.33333333333 1025 1395 1185 L 1370 1185 L 984 0 L 814 0 Z"/>
    <path fill="#000000" stroke="none" transform="matrix(1 0 0 -1 37451 2689)" d="M 583 1194 L 244 1194 L 229 987 L 100 987 L 100 1324 L 965 1324 L 965 1194 L 747 1194 L 747 766 C 747 645.33333333333 738 436.33333333333 720 139 L 728 139 C 736 169 796 298.66666666667 908 528 L 1309 1324 L 1492 1324 L 784 0 L 583 0 L 583 1194 Z"/>
    <path fill="#000000" stroke="none" transform="matrix(1 0 0 -1 38793 2689)" d="M 174 573 C 176.66666666667 477 202 394 250 324 C 297.33333333333 253.33333333333 363.33333333333 201.66666666667 448 169 L 448 873 C 448 1019.66666666667 487.33333333333 1135 566 1219 C 644 1302.33333333333 752 1344 890 1344 C 962.66666666667 1344 1029.66666666667 1331 1091 1305 C 1151.66666666667 1278.33333333333 1199 1242 1233 1196 C 1266.33333333333 1149.33333333333 1283 1098.33333333333 1283 1043 C 1283 991 1270.33333333333 944.33333333333 1245 903 C 1219 861.66666666667 1179 821.33333333333 1125 782 L 991 689 L 991 679 C 1099 640.33333333333 1178 596 1228 546 C 1278 496 1303 435.33333333333 1303 364 C 1303 245.33333333333 1256 151.66666666667 1162 83 C 1067.33333333333 14.33333333333 937.66666666667 -20 773 -20 C 749.66666666667 -20 721 -18.33333333333 687 -15 C 652.33333333333 -12.33333333333 628 -9.66666666667 614 -7 L 614 -492 L 448 -492 L 448 21 C 307.33333333333 63 202.66666666667 129.33333333333 134 220 C 64.66666666667 310.66666666667 30 428.33333333333 30 573 L 174 573 Z M 769 120 C 884.33333333333 120 974.66666666667 141 1040 183 C 1105.33333333333 225 1138 282 1138 354 C 1138 395.33333333333 1123.66666666667 431 1095 461 C 1066.33333333333 491 1021.33333333333 518 960 542 C 923.33333333333 555.33333333333 895.33333333333 571 876 589 C 856.66666666667 606.33333333333 847 631.33333333333 847 664 C 847 688.66666666667 854.33333333333 711 869 731 C 883 751 920.33333333333 785 981 833 C 1037 878.33333333333 1074 915.33333333333 1092 944 C 1110 972.66666666667 1119 1004 1119 1038 C 1119 1090 1099 1131.33333333333 1059 1162 C 1018.33333333333 1192.66666666667 962 1208 890 1208 C 803.33333333333 1208 735.66666666667 1181 687 1127 C 638.33333333333 1073 614 999.66666666667 614 907 L 614 131 C 665.33333333333 123.66666666667 717 120 769 120 Z"/>
    <path fill="#000000" stroke="none" transform="matrix(1 0 0 -1 40211 2689)" d="M 1214 383 C 1214 305.66666666667 1193.33333333333 236.33333333333 1152 175 C 1110.66666666667 113.66666666667 1052.33333333333 66 977 32 C 901 -2.66666666667 814 -20 716 -20 C 525.33333333333 -20 377.66666666667 38 273 154 C 167.66666666667 270 115 435 115 649 C 115 789.66666666667 139.66666666667 912.33333333333 189 1017 C 237.66666666667 1121.66666666667 309.33333333333 1202.33333333333 404 1259 C 498.66666666667 1315.66666666667 611 1344 741 1344 C 823 1344 906.33333333333 1329.33333333333 991 1300 C 1075.66666666667 1270.66666666667 1137.66666666667 1233.33333333333 1177 1188 L 1177 959 L 1041 959 L 1031 1124 C 1002.33333333333 1148 961.33333333333 1167.33333333333 908 1182 C 854 1196.66666666667 798.33333333333 1204 741 1204 C 593 1204 480.66666666667 1157.33333333333 404 1064 C 327.33333333333 970 289 833.33333333333 289 654 C 289 480 326.33333333333 347.66666666667 401 257 C 475.66666666667 165.66666666667 583.66666666667 120 725 120 C 827.66666666667 120 910 143 972 189 C 1034 234.33333333333 1065 295.66666666667 1065 373 C 1065 441.66666666667 1049.66666666667 493.66666666667 1019 529 C 987.66666666667 563.66666666667 934 581 858 581 L 853 409 L 723 409 L 723 867 L 853 867 L 858 708 C 976.66666666667 704.66666666667 1065.66666666667 676.33333333333 1125 623 C 1184.33333333333 569.66666666667 1214 489.66666666667 1214 383 Z"/>
    <path fill="#000000" stroke="none" transform="matrix(1 0 0 -1 41540 2689)" d="M 965 130 C 1107 130 1232 157.66666666667 1340 213 C 1448 267.66666666667 1531.66666666667 347.33333333333 1591 452 C 1649.66666666667 556.66666666667 1679 679 1679 819 C 1679 943.66666666667 1660 1036.33333333333 1622 1097 C 1584 1157.66666666667 1526 1188 1448 1188 C 1392.66666666667 1188 1347.33333333333 1171 1312 1137 C 1276 1103 1258 1058.33333333333 1258 1003 C 1258 953 1270 913 1294 883 C 1318 852.33333333333 1353.33333333333 835 1400 831 L 1400 691 C 1309.33333333333 693.66666666667 1238.66666666667 722.66666666667 1188 778 C 1137.33333333333 832.66666666667 1112 904.66666666667 1112 994 C 1112 1055.33333333333 1126.33333333333 1111.66666666667 1155 1163 C 1183 1213.66666666667 1222.33333333333 1253.33333333333 1273 1282 C 1323.66666666667 1310 1381.66666666667 1324 1447 1324 C 1531 1324 1602.33333333333 1304 1661 1264 C 1719.66666666667 1223.33333333333 1764 1165.66666666667 1794 1091 C 1824 1015.66666666667 1839 928 1839 828 C 1839 660.66666666667 1804.33333333333 513.33333333333 1735 386 C 1665 258 1564 159.33333333333 1432 90 C 1299.33333333333 20 1143 -15 963 -15 C 793.66666666667 -15 645.33333333333 20 518 90 C 390.66666666667 160 291.66666666667 259.33333333333 221 388 C 150.33333333333 516 115 659.66666666667 115 819 C 115 983.66666666667 151.33333333333 1112.33333333333 224 1205 C 296 1297.66666666667 394.33333333333 1344 519 1344 C 627 1344 713 1305 777 1227 C 841 1148.33333333333 873 1042.33333333333 873 909 C 873 809.66666666667 862 724.66666666667 840 654 C 817.33333333333 583.33333333333 782.33333333333 514.66666666667 735 448 C 687 381.33333333333 624.33333333333 318 547 258 C 669.66666666667 172.66666666667 809 130 965 130 Z M 287 830 C 287 634.66666666667 340.66666666667 473.66666666667 448 347 C 510.66666666667 399.66666666667 560.66666666667 455 598 513 C 634.66666666667 571 661.66666666667 630 679 690 C 696.33333333333 749.33333333333 705 822 705 908 C 705 1005.33333333333 688.66666666667 1079.66666666667 656 1131 C 623.33333333333 1182.33333333333 576.33333333333 1208 515 1208 C 441 1208 384.66666666667 1176.66666666667 346 1114 C 306.66666666667 1050.66666666667 287 956 287 830 Z"/>
    <path fill="#000000" stroke="none" transform="matrix(1 0 0 -1 43454 2689)" d="M 1194 118 C 1198.66666666667 133.33333333333 1220.66666666667 199 1260 315 C 1299.33333333333 431 1422.33333333333 767.33333333333 1629 1324 L 1810 1324 L 1285 0 L 1074 0 L 913 480 L 725 0 L 514 0 L 60 1324 L 249 1324 L 514 498 C 564 335.33333333333 602.33333333333 208.66666666667 629 118 L 637 118 L 844 686 L 630 1324 L 807 1324 L 942 864 L 1101 1324 L 1267 1324 L 1015 671 C 1092.33333333333 432.33333333333 1149.33333333333 248 1186 118 L 1194 118 Z"/>
    <path fill="#000000" stroke="none" transform="matrix(1 0 0 -1 45314 2689)" d="M 435 725 L 770 929 L 778 926 C 804 820 831.66666666667 743.66666666667 861 697 C 889.66666666667 650.33333333333 927 627 973 627 C 1017.66666666667 627 1054.66666666667 645.33333333333 1084 682 C 1113.33333333333 718.66666666667 1136.33333333333 783.66666666667 1153 877 L 1275 865 C 1260.33333333333 731.66666666667 1227.33333333333 634.66666666667 1176 574 C 1124.66666666667 513.33333333333 1054 483 964 483 C 894 483 836.66666666667 503.66666666667 792 545 C 747.33333333333 586.33333333333 712.33333333333 646.66666666667 687 726 L 435 577 L 435 120 L 585 105 L 585 0 L 115 0 L 115 105 L 267 120 L 267 1204 L 115 1219 L 115 1324 L 585 1324 L 585 1219 L 435 1204 L 435 725 Z"/>
</svg>
