<svg width="34678" height="3308" viewBox="0 0 34678 3308" xmlns="http://www.w3.org/2000/svg">
    <defs/>
    <path fill="#000000" stroke="none" transform="matrix(1 0 0 -1 0 1982)" d="M 1144 1009 L 1144 -326 L 994 -326 L 994 529 C 950.66666666667 497 904.33333333333 473.66666666667 855 459 C 805.66666666667 443.66666666667 749 436 685 436 L 672 436 L 657 437 C 674.33333333333 372.33333333333 683 317 683 271 C 683 181.66666666667 655 114.33333333333 599 69 C 543 23 461.33333333333 0 354 0 L 100 0 L 100 155 L 359 155 C 423 155 468 165.33333333333 494 186 C 520 206 533 238 533 282 C 533 358 494 464 416 600 L 540 690 C 560.66666666667 656.66666666667 580.33333333333 622.33333333333 599 587 L 655 583 C 729 583 796.33333333333 593.33333333333 857 614 C 917 634 962.66666666667 661.66666666667 994 697 L 994 1009 L 1144 1009 Z"/>
    <path fill="#000000" stroke="none" transform="matrix(1 0 0 -1 1846 1982)" d="M 793 -37 C 693.66666666667 -99.66666666667 585 -176.33333333333 467 -267 C 349 -357.66666666667 278.66666666667 -418.33333333333 256 -449 C 274.66666666667 -467.66666666667 344.33333333333 -499.66666666667 465 -545 C 585 -590.33333333333 709.66666666667 -631.33333333333 839 -668 L 782 -826 C 696.66666666667 -806 584 -769.66666666667 444 -717 C 303.33333333333 -664.33333333333 213.66666666667 -622.33333333333 175 -591 C 135.66666666667 -559.66666666667 116 -521.66666666667 116 -477 C 116 -419 138 -364.66666666667 182 -314 C 226 -263.33333333333 309 -196 431 -112 L 568 -17 C 442.66666666667 5.66666666667 351 25.66666666667 293 43 C 221 63.66666666667 185 107 185 173 C 185 207.66666666667 192 238.66666666667 206 266 C 219.33333333333 293.33333333333 242.66666666667 325.66666666667 276 363 C 309.33333333333 400.33333333333 354 444 410 494 C 465.33333333333 543.33333333333 522 589.66666666667 580 633 C 638 675.66666666667 690.33333333333 711 737 739 L 818 614 C 780.66666666667 590 724.33333333333 549.66666666667 649 493 C 573.66666666667 435.66666666667 502.66666666667 377.33333333333 436 318 C 369.33333333333 258.66666666667 330.66666666667 218 320 196 C 342.66666666667 186.66666666667 408.66666666667 171 518 149 C 627.33333333333 126.33333333333 719 108.66666666667 793 96 L 793 -37 Z"/>
    <path fill="#000000" stroke="none" transform="matrix(1 0 0 -1 2820 1982)" d="M 0 0 C -22 0 -41 7 -57 21 C -73 34.33333333333 -81 53.33333333333 -81 78 C -81 102 -73 121 -57 135 C -41 148.33333333333 -22 155 0 155 L 773 155 L 773 486 L 188 486 L 188 1009 L 338 1009 L 338 636 L 773 636 L 773 1009 L 924 1009 L 924 155 L 1136 155 L 1136 0 L 0 0 Z"/>
    <path fill="#000000" stroke="none" transform="matrix(1 0 0 -1 3956 1982)" d="M 534 -780 C 459.33333333333 -630.66666666667 395.33333333333 -496 342 -376 C 310.66666666667 -304.66666666667 275.33333333333 -237.66666666667 236 -175 C 196 -112.33333333333 159 -67.33333333333 125 -40 C 90.33333333333 -13.33333333333 48.66666666667 0 0 0 C -22.66666666667 0 -41.66666666667 7 -57 21 C -73 34.33333333333 -81 53.33333333333 -81 78 C -81 102 -73 121 -57 135 C -41.66666666667 148.33333333333 -22.66666666667 155 0 155 C 72 155 135.66666666667 138 191 104 C 246.33333333333 69.33333333333 297.33333333333 17 344 -53 C 390 -123.66666666667 456.33333333333 -257.66666666667 543 -455 L 609 -607 C 666.33333333333 -536.33333333333 730.66666666667 -439.66666666667 802 -317 C 872.66666666667 -194.33333333333 923.33333333333 -88.66666666667 954 0 L 817 0 C 709 0 627 25.33333333333 571 76 C 514.33333333333 126 486 198.33333333333 486 293 C 486 356.33333333333 502.33333333333 419.33333333333 535 482 C 567.66666666667 544 610.33333333333 592 663 626 C 715.66666666667 660 774.33333333333 677 839 677 C 905.66666666667 677 964.33333333333 662.33333333333 1015 633 C 1065.66666666667 603.66666666667 1105 563 1133 511 C 1161 459 1175 402.66666666667 1175 342 C 1175 271.33333333333 1167.66666666667 209 1153 155 L 1331 155 L 1331 0 L 1111 0 C 1005 -276.66666666667 847.33333333333 -536.66666666667 638 -780 L 534 -780 Z M 629 315 C 629 208.33333333333 692.33333333333 155 819 155 L 1004 155 C 1020 198.33333333333 1028 254 1028 322 C 1028 384 1010 434 974 472 C 938 510 892 529 836 529 C 798.66666666667 529 764.33333333333 518.66666666667 733 498 C 701 477.33333333333 675.66666666667 450.33333333333 657 417 C 638.33333333333 383.66666666667 629 349.66666666667 629 315 Z"/>
    <path fill="#000000" stroke="none" transform="matrix(1 0 0 -1 5287 1982)" d="M 0 0 C -22.66666666667 0 -41.66666666667 7 -57 21 C -73 34.33333333333 -81 53.33333333333 -81 78 C -81 102 -73 121 -57 135 C -41.66666666667 148.33333333333 -22.66666666667 155 0 155 L 108 155 C 172 155 217 165.33333333333 243 186 C 269 206 282 238 282 282 C 282 358 243 464 165 600 L 290 690 C 336 618.66666666667 371.33333333333 546.33333333333 396 473 C 420 399.66666666667 432 332.33333333333 432 271 C 432 90.33333333333 325.66666666667 0 113 0 L 0 0 Z"/>
    <path fill="#000000" stroke="none" transform="matrix(1 0 0 -1 5879 1982)" d="M 809 155 C 806.33333333333 244.33333333333 797 316 781 370 C 765 423.33333333333 741.66666666667 461.66666666667 711 485 C 680.33333333333 508.33333333333 637.66666666667 520 583 520 C 531 520 481.66666666667 505.33333333333 435 476 C 388.33333333333 446.66666666667 350.66666666667 408.33333333333 322 361 C 293.33333333333 313 279 267 279 223 C 279 203.66666666667 285.33333333333 187.66666666667 298 175 C 310 161.66666666667 328.66666666667 155 354 155 L 809 155 Z M 1117 155 L 1117 0 L 335 0 C 270.33333333333 0 220 17.33333333333 184 52 C 148 86 130 132.33333333333 130 191 C 130 273 150.66666666667 351.33333333333 192 426 C 233.33333333333 500 290.33333333333 559.33333333333 363 604 C 435 648 513 670 597 670 C 837 670 960 498.33333333333 966 155 L 1117 155 Z"/>
    <path fill="#000000" stroke="none" transform="matrix(1 0 0 -1 6996 1982)" d="M 0 0 C -22.66666666667 0 -41.66666666667 7 -57 21 C -73 34.33333333333 -81 53.33333333333 -81 78 C -81 102 -73 121 -57 135 C -41.66666666667 148.33333333333 -22.66666666667 155 0 155 L 1138 155 L 1138 486 L 166 486 L 166 613 C 179.33333333333 623 195.66666666667 637.66666666667 215 657 C 233.66666666667 675.66666666667 341.66666666667 796.33333333333 539 1019 L 650 943 L 507 777 C 498.33333333333 767 479.66666666667 747.66666666667 451 719 C 421.66666666667 690.33333333333 389.66666666667 662.66666666667 355 636 L 1138 636 L 1138 998 L 1288 998 L 1288 0 L 0 0 Z"/>
    <path fill="#000000" stroke="none" transform="matrix(1 0 0 -1 8986 1982)" d="M 1194 0 C 1114 0 1053.33333333333 27.33333333333 1012 82 C 996 14.66666666667 966 -75 922 -187 C 877.33333333333 -299 829.33333333333 -402 778 -496 C 726.66666666667 -590 674.33333333333 -671.33333333333 621 -740 L 515 -740 C 434.33333333333 -591.33333333333 358.33333333333 -402.66666666667 287 -174 C 215 54 166 271.66666666667 140 479 L 283 505 C 319.66666666667 297.66666666667 362.66666666667 110.66666666667 412 -56 C 461.33333333333 -223.33333333333 519.66666666667 -389.33333333333 587 -554 C 632.33333333333 -482 678.66666666667 -393.33333333333 726 -288 C 773.33333333333 -182.66666666667 812.66666666667 -78.66666666667 844 24 C 874.66666666667 126.66666666667 892 212.66666666667 896 282 L 896 326 L 895 382 L 1032 402 C 1038.66666666667 375.33333333333 1042 339 1042 293 L 1042 273 C 1048 237.66666666667 1064 209.33333333333 1090 188 C 1115.33333333333 166 1147 155 1185 155 C 1307.66666666667 155 1369 236 1369 398 L 1508 414 L 1510 385 L 1510 356 C 1510 325.33333333333 1507.66666666667 298.33333333333 1503 275 C 1512.33333333333 235.66666666667 1536.33333333333 206 1575 186 C 1613.66666666667 165.33333333333 1661.66666666667 155 1719 155 L 1724 155 L 1724 0 L 1713 0 C 1575.66666666667 0 1482 42.33333333333 1432 127 C 1375.33333333333 42.33333333333 1296 0 1194 0 Z"/>
    <path fill="#000000" stroke="none" transform="matrix(1 0 0 -1 10710 1982)" d="M 383 121 C 318.33333333333 40.33333333333 210.66666666667 0 60 0 L 0 0 C -22 0 -41 7 -57 21 C -73 34.33333333333 -81 53.33333333333 -81 78 C -81 102 -73 121 -57 135 C -41 148.33333333333 -22 155 0 155 L 80 155 C 164.66666666667 155 227 172.66666666667 267 208 C 306.33333333333 243.33333333333 326 302.66666666667 326 386 L 464 402 L 466 379 L 466 356 C 466 328.66666666667 464 302 460 276 C 466 238.66666666667 482.33333333333 209.33333333333 509 188 C 535 166 566.66666666667 155 604 155 C 714 155 769 218.66666666667 769 346 L 767 391 L 904 417 C 908.66666666667 395.66666666667 911 364.33333333333 911 323 L 911 298 L 910 276 C 915.33333333333 195.33333333333 946.33333333333 155 1003 155 L 1003 0 C 963 0 926.66666666667 10 894 30 C 860.66666666667 49.33333333333 836 76 820 110 C 773.33333333333 36.66666666667 703.33333333333 0 610 0 C 508 0 432.33333333333 40.33333333333 383 121 Z"/>
    <path fill="#000000" stroke="none" transform="matrix(1 0 0 -1 11713 1982)" d="M 362 1075 C 362 1047.66666666667 364 1025.66666666667 368 1009 C 392 1001.66666666667 429.33333333333 998 480 998 C 550 998 603.33333333333 1010.33333333333 640 1035 C 676.66666666667 1059.66666666667 695 1094.66666666667 695 1140 C 695 1192.66666666667 680.33333333333 1235.33333333333 651 1268 C 621.66666666667 1300.66666666667 583.66666666667 1317 537 1317 C 485.66666666667 1317 443.66666666667 1294.66666666667 411 1250 C 378.33333333333 1205.33333333333 362 1147 362 1075 Z M 0 0 C -22.66666666667 0 -41.66666666667 7 -57 21 C -73 34.33333333333 -81 53.33333333333 -81 78 C -81 102 -73 121 -57 135 C -41.66666666667 148.33333333333 -22.66666666667 155 0 155 L 683 155 L 580 282 C 333.33333333333 584.66666666667 210 845.33333333333 210 1064 C 210 1134 223.66666666667 1200 251 1262 C 278.33333333333 1323.33333333333 316.33333333333 1372 365 1408 C 413.66666666667 1444 471 1462 537 1462 C 595.66666666667 1462 648.66666666667 1447.33333333333 696 1418 C 742.66666666667 1388.66666666667 778.66666666667 1349 804 1299 C 829.33333333333 1249 842 1194.33333333333 842 1135 C 842 1047 812 979.33333333333 752 932 C 692 884.66666666667 606 861 494 861 L 395 866 C 426.33333333333 776 490 663.33333333333 586 528 C 682 392 782 267.66666666667 886 155 L 1008 155 L 1008 0 L 0 0 Z"/>
    <path fill="#000000" stroke="none" transform="matrix(1 0 0 -1 12721 1982)" d="M 404 -754 L 264 -339 C 214.66666666667 -195 180.33333333333 -108.33333333333 161 -79 C 142.33333333333 -51 122 -30.66666666667 100 -18 C 77.33333333333 -6 44 0 0 0 C -22.66666666667 0 -41.66666666667 7 -57 21 C -73 34.33333333333 -81 53.33333333333 -81 78 C -81 102 -73 121 -57 135 C -41.66666666667 148.33333333333 -22.66666666667 155 0 155 C 88.66666666667 155 159.33333333333 134.33333333333 212 93 C 264.66666666667 51.66666666667 308 -15 342 -107 C 366.66666666667 -172.33333333333 414 -318.33333333333 484 -545 C 562 -412.33333333333 634 -261.66666666667 700 -93 C 766 75.66666666667 802.66666666667 214 810 322 C 810 374.66666666667 807.66666666667 429 803 485 L 945 505 C 952.33333333333 485 956 434.33333333333 956 353 C 956 213.66666666667 913.33333333333 39.66666666667 828 -169 C 742 -377.66666666667 634.33333333333 -572.66666666667 505 -754 L 404 -754 Z"/>
    <path fill="#000000" stroke="none" transform="matrix(1 0 0 -1 13815 1982)" d="M 1114 0 L 986 -492 L 835 -492 C 814.33333333333 -401.33333333333 798 -322.33333333333 786 -255 L 736 0 L 513 0 C 395.66666666667 0 304.33333333333 28.33333333333 239 85 C 173 141 140 218 140 316 C 140 378.66666666667 154.33333333333 439.33333333333 183 498 C 211.66666666667 556.66666666667 251.33333333333 603.33333333333 302 638 C 352.66666666667 672.66666666667 409 690 471 690 C 523 690 567.66666666667 682.66666666667 605 668 C 641.66666666667 653.33333333333 675 629.33333333333 705 596 C 735 562 760.33333333333 517 781 461 C 801.66666666667 405 826 294.66666666667 854 130 C 881.33333333333 -34.66666666667 898.66666666667 -181 906 -309 L 925 -309 C 939 -209 957.33333333333 -101.33333333333 980 14 C 1002 129.33333333333 1025 230.66666666667 1049 318 C 1073 405.33333333333 1100.33333333333 474.66666666667 1131 526 C 1161 576.66666666667 1198.33333333333 616.66666666667 1243 646 C 1287.66666666667 675.33333333333 1344 690 1412 690 C 1474.66666666667 690 1530 675 1578 645 C 1626 615 1663.33333333333 573.33333333333 1690 520 C 1716.66666666667 466 1730 407.33333333333 1730 344 C 1730 267.33333333333 1708.66666666667 204.33333333333 1666 155 L 1888 155 L 1888 0 L 1114 0 Z M 287 329 C 287 271.66666666667 306.66666666667 228.33333333333 346 199 C 385.33333333333 169.66666666667 442.33333333333 155 517 155 L 701 155 C 691.66666666667 204.33333333333 682.33333333333 252.33333333333 673 299 C 663.66666666667 345 651 386 635 422 C 619 457.33333333333 598.66666666667 486 574 508 C 548.66666666667 529.33333333333 516.33333333333 540 477 540 C 439.66666666667 540 406.66666666667 530.33333333333 378 511 C 349.33333333333 491 327 464.66666666667 311 432 C 295 399.33333333333 287 365 287 329 Z M 1415 540 C 1374.33333333333 540 1340 529.33333333333 1312 508 C 1284 486 1259.33333333333 453.33333333333 1238 410 C 1216 366 1187.66666666667 281 1153 155 L 1345 155 C 1419.66666666667 155 1477 171 1517 203 C 1557 235 1577 280.66666666667 1577 340 C 1577 402 1562.33333333333 451 1533 487 C 1503.66666666667 522.33333333333 1464.33333333333 540 1415 540 Z"/>
    <path fill="#000000" stroke="none" transform="matrix(1 0 0 -1 15703 1982)" d="M 862 920 L 632 754 C 560 706 493.33333333333 666.66666666667 432 636 L 1018 636 C 1124 636 1206.33333333333 609 1265 555 C 1323 500.33333333333 1352 422.33333333333 1352 321 C 1352 218.33333333333 1322.33333333333 139.33333333333 1263 84 C 1203.66666666667 28 1122 0 1018 0 L 0 0 C -22.66666666667 0 -41.66666666667 7 -57 21 C -73 34.33333333333 -81 53.33333333333 -81 78 C -81 102 -73 121 -57 135 C -41.66666666667 148.33333333333 -22.66666666667 155 0 155 L 1018 155 C 1076.66666666667 155 1122 169.33333333333 1154 198 C 1186 226.66666666667 1202 267.33333333333 1202 320 C 1202 372 1186.33333333333 412.66666666667 1155 442 C 1123 471.33333333333 1077.33333333333 486 1018 486 L 166 486 L 166 597 C 212 620.33333333333 266 654.66666666667 328 700 L 769 1020 L 862 920 Z"/>
    <path fill="#000000" stroke="none" transform="matrix(1 0 0 -1 17747 1982)" d="M 1230 0 L 80 0 L 80 155 L 346 155 L 757 1206 C 791.66666666667 1296.66666666667 837.33333333333 1365.33333333333 894 1412 C 950 1458.66666666667 1013 1482 1083 1482 C 1160.33333333333 1482 1221.66666666667 1457.66666666667 1267 1409 C 1311.66666666667 1359.66666666667 1334 1292.33333333333 1334 1207 C 1334 1163 1326 1108.33333333333 1310 1043 C 1293.33333333333 977.66666666667 1264.66666666667 890 1224 780 L 993 155 L 1230 155 L 1230 0 Z M 509 155 L 824 155 L 1077 818 C 1117.66666666667 926.66666666667 1145.66666666667 1009.33333333333 1161 1066 C 1175.66666666667 1122.66666666667 1183 1167.66666666667 1183 1201 C 1183 1243.66666666667 1173.33333333333 1276.66666666667 1154 1300 C 1134.66666666667 1322.66666666667 1108 1334 1074 1334 C 1004.66666666667 1334 946.33333333333 1272.66666666667 899 1150 L 509 155 Z"/>
    <path fill="#000000" stroke="none" transform="matrix(1 0 0 -1 19131 1982)" d="M 1463 0 L 275 0 C 185 0 140 42.66666666667 140 128 C 140 200 182 293.33333333333 266 408 C 350 522.66666666667 441.66666666667 618.33333333333 541 695 L 645 604 C 575 542.66666666667 501.33333333333 464 424 368 C 346 272 300.33333333333 201 287 155 L 920 155 C 916.66666666667 170.33333333333 915 190 915 214 C 915 281.33333333333 948.33333333333 358.66666666667 1015 446 C 1081.66666666667 533.33333333333 1166 616.33333333333 1268 695 L 1372 604 C 1288.66666666667 536 1216.66666666667 465.33333333333 1156 392 C 1095.33333333333 318.66666666667 1065 264.33333333333 1065 229 C 1065 197.66666666667 1075.66666666667 177.66666666667 1097 169 C 1117.66666666667 159.66666666667 1150.66666666667 155 1196 155 L 1463 155 L 1463 0 Z"/>
    <path fill="#000000" stroke="none" transform="matrix(1 0 0 -1 20694 1982)" d="M 260 124 C 199.33333333333 41.33333333333 114.33333333333 0 5 0 L 0 0 C -22.66666666667 0 -41.66666666667 7 -57 21 C -73 34.33333333333 -81 53.33333333333 -81 78 C -81 102 -73 121 -57 135 C -41.66666666667 148.33333333333 -22.66666666667 155 0 155 L 10 155 C 72 155 119.33333333333 175.33333333333 152 216 C 184.66666666667 256 201 312.66666666667 201 386 L 344 402 L 346 379 L 346 356 C 346 329.33333333333 344 303 340 277 C 352.66666666667 229.66666666667 394.66666666667 195.33333333333 466 174 C 548.66666666667 345.33333333333 638.66666666667 471 736 551 C 832.66666666667 630.33333333333 940 670 1058 670 C 1139.33333333333 670 1210.66666666667 652.33333333333 1272 617 C 1332.66666666667 581 1379.66666666667 531.66666666667 1413 469 C 1445.66666666667 405.66666666667 1462 336 1462 260 C 1462 218.66666666667 1454.33333333333 183.66666666667 1439 155 L 1621 155 L 1621 0 L 619 0 C 529.66666666667 0 457 10 401 30 C 345 49.33333333333 298 80.66666666667 260 124 Z M 1061 519 C 978.33333333333 519 897.66666666667 486.33333333333 819 421 C 739.66666666667 355 674.33333333333 266.33333333333 623 155 L 1186 155 C 1270 155 1312 187.66666666667 1312 253 C 1312 334.33333333333 1289 399 1243 447 C 1197 495 1136.33333333333 519 1061 519 Z"/>
    <path fill="#000000" stroke="none" transform="matrix(1 0 0 -1 22315 1982)" d="M 0 0 C -22.66666666667 0 -41.66666666667 7 -57 21 C -73 34.33333333333 -81 53.33333333333 -81 78 C -81 102 -73 121 -57 135 C -41.66666666667 148.33333333333 -22.66666666667 155 0 155 L 233 155 L 233 1422 L 383 1422 L 383 0 L 0 0 Z"/>
    <path fill="#000000" stroke="none" transform="matrix(1 0 0 -1 22898 1982)" d="M 640 0 L 255 0 C 165 0 120 42.66666666667 120 128 C 120 200 162 293.33333333333 246 408 C 330 522.66666666667 421.66666666667 618.33333333333 521 695 L 616 604 C 555.33333333333 550.66666666667 485.66666666667 475 407 377 C 327.66666666667 279 281 205 267 155 L 640 155 L 640 0 Z"/>
    <path fill="#000000" stroke="none" transform="matrix(1 0 0 -1 23538 1982)" d="M 535 -780 C 491 -693.33333333333 441.33333333333 -589.33333333333 386 -468 C 328.66666666667 -342.66666666667 279.66666666667 -247.66666666667 239 -183 C 197.66666666667 -118.33333333333 159.66666666667 -71.66666666667 125 -43 C 89.66666666667 -14.33333333333 48 0 0 0 C -22 0 -41 7 -57 21 C -73 34.33333333333 -81 53.33333333333 -81 78 C -81 102 -73 121 -57 135 C -41 148.33333333333 -22 155 0 155 C 40.66666666667 155 79.33333333333 149 116 137 C 152 124.33333333333 186.33333333333 105.66666666667 219 81 C 251.66666666667 55.66666666667 282.66666666667 24 312 -14 C 341.33333333333 -52 371 -99.33333333333 401 -156 C 430.33333333333 -213.33333333333 499.66666666667 -364.33333333333 609 -609 C 670.33333333333 -536.33333333333 739.33333333333 -438.66666666667 816 -316 C 892.66666666667 -194 949.33333333333 -88.66666666667 986 0 L 714 0 C 663.33333333333 0 625 12.33333333333 599 37 C 572.33333333333 61 559 95.66666666667 559 141 C 559 217 600.66666666667 313 684 429 C 767.33333333333 544.33333333333 853 632.66666666667 941 694 L 1038 597 C 956.66666666667 533 881.33333333333 454.66666666667 812 362 C 742 269.33333333333 704.66666666667 200.33333333333 700 155 L 1049 155 C 1079.66666666667 155 1104.66666666667 147 1124 131 C 1143.33333333333 115 1153 91.66666666667 1153 61 C 1153 26.33333333333 1131 -37.66666666667 1087 -131 C 1043 -224.33333333333 984 -325.33333333333 910 -434 C 835.33333333333 -543.33333333333 746.33333333333 -658.66666666667 643 -780 L 535 -780 Z"/>
    <path fill="#000000" stroke="none" transform="matrix(1 0 0 -1 25343 1982)" d="M 1603 0 C 1542.33333333333 0 1493.66666666667 7 1457 21 C 1420.33333333333 35 1390.33333333333 57.33333333333 1367 88 C 1347 57.33333333333 1314.66666666667 35.33333333333 1270 22 C 1224.66666666667 8.66666666667 1160 1.33333333333 1076 0 L 714 -6 L 324 -11 C 260 -11 210 6 174 40 C 138 74 120 120.66666666667 120 180 C 120 240 142.33333333333 297 187 351 C 231 405 303.66666666667 458.33333333333 405 511 C 505.66666666667 563 614.66666666667 606 732 640 C 848.66666666667 673.33333333333 946.66666666667 690 1026 690 C 1134.66666666667 690 1222.33333333333 659.33333333333 1289 598 C 1355.66666666667 536.66666666667 1409.33333333333 436.33333333333 1450 297 C 1462.66666666667 253.66666666667 1475.33333333333 223.33333333333 1488 206 C 1500.66666666667 188 1517 175 1537 167 C 1556.33333333333 159 1581 155 1611 155 L 1611 0 L 1603 0 Z M 1004 540 C 943.33333333333 540 849 519 721 477 C 593 435 486.33333333333 390.33333333333 401 343 C 315 295 272 250.66666666667 272 210 C 272 166.66666666667 300.66666666667 145 358 145 L 979 153 L 1101 155 C 1164.33333333333 155 1213.33333333333 163.33333333333 1248 180 C 1282 196 1299 219 1299 249 C 1299 275 1285.33333333333 318 1258 378 C 1230.66666666667 438 1195.66666666667 480 1153 504 C 1110.33333333333 528 1060.66666666667 540 1004 540 Z"/>
    <path fill="#000000" stroke="none" transform="matrix(1 0 0 -1 26954 1982)" d="M 853 486 L 853 155 L 1537 155 L 1537 0 L 0 0 C -22.66666666667 0 -41.66666666667 6.66666666667 -57 20 C -73 33.33333333333 -81 52.33333333333 -81 77 C -81 101 -73 120 -57 134 C -41.66666666667 148 -22.66666666667 155 0 155 L 703 155 L 703 486 L 165 486 L 165 613 C 175.66666666667 621 193.66666666667 638.33333333333 219 665 C 243.66666666667 691.66666666667 345 809.66666666667 523 1019 L 636 946 L 510 796 C 452 727.33333333333 399.66666666667 674 353 636 L 885 636 C 985 636 1058.33333333333 641.33333333333 1105 652 C 1151 662.66666666667 1184 680.66666666667 1204 706 C 1223.33333333333 730.66666666667 1233 769 1233 821 C 1233 865.66666666667 1228.33333333333 920.66666666667 1219 986 L 1361 1023 C 1374.33333333333 969.66666666667 1381 908 1381 838 C 1381 712.66666666667 1345.33333333333 622.66666666667 1274 568 C 1202.66666666667 513.33333333333 1088.33333333333 486 931 486 L 853 486 Z"/>
    <path fill="#000000" stroke="none" transform="matrix(1 0 0 -1 28491 1982)" d="M 0 0 C -22.66666666667 0 -41.66666666667 7 -57 21 C -73 34.33333333333 -81 53.33333333333 -81 78 C -81 102 -73 121 -57 135 C -41.66666666667 148.33333333333 -22.66666666667 155 0 155 L 466 155 C 528.66666666667 155 576.66666666667 169.33333333333 610 198 C 643.33333333333 226.66666666667 660 267.66666666667 660 321 C 660 375 643 416 609 444 C 575 472 527.33333333333 486 466 486 L 166 486 L 166 598 C 189.33333333333 616 223 649.33333333333 267 698 L 554 1019 L 666 944 L 507 762 C 465 715.33333333333 420.66666666667 673.33333333333 374 636 L 1202 636 L 1202 998 L 1352 998 L 1352 155 L 1564 155 L 1564 0 L 0 0 Z M 810 321 C 810 244.33333333333 777.66666666667 189 713 155 L 1202 155 L 1202 486 L 723 486 C 781 452 810 397 810 321 Z"/>
    <path fill="#000000" stroke="none" transform="matrix(1 0 0 -1 30055 1982)" d="M 1622 1009 L 1622 -326 L 1472 -326 L 1472 486 L 1055 486 C 1091 440 1109 385 1109 321 C 1109 218.33333333333 1079.33333333333 139.33333333333 1020 84 C 960.66666666667 28 879 0 775 0 L 0 0 C -22 0 -41 7 -57 21 C -73 34.33333333333 -81 53.33333333333 -81 78 C -81 102 -73 121 -57 135 C -41 148.33333333333 -22 155 0 155 L 775 155 C 833.66666666667 155 878.66666666667 169.33333333333 910 198 C 941.33333333333 226.66666666667 957 267.66666666667 957 321 C 957 373.66666666667 942 414.33333333333 912 443 C 882 471.66666666667 839 486 783 486 L 165 486 L 165 597 C 189.66666666667 610.33333333333 241.33333333333 648 320 710 L 699 1020 L 795 926 L 622 781 C 597.33333333333 760.33333333333 561 734.66666666667 513 704 C 465 673.33333333333 427.66666666667 650.66666666667 401 636 L 1472 636 L 1472 1009 L 1622 1009 Z"/>
    <path fill="#000000" stroke="none" transform="matrix(1 0 0 -1 31847 1982)" d="M 180 -326 L 180 1422 L 330 1422 L 330 -326 L 180 -326 Z"/>
    <path fill="#000000" stroke="none" transform="matrix(1 0 0 -1 32357 1982)" d="M 1148 681 C 1189.33333333333 594.33333333333 1237.66666666667 477.66666666667 1293 331 C 1348.33333333333 183.66666666667 1455.66666666667 -127.66666666667 1615 -603 C 1665.66666666667 -552.33333333333 1737.66666666667 -461.33333333333 1831 -330 C 1924.33333333333 -198.66666666667 1993.33333333333 -88.66666666667 2038 0 L 1776 0 C 1725.33333333333 0 1687 12.33333333333 1661 37 C 1634.33333333333 61 1621 95.66666666667 1621 141 C 1621 217 1662.66666666667 313 1746 429 C 1829.33333333333 544.33333333333 1915 632.66666666667 2003 694 L 2100 597 C 2016.66666666667 531.66666666667 1940.66666666667 453 1872 361 C 1802.66666666667 269 1765.66666666667 200.33333333333 1761 155 L 2101 155 C 2131.66666666667 155 2156.66666666667 147 2176 131 C 2195.33333333333 115 2205 91.66666666667 2205 61 C 2205 38.33333333333 2200.66666666667 16 2192 -6 C 2144.66666666667 -121.33333333333 2063.66666666667 -257.33333333333 1949 -414 C 1833.66666666667 -571.33333333333 1729.66666666667 -693.33333333333 1637 -780 L 1529 -780 C 1484.33333333333 -678.66666666667 1416 -496 1324 -232 L 1241 0 L 268 0 C 178 0 133 42.66666666667 133 128 C 133 200 175 293.33333333333 259 408 C 343 522.66666666667 434.66666666667 618.33333333333 534 695 L 638 604 C 568 542.66666666667 494.33333333333 464 417 368 C 339 272 293.33333333333 201 280 155 L 1187 155 C 1117.66666666667 353 1057.33333333333 506.33333333333 1006 615 L 1148 681 Z"/>
</svg>
