<svg width="35342" height="3789" viewBox="0 0 35342 3789" xmlns="http://www.w3.org/2000/svg">
    <defs/>
    <g transform="matrix(1 0 0 -1 0 3789)">
        <g transform="matrix(1 0 0 1 0 1100)">
            <path fill="#000000" stroke="none" d="M 950 1106 Q 950 951 882 785.5 Q 814 620 653 395 Q 810 239 1096 0 L 817 0 Q 649 151 549 254 Q 469 146 176 -221 L -53 -221 Q 255 139 434 377 Q 265 570 192 735 Q 119 900 119 1092 Q 119 1220 168 1323 L 911 1323 Q 950 1220 950 1106 Z M 303 1085 Q 303 934 359.49997 797.49994 Q 416 661 539 518 Q 661 694 713.5 821.5 Q 766 949 766 1094 Q 766 1134 758 1163 L 309 1163 Q 303 1130 303 1085 Z"/>
        </g>
        <g transform="matrix(1 0 0 1 1059 1100)">
            <path fill="#000000" stroke="none" d="M 383 -410 L 199 -492 L 199 1708 L 383 1708 L 383 1323 L 977 1323 L 977 1161 L 383 1161 L 383 623 L 977 623 L 977 461 L 383 461 L 383 -410 Z"/>
        </g>
        <g transform="matrix(1 0 0 1 2097 1100)">
            <path fill="#000000" stroke="none" d="M 383 156 L 551 156 Q 761 156 879 222 Q 997 288 997 412 Q 997 537 879.5 604 Q 762 671 518 688 L 518 827 Q 675 876 736 932 Q 797 988 797 1069 Q 797 1134 759 1179 Q 721 1224 659 1247 L 733 1378 Q 857 1342 922 1269 Q 987 1196 987 1094 Q 987 990 927 915.5 Q 867 841 729 786 L 729 778 Q 948 763 1068 669.5 Q 1188 576 1188 424 Q 1188 229 1025 114.50001 Q 862 0 586 0 L 199 0 L 199 1323 L 383 1323 L 383 156 Z"/>
        </g>
        <g transform="matrix(1 0 0 1 3389 1100)">
            <path fill="#000000" stroke="none" d="M 199 0 L 199 1274 Q 314 1305 451 1322 Q 588 1339 707 1339 Q 1325 1339 1325 780 L 1325 0 L 1141 0 L 1141 756 Q 1141 975 1037.5 1077.5 Q 934 1180 707 1180 Q 515 1180 383 1149 L 383 0 L 199 0 Z"/>
        </g>
        <g transform="matrix(1 0 0 1 4907 1100)">
            <path fill="#000000" stroke="none" d="M 1296 0 L 1112 0 L 1112 1161 L 383 1161 L 383 0 L 199 0 L 199 1323 L 1296 1323 L 1296 0 Z"/>
        </g>
        <g transform="matrix(1 0 0 1 6404 1100)">
            <path fill="#000000" stroke="none" d="M 1319 428 Q 1328 396 1335.5 327.5 Q 1343 259 1343 209 Q 1343 -204 1051 -492 L 827 -492 Q 1161 -199 1161 139 L 1161 178 Q 1015 -20 739 -20 Q 558 -20 418 63 Q 278 146 201.5 297.5 Q 125 449 125 647 Q 125 853 208.5 1011.5 Q 292 1170 447.5 1255.5 Q 603 1341 805 1341 Q 970 1341 1103 1293 Q 1236 1245 1325 1153 L 1221 1014 Q 1125 1102 1023.49994 1140 Q 922 1178 803 1178 Q 578 1178 447.5 1035.5 Q 317 893 317 651 Q 317 414 437.5 276.5 Q 558 139 762 139 Q 901 139 1004.5 215.5 Q 1108 292 1151 428 L 1319 428 Z"/>
        </g>
        <g transform="matrix(1 0 0 1 8396 1100)">
            <path fill="#000000" stroke="none" d="M 383 0 L 199 0 L 199 1323 L 383 1323 L 383 0 Z"/>
        </g>
        <g transform="matrix(1 0 0 1 8978 1100)">
            <path fill="#000000" stroke="none" d="M 1223 0 L 98 0 L 98 139 L 891 1159 L 61 1159 L 61 1323 L 1112 1323 L 1112 1184 L 319 164 L 1223 164 L 1223 0 Z"/>
        </g>
        <g transform="matrix(1 0 0 1 10252 1100)">
            <path fill="#000000" stroke="none" d="M 1073 358 Q 1073 176 935.5 78 Q 798 -20 547 -20 Q 294 -20 113 78 L 113 260 Q 204 209 324 174 Q 444 139 559 139 Q 889 139 889 346 Q 889 406 856.5 446 Q 824 486 753 517.5 Q 682 549 494 594 Q 275 647 185.5 735 Q 96 823 96 971 Q 96 1148 233 1248 Q 370 1348 604 1348 Q 758 1348 882 1309 Q 1006 1270 1083 1198 L 989 1053 Q 905 1124 809 1155 Q 713 1186 596 1186 Q 443 1186 363 1132.5 Q 283 1079 283 977 Q 283 909 312.5 866.50006 Q 342 824 408.50003 794.5 Q 475 765 621 733 Q 812 691 898.50006 645 Q 985 599 1029 529.5 Q 1073 460 1073 358 Z"/>
        </g>
        <g transform="matrix(1 0 0 1 11428 1100)">
            <path fill="#000000" stroke="none" d="M 1440 1323 L 1440 0 L 1255 0 L 1255 961 Q 1195 826 1070.5 729.5 Q 946 633 813 633 Q 688 633 562.5 730.5 Q 437 828 383 961 L 383 0 L 199 0 L 199 1323 L 383 1323 Q 407 1202 479 1079.5 Q 551 957 641.5 887 Q 732 817 819 817 Q 906 817 997 889 Q 1088 961 1158.5 1081 Q 1229 1201 1255 1323 L 1440 1323 Z"/>
        </g>
        <g transform="matrix(1 0 0 1 13068 1100)">
            <path fill="#000000" stroke="none" d="M 1475 662 Q 1475 467 1391 310 Q 1307 153 1152.5 66.5 Q 998 -20 801 -20 Q 595 -20 442 65 Q 289 150 207 306 Q 125 462 125 664 Q 125 860 211 1016.5 Q 297 1173 453 1259.5 Q 609 1346 803 1346 Q 1006 1346 1158.5 1263 Q 1311 1180 1393 1024.5 Q 1475 869 1475 662 Z M 319 662 Q 319 508 379 388 Q 439 268 548 203.49998 Q 657 139 801 139 Q 1024 139 1152 280 Q 1280 421 1280 662 Q 1280 898 1152.5 1041 Q 1025 1184 803 1184 Q 583 1184 451 1041.5 Q 319 899 319 662 Z M 674 664 Q 674 731 706 767 Q 738 803 799 803 Q 861 803 894.49994 765.49994 Q 928 728 928 664 Q 928 599 894 561.5 Q 860 524 799 524 Q 740 524 707 559.5 Q 674 595 674 664 Z"/>
        </g>
        <g transform="matrix(1 0 0 1 14667 1100)">
            <path fill="#000000" stroke="none" d="M 1202 0 L 983 0 L 596 573 L 203 0 L -2 0 L 481 688 L 31 1323 L 244 1323 L 602 805 L 963 1323 L 1169 1323 L 717 692 L 1202 0 Z"/>
        </g>
        <g transform="matrix(1 0 0 1 16399 1100)">
            <path fill="#000000" stroke="none" d="M 1309 0 L 1040 0 L 383 639 L 383 -410 L 199 -492 L 199 1323 L 383 1323 L 383 680 Q 625 758 734.49994 838.5 Q 844 919 844 1018 Q 844 1095 796.49994 1143.5 Q 749 1192 627 1233 L 696 1374 Q 859 1328 946.5 1248.5 Q 1034 1169 1034 1042 Q 1034 774 635 637 L 1309 0 Z"/>
        </g>
        <g transform="matrix(1 0 0 1 17699 1100)">
            <path fill="#000000" stroke="none" d="M 383 1311 Q 513 1335 684 1335 Q 1004 1335 1164.5 1198 Q 1325 1061 1325 776 L 1325 0 L 1141 0 L 1141 752 Q 1141 976 1031 1076 Q 921 1176 668 1176 Q 515 1176 383 1145 L 383 0 L 199 0 L 199 1708 L 383 1708 L 383 1311 Z"/>
        </g>
        <g transform="matrix(1 0 0 1 19217 1100)">
            <path fill="#000000" stroke="none" d="M 397 682 Q 346 634 314.5 562.5 Q 283 491 283 416 Q 283 288 353 211.49998 Q 423 135 547 135 Q 633 135 697 174 Q 761 213 795 280 Q 829 347 829 432 Q 829 521 803.50006 593.5 Q 778 666 729 741 L 354 1323 L 569 1323 L 1419 0 L 1202 0 L 979 350 Q 960 182 837.5 81 Q 715 -20 532 -20 Q 329 -20 210.5 91.5 Q 92 203 92 393 Q 92 564 195 682 L 397 682 Z"/>
        </g>
        <g transform="matrix(1 0 0 1 20628 1100)">
            <path fill="#000000" stroke="none" d="M 662 0 L 477 0 L 477 1161 L 20 1161 L 20 1323 L 1116 1323 L 1116 1161 L 662 1161 L 662 0 Z"/>
        </g>
        <g transform="matrix(1 0 0 1 21767 1100)">
            <path fill="#000000" stroke="none" d="M 211 442 Q 211 730 309 885 L 477 885 L 195 1323 L 408 1323 L 1255 0 L 1040 0 L 496 856 Q 395 704 395 424 L 395 -303 L 211 -385 L 211 442 Z"/>
        </g>
        <g transform="matrix(1 0 0 1 23014 1100)">
            <path fill="#000000" stroke="none" d="M 1024 1323 L 1024 1159 L 383 1159 L 383 0 L 199 0 L 199 1323 L 1024 1323 Z"/>
        </g>
        <g transform="matrix(1 0 0 1 24619 1100)">
            <path fill="#000000" stroke="none" d="M 1300 0 L 1047 0 L 383 664 L 383 0 L 199 0 L 199 1323 L 383 1323 L 383 721 Q 537 808 644.5 879 Q 752 950 822 1011.5 Q 892 1073 935 1135 Q 978 1197 1022 1323 L 1217 1323 Q 1170 1181 1127.5 1109 Q 1085 1037 1023 974 Q 961 911 861 840 Q 761 769 610 682 L 1300 0 Z"/>
        </g>
        <g transform="matrix(1 0 0 1 25934 1100)">
            <path fill="#000000" stroke="none" d="M 829 1708 L 1014 1708 L 1014 272 Q 1173 287 1290 369 Q 1407 451 1469.5 593.5 Q 1532 736 1532 926 Q 1532 1025 1507.5 1135.5 Q 1483 1246 1446 1323 L 1636 1323 Q 1670 1261 1696 1143.5 Q 1722 1026 1722 918 Q 1722 682 1635.5 504 Q 1549 326 1388.4999 223 Q 1228 120 1014 104 L 1014 -410 L 829 -492 L 829 104 Q 615 120 454 223 Q 293 326 207 504.50003 Q 121 683 121 918 Q 121 1016 146.5 1133.5 Q 172 1251 207 1323 L 399 1323 Q 363 1248 337 1133 Q 311 1018 311 926 Q 311 735 373.5 593 Q 436 451 553.5 369 Q 671 287 829 272 L 829 1708 Z"/>
        </g>
        <g transform="matrix(1 0 0 1 27773 1100)">
            <path fill="#000000" stroke="none" d="M 651 494 L 1094 1323 L 1292 1323 L 743 317 L 743 -410 L 559 -492 L 559 309 L -12 1323 L 199 1323 L 651 494 Z"/>
        </g>
        <g transform="matrix(1 0 0 1 29055 1100)">
            <path fill="#000000" stroke="none" d="M 1319 1323 L 1319 45 Q 1075 -20 811 -20 Q 503 -20 348 118.50001 Q 193 257 193 539 L 193 1323 L 377 1323 L 377 563 Q 377 344 480.5 241.5 Q 584 139 811 139 Q 1001 139 1135 170 L 1135 1323 L 1319 1323 Z"/>
        </g>
        <g transform="matrix(1 0 0 1 30573 1100)">
            <path fill="#000000" stroke="none" d="M 1358 0 L 1174 0 L 373 1059 L 365 1059 Q 383 857 383 592 L 383 0 L 199 0 L 199 1323 L 383 1323 Q 404 1287 644 976 L 921 616 Q 1161 304 1182 268 L 1190 268 Q 1174 420 1174 674 L 1174 1323 L 1358 1323 L 1358 0 Z"/>
        </g>
        <g transform="matrix(1 0 0 1 32129 1100)">
            <path fill="#000000" stroke="none" d="M 49 0 L 461 1012 L 262 1323 L 475 1323 L 1323 0 L 1108 0 L 571 842 L 242 0 L 49 0 Z"/>
        </g>
        <g transform="matrix(1 0 0 1 33976 1100)">
            <path fill="#000000" stroke="none" d="M 803 1178 Q 602 1178 473 1063.5 Q 344 949 324 756 L 1200 756 L 1200 596 L 319 596 Q 329 384 456.50003 262.5 Q 584 141 791 141 Q 924 141 1026.5 190 Q 1129 239 1214 330 L 1315 215 Q 1220 102 1082.5 41 Q 945 -20 780 -20 Q 477 -20 301 160.5 Q 125 341 125 647 Q 125 854 211.49998 1012.5 Q 298 1171 455.49997 1256 Q 613 1341 813 1341 Q 959 1341 1086.5 1293.5 Q 1214 1246 1305 1153 L 1202 1018 Q 1042 1178 803 1178 Z"/>
        </g>
    </g>
</svg>
