<svg width="40384" height="3789" viewBox="0 0 40384 3789" xmlns="http://www.w3.org/2000/svg">
    <defs/>
    <path fill="#000000" stroke="none" transform="matrix(1 0 0 -1 0 2689)" d="M 100 0 L 149 492 C 155.66666666667 562 164.66666666667 615.33333333333 176 652 C 186.66666666667 688.66666666667 203.33333333333 721.33333333333 226 750 C 248 778.66666666667 298.33333333333 827.33333333333 377 896 C 317 957.33333333333 274.66666666667 1013.66666666667 250 1065 C 225.33333333333 1115.66666666667 213 1168.33333333333 213 1223 C 213 1270.33333333333 225 1314.33333333333 249 1355 C 272.33333333333 1395 306.33333333333 1426.66666666667 351 1450 C 395 1472.66666666667 446.66666666667 1484 506 1484 C 600.66666666667 1484 674.66666666667 1461.33333333333 728 1416 C 781.33333333333 1370.66666666667 808 1309.66666666667 808 1233 C 808 1175 796 1120.33333333333 772 1069 C 747.33333333333 1017.66666666667 703.66666666667 960.33333333333 641 897 L 693 857 C 753 810.33333333333 796.66666666667 763.33333333333 824 716 C 851.33333333333 668 865 612.66666666667 865 550 C 865 528 862 492.33333333333 856 443 C 849.33333333333 393 846 353.66666666667 846 325 C 846 257.66666666667 856 209.66666666667 876 181 C 896 152.33333333333 925.66666666667 138 965 138 C 1025 138 1071.66666666667 162.33333333333 1105 211 C 1137.66666666667 259 1154 330 1154 424 C 1154 478.66666666667 1149 529.66666666667 1139 577 L 1314 620 C 1327.33333333333 566.66666666667 1334 506.66666666667 1334 440 C 1334 294 1300.66666666667 180.66666666667 1234 100 C 1167.33333333333 18.66666666667 1074 -22 954 -22 C 862 -22 789.33333333333 4.66666666667 736 58 C 682.66666666667 111.33333333333 656 191.66666666667 656 299 C 656 335 659 370.33333333333 665 405 C 670.33333333333 439 673 475 673 513 C 673 591 643.66666666667 656 585 708 L 509 776 C 441.66666666667 714 397 663.66666666667 375 625 C 353 586.33333333333 339 539 333 483 L 285 0 L 100 0 Z M 508 1009 C 545.33333333333 1043 570.66666666667 1069.33333333333 584 1088 C 596.66666666667 1106.66666666667 606.33333333333 1126.66666666667 613 1148 C 619.66666666667 1168.66666666667 623 1192 623 1218 C 623 1252 611.66666666667 1278.33333333333 589 1297 C 566.33333333333 1315 539 1324 507 1324 C 476.33333333333 1324 450.33333333333 1314 429 1294 C 407.66666666667 1273.33333333333 397 1249 397 1221 C 397 1181 407 1144.33333333333 427 1111 C 447 1077 474 1043 508 1009 Z"/>
    <path fill="#000000" stroke="none" transform="matrix(1 0 0 -1 1414 2689)" d="M 1394 838 C 1394 568 1330.66666666667 357.33333333333 1204 206 C 1076.66666666667 54 899.66666666667 -22 673 -22 C 493.66666666667 -22 355 35 257 149 C 159 262.33333333333 110 420 110 622 C 110 796 139 948.33333333333 197 1079 C 254.33333333333 1209.66666666667 337.33333333333 1310 446 1380 C 554.66666666667 1450 684 1485 834 1485 C 1010.66666666667 1485 1148.33333333333 1427.33333333333 1247 1312 C 1345 1196 1394 1038 1394 838 Z M 1200 835 C 1200 991.66666666667 1167 1112.66666666667 1101 1198 C 1035 1282.66666666667 940.33333333333 1325 817 1325 C 657 1325 531.66666666667 1264.66666666667 441 1144 C 349.66666666667 1022.66666666667 304 851.66666666667 304 631 C 304 473 337.66666666667 351.33333333333 405 266 C 471.66666666667 180.66666666667 566.66666666667 138 690 138 C 851.33333333333 138 976.66666666667 200 1066 324 C 1155.33333333333 447.33333333333 1200 617.66666666667 1200 835 Z"/>
    <path fill="#000000" stroke="none" transform="matrix(1 0 0 -1 2938 2689)" d="M 450 0 L 534 813 C 484.66666666667 789 430.66666666667 777 372 777 C 281.33333333333 777 210 799.66666666667 158 845 C 106 890.33333333333 80 959 80 1051 L 83 1105 L 120 1462 L 304 1462 L 273 1152 L 269 1085 C 269 1034.33333333333 280 997 302 973 C 323.33333333333 949 356.33333333333 937 401 937 C 454.33333333333 937 493.66666666667 951.66666666667 519 981 C 543.66666666667 1009.66666666667 559 1051 565 1105 L 604 1462 L 788 1462 L 729 904 C 790.33333333333 934.66666666667 858.66666666667 950 934 950 C 1037.33333333333 950 1113.33333333333 924.33333333333 1162 873 C 1210.66666666667 821 1235 736.33333333333 1235 619 C 1235 576.33333333333 1230.66666666667 515 1222 435 C 1213.33333333333 355 1209 293 1209 249 C 1209 213 1219.66666666667 185.66666666667 1241 167 C 1262.33333333333 147.66666666667 1292 138 1330 138 C 1394 138 1441.66666666667 157.33333333333 1473 196 C 1503.66666666667 234 1519 298.33333333333 1519 389 C 1519 462.33333333333 1514 525 1504 577 L 1679 620 C 1692.33333333333 566.66666666667 1699 499 1699 417 C 1699 274.33333333333 1667 165.66666666667 1603 91 C 1539 15.66666666667 1446 -22 1324 -22 C 1219.33333333333 -22 1142.33333333333 1 1093 47 C 1043.66666666667 92.33333333333 1019 159.33333333333 1019 248 C 1019 290.66666666667 1024 348.33333333333 1034 421 C 1044 493 1049 552.33333333333 1049 599 C 1049 669.66666666667 1037.33333333333 719.33333333333 1014 748 C 990.66666666667 776 950 790 892 790 C 816 790 755.33333333333 767.33333333333 710 722 L 634 0 L 450 0 Z"/>
    <path fill="#000000" stroke="none" transform="matrix(1 0 0 -1 4717 2689)" d="M 60 1401 C 114 1431.66666666667 165.33333333333 1453.33333333333 214 1466 C 262.66666666667 1478 314 1484 368 1484 C 464 1484 539.33333333333 1459.66666666667 594 1411 C 648.66666666667 1362.33333333333 676 1296.66666666667 676 1214 C 676 1128 650 1040 598 950 C 740.66666666667 916 849.33333333333 859.33333333333 924 780 C 998 700 1035 600.66666666667 1035 482 C 1035 333.33333333333 988.33333333333 212.33333333333 895 119 C 801 25 677.66666666667 -22 525 -22 C 400.33333333333 -22 301 11.33333333333 227 78 C 152.33333333333 144 115 229.66666666667 115 335 C 115 411 130 487 160 563 C 189.33333333333 639 235.33333333333 720.66666666667 298 808 C 367.33333333333 905.33333333333 415.33333333333 981.66666666667 442 1037 C 468 1092.33333333333 481 1146 481 1198 C 481 1237.33333333333 468 1268.33333333333 442 1291 C 416 1313 381.33333333333 1324 338 1324 C 262 1324 190.33333333333 1304 123 1264 L 60 1401 Z M 497 805 C 439.66666666667 726.33333333333 400.33333333333 666 379 624 C 357 582 340 539 328 495 C 316 451 310 403.66666666667 310 353 C 310 287.66666666667 332.33333333333 235.66666666667 377 197 C 421.66666666667 157.66666666667 481 138 555 138 C 611 138 660.66666666667 153 704 183 C 747.33333333333 212.33333333333 781 252.66666666667 805 304 C 829 354.66666666667 841 410 841 470 C 841 554 812.33333333333 625.66666666667 755 685 C 697 743.66666666667 611 783.66666666667 497 805 Z"/>
    <path fill="#000000" stroke="none" transform="matrix(1 0 0 -1 5872 2689)" d="M 30 1476 C 51.33333333333 1481.33333333333 81.66666666667 1484 121 1484 C 152.33333333333 1484 197.66666666667 1477.33333333333 257 1464 C 315.66666666667 1450 358.33333333333 1443 385 1443 C 448.33333333333 1443 497.33333333333 1449.33333333333 532 1462 L 663 1462 L 550 415 C 546 376.33333333333 544 339.66666666667 544 305 C 546 193.66666666667 585.33333333333 138 662 138 C 725.33333333333 138 771.66666666667 167 801 225 C 829.66666666667 282.33333333333 844 367 844 479 C 844 557.66666666667 831.33333333333 617.33333333333 806 658 L 817 810 C 890.33333333333 803.33333333333 960.66666666667 800 1028 800 C 1096 800 1165.33333333333 803.33333333333 1236 810 L 1216 648 C 1161.33333333333 642.66666666667 1094.33333333333 640 1015 640 C 1024.33333333333 602 1029 539.66666666667 1029 453 C 1029 361.66666666667 1014.33333333333 279.33333333333 985 206 C 955 132.66666666667 913 76.33333333333 859 37 C 804.33333333333 -2.33333333333 740.33333333333 -22 667 -22 C 461.66666666667 -22 359 85 359 299 C 359 332.33333333333 361 368 365 406 L 462 1290 C 438 1283.33333333333 412.66666666667 1280 386 1280 C 354 1280 306 1287.33333333333 242 1302 C 178 1316.66666666667 138 1324 122 1324 L 55 1321 L 30 1476 Z"/>
    <path fill="#000000" stroke="none" transform="matrix(1 0 0 -1 7148 2689)" d="M 318 1400 C 384 1456 478.33333333333 1484 601 1484 C 707.66666666667 1484 787.33333333333 1457 840 1403 C 892.66666666667 1349 919 1265.66666666667 919 1153 C 919 1140.33333333333 917.33333333333 1115.33333333333 914 1078 C 910 1040 871.66666666667 680.66666666667 799 0 L 615 0 L 667 494 C 634.33333333333 558 572.66666666667 590 482 590 C 408 590 347.33333333333 562.33333333333 300 507 C 252.66666666667 451 224.33333333333 376.33333333333 215 283 L 184 0 L 0 0 L 30 292 C 60.66666666667 597.33333333333 208.33333333333 750 473 750 C 557.66666666667 750 629 730.66666666667 687 692 L 721 1013 L 730 1144 C 730 1208.66666666667 717.66666666667 1255 693 1283 C 668.33333333333 1310.33333333333 625.66666666667 1324 565 1324 C 540.33333333333 1324 514.66666666667 1319.33333333333 488 1310 C 460.66666666667 1300 437.33333333333 1285.66666666667 418 1267 L 318 1400 Z"/>
    <path fill="#000000" stroke="none" transform="matrix(1 0 0 -1 8777 2689)" d="M 1039 640 L 1026 515 C 988 157 803.33333333333 -22 472 -22 C 386.66666666667 -22 314.33333333333 -6 255 26 C 195 58 149.33333333333 103 118 161 C 86 219 70 285.33333333333 70 360 C 70 410 78.66666666667 454 96 492 C 113.33333333333 529.33333333333 136.33333333333 563 165 593 C 193 623 225.33333333333 650.33333333333 262 675 C 298 699.66666666667 335 724.33333333333 373 749 C 410.33333333333 773.66666666667 447.33333333333 799.33333333333 484 826 C 520 852.66666666667 552.33333333333 883 581 917 C 609 950.33333333333 631.66666666667 988.33333333333 649 1031 C 666.33333333333 1073.66666666667 675 1123.33333333333 675 1180 C 675 1222.66666666667 662.33333333333 1257.33333333333 637 1284 C 611 1310.66666666667 570 1324 514 1324 C 396 1324 328.33333333333 1263.33333333333 311 1142 L 123 1173 C 142.33333333333 1281.66666666667 184.33333333333 1360.66666666667 249 1410 C 313 1459.33333333333 403.33333333333 1484 520 1484 C 630.66666666667 1484 716.66666666667 1457 778 1403 C 838.66666666667 1349 869 1275.66666666667 869 1183 C 869 1107.66666666667 855.66666666667 1038.66666666667 829 976 C 802.33333333333 913.33333333333 763.33333333333 856.33333333333 712 805 C 660.66666666667 753.66666666667 575.33333333333 689.66666666667 456 613 C 389.33333333333 570.33333333333 340.66666666667 530 310 492 C 279.33333333333 454 264 414.33333333333 264 373 C 264 297.66666666667 284.66666666667 239.66666666667 326 199 C 366.66666666667 158.33333333333 427 138 507 138 C 600.33333333333 138 676.66666666667 174 736 246 C 795.33333333333 317.33333333333 831.33333333333 416 844 542 L 854 640 L 1039 640 Z"/>
    <path fill="#000000" stroke="none" transform="matrix(1 0 0 -1 9896 2689)" d="M 1075 61 C 1021 30.33333333333 969.66666666667 9 921 -3 C 872.33333333333 -15.66666666667 821 -22 767 -22 C 671 -22 595.66666666667 2.33333333333 541 51 C 486.33333333333 99.66666666667 459 165.33333333333 459 248 C 459 335.33333333333 485 422 537 508 C 398.33333333333 540 291 595.66666666667 215 675 C 138.33333333333 754.33333333333 100 855 100 977 C 100 1127.66666666667 147 1250 241 1344 C 334.33333333333 1437.33333333333 457.33333333333 1484 610 1484 C 691.33333333333 1484 763 1469 825 1439 C 887 1408.33333333333 935 1365.66666666667 969 1311 C 1003 1256.33333333333 1020 1194 1020 1124 C 1020 1048 1005 972 975 896 C 945 820 899 739 837 653 C 767 555 719 478.33333333333 693 423 C 667 367 654 314 654 264 C 654 224.66666666667 667 194 693 172 C 719 149.33333333333 753.66666666667 138 797 138 C 873 138 944.66666666667 158 1012 198 L 1075 61 Z M 637 654 C 691.66666666667 726.66666666667 730.33333333333 785 753 829 C 775.66666666667 872.33333333333 793.33333333333 916.66666666667 806 962 C 818.66666666667 1007.33333333333 825 1055.33333333333 825 1106 C 825 1172 802.66666666667 1225 758 1265 C 713.33333333333 1304.33333333333 654 1324 580 1324 C 524 1324 474.33333333333 1309 431 1279 C 387 1248.33333333333 353.33333333333 1207.33333333333 330 1156 C 306 1104 294 1048.33333333333 294 989 C 294 904.33333333333 323.33333333333 832.66666666667 382 774 C 440 715.33333333333 525 675.33333333333 637 654 Z"/>
    <path fill="#000000" stroke="none" transform="matrix(1 0 0 -1 11031 2689)" d="M 1525 620 C 1538.33333333333 545.33333333333 1545 477.66666666667 1545 417 C 1545 274.33333333333 1513 165.66666666667 1449 91 C 1385 15.66666666667 1292 -22 1170 -22 C 1065.33333333333 -22 988.33333333333 1 939 47 C 889.66666666667 92.33333333333 865 159.33333333333 865 248 C 865 290.66666666667 870 348.33333333333 880 421 C 890 493 895 552.33333333333 895 599 C 895 669.66666666667 883.33333333333 719.33333333333 860 748 C 836.66666666667 776 796 790 738 790 C 662 790 601.66666666667 767.66666666667 557 723 L 481 0 L 297 0 L 412 1106 L 412 1133 C 412 1200.33333333333 399.33333333333 1249 374 1279 C 348 1309 305.66666666667 1324 247 1324 C 222.33333333333 1324 196.66666666667 1319.33333333333 170 1310 C 142.66666666667 1300 119.33333333333 1285.66666666667 100 1267 L 0 1400 C 66 1456 160.33333333333 1484 283 1484 C 389.66666666667 1484 469.33333333333 1457 522 1403 C 574.66666666667 1349 601 1265.66666666667 601 1153 L 599 1115 L 576 904 C 637.33333333333 934.66666666667 705.33333333333 950 780 950 C 883.33333333333 950 959.33333333333 924.33333333333 1008 873 C 1056.66666666667 821 1081 736.33333333333 1081 619 C 1081 576.33333333333 1076.66666666667 515 1068 435 C 1059.33333333333 355 1055 293 1055 249 C 1055 213 1065.66666666667 185.66666666667 1087 167 C 1108.33333333333 147.66666666667 1138 138 1176 138 C 1240 138 1287.66666666667 157.33333333333 1319 196 C 1349.66666666667 234 1365 298.33333333333 1365 389 C 1365 427.66666666667 1360 490.33333333333 1350 577 L 1525 620 Z"/>
    <path fill="#000000" stroke="none" transform="matrix(1 0 0 -1 12656 2689)" d="M 837 1198 C 944.33333333333 1101.33333333333 1024.66666666667 1002 1078 900 C 1130.66666666667 797.33333333333 1157 686.33333333333 1157 567 C 1157 451 1133 348.33333333333 1085 259 C 1036.33333333333 169.66666666667 967.33333333333 101 878 53 C 788 4.33333333333 684 -20 566 -20 C 414 -20 295 18 209 94 C 123 170 80 274.66666666667 80 408 C 80 546.66666666667 117.33333333333 680.33333333333 192 809 C 266.66666666667 937.66666666667 385.66666666667 1067.33333333333 549 1198 C 488.33333333333 1243.33333333333 418 1291.66666666667 338 1343 L 435 1490 C 535.66666666667 1428.66666666667 625.66666666667 1368 705 1308 C 787.66666666667 1362 890.66666666667 1422.66666666667 1014 1490 L 1081 1343 C 991 1293.66666666667 909.66666666667 1245.33333333333 837 1198 Z M 682 1092 C 538.66666666667 984.66666666667 435 876 371 766 C 306.33333333333 656 274 541.33333333333 274 422 C 274 331.33333333333 300.66666666667 261.66666666667 354 213 C 406.66666666667 164.33333333333 482.66666666667 140 582 140 C 704.66666666667 140 799 177 865 251 C 930.33333333333 325 963 430.33333333333 963 567 C 963 668.33333333333 940.33333333333 760.33333333333 895 843 C 849.66666666667 925.66666666667 778.66666666667 1008.66666666667 682 1092 Z"/>
    <path fill="#000000" stroke="none" transform="matrix(1 0 0 -1 13953 2689)" d="M 104 620 L 193 1462 L 377 1462 L 325 974 C 345.66666666667 986.66666666667 373.66666666667 997 409 1005 C 443.66666666667 1013 477 1017 509 1017 C 639 1017 741.33333333333 975.66666666667 816 893 C 890 809.66666666667 927 694.66666666667 927 548 C 927 365.33333333333 886.33333333333 224.66666666667 805 126 C 723.66666666667 27.33333333333 608 -22 458 -22 C 335.33333333333 -22 240.33333333333 5.33333333333 173 60 C 105 114.66666666667 60.66666666667 199.33333333333 40 314 L 221 325 C 233 261 258 214 296 184 C 333.33333333333 153.33333333333 386.66666666667 138 456 138 C 544 138 612.33333333333 174.33333333333 661 247 C 709 319 733 417 733 541 C 733 642.33333333333 712.66666666667 720.33333333333 672 775 C 630.66666666667 829.66666666667 572.33333333333 857 497 857 C 461 857 424 849.66666666667 386 835 C 348 819.66666666667 320.66666666667 800.66666666667 304 778 L 288 620 L 104 620 Z"/>
    <path fill="#000000" stroke="none" transform="matrix(1 0 0 -1 15000 2689)" d="M 913 1053 C 913 922.33333333333 896.66666666667 790.66666666667 864 658 C 831.33333333333 524.66666666667 786.66666666667 408.66666666667 730 310 C 672.66666666667 211.33333333333 604 131.66666666667 524 71 C 444 9.66666666667 354.33333333333 -29.33333333333 255 -46 L 226 107 C 327.33333333333 133 415 187 489 269 C 562.33333333333 350.33333333333 619 459.33333333333 659 596 C 603 571.33333333333 541 559 473 559 C 353 559 257.66666666667 598 187 676 C 115.66666666667 753.33333333333 80 858.33333333333 80 991 C 80 1144.33333333333 118.66666666667 1265 196 1353 C 273.33333333333 1440.33333333333 380.66666666667 1484 518 1484 C 639.33333333333 1484 735.66666666667 1446 807 1370 C 877.66666666667 1294 913 1188.33333333333 913 1053 Z M 719 1052 C 719 1139.33333333333 700.66666666667 1206.33333333333 664 1253 C 627.33333333333 1299.66666666667 575.33333333333 1323 508 1323 C 352 1323 274 1212 274 990 C 274 897.33333333333 291.33333333333 829 326 785 C 360.66666666667 741 413 719 483 719 C 561.66666666667 719 620.66666666667 747.66666666667 660 805 C 699.33333333333 861.66666666667 719 944 719 1052 Z"/>
    <path fill="#000000" stroke="none" transform="matrix(1 0 0 -1 16633 2689)" d="M 805 1219 C 729 1289 648.33333333333 1324 563 1324 C 530.33333333333 1324 500 1317 472 1303 C 443.33333333333 1288.33333333333 420.66666666667 1268 404 1242 C 386.66666666667 1215.33333333333 378 1182.66666666667 378 1144 C 378 1105.33333333333 386.66666666667 1070 404 1038 C 420.66666666667 1005.33333333333 443.66666666667 974.33333333333 473 945 C 502.33333333333 915 564.33333333333 866 659 798 C 735.66666666667 742.66666666667 792 695.66666666667 828 657 C 864 617.66666666667 891.66666666667 576.66666666667 911 534 C 929.66666666667 491.33333333333 939 444.66666666667 939 394 C 939 263.33333333333 898 161.33333333333 816 88 C 734 14.66666666667 620 -22 474 -22 C 282 -22 124 49.66666666667 0 193 L 126 320 C 182.66666666667 255.33333333333 239.33333333333 209 296 181 C 352.66666666667 152.33333333333 411.33333333333 138 472 138 C 560 138 627.66666666667 158 675 198 C 721.66666666667 238 745 298 745 378 C 742.33333333333 417.33333333333 732.33333333333 452.66666666667 715 484 C 697.66666666667 515.33333333333 675.66666666667 544.33333333333 649 571 C 622.33333333333 597.66666666667 592.33333333333 623 559 647 C 525.66666666667 671 492 695.33333333333 458 720 C 423.33333333333 744 389.66666666667 769.33333333333 357 796 C 323.66666666667 822.66666666667 294.33333333333 852.33333333333 269 885 C 243.66666666667 917 223.33333333333 953 208 993 C 192 1032.33333333333 184 1077.33333333333 184 1128 C 184 1238 217.66666666667 1325 285 1389 C 352.33333333333 1452.33333333333 442.33333333333 1484 555 1484 C 699 1484 814.66666666667 1442.33333333333 902 1359 L 805 1219 Z"/>
    <path fill="#000000" stroke="none" transform="matrix(1 0 0 -1 17672 2689)" d="M 918 1208 C 840.66666666667 1285.33333333333 753.66666666667 1324 657 1324 C 579.66666666667 1324 518.33333333333 1296.66666666667 473 1242 C 427 1186.66666666667 399 1105 389 997 L 378 898 C 442 932.66666666667 514 950 594 950 C 697.33333333333 950 773.33333333333 924.33333333333 822 873 C 870.66666666667 821 895 736.33333333333 895 619 C 895 575.66666666667 890.66666666667 514 882 434 C 873.33333333333 353.33333333333 869 290.66666666667 869 246 C 869 210 879.66666666667 182.66666666667 901 164 C 922.33333333333 144.66666666667 952 135 990 135 C 1053.33333333333 135 1100.66666666667 154.33333333333 1132 193 C 1163.33333333333 231.66666666667 1179 297 1179 389 C 1179 462.33333333333 1174 525 1164 577 L 1339 620 C 1352.33333333333 545.33333333333 1359 477.66666666667 1359 417 C 1359 274.33333333333 1327.33333333333 165 1264 89 C 1200 13 1106.66666666667 -25 984 -25 C 879.33333333333 -25 802.33333333333 -2 753 44 C 703.66666666667 89.33333333333 679 156.33333333333 679 245 C 679 287.66666666667 684 345.66666666667 694 419 C 704 492.33333333333 709 552.33333333333 709 599 C 709 669.66666666667 697.33333333333 719.33333333333 674 748 C 650.66666666667 776 610 790 552 790 C 469.33333333333 790 405 763.33333333333 359 710 L 285 0 L 100 0 L 205 1006 C 221 1161.33333333333 268.66666666667 1280 348 1362 C 427.33333333333 1443.33333333333 537 1484 677 1484 C 745.66666666667 1484 809 1472.66666666667 867 1450 C 924.33333333333 1426.66666666667 984 1385.66666666667 1046 1327 L 918 1208 Z"/>
    <path fill="#000000" stroke="none" transform="matrix(1 0 0 -1 19111 2689)" d="M 140 0 L 293 1462 L 477 1462 L 324 0 L 140 0 Z"/>
    <path fill="#000000" stroke="none" transform="matrix(1 0 0 -1 19728 2689)" d="M 1494 620 C 1507.33333333333 558 1514 497 1514 437 C 1514 290.33333333333 1481.66666666667 176.66666666667 1417 96 C 1351.66666666667 15.33333333333 1259 -25 1139 -25 C 937 -25 836 82 836 296 C 836 306.66666666667 837.66666666667 330.33333333333 841 367 C 843.66666666667 403.66666666667 879.33333333333 694.66666666667 948 1240 L 940 1240 L 684 860 L 584 860 L 407 1242 L 399 1242 C 397 1132 389.66666666667 1013.66666666667 377 887 L 284 0 L 100 0 L 253 1462 L 478 1462 L 657 1084 L 911 1462 L 1141 1462 L 1042 521 C 1031.33333333333 420.33333333333 1026 354 1026 322 C 1026 254.66666666667 1036 206.66666666667 1056 178 C 1076 149.33333333333 1105.66666666667 135 1145 135 C 1205 135 1251.66666666667 159.33333333333 1285 208 C 1317.66666666667 256 1334 327 1334 421 C 1334 462.33333333333 1329 514.33333333333 1319 577 L 1494 620 Z"/>
    <path fill="#000000" stroke="none" transform="matrix(1 0 0 -1 21322 2689)" d="M 512 -22 C 381.33333333333 -22 280 16.33333333333 208 93 C 136 169 100 276.33333333333 100 415 C 100 501 120.33333333333 582.66666666667 161 660 C 201 737.33333333333 264.66666666667 816.66666666667 352 898 C 294 958 251.33333333333 1014 224 1066 C 196.66666666667 1118 183 1170.33333333333 183 1223 C 183 1302.33333333333 211 1365.66666666667 267 1413 C 323 1460.33333333333 397.33333333333 1484 490 1484 C 578 1484 648 1461.66666666667 700 1417 C 752 1372.33333333333 778 1311 778 1233 C 778 1175.66666666667 766.33333333333 1121.66666666667 743 1071 C 719 1019.66666666667 675.33333333333 962 612 898 C 646.66666666667 868 679.33333333333 842.33333333333 710 821 L 582 690 L 482 778 C 412.66666666667 714 363.66666666667 654.66666666667 335 600 C 305.66666666667 544.66666666667 291 487.33333333333 291 428 C 291 326.66666666667 311.33333333333 253 352 207 C 392.66666666667 161 457.66666666667 138 547 138 C 637.66666666667 138 711.33333333333 175 768 249 C 824.66666666667 322.33333333333 860.66666666667 426.33333333333 876 561 L 884 640 L 1069 640 L 1059 542 C 1039.66666666667 355.33333333333 984 214.66666666667 892 120 C 800 25.33333333333 673.33333333333 -22 512 -22 Z M 481 1012 C 524.33333333333 1053.33333333333 554 1090.33333333333 570 1123 C 585.33333333333 1155.66666666667 593 1191.33333333333 593 1230 C 593 1260.66666666667 583 1284 563 1300 C 542.33333333333 1316 516 1324 484 1324 C 451.33333333333 1324 423.66666666667 1314.33333333333 401 1295 C 378.33333333333 1275 367 1250.33333333333 367 1221 C 367 1157.66666666667 405 1088 481 1012 Z"/>
    <path fill="#000000" stroke="none" transform="matrix(1 0 0 -1 22471 2689)" d="M 1944 620 C 1957.33333333333 558 1964 497 1964 437 C 1964 289.66666666667 1931.66666666667 176.33333333333 1867 97 C 1801.66666666667 17.66666666667 1709 -22 1589 -22 C 1383 -22 1280 80.66666666667 1280 286 C 1280 320.66666666667 1285 374.66666666667 1295 448 C 1304.33333333333 520.66666666667 1309 575.66666666667 1309 613 C 1309 656.33333333333 1298.66666666667 690 1278 714 C 1256.66666666667 738 1225.33333333333 750 1184 750 C 1079.33333333333 750 1021.33333333333 694 1010 582 L 948 0 L 764 0 L 820 535 L 824 602 C 824 652.66666666667 813.33333333333 690 792 714 C 770 738 736.66666666667 750 692 750 C 638.66666666667 750 599.66666666667 735.66666666667 575 707 C 549.66666666667 677.66666666667 534 636 528 582 L 464 0 L 280 0 C 354.66666666667 747.33333333333 392 1125.33333333333 392 1134 C 392 1202 379 1250.66666666667 353 1280 C 327 1309.33333333333 285 1324 227 1324 C 202.33333333333 1324 176.66666666667 1319.33333333333 150 1310 C 122.66666666667 1300 99.33333333333 1285.66666666667 80 1267 L -20 1400 C 46 1456 140.33333333333 1484 263 1484 C 371.66666666667 1484 452 1457 504 1403 C 555.33333333333 1348.33333333333 581 1265.33333333333 581 1154 C 581 1138 572 1044.66666666667 554 874 C 603.33333333333 898 659 910 721 910 C 821 910 898 878 952 814 C 1020 878 1103.66666666667 910 1203 910 C 1299 910 1373 884.66666666667 1425 834 C 1477 783.33333333333 1503 711.33333333333 1503 618 C 1503 596 1498 544.33333333333 1488 463 C 1477.33333333333 381 1472 326.66666666667 1472 300 C 1472 192 1513 138 1595 138 C 1655 138 1701.66666666667 162 1735 210 C 1767.66666666667 257.33333333333 1784 327.66666666667 1784 421 C 1784 467.66666666667 1779 519.66666666667 1769 577 L 1944 620 Z"/>
    <path fill="#000000" stroke="none" transform="matrix(1 0 0 -1 25115 2689)" d="M 0 1442 C 56 1470 121.33333333333 1484 196 1484 C 242 1484 297.66666666667 1477 363 1463 C 427.66666666667 1448.33333333333 486.66666666667 1441 540 1441 C 586.66666666667 1441 645 1448 715 1462 L 837 1462 L 684 0 L 500 0 L 637 1295 C 587.66666666667 1285.66666666667 548.66666666667 1281 520 1281 C 466 1281 406 1288.33333333333 340 1303 C 274 1317 226 1324 196 1324 C 144 1324 99.33333333333 1317 62 1303 L 0 1442 Z"/>
    <path fill="#000000" stroke="none" transform="matrix(1 0 0 -1 26052 2689)" d="M 1121 620 C 1134.33333333333 558 1141 497 1141 437 C 1141 289.66666666667 1108.66666666667 176.33333333333 1044 97 C 978.66666666667 17.66666666667 886 -22 766 -22 C 670.66666666667 -22 596.33333333333 6 543 62 C 489.66666666667 118 463 197 463 299 C 463 323 466.66666666667 366.33333333333 474 429 L 514 809 C 467.33333333333 787.66666666667 413.33333333333 777 352 777 C 261.33333333333 777 190 799.66666666667 138 845 C 86 890.33333333333 60 959 60 1051 L 63 1105 L 100 1462 L 284 1462 L 253 1152 L 249 1085 C 249 1034.33333333333 260 997 282 973 C 303.33333333333 949 336.33333333333 937 381 937 C 434.33333333333 937 473.66666666667 951.66666666667 499 981 C 523.66666666667 1009.66666666667 539 1051 545 1105 L 584 1462 L 768 1462 L 669 521 C 658.33333333333 420.33333333333 653 355 653 325 C 653 257.66666666667 663 209.66666666667 683 181 C 703 152.33333333333 732.66666666667 138 772 138 C 832 138 878.66666666667 162 912 210 C 944.66666666667 257.33333333333 961 327.66666666667 961 421 C 961 475 956 527 946 577 L 1121 620 Z"/>
    <path fill="#000000" stroke="none" transform="matrix(1 0 0 -1 27273 2689)" d="M 525 0 L 561 353 C 561 392.33333333333 548 423.66666666667 522 447 C 495.33333333333 470.33333333333 454.66666666667 482 400 482 C 352.66666666667 482 318.66666666667 467.66666666667 298 439 C 277.33333333333 409.66666666667 264 368 258 314 L 224 0 L 40 0 L 74 336 C 95.33333333333 540 201.66666666667 642 393 642 C 467.66666666667 642 532.33333333333 628 587 600 L 609 813 C 559.66666666667 789 505.66666666667 777 447 777 C 356.33333333333 777 285 799.66666666667 233 845 C 181 890.33333333333 155 959 155 1051 L 158 1105 L 195 1462 L 379 1462 L 348 1152 L 344 1085 C 344 1034.33333333333 355 997 377 973 C 398.33333333333 949 431.33333333333 937 476 937 C 529.33333333333 937 568.66666666667 951.66666666667 594 981 C 618.66666666667 1009.66666666667 634 1051 640 1105 L 679 1462 L 863 1462 L 709 0 L 525 0 Z"/>
    <path fill="#000000" stroke="none" transform="matrix(1 0 0 -1 28216 2689)" d="M 809 619 C 851 622.33333333333 898.66666666667 624 952 624 L 928 469 C 892.66666666667 469 841.66666666667 466.66666666667 775 462 C 729.66666666667 305.33333333333 663 185.66666666667 575 103 C 487 19.66666666667 384.66666666667 -22 268 -22 C 182.66666666667 -22 116.66666666667 -2.33333333333 70 37 C 23.33333333333 76.33333333333 0 134.33333333333 0 211 C 0 274.33333333333 24.33333333333 332 73 384 C 121 435.33333333333 192 479.33333333333 286 516 C 379.33333333333 552 489 579.33333333333 615 598 C 623.66666666667 651.33333333333 633.33333333333 723 644 813 C 594.66666666667 789 540.66666666667 777 482 777 C 391.33333333333 777 320 799.66666666667 268 845 C 216 890.33333333333 190 959 190 1051 L 193 1105 L 230 1462 L 414 1462 L 383 1152 L 379 1085 C 379 1034.33333333333 390 997 412 973 C 433.33333333333 949 466.33333333333 937 511 937 C 564.33333333333 937 603.66666666667 951.66666666667 629 981 C 653.66666666667 1009.66666666667 669 1051 675 1105 L 714 1462 L 898 1462 L 822 716 L 809 619 Z M 581 437 C 455 415.66666666667 357.33333333333 386 288 348 C 218.66666666667 309.33333333333 184 264.66666666667 184 214 C 184 194 192 176.33333333333 208 161 C 224 145.66666666667 245.66666666667 138 273 138 C 421.66666666667 138 524.33333333333 237.66666666667 581 437 Z"/>
    <path fill="#000000" stroke="none" transform="matrix(1 0 0 -1 29248 2689)" d="M 738 620 C 751.33333333333 545.33333333333 758 484.33333333333 758 437 C 758 289.66666666667 725.66666666667 176.33333333333 661 97 C 595.66666666667 17.66666666667 503 -22 383 -22 C 290.33333333333 -22 216.66666666667 6.66666666667 162 64 C 107.33333333333 120.66666666667 80 198 80 296 C 80 324.66666666667 82 355 86 387 L 202 1462 L 386 1462 L 286 521 C 275.33333333333 420.33333333333 270 354 270 322 C 270 258 279.66666666667 211.33333333333 299 182 C 317.66666666667 152.66666666667 347.66666666667 138 389 138 C 449 138 495.66666666667 162 529 210 C 561.66666666667 257.33333333333 578 327.66666666667 578 421 C 578 467.66666666667 573 519.66666666667 563 577 L 738 620 Z"/>
    <path fill="#000000" stroke="none" transform="matrix(1 0 0 -1 30086 2689)" d="M 999 1462 L 900 516 C 890.66666666667 434 886 368.66666666667 886 320 C 886 255.33333333333 895 209 913 181 C 931 152.33333333333 960.66666666667 138 1002 138 C 1062 138 1108.66666666667 162 1142 210 C 1174.66666666667 257.33333333333 1191 327.66666666667 1191 421 C 1191 462.33333333333 1186 514.33333333333 1176 577 L 1351 620 C 1364.33333333333 545.33333333333 1371 484.33333333333 1371 437 C 1371 289.66666666667 1338.66666666667 176.33333333333 1274 97 C 1208.66666666667 17.66666666667 1116 -22 996 -22 C 890 -22 811 13.66666666667 759 85 C 687.66666666667 13.66666666667 579 -22 433 -22 C 319.66666666667 -22 232.66666666667 7 172 65 C 110.66666666667 123 80 209.33333333333 80 324 C 80 355.33333333333 82.33333333333 396.66666666667 87 448 C 91 498.66666666667 126 836.66666666667 192 1462 L 377 1462 L 278 514 C 272.66666666667 463.33333333333 270 417.66666666667 270 377 C 270 288.33333333333 284.66666666667 226.33333333333 314 191 C 342.66666666667 155.66666666667 389 138 453 138 C 507.66666666667 138 552.66666666667 150.66666666667 588 176 C 622.66666666667 200.66666666667 650 237.66666666667 670 287 C 690 336.33333333333 705.66666666667 412.66666666667 717 516 L 816 1462 L 999 1462 Z"/>
    <path fill="#000000" stroke="none" transform="matrix(1 0 0 -1 32137 2689)" d="M 923 847 L 834 0 L 650 0 L 701 483 C 646.33333333333 457.66666666667 585.33333333333 445 518 445 C 388 445 286 486.66666666667 212 570 C 137.33333333333 652.66666666667 100 767.33333333333 100 914 C 100 1096.66666666667 140.66666666667 1237.33333333333 222 1336 C 303.33333333333 1434.66666666667 419 1484 569 1484 C 691.66666666667 1484 787 1456.66666666667 855 1402 C 922.33333333333 1347.33333333333 966.33333333333 1262.66666666667 987 1148 L 806 1137 C 794 1200.33333333333 769.33333333333 1247.33333333333 732 1278 C 694 1308.66666666667 640.33333333333 1324 571 1324 C 483 1324 415 1288 367 1216 C 318.33333333333 1143.33333333333 294 1045 294 921 C 294 819.66666666667 314.66666666667 741.66666666667 356 687 C 396.66666666667 632.33333333333 454.66666666667 605 530 605 C 564.66666666667 605 601 612.33333333333 639 627 C 676.33333333333 641.66666666667 704 660.33333333333 722 683 L 739 847 L 923 847 Z"/>
    <path fill="#000000" stroke="none" transform="matrix(1 0 0 -1 33234 2689)" d="M 1411 620 C 1424.33333333333 566.66666666667 1431 506.66666666667 1431 440 C 1431 293.33333333333 1398.66666666667 179.66666666667 1334 99 C 1268.66666666667 18.33333333333 1176 -22 1056 -22 C 960.66666666667 -22 886.33333333333 4.66666666667 833 58 C 779.66666666667 110.66666666667 753 191 753 299 C 753 334.33333333333 758.66666666667 400 770 496 L 821 948 C 826.33333333333 988.66666666667 829 1034.33333333333 829 1085 C 829 1171.66666666667 813.66666666667 1233.33333333333 783 1270 C 752.33333333333 1306.66666666667 704 1325 638 1325 C 584 1325 540.33333333333 1313 507 1289 C 473 1264.33333333333 446.66666666667 1228 428 1180 C 408.66666666667 1131.33333333333 393 1051 381 939 C 369 826.33333333333 336.33333333333 513.33333333333 283 0 L 100 0 L 199 946 C 211.66666666667 1066 228.33333333333 1157.33333333333 249 1220 C 269 1282 297 1332 333 1370 C 368.33333333333 1408 413.66666666667 1436.66666666667 469 1456 C 523.66666666667 1474.66666666667 589.33333333333 1484 666 1484 C 750.66666666667 1484 818.66666666667 1472.33333333333 870 1449 C 921.33333333333 1425 959 1389 983 1341 C 1007 1292.33333333333 1019 1224.66666666667 1019 1138 C 1019 1085.33333333333 1014.66666666667 1020 1006 942 C 985.33333333333 758.66666666667 969.66666666667 620 959 526 C 948.33333333333 432 943 365 943 325 C 943 257.66666666667 953 209.66666666667 973 181 C 993 152.33333333333 1022.66666666667 138 1062 138 C 1122 138 1168.66666666667 162.33333333333 1202 211 C 1234.66666666667 259 1251 330 1251 424 C 1251 478.66666666667 1246 529.66666666667 1236 577 L 1411 620 Z"/>
    <path fill="#000000" stroke="none" transform="matrix(1 0 0 -1 34745 2689)" d="M 922 1462 C 942.66666666667 1408 960.33333333333 1334.33333333333 975 1241 C 989 1147 996 1059.66666666667 996 979 C 996 886.33333333333 971.66666666667 814 923 762 C 874.33333333333 710 804 684 712 684 C 604 684 514 715.66666666667 442 779 C 341.33333333333 697 291 586.66666666667 291 448 C 291 348.66666666667 314.33333333333 272.33333333333 361 219 C 407.66666666667 165 472.33333333333 138 555 138 C 615 138 670.33333333333 154.33333333333 721 187 C 771.66666666667 219.66666666667 814.33333333333 269.66666666667 849 337 C 883.66666666667 403.66666666667 904.66666666667 474.66666666667 912 550 L 1107 550 C 1076.33333333333 358 1015.33333333333 214.66666666667 924 120 C 832.66666666667 25.33333333333 702 -22 532 -22 C 445.33333333333 -22 369.33333333333 -2 304 38 C 238.66666666667 78 188.33333333333 132.33333333333 153 201 C 117.66666666667 269.66666666667 100 344.33333333333 100 425 C 100 523 121.33333333333 613.33333333333 164 696 C 206.66666666667 778.66666666667 266 848 342 904 C 288 1000 254 1116 240 1252 L 217 1462 L 402 1462 L 420 1290 C 429.33333333333 1204.66666666667 447 1126.66666666667 473 1056 C 499 985.33333333333 530.66666666667 932.33333333333 568 897 C 604.66666666667 861.66666666667 644.66666666667 844 688 844 C 727.33333333333 844 757.33333333333 855.33333333333 778 878 C 798.66666666667 900 809 931.66666666667 809 973 C 809 1047 802.66666666667 1130.33333333333 790 1223 C 776.66666666667 1315.66666666667 759.33333333333 1395.33333333333 738 1462 L 922 1462 Z"/>
    <path fill="#000000" stroke="none" transform="matrix(1 0 0 -1 35932 2689)" d="M 1288 1462 L 1211 710 C 1263.66666666667 714.66666666667 1326 718 1398 720 L 1374 565 L 1193 555 C 1174.33333333333 437 1134.66666666667 334.66666666667 1074 248 C 1013.33333333333 160.66666666667 933.33333333333 93.66666666667 834 47 C 734 0.33333333333 622.33333333333 -23 499 -23 C 372.33333333333 -23 277 -0.66666666667 213 44 C 149 88 117 158 117 254 C 117 356.66666666667 195.33333333333 445.66666666667 352 521 C 508.66666666667 595.66666666667 731.33333333333 652 1020 690 L 1034 813 C 984.66666666667 789 930.66666666667 777 872 777 C 772 777 695 809 641 873 C 573 809 489.33333333333 777 390 777 C 296.66666666667 777 225 802 175 852 C 125 901.33333333333 100 973.66666666667 100 1069 L 103 1137 L 136 1462 L 320 1462 L 290 1164 L 282 1074 C 282 1030 293 996.33333333333 315 973 C 337 949 368.33333333333 937 409 937 C 513.66666666667 937 571.66666666667 993 583 1105 L 620 1462 L 804 1462 L 773 1152 L 769 1085 C 769 1034.33333333333 780 997 802 973 C 823.33333333333 949 856.33333333333 937 901 937 C 954.33333333333 937 993.66666666667 951.66666666667 1019 981 C 1043.66666666667 1009.66666666667 1059 1051 1065 1105 L 1104 1462 L 1288 1462 Z M 502 137 C 634.66666666667 137 743.33333333333 171.33333333333 828 240 C 912 308 968.33333333333 406 997 534 C 775.66666666667 503.33333333333 604.33333333333 463.66666666667 483 415 C 361.66666666667 365.66666666667 301 311.33333333333 301 252 C 301 208.66666666667 317.33333333333 178.66666666667 350 162 C 382.66666666667 145.33333333333 433.33333333333 137 502 137 Z"/>
    <path fill="#000000" stroke="none" transform="matrix(1 0 0 -1 37360 2689)" d="M 1331 620 C 1344.33333333333 566.66666666667 1351 505.66666666667 1351 437 C 1351 290.33333333333 1318.66666666667 176.66666666667 1254 96 C 1188.66666666667 15.33333333333 1096 -25 976 -25 C 774 -25 673 82 673 296 C 673 305.33333333333 673.33333333333 314 674 322 C 674 330 697.66666666667 558 745 1006 L 595 1006 C 608.33333333333 974 615 940.33333333333 615 905 C 615 815 584.33333333333 740 523 680 C 461 619.33333333333 385.66666666667 589 297 589 C 222.33333333333 589 161 613.66666666667 113 663 C 64.33333333333 712.33333333333 40 772.66666666667 40 844 C 40 896.66666666667 54.66666666667 948 84 998 C 113.33333333333 1047.33333333333 152.66666666667 1086.66666666667 202 1116 C 250.66666666667 1145.33333333333 302.33333333333 1160 357 1160 L 761 1160 L 793 1462 L 977 1462 L 879 521 C 868.33333333333 420.33333333333 863 354 863 322 C 863 254.66666666667 873 206.66666666667 893 178 C 913 149.33333333333 942.66666666667 135 982 135 C 1042 135 1088.66666666667 159.33333333333 1122 208 C 1154.66666666667 256 1171 327 1171 421 C 1171 473 1166 525 1156 577 L 1331 620 Z M 458 889 C 458 921 447 948.33333333333 425 971 C 402.33333333333 993 374.33333333333 1004 341 1004 C 303 1004 269.66666666667 989.66666666667 241 961 C 211.66666666667 932.33333333333 197 899 197 861 C 197 826.33333333333 208.66666666667 798.33333333333 232 777 C 254.66666666667 755.66666666667 282 745 314 745 C 351.33333333333 745 384.66666666667 759 414 787 C 443.33333333333 815 458 849 458 889 Z"/>
    <path fill="#000000" stroke="none" transform="matrix(1 0 0 -1 38791 2689)" d="M 1493 620 C 1506.33333333333 545.33333333333 1513 484.33333333333 1513 437 C 1513 289.66666666667 1480.66666666667 176.33333333333 1416 97 C 1350.66666666667 17.66666666667 1258 -22 1138 -22 C 1043.33333333333 -22 969.33333333333 4.66666666667 916 58 C 862 111.33333333333 835 191.66666666667 835 299 C 835 317 836.33333333333 340.66666666667 839 370 C 841.66666666667 399.33333333333 855.66666666667 525 881 747 C 855.66666666667 734.33333333333 780.66666666667 700.66666666667 656 646 L 630 369 C 604.66666666667 108.33333333333 482.33333333333 -22 263 -22 C 184.33333333333 -22 121 4 73 56 C 24.33333333333 107.33333333333 0 174.66666666667 0 258 C 0 323.33333333333 17 383 51 437 C 85 490.33333333333 133 540 195 586 C 257 632 352.66666666667 684.33333333333 482 743 L 516 1105 L 516 1133 C 516 1200.33333333333 503.33333333333 1249 478 1279 C 452 1309 409.66666666667 1324 351 1324 C 326.33333333333 1324 300.66666666667 1319.33333333333 274 1310 C 246.66666666667 1300 223.33333333333 1285.66666666667 204 1267 L 104 1400 C 170 1456 264.33333333333 1484 387 1484 C 493.66666666667 1484 573.33333333333 1457 626 1403 C 678.66666666667 1349 705 1265.66666666667 705 1153 L 703 1115 L 673 824 C 767.66666666667 864 844.33333333333 901 903 935 L 920 1095 C 934 1229.66666666667 968.33333333333 1328.33333333333 1023 1391 C 1077.66666666667 1453 1157.66666666667 1484 1263 1484 C 1329 1484 1382 1465.33333333333 1422 1428 C 1462 1390 1482 1341.66666666667 1482 1283 C 1482 1204.33333333333 1451.33333333333 1130.66666666667 1390 1062 C 1328.66666666667 993.33333333333 1224.66666666667 921.66666666667 1078 847 C 1060.66666666667 691.66666666667 1047.66666666667 574.33333333333 1039 495 C 1029.66666666667 415 1025 358.33333333333 1025 325 C 1025 257.66666666667 1035 209.66666666667 1055 181 C 1075 152.33333333333 1104.66666666667 138 1144 138 C 1204 138 1250.66666666667 162 1284 210 C 1316.66666666667 257.33333333333 1333 327.66666666667 1333 421 C 1333 438.33333333333 1328 490.33333333333 1318 577 L 1493 620 Z M 465 559 C 360.33333333333 506.33333333333 287.66666666667 458 247 414 C 205.66666666667 369.33333333333 185 322 185 272 C 185 228 195.33333333333 194.66666666667 216 172 C 236 149.33333333333 261 138 291 138 C 330.33333333333 138 364.66666666667 158.66666666667 394 200 C 422.66666666667 240.66666666667 440.66666666667 298.66666666667 448 374 L 465 559 Z M 1096 1032 C 1166 1072 1217 1110 1249 1146 C 1281 1181.33333333333 1297 1217 1297 1253 C 1297 1271.66666666667 1291 1288.33333333333 1279 1303 C 1267 1317 1250.33333333333 1324 1229 1324 C 1189.66666666667 1324 1160.66666666667 1304 1142 1264 C 1122.66666666667 1223.33333333333 1109.33333333333 1165.33333333333 1102 1090 L 1096 1032 Z"/>
</svg>
