<svg width="45311" height="3789" viewBox="0 0 45311 3789" xmlns="http://www.w3.org/2000/svg">
    <defs/>
    <g transform="matrix(1 0 0 -1 0 3789)">
        <g transform="matrix(1 0 0 1 0 1100)">
            <path fill="#000000" stroke="none" d="M 897 0 L 897 379 Q 761 279 580 279 Q 354 279 237.5 380 Q 121 481 121 682 Q 121 875 240 980 Q 359 1085 575 1085 Q 749 1085 897 987 L 897 1251 L -35 1251 L -35 1391 L 1249 1391 L 1249 1251 L 1053 1251 L 1053 0 L 897 0 Z M 596 940 Q 289 940 289 682 Q 289 426 584 426 Q 759 426 897 551 L 897 842 Q 755 940 596 940 Z M 276 215 Q 332 215 364.5 185.5 Q 397 156 397 100 Q 397 43 364.5 12.5 Q 332 -18 276 -18 Q 219 -18 187.49998 12.5 Q 156 43 156 100 Q 156 156 187.49998 185.5 Q 219 215 276 215 Z"/>
        </g>
        <g transform="matrix(1 0 0 1 1223 1100)">
            <path fill="#000000" stroke="none" d="M 1356 1061 Q 1493 928 1493 713 Q 1493 562 1406.5 428.5 Q 1320 295 1169.5 215 Q 1019 135 834 129 L 834 889 L 827 891 Q 713 797 588.5 634.5 Q 464 472 342 258 L 178 319 L 178 1251 L -35 1251 L -35 1391 L 1931 1391 L 1931 1251 L 336 1251 L 336 543 L 344 541 Q 437 681 497 753.5 Q 557 826 633 900.5 Q 709 975 813 1065 L 985 997 L 985 297 L 991 293 Q 1151 335 1245 450.5 Q 1339 566 1339 721 Q 1339 866 1253 961 L 1356 1061 Z M 1317 180 Q 1480 264 1568.5 397.5 Q 1657 531 1657 686 Q 1657 847 1565 985 L 1675 1069 Q 1804 901 1804 680 Q 1804 486 1694 323 Q 1584 160 1384 63 L 1317 180 Z"/>
        </g>
        <g transform="matrix(1 0 0 1 3142 1100)">
            <path fill="#000000" stroke="none" d="M 1239 1061 Q 981 897 735.49994 653 Q 490 409 301 121 L 139 186 L 139 1251 L -35 1251 L -35 1391 L 1575 1391 L 1575 1251 L 1401 1251 L 1401 0 L 1245 0 L 1245 1059 L 1239 1061 Z M 295 1251 L 295 403 L 303 401 Q 459 619 702 837.5 Q 945 1056 1249 1251 L 295 1251 Z"/>
        </g>
        <g transform="matrix(1 0 0 1 4678 1100)">
            <path fill="#000000" stroke="none" d="M 874 737 Q 1056 942 1362 969 Q 1407 883 1432.5 781 Q 1458 679 1458 582 Q 1458 410 1375 273.5 Q 1292 137 1140.5 60.5 Q 989 -16 799 -16 Q 599 -16 438.49997 58.5 Q 278 133 190 268.5 Q 102 404 102 578 Q 102 664 125 736.50006 Q 148 809 184 870.5 Q 220 932 297 1018 L 424 915 Q 360 849 331 801 Q 302 753 286 696.5 Q 270 640 270 573 Q 270 374 415 256.5 Q 560 139 803 139 Q 1028 139 1166.5 262.5 Q 1305 386 1305 592 Q 1305 702 1266 813 Q 1124 779 1028.5 697 Q 933 615 860 465 L 709 530 L 709 1251 L -14 1251 L -14 1391 L 1589 1391 L 1589 1251 L 866 1251 L 866 739 L 874 737 Z"/>
        </g>
        <g transform="matrix(1 0 0 1 6253 1100)">
            <path fill="#000000" stroke="none" d="M 1024 385 Q 1085 399 1126 399 Q 1267 399 1343 338.5 Q 1419 278 1419 164 Q 1419 90 1367 8.5 Q 1315 -73 1241.5 -120.5 Q 1168 -168 1090 -168 Q 1010 -168 962.50006 -138.5 Q 915 -109 893.49994 -58 Q 872 -7 872 94 L 872 186 Q 631 -2 530 -301 L 391 -250 Q 455 -58 583 97 Q 711 252 872 340 L 872 827 L 866 829 Q 743 748 664 678 Q 585 608 501.5 512 Q 418 416 342 293 L 178 360 L 178 1251 L -35 1251 L -35 1391 L 1530 1391 L 1530 1251 L 336 1251 L 336 565 L 344 563 Q 400 624 448 673 Q 496 722 540 762 Q 584 802 633 842 Q 682 882 852 1004 L 1024 936 L 1024 385 Z M 1092 -25 Q 1161 -25 1212.5 33 Q 1264 91 1264 162 Q 1264 214 1227 243 Q 1190 272 1122 272 Q 1070 272 1024 258 L 1024 90 Q 1024 33 1035.5 4 Q 1047 -25 1092 -25 Z"/>
        </g>
        <g transform="matrix(1 0 0 1 7758 1100)">
            <path fill="#000000" stroke="none" d="M 655 -63 Q 586 118 455.49997 237.5 Q 325 357 133 401 L 133 553 Q 270 564 385.5 600.5 Q 501 637 556.5 688.5 Q 612 740 612 805 Q 612 898 565 954 Q 518 1010 442 1010 Q 298 1010 164 889 L 70 1014 Q 148 1080 249 1115.5 Q 350 1151 446 1151 Q 563 1151 650.5 1074 Q 738 997 760 872 Q 924 1012 1249 1251 L -35 1251 L -35 1391 L 1575 1391 L 1575 1251 L 1401 1251 L 1401 0 L 1245 0 L 1245 1059 L 1239 1061 Q 963 871 721 647 Q 670 568 575 516.5 Q 480 465 360 457 L 358 449 Q 487 414 610.5 295 Q 734 176 807 10 L 655 -63 Z"/>
        </g>
        <g transform="matrix(1 0 0 1 9851 1100)">
            <path fill="#000000" stroke="none" d="M 344 563 Q 449 714 622 810 Q 795 906 993 924 Q 1081 739 1081 528 Q 1081 273 950 35 Q 819 -203 588 -373 L 481 -248 Q 654 -107 746 11 Q 838 129 883 258.5 Q 928 388 928 543 Q 928 636 893 760 Q 743 733 594 611 Q 445 489 330 293 L 178 358 L 178 1251 L -35 1251 L -35 1391 L 1278 1391 L 1278 1251 L 336 1251 L 336 565 L 344 563 Z"/>
        </g>
        <g transform="matrix(1 0 0 1 11098 1100)">
            <path fill="#000000" stroke="none" d="M 139 6 L 139 1251 L -35 1251 L -35 1391 L 1098 1391 L 1098 1251 L 295 1251 L 295 154 L 301 150 Q 439 167 558.5 245 Q 678 323 745.5 432 Q 813 541 813 645 Q 813 735 774 785.5 Q 735 836 657 836 Q 630 836 598.5 825.5 Q 567 815 549 803 L 487 940 Q 567 979 657 979 Q 797 979 883 889 Q 969 799 969 647 Q 969 486 855 331.5 Q 741 177 553.5 85 Q 366 -7 156 -10 L 139 6 Z"/>
        </g>
        <g transform="matrix(1 0 0 1 12175 1100)">
            <path fill="#000000" stroke="none" d="M 1300 1061 Q 933 828 691 598 Q 449 368 301 129 L 139 195 L 139 1251 L -35 1251 L -35 1391 L 1636 1391 L 1636 1251 L 1462 1251 L 1462 0 L 1307 0 L 1307 1059 L 1300 1061 Z M 295 1251 L 295 403 L 303 401 Q 442 594 675 792.5 Q 908 991 1311 1251 L 295 1251 Z M 1167 573 Q 1062 484 1027 438.49997 Q 992 393 972 338.5 Q 952 284 952 211 Q 952 125 1008 61 Q 1064 -3 1163 -29 L 1114 -168 Q 956 -113 881.5 -16.5 Q 807 80 807 209 Q 807 458 1096 668 L 1167 573 Z"/>
        </g>
        <g transform="matrix(1 0 0 1 13787 1100)">
            <path fill="#000000" stroke="none" d="M 954 0 L 954 1212 L 944 1214 L 934 1214 Q 807 1214 652.5 1118.5 Q 498 1023 389 872 Q 555 803 635 705.50006 Q 715 608 715 471 Q 715 343 629.5 256.5 Q 544 170 408 170 Q 321 170 247.5 213 Q 174 256 132 333.5 Q 90 411 90 510 Q 90 650 161 792.5 Q 232 935 355 1055.5 Q 478 1176 627 1251 L -35 1251 L -35 1391 L 1305 1391 L 1305 1251 L 1108 1251 L 1108 0 L 954 0 Z M 250 502 Q 250 422 296.5 367.5 Q 343 313 410 313 Q 472 313 513.5 355 Q 555 397 555 461 Q 555 552 495.5 624.5 Q 436 697 319 745 Q 250 621 250 502 Z"/>
        </g>
        <g transform="matrix(1 0 0 1 15077 1100)">
            <path fill="#000000" stroke="none" d="M -35 1391 L 1378 1391 L 1378 1251 L 1186 1251 L 1186 0 L 1030 0 L 1030 1251 L 516 1251 Q 780 924 780 647 Q 780 472 685 367 Q 590 262 438 262 Q 348 262 273.5 303 Q 199 344 157 419 Q 115 494 115 590 Q 115 836 551 950 Q 446 1141 332 1251 L -35 1251 L -35 1391 Z M 274 565 Q 274 492 316 446.5 Q 358 401 424 401 Q 475 401 520 430 Q 565 459 594 514 Q 623 569 623 643 Q 623 725 600 815 Q 442 781 358 717.5 Q 274 654 274 565 Z"/>
        </g>
        <g transform="matrix(1 0 0 1 16429 1100)">
            <path fill="#000000" stroke="none" d="M 1532 1071 Q 1247 944 983 750 L 983 0 L 829 0 L 829 629 Q 575 418 326 127 L 178 195 L 178 1251 L -35 1251 L -35 1391 L 1847 1391 L 1847 1251 L 1694 1251 L 1694 0 L 1538 0 L 1538 1069 L 1532 1071 Z M 344 387 Q 557 616 829 825 L 829 1251 L 336 1251 L 336 389 L 344 387 Z M 983 1251 L 983 934 Q 1225 1098 1542 1251 L 983 1251 Z"/>
        </g>
        <g transform="matrix(1 0 0 1 18796 1100)">
            <path fill="#000000" stroke="none" d="M 160 848 Q 329 758 502 758 Q 709 758 889 881 L 889 1251 L -35 1251 L -35 1391 L 1182 1391 L 1182 1251 L 1042 1251 L 1042 0 L 889 0 L 889 705 Q 801 655 708.5 634.5 Q 616 614 502 614 Q 406 614 322 649 L 317 643 Q 397 543 397 397 Q 397 169 186 -31 L 70 76 Q 164 162 206 239 Q 248 316 248 397 Q 248 489 209.5 565 Q 171 641 78 721 L 160 848 Z"/>
        </g>
        <g transform="matrix(1 0 0 1 19967 1100)">
            <path fill="#000000" stroke="none" d="M 1798 131 Q 1566 151 1401 342 L 1401 0 L 1245 0 L 1245 1059 L 1239 1061 Q 943 876 706 638.5 Q 469 401 301 129 L 139 195 L 139 1251 L -35 1251 L -35 1391 L 1884 1391 L 1884 1251 L 1401 1251 L 1401 891 Q 1484 915 1575 915 Q 1695 915 1761 855.5 Q 1827 796 1827 686 Q 1827 573 1742 511.5 Q 1657 450 1466 444 L 1464 438 Q 1514 380 1615.4999 333.5 Q 1717 287 1821 276 L 1798 131 Z M 295 1251 L 295 403 L 303 401 Q 459 619 702 837.5 Q 945 1056 1249 1251 L 295 1251 Z M 1567 791 Q 1488 791 1401 760 L 1401 553 Q 1532 556 1606.5 591.5 Q 1681 627 1681 686 Q 1681 739 1650 765 Q 1619 791 1567 791 Z"/>
        </g>
        <g transform="matrix(1 0 0 1 21827 1100)">
            <path fill="#000000" stroke="none" d="M 150 25 L 150 1251 L -35 1251 L -35 1391 L 1161 1391 L 1161 1251 L 305 1251 L 305 164 L 311 160 Q 456 167 583 233 Q 710 299 785 403.5 Q 860 508 860 618 Q 860 813 700 813 Q 646 813 615 785.5 Q 584 758 584 713 Q 584 687 592.5 670 Q 601 653 616 641 Q 631 629 676 616 L 623 475 Q 535 493 482.5 554 Q 430 615 430 707 Q 430 781 467.5 836.5 Q 505 892 569.5 922 Q 634 952 709 952 Q 849 952 934.5 861.49994 Q 1020 771 1020 621 Q 1020 458 907 312.5 Q 794 167 601 85 Q 408 3 176 0 L 150 25 Z"/>
        </g>
        <g transform="matrix(1 0 0 1 22955 1100)">
            <path fill="#000000" stroke="none" d="M -35 1391 L 1141 1391 L 1141 1251 L 821 1251 Q 920 1162 920 1014 Q 920 891 842 794.5 Q 764 698 592 621 Q 427 549 363 488.50003 Q 299 428 299 338 Q 299 237 360 181 Q 421 125 530 125 Q 635 125 699.5 182.5 Q 764 240 764 334 Q 764 380 756 412 L 915 434 Q 924 382 924 324 Q 924 167 819.5 77.5 Q 715 -12 530 -12 Q 412 -12 323.5 33 Q 235 78 187 158.5 Q 139 239 139 342 Q 139 424 176 490.5 Q 213 557 285.5 612.5 Q 358 668 514 741 Q 770 860 770 1026 Q 770 1120 712.5 1176.5 Q 655 1233 559 1233 Q 458 1233 393 1174 Q 328 1115 328 1016 Q 328 968 346 913 L 197 868 Q 170 934 170 1012 Q 170 1077 197.5 1140 Q 225 1203 281 1251 L -35 1251 L -35 1391 Z"/>
        </g>
        <g transform="matrix(1 0 0 1 24067 1100)">
            <path fill="#000000" stroke="none" d="M 1653 1147 Q 1310 846 1044 418 L 881 483 L 881 1114 L 874 1116 Q 558 828 301 418 L 139 483 L 139 1251 L -35 1251 L -35 1391 L 1989 1391 L 1989 1251 L 1815 1251 L 1815 0 L 1659 0 L 1659 1143 L 1653 1147 Z M 303 696 Q 419 857 543 991 Q 667 1125 819 1251 L 295 1251 L 295 698 L 303 696 Z M 1038 698 L 1047 696 Q 1164 859 1284.5 990 Q 1405 1121 1561 1251 L 1038 1251 L 1038 698 Z"/>
        </g>
        <g transform="matrix(1 0 0 1 26037 1100)">
            <path fill="#000000" stroke="none" d="M 1001 678 L 1010 676 Q 1148 883 1255.5 1011.5 Q 1363 1140 1487 1251 L -35 1251 L -35 1391 L 1909 1391 L 1909 1251 L 1735 1251 L 1735 0 L 1581 0 L 1581 1143 L 1575 1145 Q 1406 985 1269 789.5 Q 1132 594 1014 377 L 848 442 L 848 842 L 717 665 Q 534 415 452.5 353 Q 371 291 279 291 Q 208 291 155.5 326 Q 103 361 63 434 L 199 528 Q 219 488 239.5 470.49997 Q 260 453 289 453 Q 322 453 352 473.50003 Q 382 494 432 555 Q 511 647 656 836 Q 787 1007 858 1083 L 1001 1022 L 1001 678 Z"/>
        </g>
        <g transform="matrix(1 0 0 1 28463 1100)">
            <path fill="#000000" stroke="none" d="M 1024 936 L 1024 -39 Q 1024 -119 1047 -150.5 Q 1070 -182 1118 -182 Q 1178 -182 1247 -137 L 1323 -270 Q 1276 -305 1229.5 -320.5 Q 1183 -336 1122 -336 Q 1003 -336 937.5 -264.5 Q 872 -193 872 -45 L 872 827 L 866 831 Q 708 724 583 595.5 Q 458 467 342 293 L 178 360 L 178 1251 L -35 1251 L -35 1391 L 1407 1391 L 1407 1251 L 336 1251 L 336 565 L 344 563 Q 400 624 448 673 Q 496 722 540 762 Q 584 802 633 842 Q 682 882 852 1004 L 1024 936 Z"/>
        </g>
        <g transform="matrix(1 0 0 1 29843 1100)">
            <path fill="#000000" stroke="none" d="M 901 0 L 901 324 Q 620 333 424 427 Q 228 521 92 715 Q 283 906 459 980.5 Q 635 1055 858 1055 L 901 1055 L 901 1251 L -35 1251 L -35 1391 L 1255 1391 L 1255 1251 L 1057 1251 L 1057 0 L 901 0 Z M 791 909 Q 693 909 613.5 887 Q 534 865 466.5 826.5 Q 399 788 291 694 Q 504 477 868 477 L 901 477 L 901 907 L 845 909 L 791 909 Z"/>
        </g>
        <g transform="matrix(1 0 0 1 31078 1100)">
            <path fill="#000000" stroke="none" d="M -35 1391 L 1671 1391 L 1671 1251 L 1522 1251 L 1522 0 L 1368 0 L 1368 1034 L 1362 1036 L 1086 695 Q 854 405 728 265 Q 602 125 510 66.5 Q 418 8 322 8 Q 231 8 171.5 59.5 Q 112 111 76 217 L 221 285 Q 246 217 271.5 191.5 Q 297 166 336 166 Q 363 166 394.5 180.50002 Q 426 195 465.5 228 Q 505 261 560.5 319 Q 616 377 700 473.50003 Q 784 570 1356 1251 L -35 1251 L -35 1391 Z"/>
        </g>
        <g transform="matrix(1 0 0 1 32733 1100)">
            <path fill="#000000" stroke="none" d="M -35 1391 L 1077 1391 L 1077 1251 L 410 1251 L 410 989 Q 472 1041 531 1066.5 Q 590 1092 668 1092 Q 773 1092 840 1022.49994 Q 907 953 907 840 Q 907 668 760 560.5 Q 613 453 387 453 L 385 444 Q 538 391 625.5 342 Q 713 293 790.5 224 Q 868 155 934 57 L 809 -29 Q 704 126 558 232 Q 412 338 229 393 L 137 420 L 160 571 Q 238 561 303 561 Q 499 561 625.5 634.5 Q 752 708 752 827 Q 752 889 720 922.5 Q 688 956 625 956 Q 560 956 487 903.5 Q 414 851 365 766 L 250 813 L 250 1251 L -35 1251 L -35 1391 Z"/>
        </g>
        <g transform="matrix(1 0 0 1 33786 1100)">
            <path fill="#000000" stroke="none" d="M 922 0 L 922 117 L 889 117 Q 603 117 417.5 186 Q 232 255 100 414 Q 151 478 250 541 Q 349 604 453 637 Q 358 679 277 746 Q 196 813 156 887 Q 293 1024 452 1080.5 Q 611 1137 879 1137 L 922 1137 L 922 1251 L -35 1251 L -35 1391 L 1276 1391 L 1276 1251 L 1077 1251 L 1077 0 L 922 0 Z M 776 557 Q 629 557 516 525 Q 403 493 289 408 Q 458 262 829 262 L 875 262 L 922 264 L 922 551 Q 820 557 776 557 Z M 811 995 Q 652 995 550.5 967 Q 449 939 354 860 Q 451 771 549 736.50006 Q 647 702 774 702 Q 883 702 922 705 L 922 993 L 865 995 L 811 995 Z"/>
        </g>
        <g transform="matrix(1 0 0 1 35041 1100)">
            <path fill="#000000" stroke="none" d="M -27 1391 L 1556 1391 L 1556 1251 L 1376 1251 L 1376 0 L 1221 0 L 1221 778 L 870 739 L 868 733 Q 915 702 941 645 Q 967 588 967 522 Q 967 357 853.5 261.5 Q 740 166 549 166 Q 413 166 303.5 232.5 Q 194 299 140 413.5 Q 86 528 86 678 Q 86 968 338 1251 L -27 1251 L -27 1391 Z M 532 1251 Q 375 1094 307.5 956.49994 Q 240 819 240 678 Q 240 554 280.5 470.49997 Q 321 387 392 344 Q 463 301 559 301 Q 671 301 740 362 Q 809 423 809 524 Q 809 614 762.5 662 Q 716 710 614 713 L 623 854 L 1221 922 L 1221 1251 L 532 1251 Z"/>
        </g>
        <g transform="matrix(1 0 0 1 37107 1100)">
            <path fill="#000000" stroke="none" d="M 897 0 L 897 360 Q 746 250 569 250 Q 356 250 238.5 355.5 Q 121 461 121 659 Q 121 851 239.5 957 Q 358 1063 575 1063 Q 748 1063 897 971 L 897 1251 L -35 1251 L -35 1391 L 1249 1391 L 1249 1251 L 1053 1251 L 1053 0 L 897 0 Z M 592 915 Q 289 915 289 659 Q 289 529 358.49997 465 Q 428 401 573 401 Q 755 401 897 532 L 897 813 Q 813 871 740.5 893 Q 668 915 592 915 Z"/>
        </g>
        <g transform="matrix(1 0 0 1 38321 1100)">
            <path fill="#000000" stroke="none" d="M -35 1391 L 834 1391 Q 826 1468 799.49994 1524.5001 Q 773 1581 732.49994 1621.5001 Q 692 1662 638.5 1688.5 Q 585 1715 519.5 1733.5 Q 454 1752 293 1778 L 319 1909 Q 513 1888 626.5 1847.5 Q 740 1807 811 1745.5001 Q 882 1684 925.49994 1596 Q 969 1508 979 1391 L 1184 1391 L 1184 1251 L 989 1251 Q 989 971 924 805.5 Q 859 640 720.5 562.5 Q 582 485 340 485 L 340 383 Q 340 261 388.5 194 Q 437 127 530 127 Q 627 127 739 190 L 813 57 Q 736 19 670.5 1.5 Q 605 -16 530 -16 Q 364 -16 274 90.50001 Q 184 197 184 383 L 184 1251 L -35 1251 L -35 1391 Z M 340 1251 L 340 627 Q 530 627 634 687.5 Q 738 748 787 882 Q 836 1016 836 1251 L 340 1251 Z"/>
        </g>
        <g transform="matrix(1 0 0 1 39482 1100)">
            <path fill="#000000" stroke="none" d="M 623 809 Q 610 851 610 891 Q 610 965 651.5 1023 Q 693 1081 764 1114 Q 835 1147 913 1147 Q 988 1147 1049 1116.5 Q 1110 1086 1146 1029.5 Q 1182 973 1182 891 Q 1182 840 1156 791.5 Q 1130 743 1079 711 Q 1212 711 1288 630 Q 1364 549 1364 408 Q 1364 287 1293.5 195.49998 Q 1223 104 1084 52 Q 945 0 778 0 Q 591 0 432.5 84.5 Q 274 169 191.5 312 Q 109 455 109 643 Q 109 969 391 1251 L -14 1251 L -14 1391 L 1509 1391 L 1509 1251 L 604 1251 Q 268 977 268 643 Q 268 493 331.5 382 Q 395 271 510.5 211.49998 Q 626 152 776 152 Q 902 152 1004 185 Q 1106 218 1156 275.5 Q 1206 333 1206 410 Q 1206 500 1157 552 Q 1108 604 1024 604 Q 993 604 943.5 594.5 Q 894 585 854 569 L 809 715 Q 927 746 977.5 783.5 Q 1028 821 1028 887 Q 1028 943 995 976.5 Q 962 1010 903 1010 Q 850 1010 811 977.5 Q 772 945 772 891 Q 772 868 778 844 L 623 809 Z"/>
        </g>
        <g transform="matrix(1 0 0 1 40969 1100)">
            <path fill="#000000" stroke="none" d="M 1042 0 L 1042 1108 Q 744 934 602 838 Q 657 744 683 660 Q 709 576 709 483 Q 709 367 625 289 Q 541 211 418 211 Q 332 211 270.5 246 Q 209 281 176 344.50003 Q 143 408 143 487 Q 143 581 201 669 Q 259 757 403 868 Q 278 1044 66 1251 L -35 1251 L -35 1391 L 1372 1391 L 1372 1251 L 1198 1251 L 1198 0 L 1042 0 Z M 524 956 Q 717 1085 1004 1251 L 276 1251 Q 435 1078 524 956 Z M 561 498 Q 561 601 479 752 Q 382 676 338.5 613 Q 295 550 295 487 Q 295 429 329.5 390.49997 Q 364 352 424 352 Q 482 352 521.5 391 Q 561 430 561 498 Z"/>
        </g>
        <g transform="matrix(1 0 0 1 42325 1100)">
            <path fill="#000000" stroke="none" d="M 594 434 L 594 838 Q 524 805 446 805 Q 96 805 78 1251 L -35 1251 L -35 1391 L 1657 1391 L 1657 1251 L 1483 1251 L 1483 0 L 1327 0 L 1327 1059 L 1321 1061 Q 1164 924 1083 834 Q 1002 744 925 629.5 Q 848 515 772 379 L 594 434 Z M 752 1022 L 752 643 L 760 641 Q 868 801 987.5 932 Q 1107 1063 1329 1251 L 229 1251 Q 236 1095 293.5 1020.49994 Q 351 946 465 946 Q 550 946 611.5 967 Q 673 988 733 1030 L 752 1022 Z"/>
        </g>
        <g transform="matrix(1 0 0 1 43976 1100)">
            <path fill="#000000" stroke="none" d="M 203 696 Q 255 635 315 635 Q 348 635 377 655 Q 406 675 465 748 Q 573 879 686.5 1008 Q 800 1137 928 1251 L -35 1251 L -35 1391 L 1352 1391 L 1352 1251 L 1178 1251 L 1178 0 L 1022 0 L 1022 1141 Q 905 1036 802 916.5 Q 699 797 590 662 Q 496 547 434.5 510 Q 373 473 301 473 Q 242 473 191 498.5 Q 140 524 92 590 L 203 696 Z M 731 -143 Q 645 -91 596 -0.5 Q 547 90 547 195 Q 547 309 612 412.5 Q 677 516 821 616 L 897 512 Q 811 451 772 407.49997 Q 733 364 711.5 313.5 Q 690 263 690 203 Q 690 52 821 -29 L 731 -143 Z"/>
        </g>
    </g>
</svg>
