<svg width="44886" height="3789" viewBox="0 0 44886 3789" xmlns="http://www.w3.org/2000/svg">
    <defs/>
    <g transform="matrix(1 0 0 -1 0 3789)">
        <g transform="matrix(1 0 0 1 0 1100)">
            <path fill="#000000" stroke="none" d="M 821 358 Q 821 596 778 708.5 Q 735 821 632.5 867 Q 530 913 324 913 L 293 913 Q 269 839 221.5 794.5 Q 174 750 121 750 L 82 750 L 123 1049 L 317 1049 Q 363 1049 428 1044 L 428 1221 Q 337 1273 259.5 1368.5 Q 182 1464 154 1556 L 340 1556 Q 421 1358 535 1317 Q 598 1342 642.5 1403.5 Q 687 1465 727 1556 L 913 1556 Q 878 1442 796 1347.5 Q 714 1253 614 1206 L 614 1024 Q 826 982 917 839 Q 1008 696 1008 414 L 1008 0 L 821 0 L 821 358 Z"/>
        </g>
        <g transform="matrix(1 0 0 1 1192 1100)">
            <path fill="#000000" stroke="none" d="M 657 477 Q 565 477 521.5 453.5 Q 478 430 458 379 Q 438 328 438 240 L 438 0 L 252 0 L 252 233 Q 252 433 339.5 522.5 Q 427 612 608 612 L 756 612 Q 646 704 595.5 790 Q 545 876 530 985 L 293 985 Q 273 914 224 867.50006 Q 175 821 121 821 L 82 821 L 115 1055 L 82 1284 L 121 1284 Q 175 1284 223.5 1238.5 Q 272 1193 293 1120 L 526 1120 Q 538 1288 640.5 1386.4999 Q 743 1485 907 1485 Q 1067 1485 1162 1402 Q 1257 1319 1257 1178 Q 1257 1070 1201 986.5 Q 1145 903 1039 858 Q 933 813 788 813 Q 852 715 954 663.5 Q 1056 612 1184 612 L 1458 612 L 1499 293 L 1460 293 Q 1392 293 1344 345 Q 1296 397 1284 477 L 657 477 Z M 918 1346 Q 818 1346 766.49994 1279 Q 715 1212 715 1087 Q 715 1031 731 956 Q 906 956 990.49994 1004.5 Q 1075 1053 1075 1165 Q 1075 1243 1031.5 1294.5 Q 988 1346 918 1346 Z"/>
        </g>
        <g transform="matrix(1 0 0 1 2773 1100)">
            <path fill="#000000" stroke="none" d="M 627 1440 L 627 1268 Q 627 1104 676 1061 Q 789 1178 985 1178 Q 1207 1178 1323.5 1043 Q 1440 908 1440 641 L 1440 0 L 1253 0 L 1253 645 Q 1253 838 1189.5 926 Q 1126 1014 995 1014 Q 859 1014 794 927 Q 729 840 729 647 L 729 553 L 543 553 L 543 637 Q 543 803 586 915 Q 510 950 475 1034.5 Q 440 1119 440 1262 L 440 1440 L 293 1440 Q 273 1375 225.5 1335.5 Q 178 1296 121 1296 L 82 1296 L 115 1497 L 82 1698 L 121 1698 Q 177 1698 224.5 1659 Q 272 1620 293 1554 L 774 1554 Q 796 1623 843 1660.5 Q 890 1698 946 1698 L 985 1698 L 952 1497 L 985 1296 L 946 1296 Q 889 1296 842 1334.5 Q 795 1373 774 1440 L 627 1440 Z"/>
        </g>
        <g transform="matrix(1 0 0 1 4336 1100)">
            <path fill="#000000" stroke="none" d="M 246 1462 Q 408 1462 487 1422 Q 566 1382 603.5 1293.5 Q 641 1205 641 1047 L 641 860 L 1012 860 L 1012 1462 L 1198 1462 L 1198 0 L 1012 0 L 1012 725 L 641 725 L 641 0 L 455 0 L 455 1065 Q 455 1204 422 1265.5 Q 389 1327 307 1327 L 293 1327 Q 270 1253 222.5 1208 Q 175 1163 121 1163 L 82 1163 L 123 1462 L 246 1462 Z"/>
        </g>
        <g transform="matrix(1 0 0 1 5718 1100)">
            <path fill="#000000" stroke="none" d="M 289 0 L 102 0 Q 106 567 438 807 Q 320 860 257.5 945.5 Q 195 1031 195 1141 Q 195 1302 292 1392.5001 Q 389 1483 555 1483 Q 667 1483 747 1440 Q 827 1397 870 1322 Q 913 1247 913 1159 Q 913 1086 887 1024 Q 861 962 811.5 906.5 Q 762 851 645 766 Q 763 721 849 633 Q 935 545 995 401 Q 1065 494 1202 494 Q 1337 494 1413 424 Q 1489 354 1489 238 Q 1489 111 1411.5 37 Q 1334 -37 1202 -37 Q 1081 -37 1006 19 Q 931 75 893 205 Q 828 418 739.50006 524.5 Q 651 631 512 666 Q 413 577 375 492 Q 289 305 289 0 Z M 569 903 Q 644 953 673 986.5 Q 702 1020 716.5 1061 Q 731 1102 731 1155 Q 731 1242 681.5 1294 Q 632 1346 549 1346 Q 467 1346 418 1291.5 Q 369 1237 369 1147 Q 369 1055 421 992.50006 Q 473 930 569 903 Z M 1206 358 Q 1146 358 1112.5 324 Q 1079 290 1079 233 Q 1079 172 1113.5 135 Q 1148 98 1206 98 Q 1263 98 1296 135.5 Q 1329 173 1329 233 Q 1329 287 1296 322.5 Q 1263 358 1206 358 Z"/>
        </g>
        <g transform="matrix(1 0 0 1 7162 1100)">
            <path fill="#000000" stroke="none" d="M 434 0 L 434 193 Q 434 353 404 473 Q 374 593 309 709 L 254 809 Q 154 989 154 1130 Q 154 1294 251 1388.4999 Q 348 1483 508 1483 Q 686 1483 783.5 1393 Q 881 1303 881 1137 Q 881 979 773 874 Q 665 769 494 754 Q 544 646 567 578 L 993 578 Q 1127 578 1195.5 522.5 Q 1264 467 1264 367 Q 1264 260 1193 199.5 Q 1122 139 993 139 Q 865 139 794 201.5 Q 723 264 723 367 Q 723 419 741 463 L 598 463 Q 621 350 621 225 L 621 0 L 434 0 Z M 516 1343 Q 435 1343 385.5 1288.5 Q 336 1234 336 1143 Q 336 1010 428 883 Q 562 899 630 965 Q 698 1031 698 1139 Q 698 1231 648.5 1287 Q 599 1343 516 1343 Z M 993 469 Q 940 469 911.5 441.50003 Q 883 414 883 367 Q 883 311 911.5 278.5 Q 940 246 993 246 Q 1047 246 1075.5 280 Q 1104 314 1104 367 Q 1104 413 1074.5 441 Q 1045 469 993 469 Z"/>
        </g>
        <g transform="matrix(1 0 0 1 9040 1100)">
            <path fill="#000000" stroke="none" d="M 1440 512 Q 1381 512 1332.5 559 Q 1284 606 1266 676 L 1102 676 L 1102 516 Q 1102 255 979 117.49999 Q 856 -20 627 -20 Q 400 -20 282 119 Q 164 258 164 520 L 164 940 Q 164 1203 282 1342 Q 400 1481 627 1481 Q 855 1481 978.5 1343 Q 1102 1205 1102 944 L 1102 811 L 1438 811 L 1479 512 L 1440 512 Z M 915 948 Q 915 1140 847.5 1228.5 Q 780 1317 637 1317 Q 488 1317 419 1228 Q 350 1139 350 950 L 350 510 Q 350 320 419 231.5 Q 488 143 637 143 Q 779 143 847 231 Q 915 319 915 512 L 915 948 Z"/>
        </g>
        <g transform="matrix(1 0 0 1 10601 1100)">
            <path fill="#000000" stroke="none" d="M 539 942 L 313 942 Q 295 873 247.5 825.5 Q 200 778 141 778 L 102 778 L 143 1077 L 539 1077 L 539 1462 L 313 1462 Q 296 1402 248.5 1360.5 Q 201 1319 141 1319 L 102 1319 L 135 1520 L 102 1720 L 141 1720 Q 200 1720 248 1679 Q 296 1638 313 1577 L 950 1577 Q 971 1643 1017 1681.5001 Q 1063 1720 1122 1720 L 1161 1720 L 1128 1520 L 1161 1319 L 1122 1319 Q 1062 1319 1016 1358.5 Q 970 1398 950 1462 L 725 1462 L 725 1077 L 1120 1077 L 1161 778 L 1122 778 Q 1066 778 1018 823 Q 970 868 948 942 L 725 942 L 725 135 L 1120 135 L 1161 -164 L 1122 -164 Q 1067 -164 1019 -119.5 Q 971 -75 948 0 L 313 0 Q 294 -70 246 -117 Q 198 -164 141 -164 L 102 -164 L 143 135 L 539 135 L 539 942 Z"/>
        </g>
        <g transform="matrix(1 0 0 1 11763 1100)">
            <path fill="#000000" stroke="none" d="M 676 1366 Q 746 1383 796 1423.4999 Q 846 1464 909 1556 L 1096 1556 Q 1059 1450 978.5 1371 Q 898 1292 776 1253 L 776 1104 Q 1023 1104 1143.5 1024 Q 1264 944 1264 776 Q 1264 616 1138 532.5 Q 1012 449 776 449 L 776 0 L 590 0 L 590 449 Q 102 449 102 776 Q 102 948 223.5 1026 Q 345 1104 590 1104 L 590 1249 Q 463 1284 377 1364 Q 291 1444 254 1556 L 440 1556 Q 500 1470 554 1426 Q 608 1382 676 1366 Z M 590 969 Q 436 969 360.50003 925 Q 285 881 285 778 Q 285 701 316 662 Q 347 623 414 603.5 Q 481 584 590 584 L 590 969 Z M 776 584 Q 934 584 1007.5 628 Q 1081 672 1081 776 Q 1081 877 1006 923 Q 931 969 776 969 L 776 584 Z"/>
        </g>
        <g transform="matrix(1 0 0 1 13088 1100)">
            <path fill="#000000" stroke="none" d="M 289 0 L 102 0 Q 112 262 190 427 Q 268 592 424 694 Q 176 803 176 1038 Q 176 1159 247 1248.5 Q 318 1338 432 1362 L 432 1556 L 618 1556 L 618 1362 Q 744 1343 819.5 1257 Q 895 1171 895 1049 Q 895 945 833.50006 852.5 Q 772 760 623 653 Q 804 590 901 393 Q 929 437 985.5 465.5 Q 1042 494 1120 494 Q 1255 494 1331 424 Q 1407 354 1407 238 Q 1407 111 1329.5 37 Q 1252 -37 1120 -37 Q 1042 -37 990 -15.5 Q 938 6 901 45 Q 864 84 836.5 138.5 Q 809 193 780 260 Q 715 405 646.5 471.49997 Q 578 538 485 553 Q 379 459 334 336 Q 289 213 289 0 Z M 551 793 Q 713 882 713 1044 Q 713 1129 663.5 1182 Q 614 1235 530 1235 Q 448 1235 399 1179.5 Q 350 1124 350 1036 Q 350 942 404.5 879 Q 459 816 551 793 Z M 1124 358 Q 1064 358 1030.5 324 Q 997 290 997 233 Q 997 172 1031.5 135 Q 1066 98 1124 98 Q 1181 98 1214 135.5 Q 1247 173 1247 233 Q 1247 287 1214 322.5 Q 1181 358 1124 358 Z"/>
        </g>
        <g transform="matrix(1 0 0 1 14536 1100)">
            <path fill="#000000" stroke="none" d="M 752 1462 L 938 1462 L 938 662 Q 938 499 986 423.49997 Q 1034 348 1133 348 Q 1223 348 1270 421 Q 1317 494 1319 659 L 1319 1462 L 1505 1462 L 1505 653 Q 1505 433 1406 308.5 Q 1307 184 1128 184 Q 985 184 897 270 Q 822 -20 549 -20 Q 374 -20 279 105.49999 Q 184 231 184 457 L 184 1462 L 371 1462 L 371 457 Q 371 294 419 218.5 Q 467 143 565 143 Q 658 143 705 218.5 Q 752 294 752 461 L 752 1462 Z"/>
        </g>
        <g transform="matrix(1 0 0 1 16226 1100)">
            <path fill="#000000" stroke="none" d="M 299 115 L 547 729 Q 164 762 164 1124 L 164 1462 L 350 1462 L 350 1130 Q 350 883 600 862 L 844 1462 L 1032 1462 L 494 135 L 791 135 Q 808 202 857.5 250.5 Q 907 299 963 299 L 1001 299 L 969 70 L 1001 -164 L 963 -164 Q 907 -164 857 -115 Q 807 -66 791 0 L 299 0 L 299 115 Z"/>
        </g>
        <g transform="matrix(1 0 0 1 17872 1100)">
            <path fill="#000000" stroke="none" d="M 1270 1462 L 1311 1163 L 1272 1163 Q 1215 1163 1165.5 1210 Q 1116 1257 1098 1327 L 799 1327 L 799 811 L 975 811 L 975 979 L 1161 979 L 1161 625 L 1360 625 L 1401 305 L 1362 305 Q 1294 305 1246 357 Q 1198 409 1186 489 L 975 489 L 975 676 L 799 676 L 799 0 L 612 0 L 612 1327 L 313 1327 Q 294 1257 246 1210 Q 198 1163 141 1163 L 102 1163 L 143 1462 L 1270 1462 Z"/>
        </g>
        <g transform="matrix(1 0 0 1 19355 1100)">
            <path fill="#000000" stroke="none" d="M 1808 383 Q 1742 383 1693 434.5 Q 1644 486 1632 567 L 1421 567 L 1421 754 L 1257 754 Q 1232 624 1110.5 556.5 Q 989 489 776 489 L 776 0 L 590 0 L 590 489 Q 352 489 227 570.5 Q 102 652 102 817 Q 102 989 223.5 1067 Q 345 1145 590 1145 L 590 1462 L 776 1462 L 776 1145 Q 991 1145 1112 1083 Q 1233 1021 1257 889 L 1421 889 L 1421 1057 L 1608 1057 L 1608 702 L 1806 702 L 1847 383 L 1808 383 Z M 590 1010 Q 436 1010 360.50003 966 Q 285 922 285 819 Q 285 742 316 703 Q 347 664 414 644.5 Q 481 625 590 625 L 590 1010 Z M 776 625 Q 934 625 1007.5 669 Q 1081 713 1081 817 Q 1081 918 1006 964 Q 931 1010 776 1010 L 776 625 Z"/>
        </g>
        <g transform="matrix(1 0 0 1 21100 1100)">
            <path fill="#000000" stroke="none" d="M 627 1440 L 627 1268 Q 627 1104 676 1061 Q 789 1178 985 1178 Q 1207 1178 1323.5 1043 Q 1440 908 1440 641 L 1440 135 L 1612 135 L 1653 -164 L 1614 -164 Q 1557 -164 1507.5 -117 Q 1458 -70 1440 0 L 942 0 Q 923 -70 875 -117 Q 827 -164 770 -164 L 731 -164 L 772 135 L 1253 135 L 1253 645 Q 1253 838 1189.5 926 Q 1126 1014 995 1014 Q 859 1014 794 927 Q 729 840 729 647 L 729 553 L 543 553 L 543 637 Q 543 803 586 915 Q 510 950 475 1034.5 Q 440 1119 440 1262 L 440 1440 L 293 1440 Q 273 1375 225.5 1335.5 Q 178 1296 121 1296 L 82 1296 L 115 1497 L 82 1698 L 121 1698 Q 177 1698 224.5 1659 Q 272 1620 293 1554 L 774 1554 Q 796 1623 843 1660.5 Q 890 1698 946 1698 L 985 1698 L 952 1497 L 985 1296 L 946 1296 Q 889 1296 842 1334.5 Q 795 1373 774 1440 L 627 1440 Z"/>
        </g>
        <g transform="matrix(1 0 0 1 22708 1100)">
            <path fill="#000000" stroke="none" d="M 901 1462 Q 936 1406 936 1333 Q 936 1208 834 1102 Q 762 1028 743.5 1000 Q 725 972 725 944 L 725 936 L 1120 936 L 1161 637 L 1122 637 Q 1066 637 1018 682 Q 970 727 948 801 L 725 801 L 725 0 L 539 0 L 539 801 L 313 801 Q 295 732 247.5 684.5 Q 200 637 141 637 L 102 637 L 143 936 L 539 936 L 539 942 Q 539 1004 594 1059 Q 494 1076 430.5 1145.5 Q 367 1215 367 1309 Q 367 1398 410 1462 L 313 1462 Q 296 1402 248.5 1360.5 Q 201 1319 141 1319 L 102 1319 L 135 1520 L 102 1720 L 141 1720 Q 200 1720 248 1679 Q 296 1638 313 1577 L 948 1577 Q 970 1651 1019 1696 Q 1068 1741 1122 1741 L 1161 1741 L 1120 1462 L 901 1462 Z M 651 1438 Q 606 1438 577.5 1404 Q 549 1370 549 1321 Q 549 1213 682 1176 Q 754 1243 754 1327 Q 754 1378 728 1408 Q 702 1438 651 1438 Z"/>
        </g>
        <g transform="matrix(1 0 0 1 23972 1100)">
            <path fill="#000000" stroke="none" d="M 1047 541 L 1153 541 Q 1282 541 1357 472 Q 1432 403 1432 287 Q 1432 148 1338 74 Q 1244 0 1073 0 L 670 0 L 670 117 L 872 608 L 696 608 Q 613 575 500 575 Q 319 575 221 653.5 Q 123 732 123 881 L 123 1178 Q 123 1323 220 1403 Q 317 1483 498 1483 Q 677 1483 777 1402.5 Q 877 1322 877 1178 L 877 881 Q 877 803 848 743 L 1128 743 L 1047 541 Z M 500 713 Q 610 713 656 761.5 Q 702 810 702 913 L 702 1153 Q 702 1250 655 1298 Q 608 1346 498 1346 Q 392 1346 344.50003 1298 Q 297 1250 297 1153 L 297 913 Q 297 810 344.50003 761.5 Q 392 713 500 713 Z M 989 401 L 881 135 L 1038 135 Q 1144 135 1196.5 170.5 Q 1249 206 1249 281 Q 1249 401 1094 401 L 989 401 Z"/>
        </g>
        <g transform="matrix(1 0 0 1 25399 1100)">
            <path fill="#000000" stroke="none" d="M 256 0 L 549 727 Q 352 744 258 844 Q 164 944 164 1124 L 164 1462 L 350 1462 L 350 1130 Q 350 883 602 862 L 844 1462 L 1032 1462 L 444 0 L 256 0 Z"/>
        </g>
        <g transform="matrix(1 0 0 1 26980 1100)">
            <path fill="#000000" stroke="none" d="M 799 729 L 1163 729 L 1204 410 L 1165 410 Q 1098 410 1049.5 461 Q 1001 512 989 594 L 799 594 L 799 0 L 612 0 L 612 1327 L 313 1327 Q 294 1257 246 1210 Q 198 1163 141 1163 L 102 1163 L 143 1462 L 1270 1462 L 1311 1163 L 1272 1163 Q 1215 1163 1165.5 1210 Q 1116 1257 1098 1327 L 799 1327 L 799 729 Z"/>
        </g>
        <g transform="matrix(1 0 0 1 28393 1100)">
            <path fill="#000000" stroke="none" d="M 848 1346 L 848 1223 Q 967 1203 1037.5 1122.5 Q 1108 1042 1108 924 Q 1108 766 992.50006 666.5 Q 877 567 688 561 Q 751 487 835 456.50003 Q 919 426 1071 426 L 1309 426 L 1350 106 L 1311 106 Q 1243 106 1195 158 Q 1147 210 1135 291 L 508 291 Q 416 291 372.5 267.5 Q 329 244 309 193 Q 289 142 289 53 L 289 0 L 102 0 L 102 47 Q 102 247 190 336.5 Q 278 426 459 426 L 594 426 Q 500 497 438.49997 612.5 Q 377 728 377 844 Q 377 993 451.5 1093 Q 526 1193 662 1221 L 662 1346 L 375 1346 Q 355 1281 307.5 1241.5 Q 260 1202 203 1202 L 164 1202 L 197 1403 L 164 1604 L 203 1604 Q 259 1604 306.5 1565 Q 354 1526 375 1460 L 1141 1460 Q 1159 1524 1207 1564 Q 1255 1604 1313 1604 L 1352 1604 L 1319 1403 L 1352 1202 L 1313 1202 Q 1255 1202 1206.5 1242.5 Q 1158 1283 1141 1346 L 848 1346 Z M 768 1092 Q 674 1092 619.5 1029.5 Q 565 967 565 864 Q 565 812 577.5 768 Q 590 724 602 702 Q 767 704 846.5 754.5 Q 926 805 926 911 Q 926 989 882 1040.5 Q 838 1092 768 1092 Z"/>
        </g>
        <g transform="matrix(1 0 0 1 29766 1100)">
            <path fill="#000000" stroke="none" d="M 821 545 Q 821 783 778.5 894 Q 736 1005 634.5 1052.5 Q 533 1100 324 1100 L 293 1100 Q 270 1026 222.5 981 Q 175 936 121 936 L 82 936 L 123 1235 L 317 1235 Q 391 1235 459 1231 Q 374 1285 300.5 1380.5 Q 227 1476 203 1556 L 389 1556 Q 429 1458 479.5 1397.5 Q 530 1337 584 1317 Q 647 1342 691.5 1403.5 Q 736 1465 776 1556 L 963 1556 Q 925 1438 839.5 1341.5 Q 754 1245 655 1202 Q 822 1158 904.5 1045 Q 987 932 1004 725 L 1370 725 L 1411 426 L 1372 426 Q 1316 426 1268 471 Q 1220 516 1198 590 L 1008 590 L 1008 0 L 821 0 L 821 545 Z"/>
        </g>
        <g transform="matrix(1 0 0 1 31259 1100)">
            <path fill="#000000" stroke="none" d="M 1122 637 Q 1066 637 1018 682 Q 970 727 948 801 L 725 801 L 725 0 L 539 0 L 539 801 L 313 801 Q 295 732 247.5 684.5 Q 200 637 141 637 L 102 637 L 143 936 L 539 936 L 539 948 Q 539 1007 575 1059 Q 475 1076 411.5 1145.5 Q 348 1215 348 1309 Q 348 1431 427.5 1504 Q 507 1577 635 1577 Q 765 1577 841.5 1511.5 Q 918 1446 918 1333 Q 918 1206 816 1102 Q 755 1041 740 1011.5 Q 725 982 725 954 L 725 936 L 1120 936 L 1161 637 L 1122 637 Z M 633 1438 Q 588 1438 559 1403.5 Q 530 1369 530 1321 Q 530 1213 664 1176 Q 735 1242 735 1327 Q 735 1378 709.5 1408 Q 684 1438 633 1438 Z"/>
        </g>
        <g transform="matrix(1 0 0 1 32523 1100)">
            <path fill="#000000" stroke="none" d="M 293 0 Q 273 -71 224 -117.49999 Q 175 -164 121 -164 L 82 -164 L 115 70 L 82 299 L 121 299 Q 175 299 223.5 253.5 Q 272 208 293 135 L 502 135 L 502 457 L 164 457 L 164 594 Q 164 1014 502 1112 L 502 1346 L 293 1346 Q 273 1281 225.5 1241.5 Q 178 1202 121 1202 L 82 1202 L 115 1403 L 82 1604 L 121 1604 Q 177 1604 224.5 1565 Q 272 1526 293 1460 L 897 1460 Q 919 1529 966 1566.5 Q 1013 1604 1069 1604 L 1108 1604 L 1075 1403 L 1108 1202 L 1069 1202 Q 1012 1202 965 1240.5 Q 918 1279 897 1346 L 688 1346 L 688 1141 L 716 1143 L 965 1143 Q 1112 1143 1189 1083.5 Q 1266 1024 1266 909 Q 1266 795 1186.5 729.5 Q 1107 664 963 664 Q 821 664 740 731 Q 659 798 659 909 Q 659 959 676 1001 Q 496 987 423 900 Q 350 813 350 610 L 350 594 L 688 594 L 688 0 L 293 0 Z M 965 1024 Q 906 1024 874 992.50006 Q 842 961 842 907 Q 842 850 874.5 814 Q 907 778 963 778 Q 1018 778 1050.5 814 Q 1083 850 1083 907 Q 1083 962 1052 993 Q 1021 1024 965 1024 Z"/>
        </g>
        <g transform="matrix(1 0 0 1 33871 1100)">
            <path fill="#000000" stroke="none" d="M 246 1462 Q 408 1462 487 1422 Q 566 1382 603.5 1293.5 Q 641 1205 641 1047 L 641 860 L 1012 860 L 1012 1047 Q 1012 1203 1049 1292.5 Q 1086 1382 1165 1422 Q 1244 1462 1407 1462 L 1530 1462 L 1571 1163 L 1532 1163 Q 1476 1163 1427 1211.5 Q 1378 1260 1360 1327 L 1346 1327 Q 1262 1327 1230 1264 Q 1198 1201 1198 1065 L 1198 0 L 1012 0 L 1012 725 L 641 725 L 641 362 L 455 362 L 455 725 L 293 725 Q 270 649 223 605 Q 176 561 121 561 L 82 561 L 123 860 L 455 860 L 455 1065 Q 455 1204 422 1265.5 Q 389 1327 307 1327 L 293 1327 Q 270 1253 222.5 1208 Q 175 1163 121 1163 L 82 1163 L 123 1462 L 246 1462 Z"/>
        </g>
        <g transform="matrix(1 0 0 1 36056 1100)">
            <path fill="#000000" stroke="none" d="M 1075 1604 L 1042 1403 L 1075 1202 L 1036 1202 Q 979 1202 932 1240.5 Q 885 1279 864 1346 L 672 1346 L 672 1059 Q 834 1019 916.5 885.5 Q 999 752 1008 541 L 1198 541 Q 1327 541 1402 472 Q 1477 403 1477 287 Q 1477 148 1383 74 Q 1289 0 1118 0 L 823 0 L 823 408 Q 823 644 780 756 Q 737 868 634.5 915.5 Q 532 963 324 963 L 293 963 Q 270 889 222.5 844 Q 175 799 121 799 L 82 799 L 123 1098 L 317 1098 Q 402 1098 485 1092 L 485 1346 L 293 1346 Q 273 1281 225.5 1241.5 Q 178 1202 121 1202 L 82 1202 L 115 1403 L 82 1604 L 121 1604 Q 177 1604 224.5 1565 Q 272 1526 293 1460 L 864 1460 Q 886 1529 933 1566.5 Q 980 1604 1036 1604 L 1075 1604 Z M 1010 401 L 1010 135 L 1083 135 Q 1189 135 1241.5 170.5 Q 1294 206 1294 281 Q 1294 401 1139 401 L 1010 401 Z"/>
        </g>
        <g transform="matrix(1 0 0 1 37488 1100)">
            <path fill="#000000" stroke="none" d="M 434 0 L 434 193 Q 434 353 404 473 Q 374 593 309 709 L 254 809 Q 154 989 154 1130 Q 154 1294 251 1388.4999 Q 348 1483 508 1483 Q 686 1483 783.5 1393 Q 881 1303 881 1137 Q 881 979 773 874 Q 665 769 494 754 Q 566 604 593.5 483 Q 621 362 621 225 L 621 0 L 434 0 Z M 516 1343 Q 435 1343 385.5 1288.5 Q 336 1234 336 1143 Q 336 1010 428 883 Q 562 899 630 965 Q 698 1031 698 1139 Q 698 1231 648.5 1287 Q 599 1343 516 1343 Z"/>
        </g>
        <g transform="matrix(1 0 0 1 38522 1100)">
            <path fill="#000000" stroke="none" d="M 776 0 L 590 0 L 590 489 Q 352 489 227 570.5 Q 102 652 102 817 Q 102 989 223.5 1067 Q 345 1145 590 1145 L 590 1462 L 776 1462 L 776 1145 Q 1019 1145 1141.5 1065.5 Q 1264 986 1264 817 Q 1264 656 1137 572.5 Q 1010 489 776 489 L 776 0 Z M 590 1010 Q 436 1010 360.50003 966 Q 285 922 285 819 Q 285 742 316 703 Q 347 664 414 644.5 Q 481 625 590 625 L 590 1010 Z M 776 625 Q 934 625 1007.5 669 Q 1081 713 1081 817 Q 1081 918 1006 964 Q 931 1010 776 1010 L 776 625 Z"/>
        </g>
        <g transform="matrix(1 0 0 1 39888 1100)">
            <path fill="#000000" stroke="none" d="M 164 590 Q 164 944 322.5 1105 Q 481 1266 809 1266 L 1085 1266 L 1085 1171 Q 1148 1215 1235.5 1240.5 Q 1323 1266 1403 1266 Q 1581 1266 1705 1183 Q 1829 1100 1882 942 L 2054 942 Q 2183 942 2258 873 Q 2333 804 2333 688 Q 2333 549 2239 475 Q 2145 401 1974 401 L 1720 401 L 1720 690 Q 1720 910 1633.5 1006 Q 1547 1102 1343 1102 Q 1279 1102 1203 1079 Q 1127 1056 1085 1022 L 1085 717 L 1237 717 L 1237 541 L 1384 541 Q 1513 541 1588 472 Q 1663 403 1663 287 Q 1663 149 1570.5 74.5 Q 1478 0 1305 0 L 1051 0 L 1051 582 L 899 582 L 899 1102 Q 697 1102 587.5 1065 Q 478 1028 420 942 L 498 942 Q 626 942 701 874 Q 776 806 776 688 Q 776 550 683.5 475.5 Q 591 401 418 401 L 164 401 L 164 590 Z M 1653 1720 L 1620 1520 L 1653 1319 L 1614 1319 Q 1552 1319 1505 1361.5 Q 1458 1404 1442 1462 L 676 1462 Q 657 1400 610.5 1359.5 Q 564 1319 504 1319 L 465 1319 L 498 1520 L 465 1720 L 504 1720 Q 563 1720 609.5 1680 Q 656 1640 676 1577 L 1442 1577 Q 1459 1637 1505.5 1678.5 Q 1552 1720 1614 1720 L 1653 1720 Z M 1905 803 L 1907 776 L 1907 537 L 1939 537 Q 2045 537 2097.5 572 Q 2150 607 2150 682 Q 2150 803 1995 803 L 1905 803 Z M 1237 401 L 1237 135 L 1270 135 Q 1376 135 1428.5 170.5 Q 1481 206 1481 281 Q 1481 401 1325 401 L 1237 401 Z M 367 803 Q 350 728 350 610 L 350 537 L 383 537 Q 489 537 541.5 572 Q 594 607 594 682 Q 594 803 438 803 L 367 803 Z"/>
        </g>
        <g transform="matrix(1 0 0 1 42303 1100)">
            <path fill="#000000" stroke="none" d="M 289 0 L 102 0 Q 106 567 438 807 Q 320 860 257.5 945.5 Q 195 1031 195 1141 Q 195 1302 292 1392.5001 Q 389 1483 555 1483 Q 658 1483 734.49994 1446 Q 811 1409 856.5 1342.5 Q 902 1276 911 1190 L 1196 1190 L 1237 891 L 1198 891 Q 1142 891 1094 936 Q 1046 981 1024 1055 L 897 1055 Q 877 986 822 920.5 Q 767 855 645 766 Q 832 699 930 535 Q 1028 371 1028 125 L 1028 0 L 842 0 L 842 94 Q 842 346 758.5 485 Q 675 624 512 666 Q 413 577 375 492 Q 289 305 289 0 Z M 569 903 Q 644 953 673 986.5 Q 702 1020 716.5 1061 Q 731 1102 731 1155 Q 731 1242 681.5 1294 Q 632 1346 549 1346 Q 467 1346 418 1291.5 Q 369 1237 369 1147 Q 369 1055 421 992.50006 Q 473 930 569 903 Z"/>
        </g>
        <g transform="matrix(1 0 0 1 43622 1100)">
            <path fill="#000000" stroke="none" d="M 725 541 L 1120 541 L 1161 242 L 1122 242 Q 1066 242 1018 287 Q 970 332 948 406 L 725 406 L 725 0 L 539 0 L 539 942 L 313 942 Q 295 873 247.5 825.5 Q 200 778 141 778 L 102 778 L 143 1077 L 539 1077 L 539 1462 L 725 1462 L 725 1077 L 1120 1077 L 1161 778 L 1122 778 Q 1066 778 1018 823 Q 970 868 948 942 L 725 942 L 725 541 Z"/>
        </g>
    </g>
</svg>
