<svg width="105038" height="5682" viewBox="0 0 105038 5682" xmlns="http://www.w3.org/2000/svg">
    <defs/>
    <g transform="matrix(1 0 0 -1 0 5682)">
        <g transform="matrix(1 0 0 1 0 1913)">
            <path fill="#000000" stroke="none" d="M 2132 907 L 2140 973 Q 1706 932 1657 911 Q 1673 1015 1673 1087 Q 1673 1152 1665 1194 Q 1551 629 1544 -109 Q 1657 -171 1683 -184 L 1659 -227 L 1544 -170 L 1544 -229 L 1491 -229 L 1491 -145 Q 1115 30 727 182 L 715 -31 L 676 -31 L 668 205 Q 263 360 205 367 Q 280 456 346 631 Q 280 806 205 895 Q 267 901 622.5 1038 Q 978 1175 1337 1339 L 1317 1427 L 1296 1507 Q 1401 1483 1511 1483 Q 1622 1483 1739 1507 Q 1704 1387 1673 1231 Q 1760 1211 2140 1171 Q 2140 1223 2132 1260 Q 2165 1245 2384 1235 Q 2453 1299 2490 1382 Q 2566 1280 2740 1124 L 3006 1108 Q 2987 1256 2959 1358 Q 3017 1343 3066 1343 Q 3108 1343 3156 1354 Q 3130 1255 3115 1104 L 3209 1102 Q 3174 1304 3119 1507 Q 3224 1483 3334 1483 Q 3445 1483 3561 1507 Q 3367 798 3367 -229 L 3314 -229 Q 3314 -10 3303 223 Q 3116 221 2768.5002 198.5 Q 2421 176 2062 141.5 Q 1703 107 1657 88 Q 1673 189 1673 264 Q 1673 346 1657 414 Q 1707 393 2019 360.50003 Q 2331 328 2702 303 Q 3073 278 3299 276 Q 3278 680 3219 1044 L 3109 1040 Q 3088 841 3070 455 L 3049 455 Q 3043 689 3033 858 L 2951 913 Q 2760 757 2656 658.5 Q 2552 560 2490 479 Q 2446 575 2374 637 L 2394 643 Q 2177 618 2132 602 Q 2140 634 2140 678 Q 2140 720 2132 750 Q 2152 742 2269 725 Q 2386 708 2525 692 L 2597 729 L 2597 823 L 2329 791 Q 2166 771 2132 760 Q 2140 789 2140 836 Q 2140 878 2132 907 Z M 1180 1122 Q 1237 1040 1419 889 Q 1393 1086 1354 1268 Q 932 1014 602 791 Q 643 782 686 782 Q 738 782 803 795 Q 789 760 777.5 692.5 Q 766 625 745 416 Q 799 481 838 573 L 836 573 Q 878 619 901.5 657.5 Q 925 696 950 752 L 944 754 Q 985 797 1011 839 Q 1037 881 1061 938 Q 1129 839 1454 600 L 1432 805 Q 1223 911 1063 938 Q 1104 981 1130 1023 Q 1156 1065 1180 1122 Z M 838 573 Q 905 477 1389 134 L 1487 63 L 1477 270 Q 1320 368 1129.5 460.5 Q 939 553 838 573 Z M 956 752 Q 1012 682 1180.5 548 Q 1349 414 1475 326 L 1460 535 Q 1322 615 1183 675 Q 1044 735 956 752 Z M 741 379 Q 1150 116 1489 -78 L 1489 -32 L 1487 12 Q 1309 124 1076 241.5 Q 843 359 741 383 L 741 379 Z M 2644 1014 L 2644 756 Q 2769 828 2925 930 L 2781 1024 L 2644 1014 Z M 590 782 Q 453 691 377 631 Q 450 571 649 440 Q 625 690 590 782 Z M 2134 905 Q 2154 897 2281.5 879 Q 2409 861 2597 844 L 2597 969 L 2427 949 Q 2171 922 2134 905 Z M 2951 948 L 3021 995 L 3017 1036 L 2853 1028 L 2951 948 Z M 2324 1155 L 2593 1135 L 2490 1182 L 2324 1155 Z M 3023 971 L 2972 930 L 3031 883 L 3023 971 Z M 2597 1010 Q 2489 1003 2478 1001 L 2597 989 L 2597 1010 Z"/>
        </g>
        <g transform="matrix(1 0 0 1 3766 1913)">
            <path fill="#000000" stroke="none" d="M 899 1440 Q 1174 1171 1985 702 Q 2203 885 2300 975.5 Q 2397 1066 2464 1139 Q 2427 1328 2378 1507 Q 2481 1483 2593 1483 Q 2703 1483 2820 1507 Q 2744 1238 2706.5 849 Q 2669 460 2650 -229 L 2597 -229 Q 2569 196 2541.5 511 Q 2514 826 2480 1040 Q 2412 923 2352.5 832.50006 Q 2293 742 2247 664 Q 2348 487 2533 246 L 2490 209 Q 2153 503 1968 639 Q 1550 397 1287.5 214 Q 1025 31 899 -90 Q 859 56 762 176 L 803 188 L 803 643 Q 613 625 510 603.5 Q 407 582 298 538 L 205 500 Q 221 586 221 670 Q 221 752 205 848 L 285 814 Q 427 752 535 729 Q 643 706 803 696 L 803 1159 L 762 1174 Q 858 1292 899 1440 Z M 1288 655 L 1299 610 Q 1316 519 1348 408 L 1642 541 L 1587 623 L 1536 696 Q 1491 691 1445 690.5 Q 1399 690 1343 682 L 1341 688 L 1333 682 Q 1304 732 1276.5 769 Q 1249 806 1223 844 Q 1184 839 1144.5 839 Q 1105 839 1059 834 L 1059 553 Q 1171 596 1205 612 Q 1239 628 1288 655 Z M 987 1092 L 874 1135 L 874 213 L 987 256 L 987 1092 Z M 1602 827 L 1613 779 Q 1640 651 1669 551 L 1939 676 Q 1360 937 1290 967 L 1301 922 Q 1323 806 1350 715 Q 1401 735 1436 748.5 Q 1471 762 1498.5 774 Q 1526 786 1549.4999 798 Q 1573 810 1602 827 Z M 1059 285 L 1313 393 L 1267 461 L 1223 524 Q 1184 519 1144.5 519 Q 1105 519 1059 514 L 1059 285 Z M 1282 971 L 1059 1063 L 1059 872 Q 1222 937 1282 971 Z"/>
        </g>
        <g transform="matrix(1 0 0 1 6791 1913)">
            <path fill="#000000" stroke="none" d="M 1202 545 Q 1214 597 1214 647 Q 1214 698 1202 743 Q 1275 722 1386 705 Q 1366 971 1362 1006 Q 1095 1070 907 1090 Q 1031 1266 1069 1503 Q 1184 1417 1380 1309 Q 1386 1348 1386 1386 Q 1386 1437 1376 1483 Q 1536 1436 1666.5 1418.5 Q 1797 1401 1987 1389 Q 1971 1510 1952 1589 Q 1990 1579 2048 1579 Q 2107 1579 2150 1589 Q 2117 1473 2095 1112 Q 2180 1163 2226 1229 Q 2276 1125 2392 985 Q 2513 1084 2572 1137 L 2507 1167 Q 2541 1191 2580.5 1235.5 Q 2620 1280 2650 1329 L 2712 1242 Q 2816 1093 2939 967 L 2929 1059 L 3041 1024 Q 3285 946 3537 946 L 3537 920 Q 3169 908 2929 831 Q 2933 846 2939 922 Q 2821 804 2730 676 L 3086 530 L 3086 473 Q 2386 315 1837 174 Q 1811 -100 1806 -309 L 1782 -309 Q 1782 -103 1757 154 L 1626 121 Q 1610 -36 1599 -309 L 1575 -309 Q 1575 -110 1554 100 L 1415 63 Q 1399 -124 1395 -309 L 1370 -309 Q 1370 -133 1354 47 Q 568 -164 360 -270 Q 356 -17 268 164 L 288 162 L 309 162 Q 292 538 263 847.5 Q 234 1157 205 1229 Q 272 1217 334 1217 Q 399 1217 461 1229 Q 433 1162 408 952 Q 504 1024 578 1122 Q 623 1011 1026 539 L 1274 246 L 1335 254 Q 1312 447 1282 563 L 1202 545 Z M 2118 793 L 2081 805 L 2073 520 L 2048 520 L 2040 618 L 1821 612 L 1821 589 L 1819 567 Q 1864 572 1898 580 Q 1877 520 1853 328 Q 2420 414 2976 508 L 2683 608 L 2650 561 Q 2623 603 2595 639 L 2273 743 L 2226 668 Q 2189 737 2103 786 L 2118 793 Z M 1231 240 Q 531 888 408 944 Q 392 805 371 543 Q 462 611 526 702 Q 579 574 895 199 L 1231 240 Z M 2908 944 Q 2759 1049 2599 1124 Q 2472 988 2431 940 Q 2476 887 2591 762 Q 2770 846 2908 944 Z M 371 162 Q 522 162 799 188 Q 493 454 369 520 L 340 162 L 371 162 Z M 1563 938 Q 1598 924 1743 905 Q 1674 927 1587 948 L 1563 940 L 1565 954 L 1444 987 L 1423 698 Q 1487 688 1565 682 L 1569 737 L 1565 797 L 1563 797 L 1563 801 L 1565 805 L 1563 817 L 1564 816 L 1567 815 Q 1571 837 1571 862 Q 1571 885 1563 938 Z M 2087 956 Q 2169 917 2255 881 L 2341 942 Q 2280 992 2236 1022.49994 Q 2192 1053 2095 1110 L 2087 956 Z M 1536 281 Q 1511 486 1485 573 Q 1464 511 1436 266 L 1536 281 Z M 2034 739 L 1827 721 L 1827 691 L 1825 662 L 2040 647 L 2034 739 Z M 1925 852 L 1835 844 L 1831 774 L 2032 760 L 2028 821 L 1925 852 Z M 1739 311 Q 1709 519 1690 575 Q 1669 511 1645 297 L 1739 311 Z M 1847 1069 L 1921 1034 L 2015 1028 L 2009 1124 L 1851 1110 L 1847 1069 Z M 2001 1243 L 1864 1231 L 1855 1159 L 2007 1149 L 2001 1243 Z M 1794 610 Q 1504 599 1323 569 L 1378 565 Q 1430 565 1483 578 L 1483 580 Q 1531 567 1583 567 Q 1637 567 1690 580 Q 1739 567 1796 567 L 1796 588 L 1794 610 Z M 1991 1354 L 1743 1341 Q 1772 1333 1817 1333 Q 1857 1333 1884 1341 Q 1877 1328 1870 1278 L 1997 1270 L 1991 1354 Z M 2560 748 L 2564 750 L 2394 897 L 2345 840 L 2560 748 Z M 1470 1260 L 1567 1208 L 1571 1251 Q 1571 1270 1563 1321 Q 1480 1310 1411 1290 L 1425 1284 L 1438 1276 L 1477 1284 L 1470 1260 Z M 1575 680 L 1792 664 L 1792 690 L 1790 717 Q 1643 703 1575 680 Z M 1786 838 Q 1647 821 1593 807 Q 1649 792 1788 778 L 1786 808 L 1786 838 Z M 1743 1341 Q 1616 1329 1565 1321 Q 1612 1303 1753 1290 Q 1746 1332 1743 1341 Z M 1597 1192 Q 1683 1175 1765 1167 Q 1765 1195 1761 1221 Q 1664 1211 1597 1192 Z M 2017 1004 Q 2008 1001 1989 1001 L 2019 987 L 2017 1004 Z"/>
        </g>
        <g transform="matrix(1 0 0 1 10533 1913)">
            <path fill="#000000" stroke="none" d="M 1800 578 L 1808 639 L 1782 616 Q 1541 827 1427 913 Q 979 1008 666 1008 Q 533 1008 379 985 L 317 977 Q 412 1167 416 1407 L 489 1356 Q 642 1245 842.5 1158.5 Q 1043 1072 1323 997 Q 1586 1221 1755 1417 L 1796 1395 Q 1725 1269 1675 1171.5 Q 1625 1074 1579 995 Q 1652 870 1810 657 L 1811 695 Q 1811 755 1800 807 L 1798 807 L 1798 812 L 1800 817 L 1798 825 L 1800 823 Q 1810 885 1810 946 Q 1810 1011 1800 1059 L 1798 1059 L 1798 1072 L 1798 1071 L 1800 1071 Q 1810 1133 1810 1198 Q 1810 1257 1798 1325 Q 1847 1304 2013.5 1272 Q 2180 1240 2320 1223 Q 2283 1399 2253 1507 Q 2356 1483 2468 1483 Q 2578 1483 2695 1507 Q 2501 798 2501 -229 L 2447 -229 Q 2447 30 2439 188 Q 2131 184 1825.5 138 Q 1520 92 1208 -6 Q 1227 74 1231 162 Q 655 118 205 -6 Q 229 97 229 209 Q 229 319 205 436 Q 640 314 1231 266 Q 1228 348 1208 436 Q 1802 248 2435 242 L 2425 428 L 2302 409 Q 1867 344 1798 313 Q 1810 383 1810 457 Q 1810 516 1802 561 L 1799 559 L 1798 559 L 1800 569 L 1798 580 L 1800 578 Z M 2423 463 L 2402 670 Q 2047 616 1958.5 599 Q 1870 582 1827 569 Q 1899 547 2077 514.5 Q 2255 482 2423 463 Z M 2374 913 L 2215 889 Q 1915 845 1823 815 Q 1890 793 2058 763 Q 2226 733 2398 713 L 2374 913 Z M 2365 965 L 2333 1159 L 2179 1136 Q 1896 1094 1817 1065 Q 1966 1017 2365 965 Z"/>
        </g>
        <g transform="matrix(1 0 0 1 13433 1913)">
            <path fill="#000000" stroke="none" d="M 2148 999 Q 2136 971 2111 754 Q 2258 745 2271 743 Q 2233 1057 2200 1130 Q 2242 1122 2316 1122 Q 2374 1122 2433 1128 L 2423 1176 Q 742 1126 328 1012 Q 352 1129 352 1239 Q 352 1349 328 1454 Q 472 1414 681.5 1385 Q 891 1356 1164.5 1332.5 Q 1438 1309 2408 1247 Q 2380 1382 2347 1507 Q 2452 1483 2562 1483 Q 2673 1483 2789 1507 Q 2595 798 2595 -229 L 2542 -229 L 2540 -104 Q 2243 -104 1861.5 -121.49999 Q 1480 -139 1130 -170 Q 1079 -493 1079 -717 L 1032 -717 Q 1032 -462 985 -184 L 694 -215 Q 649 -494 649 -717 L 602 -717 Q 602 -506 563 -233 Q 321 -266 205 -299 Q 229 -194 229 -84 Q 229 27 205 143 Q 299 116 504 86 Q 452 320 406 420 Q 541 399 641 399 Q 730 399 836 418 L 836 420 L 842 418 L 848 420 L 846 418 Q 979 399 1071 399 Q 1173 399 1278 420 Q 1255 365 1221 242 Q 1187 119 1165 12 Q 1857 -47 2540 -51 Q 2527 608 2433 1122 Q 2402 1041 2370.5 701 Q 2339 361 2339 186 L 2314 186 Q 2314 263 2303 420 Q 2292 577 2275 717 L 2107 707 L 2075 373 L 2058 373 L 2051 436 L 2025 700 L 1925 696 L 1894 373 L 1878 373 L 1871 434 L 1845 692 L 1745 688 L 1714 373 L 1698 373 Q 1690 418 1667 682 L 1563 676 L 1534 373 L 1518 373 Q 1510 423 1487 672 Q 1278 659 1249 649 Q 1257 708 1257 737 Q 1257 781 1249 813 Q 1272 802 1475 788 Q 1456 973 1444 999 Q 1503 991 1532 991 Q 1576 991 1608 999 Q 1593 968 1575 782 L 1657 778 L 1648 855 Q 1634 978 1624 999 Q 1683 991 1712 991 Q 1756 991 1788 999 Q 1781 986 1770 910.5 Q 1759 835 1753 772 L 1837 768 Q 1818 968 1804 999 Q 1863 991 1892 991 Q 1936 991 1968 999 Q 1956 974 1931 762 L 2019 758 L 2010 841 Q 1997 972 1985 999 Q 2041 991 2073 991 Q 2116 991 2148 999 Z M 745 53 L 946 33 Q 899 262 842 406 Q 793 278 745 53 Z"/>
        </g>
        <g transform="matrix(1 0 0 1 16427 1913)">
            <path fill="#000000" stroke="none" d="M 1538 1507 Q 1490 1339 1464 1217 Q 1527 1202 1698 1174 Q 1685 1233 1608 1507 Q 1711 1483 1823 1483 Q 1933 1483 2050 1507 Q 1983 1264 1957.5 1114.5 Q 1932 965 1915.5 750 Q 1899 535 1890 285 Q 1999 391 2052 457 L 2087 436 Q 2027 328 1984 245 Q 1941 162 1901 96 Q 1982 -41 2107 -203 L 2075 -229 Q 1899 -76 1827 -18 L 1827 -16 L 1681 96 L 1810 209 Q 1804 321 1794 424 L 1546 387 Q 1497 296 1460.5001 225.5 Q 1424 155 1389 96 Q 1470 -41 1595 -203 L 1563 -229 Q 1387 -76 1315 -18 L 1315 -16 L 1169 96 L 1208 129 Q 918 97 746.5 71.5 Q 575 46 449 12 Q 519 -2 614 -2 Q 706 -2 795 14 L 755 -49 Q 676 -158 641 -330 L 596 -330 Q 560 -156 485 -50 L 444 12 Q 372 -7 205 -68 Q 223 40 223 147 Q 223 253 205 373 Q 418 294 637 261 Q 856 228 1294 207 Q 1298 207 1298 211 Q 1279 477 1258.5 686.5 Q 1238 896 1212.5 1038 Q 1187 1180 1132 1379 L 1096 1507 Q 1199 1483 1311 1483 Q 1421 1483 1538 1507 Z M 1430 993 Q 1473 971 1743 932 Q 1732 1005 1708 1118 Q 1493 1087 1438 1069 Q 1419 947 1405.5 781.5 Q 1392 616 1378 285 L 1460 369 L 1430 358 Q 1438 417 1438 446 Q 1438 490 1430 522 Q 1460 508 1575.5 487.49997 Q 1691 467 1792 455 L 1774 657 L 1668 642 Q 1483 616 1430 594 Q 1438 653 1438 682 Q 1438 726 1430 758 Q 1488 731 1772 692 L 1749 889 Q 1477 851 1430 829 Q 1438 888 1438 918 Q 1438 961 1430 993 Z M 643 1266 Q 616 1188 594 1085 Q 758 1024 1092 1008 L 1092 983 Q 937 969 814 947 Q 691 925 588 887 Q 600 947 600 987 Q 600 1034 592 1069 Q 552 883 545 539 L 514 539 Q 485 943 413 1176 L 385 1266 Q 443 1251 510 1251 Q 579 1251 643 1266 Z"/>
        </g>
        <g transform="matrix(1 0 0 1 19271 1913)">
            <path fill="#000000" stroke="none" d="M 205 1032 Q 229 1149 229 1260 Q 229 1370 205 1475 Q 439 1410 781 1368.5 Q 1123 1327 1966 1272 Q 1931 1516 1876 1712 Q 1981 1688 2091 1688 Q 2202 1688 2318 1712 Q 2252 1469 2212 1028.5 Q 2172 588 2148 -229 L 2148 -231 Q 1712 -243 1399 -262.5 Q 1086 -282 867.50006 -312.5 Q 649 -343 432 -401 Q 457 -289 457 -174 Q 457 -62 432 41 L 535 12 Q 517 226 497.5 379.5 Q 478 533 451 669 Q 424 805 354 1065 Q 256 1046 205 1032 Z M 973 547 Q 977 583 977 625 L 973 702 L 965 700 L 969 733 L 965 766 L 973 762 L 975 775 L 975 788 Q 806 930 743 965 Q 694 757 665.5 523.5 Q 637 290 623 -8 Q 782 -47 967 -74 L 975 -61 L 977 -3 L 973 57 L 965 55 L 971 92 L 965 129 Q 969 125 975 125 L 977 156 L 977 188 Q 977 242 973 270 L 965 268 L 969 303 L 965 338 L 973 334 Q 977 370 977 410 L 973 487 L 965 485 L 969 518 L 965 551 L 973 547 Z M 2036 612 L 1575 575 L 1493 479 L 1499 473 Q 1832 446 2048 438 L 2036 612 Z M 1194 -102 Q 1468 -132 2079 -174 Q 2001 -112 1917 -35 L 1739 -49 Q 1383 -75 1194 -102 Z M 2052 397 L 1606 362 L 1720 244 L 2064 225 L 2052 397 Z M 1698 156 L 1562 145 Q 1331 126 1180 104 L 1165 86 Q 1500 44 1843 27 L 1698 156 Z M 2032 655 Q 2026 746 2017 825 L 1774 807 L 1661 678 Q 1884 661 2032 655 Z M 1812 1186 Q 1858 1131 1915 1094 L 1989 1090 L 1976 1194 Q 1493 1177 1159 1157 Q 1415 1120 1769 1102 Q 1806 1162 1812 1186 Z M 1100 950 Q 1309 917 1638 895 L 1718 1020 Q 1275 983 1100 950 Z M 2066 186 L 1796 164 L 1933 23 L 2079 16 L 2066 186 Z M 1499 690 L 1569 791 Q 1323 769 1231 756 L 1274 711 Q 1313 706 1499 690 Z M 1479 352 L 1378 342 L 1325 276 L 1589 254 L 1479 352 Z M 1995 1036 Q 1946 1001 1839 883 L 2013 872 L 1995 1036 Z M 782 1118 L 748 987 Q 825 1046 889 1135 Q 629 1110 518 1094 L 552 1093 Q 669 1093 782 1118 Z M 1260 545 Q 1152 531 1094 518 Q 1118 514 1321 489 L 1260 545 Z M 2089 -137 L 2081 -20 Q 2070 -22 1985 -29 L 2089 -137 Z M 899 1137 Q 912 1115 977 1036 L 978 1065 L 973 1143 L 899 1137 Z M 1249 326 Q 1182 318 1104 303 L 1223 287 L 1249 326 Z"/>
        </g>
        <g transform="matrix(1 0 0 1 21794 1913)">
            <path fill="#000000" stroke="none" d="M 362 915 Q 396 873 469.5 816.5 Q 543 760 642.5 693.5 Q 742 627 1006 465 Q 1212 610 1567 930 Q 1496 922 1421 914 Q 1346 906 1274 898 Q 1202 890 1136 882 Q 1070 874 1016 866.50006 Q 962 859 923.5 851.5 Q 885 844 868 838 Q 885 930 885 991 Q 885 1050 868 1122 Q 900 1108 1044.5 1086 Q 1189 1064 1569 1022 Q 1172 1378 981 1503 Q 691 1319 552 1216 Q 413 1113 362 1053 Q 307 1216 205 1333 Q 425 1362 918 1567 Q 1041 1639 1139 1765 Q 1162 1702 1270.5 1551.4999 Q 1379 1401 1675 1040 Q 1653 1230 1616 1384 Q 1707 1358 1825 1358 Q 1900 1358 1980 1370 Q 2086 1532 2118 1729 Q 2196 1672 2386 1576.4999 Q 2576 1481 2887.5 1342.5 Q 3199 1204 4358 717 L 4358 666 Q 3064 118 2691 -158 Q 2669 -12 2601 121 Q 2583 -133 2558 -565 L 2738 -584 L 2738 -610 Q 2694 -617 2556 -629 L 2550 -756 L 2505 -754 L 2499 -635 L 2079 -669 Q 1520 -713 1454 -737 Q 1470 -636 1470 -584 Q 1470 -521 1454 -453 Q 1497 -471 1778 -498 Q 1756 -66 1736.5 288 Q 1717 642 1690 911 L 1681 920 Q 1406 587 1286.5 424 Q 1167 261 1139 188 Q 1036 319 897 399 L 924 414 Q 693 505 503.49997 563 Q 314 621 205 635 Q 307 752 362 915 Z M 2732 1040 Q 2661 802 2609 219 Q 2745 237 2908 276.5 Q 3071 316 3275.5 376.50003 Q 3480 437 4280 690 L 3836 832 Q 2936 1120 2561 1226 Q 2186 1332 2005 1356 Q 1955 1177 1914 732 Q 1873 287 1835 -504 L 1960 -516 Q 1972 -446 1972 -373 Q 1972 -299 1958 -240 Q 2034 -271 2194 -308.5 Q 2354 -346 2484 -362 L 2470 -78 Q 2306 -103 2166 -135.5 Q 2026 -168 1958 -195 Q 1974 -91 1974 -41 Q 1974 22 1958 90 Q 2031 59 2171.5 25.500002 Q 2312 -8 2466 -31 L 2447 248 Q 2284 222 2153 191 Q 2022 160 1958 135 Q 1974 236 1974 289 Q 1974 352 1958 420 Q 2027 390 2161.5 357 Q 2296 324 2443 301 L 2419 573 Q 2089 517 1958 465 Q 1974 566 1974 618 Q 1974 682 1958 750 Q 2024 722 2149 691 Q 2274 660 2410 637 Q 2379 883 2337 1049 Q 2432 1022 2544 1022 Q 2633 1022 2732 1040 Z M 2486 -406 Q 2142 -457 1974 -516 L 2494 -561 L 2486 -406 Z"/>
        </g>
        <g transform="matrix(1 0 0 1 26357 1913)">
            <path fill="#000000" stroke="none" d="M 2720 1057 Q 2756 1040 2839 1028 L 2732 1073 L 2720 1069 L 2720 1073 L 2722 1077 Q 2574 1136 2416.5 1184.5 Q 2259 1233 2003 1292 L 2003 1264 Q 1494 1264 1124 1224.5 Q 754 1185 404 1081 L 205 1024 Q 229 1130 229 1260 Q 229 1391 205 1507 Q 577 1403 977 1361 Q 1377 1319 1898 1317 Q 1974 1399 2036 1511.5 Q 2098 1624 2134 1737 Q 2303 1571 2434.5 1461.5 Q 2566 1352 2722 1241 Q 2728 1275 2728 1309 Q 2728 1336 2720 1405 Q 2755 1388 2863.4998 1373 Q 2972 1358 3064 1352 Q 3125 1402 3215 1485 Q 2980 1465 2873.5 1449.5 Q 2767 1434 2720 1417 Q 2728 1470 2728 1497 Q 2728 1520 2720 1589 Q 2809 1549 3277 1524 Q 3260 1622 3230 1696 Q 3330 1681 3363 1681 Q 3413 1681 3494 1696 Q 3468 1635 3443 1479 Q 3566 1427 3715 1395.5 Q 3864 1364 4012 1358 L 4012 1331 Q 3861 1314 3732 1284.5 Q 3603 1255 3439 1190 Q 3449 1246 3449 1329 Q 3449 1410 3441 1460 Q 3429 1365 3419.5 1254 Q 3410 1143 3394 813 L 3541 729 Q 3860 1005 4069 1249 L 4127 1219 L 4037 1052 Q 3864 727 3824 659 Q 3952 446 4159 172 L 4106 129 Q 3882 325 3763.5002 422.49997 Q 3645 520 3533 604 Q 2892 243 2494 -70 L 2470 -336 L 2425 -336 L 2420 -236 L 2413 -137 Q 2255 -269 2114 -410 Q 2083 -311 2031 -212.50002 Q 1979 -114 1917 -37 Q 1717 -37 1548 -43 L 1511 -410 L 1473 -410 Q 1461 -203 1446 -47 Q 1267 -55 1198 -61 L 1163 -410 L 1124 -410 Q 1109 -172 1100 -70 Q 926 -85 846 -96 L 815 -410 L 776 -410 L 756 -109 Q 499 -144 205 -227 Q 229 -111 229 20 Q 229 150 205 256 L 331 220 Q 586 146 733 117 Q 695 405 649 520 Q 726 506 809 506 Q 895 506 963 520 Q 912 393 868 90 L 1087 59 Q 1051 389 997 520 Q 1074 506 1157 506 Q 1245 506 1311 520 Q 1254 381 1210 47 Q 1318 37 1438 31 Q 1397 390 1346 520 Q 1421 506 1505 506 Q 1593 506 1659 520 Q 1600 375 1556 25 Q 1649 18 1776 18 Q 1762 341 1724.5 663.5 Q 1687 986 1636 1114 Q 1732 1098 1815 1098 Q 1897 1098 1985 1114 Q 1956 1043 1931 926.49994 Q 1906 810 1885 642.5 Q 1864 475 1821 16 L 1905 16 L 2089 59 Q 2069 328 2036.5001 557.5 Q 2004 787 1964 889 Q 2066 872 2142 872 Q 2221 872 2312 889 Q 2274 797 2242 621.5 Q 2210 446 2173 82 Q 2283 108 2388 141 Q 2371 292 2344.5 438 Q 2318 584 2286 664 Q 2388 647 2464 647 Q 2541 647 2634 664 Q 2572 507 2527 186 Q 2946 333 3494 635 L 3461 659 L 3508 698 L 3391 760 L 3391 733 L 3357 733 L 3353 782 Q 3141 892 3043 938 Q 2800 914 2720 885 Q 2728 938 2728 965 Q 2728 988 2720 1057 Z M 4512 1737 Q 4471 1591 4426.5 1206.5 Q 4382 822 4351.5 366.5 Q 4321 -89 4321 -324 L 4260 -324 Q 4260 115 4202 791.5 Q 4144 1468 4069 1737 Q 4172 1712 4284 1712 Q 4397 1712 4512 1737 Z M 2918 1108 Q 2994 1056 3080 1004 Q 3142 998 3338 987 L 3324 1145 L 3183 1133 Q 3217 1068 3240 1034 L 3219 1001 L 3084 1124 Q 2994 1118 2918 1108 Z M 3310 1307 L 3150 1294 L 3125 1249 L 3160 1182 L 3322 1174 L 3310 1307 Z M 3305 1337 L 3283 1489 L 3232 1485 L 3250 1475 L 3176 1346 L 3305 1337 Z M 2966 1276 Q 2796 1258 2730 1237 Q 2795 1213 3004 1194 L 2929 1249 L 2966 1276 Z M 3168 948 L 3348 840 L 3340 963 L 3168 948 Z"/>
        </g>
        <g transform="matrix(1 0 0 1 31074 1913)">
            <path fill="#000000" stroke="none" d="M 328 1012 L 330 1024 L 309 1104 L 342 1096 Q 352 1170 352 1239 Q 352 1349 328 1454 Q 472 1414 681.5 1385 Q 891 1356 1164.5 1332.5 Q 1438 1309 2408 1247 Q 2380 1382 2347 1507 Q 2452 1483 2562 1483 Q 2673 1483 2789 1507 Q 2595 798 2595 -229 L 2542 -229 L 2540 -104 Q 2243 -104 1861.5 -121.49999 Q 1480 -139 1130 -170 Q 1079 -493 1079 -717 L 1032 -717 Q 1032 -462 985 -184 L 694 -215 Q 649 -494 649 -717 L 602 -717 Q 602 -506 563 -233 Q 321 -266 205 -299 Q 229 -194 229 -84 Q 229 27 205 143 Q 299 116 504 86 Q 452 314 410 408 Q 389 428 360 446 L 391 465 Q 374 720 362.5 826.5 Q 351 933 332 1012 L 328 1012 Z M 1055 911 Q 999 703 991 555 Q 1153 528 1292 528 Q 1271 860 1241 1004 Q 1020 988 921.5 975 Q 823 962 692 928 Q 700 960 700 1012 Q 700 1052 696 1075 L 537 1053 Q 578 999 766 776 L 770 774 L 768 772 L 770 772 L 700 688 Q 526 482 477 410 Q 565 399 643 399 Q 730 399 836 418 L 836 420 L 842 418 L 848 420 L 846 418 Q 979 399 1071 399 Q 1173 399 1278 420 Q 1255 365 1221 242 Q 1187 119 1165 12 Q 1857 -47 2540 -51 Q 2528 572 2437 1100 L 2435 1085 Q 2431 1073 2431 1057 L 2419 959 L 2419 948 Q 2376 478 2370 432 L 2370 414 L 2357 414 L 2320 412 L 2101 397 L 2085 397 L 2036 393 L 1892 377 L 1880 375 L 1860 371 L 1835 365 L 1823 360 L 1823 365 L 1827 389 L 1829 428 L 1826 475 L 1823 492 L 1823 496 Q 1844 484 1896 477 L 1909 475 L 1937 471 L 1931 535 L 1931 547 Q 1930 550 1929.4999 553 Q 1929 556 1923 631 L 1917 629 L 1858 623 L 1819 621 L 1808 508 L 1792 508 L 1788 588 L 1786 601 L 1786 616 L 1673 604 L 1667 604 L 1659 508 L 1642 508 L 1636 600 L 1634 600 L 1556 592 L 1513 586 L 1507 508 L 1491 508 L 1491 518 Q 1487 550 1487 582 L 1477 582 L 1466 580 Q 1338 561 1319 553 L 1317 509 L 1317 461 L 1296 461 L 1292 510 Q 1045 506 811 422 Q 819 481 819 508 Q 819 533 811 594 Q 878 575 963 559 Q 954 667 911 819 L 885 911 Q 918 901 967 901 Q 1017 901 1055 911 Z M 2271 1141 L 2272 1140 L 2275 1139 L 2305 1133 L 2312 1133 L 2316 1132 L 2336 1128 L 2367 1128 L 2408 1135 L 2417 1135 L 2424 1137 L 2431 1137 L 2423 1176 Q 1652 1152 1237 1122 Q 1261 1118 1288 1118 Q 1334 1118 1380 1128 Q 1341 987 1327 727 L 1329 727 Q 1346 721 1378 717 Q 1386 715 1477 702 L 1475 735 L 1466 795 L 1464 815 Q 1450 904 1438 934 L 1456 930 L 1466 930 L 1477 928 L 1491 928 L 1499 926 L 1516 926 L 1524 928 L 1536 928 L 1546 930 L 1554 930 L 1567 932 L 1571 934 L 1559 897 Q 1547 871 1526 696 L 1554 692 Q 1573 692 1591 688 Q 1610 688 1628 684 L 1628 698 Q 1610 852 1604 874 L 1602 885 L 1591 922 L 1587 934 L 1606 930 L 1618 930 L 1630 928 L 1688 928 L 1718 932 L 1722 934 Q 1713 917 1700 852 L 1696 834 L 1686 778 L 1675 698 L 1675 689 L 1673 680 L 1682 680 L 1690 678 L 1780 670 L 1776 735 L 1772 760 L 1771 777 L 1755 874 L 1753 885 L 1739 934 L 1740 933 L 1743 932 L 1749 932 L 1757 930 L 1782 928 L 1836 928 L 1847 930 L 1855 930 L 1862 932 L 1872 934 L 1864 913 L 1860 897 L 1854 876 L 1843 823 L 1823 666 L 1901 655 L 1910 655 L 1919 653 L 1919 666 L 1915 688 Q 1909 744 1892 803 L 1890 809 L 1888 815 L 1889 814 L 1892 813 L 1898 813 L 1964 809 L 1987 809 L 2017 813 L 2021 815 L 2015 801 Q 1999 739 1989 684 L 1976 594 L 1974 571 L 1964 477 L 1964 467 L 2023 459 L 2333 432 L 2349 432 L 2341 508 L 2339 541 L 2319 537 L 2312 537 Q 2244 526 2238 526 L 2136 510 L 2130 508 L 2087 500 L 2084 498 L 2083 498 L 2087 522 L 2087 561 L 2083 582 L 2083 587 L 2087 586 L 2124 578 L 2216 563 L 2238 561 L 2300 553 L 2339 549 L 2329 645 L 2327 645 L 2191 629 L 2163 623 L 2148 621 L 2136 618 L 2087 608 L 2084 606 L 2083 606 L 2083 610 L 2085 614 L 2087 631 L 2087 672 L 2083 698 Q 2099 690 2216 670 L 2238 668 Q 2294 659 2300 659 L 2329 655 L 2324 698 L 2318 752 L 2312 752 L 2277 745 L 2214 737 L 2207 737 L 2200 735 L 2169 731 L 2148 729 L 2095 719 L 2087 717 L 2084 715 L 2083 715 L 2087 743 L 2087 778 L 2083 806 L 2083 805 L 2085 805 L 2091 803 Q 2101 800 2177.5 786 Q 2254 772 2318 766 L 2308 858 L 2261 852 L 2253 852 L 2246 850 L 2238 850 L 2148 838 L 2136 836 L 2118 831 L 2095 827 L 2087 825 L 2085 823 L 2083 823 L 2083 827 L 2084 828 L 2085 831 L 2085 838 L 2087 848 L 2087 873 L 2085 897 L 2085 905 L 2083 914 L 2083 913 L 2085 913 Q 2096 907 2148.5 897.50006 Q 2201 888 2238 885 L 2304 876 L 2308 874 L 2298 967 L 2290 1024 L 2290 1032 L 2243 1026 L 2053 1010 L 2040 1010 L 1677 981 L 1612 973 Q 1593 973 1575 969 L 1566 969 L 1556 967 L 1526 963 L 1485 954 L 1482 952 L 1481 952 L 1485 975 L 1485 983 L 1487 991 L 1487 1001 L 1488 1005 L 1491 1036 L 1491 1058 L 1489 1079 Q 1489 1098 1483 1116 L 1481 1130 L 1513 1122 L 1526 1120 L 1533 1120 L 1540 1118 L 1549 1118 L 1556 1116 L 1566 1116 L 1575 1114 L 1818 1091 L 1911 1083 L 2288 1053 L 2271 1141 Z M 745 53 L 946 33 Q 899 262 842 406 Q 793 278 745 53 Z M 735 762 Q 516 735 424 721 L 414 481 Q 456 512 559 602 Q 662 692 735 762 Z M 430 827 Q 490 814 731 782 Q 532 966 459 1026 Q 440 930 430 827 Z M 1212 1120 Q 974 1105 748 1081 Q 826 1062 934 1052 Q 1042 1042 1235 1034 Q 1223 1087 1212 1120 Z M 1325 690 L 1329 637 L 1327 616 L 1327 606 L 1325 594 L 1325 586 L 1319 553 L 1325 690 Z"/>
        </g>
        <g transform="matrix(1 0 0 1 34068 1913)">
            <path fill="#000000" stroke="none" d="M 205 633 Q 337 594 641 567 L 518 659 Q 636 760 700 819 Q 404 790 205 737 Q 219 788 219 858 Q 219 926 205 991 Q 392 940 801 913 Q 976 1081 1096 1214 Q 838 1198 702.49994 1184.5 Q 567 1171 465 1154 Q 363 1137 205 1096 Q 219 1147 219 1217 Q 219 1284 205 1350 Q 368 1305 566.5 1284 Q 765 1263 1157 1249 Q 1132 1369 1096 1507 Q 1199 1483 1311 1483 Q 1421 1483 1538 1507 Q 1343 794 1343 -229 L 1290 -229 Q 1290 -92 1282 143 L 1174 137 L 1163 129 L 1155 135 Q 788 113 576.5 88 Q 365 63 205 20 Q 219 71 219 141 Q 219 209 205 274 Q 437 208 1104 180 Q 938 326 766 467 Q 546 446 418.5 424.50003 Q 291 403 205 379 Q 219 430 219 500 Q 219 568 205 633 Z M 1446 905 L 1563 857 Q 1773 770 1986.5 733 Q 2200 696 2460 696 L 2460 633 Q 2278 633 2117.5 615.5 Q 1957 598 1822.5 561 Q 1688 524 1446 424 Q 1466 522 1466 659 Q 1466 792 1446 905 Z M 881 659 L 950 547 L 1260 532 Q 1248 665 1225 856 L 981 842 Q 943 768 881 659 Z M 991 483 Q 1097 328 1212 176 L 1246 176 L 1282 174 L 1262 502 L 991 483 Z M 1169 1194 L 1086 1039 L 1014 901 L 1219 893 Q 1203 1018 1169 1194 Z"/>
        </g>
        <g transform="matrix(1 0 0 1 36732 1913)">
            <path fill="#000000" stroke="none" d="M 2206 1806 Q 2279 1794 2355 1794 Q 2431 1794 2505 1806 Q 2434 1554 2410 1411 Q 2507 1401 2607 1397 L 2578 1409 Q 2764 1530 2886 1731 Q 3035 1477 3122 1350 Q 3209 1223 3304.5 1108 Q 3400 993 3518 879 L 3531 866 Q 3344 712 3190.5 576.5 Q 3037 441 2924 330.5 Q 2811 220 2719 112.5 Q 2627 5 2507 -164 L 2433 -268 Q 2317 -48 2159 72 Q 1471 48 1159 -39 L 1169 47 Q 1058 -54 974 -151.5 Q 890 -249 791 -385 Q 710 -245 606 -150 L 709 -106 Q 709 180 676 463 Q 486 442 308 314 L 205 242 Q 225 340 225 477 Q 225 610 205 723 Q 314 646 379.5 612.5 Q 445 579 514.5 560 Q 584 541 666 535 Q 639 727 586 924 Q 657 911 735 911 Q 816 911 885 924 Q 823 702 792.5 476 Q 762 250 762 -84 Q 1024 27 1171 129 Q 1168 195 1159 260 Q 1558 148 2312 143 Q 2495 220 2638 303.5 Q 2781 387 2979 523.5 Q 3177 660 3451 864 Q 3280 1011 3115.4998 1120 Q 2951 1229 2767 1321 Q 2559 1315 2394 1296 Q 2382 1198 2382 1034 L 2382 930 L 2329 930 L 2329 987 L 2327 1042 Q 1279 1033 885 924 Q 897 997 897 1073 Q 897 1149 885 1223 Q 1095 1164 1423.4999 1134 Q 1752 1104 2324 1104 Q 2321 1201 2312 1286 Q 2103 1257 1921 1208 Q 1933 1281 1933 1358 Q 1933 1433 1921 1507 Q 2116 1452 2292 1425 Q 2268 1571 2206 1806 Z"/>
        </g>
        <g transform="matrix(1 0 0 1 41000 1913)">
            <path fill="#000000" stroke="none" d="M 1860 1507 Q 1816 1350 1771 1033.5 Q 1726 717 1697.5 366.5 Q 1669 16 1669 -225 L 1608 -225 L 1604 -37 Q 1244 -37 839.5 -85.5 Q 435 -134 205 -201 Q 231 -67 231 31 Q 231 127 205 242 Q 243 227 322 207 Q 317 477 291.5 736 Q 266 995 233 1077 Q 289 1065 334 1065 Q 383 1065 451 1077 Q 439 1048 429 986 Q 419 924 410.5 842.5 Q 402 761 395.5 669 Q 389 577 383.5 488.50003 Q 378 400 374 322.5 Q 370 245 367 195 Q 639 124 987 77 Q 1335 30 1602 29 Q 1590 317 1555.5001 655.5 Q 1521 994 1479 1227 Q 1137 1214 840 1171.5 Q 543 1129 348 1069 Q 375 1198 375 1300 Q 375 1403 348 1511 Q 590 1430 879.5 1377.5 Q 1169 1325 1462 1307 Q 1433 1451 1417 1507 Q 1522 1483 1632 1483 Q 1743 1483 1860 1507 Z M 870 938 Q 933 817 1037.5 681 Q 1142 545 1346 311 L 1327 295 Q 1091 518 1018 582 Q 945 646 883 693.5 Q 821 741 725 801 Q 814 854 870 938 Z"/>
        </g>
        <g transform="matrix(1 0 0 1 43064 1913)">
            <path fill="#000000" stroke="none" d="M 205 915 Q 495 951 759 1017 Q 1023 1083 1313 1186 Q 1250 1281 1176 1382 Q 1383 1408 1597 1507 Q 1605 1190 1639 944.5 Q 1673 699 1749 393 Q 1857 363 1944 354 Q 1770 125 1650 -110 Q 1530 -345 1417 -662 L 1366 -647 Q 1406 -493 1436 -340 Q 1065 -207 747.5 -126 Q 430 -45 205 -18 Q 326 186 369 387 Q 533 237 815.5 61.5 Q 1098 -114 1446 -281 Q 1486 -67 1502 110 Q 1518 287 1522 479 Q 1604 440 1686 412 Q 1521 852 1346 1137 Q 722 838 369 510 Q 326 711 205 915 Z"/>
        </g>
        <g transform="matrix(1 0 0 1 45212 1913)">
            <path fill="#000000" stroke="none" d="M 205 1047 Q 223 1135 223 1214 Q 223 1294 205 1374 Q 358 1321 606.5 1282 Q 855 1243 1104 1235 Q 1065 1417 1040 1507 Q 1145 1483 1255 1483 Q 1366 1483 1483 1507 Q 1447 1377 1421 1231 Q 1614 1180 1716.5001 1161.5 Q 1819 1143 1943.5001 1129 Q 2068 1115 2224 1108 L 2216 1137 Q 2228 1133 2294 1133 Q 2365 1133 2386 1137 L 2380 1116 Q 2820 1182 3340 1366 Q 3269 1472 3203 1563 Q 3409 1586 3625 1688 Q 3633 1353 3669.5 1104.5 Q 3706 856 3777 573 Q 3876 545 3971 535 Q 3794 298 3676 66 Q 3558 -166 3445 -481 L 3394 -467 Q 3436 -297 3463 -160 Q 3143 -46 2847.5 33.5 Q 2552 113 2320 150 L 2318 54 L 2318 -18 L 2286 -18 L 2284 156 L 2232 162 L 2281 250 L 2281 285 Q 2097 280 1963 267.5 Q 1829 255 1716.5001 234.5 Q 1604 214 1413 160 Q 1427 221 1427 309 Q 1427 394 1413 467 Q 1651 400 1845 374 Q 2039 348 2279 340 Q 2262 866 2234 1051 Q 2065 1045 1940.5 1032.5 Q 1816 1020 1710 1000 Q 1604 980 1413 926 Q 1427 987 1427 1075 Q 1427 1151 1417 1208 Q 1362 899 1327 545.5 Q 1292 192 1292 -82 L 1231 -82 L 1227 129 Q 943 126 660.5 87 Q 378 48 205 -10 Q 223 78 223 158 Q 223 237 205 317 Q 385 256 671 216 Q 957 176 1195 176 L 1225 176 Q 1222 244 1204 481 Q 928 477 653.5 438.49997 Q 379 400 205 342 Q 223 430 223 510 Q 223 589 205 670 Q 364 614 647 572 Q 930 530 1200 528 Q 1177 748 1165 834 Q 921 828 645.5 789 Q 370 750 205 694 Q 223 784 223 862 Q 223 942 205 1022 Q 364 966 635.5 925.49994 Q 907 885 1159 881 Q 1128 1100 1112 1184 Q 857 1174 603 1135.5 Q 349 1097 205 1047 Z M 3473 -100 Q 3529 202 3541 461 Q 3425 457 3138 432 Q 3127 267 3127 145 L 3103 145 Q 3103 291 3090 428 Q 2767 393 2652 367 Q 3004 123 3473 -100 Z M 3232 1077 Q 3211 1030 3181 815 Q 3471 788 3637 788 Q 3518 1076 3373 1317 Q 2923 1098 2638 889 Q 2733 862 3047 827 Q 3016 1036 2998 1077 Q 3059 1065 3123 1065 Q 3190 1065 3232 1077 Z M 2628 592 Q 2687 564 3082 522 L 3062 725 Q 2688 683 2628 659 Q 2640 733 2640 786 Q 2640 841 2630 883 Q 2491 776 2396 690 Q 2376 778 2351 850 Q 2334 626 2327 346 Q 2373 458 2396 567 Q 2477 491 2632 381 Q 2640 448 2640 483 Q 2640 536 2628 592 Z M 3549 659 Q 3634 619 3713 592 L 3647 764 Q 3402 759 3168 735 L 3146 516 Q 3359 497 3543 489 L 3549 659 Z"/>
        </g>
        <g transform="matrix(1 0 0 1 49388 1913)">
            <path fill="#000000" stroke="none" d="M 2214 422 Q 2309 348 2377.5 319.5 Q 2446 291 2509 291 L 2509 287 L 2515 291 Q 2581 372 2642.5 461 Q 2704 550 2730 602 Q 2538 578 2273 504 Q 2289 582 2289 645 L 2288 672 Q 2085 817 1941.5001 907 Q 1798 997 1676.5 1058 Q 1555 1119 1335 1198 Q 1381 1238 1421 1292 Q 1207 1289 1059 1277.5 Q 911 1266 785 1244.5 Q 659 1223 457 1165 Q 471 1230 471 1315 L 467 1395 Q 381 979 381 319 L 334 319 Q 334 769 304.5 1052.5 Q 275 1336 205 1581 Q 275 1565 354 1565 Q 428 1565 512 1581 L 483 1464 Q 748 1394 969.5 1369.5 Q 1191 1345 1456 1341 Q 1486 1387 1516 1448 Q 1644 1288 1747.5001 1183 Q 1851 1078 1991.5 961.50006 Q 2132 845 2284 735 L 2273 811 Q 2476 757 2600.5 734 Q 2725 711 2863.4998 697 Q 3002 683 3174 680 Q 3151 780 3113 913 Q 3183 897 3262 897 Q 3336 897 3420 913 Q 3361 694 3336.5 543 Q 3312 392 3300.5 193 Q 3289 -6 3289 -229 L 3242 -229 L 3242 -143 L 3240 -63 Q 2970 -65 2774 -87.5 Q 2578 -110 2407 -156 L 2273 -193 Q 2288 -122 2288 -43 L 2132 63 Q 2128 23 2120 -141 L 2085 -141 Q 2073 5 2048 121 Q 1937 196 1815 266 Q 1802 111 1790 -141 L 1759 -141 Q 1733 204 1718 319 Q 1652 354 1582.4999 384.5 Q 1513 415 1335 481 Q 1390 530 1436 598 Q 1119 593 936 572.5 Q 753 552 581 504 L 457 469 Q 471 530 471 618 Q 471 703 457 776 L 569 746 Q 915 649 1468 645 Q 1494 685 1516 731 Q 1597 625 1679 537 Q 1666 589 1651 625 Q 1714 612 1761 612 Q 1807 612 1876 625 Q 1844 546 1827 389 Q 1941 286 2021 221 Q 2007 271 1976 346 L 2050 336 Q 2025 485 1968 629 Q 2043 618 2083 618 Q 2131 618 2195 629 Q 2147 504 2128 336 L 2162 340 L 2204 346 Q 2166 293 2140 127 L 2286 16 Q 2281 73 2273 115 Q 2564 36 2785 8 Q 2608 170 2486 242 Q 2431 238 2366 209.5 Q 2301 181 2214 115 Q 2228 176 2228 264 Q 2228 349 2214 422 Z M 3240 -16 Q 3233 363 3183 633 L 2951 625 Q 2973 581 3046 481.5 Q 3119 382 3219 262 L 3211 256 L 3222 250 Q 3110 192 2892 0 Q 2999 -11 3240 -16 Z M 2769 451 Q 2791 439 2870.5 426.5 Q 2950 414 3023 412 Q 2901 513 2845 543 Q 2759 495 2580 326 Q 2596 296 2639.5 239 Q 2683 182 2830 4 L 2857 2 Q 2935 96 2978 154 Q 2814 139 2769 119 L 2772 158 L 2769 201 L 2772 240 L 2769 283 L 2772 322 L 2769 365 L 2772 407 L 2769 451 Z M 3103 330 L 3109 330 L 3109 324 Q 3129 301 3172 276 Q 3125 321 3033 403 Q 2973 401 2897 390.49997 Q 2821 380 2775 367 Q 2800 358 2900 345.50003 Q 3000 333 3092 330 L 3097 338 L 3103 330 Z M 3045 250 Q 3079 299 3088 322 Q 3030 319 2925.4998 307.5 Q 2821 296 2775 285 Q 2798 277 2885.5 265.5 Q 2973 254 3045 250 Z M 2988 168 L 3037 236 Q 2832 219 2775 203 Q 2796 194 2864 182.5 Q 2932 171 2988 168 Z M 2845 555 Q 2890 582 2925 623 L 2777 608 Q 2815 572 2845 555 Z"/>
        </g>
        <g transform="matrix(1 0 0 1 53013 1913)">
            <path fill="#000000" stroke="none" d="M 465 1012 Q 517 991 722.5 963 Q 928 935 1165.5 917 Q 1403 899 1585 895 Q 1563 1073 1546 1169 Q 1235 1157 886 1120.5 Q 537 1084 465 1057 Q 481 1158 481 1210 Q 481 1273 465 1341 Q 532 1312 879.5 1273.5 Q 1227 1235 1536 1227 Q 1507 1391 1477 1507 Q 1592 1481 1708 1481 Q 1821 1481 1919 1507 Q 1839 1218 1781.5 698 Q 1724 178 1724 -229 L 1671 -229 Q 1671 -40 1655 184 Q 1401 178 1086 151.5 Q 771 125 580 92 L 594 90 L 752 62 L 807 53 L 1026 23 Q 1208 1 1403 -6 Q 1520 -12 1595 -12 L 1634 -12 L 1634 -66 L 1595 -66 L 1440 -70 L 1420 -70 L 1399 -72 L 1380 -72 L 1360 -74 Q 1085 -88 743 -143 L 707 -150 Q 415 -200 205 -260 L 215 -199 L 219 -174 Q 230 -109 230 -23 L 225 68 L 223 78 L 223 88 Q 220 107 205 182 Q 333 146 459 119 L 473 115 Q 481 184 481 219 Q 481 290 465 352 Q 518 330 735.49994 301.5 Q 953 273 1214.5 255 Q 1476 237 1651 236 Q 1635 448 1628 512 Q 1402 508 1128.5 485 Q 855 462 678.5 437 Q 502 412 465 397 Q 481 501 481 551 Q 481 614 465 682 Q 545 649 922.5 609.5 Q 1300 570 1624 565 L 1593 842 Q 1300 834 914 794 Q 528 754 465 727 Q 481 828 481 881 Q 481 944 465 1012 Z"/>
        </g>
        <g transform="matrix(1 0 0 1 55137 1913)">
            <path fill="#000000" stroke="none" d="M 1176 -311 Q 1074 -182 934 -100 L 958 -86 Q 719 134 512.5 301.5 Q 306 469 205 520 Q 304 575 389 664 Q 315 741 205 807 Q 392 898 956 1411 L 934 1423 Q 1071 1501 1176 1634 Q 1201 1565 1339.5 1377.5 Q 1478 1190 1790 815 L 1915 662 L 1790 509 Q 1473 126 1337 -58.5 Q 1201 -243 1176 -311 Z M 1225 879 L 1263 910 Q 1364 985 1432 1047 Q 1191 1254 1024 1368 Q 790 1088 657 913 L 694 942 Q 776 1005 856 1079 L 883 1069 Q 848 1013 825 967.5 Q 802 922 776 879 Q 802 835 825 790 Q 848 745 883 692 L 856 674 L 779 744 Q 712 805 686 826 Q 660 847 625 870 Q 536 756 481 664 Q 532 574 629 451 Q 648 466 669 482 Q 690 498 716.5 518.5 Q 743 539 777 567 Q 811 595 856 635 L 883 629 Q 848 573 825 526.5 Q 802 480 776 438 Q 802 393 825 348.5 Q 848 304 883 250 L 856 229 Q 704 373 664 403 Q 858 153 1026 -45 Q 1188 63 1423 270 Q 1303 383 1225 438 L 1268 473 Q 1391 568 1468 635 L 1493 629 Q 1464 584 1434 527 L 1384 438 L 1420 371 L 1460 301 Q 1657 471 1853 662 Q 1686 822 1462 1020 L 1422 946 L 1384 879 Q 1410 835 1433 789.5 Q 1456 744 1493 692 L 1468 674 Q 1347 785 1309.5 816 Q 1272 847 1225 879 Z M 797 438 L 833 468 Q 962 570 1016 618 L 1034 606 L 944 449 Q 1033 513 1149 618 L 1171 606 Q 1142 560 1122 521 Q 1102 482 1079 446 L 1115 475 Q 1207 544 1286 618 L 1309 606 Q 1278 557 1258 516 Q 1238 475 1217 438 Q 1238 398 1258 356 Q 1278 314 1309 266 L 1286 248 Q 1167 361 1141.5 382 Q 1116 403 1075 432 Q 1100 394 1120 353.5 Q 1140 313 1171 266 L 1149 248 L 1079 313 Q 994 391 940 430 L 985 352 L 1034 266 L 1016 248 L 941 316 Q 849 400 797 438 Z M 797 879 L 833 910 Q 952 1004 1016 1061 L 1034 1051 L 942 889 Q 1075 993 1149 1061 L 1171 1051 L 1077 887 L 1114 917 Q 1208 987 1286 1061 L 1309 1051 Q 1278 1001 1258 960 Q 1238 919 1217 879 Q 1238 840 1258 798.49994 Q 1278 757 1309 709 L 1286 690 Q 1166 804 1142 824 Q 1118 844 1075 872 Q 1100 835 1120 795 Q 1140 755 1171 709 L 1149 690 Q 1025 805 998.5 826.5 Q 972 848 940 870 L 1034 709 L 1016 690 Q 946 754 896 798.49994 Q 846 843 797 879 Z"/>
        </g>
        <g transform="matrix(1 0 0 1 57789 1913)">
            <path fill="#000000" stroke="none" d="M 899 1440 Q 1174 1171 1985 702 Q 2203 885 2300 975.5 Q 2397 1066 2464 1139 Q 2427 1328 2378 1507 Q 2481 1483 2593 1483 Q 2703 1483 2820 1507 Q 2744 1238 2706.5 849 Q 2669 460 2650 -229 L 2597 -229 Q 2569 196 2541.5 511 Q 2514 826 2480 1040 Q 2412 923 2352.5 832.50006 Q 2293 742 2247 664 Q 2348 487 2533 246 L 2490 209 Q 2153 503 1968 639 Q 1550 397 1287.5 214 Q 1025 31 899 -90 Q 859 56 762 176 L 803 188 L 803 643 Q 613 625 510 603.5 Q 407 582 298 538 L 205 500 Q 221 586 221 670 Q 221 752 205 848 L 285 814 Q 427 752 535 729 Q 643 706 803 696 L 803 1159 L 762 1174 Q 858 1292 899 1440 Z M 1939 676 Q 1283 973 1059 1063 L 1059 285 Q 1156 325 1269.5 374.49997 Q 1383 424 1939 676 Z M 987 1092 L 874 1135 L 874 213 L 987 256 L 987 1092 Z"/>
        </g>
        <g transform="matrix(1 0 0 1 60814 1913)">
            <path fill="#000000" stroke="none" d="M 205 647 Q 229 764 229 874 Q 229 985 205 1090 Q 418 1007 637 961.50006 Q 856 916 1124 901 Q 1406 1117 1583 1311 Q 1557 1430 1536 1507 Q 1641 1483 1753 1483 Q 1844 1483 1944 1499 L 1942 1503 L 1942 1507 L 1958 1503 L 1978 1507 L 1976 1499 Q 2056 1483 2159 1483 Q 2262 1483 2349 1499 L 2347 1503 L 2347 1507 L 2363 1503 L 2384 1507 L 2382 1499 Q 2472 1483 2562 1483 Q 2673 1483 2789 1507 Q 2595 798 2595 -229 L 2542 -229 Q 2542 741 2365 1438 Q 2189 745 2189 -229 L 2136 -229 Q 2136 745 1960 1438 Q 1784 745 1784 -229 L 1731 -229 Q 1731 -13 1716 289 Q 1499 287 1314 276.5 Q 1129 266 970.5 247.5 Q 812 229 639 196.50002 Q 466 164 205 94 Q 229 211 229 322 Q 229 432 205 537 Q 479 460 698 421.5 Q 917 383 1178 363 Q 1439 343 1712 342 Q 1680 846 1604 1225 Q 1549 1117 1439 942 L 1391 864 Q 1542 663 1636 485 L 1591 455 Q 1485 555 1358 657.5 Q 1231 760 1120 834 Q 855 818 635 773.5 Q 415 729 205 647 Z"/>
        </g>
        <g transform="matrix(1 0 0 1 63808 1913)">
            <path fill="#000000" stroke="none" d="M 1657 414 Q 1707 393 2019 360.50003 Q 2331 328 2702 303 Q 3073 278 3299 276 Q 3278 680 3219 1044 L 2955 1034 Q 2915 810 2886 489 L 2834 489 L 2718 592 L 2710 467 L 2693 467 L 2679 627 L 2619 678 L 2611 561 L 2589 561 L 2576 715 L 2505 774 L 2494 649 L 2474 649 L 2456 815 L 2384 877 L 2376 737 L 2351 737 L 2335 915 L 2253 983 Q 1720 936 1657 911 Q 1673 1015 1673 1087 Q 1673 1152 1665 1194 Q 1551 629 1544 -109 Q 1657 -171 1683 -184 L 1659 -227 L 1544 -170 L 1544 -229 L 1491 -229 L 1491 -145 Q 1115 30 727 182 L 715 -31 L 676 -31 L 668 205 Q 263 360 205 367 Q 280 456 346 631 Q 280 806 205 895 Q 267 901 622.5 1038 Q 978 1175 1337 1339 L 1317 1427 L 1296 1507 Q 1401 1483 1511 1483 Q 1622 1483 1739 1507 Q 1704 1387 1673 1231 Q 1737 1214 1987 1188 L 1958 1206 Q 1973 1220 1992 1239.5 Q 2011 1259 2154 1419 Q 2170 1379 2302 1200 L 2294 1241 Q 2328 1237 2363 1237 L 2423 1241 Q 2417 1222 2408 1147 L 2417 1147 L 2415 1153 L 2501 1150 L 2544 1153 L 2540 1139 L 2679 1128 L 2429 1313 Q 2306 1403 2273 1423 Q 2378 1513 2427 1583 Q 2439 1551 2554 1407.5 Q 2669 1264 2761 1157 Q 2727 1317 2681 1432 Q 2769 1413 2871 1413 Q 2973 1413 3064 1432 Q 3006 1276 2972 1110 L 3209 1102 Q 3174 1304 3119 1507 Q 3224 1483 3334 1483 Q 3445 1483 3561 1507 Q 3367 798 3367 -229 L 3314 -229 Q 3314 -10 3303 223 Q 3116 221 2768.5002 198.5 Q 2421 176 2062 141.5 Q 1703 107 1657 88 Q 1673 189 1673 264 Q 1673 346 1657 414 Z M 1180 1122 Q 1237 1040 1419 889 Q 1393 1086 1354 1268 Q 932 1014 602 791 Q 643 782 686 782 Q 738 782 803 795 Q 789 760 777.5 692.5 Q 766 625 745 416 Q 799 481 838 573 L 836 573 Q 878 619 901.5 657.5 Q 925 696 950 752 L 944 754 Q 985 797 1011 839 Q 1037 881 1061 938 Q 1129 839 1454 600 L 1432 805 Q 1223 911 1063 938 Q 1104 981 1130 1023 Q 1156 1065 1180 1122 Z M 838 573 Q 905 477 1389 134 L 1487 63 L 1477 270 Q 1320 368 1129.5 460.5 Q 939 553 838 573 Z M 956 752 Q 1012 682 1180.5 548 Q 1349 414 1475 326 L 1460 535 Q 1322 615 1183 675 Q 1044 735 956 752 Z M 741 381 Q 1178 100 1489 -78 L 1489 -32 L 1487 12 Q 1309 124 1076 241.5 Q 843 359 741 383 L 741 381 Z M 590 782 Q 453 691 377 631 Q 450 571 649 440 Q 625 690 590 782 Z M 2767 969 Q 2759 953 2746 853 Q 2733 753 2726 668 L 2832 543 Q 2821 804 2785 1024 L 2652 1016 L 2646 967 L 2715 962 Q 2740 962 2767 969 Z M 2544 1008 L 2525 1006 L 2517 920 L 2560 866 L 2544 1008 Z M 2666 735 Q 2652 863 2642 920 L 2630 782 L 2666 735 Z"/>
        </g>
        <g transform="matrix(1 0 0 1 67574 1913)">
            <path fill="#000000" stroke="none" d="M 2087 889 Q 2189 872 2265 872 Q 2344 872 2435 889 Q 2399 804 2369 641.5 Q 2339 479 2300 111 Q 2594 192 2900 325 Q 3206 458 3580 659 Q 3341 787 3217 846 Q 3121 774 3022.5 692 Q 2924 610 2824 528 L 2798 557 L 2792 665 Q 2783 839 2767 1049 Q 2646 1097 2542 1133 Q 2438 1169 2336 1198.5 Q 2234 1228 1921 1303 L 1921 1264 Q 1566 1264 1305.5 1246 Q 1045 1228 846.5 1193 Q 648 1158 351 1067 L 205 1024 Q 229 1130 229 1264 Q 229 1400 205 1518 Q 489 1438 658.5 1406 Q 828 1374 1004 1356 Q 1180 1338 1405 1327.5 Q 1630 1317 1903 1317 Q 1974 1396 2037 1512.4999 Q 2100 1629 2134 1741 Q 2409 1472 2748 1235 Q 2729 1381 2712 1432 Q 2749 1425 2806 1425 Q 2863 1425 2908 1432 Q 2883 1353 2865 1155 L 2988 1075 Q 2978 1116 2941 1227 Q 2984 1221 3035 1221 Q 3085 1221 3138 1227 Q 3099 1109 3084 1014 L 3144 975 Q 3176 1020 3206 1060 Q 3236 1100 3260 1139 Q 3253 1196 3241 1251.5 Q 3229 1307 3191 1425 Q 3233 1419 3285 1419 Q 3336 1419 3387 1425 Q 3371 1377 3348 1288 Q 3451 1151 3568 1071 Q 3455 1024 3281 893 Q 3433 803 3693 659 Q 3180 380 2796 116.5 Q 2412 -147 2134 -420 Q 2099 -301 2033 -183 Q 1967 -65 1896 12 L 1898 12 L 1898 14 Q 1577 14 1317.5 -3 Q 1058 -20 852 -55.5 Q 646 -91 350 -182 L 205 -225 Q 229 -121 229 14 Q 229 150 205 268 L 377 221 Q 675 140 1035.5 104 Q 1396 68 1896 68 Q 1890 217 1871 436 Q 1852 655 1823 839.5 Q 1794 1024 1759 1114 Q 1855 1098 1937 1098 Q 2021 1098 2107 1114 Q 2080 1047 2056 936.5 Q 2032 826 2010 663 Q 1988 500 1944 23 Q 2157 71 2210 86 Q 2190 349 2156.5 574 Q 2123 799 2087 889 Z M 2855 1012 Q 2847 902 2841.5 792.5 Q 2836 683 2826 590 Q 2928 700 3023 817 Q 3014 927 3011 944 L 2855 1012 Z M 3072 915 L 3068 874 L 3092 905 L 3072 915 Z"/>
        </g>
        <g transform="matrix(1 0 0 1 71471 1913)">
            <path fill="#000000" stroke="none" d="M 2251 1122 Q 2298 1065 2431 965 Q 2413 1086 2370 1298 Q 2058 1176 1804.5 1046.5 Q 1551 917 1276 727 Q 1264 830 1241 901 Q 823 857 595 811 Q 367 765 205 698 Q 225 796 225 913 Q 225 1026 205 1139 Q 514 1008 1221 965 Q 1193 1042 1133 1145 Q 1484 1167 1766.5 1221 Q 2049 1275 2355 1366 L 2318 1507 Q 2423 1483 2533 1483 Q 2644 1483 2761 1507 Q 2667 1171 2616.5 732.49994 Q 2566 294 2566 -229 L 2513 -229 L 2513 -217 Q 2143 -94 1866 -34.5 Q 1589 25 1302 38 L 1133 47 Q 1185 133 1219 223 Q 820 180 593 134 Q 366 88 205 23 Q 225 121 225 238 Q 225 350 205 463 Q 359 398 630.5 351.5 Q 902 305 1241 287 Q 1267 385 1276 465 L 1414 368 Q 1657 194 1913.5 74.5 Q 2170 -45 2513 -162 L 2507 84 L 2158 216 Q 1947 296 1896 299 Q 1964 404 1987 477 Q 2008 449 2168 338.5 Q 2328 228 2507 115 L 2494 346 L 2300 414 Q 2045 505 1989 508 Q 2055 610 2079 686 Q 2112 647 2271.5 533 Q 2431 419 2492 379 Q 2486 498 2474 610 Q 2137 728 2075 731 Q 2141 833 2165 909 Q 2206 857 2468 672 Q 2458 785 2443 874 Q 2241 940 2161 944 Q 2227 1046 2251 1122 Z"/>
        </g>
        <g transform="matrix(1 0 0 1 74437 1913)">
            <path fill="#000000" stroke="none" d="M 1544 1524 Q 1556 1597 1556 1673 Q 1556 1749 1544 1823 Q 1921 1698 2605 1698 L 2605 1649 Q 2681 1653 2765 1671 Q 2697 1433 2636 795 Q 2849 772 3021 772 L 3021 741 Q 2840 741 2628 719 Q 2579 200 2574 -193 L 2574 -254 Q 2317 -254 1855.5 -280 Q 1394 -306 984.5 -350.5 Q 575 -395 399 -444 Q 424 -344 424 -229 Q 424 -117 399 -2 Q 519 -33 768.50006 -65.5 Q 1018 -98 1303 -121 Q 1294 264 1255 694 Q 1086 683 866.50006 638 Q 647 593 496 543 Q 436 353 407.49997 126.50001 Q 379 -100 379 -422 L 330 -422 Q 330 -119 302.5 116 Q 275 351 205 567 Q 271 553 358 553 L 384 553 L 410 555 Q 424 625 424 721 Q 424 835 399 950 Q 541 892 796 834.50006 Q 1051 777 1249 764 Q 1223 1052 1187 1295.5 Q 1151 1539 1114 1671 Q 1219 1647 1329 1647 Q 1440 1647 1556 1671 Q 1496 1460 1436.5 880.5 Q 1377 301 1368 -127 Q 2092 -186 2513 -190 Q 2509 144 2464 698 Q 2253 672 2167 637 L 2173 676 Q 1959 402 1939 346 L 1931 356 L 1898 387 Q 1865 411 1829 432 L 1841 438 L 1833 446 Q 1746 342 1660.5 232.5 Q 1575 123 1569 104 Q 1537 153 1475 197 Q 1487 201 1511 219 L 1493 393 Q 1465 681 1454 711 Q 1489 700 1516 700 Q 1564 727 1597 764 Q 1561 800 1516 827 Q 1595 865 1843 1090 L 1829 1100 Q 1898 1137 1939 1186 Q 1958 1131 2169 860 L 2167 877 Q 2228 849 2454 817 Q 2401 1349 2329 1642 Q 1833 1619 1544 1524 Z M 1958 897 Q 1954 887 1947.5 836.5 Q 1941 786 1913 492 Q 2001 563 2177 727 L 2177 766 L 2175 805 Q 1985 990 1874 1071 Q 1678 839 1636 764 Q 1683 682 1872 459 L 1894 477 L 1881 632 Q 1862 864 1851 897 Q 1886 890 1912 890 Q 1934 890 1958 897 Z M 1819 459 Q 1682 582 1575 664 Q 1562 579 1526 229 Q 1584 271 1819 459 Z M 2486 1647 L 2545 1646 L 2603 1649 L 2544 1649 L 2486 1647 Z"/>
        </g>
        <g transform="matrix(1 0 0 1 78195 1913)">
            <path fill="#000000" stroke="none" d="M 936 -199 L 937 -150 Q 937 -53 918 41 L 915 39 L 701 229 Q 349 544 205 651 Q 685 1056 915 1323 L 920 1319 Q 937 1409 937 1502 L 936 1552 Q 1130 1479 1605 1400.5 Q 2080 1322 2697 1255 L 2768 1313 L 2869 1399 L 2892 1384 Q 2816 1225 2808 1200 L 2875 1044 L 2892 1034 L 2886 1022 L 2892 1014 L 2875 1001 L 2808 850 Q 2838 770 2875 696 L 2892 686 L 2886 674 L 2892 664 L 2875 649 Q 2824 541 2808 502 Q 2841 414 2877 342 L 2892 334 L 2888 324 Q 2888 319 2892 315 L 2877 303 Q 2828 201 2808 150 Q 2812 141 2822 116.5 Q 2832 92 2844.5 63.5 Q 2857 35 2870 7.5 Q 2883 -20 2892 -37 L 2869 -55 L 2697 96 Q 1322 -53 936 -199 Z M 582 651 Q 630 559 749.5 386 Q 869 213 963 90 Q 1065 78 1196 74 L 1196 1280 Q 1034 1273 958 1264 Q 850 1073 658 775 L 582 651 Z M 2628 850 L 2711 916 L 2839 1022 Q 2804 1053 2778.5 1076 Q 2753 1099 2732.5 1117.5 Q 2712 1136 2693.5 1151.5 Q 2675 1167 2654 1182 L 2660 1171 L 2466 1057 Q 2073 827 1890 674 Q 2069 524 2466 293 L 2660 178 L 2658 176 Q 2756 249 2841 322 Q 2801 358 2773 383.5 Q 2745 409 2722 429 Q 2699 449 2677 466 Q 2655 483 2628 502 L 2836 672 Q 2797 707 2769.5 732 Q 2742 757 2719.5 777 Q 2697 797 2676 814 Q 2655 831 2628 850 Z M 1284 1051 Q 1318 1036 1423 1014.5 Q 1528 993 1645 977 L 1645 1276 L 1368 1280 L 1272 1280 L 1272 72 Q 1525 72 1645 78 L 1645 348 Q 1358 306 1284 279 Q 1294 325 1294 373 Q 1294 413 1284 453 Q 1313 440 1415.5 419 Q 1518 398 1645 381 L 1645 547 L 1534 530 Q 1329 498 1284 477 Q 1294 523 1294 567 Q 1294 609 1284 651 Q 1317 636 1422.5 615.5 Q 1528 595 1645 580 L 1645 743 Q 1349 700 1284 676 Q 1294 722 1294 768 Q 1294 808 1284 848 Q 1313 835 1422.5 814 Q 1532 793 1645 778 L 1645 942 Q 1340 898 1284 874 Q 1294 920 1294 967 Q 1294 1007 1284 1051 Z M 2626 1200 Q 2039 1256 1720 1272 L 1720 766 Q 1897 824 2155.5 948.5 Q 2414 1073 2626 1200 Z M 1720 82 Q 1874 88 2056 101.49999 Q 2238 115 2619 152 Q 2408 279 2156.5 400 Q 1905 521 1720 582 L 1720 82 Z M 584 651 L 681 732 Q 929 931 1092 1118 L 1141 1092 L 887 651 Q 908 617 1141 211 L 1092 182 Q 994 268 800 459 Q 662 595 584 651 Z M 1720 684 L 1720 666 L 1724 674 L 1720 684 Z"/>
        </g>
        <g transform="matrix(1 0 0 1 81292 1913)">
            <path fill="#000000" stroke="none" d="M 1628 639 L 1696 695 Q 1870 834 1982 958 Q 1704 928 1657 911 Q 1673 1015 1673 1087 Q 1673 1152 1665 1194 Q 1551 629 1544 -109 Q 1657 -171 1683 -184 L 1659 -227 L 1544 -170 L 1544 -229 L 1491 -229 L 1491 -145 Q 1115 30 727 182 L 715 -31 L 676 -31 L 668 205 Q 263 360 205 367 Q 280 456 346 631 Q 280 806 205 895 Q 267 901 622.5 1038 Q 978 1175 1337 1339 L 1317 1427 L 1296 1507 Q 1401 1483 1511 1483 Q 1622 1483 1739 1507 Q 1704 1387 1673 1231 Q 1779 1205 2280 1160 Q 2781 1115 3209 1102 Q 3174 1304 3119 1507 Q 3224 1483 3334 1483 Q 3445 1483 3561 1507 Q 3491 1245 3447 965 L 3555 958 L 3555 932 L 3443 928 Q 3438 901 3422 774 L 3555 766 L 3555 739 L 3418 733 L 3402 586 L 3555 578 L 3555 551 L 3398 545 L 3387 397 L 3555 387 L 3555 360 L 3383 354 Q 3367 86 3367 -229 L 3314 -229 Q 3314 -10 3303 223 Q 3116 221 2768.5002 198.5 Q 2421 176 2062 141.5 Q 1703 107 1657 88 Q 1673 189 1673 264 Q 1673 346 1657 414 Q 1697 396 1913 373 L 1830 454 Q 1688 593 1628 639 Z M 2103 848 Q 2111 894 2111 927 L 2107 971 L 2046 965 L 1860 639 L 2019 360 L 2105 352 Q 2111 386 2111 416 Q 2111 442 2103 487 Q 2150 469 2334.5 450.5 Q 2519 432 2689 422 Q 2689 430 2683 463 Q 2720 447 2898 430.5 Q 3076 414 3293 403 L 3283 541 Q 2961 525 2836.5 513 Q 2712 501 2683 487 Q 2691 546 2691 563 Q 2656 561 2604 558.5 Q 2552 556 2492 552.5 Q 2432 549 2370.5 544.5 Q 2309 540 2255 534.5 Q 2201 529 2160.5 522.5 Q 2120 516 2103 508 Q 2111 567 2111 588 Q 2111 612 2103 657 Q 2149 640 2327 621.5 Q 2505 603 2691 592 Q 2691 611 2683 651 Q 2728 634 2912.5 618.5 Q 3097 603 3277 594 Q 3269 679 3262 727 Q 2916 709 2814 699 Q 2712 689 2683 678 L 2691 733 Q 2656 731 2603.5 728.5 Q 2551 726 2491 722.5 Q 2431 719 2369.5 714.5 Q 2308 710 2254.5 704.50006 Q 2201 699 2160.5 692.5 Q 2120 686 2103 678 Q 2111 737 2111 758 Q 2111 782 2103 827 Q 2149 810 2327 791.5 Q 2505 773 2691 762 Q 2691 810 2683 842 Q 2761 813 3256 784 L 3238 920 Q 2744 897 2683 868 L 2689 903 Q 2653 901 2600.5 898.50006 Q 2548 896 2488.5 892.49994 Q 2429 889 2368 884.5 Q 2307 880 2253.5 874.5 Q 2200 869 2160 862.49994 Q 2120 856 2103 848 Z M 1180 1122 Q 1237 1040 1419 889 Q 1393 1086 1354 1268 Q 932 1014 602 791 Q 643 782 686 782 Q 738 782 803 795 Q 789 760 777.5 692.5 Q 766 625 745 416 Q 799 481 838 573 L 836 573 Q 878 619 901.5 657.5 Q 925 696 950 752 L 944 754 Q 985 797 1011 839 Q 1037 881 1061 938 Q 1129 839 1454 600 L 1432 805 Q 1223 911 1063 938 Q 1104 981 1130 1023 Q 1156 1065 1180 1122 Z M 838 573 Q 905 477 1389 134 L 1487 63 L 1477 270 Q 1320 368 1129.5 460.5 Q 939 553 838 573 Z M 956 752 Q 1012 682 1180.5 548 Q 1349 414 1475 326 L 1460 535 Q 1322 615 1183 675 Q 1044 735 956 752 Z M 741 379 Q 1150 116 1489 -78 L 1489 -32 L 1487 12 Q 1309 124 1076 241.5 Q 843 359 741 383 L 741 379 Z M 590 782 Q 453 691 377 631 Q 450 571 649 440 Q 625 690 590 782 Z M 2140 348 Q 2401 323 2683 305 Q 2692 349 2692 375 L 2691 393 Q 2570 389 2400 377.50003 Q 2230 366 2140 348 Z M 2697 303 Q 3041 280 3299 276 Q 3299 314 3295 350 Q 2798 332 2697 303 Z M 2685 1018 Q 2451 1001 2189 977 Q 2315 956 2589 939 L 2691 932 L 2692 955 Q 2692 988 2685 1018 Z M 3219 1044 Q 2997 1038 2732 1020 Q 2873 998 3230 977 L 3219 1044 Z"/>
        </g>
        <g transform="matrix(1 0 0 1 85058 1913)">
            <path fill="#000000" stroke="none" d="M 3338 498 Q 3316 437 3293 246 Q 3742 314 4415 426 Q 3594 709 3106.5 845 Q 2619 981 2347 1008 Q 2471 1184 2509 1421 Q 2734 1253 3285.5 988.49994 Q 3837 724 4526 449 L 4526 391 Q 3826 233 3277 92 Q 3252 -179 3246 -391 L 3222 -391 Q 3222 -185 3197 72 L 3066 39 Q 3046 -154 3039 -391 L 3015 -391 Q 3015 -215 2994 18 L 2855 -16 Q 2838 -223 2834 -391 L 2810 -391 Q 2810 -226 2793 -33 Q 1999 -251 1800 -352 Q 1796 -103 1708 82 L 1728 80 L 1749 80 Q 1735 363 1722 530 Q 1465 513 1290 383 L 1210 326 Q 1231 418 1231 543 Q 1231 663 1210 770 Q 1317 697 1382.5 667 Q 1448 637 1530.5 616 Q 1613 595 1718 588 Q 1683 1043 1645 1147 Q 1712 1135 1774 1135 Q 1839 1135 1901 1147 Q 1871 1077 1847 870 Q 1946 942 2017 1040 Q 2067 923 2429 500 L 2714 164 L 2775 172 Q 2744 419 2718 498 Q 2769 485 2822 485 Q 2869 485 2922 496 L 2922 498 L 2927 498 Q 2973 485 3025 485 Q 3076 485 3129 498 L 3131 498 Q 3179 485 3232 485 Q 3285 485 3338 498 Z M 5528 874 Q 5475 887 5421 887 Q 5364 887 5319 874 Q 5266 887 5212 887 Q 5160 887 5112 874 Q 5059 887 5007 887 Q 4955 887 4907 874 Q 4929 945 4954 1126 Q 4379 1039 3828 944 Q 4653 660 5141.5 524.5 Q 5630 389 5898 365 Q 5774 189 5736 -49 Q 5519 113 4980 374.49997 Q 4441 636 3719 924 L 3719 981 Q 4396 1133 4973 1280 Q 4999 1559 4999 1763 L 5024 1763 Q 5031 1524 5052 1300 L 5117 1318 L 5181 1333 Q 5204 1557 5204 1763 L 5229 1763 Q 5236 1552 5253 1352 L 5394 1391 Q 5411 1591 5411 1763 L 5435 1763 Q 5439 1600 5456 1407 Q 6236 1618 6445 1724 Q 6449 1475 6537 1290 L 6496 1292 Q 6497 1248 6507 1079 Q 6517 910 6523 840 Q 6776 856 6956 990 L 7035 1047 Q 7014 955 7014 829 Q 7014 709 7035 602 Q 6939 671 6871.5 702 Q 6804 733 6720.5 754 Q 6637 775 6527 782 Q 6563 311 6601 225 Q 6527 238 6472 238 Q 6412 238 6345 225 Q 6374 299 6398 502 Q 6297 428 6228 332 Q 6202 396 6066.4995 568.5 Q 5931 741 5642 1076 L 5530 1208 L 5474 1200 Q 5499 960 5528 874 Z M 205 852 Q 253 831 505.50003 802 Q 758 773 1018 752 L 985 1026 Q 694 1002 471 976 Q 248 950 205 930 Q 217 997 217 1069 Q 217 1148 205 1196 Q 240 1180 467 1152 Q 694 1124 973 1102 Q 944 1302 911 1425 Q 997 1403 1104 1403 Q 1212 1403 1309 1425 Q 1271 1286 1229 944.5 Q 1187 603 1162 251 Q 1137 -101 1137 -311 L 1081 -311 Q 1081 -234 1073 6 Q 771 -17 510.5 -48 Q 250 -79 205 -102 Q 217 -35 217 37 Q 217 116 205 164 Q 251 144 491 114.50001 Q 731 85 1071 55 L 1053 348 Q 304 284 205 242 Q 217 309 217 381 Q 217 460 205 508 Q 249 487 509.5 456.50003 Q 770 426 1049 403 L 1024 686 Q 705 660 476.5 632.5 Q 248 605 205 586 Q 217 653 217 725 Q 217 804 205 852 Z M 8040 520 Q 7998 538 7732 568.5 Q 7466 599 7227 618 L 7260 344 Q 7475 361 7733 390 Q 7991 419 8040 442 Q 8028 374 8028 303 Q 8028 224 8040 176 Q 8014 188 7866 208.5 Q 7718 229 7270 270 Q 7307 45 7334 -53 Q 7238 -31 7141 -31 Q 7041 -31 6937 -53 Q 6975 86 7017 427.5 Q 7059 769 7084 1121 Q 7109 1473 7109 1683 L 7164 1683 Q 7164 1510 7172 1364 Q 7403 1381 7695.5 1415 Q 7988 1449 8040 1475 Q 8028 1407 8028 1335 Q 8028 1256 8040 1208 Q 7997 1227 7715 1261.5 Q 7433 1296 7174 1315 Q 7181 1151 7193 1024 Q 7951 1090 8040 1130 Q 8028 1062 8028 991 Q 8028 912 8040 864 Q 7997 884 7727 915 Q 7457 946 7197 969 L 7219 684 Q 7540 710 7770.5 738.50006 Q 8001 767 8040 786 Q 8028 718 8028 647 Q 8028 568 8040 520 Z M 5908 1253 Q 5726 1234 5573 1212 Q 6271 566 6398 508 Q 6415 648 6435 911 Q 6344 843 6279 752 Q 6254 811 6173.4995 922 Q 6093 1033 5908 1253 Z M 2671 158 L 2544 275 Q 1972 803 1847 862 Q 1831 723 1810 461 Q 1899 527 1966 621 Q 2020 491 2335 117 L 2671 158 Z M 1780 80 L 1820 80 Q 1974 80 2238 106 Q 1945 366 1808 438 L 1780 80 Z M 6466 1292 Q 6289 1292 6005 1264 Q 6326 989 6437 934 L 6452 1130 L 6466 1292 Z M 5374 1186 L 5272 1171 Q 5292 962 5319 877 Q 5349 967 5374 1186 Z M 2976 199 Q 2948 414 2925 492 Q 2905 433 2875 184 L 2976 199 Z M 3178 229 Q 3151 433 3129 494 Q 3108 430 3084 215 L 3178 229 Z M 5114 881 Q 5139 966 5163 1157 L 5069 1143 Q 5093 947 5114 881 Z"/>
        </g>
        <g transform="matrix(1 0 0 1 93303 1913)">
            <path fill="#000000" stroke="none" d="M 3326 602 Q 3275 710 3191 778 Q 3211 782 3273 811 L 3250 836 Q 3019 953 2832.5 1032.5 Q 2646 1112 2465 1169.5 Q 2284 1227 2003 1292 L 2003 1264 Q 1494 1264 1124 1224.5 Q 754 1185 404 1081 L 205 1024 Q 229 1130 229 1260 Q 229 1391 205 1507 Q 577 1403 977 1361 Q 1377 1319 1898 1317 Q 1974 1399 2036 1511.5 Q 2098 1624 2134 1737 Q 2358 1516 2574.5 1349.5 Q 2791 1183 3084 999 L 2976 1100 L 3034 1143 Q 3117 1204 3248 1317 Q 3149 1403 3108 1435.5 Q 3067 1468 2976 1536 L 3032 1586 Q 3172 1712 3269 1821 Q 3235 1837 3191 1853 Q 3276 1924 3326 2030 Q 3339 2010 3376.5 1972.5001 Q 3414 1935 3470.4998 1885 Q 3527 1835 3617.5 1758.5 Q 3708 1682 4143 1327 Q 4107 1593 4069 1737 Q 4172 1712 4284 1712 Q 4397 1712 4512 1737 Q 4471 1591 4426.5 1206.5 Q 4382 822 4351.5 366.5 Q 4321 -89 4321 -324 L 4260 -324 Q 4260 -27 4227.5 446.5 Q 4195 920 4147 1292 L 4084 1241 L 4127 1219 L 4037 1052 Q 3864 727 3824 659 Q 3952 446 4159 172 L 4106 129 Q 3882 325 3763.5002 422.49997 Q 3645 520 3533 604 Q 2892 243 2494 -70 L 2470 -336 L 2425 -336 L 2420 -236 L 2413 -137 Q 2255 -269 2114 -410 Q 2083 -311 2031 -212.50002 Q 1979 -114 1917 -37 Q 1717 -37 1548 -43 L 1511 -410 L 1473 -410 Q 1461 -203 1446 -47 Q 1267 -55 1198 -61 L 1163 -410 L 1124 -410 Q 1109 -172 1100 -70 Q 926 -85 846 -96 L 815 -410 L 776 -410 L 756 -109 Q 499 -144 205 -227 Q 229 -111 229 20 Q 229 150 205 256 L 331 220 Q 586 146 733 117 Q 695 405 649 520 Q 726 506 809 506 Q 895 506 963 520 Q 912 393 868 90 L 1087 59 Q 1051 389 997 520 Q 1074 506 1157 506 Q 1245 506 1311 520 Q 1254 381 1210 47 Q 1318 37 1438 31 Q 1397 390 1346 520 Q 1421 506 1505 506 Q 1593 506 1659 520 Q 1600 375 1556 25 Q 1649 18 1776 18 Q 1762 341 1724.5 663.5 Q 1687 986 1636 1114 Q 1732 1098 1815 1098 Q 1897 1098 1985 1114 Q 1956 1043 1931 926.49994 Q 1906 810 1885 642.5 Q 1864 475 1821 16 L 1905 16 L 2089 59 Q 2069 328 2036.5001 557.5 Q 2004 787 1964 889 Q 2066 872 2142 872 Q 2221 872 2312 889 Q 2274 797 2242 621.5 Q 2210 446 2173 82 Q 2283 108 2388 141 Q 2371 292 2344.5 438 Q 2318 584 2286 664 Q 2388 647 2464 647 Q 2541 647 2634 664 Q 2572 507 2527 186 Q 2946 333 3494 635 L 3461 659 L 3508 698 L 3453 729 Q 3347 637 3326 602 Z M 3340 846 Q 3462 910 3687 1045.5 Q 3912 1181 4108 1307 Q 4061 1337 3998 1377.5 Q 3935 1418 3864 1463.5 Q 3793 1509 3717 1557.5001 Q 3641 1606 3567 1651 Q 3493 1696 3425 1735 Q 3357 1774 3303 1802 Q 3257 1719 3225.5 1654 Q 3194 1589 3160 1536 Q 3233 1418 3285 1350 L 3303 1366 L 3330 1341 L 3310 1317 L 3330 1294 L 3303 1270 L 3285 1286 Q 3240 1226 3209.5 1177.5 Q 3179 1129 3160 1100 Q 3188 1055 3214.4998 1002 Q 3241 949 3275 883 L 3340 846 Z M 3543 729 Q 3832 987 4010 1182 Q 3950 1134 3882 1080 Q 3814 1026 3745 971 Q 3676 916 3610 862 Q 3544 808 3488 760 L 3543 729 Z"/>
        </g>
        <g transform="matrix(1 0 0 1 98020 1913)">
            <path fill="#000000" stroke="none" d="M 2961 1507 Q 2767 798 2767 -229 L 2714 -229 Q 2714 536 2603 1139 L 2516 978 Q 2364 690 2310 598 Q 2446 372 2646 111 L 2593 68 Q 2267 357 2013 549 Q 1334 200 1068.5 53 Q 803 -94 664.5 -183.5 Q 526 -273 475 -326 Q 421 -97 283 117 L 295 117 L 309 119 Q 293 231 271 649 Q 250 1050 234.5 1260.5 Q 219 1471 205 1507 Q 306 1491 334 1491 Q 379 1491 449 1507 Q 424 1443 389 876 Q 349 231 338 123 Q 446 138 653 197 Q 638 338 611 821 Q 584 1297 567 1430 Q 508 1417 453 1395 L 457 1468 Q 457 1506 453 1536 Q 525 1509 553 1503 L 553 1507 Q 654 1491 682 1491 Q 729 1491 797 1507 Q 783 1473 764.49994 1271 Q 746 1069 713 529 L 690 207 Q 1203 355 1962 633 Q 1780 696 1464 813 Q 823 1049 758 1053 Q 854 1183 877 1313 Q 897 1290 1033.5 1208 Q 1170 1126 1557 911 L 2015 655 Q 2337 934 2556 1188 L 2597 1165 Q 2559 1363 2519 1507 Q 2624 1483 2734 1483 Q 2845 1483 2961 1507 Z"/>
        </g>
        <g transform="matrix(1 0 0 1 101186 1913)">
            <path fill="#000000" stroke="none" d="M 2337 1507 Q 2306 1397 2271.5 1186 Q 2237 975 2212 750 Q 2434 721 2755.5 692 Q 3077 663 3344 651 Q 3285 1210 3205 1507 Q 3310 1483 3420 1483 Q 3531 1483 3647 1507 Q 3573 1226 3510 645 L 3578 643 L 3641 643 L 3641 582 L 3575 582 L 3504 580 Q 3457 106 3457 -225 L 3396 -225 Q 3396 104 3353 573 L 3121 563 L 2867 123 L 3121 -317 L 3072 -346 Q 2986 -270 2780 -69 Q 2635 71 2564 123 L 2655 199 Q 2903 402 3043 559 Q 2548 527 2183 475 Q 2146 48 2146 -225 L 2085 -225 Q 2085 65 2052 455 Q 1880 429 1741 391 Q 1765 496 1765 606 Q 1765 717 1741 834 Q 1837 808 2019 778 Q 1965 1251 1894 1507 Q 1999 1483 2109 1483 Q 2220 1483 2337 1507 Z M 205 244 Q 307 330 420 438.49997 Q 533 547 608 631 Q 373 834 205 961 Q 467 1183 639 1382 L 680 1360 Q 609 1234 559 1136.5 Q 509 1039 463 961 Q 558 802 702 612 L 666 582 L 651 594 L 597 492 Q 490 289 463 244 Q 560 82 702 -104 L 666 -135 Q 403 98 205 244 Z M 1147 961 Q 1409 1183 1581 1382 L 1622 1360 Q 1551 1234 1501 1136.5 Q 1451 1039 1405 961 Q 1482 827 1620 643 L 1622 643 L 1645 612 L 1608 582 L 1593 594 Q 1535 485 1491 400 Q 1447 315 1405 244 Q 1498 88 1645 -104 L 1608 -135 Q 1345 98 1147 244 Q 1249 330 1362 438.49997 Q 1475 547 1550 631 Q 1315 834 1147 961 Z M 924 961 L 981 1009 Q 1135 1129 1255 1235 L 1286 1214 Q 1240 1143 1208.5 1082 Q 1177 1021 1145 961 Q 1177 904 1208.5 841 Q 1240 778 1286 707 L 1255 680 L 1144 781 Q 1017 897 924 961 Z M 698 961 L 756 1009 Q 910 1129 1030 1235 L 1061 1214 Q 1038 1179 1019 1146 Q 1000 1113 983.5 1082 Q 967 1051 951.5 1021 Q 936 991 920 961 L 952 902 Q 1020 769 1061 707 L 1030 680 L 890 808 Q 795 895 698 961 Z M 924 244 L 981 292 Q 1135 412 1255 518 L 1286 498 Q 1240 427 1208.5 365.5 Q 1177 304 1145 244 Q 1177 187 1208.5 124 Q 1240 61 1286 -10 L 1255 -37 L 1144 64 Q 1017 180 924 244 Z M 698 244 L 756 292 Q 910 412 1030 518 L 1061 498 Q 1038 462 1019 429.5 Q 1000 397 983.5 365.5 Q 967 334 951.5 304 Q 936 274 920 244 L 952 185 Q 1020 52 1061 -10 L 1030 -37 L 890 91 Q 795 178 698 244 Z M 473 961 L 531 1009 Q 685 1129 805 1235 L 836 1214 Q 817 1185 801 1158 Q 785 1131 694 961 L 726 902 Q 790 776 836 707 L 805 680 L 665 808 Q 570 895 473 961 Z M 473 244 L 531 292 Q 685 412 805 518 L 836 498 Q 816 467 799.49994 438.49997 Q 783 410 694 244 L 726 185 Q 790 59 836 -10 L 805 -37 L 665 91 Q 570 178 473 244 Z"/>
        </g>
    </g>
</svg>
