<svg width="30873" height="3789" viewBox="0 0 30873 3789" xmlns="http://www.w3.org/2000/svg">
    <defs/>
    <path fill="#000000" stroke="none" transform="matrix(1 0 0 -1 0 2689)" d="M 1137 1442 C 1069 1178.66666666667 1011.66666666667 681.33333333333 965 -50 L 797 0 C 797 98 808 270.33333333333 830 517 C 851.33333333333 763 876 971.33333333333 904 1142 C 840 1090 768.66666666667 1049.33333333333 690 1020 C 611.33333333333 990.66666666667 532.33333333333 976 453 976 C 206.33333333333 976 68.66666666667 1120.66666666667 40 1410 L 210 1462 C 219.33333333333 1386 235 1324.33333333333 257 1277 C 278.33333333333 1229.66666666667 305.33333333333 1195.33333333333 338 1174 C 370.66666666667 1152 414.33333333333 1141 469 1141 C 530.33333333333 1141 591.66666666667 1152.66666666667 653 1176 C 713.66666666667 1198.66666666667 771.33333333333 1232 826 1276 C 880 1320 927 1375.66666666667 967 1443 L 980 1484 L 1137 1442 Z"/>
    <path fill="#000000" stroke="none" transform="matrix(1 0 0 -1 1297 2689)" d="M 480 1492 C 586 1464.66666666667 687 1425 783 1373 C 879 1321 949.33333333333 1268.66666666667 994 1216 C 994 1030 967.33333333333 864 914 718 C 860.66666666667 572 780 436 672 310 C 564 184 428.66666666667 64 266 -50 L 162 86 C 374 232.66666666667 533.66666666667 392 641 564 C 748.33333333333 735.33333333333 806 925.66666666667 814 1135 C 779.33333333333 1163.66666666667 733.33333333333 1193 676 1223 C 618.66666666667 1253 561.33333333333 1278.66666666667 504 1300 C 401.33333333333 1201.33333333333 298.33333333333 1121.33333333333 195 1060 L 100 1180 C 145.33333333333 1210 196 1247.66666666667 252 1293 C 307.33333333333 1338.33333333333 383.33333333333 1404.66666666667 480 1492 Z"/>
    <path fill="#000000" stroke="none" transform="matrix(1 0 0 -1 2451 2689)" d="M 10 -316 C 174.66666666667 -285.33333333333 308.66666666667 -239.66666666667 412 -179 C 515.33333333333 -119 591.33333333333 -40.33333333333 640 57 C 688.66666666667 154.33333333333 713 283 713 443 L 713 783 C 713 865 717 944 725 1020 C 641.66666666667 948.66666666667 549.66666666667 913 449 913 C 355.66666666667 913 283.33333333333 944.66666666667 232 1008 C 180.66666666667 1071.33333333333 155 1162.33333333333 155 1281 C 155 1339 160.66666666667 1406 172 1482 L 348 1432 C 339.33333333333 1368.66666666667 335 1316 335 1274 C 335 1214 347.33333333333 1166.33333333333 372 1131 C 396 1095.66666666667 430.33333333333 1078 475 1078 C 527 1078 584.33333333333 1109 647 1171 C 709.66666666667 1232.33333333333 763 1308.33333333333 807 1399 C 816.33333333333 1427 827.66666666667 1455.33333333333 841 1484 L 1015 1442 C 979.66666666667 1372 950.66666666667 1275.66666666667 928 1153 C 904.66666666667 1029.66666666667 893 894 893 746 L 893 490 C 893 288.66666666667 862 123.66666666667 800 -5 C 738 -133.66666666667 644.66666666667 -236.33333333333 520 -313 C 394.66666666667 -390.33333333333 237.33333333333 -446 48 -480 L 10 -316 Z"/>
    <path fill="#000000" stroke="none" transform="matrix(1 0 0 -1 3626 2689)" d="M 821 1590 C 771.66666666667 1448.66666666667 708 1306 630 1162 C 704.66666666667 1136.66666666667 784.33333333333 1124 869 1124 C 1013.66666666667 1124 1139 1133 1245 1151 C 1277.66666666667 1102.33333333333 1294 1022 1294 910 C 1294 778.66666666667 1253.33333333333 610.66666666667 1172 406 C 1090 200.66666666667 973 -21.33333333333 821 -260 L 684 -163 C 814.66666666667 48.33333333333 919 249.33333333333 997 440 C 1075 630 1114 777 1114 881 C 1114 918.33333333333 1111.33333333333 948.33333333333 1106 971 C 1018 963 938.33333333333 959 867 959 C 751 959 643.33333333333 977.66666666667 544 1015 C 428 831 302.33333333333 680.66666666667 167 564 L 40 679 C 164 788.33333333333 279.66666666667 927 387 1095 C 291.66666666667 1158.33333333333 215.66666666667 1238.66666666667 159 1336 L 304 1435 C 340.66666666667 1356.33333333333 397 1291 473 1239 C 550.33333333333 1379.66666666667 609.66666666667 1518.66666666667 651 1656 L 821 1590 Z"/>
    <path fill="#000000" stroke="none" transform="matrix(1 0 0 -1 5612 2689)" d="M 40 411 C 123.33333333333 451 209.66666666667 507 299 579 C 388.33333333333 650.33333333333 475.66666666667 732.33333333333 561 825 C 646.33333333333 917.66666666667 726 1016.66666666667 800 1122 C 874 1226.66666666667 926 1313.66666666667 956 1383 L 962 1407 L 969 1430 L 1147 1482 C 1143 1430 1141 1347.33333333333 1141 1234 C 1141 1057.33333333333 1152 914 1174 804 C 1195.33333333333 694 1227 598 1269 516 C 1310.33333333333 433.33333333333 1364 357.66666666667 1430 289 C 1496 220.33333333333 1575 160.66666666667 1667 110 L 1608 -50 C 1406.66666666667 42 1251 181.66666666667 1141 369 C 1031 556.33333333333 971.33333333333 783.66666666667 962 1051 C 708.66666666667 686.33333333333 437 425.66666666667 147 269 L 40 411 Z"/>
    <path fill="#000000" stroke="none" transform="matrix(1 0 0 -1 7309 2689)" d="M 229 -211 C 278.33333333333 -24.33333333333 311.66666666667 125.33333333333 329 238 C 345.66666666667 350.66666666667 354 477 354 617 C 354 755.66666666667 339.33333333333 900.66666666667 310 1052 C 280.66666666667 1202.66666666667 244 1319.33333333333 200 1402 L 356 1488 C 382.66666666667 1438.66666666667 406.66666666667 1384 428 1324 C 503.33333333333 1372 581.33333333333 1410.66666666667 662 1440 C 742.66666666667 1468.66666666667 811.33333333333 1483 868 1483 C 931.33333333333 1483 981 1474 1017 1456 C 1053 1438 1081.33333333333 1410 1102 1372 C 1122.66666666667 1334 1133 1283.66666666667 1133 1221 C 1133 1139 1107 1050 1055 954 C 1003 858 930.66666666667 765.66666666667 838 677 C 744.66666666667 588.33333333333 641.33333333333 512.33333333333 528 449 C 514 206.33333333333 470.66666666667 -30 398 -260 L 229 -211 Z M 474 1167 C 514 1003 534 836 534 666 L 534 646 C 612 694 683.33333333333 752.33333333333 748 821 C 812 889.66666666667 862.33333333333 959.66666666667 899 1031 C 935 1102.33333333333 953 1164.66666666667 953 1218 C 953 1252.66666666667 944.66666666667 1278 928 1294 C 910.66666666667 1310 878.66666666667 1318 832 1318 C 796.66666666667 1318 745 1304 677 1276 C 609 1248 541.33333333333 1211.66666666667 474 1167 Z"/>
    <path fill="#000000" stroke="none" transform="matrix(1 0 0 -1 8602 2689)" d="M 336 1421 C 298.66666666667 1327 280 1243.66666666667 280 1171 C 280 1089 294.33333333333 1030 323 994 C 351.66666666667 958 394.66666666667 940 452 940 C 536 940 607 989.33333333333 665 1088 C 722.33333333333 1186.66666666667 757.33333333333 1317 770 1479 L 942 1460 C 921.33333333333 1237.33333333333 869 1067.66666666667 785 951 C 701 833.66666666667 588.33333333333 775 447 775 C 340.33333333333 775 256 811.33333333333 194 884 C 131.33333333333 956.66666666667 100 1054 100 1176 C 100 1268.66666666667 125 1375.66666666667 175 1497 L 336 1421 Z"/>
    <path fill="#000000" stroke="none" transform="matrix(1 0 0 -1 9644 2689)" d="M 60 1450 C 134 1470.66666666667 211 1481 291 1481 C 431 1481 536.66666666667 1433.66666666667 608 1339 C 679.33333333333 1244.33333333333 715 1102 715 912 L 715 777 C 715 631.66666666667 709.33333333333 481.66666666667 698 327 C 686 171.66666666667 670 46 650 -50 L 472 0 C 489.33333333333 96.66666666667 504.33333333333 216 517 358 C 529 500 535 637.66666666667 535 771 C 535 915 530 1016 520 1074 C 509.33333333333 1132 493.33333333333 1178.33333333333 472 1213 C 450 1247 421.33333333333 1272.66666666667 386 1290 C 350 1307.33333333333 306.33333333333 1316 255 1316 C 199.66666666667 1316 141 1309.66666666667 79 1297 L 75 1296 L 60 1450 Z"/>
    <path fill="#000000" stroke="none" transform="matrix(1 0 0 -1 10519 2689)" d="M 893 1367 C 877.66666666667 1296.33333333333 859.33333333333 1226.66666666667 838 1158 C 816.66666666667 1089.33333333333 787 1019.33333333333 749 948 C 853 985.33333333333 945.66666666667 1026.33333333333 1027 1071 C 1107.66666666667 1115.66666666667 1168.66666666667 1161 1210 1207 L 1358 1144 L 1362 956 C 1362 751.33333333333 1342 587.33333333333 1302 464 C 1262 340 1199.66666666667 233.66666666667 1115 145 C 1030.33333333333 56.33333333333 918 -21.33333333333 778 -88 C 637.33333333333 -154.66666666667 464 -212 258 -260 L 199 -99 C 356.33333333333 -59.66666666667 490.66666666667 -17 602 29 C 712.66666666667 75 805 125 879 179 C 952.33333333333 233 1011 293.66666666667 1055 361 C 1098.33333333333 427.66666666667 1130 504 1150 590 C 1170 676 1180.66666666667 802.66666666667 1182 970 C 1104.66666666667 914 1003.33333333333 862.66666666667 878 816 C 752 768.66666666667 654.33333333333 744 585 742 L 524 887 C 592 988.33333333333 648.66666666667 1114.33333333333 694 1265 C 528 1170.33333333333 341 1091.33333333333 133 1028 L 80 1180 C 209.33333333333 1224 338 1275 466 1333 C 593.33333333333 1391 688.33333333333 1442.66666666667 751 1488 L 893 1367 Z"/>
    <path fill="#000000" stroke="none" transform="matrix(1 0 0 -1 12041 2689)" d="M 483 1026 C 483 821.33333333333 476.33333333333 622.66666666667 463 430 C 449 236.66666666667 430.33333333333 76.66666666667 407 -50 L 230 0 C 252 132 269.66666666667 293 283 483 C 296.33333333333 672.33333333333 303 855.66666666667 303 1033 C 303 1122.33333333333 301.33333333333 1214 298 1308 C 294 1401.33333333333 290.66666666667 1459.33333333333 288 1482 L 467 1462 C 470.33333333333 1442 474 1387.33333333333 478 1298 C 481.33333333333 1208 483 1117.33333333333 483 1026 Z"/>
    <path fill="#000000" stroke="none" transform="matrix(1 0 0 -1 13316 2689)" d="M 567 -468 C 674.33333333333 -333.33333333333 753.33333333333 -192.33333333333 804 -45 C 854 102.33333333333 885.33333333333 300.66666666667 898 550 C 910 798 926.33333333333 991 947 1129 C 887 1081.66666666667 818.66666666667 1044.33333333333 742 1017 C 665.33333333333 989.66666666667 589 976 513 976 C 266.33333333333 976 128.66666666667 1120.66666666667 100 1410 L 270 1462 C 279.33333333333 1386 295 1324.33333333333 317 1277 C 338.33333333333 1229.66666666667 365.33333333333 1195.33333333333 398 1174 C 430.66666666667 1152 474.33333333333 1141 529 1141 C 588.33333333333 1141 648 1152 708 1174 C 768 1196 824.33333333333 1227.66666666667 877 1269 C 929.66666666667 1310.33333333333 976.33333333333 1363.33333333333 1017 1428 L 1040 1484 L 1214 1442 C 1144.66666666667 1305.33333333333 1104 1073.33333333333 1092 746 C 1084 529.33333333333 1071 360.33333333333 1053 239 C 1035 117.66666666667 1011 10 981 -84 C 951 -178.66666666667 913.66666666667 -266 869 -346 C 823.66666666667 -426.66666666667 769.66666666667 -500 707 -566 L 567 -468 Z"/>
    <path fill="#000000" stroke="none" transform="matrix(1 0 0 -1 14690 2689)" d="M 1021 1213 C 939.66666666667 968.33333333333 815.33333333333 738.66666666667 648 524 C 764.66666666667 268.66666666667 862.33333333333 141 941 141 C 981 141 1041.33333333333 180 1122 258 C 1202.66666666667 336 1288.33333333333 438.66666666667 1379 566 C 1469 693.33333333333 1552.33333333333 827.66666666667 1629 969 L 1796 908 C 1700 727.33333333333 1598 564.33333333333 1490 419 C 1382 273 1280.66666666667 162.66666666667 1186 88 C 1090.66666666667 13.33333333333 998.66666666667 -24 910 -24 C 849.33333333333 -24 784.66666666667 13 716 87 C 646.66666666667 160.33333333333 575 270.66666666667 501 418 C 427 565.33333333333 356.66666666667 740 290 942 C 222.66666666667 1144 179.33333333333 1307 160 1431 L 340 1482 C 356 1390 386.66666666667 1270 432 1122 C 476.66666666667 973.33333333333 522.66666666667 837 570 713 C 687.33333333333 890.33333333333 783.33333333333 1078.66666666667 858 1278 L 1021 1213 Z"/>
    <path fill="#000000" stroke="none" transform="matrix(1 0 0 -1 16566 2689)" d="M 223 -174 C 312.33333333333 -52 389.66666666667 91 455 255 C 520.33333333333 418.33333333333 553 542.66666666667 553 628 C 553 681.33333333333 549.66666666667 716.33333333333 543 733 C 535.66666666667 749.66666666667 525.33333333333 758 512 758 C 493.33333333333 758 462.33333333333 754.66666666667 419 748 C 375.66666666667 741.33333333333 342.33333333333 738 319 738 C 257 738 210 760.33333333333 178 805 C 146 849 130 912 130 994 C 130 1071.33333333333 149.33333333333 1155.66666666667 188 1247 C 226.66666666667 1338.33333333333 274 1418.66666666667 330 1488 L 472 1390 C 418.66666666667 1312 378.33333333333 1238.66666666667 351 1170 C 323.66666666667 1101.33333333333 310 1042.66666666667 310 994 C 310 933.33333333333 332 903 376 903 C 403.33333333333 903 447.66666666667 906.33333333333 509 913 C 569.66666666667 919.66666666667 610 923 630 923 C 662 923 687.33333333333 907.66666666667 706 877 C 724 846.33333333333 733 799 733 735 C 733 587.66666666667 700.66666666667 426 636 250 C 570.66666666667 73.33333333333 481.33333333333 -96.66666666667 368 -260 L 223 -174 Z"/>
    <path fill="#000000" stroke="none" transform="matrix(1 0 0 -1 17459 2689)" d="M 936 -128 C 984 -41.33333333333 1011.33333333333 28.66666666667 1018 82 C 948.66666666667 45.33333333333 868.33333333333 15.33333333333 777 -8 C 685.66666666667 -31.33333333333 609.66666666667 -43 549 -43 C 417 -43 319.33333333333 -0.66666666667 256 84 C 192 168 160 295.33333333333 160 466 C 160 771.33333333333 246.33333333333 1109.33333333333 419 1480 L 584 1422 C 503.33333333333 1251.33333333333 442.66666666667 1085.66666666667 402 925 C 360.66666666667 763.66666666667 340 614 340 476 C 340 339.33333333333 357 246.33333333333 391 197 C 424.33333333333 147 483.66666666667 122 569 122 C 661 122 792 159 962 233 L 998 250 C 1054 277.33333333333 1090.66666666667 291 1108 291 C 1140 291 1164 282 1180 264 C 1196 245.33333333333 1204 220.33333333333 1204 189 C 1204 150.33333333333 1196 103.33333333333 1180 48 C 1163.33333333333 -8 1140 -66.33333333333 1110 -127 L 936 -128 Z"/>
    <path fill="#000000" stroke="none" transform="matrix(1 0 0 -1 18682 2689)" d="M 40 75 C 114.66666666667 149.66666666667 179.33333333333 242 234 352 C 288 461.33333333333 329.66666666667 588 359 732 C 388.33333333333 875.33333333333 403 1022.66666666667 403 1174 L 397 1275 C 306.33333333333 1319.66666666667 237 1374.66666666667 189 1440 L 289 1564 C 342.33333333333 1498.66666666667 414.33333333333 1448 505 1412 C 595 1375.33333333333 693 1357 799 1357 C 865 1357 943.33333333333 1369.66666666667 1034 1395 C 1124 1420.33333333333 1194.66666666667 1451 1246 1487 C 1322.66666666667 1373 1361 1209 1361 995 C 1361 669.66666666667 1290.33333333333 377.66666666667 1149 119 L 995 214 C 1053.66666666667 330 1099.33333333333 453.33333333333 1132 584 C 1164.66666666667 714 1181 838 1181 956 C 1181 1088 1170.33333333333 1191.66666666667 1149 1267 C 1024.33333333333 1217 895.33333333333 1192 762 1192 C 698.66666666667 1192 638.66666666667 1198.33333333333 582 1211 L 583 1164 L 583 1104 C 583 958.66666666667 565.66666666667 810.33333333333 531 659 C 495.66666666667 507.66666666667 447.66666666667 373.33333333333 387 256 C 325.66666666667 138 253 36 169 -50 L 40 75 Z"/>
    <path fill="#000000" stroke="none" transform="matrix(1 0 0 -1 20203 2689)" d="M 661 302 C 743.66666666667 476 814.66666666667 652 874 830 C 933.33333333333 1008 963 1139 963 1223 C 963 1239.66666666667 954.33333333333 1260.66666666667 937 1286 C 919.66666666667 1311.33333333333 903 1324 887 1324 C 857.66666666667 1324 797.66666666667 1301 707 1255 C 615.66666666667 1208.33333333333 514.66666666667 1150 404 1080 L 406 980 C 406 779.33333333333 379.33333333333 574.33333333333 326 365 C 272.66666666667 155 195.33333333333 -53.33333333333 94 -260 L -60 -185 C 44 46.33333333333 117.66666666667 253.33333333333 161 436 C 204.33333333333 618 226 797.66666666667 226 975 C 226 1069.66666666667 221 1157.33333333333 211 1238 C 201 1318.66666666667 188.33333333333 1381.66666666667 173 1427 L 336 1486 C 357.33333333333 1424 374.33333333333 1348.66666666667 387 1260 C 642.33333333333 1415.33333333333 826.66666666667 1493 940 1493 C 968 1493 997 1480.33333333333 1027 1455 C 1056.33333333333 1429.66666666667 1083 1394.33333333333 1107 1349 C 1131 1303 1143 1264 1143 1232 C 1143 1129.33333333333 1111.33333333333 979.66666666667 1048 783 C 984 585.66666666667 911.33333333333 404.66666666667 830 240 L 661 302 Z"/>
    <path fill="#000000" stroke="none" transform="matrix(1 0 0 -1 22038 2689)" d="M 1312 1482 C 1318.66666666667 1400.66666666667 1322 1305.33333333333 1322 1196 C 1322 988.66666666667 1301.66666666667 821 1261 693 C 1220.33333333333 565 1157.66666666667 455.33333333333 1073 364 C 987.66666666667 272.66666666667 874.33333333333 192.66666666667 733 124 C 591 54.66666666667 419.33333333333 -3.33333333333 218 -50 L 159 111 C 314.33333333333 149.66666666667 446.66666666667 192.66666666667 556 240 C 664.66666666667 287.33333333333 755.66666666667 339 829 395 C 901.66666666667 450.33333333333 960 512.66666666667 1004 582 C 1047.33333333333 651.33333333333 1079.66666666667 729.66666666667 1101 817 C 1122.33333333333 904.33333333333 1135.66666666667 1034.33333333333 1141 1207 C 1059 1135.66666666667 966.66666666667 1080.66666666667 864 1042 C 761.33333333333 1002.66666666667 659.66666666667 983 559 983 C 312.33333333333 983 159.33333333333 1132 100 1430 L 270 1482 C 289.33333333333 1397.33333333333 312 1331 338 1283 C 364 1235 395.33333333333 1200.66666666667 432 1180 C 468 1158.66666666667 519 1148 585 1148 C 636.33333333333 1148 701 1161 779 1187 C 856.33333333333 1213 928.66666666667 1248.33333333333 996 1293 C 1062.66666666667 1337 1110.33333333333 1382.33333333333 1139 1429 L 1312 1482 Z"/>
    <path fill="#000000" stroke="none" transform="matrix(1 0 0 -1 23520 2689)" d="M 1038 57 C 1132.66666666667 203.66666666667 1208 349.33333333333 1264 494 C 1320 638.66666666667 1348 763.66666666667 1348 869 C 1348 903 1329.33333333333 957.66666666667 1292 1033 C 1254 1108.33333333333 1213.66666666667 1175 1171 1233 C 1128.33333333333 1290.33333333333 1097 1319 1077 1319 C 1035.66666666667 1319 943.33333333333 1288 800 1226 C 790.66666666667 1064 754 895.66666666667 690 721 C 626 546.33333333333 540.66666666667 380.66666666667 434 224 L 297 331 C 380.33333333333 460.33333333333 449.66666666667 596.33333333333 505 739 C 560.33333333333 881 596.66666666667 1016 614 1144 L 160 943 L 100 1081 L 559 1289 C 676.33333333333 1342.33333333333 788.33333333333 1388.33333333333 895 1427 C 1001 1465 1073 1484 1111 1484 C 1155.66666666667 1484 1209.33333333333 1447.66666666667 1272 1375 C 1334.66666666667 1301.66666666667 1393 1216.66666666667 1447 1120 C 1501 1022.66666666667 1528 954.66666666667 1528 916 C 1528 616.66666666667 1410.33333333333 294.66666666667 1175 -50 L 1038 57 Z"/>
    <path fill="#000000" stroke="none" transform="matrix(1 0 0 -1 25208 2689)" d="M 1170 918 L 1111 758 C 996.33333333333 810 895 879 807 965 C 719 1051 648.66666666667 1152 596 1268 C 468 1123.33333333333 335.66666666667 996.33333333333 199 887 L 100 1036 C 193.33333333333 1112 282 1193.33333333333 366 1280 C 450 1366.66666666667 518 1445 570 1515 L 716 1450 C 762.66666666667 1324.66666666667 822 1220.33333333333 894 1137 C 966 1053 1058 980 1170 918 Z"/>
    <path fill="#000000" stroke="none" transform="matrix(1 0 0 -1 26478 2689)" d="M 737 1049 L 787 1068 C 866.33333333333 1099.33333333333 939 1124 1005 1142 C 1070.33333333333 1159.33333333333 1119.66666666667 1168 1153 1168 C 1207 1168 1245.66666666667 1146.66666666667 1269 1104 C 1292.33333333333 1060.66666666667 1304 993.33333333333 1304 902 C 1304 696 1280 521.66666666667 1232 379 C 1183.33333333333 236.33333333333 1113.66666666667 130.33333333333 1023 61 C 931.66666666667 -9 821 -44 691 -44 C 587 -44 495.33333333333 -13.66666666667 416 47 C 336.66666666667 107 274.33333333333 195.33333333333 229 312 C 183 428 160 556.33333333333 160 697 C 160 865 190 1010.66666666667 250 1134 C 310 1257.33333333333 407.66666666667 1373.66666666667 543 1483 L 647 1348 C 537.66666666667 1261.33333333333 459.33333333333 1167.66666666667 412 1067 C 364 966.33333333333 340 841.33333333333 340 692 C 340 581.33333333333 355.66666666667 481.66666666667 387 393 C 417.66666666667 303.66666666667 460.33333333333 236 515 190 C 569 144 632.66666666667 121 706 121 C 790 121 863 148.66666666667 925 204 C 987 258.66666666667 1035.66666666667 342.33333333333 1071 455 C 1106.33333333333 567 1124 696 1124 842 C 1124 880.66666666667 1121 910.66666666667 1115 932 C 1109 953.33333333333 1101 968.66666666667 1091 978 C 1081 987.33333333333 1064.66666666667 992 1042 992 C 1025.33333333333 992 994.33333333333 983.66666666667 949 967 C 903 949.66666666667 846.66666666667 928.66666666667 780 904 L 737 1049 Z"/>
    <path fill="#000000" stroke="none" transform="matrix(1 0 0 -1 27942 2689)" d="M 1597 1375 C 1491.66666666667 1218.33333333333 1410 1050 1352 870 C 1294 690 1265 514.33333333333 1265 343 C 1265 198.33333333333 1274 94.33333333333 1292 31 L 1163 -50 C 1045 189.33333333333 930 403 818 591 C 705.33333333333 779 599 944.33333333333 499 1087 C 503.66666666667 1046.33333333333 506 1014.33333333333 506 991 C 506 891 481.66666666667 787.33333333333 433 680 C 383.66666666667 572 317 478.33333333333 233 399 L 100 518 C 168 576 223 655 265 755 C 307 855 328 960.66666666667 328 1072 C 328 1217.33333333333 306.66666666667 1327 264 1401 L 404 1494 C 668.66666666667 1168 896 819 1086 447 C 1094 612.33333333333 1132.66666666667 789.66666666667 1202 979 C 1270.66666666667 1168.33333333333 1358.33333333333 1336 1465 1482 L 1597 1375 Z"/>
    <path fill="#000000" stroke="none" transform="matrix(1 0 0 -1 29639 2689)" d="M 229 -211 C 267 -93.66666666667 297.33333333333 48 320 214 C 342.66666666667 380 354 548 354 718 C 354 842 341 962.66666666667 315 1080 C 289 1197.33333333333 250.66666666667 1304.66666666667 200 1402 L 349 1488 C 397.66666666667 1376.66666666667 439.66666666667 1295 475 1243 C 509.66666666667 1191 546.33333333333 1153 585 1129 C 623 1104.33333333333 666 1092 714 1092 C 781.33333333333 1092 835.33333333333 1115.33333333333 876 1162 C 916.66666666667 1208.66666666667 945.66666666667 1278.33333333333 963 1371 L 1134 1316 C 1116.66666666667 1196.66666666667 1072.33333333333 1102 1001 1032 C 929 962 838.66666666667 927 730 927 C 648 927 579 941 523 969 C 530.33333333333 908.33333333333 534 820.33333333333 534 705 C 534 537.66666666667 521.66666666667 367.33333333333 497 194 C 471.66666666667 20.66666666667 438.66666666667 -130.66666666667 398 -260 L 229 -211 Z"/>
</svg>
