<svg width="31391" height="3789" viewBox="0 0 31391 3789" xmlns="http://www.w3.org/2000/svg">
    <defs/>
    <path fill="#000000" stroke="none" transform="matrix(1 0 0 -1 0 2689)" d="M 218 1488 L 394 1141 L 564 1342 C 583.33333333333 1364.66666666667 599.33333333333 1379.33333333333 612 1386 C 624.66666666667 1392 637.66666666667 1395 651 1395 C 679.66666666667 1395 708 1376 736 1338 L 890 1141 L 1170 1396 C 1192 1415.33333333333 1211.33333333333 1429 1228 1437 C 1244 1445 1265.33333333333 1449 1292 1449 C 1329.33333333333 1449 1360.33333333333 1435.33333333333 1385 1408 C 1409 1380.66666666667 1421 1344.33333333333 1421 1299 C 1421 1175 1385 1031.66666666667 1313 869 C 1240.33333333333 706.33333333333 1135 534.33333333333 997 353 C 858.33333333333 171 714 16 564 -112 L 451 14 C 566.33333333333 117.33333333333 682.66666666667 245 800 397 C 917.33333333333 548.33333333333 1016 698.33333333333 1096 847 C 1175.33333333333 995 1221.33333333333 1117 1234 1213 C 1110.66666666667 1095 1040 1029 1022 1015 C 1003.33333333333 1001 985.33333333333 989.66666666667 968 981 C 950 971.66666666667 933.66666666667 965 919 961 C 903.66666666667 957 887.33333333333 955 870 955 C 842.66666666667 955 820.66666666667 960.33333333333 804 971 C 787.33333333333 981.66666666667 765.33333333333 1004 738 1038 L 636 1161 L 475 990 C 437 950.66666666667 400 931 364 931 C 317.33333333333 931 279 960.66666666667 249 1020 L 60 1398 L 218 1488 Z"/>
    <path fill="#000000" stroke="none" transform="matrix(1 0 0 -1 1561 2689)" d="M 524 1089 C 507.33333333333 1177.66666666667 494 1242 484 1282 C 327.33333333333 1264.66666666667 212.66666666667 1248.33333333333 140 1233 L 156 1399 C 493.33333333333 1446.33333333333 794.66666666667 1472.33333333333 1060 1477 L 1044 1313 C 931.33333333333 1313 810.33333333333 1308.33333333333 681 1299 C 693.66666666667 1251.66666666667 706.66666666667 1188.66666666667 720 1110 C 838.66666666667 1120.66666666667 960 1128.66666666667 1084 1134 L 1072 970 C 967.33333333333 967.33333333333 858.33333333333 960.66666666667 745 950 L 770 744 C 881.33333333333 752.66666666667 1006 758.33333333333 1144 761 L 1128 597 C 1018.66666666667 597 904.66666666667 592.33333333333 786 583 C 802.66666666667 395 812.66666666667 197 816 -11 L 623 8 C 621.66666666667 190 612 376 594 566 C 486 554.66666666667 363.33333333333 539.66666666667 226 521 L 242 687 C 382 705.66666666667 493.66666666667 719 577 727 C 567.66666666667 810.33333333333 558.66666666667 877.66666666667 550 929 C 461.33333333333 918.33333333333 335.66666666667 900.33333333333 173 875 L 185 1041 C 267 1055 380 1071 524 1089 Z"/>
    <path fill="#000000" stroke="none" transform="matrix(1 0 0 -1 2845 2689)" d="M 1164 1425 C 955.33333333333 885.66666666667 800.33333333333 402.66666666667 699 -24 L 524 35 C 554 197 610.66666666667 406.33333333333 694 663 C 523.33333333333 603.66666666667 344.33333333333 531.33333333333 157 446 L 100 597 C 332.66666666667 701.66666666667 551.66666666667 788.33333333333 757 857 C 661 953 558 1046.33333333333 448 1137 C 337.33333333333 1227 237.33333333333 1300.33333333333 148 1357 L 258 1482 C 355.33333333333 1420.66666666667 455 1350 557 1270 C 658.33333333333 1190 746.66666666667 1112.66666666667 822 1038 C 874.66666666667 1188 930.33333333333 1336 989 1482 L 1164 1425 Z"/>
    <path fill="#000000" stroke="none" transform="matrix(1 0 0 -1 4049 2689)" d="M 881 558 C 881 607.33333333333 871.66666666667 673.33333333333 853 756 C 653.66666666667 740 425.66666666667 732 169 732 C 109.66666666667 732 80 762.66666666667 80 824 C 80 864.66666666667 103.66666666667 910.33333333333 151 961 C 221.66666666667 1038.33333333333 292 1113.66666666667 362 1187 C 431.33333333333 1260.33333333333 501.33333333333 1327.66666666667 572 1389 L 608 1421 C 645.33333333333 1455 686.66666666667 1472 732 1472 C 762.66666666667 1472 788.33333333333 1465.33333333333 809 1452 C 829 1438.66666666667 845 1416.66666666667 857 1386 C 877.66666666667 1334.66666666667 905.66666666667 1250.66666666667 941 1134 C 975.66666666667 1017.33333333333 1007 903.33333333333 1035 792 C 1062.33333333333 680.66666666667 1076 597.33333333333 1076 542 C 1076 452.66666666667 1016.33333333333 358.66666666667 897 260 C 777.66666666667 160.66666666667 608.66666666667 66.66666666667 390 -22 L 313 127 C 397 156.33333333333 491.33333333333 200.66666666667 596 260 C 700.66666666667 319.33333333333 774.33333333333 373 817 421 C 859.66666666667 468.33333333333 881 514 881 558 Z M 816 912 C 782 1034 744 1157 702 1281 C 644 1239.66666666667 579.33333333333 1184.33333333333 508 1115 C 436.66666666667 1045 371 974 311 902 L 315 893 L 365 892 C 479 892 629.33333333333 898.66666666667 816 912 Z"/>
    <path fill="#000000" stroke="none" transform="matrix(1 0 0 -1 5857 2689)" d="M 1506 651 C 1506 436.33333333333 1451.66666666667 271 1343 155 C 1234.33333333333 38.33333333333 1078.66666666667 -20 876 -20 C 647.33333333333 -20 469.33333333333 53.66666666667 342 201 C 214 347.66666666667 150 551.66666666667 150 813 C 150 1025.66666666667 205 1191 315 1309 C 424.33333333333 1426.33333333333 578.33333333333 1485 777 1485 C 929.66666666667 1485 1061 1451.33333333333 1171 1384 C 1280.33333333333 1316.66666666667 1363.66666666667 1220.33333333333 1421 1095 C 1477.66666666667 969 1506 821 1506 651 Z M 1312 654 C 1312 868 1266.33333333333 1033 1175 1149 C 1083.66666666667 1265 954.33333333333 1323 787 1323 C 639.66666666667 1323 529.33333333333 1280 456 1194 C 382 1107.33333333333 345 980 345 812 C 345 598 390 433 480 317 C 570 200.33333333333 698.66666666667 142 866 142 C 1012.66666666667 142 1123.66666666667 185.33333333333 1199 272 C 1274.33333333333 358.66666666667 1312 486 1312 654 Z M 741 356 C 741 438 738.66666666667 535 734 647 C 679.33333333333 643.66666666667 610 642 526 642 L 509 642 L 463 643 L 446 643 L 436 804 L 509 803 C 584.33333333333 803 656.66666666667 805 726 809 L 703 1106 L 882 1131 C 896.66666666667 987 906 885 910 825 C 1012.66666666667 837 1108 852.33333333333 1196 871 L 1214 712 C 1122.66666666667 691.33333333333 1024.33333333333 674.66666666667 919 662 C 923.66666666667 550 926 453.66666666667 926 373 L 741 356 Z"/>
    <path fill="#000000" stroke="none" transform="matrix(1 0 0 -1 7493 2689)" d="M 645 1484 C 705 1348.66666666667 754 1230.66666666667 792 1130 C 946.66666666667 1230.66666666667 1091.33333333333 1320.33333333333 1226 1399 L 1300 1250 C 1148 1164 997.33333333333 1073.66666666667 848 979 C 893.33333333333 854.33333333333 934.33333333333 726.66666666667 971 596 C 1167 604 1362.33333333333 614 1557 626 L 1580 464 C 1385.33333333333 453.33333333333 1196.66666666667 444.66666666667 1014 438 C 1045.33333333333 314 1074 177.66666666667 1100 29 L 924 -25 C 894.66666666667 134.33333333333 861 286.66666666667 823 432 C 588.33333333333 424.66666666667 401.66666666667 421 263 421 C 199.66666666667 421 153.33333333333 431.66666666667 124 453 C 94.66666666667 473.66666666667 80 505 80 547 C 80 581.66666666667 90.66666666667 614.33333333333 112 645 C 132.66666666667 675.66666666667 171.33333333333 710.66666666667 228 750 C 384.66666666667 858.66666666667 520 950.66666666667 634 1026 C 594.66666666667 1132 544 1258.66666666667 482 1406 L 645 1484 Z M 274 576 C 439.33333333333 578.66666666667 608 582.66666666667 780 588 C 754.66666666667 674 724 769.66666666667 688 875 C 546 781.66666666667 406.66666666667 685 270 585 L 274 576 Z"/>
    <path fill="#000000" stroke="none" transform="matrix(1 0 0 -1 9173 2689)" d="M 1071 -227 C 943.66666666667 97 834.33333333333 420.66666666667 743 744 C 683.66666666667 732.66666666667 614 727 534 727 C 400 727 294.33333333333 736.33333333333 217 755 C 139 773 100 799 100 833 C 106 906.33333333333 144 994.33333333333 214 1097 C 283.33333333333 1199.66666666667 364.33333333333 1289 457 1365 C 549.66666666667 1441 623.66666666667 1479 679 1479 C 708.33333333333 1479 729.33333333333 1471.66666666667 742 1457 C 754 1442.33333333333 765.66666666667 1410.66666666667 777 1362 C 835 1101.33333333333 908.33333333333 824.33333333333 997 531 C 1085 237.66666666667 1167.66666666667 6.66666666667 1245 -162 L 1071 -227 Z M 618 1279 C 596 1269 560.66666666667 1241 512 1195 C 462.66666666667 1149 419.66666666667 1102 383 1054 C 345.66666666667 1006 318 961.66666666667 300 921 L 303 911 C 362.33333333333 898.33333333333 433.66666666667 892 517 892 C 585.66666666667 892 646.33333333333 896.66666666667 699 906 C 663 1045.33333333333 636 1169.66666666667 618 1279 Z"/>
    <path fill="#000000" stroke="none" transform="matrix(1 0 0 -1 10418 2689)" d="M 1072 219 C 1036.66666666667 341.66666666667 987.66666666667 481.33333333333 925 638 C 851.66666666667 620 760.33333333333 604.66666666667 651 592 C 541.66666666667 579.33333333333 447.66666666667 573 369 573 C 189.66666666667 573 100 602.66666666667 100 662 C 100 706 110.66666666667 758.66666666667 132 820 C 153.33333333333 881.33333333333 184.33333333333 949.66666666667 225 1025 C 265 1100.33333333333 311.33333333333 1176.66666666667 364 1254 C 416.66666666667 1331.33333333333 462 1387 500 1421 C 537.33333333333 1455 577.66666666667 1472 621 1472 C 655 1472 690.33333333333 1450 727 1406 C 763 1361.33333333333 806 1293 856 1201 C 905.33333333333 1108.33333333333 955.33333333333 1005.33333333333 1006 892 C 1056.66666666667 778 1103.33333333333 665.66666666667 1146 555 C 1188.66666666667 443.66666666667 1221.33333333333 349 1244 271 L 1072 219 Z M 863 786 C 820.33333333333 884 775.33333333333 978.66666666667 728 1070 C 680.66666666667 1160.66666666667 637.66666666667 1231 599 1281 C 529.66666666667 1192.33333333333 466.66666666667 1096 410 992 C 353.33333333333 888 320 808.33333333333 310 753 L 314 744 C 335.33333333333 738.66666666667 369 736 415 736 C 520.33333333333 736 669.66666666667 752.66666666667 863 786 Z"/>
    <path fill="#000000" stroke="none" transform="matrix(1 0 0 -1 11762 2689)" d="M 288 77 C 267.33333333333 77 252 83.33333333333 242 96 C 232 108 227 128.66666666667 227 158 C 227 416 209.66666666667 735 175 1115 L 150 1402 L 336 1426 L 355 1225 L 1027 1394 L 1055 1398 C 1087 1398 1105 1380.33333333333 1109 1345 C 1151 999.66666666667 1173.66666666667 558 1177 20 L 985 -10 L 985 250 L 336 84 C 319.33333333333 79.33333333333 303.33333333333 77 288 77 Z M 959 891 C 952.33333333333 990.33333333333 943.66666666667 1094.33333333333 933 1203 L 370 1059 C 377.33333333333 984.33333333333 385.66666666667 880.33333333333 395 747 L 959 891 Z M 983 418 L 970 725 L 404 581 C 406.66666666667 527.66666666667 410 425 414 273 L 983 418 Z"/>
    <path fill="#000000" stroke="none" transform="matrix(1 0 0 -1 13079 2689)" d="M 30 938 C 190 1134 373.66666666667 1301 581 1439 C 614.33333333333 1462.33333333333 648 1474 682 1474 C 709.33333333333 1474 729.33333333333 1467.33333333333 742 1454 C 754.66666666667 1440 764.66666666667 1424 772 1406 C 817.33333333333 1296.66666666667 863 1108 909 840 C 954.33333333333 571.33333333333 979.66666666667 305.33333333333 985 42 L 793 0 C 789.66666666667 140 781.66666666667 275.66666666667 769 407 C 755.66666666667 537.66666666667 734.66666666667 689.33333333333 706 862 C 677.33333333333 1034.66666666667 648.33333333333 1162.33333333333 619 1245 C 509 1164.33333333333 418.33333333333 1090.66666666667 347 1024 C 275.66666666667 957.33333333333 209.66666666667 888.33333333333 149 817 L 30 938 Z"/>
    <path fill="#000000" stroke="none" transform="matrix(1 0 0 -1 14796 2689)" d="M 100 1047 C 161.33333333333 1094.33333333333 212 1132.66666666667 252 1162 C 292 1191.33333333333 328.33333333333 1218 361 1242 C 393.66666666667 1265.33333333333 479.33333333333 1325 618 1421 C 666.66666666667 1455 713.33333333333 1472 758 1472 C 789.33333333333 1472 813 1465.33333333333 829 1452 C 845 1438.66666666667 857.66666666667 1422.66666666667 867 1404 C 957.66666666667 1215.33333333333 1038 1018 1108 812 C 1177.33333333333 605.33333333333 1249.66666666667 345 1325 31 L 1162 -25 C 1123.33333333333 141.66666666667 1081.66666666667 302.66666666667 1037 458 C 883 333.33333333333 703.66666666667 213.66666666667 499 99 L 421 241 C 626.33333333333 353 814.66666666667 481.33333333333 986 626 C 960 711.33333333333 932 796.33333333333 902 881 C 740.66666666667 764.33333333333 555.66666666667 645.66666666667 347 525 L 269 667 C 463.66666666667 778.33333333333 655.33333333333 902.33333333333 844 1039 C 803.33333333333 1141.66666666667 766.66666666667 1221.66666666667 734 1279 C 556 1172.33333333333 373.66666666667 1049.66666666667 187 911 L 100 1047 Z"/>
    <path fill="#000000" stroke="none" transform="matrix(1 0 0 -1 16241 2689)" d="M 539 0 C 530.33333333333 160.66666666667 526 270.33333333333 526 329 L 531 513 C 405 531 305 582 231 666 C 157 749.33333333333 120 855.66666666667 120 985 C 120 1079 148 1164.33333333333 204 1241 C 260 1317.66666666667 335.66666666667 1377.66666666667 431 1421 C 526.33333333333 1463.66666666667 625.66666666667 1485 729 1485 C 827.66666666667 1485 918 1464 1000 1422 C 1082 1380 1146 1321.66666666667 1192 1247 C 1237.33333333333 1171.66666666667 1260 1087.66666666667 1260 995 C 1260 854.33333333333 1211.66666666667 741.33333333333 1115 656 C 1018.33333333333 570 886 520.66666666667 718 508 L 714 343 C 714 235.66666666667 718.66666666667 121.33333333333 728 0 L 539 0 Z M 1072 984 C 1072 1065.33333333333 1049.66666666667 1135.33333333333 1005 1194 C 960.33333333333 1252 899 1291 821 1311 C 803 1222.33333333333 785.66666666667 1118 769 998 C 751.66666666667 877.33333333333 738.66666666667 768.66666666667 730 672 C 838 685.33333333333 922 719.33333333333 982 774 C 1042 828.66666666667 1072 898.66666666667 1072 984 Z M 307 966 C 307 886.66666666667 327.66666666667 822 369 772 C 409.66666666667 722 467.66666666667 690 543 676 C 554.33333333333 796.66666666667 569 916 587 1034 C 605 1151.33333333333 621.66666666667 1245 637 1315 C 538.33333333333 1298.33333333333 458.66666666667 1258 398 1194 C 337.33333333333 1130 307 1054 307 966 Z"/>
    <path fill="#000000" stroke="none" transform="matrix(1 0 0 -1 17621 2689)" d="M 1007 1389 C 947.66666666667 1284.33333333333 907.33333333333 1196.66666666667 886 1126 C 864 1054.66666666667 853 981 853 905 C 853 749 875.33333333333 600.66666666667 920 460 C 964 319.33333333333 1022.66666666667 207.33333333333 1096 124 L 961 -16 C 872.33333333333 71.33333333333 800 200 744 370 C 687.33333333333 540 659 714.66666666667 659 894 L 659 937 L 661 985 C 574.33333333333 943 480.66666666667 922 380 922 C 275.33333333333 922 191.66666666667 951.66666666667 129 1011 C 66.33333333333 1070.33333333333 35 1147 35 1241 C 35 1317 56.66666666667 1394.33333333333 100 1473 L 272 1397 C 244 1353.66666666667 230 1303.33333333333 230 1246 C 230 1194 244.33333333333 1154 273 1126 C 301 1098 339.66666666667 1084 389 1084 C 588.33333333333 1084 741.33333333333 1218 848 1486 L 1007 1389 Z"/>
    <path fill="#000000" stroke="none" transform="matrix(1 0 0 -1 18897 2689)" d="M 410 1067 C 524.66666666667 1161 610 1231.33333333333 666 1278 C 722 1324.66666666667 771 1348 813 1348 C 847 1348 876.66666666667 1337.33333333333 902 1316 C 926.66666666667 1294 939 1268.33333333333 939 1239 C 939 1065.66666666667 887.66666666667 854.66666666667 785 606 C 681.66666666667 356.66666666667 559.66666666667 142.33333333333 419 -37 L 270 68 C 340 159.33333333333 409.66666666667 269 479 397 C 548.33333333333 524.33333333333 604.66666666667 649.33333333333 648 772 C 690.66666666667 894.66666666667 719 1008.33333333333 733 1113 L 487 913 C 466.33333333333 896.33333333333 444.33333333333 884 421 876 C 397 868 376.33333333333 864 359 864 C 335.66666666667 864 315 871.66666666667 297 887 C 279 901.66666666667 265.66666666667 921.66666666667 257 947 L 80 1397 L 239 1477 L 410 1067 Z"/>
    <path fill="#000000" stroke="none" transform="matrix(1 0 0 -1 19976 2689)" d="M 1025 436 C 996.33333333333 436 973 443.33333333333 955 458 C 936.33333333333 472.66666666667 913 517.66666666667 885 593 C 856.33333333333 668.33333333333 828 763.33333333333 800 878 C 771.33333333333 992.66666666667 751.66666666667 1087.33333333333 741 1162 C 701 1124 634.33333333333 992.66666666667 541 768 C 528.33333333333 738 514.66666666667 714.66666666667 500 698 C 484.66666666667 681.33333333333 469.66666666667 670.33333333333 455 665 C 440.33333333333 659 424.33333333333 656 407 656 C 374.33333333333 656 349.33333333333 661 332 671 C 314 681 292.66666666667 709 268 755 C 243.33333333333 800.33333333333 219.33333333333 855.33333333333 196 920 C 172 984 147.33333333333 1062.33333333333 122 1155 C 96.66666666667 1247.66666666667 76 1332 60 1408 L 230 1461 C 301.33333333333 1167 360.33333333333 975 407 885 C 477.66666666667 1053.66666666667 548.33333333333 1199 619 1321 C 689.66666666667 1443 742.33333333333 1504 777 1504 C 805 1504 825.66666666667 1495.33333333333 839 1478 C 852.33333333333 1460 862 1437.66666666667 868 1411 L 909 1208 C 956.33333333333 966.66666666667 997.33333333333 800.33333333333 1032 709 C 1096.66666666667 834.33333333333 1162.66666666667 1033.66666666667 1230 1307 L 1408 1254 C 1398 1200.66666666667 1380.66666666667 1133.66666666667 1356 1053 C 1331.33333333333 972.33333333333 1302.66666666667 888.33333333333 1270 801 C 1236.66666666667 713 1206.66666666667 641 1180 585 C 1153.33333333333 529 1129.33333333333 490.33333333333 1108 469 C 1086 447 1058.33333333333 436 1025 436 Z"/>
    <path fill="#000000" stroke="none" transform="matrix(1 0 0 -1 21514 2689)" d="M 1125 350 C 1035 340.66666666667 948.33333333333 326.66666666667 865 308 C 781 289.33333333333 668.66666666667 258.33333333333 528 215 C 500 207 475.66666666667 203 455 203 C 399.66666666667 203 366 230 354 284 C 367.33333333333 372.66666666667 413 533 491 765 C 385.66666666667 746.33333333333 265 715.66666666667 129 673 L 149 833 C 289.66666666667 882.33333333333 423.66666666667 917 551 937 C 597.66666666667 1068.33333333333 643.33333333333 1188.33333333333 688 1297 L 120 1175 L 133 1356 L 747 1482 C 772.33333333333 1488 794 1491 812 1491 C 877.33333333333 1491 910 1457.33333333333 910 1390 C 910 1374 903.33333333333 1346 890 1306 C 740 940 632.33333333333 638 567 400 C 654.33333333333 426.66666666667 736.33333333333 448.33333333333 813 465 C 889 481 980.33333333333 496.66666666667 1087 512 L 1125 350 Z"/>
    <path fill="#000000" stroke="none" transform="matrix(1 0 0 -1 23291 2689)" d="M 715 1494 C 751 1494 769 1468.66666666667 769 1418 C 769 1384 761.66666666667 1279.66666666667 747 1105 C 732.33333333333 929.66666666667 725 783 725 665 C 725 393.66666666667 730 227 740 165 L 1160 270 L 1189 114 L 868 22 C 837.33333333333 12.66666666667 797.66666666667 3 749 -7 C 700.33333333333 -17 669.66666666667 -22 657 -22 C 635 -22 616 -16.66666666667 600 -6 C 583.33333333333 4.66666666667 569.66666666667 24.33333333333 559 53 C 550.33333333333 77.66666666667 543.66666666667 164.33333333333 539 313 C 534.33333333333 461 532 576 532 658 C 532 727.33333333333 536.33333333333 836 545 984 C 553 1132 561.33333333333 1236.33333333333 570 1297 L 140 1182 L 147 1347 L 580 1471 C 641.33333333333 1486.33333333333 686.33333333333 1494 715 1494 Z"/>
    <path fill="#000000" stroke="none" transform="matrix(1 0 0 -1 24620 2689)" d="M 100 1127 C 168.66666666667 1365 331.33333333333 1484 588 1484 C 712 1484 807.66666666667 1450.66666666667 875 1384 C 942.33333333333 1316.66666666667 976 1222.33333333333 976 1101 C 976 963 944 791.66666666667 880 587 C 816 382.33333333333 732 178.33333333333 628 -25 L 452 29 C 556.66666666667 247.66666666667 638 450.33333333333 696 637 C 753.33333333333 823 782 982.33333333333 782 1115 C 782 1178.33333333333 763 1228.66666666667 725 1266 C 686.33333333333 1303.33333333333 633.66666666667 1322 567 1322 C 419.66666666667 1322 324.66666666667 1245.66666666667 282 1093 L 100 1127 Z"/>
    <path fill="#000000" stroke="none" transform="matrix(1 0 0 -1 25746 2689)" d="M 259 1511 C 298.33333333333 1391 345.66666666667 1265.33333333333 401 1134 C 457 1212 524 1279.66666666667 602 1337 C 680 1393.66666666667 744.66666666667 1422 796 1422 C 843.33333333333 1422 886 1385.33333333333 924 1312 L 1014 1144 C 1034 1107.33333333333 1057.66666666667 1089 1085 1089 C 1115.66666666667 1089 1150.66666666667 1112.66666666667 1190 1160 C 1228.66666666667 1206.66666666667 1269 1275.66666666667 1311 1367 L 1461 1299 C 1389 1162.33333333333 1322.66666666667 1065 1262 1007 C 1201.33333333333 949 1137.33333333333 920 1070 920 C 1035.33333333333 920 1001.33333333333 931 968 953 C 934.66666666667 975 906.33333333333 1006 883 1046 L 769 1246 C 662.33333333333 1184 565 1088.66666666667 477 960 C 595 698.66666666667 742 416 918 112 L 774 -8 C 612.66666666667 266.66666666667 476.66666666667 521.33333333333 366 756 C 254.66666666667 990 159.33333333333 1222 80 1452 L 259 1511 Z"/>
    <path fill="#000000" stroke="none" transform="matrix(1 0 0 -1 27307 2689)" d="M 798 1413 L 972 1362 C 908 1160 862.33333333333 1007.66666666667 835 905 C 997.66666666667 916.33333333333 1156.33333333333 925 1311 931 L 1299 767 C 1170.33333333333 764.33333333333 1001.66666666667 755 793 739 C 748.33333333333 549 714.66666666667 320.66666666667 692 54 L 505 78 C 521.66666666667 308.66666666667 552 523.66666666667 596 723 C 429.33333333333 706.33333333333 297.33333333333 690.33333333333 200 675 L 212 841 C 308 856.33333333333 449.66666666667 872.66666666667 637 890 C 672.33333333333 1027.33333333333 726 1201.66666666667 798 1413 Z"/>
    <path fill="#000000" stroke="none" transform="matrix(1 0 0 -1 28818 2689)" d="M 961 108 C 842.33333333333 70 716 40 582 18 C 448 -4 329.33333333333 -15 226 -15 C 184 -15 149.33333333333 -6 122 12 C 94 29.33333333333 80 53 80 83 C 80 103.66666666667 85 129.66666666667 95 161 C 104.33333333333 191.66666666667 114.66666666667 225 126 261 C 150.66666666667 341.66666666667 214.66666666667 496.33333333333 318 725 C 420.66666666667 953 532.33333333333 1180 653 1406 L 818 1329 C 776.66666666667 1257.66666666667 705 1115.66666666667 603 903 C 501 690.33333333333 424.33333333333 524 373 404 C 321.66666666667 284 291 202 281 158 C 489 169.33333333333 704 208 926 274 L 961 108 Z"/>
    <path fill="#000000" stroke="none" transform="matrix(1 0 0 -1 29899 2689)" d="M 780 1485 C 884.66666666667 1485 978 1465 1060 1425 C 1142 1384.33333333333 1208 1324.33333333333 1258 1245 C 1307.33333333333 1165.66666666667 1332 1079.66666666667 1332 987 C 1332 885 1305.66666666667 794 1253 714 C 1200.33333333333 633.33333333333 1128 573 1036 533 C 943.33333333333 492.33333333333 834.33333333333 472 709 472 C 539 472 405 517.33333333333 307 608 C 209 698 160 820.33333333333 160 975 C 160 1071 186 1158.33333333333 238 1237 C 290 1315 363.33333333333 1376 458 1420 C 552 1463.33333333333 659.33333333333 1485 780 1485 Z M 774 1323 C 688.66666666667 1323 614.33333333333 1308.66666666667 551 1280 C 487 1250.66666666667 438.33333333333 1210 405 1158 C 371 1106 354 1047.66666666667 354 983 C 354 873.66666666667 386.33333333333 788.33333333333 451 727 C 515.66666666667 665 606.33333333333 634 723 634 C 853 634 954.66666666667 665.33333333333 1028 728 C 1101.33333333333 790.66666666667 1138 877.33333333333 1138 988 C 1138 1045.33333333333 1122.66666666667 1100 1092 1152 C 1060.66666666667 1204 1017.33333333333 1245.66666666667 962 1277 C 906 1307.66666666667 843.33333333333 1323 774 1323 Z"/>
</svg>
