<svg width="44580" height="3789" viewBox="0 0 44580 3789" xmlns="http://www.w3.org/2000/svg">
    <defs/>
    <path fill="#000000" stroke="none" transform="matrix(1 0 0 -1 0 2689)" d="M 1475 733 C 1475 499 1416 315 1298 181 C 1179.33333333333 47 1013.66666666667 -20 801 -20 C 585.66666666667 -20 419.33333333333 46 302 178 C 184 309.33333333333 125 495 125 735 C 125 973 183.66666666667 1157.66666666667 301 1289 C 417.66666666667 1419.66666666667 585 1485 803 1485 C 1015 1485 1180 1418.66666666667 1298 1286 C 1416 1152.66666666667 1475 968.33333333333 1475 733 Z M 892 139 C 1012.66666666667 156.33333333333 1106.66666666667 211 1174 303 C 1241.33333333333 395 1278.33333333333 522.33333333333 1285 685 L 892 685 L 892 139 Z M 314 685 C 319.33333333333 527 355.66666666667 401.33333333333 423 308 C 490.33333333333 214 585.33333333333 158 708 140 L 708 685 L 314 685 Z M 1281 841 C 1268.33333333333 982.33333333333 1229.33333333333 1094 1164 1176 C 1098 1257.33333333333 1007.33333333333 1306.33333333333 892 1323 L 892 841 L 1281 841 Z M 708 1322 C 593.33333333333 1305.33333333333 502.66666666667 1255.66666666667 436 1173 C 369.33333333333 1090.33333333333 330 979.66666666667 318 841 L 708 841 L 708 1322 Z"/>
    <path fill="#000000" stroke="none" transform="matrix(1 0 0 -1 1600 2689)" d="M 1224 0 L 1015 0 L 628 635 L 235 0 L 40 0 L 526 762 L 71 1462 L 1189 1462 L 737 766 L 1224 0 Z M 634 889 L 891 1304 L 378 1304 L 634 889 Z"/>
    <path fill="#000000" stroke="none" transform="matrix(1 0 0 -1 2864 2689)" d="M 1323 930 C 1323 772.66666666667 1277.66666666667 645.33333333333 1187 548 C 1096.33333333333 450.66666666667 972 394.33333333333 814 379 L 814 0 L 634 0 L 634 379 C 529.33333333333 389 438.33333333333 418.33333333333 361 467 C 283.66666666667 515.66666666667 225 580 185 660 C 145 739.33333333333 125 829.66666666667 125 931 C 125 1041 149 1138.33333333333 197 1223 C 245 1307 314.33333333333 1371.66666666667 405 1417 C 495.66666666667 1462.33333333333 602.33333333333 1485 725 1485 C 911 1485 1057.33333333333 1435.66666666667 1164 1337 C 1270 1237.66666666667 1323 1102 1323 930 Z M 319 930 C 319 801.33333333333 353.66666666667 703.66666666667 423 637 C 491.66666666667 570.33333333333 591.33333333333 537 722 537 C 852.66666666667 537 953.33333333333 570 1024 636 C 1094 702 1129 800 1129 930 C 1129 1056.66666666667 1095 1154 1027 1222 C 959 1289.33333333333 858.33333333333 1323 725 1323 C 591.66666666667 1323 490.66666666667 1289.33333333333 422 1222 C 353.33333333333 1154.66666666667 319 1057.33333333333 319 930 Z"/>
    <path fill="#000000" stroke="none" transform="matrix(1 0 0 -1 4312 2689)" d="M 604 158 L 925 158 L 925 0 L 100 0 L 100 158 L 420 158 L 420 1304 L 100 1304 L 100 1462 L 925 1462 L 925 1304 L 604 1304 L 604 158 Z"/>
    <path fill="#000000" stroke="none" transform="matrix(1 0 0 -1 5337 2689)" d="M 1327 750 C 1327 596 1282.33333333333 470.33333333333 1193 373 C 1103 275 978 217.33333333333 818 200 L 818 0 L 634 0 L 634 199 C 529.33333333333 209 438.33333333333 238.33333333333 361 287 C 283.66666666667 335.66666666667 225 400 185 480 C 145 559.33333333333 125 649.66666666667 125 751 C 125 905 170 1031 260 1129 C 350 1226.33333333333 474.66666666667 1283.33333333333 634 1300 L 634 1462 L 818 1462 L 818 1300 C 976 1284.66666666667 1100.33333333333 1228.33333333333 1191 1131 C 1281.66666666667 1033 1327 906 1327 750 Z M 315 750 C 315 639.33333333333 342 550 396 482 C 449.33333333333 413.33333333333 528.66666666667 371.33333333333 634 356 L 634 1143 C 532 1128.33333333333 453.33333333333 1087.66666666667 398 1021 C 342.66666666667 954.33333333333 315 864 315 750 Z M 1137 750 C 1137 861.33333333333 1109.66666666667 951 1055 1019 C 999.66666666667 1087 920.66666666667 1128.33333333333 818 1143 L 818 357 C 922.66666666667 373.66666666667 1002 416.33333333333 1056 485 C 1110 553 1137 641.33333333333 1137 750 Z"/>
    <path fill="#000000" stroke="none" transform="matrix(1 0 0 -1 6789 2689)" d="M 384 1462 L 1077 1305 L 1042 1147 L 384 1296 L 384 885 L 912 767 L 877 609 L 384 719 L 384 295 L 1077 138 L 1042 -20 L 384 129 L 384 0 L 200 0 L 200 1462 L 384 1462 Z"/>
    <path fill="#000000" stroke="none" transform="matrix(1 0 0 -1 8498 2689)" d="M 671 0 L 487 0 L 487 1304 L 30 1304 L 30 1462 L 1126 1462 L 1126 1304 L 671 1304 L 671 0 Z"/>
    <path fill="#000000" stroke="none" transform="matrix(1 0 0 -1 9654 2689)" d="M 1178 10 C 1214 130 1232 241 1232 343 C 1232 731 1006 1026.33333333333 554 1229 C 610 1169 655.66666666667 1089.66666666667 691 991 C 726.33333333333 892.33333333333 744 786.66666666667 744 674 C 744 363.33333333333 635 132 417 -20 L 315 124 C 391 184.66666666667 449.33333333333 262.33333333333 490 357 C 530 451 550 560 550 684 C 550 797.33333333333 529.66666666667 901.66666666667 489 997 C 448.33333333333 1092.33333333333 391.66666666667 1167.33333333333 319 1222 C 246.33333333333 1276.66666666667 166.66666666667 1304 80 1304 L 80 1462 L 124 1462 C 367.33333333333 1462 588 1413.33333333333 786 1316 C 983.33333333333 1218 1139.33333333333 1081 1254 905 C 1368 729 1425 539.66666666667 1425 337 C 1425 217.66666666667 1405 98.66666666667 1365 -20 L 1178 10 Z"/>
    <path fill="#000000" stroke="none" transform="matrix(1 0 0 -1 11199 2689)" d="M 1652 0 L 1468 0 L 1468 685 L 1018 685 L 1018 0 L 834 0 L 834 685 L 384 685 L 384 0 L 200 0 L 200 1462 L 384 1462 L 384 841 L 834 841 L 834 1462 L 1018 1462 L 1018 841 L 1468 841 L 1468 1462 L 1652 1462 L 1652 0 Z"/>
    <path fill="#000000" stroke="none" transform="matrix(1 0 0 -1 13051 2689)" d="M 956 184 L 386 184 L 386 340 L 956 340 L 956 184 Z M 671 1278 C 643 1166 622 1093 608 1059 L 206 0 L 20 0 L 591 1468 L 757 1468 L 1327 0 L 1136 0 L 741 1059 L 671 1278 Z"/>
    <path fill="#000000" stroke="none" transform="matrix(1 0 0 -1 14398 2689)" d="M 113 1482 C 303 1440.66666666667 447.33333333333 1355.66666666667 546 1227 C 644.66666666667 1098.33333333333 694 932 694 728 C 694 524.66666666667 643.66666666667 359.33333333333 543 232 C 441.66666666667 104 298.33333333333 20 113 -20 L 80 138 C 225.33333333333 180.66666666667 331.66666666667 249.33333333333 399 344 C 466.33333333333 438.66666666667 500 566.66666666667 500 728 C 500 890.66666666667 465.33333333333 1020.66666666667 396 1118 C 326 1215.33333333333 220.66666666667 1284 80 1324 L 113 1482 Z M 1464 1324 C 1322.66666666667 1284 1217.33333333333 1215.33333333333 1148 1118 C 1078.66666666667 1020 1044 890 1044 728 C 1044 567.33333333333 1077.66666666667 439.66666666667 1145 345 C 1211.66666666667 250.33333333333 1318 181.33333333333 1464 138 L 1431 -20 C 1245.66666666667 20 1102.66666666667 104 1002 232 C 900.66666666667 359.33333333333 850 524.66666666667 850 728 C 850 932 899.33333333333 1098.33333333333 998 1227 C 1096.66666666667 1355.66666666667 1241 1440.66666666667 1431 1482 L 1464 1324 Z"/>
    <path fill="#000000" stroke="none" transform="matrix(1 0 0 -1 15942 2689)" d="M 1680 0 L 1496 0 L 1496 1304 L 1032 1304 L 1032 0 L 848 0 L 848 1304 L 384 1304 L 384 0 L 200 0 L 200 1462 L 1680 1462 L 1680 0 Z"/>
    <path fill="#000000" stroke="none" transform="matrix(1 0 0 -1 18354 2689)" d="M 1318 0 L 1134 0 L 1134 685 L 384 685 L 384 0 L 200 0 L 200 1462 L 384 1462 L 384 841 L 1134 841 L 1134 1462 L 1318 1462 L 1318 0 Z"/>
    <path fill="#000000" stroke="none" transform="matrix(1 0 0 -1 19872 2689)" d="M 753 695 L 1341 94 L 1224 -20 L 680 536 L 137 -20 L 20 94 L 608 695 L 753 695 Z M 753 1462 L 1341 861 L 1224 747 L 680 1303 L 137 747 L 20 861 L 608 1462 L 753 1462 Z"/>
    <path fill="#000000" stroke="none" transform="matrix(1 0 0 -1 21233 2689)" d="M 825 1321 C 667.66666666667 1321 544 1268.33333333333 454 1163 C 364 1057.66666666667 319 913.66666666667 319 731 C 319 542.33333333333 362.66666666667 397 450 295 C 537.33333333333 192.33333333333 661.66666666667 141 823 141 C 927 141 1044 160.33333333333 1174 199 L 1174 39 C 1112 16.33333333333 1052.33333333333 1 995 -7 C 937.66666666667 -15.66666666667 871.66666666667 -20 797 -20 C 581.66666666667 -20 416 45.66666666667 300 177 C 183.33333333333 307.66666666667 125 493 125 733 C 125 883.66666666667 153 1015.66666666667 209 1129 C 264.33333333333 1242.33333333333 345.33333333333 1329.66666666667 452 1391 C 558 1452.33333333333 683 1483 827 1483 C 981.66666666667 1483 1116.33333333333 1454.33333333333 1231 1397 L 1157 1241 C 1040.33333333333 1294.33333333333 929.66666666667 1321 825 1321 Z"/>
    <path fill="#000000" stroke="none" transform="matrix(1 0 0 -1 22527 2689)" d="M 781 1462 L 781 832 C 825 914 871 995 919 1075 L 1151 1462 L 1339 1462 L 781 557 L 781 0 L 597 0 L 597 557 L 40 1462 L 228 1462 L 474 1053 L 597 836 L 597 1462 L 781 1462 Z"/>
    <path fill="#000000" stroke="none" transform="matrix(1 0 0 -1 23906 2689)" d="M 736 484 C 736 376 763.66666666667 292 819 232 C 874.33333333333 172 948.66666666667 142 1042 142 C 1114.66666666667 142 1180.33333333333 162.33333333333 1239 203 C 1297.66666666667 243 1343.66666666667 300 1377 374 L 1527 293 C 1493.66666666667 199 1433 123.33333333333 1345 66 C 1256.33333333333 8.66666666667 1155.66666666667 -20 1043 -20 C 945 -20 857.66666666667 -0.66666666667 781 38 C 704.33333333333 76.66666666667 645.33333333333 132 604 204 C 562.66666666667 275.33333333333 542 358.33333333333 542 453 C 542 564.33333333333 576 668.33333333333 644 765 L 60 765 L 60 921 L 761 921 L 390 1383 L 520 1482 L 966 924 L 943 819 C 881 794.33333333333 831 751.66666666667 793 691 C 755 629.66666666667 736 560.66666666667 736 484 Z"/>
    <path fill="#000000" stroke="none" transform="matrix(1 0 0 -1 25533 2689)" d="M 1116 0 L 940 457 L 360 457 L 186 0 L 0 0 L 571 1468 L 737 1468 L 1307 0 L 1116 0 Z M 885 616 L 721 1059 L 651 1278 C 627.66666666667 1185.33333333333 606.66666666667 1112.33333333333 588 1059 L 422 616 L 885 616 Z"/>
    <path fill="#000000" stroke="none" transform="matrix(1 0 0 -1 27374 2689)" d="M 773 1463 L 1361 862 L 1244 748 L 793 1215 L 793 0 L 609 0 L 609 1217 L 157 748 L 40 862 L 628 1463 L 773 1463 Z"/>
    <path fill="#000000" stroke="none" transform="matrix(1 0 0 -1 28775 2689)" d="M 200 1462 L 617 1462 C 813 1462 954.66666666667 1433 1042 1375 C 1128.66666666667 1316.33333333333 1172 1224.66666666667 1172 1100 C 1172 1013.33333333333 1148.33333333333 942 1101 886 C 1053.66666666667 829.33333333333 984.66666666667 792.66666666667 894 776 L 894 766 C 1006.66666666667 746.66666666667 1089.66666666667 707.66666666667 1143 649 C 1195.66666666667 590.33333333333 1222 512.66666666667 1222 416 C 1222 285.33333333333 1177.33333333333 183.33333333333 1088 110 C 998.66666666667 36.66666666667 874 0 714 0 L 200 0 L 200 1462 Z M 384 841 L 654 841 C 770 841 853.66666666667 859.33333333333 905 896 C 956.33333333333 932.66666666667 982 993.66666666667 982 1079 C 982 1159 953.66666666667 1216.66666666667 897 1252 C 839.66666666667 1286.66666666667 749.33333333333 1304 626 1304 L 384 1304 L 384 841 Z M 384 158 L 679 158 C 795 158 881.66666666667 180.33333333333 939 225 C 996.33333333333 269.66666666667 1025 338 1025 430 C 1025 516 995.66666666667 580 937 622 C 878.33333333333 664 787.66666666667 685 665 685 L 384 685 L 384 158 Z"/>
    <path fill="#000000" stroke="none" transform="matrix(1 0 0 -1 30107 2689)" d="M 1146 1351 L 695 640 L 695 0 L 511 0 L 511 640 L 60 1349 L 60 1462 L 1146 1462 L 1146 1351 Z M 288 1304 L 603 800 L 918 1304 L 288 1304 Z"/>
    <path fill="#000000" stroke="none" transform="matrix(1 0 0 -1 31313 2689)" d="M 676 1304 L 636 1304 C 570 1304 513.33333333333 1290.33333333333 466 1263 C 418.66666666667 1235.66666666667 382.33333333333 1198 357 1150 C 331.66666666667 1101.33333333333 319 1046 319 984 C 319 924 331.66666666667 870 357 822 C 382.33333333333 773.33333333333 419 735.33333333333 467 708 C 514.33333333333 680.66666666667 570.66666666667 667 636 667 L 676 667 L 676 509 L 630 509 C 530 509 441.66666666667 529.33333333333 365 570 C 288.33333333333 610.66666666667 229.33333333333 667.66666666667 188 741 C 146 814.33333333333 125 895.66666666667 125 985 C 125 1075.66666666667 146 1157.66666666667 188 1231 C 229.33333333333 1303.66666666667 288.33333333333 1360.33333333333 365 1401 C 441 1441.66666666667 529.33333333333 1462 630 1462 L 676 1462 L 676 1304 Z M 648 158 L 688 158 C 754 158 810.66666666667 171.66666666667 858 199 C 905.33333333333 226.33333333333 941.66666666667 264.33333333333 967 313 C 992.33333333333 361 1005 416 1005 478 C 1005 538 992.33333333333 592.33333333333 967 641 C 941.66666666667 689 905.33333333333 726.66666666667 858 754 C 810 781.33333333333 753.33333333333 795 688 795 L 648 795 L 648 953 L 694 953 C 794 953 882.33333333333 932.66666666667 959 892 C 1035.66666666667 851.33333333333 1095 794.33333333333 1137 721 C 1178.33333333333 647.66666666667 1199 566.33333333333 1199 477 C 1199 386.33333333333 1178.33333333333 304.66666666667 1137 232 C 1095 158.66666666667 1036 101.66666666667 960 61 C 883.33333333333 20.33333333333 794.66666666667 0 694 0 L 648 0 L 648 158 Z"/>
    <path fill="#000000" stroke="none" transform="matrix(1 0 0 -1 32637 2689)" d="M 60 113 L 521 1462 L 705 1462 L 1168 111 L 1168 0 L 60 0 L 60 113 Z M 611 1262 C 577 1128.66666666667 545.66666666667 1018.66666666667 517 932 L 255 158 L 967 158 L 709 924 C 664.33333333333 1057.33333333333 631.66666666667 1170 611 1262 Z"/>
    <path fill="#000000" stroke="none" transform="matrix(1 0 0 -1 33865 2689)" d="M 1026 0 L 889 0 C 643 0 454.33333333333 63.66666666667 323 191 C 191 318.33333333333 125 503 125 745 C 125 973 188.33333333333 1149.66666666667 315 1275 C 441 1399.66666666667 618 1462 846 1462 L 1026 1462 L 1026 0 Z M 320 685 C 337.33333333333 357 511.33333333333 182 842 160 L 842 685 L 320 685 Z M 842 1304 C 528 1296 355.33333333333 1141.66666666667 324 841 L 842 841 L 842 1304 Z"/>
    <path fill="#000000" stroke="none" transform="matrix(1 0 0 -1 35623 2689)" d="M 1172 830 L 1172 873 C 1172 1021.66666666667 1135.66666666667 1134 1063 1210 C 989.66666666667 1285.33333333333 883.33333333333 1323 744 1323 C 614.66666666667 1323 522.33333333333 1293.33333333333 467 1234 C 411.66666666667 1174 384 1080.33333333333 384 953 L 384 0 L 200 0 L 200 1000 C 200 1153.33333333333 247.33333333333 1272.66666666667 342 1358 C 436.66666666667 1442.66666666667 570.66666666667 1485 744 1485 C 942.66666666667 1485 1094.33333333333 1435 1199 1335 C 1303.66666666667 1234.33333333333 1356 1080.33333333333 1356 873 L 1356 830 L 1172 830 Z"/>
    <path fill="#000000" stroke="none" transform="matrix(1 0 0 -1 37079 2689)" d="M 1475 733 C 1475 499 1416 315 1298 181 C 1179.33333333333 47 1013.66666666667 -20 801 -20 C 585.66666666667 -20 419.33333333333 46 302 178 C 184 309.33333333333 125 495 125 735 C 125 973 183.66666666667 1157.66666666667 301 1289 C 417.66666666667 1419.66666666667 585 1485 803 1485 C 1015 1485 1180 1418.66666666667 1298 1286 C 1416 1152.66666666667 1475 968.33333333333 1475 733 Z M 891 131 C 1018.33333333333 149.66666666667 1116.66666666667 210.66666666667 1186 314 C 1254.66666666667 416.66666666667 1289 556.33333333333 1289 733 C 1289 907.66666666667 1255.33333333333 1046.33333333333 1188 1149 C 1120 1251 1021 1311.66666666667 891 1331 L 891 131 Z M 707 1329 C 578.33333333333 1308.33333333333 480.33333333333 1247 413 1145 C 345 1042.33333333333 311 905 311 733 C 311 561.66666666667 344.66666666667 424 412 320 C 479.33333333333 215.33333333333 577.66666666667 152.66666666667 707 132 L 707 1329 Z"/>
    <path fill="#000000" stroke="none" transform="matrix(1 0 0 -1 38679 2689)" d="M 1475 733 C 1475 499 1416 315 1298 181 C 1179.33333333333 47 1013.66666666667 -20 801 -20 C 585.66666666667 -20 419.33333333333 46 302 178 C 184 309.33333333333 125 495 125 735 C 125 973 183.66666666667 1157.66666666667 301 1289 C 417.66666666667 1419.66666666667 585 1485 803 1485 C 1015 1485 1180 1418.66666666667 1298 1286 C 1416 1152.66666666667 1475 968.33333333333 1475 733 Z M 319 733 C 319 539.66666666667 360 392.33333333333 442 291 C 524 189.66666666667 643.66666666667 139 801 139 C 957.66666666667 139 1076.66666666667 189 1158 289 C 1239.33333333333 389 1280 537 1280 733 C 1280 928.33333333333 1239.66666666667 1075.66666666667 1159 1175 C 1078.33333333333 1273.66666666667 959.66666666667 1323 803 1323 C 644.33333333333 1323 524 1273 442 1173 C 360 1072.33333333333 319 925.66666666667 319 733 Z"/>
    <path fill="#000000" stroke="none" transform="matrix(1 0 0 -1 40278 2689)" d="M 1883 0 L 30 0 L 417 1462 L 608 1462 L 879 516 C 917.66666666667 377.33333333333 941 279 949 221 C 956.33333333333 271 981 367.33333333333 1023 510 L 1303 1462 L 1494 1462 L 1883 0 Z M 1394 1236 C 1375.33333333333 1116.66666666667 1348.66666666667 999.33333333333 1314 884 L 1096 158 L 1648 158 L 1465 886 C 1428.33333333333 1027.33333333333 1404.66666666667 1144 1394 1236 Z M 519 1236 C 504.33333333333 1132 481 1016 449 888 L 265 158 L 805 158 L 597 877 C 559.66666666667 1007 533.66666666667 1126.66666666667 519 1236 Z"/>
    <path fill="#000000" stroke="none" transform="matrix(1 0 0 -1 42191 2689)" d="M 384 1462 L 1077 1305 L 1042 1147 L 384 1296 L 384 0 L 200 0 L 200 1462 L 384 1462 Z"/>
    <path fill="#000000" stroke="none" transform="matrix(1 0 0 -1 43368 2689)" d="M 1072 1462 L 1072 532 L 698 532 L 698 0 L 514 0 L 514 532 L 140 532 L 140 1462 L 1072 1462 Z M 324 690 L 888 690 L 888 1304 L 324 1304 L 324 690 Z"/>
</svg>
