<svg width="46569" height="3789" viewBox="0 0 46569 3789" xmlns="http://www.w3.org/2000/svg">
    <defs/>
    <g transform="matrix(1 0 0 -1 0 3789)">
        <g transform="matrix(1 0 0 1 0 1100)">
            <path fill="#000000" stroke="none" d="M 1071 254 L 905 88 L 885 96 L 991 254 L 627 254 Q 104 254 104 651 Q 104 739 135.5 805 Q 167 871 223.5 908.5 Q 280 946 348 946 Q 435 946 471 913 Q 486 1020 535.5 1106 Q 585 1192 662 1242 Q 739 1292 834 1292 Q 920 1292 988 1252.5 Q 1056 1213 1098.5 1142.5 Q 1141 1072 1149 987 L 1501 1311 L 1518 1298 L 1339 1055 Q 1398 1045 1435.5 1010.5 Q 1473 976 1473 918 Q 1473 890 1464 862 Q 1503 894 1557.5001 914 Q 1612 934 1663 934 Q 1837 934 1931 837.5 Q 2025 741 2025 573 Q 2025 504 2002.5 415 Q 1980 326 1944 254 L 1071 254 Z M 205 651 Q 205 502 314.5 421 Q 424 340 633 340 L 1051 340 L 1243 623 L 874 735 L 1073 918 Q 1036 1169 831 1169 Q 713 1169 633 1079.5 Q 553 990 553 860 Q 553 807 569 754 L 522 748 Q 506 790 460.5 820 Q 415 850 360 850 Q 291 850 248 797.49994 Q 205 745 205 651 Z M 1485 668 L 1157 340 L 1876 340 Q 1896 383 1910.5001 449 Q 1925 515 1925 569 Q 1925 697 1856.5 764 Q 1788 831 1657 831 Q 1570 831 1510 805.5 Q 1450 780 1407 721 L 1378 743 Q 1399 792 1399 845 Q 1399 901 1372.5 933 Q 1346 965 1296 965 L 1272 961 L 1151 797 L 1485 668 Z M 1395 -63 L 1268 -244 Q 1212 -319 1174 -320 Q 1159 -320 1145 -308 Q 1131 -296 1131 -280 Q 1131 -267 1141 -252.50002 Q 1151 -238 1202 -190 L 1376 -45 L 1395 -63 Z M 1212 137 L 1085 -43 Q 1032 -118 991 -119 Q 976 -119 962.50006 -107 Q 949 -95 949 -79 Q 949 -67 958 -53.5 Q 967 -40 1020 10 L 1194 156 L 1212 137 Z M 1927 154 L 1800 -27 Q 1744 -102 1706 -103 Q 1691 -103 1677 -91 Q 1663 -79 1663 -65 Q 1663 -58 1666.5 -49 Q 1670 -40 1677.4999 -30 Q 1685 -20 1735 27 L 1909 172 L 1927 154 Z M 1927 -279 L 1800 -459 Q 1744 -534 1706 -535 Q 1691 -535 1677 -523 Q 1663 -511 1663 -497 Q 1663 -490 1666.5 -481.5 Q 1670 -473 1677 -463.5 Q 1684 -454 1735 -406 L 1909 -260 L 1927 -279 Z M 506 141 L 375 -39 Q 322 -114 284 -115 Q 268 -115 255 -102.50001 Q 242 -90 242 -75 Q 242 -62 252 -47.5 Q 262 -33 286 -10.5 Q 310 12 485 160 L 506 141 Z M 690 -63 L 559 -244 Q 506 -319 468 -320 Q 452 -320 439 -307.5 Q 426 -295 426 -280 Q 426 -269 433 -257 Q 440 -245 453 -231 Q 466 -217 670 -45 L 690 -63 Z M 705 -412 L 639 -526 Q 609 -566 586 -566 Q 571 -566 556 -552 Q 541 -538 541 -522 Q 541 -496 573 -477 L 684 -391 L 705 -412 Z M 348 -412 L 283 -526 Q 253 -566 229 -566 Q 214 -566 199.5 -552 Q 185 -538 185 -522 Q 185 -496 217 -477 L 328 -391 L 348 -412 Z M 1419 -412 L 1354 -526 Q 1324 -566 1301 -566 Q 1286 -566 1271 -552 Q 1256 -538 1256 -522 Q 1256 -496 1288 -477 L 1399 -391 L 1419 -412 Z M 1573 139 L 1516 41 Q 1492 7 1472 7 Q 1460 7 1446 18 Q 1432 29 1432 44 Q 1432 66 1460 84 L 1554 158 L 1573 139 Z M 1616 -188 L 1559 -287 Q 1536 -320 1515 -320 Q 1503 -320 1490 -309.5 Q 1477 -299 1476 -283 Q 1476 -261 1503 -244 L 1597 -170 L 1616 -188 Z M 1085 -399 L 1028 -498 Q 1005 -531 984 -531 Q 970 -531 957.49994 -519.5 Q 945 -508 945 -494 Q 945 -470 973 -455 L 1067 -381 L 1085 -399 Z M 864 145 L 807 47 Q 782 15 764 15 Q 752 15 739 26.499998 Q 726 38 726 52 Q 726 73 752 92 L 846 164 L 864 145 Z M 903 -195 L 844 -293 Q 823 -325 804 -325 Q 791 -325 778 -313 Q 765 -301 763 -287 Q 763 -266 791 -248 L 885 -176 L 903 -195 Z"/>
        </g>
        <g transform="matrix(1 0 0 1 2130 1100)">
            <path fill="#000000" stroke="none" d="M 250 -47 L 104 -47 L 104 1493 L 250 1493 L 250 -47 Z M 420 385 Q 420 432 449.5 460.5 Q 479 489 524 489 Q 569 489 599 460.5 Q 629 432 629 387 Q 629 340 599 310.5 Q 569 281 524 281 Q 479 281 449.5 310.5 Q 420 340 420 385 Z"/>
        </g>
        <g transform="matrix(1 0 0 1 2853 1100)">
            <path fill="#000000" stroke="none" d="M 1669 639 Q 1669 429 1564.5 248 Q 1460 67 1279 -38 Q 1098 -143 887 -143 Q 675 -143 493 -36.5 Q 311 70 207.5 250.5 Q 104 431 104 639 Q 104 847 207.5 1027.5 Q 311 1208 492.5 1314.5 Q 674 1421 887 1421 Q 1097 1421 1278 1316.5 Q 1459 1212 1564 1031 Q 1669 850 1669 639 Z M 1026 1200 L 813 1200 Q 709 1109 547 1040 L 547 823 Q 655 863 793 958 L 793 119 L 1026 119 L 1026 1200 Z"/>
        </g>
        <g transform="matrix(1 0 0 1 4627 1100)">
            <path fill="#000000" stroke="none" d="M 131 1184 Q 131 1282 110.50001 1307.5 Q 90 1333 25 1339 L 25 1389 L 422 1389 L 422 850 Q 522 971 674 971 Q 836 971 939 841 Q 1042 711 1042 506 Q 1042 274 914 121.49999 Q 786 -31 586 -31 Q 449 -31 319 86 L 162 -35 L 131 -35 L 131 1184 Z M 422 209 Q 422 43 557 43 Q 666 43 707 150.5 Q 748 258 748 487 Q 748 674 705 764 Q 662 854 561 854 Q 514 854 473 822.5 Q 432 791 422 737 L 422 209 Z"/>
        </g>
        <g transform="matrix(1 0 0 1 5727 1100)">
            <path fill="#000000" stroke="none" d="M 1294 950 L 1331 952 L 1341 856 Q 1341 698 1253 592.5 Q 1165 487 1008 446 Q 895 227 712.5 103.5 Q 530 -20 313 -20 Q 166 -20 79 60.5 Q -8 141 -8 285 Q -8 367 42 423 Q 92 479 162 479 Q 221 479 256 447.5 Q 291 416 291 369 Q 291 238 143 238 Q 68 238 68 182 Q 68 113 131.5 64.5 Q 195 16 307 16 Q 410 16 503 104.5 Q 596 193 721 436 Q 598 467 525.5 558 Q 453 649 453 766 Q 453 954 599 1108 Q 745 1262 1028 1373.5 Q 1311 1485 1583 1485 L 1583 1454 Q 1454 1446 1368 1333.5 Q 1282 1221 1198 958 L 1083 629 L 1022 487 Q 1155 524 1230 619.5 Q 1305 715 1305 850 Q 1305 889 1294 950 Z M 1423 1440 Q 1210 1399 1074 1328 Q 938 1257 821.5 1144.5 Q 705 1032 636 906 Q 567 780 567 668 Q 567 610 585.5 573.5 Q 604 537 636 513 Q 668 489 737 469 L 868 725 Q 1122 1223 1423 1440 Z"/>
        </g>
        <g transform="matrix(1 0 0 1 7249 1100)">
            <path fill="#000000" stroke="none" d="M 694 -31 L 649 -14 Q 784 508 784 766 Q 784 1008 696 1150 Q 608 1292 459 1292 Q 293 1292 211 1130 L 170 1141 Q 178 1200 235.49998 1277 Q 293 1354 374 1401 Q 455 1448 557 1448 Q 915 1448 915 961 Q 915 860 905 758 L 932 758 Q 1092 1124 1262 1281 Q 1432 1438 1626 1438 Q 1837 1438 1841 1243 L 1833 1120 L 1782 1114 Q 1776 1190 1760.5 1221.5 Q 1745 1253 1713 1271.5 Q 1681 1290 1626 1290 Q 1481 1290 1311 1134.5 Q 1141 979 1035.5 743.5 Q 930 508 883 39 L 694 -31 Z"/>
        </g>
        <g transform="matrix(1 0 0 1 9548 1100)">
            <path fill="#000000" stroke="none" d="M 1460 1169 L 1460 793 L 104 793 L 104 1169 L 236 1169 L 236 938 L 1329 938 L 1329 1169 L 1460 1169 Z M 1329 289 L 1329 520 L 236 520 L 236 289 L 104 289 L 104 666 L 1460 666 L 1460 289 L 1329 289 Z"/>
        </g>
        <g transform="matrix(1 0 0 1 11113 1100)">
            <path fill="#000000" stroke="none" d="M -23 -403 L -47 -381 L 160 647 Q 236 1020 417 1221.5 Q 598 1423 864 1423 Q 1004 1423 1083.5 1368 Q 1163 1313 1163 1214 Q 1163 1067 1038 942 Q 913 817 772 801 L 770 784 L 829 780 Q 981 766 1072 691 Q 1163 616 1163 492 Q 1163 350 1079 232.5 Q 995 115 855 46 Q 715 -23 565 -23 Q 379 -23 326 49 L 317 68 L 322 78 L 471 229 L 494 223 Q 494 53 618 53 Q 702 53 768 119.5 Q 834 186 872.5 296 Q 911 406 911 508 Q 907 614 830.49994 663.5 Q 754 713 559 713 L 516 713 L 528 780 Q 696 784 824 901 Q 952 1018 952 1174 Q 950 1260 896 1295.5 Q 842 1331 772 1331 Q 641 1331 554 1234 Q 467 1137 432 952 L 211 -315 L -23 -403 Z"/>
        </g>
        <g transform="matrix(1 0 0 1 12356 1100)">
            <path fill="#000000" stroke="none" d="M 1669 639 Q 1669 429 1564.5 248 Q 1460 67 1279 -38 Q 1098 -143 887 -143 Q 675 -143 493 -36.5 Q 311 70 207.5 250.5 Q 104 431 104 639 Q 104 847 207.5 1027.5 Q 311 1208 492.5 1314.5 Q 674 1421 887 1421 Q 1097 1421 1278 1316.5 Q 1459 1212 1564 1031 Q 1669 850 1669 639 Z M 1579 635 Q 1579 822 1486.5 983 Q 1394 1144 1234 1237.5 Q 1074 1331 887 1331 Q 701 1331 541 1238 Q 381 1145 288 984 Q 195 823 195 635 Q 195 448 288 288.5 Q 381 129 541 38 Q 701 -53 887 -53 Q 1073 -53 1233.5 38.5 Q 1394 130 1486.5 289 Q 1579 448 1579 635 Z M 1018 676 Q 1121 654 1180 584 Q 1239 514 1239 412 Q 1239 276 1142 191 Q 1045 106 887 106 Q 727 106 631 190.5 Q 535 275 535 416 Q 535 620 760 676 Q 658 701 604.5 763.5 Q 551 826 551 922 Q 551 1035 644 1107.5 Q 737 1180 887 1180 Q 1035 1180 1129 1108.5 Q 1223 1037 1223 922 Q 1223 825 1170 759.5 Q 1117 694 1018 676 Z M 1079 909 Q 1077 985 1026.5 1031 Q 976 1077 883 1077 Q 806 1077 752 1028.5 Q 698 980 698 909 Q 698 832 748.5 786.5 Q 799 741 887 741 Q 975 741 1027 786.5 Q 1079 832 1079 909 Z M 1087 416 Q 1087 507 1034 560.5 Q 981 614 887 614 Q 797 614 741.5 558 Q 686 502 686 416 Q 686 331 741 278 Q 796 225 883 225 Q 974 225 1030.5 279 Q 1087 333 1087 416 Z"/>
        </g>
        <g transform="matrix(1 0 0 1 14130 1100)">
            <path fill="#000000" stroke="none" d="M 311 1288 Q 311 1356 346.5 1394 Q 382 1432 444 1432 Q 503 1432 539 1394.5001 Q 575 1357 575 1288 Q 575 1221 539.5 1183 Q 504 1145 444 1145 Q 383 1145 347 1182.5 Q 311 1220 311 1288 Z M 858 1288 Q 858 1356 893.49994 1394 Q 929 1432 991 1432 Q 1050 1432 1086 1394.5001 Q 1122 1357 1122 1288 Q 1122 1221 1086.5 1183 Q 1051 1145 991 1145 Q 930 1145 894 1182.5 Q 858 1220 858 1288 Z M 311 264 Q 311 332 346.5 370 Q 382 408 444 408 Q 503 408 539 370.5 Q 575 333 575 264 Q 575 197 539.5 159 Q 504 121 444 121 Q 383 121 347 158.5 Q 311 196 311 264 Z M 858 264 Q 858 332 893.49994 370 Q 929 408 991 408 Q 1050 408 1086 370.5 Q 1122 333 1122 264 Q 1122 197 1086.5 159 Q 1051 121 991 121 Q 930 121 894 158.5 Q 858 196 858 264 Z"/>
        </g>
        <g transform="matrix(1 0 0 1 15564 1100)">
            <path fill="#000000" stroke="none" d="M 1544 823 L 1544 639 L 82 117 L 82 309 L 1319 729 L 82 1153 L 82 1346 L 1544 823 Z"/>
        </g>
        <g transform="matrix(1 0 0 1 17135 1100)">
            <path fill="#000000" stroke="none" d="M 274 1331 L 659 506 L 659 1331 L 803 1331 L 803 508 L 1186 1331 L 1356 1331 L 782 143 L 680 143 L 104 1331 L 274 1331 Z"/>
        </g>
        <g transform="matrix(1 0 0 1 19127 1100)">
            <path fill="#000000" stroke="none" d="M 868 596 L 868 973 L 909 973 L 909 596 L 868 596 Z M 1622 1202 Q 1663 1202 1668 1193 Q 1673 1184 1673 1149 L 1673 422 Q 1673 385 1668 376 Q 1663 367 1622 367 L 156 367 Q 115 367 109.49999 376 Q 104 385 104 422 L 104 1149 Q 104 1184 109.49999 1193 Q 115 1202 156 1202 L 1622 1202 Z M 145 1161 L 145 408 L 1632 408 L 1632 1161 L 145 1161 Z M 227 985 Q 227 1016 248.5 1037.5 Q 270 1059 301 1059 Q 332 1059 353.5 1037.5 Q 375 1016 375 985 Q 375 954 353.5 932.5 Q 332 911 301 911 Q 270 911 248.5 932.5 Q 227 954 227 985 Z M 643 584 Q 643 614 664.5 635.5 Q 686 657 717 657 Q 748 657 769.50006 635.5 Q 791 614 791 584 Q 791 553 769.50006 531.5 Q 748 510 717 510 Q 686 510 664.5 531.5 Q 643 553 643 584 Z M 987 985 Q 987 1016 1008.5 1037.5 Q 1030 1059 1061 1059 Q 1092 1059 1113.5 1037.5 Q 1135 1016 1135 985 Q 1135 954 1113.5 932.5 Q 1092 911 1061 911 Q 1030 911 1008.5 932.5 Q 987 954 987 985 Z M 1403 584 Q 1403 614 1424.5 635.5 Q 1446 657 1477 657 Q 1507 657 1528.5 635.5 Q 1550 614 1550 584 Q 1550 553 1528.5 531.5 Q 1507 510 1477 510 Q 1446 510 1424.5 531.5 Q 1403 553 1403 584 Z"/>
        </g>
        <g transform="matrix(1 0 0 1 20905 1100)">
            <path fill="#000000" stroke="none" d="M 668 70 Q 856 166 1022 347 Q 1188 528 1405 907 Q 1520 1110 1603 1195 Q 1686 1280 1718 1280 Q 1737 1280 1737 1272 Q 1737 1260 1716 1245 Q 1636 1188 1579 1112 Q 1522 1036 1403 829 Q 1282 616 1193 496.5 Q 1104 377 986 259 Q 868 141 752.5 63.5 Q 637 -14 596 -14 Q 573 -14 573 0 Q 573 12 588 29 Q 662 121 688 289 L 700 381 Q 719 563 790.5 705.50006 Q 862 848 1047 1073 Q 895 956 795.5 891.5 Q 696 827 633 827 Q 545 827 545 911 Q 545 944 562.5 976 Q 580 1008 600.5 1035.5 Q 621 1063 638 1085.5 Q 655 1108 655 1120 Q 655 1137 631 1137 Q 616 1137 563 1108 Q 510 1079 436 1010 Q 346 926 309 873.5 Q 272 821 250 821 Q 233 821 233 834 Q 233 866 396 1018.5 Q 559 1171 647 1171 Q 696 1171 724 1142.5 Q 752 1114 752 1063 Q 752 1010 721 966 Q 690 922 649 862 Q 760 895 944 1035.5 Q 1128 1176 1182 1231 Q 1217 1266 1237 1266 Q 1249 1266 1249 1249 Q 1249 1237 1235 1221 Q 1147 1120 1106 1008 L 1044 786 Q 981 543 891 380 Q 801 217 668 70 Z"/>
        </g>
        <g transform="matrix(1 0 0 1 22128 1100)">
            <path fill="#000000" stroke="none" d="M 506 -20 Q 323 -20 219 128 Q 115 276 115 532 Q 115 693 144.5 825.5 Q 174 958 236 1098 L 420 1098 Q 354 949 324.5 819 Q 295 689 295 530 Q 295 341 353.5 235 Q 412 129 518 129 Q 613 129 664 200 Q 715 271 715 395 L 715 705 L 887 705 L 887 395 Q 887 267 937.5 198 Q 988 129 1081 129 Q 1185 129 1246 230 Q 1307 331 1307 530 Q 1307 687 1277.5 819 Q 1248 951 1182 1098 L 1366 1098 Q 1432 944 1459.5 815 Q 1487 686 1487 532 Q 1487 275 1383 127.5 Q 1279 -20 1096 -20 Q 874 -20 805 164 L 795 164 Q 730 -20 506 -20 Z M 1518 -160 L 1518 -305 L 84 -305 L 84 -160 L 1518 -160 Z"/>
        </g>
        <g transform="matrix(1 0 0 1 23730 1100)">
            <path fill="#000000" stroke="none" d="M 154 1210 L 199 1473 L 1278 1473 L 1231 1210 L 154 1210 Z M 145 629 L 190 889 L 1126 889 L 1079 629 L 145 629 Z M -23 0 L 23 260 L 1137 260 L 1090 0 L -23 0 Z"/>
        </g>
        <g transform="matrix(1 0 0 1 24985 1100)">
            <path fill="#000000" stroke="none" d="M 1241 227 L 1270 193 Q 1149 66 1075 18.5 Q 1001 -29 942 -29 Q 827 -29 813 143 Q 584 -23 446 -23 Q 326 -23 272 51 L 266 51 Q 266 -205 319 -346 L 180 -414 L 143 -379 Q 178 39 178 465 Q 178 729 168 907 L 383 977 L 403 956 L 391 717 L 385 520 Q 385 332 418 229.5 Q 451 127 555 127 Q 692 127 809 231 L 817 498 Q 817 727 807 897 L 1001 971 L 1034 952 Q 1022 565 1022 410 Q 1022 281 1041.5 223.5 Q 1061 166 1104 166 Q 1151 166 1182.5 188.50002 Q 1214 211 1241 227 Z"/>
        </g>
        <g transform="matrix(1 0 0 1 26275 1100)">
            <path fill="#000000" stroke="none" d="M 172 731 Q 172 506 286.5 308.5 Q 401 111 599 -5 Q 797 -121 1024 -121 Q 1251 -121 1448 -6 Q 1645 109 1760.5 306.5 Q 1876 504 1876 731 Q 1876 958 1761.5 1155 Q 1647 1352 1449 1467.5 Q 1251 1583 1024 1583 Q 799 1583 601 1468.5 Q 403 1354 287.5 1156 Q 172 958 172 731 Z M 293 731 Q 293 535 390 366 Q 487 197 656 98.50001 Q 825 0 1024 0 Q 1221 0 1390 97.49999 Q 1559 195 1657 363.5 Q 1755 532 1755 731 Q 1755 928 1658 1097 Q 1561 1266 1392 1364 Q 1223 1462 1024 1462 Q 827 1462 658 1365 Q 489 1268 391 1099 Q 293 930 293 731 Z M 111 731 Q 111 975 233.5 1187 Q 356 1399 568 1522 Q 780 1645 1024 1645 Q 1268 1645 1480 1522 Q 1692 1399 1814.5 1187 Q 1937 975 1937 731 Q 1937 487 1814.5 275 Q 1692 63 1480 -59.5 Q 1268 -182 1024 -182 Q 780 -182 568 -59.5 Q 356 63 233.5 275 Q 111 487 111 731 Z M 231 731 Q 231 944 337.5 1128.5 Q 444 1313 629.5 1418.5 Q 815 1524 1024 1524 Q 1237 1524 1421.4999 1417.4999 Q 1606 1311 1711.5 1125.5 Q 1817 940 1817 731 Q 1817 518 1710.4999 334 Q 1604 150 1418.5 44.5 Q 1233 -61 1024 -61 Q 811 -61 626.5 45.5 Q 442 152 336.5 337 Q 231 522 231 731 Z M 682 1171 L 829 1171 L 829 295 L 690 295 L 690 956 L 694 1042 Q 657 1006 518 901 L 449 1001 L 682 1171 Z M 1135 733 Q 1135 569 1166.5 483 Q 1198 397 1274 397 Q 1417 397 1417 735 Q 1417 1069 1274 1069 Q 1198 1069 1166.5 984 Q 1135 899 1135 733 Z M 1556 735 Q 1556 276 1274 276 Q 993 276 993 735 Q 993 1188 1274 1188 Q 1556 1188 1556 735 Z"/>
        </g>
        <g transform="matrix(1 0 0 1 28855 1100)">
            <path fill="#000000" stroke="none" d="M 522 662 Q 522 349 439 120 Q 356 -109 195 -244 L 20 -244 Q 202 -84 275 114 Q 348 312 348 662 L 348 1710 L 522 1710 L 522 662 Z"/>
        </g>
        <g transform="matrix(1 0 0 1 29482 1100)">
            <path fill="#000000" stroke="none" d="M 336 989 L 100 989 L 109 1026 L 270 1098 L 1567 1098 L 1544 989 L 1323 989 L 1202 436 Q 1184 358 1184 311 Q 1184 244 1268 244 Q 1321 244 1368 264 L 1315 10 Q 1239 -20 1108 -20 Q 979 -20 899 53.5 Q 819 127 819 242 Q 819 272 824 312 Q 829 352 969 989 L 690 989 L 481 0 L 127 0 L 336 989 Z M 932 242 Q 932 164 984 123 Q 1036 82 1122 82 Q 1192 82 1233 90 L 1247 166 L 1239 166 Q 1155 166 1115 201 Q 1075 236 1075 309 Q 1075 356 1094 436 L 1212 989 L 1079 989 L 956 418 Q 932 319 932 242 Z M 256 100 L 393 100 L 582 989 L 444 989 L 256 100 Z"/>
        </g>
        <g transform="matrix(1 0 0 1 31073 1100)">
            <path fill="#000000" stroke="none" d="M 102 1499 Q 102 1542 115.5 1555.5001 Q 129 1569 172 1569 L 1208 1569 Q 1251 1569 1264.5 1555.5001 Q 1278 1542 1278 1499 L 1278 70 Q 1278 27 1264.5 13.5 Q 1251 0 1208 0 L 172 0 Q 129 0 115.5 13.5 Q 102 27 102 70 L 102 1499 Z M 131 82 Q 131 45 140.5 37 Q 150 29 184 29 L 1196 29 Q 1231 29 1240 37 Q 1249 45 1249 82 L 1249 1487 Q 1249 1524 1240 1532 Q 1231 1540 1196 1540 L 184 1540 Q 150 1540 140.5 1532 Q 131 1524 131 1487 L 131 82 Z M 231 1303 Q 242 1280 263.5 1260.5 Q 285 1241 285 1219 Q 285 1192 260 1192 Q 242 1192 236 1212 L 233 1212 L 233 1204 L 240 1174 L 223 1174 L 229 1204 L 229 1212 L 227 1212 Q 221 1192 203 1192 Q 178 1192 178 1219 Q 178 1241 199.5 1260.5 Q 221 1280 231 1303 Z M 455 1434 Q 463 1411 481 1391 Q 559 1298 559 1266 Q 559 1239 543.5 1224.5 Q 528 1210 512 1210 Q 477 1210 461 1253 L 459 1253 L 459 1239 Q 459 1198 473 1174 L 436 1174 Q 451 1198 451 1239 L 451 1253 L 449 1253 Q 432 1210 397 1210 Q 381 1210 365.5 1224.5 Q 350 1239 350 1266 Q 350 1294 393 1348 Q 444 1413 455 1434 Z M 924 1434 Q 932 1411 950 1391 Q 1028 1298 1028 1266 Q 1028 1239 1012.5 1224.5 Q 997 1210 981 1210 Q 946 1210 930 1253 L 928 1253 L 928 1239 Q 928 1198 942 1174 L 905 1174 Q 920 1198 920 1239 L 920 1253 L 918 1253 Q 901 1210 866 1210 Q 850 1210 834.50006 1224.5 Q 819 1239 819 1266 Q 819 1294 862 1348 Q 913 1413 924 1434 Z M 926 135 L 899 180 Q 850 238 835.50006 260.5 Q 821 283 821 303 Q 821 330 836.5 344 Q 852 358 868 358 Q 903 358 920 315 L 922 315 L 922 330 Q 922 371 907 395 L 944 395 Q 930 371 930 330 L 930 315 L 932 315 Q 948 358 983 358 Q 999 358 1014.5 344 Q 1030 330 1030 303 Q 1030 270 952 180 Q 934 158 926 135 Z M 457 135 L 430 180 Q 381 238 366.5 260.5 Q 352 283 352 303 Q 352 330 367.5 344 Q 383 358 399 358 Q 434 358 451 315 L 453 315 L 453 330 Q 453 371 438 395 L 475 395 Q 461 371 461 330 L 461 315 L 463 315 Q 479 358 514 358 Q 530 358 545.5 344 Q 561 330 561 303 Q 561 270 483 180 Q 465 158 457 135 Z M 455 918 Q 463 895 481 874 Q 559 782 559 750 Q 559 723 543.5 708.5 Q 528 694 512 694 Q 477 694 461 737 L 459 737 L 459 723 Q 459 682 473 657 L 436 657 Q 451 682 451 723 L 451 737 L 449 737 Q 432 694 397 694 Q 381 694 365.5 708.5 Q 350 723 350 750 Q 350 778 393 831 Q 444 897 455 918 Z M 924 918 Q 932 895 950 874 Q 1028 782 1028 750 Q 1028 723 1012.5 708.5 Q 997 694 981 694 Q 946 694 930 737 L 928 737 L 928 723 Q 928 682 942 657 L 905 657 Q 920 682 920 723 L 920 737 L 918 737 Q 901 694 866 694 Q 850 694 834.50006 708.5 Q 819 723 819 750 Q 819 778 862 831 Q 913 897 924 918 Z M 281 1460 Q 236 1423 236 1346 L 205 1346 Q 211 1411 252 1458 L 186 1458 L 186 1485 L 281 1485 L 281 1460 Z M 688 1169 Q 696 1147 715 1126 Q 793 1034 793 1001 Q 793 975 777.5 960.50006 Q 762 946 745 946 Q 711 946 694 989 L 692 989 L 692 975 Q 692 934 707 909 L 670 909 Q 684 934 684 975 L 684 989 L 682 989 Q 666 946 631 946 Q 614 946 599 960.50006 Q 584 975 584 1001 Q 584 1030 627 1083 Q 678 1149 688 1169 Z M 1149 266 Q 1139 289 1117.5 308.5 Q 1096 328 1096 350 Q 1096 377 1120 377 Q 1139 377 1145 356 L 1147 356 L 1147 365 L 1141 395 L 1157 395 L 1151 365 L 1151 356 L 1153 356 Q 1159 377 1178 377 Q 1202 377 1202 350 Q 1202 328 1180.5 308.5 Q 1159 289 1149 266 Z M 1100 109 Q 1145 145 1145 223 L 1176 223 Q 1169 158 1128 111 L 1194 111 L 1194 84 L 1100 84 L 1100 109 Z"/>
        </g>
        <g transform="matrix(1 0 0 1 32453 1100)">
            <path fill="#000000" stroke="none" d="M 590 297 L 430 100 L 326 100 L 520 340 L 326 580 L 430 580 L 590 383 L 1247 383 Q 1190 451 1128 580 L 1200 580 Q 1307 455 1425 383 L 1499 383 Q 1442 451 1380 580 L 1452 580 Q 1579 430 1722 358 L 1722 322 Q 1579 250 1452 100 L 1380 100 Q 1442 229 1499 297 L 1425 297 Q 1307 225 1200 100 L 1128 100 Q 1190 229 1247 297 L 590 297 Z"/>
        </g>
        <g transform="matrix(1 0 0 1 34501 1100)">
            <path fill="#000000" stroke="none" d="M 1395 -111 L 1038 53 Q 974 -140 868 -315 L 717 -315 Q 849 -114 915 111 L 715 203 Q 659 -54 504 -315 L 352 -315 Q 532 -47 586 262 L 104 483 L 104 586 L 584 827 Q 523 1163 326 1438 L 483 1438 Q 649 1174 713 893 L 909 991 Q 836 1231 690 1438 L 848 1438 Q 965 1250 1032 1053 L 1395 1237 L 1395 1077 L 1071 920 Q 1118 734 1118 543 Q 1118 363 1077 193 L 1395 49 L 1395 -111 Z M 754 543 Q 754 435 741 342 L 948 250 Q 975 387 975 543 Q 975 710 942 856 L 739 758 Q 754 657 754 543 Z M 610 543 Q 610 618 604 692 L 297 543 L 604 403 Q 610 472 610 543 Z"/>
        </g>
        <g transform="matrix(1 0 0 1 36000 1100)">
            <path fill="#000000" stroke="none" d="M 1550 573 L 104 573 L 104 705 L 1550 705 L 1550 573 Z M 449 934 Q 533 934 591 986.5 Q 649 1039 659 1122 L 793 1122 Q 781 985 683 890 Q 585 795 449 795 Q 313 795 214.5 889.5 Q 116 984 104 1122 L 238 1122 Q 249 1028 299 981 Q 349 934 449 934 Z M 1206 934 Q 1291 934 1349.5 986.5 Q 1408 1039 1417 1122 L 1550 1122 Q 1538 981 1438.5 888 Q 1339 795 1206 795 Q 1071 795 972.5 889.5 Q 874 984 862 1122 L 995 1122 Q 1009 1022 1060.5 978 Q 1112 934 1206 934 Z"/>
        </g>
        <g transform="matrix(1 0 0 1 38187 1100)">
            <path fill="#000000" stroke="none" d="M 104 1462 L 1386 1462 L 1386 0 L 104 0 L 104 1462 Z M 250 793 L 1241 1182 L 1241 1317 L 250 1317 L 250 793 Z M 1241 145 L 1241 281 L 250 668 L 250 145 L 1241 145 Z M 1241 438 L 1241 1022 L 434 731 L 1241 438 Z"/>
        </g>
        <g transform="matrix(1 0 0 1 39678 1100)">
            <path fill="#000000" stroke="none" d="M 141 559 L 82 582 Q 141 874 211 938 Q 256 977 387 977 L 965 977 Q 1049 977 1100 991.49994 Q 1151 1006 1208 1059 L 1237 1028 L 1159 879 Q 1135 831 1111 806.5 Q 1087 782 1047 782 L 768 782 Q 750 610 750 485 Q 750 137 899 137 Q 961 137 1024 207 L 1051 152 Q 985 74 903 24.499998 Q 821 -25 745 -25 Q 631 -25 584 54 Q 537 133 537 362 Q 537 455 569 782 L 352 782 Q 303 782 271.5 765 Q 240 748 215 716 Q 190 684 141 559 Z"/>
        </g>
        <g transform="matrix(1 0 0 1 40946 1100)">
            <path fill="#000000" stroke="none" d="M 1067 285 L 104 737 L 104 840 L 1067 1292 L 1067 1133 L 317 788 L 1067 444 L 1067 285 Z M 1067 53 L 1067 -106 L 104 346 L 104 506 L 1067 53 Z M 1055 1495 Q 1055 1446 1019.5 1409 Q 984 1372 932 1372 Q 881 1372 845 1408 Q 809 1444 809 1495 Q 809 1546 845 1582 Q 881 1618 932 1618 Q 985 1618 1020 1580 Q 1055 1542 1055 1495 Z"/>
        </g>
        <g transform="matrix(1 0 0 1 42117 1100)">
            <path fill="#000000" stroke="none" d="M -102 47 Q -8 47 36 85 Q 80 123 119 260 L 350 1124 Q 367 1186 367 1223 Q 367 1278 334 1298.5 Q 301 1319 223 1325 L 223 1374 L 1317 1374 L 1241 989 L 1184 989 L 1184 1008 Q 1184 1171 1098 1240 Q 1012 1309 821 1309 Q 735 1309 710.5 1290.5 Q 686 1272 672 1212 L 553 764 L 610 764 Q 774 764 847 813 Q 920 862 975 981 L 1026 981 L 881 416 L 836 416 L 838 457 L 838 496 Q 838 606 780.5 650 Q 723 694 592 694 L 563 694 L 535 692 L 406 215 L 389 133 Q 389 96 417.5 83 Q 446 70 526 70 Q 748 70 882 143.5 Q 1016 217 1135 416 L 1186 416 L 1067 0 L -102 0 L -102 47 Z"/>
        </g>
        <g transform="matrix(1 0 0 1 43460 1100)">
            <path fill="#000000" stroke="none" d="M 684 487 L 586 500 L 498 496 Q 293 446 293 287 Q 293 197 367.5 142.5 Q 442 88 578 88 Q 653 88 737 115.5 Q 821 143 963 223 L 985 186 Q 901 111 731 44 Q 561 -23 432 -23 Q 283 -23 182.5 37.5 Q 82 98 82 201 Q 82 307 151.5 388 Q 221 469 332 506 L 406 518 L 362 537 Q 287 569 287 678 Q 287 762 351.5 841 Q 416 920 526.5 968 Q 637 1016 770 1016 Q 879 1016 946.5 982 Q 1014 948 1032 922 L 930 788 L 907 788 Q 897 844 838.5 887 Q 780 930 694 930 Q 575 930 498.5 870.5 Q 422 811 422 715 Q 422 649 475 621.5 Q 528 594 659 594 L 758 596 L 684 487 Z"/>
        </g>
        <g transform="matrix(1 0 0 1 44521 1100)">
            <path fill="#000000" stroke="none" d="M 641 477 Q 698 410 760 281 L 688 281 Q 561 430 418 502 L 418 539 Q 561 610 688 760 L 760 760 Q 698 631 641 563 L 1630 563 L 1630 477 L 641 477 Z M 1376 129 L 1208 129 L 1208 215 L 1376 215 L 1376 383 L 1462 383 L 1462 215 L 1630 215 L 1630 129 L 1462 129 L 1462 -39 L 1376 -39 L 1376 129 Z"/>
        </g>
    </g>
</svg>
