<svg width="39663" height="3789" viewBox="0 0 39663 3789" xmlns="http://www.w3.org/2000/svg">
    <defs/>
    <g transform="matrix(1 0 0 -1 0 3789)">
        <g transform="matrix(1 0 0 1 0 1100)">
            <path fill="#000000" stroke="none" d="M 780 575 L 1055 227 Q 1183 368 1230.5 499 Q 1278 630 1278 760 Q 1278 942 1194 1107 Q 1110 1272 1014 1350 L 1128 1485 Q 1283 1347 1371.5 1158.5 Q 1460 970 1460 760 Q 1460 547 1349.5 340 Q 1239 133 1061 -20 L 780 330 L 500 -20 Q 322 133 211 340.5 Q 100 548 100 760 Q 100 963 185.5 1151 Q 271 1339 432 1485 L 547 1350 Q 453 1276 368 1108.5 Q 283 941 283 760 Q 283 627 331 496.5 Q 379 366 506 227 L 780 575 Z"/>
        </g>
        <g transform="matrix(1 0 0 1 1561 1100)">
            <path fill="#000000" stroke="none" d="M 694 1325 Q 586 1289 424 1157.5 Q 262 1026 262 922 Q 262 849 314 801.50006 Q 366 754 442 754 L 524 754 L 524 600 L 442 600 Q 278 600 180 686.5 Q 82 773 82 922 Q 82 1026 169.5 1136 Q 257 1246 419.5 1349.5 Q 582 1453 694 1485 Q 807 1453 970 1349.5 Q 1133 1246 1220 1136 Q 1307 1026 1307 922 Q 1307 773 1208.5 686.5 Q 1110 600 946 600 L 864 600 L 864 754 L 946 754 Q 1022 754 1074 801.50006 Q 1126 849 1126 922 Q 1126 1026 961.50006 1159.5 Q 797 1293 694 1325 Z M 612 401 L 612 1059 L 776 1059 L 776 334 L 700 246 L 459 317 Q 481 227 544 173 Q 607 119 694 119 Q 800 119 856.5 225.5 Q 913 332 913 508 L 1077 508 Q 1061 230 961 105 Q 861 -20 694 -20 Q 566 -20 471 43.5 Q 376 107 325 232.5 Q 274 358 274 491 L 274 502 L 612 401 Z"/>
        </g>
        <g transform="matrix(1 0 0 1 2950 1100)">
            <path fill="#000000" stroke="none" d="M 1038 424 Q 965 375 860 375 Q 710 375 615 475.5 Q 520 576 520 731 Q 520 887 615 987 Q 710 1087 860 1087 Q 965 1087 1038 1038 Q 984 1181 882.5 1255 Q 781 1329 647 1329 Q 512 1329 402 1211 Q 292 1093 281 977 L 92 977 Q 152 1226 296 1354.5 Q 440 1483 647 1483 Q 929 1483 1099.5 1276 Q 1270 1069 1270 731 Q 1270 394 1100 187 Q 930 -20 647 -20 Q 435 -20 292.5 110.50001 Q 150 241 92 485 L 281 485 Q 293 367 403 250 Q 513 133 647 133 Q 778 133 880.5 209.5 Q 983 286 1038 424 Z M 728 879.5 Q 666 817 666 731 Q 666 644 728.5 582 Q 791 520 877 520 Q 962 520 1024.5 583 Q 1087 646 1087 731 Q 1087 817 1025 879.5 Q 963 942 877 942 Q 790 942 728 879.5 Z"/>
        </g>
        <g transform="matrix(1 0 0 1 4320 1100)">
            <path fill="#000000" stroke="none" d="M 647 1462 L 823 1462 Q 956 1425 1089.5 1316 Q 1223 1207 1296.5 1054.5 Q 1370 902 1370 727 Q 1370 581 1315 442.5 Q 1260 304 1160 194.5 Q 1060 85 995 53 L 915 205 Q 963 228 1035.5 313 Q 1108 398 1149 505 Q 1190 612 1190 727 Q 1190 918 1082.5 1070.5 Q 975 1223 823 1284 L 823 0 L 647 0 Q 435 60 267.5 263 Q 100 466 100 735 Q 100 879 153.5 1014.5 Q 207 1150 304.5 1261 Q 402 1372 475 1409 L 555 1257 Q 510 1234 436.5 1149.5 Q 363 1065 322 956.49994 Q 281 848 281 735 Q 281 542 388.5 390.49997 Q 496 239 647 176 L 647 1462 Z"/>
        </g>
        <g transform="matrix(1 0 0 1 5790 1100)">
            <path fill="#000000" stroke="none" d="M 82 518 L 236 569 L 371 162 Q 471 195 585 289.5 Q 699 384 737 465 Q 644 488 502 598 Q 360 708 277.5 846 Q 195 984 195 1128 Q 195 1294 283.5 1389.5 Q 372 1485 520 1485 Q 645 1485 754.5 1397.5 Q 864 1310 926.49994 1154 Q 989 998 989 805 Q 989 574 888 391 Q 787 208 598.5 98 Q 410 -12 268 -20 L 82 518 Z M 786 596 Q 809 677 809 813 Q 809 971 723 1151 Q 637 1331 518 1331 Q 451 1331 413 1275.5 Q 375 1220 375 1120 Q 375 1018 434 910 Q 493 802 596 713.5 Q 699 625 786 596 Z"/>
        </g>
        <g transform="matrix(1 0 0 1 6880 1100)">
            <path fill="#000000" stroke="none" d="M 1292 623 Q 1258 323 1108.5 151.5 Q 959 -20 713 -20 Q 431 -20 265.5 186 Q 100 392 100 731 Q 100 1076 257 1280.5 Q 414 1485 682 1485 Q 850 1485 986 1392.5001 Q 1122 1300 1155 1182 L 973 1139 Q 968 1162 929.50006 1211 Q 891 1260 829.49994 1295.5 Q 768 1331 688 1331 Q 495 1331 388 1166 Q 281 1001 281 731 Q 281 460 395 296.5 Q 509 133 713 133 Q 853 133 966 252 Q 1079 371 1079 485 Q 1019 460 956 445 Q 893 430 844 430 Q 716 430 626.5 523.5 Q 537 617 537 741 Q 537 883 632.5 966 Q 728 1049 893 1049 L 1247 1049 L 1247 893 L 866 893 Q 781 893 739.50006 852 Q 698 811 698 741 Q 698 665 744 620 Q 790 575 868 575 Q 930 575 1029 606 Q 1128 637 1198 672 L 1292 623 Z"/>
        </g>
        <g transform="matrix(1 0 0 1 8796 1100)">
            <path fill="#000000" stroke="none" d="M 74 354 L 891 1128 Q 842 1230 763.5 1280.5 Q 685 1331 588 1331 Q 489 1331 401 1271 Q 313 1211 262 1110 L 74 1110 Q 139 1282 276.5 1383.5 Q 414 1485 588 1485 Q 761 1485 899 1384 Q 1037 1283 1102 1110 L 283 336 Q 330 237 411 185 Q 492 133 588 133 Q 687 133 774.5 192.5 Q 862 252 913 354 L 1102 354 Q 1037 182 900 81 Q 763 -20 588 -20 Q 412 -20 275 81.5 Q 138 183 74 354 Z"/>
        </g>
        <g transform="matrix(1 0 0 1 9972 1100)">
            <path fill="#000000" stroke="none" d="M 846 0 L 846 477 L 600 252 Q 383 321 232.5 488.50003 Q 82 656 82 868 Q 82 1079 232 1247 Q 382 1415 600 1485 L 846 1257 L 846 1462 L 1022 1462 L 1022 0 L 846 0 Z M 600 426 L 846 662 L 846 1073 L 600 1311 Q 446 1255 355 1139.5 Q 264 1024 264 868 Q 264 714 354 597.5 Q 444 481 600 426 Z"/>
        </g>
        <g transform="matrix(1 0 0 1 11168 1100)">
            <path fill="#000000" stroke="none" d="M 655 1464 L 597 1406 Q 443 1252 362 1082.5 Q 281 913 281 737 Q 281 563 357.5 421 Q 434 279 535 205 L 938 596 L 938 1464 L 1114 1464 L 1114 2 L 938 2 L 938 371 L 535 -20 Q 386 57 243 282.5 Q 100 508 100 737 Q 100 924 186.5 1118.5 Q 273 1313 416 1464 L 655 1464 Z"/>
        </g>
        <g transform="matrix(1 0 0 1 12456 1100)">
            <path fill="#000000" stroke="none" d="M 526 731 L 993 1200 Q 889 1331 705 1331 Q 533 1331 424 1215.5 Q 315 1100 283 881 L 100 881 Q 134 1163 294 1324 Q 454 1485 705 1485 Q 872 1485 997 1406.5 Q 1122 1328 1190 1178 L 743 731 L 1190 287 Q 1123 138 999.5 59 Q 876 -20 705 -20 Q 454 -20 293.5 141.5 Q 133 303 100 584 L 283 584 Q 314 366 423 249.5 Q 532 133 705 133 Q 889 133 993 264 L 526 731 Z M 913 793 L 1294 793 L 1294 651 L 913 651 L 913 793 Z"/>
        </g>
        <g transform="matrix(1 0 0 1 13832 1100)">
            <path fill="#000000" stroke="none" d="M 301.5 177.5 Q 125 375 125 735 Q 125 1092 300.5 1288.5 Q 476 1485 803 1485 Q 1122 1485 1298.5 1285 Q 1475 1085 1475 733 Q 1475 381 1297 180.50002 Q 1119 -20 801 -20 Q 478 -20 301.5 177.5 Z M 1158 289 Q 1280 439 1280 733 Q 1280 1026 1159 1174.5 Q 1038 1323 803 1323 Q 565 1323 442 1172.5 Q 319 1022 319 733 Q 319 443 442 291 Q 565 139 801 139 Q 1036 139 1158 289 Z"/>
        </g>
        <g transform="matrix(1 0 0 1 15431 1100)">
            <path fill="#000000" stroke="none" d="M 1229 913 Q 1241 824 1241 723 Q 1241 403 1085.5 191.5 Q 930 -20 688 -20 Q 424 -20 263 204 Q 102 428 102 815 Q 198 719 292 662.5 Q 386 606 453 606 Q 578 606 622 691.5 Q 666 777 666 954 Q 666 1128 610 1229.5 Q 554 1331 457 1331 Q 373 1331 315.5 1256.5 Q 258 1182 258 1069 L 100 1069 Q 111 1250 207.5 1367.5 Q 304 1485 457 1485 Q 635 1485 733 1335 Q 831 1185 831 954 Q 831 717 751.5 585 Q 672 453 539 453 Q 416 453 303 526 Q 320 367 442.5 250 Q 565 133 688 133 Q 847 133 954 302.5 Q 1061 472 1061 723 Q 1061 808 1047 913 L 1229 913 Z M 1211.5 1260.5 Q 1249 1223 1249 1171 Q 1249 1119 1211.5 1081.5 Q 1174 1044 1122 1044 Q 1070 1044 1032.5 1081.5 Q 995 1119 995 1171 Q 995 1223 1032.5 1260.5 Q 1070 1298 1122 1298 Q 1174 1298 1211.5 1260.5 Z"/>
        </g>
        <g transform="matrix(1 0 0 1 17304 1100)">
            <path fill="#000000" stroke="none" d="M 872 1464 Q 1019 1310 1103.5 1116.5 Q 1188 923 1188 737 Q 1188 510 1046 283.5 Q 904 57 754 -20 L 350 371 L 350 2 L 174 2 L 174 1464 L 350 1464 L 350 596 L 754 205 Q 871 295 939.5 434.5 Q 1008 574 1008 737 Q 1008 915 923 1088 Q 838 1261 691 1406 L 633 1464 L 872 1464 Z"/>
        </g>
        <g transform="matrix(1 0 0 1 18592 1100)">
            <path fill="#000000" stroke="none" d="M 344 532 L 344 1204 Q 237 1126 162 1016 L 61 1139 Q 186 1317 352 1401 Q 518 1485 764 1485 Q 939 1485 1076 1434.5 Q 1213 1384 1325 1280 L 1147 932 L 1147 258 Q 1242 327 1329 449 L 1430 326 Q 1307 149 1139.5 64.5 Q 972 -20 727 -20 Q 552 -20 415 30 Q 278 80 166 184 L 344 532 Z M 520 1294 L 520 492 L 385 225 Q 536 133 727 133 Q 866 133 971 168 L 971 973 L 1106 1239 Q 955 1331 764 1331 Q 630 1331 520 1294 Z"/>
        </g>
        <g transform="matrix(1 0 0 1 20083 1100)">
            <path fill="#000000" stroke="none" d="M 174 0 L 174 1462 L 350 1462 L 350 1257 L 596 1485 Q 828 1407 971 1240 Q 1114 1073 1114 868 Q 1114 658 965 490.5 Q 816 323 596 252 L 350 477 L 350 0 L 174 0 Z M 596 1311 L 350 1073 L 350 662 L 596 426 Q 748 479 840 595.5 Q 932 712 932 868 Q 932 1027 838.5 1142 Q 745 1257 596 1311 Z"/>
        </g>
        <g transform="matrix(1 0 0 1 21279 1100)">
            <path fill="#000000" stroke="none" d="M 367 212.50002 Q 401 177 401 111 Q 401 46 367 8.5 Q 333 -29 272 -29 Q 212 -29 179.49998 8.5 Q 147 46 147 111 Q 147 177 179.49998 212.50002 Q 212 248 272 248 Q 333 248 367 212.50002 Z"/>
        </g>
        <g transform="matrix(1 0 0 1 21828 1100)">
            <path fill="#000000" stroke="none" d="M 633 0 L 691 58 Q 840 207 924 378 Q 1008 549 1008 727 Q 1008 888 940 1028.5 Q 872 1169 754 1260 L 350 868 L 350 0 L 174 0 L 174 1462 L 350 1462 L 350 1094 L 754 1485 Q 911 1401 1049.5 1176 Q 1188 951 1188 727 Q 1188 538 1101 345 Q 1014 152 872 0 L 633 0 Z"/>
        </g>
        <g transform="matrix(1 0 0 1 23116 1100)">
            <path fill="#000000" stroke="none" d="M 303 526 Q 320 367 442.5 250 Q 565 133 688 133 Q 847 133 954 302.5 Q 1061 472 1061 723 Q 1061 886 1019 1053.5 Q 977 1221 909 1358 L 856 1464 L 1055 1464 L 1106 1349 Q 1168 1213 1204.5 1051 Q 1241 889 1241 723 Q 1241 403 1085.5 191.5 Q 930 -20 688 -20 Q 424 -20 263 204 Q 102 428 102 815 Q 198 719 292 662.5 Q 386 606 453 606 Q 578 606 622 691.5 Q 666 777 666 954 Q 666 1128 610 1229.5 Q 554 1331 457 1331 Q 373 1331 315.5 1256.5 Q 258 1182 258 1069 L 100 1069 Q 111 1250 207.5 1367.5 Q 304 1485 457 1485 Q 635 1485 733 1335 Q 831 1185 831 954 Q 831 717 751.5 585 Q 672 453 539 453 Q 416 453 303 526 Z"/>
        </g>
        <g transform="matrix(1 0 0 1 24989 1100)">
            <path fill="#000000" stroke="none" d="M 246 1464 L 401 1464 L 401 592 L 1020 1464 L 1153 1368 L 352 240 Q 402 190 469.5 161.5 Q 537 133 610 133 Q 696 133 785 187 Q 874 241 946 332 L 961 352 L 1075 242 L 1044 205 Q 955 98 842.5 39 Q 730 -20 610 -20 Q 485 -20 367.5 38 Q 250 96 143 227 L 246 373 L 246 1464 Z"/>
        </g>
        <g transform="matrix(1 0 0 1 26191 1100)">
            <path fill="#000000" stroke="none" d="M 1040 311 Q 964 159 849 69.5 Q 734 -20 600 -20 Q 474 -20 368.5 43 Q 263 106 160 279 L 272 444 L 272 1235 L 143 1325 Q 232 1405 344 1445 Q 456 1485 584 1485 Q 746 1485 886.5 1403 Q 1027 1321 1114 1176 L 1036 981 L 1029 998 Q 1019 1031 995.50006 1074 Q 972 1117 942 1153 L 360 281 Q 400 215 466.5 174 Q 533 133 600 133 Q 672 133 738 180.50002 Q 804 228 846 311 L 1040 311 Z M 817 1262 Q 700 1331 584 1331 Q 508 1331 428 1311 L 428 676 L 817 1262 Z"/>
        </g>
        <g transform="matrix(1 0 0 1 27354 1100)">
            <path fill="#000000" stroke="none" d="M 647 1286 Q 494 1222 387.5 1071 Q 281 920 281 727 Q 281 610 324.5 499 Q 368 388 440.50003 307 Q 513 226 555 205 L 475 53 Q 409 86 312 193 Q 215 300 157.5 439 Q 100 578 100 727 Q 100 996 267 1198.5 Q 434 1401 647 1462 L 823 1462 L 823 178 Q 977 241 1083.5 394 Q 1190 547 1190 735 Q 1190 848 1150 955 Q 1110 1062 1036.5 1147.5 Q 963 1233 915 1257 L 995 1409 Q 1066 1374 1164.5 1262.5 Q 1263 1151 1316.5 1014.5 Q 1370 878 1370 735 Q 1370 560 1296.5 408 Q 1223 256 1090.5 147.5 Q 958 39 823 0 L 647 0 L 647 1286 Z"/>
        </g>
        <g transform="matrix(1 0 0 1 28824 1100)">
            <path fill="#000000" stroke="none" d="M 1190 629 Q 958 629 766.49994 701 Q 575 773 464.5 902 Q 354 1031 354 1184 Q 354 1310 438.49997 1397.5 Q 523 1485 680 1485 Q 871 1485 1027.5 1375 Q 1184 1265 1277 1068.5 Q 1370 872 1370 649 Q 1370 598 1363.5 550 Q 1357 502 1342.5 453 Q 1328 404 1309 360 Q 1290 316 1263 270.5 Q 1236 225 1208 189.5 Q 1180 154 1139.5 109 Q 1099 64 1064 36 L 997 -20 L 709 266 L 420 -20 L 387 5 Q 265 91 182.5 243 Q 100 395 100 586 Q 100 804 207 1004 L 371 928 Q 283 764 283 586 Q 283 354 418 207 L 709 504 L 999 207 Q 1086 280 1138 393 Q 1190 506 1190 629 Z M 1184 776 Q 1184 876 1112.5 1016.5 Q 1041 1157 930.50006 1244 Q 820 1331 702 1331 Q 624 1331 578 1288 Q 532 1245 532 1171 Q 532 996 734.49994 886 Q 937 776 1184 776 Z"/>
        </g>
        <g transform="matrix(1 0 0 1 30294 1100)">
            <path fill="#000000" stroke="none" d="M 340 1464 L 340 987 L 586 1212 Q 811 1138 957.49994 970 Q 1104 802 1104 596 Q 1104 390 957.49994 222 Q 811 54 586 -20 L 164 360 L 164 1464 L 340 1464 Z M 586 1038 L 340 813 L 340 393 L 598 162 Q 742 211 832 324 Q 922 437 922 596 Q 922 754 829.49994 868.5 Q 737 983 586 1038 Z"/>
        </g>
        <g transform="matrix(1 0 0 1 31480 1100)">
            <path fill="#000000" stroke="none" d="M 1038 938 Q 1024 1097 900 1214 Q 776 1331 653 1331 Q 493 1331 387 1161.5 Q 281 992 281 741 Q 281 578 323.5 408.50003 Q 366 239 433 106 L 485 0 L 287 0 L 237 116 Q 100 412 100 741 Q 100 1061 255 1273 Q 410 1485 653 1485 Q 918 1485 1078.5 1260 Q 1239 1035 1239 649 Q 1140 748 1047 803 Q 954 858 889 858 Q 764 858 720 772.5 Q 676 687 676 510 Q 676 337 732 235 Q 788 133 885 133 Q 966 133 1024.5 207 Q 1083 281 1083 395 L 1241 395 Q 1232 216 1134.5 98 Q 1037 -20 885 -20 Q 705 -20 607.5 130 Q 510 280 510 510 Q 510 743 588.5 877.5 Q 667 1012 803 1012 Q 924 1012 1038 938 Z"/>
        </g>
        <g transform="matrix(1 0 0 1 33353 1100)">
            <path fill="#000000" stroke="none" d="M 367 1449.5 Q 401 1414 401 1348 Q 401 1283 367 1245.5 Q 333 1208 272 1208 Q 212 1208 179.49998 1245.5 Q 147 1283 147 1348 Q 147 1414 179.49998 1449.5 Q 212 1485 272 1485 Q 333 1485 367 1449.5 Z"/>
        </g>
        <g transform="matrix(1 0 0 1 33902 1100)">
            <path fill="#000000" stroke="none" d="M 506 1237 Q 382 1100 332.5 971 Q 283 842 283 705 Q 283 582 323.5 461.5 Q 364 341 435.5 242 Q 507 143 547 115 L 432 -20 Q 270 126 185 314 Q 100 502 100 705 Q 100 747 104 787.5 Q 108 828 114 860 Q 120 892 135 941.5 Q 150 991 168.5 1036 Q 187 1081 211.49998 1127.5 Q 236 1174 265.5 1217.5 Q 295 1261 341 1320 Q 387 1379 433 1421 L 500 1485 L 780 1135 L 1061 1485 L 1128 1421 Q 1174 1378 1217.5 1322.5 Q 1261 1267 1292 1221.5 Q 1323 1176 1348 1128.5 Q 1373 1081 1391.5 1036 Q 1410 991 1425 941.5 Q 1440 892 1446 860 Q 1452 828 1456 787.5 Q 1460 747 1460 705 Q 1460 501 1375 313 Q 1290 125 1128 -20 L 1014 115 Q 1054 143 1125.5 242 Q 1197 341 1237.5 461.5 Q 1278 582 1278 705 Q 1278 838 1230 967.5 Q 1182 1097 1055 1237 L 780 889 L 506 1237 Z"/>
        </g>
        <g transform="matrix(1 0 0 1 35463 1100)">
            <path fill="#000000" stroke="none" d="M 367 212.50002 Q 401 177 401 111 Q 401 46 367 8.5 Q 333 -29 272 -29 Q 212 -29 179.49998 8.5 Q 147 46 147 111 Q 147 177 179.49998 212.50002 Q 212 248 272 248 Q 333 248 367 212.50002 Z M 368 1090 Q 401 1054 401 987 Q 401 923 367 885.5 Q 333 848 272 848 Q 213 848 180 885 Q 147 922 147 987 Q 147 1053 178.5 1089.5 Q 210 1126 272 1126 Q 335 1126 368 1090 Z"/>
        </g>
        <g transform="matrix(1 0 0 1 36012 1100)">
            <path fill="#000000" stroke="none" d="M 123 1153 Q 201 1309 316 1397 Q 431 1485 563 1485 Q 702 1485 806 1414 Q 910 1343 973 1236 L 1004 1186 L 891 1020 L 891 229 L 1020 139 L 979 105 Q 920 57 815 18.5 Q 710 -20 580 -20 Q 418 -20 276 62.5 Q 134 145 49 289 L 127 483 L 134 466 Q 164 379 221 311 L 803 1184 Q 761 1251 695.5 1291 Q 630 1331 563 1331 Q 491 1331 424.50003 1283 Q 358 1235 317 1153 L 123 1153 Z M 346 203 Q 395 171 456.50003 152 Q 518 133 580 133 Q 648 133 688 143 L 735 154 L 735 788 L 346 203 Z"/>
        </g>
        <g transform="matrix(1 0 0 1 37175 1100)">
            <path fill="#000000" stroke="none" d="M 969 0 L 813 0 L 813 872 L 195 0 L 61 96 L 862 1225 Q 811 1276 742 1303.5 Q 673 1331 604 1331 Q 511 1331 419.5 1270 Q 328 1209 269 1132 L 254 1112 L 139 1223 Q 279 1388 392 1436.5 Q 505 1485 604 1485 Q 730 1485 847 1427 Q 964 1369 1071 1237 L 969 1092 L 969 0 Z"/>
        </g>
        <g transform="matrix(1 0 0 1 38324 1100)">
            <path fill="#000000" stroke="none" d="M 1049 1106 L 1049 584 L 1127 503 L 1296 330 Q 1190 167 1024.5 73.5 Q 859 -20 670 -20 Q 481 -20 315.5 73 Q 150 166 43 330 Q 267 558 291 584 L 291 1106 Q 291 1297 387 1395 Q 483 1493 670 1493 Q 854 1493 951.5 1396.5001 Q 1049 1300 1049 1106 Z M 872 567 L 872 1098 Q 872 1237 819 1288 Q 766 1339 670 1339 Q 572 1339 519.5 1288 Q 467 1237 467 1098 L 467 567 Q 570 498 670 498 Q 719 498 774.5 517 Q 830 536 872 567 Z M 1098 313 L 969 442 Q 909 395 828.49994 367.5 Q 748 340 670 340 Q 592 340 509.5 368.5 Q 427 397 371 442 L 242 313 Q 295 252 416.5 184.5 Q 538 117 670 117 Q 794 117 915 180 Q 1036 243 1098 313 Z"/>
        </g>
    </g>
</svg>
