<svg width="60805" height="3384" viewBox="0 0 60805 3384" xmlns="http://www.w3.org/2000/svg">
    <defs/>
    <g transform="matrix(1 0 0 -1 0 3384)">
        <g transform="matrix(1 0 0 1 0 983)">
            <path fill="#000000" stroke="none" d="M 1773 866 Q 1773 815 1740 778 Q 1707 741 1657 734 Q 1636 652 1596 578 Q 1641 567 1670 531 Q 1699 495 1699 447 Q 1699 391 1659.5 351.5 Q 1620 312 1564 312 Q 1523 312 1490.5 334 Q 1458 356 1442 391 Q 1366 328 1276 291 Q 1318 279 1345 243.49998 Q 1372 208 1372 162 Q 1372 106 1333 67 Q 1294 28 1238 28 Q 1219 28 1206 32 L 1206 -22 Q 1206 -35 1196.5 -43 Q 1187 -51 1176 -51 L 873 -51 Q 862 -51 853 -43.5 Q 844 -36 844 -22 L 844 40 L 824 38 Q 768 38 728.5 77.5 Q 689 117 689 173 Q 689 213 710.5 245.5 Q 732 278 766 294 Q 679 331 608 392 Q 591 357 558.5 334.5 Q 526 312 485 312 Q 429 312 389.5 351.5 Q 350 391 350 447 Q 350 495 379 531 Q 408 567 453 578 Q 413 652 392 734 Q 344 740 310 778 Q 276 816 276 867 Q 276 915 306 951 Q 336 987 381 998 L 382 1006 Q 407 1152 495 1275 Q 512 1334 567 1357 Q 743 1533 992 1545 Q 1008 1549 1025 1549 L 1058 1545 Q 1182 1539 1291 1489.5001 Q 1400 1440 1483 1357 Q 1537 1332 1554 1275 Q 1639 1155 1667 1007 L 1668 998 Q 1713 987 1743 951 Q 1773 915 1773 866 Z M 1547 1178 Q 1530 1144 1498 1122.5 Q 1466 1101 1425 1101 Q 1384 1101 1351.5 1123 Q 1319 1145 1303 1180 L 1233 1096 Q 1284 1043 1304 972 L 1604 1025 Q 1586 1106 1547 1178 Z M 967 821 L 963 824 L 839 753 Q 872 710 918 686 L 967 821 Z M 849 325 L 890 315 L 935 562 L 849 325 Z M 1025 602 L 1001 603 L 985 517 L 1064 517 L 1048 603 L 1025 602 Z M 1012 661 L 1025 660 L 1037 661 L 1025 731 L 1012 661 Z M 1151 1089 Q 1107 1118 1053 1124 L 1053 981 L 1059 979 L 1151 1089 Z M 1103 942 L 1106 937 L 1247 962 Q 1232 1012 1195 1051 L 1103 942 Z M 996 1124 Q 942 1118 898 1089 L 990 979 L 996 981 L 996 1124 Z M 854 1051 Q 817 1012 802 962 L 943 937 L 946 942 L 854 1051 Z M 792 905 L 791 893 Q 791 847 810 803 L 934 875 L 934 880 L 792 905 Z M 947 304 L 1025 299 Q 1055 299 1102 304 L 1074 458 L 975 458 L 947 304 Z M 1131 686 Q 1177 710 1210 753 L 1086 824 L 1082 821 L 1131 686 Z M 1239 803 Q 1258 853 1258 893 L 1257 905 L 1116 880 L 1115 875 L 1239 803 Z M 1502 1259 Q 1502 1284 1476.5 1299.5 Q 1451 1315 1423 1315 Q 1396 1315 1374 1297.5 Q 1352 1280 1352 1259 Q 1352 1245 1367 1239 Q 1382 1233 1429 1233 Q 1502 1233 1502 1259 Z M 1144 1476 Q 1159 1446 1159 1415 Q 1159 1366 1129 1330 Q 1099 1294 1053 1283 L 1053 1183 Q 1127 1175 1189 1134 L 1293 1258 Q 1299 1295 1322.5 1322.5 Q 1346 1350 1381 1363 L 1384 1366 Q 1274 1449 1144 1476 Z M 1022 1494 Q 997 1494 974.5 1478 Q 952 1462 952 1438 Q 952 1422 968 1417 Q 984 1412 1030 1412 Q 1102 1412 1102 1437 Q 1102 1458 1079.5 1476 Q 1057 1494 1022 1494 Z M 905 1475 Q 771 1447 666 1366 L 668 1363 Q 703 1351 726.5 1323 Q 750 1295 757 1258 L 860 1134 Q 922 1175 996 1183 L 996 1283 Q 950 1294 920 1330 Q 890 1366 890 1415 Q 890 1445 905 1475 Z M 622 1315 Q 596 1315 573.5 1299 Q 551 1283 551 1259 Q 551 1243 568 1238.5 Q 585 1234 629 1234 Q 701 1234 701 1258 Q 701 1282 676 1298.5 Q 651 1315 622 1315 Z M 503 1178 Q 463 1105 445 1025 L 745 972 Q 765 1043 816 1096 L 746 1180 Q 730 1145 697.5 1123 Q 665 1101 624 1101 Q 583 1101 551.5 1122.5 Q 520 1144 503 1178 Z M 414 864 Q 488 864 488 890 L 487 896 Q 478 922 454.49997 934 Q 431 946 408 946 Q 380 946 359 928.50006 Q 338 911 338 890 Q 338 877 351 872 Q 364 867 373 867 Q 386 864 414 864 Z M 451 739 Q 467 677 496 622 L 760 774 Q 733 830 733 893 L 734 915 L 512 954 Q 546 916 546 867 Q 546 822 519.5 787 Q 493 752 451 739 Z M 562 470 Q 562 492 536 509 Q 510 526 485 526 Q 456 526 434 509.5 Q 412 493 412 470 Q 412 454 429 449 Q 446 444 491 444 Q 562 444 562 470 Z M 794 345 L 898 631 Q 833 662 788 724 L 529 574 Q 565 561 589.5 530.5 Q 614 500 618 460 Q 696 387 794 345 Z M 901 195 Q 901 213 881 232.5 Q 861 252 823 252 Q 798 252 774.5 234.5 Q 751 217 751 196 Q 751 179 768.50006 174.5 Q 786 170 831 170 Q 901 170 901 195 Z M 1126 88 Q 1103 120 1103 162 Q 1103 194 1117 222 L 1112 247 Q 1070 241 1025 241 Q 979 241 937 247 Q 959 212 959 173 Q 959 126 928 88 L 1126 88 Z M 1159 315 L 1200 325 L 1114 561 L 1159 315 Z M 1315 185 Q 1315 207 1290 224.5 Q 1265 242 1235 242 Q 1209 242 1187 224.5 Q 1165 207 1165 186 Q 1165 171 1183.5 165.5 Q 1202 160 1243 160 Q 1315 160 1315 185 Z M 1520 574 L 1261 724 Q 1216 662 1151 631 L 1255 345 Q 1353 387 1431 460 Q 1435 500 1459.5 530.5 Q 1484 561 1520 574 Z M 1642 469 Q 1642 491 1617 508.5 Q 1592 526 1563 526 Q 1535 526 1513 508.5 Q 1491 491 1491 470 Q 1491 453 1514.4999 448.5 Q 1538 444 1570 444 Q 1642 444 1642 469 Z M 1553 622 Q 1581 677 1598 739 Q 1556 752 1530 786.5 Q 1504 821 1504 866 Q 1504 916 1536 954 L 1315 915 L 1316 893 Q 1316 830 1289 774 L 1553 622 Z M 1631 864 L 1646 864 Q 1716 864 1716 890 Q 1716 910 1692.5 928 Q 1669 946 1638 946 Q 1611 946 1588.5001 929.50006 Q 1566 913 1566 890 Q 1566 873 1589 868.5 Q 1612 864 1631 864 Z"/>
        </g>
        <g transform="matrix(1 0 0 1 2048 983)">
            <path fill="#000000" stroke="none" d="M 1673 380 Q 1686 360 1699 341.5 Q 1712 323 1723 303.5 Q 1734 284 1741 262 Q 1748 240 1748 215 Q 1748 211 1747.5001 207.5 Q 1747 204 1747 200 Q 1741 135 1708.4999 80.5 Q 1676 26 1627 -14 Q 1578 -54 1517.5 -76.5 Q 1457 -99 1395 -99 Q 1330 -99 1279 -73 Q 1228 -47 1185.5 -7 Q 1143 33 1105.5 79.5 Q 1068 126 1029 168 Q 987 212 950.5 259.5 Q 914 307 877 355 Q 867 367 863.49994 379 Q 860 391 860 406 Q 860 414 860.49994 423 Q 861 432 861 440 Q 861 461 855 478 Q 849 495 839 510 Q 829 525 817 538.5 Q 805 552 793 567 L 697 685 Q 678 708 658 734 Q 638 760 627 786 Q 622 796 620.5 808.5 Q 619 821 617 833 Q 615 845 611.5 857 Q 608 869 601 878 Q 594 887 574.5 912 Q 555 937 531 968.5 Q 507 1000 482 1033.5 Q 457 1067 438 1093 Q 415 1125 393.50003 1157 Q 372 1189 355.5 1223.5 Q 339 1258 329 1296.5 Q 319 1335 319 1379 Q 319 1415 326.5 1452.4999 Q 334 1490 352 1521 Q 370 1552 400 1571.5 Q 430 1591 474 1591 Q 504 1591 534 1584.5001 Q 564 1578 586 1568 Q 647 1541 695.5 1497.5 Q 744 1454 785.5 1403 Q 827 1352 863.49994 1296 Q 900 1240 936 1188 Q 944 1177 951 1166.5 Q 958 1156 966 1145 L 970 1139 Q 979 1129 992.50006 1127 Q 1006 1125 1017 1120 Q 1034 1114 1048 1104.5 Q 1062 1095 1075 1084 Q 1102 1059 1125.5 1031 Q 1149 1003 1170.5 973 Q 1192 943 1212.5 912.5 Q 1233 882 1255 853 Q 1265 840 1273.5 827.5 Q 1282 815 1297 807 Q 1310 801 1323.5 797.49994 Q 1337 794 1350 789 Q 1368 781 1383.5 765.49994 Q 1399 750 1412 735 Q 1448 693 1483 653 Q 1518 613 1550 568 Q 1582 522 1613 473 Q 1644 424 1673 380 Z M 902 560 Q 914 537 935.5 528.5 Q 957 520 981 520 Q 1019 521 1058 536.5 Q 1097 552 1128 575 Q 1143 586 1159.5 599 Q 1176 612 1189.5 627.5 Q 1203 643 1212 661 Q 1221 679 1221 701 Q 1221 730 1203 762 Q 1185 794 1166 822 Q 1148 849 1130 877 Q 1112 905 1094 931 Q 1085 944 1075 960 Q 1065 976 1054.5 990 Q 1044 1004 1033 1014 Q 1022 1024 1011 1024 Q 1003 1024 998.5 1014.5 Q 994 1005 990.49994 991.49994 Q 987 978 983 962.50006 Q 979 947 973 935 Q 957 904 938.5 882 Q 920 860 889 844 Q 863 830 838 820 Q 813 810 779 810 Q 774 810 768.50006 810.5 Q 763 811 758 811 Q 740 811 732 802.50006 Q 724 794 724 787 Q 724 778 731.5 768.50006 Q 739 759 746 751 Q 783 706 819 664 Q 855 622 890 577 Q 894 572 897 568.5 Q 900 565 902 560 Z M 639 1185 Q 658 1185 675.5 1190 Q 693 1195 707 1205 Q 721 1215 729.5 1230.5 Q 738 1246 738 1266 Q 738 1302 716.5 1345 Q 695 1388 661.5 1425 Q 628 1462 585.5 1486.5 Q 543 1511 501 1511 Q 456 1511 431.5 1481 Q 407 1451 407 1405 Q 407 1357 427 1317 Q 447 1277 479.5 1247.5 Q 512 1218 553.5 1201.5 Q 595 1185 639 1185 Z M 1385 -16 Q 1399 -15 1413 -12 Q 1427 -9 1427 1 Q 1427 9 1419 18 L 1170 299 Q 1160 310 1149.5 320.5 Q 1139 331 1126 331 Q 1121 331 1104 328 Q 1087 325 1064 322 Q 1059 321 1053.5 321 Q 1048 321 1043 321 Q 1030 321 1026 320 Q 1018 318 1018 311 Q 1018 303 1032 284.5 Q 1046 266 1065 245.5 Q 1084 225 1101.5 206.5 Q 1119 188 1127 179 Q 1154 147 1181.5 112.5 Q 1209 78 1239.5 49.5 Q 1270 21 1306 2.5 Q 1342 -16 1385 -16 Z M 938 410 Q 943 391 959.49994 385.5 Q 976 380 995 380 Q 1027 380 1069 388 Q 1111 396 1153.5 412.5 Q 1196 429 1235.5 453.5 Q 1275 478 1302 511 Q 1324 537 1340 573 Q 1356 609 1356 645 Q 1356 659 1352 678.5 Q 1348 698 1339 706 Q 1331 713 1318.5 715 Q 1306 717 1301 717 Q 1289 717 1285.5 708 Q 1282 699 1280 682 Q 1275 644 1253 609.5 Q 1231 575 1198.5 546.5 Q 1166 518 1127 497.5 Q 1088 477 1049 466 Q 1029 460 1008 457.50003 Q 987 455 966 452 Q 952 450 944 444 Q 936 438 936 422 Q 936 418 938 410 Z"/>
        </g>
        <g transform="matrix(1 0 0 1 4096 983)">
            <path fill="#000000" stroke="none" d="M 1726 1135 L 1726 817 Q 1726 745 1722 718 Q 1718 691 1695 659 L 1200 -5 Q 1174 -40 1131 -60.5 Q 1088 -81 1043 -81 Q 1000 -81 964 -63 L 415 197 Q 377 215 354.5 248 Q 332 281 332 323 L 332 716 Q 332 760 362 801 L 859 1465 Q 885 1500 927.49994 1520.5001 Q 970 1541 1017 1541 Q 1059 1541 1095 1524 L 1644 1263 Q 1681 1246 1703.5 1213 Q 1726 1180 1726 1135 Z M 418 714 Q 418 680 452 664 L 1001 403 Q 1015 395 1043 395 Q 1069 395 1093 406 Q 1117 417 1131 436 L 1628 1100 Q 1642 1118 1642 1139 Q 1642 1168 1607 1185 L 1059 1446 Q 1039 1455 1017 1455 Q 959 1455 929 1414 L 431 750 Q 418 732 418 714 Z M 1641 972 L 1200 384 Q 1174 349 1134 328.5 Q 1094 308 1046 308 Q 1000 308 964 326 L 418 585 L 418 420 Q 418 388 452 372 L 1001 111 Q 1019 102 1043 102 Q 1069 102 1093 113 Q 1117 124 1131 143 L 1626 807 Q 1640 825 1640 846 L 1641 972 Z M 719 958 L 721 964 L 892 1195 Q 895 1199 900 1199 Q 903 1199 1082 1113 L 1202 1270 Q 1205 1274 1210 1274 L 1215 1273 L 1324 1221 Q 1329 1218 1329 1211 L 1327 1205 L 1210 1052 L 1381 970 Q 1386 967 1386 961 L 1384 955 L 1214 723 Q 1211 719 1205 719 L 1201 720 L 1022 806 L 885 627 L 877 623 L 873 624 L 764 676 Q 757 683 757 686 L 760 692 L 894 867 L 725 948 Q 719 950 719 958 Z M 1158 851 L 1162 854 L 1219 930 L 1220 934 L 1217 939 L 1149 971 L 1084 886 L 1158 851 Z M 955 948 L 1020 1033 L 948 1067 L 943 1064 L 887 989 L 885 984 Q 885 981 890 979 L 955 948 Z"/>
        </g>
        <g transform="matrix(1 0 0 1 6144 983)">
            <path fill="#000000" stroke="none" d="M 1663 1459 Q 1700 1459 1726.5 1433 Q 1753 1407 1753 1369 L 1753 91 Q 1753 53 1726.5 26.499998 Q 1700 0 1663 0 L 385 0 Q 347 0 320.5 26.499998 Q 294 53 294 91 L 294 1369 Q 294 1407 320.5 1433 Q 347 1459 385 1459 L 1663 1459 Z M 1695 1369 Q 1695 1383 1685.5001 1392.5001 Q 1676 1402 1663 1402 L 385 1402 Q 371 1402 361 1392.5001 Q 351 1383 351 1369 L 351 91 Q 351 77 361 67.5 Q 371 58 385 58 L 1663 58 Q 1676 58 1685.5001 67.5 Q 1695 77 1695 91 L 1695 1369 Z M 772 685 Q 767 685 763.5 689 Q 760 693 760 697 L 760 809 Q 760 821 772 821 L 1312 821 Q 1325 821 1325 809 L 1325 697 Q 1325 693 1321 689 Q 1317 685 1312 685 L 772 685 Z M 1429 621 Q 1441 621 1441 608 L 1441 255 Q 1441 243 1429 243 L 656 243 Q 643 243 643 255 L 643 608 Q 643 613 647 617 Q 651 621 656 621 L 1429 621 Z M 1276 484 L 809 484 L 804 482 L 802 478 L 802 385 L 804 381 L 809 379 L 1276 379 L 1280 381 L 1282 385 L 1282 478 L 1280 482 L 1276 484 Z M 1607 881 L 1524 745 Q 1521 739 1513 739 Q 1501 739 1417.4999 782.5 Q 1334 826 1236 889 Q 1138 952 1042 1029 Q 950 955 866 900.5 Q 782 846 717.5 810 Q 653 774 613.5 756.5 Q 574 739 571 739 Q 564 739 561 745 L 480 876 L 477 885 Q 477 891 518 909 L 531 915 Q 820 1064 1034 1253 L 1041 1256 L 1048 1254 Q 1164 1151 1301.5 1060.5 Q 1439 970 1545 919 Q 1604 891 1605.5 887.5 Q 1607 884 1607 881 Z"/>
        </g>
        <g transform="matrix(1 0 0 1 8192 983)">
            <path fill="#000000" stroke="none" d="M 526 107 Q 365 150 283 250 L 281 269 Q 281 829 480 1121 Q 679 1413 1066 1413 Q 1238 1413 1365 1349.5 Q 1492 1286 1576 1168 Q 1660 1050 1708 860 Q 1756 670 1759 371 Q 1670 341 1566 299 Q 1571 324 1578 341 L 1620 428 Q 1666 517 1686.5 581 Q 1707 645 1707 706 Q 1707 779 1673.4999 822.5 Q 1640 866 1582 866 Q 1538 866 1504.5 836 Q 1471 806 1461 756 Q 1451 705 1422 662.5 Q 1393 620 1357 578 Q 1299 508 1278 453.5 Q 1257 399 1257 324 L 1262 169 Q 1163 131 1049.5 102.50001 Q 936 74 805 74 L 795 75 L 795 106 L 802 324 Q 802 452 739 533 L 696 587 Q 611 686 598 756 Q 587 808 553.5 837 Q 520 866 477 866 Q 418 866 384.5 820.5 Q 351 775 351 695 Q 351 606 384.5 507.5 Q 418 409 467 356 Q 513 306 518.5 287.5 Q 524 269 526 250 Q 528 231 528 205 L 528 175 L 526 107 Z M 741 76 Q 650 80 580 94 L 580 153 L 582 207 Q 582 249 576 277.5 Q 570 306 559 326.5 Q 548 347 512 388 Q 463 440 434 527 Q 405 614 405 691 Q 405 812 477 812 Q 497 812 517.5 797.49994 Q 538 783 546 746 Q 558 685 590.5 637 Q 623 589 661 544 Q 714 478 731 434.5 Q 748 391 748 328 Q 748 293 741 76 Z M 1314 191 L 1311 327 Q 1311 434 1362 500 L 1407 555 Q 1495 660 1513 746 Q 1521 783 1541.5 797.49994 Q 1562 812 1582 812 Q 1613 812 1633.5 787 Q 1654 762 1654 706 Q 1654 658 1638.5 605.5 Q 1623 553 1570 447 Q 1548 402 1529.5 361 Q 1511 320 1511 276 Q 1467 261 1418 237 Q 1369 213 1314 191 Z M 874 525 Q 874 452 907 409.50003 Q 940 367 999 367 Q 1039 367 1074 385 Q 1109 403 1126.5 430 Q 1144 457 1144 516 Q 1144 582 1126 649 Q 1108 716 1076.5 755.5 Q 1045 795 1007 795 Q 963 795 935.5 762 Q 908 729 891 648.5 Q 874 568 874 525 Z M 671 1012 Q 663 1012 655.5 1005.5 Q 648 999 648 988 Q 648 972 664 967 Q 665 967 680 963.50006 Q 695 960 721 960 L 737 960 L 754 962 L 753 946 Q 753 907 774 880 Q 795 853 822 853 Q 849 853 870 880.5 Q 891 908 891 946 Q 891 983 872 1010 Q 891 1028 905 1051.5 Q 919 1075 919 1083 L 919 1087 Q 919 1096 913 1104 Q 907 1112 896 1112 Q 877 1112 866 1075 L 710 1007 L 671 1012 Z M 1144 1112 Q 1136 1112 1128.5 1105 Q 1121 1098 1121 1089 L 1122 1083 Q 1122 1075 1135 1051.5 Q 1148 1028 1168 1010 Q 1150 984 1150 946 Q 1150 908 1170 880.5 Q 1190 853 1218 853 Q 1245 853 1266 880.5 Q 1287 908 1287 946 L 1286 962 L 1303 960 L 1319 960 Q 1345 960 1360 963.50006 Q 1375 967 1377 967 Q 1393 971 1393 990 Q 1393 1000 1385.5 1006 Q 1378 1012 1370 1012 L 1330 1007 L 1175 1075 Q 1169 1087 1164.5 1099.5 Q 1160 1112 1144 1112 Z"/>
        </g>
        <g transform="matrix(1 0 0 1 10240 983)">
            <path fill="#000000" stroke="none" d="M 1840 609 Q 1840 592 1827.5 579.5 Q 1815 567 1798 567 Q 1778 567 1766 582 Q 1701 663 1599 682 Q 1599 514 1521.5 384 Q 1444 254 1319.5 191.5 Q 1195 129 1045 129 Q 936 129 832 161 L 832 149 Q 832 70 881 -15 Q 886 -27 886 -36 Q 886 -53 874.5 -65 Q 863 -77 844 -77 Q 819 -77 808 -56 Q 749 47 749 149 L 752 193 Q 623 256 527 375 Q 504 321 504 252 L 507 201 Q 507 184 497 172.50002 Q 487 161 470 159 L 465 159 Q 443 159 432 179.49998 Q 421 200 421 252 Q 421 373 478 458 Q 420 579 420 697 Q 420 774 436 858 L 352 887 Q 330 895 325 922 L 309 1088 L 309 1092 Q 309 1109 321 1121 Q 333 1133 350 1133 Q 366 1133 378 1123 Q 390 1113 392 1096 L 405 957 L 464 936 L 474 950 L 471 979 Q 471 1105 585 1201 Q 568 1215 543 1223 Q 504 1235 504 1258 Q 504 1269 513 1277.5 Q 522 1286 534 1286 Q 555 1286 590 1269.5 Q 625 1253 641 1246 L 644 1245 Q 710 1288 784 1312 L 782 1357 Q 782 1441 820 1441 Q 847 1441 847 1400 L 846 1367 L 850 1330 Q 893 1339 935 1339 Q 1042 1339 1112 1284 L 1129 1349 L 1020 1438 Q 1005 1450 1005 1470 Q 1005 1488 1017 1500 Q 1029 1512 1046 1512 Q 1061 1512 1073 1503 L 1203 1397 Q 1219 1384 1219 1365 L 1192 1263 Q 1263 1246 1340 1200 Q 1417 1154 1486 1050 Q 1506 1054 1533 1054 Q 1632 1054 1736 997 Q 1757 986 1757 959 Q 1757 940 1744 929 Q 1731 918 1716 918 Q 1706 918 1696 923 Q 1612 970 1532 970 L 1543 949 Q 1582 864 1594 767 Q 1737 747 1830 636 Q 1840 625 1840 609 Z M 1008 214 L 1027 213 L 1045 213 Q 1167 213 1268 259 L 1090 579 Q 1055 568 1023 568 Q 951 568 906 608.5 Q 861 649 861 714 Q 861 793 934 847 Q 922 868 900 903.5 Q 878 939 863 978 Q 659 900 558 900 L 541 900 Q 538 899 536 896.50006 Q 534 894 520.5 848.5 Q 507 803 507 777 L 508 762 Q 567 814 632 814 Q 678 814 710 780 Q 742 746 742 692 Q 742 623 689.5 567 Q 637 511 572 511 L 544 514 Q 606 371 749 289 Q 755 348 810.5 395.5 Q 866 443 932 443 Q 979 443 1011 409 Q 1043 375 1043 319 Q 1043 261 1008 214 Z M 1317 286 Q 1374 323 1423.4999 389 Q 1473 455 1492 520 L 1482 519 L 1472 519 Q 1417 519 1375 551.5 Q 1333 584 1333 632 Q 1333 685 1387.5 733.49994 Q 1442 782 1500 782 L 1508 782 Q 1491 876 1438 969 L 1418 1001 Q 1395 961 1351 936.5 Q 1307 912 1260 912 Q 1204 912 1169 945.5 Q 1134 979 1134 1027 Q 1134 1072 1161.5 1112 Q 1189 1152 1230 1163 Q 1182 1186 1147 1186 L 1143 1186 L 1139 1182 L 1135 1176 Q 1074 1079 903 996 L 910 987 Q 918 977 981 872 Q 1009 884 1039 884 Q 1104 884 1156 837 Q 1208 790 1208 727 Q 1208 689 1187.5 656.5 Q 1167 624 1140 604 L 1240 433 L 1317 286 Z M 872 1229 Q 872 1205 892 1184 Q 912 1163 939 1163 Q 962 1163 974 1177 Q 986 1191 986 1209 Q 986 1234 966 1254.5 Q 946 1275 918 1275 Q 896 1275 884 1261 Q 872 1247 872 1229 Z M 585 1077 Q 585 1047 604 1028.5 Q 623 1010 643 1010 Q 664 1010 676.5 1027.5 Q 689 1045 689 1066 Q 689 1096 670.5 1114.5 Q 652 1133 632 1133 Q 610 1133 597.5 1117 Q 585 1101 585 1077 Z"/>
        </g>
        <g transform="matrix(1 0 0 1 12820 983)">
            <path fill="#000000" stroke="none" d="M 1611 98 Q 1611 85 1602.5 77 Q 1594 69 1583 69 L 1270 69 Q 1254 69 1245 83 L 851 713 L 851 98 Q 851 86 842.5 77.5 Q 834 69 822 69 L 542 69 Q 530 69 522 77.5 Q 514 86 514 98 L 514 1390 Q 514 1402 522 1410 Q 530 1418 542 1418 L 822 1418 Q 834 1418 842.5 1410 Q 851 1402 851 1390 L 851 885 L 1197 1406 Q 1204 1418 1220 1418 L 1533 1418 Q 1544 1418 1552.5 1410.5 Q 1561 1403 1561 1390 Q 1561 1380 1556 1374 L 1177 800 L 1607 113 Q 1611 108 1611 98 Z"/>
        </g>
        <g transform="matrix(1 0 0 1 14868 983)">
            <path fill="#000000" stroke="none" d="M 1663 1459 Q 1700 1459 1726.5 1433 Q 1753 1407 1753 1369 L 1753 91 Q 1753 53 1726.5 26.499998 Q 1700 0 1663 0 L 384 0 Q 347 0 320.5 26.499998 Q 294 53 294 91 L 294 1369 Q 294 1407 320.5 1433 Q 347 1459 384 1459 L 1663 1459 Z M 1696 1369 Q 1696 1383 1686.5 1392.5001 Q 1677 1402 1663 1402 L 384 1402 Q 370 1402 361 1392.5001 Q 352 1383 352 1369 L 352 91 Q 352 77 361 67 Q 370 57 384 57 L 1663 57 Q 1677 57 1686.5 67 Q 1696 77 1696 91 L 1696 1369 Z M 1508 865 Q 1526 865 1526 847 L 1526 748 Q 1526 730 1508 730 L 1399 730 L 1399 616 L 1475 616 Q 1493 616 1493 599 L 1493 500 Q 1493 493 1488 487.49997 Q 1483 482 1475 482 L 613 482 Q 594 482 594 500 L 594 599 Q 594 605 599.5 610.5 Q 605 616 613 616 L 689 616 L 689 730 L 579 730 Q 571 730 566 735.49994 Q 561 741 561 748 L 561 847 Q 561 854 566 859.5 Q 571 865 579 865 L 689 865 L 689 995 L 655 913 Q 650 901 637 901 L 517 951 Q 506 956 506 967 L 620 1242 Q 625 1253 638 1253 L 644 1252 L 758 1204 Q 768 1199 768 1187 Q 768 1182 747 1132 L 1475 1132 Q 1493 1132 1493 1114 L 1493 1015 Q 1493 1007 1487.4999 1002 Q 1482 997 1475 997 L 1399 997 L 1399 865 L 1508 865 Z M 791 391 L 790 385 L 726 233 Q 721 221 709 221 L 610 262 Q 599 266 599 279 L 600 286 L 664 438 Q 669 449 682 449 L 688 448 L 781 409 Q 791 404 791 391 Z M 1497 275 Q 1497 264 1485 257 L 1390 226 L 1384 225 Q 1369 225 1367 237 L 1315 394 L 1314 399 Q 1314 413 1326 416 L 1422 448 L 1427 449 Q 1439 449 1444 437 L 1496 280 L 1497 275 Z M 1023 267 L 1023 263 Q 1023 249 1009 245 L 912 222 L 908 221 Q 893 221 891 236 L 852 396 L 851 399 Q 851 413 865 417 L 962 441 L 966 441 Q 980 441 984 428 L 1023 267 Z M 1258 267 Q 1258 253 1244 251 L 1148 225 L 1142 224 Q 1128 224 1126 237 L 1083 396 L 1082 401 Q 1082 412 1095 419 L 1192 444 L 1197 445 Q 1210 445 1214 432 L 1257 273 L 1258 267 Z M 1071 997 L 1013 997 L 1013 865 L 1071 865 L 1071 997 Z M 1262 997 L 1207 997 L 1207 865 L 1262 865 L 1262 997 Z M 825 865 L 876 865 L 876 997 L 825 997 L 825 865 Z M 1013 616 L 1071 616 L 1071 730 L 1013 730 L 1013 616 Z M 1262 730 L 1207 730 L 1207 616 L 1262 616 L 1262 730 Z M 825 616 L 876 616 L 876 730 L 825 730 L 825 616 Z"/>
        </g>
        <g transform="matrix(1 0 0 1 16916 983)">
            <path fill="#000000" stroke="none" d="M 1773 734 Q 1773 572 1724 412.5 Q 1675 253 1607 174.5 Q 1539 96 1434 55 Q 1329 14 1194 14 Q 1070 14 964.5 44 Q 859 74 775.5 139.5 Q 692 205 645.5 298 Q 599 391 597 520 L 497 516 Q 349 516 265 565 Q 181 614 181 705 Q 181 772 233 820 Q 285 868 360 868 Q 397 868 439 860 Q 481 852 574 829 L 644 814 Q 677 930 747.5 1046.5 Q 818 1163 908 1237 L 910 1430 Q 910 1454 934 1461 Q 1154 1521 1158 1521 Q 1168 1521 1179 1514 L 1341 1384 Q 1350 1376 1352 1364 L 1361 1308 Q 1480 1264 1575 1196 Q 1670 1128 1721.5 1008 Q 1773 888 1773 734 Z M 1480 360 Q 1480 393 1439 414 L 1419 425 L 1391 445 Q 1342 486 1254 529 Q 1247 538 1243 570 Q 1229 649 1182 649 Q 1203 620 1203 581 Q 1203 527 1144 527 Q 1099 527 1079 549 Q 1059 570 1045.5 577.5 Q 1032 585 1016 585 Q 1001 577 981 572.5 Q 961 568 853 548.5 Q 745 529 671 524 Q 646 505 646 478 Q 646 464 653.5 456 Q 661 448 670.5 443.5 Q 680 439 687.5 435.5 Q 695 432 695 427 Q 695 419 688 402 Q 681 385 681 368 Q 681 356 689 347 Q 697 338 712 338 Q 747 338 814 405 Q 845 438 887.5 459.5 Q 930 481 975 481 Q 1063 481 1166 353 Q 1232 270 1268.5 238.5 Q 1305 207 1327 207 Q 1350 207 1354 231 Q 1355 239 1360.5 245 Q 1366 251 1396 259 Q 1425 267 1434 286 L 1438 313 Q 1443 321 1450 323 Q 1469 329 1474.5 337.5 Q 1480 346 1480 360 Z M 1717 754 Q 1717 848 1692.5 931.50006 Q 1668 1015 1629.5 1064.5 Q 1591 1114 1579 1114 Q 1571 1114 1571 1105 Q 1571 1097 1577 1089 Q 1593 1068 1593 1049 Q 1593 1040 1585 1032 Q 1577 1024 1577 1015 Q 1577 1002 1597 979 Q 1617 954 1617 941 Q 1617 931 1600 919 Q 1583 906 1583 897 Q 1583 882 1601 854 Q 1619 826 1619 806 Q 1619 791 1606 783 Q 1593 775 1593 757 Q 1593 728 1618 689 Q 1652 627 1652 582 Q 1652 535 1667 522 Q 1698 556 1706 634 L 1711 673 Q 1717 709 1717 754 Z M 1261 1365 L 1152 1453 L 973 1405 L 973 1282 L 972 1274 L 1169 1220 L 1159 1253 L 1132 1336 L 1127 1353 L 1123 1373 Q 1123 1383 1133 1383 L 1182 1378 Q 1227 1374 1261 1365 Z M 1112 197 Q 1112 216 1093 231 Q 1074 246 1055 246 L 1037 245 Q 1025 245 1001 262 Q 976 279 957 279 Q 942 279 916 267 L 906 265 Q 897 265 887 270.5 Q 877 276 866 276 Q 843 276 843 249 Q 843 235 863 196.50002 Q 883 158 906 133.5 Q 929 109 950 109 Q 968 109 990 118 L 1048 139 Q 1112 161 1112 197 Z M 1207 767 Q 1207 728 1250.5 697.5 Q 1294 667 1339 667 Q 1370 667 1395 679.5 Q 1420 692 1431 710.5 Q 1442 729 1442 767 Q 1442 829 1388 829 L 1354 826 L 1319 821 L 1285 819 Q 1245 819 1226 807 Q 1207 795 1207 767 Z M 1486 974 Q 1486 1003 1467 1016 Q 1448 1029 1428 1029 Q 1406 1029 1336 1005 Q 1266 981 1229.5 956 Q 1193 931 1193 909 Q 1193 885 1245 885 Q 1295 885 1348 897 L 1403 908 Q 1452 915 1469 931.50006 Q 1486 948 1486 974 Z M 754 871 Q 754 844 774 823 Q 794 802 817 791 Q 892 785 917 785 Q 974 804 974 847 Q 974 870 921 898 L 854 941 Q 832 956 813 956 Q 787 956 770.50006 924 Q 754 892 754 871 Z M 919 1126 Q 890 1126 868 1105.5 Q 846 1085 846 1058 Q 846 1041 859.5 1031 Q 873 1021 884.5 1010.5 Q 896 1000 915 985.5 Q 934 971 970.5 948 Q 1007 925 1015 931 Q 1041 931 1041 962 Q 1039 981 1016.5 1023.49994 Q 994 1066 966.5 1096 Q 939 1126 919 1126 Z M 985 1221 L 1010 1175 L 1203 1115 L 1307 1228 L 1298 1294 L 1198 1176 Q 1192 1168 1180 1168 L 1173 1169 L 985 1221 Z"/>
        </g>
        <g transform="matrix(1 0 0 1 18964 983)">
            <path fill="#000000" stroke="none" d="M 1736 806 Q 1736 444 1422 282 Q 1184 160 943 160 Q 743 160 594 240.5 Q 445 321 386 458 Q 362 512 362 699 Q 362 744 373.5 776 Q 385 808 424 825 L 1516 1310 Q 1533 1317 1551 1317 Q 1628 1317 1667 1188 L 1686 1122 Q 1736 955 1736 806 Z M 1335 1010 Q 1294 1010 1294 987 Q 1294 967 1316 950 Q 1338 933 1362 933 Q 1375 933 1388 942.5 Q 1401 952 1401 966 Q 1401 986 1380 998 Q 1359 1010 1335 1010 Z M 1270 772 Q 1303 772 1303 803 Q 1303 827 1280 846.5 Q 1257 866 1233 866 Q 1213 866 1213 841 Q 1213 817 1230.5 794.5 Q 1248 772 1270 772 Z M 1100 724 Q 1100 745 1088 768 Q 1076 791 1063 791 Q 1049 791 1038 772.5 Q 1027 754 1027 731 Q 1027 715 1035.5 698 Q 1044 681 1065 681 Q 1081 681 1090.5 695 Q 1100 709 1100 724 Z M 876 713 Q 899 713 912.5 736.50006 Q 926 760 926 782 Q 926 817 904 817 Q 885 817 865 795.5 Q 845 774 845 749 Q 845 735 853.5 724 Q 862 713 876 713 Z M 582 333 Q 579 348 565 362 Q 551 374 551 389 L 551 412 Q 551 425 544 431 L 530 445 Q 518 460 518 498 Q 518 513 503 533 Q 488 553 488 575 L 488 587 L 489 597 Q 460 633 434 673 L 437 594 Q 437 509 452 486 Q 493 395 582 333 Z M 766 330 L 769 352 Q 695 391 625 452 L 624 441 Q 624 412 647 392 Q 671 371 673 359 L 675 340 L 678 321 Q 681 312 697 298 Q 724 274 736 261 Q 780 249 810 244 L 810 254 L 809 264 Q 806 277 786 295 Q 766 313 766 330 Z M 916 232 Q 1018 232 1094 246 Q 1005 258 870 307 Q 870 292 889 277 Q 916 255 916 237 L 916 232 Z M 1663 804 Q 1663 872 1652.5001 938.5 Q 1642 1005 1616 1103 Q 1590 1201 1576 1223 Q 1562 1245 1551 1245 L 1547 1245 L 1491 1220 Q 1527 1156 1555.5001 1044.5 Q 1584 933 1584 832 Q 1584 722 1538.5 616 Q 1493 510 1400.5 454 Q 1308 398 1174 398 Q 1064 398 949 440 Q 834 482 736 559.5 Q 638 637 579 729 L 536 796 L 450 758 Q 487 685 558 601.5 Q 629 518 708.5 458.5 Q 788 399 866 370 Q 1061 296 1186 296 Q 1309 296 1426 367 Q 1543 438 1603 546.5 Q 1663 655 1663 804 Z"/>
        </g>
        <g transform="matrix(1 0 0 1 21012 983)">
            <path fill="#000000" stroke="none" d="M 1008 0 L 96 0 L 96 156 L 446 537 Q 610 714 662.5 789 Q 715 864 740.5 934 Q 766 1004 766 1085 Q 766 1198 702 1263.5 Q 638 1329 530 1329 Q 435 1329 358.49997 1290.5 Q 282 1252 213 1192 L 111 1311 Q 302 1483 532 1483 Q 726 1483 838 1377.5 Q 950 1272 950 1092 Q 950 1000 917 912 Q 884 824 820.5 733 Q 757 642 600 473 L 319 174 L 319 166 L 1008 166 L 1008 0 Z"/>
        </g>
        <g transform="matrix(1 0 0 1 22140 983)">
            <path fill="#000000" stroke="none" d="M 1384 250 Q 1404 250 1417 231.5 Q 1430 213 1430 194 Q 1430 168 1417 156.5 Q 1404 145 1365 145 Q 1322 145 1282 135 Q 1186 119 1137 74 Q 1079 24 1000 -2.5 Q 921 -29 839 -29 Q 725 -29 633.5 19.5 Q 542 68 467.5 161 Q 393 254 348.5 378 Q 304 502 304 615 L 304 640 Q 304 700 319 700 Q 326 700 332 692 Q 346 674 382.5 659.5 Q 419 645 467 645 Q 519 645 570.5 653 Q 622 661 675 661 Q 816 661 936.5 610 Q 1057 559 1127.5 467.5 Q 1198 376 1205 260 Q 1205 201 1242 201 Q 1334 222 1352 236 L 1372 248 L 1384 250 Z M 1625 782 Q 1612 690 1539 591.5 Q 1466 493 1361 431 Q 1349 424 1337 416 Q 1325 408 1311 408 Q 1289 408 1289 426 Q 1289 435 1301 445 L 1377 511 Q 1465 585 1511 728 Q 1582 755 1625 782 Z M 1787 1131 Q 1787 1002 1703 906.5 Q 1619 811 1449 758 Q 1279 705 1062 705 Q 946 705 848 733 Q 750 761 702 809.5 Q 654 858 654 923 Q 654 977 689 1019.5 Q 724 1062 788.5 1092.5 Q 853 1123 942.5 1140.5 Q 1032 1158 1092 1158 Q 1250 1158 1349.5 1131 Q 1449 1104 1521 1043 Q 1483 1015 1421 991 Q 1295 1079 1090 1079 Q 984 1079 906 1051.5 Q 828 1024 828 973 Q 828 935 893 913 Q 958 891 1062 891 Q 1339 891 1497 972 Q 1655 1053 1655 1201 Q 1655 1266 1618.5 1319.5 Q 1582 1373 1520.5001 1414 Q 1459 1455 1366 1485.4999 Q 1273 1516 1120 1534 Q 1080 1534 1080 1549 Q 1080 1561 1113 1564 Q 1176 1564 1289 1542.5 Q 1402 1521 1497.5 1481.4999 Q 1593 1442 1656.5 1390 Q 1720 1338 1753.5 1272.5 Q 1787 1207 1787 1131 Z"/>
        </g>
        <g transform="matrix(1 0 0 1 24720 983)">
            <path fill="#000000" stroke="none" d="M 1294 1223 L 1297 1144 Q 1297 1095 1244 1067 L 1670 124 Q 1676 110 1676 95 Q 1676 55 1636.5 19 Q 1597 -17 1542 -17 Q 1485 -17 1464 25 L 1001 944 L 998 942 L 989 938 Q 959 923 935 923 Q 915 923 873 942 L 857 945 Q 838 945 822 914 Q 784 839 773 832 Q 767 826 623 754 Q 597 742 578 742 Q 531 742 511 781 L 322 1154 Q 315 1167 315 1183 Q 315 1206 328.5 1227.5 Q 342 1249 367 1261 Q 457 1307 503 1330.5 Q 549 1354 598 1352 L 659 1347 Q 685 1347 718 1359 Q 751 1371 774 1386 L 779 1388 Q 755 1419 755 1445 Q 755 1487 847.5 1530.5 Q 940 1574 993 1574 Q 1016 1574 1031 1566.5 Q 1046 1559 1056 1527 Q 1167 1577 1304 1577 Q 1531 1577 1690 1447 Q 1699 1440 1699 1423 Q 1699 1398 1665.5 1373.5 Q 1632 1349 1581 1349 Q 1545 1349 1510.5 1358.5 Q 1476 1368 1438 1368 Q 1365 1368 1329.5 1334.5 Q 1294 1301 1294 1223 Z"/>
        </g>
        <g transform="matrix(1 0 0 1 26768 983)">
            <path fill="#000000" stroke="none" d="M 1464 523 L 1575 615 Q 1592 629 1612 629 Q 1644 629 1660 602.5 Q 1676 576 1676 497 Q 1676 377 1628 279.5 Q 1580 182 1488 113.49999 Q 1396 45 1268 11.5 Q 1140 -22 1021 -22 Q 842 -22 691 41 Q 540 104 453.5 218.5 Q 367 333 367 476 Q 367 630 439 630 Q 458 630 471 620 L 577 551 Q 562 601 556 652 Q 443 682 361.50003 789.5 Q 280 897 280 1017 Q 280 1106 340 1106 Q 364 1106 387.5 1093 Q 411 1080 431 1068 Q 496 1029 596 1003 L 605 1002 Q 632 1074 663.5 1130 Q 695 1186 756.5 1248 Q 818 1310 881.5 1335 Q 945 1360 1025 1360 Q 1123 1360 1191 1329.5 Q 1259 1299 1326.5 1215.5 Q 1394 1132 1443 1001 Q 1549 1026 1620 1068 Q 1640 1080 1663.5 1093 Q 1687 1106 1711 1106 Q 1770 1106 1770 1017 Q 1770 943 1733 863 Q 1696 783 1633.5 727.5 Q 1571 672 1495 652 Q 1486 575 1464 523 Z M 1234 562 L 1025 443 L 798 562 L 634 443 L 439 572 Q 426 524 426 476 Q 426 378 476 293.5 Q 526 209 614 149.5 Q 702 90 813 63.5 Q 924 37 1021 37 Q 1116 37 1212 58 Q 1308 79 1386 119.5 Q 1464 160 1513.5 211 Q 1563 262 1590 337 Q 1617 412 1617 498 L 1612 570 L 1442 429 L 1234 562 Z M 1210 1008 Q 1210 983 1225.5 966.5 Q 1241 950 1260 950 Q 1278 950 1290 965 Q 1302 980 1302 1000 Q 1302 1026 1286.5 1043 Q 1271 1060 1252 1060 Q 1235 1060 1222.5 1045 Q 1210 1030 1210 1008 Z M 912 891 Q 912 884 917 879 L 970 815 L 982 799 Q 1004 763 1026 761 Q 1040 761 1046 769.50006 Q 1052 778 1059 786 Q 1066 794 1102 835 Q 1138 876 1138 892 Q 1138 910 1085 971 L 1063 998 Q 1055 1007 1046.5 1021 Q 1038 1035 1025 1035 Q 1016 1035 987 998 L 927 921 Q 918 912 915 903 L 912 891 Z M 752 1001 Q 752 981 763.5 965.5 Q 775 950 795 950 Q 814 950 829.49994 966.5 Q 845 983 845 1008 Q 845 1028 833.50006 1044 Q 822 1060 802 1060 Q 782 1060 767 1042 Q 752 1024 752 1001 Z M 962 892 L 963 900 L 971 909 Q 1012 961 1024 961 Q 1032 961 1037 955 L 1058 934 Q 1089 905 1089 895 Q 1089 890 1076.5 878.5 Q 1064 867 1056 859 Q 1053 854 1043.5 844.5 Q 1034 835 1028 835 Q 1015 835 1009 843 Q 985 872 962 892 Z M 1509 1194 Q 1486 1194 1469.5 1211 Q 1453 1228 1453 1251 Q 1453 1265 1459 1277 L 1535 1423 Q 1551 1453 1585 1453 Q 1600 1453 1613 1446 Q 1626 1439 1653 1406 Q 1680 1373 1702 1335 Q 1724 1297 1724 1279 Q 1724 1258 1711 1242 Q 1698 1226 1678 1223 L 1519 1195 L 1509 1194 Z M 1668 1279 Q 1629 1353 1585 1397 L 1509 1251 L 1668 1279 Z M 1186 1575 Q 1186 1642 1311 1642 Q 1356 1642 1389 1631 Q 1410 1629 1424.5 1613 Q 1439 1597 1439 1575 L 1439 1496 Q 1439 1456 1403 1443 L 1303 1405 L 1283 1402 Q 1265 1402 1250.5 1412.5 Q 1236 1423 1230 1440 L 1189 1556 L 1186 1575 Z M 1311 1586 Q 1279 1586 1242 1575 L 1283 1458 L 1383 1496 L 1383 1575 Q 1378 1575 1359.5 1580.4999 Q 1341 1586 1311 1586 Z M 379 1299 Q 379 1313 390.49997 1341 Q 402 1369 423 1394.5001 Q 444 1420 466.5 1437 Q 489 1454 533 1476 L 554 1480 Q 588 1480 605 1449 L 645 1369 Q 651 1357 651 1343 Q 651 1330 645 1318 L 605 1238 Q 587 1207 554 1207 L 539 1209 L 420 1244 Q 401 1250 390 1265 Q 379 1280 379 1299 Z M 554 1264 L 594 1343 L 554 1424 Q 512 1405 479.5 1371 Q 447 1337 436 1298 L 554 1264 Z"/>
        </g>
        <g transform="matrix(1 0 0 1 28816 983)">
            <path fill="#000000" stroke="none" d="M 1729 1140 Q 1729 1044 1697 972 Q 1627 821 1625 631 Q 1625 549 1609.4999 513.5 Q 1594 478 1563 478 Q 1509 478 1509 562 L 1510 608 Q 1510 711 1493 752 Q 1476 793 1445 793 Q 1426 793 1405 772 Q 1384 751 1357.5 702.49994 Q 1331 654 1284 515 Q 1241 389 1198 325 Q 1110 195 964.5 126.50001 Q 819 58 634 58 Q 534 58 440 81 Q 346 104 320.5 133 Q 295 162 295 205 Q 295 276 403 389 Q 500 492 599 622 Q 643 681 752 782 Q 866 886 910 937 Q 954 988 1019 1092 Q 1113 1242 1158 1298.5 Q 1203 1355 1258.5 1405.5 Q 1314 1456 1363 1478.5 Q 1412 1501 1461 1501 Q 1574 1501 1651.5 1398.5001 Q 1729 1296 1729 1140 Z M 1514 1319 Q 1514 1354 1489.5001 1373 Q 1465 1392 1425 1392 Q 1354 1392 1275 1313 Q 1196 1234 1058 1000 Q 1010 918 921.5 820 Q 833 722 809 699 Q 728 619 728 557 Q 728 528 741 514.5 Q 754 501 785 493 Q 797 526 828.49994 557.5 Q 860 589 925 636 Q 1000 689 1070.5 781.5 Q 1141 874 1231 1021 Q 1257 1064 1342 1188 Q 1425 1309 1495 1309 L 1514 1307 L 1514 1319 Z M 1500 1228 Q 1500 1246 1477 1246 Q 1454 1246 1433 1222 Q 1360 1140 1270 986 Q 1149 782 1093.5 715 Q 1038 648 911 550 Q 872 522 864 510.5 Q 856 499 856 488 Q 856 480 866 480 Q 944 480 1005 511 Q 1066 542 1117 597 Q 1168 652 1247 788 L 1346 953 L 1468 1154 Q 1480 1172 1488 1192 Q 1490 1200 1495 1209.5 Q 1500 1219 1500 1228 Z"/>
        </g>
        <g transform="matrix(1 0 0 1 30864 983)">
            <path fill="#000000" stroke="none" d="M 268 1250 Q 268 1271 297 1312.5 Q 326 1354 356 1380 Q 369 1391 382.5 1405 Q 396 1419 416 1419 Q 448 1419 478 1374 Q 501 1345 518 1314 L 588 1190 Q 603 1161 618.5 1130.5 Q 634 1100 634 1093 Q 634 1080 623 1067.5 Q 612 1055 599 1055 L 588 1057 Q 515 1089 447.5 1128.5 Q 380 1168 311 1208 Q 298 1216 283 1224.5 Q 268 1233 268 1250 Z M 515 408 Q 527 408 538.5 397 Q 550 386 550 373 Q 550 364 544 357 Q 499 298 448 247 L 326 124 Q 316 114 302 114 Q 283 114 252.50002 146 Q 222 178 199 224 Q 192 237 184.5 250 Q 177 263 177 278 Q 177 328 315 359 L 361 371 Q 397 382 452.5 395 Q 508 408 515 408 Z M 1448 1055 Q 1435 1055 1424 1067 Q 1413 1079 1413 1093 Q 1413 1104 1426 1127 L 1459 1190 L 1530 1314 Q 1543 1339 1560 1362.5 Q 1577 1386 1593 1402.5 Q 1609 1419 1628 1419 Q 1647 1419 1661 1407 Q 1675 1395 1697 1374.5 Q 1719 1354 1739 1327.5 Q 1759 1301 1770.4999 1276.5 Q 1782 1252 1778 1250 Q 1778 1246 1777 1242.5 Q 1776 1239 1774.4999 1236 Q 1773 1233 1770.4999 1230 Q 1768 1227 1764.5 1225 Q 1761 1223 1617.5001 1139 Q 1474 1055 1448 1055 Z M 1870 279 Q 1870 263 1845.5 218.5 Q 1821 174 1793.5 144 Q 1766 114 1745 114 Q 1731 114 1721 124 Q 1711 134 1703 143 Q 1651 195 1599.5 246.5 Q 1548 298 1503 357 Q 1497 364 1497 373 Q 1497 386 1508.5 397 Q 1520 408 1532 408 Q 1544 408 1595 396 Q 1646 384 1685 371 L 1710 365 Q 1774 351 1822 328.5 Q 1870 306 1870 279 Z M 1477 81 Q 1477 66 1465.5 55 Q 1454 44 1440 44 Q 1430 44 1421 50 L 1024 302 L 626 50 Q 617 44 607 44 Q 592 44 581 55 Q 570 66 570 81 Q 570 86 684 549 L 325 847 Q 312 857 312 875 Q 312 889 321.5 899 Q 331 909 345 911 L 813 949 L 990 1379 Q 1000 1402 1024 1402 Q 1047 1402 1057 1379 L 1234 949 L 1702 911 Q 1716 909 1725.5 899 Q 1735 889 1735 875 Q 1735 857 1722 847 L 1364 549 Q 1477 86 1477 81 Z M 1024 454 L 1298 280 L 1220 596 L 1467 801 L 1145 827 L 1024 1124 L 902 827 L 580 801 L 827 596 L 750 280 L 1024 454 Z"/>
        </g>
        <g transform="matrix(1 0 0 1 32912 983)">
            <path fill="#000000" stroke="none" d="M 1345 1035 Q 1447 919 1447 755 Q 1447 638 1389.5 540.5 Q 1332 443 1231.5 388 Q 1131 333 1010 333 Q 816 333 695.5 448 Q 575 563 575 752 Q 575 869 632 967 Q 689 1065 789.5 1120 Q 890 1175 1012 1175 Q 1124 1175 1223 1128 L 1186 1082 Q 1105 1117 1012 1117 Q 901 1117 815.5 1070 Q 730 1023 681.5 938 Q 633 853 633 752 Q 633 585 735 487.49997 Q 837 390 1010 390 Q 1113 390 1201 437 Q 1289 484 1339.5 567.5 Q 1390 651 1390 755 Q 1390 892 1307 992 L 1345 1035 Z M 802 749 Q 802 836 862.49994 896.50006 Q 923 957 1013 957 Q 1047 957 1079 948 L 1021 878 Q 986 837 973 815 Q 960 793 960 773 Q 960 744 980.5 726.5 Q 1001 709 1027 709 Q 1058 709 1085 740 L 1197 865 Q 1237 798 1237 732 Q 1237 649 1173 590.5 Q 1109 532 1018 532 Q 923 532 862.49994 594.5 Q 802 657 802 749 Z M 1777 1385 Q 1777 1352 1742 1317 L 1657 1228 Q 1634 1202 1610 1181 Q 1584 1155 1566 1148 Q 1548 1141 1530 1138 Q 1665 962 1665 736 Q 1665 555 1584 408 Q 1503 261 1356.5 178.5 Q 1210 96 1027 96 Q 839 96 682 174 Q 525 252 435.5 393 Q 346 534 346 709 Q 346 909 434 1065 Q 522 1221 681.5 1304.5 Q 841 1388 1048 1388 Q 1177 1388 1297 1332 L 1294 1361 Q 1294 1399 1320 1434 L 1341 1465 L 1433 1591 Q 1465 1639 1507 1639 Q 1534 1639 1553.5001 1619 Q 1573 1599 1580 1566 L 1589 1525 L 1596 1485 Q 1619 1478 1628 1458 L 1632 1457 L 1644 1457 L 1695 1458 Q 1733 1458 1755 1437 Q 1777 1416 1777 1385 Z M 1351 1362 Q 1351 1338 1370 1262 L 1540 1469 Q 1526 1582 1507 1582 Q 1501 1582 1496.5 1579 Q 1492 1576 1428.5 1491.5001 Q 1365 1407 1355 1382 Q 1351 1374 1351 1362 Z M 1607 736 Q 1607 959 1455 1139 L 1395 1141 L 1390 1141 L 1051 757 Q 1041 744 1027 744 Q 1014 744 1005 752.5 Q 996 761 996 774 Q 996 788 1007 802 L 1326 1202 Q 1319 1213 1317 1228.5 Q 1315 1244 1312 1258 Q 1249 1295 1187.5 1312.5 Q 1126 1330 1048 1330 Q 859 1330 712.5 1253.5 Q 566 1177 485 1034.5 Q 404 892 404 709 Q 404 549 486 421.5 Q 568 294 711.5 223.5 Q 855 153 1027 153 Q 1200 153 1332 228.50002 Q 1464 304 1535.5 437.5 Q 1607 571 1607 736 Z M 1720 1386 Q 1720 1400 1695 1400 L 1615 1400 L 1439 1197 L 1494 1194 L 1501 1194 Q 1527 1194 1539 1199 Q 1551 1204 1569 1221 Q 1601 1253 1634 1285 Q 1667 1317 1695 1351 Q 1701 1358 1710.4999 1367 Q 1720 1376 1720 1386 Z"/>
        </g>
        <g transform="matrix(1 0 0 1 34960 983)">
            <path fill="#000000" stroke="none" d="M 1770 797 Q 1770 771 1738 749 Q 1794 656 1794 618 Q 1794 583 1760 583 Q 1736 583 1697 610 Q 1658 637 1613 684 Q 1484 628 1310 588 Q 1425 253 1425 129 Q 1425 -1 1325 -1 Q 1232 -1 1107.5 143 Q 983 287 870 528 L 745 524 Q 590 524 471.49997 549 Q 353 574 291 618 Q 229 662 229 717 Q 229 743 245.5 768.50006 Q 262 794 290.5 816 Q 319 838 360 857.5 Q 401 877 408 877 Q 417 807 489.50003 745.5 Q 562 684 592 684 Q 605 684 627 707.50006 Q 649 731 649 741 Q 649 751 643 758.5 Q 637 766 619 776 Q 569 805 533 852 Q 497 899 491 956 Q 581 1012 707 1012 Q 694 1090 694 1166 Q 694 1306 740 1391 Q 786 1476 863 1476 Q 932 1476 1018 1347.5 Q 1104 1219 1189 961 Q 1399 923 1581 883 Q 1597 901 1640.4999 941 Q 1684 981 1717.5 997.5 Q 1751 1014 1778 1014 Q 1816 1014 1816 982 Q 1816 945 1748 836 Q 1770 816 1770 797 Z M 762 713 Q 762 727 751.5 733.49994 Q 741 740 729 740 Q 711 740 695 719 Q 679 698 679 680 Q 679 651 712 651 Q 733 651 747.5 675 Q 762 699 762 713 Z M 784 668 Q 784 658 790.5 651 Q 797 644 808 644 Q 827 644 844.5 661.5 Q 862 679 862 702 Q 862 730 833 730 Q 813 730 798.49994 709 Q 784 688 784 668 Z"/>
        </g>
        <g transform="matrix(1 0 0 1 37540 983)">
            <path fill="#000000" stroke="none" d="M 1725 641 Q 1725 500 1676.5 383.5 Q 1628 267 1540 204 L 1473 155 Q 1374 80 1296 57.5 Q 1218 35 1090 35 Q 1015 35 890 48.5 Q 765 62 663.5 114 Q 562 166 486 248.5 Q 410 331 366 439 Q 322 547 322 672 Q 322 772 346.5 892 Q 371 1012 433.5 1110 Q 496 1208 588.5 1280 Q 681 1352 789.5 1385.5 Q 898 1419 1021 1419 Q 1183 1419 1310.5 1377 Q 1438 1335 1516.4999 1257.5 Q 1595 1180 1647.5 1049 Q 1700 918 1722 709 L 1725 641 Z M 1636 678 Q 1636 764 1602.5 897.50006 Q 1569 1031 1522.5001 1112.5 Q 1476 1194 1412 1240 Q 1395 1232 1378.5 1222.5 Q 1362 1213 1344 1208 Q 1324 1203 1305 1192.5 Q 1286 1182 1269 1182 Q 1253 1182 1243 1203 Q 1233 1224 1233 1265 Q 1233 1309 1239 1316 Q 1169 1332 1062 1332 Q 893 1332 764.49994 1280.5 Q 636 1229 569 1137 Q 541 1099 515 1063 Q 489 1027 471 982 Q 418 855 418 662 Q 418 502 493.5 391 Q 569 280 670.5 218.5 Q 772 157 903 140 Q 878 156 853.5 184 Q 829 212 829 236 Q 829 253 863 277.5 Q 897 302 925 302 Q 945 302 974 277.5 Q 1003 253 1015 237 Q 1027 221 1027 211 Q 1027 192 1002.5 171 Q 978 150 944 135 Q 1038 123 1104 123 Q 1171 123 1225.5 136.5 Q 1280 150 1331 176 Q 1382 202 1464.5 264 Q 1547 326 1591.5 433 Q 1636 540 1636 678 Z M 1527 860 Q 1527 842 1508 831.49994 Q 1489 821 1437 821 Q 1412 821 1399 830.49994 Q 1386 840 1381.5 859.5 Q 1377 879 1372 906 Q 1367 933 1369 953 Q 1369 966 1396 975.5 Q 1423 985 1460 985 Q 1476 985 1483 979 Q 1493 974 1509 934 Q 1525 894 1527 860 Z M 957 957 Q 957 935 954.5 924 Q 952 913 946.5 908 Q 941 903 898 892 Q 855 881 801 881 Q 781 881 773.5 894 Q 766 907 766 943 Q 766 964 767.49994 981 Q 769 998 772 1009.5 Q 775 1021 779 1024.5 Q 783 1028 836 1041 Q 889 1054 909 1055 Q 932 1055 942 1041 Q 952 1027 952 1014 L 957 957 Z M 729 581 Q 728 556 719.5 531 Q 711 506 693 499.5 Q 675 493 647 493 Q 556 493 556 541 Q 556 558 565 575 L 579 605 Q 588 628 617 628 L 660 625 L 703 620 Q 729 614 729 581 Z M 1379 511 Q 1379 500 1375.5 490.5 Q 1372 481 1360 458 Q 1348 435 1329 428 Q 1310 421 1281 421 Q 1229 421 1214 433 Q 1157 490 1157 521 Q 1157 539 1195 571 Q 1215 588 1230.5 600.5 Q 1246 613 1269 613 Q 1317 613 1358 554 Q 1365 543 1372 534.5 Q 1379 526 1379 511 Z M 1309 233 Q 1309 214 1293 203.49998 Q 1277 193 1260 193 Q 1243 193 1226 200 Q 1209 207 1209 221 Q 1209 238 1228 250 Q 1247 262 1268 262 Q 1285 262 1297 253.5 Q 1309 245 1309 233 Z M 1406 372 Q 1423 372 1440.5 366.5 Q 1458 361 1458 347 Q 1458 318 1421 318 Q 1404 318 1388.4999 325 Q 1373 332 1373 345 Q 1373 372 1406 372 Z M 1566 501 Q 1566 471 1528 471 Q 1511 471 1499 479.5 Q 1487 488 1487 499 Q 1487 524 1526 524 Q 1566 524 1566 501 Z M 1064 400 Q 1064 366 1030 366 Q 1011 366 998 375 Q 985 384 985 398 Q 985 414 1000 421 Q 1015 428 1032 428 Q 1064 428 1064 400 Z M 1338 698 Q 1296 698 1296 725 Q 1296 738 1310 744.5 Q 1324 751 1339 751 Q 1374 751 1374 725 Q 1374 698 1338 698 Z M 1556 685 Q 1556 669 1539.5 657 Q 1523 645 1506 645 Q 1497 645 1487 651.5 Q 1477 658 1477 674 Q 1477 691 1492 700.49994 Q 1507 710 1524 710 Q 1546 710 1554 694 L 1556 685 Z M 1221 941 Q 1221 929 1210 920 Q 1199 911 1182 911 Q 1148 911 1148 933 Q 1148 946 1161 956.49994 Q 1174 967 1190 967 Q 1205 967 1213 958.49994 Q 1221 950 1221 941 Z"/>
        </g>
        <g transform="matrix(1 0 0 1 39588 983)">
            <path fill="#000000" stroke="none" d="M 1774 682 Q 1774 510 1715 377 L 1696 335 Q 1671 271 1576.4999 217.5 Q 1482 164 1336 133 Q 1190 102 1024 102 Q 858 102 709.5 132.5 Q 561 163 467.5 216 Q 374 269 353 334 Q 274 492 274 682 Q 274 879 363.5 1032.5 Q 453 1186 635.5 1282 Q 818 1378 1024 1378 Q 1230 1378 1412.5 1282.5 Q 1595 1187 1684.5 1033.5 Q 1774 880 1774 682 Z M 671 853 L 560 864 Q 585 763 671 687 L 671 853 Z M 840 845 L 717 850 L 717 652 Q 772 616 840 596 L 840 845 Z M 875 948 Q 886 948 893.49994 957 Q 901 966 901 976 L 898 989 Q 897 990 889 1001 Q 881 1012 865 1025 Q 849 1038 824.5 1048 Q 800 1058 767 1058 Q 733 1058 705.50006 1045.5 Q 678 1033 657 1014 Q 636 995 636 989 Q 632 984 632 975 Q 632 964 639.5 956 Q 647 948 658 948 Q 674 948 682 961 Q 713 1005 767 1005 Q 788 1005 804 998.5 Q 820 992 830.49994 984 Q 841 976 846 969 Q 851 962 852 961 Q 860 948 875 948 Z M 1010 842 L 887 844 L 887 585 Q 936 574 1010 572 L 1010 842 Z M 1180 844 L 1056 842 L 1056 572 Q 1125 574 1180 584 L 1180 844 Z M 1349 850 L 1226 845 L 1226 596 Q 1294 616 1349 650 L 1349 850 Z M 1389 948 Q 1400 948 1408 956 Q 1416 964 1416 975 L 1412 989 Q 1412 995 1391 1014.5 Q 1370 1034 1342 1046 Q 1314 1058 1281 1058 Q 1248 1058 1223.5 1047.5 Q 1199 1037 1183 1024.5 Q 1167 1012 1159 1001 Q 1151 990 1150 989 L 1146 976 Q 1146 966 1153.5 957 Q 1161 948 1173 948 Q 1188 948 1196 961 Q 1196 965 1209.5 977 Q 1223 989 1241 997 Q 1259 1005 1281 1005 Q 1304 1005 1322 997 Q 1340 989 1353 977 Q 1366 965 1366 961 Q 1374 948 1389 948 Z M 1396 685 Q 1488 766 1508 864 L 1396 853 L 1396 685 Z"/>
        </g>
        <g transform="matrix(1 0 0 1 41841 983)">
            <path fill="#000000" stroke="none" d="M 1842 905 Q 1842 696 1729.5 529.5 Q 1617 363 1403.5 265.5 Q 1190 168 950 168 L 916 169 Q 935 152 950 132.5 Q 965 113 980 94 Q 995 75 991 68 Q 991 47 944 27 Q 897 7 853 7 Q 822 7 822 75 L 826 139 L 825 161 Q 790 122 751.5 101 Q 713 80 673 70.5 Q 633 61 568 61 L 517 62 Q 426 62 375 40.5 Q 324 19 292.5 -22 Q 261 -63 256 -113 Q 249 -171 240.5 -187.49998 Q 232 -204 213 -204 Q 180 -204 180 -171 Q 180 -89 227.49998 -17.5 Q 275 54 343.5 84.5 Q 412 115 528 115 L 589 115 Q 675 115 721 137.5 Q 767 160 800 212 Q 684 320 619 485 Q 554 650 554 856 Q 554 1047 636 1206.5 Q 718 1366 866 1457 Q 1014 1548 1199 1548 Q 1371 1548 1520 1462 Q 1669 1376 1755.5 1226.5 Q 1842 1077 1842 905 Z"/>
        </g>
        <g transform="matrix(1 0 0 1 43889 983)">
            <path fill="#000000" stroke="none" d="M 1711 1287 L 1709 1267 Q 1700 1225 1618.5 1137 Q 1537 1049 1351 901 Q 1279 845 1212 783.5 Q 1145 722 1133 667 Q 1115 579 1115 432 L 1117 300 Q 1117 227 1227 183 L 1264 169 Q 1371 131 1371 82 Q 1371 59 1336 38.5 Q 1301 18 1221.5 3 Q 1142 -12 1013 -12 Q 903 -12 815.5 16 Q 728 44 728 89 Q 728 140 875 195 Q 923 212 952 252 Q 981 292 981 349 Q 981 546 961 660 Q 956 686 931.50006 715 Q 907 744 872 777 Q 837 810 797 843 L 693 930 Q 515 1071 442 1154 Q 369 1237 369 1287 Q 369 1375 555.5 1429 Q 742 1483 1040 1483 Q 1215 1483 1357 1463 Q 1433 1551 1507.5 1599.5 Q 1582 1648 1618 1648 Q 1635 1648 1646.4999 1635 Q 1658 1622 1658 1603 Q 1658 1585 1643 1576.4999 Q 1628 1568 1616 1562 Q 1526 1519 1453 1446 Q 1577 1421 1644 1380.5 Q 1711 1340 1711 1287 Z M 717 1198 Q 758 1219 844 1230.5 Q 930 1242 1026 1242 Q 1144 1242 1207 1233 Q 1268 1341 1297 1384 Q 1157 1397 1040 1397 Q 880 1397 759 1381.5 Q 638 1366 555.5 1339.5 Q 473 1313 456 1287 Q 472 1264 543 1239 Q 614 1214 717 1198 Z M 1131 119 Q 1131 130 1119 140 Q 1066 184 1043 234 Q 1002 152 896 111 L 856 94 Q 911 74 1013 74 Q 1065 74 1098 82.5 Q 1131 91 1131 119 Z M 1497 1137 Q 1311 1090 1040 1090 Q 766 1090 580 1137 Q 692 1037 894 873 Q 960 819 1042 819 Q 1094 819 1141 847 Q 1222 893 1365 1021 L 1435 1082 L 1497 1137 Z M 1624 1287 Q 1614 1302 1557 1327 Q 1500 1352 1385 1372 Q 1320 1289 1286 1218 L 1355 1197 Q 1462 1211 1537 1238.5 Q 1612 1266 1624 1287 Z M 950 954 Q 950 997 982.5 1027 Q 1015 1057 1059 1057 Q 1103 1057 1135 1027 Q 1167 997 1167 954 Q 1167 911 1134.5 881 Q 1102 851 1059 851 Q 1014 851 982 881 Q 950 911 950 954 Z"/>
        </g>
        <g transform="matrix(1 0 0 1 45937 983)">
            <path fill="#000000" stroke="none" d="M 1765 571 Q 1765 492 1711 435 Q 1657 378 1575 378 Q 1521 378 1469 403.5 Q 1417 429 1370 461 L 1364 462 Q 1358 462 1358 457 L 1362 444 Q 1382 406 1395.5 350 Q 1409 294 1409 257 Q 1409 161 1347 95 Q 1285 29 1188 29 Q 1100 29 1046 75 Q 990 124 959.49994 187.49998 Q 929 251 929 311 Q 929 327 923 335 Q 918 335 911 326 Q 860 206 791.5 155.5 Q 723 105 635 105 Q 541 105 480 166.5 Q 419 228 419 326 Q 419 472 568 595 Q 579 604 579 614 Q 579 622 571 624 Q 563 626 551 628 L 483 624 Q 377 624 325.5 676.5 Q 274 729 274 803 Q 274 891 349.5 961 Q 425 1031 544 1031 L 628 1025 Q 646 1026 646 1039 L 642 1054 Q 600 1116 600 1204 Q 600 1288 663.5 1348 Q 727 1408 817 1408 Q 982 1408 1069 1192 Q 1077 1170 1087 1170 Q 1094 1170 1104 1180 Q 1206 1333 1371 1333 Q 1476 1333 1550.5 1272 Q 1625 1211 1625 1118 Q 1625 1007 1485 917 Q 1471 910 1471 903 Q 1471 896 1492 890 Q 1571 873 1635.5 818.5 Q 1700 764 1732.5 700 Q 1765 636 1765 571 Z M 1012 531 Q 1106 531 1175.5 593.5 Q 1245 656 1245 752 Q 1245 850 1172 916 Q 1099 982 994 982 Q 899 982 834 917 Q 769 852 769 752 Q 769 655 840.5 593 Q 912 531 1012 531 Z"/>
        </g>
        <g transform="matrix(1 0 0 1 48517 983)">
            <path fill="#000000" stroke="none" d="M 1073 208 Q 1073 166 1105.5 136 Q 1138 106 1220 76 Q 1326 37 1326 -9 Q 1326 -51 1221 -77.5 Q 1116 -104 968 -104 Q 854 -104 768.50006 -75.5 Q 683 -47 683 -2 Q 683 38 786 85 L 834 107 Q 937 152 937 220 L 936 266 Q 705 302 584.5 432.5 Q 464 563 464 771 Q 464 941 519 1127.5 Q 574 1314 666 1467 Q 699 1527 796 1558.5 Q 893 1590 1024 1590 Q 1314 1590 1382 1467 Q 1472 1318 1527.5 1133 Q 1583 948 1583 771 Q 1583 626 1523.5 517 Q 1464 408 1342.5 341.5 Q 1221 275 1073 262 L 1073 208 Z M 1179 1 Q 1047 43 1001 137 Q 961 66 862 24 L 811 2 Q 891 -18 968 -18 Q 1098 -18 1179 1 Z M 746 1437 Q 756 1422 793.5 1407 Q 831 1392 889 1382 Q 947 1372 1024 1372 Q 1100 1372 1160.5 1382.5 Q 1221 1393 1258 1408.5 Q 1295 1424 1302 1439 Q 1295 1452 1255 1468 Q 1215 1484 1158 1494 Q 1101 1504 1024 1504 Q 947 1504 888.5 1494 Q 830 1484 792 1468.5 Q 754 1453 746 1437 Z M 705 1360 Q 550 1042 550 771 Q 550 637 610.5 540 Q 671 443 787 394 Q 903 345 1022 345 Q 1101 345 1190.5 369.5 Q 1280 394 1351 447 Q 1422 500 1459.5 583 Q 1497 666 1497 771 Q 1497 904 1457 1057.5 Q 1417 1211 1343 1359 Q 1296 1324 1212 1305 Q 1128 1286 1024 1286 Q 920 1286 836 1305 Q 752 1324 705 1360 Z M 1033 420 Q 915 420 818.5 465 Q 722 510 666.5 593.5 Q 611 677 611 788 Q 611 851 677.5 889.5 Q 744 928 838 928 Q 891 928 942 914 Q 993 900 1043 883 Q 1093 866 1143.5 852 Q 1194 838 1246 838 Q 1324 838 1381 867 Q 1390 871 1398 871 Q 1418 871 1426 848 Q 1434 825 1434 800 Q 1434 634 1320 527 Q 1206 420 1033 420 Z"/>
        </g>
        <g transform="matrix(1 0 0 1 50565 983)">
            <path fill="#000000" stroke="none" d="M 1680 248 L 358 248 L 358 939 L 589 825 Q 599 871 619 915 L 357 1044 L 357 1231 L 1679 1231 L 1679 1047 L 1417 917 Q 1439 869 1448 827 L 1679 942 L 1680 248 Z M 1235 575 Q 1294 575 1332.5 616.5 Q 1371 658 1371 723 Q 1371 883 1274.5 981.5 Q 1178 1080 1018 1080 Q 865 1080 765.49994 983 Q 666 886 666 737 Q 666 588 765 490.5 Q 864 393 1016 393 Q 1148 393 1237 461 L 1175 545 Q 1111 498 1019 498 Q 911 498 841 564.5 Q 771 631 771 736 Q 771 842 840.5 908.5 Q 910 975 1018 975 Q 1132 975 1199 908 Q 1266 841 1266 727 Q 1266 708 1260.5 694 Q 1255 680 1234 680 Q 1212 680 1199.5 704 Q 1187 728 1187 769 L 1187 888 Q 1187 895 1179 895 L 1090 895 Q 1083 895 1083 888 L 1083 878 Q 1043 901 993 901 Q 916 901 867.50006 852.5 Q 819 804 819 731 Q 819 658 867.50006 610 Q 916 562 994 562 Q 1078 562 1129 622 Q 1170 575 1235 575 Z M 993 809 Q 1031 809 1052.5 787 Q 1074 765 1074 732 Q 1074 699 1052.5 676 Q 1031 653 994 653 Q 956 653 934.5 676 Q 913 699 913 731 Q 913 763 934 786 Q 955 809 993 809 Z"/>
        </g>
        <g transform="matrix(1 0 0 1 52613 983)">
            <path fill="#000000" stroke="none" d="M 1795 923 Q 1795 884 1765 845 L 1762 842 L 1764 818 Q 1764 783 1743 753 L 1742 751 Q 1752 728 1752 701 Q 1752 677 1742 658 L 1738 652 Q 1747 631 1747 604 L 1743 564 Q 1739 526 1721.5 496.5 Q 1704 467 1647 424 Q 1615 400 1594 373 L 1547 313 Q 1501 259 1411 214.5 Q 1321 170 1199 150 Q 1219 85 1219 42 Q 1219 2 1200.5 -25.500002 Q 1182 -53 1142 -76.5 Q 1102 -100 1066 -100 Q 1049 -100 1037.5 -89 Q 1026 -78 1026 -61 Q 1026 -36 1078 -13 Q 1129 9 1129 54 Q 1129 76 1120 97 Q 1111 118 1106 140 L 1039 138 Q 1039 48 1028.5 5.5 Q 1018 -37 993 -58.5 Q 968 -80 935.5 -91 Q 903 -102 872 -102 Q 840 -102 824 -95 Q 808 -88 808 -59 Q 808 -18 870 -10 Q 898 -6 914 4.5 Q 930 15 937.5 36 Q 945 57 948 142 Q 802 154 691.5 213 Q 581 272 517.5 377.50003 Q 454 483 439 650 Q 391 668 362 712.5 Q 333 757 333 813 Q 333 859 351.5 902.5 Q 370 946 403 978 L 382 988 Q 283 1013 283 1071 Q 283 1103 315.5 1133 Q 348 1163 411 1183 Q 474 1203 501 1203 L 515 1244 Q 480 1278 458 1311 Q 436 1344 436 1391 Q 436 1440 458 1480 Q 480 1520 521 1527 Q 558 1534 590 1557 Q 643 1595 693 1595 Q 734 1595 768 1576 Q 786 1567 805 1567 L 863 1572 Q 900 1572 941 1543 Q 954 1533 963.50006 1520 Q 973 1507 987 1499 L 1026 1477 Q 1056 1460 1068 1435 Q 1080 1410 1080 1368 Q 1080 1343 1076 1319.5 Q 1072 1296 1062 1278.5 Q 1052 1261 1041 1231 Q 1077 1180 1136 1048 Q 1181 946 1212.5 903 Q 1244 860 1273 835 Q 1302 810 1317 810 Q 1324 813 1327 836 Q 1334 878 1369 939 Q 1404 1000 1455 1028 Q 1506 1056 1587 1058 Q 1665 1058 1730 1021.49994 Q 1795 985 1795 923 Z M 1727 924 Q 1727 949 1682.5 969.5 Q 1638 990 1587 990 Q 1472 990 1428 907 Q 1400 853 1394 824 Q 1391 800 1380 781 Q 1393 781 1438.5 773.5 Q 1484 766 1504 747.5 Q 1524 729 1524 698 Q 1524 685 1520 673.5 Q 1516 662 1516 652 L 1518 646 Q 1535 633 1535 596 L 1533 577 Q 1530 567 1521 557 Q 1512 547 1512 539 Q 1512 531 1515 526.5 Q 1518 522 1518 511 Q 1518 470 1455 420 Q 1449 415 1447 404 Q 1445 393 1440 385 Q 1394 329 1256 329 Q 1143 329 1062 370 Q 981 411 942 485 Q 933 498 918.5 538.5 Q 904 579 904 598 Q 904 613 913 613 Q 918 613 925 596 Q 955 495 1033 442 Q 1111 389 1228 389 Q 1319 389 1354 403 Q 1389 417 1389 434 Q 1389 439 1381 443.5 Q 1373 448 1373 455 Q 1373 464 1386.4999 468 Q 1400 472 1416.5 477 Q 1433 482 1447 490.5 Q 1461 499 1461 518 Q 1461 530 1441 535 Q 1421 540 1421 549 Q 1421 555 1428.5 559 Q 1436 563 1445 568 Q 1454 573 1461.5 581 Q 1469 589 1469 602 Q 1469 613 1461.5 617.5 Q 1454 622 1444.5 624 Q 1435 626 1427.5001 628.5 Q 1420 631 1420 639 Q 1420 645 1426.5 647.5 Q 1433 650 1441 653 Q 1449 656 1455.5 662 Q 1462 668 1462 680 Q 1462 710 1439 720 Q 1415 729 1348 734 Q 1290 737 1260 758 Q 1258 759 1245 772 Q 1190 811 1147 881 Q 1104 951 1044 1090 Q 997 1195 936 1250 Q 875 1305 789 1310 Q 723 1310 674 1277 Q 734 1261 769.50006 1222.5 Q 805 1184 805 1135 Q 805 1085 770 1037.5 Q 735 990 700 974 L 674 959 Q 639 932 639 822 Q 639 748 604 700.49994 Q 569 653 507 643 Q 522 489 587 394.5 Q 652 300 766 252.50002 Q 880 205 1036 205 Q 1185 205 1310.5 247 Q 1436 289 1495 357 L 1527 398 Q 1564 453 1600 476 Q 1641 502 1656.5 521 Q 1672 540 1675.4999 564.5 Q 1679 589 1679 594 L 1679 604 Q 1679 610 1674.5 622 Q 1670 634 1670 656 Q 1670 672 1684 693 L 1685 701 Q 1685 718 1674 738 L 1662 745 Q 1628 762 1628 775 Q 1628 790 1655 790 L 1683 786 L 1687 790 Q 1697 803 1697 817 Q 1697 833 1686.5 840 Q 1676 847 1663.5 851.5 Q 1651 856 1640.4999 860 Q 1630 864 1630 873 Q 1630 895 1668 895 Q 1684 895 1706 886 L 1715 891 Q 1727 910 1727 924 Z M 352 1072 Q 361 1064 380 1059 L 411 1049 Q 458 1024 483 1024 Q 497 1024 497 1055 L 493 1135 Q 471 1135 418 1113.5 Q 365 1092 352 1072 Z M 638 1183 Q 621 1183 608.5 1168.5 Q 596 1154 596 1133 Q 596 1111 608.5 1096.5 Q 621 1082 638 1082 Q 655 1082 667.5 1096.5 Q 680 1111 680 1133 Q 680 1154 667.5 1168.5 Q 655 1183 638 1183 Z"/>
        </g>
        <g transform="matrix(1 0 0 1 54661 983)">
            <path fill="#000000" stroke="none" d="M 1928 459 Q 1928 425 1905 402 Q 1763 254 1607 186 Q 1451 118 1254 118 Q 1136 118 949 143 Q 902 150 842 150 Q 718 150 600.5 110 Q 483 70 396 2 Q 370 -19 340 -19 Q 306 -19 283.5 3.5 Q 261 26 258 56 L 165 987 L 164 997 Q 166 1016 168 1022.49994 Q 170 1029 189 1058.5 Q 208 1088 242.5 1122.5 Q 277 1157 315.5 1184 Q 354 1211 405 1234.5 Q 456 1258 519.5 1275 Q 583 1292 647 1298 Q 711 1304 742 1302 Q 840 1302 924.49994 1296.5 Q 1009 1291 1084 1291 Q 1234 1291 1325 1327 Q 1416 1363 1502 1449 Q 1526 1473 1560 1473 Q 1589 1473 1610 1456.5001 Q 1631 1440 1639 1414 L 1924 484 L 1928 459 Z M 1223 1216 L 1276 928 L 1276 1226 L 1223 1216 Z M 621 1211 L 585 1204 L 626 1163 L 621 1211 Z M 437 1157 L 651 942 L 636 1073 L 521 1189 L 479 1174 L 437 1157 Z M 385 1129 Q 333 1098 318 1080 L 680 718 L 662 851 L 385 1129 Z M 713 489 L 693 625 L 279 1040 Q 258 1019 247 995 L 251 951 L 713 489 Z M 349 71 Q 372 91 418 118 L 326 210 L 339 82 L 349 71 Z M 470 146 Q 515 168 551 181 L 304 428 L 317 299 L 470 146 Z M 611 201 L 706 222 L 282 645 L 295 516 L 611 201 Z M 753 254 L 728 394 L 260 862 L 273 734 L 753 254 Z M 1379 209 Q 1319 430 1260 712 Q 1201 994 1166 1211 L 1084 1208 Q 1012 1208 934 1213.5 Q 856 1219 767 1219 L 678 1217 L 691 1098 Q 749 559 815 232 L 842 233 Q 899 233 959 225 Q 1136 201 1252 201 Q 1306 201 1374 208 L 1379 209 Z M 1415 1278 Q 1361 1251 1334 1242 L 1334 646 Q 1376 447 1415 300 L 1415 1278 Z M 1553 1383 Q 1530 1363 1513.5 1347 Q 1497 1331 1472 1315 L 1472 226 Q 1512 236 1553 253 L 1553 1383 Z M 1691 964 L 1610 1229 L 1610 279 Q 1669 310 1691 327 L 1691 964 Z M 1829 513 L 1748 777 L 1748 370 Q 1785 399 1829 443 L 1829 513 Z"/>
        </g>
        <g transform="matrix(1 0 0 1 56709 983)">
            <path fill="#000000" stroke="none" d="M 1497 535 Q 1617 535 1677.4999 499 Q 1738 463 1738 398 Q 1738 326 1674 253 Q 1610 180 1460 98.50001 Q 1310 17 1152 -33 Q 994 -83 897.50006 -100.5 Q 801 -118 715 -118 Q 555 -118 476 -79.5 Q 397 -41 397 30 Q 397 87 457 150 Q 611 314 914 423 Q 896 442 875 451 Q 815 482 770.50006 528 Q 726 574 702.49994 640 Q 679 706 679 758 Q 679 834 693 895 Q 706 956 706 973 Q 706 1007 679 1020 L 596 1058 Q 522 1088 469.5 1137.5 Q 417 1187 387.5 1245 Q 358 1303 358 1351 Q 358 1404 388.5 1440.5 Q 419 1477 465 1477 Q 501 1477 527 1455.5 Q 553 1434 553 1404 L 551 1385 Q 551 1374 560 1360 Q 577 1321 609.5 1292 Q 642 1263 692 1240 Q 742 1217 855 1182 Q 835 1216 827 1248.5 Q 819 1281 819 1338 Q 819 1418 850 1471 Q 881 1524 939 1555.5001 Q 997 1587 1059 1587 Q 1160 1587 1237.5 1520 Q 1315 1453 1315 1356 Q 1315 1305 1293 1253.5 Q 1271 1202 1239 1162 Q 1275 1172 1332 1202.5 Q 1389 1233 1408 1252 Q 1415 1259 1419 1279 Q 1438 1369 1522 1369 Q 1563 1369 1588.5001 1344 Q 1614 1319 1614 1274 Q 1614 1226 1580.4999 1187.5 Q 1547 1149 1487.4999 1108.5 Q 1428 1068 1376.5 1040 Q 1325 1012 1286 1000 L 1226 977 Q 1200 967 1193 959 Q 1186 951 1174.5 919.5 Q 1163 888 1156 857.5 Q 1149 827 1149 814 Q 1149 779 1171.5 752.5 Q 1194 726 1249 698 Q 1302 669 1325 642 Q 1348 615 1348 579 L 1342 524 Q 1426 535 1497 535 Z M 715 -28 Q 785 -28 853.5 -17.5 Q 922 -7 1047 28.499998 Q 1172 64 1244 93 Q 1316 122 1415 176 Q 1514 230 1556.5 265 Q 1599 300 1624 335.5 Q 1649 371 1649 398 Q 1649 421 1606.5 433.5 Q 1564 446 1497 446 Q 1431 446 1316 430 Q 1300 398 1300 389 Q 1300 383 1305 383 Q 1359 371 1359 323 Q 1359 290 1326 269 Q 1293 248 1249 248 Q 1197 248 1160.5 268 Q 1124 288 1124 322 Q 1124 348 1154 400 L 1099 386 L 1088 346 L 1057 255 Q 1047 226 1047 205 Q 1047 196 1054 193 Q 1096 175 1096 143 Q 1096 84 998 84 Q 963 84 929 100 Q 895 116 883.5 135.5 Q 872 155 872 185 Q 872 223 884.5 257 Q 897 291 911 327 Q 726 255 606.5 162.5 Q 487 70 487 30 Q 487 3 546.5 -12.5 Q 606 -28 715 -28 Z M 1092 477 L 1188 499 Q 1188 540 1157.5 558.5 Q 1127 577 1087 577 Q 1050 577 1050 560 Q 1050 550 1058 538 Q 1084 498 1092 477 Z"/>
        </g>
        <g transform="matrix(1 0 0 1 58757 983)">
            <path fill="#000000" stroke="none" d="M 1756 605 Q 1756 562 1737 527.5 Q 1718 493 1676.5 473 Q 1635 453 1602 453 L 1583 455 Q 1553 347 1471 268 Q 1389 189 1272.5 148.5 Q 1156 108 1025 108 Q 902 108 785.5 147 Q 669 186 583.5 262.5 Q 498 339 466 453 Q 402 453 353.5 492 Q 305 531 305 605 Q 305 673 346.5 715 Q 388 757 457 757 Q 471 860 509 944 Q 564 1113 695.5 1202 Q 827 1291 1030 1314 Q 1087 1320 1112 1329.5 Q 1137 1339 1153 1355 Q 1169 1371 1169 1397 Q 1169 1424 1186 1424 Q 1210 1424 1249 1389 Q 1293 1349 1293 1298 Q 1293 1262 1330 1242 Q 1384 1213 1441.5 1156.5 Q 1499 1100 1541 1009.5 Q 1583 919 1583 841 L 1583 830 L 1582 819 L 1593 757 Q 1674 757 1715 714.5 Q 1756 672 1756 605 Z M 1025 178 Q 1137 178 1236.5 210.5 Q 1336 243 1404.5 302.5 Q 1473 362 1502.5 434.5 Q 1532 507 1532 619 Q 1532 749 1501 849 Q 1396 1013 1280 1013 Q 1246 1013 1218.5 997.5 Q 1191 982 1163.5 963.50006 Q 1136 945 1106 929.50006 Q 1076 914 1037 914 Q 1019 914 1001.5 920.5 Q 984 927 984 938 Q 984 945 1004 963 Q 1024 982 1024 999 Q 1024 1021 999 1021 Q 977 1021 958 1008.5 Q 939 996 920.5 981.5 Q 902 967 882 954.5 Q 862 942 838 942 Q 796 942 796 960 Q 796 968 809 981 Q 822 994 822 1001 Q 822 1012 808.5 1018 Q 795 1024 782 1024 Q 696 1024 604 923 L 557 873 Q 518 762 518 619 Q 518 461 577.5 374 Q 637 287 760 232.5 Q 883 178 1025 178 Z M 372 605 Q 372 566 391 541 Q 410 516 445 516 L 454 517 Q 448 565 448 619 L 448 653 L 450 687 Q 411 684 391.49997 662 Q 372 640 372 605 Z M 1595 519 L 1615 517 Q 1650 517 1669.5 541.5 Q 1689 566 1689 605 Q 1689 645 1665 666.5 Q 1641 688 1599 688 L 1602 619 Q 1602 573 1595 519 Z M 959 413 Q 959 417 963 421.5 Q 967 426 973 426 L 984 425 Q 1009 417 1028 417 Q 1048 417 1063 423 Q 1078 429 1086 429 Q 1097 429 1097 418 Q 1097 403 1073 390.49997 Q 1049 378 1029 378 Q 1000 378 979.5 390.49997 Q 959 403 959 413 Z M 1142 348 Q 1148 348 1153 343 Q 1158 338 1158 331 Q 1158 311 1120.5 284 Q 1083 257 1036 257 Q 988 257 943.5 279 Q 899 301 899 330 Q 899 336 903.5 342.5 Q 908 349 915 349 L 927 345 L 938 339 Q 984 312 1032 312 Q 1070 312 1115 337 Q 1120 339 1127.5 343.5 Q 1135 348 1142 348 Z M 749 602 Q 781 602 804 577 Q 827 552 827 516 Q 827 481 804 455.49997 Q 781 430 749 430 Q 717 430 694 455.49997 Q 671 481 671 516 Q 671 552 694 577 Q 717 602 749 602 Z M 1298 602 Q 1330 602 1353 577 Q 1376 552 1376 516 Q 1376 481 1353 455.49997 Q 1330 430 1298 430 Q 1265 430 1242.5 455.49997 Q 1220 481 1220 516 Q 1220 552 1242.5 577 Q 1265 602 1298 602 Z"/>
        </g>
    </g>
</svg>
