<svg width="45261" height="3789" viewBox="0 0 45261 3789" xmlns="http://www.w3.org/2000/svg">
    <defs/>
    <g transform="matrix(1 0 0 -1 0 3789)">
        <g transform="matrix(1 0 0 1 0 1100)">
            <path fill="#000000" stroke="none" d="M 150 952 Q 150 1010 182 1085 L 360 1503 L 510 1450 L 334 1047 Q 317 1011 317 971 Q 317 934 337.5 908.5 Q 358 883 412 858 L 459 838 Q 637 759 637 608 Q 637 544 606 475 L 387 -20 L 238 33 L 453 514 Q 473 557 473 590 Q 473 627 451 652.5 Q 429 678 377 702 L 328 723 Q 150 799 150 952 Z"/>
        </g>
        <g transform="matrix(1 0 0 1 788 1100)">
            <path fill="#000000" stroke="none" d="M 1012 735 L 391 735 L 391 0 L 231 0 L 231 1462 L 391 1462 L 391 877 L 1012 877 L 1012 735 Z"/>
        </g>
        <g transform="matrix(1 0 0 1 1892 1100)">
            <path fill="#000000" stroke="none" d="M 791 0 L 563 0 L 115 1415 L 279 1464 L 563 590 Q 604 468 637 336.5 Q 670 205 678 127 L 688 127 Q 700 213 733 342 Q 766 471 803 584 L 1079 1464 L 1235 1409 L 791 0 Z"/>
        </g>
        <g transform="matrix(1 0 0 1 3242 1100)">
            <path fill="#000000" stroke="none" d="M 735 0 L 735 436 Q 735 600 756 659 L 748 664 Q 728 633 674 579 Q 620 525 578 494 L 236 215 L 143 342 L 506 635 Q 545 667 608 698 Q 671 729 735 748 L 735 756 Q 615 780 506 866 L 137 1161 L 236 1284 L 578 1010 Q 620 977 674 921.5 Q 728 866 748 838 L 756 842 Q 747 868 741 932 Q 735 996 735 1065 L 735 1462 L 895 1462 L 895 1065 Q 895 1006 888 937 Q 881 868 872 842 L 881 838 Q 905 870 960.50006 926 Q 1016 982 1053 1010 L 1393 1284 L 1491 1161 L 1124 866 Q 1013 780 895 756 L 895 748 Q 954 731 1018.5 699 Q 1083 667 1124 635 L 1485 342 L 1393 215 L 1053 494 Q 1012 525 959 576.5 Q 906 628 881 664 L 872 659 Q 881 634 888 564.5 Q 895 495 895 436 L 895 0 L 735 0 Z"/>
        </g>
        <g transform="matrix(1 0 0 1 4872 1100)">
            <path fill="#000000" stroke="none" d="M 1257 770 L 1380 662 L 803 0 L 743 0 L 162 664 L 287 772 L 766 207 L 1257 770 Z M 707 756 L 162 1378 L 287 1487 L 766 922 L 1257 1485 L 1380 1376 L 838 756 L 707 756 Z"/>
        </g>
        <g transform="matrix(1 0 0 1 6414 1100)">
            <path fill="#000000" stroke="none" d="M 1083 735 L 666 735 L 666 0 L 508 0 L 508 735 L 92 735 L 92 877 L 508 877 L 508 1462 L 666 1462 L 666 877 L 1083 877 L 1083 735 Z"/>
        </g>
        <g transform="matrix(1 0 0 1 8122 1100)">
            <path fill="#000000" stroke="none" d="M 1180 0 L 244 0 L 244 141 L 633 141 L 633 901 Q 633 1077 647 1264 L 639 1264 Q 599 1191 516 1112 L 244 848 L 137 956 L 666 1483 L 758 1483 L 1288 954 L 1180 848 L 911 1112 Q 818 1205 782 1264 L 774 1264 L 781 1184 Q 793 1039 793 901 L 793 141 L 1180 141 L 1180 0 Z"/>
        </g>
        <g transform="matrix(1 0 0 1 9549 1100)">
            <path fill="#000000" stroke="none" d="M 1010 487 L 1016 477 Q 1096 487 1229 487 L 1335 487 L 1335 344 L 555 344 L 555 487 L 688 487 Q 795 487 891 477 L 895 487 Q 828 530 750 612 L 444 918 L 176 666 L 70 770 L 428 1112 L 479 1112 L 954 635 L 1432 1112 L 1481 1112 L 1837 770 L 1726 664 L 1464 918 L 1135 596 Q 1087 550 1065.5 531 Q 1044 512 1010 487 Z"/>
        </g>
        <g transform="matrix(1 0 0 1 11454 1100)">
            <path fill="#000000" stroke="none" d="M 842 815 L 842 655 L 268 -6 L 147 98 L 696 735 L 137 1382 L 258 1487 L 842 815 Z M 942 811 L 942 1462 L 1102 1462 L 1102 811 L 942 811 Z M 942 0 L 942 651 L 1102 651 L 1102 0 L 942 0 Z"/>
        </g>
        <g transform="matrix(1 0 0 1 12787 1100)">
            <path fill="#000000" stroke="none" d="M 524 641 Q 320 742 241 842.5 Q 162 943 162 1090 Q 162 1191 216 1283 Q 270 1375 362 1429 Q 454 1483 561 1483 Q 689 1483 788 1441 Q 887 1399 1001 1296 L 911 1169 Q 818 1253 728 1295 Q 638 1337 559 1337 Q 502 1337 449 1304.5 Q 396 1272 363 1214.5 Q 330 1157 330 1094 Q 330 1014 360.50003 963.50006 Q 391 913 465.5 861.49994 Q 540 810 737 715 L 403 -20 L 254 43 L 524 641 Z"/>
        </g>
        <g transform="matrix(1 0 0 1 13856 1100)">
            <path fill="#000000" stroke="none" d="M 1176 526 L 758 526 L 758 0 L 600 0 L 600 526 L 184 526 L 184 668 L 600 668 L 600 944 L 184 944 L 184 1085 L 600 1085 L 600 1462 L 758 1462 L 758 1085 L 1176 1085 L 1176 944 L 758 944 L 758 668 L 1176 668 L 1176 526 Z"/>
        </g>
        <g transform="matrix(1 0 0 1 15216 1100)">
            <path fill="#000000" stroke="none" d="M 862 918 L 1362 1487 L 1491 1393 L 973 799 L 1610 74 L 1481 -20 L 862 678 L 244 -20 L 115 74 L 752 799 L 233 1393 L 362 1487 L 862 918 Z M 936 412 Q 936 291 951.5 240 Q 967 189 1004 167 Q 1041 145 1124 145 L 1161 145 L 1161 0 L 1124 0 Q 980 0 908 34.5 Q 836 69 806 151 Q 776 233 776 406 L 776 465 L 936 465 L 936 412 Z"/>
        </g>
        <g transform="matrix(1 0 0 1 17474 1100)">
            <path fill="#000000" stroke="none" d="M 1026 836 L 602 836 L 602 0 L 442 0 L 442 1321 L 137 1321 L 137 1462 L 1130 1462 L 1130 1321 L 602 1321 L 602 977 L 1026 977 L 1026 836 Z"/>
        </g>
        <g transform="matrix(1 0 0 1 18742 1100)">
            <path fill="#000000" stroke="none" d="M 236 -10 L 115 88 L 578 741 L 233 1253 L 365 1343 L 735 793 L 735 690 L 236 -10 Z M 969 690 L 969 793 L 1333 1343 L 1462 1251 L 1128 741 L 1589 88 L 1468 -10 L 969 690 Z M 811 942 L 508 1397 L 631 1481 L 858 1141 L 1079 1483 L 1212 1395 L 909 942 L 811 942 Z"/>
        </g>
        <g transform="matrix(1 0 0 1 20446 1100)">
            <path fill="#000000" stroke="none" d="M 909 0 L 324 0 L 324 141 L 539 141 L 539 727 L 137 1130 L 248 1243 L 621 870 L 997 1245 L 1047 1245 L 1350 950 L 1239 844 L 1030 1051 L 698 733 L 698 141 L 909 141 L 909 0 Z M 909 1321 L 324 1321 L 324 1462 L 909 1462 L 909 1321 Z"/>
        </g>
        <g transform="matrix(1 0 0 1 21865 1100)">
            <path fill="#000000" stroke="none" d="M 236 -10 L 115 88 L 578 741 L 125 1407 L 256 1497 L 735 793 L 735 690 L 236 -10 Z M 969 690 L 969 793 L 1450 1507 L 1579 1407 L 1128 741 L 1589 88 L 1468 -10 L 969 690 Z M 909 537 L 1212 82 L 1087 -2 L 860 338 L 639 -4 L 508 84 L 811 537 L 909 537 Z"/>
        </g>
        <g transform="matrix(1 0 0 1 23569 1100)">
            <path fill="#000000" stroke="none" d="M 885 12 L 1182 823 L 1178 834 Q 1130 823 965 823 L 801 823 L 801 965 L 1192 965 L 1192 1462 L 1352 1462 L 1352 965 L 1747 965 L 1747 823 L 1610 823 Q 1412 823 1368 834 L 1362 823 L 1659 12 L 1491 -8 L 1337 424 Q 1321 471 1299 558 Q 1277 645 1274 674 L 1266 674 Q 1263 643 1244 568.5 Q 1225 494 1200 422 L 1049 -8 L 885 12 Z M 555 739 Q 555 965 454.49997 1129.5 Q 354 1294 184 1360 L 248 1485 Q 384 1436 491.5 1327 Q 599 1218 659 1064.5 Q 719 911 719 739 Q 719 567 659 414 Q 599 261 491 151.5 Q 383 42 248 -6 L 184 119 Q 355 185 455 350 Q 555 515 555 739 Z"/>
        </g>
        <g transform="matrix(1 0 0 1 25431 1100)">
            <path fill="#000000" stroke="none" d="M 516 762 L 674 762 L 674 0 L 516 0 L 516 762 Z M 805 1276 L 240 614 L 115 723 L 780 1483 L 840 1483 L 1505 723 L 1382 614 L 805 1276 Z M 946 762 L 1106 762 L 1106 0 L 946 0 L 946 762 Z"/>
        </g>
        <g transform="matrix(1 0 0 1 27585 1100)">
            <path fill="#000000" stroke="none" d="M 244 801 L 516 537 Q 580 474 639 362 L 647 362 Q 633 551 633 748 L 633 1462 L 793 1462 L 793 748 Q 793 554 774 362 L 782 362 Q 847 472 911 537 L 1180 801 L 1288 694 L 737 141 L 1180 141 L 1180 0 L 244 0 L 244 141 L 690 141 L 137 692 L 244 801 Z"/>
        </g>
        <g transform="matrix(1 0 0 1 29012 1100)">
            <path fill="#000000" stroke="none" d="M 115 106 Q 338 258 510 430 Q 352 609 268 776 Q 184 943 184 1079 Q 184 1207 236.50002 1304 Q 289 1401 383 1452 Q 477 1503 598 1503 Q 718 1503 812.5 1451.5 Q 907 1400 959.49994 1303.5 Q 1012 1207 1012 1079 Q 1012 807 711 440 Q 913 238 1120 106 L 1032 -23 Q 813 117 608 326 Q 406 109 207 -23 L 115 106 Z M 338 1079 Q 338 856 614 543 Q 856 827 856 1079 Q 856 1207 787.5 1277.5 Q 719 1348 598 1348 Q 476 1348 407 1278 Q 338 1208 338 1079 Z"/>
        </g>
        <g transform="matrix(1 0 0 1 30247 1100)">
            <path fill="#000000" stroke="none" d="M 936 872 Q 936 701 920 541 L 928 537 Q 959 592 1057 657 L 1440 924 L 1208 1139 L 1317 1257 L 1626 967 L 1626 870 L 1128 522 Q 1028 454 930 414 L 936 403 Q 980 414 1223 414 L 1358 414 L 1358 266 L 362 266 L 362 414 L 569 414 Q 734 414 782 403 L 788 414 Q 681 460 592 522 L 92 870 L 92 967 L 401 1257 L 508 1139 L 279 926 L 659 657 Q 755 589 782 537 L 793 541 Q 776 711 776 872 L 776 961 L 936 961 L 936 872 Z"/>
        </g>
        <g transform="matrix(1 0 0 1 31963 1100)">
            <path fill="#000000" stroke="none" d="M 885 813 Q 885 637 934 565.5 Q 983 494 1112 494 L 1278 494 L 1278 344 L 1112 344 Q 948 344 873 388.5 Q 798 433 762.5 535 Q 727 637 727 809 L 727 950 L 885 950 L 885 813 Z M 1278 0 L 315 0 L 315 141 L 1278 141 L 1278 0 Z M 805 1276 L 240 614 L 115 723 L 780 1483 L 840 1483 L 1505 723 L 1382 614 L 805 1276 Z"/>
        </g>
        <g transform="matrix(1 0 0 1 33608 1100)">
            <path fill="#000000" stroke="none" d="M 317 -6 L 162 6 L 371 1462 L 1110 1462 L 1319 6 L 1161 -6 L 973 1319 L 506 1319 L 317 -6 Z"/>
        </g>
        <g transform="matrix(1 0 0 1 35087 1100)">
            <path fill="#000000" stroke="none" d="M 1217 920 L 391 920 L 391 0 L 231 0 L 231 1462 L 391 1462 L 391 1061 L 649 1061 L 649 1462 L 809 1462 L 809 1061 L 1057 1061 L 1057 1462 L 1217 1462 L 1217 920 Z"/>
        </g>
        <g transform="matrix(1 0 0 1 36973 1100)">
            <path fill="#000000" stroke="none" d="M 573 977 L 1217 977 L 1217 836 L 553 836 L 432 -6 L 272 6 L 463 1321 L 162 1321 L 162 1462 L 1217 1462 L 1217 1321 L 625 1321 L 573 977 Z M 1057 0 L 1057 651 L 1217 651 L 1217 0 L 1057 0 Z M 764 145 L 764 651 L 924 651 L 924 145 L 764 145 Z"/>
        </g>
        <g transform="matrix(1 0 0 1 38396 1100)">
            <path fill="#000000" stroke="none" d="M 670 1122 L 397 1386 L 496 1481 L 715 1278 L 932 1483 L 1028 1386 L 758 1122 L 670 1122 Z M 1180 240 Q 1007 409 918 496.5 Q 829 584 774 676 L 766 676 Q 793 477 793 293 L 793 0 L 633 0 L 633 293 Q 633 514 655 676 L 647 676 Q 593 577 516 504 L 244 240 L 137 348 L 586 793 L 168 1198 L 279 1311 L 713 883 L 1149 1313 L 1260 1198 L 838 793 L 1288 346 L 1180 240 Z"/>
        </g>
        <g transform="matrix(1 0 0 1 39823 1100)">
            <path fill="#000000" stroke="none" d="M 553 0 Q 352 221 244.50002 454.49997 Q 137 688 137 924 Q 137 1096 190 1224 Q 243 1352 346 1420.5 Q 449 1489 594 1489 Q 809 1489 929 1340.5 Q 1049 1192 1049 924 Q 1049 689 942 455.49997 Q 835 222 633 0 L 553 0 Z M 297 924 Q 297 718 375 524.5 Q 453 331 594 168 Q 737 333 814 527 Q 891 721 891 924 Q 891 1128 815 1234.5 Q 739 1341 594 1341 Q 449 1341 373 1233 Q 297 1125 297 924 Z"/>
        </g>
        <g transform="matrix(1 0 0 1 41009 1100)">
            <path fill="#000000" stroke="none" d="M 92 0 L 92 141 L 530 141 Q 390 330 319 529 Q 248 728 248 924 Q 248 1096 301 1224 Q 354 1352 457 1420.5 Q 560 1489 705 1489 Q 920 1489 1039.5 1340 Q 1159 1191 1159 924 Q 1159 526 874 141 L 1317 141 L 1317 0 L 92 0 Z M 406 924 Q 406 721 482 518 Q 558 315 705 145 Q 849 314 926.49994 516.5 Q 1004 719 1004 924 Q 1004 1126 928 1233.5 Q 852 1341 705 1341 Q 559 1341 482.5 1234 Q 406 1127 406 924 Z"/>
        </g>
        <g transform="matrix(1 0 0 1 42416 1100)">
            <path fill="#000000" stroke="none" d="M 1004 379 Q 1004 258 948.5 167.5 Q 893 77 792.5 28.499998 Q 692 -20 571 -20 Q 449 -20 348.5 29.500002 Q 248 79 192.5 169 Q 137 259 137 379 Q 137 500 211 595.5 Q 285 691 420 743 Q 271 835 215.5 920 Q 160 1005 160 1122 Q 160 1225 215.5 1306.5 Q 271 1388 368.5 1433.5 Q 466 1479 578 1479 Q 688 1479 781.5 1434.5 Q 875 1390 928 1309 Q 981 1228 981 1122 Q 981 1017 913 923 Q 845 829 721 764 Q 850 713 927 608 Q 1004 503 1004 379 Z M 838 371 Q 838 599 569 705 Q 303 604 303 371 Q 303 258 376 191.5 Q 449 125 567 125 Q 689 125 763.5 190.5 Q 838 256 838 371 Z M 817 1120 Q 817 1214 746.5 1274.5 Q 676 1335 571 1335 Q 469 1335 396.5 1275 Q 324 1215 324 1122 Q 324 1020 387 942.5 Q 450 865 569 805 Q 817 929 817 1120 Z"/>
        </g>
        <g transform="matrix(1 0 0 1 43557 1100)">
            <path fill="#000000" stroke="none" d="M 1014 1485 L 1214 1253 L 1108 1157 L 907 1391 L 1014 1485 Z M 844 1333 L 1044 1102 L 936 1006 L 737 1239 L 844 1333 Z M 236 -10 L 115 88 L 578 741 L 233 1253 L 365 1343 L 735 793 L 735 690 L 236 -10 Z M 969 690 L 969 793 L 1333 1343 L 1462 1243 L 1128 741 L 1589 88 L 1468 -10 L 969 690 Z"/>
        </g>
    </g>
</svg>
