<svg width="34035" height="3789" viewBox="0 0 34035 3789" xmlns="http://www.w3.org/2000/svg">
    <defs/>
    <g transform="matrix(1 0 0 -1 0 3789)">
        <g transform="matrix(1 0 0 1 0 1100)">
            <path fill="#000000" stroke="none" d="M 1137 0 L 442 0 L 442 416 Q 298 436 218.5 520.5 Q 139 605 139 745 Q 139 878 218 964 Q 297 1050 442 1071 L 442 1462 L 625 1462 L 625 1071 Q 772 1050 850 964 Q 928 878 928 743 Q 928 607 846 519.5 Q 764 432 625 414 L 625 160 L 1137 160 L 1137 0 Z M 532 918 Q 435 918 379.5 871.5 Q 324 825 324 743 Q 324 659 380.5 614 Q 437 569 537 569 Q 637 569 690 615.5 Q 743 662 743 743 Q 743 825 689 871.5 Q 635 918 532 918 Z"/>
        </g>
        <g transform="matrix(1 0 0 1 1067 1100)">
            <path fill="#000000" stroke="none" d="M 31 0 Q 14 0 -18.5 10 Q -51 20 -70 33 L -70 160 L 180 160 L 180 1462 L 362 1462 L 362 276 Q 415 160 573 160 L 612 160 L 612 0 L 543 0 Q 479 0 433 22.499998 Q 387 45 334 115 Q 275 0 113 0 L 31 0 Z"/>
        </g>
        <g transform="matrix(1 0 0 1 1610 1100)">
            <path fill="#000000" stroke="none" d="M 80 1051 L 309 1051 L 309 1462 L 492 1462 L 492 1051 L 721 1051 L 721 891 L 492 891 L 492 276 Q 544 160 702 160 L 870 160 L 870 0 L 672 0 Q 608 0 562 22.499998 Q 516 45 463 115 Q 404 0 242 0 L 31 0 Q 14 0 -18.5 10 Q -51 20 -70 33 L -70 160 L 309 160 L 309 891 L 80 891 L 80 1051 Z"/>
        </g>
        <g transform="matrix(1 0 0 1 2411 1100)">
            <path fill="#000000" stroke="none" d="M 965 0 L 758 0 Q 681 0 627.5 23.500002 Q 574 47 512 117 Q 452 0 289 0 L 31 0 Q 14 0 -18.5 10 Q -51 20 -70 33 L -70 160 L 356 160 L 356 717 L 8 1462 L 188 1462 L 365 1079 Q 416 965 446 883 Q 462 927 482.5 975 Q 503 1023 707 1462 L 887 1462 L 539 717 L 539 276 Q 590 160 750 160 L 965 160 L 965 0 Z"/>
        </g>
        <g transform="matrix(1 0 0 1 3306 1100)">
            <path fill="#000000" stroke="none" d="M 997 0 L 899 0 Q 823 0 770.50006 22 Q 718 44 651 119 L 578 -29 L 614 -29 Q 726 -29 788 -78 Q 850 -127 850 -211 Q 850 -289 786.5 -371.5 Q 723 -454 618.5 -505.50003 Q 514 -557 399 -557 Q 297 -557 236.50002 -522 Q 176 -487 176 -434 Q 176 -418 210 -353 Q 244 -288 319 -155 L 401 -2 L 401 0 L 31 0 Q 14 0 -18.5 10 Q -51 20 -70 33 L -70 160 L 483 160 Q 633 460 676 573 L 864 573 Q 809 434 707 229 Q 767 160 891 160 L 997 160 L 997 0 Z M 383 -393 Q 401 -399 435 -399 Q 515 -399 591.5 -345.50003 Q 668 -292 668 -229 Q 668 -188 639 -177 Q 610 -166 559 -166 L 506 -166 L 446 -279 L 383 -393 Z"/>
        </g>
        <g transform="matrix(1 0 0 1 4234 1100)">
            <path fill="#000000" stroke="none" d="M 139 1462 L 678 1462 L 678 240 Q 678 125 611 62.5 Q 544 0 428 0 L 31 0 Q 14 0 -18.5 10 Q -51 20 -70 33 L -70 160 L 496 160 L 496 721 L 139 721 L 139 881 L 496 881 L 496 1303 L 139 1303 L 139 1462 Z"/>
        </g>
        <g transform="matrix(1 0 0 1 5624 1100)">
            <path fill="#000000" stroke="none" d="M 739 932 L 739 1100 Q 739 1270 828 1366 Q 917 1462 1079 1462 Q 1222 1462 1311.5 1368 Q 1401 1274 1401 1126 Q 1401 961 1294.5 866.50006 Q 1188 772 997 772 L 922 772 L 922 311 Q 922 153 841 76.5 Q 760 0 592 0 L 180 0 L 180 621 Q 180 778 261 855 Q 342 932 510 932 L 739 932 Z M 362 160 L 606 160 Q 675 160 707 200 Q 739 240 739 326 L 739 772 L 496 772 Q 429 772 395.5 733.49994 Q 362 695 362 606 L 362 160 Z M 922 932 L 1004 932 Q 1219 932 1219 1130 Q 1219 1211 1179.5 1257 Q 1140 1303 1069 1303 Q 922 1303 922 1116 L 922 932 Z"/>
        </g>
        <g transform="matrix(1 0 0 1 7125 1100)">
            <path fill="#000000" stroke="none" d="M 463 1370 L 477 1348 Q 452 1227 404 1063.5 Q 356 900 301 750 L 168 750 Q 232 1054 270 1370 L 463 1370 Z"/>
        </g>
        <g transform="matrix(1 0 0 1 7817 1100)">
            <path fill="#000000" stroke="none" d="M 498 1462 L 680 1462 L 1077 160 L 1249 160 L 1249 0 L 80 0 L 80 90 L 498 1462 Z M 287 160 L 889 160 L 657 932 Q 602 1114 586 1210 Q 562 1088 550.5 1043 Q 539 998 287 160 Z"/>
        </g>
        <g transform="matrix(1 0 0 1 8997 1100)">
            <path fill="#000000" stroke="none" d="M 201 1462 L 895 1462 L 895 276 Q 948 160 1106 160 L 1145 160 L 1145 0 L 1075 0 Q 1010 0 963.50006 23.500002 Q 917 47 866 115 Q 807 0 645 0 L 31 0 Q 14 0 -18.5 10 Q -51 20 -70 33 L -70 160 L 180 160 L 180 571 Q 180 729 261 806 Q 342 883 510 883 L 713 883 L 713 1303 L 201 1303 L 201 1462 Z M 362 160 L 713 160 L 713 723 L 496 723 Q 429 723 395.5 684.5 Q 362 646 362 557 L 362 160 Z"/>
        </g>
        <g transform="matrix(1 0 0 1 10072 1100)">
            <path fill="#000000" stroke="none" d="M 362 1051 L 362 276 Q 415 160 573 160 L 852 160 L 852 1051 L 1034 1051 L 1034 272 Q 1085 160 1243 160 L 1282 160 L 1282 0 L 1212 0 Q 1149 0 1103 22.499998 Q 1057 45 1004 115 Q 945 0 782 0 L 543 0 Q 479 0 433 22.499998 Q 387 45 334 115 Q 275 0 113 0 L 31 0 Q 14 0 -18.5 10 Q -51 20 -70 33 L -70 160 L 180 160 L 180 1051 L 362 1051 Z"/>
        </g>
        <g transform="matrix(1 0 0 1 11284 1100)">
            <path fill="#000000" stroke="none" d="M 100 1462 L 664 1462 L 664 1071 Q 811 1050 889 964 Q 967 878 967 743 Q 967 607 885 519.5 Q 803 432 664 414 L 664 240 Q 664 125 597 62.5 Q 530 0 414 0 L 31 0 Q 14 0 -18.5 10 Q -51 20 -70 33 L -70 160 L 481 160 L 481 416 Q 337 436 257.5 520.5 Q 178 605 178 745 Q 178 878 257 964 Q 336 1050 481 1071 L 481 1303 L 100 1303 L 100 1462 Z M 571 918 Q 475 918 418.5 872.5 Q 362 827 362 743 Q 362 661 417 615 Q 472 569 575 569 Q 676 569 729 615.5 Q 782 662 782 743 Q 782 825 728 871.5 Q 674 918 571 918 Z"/>
        </g>
        <g transform="matrix(1 0 0 1 12924 1100)">
            <path fill="#000000" stroke="none" d="M 102 1462 L 965 1462 L 965 1303 L 625 1303 L 625 160 L 1137 160 L 1137 0 L 442 0 L 442 1303 L 102 1303 L 102 1462 Z"/>
        </g>
        <g transform="matrix(1 0 0 1 13991 1100)">
            <path fill="#000000" stroke="none" d="M 31 0 Q 14 0 -18.5 10 Q -51 20 -70 33 L -70 160 L 1040 160 L 1040 770 L 795 770 L 795 500 L 612 500 L 612 772 L 481 772 Q 300 772 197 864.50006 Q 94 957 94 1126 Q 94 1279 193 1370.5 Q 292 1462 451 1462 Q 612 1462 703.49994 1366 Q 795 1270 795 1096 L 795 932 L 1223 932 L 1223 276 Q 1274 160 1434 160 L 1473 160 L 1473 0 L 1403 0 Q 1339 0 1293 22.499998 Q 1247 45 1194 115 Q 1135 0 973 0 L 31 0 Z M 276 1122 Q 276 1034 331.5 983 Q 387 932 494 932 L 612 932 L 612 1114 Q 612 1204 567.5 1253.5 Q 523 1303 444 1303 Q 367 1303 321.5 1254.5 Q 276 1206 276 1122 Z"/>
        </g>
        <g transform="matrix(1 0 0 1 15394 1100)">
            <path fill="#000000" stroke="none" d="M 483 160 Q 584 359 676 573 L 864 573 Q 810 437 665 147 L 580 -27 L 383 -393 Q 401 -399 430 -399 Q 496 -399 556.5 -360 Q 617 -321 671.5 -244 Q 726 -167 750 -90 L 885 -90 Q 830 -320 700.49994 -438.49997 Q 571 -557 387 -557 Q 296 -557 236 -522.5 Q 176 -488 176 -434 Q 176 -413 261 -258 Q 386 -31 401 -2 L 401 0 L 31 0 Q 14 0 -18.5 10 Q -51 20 -70 33 L -70 160 L 483 160 Z"/>
        </g>
        <g transform="matrix(1 0 0 1 16322 1100)">
            <path fill="#000000" stroke="none" d="M 182 750 L 168 772 Q 219 1015 344 1370 L 477 1370 Q 446 1223 416 1040.5 Q 386 858 375 750 L 182 750 Z"/>
        </g>
        <g transform="matrix(1 0 0 1 17014 1100)">
            <path fill="#000000" stroke="none" d="M 948 276 Q 1001 160 1159 160 L 1198 160 L 1198 0 L 1128 0 Q 1065 0 1019 22.499998 Q 973 45 920 115 Q 861 0 698 0 L 100 0 L 100 160 L 766 160 L 766 891 L 100 891 L 100 1051 L 948 1051 L 948 276 Z"/>
        </g>
        <g transform="matrix(1 0 0 1 18142 1100)">
            <path fill="#000000" stroke="none" d="M 795 723 L 795 240 Q 795 125 728 62.5 Q 661 0 545 0 L 31 0 Q 14 0 -18.5 10 Q -51 20 -70 33 L -70 160 L 612 160 L 612 723 L 528 723 Q 321 723 207.5 823.5 Q 94 924 94 1100 Q 94 1264 194 1363 Q 294 1462 455 1462 Q 614 1462 704.50006 1365.5 Q 795 1269 795 1098 L 795 883 L 1104 883 L 1104 723 L 795 723 Z M 276 1108 Q 276 996 342.5 939.5 Q 409 883 535 883 L 612 883 L 612 1112 Q 612 1203 572.5 1253 Q 533 1303 453 1303 Q 371 1303 323.5 1249.5 Q 276 1196 276 1108 Z"/>
        </g>
        <g transform="matrix(1 0 0 1 19858 1100)">
            <path fill="#000000" stroke="none" d="M 342 1462 L 342 1145 L 934 1145 L 934 160 L 1184 160 L 1184 0 L 752 0 L 752 985 L 342 985 L 342 674 L 160 674 L 160 1462 L 342 1462 Z"/>
        </g>
        <g transform="matrix(1 0 0 1 20972 1100)">
            <path fill="#000000" stroke="none" d="M 31 0 Q 14 0 -18.5 10 Q -51 20 -70 33 L -70 160 L 592 160 L 592 254 Q 592 483 547.5 646 Q 503 809 399.5 958.49994 Q 296 1108 80 1303 L 80 1462 L 895 1462 L 895 1303 L 299 1303 Q 764 890 774 276 Q 827 160 985 160 L 1067 160 L 1067 0 L 954 0 Q 889 0 842.5 23.500002 Q 796 47 745 115 Q 688 0 524 0 L 31 0 Z"/>
        </g>
        <g transform="matrix(1 0 0 1 21969 1100)">
            <path fill="#000000" stroke="none" d="M 31 0 Q 22 0 8 3 Q -6 6 -20.5 10.5 Q -35 15 -48 21 Q -61 27 -70 33 L -70 160 L 180 160 L 180 489 Q 180 726 266 839 Q 352 952 506 952 Q 591 952 653.5 918 Q 716 884 745 831 Q 761 883 790 926 Q 819 969 859.5 1000 Q 900 1031 951.5 1048 Q 1003 1065 1065 1065 Q 1153 1065 1223 1037.5 Q 1293 1010 1341.5 953.5 Q 1390 897 1416 811 Q 1442 725 1442 608 L 1442 276 Q 1495 160 1653 160 L 1735 160 L 1735 0 L 1622 0 Q 1583 0 1554 7.5 Q 1525 15 1501 29 Q 1477 43 1456 64.5 Q 1435 86 1413 115 Q 1382 55 1324 27.500002 Q 1266 0 1192 0 L 31 0 Z M 860 160 L 1260 160 L 1260 631 Q 1260 760 1213.5 832.50006 Q 1167 905 1063 905 Q 1011 905 972.5 884.5 Q 934 864 909 826 Q 884 788 872 735 Q 860 682 860 616 L 860 160 Z M 362 160 L 678 160 L 678 516 Q 678 580 670.5 631 Q 663 682 644.5 718 Q 626 754 595.5 773.5 Q 565 793 520 793 Q 471 793 440 771 Q 409 749 392 710 Q 375 671 368.5 617.5 Q 362 564 362 502 L 362 160 Z"/>
        </g>
        <g transform="matrix(1 0 0 1 23591 1100)">
            <path fill="#000000" stroke="none" d="M 100 1462 L 983 1462 L 983 1303 L 633 1303 L 633 1071 Q 780 1050 858 965 Q 936 880 936 743 Q 936 607 854.5 519.5 Q 773 432 633 414 L 633 276 Q 686 160 844 160 L 1153 160 L 1153 0 L 852 0 Q 775 0 721.5 23.500002 Q 668 47 606 117 Q 575 57 516 28.499998 Q 457 0 383 0 L 31 0 Q 14 0 -18.5 10 Q -51 20 -70 33 L -70 160 L 451 160 L 451 416 Q 305 436 226 522.5 Q 147 609 147 745 Q 147 878 226 963.50006 Q 305 1049 451 1071 L 451 1303 L 100 1303 L 100 1462 Z M 541 918 Q 443 918 387.5 872 Q 332 826 332 743 Q 332 659 388.5 614 Q 445 569 545 569 Q 645 569 698.5 615.5 Q 752 662 752 743 Q 752 825 697.5 871.5 Q 643 918 541 918 Z"/>
        </g>
        <g transform="matrix(1 0 0 1 24674 1100)">
            <path fill="#000000" stroke="none" d="M 1270 1051 L 1270 276 Q 1323 160 1481 160 L 1520 160 L 1520 0 L 1450 0 Q 1385 0 1338.5 23.500002 Q 1292 47 1241 115 Q 1182 0 1020 0 L 31 0 Q 14 0 -18.5 10 Q -51 20 -70 33 L -70 160 L 180 160 L 180 739 Q 180 897 261 974 Q 342 1051 510 1051 L 1270 1051 Z M 362 160 L 1087 160 L 1087 891 L 496 891 Q 429 891 395.5 852.5 Q 362 814 362 725 L 362 160 Z"/>
        </g>
        <g transform="matrix(1 0 0 1 26124 1100)">
            <path fill="#000000" stroke="none" d="M 31 0 Q 14 0 -18.5 10 Q -51 20 -70 33 L -70 160 L 180 160 L 180 1462 L 362 1462 L 362 883 L 547 883 Q 774 883 892 768 Q 1010 653 1010 440 Q 1010 317 954 215.5 Q 898 114 795 57 Q 692 0 553 0 L 31 0 Z M 362 723 L 362 160 L 559 160 Q 684 160 753.5 234.5 Q 823 309 823 440 Q 823 572 751.5 647.5 Q 680 723 545 723 L 362 723 Z"/>
        </g>
        <g transform="matrix(1 0 0 1 27811 1100)">
            <path fill="#000000" stroke="none" d="M 934 1462 L 934 160 L 1184 160 L 1184 0 L 752 0 L 752 891 L 342 891 L 342 586 L 160 586 L 160 1317 L 342 1317 L 342 1051 L 752 1051 L 752 1462 L 934 1462 Z"/>
        </g>
        <g transform="matrix(1 0 0 1 28925 1100)">
            <path fill="#000000" stroke="none" d="M 31 0 Q 14 0 -18.5 10 Q -51 20 -70 33 L -70 160 L 1135 160 L 1135 0 L 31 0 Z M 430 750 L 416 772 Q 439 884 486 1046.5 Q 533 1209 592 1370 L 725 1370 Q 694 1223 664 1040.5 Q 634 858 623 750 L 430 750 Z"/>
        </g>
        <g transform="matrix(1 0 0 1 29994 1100)">
            <path fill="#000000" stroke="none" d="M -70 33 L -70 160 L 135 160 L 543 1051 L 725 1051 L 1130 160 L 1337 160 L 1337 0 L 1008 0 Q 851 347 765.49994 535.5 Q 680 724 633 866 Q 571 690 502 539 L 260 0 L 31 0 Q 14 0 -18.5 10 Q -51 20 -70 33 Z"/>
        </g>
        <g transform="matrix(1 0 0 1 31262 1100)">
            <path fill="#000000" stroke="none" d="M 934 1462 L 934 276 Q 987 160 1145 160 L 1184 160 L 1184 0 L 1114 0 Q 1049 0 1002.5 23.500002 Q 956 47 905 115 Q 846 0 684 0 L 31 0 Q 14 0 -18.5 10 Q -51 20 -70 33 L -70 160 L 752 160 L 752 1303 L 475 1303 Q 409 1303 375.49997 1264 Q 342 1225 342 1137 L 342 829 L 160 829 L 160 1151 Q 160 1309 240.5 1385.5 Q 321 1462 489 1462 L 934 1462 Z"/>
        </g>
        <g transform="matrix(1 0 0 1 32376 1100)">
            <path fill="#000000" stroke="none" d="M 492 664 L 492 160 L 870 160 L 870 0 L 492 0 L 492 -557 L 309 -557 L 309 0 L 31 0 Q 14 0 -18.5 10 Q -51 20 -70 33 L -70 160 L 309 160 L 309 664 L 492 664 Z"/>
        </g>
        <g transform="matrix(1 0 0 1 33177 1100)">
            <path fill="#000000" stroke="none" d="M 31 0 Q 14 0 -18.5 10 Q -51 20 -70 33 L -70 160 L 180 160 L 180 1462 L 719 1462 L 719 1303 L 362 1303 L 362 881 L 719 881 L 719 721 L 362 721 L 362 240 Q 362 126 296 63 Q 230 0 113 0 L 31 0 Z"/>
        </g>
    </g>
</svg>
