<svg width="45891" height="3797" viewBox="0 0 45891 3797" xmlns="http://www.w3.org/2000/svg">
    <defs/>
    <g transform="matrix(1 0 0 -1 0 3797)">
        <g transform="matrix(1 0 0 1 0 1108)">
            <path fill="#000000" stroke="none" d="M 385 -20 Q 244 81 167 249.5 Q 90 418 90 613 Q 90 764 135 878.5 Q 180 993 259.5 1055.5 Q 339 1118 432 1118 Q 604 1118 673 963 Q 742 1118 915 1118 Q 1009 1118 1088 1055.5 Q 1167 993 1212 878.5 Q 1257 764 1257 613 Q 1257 417 1179.5 248.5 Q 1102 80 962 -20 L 893 99 Q 982 173 1030.5 301 Q 1079 429 1079 590 Q 1079 774 1036.5 877 Q 994 980 911 980 Q 838 980 794.5 908.5 Q 751 837 739 708 L 608 708 Q 596 838 552 909 Q 508 980 436 980 Q 353 980 310.5 878 Q 268 776 268 590 Q 268 429 316.5 301.5 Q 365 174 454 99 L 385 -20 Z"/>
        </g>
        <g transform="matrix(1 0 0 1 1347 1108)">
            <path fill="#000000" stroke="none" d="M 90 915 Q 162 1013 268 1065.5 Q 374 1118 490 1118 Q 641 1118 752 1053 Q 863 988 923.5 861 Q 984 734 984 553 Q 984 409 942 303 Q 976 231 1075 174.5 Q 1174 118 1272 118 Q 1423 118 1509.5 238 Q 1596 358 1596 565 Q 1596 695 1557.5001 788.5 Q 1519 882 1450.4999 931 Q 1382 980 1291 980 Q 1234 980 1186.5 953 Q 1139 926 1110 881 L 980 961 Q 1040 1049 1125.5 1083.5 Q 1211 1118 1314 1118 Q 1441 1118 1547 1050 Q 1653 982 1713.5 858 Q 1774 734 1774 563 Q 1774 387 1711 254.5 Q 1648 122 1533.5 51 Q 1419 -20 1273 -20 Q 1138 -20 1030 21.500002 Q 922 63 848 143 Q 700 -20 483 -20 Q 333 -20 225.5 51 Q 118 122 60 247 L 220 300 Q 246 210 317.5 164 Q 389 118 492 118 Q 633 118 719.5 239 Q 806 360 806 555 Q 806 758 719.5 869 Q 633 980 481 980 Q 403 980 332.5 942 Q 262 904 221 839 L 90 915 Z"/>
        </g>
        <g transform="matrix(1 0 0 1 3211 1108)">
            <path fill="#000000" stroke="none" d="M 964 -83 Q 956 -3 917 89 Q 782 -20 608 -20 Q 461 -20 342 54.5 Q 223 129 156.5 262.5 Q 90 396 90 560 Q 90 738 172.50002 880.5 Q 255 1023 413 1108 L 471 974 Q 377 934 322.5 826.5 Q 268 719 268 538 Q 268 336 355 227 Q 442 118 608 118 Q 757 118 842 207 Q 755 308 642 328 L 661 464 Q 805 447 921 343 Q 948 431 948 538 Q 948 719 893.49994 826.5 Q 839 934 745 974 L 803 1108 Q 958 1025 1042 883.5 Q 1126 742 1126 560 Q 1126 368 1029 214 Q 1103 89 1119 -45 L 964 -83 Z"/>
        </g>
        <g transform="matrix(1 0 0 1 4427 1108)">
            <path fill="#000000" stroke="none" d="M 1054 464 Q 1054 715 930.50006 847.5 Q 807 980 571 980 Q 461 980 391 950 Q 321 920 321 867 Q 321 839 361 813.5 Q 401 788 508 749 Q 738 666 825 580 Q 912 494 912 377 Q 912 272 858.5 179 Q 805 86 711.5 33 Q 618 -20 505 -20 Q 324 -20 207 87.5 Q 90 195 90 367 Q 90 462 144 538 L 282 455 Q 258 411 258 363 Q 258 252 324.5 185 Q 391 118 502 118 Q 604 118 669 186.5 Q 734 255 734 365 Q 734 423 705.50006 466.5 Q 677 510 626 543.5 Q 575 577 439 629 Q 290 685 243.49998 713.5 Q 197 742 170 778 Q 143 814 143 863 Q 143 930 201 990 Q 259 1050 362.5 1084 Q 466 1118 597 1118 Q 891 1118 1061.5 949.5 Q 1232 781 1232 482 Q 1232 349 1207.5 218.5 Q 1183 88 1139 -20 L 997 43 Q 1030 175 1042 270.5 Q 1054 366 1054 464 Z"/>
        </g>
        <g transform="matrix(1 0 0 1 5749 1108)">
            <path fill="#000000" stroke="none" d="M 1130 560 Q 1130 435 1082 303 L 1089 308 Q 1122 234 1221.5 176 Q 1321 118 1421 118 Q 1571 118 1655 238 Q 1739 358 1739 565 Q 1739 750 1671 850 Q 1603 950 1440 980 L 1323 1001 Q 1094 1036 1002.5 1118.5 Q 911 1201 911 1350 Q 911 1389 924 1475 Q 937 1561 957 1617 L 1108 1556 Q 1081 1448 1081 1324 Q 1081 1237 1139 1193 Q 1197 1149 1372 1130 L 1463 1118 Q 1686 1082 1801.4999 940.5 Q 1917 799 1917 563 Q 1917 385 1855 253 Q 1793 121 1679.4999 50.5 Q 1566 -20 1422 -20 Q 1283 -20 1172.5 24.499998 Q 1062 69 989 152 Q 840 -20 585 -20 Q 349 -20 219.49998 65.5 Q 90 151 90 307 Q 90 381 143 448.5 Q 196 516 294 559 Q 202 592 146 657 Q 90 722 90 799 Q 90 943 221.5 1030.5 Q 353 1118 560 1118 Q 737 1118 866 1048.5 Q 995 979 1062.5 851.5 Q 1130 724 1130 560 Z M 550 510 Q 416 497 342 444 Q 268 391 268 306 Q 268 209 345.50003 163.5 Q 423 118 575 118 Q 691 118 775.5 170.5 Q 860 223 906 326 Q 952 429 952 560 Q 952 759 850 869.5 Q 748 980 565 980 Q 428 980 348 932 Q 268 884 268 796 Q 268 720 342.5 670 Q 417 620 550 607 L 550 510 Z"/>
        </g>
        <g transform="matrix(1 0 0 1 7756 1108)">
            <path fill="#000000" stroke="none" d="M 810 124 Q 762 59 687.5 19.5 Q 613 -20 515 -20 Q 403 -20 304.5 57.5 Q 206 135 148 271.5 Q 90 408 90 571 Q 90 732 141 857 Q 192 982 284.5 1050 Q 377 1118 492 1118 Q 572 1118 640.5 1076.5 Q 709 1035 769 962 Q 829 889 915 730 L 1115 359 Q 1193 214 1242.5 166 Q 1292 118 1346 118 Q 1447 118 1507 225.5 Q 1567 333 1567 529 L 1567 951 Q 1567 1177 1615 1360.5 Q 1663 1544 1750 1642 Q 1837 1740 1953 1740 Q 2008 1740 2081 1714 L 2014 1587 Q 1971 1602 1922 1602 Q 1848 1602 1809 1533 Q 1770 1464 1753.5 1307 Q 1737 1150 1737 821 L 1737 527 Q 1737 365 1688 239.5 Q 1639 114 1550 47 Q 1461 -20 1347 -20 Q 1267 -20 1198.5 21.500002 Q 1130 63 1070 136 Q 1010 209 924 368 L 724 739 Q 646 885 596.5 932.5 Q 547 980 493 980 Q 388 980 328 869.5 Q 268 759 268 569 Q 268 358 334.5 238 Q 401 118 518 118 Q 640 118 708 215 L 810 124 Z"/>
        </g>
        <g transform="matrix(1 0 0 1 10169 1108)">
            <path fill="#000000" stroke="none" d="M 1114 961 Q 1174 1049 1259.5 1083.5 Q 1345 1118 1448 1118 Q 1575 1118 1681 1050 Q 1787 982 1847.5 858 Q 1908 734 1908 563 Q 1908 387 1845 254.5 Q 1782 122 1667.5 51 Q 1553 -20 1407 -20 Q 1269 -20 1159 23.500002 Q 1049 67 979 148 Q 910 70 815 25 Q 720 -20 608 -20 Q 461 -20 342 54.5 Q 223 129 156.5 262.5 Q 90 396 90 560 Q 90 738 172.50002 880.5 Q 255 1023 413 1108 L 471 974 Q 377 934 322.5 826.5 Q 268 719 268 538 Q 268 336 355 227 Q 442 118 608 118 Q 773 118 860.49994 227.49998 Q 948 337 948 538 Q 948 719 893.49994 826.5 Q 839 934 745 974 L 803 1108 Q 958 1025 1042 883.5 Q 1126 742 1126 560 Q 1126 502 1117 447 Q 1108 392 1076 303 Q 1111 230 1210 174 Q 1309 118 1406 118 Q 1557 118 1643.5 238 Q 1730 358 1730 565 Q 1730 695 1691.5 788.5 Q 1653 882 1584.5001 931 Q 1516 980 1425 980 Q 1368 980 1320.5 953 Q 1273 926 1244 881 L 1114 961 Z"/>
        </g>
        <g transform="matrix(1 0 0 1 12167 1108)">
            <path fill="#000000" stroke="none" d="M 810 124 Q 762 59 687.5 19.5 Q 613 -20 515 -20 Q 403 -20 304.5 57.5 Q 206 135 148 271.5 Q 90 408 90 571 Q 90 732 141 857 Q 192 982 284.5 1050 Q 377 1118 492 1118 Q 572 1118 640.5 1076.5 Q 709 1035 769 962 Q 829 889 915 730 L 1115 359 Q 1193 214 1242.5 166 Q 1292 118 1346 118 Q 1412 118 1463 165.5 Q 1514 213 1542.5 306 Q 1571 399 1571 529 Q 1571 740 1504.5 860 Q 1438 980 1321 980 Q 1199 980 1131 883 L 1029 974 Q 1077 1039 1151.5 1078.5 Q 1226 1118 1324 1118 Q 1436 1118 1534.5 1040.5 Q 1633 963 1691 826.5 Q 1749 690 1749 527 Q 1749 367 1697.5 241.5 Q 1646 116 1554 48 Q 1462 -20 1347 -20 Q 1267 -20 1198.5 21.500002 Q 1130 63 1070 136 Q 1010 209 924 368 L 724 739 Q 646 885 596.5 932.5 Q 547 980 493 980 Q 388 980 328 869.5 Q 268 759 268 569 Q 268 358 334.5 238 Q 401 118 518 118 Q 640 118 708 215 L 810 124 Z"/>
        </g>
        <g transform="matrix(1 0 0 1 14006 1108)">
            <path fill="#000000" stroke="none" d="M 767 49 Q 723 19 628 -0.5 Q 533 -20 456 -20 Q 349 -20 260 21 L 260 -48 Q 260 -202 288.5 -279 Q 317 -356 380 -394 Q 443 -432 551 -432 L 736 -432 Q 875 -432 931 -406 Q 987 -380 987 -325 Q 987 -280 963.50006 -254 Q 940 -228 901 -228 Q 861 -228 842 -256 L 733 -183 Q 759 -145 804 -122.50001 Q 849 -100 901 -100 Q 1005 -100 1068 -162.5 Q 1131 -225 1131 -325 Q 1131 -437 1040.5 -503.49997 Q 950 -570 802 -570 L 530 -570 Q 328 -570 209 -425 Q 90 -280 90 -29 L 90 307 Q 90 381 143 448.5 Q 196 516 294 559 Q 202 592 146 657 Q 90 722 90 799 Q 90 940 229.5 1029 Q 369 1118 580 1118 Q 768 1118 909.5 1041.5 Q 1051 965 1126.5 824 Q 1202 683 1202 499 Q 1202 359 1175.5 214 Q 1149 69 1106 -20 L 967 43 Q 999 163 1011.5 257.5 Q 1024 352 1024 495 Q 1024 723 908.5 851.5 Q 793 980 585 980 Q 485 980 413.5 955.5 Q 342 931 305 888.5 Q 268 846 268 796 Q 268 720 342.5 670 Q 417 620 550 607 L 550 510 Q 416 497 342 444 Q 268 391 268 306 Q 268 215 324.5 166.5 Q 381 118 474 118 Q 528 118 598.5 132.5 Q 669 147 706 172 L 767 49 Z"/>
        </g>
        <g transform="matrix(1 0 0 1 15298 1108)">
            <path fill="#000000" stroke="none" d="M 70 56 Q 217 168 436 168 Q 609 168 707.50006 278.5 Q 806 389 806 575 Q 806 766 719 873 Q 632 980 481 980 Q 403 980 332.5 942 Q 262 904 221 839 L 90 915 Q 162 1013 268 1065.5 Q 374 1118 490 1118 Q 636 1118 748 1053.5 Q 860 989 922 866 Q 984 743 984 573 Q 984 420 914.5 297.5 Q 845 175 715 103 Q 846 33 924 -105.49999 Q 1002 -244 1014 -417 L 849 -406 Q 840 -278 787 -179 Q 734 -80 644 -25 Q 554 30 433 30 Q 264 30 154 -43 L 70 56 Z"/>
        </g>
        <g transform="matrix(1 0 0 1 16372 1108)">
            <path fill="#000000" stroke="none" d="M 1965 -50 Q 1958 44 1937 115 Q 1799 -20 1616 -20 Q 1500 -20 1415.5 15 Q 1331 50 1286 114 Q 1208 52 1104 16 Q 1000 -20 890 -20 Q 706 -20 598 66.5 Q 490 153 490 307 Q 490 381 543 448.5 Q 596 516 694 559 Q 602 592 546 657 Q 490 722 490 799 Q 490 943 621.5 1030.5 Q 753 1118 960 1118 Q 1184 1118 1325 1023 Q 1454 1118 1623 1118 Q 1852 1118 1987 974 Q 2122 830 2122 591 Q 2122 412 2041 256 Q 2099 140 2119 -20 L 1965 -50 Z M 965 980 Q 828 980 748 932 Q 668 884 668 796 Q 668 720 742.5 670 Q 817 620 950 607 L 950 510 Q 816 497 742 444 Q 668 391 668 306 Q 668 208 731.5 163 Q 795 118 923 118 Q 1006 118 1092.5 154.5 Q 1179 191 1244 252 L 1249 256 Q 1256 333 1299.5 394.5 Q 1343 456 1418.5 491 Q 1494 526 1590 526 Q 1790 526 1920 414 L 1928 407 Q 1944 483 1944 581 Q 1944 773 1859 876.5 Q 1774 980 1605 980 Q 1442 980 1324 830 Q 1315 839 1306.5 847 Q 1298 855 1228 913 Q 1126 980 965 980 Z M 719 1850 Q 646 1876 583 1876 Q 456 1876 378 1786.5 Q 300 1697 300 1553 L 300 -107 Q 300 -252 378 -341 Q 456 -430 583 -430 Q 646 -430 719 -404 L 764 -544 Q 680 -570 591 -570 Q 457 -570 351.5 -507 Q 246 -444 188 -329.5 Q 130 -215 130 -74 L 130 1520 Q 130 1662 188 1776.5001 Q 246 1891 352 1953.5 Q 458 2016 591 2016 Q 680 2016 764 1990 L 719 1850 Z M 1615 388 Q 1515 388 1466 349.5 Q 1417 311 1417 249 Q 1417 189 1467.5 153.5 Q 1518 118 1625 118 Q 1707 118 1770.4999 154.5 Q 1834 191 1871 255 Q 1825 322 1759.5 355 Q 1694 388 1615 388 Z"/>
        </g>
        <g transform="matrix(1 0 0 1 18584 1108)">
            <path fill="#000000" stroke="none" d="M 1327 138 Q 1265 138 1204 156 Q 1152 73 1085 27 Q 1018 -19 943 -20 Q 867 -20 804.5 12.5 Q 742 45 711 116 Q 646 -20 456 -20 Q 286 -20 188 76 Q 90 172 90 327 Q 90 414 138 484 Q 186 554 274 598 Q 173 639 131.5 695.5 Q 90 752 90 835 Q 90 913 137.5 979 Q 185 1045 271 1081.5 Q 357 1118 470 1118 Q 572 1118 678 1082 L 626 958 Q 556 980 489 980 Q 378 980 323 940 Q 268 900 268 835 Q 268 742 337.5 694 Q 407 646 565 646 L 565 526 L 544 527 L 529 527 Q 406 527 337 474.5 Q 268 422 268 328 Q 268 118 458 118 Q 543 118 588 185.5 Q 633 253 646 390 L 777 390 Q 803 118 939 118 Q 977 118 1013 144 Q 1049 170 1075 215 Q 955 293 884 426.5 Q 813 560 813 718 Q 813 813 843 907.5 Q 873 1002 924.49994 1060 Q 976 1118 1034 1118 Q 1111 1118 1175 1053 Q 1239 988 1278.5 865.50006 Q 1318 743 1318 615 Q 1318 441 1265 286 Q 1298 280 1334 279 L 1327 138 Z M 1158 604 Q 1158 739 1119.5 849 Q 1081 959 1021 981 Q 969 891 969 706 Q 969 596 1010 502.49997 Q 1051 409 1129 349 Q 1158 471 1158 604 Z"/>
        </g>
        <g transform="matrix(1 0 0 1 20550 1108)">
            <path fill="#000000" stroke="none" d="M 423 -10 Q 254 71 172 236.50002 Q 90 402 90 672 L 90 848 Q 90 1117 160 1319.5 Q 230 1522 360.50003 1631 Q 491 1740 665 1740 Q 893 1740 1032 1564 L 899 1461 Q 864 1525 790.5 1563.5 Q 717 1602 639 1602 Q 468 1602 381.5 1466 Q 295 1330 276 1002 Q 413 1118 588 1118 Q 739 1118 858 1048 Q 977 978 1041.5 849 Q 1106 720 1106 548 Q 1106 364 1020.49994 217 Q 935 70 783 -10 L 725 129 Q 819 169 873.5 274.5 Q 928 380 928 560 Q 928 762 840.5 871 Q 753 980 588 980 Q 500 980 425 945 Q 350 910 309 850 Q 268 790 268 721 L 268 640 Q 268 482 289 391.49997 Q 310 301 356 236 Q 402 171 479 129 L 423 -10 Z"/>
        </g>
        <g transform="matrix(1 0 0 1 21746 1108)">
            <path fill="#000000" stroke="none" d="M 735 -539 Q 687 -561 618 -575.5 Q 549 -590 496 -590 Q 292 -590 182 -380.5 Q 72 -171 72 194 L 72 320 L 250 290 L 250 282 Q 275 216 346 167 Q 417 118 492 118 Q 633 118 719.5 239 Q 806 360 806 555 Q 806 758 719.5 869 Q 633 980 481 980 Q 403 980 332.5 942 Q 262 904 221 839 L 90 915 Q 162 1013 268 1065.5 Q 374 1118 490 1118 Q 641 1118 752 1053 Q 863 988 923.5 861 Q 984 734 984 553 Q 984 380 919 250.5 Q 854 121 738.50006 50.5 Q 623 -20 483 -20 Q 356 -20 251 59 Q 257 -159 279 -260 Q 301 -361 345.50003 -406.49997 Q 390 -452 470 -452 Q 543 -452 615 -417 L 735 -539 Z"/>
        </g>
        <g transform="matrix(1 0 0 1 22820 1108)">
            <path fill="#000000" stroke="none" d="M 626 958 Q 556 980 489 980 Q 378 980 323 940 Q 268 900 268 835 Q 268 742 337.5 694 Q 407 646 565 646 L 565 526 L 545 527 L 529 527 Q 406 527 337 474.5 Q 268 422 268 328 Q 268 118 458 118 Q 543 118 588 185.5 Q 633 253 646 390 L 777 390 Q 803 118 939 118 Q 990 118 1030 166.5 Q 1070 215 1093.5 308.5 Q 1117 402 1117 535 Q 1117 696 1064 807.5 Q 1011 919 897 994 L 978 1118 Q 1132 1037 1213.5 887.5 Q 1295 738 1295 535 Q 1295 371 1248 245 Q 1201 119 1118.5 49.5 Q 1036 -20 943 -20 Q 867 -20 804.5 12.5 Q 742 45 711 116 Q 646 -20 456 -20 Q 286 -20 188 76 Q 90 172 90 327 Q 90 414 138 484 Q 186 554 274 598 Q 173 639 131.5 695.5 Q 90 752 90 835 Q 90 913 137.5 979 Q 185 1045 271 1081.5 Q 357 1118 470 1118 Q 572 1118 678 1082 L 626 958 Z"/>
        </g>
        <g transform="matrix(1 0 0 1 24205 1108)">
            <path fill="#000000" stroke="none" d="M 1387 1587 Q 1344 1602 1295 1602 Q 1221 1602 1182 1532 Q 1143 1462 1126.5 1305 Q 1110 1148 1110 821 Q 1110 -20 521 -20 Q 393 -20 296.5 19.5 Q 200 59 145 141 Q 90 223 90 327 Q 90 416 138.5 487.49997 Q 187 559 274 598 Q 173 639 131.5 695.5 Q 90 752 90 835 Q 90 913 137.5 979 Q 185 1045 271 1081.5 Q 357 1118 470 1118 Q 554 1118 638 1094.5 Q 722 1071 778 1033 L 710 919 Q 670 948 606.5 964 Q 543 980 489 980 Q 378 980 322 940 Q 266 900 266 835 Q 266 771 298.5 728.5 Q 331 686 398.5 666 Q 466 646 587 646 L 587 525 L 527 527 Q 404 527 335 477 Q 266 427 266 336 Q 266 233 331 175.5 Q 396 118 522 118 Q 734 118 833 274.5 Q 932 431 932 745 L 932 951 Q 932 1176 982.5 1360 Q 1033 1544 1122 1642 Q 1211 1740 1326 1740 Q 1381 1740 1454 1714 L 1387 1587 Z"/>
        </g>
        <g transform="matrix(1 0 0 1 25459 1108)">
            <path fill="#000000" stroke="none" d="M 1187 -20 Q 1207 48 1207 194 Q 1207 603 1062.5 791.5 Q 918 980 639 980 Q 460 980 363 935.5 Q 266 891 266 805 Q 266 721 347 673.5 Q 428 626 565 626 L 565 506 L 544 507 L 527 507 Q 404 507 335 454.49997 Q 266 402 266 308 Q 266 216 302.5 167 Q 339 118 408 118 Q 482 118 518 167 Q 554 216 570 322 L 688 322 Q 704 214 736.50006 166 Q 769 118 840 118 Q 889 118 925 158.5 Q 961 199 970 288 L 1112 252 Q 1064 -20 842 -20 Q 700 -20 629 112 Q 558 -20 406 -20 Q 318 -20 244.50002 24 Q 171 68 130.5 144 Q 90 220 90 307 Q 90 394 138 464 Q 186 534 274 578 Q 90 646 90 805 Q 90 850 115.5 904.5 Q 141 959 204 1006.5 Q 267 1054 373.5 1086 Q 480 1118 643 1118 Q 881 1118 1044.5 1011 Q 1208 904 1292.5 694 Q 1377 484 1377 195 Q 1377 89 1360 4 L 1187 -20 Z"/>
        </g>
        <g transform="matrix(1 0 0 1 26896 1108)">
            <path fill="#000000" stroke="none" d="M 835 -50 Q 828 44 807 115 Q 669 -20 486 -20 Q 373 -20 291 12.5 Q 209 45 164 104.5 Q 119 164 119 235 Q 119 316 161.5 383 Q 204 450 281.5 488 Q 359 526 460 526 Q 660 526 790 414 L 798 407 Q 814 483 814 581 Q 814 773 729 876.5 Q 644 980 475 980 Q 400 980 342 942.5 Q 284 905 267 842 L 90 858 Q 90 1740 585 1740 Q 813 1740 952 1564 L 819 1461 Q 784 1525 710.5 1563.5 Q 637 1602 559 1602 Q 483 1602 431.5 1576.4999 Q 380 1551 344 1496 Q 308 1441 289.5 1349 Q 271 1257 267 1049 Q 371 1118 512 1118 Q 652 1118 761.5 1053 Q 871 988 931.50006 867 Q 992 746 992 591 Q 992 412 911 256 Q 969 140 989 -20 L 835 -50 Z M 485 388 Q 385 388 336 349.5 Q 287 311 287 249 Q 287 189 337.5 153.5 Q 388 118 495 118 Q 577 118 640.5 154.5 Q 704 191 741 255 Q 695 322 629.5 355 Q 564 388 485 388 Z"/>
        </g>
        <g transform="matrix(1 0 0 1 28500 1108)">
            <path fill="#000000" stroke="none" d="M 835 -50 Q 828 44 807 115 Q 669 -20 486 -20 Q 373 -20 291 12.5 Q 209 45 164 104.5 Q 119 164 119 235 Q 119 316 161.5 383 Q 204 450 281.5 488 Q 359 526 460 526 Q 660 526 790 414 L 798 407 Q 814 483 814 581 Q 814 773 729 876.5 Q 644 980 475 980 Q 397 980 326.5 942 Q 256 904 215 839 L 90 911 Q 150 1006 258 1062 Q 366 1118 493 1118 Q 722 1118 857 974 Q 992 830 992 591 Q 992 412 911 256 Q 969 140 989 -20 L 835 -50 Z M 485 388 Q 385 388 336 349.5 Q 287 311 287 249 Q 287 189 337.5 153.5 Q 388 118 495 118 Q 577 118 640.5 154.5 Q 704 191 741 255 Q 695 322 629.5 355 Q 564 388 485 388 Z"/>
        </g>
        <g transform="matrix(1 0 0 1 29582 1108)">
            <path fill="#000000" stroke="none" d="M 1130 560 Q 1130 395 1063.5 262.5 Q 997 130 873.5 55 Q 750 -20 585 -20 Q 349 -20 219.49998 65.5 Q 90 151 90 307 Q 90 381 143 448.5 Q 196 516 294 559 Q 202 592 146 657 Q 90 722 90 799 Q 90 943 221.5 1030.5 Q 353 1118 560 1118 Q 737 1118 866 1048.5 Q 995 979 1062.5 851.5 Q 1130 724 1130 560 Z M 550 510 Q 416 497 342 444 Q 268 391 268 306 Q 268 209 345.50003 163.5 Q 423 118 575 118 Q 691 118 775.5 170.5 Q 860 223 906 326 Q 952 429 952 560 Q 952 759 850 869.5 Q 748 980 565 980 Q 428 980 348 932 Q 268 884 268 796 Q 268 720 342.5 670 Q 417 620 550 607 L 550 510 Z"/>
        </g>
        <g transform="matrix(1 0 0 1 30802 1108)">
            <path fill="#000000" stroke="none" d="M 1112 158 Q 1184 118 1262 118 Q 1398 118 1479 238 Q 1560 358 1560 563 Q 1560 760 1482.5 870 Q 1405 980 1265 980 Q 1158 980 1088 902.5 Q 1018 825 1001 690 Q 1013 622 1013 551 Q 1013 290 887.5 135 Q 762 -20 547 -20 Q 417 -20 312 54 Q 207 128 148.5 259.5 Q 90 391 90 551 Q 90 717 147 847 Q 204 977 310 1047.5 Q 416 1118 554 1118 Q 787 1118 916 925 Q 971 1012 1066.5 1065 Q 1162 1118 1270 1118 Q 1407 1118 1514 1052.5 Q 1621 987 1679.4999 865 Q 1738 743 1738 575 Q 1738 391 1680.5 257 Q 1623 123 1516.4999 51.5 Q 1410 -20 1270 -20 Q 1137 -20 1031 41 L 1112 158 Z M 268 551 Q 268 350 343 234 Q 418 118 552 118 Q 689 118 762 232.5 Q 835 347 835 551 Q 835 757 761 868.5 Q 687 980 549 980 Q 416 980 342 867 Q 268 754 268 551 Z"/>
        </g>
        <g transform="matrix(1 0 0 1 32630 1108)">
            <path fill="#000000" stroke="none" d="M 602 895 Q 548 910 489 910 Q 268 910 268 774 Q 268 706 349.5 666 Q 431 626 565 626 L 565 506 L 545 507 L 529 507 Q 405 507 336.5 458 Q 268 409 268 318 Q 268 216 313 167 Q 358 118 458 118 Q 543 118 588 185.5 Q 633 253 646 390 L 777 390 Q 803 118 939 118 Q 1000 118 1050.5 179 Q 1101 240 1129.5 352 Q 1158 464 1158 604 Q 1158 816 1087.5 924.49994 Q 1017 1033 860 1080 L 750 1111 Q 548 1163 471 1237 Q 394 1311 394 1432 Q 394 1511 450.5 1583.5 Q 507 1656 604.5 1698 Q 702 1740 821 1740 Q 950 1740 1057 1694 Q 1164 1648 1232 1569 L 1112 1476 Q 1054 1542 987.5 1572 Q 921 1602 809 1602 Q 700 1602 635.5 1553.5001 Q 571 1505 571 1425 Q 571 1353 623 1307 Q 675 1261 789 1230 L 917 1195 Q 1132 1136 1225 999.5 Q 1318 863 1318 615 Q 1318 440 1268.5 295 Q 1219 150 1131.5 65 Q 1044 -20 943 -20 Q 867 -20 804.5 12.5 Q 742 45 711 116 Q 646 -20 456 -20 Q 284 -20 187 72 Q 90 164 90 317 Q 90 486 274 578 Q 90 653 90 788 Q 90 863 135.5 922.5 Q 181 982 266.5 1015 Q 352 1048 470 1048 Q 559 1048 647 1022 L 602 895 Z"/>
        </g>
        <g transform="matrix(1 0 0 1 34038 1108)">
            <path fill="#000000" stroke="none" d="M 655 135 Q 589 -20 422 -20 Q 329 -20 252.50002 45.5 Q 176 111 133 233.5 Q 90 356 90 523 Q 90 690 159.5 827 Q 229 964 357.5 1041 Q 486 1118 655 1118 Q 823 1118 950 1042 Q 1077 966 1145.5 827 Q 1214 688 1214 510 Q 1214 356 1170.5 234.5 Q 1127 113 1051 46.5 Q 975 -20 885 -20 Q 801 -20 745 18 Q 689 56 655 135 Z M 716 348 Q 731 240 773 179 Q 815 118 881 118 Q 959 118 997.5 223 Q 1036 328 1036 518 Q 1036 741 939 860.49994 Q 842 980 655 980 Q 464 980 366 862 Q 268 744 268 518 Q 268 327 308.5 222.5 Q 349 118 426 118 Q 559 118 595 348 L 716 348 Z"/>
        </g>
        <g transform="matrix(1 0 0 1 35342 1108)">
            <path fill="#000000" stroke="none" d="M 996 -256 Q 977 -228 937 -228 Q 898 -228 874.5 -253.5 Q 851 -279 851 -325 Q 851 -380 906.5 -406 Q 962 -432 1102 -432 L 1287 -432 Q 1394 -432 1457 -394.5 Q 1520 -357 1549 -280.5 Q 1578 -204 1578 -48 L 1578 96 Q 1462 -20 1324 -20 Q 1226 -20 1151.5 19.5 Q 1077 59 1029 124 L 1131 215 Q 1199 118 1321 118 Q 1438 118 1504.5 239 Q 1571 360 1571 569 Q 1571 698 1542.5 791.5 Q 1514 885 1463.5 932.5 Q 1413 980 1346 980 Q 1292 980 1243 932.5 Q 1194 885 1115 739 L 915 368 Q 831 212 770.50006 138 Q 710 64 641.5 22 Q 573 -20 492 -20 Q 376 -20 283.5 48.5 Q 191 117 140.5 242.5 Q 90 368 90 527 Q 90 689 148 826 Q 206 963 304 1040.5 Q 402 1118 515 1118 Q 613 1118 687.5 1078.5 Q 762 1039 810 974 L 708 883 Q 640 980 518 980 Q 401 980 334.5 859 Q 268 738 268 529 Q 268 339 328.5 228.50002 Q 389 118 493 118 Q 547 118 596.5 166 Q 646 214 724 359 L 924 730 Q 1008 886 1068.5 960 Q 1129 1034 1197.5 1076 Q 1266 1118 1347 1118 Q 1462 1118 1554 1050 Q 1646 982 1697.5 857 Q 1749 732 1749 571 L 1748 526 L 1748 -29 Q 1748 -279 1629 -424.50003 Q 1510 -570 1308 -570 L 1036 -570 Q 887 -570 797 -503.49997 Q 707 -437 707 -325 Q 707 -226 770 -163 Q 833 -100 937 -100 Q 988 -100 1033 -122.50001 Q 1078 -145 1105 -183 L 996 -256 Z"/>
        </g>
        <g transform="matrix(1 0 0 1 37713 1108)">
            <path fill="#000000" stroke="none" d="M 1417 1587 Q 1374 1602 1325 1602 Q 1251 1602 1212 1533 Q 1173 1464 1156.5 1307 Q 1140 1150 1140 821 Q 1140 388 1007.5 184 Q 875 -20 596 -20 Q 457 -20 339 54.5 Q 221 129 155.5 259 Q 90 389 90 545 Q 90 727 177.5 879.5 Q 265 1032 415 1108 L 471 976 Q 366 924 317 817 Q 268 710 268 543 Q 268 339 355 228.50002 Q 442 118 602 118 Q 737 118 814.5 178.5 Q 892 239 927 370 Q 962 501 962 745 L 962 951 Q 962 1176 1012.5 1360 Q 1063 1544 1152 1642 Q 1241 1740 1356 1740 Q 1411 1740 1484 1714 L 1417 1587 Z"/>
        </g>
        <g transform="matrix(1 0 0 1 38997 1108)">
            <path fill="#000000" stroke="none" d="M 1597 1501 Q 1503 1602 1341 1602 Q 1143 1602 1143 1436 Q 1143 1392 1174 1355.5 Q 1205 1319 1275 1280 Q 1390 1213 1445.5 1155 Q 1501 1097 1530.5 1016.5 Q 1560 936 1560 830 L 1560 20 L 1390 0 L 1390 812 Q 1390 897 1367.5 959.49994 Q 1345 1022 1306 1067.5 Q 1267 1113 1178 1166 L 1100 1212 Q 1033 1252 999 1306.5 Q 965 1361 965 1436 Q 965 1503 1021 1576 Q 1077 1649 1166.5 1694.5 Q 1256 1740 1353 1740 Q 1572 1740 1720 1592 L 1597 1501 Z M 495 -294 L 512 -292 L 528 -292 Q 623 -292 682.5 -333.5 Q 742 -375 742 -440 Q 742 -510 676 -555 Q 610 -600 507 -600 Q 372 -600 294 -537.5 Q 216 -475 216 -370 Q 216 -290 268.5 -227 Q 321 -164 421 -127 Q 521 -90 670 -90 Q 808 -90 909 -121 Q 1010 -152 1066.5 -217.5 Q 1123 -283 1123 -370 Q 1123 -422 1092.5 -470.49997 Q 1062 -519 1006 -554 Q 950 -589 871 -600 L 832 -495 Q 895 -489 934 -453 Q 973 -417 973 -366 Q 973 -218 671 -218 Q 510 -218 438 -254.5 Q 366 -291 366 -366 Q 366 -415 402.5 -445.5 Q 439 -476 515 -476 Q 550 -476 576.5 -466 Q 603 -456 603 -439 Q 603 -397 525 -397 L 512 -398 L 495 -294 Z M 385 -20 Q 244 81 167 249.5 Q 90 418 90 613 Q 90 764 135 878.5 Q 180 993 259.5 1055.5 Q 339 1118 432 1118 Q 604 1118 673 963 Q 742 1118 915 1118 Q 1009 1118 1088 1055.5 Q 1167 993 1212 878.5 Q 1257 764 1257 613 Q 1257 417 1179.5 248.5 Q 1102 80 962 -20 L 893 99 Q 982 173 1030.5 301 Q 1079 429 1079 590 Q 1079 774 1036.5 877 Q 994 980 911 980 Q 838 980 794.5 908.5 Q 751 837 739 708 L 608 708 Q 596 838 552 909 Q 508 980 436 980 Q 353 980 310.5 878 Q 268 776 268 590 Q 268 429 316.5 301.5 Q 365 174 454 99 L 385 -20 Z"/>
        </g>
        <g transform="matrix(1 0 0 1 40657 1108)">
            <path fill="#000000" stroke="none" d="M 655 114 Q 756 125 813.5 179 Q 871 233 871 316 Q 871 483 589 510 L 589 607 Q 721 620 796 670 Q 871 720 871 796 Q 871 846 838 888 Q 805 930 743.5 955 Q 682 980 601 980 Q 429 980 348.5 874.5 Q 268 769 268 533 Q 268 384 322.5 269.5 Q 377 155 471 114 L 413 -20 Q 306 28 235 112 Q 164 196 127 305 Q 90 414 90 538 Q 90 707 151.5 839 Q 213 971 328 1044.5 Q 443 1118 606 1118 Q 725 1118 828.49994 1076.5 Q 932 1035 990.49994 962.50006 Q 1049 890 1049 799 Q 1049 722 993 657 Q 937 592 845 559 Q 951 514 1000 448.5 Q 1049 383 1049 317 Q 1049 182 945.5 85 Q 842 -12 696 -20 L 655 114 Z"/>
        </g>
        <g transform="matrix(1 0 0 1 41796 1108)">
            <path fill="#000000" stroke="none" d="M 881 839 Q 835 908 764.49994 944 Q 694 980 612 980 Q 453 980 360.50003 862 Q 268 744 268 555 Q 268 390 345.50003 280 Q 423 170 550 148 L 624 136 Q 789 108 892.49994 43 Q 996 -22 1067.5 -142 Q 1139 -262 1210 -517 L 1045 -565 Q 983 -301 883.5 -167 Q 784 -33 629 -9 L 572 0 Q 323 41 206.5 178.5 Q 90 316 90 553 Q 90 711 155.5 841 Q 221 971 340.5 1044.5 Q 460 1118 610 1118 Q 728 1118 834 1065.5 Q 940 1013 1012 915 L 881 839 Z"/>
        </g>
        <g transform="matrix(1 0 0 1 42926 1108)">
            <path fill="#000000" stroke="none" d="M 1013 551 Q 1013 290 887.5 135 Q 762 -20 547 -20 Q 417 -20 312 54 Q 207 128 148.5 259.5 Q 90 391 90 551 Q 90 717 147 847 Q 204 977 310 1047.5 Q 416 1118 554 1118 Q 691 1118 795.5 1047.5 Q 900 977 956.49994 848 Q 1013 719 1013 551 Z M 268 551 Q 268 350 343 234 Q 418 118 552 118 Q 689 118 762 232.5 Q 835 347 835 551 Q 835 757 761 868.5 Q 687 980 549 980 Q 416 980 342 867 Q 268 754 268 551 Z"/>
        </g>
        <g transform="matrix(1 0 0 1 44029 1108)">
            <path fill="#000000" stroke="none" d="M 978 961 Q 1038 1049 1123.5 1083.5 Q 1209 1118 1312 1118 Q 1439 1118 1545 1050 Q 1651 982 1711.5 858 Q 1772 734 1772 563 Q 1772 387 1709 254.5 Q 1646 122 1531.5 51 Q 1417 -20 1271 -20 Q 1010 -20 844 156 Q 699 -20 486 -20 Q 373 -20 291 12.5 Q 209 45 164 104.5 Q 119 164 119 235 Q 119 316 161.5 383 Q 204 450 281.5 488 Q 359 526 460 526 Q 663 526 798 407 Q 814 484 814 581 Q 814 773 729 876.5 Q 644 980 475 980 Q 397 980 326.5 942 Q 256 904 215 839 L 90 911 Q 150 1006 258 1062 Q 366 1118 493 1118 Q 722 1118 857 974 Q 992 830 992 591 Q 992 426 926 286 Q 978 213 1072 165.5 Q 1166 118 1270 118 Q 1421 118 1507.5 238 Q 1594 358 1594 565 Q 1594 695 1555.5001 788.5 Q 1517 882 1448.4999 931 Q 1380 980 1289 980 Q 1232 980 1184.5 953 Q 1137 926 1108 881 L 978 961 Z M 485 388 Q 385 388 336 349.5 Q 287 311 287 249 Q 287 189 337.5 153.5 Q 388 118 495 118 Q 577 118 640.5 154.5 Q 704 191 741 255 Q 695 320 629 354 Q 563 388 485 388 Z"/>
        </g>
    </g>
</svg>
