<svg width="31197" height="3789" viewBox="0 0 31197 3789" xmlns="http://www.w3.org/2000/svg">
    <defs/>
    <g transform="matrix(1 0 0 -1 0 3789)">
        <g transform="matrix(1 0 0 1 0 1100)">
            <path fill="#000000" stroke="none" d="M 160 0 L 473 829 Q 285 1044 258 1298 L 410 1298 Q 432 1112 530 983 Q 643 1298 899 1298 Q 1034 1298 1123 1207 Q 1212 1116 1212 971 Q 1212 834 1112 735.49994 Q 1012 637 866 637 Q 729 637 600 717 L 328 0 L 160 0 Z M 905 1159 Q 813 1159 755.5 1074 Q 698 989 651 852 Q 739 776 860 776 Q 956 776 1010.5 837.5 Q 1065 899 1065 985 Q 1065 1067 1019 1113 Q 973 1159 905 1159 Z"/>
        </g>
        <g transform="matrix(1 0 0 1 1284 1100)">
            <path fill="#000000" stroke="none" d="M 1071 1217 L 522 741 L 1071 741 L 1071 623 L 436 0 L 236 0 L 842 602 L 264 602 L 264 707 Q 668 1059 748 1120 Q 666 1108 614 1108 Q 395 1108 240 1169 L 293 1298 Q 422 1266 505 1258.5 Q 588 1251 680 1251 Q 895 1251 1071 1298 L 1071 1217 Z"/>
        </g>
        <g transform="matrix(1 0 0 1 2351 1100)">
            <path fill="#000000" stroke="none" d="M 547 254 L 655 389 L 782 535 L 1487 1298 L 1649 1298 L 1350 0 L 1186 0 L 1374 811 L 1432 1044 Q 1405 1010 1327 920.5 Q 1249 831 492 0 L 330 0 L 590 1128 L 84 881 L 127 1065 L 524 1260 Q 602 1300 670 1300 Q 717 1300 737.50006 1268.5 Q 758 1237 758 1200 Q 758 1141 740.5 1061 Q 723 981 690 842 L 586 403 Q 569 324 547 254 Z"/>
        </g>
        <g transform="matrix(1 0 0 1 4143 1100)">
            <path fill="#000000" stroke="none" d="M 1245 1044 Q 1219 1010 1141 920.5 Q 1063 831 305 0 L 143 0 L 442 1298 L 606 1298 L 399 403 Q 383 324 360 254 L 469 389 L 596 535 L 1300 1298 L 1462 1298 Q 1229 279 1204 190 L 1493 303 Q 1538 324 1587 324 Q 1698 324 1698 172 Q 1698 59 1630.5 -78 Q 1563 -215 1444 -338 L 1339 -248 Q 1550 8 1550 166 L 1104 0 L 999 0 L 1188 811 L 1245 1044 Z"/>
        </g>
        <g transform="matrix(1 0 0 1 5970 1100)">
            <path fill="#000000" stroke="none" d="M 1104 289 Q 1317 432 1419.4999 516 Q 1522 600 1606 678 L 1708 569 Q 1475 350 1192 170 L 1104 289 Z M 483 190 Q 727 373 1036.5 664.5 Q 1346 956 1653 1298 L 1849 1298 Q 967 324 449 0 L 287 0 L 555 1133 L 100 909 L 143 1096 L 483 1260 Q 565 1298 629 1298 Q 676 1298 696.5 1267.5 Q 717 1237 717 1200 Q 717 1149 678 983 L 549 442 L 483 190 Z"/>
        </g>
        <g transform="matrix(1 0 0 1 7764 1100)">
            <path fill="#000000" stroke="none" d="M 442 1298 L 606 1298 L 406 442 L 340 190 Q 584 373 893 664.5 Q 1202 956 1509 1298 L 1706 1298 Q 1284 840 1069 629 L 1462 197 L 1354 98 L 958 526 Q 606 193 305 0 L 143 0 L 442 1298 Z"/>
        </g>
        <g transform="matrix(1 0 0 1 9945 1100)">
            <path fill="#000000" stroke="none" d="M 362 303 L 1114 1298 L 1276 1298 L 1233 532 Q 1229 387 1206 248 Q 1233 297 1257.5 339 Q 1282 381 1872 1298 L 2046 1298 L 1210 0 L 1049 0 L 1090 788 Q 1108 1034 1112 1067 Q 1087 1026 938 823 L 305 0 L 143 0 L 442 1298 L 606 1298 Q 506 868 451.5 639 Q 397 410 362 303 Z"/>
        </g>
        <g transform="matrix(1 0 0 1 11911 1100)">
            <path fill="#000000" stroke="none" d="M 475 190 Q 719 373 1028 664.5 Q 1337 956 1645 1298 L 1841 1298 Q 1438 858 1200 627 L 1597 197 L 1489 98 L 1094 526 Q 741 193 440 0 L 279 0 L 506 979 L 63 811 L 102 983 L 436 1110 Q 522 1145 580 1145 Q 627 1145 647.5 1114 Q 668 1083 668 1047 Q 668 965 596 670 Q 524 375 475 190 Z"/>
        </g>
        <g transform="matrix(1 0 0 1 13699 1100)">
            <path fill="#000000" stroke="none" d="M 338 190 Q 582 373 891 664.5 Q 1200 956 1507 1298 L 1704 1298 Q 821 324 303 0 L 141 0 L 442 1298 L 604 1298 L 414 483 L 338 190 Z"/>
        </g>
        <g transform="matrix(1 0 0 1 15348 1100)">
            <path fill="#000000" stroke="none" d="M 688 1130 Q 688 1096 672 1014 L 1055 692 Q 1298 924 1642 1298 L 1839 1298 Q 1442 860 1167 596 L 1612 223 L 1513 111 L 1061 496 Q 729 186 438 0 L 276 0 L 526 1063 L 82 870 L 123 1049 L 455 1190 Q 553 1229 600 1229 Q 647 1229 667.5 1198 Q 688 1167 688 1130 Z M 473 190 Q 586 274 748.5 413.5 Q 911 553 946 592 L 635 856 L 539 442 L 473 190 Z"/>
        </g>
        <g transform="matrix(1 0 0 1 17134 1100)">
            <path fill="#000000" stroke="none" d="M 1462 1298 L 1163 0 L 999 0 L 1188 811 L 1245 1044 Q 1219 1010 1141 920.5 Q 1063 831 305 0 L 143 0 L 442 1298 L 606 1298 L 399 403 Q 383 324 360 254 L 469 389 L 596 535 L 1300 1298 L 1462 1298 Z"/>
        </g>
        <g transform="matrix(1 0 0 1 18740 1100)">
            <path fill="#000000" stroke="none" d="M 1458 1028 L 1194 760 Q 668 225 293 0 L 131 0 Q 270 293 362.5 540.5 Q 455 788 541 1137 L 98 956 L 137 1128 L 469 1266 Q 547 1298 618 1298 Q 666 1298 686.5 1267.5 Q 707 1237 707 1200 Q 707 1122 639 884.5 Q 571 647 520 509 Q 469 371 410 248 Q 766 518 1260 1030 L 1520 1298 L 1681 1298 Q 1522 553 1309 160 Q 1401 178 1540 248.5 Q 1679 319 1788 408 L 1917 408 Q 1837 301 1794 115.5 Q 1751 -70 1751 -285 L 1602 -285 Q 1602 0 1653 150 Q 1368 0 1116 0 L 1077 0 Q 1200 256 1285 485.5 Q 1370 715 1458 1028 Z"/>
        </g>
        <g transform="matrix(1 0 0 1 21234 1100)">
            <path fill="#000000" stroke="none" d="M 489 190 Q 733 373 1042.5 664.5 Q 1352 956 1659 1298 L 1855 1298 Q 973 324 455 0 L 293 0 L 518 979 L 63 756 L 106 940 L 446 1106 Q 528 1145 592 1145 Q 639 1145 659.5 1114 Q 680 1083 680 1047 Q 680 965 608 670 Q 520 295 489 190 Z"/>
        </g>
        <g transform="matrix(1 0 0 1 23036 1100)">
            <path fill="#000000" stroke="none" d="M 1083 1298 L 496 0 L 322 0 L 836 1133 Q 717 1112 561 1112 Q 305 1112 166 1174 L 217 1298 Q 371 1251 584 1251 Q 821 1251 963 1298 L 1083 1298 Z"/>
        </g>
        <g transform="matrix(1 0 0 1 24099 1100)">
            <path fill="#000000" stroke="none" d="M 932 1122 Q 1096 1014 1315 956 Q 1372 1128 1445 1198 Q 1518 1268 1628 1268 Q 1729 1268 1796.5 1210.5 Q 1864 1153 1864 1065 Q 1864 936 1772.4999 859 Q 1681 782 1544 782 L 1427 791 L 1182 0 L 1016 0 L 1272 823 Q 1049 881 889 985 L 584 0 L 418 0 L 770 1135 Q 674 1100 541 1100 Q 438 1100 326.5 1121.5 Q 215 1143 156 1171 L 211 1298 Q 389 1239 545 1239 Q 702 1239 817 1298 L 987 1298 L 932 1122 Z M 1632 1128 Q 1571 1128 1536 1075 Q 1501 1022 1470 930 L 1550 924 Q 1638 924 1677 961.50006 Q 1716 999 1716 1047 Q 1716 1081 1694.5 1104.5 Q 1673 1128 1632 1128 Z"/>
        </g>
        <g transform="matrix(1 0 0 1 26077 1100)">
            <path fill="#000000" stroke="none" d="M 545 442 Q 530 383 516 324.5 Q 502 266 479 190 Q 528 227 582.5 272 Q 637 317 688 358 Q 809 459 935 574.5 Q 1061 690 1184 811 Q 1307 932 1424.5 1056 Q 1542 1180 1649 1298 L 1845 1298 Q 1706 1145 1539 968 Q 1372 791 1191 614.5 Q 1010 438 820.5 277.5 Q 631 117 444 0 L 283 0 L 449 725 L 4 541 L 45 719 L 379 854 Q 420 870 454.49997 882.5 Q 489 895 524 895 Q 571 895 591.5 864.50006 Q 612 834 612 797 Q 612 768 610 743.5 Q 608 719 602 687 Q 596 655 584.5 607 Q 573 559 555 483 L 545 442 Z M 764 1380 L 682 1024 L 518 1024 L 600 1380 L 764 1380 Z"/>
        </g>
        <g transform="matrix(1 0 0 1 27859 1100)">
            <path fill="#000000" stroke="none" d="M 596 1133 L 84 881 L 127 1065 L 524 1260 Q 606 1298 670 1298 Q 717 1298 737.50006 1267.5 Q 758 1237 758 1200 Q 758 1118 686 823 L 606 483 L 539 240 L 725 422 Q 1090 776 1282 1159 L 1354 1298 L 1458 1298 L 1458 1147 Q 1458 1008 1514.4999 932 Q 1571 856 1665 856 Q 1737 856 1799.5 899 Q 1862 942 1972 1096 L 2079 1010 Q 1974 850 1878 783.5 Q 1782 717 1659 717 Q 1542 717 1454 785.5 Q 1366 854 1341 965 Q 1214 745 1036 541.5 Q 858 338 710.5 209 Q 563 80 434 0 L 334 0 L 596 1133 Z"/>
        </g>
        <g transform="matrix(1 0 0 1 29942 1100)">
            <path fill="#000000" stroke="none" d="M 1104 604 L 139 604 L 172 743 L 1137 743 L 1104 604 Z"/>
        </g>
    </g>
</svg>
