<svg width="41050" height="3900" viewBox="0 0 41050 3900" xmlns="http://www.w3.org/2000/svg">
    <defs/>
    <g transform="matrix(1 0 0 -1 0 3900)">
        <g transform="matrix(1 0 0 1 0 1300)">
            <path fill="#000000" stroke="none" d="M 310 893 Q 371 893 371 967 Q 371 1040 310 1040 Q 249 1040 249 967 Q 249 893 310 893 Z M 284 343 Q 284 124 654 124 Q 1022 124 1022 392 L 1022 1105 Q 1022 1140 1090 1140 Q 1157 1140 1157 1105 L 1156 389 Q 1155 0 651 0 Q 147 0 147 343 Q 147 541 259 696 Q 297 748 322 795 Q 147 797 147 967 Q 147 1138 325 1140 Q 503 1138 503 967 Q 503 820 393.50003 658.5 Q 284 497 284 343 Z"/>
        </g>
        <g transform="matrix(1 0 0 1 1325 1300)">
            <path fill="#000000" stroke="none" d="M 717 191 Q 717 244 669 244 Q 621 244 621 191 Q 621 138 669 138 Q 717 138 717 191 Z M 522 312 Q 522 207 539 203 Q 549 321 675 321 Q 800 321 802 198 Q 796 0 631 0 Q 399 0 399 312 L 399 921 Q 401 1079 529 1207 Q 656 1334 656 1441 Q 653 1657 401 1657 Q 135 1657 135 1441 Q 151 1319 232 1304 Q 240 1303 247 1303 Q 304 1303 346 1370 L 442 1296 Q 351 1176 256 1176 Q 242 1176 227 1179 Q 170 1183 127 1211 Q 84 1239 53.5 1275.5 Q 23 1312 11.5 1352 Q 0 1392 0 1441 Q 0 1784 401 1784 Q 792 1784 795 1441 Q 795 1298 614 1126 Q 522 1038 522 921 L 522 312 Z"/>
        </g>
        <g transform="matrix(1 0 0 1 2274 1300)">
            <path fill="#000000" stroke="none" d="M 462 989 Q 462 1053 398 1053 Q 333 1053 333 989 Q 333 926 398 926 Q 462 926 462 989 Z M 963 926 Q 1024 942 1037 992 Q 1013 1048 963 1048 Q 902 1048 895 979 Q 902 926 963 926 Z M 682 103 Q 612 0 460 0 Q 168 0 168 335 L 168 860 Q 168 1132 398 1140 Q 567 1136 567 981 L 567 970 Q 548 831 415 825 Q 349 825 303 873 L 303 335 Q 303 127 462 127 Q 615 127 615 309 L 615 374 Q 615 424 682 424 Q 749 424 749 367 L 746 323 L 746 316 Q 746 127 897 127 Q 1051 127 1051 335 L 1051 865 Q 1025 825 948 825 Q 805 831 789 974 Q 789 1128 967 1140 Q 1044 1140 1084 1096 Q 1092 1131 1092 1160 Q 1092 1170 1091 1180 L 1091 1182 Q 1091 1210 1137 1210 Q 1185 1210 1191.5 1194.5 Q 1198 1179 1200 1141 Q 1198 1094 1167 1009 Q 1186 946 1186 855 L 1186 335 Q 1186 0 905 0 Q 753 0 682 103 Z"/>
        </g>
        <g transform="matrix(1 0 0 1 3628 1300)">
            <path fill="#000000" stroke="none" d="M 407 85 Q 481 85 481 154 Q 481 223 407 223 Q 332 223 332 154 Q 332 85 407 85 Z M 935 0 Q 876 0 814.5 39.5 Q 753 79 713 176 Q 673 273 611 321.5 Q 549 370 478 375 Q 465 376 453 376 Q 317 376 300 281 Q 343 323 399 323 Q 583 303 583 182 Q 585 165 585 150 Q 585 2 389 0 Q 147 6 147 261 Q 169 507 457 507 L 471 507 Q 591 493 681 440 Q 771 387 825 264 Q 879 141 935 141 Q 1024 141 1024 200 L 1024 800 Q 1024 1005 676 1005 L 649 1005 Q 282 1005 281 831 Q 281 800 214 800 Q 147 800 147 831 Q 147 1140 652 1140 Q 1157 1140 1157 799 L 1157 200 Q 1157 0 935 0 Z"/>
        </g>
        <g transform="matrix(1 0 0 1 4953 1300)">
            <path fill="#000000" stroke="none" d="M 377 902 Q 377 972 308 972 Q 239 972 239 902 Q 239 832 308 832 Q 377 832 377 902 Z M 599 0 Q 537 0 537 34 L 537 828 Q 537 983 428 996 Q 470 955 470 902 Q 470 729 329 729 Q 313 727 298 727 Q 149 727 147 912 Q 153 1140 378 1140 Q 660 1140 660 825 L 660 34 Q 660 0 599 0 Z"/>
        </g>
        <g transform="matrix(1 0 0 1 5781 1300)">
            <path fill="#000000" stroke="none" d="M 345.50003 353 Q 331 367 310 367 Q 286 367 270.5 352.5 Q 255 338 255 316 Q 255 293 270.5 279 Q 286 265 310 265 Q 331 265 345.50003 279 Q 360 293 360 316 L 360 317 Q 360 339 345.50003 353 Z M 1014 803 Q 1014 865 979 904 Q 937 949 872 971 Q 807 993 726 1003 Q 689 1007 650 1007 Q 601 1007 547 1001 Q 450 988 396 961.50006 Q 342 935 309 884 Q 282 842 282 800 Q 282 790 284 781 Q 291 730 347 689 Q 403 648 521 636 Q 575 630 626 630 Q 686 630 741 638 Q 844 652 913 681.5 Q 982 711 1013 781 Q 1014 792 1014 803 Z M 617 0 Q 411 9 314 66 Q 231 104 191 164 Q 151 224 147 297 Q 156 360 183 398.5 Q 210 437 260 450 Q 286 457 311 457 Q 332 457 352 452 Q 395 441 417.5 414.5 Q 440 388 449 359 Q 453 341 453 322 Q 453 309 451 295 Q 445 261 421 230 Q 397 200 376 200 L 373 200 Q 395 170 506 152 Q 590 138 654 138 Q 676 138 695 139 Q 772 145 831.49994 164.5 Q 891 184 933 211.49998 Q 975 239 1005 294 Q 1030 340 1030 419 Q 1030 435 1029 452 L 1029 611 Q 980 565 912 541 Q 844 517 741 508 Q 664 501 594 501 Q 571 501 548 502 Q 458 505 394 525.5 Q 330 546 275 581 Q 220 616 188 669 Q 156 722 152 776 Q 150 793 150 810 Q 150 844 156 875 Q 165 921 211 981 Q 257 1041 336.5 1075.5 Q 416 1110 499 1125 Q 582 1140 650 1140 Q 744 1140 842 1115.5 Q 940 1091 1006.5 1048 Q 1073 1005 1115 930 Q 1157 855 1157 747 L 1157 345 Q 1157 285 1125 217 Q 1088 157 1042 120 Q 996 83 925 52.5 Q 854 22 725 9 L 617 0 Z"/>
        </g>
        <g transform="matrix(1 0 0 1 7746 1300)">
            <path fill="#000000" stroke="none" d="M 291 893 Q 346 893 346 967 Q 346 1040 291 1040 Q 237 1040 237 967 Q 237 893 291 893 Z M 667 1045 Q 624 1041 621 1001 Q 621 957 674 957 L 676 957 Q 696 957 712 959 Q 708 1045 667 1045 Z M 846 353 Q 846 0 491 0 Q 147 0 147 343 Q 147 541 247 696 Q 280 748 302 795 Q 147 797 147 967 Q 147 1138 305 1140 Q 464 1138 464 967 Q 464 820 372.5 659 Q 281 498 281 344 Q 282 134 492 133 Q 714 133 714 351 L 714 855 Q 696 853 676 853 Q 540 853 540 997 Q 540 1140 667 1140 Q 785 1140 824 1039 Q 961 1140 1072 1140 Q 1345 1138 1347 861 L 1347 44 Q 1347 0 1281 0 Q 1214 0 1213 47 L 1213 864 Q 1212 1006 1070 1006 Q 945 1006 855 929 Q 847 917 846 906 L 846 353 Z"/>
        </g>
        <g transform="matrix(1 0 0 1 9261 1300)">
            <path fill="#000000" stroke="none" d="M 367.5 -143.5 Q 342 -121 301 -121 Q 262 -121 240 -143 Q 220 -163 220 -192 Q 220 -197 221 -203 Q 226 -270 344 -285 Q 393 -251 393 -205 L 393 -203 Q 393 -166 367.5 -143.5 Z M 875 1085 Q 875 1028 858.5 988 Q 842 948 797 936 Q 774 930 746 930 Q 720 930 692 935 Q 631 946 563.5 966.5 Q 496 987 419.5 1010.5 Q 343 1034 295 1036 L 286 1036 Q 246 1036 241 1017 L 241 1012 Q 241 994 283 984 Q 330 973 400.5 954.5 Q 471 936 554 910.5 Q 637 885 709 850 Q 781 815 828 772 Q 875 729 875 676 L 875 -45 Q 875 -64 876 -100 L 876 -109 Q 876 -142 870 -180 Q 862 -223 844 -262 Q 826 -301 788 -338 Q 750 -375 689 -399 Q 632 -422 531 -422 L 523 -422 Q 426 -422 356 -410 Q 282 -398 219.49998 -370.5 Q 157 -343 128.5 -304.5 Q 100 -266 100 -201 L 100 -194 Q 100 -121 154 -68 Q 209 -14 270 -8 Q 287 -7 302 -7 Q 341 -7 368 -16 Q 406 -29 435.5 -53 Q 465 -77 485 -119 Q 500 -150 500 -189 Q 500 -203 498 -219 Q 490 -276 464 -296 Q 500 -306 538 -306 Q 549 -306 559 -305 Q 608 -302 651.5 -280.5 Q 695 -259 711 -212 Q 727 -165 731 -110 Q 735 -55 735 -6 L 735 614 Q 735 701 500 786 L 201 887 Q 114 914 114 986 Q 114 993 115 1001 Q 123 1057 144 1087 Q 165 1117 194 1128 Q 223 1139 276 1140 L 281 1140 Q 333 1140 420 1124 Q 512 1106 579.5 1087.5 Q 647 1069 691 1059 Q 695 1058 699 1058 Q 735 1058 735 1139 L 875 1139 L 875 1085 Z"/>
        </g>
        <g transform="matrix(1 0 0 1 10305 1300)">
            <path fill="#000000" stroke="none" d="M 311 908 Q 363 908 363 975 Q 363 1041 311 1041 Q 259 1041 259 975 Q 259 908 311 908 Z M 1140 335 Q 1140 7 861 0 Q 717 0 650 101 Q 584 0 452 0 Q 173 0 173 350 Q 173 552 268 690 Q 300 743 322 791 Q 147 803 147 976 Q 147 1151 325 1153 Q 496 1142 496 967 Q 496 818 400 662.5 Q 304 507 304 350 Q 308 135 456 135 Q 586 135 586 318 Q 586 333 585 350 L 585 1108 Q 585 1134 651 1134 Q 717 1134 717 1108 L 717 237 Q 717 135 862 135 Q 1009 135 1009 336 Q 1009 349 1008 363 L 1008 1163 L 1009 1163 Q 1009 1220 1011 1261 Q 1012 1310 1017.5 1352.5 Q 1023 1395 1032.5 1430 Q 1042 1465 1110 1465 Q 1168 1465 1168 1447 Q 1168 1444 1166 1441 Q 1155 1417 1149 1373 Q 1143 1329 1141.5 1274 Q 1140 1219 1140 1146 L 1140 335 Z"/>
        </g>
        <g transform="matrix(1 0 0 1 11614 1300)">
            <path fill="#000000" stroke="none" d="M 272 882 Q 290 864 321 864 Q 352 864 368.5 881 Q 385 898 385 926 Q 385 954 366.5 971.5 Q 348 989 319 989 Q 287 989 270.5 972 Q 254 955 254 927 Q 254 900 272 882 Z M 199 813 Q 147 875 147 934 L 147 944 Q 152 1008 194 1047 Q 236 1086 286 1090 Q 297 1091 307 1091 Q 345 1091 379 1080 Q 422 1066 445.5 1037 Q 469 1008 478 979 Q 486 953 486 926 L 486 920 Q 485 890 473.50003 861 Q 462 832 432 805 Q 468 786 532 786 Q 544 786 556 787 Q 656 791 730 846 Q 831 919 853 1081 L 984 1081 Q 947 886 838.5 785 Q 730 684 550 684 Q 469 684 362 715 Q 255 746 199 813 Z M 272 238 Q 290 220 321 220 Q 352 220 368.5 237 Q 385 254 385 282 Q 385 310 366.5 327.5 Q 348 345 319 345 Q 287 345 270.5 328 Q 254 311 254 283 Q 254 256 272 238 Z M 199 169 Q 147 231 147 290 L 147 300 Q 152 364 194 403 Q 236 442 286 446 Q 297 447 307 447 Q 345 447 379 436 Q 422 422 445.5 393 Q 469 364 478 335 Q 486 309 486 282 L 486 276 Q 485 246 473.50003 217 Q 462 188 432 161 Q 468 142 532 142 Q 544 142 556 143 Q 656 147 730 202 Q 831 275 853 437 L 984 437 Q 947 242 838.5 141 Q 730 40 550 40 Q 469 40 362 71 Q 255 102 199 169 Z"/>
        </g>
        <g transform="matrix(1 0 0 1 12745 1300)">
            <path fill="#000000" stroke="none" d="M 378 836 Q 310 836 310 767 Q 310 698 378 698 Q 445 698 445 767 Q 445 836 378 836 Z M 231 72.5 Q 147 145 147 240 Q 147 448 440 532 L 652 594 Q 1024 694 1024 818 Q 1019 904 928.50006 956.49994 Q 838 1009 623 1009 Q 328 1009 286 887 Q 326 929 377 929 Q 545 929 545 788 Q 547 772 547 758 Q 547 608 368 606 Q 147 612 147 837 Q 147 1140 623 1140 Q 764 1138 836 1126 Q 921 1111 992 1074 Q 1063 1037 1111 975 Q 1157 912 1157 815 Q 1157 599 699 471 L 460 403 Q 279 350 279 240 Q 280 202 320.5 167.5 Q 361 133 412 133 Q 474 133 640.5 193.5 Q 807 254 889 254 Q 989 254 1073 170 L 1111 126 Q 1139 83 1147 42 L 1147 32 Q 1147 0 1097 0 Q 1040 0 1037 26 Q 1029 46 985.5 83.5 Q 942 121 891 121 Q 830 121 660 61.5 Q 490 2 414 0 Q 315 0 231 72.5 Z"/>
        </g>
        <g transform="matrix(1 0 0 1 14049 1300)">
            <path fill="#000000" stroke="none" d="M 389 225 Q 318 225 318 158 Q 318 90 389 90 Q 460 90 460 158 Q 460 225 389 225 Z M 147 380 Q 147 539 313 602 Q 147 665 147 833 Q 147 1140 651 1140 Q 1155 1140 1157 787 L 1157 41 Q 1157 0 1090 0 Q 1022 0 1022 41 L 1022 789 Q 1022 1016 654 1016 Q 284 1016 284 833 Q 284 728 346.5 693.5 Q 409 659 473 657 Q 552 657 552 602 Q 552 547 512 547 Q 472 547 347 515 Q 284 475 284 380 L 284 262 L 293 275 Q 335 317 409 317 Q 565 317 565 178 Q 567 162 567 147 Q 567 2 389 0 Q 147 6 147 295 L 147 380 Z"/>
        </g>
        <g transform="matrix(1 0 0 1 16014 1300)">
            <path fill="#000000" stroke="none" d="M 460 982 Q 460 1050 389 1050 Q 318 1050 318 982 Q 318 915 389 915 Q 460 915 460 982 Z M 654 124 Q 1022 124 1022 343 L 1022 1109 Q 1022 1140 1090 1140 Q 1157 1140 1157 1110 L 1156 343 Q 1155 0 651 0 Q 147 0 147 356 Q 147 515 313 577 Q 147 640 147 799 L 147 845 Q 147 1134 389 1140 Q 567 1138 567 993 Q 567 978 565 962 Q 565 823 409 823 Q 335 823 293 865 L 284 878 L 284 799 Q 284 704 346.5 670 Q 409 636 481 636 Q 552 636 552 578 Q 552 519 481 519 Q 409 519 346.5 485 Q 284 451 284 356 Q 284 124 654 124 Z"/>
        </g>
        <g transform="matrix(1 0 0 1 17339 1300)">
            <path fill="#000000" stroke="none" d="M 386 424 Q 318 424 318 357 Q 318 289 386 289 Q 453 289 453 357 Q 453 424 386 424 Z M 519 1139 Q 535 1140 554 1140 Q 581 1140 614 1138 Q 667 1135 733.49994 1127 Q 800 1119 862.49994 1106 Q 925 1093 979.5 1071 Q 1034 1049 1080 1010.5 Q 1126 972 1142 935 Q 1145 926 1145 918 Q 1145 889 1104 861 Q 1076 842 1060 842 Q 1045 842 1040 859 Q 1030 893 993 913 Q 956 933 909.5 952.5 Q 863 972 813.5 978 Q 764 984 688 994 Q 612 1004 521 1005 Q 383 996 341.5 965 Q 300 934 289 878 L 289 865 Q 289 743 469 716 L 776 656 Q 1157 593 1157 336 Q 1157 222 1111 161 Q 1063 100 992 64 Q 921 28 836 14 Q 764 2 623 0 Q 147 0 147 295 Q 147 495 368 501 Q 547 499 547 369 Q 547 357 545 343 Q 545 206 377 206 Q 326 206 286 246 Q 328 128 623 128 Q 838 128 928.50006 179 Q 1019 230 1024 333 Q 1024 473 748 533 L 444 587 Q 147 635 147 858 Q 157 970 199 1018 Q 241 1066 283 1088.5 Q 325 1111 380 1126 Q 441 1134 519 1139 Z"/>
        </g>
        <g transform="matrix(1 0 0 1 18643 1300)">
            <path fill="#000000" stroke="none" d="M 192 193 L 192 191 Q 192 144 233 144 Q 274 144 275 193 Q 275 242 234 242 Q 192 242 192 193 Z M 509 88 Q 438 0 281 0 Q 105 0 100 193 Q 102 326 238 326 L 240 326 Q 369 325 369 214 L 369 201 Q 369 156 342 132 Q 425 132 437 293 L 437 1112 Q 437 1140 505 1140 Q 572 1140 572 1112 L 571 292 L 571 291 Q 571 135 842 135 Q 857 134 872 134 Q 1096 134 1115 294 L 1115 1112 Q 1115 1140 1183 1140 Q 1250 1140 1250 1113 L 1250 292 Q 1232 0 841 0 Q 614 0 509 88 Z"/>
        </g>
        <g transform="matrix(1 0 0 1 20061 1300)">
            <path fill="#000000" stroke="none" d="M -577 1672 Q -528 1672 -481 1647.5 Q -434 1623 -408 1577 Q -382 1531 -382 1481 Q -382 1432 -407.49997 1386.4999 Q -433 1341 -479.5 1316 Q -526 1291 -577 1291 Q -628 1291 -674.5 1316 Q -721 1341 -747 1386.4999 Q -773 1432 -773 1481 Q -773 1531 -746.5 1577 Q -720 1623 -673.5 1647.5 Q -627 1672 -577 1672 Z M -616.5 1553.5001 Q -636 1543 -647.5 1524 Q -659 1505 -659 1484 Q -659 1463 -648 1444 Q -637 1425 -617.5 1414.5 Q -598 1404 -577 1404 Q -555 1404 -535.5 1414.5 Q -516 1425 -505.50003 1444 Q -495 1463 -495 1484 Q -495 1505 -506 1524 Q -517 1543 -536.5 1553.5001 Q -556 1564 -577 1564 Q -597 1564 -616.5 1553.5001 Z"/>
        </g>
        <g transform="matrix(1 0 0 1 20061 1300)">
            <path fill="#000000" stroke="none" d="M 377 902 Q 377 972 308 972 Q 239 972 239 902 Q 239 832 308 832 Q 377 832 377 902 Z M 599 0 Q 537 0 537 34 L 537 828 Q 537 983 428 996 Q 470 955 470 902 Q 470 729 329 729 Q 313 727 298 727 Q 149 727 147 912 Q 153 1140 378 1140 Q 660 1140 660 825 L 660 34 Q 660 0 599 0 Z"/>
        </g>
        <g transform="matrix(1 0 0 1 20889 1300)">
            <path fill="#000000" stroke="none" d="M 474 161 Q 474 230 400 230 Q 325 230 325 161 Q 325 92 400 92 Q 474 92 474 161 Z M 1090 984 Q 1157 903 1157 780 L 1157 200 Q 1157 0 934 0 Q 876 0 815 50 Q 753 99 713 196 Q 673 293 616 337 Q 559 380 478 380 Q 314 380 300 281 Q 343 323 400 323 Q 583 313 583 182 Q 585 166 585 151 Q 585 2 389 0 Q 147 6 147 251 Q 166 498 478 513 Q 590 513 681 455 Q 771 397 825 269 Q 879 141 934 141 Q 1024 141 1024 200 L 1024 780 Q 1024 811 1010 848 Q 828 667 535 667 Q 147 667 147 900 Q 147 1140 574 1140 L 585 1140 Q 834 1140 975 1071 Q 1011 1167 1018 1187 Q 1021 1199 1045 1199 Q 1063 1199 1091 1193 Q 1149 1180 1149 1159 Q 1149 1156 1148 1153 Q 1138 1127 1090 984 Z M 896 950 Q 790 1006 573 1006 Q 285 1006 285 900 Q 285 798 531 798 Q 763 798 896 950 Z"/>
        </g>
        <g transform="matrix(1 0 0 1 22214 1300)">
            <path fill="#000000" stroke="none" d="M 666 581 L 666 576 Q 666 511 740 511 L 742 511 Q 820 512 820 582 Q 820 651 745 651 Q 669 651 666 581 Z M 662 1010 Q 302 1010 302 847 Q 302 803 225 803 Q 147 803 147 847 Q 147 1140 666 1140 Q 1157 1140 1157 837 Q 1157 820 1156 802 L 1156 205 Q 1156 2 935 0 Q 783 5 739 107 Q 718 154 718 199 Q 718 253 747 304 Q 799 399 799 404 Q 777 384 711 384 L 705 384 Q 535 410 530 578 L 530 588 Q 530 747 718 779 L 721 779 Q 920 779 949 632 Q 958 582 958 538 Q 958 451 921 385 Q 865 286 861 215 Q 860 211 860 207 Q 860 142 935 129 L 945 129 Q 1013 129 1021 209 L 1021 802 Q 1021 1010 662 1010 Z"/>
        </g>
        <g transform="matrix(1 0 0 1 24179 1300)">
            <path fill="#000000" stroke="none" d="M 460 982 Q 460 1050 389 1050 Q 318 1050 318 982 Q 318 915 389 915 Q 460 915 460 982 Z M 843 648 Q 843 682 823 695 Q 803 708 780 708 Q 753 708 735.49994 689 Q 718 670 718 652 Q 718 633 735.49994 612.5 Q 753 592 782 592 Q 805 592 824 609 Q 843 626 843 648 Z M 1156 468 L 1156 343 Q 1155 0 651 0 Q 147 0 147 356 Q 147 515 313 577 Q 147 640 147 799 L 147 845 Q 147 1134 389 1140 Q 567 1138 567 993 Q 567 978 565 962 Q 565 823 409 823 Q 335 823 293 865 L 284 878 L 284 799 Q 284 704 346.5 670 Q 409 636 481 636 Q 552 636 552 578 Q 552 519 481 519 Q 409 519 346.5 485 Q 284 451 284 356 Q 284 124 654 124 Q 1022 124 1022 343 L 1022 459 Q 1003 459 974 458 Q 960 457 944 457 Q 916 457 886 459 Q 838 461 786 472 Q 734 483 692.5 505.50003 Q 651 528 623 570 Q 597 608 597 657 L 597 667 Q 599 709 616 735.49994 Q 633 762 659.5 781.5 Q 686 801 714 809 Q 742 817 763 817 Q 769 817 791.5 816 Q 814 815 841 808 Q 868 801 897 781.5 Q 926 762 937.5 742.5 Q 949 723 955.5 708 Q 962 693 964 672 L 964 662 Q 964 645 960 629 Q 954 607 936 584 Q 936 581 988 581 L 1022 581 L 1022 1109 Q 1022 1140 1090 1140 Q 1157 1140 1157 1110 L 1156 591 Q 1184 598 1209 612 Q 1240 629 1266.5 674.5 Q 1293 720 1312 796 L 1447 798 Q 1423 613 1326 537 Q 1261 486 1156 468 Z"/>
        </g>
        <g transform="matrix(1 0 0 1 25504 1300)">
            <path fill="#000000" stroke="none" d="M 355 826 Q 285 826 285 757 Q 285 688 355 688 Q 425 688 425 757 Q 425 826 355 826 Z M 392 1142 Q 437 1142 477 1124.5 Q 517 1107 563 1078 Q 606 1050 641 1050 L 644 1050 Q 679 1051 726 1079.5 Q 773 1108 804.5 1125 Q 836 1142 893 1142 Q 963 1142 1015.5 1112.5 Q 1068 1083 1093.5 1030.5 Q 1119 978 1125 909.5 Q 1131 841 1131 765 L 1131 -80 Q 1131 -172 1081 -238.5 Q 1031 -305 967.5 -347 Q 904 -389 821 -408.50003 Q 738 -428 674 -428 Q 640 -428 568.5 -410.5 Q 497 -393 438.49997 -364.5 Q 380 -336 331 -299 Q 282 -262 235 -223 L 339 -119 Q 425 -197 513 -245 Q 601 -293 662 -293 Q 719 -293 782.5 -284 Q 846 -275 889.5 -248 Q 933 -221 968 -175 Q 1003 -129 1003 -58 L 1002 820 Q 1002 880 997 917 Q 992 954 977.5 974.5 Q 963 995 937.5 1002 Q 912 1009 891 1009 Q 831 1007 765 958 Q 703 911 646 911 Q 642 911 638 912 Q 577 915 507 965 Q 437 1015 376 1015 L 371 1015 Q 331 1015 296 984 Q 261 953 261 888 L 261 877 Q 302 919 355 919 Q 528 919 528 778 Q 530 762 530 747 Q 530 598 345 596 Q 147 602 147 827 Q 147 995 219 1068.5 Q 291 1142 392 1142 Z"/>
        </g>
        <g transform="matrix(1 0 0 1 26803 1300)">
            <path fill="#000000" stroke="none" d="M 438 240 Q 390 240 390 188 Q 390 136 438 136 Q 486 136 486 188 Q 486 240 438 240 Z M 291 306 Q 291 203 308 199 Q 318 315 444 315 Q 569 315 571 194 Q 565 0 400 0 Q 168 0 168 306 L 168 865 Q 168 1029 249 1084.5 Q 330 1140 405 1140 Q 502 1140 569 1101 L 569 987 Q 479 1009 405 1009 Q 339 1009 315 970 Q 291 931 291 889 L 291 306 Z"/>
        </g>
        <g transform="matrix(1 0 0 1 27521 1300)">
            <path fill="#000000" stroke="none" d="M 302 891 Q 360 891 360 966 Q 360 1041 302 1041 Q 244 1041 244 966 Q 244 891 302 891 Z M 982 1163 Q 982 1220 984 1261 Q 985 1310 991.49994 1352.5 Q 998 1395 1008.5 1430 Q 1019 1465 1088 1465 Q 1147 1465 1147 1448 Q 1147 1445 1145 1441 Q 1133 1417 1125.5 1373 Q 1118 1329 1115.5 1274 Q 1113 1219 1113 1146 L 1113 400 Q 1113 0 628 0 Q 147 0 147 350 Q 147 552 254 700 Q 290 753 314 791 Q 147 793 147 966 Q 147 1140 315 1140 L 319 1140 Q 490 1140 490 966 Q 490 817 385.5 662 Q 281 507 281 350 Q 281 135 630 135 Q 981 135 981 400 L 981 1163 L 982 1163 Z"/>
        </g>
        <g transform="matrix(1 0 0 1 28802 1300)">
            <path fill="#000000" stroke="none" d="M 407 225 Q 336 225 336 158 Q 336 90 407 90 Q 478 90 478 158 Q 478 225 407 225 Z M 1176 735 L 1176 33 Q 1176 0 1109 0 Q 1041 0 1041 33 L 1041 735 Q 1041 1016 927 1016 Q 835 1016 758 912 Q 712 849 671 849 Q 630 849 584 912 Q 508 1016 415 1016 Q 303 1016 303 735 L 303 262 L 312 275 Q 354 317 428 317 Q 583 317 583 178 Q 585 162 585 147 Q 585 2 407 0 Q 168 6 168 295 L 168 735 Q 168 1140 424 1140 Q 549 1140 671 983 Q 793 1140 918 1140 Q 1176 1140 1176 735 Z"/>
        </g>
        <g transform="matrix(1 0 0 1 30146 1300)">
            <path fill="#000000" stroke="none" d="M 1162 176 Q 1145 188 1124 188 L 1118 188 Q 1079 184 1079 146 L 1079 144 Q 1082 104 1119 100 L 1121 100 Q 1162 100 1162 176 Z M 310 893 Q 371 893 371 967 Q 371 1040 310 1040 Q 249 1040 249 967 Q 249 893 310 893 Z M 659 1036 Q 618 1033 614 995 Q 614 950 660 950 Q 676 950 704 958 Q 706 970 706 980 Q 706 1032 659 1036 Z M 1757 800 L 1759 800 L 1759 277 Q 1759 0 1480 0 Q 1414 0 1273 103 Q 1238 0 1118 0 Q 988 0 988 143 Q 988 287 1127 287 Q 1145 287 1164 285 L 1164 863 Q 1164 1006 1021 1006 Q 940 1006 836 922 L 836 347 Q 825 0 496 0 Q 147 0 147 343 Q 147 541 247 696 Q 280 748 304 795 Q 147 797 147 967 Q 147 1137 305 1137 L 309 1137 Q 467 1137 467 967 Q 467 820 377.50003 656.5 Q 288 493 279 341 Q 288 136 496 130 Q 703 130 703 353 L 703 855 Q 684 853 665 853 Q 526 853 526 997 Q 526 1137 651 1137 L 663 1137 Q 777 1137 812 1037 Q 948 1137 1021 1137 L 1027 1137 Q 1284 1137 1295 863 L 1295 234 Q 1299 223 1309 211 Q 1400 124 1480 124 Q 1624 124 1624 275 L 1624 790 L 1622 790 L 1622 1096 Q 1622 1140 1690 1140 Q 1757 1140 1757 1096 L 1757 800 Z"/>
        </g>
        <g transform="matrix(1 0 0 1 32713 1300)">
            <path fill="#000000" stroke="none" d="M 295 893 Q 351 893 351 967 Q 351 1040 295 1040 Q 240 1040 240 967 Q 240 893 295 893 Z M 443 134 Q 591 134 591 335 L 591 1116 Q 591 1140 659 1140 Q 726 1140 726 1116 L 723 344 L 723 331 Q 723 134 879 134 Q 1039 134 1042 356 L 1042 1116 Q 1042 1140 1110 1140 Q 1175 1140 1175 1115 L 1172 355 Q 1167 0 883 0 Q 731 0 659 99 Q 588 0 446 0 Q 147 0 147 343 Q 147 561 249 696 Q 283 748 307 795 Q 147 797 147 967 Q 147 1138 310 1140 Q 472 1138 472 967 Q 472 820 377 668 Q 282 516 282 342 L 282 335 Q 282 134 441 134 L 443 134 Z"/>
        </g>
        <g transform="matrix(1 0 0 1 34056 1300)">
            <path fill="#000000" stroke="none" d="M 454 976 Q 451 1037 385 1037 Q 329 1034 322 976 Q 325 907 388 907 Q 454 907 454 976 Z M 1110 349 Q 1103 0 626 0 Q 148 0 148 343 Q 147 355 147 366 Q 147 519 276 582 Q 147 639 147 775 Q 147 785 148 795 L 148 842 Q 148 1137 378 1140 Q 547 1126 547 990 Q 547 976 545 961 Q 545 820 397 820 Q 314 822 281 876 L 281 795 Q 280 782 280 771 Q 280 704 329 678 Q 386 648 467 648 Q 547 648 547 580 Q 546 512 466 512 Q 385 512 328 482 Q 280 456 280 374 Q 280 360 281 344 L 281 340 Q 281 134 606 134 L 648 134 Q 977 134 977 350 L 977 1163 L 978 1163 Q 978 1220 980 1261 Q 981 1310 987.5 1352.5 Q 994 1395 1005 1430 Q 1015 1465 1084 1465 L 1086 1465 Q 1147 1464 1147 1446 Q 1147 1443 1145 1440 Q 1133 1416 1125.5 1372 Q 1118 1328 1114 1273 Q 1110 1218 1110 1145 L 1110 349 Z"/>
        </g>
        <g transform="matrix(1 0 0 1 35334 1300)">
            <path fill="#000000" stroke="none" d="M 278 902 Q 278 832 347 832 Q 416 832 416 902 Q 416 972 347 972 Q 278 972 278 902 Z M 188.50002 -415.5 Q 147 -411 147 -343 Q 147 -282 182 -282 L 189 -282 Q 231 -289 262 -290 Q 355 -286 406.49997 -272.5 Q 458 -259 501 -220.50002 Q 544 -182 559 -133 Q 574 -84 574 20 L 574 834 Q 574 983 467 996 Q 509 955 509 902 Q 509 729 368 729 Q 352 727 337 727 Q 186 727 166 912 Q 192 1140 417 1140 Q 709 1140 709 828 L 709 -148 Q 709 -229 638.5 -300 Q 568 -371 483.5 -394.5 Q 399 -418 255 -422 Q 230 -420 188.50002 -415.5 Z"/>
        </g>
        <g transform="matrix(1 0 0 1 36211 1300)">
            <path fill="#000000" stroke="none" d="M 317 895 Q 381 895 381 968 Q 381 1042 317 1042 Q 253 1042 253 968 Q 253 895 317 895 Z M 283 344 Q 291 131 488 131 Q 685 131 693 353 L 693 802 Q 693 1140 1001 1140 Q 1347 1140 1347 786 L 1347 34 Q 1347 0 1280 0 Q 1212 0 1212 34 L 1208 788 Q 1203 1009 1014 1009 Q 829 1009 829 786 L 829 353 Q 829 0 488 0 Q 147 0 147 344 Q 147 542 263 697 Q 303 749 330 796 Q 147 798 147 968 Q 147 1140 332 1140 Q 519 1140 519 968 Q 519 822 405 660 Q 291 498 283 344 Z"/>
        </g>
        <g transform="matrix(1 0 0 1 37726 1300)">
            <path fill="#000000" stroke="none" d="M 294 893 Q 349 893 349 967 Q 349 1040 294 1040 Q 239 1040 239 967 Q 239 893 294 893 Z M 656 1045 Q 608 1045 608 1001 Q 608 957 663 957 L 665 957 Q 686 957 702 959 Q 696 1045 656 1045 Z M 1758 806 L 1759 806 L 1758 297 Q 1746 0 1527 0 Q 1408 0 1347.5 56.5 Q 1287 113 1256 122 Q 1194 0 1072 0 L 1072 117 L 1073 117 Q 1098 117 1131 164 Q 1164 212 1164 310 L 1164 857 Q 1164 1003 1016 1005 Q 939 991 888.5 954 Q 838 917 836 906 L 836 353 Q 826 0 496 0 Q 147 0 147 343 Q 147 541 248 696 Q 281 748 304 795 Q 147 797 147 967 Q 147 1138 307 1140 Q 467 1138 467 967 Q 467 820 374 659 Q 283 500 283 344 L 283 337 Q 282 327 282 317 Q 282 130 496 130 Q 703 130 703 353 L 703 855 Q 684 853 665 853 Q 526 853 526 997 Q 526 1140 656 1140 Q 776 1140 813 1037 Q 937 1136 1022 1140 Q 1284 1140 1297 852 L 1297 233 Q 1335 218 1389.5 171 Q 1444 124 1527 124 Q 1625 124 1625 297 L 1625 741 L 1623 741 L 1625 1094 Q 1625 1140 1691 1140 Q 1758 1140 1758 1094 L 1758 806 Z"/>
        </g>
        <g transform="matrix(1 0 0 1 39653 1300)">
            <path fill="#000000" stroke="none" d="M 378 155 Q 378 215 314 215 Q 250 215 250 155 Q 250 94 314 94 Q 378 94 378 155 Z M 309 1044 Q 249 1044 249 1001 Q 249 956 290 950 Q 297 949 305 949 Q 339 949 378 974 Q 370 1038 309 1044 Z M 513 171 Q 506 13 321 0 Q 156 3 147 161 Q 163 291 276 317 Q 297 320 314 320 Q 355 320 378 304 L 378 843 Q 346 839 316 835 Q 147 849 147 993 Q 147 1135 303 1140 Q 442 1140 513 1032 Q 677 1135 841 1140 Q 1201 1131 1229 867 L 1229 35 Q 1229 0 1162 0 Q 1094 0 1094 42 L 1094 864 Q 1093 998 841 1015 Q 670 993 601.5 953 Q 533 913 513 892 L 513 171 Z"/>
        </g>
    </g>
</svg>
