<svg width="52761" height="4700" viewBox="0 0 52761 4700" xmlns="http://www.w3.org/2000/svg">
    <defs/>
    <g transform="matrix(1 0 0 -1 0 4700)">
        <g transform="matrix(1 0 0 1 0 1700)">
            <path fill="#000000" stroke="none" d="M 894 1000 Q 828 1000 793 977 Q 756 952 756 900 Q 756 840 878 840 Q 811 750 741 750 Q 676 750 632 788 Q 589 825 589 900 Q 589 1002 666.5 1073 Q 744 1144 894 1144 Q 1043 1144 1121.5 1073.5 Q 1200 1003 1200 900 Q 1200 845 1167 784 Q 1127 708 1037 623 Q 1108 602 1148 556 Q 1200 495 1200 390 L 1200 300 Q 1200 200 1075 100 Q 950 0 750 0 L 700 0 Q 500 0 375 100 Q 250 200 250 300 L 250 1200 Q 250 1300 375 1400 Q 500 1500 700 1500 L 750 1500 Q 950 1500 1075 1400 L 1200 1300 L 1012 1258 L 934 1307 Q 856 1356 750 1356 L 700 1356 Q 594 1356 516 1307 Q 438 1258 438 1200 L 438 300 Q 438 242 516 193 Q 594 144 700 144 L 750 144 Q 856 144 934 193 Q 1012 242 1012 300 L 1012 390 Q 1012 464 994.50006 496.5 Q 977 529 936 537 Q 926 528 914 520 L 700 355 Q 665 328 634 328 Q 602 328 575 357 Q 550 383 550 407 Q 550 436 586 463 L 778 611 Q 934 732 996 813 Q 1033 865 1033 900 Q 1033 953 994 978 Q 959 1000 894 1000 Z"/>
        </g>
        <g transform="matrix(1 0 0 1 1450 1700)">
            <path fill="#000000" stroke="none" d="M 438 1139 Q 458 1139 473 1149 Q 488 1160 488 1185 Q 488 1216 438 1266 L 438 1139 Z M 438 300 Q 438 242 516 193 Q 594 144 700 144 L 750 144 Q 856 144 934 193 Q 1012 242 1012 300 L 1012 993 L 925 1046 Q 837 1099 837 1131 Q 837 1162 893 1247 L 1061 1500 L 1169 1438 L 1223 1406 Q 1270 1379 1303 1379 Q 1309 1379 1314 1380 L 1350 1385 Q 1350 1350 1309 1286 Q 1268 1222 1227 1216 Q 1221 1215 1214 1215 Q 1176 1215 1119 1249 L 1051 1288 L 1008 1213 L 1200 1100 L 1200 300 Q 1200 242 1278 193 Q 1356 144 1462 144 Q 1568 144 1646 193 Q 1724 242 1724 300 L 1724 993 L 1637 1046 Q 1549 1099 1549 1131 Q 1549 1162 1605 1247 L 1773 1500 L 1881 1438 L 1935 1406 Q 1982 1379 2015 1379 Q 2021 1379 2026 1380 L 2062 1385 Q 2062 1350 2021 1286 Q 1980 1222 1939 1216 Q 1933 1215 1926 1215 Q 1888 1215 1831 1249 L 1763 1288 L 1720 1213 L 1912 1100 L 1912 300 Q 1912 200 1787 100 Q 1662 0 1462 0 Q 1262 0 1137 100 Q 1120 113 1106 127 Q 1092 113 1075 100 Q 950 0 750 0 L 700 0 Q 500 0 375 100 Q 250 200 250 300 L 250 1400 Q 250 1500 374 1500 Q 438 1500 504 1406 Q 569 1311 591 1261 Q 613 1212 613 1155 Q 613 1100 575 1050 Q 538 1000 438 1000 L 438 300 Z"/>
        </g>
        <g transform="matrix(1 0 0 1 3612 1700)">
            <path fill="#000000" stroke="none" d="M 275 361 Q 255 361 240 351 Q 225 340 225 315 Q 225 284 275 234 L 275 361 Z M 463 0 L 275 0 L 210 95 Q 144 189 122 239 Q 100 288 100 345 Q 100 400 138 450 Q 175 500 275 500 L 275 993 L 188 1046 Q 100 1099 100 1131 Q 100 1162 156 1247 L 324 1500 L 432 1438 L 486 1406 Q 533 1379 566 1379 Q 572 1379 577 1380 L 613 1385 Q 613 1350 572 1286 Q 531 1222 490 1216 Q 484 1215 477 1215 Q 439 1215 382 1249 L 314 1288 L 271 1213 L 463 1100 L 463 0 Z"/>
        </g>
        <g transform="matrix(1 0 0 1 4325 1700)">
            <path fill="#000000" stroke="none" d="M 438 234 Q 488 284 488 315 Q 488 340 473 351 Q 458 361 438 361 L 438 234 Z M 1200 0 L 1012 0 L 1012 1200 Q 1012 1258 934 1307 Q 856 1356 750 1356 L 700 1356 Q 594 1356 516 1307 Q 438 1258 438 1200 L 438 500 Q 538 500 575 450 Q 613 400 613 345 Q 613 288 591 239 Q 569 189 504 95 L 438 0 L 250 0 L 250 1200 Q 250 1300 375 1400 Q 500 1500 700 1500 L 750 1500 Q 950 1500 1075 1400 Q 1200 1300 1200 1200 L 1200 0 Z M 1724 993 L 1637 1046 Q 1549 1099 1549 1131 Q 1549 1162 1703 1500 Q 1838 1368 1869 1368 L 1872 1368 Q 1899 1376 1899 1440 Q 1899 1502 1803 1542 Q 1720 1577 1720 1625 Q 1720 1633 1722 1641 Q 1737 1700 1805 1700 Q 1872 1700 1955 1640 Q 2037 1580 2037 1440 Q 2037 1308 1987 1257 Q 1936 1206 1892 1206 Q 1847 1206 1733 1275 L 1709 1215 L 1912 1100 L 1912 -450 Q 1912 -650 1675 -650 L 1200 -650 Q 962 -650 962 -450 L 962 -350 Q 962 -292 884 -243 Q 806 -194 725 -194 Q 644 -194 566 -243 Q 488 -292 488 -350 L 488 -400 Q 578 -400 606 -425 Q 633 -450 633 -486 Q 633 -562 561 -606 Q 488 -650 424 -650 Q 300 -650 300 -550 L 300 -350 Q 300 -250 425 -150 Q 550 -50 725 -50 Q 900 -50 1025 -150 Q 1150 -250 1150 -350 L 1150 -450 Q 1150 -516 1294 -516 L 1581 -516 Q 1724 -516 1724 -450 L 1724 993 Z"/>
        </g>
        <g transform="matrix(1 0 0 1 6462 1700)">
            <path fill="#000000" stroke="none" d="M 438 222 Q 536 312 536 389 Q 536 429 509 448 Q 482 466 438 466 L 438 222 Z M 1200 0 L 1012 0 L 1012 1169 Q 1012 1245 978 1266 L 910 1307 Q 899 1313 888 1313 Q 864 1313 840 1285 L 785 1225 Q 729 1165 671 1165 Q 592 1166 537 1215 L 464 1283 Q 439 1307 419 1307 Q 406 1307 395 1298 L 351 1260 Q 345 1254 345 1245 Q 345 1211 438 1134 L 438 600 Q 583 600 627 541 Q 670 481 670 415 Q 670 337 630 250 Q 590 162 514 81 L 438 0 L 250 0 L 250 1062 Q 150 1169 150 1212 Q 150 1255 283 1378 Q 415 1500 461 1500 Q 509 1500 604 1412 L 678 1340 Q 684 1335 692 1335 Q 712 1335 742 1367 L 783 1412 Q 866 1500 918 1500 Q 955 1500 1016 1462 L 1078 1423 Q 1117 1398 1144 1363 Q 1155 1374 1167 1385 Q 1292 1500 1462 1500 Q 1662 1500 1787 1385 Q 1912 1270 1912 1150 L 1912 0 L 1724 0 L 1724 1150 Q 1724 1228 1646 1292 Q 1568 1356 1462 1356 Q 1366 1356 1283 1292 Q 1200 1228 1200 1150 L 1200 0 Z M 1615 -200 Q 1615 -150 1645 -125 Q 1676 -100 1739 -100 Q 1825 -100 1868 -150 Q 1912 -200 1912 -300 Q 1912 -450 1805 -525 Q 1698 -600 1525 -600 Q 1390 -600 1277 -562 Q 1166 -525 1046 -437 Q 927 -350 803 -300 Q 680 -250 593 -250 Q 502 -250 413 -272 Q 324 -295 250 -340 Q 250 -280 286 -237 Q 324 -195 408 -147.5 Q 492 -100 633 -100 Q 792 -100 920 -147 Q 1048 -194 1181 -291 Q 1313 -388 1388 -427 Q 1463 -466 1545 -466 Q 1615 -466 1669.5 -433 Q 1724 -400 1724 -300 Q 1724 -285 1722 -273 Q 1707 -281 1691 -281 Q 1672 -281 1653.5 -270 Q 1635 -259 1625 -240 Q 1615 -221 1615 -200 Z"/>
        </g>
        <g transform="matrix(1 0 0 1 8624 1700)">
            <path fill="#000000" stroke="none" d="M 438 222 Q 536 312 536 389 Q 536 429 509 448 Q 482 466 438 466 L 438 222 Z M 962 1149 L 813 1217 L 784 1230 L 763 1240 L 642 1296 Q 585 1322 554 1322 Q 498 1322 424 1266 Q 350 1210 326 1182 L 377 1148 Q 438 1110 438 1050 L 438 600 Q 583 600 627 541 Q 670 481 670 415 Q 670 337 630 250 Q 590 162 514 81 L 438 0 L 250 0 L 250 1008 L 188 1046 Q 140 1075 140 1140 Q 140 1205 223 1279 L 348 1389 Q 472 1500 565 1500 Q 648 1500 720 1467 L 841 1412 L 1042 1320 Q 1150 1270 1150 1149 L 1150 186 L 1412 402 L 1674 186 L 1674 1008 L 1612 1046 Q 1564 1075 1564 1140 Q 1564 1205 1647 1279 L 1772 1389 Q 1896 1500 1989 1500 Q 2072 1500 2144 1467 L 2265 1412 L 2466 1320 Q 2574 1270 2574 1149 L 2574 0 L 2386 0 L 2386 1149 L 2237 1217 L 2208 1230 L 2187 1240 L 2066 1296 Q 2009 1322 1978 1322 Q 1922 1322 1848 1266 Q 1774 1210 1750 1182 L 1801 1148 Q 1862 1110 1862 1050 L 1862 0 L 1674 0 L 1412 215 L 1150 0 L 962 0 L 962 1149 Z"/>
        </g>
        <g transform="matrix(1 0 0 1 11980 1700)">
            <path fill="#000000" stroke="none" d="M 1225 -250 Q 1225 -400 1070 -475 Q 916 -550 607 -550 Q 452 -550 344 -518 Q 236 -485 175 -420 Q 361 -450 608 -450 Q 829 -450 940 -400 Q 1050 -350 1050 -250 Q 1050 -225 1032 -212 Q 1013 -200 976 -200 Q 976 -150 1007 -125 Q 1038 -100 1100 -100 Q 1163 -100 1194 -138 Q 1225 -175 1225 -250 Z M 1037 993 L 950 1046 Q 862 1099 862 1131 Q 862 1162 918 1247 L 1086 1500 L 1194 1438 L 1248 1406 Q 1295 1379 1328 1379 Q 1334 1379 1339 1380 L 1375 1385 Q 1375 1350 1334 1286 Q 1293 1222 1252 1216 Q 1246 1215 1239 1215 Q 1201 1215 1144 1249 L 1076 1288 L 1033 1213 L 1225 1100 L 1225 300 Q 1225 200 1100 100 Q 975 0 775 0 L 725 0 Q 525 0 400 100 Q 275 200 275 300 L 275 993 L 188 1046 Q 100 1099 100 1131 Q 100 1162 156 1247 L 324 1500 L 432 1438 L 486 1406 Q 533 1379 566 1379 Q 572 1379 577 1380 L 613 1385 Q 613 1350 572 1286 Q 531 1222 490 1216 Q 484 1215 477 1215 Q 439 1215 382 1249 L 314 1288 L 271 1213 L 463 1100 L 463 300 Q 463 242 541 193 Q 619 144 725 144 L 775 144 Q 881 144 959 193 Q 1037 242 1037 300 L 1037 993 Z"/>
        </g>
        <g transform="matrix(1 0 0 1 13455 1700)">
            <path fill="#000000" stroke="none" d="M 438 1025 L 438 950 Q 486 950 486 1000 Q 486 1012 473 1019 Q 461 1025 438 1025 Z M 1012 1050 L 1012 1200 Q 1012 1258 934 1307 Q 856 1356 750 1356 L 700 1356 Q 594 1356 516 1307 Q 438 1258 438 1200 L 438 1125 Q 512 1125 549 1094 Q 586 1062 586 1000 Q 586 850 438 850 Q 250 850 250 950 L 250 1200 Q 250 1300 375 1400 Q 500 1500 700 1500 L 750 1500 Q 950 1500 1075 1400 Q 1200 1300 1200 1200 L 1200 1050 Q 1200 878 819 681 L 438 485 L 438 300 Q 438 242 516 193 Q 594 144 700 144 L 750 144 Q 856 144 934 193 Q 1012 242 1012 300 L 1012 600 L 1200 700 L 1200 300 Q 1200 200 1075 100 Q 950 0 750 0 L 700 0 Q 500 0 375 100 Q 250 200 250 300 L 250 550 L 726 795 Q 1012 943 1012 1050 Z"/>
        </g>
        <g transform="matrix(1 0 0 1 14905 1700)">
            <path fill="#000000" stroke="none" d="M 438 234 Q 488 284 488 315 Q 488 340 473 351 Q 458 361 438 361 L 438 234 Z M 250 750 Q 250 850 375 950 Q 500 1050 700 1050 L 750 1050 Q 950 1050 1075 950 Q 1200 850 1200 750 L 1200 0 L 1012 0 L 1012 750 Q 1012 808 934 857 Q 856 906 750 906 L 700 906 Q 594 906 516 857 Q 438 808 438 750 L 438 500 Q 538 500 575 450 Q 613 400 613 345 Q 613 288 591 239 Q 569 189 504 95 L 438 0 L 250 0 L 250 750 Z M 180 1127 L 180 1202 Q 180 1254 311 1376 Q 442 1500 474 1500 Q 511 1500 619 1388 Q 730 1280 860 1280 Q 962 1280 1014 1315 Q 1066 1350 1066 1420 Q 1066 1522 920 1522 Q 820 1522 820 1615 Q 820 1700 920 1700 Q 1050 1700 1125 1619 Q 1200 1538 1200 1420 Q 1200 1278 1115 1202 Q 1029 1126 860 1126 Q 628 1126 542 1208 L 498 1248 Q 455 1288 427 1288 Q 384 1288 357 1256 Q 330 1224 330 1178 Q 330 1128 467 1058 L 338 967 Q 180 1028 180 1127 Z"/>
        </g>
        <g transform="matrix(1 0 0 1 16355 1700)">
            <path fill="#000000" stroke="none" d="M 1887 1114 L 1887 0 L 1699 0 L 1699 1114 L 1304 1296 Q 1247 1322 1216 1322 Q 1145 1322 1028 1186 L 1175 1100 L 1175 300 Q 1175 200 1050 100 Q 925 0 725 0 Q 525 0 400 100 Q 275 200 275 300 L 275 993 L 188 1046 Q 100 1099 100 1131 Q 100 1162 156 1247 L 324 1500 L 432 1438 L 486 1406 Q 533 1379 566 1379 Q 572 1379 577 1380 L 613 1385 Q 613 1350 572 1286 Q 531 1222 490 1216 Q 484 1215 477 1215 Q 439 1215 382 1249 L 314 1288 L 271 1213 L 463 1100 L 463 300 Q 463 242 541 193 Q 619 144 725 144 Q 831 144 909 193 Q 987 242 987 300 L 987 993 L 900 1046 Q 812 1099 812 1131 Q 812 1162 893 1247 L 1013 1373 Q 1134 1500 1227 1500 Q 1310 1500 1382 1467 L 1779 1285 Q 1887 1235 1887 1114 Z"/>
        </g>
        <g transform="matrix(1 0 0 1 18492 1700)">
            <path fill="#000000" stroke="none" d="M 438 234 Q 488 284 488 315 Q 488 340 473 351 Q 458 361 438 361 L 438 234 Z M 492 1016 L 420 1049 Q 300 1104 300 1131 Q 300 1162 376 1247 L 605 1500 L 826 1400 Q 884 1373 927 1373 Q 939 1373 950 1375 L 1000 1385 Q 1000 1350 967 1289 Q 933 1228 878 1211 Q 859 1205 838 1205 Q 797 1205 747 1228 L 592 1299 L 523 1210 L 727 1115 Q 781 1090 792 1049 Q 963 1039 1075 950 Q 1200 850 1200 750 L 1200 300 Q 1200 242 1278 193 Q 1356 144 1462 144 Q 1568 144 1646 193 Q 1724 242 1724 300 L 1724 993 L 1637 1046 Q 1549 1099 1549 1131 Q 1549 1162 1605 1247 L 1773 1500 L 1881 1438 L 1935 1406 Q 1982 1379 2015 1379 Q 2021 1379 2026 1380 L 2062 1385 Q 2062 1350 2021 1286 Q 1980 1222 1939 1216 Q 1933 1215 1926 1215 Q 1888 1215 1831 1249 L 1763 1288 L 1720 1213 L 1912 1100 L 1912 300 Q 1912 200 1787 100 Q 1662 0 1462 0 Q 1262 0 1137 100 Q 1012 200 1012 300 L 1012 750 Q 1012 808 934 857 Q 856 906 750 906 L 700 906 Q 594 906 516 857 Q 438 808 438 750 L 438 500 Q 538 500 575 450 Q 613 400 613 345 Q 613 288 591 239 Q 569 189 504 95 L 438 0 L 250 0 L 250 750 Q 250 850 375 950 Q 427 992 492 1016 Z"/>
        </g>
        <g transform="matrix(1 0 0 1 20654 1700)">
            <path fill="#000000" stroke="none" d="M 438 222 Q 536 312 536 389 Q 536 429 509 448 Q 482 466 438 466 L 438 222 Z M 438 600 Q 583 600 627 541 Q 670 481 670 415 Q 670 337 630 250 Q 590 162 514 81 L 438 0 L 250 0 L 250 1062 Q 150 1169 150 1212 Q 150 1255 283 1378 Q 415 1500 461 1500 Q 509 1500 604 1412 L 678 1340 Q 684 1335 692 1335 Q 712 1335 742 1367 L 783 1412 Q 866 1500 918 1500 Q 955 1500 1016 1462 L 1078 1423 Q 1200 1346 1200 1169 L 1200 0 L 1012 0 L 1012 1169 Q 1012 1245 978 1266 L 910 1307 Q 899 1313 888 1313 Q 864 1313 840 1285 L 785 1225 Q 729 1165 671 1165 Q 592 1166 537 1215 L 464 1283 Q 439 1307 419 1307 Q 406 1307 395 1298 L 351 1260 Q 345 1254 345 1245 Q 345 1211 438 1134 L 438 600 Z M 1200 -250 Q 1200 -400 1045 -475 Q 891 -550 582 -550 Q 427 -550 319 -518 Q 211 -485 150 -420 Q 336 -450 583 -450 Q 804 -450 915 -400 Q 1025 -350 1025 -250 Q 1025 -225 1007 -212 Q 988 -200 951 -200 Q 951 -150 982 -125 Q 1013 -100 1075 -100 Q 1138 -100 1169 -138 Q 1200 -175 1200 -250 Z"/>
        </g>
        <g transform="matrix(1 0 0 1 22636 1700)">
            <path fill="#000000" stroke="none" d="M 438 1025 L 438 950 Q 486 950 486 1000 Q 486 1012 473 1019 Q 461 1025 438 1025 Z M 1012 1200 Q 1012 1258 934 1307 Q 856 1356 750 1356 L 700 1356 Q 594 1356 516 1307 Q 438 1258 438 1200 L 438 1125 Q 512 1125 549 1094 Q 586 1062 586 1000 Q 586 850 438 850 Q 250 850 250 950 L 250 1200 Q 250 1300 375 1400 Q 500 1500 700 1500 L 750 1500 Q 950 1500 1075 1400 Q 1200 1300 1200 1200 L 1200 1050 Q 1200 878 819 681 L 438 485 L 438 250 Q 438 197 462 171 Q 486 144 527 144 Q 586 144 637 186 Q 788 312 861 356 Q 935 400 1012 400 L 1012 583 L 1200 673 L 1200 50 Q 1200 -100 1046 -100 Q 942 -100 942 -28 Q 1012 4 1012 60 L 1012 266 Q 964 266 917 235 Q 870 203 743 102 Q 616 0 527 0 Q 398 0 324 58 Q 250 117 250 250 L 250 550 L 726 795 Q 1012 943 1012 1050 L 1012 1200 Z M 1250 1694 Q 1250 1507 1124 1435 Q 1127 1447 1127 1461 Q 1127 1534 1042 1636 Q 910 1772 700 1772 Q 394 1772 352 1701 Q 330 1664 330 1628 Q 330 1578 467 1508 L 338 1417 Q 180 1478 180 1577 L 180 1652 Q 180 1704 245 1765 L 311 1826 Q 452 1950 700 1950 Q 944 1950 1109 1825 L 1109 1846 Q 1109 1984 1021 2045 L 974 2078 Q 946 2097 946 2123 Q 946 2141 961 2163 Q 980 2190 1006 2190 Q 1030 2190 1060 2169 L 1123 2124 Q 1250 2034 1250 1804 L 1250 1694 Z"/>
        </g>
        <g transform="matrix(1 0 0 1 24086 1700)">
            <path fill="#000000" stroke="none" d="M 180 1127 L 180 1202 Q 180 1254 245 1315 L 311 1376 Q 442 1500 474 1500 Q 511 1500 619 1388 L 673 1332 Q 700 1303 730 1303 Q 755 1303 781 1332 L 831 1388 Q 932 1500 968 1500 Q 1003 1500 1060 1438 L 1178 1313 Q 1213 1276 1249 1276 Q 1275 1276 1300 1294 Q 1230 1127 1165 1127 Q 1097 1127 1061 1166 L 983 1247 Q 943 1288 910 1288 Q 867 1288 809 1208 Q 750 1127 700 1127 Q 628 1127 542 1208 L 498 1248 Q 455 1288 417 1288 Q 374 1288 352 1251 Q 330 1214 330 1178 Q 330 1128 467 1058 L 338 967 Q 180 1028 180 1127 Z M 438 67 L 418 0 L 250 0 L 250 750 Q 250 850 375 950 Q 500 1050 700 1050 L 750 1050 Q 950 1050 1075 950 Q 1200 850 1200 750 L 1200 0 L 1012 0 L 1012 750 Q 1012 808 934 857 Q 856 906 750 906 L 700 906 Q 594 906 516 857 Q 438 808 438 750 L 438 300 L 483 372 Q 562 500 662 500 Q 800 500 800 380 Q 800 300 723 300 Q 666 300 666 333 Q 666 366 642 366 Q 618 366 568 283 L 519 201 L 438 67 Z"/>
        </g>
        <g transform="matrix(1 0 0 1 25536 1700)">
            <path fill="#000000" stroke="none" d="M 250 639 L 250 736 Q 210 716 210 685 Q 210 660 220 650 Q 230 639 250 639 Z M 930 1320 Q 930 1366 880 1366 Q 830 1366 830 1320 Q 830 1286 888 1248 Q 930 1273 930 1320 Z M 438 186 L 725 423 L 1012 186 L 1012 899 Q 1012 1007 968 1041 Q 924 1065 888 1089 Q 746 1000 580 1000 Q 422 1000 339 1069 Q 250 1144 250 1260 Q 250 1325 275 1392.5001 Q 300 1460 300 1530 Q 300 1600 200 1600 Q 200 1700 300 1700 Q 488 1700 488 1530 Q 488 1445 463 1387.5 Q 438 1330 438 1260 Q 438 1191 479 1167.5 Q 520 1144 580 1144 Q 694 1144 767 1173 Q 690 1244 690 1320 Q 690 1500 880 1500 Q 1070 1500 1070 1320 Q 1070 1243 992 1172 Q 1013 1161 1035 1150 Q 1200 1062 1200 899 L 1200 0 L 1012 0 L 725 236 L 438 0 L 250 0 L 250 500 Q 170 500 135 550 Q 100 600 100 655 Q 100 712 119.5 756.5 Q 139 801 194.5 850.5 Q 250 900 344 900 Q 438 900 438 800 L 438 186 Z"/>
        </g>
        <g transform="matrix(1 0 0 1 26986 1700)">
            <path fill="#000000" stroke="none" d="M 1037 993 L 950 1046 Q 862 1099 862 1131 Q 862 1162 918 1247 L 1086 1500 L 1194 1438 L 1248 1406 Q 1295 1379 1328 1379 Q 1334 1379 1339 1380 L 1375 1385 Q 1375 1350 1334 1286 Q 1293 1222 1252 1216 Q 1246 1215 1239 1215 Q 1201 1215 1144 1249 L 1076 1288 L 1033 1213 L 1225 1100 L 1225 300 Q 1225 200 1100 100 Q 975 0 775 0 L 725 0 Q 525 0 400 100 Q 275 200 275 300 L 275 993 L 188 1046 Q 100 1099 100 1131 Q 100 1162 156 1247 L 324 1500 L 432 1438 L 486 1406 Q 533 1379 566 1379 Q 572 1379 577 1380 L 613 1385 Q 613 1350 572 1286 Q 531 1222 490 1216 Q 484 1215 477 1215 Q 439 1215 382 1249 L 314 1288 L 271 1213 L 463 1100 L 463 300 Q 463 242 541 193 Q 619 144 725 144 L 775 144 Q 881 144 959 193 Q 1037 242 1037 300 L 1037 993 Z"/>
        </g>
        <g transform="matrix(1 0 0 1 28461 1700)">
            <path fill="#000000" stroke="none" d="M 438 1025 L 438 950 Q 486 950 486 1000 Q 486 1012 473 1019 Q 461 1025 438 1025 Z M 438 1125 Q 512 1125 549 1094 Q 586 1062 586 1000 Q 586 850 438 850 Q 250 850 250 950 L 250 1200 Q 250 1322 366 1411 Q 482 1500 545 1500 Q 597 1500 726 1366 Q 854 1500 907 1500 Q 969 1500 1084 1411 Q 1200 1322 1200 1200 L 1200 1050 Q 1200 878 819 681 L 438 485 L 438 250 Q 438 197 462 171 Q 486 144 527 144 Q 586 144 637 186 Q 788 312 861 356 Q 935 400 1012 400 L 1012 583 L 1200 673 L 1200 50 Q 1200 -100 1046 -100 Q 942 -100 942 -28 Q 1012 4 1012 60 L 1012 266 Q 964 266 917 235 Q 870 203 743 102 Q 616 0 527 0 Q 398 0 324 58 Q 250 117 250 250 L 250 550 L 726 795 Q 1012 943 1012 1050 L 1012 1200 Q 1012 1264 937 1316 Q 919 1329 898 1329 Q 830 1329 726 1199 Q 621 1329 552 1329 Q 531 1329 513 1316 Q 438 1264 438 1200 L 438 1125 Z"/>
        </g>
        <g transform="matrix(1 0 0 1 29911 1700)">
            <path fill="#000000" stroke="none" d="M 438 222 Q 536 312 536 389 Q 536 429 509 448 Q 482 466 438 466 L 438 222 Z M 1012 366 Q 992 366 982 355.5 Q 972 345 972 315 Q 972 284 1012 234 L 1012 366 Z M 1012 1169 Q 1012 1245 978 1266 L 910 1307 Q 899 1313 888 1313 Q 864 1313 840 1285 L 785 1225 Q 729 1165 671 1165 Q 592 1166 537 1215 L 464 1283 Q 439 1307 419 1307 Q 406 1307 395 1298 L 351 1260 Q 345 1254 345 1245 Q 345 1211 438 1134 L 438 600 Q 583 600 627 541 Q 670 481 670 415 Q 670 337 630 250 Q 590 162 514 81 L 438 0 L 250 0 L 250 1062 Q 150 1169 150 1212 Q 150 1255 283 1378 Q 415 1500 461 1500 Q 509 1500 604 1412 L 678 1340 Q 684 1335 692 1335 Q 712 1335 742 1367 L 783 1412 Q 866 1500 918 1500 Q 955 1500 1016 1462 L 1078 1423 Q 1200 1346 1200 1169 L 1200 500 Q 1496 500 1496 250 Q 1496 144 1612 144 Q 1724 144 1724 250 L 1724 993 L 1637 1046 Q 1549 1099 1549 1131 Q 1549 1162 1605 1247 L 1773 1500 L 1881 1438 L 1935 1406 Q 1982 1379 2015 1379 Q 2021 1379 2026 1380 L 2062 1385 Q 2062 1350 2021 1286 Q 1980 1222 1939 1216 Q 1933 1215 1926 1215 Q 1888 1215 1831 1249 L 1763 1288 L 1720 1213 L 1912 1100 L 1912 250 Q 1912 0 1612 0 Q 1352 0 1352 250 Q 1352 366 1200 366 L 1200 0 L 1012 0 L 937 124 Q 862 248 862 345 Q 862 410 902 455 Q 942 500 1012 500 L 1012 1169 Z"/>
        </g>
        <g transform="matrix(1 0 0 1 32605 1700)">
            <path fill="#000000" stroke="none" d="M 1012 739 L 1012 836 Q 972 816 972 785 Q 972 760 982 750 Q 992 739 1012 739 Z M 438 300 Q 438 242 516 193 Q 594 144 700 144 L 750 144 Q 856 144 934 193 Q 1012 242 1012 300 L 1012 600 Q 932 600 897 650 Q 862 700 862 755 Q 862 812 881.5 856.5 Q 901 901 956.49994 950.5 Q 1012 1000 1106 1000 Q 1200 1000 1200 900 L 1200 300 Q 1200 200 1075 100 Q 950 0 750 0 L 700 0 Q 500 0 375 100 Q 250 200 250 300 L 250 1010 Q 180 1076 165 1101.5 Q 150 1127 150 1165 Q 150 1202 165 1228 Q 180 1254 245 1315 L 311 1376 Q 442 1500 471 1500 Q 500 1500 652 1388 Q 808 1280 890 1280 Q 982 1280 1024 1315 Q 1066 1350 1066 1420 Q 1066 1522 920 1522 Q 820 1522 820 1611 Q 820 1700 920 1700 Q 1050 1700 1125 1619 Q 1200 1538 1200 1420 Q 1200 1278 1115 1202 Q 1029 1126 890 1126 Q 699 1126 562 1224 L 498 1269 Q 463 1296 436 1296 Q 430 1296 425 1295 Q 394 1288 362 1251 L 339 1226 Q 329 1215 329 1203 Q 329 1186 347 1167 L 377 1134 L 438 1068 L 438 300 Z"/>
        </g>
        <g transform="matrix(1 0 0 1 34055 1700)">
            <path fill="#000000" stroke="none" d="M 438 1025 L 438 950 Q 486 950 486 1000 Q 486 1012 473 1019 Q 461 1025 438 1025 Z M 1012 1200 Q 1012 1258 934 1307 Q 856 1356 750 1356 L 700 1356 Q 594 1356 516 1307 Q 438 1258 438 1200 L 438 1125 Q 512 1125 549 1094 Q 586 1062 586 1000 Q 586 850 438 850 Q 250 850 250 950 L 250 1200 Q 250 1300 375 1400 Q 500 1500 700 1500 L 750 1500 Q 950 1500 1075 1400 Q 1200 1300 1200 1200 L 1200 1050 Q 1200 878 819 681 L 438 485 L 438 250 Q 438 197 462 171 Q 486 144 527 144 Q 586 144 637 186 Q 788 312 861 356 Q 935 400 1012 400 L 1012 583 L 1200 673 L 1200 50 Q 1200 -100 1046 -100 Q 942 -100 942 -28 Q 1012 4 1012 60 L 1012 266 Q 964 266 917 235 Q 870 203 743 102 Q 616 0 527 0 Q 398 0 324 58 Q 250 117 250 250 L 250 550 L 726 795 Q 1012 943 1012 1050 L 1012 1200 Z"/>
        </g>
        <g transform="matrix(1 0 0 1 35505 1700)">
            <path fill="#000000" stroke="none" d="M 438 222 Q 536 312 536 389 Q 536 429 509 448 Q 482 466 438 466 L 438 222 Z M 438 600 Q 583 600 627 541 Q 670 481 670 415 Q 670 337 630 250 Q 590 162 514 81 L 438 0 L 250 0 L 250 1008 L 188 1046 Q 140 1075 140 1140 Q 140 1205 240 1279 L 377 1381 Q 538 1500 640 1500 Q 798 1500 878 1447 L 1092 1297 Q 1200 1225 1200 1050 L 1200 300 Q 1200 242 1278 193 Q 1356 144 1462 144 Q 1568 144 1646 193 Q 1724 242 1724 300 L 1724 993 L 1637 1046 Q 1549 1099 1549 1131 Q 1549 1162 1605 1247 L 1773 1500 L 1881 1438 L 1935 1406 Q 1982 1379 2015 1379 Q 2021 1379 2026 1380 L 2062 1385 Q 2062 1350 2021 1286 Q 1980 1222 1939 1216 Q 1933 1215 1926 1215 Q 1888 1215 1831 1249 L 1763 1288 L 1720 1213 L 1912 1100 L 1912 300 Q 1912 242 1990 193 Q 2068 144 2174 144 Q 2280 144 2358 193 Q 2436 242 2436 300 L 2436 993 L 2349 1046 Q 2261 1099 2261 1131 Q 2261 1162 2317 1247 L 2485 1500 L 2593 1438 L 2647 1406 Q 2694 1379 2727 1379 Q 2733 1379 2738 1380 L 2774 1385 Q 2774 1350 2733 1286 Q 2692 1222 2651 1216 Q 2645 1215 2638 1215 Q 2600 1215 2543 1249 L 2475 1288 L 2432 1213 L 2624 1100 L 2624 300 Q 2624 200 2499 100 Q 2374 0 2174 0 Q 1974 0 1849 100 Q 1832 113 1818 127 Q 1804 113 1787 100 Q 1662 0 1462 0 Q 1262 0 1137 100 Q 1012 200 1012 300 L 1012 1050 Q 1012 1126 973 1154 L 766 1296 Q 729 1322 640 1322 Q 536 1322 468 1271 L 339 1173 L 377 1148 Q 438 1110 438 1050 L 438 600 Z"/>
        </g>
        <g transform="matrix(1 0 0 1 38379 1700)">
            <path fill="#000000" stroke="none" d="M 528 1026 Q 358 1026 304 1074 Q 250 1122 250 1209 Q 281 1281 349 1354 Q 417 1427 522 1500 L 784 1290 L 1073 1499 L 1238 1499 L 1238 350 Q 1238 175 1115 88 Q 992 0 784 0 Q 577 0 473 44 Q 369 87 369 175 Q 369 233 398.5 262 Q 428 291 488 291 Q 488 246 562 198 Q 636 151 784 151 Q 905 151 978 213 Q 1050 275 1050 350 L 1050 1289 L 786 1115 L 562 1289 L 465 1209 Q 465 1179 481 1165 Q 496 1150 528 1150 Q 557 1150 572 1163 Q 587 1175 587 1200 Q 617 1200 631 1179 Q 646 1157 646 1113 Q 646 1069 617 1047 Q 587 1026 528 1026 Z"/>
        </g>
        <g transform="matrix(1 0 0 1 39867 1700)">
            <path fill="#000000" stroke="none" d="M 977 1059 Q 964 1052 964 1040 Q 964 990 1012 990 L 1012 1065 Q 989 1065 977 1059 Z M 1200 250 Q 1200 117 1126 58 Q 1052 0 903 0 Q 814 0 742 39 Q 669 78 614 156 Q 580 203 533 235 Q 486 266 438 266 L 438 0 L 250 0 L 250 673 L 438 583 L 438 400 Q 515 400 589 356 Q 662 312 716 238 Q 770 163 807 154 Q 844 144 903 144 Q 964 144 988 171 Q 1012 197 1012 250 L 1012 561 L 645 689 Q 250 827 250 1050 L 250 1200 Q 250 1300 375 1400 Q 500 1500 700 1500 L 750 1500 Q 950 1500 1075 1400 Q 1200 1300 1200 1200 L 1200 990 Q 1200 890 1012 890 Q 864 890 864 1040 Q 864 1102 901 1134 Q 938 1165 1012 1165 L 1012 1200 Q 1012 1258 934 1307 Q 856 1356 750 1356 L 700 1356 Q 594 1356 516 1307 Q 438 1258 438 1200 L 438 1050 Q 438 914 721 815 L 1200 648 L 1200 250 Z"/>
        </g>
        <g transform="matrix(1 0 0 1 41317 1700)">
            <path fill="#000000" stroke="none" d="M 1012 739 L 1012 836 Q 972 816 972 785 Q 972 760 982 750 Q 992 739 1012 739 Z M 1012 600 Q 932 600 897 650 Q 862 700 862 755 Q 862 812 881.5 856.5 Q 901 901 956.49994 950.5 Q 1012 1000 1106 1000 Q 1200 1000 1200 900 L 1200 0 L 1012 0 L 725 236 L 438 0 L 250 0 L 250 1010 Q 180 1076 165 1101.5 Q 150 1127 150 1165 Q 150 1202 165 1228 Q 180 1254 246 1316 L 311 1377 Q 442 1500 474 1500 Q 511 1500 619 1388 L 673 1332 Q 700 1303 730 1303 Q 755 1303 781 1332 L 831 1388 Q 932 1500 968 1500 Q 1003 1500 1060 1438 L 1178 1313 Q 1213 1276 1249 1276 Q 1275 1276 1300 1294 Q 1230 1127 1165 1127 Q 1097 1127 1061 1166 L 983 1247 Q 943 1288 910 1288 Q 867 1288 809 1208 Q 750 1127 700 1127 Q 628 1127 542 1208 L 498 1248 Q 455 1288 417 1288 Q 394 1288 375 1266 L 336 1222 Q 328 1213 328 1203 Q 328 1187 347 1167 L 377 1134 L 438 1068 L 438 186 L 725 423 L 1012 186 L 1012 600 Z"/>
        </g>
        <g transform="matrix(1 0 0 1 43299 1700)">
            <path fill="#000000" stroke="none" d="M 1042 710 Q 1008 710 1008 671 Q 1070 671 1070 691 Q 1070 710 1042 710 Z M 987 1094 Q 974 1087 974 1075 Q 974 1045 1012 1045 L 1012 1100 Q 999 1100 987 1094 Z M 250 1200 Q 250 1300 375 1400 Q 500 1500 700 1500 L 750 1500 Q 950 1500 1075 1400 Q 1200 1300 1200 1200 L 1200 1045 Q 1200 945 1012 945 Q 874 945 874 1075 Q 874 1137 911 1168.5 Q 948 1200 1012 1200 Q 1012 1258 934 1307 Q 856 1356 750 1356 L 700 1356 Q 594 1356 516 1307 Q 438 1258 438 1200 L 438 945 Q 438 818 517 745 Q 596 671 726 671 L 820 671 Q 820 721 872.5 776 Q 925 831 1042 831 Q 1111 831 1155.5 798.49994 Q 1200 766 1200 692 Q 1200 606 1155 574 Q 1111 541 1008 541 L 1008 302 Q 1008 151 929.50006 75.5 Q 851 0 700 0 Q 563 0 477.5 63.5 Q 392 127 392 250 L 392 450 L 570 450 L 570 250 Q 570 208 605 176 Q 640 144 700 144 Q 744 144 782 182.5 Q 820 221 820 301 L 820 541 L 726 541 Q 508 541 379 655 Q 250 768 250 945 L 250 1200 Z M 1724 993 L 1637 1046 Q 1549 1099 1549 1131 Q 1549 1162 1605 1247 L 1773 1500 L 1881 1438 L 1935 1406 Q 1982 1379 2015 1379 Q 2021 1379 2026 1380 L 2062 1385 Q 2062 1350 2021 1286 Q 1980 1222 1939 1216 Q 1933 1215 1926 1215 Q 1888 1215 1831 1249 L 1763 1288 L 1720 1213 L 1912 1100 L 1912 -650 L 1724 -650 L 1462 -435 L 1200 -650 L 1012 -650 L 1012 -300 Q 900 -300 900 -210 Q 900 -160 956 -105 Q 1012 -50 1076 -50 Q 1200 -50 1200 -150 L 1200 -464 L 1462 -248 L 1724 -464 L 1724 993 Z"/>
        </g>
        <g transform="matrix(1 0 0 1 45461 1700)">
            <path fill="#000000" stroke="none" d="M 1012 739 L 1012 836 Q 972 816 972 785 Q 972 760 982 750 Q 992 739 1012 739 Z M 250 366 Q 230 366 220 355.5 Q 210 345 210 315 Q 210 284 250 234 L 250 366 Z M 438 500 Q 744 500 744 250 Q 744 144 900 144 Q 1012 144 1012 250 L 1012 600 Q 932 600 897 650 Q 862 700 862 755 Q 862 812 881.5 856.5 Q 901 901 956.49994 950.5 Q 1012 1000 1106 1000 Q 1200 1000 1200 900 L 1200 250 Q 1200 0 900 0 Q 600 0 600 250 Q 600 366 438 366 L 438 0 L 250 0 L 175 124 Q 100 248 100 345 Q 100 410 140 455 Q 180 500 250 500 L 250 1010 Q 180 1076 165 1101.5 Q 150 1127 150 1165 Q 150 1202 165 1228 Q 180 1254 246 1316 L 311 1377 Q 442 1500 474 1500 Q 511 1500 619 1388 L 673 1332 Q 700 1303 730 1303 Q 755 1303 781 1332 L 831 1388 Q 932 1500 968 1500 Q 1003 1500 1060 1438 L 1178 1313 Q 1213 1276 1249 1276 Q 1275 1276 1300 1294 Q 1230 1127 1165 1127 Q 1097 1127 1061 1166 L 983 1247 Q 943 1288 910 1288 Q 867 1288 809 1208 Q 750 1127 700 1127 Q 628 1127 542 1208 L 498 1248 Q 455 1288 417 1288 Q 394 1288 375 1266 L 336 1222 Q 328 1213 328 1203 Q 328 1187 347 1167 L 377 1134 L 438 1068 L 438 500 Z"/>
        </g>
        <g transform="matrix(1 0 0 1 46911 1700)">
            <path fill="#000000" stroke="none" d="M 250 739 L 250 836 Q 210 816 210 785 Q 210 760 220 750 Q 230 739 250 739 Z M 250 600 Q 170 600 135 650 Q 100 700 100 755 Q 100 812 119.5 856.5 Q 139 901 194.5 950.5 Q 250 1000 344 1000 Q 438 1000 438 900 L 438 186 L 725 423 L 1012 186 L 1012 1124 L 782 1285 Q 728 1322 694 1322 Q 623 1322 506 1186 Q 468 1143 426 1139 L 417 1139 Q 380 1139 339 1169 Q 250 1244 250 1360 Q 250 1425 275 1492.5 Q 300 1560 300 1630 Q 300 1700 200 1700 Q 200 1800 300 1800 Q 488 1800 488 1630 Q 488 1545 463 1487.4999 Q 438 1430 438 1360 L 438 1317 L 491 1373 Q 612 1500 705 1500 Q 800 1500 860 1459 L 1106 1287 Q 1200 1224 1200 1114 L 1200 0 L 1012 0 L 725 236 L 438 0 L 250 0 L 250 600 Z"/>
        </g>
        <g transform="matrix(1 0 0 1 48361 1700)">
            <path fill="#000000" stroke="none" d="M 438 186 L 725 423 L 1012 186 L 1012 1000 L 1200 1000 L 1200 0 L 1012 0 L 725 236 L 438 0 L 250 0 L 250 1010 Q 180 1076 165 1101.5 Q 150 1127 150 1165 Q 150 1202 165 1228 Q 180 1254 245 1315 L 311 1376 Q 442 1500 471 1500 Q 500 1500 652 1388 Q 808 1280 890 1280 Q 982 1280 1024 1315 Q 1066 1350 1066 1420 Q 1066 1522 920 1522 Q 820 1522 820 1611 Q 820 1700 920 1700 Q 1050 1700 1125 1619 Q 1200 1538 1200 1420 Q 1200 1278 1115 1202 Q 1029 1126 890 1126 Q 699 1126 562 1224 L 498 1269 Q 463 1296 436 1296 Q 430 1296 425 1295 Q 394 1288 362 1251 L 339 1226 Q 329 1215 329 1203 Q 329 1186 347 1167 L 377 1134 L 438 1068 L 438 186 Z"/>
        </g>
        <g transform="matrix(1 0 0 1 49811 1700)">
            <path fill="#000000" stroke="none" d="M 1225 -250 Q 1225 -320 1190 -374 Q 1200 -412 1246 -432 Q 1292 -451 1374 -451 Q 1374 -500 1334 -525 Q 1293 -550 1212 -550 Q 1154 -550 1111 -534 Q 1069 -518 1043 -487 Q 966 -518 857 -534 Q 748 -550 606 -550 Q 452 -550 344 -518 Q 236 -485 175 -420 Q 360 -450 608 -450 Q 828 -450 939 -400 Q 1049 -350 1049 -250 Q 1049 -200 974 -200 Q 974 -150 1006 -125 Q 1038 -100 1101 -100 Q 1163 -100 1194 -138 Q 1225 -175 1225 -250 Z M 1037 993 L 950 1046 Q 862 1099 862 1131 Q 862 1162 918 1247 L 1086 1500 L 1194 1438 L 1248 1406 Q 1295 1379 1328 1379 Q 1334 1379 1339 1380 L 1375 1385 Q 1375 1350 1334 1286 Q 1293 1222 1252 1216 Q 1246 1215 1239 1215 Q 1201 1215 1144 1249 L 1076 1288 L 1033 1213 L 1225 1100 L 1225 300 Q 1225 200 1100 100 Q 975 0 775 0 L 725 0 Q 525 0 400 100 Q 275 200 275 300 L 275 993 L 188 1046 Q 100 1099 100 1131 Q 100 1162 156 1247 L 324 1500 L 432 1438 L 486 1406 Q 533 1379 566 1379 Q 572 1379 577 1380 L 613 1385 Q 613 1350 572 1286 Q 531 1222 490 1216 Q 484 1215 477 1215 Q 439 1215 382 1249 L 314 1288 L 271 1213 L 463 1100 L 463 300 Q 463 242 541 193 Q 619 144 725 144 L 775 144 Q 881 144 959 193 Q 1037 242 1037 300 L 1037 993 Z"/>
        </g>
        <g transform="matrix(1 0 0 1 51286 1700)">
            <path fill="#000000" stroke="none" d="M 1037 744 L 1037 993 L 950 1046 Q 862 1099 862 1131 Q 862 1162 918 1247 L 1086 1500 L 1194 1438 L 1248 1406 Q 1295 1379 1328 1379 Q 1334 1379 1339 1380 L 1375 1385 Q 1375 1350 1334 1286 Q 1293 1222 1252 1216 Q 1246 1215 1239 1215 Q 1201 1215 1144 1249 L 1076 1288 L 1033 1213 L 1225 1100 L 1225 744 L 1350 744 L 1350 600 L 1225 600 L 1225 300 Q 1225 200 1100 100 Q 975 0 775 0 L 725 0 Q 525 0 400 100 Q 275 200 275 300 L 275 993 L 188 1046 Q 100 1099 100 1131 Q 100 1162 156 1247 L 324 1500 L 432 1438 L 486 1406 Q 533 1379 566 1379 Q 572 1379 577 1380 L 613 1385 Q 613 1350 572 1286 Q 531 1222 490 1216 Q 484 1215 477 1215 Q 439 1215 382 1249 L 314 1288 L 271 1213 L 463 1100 L 463 300 Q 463 242 541 193 Q 619 144 725 144 L 775 144 Q 881 144 959 193 Q 1037 242 1037 300 L 1037 600 L 850 600 L 850 744 L 1037 744 Z"/>
        </g>
    </g>
</svg>
