<svg width="39794" height="3789" viewBox="0 0 39794 3789" xmlns="http://www.w3.org/2000/svg">
    <defs/>
    <g transform="matrix(1 0 0 -1 0 3789)">
        <g transform="matrix(1 0 0 1 0 1100)">
            <path fill="#000000" stroke="none" d="M 724 1462 L 724 333 Q 750 473 794 611 L 1064 1462 L 1259 1462 L 742 0 L 547 0 L 30 1462 L 223 1462 L 491 612 Q 520 515 560 338 L 560 1462 L 724 1462 Z"/>
        </g>
        <g transform="matrix(1 0 0 1 1289 1100)">
            <path fill="#000000" stroke="none" d="M 384 1462 L 1150 705 L 1150 549 L 384 549 L 384 0 L 200 0 L 200 1462 L 384 1462 Z M 384 1235 L 384 705 L 921 705 L 384 1235 Z"/>
        </g>
        <g transform="matrix(1 0 0 1 2520 1100)">
            <path fill="#000000" stroke="none" d="M 746 1340 Q 502 1214 425 1144.5 Q 348 1075 348 1001 Q 348 953 366 918 Q 384 883 415.5 855 Q 447 827 541 775 Q 625 728 660.5 694 Q 696 660 715 617 Q 734 574 734 517 Q 734 369 604 234.5 Q 474 100 214 -33 L 130 123 Q 310 200 425 305 Q 540 410 540 493 Q 540 534 504.50003 568.5 Q 469 603 347 675 Q 154 788 154 978 Q 154 1269 671 1492 L 746 1340 Z"/>
        </g>
        <g transform="matrix(1 0 0 1 3396 1100)">
            <path fill="#000000" stroke="none" d="M 30 1462 L 218 1462 L 547 524 Q 619 318 644 200 Q 669 323 739 519 L 402 1462 L 550 1462 L 810 721 L 907 999 L 742 1462 L 890 1462 L 979 1206 L 1069 1462 L 1259 1462 L 737 0 L 552 0 L 30 1462 Z"/>
        </g>
        <g transform="matrix(1 0 0 1 4685 1100)">
            <path fill="#000000" stroke="none" d="M 200 0 L 200 1462 L 384 1462 L 384 903 L 906 1329 L 1005 1201 L 458 749 L 1005 298 L 906 170 L 384 595 L 384 0 L 200 0 Z"/>
        </g>
        <g transform="matrix(1 0 0 1 5770 1100)">
            <path fill="#000000" stroke="none" d="M 434 1462 L 434 0 L 250 0 L 250 1462 L 434 1462 Z"/>
        </g>
        <g transform="matrix(1 0 0 1 6986 1100)">
            <path fill="#000000" stroke="none" d="M 200 1462 L 617 1462 Q 911 1462 1041.5 1374.5 Q 1172 1287 1172 1100 Q 1172 970 1101 885.5 Q 1030 801 894 776 L 894 766 Q 1063 737 1142.5 649 Q 1222 561 1222 416 Q 1222 220 1088 110 Q 954 0 714 0 L 200 0 L 200 1462 Z M 384 841 L 654 841 Q 828 841 905 896 Q 982 951 982 1079 Q 982 1199 896.50006 1251.5 Q 811 1304 626 1304 L 384 1304 L 384 841 Z M 384 158 L 679 158 Q 853 158 939 225 Q 1025 292 1025 430 Q 1025 559 937 622 Q 849 685 665 685 L 384 685 L 384 158 Z"/>
        </g>
        <g transform="matrix(1 0 0 1 8318 1100)">
            <path fill="#000000" stroke="none" d="M 1194 0 L 985 0 L 598 635 L 205 0 L 10 0 L 496 762 L 41 1462 L 246 1462 L 604 889 L 965 1462 L 1159 1462 L 707 766 L 1194 0 Z"/>
        </g>
        <g transform="matrix(1 0 0 1 9522 1100)">
            <path fill="#000000" stroke="none" d="M 1174 666 L 719 666 L 719 0 L 535 0 L 535 666 L 80 666 L 80 822 L 535 822 L 535 1462 L 719 1462 L 719 822 L 1174 822 L 1174 666 Z"/>
        </g>
        <g transform="matrix(1 0 0 1 10776 1100)">
            <path fill="#000000" stroke="none" d="M 414 1462 Q 628 1462 800.50006 1360 Q 973 1258 1069.5 1075.5 Q 1166 893 1166 670 L 1166 612 L 982 612 L 982 670 Q 982 850 909 996 Q 836 1142 705.50006 1223 Q 575 1304 414 1304 L 384 1304 L 384 0 L 200 0 L 200 1462 L 414 1462 Z"/>
        </g>
        <g transform="matrix(1 0 0 1 12062 1100)">
            <path fill="#000000" stroke="none" d="M 1017 0 L 200 0 L 200 1462 L 1017 1462 L 1017 1304 L 384 1304 L 384 841 L 980 841 L 980 685 L 384 685 L 384 158 L 1017 158 L 1017 0 Z"/>
        </g>
        <g transform="matrix(1 0 0 1 13199 1100)">
            <path fill="#000000" stroke="none" d="M 1174 666 L 719 666 L 719 158 L 1174 158 L 1174 0 L 80 0 L 80 158 L 535 158 L 535 666 L 80 666 L 80 822 L 535 822 L 535 1304 L 80 1304 L 80 1462 L 1174 1462 L 1174 1304 L 719 1304 L 719 822 L 1174 822 L 1174 666 Z"/>
        </g>
        <g transform="matrix(1 0 0 1 14985 1100)">
            <path fill="#000000" stroke="none" d="M 1403 683 L 819 -15 L 705 -15 L 120 683 L 120 779 L 705 1477 L 819 1477 L 1403 779 L 1403 683 Z M 1218 732 L 762 1278 L 305 732 L 762 182 L 1218 732 Z"/>
        </g>
        <g transform="matrix(1 0 0 1 16508 1100)">
            <path fill="#000000" stroke="none" d="M 671 0 L 487 0 L 487 1304 L 30 1304 L 30 1462 L 1126 1462 L 1126 1304 L 671 1304 L 671 0 Z"/>
        </g>
        <g transform="matrix(1 0 0 1 17664 1100)">
            <path fill="#000000" stroke="none" d="M 200 0 L 200 1462 L 384 1462 L 384 883 L 940 1482 L 1059 1372 L 384 645 L 384 0 L 200 0 Z"/>
        </g>
        <g transform="matrix(1 0 0 1 18803 1100)">
            <path fill="#000000" stroke="none" d="M 552 1462 L 737 1462 L 1259 0 L 1064 0 L 737 934 Q 669 1131 644 1257 Q 615 1116 552 938 L 223 0 L 30 0 L 552 1462 Z"/>
        </g>
        <g transform="matrix(1 0 0 1 20092 1100)">
            <path fill="#000000" stroke="none" d="M 1567 1381 L 1241 957 L 1087 957 L 834 1287 L 581 957 L 427 957 L 100 1382 L 227 1482 L 501 1124 L 762 1462 L 903 1462 L 1166 1124 L 1440 1482 L 1567 1381 Z M 926 987 L 926 0 L 742 0 L 742 987 L 926 987 Z"/>
        </g>
        <g transform="matrix(1 0 0 1 21759 1100)">
            <path fill="#000000" stroke="none" d="M 384 1462 L 619 1052 L 780 1373 L 907 1373 L 1068 1052 L 1303 1474 L 1443 1390 L 1143 865 L 989 865 L 843 1154 L 698 865 L 544 865 L 384 1145 L 384 0 L 200 0 L 200 1462 L 384 1462 Z"/>
        </g>
        <g transform="matrix(1 0 0 1 23814 1100)">
            <path fill="#000000" stroke="none" d="M 587 1462 Q 859 1462 999 1350.5 Q 1139 1239 1139 1022 Q 1139 802 986.5 685.5 Q 834 569 552 569 L 384 569 L 384 0 L 200 0 L 200 1462 L 587 1462 Z M 384 727 L 531 727 Q 749 727 847 797.49994 Q 945 868 945 1024 Q 945 1165 854 1234.5 Q 763 1304 570 1304 L 384 1304 L 384 727 Z"/>
        </g>
        <g transform="matrix(1 0 0 1 25078 1100)">
            <path fill="#000000" stroke="none" d="M 266 1336 L 651 951 L 651 1462 L 835 1462 L 835 951 L 1220 1336 L 1340 1217 L 862 739 L 1356 246 L 1237 126 L 835 528 L 835 0 L 651 0 L 651 528 L 249 126 L 130 246 L 623 739 L 146 1217 L 266 1336 Z"/>
        </g>
        <g transform="matrix(1 0 0 1 26548 1100)">
            <path fill="#000000" stroke="none" d="M 1475 733 Q 1475 382 1297.5 181 Q 1120 -20 801 -20 Q 478 -20 301.5 177.5 Q 125 375 125 735 Q 125 1092 300.5 1288.5 Q 476 1485 803 1485 Q 1121 1485 1298 1285.5 Q 1475 1086 1475 733 Z M 319 733 Q 319 443 442 291 Q 565 139 801 139 Q 1036 139 1158 289 Q 1280 439 1280 733 Q 1280 1026 1159 1174.5 Q 1038 1323 803 1323 Q 565 1323 442 1172.5 Q 319 1022 319 733 Z"/>
        </g>
        <g transform="matrix(1 0 0 1 28148 1100)">
            <path fill="#000000" stroke="none" d="M 1234 1324 Q 1000 1257 877 1104.5 Q 754 952 754 728 Q 754 279 1234 138 L 1201 -20 Q 1018 20 878.5 113 Q 739 206 657 346 Q 574 204 433 111.5 Q 292 19 113 -20 L 80 138 Q 560 279 560 728 Q 560 952 437.5 1104.5 Q 315 1257 80 1324 L 113 1482 Q 295 1443 435 1350 Q 575 1257 657 1114 Q 739 1257 879 1350 Q 1019 1443 1201 1482 L 1234 1324 Z"/>
        </g>
        <g transform="matrix(1 0 0 1 29462 1100)">
            <path fill="#000000" stroke="none" d="M 773 1462 L 1361 862 L 1244 748 L 793 1209 L 793 0 L 609 0 L 609 1211 L 157 748 L 40 862 L 628 1462 L 773 1462 Z"/>
        </g>
        <g transform="matrix(1 0 0 1 30863 1100)">
            <path fill="#000000" stroke="none" d="M 1120 1364 L 1003 1279 L 1228 1117 L 1502 1482 L 1629 1384 L 1299 957 L 1165 957 L 864 1177 L 564 957 L 430 957 L 100 1384 L 227 1482 L 501 1117 L 725 1279 L 609 1364 L 708 1492 L 864 1379 L 1021 1492 L 1120 1364 Z M 957 987 L 957 0 L 773 0 L 773 987 L 957 987 Z"/>
        </g>
        <g transform="matrix(1 0 0 1 33124 1100)">
            <path fill="#000000" stroke="none" d="M 644 158 L 1005 158 L 1005 0 L 100 0 L 100 158 L 460 158 L 460 1304 L 100 1304 L 100 1462 L 1005 1462 L 1005 1304 L 644 1304 L 644 158 Z"/>
        </g>
        <g transform="matrix(1 0 0 1 34229 1100)">
            <path fill="#000000" stroke="none" d="M 40 113 L 521 1462 L 705 1462 L 1188 111 L 1188 0 L 40 0 L 40 113 Z M 611 1262 Q 564 1076 512 932 L 237 158 L 985 158 L 713 924 Q 644 1116 611 1262 Z"/>
        </g>
        <g transform="matrix(1 0 0 1 35457 1100)">
            <path fill="#000000" stroke="none" d="M 439 1241 Q 417 1085 369 893 L 238 380 L 50 380 L 337 1462 L 523 1462 Q 699 1064 790.5 850.5 Q 882 637 892 595 L 1228 1462 L 1414 1462 L 1705 380 L 1518 380 L 1385 891 Q 1330 1103 1314 1241 L 988 380 L 798 380 L 439 1241 Z"/>
        </g>
        <g transform="matrix(1 0 0 1 37212 1100)">
            <path fill="#000000" stroke="none" d="M 1305 380 L 1088 380 L 375 1224 L 367 1224 Q 384 1020 384 817 L 384 380 L 200 380 L 200 1462 L 407 1462 L 1127 603 L 1135 603 Q 1133 627 1127 792.5 Q 1121 958 1121 1018 L 1121 1462 L 1305 1462 L 1305 380 Z"/>
        </g>
        <g transform="matrix(1 0 0 1 38717 1100)">
            <path fill="#000000" stroke="none" d="M 384 0 L 200 0 L 200 1462 L 1017 1462 L 1017 1304 L 384 1304 L 384 781 L 978 781 L 978 625 L 384 625 L 384 0 Z"/>
        </g>
    </g>
</svg>
