<svg width="34035" height="3789" viewBox="0 0 34035 3789" xmlns="http://www.w3.org/2000/svg">
    <defs/>
    <path fill="#000000" stroke="none" transform="matrix(1 0 0 -1 0 2689)" d="M 1137 0 L 442 0 L 442 416 C 346 429.33333333333 271.66666666667 464.33333333333 219 521 C 165.66666666667 577 139 651.66666666667 139 745 C 139 833.66666666667 165.33333333333 906.66666666667 218 964 C 270.66666666667 1021.33333333333 345.33333333333 1057 442 1071 L 442 1462 L 625 1462 L 625 1071 C 723 1057 798 1021.33333333333 850 964 C 902 906.66666666667 928 833 928 743 C 928 652.33333333333 900.66666666667 578 846 520 C 791.33333333333 461.33333333333 717.66666666667 426 625 414 L 625 160 L 1137 160 L 1137 0 Z M 532 918 C 467.33333333333 918 416.66666666667 902.66666666667 380 872 C 342.66666666667 840.66666666667 324 797.66666666667 324 743 C 324 687 343 644 381 614 C 418.33333333333 584 470.33333333333 569 537 569 C 603.66666666667 569 654.66666666667 584.66666666667 690 616 C 725.33333333333 646.66666666667 743 689 743 743 C 743 797.66666666667 725 840.66666666667 689 872 C 653 902.66666666667 600.66666666667 918 532 918 Z"/>
    <path fill="#000000" stroke="none" transform="matrix(1 0 0 -1 1067 2689)" d="M 31 0 C 19.66666666667 0 3.33333333333 3.33333333333 -18 10 C -40 16.66666666667 -57.33333333333 24.33333333333 -70 33 L -70 160 L 180 160 L 180 1462 L 362 1462 L 362 276 C 397.33333333333 198.66666666667 467.66666666667 160 573 160 L 612 160 L 612 0 L 543 0 C 500.33333333333 0 463.66666666667 7.66666666667 433 23 C 402.33333333333 37.66666666667 369.33333333333 68.33333333333 334 115 C 294.66666666667 38.33333333333 221 0 113 0 L 31 0 Z"/>
    <path fill="#000000" stroke="none" transform="matrix(1 0 0 -1 1610 2689)" d="M 80 1051 L 309 1051 L 309 1462 L 492 1462 L 492 1051 L 721 1051 L 721 891 L 492 891 L 492 276 C 526.66666666667 198.66666666667 596.66666666667 160 702 160 L 870 160 L 870 0 L 672 0 C 629.33333333333 0 592.66666666667 7.66666666667 562 23 C 531.33333333333 37.66666666667 498.33333333333 68.33333333333 463 115 C 423.66666666667 38.33333333333 350 0 242 0 L 31 0 C 19.66666666667 0 3.33333333333 3.33333333333 -18 10 C -40 16.66666666667 -57.33333333333 24.33333333333 -70 33 L -70 160 L 309 160 L 309 891 L 80 891 L 80 1051 Z"/>
    <path fill="#000000" stroke="none" transform="matrix(1 0 0 -1 2411 2689)" d="M 965 0 L 758 0 C 706.66666666667 0 663.33333333333 8 628 24 C 592 39.33333333333 553.33333333333 70.33333333333 512 117 C 472 39 397.66666666667 0 289 0 L 31 0 C 19.66666666667 0 3.33333333333 3.33333333333 -18 10 C -40 16.66666666667 -57.33333333333 24.33333333333 -70 33 L -70 160 L 356 160 L 356 717 L 8 1462 L 188 1462 L 365 1079 C 399 1003 426 937.66666666667 446 883 C 456.66666666667 912.33333333333 469 943 483 975 C 496.33333333333 1007 571 1169.33333333333 707 1462 L 887 1462 L 539 717 L 539 276 C 573 198.66666666667 643.33333333333 160 750 160 L 965 160 L 965 0 Z"/>
    <path fill="#000000" stroke="none" transform="matrix(1 0 0 -1 3306 2689)" d="M 997 0 L 899 0 C 848.33333333333 0 805.66666666667 7.33333333333 771 22 C 735.66666666667 36.66666666667 695.66666666667 69 651 119 L 578 -29 L 614 -29 C 688.66666666667 -29 746.66666666667 -45.33333333333 788 -78 C 829.33333333333 -110.66666666667 850 -155 850 -211 C 850 -263 829 -316.33333333333 787 -371 C 744.33333333333 -426.33333333333 688.33333333333 -471 619 -505 C 549 -539.66666666667 475.66666666667 -557 399 -557 C 331 -557 277 -545.33333333333 237 -522 C 196.33333333333 -498.66666666667 176 -469.33333333333 176 -434 C 176 -423.33333333333 187.33333333333 -396.33333333333 210 -353 C 232.66666666667 -309.66666666667 269 -243.66666666667 319 -155 L 401 -2 L 401 0 L 31 0 C 19.66666666667 0 3.33333333333 3.33333333333 -18 10 C -40 16.66666666667 -57.33333333333 24.33333333333 -70 33 L -70 160 L 483 160 C 583 360 647.33333333333 497.66666666667 676 573 L 864 573 C 827.33333333333 480.33333333333 775 365.66666666667 707 229 C 747 183 808.33333333333 160 891 160 L 997 160 L 997 0 Z M 383 -393 C 395 -397 412.33333333333 -399 435 -399 C 488.33333333333 -399 540.66666666667 -381 592 -345 C 642.66666666667 -309.66666666667 668 -271 668 -229 C 668 -201.66666666667 658.33333333333 -184.33333333333 639 -177 C 619.66666666667 -169.66666666667 593 -166 559 -166 L 506 -166 L 446 -279 L 383 -393 Z"/>
    <path fill="#000000" stroke="none" transform="matrix(1 0 0 -1 4234 2689)" d="M 139 1462 L 678 1462 L 678 240 C 678 163.33333333333 655.66666666667 104.33333333333 611 63 C 566.33333333333 21 505.33333333333 0 428 0 L 31 0 C 19.66666666667 0 3.33333333333 3.33333333333 -18 10 C -40 16.66666666667 -57.33333333333 24.33333333333 -70 33 L -70 160 L 496 160 L 496 721 L 139 721 L 139 881 L 496 881 L 496 1303 L 139 1303 L 139 1462 Z"/>
    <path fill="#000000" stroke="none" transform="matrix(1 0 0 -1 5624 2689)" d="M 739 932 L 739 1100 C 739 1213.33333333333 768.66666666667 1302 828 1366 C 887.33333333333 1430 971 1462 1079 1462 C 1174.33333333333 1462 1252 1430.66666666667 1312 1368 C 1371.33333333333 1305.33333333333 1401 1224.66666666667 1401 1126 C 1401 1016 1365.66666666667 929.66666666667 1295 867 C 1223.66666666667 803.66666666667 1124.33333333333 772 997 772 L 922 772 L 922 311 C 922 205.66666666667 895 127.66666666667 841 77 C 787 25.66666666667 704 0 592 0 L 180 0 L 180 621 C 180 725.66666666667 207 803.66666666667 261 855 C 315 906.33333333333 398 932 510 932 L 739 932 Z M 362 160 L 606 160 C 652 160 685.66666666667 173.33333333333 707 200 C 728.33333333333 226.66666666667 739 268.66666666667 739 326 L 739 772 L 496 772 C 451.33333333333 772 418 759.33333333333 396 734 C 373.33333333333 708 362 665.33333333333 362 606 L 362 160 Z M 922 932 L 1004 932 C 1147.33333333333 932 1219 998 1219 1130 C 1219 1184 1206 1226.33333333333 1180 1257 C 1153.33333333333 1287.66666666667 1116.33333333333 1303 1069 1303 C 971 1303 922 1240.66666666667 922 1116 L 922 932 Z"/>
    <path fill="#000000" stroke="none" transform="matrix(1 0 0 -1 7125 2689)" d="M 463 1370 L 477 1348 C 460.33333333333 1267.33333333333 436 1172.66666666667 404 1064 C 372 954.66666666667 337.66666666667 850 301 750 L 168 750 C 210.66666666667 952.66666666667 244.66666666667 1159.33333333333 270 1370 L 463 1370 Z"/>
    <path fill="#000000" stroke="none" transform="matrix(1 0 0 -1 7817 2689)" d="M 498 1462 L 680 1462 L 1077 160 L 1249 160 L 1249 0 L 80 0 L 80 90 L 498 1462 Z M 287 160 L 889 160 L 657 932 C 620.33333333333 1053.33333333333 596.66666666667 1146 586 1210 C 570 1128.66666666667 558.33333333333 1073 551 1043 C 543 1013 455 718.66666666667 287 160 Z"/>
    <path fill="#000000" stroke="none" transform="matrix(1 0 0 -1 8997 2689)" d="M 201 1462 L 895 1462 L 895 276 C 930.33333333333 198.66666666667 1000.66666666667 160 1106 160 L 1145 160 L 1145 0 L 1075 0 C 1031.66666666667 0 994.66666666667 8 964 24 C 932.66666666667 39.33333333333 900 69.66666666667 866 115 C 826.66666666667 38.33333333333 753 0 645 0 L 31 0 C 19.66666666667 0 3.33333333333 3.33333333333 -18 10 C -40 16.66666666667 -57.33333333333 24.33333333333 -70 33 L -70 160 L 180 160 L 180 571 C 180 676.33333333333 207 754.66666666667 261 806 C 315 857.33333333333 398 883 510 883 L 713 883 L 713 1303 L 201 1303 L 201 1462 Z M 362 160 L 713 160 L 713 723 L 496 723 C 451.33333333333 723 418 710.33333333333 396 685 C 373.33333333333 659 362 616.33333333333 362 557 L 362 160 Z"/>
    <path fill="#000000" stroke="none" transform="matrix(1 0 0 -1 10072 2689)" d="M 362 1051 L 362 276 C 397.33333333333 198.66666666667 467.66666666667 160 573 160 L 852 160 L 852 1051 L 1034 1051 L 1034 272 C 1068 197.33333333333 1137.66666666667 160 1243 160 L 1282 160 L 1282 0 L 1212 0 C 1170 0 1133.66666666667 7.66666666667 1103 23 C 1072.33333333333 37.66666666667 1039.33333333333 68.33333333333 1004 115 C 964.66666666667 38.33333333333 890.66666666667 0 782 0 L 543 0 C 500.33333333333 0 463.66666666667 7.66666666667 433 23 C 402.33333333333 37.66666666667 369.33333333333 68.33333333333 334 115 C 294.66666666667 38.33333333333 221 0 113 0 L 31 0 C 19.66666666667 0 3.33333333333 3.33333333333 -18 10 C -40 16.66666666667 -57.33333333333 24.33333333333 -70 33 L -70 160 L 180 160 L 180 1051 L 362 1051 Z"/>
    <path fill="#000000" stroke="none" transform="matrix(1 0 0 -1 11284 2689)" d="M 100 1462 L 664 1462 L 664 1071 C 762 1057 837 1021.33333333333 889 964 C 941 906.66666666667 967 833 967 743 C 967 652.33333333333 939.66666666667 578 885 520 C 830.33333333333 461.33333333333 756.66666666667 426 664 414 L 664 240 C 664 163.33333333333 641.66666666667 104.33333333333 597 63 C 552.33333333333 21 491.33333333333 0 414 0 L 31 0 C 19.66666666667 0 3.33333333333 3.33333333333 -18 10 C -40 16.66666666667 -57.33333333333 24.33333333333 -70 33 L -70 160 L 481 160 L 481 416 C 385 429.33333333333 310.66666666667 464.33333333333 258 521 C 204.66666666667 577 178 651.66666666667 178 745 C 178 833.66666666667 204.33333333333 906.66666666667 257 964 C 309.66666666667 1021.33333333333 384.33333333333 1057 481 1071 L 481 1303 L 100 1303 L 100 1462 Z M 571 918 C 507 918 456.33333333333 903 419 873 C 381 842.33333333333 362 799 362 743 C 362 688.33333333333 380.33333333333 645.66666666667 417 615 C 453.66666666667 584.33333333333 506.33333333333 569 575 569 C 642.33333333333 569 693.66666666667 584.66666666667 729 616 C 764.33333333333 646.66666666667 782 689 782 743 C 782 797.66666666667 764 840.66666666667 728 872 C 692 902.66666666667 639.66666666667 918 571 918 Z"/>
    <path fill="#000000" stroke="none" transform="matrix(1 0 0 -1 12924 2689)" d="M 102 1462 L 965 1462 L 965 1303 L 625 1303 L 625 160 L 1137 160 L 1137 0 L 442 0 L 442 1303 L 102 1303 L 102 1462 Z"/>
    <path fill="#000000" stroke="none" transform="matrix(1 0 0 -1 13991 2689)" d="M 31 0 C 19.66666666667 0 3.33333333333 3.33333333333 -18 10 C -40 16.66666666667 -57.33333333333 24.33333333333 -70 33 L -70 160 L 1040 160 L 1040 770 L 795 770 L 795 500 L 612 500 L 612 772 L 481 772 C 360.33333333333 772 265.66666666667 803 197 865 C 128.33333333333 926.33333333333 94 1013.33333333333 94 1126 C 94 1228 127 1309.66666666667 193 1371 C 259 1431.66666666667 345 1462 451 1462 C 558.33333333333 1462 642.66666666667 1430 704 1366 C 764.66666666667 1302 795 1212 795 1096 L 795 932 L 1223 932 L 1223 276 C 1257 198.66666666667 1327.33333333333 160 1434 160 L 1473 160 L 1473 0 L 1403 0 C 1360.33333333333 0 1323.66666666667 7.66666666667 1293 23 C 1262.33333333333 37.66666666667 1229.33333333333 68.33333333333 1194 115 C 1154.66666666667 38.33333333333 1081 0 973 0 L 31 0 Z M 276 1122 C 276 1063.33333333333 294.66666666667 1017 332 983 C 368.66666666667 949 422.66666666667 932 494 932 L 612 932 L 612 1114 C 612 1174 597.33333333333 1220.66666666667 568 1254 C 538 1286.66666666667 496.66666666667 1303 444 1303 C 392.66666666667 1303 352 1287 322 1255 C 291.33333333333 1222.33333333333 276 1178 276 1122 Z"/>
    <path fill="#000000" stroke="none" transform="matrix(1 0 0 -1 15394 2689)" d="M 483 160 C 550.33333333333 292.66666666667 614.66666666667 430.33333333333 676 573 L 864 573 C 828 482.33333333333 761.66666666667 340.33333333333 665 147 L 580 -27 L 383 -393 C 395 -397 410.66666666667 -399 430 -399 C 474 -399 516.33333333333 -386 557 -360 C 597 -334 635.33333333333 -295.33333333333 672 -244 C 708 -192.66666666667 734 -141.33333333333 750 -90 L 885 -90 C 848.33333333333 -243.33333333333 787 -359.33333333333 701 -438 C 614.33333333333 -517.33333333333 509.66666666667 -557 387 -557 C 326.33333333333 -557 276 -545.33333333333 236 -522 C 196 -499.33333333333 176 -470 176 -434 C 176 -420 204.33333333333 -361.33333333333 261 -258 C 344.33333333333 -106.66666666667 391 -21.33333333333 401 -2 L 401 0 L 31 0 C 19.66666666667 0 3.33333333333 3.33333333333 -18 10 C -40 16.66666666667 -57.33333333333 24.33333333333 -70 33 L -70 160 L 483 160 Z"/>
    <path fill="#000000" stroke="none" transform="matrix(1 0 0 -1 16322 2689)" d="M 182 750 L 168 772 C 202 934 260.66666666667 1133.33333333333 344 1370 L 477 1370 C 456.33333333333 1272 436 1162.33333333333 416 1041 C 396 919 382.33333333333 822 375 750 L 182 750 Z"/>
    <path fill="#000000" stroke="none" transform="matrix(1 0 0 -1 17014 2689)" d="M 948 276 C 983.33333333333 198.66666666667 1053.66666666667 160 1159 160 L 1198 160 L 1198 0 L 1128 0 C 1086 0 1049.66666666667 7.66666666667 1019 23 C 988.33333333333 37.66666666667 955.33333333333 68.33333333333 920 115 C 880.66666666667 38.33333333333 806.66666666667 0 698 0 L 100 0 L 100 160 L 766 160 L 766 891 L 100 891 L 100 1051 L 948 1051 L 948 276 Z"/>
    <path fill="#000000" stroke="none" transform="matrix(1 0 0 -1 18142 2689)" d="M 795 723 L 795 240 C 795 163.33333333333 772.66666666667 104.33333333333 728 63 C 683.33333333333 21 622.33333333333 0 545 0 L 31 0 C 19.66666666667 0 3.33333333333 3.33333333333 -18 10 C -40 16.66666666667 -57.33333333333 24.33333333333 -70 33 L -70 160 L 612 160 L 612 723 L 528 723 C 390 723 283.33333333333 756.66666666667 208 824 C 132 890.66666666667 94 982.66666666667 94 1100 C 94 1209.33333333333 127.33333333333 1297 194 1363 C 260.66666666667 1429 347.66666666667 1462 455 1462 C 561 1462 644.33333333333 1430 705 1366 C 765 1301.33333333333 795 1212 795 1098 L 795 883 L 1104 883 L 1104 723 L 795 723 Z M 276 1108 C 276 1033.33333333333 298.33333333333 977.33333333333 343 940 C 387 902 451 883 535 883 L 612 883 L 612 1112 C 612 1172.66666666667 599 1219.66666666667 573 1253 C 546.33333333333 1286.33333333333 506.33333333333 1303 453 1303 C 398.33333333333 1303 355.33333333333 1285.33333333333 324 1250 C 292 1214 276 1166.66666666667 276 1108 Z"/>
    <path fill="#000000" stroke="none" transform="matrix(1 0 0 -1 19858 2689)" d="M 342 1462 L 342 1145 L 934 1145 L 934 160 L 1184 160 L 1184 0 L 752 0 L 752 985 L 342 985 L 342 674 L 160 674 L 160 1462 L 342 1462 Z"/>
    <path fill="#000000" stroke="none" transform="matrix(1 0 0 -1 20972 2689)" d="M 31 0 C 19.66666666667 0 3.33333333333 3.33333333333 -18 10 C -40 16.66666666667 -57.33333333333 24.33333333333 -70 33 L -70 160 L 592 160 L 592 254 C 592 406.66666666667 577.33333333333 537.33333333333 548 646 C 518 754.66666666667 468.66666666667 859 400 959 C 330.66666666667 1058.33333333333 224 1173 80 1303 L 80 1462 L 895 1462 L 895 1303 L 299 1303 C 609 1027.66666666667 767.33333333333 685.33333333333 774 276 C 809.33333333333 198.66666666667 879.66666666667 160 985 160 L 1067 160 L 1067 0 L 954 0 C 910.66666666667 0 873.66666666667 8 843 24 C 811.66666666667 39.33333333333 779 69.66666666667 745 115 C 707 38.33333333333 633.33333333333 0 524 0 L 31 0 Z"/>
    <path fill="#000000" stroke="none" transform="matrix(1 0 0 -1 21969 2689)" d="M 31 0 C 25 0 17.33333333333 1 8 3 C -1.33333333333 5 -10.66666666667 7.66666666667 -20 11 C -30 13.66666666667 -39.33333333333 17 -48 21 C -56.66666666667 25 -64 29 -70 33 L -70 160 L 180 160 L 180 489 C 180 647 208.66666666667 763.66666666667 266 839 C 323.33333333333 914.33333333333 403.33333333333 952 506 952 C 562.66666666667 952 612 940.66666666667 654 918 C 695.33333333333 895.33333333333 725.66666666667 866.33333333333 745 831 C 755.66666666667 865.66666666667 770.66666666667 897.33333333333 790 926 C 809.33333333333 954.66666666667 832.66666666667 979.33333333333 860 1000 C 886.66666666667 1020.66666666667 917.33333333333 1036.66666666667 952 1048 C 986 1059.33333333333 1023.66666666667 1065 1065 1065 C 1123.66666666667 1065 1176.33333333333 1056 1223 1038 C 1269.66666666667 1019.33333333333 1309.33333333333 991.33333333333 1342 954 C 1374 916 1398.66666666667 868.33333333333 1416 811 C 1433.33333333333 753.66666666667 1442 686 1442 608 L 1442 276 C 1477.33333333333 198.66666666667 1547.66666666667 160 1653 160 L 1735 160 L 1735 0 L 1622 0 C 1596 0 1573.33333333333 2.66666666667 1554 8 C 1534.66666666667 12.66666666667 1517 19.66666666667 1501 29 C 1485 38.33333333333 1470 50.33333333333 1456 65 C 1442 79 1427.66666666667 95.66666666667 1413 115 C 1392.33333333333 75 1362.66666666667 46 1324 28 C 1285.33333333333 9.33333333333 1241.33333333333 0 1192 0 L 31 0 Z M 860 160 L 1260 160 L 1260 631 C 1260 717 1244.66666666667 784.33333333333 1214 833 C 1182.66666666667 881 1132.33333333333 905 1063 905 C 1028.33333333333 905 998.33333333333 898.33333333333 973 885 C 947 871 925.66666666667 851.33333333333 909 826 C 892.33333333333 800.66666666667 880 770.33333333333 872 735 C 864 699.66666666667 860 660 860 616 L 860 160 Z M 362 160 L 678 160 L 678 516 C 678 558.66666666667 675.66666666667 597 671 631 C 665.66666666667 665 657 694 645 718 C 632.33333333333 742 616 760.66666666667 596 774 C 575.33333333333 786.66666666667 550 793 520 793 C 487.33333333333 793 460.66666666667 785.66666666667 440 771 C 419.33333333333 756.33333333333 403.33333333333 736 392 710 C 380.66666666667 684 373 653.33333333333 369 618 C 364.33333333333 582 362 543.33333333333 362 502 L 362 160 Z"/>
    <path fill="#000000" stroke="none" transform="matrix(1 0 0 -1 23591 2689)" d="M 100 1462 L 983 1462 L 983 1303 L 633 1303 L 633 1071 C 731 1057 806 1021.66666666667 858 965 C 910 908.33333333333 936 834.33333333333 936 743 C 936 652.33333333333 909 578 855 520 C 800.33333333333 461.33333333333 726.33333333333 426 633 414 L 633 276 C 668.33333333333 198.66666666667 738.66666666667 160 844 160 L 1153 160 L 1153 0 L 852 0 C 800.66666666667 0 757.33333333333 8 722 24 C 686 39.33333333333 647.33333333333 70.33333333333 606 117 C 585.33333333333 77 555.33333333333 47.66666666667 516 29 C 476.66666666667 9.66666666667 432.33333333333 0 383 0 L 31 0 C 19.66666666667 0 3.33333333333 3.33333333333 -18 10 C -40 16.66666666667 -57.33333333333 24.33333333333 -70 33 L -70 160 L 451 160 L 451 416 C 353.66666666667 429.33333333333 278.66666666667 465 226 523 C 173.33333333333 580.33333333333 147 654.33333333333 147 745 C 147 833.66666666667 173.33333333333 906.66666666667 226 964 C 278.66666666667 1020.66666666667 353.66666666667 1056.33333333333 451 1071 L 451 1303 L 100 1303 L 100 1462 Z M 541 918 C 475.66666666667 918 424.66666666667 902.66666666667 388 872 C 350.66666666667 841.33333333333 332 798.33333333333 332 743 C 332 687 351 644 389 614 C 426.33333333333 584 478.33333333333 569 545 569 C 611.66666666667 569 663 584.66666666667 699 616 C 734.33333333333 646.66666666667 752 689 752 743 C 752 797.66666666667 734 840.66666666667 698 872 C 661.33333333333 902.66666666667 609 918 541 918 Z"/>
    <path fill="#000000" stroke="none" transform="matrix(1 0 0 -1 24674 2689)" d="M 1270 1051 L 1270 276 C 1305.33333333333 198.66666666667 1375.66666666667 160 1481 160 L 1520 160 L 1520 0 L 1450 0 C 1406.66666666667 0 1369.66666666667 8 1339 24 C 1307.66666666667 39.33333333333 1275 69.66666666667 1241 115 C 1201.66666666667 38.33333333333 1128 0 1020 0 L 31 0 C 19.66666666667 0 3.33333333333 3.33333333333 -18 10 C -40 16.66666666667 -57.33333333333 24.33333333333 -70 33 L -70 160 L 180 160 L 180 739 C 180 844.33333333333 207 922.66666666667 261 974 C 315 1025.33333333333 398 1051 510 1051 L 1270 1051 Z M 362 160 L 1087 160 L 1087 891 L 496 891 C 451.33333333333 891 418 878.33333333333 396 853 C 373.33333333333 827 362 784.33333333333 362 725 L 362 160 Z"/>
    <path fill="#000000" stroke="none" transform="matrix(1 0 0 -1 26124 2689)" d="M 31 0 C 19.66666666667 0 3.33333333333 3.33333333333 -18 10 C -40 16.66666666667 -57.33333333333 24.33333333333 -70 33 L -70 160 L 180 160 L 180 1462 L 362 1462 L 362 883 L 547 883 C 698.33333333333 883 813.33333333333 844.66666666667 892 768 C 970.66666666667 691.33333333333 1010 582 1010 440 C 1010 358 991.33333333333 283.33333333333 954 216 C 916.66666666667 148 863.66666666667 95 795 57 C 726.33333333333 19 645.66666666667 0 553 0 L 31 0 Z M 362 723 L 362 160 L 559 160 C 642.33333333333 160 707.33333333333 185 754 235 C 800 284.33333333333 823 352.66666666667 823 440 C 823 528 799.33333333333 597.33333333333 752 648 C 704 698 635 723 545 723 L 362 723 Z"/>
    <path fill="#000000" stroke="none" transform="matrix(1 0 0 -1 27811 2689)" d="M 934 1462 L 934 160 L 1184 160 L 1184 0 L 752 0 L 752 891 L 342 891 L 342 586 L 160 586 L 160 1317 L 342 1317 L 342 1051 L 752 1051 L 752 1462 L 934 1462 Z"/>
    <path fill="#000000" stroke="none" transform="matrix(1 0 0 -1 28925 2689)" d="M 31 0 C 19.66666666667 0 3.33333333333 3.33333333333 -18 10 C -40 16.66666666667 -57.33333333333 24.33333333333 -70 33 L -70 160 L 1135 160 L 1135 0 L 31 0 Z M 430 750 L 416 772 C 431.33333333333 846.66666666667 454.66666666667 938.33333333333 486 1047 C 517.33333333333 1155 552.66666666667 1262.66666666667 592 1370 L 725 1370 C 704.33333333333 1272 684 1162.33333333333 664 1041 C 644 919 630.33333333333 822 623 750 L 430 750 Z"/>
    <path fill="#000000" stroke="none" transform="matrix(1 0 0 -1 29994 2689)" d="M -70 33 L -70 160 L 135 160 L 543 1051 L 725 1051 L 1130 160 L 1337 160 L 1337 0 L 1008 0 C 903.33333333333 231.33333333333 822.66666666667 410 766 536 C 708.66666666667 661.33333333333 664.33333333333 771.33333333333 633 866 C 591.66666666667 748.66666666667 548 639.66666666667 502 539 L 260 0 L 31 0 C 19.66666666667 0 3.33333333333 3.33333333333 -18 10 C -40 16.66666666667 -57.33333333333 24.33333333333 -70 33 Z"/>
    <path fill="#000000" stroke="none" transform="matrix(1 0 0 -1 31262 2689)" d="M 934 1462 L 934 276 C 969.33333333333 198.66666666667 1039.66666666667 160 1145 160 L 1184 160 L 1184 0 L 1114 0 C 1070.66666666667 0 1033.66666666667 8 1003 24 C 971.66666666667 39.33333333333 939 69.66666666667 905 115 C 865.66666666667 38.33333333333 792 0 684 0 L 31 0 C 19.66666666667 0 3.33333333333 3.33333333333 -18 10 C -40 16.66666666667 -57.33333333333 24.33333333333 -70 33 L -70 160 L 752 160 L 752 1303 L 475 1303 C 431 1303 398 1290 376 1264 C 353.33333333333 1238 342 1195.66666666667 342 1137 L 342 829 L 160 829 L 160 1151 C 160 1256.33333333333 187 1334.66666666667 241 1386 C 294.33333333333 1436.66666666667 377 1462 489 1462 L 934 1462 Z"/>
    <path fill="#000000" stroke="none" transform="matrix(1 0 0 -1 32376 2689)" d="M 492 664 L 492 160 L 870 160 L 870 0 L 492 0 L 492 -557 L 309 -557 L 309 0 L 31 0 C 19.66666666667 0 3.33333333333 3.33333333333 -18 10 C -40 16.66666666667 -57.33333333333 24.33333333333 -70 33 L -70 160 L 309 160 L 309 664 L 492 664 Z"/>
    <path fill="#000000" stroke="none" transform="matrix(1 0 0 -1 33177 2689)" d="M 31 0 C 19.66666666667 0 3.33333333333 3.33333333333 -18 10 C -40 16.66666666667 -57.33333333333 24.33333333333 -70 33 L -70 160 L 180 160 L 180 1462 L 719 1462 L 719 1303 L 362 1303 L 362 881 L 719 881 L 719 721 L 362 721 L 362 240 C 362 164 340 105 296 63 C 252 21 191 0 113 0 L 31 0 Z"/>
</svg>
