<svg width="45916" height="3707" viewBox="0 0 45916 3707" xmlns="http://www.w3.org/2000/svg">
    <defs/>
    <g transform="matrix(1 0 0 -1 0 3707)">
        <g transform="matrix(1 0 0 1 0 1300)">
            <path fill="#000000" stroke="none" d="M 200 1098 Q 200 1200 350 1200 L 529 1200 L 529 1062 Q 388 1062 388 1015 L 388 323 Q 388 231 446.5 184.5 Q 505 138 650 138 Q 795 138 853.5 184.5 Q 912 231 912 323 L 912 806 L 832 905 L 792 955 Q 771 980 771 1005 Q 771 1029 790 1053 L 827 1102 L 902 1200 L 1150 1200 L 1150 1062 L 902 1062 L 1100 840 L 1100 323 Q 1100 231 1159 185 Q 1217 138 1331 138 Q 1445 138 1504 185 Q 1562 231 1562 323 L 1562 806 L 1457 905 L 1405 955 Q 1374 984 1374 1012 Q 1374 1033 1390 1053 L 1427 1102 L 1502 1200 L 1750 1200 L 1750 1062 L 1502 1062 L 1750 840 L 1750 323 Q 1750 185 1650 92.5 Q 1550 0 1331 0 Q 1112 0 1012 93 Q 1009 95 1006 98 Q 1003 95 1000 93 Q 900 0 650 0 Q 400 0 300 92.5 Q 200 185 200 323 L 200 1098 Z"/>
        </g>
        <g transform="matrix(1 0 0 1 1950 1300)">
            <path fill="#000000" stroke="none" d="M 388 473 L 388 323 Q 388 231 447 185 Q 505 138 650 138 Q 795 138 854 185 Q 912 231 912 323 L 912 480 L 1100 480 L 1100 323 Q 1100 185 1000 93 Q 900 0 650 0 Q 400 0 300 93 Q 200 185 200 323 L 200 586 L 556 636 Q 912 687 912 877 Q 912 969 854 1016 Q 795 1062 650 1062 Q 505 1062 447 1016 Q 388 969 388 897 Q 388 863 488 863 L 488 719 L 338 719 Q 200 719 200 863 L 200 897 Q 200 1015 300 1108 Q 400 1200 650 1200 Q 900 1200 1000 1108 Q 1100 1015 1100 877 Q 1100 575 566 499 L 388 473 Z"/>
        </g>
        <g transform="matrix(1 0 0 1 3250 1300)">
            <path fill="#000000" stroke="none" d="M 388 310 L 388 138 Q 480 138 480 249 Q 480 310 388 310 Z M 200 923 Q 200 1036 275 1118 Q 350 1200 445 1200 Q 539 1200 650 1076 Q 762 1200 857 1200 Q 951 1200 1026 1118 Q 1100 1036 1100 923 L 1100 400 L 1236 400 L 1278 323 Q 1328 231 1361.5 184.5 Q 1395 138 1420 138 Q 1445 138 1478.5 184.5 Q 1512 231 1512 323 L 1512 806 L 1407 905 L 1355 955 Q 1324 984 1324 1012 Q 1324 1033 1340 1053 L 1377 1102 L 1452 1200 L 1700 1200 L 1700 1062 L 1452 1062 L 1700 840 L 1700 323 Q 1700 185 1625 92.5 Q 1550 0 1420 0 Q 1290 0 1215 93 Q 1157 164 1114 262 L 1100 262 L 1100 0 L 912 0 L 912 923 Q 912 1050 840 1050 Q 791 1050 709 956 Q 682 925 650 925 Q 618 925 591 956 Q 510 1050 461 1050 Q 388 1050 388 923 L 388 448 Q 598 448 598 249 Q 598 0 388 0 Q 200 0 200 122 L 200 923 Z"/>
        </g>
        <g transform="matrix(1 0 0 1 5150 1300)">
            <path fill="#000000" stroke="none" d="M 1038 467 L 1038 323 Q 1038 0 644 0 Q 250 0 250 323 L 250 480 L 438 480 L 438 323 Q 438 138 644 138 Q 850 138 850 323 L 850 482 L 734 499 Q 200 575 200 877 Q 200 1015 300 1108 Q 400 1200 650 1200 Q 900 1200 1000 1108 Q 1100 1015 1100 897 L 1100 847 L 912 847 L 912 897 Q 912 969 853 1016 Q 795 1062 650 1062 Q 505 1062 446 1016 Q 388 969 388 877 Q 388 687 744 636 L 858 620 Q 867 644 887 664 Q 923 700 975 700 Q 1027 700 1063.5 663.5 Q 1100 627 1100 575 Q 1100 523 1064 487 Q 1052 475 1038 467 Z M 1512 806 L 1407 905 L 1355 955 Q 1324 984 1324 1012 Q 1324 1033 1340 1053 L 1377 1102 L 1452 1200 L 1700 1200 L 1700 1062 L 1452 1062 L 1700 840 L 1700 -490 L 1482 -490 L 1276 -303 L 1069 -490 L 850 -490 L 850 -235 Q 850 -194 750 -194 L 750 -50 L 900 -50 Q 1038 -50 1038 -194 L 1038 -324 L 1276 -108 L 1512 -323 L 1512 806 Z"/>
        </g>
        <g transform="matrix(1 0 0 1 7050 1300)">
            <path fill="#000000" stroke="none" d="M 1100 102 Q 1100 0 950 0 L 771 0 L 771 138 Q 912 138 912 185 L 912 531 L 388 531 L 388 102 Q 388 0 238 0 L 59 0 L 59 138 Q 200 138 200 185 L 200 806 L 120 905 L 80 955 Q 59 980 59 1005 Q 59 1029 78 1053 L 115 1102 L 190 1200 L 438 1200 L 438 1062 L 190 1062 L 388 840 L 388 669 L 912 669 L 912 806 L 807 905 L 755 955 Q 724 984 724 1012 Q 724 1033 740 1053 L 777 1102 L 852 1200 L 1100 1200 L 1100 1062 L 852 1062 L 1100 840 L 1100 102 Z"/>
        </g>
        <g transform="matrix(1 0 0 1 8350 1300)">
            <path fill="#000000" stroke="none" d="M 200 586 L 556 636 Q 912 687 912 877 Q 912 969 854 1016 Q 795 1062 650 1062 Q 505 1062 447 1016 Q 388 969 388 897 Q 388 863 488 863 L 488 719 L 338 719 Q 200 719 200 863 L 200 897 Q 200 1015 300 1108 Q 400 1200 650 1200 Q 900 1200 1000 1108 Q 1100 1015 1100 877 Q 1100 575 566 499 L 388 473 L 388 323 Q 388 231 416.5 184.5 Q 445 138 515 138 Q 585 138 748.5 239.5 Q 912 341 912 403 L 912 480 L 1100 480 L 1100 -50 L 912 -50 L 912 153 Q 897 143 880 133 Q 660 0 500 0 Q 340 0 270 92.5 Q 200 185 200 323 L 200 586 Z M 875 1362 L 263 1362 L 242 1337 Q 237 1332 237 1324 Q 237 1292 304 1216 L 314 1204 L 178 1114 L 172 1122 Q 100 1214 100 1255 Q 100 1292 118 1317 L 258 1500 L 761 1500 Q 700 1582 700 1668 Q 700 1775 796 1890 L 930 1823 Q 854 1718 854 1645 Q 854 1602 881 1570 L 944 1495 Q 1137 1463 1180 1222 L 1054 1147 L 875 1362 Z"/>
        </g>
        <g transform="matrix(1 0 0 1 10182 1300)">
            <path fill="#000000" stroke="none" d="M 200 586 L 556 636 Q 912 687 912 877 Q 912 969 854 1016 Q 795 1062 650 1062 Q 505 1062 447 1016 Q 388 969 388 897 Q 388 863 488 863 L 488 719 L 338 719 Q 200 719 200 863 L 200 897 Q 200 1015 300 1108 Q 400 1200 650 1200 Q 900 1200 1000 1108 Q 1100 1015 1100 877 Q 1100 575 566 499 L 388 473 L 388 323 Q 388 231 416.5 184.5 Q 445 138 515 138 Q 585 138 748.5 239.5 Q 912 341 912 403 L 912 480 L 1100 480 L 1100 -50 L 912 -50 L 912 153 Q 897 143 880 133 Q 660 0 500 0 Q 340 0 270 92.5 Q 200 185 200 323 L 200 586 Z M 263 1362 L 242 1337 Q 237 1332 237 1324 Q 237 1292 304 1216 L 314 1204 L 178 1114 L 172 1122 Q 100 1214 100 1255 Q 100 1292 118 1317 L 258 1500 L 880 1500 Q 1130 1500 1180 1222 L 1042 1162 Q 992 1362 880 1362 L 263 1362 Z"/>
        </g>
        <g transform="matrix(1 0 0 1 11482 1300)">
            <path fill="#000000" stroke="none" d="M 912 640 L 912 762 Q 820 762 820 701 Q 820 640 912 640 Z M 1100 0 L 882 0 L 651 210 L 419 0 L 200 0 L 200 786 L 172 822 Q 100 914 100 955 Q 100 992 118 1017 L 258 1200 L 800 1200 Q 912 1200 912 1250 L 912 1400 L 1100 1400 L 1100 1250 Q 1100 1062 800 1062 L 263 1062 L 242 1037 Q 237 1032 237 1024 Q 237 992 304 916 L 388 820 L 388 166 L 651 405 L 912 167 L 912 502 Q 702 502 702 701 Q 702 900 912 900 Q 1100 900 1100 778 L 1100 0 Z"/>
        </g>
        <g transform="matrix(1 0 0 1 12782 1300)">
            <path fill="#000000" stroke="none" d="M 200 1400 L 388 1400 L 388 1039 Q 388 989 424 956 Q 460 923 530 923 Q 604 923 705 953 Q 630 1004 630 1056 Q 630 1200 820 1200 Q 1000 1200 1000 1056 Q 1000 994 932 937 Q 953 930 975 920 Q 1100 867 1100 720 L 1100 0 L 882 0 L 651 210 L 419 0 L 200 0 L 200 535 Q 200 576 100 576 L 100 720 L 250 720 Q 388 720 388 576 L 388 166 L 651 405 L 912 167 L 912 720 Q 912 769 888 792 Q 864 815 828 834 Q 686 785 530 785 Q 372 785 289 855 Q 200 916 200 1039 L 200 1400 Z"/>
        </g>
        <g transform="matrix(1 0 0 1 14082 1300)">
            <path fill="#000000" stroke="none" d="M 1038 467 L 1038 323 Q 1038 0 644 0 Q 250 0 250 323 L 250 480 L 438 480 L 438 323 Q 438 138 644 138 Q 850 138 850 323 L 850 482 L 734 499 Q 200 575 200 877 Q 200 1015 300 1108 Q 400 1200 650 1200 Q 900 1200 1000 1108 Q 1100 1015 1100 897 L 1100 847 L 912 847 L 912 897 Q 912 969 853 1016 Q 795 1062 650 1062 Q 505 1062 446 1016 Q 388 969 388 877 Q 388 687 744 636 L 858 620 Q 867 644 887 664 Q 923 700 975 700 Q 1027 700 1063.5 663.5 Q 1100 627 1100 575 Q 1100 523 1064 487 Q 1052 475 1038 467 Z"/>
        </g>
        <g transform="matrix(1 0 0 1 15382 1300)">
            <path fill="#000000" stroke="none" d="M 388 310 L 388 138 Q 480 138 480 249 Q 480 310 388 310 Z M 2338 0 L 2150 0 L 2150 877 Q 2150 1062 1919 1062 Q 1688 1062 1688 877 L 1688 0 L 1470 0 L 1270 182 L 1069 0 L 850 0 L 850 877 Q 850 1062 619 1062 Q 388 1062 388 877 L 388 448 Q 598 448 598 249 Q 598 0 388 0 Q 200 0 200 122 L 200 877 Q 200 1200 619 1200 Q 1038 1200 1038 877 L 1038 166 L 1270 377 L 1500 167 L 1500 877 Q 1500 1200 1919 1200 Q 2338 1200 2338 877 L 2338 0 Z"/>
        </g>
        <g transform="matrix(1 0 0 1 17920 1300)">
            <path fill="#000000" stroke="none" d="M 172 822 Q 100 914 100 955 Q 100 992 118 1017 L 258 1200 L 800 1200 Q 912 1200 912 1250 L 912 1400 L 1100 1400 L 1100 1250 Q 1100 1062 800 1062 L 263 1062 L 242 1037 Q 237 1032 237 1024 Q 237 992 304 916 L 314 904 L 178 814 L 172 822 Z M 388 310 L 388 138 Q 480 138 480 249 Q 480 310 388 310 Z M 200 600 Q 200 738 300 831 Q 400 923 650 923 Q 900 923 1000 831 Q 1100 738 1100 600 L 1100 0 L 912 0 L 912 600 Q 912 692 854 739 Q 795 785 650 785 Q 505 785 447 739 Q 388 692 388 600 L 388 448 Q 598 448 598 249 Q 598 0 388 0 Q 200 0 200 122 L 200 600 Z"/>
        </g>
        <g transform="matrix(1 0 0 1 19752 1300)">
            <path fill="#000000" stroke="none" d="M 862 806 L 782 905 L 742 955 Q 721 980 721 1005 Q 721 1029 740 1053 L 777 1102 L 852 1200 L 1100 1200 L 1100 1062 L 852 1062 L 1050 840 L 1050 323 Q 1050 138 1281 138 Q 1512 138 1512 323 L 1512 806 L 1407 905 L 1355 955 Q 1324 984 1324 1012 Q 1324 1033 1340 1053 L 1377 1102 L 1452 1200 L 1700 1200 L 1700 1062 L 1452 1062 L 1700 840 L 1700 323 Q 1700 0 1281 0 Q 1062 0 956 98 Q 850 0 625 0 Q 200 0 200 323 L 200 1015 Q 200 1062 59 1062 L 59 1200 L 238 1200 Q 388 1200 388 1098 L 388 323 Q 388 138 625 138 Q 862 138 862 323 L 862 806 Z"/>
        </g>
        <g transform="matrix(1 0 0 1 21652 1300)">
            <path fill="#000000" stroke="none" d="M 388 310 L 388 138 Q 480 138 480 249 Q 480 310 388 310 Z M 200 923 Q 200 1036 275 1118 Q 350 1200 445 1200 Q 539 1200 650 1076 Q 762 1200 857 1200 Q 951 1200 1026 1118 Q 1100 1036 1100 923 L 1100 0 L 912 0 L 912 923 Q 912 1050 840 1050 Q 791 1050 709 956 Q 682 925 650 925 Q 618 925 591 956 Q 510 1050 461 1050 Q 388 1050 388 923 L 388 448 Q 598 448 598 249 Q 598 0 388 0 Q 200 0 200 122 L 200 923 Z"/>
        </g>
        <g transform="matrix(1 0 0 1 22952 1300)">
            <path fill="#000000" stroke="none" d="M 1100 1200 L 1100 1062 L 200 1062 L 200 1200 L 1100 1200 Z M 388 600 L 388 0 L 200 0 L 200 600 Q 200 923 650 923 Q 1100 923 1100 600 L 1100 0 L 912 0 L 912 600 Q 912 785 650 785 Q 388 785 388 600 Z"/>
        </g>
        <g transform="matrix(1 0 0 1 24252 1300)">
            <path fill="#000000" stroke="none" d="M 200 586 L 556 636 Q 912 687 912 877 Q 912 969 854 1016 Q 795 1062 650 1062 Q 505 1062 447 1016 Q 388 969 388 897 Q 388 863 488 863 L 488 719 L 338 719 Q 200 719 200 863 L 200 897 Q 200 1015 300 1108 Q 400 1200 650 1200 Q 900 1200 1000 1108 Q 1100 1015 1100 877 Q 1100 575 566 499 L 388 473 L 388 323 Q 388 231 416.5 184.5 Q 445 138 515 138 Q 585 138 748.5 239.5 Q 912 341 912 403 L 912 480 L 1100 480 L 1100 -50 L 912 -50 L 912 153 Q 897 143 880 133 Q 660 0 500 0 Q 340 0 270 92.5 Q 200 185 200 323 L 200 586 Z M 1100 1500 L 1100 1362 L 200 1362 L 200 1500 L 1100 1500 Z"/>
        </g>
        <g transform="matrix(1 0 0 1 25552 1300)">
            <path fill="#000000" stroke="none" d="M 670 -246 L 912 -282 L 912 -185 L 670 -246 Z M 388 310 L 388 138 Q 480 138 480 249 Q 480 310 388 310 Z M 383 -316 L 383 -356 Q 383 -395 469 -395 Q 541 -395 569 -372 Q 596 -351 596 -321 L 596 -265 L 383 -316 Z M 200 923 Q 200 1036 275 1118 Q 350 1200 445 1200 Q 539 1200 650 1076 Q 762 1200 857 1200 Q 951 1200 1026 1118 Q 1100 1036 1100 923 L 1100 -275 Q 1100 -332 1040.5 -360.50003 Q 981 -389 816 -389 L 706 -363 Q 706 -410 650 -455 Q 596 -500 466 -500 Q 200 -500 200 -360 L 200 -219 Q 486 -168 699 -126 Q 912 -84 912 -50 L 912 923 Q 912 1050 840 1050 Q 791 1050 709 956 Q 682 925 650 925 Q 618 925 591 956 Q 510 1050 461 1050 Q 388 1050 388 923 L 388 448 Q 598 448 598 249 Q 598 0 388 0 Q 200 0 200 122 L 200 923 Z"/>
        </g>
        <g transform="matrix(1 0 0 1 26852 1300)">
            <path fill="#000000" stroke="none" d="M 1100 1200 L 1100 1062 L 200 1062 L 200 1200 L 1100 1200 Z M 388 320 Q 457 400 573 400 L 700 400 L 700 262 L 596 262 Q 493 262 450 216 Q 408 171 388 86 L 388 0 L 200 0 L 200 600 Q 200 923 650 923 Q 1100 923 1100 600 L 1100 0 L 912 0 L 912 600 Q 912 785 650 785 Q 388 785 388 600 L 388 320 Z"/>
        </g>
        <g transform="matrix(1 0 0 1 28684 1300)">
            <path fill="#000000" stroke="none" d="M 1080 -286 Q 1127 -380 1170 -380 L 1250 -380 L 1250 -500 L 1170 -500 Q 1074 -500 975 -406 Q 826 -500 500 -500 L 200 -500 L 200 -380 L 500 -380 Q 912 -380 912 -180 L 800 -180 L 800 -50 L 1100 -50 L 1100 -180 Q 1100 -238 1080 -286 Z M 388 310 L 388 138 Q 480 138 480 249 Q 480 310 388 310 Z M 200 923 Q 200 1036 275 1118 Q 350 1200 445 1200 Q 539 1200 650 1076 Q 762 1200 857 1200 Q 951 1200 1026 1118 Q 1100 1036 1100 923 L 1100 0 L 912 0 L 912 923 Q 912 1050 840 1050 Q 791 1050 709 956 Q 682 925 650 925 Q 618 925 591 956 Q 510 1050 461 1050 Q 388 1050 388 923 L 388 448 Q 598 448 598 249 Q 598 0 388 0 Q 200 0 200 122 L 200 923 Z"/>
        </g>
        <g transform="matrix(1 0 0 1 29984 1300)">
            <path fill="#000000" stroke="none" d="M 812 993 Q 709 904 625 904 Q 561 904 508 956 Q 460 1050 391 1050 Q 338 1050 338 973 L 338 947 Q 338 913 438 913 L 438 769 L 288 769 Q 150 769 150 913 L 150 973 Q 150 1036 205 1118 Q 260 1200 375 1200 Q 489 1200 600 1046 Q 614 1036 631 1036 Q 700 1036 812 1200 L 1000 1200 L 1000 -80 Q 1000 -400 550 -400 L 550 -262 Q 812 -262 812 -80 L 812 993 Z"/>
        </g>
        <g transform="matrix(1 0 0 1 31184 1300)">
            <path fill="#000000" stroke="none" d="M 388 166 L 651 405 L 912 167 L 912 923 L 1100 923 L 1100 0 L 882 0 L 651 210 L 419 0 L 200 0 L 200 786 L 172 822 Q 100 914 100 955 Q 100 992 118 1017 L 258 1200 L 800 1200 Q 912 1200 912 1250 L 912 1400 L 1100 1400 L 1100 1250 Q 1100 1062 800 1062 L 263 1062 L 242 1037 Q 237 1032 237 1024 Q 237 992 304 916 L 388 820 L 388 166 Z"/>
        </g>
        <g transform="matrix(1 0 0 1 32484 1300)">
            <path fill="#000000" stroke="none" d="M 388 310 L 388 138 Q 480 138 480 249 Q 480 310 388 310 Z M 1512 806 L 1407 905 L 1355 955 Q 1324 984 1324 1012 Q 1324 1033 1340 1053 L 1377 1102 L 1452 1200 L 1700 1200 L 1700 1062 L 1452 1062 L 1700 840 L 1700 323 Q 1700 0 1281 0 Q 862 0 862 323 L 862 600 Q 862 785 625 785 Q 388 785 388 600 L 388 448 Q 598 448 598 249 Q 598 0 388 0 Q 200 0 200 122 L 200 600 Q 200 738 300 831 Q 319 849 344 863 L 310 905 L 270 955 Q 249 980 249 1005 Q 249 1029 268 1053 L 305 1102 L 380 1200 L 950 1200 L 950 1062 L 380 1062 L 510 916 Q 563 923 625 923 Q 1050 923 1050 600 L 1050 323 Q 1050 138 1281 138 Q 1512 138 1512 323 L 1512 806 Z"/>
        </g>
        <g transform="matrix(1 0 0 1 34384 1300)">
            <path fill="#000000" stroke="none" d="M 906 453 L 800 360 L 687 465 L 1022 762 L 644 762 L 644 900 L 1022 900 L 1097 802 L 1134 753 Q 1150 733 1150 712 Q 1150 684 1119 655 L 1067 605 L 1043 582 Q 1100 504 1100 400 L 1100 323 Q 1100 185 1000 92 Q 900 0 650 0 Q 400 0 300 92 Q 200 185 200 323 L 200 877 Q 200 1015 300 1108 Q 400 1200 625 1200 Q 910 1200 1050 1108 L 974 986 Q 855 1062 625 1062 Q 505 1062 447 1016 Q 388 969 388 877 L 388 323 Q 388 231 447 184 Q 505 138 650 138 Q 795 138 854 184 Q 912 231 912 323 L 912 400 Q 912 429 906 453 Z"/>
        </g>
        <g transform="matrix(1 0 0 1 35684 1300)">
            <path fill="#000000" stroke="none" d="M 200 -380 L 500 -380 Q 912 -380 912 -180 L 800 -180 L 800 -50 L 1100 -50 L 1100 -180 Q 1100 -500 500 -500 L 200 -500 L 200 -380 Z M 912 806 L 807 905 L 755 955 Q 724 984 724 1012 Q 724 1033 740 1053 L 777 1102 L 852 1200 L 1100 1200 L 1100 1062 L 852 1062 L 1100 840 L 1100 323 Q 1100 185 1000 92.5 Q 900 0 650 0 Q 400 0 300 92.5 Q 200 185 200 323 L 200 806 L 120 905 L 80 955 Q 59 980 59 1005 Q 59 1029 78 1053 L 115 1102 L 190 1200 L 438 1200 L 438 1062 L 190 1062 L 388 840 L 388 323 Q 388 231 446.5 184.5 Q 505 138 650 138 Q 795 138 853.5 184.5 Q 912 231 912 323 L 912 806 Z"/>
        </g>
        <g transform="matrix(1 0 0 1 37516 1300)">
            <path fill="#000000" stroke="none" d="M 912 153 Q 897 143 880 133 Q 660 0 500 0 Q 340 0 270 92.5 Q 200 185 200 323 L 200 586 L 556 636 Q 912 687 912 877 L 912 923 Q 912 1050 840 1050 Q 791 1050 709 956 Q 682 925 650 925 Q 618 925 591 956 Q 510 1050 461 1050 Q 388 1050 388 923 L 388 897 Q 388 863 488 863 L 488 719 L 338 719 Q 200 719 200 863 L 200 923 Q 200 1036 275 1118 Q 350 1200 445 1200 Q 539 1200 650 1076 Q 762 1200 857 1200 Q 951 1200 1026 1118 Q 1100 1036 1100 923 L 1100 877 Q 1100 575 566 499 L 388 473 L 388 323 Q 388 231 416.5 184.5 Q 445 138 515 138 Q 585 138 748.5 239.5 Q 912 341 912 403 L 912 480 L 1100 480 L 1100 -50 L 912 -50 L 912 153 Z"/>
        </g>
        <g transform="matrix(1 0 0 1 38816 1300)">
            <path fill="#000000" stroke="none" d="M 388 310 L 388 138 Q 480 138 480 249 Q 480 310 388 310 Z M 1512 806 L 1407 905 L 1355 955 Q 1324 984 1324 1012 Q 1324 1033 1340 1053 L 1377 1102 L 1452 1200 L 1700 1200 L 1700 1062 L 1452 1062 L 1700 840 L 1700 323 Q 1700 0 1281 0 Q 862 0 862 323 L 862 877 Q 862 1062 625 1062 Q 388 1062 388 877 L 388 448 Q 598 448 598 249 Q 598 0 388 0 Q 200 0 200 122 L 200 877 Q 200 1200 625 1200 Q 1050 1200 1050 877 L 1050 323 Q 1050 138 1281 138 Q 1512 138 1512 323 L 1512 806 Z"/>
        </g>
        <g transform="matrix(1 0 0 1 40716 1300)">
            <path fill="#000000" stroke="none" d="M 912 640 L 912 762 Q 820 762 820 701 Q 820 640 912 640 Z M 200 786 L 172 822 Q 100 914 100 955 Q 100 992 118 1017 L 258 1200 L 800 1200 Q 912 1200 912 1250 L 912 1400 L 1100 1400 L 1100 1250 Q 1100 1062 800 1062 L 263 1062 L 242 1037 Q 237 1032 237 1024 Q 237 992 304 916 L 388 820 L 388 323 Q 388 138 650 138 Q 912 138 912 323 L 912 502 Q 702 502 702 701 Q 702 900 912 900 Q 1100 900 1100 778 L 1100 323 Q 1100 0 650 0 Q 200 0 200 323 L 200 786 Z"/>
        </g>
        <g transform="matrix(1 0 0 1 42016 1300)">
            <path fill="#000000" stroke="none" d="M 200 1015 Q 200 1062 80 1062 L 80 1200 L 238 1200 Q 388 1200 388 1098 L 388 323 Q 388 138 650 138 Q 912 138 912 323 L 912 746 L 645 955 Q 614 984 614 1012 Q 614 1033 630 1053 L 667 1102 L 742 1200 L 842 1200 Q 912 1200 912 1250 L 912 1400 L 1100 1400 L 1100 1250 Q 1100 1062 842 1062 L 742 1062 L 1100 840 L 1100 323 Q 1100 0 650 0 Q 200 0 200 323 L 200 1015 Z"/>
        </g>
        <g transform="matrix(1 0 0 1 43316 1300)">
            <path fill="#000000" stroke="none" d="M 200 586 L 556 636 Q 912 687 912 877 Q 912 969 854 1016 Q 795 1062 650 1062 Q 505 1062 447 1016 Q 388 969 388 897 Q 388 863 488 863 L 488 719 L 338 719 Q 200 719 200 863 L 200 897 Q 200 1015 300 1108 Q 400 1200 650 1200 Q 900 1200 1000 1108 Q 1100 1015 1100 877 Q 1100 575 566 499 L 388 473 L 388 323 Q 388 231 416.5 184.5 Q 445 138 515 138 Q 585 138 748.5 239.5 Q 912 341 912 403 L 912 480 L 1100 480 L 1100 -50 L 912 -50 L 912 153 Q 897 143 880 133 Q 660 0 500 0 Q 340 0 270 92.5 Q 200 185 200 323 L 200 586 Z"/>
        </g>
        <g transform="matrix(1 0 0 1 44616 1300)">
            <path fill="#000000" stroke="none" d="M 1100 1200 L 1100 1062 L 200 1062 L 200 1200 L 1100 1200 Z M 1100 400 L 1200 400 L 1200 262 L 1100 262 L 1100 0 L 912 0 L 912 262 L 740 262 L 740 400 L 912 400 L 912 600 Q 912 692 854 739 Q 795 785 650 785 Q 505 785 447 739 Q 388 692 388 600 L 388 320 Q 457 400 573 400 L 700 400 L 700 262 L 596 262 Q 493 262 450 216 Q 408 171 388 86 L 388 0 L 200 0 L 200 600 Q 200 738 300 831 Q 400 923 650 923 Q 900 923 1000 831 Q 1100 738 1100 600 L 1100 400 Z"/>
        </g>
    </g>
</svg>
