<svg width="35342" height="3789" viewBox="0 0 35342 3789" xmlns="http://www.w3.org/2000/svg">
    <defs/>
    <path fill="#000000" stroke="none" transform="matrix(1 0 0 -1 0 2689)" d="M 950 1106 C 950 1002.66666666667 927.33333333333 896 882 786 C 836.66666666667 675.33333333333 760.33333333333 545 653 395 C 757.66666666667 291 905.33333333333 159.33333333333 1096 0 L 817 0 C 705 100.66666666667 615.66666666667 185.33333333333 549 254 C 495.66666666667 182 371.33333333333 23.66666666667 176 -221 L -53 -221 C 152.33333333333 19 314.66666666667 218.33333333333 434 377 C 321.33333333333 505.66666666667 240.66666666667 625 192 735 C 143.33333333333 845 119 964 119 1092 C 119 1177.33333333333 135.33333333333 1254.33333333333 168 1323 L 911 1323 C 937 1254.33333333333 950 1182 950 1106 Z M 303 1085 C 303 984.33333333333 322 888.66666666667 360 798 C 397.33333333333 706.66666666667 457 613.33333333333 539 518 C 620.33333333333 635.33333333333 678.66666666667 736.66666666667 714 822 C 748.66666666667 906.66666666667 766 997.33333333333 766 1094 C 766 1120.66666666667 763.33333333333 1143.66666666667 758 1163 L 309 1163 C 305 1141 303 1115 303 1085 Z"/>
    <path fill="#000000" stroke="none" transform="matrix(1 0 0 -1 1059 2689)" d="M 383 -410 L 199 -492 L 199 1708 L 383 1708 L 383 1323 L 977 1323 L 977 1161 L 383 1161 L 383 623 L 977 623 L 977 461 L 383 461 L 383 -410 Z"/>
    <path fill="#000000" stroke="none" transform="matrix(1 0 0 -1 2097 2689)" d="M 383 156 L 551 156 C 691 156 800.33333333333 178 879 222 C 957.66666666667 266 997 329.33333333333 997 412 C 997 495.33333333333 958 559.33333333333 880 604 C 801.33333333333 648.66666666667 680.66666666667 676.66666666667 518 688 L 518 827 C 622.66666666667 859.66666666667 695.33333333333 894.66666666667 736 932 C 776.66666666667 969.33333333333 797 1015 797 1069 C 797 1112.33333333333 784.33333333333 1149 759 1179 C 733.66666666667 1209 700.33333333333 1231.66666666667 659 1247 L 733 1378 C 815.66666666667 1354 878.66666666667 1317.66666666667 922 1269 C 965.33333333333 1220.33333333333 987 1162 987 1094 C 987 1024.66666666667 967 965.33333333333 927 916 C 887 866 821 822.66666666667 729 786 L 729 778 C 875 768 988 732 1068 670 C 1148 607.33333333333 1188 525.33333333333 1188 424 C 1188 294 1133.66666666667 191 1025 115 C 916.33333333333 38.33333333333 770 0 586 0 L 199 0 L 199 1323 L 383 1323 L 383 156 Z"/>
    <path fill="#000000" stroke="none" transform="matrix(1 0 0 -1 3389 2689)" d="M 199 0 L 199 1274 C 275.66666666667 1294.66666666667 359.66666666667 1310.66666666667 451 1322 C 542.33333333333 1333.33333333333 627.66666666667 1339 707 1339 C 1119 1339 1325 1152.66666666667 1325 780 L 1325 0 L 1141 0 L 1141 756 C 1141 902 1106.66666666667 1009.33333333333 1038 1078 C 968.66666666667 1146 858.33333333333 1180 707 1180 C 579 1180 471 1169.66666666667 383 1149 L 383 0 L 199 0 Z"/>
    <path fill="#000000" stroke="none" transform="matrix(1 0 0 -1 4907 2689)" d="M 1296 0 L 1112 0 L 1112 1161 L 383 1161 L 383 0 L 199 0 L 199 1323 L 1296 1323 L 1296 0 Z"/>
    <path fill="#000000" stroke="none" transform="matrix(1 0 0 -1 6404 2689)" d="M 1319 428 C 1325 406.66666666667 1330.66666666667 373.33333333333 1336 328 C 1340.66666666667 282 1343 242.33333333333 1343 209 C 1343 -66.33333333333 1245.66666666667 -300 1051 -492 L 827 -492 C 1049.66666666667 -296.66666666667 1161 -86.33333333333 1161 139 L 1161 178 C 1063.66666666667 46 923 -20 739 -20 C 618.33333333333 -20 511.33333333333 7.66666666667 418 63 C 324.66666666667 118.33333333333 252.66666666667 196.66666666667 202 298 C 150.66666666667 398.66666666667 125 515 125 647 C 125 784.33333333333 153 906 209 1012 C 264.33333333333 1117.33333333333 344 1198.66666666667 448 1256 C 551.33333333333 1312.66666666667 670.33333333333 1341 805 1341 C 915 1341 1014.33333333333 1325 1103 1293 C 1191.66666666667 1261 1265.66666666667 1214.33333333333 1325 1153 L 1221 1014 C 1157 1072.66666666667 1091.33333333333 1114.66666666667 1024 1140 C 956 1165.33333333333 882.33333333333 1178 803 1178 C 653 1178 534.66666666667 1130.66666666667 448 1036 C 360.66666666667 940.66666666667 317 812.33333333333 317 651 C 317 493 357.33333333333 368.33333333333 438 277 C 518 185 626 139 762 139 C 854.66666666667 139 935.66666666667 164.66666666667 1005 216 C 1073.66666666667 266.66666666667 1122.33333333333 337.33333333333 1151 428 L 1319 428 Z"/>
    <path fill="#000000" stroke="none" transform="matrix(1 0 0 -1 8396 2689)" d="M 383 0 L 199 0 L 199 1323 L 383 1323 L 383 0 Z"/>
    <path fill="#000000" stroke="none" transform="matrix(1 0 0 -1 8978 2689)" d="M 1223 0 L 98 0 L 98 139 L 891 1159 L 61 1159 L 61 1323 L 1112 1323 L 1112 1184 L 319 164 L 1223 164 L 1223 0 Z"/>
    <path fill="#000000" stroke="none" transform="matrix(1 0 0 -1 10252 2689)" d="M 1073 358 C 1073 236.66666666667 1027.33333333333 143.33333333333 936 78 C 844 12.66666666667 714.33333333333 -20 547 -20 C 378.33333333333 -20 233.66666666667 12.66666666667 113 78 L 113 260 C 173.66666666667 226 244 197.33333333333 324 174 C 404 150.66666666667 482.33333333333 139 559 139 C 779 139 889 208 889 346 C 889 386 878.33333333333 419.33333333333 857 446 C 835 472.66666666667 800.33333333333 496.66666666667 753 518 C 705.66666666667 538.66666666667 619.33333333333 564 494 594 C 348 629.33333333333 245.33333333333 676.33333333333 186 735 C 126 793.66666666667 96 872.33333333333 96 971 C 96 1089 141.66666666667 1181.33333333333 233 1248 C 324.33333333333 1314.66666666667 448 1348 604 1348 C 706.66666666667 1348 799.33333333333 1335 882 1309 C 964.66666666667 1283 1031.66666666667 1246 1083 1198 L 989 1053 C 933 1100.33333333333 873 1134.33333333333 809 1155 C 745 1175.66666666667 674 1186 596 1186 C 494 1186 416.33333333333 1168.33333333333 363 1133 C 309.66666666667 1097 283 1045 283 977 C 283 931.66666666667 293 895 313 867 C 332.33333333333 838.33333333333 364.33333333333 814.33333333333 409 795 C 453 775 523.66666666667 754.33333333333 621 733 C 748.33333333333 705 841 675.66666666667 899 645 C 956.33333333333 614.33333333333 999.66666666667 576 1029 530 C 1058.33333333333 483.33333333333 1073 426 1073 358 Z"/>
    <path fill="#000000" stroke="none" transform="matrix(1 0 0 -1 11428 2689)" d="M 1440 1323 L 1440 0 L 1255 0 L 1255 961 C 1215 871 1153.66666666667 794 1071 730 C 987.66666666667 665.33333333333 901.66666666667 633 813 633 C 729.66666666667 633 646.33333333333 665.66666666667 563 731 C 479 795.66666666667 419 872.33333333333 383 961 L 383 0 L 199 0 L 199 1323 L 383 1323 C 399 1242.33333333333 431 1161.33333333333 479 1080 C 527 998 581.33333333333 933.66666666667 642 887 C 702 840.33333333333 761 817 819 817 C 877 817 936.33333333333 841 997 889 C 1057.66666666667 937 1111.66666666667 1001 1159 1081 C 1205.66666666667 1161 1237.66666666667 1241.66666666667 1255 1323 L 1440 1323 Z"/>
    <path fill="#000000" stroke="none" transform="matrix(1 0 0 -1 13068 2689)" d="M 1475 662 C 1475 532 1447 414.66666666667 1391 310 C 1335 205.33333333333 1255.66666666667 124.33333333333 1153 67 C 1049.66666666667 9 932.33333333333 -20 801 -20 C 663.66666666667 -20 544 8.33333333333 442 65 C 340 121.66666666667 261.66666666667 202 207 306 C 152.33333333333 410 125 529.33333333333 125 664 C 125 794.66666666667 153.66666666667 912.33333333333 211 1017 C 268.33333333333 1121 349 1202 453 1260 C 557 1317.33333333333 673.66666666667 1346 803 1346 C 938.33333333333 1346 1057 1318.33333333333 1159 1263 C 1260.33333333333 1207.66666666667 1338.33333333333 1128.33333333333 1393 1025 C 1447.66666666667 921 1475 800 1475 662 Z M 319 662 C 319 559.33333333333 339 468 379 388 C 419 308 475.33333333333 246.66666666667 548 204 C 620.66666666667 160.66666666667 705 139 801 139 C 949.66666666667 139 1066.66666666667 186 1152 280 C 1237.33333333333 374 1280 501.33333333333 1280 662 C 1280 819.33333333333 1237.66666666667 945.66666666667 1153 1041 C 1067.66666666667 1136.33333333333 951 1184 803 1184 C 656.33333333333 1184 539 1136.66666666667 451 1042 C 363 946.66666666667 319 820 319 662 Z M 674 664 C 674 708.66666666667 684.66666666667 743 706 767 C 727.33333333333 791 758.33333333333 803 799 803 C 840.33333333333 803 872.33333333333 790.66666666667 895 766 C 917 740.66666666667 928 706.66666666667 928 664 C 928 620.66666666667 916.66666666667 586.66666666667 894 562 C 871.33333333333 536.66666666667 839.66666666667 524 799 524 C 759.66666666667 524 729 536 707 560 C 685 583.33333333333 674 618 674 664 Z"/>
    <path fill="#000000" stroke="none" transform="matrix(1 0 0 -1 14667 2689)" d="M 1202 0 L 983 0 L 596 573 L 203 0 L -2 0 L 481 688 L 31 1323 L 244 1323 L 602 805 L 963 1323 L 1169 1323 L 717 692 L 1202 0 Z"/>
    <path fill="#000000" stroke="none" transform="matrix(1 0 0 -1 16399 2689)" d="M 1309 0 L 1040 0 L 383 639 L 383 -410 L 199 -492 L 199 1323 L 383 1323 L 383 680 C 544.33333333333 732 661.66666666667 785 735 839 C 807.66666666667 892.33333333333 844 952 844 1018 C 844 1069.33333333333 828.33333333333 1111.33333333333 797 1144 C 765 1176 708.33333333333 1205.66666666667 627 1233 L 696 1374 C 804.66666666667 1343.33333333333 888.33333333333 1301.66666666667 947 1249 C 1005 1195.66666666667 1034 1126.66666666667 1034 1042 C 1034 863.33333333333 901 728.33333333333 635 637 L 1309 0 Z"/>
    <path fill="#000000" stroke="none" transform="matrix(1 0 0 -1 17699 2689)" d="M 383 1311 C 469.66666666667 1327 570 1335 684 1335 C 897.33333333333 1335 1057.66666666667 1289.33333333333 1165 1198 C 1271.66666666667 1106.66666666667 1325 966 1325 776 L 1325 0 L 1141 0 L 1141 752 C 1141 901.33333333333 1104.33333333333 1009.33333333333 1031 1076 C 957.66666666667 1142.66666666667 836.66666666667 1176 668 1176 C 566 1176 471 1165.66666666667 383 1145 L 383 0 L 199 0 L 199 1708 L 383 1708 L 383 1311 Z"/>
    <path fill="#000000" stroke="none" transform="matrix(1 0 0 -1 19217 2689)" d="M 397 682 C 363 650 335.66666666667 610.33333333333 315 563 C 293.66666666667 515 283 466 283 416 C 283 330.66666666667 306.33333333333 262.66666666667 353 212 C 399.66666666667 160.66666666667 464.33333333333 135 547 135 C 604.33333333333 135 654.33333333333 148 697 174 C 739.66666666667 200 772.33333333333 235.33333333333 795 280 C 817.66666666667 324.66666666667 829 375.33333333333 829 432 C 829 491.33333333333 820.66666666667 545.33333333333 804 594 C 786.66666666667 642 761.66666666667 691 729 741 L 354 1323 L 569 1323 L 1419 0 L 1202 0 L 979 350 C 966.33333333333 238 919.33333333333 148.33333333333 838 81 C 756 13.66666666667 654 -20 532 -20 C 396.66666666667 -20 289.66666666667 17.33333333333 211 92 C 131.66666666667 166 92 266.33333333333 92 393 C 92 507 126.33333333333 603.33333333333 195 682 L 397 682 Z"/>
    <path fill="#000000" stroke="none" transform="matrix(1 0 0 -1 20628 2689)" d="M 662 0 L 477 0 L 477 1161 L 20 1161 L 20 1323 L 1116 1323 L 1116 1161 L 662 1161 L 662 0 Z"/>
    <path fill="#000000" stroke="none" transform="matrix(1 0 0 -1 21767 2689)" d="M 211 442 C 211 634 243.66666666667 781.66666666667 309 885 L 477 885 L 195 1323 L 408 1323 L 1255 0 L 1040 0 L 496 856 C 428.66666666667 754.66666666667 395 610.66666666667 395 424 L 395 -303 L 211 -385 L 211 442 Z"/>
    <path fill="#000000" stroke="none" transform="matrix(1 0 0 -1 23014 2689)" d="M 1024 1323 L 1024 1159 L 383 1159 L 383 0 L 199 0 L 199 1323 L 1024 1323 Z"/>
    <path fill="#000000" stroke="none" transform="matrix(1 0 0 -1 24619 2689)" d="M 1300 0 L 1047 0 L 383 664 L 383 0 L 199 0 L 199 1323 L 383 1323 L 383 721 C 485.66666666667 779 573 831.66666666667 645 879 C 716.33333333333 926.33333333333 775.33333333333 970.66666666667 822 1012 C 868.66666666667 1052.66666666667 906.33333333333 1093.66666666667 935 1135 C 963.66666666667 1176.33333333333 992.66666666667 1239 1022 1323 L 1217 1323 C 1185.66666666667 1228.33333333333 1156 1157 1128 1109 C 1099.33333333333 1061 1064.33333333333 1016 1023 974 C 981.66666666667 932 927.66666666667 887.33333333333 861 840 C 794.33333333333 792.66666666667 710.66666666667 740 610 682 L 1300 0 Z"/>
    <path fill="#000000" stroke="none" transform="matrix(1 0 0 -1 25934 2689)" d="M 829 1708 L 1014 1708 L 1014 272 C 1120 282 1212 314.33333333333 1290 369 C 1368 423.66666666667 1428 498.66666666667 1470 594 C 1511.33333333333 688.66666666667 1532 799.33333333333 1532 926 C 1532 992 1524 1062 1508 1136 C 1491.33333333333 1209.33333333333 1470.66666666667 1271.66666666667 1446 1323 L 1636 1323 C 1658.66666666667 1281.66666666667 1678.66666666667 1222 1696 1144 C 1713.33333333333 1065.33333333333 1722 990 1722 918 C 1722 760.66666666667 1693.33333333333 622.66666666667 1636 504 C 1578 385.33333333333 1495.66666666667 291.66666666667 1389 223 C 1281.66666666667 154.33333333333 1156.66666666667 114.66666666667 1014 104 L 1014 -410 L 829 -492 L 829 104 C 686.33333333333 114.66666666667 561.33333333333 154.33333333333 454 223 C 346.66666666667 291.66666666667 264.33333333333 385.66666666667 207 505 C 149.66666666667 623.66666666667 121 761.33333333333 121 918 C 121 983.33333333333 129.66666666667 1055.33333333333 147 1134 C 163.66666666667 1212 183.66666666667 1275 207 1323 L 399 1323 C 375 1273 354.33333333333 1209.66666666667 337 1133 C 319.66666666667 1056.33333333333 311 987.33333333333 311 926 C 311 798.66666666667 332 687.66666666667 374 593 C 415.33333333333 498.33333333333 475.33333333333 423.66666666667 554 369 C 632 314.33333333333 723.66666666667 282 829 272 L 829 1708 Z"/>
    <path fill="#000000" stroke="none" transform="matrix(1 0 0 -1 27773 2689)" d="M 651 494 L 1094 1323 L 1292 1323 L 743 317 L 743 -410 L 559 -492 L 559 309 L -12 1323 L 199 1323 L 651 494 Z"/>
    <path fill="#000000" stroke="none" transform="matrix(1 0 0 -1 29055 2689)" d="M 1319 1323 L 1319 45 C 1156.33333333333 1.66666666667 987 -20 811 -20 C 605.66666666667 -20 451.33333333333 26.33333333333 348 119 C 244.66666666667 211 193 351 193 539 L 193 1323 L 377 1323 L 377 563 C 377 417 411.66666666667 310 481 242 C 549.66666666667 173.33333333333 659.66666666667 139 811 139 C 937.66666666667 139 1045.66666666667 149.33333333333 1135 170 L 1135 1323 L 1319 1323 Z"/>
    <path fill="#000000" stroke="none" transform="matrix(1 0 0 -1 30573 2689)" d="M 1358 0 L 1174 0 L 373 1059 L 365 1059 C 377 924.33333333333 383 768.66666666667 383 592 L 383 0 L 199 0 L 199 1323 L 383 1323 C 397 1299 484 1183.33333333333 644 976 L 921 616 C 1081 408 1168 292 1182 268 L 1190 268 C 1179.33333333333 369.33333333333 1174 504.66666666667 1174 674 L 1174 1323 L 1358 1323 L 1358 0 Z"/>
    <path fill="#000000" stroke="none" transform="matrix(1 0 0 -1 32129 2689)" d="M 49 0 L 461 1012 L 262 1323 L 475 1323 L 1323 0 L 1108 0 L 571 842 L 242 0 L 49 0 Z"/>
    <path fill="#000000" stroke="none" transform="matrix(1 0 0 -1 33976 2689)" d="M 803 1178 C 669 1178 559 1140 473 1064 C 387 987.33333333333 337.33333333333 884.66666666667 324 756 L 1200 756 L 1200 596 L 319 596 C 325.66666666667 454.66666666667 371.66666666667 343.66666666667 457 263 C 541.66666666667 181.66666666667 653 141 791 141 C 879.66666666667 141 958.33333333333 157.33333333333 1027 190 C 1095 222.66666666667 1157.33333333333 269.33333333333 1214 330 L 1315 215 C 1251.66666666667 139.66666666667 1174.33333333333 81.66666666667 1083 41 C 991 0.33333333333 890 -20 780 -20 C 578 -20 418.33333333333 40.33333333333 301 161 C 183.66666666667 281 125 443 125 647 C 125 785 154 907 212 1013 C 269.33333333333 1118.33333333333 350.66666666667 1199.33333333333 456 1256 C 560.66666666667 1312.66666666667 679.66666666667 1341 813 1341 C 910.33333333333 1341 1001.66666666667 1325.33333333333 1087 1294 C 1171.66666666667 1262 1244.33333333333 1215 1305 1153 L 1202 1018 C 1095.33333333333 1124.66666666667 962.33333333333 1178 803 1178 Z"/>
</svg>
