<svg width="40511" height="3789" viewBox="0 0 40511 3789" xmlns="http://www.w3.org/2000/svg">
    <defs/>
    <path fill="#000000" stroke="none" transform="matrix(1 0 0 -1 0 2689)" d="M 1243 578 C 1243 718.66666666667 1203 827 1123 903 C 1043 978.33333333333 928.66666666667 1016 780 1016 C 632.66666666667 1016 519 978.66666666667 439 904 C 359 829.33333333333 319 720.66666666667 319 578 C 319 436 358.66666666667 327.66666666667 438 253 C 517.33333333333 178.33333333333 630.66666666667 141 778 141 C 926.66666666667 141 1041.33333333333 178.33333333333 1122 253 C 1202.66666666667 327 1243 435.33333333333 1243 578 Z M 874 1171 C 1052.66666666667 1156.33333333333 1191.33333333333 1096.66666666667 1290 992 C 1388.66666666667 886.66666666667 1438 747.66666666667 1438 575 C 1438 389 1380.33333333333 243.33333333333 1265 138 C 1149.66666666667 32.66666666667 987.33333333333 -20 778 -20 C 574.66666666667 -20 415 33.33333333333 299 140 C 183 246.66666666667 125 391.66666666667 125 575 C 125 745.66666666667 175.33333333333 884 276 990 C 376.66666666667 1095.33333333333 514.66666666667 1155.66666666667 690 1171 L 690 1300 L 193 1300 L 193 1462 L 1370 1462 L 1370 1300 L 874 1300 L 874 1171 Z"/>
    <path fill="#000000" stroke="none" transform="matrix(1 0 0 -1 1491 2689)" d="M 424 1303 L 217 1303 L 217 1067 L 41 1067 L 41 1462 L 608 1462 L 608 516 C 608 264.66666666667 718.66666666667 139 940 139 C 1053.33333333333 139 1138.33333333333 171.66666666667 1195 237 C 1251.66666666667 302.33333333333 1280 394.66666666667 1280 514 L 1280 541 L 1464 541 L 1464 520 C 1464 351.33333333333 1418.33333333333 219.33333333333 1327 124 C 1235.66666666667 28 1106 -20 938 -20 C 772 -20 645 26.33333333333 557 119 C 468.33333333333 211.66666666667 424 344 424 516 L 424 1303 Z"/>
    <path fill="#000000" stroke="none" transform="matrix(1 0 0 -1 3037 2689)" d="M 618 1321 C 531.33333333333 1321 463.66666666667 1302.33333333333 415 1265 C 366.33333333333 1227 342 1174.66666666667 342 1108 C 342 1060 351.66666666667 1020.33333333333 371 989 C 389.66666666667 957 420.33333333333 928 463 902 C 505 876 571.33333333333 846.33333333333 662 813 C 770.66666666667 773 851.66666666667 734.33333333333 905 697 C 958.33333333333 659 997.66666666667 615.66666666667 1023 567 C 1048.33333333333 517.66666666667 1061 459 1061 391 C 1061 263 1015.33333333333 162.66666666667 924 90 C 832 16.66666666667 705 -20 543 -20 C 395.66666666667 -20 280.66666666667 14.33333333333 198 83 C 115.33333333333 151 74 245.66666666667 74 367 C 74 407.66666666667 80.66666666667 445 94 479 L 283 479 C 266.33333333333 448.33333333333 258 415.66666666667 258 381 C 258 303.66666666667 282 244 330 202 C 378 160 449.66666666667 139 545 139 C 654.33333333333 139 737 160 793 202 C 849 244 877 301.66666666667 877 375 C 877 423.66666666667 867 463.66666666667 847 495 C 827 525.66666666667 794 554.66666666667 748 582 C 701.33333333333 609.33333333333 629.33333333333 640.66666666667 532 676 C 396.66666666667 725.33333333333 300.33333333333 783.66666666667 243 851 C 185 917.66666666667 156 1004 156 1110 C 156 1224 199 1314.66666666667 285 1382 C 370.33333333333 1449.33333333333 483 1483 623 1483 C 749.66666666667 1483 848.66666666667 1451.66666666667 920 1389 C 990.66666666667 1325.66666666667 1026 1239.33333333333 1026 1130 L 1022 1081 L 838 1081 L 842 1128 C 842 1188 822 1235.33333333333 782 1270 C 741.33333333333 1304 686.66666666667 1321 618 1321 Z"/>
    <path fill="#000000" stroke="none" transform="matrix(1 0 0 -1 4217 2689)" d="M 199 1462 L 375 1462 L 375 1300 L 498 1300 C 714 1300 880 1242.33333333333 996 1127 C 1111.33333333333 1011 1169 848.33333333333 1169 639 C 1169 507.66666666667 1142.33333333333 392.33333333333 1089 293 C 1035 193.66666666667 957 116.66666666667 855 62 C 753 7.33333333333 634 -20 498 -20 C 422.66666666667 -20 355.66666666667 -15.66666666667 297 -7 C 237.66666666667 1.66666666667 179 17 121 39 L 121 199 C 249.66666666667 160.33333333333 365.66666666667 141 469 141 C 625.66666666667 141 749.33333333333 185.66666666667 840 275 C 930 364.33333333333 975 485.66666666667 975 639 C 975 797.66666666667 931.33333333333 920.66666666667 844 1008 C 756 1095.33333333333 631 1139 469 1139 L 199 1139 L 199 1462 Z"/>
    <path fill="#000000" stroke="none" transform="matrix(1 0 0 -1 6043 2689)" d="M 1475 733 C 1475 467 1400.33333333333 267 1251 133 C 1226.33333333333 111.66666666667 1208.33333333333 89 1197 65 C 1185.66666666667 41 1180 7.66666666667 1180 -35 C 1180 -82.33333333333 1193.33333333333 -119.66666666667 1220 -147 C 1246.66666666667 -174.33333333333 1285.66666666667 -188 1337 -188 C 1375.66666666667 -188 1404.33333333333 -184.66666666667 1423 -178 L 1423 -340 C 1391 -345.33333333333 1357 -348 1321 -348 C 1224.33333333333 -348 1146.66666666667 -322.33333333333 1088 -271 C 1028.66666666667 -220.33333333333 999 -153.33333333333 999 -70 C 999 -50.66666666667 1002 -26 1008 4 C 938 -12 869 -20 801 -20 C 585.66666666667 -20 419.33333333333 46 302 178 C 184 309.33333333333 125 495 125 735 C 125 973 183.66666666667 1157.66666666667 301 1289 C 417.66666666667 1419.66666666667 585 1485 803 1485 C 1015 1485 1180 1418.66666666667 1298 1286 C 1416 1152.66666666667 1475 968.33333333333 1475 733 Z M 319 733 C 319 539.66666666667 360 392.33333333333 442 291 C 524 189.66666666667 643.66666666667 139 801 139 C 957.66666666667 139 1076.66666666667 189 1158 289 C 1239.33333333333 389 1280 537 1280 733 C 1280 928.33333333333 1239.66666666667 1075.66666666667 1159 1175 C 1078.33333333333 1273.66666666667 959.66666666667 1323 803 1323 C 644.33333333333 1323 524 1273 442 1173 C 360 1072.33333333333 319 925.66666666667 319 733 Z"/>
    <path fill="#000000" stroke="none" transform="matrix(1 0 0 -1 7642 2689)" d="M 1268 516 C 1268 347.33333333333 1220.66666666667 216 1126 122 C 1031.33333333333 27.33333333333 900.33333333333 -20 733 -20 C 558.33333333333 -20 423.33333333333 28 328 124 C 232 219.33333333333 184 351.33333333333 184 520 L 184 541 L 369 541 L 369 514 C 369 394.66666666667 399 302.33333333333 459 237 C 519 171.66666666667 609.66666666667 139 731 139 C 845 139 932.33333333333 171.33333333333 993 236 C 1053 300.66666666667 1083 394 1083 516 L 1083 639 C 1083 669 1084.33333333333 698.33333333333 1087 727 C 1089.66666666667 755.66666666667 1092 785 1094 815 L 1081 815 C 1031 742.33333333333 972 689.33333333333 904 656 C 836 622.66666666667 757.33333333333 606 668 606 C 515.33333333333 606 396.66666666667 652.66666666667 312 746 C 226.66666666667 838.66666666667 184 969 184 1137 L 184 1462 L 369 1462 L 369 1135 C 369 889 480 766 702 766 C 821.33333333333 766 914.66666666667 801 982 871 C 1049.33333333333 940.33333333333 1083 1035 1083 1155 L 1083 1462 L 1268 1462 L 1268 516 Z"/>
    <path fill="#000000" stroke="none" transform="matrix(1 0 0 -1 9096 2689)" d="M 825 1321 C 667.66666666667 1321 544 1268.33333333333 454 1163 C 364 1057.66666666667 319 913.66666666667 319 731 C 319 547.66666666667 359.33333333333 403.66666666667 440 299 C 520 193.66666666667 629.33333333333 141 768 141 C 889.33333333333 141 1008 171.66666666667 1124 233 L 1124 608 L 1309 608 L 1309 0 L 1124 0 L 1124 72 C 1008.66666666667 10.66666666667 880.33333333333 -20 739 -20 C 547 -20 396.66666666667 47 288 181 C 179.33333333333 315 125 499 125 733 C 125 883.66666666667 153 1015.66666666667 209 1129 C 264.33333333333 1242.33333333333 345.33333333333 1329.66666666667 452 1391 C 558 1452.33333333333 683 1483 827 1483 C 981.66666666667 1483 1116.33333333333 1454.33333333333 1231 1397 L 1157 1241 C 1040.33333333333 1294.33333333333 929.66666666667 1321 825 1321 Z"/>
    <path fill="#000000" stroke="none" transform="matrix(1 0 0 -1 10538 2689)" d="M 369 516 C 369 264.66666666667 479.33333333333 139 700 139 C 814 139 899.33333333333 171.66666666667 956 237 C 1012 302.33333333333 1040 394.66666666667 1040 514 L 1040 541 L 1225 541 L 1225 520 C 1225 351.33333333333 1179.33333333333 219.33333333333 1088 124 C 996.66666666667 28 866.66666666667 -20 698 -20 C 531.33333333333 -20 404 25.66666666667 316 117 C 228 208.33333333333 184 341.33333333333 184 516 L 184 1462 L 369 1462 L 369 516 Z"/>
    <path fill="#000000" stroke="none" transform="matrix(1 0 0 -1 12377 2689)" d="M 174 1098 L 319 1098 L 346 948 L 356 948 C 387.33333333333 1001.33333333333 431.66666666667 1043 489 1073 C 545.66666666667 1103 609.33333333333 1118 680 1118 C 852 1118 964 1056.66666666667 1016 934 L 1026 934 C 1061.33333333333 992.66666666667 1109.66666666667 1038 1171 1070 C 1231.66666666667 1102 1300.66666666667 1118 1378 1118 C 1502 1118 1595 1086 1657 1022 C 1718.33333333333 958 1749 855.66666666667 1749 715 L 1749 0 L 1571 0 L 1571 707 C 1571 880.33333333333 1496.66666666667 967 1348 967 C 1246 967 1171 937.33333333333 1123 878 C 1075 818.66666666667 1051 728 1051 606 L 1051 0 L 907 0 L 879 145 L 870 145 C 840 93.66666666667 797 53.33333333333 741 24 C 685 -5.33333333333 619.66666666667 -20 545 -20 C 421.66666666667 -20 329 11.66666666667 267 75 C 205 138.33333333333 174 239.66666666667 174 379 L 174 1098 Z M 354 391 C 354 302.33333333333 372.33333333333 236.66666666667 409 194 C 445 150.66666666667 501.33333333333 129 578 129 C 680 129 754.66666666667 160.33333333333 802 223 C 848.66666666667 285.66666666667 872 386.66666666667 872 526 L 872 707 C 872 793.66666666667 854 858.66666666667 818 902 C 781.33333333333 945.33333333333 724.33333333333 967 647 967 C 545.66666666667 967 471.66666666667 936 425 874 C 377.66666666667 812 354 710.33333333333 354 569 L 354 391 Z"/>
    <path fill="#000000" stroke="none" transform="matrix(1 0 0 -1 14292 2689)" d="M 1176 551 C 1176 371.66666666667 1130.66666666667 231.66666666667 1040 131 C 949.33333333333 30.33333333333 824 -20 664 -20 C 564.66666666667 -20 476.66666666667 3 400 49 C 323.33333333333 95 264.33333333333 161.33333333333 223 248 C 181 334 160 435 160 551 C 160 673.66666666667 188.66666666667 781.33333333333 246 874 C 154.66666666667 884 84 919.66666666667 34 981 C -16 1042.33333333333 -41 1123.66666666667 -41 1225 C -41 1329 -10.66666666667 1412 50 1474 C 110 1536 192.33333333333 1567 297 1567 C 399 1567 481 1537.33333333333 543 1478 C 604.33333333333 1418 635 1338.33333333333 635 1239 C 635 1196.33333333333 628 1154.66666666667 614 1114 C 636.66666666667 1116.66666666667 660.66666666667 1118 686 1118 C 782.66666666667 1118 868.33333333333 1095 943 1049 C 1017 1003 1074.33333333333 937 1115 851 C 1155.66666666667 765 1176 665 1176 551 Z M 346 551 C 346 413 373.33333333333 308.33333333333 428 237 C 482 165 562 129 668 129 C 772.66666666667 129 852.33333333333 165 907 237 C 961.66666666667 308.33333333333 989 413 989 551 C 989 689 961.33333333333 793 906 863 C 850.66666666667 932.33333333333 770.66666666667 967 666 967 C 558 967 477.66666666667 933 425 865 C 372.33333333333 796.33333333333 346 691.66666666667 346 551 Z M 297 1010 C 349.66666666667 1010 390.66666666667 1028 420 1064 C 448.66666666667 1100 463 1153 463 1223 C 463 1356.33333333333 407.66666666667 1423 297 1423 C 186.33333333333 1423 131 1356.33333333333 131 1223 C 131 1153.66666666667 145.33333333333 1101 174 1065 C 202.66666666667 1028.33333333333 243.66666666667 1010 297 1010 Z"/>
    <path fill="#000000" stroke="none" transform="matrix(1 0 0 -1 15578 2689)" d="M 1192 307 C 1192 267.66666666667 1198 233.33333333333 1210 204 C 1221.33333333333 174 1234.33333333333 145 1249 117 C 1263 88.33333333333 1276 58.66666666667 1288 28 C 1299.33333333333 -3.33333333333 1305 -40 1305 -82 C 1305 -213.33333333333 1258.33333333333 -314.33333333333 1165 -385 C 1071.66666666667 -456.33333333333 940 -492 770 -492 C 602.66666666667 -492 464 -468.66666666667 354 -422 L 354 -254 C 474.66666666667 -311.33333333333 620.33333333333 -340 791 -340 C 889.66666666667 -340 970 -316 1032 -268 C 1093.33333333333 -220 1124 -158 1124 -82 C 1124 -48 1118.33333333333 -16.33333333333 1107 13 C 1095 41.66666666667 1082 70.66666666667 1068 100 C 1054 129.33333333333 1041.33333333333 160.33333333333 1030 193 C 1018 225 1012 261 1012 301 L 1012 702 C 1012 791.33333333333 992.66666666667 858 954 902 C 914.66666666667 945.33333333333 852.66666666667 967 768 967 C 655.33333333333 967 573.66666666667 936 523 874 C 471.66666666667 811.33333333333 446 709.66666666667 446 569 L 446 0 L 266 0 L 266 842 C 266 881.33333333333 258.33333333333 908.66666666667 243 924 C 227.66666666667 938.66666666667 202 946 166 946 L 20 946 L 20 1098 L 205 1098 C 281 1098 337 1086.66666666667 373 1064 C 409 1041.33333333333 430.66666666667 1002.66666666667 438 948 L 449 948 C 483.66666666667 1002.66666666667 531.66666666667 1044.66666666667 593 1074 C 653.66666666667 1103.33333333333 721 1118 795 1118 C 929.66666666667 1118 1029.66666666667 1085.33333333333 1095 1020 C 1159.66666666667 954 1192 852.33333333333 1192 715 L 1192 307 Z"/>
    <path fill="#000000" stroke="none" transform="matrix(1 0 0 -1 16956 2689)" d="M 1192 -53 C 1192 -138.33333333333 1199.66666666667 -220 1215 -298 C 1230.33333333333 -376 1250.66666666667 -440.66666666667 1276 -492 L 1092 -492 C 1038.66666666667 -380 1012 -235.66666666667 1012 -59 L 1012 702 C 1012 791.33333333333 992.66666666667 858 954 902 C 914.66666666667 945.33333333333 852.66666666667 967 768 967 C 655.33333333333 967 573.66666666667 936 523 874 C 471.66666666667 811.33333333333 446 709.66666666667 446 569 L 446 0 L 266 0 L 266 842 C 266 881.33333333333 258.33333333333 908.66666666667 243 924 C 227.66666666667 938.66666666667 202 946 166 946 L 20 946 L 20 1098 L 205 1098 C 281 1098 337 1086.66666666667 373 1064 C 409 1041.33333333333 430.66666666667 1002.66666666667 438 948 L 449 948 C 483.66666666667 1002.66666666667 531.66666666667 1044.66666666667 593 1074 C 653.66666666667 1103.33333333333 721 1118 795 1118 C 929.66666666667 1118 1029.66666666667 1085.33333333333 1095 1020 C 1159.66666666667 954 1192 852.33333333333 1192 715 L 1192 -53 Z"/>
    <path fill="#000000" stroke="none" transform="matrix(1 0 0 -1 18314 2689)" d="M 143 27 C 207 63 280 93 362 117 C 282.66666666667 162.33333333333 221.33333333333 225.66666666667 178 307 C 134.66666666667 388.33333333333 113 482 113 588 C 113 690 134 781.66666666667 176 863 C 218 943.66666666667 277.66666666667 1006.33333333333 355 1051 C 432.33333333333 1095.66666666667 522.33333333333 1118 625 1118 C 787.66666666667 1118 912.33333333333 1077.33333333333 999 996 C 1085 914 1128 795.66666666667 1128 641 C 1128 583 1121.33333333333 533.33333333333 1108 492 L 924 492 C 930.66666666667 508 936.33333333333 531 941 561 C 945.66666666667 591 948 619 948 645 C 948 748.33333333333 919.66666666667 828 863 884 C 805.66666666667 939.33333333333 725.66666666667 967 623 967 C 523.66666666667 967 445 933 387 865 C 328.33333333333 797 299 704 299 586 C 299 457.33333333333 330.66666666667 355.33333333333 394 280 C 457.33333333333 204 550 161.33333333333 672 152 C 773.33333333333 143.33333333333 862 111 938 55 C 1013.33333333333 -1 1074 -76.66666666667 1120 -172 L 973 -244 C 895 -81.33333333333 771.33333333333 0 602 0 C 469.33333333333 0 337.66666666667 -38.33333333333 207 -115 L 143 27 Z"/>
    <path fill="#000000" stroke="none" transform="matrix(1 0 0 -1 19541 2689)" d="M 1569 707 C 1569 793.66666666667 1551.33333333333 858.66666666667 1516 902 C 1480 945.33333333333 1424 967 1348 967 C 1246 967 1171 937.33333333333 1123 878 C 1075 818.66666666667 1051 728 1051 606 L 1051 391 C 1051 302.33333333333 1069 236.66666666667 1105 194 C 1141 150.66666666667 1197.33333333333 129 1274 129 C 1376 129 1450.66666666667 160.33333333333 1498 223 C 1545.33333333333 285 1569 386 1569 526 L 1569 707 Z M 1606 0 L 1577 145 L 1569 145 C 1537 91.66666666667 1493 51 1437 23 C 1380.33333333333 -5.66666666667 1315.66666666667 -20 1243 -20 C 1119.66666666667 -20 1027 11.66666666667 965 75 C 903 138.33333333333 872 239.66666666667 872 379 L 872 707 C 872 793.66666666667 854 858.66666666667 818 902 C 781.33333333333 945.33333333333 724.33333333333 967 647 967 C 545.66666666667 967 471.66666666667 936 425 874 C 377.66666666667 812 354 710.33333333333 354 569 L 354 0 L 174 0 L 174 1098 L 319 1098 L 346 948 L 356 948 C 387.33333333333 1001.33333333333 431.66666666667 1043 489 1073 C 545.66666666667 1103 609.33333333333 1118 680 1118 C 852 1118 964 1056.66666666667 1016 934 L 1026 934 C 1061.33333333333 992.66666666667 1109.66666666667 1038 1171 1070 C 1231.66666666667 1102 1300.66666666667 1118 1378 1118 C 1502 1118 1595 1086 1657 1022 C 1718.33333333333 958 1749 855.66666666667 1749 715 L 1749 0 L 1606 0 Z"/>
    <path fill="#000000" stroke="none" transform="matrix(1 0 0 -1 21988 2689)" d="M 1569 707 C 1569 793.66666666667 1551.33333333333 858.66666666667 1516 902 C 1480 945.33333333333 1424 967 1348 967 C 1246 967 1171 937.33333333333 1123 878 C 1075 818.66666666667 1051 728 1051 606 L 1051 391 C 1051 302.33333333333 1069 236.66666666667 1105 194 C 1141 150.66666666667 1197.33333333333 129 1274 129 C 1376 129 1450.66666666667 160.33333333333 1498 223 C 1545.33333333333 285 1569 386 1569 526 L 1569 707 Z M 1606 0 L 1577 145 L 1569 145 C 1537 91.66666666667 1493 51 1437 23 C 1380.33333333333 -5.66666666667 1315.66666666667 -20 1243 -20 C 1119.66666666667 -20 1027 11.66666666667 965 75 C 903 138.33333333333 872 239.66666666667 872 379 L 872 707 C 872 793.66666666667 854 858.66666666667 818 902 C 781.33333333333 945.33333333333 724.33333333333 967 647 967 C 545.66666666667 967 471.66666666667 936 425 874 C 377.66666666667 812 354 710.33333333333 354 569 L 354 0 L 174 0 L 174 1098 L 319 1098 L 346 948 L 356 948 C 387.33333333333 1001.33333333333 431.66666666667 1043 489 1073 C 545.66666666667 1103 609.33333333333 1118 680 1118 C 852 1118 964 1056.66666666667 1016 934 L 1026 934 C 1061.33333333333 992.66666666667 1109.66666666667 1038 1171 1070 C 1231.66666666667 1102 1300.66666666667 1118 1378 1118 C 1502 1118 1595 1086 1657 1022 C 1718.33333333333 958 1749 855.66666666667 1749 715 L 1749 0 L 1606 0 Z"/>
    <path fill="#000000" stroke="none" transform="matrix(1 0 0 -1 23903 2689)" d="M 1016 649 C 1016 501 976.33333333333 385.33333333333 897 302 C 817 218 705.66666666667 176 563 176 C 426.33333333333 176 317.33333333333 218.66666666667 236 304 C 154 389.33333333333 113 504.33333333333 113 649 C 113 796.33333333333 153 911.33333333333 233 994 C 313 1076.66666666667 425 1118 569 1118 C 698.33333333333 1118 803 1080.66666666667 883 1006 C 967 1080.66666666667 1076 1118 1210 1118 C 1348 1118 1455.33333333333 1085.33333333333 1532 1020 C 1608.66666666667 954.66666666667 1647 864 1647 748 C 1647 574 1560 457.66666666667 1386 399 C 1489.33333333333 372.33333333333 1568.66666666667 325 1624 257 C 1678.66666666667 188.33333333333 1706 103.33333333333 1706 2 C 1706 -155.33333333333 1654.66666666667 -277 1552 -363 C 1448.66666666667 -449 1300 -492 1106 -492 C 924.66666666667 -492 787 -457.33333333333 693 -388 C 598.33333333333 -319.33333333333 551 -219.33333333333 551 -88 C 551 -44 557.66666666667 -4.33333333333 571 31 L 756 31 C 739.33333333333 -2.33333333333 731 -40.66666666667 731 -84 C 731 -168.66666666667 764 -232.33333333333 830 -275 C 896 -318.33333333333 991.33333333333 -340 1116 -340 C 1385.33333333333 -340 1520 -227.33333333333 1520 -2 C 1520 100.66666666667 1488.33333333333 180 1425 236 C 1361 291.33333333333 1269.66666666667 319 1151 319 L 1122 319 L 1122 471 L 1151 471 C 1251.66666666667 471 1329.33333333333 493.33333333333 1384 538 C 1438.66666666667 582 1466 643.66666666667 1466 723 C 1466 801.66666666667 1444 862.33333333333 1400 905 C 1356 947.66666666667 1292 969 1208 969 C 1105.33333333333 969 1025 942.33333333333 967 889 C 999.66666666667 816.33333333333 1016 736.33333333333 1016 649 Z M 299 649 C 299 541.66666666667 322 461 368 407 C 413.33333333333 353 479.66666666667 326 567 326 C 654.33333333333 326 721 353 767 407 C 813 460.33333333333 836 541 836 649 C 836 861 745.66666666667 967 565 967 C 387.66666666667 967 299 861 299 649 Z"/>
    <path fill="#000000" stroke="none" transform="matrix(1 0 0 -1 25695 2689)" d="M 672 1098 L 672 1047 C 672 1004.33333333333 685 966.33333333333 711 933 C 737 899.66666666667 782 860.33333333333 846 815 C 913.33333333333 767.66666666667 962 726.66666666667 992 692 C 1022 656.66666666667 1045 618 1061 576 C 1077 534 1085 486.66666666667 1085 434 C 1085 295.33333333333 1039.66666666667 185 949 103 C 857.66666666667 21 735.33333333333 -20 582 -20 C 427.33333333333 -20 306 18.33333333333 218 95 C 130 171 86 276.66666666667 86 412 C 86 464 92 517.66666666667 104 573 L 295 573 C 279.66666666667 524.33333333333 272 470 272 410 C 272 320 298 251 350 203 C 402 155 480.66666666667 131 586 131 C 682.66666666667 131 759 156.66666666667 815 208 C 871 258.66666666667 899 330.66666666667 899 424 C 899 471.33333333333 884.66666666667 517.33333333333 856 562 C 826.66666666667 606 777.66666666667 653.66666666667 709 705 C 625.66666666667 766.33333333333 568.66666666667 822.33333333333 538 873 C 507.33333333333 923 492 983.66666666667 492 1055 L 492 1098 L 672 1098 Z"/>
    <path fill="#000000" stroke="none" transform="matrix(1 0 0 -1 26879 2689)" d="M 858 547 C 858 699.66666666667 835 808.33333333333 789 873 C 743 937 669 969 567 969 C 481 969 415 932.33333333333 369 859 C 322.33333333333 785 299 679.66666666667 299 543 C 299 403.66666666667 322 300 368 232 C 413.33333333333 163.33333333333 484.66666666667 129 582 129 C 766 129 858 268.33333333333 858 547 Z M 1038 1100 C 1038 1040 1034.66666666667 988.66666666667 1028 946 L 1040 946 C 1073.33333333333 1002.66666666667 1118.66666666667 1045.33333333333 1176 1074 C 1232.66666666667 1102 1294 1116 1360 1116 C 1484.66666666667 1116 1578.66666666667 1084.33333333333 1642 1021 C 1705.33333333333 957 1737 855 1737 715 L 1737 0 L 1559 0 L 1559 702 C 1559 791.33333333333 1540.66666666667 858 1504 902 C 1467.33333333333 945.33333333333 1410.33333333333 967 1333 967 C 1230.33333333333 967 1155.66666666667 935.66666666667 1109 873 C 1061.66666666667 810.33333333333 1038 708.33333333333 1038 567 L 1038 549 C 1038 370.33333333333 997 231 915 131 C 833 30.33333333333 719 -20 573 -20 C 421.66666666667 -20 307.33333333333 27.33333333333 230 122 C 152 216 113 357.66666666667 113 547 C 113 727 150.33333333333 867.33333333333 225 968 C 299.66666666667 1068 404.33333333333 1118 539 1118 C 674.33333333333 1118 780 1064 856 956 L 868 956 C 866.66666666667 966.66666666667 864.66666666667 992 862 1032 C 859.33333333333 1071.33333333333 858 1100 858 1118 C 858 1268.66666666667 893 1379.33333333333 963 1450 C 1032.33333333333 1520.66666666667 1141.33333333333 1556 1290 1556 L 1683 1556 L 1683 1405 L 1305 1405 C 1205 1405 1135.66666666667 1384.66666666667 1097 1344 C 1057.66666666667 1303.33333333333 1038 1235 1038 1139 L 1038 1100 Z"/>
    <path fill="#000000" stroke="none" transform="matrix(1 0 0 -1 28782 2689)" d="M 354 -53 C 354 -138.33333333333 361.66666666667 -220 377 -298 C 392.33333333333 -376 412.66666666667 -440.66666666667 438 -492 L 254 -492 C 200.66666666667 -377.33333333333 174 -233 174 -59 L 174 1556 L 354 1556 L 354 979 L 365 979 C 385.66666666667 1023.66666666667 419.33333333333 1058 466 1082 C 512 1106 566.33333333333 1118 629 1118 C 713 1118 779.33333333333 1095.66666666667 828 1051 C 876.66666666667 1006.33333333333 901 944.66666666667 901 866 C 901 800.66666666667 911.33333333333 756 932 732 C 952 708 988.66666666667 696 1042 696 L 1145 696 L 1145 545 L 989 545 C 906.33333333333 545 840.66666666667 566.33333333333 792 609 C 743.33333333333 651.66666666667 719 708 719 778 C 719 842 706.66666666667 889.66666666667 682 921 C 656.66666666667 951.66666666667 617 967 563 967 C 496.33333333333 967 445 942.66666666667 409 894 C 372.33333333333 845.33333333333 354 775.33333333333 354 684 L 354 -53 Z"/>
    <path fill="#000000" stroke="none" transform="matrix(1 0 0 -1 29947 2689)" d="M 354 1100 C 354 1040 350.66666666667 988.66666666667 344 946 L 356 946 C 388.66666666667 999.33333333333 435 1041 495 1071 C 555 1101 622.66666666667 1116 698 1116 C 831.33333333333 1116 931.66666666667 1084.33333333333 999 1021 C 1066.33333333333 957 1100 855 1100 715 L 1100 0 L 922 0 L 922 702 C 922 791.33333333333 902.33333333333 858 863 902 C 823 945.33333333333 760.66666666667 967 676 967 C 564.66666666667 967 483.33333333333 936 432 874 C 380 812 354 709.66666666667 354 567 L 354 0 L 174 0 L 174 1118 C 174 1270 209 1381 279 1451 C 348.33333333333 1521 457.33333333333 1556 606 1556 L 1061 1556 L 1061 1405 L 621 1405 C 521 1405 451.66666666667 1384.66666666667 413 1344 C 373.66666666667 1303.33333333333 354 1235 354 1139 L 354 1100 Z"/>
    <path fill="#000000" stroke="none" transform="matrix(1 0 0 -1 31745 2689)" d="M 162 395 L 162 1098 L 342 1098 L 342 391 C 342 307.66666666667 364 243.66666666667 408 199 C 452 153.66666666667 518.66666666667 131 608 131 C 692.66666666667 131 757.66666666667 153.33333333333 803 198 C 847.66666666667 242.66666666667 870 307 870 391 L 870 1098 L 1051 1098 L 1051 391 C 1051 279 1019.66666666667 188.33333333333 957 119 C 894.33333333333 49 807.33333333333 6.66666666667 696 -8 C 696 -216 724 -377.33333333333 780 -492 L 596 -492 C 542.66666666667 -380 516 -218.66666666667 516 -8 C 403.33333333333 4.66666666667 316.33333333333 46 255 116 C 193 186 162 279 162 395 Z"/>
    <path fill="#000000" stroke="none" transform="matrix(1 0 0 -1 32962 2689)" d="M 926 950 L 612 868 C 645.33333333333 842.66666666667 671.33333333333 811 690 773 C 708 735 717 693 717 647 C 717 555 688.33333333333 481 631 425 C 573 368.33333333333 495.66666666667 340 399 340 C 190.33333333333 340 86 445 86 655 L 90 713 L 258 713 C 255.33333333333 700.33333333333 254 680.33333333333 254 653 C 254 598.33333333333 266.66666666667 555.66666666667 292 525 C 317.33333333333 494.33333333333 353 479 399 479 C 445.66666666667 479 482.33333333333 494.33333333333 509 525 C 535.66666666667 555.66666666667 549 598.33333333333 549 653 C 549 755 500.33333333333 813 403 827 L 403 956 L 940 1098 L 1106 1098 L 1106 27 C 1106 -143 1064 -272 980 -360 C 896 -448 772 -492 608 -492 C 458 -492 342 -456.66666666667 260 -386 C 178 -315.33333333333 137 -213.33333333333 137 -80 C 137 -30 144 19.33333333333 158 68 L 340 68 C 324.66666666667 18 317 -31.33333333333 317 -80 C 317 -166.66666666667 342.33333333333 -231.66666666667 393 -275 C 443.66666666667 -318.33333333333 516.66666666667 -340 612 -340 C 725.33333333333 -340 806 -310.33333333333 854 -251 C 902 -192.33333333333 926 -97.66666666667 926 33 L 926 950 Z"/>
    <path fill="#000000" stroke="none" transform="matrix(1 0 0 -1 34242 2689)" d="M 115 557 C 115 735 151.66666666667 873 225 971 C 298.33333333333 1069 402.33333333333 1118 537 1118 C 703.66666666667 1118 813.33333333333 1047.66666666667 866 907 L 877 907 C 907 980.33333333333 949 1034 1003 1068 C 1056.33333333333 1101.33333333333 1124 1118 1206 1118 C 1336.66666666667 1118 1439.33333333333 1069 1514 971 C 1588.66666666667 872.33333333333 1626 737 1626 565 C 1626 461.66666666667 1615.66666666667 366 1595 278 C 1573.66666666667 190 1540.33333333333 97.33333333333 1495 0 L 1311 0 C 1357.66666666667 98 1392 191 1414 279 C 1435.33333333333 367 1446 463 1446 567 C 1446 693.66666666667 1424.33333333333 792.33333333333 1381 863 C 1337.66666666667 933.66666666667 1275.33333333333 969 1194 969 C 1118.66666666667 969 1060.33333333333 944 1019 894 C 977 843.33333333333 956 772 956 680 L 956 545 L 784 545 L 784 680 C 784 772.66666666667 763.66666666667 844 723 894 C 681.66666666667 944 621.66666666667 969 543 969 C 463 969 401.66666666667 934 359 864 C 316.33333333333 794 295 691.66666666667 295 557 C 295 433 310 332 340 254 C 370 176 417 109.33333333333 481 54 C 544.33333333333 -1.33333333333 628.33333333333 -46 733 -80 C 819.66666666667 -108 891.33333333333 -136.66666666667 948 -166 C 1004.66666666667 -195.33333333333 1052 -228 1090 -264 C 1127.33333333333 -300.66666666667 1163.33333333333 -350 1198 -412 L 1055 -492 C 1016.33333333333 -414.66666666667 957 -353 877 -307 C 796.33333333333 -261 707.33333333333 -238 610 -238 C 547.33333333333 -238 491 -244.66666666667 441 -258 C 390.33333333333 -271.33333333333 330.66666666667 -296 262 -332 L 197 -186 C 236.33333333333 -166.66666666667 273.33333333333 -151.33333333333 308 -140 C 342 -128.66666666667 391.66666666667 -116 457 -102 C 342.33333333333 -35.33333333333 256.66666666667 52 200 160 C 143.33333333333 268 115 400.33333333333 115 557 Z"/>
    <path fill="#000000" stroke="none" transform="matrix(1 0 0 -1 35983 2689)" d="M 1192 -53 C 1192 -138.33333333333 1199.66666666667 -220 1215 -298 C 1230.33333333333 -376 1250.66666666667 -440.66666666667 1276 -492 L 1092 -492 C 1038.66666666667 -380 1012 -235.66666666667 1012 -59 L 1012 702 C 1012 791.33333333333 992.66666666667 858 954 902 C 914.66666666667 945.33333333333 852.66666666667 967 768 967 C 655.33333333333 967 573.66666666667 936 523 874 C 471.66666666667 811.33333333333 446 709.66666666667 446 569 L 446 0 L 266 0 L 266 842 C 266 881.33333333333 258.33333333333 908.66666666667 243 924 C 227.66666666667 938.66666666667 202 946 166 946 L 20 946 L 20 1098 L 205 1098 C 281 1098 337 1086.66666666667 373 1064 C 409 1041.33333333333 430.66666666667 1002.66666666667 438 948 L 449 948 C 483.66666666667 1002.66666666667 531.66666666667 1044.66666666667 593 1074 C 653.66666666667 1103.33333333333 721 1118 795 1118 C 929.66666666667 1118 1029.66666666667 1085.33333333333 1095 1020 C 1159.66666666667 954 1192 852.33333333333 1192 715 L 1192 -53 Z"/>
    <path fill="#000000" stroke="none" transform="matrix(1 0 0 -1 37341 2689)" d="M 1145 573 C 1145 377.66666666667 1101.66666666667 230 1015 130 C 927.66666666667 30 799 -20 629 -20 C 317.66666666667 -20 162 152.66666666667 162 498 L 162 1556 L 342 1556 L 342 504 C 342 252.66666666667 442.33333333333 127 643 127 C 856.33333333333 127 963 277.33333333333 963 578 C 963 754.66666666667 887.66666666667 928 737 1098 L 942 1098 C 1002 1032.66666666667 1051 953.33333333333 1089 860 C 1126.33333333333 766.66666666667 1145 671 1145 573 Z"/>
    <path fill="#000000" stroke="none" transform="matrix(1 0 0 -1 38596 2689)" d="M 174 1098 L 319 1098 L 346 948 L 356 948 C 387.33333333333 1001.33333333333 431.66666666667 1043 489 1073 C 545.66666666667 1103 609.33333333333 1118 680 1118 C 852 1118 964 1056.66666666667 1016 934 L 1026 934 C 1061.33333333333 992.66666666667 1109.66666666667 1038 1171 1070 C 1231.66666666667 1102 1300.66666666667 1118 1378 1118 C 1502 1118 1595 1086 1657 1022 C 1718.33333333333 958 1749 855.66666666667 1749 715 L 1749 0 L 1571 0 L 1571 707 C 1571 880.33333333333 1496.66666666667 967 1348 967 C 1246 967 1171 937.33333333333 1123 878 C 1075 818.66666666667 1051 728 1051 606 L 1051 0 L 907 0 L 879 145 L 870 145 C 840 93.66666666667 797 53.33333333333 741 24 C 685 -5.33333333333 619.66666666667 -20 545 -20 C 421.66666666667 -20 329 11.66666666667 267 75 C 205 138.33333333333 174 239.66666666667 174 379 L 174 1098 Z M 354 391 C 354 302.33333333333 372.33333333333 236.66666666667 409 194 C 445 150.66666666667 501.33333333333 129 578 129 C 680 129 754.66666666667 160.33333333333 802 223 C 848.66666666667 285.66666666667 872 386.66666666667 872 526 L 872 707 C 872 793.66666666667 854 858.66666666667 818 902 C 781.33333333333 945.33333333333 724.33333333333 967 647 967 C 545.66666666667 967 471.66666666667 936 425 874 C 377.66666666667 812 354 710.33333333333 354 569 L 354 391 Z"/>
</svg>
