<svg width="41718" height="3789" viewBox="0 0 41718 3789" xmlns="http://www.w3.org/2000/svg">
    <defs/>
    <g transform="matrix(1 0 0 -1 0 3789)">
        <g transform="matrix(1 0 0 1 0 1100)">
            <path fill="#000000" stroke="none" d="M 757 673.5 Q 794 650 822 620 Q 944 720 1045 775 Q 1146 830 1219 830 Q 1260 830 1279.5 811.5 Q 1299 793 1299 762 Q 1299 724 1209 673.5 Q 1119 623 1086 596 L 977 508 Q 1004 498 1038 492.5 Q 1072 487 1115 487 Q 1172 487 1204.5 464 Q 1237 441 1237 396 Q 1237 359 1193.5 337.5 Q 1150 316 1073 316 Q 1010 316 937.5 328.5 Q 865 341 796 365 Q 743 320 564.5 157.5 Q 386 -5 224.5 -82.5 Q 63 -160 6 -160 Q -57 -160 -88.5 -127.5 Q -120 -95 -120 -44 Q -120 45 -14 69.5 Q 92 94 255.5 175 Q 419 256 628 447 Q 589 476 566 509.5 Q 543 543 543 581 Q 543 627 573.5 662 Q 604 697 661 697 Q 720 697 757 673.5 Z"/>
        </g>
        <g transform="matrix(1 0 0 1 1329 1100)">
            <path fill="#000000" stroke="none" d="M 569 427 Q 537 403 513.5 384.5 Q 490 366 490 351 Q 490 337 548 282.5 Q 606 228 606 165 Q 606 62 469.5 -14 Q 333 -90 186 -90 Q 73 -90 11.5 -61 Q -50 -32 -50 21 Q -50 64 -30 90.50001 Q -10 117 34 117 Q 66 117 109 102.50001 Q 152 88 192 88 Q 286 88 343.5 109.49999 Q 401 131 401 173 Q 401 204 344 243 Q 287 282 287 310 Q 287 392 407 506.5 Q 527 621 710 710.5 Q 893 800 1022 800 Q 1116 800 1159 751.5 Q 1202 703 1202 615 Q 1202 484 1094.5 399 Q 987 314 850 314 Q 782 314 704.50006 344 Q 627 374 569 427 Z M 1003 630 Q 994 635 978 635 Q 954 635 879 602 Q 804 569 733 529 Q 759 509 790.5 496.5 Q 822 484 860 484 Q 932 484 972 515.5 Q 1012 547 1012 608 Q 1012 625 1003 630 Z M 925 907.5 Q 898 935 898 976 Q 898 1023 931 1055 Q 964 1087 1007 1087 Q 1049 1087 1077 1058 Q 1105 1029 1105 988 Q 1105 944 1072 912 Q 1039 880 994 880 Q 952 880 925 907.5 Z"/>
        </g>
        <g transform="matrix(1 0 0 1 2659 1100)">
            <path fill="#000000" stroke="none" d="M 1104 791 Q 1132 781 1161 734.49994 Q 1190 688 1190 630 Q 1190 483 1062.5 393 Q 935 303 755 303 Q 735 303 708.5 305 Q 682 307 652 312 Q 439 59 255 -50.5 Q 71 -160 -2 -160 Q -60 -160 -90 -129 Q -120 -98 -120 -44 Q -120 42 -12 72.5 Q 96 103 161 135 Q 226 167 308 227.49998 Q 390 288 481 382 Q 462 399 451.5 420.5 Q 441 442 441 469 Q 441 537 481 573.5 Q 521 610 592 610 Q 631 610 663 579 Q 695 548 708 501 Q 748 488 809 488 Q 883 488 936.5 526.5 Q 990 565 990 627 Q 990 698 914.5 724 Q 839 750 839 800 Q 839 867 933 891.5 Q 1027 916 1065 940 L 1095 959 Q 1109 968 1123.5 974 Q 1138 980 1156 980 Q 1192 980 1215 957 Q 1238 934 1238 900 Q 1238 869 1213 845.5 Q 1188 822 1104 791 Z M 937 907.5 Q 910 935 910 976 Q 910 1023 943 1055 Q 976 1087 1019 1087 Q 1061 1087 1089 1058 Q 1117 1029 1117 988 Q 1117 944 1084 912 Q 1051 880 1006 880 Q 964 880 937 907.5 Z"/>
        </g>
        <g transform="matrix(1 0 0 1 3957 1100)">
            <path fill="#000000" stroke="none" d="M 1008 721 Q 1024 702 1024 671 Q 1024 657 1017.5 633.5 Q 1011 610 953 531 Q 895 452 744.5 323 Q 594 194 453.5 106.50001 Q 313 19 239.5 -0.5 Q 166 -20 153 -20 Q 94 -20 62 7 Q 30 34 30 82 Q 30 179 134 205.5 Q 238 232 385.5 316.5 Q 533 401 646 480.5 Q 759 560 833.50006 650 Q 908 740 961 740 Q 992 740 1008 721 Z"/>
        </g>
        <g transform="matrix(1 0 0 1 5041 1100)">
            <path fill="#000000" stroke="none" d="M 569 427 Q 537 403 513.5 384.5 Q 490 366 490 351 Q 490 337 548 282.5 Q 606 228 606 165 Q 606 62 469.5 -14 Q 333 -90 186 -90 Q 73 -90 11.5 -61 Q -50 -32 -50 21 Q -50 64 -30 90.50001 Q -10 117 34 117 Q 66 117 109 102.50001 Q 152 88 192 88 Q 286 88 343.5 109.49999 Q 401 131 401 173 Q 401 204 344 243 Q 287 282 287 310 Q 287 392 407 506.5 Q 527 621 710 710.5 Q 893 800 1022 800 Q 1116 800 1159 751.5 Q 1202 703 1202 615 Q 1202 484 1094.5 399 Q 987 314 850 314 Q 782 314 704.50006 344 Q 627 374 569 427 Z M 1003 630 Q 994 635 978 635 Q 954 635 879 602 Q 804 569 733 529 Q 759 509 790.5 496.5 Q 822 484 860 484 Q 932 484 972 515.5 Q 1012 547 1012 608 Q 1012 625 1003 630 Z"/>
        </g>
        <g transform="matrix(1 0 0 1 6371 1100)">
            <path fill="#000000" stroke="none" d="M 373 233 Q 509 277 654 413.5 Q 799 550 861.49994 645 Q 924 740 992 740 Q 1031 740 1048.5 716 Q 1066 692 1066 654 Q 1066 544 830.49994 339.5 Q 595 135 425.50003 57.5 Q 256 -20 159 -20 Q 117 -20 88.5 3 Q 60 26 60 56 Q 60 98 92.5 141.5 Q 125 185 190 291.5 Q 255 398 271.5 504 Q 288 610 321.5 639.5 Q 355 669 402 669 Q 456 669 481 640.5 Q 506 612 506 548 Q 506 489 453.5 386.5 Q 401 284 368 251 L 373 233 Z"/>
        </g>
        <g transform="matrix(1 0 0 1 8497 1100)">
            <path fill="#000000" stroke="none" d="M 504 253 L 453 307 Q 425 337 402 374 Q 379 411 379 455 Q 379 564 594.5 682 Q 810 800 873 800 Q 919 800 943.5 775 Q 968 750 968 714 Q 968 665 902.5 636.5 Q 837 608 708 536 Q 579 464 579 443 Q 579 429 602 407 L 653 356 Q 681 328 704 297 Q 727 266 727 236 Q 727 92 550.5 1 Q 374 -90 134 -90 Q 23 -90 -46 -58 Q -115 -26 -115 30 Q -115 74 -87 102 Q -59 130 -21 130 Q -2 130 20 124 L 66 110 Q 91 102 120.5 96 Q 150 90 185 90 Q 332 90 429.5 124 Q 527 158 527 211 Q 527 229 504 253 Z M 439 887.5 Q 412 915 412 956 Q 412 1003 445 1035 Q 478 1067 521 1067 Q 563 1067 591 1038 Q 619 1009 619 968 Q 619 924 586 892 Q 553 860 508 860 Q 466 860 439 887.5 Z M 769 887.5 Q 742 915 742 956 Q 742 1003 775 1035 Q 808 1067 851 1067 Q 893 1067 921 1038 Q 949 1009 949 968 Q 949 924 916 892 Q 883 860 838 860 Q 796 860 769 887.5 Z"/>
        </g>
        <g transform="matrix(1 0 0 1 9520 1100)">
            <path fill="#000000" stroke="none" d="M 430 290 Q 420 281 389 255 Q 358 229 358 211 Q 358 198 411 150 Q 464 102 464 48 Q 464 -18 403 -97.49999 Q 342 -177 211.49998 -248.5 Q 81 -320 26 -320 Q -37 -320 -68.5 -292.5 Q -100 -265 -100 -214 Q -100 -125 6 -97 Q 112 -69 181.5 -31 Q 251 7 251 46 Q 251 67 205.5 112.5 Q 160 158 160 190 Q 160 222 183 260 Q 206 298 266 360.50003 Q 326 423 420.5 500 Q 515 577 680.5 691.5 Q 846 806 1037.5 923 Q 1229 1040 1264 1054 Q 1299 1068 1339 1068 Q 1380 1068 1399.5 1049.5 Q 1419 1031 1419 1000 Q 1419 949 1327 897 L 1253 855 Q 1171 808 1066 745.5 Q 961 683 867 625 Q 945 610 993.50006 547 Q 1042 484 1042 395 Q 1042 278 940 200.5 Q 838 123 722 123 Q 619 123 545.5 164 Q 472 205 430 290 Z M 595 402 Q 608 357 636.5 325 Q 665 293 726 293 Q 776 293 814 323 Q 852 353 852 402 Q 852 435 829 458.5 Q 806 482 758 482 Q 684 482 595 402 Z M 706 980 L 706 980 Z"/>
        </g>
        <g transform="matrix(1 0 0 1 10842 1100)">
            <path fill="#000000" stroke="none" d="M 648 659.5 Q 688 578 729 578 Q 751 578 780 599 Q 809 620 848 659 L 886 698 Q 904 716 920 728 Q 936 740 947 740 Q 1006 740 1007.5 639 Q 1009 538 1045 511 Q 1077 511 1125 558.5 Q 1173 606 1220.5 688.5 Q 1268 771 1354 771 Q 1391 771 1409.5 750.5 Q 1428 730 1428 696 Q 1428 622 1335 534.5 Q 1242 447 1167.5 389 Q 1093 331 1025 331 Q 975 331 930 371 Q 885 411 868 477 Q 818 403 765.49994 374.49997 Q 713 346 669 346 Q 655 346 634 357 Q 613 368 591 383 Q 456 299 373 198.5 Q 290 98 290 8 Q 290 -68 356.5 -104 Q 423 -140 557 -140 Q 651 -140 707.50006 -137 Q 764 -134 802 -130 L 867 -124 Q 895 -121 932 -121 Q 965 -121 985.5 -139.5 Q 1006 -158 1006 -194 Q 1006 -256 885 -288 Q 764 -320 545 -320 Q 325 -320 212.50002 -240.5 Q 100 -161 100 -15 Q 100 112 205.5 247.5 Q 311 383 470 480 L 439 499 Q 411 515 395 534 Q 379 553 379 577 Q 379 635 437.5 688 Q 496 741 566 741 Q 608 741 648 659.5 Z"/>
        </g>
        <g transform="matrix(1 0 0 1 12320 1100)">
            <path fill="#000000" stroke="none" d="M 781 652 Q 858 715 937.5 747.5 Q 1017 780 1101 780 Q 1206 780 1260.5 728.5 Q 1315 677 1315 588 Q 1315 435 1132 325.5 Q 949 216 709 216 Q 604 216 525 228 Q 383 158 336.5 110.50001 Q 290 63 290 13 Q 290 -76 352.5 -108 Q 415 -140 564 -140 Q 770 -140 856 -123 Q 942 -106 953 -106 Q 986 -106 1006.5 -123 Q 1027 -140 1027 -176 Q 1027 -246 902.5 -283 Q 778 -320 563 -320 Q 338 -320 219 -245.5 Q 100 -171 100 -32 Q 100 57 154.5 130.5 Q 209 204 336 286 Q 269 324 240.5 375.49997 Q 212 427 212 487 Q 212 588 304.5 667 Q 397 746 549 746 Q 603 746 669 720.5 Q 735 695 781 652 Z M 732 381 Q 886 387 1005.5 447 Q 1125 507 1125 570 Q 1125 583 1110 599 Q 1095 615 1056 615 Q 1003 615 938 572 Q 873 529 732 381 Z M 516 395 Q 548 421 583 458 L 656 534 Q 634 555 607.5 568 Q 581 581 543 581 Q 475 581 438.49997 552.5 Q 402 524 402 487 Q 402 454 429 431 Q 456 408 516 395 Z"/>
        </g>
        <g transform="matrix(1 0 0 1 13695 1100)">
            <path fill="#000000" stroke="none" d="M 610 347 Q 547 374 508.5 432.5 Q 470 491 470 573 Q 470 673 534 751.5 Q 598 830 676 830 Q 715 830 740.5 811.5 Q 766 793 766 758 Q 766 735 750 719 L 714 684 Q 692 663 676.5 636 Q 661 609 661 568 Q 661 520 693.5 495.5 Q 726 471 774 466 Q 829 512 908.5 590.5 Q 988 669 1027 669 Q 1056 669 1071.5 656.5 Q 1087 644 1087 607 Q 1087 474 636 157 Q 185 -160 1 -160 Q -60 -160 -90 -127 Q -120 -94 -120 -40 Q -120 52 6 72.5 Q 132 93 296.5 171.5 Q 461 250 610 347 Z"/>
        </g>
        <g transform="matrix(1 0 0 1 14812 1100)">
            <path fill="#000000" stroke="none" d="M 569 427 Q 537 403 513.5 384.5 Q 490 366 490 351 Q 490 337 548 282.5 Q 606 228 606 165 Q 606 62 469.5 -14 Q 333 -90 186 -90 Q 73 -90 11.5 -61 Q -50 -32 -50 21 Q -50 64 -30 90.50001 Q -10 117 34 117 Q 66 117 109 102.50001 Q 152 88 192 88 Q 286 88 343.5 109.49999 Q 401 131 401 173 Q 401 204 344 243 Q 287 282 287 310 Q 287 392 407 506.5 Q 527 621 710 710.5 Q 893 800 1022 800 Q 1116 800 1159 751.5 Q 1202 703 1202 615 Q 1202 484 1094.5 399 Q 987 314 850 314 Q 782 314 704.50006 344 Q 627 374 569 427 Z M 1003 630 Q 994 635 978 635 Q 954 635 879 602 Q 804 569 733 529 Q 759 509 790.5 496.5 Q 822 484 860 484 Q 932 484 972 515.5 Q 1012 547 1012 608 Q 1012 625 1003 630 Z M 755 -95.5 Q 728 -68 728 -27 Q 728 20 761 52 Q 794 84 837 84 Q 879 84 907 55 Q 935 26 935 -15 Q 935 -59 902 -91 Q 869 -123 824 -123 Q 782 -123 755 -95.5 Z"/>
        </g>
        <g transform="matrix(1 0 0 1 17142 1100)">
            <path fill="#000000" stroke="none" d="M 406 294 Q 352 326 323 374 Q 294 422 294 479 Q 294 607 426.5 718.5 Q 559 830 721 830 Q 820 830 873 790 Q 926 750 926 674 Q 926 562 849 455 Q 772 348 544 167.5 Q 316 -13 152.5 -86.50001 Q -11 -160 -58 -160 Q -121 -160 -152.5 -129 Q -184 -98 -184 -47 Q -184 45 -86.50001 67 Q 11 89 150.5 156.5 Q 290 224 406 294 Z M 588 421 Q 670 488 704 536 Q 738 584 738 625 Q 738 642 727 653.5 Q 716 665 681 665 Q 617 665 550.5 610 Q 484 555 484 493 Q 484 462 507.5 444.5 Q 531 427 588 421 Z M 647 907.5 Q 620 935 620 976 Q 620 1023 653 1055 Q 686 1087 729 1087 Q 771 1087 799 1058 Q 827 1029 827 988 Q 827 944 794 912 Q 761 880 716 880 Q 674 880 647 907.5 Z"/>
        </g>
        <g transform="matrix(1 0 0 1 18179 1100)">
            <path fill="#000000" stroke="none" d="M 1008 721 Q 1024 702 1024 671 Q 1024 657 1017.5 633.5 Q 1011 610 953 531 Q 895 452 744.5 323 Q 594 194 453.5 106.50001 Q 313 19 239.5 -0.5 Q 166 -20 153 -20 Q 94 -20 62 7 Q 30 34 30 82 Q 30 179 134 205.5 Q 238 232 385.5 316.5 Q 533 401 646 480.5 Q 759 560 833.50006 650 Q 908 740 961 740 Q 992 740 1008 721 Z M 775 27.500002 Q 748 55 748 96 Q 748 143 781 175 Q 814 207 857 207 Q 899 207 927 178 Q 955 149 955 108 Q 955 64 922 32 Q 889 0 844 0 Q 802 0 775 27.500002 Z"/>
        </g>
        <g transform="matrix(1 0 0 1 19288 1100)">
            <path fill="#000000" stroke="none" d="M 825 689.5 Q 870 658 898 610 Q 976 610 1052.5 647 Q 1129 684 1190 742 Q 1251 800 1287 800 Q 1320 800 1339.5 780 Q 1359 760 1359 734 Q 1359 623 1175.5 511.5 Q 992 400 748 400 Q 731 400 723 401 Q 582 227 438.49997 97.49999 Q 295 -32 172.50002 -96 Q 50 -160 -2 -160 Q -60 -160 -90 -129 Q -120 -98 -120 -44 Q -120 37 -31.500002 66 Q 57 95 117.49999 120.5 Q 178 146 270 212.50002 Q 362 279 434.5 347 Q 507 415 560 474 Q 524 513 524 561 Q 524 631 577 676 Q 630 721 720 721 Q 780 721 825 689.5 Z"/>
        </g>
        <g transform="matrix(1 0 0 1 20677 1100)">
            <path fill="#000000" stroke="none" d="M 1112 146.5 Q 886 -20 560 -20 Q 365 -20 242.5 68.5 Q 120 157 120 300 Q 120 465 235.49998 571.5 Q 351 678 545 678 Q 614 678 669 660 Q 724 642 769 613 Q 847 670 933.5 705 Q 1020 740 1114 740 Q 1216 740 1277 683 Q 1338 626 1338 540 Q 1338 313 1112 146.5 Z M 817.5 436 Q 673 312 595 160 Q 838 173 988 281 Q 1138 389 1138 500 Q 1138 560 1070 560 Q 962 560 817.5 436 Z M 345.50003 232 Q 371 199 408 182 L 448 250 Q 484 311 528 370.5 Q 572 430 623 483 Q 575 498 532 498 Q 442 498 381 445 Q 320 392 320 318 Q 320 265 345.50003 232 Z"/>
        </g>
        <g transform="matrix(1 0 0 1 22135 1100)">
            <path fill="#000000" stroke="none" d="M 321 423 Q 248 463 223 498.5 Q 198 534 198 582 Q 198 641 246 692 Q 294 743 359 743 Q 436 743 486 691 Q 536 639 542 554 Q 657 538 791.5 529 Q 926 520 1091 520 Q 1647 520 1745.5001 598 Q 1844 676 1875.5001 753 Q 1907 830 1975 830 Q 2014 830 2030.4999 807.5 Q 2047 785 2047 747 Q 2047 635 1934.5 524.5 Q 1822 414 1640 377 Q 1458 340 1065 340 Q 893 340 755 351.5 Q 617 363 510 378 Q 466 279 348 186.5 Q 230 94 154 94 Q 106 94 78 118 Q 50 142 50 182 Q 50 239 126 265.5 Q 202 292 256 336.5 Q 310 381 321 423 Z"/>
        </g>
        <g transform="matrix(1 0 0 1 24222 1100)">
            <path fill="#000000" stroke="none" d="M 787 526 Q 609 315 360.50003 147.5 Q 112 -20 6 -20 Q -57 -20 -88.5 7.5 Q -120 35 -120 86 Q -120 173 -26 199.5 Q 68 226 179 276.5 Q 290 327 393.50003 398.5 Q 497 470 621.5 605 Q 746 740 837 740 Q 904 740 937.5 693 Q 971 646 971 544 Q 971 431 932 323.5 Q 893 216 818.5 107 Q 744 -2 674 -2 Q 631 -2 605.5 19.5 Q 580 41 580 77 Q 580 115 602 144.5 Q 624 174 683 263 Q 742 352 762 408 Q 782 464 787 526 Z M 781 907.5 Q 754 935 754 976 Q 754 1023 787 1055 Q 820 1087 863 1087 Q 905 1087 933 1058 Q 961 1029 961 988 Q 961 944 928 912 Q 895 880 850 880 Q 808 880 781 907.5 Z"/>
        </g>
        <g transform="matrix(1 0 0 1 26323 1100)">
            <path fill="#000000" stroke="none" d="M 533 380 Q 576 367 634 367 Q 709 367 762 406 Q 815 445 815 506 Q 815 538 801.50006 558.5 Q 788 579 765 589 L 738 601 Q 702 617 683 632 Q 664 647 664 679 Q 664 746 758 770.50006 Q 852 795 890 819 L 920 838 Q 934 847 948.5 853 Q 963 859 981 859 Q 1017 859 1040 836 Q 1063 813 1063 779 Q 1063 748 1038 724.5 Q 1013 701 929 670 Q 957 660 986 613.5 Q 1015 567 1015 509 Q 1015 363 888 272.5 Q 761 182 580 182 Q 498 182 437 193 Q 338 140 303.5 98 Q 269 56 269 13 Q 269 -75 330 -107.5 Q 391 -140 543 -140 Q 646 -140 721 -135.5 Q 796 -131 842 -123 Q 932 -107 932 -106 Q 965 -106 985.5 -123 Q 1006 -140 1006 -176 Q 1006 -245 883 -282.5 Q 760 -320 542 -320 Q 317 -320 198 -245.5 Q 79 -171 79 -32 Q 79 53 128 123.5 Q 177 194 290 270 Q 266 303 266 348 Q 266 416 306 452.5 Q 346 489 417 489 Q 456 489 488 458 Q 520 427 533 380 Z M 406 830 L 406 830 Z"/>
        </g>
        <g transform="matrix(1 0 0 1 27516 1100)">
            <path fill="#000000" stroke="none" d="M 1164 539 Q 1090 508 1020.49994 485 Q 951 462 871 454 Q 627 192 492 85.5 Q 357 -21 215.5 -90.50001 Q 74 -160 6 -160 Q -57 -160 -88.5 -127.5 Q -120 -95 -120 -44 Q -120 49 -18 71.5 Q 84 94 208.5 148 Q 333 202 448.5 283 Q 564 364 668 473 Q 620 492 593 525 Q 566 558 566 601 Q 566 672 614.5 721.5 Q 663 771 745 771 Q 805 771 850 740 Q 895 709 923 661 Q 999 667 1055 690.5 Q 1111 714 1149 737 L 1222 781 Q 1254 800 1287 800 Q 1327 800 1344 769.50006 Q 1361 739 1361 635 Q 1361 515 1313.5 393.50003 Q 1266 272 1192.5 163 Q 1119 54 1048 54 Q 1005 54 979.5 75.5 Q 954 97 954 133 Q 954 180 988 219 Q 1022 258 1088.5 354.5 Q 1155 451 1164 539 Z"/>
        </g>
        <g transform="matrix(1 0 0 1 29007 1100)">
            <path fill="#000000" stroke="none" d="M 470 294 Q 416 326 387 374 Q 358 422 358 479 Q 358 607 490.5 718.5 Q 623 830 785 830 Q 884 830 937 790 Q 990 750 990 674 Q 990 562 913 455 Q 836 348 608 167.5 Q 380 -13 216.5 -86.50001 Q 53 -160 6 -160 Q -57 -160 -88.5 -129 Q -120 -98 -120 -47 Q -120 45 -22.499998 67 Q 75 89 214.5 156.5 Q 354 224 470 294 Z M 652 421 Q 734 488 768 536 Q 802 584 802 625 Q 802 642 791 653.5 Q 780 665 745 665 Q 681 665 614.5 610 Q 548 555 548 493 Q 548 462 571.5 444.5 Q 595 427 652 421 Z"/>
        </g>
        <g transform="matrix(1 0 0 1 30109 1100)">
            <path fill="#000000" stroke="none" d="M 677 455 Q 712 437 731.5 419.5 Q 751 402 751 368 Q 751 285 583 149.5 Q 415 14 244 -73 Q 73 -160 6 -160 Q -57 -160 -88.5 -127.5 Q -120 -95 -120 -44 Q -120 50 34.5 81.5 Q 189 113 353.5 194.5 Q 518 276 518 338 Q 518 350 484.5 365.5 Q 451 381 433.5 402 Q 416 423 416 454 Q 416 480 447 506.5 Q 478 533 531 559 L 586 586 Q 612 598 628.5 608.5 Q 645 619 645 627 Q 645 636 637.5 641 Q 630 646 614 650 L 575 659 Q 510 674 483 692 Q 456 710 456 747 Q 456 795 506 821.5 Q 556 848 606 877.5 Q 656 907 699.5 943.5 Q 743 980 779 980 Q 811 980 834 956.49994 Q 857 933 857 900 Q 857 872 819.5 836.5 Q 782 801 709 765 Q 818 735 844 712 Q 870 689 870 657 Q 870 603 822 553 Q 774 503 677 455 Z"/>
        </g>
        <g transform="matrix(1 0 0 1 31029 1100)">
            <path fill="#000000" stroke="none" d="M 822 735 Q 908 670 908 565 Q 908 436 789.5 325.5 Q 671 215 455.49997 101.49999 Q 240 -12 240 -86 Q 240 -147 296 -171 Q 352 -195 463 -195 Q 547 -195 602.5 -171.5 Q 658 -148 702 -118 Q 746 -88 779 -88 Q 813 -88 833 -107.5 Q 853 -127 853 -163 Q 853 -237 734.49994 -298.5 Q 616 -360 452 -360 Q 278 -360 169 -289.5 Q 60 -219 60 -96 Q 60 34 266 156 Q 472 278 487 287 Q 359 313 299.5 371 Q 240 429 240 518 Q 240 635 355 717.5 Q 470 800 613 800 Q 736 800 822 735 Z M 486.49997 600 Q 429 565 429 515 Q 429 471 488.50003 448 Q 548 425 666 422 Q 694 450 706 480.5 Q 718 511 718 556 Q 718 586 690 610.5 Q 662 635 605 635 Q 544 635 486.49997 600 Z"/>
        </g>
        <g transform="matrix(1 0 0 1 31997 1100)">
            <path fill="#000000" stroke="none" d="M 692 741 Q 733 741 773 746 L 931 762 Q 970 765 1009 765 Q 1040 765 1059.5 749 Q 1079 733 1079 701 Q 1079 669 1057.5 632.5 Q 1036 596 892.49994 449 Q 749 302 572 155.5 Q 395 9 235.49998 -75.5 Q 76 -160 6 -160 Q -57 -160 -88.5 -127.5 Q -120 -95 -120 -44 Q -120 47 -16.5 69 Q 87 91 227 157 Q 367 223 533 360.50003 Q 699 498 798 587 Q 753 582 705 579.5 Q 657 577 602 577 Q 517 577 471.49997 607 Q 426 637 426 685 Q 426 734 473 766 Q 520 798 572 844.5 Q 624 891 662 935.5 Q 700 980 753 980 Q 788 980 809.5 955.5 Q 831 931 831 896 Q 831 829 692 741 Z"/>
        </g>
        <g transform="matrix(1 0 0 1 34176 1100)">
            <path fill="#000000" stroke="none" d="M 677 455 Q 712 437 731.5 419.5 Q 751 402 751 368 Q 751 285 583 149.5 Q 415 14 244 -73 Q 73 -160 6 -160 Q -57 -160 -88.5 -127.5 Q -120 -95 -120 -44 Q -120 50 34.5 81.5 Q 189 113 353.5 194.5 Q 518 276 518 338 Q 518 350 484.5 365.5 Q 451 381 433.5 402 Q 416 423 416 454 Q 416 480 447 506.5 Q 478 533 531 559 L 586 586 Q 612 598 628.5 608.5 Q 645 619 645 627 Q 645 636 637.5 641 Q 630 646 614 650 L 575 659 Q 510 674 483 692 Q 456 710 456 747 Q 456 795 506 821.5 Q 556 848 606 877.5 Q 656 907 699.5 943.5 Q 743 980 779 980 Q 811 980 834 956.49994 Q 857 933 857 900 Q 857 872 819.5 836.5 Q 782 801 709 765 Q 818 735 844 712 Q 870 689 870 657 Q 870 603 822 553 Q 774 503 677 455 Z M 443 -280.5 Q 416 -253 416 -212 Q 416 -165 449 -133 Q 482 -101 525 -101 Q 567 -101 595 -130 Q 623 -159 623 -200 Q 623 -244 590 -276 Q 557 -308 512 -308 Q 470 -308 443 -280.5 Z"/>
        </g>
        <g transform="matrix(1 0 0 1 35096 1100)">
            <path fill="#000000" stroke="none" d="M 713 627 Q 680 635 635 635 Q 542 635 445 604 Q 348 573 299 573 Q 257 573 233.5 599.5 Q 210 626 210 662 Q 210 725 312 762.5 Q 414 800 621 800 Q 807 800 893.49994 758 Q 980 716 980 633 Q 980 553 899.50006 451.5 Q 819 350 621 213 Q 423 76 264 18 Q 105 -40 46 -40 Q -80 -40 -80 61 Q -80 154 32.5 177 Q 145 200 299 253.5 Q 453 307 599.5 419.5 Q 746 532 746 604 Q 746 619 713 627 Z"/>
        </g>
        <g transform="matrix(1 0 0 1 36156 1100)">
            <path fill="#000000" stroke="none" d="M 321 423 Q 248 463 223 498.5 Q 198 534 198 582 Q 198 641 246 692 Q 294 743 359 743 Q 436 743 486 691 Q 536 639 542 554 Q 657 538 791.5 529 Q 926 520 1091 520 Q 1647 520 1745.5001 598 Q 1844 676 1875.5001 753 Q 1907 830 1975 830 Q 2014 830 2030.4999 807.5 Q 2047 785 2047 747 Q 2047 635 1934.5 524.5 Q 1822 414 1640 377 Q 1458 340 1065 340 Q 893 340 755 351.5 Q 617 363 510 378 Q 466 279 348 186.5 Q 230 94 154 94 Q 106 94 78 118 Q 50 142 50 182 Q 50 239 126 265.5 Q 202 292 256 336.5 Q 310 381 321 423 Z M 891 727.5 Q 864 755 864 796 Q 864 843 897 875 Q 930 907 973 907 Q 1015 907 1043 878 Q 1071 849 1071 808 Q 1071 764 1038 732 Q 1005 700 960 700 Q 918 700 891 727.5 Z M 1281 727.5 Q 1254 755 1254 796 Q 1254 843 1287 875 Q 1320 907 1363 907 Q 1405 907 1433 878 Q 1461 849 1461 808 Q 1461 764 1428 732 Q 1395 700 1350 700 Q 1308 700 1281 727.5 Z M 1108 985.5 Q 1081 1013 1081 1054 Q 1081 1101 1114 1133 Q 1147 1165 1190 1165 Q 1232 1165 1260 1136 Q 1288 1107 1288 1066 Q 1288 1022 1255 990 Q 1222 958 1177 958 Q 1135 958 1108 985.5 Z"/>
        </g>
        <g transform="matrix(1 0 0 1 38243 1100)">
            <path fill="#000000" stroke="none" d="M 1008 721 Q 1024 702 1024 671 Q 1024 657 1017.5 633.5 Q 1011 610 953 531 Q 895 452 744.5 323 Q 594 194 453.5 106.50001 Q 313 19 239.5 -0.5 Q 166 -20 153 -20 Q 94 -20 62 7 Q 30 34 30 82 Q 30 179 134 205.5 Q 238 232 385.5 316.5 Q 533 401 646 480.5 Q 759 560 833.50006 650 Q 908 740 961 740 Q 992 740 1008 721 Z M 772 889.5 Q 745 917 745 958 Q 745 1005 778 1037 Q 811 1069 854 1069 Q 896 1069 924 1040 Q 952 1011 952 970 Q 952 926 919 894 Q 886 862 841 862 Q 799 862 772 889.5 Z"/>
        </g>
        <g transform="matrix(1 0 0 1 39352 1100)">
            <path fill="#000000" stroke="none" d="M 787 526 Q 609 315 360.50003 147.5 Q 112 -20 6 -20 Q -57 -20 -88.5 7.5 Q -120 35 -120 86 Q -120 173 -26 199.5 Q 68 226 179 276.5 Q 290 327 393.50003 398.5 Q 497 470 621.5 605 Q 746 740 837 740 Q 904 740 937.5 693 Q 971 646 971 544 Q 971 431 932 323.5 Q 893 216 818.5 107 Q 744 -2 674 -2 Q 631 -2 605.5 19.5 Q 580 41 580 77 Q 580 115 602 144.5 Q 624 174 683 263 Q 742 352 762 408 Q 782 464 787 526 Z M 321 -180.50002 Q 294 -153 294 -112 Q 294 -65 327 -33 Q 360 -1 403 -1 Q 445 -1 473 -30 Q 501 -59 501 -100 Q 501 -144 468 -176 Q 435 -208 390 -208 Q 348 -208 321 -180.50002 Z"/>
        </g>
        <g transform="matrix(1 0 0 1 40453 1100)">
            <path fill="#000000" stroke="none" d="M 505 427 Q 473 403 449.5 384.5 Q 426 366 426 351 Q 426 337 484 282.5 Q 542 228 542 165 Q 542 62 405.5 -14 Q 269 -90 122 -90 Q 9 -90 -52.5 -61 Q -114 -32 -114 21 Q -114 64 -94 90.50001 Q -74 117 -30 117 Q 2 117 45 102.50001 Q 88 88 128 88 Q 222 88 279.5 109.49999 Q 337 131 337 173 Q 337 204 280 243 Q 223 282 223 310 Q 223 392 343 506.5 Q 463 621 646 710.5 Q 829 800 958 800 Q 1052 800 1095 751.5 Q 1138 703 1138 615 Q 1138 484 1030.5 399 Q 923 314 786 314 Q 718 314 640.5 344 Q 563 374 505 427 Z M 939 630 Q 930 635 914 635 Q 890 635 815 602 Q 740 569 669 529 Q 695 509 726.5 496.5 Q 758 484 796 484 Q 868 484 908 515.5 Q 948 547 948 608 Q 948 625 939 630 Z M 650 877.5 Q 623 905 623 946 Q 623 993 656 1025 Q 689 1057 732 1057 Q 774 1057 802 1028 Q 830 999 830 958 Q 830 914 797 882 Q 764 850 719 850 Q 677 850 650 877.5 Z M 1040 877.5 Q 1013 905 1013 946 Q 1013 993 1046 1025 Q 1079 1057 1122 1057 Q 1164 1057 1192 1028 Q 1220 999 1220 958 Q 1220 914 1187 882 Q 1154 850 1109 850 Q 1067 850 1040 877.5 Z M 867 1135.5 Q 840 1163 840 1204 Q 840 1251 873 1283 Q 906 1315 949 1315 Q 991 1315 1019 1286 Q 1047 1257 1047 1216 Q 1047 1172 1014 1140 Q 981 1108 936 1108 Q 894 1108 867 1135.5 Z"/>
        </g>
    </g>
</svg>
