<svg width="58708" height="3650" viewBox="0 0 58708 3650" xmlns="http://www.w3.org/2000/svg">
    <defs/>
    <path fill="#000000" stroke="none" transform="matrix(1 0 0 -1 0 2600)" d="M 628 436 C 517.33333333333 362 462 286.66666666667 462 210 C 462 170.66666666667 477 151 507 151 C 535.66666666667 151 560.33333333333 179 581 235 C 601 291 616.66666666667 358 628 436 Z M 820 800 C 820 766 819 725 817 677 C 859 695 886.66666666667 746 900 830 C 901.33333333333 1076.66666666667 1018 1200 1250 1200 C 1483.33333333333 1200 1600 1090 1600 870 C 1600 764.66666666667 1532.33333333333 670.33333333333 1397 587 L 1318 685 C 1399.33333333333 729.66666666667 1440 791.33333333333 1440 870 C 1440 976.66666666667 1376.66666666667 1030 1250 1030 C 1134 1030 1070.66666666667 963.33333333333 1060 830 C 1047.33333333333 658 959.33333333333 545 796 491 C 776 293.66666666667 738 162.66666666667 682 98 C 626 32.66666666667 567.66666666667 0 507 0 C 379.66666666667 0 312.66666666667 70 306 210 C 312.66666666667 350 400.66666666667 467.33333333333 570 562 L 645 606 C 655 670.66666666667 660 735.33333333333 660 800 C 660 953.33333333333 595 1030 465 1030 C 335 1030 270 963.33333333333 270 830 C 270 728.66666666667 316.66666666667 664.33333333333 410 637 L 357 525 C 185.66666666667 555 100 656.66666666667 100 830 C 100 1076.66666666667 220 1200 460 1200 C 700 1200 820 1066.66666666667 820 800 Z"/>
    <path fill="#000000" stroke="none" transform="matrix(1 0 0 -1 1700 2600)" d="M 640 870 C 640 976.66666666667 581.66666666667 1030 465 1030 C 335 1030 270 963.33333333333 270 830 C 270 748.66666666667 310 697.66666666667 390 677 L 337 565 C 179 588.33333333333 100 676.66666666667 100 830 C 100 1076.66666666667 220 1200 460 1200 C 686.66666666667 1200 800 1090 800 870 C 800 771.33333333333 765.66666666667 673.33333333333 697 576 C 627.66666666667 478.66666666667 593 390 593 310 C 603.66666666667 203.33333333333 686.33333333333 150 841 150 C 995.66666666667 150 1073 220.66666666667 1073 362 C 1073 500.66666666667 1058.33333333333 600.66666666667 1029 662 C 999 723.33333333333 984 797.33333333333 984 884 C 984 1094.66666666667 1105.66666666667 1200 1349 1200 C 1592.33333333333 1200 1714 1094.66666666667 1714 884 C 1714 784 1661.66666666667 707.66666666667 1557 655 L 1494 746 C 1540.66666666667 776.66666666667 1564 822.66666666667 1564 884 C 1564 981.33333333333 1492.33333333333 1030 1349 1030 C 1205.66666666667 1030 1134 981.33333333333 1134 884 C 1134 832 1149 771.66666666667 1179 703 C 1208.33333333333 634.33333333333 1223 520.66666666667 1223 362 C 1223 120.66666666667 1093.33333333333 0 834 0 C 574.66666666667 0 444.33333333333 103.33333333333 443 310 C 443 427.33333333333 476 535.33333333333 542 634 C 607.33333333333 732.66666666667 640 811.33333333333 640 870 Z"/>
    <path fill="#000000" stroke="none" transform="matrix(1 0 0 -1 3514 2600)" d="M -150 300 C -150 274 -143.33333333333 249.33333333333 -130 226 C -116.66666666667 202 -98 183.33333333333 -74 170 C -50.66666666667 156.66666666667 -26 150 0 150 C 26 150 51 156.66666666667 75 170 C 98.33333333333 183.33333333333 116.66666666667 202 130 226 C 143.33333333333 249.33333333333 150 274 150 300 C 150 326 143.33333333333 351 130 375 C 116.66666666667 399 98 417.66666666667 74 431 C 50 443.66666666667 25.33333333333 450 0 450 C -25.33333333333 450 -49.66666666667 443.66666666667 -73 431 C -97 417.66666666667 -115.66666666667 399 -129 375 C -143 351 -150 326 -150 300 Z M 1241 440 C 1219.66666666667 440 1199 445.66666666667 1179 457 C 1159 467.66666666667 1143.66666666667 483 1133 503 C 1121.66666666667 522.33333333333 1116 543 1116 565 C 1116 587 1121.66666666667 608 1133 628 C 1144.33333333333 648 1160 663.33333333333 1180 674 C 1200 684.66666666667 1223.66666666667 690 1251 690 C 1279 690 1303 682.33333333333 1323 667 C 1343 651.66666666667 1357.33333333333 628.66666666667 1366 598 C 1422.66666666667 631.33333333333 1451 708.66666666667 1451 830 C 1451 963.33333333333 1380 1030 1238 1030 C 1088.66666666667 1030 992.66666666667 963.33333333333 950 830 L 858 830 C 823.33333333333 963.33333333333 738.66666666667 1030 604 1030 C 455.33333333333 1030 381 961.33333333333 381 824 C 381 785.33333333333 403.33333333333 728.33333333333 448 653 C 492.66666666667 577.66666666667 515 500 515 420 C 515 140 378.33333333333 0 105 0 L 0 0 C -52 0 -101.66666666667 13.33333333333 -149 40 C -197 66 -234 103 -260 151 C -286.66666666667 198.33333333333 -300 248 -300 300 C -300 352 -286.33333333333 402.33333333333 -259 451 C -232.33333333333 499 -195 536 -147 562 C -99.66666666667 587.33333333333 -50.66666666667 600 0 600 C 50 600 99 587.33333333333 147 562 C 195 536 232.66666666667 499 260 451 C 286.66666666667 402.33333333333 300 352 300 300 C 300 261.33333333333 293.66666666667 225 281 191 C 337 215 365 291.33333333333 365 420 C 365 493.33333333333 341 564 293 632 C 245 700 221 764 221 824 C 221 1074.66666666667 343.33333333333 1200 588 1200 C 744.66666666667 1200 852.33333333333 1140.33333333333 911 1021 C 971.66666666667 1140.33333333333 1084 1200 1248 1200 C 1490 1200 1611 1076.66666666667 1611 830 C 1611 570 1487.66666666667 440 1241 440 Z"/>
    <path fill="#000000" stroke="none" transform="matrix(1 0 0 -1 5225 2600)" d="M 628 436 C 517.33333333333 362 462 286.66666666667 462 210 C 462 170.66666666667 477 151 507 151 C 535.66666666667 151 560.33333333333 179 581 235 C 601 291 616.66666666667 358 628 436 Z M 990 142 C 900.66666666667 48 856 -29.66666666667 856 -91 C 856 -101.66666666667 857.33333333333 -111.66666666667 860 -121 C 881.33333333333 -201 910 -241 946 -241 C 950.66666666667 -241 955.33333333333 -240.33333333333 960 -239 C 1035.33333333333 -219 1097.66666666667 -142 1147 -8 C 1195.66666666667 125.33333333333 1263.33333333333 203.66666666667 1350 227 C 1376.66666666667 233.66666666667 1401 237 1423 237 C 1489.66666666667 237 1536.33333333333 205 1563 141 C 1573 117 1581 94 1587 72 C 1596.33333333333 36.66666666667 1601 0.33333333333 1601 -37 C 1601 -95 1589.66666666667 -155.66666666667 1567 -219 L 1435 -205 C 1453 -153.66666666667 1462 -107 1462 -65 C 1462 -43 1459.33333333333 -22 1454 -2 L 1454 0 C 1444.66666666667 34.66666666667 1426 52 1398 52 C 1391.33333333333 52 1384 51 1376 49 C 1371.33333333333 47.66666666667 1366.66666666667 46 1362 44 C 1318.66666666667 25.33333333333 1277.33333333333 -44.33333333333 1238 -165 C 1198.66666666667 -285.66666666667 1119.66666666667 -362 1001 -394 C 977 -400 954.66666666667 -403 934 -403 C 825.33333333333 -403 749.66666666667 -322.33333333333 707 -161 C 700.33333333333 -137 697 -112.33333333333 697 -87 C 697 29 764.66666666667 155.33333333333 900 292 C 875.33333333333 347.33333333333 838 392.66666666667 788 428 C 768.66666666667 267.33333333333 733.33333333333 157.33333333333 682 98 C 626 32.66666666667 567.66666666667 0 507 0 C 379.66666666667 0 312.66666666667 70 306 210 C 312.66666666667 350 400.66666666667 467.33333333333 570 562 L 645 606 C 655 670.66666666667 660 735.33333333333 660 800 C 660 953.33333333333 595 1030 465 1030 C 335 1030 270 963.33333333333 270 830 C 270 728.66666666667 316.66666666667 664.33333333333 410 637 L 357 525 C 185.66666666667 555 100 656.66666666667 100 830 C 100 1076.66666666667 220 1200 460 1200 C 700 1200 820 1066.66666666667 820 800 C 820 774 814.66666666667 703.33333333333 804 588 C 846.66666666667 580 883.33333333333 558.66666666667 914 524 C 952 480.66666666667 981.66666666667 432.33333333333 1003 379 C 1017 405 1024 425 1024 439 C 1024 469 1016.66666666667 499 1002 529 C 974 593.66666666667 960 680.66666666667 960 790 C 960 1063.33333333333 1076.66666666667 1200 1310 1200 C 1543.33333333333 1200 1660 1090 1660 870 C 1660 751.33333333333 1612 648.66666666667 1516 562 L 1410 637 C 1463.33333333333 687 1490 764.66666666667 1490 870 C 1490 976.66666666667 1430 1030 1310 1030 C 1183.33333333333 1030 1120 950 1120 790 C 1120 682 1128 609.66666666667 1144 573 C 1162 526.33333333333 1171 484.66666666667 1171 448 C 1171 434 1170 421 1168 409 C 1153.33333333333 339.66666666667 1120 278 1068 224 L 990 142 Z"/>
    <path fill="#000000" stroke="none" transform="matrix(1 0 0 -1 6985 2600)" d="M 1084 593 C 1090 559 1093 525.66666666667 1093 493 C 1093 459.66666666667 1090 427.33333333333 1084 396 C 1070.66666666667 333.33333333333 1047.33333333333 273.33333333333 1014 216 C 952.66666666667 108.66666666667 809.33333333333 36.66666666667 584 0 L 472 0 L 445 121 C 511.66666666667 199.66666666667 552.66666666667 295.66666666667 568 409 C 582.66666666667 522.33333333333 593.33333333333 649.33333333333 600 790 C 593.33333333333 950 533.33333333333 1030 420 1030 C 306.66666666667 1030 250 963.33333333333 250 830 C 250 715.33333333333 284.33333333333 643.66666666667 353 615 L 296 500 C 165.33333333333 546.66666666667 100 656.66666666667 100 830 C 100 1076.66666666667 210 1200 430 1200 C 636.66666666667 1200 743.33333333333 1063.33333333333 750 790 C 750 490 721.66666666667 278.66666666667 665 156 C 777 174 853 220.33333333333 893 295 C 925.66666666667 355.66666666667 942 421.66666666667 942 493 C 942 519.66666666667 939.66666666667 547 935 575 C 918.33333333333 678.33333333333 910 753.33333333333 910 800 C 910 1066.66666666667 1035.66666666667 1200 1287 1200 C 1457 1200 1571.33333333333 1140.33333333333 1630 1021 C 1690.66666666667 1140.33333333333 1813 1200 1997 1200 C 2272.33333333333 1200 2410 1033.33333333333 2410 700 C 2410 392.66666666667 2306.66666666667 159.33333333333 2100 0 L 2015 108 C 2171.66666666667 246 2250 443.33333333333 2250 700 C 2250 920 2162.33333333333 1030 1987 1030 C 1817.66666666667 1030 1711.66666666667 963.33333333333 1669 830 L 1577 830 C 1542.33333333333 963.33333333333 1451 1030 1303 1030 C 1147.66666666667 1030 1070 953.33333333333 1070 800 C 1070 732 1074.66666666667 663 1084 593 Z"/>
    <path fill="#000000" stroke="none" transform="matrix(1 0 0 -1 9495 2600)" d="M 1084 593 C 1090 559 1093 525.66666666667 1093 493 C 1093 459.66666666667 1090 427.33333333333 1084 396 C 1070.66666666667 333.33333333333 1047.33333333333 273.33333333333 1014 216 C 952.66666666667 108.66666666667 809.33333333333 36.66666666667 584 0 L 472 0 L 445 121 C 511.66666666667 199.66666666667 552.66666666667 295.66666666667 568 409 C 582.66666666667 522.33333333333 593.33333333333 649.33333333333 600 790 C 593.33333333333 950 533.33333333333 1030 420 1030 C 306.66666666667 1030 250 963.33333333333 250 830 C 250 715.33333333333 284.33333333333 643.66666666667 353 615 L 296 500 C 165.33333333333 546.66666666667 100 656.66666666667 100 830 C 100 1076.66666666667 210 1200 430 1200 C 636.66666666667 1200 743.33333333333 1063.33333333333 750 790 C 750 490 721.66666666667 278.66666666667 665 156 C 777 174 853 220.33333333333 893 295 C 925.66666666667 355.66666666667 942 421.66666666667 942 493 C 942 519.66666666667 939.66666666667 547 935 575 C 918.33333333333 678.33333333333 910 753.33333333333 910 800 C 910 1066.66666666667 1035.66666666667 1200 1287 1200 C 1457 1200 1571.33333333333 1140.33333333333 1630 1021 C 1690.66666666667 1140.33333333333 1813 1200 1997 1200 C 2272.33333333333 1200 2410 1066.66666666667 2410 800 C 2410 626 2339 496 2197 410 L 2122 520 C 2207.33333333333 583.33333333333 2250 676.66666666667 2250 800 C 2250 953.33333333333 2162.33333333333 1030 1987 1030 C 1817.66666666667 1030 1711.66666666667 963.33333333333 1669 830 L 1577 830 C 1542.33333333333 963.33333333333 1451 1030 1303 1030 C 1147.66666666667 1030 1070 953.33333333333 1070 800 C 1070 732 1074.66666666667 663 1084 593 Z"/>
    <path fill="#000000" stroke="none" transform="matrix(1 0 0 -1 12574 2600)" d="M 1328 436 C 1217.33333333333 362 1162 286.66666666667 1162 210 C 1162 170.66666666667 1177 151 1207 151 C 1235.66666666667 151 1260.33333333333 179 1281 235 C 1301 291 1316.66666666667 358 1328 436 Z M 1047 69 C 1022.33333333333 103.66666666667 1008.66666666667 150.66666666667 1006 210 C 1012.66666666667 350 1100.66666666667 467.33333333333 1270 562 L 1345 606 C 1355 670.66666666667 1360 735.33333333333 1360 800 C 1360 953.33333333333 1298 1030 1174 1030 C 1092.66666666667 1030 1019.66666666667 1010 955 970 C 923 950 877.66666666667 940 819 940 C 761.66666666667 940 717 950 685 970 C 620.33333333333 1010 550 1030 474 1030 C 331.33333333333 1030 260 895.66666666667 260 627 C 260 517 276.33333333333 419.66666666667 309 335 C 341.66666666667 250.33333333333 388.66666666667 194.33333333333 450 167 L 449 173 C 455.66666666667 207 468 229 486 239 C 503.33333333333 248.33333333333 521.66666666667 255 541 259 C 547.66666666667 260.33333333333 554.66666666667 261 562 261 C 574 261 586.66666666667 259 600 255 C 620 247.66666666667 637 235.33333333333 651 218 C 664.33333333333 200.66666666667 673 181 677 159 C 678.33333333333 151 679 143 679 135 C 679 121 677 106 673 90 C 665.66666666667 65.33333333333 654 45.66666666667 638 31 C 622 16.33333333333 604 7 584 3 C 561.33333333333 0.33333333333 539.33333333333 -1 518 -1 C 371.33333333333 -1 260.66666666667 76 186 230 C 128.66666666667 348.66666666667 100 481 100 627 C 100 981.66666666667 207.66666666667 1171.33333333333 423 1196 C 439.66666666667 1198.66666666667 453.33333333333 1200 464 1200 C 555.33333333333 1200 637.66666666667 1176.66666666667 711 1130 C 747 1106.66666666667 783 1095 819 1095 C 855.66666666667 1095 892.33333333333 1106.66666666667 929 1130 C 1002.33333333333 1176.66666666667 1084 1200 1174 1200 C 1404.66666666667 1200 1520 1066.66666666667 1520 800 C 1520 766 1519 725 1517 677 C 1559 695 1586.66666666667 746 1600 830 C 1601.33333333333 1076.66666666667 1718 1200 1950 1200 C 2183.33333333333 1200 2300 1090 2300 870 C 2300 764.66666666667 2232.33333333333 670.33333333333 2097 587 L 2018 685 C 2099.33333333333 729.66666666667 2140 791.33333333333 2140 870 C 2140 976.66666666667 2076.66666666667 1030 1950 1030 C 1834 1030 1770.66666666667 963.33333333333 1760 830 C 1747.33333333333 658 1659.33333333333 545 1496 491 C 1476 293.66666666667 1438 162.66666666667 1382 98 C 1326 32.66666666667 1267.66666666667 0 1207 0 L 1197 0 C 1102.33333333333 -76.66666666667 1055 -143.33333333333 1055 -200 C 1055 -240 1088.66666666667 -260 1156 -260 C 1230 -260 1279.33333333333 -223.33333333333 1304 -150 C 1342 -50 1418.33333333333 0 1533 0 C 1661 0 1725 -54.66666666667 1725 -164 C 1725 -233.33333333333 1680.66666666667 -310 1592 -394 L 1492 -326 C 1554 -260.66666666667 1585 -210 1585 -174 C 1585 -138 1567.66666666667 -120 1533 -120 C 1477.66666666667 -120 1443.33333333333 -143 1430 -189 C 1378 -329.66666666667 1286.66666666667 -400 1156 -400 C 988.66666666667 -400 905 -333.33333333333 905 -200 C 905 -111.33333333333 952.33333333333 -21.66666666667 1047 69 Z"/>
    <path fill="#000000" stroke="none" transform="matrix(1 0 0 -1 14974 2600)" d="M 260 627 C 260 517 276.33333333333 419.66666666667 309 335 C 341.66666666667 250.33333333333 388.66666666667 194.33333333333 450 167 L 449 173 C 455.66666666667 207 468 229 486 239 C 503.33333333333 248.33333333333 521.66666666667 255 541 259 C 547.66666666667 260.33333333333 554.66666666667 261 562 261 C 574 261 586.66666666667 259 600 255 C 620 247.66666666667 637 235.33333333333 651 218 C 664.33333333333 200.66666666667 673 181 677 159 C 678.33333333333 151 679 143 679 135 C 679 121 677 106 673 90 C 665.66666666667 65.33333333333 654 45.66666666667 638 31 C 622 16.33333333333 604 7 584 3 C 561.33333333333 0.33333333333 539.33333333333 -1 518 -1 C 371.33333333333 -1 260.66666666667 76 186 230 C 128.66666666667 348.66666666667 100 481 100 627 C 100 981.66666666667 207.66666666667 1171.33333333333 423 1196 C 439.66666666667 1198.66666666667 453.33333333333 1200 464 1200 C 555.33333333333 1200 637.66666666667 1176.66666666667 711 1130 C 747 1106.66666666667 783 1095 819 1095 C 855.66666666667 1095 892.33333333333 1106.66666666667 929 1130 C 1002.33333333333 1176.66666666667 1084 1200 1174 1200 C 1404.66666666667 1200 1520 1066.66666666667 1520 800 C 1520 666 1470.66666666667 543.66666666667 1372 433 L 1270 522 C 1330 597.33333333333 1360 690 1360 800 C 1360 953.33333333333 1298 1030 1174 1030 C 1092.66666666667 1030 1019.66666666667 1010 955 970 C 923 950 877.66666666667 940 819 940 C 761.66666666667 940 717 950 685 970 C 620.33333333333 1010 550 1030 474 1030 C 331.33333333333 1030 260 895.66666666667 260 627 Z"/>
    <path fill="#000000" stroke="none" transform="matrix(1 0 0 -1 16594 2600)" d="M 628 436 C 517.33333333333 362 462 286.66666666667 462 210 C 462 170.66666666667 477 151 507 151 C 535.66666666667 151 560.33333333333 179 581 235 C 601 291 616.66666666667 358 628 436 Z M 374 40 C 332.66666666667 74.66666666667 310 131.33333333333 306 210 C 312.66666666667 350 400.66666666667 467.33333333333 570 562 L 645 606 C 655 670.66666666667 660 735.33333333333 660 800 C 660 953.33333333333 595 1030 465 1030 C 335 1030 270 963.33333333333 270 830 C 270 728.66666666667 316.66666666667 664.33333333333 410 637 L 357 525 C 185.66666666667 555 100 656.66666666667 100 830 C 100 1076.66666666667 220 1200 460 1200 C 700 1200 820 1066.66666666667 820 800 C 820 774 814.66666666667 703.33333333333 804 588 C 846.66666666667 580 883.33333333333 558.66666666667 914 524 C 952 480.66666666667 981.66666666667 432.33333333333 1003 379 C 1017 405 1024 425 1024 439 C 1024 469 1016.66666666667 499 1002 529 C 974 593.66666666667 960 680.66666666667 960 790 C 960 1063.33333333333 1076.66666666667 1200 1310 1200 C 1543.33333333333 1200 1660 1090 1660 870 C 1660 751.33333333333 1612 648.66666666667 1516 562 L 1410 637 C 1463.33333333333 687 1490 764.66666666667 1490 870 C 1490 976.66666666667 1430 1030 1310 1030 C 1183.33333333333 1030 1120 950 1120 790 C 1120 682 1128 609.66666666667 1144 573 C 1162 526.33333333333 1171 484.66666666667 1171 448 C 1171 434 1170 421 1168 409 C 1150.66666666667 325.66666666667 1100 253.33333333333 1016 192 L 919 241 C 896.33333333333 319.66666666667 852.66666666667 382 788 428 C 768.66666666667 267.33333333333 733.33333333333 157.33333333333 682 98 C 644.66666666667 54.66666666667 606.33333333333 25.66666666667 567 11 C 463 -70.33333333333 411 -140.66666666667 411 -200 C 411 -240 444.66666666667 -260 512 -260 C 586 -260 635.33333333333 -223.33333333333 660 -150 C 698 -50 774.33333333333 0 889 0 C 1017 0 1081 -54.66666666667 1081 -164 C 1081 -233.33333333333 1036.66666666667 -310 948 -394 L 848 -326 C 910 -260.66666666667 941 -210 941 -174 C 941 -138 923.66666666667 -120 889 -120 C 833.66666666667 -120 799.33333333333 -143 786 -189 C 734 -329.66666666667 642.66666666667 -400 512 -400 C 344.66666666667 -400 261 -333.33333333333 261 -200 C 261 -121.33333333333 298.66666666667 -41.33333333333 374 40 Z"/>
    <path fill="#000000" stroke="none" transform="matrix(1 0 0 -1 18354 2600)" d="M 493 1030 C 337.66666666667 1030 260 953.33333333333 260 800 C 260 718.66666666667 277 623 311 513 C 327 449.66666666667 335 389.66666666667 335 333 C 335 290.33333333333 330.66666666667 249.66666666667 322 211 C 301.33333333333 119.66666666667 253.66666666667 41.33333333333 179 -24 L 77 18 C 139.66666666667 133.33333333333 171 239.33333333333 171 336 C 171 432 159.33333333333 515 136 585 C 112 655 100 726.66666666667 100 800 C 100 1066.66666666667 225.66666666667 1200 477 1200 C 647 1200 761.33333333333 1140.33333333333 820 1021 C 880.66666666667 1140.33333333333 1003 1200 1187 1200 C 1462.33333333333 1200 1600 1033.33333333333 1600 700 C 1600 392.66666666667 1496.66666666667 159.33333333333 1290 0 L 1205 108 C 1361.66666666667 246 1440 443.33333333333 1440 700 C 1440 920 1352.33333333333 1030 1177 1030 C 1007.66666666667 1030 901.66666666667 963.33333333333 859 830 L 767 830 C 732.33333333333 963.33333333333 641 1030 493 1030 Z"/>
    <path fill="#000000" stroke="none" transform="matrix(1 0 0 -1 20054 2600)" d="M 1265 290 C 1235.66666666667 238.66666666667 1221 174 1221 96 C 1221 74.66666666667 1222 52.66666666667 1224 30 C 1223.33333333333 21.33333333333 1223 13 1223 5 C 1223 -65.66666666667 1244.66666666667 -102.66666666667 1288 -106 L 1293 -106 C 1327 -106 1344 -71.66666666667 1344 -3 C 1344 17.66666666667 1342.33333333333 41.66666666667 1339 69 C 1322.33333333333 168.33333333333 1297.66666666667 242 1265 290 Z M 1174 570 L 1175 570 C 1196.33333333333 557.33333333333 1217.33333333333 536.66666666667 1238 508 L 1276 568 L 1371 492 L 1332 424 C 1418 304.66666666667 1469.33333333333 192.66666666667 1486 88 C 1492 50.66666666667 1495 16.33333333333 1495 -15 C 1495 -139.66666666667 1447.33333333333 -214.66666666667 1352 -240 C 1337.33333333333 -243.33333333333 1321.66666666667 -246 1305 -248 C 1299 -248.66666666667 1293 -249 1287 -249 C 1162.33333333333 -249 1092.66666666667 -162.33333333333 1078 11 L 1078 29 C 1078 175.66666666667 1109.33333333333 299.33333333333 1172 400 C 1155.33333333333 414.66666666667 1141 427 1129 437 C 1117 419 1103 402.33333333333 1087 387 C 1028.33333333333 329.66666666667 999 275 999 223 C 999 152.33333333333 1008 108.66666666667 1026 92 L 975 0 C 659 46.66666666667 494.33333333333 180 481 400 C 481 475.33333333333 494.33333333333 546 521 612 C 547 678 570 754 590 840 C 591.33333333333 850.66666666667 592 861 592 871 C 592 969 536.33333333333 1021.66666666667 425 1029 C 315 1019.66666666667 260 953.33333333333 260 830 C 260 715.33333333333 292 644.66666666667 356 618 L 278 523 C 159.33333333333 554.33333333333 100 656.66666666667 100 830 C 100 1074.66666666667 205.33333333333 1197 416 1197 C 639.33333333333 1197 751 1091.33333333333 751 880 C 751 867.33333333333 750.66666666667 854 750 840 C 730 750 707 673.66666666667 681 611 C 654.33333333333 548.33333333333 641 478 641 400 C 654.33333333333 281.33333333333 723 203 847 165 C 841 191 838 216 838 240 C 838 310.66666666667 864.66666666667 370.33333333333 918 419 C 952.66666666667 450.33333333333 979 480.66666666667 997 510 L 851 584 L 915 710 L 1023 652 C 1020.33333333333 686.66666666667 1015.33333333333 720 1008 752 C 996.66666666667 800 991 857.33333333333 991 924 C 991 1108 1106 1200 1336 1200 C 1585.33333333333 1200 1710 1094.66666666667 1710 884 C 1710 784 1657.66666666667 707.66666666667 1553 655 L 1490 746 C 1536.66666666667 776.66666666667 1560 822.66666666667 1560 884 C 1560 981.33333333333 1485.33333333333 1030 1336 1030 C 1206 1030 1141 994.66666666667 1141 924 C 1141 878.66666666667 1146.66666666667 831.66666666667 1158 783 C 1169.33333333333 734.33333333333 1175 673.33333333333 1175 600 C 1175 590 1174.66666666667 580 1174 570 Z"/>
    <path fill="#000000" stroke="none" transform="matrix(1 0 0 -1 21864 2600)" d="M -150 300 C -150 274 -143.33333333333 249.33333333333 -130 226 C -116.66666666667 202 -98 183.33333333333 -74 170 C -50.66666666667 156.66666666667 -26 150 0 150 C 26 150 51 156.66666666667 75 170 C 98.33333333333 183.33333333333 116.66666666667 202 130 226 C 143.33333333333 249.33333333333 150 274 150 300 C 150 326 143.33333333333 351 130 375 C 116.66666666667 399 98 417.66666666667 74 431 C 50 443.66666666667 25.33333333333 450 0 450 C -25.33333333333 450 -49.66666666667 443.66666666667 -73 431 C -97 417.66666666667 -115.66666666667 399 -129 375 C -143 351 -150 326 -150 300 Z M 381 824 C 381 785.33333333333 403.33333333333 728.33333333333 448 653 C 492.66666666667 577.66666666667 515 500 515 420 C 515 140 378.33333333333 0 105 0 L 0 0 C -52 0 -101.66666666667 13.33333333333 -149 40 C -197 66 -234 103 -260 151 C -286.66666666667 198.33333333333 -300 248 -300 300 C -300 352 -286.33333333333 402.33333333333 -259 451 C -232.33333333333 499 -195 536 -147 562 C -99.66666666667 587.33333333333 -50.66666666667 600 0 600 C 50 600 99 587.33333333333 147 562 C 195 536 232.66666666667 499 260 451 C 286.66666666667 402.33333333333 300 352 300 300 C 300 261.33333333333 293.66666666667 225 281 191 C 337 215 365 291.33333333333 365 420 C 365 493.33333333333 341 564 293 632 C 245 700 221 764 221 824 C 221 1074.66666666667 343.33333333333 1200 588 1200 C 758 1200 872.33333333333 1140.33333333333 931 1021 C 991.66666666667 1140.33333333333 1107.33333333333 1200 1278 1200 C 1540 1200 1671 1033.33333333333 1671 700 C 1671 392.66666666667 1567.66666666667 159.33333333333 1361 0 L 1276 108 C 1432.66666666667 246 1511 443.33333333333 1511 700 C 1511 920 1430 1030 1268 1030 C 1112 1030 1012.66666666667 963.33333333333 970 830 L 878 830 C 843.33333333333 963.33333333333 752 1030 604 1030 C 455.33333333333 1030 381 961.33333333333 381 824 Z"/>
    <path fill="#000000" stroke="none" transform="matrix(1 0 0 -1 24204 2600)" d="M 797 11 L 773 0 L 661 95 C 690.33333333333 144.33333333333 712.66666666667 198.33333333333 728 257 C 732 272.33333333333 734 287.33333333333 734 302 C 734 388.66666666667 662.33333333333 458.33333333333 519 511 L 515 610 C 515 610.66666666667 515.33333333333 611.33333333333 516 612 C 612 678 660 757.33333333333 660 850 C 660 970 595 1030 465 1030 C 335 1030 270 963.33333333333 270 830 C 270 728.66666666667 316.66666666667 664.33333333333 410 637 L 357 525 C 185.66666666667 555 100 656.66666666667 100 830 C 100 1076.66666666667 220 1200 460 1200 C 700 1200 820 1083.33333333333 820 850 C 820 753.33333333333 784.66666666667 662.33333333333 714 577 C 823.33333333333 519 878 433 878 319 C 878 262.33333333333 869.66666666667 223.33333333333 853 202 C 1001 261.33333333333 1075 347.33333333333 1075 460 C 1075 533.33333333333 1059.33333333333 600.66666666667 1028 662 C 996.66666666667 723.33333333333 981 797.33333333333 981 884 C 981 1094.66666666667 1096 1200 1326 1200 C 1556 1200 1671 1094.66666666667 1671 884 C 1671 784 1618.66666666667 707.66666666667 1514 655 L 1451 746 C 1497.66666666667 776.66666666667 1521 822.66666666667 1521 884 C 1521 981.33333333333 1456 1030 1326 1030 C 1196 1030 1131 981.33333333333 1131 884 C 1131 832 1146.66666666667 771.66666666667 1178 703 C 1209.33333333333 634.33333333333 1225 553.33333333333 1225 460 C 1225 251.33333333333 1082.33333333333 101.66666666667 797 11 Z"/>
    <path fill="#000000" stroke="none" transform="matrix(1 0 0 -1 25975 2600)" d="M 768 165 C 736.66666666667 168.33333333333 704 170 670 170 C 610 170 580 161.66666666667 580 145 C 580 128.33333333333 600 120 640 120 C 702 120 744.66666666667 135 768 165 Z M 100 750 C 100 1050 241.66666666667 1200 525 1200 C 808.33333333333 1200 950 1066.66666666667 950 800 C 950 686 908.33333333333 596 825 530 C 908.33333333333 474.66666666667 950 404.66666666667 950 320 C 950 304.66666666667 948.33333333333 284.66666666667 945 260 C 991.66666666667 248.66666666667 1037 225.66666666667 1081 191 L 1055 91 C 1025.66666666667 119 983.33333333333 137.66666666667 928 147 C 892.66666666667 49 796.66666666667 0 640 0 C 520 0 457 34.66666666667 451 104 C 450.33333333333 112.66666666667 450 121.33333333333 450 130 C 450 186 467.66666666667 227.66666666667 503 255 C 543 285 588 300 638 300 L 641 300 C 692.33333333333 299.33333333333 741 296.66666666667 787 292 C 789 303.33333333333 790 312.66666666667 790 320 C 790 414.66666666667 740 474.66666666667 640 500 L 640 576 C 740 615.33333333333 790 690 790 800 C 790 953.33333333333 703.33333333333 1030 530 1030 C 350 1030 260 936.66666666667 260 750 C 260 635.33333333333 282.33333333333 561.66666666667 327 529 C 347 552.33333333333 364 566.66666666667 378 572 C 391.33333333333 577.33333333333 405.33333333333 580 420 580 C 440.66666666667 580 461 574.66666666667 481 564 C 501 553.33333333333 516.66666666667 538 528 518 C 539.33333333333 498 545 477 545 455 C 545 433 539.66666666667 412.33333333333 529 393 C 517.66666666667 373 502 357.66666666667 482 347 C 462 335.66666666667 441.33333333333 330 420 330 C 206.66666666667 330 100 470 100 750 Z"/>
    <path fill="#000000" stroke="none" transform="matrix(1 0 0 -1 27025 2600)" d="M 913 414 L 820 457 L 861 585 L 1003 522 C 1017.66666666667 548.66666666667 1025 574.66666666667 1025 600 C 1025 653.33333333333 1017.66666666667 704 1003 752 C 988.33333333333 800 981 857.33333333333 981 924 C 981 1108 1102.66666666667 1200 1346 1200 C 1588.66666666667 1200 1710 1094.66666666667 1710 884 C 1710 784 1657.66666666667 707.66666666667 1553 655 L 1490 746 C 1536.66666666667 776.66666666667 1560 822.66666666667 1560 884 C 1560 981.33333333333 1488.66666666667 1030 1346 1030 C 1202.66666666667 1030 1131 994.66666666667 1131 924 C 1131 878.66666666667 1138.33333333333 831.66666666667 1153 783 C 1167.66666666667 734.33333333333 1175 673.33333333333 1175 600 C 1175 536 1158.33333333333 480 1125 432 C 1152.33333333333 400.66666666667 1171.66666666667 367 1183 331 C 1191 303.66666666667 1195 275 1195 245 C 1195 229.66666666667 1194 213.66666666667 1192 197 C 1180.66666666667 125 1175 66 1175 20 C 1175 -12.66666666667 1178 -38.66666666667 1184 -58 C 1191.33333333333 -80.66666666667 1204.66666666667 -92 1224 -92 C 1232 -92 1241.33333333333 -90 1252 -86 C 1292.66666666667 -70.66666666667 1318.66666666667 -22 1330 60 C 1341.33333333333 141.33333333333 1382.33333333333 195.33333333333 1453 222 C 1483.66666666667 233.33333333333 1512 239 1538 239 C 1608 239 1657.33333333333 194.33333333333 1686 105 C 1690 92.33333333333 1692 77.66666666667 1692 61 C 1692 15.66666666667 1677.33333333333 -45 1648 -121 L 1528 -73 C 1548 -21.66666666667 1558 16 1558 40 C 1558 46 1557.33333333333 51.33333333333 1556 56 C 1549.33333333333 76 1538 86 1522 86 C 1516 86 1509.33333333333 84.66666666667 1502 82 C 1474.66666666667 71.33333333333 1453 24.33333333333 1437 -59 C 1421 -142.33333333333 1377.66666666667 -197.33333333333 1307 -224 C 1271.66666666667 -237.33333333333 1239.66666666667 -244 1211 -244 C 1135 -244 1082.66666666667 -198.33333333333 1054 -107 C 1043.33333333333 -73 1038 -32.33333333333 1038 15 C 1038 67 1044.66666666667 127 1058 195 C 1060 211.66666666667 1061 227.66666666667 1061 243 C 1061 268.33333333333 1058 290.66666666667 1052 310 C 1049.33333333333 319.33333333333 1045.66666666667 327.66666666667 1041 335 C 1013 296.33333333333 999 259 999 223 C 999 152.33333333333 991 78 975 0 C 659 46.66666666667 494.33333333333 180 481 400 C 481 475.33333333333 494.33333333333 546 521 612 C 547 678 570 754 590 840 C 591.33333333333 850.66666666667 592 861 592 871 C 592 969 536.33333333333 1021.66666666667 425 1029 C 315 1019.66666666667 260 953.33333333333 260 830 C 260 715.33333333333 292 644.66666666667 356 618 L 278 523 C 159.33333333333 554.33333333333 100 656.66666666667 100 830 C 100 1074.66666666667 205.33333333333 1197 416 1197 C 639.33333333333 1197 751 1091.33333333333 751 880 C 751 867.33333333333 750.66666666667 854 750 840 C 730 750 707 673.66666666667 681 611 C 654.33333333333 548.33333333333 641 478 641 400 C 654.33333333333 281.33333333333 723 203 847 165 C 841 191 838 216 838 240 C 838 308 863 366 913 414 Z"/>
    <path fill="#000000" stroke="none" transform="matrix(1 0 0 -1 28835 2600)" d="M 628 436 C 517.33333333333 362 462 286.66666666667 462 210 C 462 170.66666666667 477 151 507 151 C 535.66666666667 151 560.33333333333 179 581 235 C 601 291 616.66666666667 358 628 436 Z M 1200 1030 C 1117.33333333333 1030 1070.66666666667 963.33333333333 1060 830 C 1047.33333333333 658 959.33333333333 545 796 491 C 776 293.66666666667 738 162.66666666667 682 98 C 626 32.66666666667 567.66666666667 0 507 0 C 379.66666666667 0 312.66666666667 70 306 210 C 312.66666666667 350 400.66666666667 467.33333333333 570 562 L 645 606 C 655 670.66666666667 660 752 660 850 C 660 970 595 1030 465 1030 C 335 1030 270 963.33333333333 270 830 C 270 728.66666666667 316.66666666667 664.33333333333 410 637 L 357 525 C 185.66666666667 555 100 656.66666666667 100 830 C 100 1076.66666666667 220 1200 460 1200 C 700 1200 820 1083.33333333333 820 850 C 820 782.66666666667 819 725 817 677 C 859 695 886.66666666667 746 900 830 C 901.33333333333 1076.66666666667 1001.33333333333 1200 1200 1200 C 1382 1200 1473 1090 1473 870 C 1473 758 1434.66666666667 665 1358 591 C 1281.33333333333 517 1243 430 1243 330 C 1253.66666666667 210 1319.66666666667 150 1441 150 C 1562.33333333333 150 1623 220.66666666667 1623 362 C 1545 369.33333333333 1497.66666666667 407 1481 475 C 1477.66666666667 489 1476 502 1476 514 C 1476 559.33333333333 1501.66666666667 588.33333333333 1553 601 C 1570.33333333333 605 1586.66666666667 607 1602 607 C 1641.33333333333 607 1671 592.33333333333 1691 563 C 1721 578.33333333333 1736 599 1736 625 C 1736 640.33333333333 1730.66666666667 657.66666666667 1720 677 C 1690.66666666667 728.33333333333 1676 797.33333333333 1676 884 C 1676 1094.66666666667 1792.66666666667 1200 2026 1200 C 2246 1200 2356 1094.66666666667 2356 884 C 2356 784 2302.33333333333 705.33333333333 2195 648 L 2140 754 C 2184 779.33333333333 2206 822.66666666667 2206 884 C 2206 981.33333333333 2144.33333333333 1030 2021 1030 C 1897.66666666667 1030 1836 981.33333333333 1836 884 C 1836 832 1855.33333333333 761.33333333333 1894 672 C 1906 642.66666666667 1912 614.33333333333 1912 587 C 1912 531 1885 479 1831 431 L 1773 402 L 1773 362 C 1773 120.66666666667 1660 0 1434 0 C 1208 0 1094.33333333333 110 1093 330 C 1093 467.33333333333 1131.33333333333 573.66666666667 1208 649 C 1284.66666666667 724.33333333333 1323 798 1323 870 C 1323 976.66666666667 1282 1030 1200 1030 Z"/>
    <path fill="#000000" stroke="none" transform="matrix(1 0 0 -1 31291 2600)" d="M 466 1030 C 322 1030 250 963.33333333333 250 830 C 250 798.66666666667 252.33333333333 783 257 783 C 259 783 261 784.66666666667 263 788 C 271 800 283.33333333333 809.66666666667 300 817 C 316.66666666667 824.33333333333 335.66666666667 828 357 828 C 377.66666666667 828 398 822.66666666667 418 812 C 438 801.33333333333 453.66666666667 786 465 766 C 476.33333333333 746 482 725 482 703 C 482 681 476.66666666667 660.33333333333 466 641 C 454.66666666667 621 439 605.66666666667 419 595 C 399 583.66666666667 378.33333333333 578 357 578 C 185.66666666667 578 100 662 100 830 C 100 1076.66666666667 223.33333333333 1200 470 1200 C 716.66666666667 1200 840 1093.33333333333 840 880 C 840 867.33333333333 839.66666666667 854 839 840 C 819 750 796 673.66666666667 770 611 C 743.33333333333 548.33333333333 730 478 730 400 C 743.33333333333 281.33333333333 812 203 936 165 C 930 191 927 216 927 240 C 927 310.66666666667 953.66666666667 370.33333333333 1007 419 C 1078.33333333333 483.66666666667 1114 544 1114 600 C 1114 653.33333333333 1098.33333333333 704 1067 752 C 1035.66666666667 800 1020 857.33333333333 1020 924 C 1020 1108 1135 1200 1365 1200 C 1595 1200 1710 1094.66666666667 1710 884 C 1710 784 1657.66666666667 707.66666666667 1553 655 L 1490 746 C 1536.66666666667 776.66666666667 1560 822.66666666667 1560 884 C 1560 981.33333333333 1495 1030 1365 1030 C 1235 1030 1170 994.66666666667 1170 924 C 1170 878.66666666667 1185.66666666667 831.66666666667 1217 783 C 1248.33333333333 734.33333333333 1264 673.33333333333 1264 600 C 1264 514.66666666667 1234.66666666667 443.66666666667 1176 387 C 1117.33333333333 329.66666666667 1088 275 1088 223 C 1088 152.33333333333 1097 108.66666666667 1115 92 L 1064 0 C 748 46.66666666667 583.33333333333 180 570 400 C 570 475.33333333333 583.33333333333 546 610 612 C 636 678 659 754 679 840 C 680.33333333333 850.66666666667 681 861 681 871 C 681 977 609.33333333333 1030 466 1030 Z"/>
    <path fill="#000000" stroke="none" transform="matrix(1 0 0 -1 33101 2600)" d="M 1328 436 C 1217.33333333333 362 1162 286.66666666667 1162 210 C 1162 170.66666666667 1177 151 1207 151 C 1235.66666666667 151 1260.33333333333 179 1281 235 C 1301 291 1316.66666666667 358 1328 436 Z M 1325 43 C 1225 -69 1175 -150 1175 -200 C 1175 -240 1208.66666666667 -260 1276 -260 C 1350 -260 1399.33333333333 -223.33333333333 1424 -150 C 1462 -50 1538.33333333333 0 1653 0 C 1781 0 1845 -54.66666666667 1845 -164 C 1845 -233.33333333333 1800.66666666667 -310 1712 -394 L 1612 -326 C 1674 -260.66666666667 1705 -210 1705 -174 C 1705 -138 1687.66666666667 -120 1653 -120 C 1597.66666666667 -120 1563.33333333333 -143 1550 -189 C 1498 -329.66666666667 1406.66666666667 -400 1276 -400 C 1108.66666666667 -400 1025 -333.33333333333 1025 -200 C 1025 -128 1056.33333333333 -55.33333333333 1119 18 C 1042.33333333333 -8 993 -36.33333333333 971 -67 C 944.33333333333 -103.66666666667 931 -156.33333333333 931 -225 C 931 -293.66666666667 913.66666666667 -340 879 -364 C 843.66666666667 -388 811.66666666667 -400 783 -400 C 755 -400 732.66666666667 -398 716 -394 L 700 -294 C 736.66666666667 -281.33333333333 761 -262 773 -236 C 784.33333333333 -210 790 -174 790 -128 C 790 -82.66666666667 806.66666666667 -37.33333333333 840 8 C 870 48.66666666667 930.66666666667 85 1022 117 C 1012.66666666667 143.66666666667 1007.33333333333 174.66666666667 1006 210 C 1012.66666666667 350 1100.66666666667 467.33333333333 1270 562 L 1345 606 C 1355 670.66666666667 1360 735.33333333333 1360 800 C 1360 953.33333333333 1298 1030 1174 1030 C 1092.66666666667 1030 1019.66666666667 1010 955 970 C 923 950 877.66666666667 940 819 940 C 761.66666666667 940 717 950 685 970 C 620.33333333333 1010 550 1030 474 1030 C 331.33333333333 1030 260 895.66666666667 260 627 C 260 517 276.33333333333 419.66666666667 309 335 C 341.66666666667 250.33333333333 388.66666666667 194.33333333333 450 167 L 449 173 C 455.66666666667 207 468 229 486 239 C 503.33333333333 248.33333333333 521.66666666667 255 541 259 C 547.66666666667 260.33333333333 554.66666666667 261 562 261 C 574 261 586.66666666667 259 600 255 C 620 247.66666666667 637 235.33333333333 651 218 C 664.33333333333 200.66666666667 673 181 677 159 C 678.33333333333 151 679 143 679 135 C 679 121 677 106 673 90 C 665.66666666667 65.33333333333 654 45.66666666667 638 31 C 622 16.33333333333 604 7 584 3 C 561.33333333333 0.33333333333 539.33333333333 -1 518 -1 C 371.33333333333 -1 260.66666666667 76 186 230 C 128.66666666667 348.66666666667 100 481 100 627 C 100 981.66666666667 207.66666666667 1171.33333333333 423 1196 C 439.66666666667 1198.66666666667 453.33333333333 1200 464 1200 C 555.33333333333 1200 637.66666666667 1176.66666666667 711 1130 C 747 1106.66666666667 783 1095 819 1095 C 855.66666666667 1095 892.33333333333 1106.66666666667 929 1130 C 1002.33333333333 1176.66666666667 1084 1200 1174 1200 C 1404.66666666667 1200 1520 1066.66666666667 1520 800 C 1520 766 1519 725 1517 677 C 1559 695 1586.66666666667 746 1600 830 C 1601.33333333333 1076.66666666667 1718 1200 1950 1200 C 2183.33333333333 1200 2300 1090 2300 870 C 2300 764.66666666667 2232.33333333333 670.33333333333 2097 587 L 2018 685 C 2099.33333333333 729.66666666667 2140 791.33333333333 2140 870 C 2140 976.66666666667 2076.66666666667 1030 1950 1030 C 1834 1030 1770.66666666667 963.33333333333 1760 830 C 1747.33333333333 658 1659.33333333333 545 1496 491 C 1476 293.66666666667 1438 162.66666666667 1382 98 C 1363.33333333333 76 1344.33333333333 57.66666666667 1325 43 Z"/>
    <path fill="#000000" stroke="none" transform="matrix(1 0 0 -1 36070 2600)" d="M 797 11 C 693 -70.33333333333 641 -140.66666666667 641 -200 C 641 -240 674.66666666667 -260 742 -260 C 816 -260 865.33333333333 -223.33333333333 890 -150 C 928 -50 1004.33333333333 0 1119 0 C 1247 0 1311 -54.66666666667 1311 -164 C 1311 -233.33333333333 1266.66666666667 -310 1178 -394 L 1078 -326 C 1140 -260.66666666667 1171 -210 1171 -174 C 1171 -138 1153.66666666667 -120 1119 -120 C 1063.66666666667 -120 1029.33333333333 -143 1016 -189 C 964 -329.66666666667 872.66666666667 -400 742 -400 C 574.66666666667 -400 491 -333.33333333333 491 -200 C 491 -103.33333333333 547.66666666667 -5 661 95 C 690.33333333333 144.33333333333 712.66666666667 198.33333333333 728 257 C 732 272.33333333333 734 287.33333333333 734 302 C 734 388.66666666667 662.33333333333 458.33333333333 519 511 L 515 610 C 515 610.66666666667 515.33333333333 611.33333333333 516 612 C 612 678 660 757.33333333333 660 850 C 660 970 595 1030 465 1030 C 335 1030 270 963.33333333333 270 830 C 270 728.66666666667 316.66666666667 664.33333333333 410 637 L 357 525 C 185.66666666667 555 100 656.66666666667 100 830 C 100 1076.66666666667 220 1200 460 1200 C 700 1200 820 1083.33333333333 820 850 C 820 753.33333333333 784.66666666667 662.33333333333 714 577 C 836.66666666667 519 898 443 898 349 C 898 305.66666666667 893 263.33333333333 883 222 C 1074.33333333333 331.33333333333 1170 557.33333333333 1170 900 L 1170 909 C 1154 903 1134 900 1110 900 C 1084 900 1062.66666666667 915.33333333333 1046 946 C 1028.66666666667 976 1020 1010.66666666667 1020 1050 C 1020 1076 1026.66666666667 1101 1040 1125 C 1053.33333333333 1149 1072 1167.66666666667 1096 1181 C 1120 1193.66666666667 1144.66666666667 1200 1170 1200 C 1208.66666666667 1200 1241 1190.66666666667 1267 1172 C 1292.33333333333 1153.33333333333 1309.33333333333 1130.33333333333 1318 1103 C 1353.33333333333 1127.66666666667 1375 1144.66666666667 1383 1154 C 1399.66666666667 1170.66666666667 1415.33333333333 1186 1430 1200 L 1460 1049 C 1419.33333333333 1011.66666666667 1376 978 1330 948 L 1330 900 C 1330 418 1152.33333333333 121.66666666667 797 11 Z"/>
    <path fill="#000000" stroke="none" transform="matrix(1 0 0 -1 37530 2600)" d="M -150 300 C -150 274 -143.33333333333 249.33333333333 -130 226 C -116.66666666667 202 -98 183.33333333333 -74 170 C -50.66666666667 156.66666666667 -26 150 0 150 C 26 150 51 156.66666666667 75 170 C 98.33333333333 183.33333333333 116.66666666667 202 130 226 C 143.33333333333 249.33333333333 150 274 150 300 C 150 326 143.33333333333 351 130 375 C 116.66666666667 399 98 417.66666666667 74 431 C 50 443.66666666667 25.33333333333 450 0 450 C -25.33333333333 450 -49.66666666667 443.66666666667 -73 431 C -97 417.66666666667 -115.66666666667 399 -129 375 C -143 351 -150 326 -150 300 Z M 760 300 C 760 274 766.66666666667 249.33333333333 780 226 C 793.33333333333 202 812 183.33333333333 836 170 C 859.33333333333 156.66666666667 884 150 910 150 C 936 150 961 156.66666666667 985 170 C 1008.33333333333 183.33333333333 1026.66666666667 202 1040 226 C 1053.33333333333 249.33333333333 1060 274 1060 300 C 1060 326 1053.33333333333 351 1040 375 C 1026.66666666667 399 1008 417.66666666667 984 431 C 960 443.66666666667 935.33333333333 450 910 450 C 884.66666666667 450 860.33333333333 443.66666666667 837 431 C 813 417.66666666667 794.33333333333 399 781 375 C 767 351 760 326 760 300 Z M 991 834 C 991 732.66666666667 964 654.66666666667 910 600 C 960 600 1009 587.33333333333 1057 562 C 1105 536 1142.66666666667 499 1170 451 C 1196.66666666667 402.33333333333 1210 352 1210 300 C 1210 248 1197 198.33333333333 1171 151 C 1267 188.33333333333 1315 291.33333333333 1315 460 C 1315 533.33333333333 1294.33333333333 600.66666666667 1253 662 C 1211.66666666667 723.33333333333 1191 797.33333333333 1191 884 C 1191 1094.66666666667 1306 1200 1536 1200 C 1766 1200 1881 1094.66666666667 1881 884 C 1881 784 1828.66666666667 707.66666666667 1724 655 L 1661 746 C 1707.66666666667 776.66666666667 1731 822.66666666667 1731 884 C 1731 981.33333333333 1666 1030 1536 1030 C 1406 1030 1341 981.33333333333 1341 884 C 1341 832 1361.66666666667 771.66666666667 1403 703 C 1444.33333333333 634.33333333333 1465 553.33333333333 1465 460 C 1465 153.33333333333 1315 0 1015 0 L 910 0 C 858 0 808.33333333333 13.33333333333 761 40 C 713 66 676 103 650 151 C 623.33333333333 198.33333333333 610 248 610 300 C 610 352 623.66666666667 402.33333333333 651 451 C 673.66666666667 491.66666666667 704 524.33333333333 742 549 C 808 661 841 756 841 834 C 841 964.66666666667 771 1030 631 1030 C 491 1030 421 981.33333333333 421 884 C 421 832 438.33333333333 768.33333333333 473 693 C 507.66666666667 617.66666666667 525 540 525 460 C 525 153.33333333333 385 0 105 0 L 0 0 C -52 0 -101.66666666667 13.33333333333 -149 40 C -197 66 -234 103 -260 151 C -286.66666666667 198.33333333333 -300 248 -300 300 C -300 352 -286.33333333333 402.33333333333 -259 451 C -232.33333333333 499 -195 536 -147 562 C -99.66666666667 587.33333333333 -50.66666666667 600 0 600 C 50 600 99 587.33333333333 147 562 C 195 536 232.66666666667 499 260 451 C 286.66666666667 402.33333333333 300 352 300 300 C 300 248 287 198.33333333333 261 151 C 337 201.66666666667 375 304.66666666667 375 460 C 375 533.33333333333 357.66666666667 604 323 672 C 288.33333333333 740 271 810.66666666667 271 884 C 271 1094.66666666667 391 1200 631 1200 C 871 1200 991 1078 991 834 Z"/>
    <path fill="#000000" stroke="none" transform="matrix(1 0 0 -1 39511 2600)" d="M 628 436 C 517.33333333333 362 462 286.66666666667 462 210 C 462 170.66666666667 477 151 507 151 C 535.66666666667 151 560.33333333333 179 581 235 C 601 291 616.66666666667 358 628 436 Z M 820 800 C 820 766 819 725 817 677 C 859 695 886.66666666667 746 900 830 C 901.33333333333 1076.66666666667 1018 1200 1250 1200 C 1483.33333333333 1200 1600 1033.33333333333 1600 700 C 1600 392.66666666667 1439.66666666667 125.66666666667 1119 -101 L 1034 7 C 1304.66666666667 212.33333333333 1440 443.33333333333 1440 700 C 1440 920 1376.66666666667 1030 1250 1030 C 1134 1030 1070.66666666667 963.33333333333 1060 830 C 1047.33333333333 658 959.33333333333 545 796 491 C 776 293.66666666667 738 162.66666666667 682 98 C 626 32.66666666667 567.66666666667 0 507 0 C 379.66666666667 0 312.66666666667 70 306 210 C 312.66666666667 350 400.66666666667 467.33333333333 570 562 L 645 606 C 655 670.66666666667 660 735.33333333333 660 800 C 660 953.33333333333 595 1030 465 1030 C 335 1030 270 963.33333333333 270 830 C 270 728.66666666667 316.66666666667 664.33333333333 410 637 L 357 525 C 185.66666666667 555 100 656.66666666667 100 830 C 100 1076.66666666667 220 1200 460 1200 C 700 1200 820 1066.66666666667 820 800 Z"/>
    <path fill="#000000" stroke="none" transform="matrix(1 0 0 -1 41211 2600)" d="M 425 1029 C 315 1019.66666666667 260 953.33333333333 260 830 C 260 715.33333333333 292 644.66666666667 356 618 L 278 523 C 159.33333333333 554.33333333333 100 656.66666666667 100 830 C 100 1074.66666666667 205.33333333333 1197 416 1197 C 639.33333333333 1197 751 1091.33333333333 751 880 C 751 867.33333333333 750.66666666667 854 750 840 C 730 750 707 673.66666666667 681 611 C 654.33333333333 548.33333333333 641 478 641 400 C 654.33333333333 281.33333333333 739.66666666667 203 897 165 C 883.66666666667 201.66666666667 877 236.33333333333 877 269 C 877 319 914 384.33333333333 988 465 C 1061.33333333333 545.66666666667 1098 600.33333333333 1098 629 C 1098 652.33333333333 1093.33333333333 676.33333333333 1084 701 C 988 708.33333333333 940 749.66666666667 940 825 C 940 908.33333333333 981.66666666667 950 1065 950 C 1121.66666666667 950 1159 923 1177 869 C 1185.66666666667 901 1190 944.66666666667 1190 1000 C 1190 1094 1147.66666666667 1182.33333333333 1063 1265 C 978.33333333333 1347.66666666667 936 1437.33333333333 936 1534 C 936 1744.66666666667 1046 1850 1266 1850 C 1486 1850 1596 1744.66666666667 1596 1534 C 1596 1434 1555 1349.33333333333 1473 1280 L 1375 1328 C 1415.66666666667 1377.33333333333 1436 1446 1436 1534 C 1436 1631.33333333333 1379.33333333333 1680 1266 1680 C 1152.66666666667 1680 1096 1631.33333333333 1096 1534 C 1096 1461.33333333333 1138.33333333333 1382 1223 1296 C 1307.66666666667 1210 1350 1111.33333333333 1350 1000 C 1350 846.66666666667 1315.66666666667 752 1247 716 C 1257.66666666667 677.33333333333 1263 641 1263 607 C 1263 530.33333333333 1227.33333333333 463.66666666667 1156 407 C 1084.66666666667 349.66666666667 1049 271.66666666667 1049 173 C 1049 135.66666666667 1058 108.66666666667 1076 92 L 1025 0 C 675.66666666667 46.66666666667 494.33333333333 180 481 400 C 481 475.33333333333 494.33333333333 546 521 612 C 547 678 570 754 590 840 C 591.33333333333 850.66666666667 592 861 592 871 C 592 969 536.33333333333 1021.66666666667 425 1029 Z"/>
    <path fill="#000000" stroke="none" transform="matrix(1 0 0 -1 42807 2600)" d="M 1600 800 C 1600 666 1550.66666666667 543.66666666667 1452 433 L 1350 522 C 1410 597.33333333333 1440 690 1440 800 C 1440 953.33333333333 1352.33333333333 1030 1177 1030 C 1007.66666666667 1030 901.66666666667 963.33333333333 859 830 L 767 830 C 732.33333333333 963.33333333333 641 1030 493 1030 C 337.66666666667 1030 260 895.66666666667 260 627 C 260 517 276.33333333333 419.66666666667 309 335 C 341.66666666667 250.33333333333 388.66666666667 194.33333333333 450 167 L 449 173 C 455.66666666667 207 468 229 486 239 C 503.33333333333 248.33333333333 521.66666666667 255 541 259 C 547.66666666667 260.33333333333 554.66666666667 261 562 261 C 574 261 586.66666666667 259 600 255 C 620 247.66666666667 637 235.33333333333 651 218 C 664.33333333333 200.66666666667 673 181 677 159 C 678.33333333333 151 679 143 679 135 C 679 121 677 106 673 90 C 665.66666666667 65.33333333333 654 45.66666666667 638 31 C 622 16.33333333333 604 7 584 3 C 561.33333333333 0.33333333333 539.33333333333 -1 518 -1 C 371.33333333333 -1 260.66666666667 76 186 230 C 128.66666666667 348.66666666667 100 481 100 627 C 100 1009 225.66666666667 1200 477 1200 C 647 1200 761.33333333333 1140.33333333333 820 1021 C 880.66666666667 1140.33333333333 1003 1200 1187 1200 C 1462.33333333333 1200 1600 1066.66666666667 1600 800 Z"/>
    <path fill="#000000" stroke="none" transform="matrix(1 0 0 -1 44507 2600)" d="M 628 436 C 517.33333333333 362 462 286.66666666667 462 210 C 462 170.66666666667 477 151 507 151 C 535.66666666667 151 560.33333333333 179 581 235 C 601 291 616.66666666667 358 628 436 Z M 788 428 C 768.66666666667 267.33333333333 733.33333333333 157.33333333333 682 98 C 626 32.66666666667 567.66666666667 0 507 0 C 379.66666666667 0 312.66666666667 70 306 210 C 312.66666666667 350 400.66666666667 467.33333333333 570 562 L 645 606 C 655 670.66666666667 660 735.33333333333 660 800 C 660 953.33333333333 595 1030 465 1030 C 335 1030 270 963.33333333333 270 830 C 270 728.66666666667 316.66666666667 664.33333333333 410 637 L 357 525 C 185.66666666667 555 100 656.66666666667 100 830 C 100 1076.66666666667 220 1200 460 1200 C 700 1200 820 1066.66666666667 820 800 C 820 774 814.66666666667 703.33333333333 804 588 C 846.66666666667 580 883.33333333333 558.66666666667 914 524 C 952 480.66666666667 981.66666666667 432.33333333333 1003 379 C 1017 405 1024 425 1024 439 C 1024 469 1016.66666666667 499 1002 529 C 974 593.66666666667 960 680.66666666667 960 790 C 960 1063.33333333333 1076.66666666667 1200 1310 1200 C 1543.33333333333 1200 1660 1033.33333333333 1660 700 C 1660 392.66666666667 1499.66666666667 125.66666666667 1179 -101 L 1094 7 C 1358 212.33333333333 1490 443.33333333333 1490 700 C 1490 920 1430 1030 1310 1030 C 1183.33333333333 1030 1120 950 1120 790 C 1120 682 1128 609.66666666667 1144 573 C 1162 526.33333333333 1171 484.66666666667 1171 448 C 1171 434 1170 421 1168 409 C 1150.66666666667 325.66666666667 1100 253.33333333333 1016 192 L 919 241 C 896.33333333333 319.66666666667 852.66666666667 382 788 428 Z"/>
    <path fill="#000000" stroke="none" transform="matrix(1 0 0 -1 46836 2600)" d="M 1328 436 C 1217.33333333333 362 1162 286.66666666667 1162 210 C 1162 170.66666666667 1177 151 1207 151 C 1235.66666666667 151 1260.33333333333 179 1281 235 C 1301 291 1316.66666666667 358 1328 436 Z M 260 627 C 260 517 276.33333333333 419.66666666667 309 335 C 341.66666666667 250.33333333333 388.66666666667 194.33333333333 450 167 L 449 173 C 455.66666666667 207 468 229 486 239 C 503.33333333333 248.33333333333 521.66666666667 255 541 259 C 547.66666666667 260.33333333333 554.66666666667 261 562 261 C 574 261 586.66666666667 259 600 255 C 620 247.66666666667 637 235.33333333333 651 218 C 664.33333333333 200.66666666667 673 181 677 159 C 678.33333333333 151 679 143 679 135 C 679 121 677 106 673 90 C 665.66666666667 65.33333333333 654 45.66666666667 638 31 C 622 16.33333333333 604 7 584 3 C 561.33333333333 0.33333333333 539.33333333333 -1 518 -1 C 371.33333333333 -1 260.66666666667 76 186 230 C 128.66666666667 348.66666666667 100 481 100 627 C 100 981.66666666667 207.66666666667 1171.33333333333 423 1196 C 439.66666666667 1198.66666666667 453.33333333333 1200 464 1200 C 555.33333333333 1200 637.66666666667 1176.66666666667 711 1130 C 747 1106.66666666667 783 1095 819 1095 C 855.66666666667 1095 892.33333333333 1106.66666666667 929 1130 C 1002.33333333333 1176.66666666667 1084 1200 1174 1200 C 1404.66666666667 1200 1520 1066.66666666667 1520 800 C 1520 766 1519 725 1517 677 C 1559 695 1586.66666666667 746 1600 830 C 1601.33333333333 1076.66666666667 1718 1200 1950 1200 C 2183.33333333333 1200 2300 1090 2300 870 C 2300 764.66666666667 2232.33333333333 670.33333333333 2097 587 L 2018 685 C 2099.33333333333 729.66666666667 2140 791.33333333333 2140 870 C 2140 976.66666666667 2076.66666666667 1030 1950 1030 C 1834 1030 1770.66666666667 963.33333333333 1760 830 C 1747.33333333333 658 1659.33333333333 545 1496 491 C 1476 293.66666666667 1438 162.66666666667 1382 98 C 1326 32.66666666667 1267.66666666667 0 1207 0 C 1079.66666666667 0 1012.66666666667 70 1006 210 C 1012.66666666667 350 1100.66666666667 467.33333333333 1270 562 L 1345 606 C 1355 670.66666666667 1360 735.33333333333 1360 800 C 1360 953.33333333333 1298 1030 1174 1030 C 1092.66666666667 1030 1019.66666666667 1010 955 970 C 923 950 877.66666666667 940 819 940 C 761.66666666667 940 717 950 685 970 C 620.33333333333 1010 550 1030 474 1030 C 331.33333333333 1030 260 895.66666666667 260 627 Z"/>
    <path fill="#000000" stroke="none" transform="matrix(1 0 0 -1 49236 2600)" d="M -150 300 C -150 274 -143.33333333333 249.33333333333 -130 226 C -116.66666666667 202 -98 183.33333333333 -74 170 C -50.66666666667 156.66666666667 -26 150 0 150 C 26 150 51 156.66666666667 75 170 C 98.33333333333 183.33333333333 116.66666666667 202 130 226 C 143.33333333333 249.33333333333 150 274 150 300 C 150 326 143.33333333333 351 130 375 C 116.66666666667 399 98 417.66666666667 74 431 C 50 443.66666666667 25.33333333333 450 0 450 C -25.33333333333 450 -49.66666666667 443.66666666667 -73 431 C -97 417.66666666667 -115.66666666667 399 -129 375 C -143 351 -150 326 -150 300 Z M 381 824 C 381 785.33333333333 403.33333333333 728.33333333333 448 653 C 492.66666666667 577.66666666667 515 500 515 420 C 515 140 378.33333333333 0 105 0 L 0 0 C -52 0 -101.66666666667 13.33333333333 -149 40 C -197 66 -234 103 -260 151 C -286.66666666667 198.33333333333 -300 248 -300 300 C -300 352 -286.33333333333 402.33333333333 -259 451 C -232.33333333333 499 -195 536 -147 562 C -99.66666666667 587.33333333333 -50.66666666667 600 0 600 C 50 600 99 587.33333333333 147 562 C 195 536 232.66666666667 499 260 451 C 286.66666666667 402.33333333333 300 352 300 300 C 300 261.33333333333 293.66666666667 225 281 191 C 337 215 365 291.33333333333 365 420 C 365 493.33333333333 341 564 293 632 C 245 700 221 764 221 824 C 221 1074.66666666667 343.33333333333 1200 588 1200 C 758 1200 872.33333333333 1140.33333333333 931 1021 C 991.66666666667 1140.33333333333 1107.33333333333 1200 1278 1200 C 1540 1200 1671 1066.66666666667 1671 800 C 1671 626 1600 496 1458 410 L 1383 520 C 1468.33333333333 583.33333333333 1511 676.66666666667 1511 800 C 1511 953.33333333333 1430 1030 1268 1030 C 1112 1030 1012.66666666667 963.33333333333 970 830 L 878 830 C 843.33333333333 963.33333333333 752 1030 604 1030 C 455.33333333333 1030 381 961.33333333333 381 824 Z"/>
    <path fill="#000000" stroke="none" transform="matrix(1 0 0 -1 51007 2600)" d="M 1225 396 C 1225 230 1082.33333333333 101.66666666667 797 11 L 773 0 L 661 95 C 690.33333333333 144.33333333333 712.66666666667 198.33333333333 728 257 C 732 272.33333333333 734 287.33333333333 734 302 C 734 388.66666666667 662.33333333333 458.33333333333 519 511 L 515 610 C 515 610.66666666667 515.33333333333 611.33333333333 516 612 C 612 678 660 757.33333333333 660 850 C 660 970 595 1030 465 1030 C 335 1030 270 963.33333333333 270 830 C 270 728.66666666667 316.66666666667 664.33333333333 410 637 L 357 525 C 185.66666666667 555 100 656.66666666667 100 830 C 100 1076.66666666667 220 1200 460 1200 C 700 1200 820 1083.33333333333 820 850 C 820 753.33333333333 784.66666666667 662.33333333333 714 577 C 823.33333333333 519 878 433 878 319 C 878 262.33333333333 869.66666666667 223.33333333333 853 202 C 991.66666666667 261.33333333333 1061 326 1061 396 C 1061 465.33333333333 1049.33333333333 531.66666666667 1026 595 C 1002 658.33333333333 990 726.66666666667 990 800 C 990 1066.66666666667 1115.66666666667 1200 1367 1200 C 1537 1200 1651.33333333333 1140.33333333333 1710 1021 C 1770.66666666667 1140.33333333333 1893 1200 2077 1200 C 2345.66666666667 1200 2480 1066.66666666667 2480 800 C 2480 626 2409 496 2267 410 L 2192 520 C 2277.33333333333 583.33333333333 2320 676.66666666667 2320 800 C 2320 953.33333333333 2235.66666666667 1030 2067 1030 C 1897.66666666667 1030 1791.66666666667 963.33333333333 1749 830 L 1657 830 C 1622.33333333333 963.33333333333 1531 1030 1383 1030 C 1227.66666666667 1030 1150 953.33333333333 1150 800 C 1150 732 1162.66666666667 661.33333333333 1188 588 C 1212.66666666667 514.66666666667 1225 450.66666666667 1225 396 Z"/>
    <path fill="#000000" stroke="none" transform="matrix(1 0 0 -1 53587 2600)" d="M 100 750 C 100 1022.66666666667 213.66666666667 1171.33333333333 441 1196 C 459 1198.66666666667 473.66666666667 1200 485 1200 C 581 1200 667.66666666667 1176.66666666667 745 1130 C 783 1106.66666666667 821.33333333333 1095 860 1095 C 898.66666666667 1095 937.33333333333 1106.66666666667 976 1130 C 1053.33333333333 1176.66666666667 1139.66666666667 1200 1235 1200 C 1478.33333333333 1200 1600 1064.33333333333 1600 793 C 1600 521.66666666667 1435.33333333333 315 1106 173 C 775.33333333333 27.66666666667 610 -96.66666666667 610 -200 C 610 -293.33333333333 632 -340 676 -340 C 754 -340 834 -281.66666666667 916 -165 C 997.33333333333 -48.33333333333 1083 10 1173 10 C 1283 10 1344.33333333333 -36 1357 -128 C 1360.33333333333 -153.33333333333 1362 -177.33333333333 1362 -200 C 1362 -293.33333333333 1330.66666666667 -385.66666666667 1268 -477 L 1144 -429 C 1190.66666666667 -360.33333333333 1214.33333333333 -296.66666666667 1215 -238 L 1215 -236 C 1215 -191.33333333333 1194 -169 1152 -169 C 1147.33333333333 -169 1142.33333333333 -169.33333333333 1137 -170 C 1091 -176.66666666667 1033.66666666667 -233.33333333333 965 -340 C 895.66666666667 -446.66666666667 799.33333333333 -500 676 -500 C 526.66666666667 -500 452 -400 452 -200 C 452 0.66666666667 658.66666666667 179 1072 335 C 1312.66666666667 452.33333333333 1433 599.33333333333 1433 776 C 1433 945.33333333333 1367 1030 1235 1030 C 1149 1030 1071.66666666667 1010 1003 970 C 969 950 921.33333333333 940 860 940 C 799.33333333333 940 752 950 718 970 C 649.33333333333 1010 575 1030 495 1030 C 345 1030 270 936.66666666667 270 750 C 270 595.33333333333 293.66666666667 511.66666666667 341 499 C 356.33333333333 523 371.33333333333 537.66666666667 386 543 C 400.66666666667 547.66666666667 418.66666666667 550 440 550 C 460.66666666667 550 481 544.66666666667 501 534 C 521 523.33333333333 536.66666666667 508 548 488 C 559.33333333333 468 565 447 565 425 C 565 403 559.66666666667 382.33333333333 549 363 C 537.66666666667 343 522 327.66666666667 502 317 C 482 305.66666666667 461.33333333333 300 440 300 C 213.33333333333 300 100 450 100 750 Z"/>
    <path fill="#000000" stroke="none" transform="matrix(1 0 0 -1 55287 2600)" d="M 1087 387 C 1028.33333333333 329.66666666667 999 275 999 223 C 999 152.33333333333 1008 108.66666666667 1026 92 L 975 0 C 659 46.66666666667 494.33333333333 180 481 400 C 481 475.33333333333 494.33333333333 546 521 612 C 547 678 570 754 590 840 C 591.33333333333 850.66666666667 592 861 592 871 C 592 969 536.33333333333 1021.66666666667 425 1029 C 315 1019.66666666667 260 953.33333333333 260 830 C 260 715.33333333333 292 644.66666666667 356 618 L 278 523 C 159.33333333333 554.33333333333 100 656.66666666667 100 830 C 100 1074.66666666667 205.33333333333 1197 416 1197 C 639.33333333333 1197 751 1091.33333333333 751 880 C 751 867.33333333333 750.66666666667 854 750 840 C 730 750 707 673.66666666667 681 611 C 654.33333333333 548.33333333333 641 478 641 400 C 654.33333333333 281.33333333333 723 203 847 165 C 841 191 838 216 838 240 C 838 310.66666666667 864.66666666667 370.33333333333 918 419 C 989.33333333333 483.66666666667 1025 544 1025 600 C 1025 653.33333333333 1009.33333333333 704 978 752 C 946.66666666667 800 931 857.33333333333 931 924 C 931 1108 1046 1200 1276 1200 C 1506 1200 1621 1094.66666666667 1621 884 C 1621 784 1568.66666666667 707.66666666667 1464 655 L 1401 746 C 1447.66666666667 776.66666666667 1471 822.66666666667 1471 884 C 1471 981.33333333333 1406 1030 1276 1030 C 1146 1030 1081 994.66666666667 1081 924 C 1081 878.66666666667 1096.66666666667 831.66666666667 1128 783 C 1159.33333333333 734.33333333333 1175 673.33333333333 1175 600 C 1175 514.66666666667 1145.66666666667 443.66666666667 1087 387 Z"/>
    <path fill="#000000" stroke="none" transform="matrix(1 0 0 -1 57008 2600)" d="M 493 1030 C 337.66666666667 1030 260 953.33333333333 260 800 C 260 718.66666666667 277 623 311 513 C 327 449.66666666667 335 389.66666666667 335 333 C 335 290.33333333333 330.66666666667 249.66666666667 322 211 C 301.33333333333 119.66666666667 253.66666666667 41.33333333333 179 -24 L 77 18 C 139.66666666667 133.33333333333 171 239.33333333333 171 336 C 171 432 159.33333333333 515 136 585 C 112 655 100 726.66666666667 100 800 C 100 1066.66666666667 225.66666666667 1200 477 1200 C 647 1200 761.33333333333 1140.33333333333 820 1021 C 880.66666666667 1140.33333333333 1003 1200 1187 1200 C 1462.33333333333 1200 1600 1066.66666666667 1600 800 C 1600 626 1529 496 1387 410 L 1312 520 C 1397.33333333333 583.33333333333 1440 676.66666666667 1440 800 C 1440 953.33333333333 1352.33333333333 1030 1177 1030 C 1007.66666666667 1030 901.66666666667 963.33333333333 859 830 L 767 830 C 732.33333333333 963.33333333333 641 1030 493 1030 Z"/>
</svg>
