<svg width="32155" height="3789" viewBox="0 0 32155 3789" xmlns="http://www.w3.org/2000/svg">
    <defs/>
    <g transform="matrix(1 0 0 -1 0 3789)">
        <g transform="matrix(1 0 0 1 0 1100)">
            <path fill="#000000" stroke="none" d="M 30 121 Q 196 246 307 404 Q 122 720 122 1087 Q 122 1340 197 1470 Q 272 1600 411 1600 Q 550 1600 625.5 1466.5 Q 701 1333 701 1087 Q 701 720 516 404 Q 630 243 793 121 L 704 -20 Q 538 92 411 252 Q 286 94 119 -20 L 30 121 Z M 515 1085 Q 515 1256 487.49997 1342.5 Q 460 1429 411 1429 Q 362 1429 335 1343 Q 308 1257 308 1085 Q 308 814 411 587 Q 515 817 515 1085 Z"/>
        </g>
        <g transform="matrix(1 0 0 1 823 1100)">
            <path fill="#000000" stroke="none" d="M 80 1099 Q 180 1118 301 1118 Q 494 1118 615 1007 Q 736 896 736 716 Q 736 578 653.5 474.5 Q 571 371 433 335 Q 481 248 585.5 199 Q 690 150 821 150 Q 880 150 952 162 L 976 -6 Q 901 -20 814 -20 Q 558 -20 394.5 106 Q 231 232 216 445 L 216 495 Q 278 490 311 490 Q 420 490 485 552.5 Q 550 615 550 716 Q 550 823 483.5 885.5 Q 417 948 299 948 Q 201 948 81 928 L 80 1099 Z"/>
        </g>
        <g transform="matrix(1 0 0 1 1859 1100)">
            <path fill="#000000" stroke="none" d="M 866 147 Q 1025 168 1112.5 276 Q 1200 384 1200 568 Q 1200 745 1112 846.5 Q 1024 948 871 948 Q 719 948 636 880 Q 553 812 553 686 Q 553 632 573 586 Q 593 540 625 509 L 648 485 L 538 367 Q 467 419 432 466 Q 366 458 326 416 Q 286 374 286 302 Q 286 238 333.5 198.5 Q 381 159 469 151 L 469 -20 Q 369 -20 283.5 21 Q 198 62 149 136 Q 100 210 100 302 Q 100 434 172.50002 518.5 Q 245 603 369 628 L 367 682 Q 367 809 428.5 908.5 Q 490 1008 605.5 1063 Q 721 1118 871 1118 Q 1106 1118 1246 968.5 Q 1386 819 1386 566 Q 1386 398 1322 268 Q 1258 138 1138.5 63.5 Q 1019 -11 866 -20 L 866 147 Z"/>
        </g>
        <g transform="matrix(1 0 0 1 3360 1100)">
            <path fill="#000000" stroke="none" d="M 715 -482 Q 452 -482 316 -324.5 Q 180 -167 180 141 L 180 1098 L 364 1098 L 364 141 Q 364 -79 454.49997 -195.49998 Q 545 -312 715 -312 L 715 -482 Z"/>
        </g>
        <g transform="matrix(1 0 0 1 4095 1100)">
            <path fill="#000000" stroke="none" d="M 397 518 Q 315 540 273 603 Q 231 666 231 787 L 231 825 Q 231 881 217 902.5 Q 203 924 171.5 936 Q 140 948 80 948 L 80 1118 Q 202 1118 274.5 1086.5 Q 347 1055 381 998 Q 415 941 415 825 L 415 787 Q 415 730 429.5 706.50006 Q 444 683 477 670.5 Q 510 658 566 658 L 676 658 L 676 488 Q 530 443 418 303.5 Q 306 164 277 0 L 93 0 Q 109 159 191 300 Q 273 441 397 518 Z"/>
        </g>
        <g transform="matrix(1 0 0 1 4791 1100)">
            <path fill="#000000" stroke="none" d="M 110 153 Q 330 160 445.5 349 Q 561 538 561 903 L 561 934 L 100 934 L 100 1098 L 745 1098 L 745 903 Q 745 615 667.5 401.5 Q 590 188 449 84 Q 308 -20 110 -20 L 110 153 Z"/>
        </g>
        <g transform="matrix(1 0 0 1 6198 1100)">
            <path fill="#000000" stroke="none" d="M 50 1098 L 826 1098 L 826 939 Q 624 812 506 555 Q 388 298 388 0 L 204 0 Q 204 248 309.5 507 Q 415 766 590 934 L 50 934 L 50 1098 Z"/>
        </g>
        <g transform="matrix(1 0 0 1 7074 1100)">
            <path fill="#000000" stroke="none" d="M 1078 546 Q 1078 374 1018.5 245 Q 959 116 851.5 48 Q 744 -20 602 -20 Q 462 -20 355 48 Q 248 116 189 244.50002 Q 130 373 130 546 Q 130 713 187 843.5 Q 244 974 352.5 1046 Q 461 1118 606 1118 Q 751 1118 858 1045.5 Q 965 973 1021.49994 842.5 Q 1078 712 1078 546 Z M 892 548 Q 892 666 856 757.5 Q 820 849 755.5 898.50006 Q 691 948 613 948 Q 478 948 397 838 Q 316 728 316 548 Q 316 428 353 337 Q 390 246 455 198 Q 520 150 604 150 Q 687 150 752.5 198.5 Q 818 247 855 338 Q 892 429 892 548 Z"/>
        </g>
        <g transform="matrix(1 0 0 1 8282 1100)">
            <path fill="#000000" stroke="none" d="M 100 1112 Q 160 1118 191 1118 Q 362 1118 490 1050.5 Q 618 983 688 853.5 Q 758 724 758 546 Q 758 370 689 242.5 Q 620 115 491.5 47.5 Q 363 -20 191 -20 Q 160 -20 100 -14 L 100 156 L 133 153 L 189 150 Q 300 150 387.5 197.5 Q 475 245 523.5 335.5 Q 572 426 572 548 Q 572 731 468 839.5 Q 364 948 189 948 L 133 945 L 100 942 L 100 1112 Z"/>
        </g>
        <g transform="matrix(1 0 0 1 9155 1100)">
            <path fill="#000000" stroke="none" d="M 773 942 L 740 945 L 684 948 Q 509 948 405 839.5 Q 301 731 301 548 Q 301 367 405.5 258.5 Q 510 150 684 150 L 740 153 L 773 156 L 773 -14 Q 713 -20 682 -20 Q 511 -20 382.5 47 Q 254 114 184.5 242 Q 115 370 115 546 Q 115 724 184.5 853.5 Q 254 983 383 1050.5 Q 512 1118 682 1118 Q 713 1118 773 1112 L 773 942 Z"/>
        </g>
        <g transform="matrix(1 0 0 1 10028 1100)">
            <path fill="#000000" stroke="none" d="M 160 -482 L 160 253 L 254 253 Q 314 213 393 213 Q 425 213 472 228 Q 519 243 562.5 282.5 Q 606 322 636.5 391 Q 667 460 667 567 Q 667 745 541 843 Q 415 941 181 948 L 181 1118 Q 503 1118 682 972 Q 861 826 861 566 Q 861 423 805 306 Q 749 189 646 117 Q 543 45 433 45 L 408 45 Q 383 45 344 56 L 344 -482 L 160 -482 Z"/>
        </g>
        <g transform="matrix(1 0 0 1 10989 1100)">
            <path fill="#000000" stroke="none" d="M 299 580 Q 381 558 423 495 Q 465 432 465 311 L 465 273 Q 465 217 479 195.49998 Q 493 174 525.5 162 Q 558 150 616 150 L 616 -20 Q 494 -20 421.5 11.5 Q 349 43 315 100 Q 281 157 281 273 L 281 311 Q 281 368 266.5 391 Q 252 414 220 427 Q 188 440 130 440 L 20 440 L 20 610 Q 166 656 277.5 794.5 Q 389 933 419 1098 L 603 1098 Q 584 931 502.49997 793.5 Q 421 656 299 580 Z"/>
        </g>
        <g transform="matrix(1 0 0 1 12217 1100)">
            <path fill="#000000" stroke="none" d="M 143 1099 Q 217 1118 300 1118 Q 494 1118 606 996 Q 718 874 718 655 Q 718 525 662.5 399 Q 607 273 502 150 Q 379 5 332.5 -76 Q 286 -157 286 -231 Q 286 -273 314 -302.5 Q 342 -332 410 -332 Q 516 -332 590 -306 L 630 -462 Q 571 -486 518 -494 Q 465 -502 397 -502 Q 262 -502 181 -429.5 Q 100 -357 100 -231 Q 100 -135 152 -33.5 Q 204 68 316 201 Q 429 336 480.5 443.5 Q 532 551 532 655 Q 532 948 316 948 Q 225 948 167 926 L 143 1099 Z"/>
        </g>
        <g transform="matrix(1 0 0 1 13035 1100)">
            <path fill="#000000" stroke="none" d="M 451 225 Q 614 284 721.5 405 Q 829 526 829 660 Q 829 800 773 874 Q 717 948 610 948 Q 477 948 400 840 Q 323 732 323 550 Q 323 251 432.5 19 Q 542 -213 760 -361 L 661 -502 Q 413 -355 271.5 -76.5 Q 130 202 130 531 Q 130 805 256.5 961.50006 Q 383 1118 599 1118 Q 800 1118 907.5 999 Q 1015 880 1015 662 Q 1015 544 956 428.5 Q 897 313 786 218 Q 675 123 519 63 L 451 225 Z"/>
        </g>
        <g transform="matrix(1 0 0 1 14150 1100)">
            <path fill="#000000" stroke="none" d="M 822 948 Q 718 948 640 837.5 Q 562 727 540 547 Q 507 272 388 126 Q 269 -20 80 -20 L 80 150 Q 185 150 261.5 261.5 Q 338 373 364 562 Q 400 824 518 971 Q 636 1118 822 1118 L 822 948 Z"/>
        </g>
        <g transform="matrix(1 0 0 1 15052 1100)">
            <path fill="#000000" stroke="none" d="M 642 167 Q 695 150 744 150 Q 858 150 948.5 209 Q 1039 268 1089.5 370 Q 1140 472 1140 589 Q 1140 753 1059 850.5 Q 978 948 843 948 Q 685 948 566.5 847.5 Q 448 747 371 540.5 Q 294 334 264 0 L 80 0 Q 102 251 145 423.49997 Q 188 596 256 729 Q 324 862 407 945 Q 490 1028 596 1073 Q 702 1118 832 1118 Q 1068 1118 1197 982 Q 1326 846 1326 589 Q 1326 422 1249 278 Q 1172 134 1041.5 57 Q 911 -20 747 -20 Q 671 -20 593 2 L 642 167 Z"/>
        </g>
        <g transform="matrix(1 0 0 1 16493 1100)">
            <path fill="#000000" stroke="none" d="M 119 1118 Q 286 1004 411 846 Q 538 1006 704 1118 L 793 977 Q 630 855 516 694 Q 701 378 701 11 Q 701 -235 625.5 -368.5 Q 550 -502 411 -502 Q 271 -502 196.50002 -371.5 Q 122 -241 122 11 Q 122 378 307 694 Q 196 852 30 977 L 119 1118 Z M 515 13 Q 515 281 411 511 Q 308 284 308 13 Q 308 -158 335 -244.50002 Q 362 -331 411 -331 Q 460 -331 487.49997 -245 Q 515 -159 515 13 Z"/>
        </g>
        <g transform="matrix(1 0 0 1 17316 1100)">
            <path fill="#000000" stroke="none" d="M 955 928 Q 835 948 737 948 Q 620 948 553 886 Q 486 824 486 716 Q 486 615 551 552.5 Q 616 490 725 490 Q 758 490 820 495 L 820 445 Q 805 232 642 106 Q 479 -20 222 -20 Q 135 -20 60 -6 L 84 162 Q 156 150 215 150 Q 345 150 449.5 199 Q 554 248 602 335 Q 466 370 383 473 Q 300 576 300 716 Q 300 897 421.5 1007.5 Q 543 1118 735 1118 Q 856 1118 956 1099 L 955 928 Z"/>
        </g>
        <g transform="matrix(1 0 0 1 18884 1100)">
            <path fill="#000000" stroke="none" d="M 664 873 Q 501 814 393.50003 693 Q 286 572 286 438 Q 286 299 342 224.5 Q 398 150 505 150 Q 638 150 715 258 Q 792 366 792 548 Q 792 847 682 1078.5 Q 572 1310 355 1459 L 454 1600 Q 702 1453 843.5 1174.5 Q 985 896 985 567 Q 985 298 855 139 Q 725 -20 506 -20 Q 319 -20 209.5 105 Q 100 230 100 436 Q 100 551 159 667 Q 218 783 329 879 Q 440 975 596 1035 L 664 873 Z"/>
        </g>
        <g transform="matrix(1 0 0 1 19999 1100)">
            <path fill="#000000" stroke="none" d="M 854 -20 L 525 824 L 196 -20 L 20 45 L 441 1098 L 608 1098 L 1030 45 L 854 -20 Z"/>
        </g>
        <g transform="matrix(1 0 0 1 21049 1100)">
            <path fill="#000000" stroke="none" d="M 525 0 L 525 621 L 282 364 L 120 484 L 120 1098 L 304 1098 L 304 622 L 545 878 L 709 758 L 709 0 L 525 0 Z"/>
        </g>
        <g transform="matrix(1 0 0 1 21878 1100)">
            <path fill="#000000" stroke="none" d="M 726 147 Q 892 168 976 271 Q 1060 374 1060 548 Q 1060 747 966 847.5 Q 872 948 669 948 Q 501 948 407.49997 874.5 Q 314 801 314 666 Q 314 565 379 502.49997 Q 444 440 553 440 Q 586 440 648 445 L 648 404 Q 632 207 485 93.49999 Q 338 -20 100 -20 L 100 150 Q 226 150 304 183.5 Q 382 217 425 287 Q 288 325 208 427.5 Q 128 530 128 666 Q 128 794 195 898 Q 262 1002 384.5 1060 Q 507 1118 664 1118 Q 941 1118 1093.5 968 Q 1246 818 1246 546 Q 1246 380 1179.5 252.50002 Q 1113 125 993.50006 54 Q 874 -17 726 -20 L 726 147 Z"/>
        </g>
        <g transform="matrix(1 0 0 1 23239 1100)">
            <path fill="#000000" stroke="none" d="M 866 1118 Q 1103 1103 1244.5 945 Q 1386 787 1386 532 Q 1386 279 1245.5 129.5 Q 1105 -20 871 -20 Q 719 -20 604 35.5 Q 489 91 428 190 Q 367 289 367 416 L 369 469 Q 245 493 172.50002 579 Q 100 665 100 796 Q 100 889 149 962.50006 Q 198 1036 283 1077 Q 368 1118 469 1118 L 469 947 Q 381 939 333.5 899.50006 Q 286 860 286 796 Q 286 724 326 682 Q 366 640 432 632 Q 470 681 538 731 L 648 613 L 625 590 Q 592 558 572.5 512 Q 553 466 553 412 Q 553 287 635.5 218.5 Q 718 150 871 150 Q 1024 150 1112 251.49998 Q 1200 353 1200 530 Q 1200 713 1112.5 822 Q 1025 931 866 951 L 866 1118 Z"/>
        </g>
        <g transform="matrix(1 0 0 1 24740 1100)">
            <path fill="#000000" stroke="none" d="M 877 28 Q 720 -20 527 -20 Q 369 -20 279.5 26 Q 190 72 145 169.5 Q 100 267 100 426 Q 100 713 215 1036.5 Q 330 1360 522 1600 L 661 1512 Q 482 1265 384 981.5 Q 286 698 286 428 Q 286 328 305 272 Q 324 216 359.49997 189 Q 395 162 444 156 Q 493 150 553 150 Q 633 150 723.5 165 Q 814 180 877 203 L 877 28 Z"/>
        </g>
        <g transform="matrix(1 0 0 1 26179 1100)">
            <path fill="#000000" stroke="none" d="M 501 1118 L 672 1065 L 191 -502 L 20 -449 L 501 1118 Z"/>
        </g>
        <g transform="matrix(1 0 0 1 26871 1100)">
            <path fill="#000000" stroke="none" d="M 100 1115 Q 139 1118 216 1118 Q 408 1118 519.5 1020 Q 631 922 631 756 Q 631 619 553.5 529.5 Q 476 440 337 418 Q 371 284 464 217 Q 557 150 703 150 Q 884 150 977.5 253.5 Q 1071 357 1071 550 Q 1071 727 981.5 832.50006 Q 892 938 737 948 L 737 1118 Q 974 1107 1115.5 954 Q 1257 801 1257 552 Q 1257 381 1190.5 251 Q 1124 121 998 50.5 Q 872 -20 700 -20 Q 521 -20 393.50003 48.5 Q 266 117 198.5 240 Q 131 363 131 525 L 131 575 Q 194 570 226 570 Q 338 570 391.49997 614.5 Q 445 659 445 756 Q 445 948 214 948 Q 140 948 100 944 L 100 1115 Z"/>
        </g>
        <g transform="matrix(1 0 0 1 28243 1100)">
            <path fill="#000000" stroke="none" d="M 882 946 Q 776 926 684 858 Q 592 790 519 684 Q 446 578 394.5 435.5 Q 343 293 334 182 L 334 0 L 150 0 L 150 1098 L 334 1098 L 334 684 Q 379 797 469.5 902 Q 560 1007 665.5 1062 Q 771 1117 882 1118 L 882 946 Z"/>
        </g>
        <g transform="matrix(1 0 0 1 29165 1100)">
            <path fill="#000000" stroke="none" d="M 1024 -20 L 796 824 L 508 0 L 327 0 L 0 1563 L 172 1600 L 437 313 L 712 1098 L 879 1098 L 1187 35 L 1024 -20 Z"/>
        </g>
        <g transform="matrix(1 0 0 1 30392 1100)">
            <path fill="#000000" stroke="none" d="M 953 28 Q 796 -20 603 -20 Q 445 -20 355.5 26 Q 266 72 221 169.5 Q 176 267 176 426 Q 176 730 302 1069 Q 208 1046 105 1046 L 30 1049 L 30 1219 L 98 1216 Q 293 1216 413 1316 Q 499 1477 598 1600 L 737 1512 Q 558 1265 460 981.5 Q 362 698 362 428 Q 362 328 381 272 Q 400 216 435.5 189 Q 471 162 520 156 Q 569 150 629 150 Q 709 150 799.49994 165 Q 890 180 953 203 L 953 28 Z"/>
        </g>
        <g transform="matrix(1 0 0 1 31375 1100)">
            <path fill="#000000" stroke="none" d="M 600 0 L 416 0 L 416 1305 Q 366 1246 251 1181 Q 136 1116 20 1083 L 20 1253 Q 133 1285 253 1377 Q 373 1469 436 1580 L 600 1580 L 600 0 Z"/>
        </g>
    </g>
</svg>
