<svg width="51135" height="3789" viewBox="0 0 51135 3789" xmlns="http://www.w3.org/2000/svg">
    <defs/>
    <g transform="matrix(1 0 0 -1 0 3789)">
        <g transform="matrix(1 0 0 1 0 1100)">
            <path fill="#000000" stroke="none" d="M 1591 782 Q 1516 761 1452.4999 736.50006 Q 1389 712 1335 686 L 1335 518 Q 1335 252 1266 116 Q 1197 -20 1051 -20 Q 1012 -20 972 -4 Q 932 12 900.5 45 Q 869 78 849 128.5 Q 829 179 829 248 Q 829 306 851 370.5 Q 873 435 916.5 499.5 Q 960 564 1025 626.5 Q 1090 689 1176 743 L 1176 1004 L 1167 1004 Q 1151 968 1127 942.5 Q 1103 917 1076 901 Q 1049 885 1021 877.5 Q 993 870 969 870 Q 938 870 902 878.5 Q 866 887 831.49994 908.5 Q 797 930 768 965.5 Q 739 1001 723 1055 L 715 1055 Q 692 1002 660 967 Q 628 932 591.5 910 Q 555 888 514.5 879 Q 474 870 434 870 Q 362 870 303 892 Q 244 914 201.5 966 Q 159 1018 136 1103.5 Q 113 1189 113 1317 L 113 1462 L 272 1462 L 272 1317 Q 272 1159 324 1082.5 Q 376 1006 465 1006 Q 499 1006 531.5 1020.49994 Q 564 1035 588.5 1067 Q 613 1099 628 1150.5 Q 643 1202 643 1276 L 643 1462 L 803 1462 L 803 1272 Q 803 1200 818 1149 Q 833 1098 858.5 1066.5 Q 884 1035 919 1020.49994 Q 954 1006 995 1006 Q 1034 1006 1067.5 1025 Q 1101 1044 1125 1083 Q 1149 1122 1162.5 1181 Q 1176 1240 1176 1321 L 1176 1462 L 1335 1462 L 1335 829 Q 1385 852 1439.5 872 Q 1494 892 1554 907 L 1591 782 Z M 1176 588 Q 1116 543 1076 496.5 Q 1036 450 1012.5 406 Q 989 362 979 322.5 Q 969 283 969 252 Q 969 189 989 154 Q 1009 119 1051 119 Q 1076 119 1098.5 139 Q 1121 159 1138.5 205.5 Q 1156 252 1166 328.5 Q 1176 405 1176 518 L 1176 588 Z"/>
        </g>
        <g transform="matrix(1 0 0 1 1681 1100)">
            <path fill="#000000" stroke="none" d="M 1034 1475 Q 1034 1425 1006 1398.5001 Q 978 1372 932 1372 Q 882 1372 855.5 1398.5001 Q 829 1425 829 1475 Q 829 1523 858 1550 Q 887 1577 932 1577 Q 977 1577 1005.5 1550 Q 1034 1523 1034 1475 Z M 1788 731 Q 1788 682 1760 655.5 Q 1732 629 1686 629 Q 1636 629 1609.4999 655.5 Q 1583 682 1583 731 Q 1583 779 1612 806.5 Q 1641 834 1686 834 Q 1731 834 1759.5 806.5 Q 1788 779 1788 731 Z M 1034 -20 Q 1034 -70 1006 -96.5 Q 978 -123 932 -123 Q 882 -123 855.5 -96.5 Q 829 -70 829 -20 Q 829 28 858 55 Q 887 82 932 82 Q 977 82 1005.5 55 Q 1034 28 1034 -20 Z M 272 731 Q 272 682 244 655.5 Q 216 629 170 629 Q 120 629 94 655.5 Q 68 682 68 731 Q 68 779 96.5 806.5 Q 125 834 170 834 Q 215 834 243.49998 806.5 Q 272 779 272 731 Z M 860 791 L 860 891 Q 860 974 830 1055.5 Q 800 1137 749.5 1201.5 Q 699 1266 632 1306 Q 565 1346 492 1346 Q 456 1346 426 1333 Q 396 1320 374.49997 1296 Q 353 1272 341.5 1239 Q 330 1206 330 1167 Q 330 1115 351.5 1066.5 Q 373 1018 409 976.5 Q 445 935 492 900.5 Q 539 866 590 842 Q 641 818 693 804.5 Q 745 791 791 791 L 860 791 Z M 1069 791 Q 1115 791 1166.5 804.5 Q 1218 818 1269.5 842 Q 1321 866 1368 900.5 Q 1415 935 1451 976.5 Q 1487 1018 1508.5 1066.5 Q 1530 1115 1530 1167 Q 1530 1206 1518 1239 Q 1506 1272 1485 1296 Q 1464 1320 1434 1333 Q 1404 1346 1368 1346 Q 1294 1346 1227 1306 Q 1160 1266 1109.5 1201.5 Q 1059 1137 1029 1055.5 Q 999 974 999 891 L 999 791 L 1069 791 Z M 330 297 Q 330 256 342 223 Q 354 190 376 167 Q 398 144 427.5 131.5 Q 457 119 492 119 Q 568 119 635.5 158.5 Q 703 198 752.5 262.5 Q 802 327 831 408 Q 860 489 860 573 L 860 674 L 791 674 Q 745 674 693 660 Q 641 646 590 620.5 Q 539 595 492 560 Q 445 525 409 483 Q 373 441 351.5 394 Q 330 347 330 297 Z M 1530 297 Q 1530 347 1508.5 394 Q 1487 441 1451 483 Q 1415 525 1368 560 Q 1321 595 1269.5 620.5 Q 1218 646 1166 660 Q 1114 674 1069 674 L 999 674 L 999 573 Q 999 495 1028 414.5 Q 1057 334 1107 268 Q 1157 202 1224 160.5 Q 1291 119 1368 119 Q 1402 119 1432 131.5 Q 1462 144 1483.4999 167 Q 1505 190 1517.5 223 Q 1530 256 1530 297 Z M 170 1167 Q 170 1237 193 1295.5 Q 216 1354 258.5 1396 Q 301 1438 360.50003 1461.5 Q 420 1485 492 1485 Q 563 1485 631.5 1456.5001 Q 700 1428 758.5 1380 Q 817 1332 861 1268.5 Q 905 1205 928 1135 L 936 1135 Q 958 1205 1001.5 1268.5 Q 1045 1332 1103 1380 Q 1161 1428 1229 1456.5001 Q 1297 1485 1368 1485 Q 1440 1485 1499.5 1461.5 Q 1559 1438 1601.5 1396 Q 1644 1354 1667 1295.5 Q 1690 1237 1690 1167 Q 1690 1098 1660 1031 Q 1630 964 1575.5 907 Q 1521 850 1444.5 805.5 Q 1368 761 1276 737 L 1276 729 Q 1368 709 1444.5 666 Q 1521 623 1575.5 564.5 Q 1630 506 1660 437 Q 1690 368 1690 297 Q 1690 224 1665.5 165.5 Q 1641 107 1598 65.5 Q 1555 24 1496 2 Q 1437 -20 1368 -20 Q 1297 -20 1229 8.5 Q 1161 37 1103 85 Q 1045 133 1001.5 196.50002 Q 958 260 936 330 L 928 330 Q 905 260 861 196.50002 Q 817 133 758.5 85 Q 700 37 631.5 8.5 Q 563 -20 492 -20 Q 423 -20 364 2 Q 305 24 262 65.5 Q 219 107 194.5 165.5 Q 170 224 170 297 Q 170 366 200 433 Q 230 500 284.5 557.5 Q 339 615 415.5 659 Q 492 703 584 727 L 584 735 Q 492 755 415.5 798 Q 339 841 284.5 899.50006 Q 230 958 200 1027 Q 170 1096 170 1167 Z"/>
        </g>
        <g transform="matrix(1 0 0 1 3536 1100)">
            <path fill="#000000" stroke="none" d="M 1247 1462 L 1247 1321 L 387 1321 L 387 807 L 1247 807 L 1247 666 L 387 666 L 387 141 L 1247 141 L 1247 0 L 227 0 L 227 1462 L 1247 1462 Z M 891 1075 Q 891 1026 863 999.5 Q 835 973 788 973 Q 739 973 712.5 999.5 Q 686 1026 686 1075 Q 686 1123 714.5 1150.5 Q 743 1178 788 1178 Q 833 1178 862 1150.5 Q 891 1123 891 1075 Z M 891 420 Q 891 370 863 343.5 Q 835 317 788 317 Q 739 317 712.5 343.5 Q 686 370 686 420 Q 686 468 714.5 495 Q 743 522 788 522 Q 833 522 862 495 Q 891 468 891 420 Z"/>
        </g>
        <g transform="matrix(1 0 0 1 4918 1100)">
            <path fill="#000000" stroke="none" d="M 797 1016 L 1348 1016 L 1348 877 L 797 877 L 797 606 L 1348 606 L 1348 467 L 797 467 L 797 0 L 637 0 L 637 1462 L 797 1462 L 797 1016 Z M 387 0 L 227 0 L 227 1462 L 387 1462 L 387 0 Z M 713 -233 Q 665 -233 627.5 -252.50002 Q 590 -272 559 -332 L 465 -276 Q 503 -179 563.5 -134.5 Q 624 -90 721 -90 Q 766 -90 815 -102 Q 864 -114 910.5 -128 Q 957 -142 999 -154 Q 1041 -166 1073 -166 Q 1121 -166 1158.5 -146.5 Q 1196 -127 1227 -68 L 1321 -123 Q 1283 -220 1222.5 -264.5 Q 1162 -309 1065 -309 Q 1022 -309 974 -297 Q 926 -285 879.5 -271 Q 833 -257 790 -245 Q 747 -233 713 -233 Z"/>
        </g>
        <g transform="matrix(1 0 0 1 6356 1100)">
            <path fill="#000000" stroke="none" d="M 743 1116 Q 743 1197 772.5 1263.5 Q 802 1330 852 1377.5 Q 902 1425 968 1451 Q 1034 1477 1108 1477 Q 1182 1477 1248 1451 Q 1314 1425 1364 1377.5 Q 1414 1330 1443.5 1263.5 Q 1473 1197 1473 1116 Q 1473 1045 1450 984.5 Q 1427 924 1386.4999 878.5 Q 1346 833 1292 803 Q 1238 773 1176 762 L 1176 414 L 1425 414 Q 1438 479 1471.5 532 Q 1505 585 1552.5 622.5 Q 1600 660 1659.5 680 Q 1719 700 1784 700 Q 1857 700 1923.5 674 Q 1990 648 2039.5 600.5 Q 2089 553 2118.5 487 Q 2148 421 2148 340 Q 2148 259 2118.5 193 Q 2089 127 2039.5 79.5 Q 1990 32 1923.5 6 Q 1857 -20 1784 -20 Q 1718 -20 1658 0.5 Q 1598 21 1550 59 Q 1502 97 1469.5 151 Q 1437 205 1425 272 L 791 272 Q 779 205 746 151 Q 713 97 665 59 Q 617 21 557 0.5 Q 497 -20 432 -20 Q 358 -20 292 6 Q 226 32 176.5 79.5 Q 127 127 97.49999 193 Q 68 259 68 340 Q 68 421 97.49999 487 Q 127 553 176.5 600.5 Q 226 648 292 674 Q 358 700 432 700 Q 496 700 555.5 680 Q 615 660 662.5 622.5 Q 710 585 743 532 Q 776 479 788 414 L 1034 414 L 1034 762 Q 972 774 919 804.5 Q 866 835 827 881 Q 788 927 765.49994 986 Q 743 1045 743 1116 Z M 901 1116 Q 901 1065 918 1023.49994 Q 935 982 963.50006 952.5 Q 992 923 1029.5 907 Q 1067 891 1108 891 Q 1148 891 1185 907 Q 1222 923 1251 952.5 Q 1280 982 1297.5 1023.49994 Q 1315 1065 1315 1116 Q 1315 1167 1297.5 1208.5 Q 1280 1250 1251 1279.5 Q 1222 1309 1185 1325 Q 1148 1341 1108 1341 Q 1067 1341 1029.5 1325 Q 992 1309 963.50006 1279.5 Q 935 1250 918 1208.5 Q 901 1167 901 1116 Z M 1577 340 Q 1577 289 1594 247.5 Q 1611 206 1639.5 176.5 Q 1668 147 1705.5 131 Q 1743 115 1784 115 Q 1824 115 1861 131 Q 1898 147 1927 176.5 Q 1956 206 1973.5 247.5 Q 1991 289 1991 340 Q 1991 391 1973.5 432.5 Q 1956 474 1927 503.49997 Q 1898 533 1861 549 Q 1824 565 1784 565 Q 1743 565 1705.5 549 Q 1668 533 1639.5 503.49997 Q 1611 474 1594 432.5 Q 1577 391 1577 340 Z M 225 340 Q 225 289 242 247.5 Q 259 206 288 176.5 Q 317 147 354 131 Q 391 115 432 115 Q 472 115 509.5 131 Q 547 147 575.5 176.5 Q 604 206 621.5 247.5 Q 639 289 639 340 Q 639 391 621.5 432.5 Q 604 474 575.5 503.49997 Q 547 533 509.5 549 Q 472 565 432 565 Q 391 565 354 549 Q 317 533 288 503.49997 Q 259 474 242 432.5 Q 225 391 225 340 Z M 971 641 Q 971 591 943 565 Q 915 539 868 539 Q 819 539 792.5 565 Q 766 591 766 641 Q 766 689 794.5 716 Q 823 743 868 743 Q 913 743 942 716 Q 971 689 971 641 Z M 1448 641 Q 1448 591 1420 565 Q 1392 539 1346 539 Q 1296 539 1269.5 565 Q 1243 591 1243 641 Q 1243 689 1272 716 Q 1301 743 1346 743 Q 1391 743 1419.4999 716 Q 1448 689 1448 641 Z"/>
        </g>
        <g transform="matrix(1 0 0 1 8572 1100)">
            <path fill="#000000" stroke="none" d="M 1229 174 Q 1211 120 1183.5 84.5 Q 1156 49 1121.5 28 Q 1087 7 1048.5 -1.5 Q 1010 -10 971 -10 Q 932 -10 891 -1.5 Q 850 7 813.5 28 Q 777 49 747.5 84.5 Q 718 120 702 174 L 694 174 Q 671 122 639.5 86.50001 Q 608 51 573 29.500002 Q 538 8 502 -1 Q 466 -10 434 -10 Q 360 -10 305 9 Q 250 28 213.5 73 Q 177 118 157 192 Q 137 266 133 377 L 293 377 Q 296 255 336 190 Q 376 125 455 125 Q 492 125 522.5 139 Q 553 153 575.5 183 Q 598 213 610.5 261 Q 623 309 623 377 L 623 1182 L 614 1182 Q 602 1153 579.5 1133 Q 557 1113 531 1100 Q 505 1087 479 1081 Q 453 1075 434 1075 Q 360 1075 305 1094 Q 250 1113 213.5 1158 Q 177 1203 157 1277 Q 137 1351 133 1462 L 293 1462 Q 296 1340 336 1275 Q 376 1210 455 1210 Q 492 1210 522 1224 Q 552 1238 574 1268 Q 596 1298 608.5 1346 Q 621 1394 623 1462 L 782 1462 Q 783 1393 796.49994 1345 Q 810 1297 835 1267 Q 860 1237 894.49994 1223.5 Q 929 1210 971 1210 Q 1011 1210 1045 1223.5 Q 1079 1237 1103.5 1267 Q 1128 1297 1142.5 1345 Q 1157 1393 1159 1462 L 1319 1462 Q 1320 1393 1334.5 1345 Q 1349 1297 1371.5 1267 Q 1394 1237 1424 1223.5 Q 1454 1210 1487 1210 Q 1573 1210 1607.5 1271.5 Q 1642 1333 1647 1462 L 1806 1462 Q 1801 1351 1779 1277 Q 1757 1203 1719 1158 Q 1681 1113 1628 1094 Q 1575 1075 1507 1075 Q 1488 1075 1462 1081 Q 1436 1087 1410 1100 Q 1384 1113 1361.5 1133 Q 1339 1153 1327 1182 L 1319 1182 L 1319 377 Q 1319 308 1333 260 Q 1347 212 1370 182 Q 1393 152 1423.4999 138.5 Q 1454 125 1487 125 Q 1573 125 1607.5 186.5 Q 1642 248 1647 377 L 1806 377 Q 1801 266 1779 192 Q 1757 118 1719 73 Q 1681 28 1628 9 Q 1575 -10 1507 -10 Q 1475 -10 1437 -1 Q 1399 8 1362.5 29.500002 Q 1326 51 1293 86.50001 Q 1260 122 1237 174 L 1229 174 Z M 971 1075 Q 952 1075 926 1081 Q 900 1087 874 1100 Q 848 1113 825.5 1133 Q 803 1153 791 1182 L 782 1182 L 782 377 Q 782 308 795.5 260 Q 809 212 834 182 Q 859 152 894 138.5 Q 929 125 971 125 Q 1011 125 1045.5 138.5 Q 1080 152 1105.5 182 Q 1131 212 1145 260 Q 1159 308 1159 377 L 1159 1182 L 1151 1182 Q 1139 1153 1116.5 1133 Q 1094 1113 1068 1100 Q 1042 1087 1016 1081 Q 990 1075 971 1075 Z"/>
        </g>
        <g transform="matrix(1 0 0 1 11046 1100)">
            <path fill="#000000" stroke="none" d="M 336 1368 Q 294 1368 269 1339.5 Q 244 1311 244 1255 Q 244 1229 246.5 1210.5 Q 249 1192 252 1178 Q 260 1171 271.5 1166 Q 283 1161 295 1158 Q 307 1155 318 1154 Q 329 1153 336 1153 Q 356 1153 371 1163 Q 386 1173 396.5 1188.5 Q 407 1204 412.5 1224.5 Q 418 1245 418 1266 Q 418 1297 411 1316.5 Q 404 1336 392.50003 1347.5 Q 381 1359 366 1363.5 Q 351 1368 336 1368 Z M 823 141 L 1135 141 L 1135 0 L 352 0 L 352 141 L 664 141 L 664 983 L 655 983 Q 634 948 606.5 926.49994 Q 579 905 545.5 892 Q 512 879 474 874.5 Q 436 870 395 870 Q 367 870 333 876 Q 299 882 265 897 Q 231 912 199.5 937 Q 168 962 143.5 999 Q 119 1036 104.5 1087 Q 90 1138 90 1206 Q 90 1275 108 1327 Q 126 1379 157 1413.5 Q 188 1448 228.50002 1465.5 Q 269 1483 313 1483 Q 413 1483 472.50003 1428.5 Q 532 1374 532 1264 Q 532 1219 517.5 1183.5 Q 503 1148 478 1123.5 Q 453 1099 419 1086 Q 385 1073 346 1073 Q 318 1073 302 1077.5 Q 286 1082 272 1092 L 266 1087 Q 292 1037 341.5 1021.49994 Q 391 1006 457 1006 Q 500 1006 538 1019 Q 576 1032 604 1063.5 Q 632 1095 648 1146.5 Q 664 1198 664 1276 L 664 1380 L 823 1380 L 823 1276 Q 823 1198 839 1146.5 Q 855 1095 882.5 1063.5 Q 910 1032 948 1019 Q 986 1006 1030 1006 Q 1063 1006 1094.5 1010 Q 1126 1014 1151.5 1023.49994 Q 1177 1033 1195.5 1048.5 Q 1214 1064 1221 1087 L 1214 1092 Q 1200 1082 1184.5 1077.5 Q 1169 1073 1141 1073 Q 1102 1073 1067.5 1086 Q 1033 1099 1008 1123.5 Q 983 1148 968.5 1183.5 Q 954 1219 954 1264 Q 954 1374 1013.5 1428.5 Q 1073 1483 1174 1483 Q 1218 1483 1258.5 1465.5 Q 1299 1448 1329.5 1413.5 Q 1360 1379 1378.5 1327 Q 1397 1275 1397 1206 Q 1397 1138 1382.5 1087 Q 1368 1036 1343.5 999 Q 1319 962 1287.5 937 Q 1256 912 1222 897 Q 1188 882 1154 876 Q 1120 870 1092 870 Q 1051 870 1013 874.5 Q 975 879 941.5 892 Q 908 905 880 926.49994 Q 852 948 831 983 L 823 983 L 823 141 Z M 1151 1368 Q 1136 1368 1121 1363.5 Q 1106 1359 1094.5 1347.5 Q 1083 1336 1076 1316.5 Q 1069 1297 1069 1266 Q 1069 1245 1074.5 1224.5 Q 1080 1204 1090.5 1188.5 Q 1101 1173 1116 1163 Q 1131 1153 1151 1153 Q 1158 1153 1168.5 1154 Q 1179 1155 1191 1158 Q 1203 1161 1214.5 1166 Q 1226 1171 1235 1178 Q 1238 1192 1240.5 1210.5 Q 1243 1229 1243 1255 Q 1243 1311 1218 1339.5 Q 1193 1368 1151 1368 Z"/>
        </g>
        <g transform="matrix(1 0 0 1 12533 1100)">
            <path fill="#000000" stroke="none" d="M 1440 563 Q 1440 514 1412 487.49997 Q 1384 461 1337 461 Q 1288 461 1261.5 487.49997 Q 1235 514 1235 563 Q 1235 611 1263.5 638.5 Q 1292 666 1337 666 Q 1382 666 1411 638.5 Q 1440 611 1440 563 Z M 903 563 Q 903 514 875 487.49997 Q 847 461 801 461 Q 751 461 724.5 487.49997 Q 698 514 698 563 Q 698 611 727 638.5 Q 756 666 801 666 Q 846 666 874.5 638.5 Q 903 611 903 563 Z M 369 1393 Q 337 1363 314 1334.5 Q 291 1306 276.5 1277 Q 262 1248 255 1217 Q 248 1186 248 1151 Q 248 1106 261 1064.5 Q 274 1023 300.5 991 Q 327 959 368 939.5 Q 409 920 465 920 Q 524 920 583.5 948.5 Q 643 977 699 1023 Q 755 1069 804.5 1128 Q 854 1187 893 1247 Q 932 1307 957 1363.5 Q 982 1420 989 1462 L 1149 1462 L 1149 141 L 1460 141 L 1460 0 L 678 0 L 678 141 L 989 141 L 989 1180 L 981 1180 Q 932 1090 875.5 1016 Q 819 942 753 889.5 Q 687 837 610.5 808.5 Q 534 780 446 780 Q 387 780 324 801.50006 Q 261 823 209 868 Q 157 913 123.5 982.5 Q 90 1052 90 1149 Q 90 1251 140.5 1336 Q 191 1421 274 1483 L 369 1393 Z"/>
        </g>
        <g transform="matrix(1 0 0 1 14038 1100)">
            <path fill="#000000" stroke="none" d="M 571 506 Q 621 506 647.5 478 Q 674 450 674 403 Q 674 354 647.5 327.5 Q 621 301 571 301 Q 523 301 496 329.5 Q 469 358 469 403 Q 469 448 496 477 Q 523 506 571 506 Z M 748 733 Q 793 718 836 689.5 Q 879 661 912.5 618 Q 946 575 966.5 519.5 Q 987 464 987 395 Q 987 293 954 215.5 Q 921 138 864.50006 85.5 Q 808 33 732 6.5 Q 656 -20 571 -20 Q 484 -20 409 6.5 Q 334 33 278 85.5 Q 222 138 190 215.5 Q 158 293 158 395 Q 158 464 179 519.5 Q 200 575 233.5 617 Q 267 659 309.5 687.5 Q 352 716 395 731 L 395 739 Q 351 751 310 780.5 Q 269 810 237 853.5 Q 205 897 185.5 952.5 Q 166 1008 166 1073 Q 166 1173 200 1249.5 Q 234 1326 290 1378.5 Q 346 1431 419.5 1458 Q 493 1485 571 1485 Q 651 1485 724.5 1458 Q 798 1431 854.5 1378.5 Q 911 1326 945 1249.5 Q 979 1173 979 1073 Q 979 1008 959 953 Q 939 898 907 855 Q 875 812 833 782.5 Q 791 753 748 741 L 748 733 Z M 819 1073 Q 819 1139 798 1190 Q 777 1241 742 1275.5 Q 707 1310 662.5 1328 Q 618 1346 571 1346 Q 525 1346 481 1328 Q 437 1310 402.5 1275.5 Q 368 1241 347 1190 Q 326 1139 326 1073 Q 326 1007 345.50003 957 Q 365 907 398.5 874 Q 432 841 476.5 824 Q 521 807 571 807 Q 620 807 665 824 Q 710 841 744 874 Q 778 907 798.49994 957 Q 819 1007 819 1073 Z M 827 395 Q 827 464 806 516.5 Q 785 569 749.5 604 Q 714 639 667.5 656.5 Q 621 674 571 674 Q 522 674 476 656.5 Q 430 639 395 604 Q 360 569 338.5 516.5 Q 317 464 317 395 Q 317 326 337 274 Q 357 222 391.49997 187.49998 Q 426 153 472 136 Q 518 119 571 119 Q 623 119 670 136 Q 717 153 751.5 187.49998 Q 786 222 806.5 274 Q 827 326 827 395 Z M 571 1182 Q 621 1182 647.5 1154 Q 674 1126 674 1079 Q 674 1030 647.5 1003.5 Q 621 977 571 977 Q 523 977 496 1005.5 Q 469 1034 469 1079 Q 469 1124 496 1153 Q 523 1182 571 1182 Z"/>
        </g>
        <g transform="matrix(1 0 0 1 15183 1100)">
            <path fill="#000000" stroke="none" d="M 358 657 Q 358 755 394 835.50006 Q 430 916 490.5 973.5 Q 551 1031 632 1062.5 Q 713 1094 803 1094 Q 893 1094 973 1062.5 Q 1053 1031 1113.5 973.5 Q 1174 916 1209.5 835.50006 Q 1245 755 1245 657 Q 1245 560 1209.5 480 Q 1174 400 1113.5 343 Q 1053 286 973 254.5 Q 893 223 803 223 Q 713 223 632 254.5 Q 551 286 490.5 343 Q 430 400 394 480 Q 358 560 358 657 Z M 514 657 Q 514 589 537 534 Q 560 479 599.5 440 Q 639 401 691.5 379.5 Q 744 358 803 358 Q 862 358 914.5 379.5 Q 967 401 1006 440 Q 1045 479 1067.5 534 Q 1090 589 1090 657 Q 1090 725 1067.5 780.5 Q 1045 836 1006 875.5 Q 967 915 914.5 936.5 Q 862 958 803 958 Q 744 958 691.5 936.5 Q 639 915 599.5 875.5 Q 560 836 537 780.5 Q 514 725 514 657 Z M 272 100 Q 272 51 244 24.499998 Q 216 -2 170 -2 Q 120 -2 94 24.499998 Q 68 51 68 100 Q 68 148 96.5 175.5 Q 125 203 170 203 Q 215 203 243.49998 175.5 Q 272 148 272 100 Z M 1542 100 Q 1542 51 1514 24.499998 Q 1486 -2 1440 -2 Q 1390 -2 1363.5 24.499998 Q 1337 51 1337 100 Q 1337 148 1366 175.5 Q 1395 203 1440 203 Q 1485 203 1513.5 175.5 Q 1542 148 1542 100 Z M 905 1382 Q 905 1333 877 1306.5 Q 849 1280 803 1280 Q 753 1280 726.5 1306.5 Q 700 1333 700 1382 Q 700 1430 729 1457.5 Q 758 1485 803 1485 Q 848 1485 876.5 1457.5 Q 905 1430 905 1382 Z"/>
        </g>
        <g transform="matrix(1 0 0 1 16793 1100)">
            <path fill="#000000" stroke="none" d="M 1573 352 Q 1547 265 1504 196 Q 1461 127 1404.5 78 Q 1348 29 1280 3 Q 1212 -23 1137 -23 Q 1045 -23 971.5 5 Q 898 33 846.5 85.5 Q 795 138 767 213 Q 739 288 739 381 Q 739 495 777 623 Q 815 751 883 885 Q 833 900 789 940.5 Q 745 981 723 1055 L 715 1055 Q 692 1002 660 967 Q 628 932 591.5 910 Q 555 888 514.5 879 Q 474 870 434 870 Q 362 870 303 892 Q 244 914 201.5 966 Q 159 1018 136 1103.5 Q 113 1189 113 1317 L 113 1462 L 272 1462 L 272 1317 Q 272 1159 324 1082.5 Q 376 1006 465 1006 Q 499 1006 531.5 1020.49994 Q 564 1035 588.5 1067 Q 613 1099 628 1150.5 Q 643 1202 643 1276 L 643 1462 L 803 1462 L 803 1272 Q 803 1210 814 1163.5 Q 825 1117 844.5 1085.5 Q 864 1054 891 1035.5 Q 918 1017 950 1010 Q 1018 1128 1100.5 1247.5 Q 1183 1367 1274 1485 L 1405 1411 Q 1304 1280 1212 1144 Q 1120 1008 1050.5 875 Q 981 742 940 616.5 Q 899 491 899 381 Q 899 320 915.5 271.5 Q 932 223 963 188.50002 Q 994 154 1038 135.5 Q 1082 117 1137 117 Q 1248 117 1323 188 Q 1398 259 1436 387 L 1573 352 Z M 1450 780 Q 1450 731 1422 704.50006 Q 1394 678 1348 678 Q 1298 678 1271.5 704.50006 Q 1245 731 1245 780 Q 1245 828 1274 855.5 Q 1303 883 1348 883 Q 1393 883 1421.4999 855.5 Q 1450 828 1450 780 Z M 1661 1190 Q 1661 1140 1633 1113.5 Q 1605 1087 1559 1087 Q 1509 1087 1482.5 1113.5 Q 1456 1140 1456 1190 Q 1456 1238 1485 1265 Q 1514 1292 1559 1292 Q 1604 1292 1632.5 1265 Q 1661 1238 1661 1190 Z M 1239 371 Q 1239 321 1211 294.5 Q 1183 268 1137 268 Q 1087 268 1060.5 294.5 Q 1034 321 1034 371 Q 1034 419 1063 446 Q 1092 473 1137 473 Q 1182 473 1210.5 446 Q 1239 419 1239 371 Z"/>
        </g>
        <g transform="matrix(1 0 0 1 18522 1100)">
            <path fill="#000000" stroke="none" d="M 1749 762 Q 1749 699 1728.5 649.5 Q 1708 600 1671 566 Q 1634 532 1584 514 Q 1534 496 1475 496 Q 1369 496 1299.5 547 Q 1230 598 1210 692 L 604 692 Q 594 645 570 608.5 Q 546 572 511 547 Q 476 522 432 509 Q 388 496 338 496 Q 277 496 227.49998 514 Q 178 532 142.5 566 Q 107 600 87.5 649 Q 68 698 68 760 Q 68 821 87.5 870 Q 107 919 142.5 952.5 Q 178 986 227.49998 1004 Q 277 1022 338 1022 Q 387 1022 430.5 1009 Q 474 996 508.5 972 Q 543 948 567.5 913 Q 592 878 604 834 L 1212 834 Q 1232 923 1301.5 972.5 Q 1371 1022 1475 1022 Q 1533 1022 1583 1004 Q 1633 986 1670 952.5 Q 1707 919 1728 871 Q 1749 823 1749 762 Z M 1008 379 Q 1008 329 980 302.5 Q 952 276 905 276 Q 856 276 829.49994 302.5 Q 803 329 803 379 Q 803 427 831.49994 454 Q 860 481 905 481 Q 950 481 979 454 Q 1008 427 1008 379 Z M 1008 1141 Q 1008 1091 980 1064.5 Q 952 1038 905 1038 Q 856 1038 829.49994 1064.5 Q 803 1091 803 1141 Q 803 1189 831.49994 1216 Q 860 1243 905 1243 Q 950 1243 979 1216 Q 1008 1189 1008 1141 Z"/>
        </g>
        <g transform="matrix(1 0 0 1 20871 1100)">
            <path fill="#000000" stroke="none" d="M 563 1335 Q 501 1335 447 1321.5 Q 393 1308 346.5 1272.5 Q 300 1237 259 1177 Q 218 1117 182 1024 L 68 1083 Q 112 1198 161.5 1274 Q 211 1350 270.5 1394.5001 Q 330 1439 402 1457 Q 474 1475 563 1475 Q 611 1475 658 1463.5 Q 705 1452 752 1432 Q 836 1475 928 1475 Q 1017 1475 1093 1457.5 Q 1169 1440 1232.5 1396.5001 Q 1296 1353 1349 1277.5 Q 1402 1202 1444 1087 L 1319 1024 Q 1285 1117 1243 1177 Q 1201 1237 1152 1272.5 Q 1103 1308 1046.5 1321.5 Q 990 1335 928 1335 Q 918 1335 905.5 1335 Q 893 1335 885 1333 Q 925 1295 959.49994 1247 Q 994 1199 1019.5 1143 Q 1045 1087 1060 1023 Q 1075 959 1075 889 Q 1075 817 1058 753 Q 1041 689 1009.5 638 Q 978 587 933 552 Q 888 517 831 502 L 831 373 Q 831 294 840.5 243.49998 Q 850 193 866 164.5 Q 882 136 903 125.49999 Q 924 115 948 115 Q 979 115 1003.5 125.49999 Q 1028 136 1044 163 Q 1060 190 1068.5 235.49998 Q 1077 281 1077 352 L 1217 352 Q 1217 254 1197 183.5 Q 1177 113 1141 68 Q 1105 23 1055.5 1.5 Q 1006 -20 948 -20 Q 914 -20 880 -15.5 Q 846 -11 815.5 3.5 Q 785 18 758.5 44.5 Q 732 71 713 115.5 Q 694 160 683 224 Q 672 288 672 377 L 672 502 Q 561 527 498.5 621.5 Q 436 716 436 889 Q 436 954 450 1016 Q 464 1078 489 1134 Q 514 1190 548.5 1239 Q 583 1288 623 1329 Q 610 1332 593 1333.5 Q 576 1335 563 1335 Z M 756 633 Q 797 633 827 652.5 Q 857 672 876.5 706.50006 Q 896 741 905.5 787.5 Q 915 834 915 889 Q 915 950 902 1007 Q 889 1064 865.50006 1113.5 Q 842 1163 810 1203 Q 778 1243 739 1272 Q 703 1243 676 1203 Q 649 1163 631.5 1113.5 Q 614 1064 605 1007 Q 596 950 596 889 Q 596 834 605.5 787.5 Q 615 741 634.5 706.50006 Q 654 672 684 652.5 Q 714 633 756 633 Z"/>
        </g>
        <g transform="matrix(1 0 0 1 22382 1100)">
            <path fill="#000000" stroke="none" d="M 1640 416 Q 1702 416 1756 429.5 Q 1810 443 1857 478.5 Q 1904 514 1944.5 574 Q 1985 634 2021 727 L 2136 668 Q 2091 552 2041.5 476.5 Q 1992 401 1932.5 356.5 Q 1873 312 1801 294 Q 1729 276 1640 276 Q 1579 276 1521.5 295.5 Q 1464 315 1411 352 Q 1342 315 1261.5 295.5 Q 1181 276 1092 276 Q 1001 276 920 294 Q 839 312 768 346 Q 722 314 670.5 295 Q 619 276 563 276 Q 474 276 398 293.5 Q 322 311 258.5 354.5 Q 195 398 142 473 Q 89 548 47 664 L 172 727 Q 206 634 248 574 Q 290 514 339 478.5 Q 388 443 444.5 429.5 Q 501 416 563 416 Q 585 416 611 419 Q 637 422 655 428 Q 607 470 567 521.5 Q 527 573 499 633.5 Q 471 694 455.49997 761.5 Q 440 829 440 903 Q 440 985 460.5 1059 Q 481 1133 519 1188.5 Q 557 1244 612 1276.5 Q 667 1309 735 1309 Q 800 1309 855 1283.5 Q 910 1258 949.5 1207.5 Q 989 1157 1011.5 1081 Q 1034 1005 1034 903 Q 1034 840 1021.49994 779.5 Q 1009 719 987.5 662 Q 966 605 936 553 Q 906 501 870 455 Q 917 436 974.5 426 Q 1032 416 1092 416 Q 1152 416 1210 425 Q 1268 434 1315 453 Q 1280 496 1249.5 546.5 Q 1219 597 1196.5 653.5 Q 1174 710 1161.5 772.5 Q 1149 835 1149 903 Q 1149 985 1170 1059 Q 1191 1133 1230 1188.5 Q 1269 1244 1324.5 1276.5 Q 1380 1309 1448 1309 Q 1588 1309 1665.5 1208 Q 1743 1107 1743 903 Q 1743 841 1727.5 777 Q 1712 713 1683.5001 652 Q 1655 591 1615.4999 536 Q 1576 481 1528 438 Q 1551 427 1582 421.5 Q 1613 416 1640 416 Z"/>
        </g>
        <g transform="matrix(1 0 0 1 24565 1100)">
            <path fill="#000000" stroke="none" d="M 156 0 Q 204 78 246 183 Q 288 288 320 406.49997 Q 352 525 371.5 651 Q 391 777 395 899 Q 318 925 264.5 963 Q 211 1001 177 1048 Q 143 1095 128 1149.5 Q 113 1204 113 1264 Q 113 1333 129.5 1377 Q 146 1421 174 1446.5 Q 202 1472 238 1481.4999 Q 274 1491 313 1491 Q 382 1491 428 1459.5 Q 474 1428 502 1366.5 Q 530 1305 542.5 1214 Q 555 1123 557 1004 Q 595 997 641 995 Q 687 993 739 993 Q 798 993 848.5 996 Q 899 999 942 1006 Q 943 1123 955.5 1213 Q 968 1303 996 1365 Q 1024 1427 1070.5 1459 Q 1117 1491 1186 1491 Q 1225 1491 1261 1481.4999 Q 1297 1472 1325 1446.5 Q 1353 1421 1369.5 1377 Q 1386 1333 1386 1264 Q 1386 1205 1369.5 1151.5 Q 1353 1098 1318.5 1052 Q 1284 1006 1230 968.5 Q 1176 931 1102 905 Q 1106 784 1125.5 659.5 Q 1145 535 1177 416.5 Q 1209 298 1251.5 191.5 Q 1294 85 1343 0 L 156 0 Z M 1094 141 Q 1064 219 1038 309 Q 1012 399 992.50006 493.5 Q 973 588 960.50006 683 Q 948 778 944 868 Q 898 860 847 857 Q 796 854 739 854 Q 688 854 642.5 856.5 Q 597 859 555 864 Q 550 774 537.5 679.5 Q 525 585 505.50003 492 Q 486 399 459 309.5 Q 432 220 399 141 L 1094 141 Z M 252 1260 Q 252 1229 259 1197.5 Q 266 1166 283.5 1136.5 Q 301 1107 329.5 1081 Q 358 1055 401 1036 Q 398 1194 378 1273 Q 358 1352 313 1352 Q 285 1352 268.5 1332 Q 252 1312 252 1260 Z M 1186 1352 Q 1141 1352 1120 1273 Q 1099 1194 1096 1036 Q 1138 1054 1167 1079.5 Q 1196 1105 1213.5 1134 Q 1231 1163 1239 1195.5 Q 1247 1228 1247 1260 Q 1247 1312 1231 1332 Q 1215 1352 1186 1352 Z"/>
        </g>
        <g transform="matrix(1 0 0 1 26064 1100)">
            <path fill="#000000" stroke="none" d="M 367 428 Q 367 378 339 352 Q 311 326 264 326 Q 215 326 188.50002 352 Q 162 378 162 428 Q 162 476 190.5 503 Q 219 530 264 530 Q 309 530 338 503 Q 367 476 367 428 Z M 1714 428 Q 1714 378 1686 352 Q 1658 326 1612 326 Q 1562 326 1535.5 352 Q 1509 378 1509 428 Q 1509 476 1538 503 Q 1567 530 1612 530 Q 1657 530 1685.5001 503 Q 1714 476 1714 428 Z M 291 1049 Q 291 981 314 926 Q 337 871 376.50003 832 Q 416 793 468.5 771.50006 Q 521 750 580 750 Q 639 750 691 771.50006 Q 743 793 782 832 Q 821 871 843.5 926 Q 866 981 866 1049 Q 866 1116 843.5 1171.5 Q 821 1227 782 1267 Q 743 1307 691 1328.5 Q 639 1350 580 1350 Q 521 1350 468.5 1328.5 Q 416 1307 376.50003 1267 Q 337 1227 314 1171.5 Q 291 1116 291 1049 Z M 649 422 Q 649 354 672 298 Q 695 242 734.49994 202 Q 774 162 826.5 140.5 Q 879 119 938 119 Q 997 119 1049.5 140.5 Q 1102 162 1141 202 Q 1180 242 1202.5 298 Q 1225 354 1225 422 Q 1225 489 1202.5 543.5 Q 1180 598 1141 637 Q 1102 676 1049.5 697.5 Q 997 719 938 719 Q 879 719 826.5 697.5 Q 774 676 734.49994 637 Q 695 598 672 543.5 Q 649 489 649 422 Z M 1012 1049 Q 1012 981 1035 926 Q 1058 871 1097 832 Q 1136 793 1188.5 771.50006 Q 1241 750 1300 750 Q 1359 750 1411.5 771.50006 Q 1464 793 1503 832 Q 1542 871 1564.5 926 Q 1587 981 1587 1049 Q 1587 1116 1564.5 1171.5 Q 1542 1227 1503 1267 Q 1464 1307 1411.5 1328.5 Q 1359 1350 1300 1350 Q 1241 1350 1188.5 1328.5 Q 1136 1307 1097 1267 Q 1058 1227 1035 1171.5 Q 1012 1116 1012 1049 Z M 494 422 Q 494 531 537 616 Q 454 623 380.5 657.5 Q 307 692 252.50002 748.5 Q 198 805 166.5 881 Q 135 957 135 1049 Q 135 1146 171 1226.5 Q 207 1307 267.5 1364.5 Q 328 1422 409 1453.5 Q 490 1485 580 1485 Q 689 1485 783.5 1438.5 Q 878 1392 938 1309 Q 1000 1392 1094.5 1438.5 Q 1189 1485 1300 1485 Q 1390 1485 1470.5 1453.5 Q 1551 1422 1611.4999 1364.5 Q 1672 1307 1707.5 1226.5 Q 1743 1146 1743 1049 Q 1743 957 1710.4999 880 Q 1678 803 1622.5 746 Q 1567 689 1493 654.5 Q 1419 620 1335 614 Q 1357 571 1368.5 523.5 Q 1380 476 1380 422 Q 1380 324 1344.5 243 Q 1309 162 1249 104.5 Q 1189 47 1108.5 15.5 Q 1028 -16 938 -16 Q 848 -16 767.49994 15.5 Q 687 47 626 104.5 Q 565 162 529.5 243 Q 494 324 494 422 Z"/>
        </g>
        <g transform="matrix(1 0 0 1 27942 1100)">
            <path fill="#000000" stroke="none" d="M 696 1094 Q 696 1160 681.5 1207.5 Q 667 1255 641.5 1286 Q 616 1317 582 1331.5 Q 548 1346 510 1346 Q 473 1346 440 1331.5 Q 407 1317 381.5 1286 Q 356 1255 341 1207.5 Q 326 1160 326 1094 Q 326 1028 339.5 975 Q 353 922 377.50003 884.5 Q 402 847 436 827 Q 470 807 510 807 Q 550 807 584 827 Q 618 847 643 884.5 Q 668 922 682 975 Q 696 1028 696 1094 Z M 705 375 Q 705 444 689.5 499.5 Q 674 555 647.5 593.5 Q 621 632 585.5 653 Q 550 674 510 674 Q 471 674 436 653 Q 401 632 374.49997 593.5 Q 348 555 332.5 499.5 Q 317 444 317 375 Q 317 306 331 257 Q 345 208 370.5 177.5 Q 396 147 431.5 133 Q 467 119 510 119 Q 552 119 588 133 Q 624 147 650 177.5 Q 676 208 690.5 257 Q 705 306 705 375 Z M 1456 995 L 1616 995 L 1616 500 L 1456 500 L 1456 995 Z M 1122 1067 Q 1122 1017 1094 991 Q 1066 965 1020 965 Q 970 965 944 991 Q 918 1017 918 1067 Q 918 1115 946.5 1142 Q 975 1169 1020 1169 Q 1065 1169 1093.5 1142 Q 1122 1115 1122 1067 Z M 1122 416 Q 1122 366 1094 339.5 Q 1066 313 1020 313 Q 970 313 944 339.5 Q 918 366 918 416 Q 918 464 946.5 491 Q 975 518 1020 518 Q 1065 518 1093.5 491 Q 1122 464 1122 416 Z M 864 375 Q 864 273 834.50006 198.5 Q 805 124 756 75.5 Q 707 27 643 3.5 Q 579 -20 510 -20 Q 440 -20 376.50003 3.5 Q 313 27 264.5 75.5 Q 216 124 187 198.5 Q 158 273 158 375 Q 158 443 177.5 501 Q 197 559 228.50002 604.5 Q 260 650 301 682 Q 342 714 385 731 L 385 739 Q 341 754 301.5 787.5 Q 262 821 232 867.50006 Q 202 914 184 971.5 Q 166 1029 166 1094 Q 166 1194 196 1267.5 Q 226 1341 275 1389.5 Q 324 1438 385.5 1461.5 Q 447 1485 510 1485 Q 575 1485 637.5 1461.5 Q 700 1438 748.5 1389.5 Q 797 1341 826.5 1267.5 Q 856 1194 856 1094 Q 856 1041 840 992.50006 Q 824 944 800 904.5 Q 776 865 747.5 838 Q 719 811 694 801 L 696 793 Q 752 804 835 807.5 Q 918 811 1020 811 L 1192 811 L 1192 995 L 1352 995 L 1352 500 L 1192 500 L 1192 672 L 1020 672 Q 969 672 922 672.5 Q 875 673 833 675 Q 791 677 756 680.5 Q 721 684 696 690 L 694 682 Q 719 672 748.5 646 Q 778 620 803.50006 580 Q 829 540 846.5 488 Q 864 436 864 375 Z"/>
        </g>
        <g transform="matrix(1 0 0 1 29648 1100)">
            <path fill="#000000" stroke="none" d="M 1454 543 Q 1422 543 1384 552 Q 1346 561 1309.5 582.5 Q 1273 604 1240 639.5 Q 1207 675 1184 727 L 1176 727 Q 1156 673 1127.5 637.5 Q 1099 602 1065.5 581 Q 1032 560 994.50006 551.5 Q 957 543 918 543 Q 879 543 838 551.5 Q 797 560 760.5 581 Q 724 602 694.5 637.5 Q 665 673 649 727 L 641 727 Q 618 675 586.5 639.5 Q 555 604 520 582.5 Q 485 561 449 552 Q 413 543 381 543 Q 329 543 281 563 Q 233 583 192.5 618 Q 152 653 120.5 701.49994 Q 89 750 68 807 L 193 870 Q 203 839 223.5 807 Q 244 775 271.5 748.5 Q 299 722 332 705 Q 365 688 401 688 Q 440 688 471 701 Q 502 714 523.5 744.5 Q 545 775 557 824.5 Q 569 874 569 948 L 569 1012 L 729 1012 L 729 948 Q 729 874 742.5 823 Q 756 772 780.5 739.50006 Q 805 707 840 692.5 Q 875 678 918 678 Q 961 678 995.50006 692.5 Q 1030 707 1054.5 739.50006 Q 1079 772 1092.5 823 Q 1106 874 1106 948 L 1106 1012 L 1266 1012 L 1266 948 Q 1266 874 1282.5 824.5 Q 1299 775 1326 744.5 Q 1353 714 1386.4999 701 Q 1420 688 1454 688 Q 1490 688 1523 705 Q 1556 722 1583.5 748.5 Q 1611 775 1631.5 807 Q 1652 839 1663 870 L 1788 807 Q 1767 750 1734 701.49994 Q 1701 653 1658 618 Q 1615 583 1563.5 563 Q 1512 543 1454 543 Z"/>
        </g>
        <g transform="matrix(1 0 0 1 32035 1100)">
            <path fill="#000000" stroke="none" d="M 1300 1321 L 764 1321 L 764 0 L 604 0 L 604 1321 L 68 1321 L 68 1462 L 1300 1462 L 1300 1321 Z"/>
        </g>
        <g transform="matrix(1 0 0 1 33403 1100)">
            <path fill="#000000" stroke="none" d="M 860 1276 Q 811 1301 748 1321 Q 685 1341 604 1341 Q 536 1341 480 1325.5 Q 424 1310 384 1280 Q 344 1250 322.5 1206.5 Q 301 1163 301 1108 Q 301 1053 321.5 1011.5 Q 342 970 385 935.5 Q 428 901 493 870.5 Q 558 840 647 807 Q 744 771 818.5 734 Q 893 697 944 649.5 Q 995 602 1021 539.5 Q 1047 477 1047 391 Q 1047 293 1010.5 217 Q 974 141 905.5 88 Q 837 35 740.5 7.5 Q 644 -20 524 -20 Q 444 -20 383 -4 Q 322 12 272 35 L 272 -20 L 113 -20 L 113 475 L 272 475 L 272 186 Q 323 160 387.5 139.5 Q 452 119 532 119 Q 614 119 679 136 Q 744 153 790 185.5 Q 836 218 860.49994 265.5 Q 885 313 885 375 Q 885 429 865 470 Q 845 511 800.50006 546 Q 756 581 686.5 613.5 Q 617 646 518 682 Q 424 716 353.5 755 Q 283 794 235.49998 844.5 Q 188 895 164.5 960 Q 141 1025 141 1110 Q 141 1197 175 1266 Q 209 1335 271 1383 Q 333 1431 418.5 1457 Q 504 1483 608 1483 Q 689 1483 750 1468 Q 811 1453 860 1430 L 860 1485 L 1020 1485 L 1020 989 L 860 989 L 860 1276 Z M 709 1096 Q 709 1046 681 1019.5 Q 653 993 606 993 Q 557 993 530.5 1019.5 Q 504 1046 504 1096 Q 504 1144 532.5 1171 Q 561 1198 606 1198 Q 651 1198 680 1171 Q 709 1144 709 1096 Z M 709 379 Q 709 329 681 302.5 Q 653 276 606 276 Q 557 276 530.5 302.5 Q 504 329 504 379 Q 504 427 532.5 454 Q 561 481 606 481 Q 651 481 680 454 Q 709 427 709 379 Z"/>
        </g>
        <g transform="matrix(1 0 0 1 34562 1100)">
            <path fill="#000000" stroke="none" d="M 1679 762 Q 1679 699 1658.5 649.5 Q 1638 600 1601.5 566 Q 1565 532 1514.4999 514 Q 1464 496 1405 496 Q 1300 496 1230.5 547 Q 1161 598 1141 692 L 954 692 L 954 346 Q 954 253 933 184 Q 912 115 872 70 Q 832 25 775.5 2.5 Q 719 -20 647 -20 Q 609 -20 579 -15 Q 549 -10 532 -2 L 559 123 Q 570 118 589.5 113.49999 Q 609 109 647 109 Q 686 109 714 122 Q 742 135 760 163.5 Q 778 192 786.5 237 Q 795 282 795 346 L 795 692 L 604 692 Q 594 645 570 608.5 Q 546 572 511 547 Q 476 522 432 509 Q 388 496 338 496 Q 277 496 227.49998 514 Q 178 532 142.5 566 Q 107 600 87.5 649 Q 68 698 68 760 Q 68 821 87.5 870 Q 107 919 142.5 952.5 Q 178 986 227.49998 1004 Q 277 1022 338 1022 Q 387 1022 430.5 1009 Q 474 996 508.5 972 Q 543 948 567.5 913 Q 592 878 604 834 L 795 834 L 795 1116 Q 795 1209 816 1278 Q 837 1347 877 1392.5001 Q 917 1438 973.5 1460.5001 Q 1030 1483 1102 1483 Q 1140 1483 1170 1477.5 Q 1200 1472 1217 1464 L 1190 1339 Q 1179 1344 1159.5 1349 Q 1140 1354 1102 1354 Q 1025 1354 989.49994 1298.5 Q 954 1243 954 1116 L 954 834 L 1143 834 Q 1163 923 1232.5 972.5 Q 1302 1022 1405 1022 Q 1463 1022 1513.5 1004 Q 1564 986 1600.5 952.5 Q 1637 919 1658 871 Q 1679 823 1679 762 Z M 463 762 Q 463 825 427.5 860 Q 392 895 338 895 Q 284 895 249.5 859 Q 215 823 215 760 Q 215 695 249.5 659 Q 284 623 338 623 Q 392 623 427.5 659.5 Q 463 696 463 762 Z M 1530 762 Q 1530 825 1494.5 860 Q 1459 895 1405 895 Q 1351 895 1316.5 859 Q 1282 823 1282 760 Q 1282 695 1316.5 659 Q 1351 623 1405 623 Q 1459 623 1494.5 659.5 Q 1530 696 1530 762 Z"/>
        </g>
        <g transform="matrix(1 0 0 1 36309 1100)">
            <path fill="#000000" stroke="none" d="M 664 983 L 655 983 Q 634 948 607.5 926.49994 Q 581 905 553.5 892 Q 526 879 500 874.5 Q 474 870 455 870 Q 383 870 323.5 892 Q 264 914 221.5 966.5 Q 179 1019 156 1106 Q 133 1193 133 1323 L 133 1462 L 293 1462 L 293 1321 Q 293 1160 343.5 1083 Q 394 1006 475 1006 Q 514 1006 548 1020.49994 Q 582 1035 608 1067 Q 634 1099 649 1150.5 Q 664 1202 664 1276 L 664 1462 L 823 1462 L 823 1276 Q 823 1202 838 1150.5 Q 853 1099 879 1067 Q 905 1035 939 1020.49994 Q 973 1006 1012 1006 Q 1093 1006 1143.5 1083 Q 1194 1160 1194 1321 L 1194 1462 L 1354 1462 L 1354 1323 Q 1354 1193 1331 1106 Q 1308 1019 1265.5 966.5 Q 1223 914 1163.5 892 Q 1104 870 1032 870 Q 1016 870 989.49994 874 Q 963 878 933.5 890.5 Q 904 903 876.5 925 Q 849 947 831 983 L 823 983 L 823 571 L 1135 571 L 1135 430 L 823 430 L 823 0 L 664 0 L 664 430 L 352 430 L 352 571 L 664 571 L 664 983 Z"/>
        </g>
        <g transform="matrix(1 0 0 1 37796 1100)">
            <path fill="#000000" stroke="none" d="M 1487 1411 Q 1440 1350 1390.4999 1279.5 Q 1341 1209 1293 1132 Q 1245 1055 1201.5 972 Q 1158 889 1122 803 Q 1236 788 1321.5 751.5 Q 1407 715 1463 661 Q 1519 607 1547 537.5 Q 1575 468 1575 387 Q 1575 293 1544.5 217.5 Q 1514 142 1464.5 88.5 Q 1415 35 1350.5 6 Q 1286 -23 1219 -23 Q 1036 -23 949 76 Q 862 175 862 360 Q 862 432 875.5 510 Q 889 588 913 672 L 762 672 Q 697 500 592 324.5 Q 487 149 354 -23 L 223 51 Q 272 114 324 186.5 Q 376 259 425.50003 339 Q 475 419 520 504 Q 565 589 600 678 Q 477 690 389 722.5 Q 301 755 244.50002 806 Q 188 857 161.5 924.49994 Q 135 992 135 1075 Q 135 1169 165.5 1244.5 Q 196 1320 246 1373.5 Q 296 1427 360 1456 Q 424 1485 492 1485 Q 576 1485 642 1456.5001 Q 708 1428 753.5 1375.5 Q 799 1323 823.5 1248.5 Q 848 1174 848 1081 Q 848 954 807 811 L 961 811 Q 1027 978 1128 1149.5 Q 1229 1321 1356 1485 L 1487 1411 Z M 1415 387 Q 1415 439 1396.5001 485 Q 1378 531 1337 567 Q 1296 603 1230.5 628 Q 1165 653 1071 664 Q 1048 586 1035 510.5 Q 1022 435 1022 360 Q 1022 300 1032 254.5 Q 1042 209 1065.5 178.5 Q 1089 148 1126.5 132.5 Q 1164 117 1219 117 Q 1315 117 1365 188 Q 1415 259 1415 387 Z M 295 1075 Q 295 1022 311.5 978 Q 328 934 368.5 900.5 Q 409 867 477 845.5 Q 545 824 647 815 Q 667 883 677.5 949 Q 688 1015 688 1081 Q 688 1142 675 1191 Q 662 1240 636.5 1274.5 Q 611 1309 574.5 1327.5 Q 538 1346 492 1346 Q 396 1346 345.50003 1274.5 Q 295 1203 295 1075 Z"/>
        </g>
        <g transform="matrix(1 0 0 1 39506 1100)">
            <path fill="#000000" stroke="none" d="M 387 741 L 395 741 Q 452 794 512 839 Q 572 884 634.5 917 Q 697 950 761.5 968.5 Q 826 987 893 987 Q 947 987 1005.5 976 Q 1064 965 1112.5 937 Q 1161 909 1193 861 Q 1225 813 1225 739 Q 1225 690 1206 647.5 Q 1187 605 1153.5 573.5 Q 1120 542 1073.5 524 Q 1027 506 973 506 L 973 635 Q 985 635 1002 639 Q 1019 643 1035.5 653.5 Q 1052 664 1063.5 682 Q 1075 700 1075 729 Q 1075 751 1062.5 771 Q 1050 791 1026.5 806 Q 1003 821 969 829.49994 Q 935 838 893 838 Q 830 838 763 815 Q 696 792 630.5 752.5 Q 565 713 503 661 Q 441 609 387 551 L 387 190 L 395 190 Q 459 250 533 301 Q 607 352 685 388.5 Q 763 425 842 446 Q 921 467 995 467 Q 1049 467 1107.5 456 Q 1166 445 1215 417 Q 1264 389 1295.5 341 Q 1327 293 1327 219 Q 1327 170 1308 127.5 Q 1289 85 1255.5 53.5 Q 1222 22 1176 4 Q 1130 -14 1075 -14 L 1075 115 Q 1087 115 1104.5 119 Q 1122 123 1138.5 133.5 Q 1155 144 1166.5 162 Q 1178 180 1178 209 Q 1178 231 1166 250.5 Q 1154 270 1131 285 Q 1108 300 1074 308.5 Q 1040 317 995 317 Q 901 317 812.5 288 Q 724 259 645.5 213.5 Q 567 168 501 111.5 Q 435 55 387 0 L 227 0 L 227 1059 Q 309 1152 403 1229 Q 497 1306 596 1361.5 Q 695 1417 796 1448 Q 897 1479 995 1479 Q 1049 1479 1107.5 1468 Q 1166 1457 1215 1428.5 Q 1264 1400 1295.5 1352 Q 1327 1304 1327 1231 Q 1327 1182 1308 1141 Q 1289 1100 1255.5 1070.5 Q 1222 1041 1176 1024.5 Q 1130 1008 1075 1008 L 1075 1137 Q 1087 1137 1104.5 1141 Q 1122 1145 1138.5 1155.5 Q 1155 1166 1166.5 1184 Q 1178 1202 1178 1231 Q 1178 1253 1164 1272.5 Q 1150 1292 1125.5 1307 Q 1101 1322 1067.5 1330.5 Q 1034 1339 995 1339 Q 901 1339 812.5 1310 Q 724 1281 645.5 1235.5 Q 567 1190 501 1133.5 Q 435 1077 387 1022 L 387 741 Z"/>
        </g>
        <g transform="matrix(1 0 0 1 41545 1100)">
            <path fill="#000000" stroke="none" d="M 1573 352 Q 1547 265 1504 196 Q 1461 127 1404.5 78 Q 1348 29 1280 3 Q 1212 -23 1137 -23 Q 1045 -23 971.5 5 Q 898 33 846.5 85.5 Q 795 138 767 213 Q 739 288 739 381 Q 739 495 777 623 Q 815 751 883 885 Q 833 900 789 940.5 Q 745 981 723 1055 L 715 1055 Q 692 1002 660 967 Q 628 932 591.5 910 Q 555 888 514.5 879 Q 474 870 434 870 Q 362 870 303 892 Q 244 914 201.5 966 Q 159 1018 136 1103.5 Q 113 1189 113 1317 L 113 1462 L 272 1462 L 272 1317 Q 272 1159 324 1082.5 Q 376 1006 465 1006 Q 499 1006 531.5 1020.49994 Q 564 1035 588.5 1067 Q 613 1099 628 1150.5 Q 643 1202 643 1276 L 643 1462 L 803 1462 L 803 1272 Q 803 1210 814 1163.5 Q 825 1117 844.5 1085.5 Q 864 1054 891 1035.5 Q 918 1017 950 1010 Q 1018 1128 1100.5 1247.5 Q 1183 1367 1274 1485 L 1405 1411 Q 1304 1280 1212 1144 Q 1120 1008 1050.5 875 Q 981 742 940 616.5 Q 899 491 899 381 Q 899 320 915.5 271.5 Q 932 223 963 188.50002 Q 994 154 1038 135.5 Q 1082 117 1137 117 Q 1248 117 1323 188 Q 1398 259 1436 387 L 1573 352 Z M 1450 780 Q 1450 731 1422 704.50006 Q 1394 678 1348 678 Q 1298 678 1271.5 704.50006 Q 1245 731 1245 780 Q 1245 828 1274 855.5 Q 1303 883 1348 883 Q 1393 883 1421.4999 855.5 Q 1450 828 1450 780 Z M 1239 371 Q 1239 321 1211 294.5 Q 1183 268 1137 268 Q 1087 268 1060.5 294.5 Q 1034 321 1034 371 Q 1034 419 1063 446 Q 1092 473 1137 473 Q 1182 473 1210.5 446 Q 1239 419 1239 371 Z"/>
        </g>
        <g transform="matrix(1 0 0 1 43185 1100)">
            <path fill="#000000" stroke="none" d="M 655 1339 Q 587 1339 522.5 1321.5 Q 458 1304 398.5 1273 Q 339 1242 284.5 1201 Q 230 1160 182 1112 L 90 1188 Q 151 1262 221 1317 Q 291 1372 364 1408 Q 437 1444 511 1461.5 Q 585 1479 655 1479 Q 709 1479 767.49994 1468 Q 826 1457 875 1428.5 Q 924 1400 955.5 1352 Q 987 1304 987 1231 Q 987 1182 968 1141 Q 949 1100 915.5 1070.5 Q 882 1041 836 1024.5 Q 790 1008 735 1008 L 735 825 L 1399 825 L 1399 1153 L 1559 1153 L 1559 358 L 1399 358 L 1399 686 L 735 686 L 735 455 Q 790 455 836 438.49997 Q 882 422 915.5 392 Q 949 362 968 321 Q 987 280 987 231 Q 987 157 955.5 109.49999 Q 924 62 875 34 Q 826 6 767.49994 -5 Q 709 -16 655 -16 Q 585 -16 511 1.5 Q 437 19 364 55 Q 291 91 221 145.5 Q 151 200 90 274 L 193 360 Q 241 312 294 269 Q 347 226 404.5 193.5 Q 462 161 524.5 142 Q 587 123 655 123 Q 702 123 736.50006 131.5 Q 771 140 793.5 155 Q 816 170 827 189.5 Q 838 209 838 231 Q 838 288 797.49994 307 Q 757 326 688 326 L 582 326 L 582 1137 L 688 1137 Q 722 1137 750 1141 Q 778 1145 797.49994 1155.5 Q 817 1166 827.5 1184 Q 838 1202 838 1231 Q 838 1253 827.5 1272.5 Q 817 1292 795 1307 Q 773 1322 738 1330.5 Q 703 1339 655 1339 Z M 1221 1014 Q 1221 964 1193 937.5 Q 1165 911 1118 911 Q 1069 911 1042.5 937.5 Q 1016 964 1016 1014 Q 1016 1062 1044.5 1089 Q 1073 1116 1118 1116 Q 1163 1116 1192 1089 Q 1221 1062 1221 1014 Z M 1221 498 Q 1221 448 1193 421.5 Q 1165 395 1118 395 Q 1069 395 1042.5 421.5 Q 1016 448 1016 498 Q 1016 546 1044.5 573 Q 1073 600 1118 600 Q 1163 600 1192 573 Q 1221 546 1221 498 Z"/>
        </g>
        <g transform="matrix(1 0 0 1 44856 1100)">
            <path fill="#000000" stroke="none" d="M 1749 762 Q 1749 699 1728.5 649.5 Q 1708 600 1671 566 Q 1634 532 1584 514 Q 1534 496 1475 496 Q 1369 496 1299.5 547 Q 1230 598 1210 692 L 604 692 Q 594 645 570 608.5 Q 546 572 511 547 Q 476 522 432 509 Q 388 496 338 496 Q 277 496 227.49998 514 Q 178 532 142.5 566 Q 107 600 87.5 649 Q 68 698 68 760 Q 68 821 87.5 870 Q 107 919 142.5 952.5 Q 178 986 227.49998 1004 Q 277 1022 338 1022 Q 387 1022 430.5 1009 Q 474 996 508.5 972 Q 543 948 567.5 913 Q 592 878 604 834 L 1212 834 Q 1232 923 1301.5 972.5 Q 1371 1022 1475 1022 Q 1533 1022 1583 1004 Q 1633 986 1670 952.5 Q 1707 919 1728 871 Q 1749 823 1749 762 Z M 1599 762 Q 1599 825 1564 860 Q 1529 895 1475 895 Q 1421 895 1386.4999 859 Q 1352 823 1352 760 Q 1352 695 1386.4999 659 Q 1421 623 1475 623 Q 1529 623 1564 659.5 Q 1599 696 1599 762 Z M 463 762 Q 463 825 427.5 860 Q 392 895 338 895 Q 284 895 249.5 859 Q 215 823 215 760 Q 215 695 249.5 659 Q 284 623 338 623 Q 392 623 427.5 659.5 Q 463 696 463 762 Z M 1008 379 Q 1008 329 980 302.5 Q 952 276 905 276 Q 856 276 829.49994 302.5 Q 803 329 803 379 Q 803 427 831.49994 454 Q 860 481 905 481 Q 950 481 979 454 Q 1008 427 1008 379 Z M 1008 1141 Q 1008 1091 980 1064.5 Q 952 1038 905 1038 Q 856 1038 829.49994 1064.5 Q 803 1091 803 1141 Q 803 1189 831.49994 1216 Q 860 1243 905 1243 Q 950 1243 979 1216 Q 1008 1189 1008 1141 Z"/>
        </g>
        <g transform="matrix(1 0 0 1 46673 1100)">
            <path fill="#000000" stroke="none" d="M 1067 825 Q 1186 825 1266.5 808.5 Q 1347 792 1396.5001 759 Q 1446 726 1467.5 676 Q 1489 626 1489 559 Q 1489 495 1466 447 Q 1443 399 1403 366.5 Q 1363 334 1309 317.5 Q 1255 301 1194 301 L 1194 430 Q 1254 430 1291.5 463 Q 1329 496 1329 559 Q 1329 590 1318 614 Q 1307 638 1278 654 Q 1249 670 1198.5 678 Q 1148 686 1069 686 L 891 686 L 891 276 L 731 276 L 731 686 L 317 686 L 317 276 L 158 276 L 158 1235 L 317 1235 L 317 825 L 731 825 L 731 1235 L 891 1235 L 891 825 L 1067 825 Z"/>
        </g>
        <g transform="matrix(1 0 0 1 48252 1100)">
            <path fill="#000000" stroke="none" d="M 387 0 L 227 0 L 227 1462 L 387 1462 L 387 0 Z M 1419 1350 Q 1294 1350 1193 1305 Q 1092 1260 1020 1178 Q 948 1096 909 981.5 Q 870 867 870 729 Q 870 588 905 475 Q 940 362 1009.5 283 Q 1079 204 1181.5 161.5 Q 1284 119 1419 119 L 1409 -20 Q 1235 -20 1104.5 32 Q 974 84 886.5 181 Q 799 278 755 416.5 Q 711 555 711 729 Q 711 899 760.5 1039 Q 810 1179 901 1279 Q 992 1379 1121 1434 Q 1250 1489 1409 1489 L 1419 1350 Z M 696 1360 Q 696 1310 668 1283.5 Q 640 1257 594 1257 Q 544 1257 518 1283.5 Q 492 1310 492 1360 Q 492 1408 520.5 1435 Q 549 1462 594 1462 Q 639 1462 667.5 1435 Q 696 1408 696 1360 Z M 696 100 Q 696 51 668 24.499998 Q 640 -2 594 -2 Q 544 -2 518 24.499998 Q 492 51 492 100 Q 492 148 520.5 175.5 Q 549 203 594 203 Q 639 203 667.5 175.5 Q 696 148 696 100 Z"/>
        </g>
        <g transform="matrix(1 0 0 1 49761 1100)">
            <path fill="#000000" stroke="none" d="M 989 430 Q 1049 430 1086.5 463 Q 1124 496 1124 559 Q 1124 590 1113 614 Q 1102 638 1073 654 Q 1044 670 993.50006 678 Q 943 686 864 686 L 317 686 L 317 276 L 158 276 L 158 1235 L 317 1235 L 317 825 L 862 825 Q 981 825 1062 808.5 Q 1143 792 1192.5 759 Q 1242 726 1263 676 Q 1284 626 1284 559 Q 1284 495 1261 447 Q 1238 399 1198 366.5 Q 1158 334 1104 317.5 Q 1050 301 989 301 L 989 0 L 829 0 L 829 573 L 989 573 L 989 430 Z"/>
        </g>
    </g>
</svg>
