<svg width="31391" height="3789" viewBox="0 0 31391 3789" xmlns="http://www.w3.org/2000/svg">
    <defs/>
    <g transform="matrix(1 0 0 -1 0 3789)">
        <g transform="matrix(1 0 0 1 0 1100)">
            <path fill="#000000" stroke="none" d="M 218 1488 L 394 1141 L 564 1342 Q 593 1376 612 1385.5 Q 631 1395 651 1395 Q 694 1395 736 1338 L 890 1141 L 1170 1396 Q 1203 1425 1227.5 1437 Q 1252 1449 1292 1449 Q 1348 1449 1384.4999 1408 Q 1421 1367 1421 1299 Q 1421 1113 1312.5 869 Q 1204 625 996.5 352.5 Q 789 80 564 -112 L 451 14 Q 624 169 800 396.5 Q 976 624 1095.5 846.5 Q 1215 1069 1234 1213 Q 1049 1036 1021.49994 1015 Q 994 994 967.5 980.5 Q 941 967 918.5 961 Q 896 955 870 955 Q 829 955 804 971 Q 779 987 738 1038 L 636 1161 L 475 990 Q 418 931 364 931 Q 294 931 249 1020 L 60 1398 L 218 1488 Z"/>
        </g>
        <g transform="matrix(1 0 0 1 1561 1100)">
            <path fill="#000000" stroke="none" d="M 524 1089 Q 499 1222 484 1282 Q 249 1256 140 1233 L 156 1399 Q 662 1470 1060 1477 L 1044 1313 Q 875 1313 681 1299 Q 700 1228 720 1110 Q 898 1126 1084 1134 L 1072 970 Q 915 966 745 950 L 770 744 Q 937 757 1144 761 L 1128 597 Q 964 597 786 583 Q 811 301 816 -11 L 623 8 Q 621 281 594 566 Q 432 549 226 521 L 242 687 Q 452 715 577 727 Q 563 852 550 929 Q 417 913 173 875 L 185 1041 Q 308 1062 524 1089 Z"/>
        </g>
        <g transform="matrix(1 0 0 1 2845 1100)">
            <path fill="#000000" stroke="none" d="M 1164 1425 Q 851 616 699 -24 L 524 35 Q 569 278 694 663 Q 438 574 157 446 L 100 597 Q 449 754 757 857 Q 613 1001 447.5 1136.5 Q 282 1272 148 1357 L 258 1482 Q 404 1390 556.5 1270 Q 709 1150 822 1038 Q 901 1263 989 1482 L 1164 1425 Z"/>
        </g>
        <g transform="matrix(1 0 0 1 4049 1100)">
            <path fill="#000000" stroke="none" d="M 881 558 Q 881 632 853 756 Q 554 732 169 732 Q 80 732 80 824 Q 80 885 151 961 Q 257 1077 361.50003 1187 Q 466 1297 572 1389 L 608 1421 Q 664 1472 732 1472 Q 778 1472 808.5 1452 Q 839 1432 857 1386 Q 888 1309 940.5 1134 Q 993 959 1034.5 792 Q 1076 625 1076 542 Q 1076 408 897 259.5 Q 718 111 390 -22 L 313 127 Q 439 171 596 260 Q 753 349 817 420.5 Q 881 492 881 558 Z M 816 912 Q 765 1095 702 1281 Q 615 1219 508 1114.5 Q 401 1010 311 902 L 315 893 L 365 892 Q 536 892 816 912 Z"/>
        </g>
        <g transform="matrix(1 0 0 1 5857 1100)">
            <path fill="#000000" stroke="none" d="M 1506 651 Q 1506 329 1343 154.5 Q 1180 -20 876 -20 Q 533 -20 341.5 200.5 Q 150 421 150 813 Q 150 1132 314.5 1308.5 Q 479 1485 777 1485 Q 1006 1485 1170.5 1384 Q 1335 1283 1420.5 1094.5 Q 1506 906 1506 651 Z M 1312 654 Q 1312 975 1175 1149 Q 1038 1323 787 1323 Q 566 1323 455.49997 1193.5 Q 345 1064 345 812 Q 345 491 480 316.5 Q 615 142 866 142 Q 1086 142 1199 272 Q 1312 402 1312 654 Z M 741 356 Q 741 479 734 647 Q 652 642 526 642 L 509 642 L 463 643 L 446 643 L 436 804 L 509 803 Q 622 803 726 809 L 703 1106 L 882 1131 Q 904 915 910 825 Q 1064 843 1196 871 L 1214 712 Q 1077 681 919 662 Q 926 494 926 373 L 741 356 Z"/>
        </g>
        <g transform="matrix(1 0 0 1 7493 1100)">
            <path fill="#000000" stroke="none" d="M 645 1484 Q 735 1281 792 1130 Q 1024 1281 1226 1399 L 1300 1250 Q 1072 1121 848 979 Q 916 792 971 596 Q 1265 608 1557 626 L 1580 464 Q 1288 448 1014 438 Q 1061 252 1100 29 L 924 -25 Q 880 214 823 432 Q 471 421 263 421 Q 168 421 124 452.5 Q 80 484 80 547 Q 80 599 111.5 645 Q 143 691 228 750 Q 463 913 634 1026 Q 575 1185 482 1406 L 645 1484 Z M 274 576 Q 522 580 780 588 Q 742 717 688 875 Q 475 735 270 585 L 274 576 Z"/>
        </g>
        <g transform="matrix(1 0 0 1 9173 1100)">
            <path fill="#000000" stroke="none" d="M 1071 -227 Q 880 259 743 744 Q 654 727 534 727 Q 333 727 216.5 754.5 Q 100 782 100 833 Q 109 943 213.5 1097 Q 318 1251 457 1365 Q 596 1479 679 1479 Q 723 1479 741.5 1457 Q 760 1435 777 1362 Q 864 971 996.5 531 Q 1129 91 1245 -162 L 1071 -227 Z M 618 1279 Q 585 1264 511.5 1195 Q 438 1126 382.5 1054 Q 327 982 300 921 L 303 911 Q 392 892 517 892 Q 620 892 699 906 Q 645 1115 618 1279 Z"/>
        </g>
        <g transform="matrix(1 0 0 1 10418 1100)">
            <path fill="#000000" stroke="none" d="M 1072 219 Q 1019 403 925 638 Q 815 611 651 592 Q 487 573 369 573 Q 100 573 100 662 Q 100 728 132 820 Q 164 912 224.5 1025 Q 285 1138 364 1254 Q 443 1370 499.5 1421 Q 556 1472 621 1472 Q 672 1472 726.5 1405.5 Q 781 1339 855.5 1200.5 Q 930 1062 1006 891.5 Q 1082 721 1146 554.5 Q 1210 388 1244 271 L 1072 219 Z M 863 786 Q 799 933 728 1069.5 Q 657 1206 599 1281 Q 495 1148 410 992 Q 325 836 310 753 L 314 744 Q 346 736 415 736 Q 573 736 863 786 Z"/>
        </g>
        <g transform="matrix(1 0 0 1 11762 1100)">
            <path fill="#000000" stroke="none" d="M 288 77 Q 257 77 242 95.5 Q 227 114 227 158 Q 227 545 175 1115 L 150 1402 L 336 1426 L 355 1225 L 1027 1394 L 1055 1398 Q 1103 1398 1109 1345 Q 1172 827 1177 20 L 985 -10 L 985 250 L 336 84 Q 311 77 288 77 Z M 959 891 Q 949 1040 933 1203 L 370 1059 Q 381 947 395 747 L 959 891 Z M 983 418 L 970 725 L 404 581 Q 408 501 414 273 L 983 418 Z"/>
        </g>
        <g transform="matrix(1 0 0 1 13079 1100)">
            <path fill="#000000" stroke="none" d="M 30 938 Q 270 1232 581 1439 Q 631 1474 682 1474 Q 723 1474 742 1453.5 Q 761 1433 772 1406 Q 840 1242 908.5 839.5 Q 977 437 985 42 L 793 0 Q 788 210 768.50006 406.49997 Q 749 603 706 862 Q 663 1121 619 1245 Q 454 1124 347 1024 Q 240 924 149 817 L 30 938 Z"/>
        </g>
        <g transform="matrix(1 0 0 1 14796 1100)">
            <path fill="#000000" stroke="none" d="M 100 1047 Q 192 1118 252 1162 Q 312 1206 361 1241.5 Q 410 1277 618 1421 Q 691 1472 758 1472 Q 805 1472 829 1452 Q 853 1432 867 1404 Q 1003 1121 1107.5 811.5 Q 1212 502 1325 31 L 1162 -25 Q 1104 225 1037 458 Q 806 271 499 99 L 421 241 Q 729 409 986 626 Q 947 754 902 881 Q 660 706 347 525 L 269 667 Q 561 834 844 1039 Q 783 1193 734 1279 Q 467 1119 187 911 L 100 1047 Z"/>
        </g>
        <g transform="matrix(1 0 0 1 16241 1100)">
            <path fill="#000000" stroke="none" d="M 539 0 Q 526 241 526 329 L 531 513 Q 342 540 231 665.5 Q 120 791 120 985 Q 120 1126 204 1241 Q 288 1356 431 1420.5 Q 574 1485 729 1485 Q 877 1485 1000 1422 Q 1123 1359 1191.5 1246.5 Q 1260 1134 1260 995 Q 1260 784 1115 655.5 Q 970 527 718 508 L 714 343 Q 714 182 728 0 L 539 0 Z M 1072 984 Q 1072 1106 1005 1193.5 Q 938 1281 821 1311 Q 794 1178 768.50006 997.5 Q 743 817 730 672 Q 892 692 982 774 Q 1072 856 1072 984 Z M 307 966 Q 307 847 368.5 772 Q 430 697 543 676 Q 560 857 587 1033.5 Q 614 1210 637 1315 Q 489 1290 398 1194 Q 307 1098 307 966 Z"/>
        </g>
        <g transform="matrix(1 0 0 1 17621 1100)">
            <path fill="#000000" stroke="none" d="M 1007 1389 Q 918 1232 885.5 1125.5 Q 853 1019 853 905 Q 853 671 919.5 460 Q 986 249 1096 124 L 961 -16 Q 828 115 743.5 370 Q 659 625 659 894 L 659 937 L 661 985 Q 531 922 380 922 Q 223 922 129 1011 Q 35 1100 35 1241 Q 35 1355 100 1473 L 272 1397 Q 230 1332 230 1246 Q 230 1168 272.5 1126 Q 315 1084 389 1084 Q 688 1084 848 1486 L 1007 1389 Z"/>
        </g>
        <g transform="matrix(1 0 0 1 18897 1100)">
            <path fill="#000000" stroke="none" d="M 410 1067 Q 582 1208 666 1278 Q 750 1348 813 1348 Q 864 1348 901.5 1315.5 Q 939 1283 939 1239 Q 939 979 784.5 605.5 Q 630 232 419 -37 L 270 68 Q 375 205 479 396.5 Q 583 588 647.5 772 Q 712 956 733 1113 L 487 913 Q 456 888 420.5 876 Q 385 864 359 864 Q 324 864 297 886.5 Q 270 909 257 947 L 80 1397 L 239 1477 L 410 1067 Z"/>
        </g>
        <g transform="matrix(1 0 0 1 19976 1100)">
            <path fill="#000000" stroke="none" d="M 1025 436 Q 982 436 954.5 458 Q 927 480 884.5 593 Q 842 706 799.49994 878 Q 757 1050 741 1162 Q 681 1105 541 768 Q 522 723 499.5 698 Q 477 673 455 664.5 Q 433 656 407 656 Q 358 656 331.5 671 Q 305 686 268 754.5 Q 231 823 195.49998 919.5 Q 160 1016 122 1155 Q 84 1294 60 1408 L 230 1461 Q 337 1020 407 885 Q 513 1138 619 1321 Q 725 1504 777 1504 Q 819 1504 839 1477.5 Q 859 1451 868 1411 L 909 1208 Q 980 846 1032 709 Q 1129 897 1230 1307 L 1408 1254 Q 1393 1174 1356 1053 Q 1319 932 1269.5 800.50006 Q 1220 669 1180 585 Q 1140 501 1107.5 468.5 Q 1075 436 1025 436 Z"/>
        </g>
        <g transform="matrix(1 0 0 1 21514 1100)">
            <path fill="#000000" stroke="none" d="M 1125 350 Q 990 336 864.50006 308 Q 739 280 528 215 Q 486 203 455 203 Q 372 203 354 284 Q 374 417 491 765 Q 333 737 129 673 L 149 833 Q 360 907 551 937 Q 621 1134 688 1297 L 120 1175 L 133 1356 L 747 1482 Q 785 1491 812 1491 Q 910 1491 910 1390 Q 910 1366 890 1306 Q 665 757 567 400 Q 698 440 812.5 464.5 Q 927 489 1087 512 L 1125 350 Z"/>
        </g>
        <g transform="matrix(1 0 0 1 23291 1100)">
            <path fill="#000000" stroke="none" d="M 715 1494 Q 769 1494 769 1418 Q 769 1367 747 1105 Q 725 842 725 665 Q 725 258 740 165 L 1160 270 L 1189 114 L 868 22 Q 822 8 749 -7 Q 676 -22 657 -22 Q 624 -22 599.5 -6 Q 575 10 559 53 Q 546 90 539 312.5 Q 532 535 532 658 Q 532 762 544.5 984 Q 557 1206 570 1297 L 140 1182 L 147 1347 L 580 1471 Q 672 1494 715 1494 Z"/>
        </g>
        <g transform="matrix(1 0 0 1 24620 1100)">
            <path fill="#000000" stroke="none" d="M 100 1127 Q 203 1484 588 1484 Q 774 1484 875 1383.5 Q 976 1283 976 1101 Q 976 894 880 587 Q 784 280 628 -25 L 452 29 Q 609 357 695.5 636.5 Q 782 916 782 1115 Q 782 1210 724.5 1266 Q 667 1322 567 1322 Q 346 1322 282 1093 L 100 1127 Z"/>
        </g>
        <g transform="matrix(1 0 0 1 25746 1100)">
            <path fill="#000000" stroke="none" d="M 259 1511 Q 318 1331 401 1134 Q 485 1251 602 1336.5 Q 719 1422 796 1422 Q 867 1422 924 1312 L 1014 1144 Q 1044 1089 1085 1089 Q 1131 1089 1189.5 1159.5 Q 1248 1230 1311 1367 L 1461 1299 Q 1353 1094 1262 1007 Q 1171 920 1070 920 Q 1018 920 968 953 Q 918 986 883 1046 L 769 1246 Q 609 1153 477 960 Q 654 568 918 112 L 774 -8 Q 532 404 365.5 755.5 Q 199 1107 80 1452 L 259 1511 Z"/>
        </g>
        <g transform="matrix(1 0 0 1 27307 1100)">
            <path fill="#000000" stroke="none" d="M 798 1413 L 972 1362 Q 876 1059 835 905 Q 1079 922 1311 931 L 1299 767 Q 1106 763 793 739 Q 726 454 692 54 L 505 78 Q 530 424 596 723 Q 346 698 200 675 L 212 841 Q 356 864 637 890 Q 690 1096 798 1413 Z"/>
        </g>
        <g transform="matrix(1 0 0 1 28818 1100)">
            <path fill="#000000" stroke="none" d="M 961 108 Q 783 51 582 18 Q 381 -15 226 -15 Q 163 -15 121.49999 11.5 Q 80 38 80 83 Q 80 114 94.50001 160.5 Q 109 207 126 261 Q 163 382 317.5 724.5 Q 472 1067 653 1406 L 818 1329 Q 756 1222 603 903 Q 450 584 373 404 Q 296 224 281 158 Q 593 175 926 274 L 961 108 Z"/>
        </g>
        <g transform="matrix(1 0 0 1 29899 1100)">
            <path fill="#000000" stroke="none" d="M 780 1485 Q 937 1485 1060 1424.5 Q 1183 1364 1257.5 1245 Q 1332 1126 1332 987 Q 1332 834 1253 713.5 Q 1174 593 1035.5 532.5 Q 897 472 709 472 Q 454 472 307 607.5 Q 160 743 160 975 Q 160 1119 238 1236.5 Q 316 1354 457.50003 1419.4999 Q 599 1485 780 1485 Z M 774 1323 Q 646 1323 550.5 1279.5 Q 455 1236 404.5 1158 Q 354 1080 354 983 Q 354 819 451 726.5 Q 548 634 723 634 Q 918 634 1028 728 Q 1138 822 1138 988 Q 1138 1074 1091.5 1152 Q 1045 1230 961.50006 1276.5 Q 878 1323 774 1323 Z"/>
        </g>
    </g>
</svg>
