<svg width="28831" height="3789" viewBox="0 0 28831 3789" xmlns="http://www.w3.org/2000/svg">
    <defs/>
    <g transform="matrix(1 0 0 -1 0 3789)">
        <g transform="matrix(1 0 0 1 0 1100)">
            <path fill="#000000" stroke="none" d="M 360 215 Q 360 270 367.5 325 Q 375 380 389 437.5 Q 403 495 467 694 Q 532 891 532 954 Q 532 967 527 974 Q 522 981 502 981 Q 437 981 363.5 948 Q 290 915 209 870 L 133 981 Q 224 1046 339.5 1087 Q 455 1128 561 1128 Q 705 1128 705 1012 Q 705 920 618 650 Q 518 342 518 231 Q 518 193 541.5 166 Q 565 139 600 139 Q 659 139 717 195 Q 775 251 841.5 363.5 Q 908 476 1034 750 Q 1148 998 1254.5 1104 Q 1361 1210 1481 1210 Q 1559 1210 1607 1163.5 Q 1655 1117 1655 1049 Q 1655 935 1546 801 Q 1393 607 1393 539 Q 1393 516 1415 516 Q 1436 516 1495.5001 541.5 Q 1555 567 1618 606 Q 1696 653 1763 653 Q 1828 653 1862 621 Q 1896 589 1896 537 Q 1896 464 1821 387 Q 1779 343 1761 322 Q 1743 301 1743 289 Q 1743 276 1755 276 Q 1767 276 1804 293 Q 1861 315 1911 315 Q 2054 315 2054 182 Q 2054 120 2013 57 L 1880 121 Q 1911 164 1911 180 Q 1911 188 1901 188 Q 1879 188 1841 170 Q 1787 147 1739 147 Q 1677 147 1640.4999 179 Q 1604 211 1604 268 Q 1604 306 1624 346 Q 1644 386 1698 442 Q 1719 465 1737 480 Q 1755 495 1755 506 Q 1755 518 1741 518 Q 1723 518 1651 475 Q 1559 419 1505 397 Q 1451 375 1401 375 Q 1327 375 1287 412.5 Q 1247 450 1247 516 Q 1247 662 1432 891 Q 1467 934 1488 973.5 Q 1509 1013 1509 1034 Q 1509 1071 1468 1071 Q 1397 1071 1313.5 951 Q 1230 831 1128 608 Q 1017 362 937 241.5 Q 857 121 773.5 60.5 Q 690 0 594 0 Q 491 0 425.50003 59.5 Q 360 119 360 215 Z"/>
        </g>
        <g transform="matrix(1 0 0 1 2157 1100)">
            <path fill="#000000" stroke="none" d="M 1180 215 Q 830 373 545 629 Q 325 330 219 16 L 68 74 Q 190 407 432 733 Q 244 919 59 1165 L 178 1255 Q 349 1017 522 848 Q 710 1077 977 1303 L 1087 1186 Q 824 969 635 741 Q 909 499 1237 346 L 1180 215 Z"/>
        </g>
        <g transform="matrix(1 0 0 1 3445 1100)">
            <path fill="#000000" stroke="none" d="M 1470 977 Q 1434 1072 1370 1115.5 Q 1306 1159 1212 1159 Q 1071 1159 920 1077 Q 769 995 628.5 840.5 Q 488 686 402.5 511.5 Q 317 337 317 213 Q 317 145 373 145 Q 484 145 774 272 Q 969 359 1085.5 391.49997 Q 1202 424 1298 424 Q 1443 424 1524.5001 355 Q 1606 286 1606 172 Q 1606 115 1594 74.5 Q 1582 34 1571 0 L 1415 0 Q 1432 45 1445 86.50001 Q 1458 128 1458 168 Q 1458 285 1311 285 Q 1162 285 829 137 Q 521 0 373 0 Q 270 0 215 56 Q 160 112 160 213 Q 160 366 251 558.5 Q 342 751 498 926 Q 654 1101 835.50006 1199.5 Q 1017 1298 1190 1298 Q 1497 1298 1602 1030 L 1470 977 Z"/>
        </g>
        <g transform="matrix(1 0 0 1 5153 1100)">
            <path fill="#000000" stroke="none" d="M 766 -2 Q 587 -2 430.5 68.5 Q 274 139 188 260.5 Q 102 382 102 535 Q 102 724 220 888 Q 338 1052 537.5 1142.5 Q 737 1233 973 1233 Q 1158 1233 1313 1165.5 Q 1468 1098 1556.5 976 Q 1645 854 1645 702 Q 1645 525 1524 358.49997 Q 1403 192 1201 95 Q 999 -2 766 -2 Z M 766 137 Q 959 137 1125 214.5 Q 1291 292 1389 426 Q 1487 560 1487 700 Q 1487 815 1420.5 905.5 Q 1354 996 1236 1045 Q 1118 1094 973 1094 Q 777 1094 611 1019 Q 445 944 352.5 814.5 Q 260 685 260 535 Q 260 419 327 329 Q 394 239 511.5 188 Q 629 137 766 137 Z"/>
        </g>
        <g transform="matrix(1 0 0 1 6900 1100)">
            <path fill="#000000" stroke="none" d="M 102 1049 Q 427 1298 819 1298 Q 1206 1298 1530 1049 L 1438 934 Q 1174 1131 893 1155 L 893 0 L 735 0 L 735 1155 Q 454 1127 195 934 L 102 1049 Z"/>
        </g>
        <g transform="matrix(1 0 0 1 8532 1100)">
            <path fill="#000000" stroke="none" d="M 102 1130 Q 429 1380 819 1380 Q 1205 1380 1530 1130 L 1438 1016 Q 1193 1200 930 1233 Q 958 1207 958 1171 Q 958 1131 922 1098 Q 845 1025 836 1013.5 Q 827 1002 827 989 Q 827 972 864 951 L 942 901 Q 1010 860 1010 791 Q 1010 728 965 688 L 856 598 Q 834 579 834 561 Q 834 547 868 524 L 944 473 Q 1012 427 1012 369 Q 1012 320 992.50006 290.5 Q 973 261 932 233 L 856 184 Q 821 163 821 135 Q 821 123 828 103 L 860 2 L 705 2 Q 686 66 678 101.49999 Q 670 137 670 168 Q 670 230 735 272 L 811 319 Q 836 337 836 352 Q 836 374 791 401 L 729 438 Q 690 464 674.5 490.5 Q 659 517 659 549 Q 659 616 731 676 L 817 750 Q 838 767 838 786 Q 838 793 831.49994 801 Q 825 809 816 815.5 Q 807 822 798.49994 827.5 Q 790 833 786 836 L 725 872 Q 659 913 659 981 Q 659 1009 671 1035.5 Q 683 1062 700 1079 L 760 1137 Q 791 1164 791 1188 Q 791 1210 764 1237 Q 463 1216 195 1016 L 102 1130 Z"/>
        </g>
        <g transform="matrix(1 0 0 1 10696 1100)">
            <path fill="#000000" stroke="none" d="M 635 993 Q 635 908 547 872 L 377 803 Q 354 793 354 782 Q 354 777 363 771 Q 372 765 504 696 Q 720 755 1055.5 801.50006 Q 1391 848 1606 848 Q 1774 848 1875 778 Q 1976 708 1976 590 Q 1976 458 1854 372 Q 1732 286 1520 268 L 1507 408 Q 1662 420 1745.5001 465.5 Q 1829 511 1829 584 Q 1829 635 1776 667.5 Q 1723 700 1612 700 Q 1407 700 1122 663.5 Q 837 627 637 578 L 639 555 Q 639 464 547 434 L 418 393 Q 368 376 354 366.5 Q 340 357 340 348 Q 340 332 362 326 L 477 289 Q 602 251 602 145 Q 602 61 516 0 L 324 -135 L 221 -12 L 385 94 Q 424 120 424 141 L 424 143 Q 420 167 381 178 L 276 213 Q 166 247 166 346 Q 166 397 198.5 434 Q 231 471 287 489 L 426 537 Q 453 544 453 561 Q 453 575 401 600 L 258 672 Q 178 713 178 782 Q 178 865 279 903 L 418 961 Q 449 977 449 989 Q 449 993 444.5 997.5 Q 440 1002 433.5 1005.5 Q 427 1009 420.5 1011.5 Q 414 1014 410 1016 L 299 1051 Q 170 1091 170 1196 Q 170 1275 254 1337 L 434 1468 L 535 1346 L 387 1247 Q 348 1223 348 1202 Q 348 1178 391 1163 L 526 1118 Q 574 1103 604.5 1070 Q 635 1037 635 993 Z"/>
        </g>
        <g transform="matrix(1 0 0 1 12775 1100)">
            <path fill="#000000" stroke="none" d="M 502 205 Q 502 145 541 145 Q 603 145 688 233 Q 773 321 910 528 L 987 643 Q 1069 764 1208 1001 Q 1295 1150 1336 1200.5 Q 1377 1251 1417 1274.5 Q 1457 1298 1511 1298 Q 1688 1298 1688 1094 L 1548 1094 Q 1548 1126 1540 1142.5 Q 1532 1159 1507 1159 Q 1476 1159 1436 1104.5 Q 1396 1050 1259 806 Q 1197 697 1112 567 L 1025 435 Q 871 199 758 99.5 Q 645 0 541 0 Q 464 0 416 35 Q 387 18 362.5 -4 Q 338 -26 338 -57 Q 338 -97 416 -104 L 383 -242 Q 190 -198 190 -53 Q 190 68 348 152 L 346 168 L 346 184 Q 346 267 390 424 Q 455 660 455 678 Q 455 690 449.5 697.5 Q 444 705 424 705 Q 381 705 322.5 683.5 Q 264 662 123 584 L 47 694 Q 145 765 259 807.5 Q 373 850 473 850 Q 616 850 616 733 Q 616 657 559 469 Q 538 397 520 317 Q 502 237 502 205 Z"/>
        </g>
        <g transform="matrix(1 0 0 1 14424 1100)">
            <path fill="#000000" stroke="none" d="M 1188 1311 Q 1257 1372 1369 1414.5 Q 1481 1457 1622 1470 L 1638 1331 Q 1536 1319 1441.5 1283.5 Q 1347 1248 1276 1194 L 1188 1311 Z M 502 225 Q 502 145 565 145 Q 697 145 822 264.5 Q 947 384 1133 702 Q 1265 925 1401.5 1036 Q 1538 1147 1694 1147 L 1718 1147 Q 1737 1147 1821 1135 L 1796 997 Q 1750 1008 1702 1008 Q 1626 1008 1556 965 Q 1486 922 1413 836.5 Q 1340 751 1208 541 Q 1073 324 973.5 215.5 Q 874 107 769 53.5 Q 664 0 541 0 Q 452 0 397 50 Q 342 100 342 184 Q 342 312 433 589 L 467 700 L 483 758 Q 514 867 514 881 Q 514 893 508.5 900 Q 503 907 483 907 Q 408 907 267 827 L 186 782 L 109 893 Q 210 966 323.5 1007.5 Q 437 1049 535 1049 Q 678 1049 678 932 Q 678 886 659.5 811.5 Q 641 737 598 598 Q 502 286 502 225 Z"/>
        </g>
        <g transform="matrix(1 0 0 1 16304 1100)">
            <path fill="#000000" stroke="none" d="M 205 1038 L 590 664 L 1014 664 Q 1117 664 1223 737 Q 1335 813 1400.5 843.5 Q 1466 874 1540 874 Q 1673 874 1751 794.5 Q 1829 715 1829 584 Q 1829 380 1614 254 L 1530 367 Q 1681 448 1681 592 Q 1681 660 1639.5 697.5 Q 1598 735 1530 735 Q 1473 735 1395 682 L 1350 651 Q 1240 576 1162.5 550 Q 1085 524 1006 524 L 582 524 L 205 158 L 104 262 L 451 598 L 104 934 L 205 1038 Z"/>
        </g>
        <g transform="matrix(1 0 0 1 18239 1100)">
            <path fill="#000000" stroke="none" d="M 217 1417 Q 431 1358 547 1298 Q 582 1285 608.5 1251 Q 635 1217 635 1180 Q 635 1097 563 1055 L 377 954 Q 366 948 360 943.5 Q 354 939 354 930 Q 354 918 387 900 L 563 784 Q 608 754 623.5 728.5 Q 639 703 639 672 Q 639 591 547 545 L 390 468 Q 340 447 340 430 Q 340 417 362 403 L 492 338 Q 543 312 572.5 278 Q 602 244 602 193 Q 602 123 532 55 L 338 -123 L 229 -20 L 393 123 Q 404 134 419 149.5 Q 434 165 434 180 Q 434 201 385 229 L 260 295 Q 166 342 166 424 Q 166 515 270 567 L 426 643 Q 453 655 453 672 Q 453 688 401 719 L 236 825 Q 178 860 178 928 Q 178 1001 256 1047 L 418 1137 Q 427 1143 438 1150.5 Q 449 1158 449 1169 Q 449 1184 422 1194 Q 389 1209 302 1238 L 164 1284 L 217 1417 Z"/>
        </g>
        <g transform="matrix(1 0 0 1 19042 1100)">
            <path fill="#000000" stroke="none" d="M 481 795 Q 481 807 476 814 Q 471 821 451 821 Q 407 821 348.5 800 Q 290 779 152 702 L 74 811 Q 168 879 284.5 920 Q 401 961 504 961 Q 564 961 600 938 Q 763 1167 979.5 1306 Q 1196 1445 1458 1487 L 1458 1346 Q 1210 1302 1001.5 1146.5 Q 793 991 633 741 L 612 659 Q 547 440 528.5 352 Q 510 264 510 227 Q 510 147 573 147 Q 639 147 694 188.50002 Q 749 230 818 322 Q 887 414 979 569 Q 1111 792 1247.5 903 Q 1384 1014 1540 1014 Q 1573 1014 1642 1006 L 1638 864 Q 1590 874 1548 874 Q 1467 874 1399.5 836 Q 1332 798 1263.5 717 Q 1195 636 1055 408 Q 909 172 800 86 Q 691 0 549 0 Q 463 0 407.49997 51 Q 352 102 352 190 Q 352 251 369 342.5 Q 386 434 434 608 Q 481 773 481 795 Z"/>
        </g>
        <g transform="matrix(1 0 0 1 21223 1100)">
            <path fill="#000000" stroke="none" d="M 578 0 Q 485 0 421.5 60.5 Q 358 121 358 215 Q 358 366 426 576 Q 501 805 516.5 870 Q 532 935 532 963 Q 532 975 527 982 Q 522 989 502 989 Q 460 989 407 970 Q 354 951 207 870 L 129 981 Q 218 1045 335 1086.5 Q 452 1128 559 1128 Q 702 1128 702 1012 Q 702 995 694 936 L 754 936 Q 1026 936 1217 844 Q 1340 1040 1460 1131.5 Q 1580 1223 1712 1223 L 1735 1223 Q 1765 1223 1833 1210 L 1810 1073 Q 1762 1083 1720 1083 Q 1639 1083 1570.5 1039 Q 1502 995 1433 905 Q 1364 815 1225 567 Q 1062 277 906 138.5 Q 750 0 578 0 Z M 602 139 Q 711 139 848 285.5 Q 985 432 1135 702 L 1145 723 Q 992 797 754 797 L 708 797 L 659 795 L 616 650 Q 516 342 516 231 Q 516 193 537.5 166 Q 559 139 602 139 Z"/>
        </g>
        <g transform="matrix(1 0 0 1 23103 1100)">
            <path fill="#000000" stroke="none" d="M 1649 1251 Q 1768 1251 1864 1227 L 1839 1090 Q 1746 1112 1667 1112 Q 1500 1112 1399 1044 Q 1298 976 1206 793 Q 1240 805 1266 805 Q 1305 805 1327.5 777 Q 1350 749 1350 698 L 1350 643 Q 1350 626 1352.5 614 Q 1355 602 1372 602 Q 1389 602 1406.5 608 Q 1424 614 1444 614 Q 1485 614 1506.5 586.5 Q 1528 559 1528 510 L 1528 453 Q 1528 437 1530 426.5 Q 1532 416 1546 416 Q 1560 416 1578.4999 422 Q 1597 428 1622 428 Q 1704 428 1704 317 L 1704 264 Q 1704 223 1743 223 L 1792 223 L 1792 98 L 1720 98 Q 1648 98 1615.4999 138.5 Q 1583 179 1583 242 L 1583 262 Q 1583 275 1580 282 Q 1577 289 1565 289 Q 1557 289 1547 285 Q 1537 281 1509 281 Q 1457 281 1431 317.5 Q 1405 354 1405 408 L 1405 440 Q 1405 459 1404 470 Q 1403 481 1391 481 Q 1380 481 1365.5 476 Q 1351 471 1323 471 Q 1272 471 1250.5 500.5 Q 1229 530 1229 623 L 1229 639 Q 1229 676 1200 676 Q 1174 676 1145 657 L 1145 655 Q 984 285 859 142.5 Q 734 0 590 0 Q 485 0 420.5 60.5 Q 356 121 356 215 Q 356 349 455 659 L 471 711 Q 516 869 516 891 Q 516 903 510.5 910.5 Q 505 918 485 918 Q 405 918 267 843 L 186 799 L 109 907 Q 203 975 319.5 1016 Q 436 1057 539 1057 Q 682 1057 682 940 Q 682 847 593 575 Q 514 334 514 231 Q 514 193 537.5 166 Q 561 139 596 139 Q 655 139 715 198 Q 775 257 843 376 Q 911 495 1028 758 Q 1116 957 1199 1057 Q 1282 1157 1390.4999 1204 Q 1499 1251 1649 1251 Z"/>
        </g>
        <g transform="matrix(1 0 0 1 25024 1100)">
            <path fill="#000000" stroke="none" d="M 1608 1298 Q 1708 1298 1780.5001 1259 Q 1853 1220 1891 1153 Q 1929 1086 1929 1006 Q 1929 905 1874 819 Q 1819 733 1720 684 Q 1621 635 1499 635 L 1499 774 Q 1624 774 1703 837 Q 1782 900 1782 999 Q 1782 1065 1735 1112 Q 1688 1159 1616 1159 Q 1488 1159 1379 1037 Q 1270 915 1161 653 Q 1018 312 879.5 156 Q 741 0 592 0 Q 489 0 423.49997 59.5 Q 358 119 358 215 Q 358 366 426 576 Q 501 805 516.5 870 Q 532 935 532 963 Q 532 975 527 982 Q 522 989 502 989 Q 460 989 407 970 Q 354 951 207 870 L 129 981 Q 218 1045 335 1086.5 Q 452 1128 559 1128 Q 702 1128 702 1012 Q 702 917 616 650 Q 516 342 516 231 Q 516 193 539.5 166 Q 563 139 598 139 Q 694 139 808 297 Q 922 455 1042 752 Q 1147 1015 1294 1156.5 Q 1441 1298 1608 1298 Z"/>
        </g>
        <g transform="matrix(1 0 0 1 26951 1100)">
            <path fill="#000000" stroke="none" d="M 514 231 Q 514 193 537.5 166 Q 561 139 596 139 Q 656 139 716.5 198 Q 777 257 844.5 375 Q 912 493 1030 758 Q 1150 1027 1303 1148.5 Q 1456 1270 1686 1270 L 1710 1270 Q 1742 1270 1812 1257 L 1788 1120 Q 1740 1130 1694 1130 Q 1516 1130 1410 1052 Q 1304 974 1200 770 L 1620 385 L 1520 276 L 1135 631 L 1124 608 Q 973 266 851 133 Q 729 0 590 0 Q 485 0 420.5 60.5 Q 356 121 356 215 Q 356 345 455 655 L 471 707 Q 516 865 516 891 Q 516 903 510.5 910.5 Q 505 918 485 918 Q 405 918 267 843 L 186 799 L 106 909 Q 201 977 317.5 1017 Q 434 1057 539 1057 Q 682 1057 682 940 Q 682 847 593 575 Q 514 334 514 231 Z"/>
        </g>
    </g>
</svg>
