<svg width="46560" height="3789" viewBox="0 0 46560 3789" xmlns="http://www.w3.org/2000/svg">
    <defs/>
    <g transform="matrix(1 0 0 -1 0 3789)">
        <g transform="matrix(1 0 0 1 0 1100)">
            <path fill="#000000" stroke="none" d="M 643 500 Q 499 500 430.5 454.49997 Q 362 409 362 309 Q 362 235 407.49997 196.50002 Q 453 158 546 140.5 Q 639 123 788 123 Q 967 123 1057.5 150.5 Q 1148 178 1188.5 242 Q 1229 306 1229 426 L 1401 426 Q 1401 260 1342.5 163.5 Q 1284 67 1160.5 23.500002 Q 1037 -20 797 -20 Q 575 -20 440.50003 12.5 Q 306 45 243 111 Q 180 177 180 297 Q 180 420 230.5 479 Q 281 538 406 555 L 406 563 Q 291 589 246 641.5 Q 201 694 201 813 Q 201 930 261 993 Q 321 1056 449.5 1087 Q 578 1118 793 1118 Q 1040 1118 1163 1075.5 Q 1286 1033 1343.5 937.5 Q 1401 842 1401 678 L 1231 678 Q 1229 837 1129 906 Q 1029 975 786 975 Q 581 975 482 935.5 Q 383 896 383 807 Q 383 711 442 670 Q 501 629 643 629 L 643 500 Z"/>
        </g>
        <g transform="matrix(1 0 0 1 1581 1100)">
            <path fill="#000000" stroke="none" d="M 829 -492 Q 557 -492 425 -466.5 Q 293 -441 238.5 -378 Q 184 -315 184 -186 L 371 -186 Q 371 -250 409 -281.5 Q 447 -313 535.5 -326.5 Q 624 -340 827 -340 Q 1022 -340 1118 -310.5 Q 1214 -281 1256 -214 Q 1298 -147 1298 -20 Q 1298 43 1307 90 L 1298 94 Q 1267 28 1220.5 4 Q 1174 -20 1108 -20 Q 917 -20 831 63 Q 745 146 745 328 L 745 768 Q 745 971 563 971 Q 473 971 435 934 Q 397 897 379.5 813.5 Q 362 730 362 578 L 362 0 L 180 0 L 180 578 Q 180 794 213.5 906.5 Q 247 1019 324 1067.5 Q 401 1116 561 1116 Q 752 1116 836 1033.5 Q 920 951 920 768 L 920 328 Q 920 230 963.50006 177.5 Q 1007 125 1094 125 Q 1191 125 1229 161 Q 1267 197 1283.5 282.5 Q 1300 368 1300 518 L 1300 1096 L 1483 1096 L 1483 70 Q 1483 -163 1426 -279 Q 1369 -395 1237 -443.5 Q 1105 -492 829 -492 Z"/>
        </g>
        <g transform="matrix(1 0 0 1 3244 1100)">
            <path fill="#000000" stroke="none" d="M 700 1098 L 700 976 Q 962 1118 1243 1118 L 1401 1118 L 1401 0 L 1225 0 L 1225 977 Q 1094 977 957 936.5 Q 820 896 700 819 L 700 297 Q 700 145 625 72.5 Q 550 0 399 0 L 180 0 L 180 111 Q 180 332 269 524.5 Q 358 717 526 857 L 526 954 L 180 954 L 180 1098 L 700 1098 Z M 332 141 L 420 141 Q 469 141 497.5 175 Q 526 209 526 266 L 526 672 Q 336 452 332 141 Z"/>
        </g>
        <g transform="matrix(1 0 0 1 4825 1100)">
            <path fill="#000000" stroke="none" d="M 1401 426 Q 1401 259 1343 163 Q 1285 67 1158.5 23.500002 Q 1032 -20 782 -20 Q 533 -20 409.50003 31.500002 Q 286 83 233 203 Q 180 323 180 557 Q 180 789 233 904.5 Q 286 1020 410.5 1069 Q 535 1118 793 1118 Q 1046 1118 1167 1076 Q 1288 1034 1344.5 939.5 Q 1401 845 1401 678 L 1231 678 Q 1231 836 1131 905.5 Q 1031 975 786 975 Q 601 975 516 943 Q 431 911 396.5 832 Q 362 753 362 557 Q 362 369 399 283 Q 436 197 525 160 Q 614 123 788 123 Q 959 123 1052 151.5 Q 1145 180 1187 244.50002 Q 1229 309 1229 426 L 1401 426 Z"/>
        </g>
        <g transform="matrix(1 0 0 1 6406 1100)">
            <path fill="#000000" stroke="none" d="M 809 516 L 764 516 L 356 909 L 356 514 L 180 514 L 180 1098 L 381 1098 L 786 705 L 1200 1098 L 1401 1098 L 1401 541 Q 1401 293 1350 181.5 Q 1299 70 1174.5 25 Q 1050 -20 788 -20 Q 553 -20 435.5 6 Q 318 32 257.5 93 Q 197 154 182 264 L 358 264 Q 370 189 460 160 Q 550 131 786 131 Q 977 131 1063 159.5 Q 1149 188 1186 257 Q 1223 326 1223 471 L 1223 934 L 809 516 Z"/>
        </g>
        <g transform="matrix(1 0 0 1 7987 1100)">
            <path fill="#000000" stroke="none" d="M 356 954 L 356 557 Q 356 369 395 283 Q 434 197 524.5 160 Q 615 123 788 123 Q 971 123 1061 159.5 Q 1151 196 1188 282 Q 1225 368 1225 557 L 1225 1098 L 1401 1098 L 1401 557 Q 1401 314 1349 196.50002 Q 1297 79 1169 29.500002 Q 1041 -20 782 -20 Q 533 -20 409.50003 31.500002 Q 286 83 233 203 Q 180 323 180 557 L 180 1462 L 356 1462 L 356 1098 L 674 1098 L 674 954 L 356 954 Z"/>
        </g>
        <g transform="matrix(1 0 0 1 10100 1100)">
            <path fill="#000000" stroke="none" d="M 850 219 Q 850 330 920 394.5 Q 990 459 1118 459 Q 1158 459 1192 444 Q 1153 494 1083.5 522.5 Q 1014 551 922 551 Q 785 551 654 470.49997 Q 523 390 439.49997 256 Q 356 122 356 0 L 180 0 L 180 1098 L 356 1098 L 1372 879 L 1372 729 L 356 946 L 356 563 Q 356 434 338 340 L 348 338 Q 451 514 591.5 601 Q 732 688 922 688 Q 1067 688 1174.5 638 Q 1282 588 1341.5 496.5 Q 1401 405 1401 291 Q 1401 146 1327.5 63 Q 1254 -20 1122 -20 Q 850 -20 850 219 Z M 1245 260 L 1243 299 Q 1178 338 1120 338 Q 1064 338 1029.5 306 Q 995 274 995 219 Q 995 164 1030 132 Q 1065 100 1120 100 Q 1171 100 1208 147 Q 1245 194 1245 260 Z"/>
        </g>
        <g transform="matrix(1 0 0 1 11681 1100)">
            <path fill="#000000" stroke="none" d="M 1401 557 Q 1401 314 1349 196.50002 Q 1297 79 1169 29.500002 Q 1041 -20 782 -20 Q 533 -20 409.50003 31.500002 Q 286 83 233 203 Q 180 323 180 557 Q 180 805 231 916.5 Q 282 1028 406.49997 1073 Q 531 1118 793 1118 Q 1053 1118 1177 1068 Q 1301 1018 1351 901 Q 1401 784 1401 557 Z M 784 580 Q 663 580 552 611.5 Q 441 643 366 694 Q 362 634 362 557 Q 362 369 399 283 Q 436 197 525 160 Q 614 123 788 123 Q 968 123 1056.5 158.5 Q 1145 194 1182 278 Q 1219 362 1219 557 Q 1219 632 1212 691 Q 1129 642 1014.5 611 Q 900 580 784 580 Z M 786 973 Q 599 973 512.5 940 Q 426 907 393 823 Q 484 778 588 749.5 Q 692 721 784 721 Q 882 721 990 749.5 Q 1098 778 1183 820 Q 1144 904 1057 938.5 Q 970 973 786 973 Z"/>
        </g>
        <g transform="matrix(1 0 0 1 13262 1100)">
            <path fill="#000000" stroke="none" d="M 180 801 Q 180 953 252 1025.5 Q 324 1098 475 1098 L 715 1098 L 715 993 Q 715 794 622 607 Q 529 420 356 266 L 356 141 Q 527 141 694.5 205.5 Q 862 270 980 380.5 Q 1098 491 1161.5 645 Q 1225 799 1225 989 L 1225 1098 L 1401 1098 L 1401 -133 Q 1401 -492 1065 -492 L 1012 -492 L 1012 -350 L 1079 -350 Q 1145 -350 1185 -303.5 Q 1225 -257 1225 -170 L 1225 297 Q 1225 426 1243 520 L 1233 522 Q 1213 452 1186.5 404.5 Q 1160 357 1104 297 Q 969 155 767 76.5 Q 565 -2 342 -2 L 180 -2 L 180 801 Z M 356 457 Q 446 558 499 691 Q 552 824 557 956 L 461 956 Q 413 956 384.5 923.5 Q 356 891 356 831 L 356 457 Z"/>
        </g>
        <g transform="matrix(1 0 0 1 14843 1100)">
            <path fill="#000000" stroke="none" d="M 1360 281 Q 1360 197 1382.5 165 Q 1405 133 1468 133 L 1468 -8 Q 1354 -8 1294.5 12.5 Q 1235 33 1209.5 81 Q 1184 129 1184 254 L 1184 911 Q 1018 911 860 845.5 Q 702 780 589.5 667 Q 477 554 416.5 396.5 Q 356 239 356 47 L 356 0 L 180 0 L 180 942 Q 180 1190 231 1301.5 Q 282 1413 406.49997 1458 Q 531 1503 793 1503 Q 1023 1503 1138.5 1476.5 Q 1254 1450 1306 1390.4999 Q 1358 1331 1358 1219 L 1171 1219 Q 1171 1277 1138 1305.5 Q 1105 1334 1028.5 1346 Q 952 1358 795 1358 Q 606 1358 518.5 1328 Q 431 1298 393.50003 1227 Q 356 1156 356 1012 L 356 739 Q 356 610 338 516 L 348 514 Q 369 586 394.5 631.5 Q 420 677 477 739 Q 624 895 811 975 Q 998 1055 1198 1055 L 1360 1055 L 1360 281 Z"/>
        </g>
        <g transform="matrix(1 0 0 1 16424 1100)">
            <path fill="#000000" stroke="none" d="M 1110 1118 Q 1249 1118 1325 1050 Q 1401 982 1401 840 Q 1401 764 1365.5 687 Q 1330 610 1257.5 535.5 Q 1185 461 1126 434 L 1401 27 L 1401 0 L 834 0 L 834 141 L 1165 141 L 958 451 Q 1103 533 1164 623.5 Q 1225 714 1225 834 Q 1225 898 1185 936.5 Q 1145 975 1081 975 Q 962 975 822 901 Q 682 827 576 707.50006 Q 470 588 413 435 Q 356 282 356 109 L 356 -492 L 180 -492 L 180 1098 L 356 1098 L 356 801 Q 356 672 338 578 L 348 575 Q 377 673 424 737.50006 Q 471 802 559 880 Q 647 958 734 1009 Q 821 1060 915.5 1089 Q 1010 1118 1110 1118 Z"/>
        </g>
        <g transform="matrix(1 0 0 1 18005 1100)">
            <path fill="#000000" stroke="none" d="M 743 768 Q 743 947 830 1031.5 Q 917 1116 1110 1116 Q 1267 1116 1342.5 1068.5 Q 1418 1021 1450.4999 910 Q 1483 799 1483 578 L 1483 0 L 1300 0 L 1300 578 Q 1300 728 1283 812.5 Q 1266 897 1228.5 934 Q 1191 971 1108 971 Q 918 971 918 768 L 918 328 Q 918 149 829 64.5 Q 740 -20 547 -20 Q 391 -20 317 27.500002 Q 243 75 211.49998 185 Q 180 295 180 518 L 180 1096 L 362 1096 L 362 518 Q 362 363 379 280 Q 396 197 433.5 161 Q 471 125 561 125 Q 649 125 696 178.5 Q 743 232 743 328 L 743 768 Z"/>
        </g>
        <g transform="matrix(1 0 0 1 20200 1100)">
            <path fill="#000000" stroke="none" d="M 180 572 L 180 616 Q 180 804 239 913 Q 298 1022 424 1070 Q 550 1118 799 1118 Q 1048 1118 1171.5 1066.5 Q 1295 1015 1348 895 Q 1401 775 1401 541 Q 1401 309 1346.5 194 Q 1292 79 1165.5 29.500002 Q 1039 -20 788 -20 Q 532 -20 411.5 22 Q 291 64 235.49998 159 Q 180 254 180 420 L 354 420 Q 354 306 396 242.5 Q 438 179 528 151 Q 618 123 795 123 Q 936 123 1013.5 140 Q 1091 157 1134.5 195 Q 1178 233 1197.5 302 Q 1217 371 1219 526 L 182 526 L 180 572 Z M 793 975 Q 626 975 537 948.5 Q 448 922 406.49997 862 Q 365 802 356 668 L 1213 668 Q 1204 789 1160.5 854 Q 1117 919 1030.5 947 Q 944 975 793 975 Z"/>
        </g>
        <g transform="matrix(1 0 0 1 21781 1100)">
            <path fill="#000000" stroke="none" d="M 180 1036 L 356 1036 L 1225 229 L 1225 1012 Q 1225 1157 1187.5 1227 Q 1150 1297 1063 1327.5 Q 976 1358 786 1358 Q 561 1358 472 1327.5 Q 383 1297 373 1219 L 182 1219 Q 197 1330 258 1390.4999 Q 319 1451 437 1477 Q 555 1503 788 1503 Q 1051 1503 1175 1458 Q 1299 1413 1350 1302 Q 1401 1191 1401 942 L 1401 0 L 1225 0 L 356 817 L 356 0 L 180 0 L 180 1036 Z"/>
        </g>
        <g transform="matrix(1 0 0 1 23362 1100)">
            <path fill="#000000" stroke="none" d="M 407 424 Q 374 319 365 250 Q 356 181 356 109 L 356 0 L 180 0 L 180 1098 L 356 1098 L 356 801 Q 356 672 338 578 L 348 575 Q 370 649 397 696 Q 424 743 477 801 Q 617 948 824 1033 Q 1031 1118 1243 1118 L 1401 1118 L 1401 0 L 1225 0 L 1225 424 L 407 424 Z M 1225 981 Q 1086 981 945 933.5 Q 804 886 681.5 795 Q 559 704 473 565 L 1225 565 L 1225 981 Z"/>
        </g>
        <g transform="matrix(1 0 0 1 24943 1100)">
            <path fill="#000000" stroke="none" d="M 764 -492 Q 509 -492 391 -449 Q 273 -406 226.5 -297.5 Q 180 -189 180 70 L 180 422 L 356 422 Q 356 303 395.5 240.5 Q 435 178 524 150.5 Q 613 123 793 123 Q 929 123 1010.5 142 Q 1092 161 1136.5 201.5 Q 1181 242 1200 317.5 Q 1219 393 1219 557 Q 1219 740 1183 823 Q 1147 906 1060.5 940.5 Q 974 975 795 975 Q 554 975 453 904 Q 352 833 352 674 L 182 674 Q 182 840 240.5 935.5 Q 299 1031 424.50003 1074.5 Q 550 1118 788 1118 Q 1044 1118 1169.5 1069.5 Q 1295 1021 1348 903.5 Q 1401 786 1401 557 Q 1401 320 1347 202 Q 1293 84 1167.5 32 Q 1042 -20 799 -20 Q 625 -20 554 -10.5 Q 483 -1 441 21.500002 Q 399 44 365 94 L 356 90 Q 365 43 365 0 Q 365 -155 398 -223 Q 431 -291 510.5 -319.5 Q 590 -348 766 -348 Q 959 -348 1039 -335 Q 1119 -322 1153.5 -289.5 Q 1188 -257 1188 -186 L 1368 -186 Q 1368 -317 1317 -379 Q 1266 -441 1146 -466.5 Q 1026 -492 764 -492 Z"/>
        </g>
        <g transform="matrix(1 0 0 1 26524 1100)">
            <path fill="#000000" stroke="none" d="M 788 -492 Q 528 -492 411.5 -468.5 Q 295 -445 250 -387 Q 205 -329 205 -186 L 385 -186 Q 385 -259 418.5 -290 Q 452 -321 531.5 -334.5 Q 611 -348 786 -348 Q 970 -348 1056.5 -318.5 Q 1143 -289 1180 -218.5 Q 1217 -148 1217 0 Q 1217 48 1225 90 L 1217 94 Q 1183 44 1140.5 21.500002 Q 1098 -1 1026.5 -10.5 Q 955 -20 782 -20 Q 533 -20 409.50003 31.500002 Q 286 83 233 203 Q 180 323 180 557 Q 180 805 231 916.5 Q 282 1028 406.49997 1073 Q 531 1118 793 1118 Q 1039 1118 1161.5 1075.5 Q 1284 1033 1341.5 938.5 Q 1399 844 1399 678 L 1229 678 Q 1229 835 1130.5 905 Q 1032 975 786 975 Q 601 975 516 943 Q 431 911 396.5 832 Q 362 753 362 557 Q 362 369 399 283 Q 436 197 525 160 Q 614 123 788 123 Q 959 123 1051 151.5 Q 1143 180 1184 243 Q 1225 306 1225 426 L 1401 426 L 1401 70 Q 1401 -178 1349.5 -289.5 Q 1298 -401 1176 -446.5 Q 1054 -492 788 -492 Z"/>
        </g>
        <g transform="matrix(1 0 0 1 28105 1100)">
            <path fill="#000000" stroke="none" d="M 1075 -346 L 1075 -492 L 793 -492 Q 531 -492 407.49997 -447 Q 284 -402 232 -290.5 Q 180 -179 180 70 L 180 436 L 526 436 L 526 295 L 365 295 Q 365 206 468.5 164.5 Q 572 123 793 123 Q 909 123 994 133 Q 1079 143 1125.5 162 Q 1172 181 1195.5 212.50002 Q 1219 244 1219 299 Q 1219 372 1162 409.50003 Q 1105 447 938 475 L 514 547 Q 394 568 327.5 598.5 Q 261 629 231 675.5 Q 201 722 201 813 Q 201 930 261 993 Q 321 1056 449.5 1087 Q 578 1118 793 1118 Q 1028 1118 1148.5 1080 Q 1269 1042 1324.5 956 Q 1380 870 1380 719 L 1210 719 Q 1210 853 1115.5 913 Q 1021 973 786 973 Q 586 973 484.5 940.5 Q 383 908 383 831 Q 383 766 443 735.49994 Q 503 705 643 684 L 1020 623 Q 1169 598 1250 561 Q 1331 524 1366 466.5 Q 1401 409 1401 297 Q 1401 177 1337.5 111 Q 1274 45 1139 12.5 Q 1004 -20 784 -20 Q 569 -20 471.49997 10 Q 374 40 342 106 L 334 104 Q 356 46 360.50003 8 Q 365 -30 365 -76 Q 365 -186 403.5 -241 Q 442 -296 530.5 -321 Q 619 -346 793 -346 L 1075 -346 Z"/>
        </g>
        <g transform="matrix(1 0 0 1 30218 1100)">
            <path fill="#000000" stroke="none" d="M 354 109 L 354 0 L 180 0 L 180 1098 L 354 1098 L 354 801 Q 354 672 336 578 L 346 575 Q 368 649 395 696 Q 422 743 475 801 Q 613 947 821 1032.5 Q 1029 1118 1243 1118 L 1401 1118 L 1401 -133 Q 1401 -492 1065 -492 L 1012 -492 L 1012 -350 L 1079 -350 Q 1145 -350 1185 -303.5 Q 1225 -257 1225 -170 L 1225 981 Q 1057 981 889 912.5 Q 721 844 601.5 728.5 Q 482 613 418 456 Q 354 299 354 109 Z"/>
        </g>
        <g transform="matrix(1 0 0 1 31799 1100)">
            <path fill="#000000" stroke="none" d="M 850 219 Q 850 459 1118 459 Q 1168 459 1225 436 L 1225 981 Q 1057 981 890 912.5 Q 723 844 604 730 Q 485 616 420.5 457.50003 Q 356 299 356 109 L 356 0 L 180 0 L 180 1098 L 356 1098 L 356 801 Q 356 672 338 578 L 348 575 Q 370 649 397 696 Q 424 743 477 801 Q 617 948 824 1033 Q 1031 1118 1243 1118 L 1401 1118 L 1401 311 Q 1401 -20 1122 -20 Q 850 -20 850 219 Z M 1120 338 Q 1064 338 1029.5 306 Q 995 274 995 219 Q 995 164 1030 132 Q 1065 100 1120 100 Q 1225 100 1225 281 L 1225 312 Q 1215 319 1184 328.5 Q 1153 338 1120 338 Z"/>
        </g>
        <g transform="matrix(1 0 0 1 33380 1100)">
            <path fill="#000000" stroke="none" d="M 1225 557 Q 1225 732 1188 817.5 Q 1151 903 1064.5 939 Q 978 975 795 975 Q 568 975 462 920.5 Q 356 866 356 745 Q 356 643 384 597 Q 412 551 498 496 Q 581 615 645.5 661 Q 710 707 795 707 Q 882 707 941.5 655 Q 1001 603 1001 518 Q 1001 452 967.5 401.5 Q 934 351 875.5 322 Q 817 293 752 293 Q 706 293 651 308 Q 596 323 555 348 L 420 141 L 748 141 L 748 0 L 180 0 L 180 27 L 434 401 Q 326 463 279.5 509.5 Q 233 556 206.5 614.5 Q 180 673 180 752 Q 180 939 328.5 1028.5 Q 477 1118 788 1118 Q 1055 1118 1178.5 1073 Q 1302 1028 1351.5 917.5 Q 1401 807 1401 557 L 1401 0 L 1225 0 L 1225 557 Z M 788 602 Q 753 602 721.5 575 Q 690 548 614 436 Q 623 427 669.5 411 Q 716 395 750 395 Q 805 395 842 423 Q 879 451 879 504 Q 879 552 852.5 577 Q 826 602 788 602 Z"/>
        </g>
        <g transform="matrix(1 0 0 1 34961 1100)">
            <path fill="#000000" stroke="none" d="M 788 123 Q 965 123 1056 151 Q 1147 179 1188 244 Q 1229 309 1229 426 L 1401 426 Q 1401 262 1340 165.5 Q 1279 69 1149 24.499998 Q 1019 -20 782 -20 Q 533 -20 409.50003 31.500002 Q 286 83 233 203 Q 180 323 180 557 Q 180 789 233 904.5 Q 286 1020 410.5 1069 Q 535 1118 793 1118 Q 1039 1118 1161 1075 Q 1283 1032 1339.5 932 Q 1396 832 1401 651 L 363 482 L 368 412 Q 386 247 478.5 185 Q 571 123 788 123 Z M 1210 768 Q 1193 876 1096.5 924.49994 Q 1000 973 786 973 Q 611 973 526 945 Q 441 917 404 847 Q 367 777 363 631 L 1210 768 Z"/>
        </g>
        <g transform="matrix(1 0 0 1 36542 1100)">
            <path fill="#000000" stroke="none" d="M 1401 0 L 1225 0 Q 1194 165 1092.5 310 Q 991 455 840 543 Q 689 631 530 631 L 530 301 Q 530 128 453.5 60 Q 377 -8 180 -8 L 180 133 Q 259 133 306.5 174 Q 354 215 354 287 L 354 768 L 545 768 Q 691 768 837.5 708 Q 984 648 1089.5 543 Q 1195 438 1233 309 L 1243 311 Q 1225 405 1225 535 L 1225 956 L 180 956 L 180 1098 L 1401 1098 L 1401 0 Z"/>
        </g>
        <g transform="matrix(1 0 0 1 38123 1100)">
            <path fill="#000000" stroke="none" d="M 793 975 Q 621 975 528.5 946.5 Q 436 918 394 852.5 Q 352 787 352 672 L 180 672 Q 180 837 240.5 933 Q 301 1029 430.5 1073.5 Q 560 1118 799 1118 Q 1048 1118 1171.5 1066.5 Q 1295 1015 1348 895 Q 1401 775 1401 541 Q 1401 309 1349 193.5 Q 1297 78 1171 29 Q 1045 -20 788 -20 Q 561 -20 452.5 0 Q 344 20 279 64.5 Q 214 109 184 188 L 1102 913 Q 1011 975 793 975 Z M 795 125 Q 982 125 1066 156.5 Q 1150 188 1184.5 265 Q 1219 342 1219 541 Q 1219 707 1191 791 L 408 178 Q 455 152 541 138.5 Q 627 125 795 125 Z"/>
        </g>
        <g transform="matrix(1 0 0 1 40236 1100)">
            <path fill="#000000" stroke="none" d="M 180 0 L 180 156 L 993 950 L 221 950 L 221 1098 L 1339 1098 L 1339 1071 L 383 141 L 569 141 Q 742 336 925 433 Q 1108 530 1294 530 L 1401 530 L 1401 268 Q 1401 171 1370.5 112 Q 1340 53 1278.5 26.499998 Q 1217 0 1104 0 L 180 0 Z M 1108 141 Q 1164 141 1194.5 171 Q 1225 201 1225 254 L 1225 377 Q 1147 374 1078 349 Q 1009 324 945.5 285 Q 882 246 762 141 L 1108 141 Z"/>
        </g>
        <g transform="matrix(1 0 0 1 41817 1100)">
            <path fill="#000000" stroke="none" d="M 356 1098 L 356 125 Q 525 125 692.5 192.5 Q 860 260 978.5 373 Q 1097 486 1161 643 Q 1225 800 1225 989 L 1225 1098 L 1401 1098 L 1401 0 L 1225 0 L 1225 297 Q 1225 426 1243 520 L 1233 522 Q 1210 443 1184 396 Q 1158 349 1110 297 Q 975 152 765 67 Q 555 -18 338 -18 L 180 -18 L 180 1098 L 356 1098 Z"/>
        </g>
        <g transform="matrix(1 0 0 1 43398 1100)">
            <path fill="#000000" stroke="none" d="M 1225 1462 L 1401 1462 L 1401 557 Q 1401 314 1349 196.50002 Q 1297 79 1169 29.500002 Q 1041 -20 782 -20 Q 533 -20 409.50003 31.500002 Q 286 83 233 203 Q 180 323 180 557 L 180 1098 L 354 1098 L 354 557 Q 354 371 393.50003 284 Q 433 197 524.5 160 Q 616 123 788 123 Q 971 123 1061 159.5 Q 1151 196 1188 282 Q 1225 368 1225 557 L 1225 956 L 907 956 L 907 1098 L 1225 1098 L 1225 1462 Z"/>
        </g>
        <g transform="matrix(1 0 0 1 44979 1100)">
            <path fill="#000000" stroke="none" d="M 363 408 L 784 733 L 1218 414 Q 1225 477 1225 557 L 1225 1098 L 1401 1098 L 1401 557 Q 1401 314 1349 196.50002 Q 1297 79 1169 29.500002 Q 1041 -20 782 -20 Q 533 -20 409.50003 31.500002 Q 286 83 233 203 Q 180 323 180 557 L 180 1098 L 356 1098 L 356 557 Q 356 475 363 408 Z M 788 123 Q 959 123 1048 154.5 Q 1137 186 1175 256 L 784 545 L 408 257 Q 450 186 539 154.5 Q 628 123 788 123 Z"/>
        </g>
    </g>
</svg>
