<svg width="46614" height="3789" viewBox="0 0 46614 3789" xmlns="http://www.w3.org/2000/svg">
    <defs/>
    <g transform="matrix(1 0 0 -1 0 3789)">
        <g transform="matrix(1 0 0 1 0 1100)">
            <path fill="#000000" stroke="none" d="M 619 116 Q 750 116 820 200.5 Q 890 285 890 441 Q 890 629 788 629 Q 739 629 716.5 593 Q 694 557 693 489 L 690 372 L 569 372 Q 564 421 564 493 Q 564 622 624.5 693 Q 685 764 789 764 Q 913 764 977 677.5 Q 1041 591 1041 434 Q 1041 223 927.49994 101.49999 Q 814 -20 617 -20 Q 406 -20 304 104 Q 202 228 202 495 L 202 1204 L 50 1219 L 50 1324 L 522 1324 L 522 1219 L 370 1204 L 370 479 Q 370 297 431 206.5 Q 492 116 619 116 Z"/>
        </g>
        <g transform="matrix(1 0 0 1 1181 1100)">
            <path fill="#000000" stroke="none" d="M 1114 118 Q 1227 118 1287.5 180 Q 1348 242 1360 389 L 1194 403 L 1194 508 L 1643 508 L 1643 403 L 1506 389 Q 1490 194 1388 87 Q 1286 -20 1116 -20 Q 933 -20 771 130 Q 699 57 615 18.5 Q 531 -20 444 -20 Q 264 -20 167.5 83.5 Q 71 187 71 375 Q 71 438 78 479 L 219 479 L 217 457 L 217 441 Q 217 282 275.5 200 Q 334 118 445 118 Q 562 118 670 232 Q 546 378 475.5 553 Q 405 728 405 899 Q 405 1102 506 1223 Q 607 1344 780 1344 Q 945 1344 1040 1232 Q 1135 1120 1135 931 Q 1135 766 1061 573.5 Q 987 381 870 240 Q 985 118 1114 118 Z M 571 921 Q 571 773 624 617 Q 677 461 774 333 Q 861 462 916.5 625 Q 972 788 972 921 Q 972 1061 923 1134.5 Q 874 1208 779 1208 Q 683 1208 627 1128.5 Q 571 1049 571 921 Z"/>
        </g>
        <g transform="matrix(1 0 0 1 2829 1100)">
            <path fill="#000000" stroke="none" d="M 450 120 L 602 105 L 602 0 L 130 0 L 130 105 L 282 120 L 282 898 L 130 913 L 130 1018 L 589 1018 L 589 913 L 450 898 L 450 702 L 545 702 Q 739 702 832 781.5 Q 925 861 925 1022 Q 925 1162 828.49994 1236 Q 732 1310 554 1310 Q 468 1310 380 1291.5 Q 292 1273 227 1242 L 174 1354 Q 239 1399 344 1424.5 Q 449 1450 562 1450 Q 796 1450 939.5 1335.5 Q 1083 1221 1083 1029 Q 1083 809 948 690.5 Q 813 572 550 572 L 450 572 L 450 120 Z"/>
        </g>
        <g transform="matrix(1 0 0 1 4024 1100)">
            <path fill="#000000" stroke="none" d="M 1427 1324 L 1427 1219 L 1277 1204 L 1277 120 L 1427 105 L 1427 0 L 957 0 L 957 105 L 1107 120 L 1107 619 L 436 619 L 436 120 L 587 105 L 587 0 L 115 0 L 115 105 L 266 120 L 266 1204 L 115 1219 L 115 1324 L 587 1324 L 587 1219 L 436 1204 L 436 749 L 1107 749 L 1107 1204 L 957 1219 L 957 1324 L 1427 1324 Z"/>
        </g>
        <g transform="matrix(1 0 0 1 5536 1100)">
            <path fill="#000000" stroke="none" d="M 1499 899 Q 1540 851 1607 851 Q 1670 851 1707.5 897 Q 1745 943 1745 1014 Q 1745 1105 1690 1155.5 Q 1635 1206 1536 1206 Q 1455 1206 1391.5 1160.5 Q 1328 1115 1291 1028.5 Q 1254 942 1249 814 L 1106 814 L 1104 886 Q 1102 971 1072.5 1045.5 Q 1043 1120 978 1161 Q 913 1202 816 1206 L 816 479 Q 816 235 727.5 107.5 Q 639 -20 472 -20 Q 110 -20 110 567 Q 110 797 190 974 Q 270 1151 419.5 1247.5 Q 569 1344 774 1344 Q 1114 1344 1190 1085 L 1195 1085 Q 1237 1209 1326 1276.5 Q 1415 1344 1538 1344 Q 1645 1344 1725 1303.5 Q 1805 1263 1847.5 1190 Q 1890 1117 1890 1024 Q 1890 895 1811 809.5 Q 1732 724 1608 724 Q 1478 724 1412 811 L 1499 899 Z M 474 120 Q 565 120 607.5 203 Q 650 286 650 467 L 650 1198 Q 478 1161 380 991.49994 Q 282 822 282 570 Q 282 320 326 220 Q 370 120 474 120 Z"/>
        </g>
        <g transform="matrix(1 0 0 1 7416 1100)">
            <path fill="#000000" stroke="none" d="M 60 253 Q 156 255 208.5 308.5 Q 261 362 261 450 Q 261 534 218 585.5 Q 175 637 87 645 L 87 767 Q 246 763 339 655 Q 495 764 594.5 873.5 Q 694 983 698 1067 L 698 1204 L 541 1219 L 541 1324 L 1014 1324 L 1014 1219 L 857 1204 L 857 1022 Q 1159 975 1303.5 838.5 Q 1448 702 1448 460 Q 1448 329 1389.5 219 Q 1331 109 1226 47 Q 1121 -15 987 -15 Q 823 -15 730 64.5 Q 637 144 637 278 Q 637 406 719.5 483 Q 802 560 936 562 L 936 440 Q 868 437 830 396.5 Q 792 356 792 289 Q 792 208 845.5 161.5 Q 899 115 984 115 Q 1069 115 1136.5 159 Q 1204 203 1240.5 281.5 Q 1277 360 1277 453 Q 1277 566 1247 639 Q 1217 712 1160 761.5 Q 1103 811 1012 845 Q 921 879 800 894 Q 733 793 623 693.5 Q 513 594 401 524 Q 408 486 408 450 Q 408 310 312.5 223 Q 217 136 61 132 L 60 253 Z"/>
        </g>
        <g transform="matrix(1 0 0 1 9456 1100)">
            <path fill="#000000" stroke="none" d="M 1383 1219 L 1233 1204 L 1233 414 Q 1233 207 1103.5 95 Q 974 -17 731 -17 Q 471 -17 345.50003 91.5 Q 220 200 220 428 L 220 1204 L 70 1219 L 70 1324 L 540 1324 L 540 1219 L 388 1204 L 388 780 L 1065 780 L 1065 1204 L 913 1219 L 913 1324 L 1383 1324 L 1383 1219 Z M 731 123 Q 903 123 984 197 Q 1065 271 1065 435 L 1065 650 L 388 650 L 388 444 Q 388 275 471.49997 199 Q 555 123 731 123 Z"/>
        </g>
        <g transform="matrix(1 0 0 1 10909 1100)">
            <path fill="#000000" stroke="none" d="M 334 634 Q 235 634 155 678 Q 75 722 29 802 L 115 886 Q 175 828 225 805 Q 275 782 341 782 Q 382 782 425 796 Q 468 810 514.5 839.5 Q 561 869 643 941 Q 725 1013 728 1029 L 728 1204 L 571 1219 L 571 1324 L 1044 1324 L 1044 1219 L 888 1204 L 888 1032 Q 1154 1004 1287 876.5 Q 1420 749 1420 498 Q 1420 355 1351 235.49998 Q 1282 116 1158.5 48 Q 1035 -20 885 -20 Q 738 -20 632.5 29.500002 Q 527 79 468 181 Q 409 283 409 419 L 562 419 Q 562 332 603.5 261 Q 645 190 716.5 155 Q 788 120 885 120 Q 1051 120 1151.5 228 Q 1252 336 1252 513 Q 1252 703 1149 799 Q 1046 895 851 899 Q 810 895 717 819 Q 595 716 505.50003 675 Q 416 634 334 634 Z"/>
        </g>
        <g transform="matrix(1 0 0 1 12299 1100)">
            <path fill="#000000" stroke="none" d="M 822 1218 L 822 1324 L 1300 1324 L 1300 1219 L 1146 1204 L 1321 513 Q 1358 371 1407 140 L 1417 140 Q 1446 252 1477.5 365 Q 1509 478 1728 1204 L 1571 1219 L 1571 1324 L 2043 1324 L 2043 1219 L 1893 1204 L 1505 0 L 1303 0 L 1138 625 Q 1102 759 1063 967 L 1053 967 Q 996 741 927 523 L 762 0 L 560 0 L 227 1204 L 76 1219 L 76 1324 L 558 1324 L 558 1219 L 409 1204 L 585 512 Q 643 280 671 143 L 681 143 Q 704 235 732.49994 337.5 Q 761 440 980 1178 L 974 1204 L 822 1218 Z"/>
        </g>
        <g transform="matrix(1 0 0 1 14422 1100)">
            <path fill="#000000" stroke="none" d="M 436 570 L 597 760 L 1000 1209 L 856 1219 L 856 1324 L 1314 1324 L 1314 1219 L 1186 1208 L 781 771 L 1222 121 L 1353 105 L 1353 0 L 870 0 L 870 105 L 1017 120 L 664 645 L 541 511 L 436 407 L 436 120 L 587 105 L 587 0 L 115 0 L 115 105 L 267 120 L 267 1204 L 115 1219 L 115 1324 L 587 1324 L 587 1219 L 436 1204 L 436 570 Z"/>
        </g>
        <g transform="matrix(1 0 0 1 15850 1100)">
            <path fill="#000000" stroke="none" d="M 1119 779 Q 1188 779 1230.5 743 Q 1273 707 1273 651 Q 1273 606 1244 575 Q 1215 544 1163 544 Q 1124 544 1100 564.5 Q 1076 585 1074 626 Q 1026 612 1000 556 Q 974 500 974 411 Q 974 331 1007 265.5 Q 1040 200 1103 160 Q 1166 120 1256 120 Q 1450 120 1558.5 270.5 Q 1667 421 1667 680 Q 1667 833 1606.5 953 Q 1546 1073 1439.5 1138.5 Q 1333 1204 1205 1204 Q 1098 1204 1000.5 1166.5 Q 903 1129 842 1063 L 742 1150 Q 812 1242 936 1293 Q 1060 1344 1212 1344 Q 1394 1344 1538 1260 Q 1682 1176 1761.5 1023 Q 1841 870 1841 680 Q 1841 358 1681.5001 169 Q 1522 -20 1246 -20 Q 1105 -20 1005 44 Q 905 108 874 220 L 863 220 Q 810 103 712.5 41.5 Q 615 -20 489 -20 Q 286 -20 178 95.5 Q 70 211 70 419 Q 70 509 94 602 Q 118 695 151 735 L 292 729 Q 267 681 249.5 606.5 Q 232 532 232 450 Q 232 291 299 205.5 Q 366 120 489 120 Q 617 120 701.49994 208.5 Q 786 297 821 469 Q 856 634 930.50006 706.50006 Q 1005 779 1119 779 Z"/>
        </g>
        <g transform="matrix(1 0 0 1 17856 1100)">
            <path fill="#000000" stroke="none" d="M 40 455 Q 48 549 103.5 626.5 Q 159 704 251.49998 747 Q 344 790 457 790 L 532 785 Q 576 844 591 918.5 Q 606 993 606 1076 L 606 1208 L 449 1213 L 449 1324 L 922 1324 L 922 1213 L 769 1208 L 769 1040 Q 782 1000 865 1000 Q 906 1000 958 1026 Q 1010 1052 1100 1123 Q 1199 1201 1248 1229 Q 1297 1257 1347.5 1273.5 Q 1398 1290 1452 1290 Q 1586 1290 1668 1215.5 Q 1750 1141 1750 1016 Q 1750 888 1664 802.50006 Q 1578 717 1432 699 L 1432 826 Q 1507 840 1556 888.5 Q 1605 937 1605 1003 Q 1605 1076 1561.5 1110.5 Q 1518 1145 1449 1145 Q 1409 1145 1372 1132.5 Q 1335 1120 1298 1097.5 Q 1261 1075 1174 1008 Q 1078 933 1035.5 908.5 Q 993 884 950.5 869.5 Q 908 855 865 855 Q 787 855 745 897 Q 723 815 679 751 Q 803 698 870.5 598 Q 938 498 938 367 Q 938 191 853.5 88 Q 769 -15 617 -15 Q 474 -15 394.5 67.5 Q 315 150 315 294 Q 315 487 444 663 L 433 664 L 422 664 Q 333 664 262 606.5 Q 191 549 171 455 L 40 455 Z M 785 367 Q 785 470 733.49994 542 Q 682 614 600 641 Q 525 550 495 475.5 Q 465 401 465 316 Q 465 222 505 169.5 Q 545 117 619 117 Q 697 117 741 181 Q 785 245 785 367 Z"/>
        </g>
        <g transform="matrix(1 0 0 1 20198 1100)">
            <path fill="#000000" stroke="none" d="M 490 706 Q 509 605 558.5 559.5 Q 608 514 701 514 Q 817 514 908 565 Q 999 616 1045 702 L 1045 780 Q 1045 1010 961.50006 1110 Q 878 1210 709 1210 Q 652 1210 599 1193.5 Q 546 1177 524 1154 Q 577 1127 577 1069 Q 577 1026 549.5 1000.5 Q 522 975 477 975 Q 425 975 394 1005 Q 363 1035 363 1089 Q 363 1166 412.5 1223.5 Q 462 1281 547.5 1312.5 Q 633 1344 728 1344 Q 980 1344 1096.5 1205 Q 1213 1066 1213 765 L 1213 120 L 1364 105 L 1364 0 L 881 0 L 881 105 L 1045 120 L 1045 507 Q 909 375 700 375 Q 573 375 492 423 Q 411 471 369 572 L 199 572 L 190 397 L 60 397 L 60 871 L 190 871 L 199 706 L 490 706 Z"/>
        </g>
        <g transform="matrix(1 0 0 1 21622 1100)">
            <path fill="#000000" stroke="none" d="M 723 817 Q 837 898 953 898 Q 1080 898 1154 831 Q 1228 764 1228 653 Q 1228 588 1193 544 Q 1158 500 1098 500 Q 1053 500 1025 524.5 Q 997 549 997 591 Q 997 625 1019.5 649 Q 1042 673 1086 678 Q 1082 723 1045 746.5 Q 1008 770 945 770 Q 892 770 827.5 737.50006 Q 763 705 723 658 L 723 120 L 875 105 L 875 0 L 404 0 L 404 105 L 555 120 L 555 549 Q 508 512 446 489.50003 Q 384 467 325 467 Q 198 467 124 534 Q 50 601 50 712 Q 50 779 85 822 Q 120 865 179 865 Q 222 865 251.49998 840.5 Q 281 816 281 774 Q 281 742 260.5 716.5 Q 240 691 192 687 Q 195 642 233.5 618.5 Q 272 595 333 595 Q 387 595 450 626 Q 513 657 555 708 L 555 1204 L 404 1219 L 404 1324 L 875 1324 L 875 1219 L 723 1204 L 723 817 Z"/>
        </g>
        <g transform="matrix(1 0 0 1 22870 1100)">
            <path fill="#000000" stroke="none" d="M 802 738 L 828 687 Q 1030 729 1030 945 Q 1030 1077 943 1135.5 Q 856 1194 653 1194 L 435 1194 L 435 120 L 595 105 L 595 0 L 115 0 L 115 105 L 267 120 L 267 1204 L 115 1219 L 115 1324 L 676 1324 Q 930 1324 1067.5 1233 Q 1205 1142 1205 971 Q 1205 817 1121.5 717 Q 1038 617 880 588 L 1125 117 L 1310 105 L 1310 0 L 826 0 L 826 105 L 933 115 L 643 738 L 802 738 Z"/>
        </g>
        <g transform="matrix(1 0 0 1 24220 1100)">
            <path fill="#000000" stroke="none" d="M 527 116 Q 635 116 713 182 Q 791 248 826 360 Q 603 446 464 537 Q 325 628 260 727 Q 195 826 195 955 Q 195 1063 246 1152.5 Q 297 1242 390.49997 1293 Q 484 1344 607 1344 Q 827 1344 939 1191 Q 1051 1038 1051 744 Q 1051 526 986.5 344.50003 Q 922 163 807 71.5 Q 692 -20 528 -20 Q 322 -20 211 92.5 Q 100 205 100 415 Q 100 453 106 478 L 252 478 L 251 461 L 251 445 Q 251 284 320.5 200 Q 390 116 527 116 Z M 605 1213 Q 500 1213 430 1139 Q 360 1065 360 958 Q 360 815 474 712 Q 588 609 864 497 Q 884 613 884 750 Q 884 992 815.5 1102.5 Q 747 1213 605 1213 Z"/>
        </g>
        <g transform="matrix(1 0 0 1 25416 1100)">
            <path fill="#000000" stroke="none" d="M 426 782 Q 507 782 568.5 751.5 Q 630 721 666 665 L 676 665 Q 674 683 670.5 749 Q 667 815 667 859 L 667 1204 L 515 1219 L 515 1324 L 985 1324 L 985 1219 L 835 1204 L 835 536 Q 835 -20 426 -20 Q 255 -20 152.5 88 Q 50 196 50 374 Q 50 560 153 671 Q 256 782 426 782 Z M 432 114 Q 542 114 603 195 Q 664 276 664 414 Q 664 519 601 583.5 Q 538 648 441 648 Q 368 648 315 617.5 Q 262 587 234 524.5 Q 206 462 206 379 Q 206 257 267 185.5 Q 328 114 432 114 Z"/>
        </g>
        <g transform="matrix(1 0 0 1 26453 1100)">
            <path fill="#000000" stroke="none" d="M 1349 105 L 1349 0 L 878 0 L 878 105 L 1029 120 L 1029 452 Q 1029 607 968 688 Q 907 769 774 769 Q 603 769 519 671.5 Q 435 574 435 373 L 435 120 L 586 105 L 586 0 L 115 0 L 115 105 L 267 120 L 267 1204 L 115 1219 L 115 1324 L 598 1324 L 598 1219 L 435 1204 L 435 893 Q 435 782 427 726 L 439 726 Q 542 909 792 909 Q 996 909 1096.5 799.49994 Q 1197 690 1197 461 L 1197 120 L 1349 105 Z"/>
        </g>
        <g transform="matrix(1 0 0 1 28394 1100)">
            <path fill="#000000" stroke="none" d="M 1391 443 L 1141 443 L 1141 -143 L 992 -143 L 992 133 L 984 133 Q 926 53 848.5 16.5 Q 771 -20 668 -20 Q 492 -20 396 80.5 Q 300 181 300 391 L 300 940 L 50 940 L 50 1070 L 304 1070 L 310 1324 L 468 1324 L 468 1070 L 788 1070 L 788 940 L 468 940 L 468 397 Q 468 262 524 191 Q 580 120 688 120 Q 992 120 992 437 L 992 443 L 742 443 L 742 573 L 1391 573 L 1391 443 Z"/>
        </g>
        <g transform="matrix(1 0 0 1 29795 1100)">
            <path fill="#000000" stroke="none" d="M 1148 395 Q 1148 199 1007 99.5 Q 866 0 587 0 L 115 0 L 115 105 L 266 120 L 266 1204 L 115 1219 L 115 1324 L 598 1324 L 598 1219 L 434 1204 L 434 768 L 617 768 Q 894 768 1021 676 Q 1148 584 1148 395 Z M 434 130 L 610 130 Q 805 130 892 196 Q 979 262 979 391 Q 979 523 898.50006 580.5 Q 818 638 616 638 L 434 638 L 434 130 Z"/>
        </g>
        <g transform="matrix(1 0 0 1 31028 1100)">
            <path fill="#000000" stroke="none" d="M 1313 673 Q 1313 347 1141.5 173.5 Q 970 0 646 0 L 115 0 L 115 105 L 267 120 L 267 1194 L 115 1209 L 115 1324 L 685 1324 Q 982 1324 1147.5 1153 Q 1313 982 1313 673 Z M 1139 667 Q 1139 923 1016.5 1058.5 Q 894 1194 659 1194 L 435 1194 L 435 130 L 632 130 Q 884 130 1011.5 267 Q 1139 404 1139 667 Z"/>
        </g>
        <g transform="matrix(1 0 0 1 32486 1100)">
            <path fill="#000000" stroke="none" d="M 453 838 Q 487 838 523 832 Q 559 848 598 873 Q 637 898 674.5 932 Q 712 966 738.50006 999 Q 765 1032 767 1066 L 767 1204 L 610 1219 L 610 1324 L 1083 1324 L 1083 1219 L 926 1204 L 926 1021 Q 1195 956 1336 822.5 Q 1477 689 1477 479 Q 1477 269 1339.5 133 Q 1202 -3 970 -21 L 970 111 Q 1313 171 1313 478 Q 1313 654 1194 757.5 Q 1075 861 847 905 Q 758 826 674 778 Q 754 721 794.5 632 Q 835 543 835 434 Q 835 247 732 131 Q 629 15 453 15 Q 273 15 171.5 123 Q 70 231 70 419 Q 70 607 173.5 722.5 Q 277 838 453 838 Z M 453 143 Q 560 143 619.5 220 Q 679 297 679 430 Q 679 563 619.5 636 Q 560 709 453 709 Q 347 709 286.5 632.5 Q 226 556 226 423 Q 226 293 285.5 218 Q 345 143 453 143 Z"/>
        </g>
        <g transform="matrix(1 0 0 1 34023 1100)">
            <path fill="#000000" stroke="none" d="M 561 1206 Q 437 1206 368 1151 Q 299 1096 299 1001 Q 299 943 326.5 900.5 Q 354 858 411 821.5 Q 468 785 599 732 Q 742 674 811 623 Q 880 572 915 507 Q 950 442 950 356 Q 950 182 829.49994 81 Q 709 -20 496 -20 Q 384 -20 279 8.5 Q 174 37 115 81 L 115 334 L 244 334 L 256 171 Q 340 120 501 120 Q 781 120 781 341 Q 781 398 756 439.49997 Q 731 481 678.5 516 Q 626 551 471 615 Q 286 687 212 776 Q 138 865 138 994 Q 138 1149 255.5 1244.5 Q 373 1340 562 1340 Q 667 1340 765 1316 Q 863 1292 922 1249 L 922 996 L 793 996 L 781 1162 Q 710 1206 561 1206 Z"/>
        </g>
        <g transform="matrix(1 0 0 1 35097 1100)">
            <path fill="#000000" stroke="none" d="M 814 0 L 432 1186 L 407 1186 Q 418 994 418 653 L 418 120 L 546 105 L 546 0 L 115 0 L 115 105 L 265 120 L 265 1204 L 115 1219 L 115 1324 L 575 1324 L 812 505 Q 882 259 901 168 L 909 168 Q 920 211 939.5 278.5 Q 959 346 1261 1324 L 1707 1324 L 1707 1219 L 1557 1204 L 1557 120 L 1707 105 L 1707 0 L 1261 0 L 1261 105 L 1391 120 L 1391 656 Q 1391 945 1395 1185 L 1370 1185 L 984 0 L 814 0 Z"/>
        </g>
        <g transform="matrix(1 0 0 1 37451 1100)">
            <path fill="#000000" stroke="none" d="M 583 1194 L 244 1194 L 229 987 L 100 987 L 100 1324 L 965 1324 L 965 1194 L 747 1194 L 747 766 Q 747 585 720 139 L 728 139 Q 740 184 908 528 L 1309 1324 L 1492 1324 L 784 0 L 583 0 L 583 1194 Z"/>
        </g>
        <g transform="matrix(1 0 0 1 38793 1100)">
            <path fill="#000000" stroke="none" d="M 174 573 Q 178 429 249.5 323.5 Q 321 218 448 169 L 448 873 Q 448 1093 565.5 1218.5 Q 683 1344 890 1344 Q 999 1344 1090.5 1304.5 Q 1182 1265 1232.5 1195.5 Q 1283 1126 1283 1043 Q 1283 965 1244.5 903 Q 1206 841 1125 782 L 991 689 L 991 679 Q 1153 621 1228 546 Q 1303 471 1303 364 Q 1303 186 1161.5 83 Q 1020 -20 773 -20 Q 738 -20 686.5 -15.5 Q 635 -11 614 -7 L 614 -492 L 448 -492 L 448 21 Q 237 84 133.5 220 Q 30 356 30 573 L 174 573 Z M 769 120 Q 942 120 1040 183 Q 1138 246 1138 354 Q 1138 416 1095 461 Q 1052 506 960 542 Q 905 562 876 588.5 Q 847 615 847 664 Q 847 701 868.5 731 Q 890 761 981 833 Q 1065 901 1092 944 Q 1119 987 1119 1038 Q 1119 1116 1058.5 1162 Q 998 1208 890 1208 Q 760 1208 687 1127 Q 614 1046 614 907 L 614 131 Q 691 120 769 120 Z"/>
        </g>
        <g transform="matrix(1 0 0 1 40211 1100)">
            <path fill="#000000" stroke="none" d="M 1214 383 Q 1214 267 1152 175 Q 1090 83 976.5 31.500002 Q 863 -20 716 -20 Q 430 -20 272.5 154 Q 115 328 115 649 Q 115 860 188.50002 1017 Q 262 1174 404 1259 Q 546 1344 741 1344 Q 864 1344 991 1300 Q 1118 1256 1177 1188 L 1177 959 L 1041 959 L 1031 1124 Q 988 1160 907.5 1182 Q 827 1204 741 1204 Q 519 1204 404 1063.5 Q 289 923 289 654 Q 289 393 401 256.5 Q 513 120 725 120 Q 879 120 972 188.50002 Q 1065 257 1065 373 Q 1065 476 1018.5 528.5 Q 972 581 858 581 L 853 409 L 723 409 L 723 867 L 853 867 L 858 708 Q 1036 703 1125 623 Q 1214 543 1214 383 Z"/>
        </g>
        <g transform="matrix(1 0 0 1 41540 1100)">
            <path fill="#000000" stroke="none" d="M 965 130 Q 1178 130 1340 212.50002 Q 1502 295 1590.5001 452 Q 1679 609 1679 819 Q 1679 1006 1622 1097 Q 1565 1188 1448 1188 Q 1365 1188 1311.5 1137 Q 1258 1086 1258 1003 Q 1258 928 1294 882.5 Q 1330 837 1400 831 L 1400 691 Q 1264 695 1188 777.5 Q 1112 860 1112 994 Q 1112 1086 1154.5 1162.5 Q 1197 1239 1273 1281.5 Q 1349 1324 1447 1324 Q 1573 1324 1661 1263.5 Q 1749 1203 1794 1090.5 Q 1839 978 1839 828 Q 1839 577 1734.5 385.5 Q 1630 194 1431.5001 89.49999 Q 1233 -15 963 -15 Q 709 -15 518 90 Q 327 195 221 387.5 Q 115 580 115 819 Q 115 1066 223.5 1205 Q 332 1344 519 1344 Q 681 1344 777 1226.5 Q 873 1109 873 909 Q 873 760 839.5 654 Q 806 548 734.49994 448 Q 663 348 547 258 Q 731 130 965 130 Z M 287 830 Q 287 537 448 347 Q 542 426 597.5 513 Q 653 600 679 689.5 Q 705 779 705 908 Q 705 1054 656 1131 Q 607 1208 515 1208 Q 404 1208 345.50003 1113.5 Q 287 1019 287 830 Z"/>
        </g>
        <g transform="matrix(1 0 0 1 43454 1100)">
            <path fill="#000000" stroke="none" d="M 1194 118 Q 1201 141 1260 315 Q 1319 489 1629 1324 L 1810 1324 L 1285 0 L 1074 0 L 913 480 L 725 0 L 514 0 L 60 1324 L 249 1324 L 514 498 Q 589 254 629 118 L 637 118 L 844 686 L 630 1324 L 807 1324 L 942 864 L 1101 1324 L 1267 1324 L 1015 671 Q 1131 313 1186 118 L 1194 118 Z"/>
        </g>
        <g transform="matrix(1 0 0 1 45314 1100)">
            <path fill="#000000" stroke="none" d="M 435 725 L 770 929 L 778 926 Q 817 767 860.49994 697 Q 904 627 973 627 Q 1040 627 1084 682 Q 1128 737 1153 877 L 1275 865 Q 1253 665 1176 574 Q 1099 483 964 483 Q 859 483 792 545 Q 725 607 687 726 L 435 577 L 435 120 L 585 105 L 585 0 L 115 0 L 115 105 L 267 120 L 267 1204 L 115 1219 L 115 1324 L 585 1324 L 585 1219 L 435 1204 L 435 725 Z"/>
        </g>
    </g>
</svg>
