<svg width="37319" height="3789" viewBox="0 0 37319 3789" xmlns="http://www.w3.org/2000/svg">
    <defs/>
    <g transform="matrix(1 0 0 -1 0 3789)">
        <g transform="matrix(1 0 0 1 0 1100)">
            <path fill="#000000" stroke="none" d="M 975 0 L 788 0 L 55 375 L 150 535 L 784 211 L 784 1462 L 975 1462 L 975 0 Z"/>
        </g>
        <g transform="matrix(1 0 0 1 1176 1100)">
            <path fill="#000000" stroke="none" d="M 967 211 Q 853 -20 612 -20 Q 376 -20 250.5 173.5 Q 125 367 125 729 Q 125 1094 257 1288.5 Q 389 1483 643 1483 Q 752 1483 836 1427 Q 920 1371 967 1270 L 967 1462 L 1151 1462 L 1151 0 L 967 0 L 967 211 Z M 651 1327 Q 513 1327 424.50003 1227 Q 336 1127 336 971 Q 336 819 421.5 725 Q 507 631 649 631 Q 791 631 879 728.5 Q 967 826 967 979 Q 967 1134 877 1230.5 Q 787 1327 651 1327 Z M 317 690 Q 317 515 359.49997 392.50003 Q 402 270 478.5 205.5 Q 555 141 655 141 Q 772 141 853 216 Q 934 291 967 426 L 967 700 Q 921 607 835.50006 554.5 Q 750 502 647 502 Q 543 502 460 550 Q 377 598 324 690 L 317 690 Z"/>
        </g>
        <g transform="matrix(1 0 0 1 2528 1100)">
            <path fill="#000000" stroke="none" d="M 385 1251 Q 500 1483 739 1483 Q 975 1483 1101 1290.5 Q 1227 1098 1227 733 Q 1227 368 1094.5 174 Q 962 -20 709 -20 Q 600 -20 516 35.5 Q 432 91 385 193 L 385 0 L 201 0 L 201 1462 L 385 1462 L 385 1251 Z M 385 424 Q 411 298 496.5 218.5 Q 582 139 700 139 Q 1034 139 1034 731 Q 1034 1023 946 1172 Q 858 1321 696 1321 Q 581 1321 500 1247 Q 419 1173 385 1036 L 385 424 Z"/>
        </g>
        <g transform="matrix(1 0 0 1 3880 1100)">
            <path fill="#000000" stroke="none" d="M 954 1120 Q 954 980 872.5 889.5 Q 791 799 643 774 L 643 766 Q 821 740 914.5 648.5 Q 1008 557 1008 412 Q 1008 218 859.5 99 Q 711 -20 465 -20 Q 352 -20 243.49998 1 Q 135 22 57 59 L 57 219 Q 257 131 455 131 Q 622 131 718.5 199.5 Q 815 268 815 397 Q 815 545 716 612.5 Q 617 680 410 680 L 270 680 L 270 834 L 354 834 Q 565 834 664.5 896 Q 764 958 764 1087 Q 764 1207 686.5 1269 Q 609 1331 463 1331 Q 286 1331 127 1227 L 53 1362 Q 138 1419 248.5 1451 Q 359 1483 483 1483 Q 713 1483 833.50006 1390 Q 954 1297 954 1120 Z"/>
        </g>
        <g transform="matrix(1 0 0 1 5002 1100)">
            <path fill="#000000" stroke="none" d="M 1202 557 Q 1202 276 1074.5 129 Q 947 -18 688 -18 Q 199 -18 199 510 L 199 1464 L 383 1464 L 383 547 Q 383 332 459.5 236.50002 Q 536 141 698 141 Q 1020 141 1020 557 L 1202 557 Z"/>
        </g>
        <g transform="matrix(1 0 0 1 6231 1100)">
            <path fill="#000000" stroke="none" d="M 102 336 Q 102 523 242.5 638.5 Q 383 754 637 770 L 637 1462 L 821 1462 L 821 768 Q 1053 749 1180 642.5 Q 1307 536 1307 362 Q 1307 234 1239.5 134.5 Q 1172 35 1047 -20 L 971 119 Q 1114 194 1114 346 Q 1114 560 821 604 L 821 385 Q 821 191 724 84 Q 627 -23 455 -23 Q 289 -23 195.49998 72.5 Q 102 168 102 336 Z M 637 612 Q 293 587 293 336 Q 293 243 340 189 Q 387 135 463 135 Q 543 135 590 195 Q 637 255 637 367 L 637 612 Z"/>
        </g>
        <g transform="matrix(1 0 0 1 8172 1100)">
            <path fill="#000000" stroke="none" d="M 690 745 L 765 631 Q 835 523 868 440.50003 Q 901 358 901 289 Q 901 150 813 65 Q 725 -20 588 -20 Q 446 -20 362.5 59 Q 279 138 279 283 Q 279 421 417 634 L 487 743 L 0 1462 L 201 1462 L 586 887 L 961 1462 L 1159 1462 L 690 745 Z M 733 287 Q 733 393 584 602 Q 444 398 444 283 Q 444 212 481.5 171.5 Q 519 131 586 131 Q 660 131 696.5 174.5 Q 733 218 733 287 Z"/>
        </g>
        <g transform="matrix(1 0 0 1 9331 1100)">
            <path fill="#000000" stroke="none" d="M 940 772 Q 940 1035 827.5 1178 Q 715 1321 512 1321 Q 427 1321 356.5 1296.5 Q 286 1272 227 1241 L 164 1397 Q 316 1483 520 1483 Q 806 1483 969.5 1283 Q 1133 1083 1133 733 Q 1133 362 995.50006 171 Q 858 -20 594 -20 Q 456 -20 343.5 48.5 Q 231 117 168.5 238 Q 106 359 106 506 Q 106 648 161 757.5 Q 216 867 317 926 Q 418 985 545 985 Q 679 985 778 929.50006 Q 877 874 928 772 L 940 772 Z M 596 135 Q 687 135 759 181 Q 831 227 876.5 321 Q 922 415 922 518 Q 922 595 878 668.5 Q 834 742 758.5 785.5 Q 683 829 590 829 Q 447 829 370 740.5 Q 293 652 293 489 Q 293 332 378 233.5 Q 463 135 596 135 Z"/>
        </g>
        <g transform="matrix(1 0 0 1 10588 1100)">
            <path fill="#000000" stroke="none" d="M 608 1483 Q 751 1483 846 1423.4999 Q 941 1364 981 1264 L 981 1462 L 1165 1462 L 1165 0 L 981 0 L 981 227 Q 929 108 817 44 Q 705 -20 559 -20 Q 356 -20 235.49998 91 Q 115 202 115 387 Q 115 535 210 632 Q 305 729 479 754 L 479 762 Q 325 788 246.5 875.5 Q 168 963 168 1098 Q 168 1271 289 1377 Q 410 1483 608 1483 Z M 616 1325 Q 496 1325 427 1262.5 Q 358 1200 358 1090 Q 358 958 457.50003 896 Q 557 834 764 834 L 811 834 L 811 680 L 754 680 Q 536 680 421.5 607.5 Q 307 535 307 393 Q 307 271 381.5 202 Q 456 133 584 133 Q 774 133 875 278 Q 976 423 981 705 L 981 733 Q 981 1041 892.49994 1183 Q 804 1325 616 1325 Z"/>
        </g>
        <g transform="matrix(1 0 0 1 11954 1100)">
            <path fill="#000000" stroke="none" d="M 555 500 Q 342 500 218 627 Q 94 754 94 975 Q 94 1205 240.5 1345 Q 387 1485 633 1485 Q 745 1485 835.50006 1454 Q 926 1423 985 1378 L 909 1235 Q 776 1327 623 1327 Q 463 1327 372 1236 Q 281 1145 281 981 Q 281 824 362.5 739.50006 Q 444 655 594 655 Q 666 655 740 679 Q 814 703 854 735 L 971 629 L 631 0 L 426 0 L 735 532 Q 654 500 555 500 Z"/>
        </g>
        <g transform="matrix(1 0 0 1 13001 1100)">
            <path fill="#000000" stroke="none" d="M 975 0 L 788 0 L 55 375 L 150 535 L 784 211 L 784 1462 L 975 1462 L 975 0 Z"/>
        </g>
        <g transform="matrix(1 0 0 1 14177 1100)">
            <path fill="#000000" stroke="none" d="M 1057 1462 L 1057 0 L 872 0 Q 833 96 743 154.5 Q 653 213 537 213 Q 280 213 201 -35 L 20 23 Q 69 194 201.5 291.5 Q 334 389 524 389 Q 636 389 730 348.5 Q 824 308 872 244 L 872 1462 L 1057 1462 Z"/>
        </g>
        <g transform="matrix(1 0 0 1 15964 1100)">
            <path fill="#000000" stroke="none" d="M 719 1098 L 719 0 L 539 0 L 539 946 L 31 946 L 31 1098 L 719 1098 Z"/>
        </g>
        <g transform="matrix(1 0 0 1 16857 1100)">
            <path fill="#000000" stroke="none" d="M 1405 725 Q 1332 650 1230.5 595.5 Q 1129 541 1014 516 L 848 0 L 633 0 L 485 522 Q 288 563 174.5 663 Q 61 763 61 895 Q 61 992 124.5 1052 Q 188 1112 287 1112 Q 394 1112 459 1053 Q 524 994 561 860 L 625 629 Q 634 627 681 622.5 Q 728 618 762 618 Q 811 618 868 623 L 1012 1098 L 1194 1098 L 1057 659 Q 1117 679 1182 721 Q 1247 763 1303 821 L 1405 725 Z M 293 971 Q 265 971 245 953 Q 225 935 225 893 Q 225 822 289.5 755 Q 354 688 449 662 L 387 860 Q 351 971 293 971 Z M 834 496 L 798 494 L 760 494 L 659 498 L 743 199 L 834 496 Z"/>
        </g>
        <g transform="matrix(1 0 0 1 18297 1100)">
            <path fill="#000000" stroke="none" d="M 111 838 L 322 721 L 322 1098 L 502 1098 L 502 625 L 788 471 L 715 319 L 502 434 L 502 0 L 322 0 L 322 526 L 31 686 L 111 838 Z"/>
        </g>
        <g transform="matrix(1 0 0 1 19116 1100)">
            <path fill="#000000" stroke="none" d="M 582 1112 Q 739 1112 838.5 1043 Q 938 974 938 858 Q 938 672 623 600 L 690 559 Q 995 546 1139 475 L 1079 356 Q 1041 377 969.5 404 Q 898 431 844 440 Q 958 363 958 242 Q 958 169 910.5 110.50001 Q 863 52 773.5 18 Q 684 -16 557 -16 Q 372 -16 270 53 Q 168 122 168 244 Q 168 350 254.5 424 Q 341 498 502 528 L 436 571 Q 172 575 16 666 L 72 780 Q 108 758 179.49998 730.5 Q 251 703 295 696 Q 215 774 215 860 Q 215 973 315 1042.5 Q 415 1112 582 1112 Z M 342 260 Q 342 195 402.5 156 Q 463 117 567 117 Q 675 117 734 154 Q 793 191 793 262 Q 793 309 751 357.5 Q 709 406 641 440 Q 342 421 342 260 Z M 573 981 Q 484 981 431.5 947 Q 379 913 379 854 Q 379 809 403 769.50006 Q 427 730 492 690 Q 762 718 762 854 Q 762 914 711 947.5 Q 660 981 573 981 Z"/>
        </g>
        <g transform="matrix(1 0 0 1 20263 1100)">
            <path fill="#000000" stroke="none" d="M 1128 549 Q 1128 285 993 132.5 Q 858 -20 616 -20 Q 387 -20 250 134.5 Q 113 289 113 551 Q 113 821 247.5 969.5 Q 382 1118 623 1118 Q 858 1118 993 966 Q 1128 814 1128 549 Z M 299 549 Q 299 341 381.5 235 Q 464 129 621 129 Q 759 129 839 212.50002 Q 919 296 938 459 Q 878 451 858 451 Q 679 451 590.5 536 Q 502 621 502 799 Q 502 876 526 956 Q 299 898 299 549 Z M 870 555 Q 903 555 942 561 Q 937 946 641 967 Q 634 948 627.5 906 Q 621 864 621 819 Q 621 675 678 615 Q 735 555 870 555 Z"/>
        </g>
        <g transform="matrix(1 0 0 1 21504 1100)">
            <path fill="#000000" stroke="none" d="M 535 1118 Q 769 1118 890.5 974 Q 1012 830 1012 549 Q 1012 281 878 131.5 Q 744 -18 500 -18 Q 308 -18 198 66.5 Q 88 151 88 299 Q 88 409 153 475.5 Q 218 542 326 571 Q 235 602 183 665 Q 131 728 131 815 Q 131 951 241 1034.5 Q 351 1118 535 1118 Z M 825 635 Q 814 780 759.5 868 Q 705 956 612 981 Q 594 932 594 858 Q 594 787 625 727 Q 656 667 707 635 L 825 635 Z M 301 815 Q 301 635 569 635 Q 526 675 503.49997 731.5 Q 481 788 481 850 Q 481 922 502 983 Q 405 980 353 936.5 Q 301 893 301 815 Z M 508 127 Q 655 127 737 221.5 Q 819 316 825 496 L 610 496 Q 266 496 266 303 Q 266 219 333 173 Q 400 127 508 127 Z"/>
        </g>
        <g transform="matrix(1 0 0 1 23160 1100)">
            <path fill="#000000" stroke="none" d="M 1128 551 Q 1128 282 992 131 Q 856 -20 616 -20 Q 467 -20 352 49.5 Q 237 119 175 249 Q 113 379 113 551 Q 113 819 247 968.5 Q 381 1118 623 1118 Q 855 1118 991.49994 965.5 Q 1128 813 1128 551 Z M 299 551 Q 299 344 380.5 236.50002 Q 462 129 621 129 Q 778 129 860 236.50002 Q 942 344 942 551 Q 942 758 859.5 862.49994 Q 777 967 618 967 Q 299 967 299 551 Z"/>
        </g>
        <g transform="matrix(1 0 0 1 24399 1100)">
            <path fill="#000000" stroke="none" d="M 727 645 L 727 498 L 578 498 Q 268 498 268 309 Q 268 220 342 173.5 Q 416 127 559 127 Q 644 127 729.5 146.5 Q 815 166 915 213 L 915 55 Q 776 -20 549 -20 Q 329 -20 208.5 65.5 Q 88 151 88 299 Q 88 398 144.5 463.5 Q 201 529 332 567 L 332 578 Q 233 606 180 670 Q 127 734 127 827 Q 127 962 242.5 1040 Q 358 1118 549 1118 Q 660 1118 746.5 1099.5 Q 833 1081 920 1040 L 852 897 Q 753 941 687 955 Q 621 969 547 969 Q 299 969 299 813 Q 299 645 612 645 L 727 645 Z"/>
        </g>
        <g transform="matrix(1 0 0 1 25400 1100)">
            <path fill="#000000" stroke="none" d="M 535 1118 Q 769 1118 890.5 974 Q 1012 830 1012 549 Q 1012 281 878 131.5 Q 744 -18 500 -18 Q 308 -18 198 66.5 Q 88 151 88 299 Q 88 409 153 475.5 Q 218 542 326 571 Q 235 602 183 665 Q 131 728 131 815 Q 131 951 241 1034.5 Q 351 1118 535 1118 Z M 825 635 Q 814 780 759.5 868 Q 705 956 612 981 Q 594 932 594 858 Q 594 787 625 727 Q 656 667 707 635 L 825 635 Z M 301 815 Q 301 635 569 635 Q 526 675 503.49997 731.5 Q 481 788 481 850 Q 481 922 502 983 Q 405 980 353 936.5 Q 301 893 301 815 Z M 508 127 Q 655 127 737 221.5 Q 819 316 825 496 L 610 496 Q 266 496 266 303 Q 266 219 333 173 Q 400 127 508 127 Z"/>
        </g>
        <g transform="matrix(1 0 0 1 26524 1100)">
            <path fill="#000000" stroke="none" d="M 487 365 Q 308 365 202 460 Q 96 555 96 725 Q 96 902 222 1008 Q 348 1114 555 1114 Q 641 1114 725 1090.5 Q 809 1067 870 1026 L 791 893 Q 669 967 547 967 Q 423 967 352 904.5 Q 281 842 281 729 Q 281 625 345 567.5 Q 409 510 524 510 Q 583 510 644 527 Q 705 544 739 571 L 856 477 L 563 0 L 354 0 L 608 377 Q 556 365 487 365 Z"/>
        </g>
        <g transform="matrix(1 0 0 1 27472 1100)">
            <path fill="#000000" stroke="none" d="M 315 324 L 143 324 L 143 1096 L 328 1096 L 328 520 L 776 821 L 950 821 L 950 0 L 766 0 L 766 618 L 315 324 Z"/>
        </g>
        <g transform="matrix(1 0 0 1 28566 1100)">
            <path fill="#000000" stroke="none" d="M 893 1098 L 893 0 L 719 0 Q 682 77 609 120.5 Q 536 164 442 164 Q 348 164 282 115 Q 216 66 184 -31 L 20 18 Q 69 164 180.50002 245 Q 292 326 442 326 Q 522 326 594 298 Q 666 270 713 223 L 713 1098 L 893 1098 Z"/>
        </g>
        <g transform="matrix(1 0 0 1 30165 1100)">
            <path fill="#000000" stroke="none" d="M 1128 551 Q 1128 282 992 131 Q 856 -20 616 -20 Q 467 -20 352 49.5 Q 237 119 175 249 Q 113 379 113 551 Q 113 819 247 968.5 Q 381 1118 623 1118 Q 855 1118 991.49994 965.5 Q 1128 813 1128 551 Z M 942 551 Q 942 735 874 839.5 Q 806 944 676 963 L 676 594 L 848 465 L 801 311 L 676 406 L 676 133 Q 812 152 877 262 Q 942 372 942 551 Z M 299 551 Q 299 361 367 255.5 Q 435 150 565 133 L 565 487 L 385 625 L 432 778 L 565 678 L 565 963 Q 434 946 366.5 842.5 Q 299 739 299 551 Z"/>
        </g>
        <g transform="matrix(1 0 0 1 31404 1100)">
            <path fill="#000000" stroke="none" d="M 1108 815 Q 1108 669 987.5 574 Q 867 479 666 465 L 666 0 L 485 0 L 485 467 Q 301 480 191.5 573 Q 82 666 82 807 Q 82 915 146 995 Q 210 1075 326 1116 L 395 989 Q 266 937 266 815 Q 266 736 324 684 Q 382 632 485 618 L 485 791 Q 485 939 568 1026.5 Q 651 1114 803 1114 Q 943 1114 1025.5 1035.5 Q 1108 957 1108 815 Z M 666 610 Q 794 620 859 675.5 Q 924 731 924 821 Q 924 894 889.5 930.50006 Q 855 967 797 967 Q 731 967 698.5 922 Q 666 877 666 803 L 666 610 Z"/>
        </g>
        <g transform="matrix(1 0 0 1 32594 1100)">
            <path fill="#000000" stroke="none" d="M 1128 551 Q 1128 282 992 131 Q 856 -20 616 -20 Q 467 -20 352 49.5 Q 237 119 175 249 Q 113 379 113 551 Q 113 819 247 968.5 Q 381 1118 623 1118 Q 855 1118 991.49994 965.5 Q 1128 813 1128 551 Z M 299 551 Q 299 344 380.5 236.50002 Q 462 129 621 129 Q 778 129 860 236.50002 Q 942 344 942 551 Q 942 758 859.5 862.49994 Q 777 967 618 967 Q 299 967 299 551 Z"/>
        </g>
        <g transform="matrix(1 0 0 1 33833 1100)">
            <path fill="#000000" stroke="none" d="M 614 -20 Q 377 -20 245 125.49999 Q 113 271 113 543 Q 113 819 246.5 968.5 Q 380 1118 627 1118 Q 707 1118 785.5 1101.5 Q 864 1085 915 1059 L 860 909 Q 721 961 623 961 Q 457 961 378 856.5 Q 299 752 299 545 Q 299 346 378 240.5 Q 457 135 612 135 Q 757 135 897 199 L 897 39 Q 783 -20 614 -20 Z"/>
        </g>
        <g transform="matrix(1 0 0 1 34816 1100)">
            <path fill="#000000" stroke="none" d="M 1090 0 L 924 0 L 659 260 L 492 0 L 365 0 L 20 344 L 145 461 L 420 182 L 594 444 L 707 444 L 909 238 L 909 1098 L 1090 1098 L 1090 0 Z"/>
        </g>
        <g transform="matrix(1 0 0 1 36080 1100)">
            <path fill="#000000" stroke="none" d="M 1128 551 Q 1128 282 992 131 Q 856 -20 616 -20 Q 467 -20 352 49.5 Q 237 119 175 249 Q 113 379 113 551 Q 113 819 247 968.5 Q 381 1118 623 1118 Q 855 1118 991.49994 965.5 Q 1128 813 1128 551 Z M 942 551 Q 942 735 874 839.5 Q 806 944 676 963 L 676 594 L 848 465 L 801 311 L 676 406 L 676 133 Q 812 152 877 262 Q 942 372 942 551 Z M 299 551 Q 299 361 367 255.5 Q 435 150 565 133 L 565 487 L 385 625 L 432 778 L 565 678 L 565 963 Q 434 946 366.5 842.5 Q 299 739 299 551 Z"/>
        </g>
    </g>
</svg>
