<svg width="35578" height="3789" viewBox="0 0 35578 3789" xmlns="http://www.w3.org/2000/svg">
    <defs/>
    <g transform="matrix(1 0 0 -1 0 3789)">
        <g transform="matrix(1 0 0 1 0 1100)">
            <path fill="#000000" stroke="none" d="M 1174 666 L 719 666 L 719 0 L 535 0 L 535 666 L 80 666 L 80 822 L 535 822 L 535 1304 L 80 1304 L 80 1462 L 1174 1462 L 1174 1304 L 719 1304 L 719 822 L 1174 822 L 1174 666 Z"/>
        </g>
        <g transform="matrix(1 0 0 1 1254 1100)">
            <path fill="#000000" stroke="none" d="M 1883 0 L 1688 0 L 1465 886 Q 1410 1098 1394 1236 Q 1366 1057 1314 884 L 1049 0 L 851 0 L 597 877 Q 541 1072 519 1236 Q 497 1080 449 888 L 225 0 L 30 0 L 417 1462 L 608 1462 L 879 516 Q 937 308 949 221 Q 960 296 1023 510 L 1303 1462 L 1494 1462 L 1883 0 Z"/>
        </g>
        <g transform="matrix(1 0 0 1 3699 1100)">
            <path fill="#000000" stroke="none" d="M 1064 1462 L 1064 0 L 880 0 L 880 569 L 712 569 Q 431 569 278 685 Q 125 801 125 1022 Q 125 1239 265.5 1350.5 Q 406 1462 677 1462 L 1064 1462 Z M 880 1304 L 694 1304 Q 500 1304 409.50003 1234.5 Q 319 1165 319 1024 Q 319 869 417 798 Q 515 727 733 727 L 880 727 L 880 1304 Z"/>
        </g>
        <g transform="matrix(1 0 0 1 4963 1100)">
            <path fill="#000000" stroke="none" d="M 765 774 Q 942 688 1017.5 593.5 Q 1093 499 1093 379 Q 1093 200 960 90 Q 827 -20 602 -20 Q 365 -20 232.5 83.5 Q 100 187 100 373 Q 100 622 405 764 Q 269 842 208.5 931.50006 Q 148 1021 148 1135 Q 148 1292 272 1387.5 Q 396 1483 596 1483 Q 798 1483 921 1389 Q 1044 1295 1044 1133 Q 1044 1023 977.5 936 Q 911 849 765 774 Z M 565 685 Q 423 625 356.5 551 Q 290 477 290 371 Q 290 264 365 203 Q 440 142 598 142 Q 747 142 825 203 Q 903 264 903 377 Q 903 475 823.5 547.5 Q 744 620 565 685 Z M 604 847 Q 854 951 854 1120 Q 854 1219 785 1270 Q 716 1321 594 1321 Q 475 1321 406.49997 1269.5 Q 338 1218 338 1120 Q 338 1062 364.5 1016.5 Q 391 971 441.50003 933 Q 492 895 604 847 Z"/>
        </g>
        <g transform="matrix(1 0 0 1 6156 1100)">
            <path fill="#000000" stroke="none" d="M 773 1462 L 1361 862 L 1244 748 L 793 1209 L 793 0 L 609 0 L 609 1211 L 157 748 L 40 862 L 628 1462 L 773 1462 Z"/>
        </g>
        <g transform="matrix(1 0 0 1 7557 1100)">
            <path fill="#000000" stroke="none" d="M 681 0 L 681 594 L 159 165 L 60 298 L 611 749 L 60 1201 L 159 1334 L 681 904 L 681 1462 L 865 1462 L 865 0 L 681 0 Z"/>
        </g>
        <g transform="matrix(1 0 0 1 8622 1100)">
            <path fill="#000000" stroke="none" d="M 1096 0 L 889 0 Q 520 0 322.5 191 Q 125 382 125 745 Q 125 1087 314.5 1274.5 Q 504 1462 846 1462 L 1096 1462 L 1096 0 Z M 872 1305 Q 596 1305 457.50003 1162 Q 319 1019 319 739 Q 319 158 903 158 L 912 158 L 912 1305 L 872 1305 Z"/>
        </g>
        <g transform="matrix(1 0 0 1 9918 1100)">
            <path fill="#000000" stroke="none" d="M 984 1462 L 984 0 L 800 0 L 800 1267 L 144 867 L 60 1010 L 800 1462 L 984 1462 Z"/>
        </g>
        <g transform="matrix(1 0 0 1 11634 1100)">
            <path fill="#000000" stroke="none" d="M 1174 666 L 719 666 L 719 158 L 1174 158 L 1174 0 L 80 0 L 80 158 L 535 158 L 535 666 L 80 666 L 80 822 L 535 822 L 535 1304 L 80 1304 L 80 1462 L 1174 1462 L 1174 1304 L 719 1304 L 719 822 L 1174 822 L 1174 666 Z"/>
        </g>
        <g transform="matrix(1 0 0 1 12888 1100)">
            <path fill="#000000" stroke="none" d="M 941 1201 L 941 0 L 757 0 L 757 1201 L 551 940 L 413 940 L 60 1382 L 187 1482 L 481 1117 L 757 1462 L 941 1462 L 1217 1117 L 1511 1482 L 1638 1382 L 1285 940 L 1147 940 L 941 1201 Z"/>
        </g>
        <g transform="matrix(1 0 0 1 14586 1100)">
            <path fill="#000000" stroke="none" d="M 63 1397 Q 235 1483 467 1483 Q 682 1483 841.5 1391.5 Q 1001 1300 1085 1130 Q 1169 960 1169 733 Q 1169 373 994.50006 176.5 Q 820 -20 497 -20 Q 386 -20 299.5 -7.5 Q 213 5 120 39 L 120 199 Q 315 141 471 141 Q 712 141 843.5 294 Q 975 447 975 731 Q 975 1005 840 1163 Q 705 1321 469 1321 Q 312 1321 137 1241 L 63 1397 Z"/>
        </g>
        <g transform="matrix(1 0 0 1 15880 1100)">
            <path fill="#000000" stroke="none" d="M 1336 0 L 1152 0 L 1152 1192 L 893 859 L 725 859 L 470 1182 L 187 819 L 60 925 L 407 1370 L 538 1370 L 808 1020 L 1152 1462 L 1336 1462 L 1336 0 Z"/>
        </g>
        <g transform="matrix(1 0 0 1 17416 1100)">
            <path fill="#000000" stroke="none" d="M 434 1462 L 434 0 L 250 0 L 250 1462 L 434 1462 Z"/>
        </g>
        <g transform="matrix(1 0 0 1 18100 1100)">
            <path fill="#000000" stroke="none" d="M 800 0 L 60 452 L 144 595 L 800 194 L 800 581 L 210 942 L 294 1085 L 800 776 L 800 1462 L 984 1462 L 984 0 L 800 0 Z"/>
        </g>
        <g transform="matrix(1 0 0 1 19816 1100)">
            <path fill="#000000" stroke="none" d="M 671 0 L 487 0 L 487 1304 L 30 1304 L 30 1462 L 1126 1462 L 1126 1304 L 671 1304 L 671 0 Z"/>
        </g>
        <g transform="matrix(1 0 0 1 20972 1100)">
            <path fill="#000000" stroke="none" d="M 1174 666 L 719 666 L 719 0 L 535 0 L 535 666 L 80 666 L 80 822 L 535 822 L 535 1462 L 719 1462 L 719 822 L 1174 822 L 1174 666 Z"/>
        </g>
        <g transform="matrix(1 0 0 1 22226 1100)">
            <path fill="#000000" stroke="none" d="M 1323 750 Q 1323 492 1162 343.5 Q 1001 195 722 195 Q 539 195 404 263 Q 269 331 197 457.50003 Q 125 584 125 751 Q 125 916 197 1042.5 Q 269 1169 405 1237 Q 541 1305 725 1305 Q 1004 1305 1163.5 1156.5 Q 1323 1008 1323 750 Z M 319 750 Q 319 557 422.49997 457 Q 526 357 722 357 Q 918 357 1023.49994 456 Q 1129 555 1129 750 Q 1129 940 1027 1041.5 Q 925 1143 725 1143 Q 525 1143 422 1042 Q 319 941 319 750 Z"/>
        </g>
        <g transform="matrix(1 0 0 1 23674 1100)">
            <path fill="#000000" stroke="none" d="M 80 651 Q 157 735 260.5 784.5 Q 364 834 476 834 Q 567 834 654.5 806 Q 742 778 808 731 Q 907 807 941 848.5 Q 975 890 994 940 Q 1013 990 1013 1057 Q 1013 1135 917.5 1212 Q 822 1289 667 1337 L 740 1482 Q 960 1413 1083.5 1303 Q 1207 1193 1207 1065 Q 1207 950 1158 857.5 Q 1109 765 1014 690 Q 905 603 863 543 Q 821 483 821 411 Q 821 324 919.5 245 Q 1018 166 1167 125 L 1094 -20 Q 876 39 751.5 152.5 Q 627 266 627 403 Q 627 527 690 614 Q 603 672 477 672 Q 300 672 176 534 L 80 651 Z"/>
        </g>
        <g transform="matrix(1 0 0 1 25011 1100)">
            <path fill="#000000" stroke="none" d="M 30 1331 Q 120 1402 237.5 1442.5 Q 355 1483 487 1483 Q 707 1483 828 1389 Q 949 1295 949 1120 Q 949 939 807 811 Q 925 762 925 606 Q 925 555 906 463 Q 887 371 887 336 Q 887 281 927.49994 227 Q 968 173 1066 94 L 953 -40 Q 814 61 753.5 145 Q 693 229 693 321 Q 693 372 712 448 Q 731 524 731 570 Q 731 673 636 673 Q 598 673 539 657 L 511 813 Q 632 845 693.5 920.5 Q 755 996 755 1098 Q 755 1203 684.5 1262 Q 614 1321 489 1321 Q 391 1321 307 1293 Q 223 1265 117 1194 L 30 1331 Z"/>
        </g>
        <g transform="matrix(1 0 0 1 26177 1100)">
            <path fill="#000000" stroke="none" d="M 919 1462 L 919 0 L 735 0 L 735 578 L 179 -20 L 60 90 L 735 816 L 735 1462 L 919 1462 Z"/>
        </g>
        <g transform="matrix(1 0 0 1 27828 1100)">
            <path fill="#000000" stroke="none" d="M 984 1462 L 984 0 L 800 0 L 800 686 L 294 377 L 210 520 L 800 881 L 800 1267 L 144 867 L 60 1010 L 800 1462 L 984 1462 Z"/>
        </g>
        <g transform="matrix(1 0 0 1 29012 1100)">
            <path fill="#000000" stroke="none" d="M 1189 0 L 1005 0 L 1005 1229 L 636 845 L 507 845 L 506 848 L 503 845 L 60 1370 L 188 1482 L 576 1016 L 1005 1462 L 1189 1462 L 1189 0 Z"/>
        </g>
        <g transform="matrix(1 0 0 1 30401 1100)">
            <path fill="#000000" stroke="none" d="M 735 0 L 735 642 L 60 1369 L 179 1482 L 735 883 L 735 1462 L 919 1462 L 919 0 L 735 0 Z"/>
        </g>
        <g transform="matrix(1 0 0 1 31520 1100)">
            <path fill="#000000" stroke="none" d="M 781 1462 L 781 832 Q 847 955 919 1075 L 1151 1462 L 1339 1462 L 781 557 L 781 0 L 597 0 L 597 557 L 40 1462 L 228 1462 L 474 1053 L 597 836 L 597 1462 L 781 1462 Z"/>
        </g>
        <g transform="matrix(1 0 0 1 32899 1100)">
            <path fill="#000000" stroke="none" d="M 1136 0 L 928 557 L 255 130 L 206 0 L 20 0 L 591 1468 L 757 1468 L 1327 0 L 1136 0 Z M 671 1278 Q 636 1139 608 1059 L 351 383 L 870 712 L 741 1059 L 671 1278 Z"/>
        </g>
        <g transform="matrix(1 0 0 1 34246 1100)">
            <path fill="#000000" stroke="none" d="M 1132 0 L 618 0 Q 379 0 244.50002 110 Q 110 220 110 416 Q 110 560 189.5 648.5 Q 269 737 438 766 L 438 776 Q 302 801 231 885.5 Q 160 970 160 1100 Q 160 1287 290 1374.5 Q 420 1462 715 1462 L 1132 1462 L 1132 0 Z M 948 1304 L 706 1304 Q 521 1304 435.5 1251.5 Q 350 1199 350 1079 Q 350 951 427 896 Q 504 841 678 841 L 948 841 L 948 1304 Z M 667 685 Q 483 685 395 622 Q 307 559 307 430 Q 307 292 392.50003 225 Q 478 158 653 158 L 948 158 L 948 685 L 667 685 Z"/>
        </g>
    </g>
</svg>
