<svg width="62774" height="4334" viewBox="0 0 62774 4334" xmlns="http://www.w3.org/2000/svg">
    <defs/>
    <g transform="matrix(1 0 0 -1 0 4334)">
        <g transform="matrix(1 0 0 1 0 1645)">
            <path fill="#000000" stroke="none" d="M 1035 299 Q 1024 112 864 32 L 864 -65 Q 864 -170 892 -224 Q 920 -278 983 -278 Q 1013 -278 1038.5 -249.5 Q 1064 -221 1073 -153 L 1082 -152 L 1090 -152 Q 1133 -152 1171 -180 Q 1152 -286 1091 -352 Q 1030 -418 949 -418 Q 751 -418 751 -69 L 751 -5 Q 682 -20 593 -20 Q 373 -20 269 81.5 Q 165 183 165 383 L 165 1098 L 335 1098 L 335 391 Q 335 261 405.5 196 Q 476 131 635 131 Q 702 131 751 141 L 751 226 Q 751 331 723 385 Q 695 439 632 439 Q 602 439 576.5 410.5 Q 551 382 542 314 L 533 313 L 525 313 Q 482 313 444 341 Q 463 447 524 513 Q 585 579 666 579 Q 864 579 864 230 L 864 188 Q 916 229 920 299 Q 947 309 976 309 Q 1004 309 1035 299 Z M 735 1118 Q 816 1118 880 1069 Q 944 1020 984 926 Q 1068 1118 1272 1118 Q 1568 1118 1568 715 L 1568 0 L 1403 0 L 1403 707 Q 1403 836 1367 901.5 Q 1331 967 1245 967 Q 1170 967 1125.5 931.50006 Q 1081 896 1059.5 833 Q 1038 770 1036 641 L 1036 630 Q 1007 622 983 622 Q 962 622 932 628 L 932 632 Q 930 760 909.5 826 Q 889 892 847.5 929.50006 Q 806 967 736 967 Q 666 967 624.5 930 Q 583 893 563 827.5 Q 543 762 540 632 Q 511 624 487 624 Q 466 624 436 630 L 435 645 L 435 661 Q 435 786 474.5 896.50006 Q 514 1007 581 1062.5 Q 648 1118 735 1118 Z"/>
        </g>
        <g transform="matrix(1 0 0 1 1728 1645)">
            <path fill="#000000" stroke="none" d="M 845 405 Q 845 186 754 83 Q 663 -20 483 -20 Q 319 -20 246.5 73.5 Q 174 167 174 383 L 174 1098 L 344 1098 L 344 391 Q 344 294 360.50003 237.5 Q 377 181 410.5 156 Q 444 131 519 131 Q 602 131 647 156 Q 692 181 711 234 Q 730 287 730 434 L 730 498 L 729 617 L 729 654 Q 729 872 830 995 Q 931 1118 1107 1118 Q 1323 1118 1394 934 L 1400 934 Q 1447 1028 1521.5 1073 Q 1596 1118 1687 1118 Q 2014 1118 2014 715 L 2014 0 L 1844 0 L 1844 707 Q 1844 836 1802 901.5 Q 1760 967 1661 967 Q 1538 967 1484 883 Q 1430 799 1430 606 L 1430 0 L 1260 0 L 1260 707 Q 1260 851 1215 909 Q 1170 967 1066 967 Q 948 967 896 886 Q 844 805 844 630 L 844 601 L 845 405 Z"/>
        </g>
        <g transform="matrix(1 0 0 1 3903 1645)">
            <path fill="#000000" stroke="none" d="M 735 1118 Q 816 1118 880 1069 Q 944 1020 984 926 Q 1068 1118 1272 1118 Q 1568 1118 1568 715 L 1568 -169 Q 1482 -169 1300.5 -249 Q 1119 -329 964 -443 Q 809 -557 729 -677 Q 649 -797 649 -914 Q 649 -951 657.5 -973 Q 666 -995 681.5 -1004.5 Q 697 -1014 735 -1014 Q 796 -1014 858.5 -979 Q 921 -944 1052 -835 Q 1265 -656 1495 -656 Q 1555 -656 1625.5 -665 Q 1696 -674 1735 -685 Q 1743 -719 1743 -744 Q 1743 -769 1735 -799 Q 1707 -787 1646 -779 Q 1585 -771 1516 -771 Q 1407 -771 1304 -818 Q 1201 -865 1093 -959 Q 978 -1060 896 -1103.5 Q 814 -1147 733 -1147 Q 541 -1147 541 -920 Q 541 -742 659 -557 Q 777 -372 986 -224 Q 1195 -76 1403 -23 L 1403 707 Q 1403 836 1367 901.5 Q 1331 967 1245 967 Q 1170 967 1125.5 931.50006 Q 1081 896 1059.5 833 Q 1038 770 1036 641 L 1036 630 Q 1007 622 983 622 Q 962 622 932 628 L 932 632 Q 930 760 909.5 826 Q 889 892 847.5 929.50006 Q 806 967 736 967 Q 666 967 624.5 930 Q 583 893 563 827.5 Q 543 762 540 632 Q 511 624 487 624 Q 466 624 436 630 L 435 645 L 435 661 Q 435 786 474.5 896.50006 Q 514 1007 581 1062.5 Q 648 1118 735 1118 Z M 1035 299 Q 1029 144 913 62 Q 797 -20 593 -20 Q 373 -20 269 81.5 Q 165 183 165 383 L 165 1098 L 335 1098 L 335 391 Q 335 261 405.5 196 Q 476 131 635 131 Q 765 131 840 172 Q 915 213 920 299 Q 947 309 976 309 Q 1004 309 1035 299 Z"/>
        </g>
        <g transform="matrix(1 0 0 1 5631 1645)">
            <path fill="#000000" stroke="none" d="M 1228 707 Q 1228 828 1153.5 901.5 Q 1079 975 960 975 Q 720 975 680 729 Q 805 712 860.49994 637 Q 916 562 916 403 L 916 321 Q 916 160 812 70 Q 708 -20 521 -20 Q 331 -20 245.5 77.5 Q 160 175 160 383 L 160 1098 L 330 1098 L 330 391 Q 330 296 355.5 239.5 Q 381 183 427.5 157 Q 474 131 567 131 Q 695 131 747 171.5 Q 799 212 799 304 L 799 359 Q 799 450 783.5 500.5 Q 768 551 739.50006 574.5 Q 711 598 672 603 Q 633 608 587 609 Q 575 657 575 705 Q 575 814 633 909.5 Q 691 1005 793.5 1061.5 Q 896 1118 1014 1118 Q 1127 1118 1218.5 1063.5 Q 1310 1009 1355 917 L 1363 917 Q 1410 1011 1480 1064.5 Q 1550 1118 1656 1118 Q 1983 1118 1983 715 L 1983 0 L 1813 0 L 1813 707 Q 1813 836 1771 901.5 Q 1729 967 1630 967 Q 1509 967 1453.5 885 Q 1398 803 1398 623 L 1398 0 L 1228 0 L 1228 707 Z"/>
        </g>
        <g transform="matrix(1 0 0 1 7773 1645)">
            <path fill="#000000" stroke="none" d="M 873 351 Q 834 351 811.5 322 Q 789 293 777 234 Q 757 136 724.5 85 Q 692 34 629.5 7 Q 567 -20 476 -20 Q 362 -20 295 20 Q 228 60 196.50002 138.5 Q 165 217 165 383 L 165 1098 L 335 1098 L 335 391 Q 335 230 372.5 163 Q 410 96 494 96 Q 540 96 569.5 114 Q 599 132 618.5 163.5 Q 638 195 668 294 Q 693 379 717.5 416 Q 742 453 778 472.50003 Q 814 492 869 492 Q 944 492 995.50006 449 Q 1047 406 1087 294 L 1113 222 Q 1159 96 1250 96 Q 1397 112 1479 224.5 Q 1561 337 1561 515 Q 1561 668 1499.5 812 Q 1438 956 1335 1038 Q 1366 1091 1415 1119 Q 1534 1027 1604.5 866 Q 1675 705 1675 524 Q 1675 366 1619.5001 241 Q 1564 116 1460.5001 48 Q 1357 -20 1218 -20 L 1208 -20 Q 1061 -12 1006 171 Q 975 276 946.5 313.5 Q 918 351 873 351 Z"/>
        </g>
        <g transform="matrix(1 0 0 1 9568 1645)">
            <path fill="#000000" stroke="none" d="M 824 -20 Q 758 -20 715 2 Q 672 24 640 56.5 Q 608 89 580 126.50001 Q 552 164 515 196 Q 491 99 429.5 39.5 Q 368 -20 290 -20 Q 211 -20 155.5 36.5 Q 100 93 100 178 Q 100 274 162 323.5 Q 224 373 339 373 L 350 373 L 360 372 L 360 1098 L 530 1098 L 530 324 Q 576 296 608 259.5 Q 640 223 672 190.5 Q 704 158 742 135.5 Q 780 113 838 113 Q 928 113 966.5 183 Q 1005 253 1005 434 L 1005 623 Q 1005 772 948 855 Q 891 938 794 938 Q 769 970 769 1007 Q 769 1041 792 1064 Q 1165 1118 1330 1118 Q 1666 1118 1666 715 L 1666 0 L 1496 0 L 1496 707 Q 1496 837 1473.5 890 Q 1451 943 1396.5001 965 Q 1342 987 1226 987 Q 1149 987 1005 968 Q 1120 858 1120 627 L 1120 383 Q 1120 197 1042 88.5 Q 964 -20 824 -20 Z M 214 178 Q 214 113 287 113 Q 328 113 344 148.5 Q 360 184 360 260 L 320 262 Q 264 262 239 241.5 Q 214 221 214 178 Z"/>
        </g>
        <g transform="matrix(1 0 0 1 12094 1645)">
            <path fill="#000000" stroke="none" d="M 1512 405 Q 1512 -20 1238 -20 Q 1104 -20 1034.5 83 Q 965 186 965 383 L 965 707 Q 965 852 934 909.5 Q 903 967 832 967 Q 782 967 755.5 940.5 Q 729 914 718 857 Q 707 800 707 630 L 707 405 Q 707 -20 433 -20 Q 299 -20 229.5 83 Q 160 186 160 383 L 160 1098 L 330 1098 L 330 391 Q 330 295 342.5 238.5 Q 355 182 379.5 156.5 Q 404 131 459 131 Q 516 131 547 157 Q 578 183 591 239.5 Q 604 296 604 434 L 604 654 Q 604 884 670.5 1001 Q 737 1118 862 1118 Q 989 1118 1062 1011 Q 1135 904 1135 715 L 1135 391 Q 1135 295 1147.5 238.5 Q 1160 182 1184.5 156.5 Q 1209 131 1264 131 Q 1321 131 1352 157 Q 1383 183 1396 239.5 Q 1409 296 1409 434 L 1409 654 Q 1409 884 1475.5 1001 Q 1542 1118 1667 1118 Q 1794 1118 1867 1011 Q 1940 904 1940 715 L 1940 0 L 1770 0 L 1770 707 Q 1770 852 1739 909.5 Q 1708 967 1637 967 Q 1587 967 1560.5 940.5 Q 1534 914 1523 857 Q 1512 800 1512 629 L 1512 405 Z"/>
        </g>
        <g transform="matrix(1 0 0 1 14194 1645)">
            <path fill="#000000" stroke="none" d="M 466 -20 Q 310 -20 240 78 Q 170 176 170 383 L 170 1098 L 340 1098 L 340 391 Q 340 295 357 238 Q 374 181 407 156 Q 440 131 509 131 Q 606 131 653 155 Q 700 179 719.5 235.49998 Q 739 292 739 434 L 739 654 Q 739 872 829 995 Q 919 1118 1080 1118 Q 1227 1118 1302.5 1016 Q 1378 914 1378 715 L 1378 0 L 1208 0 L 1208 707 Q 1208 853 1168.5 910 Q 1129 967 1043 967 Q 944 967 893.49994 890 Q 843 813 843 629 L 842 405 Q 842 182 749.5 81 Q 657 -20 466 -20 Z M 966 -580 L 966 -616 Q 914 -632 882 -632 Q 849 -632 797 -616 L 797 -588 Q 797 -503 782 -451.5 Q 767 -400 743 -370.5 Q 719 -341 688 -328 Q 657 -315 625 -306.5 Q 593 -298 562 -287.5 Q 531 -277 507 -253.5 Q 483 -230 468 -187 Q 453 -144 453 -70 Q 480 -60 509 -60 Q 537 -60 568 -70 Q 568 -135 598 -167 Q 628 -199 694 -206 Q 813 -221 863.49994 -258.5 Q 914 -296 940 -374.49997 Q 966 -453 966 -580 Z"/>
        </g>
        <g transform="matrix(1 0 0 1 15727 1645)">
            <path fill="#000000" stroke="none" d="M 1939 707 Q 1939 836 1904.5001 901.5 Q 1870 967 1784 967 Q 1674 967 1623.5001 884.5 Q 1573 802 1573 606 L 1573 0 L 1403 0 L 1403 707 Q 1403 836 1367 901.5 Q 1331 967 1245 967 Q 1170 967 1125 931 Q 1080 895 1059 830 Q 1038 765 1036 630 Q 1007 622 983 622 Q 962 622 932 628 Q 930 758 909.5 825.5 Q 889 893 847 930 Q 805 967 736 967 Q 666 967 624.5 930 Q 583 893 563 827.5 Q 543 762 540 632 Q 511 624 487 624 Q 466 624 436 630 L 435 645 L 435 661 Q 435 786 474.5 896.50006 Q 514 1007 581 1062.5 Q 648 1118 735 1118 Q 816 1118 880 1069 Q 944 1020 984 926 Q 1068 1118 1272 1118 Q 1477 1118 1540 934 L 1547 934 Q 1589 1028 1657 1073 Q 1725 1118 1808 1118 Q 1897 1118 1968 1073.5 Q 2039 1029 2075 934 L 2083 934 Q 2125 1028 2193 1073 Q 2261 1118 2344 1118 Q 2645 1118 2645 715 L 2645 0 L 2475 0 L 2475 707 Q 2475 836 2440.5 901.5 Q 2406 967 2320 967 Q 2211 967 2160 886.5 Q 2109 806 2109 623 L 2109 0 L 1939 0 L 1939 707 Z M 1035 299 Q 1029 144 913 62 Q 797 -20 593 -20 Q 373 -20 269 81.5 Q 165 183 165 383 L 165 1098 L 335 1098 L 335 391 Q 335 261 405.5 196 Q 476 131 635 131 Q 765 131 840 172 Q 915 213 920 299 Q 947 309 976 309 Q 1004 309 1035 299 Z"/>
        </g>
        <g transform="matrix(1 0 0 1 18532 1645)">
            <path fill="#000000" stroke="none" d="M 734 1118 Q 902 1118 984 926 Q 1070 1118 1273 1118 Q 1573 1118 1573 715 L 1573 0 L 1403 0 L 1403 707 Q 1403 841 1366.5 904 Q 1330 967 1239 967 Q 1138 967 1089 893 Q 1040 819 1036 630 Q 1007 622 983 622 Q 962 622 932 628 Q 932 807 882 887 Q 832 967 734 967 Q 640 967 591.5 892.49994 Q 543 818 540 632 Q 511 624 487 624 Q 466 624 436 630 L 435 645 L 435 661 Q 435 787 475 898 Q 515 1009 581 1063.5 Q 647 1118 734 1118 Z M 863 409 Q 947 409 1008.5 347.5 Q 1070 286 1070 201 Q 1070 98 964.5 39 Q 859 -20 634 -20 Q 456 -20 359 21.500002 Q 262 63 213.5 151 Q 165 239 165 383 L 165 1098 L 335 1098 L 335 375 Q 335 248 437 179.49998 Q 539 111 722 111 Q 686 163 686 225 Q 686 302 737 355.5 Q 788 409 863 409 Z M 856 123 Q 956 143 956 205 Q 956 239 929 266.5 Q 902 294 865 294 Q 833 294 815 274.5 Q 797 255 797 226 Q 797 168 856 123 Z"/>
        </g>
        <g transform="matrix(1 0 0 1 20264 1645)">
            <path fill="#000000" stroke="none" d="M 1059 509 Q 1059 634 1008.5 729 Q 958 824 862 881 Q 766 938 689 938 Q 667 966 667 1000 Q 667 1035 689 1064 Q 786 1082 960 1100 Q 1134 1118 1224 1118 Q 1560 1118 1560 715 L 1560 0 L 1390 0 L 1390 707 Q 1390 837 1367.5 890 Q 1345 943 1290.5 965 Q 1236 987 1120 987 Q 1053 987 953 975 Q 1177 833 1177 475 Q 1177 233 1093 106 Q 1009 -21 850 -21 Q 803 -21 764.49994 -4.5 Q 726 12 671 64 Q 590 -20 462 -20 Q 311 -20 243 78.5 Q 175 177 175 383 L 175 1098 L 345 1098 L 345 391 Q 345 257 386 181.5 Q 427 106 504 106 Q 539 106 564.5 121.49999 Q 590 137 614 158 L 614 377 L 729 377 L 729 158 Q 788 105 843 105 Q 943 105 1001 213.5 Q 1059 322 1059 509 Z"/>
        </g>
        <g transform="matrix(1 0 0 1 21984 1645)">
            <path fill="#000000" stroke="none" d="M 131 622 Q 110 622 80 628 Q 80 863 167.5 990.49994 Q 255 1118 420 1118 Q 622 1118 687 934 L 695 934 Q 777 1118 954 1118 Q 1161 1118 1224 934 L 1229 934 Q 1311 1118 1485 1118 Q 1786 1118 1786 715 L 1786 478 Q 1988 478 2087.5 403.5 Q 2187 329 2187 175 Q 2153 167 2130 167 Q 2106 167 2072 175 Q 2072 278 2006 321 Q 1940 364 1786 364 L 1786 0 L 1616 0 L 1616 364 L 1255 364 L 1255 0 L 1085 0 L 1085 366 Q 908 375 835 420.5 Q 762 466 762 565 Q 762 742 1000 814 Q 1028 776 1028 733 L 1028 725 L 1027 716 Q 903 681 903 601 Q 903 482 1085 477 L 1085 707 Q 1085 836 1050.5 901.5 Q 1016 967 930 967 Q 819 967 770 882.5 Q 721 798 721 606 L 721 0 L 551 0 L 551 707 Q 551 836 515 901.5 Q 479 967 393 967 Q 316 967 272 930.50006 Q 228 894 207 830 Q 186 766 184 630 Q 155 622 131 622 Z M 1255 478 L 1616 478 L 1616 707 Q 1616 836 1581.5 901.5 Q 1547 967 1461 967 Q 1354 967 1304.5 888 Q 1255 809 1255 623 L 1255 478 Z"/>
        </g>
        <g transform="matrix(1 0 0 1 24956 1645)">
            <path fill="#000000" stroke="none" d="M 735 1118 Q 816 1118 880 1069 Q 944 1020 984 926 Q 1068 1118 1272 1118 Q 1477 1118 1540 934 L 1547 934 Q 1589 1028 1657 1073 Q 1725 1118 1808 1118 Q 2109 1118 2109 715 L 2109 0 L 1939 0 L 1939 707 Q 1939 836 1904.5001 901.5 Q 1870 967 1784 967 Q 1674 967 1623.5001 884.5 Q 1573 802 1573 606 L 1573 0 L 1403 0 L 1403 707 Q 1403 836 1367 901.5 Q 1331 967 1245 967 Q 1168 967 1124 930.50006 Q 1080 894 1059 830 Q 1038 766 1036 630 Q 1007 622 983 622 Q 962 622 932 628 L 932 632 Q 930 760 909.5 826 Q 889 892 847.5 929.50006 Q 806 967 736 967 Q 666 967 624.5 930 Q 583 893 563 827.5 Q 543 762 540 632 Q 511 624 487 624 Q 466 624 436 630 L 435 645 L 435 661 Q 435 786 474.5 896.50006 Q 514 1007 581 1062.5 Q 648 1118 735 1118 Z M 1035 299 Q 1029 144 913 62 Q 797 -20 593 -20 Q 373 -20 269 81.5 Q 165 183 165 383 L 165 1098 L 335 1098 L 335 391 Q 335 261 405.5 196 Q 476 131 635 131 Q 765 131 840 172 Q 915 213 920 299 Q 947 309 976 309 Q 1004 309 1035 299 Z"/>
        </g>
        <g transform="matrix(1 0 0 1 27225 1645)">
            <path fill="#000000" stroke="none" d="M 2174 -741 Q 2174 -816 2130 -883 Q 2086 -950 2013 -990 Q 1940 -1030 1866 -1030 Q 1759 -1030 1687 -961.50006 Q 1615 -893 1612 -786 Q 1638 -776 1675 -776 Q 1718 -776 1732 -786 Q 1737 -844 1772.4999 -878.5 Q 1808 -913 1857 -913 Q 1911 -913 1955.5 -868.5 Q 2000 -824 2000 -767 Q 2000 -702 1932.5 -663.5 Q 1865 -625 1757 -625 Q 1747 -611 1747 -569 Q 1747 -533 1757 -507 Q 1833 -507 1892.5 -466 Q 1952 -425 1952 -372 Q 1952 -306 1862 -273.5 Q 1772 -241 1573 -241 L 1573 -693 Q 1573 -912 1457.5 -1016 Q 1342 -1120 1075 -1120 Q 817 -1120 669.5 -980.5 Q 522 -841 522 -593 Q 522 -362 733.49994 -245 Q 945 -128 1403 -128 L 1403 707 Q 1403 836 1367 901.5 Q 1331 967 1245 967 Q 1170 967 1125.5 931.50006 Q 1081 896 1059.5 833 Q 1038 770 1036 641 L 1036 630 Q 1007 622 983 622 Q 962 622 932 628 L 932 632 Q 930 760 909.5 826 Q 889 892 847.5 929.50006 Q 806 967 736 967 Q 666 967 624.5 930 Q 583 893 563 827.5 Q 543 762 540 632 Q 511 624 487 624 Q 466 624 436 630 Q 436 846 512.5 982 Q 589 1118 735 1118 Q 816 1118 880 1069 Q 944 1020 984 926 Q 1068 1118 1272 1118 Q 1573 1118 1573 715 L 1573 -128 Q 2122 -140 2122 -371 Q 2122 -430 2092.5 -472 Q 2063 -514 2005 -548 Q 2095 -577 2134.5 -625 Q 2174 -673 2174 -741 Z M 1101 -1006 Q 1221 -1006 1284.5 -976.5 Q 1348 -947 1375.5 -880 Q 1403 -813 1403 -681 L 1403 -243 Q 1030 -243 862.49994 -321.5 Q 695 -400 695 -573 Q 695 -785 799.49994 -895.49994 Q 904 -1006 1101 -1006 Z M 1035 299 Q 1029 144 913 62 Q 797 -20 593 -20 Q 373 -20 269 81.5 Q 165 183 165 383 L 165 1098 L 335 1098 L 335 391 Q 335 261 405.5 196 Q 476 131 635 131 Q 765 131 840 172 Q 915 213 920 299 Q 947 309 976 309 Q 1004 309 1035 299 Z"/>
        </g>
        <g transform="matrix(1 0 0 1 29554 1645)">
            <path fill="#000000" stroke="none" d="M 1245 967 Q 1170 967 1125.5 931.50006 Q 1081 896 1059.5 833 Q 1038 770 1036 641 L 1036 630 Q 1007 622 983 622 Q 962 622 932 628 L 932 632 Q 930 760 909.5 826 Q 889 892 847.5 929.50006 Q 806 967 736 967 Q 666 967 624.5 930 Q 583 893 563 827.5 Q 543 762 540 632 Q 511 624 487 624 Q 466 624 436 630 Q 436 863 513 990.49994 Q 590 1118 735 1118 Q 816 1118 880 1069 Q 944 1020 984 926 Q 1068 1118 1272 1118 Q 1477 1118 1538 934 L 1545 934 Q 1587 1028 1655 1073 Q 1723 1118 1806 1118 Q 2102 1118 2102 715 L 2102 0 L 1937 0 L 1937 707 Q 1937 836 1902.4999 901.5 Q 1868 967 1782 967 Q 1672 967 1621.5001 884.5 Q 1571 802 1571 606 L 1571 0 L 1403 0 L 1403 707 Q 1403 840 1365 903.5 Q 1327 967 1245 967 Z M 1035 299 Q 1024 112 864 32 L 864 -65 Q 864 -170 892 -224 Q 920 -278 983 -278 Q 1013 -278 1038.5 -249.5 Q 1064 -221 1073 -153 L 1082 -152 L 1090 -152 Q 1133 -152 1171 -180 Q 1152 -286 1091 -352 Q 1030 -418 949 -418 Q 751 -418 751 -69 L 751 -5 Q 682 -20 593 -20 Q 373 -20 269 81.5 Q 165 183 165 383 L 165 1098 L 335 1098 L 335 391 Q 335 261 405.5 196 Q 476 131 635 131 Q 702 131 751 141 L 751 226 Q 751 331 723 385 Q 695 439 632 439 Q 602 439 576.5 410.5 Q 551 382 542 314 L 533 313 L 525 313 Q 482 313 444 341 Q 463 447 524 513 Q 585 579 666 579 Q 864 579 864 230 L 864 188 Q 916 229 920 299 Q 947 309 976 309 Q 1004 309 1035 299 Z"/>
        </g>
        <g transform="matrix(1 0 0 1 31816 1645)">
            <path fill="#000000" stroke="none" d="M 1303 -1003 Q 1457 -1003 1556 -987 Q 1655 -971 1713 -937.5 Q 1771 -904 1799 -846 Q 1827 -788 1827 -649 L 1827 987 Q 1276 1107 1276 1425 Q 1276 1545 1356.5 1625 Q 1437 1705 1554 1705 Q 1664 1705 1752 1626 Q 1840 1547 1890.5 1403 Q 1941 1259 1941 1107 L 1941 1087 Q 2186 1033 2325 923 Q 2464 813 2464 682 Q 2464 569 2348 495 Q 2232 421 2047 418 L 2020 418 Q 2012 452 2012 476 Q 2012 498 2020 532 Q 2135 536 2210.5 587.5 Q 2286 639 2286 706 Q 2286 783 2194 852 Q 2102 921 1941 960 L 1941 -657 Q 1941 -826 1887.5 -926 Q 1834 -1026 1721 -1072 Q 1608 -1118 1404 -1118 Q 796 -1118 796 -715 Q 796 -546 893 -441 Q 990 -336 1174 -296 Q 1278 -274 1318 -244 Q 1358 -214 1380.5 -160 Q 1403 -106 1403 -20 L 1403 707 Q 1403 836 1367 901.5 Q 1331 967 1245 967 Q 1170 967 1125.5 931.50006 Q 1081 896 1059.5 833 Q 1038 770 1036 641 L 1036 630 Q 1007 622 983 622 Q 962 622 932 628 L 932 632 Q 930 760 909.5 826 Q 889 892 847.5 929.50006 Q 806 967 736 967 Q 666 967 624.5 930 Q 583 893 563 827.5 Q 543 762 540 632 Q 511 624 487 624 Q 466 624 436 630 Q 436 846 512.5 982 Q 589 1118 735 1118 Q 816 1118 880 1069 Q 944 1020 984 926 Q 1068 1118 1272 1118 Q 1573 1118 1573 715 L 1573 -20 Q 1573 -192 1497 -285.5 Q 1421 -379 1248 -408 Q 1070 -438 990.49994 -516.5 Q 911 -595 911 -717 Q 911 -809 960.50006 -874.5 Q 1010 -940 1103 -971.5 Q 1196 -1003 1303 -1003 Z M 1035 299 Q 1029 144 913 62 Q 797 -20 593 -20 Q 373 -20 269 81.5 Q 165 183 165 383 L 165 1098 L 335 1098 L 335 391 Q 335 261 405.5 196 Q 476 131 635 131 Q 765 131 840 172 Q 915 213 920 299 Q 947 309 976 309 Q 1004 309 1035 299 Z M 1405 1444 Q 1405 1325 1502.5 1245.5 Q 1600 1166 1815 1117 Q 1800 1323 1725.5 1456 Q 1651 1589 1535 1589 Q 1478 1589 1441.5 1553.5001 Q 1405 1518 1405 1444 Z"/>
        </g>
        <g transform="matrix(1 0 0 1 34430 1645)">
            <path fill="#000000" stroke="none" d="M 842 405 Q 842 182 749.5 81 Q 657 -20 466 -20 Q 310 -20 240 78 Q 170 176 170 383 L 170 1098 L 340 1098 L 340 391 Q 340 295 357 238 Q 374 181 407 156 Q 440 131 509 131 Q 606 131 653 155 Q 700 179 719.5 235.49998 Q 739 292 739 434 L 737 654 Q 737 870 828 994 Q 919 1118 1080 1118 Q 1227 1118 1302.5 1016 Q 1378 914 1378 715 L 1378 0 L 1208 0 L 1208 707 Q 1208 853 1168.5 910 Q 1129 967 1043 967 Q 932 967 886.5 883 Q 841 799 841 630 L 841 601 L 842 405 Z"/>
        </g>
        <g transform="matrix(1 0 0 1 35968 1645)">
            <path fill="#000000" stroke="none" d="M 735 1118 Q 816 1118 880 1069 Q 944 1020 984 926 Q 1068 1118 1272 1118 Q 1573 1118 1573 715 L 1573 0 L 1403 0 L 1403 707 Q 1403 836 1367 901.5 Q 1331 967 1245 967 Q 1170 967 1125.5 931.50006 Q 1081 896 1059.5 833 Q 1038 770 1036 641 L 1036 630 Q 1007 622 983 622 Q 962 622 932 628 L 932 632 Q 930 760 909.5 826 Q 889 892 847.5 929.50006 Q 806 967 736 967 Q 666 967 624.5 930 Q 583 893 563 827.5 Q 543 762 540 632 Q 511 624 487 624 Q 466 624 436 630 L 435 645 L 435 661 Q 435 786 474.5 896.50006 Q 514 1007 581 1062.5 Q 648 1118 735 1118 Z M 668 -17 L 589 -20 Q 165 -20 165 383 L 165 1098 L 335 1098 L 335 391 Q 335 264 404 198 Q 473 132 631 132 L 712 135 Q 760 225 829 267.5 Q 898 310 976 310 Q 998 310 1035 299 Q 1029 185 965.5 110.50001 Q 902 36 790 4 Q 770 -43 770 -89 Q 770 -140 793.5 -167.5 Q 817 -195 858 -195 Q 901 -195 923.5 -174.5 Q 946 -154 948 -128 Q 982 -120 1007 -120 Q 1032 -120 1062 -128 Q 1058 -203 1002 -256 Q 946 -309 867 -309 Q 779 -309 722 -241.5 Q 665 -174 665 -72 L 668 -17 Z"/>
        </g>
        <g transform="matrix(1 0 0 1 38401 1645)">
            <path fill="#000000" stroke="none" d="M 1245 967 Q 1170 967 1125.5 931.50006 Q 1081 896 1059.5 833 Q 1038 770 1036 641 L 1036 630 Q 1007 622 983 622 Q 962 622 932 628 L 932 632 Q 930 760 909.5 826 Q 889 892 847.5 929.50006 Q 806 967 736 967 Q 666 967 624.5 930 Q 583 893 563 827.5 Q 543 762 540 632 Q 511 624 487 624 Q 466 624 436 630 Q 436 863 513 990.49994 Q 590 1118 735 1118 Q 816 1118 880 1069 Q 944 1020 984 926 Q 1068 1118 1272 1118 Q 1477 1118 1538 934 L 1545 934 Q 1587 1028 1655 1073 Q 1723 1118 1806 1118 Q 2102 1118 2102 715 L 2102 0 L 1937 0 L 1937 707 Q 1937 836 1902.4999 901.5 Q 1868 967 1782 967 Q 1672 967 1621.5001 884.5 Q 1571 802 1571 606 L 1571 0 L 1403 0 L 1403 707 Q 1403 840 1365 903.5 Q 1327 967 1245 967 Z M 1035 299 Q 1029 144 913 62 Q 797 -20 593 -20 Q 373 -20 269 81.5 Q 165 183 165 383 L 165 1098 L 335 1098 L 335 391 Q 335 261 405.5 196 Q 476 131 635 131 Q 765 131 840 172 Q 915 213 920 299 Q 947 309 976 309 Q 1004 309 1035 299 Z M 1943 -580 L 1943 -616 Q 1891 -632 1859 -632 Q 1826 -632 1774 -616 L 1774 -588 Q 1774 -503 1759 -451.5 Q 1744 -400 1720 -370.5 Q 1696 -341 1665 -328 Q 1634 -315 1602 -306.5 Q 1570 -298 1539 -287.5 Q 1508 -277 1484 -253.5 Q 1460 -230 1445 -187 Q 1430 -144 1430 -70 Q 1457 -60 1486 -60 Q 1514 -60 1545 -70 Q 1545 -135 1575 -167 Q 1605 -199 1671 -206 Q 1790 -221 1840.5001 -258.5 Q 1891 -296 1917 -374.49997 Q 1943 -453 1943 -580 Z"/>
        </g>
        <g transform="matrix(1 0 0 1 40663 1645)">
            <path fill="#000000" stroke="none" d="M 1789 -20 Q 1656 80 1550 176 Q 1394 -20 1224 -20 Q 1063 -20 1008 166 Q 976 271 947.5 311 Q 919 351 873 351 Q 834 351 811.5 322 Q 789 293 777 234 Q 757 136 723.5 84.5 Q 690 33 628.5 6.5 Q 567 -20 479 -20 Q 364 -20 296 20.5 Q 228 61 196.50002 138 Q 165 215 165 383 L 165 1098 L 335 1098 L 335 391 Q 335 224 374 160 Q 413 96 501 96 Q 544 96 572.5 114.50001 Q 601 133 620.5 166.5 Q 640 200 668 294 Q 694 380 718.5 416 Q 743 452 778.5 472 Q 814 492 869 492 Q 949 492 1001 442.5 Q 1053 393 1086 294 Q 1121 183 1155.5 139.5 Q 1190 96 1244 96 Q 1347 96 1462 260 Q 1324 399 1258.5 524 Q 1193 649 1193 777 Q 1193 936 1271 1027 Q 1349 1118 1484 1118 Q 1620 1118 1694.5 1032.5 Q 1769 947 1769 781 Q 1769 660 1729 525.5 Q 1689 391 1619 275 Q 1697 202 1846 80 Q 1835 22 1789 -20 Z M 1321 754 Q 1321 666 1369.5 573 Q 1418 480 1526 367 Q 1580 473 1610 584 Q 1640 695 1640 778 Q 1640 879 1595 939.5 Q 1550 1000 1475 1000 Q 1407 1000 1364 927.49994 Q 1321 855 1321 754 Z"/>
        </g>
        <g transform="matrix(1 0 0 1 42589 1645)">
            <path fill="#000000" stroke="none" d="M 1059 509 Q 1059 634 1008.5 729 Q 958 824 862 881 Q 766 938 689 938 Q 667 966 667 1000 Q 667 1035 689 1064 Q 786 1082 960 1100 Q 1134 1118 1224 1118 Q 1560 1118 1560 715 L 1560 0 L 1390 0 L 1390 707 Q 1390 837 1367.5 890 Q 1345 943 1290.5 965 Q 1236 987 1120 987 Q 1053 987 953 975 Q 1177 833 1177 475 Q 1177 258 1102 148 Q 1027 38 864 1 L 864 -65 Q 864 -170 892 -224 Q 920 -278 983 -278 Q 1013 -278 1038.5 -249.5 Q 1064 -221 1073 -153 L 1082 -152 L 1090 -152 Q 1133 -152 1171 -180 Q 1152 -286 1091 -352 Q 1030 -418 949 -418 Q 751 -418 751 -69 L 751 -16 Q 703 -20 650 -20 Q 465 -20 364.5 17 Q 264 54 219.49998 136.5 Q 175 219 175 383 L 175 1098 L 345 1098 L 345 391 Q 345 282 373.5 221 Q 402 160 464 133 Q 526 106 658 106 Q 696 106 751 111 L 751 226 Q 751 331 723 385 Q 695 439 632 439 Q 602 439 576.5 410.5 Q 551 382 542 314 L 533 313 L 525 313 Q 482 313 444 341 Q 463 447 524 513 Q 585 579 666 579 Q 864 579 864 230 L 864 136 Q 965 174 1012 261.5 Q 1059 349 1059 509 Z"/>
        </g>
        <g transform="matrix(1 0 0 1 44309 1645)">
            <path fill="#000000" stroke="none" d="M 735 1118 Q 816 1118 880 1069 Q 944 1020 984 926 Q 1068 1118 1272 1118 Q 1573 1118 1573 715 L 1573 0 L 1403 0 L 1403 707 Q 1403 836 1367 901.5 Q 1331 967 1245 967 Q 1170 967 1125.5 931.50006 Q 1081 896 1059.5 833 Q 1038 770 1036 641 L 1036 630 Q 1007 622 983 622 Q 962 622 932 628 L 932 632 Q 930 760 909.5 826 Q 889 892 847.5 929.50006 Q 806 967 736 967 Q 666 967 624.5 930 Q 583 893 563 827.5 Q 543 762 540 632 Q 511 624 487 624 Q 466 624 436 630 L 435 645 L 435 661 Q 435 786 474.5 896.50006 Q 514 1007 581 1062.5 Q 648 1118 735 1118 Z M 1035 299 Q 1029 144 913 62 Q 797 -20 593 -20 Q 373 -20 269 81.5 Q 165 183 165 383 L 165 1098 L 335 1098 L 335 391 Q 335 261 405.5 196 Q 476 131 635 131 Q 765 131 840 172 Q 915 213 920 299 Q 947 309 976 309 Q 1004 309 1035 299 Z"/>
        </g>
        <g transform="matrix(1 0 0 1 46037 1645)">
            <path fill="#000000" stroke="none" d="M 269 837 Q 269 777 241 726 Q 163 749 125.49999 799 Q 88 849 88 917 Q 88 1012 164 1065 Q 240 1118 389 1118 Q 515 1118 586 1072 Q 657 1026 688 934 L 695 934 Q 739 1029 805 1073.5 Q 871 1118 964 1118 Q 1108 1118 1182.5 1014.5 Q 1257 911 1257 715 L 1257 0 L 1087 0 L 1087 707 Q 1087 849 1049.5 908 Q 1012 967 925 967 Q 821 967 771 882 Q 721 797 721 606 L 721 0 L 551 0 L 551 707 Q 551 859 494.5 937 Q 438 1015 333 1015 Q 274 1015 238.5 990.49994 Q 203 966 203 922 Q 203 898 219 874.5 Q 235 851 269 837 Z"/>
        </g>
        <g transform="matrix(1 0 0 1 47454 1645)">
            <path fill="#000000" stroke="none" d="M 177 0 L 176 127 L 176 230 L 175 453 L 175 654 Q 175 870 266 994 Q 357 1118 518 1118 Q 665 1118 740.5 1016 Q 816 914 816 715 L 816 391 Q 816 295 833 238 Q 850 181 883 156 Q 916 131 985 131 Q 1082 131 1129 155 Q 1176 179 1195.5 235.49998 Q 1215 292 1215 434 L 1213 654 Q 1213 870 1304 994 Q 1395 1118 1556 1118 Q 1703 1118 1778.5001 1016 Q 1854 914 1854 715 L 1854 0 L 1684 0 L 1684 707 Q 1684 853 1644.4999 910 Q 1605 967 1519 967 Q 1408 967 1362.5 883 Q 1317 799 1317 630 L 1317 601 L 1318 405 Q 1318 182 1225.5 81 Q 1133 -20 942 -20 Q 786 -20 716 78 Q 646 176 646 383 L 646 707 Q 646 853 606.5 910 Q 567 967 481 967 Q 370 967 324.5 883 Q 279 799 279 630 L 279 223 L 280 0 L 177 0 Z"/>
        </g>
        <g transform="matrix(1 0 0 1 50168 1645)">
            <path fill="#000000" stroke="none" d="M 552 1062 Q 552 1034 543 1004 L 444 1004 Q 378 1004 342.5 965 Q 307 926 307 849 Q 307 755 365.5 703 Q 424 651 539 651 Q 548 622 548 595 Q 548 567 539 537 Q 423 537 351 469.5 Q 279 402 279 302 Q 279 206 335.5 150.5 Q 392 95 496 95 Q 584 95 634.5 124.5 Q 685 154 707 215.5 Q 729 277 729 417 L 729 657 Q 729 868 824 993 Q 919 1118 1083 1118 Q 1378 1118 1378 715 L 1378 0 L 1208 0 L 1208 707 Q 1208 853 1168.5 910 Q 1129 967 1043 967 Q 932 967 887 883 Q 842 799 842 630 L 842 405 Q 842 239 806 153 Q 770 67 690.5 23.500002 Q 611 -20 479 -20 Q 316 -20 213 71.5 Q 110 163 110 315 Q 110 427 168 505 Q 226 583 326 599 L 326 605 Q 138 651 138 841 Q 138 977 215.5 1047.5 Q 293 1118 446 1118 L 543 1118 Q 552 1089 552 1062 Z"/>
        </g>
        <g transform="matrix(1 0 0 1 51706 1645)">
            <path fill="#000000" stroke="none" d="M 2159 707 Q 2159 853 2119.5 910 Q 2080 967 1994 967 Q 1793 967 1793 670 L 1793 0 L 1623 0 L 1623 707 Q 1623 836 1588.5001 901.5 Q 1554 967 1468 967 Q 1359 967 1308 886.5 Q 1257 806 1257 623 L 1257 0 L 1087 0 L 1087 707 Q 1087 836 1052.5 901.5 Q 1018 967 932 967 Q 822 967 771.50006 884.5 Q 721 802 721 606 L 721 0 L 551 0 L 551 707 Q 551 836 515 901.5 Q 479 967 393 967 Q 316 967 272 930.50006 Q 228 894 207 830 Q 186 766 184 630 Q 155 622 131 622 Q 110 622 80 628 Q 80 863 167.5 990.49994 Q 255 1118 420 1118 Q 622 1118 687 934 L 695 934 Q 737 1028 805 1073 Q 873 1118 956 1118 Q 1163 1118 1226 934 L 1234 934 Q 1316 1118 1492 1118 Q 1686 1118 1753 957 L 1761 957 Q 1850 1118 2031 1118 Q 2178 1118 2253.5 1016 Q 2329 914 2329 715 L 2329 391 Q 2329 292 2340.5 236 Q 2352 180 2375.5 155.5 Q 2399 131 2453 131 Q 2510 131 2541 157 Q 2572 183 2585 239.5 Q 2598 296 2598 434 L 2598 1118 L 2514 1118 Q 2431 1118 2373.5 1173 Q 2316 1228 2316 1305 Q 2316 1382 2373.5 1437 Q 2431 1492 2514 1492 Q 2597 1492 2655 1437.5 Q 2713 1383 2713 1305 L 2713 405 Q 2713 205 2640 92.5 Q 2567 -20 2427 -20 Q 2159 -20 2159 383 L 2159 707 Z M 2598 1232 L 2598 1305 Q 2598 1335 2574 1356.5 Q 2550 1378 2514 1378 Q 2478 1378 2455 1356.5 Q 2432 1335 2432 1305 Q 2432 1275 2455 1253.5 Q 2478 1232 2514 1232 L 2598 1232 Z"/>
        </g>
        <g transform="matrix(1 0 0 1 54489 1645)">
            <path fill="#000000" stroke="none" d="M 2660 179 Q 2660 85 2606.5 32.5 Q 2553 -20 2454 -20 Q 2364 -20 2291 29 Q 2189 -20 2065 -20 Q 1905 -20 1832.4999 75 Q 1760 170 1760 369 L 1760 578 Q 1760 681 1729.5 731.5 Q 1699 782 1632 782 Q 1572 782 1540.5 731.5 Q 1509 681 1509 591 L 1509 322 Q 1509 218 1473.5 140 Q 1438 62 1375 21 Q 1312 -20 1233 -20 Q 1098 -20 1031.5 80 Q 965 180 965 369 L 965 667 Q 965 782 951 843.5 Q 937 905 907 936 Q 877 967 832 967 Q 708 967 708 725 L 708 330 Q 708 163 633 71.5 Q 558 -20 433 -20 Q 304 -20 232 69.5 Q 160 159 160 329 L 160 717 Q 160 913 244.50002 1015.5 Q 329 1118 488 1118 Q 499 1065 499 1043 Q 499 1015 488 969 Q 404 969 367 906.5 Q 330 844 330 721 L 330 308 Q 330 218 364.5 174.5 Q 399 131 459 131 Q 523 131 560.5 170 Q 598 209 598 275 L 598 717 Q 598 906 668 1012 Q 738 1118 862 1118 Q 993 1118 1064 1001 Q 1135 884 1135 671 L 1135 349 Q 1135 233 1162.5 182 Q 1190 131 1259 131 Q 1323 131 1358.5 176 Q 1394 221 1394 301 L 1394 493 Q 1394 707 1463 820 Q 1532 933 1662 933 Q 1789 933 1859.5 827.5 Q 1930 722 1930 527 L 1930 369 Q 1930 276 1942.5 225 Q 1955 174 1983 152.5 Q 2011 131 2076 131 Q 2143 131 2191 144 Q 2135 252 2135 410 Q 2135 565 2202 654 Q 2269 743 2384 743 Q 2467 743 2532 672 Q 2597 601 2597 500 Q 2597 420 2570 354 Q 2620 317 2640 269 Q 2660 221 2660 179 Z M 2339 215 Q 2402 272 2439 343 Q 2476 414 2476 483 Q 2476 550 2453.5 581.5 Q 2431 613 2399 613 Q 2359 613 2331.5 552.5 Q 2304 492 2304 398 Q 2304 292 2339 215 Z M 2493 90 Q 2521 90 2540 113 Q 2559 136 2559 172 Q 2559 222 2523 253 Q 2480 179 2417 117 Q 2454 90 2493 90 Z"/>
        </g>
        <g transform="matrix(1 0 0 1 57309 1645)">
            <path fill="#000000" stroke="none" d="M 175 0 L 175 1098 L 345 1098 L 345 373 L 662 373 L 662 654 Q 662 862 771.50006 990 Q 881 1118 1061 1118 Q 1180 1118 1260.5 1069.5 Q 1341 1021 1380 934 L 1388 934 Q 1435 1028 1509.5 1073 Q 1584 1118 1675 1118 Q 2002 1118 2002 715 L 2002 0 L 1832 0 L 1832 707 Q 1832 836 1790 901.5 Q 1748 967 1649 967 Q 1528 967 1472.5 884 Q 1417 801 1417 606 L 1417 0 L 1247 0 L 1247 707 Q 1247 830 1187.5 898.50006 Q 1128 967 1024 967 Q 892 967 834 884 Q 776 801 776 629 L 776 373 L 849 373 Q 927 373 981.5 316.5 Q 1036 260 1036 178 Q 1036 95 981 37.5 Q 926 -20 849 -20 Q 772 -20 717 37.5 Q 662 95 662 178 L 662 262 L 345 262 L 345 0 L 175 0 Z M 776 178 Q 776 142 797.49994 116 Q 819 90 849 90 Q 879 90 900.5 116 Q 922 142 922 178 Q 922 214 900.5 238 Q 879 262 849 262 L 776 262 L 776 178 Z"/>
        </g>
        <g transform="matrix(1 0 0 1 59471 1645)">
            <path fill="#000000" stroke="none" d="M 1059 509 Q 1059 634 1008.5 729 Q 958 824 862 881 Q 766 938 689 938 Q 667 966 667 1000 Q 667 1035 689 1064 Q 786 1082 960 1100 Q 1134 1118 1224 1118 Q 1560 1118 1560 715 L 1560 0 L 1390 0 L 1390 707 Q 1390 837 1367.5 890 Q 1345 943 1290.5 965 Q 1236 987 1120 987 Q 1053 987 953 975 Q 1177 833 1177 475 Q 1177 233 1093 106 Q 1009 -21 850 -21 Q 803 -21 764.49994 -4.5 Q 726 12 671 64 Q 590 -20 462 -20 Q 311 -20 243 78.5 Q 175 177 175 383 L 175 1098 L 345 1098 L 345 391 Q 345 257 386 181.5 Q 427 106 504 106 Q 539 106 564.5 121.49999 Q 590 137 614 158 L 614 377 L 729 377 L 729 158 Q 788 105 843 105 Q 943 105 1001 213.5 Q 1059 322 1059 509 Z"/>
        </g>
        <g transform="matrix(1 0 0 1 61191 1645)">
            <path fill="#000000" stroke="none" d="M 782 361 Q 823 373 855 373 Q 933 373 987.5 316.5 Q 1042 260 1042 178 Q 1042 95 987 37.5 Q 932 -20 855 -20 Q 800 -20 755 10 Q 710 40 687 89 Q 588 -20 428 -20 Q 294 -20 224.5 83 Q 155 186 155 383 L 155 1098 L 325 1098 L 325 391 Q 325 295 337.5 238.5 Q 350 182 374.49997 156.5 Q 399 131 454 131 Q 542 131 623 226 L 668 278 L 668 654 Q 668 862 777.5 990 Q 887 1118 1067 1118 Q 1238 1118 1330.5 1018.5 Q 1423 919 1423 734 L 1423 0 L 1253 0 L 1253 707 Q 1253 830 1193.5 898.50006 Q 1134 967 1030 967 Q 898 967 840 884 Q 782 801 782 629 L 782 361 Z M 782 192 Q 782 138 803.50006 114 Q 825 90 855 90 Q 885 90 906.5 116 Q 928 142 928 178 Q 928 214 906.5 238 Q 885 262 855 262 Q 820 262 782 215 L 782 192 Z"/>
        </g>
    </g>
</svg>
