<svg width="62107" height="3302" viewBox="0 0 62107 3302" xmlns="http://www.w3.org/2000/svg">
    <defs/>
    <path fill="#000000" stroke="none" transform="matrix(1 0 0 -1 0 2022)" d="M 1182 1507 C 1131.33333333333 1327.66666666667 1093.66666666667 1114 1069 866 C 1044.33333333333 617.33333333333 1025.33333333333 252.33333333333 1012 -229 L 958 -229 C 936 117 916.33333333333 385.33333333333 899 576 C 881 766 861 928 839 1062 C 817 1196 783.66666666667 1344.33333333333 739 1507 C 807 1490.33333333333 877.66666666667 1481.66666666667 951 1481 C 1027 1481 1104 1489.66666666667 1182 1507 Z M 1716 1507 C 1665.33333333333 1327.66666666667 1627.66666666667 1108.33333333333 1603 849 C 1577.66666666667 589.66666666667 1558.66666666667 230.33333333333 1546 -229 L 1493 -229 C 1465 188.33333333333 1442.33333333333 484.66666666667 1425 660 C 1407.66666666667 834.66666666667 1387.66666666667 986 1365 1114 C 1341.66666666667 1242 1311.33333333333 1373 1274 1507 C 1342 1490.33333333333 1412.33333333333 1481.66666666667 1485 1481 C 1561 1481 1638 1489.66666666667 1716 1507 Z M 647 1507 C 609.66666666667 1368.33333333333 580.66666666667 1225.33333333333 560 1078 C 539.33333333333 930.66666666667 522.66666666667 752.33333333333 510 543 C 496.66666666667 333 485.66666666667 75.66666666667 477 -229 L 424 -229 C 396 188.33333333333 373.33333333333 484.66666666667 356 660 C 338.66666666667 834.66666666667 318.66666666667 986 296 1114 C 272.66666666667 1242 242.33333333333 1373 205 1507 C 273 1490.33333333333 343.33333333333 1481.66666666667 416 1481 C 492 1481 569 1489.66666666667 647 1507 Z"/>
    <path fill="#000000" stroke="none" transform="matrix(1 0 0 -1 1921 2022)" d="M 649 1507 C 733 1486.33333333333 806.66666666667 1476 870 1476 C 931.33333333333 1476 1004.66666666667 1486.33333333333 1090 1507 C 1049.33333333333 1401 1019.33333333333 1315 1000 1249 C 980 1183 961.33333333333 1107 944 1021 C 926 935 909 842.33333333333 893 743 L 853 743 C 783 538.33333333333 722 214.33333333333 670 -229 L 623 -229 C 611.66666666667 -58.33333333333 591.66666666667 107.66666666667 563 269 C 533.66666666667 430.33333333333 492.33333333333 588.33333333333 439 743 L 401 743 C 374.33333333333 907.66666666667 349 1040 325 1140 C 300.33333333333 1240 271 1333.66666666667 237 1421 L 205 1507 C 289 1486.33333333333 362.33333333333 1476 425 1476 C 486.33333333333 1476 559.66666666667 1486.33333333333 645 1507 L 614 1424 C 579.33333333333 1334.66666666667 550.33333333333 1243 527 1149 C 503.66666666667 1055 479.33333333333 929.66666666667 454 773 C 524.66666666667 757 589 749 647 749 C 703 749 767.66666666667 757.33333333333 841 774 C 818.33333333333 912.66666666667 794.66666666667 1033 770 1135 C 745.33333333333 1236.33333333333 715.66666666667 1332.33333333333 681 1423 L 649 1507 Z"/>
    <path fill="#000000" stroke="none" transform="matrix(1 0 0 -1 3215 2022)" d="M 1300 1507 C 1266 1414.33333333333 1235.33333333333 1285.33333333333 1208 1120 C 1180 954.66666666667 1157.66666666667 774 1141 578 C 1338.33333333333 546 1559.33333333333 522 1804 506 L 1804 459 C 1520.66666666667 424.33333333333 1296.66666666667 389.33333333333 1132 354 C 966.66666666667 318 835.66666666667 278.66666666667 739 236 C 749 307.33333333333 754 373 754 433 C 627.33333333333 402.33333333333 521 368.33333333333 435 331 C 348.33333333333 293.66666666667 273.66666666667 249.66666666667 211 199 C 221 292.33333333333 226.33333333333 368.66666666667 227 428 C 227 514.66666666667 219.66666666667 597.33333333333 205 676 C 290.33333333333 612.66666666667 401.66666666667 562.66666666667 539 526 C 479.66666666667 992 409.33333333333 1314.33333333333 328 1493 C 406 1483 476.33333333333 1478 539 1478 C 613 1478.66666666667 689.33333333333 1488.33333333333 768 1507 C 736 1421.66666666667 705.33333333333 1294.66666666667 676 1126 C 646 957.33333333333 622 752 604 510 C 649.33333333333 499.33333333333 699 490.33333333333 753 483 C 750.33333333333 548.33333333333 741 612.66666666667 725 676 C 801.66666666667 646.66666666667 914 618.66666666667 1062 592 C 1005.33333333333 1016.66666666667 938 1317 860 1493 C 938 1483 1008.66666666667 1478 1072 1478 C 1146.66666666667 1478.66666666667 1222.66666666667 1488.33333333333 1300 1507 Z"/>
    <path fill="#000000" stroke="none" transform="matrix(1 0 0 -1 5224 2022)" d="M 205 664 L 350 810 C 599.33333333333 1057.33333333333 829.33333333333 1294.66666666667 1040 1522 L 1083 1491 C 893 1189 731.33333333333 913.33333333333 598 664 L 679 507 C 825.66666666667 220.33333333333 960.33333333333 -20.33333333333 1083 -215 L 1040 -246 C 944.66666666667 -143.33333333333 777.33333333333 42.66666666667 538 312 C 388 480 277 597.33333333333 205 664 Z"/>
    <path fill="#000000" stroke="none" transform="matrix(1 0 0 -1 6512 2022)" d="M 205 727 C 223 807 232 881.66666666667 232 951 C 232 1024.33333333333 223 1097 205 1169 C 371.66666666667 1123 527.66666666667 1088.66666666667 673 1066 C 817.66666666667 1043.33333333333 990.33333333333 1023.33333333333 1191 1006 C 1391 988 1641.33333333333 969.33333333333 1942 950 L 1942 897 C 1646 889 1392 878.33333333333 1180 865 C 967.33333333333 851.66666666667 786.66666666667 835 638 815 C 489.33333333333 794.33333333333 345 765 205 727 Z M 205 207 C 223 287 232 361.66666666667 232 431 C 232 504.33333333333 223 577 205 649 C 371.66666666667 603 527.66666666667 568.66666666667 673 546 C 817.66666666667 523.33333333333 990.33333333333 503.33333333333 1191 486 C 1391 468 1641.33333333333 449.33333333333 1942 430 L 1942 377 C 1646 369 1392 358.33333333333 1180 345 C 967.33333333333 331.66666666667 786.66666666667 315 638 295 C 489.33333333333 274.33333333333 345 245 205 207 Z"/>
    <path fill="#000000" stroke="none" transform="matrix(1 0 0 -1 8658 2022)" d="M 1036 1075 C 1142 1054.33333333333 1368.33333333333 1020.66666666667 1715 974 C 2061.66666666667 927.33333333333 2317.33333333333 895 2482 877 L 2482 829 C 1918 766.33333333333 1550.33333333333 722.33333333333 1379 697 C 1207 671.66666666667 1092.66666666667 651 1036 635 C 1050.66666666667 724.33333333333 1058 806.33333333333 1058 881 C 1058 944.33333333333 1050.66666666667 1009 1036 1075 Z M 205 817 C 297 781 428 743.33333333333 598 704 C 767.33333333333 664 915.33333333333 635.33333333333 1042 618 L 1042 571 C 866.66666666667 546.33333333333 700.33333333333 515.66666666667 543 479 C 385 442.33333333333 272.33333333333 408.33333333333 205 377 C 219.66666666667 466.33333333333 227 548.33333333333 227 623 C 227 686.33333333333 219.66666666667 751 205 817 Z M 205 1337 C 290.33333333333 1302.33333333333 416 1265.66666666667 582 1227 C 747.33333333333 1187.66666666667 900 1158.33333333333 1040 1139 L 1040 1092 C 885.33333333333 1070 726 1040.66666666667 562 1004 C 398 967.33333333333 279 931.66666666667 205 897 C 219.66666666667 986.33333333333 227 1068.33333333333 227 1143 C 227 1206.33333333333 219.66666666667 1271 205 1337 Z"/>
    <path fill="#000000" stroke="none" transform="matrix(1 0 0 -1 11877 2022)" d="M 1300 1507 C 1269.33333333333 1423 1239.66666666667 1295.33333333333 1211 1124 C 1182.33333333333 952 1159 755.66666666667 1141 535 C 1207.66666666667 517.66666666667 1270.66666666667 503.33333333333 1330 492 C 1328.66666666667 553.33333333333 1322.33333333333 614.66666666667 1311 676 C 1393.66666666667 651.33333333333 1486.33333333333 626 1589 600 C 1529.66666666667 1037.33333333333 1464.33333333333 1335 1393 1493 C 1471 1483 1541.33333333333 1478 1604 1478 C 1678 1478.66666666667 1754.33333333333 1488.33333333333 1833 1507 C 1803.66666666667 1428.33333333333 1775 1307 1747 1143 C 1718.33333333333 979 1695 791.33333333333 1677 580 C 1869 536 2106.66666666667 503 2390 481 L 2390 428 L 2178 416 C 1888 401.33333333333 1599 340.33333333333 1311 233 C 1321 307.66666666667 1327 369 1329 417 C 1215 395 1113.66666666667 369.66666666667 1025 341 C 935.66666666667 312.33333333333 846.66666666667 276.33333333333 758 233 C 768 307.66666666667 774 369 776 417 C 662 395 560.66666666667 369.66666666667 472 341 C 382.66666666667 312.33333333333 293.66666666667 276.33333333333 205 233 C 217.66666666667 329.66666666667 224 415.66666666667 224 491 C 224 574.33333333333 217.66666666667 647 205 709 L 275 678 C 390.33333333333 621.33333333333 474.66666666667 583 528 563 C 467.33333333333 1021.66666666667 400.66666666667 1331.66666666667 328 1493 C 406 1483 476.33333333333 1478 539 1478 C 613 1478.66666666667 689.33333333333 1488.33333333333 768 1507 C 739.33333333333 1431.66666666667 710.33333333333 1308 681 1136 C 651.66666666667 964 627.66666666667 764 609 536 C 672.33333333333 516 728.33333333333 501.33333333333 777 492 C 775.66666666667 553.33333333333 769.33333333333 614.66666666667 758 676 C 800.66666666667 658 846.33333333333 639 895 619 C 943.66666666667 598.33333333333 999 578.33333333333 1061 559 C 1000.33333333333 1017.66666666667 933.33333333333 1329 860 1493 C 938 1483 1008.66666666667 1478 1072 1478 C 1146.66666666667 1478.66666666667 1222.66666666667 1488.33333333333 1300 1507 Z"/>
    <path fill="#000000" stroke="none" transform="matrix(1 0 0 -1 14472 2022)" d="M 205 664 L 350 810 C 599.33333333333 1057.33333333333 829.33333333333 1294.66666666667 1040 1522 L 1083 1491 C 893 1189 731.33333333333 913.33333333333 598 664 L 679 507 C 825.66666666667 220.33333333333 960.33333333333 -20.33333333333 1083 -215 L 1040 -246 C 944.66666666667 -143.33333333333 777.33333333333 42.66666666667 538 312 C 388 480 277 597.33333333333 205 664 Z M 1573 1507 C 1522.33333333333 1327.66666666667 1484.66666666667 1108.33333333333 1460 849 C 1434.66666666667 589.66666666667 1415.66666666667 230.33333333333 1403 -229 L 1350 -229 C 1322 180.33333333333 1299.66666666667 471.66666666667 1283 645 C 1266.33333333333 817.66666666667 1247 967.66666666667 1225 1095 C 1203 1221.66666666667 1171.33333333333 1359 1130 1507 C 1198 1490.33333333333 1268.66666666667 1481.66666666667 1342 1481 C 1418 1481 1495 1489.66666666667 1573 1507 Z M 1671 1389 C 1751 1342.33333333333 1822.33333333333 1310.66666666667 1885 1294 C 1947 1276.66666666667 2016.33333333333 1267.33333333333 2093 1266 C 1931 1042 1757 714.33333333333 1571 283 L 1526 297 C 1624 733.66666666667 1673 1075.66666666667 1673 1323 L 1671 1389 Z"/>
    <path fill="#000000" stroke="none" transform="matrix(1 0 0 -1 16770 2022)" d="M 205 952 C 223 1032 232 1106.66666666667 232 1176 C 232 1249.33333333333 223 1322.33333333333 205 1395 C 369 1349.66666666667 515.33333333333 1316.66666666667 644 1296 C 772.66666666667 1274.66666666667 932.66666666667 1255.33333333333 1124 1238 C 1314.66666666667 1220 1587.33333333333 1199.33333333333 1942 1176 L 1942 1122 C 1463.33333333333 1108.66666666667 1099.66666666667 1089.66666666667 851 1065 C 601.66666666667 1040.33333333333 386.33333333333 1002.66666666667 205 952 Z M 205 418 C 223 498 232 572.66666666667 232 642 C 232 715.33333333333 223 788 205 860 C 371.66666666667 814 527.66666666667 779.66666666667 673 757 C 817.66666666667 734.33333333333 990.33333333333 714.33333333333 1191 697 C 1391 679 1641.33333333333 660.33333333333 1942 641 L 1942 588 C 1646 580 1392 569.33333333333 1180 556 C 967.33333333333 542.66666666667 786.66666666667 526 638 506 C 489.33333333333 485.33333333333 345 456 205 418 Z M 205 -117 C 223 -37 232 37.66666666667 232 107 C 232 180.33333333333 223 253.33333333333 205 326 C 373 279.33333333333 524 245.33333333333 658 224 C 791.33333333333 202.66666666667 950 183.66666666667 1134 167 C 1317.33333333333 149.66666666667 1586.66666666667 129.33333333333 1942 106 L 1942 53 C 1646 45 1392 34.33333333333 1180 21 C 967.33333333333 7.66666666667 786.66666666667 -9 638 -29 C 489.33333333333 -49.66666666667 345 -79 205 -117 Z"/>
    <path fill="#000000" stroke="none" transform="matrix(1 0 0 -1 18916 2022)" d="M 205 952 C 223 1032 232 1106.66666666667 232 1176 C 232 1249.33333333333 223 1322.33333333333 205 1395 C 369 1349.66666666667 515.33333333333 1316.66666666667 644 1296 C 772.66666666667 1274.66666666667 932.66666666667 1255.33333333333 1124 1238 C 1314.66666666667 1220 1587.33333333333 1199.33333333333 1942 1176 L 1942 1122 C 1463.33333333333 1108.66666666667 1099.66666666667 1089.66666666667 851 1065 C 601.66666666667 1040.33333333333 386.33333333333 1002.66666666667 205 952 Z M 205 418 C 223 498 232 572.66666666667 232 642 C 232 715.33333333333 223 788 205 860 C 371.66666666667 814 527.66666666667 779.66666666667 673 757 C 817.66666666667 734.33333333333 990.33333333333 714.33333333333 1191 697 C 1391 679 1641.33333333333 660.33333333333 1942 641 L 1942 588 C 1646 580 1392 569.33333333333 1180 556 C 967.33333333333 542.66666666667 786.66666666667 526 638 506 C 489.33333333333 485.33333333333 345 456 205 418 Z M 205 -117 C 223 -37 232 37.66666666667 232 107 C 232 180.33333333333 223 253.33333333333 205 326 C 373 279.33333333333 524 245.33333333333 658 224 C 791.33333333333 202.66666666667 950 183.66666666667 1134 167 C 1317.33333333333 149.66666666667 1586.66666666667 129.33333333333 1942 106 L 1942 53 C 1646 45 1392 34.33333333333 1180 21 C 967.33333333333 7.66666666667 786.66666666667 -9 638 -29 C 489.33333333333 -49.66666666667 345 -79 205 -117 Z M 791 -150 L 742 -267 C 676.66666666667 -421.66666666667 628 -592.66666666667 596 -780 L 543 -780 C 523.66666666667 -668.66666666667 500 -564.66666666667 472 -468 C 444 -371.33333333333 402.66666666667 -265.33333333333 348 -150 C 440 -163.33333333333 523 -170 597 -170 C 660.33333333333 -170 725 -163.33333333333 791 -150 Z"/>
    <path fill="#000000" stroke="none" transform="matrix(1 0 0 -1 21062 2022)" d="M 1645 1075 C 1730.33333333333 1040.33333333333 1856 1003.66666666667 2022 965 C 2187.33333333333 925.66666666667 2340 896.33333333333 2480 877 L 2482 829 C 2306.66666666667 804.33333333333 2140.33333333333 773.66666666667 1983 737 C 1825 700.33333333333 1712.33333333333 666.33333333333 1645 635 C 1653 688.33333333333 1659 741.66666666667 1663 795 C 1529 771.66666666667 1404.33333333333 745.33333333333 1289 716 C 1173.66666666667 686.66666666667 1089.33333333333 659.66666666667 1036 635 C 1050.66666666667 724.33333333333 1058 806.33333333333 1058 881 C 1058 944.33333333333 1050.66666666667 1009 1036 1075 C 1096 1051 1183 1024 1297 994 C 1411 963.33333333333 1533.66666666667 935.66666666667 1665 911 C 1662.33333333333 963.66666666667 1655.66666666667 1018.33333333333 1645 1075 Z M 205 817 C 297 781 428 743.33333333333 598 704 C 767.33333333333 664 915.33333333333 635.33333333333 1042 618 L 1042 571 C 866.66666666667 546.33333333333 700.33333333333 515.66666666667 543 479 C 385 442.33333333333 272.33333333333 408.33333333333 205 377 C 219.66666666667 466.33333333333 227 548.33333333333 227 623 C 227 686.33333333333 219.66666666667 751 205 817 Z M 205 1337 C 290.33333333333 1302.33333333333 416 1265.66666666667 582 1227 C 747.33333333333 1187.66666666667 900 1158.33333333333 1040 1139 L 1040 1092 C 885.33333333333 1070 726 1040.66666666667 562 1004 C 398 967.33333333333 279 931.66666666667 205 897 C 219.66666666667 986.33333333333 227 1068.33333333333 227 1143 C 227 1206.33333333333 219.66666666667 1271 205 1337 Z"/>
    <path fill="#000000" stroke="none" transform="matrix(1 0 0 -1 23749 2022)" d="M 1741 664 L 1886 810 C 2135.33333333333 1057.33333333333 2365.33333333333 1294.66666666667 2576 1522 L 2619 1491 C 2429 1189 2267.33333333333 913.33333333333 2134 664 L 2215 507 C 2361.66666666667 220.33333333333 2496.33333333333 -20.33333333333 2619 -215 L 2576 -246 C 2480.66666666667 -143.33333333333 2313.33333333333 42.66666666667 2074 312 C 1924 480 1813 597.33333333333 1741 664 Z M 205 727 C 223 807 232 881.66666666667 232 951 C 232 1024.33333333333 223 1097 205 1169 C 371.66666666667 1123 527.66666666667 1088.66666666667 673 1066 C 817.66666666667 1043.33333333333 990.33333333333 1023.33333333333 1191 1006 C 1391 988 1641.33333333333 969.33333333333 1942 950 L 1942 897 C 1646 889 1392 878.33333333333 1180 865 C 967.33333333333 851.66666666667 786.66666666667 835 638 815 C 489.33333333333 794.33333333333 345 765 205 727 Z M 205 207 C 223 287 232 361.66666666667 232 431 C 232 504.33333333333 223 577 205 649 C 371.66666666667 603 527.66666666667 568.66666666667 673 546 C 817.66666666667 523.33333333333 990.33333333333 503.33333333333 1191 486 C 1391 468 1641.33333333333 449.33333333333 1942 430 L 1942 377 C 1646 369 1392 358.33333333333 1180 345 C 967.33333333333 331.66666666667 786.66666666667 315 638 295 C 489.33333333333 274.33333333333 345 245 205 207 Z"/>
    <path fill="#000000" stroke="none" transform="matrix(1 0 0 -1 27105 2022)" d="M 647 954 L 602 844 C 541.33333333333 699.33333333333 495 545.33333333333 463 382 C 527 383.33333333333 588.33333333333 389.66666666667 647 401 L 599 284 C 533 125.33333333333 484.33333333333 -45.66666666667 453 -229 L 399 -229 C 379.66666666667 -114.33333333333 355.33333333333 -7.66666666667 326 91 C 296.66666666667 189 256.33333333333 292.33333333333 205 401 C 265 391.66666666667 326 385.66666666667 388 383 C 368 486.33333333333 345.33333333333 579.66666666667 320 663 C 294.66666666667 745.66666666667 256.33333333333 842.66666666667 205 954 C 265 944.66666666667 326 938.66666666667 388 936 C 368 1039.33333333333 345.33333333333 1132.66666666667 320 1216 C 294.66666666667 1298.66666666667 256.33333333333 1395.66666666667 205 1507 C 297 1493.66666666667 380 1487 454 1487 C 517.33333333333 1487 581.66666666667 1493.66666666667 647 1507 L 602 1397 C 541.33333333333 1252.33333333333 495 1098.33333333333 463 935 C 527 936.33333333333 588.33333333333 942.66666666667 647 954 Z M 1182 954 L 1136 844 C 1075.33333333333 699.33333333333 1029 545.33333333333 997 382 C 1059 383.33333333333 1120.66666666667 389.66666666667 1182 401 L 1133 284 C 1067.66666666667 129.33333333333 1019 -41.66666666667 987 -229 L 934 -229 C 914.66666666667 -117.66666666667 891 -13.66666666667 863 83 C 835 179.66666666667 793.66666666667 285.66666666667 739 401 C 799 391.66666666667 860.33333333333 385.66666666667 923 383 C 901 497.66666666667 876 598.33333333333 848 685 C 820 771.66666666667 783.66666666667 861.33333333333 739 954 C 799 944.66666666667 860.33333333333 938.66666666667 923 936 C 901 1050.66666666667 876 1151.33333333333 848 1238 C 820 1324.66666666667 783.66666666667 1414.33333333333 739 1507 C 832.33333333333 1493.66666666667 915.66666666667 1487 989 1487 C 1051.66666666667 1487 1116 1493.66666666667 1182 1507 L 1136 1397 C 1075.33333333333 1252.33333333333 1029 1098.33333333333 997 935 C 1059 936.33333333333 1120.66666666667 942.66666666667 1182 954 Z"/>
    <path fill="#000000" stroke="none" transform="matrix(1 0 0 -1 28491 2022)" d="M 758 676 L 867 630 C 1009.66666666667 570 1164 524 1330 492 C 1328.66666666667 553.33333333333 1322.33333333333 614.66666666667 1311 676 C 1499 620.66666666667 1667.66666666667 579.33333333333 1817 552 C 1966.33333333333 524 2157.33333333333 500.33333333333 2390 481 L 2390 428 L 2178 416 C 1888 401.33333333333 1599 340.33333333333 1311 233 C 1321 307.66666666667 1327 369 1329 417 C 1215 395 1113.66666666667 369.66666666667 1025 341 C 935.66666666667 312.33333333333 846.66666666667 276.33333333333 758 233 C 768 307.66666666667 774 369 776 417 C 662 395 560.66666666667 369.66666666667 472 341 C 382.66666666667 312.33333333333 293.66666666667 276.33333333333 205 233 C 218.33333333333 326.33333333333 225 409.66666666667 225 483 C 225 545.66666666667 218.33333333333 610 205 676 L 314 630 C 456.66666666667 570 611 524 777 492 C 775.66666666667 553.33333333333 769.33333333333 614.66666666667 758 676 Z"/>
    <path fill="#000000" stroke="none" transform="matrix(1 0 0 -1 31086 2022)" d="M 768 1507 C 738 1426.33333333333 709 1303.66666666667 681 1139 C 653 974.33333333333 629.66666666667 782 611 562 C 727 541.33333333333 879.66666666667 521.66666666667 1069 503 C 1007.66666666667 988.33333333333 938 1318.33333333333 860 1493 C 938 1483 1008.66666666667 1478 1072 1478 C 1146.66666666667 1478.66666666667 1222.66666666667 1488.33333333333 1300 1507 C 1267.33333333333 1419 1236.66666666667 1283.66666666667 1208 1101 C 1178.66666666667 918.33333333333 1155.33333333333 716.66666666667 1138 496 L 1607 459 C 1542.33333333333 973.66666666667 1471 1318.33333333333 1393 1493 C 1471 1483 1541.33333333333 1478 1604 1478 C 1678 1478.66666666667 1754.33333333333 1488.33333333333 1833 1507 C 1799.66666666667 1419 1767.66666666667 1277 1737 1081 C 1705.66666666667 885 1682.33333333333 676 1667 454 L 1942 436 L 1942 383 C 1646 375 1392 364.33333333333 1180 351 C 967.33333333333 337.66666666667 786.66666666667 321 638 301 C 489.33333333333 280.33333333333 345 251 205 213 C 223 293 232 367.66666666667 232 437 C 232 510.33333333333 223 583 205 655 C 321.66666666667 623 429 597 527 577 C 466.33333333333 1027 400 1332.33333333333 328 1493 C 406 1483 476.33333333333 1478 539 1478 C 613 1478.66666666667 689.33333333333 1488.33333333333 768 1507 Z"/>
    <path fill="#000000" stroke="none" transform="matrix(1 0 0 -1 33232 2022)" d="M 1092 1507 C 1041.33333333333 1327.66666666667 1003.66666666667 1114 979 866 C 954.33333333333 617.33333333333 935.33333333333 252.33333333333 922 -229 L 868 -229 C 846 117 826.33333333333 385.33333333333 809 576 C 791 766 771 928 749 1062 C 727 1196 693.66666666667 1344.33333333333 649 1507 C 721.66666666667 1489 794.66666666667 1480 868 1480 C 936.66666666667 1480 1011.33333333333 1489 1092 1507 Z M 1126 641 L 1184 690 C 1301.33333333333 786 1393.33333333333 863.33333333333 1460 922 L 1495 899 C 1464.33333333333 851 1438.33333333333 806.33333333333 1417 765 C 1395 723.66666666667 1372.66666666667 682.33333333333 1350 641 C 1372.66666666667 601 1395 560 1417 518 C 1438.33333333333 476 1464.33333333333 431 1495 383 L 1460 354 L 1347 457 C 1253.66666666667 541.66666666667 1180 603 1126 641 Z M 1126 57 L 1184 106 C 1301.33333333333 202 1393.33333333333 279.33333333333 1460 338 L 1495 315 C 1464.33333333333 267 1438.33333333333 222.33333333333 1417 181 C 1395 139.66666666667 1372.66666666667 98.33333333333 1350 57 C 1372.66666666667 17 1395 -23.66666666667 1417 -65 C 1438.33333333333 -107 1464.33333333333 -152.33333333333 1495 -201 L 1460 -229 L 1347 -127 C 1253.66666666667 -42.33333333333 1180 19 1126 57 Z M 1126 1227 L 1252 1331 C 1306.66666666667 1375 1376 1433.66666666667 1460 1507 L 1495 1485 C 1464.33333333333 1437 1438.33333333333 1392.33333333333 1417 1351 C 1395 1309.66666666667 1372.66666666667 1268.33333333333 1350 1227 C 1372.66666666667 1187 1395 1146 1417 1104 C 1438.33333333333 1062 1464.33333333333 1017 1495 969 L 1460 940 L 1347 1043 C 1253.66666666667 1127.66666666667 1180 1189 1126 1227 Z M 205 641 L 263 690 C 380.33333333333 786 472.33333333333 863.33333333333 539 922 L 573 899 C 542.33333333333 851 516.33333333333 806.33333333333 495 765 C 473 723.66666666667 450.66666666667 682.33333333333 428 641 C 450.66666666667 601 473 560 495 518 C 516.33333333333 476 542.33333333333 431 573 383 L 539 354 L 425 457 C 334.33333333333 539 261 600.33333333333 205 641 Z M 205 57 L 263 106 C 380.33333333333 202 472.33333333333 279.33333333333 539 338 L 573 315 C 542.33333333333 267 516.33333333333 222.33333333333 495 181 C 473 139.66666666667 450.66666666667 98.33333333333 428 57 C 450.66666666667 17 473 -23.66666666667 495 -65 C 516.33333333333 -107 542.33333333333 -152.33333333333 573 -201 L 539 -229 L 425 -127 C 357 -65.66666666667 311.33333333333 -25.33333333333 288 -6 C 264.66666666667 13.33333333333 237 34.33333333333 205 57 Z M 205 1227 L 331 1331 C 385.66666666667 1375 455 1433.66666666667 539 1507 L 573 1485 C 542.33333333333 1437 516.33333333333 1392.33333333333 495 1351 C 473 1309.66666666667 450.66666666667 1268.33333333333 428 1227 C 450.66666666667 1187 473 1146 495 1104 C 516.33333333333 1062 542.33333333333 1017 573 969 L 539 940 L 425 1043 C 334.33333333333 1125 261 1186.33333333333 205 1227 Z"/>
    <path fill="#000000" stroke="none" transform="matrix(1 0 0 -1 34932 2022)" d="M 1241 1389 C 1316.33333333333 1344.33333333333 1385.66666666667 1313 1449 1295 C 1511.66666666667 1277 1583 1267.33333333333 1663 1266 C 1623 1211.33333333333 1555.33333333333 1084 1460 884 C 1364.66666666667 683.33333333333 1217 352.66666666667 1017 -108 L 1083 -215 L 1040 -246 C 944.66666666667 -143.33333333333 777.33333333333 42.66666666667 538 312 C 388 480 277 597.33333333333 205 664 L 350 810 C 599.33333333333 1057.33333333333 829.33333333333 1294.66666666667 1040 1522 L 1083 1491 C 893 1189 731.33333333333 913.33333333333 598 664 L 665 536 C 773.66666666667 318.66666666667 877.33333333333 127 976 -39 C 1153.33333333333 743 1242 1211.66666666667 1242 1367 L 1241 1389 Z"/>
    <path fill="#000000" stroke="none" transform="matrix(1 0 0 -1 36800 2022)" d="M 205 657 L 645 984 C 632.33333333333 1072 618 1154 602 1230 C 585.33333333333 1305.33333333333 562 1397.66666666667 532 1507 C 600 1490.33333333333 670.66666666667 1481.66666666667 744 1481 C 820 1481 897 1489.66666666667 975 1507 C 946.33333333333 1405 922.66666666667 1297 904 1183 L 1081 1321 L 1110 1280 L 879 1010 C 855.66666666667 820.66666666667 838 599 826 345 C 919.33333333333 222.33333333333 1014 106 1110 -4 L 1081 -45 C 993 23 905.33333333333 93 818 165 L 805 -229 L 752 -229 L 718 247 C 606 339 507.66666666667 420.33333333333 423 491 C 338.33333333333 561 265.66666666667 616.33333333333 205 657 Z M 696 520 C 691.33333333333 580.66666666667 683.66666666667 659.33333333333 673 756 L 598 657 L 696 520 Z"/>
    <path fill="#000000" stroke="none" transform="matrix(1 0 0 -1 38647 2022)" d="M 205 864 C 271 843.33333333333 528.33333333333 804.33333333333 977 747 C 959.66666666667 899 941.33333333333 1028.33333333333 922 1135 C 902 1241.66666666667 873.33333333333 1365 836 1505 C 906.66666666667 1490.33333333333 978.66666666667 1483 1052 1483 C 1125.33333333333 1483 1200.66666666667 1490.33333333333 1278 1505 C 1246.66666666667 1392.33333333333 1221.66666666667 1274.66666666667 1203 1152 C 1183.66666666667 1029.33333333333 1167.33333333333 887 1154 725 L 1271 711 C 1313.66666666667 753.66666666667 1361.33333333333 801.33333333333 1414 854 C 1466.66666666667 906 1525.33333333333 965 1590 1031 C 1654.66666666667 1096.33333333333 1726 1169.66666666667 1804 1251 C 1881.33333333333 1331.66666666667 1966.66666666667 1422 2060 1522 L 2103 1491 C 1913 1189 1751.33333333333 913.33333333333 1618 664 L 1699 507 C 1845.66666666667 220.33333333333 1980.33333333333 -20.33333333333 2103 -215 L 2060 -246 C 1952 -130 1794.66666666667 44.33333333333 1588 277 C 1440 443.66666666667 1332.66666666667 559.66666666667 1266 625 L 1145 606 C 1129 360 1116.66666666667 81.66666666667 1108 -229 L 1055 -229 C 1033 105 1012.66666666667 375 994 581 C 898.66666666667 565 765.33333333333 540 594 506 C 422 472 295 444 213 422 C 219 500 222 570.33333333333 222 633 C 222 709 216.33333333333 786 205 864 Z"/>
    <path fill="#000000" stroke="none" transform="matrix(1 0 0 -1 40955 2022)" d="M 205 864 C 244.33333333333 851.33333333333 348.66666666667 832.66666666667 518 808 C 686.66666666667 783.33333333333 842 762.66666666667 984 746 C 969.33333333333 881.33333333333 953 998 935 1096 C 916.33333333333 1194 883.33333333333 1330.33333333333 836 1505 C 906.66666666667 1490.33333333333 978.66666666667 1483 1052 1483 C 1125.33333333333 1483 1200.66666666667 1490.33333333333 1278 1505 C 1242.66666666667 1379.66666666667 1215.33333333333 1259 1196 1143 C 1176.66666666667 1027 1160.66666666667 887.66666666667 1148 725 L 1271 711 C 1313.66666666667 753.66666666667 1361.33333333333 801.33333333333 1414 854 C 1466.66666666667 906 1525.33333333333 965 1590 1031 C 1654.66666666667 1096.33333333333 1726 1169.66666666667 1804 1251 C 1881.33333333333 1331.66666666667 1966.66666666667 1422 2060 1522 L 2103 1491 C 1913 1189 1751.33333333333 913.33333333333 1618 664 L 1699 507 C 1845.66666666667 220.33333333333 1980.33333333333 -20.33333333333 2103 -215 L 2060 -246 C 1952 -130 1794.66666666667 44.33333333333 1588 277 C 1440 443.66666666667 1332.66666666667 559.66666666667 1266 625 L 1139 605 L 1121 254 C 1181.66666666667 312 1239.33333333333 370.66666666667 1294 430 L 1335 406 C 1261.66666666667 241.33333333333 1188.66666666667 100 1116 -18 C 1190 -116.66666666667 1272 -246.66666666667 1362 -408 L 1323 -438 C 1246.33333333333 -365.33333333333 1159.66666666667 -290.66666666667 1063 -214 C 965.66666666667 -138 877.66666666667 -75 799 -25 C 865 24.33333333333 943.33333333333 90 1034 172 C 1026.66666666667 286.66666666667 1015.66666666667 423.33333333333 1001 582 C 843 554.66666666667 683.66666666667 524.66666666667 523 492 C 362.33333333333 459.33333333333 259 436 213 422 C 219 500 222 570.33333333333 222 633 C 222 709 216.33333333333 786 205 864 Z"/>
    <path fill="#000000" stroke="none" transform="matrix(1 0 0 -1 43263 2022)" d="M 205 418 C 223 498 232 572.66666666667 232 642 C 232 715.33333333333 223 788 205 860 C 371.66666666667 814 527.66666666667 779.66666666667 673 757 C 817.66666666667 734.33333333333 990.33333333333 714.33333333333 1191 697 C 1391 679 1641.33333333333 660.33333333333 1942 641 L 1942 588 C 1646 580 1392 569.33333333333 1180 556 C 967.33333333333 542.66666666667 786.66666666667 526 638 506 C 489.33333333333 485.33333333333 345 456 205 418 Z"/>
    <path fill="#000000" stroke="none" transform="matrix(1 0 0 -1 45409 2022)" d="M 647 954 L 602 844 C 541.33333333333 699.33333333333 495 545.33333333333 463 382 C 527 383.33333333333 588.33333333333 389.66666666667 647 401 L 599 284 C 533 125.33333333333 484.33333333333 -45.66666666667 453 -229 L 399 -229 C 379.66666666667 -114.33333333333 355.33333333333 -7.66666666667 326 91 C 296.66666666667 189 256.33333333333 292.33333333333 205 401 C 265 391.66666666667 326 385.66666666667 388 383 C 368 486.33333333333 345.33333333333 579.66666666667 320 663 C 294.66666666667 745.66666666667 256.33333333333 842.66666666667 205 954 C 265 944.66666666667 326 938.66666666667 388 936 C 368 1039.33333333333 345.33333333333 1132.66666666667 320 1216 C 294.66666666667 1298.66666666667 256.33333333333 1395.66666666667 205 1507 C 297 1493.66666666667 380 1487 454 1487 C 517.33333333333 1487 581.66666666667 1493.66666666667 647 1507 L 602 1397 C 541.33333333333 1252.33333333333 495 1098.33333333333 463 935 C 527 936.33333333333 588.33333333333 942.66666666667 647 954 Z"/>
    <path fill="#000000" stroke="none" transform="matrix(1 0 0 -1 46261 2022)" d="M 205 864 C 248.33333333333 850 383.33333333333 827 610 795 C 836.66666666667 763 1057 735 1271 711 C 1313.66666666667 753.66666666667 1361.33333333333 801.33333333333 1414 854 C 1466.66666666667 906 1525.33333333333 965 1590 1031 C 1654.66666666667 1096.33333333333 1726 1169.66666666667 1804 1251 C 1881.33333333333 1331.66666666667 1966.66666666667 1422 2060 1522 L 2103 1491 C 1913 1189 1751.33333333333 913.33333333333 1618 664 L 1699 507 C 1845.66666666667 220.33333333333 1980.33333333333 -20.33333333333 2103 -215 L 2060 -246 C 1952 -130 1794.66666666667 44.33333333333 1588 277 C 1440 443.66666666667 1332.66666666667 559.66666666667 1266 625 C 1096.66666666667 600.33333333333 897.33333333333 565.66666666667 668 521 C 438 476.33333333333 286.33333333333 443.33333333333 213 422 C 219 500 222 570.33333333333 222 633 C 222 709 216.33333333333 786 205 864 Z"/>
    <path fill="#000000" stroke="none" transform="matrix(1 0 0 -1 48569 2022)" d="M 942 1337 C 1036 1299.66666666667 1166.33333333333 1262 1333 1224 C 1499.66666666667 1185.33333333333 1648 1157 1778 1139 L 1778 1092 C 1622 1070 1462 1040.66666666667 1298 1004 C 1133.33333333333 966.66666666667 1014.66666666667 931 942 897 C 952.66666666667 957 959.33333333333 1018 962 1080 C 793.33333333333 1052.66666666667 640.66666666667 1022.66666666667 504 990 C 366.66666666667 957.33333333333 267 926.33333333333 205 897 C 219.66666666667 986.33333333333 227 1068.33333333333 227 1143 C 227 1206.33333333333 219.66666666667 1271 205 1337 C 276.33333333333 1308.33333333333 384 1276 528 1240 C 672 1203.33333333333 817 1173.33333333333 963 1150 C 962.33333333333 1210.66666666667 955.33333333333 1273 942 1337 Z M 942 817 C 1034.66666666667 780.33333333333 1165.33333333333 742.66666666667 1334 704 C 1502 664.66666666667 1650 636 1778 618 L 1778 571 C 1607.33333333333 547 1442.66666666667 516.66666666667 1284 480 C 1125.33333333333 443.33333333333 1011.33333333333 409 942 377 C 952.66666666667 437 959.33333333333 498 962 560 C 794.66666666667 533.33333333333 642.66666666667 503.66666666667 506 471 C 368.66666666667 437.66666666667 268.33333333333 406.33333333333 205 377 C 219.66666666667 466.33333333333 227 548.33333333333 227 623 C 227 686.33333333333 219.66666666667 751 205 817 C 279 787 391 753.33333333333 541 716 C 690.33333333333 678.66666666667 831 649.66666666667 963 629 C 962.33333333333 690.33333333333 955.33333333333 753 942 817 Z M 1774 1075 C 1859.33333333333 1040.33333333333 1985 1003.66666666667 2151 965 C 2316.33333333333 925.66666666667 2469 896.33333333333 2609 877 L 2611 829 C 2435.66666666667 804.33333333333 2269.33333333333 773.66666666667 2112 737 C 1954 700.33333333333 1841.33333333333 666.33333333333 1774 635 C 1788 722.33333333333 1795 803.33333333333 1795 878 C 1795 942.66666666667 1788 1008.33333333333 1774 1075 Z"/>
    <path fill="#000000" stroke="none" transform="matrix(1 0 0 -1 51917 2022)" d="M 666 1507 C 638.66666666667 1441 610.33333333333 1351.66666666667 581 1239 C 551.66666666667 1126.33333333333 525.33333333333 1007.66666666667 502 883 C 553.33333333333 887 608 893.66666666667 666 903 C 590 723 525 345.66666666667 471 -229 L 424 -229 C 400.66666666667 26.33333333333 370.66666666667 256.66666666667 334 462 C 296.66666666667 666.66666666667 260.33333333333 813.66666666667 225 903 C 280.33333333333 890.33333333333 334 883 386 881 C 362 1017.66666666667 335.33333333333 1143.33333333333 306 1258 C 276.66666666667 1372.66666666667 249.66666666667 1455.66666666667 225 1507 C 318.33333333333 1493.66666666667 401 1487 473 1487 C 535.66666666667 1487 600 1493.66666666667 666 1507 Z"/>
    <path fill="#000000" stroke="none" transform="matrix(1 0 0 -1 52808 2022)" d="M 1116 1516 C 1196 1498 1270.66666666667 1489 1340 1489 C 1413.33333333333 1489 1486.33333333333 1498 1559 1516 C 1517 1365.33333333333 1485.33333333333 1227 1464 1101 C 1442 974.33333333333 1422.33333333333 821.33333333333 1405 642 C 1387 462 1364.33333333333 174.33333333333 1337 -221 L 1284 -221 C 1274.66666666667 120.33333333333 1263 395 1249 603 C 1235 810.33333333333 1218.33333333333 981.33333333333 1199 1116 C 1179.66666666667 1250.66666666667 1152 1384 1116 1516 Z M 582 1516 C 662 1498 736.66666666667 1489 806 1489 C 879.33333333333 1489 952 1498 1024 1516 C 980 1358 947 1211 925 1075 C 902.33333333333 938.33333333333 882.33333333333 774 865 582 C 847 389.33333333333 827 121.66666666667 805 -221 L 752 -221 C 744 73.66666666667 733.33333333333 327 720 539 C 706.66666666667 751 690 931.33333333333 670 1080 C 650 1228 620.66666666667 1373.33333333333 582 1516 Z"/>
    <path fill="#000000" stroke="none" transform="matrix(1 0 0 -1 54954 2022)" d="M 838 -139 C 801.33333333333 -63.66666666667 762.66666666667 -1 722 49 C 680.66666666667 99 625 149 555 199 C 655 235 873 354.66666666667 1209 558 C 992.33333333333 545.33333333333 805.33333333333 528.33333333333 648 507 C 490 485.66666666667 342.33333333333 456 205 418 C 223 498 232 572.66666666667 232 642 C 232 715.33333333333 223 788 205 860 C 381 810 554 773 724 749 C 894 724.33333333333 1121.66666666667 701 1407 679 L 1839 952 L 1868 913 L 1604 664 L 1942 641 L 1942 588 L 1508 572 C 1121.33333333333 200.66666666667 898 -36.33333333333 838 -139 Z"/>
    <path fill="#000000" stroke="none" transform="matrix(1 0 0 -1 57100 2022)" d="M 725 676 C 822.33333333333 640 966.33333333333 606.66666666667 1157 576 C 1347 545.33333333333 1562.66666666667 522 1804 506 L 1804 459 C 1520.66666666667 424.33333333333 1296.66666666667 389.33333333333 1132 354 C 966.66666666667 318 835.66666666667 278.66666666667 739 236 C 749 307.33333333333 754 373 754 433 C 627.33333333333 402.33333333333 521 368.33333333333 435 331 C 348.33333333333 293.66666666667 273.66666666667 249.66666666667 211 199 C 221 292.33333333333 226.33333333333 368.66666666667 227 428 C 227 514.66666666667 219.66666666667 597.33333333333 205 676 C 262.33333333333 632 340.33333333333 593 439 559 C 537 524.33333333333 641.66666666667 499 753 483 C 750.33333333333 548.33333333333 741 612.66666666667 725 676 Z"/>
    <path fill="#000000" stroke="none" transform="matrix(1 0 0 -1 59109 2022)" d="M 647 1507 C 609.66666666667 1368.33333333333 580.66666666667 1225.33333333333 560 1078 C 539.33333333333 930.66666666667 522.66666666667 752.33333333333 510 543 C 496.66666666667 333 485.66666666667 75.66666666667 477 -229 L 424 -229 C 396 188.33333333333 373.33333333333 484.66666666667 356 660 C 338.66666666667 834.66666666667 318.66666666667 986 296 1114 C 272.66666666667 1242 242.33333333333 1373 205 1507 C 273 1490.33333333333 343.33333333333 1481.66666666667 416 1481 C 492 1481 569 1489.66666666667 647 1507 Z"/>
    <path fill="#000000" stroke="none" transform="matrix(1 0 0 -1 59961 2022)" d="M 205 1397 C 450.33333333333 1350.33333333333 775 1296.66666666667 1179 1236 C 1161.66666666667 1331.33333333333 1140.66666666667 1424.66666666667 1116 1516 C 1196 1498 1270.66666666667 1489 1340 1489 C 1413.33333333333 1489 1486.33333333333 1498 1559 1516 C 1517 1365.33333333333 1485.33333333333 1227 1464 1101 C 1442 974.33333333333 1422.33333333333 821.33333333333 1405 642 C 1387 462 1364.33333333333 174.33333333333 1337 -221 L 1284 -221 C 1266 404.33333333333 1237.33333333333 850.33333333333 1198 1117 C 1052.66666666667 1098.33333333333 878.33333333333 1073.33333333333 675 1042 C 471.66666666667 1010 315 981.33333333333 205 956 C 219.66666666667 1046.66666666667 227 1128.66666666667 227 1202 C 227 1265.33333333333 219.66666666667 1330.33333333333 205 1397 Z"/>
</svg>
