<svg width="46164" height="3789" viewBox="0 0 46164 3789" xmlns="http://www.w3.org/2000/svg">
    <defs/>
    <path fill="#000000" stroke="none" transform="matrix(1 0 0 -1 0 2689)" d="M 813 41 C 742.33333333333 0.33333333333 662.66666666667 -20 574 -20 C 484 -20 403 3.66666666667 331 51 C 258.33333333333 98.33333333333 201.66666666667 166.33333333333 161 255 C 120.33333333333 343 100 446.33333333333 100 565 L 100 848 C 100 1027.33333333333 123.33333333333 1184.66666666667 170 1320 C 216.66666666667 1454.66666666667 283.66666666667 1558.33333333333 371 1631 C 457.66666666667 1703.66666666667 559 1740 675 1740 C 827 1740 949.33333333333 1681.33333333333 1042 1564 L 909 1461 C 885.66666666667 1503.66666666667 849.66666666667 1538 801 1564 C 751.66666666667 1589.33333333333 701 1602 649 1602 C 537.66666666667 1602 454 1558.66666666667 398 1472 C 341.33333333333 1384.66666666667 306 1235.33333333333 292 1024 C 372 1086.66666666667 466 1118 574 1118 C 649.33333333333 1118 719.33333333333 1097.66666666667 784 1057 C 848.66666666667 1015.66666666667 897 961 929 893 C 963.66666666667 963 1013.33333333333 1018 1078 1058 C 1142.66666666667 1098 1212 1118 1286 1118 C 1376.66666666667 1118 1458.33333333333 1095.66666666667 1531 1051 C 1603 1005.66666666667 1659.33333333333 941.33333333333 1700 858 C 1740 774.66666666667 1760 677 1760 565 C 1760 445.66666666667 1739.66666666667 342 1699 254 C 1657.66666666667 165.33333333333 1600.66666666667 97.66666666667 1528 51 C 1455.33333333333 3.66666666667 1374.66666666667 -20 1286 -20 C 1197.33333333333 -20 1117.66666666667 0.33333333333 1047 41 L 1128 158 C 1176 131.33333333333 1226 118 1278 118 C 1373.33333333333 118 1447 156 1499 232 C 1550.33333333333 308 1576 418.33333333333 1576 563 C 1576 694.33333333333 1550.33333333333 796.66666666667 1499 870 C 1447 943.33333333333 1374.33333333333 980 1281 980 C 1204.33333333333 980 1142.66666666667 952 1096 896 C 1048.66666666667 840 1021.66666666667 762.33333333333 1015 663 L 845 663 C 837.66666666667 763 810.66666666667 841 764 897 C 717.33333333333 952.33333333333 655.66666666667 980 579 980 C 486.33333333333 980 414 943.33333333333 362 870 C 310 796.66666666667 284 694.33333333333 284 563 C 284 417.66666666667 310 307.33333333333 362 232 C 413.33333333333 156 486.66666666667 118 582 118 C 634 118 684 131.33333333333 732 158 L 813 41 Z"/>
    <path fill="#000000" stroke="none" transform="matrix(1 0 0 -1 1860 2689)" d="M 1637 -83 C 1637 -169.66666666667 1622.66666666667 -251.33333333333 1594 -328 C 1564.66666666667 -405.33333333333 1524.33333333333 -465 1473 -507 C 1421.66666666667 -549 1363 -570 1297 -570 C 1195 -570 1113 -524.33333333333 1051 -433 C 989 -341.66666666667 958 -221 958 -71 L 958 187 C 864.66666666667 49 750.66666666667 -20 616 -20 C 452 -20 325 56.33333333333 235 209 C 145 361.66666666667 100 572 100 840 C 100 1134 144 1357.66666666667 232 1511 C 319.33333333333 1663.66666666667 447.33333333333 1740 616 1740 C 786.66666666667 1740 916 1663.66666666667 1004 1511 C 1092 1358.33333333333 1136 1134.66666666667 1136 840 L 1136 -74 C 1136 -172.66666666667 1141.33333333333 -245 1152 -291 C 1162.66666666667 -337.66666666667 1179.66666666667 -372.66666666667 1203 -396 C 1226.33333333333 -420 1257.66666666667 -432 1297 -432 C 1337 -432 1368.66666666667 -420 1392 -396 C 1415.33333333333 -372.66666666667 1432.33333333333 -337.66666666667 1443 -291 C 1453.66666666667 -244.33333333333 1459 -172 1459 -74 L 1459 1098 L 1637 1098 L 1637 -83 Z M 948 696 C 914.66666666667 750.66666666667 868 793.33333333333 808 824 C 748 854.66666666667 680.33333333333 870 605 870 C 542.33333333333 870 482.33333333333 855.66666666667 425 827 C 367 797.66666666667 320.66666666667 757.66666666667 286 707 C 294.66666666667 507.66666666667 326.33333333333 359.66666666667 381 263 C 435 166.33333333333 513.33333333333 118 616 118 C 719.33333333333 118 798.33333333333 164.33333333333 853 257 C 907.66666666667 349.66666666667 939.33333333333 496 948 696 Z M 952 890 C 949.33333333333 1139.33333333333 921 1320.33333333333 867 1433 C 813 1545.66666666667 729.33333333333 1602 616 1602 C 501.33333333333 1602 418 1547.66666666667 366 1439 C 314 1329.66666666667 286.66666666667 1149.33333333333 284 898 C 330 932.66666666667 381.33333333333 959.66666666667 438 979 C 494 998.33333333333 551.33333333333 1008 610 1008 C 736.66666666667 1008 850.66666666667 968.66666666667 952 890 Z"/>
    <path fill="#000000" stroke="none" transform="matrix(1 0 0 -1 3637 2689)" d="M 487 969 C 424.33333333333 942.33333333333 375 894 339 824 C 302.33333333333 753.33333333333 284 658 284 538 C 284 480.66666666667 289.66666666667 427.33333333333 301 378 C 350.33333333333 423.33333333333 404.33333333333 456.33333333333 463 477 C 521 497.66666666667 578.66666666667 508 636 508 C 759.33333333333 508 865 468.66666666667 953 390 C 963 434 968 483.33333333333 968 538 C 968 658 950 753.33333333333 914 824 C 877.33333333333 894 827.66666666667 942.33333333333 765 969 L 821 1108 C 925 1052.66666666667 1006.33333333333 976.33333333333 1065 879 C 1123 781 1152 671.33333333333 1152 550 C 1152 426 1126.33333333333 319 1075 229 C 1111.66666666667 151.66666666667 1130 68.66666666667 1130 -20 C 1130 -135.33333333333 1107 -236.66666666667 1061 -324 C 1014.33333333333 -412 950.66666666667 -480 870 -528 C 789.33333333333 -576 701.66666666667 -600 607 -600 C 515 -600 443.33333333333 -581 392 -543 C 340.66666666667 -505.66666666667 315 -452 315 -382 C 315 -322.66666666667 336.66666666667 -272.33333333333 380 -231 C 422.66666666667 -190.33333333333 478.66666666667 -170 548 -170 C 610.66666666667 -170 663.33333333333 -190.33333333333 706 -231 C 748.66666666667 -271.66666666667 770 -325 770 -391 C 770 -418.33333333333 768 -441.33333333333 764 -460 C 818.66666666667 -432 862.66666666667 -377.33333333333 896 -296 C 929.33333333333 -214.66666666667 946 -124.33333333333 946 -25 C 946 11 943.33333333333 44.33333333333 938 75 C 850.66666666667 11.66666666667 746.66666666667 -20 626 -20 C 524 -20 432.66666666667 3.33333333333 352 50 C 271.33333333333 96.66666666667 209.33333333333 163 166 249 C 122 334.33333333333 100 434.66666666667 100 550 C 100 671.33333333333 129.33333333333 781 188 879 C 246.66666666667 976.33333333333 327.66666666667 1052.66666666667 431 1108 L 487 969 Z M 627 370 C 576.33333333333 370 527.66666666667 357.66666666667 481 333 C 434.33333333333 307.66666666667 396.66666666667 273.66666666667 368 231 C 426.66666666667 155.66666666667 512.66666666667 118 626 118 C 738 118 823.66666666667 156.33333333333 883 233 C 826.33333333333 324.33333333333 741 370 627 370 Z M 452 -383 C 452 -411.66666666667 461.33333333333 -435 480 -453 C 498.66666666667 -471 521.66666666667 -480 549 -480 C 575.66666666667 -480 598 -470.66666666667 616 -452 C 634 -433.33333333333 643 -410.33333333333 643 -383 C 643 -354.33333333333 634 -330.33333333333 616 -311 C 597.33333333333 -291.66666666667 575 -282 549 -282 C 521.66666666667 -282 498.66666666667 -291.33333333333 480 -310 C 461.33333333333 -328.66666666667 452 -353 452 -383 Z"/>
    <path fill="#000000" stroke="none" transform="matrix(1 0 0 -1 4889 2689)" d="M 1083 551 C 1083 446.33333333333 1058.33333333333 349.33333333333 1009 260 C 959 170.66666666667 891.66666666667 101.66666666667 807 53 C 721.66666666667 4.33333333333 627.66666666667 -20 525 -20 C 447 -20 375.66666666667 -6.33333333333 311 21 C 245.66666666667 48.33333333333 194.33333333333 87.66666666667 157 139 C 119 190.33333333333 100 248.33333333333 100 313 C 100 375.66666666667 120 428.66666666667 160 472 C 199.33333333333 515.33333333333 257.33333333333 546.66666666667 334 566 L 334 571 C 272.66666666667 583.66666666667 222.66666666667 610.66666666667 184 652 C 144.66666666667 692.66666666667 125 740 125 794 C 125 852 144.66666666667 906.33333333333 184 957 C 222.66666666667 1007 274.33333333333 1046.33333333333 339 1075 C 403.66666666667 1103.66666666667 470.66666666667 1118 540 1118 C 639.33333333333 1118 731 1093.33333333333 815 1044 C 899 994 964.66666666667 925.66666666667 1012 839 C 1059.33333333333 751.66666666667 1083 655.66666666667 1083 551 Z M 565 496 L 525 496 C 449.66666666667 496 390.66666666667 481 348 451 C 305.33333333333 420.33333333333 284 377.33333333333 284 322 C 284 257.33333333333 307 207.33333333333 353 172 C 399 136 470 118 566 118 C 674.66666666667 118 757.33333333333 155 814 229 C 870.66666666667 303 899 410.33333333333 899 551 C 899 690.33333333333 870.33333333333 796.66666666667 813 870 C 755.66666666667 943.33333333333 672.33333333333 980 563 980 C 481.66666666667 980 419 963.66666666667 375 931 C 331 898.33333333333 309 852 309 792 C 309 686.66666666667 386 634 540 634 L 565 634 L 565 496 Z"/>
    <path fill="#000000" stroke="none" transform="matrix(1 0 0 -1 6072 2689)" d="M 1055 -20 C 913.66666666667 -20 817.33333333333 45.33333333333 766 176 C 714.66666666667 45.33333333333 618.66666666667 -20 478 -20 C 361.33333333333 -20 269.33333333333 24.66666666667 202 114 C 134 202.66666666667 100 322.33333333333 100 473 C 100 598.33333333333 129 710.33333333333 187 809 C 244.33333333333 907 324.66666666667 983 428 1037 C 530.66666666667 1091 644 1118 768 1118 C 889.33333333333 1118 1001 1091 1103 1037 C 1205 982.33333333333 1285.66666666667 906.33333333333 1345 809 C 1403.66666666667 711 1433 599 1433 473 C 1433 322.33333333333 1399 202.66666666667 1331 114 C 1263 24.66666666667 1171 -20 1055 -20 Z M 768 980 C 616.66666666667 980 498.33333333333 936 413 848 C 327 760 284 639 284 485 C 284 240.33333333333 343.33333333333 118 462 118 C 588 118 661 222 681 430 L 852 430 C 872 222 945 118 1071 118 C 1189.66666666667 118 1249 240.33333333333 1249 485 C 1249 637 1206 757.66666666667 1120 847 C 1033.33333333333 935.66666666667 916 980 768 980 Z"/>
    <path fill="#000000" stroke="none" transform="matrix(1 0 0 -1 7605 2689)" d="M 1747 18 C 1713.66666666667 2.66666666667 1682.66666666667 -7.33333333333 1654 -12 C 1624.66666666667 -17.33333333333 1591.66666666667 -20 1555 -20 C 1415.66666666667 -20 1283.66666666667 31 1159 133 C 990.33333333333 31 801 -20 591 -20 C 491.66666666667 -20 405.66666666667 -6.66666666667 333 20 C 259.66666666667 46.66666666667 202.66666666667 87.33333333333 162 142 C 120.66666666667 196.66666666667 100 260.33333333333 100 333 C 100 391 116 443.33333333333 148 490 C 179.33333333333 536 224.66666666667 572 284 598 C 220 624.66666666667 173.33333333333 657.66666666667 144 697 C 114.66666666667 736.33333333333 100 785 100 843 C 100 892.33333333333 116 938.33333333333 148 981 C 180 1023 225.33333333333 1056.33333333333 284 1081 C 342.66666666667 1105.66666666667 410.66666666667 1118 488 1118 C 544 1118 600 1110.33333333333 656 1095 C 712 1079 758.66666666667 1058.33333333333 796 1033 L 728 919 C 701.33333333333 938.33333333333 667 953.33333333333 625 964 C 582.33333333333 974.66666666667 543 980 507 980 C 433 980 377.33333333333 966.66666666667 340 940 C 302.66666666667 913.33333333333 284 878.33333333333 284 835 C 284 802.33333333333 290 774.66666666667 302 752 C 313.33333333333 729.33333333333 330 710.33333333333 352 695 C 373.33333333333 679.66666666667 402 667.66666666667 438 659 C 474 650.33333333333 525.66666666667 646 593 646 L 605 646 L 605 525 L 545 527 C 463 527 399 510.33333333333 353 477 C 307 443.66666666667 284 396.66666666667 284 336 C 284 266.66666666667 310 213 362 175 C 414 137 490 118 590 118 C 761.33333333333 118 915.66666666667 158.66666666667 1053 240 C 996.33333333333 308.66666666667 952 386.33333333333 920 473 C 887.33333333333 559 871 650.66666666667 871 748 C 871 816.66666666667 884.66666666667 879.33333333333 912 936 C 938.66666666667 992.66666666667 977 1037.33333333333 1027 1070 C 1077 1102 1134 1118 1198 1118 C 1261.33333333333 1118 1319.66666666667 1102.33333333333 1373 1071 C 1425.66666666667 1039 1465.33333333333 995.66666666667 1492 941 C 1518.66666666667 885.66666666667 1532 821.66666666667 1532 749 C 1532 548.33333333333 1452.33333333333 375.66666666667 1293 231 C 1378.33333333333 155.66666666667 1467.33333333333 118 1560 118 C 1608 118 1650.33333333333 125 1687 139 L 1747 18 Z M 1189 346 C 1295 454.66666666667 1348 587.66666666667 1348 745 C 1348 827 1336.66666666667 886.66666666667 1314 924 C 1290.66666666667 961.33333333333 1252 980 1198 980 C 1150 980 1114.33333333333 963 1091 929 C 1067 894.33333333333 1055 839 1055 763 C 1055 613 1099.66666666667 474 1189 346 Z"/>
    <path fill="#000000" stroke="none" transform="matrix(1 0 0 -1 9844 2689)" d="M 925 -343 C 962.33333333333 -263.66666666667 991 -169 1011 -59 C 1030.33333333333 51 1040 183.66666666667 1040 339 C 1040 766.33333333333 906.33333333333 980 639 980 C 527 980 440 938.66666666667 378 856 C 315.33333333333 773.33333333333 284 660.33333333333 284 517 C 284 375.66666666667 291 274 305 212 C 318.33333333333 149.33333333333 339.66666666667 118 369 118 C 385 118 401 127.66666666667 417 147 C 432.33333333333 166.33333333333 453.66666666667 201.33333333333 481 252 C 527.66666666667 341.33333333333 582.66666666667 386 646 386 C 706 386 752 364 784 320 C 816 275.33333333333 832 214.33333333333 832 137 L 829 68 L 679 0 L 682 85 C 682 141 676 182.33333333333 664 209 C 652 235 639 248 625 248 C 613 248 602.66666666667 241.33333333333 594 228 C 585.33333333333 214.66666666667 577 198.33333333333 569 179 C 560.33333333333 159 551 137.33333333333 541 114 C 530.33333333333 90.66666666667 517 69.33333333333 501 50 C 484.33333333333 30 464.33333333333 13.33333333333 441 0 C 417.66666666667 -13.33333333333 388.66666666667 -20 354 -20 C 270.66666666667 -20 207.66666666667 23.66666666667 165 111 C 121.66666666667 198.33333333333 100 325.66666666667 100 493 C 100 615 124 723.66666666667 172 819 C 219.33333333333 913.66666666667 285 987.33333333333 369 1040 C 453 1092 544.33333333333 1118 643 1118 C 825 1118 967.66666666667 1047.66666666667 1071 907 C 1173.66666666667 766.33333333333 1225 574.66666666667 1225 332 C 1225 184.66666666667 1199.66666666667 36.33333333333 1149 -113 C 1098.33333333333 -262.33333333333 1033.66666666667 -380.66666666667 955 -468 C 875.66666666667 -556 792.66666666667 -600 706 -600 C 638 -600 582.33333333333 -579.66666666667 539 -539 C 495.66666666667 -498.33333333333 474 -444.33333333333 474 -377 C 474 -316.33333333333 496 -266.66666666667 540 -228 C 583.33333333333 -189.33333333333 640.66666666667 -170 712 -170 C 764.66666666667 -170 811.33333333333 -186 852 -218 C 892.66666666667 -250.66666666667 917 -292.33333333333 925 -343 Z M 611 -383 C 611 -411.66666666667 620.33333333333 -435 639 -453 C 657.66666666667 -471 680.66666666667 -480 708 -480 C 734.66666666667 -480 757 -470.66666666667 775 -452 C 793 -433.33333333333 802 -410.33333333333 802 -383 C 802 -354.33333333333 793 -330.33333333333 775 -311 C 756.33333333333 -291.66666666667 734 -282 708 -282 C 680.66666666667 -282 657.66666666667 -291.33333333333 639 -310 C 620.33333333333 -328.66666666667 611 -353 611 -383 Z"/>
    <path fill="#000000" stroke="none" transform="matrix(1 0 0 -1 11169 2689)" d="M 1298 137 L 1318 138 L 1337 138 C 1423.66666666667 138 1492.33333333333 176.33333333333 1543 253 C 1593 329 1618 431 1618 559 C 1618 691.66666666667 1589.66666666667 795 1533 869 C 1475.66666666667 943 1397.66666666667 980 1299 980 C 1228.33333333333 980 1167 958.66666666667 1115 916 C 1062.33333333333 873.33333333333 1023 809 997 723 C 1007 671.66666666667 1012 615 1012 553 C 1012 434.33333333333 992 332 952 246 C 911.33333333333 159.33333333333 853.66666666667 93.33333333333 779 48 C 704.33333333333 2.66666666667 618.33333333333 -20 521 -20 C 429 -20 345 2.33333333333 269 47 C 193 91 130 154.66666666667 80 238 L 212 313 C 234.66666666667 262.33333333333 275.66666666667 217.33333333333 335 178 C 393.66666666667 138 455.33333333333 118 520 118 C 613.33333333333 118 688 158 744 238 C 800 318 828 423.66666666667 828 555 C 828 691.66666666667 800 796.66666666667 744 870 C 687.33333333333 943.33333333333 609 980 509 980 C 457 980 407.66666666667 967.33333333333 361 942 C 313.66666666667 916.66666666667 276.33333333333 882.33333333333 249 839 L 118 915 C 166 980.33333333333 225.33333333333 1030.66666666667 296 1066 C 366.66666666667 1100.66666666667 440.66666666667 1118 518 1118 C 698.66666666667 1118 832 1054 918 926 C 967.33333333333 986 1026.33333333333 1033 1095 1067 C 1163 1101 1238 1118 1320 1118 C 1415.33333333333 1118 1499.66666666667 1095.66666666667 1573 1051 C 1645.66666666667 1006.33333333333 1702 941.66666666667 1742 857 C 1782 771.66666666667 1802 670.33333333333 1802 553 C 1802 451 1784 360.66666666667 1748 282 C 1711.33333333333 203.33333333333 1661.66666666667 141 1599 95 C 1658.33333333333 66.33333333333 1704 28.66666666667 1736 -18 C 1768 -64.66666666667 1784 -116.66666666667 1784 -174 C 1784 -250 1762.33333333333 -319.33333333333 1719 -382 C 1675 -444.66666666667 1615.33333333333 -491.66666666667 1540 -523 C 1464 -554.33333333333 1376 -570 1276 -570 C 1185.33333333333 -570 1093.66666666667 -549 1001 -507 C 908.33333333333 -465.66666666667 834 -409.66666666667 778 -339 L 899 -250 C 943 -303.33333333333 999 -347 1067 -381 C 1134.33333333333 -415 1204 -432 1276 -432 C 1382 -432 1462.66666666667 -410.66666666667 1518 -368 C 1573.33333333333 -325.33333333333 1601 -261.66666666667 1601 -177 C 1601 -119.66666666667 1577.33333333333 -75.66666666667 1530 -45 C 1482 -15 1415 0 1329 0 L 1314 0 L 1298 -1 L 1298 137 Z M 1088 1240 C 1073.33333333333 1254.66666666667 1050.66666666667 1284.66666666667 1020 1330 C 988.66666666667 1374.66666666667 962 1417.33333333333 940 1458 C 889.33333333333 1365.33333333333 839.66666666667 1292.66666666667 791 1240 L 618 1240 C 724.66666666667 1326 818 1432.66666666667 898 1560 L 993 1560 C 1025 1504 1068.66666666667 1443 1124 1377 C 1179.33333333333 1311 1225.33333333333 1265.33333333333 1262 1240 L 1088 1240 Z"/>
    <path fill="#000000" stroke="none" transform="matrix(1 0 0 -1 13071 2689)" d="M 861 839 C 801.66666666667 933 717.66666666667 980 609 980 C 497 980 415 944.66666666667 363 874 C 310.33333333333 803.33333333333 284 693.66666666667 284 545 C 284 420.33333333333 297.33333333333 319.66666666667 324 243 C 350 166.33333333333 384.66666666667 128 428 128 C 458 128 497.33333333333 133 546 143 C 594.66666666667 153 641.33333333333 158 686 158 C 803.33333333333 158 901.33333333333 127.66666666667 980 67 C 1058 5.66666666667 1097 -71.66666666667 1097 -165 C 1097 -241 1073.66666666667 -312 1027 -378 C 979.66666666667 -444 913.33333333333 -497.33333333333 828 -538 C 742.66666666667 -579.33333333333 659 -600 577 -600 C 485 -600 413.33333333333 -581 362 -543 C 310.66666666667 -505.66666666667 285 -452 285 -382 C 285 -320.66666666667 306.66666666667 -270 350 -230 C 393.33333333333 -190 449 -170 517 -170 C 581.66666666667 -170 635 -190.33333333333 677 -231 C 718.33333333333 -272.33333333333 739 -326 739 -392 C 739 -418.66666666667 737 -441.33333333333 733 -460 C 787 -438 829.66666666667 -403.66666666667 861 -357 C 891.66666666667 -311 907 -254.33333333333 907 -187 C 907 -123.66666666667 886.33333333333 -73.33333333333 845 -36 C 803 1.33333333333 744.33333333333 20 669 20 C 642.33333333333 20 602.33333333333 15 549 5 C 495.66666666667 -5 446 -10 400 -10 C 346 -10 296 13.33333333333 250 60 C 203.33333333333 106 166.66666666667 170.66666666667 140 254 C 113.33333333333 336.66666666667 100 429.66666666667 100 533 C 100 637 122.33333333333 734.33333333333 167 825 C 211.66666666667 915 273.33333333333 986.33333333333 352 1039 C 430 1091.66666666667 515.66666666667 1118 609 1118 C 691 1118 763 1103.33333333333 825 1074 C 887 1044 943.33333333333 1000 994 942 L 861 839 Z M 422 -383 C 422 -411.66666666667 431.33333333333 -435 450 -453 C 468.66666666667 -471 491.66666666667 -480 519 -480 C 545.66666666667 -480 568 -470.66666666667 586 -452 C 604 -433.33333333333 613 -410.33333333333 613 -383 C 613 -354.33333333333 604 -330.33333333333 586 -311 C 567.33333333333 -291.66666666667 545 -282 519 -282 C 491.66666666667 -282 468.66666666667 -291.33333333333 450 -310 C 431.33333333333 -328.66666666667 422 -353 422 -383 Z"/>
    <path fill="#000000" stroke="none" transform="matrix(1 0 0 -1 14268 2689)" d="M 118 915 C 166 980.33333333333 225.33333333333 1030.66666666667 296 1066 C 366.66666666667 1100.66666666667 440.66666666667 1118 518 1118 C 618.66666666667 1118 706 1096.33333333333 780 1053 C 854 1009.66666666667 911.33333333333 945.66666666667 952 861 C 992 776.33333333333 1012 673.66666666667 1012 553 C 1012 437.66666666667 990.33333333333 337 947 251 C 903.66666666667 164.33333333333 843.66666666667 97.66666666667 767 51 C 689.66666666667 3.66666666667 604.33333333333 -20 511 -20 C 421 -20 339.33333333333 2 266 46 C 192.66666666667 89.33333333333 130.66666666667 153.33333333333 80 238 L 212 313 C 234.66666666667 262.33333333333 275.66666666667 217.33333333333 335 178 C 393.66666666667 138 455.33333333333 118 520 118 C 613.33333333333 118 688 158 744 238 C 800 318 828 423.66666666667 828 555 C 828 691.66666666667 800 796.66666666667 744 870 C 687.33333333333 943.33333333333 609 980 509 980 C 457 980 407.66666666667 967.33333333333 361 942 C 313.66666666667 916.66666666667 276.33333333333 882.33333333333 249 839 L 118 915 Z"/>
    <path fill="#000000" stroke="none" transform="matrix(1 0 0 -1 15380 2689)" d="M 433 -10 C 320.33333333333 44 236.66666666667 126.33333333333 182 237 C 127.33333333333 347 100 492 100 672 L 100 848 C 100 1027.33333333333 123.33333333333 1184.66666666667 170 1320 C 216.66666666667 1454.66666666667 283.66666666667 1558.33333333333 371 1631 C 457.66666666667 1703.66666666667 559 1740 675 1740 C 827 1740 949.33333333333 1681.33333333333 1042 1564 L 909 1461 C 885.66666666667 1503.66666666667 849.66666666667 1538 801 1564 C 751.66666666667 1589.33333333333 701 1602 649 1602 C 535 1602 449.33333333333 1556.66666666667 392 1466 C 334 1375.33333333333 298.66666666667 1220.66666666667 286 1002 C 377.33333333333 1079.33333333333 481.33333333333 1118 598 1118 C 699.33333333333 1118 790.33333333333 1094.66666666667 871 1048 C 951.66666666667 1001.33333333333 1014 935 1058 849 C 1102 763 1124 662.66666666667 1124 548 C 1124 426.66666666667 1095 317.33333333333 1037 220 C 979 122 897.66666666667 45.33333333333 793 -10 L 737 129 C 799.66666666667 155.66666666667 849.33333333333 204.33333333333 886 275 C 922 345 940 440 940 560 C 940 694 910.33333333333 797.66666666667 851 871 C 791.66666666667 943.66666666667 707.33333333333 980 598 980 C 539.33333333333 980 485 968.33333333333 435 945 C 385 921.66666666667 346.33333333333 890 319 850 C 291.66666666667 810 278 767 278 721 L 278 640 C 278 534.66666666667 285 452 299 392 C 313 331.33333333333 335.33333333333 279.33333333333 366 236 C 396.66666666667 192.66666666667 437.66666666667 157 489 129 L 433 -10 Z"/>
    <path fill="#000000" stroke="none" transform="matrix(1 0 0 -1 16604 2689)" d="M 969 151 C 914.33333333333 93 856.66666666667 50 796 22 C 735.33333333333 -6 668 -20 594 -20 C 501.33333333333 -20 417.33333333333 3.66666666667 342 51 C 266.66666666667 98.33333333333 207.66666666667 166 165 254 C 121.66666666667 341.33333333333 100 441 100 553 C 100 661 121.33333333333 758 164 844 C 206 930 264 997.33333333333 338 1046 C 411.33333333333 1094 489.66666666667 1118 573 1118 C 647 1118 712.66666666667 1104.33333333333 770 1077 C 827.33333333333 1049 871.33333333333 1010.66666666667 902 962 C 932.66666666667 912.66666666667 948 859 948 801 C 948 741.66666666667 930.33333333333 686 895 634 C 859 581.33333333333 811.66666666667 539.33333333333 753 508 C 694.33333333333 476 636 460 578 460 C 472 460 374 495.33333333333 284 566 L 284 546 C 284 400.66666666667 312.33333333333 293 369 223 C 425 153 503 118 603 118 C 653.66666666667 118 701.33333333333 130 746 154 C 790.66666666667 178 830 209.66666666667 864 249 L 969 151 Z M 302 715 C 336 675 375.33333333333 645.66666666667 420 627 C 464 607.66666666667 509.33333333333 598 556 598 C 616 598 665.66666666667 617 705 655 C 744.33333333333 693 764 739.66666666667 764 795 C 764 851.66666666667 746.66666666667 896.66666666667 712 930 C 677.33333333333 963.33333333333 630.66666666667 980 572 980 C 506 980 449.33333333333 957 402 911 C 354.66666666667 865 321.33333333333 799.66666666667 302 715 Z"/>
    <path fill="#000000" stroke="none" transform="matrix(1 0 0 -1 18205 2689)" d="M 487 976 C 424.33333333333 949.33333333333 375 901 339 831 C 302.33333333333 760.33333333333 284 665 284 545 C 284 483 290 427.66666666667 302 379 C 350.66666666667 423.66666666667 404.33333333333 456.33333333333 463 477 C 521 497.66666666667 578.66666666667 508 636 508 C 762.66666666667 508 869 473.66666666667 955 405 C 963.66666666667 451 968 497.66666666667 968 545 C 968 665 950 760.33333333333 914 831 C 877.33333333333 901 827.66666666667 949.33333333333 765 976 L 821 1108 C 925 1052.66666666667 1006.33333333333 976.33333333333 1065 879 C 1123 781 1152 671.33333333333 1152 550 C 1152 438 1127 336.33333333333 1077 245 C 1112.33333333333 169 1130 78.33333333333 1130 -27 C 1130 -135 1109.33333333333 -230 1068 -312 C 1026.66666666667 -394.66666666667 968.33333333333 -458.33333333333 893 -503 C 817.66666666667 -547.66666666667 733 -570 639 -570 C 547 -570 463 -547.66666666667 387 -503 C 311 -459 248 -395.33333333333 198 -312 L 330 -237 C 352.66666666667 -287.66666666667 393.66666666667 -332.66666666667 453 -372 C 511.66666666667 -412 573.33333333333 -432 638 -432 C 729.33333333333 -432 803.66666666667 -394 861 -318 C 917.66666666667 -242 946 -144.33333333333 946 -25 C 946 13.66666666667 943 49.66666666667 937 83 C 846.33333333333 14.33333333333 742.66666666667 -20 626 -20 C 528.66666666667 -20 439.33333333333 4.66666666667 358 54 C 276.66666666667 102.66666666667 213.33333333333 170.33333333333 168 257 C 122.66666666667 343.66666666667 100 441.33333333333 100 550 C 100 668.66666666667 130 778 190 878 C 250 977.33333333333 330.33333333333 1054 431 1108 L 487 976 Z M 627 370 C 576.33333333333 370 527.66666666667 357.66666666667 481 333 C 434.33333333333 307.66666666667 396.66666666667 273.66666666667 368 231 C 426.66666666667 155.66666666667 512.66666666667 118 626 118 C 738.66666666667 118 824.33333333333 156.33333333333 883 233 C 826.33333333333 324.33333333333 741 370 627 370 Z"/>
    <path fill="#000000" stroke="none" transform="matrix(1 0 0 -1 19457 2689)" d="M 854 -301 L 957 -307 C 991.66666666667 -307 1019.66666666667 -302.66666666667 1041 -294 C 1062.33333333333 -285.33333333333 1073 -272.33333333333 1073 -255 C 1073 -239.66666666667 1056.66666666667 -227.33333333333 1024 -218 C 991.33333333333 -209.33333333333 946.66666666667 -205 890 -205 C 796.66666666667 -205 726.66666666667 -216 680 -238 C 633.33333333333 -260.66666666667 610 -296.33333333333 610 -345 C 610 -389.66666666667 639.33333333333 -423.33333333333 698 -446 C 756.66666666667 -468.66666666667 840 -480 948 -480 C 1106.66666666667 -480 1233 -437.33333333333 1327 -352 C 1421 -267.33333333333 1489.33333333333 -132.33333333333 1532 53 C 1457.33333333333 4.33333333333 1375.33333333333 -20 1286 -20 C 1197.33333333333 -20 1117.66666666667 0.33333333333 1047 41 L 1128 158 C 1176 131.33333333333 1226 118 1278 118 C 1373.33333333333 118 1447 156 1499 232 C 1550.33333333333 308 1576 418.33333333333 1576 563 C 1576 694.33333333333 1550.33333333333 796.66666666667 1499 870 C 1447 943.33333333333 1374.33333333333 980 1281 980 C 1204.33333333333 980 1142.66666666667 952 1096 896 C 1048.66666666667 840 1021.66666666667 762.33333333333 1015 663 L 845 663 C 837.66666666667 763 810.66666666667 841 764 897 C 717.33333333333 952.33333333333 655.66666666667 980 579 980 C 486.33333333333 980 414 943.33333333333 362 870 C 310 796.66666666667 284 694.33333333333 284 563 C 284 417.66666666667 310 307.33333333333 362 232 C 413.33333333333 156 486.66666666667 118 582 118 C 634 118 684 131.33333333333 732 158 L 813 41 C 742.33333333333 0.33333333333 662.66666666667 -20 574 -20 C 484 -20 403 3.66666666667 331 51 C 258.33333333333 98.33333333333 201.66666666667 166.33333333333 161 255 C 120.33333333333 343 100 446.33333333333 100 565 C 100 675.66666666667 120 773 160 857 C 199.33333333333 940.33333333333 255.33333333333 1004.66666666667 328 1050 C 400 1095.33333333333 482 1118 574 1118 C 649.33333333333 1118 719.33333333333 1097.66666666667 784 1057 C 848.66666666667 1015.66666666667 897 961 929 893 C 963.66666666667 963 1013.33333333333 1018 1078 1058 C 1142.66666666667 1098 1212 1118 1286 1118 C 1376.66666666667 1118 1458.33333333333 1095.66666666667 1531 1051 C 1603 1005.66666666667 1659.33333333333 941.33333333333 1700 858 C 1740 774.66666666667 1760 677 1760 565 L 1760 556 C 1760 182.66666666667 1689.33333333333 -103.33333333333 1548 -302 C 1406 -500.66666666667 1201.66666666667 -600 935 -600 C 783 -600 666 -578 584 -534 C 501.33333333333 -490 460 -427.33333333333 460 -346 C 460 -300 478 -256.33333333333 514 -215 C 549.33333333333 -174.33333333333 598.66666666667 -142.33333333333 662 -119 C 725.33333333333 -96.33333333333 798.33333333333 -85 881 -85 C 985.66666666667 -85 1069 -100 1131 -130 C 1192.33333333333 -160 1223 -201 1223 -253 C 1223 -300.33333333333 1199 -339.33333333333 1151 -370 C 1102.33333333333 -401.33333333333 1036.33333333333 -417 953 -417 L 883 -413 L 854 -301 Z"/>
    <path fill="#000000" stroke="none" transform="matrix(1 0 0 -1 22677 2689)" d="M 118 915 C 166 980.33333333333 225.33333333333 1030.66666666667 296 1066 C 366.66666666667 1100.66666666667 440.66666666667 1118 518 1118 C 618.66666666667 1118 706 1096.33333333333 780 1053 C 854 1009.66666666667 911.33333333333 945.66666666667 952 861 C 992 776.33333333333 1012 673.66666666667 1012 553 C 1012 461.66666666667 998 378.33333333333 970 303 C 995.33333333333 253.66666666667 1040.66666666667 210.66666666667 1106 174 C 1170.66666666667 136.66666666667 1235.33333333333 118 1300 118 C 1400 118 1478 158 1534 238 C 1590 318 1618 427 1618 565 C 1618 694.33333333333 1591.33333333333 796 1538 870 C 1484.66666666667 943.33333333333 1411.66666666667 980 1319 980 C 1281 980 1246.33333333333 971 1215 953 C 1183 935 1157.33333333333 911 1138 881 L 1008 961 C 1048 1019.66666666667 1096.66666666667 1060.66666666667 1154 1084 C 1210.66666666667 1106.66666666667 1273.33333333333 1118 1342 1118 C 1426.66666666667 1118 1504.33333333333 1095.33333333333 1575 1050 C 1645.66666666667 1004.66666666667 1701.33333333333 940.66666666667 1742 858 C 1782 775.33333333333 1802 677 1802 563 C 1802 445.66666666667 1781 343 1739 255 C 1697 166.33333333333 1638 98.33333333333 1562 51 C 1485.33333333333 3.66666666667 1398.33333333333 -20 1301 -20 C 1117 -20 975.66666666667 34.66666666667 877 144 C 829 88.66666666667 773 47.66666666667 709 21 C 644.33333333333 -6.33333333333 578.33333333333 -20 511 -20 C 421 -20 339.33333333333 2 266 46 C 192.66666666667 89.33333333333 130.66666666667 153.33333333333 80 238 L 212 313 C 234.66666666667 262.33333333333 275.66666666667 217.33333333333 335 178 C 393.66666666667 138 455.33333333333 118 520 118 C 613.33333333333 118 688 158 744 238 C 800 318 828 423.66666666667 828 555 C 828 691.66666666667 800 796.66666666667 744 870 C 687.33333333333 943.33333333333 609 980 509 980 C 457 980 407.66666666667 967.33333333333 361 942 C 313.66666666667 916.66666666667 276.33333333333 882.33333333333 249 839 L 118 915 Z"/>
    <path fill="#000000" stroke="none" transform="matrix(1 0 0 -1 21339 2689)" d="M 1333 10 C 1273 -10 1222 -20 1180 -20 C 1104 -20 1044.66666666667 0.66666666667 1002 42 C 959.33333333333 83.33333333333 938 139.33333333333 938 210 C 938 234 943.66666666667 279 955 345 C 965.66666666667 411 971 486 971 570 C 971 653.33333333333 957 727.33333333333 929 792 C 901 856 861.33333333333 903.33333333333 810 934 C 758 964.66666666667 696.66666666667 980 626 980 C 515.33333333333 980 430.66666666667 944 372 872 C 313.33333333333 799.33333333333 284 695.33333333333 284 560 C 284 439.33333333333 302.33333333333 343.33333333333 339 272 C 375 200 424.33333333333 150.66666666667 487 124 L 431 -10 C 325.66666666667 46.66666666667 244.33333333333 122.33333333333 187 217 C 129 311.66666666667 100 418.66666666667 100 538 C 100 646.66666666667 123 745.33333333333 169 834 C 214.33333333333 922.66666666667 277.33333333333 992.33333333333 358 1043 C 438 1093 527.33333333333 1118 626 1118 C 724.66666666667 1118 813.33333333333 1096 892 1052 C 970.66666666667 1008 1034.33333333333 942.66666666667 1083 856 C 1131 769.33333333333 1155 678 1155 582 C 1155 528.66666666667 1147 464.66666666667 1131 390 C 1115 315.33333333333 1107 259.66666666667 1107 223 C 1107 153 1133.33333333333 118 1186 118 C 1215.33333333333 118 1244.33333333333 122.33333333333 1273 131 L 1333 10 Z"/>
    <path fill="#000000" stroke="none" transform="matrix(1 0 0 -1 24658 2689)" d="M 118 916 C 169.33333333333 982 230.33333333333 1032.33333333333 301 1067 C 371.66666666667 1101 448 1118 530 1118 C 625.33333333333 1118 709.66666666667 1095.66666666667 783 1051 C 855.66666666667 1006.33333333333 912 941.66666666667 952 857 C 992 771.66666666667 1012 670.33333333333 1012 553 C 1012 456.33333333333 994.66666666667 366.33333333333 960 283 C 924.66666666667 199.66666666667 874.33333333333 133.66666666667 809 85 C 932.33333333333 25.66666666667 994 -60.66666666667 994 -174 C 994 -250 972.33333333333 -319.33333333333 929 -382 C 885 -444.66666666667 825.33333333333 -491.66666666667 750 -523 C 674 -554.33333333333 586 -570 486 -570 C 395.33333333333 -570 303.66666666667 -549 211 -507 C 118.33333333333 -465.66666666667 44 -409.66666666667 -12 -339 L 109 -250 C 153 -303.33333333333 209 -347 277 -381 C 344.33333333333 -415 414 -432 486 -432 C 592 -432 672.66666666667 -410.66666666667 728 -368 C 783.33333333333 -325.33333333333 811 -261.66666666667 811 -177 C 811 -59 720.33333333333 0 539 0 L 524 0 L 508 -1 L 508 137 L 528 138 L 547 138 C 633.66666666667 138 702.33333333333 176.33333333333 753 253 C 803 329 828 431 828 559 C 828 691.66666666667 799.66666666667 795 743 869 C 685.66666666667 943 607.66666666667 980 509 980 C 399 980 312.33333333333 933 249 839 L 118 916 Z"/>
    <path fill="#000000" stroke="none" transform="matrix(1 0 0 -1 25770 2689)" d="M 487 -397 C 504.33333333333 -407 527.66666666667 -415.33333333333 557 -422 C 585.66666666667 -428.66666666667 609.33333333333 -432 628 -432 C 720.66666666667 -432 797.66666666667 -406 859 -354 C 919.66666666667 -302.66666666667 965 -222.66666666667 995 -114 C 1025 -6 1040 145 1040 339 C 1040 766.33333333333 906.33333333333 980 639 980 C 527 980 440 938.66666666667 378 856 C 315.33333333333 773.33333333333 284 660.33333333333 284 517 C 284 375.66666666667 291 274 305 212 C 318.33333333333 149.33333333333 339.66666666667 118 369 118 C 385 118 401 127.66666666667 417 147 C 432.33333333333 166.33333333333 453.66666666667 201.33333333333 481 252 C 527.66666666667 341.33333333333 582.66666666667 386 646 386 C 706 386 752 364 784 320 C 816 275.33333333333 832 214.33333333333 832 137 L 829 68 L 679 0 L 682 85 C 682 141 676 182.33333333333 664 209 C 652 235 639 248 625 248 C 613 248 602.66666666667 241.33333333333 594 228 C 585.33333333333 214.66666666667 577 198.33333333333 569 179 C 560.33333333333 159 551 137.33333333333 541 114 C 530.33333333333 90.66666666667 517 69.33333333333 501 50 C 484.33333333333 30 464.33333333333 13.33333333333 441 0 C 417.66666666667 -13.33333333333 388.66666666667 -20 354 -20 C 270.66666666667 -20 207.66666666667 23.66666666667 165 111 C 121.66666666667 198.33333333333 100 325.66666666667 100 493 C 100 615 124 723.66666666667 172 819 C 219.33333333333 913.66666666667 285 987.33333333333 369 1040 C 453 1092 544.33333333333 1118 643 1118 C 824.33333333333 1118 966.66666666667 1049 1070 911 C 1172.66666666667 772.33333333333 1224 581.66666666667 1224 339 C 1224 161 1199.33333333333 2 1150 -138 C 1100.66666666667 -278 1031 -385 941 -459 C 850.33333333333 -533 744.66666666667 -570 624 -570 C 548 -570 480.33333333333 -556.66666666667 421 -530 L 487 -397 Z"/>
    <path fill="#000000" stroke="none" transform="matrix(1 0 0 -1 27626 2689)" d="M 724 883 C 678.66666666667 947.66666666667 615.33333333333 980 534 980 C 456 980 395 939.66666666667 351 859 C 306.33333333333 778.33333333333 284 668.33333333333 284 529 C 284 402.33333333333 304.33333333333 302.33333333333 345 229 C 385 155 439.66666666667 118 509 118 C 545 118 579.66666666667 134 613 166 C 645.66666666667 198 688 262.33333333333 740 359 L 940 730 C 996 834 1044.33333333333 910.66666666667 1085 960 C 1125 1009.33333333333 1168 1048 1214 1076 C 1259.33333333333 1104 1309 1118 1363 1118 C 1440.33333333333 1118 1510.33333333333 1095 1573 1049 C 1635.66666666667 1003 1684.33333333333 938.66666666667 1719 856 C 1753.66666666667 773.33333333333 1771 678.33333333333 1771 571 C 1771 463.66666666667 1751.33333333333 364.33333333333 1712 273 C 1672 181 1618.66666666667 109.33333333333 1552 58 C 1485.33333333333 6 1414.66666666667 -20 1340 -20 C 1274.66666666667 -20 1217.33333333333 -6.66666666667 1168 20 C 1118 46 1077 80.66666666667 1045 124 L 1147 215 C 1192.33333333333 150.33333333333 1255.66666666667 118 1337 118 C 1415 118 1476.33333333333 158.33333333333 1521 239 C 1565 319.66666666667 1587 429.66666666667 1587 569 C 1587 655 1577.66666666667 729.33333333333 1559 792 C 1539.66666666667 854 1513.33333333333 901 1480 933 C 1446 964.33333333333 1406.66666666667 980 1362 980 C 1326 980 1291.66666666667 964.33333333333 1259 933 C 1226.33333333333 901 1183.66666666667 836.33333333333 1131 739 L 931 368 C 875 264 827 187.33333333333 787 138 C 746.33333333333 88.66666666667 703.33333333333 50 658 22 C 612 -6 562 -20 508 -20 C 430 -20 359.66666666667 3.33333333333 297 50 C 234.33333333333 96 186 160.33333333333 152 243 C 117.33333333333 325.66666666667 100 420.33333333333 100 527 C 100 634.33333333333 120 734 160 826 C 199.33333333333 917.33333333333 252.33333333333 989 319 1041 C 385.66666666667 1092.33333333333 456.33333333333 1118 531 1118 C 596.33333333333 1118 654 1105 704 1079 C 753.33333333333 1052.33333333333 794 1017.33333333333 826 974 L 724 883 Z M 1033 -369 C 994.33333333333 -379.66666666667 947.33333333333 -385 892 -385 C 814 -385 751.66666666667 -372.66666666667 705 -348 C 658.33333333333 -323.33333333333 635 -291 635 -251 C 635 -201.66666666667 672.66666666667 -160.66666666667 748 -128 C 822.66666666667 -96 916.66666666667 -80 1030 -80 C 1192 -80 1315 -101.66666666667 1399 -145 C 1482.33333333333 -189 1524 -250.66666666667 1524 -330 C 1524 -381.33333333333 1500.66666666667 -427.66666666667 1454 -469 C 1406.66666666667 -510.33333333333 1339.33333333333 -542.33333333333 1252 -565 C 1164.66666666667 -588.33333333333 1062 -600 944 -600 C 844.66666666667 -600 750.66666666667 -591 662 -573 C 572.66666666667 -555 491.66666666667 -530.33333333333 419 -499 C 345.66666666667 -468.33333333333 285 -433 237 -393 L 307 -294 C 391.66666666667 -353.33333333333 490.66666666667 -399 604 -431 C 716.66666666667 -463.66666666667 830.66666666667 -480 946 -480 C 1036.66666666667 -480 1113.66666666667 -473.33333333333 1177 -460 C 1240.33333333333 -447.33333333333 1289 -429 1323 -405 C 1357 -381.66666666667 1374 -355 1374 -325 C 1374 -279 1345.66666666667 -246.66666666667 1289 -228 C 1232.33333333333 -209.33333333333 1147.33333333333 -200 1034 -200 C 944.66666666667 -200 881 -204.33333333333 843 -213 C 804.33333333333 -221.66666666667 785 -231.33333333333 785 -242 C 785 -251.33333333333 795.33333333333 -259 816 -265 C 836 -271.66666666667 863.66666666667 -275 899 -275 C 930.33333333333 -275 962 -273 994 -269 L 1033 -369 Z"/>
    <path fill="#000000" stroke="none" transform="matrix(1 0 0 -1 29497 2689)" d="M 1035 551 C 1035 378.33333333333 992.33333333333 240 907 136 C 821.66666666667 32 707 -20 563 -20 C 476.33333333333 -20 397.33333333333 4.66666666667 326 54 C 254.66666666667 103.33333333333 199.33333333333 172 160 260 C 120 348 100 445 100 551 C 100 660.33333333333 119.66666666667 758.66666666667 159 846 C 197.66666666667 932.66666666667 252.66666666667 999.66666666667 324 1047 C 395.33333333333 1094.33333333333 477.33333333333 1118 570 1118 C 662 1118 743.33333333333 1094.33333333333 814 1047 C 884.66666666667 999 939.33333333333 931.66666666667 978 845 C 1016 758.33333333333 1035 660.33333333333 1035 551 Z M 284 551 C 284 417 309 311.33333333333 359 234 C 409 156.66666666667 478.66666666667 118 568 118 C 659.33333333333 118 729.33333333333 156.33333333333 778 233 C 826.66666666667 309 851 415 851 551 C 851 688.33333333333 826.33333333333 794.33333333333 777 869 C 727.66666666667 943 657 980 565 980 C 476.33333333333 980 407.33333333333 942.33333333333 358 867 C 308.66666666667 791.66666666667 284 686.33333333333 284 551 Z"/>
    <path fill="#000000" stroke="none" transform="matrix(1 0 0 -1 30632 2689)" d="M 1172 427 C 1200.66666666667 404.33333333333 1223 377 1239 345 C 1255 312.33333333333 1263 277.33333333333 1263 240 C 1263 200 1251 159.33333333333 1227 118 C 1202.33333333333 76.66666666667 1169 43.33333333333 1127 18 C 1084.33333333333 -7.33333333333 1035 -20 979 -20 C 922.33333333333 -20 868.66666666667 -4.33333333333 818 27 C 767.33333333333 58.33333333333 714.33333333333 107 659 173 C 597 245.66666666667 547.33333333333 296 510 324 C 472 351.33333333333 433.33333333333 365 394 365 C 355.33333333333 365 324.33333333333 353.66666666667 301 331 C 277 308.33333333333 265 276.33333333333 265 235 C 265 195.66666666667 275.66666666667 164.66666666667 297 142 C 317.66666666667 119.33333333333 344.66666666667 108 378 108 C 412.66666666667 108 443.66666666667 114 471 126 L 533 10 C 486.33333333333 -10 429 -20 361 -20 C 315.66666666667 -20 272.66666666667 -9.33333333333 232 12 C 191.33333333333 32.66666666667 159.33333333333 61.66666666667 136 99 C 112 136.33333333333 100 178 100 224 C 100 268 113.33333333333 311.33333333333 140 354 C 166.66666666667 396 203 429.66666666667 249 455 C 295 480.33333333333 346.33333333333 493 403 493 C 464.33333333333 493 522.33333333333 477.33333333333 577 446 C 631 414.66666666667 685 366.33333333333 739 301 C 803.66666666667 222.33333333333 852.33333333333 170.66666666667 885 146 C 917 120.66666666667 950 108 984 108 C 1021.33333333333 108 1052.33333333333 118.66666666667 1077 140 C 1101 161.33333333333 1113 189.66666666667 1113 225 C 1113 243 1108.33333333333 262.66666666667 1099 284 C 1089.66666666667 305.33333333333 1077.66666666667 322.66666666667 1063 336 L 1172 427 Z M 1172 1052 C 1200.66666666667 1029.33333333333 1223 1002 1239 970 C 1255 937.33333333333 1263 902.33333333333 1263 865 C 1263 825 1251 784.33333333333 1227 743 C 1202.33333333333 701.66666666667 1169 668.33333333333 1127 643 C 1084.33333333333 617.66666666667 1035 605 979 605 C 922.33333333333 605 868.66666666667 620.66666666667 818 652 C 767.33333333333 683.33333333333 714.33333333333 732 659 798 C 597 870.66666666667 547.33333333333 921 510 949 C 472 976.33333333333 433.33333333333 990 394 990 C 355.33333333333 990 324.33333333333 978.66666666667 301 956 C 277 933.33333333333 265 901.33333333333 265 860 C 265 820.66666666667 275.66666666667 789.66666666667 297 767 C 317.66666666667 744.33333333333 344.66666666667 733 378 733 C 412.66666666667 733 443.66666666667 739 471 751 L 533 635 C 486.33333333333 615 429 605 361 605 C 315.66666666667 605 272.66666666667 615.66666666667 232 637 C 191.33333333333 657.66666666667 159.33333333333 686.66666666667 136 724 C 112 761.33333333333 100 803 100 849 C 100 893 113.33333333333 936.33333333333 140 979 C 166.66666666667 1021 203 1054.66666666667 249 1080 C 295 1105.33333333333 346.33333333333 1118 403 1118 C 464.33333333333 1118 522.33333333333 1102.33333333333 577 1071 C 631 1039.66666666667 685 991.33333333333 739 926 C 803.66666666667 847.33333333333 852.33333333333 795.66666666667 885 771 C 917 745.66666666667 950 733 984 733 C 1021.33333333333 733 1052.33333333333 743.66666666667 1077 765 C 1101 786.33333333333 1113 814.66666666667 1113 850 C 1113 868 1108.33333333333 887.66666666667 1099 909 C 1089.66666666667 930.33333333333 1077.66666666667 947.66666666667 1063 961 L 1172 1052 Z"/>
    <path fill="#000000" stroke="none" transform="matrix(1 0 0 -1 31995 2689)" d="M 1039 1098 L 1039 271 C 1039 83.66666666667 1045.33333333333 -58.33333333333 1058 -155 C 1070.66666666667 -252.33333333333 1091.33333333333 -323 1120 -367 C 1148 -411.66666666667 1188.33333333333 -434 1241 -434 C 1261.66666666667 -434 1286.66666666667 -429 1316 -419 L 1383 -546 C 1334.33333333333 -563.33333333333 1291.66666666667 -572 1255 -572 C 1145.66666666667 -572 1055.66666666667 -508 985 -380 C 914.33333333333 -252 873.66666666667 -82.66666666667 863 128 C 777.66666666667 29.33333333333 683.33333333333 -20 580 -20 C 510 -20 445 0 385 40 C 324.33333333333 80 276 134 240 202 C 203.33333333333 270 185 340 185 412 L 185 875 C 185 908.33333333333 178 934.33333333333 164 953 C 149.33333333333 971 128.33333333333 980 101 980 C 77 980 54.66666666667 977 34 971 L 20 1103 C 50 1113 86 1118 128 1118 C 170 1118 209 1103.66666666667 245 1075 C 281 1045.66666666667 309.66666666667 1004 331 950 C 352.33333333333 896 363 833.66666666667 363 763 L 363 416 C 363 340 370.66666666667 282 386 242 C 401.33333333333 202 425.33333333333 171.33333333333 458 150 C 490 128.66666666667 533 118 587 118 C 673 118 740.33333333333 149 789 211 C 837 272.33333333333 861 362.66666666667 861 482 L 861 1099 L 1039 1098 Z"/>
    <path fill="#000000" stroke="none" transform="matrix(1 0 0 -1 33218 2689)" d="M 118 915 C 166 980.33333333333 225.33333333333 1030.66666666667 296 1066 C 366.66666666667 1100.66666666667 440.66666666667 1118 518 1118 C 618.66666666667 1118 706 1096.33333333333 780 1053 C 854 1009.66666666667 911.33333333333 945.66666666667 952 861 C 992 776.33333333333 1012 673.66666666667 1012 553 C 1012 461.66666666667 998 378.33333333333 970 303 C 995.33333333333 253.66666666667 1040.66666666667 210.66666666667 1106 174 C 1170.66666666667 136.66666666667 1235.33333333333 118 1300 118 C 1400 118 1478 158 1534 238 C 1590 318 1618 427 1618 565 C 1618 694.33333333333 1591.33333333333 796 1538 870 C 1484.66666666667 943.33333333333 1411.66666666667 980 1319 980 C 1281 980 1246.33333333333 971 1215 953 C 1183 935 1157.33333333333 911 1138 881 L 1008 961 C 1048 1019.66666666667 1096.66666666667 1060.66666666667 1154 1084 C 1210.66666666667 1106.66666666667 1273.33333333333 1118 1342 1118 C 1426.66666666667 1118 1504.33333333333 1095.33333333333 1575 1050 C 1645.66666666667 1004.66666666667 1701.33333333333 940.66666666667 1742 858 C 1782 775.33333333333 1802 677 1802 563 C 1802 445.66666666667 1781 343 1739 255 C 1697 166.33333333333 1638 98.33333333333 1562 51 C 1485.33333333333 3.66666666667 1398.33333333333 -20 1301 -20 C 1117 -20 975.66666666667 34.66666666667 877 144 C 829 88.66666666667 773 47.66666666667 709 21 C 644.33333333333 -6.33333333333 578.33333333333 -20 511 -20 C 421 -20 339.33333333333 2 266 46 C 192.66666666667 89.33333333333 130.66666666667 153.33333333333 80 238 L 212 313 C 234.66666666667 262.33333333333 275.66666666667 217.33333333333 335 178 C 393.66666666667 138 455.33333333333 118 520 118 C 613.33333333333 118 688 158 744 238 C 800 318 828 423.66666666667 828 555 C 828 691.66666666667 800 796.66666666667 744 870 C 687.33333333333 943.33333333333 609 980 509 980 C 457 980 407.66666666667 967.33333333333 361 942 C 313.66666666667 916.66666666667 276.33333333333 882.33333333333 249 839 L 118 915 Z M 513 -367 C 513 -295.66666666667 553.66666666667 -238.33333333333 635 -195 C 716.33333333333 -151.66666666667 828.33333333333 -130 971 -130 C 1113 -130 1225 -151.33333333333 1307 -194 C 1388.33333333333 -237.33333333333 1429 -295 1429 -367 C 1429 -438.33333333333 1388.33333333333 -495 1307 -537 C 1225.66666666667 -579 1113.66666666667 -600 971 -600 C 829 -600 717.33333333333 -579 636 -537 C 554 -495 513 -438.33333333333 513 -367 Z M 663 -366 C 663 -401.33333333333 690 -429 744 -449 C 798 -469.66666666667 872.33333333333 -480 967 -480 C 1064.33333333333 -480 1140.66666666667 -469.66666666667 1196 -449 C 1251.33333333333 -429 1279 -401.33333333333 1279 -366 C 1279 -330 1251.66666666667 -301.66666666667 1197 -281 C 1141.66666666667 -260.33333333333 1065 -250 967 -250 C 871 -250 796.33333333333 -260 743 -280 C 689.66666666667 -300.66666666667 663 -329.33333333333 663 -366 Z"/>
    <path fill="#000000" stroke="none" transform="matrix(1 0 0 -1 35120 2689)" d="M 1128 158 C 1176 131.33333333333 1226 118 1278 118 C 1368.66666666667 118 1441 158 1495 238 C 1549 318 1576 426.33333333333 1576 563 C 1576 694.33333333333 1550.33333333333 796.66666666667 1499 870 C 1447 943.33333333333 1374.33333333333 980 1281 980 C 1211 980 1153.33333333333 954.66666666667 1108 904 C 1062.66666666667 853.33333333333 1034.33333333333 782 1023 690 C 1031 644.66666666667 1035 598.33333333333 1035 551 C 1035 378.33333333333 992.33333333333 240 907 136 C 821.66666666667 32 707 -20 563 -20 C 476.33333333333 -20 397.33333333333 4.66666666667 326 54 C 254.66666666667 103.33333333333 199.33333333333 172 160 260 C 120 348 100 445 100 551 C 100 660.33333333333 119.66666666667 758.66666666667 159 846 C 197.66666666667 932.66666666667 252.66666666667 999.66666666667 324 1047 C 395.33333333333 1094.33333333333 477.33333333333 1118 570 1118 C 650.66666666667 1118 721.66666666667 1101 783 1067 C 843.66666666667 1032.33333333333 894 985 934 925 C 971.33333333333 983.66666666667 1021.66666666667 1030.66666666667 1085 1066 C 1148.33333333333 1100.66666666667 1215.33333333333 1118 1286 1118 C 1378 1118 1460.33333333333 1096 1533 1052 C 1605 1008 1661 945 1701 863 C 1740.33333333333 781 1760 685 1760 575 C 1760 452.33333333333 1740.33333333333 346.33333333333 1701 257 C 1661.66666666667 167.66666666667 1606 99.33333333333 1534 52 C 1462 4 1379.33333333333 -20 1286 -20 C 1197.33333333333 -20 1117.66666666667 0.33333333333 1047 41 L 1128 158 Z M 284 551 C 284 417 309 311.33333333333 359 234 C 409 156.66666666667 478.66666666667 118 568 118 C 659.33333333333 118 729.33333333333 156.33333333333 778 233 C 826.66666666667 309 851 415 851 551 C 851 688.33333333333 826.33333333333 794.33333333333 777 869 C 727.66666666667 943 657 980 565 980 C 476.33333333333 980 407.33333333333 942.33333333333 358 867 C 308.66666666667 791.66666666667 284 686.33333333333 284 551 Z"/>
    <path fill="#000000" stroke="none" transform="matrix(1 0 0 -1 37512 2689)" d="M 986 -382 C 986 -319.33333333333 1008 -268.33333333333 1052 -229 C 1096 -189.66666666667 1153.33333333333 -170 1224 -170 C 1276.66666666667 -170 1323.33333333333 -186.33333333333 1364 -219 C 1404.66666666667 -252.33333333333 1429 -294.66666666667 1437 -346 C 1473 -272 1502.33333333333 -178.33333333333 1525 -65 C 1547.66666666667 48.33333333333 1560.33333333333 164.33333333333 1563 283 L 1759 532 C 1759 345.33333333333 1733 160 1681 -24 C 1629 -208 1562.66666666667 -350 1482 -450 C 1400.66666666667 -550 1313 -600 1219 -600 C 1149 -600 1092.66666666667 -579.33333333333 1050 -538 C 1007.33333333333 -497.33333333333 986 -445.33333333333 986 -382 Z M 1123 -383 C 1123 -411.66666666667 1132.33333333333 -435 1151 -453 C 1169.66666666667 -471 1192.66666666667 -480 1220 -480 C 1246.66666666667 -480 1269 -470.66666666667 1287 -452 C 1305 -433.33333333333 1314 -410.33333333333 1314 -383 C 1314 -354.33333333333 1305 -330.33333333333 1287 -311 C 1268.33333333333 -291.66666666667 1246 -282 1220 -282 C 1192.66666666667 -282 1169.66666666667 -291.33333333333 1151 -310 C 1132.33333333333 -328.66666666667 1123 -353 1123 -383 Z M 813 41 C 742.33333333333 0.33333333333 662.66666666667 -20 574 -20 C 484 -20 403 3.66666666667 331 51 C 258.33333333333 98.33333333333 201.66666666667 166.33333333333 161 255 C 120.33333333333 343 100 446.33333333333 100 565 C 100 675.66666666667 120 773 160 857 C 199.33333333333 940.33333333333 255.33333333333 1004.66666666667 328 1050 C 400 1095.33333333333 482 1118 574 1118 C 649.33333333333 1118 719.33333333333 1097.66666666667 784 1057 C 848.66666666667 1015.66666666667 897 961 929 893 C 963.66666666667 963 1013.33333333333 1018 1078 1058 C 1142.66666666667 1098 1212 1118 1286 1118 C 1376.66666666667 1118 1458.33333333333 1095.66666666667 1531 1051 C 1603 1005.66666666667 1659.33333333333 941.33333333333 1700 858 C 1740 774.66666666667 1760 677 1760 565 C 1760 445.66666666667 1739.66666666667 342 1699 254 C 1657.66666666667 165.33333333333 1600.66666666667 97.66666666667 1528 51 C 1455.33333333333 3.66666666667 1374.66666666667 -20 1286 -20 C 1197.33333333333 -20 1117.66666666667 0.33333333333 1047 41 L 1128 158 C 1176 131.33333333333 1226 118 1278 118 C 1373.33333333333 118 1447 156 1499 232 C 1550.33333333333 308 1576 418.33333333333 1576 563 C 1576 694.33333333333 1550.33333333333 796.66666666667 1499 870 C 1447 943.33333333333 1374.33333333333 980 1281 980 C 1204.33333333333 980 1142.66666666667 952 1096 896 C 1048.66666666667 840 1021.66666666667 762.33333333333 1015 663 L 845 663 C 837.66666666667 763 810.66666666667 841 764 897 C 717.33333333333 952.33333333333 655.66666666667 980 579 980 C 486.33333333333 980 414 943.33333333333 362 870 C 310 796.66666666667 284 694.33333333333 284 563 C 284 417.66666666667 310 307.33333333333 362 232 C 413.33333333333 156 486.66666666667 118 582 118 C 634 118 684 131.33333333333 732 158 L 813 41 Z"/>
    <path fill="#000000" stroke="none" transform="matrix(1 0 0 -1 39372 2689)" d="M 518 1033 C 554.66666666667 1058.33333333333 601 1079 657 1095 C 713 1110.33333333333 769.33333333333 1118 826 1118 C 902 1118 969.66666666667 1105.66666666667 1029 1081 C 1087.66666666667 1055.66666666667 1133.33333333333 1021.33333333333 1166 978 C 1198 934 1214 886.33333333333 1214 835 C 1214 723.66666666667 1151.33333333333 644.33333333333 1026 597 C 1086.66666666667 569.66666666667 1133.33333333333 533.66666666667 1166 489 C 1198 444.33333333333 1214 392.66666666667 1214 334 C 1214 298.66666666667 1206 260.33333333333 1190 219 C 1174 177.66666666667 1147.33333333333 139.33333333333 1110 104 C 1072.66666666667 68.66666666667 1023 39.33333333333 961 16 C 899 -8 821.66666666667 -20 729 -20 C 604.33333333333 -20 494.33333333333 16 399 88 C 303 159.33333333333 229.33333333333 259.66666666667 178 389 C 126 517.66666666667 100 661.66666666667 100 821 C 100 987 127 1141.66666666667 181 1285 C 235 1427.66666666667 308 1539.33333333333 400 1620 C 492 1700 592 1740 700 1740 C 776.66666666667 1740 848 1724.66666666667 914 1694 C 979.33333333333 1663.33333333333 1034 1620 1078 1564 L 945 1461 C 921.66666666667 1503.66666666667 887 1538 841 1564 C 795 1589.33333333333 747 1602 697 1602 C 421.66666666667 1602 284 1341.66666666667 284 821 C 284 676.33333333333 302.33333333333 550.66666666667 339 444 C 375.66666666667 337.33333333333 428 256.33333333333 496 201 C 563.33333333333 145.66666666667 641.66666666667 118 731 118 C 828.33333333333 118 902.66666666667 137 954 175 C 1004.66666666667 213 1030 266.66666666667 1030 336 C 1030 396.66666666667 1007 443.66666666667 961 477 C 915 510.33333333333 851 527 769 527 L 708 525 L 708 646 L 775 649 C 863 652.33333333333 927.66666666667 669.66666666667 969 701 C 1009.66666666667 731.66666666667 1030 776.33333333333 1030 835 C 1030 878.33333333333 1011.33333333333 913.33333333333 974 940 C 936.66666666667 966.66666666667 881 980 807 980 C 770.33333333333 980 731 974.66666666667 689 964 C 647 952.66666666667 612.66666666667 937.66666666667 586 919 L 518 1033 Z"/>
    <path fill="#000000" stroke="none" transform="matrix(1 0 0 -1 40686 2689)" d="M 1103 42 C 1068.33333333333 20.66666666667 1030 5 988 -5 C 945.33333333333 -15 905.33333333333 -20 868 -20 C 736.66666666667 -20 609 34 485 142 C 345 34 206 -20 68 -20 C 30.66666666667 -20 -5.33333333333 -17 -40 -11 L -8 124 C 16 120 37 118 55 118 C 107 118 161.66666666667 129.33333333333 219 152 C 276.33333333333 174.66666666667 331.33333333333 206.33333333333 384 247 C 250.66666666667 409 184 581 184 763 C 184 828.33333333333 198.66666666667 888.33333333333 228 943 C 257.33333333333 997 297.33333333333 1039.66666666667 348 1071 C 398 1102.33333333333 452.33333333333 1118 511 1118 C 574.33333333333 1118 631.33333333333 1103.33333333333 682 1074 C 732 1044.66666666667 771.66666666667 1002.66666666667 801 948 C 830.33333333333 893.33333333333 845 827 845 749 C 845 671 822.66666666667 586 778 494 C 733.33333333333 402 671.66666666667 316.33333333333 593 237 C 681 157.66666666667 774.33333333333 118 873 118 C 899 118 928 122.33333333333 960 131 C 992 139.66666666667 1017 150 1035 162 L 1103 42 Z M 495 350 C 544.33333333333 405.33333333333 584.33333333333 466.66666666667 615 534 C 645.66666666667 601.33333333333 661 671.66666666667 661 745 C 661 827 649.66666666667 886.66666666667 627 924 C 603.66666666667 961.33333333333 565 980 511 980 C 463 980 427.33333333333 963 404 929 C 380 894.33333333333 368 839 368 763 C 368 613 410.33333333333 475.33333333333 495 350 Z"/>
    <path fill="#000000" stroke="none" transform="matrix(1 0 0 -1 41749 2689)" d="M 433 -10 C 320.33333333333 44 236.66666666667 126.33333333333 182 237 C 127.33333333333 347 100 492 100 672 L 100 848 C 100 1027.33333333333 123.33333333333 1184.66666666667 170 1320 C 216.66666666667 1454.66666666667 283.66666666667 1558.33333333333 371 1631 C 457.66666666667 1703.66666666667 559 1740 675 1740 C 827 1740 949.33333333333 1681.33333333333 1042 1564 L 909 1461 C 885.66666666667 1503.66666666667 849.66666666667 1538 801 1564 C 751.66666666667 1589.33333333333 701 1602 649 1602 C 535 1602 449.33333333333 1556.66666666667 392 1466 C 334 1375.33333333333 298.66666666667 1220.66666666667 286 1002 C 377.33333333333 1079.33333333333 481.33333333333 1118 598 1118 C 699.33333333333 1118 790.33333333333 1094.66666666667 871 1048 C 951.66666666667 1001.33333333333 1014 935 1058 849 C 1102 763 1124 662.66666666667 1124 548 C 1124 459.33333333333 1108.66666666667 375.66666666667 1078 297 C 1046.66666666667 217.66666666667 1003 150 947 94 C 1085 35.33333333333 1154 -54 1154 -174 C 1154 -250 1132.33333333333 -319.33333333333 1089 -382 C 1045 -444.66666666667 985.33333333333 -491.66666666667 910 -523 C 834 -554.33333333333 746 -570 646 -570 C 555.33333333333 -570 463.66666666667 -549 371 -507 C 278.33333333333 -465.66666666667 204 -409.66666666667 148 -339 L 269 -250 C 313 -303.33333333333 369 -347 437 -381 C 504.33333333333 -415 574 -432 646 -432 C 752 -432 832.66666666667 -410.66666666667 888 -368 C 943.33333333333 -325.33333333333 971 -261.66666666667 971 -177 C 971 -59 880.33333333333 0 699 0 L 684 0 L 668 -1 L 668 137 L 700 137 C 743.33333333333 137 783.66666666667 155.66666666667 821 193 C 858.33333333333 230.33333333333 887.66666666667 281.33333333333 909 346 C 929.66666666667 410.66666666667 940 482 940 560 C 940 694 910.33333333333 797.66666666667 851 871 C 791.66666666667 943.66666666667 707.33333333333 980 598 980 C 510 980 435.66666666667 956.33333333333 375 909 C 314.33333333333 861.66666666667 282 803.33333333333 278 734 L 278 640 C 278 534.66666666667 285 452 299 392 C 313 331.33333333333 335.33333333333 279.33333333333 366 236 C 396.66666666667 192.66666666667 437.66666666667 157 489 129 L 433 -10 Z"/>
    <path fill="#000000" stroke="none" transform="matrix(1 0 0 -1 42973 2689)" d="M 454 -397 C 503.33333333333 -420.33333333333 550 -432 594 -432 C 686 -432 762.66666666667 -406.33333333333 824 -355 C 885.33333333333 -304.33333333333 931 -224.33333333333 961 -115 C 990.33333333333 -6.33333333333 1005 147.66666666667 1005 347 C 1005 560.33333333333 969 719.33333333333 897 824 C 825 928 715 980 567 980 C 481.66666666667 980 413.33333333333 965.66666666667 362 937 C 310 907.66666666667 284 869.33333333333 284 822 C 284 764.66666666667 308.33333333333 721 357 691 C 405 661 483.66666666667 646 593 646 L 605 646 L 605 525 L 545 527 C 463 527 399 510.33333333333 353 477 C 307 443.66666666667 284 396.66666666667 284 336 C 284 268.66666666667 307 215.66666666667 353 177 C 398.33333333333 137.66666666667 460 118 538 118 C 580.66666666667 118 617.33333333333 122.33333333333 648 131 C 678 139 711.33333333333 155 748 179 L 816 58 C 765.33333333333 30.66666666667 717.66666666667 11 673 -1 C 627.66666666667 -13.66666666667 578.33333333333 -20 525 -20 C 435.66666666667 -20 359.33333333333 -4.66666666667 296 26 C 232 56 183.33333333333 97.33333333333 150 150 C 116.66666666667 202 100 262.33333333333 100 331 C 100 389 116 441.66666666667 148 489 C 179.33333333333 535.66666666667 224.66666666667 572 284 598 C 218.66666666667 624.66666666667 171.66666666667 657 143 695 C 114.33333333333 733 100 780.66666666667 100 838 C 100 883.33333333333 120 928 160 972 C 200 1016 255.66666666667 1051.33333333333 327 1078 C 397.66666666667 1104.66666666667 478.66666666667 1118 570 1118 C 694 1118 803 1085.66666666667 897 1021 C 990.33333333333 956.33333333333 1062.33333333333 865 1113 747 C 1163.66666666667 628.33333333333 1189 495 1189 347 C 1189 161 1164.33333333333 -1.66666666667 1115 -141 C 1065 -280.33333333333 994.66666666667 -386.66666666667 904 -460 C 812.66666666667 -533.33333333333 704.33333333333 -570 579 -570 C 514.33333333333 -570 450.33333333333 -556.66666666667 387 -530 L 454 -397 Z"/>
    <path fill="#000000" stroke="none" transform="matrix(1 0 0 -1 44262 2689)" d="M 118 915 C 166 980.33333333333 225.33333333333 1030.66666666667 296 1066 C 366.66666666667 1100.66666666667 440.66666666667 1118 518 1118 C 698.66666666667 1118 832 1054 918 926 C 967.33333333333 986 1026.33333333333 1033 1095 1067 C 1163 1101 1238 1118 1320 1118 C 1415.33333333333 1118 1499.66666666667 1095.66666666667 1573 1051 C 1645.66666666667 1006.33333333333 1702 941.66666666667 1742 857 C 1782 771.66666666667 1802 670.33333333333 1802 553 C 1802 444.33333333333 1783.66666666667 346 1747 258 C 1710.33333333333 170 1659.33333333333 101.66666666667 1594 53 C 1528 4.33333333333 1453.33333333333 -20 1370 -20 C 1304.66666666667 -20 1247.33333333333 -6.66666666667 1198 20 C 1148 46 1107 80.66666666667 1075 124 L 1177 215 C 1222.33333333333 150.33333333333 1285.66666666667 118 1367 118 C 1445 118 1506.33333333333 156.33333333333 1551 233 C 1595.66666666667 309.66666666667 1618 418.33333333333 1618 559 C 1618 691.66666666667 1589.66666666667 795 1533 869 C 1475.66666666667 943 1397.66666666667 980 1299 980 C 1228.33333333333 980 1167 958.66666666667 1115 916 C 1062.33333333333 873.33333333333 1023 809 997 723 C 1007 671.66666666667 1012 615 1012 553 C 1012 434.33333333333 992 332 952 246 C 911.33333333333 159.33333333333 853.66666666667 93.33333333333 779 48 C 704.33333333333 2.66666666667 618.33333333333 -20 521 -20 C 429 -20 345 2.33333333333 269 47 C 193 91 130 154.66666666667 80 238 L 212 313 C 234.66666666667 262.33333333333 275.66666666667 217.33333333333 335 178 C 393.66666666667 138 455.33333333333 118 520 118 C 613.33333333333 118 688 158 744 238 C 800 318 828 423.66666666667 828 555 C 828 691.66666666667 800 796.66666666667 744 870 C 687.33333333333 943.33333333333 609 980 509 980 C 457 980 407.66666666667 967.33333333333 361 942 C 313.66666666667 916.66666666667 276.33333333333 882.33333333333 249 839 L 118 915 Z"/>
</svg>
