<svg xmlns="http://www.w3.org/2000/svg" viewBox="0 0 16743 2000" transform="translate(0, 2000) scale(1, -1)">
<path d="M197,-3Q177,-1 155,0Q132,0 103,0Q80,0 60,0Q40,-1 16,-3L16,21Q45,22 62,33Q79,44 89,66Q119,132 151,208Q183,283 215,363Q246,443 277,524Q307,605 334,680L371,682Q396,604 425,521Q454,438 484,357Q514,276 545,200Q576,123 606,58Q614,41 631,32Q648,22 677,21L677,-3Q629,-2 583,-3Q537,-4 507,-6Q490,54 471,116Q451,177 430,238Q403,240 374,240Q344,240 312,240Q259,240 208,237Q192,195 177,151Q161,107 145,59Q139,41 153,32Q167,22 197,21L197,-3ZM312,278Q339,278 365,278Q391,278 416,280Q393,346 371,407Q348,467 328,515Q302,460 277,403Q251,345 225,280Q245,278 264,278Q283,278 312,278ZM299,732L263,726Q274,744 283,758Q291,772 298,785Q304,797 311,811Q317,824 324,842L379,846Q386,828 393,814Q399,800 407,787Q414,773 423,759Q431,744 443,726L407,732L350,794L299,732Z"  transform="translate(0, 730)"/>
<path d="M243,-3Q217,-1 189,0Q161,0 131,0Q101,0 73,0Q45,-1 20,-3L20,21Q49,22 65,30Q80,37 82,55Q84,76 86,102Q87,128 88,162Q89,196 90,240Q90,284 90,340Q90,438 89,501Q87,563 82,605Q80,623 64,631Q48,638 19,639L19,663Q45,661 73,661Q101,660 131,660Q161,660 189,661Q217,661 242,663L242,639Q213,638 198,631Q182,623 180,605Q175,563 174,501Q172,438 172,340Q172,284 173,240Q173,196 174,162Q175,128 177,102Q178,76 180,55Q182,37 198,30Q214,22 243,21L243,-3ZM10,865L93,849Q105,818 120,788Q134,758 154,725L112,732L7,862L10,865Z"  transform="translate(692, 730)"/>
<path d="M20,663Q46,661 63,661Q79,660 102,660Q123,660 148,662Q172,663 210,668Q230,670 254,672Q277,674 299,674Q474,674 572,593Q669,512 669,358Q669,265 638,195Q606,125 551,79Q496,32 421,9Q346,-14 260,-14Q244,-14 221,-12Q198,-10 178,-7Q162,-5 142,-2Q122,0 107,0Q84,0 65,0Q46,-1 22,-3L22,21Q51,22 66,30Q81,37 83,55Q85,76 87,102Q88,128 89,162Q90,196 91,240Q91,284 91,340Q91,438 90,501Q88,563 83,605Q81,623 65,631Q49,638 20,639L20,663ZM290,32Q363,32 415,57Q466,82 499,125Q532,167 548,223Q563,278 563,339Q563,405 547,458Q531,510 496,548Q461,585 406,605Q350,625 270,625Q250,625 226,623Q201,620 178,615Q177,584 176,554Q175,523 174,490Q173,457 173,421Q173,384 173,340Q173,251 175,199Q177,146 181,117Q184,87 190,76Q195,64 201,58Q213,46 237,39Q261,32 290,32Z"  transform="translate(956, 730)"/>
<path d="M54,326Q54,406 80,472Q105,537 151,585Q196,632 258,658Q320,684 392,684Q458,684 518,662Q577,640 622,597Q666,553 692,489Q718,424 718,340Q718,261 693,195Q667,129 622,82Q576,34 514,8Q452,-18 380,-18Q314,-18 255,4Q195,26 151,70Q106,113 80,178Q54,242 54,326ZM388,30Q496,30 556,109Q615,187 615,333Q615,400 600,456Q584,512 555,552Q525,592 482,614Q439,636 384,636Q276,636 217,558Q157,479 157,333Q157,266 173,210Q188,154 218,114Q247,74 290,52Q333,30 388,30ZM367,725Q387,758 402,788Q416,818 428,849L511,865L514,862L409,732L367,725Z"  transform="translate(1680, 730)"/>
<path d="M421,-3Q395,-1 367,0Q339,0 309,0Q279,0 251,0Q223,-1 198,-3L198,21Q227,22 243,30Q258,37 260,55Q262,74 264,97Q265,119 266,148Q267,176 268,212Q268,248 268,293Q245,335 223,373Q201,410 178,447Q154,484 128,522Q102,560 72,602Q61,618 45,628Q28,638 -1,639L-1,663Q47,662 86,663Q124,664 157,666Q178,620 198,582Q217,544 238,509Q258,474 282,439Q305,403 333,362Q359,396 379,425Q399,454 417,482Q435,510 452,539Q468,568 485,601Q494,619 481,629Q467,638 437,639L437,663Q457,661 480,661Q503,660 532,660Q555,660 576,661Q596,661 620,663L620,639Q591,638 577,627Q562,616 546,594Q518,556 495,523Q472,490 450,456Q427,421 403,382Q379,343 350,293Q350,248 351,212Q351,176 352,148Q353,119 355,97Q356,74 358,55Q360,37 376,30Q392,22 421,21L421,-3ZM251,740Q231,740 219,753Q206,765 206,785Q206,805 219,818Q231,830 251,830Q271,830 284,818Q296,805 296,785Q296,765 284,753Q271,740 251,740ZM391,740Q371,740 359,753Q346,765 346,785Q346,805 359,818Q371,830 391,830Q411,830 424,818Q436,805 436,785Q436,765 424,753Q411,740 391,740Z"  transform="translate(2407, 730)"/>
<path d="M172,-3Q152,-1 130,0Q108,0 83,0Q60,0 40,0Q20,-1 -4,-3L-4,21Q63,22 67,66Q75,131 82,207Q89,283 96,363Q102,443 107,524Q111,605 114,680L149,682Q189,583 254,453Q319,322 398,175Q427,217 455,260Q482,302 516,358Q549,414 593,492Q637,569 700,682L738,682Q735,604 735,521Q735,438 738,357Q740,276 745,200Q749,123 755,58Q757,40 776,31Q795,22 824,21L824,-3Q799,-1 769,0Q739,0 709,0Q679,0 652,0Q625,-1 601,-3L601,21Q630,22 643,32Q656,41 657,59Q659,96 659,147Q659,198 657,255Q655,311 652,368Q648,424 643,473Q610,425 583,384Q556,343 529,295Q501,247 469,186Q436,124 391,34L362,32Q340,84 317,135Q294,185 268,238Q242,290 212,346Q182,401 146,464Q139,412 134,364Q128,315 125,266Q121,217 119,166Q116,115 115,59Q115,41 128,32Q140,22 172,21L172,-3Z"  transform="translate(3025, 730)"/>
<path d=""  transform="translate(3871, 730)"/>
<path d="M244,-3Q218,-1 190,0Q162,0 132,0Q102,0 74,0Q46,-1 21,-3L21,21Q50,22 66,30Q81,37 83,55Q85,76 87,102Q88,128 89,162Q90,196 91,240Q91,284 91,340Q91,438 90,501Q88,563 83,605Q81,623 65,631Q49,638 20,639L20,663Q46,661 74,661Q102,660 132,660Q162,660 190,661Q218,661 243,663L243,639Q214,638 199,631Q183,623 181,605Q176,563 175,501Q173,438 173,340Q173,284 174,240Q174,196 175,162Q176,128 178,102Q179,76 181,55Q183,37 199,30Q215,22 244,21L244,-3Z"  transform="translate(4086, 730)"/>
<path d="M178,0Q157,0 133,0Q109,0 84,0Q59,-1 36,-2Q12,-3 -8,-4L-8,20Q18,25 37,35Q55,44 75,66Q95,89 120,120Q144,151 170,186Q195,220 221,256Q247,292 270,326Q254,360 232,401Q210,441 189,480Q167,518 148,549Q129,580 117,595Q100,617 84,624Q67,631 35,633L35,657Q73,657 118,658Q162,659 197,662Q206,639 221,606Q236,573 254,537Q271,500 290,464Q308,428 325,398Q392,486 430,545Q468,603 468,617Q468,627 461,633Q453,638 430,640L430,660Q450,660 474,660Q498,660 522,661Q546,661 568,662Q590,663 606,664L606,640Q580,638 564,629Q547,620 525,594Q479,540 436,483Q393,425 349,357Q388,288 415,243Q441,197 460,167Q478,136 492,117Q505,98 517,81Q530,63 541,52Q551,41 561,35Q570,28 581,25Q592,22 607,20L607,-4Q592,-4 572,-4Q551,-5 530,-5Q508,-6 486,-7Q464,-9 445,-10Q412,60 373,136Q334,211 294,281Q260,237 232,197Q203,157 183,125Q163,92 152,70Q140,47 140,39Q140,31 151,26Q161,21 178,20L178,0Z"  transform="translate(4350, 730)"/>
<path d="M-14,663Q34,662 80,663Q125,664 155,666L159,663Q213,395 282,181Q310,246 338,313Q365,380 390,444Q414,508 434,566Q454,623 468,670L507,673Q531,594 552,533Q572,471 594,414Q615,356 641,294Q666,232 701,151Q723,213 742,269Q761,324 778,378Q794,432 810,487Q825,541 841,601Q850,637 788,639L788,663Q808,661 832,661Q855,660 887,660Q910,660 931,661Q951,661 975,663L975,639Q917,637 901,594Q844,448 795,297Q746,145 704,-20L667,-22Q642,50 620,113Q597,176 574,238Q550,299 524,362Q498,425 466,495Q441,440 418,385Q395,330 373,269Q350,208 326,138Q302,67 274,-20L237,-22Q201,138 156,300Q110,461 59,602Q47,637 -14,639L-14,663ZM465,725Q485,758 500,788Q514,818 526,849L609,865L612,862L507,732L465,725Z"  transform="translate(4950, 730)"/>
<path d="M241,639Q212,638 197,631Q181,623 179,605Q174,563 173,501Q171,438 171,340Q171,314 171,286Q171,257 173,219Q175,180 186,147Q197,114 220,90Q243,65 278,52Q313,38 361,38Q405,38 437,52Q468,65 489,89Q510,113 521,146Q532,179 533,217Q535,258 535,285Q535,312 535,340Q535,438 534,501Q532,563 529,605Q527,623 510,631Q493,638 464,639L464,663Q490,661 511,661Q531,660 557,660Q585,660 607,661Q629,661 649,663L649,639Q620,638 604,631Q587,623 585,605Q582,563 581,501Q579,438 579,340Q579,326 579,313Q579,299 579,285Q579,271 580,254Q580,237 581,215Q583,169 568,126Q553,83 521,50Q489,16 440,-4Q390,-24 322,-24Q267,-24 223,-8Q178,8 148,38Q117,68 101,112Q85,155 87,209Q89,252 89,282Q89,312 89,340Q89,438 88,501Q86,563 81,605Q79,623 63,631Q47,638 18,639L18,663Q44,661 72,661Q100,660 130,660Q160,660 188,661Q216,661 241,663L241,639ZM299,732L263,726Q274,744 283,758Q291,772 298,785Q304,797 311,811Q317,824 324,842L379,846Q386,828 393,814Q399,800 407,787Q414,773 423,759Q431,744 443,726L407,732L350,794L299,732Z"  transform="translate(5930, 730)"/>
<path d="M197,-3Q177,-1 155,0Q132,0 103,0Q80,0 60,0Q40,-1 16,-3L16,21Q45,22 62,33Q79,44 89,66Q119,132 151,208Q183,283 215,363Q246,443 277,524Q307,605 334,680L371,682Q396,604 425,521Q454,438 484,357Q514,276 545,200Q576,123 606,58Q614,41 631,32Q648,22 677,21L677,-3Q629,-2 583,-3Q537,-4 507,-6Q490,54 471,116Q451,177 430,238Q403,240 374,240Q344,240 312,240Q259,240 208,237Q192,195 177,151Q161,107 145,59Q139,41 153,32Q167,22 197,21L197,-3ZM312,278Q339,278 365,278Q391,278 416,280Q393,346 371,407Q348,467 328,515Q302,460 277,403Q251,345 225,280Q245,278 264,278Q283,278 312,278ZM232,865L315,849Q327,818 342,788Q356,758 376,725L334,732L229,862L232,865Z"  transform="translate(6534, 730)"/>
<path d="M54,326Q54,406 80,472Q105,537 151,585Q196,632 258,658Q320,684 392,684Q458,684 518,662Q577,640 622,597Q666,553 692,489Q718,424 718,340Q718,261 693,195Q667,129 622,82Q576,34 514,8Q452,-18 380,-18Q314,-18 255,4Q195,26 151,70Q106,113 80,178Q54,242 54,326ZM388,30Q496,30 556,109Q615,187 615,333Q615,400 600,456Q584,512 555,552Q525,592 482,614Q439,636 384,636Q276,636 217,558Q157,479 157,333Q157,266 173,210Q188,154 218,114Q247,74 290,52Q333,30 388,30ZM335,732L299,726Q310,744 319,758Q327,772 334,785Q340,797 347,811Q353,824 360,842L415,846Q422,828 429,814Q435,800 443,787Q450,773 459,759Q467,744 479,726L443,732L386,794L335,732Z"  transform="translate(7179, 730)"/>
<path d=""  transform="translate(7953, 730)"/>
<path d="M330,9Q307,-3 285,-8Q263,-14 228,-14Q134,-14 85,38Q35,90 35,178Q35,231 49,275Q63,318 90,349Q116,380 154,397Q191,414 238,414Q271,414 299,401Q327,388 347,364Q367,339 379,305Q390,270 390,226Q390,215 373,207Q356,198 329,199Q299,200 272,200Q244,200 207,200Q180,200 159,200Q138,199 117,198Q121,124 158,82Q194,39 269,39Q295,39 322,49Q348,58 371,74L375,70L364,27L330,9ZM118,233Q139,232 161,232Q182,231 204,231Q269,231 308,244Q308,270 302,293Q295,316 283,333Q270,350 253,361Q235,371 213,371Q192,371 176,361Q159,350 147,332Q135,313 128,288Q120,262 118,233ZM201,465Q221,498 236,528Q250,558 262,589L345,605L348,602L243,472L201,465Z"  transform="translate(8168, 730)"/>
<path d="M-6,397Q32,397 69,399Q105,400 135,402L139,399Q143,374 149,347Q154,320 161,289Q168,257 178,220Q187,182 200,135Q227,187 246,226Q264,265 278,297Q292,328 302,354Q312,380 321,406L352,406Q361,379 372,353Q383,326 397,296Q410,266 428,231Q445,196 468,152Q504,244 517,289Q530,334 530,351Q530,373 486,376L486,400Q527,400 570,401Q612,401 645,404L645,380Q614,378 598,366Q581,353 572,329Q539,239 516,155Q492,71 473,-12L443,-12Q421,46 404,87Q387,128 373,160Q359,191 346,217Q332,243 316,270Q278,201 244,129Q209,57 183,-12L153,-12Q140,51 129,100Q117,148 107,186Q97,224 88,255Q78,286 67,315Q57,341 42,356Q26,371 -6,373L-6,397ZM215,605L298,589Q310,558 325,528Q339,498 359,465L317,472L212,602L215,605Z"  transform="translate(8595, 730)"/>
<path d="M243,-3Q217,-1 189,0Q160,0 133,0Q106,0 78,0Q49,-1 24,-3L24,21Q53,22 70,30Q87,37 89,55Q91,76 93,98Q94,120 95,153Q96,185 97,232Q97,279 97,350L97,357L42,357L42,379Q55,381 70,386Q85,391 95,396L95,510Q95,562 112,602Q128,641 155,668Q181,695 214,709Q247,723 279,723Q308,723 333,716Q357,709 375,695Q365,673 358,650Q350,627 345,605L315,603Q317,620 310,632Q303,644 294,652Q283,662 271,666Q258,670 240,670Q200,670 184,640Q167,609 167,546L167,396L271,396Q269,388 268,377Q267,365 267,357L169,357L169,350Q169,279 170,232Q170,185 171,153Q172,120 174,98Q175,76 177,55Q179,37 197,30Q214,22 243,21L243,-3Z"  transform="translate(9227, 730)"/>
<path d="M-5,397Q33,397 70,399Q106,400 136,402L140,399Q144,374 150,347Q155,320 162,289Q169,257 179,220Q188,182 201,135Q228,187 247,226Q265,265 279,297Q293,328 303,354Q313,380 322,406L353,406Q362,379 373,353Q384,326 398,296Q411,266 429,231Q446,196 469,152Q505,244 518,289Q531,334 531,351Q531,373 487,376L487,400Q528,400 571,401Q613,401 646,404L646,380Q615,378 599,366Q582,353 573,329Q540,239 517,155Q493,71 474,-12L444,-12Q422,46 405,87Q388,128 374,160Q360,191 347,217Q333,243 317,270Q279,201 245,129Q210,57 184,-12L154,-12Q141,51 130,100Q118,148 108,186Q98,224 89,255Q79,286 68,315Q58,341 43,356Q27,371 -5,373L-5,397Z"  transform="translate(9502, 730)"/>
<path d="M238,-3Q213,-1 185,0Q156,0 129,0Q102,0 74,0Q45,-1 20,-3L20,21Q49,22 66,30Q83,37 85,55Q87,76 89,93Q90,110 91,126Q92,142 93,160Q93,178 93,200Q93,235 93,271Q92,306 90,334Q88,353 73,362Q58,370 17,372L17,397Q57,398 97,402Q136,405 171,414L174,409Q168,355 167,303Q165,251 165,200Q165,178 166,160Q166,142 167,126Q168,110 170,93Q171,76 173,55Q175,37 192,30Q209,22 238,21L238,-3ZM53,480Q33,480 21,493Q8,505 8,525Q8,545 21,558Q33,570 53,570Q73,570 86,558Q98,545 98,525Q98,505 86,493Q73,480 53,480ZM193,480Q173,480 161,493Q148,505 148,525Q148,545 161,558Q173,570 193,570Q213,570 226,558Q238,545 238,525Q238,505 226,493Q213,480 193,480Z"  transform="translate(10134, 730)"/>
<path d="M238,-3Q213,-1 185,0Q156,0 129,0Q102,0 74,0Q45,-1 20,-3L20,21Q49,22 66,30Q83,37 85,55Q87,76 89,93Q90,110 91,126Q92,142 93,160Q93,178 93,200Q93,235 93,271Q92,306 90,334Q88,353 73,362Q58,370 17,372L17,397Q57,398 97,402Q136,405 171,414L174,409Q168,355 167,303Q165,251 165,200Q165,178 166,160Q166,142 167,126Q168,110 170,93Q171,76 173,55Q175,37 192,30Q209,22 238,21L238,-3ZM130,482Q106,482 92,497Q77,511 77,535Q77,559 92,574Q106,588 130,588Q154,588 169,574Q183,559 183,535Q183,511 169,497Q154,482 130,482Z"  transform="translate(10385, 730)"/>
<path d=""  transform="translate(10636, 730)"/>
<path d="M379,2Q351,-14 325,-14Q301,-14 285,0Q268,14 260,51Q243,26 213,6Q182,-14 144,-14Q124,-14 105,-5Q86,4 72,20Q57,35 48,56Q39,76 39,99Q39,145 74,173Q108,200 158,208Q182,212 209,219Q236,225 256,232Q256,243 257,255Q257,266 257,280Q259,318 243,341Q226,364 181,364Q169,364 155,361Q141,357 130,348Q118,339 110,324Q101,309 99,286L69,284Q72,304 75,327Q77,350 78,367Q110,393 142,404Q173,414 205,414Q279,414 309,380Q339,346 335,293Q334,270 333,245Q332,219 332,193Q331,167 331,142Q331,117 331,96Q332,67 345,54Q357,40 370,40Q379,40 386,41Q393,42 402,47L406,43L401,15L379,2ZM125,94Q125,71 140,55Q155,38 178,38Q194,38 208,46Q221,53 232,66Q242,78 248,95Q254,111 254,129Q254,141 254,156Q254,171 255,190Q196,188 161,163Q125,138 125,94ZM207,461Q178,461 157,478Q136,495 136,524Q136,542 143,555Q150,568 162,576Q173,584 187,588Q201,592 215,592Q244,592 265,575Q286,558 286,529Q286,511 279,498Q272,485 261,477Q250,469 236,465Q221,461 207,461ZM181,529Q181,506 191,496Q200,485 214,485Q228,485 235,496Q241,507 241,524Q241,547 232,558Q222,568 208,568Q194,568 188,557Q181,546 181,529Z"  transform="translate(10851, 730)"/>
<path d="M3,397Q46,398 85,402Q124,405 159,414L162,409Q160,390 159,370Q157,349 157,325Q156,300 156,270Q155,239 155,200Q155,151 161,121Q167,91 178,75Q189,58 206,53Q223,47 244,47Q262,47 280,56Q297,64 312,83Q326,102 335,133Q344,164 344,210Q344,231 344,248Q344,264 343,279Q342,293 341,307Q340,320 338,335Q335,358 319,364Q302,370 264,372L264,397Q307,398 346,402Q385,405 420,414L423,409Q421,390 420,371Q418,352 418,330Q417,307 417,278Q416,249 416,210L416,185Q416,160 417,142Q417,123 419,110Q420,96 422,86Q424,75 427,64Q438,27 488,26L488,2Q466,2 449,1Q431,0 416,-1Q401,-3 388,-6Q374,-10 360,-14L356,-10Q351,11 349,30Q347,49 345,82Q331,37 297,12Q263,-14 217,-14Q151,-14 115,22Q79,57 81,119Q82,139 83,153Q83,166 83,175Q83,184 83,190Q83,195 83,200Q83,243 82,274Q81,304 77,335Q74,358 58,364Q41,370 3,372L3,397ZM218,465Q238,498 253,528Q267,558 279,589L362,605L365,602L260,472L218,465Z"  transform="translate(11277, 730)"/>
<path d="M237,-3Q212,-1 184,0Q155,0 128,0Q101,0 73,0Q44,-1 19,-3L19,21Q48,22 65,30Q82,37 84,55Q86,76 88,93Q89,110 90,126Q91,142 92,160Q92,178 92,200Q92,235 92,271Q91,306 89,334Q87,353 72,362Q57,370 16,372L16,397Q56,398 96,402Q135,405 170,414L173,409Q167,355 166,303Q164,251 164,200Q164,178 165,160Q165,142 166,126Q167,110 169,93Q170,76 172,55Q174,37 191,30Q208,22 237,21L237,-3ZM100,465Q120,498 135,528Q149,558 161,589L244,605L247,602L142,472L100,465Z"  transform="translate(11779, 730)"/>
<path d="M228,-3Q202,-1 174,0Q145,0 118,0Q91,0 63,0Q34,-1 9,-3L9,21Q38,22 55,30Q72,37 74,55Q76,76 78,98Q79,120 80,153Q81,185 82,232Q82,279 82,350Q82,418 82,465Q81,511 80,543Q79,574 78,595Q76,616 74,634Q72,653 56,662Q40,670 2,672L2,697Q53,698 92,702Q130,705 165,714L168,709Q164,682 161,653Q158,623 157,582Q155,541 155,486Q154,430 154,350Q154,279 155,232Q155,185 156,153Q157,120 159,98Q160,76 162,55Q164,37 182,30Q199,22 228,21L228,-3ZM175,213Q211,248 235,273Q259,297 273,314Q287,331 293,342Q299,352 299,359Q299,367 290,371Q281,374 258,376L258,400Q278,400 304,400Q329,400 355,401Q380,401 404,402Q428,403 444,404L444,380Q418,378 399,373Q380,367 354,347Q336,332 322,319Q307,306 295,292Q282,277 271,261Q259,245 245,224Q273,206 293,177L350,100Q368,76 382,61Q395,46 408,38Q421,30 435,27Q449,23 468,22L468,-3Q454,-2 435,-1Q416,-1 396,0Q375,0 355,0Q335,0 318,0L233,134Q222,152 209,166Q196,180 178,193L175,213Z"  transform="translate(12030, 730)"/>
<path d="M37,198Q37,247 53,287Q68,327 95,355Q122,383 159,399Q196,414 238,414Q326,414 377,360Q427,305 427,202Q427,153 412,113Q396,73 369,45Q342,17 305,2Q268,-14 226,-14Q138,-14 88,41Q37,95 37,198ZM231,28Q279,28 310,68Q341,108 341,193Q341,232 334,265Q326,297 312,321Q298,345 278,359Q258,372 233,372Q185,372 154,332Q123,292 123,207Q123,168 131,136Q138,103 152,79Q166,55 186,42Q206,28 231,28ZM213,465Q233,498 248,528Q262,558 274,589L357,605L360,602L255,472L213,465Z"  transform="translate(12480, 730)"/>
<path d="M38,198Q38,247 54,287Q69,327 96,355Q123,383 160,399Q197,414 239,414Q327,414 378,360Q428,305 428,202Q428,153 413,113Q397,73 370,45Q343,17 306,2Q269,-14 227,-14Q139,-14 89,41Q38,95 38,198ZM232,28Q280,28 311,68Q342,108 342,193Q342,232 335,265Q327,297 313,321Q299,345 279,359Q259,372 234,372Q186,372 155,332Q124,292 124,207Q124,168 132,136Q139,103 153,79Q167,55 187,42Q207,28 232,28ZM166,480Q146,480 134,493Q121,505 121,525Q121,545 134,558Q146,570 166,570Q186,570 199,558Q211,545 211,525Q211,505 199,493Q186,480 166,480ZM306,480Q286,480 274,493Q261,505 261,525Q261,545 274,558Q286,570 306,570Q326,570 339,558Q351,545 351,525Q351,505 339,493Q326,480 306,480Z"  transform="translate(12943, 730)"/>
<path d=""  transform="translate(13406, 730)"/>
<path d="M3,397Q46,398 85,402Q124,405 159,414L162,409Q160,390 159,370Q157,349 157,325Q156,300 156,270Q155,239 155,200Q155,151 161,121Q167,91 178,75Q189,58 206,53Q223,47 244,47Q262,47 280,56Q297,64 312,83Q326,102 335,133Q344,164 344,210Q344,231 344,248Q344,264 343,279Q342,293 341,307Q340,320 338,335Q335,358 319,364Q302,370 264,372L264,397Q307,398 346,402Q385,405 420,414L423,409Q421,390 420,371Q418,352 418,330Q417,307 417,278Q416,249 416,210L416,185Q416,160 417,142Q417,123 419,110Q420,96 422,86Q424,75 427,64Q438,27 488,26L488,2Q466,2 449,1Q431,0 416,-1Q401,-3 388,-6Q374,-10 360,-14L356,-10Q351,11 349,30Q347,49 345,82Q331,37 297,12Q263,-14 217,-14Q151,-14 115,22Q79,57 81,119Q82,139 83,153Q83,166 83,175Q83,184 83,190Q83,195 83,200Q83,243 82,274Q81,304 77,335Q74,358 58,364Q41,370 3,372L3,397ZM119,605L202,589Q214,558 229,528Q243,498 263,465L221,472L116,602L119,605Z"  transform="translate(13621, 730)"/>
<path d="M379,2Q351,-14 325,-14Q301,-14 285,0Q268,14 260,51Q243,26 213,6Q182,-14 144,-14Q124,-14 105,-5Q86,4 72,20Q57,35 48,56Q39,76 39,99Q39,145 74,173Q108,200 158,208Q182,212 209,219Q236,225 256,232Q256,243 257,255Q257,266 257,280Q259,318 243,341Q226,364 181,364Q169,364 155,361Q141,357 130,348Q118,339 110,324Q101,309 99,286L69,284Q72,304 75,327Q77,350 78,367Q110,393 142,404Q173,414 205,414Q279,414 309,380Q339,346 335,293Q334,270 333,245Q332,219 332,193Q331,167 331,142Q331,117 331,96Q332,67 345,54Q357,40 370,40Q379,40 386,41Q393,42 402,47L406,43L401,15L379,2ZM125,94Q125,71 140,55Q155,38 178,38Q194,38 208,46Q221,53 232,66Q242,78 248,95Q254,111 254,129Q254,141 254,156Q254,171 255,190Q196,188 161,163Q125,138 125,94ZM141,480Q121,480 109,493Q96,505 96,525Q96,545 109,558Q121,570 141,570Q161,570 174,558Q186,545 186,525Q186,505 174,493Q161,480 141,480ZM281,480Q261,480 249,493Q236,505 236,525Q236,545 249,558Q261,570 281,570Q301,570 314,558Q326,545 326,525Q326,505 314,493Q301,480 281,480Z"  transform="translate(14123, 730)"/>
<path d="M236,-3Q210,-1 182,0Q153,0 126,0Q99,0 71,0Q42,-1 17,-3L17,21Q46,22 63,30Q80,37 82,55Q84,76 86,93Q87,110 88,126Q89,142 90,160Q90,178 90,200Q90,234 89,269Q88,304 84,335Q81,358 65,364Q48,370 10,372L10,397Q53,398 83,402Q113,405 148,414L151,409Q153,389 155,362Q157,335 159,306Q173,355 207,385Q241,414 289,414Q351,414 382,388Q412,362 420,309Q436,357 470,386Q503,414 551,414Q617,414 653,379Q689,343 687,281Q685,215 686,156Q686,97 688,55Q689,37 706,30Q723,22 752,21L752,-3Q727,-1 704,0Q681,0 654,0Q641,0 629,0Q617,0 606,-2L604,2Q609,37 611,95Q613,152 614,237Q615,300 591,327Q567,353 524,353Q506,353 489,344Q471,334 457,314Q442,293 433,263Q424,232 424,190Q423,151 424,117Q424,82 426,55Q427,37 445,30Q462,22 491,21L491,-3Q465,-1 442,0Q419,0 392,0Q379,0 367,0Q355,0 344,-2L342,2Q347,37 349,95Q351,152 352,237Q353,300 329,327Q305,353 262,353Q244,353 227,344Q209,334 195,314Q180,293 171,263Q162,232 162,190Q162,161 164,125Q166,88 170,55Q172,37 190,30Q207,22 236,21L236,-3Z"  transform="translate(14549, 730)"/>
<path d="M37,198Q37,247 53,287Q68,327 95,355Q122,383 159,399Q196,414 238,414Q326,414 377,360Q427,305 427,202Q427,153 412,113Q396,73 369,45Q342,17 305,2Q268,-14 226,-14Q138,-14 88,41Q37,95 37,198ZM231,28Q279,28 310,68Q341,108 341,193Q341,232 334,265Q326,297 312,321Q298,345 278,359Q258,372 233,372Q185,372 154,332Q123,292 123,207Q123,168 131,136Q138,103 152,79Q166,55 186,42Q206,28 231,28ZM336,546Q334,473 281,473Q270,473 256,478Q242,482 224,493Q207,504 197,509Q186,514 178,514Q171,514 167,509Q162,503 160,485L134,482Q136,555 189,555Q201,555 215,551Q229,547 246,535Q277,514 292,514Q299,514 304,520Q308,525 310,543L336,546Z"  transform="translate(15307, 730)"/>
<path d="M637,9Q614,-3 592,-8Q570,-14 535,-14Q484,-14 446,11Q408,35 386,72Q360,31 320,9Q279,-14 227,-14Q139,-14 89,41Q38,95 38,198Q38,247 54,287Q69,327 96,355Q123,383 160,399Q197,414 239,414Q348,414 392,330Q415,368 456,391Q497,414 551,414Q582,414 609,401Q635,388 655,364Q675,339 687,305Q698,270 698,226Q698,215 681,206Q664,196 637,198Q607,200 579,200Q551,200 514,200Q488,200 467,199Q445,198 424,196Q428,124 465,82Q501,39 576,39Q602,39 629,49Q655,58 678,74L682,70L671,27L637,9ZM232,28Q280,28 311,69Q342,109 342,194Q342,233 335,266Q327,298 313,322Q299,345 279,359Q259,372 234,372Q186,372 155,332Q124,292 124,207Q124,168 132,136Q139,103 153,79Q167,55 187,42Q207,28 232,28ZM425,233Q446,232 468,232Q489,231 511,231Q576,231 616,246Q616,272 611,295Q605,317 594,334Q583,351 567,361Q551,371 529,371Q508,371 490,361Q472,350 459,332Q445,313 436,288Q427,262 425,233Z"  transform="translate(15770, 730)"/>
<path d="M227,-3Q202,-1 174,0Q145,0 118,0Q91,0 63,0Q34,-1 9,-3L9,21Q38,22 55,30Q72,37 74,55Q76,76 78,98Q79,120 80,153Q81,185 82,232Q82,279 82,350Q82,418 82,465Q81,511 80,543Q79,574 78,595Q76,616 74,634Q72,653 56,662Q40,670 2,672L2,697Q53,698 92,702Q130,705 165,714L168,709Q164,682 161,653Q158,623 157,582Q155,541 155,486Q154,430 154,350Q154,279 155,232Q155,185 156,153Q157,120 159,98Q160,76 162,55Q164,37 181,30Q198,22 227,21L227,-3Z"  transform="translate(16503, 730)"/>
</svg>
